<?xml version="1.0" encoding="utf-8"?>
<!-- Generator: Adobe Illustrator 25.3.1, SVG Export Plug-In . SVG Version: 6.00 Build 0)  -->
<svg version="1.1" id="Capa_1" xmlns="http://www.w3.org/2000/svg" xmlns:xlink="http://www.w3.org/1999/xlink" x="0px" y="0px"
	 width="234.1px" height="96px" viewBox="0 0 234.1 96" style="enable-background:new 0 0 234.1 96;" xml:space="preserve">
<style type="text/css">
	.st0{fill:#FF0000;}
	.st1{fill:#FFFFFF;}
	.st2{fill:#020203;}
</style>
<path d="M58.8-82.2L58.8-82.2L58.8-82.2L58.8-82.2z"/>
<g>
	<path d="M90,54.2V33.6h7.3c3.3,0,5.9,0.9,7.8,2.7c1.9,1.8,2.9,4.3,2.9,7.5c0,3.2-1,5.8-2.9,7.6c-1.9,1.8-4.5,2.8-7.8,2.8H90z
		 M95,49.9h2.1c1.8,0,3.2-0.5,4.1-1.6c1-1,1.5-2.5,1.5-4.5c0-1.9-0.5-3.4-1.5-4.4c-1-1-2.4-1.5-4.1-1.5H95V49.9z"/>
	<path d="M110.1,43.7c0-3,1-5.5,3-7.5c2-2,4.6-3,7.8-3c3.2,0,5.7,1,7.8,3c2,2,3,4.5,3,7.5c0,3.1-1,5.6-3,7.7c-2,2.1-4.6,3.1-7.8,3.1
		c-3.2,0-5.7-1-7.8-3.1C111.1,49.4,110.1,46.8,110.1,43.7z M115.3,43.7c0,1.8,0.5,3.2,1.6,4.4c1,1.2,2.4,1.8,4,1.8s2.9-0.6,4-1.8
		c1-1.2,1.6-2.6,1.6-4.4c0-1.7-0.5-3.1-1.6-4.2c-1-1.1-2.4-1.7-4-1.7s-2.9,0.6-4,1.7C115.9,40.6,115.3,42.1,115.3,43.7z"/>
	<path d="M134.9,54.2V33.6h5.1l5.7,9.6c0.2,0.4,0.5,0.9,0.8,1.5c0.3,0.6,0.5,1.1,0.7,1.5l0.3,0.6h0.1c-0.2-1.5-0.2-2.7-0.2-3.5v-9.6
		h5.1v20.6h-5.1l-5.7-9.6c-0.2-0.4-0.5-0.9-0.8-1.5c-0.3-0.6-0.5-1.1-0.7-1.5l-0.3-0.6h-0.1c0.2,1.5,0.2,2.7,0.2,3.5v9.6H134.9z"/>
	<path d="M154.4,54.2l7-20.6h5.3l7,20.6h-5.2l-1.3-4.3h-6.4l-1.2,4.3H154.4z M162,45.8h4.1l-1.2-4l-0.8-3.5H164
		c-0.3,1.5-0.6,2.7-0.8,3.5L162,45.8z"/>
	<path d="M178.5,54.2v-8.5l-6.8-12.2h5.7l2.3,5l1.2,3h0.1c0.4-1,0.8-2,1.2-3l2.3-5h5.7l-6.8,12.2v8.5H178.5z"/>
	<path d="M192.3,54.2V33.6h7.2c1.8,0,3.2,0.2,4,0.5c1.2,0.5,2.1,1.2,2.8,2.2c0.7,1,1,2.3,1,3.8c0,1.2-0.3,2.3-0.8,3.3
		c-0.5,1-1.3,1.8-2.3,2.3v0.1c0.2,0.3,0.5,0.7,0.8,1.2l4,7.2h-5.6l-3.7-7h-2.4v7H192.3z M197.3,42.9h2.2c0.8,0,1.5-0.2,1.9-0.7
		c0.5-0.4,0.7-1.1,0.7-1.9c0-1.1-0.4-1.9-1.2-2.2c-0.4-0.2-1.1-0.3-1.9-0.3h-1.7V42.9z"/>
	<path d="M211.3,54.2V33.6h12.9v4.3h-7.9v3.8h6.3V46h-6.3v3.9h8.3v4.3H211.3z"/>
	<g>
		<path d="M94.6,80.4V59.1h5.2v8.5h7.8v-8.5h5.2v21.3h-5.2v-8.3h-7.8v8.3H94.6z"/>
		<path d="M114.9,80.4l7.2-21.3h5.5l7.2,21.3h-5.4l-1.3-4.5h-6.6l-1.3,4.5H114.9z M122.8,71.8h4.2l-1.2-4.1L125,64h-0.1
			c-0.3,1.6-0.6,2.8-0.9,3.7L122.8,71.8z"/>
		<path d="M137.1,80.4V59.1h7.4c1.9,0,3.3,0.2,4.1,0.5c1.2,0.5,2.2,1.2,2.9,2.3c0.7,1.1,1,2.4,1,3.9c0,1.2-0.3,2.3-0.8,3.4
			c-0.6,1.1-1.3,1.9-2.4,2.4v0.1c0.2,0.3,0.5,0.7,0.8,1.3l4.1,7.5h-5.8l-3.8-7.2h-2.4v7.2H137.1z M142.3,68.8h2.3
			c0.9,0,1.5-0.2,2-0.7c0.5-0.5,0.7-1.1,0.7-1.9c0-1.2-0.4-1.9-1.3-2.3c-0.5-0.2-1.1-0.3-2-0.3h-1.8V68.8z"/>
		<path d="M161.1,80.4V63.6h-6.5v-4.5h18.2v4.5h-6.5v16.8H161.1z"/>
	</g>
	<g>
		<path d="M89.9,28.2l-3.1-12.7h3.3l1.6,7.9c0,0.2,0.1,0.5,0.1,0.7c0,0.2,0,0.4,0,0.5v0.2h0c0-0.4,0.1-0.8,0.2-1.3l1.9-7.9h2.5
			l1.9,7.9c0.1,0.2,0.1,0.5,0.1,0.7c0,0.2,0.1,0.4,0.1,0.5v0.2h0c0-0.4,0.1-0.8,0.2-1.3l1.7-7.9h3.2l-3.2,12.7h-3.5l-1.6-6.4
			l-0.2-1.5h0c0,0.4-0.1,0.9-0.2,1.5l-1.6,6.4H89.9z"/>
		<path d="M105.3,28.2V15.6h7.9v2.7h-4.8v2.3h3.9v2.7h-3.9v2.4h5.1v2.7H105.3z"/>
		<path d="M118,28.2l4.3-12.7h3.3l4.3,12.7h-3.2l-0.8-2.7h-4l-0.8,2.7H118z M122.6,23.1h2.5l-0.7-2.5l-0.5-2.2h0
			c-0.2,0.9-0.4,1.6-0.5,2.2L122.6,23.1z"/>
		<path d="M131.1,28.2V15.6h4.4c1.1,0,1.9,0.1,2.5,0.3c0.7,0.3,1.3,0.7,1.7,1.4c0.4,0.6,0.6,1.4,0.6,2.3c0,0.7-0.2,1.4-0.5,2
			c-0.3,0.6-0.8,1.1-1.4,1.4v0c0.1,0.2,0.3,0.4,0.5,0.8l2.5,4.4h-3.5l-2.2-4.3h-1.5v4.3H131.1z M134.2,21.3h1.3
			c0.5,0,0.9-0.1,1.2-0.4c0.3-0.3,0.4-0.7,0.4-1.2c0-0.7-0.2-1.1-0.7-1.3c-0.3-0.1-0.7-0.2-1.2-0.2h-1V21.3z"/>
		<path d="M142.8,28.2V15.6h7.9v2.7h-4.8v2.3h3.9v2.7h-3.9v2.4h5.1v2.7H142.8z"/>
	</g>
	<g>
		<path d="M180.3,75.5c-0.5,0.3-1,0.4-1.6,0.4c-0.4,0-0.8,0-1-0.1c-0.1,0-0.2,0-0.3-0.1c0-0.3-0.3-0.8-0.9-0.8c-0.5,0-0.8,0.4-1,0.8
			c-0.3,0.5-0.4,0.8-0.4,1c0,0.4,0.2,0.9,1.2,1.2c0.6,0.2,1.2,0.2,2.2,0.2c1,0,2.1-0.2,2.9-0.7c0.9-0.5,1.6-1,2.1-1.7
			c0.5-0.8,0.8-1.5,0.8-2.3c0-0.9-0.5-1.8-1.3-2.5c-0.8-0.6-1.8-1-3.3-1.5c-0.9-0.3-1.7-0.6-2.2-0.8c-0.5-0.2-0.8-0.4-1-0.6
			c-0.2-0.2-0.2-0.4-0.2-0.5s0.1-0.4,0.8-0.9c0.7-0.5,1.4-0.9,2.3-1.1s1.6-0.5,2.2-0.5c0.2,0,0.3,0,0.3,0c0.1,0,0.1,0,0.2,0.1
			c0,0,0.1,0,0.1,0.1c0.2,0.1,0.4,0.2,0.6,0.2c0.5,0,0.9-0.3,0.9-0.9c0-0.3,0-0.6-0.1-0.9c-0.1-0.4-0.4-0.9-1.5-0.9
			c-1,0-2.3,0.2-3.5,0.7s-2.3,1-3.1,1.8c-0.9,0.9-1.4,1.7-1.4,2.6c0,0.8,0.3,1.3,0.8,1.8c0.5,0.4,1,0.8,1.7,1
			c0.7,0.3,1.5,0.6,2.6,0.9l0,0c1,0.3,1.9,0.7,2.4,1s0.5,0.7,0.5,0.9c0,0.3-0.1,0.6-0.4,0.9C181,74.9,180.6,75.3,180.3,75.5z"/>
		<path d="M192.4,70.5c0.6-0.1,0.9-0.2,1.2-0.4l0,0c0.4-0.3,0.6-0.7,0.6-1.1c0-0.3-0.1-0.6-0.4-0.9c-0.3-0.3-0.6-0.5-0.9-0.5
			c-0.2,0-0.6,0.1-0.9,0.6c-1,0.2-1.8,0.4-2.4,0.5c0-0.5,0-0.9,0-1.2c0-0.6,0-1,0.1-1.3c0.1-0.6,0.1-0.7,0.1-0.8
			c0-0.3-0.1-0.6-0.3-0.7c-0.2-0.2-0.4-0.3-0.8-0.3c-0.6,0-1,0.3-1.2,0.9c-0.1,0.3-0.2,0.6-0.2,0.9c0,0.3-0.1,0.7-0.1,1.2
			c0,0.3,0,0.8,0,1.4c0,0.2,0,0.3,0,0.4c-0.3,0.1-0.7,0.1-1.1,0.2l0,0c-0.1,0-0.2,0-0.7,0.1c-0.4,0.1-0.7,0.1-0.7,0.1
			c-0.4,0-0.7,0-0.9,0.1c-0.4,0.2-0.6,0.6-0.6,0.9s0.2,0.8,0.5,0.9c0.3,0.2,0.6,0.3,0.9,0.3c0.1,0,0.4,0,1.3-0.2
			c0.5-0.1,0.9-0.2,1.3-0.3c0,0.4,0,0.8,0,1.2c0,0.7,0.1,1.3,0.1,1.9s0.1,1.1,0.2,1.7c0.1,0.6,0.2,0.9,0.3,1.1s0.2,0.4,0.3,0.5
			c0.2,0.2,0.4,0.3,0.7,0.3s0.6-0.1,0.9-0.3c0.5-0.3,0.6-0.8,0.6-0.9v-0.1v-0.1c0-0.1,0-0.2-0.2-0.8c-0.1-0.4-0.2-0.9-0.2-1.5
			c0-0.6-0.1-1.1-0.1-1.9c0-0.5,0-0.9,0-1.4l0.7-0.1C190.6,70.8,191.1,70.6,192.4,70.5z"/>
		<path d="M195.6,77.7c0.7,0,1.3-0.5,2.1-1.4c0.7-0.9,1.3-1.8,2-2.9c0.1-0.2,0.2-0.3,0.3-0.5c0,0.9,0.1,1.6,0.1,2
			c0.1,0.7,0.2,1.2,0.5,1.9c0.3,0.9,0.8,1.2,1.3,1.2c0.5,0,0.8-0.2,0.9-0.4l0,0c0.2-0.2,0.4-0.5,0.4-0.9c0-0.3-0.2-0.5-0.4-0.8
			c-0.1-0.1-0.2-0.2-0.3-0.6c-0.1-0.1-0.2-0.4-0.2-0.9c-0.1-0.6-0.1-1.6-0.2-3c0-1.4-0.1-2.6-0.1-3.1c0-0.3-0.1-0.7-0.6-0.9
			c-0.2-0.1-0.3-0.2-0.5-0.2V67l-0.1,0.2c-0.1,0-0.2-0.1-0.4-0.1c-0.1,0-0.6,0-0.8,0.6c-0.1,0.1-0.1,0.3-0.2,0.6
			c-0.2,0.6-0.3,0.9-0.3,1c-0.3,0.8-0.7,1.6-1.2,2.6s-1,1.8-1.6,2.6c-0.2,0.3-0.4,0.5-0.5,0.6c0-0.1,0-0.3,0-0.6
			c0-1.4,0.1-2.6,0.4-3.4c0.3-0.9,0.6-1.5,0.9-2.2c0.2-0.4,0.3-0.6,0.3-0.8c0-0.2-0.1-0.9-1.1-0.9c-0.3,0-0.6,0.1-0.9,0.4
			c-0.1,0.2-0.3,0.4-0.5,0.8c-0.4,0.7-0.7,1.6-0.9,2.7c-0.3,1.2-0.4,2.3-0.4,3.2c0,1,0.1,1.8,0.2,2.4
			C194.2,77.3,194.8,77.7,195.6,77.7z"/>
		<path d="M209.4,76c0,0.3,0,0.6,0.1,0.8c0.2,0.4,0.5,0.6,0.9,0.6c0.3,0,0.5-0.1,0.8-0.3c0.5-0.3,0.6-0.7,0.6-0.9
			c0-0.1,0-0.3-0.1-0.8l0,0c0-0.1,0-0.2,0-0.2c0-0.1,0-0.1,0-0.2v-0.1c0-0.5-0.1-1.4-0.2-2.9c-0.1-1.5-0.1-2.9-0.1-4.4
			c0-0.8,0-1.5,0-2.2c0-0.8,0-1.2,0-1.5v-0.9l0,0c0-0.4-0.2-0.8-0.5-0.9s-0.5-0.3-0.8-0.3c-0.5,0-0.7,0.3-0.8,0.4
			c-0.1,0.1-0.1,0.3-0.2,0.5c-0.1,0.4-0.1,0.9-0.1,1.8c0,0,0,0.1,0.1,2.1c-0.1,0-0.2,0-0.3,0c-0.7,0-1.4,0.5-2.5,1.5
			c-0.9,0.9-1.7,2-2.5,3.2c-0.8,1.3-1.1,2.5-1.1,3.6c0,0.9,0.2,1.6,0.6,2.2c0.6,0.8,1.2,0.9,1.7,0.9c1.2,0,2.3-0.9,3.3-2.4
			c0.3-0.6,0.7-1.1,0.9-1.8v0.2C209.4,74.6,209.4,75.4,209.4,76z M207.3,73.3c-0.5,0.9-1.1,2-2,2c-0.1-0.2-0.1-0.4-0.1-0.6
			c0-0.8,0.3-1.6,0.8-2.5c0.5-0.9,1.1-1.8,1.8-2.5c0.1-0.1,0.2-0.2,0.3-0.3c0.1,0.1,0.1,0.2,0.2,0.2c0.2,0.1,0.3,0.1,0.5,0.1
			C208.3,71.1,207.8,72.2,207.3,73.3z"/>
		<path d="M212.8,70.3c0,1,0.1,2,0.1,3c0.1,1.6,0.2,2.6,0.3,3.2c0.1,0.4,0.2,1.4,1,1.4h0.1c0.3,0,0.5-0.1,0.7-0.2l0,0
			c0.3-0.2,0.5-0.6,0.5-0.9c0-0.2,0-0.4-0.2-1.1c-0.1-0.9-0.2-1-0.2-1.1l0,0c-0.1-0.8-0.1-1.8-0.1-3v-2.3c0-1-0.1-1.4-0.2-1.6
			c-0.2-0.6-0.7-0.9-1.2-0.9c-0.5,0-0.8,0.3-0.9,0.5c-0.1,0.2-0.2,0.4-0.2,0.7l0,0C212.7,68.6,212.7,69.3,212.8,70.3z"/>
		<path d="M212.6,65.5c0.4,0.3,0.8,0.4,1.1,0.4c1.2,0,1.3-0.8,1.3-0.9c0-0.3-0.2-0.5-0.4-0.8c-0.2-0.2-0.3-0.4-0.4-0.5
			c-0.2-0.2-0.5-0.4-0.8-0.5h-0.1h-0.2c-0.2,0-0.6,0.1-0.9,0.4c-0.4,0.3-0.4,0.7-0.4,0.9C211.9,65,212.3,65.3,212.6,65.5z"/>
		<path d="M221,68.7c0-0.4-0.2-0.7-0.5-0.9c-0.2-0.1-0.5-0.2-0.7-0.2c-0.4,0-0.8,0.1-1.1,0.4c-0.3,0.2-0.6,0.6-0.9,0.9
			c-0.3,0.4-0.3,0.6-0.3,0.6c-0.5,0.8-0.8,1.6-1,2.6s-0.4,1.8-0.4,2.5c0,0.9,0.3,1.6,0.8,2.2c0.6,0.7,1.3,0.9,2.5,0.9
			c1,0,1.9-0.3,2.7-0.9c0.8-0.6,1.3-1.1,1.8-1.9l0,0c0.5-0.8,0.7-1.4,0.7-2.1c0-0.8-0.2-1.4-0.7-2c-0.4-0.5-0.9-0.9-1.4-1.4l0,0
			v-0.1c0-0.4-0.2-0.7-0.6-0.8c-0.1-0.1-0.3-0.1-0.6-0.1C221.2,68.7,221.1,68.7,221,68.7L221,68.7z M221.9,72.3
			c0.2,0.2,0.3,0.4,0.3,0.7c0,0.3-0.1,0.6-0.4,0.9s-0.6,0.8-0.9,1c-0.4,0.3-0.8,0.4-1.2,0.4c-1.1,0-1.1-0.5-1.1-0.8
			c0-0.7,0.1-1.3,0.3-1.9s0.5-1.2,0.8-1.8l0,0c0.1-0.1,0.1-0.3,0.2-0.4c0.1,0.1,0.2,0.2,0.2,0.3c0.2,0.2,0.5,0.4,0.9,0.7
			C221.3,71.8,221.7,72.1,221.9,72.3z"/>
	</g>
	<path d="M191.7,24.7h-36c-3.8,0-3.8,2.8,0,2.8h36C195.5,27.5,195.5,24.7,191.7,24.7z"/>
</g>
<g>
	<circle class="st0" cx="42.5" cy="38.5" r="33"/>
	<path class="st1" d="M83.4,21.8c-0.2,0-0.4-0.1-0.7-0.1c0.1-0.6-0.1-1.1-0.5-1.4c-0.8-1.7-2.6-2.5-4.1-3.3
		c-0.8,0.2-1.6,0.4-2.4,0.6c-0.8,0.2-1.6,0.5-2.3,0.9c-0.5,1.2-1.6,1.5-2.3,1.2c-5.5-2.8-11.3-7-17.5-6.2c-3.2,0.5-6.2-0.3-9.5,0.5
		c-0.8,0.1-1.5,0.2-2.3,0.4c-4.5,1.1-8.8,3.8-12.6,7.1c-0.5,0.3-0.9,0-1.4-0.3c-0.6-0.3-1.3-0.7-1.8-1.4c-0.7-0.5-1.4-0.8-2.2-0.6
		c-0.8-0.2-1.6-0.3-2.4-0.4c-1.4,0.9-3.1,1.9-3.8,3.7c-0.4,0.4-0.6,0.9-0.4,1.5c-0.2,0.1-0.4,0.1-0.7,0.2c0,1.3-0.1,2.6,0.2,3.9
		c0.4,1.8,1.2,3.5,2.2,5.1c0.2,0,0.3,0,0.5,0.1c0.4,0.2,0.8,0.2,1.1,0.6c0.3,0.4,0.4,1,0.1,1.4c0,0,0,0,0,0
		c-0.2,0.4-0.3,0.9-0.4,1.4c0.3,0.2,0.4,0.6,0.4,1c-0.3,1.7-0.2,3.4,0,5c0.1,0.1,0.3,0.1,0.4,0.2c-0.3,1.7-0.4,3.6-0.4,5.7
		c0,3.4,0.4,6.4,1,8.6c-0.1,0.9-0.1,1.7-0.2,2.6c0.3,1.7,0.6,3.4,1,5.1c0.2,0.8,0.3,1.7,0.6,2.5c0.9,3.2,2.6,6.1,5.9,8.4
		c0.7,0.5,1.5,1,2.4,1.4c0.9,0.4,1.8,0.8,2.8,1c0.5,0.3,0.9,0.5,1.4,0.8c1.4,0.8,2.8,1.6,4.2,2.4c-0.1,0.8-0.3,1.6-0.4,2.3
		c1.9,1.3,3.9,2.5,5.8,3.8c0,0,0,0,0,0l0,0.1l0.8,0.3l0-0.4c0.2,0.1,0.3,0.2,0.5,0.4c0.2,0.3,0.4,0.6,0.6,0.8
		c0.2,0.1,0.4,0.2,0.7,0.3c-0.1,0.1-0.1,0.1-0.2,0.2c0.2,0.2,0.4,0.4,0.6,0.7c0.3-0.2,0.5-0.3,0.9,0c0.1,0.1,0.3,0.2,0.4,0.3
		c1-0.4,1.8-1.2,2.8-1.6c0,0.2,0,0.4-0.1,0.5c0.3-0.4,0.8-0.7,1.3-0.8c-0.2,0-0.4-0.1-0.7-0.1c0.3-0.1,0.5-0.3,0.8-0.5l1.2,0
		l-0.2-0.6c1.5-0.9,3-1.8,4.5-2.7c0.6-0.5,1.8-0.5,1.9-1.4c0.2-0.6-0.3-1-0.7-1.4c0,0,1.3-0.6,2.9-1.4c0.5-0.3,1.1-0.5,1.7-0.8
		c6.3-1.7,11.4-6,13-12.2c0.3,0,0.5,0.2,0.8,0.2c0.6-2.4,0.9-4.9,1.3-7.4c0.2-0.6,0.3-1.3,0.3-2c0-1-0.2-1.9-0.6-2.6
		c0.6-2.4,0.9-5.4,0.9-8.5c0-3.1-0.3-6-0.9-8.4c0.2,0,0.4,0.1,0.5,0.2c-0.1-2.2-0.7-4.1-1.4-5.6c0.6-0.6,1.4-1,2.1-1.2
		c1.3-2,2.3-4.3,2.6-6.6C83.7,24.3,83.5,23.1,83.4,21.8z"/>
	<g>
		<path class="st2" d="M41.6,38.1c0.9,0.1,1.7,0.2,2.6,0.2c-2-0.5-4-0.9-5.7-1.7c2.2,0.4,4.5,0.9,6.8,1c-0.9-0.3-1.8-0.5-2.7-0.9
			l-0.1,0c-0.1-0.1-0.4-0.2-0.5-0.2c1.4,0.2,2.8,0.5,4.3,0.6c0.5-0.3,0.4-0.9,0.6-1.3c-0.3,0-0.6-0.1-0.8-0.1
			c-5.6-1.1-10.8-2.8-15.9-4.6c-0.3-0.1-0.7-0.3-1.1-0.3c-0.1,0.1-0.2,0.3-0.3,0.4c0.8,0.5,1.5,0.9,2.4,1.4
			c-0.9-0.2-1.8-0.5-2.6-0.8c-0.4,1.2-0.8,2.6-0.1,3.8C32.6,36.7,37,37.6,41.6,38.1L41.6,38.1z"/>
		<path class="st2" d="M54.9,61.8c0.1,0.3,0.2,0.3-0.2,0.4c-0.4,0.1-0.8,0.2-1.2,0.3c-0.8,0.2-1.6,0.4-2.4,0.5
			c-1.7,0.3-3.4,0.5-5.1,0.7c-1.1,0.1-1,1.3,0.1,1.2c2.3-0.2,4.6-0.5,6.9-1c1-0.2,2.2-0.4,3.1-0.8c0.8-0.4,0.8-1.1,0.5-1.7
			C56.2,60.6,54.6,61,54.9,61.8z"/>
		<path class="st2" d="M27,27.2c0.1-0.1,0.2-0.2,0.3-0.2c-0.4-0.1-0.8-0.3-1.2-0.5C26.3,26.7,26.6,27,27,27.2z"/>
		<path class="st2" d="M49.3,60.7L49.3,60.7c0.3,0.2,0.6,0.2,0.9,0.2c0.1,0,0.1,0,0.2,0c0.1,0,0.1,0,0.2,0c0.3,0,0.6-0.1,0.9-0.2
			l0-0.1c1.8-0.7,3.5-2.6,4.5-4.5c0-0.1,0-0.3,0-0.4c0,0.1,0.1,0.1,0.1,0.2c-0.1-0.7-0.4-1.3-1.1-1.5c-0.3-0.1-0.4-0.2-0.6-0.4
			c-0.4-0.1-0.9-0.1-1.3,0c-1.2,0-2.1,0.3-3,0.4c-0.9,0-1.9-0.2-3-0.2c-0.1,0-0.3-0.1-0.5-0.1c0-0.1,0.1-0.2,0.1-0.3
			c0-0.1,0.1-0.2,0.1-0.2c-0.5,0.1-0.8,0.2-1.1,0.5c-0.4,0.4-0.6,0.8-0.8,1.3c-0.1,0.2-0.2,0.3-0.3,0.4c0,0.1,0.1,0.1,0.1,0.2
			c0.1,0.3,0,0.6-0.1,0.9c0,0,0,0.1,0,0.1c0,0.1,0,0.2,0,0.3c0,0.1,0,0.2,0,0.3c0.1-0.1,0.3-0.3,0.4-0.4
			C46.1,58.7,47.7,60.2,49.3,60.7z"/>
		<path class="st2" d="M46.8,83.2c0,0,0.1,0,0.1,0c0-0.3,0-0.6,0-1c-0.1,0-0.1,0.1-0.2,0.1C46.8,82.6,46.8,82.9,46.8,83.2z"/>
		<path class="st2" d="M62.8,69.7c-0.4,0.3-0.7,0.5-1.2,0.6C62.1,70.2,62.5,70,62.8,69.7z"/>
		<path class="st2" d="M55.2,82.6c0.1-0.2,0.2-0.5,0.3-0.8c0-0.1,0-0.1,0.1-0.2c-0.2,0-0.3,0-0.5,0C55.1,82,55.1,82.3,55.2,82.6z"/>
		<path class="st2" d="M48.9,66.2c1.2-0.4,2.4-0.5,3.7-0.4c0.6-0.2,1.1-0.4,1.6-0.7c-2.2,0-4.7-0.2-6.5,1.3
			C48,66.1,48.4,66.1,48.9,66.2z"/>
		<path class="st2" d="M54.2,70.7c-1.4-1.5-3.2-2.4-5.2-2.6c0.2,0.2,0.4,0.4,0.5,0.5c-0.4-0.3-1-0.1-1.6,0.2c0,0,0.1,0.1,0.1,0.1
			c0.1,0.2,0.1,0.3,0.2,0.5c0,0,0,0,0.1,0c0,0,0,0,0,0c0.2,0.6,0.3,1.3,0.3,2c0.1,0,0.3,0.1,0.4,0.2c1.1,0.4,1.4,1.3,1.4,2.5
			c0.3,0.2,0.4,0.5,0.4,0.8c0.2,0,0.4,0,0.6,0c0.1-0.9,0.2-1.8,0.5-2.8c0.1,0.7,0.6,1,0.7,1.7c0.4-1.4,0.1-2.8,0-4
			C52.9,70.3,53.5,70.6,54.2,70.7z"/>
		<path class="st2" d="M39.9,68.9c0-0.1-0.1-0.1-0.1-0.2c0.4,0.7,0.9,1.3,1.5,1.6C40.7,69.9,40.3,69.4,39.9,68.9z"/>
		<path class="st2" d="M46,74.6c-0.3,0.5-0.5,1.1-0.5,1.8C45.7,75.9,45.9,75.3,46,74.6z"/>
		<path class="st2" d="M87.4,42.9c0.1-0.5-0.1-0.8-0.3-1c0.4-0.5,0.4-1.2-0.2-1.7c-2.5-1.8-4.5-4.2-5.8-7c-0.6-1.3-2.5-0.2-1.9,1.1
			c1.3,2.7,3.3,5.1,5.6,7c-1.6-0.3-3.2-0.6-4.7-0.8c0.2-2.9-0.5-5.3-1.3-7.1c0.6-0.6,1.4-1,2.1-1.2c1.3-2,2.3-4.3,2.6-6.6
			c0.2-1.3,0.1-2.6-0.1-3.9c-0.2,0-0.4-0.1-0.7-0.1c0.1-0.6-0.1-1.1-0.5-1.4c-0.8-1.7-2.6-2.5-4.1-3.3c-0.8,0.2-1.6,0.4-2.4,0.6
			c-0.8,0.2-1.6,0.5-2.3,0.9c-0.5,1.2-1.6,1.5-2.3,1.2c-5.5-2.8-11.3-7-17.5-6.2c-3.2,0.5-6.2-0.3-9.5,0.5c-0.8,0.1-1.5,0.2-2.3,0.4
			c-4.5,1.1-8.8,3.8-12.6,7.1c-0.5,0.3-0.9,0-1.4-0.3c-0.6-0.3-1.3-0.7-1.8-1.4c-0.7-0.5-1.4-0.8-2.2-0.6c-0.8-0.2-1.6-0.3-2.4-0.4
			c-1.4,0.9-3.1,1.9-3.8,3.7c-0.4,0.4-0.6,0.9-0.4,1.5c-0.2,0.1-0.4,0.1-0.7,0.2c0,1.3-0.1,2.6,0.2,3.9c0.6,2.7,2.1,5.3,4,7.4
			c-0.5,1.4-0.9,3.1-0.9,5c-1.3,0.2-2.6,0.5-3.9,0.7c1.5-1.5,2.8-3,4.2-4.6c0.9-1.1-0.7-2.6-1.5-1.5c-1.7,2.1-3.6,4.1-5.6,6
			c-0.4,0.4-0.4,0.9-0.1,1.3c-0.3,0.5-0.2,1.2,0,2.4c0.1,0.3,0.3,0.7,0.6,0.9c0.7,0.4,1.2,1,1.4,1.7c0.7,1.9,1.4,3.8,2.1,5.8
			c0.8,2.2,2.2,3.8,4.2,4.8c0.3,2.4,0.7,4.8,1.3,7.2c0.2,0.8,0.3,1.7,0.6,2.5c0.9,3.2,2.6,6.1,5.9,8.4c0.7,0.5,1.5,1,2.4,1.4
			c0.9,0.4,1.8,0.8,2.8,1c0.5,0.3,0.9,0.5,1.4,0.8c1.4,0.8,2.8,1.6,4.2,2.4c-0.1,0.8-0.3,1.6-0.4,2.3c1.9,1.3,3.9,2.5,5.8,3.8
			c0,0,0,0,0,0l0,0.1l0.8,0.3l0-0.4c0.2,0.1,0.3,0.2,0.5,0.4c0.2,0.3,0.4,0.6,0.6,0.8c0.2,0.1,0.4,0.2,0.7,0.3
			c-0.1,0.1-0.1,0.1-0.2,0.2c0.2,0.2,0.4,0.4,0.6,0.7c0.3-0.2,0.5-0.3,0.9,0c0.1,0.1,0.3,0.2,0.4,0.3c1-0.4,1.8-1.2,2.8-1.6
			c0,0.2,0,0.4-0.1,0.5c0.3-0.4,0.8-0.7,1.3-0.8c-0.2,0-0.4-0.1-0.7-0.1c0.3-0.1,0.5-0.3,0.8-0.5l1.2,0l-0.2-0.6
			c1.5-0.9,3-1.8,4.5-2.7c0.6-0.5,1.8-0.5,1.9-1.4c0.2-0.6-0.3-1-0.7-1.4c0,0,1.3-0.6,2.9-1.4c0.5-0.3,1.1-0.5,1.7-0.8
			c6.3-1.7,11.4-6,13-12.2c0.3,0,0.5,0.2,0.8,0.2c0.8-2.9,1-6,1.5-8.9c0-0.5,0.1-1,0.1-1.5c1.2-0.8,2.1-1.9,2.7-3.4
			c0.9-2.3,1.7-4.6,2.6-6.8c0.2-0.5,0.6-1,1-1.2c0.7-0.4,0.9-1,0.9-1.7C87.4,43.8,87.4,43.4,87.4,42.9z M78,57.4
			c-2.3,0.8-4.8,1.1-7.4,1.1c-3,0-6-0.5-8.9-1.6c-1.5-0.6-2.8-1.5-3.7-2.8c-0.3-0.5-0.6-0.9-0.9-1.4c0.4,0.2,0.7,0.4,1.1,0.5
			c-0.5-0.7-1.3-1.1-1.8-1.9c0,0,0,0,0,0c2.8,0.7,4.2,2,7,0.1c-0.3,0.8-0.9,1.5-1.3,2.3c1-0.7,1.7-1.8,2.6-2.7
			c-0.4,1.4-1.4,2.2-2.2,3.3c1.1-0.4,1.8-1.5,2.7-2.2c-0.3,0.9-1.1,1.6-1.6,2.4c2.4-0.9,3.5-3.2,4.5-5.5c0.8-1.6,2.6-0.7,3.7,0.1
			c-2-6.8-9.7-3.7-14.4-2.6c-0.7,0.2-1.5,0.3-2.2,0.4c0-0.3-0.1-0.6-0.1-0.9c-0.1-1.8,0.8-3.1,2.5-3.9c1.8-0.8,3.8-1.3,5.8-1.5
			c1.2-0.1,2.3-0.2,3.5-0.3c3.9-0.2,7.8,0.1,11.6,1c0.1,0.1,0.1,0.3,0.1,0.5c0,0.1,0,0.1,0,0.2c0.8,2,0.9,4.3,0.8,6.3
			c-0.1,1.9-0.3,3.8-0.9,5.6c0,0.2,0,0.3,0,0.5c0,0.3,0,0.6-0.1,1c0,0.1,0,0.1,0,0.2c0,0.2,0,0.4-0.1,0.5c0,0.3,0,0.5-0.1,0.8
			C78.1,57.1,78.1,57.3,78,57.4C78.1,57.4,78,57.4,78,57.4z M57,49.4c0.3-0.5,1-0.6,1.5-0.8c1.8-0.4,3.6-1,5.4-1.4
			c0.6-0.1,1-0.2,1.5-0.1c0.4,0.2,0.3,0.8,0,1.1c-0.8,1-2.1,1.7-3.3,2.1c-1.4,0.3-2.9,0.4-4.3-0.1v0C57.4,50,56.9,49.9,57,49.4z
			 M81.2,30c0-0.1,0.1-0.3,0.1-0.4c0-0.4,0.1-0.8,0.4-1C81.5,29.1,81.4,29.5,81.2,30z M18.7,30.8c0.3,0.2,0.5,0.5,0.5,1
			c0,0.1,0.1,0.3,0.1,0.4C19,31.7,18.8,31.3,18.7,30.8z M22.1,38c0.2,0.1,0.3,0.2,0.4,0.4c0,0.1,0.1,0.1,0.1,0.2
			c0.1-0.1,0.2-0.2,0.3-0.3c0.7-2.1,1.7-4.1,3.1-5.7c0,0,0,0,0,0c-0.7-0.1-1.4-0.5-2-1c-0.1-0.1-0.2-0.2-0.3-0.3l0.3-1.1
			c0,0-0.3,0.2-0.7,0.7c-0.1-0.1-0.2-0.2-0.3-0.2c0.1,0.1,0.1,0.3,0.2,0.4c-0.2,0.2-0.3,0.4-0.5,0.6c-1.2-1.1-2.1-2.6-2.8-4.1
			c0.2,1.1,0.8,2.1,1.2,3.1c-1.2-1.4-1.8-3.2-2.1-5c-0.1-0.1-0.1-0.3-0.2-0.4c-0.1,0.3-0.2,0.7-0.3,1c-0.1-0.5-0.1-1-0.1-1.6
			c0,0,0,0-0.1-0.1c0.1-0.7,0.2-1.5,0.4-2.2c-0.1,0.1-0.3,0.1-0.4,0.1c0,0,0-0.1-0.1-0.1c0.6-0.8,1.3-1.6,2.3-1.9
			c0.6-0.3,1.1-0.4,1.7-0.4c0.6,0,1.2,0.2,1.7,0.4c1.5,0.7,3.3,1.2,4,3c0.2-0.3,0.7-0.5,0.9-0.5c0.4,0.3,0.6,1.1,0.6,1.6
			c3.1-4.3,7.4-6.9,12.1-8.1c0.8-0.2,1.6-0.4,2.4-0.5c8.3-1.5,19.3-1,25.3,6.5c0.2,0.3,1.1-0.8,2.3-0.8c0.2,0,0.5-0.5,0.6-1
			c0.5-0.3,1-0.6,1.6-1c1.6-1,3.3-2,5.1-1.2c1.1,0.2,1.8,0.9,2.5,1.7c-0.1,0-0.1,0-0.1,0.1c-0.1,0-0.2,0-0.4-0.1
			c0.2,0.7,0.4,1.5,0.6,2.1c0,0.1-0.1,0.1-0.1,0.1c0.1,0.5,0.1,1,0.1,1.6c0-0.4-0.2-0.7-0.3-1c-0.1,0.1-0.1,0.3-0.2,0.4
			c-0.2,1.9-0.7,3.7-1.7,5.2c0.3-1,0.9-2.1,0.9-3.2c-0.7,1.9-1.7,3.9-3.2,5.1c-0.1-0.1-0.2-0.3-0.3-0.4c0.3-0.4,0.5-0.8,0.7-1.3
			c-0.4,0.3-0.6,0.6-1,1c-0.3-0.3-0.5-0.4-0.5-0.4l0.2,0.7c-0.5,0.5-1.1,0.8-1.7,1c-0.1-0.1-0.3-0.1-0.4-0.2c0.4-0.3,0.7-0.6,1-1
			c-0.4,0.3-0.9,0.6-1.4,0.8l-0.2-0.1c0,0,0,0,0,0c-0.3,0.1-0.6,0.3-0.8,0.5l0,0.2c0.4-0.3,0.9-0.3,1.3,0.1c1.4,1.4,2.4,3.6,3.1,5.5
			c0,0,0,0.1,0.1,0.1c0.1-0.1,0.2-0.1,0.3-0.2c0-0.4,0-0.7,0.1-1.1l1.1,4.4c-1-0.2-2.1-0.3-3.1-0.4c-1.2-0.1-2.4-0.2-3.6-0.3
			c0.1-0.1,0.1-0.2,0.2-0.3c-0.1,0-0.4,0.1-0.5,0.1c-1.4-0.1-2.9,0-4.3-0.1c1.6,0,3.2-0.4,4.8-0.6c0.6-0.2,0.4-0.7,0.6-1
			c-0.8,0.2-1.7,0.4-2.5,0.5c-0.5,0-0.9,0-1.4,0.1c1.1-0.3,2.3-0.6,3.5-1c0.2-0.1,0.6-0.2,0.5-0.4c0-0.7,0-1.3-0.3-2
			c-0.5,0.1-0.9,0.2-1.4,0.3c-5.6,1.3-11.3,2.4-17.3,2.9c-0.1,0-0.3,0-0.4,0c0.2,0.5,0,1.1,0.4,1.6c0.9,0,1.8,0,2.8,0
			c-0.8,0.2-1.6,0.2-2.4,0.3c-0.6-0.1-0.4,0.4-0.2,0.6c1.3,0.2,2.6,0.2,3.9,0.2c0,0,0,0,0,0c-1.2,0.3-2.4,0.7-3.5,1.2
			c-2.7,1.1-5.5,1-8.2,0c-4.8-1.8-9.9-2.7-15-2.6c-3.2-0.1-6.3,0.2-9.3,0.6L22.1,38z M23.5,32.4l0.1-0.6c0.3,0.4,0.7,0.8,1.1,1.2
			C24.2,32.8,23.8,32.6,23.5,32.4z M76.3,31.1c-0.1,0.1-0.3,0.2-0.5,0.2c0.1-0.2,0.3-0.4,0.4-0.5L76.3,31.1z M42.8,46.6
			c-4.7-1.1-12.4-4.2-14.4,2.6c1.1-0.8,2.9-1.7,3.7-0.1c1,2.2,2.1,4.6,4.5,5.5c-0.6-0.8-1.4-1.4-1.6-2.4c0.9,0.7,1.6,1.8,2.7,2.2
			c-0.8-1.1-1.8-2-2.2-3.3c0.9,0.9,1.6,2,2.6,2.7c-0.4-0.8-1-1.5-1.3-2.3c2.8,1.9,4.2,0.5,7-0.1c-0.5,0.8-1.3,1.2-1.8,2
			c0.4-0.2,0.7-0.4,1.1-0.6c-0.5,0.9-1.2,1.7-2,2.5c-1.2,1.3-3,1.8-4.8,2.3c-4.4,1.1-8.7,1.3-13.1,0.1c-0.3-0.1-0.5-0.1-0.7-0.2
			c-0.1-0.7-0.2-1.3-0.2-2c0.1,0.1,0.1,0.2,0.2,0.3c0-0.1,0-0.1,0-0.2c0.5-2.2-0.4-4.5-0.8-6.7c-0.4-1.8-0.5-3.5-0.1-5.2
			c0,0-0.1,0-0.1,0c0-0.6,0-1.1,0.1-1.6c-0.1,0-0.3,0-0.4-0.1l0.2-0.7c3.3-0.8,6.6-1.1,10-1.1c3.4,0.1,6.7,0.3,10,1.4
			c0.5,0.2,0.9,0.4,1.3,0.6c1.8,0.8,2.6,2.1,2.5,3.9c0,0.3,0,0.5-0.1,0.8C44.3,46.9,43.5,46.8,42.8,46.6z M42.5,50.2L42.5,50.2
			c-1.4,0.5-3,0.4-4.3,0.1c-1.2-0.4-2.5-1-3.3-2.1c-0.3-0.3-0.4-0.9,0-1.1c0.5-0.1,0.9,0,1.5,0.1c1.8,0.4,3.6,0.9,5.4,1.4
			c0.5,0.1,1.1,0.2,1.5,0.8C43.3,49.9,42.8,50,42.5,50.2z M18,53.5c-1-2.5-1.5-5.1-1.5-7.7c0.1-2.1,0.8-3.1,3-3.7
			c0.1,0,0.2-0.1,0.3-0.1c0,0.2,0.1,0.5,0.1,0.7c-0.1,0-0.1,0-0.2,0c0.5,4.7,0.7,9.5,1.2,14.3C19.6,56.1,18.6,55,18,53.5z
			 M59.8,82.9c-0.3,0-0.4-0.5-0.2-0.7C60,82,60.2,82.8,59.8,82.9z M77.9,59.2c-0.2,8.3-5,16.4-14,18.9c-0.4,0.2-0.9,0.5-1.4,0.8
			c-1.6,0.9-3.4,1.9-3.4,1.9c-0.3-0.6-0.6-1.3-0.9-1.9c0,0,0,0,0.1,0.1c1.5-1.5,3.2-2.8,4.1-4.5c0.6-0.7,1.1-1.4,1.5-2.2
			c1.3-2.3,1.8-4.9,0.7-8.3c-0.4-0.9-0.8-1.7-1.2-2.5c-0.3-0.6-0.6-1.3-1-2c-0.4-0.6-0.8-1.2-1.5-1.4c0.4,0.5,0.7,1.1,1.1,1.8
			c0.7,1.4,1.4,3.1,1.7,4.8c0.2,0.8,0.2,1.7,0.1,2.4c-0.1,0.9-0.3,2-1,2.7c0.5-0.3,0.9-0.7,1.3-1.1c-1.6,3.4-3.1,8.8-6.2,9.6
			c-0.2-0.3-0.3-0.6-0.5-1c0.2,1.6,0.5,3.1,0.7,4.7c0.2,0.6,0.2,1.2,0.1,1.8c-0.6,0.4-1.2,0.8-1.8,1.1c0,0.1,0,0.2,0,0.3
			c0,1-1.1,1.3-1.7,0.9c-0.2,0.1-0.3,0.2-0.5,0.3l-1.5-4.7l0.5,5.3c-0.8,0.5-1.6,1-2.4,1.5c-0.3,0.2-0.6,0.3-1,0.4l0,0.1
			c-0.1,0-0.4,0.1-0.6,0.2c-0.8-0.5-1.5-1-2.2-1.4c0-0.1,0-0.2,0-0.3c-0.3,0.1-0.7,0.1-1,0l0.7-6.6l-1.3,5.9c-1-0.7-2.1-1.4-3-2.1
			c-0.3-0.8-0.1-1.8-0.2-2.7c-0.2,0.7-0.4,1.4-0.6,2.1c-0.3-0.2-0.7-0.4-0.7-0.8c0-1.9,0.3-3.7,0.6-5.6c0,0,0,0,0,0c0,0,0,0,0,0
			c0.2-0.9,0.3-1.7,0.5-2.6c-0.1,0-0.2,0-0.3-0.1c-0.3,0.7-0.5,1.5-0.7,2.2c0,0,0,0,0,0c-1.6-1.4-2.6-3.2-3.2-5.3
			c-0.3-0.7-0.5-1.4-0.7-2.2c-0.2-0.7-0.4-1.5-0.6-2.2c0.5,0.3,0.9,0.8,1.3,1.3c0-0.1-0.1-0.1-0.1-0.2c-0.5-0.8-0.8-1.8-0.9-2.8
			c-0.3-2.5,0.4-5.3,1.7-7c-1-0.4-2.1,0.7-2.3,2.1c0.3-0.3,0.5-0.7,0.8-1c-0.5,2.8-2.8,4.9-2,8.1l0.3-0.3c0.8,1.4,1.6,2.8,1.4,4.5
			c0-0.2,0.2-0.3,0.2-0.6c0.2,0.8,0.5,1.5,0.9,2.1c0.9,1.4,2.1,2.9,3.1,4.4c-0.2,0.7-0.4,1.4-0.6,2.1l0,0.3
			c-0.7-0.4-1.4-0.8-2.1-1.2c0-0.2,0.1-0.3,0.1-0.5c-0.5,0.1-1,0-1.4-0.4c0,0,0,0,0,0c-0.6-0.3-1.3-0.7-1.9-1.1
			c-1-0.3-1.9-0.6-2.8-1c-0.8-0.4-1.5-0.9-2.2-1.5c-2.1-1.8-3.5-3.9-4.5-6.2c-0.3-0.8-0.6-1.6-0.8-2.4c-0.6-2.5-1.4-5-2-7.5
			c0.5,0.2,1.1,0.3,1.7,0.4c4.4,0.9,8.8,0.4,13.1-0.5c3.3-0.7,5.9-2.8,7.1-5.8c0.1-0.3,0.2-0.5,0.3-0.8c0.2-0.1,0.4-0.2,0.6-0.2
			c0.1,0,0.1-0.1,0.2-0.1c0.6-1.4,0.9-2.9,1-4.5c0.1-0.2,0.1-0.3,0.2-0.5c0.4-1.3,1-1.8,2.4-1.9c0.4,0,0.9,0,1.3,0
			c2.1,0,2.7,0.5,3.3,2.4c0,0,0,0.1,0,0.1c0.1,1.5,0.3,2.9,1,4.3c0.1,0,0.1,0.1,0.2,0.1c0.1,0,0.2,0.1,0.3,0.1
			c0.2,0.5,0.4,0.9,0.6,1.4c1.5,2.9,3.5,4.3,7,5.3c2.7,0.8,5.2,1.1,8,1.1c2.2,0,4.6-0.3,6.6-0.9c0.3-0.1,0.5-0.2,0.8-0.3
			C78,58.7,77.9,58.9,77.9,59.2z M81.5,54.6c-0.3,0.6-0.8,1.1-1.3,1.6c0-0.6,0.1-1.3,0.1-1.9c0.1-0.7,0.1-1.4,0.1-2.2
			c0-0.7,0-1.5,0-2.2c0.1-0.6,0.2-1.3,0.3-2c0.2-2,0.3-4-0.1-5.9c2.2,0.7,2.9,1.7,2.9,3.9C83.6,48.9,83,51.9,81.5,54.6z"/>
	</g>
</g>
</svg>
