<?xml version="1.0" encoding="utf-8"?>
<!-- Generator: Adobe Illustrator 25.3.1, SVG Export Plug-In . SVG Version: 6.00 Build 0)  -->
<svg version="1.1" id="Capa_1" xmlns="http://www.w3.org/2000/svg" xmlns:xlink="http://www.w3.org/1999/xlink" x="0px" y="0px"
	 width="234.1px" height="96px" viewBox="0 0 234.1 96" style="enable-background:new 0 0 234.1 96;" xml:space="preserve">
<style type="text/css">
	.st0{fill:#FF0000;}
	.st1{fill:#FFFFFF;}
	.st2{fill:#020203;}
</style>
<g>
	<path d="M89.5,55.2V34.5h7.3c3.3,0,5.9,0.9,7.8,2.7c1.9,1.8,2.9,4.3,2.9,7.5c0,3.2-1,5.8-2.9,7.6c-1.9,1.8-4.5,2.8-7.8,2.8H89.5z
		 M94.5,50.8h2.1c1.8,0,3.2-0.5,4.1-1.6c1-1,1.5-2.5,1.5-4.5c0-1.9-0.5-3.4-1.5-4.4c-1-1-2.4-1.5-4.1-1.5h-2.1V50.8z"/>
	<path d="M109.6,44.7c0-3,1-5.5,3-7.5c2-2,4.6-3,7.8-3c3.2,0,5.7,1,7.8,3c2,2,3,4.5,3,7.5c0,3.1-1,5.6-3,7.7c-2,2.1-4.6,3.1-7.8,3.1
		c-3.2,0-5.7-1-7.8-3.1C110.6,50.4,109.6,47.8,109.6,44.7z M114.8,44.7c0,1.8,0.5,3.2,1.6,4.4c1,1.2,2.4,1.8,4,1.8s2.9-0.6,4-1.8
		c1-1.2,1.6-2.6,1.6-4.4c0-1.7-0.5-3.1-1.6-4.2c-1-1.1-2.4-1.7-4-1.7s-2.9,0.6-4,1.7C115.4,41.6,114.8,43,114.8,44.7z"/>
	<path d="M134.4,55.2V34.5h5.1l5.7,9.6c0.2,0.4,0.5,0.9,0.8,1.5c0.3,0.6,0.5,1.1,0.7,1.5l0.3,0.6h0.1c-0.2-1.5-0.2-2.7-0.2-3.5v-9.6
		h5.1v20.6h-5.1l-5.7-9.6c-0.2-0.4-0.5-0.9-0.8-1.5c-0.3-0.6-0.5-1.1-0.7-1.5l-0.3-0.6h-0.1c0.2,1.5,0.2,2.7,0.2,3.5v9.6H134.4z"/>
	<path d="M153.9,55.2l7-20.6h5.3l7,20.6h-5.2l-1.3-4.3h-6.4l-1.2,4.3H153.9z M161.5,46.8h4.1l-1.2-4l-0.8-3.5h-0.1
		c-0.3,1.5-0.6,2.7-0.8,3.5L161.5,46.8z"/>
	<path d="M178,55.2v-8.5l-6.8-12.2h5.7l2.3,5l1.2,3h0.1c0.4-1,0.8-2,1.2-3l2.3-5h5.7l-6.8,12.2v8.5H178z"/>
	<path d="M191.8,55.2V34.5h7.2c1.8,0,3.2,0.2,4,0.5c1.2,0.5,2.1,1.2,2.8,2.2c0.7,1,1,2.3,1,3.8c0,1.2-0.3,2.3-0.8,3.3
		c-0.5,1-1.3,1.8-2.3,2.3v0.1c0.2,0.3,0.5,0.7,0.8,1.2l4,7.2h-5.6l-3.7-7h-2.4v7H191.8z M196.8,43.9h2.2c0.8,0,1.5-0.2,1.9-0.7
		c0.5-0.4,0.7-1.1,0.7-1.9c0-1.1-0.4-1.9-1.2-2.2c-0.4-0.2-1.1-0.3-1.9-0.3h-1.7V43.9z"/>
	<path d="M210.8,55.2V34.5h12.9v4.3h-7.9v3.8h6.3V47h-6.3v3.9h8.3v4.3H210.8z"/>
	<g>
		<path d="M94.1,81.4V60.1h5.2v8.5h7.8v-8.5h5.2v21.3h-5.2v-8.3h-7.8v8.3H94.1z"/>
		<path d="M114.5,81.4l7.2-21.3h5.5l7.2,21.3h-5.4l-1.3-4.5h-6.6l-1.3,4.5H114.5z M122.3,72.8h4.2l-1.2-4.1l-0.9-3.7h-0.1
			c-0.3,1.6-0.6,2.8-0.9,3.7L122.3,72.8z"/>
		<path d="M136.6,81.4V60.1h7.4c1.9,0,3.3,0.2,4.1,0.5c1.2,0.5,2.2,1.2,2.9,2.3c0.7,1.1,1,2.4,1,3.9c0,1.2-0.3,2.3-0.8,3.4
			c-0.6,1.1-1.3,1.9-2.4,2.4v0.1c0.2,0.3,0.5,0.7,0.8,1.3l4.1,7.5H148l-3.8-7.2h-2.4v7.2H136.6z M141.8,69.8h2.3
			c0.9,0,1.5-0.2,2-0.7c0.5-0.5,0.7-1.1,0.7-1.9c0-1.2-0.4-1.9-1.3-2.3c-0.5-0.2-1.1-0.3-2-0.3h-1.8V69.8z"/>
		<path d="M160.6,81.4V64.6h-6.5v-4.5h18.2v4.5h-6.5v16.8H160.6z"/>
	</g>
	<g>
		<path d="M89.4,29.2l-3.1-12.7h3.3l1.6,7.9c0,0.2,0.1,0.5,0.1,0.7c0,0.2,0,0.4,0,0.5v0.2h0c0-0.4,0.1-0.8,0.2-1.3l1.9-7.9H96
			l1.9,7.9c0.1,0.2,0.1,0.5,0.1,0.7c0,0.2,0.1,0.4,0.1,0.5v0.2h0c0-0.4,0.1-0.8,0.2-1.3l1.7-7.9h3.2l-3.2,12.7h-3.5L95,22.8
			l-0.2-1.5h0c0,0.4-0.1,0.9-0.2,1.5l-1.6,6.4H89.4z"/>
		<path d="M104.8,29.2V16.5h7.9v2.7h-4.8v2.3h3.9v2.7h-3.9v2.4h5.1v2.7H104.8z"/>
		<path d="M117.5,29.2l4.3-12.7h3.3l4.3,12.7h-3.2l-0.8-2.7h-4l-0.8,2.7H117.5z M122.1,24.1h2.5l-0.7-2.5l-0.5-2.2h0
			c-0.2,0.9-0.4,1.6-0.5,2.2L122.1,24.1z"/>
		<path d="M130.6,29.2V16.5h4.4c1.1,0,1.9,0.1,2.5,0.3c0.7,0.3,1.3,0.7,1.7,1.4c0.4,0.6,0.6,1.4,0.6,2.3c0,0.7-0.2,1.4-0.5,2
			c-0.3,0.6-0.8,1.1-1.4,1.4v0c0.1,0.2,0.3,0.4,0.5,0.8l2.5,4.4h-3.5l-2.2-4.3h-1.5v4.3H130.6z M133.7,22.3h1.3
			c0.5,0,0.9-0.1,1.2-0.4c0.3-0.3,0.4-0.7,0.4-1.2c0-0.7-0.2-1.1-0.7-1.3c-0.3-0.1-0.7-0.2-1.2-0.2h-1V22.3z"/>
		<path d="M142.3,29.2V16.5h7.9v2.7h-4.8v2.3h3.9v2.7h-3.9v2.4h5.1v2.7H142.3z"/>
	</g>
	<g>
		<path d="M179.8,76.5c-0.5,0.3-1,0.4-1.6,0.4c-0.4,0-0.8,0-1-0.1c-0.1,0-0.2,0-0.3-0.1c0-0.3-0.3-0.8-0.9-0.8c-0.5,0-0.8,0.4-1,0.8
			c-0.3,0.5-0.4,0.8-0.4,1c0,0.4,0.2,0.9,1.2,1.2c0.6,0.2,1.2,0.2,2.2,0.2c1,0,2.1-0.2,2.9-0.7c0.9-0.5,1.6-1,2.1-1.7
			c0.5-0.8,0.8-1.5,0.8-2.3c0-0.9-0.5-1.8-1.3-2.5c-0.8-0.6-1.8-1-3.3-1.5c-0.9-0.3-1.7-0.6-2.2-0.8c-0.5-0.2-0.8-0.4-1-0.6
			c-0.2-0.2-0.2-0.4-0.2-0.5s0.1-0.4,0.8-0.9c0.7-0.5,1.4-0.9,2.3-1.1s1.6-0.5,2.2-0.5c0.2,0,0.3,0,0.3,0c0.1,0,0.1,0,0.2,0.1
			c0,0,0.1,0,0.1,0.1c0.2,0.1,0.4,0.2,0.6,0.2c0.5,0,0.9-0.3,0.9-0.9c0-0.3,0-0.6-0.1-0.9c-0.1-0.4-0.4-0.9-1.5-0.9
			c-1,0-2.3,0.2-3.5,0.7s-2.3,1-3.1,1.8c-0.9,0.9-1.4,1.7-1.4,2.6c0,0.8,0.3,1.3,0.8,1.8c0.5,0.4,1,0.8,1.7,1
			c0.7,0.3,1.5,0.6,2.6,0.9l0,0c1,0.3,1.9,0.7,2.4,1s0.5,0.7,0.5,0.9c0,0.3-0.1,0.6-0.4,0.9C180.5,75.9,180.1,76.3,179.8,76.5z"/>
		<path d="M191.9,71.4c0.6-0.1,0.9-0.2,1.2-0.4l0,0c0.4-0.3,0.6-0.7,0.6-1.1c0-0.3-0.1-0.6-0.4-0.9c-0.3-0.3-0.6-0.5-0.9-0.5
			c-0.2,0-0.6,0.1-0.9,0.6c-1,0.2-1.8,0.4-2.4,0.5c0-0.5,0-0.9,0-1.2c0-0.6,0-1,0.1-1.3c0.1-0.6,0.1-0.7,0.1-0.8
			c0-0.3-0.1-0.6-0.3-0.7c-0.2-0.2-0.4-0.3-0.8-0.3c-0.6,0-1,0.3-1.2,0.9c-0.1,0.3-0.2,0.6-0.2,0.9c0,0.3-0.1,0.7-0.1,1.2
			c0,0.3,0,0.8,0,1.4c0,0.2,0,0.3,0,0.4c-0.3,0.1-0.7,0.1-1.1,0.2l0,0c-0.1,0-0.2,0-0.7,0.1c-0.4,0.1-0.7,0.1-0.7,0.1
			c-0.4,0-0.7,0-0.9,0.1c-0.4,0.2-0.6,0.6-0.6,0.9s0.2,0.8,0.5,0.9s0.6,0.3,0.9,0.3c0.1,0,0.4,0,1.3-0.2c0.5-0.1,0.9-0.2,1.3-0.3
			c0,0.4,0,0.8,0,1.2c0,0.7,0.1,1.3,0.1,1.9s0.1,1.1,0.2,1.7c0.1,0.6,0.2,0.9,0.3,1.1s0.2,0.4,0.3,0.5c0.2,0.2,0.4,0.3,0.7,0.3
			s0.6-0.1,0.9-0.3c0.5-0.3,0.6-0.8,0.6-0.9v-0.1v-0.1c0-0.1,0-0.2-0.2-0.8c-0.1-0.4-0.2-0.9-0.2-1.5c0-0.6-0.1-1.1-0.1-1.9
			c0-0.5,0-0.9,0-1.4l0.7-0.1C190.1,71.8,190.6,71.6,191.9,71.4z"/>
		<path d="M195.1,78.7c0.7,0,1.3-0.5,2.1-1.4c0.7-0.9,1.3-1.8,2-2.9c0.1-0.2,0.2-0.3,0.3-0.5c0,0.9,0.1,1.6,0.1,2
			c0.1,0.7,0.2,1.2,0.5,1.9c0.3,0.9,0.8,1.2,1.3,1.2c0.5,0,0.8-0.2,0.9-0.4l0,0c0.2-0.2,0.4-0.5,0.4-0.9c0-0.3-0.2-0.5-0.4-0.8
			c-0.1-0.1-0.2-0.2-0.3-0.6c-0.1-0.1-0.2-0.4-0.2-0.9c-0.1-0.6-0.1-1.6-0.2-3c0-1.4-0.1-2.6-0.1-3.1c0-0.3-0.1-0.7-0.6-0.9
			c-0.2-0.1-0.3-0.2-0.5-0.2v-0.2l-0.1,0.2c-0.1,0-0.2-0.1-0.4-0.1c-0.1,0-0.6,0-0.8,0.6c-0.1,0.1-0.1,0.3-0.2,0.6
			c-0.2,0.6-0.3,0.9-0.3,1c-0.3,0.8-0.7,1.6-1.2,2.6c-0.6,0.9-1,1.8-1.6,2.6c-0.2,0.3-0.4,0.5-0.5,0.6c0-0.1,0-0.3,0-0.6
			c0-1.4,0.1-2.6,0.4-3.4c0.3-0.9,0.6-1.5,0.9-2.2c0.2-0.4,0.3-0.6,0.3-0.8c0-0.2-0.1-0.9-1.1-0.9c-0.3,0-0.6,0.1-0.9,0.4
			c-0.1,0.2-0.3,0.4-0.5,0.8c-0.4,0.7-0.7,1.6-0.9,2.7c-0.3,1.2-0.4,2.3-0.4,3.2c0,1,0.1,1.8,0.2,2.4
			C193.8,78.2,194.3,78.7,195.1,78.7z"/>
		<path d="M208.9,77c0,0.3,0,0.6,0.1,0.8c0.2,0.4,0.5,0.6,0.9,0.6c0.3,0,0.5-0.1,0.8-0.3c0.5-0.3,0.6-0.7,0.6-0.9
			c0-0.1,0-0.3-0.1-0.8l0,0c0-0.1,0-0.2,0-0.2c0-0.1,0-0.1,0-0.2v-0.1c0-0.5-0.1-1.4-0.2-2.9c-0.1-1.5-0.1-2.9-0.1-4.4
			c0-0.8,0-1.5,0-2.2c0-0.8,0-1.2,0-1.5v-0.9l0,0c0-0.4-0.2-0.8-0.5-0.9s-0.5-0.3-0.8-0.3c-0.5,0-0.7,0.3-0.8,0.4
			c-0.1,0.1-0.1,0.3-0.2,0.5c-0.1,0.4-0.1,0.9-0.1,1.8c0,0,0,0.1,0.1,2.1c-0.1,0-0.2,0-0.3,0c-0.7,0-1.4,0.5-2.5,1.5
			c-0.9,0.9-1.7,2-2.5,3.2c-0.8,1.3-1.1,2.5-1.1,3.6c0,0.9,0.2,1.6,0.6,2.2c0.6,0.8,1.2,0.9,1.7,0.9c1.2,0,2.3-0.9,3.3-2.4
			c0.3-0.6,0.7-1.1,0.9-1.8v0.2C208.9,75.6,208.9,76.4,208.9,77z M206.8,74.3c-0.5,0.9-1.1,2-2,2c-0.1-0.2-0.1-0.4-0.1-0.6
			c0-0.8,0.3-1.6,0.8-2.5c0.5-0.9,1.1-1.8,1.8-2.5c0.1-0.1,0.2-0.2,0.3-0.3c0.1,0.1,0.1,0.2,0.2,0.2c0.2,0.1,0.3,0.1,0.5,0.1
			C207.8,72.1,207.3,73.2,206.8,74.3z"/>
		<path d="M212.3,71.2c0,1,0.1,2,0.1,3c0.1,1.6,0.2,2.6,0.3,3.2c0.1,0.4,0.2,1.4,1,1.4h0.1c0.3,0,0.5-0.1,0.7-0.2l0,0
			c0.3-0.2,0.5-0.6,0.5-0.9c0-0.2,0-0.4-0.2-1.1c-0.1-0.9-0.2-1-0.2-1.1l0,0c-0.1-0.8-0.1-1.8-0.1-3v-2.3c0-1-0.1-1.4-0.2-1.6
			c-0.2-0.6-0.7-0.9-1.2-0.9c-0.5,0-0.8,0.3-0.9,0.5c-0.1,0.2-0.2,0.4-0.2,0.7l0,0C212.2,69.5,212.2,70.3,212.3,71.2z"/>
		<path d="M212.1,66.5c0.4,0.3,0.8,0.4,1.1,0.4c1.2,0,1.3-0.8,1.3-0.9c0-0.3-0.2-0.5-0.4-0.8c-0.2-0.2-0.3-0.4-0.4-0.5
			c-0.2-0.2-0.5-0.4-0.8-0.5H213h-0.2c-0.2,0-0.6,0.1-0.9,0.4c-0.4,0.3-0.4,0.7-0.4,0.9C211.4,66,211.8,66.3,212.1,66.5z"/>
		<path d="M220.5,69.6c0-0.4-0.2-0.7-0.5-0.9c-0.2-0.1-0.5-0.2-0.7-0.2c-0.4,0-0.8,0.1-1.1,0.4c-0.3,0.2-0.6,0.6-0.9,0.9
			c-0.3,0.4-0.3,0.6-0.3,0.6c-0.5,0.8-0.8,1.6-1,2.6s-0.4,1.8-0.4,2.5c0,0.9,0.3,1.6,0.8,2.2c0.6,0.7,1.3,0.9,2.5,0.9
			c1,0,1.9-0.3,2.7-0.9c0.8-0.6,1.3-1.1,1.8-1.9l0,0c0.5-0.8,0.7-1.4,0.7-2.1c0-0.8-0.2-1.4-0.7-2c-0.4-0.5-0.9-0.9-1.4-1.4l0,0
			v-0.1c0-0.4-0.2-0.7-0.6-0.8c-0.1-0.1-0.3-0.1-0.6-0.1C220.7,69.6,220.6,69.6,220.5,69.6L220.5,69.6z M221.4,73.3
			c0.2,0.2,0.3,0.4,0.3,0.7c0,0.3-0.1,0.6-0.4,0.9c-0.3,0.4-0.6,0.8-0.9,1c-0.4,0.3-0.8,0.4-1.2,0.4c-1.1,0-1.1-0.5-1.1-0.8
			c0-0.7,0.1-1.3,0.3-1.9s0.5-1.2,0.8-1.8l0,0c0.1-0.1,0.1-0.3,0.2-0.4c0.1,0.1,0.2,0.2,0.2,0.3c0.2,0.2,0.5,0.4,0.9,0.7
			C220.8,72.8,221.2,73,221.4,73.3z"/>
	</g>
	<path d="M191.2,25.7h-36c-3.8,0-3.8,2.8,0,2.8h36C195,28.5,195,25.7,191.2,25.7z"/>
</g>
<g>
	<circle class="st0" cx="42" cy="39.5" r="33"/>
	<path class="st1" d="M82.9,22.8c-0.2,0-0.4-0.1-0.7-0.1c0.1-0.6-0.1-1.1-0.5-1.4c-0.8-1.7-2.6-2.5-4.1-3.3
		c-0.8,0.2-1.6,0.4-2.4,0.6c-0.8,0.2-1.6,0.5-2.3,0.9c-0.5,1.2-1.6,1.5-2.3,1.2c-5.5-2.8-11.3-7-17.5-6.2c-3.2,0.5-6.2-0.3-9.5,0.5
		c-0.8,0.1-1.5,0.2-2.3,0.4c-4.5,1.1-8.8,3.8-12.6,7.1c-0.5,0.3-0.9,0-1.4-0.3c-0.6-0.3-1.3-0.7-1.8-1.4c-0.7-0.5-1.4-0.8-2.2-0.6
		c-0.8-0.2-1.6-0.3-2.4-0.4c-1.4,0.9-3.1,1.9-3.8,3.7c-0.4,0.4-0.6,0.9-0.4,1.5c-0.2,0.1-0.4,0.1-0.7,0.2c0,1.3-0.1,2.6,0.2,3.9
		c0.4,1.8,1.2,3.5,2.2,5.1c0.2,0,0.3,0,0.5,0.1c0.4,0.2,0.8,0.2,1.1,0.6c0.3,0.4,0.4,1,0.1,1.4c0,0,0,0,0,0
		c-0.2,0.4-0.3,0.9-0.4,1.4c0.3,0.2,0.4,0.6,0.4,1c-0.3,1.7-0.2,3.4,0,5c0.1,0.1,0.3,0.1,0.4,0.2c-0.3,1.7-0.4,3.6-0.4,5.7
		c0,3.4,0.4,6.4,1,8.6c-0.1,0.9-0.1,1.7-0.2,2.6c0.3,1.7,0.6,3.4,1,5.1c0.2,0.8,0.3,1.7,0.6,2.5c0.9,3.2,2.6,6.1,5.9,8.4
		c0.7,0.5,1.5,1,2.4,1.4c0.9,0.4,1.8,0.8,2.8,1c0.5,0.3,0.9,0.5,1.4,0.8c1.4,0.8,2.8,1.6,4.2,2.4c-0.1,0.8-0.3,1.6-0.4,2.3
		c1.9,1.3,3.9,2.5,5.8,3.8c0,0,0,0,0,0l0,0.1l0.8,0.3l0-0.4c0.2,0.1,0.3,0.2,0.5,0.4c0.2,0.3,0.4,0.6,0.6,0.8
		c0.2,0.1,0.4,0.2,0.7,0.3c-0.1,0.1-0.1,0.1-0.2,0.2c0.2,0.2,0.4,0.4,0.6,0.7c0.3-0.2,0.5-0.3,0.9,0c0.1,0.1,0.3,0.2,0.4,0.3
		c1-0.4,1.8-1.2,2.8-1.6c0,0.2,0,0.4-0.1,0.5c0.3-0.4,0.8-0.7,1.3-0.8c-0.2,0-0.4-0.1-0.7-0.1c0.3-0.1,0.5-0.3,0.8-0.5l1.2,0
		l-0.2-0.6c1.5-0.9,3-1.8,4.5-2.7c0.6-0.5,1.8-0.5,1.9-1.4c0.2-0.6-0.3-1-0.7-1.4c0,0,1.3-0.6,2.9-1.4c0.5-0.3,1.1-0.5,1.7-0.8
		c6.3-1.7,11.4-6,13-12.2c0.3,0,0.5,0.2,0.8,0.2c0.6-2.4,0.9-4.9,1.3-7.4c0.2-0.6,0.3-1.3,0.3-2c0-1-0.2-1.9-0.6-2.6
		c0.6-2.4,0.9-5.4,0.9-8.5c0-3.1-0.3-6-0.9-8.4c0.2,0,0.4,0.1,0.5,0.2c-0.1-2.2-0.7-4.1-1.4-5.6c0.6-0.6,1.4-1,2.1-1.2
		c1.3-2,2.3-4.3,2.6-6.6C83.2,25.3,83,24.1,82.9,22.8z"/>
	<g>
		<path class="st2" d="M41.1,39.1c0.9,0.1,1.7,0.2,2.6,0.2c-2-0.5-4-0.9-5.7-1.7c2.2,0.4,4.5,0.9,6.8,1c-0.9-0.3-1.8-0.5-2.7-0.9
			l-0.1,0c-0.1-0.1-0.4-0.2-0.5-0.2c1.4,0.2,2.8,0.5,4.3,0.6c0.5-0.3,0.4-0.9,0.6-1.3c-0.3,0-0.6-0.1-0.8-0.1
			c-5.6-1.1-10.8-2.8-15.9-4.6c-0.3-0.1-0.7-0.3-1.1-0.3c-0.1,0.1-0.2,0.3-0.3,0.4c0.8,0.5,1.5,0.9,2.4,1.4
			c-0.9-0.2-1.8-0.5-2.6-0.8c-0.4,1.2-0.8,2.6-0.1,3.8C32.1,37.7,36.5,38.6,41.1,39.1L41.1,39.1z"/>
		<path class="st2" d="M54.4,62.8c0.1,0.3,0.2,0.3-0.2,0.4c-0.4,0.1-0.8,0.2-1.2,0.3c-0.8,0.2-1.6,0.4-2.4,0.5
			c-1.7,0.3-3.4,0.5-5.1,0.7c-1.1,0.1-1,1.3,0.1,1.2c2.3-0.2,4.6-0.5,6.9-1c1-0.2,2.2-0.4,3.1-0.8c0.8-0.4,0.8-1.1,0.5-1.7
			C55.7,61.6,54.1,62,54.4,62.8z"/>
		<path class="st2" d="M26.5,28.2c0.1-0.1,0.2-0.2,0.3-0.2c-0.4-0.1-0.8-0.3-1.2-0.5C25.8,27.7,26.2,28,26.5,28.2z"/>
		<path class="st2" d="M48.9,61.7L48.9,61.7c0.3,0.2,0.6,0.2,0.9,0.2c0.1,0,0.1,0,0.2,0c0.1,0,0.1,0,0.2,0c0.3,0,0.6-0.1,0.9-0.2
			l0-0.1c1.8-0.7,3.5-2.6,4.5-4.5c0-0.1,0-0.3,0-0.4c0,0.1,0.1,0.1,0.1,0.2c-0.1-0.7-0.4-1.3-1.1-1.5c-0.3-0.1-0.4-0.2-0.6-0.4
			c-0.4-0.1-0.9-0.1-1.3,0c-1.2,0-2.1,0.3-3,0.4c-0.9,0-1.9-0.2-3-0.2c-0.1,0-0.3-0.1-0.5-0.1c0-0.1,0.1-0.2,0.1-0.3
			c0-0.1,0.1-0.2,0.1-0.2c-0.5,0.1-0.8,0.2-1.1,0.5c-0.4,0.4-0.6,0.8-0.8,1.3c-0.1,0.2-0.2,0.3-0.3,0.4c0,0.1,0.1,0.1,0.1,0.2
			c0.1,0.3,0,0.6-0.1,0.9c0,0,0,0.1,0,0.1c0,0.1,0,0.2,0,0.3c0,0.1,0,0.2,0,0.3c0.1-0.1,0.3-0.3,0.4-0.4
			C45.6,59.7,47.2,61.2,48.9,61.7z"/>
		<path class="st2" d="M46.3,84.2c0,0,0.1,0,0.1,0c0-0.3,0-0.6,0-1c-0.1,0-0.1,0.1-0.2,0.1C46.3,83.6,46.3,83.9,46.3,84.2z"/>
		<path class="st2" d="M62.3,70.7c-0.4,0.3-0.7,0.5-1.2,0.6C61.7,71.2,62,71,62.3,70.7z"/>
		<path class="st2" d="M54.7,83.6c0.1-0.2,0.2-0.5,0.3-0.8c0-0.1,0-0.1,0.1-0.2c-0.2,0-0.3,0-0.5,0C54.6,83,54.6,83.3,54.7,83.6z"/>
		<path class="st2" d="M48.4,67.2c1.2-0.4,2.4-0.5,3.7-0.4c0.6-0.2,1.1-0.4,1.6-0.7c-2.2,0-4.7-0.2-6.5,1.3
			C47.5,67.1,48,67.1,48.4,67.2z"/>
		<path class="st2" d="M53.7,71.7c-1.4-1.5-3.2-2.4-5.2-2.6c0.2,0.2,0.4,0.4,0.5,0.5c-0.4-0.3-1-0.1-1.6,0.2c0,0,0.1,0.1,0.1,0.1
			c0.1,0.2,0.1,0.3,0.2,0.5c0,0,0,0,0.1,0c0,0,0,0,0,0c0.2,0.6,0.3,1.3,0.3,2c0.1,0,0.3,0.1,0.4,0.2c1.1,0.4,1.4,1.3,1.4,2.5
			c0.3,0.2,0.4,0.5,0.4,0.8c0.2,0,0.4,0,0.6,0c0.1-0.9,0.2-1.8,0.5-2.8c0.1,0.7,0.6,1,0.7,1.7c0.4-1.4,0.1-2.8,0-4
			C52.4,71.3,53,71.6,53.7,71.7z"/>
		<path class="st2" d="M39.4,69.8c0-0.1-0.1-0.1-0.1-0.2c0.4,0.7,0.9,1.3,1.5,1.6C40.2,70.9,39.8,70.4,39.4,69.8z"/>
		<path class="st2" d="M45.5,75.6c-0.3,0.5-0.5,1.1-0.5,1.8C45.3,76.9,45.4,76.3,45.5,75.6z"/>
		<path class="st2" d="M86.9,43.9c0.1-0.5-0.1-0.8-0.3-1c0.4-0.5,0.4-1.2-0.2-1.7c-2.5-1.8-4.5-4.2-5.8-7c-0.6-1.3-2.5-0.2-1.9,1.1
			c1.3,2.7,3.3,5.1,5.6,7c-1.6-0.3-3.2-0.6-4.7-0.8c0.2-2.9-0.5-5.3-1.3-7.1c0.6-0.6,1.4-1,2.1-1.2c1.3-2,2.3-4.3,2.6-6.6
			c0.2-1.3,0.1-2.6-0.1-3.9c-0.2,0-0.4-0.1-0.7-0.1c0.1-0.6-0.1-1.1-0.5-1.4c-0.8-1.7-2.6-2.5-4.1-3.3c-0.8,0.2-1.6,0.4-2.4,0.6
			c-0.8,0.2-1.6,0.5-2.3,0.9c-0.5,1.2-1.6,1.5-2.3,1.2c-5.5-2.8-11.3-7-17.5-6.2c-3.2,0.5-6.2-0.3-9.5,0.5c-0.8,0.1-1.5,0.2-2.3,0.4
			c-4.5,1.1-8.8,3.8-12.6,7.1c-0.5,0.3-0.9,0-1.4-0.3c-0.6-0.3-1.3-0.7-1.8-1.4c-0.7-0.5-1.4-0.8-2.2-0.6c-0.8-0.2-1.6-0.3-2.4-0.4
			c-1.4,0.9-3.1,1.9-3.8,3.7c-0.4,0.4-0.6,0.9-0.4,1.5c-0.2,0.1-0.4,0.1-0.7,0.2c0,1.3-0.1,2.6,0.2,3.9c0.6,2.7,2.1,5.3,4,7.4
			c-0.5,1.4-0.9,3.1-0.9,5c-1.3,0.2-2.6,0.5-3.9,0.7c1.5-1.5,2.8-3,4.2-4.6c0.9-1.1-0.7-2.6-1.5-1.5c-1.7,2.1-3.6,4.1-5.6,6
			C12,42.4,12,43,12.3,43.3c-0.3,0.5-0.2,1.2,0,2.4c0.1,0.3,0.3,0.7,0.6,0.9c0.7,0.4,1.2,1,1.4,1.7c0.7,1.9,1.4,3.8,2.1,5.8
			c0.8,2.2,2.2,3.8,4.2,4.8c0.3,2.4,0.7,4.8,1.3,7.2c0.2,0.8,0.3,1.7,0.6,2.5c0.9,3.2,2.6,6.1,5.9,8.4c0.7,0.5,1.5,1,2.4,1.4
			c0.9,0.4,1.8,0.8,2.8,1c0.5,0.3,0.9,0.5,1.4,0.8c1.4,0.8,2.8,1.6,4.2,2.4c-0.1,0.8-0.3,1.6-0.4,2.3c1.9,1.3,3.9,2.5,5.8,3.8
			c0,0,0,0,0,0l0,0.1l0.8,0.3l0-0.4c0.2,0.1,0.3,0.2,0.5,0.4c0.2,0.3,0.4,0.6,0.6,0.8c0.2,0.1,0.4,0.2,0.7,0.3
			c-0.1,0.1-0.1,0.1-0.2,0.2c0.2,0.2,0.4,0.4,0.6,0.7c0.3-0.2,0.5-0.3,0.9,0c0.1,0.1,0.3,0.2,0.4,0.3c1-0.4,1.8-1.2,2.8-1.6
			c0,0.2,0,0.4-0.1,0.5c0.3-0.4,0.8-0.7,1.3-0.8c-0.2,0-0.4-0.1-0.7-0.1c0.3-0.1,0.5-0.3,0.8-0.5l1.2,0l-0.2-0.6
			c1.5-0.9,3-1.8,4.5-2.7c0.6-0.5,1.8-0.5,1.9-1.4c0.2-0.6-0.3-1-0.7-1.4c0,0,1.3-0.6,2.9-1.4c0.5-0.3,1.1-0.5,1.7-0.8
			c6.3-1.7,11.4-6,13-12.2c0.3,0,0.5,0.2,0.8,0.2c0.8-2.9,1-6,1.5-8.9c0-0.5,0.1-1,0.1-1.5c1.2-0.8,2.1-1.9,2.7-3.4
			c0.9-2.3,1.7-4.6,2.6-6.8c0.2-0.5,0.6-1,1-1.2c0.7-0.4,0.9-1,0.9-1.7C87,44.8,86.9,44.4,86.9,43.9z M77.5,58.4
			c-2.3,0.8-4.8,1.1-7.4,1.1c-3,0-6-0.5-8.9-1.6c-1.5-0.6-2.8-1.5-3.7-2.8c-0.3-0.5-0.6-0.9-0.9-1.4c0.4,0.2,0.7,0.4,1.1,0.5
			c-0.5-0.7-1.3-1.1-1.8-1.9c0,0,0,0,0,0c2.8,0.7,4.2,2,7,0.1c-0.3,0.8-0.9,1.5-1.3,2.3c1-0.7,1.7-1.8,2.6-2.7
			c-0.4,1.4-1.4,2.2-2.2,3.3c1.1-0.4,1.8-1.5,2.7-2.2c-0.3,0.9-1.1,1.6-1.6,2.4c2.4-0.9,3.5-3.2,4.5-5.5c0.8-1.6,2.6-0.7,3.7,0.1
			c-2-6.8-9.7-3.7-14.4-2.6c-0.7,0.2-1.5,0.3-2.2,0.4c0-0.3-0.1-0.6-0.1-0.9c-0.1-1.8,0.8-3.1,2.5-3.9c1.8-0.8,3.8-1.3,5.8-1.5
			c1.2-0.1,2.3-0.2,3.5-0.3c3.9-0.2,7.8,0.1,11.6,1c0.1,0.1,0.1,0.3,0.1,0.5c0,0.1,0,0.1,0,0.2c0.8,2,0.9,4.3,0.8,6.3
			c-0.1,1.9-0.3,3.8-0.9,5.6c0,0.2,0,0.3,0,0.5c0,0.3,0,0.6-0.1,1c0,0.1,0,0.1,0,0.2c0,0.2,0,0.4-0.1,0.5c0,0.3,0,0.5-0.1,0.8
			C77.6,58.1,77.6,58.2,77.5,58.4C77.6,58.4,77.6,58.4,77.5,58.4z M56.5,50.4c0.3-0.5,1-0.6,1.5-0.8c1.8-0.4,3.6-1,5.4-1.4
			c0.6-0.1,1-0.2,1.5-0.1c0.4,0.2,0.3,0.8,0,1.1c-0.8,1-2.1,1.7-3.3,2.1c-1.4,0.3-2.9,0.4-4.3-0.1v0C56.9,51,56.4,50.8,56.5,50.4z
			 M80.7,31c0-0.1,0.1-0.3,0.1-0.4c0-0.4,0.1-0.8,0.4-1C81,30.1,80.9,30.5,80.7,31z M18.2,31.8c0.3,0.2,0.5,0.5,0.5,1
			c0,0.1,0.1,0.3,0.1,0.4C18.5,32.7,18.3,32.3,18.2,31.8z M21.6,39c0.2,0.1,0.3,0.2,0.4,0.4c0,0.1,0.1,0.1,0.1,0.2
			c0.1-0.1,0.2-0.2,0.3-0.3c0.7-2.1,1.7-4.1,3.1-5.7c0,0,0,0,0,0c-0.7-0.1-1.4-0.5-2-1c-0.1-0.1-0.2-0.2-0.3-0.3l0.3-1.1
			c0,0-0.3,0.2-0.7,0.7c-0.1-0.1-0.2-0.2-0.3-0.2c0.1,0.1,0.1,0.3,0.2,0.4c-0.2,0.2-0.3,0.4-0.5,0.6c-1.2-1.1-2.1-2.6-2.8-4.1
			c0.2,1.1,0.8,2.1,1.2,3.1c-1.2-1.4-1.8-3.2-2.1-5c-0.1-0.1-0.1-0.3-0.2-0.4c-0.1,0.3-0.2,0.7-0.3,1c-0.1-0.5-0.1-1-0.1-1.6
			c0,0,0,0-0.1-0.1c0.1-0.7,0.2-1.5,0.4-2.2c-0.1,0.1-0.3,0.1-0.4,0.1c0,0,0-0.1-0.1-0.1c0.6-0.8,1.3-1.6,2.3-1.9
			c0.6-0.3,1.1-0.4,1.7-0.4c0.6,0,1.2,0.2,1.7,0.4c1.5,0.7,3.3,1.2,4,3c0.2-0.3,0.7-0.5,0.9-0.5c0.4,0.3,0.6,1.1,0.6,1.6
			c3.1-4.3,7.4-6.9,12.1-8.1c0.8-0.2,1.6-0.4,2.4-0.5c8.3-1.5,19.3-1,25.3,6.5c0.2,0.3,1.1-0.8,2.3-0.8c0.2,0,0.5-0.5,0.6-1
			c0.5-0.3,1-0.6,1.6-1c1.6-1,3.3-2,5.1-1.2c1.1,0.2,1.8,0.9,2.5,1.7c-0.1,0-0.1,0-0.1,0.1c-0.1,0-0.2,0-0.4-0.1
			c0.2,0.7,0.4,1.5,0.6,2.1c0,0.1-0.1,0.1-0.1,0.1c0.1,0.5,0.1,1,0.1,1.6c0-0.4-0.2-0.7-0.3-1c-0.1,0.1-0.1,0.3-0.2,0.4
			c-0.2,1.9-0.7,3.7-1.7,5.2c0.3-1,0.9-2.1,0.9-3.2c-0.7,1.9-1.7,3.9-3.2,5.1c-0.1-0.1-0.2-0.3-0.3-0.4c0.3-0.4,0.5-0.8,0.7-1.3
			c-0.4,0.3-0.6,0.6-1,1c-0.3-0.3-0.5-0.4-0.5-0.4l0.2,0.7c-0.5,0.5-1.1,0.8-1.7,1c-0.1-0.1-0.3-0.1-0.4-0.2c0.4-0.3,0.7-0.6,1-1
			c-0.4,0.3-0.9,0.6-1.4,0.8l-0.2-0.1c0,0,0,0,0,0c-0.3,0.1-0.6,0.3-0.8,0.5l0,0.2c0.4-0.3,0.9-0.3,1.3,0.1c1.4,1.4,2.4,3.6,3.1,5.5
			c0,0,0,0.1,0.1,0.1c0.1-0.1,0.2-0.1,0.3-0.2c0-0.4,0-0.7,0.1-1.1l1.1,4.4c-1-0.2-2.1-0.3-3.1-0.4c-1.2-0.1-2.4-0.2-3.6-0.3
			c0.1-0.1,0.1-0.2,0.2-0.3c-0.1,0-0.4,0.1-0.5,0.1c-1.4-0.1-2.9,0-4.3-0.1c1.6,0,3.2-0.4,4.8-0.6c0.6-0.2,0.4-0.7,0.6-1
			c-0.8,0.2-1.7,0.4-2.5,0.5c-0.5,0-0.9,0-1.4,0.1c1.1-0.3,2.3-0.6,3.5-1c0.2-0.1,0.6-0.2,0.5-0.4c0-0.7,0-1.3-0.3-2
			c-0.5,0.1-0.9,0.2-1.4,0.3c-5.6,1.3-11.3,2.4-17.3,2.9c-0.1,0-0.3,0-0.4,0c0.2,0.5,0,1.1,0.4,1.6c0.9,0,1.8,0,2.8,0
			c-0.8,0.2-1.6,0.2-2.4,0.3c-0.6-0.1-0.4,0.4-0.2,0.6c1.3,0.2,2.6,0.2,3.9,0.2c0,0,0,0,0,0c-1.2,0.3-2.4,0.7-3.5,1.2
			c-2.7,1.1-5.5,1-8.2,0c-4.8-1.8-9.9-2.7-15-2.6c-3.2-0.1-6.3,0.2-9.3,0.6L21.6,39z M23,33.3l0.1-0.6c0.3,0.4,0.7,0.8,1.1,1.2
			C23.8,33.8,23.4,33.6,23,33.3z M75.8,32.1c-0.1,0.1-0.3,0.2-0.5,0.2c0.1-0.2,0.3-0.4,0.4-0.5L75.8,32.1z M42.3,47.6
			c-4.7-1.1-12.4-4.2-14.4,2.6c1.1-0.8,2.9-1.7,3.7-0.1c1,2.2,2.1,4.6,4.5,5.5c-0.6-0.8-1.4-1.4-1.6-2.4c0.9,0.7,1.6,1.8,2.7,2.2
			c-0.8-1.1-1.8-2-2.2-3.3c0.9,0.9,1.6,2,2.6,2.7c-0.4-0.8-1-1.5-1.3-2.3c2.8,1.9,4.2,0.5,7-0.1c-0.5,0.8-1.3,1.2-1.8,2
			c0.4-0.2,0.7-0.4,1.1-0.6c-0.5,0.9-1.2,1.7-2,2.5c-1.2,1.3-3,1.8-4.8,2.3c-4.4,1.1-8.7,1.3-13.1,0.1c-0.3-0.1-0.5-0.1-0.7-0.2
			c-0.1-0.7-0.2-1.3-0.2-2c0.1,0.1,0.1,0.2,0.2,0.3c0-0.1,0-0.1,0-0.2c0.5-2.2-0.4-4.5-0.8-6.7c-0.4-1.8-0.5-3.5-0.1-5.2
			c0,0-0.1,0-0.1,0c0-0.6,0-1.1,0.1-1.6c-0.1,0-0.3,0-0.4-0.1l0.2-0.7c3.3-0.8,6.6-1.1,10-1.1c3.4,0.1,6.7,0.3,10,1.4
			c0.5,0.2,0.9,0.4,1.3,0.6c1.8,0.8,2.6,2.1,2.5,3.9c0,0.3,0,0.5-0.1,0.8C43.8,47.9,43,47.8,42.3,47.6z M42,51.2L42,51.2
			c-1.4,0.5-3,0.4-4.3,0.1c-1.2-0.4-2.5-1-3.3-2.1c-0.3-0.3-0.4-0.9,0-1.1c0.5-0.1,0.9,0,1.5,0.1c1.8,0.4,3.6,0.9,5.4,1.4
			c0.5,0.1,1.1,0.2,1.5,0.8C42.8,50.8,42.3,51,42,51.2z M17.5,54.4c-1-2.5-1.5-5.1-1.5-7.7c0.1-2.1,0.8-3.1,3-3.7
			c0.1,0,0.2-0.1,0.3-0.1c0,0.2,0.1,0.5,0.1,0.7c-0.1,0-0.1,0-0.2,0c0.5,4.7,0.7,9.5,1.2,14.3C19.1,57.1,18.1,56,17.5,54.4z
			 M59.3,83.9c-0.3,0-0.4-0.5-0.2-0.7C59.5,83,59.7,83.8,59.3,83.9z M77.4,60.2c-0.2,8.3-5,16.4-14,18.9c-0.4,0.2-0.9,0.5-1.4,0.8
			c-1.6,0.9-3.4,1.9-3.4,1.9c-0.3-0.6-0.6-1.3-0.9-1.9c0,0,0,0,0.1,0.1c1.5-1.5,3.2-2.8,4.1-4.5c0.6-0.7,1.1-1.4,1.5-2.2
			c1.3-2.3,1.8-4.9,0.7-8.3c-0.4-0.9-0.8-1.7-1.2-2.5c-0.3-0.6-0.6-1.3-1-2s-0.8-1.2-1.5-1.4c0.4,0.5,0.7,1.1,1.1,1.8
			c0.7,1.4,1.4,3.1,1.7,4.8c0.2,0.8,0.2,1.7,0.1,2.4c-0.1,0.9-0.3,2-1,2.7c0.5-0.3,0.9-0.7,1.3-1.1c-1.6,3.4-3.1,8.8-6.2,9.6
			c-0.2-0.3-0.3-0.6-0.5-1c0.2,1.6,0.5,3.1,0.7,4.7c0.2,0.6,0.2,1.2,0.1,1.8c-0.6,0.4-1.2,0.8-1.8,1.1c0,0.1,0,0.2,0,0.3
			c0,1-1.1,1.3-1.7,0.9c-0.2,0.1-0.3,0.2-0.5,0.3l-1.5-4.7l0.5,5.3c-0.8,0.5-1.6,1-2.4,1.5c-0.3,0.2-0.6,0.3-1,0.4l0,0.1
			c-0.1,0-0.4,0.1-0.6,0.2c-0.8-0.5-1.5-1-2.2-1.4c0-0.1,0-0.2,0-0.3c-0.3,0.1-0.7,0.1-1,0l0.7-6.6l-1.3,5.9c-1-0.7-2.1-1.4-3-2.1
			c-0.3-0.8-0.1-1.8-0.2-2.7c-0.2,0.7-0.4,1.4-0.6,2.1c-0.3-0.2-0.7-0.4-0.7-0.8c0-1.9,0.3-3.7,0.6-5.6c0,0,0,0,0,0c0,0,0,0,0,0
			c0.2-0.9,0.3-1.7,0.5-2.6c-0.1,0-0.2,0-0.3-0.1c-0.3,0.7-0.5,1.5-0.7,2.2c0,0,0,0,0,0c-1.6-1.4-2.6-3.2-3.2-5.3
			c-0.3-0.7-0.5-1.4-0.7-2.2c-0.2-0.7-0.4-1.5-0.6-2.2c0.5,0.3,0.9,0.8,1.3,1.3c0-0.1-0.1-0.1-0.1-0.2c-0.5-0.8-0.8-1.8-0.9-2.8
			c-0.3-2.5,0.4-5.3,1.7-7c-1-0.4-2.1,0.7-2.3,2.1c0.3-0.3,0.5-0.7,0.8-1c-0.5,2.8-2.8,4.9-2,8.1l0.3-0.3c0.8,1.4,1.6,2.8,1.4,4.5
			c0-0.2,0.2-0.3,0.2-0.6c0.2,0.8,0.5,1.5,0.9,2.1c0.9,1.4,2.1,2.9,3.1,4.4c-0.2,0.7-0.4,1.4-0.6,2.1l0,0.3
			c-0.7-0.4-1.4-0.8-2.1-1.2c0-0.2,0.1-0.3,0.1-0.5c-0.5,0.1-1,0-1.4-0.4c0,0,0,0,0,0c-0.6-0.3-1.3-0.7-1.9-1.1
			c-1-0.3-1.9-0.6-2.8-1c-0.8-0.4-1.5-0.9-2.2-1.5c-2.1-1.8-3.5-3.9-4.5-6.2c-0.3-0.8-0.6-1.6-0.8-2.4c-0.6-2.5-1.4-5-2-7.5
			c0.5,0.2,1.1,0.3,1.7,0.4c4.4,0.9,8.8,0.4,13.1-0.5c3.3-0.7,5.9-2.8,7.1-5.8c0.1-0.3,0.2-0.5,0.3-0.8c0.2-0.1,0.4-0.2,0.6-0.2
			c0.1,0,0.1-0.1,0.2-0.1c0.6-1.4,0.9-2.9,1-4.5c0.1-0.2,0.1-0.3,0.2-0.5c0.4-1.3,1-1.8,2.4-1.9c0.4,0,0.9,0,1.3,0
			c2.1,0,2.7,0.5,3.3,2.4c0,0,0,0.1,0,0.1c0.1,1.5,0.3,2.9,1,4.3c0.1,0,0.1,0.1,0.2,0.1c0.1,0,0.2,0.1,0.3,0.1
			c0.2,0.5,0.4,0.9,0.6,1.4c1.5,2.9,3.5,4.3,7,5.3c2.7,0.8,5.2,1.1,8,1.1c2.2,0,4.6-0.3,6.6-0.9c0.3-0.1,0.5-0.2,0.8-0.3
			C77.5,59.7,77.5,59.9,77.4,60.2z M81,55.6c-0.3,0.6-0.8,1.1-1.3,1.6c0-0.6,0.1-1.3,0.1-1.9c0.1-0.7,0.1-1.4,0.1-2.2
			c0-0.7,0-1.5,0-2.2c0.1-0.6,0.2-1.3,0.3-2c0.2-2,0.3-4-0.1-5.9c2.2,0.7,2.9,1.7,2.9,3.9C83.1,49.9,82.5,52.8,81,55.6z"/>
	</g>
</g>
</svg>
