<?xml version="1.0" encoding="utf-8"?>
<!-- Generator: Adobe Illustrator 25.3.1, SVG Export Plug-In . SVG Version: 6.00 Build 0)  -->
<svg version="1.1" id="Capa_1" xmlns="http://www.w3.org/2000/svg" xmlns:xlink="http://www.w3.org/1999/xlink" x="0px" y="0px"
	 width="441px" height="170.9px" viewBox="0 0 441 170.9" style="enable-background:new 0 0 441 170.9;" xml:space="preserve">
<style type="text/css">
	.st0{fill:#FF0000;}
	.st1{fill:#FFFFFF;}
	.st2{fill:#020203;}
</style>
<g>
	<path d="M164.6,99.5v-39h13.8c6.2,0,11.1,1.7,14.7,5.2c3.6,3.4,5.4,8.2,5.4,14.3c0,6.1-1.8,10.9-5.4,14.4
		c-3.6,3.5-8.5,5.2-14.7,5.2H164.6z M174.2,91.3h3.9c3.3,0,5.9-1,7.8-2.9c1.9-2,2.8-4.8,2.8-8.4c0-3.6-0.9-6.4-2.8-8.3
		c-1.9-1.9-4.5-2.9-7.8-2.9h-3.9V91.3z"/>
	<path d="M202.7,79.8c0-5.7,1.9-10.4,5.7-14.2c3.8-3.8,8.7-5.7,14.7-5.7c6,0,10.8,1.9,14.7,5.7c3.8,3.8,5.7,8.5,5.7,14.2
		c0,5.8-1.9,10.7-5.7,14.6c-3.8,3.9-8.7,5.8-14.7,5.8c-6,0-10.8-1.9-14.7-5.8C204.6,90.4,202.7,85.6,202.7,79.8z M212.5,79.8
		c0,3.3,1,6.1,3,8.3c2,2.2,4.5,3.3,7.5,3.3c3.1,0,5.6-1.1,7.5-3.3c2-2.2,3-5,3-8.3c0-3.2-1-5.9-3-8c-2-2.1-4.5-3.2-7.5-3.2
		c-3.1,0-5.6,1.1-7.5,3.2C213.5,73.9,212.5,76.6,212.5,79.8z"/>
	<path d="M249.5,99.5v-39h9.6l10.8,18.2c0.4,0.8,0.9,1.7,1.5,2.8c0.5,1.1,1,2,1.3,2.8l0.5,1.1h0.1c-0.3-2.8-0.4-5-0.4-6.6V60.5h9.5
		v39h-9.6L262,81.4c-0.4-0.8-0.9-1.7-1.5-2.8c-0.5-1.1-1-2-1.3-2.8l-0.5-1.1h-0.1c0.3,2.8,0.4,5,0.4,6.6v18.1H249.5z"/>
	<path d="M286.3,99.5l13.2-39h10l13.2,39H313l-2.4-8.2h-12.2l-2.3,8.2H286.3z M300.7,83.7h7.7l-2.2-7.6l-1.6-6.7h-0.1
		c-0.6,2.8-1.1,5.1-1.6,6.7L300.7,83.7z"/>
	<path d="M331.9,99.5v-16l-12.9-23h10.8l4.4,9.4l2.3,5.6h0.1c0.7-2,1.5-3.8,2.3-5.6l4.4-9.4h10.8l-12.9,23v16H331.9z"/>
	<path d="M357.8,99.5v-39h13.6c3.5,0,6,0.3,7.6,0.9c2.3,0.9,4,2.3,5.3,4.2c1.3,1.9,1.9,4.3,1.9,7.1c0,2.2-0.5,4.3-1.5,6.2
		c-1,2-2.5,3.4-4.3,4.4v0.1c0.4,0.5,0.9,1.3,1.5,2.3l7.6,13.6h-10.6l-6.9-13.1h-4.5v13.1H357.8z M367.4,78.2h4.1
		c1.6,0,2.8-0.4,3.7-1.3c0.9-0.8,1.3-2,1.3-3.5c0-2.1-0.8-3.5-2.3-4.1c-0.8-0.4-2-0.5-3.6-0.5h-3.2V78.2z"/>
	<path d="M393.7,99.5v-39h24.4v8.2h-14.9v7.1h11.9V84h-11.9v7.4h15.6v8.2H393.7z"/>
	<g>
		<path d="M173.4,149.1v-40.3h9.9v16.1h14.6v-16.1h9.9v40.3h-9.9v-15.8h-14.6v15.8H173.4z"/>
		<path d="M211.8,149.1l13.7-40.3h10.4l13.7,40.3h-10.1l-2.5-8.4h-12.6l-2.4,8.4H211.8z M226.7,132.8h7.9l-2.3-7.8l-1.6-6.9h-0.1
			c-0.6,2.9-1.1,5.2-1.6,6.9L226.7,132.8z"/>
		<path d="M253.6,149.1v-40.3h14c3.6,0,6.2,0.3,7.8,1c2.3,0.9,4.1,2.4,5.5,4.4c1.3,2,2,4.5,2,7.3c0,2.3-0.5,4.4-1.6,6.4
			c-1.1,2-2.5,3.6-4.4,4.5v0.1c0.4,0.5,0.9,1.3,1.5,2.4l7.8,14.1h-11l-7.2-13.6h-4.6v13.6H253.6z M263.4,127.1h4.3
			c1.6,0,2.9-0.4,3.8-1.3c0.9-0.9,1.4-2.1,1.4-3.7c0-2.2-0.8-3.6-2.4-4.3c-0.9-0.4-2.1-0.6-3.7-0.6h-3.3V127.1z"/>
		<path d="M298.9,149.1v-31.8h-12.2v-8.4H321v8.4h-12.2v31.8H298.9z"/>
	</g>
	<g>
		<path d="M164.5,50.5l-5.8-23.9h6.2l3,15c0.1,0.4,0.2,0.9,0.2,1.3c0.1,0.4,0.1,0.7,0.1,0.9V44h0.1c0-0.7,0.2-1.5,0.4-2.5l3.7-15
			h4.7l3.6,15c0.1,0.4,0.2,0.9,0.3,1.3c0.1,0.4,0.1,0.7,0.1,0.9V44h0.1c0-0.7,0.1-1.5,0.3-2.5l3.3-15h6.1l-6.1,23.9h-6.5l-3-12.1
			l-0.5-2.8h-0.1c-0.1,0.8-0.2,1.8-0.5,2.8l-3,12.1H164.5z"/>
		<path d="M193.5,50.5V26.5h15v5h-9.1v4.3h7.3v5h-7.3v4.5h9.6v5H193.5z"/>
		<path d="M217.5,50.5l8.1-23.9h6.2l8.1,23.9h-6l-1.5-5h-7.5l-1.4,5H217.5z M226.3,40.8h4.7l-1.3-4.7l-1-4.1h-0.1
			c-0.4,1.7-0.7,3.1-1,4.1L226.3,40.8z"/>
		<path d="M242.3,50.5V26.5h8.3c2.1,0,3.7,0.2,4.7,0.6c1.4,0.5,2.5,1.4,3.2,2.6c0.8,1.2,1.2,2.6,1.2,4.4c0,1.3-0.3,2.6-0.9,3.8
			c-0.6,1.2-1.5,2.1-2.6,2.7v0.1c0.2,0.3,0.5,0.8,0.9,1.4l4.7,8.4h-6.5l-4.2-8.1h-2.7v8.1H242.3z M248.2,37.4h2.5
			c1,0,1.7-0.3,2.2-0.8c0.5-0.5,0.8-1.2,0.8-2.2c0-1.3-0.5-2.2-1.4-2.5c-0.5-0.2-1.2-0.3-2.2-0.3h-2V37.4z"/>
		<path d="M264.3,50.5V26.5h15v5h-9.1v4.3h7.3v5h-7.3v4.5h9.6v5H264.3z"/>
	</g>
	<g>
		<path d="M335.1,139.7c-0.9,0.5-2,0.7-3,0.7c-0.7,0-1.4,0-2-0.2c-0.2,0-0.4,0-0.5-0.2c0-0.5-0.5-1.4-1.8-1.4c-0.9,0-1.4,0.7-2,1.4
			c-0.5,0.9-0.7,1.4-0.7,2c0,0.7,0.4,1.8,2.3,2.3c1.1,0.4,2.3,0.4,4.1,0.4c2,0,3.9-0.4,5.5-1.2s3-2,3.9-3.2c0.9-1.4,1.4-2.9,1.4-4.3
			c0-1.8-0.9-3.4-2.5-4.6c-1.4-1.1-3.4-2-6.2-2.9c-1.8-0.5-3.2-1.1-4.1-1.4c-0.9-0.4-1.4-0.7-2-1.1c-0.4-0.4-0.4-0.7-0.4-0.9
			s0.2-0.7,1.4-1.8c1.2-0.9,2.7-1.6,4.3-2.1s3-0.9,4.1-0.9c0.4,0,0.5,0,0.5,0c0.2,0,0.2,0,0.4,0.2c0,0,0.2,0,0.2,0.2
			c0.4,0.2,0.7,0.4,1.1,0.4c0.9,0,1.8-0.5,1.8-1.8c0-0.5,0-1.1-0.2-1.6c-0.2-0.7-0.7-1.6-2.9-1.6c-2,0-4.3,0.4-6.6,1.2
			c-2.3,0.9-4.3,2-5.9,3.4c-1.8,1.6-2.7,3.2-2.7,5c0,1.4,0.5,2.5,1.4,3.4c0.9,0.7,2,1.4,3.2,2c1.2,0.5,2.9,1.1,5,1.8l0,0
			c2,0.5,3.6,1.2,4.5,2c0.9,0.7,0.9,1.2,0.9,1.6c0,0.5-0.2,1.1-0.7,1.6C336.6,138.6,335.8,139.3,335.1,139.7z"/>
		<path d="M358,130.2c1.1-0.2,1.8-0.4,2.3-0.7l0,0c0.7-0.5,1.1-1.2,1.1-2.1c0-0.5-0.2-1.1-0.7-1.8c-0.5-0.5-1.1-0.9-1.8-0.9
			c-0.4,0-1.1,0.2-1.6,1.1c-2,0.4-3.4,0.7-4.5,0.9c0-0.9,0-1.6,0-2.3c0-1.1,0-2,0.2-2.5c0.2-1.1,0.2-1.2,0.2-1.4
			c0-0.5-0.2-1.1-0.5-1.2c-0.4-0.4-0.7-0.5-1.4-0.5c-1.1,0-2,0.5-2.3,1.6c-0.2,0.5-0.4,1.1-0.4,1.8c0,0.5-0.2,1.2-0.2,2.3
			c0,0.5,0,1.4,0,2.7c0,0.4,0,0.5,0,0.7c-0.5,0.2-1.2,0.2-2.1,0.4l0,0c-0.2,0-0.4,0-1.2,0.2c-0.7,0.2-1.2,0.2-1.2,0.2
			c-0.7,0-1.2,0-1.6,0.2c-0.7,0.4-1.1,1.1-1.1,1.8c0,0.7,0.4,1.4,0.9,1.8c0.5,0.4,1.1,0.5,1.6,0.5c0.2,0,0.7,0,2.5-0.4
			c0.9-0.2,1.8-0.4,2.5-0.5c0,0.7,0,1.4,0,2.3c0,1.2,0.2,2.5,0.2,3.6c0,1.1,0.2,2.1,0.4,3.2c0.2,1.1,0.4,1.8,0.5,2.1
			c0.2,0.4,0.4,0.7,0.5,0.9c0.4,0.4,0.7,0.5,1.2,0.5c0.5,0,1.1-0.2,1.6-0.5c0.9-0.5,1.1-1.4,1.1-1.8V142v-0.2c0-0.2,0-0.4-0.4-1.4
			c-0.2-0.7-0.4-1.6-0.4-2.9c0-1.1-0.2-2.1-0.2-3.6c0-0.9,0-1.8,0-2.7l1.2-0.2C354.6,130.9,355.7,130.6,358,130.2z"/>
		<path d="M364,144c1.2,0,2.5-0.9,3.9-2.7c1.2-1.6,2.5-3.4,3.7-5.5c0.2-0.4,0.4-0.5,0.5-0.9c0,1.8,0.2,3,0.2,3.7
			c0.2,1.2,0.4,2.3,0.9,3.6c0.5,1.6,1.4,2.3,2.5,2.3c0.9,0,1.4-0.4,1.8-0.7l0,0c0.4-0.4,0.7-0.9,0.7-1.8c0-0.5-0.4-0.9-0.7-1.4
			c-0.2-0.2-0.4-0.4-0.5-1.1c-0.2-0.2-0.4-0.7-0.4-1.8c-0.2-1.1-0.2-3-0.4-5.7c0-2.7-0.2-4.8-0.2-5.9c0-0.5-0.2-1.2-1.1-1.8
			c-0.4-0.2-0.5-0.4-0.9-0.4v-0.4L374,124c-0.2,0-0.4-0.2-0.7-0.2c-0.2,0-1.1,0-1.4,1.1c-0.2,0.2-0.2,0.5-0.4,1.1
			c-0.4,1.1-0.5,1.8-0.5,2c-0.5,1.4-1.2,3-2.3,4.8s-2,3.4-3,4.8c-0.4,0.5-0.7,0.9-0.9,1.1c0-0.2,0-0.5,0-1.1c0-2.7,0.2-4.8,0.7-6.4
			c0.5-1.6,1.1-2.9,1.6-4.1c0.4-0.7,0.5-1.1,0.5-1.4c0-0.4-0.2-1.6-2.1-1.6c-0.5,0-1.1,0.2-1.6,0.7c-0.2,0.4-0.5,0.7-0.9,1.4
			c-0.7,1.2-1.2,3-1.6,5.2c-0.5,2.3-0.7,4.3-0.7,6.1c0,2,0.2,3.4,0.4,4.5C361.5,143.1,362.6,144,364,144z"/>
		<path d="M390.1,140.7c0,0.5,0,1.1,0.2,1.4c0.4,0.7,0.9,1.1,1.8,1.1c0.5,0,0.9-0.2,1.4-0.5c0.9-0.5,1.1-1.2,1.1-1.8
			c0-0.2,0-0.5-0.2-1.4l0,0c0-0.2,0-0.4,0-0.4c0-0.2,0-0.2,0-0.4v-0.2c0-0.9-0.2-2.7-0.4-5.5c-0.2-2.9-0.2-5.5-0.2-8.4
			c0-1.4,0-2.9,0-4.1c0-1.4,0-2.3,0-2.9v-1.8l0,0c0-0.7-0.4-1.4-0.9-1.8c-0.5-0.4-0.9-0.5-1.4-0.5c-0.9,0-1.2,0.5-1.4,0.7
			c-0.2,0.2-0.2,0.5-0.4,0.9c-0.2,0.7-0.2,1.8-0.2,3.4c0,0,0,0.2,0.2,3.9c-0.2,0-0.4,0-0.5,0c-1.2,0-2.7,0.9-4.6,2.9
			c-1.8,1.6-3.2,3.7-4.6,6.1c-1.4,2.5-2.1,4.6-2.1,6.8c0,1.8,0.4,3,1.1,4.1c1.1,1.4,2.3,1.6,3.2,1.6c2.3,0,4.3-1.6,6.2-4.5
			c0.5-1.1,1.2-2.1,1.8-3.4v0.4C390.1,138.1,390.1,139.5,390.1,140.7z M386.2,135.6c-0.9,1.6-2.1,3.7-3.7,3.7
			c-0.2-0.4-0.2-0.7-0.2-1.1c0-1.4,0.5-3,1.4-4.6c0.9-1.8,2.1-3.4,3.4-4.6c0.2-0.2,0.4-0.4,0.5-0.5c0.2,0.2,0.2,0.4,0.4,0.4
			c0.4,0.2,0.5,0.2,0.9,0.2C388.2,131.5,387.1,133.6,386.2,135.6z"/>
		<path d="M396.5,129.9c0,2,0.2,3.7,0.2,5.7c0.2,3,0.4,5,0.5,6.1c0.2,0.7,0.4,2.7,2,2.7h0.2c0.5,0,0.9-0.2,1.2-0.4l0,0
			c0.5-0.4,0.9-1.1,0.9-1.6c0-0.4,0-0.7-0.4-2.1c-0.2-1.6-0.4-2-0.4-2.1l0,0c-0.2-1.4-0.2-3.4-0.2-5.7v-4.3c0-2-0.2-2.7-0.4-3
			c-0.4-1.1-1.2-1.6-2.3-1.6c-0.9,0-1.4,0.5-1.6,0.9c-0.2,0.4-0.4,0.7-0.4,1.2l0,0C396.4,126.6,396.4,128.1,396.5,129.9z"/>
		<path d="M396.2,120.9c0.7,0.5,1.4,0.7,2.1,0.7c2.3,0,2.5-1.4,2.5-1.8c0-0.5-0.4-0.9-0.7-1.4c-0.4-0.4-0.5-0.7-0.7-0.9
			c-0.4-0.4-0.9-0.7-1.4-0.9h-0.2h-0.4c-0.4,0-1.1,0.2-1.6,0.7c-0.7,0.5-0.7,1.2-0.7,1.8C394.9,119.9,395.7,120.6,396.2,120.9z"/>
		<path d="M412.1,126.8c0-0.7-0.4-1.2-0.9-1.6c-0.4-0.2-0.9-0.4-1.2-0.4c-0.7,0-1.4,0.2-2.1,0.7c-0.5,0.4-1.1,1.1-1.6,1.8
			s-0.5,1.1-0.5,1.1c-0.9,1.4-1.4,3-2,4.8c-0.5,1.8-0.7,3.4-0.7,4.6c0,1.6,0.5,3,1.4,4.1c1.1,1.2,2.5,1.8,4.6,1.8
			c2,0,3.6-0.5,5.2-1.6c1.4-1.1,2.5-2.1,3.4-3.6l0,0c0.9-1.4,1.2-2.7,1.2-3.9c0-1.4-0.4-2.7-1.2-3.7c-0.7-0.9-1.6-1.8-2.7-2.7l0,0
			v-0.2c0-0.7-0.4-1.2-1.1-1.4c-0.2-0.2-0.5-0.2-1.1-0.2C412.4,126.8,412.3,126.8,412.1,126.8L412.1,126.8z M413.7,133.8
			c0.4,0.4,0.5,0.7,0.5,1.2s-0.2,1.1-0.7,1.8c-0.5,0.7-1.1,1.4-1.8,2s-1.4,0.7-2.3,0.7c-2.1,0-2.1-0.9-2.1-1.4
			c0-1.2,0.2-2.5,0.5-3.6c0.4-1.1,0.9-2.3,1.4-3.4l0,0c0.2-0.2,0.2-0.5,0.4-0.7c0.2,0.2,0.4,0.4,0.4,0.5c0.4,0.4,0.9,0.7,1.6,1.2
			C412.6,132.7,413.3,133.3,413.7,133.8z"/>
	</g>
	<path d="M356.8,43.9h-67.9c-7.2,0-7.2,5.3,0,5.3h67.9C363.9,49.2,363.9,43.9,356.8,43.9z"/>
</g>
<g>
	<circle class="st0" cx="75.1" cy="69.8" r="62.4"/>
	<path class="st1" d="M152.2,38.4c-0.5-0.1-0.8-0.1-1.3-0.2c0.2-1-0.2-2.1-1-2.7c-1.6-3.2-4.9-4.8-7.7-6.2c-1.5,0.3-3,0.7-4.5,1.1
		c-1.5,0.5-2.9,1-4.3,1.6c-0.9,2.3-3.1,2.8-4.4,2.3c-10.4-5.4-21.3-13.2-33-11.7c-6.1,1-11.7-0.5-18,0.9c-1.4,0.2-2.9,0.5-4.3,0.8
		c-8.6,2.1-16.7,7.3-23.7,13.4c-0.9,0.5-1.7,0-2.6-0.5c-1.2-0.5-2.5-1.3-3.4-2.6c-1.3-1-2.6-1.5-4.2-1.1c-1.5-0.3-3-0.5-4.6-0.7
		c-2.7,1.7-5.9,3.6-7.2,6.9c-0.8,0.7-1,1.8-0.8,2.8c-0.5,0.1-0.8,0.2-1.3,0.3c-0.1,2.4-0.2,4.8,0.4,7.3c0.7,3.3,2.2,6.7,4.2,9.7
		c0.3,0,0.6,0.1,0.9,0.3c0.8,0.4,1.4,0.4,2.1,1.2c0.6,0.8,0.8,2,0.2,2.7c0,0,0.1,0.1,0.1,0.1c-0.3,0.8-0.6,1.7-0.8,2.7
		c0.5,0.4,0.8,1.1,0.7,1.9c-0.5,3.2-0.4,6.3,0,9.5c0.3,0.1,0.5,0.3,0.7,0.5c-0.5,3.2-0.7,6.8-0.7,10.7c0,6.3,0.7,12.1,1.9,16.2
		c-0.1,1.6-0.3,3.3-0.3,4.9c0.5,3.2,1.1,6.5,1.9,9.7c0.3,1.6,0.6,3.1,1.1,4.7c1.7,6.1,5,11.6,11.2,15.8c1.3,1,2.8,1.9,4.4,2.7
		c1.6,0.8,3.4,1.4,5.4,1.9c0.9,0.5,1.8,1,2.6,1.5c2.7,1.5,5.3,3.1,8,4.6c-0.3,1.5-0.6,2.9-0.7,4.4c3.6,2.5,7.4,4.8,11,7.3
		c0,0,0,0,0.1,0l-0.1,0.3l1.5,0.5l0.1-0.8c0.3,0.1,0.6,0.4,0.9,0.8c0.3,0.6,0.7,1.1,1.2,1.6c0.4,0.2,0.8,0.4,1.2,0.6
		c-0.1,0.1-0.3,0.2-0.4,0.4c0.4,0.4,0.8,0.8,1.1,1.3c0.5-0.3,1-0.5,1.6-0.1c0.3,0.2,0.5,0.4,0.8,0.6c1.9-0.8,3.5-2.2,5.4-3.1
		c0,0.3-0.1,0.7-0.1,1c0.6-0.7,1.5-1.3,2.5-1.6c-0.4-0.1-0.8-0.1-1.2-0.2c0.5-0.3,1-0.6,1.5-0.9l2.2,0.1l-0.4-1.2
		c2.8-1.7,5.7-3.4,8.5-5.1c1.2-0.9,3.4-0.9,3.5-2.6c0.3-1.1-0.5-1.9-1.3-2.6c0,0,2.5-1.2,5.5-2.7c1-0.5,2.1-1,3.2-1.6
		c11.9-3.2,21.6-11.3,24.5-23.1c0.5,0,1,0.5,1.4,0.5c1.2-4.5,1.7-9.3,2.4-14c0.4-1.1,0.6-2.5,0.6-3.9c0-1.9-0.4-3.6-1-4.9
		c1.1-4.6,1.7-10.1,1.7-16.1c0-5.9-0.6-11.3-1.6-15.8c0.3,0,0.7,0.2,1,0.4c-0.2-4.2-1.3-7.7-2.6-10.5c1.2-1.1,2.6-1.9,4-2.2
		c2.5-3.8,4.3-8.1,4.9-12.4C152.8,43.1,152.4,40.8,152.2,38.4z"/>
	<g>
		<path class="st2" d="M73.2,69.1c1.6,0.1,3.2,0.3,4.8,0.4c-3.7-0.9-7.5-1.8-10.7-3.2c4.2,0.8,8.4,1.7,12.9,1.9
			c-1.7-0.6-3.5-1-5.1-1.6l-0.2,0c-0.2-0.1-0.7-0.3-1-0.4c2.7,0.4,5.3,0.9,8.1,1.1c0.9-0.6,0.8-1.6,1.2-2.4
			c-0.5-0.1-1.1-0.2-1.6-0.2c-10.6-2.1-20.4-5.3-30-8.7c-0.6-0.3-1.3-0.6-2.1-0.6c-0.2,0.3-0.3,0.5-0.5,0.8c1.4,0.9,2.9,1.8,4.5,2.6
			c-1.8-0.4-3.4-0.9-4.9-1.5c-0.8,2.3-1.4,4.8-0.3,7.2C56.2,66.4,64.5,68.2,73.2,69.1L73.2,69.1z"/>
		<path class="st2" d="M98.4,113.8c0.2,0.6,0.4,0.6-0.5,0.7c-0.8,0.2-1.5,0.4-2.3,0.6c-1.5,0.4-3.1,0.7-4.6,1
			c-3.2,0.6-6.4,1-9.6,1.3c-2,0.2-2,2.5,0.1,2.3c4.4-0.4,8.8-1,13-2c1.8-0.4,4.2-0.7,5.8-1.5c1.5-0.8,1.5-2,1-3.2
			C100.8,111.7,97.8,112.4,98.4,113.8z"/>
		<path class="st2" d="M45.7,48.5c0.2-0.1,0.3-0.3,0.5-0.4c-0.8-0.3-1.5-0.6-2.2-1C44.5,47.6,45,48.1,45.7,48.5z"/>
		<path class="st2" d="M87.9,111.7l0,0.2c0.5,0.1,1.1,0.2,1.7,0.2c0.1,0,0.2,0,0.3,0c0.1,0,0.2,0,0.3,0c0.6,0,1.1-0.1,1.7-0.3l0-0.2
			c3.4-1.3,6.5-4.9,8.5-8.5c0-0.2,0-0.5,0-0.7c0.1,0.1,0.2,0.2,0.3,0.3c-0.2-1.3-0.7-2.5-2-2.9c-0.5-0.2-0.8-0.4-1.1-0.7
			c-0.8-0.2-1.7-0.3-2.4,0c-2.2,0.1-3.9,0.5-5.7,0.8c-1.8-0.1-3.5-0.4-5.7-0.3c-0.3-0.1-0.6-0.1-0.9-0.1c0.1-0.2,0.2-0.4,0.2-0.6
			c0-0.2,0.1-0.3,0.1-0.5c-0.9,0.2-1.4,0.4-2,1c-0.7,0.7-1.1,1.4-1.6,2.4c-0.2,0.3-0.4,0.6-0.6,0.7c0.1,0.1,0.1,0.3,0.1,0.4
			c0.2,0.6,0.1,1.2-0.2,1.8c0,0.1-0.1,0.2-0.1,0.3c0,0.2,0,0.3,0,0.5c0,0.2,0,0.4-0.1,0.5c0.2-0.2,0.5-0.5,0.7-0.8
			C81.7,108.1,84.8,110.8,87.9,111.7z"/>
		<path class="st2" d="M83.1,154.2c0.1,0,0.2,0,0.3,0c0-0.6,0-1.2,0-1.8c-0.1,0.1-0.2,0.1-0.3,0.2C83.1,153.1,83.1,153.7,83.1,154.2
			z"/>
		<path class="st2" d="M113.3,128.8c-0.7,0.5-1.4,0.9-2.2,1.2C112.1,129.8,112.8,129.4,113.3,128.8z"/>
		<path class="st2" d="M98.9,153.2c0.2-0.5,0.4-1,0.5-1.5c0-0.1,0.1-0.2,0.1-0.3c-0.3,0-0.6,0-0.9,0
			C98.7,152.1,98.8,152.7,98.9,153.2z"/>
		<path class="st2" d="M87,122.1c2.2-0.7,4.6-0.9,7-0.7c1-0.3,2-0.8,2.9-1.4c-4.1-0.1-8.8-0.4-12.2,2.4
			C85.4,122,86.2,122.1,87,122.1z"/>
		<path class="st2" d="M97.1,130.8c-2.6-2.8-6-4.4-9.9-5c0.3,0.3,0.7,0.7,1,0.9c-0.8-0.6-1.8-0.3-2.9,0.3c0.1,0.1,0.1,0.2,0.2,0.3
			c0.1,0.3,0.3,0.6,0.4,0.9c0,0,0.1,0,0.1,0c0,0-0.1,0-0.1,0.1c0.4,1.2,0.6,2.5,0.5,3.8c0.3,0.1,0.5,0.2,0.7,0.4
			c2,0.8,2.7,2.4,2.6,4.7c0.5,0.3,0.8,0.9,0.8,1.5c0.3,0,0.7,0,1.1,0c0.2-1.7,0.4-3.5,0.9-5.3c0.3,1.3,1,1.9,1.3,3.2
			c0.7-2.7,0.2-5.3,0-7.6C94.7,130,95.8,130.5,97.1,130.8z"/>
		<path class="st2" d="M70.1,127.2c-0.1-0.1-0.2-0.2-0.3-0.3c0.8,1.3,1.7,2.4,2.8,3.1C71.7,129.2,70.9,128.2,70.1,127.2z"/>
		<path class="st2" d="M81.6,138.1c-0.7,1-0.9,2.1-0.9,3.4C81.1,140.5,81.4,139.3,81.6,138.1z"/>
		<path class="st2" d="M159.8,78.3c0.1-0.9-0.1-1.5-0.6-2c0.7-0.9,0.8-2.3-0.4-3.2c-4.7-3.5-8.4-8-11-13.3c-1.2-2.4-4.7-0.3-3.5,2.1
			c2.5,5.2,6.2,9.6,10.6,13.3c-3-0.5-6-1.1-9-1.6c0.3-5.5-0.9-10-2.5-13.4c1.2-1.1,2.6-1.9,4-2.2c2.5-3.8,4.3-8.1,4.9-12.4
			c0.4-2.5,0.1-4.9-0.1-7.3c-0.5-0.1-0.8-0.1-1.3-0.2c0.2-1-0.2-2.1-1-2.7c-1.6-3.2-4.9-4.8-7.7-6.2c-1.5,0.3-3,0.7-4.5,1.1
			c-1.5,0.5-2.9,1-4.3,1.6c-0.9,2.3-3.1,2.8-4.4,2.3c-10.4-5.4-21.3-13.2-33-11.7c-6.1,1-11.7-0.5-18,0.9c-1.4,0.2-2.9,0.5-4.3,0.8
			c-8.6,2.1-16.7,7.3-23.7,13.4c-0.9,0.5-1.7,0-2.6-0.5c-1.2-0.5-2.5-1.3-3.4-2.6c-1.3-1-2.6-1.5-4.2-1.1c-1.5-0.3-3-0.6-4.6-0.7
			c-2.7,1.7-5.9,3.6-7.2,6.9c-0.8,0.7-1,1.8-0.8,2.8c-0.5,0.1-0.8,0.2-1.3,0.3c-0.1,2.4-0.2,4.8,0.4,7.3c1.1,5,4,10,7.5,13.9
			c-1,2.7-1.7,5.8-1.6,9.5c-2.5,0.4-4.9,0.9-7.4,1.4c2.8-2.8,5.4-5.7,7.9-8.7c1.7-2-1.2-4.9-2.9-2.9c-3.3,4-6.8,7.8-10.6,11.4
			c-0.8,0.8-0.8,1.8-0.3,2.5c-0.5,0.9-0.4,2.3,0,4.6c0.1,0.6,0.6,1.3,1.2,1.7c1.4,0.8,2.2,1.9,2.7,3.3c1.3,3.6,2.6,7.2,3.9,10.9
			c1.5,4.2,4.2,7.1,7.8,9.1c0.5,4.5,1.3,9.1,2.4,13.5c0.3,1.6,0.6,3.1,1.1,4.7c1.7,6.1,5,11.6,11.2,15.8c1.3,1,2.8,1.9,4.4,2.7
			c1.6,0.8,3.4,1.4,5.4,1.9c0.9,0.5,1.8,1,2.6,1.5c2.7,1.5,5.3,3.1,8,4.6c-0.3,1.5-0.6,2.9-0.7,4.4c3.6,2.5,7.4,4.8,11,7.3
			c0,0,0,0,0.1,0l-0.1,0.3l1.5,0.5l0.1-0.8c0.3,0.1,0.6,0.4,0.9,0.8c0.3,0.6,0.7,1.1,1.2,1.6c0.4,0.2,0.8,0.4,1.2,0.6
			c-0.1,0.1-0.3,0.2-0.4,0.4c0.4,0.4,0.8,0.8,1.1,1.3c0.5-0.3,1-0.5,1.6-0.1c0.3,0.2,0.5,0.4,0.8,0.6c1.9-0.8,3.5-2.2,5.4-3.1
			c0,0.3-0.1,0.7-0.1,1c0.6-0.7,1.5-1.3,2.5-1.6c-0.4-0.1-0.8-0.1-1.2-0.2c0.5-0.3,1-0.6,1.5-0.9l2.2,0.1l-0.4-1.2
			c2.8-1.7,5.7-3.4,8.5-5.1c1.2-0.9,3.4-0.9,3.5-2.6c0.3-1.1-0.5-1.9-1.3-2.6c0,0,2.5-1.2,5.5-2.7c1-0.5,2.1-1,3.2-1.6
			c11.9-3.2,21.6-11.3,24.5-23.1c0.5,0,1,0.5,1.4,0.5c1.4-5.4,1.9-11.3,2.8-16.9c0.1-0.9,0.2-1.9,0.2-2.8c2.3-1.6,4-3.6,5.1-6.3
			c1.7-4.3,3.2-8.6,5-12.9c0.4-0.9,1-1.9,1.9-2.3c1.4-0.8,1.8-1.8,1.8-3.1C159.9,79.9,159.8,79.1,159.8,78.3z M142.1,105.6
			c-4.4,1.6-9,2.1-13.9,2.2c-5.6-0.1-11.3-1-16.7-3c-2.9-1.1-5.3-2.8-7-5.2c-0.6-0.9-1.2-1.7-1.7-2.6c0.7,0.4,1.3,0.7,2,1
			c-1-1.3-2.5-2.1-3.4-3.6c0,0,0,0,0-0.1c5.3,1.3,7.9,3.8,13.2,0.3c-0.6,1.6-1.7,2.9-2.5,4.3c1.9-1.2,3.3-3.4,4.9-5.1
			c-0.8,2.6-2.6,4.2-4.2,6.3c2.1-0.7,3.5-2.8,5.1-4.2c-0.5,1.8-2,3-3.1,4.5c4.6-1.7,6.6-6.1,8.5-10.4c1.4-3.1,4.9-1.4,6.9,0.1
			c-3.7-12.8-18.3-7-27.2-4.9c-1.4,0.4-2.8,0.6-4.2,0.7c-0.1-0.5-0.1-1.1-0.1-1.6c-0.1-3.4,1.5-5.8,4.7-7.3
			c3.5-1.6,7.1-2.4,10.9-2.9c2.2-0.1,4.4-0.3,6.5-0.6c7.4-0.4,14.7,0.1,21.9,1.8c0.1,0.3,0.2,0.6,0.1,1c0,0.1,0,0.2,0,0.4
			c1.4,3.8,1.6,8,1.5,11.9c-0.2,3.5-0.6,7.2-1.8,10.6c0,0.3,0.1,0.6,0.1,0.9c0,0.6-0.1,1.2-0.1,1.8c0,0.1,0,0.2,0,0.3
			c0,0.4,0,0.7-0.1,1c0,0.5-0.1,1-0.1,1.6C142.2,105,142.2,105.3,142.1,105.6C142.1,105.6,142.1,105.6,142.1,105.6z M102.4,90.4
			c0.6-1,1.8-1.2,2.7-1.4c3.3-0.8,6.8-1.8,10.1-2.6c1-0.1,1.9-0.3,2.8-0.1c0.8,0.4,0.6,1.5,0.1,2c-1.5,2-3.9,3.2-6.2,3.9
			c-2.6,0.6-5.6,0.8-8.2-0.2v0C103.1,91.6,102.2,91.3,102.4,90.4z M148,53.8c0-0.2,0.1-0.6,0.1-0.7c0-0.8,0.2-1.5,0.8-1.9
			C148.7,52.1,148.4,52.9,148,53.8z M30,55.3c0.6,0.4,0.9,1,0.9,1.8c0,0.2,0.1,0.5,0.2,0.7C30.7,57,30.3,56.2,30,55.3z M36.5,69
			c0.3,0.2,0.6,0.5,0.8,0.8c0.1,0.1,0.2,0.2,0.2,0.3c0.2-0.2,0.3-0.4,0.6-0.5c1.3-3.9,3.2-7.7,5.9-10.7c0,0,0,0,0,0
			c-1.4-0.3-2.7-0.9-3.9-2c-0.2-0.2-0.4-0.4-0.6-0.6l0.5-2c0,0-0.5,0.4-1.3,1.3c-0.2-0.2-0.4-0.3-0.6-0.4c0.1,0.2,0.2,0.5,0.4,0.7
			c-0.3,0.3-0.6,0.7-1,1.2c-2.2-2.1-3.9-5-5.2-7.7c0.3,2.1,1.4,4.1,2.2,5.9c-2.2-2.6-3.4-6-4-9.4c-0.2-0.3-0.3-0.6-0.5-0.8
			c-0.3,0.6-0.4,1.3-0.5,1.9c-0.2-1-0.3-2-0.1-2.9c0,0-0.1,0-0.1-0.2c0.2-1.2,0.5-2.8,0.8-4.1C30,39.9,29.7,40,29.5,40
			c-0.1,0-0.1-0.1-0.2-0.1c1.1-1.6,2.4-3,4.4-3.6c1.1-0.6,2.1-0.8,3.2-0.7c1.1,0,2.2,0.3,3.3,0.7c2.8,1.3,6.3,2.3,7.6,5.7
			c0.4-0.5,1.3-1,1.7-1c0.8,0.6,1.2,2.1,1.2,3c5.9-8.1,14-13,22.9-15.3c1.5-0.4,3-0.7,4.5-1c15.6-2.8,36.5-1.8,47.8,12.3
			c0.4,0.5,2.2-1.5,4.3-1.5c0.4,0,0.9-1,1.1-2c0.9-0.6,1.9-1.2,2.9-1.9c3-1.9,6.3-3.7,9.6-2.3c2,0.5,3.4,1.7,4.6,3.2
			c-0.1,0-0.1,0.1-0.2,0.1c-0.2,0-0.5-0.1-0.7-0.2c0.5,1.3,0.8,2.8,1.1,4c0,0.1-0.1,0.2-0.1,0.2c0.2,1,0.3,2,0.1,2.9
			c-0.1-0.7-0.3-1.3-0.6-1.9c-0.2,0.2-0.3,0.6-0.4,0.8c-0.4,3.5-1.3,7-3.3,9.8c0.7-1.9,1.6-4,1.8-6.1c-1.4,3.5-3.3,7.3-6.1,9.6
			c-0.2-0.3-0.4-0.5-0.6-0.7c0.5-0.8,1-1.6,1.3-2.5c-0.7,0.5-1.2,1.2-1.9,1.9c-0.5-0.6-0.9-0.8-0.9-0.8l0.3,1.3
			c-1,0.9-2,1.5-3.2,1.8c-0.2-0.2-0.5-0.2-0.8-0.3c0.7-0.5,1.3-1.2,1.9-1.9c-0.8,0.6-1.7,1.1-2.7,1.5l-0.5-0.1c0,0,0.1,0,0.1-0.1
			c-0.5,0.2-1.2,0.6-1.4,0.9l0,0.4c0.7-0.5,1.7-0.6,2.5,0.3c2.7,2.7,4.5,6.7,5.9,10.4c0,0.1,0.1,0.2,0.1,0.3
			c0.2-0.1,0.4-0.2,0.6-0.3c0-0.7,0-1.4,0.2-2.1l2,8.3c-1.9-0.3-3.9-0.6-5.8-0.8c-2.3-0.2-4.5-0.4-6.8-0.5c0.1-0.2,0.2-0.3,0.3-0.5
			c-0.2,0-0.7,0.1-0.9,0.1c-2.7-0.1-5.5,0.1-8.2-0.2c3.1-0.1,6-0.7,9-1.1c1-0.4,0.8-1.3,1.1-1.9c-1.5,0.4-3.2,0.7-4.8,0.9
			c-0.9-0.1-1.7,0.1-2.6,0.1c2.1-0.7,4.4-1.1,6.5-1.8c0.4-0.2,1.1-0.3,1-0.7c0-1.2,0-2.5-0.6-3.7c-0.9,0.2-1.7,0.4-2.6,0.6
			c-10.6,2.4-21.4,4.6-32.6,5.4c-0.2,0-0.5,0-0.7,0c0.3,1,0,2.1,0.7,3.1c1.7,0,3.5,0,5.2,0.1c-1.5,0.3-3,0.5-4.5,0.6
			c-1.2-0.1-0.7,0.7-0.4,1.1c2.4,0.4,4.9,0.4,7.4,0.4c0,0,0,0,0,0c-2.2,0.6-4.5,1.4-6.7,2.2c-5,2-10.5,1.9-15.6,0
			c-9.2-3.5-18.6-5.1-28.3-4.9c-6-0.1-11.8,0.4-17.6,1.2L36.5,69z M39.1,58.3l0.3-1.2c0.6,0.8,1.3,1.6,2,2.4
			C40.5,59.2,39.8,58.8,39.1,58.3z M138.8,55.8c-0.3,0.2-0.6,0.3-0.9,0.5c0.2-0.3,0.5-0.7,0.7-1L138.8,55.8z M75.6,85.2
			c-8.9-2.1-23.5-7.8-27.2,4.9c2.1-1.5,5.5-3.2,6.9-0.1c1.9,4.2,4,8.6,8.5,10.4c-1-1.4-2.6-2.7-3.1-4.5c1.6,1.4,3,3.5,5.1,4.2
			c-1.6-2.1-3.4-3.7-4.2-6.3c1.7,1.6,3,3.8,4.9,5.1c-0.8-1.4-1.9-2.8-2.5-4.3c5.3,3.5,7.9,1,13.2-0.3c-0.9,1.6-2.4,2.3-3.5,3.7
			c0.7-0.3,1.4-0.7,2.1-1.1c-1,1.7-2.3,3.3-3.7,4.8c-2.4,2.5-5.7,3.5-9.1,4.3c-8.2,2.2-16.5,2.4-24.8,0.2c-0.5-0.1-0.9-0.3-1.4-0.4
			c-0.2-1.2-0.4-2.5-0.5-3.7c0.1,0.2,0.3,0.4,0.4,0.6c0-0.1,0-0.2,0-0.3c0.9-4.2-0.8-8.6-1.6-12.6c-0.7-3.3-1-6.6-0.1-9.8
			c-0.1,0-0.1,0-0.2,0.1c0-1.2,0-2,0.3-3c-0.3,0-0.5-0.1-0.8-0.1l0.3-1.3c6.2-1.5,12.5-2,19-2.2c6.3,0.2,12.7,0.6,18.8,2.7
			c0.9,0.3,1.7,0.7,2.5,1c3.3,1.5,4.9,4,4.6,7.3c0,0.5-0.1,1-0.1,1.5C78.3,85.8,76.9,85.5,75.6,85.2z M75,92L75,92
			c-2.6,1-5.6,0.8-8.2,0.2c-2.3-0.7-4.7-1.9-6.2-3.9c-0.5-0.5-0.7-1.7,0.1-2c0.9-0.2,1.8,0,2.8,0.1c3.3,0.8,6.8,1.7,10.1,2.6
			c0.9,0.2,2.2,0.5,2.7,1.4C76.5,91.3,75.5,91.6,75,92z M28.8,98.1c-1.9-4.7-2.9-9.6-2.8-14.6c0.1-3.9,1.6-5.8,5.6-7.1
			c0.2-0.1,0.4-0.1,0.6-0.2c0,0.4,0.1,0.9,0.2,1.4c-0.1,0-0.2,0-0.3,0c1,8.9,1.2,18,2.2,27C31.8,103.1,29.9,101,28.8,98.1z
			 M107.6,153.8c-0.6-0.1-0.7-0.9-0.4-1.3C108.1,152.1,108.4,153.6,107.6,153.8z M141.9,108.9c-0.3,15.7-9.4,31.1-26.4,35.7
			c-0.8,0.4-1.7,0.9-2.7,1.5c-3,1.7-6.4,3.5-6.4,3.5c-0.5-1.2-1.1-2.4-1.8-3.5c0,0,0.1,0.1,0.1,0.1c2.8-2.8,6-5.4,7.8-8.5
			c1-1.3,2-2.7,2.8-4.2c2.4-4.3,3.4-9.3,1.3-15.7c-0.8-1.7-1.5-3.3-2.3-4.7c-0.6-1.1-1.2-2.5-1.9-3.7c-0.7-1.2-1.6-2.2-2.8-2.6
			c0.7,0.9,1.4,2.1,2.1,3.4c1.4,2.6,2.6,5.9,3.2,9.1c0.3,1.6,0.4,3.1,0.3,4.6c-0.3,1.6-0.5,3.7-1.8,5c0.9-0.6,1.7-1.3,2.5-2
			c-3,6.5-5.9,16.7-11.7,18.2c-0.3-0.6-0.6-1.2-0.9-1.8c0.4,2.9,1,5.9,1.4,8.8c0.4,1.1,0.5,2.2,0.2,3.3c-1.1,0.7-2.2,1.4-3.3,2.2
			c0,0.2,0,0.3,0,0.5c0,1.9-2.1,2.4-3.3,1.6c-0.3,0.2-0.6,0.4-0.9,0.6l-2.9-8.9l1,10c-1.5,0.9-3,1.8-4.6,2.7
			c-0.5,0.4-1.2,0.5-1.8,0.8l0,0.1c-0.3,0.1-0.8,0.3-1.1,0.3c-1.4-0.8-2.8-1.8-4.2-2.7c0-0.2,0-0.4,0-0.6c-0.6,0.2-1.3,0.2-1.8-0.1
			l1.3-12.5l-2.4,11.2c-1.9-1.3-3.9-2.6-5.7-4c-0.6-1.6-0.2-3.4-0.4-5.1c-0.5,1.3-0.8,2.6-1.2,4c-0.5-0.4-1.4-0.7-1.3-1.4
			c0-3.6,0.5-7.1,1.2-10.6c0,0,0,0,0-0.1c0,0,0,0,0,0c0.3-1.6,0.6-3.2,0.9-4.8c-0.1,0-0.4-0.1-0.6-0.1c-0.5,1.4-1,2.8-1.4,4.2
			c0,0-0.1,0-0.1-0.1c-3-2.7-5-6.1-6.1-9.9c-0.5-1.3-0.9-2.7-1.4-4.1c-0.4-1.4-0.8-2.7-1.1-4.1c0.9,0.6,1.7,1.5,2.4,2.4
			c-0.1-0.1-0.1-0.2-0.2-0.3c-0.9-1.5-1.5-3.3-1.8-5.3c-0.6-4.7,0.8-9.9,3.2-13.2c-2-0.7-3.9,1.3-4.3,3.9c0.5-0.7,1-1.3,1.4-2
			c-0.9,5.3-5.2,9.2-3.7,15.2l0.5-0.7c1.5,2.6,2.9,5.2,2.6,8.4c0.1-0.4,0.5-0.5,0.4-1.1c0.4,1.4,1,2.8,1.7,4c1.7,2.7,4,5.4,5.9,8.4
			c-0.4,1.3-0.8,2.6-1.2,3.9l0,0.5c-1.3-0.7-2.7-1.5-3.9-2.3c0.1-0.3,0.1-0.6,0.2-0.9c-0.9,0.2-2,0-2.6-0.7c0,0,0,0.1,0,0.1
			c-1.2-0.6-2.4-1.3-3.6-2c-1.9-0.5-3.7-1.2-5.2-2c-1.5-0.8-2.9-1.7-4.1-2.7c-4-3.3-6.6-7.3-8.4-11.7c-0.6-1.5-1.1-2.9-1.5-4.5
			c-1.2-4.8-2.7-9.4-3.7-14.1c1,0.3,2,0.6,3.1,0.8c8.3,1.6,16.6,0.7,24.7-0.9c6.2-1.3,11.1-5.3,13.3-11c0.2-0.5,0.4-1,0.6-1.5
			c0.4-0.2,0.8-0.3,1.2-0.4c0.1-0.1,0.2-0.1,0.3-0.2c1.2-2.7,1.8-5.5,1.9-8.4c0.1-0.3,0.2-0.6,0.3-0.9c0.8-2.4,1.9-3.3,4.6-3.6
			c0.8-0.1,1.6-0.1,2.5-0.1c3.9,0,5.1,1,6.2,4.5c0,0.1,0,0.2,0.1,0.2c0.1,2.8,0.7,5.5,1.8,8.1c0.1,0,0.2,0.1,0.3,0.2
			c0.2,0.1,0.4,0.1,0.6,0.2c0.3,0.9,0.7,1.7,1.2,2.6c2.8,5.5,6.6,8,13.2,10c5,1.5,9.7,2.1,15,2.1c4.1,0,8.6-0.6,12.4-1.8
			c0.5-0.2,1-0.3,1.4-0.5C142,108,141.9,108.4,141.9,108.9z M148.7,100.2c-0.7,1.2-1.5,2.2-2.4,3c0.1-1.2,0.2-2.4,0.2-3.6
			c0.1-1.4,0.2-2.7,0.2-4.1c0.1-1.4,0.1-2.8,0.1-4.1c0.2-1.2,0.3-2.5,0.5-3.7c0.4-3.7,0.6-7.6-0.2-11.1c4.1,1.3,5.5,3.2,5.5,7.4
			C152.5,89.6,151.5,95.1,148.7,100.2z"/>
	</g>
</g>
</svg>
