<?xml version="1.0" encoding="utf-8"?>
<!-- Generator: Adobe Illustrator 25.3.1, SVG Export Plug-In . SVG Version: 6.00 Build 0)  -->
<svg version="1.1" id="Capa_1" xmlns="http://www.w3.org/2000/svg" xmlns:xlink="http://www.w3.org/1999/xlink" x="0px" y="0px"
	 width="205.3px" height="90.2px" viewBox="0 0 205.3 90.2" style="enable-background:new 0 0 205.3 90.2;" xml:space="preserve">
<style type="text/css">
	.st0{fill:#020203;}
</style>
<g>
	<g>
		<g>
			<path class="st0" d="M14.5,23c0.2-2.4,1.3-4.7,2.6-6.7c1.8,0.2,3.7,1.5,5.4,0.5c6.9-3,13.8-6,20.8-8.9c2-0.6,2.4-2.8,3.3-4.4
				c2.3,0.7,4.8,1.3,6.7,2.9c-0.2,1.3-0.7,2.5-1.1,3.7c2.6,4.3,5.3,8.7,7.9,13c1-1,2-2,3-3c-1.6-3.8-3.3-7.5-4.8-11.3
				c-0.6-1.6,0.6-3.2,1-4.7c0.8,0.3,1.6,0.6,2.4,1c-0.4,0.9-0.7,1.8-1.1,2.8c0.7,1.7,1.5,3.5,2.2,5.2c0.7-0.3,1.5-0.6,2.2-0.9
				c-0.5-1.3-1.2-2.6-1.4-4c0.2-1.3,0.8-2.5,1.2-3.7c0.8,0.3,1.6,0.7,2.3,1c-0.4,0.9-0.8,1.8-1.1,2.8c0.4,1,0.9,1.9,1.3,2.9
				c0.6-0.3,1.3-0.6,1.9-0.9c0-1.2,0.1-2.5,0.2-3.7c0.8,0.2,1.6,0.4,2.5,0.6l0.3,0.7C72,8.3,72,9,72.4,9.8c1.8,4.6,4,9,5.8,13.6
				c0.5,1.1-0.2,2.2-0.6,3.2c-2.2,4.8-4.4,9.6-6.6,14.4c1.7,3.3,3.6,6.6,5.4,9.9c1.9,3.3,2.2,7.2,3.6,10.7c1,1.3,2.5,2.1,3.8,3
				c0.9,0.7,2.3,1.4,2.2,2.8c-4.9,2.7-10.3,4.5-15.3,6.9c-1.2,0.3-2.5,1.5-3.7,0.8c-0.8-1.1-1.2-2.4-1.8-3.6
				c-3.3,2.6-7.2,4.2-11.3,4.8c0.3,1.5,2.5,4.1,0.3,5c-4.8,2.2-9.8,4.2-14.6,6.4c-1.2,0.4-2.5,1.4-3.7,0.6c-0.3-2.7,0.9-5.3,0.5-7.9
				c-1.5-3.5-4.1-6.4-5.3-10c-1.2-3.6-2.3-7.2-3.5-10.8c-5.1-2-10.2-4.1-15.4-6.1c-1-0.5-2.3-0.8-2.8-1.9c-2.1-4.2-3.6-8.8-5.7-13
				c-0.3-0.2-1-0.7-1.3-1l-0.4-0.8l0.2-0.2c0.4-0.6,0.7-1.3,1-1.9c1,0.8,2,1.6,2.9,2.4c0.7-0.2,1.3-0.5,2-0.7c-0.4-1-0.8-2-1.2-3
				c-0.9-0.4-1.9-0.7-2.8-1.1c0.3-0.8,0.6-1.6,0.8-2.4c1.2,0.5,2.5,0.9,3.6,1.6c0.8,1.1,1.3,2.5,1.9,3.7c0.7-0.3,1.5-0.6,2.2-1
				c-0.7-1.7-1.5-3.5-2.2-5.2c-0.9-0.4-1.8-0.7-2.8-1.1c0.3-0.8,0.6-1.6,0.9-2.4c1.4,0.7,3.3,0.9,4.1,2.5c1.6,3.4,2.9,6.9,4.5,10.3
				c1.5,0.2,3.1,0.4,4.6,0.6c-1.3-4.8-2.6-9.6-3.9-14.4C16.8,24.2,15.6,23.7,14.5,23z M17.4,21.6c1,0.6,2.7,0.7,2.9,2.2
				c1.4,4.8,2.6,9.6,4,14.4c0.2,1.1,1,2.5,0.1,3.5c-2.8,0-5.6-0.4-8.4-1c-1.2-0.9-1.4-2.7-2.1-4c-2.3,1-4.5,2-6.8,2.9
				c1.5,3.3,2.8,6.7,4.3,10c0.2,0.9,1.1,1.2,1.8,1.5c5.5,2.2,11.1,4.3,16.6,6.6c1.2,3.7,2.4,7.3,3.6,11c1.2,4.1,4,7.3,5.8,11.1
				c0.2,1.9-0.3,3.7-0.5,5.6c1.2-0.5,2.4-1,3.7-1.6c-0.3-0.7-0.6-1.5-1-2.2c0.8-0.3,1.5-0.7,2.3-1c0.3,0.8,0.7,1.5,1,2.3
				c0.8-0.3,1.5-0.6,2.3-1c-0.3-0.8-0.6-1.5-0.9-2.3c0.7-0.3,1.5-0.6,2.2-1c0.3,0.7,0.7,1.5,1,2.2c1.1-0.5,2.3-1,3.4-1.5
				c-0.3-1.5-2.3-3.4-1-4.9c2.4-1,5.1-1.1,7.5-2.1c2.4-1.1,4.3-2.9,6.7-4c1.9,0,1.9,2.8,2.8,4.1c1.1-0.5,2.3-1,3.4-1.5
				c-0.3-0.7-0.6-1.5-1-2.2c0.7-0.3,1.5-0.7,2.2-1c0.3,0.8,0.7,1.5,1,2.3c0.8-0.3,1.5-0.7,2.3-1c-0.3-0.8-0.6-1.5-1-2.3
				c0.8-0.3,1.5-0.6,2.3-0.9c0.3,0.7,0.6,1.5,1,2.2c1.2-0.5,2.4-1,3.6-1.6c-1.5-1.1-3.2-2-4.4-3.5c-1.2-3.2-1.8-6.6-3-9.8
				c-2-4.1-4.5-8-6.4-12.2c0.1-1,0.6-2,1-2.9c2.2-4.6,4.2-9.4,6.4-14c-1.7-4.1-3.4-8.1-5.2-12.1c-2.3,1-4.6,2-6.8,2.9
				c0.7,1.8,1.8,3.5,2,5.4c-1.6,2.1-3.6,3.9-5.6,5.6c-1.1,0.1-1.6-1.1-2.1-1.9c-2.7-4.5-5.5-8.8-8.1-13.3c-0.9-1.1,0.1-2.4,0.4-3.6
				c-0.8-0.3-1.6-0.7-2.4-1c-0.6,1-0.8,2.5-2,2.9c-8,3.5-16,6.9-24.1,10.4c-1.2,0.6-2.4-0.2-3.6-0.5C18,20,17.7,20.8,17.4,21.6z"/>
			<path class="st0" d="M80.2,70.3c-1.1,0.5-2.2,0.9-3.3,1.4c-2.1,0.8-4.2,1.7-6.2,2.7c-0.4,0.1-0.7,0.3-1.1,0.5
				c-0.9,0.4-1.8,0.9-2.7,0.4l0,0c-0.6-0.8-1-1.7-1.4-2.6c-0.1-0.3-0.3-0.6-0.4-0.9c-3.1,2.5-6.9,4.1-11.1,4.8
				c0.1,0.4,0.3,0.9,0.5,1.3c0.5,1,0.9,2,0.6,2.8c-0.1,0.4-0.5,0.7-1,0.9c-2.5,1.2-5.1,2.3-7.6,3.3c-2.3,1-4.7,2-7,3
				c-0.3,0.1-0.6,0.2-0.9,0.3c-1,0.4-1.9,0.8-2.9,0.2l0,0l0,0c-0.2-1.3,0.1-2.7,0.3-4c0.2-1.3,0.4-2.6,0.3-3.9
				c-0.6-1.5-1.5-2.8-2.3-4.2c-1.1-1.8-2.3-3.7-3-5.9c-0.5-1.4-0.9-2.9-1.4-4.3c-0.7-2.1-1.4-4.3-2.1-6.4c-2.4-0.9-4.8-1.9-7.1-2.8
				c-2.7-1.1-5.5-2.2-8.2-3.2c-0.2-0.1-0.4-0.2-0.7-0.3c-0.9-0.4-1.7-0.7-2.1-1.6c-1-2-1.9-4.2-2.7-6.2c-0.9-2.2-1.9-4.5-3-6.7
				c-0.3-0.2-1-0.7-1.3-1l0,0L2,36.8l0.2-0.2c0.3-0.6,0.7-1.3,1-1.9l0-0.1l0.1,0.1c1,0.8,2,1.6,2.9,2.4c0.3-0.1,0.6-0.2,0.9-0.3
				c0.3-0.1,0.6-0.2,0.9-0.3c-0.4-0.9-0.8-1.9-1.2-2.9l-2.8-1.1l0-0.1C4.4,31.5,4.7,30.7,5,30l0-0.1l0.1,0C5.4,30,5.7,30.1,6,30.2
				c0.9,0.4,1.9,0.7,2.7,1.3l0,0c0.6,0.8,1,1.8,1.4,2.7c0.2,0.3,0.3,0.7,0.5,1l0,0c0.7-0.3,1.3-0.6,2-0.9c-0.4-0.8-0.7-1.6-1.1-2.5
				c-0.4-0.9-0.8-1.8-1.1-2.6l-2.8-1.1l0-0.1c0.3-0.9,0.6-1.7,0.9-2.4l0-0.1l0.1,0c0.4,0.2,0.8,0.4,1.3,0.5c1.1,0.4,2.3,0.9,2.8,2
				c1,2,1.8,4.1,2.7,6.1c0.6,1.4,1.2,2.8,1.8,4.2c0.8,0.1,1.5,0.2,2.3,0.3c0.7,0.1,1.5,0.2,2.2,0.3c-0.4-1.5-0.8-2.9-1.2-4.4
				c-0.9-3.2-1.8-6.6-2.7-9.9c-0.2-0.1-0.3-0.1-0.5-0.2c-1-0.4-2-0.9-2.9-1.5l0,0l0,0c0.2-2.2,1.1-4.5,2.6-6.7l0,0l0,0
				c0.6,0.1,1.2,0.3,1.8,0.4c1.3,0.4,2.5,0.8,3.6,0.1c6.9-3,13.9-6,20.8-8.9C44.8,7.3,45.4,6,46,4.6c0.2-0.4,0.4-0.9,0.6-1.3l0-0.1
				l0.1,0c0.4,0.1,0.7,0.2,1.1,0.3c2,0.6,4,1.2,5.7,2.5l0,0l0,0c-0.2,1.1-0.6,2.2-1,3.3l-0.1,0.4c2,3.3,4,6.6,5.9,9.7
				c0.6,1,1.3,2.1,1.9,3.1c0.5-0.5,1-1,1.4-1.4c0.5-0.5,1-1,1.5-1.5c-0.6-1.6-1.3-3.1-2-4.6c-1-2.2-1.9-4.4-2.8-6.6
				c-0.5-1.2,0-2.3,0.5-3.4c0.2-0.5,0.4-0.9,0.5-1.3l0-0.1l0.1,0c0.4,0.2,0.8,0.3,1.2,0.5c0.4,0.2,0.8,0.3,1.2,0.5l0.1,0l0,0.1
				c-0.3,0.8-0.7,1.8-1.1,2.7c0.7,1.7,1.5,3.4,2.2,5.1c0.7-0.3,1.4-0.6,2-0.9l0,0c-0.1-0.4-0.3-0.7-0.4-1.1
				c-0.4-0.9-0.8-1.9-0.9-2.9l0,0c0.2-1,0.5-1.9,0.9-2.8c0.1-0.3,0.2-0.6,0.3-0.9l0-0.1l0.9,0.4c0.5,0.2,1,0.4,1.6,0.7l0.1,0l0,0.1
				c-0.3,0.6-0.5,1.3-0.8,1.9L66.2,8c0.2,0.5,0.4,1,0.6,1.4c0.2,0.5,0.4,0.9,0.6,1.4c0.6-0.3,1.2-0.6,1.8-0.9c0-1.3,0.1-2.5,0.2-3.7
				l0-0.1l0.1,0c0.3,0.1,0.6,0.1,0.9,0.2c0.5,0.1,1,0.2,1.5,0.4l0,0l0.3,0.8l0,0c-0.3,0.7-0.3,1.4,0,2.1c0.9,2.2,1.9,4.4,2.8,6.6
				c1,2.3,2.1,4.6,3,7c0.4,0.9,0,1.8-0.3,2.7c-0.1,0.2-0.2,0.4-0.2,0.6c-1.1,2.4-2.2,4.8-3.3,7.2c-1.1,2.3-2.2,4.8-3.3,7.1
				c1,2,2.2,4,3.2,6c0.7,1.3,1.4,2.6,2.1,3.9c1.1,1.9,1.7,4.1,2.2,6.2c0.4,1.5,0.8,3.1,1.4,4.5c0.7,0.9,1.7,1.6,2.6,2.2
				c0.4,0.3,0.8,0.5,1.2,0.8c0.2,0.1,0.4,0.3,0.5,0.4c0.8,0.6,1.8,1.3,1.7,2.5l0,0l0,0C84.2,68.5,82.2,69.4,80.2,70.3z M73.6,72.9
				c1.1-0.5,2.2-0.9,3.3-1.4c3-1.3,6.2-2.6,9.1-4.2c0.1-1.1-0.8-1.7-1.6-2.3c-0.2-0.1-0.4-0.3-0.6-0.4c-0.4-0.3-0.8-0.6-1.2-0.8
				c-1-0.6-2-1.3-2.7-2.3c-0.6-1.5-1-3-1.4-4.6c-0.6-2.1-1.1-4.2-2.2-6.2c-0.7-1.3-1.4-2.6-2.1-3.9c-1.1-2-2.2-4-3.2-6l0,0l0,0
				c1.1-2.4,2.2-4.8,3.3-7.2c1.1-2.4,2.2-4.8,3.3-7.2c0.1-0.2,0.2-0.4,0.2-0.6c0.4-0.8,0.7-1.7,0.3-2.5c-0.9-2.4-2-4.7-3-7
				c-1-2.1-1.9-4.4-2.8-6.6c-0.3-0.7-0.3-1.5,0-2.2L72,6.9c-0.5-0.1-1-0.2-1.5-0.3c-0.3-0.1-0.6-0.1-0.9-0.2
				c-0.1,1.2-0.2,2.4-0.2,3.6l0,0l0,0c-0.6,0.3-1.2,0.6-1.9,0.9l-0.1,0l0-0.1c-0.2-0.5-0.4-1-0.7-1.5s-0.4-1-0.7-1.5l0,0l0.4-0.9
				c0.2-0.6,0.5-1.2,0.7-1.8c-0.5-0.2-1-0.4-1.5-0.6L65,4.3c-0.1,0.3-0.2,0.5-0.3,0.8c-0.4,0.9-0.7,1.8-0.9,2.8
				c0.1,1,0.5,1.9,0.9,2.8c0.2,0.4,0.3,0.8,0.5,1.2l0,0.1L65,12c-0.7,0.3-1.4,0.6-2.1,0.9l-0.1,0l0-0.1c-0.7-1.7-1.5-3.5-2.2-5.2
				l0,0l0,0c0.4-0.9,0.7-1.9,1.1-2.7c-0.4-0.2-0.8-0.3-1.1-0.5c-0.4-0.1-0.7-0.3-1.1-0.4c-0.1,0.4-0.3,0.8-0.5,1.2
				c-0.4,1.1-0.9,2.2-0.5,3.3c0.9,2.2,1.8,4.5,2.8,6.6c0.7,1.5,1.4,3.1,2,4.7l0,0l0,0c-0.5,0.5-1,1-1.5,1.5c-0.5,0.5-1,1-1.5,1.5
				L60.2,23l0-0.1c-0.7-1.1-1.3-2.2-2-3.2c-2-3.2-4-6.5-6-9.8l0,0l0.2-0.4c0.4-1,0.7-2.1,0.9-3.2c-1.6-1.3-3.6-1.9-5.6-2.5
				c-0.3-0.1-0.7-0.2-1-0.3c-0.2,0.4-0.4,0.8-0.6,1.2c-0.6,1.3-1.2,2.7-2.7,3.2c-6.9,2.9-13.9,6-20.8,8.9c-1.2,0.7-2.5,0.3-3.8,0
				c-0.6-0.2-1.1-0.3-1.7-0.4c-1.5,2.2-2.3,4.5-2.5,6.6c0.9,0.6,1.9,1,2.8,1.4c0.2,0.1,0.4,0.2,0.5,0.2l0,0l0,0
				c0.9,3.3,1.8,6.7,2.7,9.9c0.4,1.5,0.8,3,1.2,4.5l0,0.1l-0.1,0c-0.8-0.1-1.5-0.2-2.3-0.3c-0.8-0.1-1.5-0.2-2.3-0.3l0,0l0,0
				c-0.6-1.4-1.2-2.8-1.8-4.2c-0.8-2-1.7-4.1-2.7-6.1c-0.5-1.1-1.6-1.5-2.7-1.9c-0.4-0.2-0.8-0.3-1.2-0.5c-0.3,0.7-0.5,1.4-0.9,2.3
				l2.7,1.1l0,0c0.4,0.9,0.8,1.8,1.1,2.7c0.4,0.8,0.7,1.7,1.1,2.5l0,0.1l-0.1,0c-0.7,0.3-1.4,0.6-2.1,0.9l-0.2,0.1l0-0.1
				c-0.2-0.4-0.3-0.7-0.5-1.1c-0.4-0.9-0.8-1.8-1.4-2.6c-0.8-0.6-1.8-0.9-2.7-1.3c-0.3-0.1-0.5-0.2-0.8-0.3
				c-0.3,0.7-0.5,1.5-0.8,2.2l2.7,1.1l0,0c0.4,1,0.8,2,1.2,2.9l0,0.1l-0.1,0c-0.3,0.1-0.7,0.2-1,0.4c-0.3,0.1-0.7,0.2-1,0.4l0,0l0,0
				c-0.9-0.8-1.8-1.6-2.9-2.4c-0.3,0.6-0.7,1.2-1,1.9l0,0l-0.2,0.1l0.3,0.8c0.3,0.2,1,0.7,1.3,1l0,0c1.1,2.2,2.1,4.5,3,6.8
				c0.8,2.1,1.7,4.2,2.7,6.2c0.4,0.9,1.2,1.2,2.1,1.5c0.2,0.1,0.5,0.2,0.7,0.3c2.7,1.1,5.5,2.2,8.2,3.2c2.3,0.9,4.8,1.9,7.2,2.8l0,0
				l0,0c0.7,2.1,1.4,4.3,2.1,6.4c0.5,1.4,0.9,2.9,1.4,4.3c0.7,2.1,1.8,4,3,5.8c0.8,1.3,1.7,2.7,2.3,4.2l0,0c0.2,1.3,0,2.7-0.3,4
				c-0.2,1.3-0.4,2.6-0.3,3.9c0.9,0.6,1.8,0.2,2.7-0.2c0.3-0.1,0.6-0.3,0.9-0.3c2.3-1,4.7-2,7-3c2.5-1.1,5.1-2.2,7.6-3.3
				c0.5-0.2,0.7-0.4,0.9-0.8c0.3-0.7-0.2-1.7-0.6-2.7c-0.2-0.5-0.5-1-0.6-1.4l0-0.1l0.1,0c4.3-0.7,8.1-2.3,11.2-4.8l0.1-0.1l0,0.1
				c0.2,0.3,0.3,0.7,0.5,1c0.4,0.9,0.8,1.8,1.3,2.6c0.8,0.5,1.7,0,2.5-0.4c0.4-0.2,0.8-0.4,1.1-0.5C71.6,73.8,72.6,73.3,73.6,72.9z
				 M68.3,72.6L68.3,72.6c-0.3-0.5-0.5-1.1-0.8-1.7c-0.4-1.2-0.8-2.4-2-2.4c-1.2,0.5-2.3,1.3-3.3,2c-1,0.7-2.1,1.4-3.3,2
				c-1.2,0.5-2.5,0.8-3.8,1.1c-1.3,0.3-2.5,0.6-3.7,1c-0.8,0.9-0.2,2.1,0.4,3.2c0.3,0.6,0.6,1.1,0.7,1.6l0,0.1L49,81l0-0.1
				c-0.3-0.7-0.6-1.5-1-2.2c-0.7,0.3-1.4,0.6-2.1,0.9c0.1,0.4,0.3,0.7,0.4,1.1c0.2,0.4,0.3,0.8,0.5,1.1l0,0.1l-0.1,0
				c-0.8,0.3-1.5,0.6-2.3,1l-0.1,0l-0.1-0.2c-0.3-0.7-0.6-1.4-0.9-2.1c-0.7,0.3-1.4,0.6-2.1,0.9l1,2.2l-0.1,0
				c-1.2,0.5-2.4,1-3.6,1.6l-0.1,0l0-0.1c0.1-0.6,0.2-1.2,0.2-1.8c0.2-1.2,0.4-2.5,0.3-3.8c-0.7-1.5-1.6-2.9-2.4-4.3
				c-1.3-2.1-2.7-4.3-3.4-6.8c-0.9-2.8-1.8-5.6-2.7-8.3c-0.3-0.9-0.6-1.8-0.9-2.7c-3.9-1.7-7.9-3.3-11.8-4.8
				c-1.6-0.6-3.2-1.2-4.7-1.9c-0.1,0-0.1-0.1-0.2-0.1c-0.7-0.3-1.4-0.6-1.6-1.4c-0.9-1.9-1.7-3.8-2.5-5.7c-0.6-1.4-1.2-2.9-1.8-4.3
				l0-0.1l0.1,0c0.8-0.3,1.5-0.7,2.3-1c1.5-0.7,3-1.3,4.5-2l0.1,0l0,0.1c0.3,0.5,0.5,1,0.6,1.5c0.3,0.9,0.7,1.9,1.5,2.4
				c3.2,0.7,5.9,1,8.3,1c0.6-0.7,0.4-1.6,0.1-2.5c-0.1-0.3-0.2-0.6-0.2-0.9c-0.6-2.3-1.3-4.6-1.9-6.8c-0.7-2.5-1.4-5.1-2.1-7.6
				c-0.1-1-1-1.3-1.9-1.7c-0.3-0.1-0.7-0.3-1-0.4l-0.1,0l0-0.1c0.3-0.8,0.6-1.6,0.9-2.5l0-0.1l0.1,0c0.3,0.1,0.7,0.2,1,0.3
				c0.8,0.3,1.7,0.6,2.5,0.2c7.7-3.3,15.8-6.8,24.1-10.4c0.9-0.3,1.2-1.1,1.6-2c0.1-0.3,0.3-0.7,0.4-1l0-0.1l0.1,0
				c0.8,0.3,1.6,0.7,2.4,1l0.1,0l0,0.1c-0.1,0.3-0.2,0.7-0.3,1c-0.3,0.9-0.7,1.7-0.1,2.5c1.5,2.5,3,5,4.5,7.4
				c1.2,1.9,2.4,3.9,3.6,5.9c0.1,0.2,0.2,0.3,0.3,0.5c0.4,0.7,0.8,1.4,1.7,1.3c2.4-2,4.2-3.8,5.6-5.6c-0.2-1.3-0.7-2.5-1.3-3.6
				c-0.3-0.6-0.5-1.1-0.8-1.7l0-0.1l0.1,0c2.3-1,4.6-2,6.8-2.9l0.1,0l0,0.1c0.6,1.3,1.2,2.7,1.7,4c1.1,2.6,2.3,5.4,3.4,8.1l0,0l0,0
				c-1.1,2.3-2.1,4.6-3.1,6.8c-1.1,2.4-2.2,4.8-3.3,7.2c-0.1,0.1-0.1,0.3-0.2,0.4c-0.4,0.8-0.7,1.6-0.8,2.4c1,2.1,2.2,4.2,3.3,6.3
				c1.1,1.9,2.2,3.9,3.1,5.9c0.6,1.6,1.1,3.3,1.5,5c0.4,1.6,0.9,3.2,1.5,4.8c0.8,0.9,1.9,1.7,2.9,2.4c0.5,0.3,1,0.7,1.4,1l0.1,0.1
				l-3.8,1.6l0-0.1c-0.2-0.4-0.3-0.7-0.5-1.1c-0.1-0.4-0.3-0.7-0.4-1.1l-2.2,0.9c0.1,0.3,0.3,0.7,0.4,1c0.2,0.4,0.3,0.8,0.5,1.2
				l0,0.1l-0.1,0c0,0,0,0,0,0c-0.8,0.3-1.5,0.6-2.3,1l-0.1,0l-1-2.3c-0.3,0.1-0.7,0.3-1,0.4c-0.4,0.2-0.7,0.3-1.1,0.5
				c0.1,0.3,0.3,0.7,0.4,1c0.2,0.4,0.3,0.8,0.5,1.1l0,0.1L68.3,72.6z M65.5,68.4L65.5,68.4c1.4,0,1.8,1.3,2.2,2.5
				c0.2,0.6,0.4,1.1,0.7,1.6l3.3-1.4c-0.2-0.4-0.3-0.7-0.5-1.1c-0.2-0.4-0.3-0.7-0.5-1.1l0-0.1l0.1,0c0.4-0.2,0.8-0.3,1.2-0.5
				c0.4-0.2,0.7-0.3,1.1-0.5l0.1,0l1,2.3c0.7-0.3,1.4-0.6,2.1-0.9c-0.2-0.4-0.3-0.7-0.5-1.1c-0.2-0.4-0.3-0.7-0.5-1.1l0-0.1l2.4-1
				l0,0.1c0.2,0.4,0.3,0.7,0.5,1.1c0.1,0.4,0.3,0.7,0.4,1l3.5-1.5c-0.4-0.3-0.9-0.7-1.3-1c-1-0.7-2.1-1.5-3-2.4l0,0l0,0
				c-0.6-1.6-1.1-3.2-1.5-4.8c-0.4-1.6-0.9-3.3-1.5-5c-0.9-2-2-4-3.1-5.8c-1.1-2-2.3-4.1-3.3-6.3l0,0l0,0c0.1-0.9,0.5-1.7,0.8-2.5
				c0.1-0.1,0.1-0.3,0.2-0.4c1.1-2.4,2.2-4.8,3.3-7.2c1-2.2,2.1-4.5,3.1-6.8c-1.1-2.7-2.3-5.4-3.4-8c-0.6-1.3-1.1-2.6-1.7-4
				c-2.2,1-4.5,1.9-6.7,2.9c0.2,0.6,0.5,1.1,0.7,1.6c0.5,1.2,1.1,2.4,1.3,3.7l0,0l0,0c-1.4,1.8-3.2,3.6-5.7,5.7l0,0l0,0
				c-1,0.1-1.4-0.7-1.8-1.4c-0.1-0.2-0.2-0.4-0.3-0.5c-1.2-2-2.4-4-3.6-5.9C53,16,51.4,13.5,50,11c-0.7-0.8-0.3-1.8,0.1-2.7
				c0.1-0.3,0.2-0.6,0.3-0.9c-0.8-0.3-1.5-0.6-2.3-1c-0.2,0.3-0.3,0.6-0.4,0.9c-0.4,0.8-0.7,1.7-1.6,2c-8.2,3.6-16.4,7.1-24.1,10.4
				c-0.9,0.5-1.8,0.1-2.7-0.2c-0.3-0.1-0.6-0.2-0.9-0.3c-0.3,0.8-0.6,1.6-0.9,2.3c0.3,0.1,0.6,0.3,0.9,0.4c0.9,0.4,1.8,0.7,2,1.8
				c0.7,2.5,1.4,5.1,2.1,7.6c0.6,2.2,1.2,4.5,1.9,6.8c0,0.3,0.1,0.6,0.2,0.9c0.3,0.9,0.5,1.9-0.2,2.7l0,0l0,0c-2.5,0-5.1-0.3-8.4-1
				l0,0c-0.8-0.6-1.2-1.6-1.5-2.5c-0.2-0.5-0.4-1-0.6-1.4c-1.5,0.6-3,1.3-4.5,1.9C8.5,39,7.8,39.4,7,39.7c0.6,1.4,1.2,2.8,1.8,4.2
				c0.8,1.9,1.6,3.8,2.5,5.7c0.2,0.8,0.9,1.1,1.6,1.3c0.1,0,0.1,0.1,0.2,0.1c1.6,0.6,3.2,1.3,4.7,1.9c3.9,1.5,7.9,3.1,11.8,4.8l0,0
				l0,0c0.3,0.9,0.6,1.8,0.9,2.7c0.9,2.7,1.8,5.5,2.7,8.3c0.7,2.4,2.1,4.6,3.4,6.8c0.9,1.4,1.7,2.8,2.4,4.3l0,0l0,0
				c0.1,1.3-0.1,2.6-0.3,3.8c-0.1,0.5-0.2,1.1-0.2,1.7c1.2-0.5,2.3-1,3.5-1.5l-1-2.2l0.1,0c0.8-0.3,1.5-0.7,2.3-1l0.1,0l0,0.1
				c0.3,0.7,0.6,1.4,0.9,2.1l0,0.1c0.7-0.3,1.4-0.6,2.1-0.9c-0.1-0.4-0.3-0.7-0.4-1.1c-0.2-0.4-0.3-0.8-0.5-1.1l0-0.1l0.1,0
				c0.7-0.3,1.5-0.6,2.2-1l0.1,0l0,0.1c0.3,0.7,0.7,1.5,1,2.2l3.3-1.4c-0.1-0.5-0.4-1-0.7-1.5c-0.6-1.1-1.2-2.3-0.4-3.3l0,0l0,0
				c1.2-0.5,2.5-0.8,3.8-1.1c1.2-0.3,2.5-0.6,3.7-1c1.2-0.5,2.2-1.3,3.3-2C63.2,69.7,64.3,68.9,65.5,68.4L65.5,68.4z"/>
		</g>
	</g>
	<g>
		<path class="st0" d="M25.6,25.7c0.4-0.7,0.7-1.5,1.1-2.2c2.4,1.3,5.5,1.5,7.3,3.6c-0.5,1.7-2.3,2.5-3.4,3.7
			c-0.5-0.6-1.1-1.2-1.6-1.8c0.3-0.3,1-1,1.4-1.3C28.7,27,27.2,26.4,25.6,25.7z"/>
		<path class="st0" d="M30.5,30.9l-0.3-0.3c-0.5-0.5-0.9-1-1.4-1.5l0-0.1l0.1-0.1c0.3-0.3,0.9-0.9,1.3-1.3c-1.5-0.6-3.1-1.2-4.6-1.9
			l-0.1,0l0-0.1c0.2-0.4,0.4-0.7,0.5-1.1c0.2-0.4,0.3-0.7,0.5-1.1l0-0.1l0.1,0c0.8,0.4,1.8,0.8,2.7,1.1c1.7,0.6,3.4,1.2,4.6,2.5l0,0
			l0,0c-0.3,1.2-1.3,2-2.2,2.7C31.4,30.1,30.9,30.4,30.5,30.9L30.5,30.9z M29,29c0.4,0.5,0.9,1,1.3,1.5l0.2,0.2
			c0.3-0.4,0.7-0.7,1.1-1c0.9-0.7,1.8-1.5,2.2-2.6c-1.1-1.3-2.8-1.9-4.5-2.4c-0.9-0.3-1.8-0.6-2.7-1.1c-0.2,0.3-0.3,0.7-0.5,1
			c-0.2,0.4-0.3,0.7-0.5,1.1c1.5,0.7,3.1,1.3,4.6,1.9l0.1,0l-0.1,0.1C30,28,29.4,28.6,29,29z"/>
	</g>
	<g>
		<path class="st0" d="M45.5,15.3c0.7,0.3,1.5,0.6,2.2,1.1c-0.5,1.5-1.1,3-1.7,4.5c0.5,0,1.4-0.1,1.9-0.1c0.1,0.8,0.2,1.6,0.2,2.4
			c-1.6-0.1-4.6,1.3-5.2-0.8C43.4,20,44.6,17.7,45.5,15.3z"/>
		<path class="st0" d="M48.1,23.3L48.1,23.3c-0.6,0-1.2,0.1-1.8,0.2c-1.4,0.2-3.1,0.5-3.6-1l0,0l0,0c0.4-1.6,1-3.1,1.6-4.5
			c0.4-0.9,0.7-1.7,1-2.6l0-0.1l0.1,0c0.2,0.1,0.4,0.2,0.5,0.2c0.6,0.2,1.1,0.5,1.6,0.8l0,0l0,0.1c-0.3,1.1-0.8,2.1-1.2,3.2
			c-0.2,0.4-0.3,0.8-0.5,1.2l1.8-0.1l0.1,0.6C48,21.9,48.1,22.5,48.1,23.3L48.1,23.3z M42.9,22.4c0.5,1.4,2,1.1,3.4,0.9
			c0.6-0.1,1.2-0.2,1.7-0.2c-0.1-0.6-0.1-1.2-0.2-1.8l0-0.4L45.8,21l0-0.1c0.2-0.5,0.4-0.9,0.5-1.4c0.4-1,0.8-2.1,1.1-3.1
			c-0.5-0.3-1-0.6-1.6-0.8c-0.2-0.1-0.3-0.1-0.5-0.2c-0.3,0.9-0.7,1.7-1,2.6C43.9,19.4,43.3,20.9,42.9,22.4z"/>
	</g>
	<g>
		<g>
			<path class="st0" d="M35.1,29.7c0.6-1.7,2.5-2.6,3.7-3.8c1.8,0.1,4.2-1.1,5.6,0.4c0.2,2.5-0.3,5-0.3,7.5c2.9-1.5,3.5-5.3,5.9-7.3
				c1.4-0.3,1.7,1.4,2.2,2.3c1.1,2.7,2.5,5.3,3.3,8.1c-0.5,1.3-1.5,2.4-2.3,3.6c-1.1,1.5-2,3.3-3.9,3.9c-2.1,0.8-4.2,2.1-6.5,2.4
				c-2.5-0.3-5.1-0.4-7.6-1.2c-1.5-2.5-2.4-5.3-3.6-7.9c-0.4-1-1.3-2.3-0.2-3.2c3-0.1,5.8,1.2,8.8,1.2l0.4-0.6
				C39,33,36.3,31.9,35.1,29.7z M38.3,29.6c1,0.7,1.8,1.9,3.1,2c0.7-1,0.4-2.4,0.6-3.6c-0.7,0.1-1.4,0.1-2.1,0.2
				C39.3,28.7,38.8,29.2,38.3,29.6z M34.2,37.2c0.9,2.1,1.8,4.2,2.7,6.3c1.9,0.3,3.8,0.5,5.7,0.7c-0.2-0.5-0.7-1.5-0.9-2.1
				c0.8-0.3,1.5-0.7,2.3-1c0.3,0.8,0.7,1.5,1,2.3c0.8-0.3,1.5-0.7,2.3-1c-0.3-0.8-0.7-1.5-1-2.3c0.8-0.3,1.5-0.7,2.3-1
				c0.2,0.5,0.7,1.6,0.9,2.1c1.1-1.6,2.3-3.1,3.4-4.7c-0.9-2.1-1.8-4.2-2.7-6.3c-0.5,0.8-1.1,1.7-1.6,2.5c0.5,1.1,0.9,2.1,1.4,3.2
				c-0.8,0.3-1.5,0.7-2.3,1c-0.1-0.3-0.4-1-0.6-1.3c-1.3,1.1-2.8,0.4-4.1-0.1c-0.6,1.3-1.1,2.9-2.8,3c0.1,0.3,0.4,1,0.6,1.3
				c-0.8,0.3-1.5,0.6-2.3,1c-0.4-1.1-0.9-2.1-1.3-3.2C36.2,37.5,35.2,37.3,34.2,37.2z"/>
			<path class="st0" d="M46,45.9c-1,0.4-2,0.8-3.1,0.9c-0.6-0.1-1.1-0.1-1.7-0.2c-2-0.2-4-0.4-5.9-1l0,0l0,0
				c-0.9-1.6-1.6-3.3-2.3-4.9c-0.4-1-0.8-2-1.3-3c-0.1-0.2-0.2-0.4-0.3-0.6c-0.4-0.9-0.8-1.9,0.1-2.7l0,0l0,0
				c1.6-0.1,3.1,0.3,4.6,0.6c1.3,0.3,2.7,0.6,4.1,0.6l0.4-0.6c-0.7-0.7-1.5-1.4-2.3-2c-1.2-0.9-2.5-1.9-3.2-3.2l0,0l0,0
				c0.4-1.1,1.4-1.9,2.3-2.7c0.5-0.4,0.9-0.8,1.3-1.2l0,0l0,0c0.6,0,1.2-0.1,1.8-0.2c1.4-0.2,2.8-0.5,3.8,0.6l0,0l0,0
				c0.1,1.5,0,3-0.1,4.5c-0.1,1-0.2,2-0.2,2.9c1.6-0.8,2.5-2.4,3.3-3.9c0.7-1.2,1.4-2.4,2.5-3.4l0,0l0,0c1.2-0.3,1.6,0.8,2,1.7
				c0.1,0.2,0.2,0.5,0.3,0.6c0.4,1,0.9,2,1.3,3c0.7,1.6,1.5,3.3,2,5.1l0,0l0,0c-0.4,1-1,1.8-1.6,2.6c-0.2,0.3-0.5,0.6-0.7,1
				c-0.2,0.3-0.4,0.6-0.6,0.9c-0.9,1.2-1.8,2.5-3.3,3c-0.7,0.3-1.3,0.6-2,0.9C46.9,45.5,46.5,45.7,46,45.9z M35.3,45.5
				c1.9,0.6,3.9,0.8,5.9,1c0.6,0.1,1.1,0.1,1.7,0.2c1.5-0.2,3-0.9,4.4-1.5c0.7-0.3,1.3-0.6,2-0.9c1.5-0.5,2.4-1.7,3.2-3
				c0.2-0.3,0.4-0.6,0.6-0.9c0.2-0.3,0.5-0.6,0.7-1c0.6-0.8,1.2-1.6,1.6-2.6c-0.5-1.7-1.3-3.4-2-5c-0.4-1-0.9-2-1.3-3
				c-0.1-0.2-0.2-0.4-0.3-0.6c-0.4-0.9-0.8-1.9-1.8-1.6c-1,0.9-1.7,2.1-2.4,3.3c-0.9,1.6-1.8,3.2-3.5,4L44,33.9l0-0.1
				c0-1,0.1-2.1,0.2-3.1c0.1-1.5,0.2-3,0.1-4.4c-0.9-1-2.3-0.8-3.6-0.5c-0.6,0.1-1.3,0.2-1.8,0.2c-0.4,0.4-0.9,0.8-1.3,1.2
				c-0.9,0.7-1.9,1.5-2.3,2.6c0.7,1.3,2,2.3,3.2,3.2c0.8,0.6,1.7,1.3,2.4,2l0,0l-0.5,0.7l0,0c-1.4,0-2.8-0.3-4.2-0.6
				c-1.5-0.3-3-0.7-4.6-0.6c-0.8,0.7-0.4,1.6,0,2.5c0.1,0.2,0.2,0.4,0.3,0.6c0.5,1,0.9,2,1.3,3C33.7,42.2,34.4,43.9,35.3,45.5z
				 M47.4,42.5l-2.4,1l0-0.1c-0.2-0.4-0.3-0.8-0.5-1.1c-0.2-0.4-0.3-0.7-0.5-1.1c-0.7,0.3-1.4,0.6-2.1,0.9l0.9,2.1l-0.1,0
				c-1.7-0.2-3.5-0.4-5.7-0.7l0,0l-2.8-6.5l3.1,0.6l0.1,0.2c0.4,1,0.8,2,1.3,3c0.7-0.3,1.4-0.6,2.1-0.9l0,0
				c-0.2-0.3-0.4-0.9-0.5-1.2l0-0.1l0.1,0c1.4-0.1,2-1.3,2.5-2.5c0.1-0.1,0.1-0.3,0.2-0.4l0-0.1l0.1,0c0.1,0,0.3,0.1,0.4,0.1
				c1.2,0.4,2.5,0.9,3.6-0.1l0.1-0.1l0,0.1c0.1,0.2,0.2,0.4,0.3,0.7c0.1,0.2,0.2,0.4,0.2,0.6l0,0c0.7-0.3,1.4-0.6,2.1-0.9
				c-0.2-0.5-0.5-1-0.7-1.6c-0.2-0.5-0.4-1-0.7-1.5l0,0l0,0c0.5-0.8,1-1.6,1.5-2.3l0.2-0.3l0.1,0.1c0.8,2,1.8,4.2,2.7,6.3l0,0l0,0
				c-1.1,1.5-2.2,3.1-3.4,4.7l-0.1,0.1l-0.1-0.1c-0.1-0.3-0.3-0.6-0.4-1c-0.2-0.4-0.3-0.7-0.4-1l-2.1,0.9c0.2,0.4,0.3,0.7,0.5,1.1
				C47,41.7,47.2,42.1,47.4,42.5L47.4,42.5z M45.1,43.4l2.1-0.9c-0.2-0.4-0.3-0.7-0.5-1.1c-0.2-0.4-0.3-0.8-0.5-1.1l0-0.1l2.4-1
				l0,0.1c0.1,0.3,0.3,0.6,0.4,1c0.1,0.3,0.3,0.7,0.4,0.9c1.1-1.5,2.2-3.1,3.3-4.5c-0.9-2.1-1.8-4.2-2.6-6.2l0,0
				c-0.5,0.8-1,1.5-1.5,2.3c0.2,0.5,0.4,1,0.7,1.5c0.2,0.5,0.5,1.1,0.7,1.6l0,0.1l-0.1,0c-0.7,0.3-1.4,0.6-2.1,0.9l-0.2,0.1l0-0.1
				c-0.1-0.2-0.2-0.4-0.3-0.7c-0.1-0.2-0.2-0.4-0.2-0.6c-1.1,0.9-2.5,0.5-3.7,0c-0.1,0-0.2-0.1-0.3-0.1c-0.1,0.1-0.1,0.2-0.2,0.4
				c-0.5,1.2-1.1,2.5-2.6,2.6c0.2,0.3,0.4,0.9,0.5,1.2l0,0.1L40.7,40c-0.7,0.3-1.5,0.6-2.2,0.9l-0.1,0l0-0.1c-0.4-1-0.9-2-1.3-3
				l0-0.1l-2.8-0.5l2.7,6.2c2.1,0.3,3.9,0.5,5.5,0.7l-0.9-2l0.1,0c0.8-0.3,1.5-0.7,2.3-1l0.1,0l0,0.1c0.2,0.4,0.3,0.8,0.5,1.1
				C44.8,42.7,44.9,43,45.1,43.4z M41.4,31.8L41.4,31.8c-0.9-0.1-1.6-0.7-2.2-1.3c-0.3-0.3-0.6-0.5-0.9-0.8l-0.1-0.1l0.1-0.1
				c0.3-0.2,0.5-0.5,0.8-0.7c0.3-0.2,0.5-0.5,0.8-0.7l0,0l0,0c0.7,0,1.3-0.1,2-0.2l0.2,0l0,0.1c-0.1,0.4-0.1,0.8-0.1,1.2
				C41.9,30.1,41.9,31,41.4,31.8L41.4,31.8z M38.4,29.6c0.3,0.2,0.6,0.5,0.8,0.7c0.6,0.6,1.3,1.1,2.1,1.3c0.4-0.7,0.5-1.5,0.5-2.4
				c0-0.4,0-0.7,0.1-1.1c-0.7,0.1-1.3,0.1-2,0.1c-0.3,0.2-0.5,0.5-0.8,0.7C38.9,29.2,38.6,29.4,38.4,29.6z"/>
		</g>
	</g>
	<g>
		<path class="st0" d="M39.4,51.9c0.5-0.6,1.1-1.3,1.6-1.9c0.8,0.7,1.6,1.4,2.4,2.1c0.4-1.1,0.5-2.4,1.4-3.3
			c2.1,0.5,3.5,2.2,5.3,3.3c0.4-2,0.2-4.2,1.3-6c1.2-0.2,2.3,0.7,3.3,1.2c0.1-1.1,0.1-2.1,0.2-3.2c0.8,0,1.6,0.1,2.5,0.1
			c-0.1,2-0.1,4-0.5,5.9c-0.9,1.8-2.7-0.3-3.9-0.7c-0.2,1.9-0.3,3.8-0.9,5.6c-0.2,0.7-1.2,0.8-1.7,0.3c-1.5-0.9-2.8-2-4.3-3
			c-0.4,1.2-0.2,3-1.6,3.5C42.5,55,41.1,53.2,39.4,51.9z"/>
		<path class="st0" d="M51.6,55.6c0,0-0.1,0-0.1,0c-0.4,0.1-0.9,0-1.2-0.3c-1-0.6-2-1.3-3-2c-0.4-0.3-0.8-0.6-1.2-0.9
			c-0.1,0.3-0.2,0.7-0.2,1c-0.2,1-0.3,2-1.3,2.4c0,0,0,0-0.1,0l0,0l0,0c-1.4-0.6-2.6-1.7-3.7-2.7c-0.5-0.4-1-0.9-1.5-1.3l-0.1,0
			l0-0.1c0.5-0.6,1.1-1.3,1.6-1.9l0-0.1l2.4,2.1c0.1-0.3,0.2-0.5,0.2-0.8c0.2-0.9,0.5-1.7,1.1-2.4l0,0l0,0c1.4,0.3,2.5,1.2,3.6,2.1
			c0.5,0.4,1,0.8,1.6,1.1c0.1-0.6,0.2-1.3,0.3-2c0.1-1.4,0.3-2.8,1-3.9l0,0l0,0c0.9-0.2,1.7,0.3,2.4,0.7c0.3,0.2,0.6,0.3,0.8,0.4
			c0-1,0.1-2.1,0.2-3.1l0-0.1l0.1,0c0.8,0,1.6,0.1,2.5,0.1l0.1,0l0,0.1c0,0.6-0.1,1.3-0.1,1.9c0,1.3-0.1,2.7-0.4,4.1l0,0
			c-0.2,0.4-0.5,0.6-0.8,0.7C55.5,51,54.7,50.5,54,50c-0.3-0.2-0.7-0.4-0.9-0.6c-0.1,0.5-0.1,0.9-0.2,1.4c-0.1,1.4-0.3,2.8-0.7,4.1
			C52.1,55.2,51.9,55.4,51.6,55.6z M46.1,52.2L46.1,52.2c0.5,0.4,0.9,0.7,1.4,1c0.9,0.7,1.9,1.4,3,2c0.3,0.2,0.7,0.3,1,0.2
			c0.3-0.1,0.5-0.3,0.6-0.5c0.4-1.3,0.6-2.7,0.7-4.1c0-0.5,0.1-1,0.2-1.5l0-0.1l0.1,0c0.3,0.1,0.7,0.4,1.1,0.6
			c0.7,0.4,1.5,1,2.1,0.8c0.3-0.1,0.5-0.3,0.7-0.6c0.3-1.3,0.3-2.7,0.4-4c0-0.6,0-1.2,0.1-1.8c-0.8,0-1.6-0.1-2.3-0.1
			c-0.1,1.1-0.1,2.1-0.2,3.1l0,0.1l-0.1,0c-0.3-0.1-0.6-0.3-1-0.5c-0.7-0.4-1.5-0.8-2.3-0.7c-0.7,1.2-0.8,2.5-1,3.8
			c-0.1,0.7-0.1,1.4-0.3,2.1l0,0.1L50,52.2c-0.6-0.4-1.1-0.8-1.7-1.2c-1.1-0.8-2.2-1.7-3.5-2c-0.6,0.6-0.8,1.5-1.1,2.3
			c-0.1,0.3-0.2,0.6-0.3,0.9l0,0.1L41,50.1c-0.5,0.6-1,1.2-1.5,1.8c0.5,0.4,1,0.8,1.4,1.2c1.1,1,2.2,2,3.6,2.6c0,0,0,0,0,0
			c0.9-0.4,1.1-1.3,1.2-2.3C45.9,53.1,45.9,52.7,46.1,52.2L46.1,52.2z"/>
	</g>
</g>
<path class="st0" d="M144.5,51.6l0.8-0.1c0.2,0,1.2-0.2,3-0.3c0.9-0.1,1.6-0.2,2.1-0.5c0.8-0.5,1.2-1.4,1.3-2.4
	c0.1-0.5,0-1.4-0.5-2.3c-0.5-1-0.6-0.3-1-0.3c-0.4-0.1-0.2,0.3-1.8,0.7c-1,0.2-1.8,0.2-2.5,0.3c-0.2,0.1-0.8,0.2-1.1,0.3
	c0.1-0.6,0.3-1.8,0.4-2.3c0.3-1.1,0.3-1.5,0.3-1.6c0.1-0.9-0.2-1.5-0.3-1.8c-0.3-0.5-0.7-0.8-1.2-0.8c-1-0.2-1.8,0.5-2.3,1.6
	c-0.2,0.5-0.5,1.2-0.5,1.9c-0.2,0.6-0.2,2.2-0.4,3.3c-0.2,0-1.5,0.2-1.6,0.2c-2.1-0.1-4.1,0-6.3,0c-4.3,0.1-8.2-0.8-12.5-0.2
	c-0.7,0.1-1.2,0.6-1.5,1.3c-0.3,0.8-0.2,1.9,0.2,2.7c0.4,0.6,1.1,1,1.8,0.8c3.7-0.5,7.3-0.8,10.8-0.8c1.8-0.1,3.6-0.1,5.4,0
	c0.2,0,2.2,0.5,2.7,0.5c0.2,0,0.3,0.4,0.3,0.4c0,0.5-0.2,0.8,0.1,1.1c0,0.2,0,0.4-0.1,0.5c-0.2,1.5-0.2,2.7-0.2,3.7
	c0,0.2,0,0.5,0,0.8c-0.1,0.7-0.1,1.2-0.1,1.8c-0.1,1.2-0.1,2.4-0.1,3.4c0,1.1,0.1,1.9,0.2,2.4c0.1,0.5,0.2,0.9,0.5,1.2
	c0.3,0.5,0.7,0.7,1.1,0.8c0.5,0.1,1-0.1,1.5-0.5c0.9-0.6,1.1-1.6,1.2-2.1v-0.2V65c0-0.1,0-0.3-0.2-1.5c-0.1-0.5-0.1-1.4,0-3.1
	c0-0.2,0-0.5,0.1-0.8c0,0,0,0,0.1-0.1c0-0.3,0-0.6,0-1c0.1-0.6,0.1-1.2,0.2-1.9l0,0c0,0,0,0-0.1,0c0.1-0.8,0.2-1.6,0.2-2.5
	C144.3,53.4,144.4,52.4,144.5,51.6z"/>
<path class="st0" d="M185.6,42c-0.1-0.1-0.2-0.1-0.2-0.2h-0.1h-0.1c-0.1,0-0.2,0-0.3,0.1c-0.1,0.1-0.1,0.2-0.1,0.3
	c0,0.1,0.1,0.2,0.2,0.3c0.1,0.1,0.2,0.1,0.3,0.1c0.4,0,0.4-0.2,0.4-0.3s-0.1-0.1-0.1-0.2C185.7,42.1,185.7,42,185.6,42z"/>
<g>
	<path class="st0" d="M164.6,42.5c-0.3-0.2-0.7-0.3-1.2-0.3s-0.9,0-1.4,0.1c-0.4,0.1-0.9,0.2-1.4,0.4c-0.6,0.2-1.2,0.4-1.6,0.6
		c-0.6,0.3-1,0.5-1,0.9c0,0.2,0.1,0.3,0.2,0.4c0.1,0.1,0.3,0.2,0.4,0.2s0.3-0.1,0.6-0.2c0.2-0.2,0.4-0.2,0.5-0.3
		c0.2-0.1,0.4-0.2,0.6-0.2v0.1c0,0.3,0,0.6,0,0.9c0,0.3,0,0.7,0.1,1.2v0.5c0.1,0.9,0.1,1.6,0.1,2.2c0,0.1,0,0.3-0.1,0.5
		c-0.1,0.4-0.1,0.4-0.1,0.5c0,0.2,0.1,0.3,0.2,0.4c0.1,0.1,0.3,0.1,0.4,0.1c0.2,0,0.3,0,0.4-0.1c0,0.1,0.1,0.2,0.2,0.2
		c0.1,0.1,0.3,0.1,0.4,0.1c0.2,0,0.5-0.1,0.8-0.3c0.3-0.2,0.6-0.4,0.9-0.6c0.5-0.3,0.9-0.7,1.3-1c0.5-0.5,0.9-0.9,1.1-1.3l0,0
		c0.3-0.4,0.5-0.9,0.5-1.3c0-0.6-0.3-0.9-0.6-1c-0.3-0.2-0.7-0.3-1.1-0.3c0.4-0.6,0.6-1.1,0.6-1.6C165.2,43,165,42.7,164.6,42.5z
		 M161.3,44.6c0-0.3,0-0.6,0.1-1c0.2-0.1,0.5-0.1,0.9-0.2c0.8-0.1,1.4-0.2,1.6,0c0.1,0,0.1,0.1,0.1,0.1c0,0.4-0.2,0.8-0.6,1.3
		c-0.4,0.5-1,0.8-1.6,1.1c-0.1,0.1-0.3,0.1-0.4,0.1C161.3,45.4,161.3,45,161.3,44.6z M164.6,46.2c0.2,0,0.3,0,0.4,0.1l0,0l0,0
		c0,0.2-0.1,0.4-0.2,0.7c-0.2,0.3-0.4,0.5-0.7,0.9c-0.2,0.2-0.4,0.4-0.8,0.7c-0.3,0.3-0.6,0.4-0.9,0.6c-0.1,0.1-0.2,0.1-0.4,0.1l0,0
		c-0.2,0-0.3,0.1-0.4,0.1c-0.1,0-0.3,0.1-0.4,0.2c0-0.3,0-0.6,0-0.9c0-0.2,0-0.5,0-0.7s0-0.4,0-0.5v-0.2h0.1
		c0.2-0.1,0.4-0.1,0.6-0.2c0.2-0.1,0.4-0.2,0.7-0.3l0,0c0.1,0,0.2-0.1,0.4-0.2C163.6,46.2,164.1,46.2,164.6,46.2z"/>
	<path class="st0" d="M168.8,44.4c-0.3,0.2-0.6,0.6-0.8,1.1c0,0.1-0.1,0.1-0.1,0.2v-0.3c0-0.5,0-0.6,0-0.7c-0.1-0.3-0.3-0.4-0.6-0.4
		c-0.5,0-0.7,0.3-0.7,0.6c0,0.3,0,0.8,0,1.4c0,0.4,0,0.8,0,1.1s0,0.6,0,0.7c0,0.7,0,1.2,0.1,1.4c0.1,0.5,0.3,0.8,0.6,0.8
		s0.5-0.2,0.6-0.3c0.1-0.1,0.1-0.3,0.1-0.5V49c0-0.1,0-0.3,0-0.6c0-0.2,0-0.4,0-0.6c0.3-0.8,0.7-1.4,1-2c0.4-0.6,0.6-0.7,0.6-0.7
		s0,0,0.1,0l0.1,0.1c0.1,0.1,0.1,0.2,0.2,0.2c0.1,0.1,0.3,0.2,0.4,0.2c0.2,0,0.3-0.1,0.5-0.2c0.2-0.2,0.3-0.3,0.3-0.5
		c0-0.2-0.1-0.4-0.2-0.5c-0.1-0.2-0.3-0.3-0.5-0.4s-0.4-0.2-0.6-0.2C169.5,43.9,169.2,44.1,168.8,44.4z"/>
	<path class="st0" d="M176,44.5c-0.1-0.2-0.3-0.3-0.4-0.4c-0.2-0.1-0.4-0.2-0.6-0.2c-0.2,0-0.4,0.1-0.6,0.2s-0.4,0.3-0.7,0.5
		c-0.4,0.4-0.9,0.8-1.3,1.4c-0.4,0.6-0.8,1.1-1.1,1.6c-0.3,0.6-0.5,1-0.5,1.4c0,0.3,0.1,0.6,0.3,0.8c0.1,0.2,0.4,0.3,0.8,0.3
		c0.6,0,1.1-0.2,1.6-0.6c0.5-0.4,0.9-0.8,1.2-1.3c0.1-0.2,0.3-0.4,0.5-0.7c0,0.8,0,1.3,0,1.4c0,0.3,0,0.5,0.1,0.7
		c0.2,0.4,0.5,0.4,0.6,0.4c0.2,0,0.4-0.1,0.5-0.3c0.1-0.2,0.2-0.3,0.2-0.5c0-0.1-0.1-0.3-0.2-0.4l0,0l0,0c0-0.1,0-0.3,0-0.5
		c0-0.2,0-0.5,0-0.7v-0.9c0-0.4,0-0.6,0-0.8c0-0.3-0.1-0.4-0.2-0.5c0-0.1,0-0.3,0-0.4C176.2,45,176.1,44.7,176,44.5z M174.9,46
		c-0.4,0.6-0.7,1.1-1,1.4c-0.3,0.4-0.6,0.7-1,1l0,0c-0.3,0.3-0.6,0.4-1,0.4c0-0.1,0.1-0.4,0.3-1c0.2-0.5,0.5-0.9,0.9-1.4
		c0.4-0.5,0.7-0.8,1-1.1c0.3-0.3,0.5-0.3,0.5-0.3c0.1,0,0.1,0,0.1,0c0,0.1,0.1,0.1,0.1,0.2C175.1,45.7,175,45.9,174.9,46z"/>
	<path class="st0" d="M180.1,49.9c0,0.2,0.1,0.3,0.2,0.4c0.1,0.1,0.2,0.1,0.4,0.1s0.4-0.1,0.5-0.2l0,0c0.2-0.1,0.2-0.3,0.2-0.5
		c0-1.3,0-2.3,0-3c0-0.6-0.1-1.2-0.2-1.5c-0.2-0.8-0.6-0.9-0.8-0.9c-0.5,0-0.9,0.4-1.4,1.3c-0.2,0.5-0.5,1-0.8,1.6v-0.6
		c0-0.8-0.1-1.4-0.1-1.7c0-0.3-0.1-0.9-0.5-0.9c-0.2,0-0.4,0.1-0.5,0.2c-0.2,0.1-0.3,0.3-0.3,0.6c0,0.1,0,0.2,0,0.3
		c0.1,0.5,0.1,1,0.2,1.6l0.2,1.5l0.1,0.9c0,0.3,0.1,0.4,0.2,0.4c0.1,0,0.1,0,0.2,0.1v0.3l0.1-0.3c0.1,0,0.3,0,0.4-0.1
		c0.1-0.1,0.2-0.2,0.3-0.4l0.2-0.5c0.4-1,0.7-1.8,1-2.4c0.2-0.3,0.3-0.5,0.4-0.6c0,0.3,0,0.6,0,1.1c0,0.5,0,1-0.1,1.6
		C180.1,49.1,180.1,49.5,180.1,49.9z"/>
	<path class="st0" d="M183.9,44.5c-0.5,0.5-1,1.2-1.4,1.8c-0.4,0.8-0.7,1.4-0.7,2c0,0.5,0.1,1,0.3,1.3c0.3,0.4,0.7,0.5,0.9,0.5
		c0.7,0,1.3-0.5,1.8-1.4c0.3-0.4,0.5-0.9,0.7-1.4v0.5c0,0.5,0,0.9,0,1.3c0,0.2,0,0.3,0.1,0.4c0.1,0.2,0.3,0.3,0.5,0.3
		c0.1,0,0.3,0,0.4-0.2c0.3-0.2,0.3-0.4,0.3-0.5c0,0,0-0.1-0.1-0.4v-0.1v-0.1l0,0c0-0.3-0.1-0.9-0.1-1.7c0-0.9-0.1-1.7-0.1-2.5
		c0-0.4,0-0.9,0-1.3c0-0.5,0-0.7,0-0.9v-0.6l0,0c0-0.2-0.1-0.4-0.3-0.5c-0.1-0.1-0.3-0.1-0.4-0.1c-0.2,0-0.4,0.1-0.4,0.2
		c0,0.1-0.1,0.2-0.1,0.3c0,0.2-0.1,0.6-0.1,1.1c0,0,0,0.2,0,1.3c-0.1,0-0.2,0-0.3,0C185,43.7,184.6,43.9,183.9,44.5z M184.4,47.6
		c-0.3,0.6-0.7,1.2-1.2,1.2c0,0,0,0-0.1,0c-0.1-0.1-0.1-0.2-0.1-0.4c0-0.5,0.2-1,0.5-1.4c0.3-0.6,0.7-1.1,1.1-1.4
		c0.1-0.1,0.2-0.2,0.3-0.3c0,0.1,0.1,0.1,0.2,0.2c0.1,0.1,0.3,0.1,0.4,0C185.1,46.2,184.8,47,184.4,47.6z"/>
	<path class="st0" d="M188.7,44.4c-0.1-0.3-0.3-0.5-0.7-0.5c-0.3,0-0.4,0.1-0.4,0.2c-0.1,0.1-0.1,0.2-0.1,0.4c0,0.3,0,0.8,0,1.4
		c0,0.6,0,1.2,0.1,1.7c0.1,1,0.1,1.5,0.2,1.8c0,0.2,0.1,0.8,0.5,0.8c0,0,0,0,0.1,0c0.1,0,0.3,0,0.4-0.1l0,0c0.2-0.1,0.3-0.3,0.3-0.5
		c0-0.1,0-0.2-0.1-0.7s-0.1-0.7-0.1-0.7l0,0c0-0.5-0.1-1.1-0.1-1.7v-1.4C188.8,44.7,188.7,44.5,188.7,44.4z"/>
	<path class="st0" d="M191.4,49.2l0.2-0.5c0.4-1,0.7-1.8,1-2.4c0.2-0.3,0.3-0.5,0.4-0.6c0,0.3,0,0.6,0,1.1s0,1-0.1,1.6
		c0,0.7-0.1,1.2-0.1,1.4c0,0.2,0.1,0.3,0.2,0.4c0.1,0.1,0.2,0.1,0.4,0.1c0.2,0,0.4-0.1,0.5-0.2l0,0c0.2-0.1,0.2-0.3,0.2-0.5
		c0-1.3,0-2.3,0-3c0-0.6-0.1-1.2-0.2-1.5c-0.2-0.8-0.6-0.9-0.8-0.9c-0.5,0-0.9,0.4-1.4,1.3c-0.2,0.5-0.5,1-0.8,1.6v-0.6
		c0-0.8-0.1-1.4-0.1-1.7c0-0.3-0.1-0.9-0.5-0.9c-0.2,0-0.4,0.1-0.5,0.2c-0.2,0.1-0.3,0.3-0.3,0.6c0,0.1,0,0.2,0,0.3
		c0.1,0.5,0.1,1,0.2,1.6l0.2,1.5l0.1,0.9c0,0.3,0.1,0.4,0.2,0.4c0.1,0,0.1,0,0.2,0.1v0.3l0.1-0.3c0.1,0,0.3,0,0.4-0.1
		C191.3,49.5,191.4,49.4,191.4,49.2z"/>
	<path class="st0" d="M199.7,45c0-0.1,0-0.1,0-0.2s0-0.3-0.3-0.4c-0.1-0.1-0.2-0.1-0.4-0.1l0,0l0,0c-0.1,0-0.2,0-0.3,0.1
		c0-0.1-0.1-0.1-0.1-0.1c-0.2-0.2-0.4-0.3-0.6-0.3c-0.6,0-1.1,0.3-1.6,0.9c-0.5,0.5-0.9,1.2-1.3,1.8c-0.3,0.7-0.5,1.4-0.5,1.9
		c0,0.4,0.1,0.7,0.2,0.9c0.2,0.3,0.5,0.4,0.8,0.4s0.7-0.1,1-0.4c0.3-0.2,0.6-0.6,1-1c0.4-0.5,0.7-1,1-1.4c0.1-0.1,0.1-0.2,0.2-0.3
		c0,0.1,0.1,0.3,0.1,0.4c0.1,0.5,0.2,1,0.3,1.4c0.1,0.4,0.1,0.8,0.1,1.2c0,0.4-0.1,0.7-0.2,1.1c-0.1,0.3-0.4,0.6-0.7,0.9
		c-0.4,0.4-0.8,0.6-1.3,0.8c-0.4,0.1-0.7,0.3-0.7,0.6c0,0.2,0.1,0.3,0.2,0.5s0.3,0.2,0.6,0.2s0.7-0.1,1.1-0.3
		c0.4-0.2,0.7-0.5,1.1-0.8c0.3-0.3,0.7-0.8,0.9-1.3l0,0c0.3-0.5,0.4-1.1,0.4-1.7c0-0.4,0-0.9-0.1-1.3c-0.1-0.4-0.2-1-0.3-1.5
		C199.8,46,199.8,45.4,199.7,45L199.7,45z M198,46.1c-0.3,0.5-0.5,1-0.8,1.4c-0.3,0.4-0.6,0.8-0.9,1c-0.2,0.2-0.4,0.2-0.4,0.2
		s0-0.1,0-0.2c0-0.3,0.1-0.8,0.4-1.3c0.2-0.5,0.6-1,0.9-1.4c0.3-0.3,0.6-0.5,0.9-0.5c0,0,0,0,0,0.1c0.1,0.1,0.2,0.2,0.3,0.2
		C198.2,45.7,198.1,45.9,198,46.1z"/>
</g>
<g>
	<path class="st0" d="M189.5,55.3c0.4,0.3,0.8,0.4,1.2,0.4c1.3,0,1.4-0.8,1.4-1c0-0.3-0.2-0.5-0.4-0.8c-0.2-0.2-0.3-0.4-0.4-0.5
		c-0.2-0.2-0.5-0.4-0.8-0.5h-0.1h-0.2c-0.2,0-0.6,0.1-0.9,0.4c-0.4,0.3-0.4,0.7-0.4,1C188.8,54.6,189.2,55,189.5,55.3z"/>
	<g>
		<path class="st0" d="M154.5,66c-0.5,0.3-1.1,0.4-1.7,0.4c-0.4,0-0.8,0-1.1-0.1c-0.1,0-0.2,0-0.3-0.1c0-0.3-0.3-0.8-1-0.8
			c-0.5,0-0.8,0.4-1.1,0.8c-0.3,0.5-0.4,0.8-0.4,1.1c0,0.4,0.2,1,1.3,1.3c0.6,0.2,1.3,0.2,2.4,0.2c1.1,0,2.3-0.2,3.2-0.7
			s1.7-1.1,2.3-1.8c0.5-0.8,0.8-1.6,0.8-2.5c0-1-0.5-1.9-1.4-2.7c-0.8-0.6-1.9-1.1-3.6-1.6c-1-0.3-1.8-0.6-2.4-0.8
			c-0.5-0.2-0.8-0.4-1.1-0.6c-0.2-0.2-0.2-0.4-0.2-0.5c0-0.1,0.1-0.4,0.8-1c0.7-0.5,1.5-0.9,2.5-1.2c0.9-0.3,1.7-0.5,2.4-0.5
			c0.2,0,0.3,0,0.3,0c0.1,0,0.1,0,0.2,0.1c0,0,0.1,0,0.1,0.1c0.2,0.1,0.4,0.2,0.6,0.2c0.5,0,1-0.3,1-1c0-0.3,0-0.6-0.1-0.9
			c-0.1-0.4-0.4-0.9-1.6-0.9c-1.1,0-2.5,0.2-3.8,0.7c-1.3,0.5-2.5,1.1-3.4,1.9c-1,0.9-1.5,1.8-1.5,2.9c0,0.8,0.3,1.4,0.8,1.9
			c0.5,0.4,1.1,0.8,1.8,1.1c0.7,0.3,1.6,0.6,2.9,1l0,0c1.1,0.3,2,0.7,2.6,1.1c0.5,0.4,0.5,0.7,0.5,0.9c0,0.3-0.1,0.6-0.4,0.9
			C155.3,65.4,154.9,65.8,154.5,66z"/>
		<path class="st0" d="M167.6,60.6c0.6-0.1,1-0.2,1.3-0.4l0,0c0.4-0.3,0.6-0.7,0.6-1.2c0-0.3-0.1-0.6-0.4-1c-0.3-0.3-0.6-0.5-1-0.5
			c-0.2,0-0.6,0.1-0.9,0.6c-1.1,0.2-1.9,0.4-2.6,0.5c0-0.5,0-0.9,0-1.3c0-0.6,0-1.1,0.1-1.4c0.1-0.6,0.1-0.7,0.1-0.8
			c0-0.3-0.1-0.6-0.3-0.7c-0.2-0.2-0.4-0.3-0.8-0.3c-0.6,0-1.1,0.3-1.3,0.9c-0.1,0.3-0.2,0.6-0.2,1c0,0.3-0.1,0.7-0.1,1.3
			c0,0.3,0,0.8,0,1.5c0,0.2,0,0.3,0,0.4c-0.3,0.1-0.7,0.1-1.2,0.2l0,0c-0.1,0-0.2,0-0.7,0.1c-0.4,0.1-0.7,0.1-0.7,0.1
			c-0.4,0-0.7,0-0.9,0.1c-0.4,0.2-0.6,0.6-0.6,1c0,0.4,0.2,0.8,0.5,1c0.3,0.2,0.6,0.3,0.9,0.3c0.1,0,0.4,0,1.4-0.2
			c0.5-0.1,1-0.2,1.4-0.3c0,0.4,0,0.8,0,1.3c0,0.7,0.1,1.4,0.1,2s0.1,1.2,0.2,1.8c0.1,0.6,0.2,1,0.3,1.2c0.1,0.2,0.2,0.4,0.3,0.5
			c0.2,0.2,0.4,0.3,0.7,0.3s0.6-0.1,0.9-0.3c0.5-0.3,0.6-0.8,0.6-1v-0.1v-0.1c0-0.1,0-0.2-0.2-0.8c-0.1-0.4-0.2-0.9-0.2-1.6
			c0-0.6-0.1-1.2-0.1-2c0-0.5,0-1,0-1.5l0.7-0.1C165.6,61,166.3,60.8,167.6,60.6z"/>
		<path class="st0" d="M171.1,68.5c0.7,0,1.4-0.5,2.3-1.5c0.7-0.9,1.4-1.9,2.2-3.2c0.1-0.2,0.2-0.3,0.3-0.5c0,1,0.1,1.7,0.1,2.2
			c0.1,0.7,0.2,1.3,0.5,2c0.3,0.9,0.8,1.3,1.4,1.3c0.5,0,0.8-0.2,1-0.4l0,0c0.2-0.2,0.4-0.5,0.4-1c0-0.3-0.2-0.5-0.4-0.8
			c-0.1-0.1-0.2-0.2-0.3-0.6c-0.1-0.1-0.2-0.4-0.2-1c-0.1-0.6-0.1-1.7-0.2-3.3c0-1.5-0.1-2.8-0.1-3.4c0-0.3-0.1-0.7-0.6-1
			c-0.2-0.1-0.3-0.2-0.5-0.2v-0.2l-0.1,0.2c-0.1,0-0.2-0.1-0.4-0.1c-0.1,0-0.6,0-0.8,0.6c-0.1,0.1-0.1,0.3-0.2,0.6
			c-0.2,0.6-0.3,1-0.3,1.1c-0.3,0.8-0.7,1.7-1.3,2.8c-0.6,1-1.1,1.9-1.7,2.8c-0.2,0.3-0.4,0.5-0.5,0.6c0-0.1,0-0.3,0-0.6
			c0-1.5,0.1-2.8,0.4-3.7c0.3-0.9,0.6-1.6,0.9-2.4c0.2-0.4,0.3-0.6,0.3-0.8c0-0.2-0.1-0.9-1.2-0.9c-0.3,0-0.6,0.1-0.9,0.4
			c-0.1,0.2-0.3,0.4-0.5,0.8c-0.4,0.7-0.7,1.7-0.9,3c-0.3,1.3-0.4,2.5-0.4,3.5c0,1.1,0.1,1.9,0.2,2.6
			C169.6,68,170.3,68.5,171.1,68.5z"/>
		<path class="st0" d="M186,66.6c0,0.3,0,0.6,0.1,0.8c0.2,0.4,0.5,0.6,1,0.6c0.3,0,0.5-0.1,0.8-0.3c0.5-0.3,0.6-0.7,0.6-1
			c0-0.1,0-0.3-0.1-0.8l0,0c0-0.1,0-0.2,0-0.2c0-0.1,0-0.1,0-0.2v-0.1c0-0.5-0.1-1.5-0.2-3.2c-0.1-1.6-0.1-3.2-0.1-4.8
			c0-0.8,0-1.6,0-2.4c0-0.8,0-1.3,0-1.6v-1l0,0c0-0.4-0.2-0.8-0.5-1s-0.5-0.3-0.8-0.3c-0.5,0-0.7,0.3-0.8,0.4
			c-0.1,0.1-0.1,0.3-0.2,0.5c-0.1,0.4-0.1,1-0.1,1.9c0,0,0,0.1,0.1,2.3c-0.1,0-0.2,0-0.3,0c-0.7,0-1.5,0.5-2.7,1.6
			c-1,0.9-1.8,2.2-2.7,3.5c-0.8,1.4-1.2,2.7-1.2,3.9c0,1,0.2,1.7,0.6,2.4c0.6,0.8,1.3,0.9,1.8,0.9c1.3,0,2.5-0.9,3.6-2.6
			c0.3-0.6,0.7-1.2,1-1.9v0.2C186,65.1,186,65.9,186,66.6z M183.8,63.7c-0.5,0.9-1.2,2.2-2.2,2.2c-0.1-0.2-0.1-0.4-0.1-0.6
			c0-0.8,0.3-1.7,0.8-2.7c0.5-1,1.2-1.9,1.9-2.7c0.1-0.1,0.2-0.2,0.3-0.3c0.1,0.1,0.1,0.2,0.2,0.2c0.2,0.1,0.3,0.1,0.5,0.1
			C184.9,61.3,184.3,62.5,183.8,63.7z"/>
		<path class="st0" d="M189.7,60.4c0,1.1,0.1,2.2,0.1,3.3c0.1,1.7,0.2,2.9,0.3,3.5c0.1,0.4,0.2,1.5,1.1,1.5h0.1
			c0.3,0,0.5-0.1,0.7-0.2l0,0c0.3-0.2,0.5-0.6,0.5-0.9c0-0.2,0-0.4-0.2-1.2c-0.1-0.9-0.2-1.1-0.2-1.2l0,0c-0.1-0.8-0.1-1.9-0.1-3.3
			v-2.5c0-1.1-0.1-1.5-0.2-1.7c-0.2-0.6-0.7-0.9-1.3-0.9c-0.5,0-0.8,0.3-0.9,0.5c-0.1,0.2-0.2,0.4-0.2,0.7l0,0
			C189.6,58.5,189.6,59.4,189.7,60.4z"/>
		<path class="st0" d="M198.6,58.6c0-0.4-0.2-0.7-0.5-0.9c-0.2-0.1-0.5-0.2-0.7-0.2c-0.4,0-0.8,0.1-1.2,0.4c-0.3,0.2-0.6,0.6-0.9,1
			c-0.3,0.4-0.3,0.6-0.3,0.6c-0.5,0.8-0.8,1.7-1.1,2.8c-0.3,1-0.4,1.9-0.4,2.7c0,0.9,0.3,1.7,0.8,2.4c0.6,0.7,1.4,1,2.7,1
			c1.1,0,2-0.3,3-0.9c0.8-0.6,1.4-1.2,1.9-2l0,0c0.5-0.8,0.7-1.5,0.7-2.3c0-0.8-0.2-1.5-0.7-2.2c-0.4-0.5-0.9-1-1.5-1.5l0,0v-0.1
			c0-0.4-0.2-0.7-0.6-0.8c-0.1-0.1-0.3-0.1-0.6-0.1C198.8,58.6,198.7,58.6,198.6,58.6L198.6,58.6z M199.6,62.6
			c0.2,0.2,0.3,0.4,0.3,0.7c0,0.3-0.1,0.6-0.4,1c-0.3,0.4-0.6,0.8-1,1.1c-0.4,0.3-0.8,0.4-1.3,0.4c-1.2,0-1.2-0.5-1.2-0.8
			c0-0.7,0.1-1.4,0.3-2c0.2-0.6,0.5-1.3,0.8-1.9l0,0c0.1-0.1,0.1-0.3,0.2-0.4c0.1,0.1,0.2,0.2,0.2,0.3c0.2,0.2,0.5,0.4,0.9,0.7
			C198.9,62,199.3,62.3,199.6,62.6z"/>
		<path class="st0" d="M201.7,76.3c-4.5-1.1-9-2-13.5-2.8s-9-1.1-13.6-1.3c-4.6-0.2-9.1-0.2-13.7,0.1c-4.5,0.2-9.1,0.7-13.6,1.4
			c-4.5,0.7-9,1.7-13.5,2.9c-0.5,0.1-1.1,0.3-1.6,0.4c-0.4,0.1-0.2,1.2,0.2,1.1c8.9-2.5,17.9-4.1,27-4.7c9-0.6,18.1-0.3,27.1,0.9
			c5.1,0.7,10.1,1.7,15.2,3C202,77.6,202.1,76.4,201.7,76.3z"/>
	</g>
</g>
<path class="st0" d="M108.2,37.6c0.8,0.9,1.9,1.4,3.4,1.4c1.5,0,2.7-0.4,3.8-1.1c1.1-0.8,1.9-1.6,2.5-2.7l0,0
	c0.6-1.1,0.9-2.1,0.9-2.9c0-1.1-0.3-2-0.9-2.8c-0.5-0.6-1.1-1.3-1.8-1.9v-0.1c0-0.5-0.3-1-0.8-1.2c-0.2-0.1-0.5-0.1-0.8-0.1
	c-0.2,0-0.2,0-0.4,0c0-0.5-0.3-0.9-0.8-1.1c-0.3-0.2-0.6-0.3-1-0.3c-0.6,0-1.1,0.2-1.7,0.6c-0.5,0.3-0.8,0.8-1.1,1.4
	c-0.3,0.5-0.4,0.8-0.5,0.8c-0.6,1.1-1.1,2.3-1.4,3.6c-0.3,1.4-0.5,2.4-0.5,3.4C107.1,35.7,107.5,36.8,108.2,37.6z M111.1,32
	c0.2-0.8,0.6-1.6,1.1-2.4c0.1-0.1,0.1-0.2,0.2-0.3c0.1,0.1,0.2,0.2,0.2,0.2c0.2,0.2,0.6,0.5,1.1,0.9c0.6,0.5,1.1,0.9,1.5,1.3
	c0.2,0.2,0.3,0.5,0.3,0.8s-0.2,0.8-0.5,1.2c-0.3,0.5-0.8,1-1.3,1.3c-0.5,0.3-1,0.5-1.5,0.5c-1.4,0-1.4-0.5-1.4-0.9
	C110.7,33.6,110.8,32.8,111.1,32z"/>
<path class="st0" d="M119.2,30.8l0.4,3.7l0.2,2.1c0.1,0.8,0.5,1.1,0.8,1.2c0.1,0.1,0.2,0.1,0.3,0.2h0.9c0.3-0.1,0.5-0.2,0.8-0.3
	c0.4-0.2,0.6-0.5,0.8-1l0.4-1.1c0.9-2.4,1.7-4.3,2.4-5.7c0.1-0.2,0.2-0.5,0.3-0.6c0,0.5,0,0.9,0,1.5c0,1.1-0.1,2.4-0.2,4
	c-0.1,1.5-0.2,2.7-0.2,3.4c0,0.5,0.2,1,0.7,1.3c0.3,0.2,0.7,0.3,1.1,0.3c0.5,0,1-0.2,1.4-0.5l0,0c0.5-0.4,0.7-0.8,0.7-1.4
	c0-3.1,0-5.4-0.1-7c-0.1-1.5-0.2-2.7-0.4-3.7c-0.5-2-1.6-2.3-2.2-2.3c-1.7,0-2.7,1.8-3.4,3.1c-0.4,0.8-0.8,1.6-1.2,2.5
	c-0.1-1.9-0.2-3.2-0.2-4c-0.1-0.8-0.2-2.3-1.5-2.3c-0.5,0-1,0.2-1.5,0.5c-0.5,0.4-0.8,0.9-0.8,1.5c0,0.2,0,0.5,0.1,0.8
	C119,28.1,119.1,29.4,119.2,30.8z"/>
<path class="st0" d="M133.2,39.1c1.5,0,2.7-0.5,4-1.5c1.1-0.9,2.1-1.9,2.8-3c0.2-0.2,0.3-0.4,0.4-0.6c0,1.1-0.1,1.8-0.1,2.1
	c0,0.6,0.1,1.2,0.3,1.8c0.5,1.1,1.4,1.2,1.7,1.2c0.4,0,1-0.2,1.5-0.9c0.3-0.5,0.5-0.9,0.5-1.3s-0.2-0.7-0.4-1c0-0.3,0-0.6-0.1-1
	c0-0.5,0-1.1-0.1-1.7l-0.1-2.1c0-0.8-0.1-1.5-0.1-1.8c-0.1-0.6-0.2-1-0.4-1.2c0.1-0.2,0.1-0.5,0.1-0.8c0-0.6-0.2-1.2-0.5-1.7
	c-0.3-0.5-0.7-0.8-1.1-1.1c-0.9-0.5-1.8-0.5-3,0c-0.5,0.2-1.1,0.6-1.8,1.2c-1.1,0.8-2.1,2-3.1,3.3c-1,1.3-1.8,2.6-2.5,3.9
	c-0.7,1.4-1.1,2.5-1.1,3.4s0.2,1.5,0.8,2.1C131.4,38.6,132.1,39.1,133.2,39.1z M134.7,33.7c0.5-1,1.2-2.1,2.1-3.1
	c0.8-1.1,1.6-1.9,2.4-2.5c0.6-0.5,0.9-0.6,1-0.6c0.1,0.1,0.1,0.2,0.1,0.2c0,0.5-0.1,0.8-0.2,1.2c-0.8,1.4-1.5,2.5-2.2,3.4
	c-0.6,0.9-1.4,1.7-2.1,2.3c-0.5,0.5-1.1,0.7-1.6,0.8C134,35,134.3,34.5,134.7,33.7z"/>
<path class="st0" d="M145.9,34.4c0.8,1.6,1.7,2.4,2.8,2.4c0.8,0,1.6-0.3,2.3-0.9c-0.2,1.5-0.2,2.6-0.2,3.5c0,1.4,0.1,2.4,0.2,3.1
	c0.2,1.2,0.8,1.8,1.6,1.8c0.5,0,0.9-0.1,1.3-0.3c0.9-0.4,1.1-1.1,1.1-1.5c0-0.3-0.1-0.5-0.3-1c-0.1-0.2-0.2-0.4-0.3-0.8
	c-0.1-0.2-0.2-0.7-0.2-1.5s0.1-1.9,0.2-3c0.1-1.1,0.2-2.7,0.5-4.9c0-0.1,0.1-0.5,0.3-2.5c0.3-1.9,0.3-2.5,0.3-2.7
	c0-0.5-0.2-0.9-0.5-1.3c-0.5-0.5-1-0.7-1.4-0.7c-0.7,0-1.2,0.4-1.5,0.9c-0.2,0.3-0.2,0.7-0.2,1.2l-0.2,2.5c-0.2,0.4-0.3,0.8-0.5,1.3
	c-0.2,0.5-0.5,1-0.7,1.3c-0.5,0.7-0.8,1.2-1.1,1.5c-0.2,0.2-0.2,0.2-0.4,0.2c-0.2-0.2-1-1.1-1.8-6.3c-0.3-1.8-1.4-2.1-1.8-2.1
	c-0.5,0-1.5,0.4-1.5,1.8c0,0.8,0.2,1.9,0.5,3.5C144.9,31.7,145.3,33.1,145.9,34.4z"/>
<path class="st0" d="M156.3,31.9c0,0.7,0,1.3,0.1,1.7c0,1.6,0.1,2.7,0.2,3.6c0.2,1.8,1.1,2.2,1.7,2.2c0.7,0,1.2-0.3,1.5-0.8
	c0.2-0.4,0.3-0.8,0.3-1.2l-0.1-1.1c0-0.3-0.1-0.8-0.1-1.4c0-0.5-0.1-0.9-0.1-1.2c0.8-1.8,1.5-3.4,2.4-4.7c0.6-1,1-1.3,1.1-1.5
	c0.1,0,0.1,0.1,0.2,0.2c0.2,0.2,0.4,0.5,0.5,0.6c0.4,0.4,0.8,0.5,1.1,0.5c0.5,0,0.9-0.2,1.3-0.6c0.5-0.5,0.7-0.9,0.7-1.4
	c0-0.5-0.2-1-0.5-1.5c-0.3-0.4-0.8-0.8-1.2-1c-0.5-0.2-1.1-0.4-1.6-0.4c-0.8,0-1.5,0.4-2.3,1.1c-0.5,0.5-1.1,1.1-1.6,1.9
	c0-0.7-0.1-1.1-0.2-1.2c-0.2-0.8-0.8-1.2-1.6-1.2c-1.3,0-1.8,0.8-1.8,1.8c0,0.7,0,1.8,0.1,3.3C156.3,30.3,156.3,31.2,156.3,31.9z"/>
<path class="st0" d="M168.1,37.6c1,0.9,2.1,1.4,3.6,1.4c1.7,0,3.1-0.5,4.2-1.7c1.1-1,1.8-2.1,2.4-3.4c0.7-1.6,0.8-2.1,0.8-2.5
	c0-1.1-0.7-1.5-1.3-1.5c-0.4,0-0.9,0.2-1.3,1c-0.1,0.2-0.2,0.3-0.2,0.4c-0.5,1.1-1.1,2.1-1.9,3c-0.6,0.7-1.5,1.1-2.4,1.1
	c-0.8,0-1.1-0.2-1.2-0.5c-0.3-0.4-0.5-0.9-0.5-1.6c0-0.5,0.1-0.9,0.2-1.4c1-0.2,2-0.5,2.9-0.8c1.2-0.5,2.2-1.1,3-1.7
	c1-0.8,1.5-1.7,1.5-2.7c0-0.9-0.5-1.7-1.1-2.2c-0.6-0.4-1.4-0.6-2.2-0.6c-1.4,0-2.7,0.5-3.9,1.5c-1.1,0.9-2.1,2.2-2.7,3.7
	c-0.7,1.5-1.1,3-1.1,4.5C166.6,35.4,167.1,36.7,168.1,37.6z M172.1,27c0.2-0.2,0.5-0.4,0.7-0.5c0.1-0.1,0.2-0.2,0.3-0.2l0,0l0.1-0.1
	c0.4-0.4,1.1-0.4,1.5,0c0.1,0.1,0.2,0.2,0.2,0.3l1.1-0.6l-1.1,0.6c0.2,0.4,0.1,0.8-0.2,1.1c-0.2,0.2-0.5,0.4-0.7,0.5
	c-0.1,0.1-0.2,0.2-0.3,0.2l0,0l-0.1,0.1c-0.4,0.4-1.3,1.1-1.8,0.8C171.4,28.8,171.7,27.3,172.1,27z"/>
<path class="st0" d="M114.1,58.8c0-1.1-0.6-1.8-0.9-2c-0.4-0.4-0.8-0.7-1.1-0.8l0.2-3.9c0-0.2,0.1-0.9,0.3-3.7
	c0.2-2.4,0.2-3.1,0.2-3.4c0-2.4-1.5-3.1-2.3-3.1c-0.6,0-1.2,0.2-1.7,0.7c-0.6,0.5-0.9,1.4-0.9,2.2c0,0.4-0.1,1.5-0.3,4.7l-0.2,2.1
	c-0.1,0.5-0.1,1.5-0.2,2.6c-0.1,1-0.2,1.8-0.2,2.4c-1.2,0.2-2.2,0.3-3.1,0.4l0.1-1.5v-0.1c0-0.1,0-0.5,0.2-3.2
	c0.1-1.7,0.2-2.3,0.2-2.5c0-0.5-0.1-1.1-0.2-1.5c-0.3-1.5-1.4-2.1-2.1-2.1c-0.7,0-1.3,0.2-1.8,0.8c-0.6,0.6-0.9,1.4-0.9,2.3v1.1
	c0,1.6,0.1,3.5,0.1,5.5c0,0.4,0,0.9,0,1.5c-0.1,0-0.1,0-0.2,0h-1.3c-0.3,0-1.2,0-2,0.8c-0.3,0.4-0.7,1-0.7,2.1c0,1,0.4,1.9,1.1,2.4
	c0.5,0.5,1.1,0.6,1.8,0.6c0.2,0,0.5,0,0.8,0c-0.1,0.8-0.1,1.6-0.2,2.4v0.1c0,0.2-0.1,0.5-0.1,1v0.2c0,0.2,0,0.5-0.1,0.9
	c0,0.5-0.1,0.8-0.1,1c0,0.6,0.2,1.2,0.4,1.8c0.4,1,1.2,1.5,2.1,1.5c0.5,0,1-0.2,1.5-0.6c1-0.8,1.1-1.8,1.1-2.3c0-0.2,0-0.5-0.1-0.9
	c0-0.1,0-0.2,0-0.2c0-0.2,0-0.8,0.2-3c0.1-0.9,0.1-1.7,0.2-2.4c0.3,0,0.6-0.1,1-0.1l1.9-0.2c0,0.2,0,0.2,0,0.4
	c-0.1,1.1-0.2,1.9-0.2,2.4l0,0c-0.2,0.4-0.5,0.9-0.5,1.5c0,0.5,0.2,1.2,0.4,1.9c0.6,1.8,1.7,2,2.2,2c0.4,0,2.4-0.2,2.7-3.4l0-5.4
	c0,0,0,0,0-0.1c0.2-0.1,0.4-0.1,0.6-0.2C113.7,61,114.1,59.8,114.1,58.8z"/>
<path class="st0" d="M126.9,63.8c0-0.5,0-1.1-0.1-1.7l-0.1-2.1c0-0.8-0.1-1.5-0.1-1.8c-0.1-0.6-0.2-1-0.4-1.2
	c0.1-0.2,0.1-0.5,0.1-0.8c0-0.6-0.2-1.2-0.5-1.7c-0.3-0.5-0.7-0.8-1.1-1.1c-0.9-0.5-1.8-0.5-3,0c-0.5,0.2-1.1,0.6-1.8,1.2
	c-1.1,0.8-2.1,2-3.1,3.3c-1,1.3-1.8,2.6-2.5,3.9c-0.7,1.4-1.1,2.5-1.1,3.4c0,0.8,0.2,1.5,0.8,2.1c0.4,0.4,1,0.9,2.1,0.9
	c1.5,0,2.7-0.5,4-1.5c1.1-0.9,2.1-1.9,2.8-3c0.2-0.2,0.3-0.4,0.4-0.6c0,1.1-0.1,1.8-0.1,2.1c0,0.6,0.1,1.2,0.3,1.8
	c0.5,1.1,1.4,1.2,1.7,1.2c0.4,0,1-0.2,1.5-0.9c0.3-0.5,0.5-0.9,0.5-1.3s-0.2-0.7-0.4-1C126.9,64.6,126.9,64.2,126.9,63.8z M122.9,58
	c-0.8,1.4-1.5,2.5-2.2,3.4c-0.6,0.9-1.4,1.7-2.1,2.3l0,0c-0.5,0.5-1.1,0.7-1.6,0.8c0.1-0.3,0.2-0.8,0.7-1.7c0.5-1,1.2-2.1,2.1-3.1
	c0.8-1.1,1.6-1.9,2.4-2.5c0.6-0.5,0.9-0.6,1-0.6c0.1,0.1,0.1,0.2,0.1,0.2C123.1,57.2,123.1,57.6,122.9,58z"/>
<path class="st0" d="M138.2,57.1c0.5-0.5,0.7-0.9,0.7-1.4c0-0.5-0.2-1-0.5-1.5c-0.3-0.4-0.7-0.8-1.2-1c-0.5-0.2-1.1-0.4-1.6-0.4
	c-0.8,0-1.5,0.4-2.3,1.1c-0.5,0.5-1.1,1.1-1.6,1.9c0-0.7-0.1-1.1-0.2-1.2c-0.2-0.8-0.8-1.2-1.6-1.2c-1.3,0-1.8,0.8-1.8,1.8
	c0,0.7,0,1.8,0.1,3.3c0,1,0.1,1.8,0.1,2.5s0,1.3,0.1,1.7c0,1.5,0.1,2.7,0.2,3.6c0.2,1.8,1.1,2.2,1.7,2.2c0.7,0,1.2-0.3,1.5-0.8
	c0.2-0.4,0.3-0.8,0.3-1.2l-0.1-1.1c0-0.3-0.1-0.8-0.1-1.4c0-0.5-0.1-0.9-0.1-1.2c0.8-1.8,1.5-3.4,2.4-4.7c0.6-1,1-1.3,1.1-1.5
	c0.1,0,0.1,0.1,0.2,0.2c0.2,0.2,0.4,0.5,0.5,0.6c0.4,0.4,0.8,0.5,1.1,0.5C137.4,57.7,137.9,57.6,138.2,57.1z"/>
<path class="st0" d="M101.1,17.3c-3.7-1.3-8.5-2-14.4-2c-0.2,0-0.5,0-0.7,0c0-0.1,0-0.2,0.1-0.3c-1.1,0.1-2.1,0.2-3.3,0.3
	c-1.5,0.1-2.6,0.4-3.6,0.9c-2,1-2.1,2.1-2.1,2.8c0,1.1,0.3,2.2,1.1,3.2c1.5,1.8,3.1,2.2,4.4,2.2c0.1,0,0.1,0,0.2,0
	c0,0.6-0.1,1.2-0.1,1.8c0,1.2,0,3.3,0.1,6.2c0.1,2.5,0.2,5.3,0.2,8.4c0,1.8-0.1,3.4-0.2,4.7c-0.2,2.1-0.2,2.4-0.2,2.5
	c0,0.9,0.4,1.5,0.7,1.8c0.4,0.4,0.9,0.5,1.6,0.5c0.8,0,1.4-0.2,1.9-0.7c0.2-0.2,0.5-0.5,0.6-0.8c1.3-0.7,2.9-1.7,4.7-3.1
	c1.8-1.7,3.9-3.3,5.8-5c3.2-2.8,5.6-5.4,7.1-7.7c1.5-2.4,2.4-5,2.4-7.7C107.5,22.6,106.4,19.2,101.1,17.3z M100.5,30.5
	c-1.1,1.8-3.1,3.9-5.6,6.2c-1.3,1.1-2.8,2.3-4.7,3.7c-0.7,0.7-1.5,1.1-2.1,1.5v-1.7c0-1.4,0-3.8-0.1-7.4c-0.1-2.7-0.2-5.3-0.2-7.6
	c0-0.7,0.2-1.5,0.4-2.2c0.5-1.4,0.5-1.6,0.5-1.8v-0.3c0-0.2,0-0.3-0.1-0.5c4,0.2,7.3,0.5,9.8,1.3c3.3,1,3.7,2.6,3.7,3.7
	C102.1,27.1,101.6,28.8,100.5,30.5z"/>
</svg>
