<?xml version="1.0" encoding="utf-8"?>
<!-- Generator: Adobe Illustrator 25.3.1, SVG Export Plug-In . SVG Version: 6.00 Build 0)  -->
<svg version="1.1" id="Capa_1" xmlns="http://www.w3.org/2000/svg" xmlns:xlink="http://www.w3.org/1999/xlink" x="0px" y="0px"
	 width="1920px" height="1080px" viewBox="0 0 1920 1080" style="enable-background:new 0 0 1920 1080;" xml:space="preserve">
<style type="text/css">
	.st0{fill:#020202;}
</style>
<path class="st0" d="M674,2049.5c-0.1,0.9-0.1,1.8-0.2,2.7c3.6-2.2,6.1-5.8,6.6-10C677,2042.9,675.1,2046.2,674,2049.5L674,2049.5z"
	/>
<path d="M847.1,943.1L847.1,943.1c0.7,3.4,4,3.8,6.8,4.1l0.5,0.1l-0.4-5.4C851.8,942.2,849.5,942.5,847.1,943.1z"/>
<path d="M1599,640.7c-0.9,2.8-1.8,5.8-2.7,9c0.3-0.6,0.7-1.1,1-1.7C1597.9,645.6,1598.4,643.2,1599,640.7z"/>
<path d="M1446.7,577.5L1446.7,577.5c7.3,5.2,8.5,15.1,8.8,24v0.4h0.4c0.9,0,1.9,0,2.8-0.1h0.4v-0.4c1-10.7-2.2-20.3-8.9-26.2
	c-1.1-1.2-2.7-1.3-4.1-1.4c-0.5,0-0.9-0.1-1.4-0.1l-0.8-0.1l0.4,0.8C1445,575.7,1445.6,576.8,1446.7,577.5z"/>
<path d="M1894.2,969.9L1894.2,969.9c-28.8-0.3-57.8-0.2-85.2-5.3c-24.7-4.6-47.4-11.9-73.1-15.1c-52.3-6.5-95.1,10.6-138.6,22.5
	c-13.9,3.8-28.3,7.6-44.5,6.1c-12.9-1.2-25-3.5-38.1-3.9c-13-7.3-38.1-13.2-62.6-17.9c-6-1.1-11.8,1.5-5.8,2.6
	c23,4.4,46.3,10,58.5,16.8c1.2,0.7,3.3,0.9,5.4,0.8c0.6,1.3,1.1,2.6,1.7,4c12.4,0,23.5,2.1,35.4,3.4c13.2,1.4,25.5,0.7,38-2
	c43.9-9.3,84-30.1,134.9-27.5c25.5,1.3,48.4,8.3,71.5,13.4c25.5,5.6,51.4,7.8,79,8.2c17.4,0.2,34.5,0.3,51.6,1
	c0.3-2.1,0.6-4.2,0.8-6.2C1913.6,970.3,1903.9,970,1894.2,969.9z"/>
<path d="M892.7,941.3c-0.2,3.2,0,6.7,1.1,10.1C899.6,949.3,897.4,943.3,892.7,941.3z"/>
<path d="M712.6,592.4L712.6,592.4c-19.6,1.6-40.1,0.3-60.8-0.4c-22.2-0.8-44.4-1.1-66.3-0.7c-21.6,0.3-42.8,1.3-63.4,2.8
	c-15.8,1.2-35,2.3-42.3,7c-5.4,3.4,12.5,7.3,18.1,3.9c6.8-4.3,31.6-4.8,46.1-5.7c19-1.1,38.6-1.7,58.4-1.8
	c19.9-0.1,39.9,0.5,60.1,1.3c18.8,0.8,37.8,1.4,55.6,0C730.4,597.6,725.3,591.4,712.6,592.4z"/>
<path d="M879,896.2c0,1.6,0.2,4.5,0.3,6.4c-3.3-1-6.5-2.3-9.8-3.2c2.1,3.1,4.7,6.3,6.9,8.7l0.4,0.3c1.9-1.6,3.5-3.4,5.3-5
	c0-2.5-0.2-5-0.2-7.5C881,896.1,879.9,896.1,879,896.2z"/>
<path d="M902.3,941.1c-1,3-2,6.2-1.1,9.5C906.9,949.6,906.5,943.8,902.3,941.1z"/>
<polygon points="789.5,938.9 789.5,938.9 789.5,938.9 "/>
<path d="M953.4,408.8c0.1,0,0.1,0,0.2-0.1C953.6,408.7,953.5,408.8,953.4,408.8z"/>
<polygon points="942.2,958.9 942.2,958.9 942.2,958.9 "/>
<g>
	<path d="M453.1,305.9L453.1,305.9c2.9-0.4,5.2-0.6,7.1-0.7c-1,0.2-1.8,0.9-2.2,2.1c-0.5,1.6-0.8,3.7-0.8,6.2c0,1.6,0,4.3,0.1,8.1
		c0.1,3.3,0.2,7,0.2,11c0,2.4-0.1,4.4-0.3,6.2c-0.2,2.4-0.3,2.9-0.3,3.2c0,0.7,0.2,1.2,0.6,1.5c0.3,0.3,0.8,0.5,1.5,0.5
		c0.7,0,1.3-0.2,1.8-0.6c0.3-0.3,0.5-0.6,0.7-1c1.7-0.9,3.9-2.2,6.3-4.1c2.6-2,5.2-4.1,7.7-6.3c4.2-3.7,7.2-7,9.1-9.9
		c1.9-3,2.9-6.2,2.9-9.6c0-4.4-2.6-7.6-7.6-9.4c-4.7-1.7-10.9-2.6-18.4-2.6c-2.3,0-4.4,0.1-6.2,0.2c-1.7,0.2-3.8,0.4-6.3,0.7
		c-0.8,0.1-1.3,0.3-1.8,0.5c-0.7,0.5-0.9,1-0.9,1.4c0,0.7,0.2,1.4,0.6,2.1c0.5,0.9,1.1,1.3,1.8,1.3c0.4,0,0.9-0.1,1.5-0.3
		C451.9,306.1,452.7,306,453.1,305.9z M477.1,307c3.7,1.1,5.5,3,5.5,5.8c0,2.5-0.8,5-2.3,7.3c-1.6,2.4-4.1,5.2-7.6,8.3
		c-1.7,1.4-3.8,3.1-6.2,4.8c-1.7,1.2-3.1,2.1-4.3,2.8c0-0.9,0-2.2,0-3.9c0-1.8,0-5-0.1-9.7c-0.1-3.6-0.2-6.9-0.2-10
		c0-1,0.2-2.1,0.5-3.2c0.5-1.7,0.6-2.1,0.7-2.2l0-0.2c0-0.6-0.4-1.2-1-1.5c-0.2-0.1-0.5-0.2-0.7-0.2
		C467.9,305.2,473.2,305.8,477.1,307z"/>
	<path d="M490.4,303.5c0.9,0.7,1.8,1.1,2.7,1.1c2.6,0,3-1.2,3-1.9c0-0.4-0.2-0.8-0.8-1.6c-0.4-0.6-0.8-1-1.2-1.3
		c-0.5-0.6-1.2-1-1.9-1.3l-0.2-0.1h-0.2c-0.7,0-1.4,0.3-2,0.9c-0.6,0.6-0.9,1.3-0.9,2C489,302.3,489.8,303,490.4,303.5z"/>
	<path d="M496,311.9L496,311.9c-0.4-1.2-1.3-1.9-2.7-1.9c-1,0-1.4,0.4-1.7,0.8c-0.2,0.4-0.4,0.9-0.4,1.6c0,1.7,0.1,4.1,0.2,7.3
		c0.1,3.2,0.3,6.4,0.4,9.7c0.3,5.1,0.6,8.4,0.8,10.3c0.2,1.6,0.7,3.5,2.2,3.6c0.1,0,0.2,0,0.3,0c0.6,0,1.1-0.1,1.5-0.4
		c0.6-0.4,1-1,1-1.8c0-0.6-0.1-1.8-0.4-3.6c-0.4-3-0.5-3.7-0.5-3.9c-0.2-2.4-0.4-5.7-0.4-9.8l0.1-7.2
		C496.4,314.3,496.3,312.8,496,311.9z"/>
	<path d="M527.4,332.3c0-2.2-1-4-3-5.1h0c-1.7-1-4.3-1.9-7.4-2.6c-0.3-0.1-0.7-0.2-1.1-0.2c-0.3-0.1-0.6-0.1-1-0.3
		c-3-0.7-5-1.2-6.1-1.7c-0.9-0.4-1.1-0.8-1.1-1.2c0-1.2,0.6-2.2,1.7-3c1.3-1,2.8-1.7,4.5-2.2c2.1-0.6,3.1-0.8,3.6-0.8
		c0.1,0,0.2,0,0.3,0.1c0.4,0.3,0.9,0.4,1.3,0.4c1,0,1.8-0.5,2.3-1.4c0.4-0.7,0.6-1.4,0.6-2.1c0-0.7-0.3-2.2-3.1-2.2
		c-1.5,0-3.5,0.5-6.1,1.5c-2.6,1-4.9,2.3-6.9,4c-2.1,1.8-3.2,3.9-3.2,6.1c0,1.4,0.6,2.6,1.7,3.5c1,0.8,2.3,1.4,3.9,1.9
		c1.5,0.5,3.6,1,6.3,1.6c2.4,0.6,4.2,1,5.2,1.3c0.9,0.3,1.6,0.7,2.2,1.2c0.5,0.5,0.7,1.1,0.7,1.9c0,0.9-0.4,1.7-1.3,2.5
		c-1,0.9-2.3,1.7-3.9,2.3c-1.6,0.6-3.2,0.9-4.8,0.9c-0.4,0-0.8,0-1.1-0.1c0.1-0.2,0.1-0.4,0.1-0.6c0-0.2-0.1-1.3-1.7-1.3
		c-0.5,0-1.2,0.3-2.6,1.7c-1.2,1.2-1.7,1.9-1.7,2.6c0,0.9,0.5,1.7,1.4,2.2c0.8,0.4,2,0.6,4,0.6c2.7,0,5.3-0.5,7.8-1.6
		c2.5-1.1,4.5-2.5,6.1-4.2C526.6,336.3,527.4,334.4,527.4,332.3z"/>
	<path d="M540.5,342.1c3.4,0,6.4-1.2,8.7-3.5c2.3-2.2,4-4.6,5.1-7.2c1.5-3.5,1.7-4.6,1.7-5.2c0-1.8-1.1-1.9-1.4-1.9
		c-0.9,0-1.3,0.9-1.5,1.3c-0.2,0.4-0.3,0.7-0.4,0.9c-1.3,2.7-2.8,5.2-4.7,7.3c-1.8,2-4,3-6.9,3c-1.8,0-3.1-0.5-4-1.6
		c-1-1.1-1.4-2.7-1.4-4.8c0-1.5,0.2-3,0.5-4.6c2.6-0.5,5.1-1.2,7.5-2.1c2.6-1,4.8-2.3,6.5-3.7c1.8-1.5,2.8-3.2,2.8-4.9
		c0-1.6-0.7-2.9-2-3.7c-1.2-0.8-2.7-1.2-4.4-1.2c-2.8,0-5.4,1.1-8,3.2c-2.5,2.1-4.5,4.7-6,8c-1.5,3.2-2.3,6.5-2.3,9.9
		c0,3.6,1,6.4,2.9,8.2C535.3,341.2,537.7,342.1,540.5,342.1z M545.9,314.7c0.7,0,1.4,0.1,1.9,0.4c0.4,0.2,0.5,0.5,0.5,0.6
		c0,0-0.1,0.5-1.7,1.7c-1.3,1-3,1.9-5,2.7c-1.4,0.6-2.7,1-4,1.3c0.3-0.6,0.7-1.3,1.1-2c0.9-1.3,2-2.5,3.3-3.4
		C543.3,315.1,544.6,314.7,545.9,314.7z"/>
	<path d="M562.1,309.8c0.5,0,0.9-0.2,1.2-0.6c0.2-0.3,0.3-0.6,0.4-1c0.1-0.2,0.1-0.4,0.1-0.4c1-2,2.1-2.9,3.6-2.9
		c0.3,0,0.6,0.1,1,0.3c0.4,0.3,1.1,0.8,1.8,1.5c1,0.9,2,1.6,2.7,2.1c1.7,1.1,4.2,1.3,6.2-0.3c0.9-0.7,1.7-1.7,2.3-2.8
		c0.6-1.1,0.9-2.3,0.9-3.4c0-0.3-0.1-0.9-1-1.3c-0.4-0.2-0.8-0.2-1.2-0.2c-1.3,0-2,1.6-2.2,2.1l0,0.1c0,0.1-0.1,0.4-0.3,0.9
		c-0.1,0.4-0.4,0.8-0.6,1.1c-0.1,0.1-0.2,0.2-0.7,0.2c-0.6,0-1.1-0.2-1.5-0.5c-0.6-0.4-1.3-1-2.1-1.8c-0.9-0.9-1.7-1.5-2.3-2
		c-0.7-0.5-1.6-0.8-2.5-0.8c-1.4,0-2.8,0.4-4,1.3c-1.2,0.8-2.2,1.9-3,3.2c-0.6,1-0.9,2-0.9,3c0,0.6,0.3,1.2,0.8,1.6
		C561.1,309.6,561.6,309.8,562.1,309.8z"/>
	<path d="M560,324.7l0.9,8.8l0.5,5c0,0.3,0.1,1.2,0.8,1.5c0.3,0.2,0.7,0.2,1.4,0.2c0.6,0,1.2-0.2,1.7-0.5c0.6-0.4,1-0.8,1.2-1.5
		l0.9-2.4c2.1-5.6,4-10.1,5.6-13.5c1.7-3.6,2.9-4.4,3.4-4.5c0.1,0.2,0.2,0.6,0.3,1.3c0.1,1.5,0.2,3.4,0.2,5.8c0,2.4-0.1,5.6-0.4,9.3
		c-0.2,3.5-0.4,6.1-0.4,7.8c0,0.7,0.3,1.2,0.9,1.6c0.4,0.3,1,0.4,1.6,0.4c0.8,0,1.5-0.3,2.1-0.8c0.6-0.5,1-1.2,1-2
		c0-7.1-0.1-12.6-0.2-16.3c-0.1-3.4-0.4-6.2-0.9-8.4c-0.7-3.3-2.3-4-3.6-4c-2.2,0-4.3,2-6.5,6.3c-1.7,3.3-3.5,7.3-5.3,12
		c-0.1-1-0.2-2.1-0.3-3.4l-0.2-3.2c-0.2-4.4-0.4-7.5-0.6-9.5c-0.2-1.9-0.5-3.8-1.9-3.8c-0.9,0-1.7,0.3-2.4,0.8
		c-0.8,0.6-1.2,1.4-1.2,2.3c0,0.4,0.1,0.9,0.2,1.6C559.3,318.2,559.7,321.3,560,324.7z"/>
	<path d="M594.9,342.3c3,0,5.6-0.8,7.9-2.4c2.3-1.6,4.1-3.5,5.3-5.7c1.3-2.2,1.9-4.2,1.9-6c0-2.1-0.6-3.9-1.9-5.5
		c-1.1-1.4-2.6-2.9-4.2-4.2c-0.3-0.3-0.5-0.4-0.7-0.6c0.1-0.2,0.2-0.5,0.2-0.7c0-0.6-0.3-1.1-0.9-1.3c-0.3-0.1-0.7-0.2-1.4-0.2
		c-1.1,0-2,0.2-2.8,0.5c-1.4,0.6-1.6,1.5-1.6,2.1c0,0.6,0.3,1.2,1,1.9c0.5,0.5,1.3,1.2,2.4,2c1.6,1.1,2.8,2.2,3.7,3.2
		c0.8,0.9,1.2,1.9,1.2,3.1c0,1.1-0.4,2.3-1.3,3.7c-0.9,1.4-2,2.6-3.5,3.6c-1.4,1-2.9,1.4-4.5,1.4c-4.3,0-4.9-2-4.9-3.8
		c0-2.3,0.3-4.4,0.9-6.4c0.6-2,1.5-4,2.6-6c0.8-1.6,1.9-3.2,3.3-4.8c0.1-0.2,0.3-0.4,0.5-0.7c0.4-0.5,0.5-0.8,0.5-1.2
		c0-0.4-0.1-1.1-0.9-1.6c-0.5-0.3-1-0.4-1.5-0.4c-1,0-2,0.3-2.9,1c-0.8,0.6-1.6,1.5-2.3,2.7c-0.6,1.1-0.9,1.7-1,1.8
		c-1.3,2.3-2.4,5-3.1,8c-0.7,3-1.1,5.5-1.1,7.5c0,2.5,0.7,4.6,2.2,6.3C589.6,341.4,591.9,342.3,594.9,342.3z"/>
	<path d="M615,349.5c1,0,2-0.9,3.4-3c1.2-1.7,2.2-3.7,3.2-5.7c1.4-2.9,1.5-3.9,1.5-4.4c0-0.7-0.4-1.4-1.1-2.1
		c-0.7-0.7-1.4-1.1-2.1-1.1c-1.1,0-1.6,1.1-1.8,1.4c-0.3,0.6-0.7,1.6-1.1,2.8l-1.1,2.8l-1.7,3.2c-0.1,0.1-0.2,0.3-0.9,1.7
		c-0.7,1.3-0.8,1.8-0.8,2.2c0,0.7,0.3,1.2,0.8,1.6C613.8,349.3,614.4,349.5,615,349.5z"/>
	<path d="M641.4,322.7c0.6,0.4,1.2,0.6,1.9,0.6c0.3,0,1.1-0.1,4.1-0.7c2-0.4,3.9-0.8,5.8-1.1c0,1.7,0,3.5,0.1,5.3
		c0.1,2.2,0.2,4.2,0.3,5.9c0.1,1.9,0.3,3.6,0.5,5.2c0.2,1.6,0.5,2.8,0.8,3.4c0.2,0.5,0.4,0.8,0.7,1.1c0.3,0.3,0.8,0.5,1.3,0.5
		c0.6,0,1.3-0.2,2-0.7c1-0.7,1.2-1.4,1.2-2l0-0.2c0-0.1-0.1-0.5-0.7-2.2c-0.4-1.2-0.7-2.9-0.8-5.2c-0.1-1.7-0.2-3.8-0.3-6.1
		c-0.1-2-0.1-3.9-0.1-5.8l3.1-0.5c0.4-0.1,2.5-0.4,6.2-1.1c1.7-0.2,2.9-0.5,3.6-1c0.9-0.6,1.4-1.4,1.4-2.4c0-0.8-0.3-1.5-1-2.2
		c-0.7-0.7-1.4-1.1-2.1-1.1c-0.7,0-1.2,0.4-1.6,1.3c-0.1,0.2-0.2,0.3-0.2,0.3c-4.4,1-7.7,1.7-9.7,2l0-0.5c-0.1-1.8-0.1-3.5-0.1-5
		c0-1.9,0.1-3.4,0.3-4.5c0.3-1.6,0.3-2.1,0.3-2.3c0-0.6-0.2-1.1-0.5-1.4s-0.8-0.5-1.4-0.5c-1.3,0-2.3,0.7-2.8,1.8
		c-0.3,0.8-0.5,1.7-0.6,2.6c-0.1,0.9-0.2,2.2-0.2,3.8c0,1,0,2.5,0.1,4.3c0.1,0.9,0.1,1.8,0.1,2.5c-1.1,0.2-2.6,0.5-4.8,0.9
		c-0.3,0.1-1,0.2-2.2,0.4c-1.1,0.2-2,0.3-2.5,0.3c-1,0-1.7,0.1-2.2,0.3c-0.4,0.2-1.1,0.7-1.1,2C640.4,321.6,640.7,322.3,641.4,322.7
		z"/>
	<path d="M683.6,342.1c3.4,0,6.4-1.2,8.7-3.5c2.3-2.2,4-4.6,5.1-7.2c1.5-3.5,1.7-4.6,1.7-5.2c0-1.8-1.1-1.9-1.4-1.9
		c-0.9,0-1.3,0.9-1.5,1.3c-0.2,0.4-0.3,0.7-0.4,0.9c-1.3,2.7-2.8,5.2-4.7,7.3c-1.8,2-4,3-6.9,3c-1.8,0-3.1-0.5-4-1.6
		c-1-1.1-1.4-2.7-1.4-4.8c0-1.5,0.2-3,0.5-4.6c2.6-0.5,5.1-1.2,7.5-2.1c2.6-1,4.8-2.3,6.5-3.7c1.8-1.5,2.8-3.2,2.8-4.9
		c0-1.6-0.7-2.9-2-3.7c-1.2-0.8-2.7-1.2-4.4-1.2c-2.8,0-5.4,1.1-8,3.2c-2.5,2.1-4.5,4.7-6,8c-1.5,3.2-2.3,6.5-2.3,9.9
		c0,3.6,1,6.4,2.9,8.2C678.3,341.2,680.7,342.1,683.6,342.1z M688.9,314.7c0.7,0,1.4,0.1,1.9,0.4c0.4,0.2,0.5,0.5,0.5,0.6
		c0,0-0.1,0.5-1.7,1.7c-1.3,1-3,1.9-5,2.7c-1.4,0.6-2.7,1-4,1.3c0.3-0.6,0.7-1.3,1.1-2c0.9-1.3,2-2.5,3.3-3.4
		C686.3,315.1,687.6,314.7,688.9,314.7z"/>
	<path d="M706.6,342.1c2.1,0,4-0.8,5.9-2.3c1.7-1.4,3.7-3.5,5.8-6c0.9-1,1.7-2.2,2.6-3.5c1.3-2,1.4-2.4,1.4-2.8
		c0-0.8-0.5-1.5-1.7-1.5c-0.6,0-1.1,0.5-1.6,1.2c-0.4,0.5-0.7,0.9-0.7,1c-1.2,1.6-2.9,3.5-5,5.7c-1.1,1.1-2.2,2-3.2,2.6
		c-0.9,0.6-1.9,0.8-3.1,0.8c-0.5,0-1.7,0-1.7-3c0-1.8,0.6-4.4,1.7-7.8c1.1-3.4,2.5-6.4,4.3-9c1.5-2.2,2.9-3.4,4.4-3.5
		c0.1,0.2,0.2,0.7,0.3,1.7c0,0.8,0.1,1.4,0.3,1.9c0.2,0.9,0.9,1.4,1.8,1.4c1.1,0,1.4-1.4,1.6-2.2c0.2-1,0.3-1.9,0.3-2.6
		c0-0.7-0.2-1.4-0.6-2.1c-0.4-0.7-0.8-1.3-1.2-1.7c-0.8-0.8-1.9-1.3-3-1.3c-2.4,0-4.9,1.6-7.2,4.8c-2.2,3-4,6.6-5.4,10.6
		c-1.4,4.1-2.1,7.5-2.1,10.2c0,2,0.6,3.7,1.7,5.2C703.2,341.3,704.8,342.1,706.6,342.1z"/>
	<path d="M725.6,324.7l0.9,8.8l0.5,5c0,0.3,0.1,1.2,0.8,1.5c0.3,0.2,0.7,0.2,1.4,0.2c0.6,0,1.2-0.2,1.7-0.5c0.6-0.4,1-0.8,1.2-1.5
		l0.9-2.4c2.1-5.6,4-10.1,5.6-13.5c1.7-3.6,2.9-4.4,3.4-4.5c0.1,0.2,0.2,0.6,0.3,1.3c0.1,1.5,0.2,3.4,0.2,5.8c0,2.4-0.1,5.6-0.4,9.3
		c-0.2,3.5-0.4,6.1-0.4,7.8c0,0.7,0.3,1.2,0.9,1.6c0.4,0.3,1,0.4,1.6,0.4c0.8,0,1.5-0.3,2.1-0.8c0.6-0.5,1-1.2,1-2
		c0-7.1-0.1-12.6-0.2-16.3c-0.1-3.4-0.4-6.2-0.9-8.4c-0.7-3.3-2.3-4-3.6-4c-2.2,0-4.3,2-6.5,6.3c-1.7,3.3-3.5,7.3-5.3,12
		c-0.1-1-0.2-2.1-0.3-3.4l-0.2-3.2c-0.2-4.4-0.4-7.5-0.6-9.5c-0.2-1.9-0.5-3.8-1.9-3.8c-0.9,0-1.7,0.3-2.4,0.8
		c-0.8,0.6-1.2,1.4-1.2,2.3c0,0.4,0.1,0.9,0.2,1.6C725,318.2,725.4,321.3,725.6,324.7z"/>
	<path d="M760.6,342.3c3,0,5.6-0.8,7.9-2.4c2.3-1.6,4.1-3.5,5.3-5.7c1.3-2.2,1.9-4.2,1.9-6c0-2.1-0.6-3.9-1.9-5.5
		c-1.1-1.4-2.6-2.9-4.2-4.2c-0.3-0.3-0.5-0.4-0.7-0.6c0.1-0.2,0.2-0.5,0.2-0.7c0-0.6-0.3-1.1-0.9-1.3c-0.3-0.1-0.7-0.2-1.4-0.2
		c-1.1,0-2,0.2-2.8,0.5c-1.4,0.6-1.6,1.5-1.6,2.1c0,0.6,0.3,1.2,1,1.9c0.5,0.5,1.3,1.2,2.4,2c1.6,1.1,2.8,2.2,3.7,3.2
		c0.8,0.9,1.2,1.9,1.2,3.1c0,1.1-0.4,2.3-1.3,3.7c-0.9,1.4-2,2.6-3.5,3.6c-1.4,1-2.9,1.4-4.5,1.4c-4.3,0-4.9-2-4.9-3.8
		c0-2.3,0.3-4.4,0.9-6.4c0.6-2,1.5-4,2.6-6c0.8-1.6,1.9-3.2,3.3-4.8c0.1-0.2,0.3-0.4,0.5-0.7c0.4-0.5,0.5-0.8,0.5-1.2
		c0-0.4-0.1-1.1-0.9-1.6c-0.5-0.3-1-0.4-1.5-0.4c-1,0-2,0.3-2.9,1c-0.8,0.6-1.6,1.5-2.3,2.7c-0.6,1.1-0.9,1.7-1,1.8
		c-1.3,2.3-2.4,5-3.1,8c-0.7,3-1.1,5.5-1.1,7.5c0,2.5,0.7,4.6,2.2,6.3C755.3,341.4,757.6,342.3,760.6,342.3z"/>
	<path d="M783.1,341.6c0.8,0,1.5-0.2,2.2-0.5c1.2-0.6,1.4-1.4,1.4-1.9c0-0.2,0-0.3-1-2.7c-0.5-1.3-0.8-2.6-0.8-3.8
		c0-10.1,0.4-20.6,1.1-31.3c0-0.5,0-0.9,0-1.1c0-0.3,0-0.4,0-0.5c0-1.4-0.1-2-0.2-2.3c-0.2-0.8-0.8-1.2-1.6-1.2
		c-1.4,0-2.4,0.8-3,2.2c-0.4,1.1-0.7,2.3-0.7,3.6c-0.1,3.3-0.2,8.2-0.3,14.7c-0.1,6.5-0.2,12.1-0.2,16.7c0,2.5,0.2,4.3,0.7,5.6
		C781.1,340.2,781.8,341.6,783.1,341.6z"/>
	<path d="M798.9,342.3c3,0,5.6-0.8,7.9-2.4c2.3-1.6,4.1-3.5,5.3-5.7c1.3-2.2,1.9-4.2,1.9-6c0-2.1-0.6-3.9-1.9-5.5
		c-1.1-1.4-2.6-2.9-4.2-4.2c-0.3-0.3-0.5-0.4-0.7-0.6c0.1-0.2,0.2-0.5,0.2-0.7c0-0.6-0.3-1.1-0.9-1.3c-0.3-0.1-0.7-0.2-1.4-0.2
		c-1.1,0-2,0.2-2.8,0.5c-1.4,0.6-1.6,1.5-1.6,2.1c0,0.6,0.3,1.2,1,1.9c0.5,0.5,1.3,1.2,2.4,2c1.6,1.1,2.8,2.2,3.7,3.2
		c0.8,0.9,1.2,1.9,1.2,3.1c0,1.1-0.4,2.3-1.3,3.7c-0.9,1.4-2,2.6-3.5,3.6c-1.4,1-2.9,1.4-4.5,1.4c-4.3,0-4.9-2-4.9-3.8
		c0-2.3,0.3-4.4,0.9-6.4c0.6-2,1.5-4,2.6-6c0.8-1.6,1.9-3.2,3.3-4.8c0.1-0.2,0.3-0.4,0.5-0.7c0.4-0.5,0.5-0.8,0.5-1.2
		c0-0.4-0.1-1.1-0.9-1.6c-0.5-0.3-1-0.4-1.5-0.4c-1,0-2,0.3-2.9,1c-0.8,0.6-1.6,1.5-2.3,2.7c-0.6,1.1-0.9,1.7-1,1.8
		c-1.3,2.3-2.4,5-3.1,8c-0.7,3-1.1,5.5-1.1,7.5c0,2.5,0.7,4.6,2.2,6.3C793.6,341.4,795.9,342.3,798.9,342.3z"/>
	<path d="M820.8,340.9c1.6,0,3.3-0.6,5-1.9c1.6-1.2,3.4-3,5.3-5.4c2-2.5,3.8-5.1,5.3-7.8c0.7-1.3,1.3-2.5,1.9-3.7
		c0.3,1.4,0.6,3,1,4.6c0.6,2.9,1.1,5.4,1.4,7.4c0.3,2,0.4,4.2,0.4,6.6c0,2-0.4,4-1.2,6c-0.8,1.9-2.1,3.7-3.8,5.2
		c-2.2,2-4.7,3.5-7.4,4.3c-2,0.7-3.4,1.5-3.4,2.7c0,0.8,0.2,1.4,0.7,2c0.5,0.6,1.3,0.9,2.4,0.9c1.6,0,3.3-0.5,5.4-1.7
		c2-1.1,3.9-2.5,5.7-4.2c1.8-1.7,3.4-3.9,4.7-6.6c1.3-2.7,2-5.8,2-9.1c0-2.2-0.2-4.5-0.6-6.8c-0.4-2.3-1-5.1-1.7-8.4
		c-1-4.5-1.7-7.8-2-10c0-0.1,0-0.1,0.1-0.2c0.1-0.3,0.1-0.6,0.1-0.8c0-0.4-0.2-1-1.1-1.6c-1-0.6-2.2-0.7-2.9,0
		c-0.3,0.3-0.5,0.6-0.7,1.1c0,0,0,0.1,0,0.1c-0.1-0.8-0.4-1.6-0.9-2.2c-0.7-0.9-1.6-1.3-2.8-1.3c-2.8,0-5.5,1.5-8.3,4.3
		c-2.6,2.8-4.8,6.1-6.6,9.9c-1.8,3.9-2.7,7.3-2.7,10.2c0,1.8,0.3,3.3,1,4.5C818,340.2,819.2,340.9,820.8,340.9z M834.2,321.5
		c-1.4,2.8-2.9,5.3-4.6,7.4c-1.9,2.4-3.5,4.1-4.8,5.2c-1.5,1.2-2.4,1.5-2.9,1.5c-0.4,0-0.5-0.1-0.6-0.3c-0.1-0.2-0.3-0.7-0.3-1.8
		c0-1.8,0.7-4.3,2-7.2c1.4-3,3.1-5.6,5.1-7.9c1.9-2.1,3.8-3.2,5.6-3.2c0,0,0,0,0.1,0.1c0.2,0.2,0.4,0.4,0.5,0.6
		c0.2,0.3,0.6,0.9,1.3,0.9c0.2,0,0.4,0,0.6-0.1C835.7,318.3,835,319.9,834.2,321.5z"/>
	<path d="M851.3,311.4c0.6,0,1.4-0.2,3.7-2c1.6-1.2,3-2.6,4.3-4c2-2.1,2.2-3,2.2-3.6c0-0.7-0.3-1.3-1-2c-1.2-1.2-2.6-1.2-3.4-0.3
		c-0.1,0.2-0.4,0.5-1.1,1.5c-0.3,0.6-0.8,1.3-1.4,2.1c-0.7,0.9-1.8,2-3.3,3.4c-2.1,2-2.3,2.4-2.3,2.9c0,0.6,0.2,1.1,0.7,1.5
		C850,311.1,850.5,311.4,851.3,311.4z"/>
	<path d="M857.6,341c0-0.6-0.1-1.8-0.4-3.6c-0.4-2.9-0.5-3.6-0.5-3.8l0-0.1c-0.2-2.1-0.4-4.8-0.4-8.1l0.1-6.1c0-2.2-0.1-3.7-0.4-4.5
		c-0.2-0.7-0.9-1.8-2.7-1.8c-1,0-1.4,0.4-1.7,0.8c-0.2,0.4-0.4,0.9-0.4,1.5c0,2.1,0.2,6.8,0.7,14c0.3,5.1,0.6,8.4,0.8,10.3
		c0.2,1.6,0.7,3.5,2.2,3.6c0.1,0,0.2,0,0.3,0c0.6,0,1.1-0.1,1.5-0.4C857.3,342.4,857.6,341.8,857.6,341z"/>
	<path d="M890.6,336.8c0-0.7-0.1-1.7-0.1-2.9c0-1.3-0.1-2.6-0.1-3.9l-0.2-4.9c-0.1-2-0.1-3.3-0.2-4c-0.1-1.6-0.6-2.2-1.2-2.5
		c0.3-0.8,0.4-1.6,0.4-2.4c0-1.1-0.3-2.2-0.9-3.1c-0.6-0.9-1.3-1.5-2.1-2c-1.7-1-3.3-1-5.3,0c-1,0.5-2.2,1.3-3.8,2.6
		c-2.3,1.9-4.7,4.4-7,7.3c-2.3,2.9-4.2,5.9-5.7,8.8c-1.6,3-2.3,5.3-2.3,7.1c0,1.5,0.4,2.8,1.3,3.8c0.9,1,2.2,1.6,3.8,1.6
		c2.9,0,5.7-1.1,8.3-3.2c2.5-2.1,4.6-4.3,6.2-6.6c1.3-1.8,2.6-3.9,4-6.2l0,1.9c-0.1,4.9-0.2,7.8-0.2,8.8c0,1.3,0.2,2.4,0.6,3.4
		c0.7,1.6,1.9,1.9,2.5,1.9c0.8,0,1.5-0.5,2.1-1.4c0.5-0.8,0.8-1.5,0.8-2.2c0-0.5-0.2-0.9-0.7-1.4C890.7,337,890.6,336.9,890.6,336.8
		z M873.8,334.8c-1.8,1.5-3.8,2.2-5.7,2.2c-0.5,0-0.7,0-0.7-0.8c0-1.3,0.6-3.1,1.9-5.5c1.3-2.5,3-5,5-7.5c2-2.5,3.9-4.5,5.7-6.1
		c1.8-1.6,2.8-1.8,3.2-1.8c0.6,0,0.9,0.2,1.3,0.6c0.4,0.5,0.5,1,0.5,1.6c0,1.3-0.2,2.4-0.6,3.5c-1.9,3.2-3.7,6-5.3,8.2
		C877.5,331.4,875.8,333.3,873.8,334.8z"/>
	<path d="M452.9,405.6c1.4,3.1,3.2,4.7,5.2,4.7c2,0,3.9-1.1,5.7-3.3c0.6-0.8,1.2-1.6,1.8-2.4l-0.4,4c-0.5,3.9-0.7,7-0.7,9.3
		c0,3.1,0.2,5.4,0.5,6.9c0.2,0.8,0.6,2.9,2.2,2.9c0.8,0,1.6-0.2,2.4-0.5c1-0.5,1.6-1.1,1.6-1.9c0-0.3-0.1-0.6-0.6-1.5
		c-0.3-0.5-0.5-1.3-0.8-2.2c-0.2-0.9-0.4-2.2-0.4-3.9c0-2.1,0.1-4.4,0.3-7c0.2-2.6,0.6-6.4,1.1-11.4c0-0.4,0.3-2.4,0.8-6
		c0.5-3.2,0.7-5.3,0.7-6.2c0-0.7-0.3-1.4-0.9-2c-0.6-0.7-1.3-1-2-1c-0.9,0-1.6,0.4-1.9,1.2c-0.2,0.5-0.3,1.2-0.4,2.3l-0.4,6
		c-0.3,0.9-0.8,2-1.3,3.3c-0.6,1.4-1.1,2.5-1.6,3.3c-1.1,1.8-2,3.1-2.8,3.9c-0.6,0.7-1.4,1-2.2,1c-0.8,0-3.4-1.2-5.5-16.1
		c-0.4-2.8-1.7-3.4-2.7-3.4c-0.4,0-1.9,0.2-1.9,2.5c0,1.7,0.4,4.3,1.1,7.9C450.6,399.6,451.6,402.8,452.9,405.6z"/>
	<path d="M518.8,393c-2.4-1.8-5.3-3.2-8.6-4.4c-2.8-1-5.4-1.7-7.7-2.1c0.1-0.3,0.1-0.5,0.1-0.7c0-0.6-0.3-1.5-2.2-1.5
		c-1,0-1.6,0.2-2,0.7c-0.2,0.2-0.4,0.5-0.6,0.9c-0.3-0.1-0.5-0.1-0.7-0.2c-0.4-0.2-0.6-0.3-0.7-0.3c-0.8-0.4-1.5-0.6-2.1-0.6
		c-0.7,0-1.6,0.4-1.6,2.6c0,0.9,0.4,1.6,1.2,2.1c0.6,0.4,1.5,0.6,2.6,0.7c0.4,0,0.8,0.1,1.1,0.1l0.1,15.2c-0.2-0.1-0.5-0.1-0.8-0.2
		c-1.3-0.4-1.6-0.4-1.8-0.4c-0.5,0-1.7,0.2-1.7,2.5c0,2.8,1.9,3,2.5,3c0.6,0,1.1,0,1.7-0.1c0,0,0,0,0,0l-0.1,7.5c0,1.5,0,3,0.1,4.4
		c0.1,1.5,0.1,2.5,0.2,3.3c0.1,0.4,0.4,1.6,2.2,1.6c0.9,0,1.6-0.4,2.1-1.2c0.4-0.6,0.6-1.4,0.6-2.2c0-0.3,0-0.8-0.1-1.6
		c-0.2-1.9-0.3-4-0.3-6.2c0-1.6,0-3.5,0.1-5.8c5.7-0.5,10.4-1.5,14.1-3.1c4.1-1.8,6.2-4.3,6.2-7.6
		C522.7,397.1,521.4,394.9,518.8,393z M502.4,405.7c0-1.4,0-3.7-0.1-6.7c0-3.2-0.1-6-0.1-8.2c2.1,0.4,4.3,1,6.6,1.7
		c2.6,0.9,4.9,2,6.8,3.3c1.7,1.2,2.5,2.4,2.5,3.8c0,0.9-0.8,1.8-2.3,2.7l0,0c-1.8,1-4.1,1.9-6.7,2.5
		C506.7,405.3,504.5,405.7,502.4,405.7z"/>
	<path d="M529.3,415.6c2.9,0,5.7-1.1,8.3-3.2c2.5-2.1,4.6-4.3,6.2-6.6c1.3-1.8,2.6-3.9,4-6.2l0,1.9c-0.1,4.9-0.2,7.8-0.2,8.8
		c0,1.3,0.2,2.4,0.6,3.4c0.7,1.6,1.9,1.9,2.5,1.9c0.8,0,1.5-0.5,2.1-1.4c0.5-0.8,0.8-1.5,0.8-2.2c0-0.5-0.2-0.9-0.7-1.4
		c-0.2-0.2-0.2-0.3-0.2-0.3c0-0.7-0.1-1.7-0.1-2.9c0-1.3-0.1-2.6-0.1-3.9l-0.2-4.9c-0.1-2-0.1-3.3-0.2-4c-0.1-1.6-0.6-2.2-1.2-2.5
		c0.3-0.8,0.4-1.6,0.4-2.4c0-1.1-0.3-2.2-0.9-3.1c-0.6-0.9-1.3-1.5-2.1-2c-1.7-1-3.3-1-5.3,0c-1,0.5-2.2,1.3-3.8,2.6
		c-2.3,1.9-4.7,4.4-7,7.3c-2.3,2.9-4.2,5.9-5.7,8.8c-1.6,3-2.3,5.3-2.3,7.1c0,1.5,0.4,2.8,1.3,3.8
		C526.4,415,527.7,415.6,529.3,415.6z M535.9,408c-1.8,1.5-3.8,2.2-5.7,2.2c-0.5,0-0.7,0-0.7-0.8c0-1.3,0.6-3.1,1.9-5.5
		c1.3-2.5,3-5,5-7.5c2-2.5,3.9-4.5,5.7-6.1c1.8-1.6,2.8-1.8,3.2-1.8c0.6,0,0.9,0.2,1.3,0.6c0.4,0.5,0.5,1,0.5,1.6
		c0,1.3-0.2,2.4-0.6,3.5c-1.9,3.2-3.7,6-5.3,8.2C539.6,404.6,537.8,406.5,535.9,408z"/>
	<path d="M558.8,398.3c1,0.8,2.3,1.4,3.9,1.9c1.5,0.5,3.6,1,6.3,1.6c2.4,0.6,4.2,1,5.2,1.3c0.9,0.3,1.6,0.7,2.2,1.2
		c0.5,0.5,0.7,1.1,0.7,1.9c0,0.9-0.4,1.7-1.3,2.5c-1,0.9-2.3,1.7-3.9,2.3c-1.6,0.6-3.2,0.9-4.8,0.9c-0.4,0-0.8,0-1.1-0.1
		c0.1-0.2,0.1-0.4,0.1-0.6c0-0.2-0.1-1.3-1.7-1.3c-0.5,0-1.2,0.3-2.6,1.7c-1.2,1.2-1.7,1.9-1.7,2.6c0,0.9,0.5,1.7,1.4,2.2
		c0.8,0.4,2,0.6,4,0.6c2.7,0,5.3-0.5,7.8-1.6c2.5-1.1,4.5-2.5,6.1-4.2c1.6-1.8,2.4-3.8,2.4-5.8c0-2.2-1-4-3-5.1
		c-1.7-1-4.3-1.9-7.4-2.6c-0.3-0.1-0.7-0.2-1.1-0.2c-0.3-0.1-0.6-0.1-1-0.3c-3-0.7-5-1.2-6.1-1.7c-0.9-0.4-1.1-0.8-1.1-1.2
		c0-1.2,0.6-2.2,1.7-3c1.3-1,2.8-1.7,4.5-2.2c2.1-0.6,3.1-0.8,3.6-0.8c0.1,0,0.2,0,0.3,0.1c0.4,0.3,0.9,0.4,1.3,0.4
		c1,0,1.8-0.5,2.3-1.4c0.4-0.7,0.6-1.4,0.6-2.1c0-0.7-0.3-2.2-3.1-2.2c-1.5,0-3.5,0.5-6.1,1.5c-2.6,1-4.9,2.3-6.9,4
		c-2.1,1.8-3.2,3.9-3.2,6.1C557,396.2,557.6,397.5,558.8,398.3z"/>
	<path d="M588,383.2c-1,0-1.4,0.4-1.7,0.8c-0.2,0.4-0.4,0.9-0.4,1.6c0,1.7,0.1,4.1,0.2,7.3c0.1,3.2,0.3,6.4,0.4,9.7
		c0.3,5.1,0.6,8.4,0.8,10.3c0.2,1.6,0.7,3.5,2.2,3.6c0.1,0,0.2,0,0.3,0c0.6,0,1.1-0.1,1.5-0.4c0.6-0.4,1-1,1-1.8
		c0-0.6-0.1-1.8-0.4-3.6c-0.4-3-0.5-3.7-0.5-3.9c-0.2-2.4-0.4-5.7-0.4-9.8l0.1-7.2c0-2.3-0.1-3.9-0.4-4.8v0
		C590.3,383.9,589.4,383.2,588,383.2z"/>
	<path d="M585.1,376.7c0.9,0.7,1.8,1.1,2.7,1.1c2.6,0,3-1.2,3-1.9c0-0.4-0.2-0.8-0.8-1.6c-0.4-0.6-0.8-1-1.2-1.3
		c-0.5-0.6-1.2-1-1.9-1.3l-0.2-0.1h-0.2c-0.7,0-1.4,0.3-2,0.9c-0.6,0.6-0.9,1.3-0.9,2C583.7,375.5,584.5,376.2,585.1,376.7z"/>
	<path d="M606.1,382.3c0,0.6,0.2,1.1,0.7,1.5c0.3,0.3,0.8,0.6,1.6,0.6c0.6,0,1.4-0.2,3.7-2c1.6-1.2,3-2.6,4.3-4
		c1.6-1.7,2.2-2.7,2.2-3.6c0-0.7-0.3-1.3-1-2c-1.2-1.2-2.6-1.2-3.4-0.3c-0.1,0.2-0.4,0.5-1.1,1.5c-0.4,0.6-0.8,1.3-1.4,2.1
		c-0.7,0.9-1.8,2-3.3,3.4C606.3,381.3,606.1,381.8,606.1,382.3z"/>
	<path d="M614.1,413.1c2.3-1.6,4.1-3.5,5.3-5.7c1.3-2.2,1.9-4.2,1.9-6c0-2.1-0.6-3.9-1.9-5.5c-1.1-1.4-2.6-2.9-4.2-4.2
		c-0.3-0.3-0.5-0.4-0.7-0.6c0.1-0.2,0.2-0.5,0.2-0.7c0-0.6-0.3-1.1-0.9-1.3c-0.3-0.1-0.7-0.2-1.4-0.2c-1.1,0-2,0.2-2.8,0.5
		c-1.4,0.6-1.6,1.5-1.6,2.1c0,0.6,0.3,1.2,1,1.9c0.5,0.5,1.3,1.2,2.4,2c1.6,1.1,2.8,2.2,3.7,3.2c0.8,0.9,1.2,1.9,1.2,3.1
		c0,1.1-0.4,2.3-1.3,3.7c-0.9,1.4-2,2.6-3.5,3.6c-1.4,1-2.9,1.4-4.5,1.4c-4.3,0-4.9-2-4.9-3.8c0-2.3,0.3-4.4,0.9-6.4
		c0.6-2,1.5-4,2.6-6l0,0c0.8-1.6,1.9-3.2,3.3-4.8c0.1-0.2,0.3-0.4,0.5-0.7c0.4-0.5,0.5-0.8,0.5-1.2c0-0.4-0.1-1.1-0.9-1.6
		c-0.5-0.3-1-0.4-1.5-0.4c-1,0-2,0.3-2.9,1c-0.8,0.6-1.6,1.5-2.3,2.7c-0.6,1.1-0.9,1.7-1,1.8c-1.3,2.3-2.4,5-3.1,8
		c-0.7,3-1.1,5.5-1.1,7.5c0,2.5,0.7,4.6,2.2,6.3c1.5,1.7,3.8,2.6,6.8,2.6C609.1,415.5,611.8,414.7,614.1,413.1z"/>
	<path d="M625.4,397.9l0.9,8.8l0.5,5c0,0.3,0.1,1.2,0.8,1.5c0.3,0.2,0.7,0.2,1.4,0.2c0.6,0,1.2-0.2,1.7-0.5c0.6-0.4,1-0.8,1.2-1.5
		l0.9-2.4c2.1-5.6,4-10.1,5.6-13.5c1.7-3.6,2.9-4.4,3.4-4.5c0.1,0.2,0.2,0.6,0.3,1.3c0.1,1.5,0.2,3.4,0.2,5.8c0,2.4-0.1,5.6-0.4,9.3
		c-0.2,3.5-0.4,6.1-0.4,7.8c0,0.7,0.3,1.2,0.9,1.6c0.4,0.3,1,0.4,1.6,0.4c0.8,0,1.5-0.3,2.1-0.8c0.6-0.5,1-1.2,1-2
		c0-7.1-0.1-12.6-0.2-16.3c-0.1-3.4-0.4-6.2-0.9-8.4c-0.7-3.3-2.3-4-3.6-4c-2.2,0-4.3,2-6.5,6.3c-1.7,3.3-3.5,7.3-5.3,12
		c-0.1-1-0.2-2.1-0.3-3.4l-0.2-3.2c-0.2-4.4-0.4-7.5-0.6-9.5c-0.2-1.9-0.5-3.8-1.9-3.8c-0.9,0-1.7,0.3-2.4,0.8
		c-0.8,0.6-1.2,1.4-1.2,2.3c0,0.4,0.1,0.9,0.2,1.6C624.7,391.4,625.1,394.5,625.4,397.9z"/>
	<path d="M692,410.2c0,1.3,0.2,2.4,0.6,3.4c0.7,1.6,1.9,1.9,2.5,1.9c0.8,0,1.5-0.5,2.1-1.4c0.5-0.8,0.8-1.5,0.8-2.2
		c0-0.5-0.2-0.9-0.7-1.4c-0.2-0.2-0.2-0.3-0.2-0.3c0-0.7-0.1-1.7-0.1-2.9c0-1.3-0.1-2.6-0.1-3.9l-0.2-4.9c-0.1-2-0.1-3.3-0.2-4
		c-0.1-1.6-0.6-2.2-1.2-2.5c0.3-0.8,0.4-1.6,0.4-2.4c0-1.1-0.3-2.2-0.9-3.1c-0.6-0.9-1.3-1.5-2.1-2c-1.7-1-3.3-1-5.3,0
		c-1,0.5-2.2,1.3-3.8,2.6c-2.3,1.9-4.7,4.4-7,7.3c-2.3,2.9-4.2,5.9-5.7,8.8c-1.6,3-2.3,5.3-2.3,7.1c0,1.5,0.4,2.8,1.3,3.8
		c0.9,1,2.2,1.6,3.8,1.6c2.9,0,5.7-1.1,8.3-3.2c2.5-2.1,4.6-4.3,6.2-6.6c1.3-1.8,2.6-3.9,4-6.2l0,1.9
		C692.1,406.2,692,409.2,692,410.2z M680.3,408c-1.8,1.5-3.8,2.2-5.7,2.2c-0.5,0-0.7,0-0.7-0.8c0-1.3,0.6-3.1,1.9-5.5
		c1.3-2.5,3-5,5-7.5c2-2.5,3.9-4.5,5.7-6.1c1.8-1.6,2.8-1.8,3.2-1.8c0.6,0,0.9,0.2,1.3,0.6c0.4,0.5,0.5,1,0.5,1.6
		c0,1.3-0.2,2.4-0.6,3.5c-1.9,3.2-3.7,6-5.3,8.2C684,404.6,682.2,406.5,680.3,408z"/>
	<path d="M709.4,373.6L709.4,373.6c0-0.3,0-0.4,0-0.5c0-1.4-0.1-2-0.2-2.3c-0.2-0.8-0.8-1.2-1.6-1.2c-1.4,0-2.4,0.8-3,2.2
		c-0.4,1.1-0.7,2.3-0.7,3.6c-0.1,3.3-0.2,8.2-0.3,14.7c-0.1,6.5-0.2,12.1-0.2,16.7c0,2.5,0.2,4.3,0.7,5.6c0.4,1,1,2.4,2.3,2.4
		c0.8,0,1.5-0.2,2.2-0.5c1.2-0.6,1.4-1.4,1.4-1.9c0-0.2,0-0.3-1-2.7c-0.5-1.3-0.8-2.6-0.8-3.8c0-10.1,0.4-20.6,1.1-31.3
		C709.3,374.1,709.3,373.8,709.4,373.6z"/>
	<path d="M752.7,400.4L752.7,400.4c-1.7-1-4.3-1.9-7.4-2.6c-0.3-0.1-0.7-0.2-1.1-0.2c-0.3-0.1-0.6-0.1-1-0.3c-3-0.7-5-1.2-6.1-1.7
		c-0.9-0.4-1.1-0.8-1.1-1.2c0-1.2,0.6-2.2,1.7-3c1.3-1,2.8-1.7,4.5-2.2c2.1-0.6,3.1-0.8,3.6-0.8c0.1,0,0.2,0,0.3,0.1
		c0.4,0.3,0.9,0.4,1.3,0.4c1,0,1.8-0.5,2.3-1.4c0.4-0.7,0.6-1.4,0.6-2.1c0-0.7-0.3-2.2-3.1-2.2c-1.5,0-3.5,0.5-6.1,1.5
		c-2.6,1-4.9,2.3-6.9,4c-2.1,1.8-3.2,3.9-3.2,6.1c0,1.4,0.6,2.6,1.7,3.5c1,0.8,2.3,1.4,3.9,1.9c1.5,0.5,3.6,1,6.3,1.6
		c2.4,0.6,4.2,1,5.2,1.3c0.9,0.3,1.6,0.7,2.2,1.2c0.5,0.5,0.7,1.1,0.7,1.9c0,0.9-0.4,1.7-1.3,2.5c-1,0.9-2.3,1.7-3.9,2.3
		c-1.6,0.6-3.2,0.9-4.8,0.9c-0.4,0-0.8,0-1.1-0.1c0.1-0.2,0.1-0.4,0.1-0.6c0-0.2-0.1-1.3-1.7-1.3c-0.5,0-1.2,0.3-2.6,1.7
		c-1.2,1.2-1.7,1.9-1.7,2.6c0,0.9,0.5,1.7,1.4,2.2c0.8,0.4,2,0.6,4,0.6c2.7,0,5.3-0.5,7.8-1.6c2.5-1.1,4.5-2.5,6.1-4.2
		c1.6-1.8,2.4-3.8,2.4-5.8C755.8,403.3,754.7,401.5,752.7,400.4z"/>
	<path d="M767.1,386.5c-2.5,2.1-4.5,4.7-6,8c-1.5,3.2-2.3,6.5-2.3,9.9c0,3.6,1,6.4,2.9,8.2c1.9,1.8,4.4,2.7,7.2,2.7
		c3.4,0,6.4-1.2,8.7-3.5c2.3-2.2,4-4.6,5.1-7.2c1.5-3.5,1.7-4.6,1.7-5.2c0-1.8-1.1-1.9-1.4-1.9c-0.9,0-1.3,0.9-1.5,1.3
		c-0.2,0.4-0.3,0.7-0.4,0.9c-1.3,2.7-2.8,5.2-4.7,7.3c-1.8,2-4,3-6.9,3c-1.8,0-3.1-0.5-4-1.6c-1-1.1-1.4-2.7-1.4-4.8
		c0-1.5,0.2-3,0.5-4.6c2.6-0.5,5.1-1.2,7.5-2.1c2.6-1,4.8-2.3,6.5-3.7c1.8-1.5,2.8-3.2,2.8-4.9c0-1.6-0.7-2.9-2-3.7
		c-1.2-0.8-2.7-1.2-4.4-1.2C772.3,383.4,769.6,384.4,767.1,386.5z M765.9,394.6c0.3-0.6,0.7-1.3,1.1-2c0.9-1.3,2-2.5,3.3-3.4
		c1.3-0.9,2.5-1.3,3.9-1.3c0.7,0,1.4,0.1,1.9,0.4c0.4,0.2,0.5,0.5,0.5,0.6c0,0-0.1,0.5-1.7,1.7c-1.3,1-3,1.9-5,2.7
		C768.6,393.9,767.2,394.3,765.9,394.6z"/>
	<path d="M802.8,388.5c0.3,0,0.6,0.1,0.9,0.3c0.4,0.2,0.6,0.5,0.8,0.8c0.4,0.5,0.7,0.9,1,1.2c0.6,0.5,1.1,0.6,1.5,0.6
		c0.6,0,1.3-0.3,2-1c0.7-0.7,1.1-1.3,1.1-2c0-0.8-0.3-1.6-0.9-2.4c-0.6-0.7-1.3-1.4-2.3-1.8c-1-0.5-2-0.7-3-0.7
		c-1.3,0-2.7,0.7-4.3,2c-1.4,1.3-2.9,3.1-4.4,5.4c-0.7,1.2-1.4,2.5-2.1,3.8v-4.9c0-1.8-0.1-2.9-0.2-3.6c-0.3-1-1.1-1.6-2.2-1.6
		c-1.7,0-2.7,0.9-2.7,2.4c0,1.5,0.1,4,0.2,7.5c0.1,2.3,0.1,4.3,0.2,6c0,1.7,0.1,3,0.1,3.8c0,3.6,0.2,6.3,0.4,8.2
		c0.1,0.9,0.4,3.7,2.3,3.7c1.3,0,1.9-0.6,2.2-1.1c0.3-0.6,0.5-1.2,0.5-2.1l-0.2-2.4c0-0.7-0.1-1.8-0.2-3.2c-0.1-1.3-0.2-2.4-0.2-3.3
		c1.9-4.5,3.8-8.4,5.7-11.4C801.5,388.7,802.6,388.5,802.8,388.5z"/>
	<path d="M841.8,379.9c-0.7,0-1.4,0.2-1.8,0.6c-0.4,0.3-0.8,0.8-1.3,1.5c-2.4,3.2-4.6,7.3-6.4,12.1c-1.8,4.8-3.2,9.6-4.1,14.5
		c-0.1,0.5-0.2,1-0.2,1.4c-3.4-7.7-5.4-12.3-6.2-14.1c-2.5-5.3-4.2-8.6-5.1-9.8c-0.1-0.1-0.2-0.3-0.4-0.6c-0.2-0.3-0.4-0.5-0.7-0.7
		c-0.4-0.3-0.9-0.5-1.5-0.5c-0.9,0-1.8,0.6-2.6,1.7c-0.7,1-1.1,1.9-1.1,2.6c0,0.4,0.1,0.8,0.4,1.2c0.3,0.4,0.8,0.7,1.3,0.7
		c0.2,0,0.5-0.1,0.8-0.3c0.3,0.3,0.7,0.9,1.3,2.1c1,1.9,2.4,4.6,3.9,8.1l2.6,5.7c1.3,2.8,2.6,5.5,3.7,8c1.9,4.1,2.3,4.3,3,4.3
		c0.7,0,1.4-0.1,1.9-0.2l0.2,0.5v-0.6c0.3-0.1,0.6-0.3,0.8-0.5c0.6-0.5,1-1.2,1.2-2.1l0.3-2.1c0.3-1.8,0.5-3,0.6-3.6
		c1-5.1,2.5-9.9,4.3-14.3c1.8-4.3,3.7-7.7,5.8-10.1c0,0,0.2-0.2,0.8-0.6c0.6-0.4,1.3-0.9,1.3-1.7c0-0.5-0.2-0.9-0.9-1.8
		C843,380.5,842.5,379.9,841.8,379.9z"/>
	<path d="M851.7,406.9L851.7,406.9c-0.2-2.5-0.4-5.8-0.4-9.8l0.1-7.2c0-2.3-0.1-3.9-0.4-4.8c-0.4-1.2-1.3-1.9-2.7-1.9
		c-1,0-1.4,0.4-1.7,0.8c-0.2,0.4-0.4,0.9-0.4,1.6c0,1.7,0.1,4.1,0.2,7.3c0.1,3.2,0.3,6.4,0.4,9.7c0.3,5.1,0.6,8.4,0.8,10.3
		c0.2,1.6,0.7,3.5,2.2,3.6c0.1,0,0.2,0,0.3,0c0.6,0,1.1-0.1,1.5-0.4c0.6-0.4,1-1,1-1.8c0-0.6-0.1-1.8-0.4-3.6
		C851.8,407.8,851.7,407.1,851.7,406.9z"/>
	<path d="M851.2,375.9c0-0.4-0.2-0.8-0.8-1.6c-0.4-0.6-0.8-1-1.2-1.3c-0.5-0.6-1.2-1-1.9-1.3l-0.2-0.1h-0.2c-0.7,0-1.4,0.3-2,0.9
		c-0.6,0.6-0.9,1.3-0.9,2c0,0.9,0.8,1.7,1.4,2.2c0.9,0.7,1.8,1.1,2.7,1.1C850.8,377.8,851.2,376.6,851.2,375.9z"/>
	<path d="M877.2,399.1c-0.6,0-1.1,0.5-1.6,1.2c-0.4,0.5-0.7,0.9-0.7,1c-1.2,1.6-2.9,3.5-5,5.7c-1.1,1.1-2.2,2-3.2,2.6
		c-0.9,0.6-1.9,0.8-3.1,0.8c-0.5,0-1.7,0-1.7-3c0-1.8,0.6-4.4,1.7-7.8c1.1-3.4,2.5-6.4,4.3-9c1.5-2.2,2.9-3.4,4.4-3.5
		c0.1,0.2,0.2,0.7,0.3,1.7c0,0.8,0.1,1.4,0.3,1.9c0.2,0.9,0.9,1.4,1.8,1.4c1.1,0,1.4-1.4,1.6-2.2c0.2-1,0.3-1.9,0.3-2.6
		c0-0.7-0.2-1.4-0.6-2.1c-0.4-0.7-0.8-1.3-1.2-1.7c-0.8-0.8-1.9-1.3-3-1.3c-2.4,0-4.9,1.6-7.2,4.8c-2.2,3-4,6.6-5.4,10.6
		c-1.4,4.1-2.1,7.5-2.1,10.2c0,2,0.6,3.7,1.7,5.2c1.2,1.6,2.7,2.4,4.6,2.4c2.1,0,4-0.8,5.9-2.3c1.7-1.4,3.7-3.5,5.8-6
		c0.9-1,1.7-2.2,2.6-3.5c1.3-2,1.4-2.4,1.4-2.8C878.9,399.9,878.4,399.1,877.2,399.1z"/>
	<path d="M887.1,375.9c0-0.4-0.2-0.8-0.8-1.6c-0.4-0.6-0.8-1-1.2-1.3c-0.5-0.6-1.2-1-1.9-1.3l-0.2-0.1h-0.2c-0.7,0-1.4,0.3-2,0.9
		c-0.6,0.6-0.9,1.3-0.9,2c0,0.9,0.8,1.7,1.4,2.2c0.9,0.7,1.8,1.1,2.7,1.1C886.7,377.8,887.1,376.6,887.1,375.9z"/>
	<path d="M887.6,406.9L887.6,406.9c-0.2-2.5-0.4-5.8-0.4-9.8l0.1-7.2c0-2.3-0.1-3.9-0.4-4.8c-0.4-1.2-1.3-1.9-2.7-1.9
		c-1,0-1.4,0.4-1.7,0.8c-0.2,0.4-0.4,0.9-0.4,1.6c0,1.7,0.1,4.1,0.2,7.3c0.1,3.2,0.3,6.4,0.4,9.7c0.3,5.1,0.6,8.4,0.8,10.3
		c0.2,1.6,0.7,3.5,2.2,3.6c0.1,0,0.2,0,0.3,0c0.6,0,1.1-0.1,1.5-0.4c0.6-0.4,1-1,1-1.8c0-0.6-0.1-1.8-0.4-3.6
		C887.7,407.8,887.7,407.1,887.6,406.9z"/>
	<path d="M915.7,395.9c-1.1-1.4-2.6-2.9-4.2-4.2c-0.3-0.3-0.5-0.4-0.7-0.6c0.1-0.2,0.2-0.5,0.2-0.7c0-0.6-0.3-1.1-0.9-1.3
		c-0.3-0.1-0.7-0.2-1.4-0.2c-1.1,0-2,0.2-2.8,0.5c-1.4,0.6-1.6,1.5-1.6,2.1c0,0.6,0.3,1.2,1,1.9c0.5,0.5,1.3,1.2,2.4,2
		c1.6,1.1,2.8,2.2,3.7,3.2c0.8,0.9,1.2,1.9,1.2,3.1c0,1.1-0.4,2.3-1.3,3.7c-0.9,1.4-2,2.6-3.5,3.6c-1.4,1-2.9,1.4-4.5,1.4
		c-4.3,0-4.9-2-4.9-3.8c0-2.3,0.3-4.4,0.9-6.4c0.6-2,1.5-4,2.6-6c0.8-1.6,1.9-3.2,3.3-4.8c0.1-0.2,0.3-0.4,0.5-0.7
		c0.4-0.5,0.5-0.8,0.5-1.2c0-0.4-0.1-1.1-0.9-1.6c-0.5-0.3-1-0.4-1.5-0.4c-1,0-2,0.3-2.9,1c-0.8,0.6-1.6,1.5-2.3,2.7
		c-0.6,1.1-0.9,1.7-1,1.8c-1.3,2.3-2.4,5-3.1,8c-0.7,3-1.1,5.5-1.1,7.5c0,2.5,0.7,4.6,2.2,6.3c1.5,1.7,3.8,2.6,6.8,2.6
		c3,0,5.6-0.8,7.9-2.4c2.3-1.6,4.1-3.5,5.3-5.7c1.3-2.2,1.9-4.2,1.9-6C917.5,399.3,916.9,397.5,915.7,395.9z"/>
	<path d="M455.1,489.1c3.4,0,6.6-2.4,9.4-7c1.9-3.2,3.7-7.1,5.4-11.6c0,1.5,0,2.7,0,3.6l-0.1,3.4c-0.1,2.4-0.2,4.8-0.2,7.1
		c0,0.8,0.1,1.3,0.3,1.8c0.3,0.7,1,1.1,1.8,1.1c0.5,0,1.1-0.2,1.9-0.7c0.9-0.6,1.4-1.2,1.4-2c0-0.2,0-0.6-0.3-2.2
		c0-0.2-0.1-0.5-0.1-0.8c0-0.2-0.1-0.4-0.1-0.7c-0.1-1.5-0.3-4.7-0.5-9.4c-0.2-4.8-0.3-9.5-0.3-14.1c0-2.4,0-4.8,0.1-7.1
		c0.1-2.4,0.1-4,0.1-4.8l0.1-3c0-0.8-0.4-1.5-1.1-1.9c-0.6-0.4-1.2-0.6-1.8-0.6c-0.9,0-1.3,0.4-1.5,0.7c-0.2,0.3-0.3,0.6-0.4,1.2
		c-0.2,1.1-0.3,2.9-0.3,5.4c0,0.3,0.1,2.7,0.2,7.2l0,1.2c-0.4-0.4-1.1-0.7-2.3-0.7c-1.7,0-3.8,1.4-6.9,4.4c-2.8,2.8-5.4,6.1-7.6,10
		c-2.3,3.9-3.4,7.6-3.4,11c0,2.6,0.5,4.7,1.6,6.2C452,488.3,453.4,489.1,455.1,489.1z M462.9,476.4c-2.3,4.6-4.8,7-7.4,7
		c-0.5,0-0.9-0.2-1.1-0.7c-0.3-0.7-0.5-1.5-0.5-2.3c0-2.6,0.8-5.4,2.5-8.5c1.7-3.1,3.6-5.9,5.8-8.1c1.4-1.5,2.3-2.3,2.9-2.7
		c-0.2,0.5-0.2,0.8-0.2,1.1c0,0.4,0.2,0.8,0.6,1.1c0.3,0.2,0.5,0.2,0.8,0.2c0.6,0,0.9-0.4,1.6-1.3c0.5-0.7,1-1.4,1.4-2.2
		C467.5,466.1,465.4,471.6,462.9,476.4z"/>
	<path d="M492.3,470.1c2.6-1,4.8-2.3,6.5-3.7c1.8-1.5,2.8-3.2,2.8-4.9c0-1.6-0.7-2.9-2-3.7c-1.2-0.8-2.7-1.2-4.4-1.2
		c-2.8,0-5.4,1.1-8,3.2c-2.5,2.1-4.5,4.7-6,8c-1.5,3.2-2.3,6.5-2.3,9.9c0,3.6,1,6.4,2.9,8.2c1.9,1.8,4.4,2.7,7.2,2.7
		c3.4,0,6.4-1.2,8.7-3.5c2.3-2.2,4-4.6,5.1-7.2c1.5-3.5,1.7-4.6,1.7-5.2c0-1.8-1.1-1.9-1.4-1.9c-0.9,0-1.3,0.9-1.5,1.3
		c-0.2,0.4-0.3,0.7-0.4,0.9c-1.3,2.7-2.8,5.2-4.7,7.3c-1.8,2-4,3-6.9,3c-1.8,0-3.1-0.5-4-1.6c-1-1.1-1.4-2.7-1.4-4.8
		c0-1.5,0.2-3,0.5-4.6C487.4,471.8,489.9,471,492.3,470.1z M494.5,461.1c0.7,0,1.4,0.1,1.9,0.4c0.4,0.2,0.5,0.5,0.5,0.6
		c0,0-0.1,0.5-1.7,1.7c-1.3,1-3,1.9-5,2.7c-1.4,0.6-2.7,1-4,1.3c0.3-0.6,0.7-1.3,1.1-2c0.9-1.3,2-2.5,3.3-3.4
		C491.9,461.5,493.2,461.1,494.5,461.1z"/>
	<path d="M535,488.5c3.4,0,6.4-1.2,8.7-3.5c2.3-2.2,4-4.6,5.1-7.2c1.5-3.5,1.7-4.6,1.7-5.2c0-1.8-1.1-1.9-1.4-1.9
		c-0.9,0-1.3,0.9-1.5,1.3c-0.2,0.4-0.3,0.7-0.4,0.9c-1.3,2.7-2.8,5.2-4.7,7.3c-1.8,2-4,3-6.9,3c-1.8,0-3.1-0.5-4-1.6
		c-1-1.1-1.4-2.7-1.4-4.8c0-1.5,0.2-3,0.5-4.6c2.6-0.5,5.1-1.2,7.5-2.1c2.6-1,4.8-2.3,6.5-3.7c1.8-1.5,2.8-3.2,2.8-4.9
		c0-1.6-0.7-2.9-2-3.7c-1.2-0.8-2.7-1.2-4.4-1.2c-2.8,0-5.4,1.1-8,3.2c-2.5,2.1-4.5,4.7-6,8c-1.5,3.2-2.3,6.5-2.3,9.9
		c0,3.6,1,6.4,2.9,8.2C529.7,487.6,532.1,488.5,535,488.5z M540.4,461.1c0.7,0,1.4,0.1,1.9,0.4c0.4,0.2,0.5,0.5,0.5,0.6
		c0,0-0.1,0.5-1.7,1.7c-1.3,1-3,1.9-5,2.7c-1.4,0.6-2.7,1-4,1.3c0.3-0.6,0.7-1.3,1.1-2c0.9-1.3,2-2.5,3.3-3.4
		C537.7,461.5,539,461.1,540.4,461.1z"/>
	<path d="M573.3,486.5c0.5-0.9,1-1.9,1.4-3c0.4-1.2,0.6-2.1,0.6-2.7c0-1-0.7-1.7-1.7-1.7c-0.4,0-1,0.1-1.4,1.1
		c-0.2,0.4-0.3,0.7-0.4,1c-0.2,0.4-0.3,0.7-0.4,0.8c-0.2-0.2-0.5-0.5-1.1-1.2c-0.9-1.1-2-2.5-3.2-4.2c-1.1-1.5-2-3.1-2.8-4.6
		c1.2-2.2,2.5-4.4,3.9-6.4c1.4-2.2,2.5-3.6,3.1-4.3c0.4-0.4,0.7-0.7,1.1-0.8c0.6-0.3,0.9-0.5,1-0.6c0.4-0.3,0.5-0.7,0.5-1.2
		c0-0.6-0.3-2-2.8-2c-1.1,0-2,0.3-2.6,0.9c-0.5,0.5-1.2,1.3-2.2,2.7c-1.2,1.9-2.5,4.1-3.7,6.3c-0.2,0.3-0.3,0.5-0.4,0.8
		c-2-4.1-3.8-7.5-5.4-10.1c-0.6-1.1-1.2-1.8-1.6-2.3c-0.6-0.6-1.2-0.9-1.8-0.9c-0.5,0-1,0.3-1.3,0.7c-0.2,0.3-0.3,0.8-0.3,1.4
		c0,1.1,0.4,2.3,1.1,3.6c1,1.7,2.2,3.9,3.6,6.5c1.2,2.4,2.2,4.5,3,6.1l-0.7,1.3c-1.8,3.5-3.2,6.3-4.1,8.2c-1,2.1-1.5,3.8-1.5,5
		c0,0.7,0.2,1.5,0.5,2.1c0.5,1.2,1.2,1.4,1.8,1.4c0.6,0,1.4-0.3,2.3-0.8c0.8-0.5,1.6-1,2.2-1.7c0.9-0.8,1.2-1.4,1.2-2
		c0-0.5-0.2-0.9-0.6-1.2c-0.3-0.3-0.7-0.4-1.1-0.4c-0.3,0-0.6,0.1-1,0.3c0.1-0.4,0.4-1.2,1-2.7c0.5-1.2,1-2.3,1.5-3.2
		c0.3-0.6,0.7-1.3,1.1-2.1c2,3.3,3.8,6,5.1,8c1.7,2.4,2.9,3.4,4.1,3.4C572.3,488.3,573,486.9,573.3,486.5z"/>
	<path d="M599.8,480.3c4.1-1.8,6.2-4.3,6.2-7.6c0-2.4-1.3-4.5-3.9-6.4c-2.4-1.8-5.3-3.2-8.6-4.4c-2.8-1-5.4-1.7-7.7-2.1
		c0.1-0.3,0.1-0.5,0.1-0.7c0-0.6-0.3-1.5-2.2-1.5c-1,0-1.6,0.2-2,0.7c-0.2,0.2-0.4,0.5-0.6,0.9c-0.3-0.1-0.5-0.1-0.7-0.2
		c-0.4-0.2-0.6-0.3-0.7-0.3l0,0c-0.8-0.4-1.5-0.6-2.1-0.6c-0.7,0-1.6,0.4-1.6,2.6c0,0.9,0.4,1.6,1.2,2.1c0.6,0.4,1.5,0.6,2.6,0.7
		c0.4,0,0.8,0.1,1.1,0.1l0.1,15.2c-0.2-0.1-0.5-0.1-0.8-0.2c-1.3-0.4-1.6-0.4-1.8-0.4c-0.5,0-1.7,0.2-1.7,2.5c0,2.8,1.9,3,2.5,3
		c0.6,0,1.1,0,1.7-0.1c0,0,0,0,0,0L581,491c0,1.5,0,3,0.1,4.4c0.1,1.5,0.1,2.5,0.2,3.3c0.1,0.4,0.4,1.6,2.2,1.6
		c0.9,0,1.6-0.4,2.1-1.2c0.4-0.6,0.6-1.4,0.6-2.2c0-0.3,0-0.8-0.1-1.6c-0.2-1.9-0.3-4-0.3-6.2c0-1.6,0-3.5,0.1-5.8
		C591.4,482.8,596.2,481.8,599.8,480.3z M585.6,464.1c2.1,0.4,4.3,1,6.6,1.7c2.6,0.9,4.9,2,6.8,3.3c1.7,1.2,2.5,2.4,2.5,3.8
		c0,0.9-0.8,1.8-2.3,2.7c-1.8,1-4.1,1.9-6.7,2.5c-2.3,0.5-4.5,0.8-6.6,0.9c0-1.4,0-3.7-0.1-6.7C585.7,469,585.6,466.2,585.6,464.1z"
		/>
	<path d="M618.7,488.5c3.4,0,6.4-1.2,8.7-3.5c2.3-2.2,4-4.6,5.1-7.2h0c1.5-3.5,1.7-4.6,1.7-5.2c0-1.8-1.1-1.9-1.4-1.9
		c-0.9,0-1.3,0.9-1.5,1.3c-0.2,0.4-0.3,0.7-0.4,0.9c-1.3,2.7-2.8,5.2-4.7,7.3c-1.8,2-4,3-6.9,3c-1.8,0-3.1-0.5-4-1.6
		c-1-1.1-1.4-2.7-1.4-4.8c0-1.5,0.2-3,0.5-4.6c2.6-0.5,5.1-1.2,7.5-2.1c2.6-1,4.8-2.3,6.5-3.7c1.8-1.5,2.8-3.2,2.8-4.9
		c0-1.6-0.7-2.9-2-3.7c-1.2-0.8-2.7-1.2-4.4-1.2c-2.8,0-5.4,1.1-8,3.2c-2.5,2.1-4.5,4.7-6,8c-1.5,3.2-2.3,6.5-2.3,9.9
		c0,3.6,1,6.4,2.9,8.2C613.5,487.6,615.9,488.5,618.7,488.5z M624.1,461.1c0.7,0,1.4,0.1,1.9,0.4c0.4,0.2,0.5,0.5,0.5,0.6
		c0,0-0.1,0.5-1.7,1.7c-1.3,1-3,1.9-5,2.7c-1.4,0.6-2.7,1-4,1.3c0.3-0.6,0.7-1.3,1.1-2c0.9-1.3,2-2.5,3.3-3.4
		C621.5,461.5,622.8,461.1,624.1,461.1z"/>
	<path d="M654.4,462.7L654.4,462.7c0.4,0.5,0.7,0.9,1,1.2c0.6,0.5,1.1,0.6,1.5,0.6c0.6,0,1.3-0.3,2-1c0.7-0.7,1.1-1.3,1.1-2
		c0-0.8-0.3-1.6-0.9-2.4c-0.6-0.7-1.3-1.4-2.3-1.8c-1-0.5-2-0.7-3-0.7c-1.3,0-2.7,0.7-4.3,2c-1.4,1.3-2.9,3.1-4.4,5.4
		c-0.7,1.2-1.4,2.5-2.1,3.8V463c0-1.8-0.1-2.9-0.2-3.6c-0.3-1-1.1-1.6-2.2-1.6c-1.7,0-2.7,0.9-2.7,2.4c0,1.5,0.1,4,0.2,7.5
		c0.1,2.3,0.1,4.3,0.2,6c0,1.7,0.1,3,0.1,3.8c0,3.6,0.2,6.3,0.4,8.2c0.1,0.9,0.4,3.7,2.3,3.7c1.3,0,1.9-0.6,2.2-1.1
		c0.3-0.6,0.5-1.2,0.5-2.1l-0.2-2.4c0-0.7-0.1-1.8-0.2-3.2c-0.1-1.3-0.2-2.4-0.2-3.3c1.9-4.5,3.8-8.4,5.7-11.4
		c2.6-4,3.7-4.2,3.9-4.2c0.3,0,0.6,0.1,0.9,0.3C653.9,462.2,654.2,462.4,654.4,462.7z"/>
	<path d="M664.9,486.1c0.2,1.6,0.7,3.5,2.2,3.6c0.1,0,0.2,0,0.3,0c0.6,0,1.1-0.1,1.5-0.4c0.6-0.4,1-1,1-1.8c0-0.6-0.1-1.8-0.4-3.6
		c-0.4-3-0.5-3.7-0.5-3.9c-0.2-2.4-0.4-5.7-0.4-9.8l0.1-7.2c0-2.3-0.1-3.9-0.4-4.8c-0.4-1.2-1.3-1.9-2.7-1.9c-1,0-1.4,0.4-1.7,0.8
		c-0.2,0.4-0.4,0.9-0.4,1.6c0,1.7,0.1,4.1,0.2,7.3c0.1,3.2,0.3,6.4,0.4,9.7v0C664.4,480.9,664.7,484.2,664.9,486.1z"/>
	<path d="M668.3,449.1c0-0.4-0.2-0.8-0.8-1.6c-0.4-0.6-0.8-1-1.2-1.3c-0.5-0.6-1.2-1-1.9-1.3l-0.2-0.1h-0.2c-0.7,0-1.4,0.3-2,0.9
		c-0.6,0.6-0.9,1.3-0.9,2c0,0.9,0.8,1.7,1.4,2.2c0.9,0.7,1.8,1.1,2.7,1.1C668,451,668.3,449.8,668.3,449.1z"/>
	<path d="M701.1,472.6c0-1.8-1.1-1.9-1.4-1.9c-0.9,0-1.3,0.9-1.5,1.3c-0.2,0.4-0.3,0.7-0.4,0.9c-1.3,2.7-2.8,5.2-4.7,7.3
		c-1.8,2-4,3-6.9,3c-1.8,0-3.1-0.5-4-1.6c-1-1.1-1.4-2.7-1.4-4.8c0-1.5,0.2-3,0.5-4.6c2.6-0.5,5.1-1.2,7.5-2.1
		c2.6-1,4.8-2.3,6.5-3.7c1.8-1.5,2.8-3.2,2.8-4.9c0-1.6-0.7-2.9-2-3.7c-1.2-0.8-2.7-1.2-4.4-1.2c-2.8,0-5.4,1.1-8,3.2
		c-2.5,2.1-4.5,4.7-6,8c-1.5,3.2-2.3,6.5-2.3,9.9c0,3.6,1,6.4,2.9,8.2c1.9,1.8,4.4,2.7,7.2,2.7c3.4,0,6.4-1.2,8.7-3.5
		c2.3-2.2,4-4.6,5.1-7.2C700.9,474.4,701.1,473.2,701.1,472.6z M691,461.1c0.7,0,1.4,0.1,1.9,0.4c0.4,0.2,0.5,0.5,0.5,0.6
		c0,0-0.1,0.5-1.7,1.7c-1.3,1-3,1.9-5,2.7c-1.4,0.6-2.7,1-4,1.3c0.3-0.6,0.7-1.3,1.1-2c0.9-1.3,2-2.5,3.3-3.4
		C688.3,461.5,689.6,461.1,691,461.1z"/>
	<path d="M726.8,487.7c0-7.1-0.1-12.6-0.2-16.3v0c-0.1-3.4-0.4-6.2-0.9-8.4c-0.7-3.3-2.3-4-3.6-4c-2.2,0-4.3,2-6.5,6.3
		c-1.7,3.3-3.5,7.3-5.3,12c-0.1-1-0.2-2.1-0.3-3.4l-0.2-3.2c-0.2-4.4-0.4-7.5-0.6-9.5c-0.2-1.9-0.5-3.8-1.9-3.8
		c-0.9,0-1.7,0.3-2.4,0.8c-0.8,0.6-1.2,1.4-1.2,2.3c0,0.4,0.1,0.9,0.2,1.6c0.4,2.6,0.7,5.6,1,9.1l0.9,8.8l0.5,5
		c0,0.3,0.1,1.2,0.8,1.5c0.3,0.2,0.7,0.2,1.4,0.2c0.6,0,1.2-0.2,1.7-0.5c0.6-0.4,1-0.8,1.2-1.5l0.9-2.4c2.1-5.6,4-10.1,5.6-13.5
		c1.7-3.6,2.9-4.4,3.4-4.5c0.1,0.2,0.2,0.6,0.3,1.3c0.1,1.5,0.2,3.4,0.2,5.8c0,2.4-0.1,5.6-0.4,9.3c-0.2,3.5-0.4,6.1-0.4,7.8
		c0,0.7,0.3,1.2,0.9,1.6c0.4,0.3,1,0.4,1.6,0.4c0.8,0,1.5-0.3,2.1-0.8C726.5,489.2,726.8,488.5,726.8,487.7z"/>
	<path d="M750.7,472.3c-0.6,0-1.1,0.5-1.6,1.2c-0.4,0.5-0.7,0.9-0.7,1c-1.2,1.6-2.9,3.5-5,5.7c-1.1,1.1-2.2,2-3.2,2.6
		c-0.9,0.6-1.9,0.8-3.1,0.8c-0.5,0-1.7,0-1.7-3c0-1.8,0.6-4.4,1.7-7.8c1.1-3.4,2.5-6.4,4.3-9c1.5-2.2,2.9-3.4,4.4-3.5
		c0.1,0.2,0.2,0.7,0.3,1.7c0,0.8,0.1,1.4,0.3,1.9c0.2,0.9,0.9,1.4,1.8,1.4c1.1,0,1.4-1.4,1.6-2.2c0.2-1,0.3-1.9,0.3-2.6
		c0-0.7-0.2-1.4-0.6-2.1c-0.4-0.7-0.8-1.3-1.2-1.7c-0.8-0.8-1.9-1.3-3-1.3c-2.4,0-4.9,1.6-7.2,4.8c-2.2,3-4,6.6-5.4,10.6
		c-1.4,4.1-2.1,7.5-2.1,10.2c0,2,0.6,3.7,1.7,5.2c1.2,1.6,2.7,2.4,4.6,2.4c2.1,0,4-0.8,5.9-2.3c1.7-1.4,3.7-3.5,5.8-6
		c0.9-1,1.7-2.2,2.6-3.5c1.3-2,1.4-2.4,1.4-2.8C752.5,473.1,751.9,472.3,750.7,472.3z"/>
	<path d="M761.2,480.1L761.2,480.1c-0.2-2.5-0.4-5.8-0.4-9.8l0.1-7.2c0-2.3-0.1-3.9-0.4-4.8c-0.4-1.2-1.3-1.9-2.7-1.9
		c-1,0-1.4,0.4-1.7,0.8c-0.2,0.4-0.4,0.9-0.4,1.6c0,1.7,0.1,4.1,0.2,7.3c0.1,3.2,0.3,6.4,0.4,9.7c0.3,5.1,0.6,8.4,0.8,10.3
		c0.2,1.6,0.7,3.5,2.2,3.6c0.1,0,0.2,0,0.3,0c0.6,0,1.1-0.1,1.5-0.4c0.6-0.4,1-1,1-1.8c0-0.6-0.1-1.8-0.4-3.6
		C761.3,481,761.2,480.3,761.2,480.1z"/>
	<path d="M760.6,449.1c0-0.4-0.2-0.8-0.8-1.6c-0.4-0.6-0.8-1-1.2-1.3c-0.5-0.6-1.2-1-1.9-1.3l-0.2-0.1h-0.2c-0.7,0-1.4,0.3-2,0.9
		c-0.6,0.6-0.9,1.3-0.9,2c0,0.9,0.8,1.7,1.4,2.2c0.9,0.7,1.8,1.1,2.7,1.1C760.2,451,760.6,449.8,760.6,449.1z"/>
	<path d="M795.2,483.2c0-0.7-0.1-1.7-0.1-2.9c0-1.3-0.1-2.6-0.1-3.9l-0.2-4.9c-0.1-2-0.1-3.3-0.2-4c-0.1-1.6-0.6-2.2-1.2-2.5
		c0.3-0.8,0.4-1.6,0.4-2.4c0-1.1-0.3-2.2-0.9-3.1c-0.6-0.9-1.3-1.5-2.1-2c-1.7-1-3.3-1-5.3,0c-1,0.5-2.2,1.3-3.8,2.6
		c-2.3,1.9-4.7,4.4-7,7.3c-2.3,2.9-4.2,5.9-5.7,8.8c-1.6,3-2.3,5.3-2.3,7.1c0,1.5,0.4,2.8,1.3,3.8c0.9,1,2.2,1.6,3.8,1.6
		c2.9,0,5.7-1.1,8.3-3.2c2.5-2.1,4.6-4.3,6.2-6.6c1.3-1.8,2.6-3.9,4-6.2l0,1.9c-0.1,4.9-0.2,7.8-0.2,8.8c0,1.3,0.2,2.4,0.6,3.4
		c0.7,1.6,1.9,1.9,2.5,1.9c0.8,0,1.5-0.5,2.1-1.4c0.5-0.8,0.8-1.5,0.8-2.2c0-0.5-0.2-0.9-0.7-1.4
		C795.2,483.4,795.2,483.3,795.2,483.2z M778.4,481.2c-1.8,1.5-3.8,2.2-5.7,2.2c-0.5,0-0.7,0-0.7-0.8c0-1.3,0.6-3.1,1.9-5.5
		c1.3-2.5,3-5,5-7.5c2-2.5,3.9-4.5,5.7-6.1c1.8-1.6,2.8-1.8,3.2-1.8c0.6,0,0.9,0.2,1.3,0.6c0.4,0.5,0.5,1,0.5,1.6
		c0,1.3-0.2,2.4-0.6,3.5c-1.9,3.2-3.7,6-5.3,8.2C782.1,477.8,780.3,479.7,778.4,481.2z"/>
	<path d="M821.1,473.6L821.1,473.6c-1.7-1-4.3-1.9-7.4-2.6c-0.3-0.1-0.7-0.2-1.1-0.2c-0.3-0.1-0.6-0.1-1-0.3c-3-0.7-5-1.2-6.1-1.7
		c-0.9-0.4-1.1-0.8-1.1-1.2c0-1.2,0.6-2.2,1.7-3c1.3-1,2.8-1.7,4.5-2.2c2.1-0.6,3.1-0.8,3.6-0.8c0.1,0,0.2,0,0.3,0.1
		c0.4,0.3,0.9,0.4,1.3,0.4c1,0,1.8-0.5,2.3-1.4c0.4-0.7,0.6-1.4,0.6-2.1c0-0.7-0.3-2.2-3.1-2.2c-1.5,0-3.5,0.5-6.1,1.5
		c-2.6,1-4.9,2.3-6.9,4c-2.1,1.8-3.2,3.9-3.2,6.1c0,1.4,0.6,2.6,1.7,3.5c1,0.8,2.3,1.4,3.9,1.9c1.5,0.5,3.6,1,6.3,1.6
		c2.4,0.6,4.2,1,5.2,1.3c0.9,0.3,1.6,0.7,2.2,1.2c0.5,0.5,0.7,1.1,0.7,1.9c0,0.9-0.4,1.7-1.3,2.5c-1,0.9-2.3,1.7-3.9,2.3
		c-1.6,0.6-3.2,0.9-4.8,0.9c-0.4,0-0.8,0-1.1-0.1c0.1-0.2,0.1-0.4,0.1-0.6c0-0.2-0.1-1.3-1.7-1.3c-0.5,0-1.2,0.3-2.6,1.7
		c-1.2,1.2-1.7,1.9-1.7,2.6c0,0.9,0.5,1.7,1.4,2.2c0.8,0.4,2,0.6,4,0.6c2.7,0,5.3-0.5,7.8-1.6c2.5-1.1,4.5-2.5,6.1-4.2
		c1.6-1.8,2.4-3.8,2.4-5.8C824.1,476.5,823.1,474.7,821.1,473.6z"/>
	<path d="M483.4,531c-2.2,0-4,2.1-5.9,6.5c-1,2.3-1.9,4.9-2.9,7.9c0-1.6,0-3,0-4.1c0-3.8-0.3-6.7-0.8-8.7c-0.8-3-2.4-3.7-3.7-3.7
		c-2.5,0-4.9,2.9-7.5,9.1c-1.8,4.2-3.5,8.7-5.2,13.6l-0.1-3.8c-0.2-4.6-0.4-8.6-0.6-11.7c-0.3-4.3-0.6-5.3-0.8-5.7
		c-0.7-1.7-1.8-2-2.5-2c-0.6,0-1.2,0.4-1.7,1.1c-0.5,0.6-0.7,1.2-0.7,1.7c0,0.2,0,0.5,0.5,4.2c0.3,2.4,0.7,7.1,1.1,13.8
		c0.1,2,0.2,3.4,0.2,4.2c0.1,3.4,0.3,6.1,0.5,8.1c0,0.3,0.1,1.2,0.9,1.5c0.3,0.2,0.7,0.2,1.4,0.2c0.6,0,1.2-0.2,1.7-0.7
		c0.4-0.4,0.7-0.9,1-1.4l0.6-1.6c2.3-6.8,4.5-12.8,6.6-17.8c2.5-6,3.9-6.8,4.2-7c0.1,0.1,0.2,0.4,0.3,1c0.2,1.2,0.3,3.4,0.3,6.4
		c0,2.2-0.1,5.2-0.2,9c-0.2,3.4-0.2,6-0.2,7.6c0,1.3,0.8,2.1,2.1,2.1c0.8,0,1.5-0.3,2-0.8c0.5-0.5,0.7-1.1,0.8-1.9
		c5.8-20.8,8.2-22.1,8.6-22.1c0,0,1.1,0.2,1.8,5.7c0.5,4.3,0.8,10.6,0.8,18.8c0,1.3,0.8,2.1,2.1,2.1c0.8,0,1.5-0.3,2-0.8
		c0.5-0.5,0.8-1.2,0.8-1.9C490.7,540.2,488.4,531,483.4,531z"/>
	<path d="M520,543.9c-0.9,0-1.3,0.9-1.5,1.3c-0.2,0.4-0.3,0.7-0.4,0.9c-1.3,2.7-2.8,5.2-4.7,7.3c-1.8,2-4,3-6.9,3
		c-1.8,0-3.1-0.5-4-1.6c-1-1.1-1.4-2.7-1.4-4.8c0-1.5,0.2-3,0.5-4.6c2.6-0.5,5.1-1.2,7.5-2.1c2.6-1,4.8-2.3,6.5-3.7
		c1.8-1.5,2.8-3.2,2.8-4.9c0-1.6-0.7-2.9-2-3.7c-1.2-0.8-2.7-1.2-4.4-1.2c-2.8,0-5.4,1.1-8,3.2c-2.5,2.1-4.5,4.7-6,8
		c-1.5,3.2-2.3,6.5-2.3,9.8c0,3.6,1,6.4,2.9,8.2c1.9,1.8,4.4,2.7,7.2,2.7c3.4,0,6.4-1.2,8.7-3.5c2.3-2.2,4-4.6,5.1-7.2
		c1.5-3.5,1.7-4.6,1.7-5.2C521.4,544,520.3,543.9,520,543.9z M511.3,534.3c0.7,0,1.4,0.1,1.9,0.4c0.4,0.2,0.5,0.5,0.5,0.6
		c0,0-0.1,0.5-1.7,1.7c-1.3,1-3,1.9-5,2.7c-1.4,0.6-2.7,1-4,1.3c0.3-0.6,0.7-1.3,1.1-2c0.9-1.3,2-2.5,3.3-3.4
		C508.6,534.7,509.9,534.3,511.3,534.3z"/>
	<path d="M557.4,531c-2.2,0-4,2.1-5.9,6.5c-1,2.3-1.9,4.9-2.9,7.9c0-1.6,0-3,0-4.1c0-3.8-0.3-6.7-0.8-8.7c-0.8-3-2.4-3.7-3.7-3.7
		c-2.5,0-4.9,2.9-7.5,9.1c-1.8,4.2-3.5,8.7-5.2,13.6l-0.1-3.8c-0.2-4.6-0.4-8.6-0.6-11.7c-0.3-4.3-0.6-5.3-0.8-5.7
		c-0.7-1.7-1.8-2-2.5-2c-0.6,0-1.2,0.4-1.7,1.1c-0.5,0.6-0.7,1.2-0.7,1.7c0,0.2,0,0.5,0.5,4.2c0.3,2.4,0.7,7.1,1.1,13.8
		c0.1,2,0.2,3.4,0.2,4.2c0.1,3.4,0.3,6.1,0.5,8.1c0,0.3,0.1,1.2,0.9,1.5c0.3,0.2,0.7,0.2,1.4,0.2c0.6,0,1.2-0.2,1.7-0.7
		c0.4-0.4,0.7-0.9,1-1.4l0.6-1.6c2.3-6.8,4.5-12.8,6.6-17.8c2.5-6,3.9-6.8,4.2-7c0.1,0.1,0.2,0.4,0.3,1c0.2,1.2,0.3,3.4,0.3,6.4
		c0,2.2-0.1,5.2-0.2,9c-0.2,3.4-0.2,6-0.2,7.6c0,1.3,0.8,2.1,2.1,2.1c0.8,0,1.5-0.3,2-0.8c0.5-0.5,0.7-1.1,0.8-1.9
		c5.8-20.8,8.2-22.1,8.6-22.1c0,0,1.1,0.2,1.8,5.7c0.5,4.3,0.8,10.6,0.8,18.8c0,1.3,0.8,2.1,2.1,2.1c0.8,0,1.5-0.3,2-0.8
		c0.5-0.5,0.8-1.2,0.8-1.9C564.7,540.2,562.4,531,557.4,531z"/>
	<path d="M587,538.1c-0.3-0.3-0.5-0.4-0.7-0.6c0.1-0.2,0.2-0.5,0.2-0.7c0-0.6-0.3-1.1-0.9-1.3c-0.3-0.1-0.7-0.2-1.4-0.2
		c-1.1,0-2,0.2-2.8,0.5c-1.4,0.6-1.6,1.5-1.6,2.1c0,0.6,0.3,1.2,1,1.9c0.5,0.5,1.3,1.2,2.4,2c1.6,1.1,2.8,2.2,3.7,3.2
		c0.8,0.9,1.2,1.9,1.2,3.1c0,1.1-0.4,2.3-1.3,3.7c-0.9,1.4-2,2.6-3.5,3.6c-1.4,1-2.9,1.4-4.5,1.4c-4.3,0-4.9-2-4.9-3.8
		c0-2.3,0.3-4.4,0.9-6.4c0.6-2,1.5-4,2.6-6c0.8-1.6,1.9-3.2,3.3-4.8c0.1-0.2,0.3-0.4,0.5-0.7c0.4-0.5,0.5-0.8,0.5-1.2
		c0-0.4-0.1-1.1-0.9-1.6c-0.5-0.3-1-0.4-1.5-0.4c-1,0-2,0.3-2.9,1c-0.8,0.6-1.6,1.5-2.3,2.7c-0.6,1.1-0.9,1.7-1,1.8
		c-1.3,2.3-2.4,5-3.1,8c-0.7,3-1.1,5.5-1.1,7.5c0,2.5,0.7,4.6,2.2,6.3c1.5,1.7,3.8,2.6,6.8,2.6c3,0,5.6-0.8,7.9-2.4
		c2.3-1.6,4.1-3.5,5.3-5.7c1.3-2.2,1.9-4.2,1.9-6c0-2.1-0.6-3.9-1.9-5.5C590.1,540.9,588.7,539.5,587,538.1z"/>
	<path d="M615.7,530.5L615.7,530.5c-1-0.5-2-0.7-3-0.7c-1.3,0-2.7,0.7-4.3,2c-1.4,1.3-2.9,3.1-4.4,5.4c-0.7,1.2-1.4,2.5-2.1,3.8
		v-4.9c0-1.8-0.1-2.9-0.2-3.6c-0.3-1-1.1-1.6-2.2-1.6c-1.7,0-2.7,0.9-2.7,2.4c0,1.5,0.1,4,0.2,7.5c0.1,2.3,0.1,4.3,0.2,6
		c0,1.7,0.1,3,0.1,3.8c0,3.6,0.2,6.3,0.4,8.2c0.1,0.9,0.4,3.7,2.3,3.7c1.3,0,1.9-0.6,2.2-1.1c0.3-0.6,0.5-1.2,0.5-2.1l-0.2-2.4
		c0-0.7-0.1-1.8-0.2-3.2c-0.1-1.3-0.2-2.4-0.2-3.3c1.9-4.6,3.8-8.4,5.7-11.4c2.6-4,3.7-4.2,3.9-4.2c0.3,0,0.6,0.1,0.9,0.3
		c0.4,0.2,0.6,0.5,0.8,0.8c0.4,0.5,0.7,0.9,1,1.2c0.6,0.5,1.1,0.6,1.5,0.6c0.6,0,1.3-0.3,2-1c0.7-0.7,1.1-1.3,1.1-2
		c0-0.8-0.3-1.6-0.9-2.4C617.4,531.6,616.7,531,615.7,530.5z"/>
	<path d="M648.5,556.4c0-0.7-0.1-1.7-0.1-2.9c0-1.3-0.1-2.6-0.1-3.9l-0.2-4.9c-0.1-2-0.1-3.3-0.2-4c-0.1-1.6-0.6-2.2-1.2-2.5
		c0.3-0.8,0.4-1.6,0.4-2.4c0-1.1-0.3-2.2-0.9-3.1c-0.6-0.9-1.3-1.5-2.1-2c-1.7-1-3.3-1-5.3,0c-1,0.5-2.2,1.3-3.8,2.6
		c-2.3,1.9-4.7,4.4-7,7.3c-2.3,2.9-4.2,5.9-5.7,8.8c-1.6,3-2.3,5.3-2.3,7.1c0,1.5,0.4,2.8,1.3,3.8c0.9,1,2.2,1.6,3.8,1.6
		c2.9,0,5.7-1.1,8.3-3.2c2.5-2.1,4.6-4.3,6.2-6.6c1.3-1.8,2.6-3.9,4-6.2l0,1.9c-0.1,4.9-0.2,7.8-0.2,8.8c0,1.3,0.2,2.4,0.6,3.4
		c0.7,1.6,1.9,1.9,2.5,1.9c0.8,0,1.5-0.5,2.1-1.4c0.5-0.8,0.8-1.5,0.8-2.2c0-0.6-0.4-1.1-0.7-1.4
		C648.6,556.6,648.5,556.5,648.5,556.4z M631.7,554.4c-1.8,1.5-3.8,2.2-5.7,2.2c-0.5,0-0.7,0-0.7-0.8c0-1.3,0.6-3.1,1.9-5.5
		c1.3-2.5,3-5,5-7.5c2-2.5,3.9-4.5,5.7-6.1c1.8-1.6,2.8-1.8,3.2-1.8c0.6,0,0.9,0.2,1.3,0.6c0.4,0.5,0.5,1,0.5,1.6
		c0,1.3-0.2,2.4-0.6,3.5c-1.9,3.2-3.7,6-5.3,8.2C635.4,551,633.7,552.9,631.7,554.4z"/>
	<path d="M676.4,531.1c-2,0-4.3,0.9-6.7,2.5c-2.3,1.6-4.5,3.8-6.5,6.5c-1.1,1.4-2.1,3-3.1,4.7c-0.2,0.4-0.5,0.8-0.7,1.3
		c0-0.2,0-0.4,0-0.6c-0.3-5.2-0.4-12.6-0.4-22.3V520c0-1.2-0.2-2.4-0.7-3.4c-0.8-1.5-1.8-1.9-2.6-1.9c-1.4,0-2.3,0.9-2.3,2.4
		c0,0.3,0,0.6,0.1,0.9c0,0.3,0.1,0.5,0.1,0.8l0.1,0.6c0,0.2,0,0.3,0,0.6c0.1,1.3,0.3,6.5,0.7,15.6c0.3,9.1,0.5,16.1,0.5,20.8
		c0,0.6,0.2,1.2,0.6,1.9c0.2,0.3,0.8,1.2,1.8,1.2c0.6,0,1.4-0.2,2.1-1c-0.1,0.2-0.1,0.5-0.1,0.7c0,0.7,0.2,1.3,0.7,1.8
		c0.5,0.5,1.1,0.8,1.9,0.8c1.1,0,2.6-0.7,4.6-2.2c4.3-3.2,8-6.9,10.8-11.1c2.9-4.2,4.3-8.2,4.3-11.9c0-1.8-0.5-3.2-1.5-4.2
		C679.3,531.6,678,531.1,676.4,531.1z M660.3,557.4c0.1-0.2,0.1-0.4,0.2-0.7c0.6-2.6,1.4-5.1,2.4-7.4c1.1-2.3,2.2-4.4,3.3-6
		c1.5-2.1,3.1-3.9,4.8-5.2c1.6-1.2,3.2-1.9,4.6-1.9c0.5,0,0.8,0.1,0.9,0.2c0.2,0.2,0.3,0.6,0.3,1.1c0,1.8-0.6,3.9-1.8,6.3
		c-1.2,2.5-3,4.8-5.2,7c-2.2,2.2-4.7,3.9-7.4,5.1C661.5,556.3,660.8,556.8,660.3,557.4C660.3,557.4,660.3,557.4,660.3,557.4z"/>
	<path d="M690.7,552.3c0-10.1,0.4-20.6,1.1-31.3c0-0.5,0-0.9,0-1.1c0-0.3,0-0.4,0-0.5c0-1.4-0.1-2-0.2-2.3c-0.2-0.8-0.8-1.2-1.6-1.2
		c-1.4,0-2.4,0.8-3,2.2c-0.4,1.1-0.7,2.3-0.7,3.6c-0.1,3.3-0.2,8.2-0.3,14.7c-0.1,6.5-0.2,12.1-0.2,16.7c0,2.5,0.2,4.3,0.7,5.6
		c0.4,1,1,2.4,2.3,2.4c0.8,0,1.5-0.2,2.2-0.5c1.2-0.6,1.4-1.4,1.4-1.9c0-0.2,0-0.3-1-2.7C690.9,554.8,690.7,553.5,690.7,552.3z"/>
	<path d="M720.8,543.9c-0.9,0-1.3,0.9-1.5,1.3c-0.2,0.4-0.3,0.7-0.4,0.9c-1.3,2.7-2.8,5.2-4.7,7.3c-1.8,2-4,3-6.9,3
		c-1.8,0-3.1-0.5-4-1.6c-1-1.1-1.4-2.7-1.4-4.8c0-1.5,0.2-3,0.5-4.6c2.6-0.5,5.1-1.2,7.5-2.1c2.6-1,4.8-2.3,6.5-3.7
		c1.8-1.5,2.8-3.2,2.8-4.9c0-1.6-0.7-2.9-2-3.7c-1.2-0.8-2.7-1.2-4.4-1.2c-2.8,0-5.4,1.1-8,3.2c-2.5,2.1-4.5,4.7-6,8
		c-1.5,3.2-2.3,6.5-2.3,9.8c0,3.6,1,6.4,2.9,8.2c1.9,1.8,4.4,2.7,7.2,2.7c3.4,0,6.4-1.2,8.7-3.5c2.3-2.2,4-4.6,5.1-7.2
		c1.5-3.5,1.7-4.6,1.7-5.2C722.2,544,721.1,543.9,720.8,543.9z M712.1,534.3c0.7,0,1.4,0.1,1.9,0.4c0.4,0.2,0.5,0.5,0.5,0.6
		c0,0-0.1,0.5-1.7,1.7c-1.3,1-3,1.9-5,2.7c-1.4,0.6-2.7,1-4,1.3c0.3-0.6,0.7-1.3,1.1-2c0.9-1.3,2-2.5,3.3-3.4
		C709.5,534.7,710.7,534.3,712.1,534.3z"/>
	<path d="M746,546.8L746,546.8c-1.7-1-4.3-1.9-7.4-2.6c-0.3-0.1-0.7-0.2-1.1-0.2c-0.3-0.1-0.6-0.1-1-0.3c-3-0.7-5-1.2-6.1-1.7
		c-0.9-0.4-1.1-0.8-1.1-1.2c0-1.2,0.6-2.2,1.7-3c1.3-1,2.8-1.7,4.5-2.2c2.1-0.6,3.1-0.8,3.6-0.8c0.1,0,0.2,0,0.3,0.1
		c0.4,0.3,0.9,0.4,1.3,0.4c1,0,1.8-0.5,2.3-1.4c0.4-0.7,0.6-1.4,0.6-2.1c0-0.7-0.3-2.2-3.1-2.2c-1.5,0-3.5,0.5-6.1,1.5
		c-2.6,1-4.9,2.3-6.9,4c-2.1,1.8-3.2,3.9-3.2,6.1c0,1.4,0.6,2.6,1.7,3.5c1,0.8,2.3,1.4,3.9,1.9c1.5,0.5,3.6,1,6.3,1.6
		c2.4,0.6,4.2,1,5.2,1.3c0.9,0.3,1.6,0.7,2.2,1.2c0.5,0.5,0.7,1.1,0.7,1.9c0,0.9-0.4,1.7-1.3,2.5c-1,0.9-2.3,1.7-3.9,2.3
		c-1.6,0.6-3.2,0.9-4.8,0.9c-0.4,0-0.8,0-1.1-0.1c0.1-0.2,0.1-0.4,0.1-0.6c0-0.2-0.1-1.3-1.7-1.3c-0.6,0-1.2,0.3-2.6,1.7
		c-1.2,1.2-1.7,1.9-1.7,2.6c0,0.9,0.5,1.7,1.4,2.2c0.8,0.4,2,0.6,4,0.6c2.7,0,5.3-0.5,7.8-1.6c2.5-1.1,4.5-2.5,6.1-4.2
		c1.6-1.8,2.4-3.8,2.4-5.8C749,549.7,747.9,547.9,746,546.8z"/>
</g>
<g>
	<path d="M1428,571.9L1428,571.9v0.3l0.3,0.1c2.1,0.4,6,1.8,7.7,5.5c5.4,11.1,3.6,24,0.7,36.2l-0.1,0.5h3.1l0.1-0.3
		c0.3-0.8,0.5-1.6,0.8-2.4c1.6-4.9,3.3-10,2.9-15.2c-0.2-7.2-1-16.4-6.1-23.2c-1.7-2.5-4.7-3.7-9.3-3.8h-0.5l0.1,0.5
		C1427.9,570.5,1428,571.4,1428,571.9z"/>
	<polygon points="1546.5,831.2 1546.5,831.2 1546.5,831.2 	"/>
	<path d="M1554.8,756.5c0.6-0.7,1.3-1.4,1.9-2v-0.3c0.1-0.3,0.1-0.6,0.2-0.8C1556.2,754.4,1555.5,755.4,1554.8,756.5z"/>
	<path d="M1546.9,831.8c-0.1-0.2-0.3-0.4-0.4-0.6c0.6,1.3,1.3,2.7,2,4c-0.1-0.6-0.2-1.2-0.4-1.8
		C1547.7,832.9,1547.3,832.3,1546.9,831.8z"/>
	<path d="M771.4,843.5L771.4,843.5c-6-2.4-3.8,7.5,0.2,7.3c1.3,0,2.3-1,2.4-2.2C774.3,846.8,772.9,844.3,771.4,843.5z"/>
	<path d="M870.2,728.2L870.2,728.2c2.4,1.5,4.8,2.6,7.2,4.1c-2-4.1-4.4-7.9-5.6-12l-0.5-1.6c-2,7.2-9.6,12.5-18.4,12
		c-5.3-2.6-7.2-7.9-7.8-11.2c6.1-0.5,12.7-0.9,17.3-5.3c0.3-7.5-10.1-6-15.4-5.1c1.8-1.9,3.8-3.2,6.2-4.1c-1-0.7-2.3-1.6-3.6-2.3
		c1.6-2.1,5.2-2.6,7.2-4.3l1.3-0.9c-3.9,0.3-7.8,0.5-11.4,1v7.5l-1.5-0.7c-1.3,8.7-4.2,18.5,0.7,26.4
		C853.8,736.5,865.1,731.9,870.2,728.2z"/>
	<path d="M819.4,889.2c3,0,4.3-5,1.9-6.6C816.8,879.8,814.6,889,819.4,889.2z"/>
	<path d="M788.8,845.4L788.8,845.4c-6.2-2.4-3.9,7.5,0.2,7.3c1.3,0,2.3-1,2.4-2.2C791.7,848.8,790.3,846.3,788.8,845.4z"/>
	<path d="M826.9,718.3L826.9,718.3c7.9-3.5,8.3-11.5,8.3-17c-0.5,1-1.2,2.3-1.8,3.2c-2,3.7-4,7.5-8.8,7.6c-0.8-4.3-1.6-8.5-2.4-12.6
		c-1.5,4.3-1.3,8.7-0.9,12.9C823.1,714.3,825.1,716.3,826.9,718.3z"/>
	<path d="M720.3,677.3c0.8-1.2,1.9-2.8,2.6-4c-2.6-0.7-5.3-1.5-8.1-2.2C713.7,675.1,717.4,676.2,720.3,677.3z"/>
	<path d="M924,705.2L924,705.2c4-1.9,8.8-3.5,10.7-7.9c-3.6,0.9-7.4,2-10.7,3.1V705.2z"/>
	<path d="M930.5,690.1l0.3-0.7c-4,0.6-7.6,3.1-9.8,6.7C925.7,696.3,929.7,694,930.5,690.1z"/>
	<path d="M921.5,711.4L921.5,711.4c4.9,0.7,9.7,0.7,13.8-3.4l0.6-0.6C930.6,706.1,925,707.4,921.5,711.4z"/>
	<path d="M897.1,714.7L897.1,714.7c2.6-0.9,4-4.1,5.3-6.6c1.8-2.8,1.5-6.3,0.9-9.6l-0.4-2.5l-0.7,1.2c-2.4,4.1-0.6,11.7-6.5,12.9
		c-5.2-1.9-2.7-9.2-4.5-13.5c-2.5,3-3.8,7.5-2.9,11.2C889,711.5,893.1,715.6,897.1,714.7z"/>
	<path d="M910.4,706.8c-2.7,3.7-5.2,7.5-7.8,11.2C907.5,717.3,914.6,711.7,910.4,706.8z"/>
	<path d="M1317.3,525.7L1317.3,525.7c-4.8,6.4-6.9,12.6-6.2,18.4l0.1,0.4h0.4c0.6,0,1.8,0.1,2.4,0.1h0.5v-0.5
		c-0.2-4.9,1.9-10.2,6-15.6l1.5-2.1c2.1-3,4.3-6,7.4-8.1c0.7-0.6,1.6-1.1,2.4-1.7c2-1.3,4.1-2.6,4.9-5.1l0.2-0.7l-0.7,0.2
		C1327.7,513,1321.6,519.9,1317.3,525.7z"/>
	<path d="M1305.8,527.4c0.5,0,1.6-0.1,2.2-0.1h0.3l0.1-0.3c1.5-5.6,5.4-10.1,9.3-14.5l1.1-1.3c1.1-1.4,2.6-2.4,4.1-3.5
		c2.3-1.6,4.7-3.3,5.7-6.2l0.3-0.8l-0.8,0.3c-8.8,2.8-14.8,10.6-19.7,16.8c-2,2.4-3,5.6-3,9.2v0.5L1305.8,527.4L1305.8,527.4z"/>
	<path d="M1341,582.2L1341,582.2l0.1,0.5h0.4c1.2-0.1,2.5-0.1,3.8-0.1h0.5v-0.4c0.1-1.1,0.3-2.3,0.5-3.4l0.1-0.5h-0.5
		c-1.6,0-3.4,0.1-5.2,0.8l-0.3,0.1l0.1,0.4C1340.6,580.3,1340.8,581.5,1341,582.2z"/>
	<path d="M1151.4,905c2-0.3,7.2-1.3,9.3-4.6c1-1.5,1.1-3.2,0.5-5.2l-0.2-0.5l-0.5,0.3c-0.7,0.5-1.4,1.1-2.1,1.7
		c-1.5,1.4-2.9,2.7-5,2.5c-7.9,0.6-15.6-1.2-23.1-3c-5.1-1.2-10.4-2.4-15.7-2.9h-0.4l-0.1,0.4c-0.2,0.7-0.3,1.5-0.4,2.3
		c-0.3,2-0.6,4.2-2.1,5.6c-2.5,2.5-6.1,2.7-9.7,2.9c-0.6,0-1.3,0.1-1.9,0.1c-1.4,0.1-3-0.3-4.5-0.7c-2.6-0.7-5.2-1.4-7.7,0.2
		l-0.2,0.1v0.3c0.1,0.8,0.3,1.6,0.5,2.4c0.5,1.9,0.9,3.6-0.3,5.2c-3.9,7.2-12.2,10.3-20.4,12.8c-1.6,0.6-3.4,0.9-5.2,1.2
		c-3.4,0.6-6.9,1.3-9.5,3.7l-0.6,0.6l0.9,0.1c3.1,0.5,6.2,0,9.2-0.5c1.7-0.3,3.5-0.6,5.3-0.7l0.3,1.5c1,5.7,2.2,12.3,6.9,16.4
		c1.4,1.4,3.2,1.6,5,1.6h3.1l0.1-0.2c0.2-0.3,0.5-0.6,0.7-0.9c1.7-2.1,3.4-4.2,3.7-7c0.6-5.3,0.4-10.7,0.2-16
		c-0.1-1.6-0.1-3.3-0.1-4.9c2.7-3,5.7-6.4,6.6-10.9h1.8c-0.4,8.8,1.6,17.7,5.9,25.9c1.9,3.4,6.1,6.1,10.3,4.4
		c4.3-2.6,7.3-7.7,8.2-14c0.3-2.1,0.6-4.3,0.9-6.4c0.8-5.8,1.7-11.9,1.5-17.9c2.1,0.1,4.2,0.3,6.3,0.4v4.9c-0.1,6.3-0.2,12.8,1.7,19
		c1.4,3.5,4.3,7.1,8.2,6.4h0.1c3.6-1.7,6.6-4.8,8.3-8.7C1149.9,916.7,1151.3,910.6,1151.4,905z M1082.2,942.5L1082.2,942.5
		c-0.2,1.2-1,2.1-2.2,2.3c-1.4,0.3-2.8-0.3-3.6-1.4c-3.3-4.2-4.2-9.6-4.7-15.3c2.7-1,5.3-2.1,7.9-3.2c1-0.4,2-0.8,3-1.3l0.1,0.6
		C1083.2,930.4,1083.7,936.6,1082.2,942.5z M1116.2,918.6L1116.2,918.6c-0.2,1.8-0.5,3.7-0.7,5.5c-0.3,3.5-1.3,8.3-4.6,11.5
		c-3.2,1.3-5-1.8-6.7-5.5l-0.1-0.3c-3.4-6.8-3.3-14.7-2.9-20.2c0.4,0,0.9-0.1,1.3-0.1c3.3-0.2,6.7-0.4,9.9-1.9
		c1.5-1,2.8-2.2,4.1-3.4c0.3-0.3,0.6-0.5,0.9-0.8C1117.5,908.5,1116.8,913.6,1116.2,918.6z M1142.5,922.5L1142.5,922.5
		c-0.7,2-2.3,3.3-4,4.6c-0.3,0.2-0.6,0.5-0.9,0.7c-1.8-1.3-2.9-3-3.3-4.9c-1.3-7.5-1.4-13.9-0.3-19.7c1.5,0.2,3.1,0.4,4.6,0.7
		c2.4,0.4,4.9,0.8,7.4,0.9C1146.1,910.1,1144.9,915.9,1142.5,922.5z"/>
	<path d="M1494.8,868L1494.8,868l-0.5,0.2c-2.2,0.7-3.7,2.3-5.1,3.8c-0.4,0.4-0.8,0.8-1.1,1.2c-6.2,5.5-15.9,13-27.3,13.8h-1.8
		c-1.9,0.1-3.9,0.2-5.1-1.2c-1.1-1.5-1.2-3.3-1.3-5.2c0-0.8-0.1-1.6-0.2-2.4l-0.1-0.3h-0.3c-3.5-0.4-6.3,1.5-9.1,3.2
		c-1.2,0.8-2.4,1.6-3.7,2.1c-0.7,0.3-1.4,0.7-2.1,1c-7,3.4-14.2,7-22.1,6.3c0.3-1.9,0.7-3.7,1-5.5c0.2-0.7,0.3-1.5,0.4-2.2l0.1-0.4
		l-0.4-0.1c-2.6-0.4-4.8,0.6-7,1.6c-1.2,0.5-2.5,1.1-3.7,1.4c-7,2.1-14.3,1.9-21.4,1.7c-4.2-0.1-8.6-0.2-12.9,0.1l-1,0.1l0.8,0.7
		c4.6,4,11,4.4,16.7,4.4c-0.2,1.3-0.4,2.7-0.6,4.1c-0.9,5.6-1.9,11.5,1,16.7c0.9,1.7,2.5,2.7,4.5,3c2.4,0.3,5.1-0.6,6.8-2.3
		c4.3-3.7,6.4-8.8,8.5-13.8c0.8-1.9,1.6-3.8,2.5-5.7c1.3,0.7,2.6,1.5,4.2,2.4c-2.7,7.1-2.6,16,3.6,20.2l0.1,0.1
		c0.9,0.3,1.9,0.4,2.8,0.4c4.1,0,7.8-2.4,10-4.8c4.8-5.7,7.7-12.7,10.4-19.4c0.8-1.8,1.5-3.7,2.3-5.5c0.5-1.5,2-2.1,3.5-2.5
		c-0.7,1.9-1.5,3.8-2.3,5.7c-2.9,6.9-5.9,14-4.3,21.7c0.7,1.9,2.3,3.3,4.3,3.7c2.2,0.4,4.4-0.3,5.8-1.9c4.9-4.8,8.5-10.6,12-16.3
		c1.3-2.3,2.5-4.4,3.9-6.4c0.9-0.4,1.9-0.8,2.9-1.2c6.6-2.7,13.4-5.4,18.3-10.9c0.7-0.9,1.6-1.7,2.5-2.6c2.5-2.3,5.1-4.7,4.6-8.5
		L1494.8,868z M1401.8,900.5c-0.7,1.6-1.4,3.2-2.1,4.9c-1.1,2-3.4,5.5-6.9,6.4c-2.2-1.1-2.3-4.1-2.3-6.6v-1
		c0.2-4.1,0.3-8.7,3.1-11.9c3.4-1,7.1-1.2,10.6-1.4c0.5,0,1.1,0,1.6-0.1C1404.6,894.1,1403.2,897.3,1401.8,900.5L1401.8,900.5z
		 M1429.8,904.9c-0.4,0.6-0.7,1.3-1.1,1.9c-1.7,2.6-4.3,6.6-8.2,6.1c-5.4-4.3-2.9-12.4-0.8-17.1c4.4-0.6,8.6-2.2,12.7-3.7
		c1.3-0.5,2.5-0.9,3.8-1.4C1435.1,895.9,1432.4,900.5,1429.8,904.9z M1455.5,899.7L1455.5,899.7c-0.9,1.3-1.8,2.7-2.7,4.1
		c-2.5,4-4.8,6.6-7.6,8.3c-1.8-6,0.5-11.9,2.9-17.7c0.6-1.5,1.2-3,1.7-4.4c3.3,1.9,7,2.4,10,2.7
		C1458.6,895.1,1457.1,897.4,1455.5,899.7z"/>
	<path d="M1267.6,444.7c0.6,0.6,1.1,1.3,1.6,1.9C1268.5,445.6,1267.9,444.8,1267.6,444.7z"/>
	<path d="M1183.1,580.3L1183.1,580.3c-1.6-0.8-3.2-1.6-4.7-2.6c0,0-0.1-0.1-0.2-0.1c-0.5,1.2-1,2.5-1.6,3.7c1.2,0.7,2.4,1.4,3.7,1.9
		c-3.3,9.7-8.4,18.7-15.5,26.7C1173.3,601.2,1179.4,591.2,1183.1,580.3z"/>
	<path d="M1179.2,563.7c0,0.2-0.1,0.4-0.2,0.5C1179.2,564.1,1179.2,563.9,1179.2,563.7z"/>
	<path d="M1193.9,411.8L1193.9,411.8c3.6-2.1,8.3-1.6,12.1-3.2c2.9-4.3,4.1-9.5,2.5-14.4c-2.8-0.8-5.9-2.8-8.8-1.1
		c-17.1,7.9-34.4,16-53.3,20.3c-6.3,2.4-23.2,1.4-14.1,14.8C1153.2,424.8,1175.1,421.4,1193.9,411.8z"/>
	<path d="M961.5,373.5c-0.2-0.8-0.4-1.5-0.6-2.3C960.6,372.2,960.4,373.1,961.5,373.5z"/>
	<path d="M1512.9,837.2c-2.8-11.2-6.6-19.5-12-25.9c-2.8-3.5-6.7-6-10.4-8.3c-0.9-0.5-1.7-1.1-2.6-1.6c-1.7-1-2.5-2.8-3.4-4.6
		c-0.7-1.4-1.3-2.9-2.4-4c-7.7-8.6-19.6-10.9-28.2-11.3c-20.7-0.8-38.6,2.6-53.2,10.1c-4.3,2.3-9.9,5.4-15,9.2
		c-6.6-7.9-16.5-12.5-27.3-12.9c4.6-7.7,10.1-16.5,17-24c1.5-1.9,3.9-2.4,6.3-2.9l1.2-0.3c2.5-0.5,5-0.9,7.5-1.4
		c13.7-2.6,27.8-5.3,42-5.5c3.9,0,7.8-0.2,11.6-0.4c6.6-0.3,13.4-0.6,20-0.1c2,0.2,4,0.2,6,0.3c3.3,0.1,6.7,0.2,9.9,0.9
		c3.4,0.7,6.9,1.2,10.3,1.6c3.4,0.5,6.9,0.9,10.4,1.6c1.4,0.2,2.3,1.3,3.3,2.3l1.3,1.3l0.3-0.5c1-1.6,1.9-3.1,2.8-4.5l0.1-0.2
		l-0.1-0.2c-7.7-15-20-27.5-30.9-38c-6.4-6.5-14.1-11-22.7-15.8c0.9-0.9,1.8-1.8,2.8-2.7c1.6,2,4.4,3,6.7,1.4
		c-4.1-0.8-7.9-2.2-11.4-4.1c-1.1,1.1-2.3,2.3-3.7,3.2c-1.5-0.4-3.1-0.9-4.6-1.4c-5-1.6-10.2-3.2-15.6-3.8c-7-1.2-14.1-1-21.1-0.8
		c-1.1,0-2.2,0.1-3.3,0.1c3.4-11,7.3-31.3-2.6-48.3c8.8-4.4,12-14.8,10.5-22.9c-1.5-8.1-4.1-13.6-8.1-17.5
		c-5.1-5.1-10.7-10.2-17.8-11.8c-5.1-1.2-10.7-2.3-16.5-2.5c-0.1-0.3-0.2-0.6-0.3-0.8c-0.5-1.3-0.9-2.7-1.8-4.1
		c-0.9-0.9-2-1.6-3-2.2c-1.2-0.7-2.3-1.5-3.2-2.4c-0.4-2,0.4-3.8,1.2-5.7c0.9-2,1.8-4.1,1.2-6.4c-0.2-3.7-3.7-5.4-6.6-6.8
		c-0.5-0.2-1-0.5-1.4-0.7c-0.2-1-0.3-2.1-0.5-3.2c-0.5-4.2-1.1-8.5-4.8-11c-6.1-4.2-13.7-1.4-19.8,0.9c-0.6,0.2-1.1,0.4-1.7,0.7
		l-0.8,0.5c-5.4,3.2-11.6,6.9-14.6,13c-2,5.2,2.4,9,6,12c0.6,0.5,1.2,1,1.7,1.5c-0.9,2.6-1.9,5.2-1.4,8.1c1.3,3.3,4.7,4.3,7.8,5.2
		c0.5,0.1,0.9,0.3,1.3,0.4v0.4c0.2,2.5,0.3,5.1-1.8,6.6c-1.8,0.9-3.7,1.6-5.6,2.2c-1.8,0.6-3.6,1.2-5.3,2c-12.7,5.9-24,16-31.8,28.2
		c-0.4,0.5-0.7,1.1-1.1,1.6c-1.2,1.9-2.3,3.6-4.5,3.9c-1.5-1.9-3.1-3.8-4.8-5.6l-0.3-1.5h-1.1c-1.8-1.8-3.7-3.5-5.6-5.2
		c5.6-8,10.4-16.9,13.8-26.7c4.1-10.8,10.2-28.9,4.4-25.7c-2.8,1.6-7.1,2.5-11.4,2.9c1-1.7,2-3.4,2.9-5.2c7.8-24.8,11.9-51,8-77
		c1.5-0.2,3.5,4.4,5,4.3c-3.5-13.7-8.7-30.4-16.8-43c-1.3-2-2.6-3.9-4.1-5.6c1.2,1.7,2.6,4.1,3.5,5.1c-3.4-3.2-8.7-11.6-11.8-14.4
		c-2.4-2.2-4.8-4.4-7.1-6.7c-0.1,0-0.2,0-0.3,0.1v-0.4c-0.8-0.8-1.7-1.6-2.5-2.5c0.4,0.7,0.8,1.4,1,2.2c0.1,0.3,0.1,0.5,0.2,0.8
		c-1.1-1.1-2.1-2.2-3.1-3.2c0-0.1-0.1-0.2-0.1-0.3c-0.3-0.8-0.7-1.5-1.2-2.1c-0.7-0.6-1.4-1.2-2.1-1.9l-0.9-0.8
		c0.7,0.3,1.3,0.7,2,1.1l-0.3-0.3c-0.6-0.3-1.3-0.6-1.9-1l-1.2-1.1c-0.3-0.2-0.7-0.3-1-0.5c-0.5-0.4-1-0.9-1.5-1.4
		c-0.2-0.2-0.4-0.4-0.5-0.6c-0.6,0-1.2,0-1.8-0.1l-16.3-33.2c-0.6-1.2-0.9-2.5-1-3.9c0-1.2,0.1-2.4,0.2-3.7c0.1-0.4,0.2-0.8,0.3-1.3
		c-1.4-1.6-1.8-3.8-0.2-6.2c9.6-14.8,14.4-35.5,9.6-52.6c-1.6-5.8-4.4-11.2-7.7-16.3c-1.2,0.2-2.4,0.6-3.6,0.9
		c-0.6-2.5-2.5-4.7-5.7-4.9c-7.6-5.3-18.5-5.6-27.9-6.3c-7.8,4.4-15.2,9.3-21.8,15.3c-1,4.2-3.9,7.9-8.8,9.4
		c-1.4,1.7-3.3,3.1-5.7,3.9c0,0.4,0.1,0.8,0.1,1.2c-1.1-0.2-2.1-0.3-3.1-0.5c-0.3,0-0.5,0.1-0.8,0.1c-3.1,0.3-5.7-0.3-7.9-1.4
		c-40.9-4.9-83.5,4.6-118.3,25.3c-3.9-4.3-7.9-8.5-11.9-12.8c-1.4-0.5-4.2-1.6-5.6-2.1c-5.4,1.5-10.5-0.9-15.5-2.7
		c-11.2-4.9-23.4,0.5-34.4,3.3l0.6,0.3c-0.3-0.1-0.6-0.1-0.9-0.2c-8.1,8.1-12.6,18-14.2,28.5c-3.8,7.8-3.1,17.6-0.6,25.7
		c0.7,2.3,1.7,4.4,2.9,6.4c0.7,2.6,1.5,5.2,2.4,7.7c1.2,1.3,2.3,2.6,3.5,3.8c0.9,0.9,2.6,1.9,4.1,3.2c0.8,0.6,1.5,1.3,2.2,2
		c0.3,0.4,0.6,0.8,0.8,1.2c0.1,0,0.2-0.1,0.2-0.1c-0.1,0.1-0.1,0.1-0.2,0.1c0.1,0.1,0.1,0.2,0.2,0.3c0.8,1.1,2.1,3.4,3.5,5.1
		l0.3,0.6c0.6,1.3,0.9,2.7,1,4.1c0.5,0.2,1,0.5,1.5,0.7c-1.2,4-2.2,8-2.4,12.2c-0.4,4.9-0.3,9.8,0,14.7c-0.1,0.1-0.3,0.1-0.4,0.2
		c0.1,6.9-0.4,13.8-2.9,20.5c-0.7,2.3-1.7,4.4-2.8,6.5l-0.6,0.1l-0.4,1.8c-4.5,7.5-11,13.7-15.9,21c2.1-0.3,5.9-0.8,8.4-1.2
		l-0.3,2.8l0,0c-2.1,4.6-4,9.3-5.6,14.1c-1,13.7-3.9,31.6-1.9,45.4c3.5,0.9,7,1.9,10.5,2.9c1.9,14,8.7,26.6,11.3,40.4
		c1.1-0.5,3.4-1.3,4.6-1.8c4.1,4.9,8,10.1,12.1,15.2c-2.1,0.4-4.2,0.5-6.3,0.5l1.8,2.9c-7.9,1.1-15.3,1.8-15.3,1.8l4.9,6.6l-0.2,0.2
		h-0.1l1.8,3.4L960,628l1.5,2c6,9.1,13.3,16.6,21.3,22.8c-0.7,0.3-1.6,0.6-2.4,0.9c0.6,0.7,1,1.7,1,2.9c0.1,1.3,0.2,2.5,0.4,3.7
		c-3.7,3.5-5.9,8.1-7.8,12.7c-6.1,8.1-10.9,17.3-14.5,27.6l-0.8-0.2c-0.4,2.4-0.9,4.8-1.3,7.2c-0.1,0.7-0.4,1.3-0.8,1.9
		c-0.5,2.2-1.2,4.5-1.8,6.6v0.1c-3.6-13.2-6.7-26.5-9.1-40c-0.1,0.9-0.3,1.8-0.4,2.7c-1.2-1.2-2.5-2.6-3.5-3.9
		c0.5-5,0.7-10.1,0.7-15.4c-8.9-4.1-14.4,4.4-18.8,10.4c-3.4-0.3-7.2-0.7-9.9-1c-1.3-2.4-2.7-4.9-4-7.1c4.9-5.2,8.1-10.7,9.2-16.5
		c-13.9-8.2-30.4,3.4-35.2,7.5c-4.6-0.6-9.7-0.6-13.7-2.8c-6.7-3.6-14.7-5.6-23.9-5.9c-4.4,0.1-7.2,4.1-9.5,7.6
		c2.1-0.3,4.1-0.7,6.1-1.2c11.2-3.5,20.6,1.6,29.8,7.5c-1.3,4.8-2.4,9.2-3.3,13.5c-2.9-1.2-6-2.4-9.2-3.4l0.6,4.3
		c-3.5-0.7-6.8-1.6-10.4-2.6c2.4-1.8,4.9-3.7,7.9-5.7c-5.8-3.4-12.9-5.2-16.2-11.2c-1.3,1-2.7,2.3-4,3.2c2.2,2.7,4.2,5.2,6.2,7.5
		c0,3.5,0,7,0.2,10.1c-6,0.3-11.9,1-18,0.7c-1.3-0.7-2.6-1.6-3.6-2.6c-2.2-2.2-4.6-4.1-7.9-4.1c-5.9,2.2-7.2,8.8-7.5,14.7
		c-0.6,10.9-2.2,21.3-3.5,32c-1.9,14.4-0.9,28.7-2.9,43.1c-14.2-12.6-20.2-31.5-36.8-41.8c-7.1-4.8-15.7-5.1-23.8-6.3
		c0.1-2.2,0.4-4.4,0.7-6.6c4.6-1.8,9.2-3.4,13.7-5.6c-3.4-1.9-6.8-3.6-10.4-5.4c0.4-4.6,0.9-9.3,0.6-14.1c-1.4-8-6.9-15.3-14.4-19.4
		c-5.5-2.6-10.5,0.9-14.7,3.7c-2.6,2-6.4,0.3-9.5,0.6c0,1.2,0.2,3.3,0.2,4.8c-1.6,2.8-2.8,6.7-3.2,10.4c1.6-1.5,3.3-3.1,4.9-4.6
		c-0.1,0.3-0.1,0.5-0.4,0.7c0.6,2,0.9,4.2,1.3,6.3c2.6,15.1,4.2,20.3,21.2,22.2c0.7,2.8,1.4,5.8,2.4,8.8
		c-6.7,2.3-11.9,11.2-9.9,17.6c5.6,6.6,14.5,6.2,21.9,9.4c12.9,16.3,19.9,36.4,36.5,50c4.9,4.4,9.9,9.1,16.7,10.3
		c-0.2,3.3-0.6,6.5-0.9,10c-8.8,1.5-19.4,4.5-25.5,12.5c-6.2,8.2-10.8,17.8-13.1,27.3c-3.3,13.8,0,27.9,0.9,41.7
		c-15.4,0.7-27.1,4.3-35.3,11c-6.9,4.9-9.9,12.9-13.1,20.5c-15.3,3.2-32.4,7.9-44.7,18.8c-3.3-1.4-6.6-2.6-10.1-3.8s-7-2.2-10.6-3.2
		c-27-7.8-50,5.3-75,13.4c-0.2,0-0.3-0.1-0.5-0.1c-15.2-3-31.1-4.5-47.6-3.6c-15.5,0.8-30.2,3.3-44.5,6.2
		c-16.6,3.3-32.8,7.1-49.9,9.8c-38-10.2-81.1,0.4-117,7.5c-10.4,2.1-21.1,3.9-32.2,5c-12.3,1.2-24.8,1-37.3,0.6
		c-23.3-0.9-46.3-1.6-69.7-0.7c-22.5,0.9-44.9,2.9-66.5,6c-10.7,1.5-21.3,3.3-31.6,5.4c-10.3,2-20.2,5-30.7,6.6
		c-11.3,1.8-22.2-0.1-32.4-2.6l-7.5-1.8c0.1,1.9,0.2,3.8,0.2,5.7c10,2.5,20.8,4.7,32.2,4.5c14.9-0.4,28.4-5,41.7-7.7
		c14.1-2.8,28.7-5.1,43.6-6.9c30.2-3.7,61.4-5.2,92.6-4.4c16.1,0.4,32.2,1.6,48.4,1.4c15.1-0.2,29.7-2,43.8-4.5
		c27.3-4.9,53.6-12.4,83.6-13c6.7-0.1,13.5,0.1,20,0.9c2.7,0.3,5.4,0.7,8,1.3c3.1,0.6,6.6,2.1,10,2.2c3.1,0,7-0.9,9.8-1.4
		c3.4-0.6,6.7-1.2,10-1.8c7.1-1.4,14.1-2.9,21.2-4.3c14.7-3.1,29.5-6.2,45.3-7.8c16.4-1.7,32.4-1.1,48.2,1.7
		c3.3,0.6,6.5,1.2,9.7,1.9c0,0.2,0.1,0.3,0.1,0.5c0.3-0.1,0.5-0.2,0.8-0.3c5.9,1.2,11.7,2.6,17.5,4c3.2,0.1,6.3,0.1,9.5,0.1
		c1.8-0.3,3.1,0.4,4,1.6c12.7-0.2,25.3,2.5,37.5,6.8c0.7-0.5,1.5-1.1,2.2-1.7c-8.1-1.9-16.2-3.9-24.3-5.8c-12.4-3-24.7-6.1-37.4-8.9
		c20.3-8.6,41.3-16.5,63.3-10.7c4.3,1.2,8.5,2.5,12.7,4c12.5,4.6,24.5,10.8,35.6,19.2l3.4-3.9c-7.3-5.4-15.2-10.2-23.7-14.3
		c12.4-7.6,27.2-16,43.5-17.1c17.4-1.8,35.4,7.5,44.1,22.3c1.9,3.5,2.8,7.2,3.2,11c2.2,0,4.4,0.1,6.5,0.2c-0.7-3.9-2.1-7.8-3.6-11.8
		c8.8-3.4,21.5-6,32.6-0.9c15.1,5.8,27.4,19.3,33.3,36.1c-0.4,0.3-0.9,1-1.3,1.6c-12,2.5-23.8,6.2-30.2,15.6
		c3.5-0.7,6.8-1.2,10.1-3.2c14.2-9.1,31.9-10,48.8-9.7c11.4,0.2,21.5,5.3,32.6,6.9c-2-12-5.1-23.8-6.9-35.8c2.4,1.9,4.8,4.1,7.5,6.6
		c0.6,10,2.6,19.5,4.5,27.9c0.7-0.7,1.9-1.7,2.6-2.3c-0.8-8-1.8-16-2.7-24.1c2.6,0.8,7.2,0.5,7.4,3.1c1.1,7.6,1.6,15.4,4,22.9
		c10.7-9.3,19.5-20.7,32.6-27c5.9-2.7,12.9-3.3,21-2c7.5,3,14.7,6.8,22.5,11c2.1,1.3,3.8,3.3,5.4,5.3c0.9,1.1,1.8,2.2,2.8,3.2
		c16.7,16.2,31.7,27.2,47.3,34.4c1.5,1.2,2.7,2.7,3.9,4.2c1.1,1.4,2.3,2.8,3.7,4c13.5,11.9,27.1,23,43.9,28.2c-1.2,1-2.4,2-3.5,2.9
		c-5.6,4.6-11.4,9.3-14.6,16l-0.5,1l1-0.4c4.2-1.7,7.5-4.7,10.7-7.7l0.6-0.6c12.3-10.2,27.3-16.5,41.7-22.6l2.6-1.1
		c7.7-3,15.6-6.2,23.9-7.6c2.5-0.5,5.1-0.6,7.6-0.8c1.9-0.1,3.9-0.2,5.8-0.5c2-0.2,4.1-0.3,6.1-0.3c4.1-0.1,8.4-0.1,12.4-1.9
		l0.8-0.4l-1.2-0.6c-1.7-0.9-3.5-1.7-5.6-1.6c-6.3-0.1-12.6,0-18.7,0.1h-2c3.1-6.9,4.8-14.1,5-21.3c1-9.2,0.4-18.5-0.3-27.5
		l-0.3-5.1c10.8-3.4,22-6.1,32.9-8.6l9.9-2.4c8.7-2.1,17.6-3.5,26.3-4.9c6.6-1.1,13.4-2.2,20-3.5c9.6-1.9,19.5-3.2,29.1-4.5
		c4.1-0.5,8.4-1.1,12.6-1.7c5.3-0.7,10.7-0.9,15.9-1.1c1.1,0,2.2-0.1,3.3-0.1h0.6l-0.2-0.5c-2.1-6.1-3.4-12.2-3.7-18
		c7,1.4,13.9,6,19.3,12.9l0.6,2.6c1.6,17.9,10.9,35.9,25.6,49.5c-11.7,6.3-26.4,15.1-37.4,27.8c-0.8,1-1.7,2.1-2.6,3.1
		c-3.3,3.7-6.6,7.6-8.3,12.5l-0.4,1.1l1-0.6c5.4-3.1,9.6-7.6,13.8-11.9c2.6-2.8,5.4-5.7,8.4-8.1c19.5-16,39.7-25.6,60-28.5
		c13.8-2.1,30.2-4.1,46.7-2.8c12.9,1.1,26.1,3.6,39.3,7.5c1.1,0.3,2.1,0.7,3.2,1c4.3,1.4,8.7,2.8,13.3,2.1l1.1-0.2l-0.9-0.6
		c-2.5-1.6-4.6-2.8-6.9-3.7c-16.3-6.1-33.7-10.1-51.7-11.9c8.4-10.4,27.5-43,26.7-42.9c0.8-2.4,1.5-4.9,2.2-7.4
		c1.2-4.5,2.5-9.1,4.5-13.4c1.2-0.6,2.5-1.2,3.7-1.8c8.5-4.2,17.3-8.6,24.4-15.3c6.2-5.7,10.6-13,14.4-20
		C1515.9,866.3,1517,851,1512.9,837.2L1512.9,837.2z M1226.9,333.8c0.3,2.3,0.3,4.6,0.2,6.9c-0.1-0.6-0.3-1.2-0.5-1.8
		C1225.8,336.9,1226.1,335.1,1226.9,333.8z M889.3,654.1L889.3,654.1c6.2-5.2,14-7.1,19.3-7.8c2,0.9,3.8,1.9,5.6,3.2
		c-3.3,4.5-7.9,8.2-12.4,11.7c-1.5,1.2-2.9,2.3-4.5,3.5c3.8,0.8,8.1,1.1,10.4,4.3c-8,3.1-16-4.5-23.9-1
		C885,663.2,884.9,657.3,889.3,654.1z M883.5,657L883.5,657c-0.9,4.4-1.9,8.8-3.2,13.1c-2.2,0.9-4.8,1.4-7.4,1.6
		C873.6,666.7,876,658.6,883.5,657z M813,700.2L813,700.2c0.4-9,3.2-17.5,2.9-26.3c2.6,2.5,4.7,5.7,6.2,9.4
		c28-6.2,56.5-5.9,84.9-7.1c8,0,15.5,2,23.4,0.6c1.6-2.6,1.1-8.2,4.9-8.5c0.1,4.9-0.9,10.4,2.4,14.8c7.8,10.9,8.4,24.3,11.1,36.7
		c2,10.2,0.4,20.7,1.3,31.2c0,0.6,0.1,1.1,0.1,1.7c0,4.6,0.2,9.5,0.6,14.8c-1.1,5.5-3.8,10.2-7,14.6c-6.3,2.8-11.6,7.7-15,13.7h-0.1
		c-2.5,8.1-6.9,15.9-12.1,22.3c-1,1.3-2.2,1.9-3.4,1.9c-3.6,5.8-6.5,11.5-8.8,17.2c-0.4,0.6-0.8,1.2-1.1,1.8
		c-0.2,0.4-0.5,0.8-0.7,1.2c-6.5,0.4-13.1,1-19.2-1.7c-14.5-6.7-26.1-18.8-31.7-33c-2.7-7-2.5-14.8-6.9-21.4l4.5-3.9
		c7.5,0.2,13.7,4,19.9,7.8c4.9,3.1,10.2,6.5,16.4,7.5c12.7,2.9,27.3-1.5,36.8-11.2c-0.4-1.2-0.9-3.2-1.3-4.6
		c-7.7,5.9-15.1,13.6-25.5,13.8c-8.2,0.3-15.3-4-21.9-7.8c-4.1-2.5-8.4-5-12.9-6.6c-6.8-1.2-7.1-9.2-9.1-14.5
		c0.9-1.1,2.5-3.1,3.5-4.3c-0.2-3.2-0.4-6.6-0.6-9.2v-0.2l-0.2-0.2c-2.8-2.5-5.8-5-8.5-7.5c-4.6,0.1-9.2,0.1-13.4,2.3
		c0.8-5.8,1.5-12-0.7-17.7c-1.3,6.1-1.6,12.4-2.4,18.6c-3.4-0.1-7.1-1.2-10.4,0.2c-3.5,2.5-5.2,6.5-5.2,11.2
		c-1.3,1.8-2.6,3.7-3.9,5.7C808.2,742.2,811.3,721.2,813,700.2z M816.1,754.5c2.2-4.9,7.1-7.7,12.4-5.9c-1.6,2.9-3.6,6-4.2,9.5
		c0.6,4.1,2.7,7.5,4.6,11c-3.9,4.4-7.8,9.4-14.4,8.2c-1.4-3.1-3.4-6.2-2.4-9.7c0.7-7.2,8.2-10.4,12.4-15.5
		C821.7,752.8,818.6,753.7,816.1,754.5z M828.7,756.5L828.7,756.5c1.6-3.7,4.4-6.9,6.6-10.3c2.7-0.1,5.5-0.7,8.2-0.3
		c4,1.9,6.2,6,8.5,9.7c-1.6,3-3,6.2-4.4,9.3c-5.9,0.5-10.7,1-14.9,1.9C830.7,763.7,827.8,760.2,828.7,756.5z M848.9,767.8
		L848.9,767.8c0.7,2.7,1.6,5.9,2.7,9.1c-6.2-0.1-10.5,4.8-13.4,9.1l0.5,0.3c1.9,0.9,3.6,1.6,5.5,2.5c0.9,5.7,1.4,11.4,3.3,16.9
		c1.4,4.8,4.6,8.8,5.6,13.8c-3.4-2.7-5.9-6.5-8.2-10c-1.1-1.8-2.4-3.7-3.6-5.3c-6-7.9-10.6-16.3-15.9-24.5
		C828.7,770.1,839.5,766.8,848.9,767.8z M808.9,776.4L808.9,776.4c2,1,3.6,2.4,5.3,3.9h6.9c4.1,9.7,10.4,18.5,16.2,27
		c6.2,8.5,10.1,18.2,22.1,18.8c8.9,10.1,17.7,16.7,27.8,18.5c4,0.5,8.6,0.9,12.7,0c-3.1,5.5-5.9,11.4-6.8,17.5
		c-0.4,2.3-0.4,4.7-0.3,7.1c-11.7,0.1-23.3,6.9-29.6,17.3c-1.6,2.9-4.4,5.3-6.9,7.6c-2.9,2.5-5.9,5.2-7.5,8.7c2.6,1.1,5.2,2,7.8,3.1
		c-1.5,3.4-6.9,7.7-1.3,10l1.3-1.8c0.9-2.3,2.2-4.4,4.5-6.7v5.1l-2.7,1.6c0.4,1.7,1.6,2.8,2.7,3.9c-2.6,0.1-5.2,0.1-7.8,0.3
		c-13.9-28.6-13.4-60.6-26.4-89.5c-4.9-10-14.2-16-21.2-19.2C807.8,798.4,807.9,787.4,808.9,776.4z M860.2,902.5
		c-2.7-0.5-5.2-1.2-7.5-1.9c2.5-1.9,4.8-3.5,7.4-5.1C860.2,898,860.2,900.3,860.2,902.5z M830,895.2l5.5-1.8
		c2.1,6.7,3.6,13.5,5.3,21.4c-3.9-1-8.7-1-11.7-3.9C830.1,906.3,830.4,901.5,830,895.2z M725.4,697.6c-4.1-1.1-8.1-2.4-9.4-6.2
		c-3.6-8.6-3.6-17.9,0.2-24.6c1.9-4.1,6.5-6.7,11.7-6.7c5.6,3.5,14.8,11.3,15.1,22.9c-4.4-0.5-8.6-1.1-13.1-1.5
		c-2.2,1.5-3.9,3.2-5.5,5c0.8,4,1.7,7.9,2.6,11.6C726.4,698,725.7,697.8,725.4,697.6z M727.9,688.1c0.1-1.2,0.8-2.3,2.4-3.2
		c3.4,0.6,7.1,0.9,11.7,0.9c-0.1,2.7-0.4,5.6-0.4,8.2c0.8,1.1,2.2,3.1,3.2,4.3c-3.9,0.3-8,0.6-12,0.6
		C730.6,695.6,727,691.5,727.9,688.1z M738.2,710.2L738.2,710.2c-1.4-0.1-3.1,0-4.6,0.6v-0.2c0-2.2,0.1-5.9,0.4-8.2
		C738.2,702.4,737.7,707.1,738.2,710.2z M774.8,775.3L774.8,775.3c-12.1-12.9-17.5-30.1-30-42.7c-6.6-2.3-15.8-1.8-19.7-8.5
		c5.1-9.7,19.1-11.1,29.8-7.6c22.5,9.2,29,33.7,46.6,47.7c-1.1,6.6-1.4,13.3-2,19.5c-0.1,3.4-0.4,6.7-0.7,10.1
		C789.1,790.1,781.9,782.5,774.8,775.3z M789.5,938.9L789.5,938.9L789.5,938.9c-8.5,0-15.7,1.1-21.9,3.4c-2.2,1.8-3.5,0-4.5-1.9
		c-4.9-7.8-12.7-14.2-22.5-17.6c-7.8-3.1-15.9-1.8-23.8-3.1c8.7-18.4,23.1-25.2,44.6-25.5C787.8,895.1,800.5,916.4,789.5,938.9
		L789.5,938.9z M836.7,983.8L836.7,983.8l-3.3-2.6c-0.2-5.7-0.5-10.8-3.2-15.1c-7.5-12.5-20.5-22.1-36.5-27.5
		c4.9-11.3,1.2-24.1-1.5-30.8c-4.6-11-16.7-14.7-27.1-19.5c-1.2-8.8-2.1-18.7-2.7-29.9c0-1.2,0.1-2.4,0.3-3.7
		c2.4,1.3,5.2,1.7,7.7,1.7c0,4.1,0.4,8.3,1.3,12.6c5.6-1.4,7.6-6.5,9.8-11c-0.5-1.3-1-2.6-1.6-4.1l-3.3-6.9
		c-2.1,1.4-3.2,3.8-4.5,5.7c-3,0.2-6.1,0.2-9.2,0.2c3.2-19.3,21.5-43.7,43.2-34.6c10.4,5.7,14.2,17.9,16.9,26.7
		c2,6.7,6.1,14.2,2.2,20.7c-8.1,2.3-16.8,0.7-25.1,1.2c1.2,1,2.5,2.3,3.5,3.5c8.6-1,17.7,1.8,25.5-3.2l4.9,21.3
		c-8.9,3.4-19.1,2.5-27.2-2.4c0.2-1.6-0.4-3.5-1.7-4.4c-0.7-0.3-1.3-0.4-1.7-0.3c0.2-4.7,0.7-9.6-3.3-13.3
		c-3.9,15,3.3,29.2,6.5,43.6l-7.2,1c0.6,7.8,6.8,12.4,12.9,16.7c2.8,1.9,3.2,1.9,1.9,5.3c-2.6,5.7,2.2,7.4,6.2,10
		c0.1,1.9,0.5,4.2,1.1,6.7c1.1,1.4,2.5,2.2,4,2.8c2.2,1,4.2,1.9,4.2,4.4c0.5,4.3,4.2,5.9,7.4,7.8c0.1,1.4,0.5,3.9,0.7,5.1
		c2.8,3.1,5.9,6.1,7.4,10C842.9,982.7,839.7,983.1,836.7,983.8z M826.3,910.7c-1.4,0.6-3.1,0.3-4.9-0.7c-0.6-5.1-1.3-10.1-1.9-15.1
		C828.3,894,826.5,904.7,826.3,910.7L826.3,910.7z M816.7,910.4L816.7,910.4c-1.6,0-4.2,0-5.8,0.1c-1.6-6-2.6-12.2-4.2-18.2
		c3.4,0.9,7.4,1.2,8.7,4.6C816.7,901.2,816.4,905.9,816.7,910.4z M887,988.9c-9.5-3.6-19.3-5-29.1-7.1c-3.1-3.7-11.4-6-7.5-11.9
		l-0.7-0.2c-1.1-0.6-2.9-1.2-4-1.8c5.5-6.6-4.6-7.1-9.5-8.4c1.4-1.9,2.7-3.7,4-5.7c-3.9-2.4-8.2-3.1-12.7-4.3
		c-0.5-3.2,4.6-4.4,5.6-7.3c-4.5-2.2-9.1-3.7-13.7-5.3c4-2.3,8.6-4.2,10.8-8.5c-8.2-2.2-17.5-4.4-22.8-11.3
		c11.7-1.6,23.1-0.6,32.6,3.2c-2.4,11.4,1.2,24.8,10.4,39.3c2.9,4.5,7.2,10.9,13.7,8.4c-4.1-3.4-7.7-7.4-10.7-11.7h0.3
		c1.3,0,2.6-0.9,3.1-2c0.7-2-1.3-4.7-3.5-4.5c-1.3,0.1-2.3,0.9-2.8,1.8c-2.5-4.6-4.5-9.5-5.8-14.6c1,0.8,2.2,1.3,3.4,1.3
		s3-0.9,3.5-3.5c-2.5-0.7-5.1-1.6-7.8-2.3c-0.6-3.7-1-7.5-0.9-11.3c5.5,1.6,11.9,0.5,17.2,2.6c3.9,17.2,4.8,35,6.1,52.4
		c0.5,3.1,0,6.8,4.5,7.5c-0.4-23.9-3.5-47.3-5.2-71.1c-1-7.1-1.2-14.1,0.5-20.2c0.1-0.1,0.2-0.2,0.4-0.2l-0.3-0.3
		c2.4-8,8-14.5,19.3-17.6c3.1,0,5.9,0.5,8.4,1.2c2.4,10.6,8.8,21,14.2,29.7c0.5,0.8,1.1,1.7,1.6,2.5c0,0-0.1,0-0.1,0.1
		c0.2,0.2,0.5,0.5,0.7,0.8c0.1,0.2,0.2,0.3,0.3,0.5c0.6,0.9,0.9,1.9,1,3l0.8-0.4c1.6,2.2,3.2,4.4,4.9,6.6c0.2,1,0.4,1.9,0.7,2.8
		c-0.9,1.4-2.1,3.2-3.2,4.8c-5.8,0.1-12.6,0.1-19.2-1.5c-3.5-0.7-7.2-2.2-10.5,0c-7.3,4.4-6.5,13.7-6.2,21
		C881,960,883.7,974.5,887,988.9z M889.6,956c-9.7-8.8-5.6-23.7-4-28.7c10.9,0.2,21.8,5.4,32.2,0c1.5,10.3,4.9,20.2,4.2,30.5
		C912.9,963.7,897.9,964.8,889.6,956z M915.5,976.2l-0.2,0.6c0.6,3.7-1.8,6.6-4,8.5c-1.3-6.8-2.7-12.5-4.2-17.6
		c1.9-0.1,4.8-0.1,6.5-0.3c0.6,2.3-0.9,7.3,3.3,6.7c1.1-2.6,1.3-5.3,0.7-7.9c2.2-0.8,4.8-1.9,7.5-2.6
		C925.9,969.4,921.7,975.8,915.5,976.2z M928.8,966.5L928.8,966.5c-2.4-8-2.7-16.4-3.6-24.6c-1.1-5.8-1.9-11.6-2.8-17.3
		c2.3,2.6,4.7,5.1,7.2,7.5v0.1c2.6,9.2,5.6,19.1,7.9,28.6C934.8,962.7,932,964.7,928.8,966.5z M942.2,958.9
		c-1.7-6.9-3.8-13.9-5.9-20.9c7.6,6.2,16,11.4,25.1,15.2c0.3,1.4,0.5,2.8,0.8,4.2C955,956.3,948.2,956.8,942.2,958.9z M1434.4,701.6
		c11.7,2.9,22.3,7.6,31.3,14c8.6,7.1,15.7,13.8,21.7,20.7c1.7,2.2,3.6,4.4,5.3,6.6c2.5,3,5.1,6.2,7.5,9.4
		c-5.8-0.4-11.7-1.4-17.3-2.2c-8-1.2-16.3-2.5-24.5-2.5c-17.1-0.3-33.5,0.6-48.8,2.5l-0.3,0.1c-26,4.8-52.9,9.8-77.6,20.5
		c-5.4,2.1-10.7,4.6-15.8,7.1c-4.4,2.1-9,4.3-13.6,6.2l-1.2-2.5c-6.7-14.5-13.6-29.4-23-42.6c-5.6-9.1-13.8-16.7-20.5-22.8
		c-5.9-5.1-13.2-8.2-20.3-11.1c-1.5-0.6-2.9-1.2-4.3-1.9c12.3-3,25.7-3.9,39.7-2.5c15.8-0.1,31.7,2.7,47,5.3l1.8,0.3
		c4.2,0.3,8.4,1.1,12.5,1.8c6.6,1.2,13.4,2.4,20.3,1.9c1.3,0.1,2.4-0.6,3.3-1.3l1-0.7l-2.5-1c-0.9-0.4-1.8-0.7-2.7-1.1
		c5.8-1.5,11.9-2.1,18.1-1.7c1.1,1.9,2.4,3.8,3.6,5.6c1.3,1.9,2.7,4,3.8,6c1,1.7,2,3.5,2.9,5.2c1.5,2.8,3.1,5.7,4.9,8.4l0.3,0.5
		l0.4-0.5c0.4-0.5,1.1-1.3,1.4-1.7l0.1-0.1v-1.2l0.7,0.1c4.5,0.8,9,2,13.4,3.1c2.6,0.7,5.2,1.3,7.9,1.9h0.2l0.2-0.1
		c3.9-2.5,1.6-6.2-0.4-9.5c-0.7-1.1-1.3-2.1-1.7-3c6.6,1.3,12.7,4.4,18.6,7.4l0.6,0.3c2.4,1.4,5.1,1.4,7.8,1.5h0.6l0.1-0.2
		c2-4.1-0.1-7.8-2.1-11.3c-0.5-0.8-0.9-1.6-1.3-2.3c5.6,0.4,10.5,3,15.2,5.6c3.5,1.9,7.1,3.8,11,4.9l1,0.3l-0.5-0.9
		c-2-3.6-5.7-5.6-9.2-7.4c-0.8-0.4-1.6-0.9-2.4-1.3l-0.1-0.1c-5.9-3-12.6-6.5-19.4-3.9l-0.3,0.1v0.3c0.1,3.3,1.7,6.1,3.2,8.8
		c0.6,1.1,1.3,2.2,1.8,3.4c-3.5-1.1-6.8-2.6-10-4.1c-4.1-1.9-8.3-3.9-12.8-4.9c-1.9-0.4-4.7-0.1-6,1.2c-0.7,0.7-1,1.7-0.7,2.9
		c0.8,1.9,2,3.7,3.1,5.5c0.5,0.8,1.1,1.7,1.6,2.5c-1-0.3-2.1-0.7-3.1-1c-4.5-1.5-9.1-3-13.9-2.7h-0.2l-2.9,2.8
		c0.1-3.2,0.1-6.4,0.1-9.6c0-5.1,0.1-10.5,0.3-15.7c1.4-0.1,2.9-0.2,4.3-0.3C1407,699.3,1421,698.2,1434.4,701.6z M1368.8,683.7
		c-0.1-2-0.3-4-0.4-5.9c-0.2-2.6-0.5-5.4-0.5-8.1c2,3.4,4.3,6.8,6.5,10l0.6,0.9l0.3-0.1c1-0.2,1.9-0.4,2.9-0.7
		c1.5-0.4,3.1-0.7,4.6-1l0.3-0.1l0.1-1.9c0.1-1.3,0.1-2.7,0.2-4.1c1.8,1.2,3.2,2.9,3.8,4.7c-0.1,2.6-0.6,5.1-1.2,7.6
		c-0.6,2.7-1.2,5.6-1.2,8.5c0,4.2-1.1,7.1-3.4,9c-0.6-0.1-1.2-0.3-1.8-0.4c-2.2-0.4-4.6-0.8-5.7-3c-2.3-3.3-5.2-6.2-8.1-8.9
		c-1.7-1.7-3.5-3.4-5.2-5.2c-1.8-1.8-1.5-4.4-1.2-6.9c0-0.2,0-0.4,0.1-0.6c0.9,0.7,1.8,1.5,2.7,2.4c1.8,1.7,3.6,3.4,6,4.2l0.6,0.2
		L1368.8,683.7L1368.8,683.7z M1395.8,695c-1.8,0.4-3.7,1-5.8,1.5c-0.2-5.2,1-10.3,2.1-15.3c0.5-2.2,1-4.4,1.3-6.6v-0.2
		c-0.5-1.2-0.9-2.5-1.4-3.7c-2.8-7.5-5.8-15.3-7.6-23.2c4,0.1,8.2,0.1,12.8-0.2C1404,661.4,1403.5,679.2,1395.8,695z M1388.7,600
		L1388.7,600c3.7,1,6.5,3.8,9.2,6.5l1.5,1.5c4.7,4.3,7.2,11.5,6.8,19.2c-0.6,5.1-2.4,11.5-8,13l-0.4,0.1c-5,1.5-10.7,3.2-15.1,0
		c-5-3.1-10.4-6.9-10.5-13.2c-0.6-4.3,1.6-8,3.8-11.7c0.4-0.6,0.8-1.3,1.1-1.9c1.1-1.9,2.6-3.6,4.1-5.2c0.9-1,1.9-2,2.7-3.2l0.6-0.8
		l-0.9,0.1c-2.6,0.2-4.7,1.6-6.6,3c-1.1,0.7-2.1,1.5-3.3,2c-0.9-2.8-2.1-5.4-3.3-8c-0.7-1.6-1.5-3.2-2.1-4.9
		C1374.6,596.8,1381.5,597.9,1388.7,600z M1367.4,607.9L1367.4,607.9c0.8,2.3,1.7,4.6,2.7,6.9c-3.6,7-3.8,14.7-0.6,20.6
		c1.2,2.3,3.2,4,5.2,5.5c1.2,0.9,2.3,1.9,3.3,2.9c1.1,4,2.5,8.1,3.8,12c1.2,3.6,2.5,7.4,3.5,11.1c-1.5,0.4-2.9,0.9-4.4,1.4l-0.2,0.1
		l-0.1,0.2c-0.4,1-0.7,1.9-1.1,2.9l-0.5,1.2c-1.5,0.4-2.9,0.8-4.3,1.3h-0.1l-0.3-0.6c-1.7-3.3-3.5-6.7-5.5-9.9l-0.1-0.2h-0.2
		c-1.2,0-2.5,0.1-3.7,0.1h-0.4v0.4c-0.2,3.5-0.2,7.1-0.3,10.6v0.7c-1.1-0.6-2.2-1.1-3.3-1.7l-0.1-0.1h-0.1c-1,0.2-2,0.3-3,0.5
		l-0.6-2.1c-1.2-4.7-2.5-9.6-4-14.4c-0.8-2.1,0.4-3.9,1.6-5.8c0.5-0.7,0.9-1.4,1.3-2.2c3.4-5.6,4.5-12.5,3.5-21.3
		c0.6,1.9,1.2,3.7,1.9,5.6c1.9,5.8,3.9,11.8,5.7,17.8c0.7,2.1,1.3,4.4,1.9,6.5c1.3,4.8,2.7,9.8,5.5,14.1l0.4,0.7l0.3-0.7
		c1-2.4,0.3-4.8-0.4-7c-0.2-0.6-0.4-1.2-0.5-1.8c-3.2-11.9-7.1-23.8-10.8-35.3c-1.4-4.4-2.9-8.8-4.3-13.2
		c-1.5-5.3-3.6-10.4-5.6-15.3l-0.8-2.1c3.1-0.9,6.4-0.9,9.5-0.8C1364.5,599.9,1366,604,1367.4,607.9z M1343,612.9L1343,612.9
		c-4-0.4-4.1-5.2-3.8-8.9c3.1-2.5,6.7-4.4,10.6-5.7c1.6,3.6,3,7.6,4.5,12.5c1.2,4.3,2.5,8.6,3.9,12.8
		C1355.2,617.9,1349.3,613.6,1343,612.9z M1362,587.6c0.9,0.2,1.5,0.6,1.9,1.3c0.5,0.8,0.6,2,0.3,3.2c-10.3-1.2-19.2,2.8-25,6.4
		c-1,0.6-1.7,1.5-2.5,2.3c-1.1,1.2-2.1,2.3-3.5,2.7c-0.7-1-1-2.2-1-3.4c0.1-1.4,0.7-2.6,1.7-3.4c5.9-7,15-9.5,22.9-9.5
		C1358.6,587.2,1360.4,587.3,1362,587.6z M1332.2,581.6c1.6-0.8,3.1-1.8,4.7-2.8c4.9-3.1,10-6.3,16-5c2.6,1.4,2.7,4.7,2.8,7.6
		c0,0.5,0,0.9,0.1,1.4c-8.3-0.4-16.1,3.5-22,7C1332.5,587.1,1332,584.3,1332.2,581.6z M1319,565.9c-0.1-1.6,0.7-3.4,2-4.8
		c8-7.8,17.9-11.5,26.6-9.9c2.2,2.2,2.3,5.4,2.4,8.5c0,0.6,0,1.1,0.1,1.7c-8.7,1.3-17.1,5.2-24.5,11.4l-0.5-0.4
		C1322.5,570.7,1319.9,568.9,1319,565.9z M1325.9,583.8L1325.9,583.8c-0.1,0.2-0.1,0.3-0.2,0.5c-1.5-3.9,1.4-7.7,5.1-9.7
		c6.7-4.2,13.6-7.8,20.6-7.8c2.2,0,4.3,0.4,6.5,1.2l0.2,0.6c0.3,1.1,0.6,2.2,1,3.2c-3.5-2.1-7.4-4.1-11.7-2.9
		c-6.7,0.8-12,4.9-17.1,8.9l-0.2,0.1C1328,579.4,1326.9,581.6,1325.9,583.8z M1282.6,642.8L1282.6,642.8c3.4-5.9,7.3-11.6,11.4-17
		c10.8-12.4,21.6-20.2,33.1-23.9c1,2.2,2.9,3.6,4.7,5c2.4,1.8,4.6,3.5,4.8,6.7c-6.9,2.6-13,6.9-18.9,11.1c-2.2,1.6-4.5,3.2-6.7,4.6
		l-0.8,0.5l0.9,0.2c4,1,7.7-0.9,11-2.6l1.1-0.5c1.9-1,3.7-2.1,5.4-3.2c3.8-2.4,7.6-4.8,12.1-5.6c4.5-0.7,10.1,1,12,5.7
		c4,9.7,1.2,22.1-6.7,30.3c-2.4,2.6-5.5,4.5-8.4,6.5c-2.6,1.7-5.2,3.4-7.5,5.5l-0.6,0.6l0.8,0.2c4.4,0.9,8.1-1.2,11.7-3.1
		c1.2-0.7,2.4-1.3,3.6-1.9c0.3,11.2-9,19-13.1,21.8c-1.5,1.1-2.9,2.4-4.6,4.3l-0.4,0.5l0.6,0.2c3.2,1.1,6.1-0.9,8.7-2.7
		c0.7-0.5,1.4-1,2.1-1.4c6.6-4.3,11-11.5,11.7-19c0.4,2,0.7,4,1.1,5.9c0.9,4.7,1.7,9.6,3,14.3l0.1,0.1c1.7,2.6,4,4.7,6.2,6.8
		c2.2,2,4.5,4.1,6.2,6.7c-3.4,0.6-6.9,1.1-10.3,1.5c-4.7,0.6-9.6,1.3-14.4,2.3c-4.3,0.9-8.6,0-12.7-0.9c-1.6-0.3-3.3-0.7-4.9-0.9
		c-4-0.6-8-1.3-11.8-2c-6.5-1.2-13.3-2.5-20-2.9l-5.4-0.6c-6.4-0.7-12.9-1.4-19.5-1.2h-3.5c-3.6-0.1-7.3-0.2-10.7,1.3
		c-1.9,0.9-3.9,0.7-6,0.5c-0.2,0-0.4,0-0.6-0.1c1.2-0.5,2.4-1.1,3.5-1.6v-0.9c3.6-1.2,6.9-3,9.5-6.6c1-1.3,1.9-2.7,2.7-4.1
		C1273.3,672.7,1277.8,656.3,1282.6,642.8z M1265.7,450l1,0.9c-0.6,0.6-1.3-0.6-2-1.7C1265,449.5,1265.3,449.7,1265.7,450z
		 M1234,472.4c-0.6,4.7-1.1,9.5-2.8,13.9c-2.7,7.5-8.4,13.8-15.6,17.3c-5.8,2.8-11.9,4.8-18.2,6c-8.7,1.7-17.9,1.6-26.5-1.1
		c-3.2-4.4-7-8.4-11.4-12.1v0c-4.7-4.1-9.8-7.2-15.3-9.3c-0.1-0.2-0.3-0.4-0.4-0.6c-0.6-0.8-1.1-1.6-1.7-2.4l0.1,0
		c1,0.1,2,0.3,2.9,0.6c6.8,0.6,13.3,2.8,19.8,4.5c-3.3-3.1-7.8-4.3-11.8-6.2c15.5,0.1,24,5.3,37.3-6.8c-0.7,4.7-3.1,8.6-4.6,13
		c5.3-4.3,7.8-10.9,11.5-16.4c-0.4,7.2-5,13.1-8.3,19.1c5.5-3.4,8.1-9.4,12.1-14.1c-0.6,5.1-4,9.3-6.2,13.7
		c12-7.1,14.9-20.1,18.3-32.6c2.4-9.1,13.1-6.7,19.5-3.6c-17.6-32.2-55.3-8.7-79.4,2.1c-6.5,2.9-13.6,5.7-20.8,6.3
		c-0.4-2.4-0.4-4.8,0.1-7.2c0.9-4.3,3.7-8,7-10.9c4.8-4.2,10.6-7.2,16.5-9.8c9.6-4.4,20.2-6.7,30.7-7.9c5-0.5,10.1-1,15-1.3
		c5.2-0.2,10.4-0.3,15.5,0.7c3.4,0.7,6.7,1.9,9.4,3.9c3.1,2.3,5.1,5.8,6,9.5C1235.3,451.1,1235.1,461.9,1234,472.4z M1162.9,504.9
		c-2.9-1.6-5.8-3.6-8.3-5.9C1157.5,500.8,1160.2,502.8,1162.9,504.9z M1154.5,470.5L1154.5,470.5c1.3-2.8,4.4-3.9,6.9-5.3
		c9-4.3,18.2-8.5,27.4-12.7c2.4-1,5-2.1,7.7-1.9c2.6,0.1,2.5,3.4,1.4,5.2c-3.3,6.3-9.2,10.8-15.5,13.9c-7.2,3.3-15.4,5.1-23.4,4.1
		C1157.2,473.4,1154.2,472.8,1154.5,470.5z M1133.5,484c-3.9-0.6-7.8-1-11.7-0.9c-13,1.1-25.6,6.1-35.7,13.7
		c0.3-2.3,0.6-4.6,0.9-6.9c0.2-2.9,0.6-5.9,1.6-8.6c6.9-4.4,19.9-9.7,19.9-9.7c8.5-2.2,17.2,2.3,21.1,4.8
		C1131,478.9,1132.2,481.5,1133.5,484z M958.3,471.1c0.4-4,0.9-8.1,1.7-12.1c0.5-2.7,0.7-5,1.5-7c0-0.9,0.1-1.9,0.1-2.8
		c0.5,0,1,0,1.5,0.1c-0.1-8.8-0.1-17.6,1.5-25.9c-0.2-1.2,0-2.5,0.8-3.9c0.6-1.1,1.1-2.3,1.5-3.4c-0.5-0.8-1-1.6-1.5-2.3
		c2.8-1.8,5.5-4,6.9-5.2c2.3-1.8,4.5-3.8,6.8-5.7c2-1.7,6.4-4,7.1-6.4c0.2-0.6,0.4-1,0.5-1.2c-0.3-0.8-2.1-1.9-3.5-2.7
		c0.1,0.1,0.2,0.2,0.2,0.3c-0.4,0.1-0.8,0.1-1.2,0.1c-2.7-1.1-5-2.8-7.1-4.7c1.2,2,2.8,3.7,4.5,5.3c-0.9,0.1-1.9,0.1-2.8,0.4
		c-3.6-1.8-6.9-4.3-9.6-7.2c-1.7-1.6-2.9-3.6-4.5-5.3c0.8,4.5,3.5,8.4,5.7,12.4c-10.5-6.8-15.2-19-17.6-30.3l0,0
		c-0.6,5.2,0.7,10.3,1.6,15.4c-4.4-7.4-5.1-16.1-4.1-24.5c-0.3-0.7-0.5-1.4-0.8-2.1l-0.6,0.9c1.8-5,4.9-9.5,9.9-13.1
		c1.6-1.2,3.4-1.5,4.9-1.2c12.3-6.7,31.9-4.2,42.4,5.1c1.3,0.3,2.7,0.6,4,1c0.9,0.3,1.7,0.7,2.3,1.1c0.5-1,0.9-1.9,1.2-2.6
		c2.2,5,4.7,9.8,7.6,14.4c1-1,2.3-1.7,4.1-1.9c-0.2-1.7-0.3-3.5-0.5-5.2c8.6-6.4,19.1-10.1,29.7-12.4l1.7,1.7
		c2.4-2.4,5.5-4.3,9.5-5.6c1.9-0.6,3.7-0.9,5.7-1.2c-0.2-0.1-0.4-0.2-0.7-0.3c25.3-8.2,52.8-11.3,79.1-6.2c0.5,1.9,1.1,3.7,1.6,5.6
		c1-0.9,2.3-1.5,4.1-1.7h0.6c0.3-1.4,0.6-2.9,1-4.3c1.5-0.3,4.5-0.9,6-1.1c0.1-1.7,0.3-5,0.4-6.6c8.7-8.8,16.5-21.6,30.8-21.8
		c5.7-1,11.2,0.3,16.3,2.6c-0.2,0.1-0.3,0.3-0.5,0.5c-0.6,0.1-1.3,0.2-2,0.3c2.6,2.4,5.2,5,7.4,7.9c0,0.2,0,0.5-0.1,0.7
		c1.6,1.9,2.7,4.1,3.2,6.4c-1.1-1.3-2.2-2.6-3.5-3.7c-0.1,0.8-0.2,1.5-0.4,2.3c2.6,8,3.5,16.7,0.6,24.8c-0.1-5.2,0.2-10.5-1.4-15.4
		c-0.2,11.6-2.5,24.3-11.6,32.7c1.5-4.3,3.3-8.6,3.3-13.2c-1.3,1.9-2.1,4.1-3.4,6c-2.1,3.3-4.8,6.3-8.1,8.7
		c-0.9-0.1-1.8,0.1-2.8,0.1c1.4-1.8,2.6-3.8,3.4-5.9c-1.7,2.2-3.7,4.3-6.1,5.9c-0.4,0.1-0.8,0.1-1.2,0.1c0.1-0.1,0.1-0.3,0.2-0.4
		c-1.2,1-2.8,2.5-3,3.3c0.1,0.2,0.4,0.6,0.7,1.1c1.2,2.2,6,3.7,8.2,5c2.6,1.5,5.1,3,7.8,4.4c2.6,1.4,9.2,5.2,12.9,5.4l-2.4,3
		c1.4,0.9,2.9,1.8,4.3,2.7c0.6,1.1,1.1,2.3,1.6,3.4c3.8,8,7.1,16.3,10.7,24.4c0.1-0.1,0.3-0.2,0.5-0.2c1.3,2.9,2.4,5.4,3.1,7.1
		c-1.4-0.5-2.7-1.2-4.1-1.9c1.2,1.1,2.3,2.1,3.5,3.1c-0.9-0.1-1.8-0.1-2.7-0.1c-5.5-0.1-11-0.1-16.5-0.1c-7.8,0.2-15.7,1-23.3,2.8
		c-9.9,2.2-19.4,5.5-28.9,8.7c-9.7,3.4-18.9,8-28.5,11.5c-6.4,2.4-36.1,10.9-43,12.2c-1.5,0.2-2.9,0.3-4.4,0.5
		c-12.7,1-25.4,0.6-38.1,0.6c0.1,0,0.2-0.1,0.3-0.1c-17.7,1.1-35.7,1.6-52.7,7.3c0.1,0.3,0.2,0.6,0.4,1c-2.8,1-5.7,2-8.5,3.1
		c-2.7,1.1-5.3,2.4-7.9,3.7l-15,2.8c0-1.1,0-2.3,0-3.4c-0.3,1.1-0.5,2.3-0.7,3.5l-2.1,0.4C958,472,958.2,471.6,958.3,471.1z
		 M1060.1,495c-6.8,3.5-14.8,4.1-22.2,3.2c-6.6-1-13.5-3.5-18.2-8.5c-1.5-1.3-2.6-4.4-0.3-5.4c2.3-1,5-0.6,7.5-0.4
		c9.5,1.2,19.1,2.4,28.5,3.7c2.6,0.6,5.8,0.7,7.7,3C1064,492.8,1061.5,494.2,1060.1,495L1060.1,495z M1060.2,477.6L1060.2,477.6
		c-25.1-2.9-66.2-13.8-72.4,22.1c4.9-4.8,13.7-10.3,18.7-2.4c6.8,10.8,13.4,22.4,26.4,25.5c-3.4-3.6-7.7-6.4-9.8-11.2
		c4.9,3.4,9.2,8.3,15.2,9.8c-4.8-4.8-10.7-8.9-13.4-15.6c5,4.2,9.3,9.6,15.3,12.1c-2.7-3.7-6.2-6.8-8.2-11.1
		c15.6,7.6,21.7,0,35.8-4.8c-3,3.1-6.7,5.6-8.8,9.5c5.5-3.6,10.6-7.8,16.6-10.3c0.8-0.6,1.5-1.1,2.5-1.5c0.3-0.2,0.7-0.2,1-0.5
		c-0.4,1.6-0.8,3.3-1.2,5c-4.6,5.1-8.1,10.9-10.1,17.1c-0.2,1.6-0.5,3.2-0.7,4.9c-2.5,3-5.4,5.7-8.7,7.8c-9.9,6.8-21.9,9.7-33.8,9.8
		c-2.9,0-5.7,0.1-8.5-0.3c-5.2-0.8-10.2-2.7-14.3-5.9c-3.9-2.8-7.1-6.6-9.4-10.8c-5.3-9.4-10-19.2-12.3-29.7
		c-0.7-3.7-1.6-7.4-0.9-11.2c0.7-4.3,3.4-8,6.8-10.7c4.9-3.9,11-6.2,16.9-8.2c11-3.5,22.1-6.8,33.6-8c2.7-0.2,5.4-0.5,8.2-0.4
		c6.3,0.1,12.7,0.5,18.9,1.9c4.6,1.2,9.3,3,12.7,6.5c2.7,2.7,4.2,6.3,4.9,10.1C1074.3,478.9,1067.1,478.4,1060.2,477.6z
		 M982.4,615.7c-1.3-1.4-2.6-2.8-3.9-4.3c-10.6-9-14.8-22.5-21.4-34.3l0,0c-7.7-16.2-7.6-34.5-5.8-51.9c-7.8,2.6-8.7,10.7-10.5,17.6
		c-0.7-5.9,0.8-17.9,2.4-25.5c0.2,0.1,0.4,0.2,0.5,0.4c0.5-7.7,2.1-15.4,6.1-21.7l11.6-3.5c0.7,1.2,2.1,1.4,3.1,1.9
		c3.6,1.8,6.1,5.1,8,8.6c2.9,5.3,5.3,10.8,7.9,16.1c2.6,5.4,5.4,11,9.4,15.6c5.2,6.4,12.5,10.8,20.5,13.1
		c11.2,3.3,23.3,2.7,34.4-0.6c6.7-1.9,13-5,18.8-8.9c0.6-0.3,1.1-0.8,1.5-1.1c-3.7,10.7-2.2,22.7,2.1,34.4l4.8-0.3
		c-0.3-0.8-0.6-1.7-0.9-2.4c-2.8-7-4.6-14.7-4.5-22.3c-0.5-3.6-0.5-7.2,0.3-10.9c2.8-2.3,5.3-4.9,7.5-7.7c4.6-6.2,7.6-13.3,9.6-20.8
		c0.3-0.2,0.6-0.5,0.8-0.7c0.3-0.1,0.6-0.1,0.9-0.2c0.1-0.3,0.2-0.6,0.3-0.9c9.9-8.2,22.7-13.7,36.6-13.9c5.4-0.6,10.9-0.2,16.5,1
		c2.1,2.6,4.2,5.1,6.5,7.5c-3.5-1.7-7.6-1.8-10.8-0.2c-9.1,1.4-42.5,5-49.1,6.5c-0.4,1-1.2,2.5-2.5,4.5
		c-5.4,8.8,27.5,42.5,40.4,40.5c13.5-2.1,24.4-20.5,29.9-38c0.2-2.8-0.4-5.3-1.4-7.4c3.9,3.2,8.2,6.1,13,8.1c2.9,1.2,6,2.1,9.1,2.7
		c4.6,6,8.1,12.7,10.5,19.4c-1.6-6.5-4.2-13-7.7-19c1.4,0.2,2.9,0.2,4.4,0.3c4.4,0,8.9-0.5,13.3-1.1c11.5-1.8,22.9-5.7,32.2-12.8
		c5-3.7,9.2-8.7,10.8-14.9c3.3-12.8,5.1-26.1,5.7-39.4c0.4-5,3.7-9,6.1-13.4l3.6,3.2c0,0,0,0.1,0,0.1c1.5,1.3,3.1,2.6,4.6,3.9
		l5.2,4.5c6.8,12.4,18.1,39.7,20.1,53.9c2.9,20-4.6,32-8.7,51.5c-1.2,0.9-3.7,2.7-4.9,3.7c-2.2,4.4-4.1,9.1-5.9,13.8
		c-0.7,0.1-1.4,0.1-2.1-0.1l-1.2,3c-1.8,0-2.8-0.1-2.8-0.1l-9.9,12.5l-32.3,26c-4.3,2.4-8.4,5-11.8,8.6c-1.5,1.6-3,3.2-4.5,4.6
		l-2.8,2.3c-0.1-0.4-0.2-0.9-0.3-1.3h-0.4c-0.1,0.2-0.2,0.4-0.4,0.5c-1,0.5-2.1,0.9-3.2,1.2c-8.6,2.9-17.7,3.6-26.7,4.6
		c-3.8,0.4-7.7,0.8-11.5,1.6c-2,0.4-4,0.9-6.1,1.2c-1.6,0.2-3.2,0.3-4.7,0.7c-0.8,0.2-1.4,0.8-1.9,1.8c-1,1.8-2,4.2-2.3,6.3
		c-0.8,5.1,0,10.3,1.1,15.3c0.3,1.5,0.6,2.9,1,4.4c-3.6,1-7.2,2.2-10.7,3.4c-3-4.5-5.6-9.2-7.5-14.2c-1.5-4.2-2.5-8.5-2.7-13
		c-4.8,0.1-9.6,1-14.2,2.2c-0.7-2.5-3.3-4.1-6.2-3.6c-11.4,2.4-22.9,2.6-34.3,0.7l-1.1-4.7c-6.5,1.9-13.1,1.8-19.7-0.6
		c-7.7-2.7-14.8-7-22.7-9.2c-7.9-2.2-17.4-1.7-24.6-5.8c-2.2-1.3-4.2-2.9-6-4.7c0,0,0.2-2.7-4.2,0.1
		C986.1,614.7,984.5,615.2,982.4,615.7z M1146.9,696.6L1146.9,696.6c-2.2-8-7-15-11.7-21.7c-0.6-0.9-1.2-1.8-1.8-2.6
		c2.9-1.1,5.8-2.1,8.8-3c2.6,8.9,5.9,17.6,7.9,26.7C1150.4,698,1147.4,698.6,1146.9,696.6z M983.5,842.6L983.5,842.6
		c-7.8-12.3-13.1-26-18.2-39.2c-0.1-0.2-0.1-0.3-0.1-0.5c16.7-16.2,37.7-27,59.2-35.7c5.7-2.3,11.4-4.5,17.2-6.7
		c4-1.5,8.7-3.8,13.3-4.9c8.6,3.1,17.5,7.7,24.1,15.2c-8.5,2.4-15.9,5.8-21.9,10.2c-7.4,4.8-15.7,10.3-17.6,19.5l-0.2,1.1l0.9-0.6
		c2.4-1.7,4.7-3.7,6.9-5.7c2.8-2.5,5.7-5.1,9-7.1l0.2-0.1c7.2-4.4,14.7-9,22.8-11.6c2.7-0.8,5.6-1.4,8.4-1.8c2,0.7,4.3,0.3,5.8-0.8
		c1.4-0.2,2.9-0.5,4.3-0.7l0.3-0.1l0.2-3h-0.4c-0.9-0.1-1.7-0.2-2.5-0.3v-0.1c-0.1-2,0.1-3.9,0.5-5.7c4.7-6.7,11.7-11.3,19.1-12.1
		c3.9-0.2,9.5,0.3,13.6,3.6c5.4,4.4,6.5,11.8,7,19.3c-1.2-0.1-2.4-0.3-3.6-0.5c-1.5-0.3-3.1-0.5-4.7-0.7l-0.7-0.1l1.3,3.2l0.1,0.1
		c2.1,1,4.3,1.8,6.5,2.6c2.9,1,5.9,2.1,8.5,3.7c13.9,8.3,22,22.6,26.3,33c2.5,7.3,4.5,14.9,2.2,22l-0.3-0.6
		c-0.9-1.8-1.7-3.7-3.8-4.5l-0.7-0.3l0.1,0.7c0.2,1.4,0.4,2.8,0.7,4.2c0.8,5.2,1.7,10.5,1.1,15.9c-1.4-1.2-2.6-2.6-3.8-4
		c-1.4-1.6-2.8-3.3-4.6-4.6c-13.7-10.6-29.4-16.2-44.1-15.8c-22.3-0.2-41.1,10.4-53,19.3c-12.2,9.2-21,19.6-26.2,30.9
		c-0.8,1.7-1.5,3.4-2.2,5.1c-1,2.5-2,5-3.4,7.4c-4.2-3.1-8.2-6.5-12.1-10c-0.2-2.9-2.5-4.4-5-4.4c-1.8-1.5-3.5-3.1-5.3-4.5
		C999,863.6,990.9,852.8,983.5,842.6z M1158.5,990.9c0,12-0.4,25.9-6.3,38.1c-1.5,0.7-3.2,1-4.9,1.3c-1.3,0.2-2.6,0.5-3.9,0.9
		c-15.9,5.1-31.2,12.4-46.7,20.1c-6.4-1.9-13.7-4.3-19.6-8.9l-4.5-3.3c-8.4-6-17.1-12.3-23.7-20.5c-7-7-10.6-16.6-12.6-23.2
		c-0.7-2.4-1.3-5-1.9-7.4c-0.9-4.1-1.9-8.3-3.6-12.2l-0.1-0.1l-3.8-2.1l-0.1,0.6c-0.9,6.8,0.9,13.5,2.6,19.9
		c0.3,1.2,0.6,2.4,0.9,3.5c1.1,4.2,2.8,8.4,5.1,12.7c-5.9-3.1-11.2-7.2-16.4-11.1c-1.8-1.4-3.7-2.8-5.5-4.1
		c-1.3-1.1-2.6-2.2-3.8-3.4c-5.3-4.6-10.7-9.4-15.5-14.6c-1.6-2-3-3.8-4.4-5.6c0.8-0.4,1.4-1.1,2-2c14.5-25,23.6-52.5,27-81.2
		c3.4,2.8,7,5.6,10.7,8.2c0.2,2.5-0.3,4.9-0.8,7.3c-0.4,1.6-0.7,3.3-0.9,5c-2,10.6-0.2,21.3,1.9,30.3l0.1,0.2l0.2,0.1
		c0.5,0.2,1.5,0.5,2,0.6l0.6,0.2v-0.6c0-1.8-0.3-3.6-0.5-5.4c-0.3-2.5-0.7-5.2-0.4-7.8c0.4-2.7,0.6-5.4,0.9-8
		c0.7-7,1.5-14.2,3.9-20.9c0.8-1.9,1.5-3.9,2.2-5.8c2.5-6.8,5.1-13.8,9.8-19.5c7.1-10.2,16.7-19,27.7-25.3c1.6-0.8,3.2-1.7,4.8-2.5
		c5.7-3.1,11.7-6.2,18.1-7.7c16.4-4.4,33.6-2.4,47.1,5.5c7.5,3.8,13.4,9.1,17.3,15.3c0.6,0.9,1.2,1.8,1.8,2.8
		c6.7,10.3,13.7,20.9,15.2,33.3c0.8,3.6,0,7.4-0.9,10.5c-1,1.3-2.6,1-4.3,0.8c-0.8-0.1-1.6-0.2-2.3-0.2h-0.3l-0.1,0.2
		c-1.4,3-2,6.3-2.5,9.5c-0.5,2.8-1,5.7-2,8.3c-3.4,8.8-6.7,16.6-11.7,23.5c-1.5,2.1-3.3,3.9-5,5.7c-1.3,1.3-2.6,2.7-3.9,4.2
		l-0.4,0.5l0.7,0.1c1.5,0.3,2.9,0.6,4.4,1C1155.5,968.4,1158.8,979.5,1158.5,990.9L1158.5,990.9z M1280.2,944.9l-3.2,0.5
		c-10.3,1-21.3,2.9-33.3,5.7c-28.8,4.2-54.3,10-78,17.7c-1.4,0.4-2.8,0.7-4.3,1c-0.6-2-1.2-4-1.7-5.9c-0.9-3.3-1.9-6.8-3.2-10.1
		c7.3-7,11.6-16.1,15.8-25.6c1.8-4.2,2.8-8.7,3.7-13.1c0.3-1.5,0.6-3.1,1-4.6c4.1-0.2,8.8-1.1,9.8-5.6c2.8-12.5-2.3-24.6-7-32.6
		c-0.9-1.7-1.9-3.5-2.8-5.1c-1.1-1.9-2.2-3.8-3.2-5.8c0-2.2,0.2-4.4,0.5-6.6c0.3-2.6,0.6-5.2,0.4-7.9c-0.2-1.8,0.7-3.3,1.7-4.9
		c0.8-1.4,1.7-2.8,1.8-4.4c2.3-16.2-5.7-31-12.9-40.6c-4.7-7-11.4-13.1-19.8-18.1c1-2.1,2.1-4.2,3.2-6.4c0.7-1,1.2-2.1,1.7-3.3
		c2.9-5.5,6-11.1,9.4-16.8c4.6-7.8,10.2-14.9,16.6-21c3-1.9,5.9-3.6,8.7-5.4c6.7-4.2,13.5-9,20.5-13.6c9.1-3.5,18.7-4.7,27.8-3.5
		l1.7,0.7c8,3.4,16.2,6.9,22.3,13.1c15.5,14.4,25.3,33.2,32.2,48c1.1,1.8,2,3.8,2.9,5.7c2,4.2,4.1,8.6,7.8,11.8l0.2,0.2l0.2-0.1
		c5.6-2,11.1-4.4,16.4-6.7c5.4-2.3,10.9-4.7,16.5-6.8c7.5-2.9,15.6-5.6,26.4-8.8c2.3-0.7,4.7-1,7-1.1c-6.8,9-13.8,18.4-19.1,28.6
		c-11,20.4-22.4,42.2-31.6,64.7l-0.2,0.5c-4.8,13-9.7,26.5-11.6,40.5v0c-0.1,3.1-0.3,6.3-0.6,9.3c-0.4,4.3-0.7,8.8-0.6,13.3
		c-0.2,4,0.5,7.9,1.2,11.7c0.5,2.9,1.1,5.8,1.2,8.7C1297.2,942.3,1288.6,943.6,1280.2,944.9z M1487.2,898.5L1487.2,898.5
		c-6,5.2-13.3,8.9-20.3,12.4l-1.5,0.8c-1.2,0.6-2.5,1.2-3.7,1.7c-2.5,1.1-5.1,2.2-7.2,3.9l-0.7,0.6l1,0.1c2,0.3,4,0.4,6,0.5
		c-2,7.5-4.1,15.1-7.7,22.1c-8.4,16.1-17.4,29.2-27.4,40.1c-21.5,0.2-40.1,2.7-56.9,7.8c-1.1,0.3-2.1,0.7-3.1,1.2
		c-1.7,0.8-3.4,1.5-5.2,1.3c-3.6-2.6-7.1-5.8-10.2-9.6c-4.8-6.7-10.7-15.8-13.3-26c-2.5-10.3-2.4-21.1-2.3-31.5
		c0-2.6,0.1-5.2,0.1-7.8c0-0.8,0.1-1.6,0.1-2.4c0.2-1.9,0.3-3.9-0.4-5.9l-0.3-0.8l-0.5,0.7c-1.7,2.5-3.3,5.2-3.3,8.3
		c-0.8,5-0.9,10.1-0.9,15v2.6c-6.1-5-12.7-8.6-19.6-10.7c-0.4-6.2,0.3-12.6,0.9-18.7c0.3-2.4,0.5-4.9,0.7-7.3
		c4.2-20.4,12.1-41.7,24.9-67c2.7-5.9,5.8-11.7,8.7-17.4c3-5.8,6.1-11.9,8.9-18c0.9,0,1.9-0.1,2.9-0.1c3.4-0.1,7-0.3,10.4,0.4
		c6.4,1.9,11.2,5,14.3,9c-1.5,1.7-3.2,3.5-4.8,5.1c-3.7,3.9-7.6,8-10.5,12.7c-6.5,9.2-14.3,21.5-16.7,35.8c-0.2,1.5-0.5,3.1-0.8,4.5
		c-0.8,3.6-1.5,7.2-0.6,10.9l0.4,1.5l0.9-3.1c2.5-8.3,5-17,8.8-24.9c4.8-8.8,10.6-19,18.2-28.1l0.9-0.9c6.1-6.4,12.4-13.1,20.4-17.3
		c14-8.7,31.4-13.2,51.5-13.2c11.2-0.2,20.4,2.1,27.4,6.7c1.3,0.7,2.2,1.9,2.6,3.4h-0.4c-2.6-0.1-5.4-0.1-8.1,0.1l-0.6,0.1l0.3,0.6
		c1.4,2.8,4.2,3.8,7,4.6c1.1,0.3,2.2,0.7,3.1,1.2c7.4,3.3,13,7.2,17.1,11.8c4.5,6.1,6.7,13.5,8.8,20.7c0.2,0.8,0.5,1.6,0.7,2.5
		C1513.2,860.4,1505,885,1487.2,898.5z"/>
	<path d="M1063.9,357.5c4.1-0.1,8.1-0.7,11.5-2.7C1071.5,355.5,1067.7,356.5,1063.9,357.5z"/>
	<path d="M982.7,436.2c4.2,0.4,8.4-1.6,12.6-0.7c21,3.7,42.9,0,63.7-3.4c4.1-16.7-11.6-10.2-18.4-10.6c-19.4,1.8-38.4-0.8-57.3-3.3
		c-3.3-0.8-5.5,2.3-7.9,4h0C975.6,427.8,978.4,432.7,982.7,436.2z"/>
	<path d="M1094.2,573L1094.2,573c16.4-1.7,32.7-4.6,48.7-9.1c7.7-2.5,24.4-4.2,22.8-11.9c0.2-2.2-6.2-1.9-6.4,0.4
		c0.9,3.9-4.7,4.5-8.8,5.7c-6.1,1.9-12.3,3.6-18.5,5.1c-12.2,2.9-24.5,4.9-36.8,6.2C1091.1,569.8,1090,573.4,1094.2,573z"/>
	<path d="M1142.5,586.5c-6.9-6.8-17.4-3.6-25.6-1.5C1124.6,590,1134.1,587.6,1142.5,586.5z"/>
	<path d="M1131.2,617.6L1131.2,617.6c13.4-1.9,24.4-8.5,32.5-17.7c-7.8,7.7-17.7,13-29.7,14.7c-18.4,1.9-34.2-8.1-45.6-22.1
		c-0.5,1.4-1.3,2.6-2.2,3.7C1097.5,609.8,1113.1,619.5,1131.2,617.6z"/>
</g>
</svg>
