<svg xmlns="http://www.w3.org/2000/svg" width="1920" height="1080" style="enable-background:new 0 0 1920 1080" xml:space="preserve"><ellipse cx="943.1" cy="990.5" rx="161.1" ry="39.8" style="fill:#ccc"/><path d="M761.2 933.5c-.4-.1-.8-.2-1.2-.1.1-.4.3-.9.5-1.3-.5-2.1.5-4.4 2.1-5.7.9-3.3.8-6.6-2.8-8.7.7 5.7-.7 11.1-4.6 15.1-6.4-21.1-8.8-42.4-14.5-63.6-7.3-25.1-12-52.2-14.4-79.8-.7-7.8-1.5-15.7-7.2-21.4-2.8-2.1-4-5.1-5.4-8.2-1.2-2.8-2.4-5.8-4.9-8.1l-.1-.1h-.1c-2.7 0-5.5.1-8.5.3-1.3 2.8-2.4 5.8-2.8 9-11.1.6-22.2.1-33.1 2.5-1.8-3-3.9-5.8-5.8-8.5-6.3-.4-12 3.3-13.3 9-1.2 3.9 1.6 6.9 3.4 9.9-14.7 18.6-25.9 46.5-30.4 72.4-.7 4.2-1.5 8.7-2.7 12.9-1.6-4.9-1.3-10.2-2.1-15.3-5.4-29-4.3-58.4-6.6-87.6.4-13-.7-26.2-1.8-38.9-.6-6.1-1.2-12.4-1.5-18.7-.1-7-4.2-13.9-2.4-21 1.9-10.6 2.5-21.1 4.5-31.7 8.7 1.2 17.5 1.9 24.7-3.1 1.8 2.5 6.4 7 11.1 3.4-.9-1.6-1.8-3.3-2.4-4.6.7-.7 1.6-1.8 2.4-2.7.4 2.2 1.2 4.3 2.2 6.3 1-4.5 3.9-9.9 0-13.8 1.8-.9 3.6-1.6 5.2-2.4-1.5-1-3-1.9-4.5-3-2.7 2.4-6.3 3.1-9.6 4.3-.4-1.8-1-4.5-1.5-6.1 5.7-2.5 12.4-2.8 18.7-1 1.2 5.4 1.5 11.4 6 15.1 9 9.6 22.9 9.9 30.5 9.1 16.6-1.6 25.6-14.2 21.4-29.8.6-.6 1.6-1.8 2.2-2.5 10.5 17.1 17.4 34.3 23.2 52.2 3 8.5 6.1 17.2 7.2 26.2-31.9 14.5-65.1-17.4-89.6-6.7-10.5 7-18.3 17.2-29.3 23.6-5.4 2.7-11.2 4-16.8 6.4.1 6.1 5.2 10.8 9.9 13 4.8.9 9.6 0 14.7-1.2 1 2.8.1 7 3.9 8.2 5.1 2.5 10-.7 14.1-3.3.6 4.3 1.2 11.4 7.2 11.1 6 1 9.4-4.2 13.5-7.5.7 3 1 6.3 3 8.8 1.9 3.6 6.1 1.6 9.3 1.9 2.2-2.5 4.5-5.2 7.2-8.5 1.2 4.3 3 7.8 5.2 10.8h5.4c2.5-3.1 4.9-6.4 8.1-10.6.6 3.6 3.3 10 8.7 8.5 2.2-1.9 4-4.3 5.8-6.6 1.5 2.2 2.1 5.8 5.1 6.6 2.4 1.2 5.5 1 7-1.3 7.3-9.1 10.2-20.7 13.3-31.6 3 7.7 4.1 15.8 5.5 23.9l3.9-2.4c-2.1-9.8-4.8-19.3-6.2-29.3.9 0 1.8.1 2.7.1-.2-.8-.5-1.6-.6-2.4-.1-.7-.2-1.4-.2-2-.9 0-1.8 0-2.6.1-3.4-16-8.7-31.1-12.9-42.7.3-.3.7-.5 1.1-.7-.5-1.2-.7-2.5-.6-3.8 0-.5 0-1.1.1-1.6-.7.4-1.3.7-2 1.2-3.4-8.4-6.4-16.9-9.3-25.1.4-.2.8-.3 1.2-.5-1.1-1.5-1.6-3.5-1.5-5.5-.6.2-1.2.3-1.8.5-2.7-4.9-5.7-9.6-8.4-14.4 1.6-1 3.4-2.5 5.5-2.5 6.4-.4 10.3 6 15 9.7-.4-5.8-5.4-10.5-9.4-13-4.8-2.7-9.7.3-14.2 1.9-1.9-2.5-3.6-4.9-5.1-7.6 1-9.1 1-17.4.1-25.4.1 0 .2-.1.3-.1-.5-1.4-.6-3-.2-4.5-.6.2-1.2.3-1.9.5-.3 2.5-1.6 4.8-4 5.9.7-.1 1.4-.3 2.1-.4-5.1 7.2-9.3 13-13.3 18.4-.1-.2-.1-.5-.2-.7-1.2 1.5-3 2.5-5.5 2.5-.9 0-1.7-.1-2.5-.4-22.2 2.7-44.1 7-65.9 11.2-1.8-2.2-3.1-4.8-3.7-7.5-6.7.3-10.3-6.3-15-10.2-.6 1.3-1 2.5-1.6 3.9v.3c2.2 8.5 6.7 16 9.9 24.1-2.1 4.8-9 5.4-13.2 7.9-.6 4.3-1.5 8.8.1 13 1.8 2.7 4.3 4.8 6.1 7.5-.1 10.3-2.2 20.4-3.6 30.7-.9-1-1.9-2.2-2.8-3.3.4-4.2.6-8.5.6-13-7.2-3.4-11.7 3.7-15.3 8.8-2.8-.3-5.8-.6-8.1-.9-1-1.9-2.2-4-3.3-6 4-4.3 6.6-9 7.5-13.9-11.2-6.9-24.7 2.8-28.6 6.3-3.7-.4-7.8-.4-11.1-2.4-5.5-3-12-4.6-19.5-4.9-3.6.1-5.8 3.4-7.8 6.4 1.6-.3 3.3-.6 4.9-1 9.1-3 16.8 1.3 24.2 6.3-1 4-1.9 7.8-2.7 11.4-2.4-1-4.9-1.9-7.5-2.8l.4 3.6c-2.8-.6-5.5-1.3-8.4-2.2 1.9-1.5 4-3.1 6.4-4.8-4.6-2.8-10.5-4.3-13.2-9.4-1 .9-2.2 1.9-3.3 2.7 1.8 2.2 3.4 4.3 5.1 6.3 0 3 0 6 .1 8.5-4.9.3-9.7.9-14.7.6-1-.6-2.1-1.3-3-2.2-1.8-1.8-3.7-3.4-6.4-3.4-4.8 1.8-5.8 7.5-6.1 12.4-.4 9.1-1.8 18-2.8 26.9-1.5 12.1-.7 24.2-2.4 36.4-11.5-10.6-16.5-26.6-29.9-35.3-5.7-4-12.7-4.3-19.3-5.4.1-1.8.3-3.7.6-5.5 3.7-1.5 7.5-2.8 11.1-4.6-2.7-1.6-5.5-3.1-8.4-4.6.3-3.9.7-7.8.4-11.8-1.2-6.7-5.7-12.9-11.7-16.3-4.5-2.2-8.5.7-12 3.1-2.1 1.6-5.2.3-7.8.4 0 1 .1 2.8.1 4-1.3 2.4-2.2 5.7-2.5 8.8 1.3-1.2 2.7-2.5 4-3.9-.1.3-.1.4-.3.6.4 1.8.7 3.6 1 5.4 2.1 12.7 3.4 17.1 17.2 18.7.6 2.4 1.2 4.9 1.9 7.5-5.5 1.9-9.7 9.4-8.1 14.8 4.6 5.5 11.8 5.2 17.8 7.9 10.5 13.8 16.2 30.7 29.6 42.2 4 3.7 8.1 7.6 13.6 8.7-.1 2.7-.4 5.4-.7 8.4-7.2 1.2-15.9 3.7-20.8 10.5-5.1 6.9-8.8 15-10.6 23-2.7 11.7 0 23.5.7 35.2-12.6.6-22 3.6-28.7 9.3-5.7 4.2-8.1 10.9-10.6 17.4-12.3 2.6-26.2 6.7-36.3 15.9-26.7-11.6-59.9-14.7-97.5-8.9-34.7 5.4-62.2 16.7-66.8 18.6C133.2 891.9 75.3 889.9 37 900 7.9 907.6.1 920-.2 920.5l3.6 2c.3-.5 30.6-46.8 201.3-12.6l.6.2.6-.2c.3-.1 29.3-12.8 66.5-18.5 34.2-5.2 82.4-5.6 118.5 22.6l2.8-3.3c-5.9-4.6-12.4-8.6-19.3-12.1 10-6.4 22.1-13.5 35.4-14.4 14.2-1.5 28.9 6.3 35.9 18.9 3.3 6.3 2.7 13.6 3.1 20.5-5.4.1-8.1 4.5-10.8 8.5-2.8 4.2-5.4 8.2-10.8 7.9-6.1.3-10.3-4.9-15.7-6.9-4.6-1.6-7.8 2.7-9.7 4.9 3.6.9 6.7-1.2 9.9-2.5 6.3 4 12.9 9.1 20.8 7.6 3.9-1.9 6.1-5.4 8.2-8.7s4-6.3 7.5-8.1c-.1 6.3-2.8 11.8-3.7 17.8 2.8-.3 3.6-3.4 4.8-5.5 2.8 5.4 9.3 4 14.2 4.3.1-.4.3-1.2.3-1.6-5.8.7-12.6-1.2-13.5-7.2.7-5.5 3.6-10.5 3.7-16 .3-5.2-1.3-10.3-3.3-15.7 7.2-2.8 17.5-5.1 26.5-.7 12.3 4.9 22.3 16.3 27.1 30.5-.3.3-.7.9-1 1.3-9.7 2.1-19.3 5.2-24.5 13.2 2.8-.6 5.5-1 8.2-2.7 11.5-7.6 25.9-8.4 39.7-8.2 9.3.1 17.5 4.5 26.5 5.8-1.6-10.2-4.2-20.1-5.7-30.2 1.9 1.6 3.9 3.4 6.1 5.5.4 8.4 2.1 16.5 3.6 23.5.6-.6 1.5-1.5 2.1-1.9-.7-6.7-1.5-13.5-2.2-20.4 2.1.6 5.8.3 6 2.5.9 6.4 1.3 13 3.3 19.3 8.7-7.8 15.9-17.5 26.5-22.7 6.7-3.1 15.3-3 25.3.3 7.5 2.5 12.4 8.8 18 14.1-.7.9-1.4 1.9-2.1 2.8.8.6 1.7 1.2 2.4 1.8.2.2.5.4.7.7 5.3-3.8 12.2-6.1 18.9-2.6-1.2 4.5-1.6 7.5-1.9 11.2 4.6-5.7 6.4-12.7 10.5-18.7 5.8-8.4 11.8-16.3 20.7-20.5 9.6-4.6 23.3-5.7 32.6 2.7 4.9 3.7 8.7 8.7 12.4 13.5 4.5 6 9.3 12.1 16.2 15.9 2.1.4 4.3.6 6.7.9l-3.6 4.9c4.2-.9 7.6-3.3 10.3-7.6 3.1 2.1 5.6 4.1 7.9 6.1-2.3-3-4.6-6.1-6.7-9.2zm-30.4-189.9-3.1-2.2c.4-.7 1-1.5 1.5-2.1 1.9-2.7 3.7-5.4 4-8.8-2.7 1.9-4.2 5.1-6.3 7.6-.3-3.7-1.5-8.7 2.1-10.9 4.2-3.1 9-6.9 12-12.3.6.4 1 1.2 1.6 1.8-2.4 11.4-6.3 20.2-11.8 26.9zm13-47.3c.9 4.2.6 8.5.3 12.7-.1 1.2-.3 2.2-.3 3.4-1.5.7-3 1-4.6.9-4.6 4.2-8.8 9.4-15.3 10.5-.9-5.7-.1-10.5 2.2-14.8-6.7 3.6-11.7 9.4-18.7 12.6-.9-5.7-.4-10.9 1-15.9-7.3 4.5-14.2 10.3-22.9 12.1.3-5.7 3-10.6 3.9-16-7.3 4.2-13.9 11.2-23 10.8.1-5.1 2.7-9.4 3.9-14.2-3.9 1.5-7.6 3.7-11.1 5.8-2.7 1.6-5.4 3.3-8.2 4.6-1.3-.1-4-.1-5.4-.3l-2.2 3.6c6.9 4.9 13.5-1.8 19.6-4.8.1 2.5.3 4.9.4 7.5 6.3 6.3 13.6-.3 19.8-3.6-.3 2.7-.6 5.5-.9 8.2 1 .7 2.8 2.1 3.9 2.8 6.4-1.5 11.7-5.2 17.1-8.7.3 4.6.1 9.7 4.3 12.9 4.5-2.2 8.2-5.5 12-8.7.3 2.1.6 4.6.7 6.9l4.2 4.2c-2.2 4.5-4.8 9.4-8.5 13.5.6-4.2.9-8.8.3-13.3-3.3 2.4-1.8 6.1-1.9 9.4-4-1.9-2.7-8.2-3.1-12.3-6.3 5.1-6.7 15.3-14.4 19 1.2-6 4-11.5 3.3-17.8l-3 2.1c-.3 3.9-.4 7.9-2.4 11.4-1.5-4.8-2.2-9.9-2.1-15.1-3.3 3.9-5.5 8.4-8.8 12.3-1.9 2.2-4 4.8-7.2 4.2 2.2-5.5 7.3-9.9 6.9-16.5-3.6 3.6-4.8 8.7-7.6 12.9-2.1-4.3-1.2-9.4-1.3-14.1-6 4.8-9.9 15-18.6 14.4 4-5.4 8.8-10.6 9.9-17.7-4.3 4-6.1 10-10.6 13.9.3-4 .7-7.9 1-12-3.4 1.3-6.4 3.6-9.4 5.7-1.2.9-2.4 1.6-3.6 2.5-.7 1-3.4 1.8-4.8 1.2-.6-.3-.9-.7-.9-1.3 6-4.2 12.4-8.2 15.3-15.3-4.8 3.4-8.7 7.9-13.6 11.2l1-6.6c-7.6.1-14.1 5.8-21.7 5.5 6.7-6 18.6-5.5 21.1-15.9-7.3 6.4-16.5 10.2-25 14.5-1.2-1.5-2.2-3.3-3.3-4.9 10.9-2.5 21.6-8.2 31.3-16.8.1 2.5.1 5.5.3 7.8 2.4-2.1 2.8-5.2 3-8.1 0-1 .1-2.2.3-3.3 5.1-6.3 10.6-10 16-10.8 23.2 0 43.1 15.6 66.6 13.3 5.4-.1 11.6-.4 14.8-5.5zm-105.2-65.5c.9.7 2.1 1.8 3 2.5-.4.6-.9 1-1.5 1.5-1.6 2.1-3.3 4-3.9 6.7-.1 1-.4 2.1-1 2.4-.3.1-.6.1-1 0-3.1-4.7 1.2-9.2 4.4-13.1zm62.8 6.1c-8.8 5.7-21.3 6.6-34.1 2.7-5.2-1.3-9.4-5.7-11.1-11.2-1-4.8 4-7.5 7.8-9.7 7.6-3.7 15-5.7 21.6-5.7 8.8.1 21 3.7 20.8 14.4 0 4-2 7.6-5 9.5zm-97-36.4c3.7 2.5 6.4 6.1 8.8 9.7 6 .1 12-1.2 17.7-2.4 20.5-4.5 42.5-9.3 65.6-10h.1c2.5-2.8 4-6.7 6.9-9.3-.3 3.7-1 7.3-.7 11.1 1.6 3.9 4.2 7.2 6.4 10.6l-2.5 3.6c-7.9-6.6-19-7.9-33.8-4.3-5.2 1.2-9.7 4.2-14.8 5.8-1.6 1.6-3.1 3.7-4.9 5.2-8.5-1.6-16-1.5-22.6.7-7.3-3.7-13.3-5.4-20.2-4.6.3-6-4.3-10.5-6-16.1zm4.7 21.6.3-.1c5.7-.1 11.7-.4 16.6 3 2.5 1.3 4.6 4.2 4.9 6.9.1 1.3 0 3.3-1.8 4.9-6.9 7.9-18.6 5.7-23.6 4.2 1.3-6.3 1.9-12.6 3.6-18.9zM727 839.6c-2.7 3.6-8.1 9.3-15 8.4-1.2-1.2-2.1-3.3-1.2-5.1 3.3-4.6 8.2-8.2 13.8-9.7 1.1 2.5 1.8 4.4 2.4 6.4zm-17.9 11.8c-5.7 4.5-9.9 10-15 15 2.1-10.2 5.1-19.8 7.6-29.6 6.6-4.6 12.1-10.5 19.2-14.8-1 3.1-2.1 6.3-3.4 9.3-.9 1-1.9 1.9-3 2.7-7.2 5.4-6.3 9.3-5.4 17.4zm-21.7 2.1c.1-6.1-7.3-9.7-12.7-7.9-2.4 1-4.3 2.8-6.4 4.3-1.6-3.4-1.9-7.2-2.1-10.8 10.9-.3 21.7-1 32.6-1.2-3 10.3-6 20.8-8.7 31.3-5.4 1.5-10.8 2.2-16 2.4 2.7-3.7 6-7 7.8-11.4 1.2-2.7 3.6-4.6 5.7-6.7h-.2zm38.6-22.6c-1.6-.4-3.3-.7-5.1-1 .9-2.7 2.2-5.1 4-7.2.3 2.3.8 4.9 1.1 8.2zM596.4 628.5c2.2-1.2 4.6-2.4 7-3.6-.3 1.6-.6 3.3-.9 5.1-.4 2.8-1 5.7-1.5 8.7-4.5-1.9-4.8-7-4.6-10.2zm-45.8 25.6c5.1-4.3 11.4-6 15.7-6.6 1.6.7 3.1 1.6 4.6 2.7-2.7 3.9-6.4 6.9-10 9.9-1.2 1-2.4 1.9-3.6 3 3 .6 6.6.9 8.4 3.6-6.6 2.5-13-3.9-19.5-.9.9-4 .8-9 4.4-11.7zm-4.8 2.4c-.7 3.7-1.5 7.5-2.5 11.1-1.8.7-3.9 1.2-6 1.3.5-4.1 2.5-11 8.5-12.4zm-128.4 34.4c-3.3-.9-6.6-1.9-7.6-5.2-3-7.3-3-15.1.1-20.8 1.5-3.4 5.2-5.7 9.4-5.7 4.6 3 12.1 9.6 12.3 19.3-3.6-.3-7-.9-10.6-1.2-1.8 1.2-3.1 2.7-4.5 4.2.7 3.3 1.5 6.6 2.2 9.7-.4-.1-1-.3-1.3-.3zm6 .9c-1.8-2.7-4.6-6.1-3.9-9 .1-1 .7-1.9 1.9-2.7 2.7.4 5.7.7 9.4.7-.1 2.2-.3 4.6-.3 6.9.6.9 1.8 2.5 2.5 3.6-3.1.4-6.4.5-9.6.5zm4.4 9.6c-1.2-.1-2.5 0-3.7.4v-.1c0-1.8.1-4.9.3-6.9 3.4 0 3 3.9 3.4 6.6zm29.8 54.9c-9.9-10.9-14.2-25.4-24.4-36.1-5.4-1.9-12.9-1.5-16-7.2 4.2-8.2 15.6-9.4 24.2-6.4 18.3 7.8 23.5 28.4 37.9 40.3-.9 5.5-1.2 11.2-1.6 16.5-.1 2.8-.3 5.7-.6 8.5-7.9-3-13.8-9.4-19.5-15.6zm11.8 138.2c-6.9 0-12.7.9-17.8 2.8-1.8 1.5-2.8 0-3.6-1.6-4-6.6-10.3-12-18.3-14.8-6.3-2.5-12.9-1.5-19.3-2.5 7-15.6 18.7-21.3 36.2-21.6 21.5.7 31.8 18.7 22.8 37.7zm38.5 37.9-2.7-2.2c-.1-4.8-.3-9.1-2.5-12.7-6.1-10.5-16.6-18.6-29.6-23.2 4-9.6 1-20.4-1.2-26-3.7-9.3-13.6-12.4-22-16.5-1-7.5-1.8-15.9-2.2-25.3.1-16.6 16.2-42.2 35.5-33.8 8.4 4.8 11.5 15.1 13.8 22.6 1.6 5.7 4.9 12 1.8 17.5-6.6 1.9-13.6.6-20.4 1 .9.9 1.9 1.9 2.8 3 7-.9 14.4 1.5 20.8-2.7l4 18c-8.4 3.3-18.1 1.8-25-4.2 0-4.5 1-9.4-2.5-13-3.1 12.6 2.7 24.7 5.2 36.8l-5.8.9c.4 6.6 5.5 10.5 10.5 14.1 2.2 1.6 2.5 1.6 1.5 4.5-2.1 4.8 1.8 6.1 5.1 8.4.1 1.6.4 3.6.9 5.7.9 1.2 2.1 1.8 3.3 2.4 1.8.9 3.4 1.6 3.4 3.7.3 3.6 3.4 4.9 6 6.6.1 1.2.4 3.3.6 4.3 2.2 2.5 4.8 5.1 6 8.4-2.3.8-4.9 1.1-7.3 1.7zm-5.5-74.9 4.5-1.5c1.8 5.7 3 11.4 4.3 18.1-3.1-.9-7-.9-9.4-3.3.7-3.8.9-7.9.6-13.3zm-3 13.2c-1.2.4-2.5.3-4-.6-.4-4.3-1-8.5-1.5-12.7 7.1-.8 5.6 8.2 5.5 13.3zm-7.8-.3c-1.3 0-3.4 0-4.6.1-1.3-5.1-2.1-10.3-3.4-15.4 2.7.7 6 1 7 3.9 1 3.6.7 7.7 1 11.4zm57.2 66.1c-7.8-3-15.7-4.2-23.6-6-2.5-3.1-9.3-5.1-6.1-10l-.6-.1c-.9-.4-2.4-1-3.3-1.5 4.5-5.5-3.7-6-7.8-7 1.2-1.6 2.2-3.1 3.3-4.8-3.1-1.9-6.7-2.5-10.3-3.6-.3-2.7 3.7-3.7 4.6-6.1-3.6-1.8-7.3-3.1-11.1-4.5 3.3-1.9 7-3.6 8.8-7.2-6.7-1.8-14.2-3.7-18.6-9.6 9.4-1.3 18.7-.4 26.5 2.7-1.9 9.7.9 21 8.4 33.2 2.4 3.7 5.8 9.1 11.1 7-11.1-9.4-17.5-24.2-17.2-39.5 4.5 1.3 9.6.4 13.9 2.2 3.1 14.5 3.9 29.5 4.9 44.2.3 2.5 0 5.7 3.6 6.3-.3-20.2-2.8-40-4.2-60-1.9-14.2 0-27.7 16.2-32.3 21.3.1 22.7 23.8 26.3 39.5-.7 1.2-1.6 2.7-2.5 4-4.6.1-10.2.1-15.6-1.2-2.8-.6-5.8-1.8-8.5 0-6 3.7-5.2 11.5-5.1 17.7 1.9 12.4 4.2 24.7 6.9 36.6zm2.1-27.5c-7.9-7.5-4.6-20.1-3.3-24.2 8.8.1 17.7 4.6 26.2 0 1.2 8.7 4 17.1 3.4 25.7-7.5 4.9-19.6 5.8-26.3-1.5zm20.9 17.1-.1.4c.4 3.1-1.5 5.5-3.3 7.2-1-5.7-2.2-10.5-3.4-14.8 1.5-.1 3.9-.1 5.2-.3.4 1.9-.7 6.1 2.7 5.7.9-2.2 1-4.5.6-6.7 1.8-.7 3.9-1.6 6.1-2.2.8 4.8-2.7 10.2-7.8 10.7zm10.9-8.3c-1.9-6.9-2.2-13.9-3-20.8-.9-5.1-1.6-10.2-2.4-15.1-1.5-10.5-3.1-21.4-6.7-31.6-2.2-6.3-7.6-10.3-12.9-13.5 5.7-10.6 12.1-17.2 19.9-19.8 4-1.6 9.6-.7 11.8 3.4 3.4 6.1 4.6 13.2 6.1 20.1.1 2.1 1.6 5.1-.6 6.3-4.5 3.1-11.1-1.6-15.3 2.8-4.2 4.5-3.9 11.2-3 16 1.9 7.8 4.2 15.6 6.4 23 2.2 7.8 4.8 16 6.6 24.1-2.1 1.8-4.3 3.5-6.9 5.1zm10.8-6.4c-2.1-8.8-4.8-17.8-7.3-26.3-1.9-6.3-3.9-12.6-5.5-19-1.3-4.5-1-9.6.7-14.2 5.7-.7 11.2-.7 16.8-1.9 3.6 20.4 8.1 40 11.7 60.3-5.9-1.1-11.4-.7-16.4 1.1zm19-11.4c-3.6-21.1-8.4-41.6-12.7-62.4-1.6-7.2-3.1-14.8-7.5-21.1-2.7-3.3-6.4-4.3-9.6-4.2-14.7-.1-22.7 12.3-28.3 23-9.9-.3-19.8 5.5-25 14.7-1.3 2.5-3.6 4.5-5.7 6.4-2.4 2.1-4.8 4.3-6.1 7.3 2.1.9 4.2 1.6 6.3 2.5-1.2 2.8-5.7 6.4-1 8.4l1-1.5c.7-1.9 1.8-3.7 3.6-5.7v4.3l-2.2 1.3c.3 1.5 1.3 2.4 2.2 3.3-2.1.1-4.2.1-6.3.3-11.2-24.1-10.9-51.2-21.4-75.6-4-8.4-11.5-13.5-17.2-16.2 1.6-9.4 1.8-18.7 2.5-28 1.6.9 3 2.1 4.3 3.3h5.7c3.3 8.2 8.4 15.6 13.2 22.7 5.1 7.2 8.2 15.4 18 15.9 7.3 8.5 14.4 14.1 22.6 15.6 5.7.7 12.7 1.3 16.8-3.9-6.7 0-13.6 1.6-19.9-1.2-11.8-5.7-21.3-15.9-25.7-27.8-2.2-6-2.1-12.6-5.7-18.1l3.6-3.3c6.1.1 11.1 3.3 16.2 6.6 4 2.5 8.4 5.4 13.3 6.3 10.3 2.5 22.2-1.2 29.9-9.4-.3-1-.7-2.7-1-3.9-6.3 4.9-12.3 11.5-20.8 11.7-6.7.3-12.4-3.3-17.8-6.6-3.3-2.1-6.7-4.2-10.5-5.5-5.5-1-5.7-7.8-7.3-12.3.7-.9 1.9-2.5 2.8-3.6-.1-2.7-.3-5.5-.4-7.8v-.1l-.1-.1c-2.2-2.1-4.6-4.2-6.9-6.3-3.7.1-7.5.1-10.9 1.9.6-4.9 1.2-10.2-.6-15-1 5.2-1.3 10.5-1.9 15.7-2.7-.1-5.7-1-8.4.1-2.8 2.1-4.2 5.4-4.2 9.4-1 1.5-2.1 3.1-3.1 4.8-1.3-18 1.2-35.6 2.5-53.4.3-7.5 2.5-14.7 2.4-22.2 2.1 2.1 3.9 4.8 5.1 7.9 22.7-5.2 45.9-4.9 69-6 6.4 0 12.6 1.6 19 .4 1.3-2.2.9-6.9 4-7.2.1 4.2-.7 8.8 1.9 12.6 6.3 9.1 6.7 20.5 9 31 1.6 8.7.3 17.5 1 26.3.7 10.5 1.9 21.1 1.5 31.9.7 21.6 3.3 42.8 4.6 64.2.9 13 1.8 26.3 4.3 39.4.1 5.4 1 10.6 1.9 15.9.9 6.1 1.9 12.6 1.9 19-.8-1.6-1.6-3.6-1.9-5.7zm-85.6-36.2c-2.2-.4-4.2-1-6.1-1.6 1.9-1.6 3.9-3 6-4.3.1 2 .1 4 .1 5.9zm-35.7-125.1c1.8-4 5.7-6.4 10-4.9-1.3 2.5-3 5.1-3.4 8.1.4 3.4 2.2 6.3 3.7 9.3-3.1 3.7-6.3 7.9-11.7 6.9-1.2-2.5-2.8-5.2-1.9-8.2.6-6 6.6-8.7 10-13-2.3.4-4.8 1.2-6.7 1.8zm18.2 26.9c1.5.7 3 1.3 4.5 2.1.7 4.8 1.2 9.6 2.7 14.2 1.2 4 3.7 7.5 4.6 11.7-2.8-2.2-4.8-5.4-6.7-8.4-.9-1.5-1.9-3.1-3-4.5-4.8-6.7-8.5-13.8-12.9-20.7 2.7-8.1 11.5-10.9 19.2-10 .6 2.2 1.3 4.9 2.2 7.6-5.1-.1-8.5 4-10.9 7.6l.3.4zm7.2-18.1c-4.8.4-8.7.9-12.1 1.6-1.6-2.5-4-5.5-3.3-8.7 1.3-3.1 3.6-5.8 5.4-8.7 2.2-.1 4.5-.6 6.7-.3 3.3 1.6 5.1 5.1 6.9 8.2-1.2 2.7-2.4 5.4-3.6 7.9zM658 930c-6-3.7-13.5-3.7-19.8-.1-4.3-8.8-10.8-14.8-18.4-17.1-1-7.9-3-15.7-3.3-23.8-.3-8.2-3.1-16-3.3-24.2 11.4-2.2 20.8 8.7 22.4 19.5-3.3 1.2-6.1 3.6-8.4 6.4 11.1-2.2 15.1-4.9 24.7 3.6-3.4 1.9-6.1 6.3-10.5 5.7-3.7-.7-6.1 2.2-7.8 4.6 4.6.3 10.5-1.9 13.6 2.5-.3 1.3-1.6 2.1-3 2.8-1.8.9-3.7 2.2-3.9 4.8 4.3-1.3 9.6-1.9 15.1-1.9-1.8-1.6-3.7-3.3-5.7-4.8-.9-2.5-1.9-4.9-2.8-6.9 6.1-5.1 13.6-2.1 18.7 1.9-1.3-2.4-2.7-4.5-4.5-6.7-3.9-.3-6.9-2.8-9.1-7.9 12.1-2.8 18.9-.1 27.4 8.1 1.6 1.5 3.3 3 5.1 4.3.1-7.6-6.4-11.7-12-15.1 7.3-5.5 17.5-6.9 26.2-3.3 8.7 3.9 12.6 12.7 14.1 18.1-26.5-8.3-44 7.6-54.8 29.5zm71.4-17.1c-3.7-4.3-8.2-7.6-12.7-11.1-1.5-9.7-7.8-21.1-19.2-24.5-9.1-3.1-20.4-.9-29.2 5.8-2.1.4-4.3.4-6.4.6-3.9.1-7.9.3-11.4 2.8-3.7-1.6-8.1-2.8-12.9-3.7.4-10.9-8.1-19-16.5-22 3.7-34.3 15.6-64.2 34.6-86.7-2.7-3-5.5-6.6-5.1-11.1 4.5.4 7.2 4.2 10 7.5 15.4 0 30.5-3.6 46.1-1.6-1.6-3.9-6.6-8.5-2.7-12.4 3.7 2.1 7.9 5.8 7.6 11.2 3.7 3.3 8.4 8.7 9 15.6.3 5.1.7 10 1.2 15.1.3 5.1.7 10.2 1.2 15.3-.3 1-1 2.7-1.5 3.9-2.8-1.6-5.5-3.1-8.2-4.8 1.6 1.9 3.3 4 4.9 6-4.5 3.6-9.3 6.7-13.2 10.9-.6-.6-1.2-1-1.8-1.5 3-3.1 4.8-6.1 6.4-9.7-3.3 3.1-6.3 6.6-9.4 9.9.1 1 .4 2.7.6 3.9-1.8-.1-3.6-.4-5.4-.6 0 .9.1 1.8.3 2.8-9.1.1-18.1.3-27.1 1.2-1.3.1-3.4.3-4.5 1.5-.4.4-.6 1-.4 1.8 0 4.5 1.2 8.8 2.4 12.1-5.5 4-10.5 9.9-17.8 10.2-3.4-3.4-7-6.1-10.9-8.4 1.5 4.8 5.2 9.3 9.4 11.1 7 3.3 13.3-2.8 18.4-6.9 3.4-2.8 7-5.8 11.4-7.5 2.1-.9 4.3-.3 6.9 1.5-3.7 4-4.8 9.6-8.7 13.5-4.3 4.8-11.4 5.5-16.3 9.7 4.5 2.4 8.7 0 12.4-1.9 1 1.6 1.9 2.8 2.7 4 7.8-2.5 18 .7 23.6-6.7 4.5-5.8 9.9-12.3 16.5-16.9 6.6-.7 12.3-4.5 15.4-10.3 7.3 30.4 12.4 60.5 19.5 90.8-8.3-4.8-13-13.4-19.2-20.4z"/><path d="M652.9 607.3c-2.5-1.3-5.4 2.7-3.3 4.6 2.6 1.4 5.6-2.7 3.3-4.6zm-11.5 6.3c2.5 1.2 4.5-2.8 2.8-4.8-2.6-2.1-5.2 3.3-2.8 4.8zm-10.6.1c-2.8-1.1-3.7.2-2.8 2.7 2.3 1.1 4 .2 2.8-2.7zm58.1 5.9c-.1 3.1-1 6.1-3 8.8-3.4-1.8-5.8-4.3-6.7-7.5l-3.3-2.1c1.6 4.9 3.3 11.4 9 13.5 5.5.1 6.3-6.6 6.9-10.5-.4-.3-.9-.6-1.3-1-.7-.5-1.2-.8-1.6-1.2zm-14.7 7.4-1-.7c1.5 5.8 6.6 10 13 10.8-3.5-3.9-7.7-6.9-12-10.1zm-52.1 8c.6 1 1 2.2 1.6 3.3 1.5-.6 3.6-1.5 5.1-2.1l-4.9-2.7c1-2.2 2.2-4.8 3.1-6.9-2.4 2.2-4.2 5.2-7.2 6.7-1-1.6-2.4-3.6-3.6-5.5-1.9 4.2 1.3 8.7 5.9 7.2zm89.7 5.2c-.9 3.7 1.2 6.9 6.1 9.1l.9.4c-1.5-3.5-2.7-8.3-7-9.5zm-5 7.9c1.3 1.8 2.7 3.7 4.5 5.5l.3.1c1-.7 2.4-1.5 3.4-2.2-1.6-1.8-3.3-3.7-4.9-5.5-.9.6-2.2 1.5-3.3 2.1zm-100.3 10.7c2.7 1.8 5.7-2.8 3.4-4.9-2.6-2-5.8 2.8-3.4 4.9zm125 11.8c-2.7-6.7-7.5-11.8-11.5-16 0 6.4 3.7 13.9 10.8 15.9l.7.1zM608 664.9v.3c2.5.6 6.6-1.8 6.3-4.8-2.5-1.6-6.7 2-6.3 4.5zm66.9-3.3c-1.5 1.3-3.3 2.7-4.8 4-5.7.4-11.5-.3-17.2-1.2 2.4 4 6.6 5.5 11.1 5.4 4.2 0 8.4-1.2 11.4-2.2-.2-1.6-.3-4.3-.5-6zm40.3 1.2c.3 6.4 5.1 12.4 11.1 13.9-1.3-5.2-4.8-9.6-10.3-13.5l-.8-.4zm-295.6 4.1c-2.1-.6-4.3-1.2-6.6-1.8-.9 3.4 2.1 4.3 4.5 5.2.6-1.1 1.5-2.4 2.1-3.4zm229.1-.2c-5.1 2.7-10.6.4-15.9 0 3 3.7 7.2 5.8 11.7 5.8 1.5 0 3.1-.3 4.5-.7-.1-1.5-.1-3.6-.3-5.1zm-30 1.6c1 2.2 3 3.9 5.5 4.5 3.3.6 7-.4 9.6-2.8l-3.3-2.7c-3.6 2.2-7.8 1.5-11.8 1zm90.5 3.2h-.6c1.9 5.1 6.6 9 12 9.7-2.6-4.6-6.2-10.2-11.4-9.7zm-59.4 6.1c4-.4 9.9 1 10.2-4.9-3.4.4-6.7.9-10.2 1.2v3.7zm10.5.8c4.8 3.3 12.4 1.9 12.7-4.6-3.4 2.4-7.5 4-11.5 4.5l-1.2.1zm-20.2-3.5c-4.2 1.2-8.4 1.6-12.6 1.3 2.1 5.2 7.6 5.1 12.7 3.4l-.1-4.7zm-28.9 1.8.1-.4c-4.3-1-5.7 3.6-6.7 6.7 3.1-.9 5.4-3 6.6-6.3zm27.2 7.5-1 .7c4.6-.1 11.7 2.2 13.3-4-4.8 0-9.1 1.1-12.3 3.3zm-31 4.9-.3.9c4-2.4 7-5.8 8.5-10-4 1.7-7.1 5-8.2 9.1zm-19.1-8 .1-.6c-3.3.4-6.1 2.5-7.9 5.7 3.9.1 7.2-1.8 7.8-5.1zm-5.3 12.7c3.3-1.6 7-3 8.7-6.6-3 .7-6 1.6-8.7 2.5v4.1zm-16.9-5.7-.3-2.1-.6 1c-1.9 3.4-.4 9.9-5.2 10.9-4.2-1.6-2.2-7.8-3.6-11.4-2.1 2.5-3.1 6.3-2.4 9.4.6 3.1 3.9 6.6 7.2 5.8 2.1-.7 3.3-3.4 4.2-5.7 1.5-2.2 1.2-5.2.7-7.9zm-25.9 17.1c-1.6 6.1-7.8 10.5-15 10.2-4.3-2.2-5.8-6.7-6.3-9.4 4.9-.4 10.3-.7 14.1-4.5.1-6.3-8.2-5.1-12.6-4.3 1.5-1.6 3.1-2.7 5.1-3.4-.9-.6-1.9-1.3-3-1.9 1.2-1.8 4.2-2.2 5.8-3.6l1-.7c-3.1.3-6.3.4-9.3.9v6.3l-1.2-.6c-1 7.3-3.4 15.6.6 22.3 6.4 4 15.6.1 19.8-3 1.9 1.2 3.9 2.2 5.8 3.4-1.6-3.4-3.6-6.7-4.6-10.2l-.2-1.5zm67.8-8.7-.7 1c5.1-1.2 9.6-4.9 12.4-9.9-4.6 1.7-8.5 4.5-11.7 8.9zm-98.6-3.3c-1.6 3.1-3.3 6.3-7.2 6.4-.6-3.6-1.2-7.2-1.9-10.6-1.2 3.6-1 7.3-.7 10.9 1.5 1.6 3.1 3.3 4.6 4.9 6.4-3 6.7-9.7 6.7-14.4-.4 1-1 2-1.5 2.8zm149.5 4.9-.3.4c4.2 2.1 7.6-1.6 8.8-6-3.2.8-5.9 2.5-8.5 5.6zm-78 .9c4 .6 7.9.6 11.2-2.8l.4-.4c-4.2-1.3-8.7-.1-11.6 3.2zm-15.2 5.6c3.9-.6 9.7-5.2 6.3-9.4-2.3 3.1-4.2 6.2-6.3 9.4zm-92.5 107.7c-4.9-2.1-3.1 6.3.1 6.1 1 0 1.8-.9 1.9-1.8.3-1.5-.9-3.6-2-4.3zm-14 4.4c1 0 1.8-.9 1.9-1.8.3-1.5-.9-3.6-2.1-4.3-4.9-2.1-3.1 6.3.2 6.1zm237.1-108.4-.7 1c4.8 2.1 6.7-2.7 8.7-6.1-3.8-.6-6.2 2.4-8 5.1zm37.9-1.6c-2.8 1-4 3.7-4.9 6.4 3.6-.3 6.7-3 4.9-6.4zm-20.6 7.3c2.7.3 4.2-3.9 2.5-5.8-3.4-2.7-6.3 4.7-2.5 5.8zm-151.8 64.2c.7 2.8 7.3 2.4 6-1.3-1.4-2-6.3-1.8-6 1.3zm115.8 34.1c-.9-1-1.8-1.9-2.7-3 .7-1.2 1.6-2.5 2.4-3.6-7.3.4-13.8.6-20.1.3.4 3.7-.1 7.8 2.1 11.1 2.1 0 4-.9 6-1.3.9.6 2.5 1.6 3.4 2.2l4.3-4c2.8 1.8 6.3 1.3 9-1.3 1 .3 2.5.6 3.6.9-.7-.7-1.9-1.5-2.2-2.5 3.7 2.5 12.3 7 19.5 2.7 3.9-7 1.5-15 .4-22.3l-1.2.6v-6.3c-3.1-.3-6.1-.7-9.3-.9l1 .7c1.6 1.3 4.6 1.8 5.8 3.6-1 .7-2.1 1.3-3 1.9 1.9.7 3.7 1.9 5.1 3.4-4.3-.7-12.7-2.1-12.6 4.3 3.7 3.7 9.1 4 14.1 4.5-.6 2.8-2.1 7.3-6.3 9.4-5.1.1-9.9-1.9-12.7-5.5v-.9c-.3-1-.3-1.9-.1-3-.4.1-1 .1-1.6.3l-.4-1.2-.3 1.3c-1.9.3-3.4.6-5.1.7 1.2.7 2.5 1.8 3.9 2.7-1 1.8-1.9 3.6-3 5.2zM658.8 799c4.4-2.6 6.7-7.8 6.2-13.4-2.2 2.7-4 5.5-6.3 8.2-3 .3-4.3-3-6.1-4.9-.6 4.1 1.4 7.4 6.2 10.1zm50.9-7.3c3.2-1.8 4.6-5.6 4.3-9.3-1.5 1.8-2.8 3.9-4.3 5.7-1.9.1-2.8-2.2-4.2-3.4-.5 2.8.9 5.2 4.2 7zm-224.2 57c3 0 2.8-4.5.9-5.8-3.9-1.8-3.9 5.5-.9 5.8z"/><path d="M463.2 813.5c-1.6 1.2-2.5 3.1-3.6 4.8-3.1.1-6.4.1-9.6.1 2.2 2.4 5.4 3 8.2 3 0 3.4.3 7 1 10.6 4.5-1.2 6.1-5.5 7.9-9.3-.4-1-.9-2.2-1.3-3.4l-2.6-5.8zm.1 8.7c-.7 1.6-1.2 3.4-1.5 5.2h-.1c-.9-1.5-.9-4.9-.1-6.6.6-1.2 1-1 2.1.3l-.4 1.1zm60.9 65.4c-2.5-.7-5.4-1.8-8.2-2.4.4 2.4 2.8 5.4 5.4 5.4.9 0 2.4-.8 2.8-3zM498 849.1c2.4 0 3.4-4.2 1.5-5.5-3.6-2.4-5.4 5.4-1.5 5.5zm28.5 49.1-.3-4.6c-1.8.3-3.7.6-5.7 1 .6 2.8 3.3 3.1 5.5 3.4l.5.2zm-.9 2.1c-2.1.1-3.4 2.5-1.8 4.2.4.7 1.2 1.2 2.1 1.2 1 0 2.1-.7 2.5-1.6.6-1.7-1-3.9-2.8-3.8zm32-7.2c-.1 2.7 0 5.7.9 8.5 4.6-1.7 3-6.8-.9-8.5zm7.8-.1c-.7 2.5-1.6 5.2-.9 8.1 4.6-.9 4.3-5.9.9-8.1zm-21-28 .3.3c1.5-1.3 2.8-2.8 4.3-4.2 0-2.1-.1-4.2-.1-6.3-.7.1-1.6.1-2.4.3 0 1.3.1 3.7.3 5.2-2.7-.9-5.2-1.9-7.9-2.7 1.6 2.8 3.7 5.5 5.5 7.4zm34.3-33.7c.4 1 .9 1.9 1.3 3 3.6.3 6.9-1.8 8.7-4.9-1.9.6-3.9 1.2-6 2.1l-2.4-4.8c-.7.6-1.9 1.5-2.7 2.1.4.7.7 1.6 1.1 2.5zm61.5-14.2c1 .4 2.1.1 2.7-.6 1.6-2.1-1.2-4.9-3.4-4.2-2.7.9-1.2 3.9.7 4.8zm22.2 1.2c3.4 4.3 7.9 3.1 12.7 3 5.8-.4 12.3-1.2 15.9-6.4-2.5.6-5.2 1.2-7.8 1.9-6.8 1.8-13.8 3.5-20.8 1.5zm-93.6 16.5c-3.4.4-5.5.1-5.5-3.6-7.5 6.1 6.4 5.4 3.1 11.2h1.3v1.9c2.7 0 5.5 0 8.2.1-.4-4.2-.6-8.5-1.6-12.9-2.9-1.4-4 1.6-5.5 3.3zm-.4 7.5c.4-2.8 1.6-4.9 3.3-5.8.3 1.8.4 3.7.6 5.7-1.1-.1-2.9.1-3.9.1zM1903.9 908c-89.5-42.6-261.3-12.2-262.9-11.9l-1.5.3-1.5-.4c-61.8-18.2-114.8-16.3-148.3-11.5-36.3 5.2-58.1 14.7-58.3 14.8l-2 .9-2.2-.7c-73.3-23.8-149.3-3.6-150-3.4l-1.3.4-1.5-.2c-161.7-26.7-193.1-1.7-193.4-1.4l-6.2 5.3-.6-6.3c-.6-7-46-21.3-74.4-28.6l3.1-3.6c11.6 3 64.7 17.1 76.5 28.3 13.2-6.5 59.8-20 195.8 2.3 10.8-2.6 83.1-18.9 153.7 3.2 6.4-2.6 27.3-10.2 59-14.7 34.5-4.9 88.9-6.9 152.2 11.5 8.3-1.4 48.8-8 98.1-10.1 73.2-3.2 132 4.8 170.5 23.1l-4.8 2.7zM892.3 907.2c.6-.2 1.2-.2 1.8 0 .5.2.9.5 1.4.7l-5.1-3.6c.6 1.1 1.3 2 1.9 2.9z"/><path d="M757.3 939.5c.2-8.6.1-17.3-1.2-25.8-1.9 3.2-3.7 6.3-5.5 9.6-1.3-.1-1.5-.2-2.8-.3-2.4-7.8-4.6-15.7-3.6-24-3.2.1-6.3.3-9.5.4 7.9-10.9 14.2-23.6 15.1-37.2 1.1-12.7 6.2-25.1 4.3-38-1.9-7.6-5.6-14.7-7.3-22.4-5.1-24.3-4-49.4-1.1-74-4.2-5.1-12.4-4.6-18.6-5.7.5-1.1 1.4-3.4 1.9-4.5-2.9-2.8-7.3-4.9-8.1-9.2-.1-.7-.3-1.4-.4-2-3.5-7.7-4.4-18-3.8-29-.9-15 .2-30.1 3.9-44.7 2.8-8.9 7.2-17 12.5-24.5 1.5-2.1 3-4.1 4.7-6-.8-4.8-1.5-9.6-1.2-14.6.1-1.1-.2-1.9-.6-2.6.8-.2 1.6-.4 2.3-.6h.1c-.5-4.8-1.3-9.6-1.9-14.4 2 1.9 4 3.7 6 5.4 4.1 3.5 10.1-2.5 6-6-9.9-8.4-18.5-18.2-26.2-28.6-5.3-7.2-10.3-14.6-14.8-22.3-.5-2-.9-4-1.4-5.9.6-.9.8-2 .4-3.4-.8-2.2-1.5-4.4-2.1-6.6-.2-1.5-.3-2.9-.3-4.4-.3-.1-.6-.2-.9-.4-2.5-9.9-4-20.1-4.7-30.3 4.2-11.8 10.4-23.2 13.3-35.4.5-2-.4-3.6-1.8-4.5 4.2-4.3 8.1-8.7 10.4-14.3 6.8-14.1 3.6-30.1 6.4-45 .6-3.8 1.8-7.4 3.2-11-.4-.3-.8-.5-1.2-.8.1-1.3-.1-2.6-.5-3.9-.1-.2-.2-.4-.2-.6-1.1-1.6-2-3.8-2.6-4.9 0-.1-.1-.2-.1-.3 0 0 .1-.1.2-.1-.1 0-.1 0-.2.1l-.6-1.2c-.5-.7-1.1-1.3-1.7-2-1.3-1.3-2.6-2.4-3.3-3.3-1-1.2-1.9-2.5-2.7-3.8-.6-2.4-1-4.8-1.4-7.3-.9-1.9-1.5-4-2-6.1-1.4-7.6-1.2-16.7 2.9-23.5 2.4-9.5 7.2-18.2 15-24.9.2.1.5.2.7.3-.2-.1-.3-.2-.5-.4 9.8-1.6 21-5.5 30.3-.1 4.2 2.1 8.4 4.7 13.2 3.8 1.2.6 3.5 1.8 4.7 2.4 3.1 4.2 6.2 8.4 9.2 12.7 32.2-16.1 70.1-21.1 105.3-13.2 1.8 1.2 4 1.9 6.8 1.9h.7c.9.3 1.8.5 2.7.7v-1.1c2.2-.6 4-1.7 5.3-3.1 4.5-1 7.3-4.1 8.5-7.8 6.2-4.9 13.1-8.9 20.3-12.2 8.1 1.5 17.6 2.6 23.7 8.2 1.6.3 2.7 1.2 3.5 2.3.4 17.4-3 34.6-5.4 51.9-2.8 3.7-6.1 7.1-10.2 9.7-4.5 2.9-.3 10.3 4.3 7.3 1.5-1 2.9-2 4.3-3.1-.7 8.5.1 17 3.2 25 3.7 9.4 9.3 17.9 14.4 26.7 1 1.8 2.7 2.3 4.2 2 3.1 2.8 6.5 5.2 10 7.6 2.5.4 5 .9 7.5 1.3.1 1.4.1 2.8.2 4.1.4.3.7.5 1.1.8 2.4 2 4.9 4.1 7.3 6.2 1.6 4 2.9 8.2 4.2 12.3-.2-.1-.5-.2-.7-.4.3.5.6.9 1 1.4 3.6 12.6 6.1 25.8 7.3 39.2-1 9.3-1.2 18.7.1 27.9-.2 2.2-.4 4.3-.6 6.4-.3 2.3-.6 4.6-1 7-5.3 11.7-12.5 22.9-22.6 30.8-4.3 3.4 1.7 9.3 6 6 1-.8 2-1.6 3-2.5-7.1 8.6-15.6 16.6-18.6 27.7-.6 2.2 1 4.6 3.1 5.3-.3 2.4-.7 4.9-.9 7.3h.1c1.3.4 2.6.8 4.1 1.2-.8 1.3-1 2.8-.6 4.5 5.6 5.7 10.7 11.8 14.4 18.9 13.7 24.2 16.1 54 7.8 80.3-1.8 6.3-6.1 11-10.5 15.4-2.2 3-4.8 5.8-7.7 8.6 6.5 26 8.1 53.6 2.9 80-1.7 10.4-10.1 19.1-8.5 30.1-.2 16.5 7.4 31.6 11.6 47.2 2.8 10.5 6.8 20.7 10.3 31.1-3.1-2.7-6.2-5.5-9.3-8.2 0 6.3-.1 12.5-.5 18.8-3.9 6.1-5.2 13.2-5.8 20.3 8.9.3 18.4-.3 26.4 4.5 9.2 6 16.9 14.5 21.3 24.5 3.5 15.2 8.6 30.9 4.9 46.5-8.1 11.9-23.8 13.9-36.5 18.3-13.7 5-28.4 4.7-42.4 8-25 3.4-47.5-10.4-71.3-15.2-6.3-7.3-14.8-12-22.3-17.9-9.9 8.5-19.8 17.7-32.3 22-17.6 6.2-35 13-53.2 17.4-22.2 4.9-43.7-5-65.4-7.7-8.5-5.4-22-8.6-23.1-20.5-.1-15.9 4.8-31.5 10.8-46.1 11.1-11.9 28-20.1 44.9-19.5z" style="fill:#fff"/><path d="M941.9 373.7c-14.1 8.1-30.2 9.8-45.4 11.5-5.8-14.1 6.3-11.8 11-13.7 13.9-2.8 26.9-9.5 39.7-16.1 2.2-1.4 4.3.9 6.3 1.8.9 5.1-.3 10.2-2.6 14.2-2.9 1.4-6.2.5-9 2.3zm-24.8 144.6c.1-.1.1-.3.2-.5-.1.2-.1.4-.2.5zm-97 17.3c7.7 14.9 20.2 27.1 37.4 28.8 11.2.7 21.3-2.3 29.9-7.8-9.2 6.9-20.3 10.7-33 10-16.8-1.7-29.2-13.4-37-28 1-.9 1.9-1.9 2.7-3zm-7.6 6.3c-.1-.3-.2-.5-.3-.8.9-.2 1.8-.5 2.6-.9-.7.7-1.5 1.3-2.3 1.7zm93.2 2.5c-1-.8-2-1.6-3-2.5.7-1 1.5-2 2.1-3.1l.1.1c1.2 1.2 2.5 2.2 3.8 3.2-5.5 9.2-12.9 17.3-22.3 23.5 8-5.7 14.4-13 19.3-21.2zm-35.1-4.1c-7.9-.5-17-.1-23.1-6.2 7.9-.4 18.1-1.3 23.1 6.2zm5-20.8c-15.6 1.5-31.1.9-46.5-1.4-3.9-.6-2.2-5.2 1.6-4.6 11.6 1.7 23.2 2.4 35 1.9 6-.3 12-.8 18-1.7 4-.5 9.3.3 9.2-5.3.6-3 6.5-1.7 5.9 1.3 0 11-15.6 8.5-23.2 9.8zm-47.7-202.6c3.6-.5 7.2-1.2 10.9-1.5-3.4 1.5-7.1 1.8-10.9 1.5z"/><path d="M691.3 491.8c3.1 1.2 6.3 2.4 9.5 3.6.6 13.1 5.9 25.4 7.1 38.4 1.1-.3 3.3-.9 4.4-1.3 4.9 7.2 9.6 14.9 14.7 22.2-1 .2-2 .3-3 .5-.6.5-1.2 1-1.7 1.5 2.2.3 4.6.3 6.7.8 1.5 2 3 4 4.6 5.9.6 6.3 1.7 12.5 2.5 18.7h-.1c-.7.2-1.5.4-2.3.6.5.7.7 1.6.7 2.7-.3 5 .5 9.9 1.3 14.7-1.6 2-3.2 4-4.7 6.1-5.4 7.6-9.8 15.8-12.5 24.8-3.7 14.8-4.6 30-3.6 45.2-.5 11.1.5 21.4 4.1 29.2.1.7.3 1.4.4 2.1.8 4.3 5.4 6.3 8.3 9.2-.5 1.1-1.4 3.4-1.9 4.5 6.2 1.1 14.5.5 18.8 5.7-2.8 24.8-3.8 50.1 1.6 74.6 1.8 7.7 5.6 14.8 7.5 22.5 1.2 7.7-.1 15.3-1.5 22.8-2.8 8.7-4.5 17.2-4.3 26.2-2.6 9.7-7.5 18.8-13.3 26.9 3.2-.1 6.4-.3 9.6-.5-.9 8.3 1.3 16.3 3.8 24.2 1.3.1 1.5.1 2.8.3 1.7-3.3 3.6-6.5 5.5-9.7 1.3 8.6 1.5 17.4 1.4 26.1-17.1-.4-34.1 7.9-45.8 20-5.9 14.8-10.7 30.6-10.6 46.6 1.2 12 14.8 15.2 23.4 20.6 22 2.6 43.7 12.4 66.1 7.3 18.3-4.5 35.8-11.6 53.6-17.9 12.6-4.4 22.6-13.8 32.5-22.4 7.6 5.9 16.2 10.6 22.6 17.9 24 4.7 46.8 18.4 72 14.8 14.1-3.5 29-3.2 42.8-8.4 12.7-4.6 28.6-6.7 36.7-18.8 3.6-15.8-1.6-31.6-5.3-46.9-4.6-10.1-12.4-18.6-21.7-24.6-8.1-4.7-17.7-4.1-26.7-4.3.6-7.1 1.9-14.4 5.7-20.5.3-6.3.4-12.6.4-19 3.1 2.7 6.2 5.5 9.4 8.2-3.5-10.4-7.7-20.7-10.6-31.3-4.4-15.8-12.2-30.9-12.1-47.6-1.8-11.1 6.7-19.9 8.3-30.4 5-26.7 3.3-54.6-3.5-80.7 2.9-2.8 5.5-5.7 7.7-8.7 4.5-4.5 8.8-9.3 10.5-15.6 8.3-26.6 5.6-56.6-8.4-80.9-3.8-7.2-9-13.3-14.7-19-.5-1.7-.2-3.2.6-4.5-1.5-.4-2.9-.8-4.1-1.2 0 0-.1 0-.1-.1.7-6.6 1.7-13.1 2.4-19.7 2.9-3.4 5.9-6.8 8.7-10.3 1.3-.1 2.7-.2 4-.4-.6-.6-1.3-1.2-1.9-1.8-.1 0-.1 0-.2-.1 2.8-3.5 5.5-7 8-10.8 9.3-22.4 15.4-46.3 14-70.7 1.4-.1 4.2-.1 5.6-.2-2.6-15.8-8.3-31.3-17.8-44.3 3.8 2.1 7.6 4.1 11.5 6-5.3-9.9-13.9-17.3-22.5-24.3-.4-.3-.7-.5-1.1-.8l-.3-4.2c-2.5-.4-5.1-.8-7.6-1.2-8.2-5.6-16.3-11.5-20.4-20.9-3.8-8.8-6.4-18.1-9.4-27.2h.2c-.4-1.2-.6-2.4-.5-3.7.1-1.1.3-2.3.5-3.4.1-.4.3-.8.4-1.1-1.1-1.6-1.2-3.7.3-5.8 9.7-12.9 15.6-31.8 12.9-48-.9-5.5-2.9-10.7-5.4-15.7-1.1.1-2.2.3-3.3.5-.3-2.4-1.8-4.5-4.6-5-6.2-5.6-15.8-6.7-24-8.1-7.2 3.4-14.2 7.4-20.4 12.4-1.2 3.8-4.1 7-8.6 8-1.4 1.5-3.2 2.6-5.4 3.1v1.1c-.9-.3-1.8-.5-2.7-.7h-.7c-2.7 0-5-.7-6.9-1.9-35.5-7.8-73.8-2.5-106.2 14-3.1-4.3-6.2-8.5-9.4-12.8-1.2-.6-3.5-1.8-4.7-2.4-4.9.9-9.2-1.7-13.4-3.7-9.4-5.4-20.6-1.4-30.6.3.2.1.3.3.5.4-.3-.1-.5-.2-.7-.3-7.8 6.8-12.6 15.6-14.9 25.3-4 6.9-4.2 16.1-2.7 23.8.4 2.2 1.1 4.2 2 6.2.4 2.5.9 4.9 1.5 7.3.9 1.3 1.8 2.6 2.8 3.8.7.9 2.1 2 3.4 3.3.7.7 1.2 1.3 1.7 2l.6 1.2c.1 0 .1 0 .2-.1l-.1.1c.1.1.1.2.1.3.6 1.1 1.6 3.3 2.7 5 .1.2.1.4.2.6.4 1.3.6 2.6.5 3.9.4.3.8.5 1.2.8-1.4 3.6-2.6 7.2-3.1 11.1-2.7 15.1.6 31.2-6.2 45.5-4.3 10.4-13.9 17-20.7 25.6l8.8-.4c-2.9 4.9-5.6 10-7.9 15.2-1.9 12.8-6.2 29.1-5.5 42.1zm276.9-197.2v-.2c.1 2.2-.1 4.4-.5 6.6-.1-.6-.1-1.2-.3-1.7-.4-1.9 0-3.4.8-4.7zm9.1 93.7c-5.1-.9-10.3-1.8-15.4-2.5-7.2-.9-14.5-1.4-21.8-.8-9.4.6-18.6 2.2-27.8 3.8-9.4 1.7-18.5 4.6-27.9 6.5-6.2 1.3-34.8 4.8-41.3 4.9-1.4-.1-2.7-.1-4.1-.2-11.8-.9-23.4-3.2-35.1-5 3.1-.8 6.3.4 9.4-.1 3.1-2.7 5.1-6.3 5.1-10.2-1.9-1.1-3.7-3.1-6.2-2.5-14.2 2.7-28.7 5.5-43.4 5.2-5 .6-16.6-3-13.9 7.4-2.8.5-5.5 1-8.3 1.6-6.9 1.6-13.4 4.3-20.3 5.6-.8.1-1.6.3-2.4.6 3.3-14.7 2.2-31.4 6.3-46-.1-1.1.2-2.3 1-3.5.7-1 1.2-2 1.6-3-.4-.8-.7-1.5-1.1-2.3 2.6-1.4 5.1-3.3 6.5-4.2 2.2-1.5 4.3-3.1 6.5-4.7 1.9-1.4 5.9-3.2 6.8-5.3.2-.5.4-.9.5-1.1-.2-.7-1.7-1.9-2.9-2.8.1.1.1.2.2.3-.3 0-.7.1-1.1 0-2.3-1.3-4.2-3-5.9-5 .9 1.9 2.1 3.6 3.5 5.2-.8 0-1.7-.1-2.5.1-3-2-5.7-4.5-7.8-7.5-1.3-1.6-2.2-3.6-3.5-5.3.3 4.3 2.3 8.1 4 12-8.7-7.1-11.8-18.7-13-29.4-1 4.7-.3 9.6.1 14.4-3.2-7.2-3.1-15.4-1.5-23-.2-.7-.3-1.4-.5-2.1-.2.3-.4.5-.6.8 2-4.5 5.1-8.5 9.8-11.4 1.5-1 3.1-1.1 4.4-.7 11.4-5.2 28.4-1.4 36.8 8.1 1.1.4 2.3.8 3.4 1.3.8.3 1.4.7 1.9 1.2.5-.9.9-1.7 1.3-2.3 1.5 4.8 3.3 9.5 5.4 14 .9-.9 2.2-1.4 3.8-1.4v-4.8c8.1-5.3 17.6-7.8 27.2-9.1.5.6.9 1.1 1.4 1.7 2.3-2 5.2-3.5 8.8-4.4 1.7-.4 3.4-.6 5.1-.7l-.6-.3c22.9-5.5 47.3-6.2 70 .6.3 1.8.7 3.5 1 5.3.9-.7 2.2-1.2 3.7-1.2h.5l1.2-3.9c1.4-.1 4.1-.4 5.4-.6.2-1.5.7-4.6.9-6.1 8.4-7.4 16.3-18.7 28.9-17.8 5.1-.5 9.8 1.2 14.1 3.7-.2.1-.3.3-.5.4-.6.1-1.2.1-1.8.1 2.1 2.4 4.1 5.1 5.8 7.9 0 .2-.1.4-.1.6 1.2 1.9 2.1 4 2.3 6.2-.9-1.3-1.7-2.6-2.8-3.7-.2.7-.3 1.4-.5 2.1 1.6 7.7 1.7 15.8-1.5 23 .3-4.8 1.1-9.7.1-14.4-1.2 10.7-4.2 22.4-13 29.4 1.7-3.9 3.7-7.7 4-12-1.3 1.7-2.2 3.6-3.5 5.3-2.1 2.9-4.8 5.5-7.8 7.5-.8-.2-1.6-.1-2.5-.1 1.4-1.6 2.6-3.3 3.5-5.2-1.7 1.9-3.6 3.7-5.9 5h-1.1c.1-.1.1-.2.2-.3-1.2.9-2.7 2.1-2.9 2.8.1.2.3.5.5 1.1.9 2.1 4.9 3.9 6.8 5.3 2.2 1.6 4.3 3.2 6.5 4.7s7.7 5.6 10.9 6c-.8.9-1.6 1.7-2.4 2.6 1.2.9 2.4 1.9 3.6 2.8 3.3 9.3 6 18.9 9 28.4 3.5 8.2 9.1 15.3 15.5 21.4zm-168.1 61.5c5.5-2.5 10.9-5.6 16.8-7.1.8-.4 1.6-.7 2.5-1l.9-.3c-.6 1.5-1.2 2.9-1.8 4.4-5 4-9 8.8-11.7 14.2-.4 1.4-.9 2.9-1.3 4.4-2.8 2.4-5.8 4.4-9.1 5.9-10.1 4.8-21.6 5.7-32.5 4.1-2.6-.5-5.3-.8-7.8-1.6-4.6-1.4-8.9-4-12.3-7.5-3.1-3.2-5.5-7.1-7.1-11.3-3.5-9.4-6.4-19.1-7-29.2-.1-3.5-.4-7.1.8-10.4 1.3-3.8 4.3-6.9 7.8-8.8 5.1-2.9 11-4.1 16.8-5.1 10.6-1.7 21.3-3 32.1-2.4 2.5.2 5.1.4 7.6.8 5.8 1 11.6 2.3 17 4.6 4.1 1.7 8.1 4.1 10.7 7.8 2.1 2.9 3 6.5 3 10-6.4.6-13-.9-19.2-2.7-22.6-6.3-58.8-22.4-69.7 9.7 5.2-3.7 14.2-7.5 17.6.5 4.7 10.9 9.1 22.5 20.5 27.3-2.6-3.8-6.2-7-7.4-11.7 4.1 3.8 7.2 9 12.5 11.2-3.8-5.1-8.6-9.7-10-16.3 4 4.5 7.1 10.2 12.3 13.4-1.9-3.8-4.6-7.2-5.9-11.3 13.3 9.3 20 3.2 33.6.8-3.4 2.5-7.2 4.2-9.7 7.6zm3.3-15.1c-6.8 2.2-14.2 1.6-20.9-.3-5.9-1.9-11.8-5.2-15.5-10.5-1.2-1.4-1.7-4.5.6-5 2.3-.6 4.7.1 6.9.7 8.6 2.4 17.2 5 25.7 7.6 2.3.9 5.2 1.5 6.7 3.9.4 2-2 3-3.5 3.6zm25.6-.7c.6-2.6 1.5-5.3 2.7-7.7 7-3 19.8-6.1 19.8-6.1 8.1-.7 15.4 4.6 18.6 7.5.8 2.5 1.5 5.1 2.4 7.6-3.5-1.2-7-2-10.6-2.5-12.1-.9-24.5 1.9-34.7 7.4.6-2.1 1.2-4.2 1.8-6.2zm137.7 5.2c-1.2 4.3-2.3 8.6-4.6 12.4-3.6 6.5-9.8 11.4-16.8 13.6-5.7 1.7-11.7 2.7-17.6 2.9-8.3.3-16.7-1.2-24.2-4.9-2.5-4.5-5.4-8.7-8.9-12.7-3.7-4.5-8-8.1-12.6-10.8l-.3-.6c-.4-.8-.8-1.6-1.1-2.4h.1c.9.2 1.8.6 2.6 1 6.1 1.5 11.8 4.6 17.6 7.1-2.6-3.3-6.6-5.1-10-7.5 14.2 2.3 21.3 8.4 35.3-.8-1.3 4.2-4.2 7.5-6.2 11.3 5.5-3.2 8.7-8.9 13-13.4-1.4 6.6-6.5 11.2-10.5 16.3 5.5-2.3 8.8-7.4 13.1-11.2-1.2 4.7-5 7.9-7.7 11.7 12-4.8 16.6-16.4 21.6-27.3 3.6-8 13-4.2 18.5-.5-11.5-32.1-49.6-16.1-73.4-9.7-6.5 1.8-13.3 3.3-20 2.7 0-2.3.3-4.5 1.2-6.6 1.5-3.8 4.6-6.8 8-9 5.1-3.2 10.8-5.1 16.6-6.7 9.5-2.7 19.6-3.1 29.4-2.7 4.7.2 9.4.6 14 1 4.8.5 9.6 1.3 14.1 2.9 3 1.1 5.9 2.7 8.1 5 2.5 2.6 3.9 6.1 4.1 9.6.8 9.8-.8 19.7-3.4 29.3zm-72.9-13.3c1.6-2.3 4.6-2.9 7.1-3.9 9-2.6 18-5.2 27-7.6 2.4-.5 4.9-1.3 7.3-.7 2.4.5 1.8 3.6.6 5-3.9 5.3-10.1 8.7-16.3 10.5-7.1 1.9-14.9 2.5-22 .3-1.7-.5-4.3-1.5-3.7-3.6zm2.6 32.9c-2.5-1.9-4.8-4.2-6.8-6.6 2.5 2 4.8 4.2 6.8 6.6zm-31.2 413.3 1.5.5v.5l-.3.3c-1.7 1.7-1.5 4.3 0 6l.1.1c-.1 4.1-.3 8.2-.4 12.4 19.5 1.3 39 3 58.5 5.3 13.4 1.6 27.1-.3 40.5-2.4 1.4 2.8 2.9 5.5 4.3 8.3-1.8 6.3-4.1 12.4-6.8 18.3l15.3-9.9c2-3.7 4.1-7.3 6.2-10.8.4 8.4.4 16.8.2 25.2-14.4 6.7-30.4 11.9-40.8 24.8 6.3-.4 11.2-4.6 16.8-7 12.2-5.1 24.4-10.7 37.5-13.1 13.4-.7 25.6 8.7 31.7 19.9 5.3 16.4 10.5 34.3 5 51.3-.7.4-1.5.9-2.3 1.3-.6-1.1-1.3-2.3-1.9-3.4-1.6.9-3.3 1.8-4.9 2.7-.1.1-.3.2-.4.4-1.1-3.5-2.2-6.9-3.3-10.4-1.3-4-2.4-8-3.9-11.9-2.5-6.5-6.1-12.9-12.8-15.6-1.7-.7-2.4 2.1-.8 2.8 6.2 2.6 9.3 9.3 11.4 15.2 2.5 7.1 4.7 14.4 6.9 21.7-1.3.8-2.7 1.4-4.1 1.9.1.5.2.9.3 1.4-4.3 1-8.5 2.1-12.8 3.3-.2-.4-.4-.7-.6-1.1-4.6 1.1-9.3 1.9-14 2.3.2.8.3 1.7.5 2.5l-1.2.3v-.2c-1-4.6-2-9.1-3-13.7-.9-4-1.5-8-2.8-11.9-1.2-3.4-3-6.6-5.9-8.8-2.7-2-6.2-3-9.6-2-1.8.5-1 3.3.8 2.8 3.1-1 6.3.5 8.5 2.7 2.3 2.4 3.4 5.7 4.2 8.8 1.9 7.5 3.3 15.2 5 22.8v.1c-2.9.8-5.9 1.5-8.9 2.2-.3-.5-.5-.9-.8-1.4l-3 1.3c-4.7 1.9-9.6 3.4-14.6 3.4.3.1.6.3.8.5-7.8.9-15.9.5-22.5-3.9-3.5-.1-6.1-1.3-8.1-3.1-2.4-.8-4.7-1.7-7-2.7-4.9-.7-9.7-1.8-14.5-3.1-14-2.3-25.6-10.9-37-18.8-9.3-38.7-8.5-78.7-7-118.1zm106.5 32.2c-.1-.7-.1-1.5-.2-2.4.4.4.9.7 1.5.9-.5.5-.9 1-1.3 1.5zM845.2 617.4c-2.3-1.1-4.5-2.4-6.7-3.5 14.8-3.5 29.9-5.7 45.1-5.2 6.2.8 12.2 2.3 18.2 4.4 7.9 2.8 15.2 6.7 23.3 8.7 1.9.4 3.9.9 5.9 1.3 3.5 1.9 6.9 4.1 10.1 6.4l-11.1 5.7c-4.3 4.8-9.1 9.3-14.4 13-8.3 5.3-14.1 13.4-22 19.2-15.7 11.5-31.5 23-47.5 33.9-5 2.7-10.1 5.3-15.2 7.8 0 0-52.9-37.2-53-67.9 6.8-5.6 15-10 22.8-13.5 13.4-6 28.8-10.8 43.9-10.3h.6zm62.1 45.8c-.5.6-.9 1.1-1.2 1.6l-1.6.8c1-.8 1.9-1.6 2.8-2.4zm8-7.2c-.9 1.3-1.8 2.5-2.6 3.9-.5-.1-1.1-.1-1.7 0 1.5-1.3 2.9-2.6 4.3-3.9zm25.4-21c-.7.5-1.4 1.1-2.1 1.6h-.4c.9-.5 1.7-1.1 2.5-1.6zm4.4 86.1c-5.1 2.3-10.3 3.9-15.7 5.1-13.3 1.5-26.7 2.5-40.1 3.4-6.2.1-12.3.2-18.3.5-4.3-1.1-8.6-2-13-2.5-3.8-.4-7.7-.9-11.6-.9 1.4 1.3 2.2 3.3 2.1 5.3-11.9-.5-23.7-3.1-35-6.9 5.9-4.1 11.9-7.8 18-11.4 1.8.2 5.5.6 7.3.8 20.6-16.8 43.3-30.7 63.8-47.5h.1c42.3-21.4 43.2 35 42.4 54.1zM871 865.3c-2.7-.3-5.4-.7-8.1-1-.7-1.1-1.4-2.2-2.2-3.2-.6-.8-1.4-1.3-2.3-1.6 0-.1-.1-.1-.1-.1 5.5 2.1 11 4 16.7 5.6 2.4.7 4.8 1.4 7.3 1.8-.7.6-1.4 1.3-2.1 1.9-1.4-.5-2.8-1-4.3-1.5v.7c-1.7-.5-3.4-1.1-5.1-1.5.1-.3.1-.7.2-1.1zm-114.1 35.8c.4-.2.8-.4 1.2-.7 1.8 3.5 3.6 7.1 5.5 10.7 12.6-10.2 22.7-23.9 40.7-21.6 21.4 0 42.7.6 64.1 1.9.1 20 2.5 40.1 1.4 60.1-.5 12.8 6.2 25.2 3.3 37.8-6.6 14.2-23.3 17.1-36.4 22.4-15.8 7-31.6 13.7-48.2 18.5-4.5.6-9.1.5-13.6 0v-.2c-1.1.1-2.2.1-3.4.1-.3.7-1.1 1.1-1.9.5l-.9-.6c-1.2 0-2.5-.1-3.6-.1-1.3 0-1.7-1.4-1.2-2.3-1-.4-2-.7-3.1-1-.1.1-.1.3-.2.5-4.2-1.2-8.5-2.2-12.8-3.3v-.2c-1.2-.2-2.4-.5-3.6-.7.7-5.4 1.4-10.9 2.4-16.2.8-4.6 2.3-10.7 7.3-12.4 1.7-.6 1-3.4-.8-2.8-5.5 1.9-7.9 7.5-9 12.9-.8 3.6-1.1 7.3-1.7 10.9-.3 2.4-.7 4.7-1 7.1-5.6-1.1-11.6-2.3-16.9-4.5-1.2-.3-2.5-.6-3.7-1v-.8c-1.2-.7-2.4-1.4-3.5-2.2-.5-.4-1-.7-1.4-1.1 3.2-7.1 6.4-14.2 9.8-21.2 2.6-5.4 6-11.4 12-13.7 1.7-.6 1-3.4-.8-2.8-6.3 2.4-10.2 8-13.1 13.9-3.6 7.1-6.7 14.5-10 21.7-1.8-2-3.1-4.3-4-6.8l-1.5 4.8c-1.4-13.5.8-27.3 6.8-39.5 5.1-9.6 15.8-13.8 25-18.5 17.6-5.5 35.3 1.2 52.4 5.3-7-9.5-19.8-10.4-30.3-13.4 0-4.2.1-8.4 0-12.6 3 1.9 6 3.9 9 5.8-2.1-12.2 6.9-20.7 14.6-28.5-1.7-.2-5.1-.6-6.7-.8-4.7 5.4-9.2 10.8-13.7 16.2l-9.3-18c-2 2.9-4.1 5.9-6.1 8.9-.4-5.2-.8-10.3-1.4-15.4.6.3 1.4.6 2.3.9.3 3.2.5 6.4.8 9.6 1.8-2.5 3.5-5.1 5.2-7.6zm-54.4-446.2c.1.1.3.3.5.4 1.6-10.3 5.3-20.3 14.6-25.9-2.6-.6-5.2-1.1-7.9-1.7 6.2-5.2 9.9-11.3 12.2-18.1.1.9.1 1.7.1 2.6-.1 1.9-.4 3.9.3 5.8.5 1.1 1.7 1.5 2.6 2.2 3.1 2.1 4.9 5.6 6.1 9.1 1.8 5.3 3.3 10.7 4.9 16 1.6 5.4 3.4 10.9 6.3 15.8 3.9 6.6 10 11.8 16.9 15 9.8 4.6 21 5.8 31.7 4.5 6.4-.9 12.7-2.6 18.5-5.4.5-.3 1.1-.5 1.6-.8-4.9 9.3-5.3 20.6-3.1 32l1.1.1 3.4.3c-.1-.8-.3-1.6-.4-2.4-1.5-6.9-2-14.2-.9-21.1 0-3.3.7-6.7 1.8-10 2.9-1.7 5.6-3.7 8-6 5.2-5 9-11.2 11.9-17.7 10.7-6.9 24.1-10.8 37.8-8.8 5 .3 10.1 1.4 15 3.3 1.5 2.7 3.1 5.3 4.9 7.9-3-2-6.7-2.8-10-1.7-12.7 0-20.3 5.1-33-.7-7.6 1.5-11.8 8.4-16.7 13.6 9 12.4 16.6 32.8 31.9 32.8 12.7 0 25.4-15.2 33-30.5.6-2.5.5-4.9-.2-7 3.1 3.6 6.7 6.8 10.8 9.3 2.5 1.6 5.2 2.8 8 3.8 3.3 6.2 5.6 12.8 6.9 19.4-.5-6.3-1.9-12.5-4.3-18.6 1.3.4 2.7.7 4 .9 4.1.7 8.2.9 12.4.9 10.8.1 21.8-1.9 31.5-7.1 5.1-2.7 9.8-6.7 12.1-12.1 4.9-11.4 8.5-23.2 11-35.3.4-1.9 1.3-3.5 2.4-5-.5-2.6 1.6-4.8 3.8-5.2.3-.1.7-.2 1.1-.2 1.2-.5 2.7-.4 3.8.1 6.8 3.2 10.6 12.9 13.4 19.3 3.4 7.8 6.7 16.2 7.9 24.6.3 1.8-.5 3.3-1.7 4.2 1.7 14.2-1.7 29.7-5.6 43.2-1.5 5.3-3.4 11.9-6.3 17.9-1.8 6.6-6.4 12.4-11.4 17-.9.9-2 1.2-3.1 1.1-.4.8-.9 1.7-1.3 2.5-6.1-1-12.2-1.6-18.3-1.8-12.3 10.8-27 19-41.1 27.8.1.6.1 1.3-.3 1.9-3.8 7.3-9.5 13.4-15.8 18.7-.6.8-1.4 1.9-2.4 2-7.9 6.3-16 12.1-24.8 16.8-19.7-2-39.5.9-59 5.5-8.1-3.6-15.5-8.3-22.7-13.4.6 0 1.2 0 1.7-.1-.3-.9-1-2.8-1.3-3.7-2.2-.2-4.3-.4-6.5-.7-5.5-4.3-10.3-9.2-13.7-15-.3-.5-.3-1.1-.2-1.6-12.8-7.3-26.2-14.1-37.4-23.2-5.1.1-10.2.6-15.3 1.3-2.4-2.7-4.6-5.5-6.7-8.5-8.9-9.4-11.6-22.3-16.7-33.7-5.8-15.7-4.2-32.6-1-48.6-7.5 1.7-9 9.2-11.2 15.4-.2-5.5 2.3-16.5 4.4-23.4z"/><g><path d="M1158.9 773.3c1.9-1.1 3.3-3 4.8-4.6 2 1.6 5.5 2.3 5.7 5.5-1.4 1.6-3.4.7-5.1.4 0 2-.1 4.1-.4 6.1-1.5-1-2.9-2-4.3-3.1l-3 2.7c-.7-1.5-1.4-3.1-2.1-4.6-1.9 0-3.8-.1-5.7-.1 1.7-2.7 3.4-5.3 5.3-7.9 1.5 2 2.6 4.4 4.8 5.6m-135-53.4c1.1-29.5 7.3-58.4 13.6-87-3-5.1-9.9-7.1-12.5-12.8-.9-2.4-.1-6.3 2.9-5.9 9.9 1.2 18.9 8.7 29 5.3 19-2.8 38.3-1.1 57.2 1.5 5.6-3 12.2-9.7 18.7-5.7 3.7 7.6-5.9 10.5-9.9 14.4-1 17.1-1.2 34.2-1.3 51.3-1.6-.2-3.2-.3-4.8-.5-.7-17.3.5-34.4 1.5-51.7 4.1-2.9 8.9-5.2 11.2-10.1-4.5 1.4-8.7 3.9-12.3 7.1-12.9-3.2-26.2-2.6-39.4-3-8.9-.4-17.7 1.5-26.5 2.6-7-2.7-14-5.7-21.5-6.7 2.1 6.4 9.1 7.9 13 12.6v2.8c-6.5 28.6-11.9 57.6-13.7 87 .6 5.3-6.4 2.7-5.2-1.2"/><path d="M1053 634.8c1.5-1.3 2.9-2.7 4.5-3.8 2.9.1 3.1 3.7 4.2 5.8-3.3.3-6 2-8 4.8l-2-2.8-4.8 1.8c.5-1.7 1-3.3 1.6-5-.7-.7-2.1-2-2.8-2.7 2.8-1.6 5.2-.3 7.3 1.9m38.5-1.8c2.7 1.2 4.2 4 6.1 6.2 3.5-1.4 5.9-4.5 8.4-7.4 2.6 2.3 4.9 5.1 6.1 8.5-1.9-.3-3.9-.8-5.8-1.2-.2 2-.5 4-.8 6-1.8-1.1-3.5-2.2-5.3-3.3-1.4 1.8-2.9 3.5-4.3 5.2-.6-1.7-1.2-3.5-1.8-5.2-1.2 0-3.7.2-4.9.2.7-3-.3-6.9 2.3-9m-17.8 1.2c-6.8 3.7-13.1 10.3-13.4 18.8 3.7.5 7.4 2 11.1 1.1 6.6-2.8 11.8-9.8 10.6-17.6-2.6-1.2-5.3-2.6-8.3-2.3m.5 14.5c-.2 2.3-4.1 4-6 2.7-.1-2.6 4.1-3.5 6-2.7m2.7-6.1c-2.1 3.3-6.2 3.6-9.6 4.3 1.6-3.1 3.6-6.1 6.5-7.9 2.1-1.4 5.5 1.7 3.1 3.6m25.8 16.5c2.8-1.1 5.3-2.6 8.1-3.7-3.7 6.2-12.1 9.7-18.4 5.5-1.5-.9-5.2-2.6-2.8-4.8 4.3-1.2 8.4 4.9 13.1 3m-31.3.2c4.6.7 9.1.3 12.9-2.8-1.8 5.5-9.7 8.7-12.9 2.8m-12.1-1.2c-3.3 4.1-11.3 3.8-13.2-1.6 4.3 1.6 8.8 2 13.2 1.6m-42 24.3c.8-6 2.1-12 4-17.8.5-1.7 1.5-2.4 3.3-2.3-.1 6.7-1.7 13.2-2.8 19.7-1.2.2-3.4.3-4.5.4m209.6 46.8c-2.1-6.4-9.7-7.4-15.2-8.7-7.7-1-15.4-1.1-23.1-2.2.9-2 3-3.7 2.7-6.1-3-5.5-9.7-4.8-14.8-5.1-24.1-.1-48.2.8-72.3.3-2.7.2-5.9.2-8 2.4-4.6 5-11.1 7.3-17.3 9.1.5-2.9 2.3-5.1 3.8-7.5.8-1.8-1.5-2.3-2.5-1.4-3.1 1.9-6 4.2-9.3 5.4.3-2.2.7-4.4 1-6.6-4 2.5-7.9 5.3-12.4 6.5 1.3-2.5 3.3-4.5 5.1-6.7-4.3.6-7.9 3.6-12.2 4.1 1.7-2.9 3.8-5.5 5.2-8.6-3.2 1.1-6.3 2.6-9.5 3.7 5-8.2 11.9-15.4 19.9-20.2 7.3-4.4 15.1.6 21.9 3.7 5.2 2.8 11.9 2 16.1-2.4-3.7.9-7.5 4.6-11.4 2.6-5.8-2.9-11.6-6-17.9-7.7-3.1-6.7-3.8-15.4-9.4-20.3-6.9.9-13.6 3.8-19.5 7.5-2.8 1.5-3.4 5.1-4.6 7.9-1.8-.1-3.5-.1-5.3-.2 2.3 1 4.7 1.7 7.1 2.4 1.5 6.1 2.7 12.5 5.8 18.1-2.9 3-5.8 6.2-7 10.4 4.7 1.2 7.8 5.6 12.6 6.6 3.2 1.9 6.7 0 10-.7 4.3.5 8.7 1.3 11.9 4.5 6.9 1.6 14.7-1.8 19.5-7.3 23.9.8 47.7-.4 71.6-.6 5.2.2 11-.6 15.6 2.7-2.5 2.8-6.5 4.5-7.8 8.3 3.3.2 6.7.3 10 .5 11 1.4 22.6.1 32.7 5.7-1.3 8.4-10.6 6.3-15.3 10.9 3.7 1.5 7.5 2.5 10.9 4.6-3.9 10.7-16.2 6.9-24.5 9.2-.3 6.8 8.1 4.4 12.2 4.5 7.4-2.5 16.3-5.6 19.2-14 .8-3-2.4-4.1-4-5.6 2.9-2.9 7.3-5.3 8.5-9.7m-161.4-63.3c2.1.1 2.8 4.3.3 4.3-2.2.1-2.8-4.3-.3-4.3m2.6 19.4c-.9-4.8-1.4-9.8-3.3-14.3.7 0 2 .1 2.7.1 3 3.7 4 8.9 6.3 13.1-1.9.4-3.8.8-5.7 1.1m-2.4 1.6c-4.3 2.6-8.3 5.8-12 9.3-2.6-6.6-5-13.7-5-20.9 2.8-4.6 8.2-6.2 12.9-7.4.8 6.4 2.1 12.8 4.1 19"/><path d="M1094.3 665.9c-4 4.5-10.2 5.4-15.5 3.2-.2-.9-.5-2.7-.7-3.6 2.9.8 5.7 2 8.7 2.5 2.5-.6 5-1.5 7.5-2.1m10.5 5.8c-2.9 4-8.8 5.8-12.9 2.5 4.6 1.1 8.8-.3 12.9-2.5m13.1 20.1c.3-.9.8-2.6 1-3.5 3.7-.1 7.3 0 11 .2.1.7.4 2 .6 2.6-4 2.1-8.4 2.2-12.6.7m-47.8 2.7c2.5-1.7 5.5-5.6 8.4-2.5-3.9 4.1-8.5 7.8-13.9 9.2.2-3.5 3.4-4.8 5.5-6.7m5.1 7.6c2.9-4.2 7.3-6.8 11.7-8.8.2 5.8-7 8.7-11.7 8.8m52.8-2.4c-9.4.7-18.8.5-28.1-.7 3.5-5.8 10.8-4.2 16.3-4.4 5.8.5 12.1-1.7 17.4 1.7-1.6 1.5-3.1 3.6-5.6 3.4m-36.5-2.1c1.3 5.1-4.1 7.2-8 6.7 2.2-2.7 4.3-6 8-6.7m13.3 129.1c4 2 8.5 1 12.6.4.1 1.1.5 3.4.6 4.5 1 0 3 .1 4 .2 1.8-5.4 3.3-10.9 4.3-16.6 3.8 2.1 7.5 4.6 11.7 5.8 5.9 1.5 12.1.9 18.1.6.7 5.1 1.6 10.2 2.5 15.3-4.7.3-9.9.1-14-2.7-2.7-2.2-4.8-5.3-8.3-6.4-.3 8 8.3 11.2 14.1 13.6 8 .6 16.8-.8 22.7-7 6.1-6.4 13.5-13.6 22.9-12.2-.6 4.3-5.5 4.8-7.5 8.1-2.7 3.9-5.1 8.1-8.6 11.2-6.8 6-15.5 8.9-24.2 9.7-2.4-1.5-2.7-4.9-4.2-7.3.3 2.3.7 4.5 1.1 6.8-1.9.1-3.7.2-5.6.3l.4 3.6c5.3 2.1 11 .9 16.4.5.6 7.2 1.2 14.4 2.5 21.5h4.4c1.4-7.7-1.8-15.4-1.9-23.1 3.6-1.9 7-4.2 10.6-5.9 12 2.4 24.3 5 36.5 3.9 6.9-1.7 13.8-6 17.2-12.8 1.9-3.1-1-6-2.3-8.7 9.1-16.6 19.3-33.3 22.2-52.6-1.8-4.3-6.5-6.3-10.6-7.3-9-1-18.1-3.2-27.2-1.5-4.9 1.2-7.1 6.4-8.6 10.8-4.7 12.8-9.2 26-16 37.7-6.4 2-12.2 5.4-17.6 9.5-3.6.9-7.3-1.6-11-2.1-.7-6.8-.7-13.9 1.4-20.5.4-3 3.9-1.3 5.7-1.4 10.5 1.8 22.5-3.3 27.2-13.7 3.3-7.4-.5-16.7-7-20.7-5.2-3.2-11.2-4.3-16.9-6.3 5.5-6.6 12.4-11.9 16.7-19.5.1-.9.4-2.7.5-3.7-6.3-4.7-12.8 2.1-19.2 3 .5-8.5-6.3-14.4-12.6-18.1-5.9-2.1-13-3.4-18.6.2-8 4.2-13.4 12.7-22.2 15.5-3 1.2-5.7-1.5-8.4-2.6.3 4 .9 8 1.8 11.9-.9 0-2.5-.2-3.4-.2 1 5.7 2.8 11.3 5.4 16.4-6.1 9.9-5.4 22.1-2.9 33.1 1.7 6.2-.9 12.7-5 17.1-2.5-1.6-5.1-3.2-7.8-4.4-1.6 6.7 2.5 13.7 8.1 16.1m135.2-52.4c.6 6.2-1.6 12-4 17.5-5.3 12.1-11.3 23.9-18.5 34.9-1.3 1.5-2.1 3.7-4.1 4.1-4.6-.5-9.1-2-13.4-3.6.5-2.1 1-4.3 1.4-6.4 4 1.3 7.9 3.1 11.9 4.2 2.5-1.2 3.2-4.6 4.7-6.9 6.5-13.4 15.2-25.9 19.2-40.5-7.5-2.8-15.5-.8-23.2-1.5.9-4 5.2-4.3 8.4-4.4 6 .2 11.8 1.6 17.6 2.6m-51.4 63.1c9.1 2.7 18.1 6.6 27.7 6.5 5.9-.1 8.9-6.3 13.5-9.2-.1 7.5-8.1 10.1-13.6 12.3-10.7 1.2-21.6-1-32.1-3.1 1.5-2.2 3-4.3 4.5-6.5m5.7-6.2c7-.1 13.4 4 20.4 3.7 5.2-3.4 8.4-9.2 11.5-14.6 7.6-14.2 15.5-28.6 18.6-44.8.7.6 2.1 1.7 2.7 2.2 1 5.7-1.6 11.1-3.6 16.2-5.5 12.9-12.4 25-19.5 36.9-2.4 4-5.7 8.4-10.6 8.6-7.6-1.1-15.1-3.4-22.4-6 .6-.6 2.1-1.7 2.9-2.2m19.1-7.1c-5.6-2.5-11.3-4.8-17.3-6.1 7.1-12.4 11.6-26.2 16.6-39.7 7.7-1.4 16.2-2.9 23.6.6-5.8 16-14.8 30.4-22.9 45.2m-49.9 11.3c-.2-2.1-.3-4.2-.4-6.4 2.2.5 4.4.9 6.5 1.3-1.4 2.6-3.4 4.5-6.1 5.1m-30.2-21.6c-3.1-1.8-7.6-3.8-6.8-8.4.7-11.2.3-23.7 7.1-33.1 2.1-3.3 2-7.8 4.9-10.6-1.4-3.9-2.6-8-2.8-12.2 3.9.9 6.7 4 9.1 7.2-1.9-.6-3.7-1.1-5.6-1.6.9 2.9 2.7 5.3 4.5 7.8 1.8-.8 3.6-1.5 5.5-2.1 2.3-4.7 7.9-4.3 11.8-6.3 5.6-1.8 10.5-5.4 16.1-6.9-3.4 4.9-8.1 8.5-12.2 12.7-.8-.2-2.3-.7-3-.9 1 1.8 1.6 3.9 3 5.4 6.6 2.6 13.8 3.2 20.1 6.9 4.3 3.6 8.7 10 5.8 15.9-6.1 9.6-19 13-28.9 8.4-4.1-2.3-7.7-5.5-12.1-7-.2 5.8 5.7 8.2 9.3 11.5-1.5 5.1-2.4 10.3-3.3 15.6-7.5.8-15.6 1.4-22.5-2.3m-16.5 9.1c-4.7 2.8-10.3 1.1-14.3-2.2 9.4-2.2 14.2-13.8 11.8-23.1-2.7-11.6-2.9-25.5 5.6-34.6-1.3-2-2.4-4.1-3.6-6.2 2.9-.9 5.7-2.1 7.5-4.7-2.1-2-4.2-4.1-6.2-6.2 4.8-3.8 10.3-6.4 14.9-10.4 3.4-2.7 6.6-6 10.5-7.8 7.8-2.3 16.8 1.7 20.6 9.3 1.5 9.6-9 12.1-15.3 15.2-3.3-3.8-6.8-8.1-11.9-9-3.2-.9-5.6 2.3-6.9 5-.8 5.3 1.5 10.4 3.3 15.2-4.3 5.2-8.8 10.9-9.8 17.9-1.9 11.4-1.9 23.1-2.9 34.6-.4 2.6-.6 6-3.3 7m-62.1-82.7c2.7-5.7 5.6-11.3 9.3-16.2 1.2-2 3.3-2.9 5.5-3-.2 5.2-1.8 10.1-1.9 15.3 7.5-1 14.8 1.3 20.9 5.9 3.2-3.5 5.4-8.5 10-10.2.6 2.3 1.8 4.8 1 7.3-1.7 5.6-2.9 12.9-8.9 15.2 1.4-3.7 2.5-7.6 3.3-11.5-2 1.5-3.8 3.2-5.6 5-3.4-3.3-6.9-7.2-11.8-7.9-4.5-1-9 .3-13.4 1.6 0-2.6 0-5.3-.1-7.9-2.4 2.6-4.5 6.1-8.3 6.4m-52.4 36.7c4.8-2.4 3-9.3 2.1-13.6 2.7-2.2 5.8-4.4 7.1-7.9.4-3.3.3-6.7.4-10 4-2.6 12.1-6.7 7.4-12.5-3.9 2.6-7.6 5.9-12.2 7.3-5.6-1.6-10.4-5.8-16.3-6.4-4-.3-9.5-1.4-11.6 3.4.1 4.4 4.3 6.1 7.6 7.5 5.9 2.4 12.3 1.6 18.5 2.1.1 2.2.7 4.4.1 6.6-1.6 2-3.5 3.6-5.4 5.2-6.4-4.9-13.9-9.5-22.1-7.7-4-.3-4.2 5.9-1.4 7.7 6.1 4.8 14.2 4.4 21.5 5.2 1.6 1.4 2.7 3.4 2.7 5.6-1 2.8-4 3.8-6.6 4-6.8 0-13.2-2.6-19.7-4.4-1.2 3.3 1.2 5.5 3.9 6.5 7.5 2.9 16.1 3.9 24 1.4m-21.9-22.7c3.8.8 7.5 2 10.7 4.4-3.6-.5-9.3.1-10.7-4.4m3.3-16.7c4.7.2 9.5 1 13.5 3.9-4.9.8-9.5-1-13.5-3.9m47.8 15.8c4.6-7.2 13-14.3 21.7-10.6.6 1.9 1.1 3.8 1.5 5.7 2 .1 4.1.2 5.7-1.2-.4.7-1.1 2.1-1.4 2.8-2.2.1-4.5.2-6.7.2-.6-1.8-1.3-3.6-1.9-5.4-6.6 1.2-12.6 5.7-15.4 12.1-1.9 4.3-.9 9.2-.9 13.7-5.9-3.4-5-11.8-2.6-17.3m41.9 2.9c2.5-.6 4.9-1.3 7.4-2.1-.8 1.3-1.6 2.6-2.3 3.9-2.3 0-4.6-.1-6.9-.3-.3-2.3-.6-4.6-.8-6.8 2.3.5 2 3.4 2.6 5.3"/><path d="M1042.3 754.1c1.3-3 4.8-2.3 7.2-1.5.1 2 .1 4 .1 6-3.2.7-3.6-2.4-4.5-4.7-.2 1.3-.7 3.9-.9 5.2-2.2-1.1-2.9-2.7-1.9-5m-75.9 64.5c10.4 3.2 19.8 9 30.5 11.2 8.5 3.4 17.7 4.5 26.5 6.6 1.9.4 3.8.4 5.6 0-.2-2.6-.5-5.1-.8-7.7 1-.3 3.1-.8 4.2-1 1.9 4.3 4 8.5 6.5 12.4-4.8.5-9.9-1.3-14.3 1.3 7.3 2 15 1.8 22.3 4 1.8.8 4.3 2.3 4.2 4.7-2 2.9-5.1 5.2-5.5 9.1 7.7.1 15.8-3.9 23 .2-1 2.9-1.9 5.8-2.5 8.9 3.9.2 8.1-.3 11.5 2-.5 1.8-1.1 3.6-1.7 5.4 2.1-2.1 3.2-4.7 3.3-7.8-2.6-1.4-5.3-2.5-8.1-3 .9-3.6-.2-6.9-2.1-9.8 10.3-2.5 19.1-10.6 22.9-20.9 1.1-2.7-.3-6-3.5-5.1-5.9 3.3-11.1 8.1-17.7 10 3-26.1 12.8-50.5 21.2-75 .9-2.2.8-4.6.6-6.9-1.8-.1-3.1.6-4 2.1-6 11.4-10.5 23.6-14.1 36.1-12.7 1.5-25.6-2.8-36-10.5-1.6-2.1-1.9-5-3.4-7.2-3.2 5.2-5.6 10.9-7.6 16.7-2.8-.6-5.6-1.4-8.5-1.7-2.7.5-5 2.3-7.3 3.8-1.9-1.8-3.8-3.8-6.4-4.4-8.5-2.2-16.7-5.4-25-8.1-5.4-1.7-10.6-5.1-16.4-4.4.7 13-2.1 26.6 2.6 39m32.8-25.4c.9 8.6 2.3 17.3 2.2 26-11.7-1.3-22.9-5.3-33.8-9.8.3-8.6.9-17.3.8-25.9 10.8 1.4 20.4 7.1 30.8 9.7m87.7 40.9c-2.8 8.3-10.2 14.3-18.2 16.5.2-2.4.4-4.9.7-7.3 6.7-1 11.6-6.1 17.5-9.2m-67.4-1.3c-2.6-1.1-7.3 0-7.8-3.9l6 .9c.4.8 1.4 2.3 1.8 3m3.6-6.1c-4.6-.2-10.3.7-13.6-3.7 6.6-2.8 10.6-9.2 14.7-14.9-.9-.2-2.6-.7-3.5-.9-2.8 3.6-5.7 7.2-9.5 9.6-.3-4.9-.3-9.7-.2-14.6 2.1-2.8 5.7-4 8.5-6.1 1.9-1.7 4 .4 5.8 1-.1 3.7 0 7.4.5 11 5.5-5.1 5.8-13.4 9.4-19.8 5 2.6 9.8 5.5 15.1 7.4 7.4 2.8 15.4 2.7 23.2 3.7-3.3 18-10.3 35.6-8.5 54.3-3.9.7-7.9.8-11.9 1.1.2-2.7 1.8-5.8.5-8.3-2.9-2.4-6.5-3.7-9.9-5.5 4.3-1.7 8.5-3.4 12.6-5.6.3-.7.8-2.1 1.1-2.8-2.3.8-4.7 1.5-7.1 2.1-.1-3.6-.2-7.2 0-10.8 2.5-3.4 7.8-4.3 8.5-9.3-3.1 1.6-6 3.5-9 5.3-2.7-4.8-4.8-10.6-9.5-13.7-4.5-1.2-9.6-.1-12.7 3.7-3.8 4.3-9.8 8.8-7.6 15.5 4.5-6.2 8.8-13.3 15.6-16.9 1.7-1 3.3-.7 4.6.8 6.5 7.3 8.5 17.7 6.9 27.4-2.2-.2-5 1-6.8-.9-2.1-4.4-3-9.7-7.1-12.7-3.5.5-6.4 3.8-10.1 3.6m-14.9 2c-2.1-1-2.1-2-.1-3 2.1 1 2.1 2 .1 3m-1.3-32.8c-.8 8.3-.8 16.7-.3 25-.5-.2-1.5-.5-2.1-.7-1.6-8.4-1-17.2-2.2-25.7 1.6.4 3.1.9 4.6 1.4m-2.5 28.1c.1.8.3 2.5.4 3.3-11-2.8-21.9-5.8-32.5-10-1.5-.6-2.8-1.5-3.9-2.7 12.1 2.5 24.1 6 36 9.4"/><path d="M1041 773.9c-1.1 0-3.2 0-4.3-.1-.6-2.9-.6-5.8-.1-8.7.9.2 2.7.7 3.6.9.3 2.7.5 5.3.8 7.9m8.7 6.3-5.1-3.3-.3-8.7c.8.2 2.5.5 3.3.7.9 3.7 1.6 7.5 2.1 11.3m8.3 1.7c-4.1-2.6-5.4-7.6-4.9-12.4 5.2 1.4 4.7 7.9 4.9 12.4m9.5-1.7c-3.9-1.1-5.9-4.3-5.5-8.5.8.1 2.5.2 3.3.3.9 2.7 1.6 5.4 2.2 8.2m8.5-1.3c-1.6-.8-3.2-1.6-4.8-2.3-.1-1-.2-3-.3-4.1 2.3 1.5 3.5 4.2 5.1 6.4"/></g><g><path d="m1072.3 474 4.8-21.2h6.4L1080 474h-7.7zm5.1-24.2 1.2-6.4h6.8l-1.2 6.4h-6.8zM1087.3 465.4l6-30.7h7.5l-2.4 12.3h11.2l2.4-12.3h7.5l-6 30.7h-7.5l2.4-12h-11.2l-2.4 12h-7.5zM1121.1 452.2c-1-19.1 31.5-26.3 32.5-4.6 1 19.3-31.6 26.8-32.5 4.6zm7.8-.4c.4 12.7 18 6.5 17-3.7-.6-12.3-18.1-6.3-17 3.7zM1155.2 465.4l6-30.7h7.5L1164 459h12.5l-1.3 6.4h-20zM1175.6 465.4l15.8-30.7h8.8l4.1 30.7h-7.5l-.6-6.4h-9.5l-3.3 6.4h-7.8zm14.1-12.4h6.1c-.4-2.8-.8-8.5-.9-11.3h-.1c-1.5 4-3.5 7.8-5.1 11.3zM1207.6 465.4l1.1-6.4h6.7l-1.1 6.4h-6.7zm1.6-9.5 3.7-21.2h7.8l-4.8 21.2h-6.7zM1230.5 461.6l4.5-5.3c2 3.1 13.9 4.6 10.1-1.4-3.2-2.3-7.8-3.5-9.8-7.4-5.3-12.4 14.2-17.1 21-9.7l-4 5.5c-2.2-2.7-13.1-3.5-9.5 2 3.2 2.3 7.9 3.5 9.8 7.4 5.3 12.9-15 17.3-22.1 8.9zM1257.3 452.2c-1-19.1 31.5-26.3 32.5-4.6.9 19.3-31.6 26.8-32.5 4.6zm7.7-.4c.4 12.7 18 6.5 17-3.7-.5-12.3-18-6.3-17 3.7zM1290.3 465.4l8.2-30.7h8.2c.6 3.6 2.4 14.6 2.5 18h.1c1.8-3.3 7.7-14.6 9.6-18h8.2l-3.6 30.7h-7.3c.4-3.7 1.7-15.6 2.7-19h-.1c-2.1 4.1-5.6 10.2-7.7 14h-6.5c-.6-3.3-1.9-10.9-2.2-14.1h-.1c-.4 3.9-3.7 15.2-4.6 19.1h-7.4zM1330.3 452.2c-1-19.1 31.5-26.3 32.5-4.6.9 19.3-31.7 26.8-32.5 4.6zm7.7-.4c.4 12.7 18 6.5 17-3.7-.6-12.3-18.1-6.3-17 3.7zM1363 461.6l4.5-5.3c2 3.1 13.9 4.6 10.1-1.4-3.2-2.3-7.8-3.5-9.8-7.4-5.3-12.4 14.2-17.1 21-9.7l-4 5.5c-2.2-2.7-13.1-3.5-9.5 2 3.2 2.3 7.9 3.5 9.8 7.4 5.3 12.9-15 17.3-22.1 8.9z"/></g><path d="M1043.2 491.1c2.2-.8 4.6-1.4 6.9-1.9 2.4-.5 4.9-.5 7.4-.4 2.5.1 4.9.5 7.4 1.4 2.4.8 4.6 2.2 6.5 3.9 1.9 1.8 3.8 4 5.1 6.9 2.5 4.8 3 10.4 1.9 15.7-1.4 6.3-4.6 11.7-9 16.3-5.6 5.3-12.2 9.3-19.8 11.3-2.2.8-4.4.5-6.8-.5l-3-1.8-3-2.2-1.4-1.3-1-1.4c-.6-1.4-.8-2.9-.4-4.3l3.7-39.8 5.5-1.9zm11.2 38.4c2.4-1.9 4.3-3.9 5.7-6.3 2.7-3.7 4.3-7.9 4.7-12.3.1-2.5-.1-4.6-.8-6-.8-1.4-2-2.5-3.9-3.2-2.3-.6-4.7-.6-6.9.2-1.4 5.6-2.8 10.8-3.9 16.1l-3.2 16.1c3.1-.9 6-2.4 8.3-4.6zm65.6-31.8c.8 1.4 1.4 3.1 1.5 4.9.9 7 .4 13.9-1.5 20.7-1 3.6-2.4 6.9-4 9.9-1.6 3.1-3.9 5.8-6.3 8.1-1.8 1.4-3.3 2.2-5.2 2.5-1.9.4-3.9.5-6.3.2l-4.9-.8c-1.6-.4-3.1-.8-4.6-1.5-1.3-.5-2.3-1.4-3.3-2.3-1.3-.8-1.9-2-2.5-3.1-2.2-4.4-3.1-9.3-3-14.1.1-11.4 4.9-22.5 13.3-30.1 3.1-2.4 7.2-3.6 11.1-3 2.4.4 4.6 1 6.9 1.9 2.2.8 3.9 1.9 5.5 3 1.3.9 2.4 2.2 3.3 3.7zm-16.4 3.4c-1.3 1-2.2 2.4-3.2 4.2-1.3 1.9-2.2 3.8-3 5.8-.9 2.2-1.8 4.3-2.3 6.3s-1 4-1.4 6.3c-.2 2.2-.4 4-.2 5.8.1 1.9.4 3.3.8 4.7.4 1.4 1.4 2.2 2.3 2.4.8.4 1.9.1 2.8-.5 1-.6 1.9-1.8 3-3 1-1.4 1.9-3.1 2.7-5.1 3.3-7.9 4.6-16.5 3.7-25.2-.4-1.4-1-2.4-1.9-2.5-1.3-.7-2.2-.2-3.3.8zm50.2 5.4 3.8-14.6c.4-1.4.8-2 1.5-2.3.6-.4 1.8-.2 3 .1l1.8.4 1.4.5 1.5.8 1.9 1.3c1.4.8 1.9 1.5 2 2.3.1.8 0 1.8-.2 2.8-1 3.1-2 6.6-3 10.6l-3.1 11.9-3 11.8-2.5 10c-.2 1.5-1.4 2.2-3.8 1.8-1.9-.4-3.9-.8-5.8-1.8-1.8-.6-3.1-2-3.9-3.8l-1.9-4.6-1.9-5.6-1.9-6.3-1.9-6.5-1.4 7.7-1.4 7.4-1.4 6.6-.8 5.2c-.2.6-.4 1.3-.8 1.4-.4.2-1.3.1-2.3-.1l-3-.8c-1-.3-2.2-.6-3-1.4-.8-.4-1.5-1-1.9-1.5-.4-.5-.4-1.4-.4-2.5l.4-4.8.8-7.1 1.3-8.5 1.4-9.1c.8-5.5 1.8-10.8 3-16.1.4-1.4.8-2 1.5-2.4.8-.4 1.9-.4 3 0l4.6 1.4 4.6 1.9c1.4.5 2.3 1.4 2.8 2 .5.8.8 2 1.4 3.7l.8 4.6 1.3 6.3 1.4 6.8 1.4 6.8c.6-5.6 1.3-10.9 2.7-16.3zm33 26.2c-3.1.4-5.8 1-8.4 1.5l-2.3 4.6-1.9 4.2c-.4.6-.8 1.3-1.4 1.4-.4.1-1.4 0-2.2-.4l-1.9-.6-2-.8-1.4-.8-.8-.8c-.2-.4-.4-.8-.4-1.4l.4-2.2c1-3 2.4-6.3 3.9-10l5.2-11.9c1.9-4.2 3.8-8.4 5.7-12.2 1.8-3.7 3.6-7.3 5.6-10.8.6-1.3 1.4-2 2.5-2.8 1-.6 2.5-1 4.6-.8 2.8.1 5.6.4 8.4 1.3l3 .8 2.8.8c1.4.4 2.2 1.3 2.5 1.9.4.8.4 1.8.4 3-.4 7.4-.8 14.7-1 22.2l-.1 12.4v11.6c0 .8-.1 1.4-.4 1.5-.4.4-1 .4-2.2.4h-2.7c-.8-.1-1.9-.2-2.8-.5-1-.4-1.8-.6-2.2-1.3-.4-.4-.6-1.4-.8-2.5l-.4-3.9-.4-4.7c-3-.1-6.2.3-9.3.8zm3.1-10.9 5.7-.5-.2-10c-.1-3.3 0-6.8.1-10l-5.5 10-5.8 11.4 5.7-.9zm62.4-17.4-4.7 7.6-5.6 8.5-5.7 8.4-1.9 7.7-1.4 7c-.2.8-.5 1.4-.8 1.4-.4.1-1.3.1-2.3-.1l-3.1-.8c-1-.3-2.2-.6-3-1.3-.8-.5-1.5-1.3-1.9-1.8s-.4-1.4-.4-2.5l.8-6.3 1.3-7.9-2.8-8.1-3-8.5-3-8.4-2.5-7.5c-.4-1.3-.5-1.9-.4-2.3.2-.4.8-.6 2-.8l3.8-.2c1.3-.1 2.5 0 3.8.4 1.3.4 2.2.8 2.7 1.4l1.9 3c1 2.5 2 5.5 3 8.5l3.2 10 6.6-10.9 6.5-11.2c.4-1 1-1.5 1.9-1.8.8-.1 1.8.1 2.7.6 1 .4 1.9 1.3 2.8 1.9l2.5 2.2.8 1.4c.2.4.4.8.4 1.4 0 .4 0 .8-.2 1.4l-.6 1.8c-.9 1.5-2 3.3-3.4 5.8zm13.2 31.5-1.4 6.9c-.2.6-.4 1.3-.8 1.4-.4.2-1 .2-2 0l-3-.6c-.8-.2-1.8-.4-2.5-.8-.8-.4-1.4-1-1.8-1.8-.4-.6-.4-1.4-.4-2.5l.4-3.9.5-5.7.6-6.9.8-7.4 1-7.1 1.4-6.3 1.4-4.6c.5-1.4 1-1.9 1.5-2.3l8.2-3.6c2.8-1.3 5.6-1.9 8.4-2.4 2.7-.4 5.5-.5 7.7-.1 2.4.4 4.6 1.4 6.5 3.2 1.4 1.5 2.8 3.2 3.9 5.1 1.3 1.9 2.2 4 2.8 6.8.5 2.8.4 5.1-.6 6.9-1.4 3-3.9 5.6-7.4 8.1-3.3 2.5-7.4 4.7-12.1 6.8 2.2 2.4 4.6 4.7 6.8 7.1l3.7 3.6c1.3 1.3 2.4 2.2 3.3 3 .8.6 1.4 1.4 1.3 1.8-.1.4-.4.8-1.3 1.4-.8.5-1.4.8-1.9 1l-1.9.4c-.8.2-1.9.4-3 .2-1.3-.1-2.4-.5-3.9-1.4l-3.3-2.5-3.9-3.3-4-3.9c-1.4-1.4-2.5-2.5-3.7-3.9-.1 2.6-.5 4.9-1.3 7.3zm6.5-25.8-2.2 7.7c4.9-1.6 9.4-4.3 13.3-7.9 1.4-1.4 2.4-2.5 3.2-4.2.6-1.4.8-2.3.6-3-.5-1.3-2-1.9-4.6-1.9-3 0-6.1.6-8.7 2.2l-1.6 7.1zm38.1-18.3c7.2-1.6 14.4-2.7 21.7-3 2.4 0 3.9.8 4.6 2.8.5 1 .8 1.9 1.3 2.7l.6 2.7c.2 1.3.1 1.9-.2 2.3-.4.4-1.3.6-2.4.8l-7.7.8-8.5 1.3-1.9 5.8-1.9 6.5 3.8-.4 4-.2c1.3 0 2.2.1 2.8.4.6.2 1.4.8 1.8 1.8.5.8.8 1.8 1.3 2.5l.6 2.5c.4 1 .4 1.5.1 1.9-.2.4-1 .6-2.2.8l-7.6 1.4-7.5 1.4-.8 3.9-1 3.5 5.6-.8 5.8-.5c1.3-.1 2 0 2.7.2.7.2 1.4.8 1.8 1.4.5.8.8 1.5 1.3 2.4l.8 2.3c.2.8.2 1.4 0 1.8s-.8.5-2 .8l-8.4 1.5-7.9 1.4c-1.8.4-3 .5-3.9.2-.8-.4-1.5-.5-2.3-1l-2-1.4c-1.5-1-2.9-2.4-3.9-3.9-.4-.8-.5-1.9-.4-3l6-41.6 5.9-2zm67.2 15.5-3.6 11.9-3.3 12.2c-1.4 4.1-2.3 8.4-3.2 12.4-.4.2-.8.2-1.4.2l-1.9-.4-2.4-.5c-1.8-.5-3-1.3-4-1.9-1-.6-1.4-1.9-.8-3.3l.8-5.2 1.4-6.6-5.2.6-5.2.8-1.8 8.2-1.3 6.9c-.2.6-.4 1.3-.8 1.4-.4.2-1.3.2-2.2-.1l-3.2-.8c-1.3-.4-2-.6-2.8-1.3-1-.4-1.8-1-2-1.5-.4-.5-.5-1.4-.2-2.5 1.4-7.4 2.5-14.6 3.3-22.1l1.4-12.4 1.4-11.4c.4-1.4.8-2.2 1.4-2.4.8-.2 1.5-.1 2.8.4 1.4.4 2.8.8 4.3 1.5 1.9.8 3.8 1.9 5.5 3.2l.8 1c.1.4.2.6.1 1.3l-.2 1.4-2.2 8.5-2.4 10.2 5.2-.5 4.9-.4 3-13.3c1-4.4 1.9-8.4 3-11.8.4-1.4.8-2.2 1.5-2.3.6-.1 1.8-.1 3 .2 1.4.4 2.5.8 3.8 1.4 1.4.5 2.5 1.4 3.8 2 .8.4 1.5 1.4 2 2 .2.5.2 1.4-.1 2.5l-3.2 10.5zm19.6 25.4c-3.1.4-5.8 1-8.4 1.5l-2.3 4.6-1.9 4.2c-.4.6-.8 1.3-1.4 1.4-.4.1-1.4 0-2.2-.4l-1.9-.6-2-.8-1.4-.8-.8-.8c-.2-.4-.4-.8-.4-1.4l.4-2.2c1-3 2.4-6.3 3.9-10l5.2-11.9c1.9-4.2 3.8-8.4 5.7-12.2 1.8-3.7 3.6-7.3 5.6-10.8.6-1.3 1.4-2 2.5-2.8 1-.6 2.5-1 4.6-.8 2.8.1 5.6.4 8.4 1.3l3 .8 2.8.8c1.4.4 2.2 1.3 2.5 1.9.4.8.4 1.8.4 3-.4 7.4-.8 14.7-1 22.2l-.1 12.4v11.6c0 .8-.1 1.4-.4 1.5-.4.4-1 .4-2.2.4l-3-.1c-.8-.1-1.9-.2-2.8-.5-1-.4-1.8-.6-2.2-1.3-.4-.4-.6-1.4-.8-2.5l-.4-3.9-.4-4.7c-2.9 0-5.8.4-9 .9zm3-10.9 5.7-.5-.2-10c-.1-3.3 0-6.8.1-10l-5.5 10-5.8 11.4 5.7-.9zm34.9 14.1-1.4 6.9c-.2.6-.4 1.3-.8 1.4-.4.2-1 .2-2 0l-3-.6c-.8-.2-1.8-.4-2.5-.8-.8-.4-1.4-1-1.8-1.8-.4-.6-.4-1.4-.4-2.5l.4-3.9.5-5.7.6-6.9.8-7.4 1-7.1 1.4-6.3 1.4-4.6c.5-1.4 1-1.9 1.5-2.3l8.2-3.6c2.8-1.3 5.6-1.9 8.4-2.4 2.7-.4 5.5-.5 7.7-.1 2.4.4 4.6 1.4 6.5 3.2 1.4 1.5 2.8 3.2 3.9 5.1 1.3 1.9 2.2 4 2.8 6.8.5 2.8.4 5.1-.6 6.9-1.4 3-3.9 5.6-7.4 8.1-3.3 2.5-7.4 4.7-12.1 6.8 2.2 2.4 4.6 4.7 6.8 7.1l3.7 3.6c1.3 1.3 2.4 2.2 3.3 3 .8.6 1.4 1.4 1.3 1.8s-.4.8-1.3 1.4c-.8.5-1.4.8-1.9 1l-1.9.4c-.8.2-1.9.4-3 .2-1.3-.1-2.4-.5-3.9-1.4l-3.3-2.5-3.9-3.3-4-3.9c-1.4-1.4-2.5-2.5-3.7-3.9-.3 2.6-.7 4.9-1.3 7.3zm6.5-25.8-2.2 7.7c4.9-1.6 9.4-4.3 13.3-7.9 1.4-1.4 2.4-2.5 3.2-4.2.6-1.4.8-2.3.6-3-.5-1.3-2-1.9-4.6-1.9-3 0-6.1.6-8.7 2.2l-1.6 7.1zm64.3-10.4-6 .5-2.7 10.8-2.7 11.2-2.5 10.8-2 9.9c-.1.5-.2 1-.5 1.3-.4.2-.8.2-1.4.2l-1.9-.4-2.4-.6-2.4-.8c-1.4-.4-2.3-1.4-2.8-2.5 0-3.1.3-6.3.6-9.4l1.4-9.4 1.8-9.9c.5-3.3 1.4-6.5 1.9-9.3l-3.6.5-2.8.5c-1 .2-1.9.2-2.5.1-.6-.1-1.4-.6-2.3-1.5-.8-.8-1.8-2-2.5-3.3l-1.9-3.3c-.5-1-.6-1.5-.4-1.9.2-.4.8-.5 1.5-.8 6-1 11.8-1.9 17.9-2.5l9.5-.8c3.1-.4 6-.4 8.5-.4 1.4 0 2.3.1 2.8.4.5.2 1 .5 1.4 1.3.8 1 1.5 2 2 3.1.5 1.3 1 2.3 1.4 3.3.2 1 .2 1.5 0 2-.2.4-1 .5-2.3.6-1.5-.1-3.3 0-5.1.3zm-434.4 76.6v-20.9h12.5v3.1h-8.7v5.4h7v3.1h-7v5.6h9.2v3.1l-13 .6zm15.2-2.7 2-2.9c.6.6 1.4 1.2 2.5 1.7 1 .5 1.9.6 2.9.6s1.8-.2 2.3-.6c.5-.4.8-1.2.8-1.8 0-.7-.4-1.4-1-1.9s-1.4-1-2.5-1.4l-2.9-1.3c-1-.4-1.9-1.3-2.5-2-.6-.8-1-1.9-1-3 0-1.9.6-3.1 2-4.4 1.4-1.2 3-1.8 5.2-1.8 2.3-.1 4.5.7 6.2 2.3l-1.8 3c-.5-.5-1.3-1-2.1-1.3-.8-.4-1.7-.5-2.5-.5-1 0-1.8.2-2.4.6-.6.4-.8 1-.8 1.8 0 .7.4 1.3 1 1.9.6.6 1.4 1 2.5 1.3l2.9 1.3c1 .4 1.9 1.2 2.5 2 .6.8 1 1.9 1 3 0 1.9-.6 3.1-1.9 4.4-1.3 1.3-2.9 1.9-5.2 1.9-1.3 0-2.6-.2-3.8-.7-1.4-.6-2.6-1.2-3.4-2.2zm22.5 2.7v-17.6h-6.8v-3.1h17.4v3.1h-6.8v17.6h-3.8zm13.4-7.6v-13.3h3.7v13.3c0 1.4.4 2.5 1.3 3.1.8.7 1.9 1.3 3.5 1.3 1.4 0 2.5-.4 3.5-1.3.8-.7 1.3-1.9 1.3-3.1v-13.3h3.7v13.3c0 2.4-.7 4.3-2.4 5.7-1.7 1.4-3.6 2.1-6.2 2.1s-4.6-.7-6.2-2.1c-1.6-1.5-2.4-3.7-2.2-5.7zm21.5 7.6v-20.9h7.1c3.1 0 6 1 7.9 2.9 1.9 1.9 2.9 4.4 2.9 7.9 0 3.1-1 5.8-2.9 7.9-1.9 1.9-4.5 2.9-7.9 2.9h-7.1v-.7zm3.7-3.4h3c2.1 0 3.8-.6 5.2-1.9 1.3-1.3 1.9-3 1.9-5.2s-.6-4.1-1.9-5.2c-1.4-1.4-3.2-2-5.2-1.9h-3v14.2zm18 3.4v-20.9h3.7v20.9h-3.7zm7.5-10.8c0-3 1.2-5.6 3-7.7 2-2 4.6-3 7.9-3 5.8-.1 10.5 4.5 10.6 10.3v.4c0 3-1.2 5.7-3 7.9-2 2.1-4.6 3-7.9 3-3.1 0-5.7-1.2-7.9-3-1.7-2.3-2.8-5-2.7-7.9zm4 0c0 2.1.6 4 1.9 5.2 1.3 1.4 3 2.1 4.9 2.1s3.7-.7 4.9-2.1c1.3-1.4 1.9-3.1 1.9-5.2 0-2-.6-3.7-1.9-5.2-1.3-1.4-3-2-4.9-2s-3.7.6-4.9 2c-1.3 1.4-1.9 3.2-1.9 5.2zm28.7 10.8v-20.9h7.1c3.1 0 6 1 7.9 2.9s2.9 4.4 2.9 7.9c0 3.1-1 5.8-2.9 7.9-1.9 1.9-4.5 2.9-7.9 2.9h-7.1v-.7zm3.7-3.4h3c2.1 0 3.8-.6 5.2-1.9 1.3-1.3 1.9-3 1.9-5.2s-.6-4.1-1.9-5.2c-1.4-1.4-3.2-2-5.2-1.9h-3v14.2zm17.9 3.4v-20.9h12.4v3.1h-8.7v5.4h7v3.1h-7v5.6h9.2v3.1l-12.9.6zm24 0v-20.9h7.4c1.9 0 3.6.4 4.7 1.4 1.3 1 1.9 2.3 1.9 4 0 1-.2 1.9-.6 2.6-.4.7-1.2 1.4-1.9 1.9v.1c1.2.4 1.9 1 2.5 1.9.5.8.8 1.9.8 3 0 1.9-.6 3.6-2 4.5-1.4 1.2-3.2 1.7-5.2 1.4l-7.6.1zm3.8-12.4h3.7c.8 0 1.4-.2 1.9-.7.4-.5.7-1.3.7-1.9 0-.6-.2-1.4-.7-1.9-.4-.5-1.2-.7-1.9-.7h-3.7v5.2zm0 9h4.1c1 0 1.8-.4 2.3-.8.5-.4.8-1.3.8-2.1s-.2-1.7-.8-2.1c-.5-.5-1.3-.8-2.3-.8h-4.1v5.8zm14.6 3.4v-20.9h6.8c1.9 0 3 .2 4 .5 1.2.4 1.9 1.3 2.5 2.1.6 1 1 2.1 1 3.6 0 1.3-.4 2.5-1 3.6-.6 1.2-1.4 1.9-2.5 2.3l.6 1.2 4.3 7.9h-4.3l-4.1-7.9h-3.6v7.9l-3.7-.3zm4-11.1h3.5c1.2 0 1.9-.4 2.5-.8.6-.5.8-1.4.8-2.5 0-1.4-.5-2.4-1.7-2.9-.7-.3-1.6-.4-2.4-.4h-2.9l.2 6.6zm12.7 11.1 7.3-20.9h4l7.3 20.9h-3.8l-1.9-5.2h-7.3l-1.9 5.2h-3.7zm6.7-8.5h5.4l-1.9-5.6-.8-3.1c-.4 1.4-.5 2.5-.8 3.1l-1.9 5.6zm14.6 8.5v-20.9h3.7l7.9 12 .7 1.4.7 1.3.2.5h.1l-.2-3.1v-12.2h3.7v20.9h-3.7l-7.9-11.8-.7-1.4-.7-1.3-.2-.5h-.1l.2 3.1v11.8h-3.7v.2zm22.1 0v-20.9h7.1c3.1 0 6 1 7.9 2.9s2.9 4.4 2.9 7.9c0 3.1-1 5.8-2.9 7.9-1.9 1.9-4.5 2.9-7.9 2.9h-7.1v-.7zm3.7-3.4h3c2.1 0 3.8-.6 5.2-1.9 1.3-1.3 1.9-3 1.9-5.2s-.6-4.1-1.9-5.2c-1.4-1.4-3.2-2-5.2-1.9h-3v14.2zm17.9 3.4v-20.9h3.7v20.9h-3.7zm8.9 0v-20.9h3.7l7.9 12 .7 1.4.7 1.3.2.5h.1l-.2-3.1v-12.2h3.7v20.9h-3.7l-7.9-11.8-.7-1.4-.7-1.3-.2-.5h-.1l.2 3.1v11.8h-3.7v.2zm20.8-10.5c0-3 1.2-5.6 3-7.9 2-2.1 4.6-3 7.9-3 3.1 0 5.7.8 7.9 2.6l-1.9 2.9c-.6-.5-1.4-1.2-2.5-1.4-1.2-.4-2-.5-3-.5-2.3 0-4.1.6-5.2 2-1.3 1.4-2 3.2-1.9 5.2 0 2.3.6 4.1 2 5.2 1.3 1.4 3.1 2 5 2s3.7-.7 5.2-2.1v-2.5h-3.1v-3h6.7v11h-3.2v-1.8h-.1c-1.8 1.4-3.8 2.3-6.2 2.3-2.9 0-5.2-1-7.3-3-2.3-2.4-3.3-4.9-3.3-8zm29.9-.2c-.2-5.8 4.4-10.5 10.1-10.7h.5c3.1 0 5.8 1 7.9 2.9l-1.9 2.9c-1.6-1.4-3.6-2.1-5.7-2.3-2.1 0-4 .6-5.2 2-1.3 1.4-1.9 3-1.9 5.2 0 2 .6 3.8 1.9 5.2 1.3 1.4 3 2.1 5.2 2.1s4.3-.8 6.2-2.6l2 2.9c-2.1 2.3-5.2 3.5-8.3 3.5s-6-1.2-7.9-3c-2.1-2.4-3.1-5.2-2.9-8.1zm20.3-.1c0-3 1.2-5.6 3-7.7 2-2 4.6-3 7.9-3 5.8-.1 10.5 4.5 10.6 10.3v.4c0 3-1.2 5.7-3 7.9-2 2.1-4.6 3-7.9 3-3.1 0-5.7-1.2-7.9-3-1.7-2.3-2.9-5-2.7-7.9zm4 0c0 2.1.6 4 1.9 5.2 1.3 1.4 3 2.1 4.9 2.1s3.7-.7 4.9-2.1c1.3-1.4 1.9-3.1 1.9-5.2 0-2-.6-3.7-1.9-5.2-1.3-1.4-3-2-4.9-2s-3.7.6-4.9 2c-1.3 1.4-1.9 3.2-1.9 5.2zm21.3 10.8v-20.9h3.7l7.9 12 .7 1.4.7 1.3.2.5h.1l-.2-3.1v-12.2h3.7v20.9h-3.7l-7.9-11.8-.7-1.4-.7-1.3-.1-.4.2 3.1v11.8l-3.9.1zm-255.9 32.5 2-2.9c.6.6 1.4 1.2 2.5 1.7 1 .4 1.9.6 2.9.6s1.8-.2 2.3-.6c.5-.4.8-1.2.8-1.8 0-.7-.4-1.4-1-1.9-.6-.6-1.4-1-2.5-1.4l-2.9-1.3c-1-.4-1.9-1.3-2.5-2-.6-.7-1-1.9-1-3 0-1.9.6-3.1 2-4.4 1.4-1.2 3-1.8 5.2-1.8 2.3-.1 4.5.7 6.2 2.3l-1.8 3c-.5-.5-1.3-1-2.1-1.3s-1.7-.5-2.5-.5c-1 0-1.8.2-2.4.6-.5.4-.8 1-.8 1.8s.4 1.3 1 1.9c.6.6 1.4 1 2.5 1.3l2.9 1.3c1 .4 1.9 1.2 2.5 2 .6.8 1 1.9 1 3 0 1.9-.6 3.1-1.9 4.4-1.4 1.3-3.2 1.9-5.2 1.9-1.3 0-2.6-.2-3.8-.7-1.5-.6-2.5-1.2-3.4-2.2zm17.9 2.6v-20.9h12.4v3.1h-8.7v5.4h7v3.1h-7v5.6h9.2v3.1l-12.9.6zm16.5 0v-20.9h7.1c3.1 0 6 1 7.9 2.9 1.9 1.9 2.9 4.4 2.9 7.9 0 3.4-1 5.8-2.9 7.9-1.9 1.9-4.5 2.9-7.9 2.9h-7.1v-.7zm3.9-3.3h3c2.1 0 3.8-.6 5.2-1.9 1.3-1.3 1.9-3 1.9-5.2s-.6-4.1-1.9-5.2c-1.4-1.4-3.2-2-5.2-1.9h-3v14.2zm17.8 3.3v-20.9h12.5v3.1h-8.6v5.4h7v3.1h-7v5.6h9.2v3.1l-13.1.6zm23.9 0v-20.9h12.5v3.1h-8.7v5.4h7v3.1h-7v5.6h9.2v3.1l-13 .6zm16.8 0v-20.9h3.7l7.9 12 .7 1.4.7 1.3.2.5h.1l-.1-3.1v-12h3.7v20.9h-3.6l-7.9-11.8-.7-1.4-.7-1.3-.2-.5h-.2l.2 3.1v11.8h-3.8zm29.3 0v-20.9h3.7v17.6h9.1v3.1l-12.8.2zm15.7 0v-20.9h3.7v20.9h-3.7zm8.1 0 1.8-20.9h4.1l4.1 10.3 1.2 3h.1l1.2-3 4.1-10.3h4.1l1.8 20.9h-3.8l-.8-11.6v-3.1h-.2l-1.3 3.1-3.5 8.1h-3.4l-3.5-8.1-1.3-3.1v3.1l-.8 11.6h-3.9zm23.7 0 7.3-20.9h4l7.3 20.9h-3.8l-1.9-5.2h-7.3l-1.9 5.2h-3.7zm6.5-8.4h5.4l-1.9-5.6-.8-3.1c-.4 1.4-.5 2.5-.8 3.1l-1.9 5.6zm13.1 11.4 2-6.8h3.7l-2.9 6.8h-2.8zm10-3v-20.9h8c1.9 0 3.6.6 4.8 1.9 1.3 1.3 1.9 2.9 1.9 4.9s-.6 3.7-1.9 4.9c-1.3 1.3-3 2-4.8 1.9h-4.3v7.1l-3.7.2zm4-10.6h3.6c1.2 0 1.9-.4 2.5-1 .6-.6 1-1.4 1-2.6 0-1.2-.4-1.9-1-2.5s-1.4-1-2.5-1h-3.7l.1 7.1zm14.2 10.6v-20.9h12.5v3.1h-8.7v5.4h7v3.1h-7v5.6h9.2v3.1l-13 .6zm16.5 0v-20.9h6.8c1.9 0 3 .2 4 .5 1.2.4 1.9 1.3 2.5 2.1.6.8 1 2.1 1 3.6 0 1.3-.4 2.5-1 3.6s-1.4 1.9-2.5 2.3l.6 1.2 4.3 7.9h-4.3l-4.1-7.9h-3.7v7.9l-3.6-.3zm3.8-11.2h3.5c1.2 0 1.9-.4 2.5-.8.6-.5.8-1.4.8-2.5 0-1.4-.5-2.4-1.7-2.9-.7-.3-1.6-.4-2.4-.4h-2.9l.2 6.6zm14.7 3.7v-13.3h3.7v13.3c0 1.4.4 2.5 1.3 3.1.8.7 1.9 1.3 3.5 1.3 1.4 0 2.5-.4 3.5-1.3.8-.7 1.3-1.9 1.3-3.1v-13.3h3.7v13.3c0 2.4-.7 4.3-2.4 5.7s-3.6 2.1-6.2 2.1-4.6-.7-6.2-2.1c-1.2-1.4-2.2-3.6-2.2-5.7zm6.8-14.7 2.3-4h3.8l-3 4h-3.1z"/></svg>