<?xml version="1.0" encoding="utf-8"?>
<!-- Generator: Adobe Illustrator 25.3.1, SVG Export Plug-In . SVG Version: 6.00 Build 0)  -->
<svg version="1.1" id="Capa_1" xmlns="http://www.w3.org/2000/svg" xmlns:xlink="http://www.w3.org/1999/xlink" x="0px" y="0px"
	 width="2250.9px" height="1080px" viewBox="0 0 2250.9 1080" style="enable-background:new 0 0 2250.9 1080;" xml:space="preserve"
	>
<style type="text/css">
	.st0{fill:#E5332A;}
	.st1{fill:#020202;}
	.st2{fill:#CCCCCC;}
	.st3{fill:#FFFFFF;}
	.st4{font-family:'MuseoSansCyrl-900';}
	.st5{font-size:78.6277px;}
	.st6{font-size:39.1144px;}
</style>
<path class="st0" d="M1617.6,910c0.3,0,0.6,0.1,0.8,0.1c1.9,0.3,3.5,0.8,5.1,1.3c-1.5-1.3-3.1-2.6-4.6-3.9
	C1618.4,908.4,1618,909.2,1617.6,910z"/>
<path class="st0" d="M1499,963.1c7.5-1.2,15.1-1.5,22.6-1.3C1514,960.1,1506.4,960.4,1499,963.1z"/>
<path class="st0" d="M1629.1,896.1c-0.6,0.5-1.3,0.9-2,1.2c-1.2,0.4-2.5,0.8-3.7,1.2c1.4,1.2,2.8,2.4,4.1,3.7c0.5-1.1,1.5-2,3.1-2.3
	c0.3-0.1,0.6-0.1,0.9-0.2C1630.6,898.6,1629.8,897.4,1629.1,896.1z"/>
<path class="st0" d="M-111.3-998.8v949.1c0.4-0.3,0.9-0.6,1.4-0.9c0.1-1,0.5-1.9,1.2-2.8C-77.3-91-24.2-78.2,21.2-77.9
	c9.2-2.5,18.6-3.2,28.3-1.7c2.2,0.3,3.4,2.2,3.6,4.2c19-0.3,38-1.1,57-2c30.5-1.4,61-1.4,91.5-2.8c52.8-2.5,104.7-14.1,156.9-0.2
	c14.3,3.8,27.5,6.5,42.4,4.9c11.7-1.3,22.9-3.8,34.3-6.5c12.7-3.1,25.6-6.2,38.8-6.3c12.1-0.1,24.4,1,36.5,1.8
	c26.6,1.8,53.2,4.5,79.9,5.9c27.2,1.5,54.4,0.3,81.7,1.3c26.8,0.9,53.7,3.6,80.2-1.9c6.8-1.4,13.5-3,20.1-4.7
	c11.9-13.3,31.6-17.2,49.3-17.6c16.7-0.4,33.2,1.4,49.6,4.5c28.7,0,57.4,4.4,85.5,10.8c30.6,6.9,60.4,16.2,90.7,23.6
	c7.4-1.5,14.8-3,22.6-3.4c13.9-0.7,25.4,5.4,35,14.6c1.5-1.5,3.7-2.1,5.9-0.8c13.7,8,21.4,19.6,25.9,32.9c0.1-0.2,0.2-0.3,0.3-0.4
	c-0.1-0.7-0.3-1.5-0.4-2.2c-0.9-3.5,2.4-7.7,6.2-6.2c0.1,0,0.1,0,0.2,0.1c20-22.2,61-25.8,82.5,0.5c16.2-9.2,35.4-8.1,51.5,0.9
	c0.5-0.5,1.1-0.8,1.8-1c1.2-0.4,2.3-0.7,3.5-0.9c-1.4-2.6-0.9-6.5,2.8-7.6c2.4-0.7,4.8-1.2,7.3-1.5c9.1-17,22.6-35.3,43.1-35.7
	c-0.1-0.1-0.2-0.2-0.3-0.4c-8.6-10.5-4.7-20.5,3.5-26.3c4.1-5.5,9.4-10.2,15.4-14.1c1.8-1.2,4.6-0.8,6.1,0.8c1,1,1.9,2.1,2.8,3.1
	c7.9-1.2,16.2,2.3,21.7,12.3c7.2,3.1,11.8,9.8,14.6,17.1c8.9,2.4,17.3,6.9,25,13.1c1.5,1.2,1.8,3,1.3,4.6c1.4,0.5,2.8,1,4.1,1.5
	c1.3-1.1,2.7-2.2,4.2-3.2c15.1-10.3,34.3-13.8,52.1-15.7c6.5-0.7,13-1.1,19.6-1.3c1.1-0.1,2.2-0.2,3.3-0.3c17.5-1.4,35-0.9,52.4,2.1
	c2.7,0.5,5.3,1,7.9,1.6c22.4,2.5,45,5.9,67,11.2c16-0.6,32-3.2,47.8-4.7c21.5-2,43.2-1.5,64.7,0.1c29.3,2.2,58.6,7.2,86.1,17.3
	v-941.8H-111.3z"/>
<path class="st0" d="M1417.7,959.4c0.6,0.1,1.1,0.2,1.7,0.4c1.1-1.5,2.3-2.8,3.5-4.1C1421.1,956.8,1419.3,958.1,1417.7,959.4z"/>
<path class="st1" d="M840.8,2049.5c-0.1,0.9-0.1,1.8-0.2,2.7c3.6-2.2,6.1-5.8,6.6-10C843.8,2042.9,841.9,2046.2,840.8,2049.5
	L840.8,2049.5z"/>
<ellipse class="st2" cx="1138.9" cy="1011.2" rx="161.1" ry="39.8"/>
<path d="M1279.4,963.2c2.3-2.2,4.9-4.2,8.2-6.4c2.8,4.5,6.4,7,10.8,8l-3.8-5.2c2.5-0.3,4.9-0.5,7-0.9c7.2-3.9,12.2-10.3,16.9-16.6
	c3.9-5,7.8-10.2,13-14.1c9.7-8.8,24.1-7.7,34.1-2.8c9.2,4.4,15.5,12.7,21.6,21.4c4.2,6.3,6.1,13.6,11,19.6c-0.3-3.9-0.8-7-2-11.7
	c7-3.7,14.3-1.3,19.8,2.7c0.2-0.2,0.4-0.5,0.7-0.7c0.8-0.7,1.7-1.3,2.6-1.9c-0.7-1-1.5-1.9-2.2-2.9c5.8-5.5,11-12,18.8-14.7
	c10.5-3.4,19.4-3.6,26.4-0.3c11.1,5.5,18.6,15.6,27.7,23.8c2-6.6,2.5-13.5,3.4-20.2c0.2-2.3,4.1-2,6.3-2.7
	c-0.8,7.2-1.6,14.2-2.3,21.3c0.6,0.5,1.6,1.4,2.2,2c1.6-7.4,3.3-15.8,3.8-24.6c2.3-2.2,4.4-4.1,6.4-5.8c-1.6,10.6-4.2,21-5.9,31.6
	c9.4-1.4,18-5.9,27.7-6.1c14.4-0.2,29.4,0.6,41.5,8.6c2.8,1.7,5.6,2.2,8.6,2.8c-5.5-8.3-15.5-11.6-25.7-13.8
	c-0.3-0.5-0.8-1.1-1.1-1.4c5-14.9,15.5-26.8,28.3-31.9c9.4-4.5,20.2-2.2,27.7,0.8c-2,5.6-3.8,11-3.4,16.4c0.2,5.8,3.1,11,3.9,16.7
	c-0.9,6.3-8,8.3-14.1,7.5c0,0.5,0.2,1.3,0.3,1.7c5.2-0.3,11.9,1.1,14.9-4.5c1.3,2.2,2,5.5,5,5.8c-0.9-6.3-3.8-12-3.9-18.6
	c3.6,1.9,5.6,5,7.8,8.4c2.2,3.4,4.5,7,8.6,9.1c8.3,1.6,15.2-3.8,21.7-8c3.3,1.4,6.6,3.6,10.3,2.7c-2-2.3-5.3-6.9-10.2-5.2
	c-5.6,2-10,7.5-16.4,7.2c-5.6,0.3-8.3-3.9-11.3-8.3c-2.8-4.2-5.6-8.8-11.3-8.9c0.5-7.2-0.2-14.9,3.3-21.4
	c7.4-13.1,22.7-21.3,37.5-19.7c13.9,1,26.5,8.4,37,15.1c-7.2,3.6-13.9,7.8-20.1,12.6l2.9,3.4c37.8-29.5,88.2-29.1,123.9-23.7
	c38.9,6,69.2,19.2,69.5,19.3l0.7,0.3l0.7-0.2c178.4-35.8,210.1,12.7,210.4,13.2l3.8-2.1c-0.3-0.5-8.4-13.6-39.5-21.8
	c-40-10.6-100.5-8.5-175,6.4c-4.8-2-33.6-13.8-69.8-19.4c-39.3-6.1-74-2.8-101.9,9.3c-10.5-9.6-25-13.8-38-16.6
	c-2.7-6.7-5.2-13.8-11.1-18.1c-7-5.9-16.9-9.1-30-9.7c0.8-12.2,3.6-24.6,0.8-36.8c-1.9-8.4-5.8-16.9-11.1-24.1
	c-5.2-7-14.2-9.7-21.7-11c-0.3-3.1-0.6-5.9-0.8-8.8c5.8-1.1,10-5.2,14.2-9.1c14.1-12,20-29.7,31-44.1c6.3-2.8,13.8-2.5,18.6-8.3
	c1.7-5.6-2.7-13.5-8.4-15.5c0.8-2.7,1.4-5.3,2-7.8c14.4-1.7,15.8-6.3,18-19.6c0.3-1.9,0.6-3.8,1.1-5.6c-0.2-0.2-0.2-0.3-0.3-0.6
	c1.4,1.4,2.8,2.8,4.2,4.1c-0.3-3.3-1.3-6.7-2.7-9.2c0-1.3,0.2-3.1,0.2-4.2c-2.7-0.2-5.9,1.3-8.1-0.5c-3.6-2.5-7.8-5.6-12.5-3.3
	c-6.3,3.6-11,10-12.2,17.1c-0.3,4.2,0.2,8.3,0.5,12.4c-3,1.6-5.9,3.1-8.8,4.8c3.8,1.9,7.7,3.3,11.6,4.9c0.3,1.9,0.5,3.9,0.6,5.8
	c-6.9,1.1-14.2,1.4-20.2,5.6c-14.1,9.1-19.2,25.8-31.3,36.9c-1.7-12.7-0.9-25.3-2.5-38c-1.1-9.4-2.5-18.6-3-28.2
	c-0.3-5.2-1.4-11.1-6.4-13c-2.8,0-4.8,1.7-6.7,3.6c-0.9,0.9-2,1.7-3.1,2.3c-5.2,0.3-10.2-0.3-15.3-0.6c0.2-2.7,0.2-5.8,0.2-8.9
	c1.7-2,3.4-4.2,5.3-6.6c-1.1-0.8-2.3-1.9-3.4-2.8c-2.8,5.3-8.9,6.9-13.8,9.9c2.5,1.7,4.7,3.4,6.7,5c-3,0.9-5.8,1.7-8.8,2.3l0.5-3.8
	c-2.7,0.9-5.3,1.9-7.8,3c-0.8-3.8-1.7-7.7-2.8-11.9c7.8-5.2,15.8-9.7,25.3-6.6c1.7,0.5,3.4,0.8,5.2,1.1c-2-3.1-4.4-6.6-8.1-6.7
	c-7.8,0.3-14.6,2-20.3,5.2c-3.4,2-7.7,2-11.6,2.5c-4.1-3.6-18.1-13.8-29.9-6.6c0.9,5.2,3.6,10,7.8,14.6c-1.1,2-2.3,4.2-3.4,6.3
	c-2.3,0.3-5.5,0.6-8.4,0.9c-3.8-5.3-8.4-12.8-16-9.2c0,4.7,0.2,9.2,0.6,13.6c-0.9,1.1-2,2.3-3,3.4c-1.4-10.8-3.6-21.3-3.8-32.1
	c1.9-2.8,4.5-5,6.4-7.8c1.7-4.4,0.8-9.1,0.2-13.6c-4.4-2.7-11.6-3.3-13.8-8.3c3.3-8.4,8-16.3,10.3-25.2v-0.3
	c-0.6-1.4-1.1-2.7-1.7-4.1c-4.8,4.1-8.6,11-15.6,10.6c-0.6,2.8-2,5.5-3.9,7.8c-22.8-4.3-45.7-8.9-68.9-11.7
	c-0.8,0.2-1.6,0.4-2.6,0.4c-2.6,0-4.5-1.1-5.8-2.6c-0.1,0.3-0.1,0.5-0.2,0.8c-4.2-5.6-8.6-11.7-13.9-19.2c0.7,0.2,1.5,0.3,2.2,0.4
	c-2.5-1.2-3.9-3.6-4.1-6.2c-0.6-0.2-1.3-0.3-1.9-0.5c0.3,1.6,0.3,3.2-0.2,4.7c0.1,0,0.2,0.1,0.4,0.1c-0.9,8.4-0.9,17.1,0.2,26.6
	c-1.6,2.8-3.3,5.3-5.3,8c-4.7-1.7-9.9-4.8-14.9-2c-4.2,2.7-9.4,7.5-9.9,13.6c4.8-3.9,8.9-10.6,15.6-10.2c2.2,0,4.1,1.6,5.8,2.7
	c-2.8,5-5.9,9.9-8.8,15c-0.6-0.2-1.3-0.4-1.9-0.6c0.2,2-0.3,4.1-1.5,5.7c0.4,0.2,0.8,0.3,1.2,0.5c-3,8.6-6.1,17.5-9.7,26.3
	c-0.7-0.5-1.4-0.9-2.1-1.2c0.1,0.6,0.1,1.1,0.1,1.7c0.1,1.4-0.1,2.8-0.7,4c0.4,0.2,0.7,0.4,1.1,0.7c-4.4,12-9.9,27.8-13.5,44.6
	c-0.9,0-1.8,0-2.8-0.1c0,0.7,0,1.4-0.2,2.1c-0.2,0.9-0.4,1.7-0.7,2.5c0.9,0,1.9,0,2.8-0.1c-1.5,10.5-4.4,20.4-6.5,30.7
	c1.4,0.8,2.7,1.6,4,2.5c1.5-8.5,2.7-17,5.8-25c3.3,11.4,6.3,23.5,13.9,33c1.6,2.5,4.8,2.7,7.4,1.4c3.1-0.8,3.8-4.5,5.3-6.9
	c1.9,2.3,3.8,4.8,6.1,6.9c5.6,1.6,8.4-5.2,9.1-8.9c3.3,4.4,5.8,7.8,8.4,11.1h5.6c2.3-3.1,4.2-6.7,5.5-11.3c2.8,3.4,5.2,6.3,7.5,8.9
	c3.3-0.3,7.7,1.7,9.7-2c2-2.7,2.3-6.1,3.1-9.2c4.2,3.4,7.8,8.9,14.1,7.8c6.3,0.3,6.9-7,7.5-11.6c4.2,2.7,9.4,6.1,14.7,3.4
	c3.9-1.3,3-5.6,4.1-8.6c5.3,1.3,10.3,2.2,15.3,1.3c4.8-2.3,10.2-7.2,10.3-13.6c-5.8-2.5-11.9-3.9-17.5-6.7
	c-11.6-6.7-19.7-17.4-30.7-24.7c-25.7-11.1-60.4,22.2-93.7,7c1.1-9.4,4.4-18.5,7.5-27.4c6.1-18.8,13.3-36.8,24.3-54.6
	c0.6,0.8,1.7,2,2.3,2.7c-4.4,16.3,5,29.4,22.4,31.1c8,0.8,22.5,0.5,31.9-9.5c4.7-3.9,5-10.2,6.3-15.8c6.6-1.9,13.6-1.6,19.6,1.1
	c-0.5,1.7-1.1,4.5-1.6,6.4c-3.4-1.3-7.2-2-10-4.5c-1.6,1.1-3.1,2-4.7,3.1c1.7,0.8,3.6,1.6,5.5,2.5c-4.1,4.1-1.1,9.7,0,14.4
	c1.1-2,1.9-4.2,2.3-6.6c0.8,0.9,1.7,2,2.5,2.8c-0.6,1.4-1.6,3.1-2.5,4.8c4.9,3.8,9.7-0.9,11.6-3.6c7.5,5.3,16.7,4.5,25.8,3.3
	c2,11.1,2.7,22.1,4.7,33.2c1.9,7.4-2.3,14.6-2.5,21.9c-0.3,6.6-0.9,13.1-1.6,19.6c-1.1,13.3-2.3,27.1-1.9,40.7
	c-2.3,30.5-1.3,61.2-6.9,91.5c-0.8,5.3-0.5,10.8-2.2,16c-1.3-4.4-2-9.1-2.8-13.5c-4.7-27.1-16.4-56.3-31.8-75.7
	c1.9-3.1,4.8-6.3,3.6-10.3c-1.4-5.9-7.4-9.9-13.9-9.4c-2,2.8-4.2,5.8-6.1,8.9c-11.4-2.5-23-2-34.6-2.7c-0.5-3.3-1.6-6.4-3-9.4
	c-3.1-0.2-6.1-0.3-8.9-0.3h-0.2l-0.2,0.2c-2.7,2.3-3.9,5.5-5.2,8.4c-1.4,3.3-2.7,6.4-5.6,8.6c-5.9,5.9-6.7,14.2-7.5,22.4
	c-2.5,28.8-7.4,57.1-15,83.4c-5.9,22.2-8.4,44.4-15.2,66.5c-4.1-4.2-5.6-9.9-4.9-15.8c-3.7,2.2-3.8,5.6-2.9,9.1
	c1.8,1.3,2.7,3.8,2.2,5.9c0.2,0.5,0.4,1,0.5,1.4h-1.1c0,0,0,0.1-0.1,0.1C1284,956.9,1281.7,960,1279.4,963.2L1279.4,963.2z
	 M1305.7,726.9c0.6-0.6,1.1-1.4,1.7-1.9c3.1,5.6,8.1,9.5,12.5,12.8c3.8,2.3,2.5,7.5,2.2,11.4c-2.2-2.7-3.8-5.9-6.6-8
	c0.3,3.6,2.2,6.4,4.2,9.2c0.5,0.6,1.1,1.4,1.6,2.2l-3.3,2.3C1312.3,748,1308.2,738.8,1305.7,726.9L1305.7,726.9z M1320.1,711.8
	c24.6,2.3,45.4-13.9,69.6-13.9c5.6,0.8,11.4,4.7,16.7,11.3c0.2,1.1,0.3,2.3,0.3,3.4c0.2,3,0.6,6.3,3.1,8.4c0.2-2.3,0.2-5.5,0.3-8.1
	c10.2,8.9,21.3,14.9,32.7,17.5c-1.1,1.7-2.2,3.6-3.4,5.2c-8.9-4.5-18.5-8.4-26.1-15.2c2.7,10.8,15,10.3,22.1,16.6
	c-8,0.3-14.7-5.6-22.7-5.8l1.1,6.9c-5.2-3.4-9.2-8.1-14.2-11.7c3,7.4,9.7,11.6,16,16c0,0.6-0.3,1.1-0.9,1.4c-1.4,0.6-4.2-0.2-5-1.3
	c-1.3-0.9-2.5-1.7-3.8-2.7c-3.1-2.2-6.3-4.5-9.9-5.9c0.3,4.2,0.8,8.3,1.1,12.5c-4.7-4.1-6.6-10.3-11.1-14.6
	c1.1,7.4,6.1,12.8,10.3,18.5c-9.1,0.6-13.1-10-19.4-15c-0.2,4.9,0.8,10.2-1.4,14.7c-3-4.4-4.2-9.7-8-13.5
	c-0.5,6.9,4.8,11.4,7.2,17.2c-3.3,0.6-5.5-2-7.5-4.4c-3.4-4.1-5.8-8.8-9.2-12.8c0.2,5.5-0.6,10.8-2.2,15.8c-2-3.6-2.2-7.8-2.5-11.9
	l-3.1-2.2c-0.8,6.6,2.2,12.4,3.4,18.6c-8-3.9-8.4-14.5-15-19.9c-0.5,4.2,0.9,10.8-3.3,12.8c-0.2-3.4,1.4-7.4-2-9.9
	c-0.6,4.7-0.3,9.5,0.3,13.9c-3.9-4.2-6.6-9.4-8.9-14.1l4.4-4.4c0.2-2.3,0.5-5,0.8-7.2c3.9,3.3,7.8,6.7,12.5,9.1
	c4.4-3.3,4.2-8.6,4.5-13.5c5.6,3.6,11.1,7.5,17.8,9.1c1.1-0.8,3-2.2,4.1-3c-0.3-2.8-0.6-5.8-0.9-8.6c6.4,3.4,14.1,10.3,20.7,3.8
	c0.2-2.7,0.3-5.2,0.5-7.8c6.4,3.1,13.3,10.2,20.5,5l-2.3-3.8c-1.4,0.2-4.2,0.2-5.6,0.3c-3-1.4-5.8-3.1-8.6-4.8
	c-3.6-2.2-7.5-4.5-11.6-6.1c1.3,5,3.9,9.5,4.1,14.9c-9.5,0.5-16.4-6.9-24.1-11.3c0.9,5.6,3.8,10.8,4.1,16.7
	c-9.1-1.9-16.3-8-23.9-12.7c1.6,5.2,2,10.6,1.1,16.6c-7.4-3.3-12.5-9.4-19.6-13.1c2.5,4.5,3.3,9.5,2.3,15.5c-6.7-1.1-11.1-6.6-16-11
	c-1.7,0.2-3.3-0.2-4.8-0.9c0-1.3-0.2-2.3-0.3-3.6c-0.3-4.4-0.6-8.9,0.3-13.3C1307.8,711,1314.3,711.3,1320.1,711.8z M1419.2,650.9
	c-0.5,0.2-0.8,0.2-1.1,0c-0.6-0.3-0.9-1.4-1.1-2.5c-0.6-2.8-2.3-4.8-4.1-7c-0.6-0.5-1.1-0.9-1.6-1.6c0.9-0.8,2.2-1.9,3.1-2.7
	C1417.8,641.2,1422.3,645.9,1419.2,650.9L1419.2,650.9z M1343.6,633.5c-0.2-11.1,12.5-14.9,21.7-15c6.9,0,14.6,2,22.5,5.9
	c3.9,2.3,9.2,5.2,8.1,10.2c-1.7,5.8-6.1,10.3-11.6,11.7c-13.5,4.1-26.4,3.1-35.7-2.8C1345.6,641.5,1343.6,637.8,1343.6,633.5
	L1343.6,633.5z M1444,622.4c-7.2-0.8-13.5,0.9-21.1,4.8c-6.9-2.3-14.7-2.5-23.6-0.8c-1.9-1.6-3.4-3.8-5.2-5.5
	c-5.3-1.7-10-4.9-15.5-6.1c-15.5-3.8-27.1-2.3-35.4,4.5l-2.7-3.8c2.3-3.6,5-7,6.7-11.1c0.3-3.9-0.5-7.7-0.8-11.6
	c3,2.7,4.5,6.7,7.2,9.7h0.2c24.1,0.8,47.1,5.8,68.5,10.5c5.9,1.3,12.2,2.7,18.5,2.5c2.5-3.8,5.3-7.5,9.2-10.2
	C1448.4,611.3,1443.6,616,1444,622.4L1444,622.4z M1449.1,647.8c-5.3,1.6-17.5,3.9-24.7-4.4c-1.9-1.7-2-3.8-1.9-5.2
	c0.3-2.8,2.5-5.8,5.2-7.2c5.2-3.6,11.4-3.3,17.4-3.1l0.3,0.2C1447,634.6,1447.6,641.2,1449.1,647.8z M1324.5,848.6
	c5.8,1.6,11,5.3,14.4,10.2c0.9,1.9,0,4.1-1.3,5.3c-7.2,0.9-12.8-5-15.6-8.8C1322.6,853.3,1323.4,851.3,1324.5,848.6z M1335.2,849.4
	c-1.1-0.8-2.2-1.7-3.1-2.8c-1.4-3.1-2.5-6.4-3.6-9.7c7.4,4.5,13.1,10.6,20,15.5c2.7,10.3,5.8,20.3,8,31c-5.3-5.2-9.7-11-15.6-15.6
	C1341.7,859.3,1342.7,855.2,1335.2,849.4L1335.2,849.4z M1363.3,869.9c2.2,2.2,4.7,4.2,5.9,7c1.9,4.5,5.3,8,8.1,11.9
	c-5.5-0.2-11.1-0.9-16.7-2.5c-2.8-11-5.9-21.9-9.1-32.7c11.4,0.2,22.7,0.9,34.1,1.3c-0.2,3.8-0.5,7.7-2.2,11.3
	c-2.2-1.6-4.2-3.4-6.7-4.5c-5.6-1.9-13.5,1.9-13.3,8.3L1363.3,869.9L1363.3,869.9z M1324.2,837.7c1.9,2.2,3.3,4.7,4.2,7.5
	c-1.9,0.3-3.6,0.6-5.3,1.1C1323.4,842.9,1323.9,840.2,1324.2,837.7L1324.2,837.7z M1453.7,645.4c-0.5-3.1-1.1-6.1-1.6-9.1
	c-0.3-1.9-0.6-3.6-0.9-5.3c2.5,1.3,5,2.5,7.4,3.8C1458.8,638.1,1458.4,643.4,1453.7,645.4z M1511,673.7c-6.7-3.1-13.5,3.6-20.3,0.9
	c1.9-2.8,5.6-3.1,8.8-3.8c-1.3-1.1-2.5-2-3.8-3.1c-3.8-3.1-7.7-6.3-10.5-10.3c1.6-1.1,3.1-2,4.8-2.8c4.5,0.6,11.1,2.3,16.4,6.9
	C1510.2,664.3,1510.1,669.5,1511,673.7L1511,673.7z M1520.4,677c-2.2-0.2-4.4-0.6-6.3-1.4c-1.1-3.8-1.9-7.7-2.7-11.6
	C1517.7,665.4,1519.8,672.6,1520.4,677z M1644.3,700.3c0.8-3.3,1.6-6.7,2.3-10.2c-1.4-1.6-2.8-3.1-4.7-4.4
	c-3.8,0.3-7.4,0.9-11.1,1.3c0.2-10.2,8-17.1,12.8-20.2c4.4,0,8.3,2.3,9.9,5.9c3.3,5.9,3.3,14.1,0.2,21.7c-1.1,3.4-4.5,4.5-8,5.5
	C1645.4,700,1644.8,700.2,1644.3,700.3L1644.3,700.3z M1639.5,701c-3.4,0-6.9-0.2-10.2-0.5c0.8-1.1,2-2.8,2.7-3.8
	c0-2.3-0.2-4.8-0.3-7.2c3.9,0,7-0.3,9.9-0.8c1.3,0.8,1.9,1.7,2,2.8C1644.3,694.5,1641.3,698.1,1639.5,701z M1638.4,704.1
	c0.2,2,0.3,5.3,0.3,7.2v0.2c-1.3-0.5-2.7-0.6-3.9-0.5C1635.2,708.2,1634.8,704.1,1638.4,704.1z M1583.3,784.7
	c-0.3-3-0.5-5.9-0.6-8.9c-0.5-5.5-0.8-11.4-1.7-17.2c15-12.4,20.5-34,39.6-42.1c9.1-3.1,21-1.9,25.3,6.7c-3.3,5.9-11.1,5.5-16.7,7.5
	c-10.6,11.1-15.2,26.3-25.5,37.7C1597.7,774.8,1591.6,781.5,1583.3,784.7L1583.3,784.7z M1615,873.4c18.3,0.3,30.5,6.3,37.9,22.5
	c-6.7,1.1-13.6,0-20.2,2.7c-8.3,3-14.9,8.6-19.1,15.5c-0.8,1.7-1.9,3.3-3.8,1.7c-5.3-2-11.4-3-18.6-3
	C1581.9,892.9,1592.7,874.1,1615,873.4L1615,873.4z M1543.6,950.5c1.3-3.4,3.9-6.1,6.3-8.8c0.2-1.1,0.5-3.3,0.6-4.5
	c2.7-1.7,5.9-3.1,6.3-6.9c0-2.2,1.7-3,3.6-3.9c1.3-0.6,2.5-1.3,3.4-2.5c0.5-2.2,0.8-4.2,0.9-5.9c3.4-2.3,7.5-3.8,5.3-8.8
	c-1.1-3-0.8-3,1.6-4.7c5.2-3.8,10.5-7.8,11-14.7l-6.1-0.9c2.7-12.7,8.8-25.3,5.5-38.5c-3.8,3.8-2.7,8.9-2.7,13.6
	c-7.2,6.3-17.4,7.8-26.1,4.4l4.2-18.8c6.7,4.4,14.4,1.9,21.7,2.8c0.9-1.1,2-2.2,3-3.1c-7-0.5-14.4,0.9-21.3-1.1
	c-3.3-5.8,0.2-12.4,1.9-18.3c2.3-7.8,5.6-18.6,14.4-23.6c20.2-8.8,36.9,18,37.1,35.4c-0.5,9.9-1.3,18.6-2.3,26.4
	c-8.8,4.2-19.1,7.5-23,17.2c-2.3,5.9-5.5,17.2-1.3,27.2c-13.6,4.8-24.6,13.3-31,24.3c-2.3,3.8-2.5,8.3-2.7,13.3l-2.8,2.3
	C1548.6,951.8,1545.9,951.4,1543.6,950.5z M1557.5,888.1c-2.5,2.5-6.6,2.5-9.9,3.4c1.4-7,2.7-13,4.5-18.9l4.7,1.6
	C1556.5,879.8,1556.7,884,1557.5,888.1L1557.5,888.1z M1565.8,874c-0.5,4.4-1.1,8.8-1.6,13.3c-1.6,0.9-3,1.1-4.2,0.6
	C1559.8,882.6,1558.3,873.2,1565.8,874L1565.8,874z M1568.1,887.6c0.3-3.9,0-8.1,1.1-11.9c1.1-3,4.5-3.3,7.4-4.1
	c-1.4,5.3-2.2,10.8-3.6,16.1C1571.7,887.6,1569.5,887.6,1568.1,887.6z M1515.5,918.4c0.2-6.4,0.9-14.6-5.3-18.5
	c-2.8-1.9-5.9-0.6-8.9,0c-5.6,1.4-11.4,1.4-16.3,1.3c-0.9-1.4-1.9-3-2.7-4.2c3.8-16.4,5.3-41.1,27.5-41.3
	c16.9,4.9,18.9,18.9,16.9,33.8c-1.4,21-4.1,41.6-4.4,62.7c3.8-0.6,3.4-3.9,3.8-6.6c1.1-15.3,1.9-31,5.2-46.2
	c4.5-1.9,9.9-0.9,14.6-2.3c0.3,16-6.4,31.4-18,41.3c5.5,2.2,9.1-3.4,11.6-7.4c7.8-12.8,10.8-24.6,8.8-34.7
	c8.1-3.3,17.8-4.2,27.7-2.8c-4.5,6.1-12.4,8.1-19.4,10c1.9,3.8,5.8,5.5,9.2,7.5c-3.9,1.4-7.8,2.8-11.6,4.7c0.9,2.5,5.2,3.6,4.8,6.4
	c-3.8,1.1-7.5,1.7-10.8,3.8c1.1,1.7,2.2,3.3,3.4,5c-4.2,1.1-12.8,1.6-8.1,7.4c-0.9,0.5-2.5,1.1-3.4,1.6l-0.6,0.2
	c3.3,5.2-3.8,7.2-6.4,10.5c-8.3,1.9-16.6,3.1-24.7,6.3C1511.2,944.2,1513.5,931.4,1515.5,918.4L1515.5,918.4z M1478.6,929.5
	c-0.6-9.1,2.3-17.8,3.6-26.9c8.9,4.8,18.1,0.2,27.4,0c1.4,4.4,4.8,17.5-3.4,25.3C1499.1,935.6,1486.4,934.7,1478.6,929.5
	L1478.6,929.5z M1476.1,934.5c2.3,0.6,4.5,1.6,6.4,2.3c-0.5,2.3-0.3,4.7,0.6,7c3.6,0.5,2.3-3.9,2.8-5.9c1.4,0.2,3.9,0.2,5.5,0.3
	c-1.3,4.5-2.5,9.5-3.6,15.5c-1.9-1.7-3.9-4.2-3.4-7.5l-0.2-0.5C1478.9,945.3,1475.3,939.7,1476.1,934.5L1476.1,934.5z M1465.5,932
	c1.9-8.4,4.5-17.1,6.9-25.2c2.3-7.8,4.7-16,6.7-24.1c0.9-5,1.3-12-3.1-16.7s-11.3,0.3-16-3c-2.3-1.3-0.8-4.4-0.6-6.6
	c1.6-7.2,2.8-14.6,6.4-21c2.3-4.4,8.1-5.3,12.4-3.6c8.1,2.7,14.9,9.5,20.8,20.7c-5.5,3.3-11.1,7.5-13.5,14.1
	c-3.8,10.6-5.5,22.1-7,33c-0.8,5.2-1.6,10.5-2.5,15.8c-0.8,7.2-1.1,14.6-3.1,21.7C1470.2,935.5,1467.8,933.8,1465.5,932L1465.5,932z
	 M1444.5,929.2c3.8-21.3,8.4-41.8,12.2-63.1c5.8,1.3,11.6,1.3,17.5,2c1.9,4.8,2.2,10.2,0.8,14.9c-1.7,6.7-3.8,13.3-5.8,19.9
	c-2.7,8.9-5.5,18.3-7.7,27.5C1456.4,928.6,1450.6,928.1,1444.5,929.2L1444.5,929.2z M1439.7,924.8c0-6.7,1.1-13.5,2-19.9
	c0.9-5.5,1.9-11,2-16.6c2.7-13.6,3.6-27.5,4.5-41.1c1.4-22.4,4.1-44.6,4.8-67.1c-0.5-11.3,0.8-22.4,1.6-33.3
	c0.8-9.2-0.6-18.5,1.1-27.5c2.3-11,2.8-22.8,9.4-32.4c2.8-3.9,1.9-8.8,2-13.1c3.3,0.3,2.8,5.2,4.2,7.5c6.7,1.3,13.1-0.5,19.9-0.5
	c24.1,1.1,48.3,0.8,72.1,6.3c1.3-3.3,3.1-6.1,5.3-8.3c-0.2,7.8,2.2,15.3,2.5,23.2c1.4,18.6,4.1,37.1,2.7,55.9
	c-1.1-1.7-2.2-3.4-3.3-5c0-4.2-1.4-7.7-4.4-9.9c-2.8-1.3-5.9-0.3-8.8-0.2c-0.6-5.5-0.9-11-2-16.4c-1.9,5-1.3,10.5-0.6,15.6
	c-3.6-1.9-7.5-1.9-11.4-2c-2.3,2.2-4.8,4.4-7.2,6.6l-0.2,0.2v0.2c-0.2,2.3-0.3,5.3-0.5,8.1c0.9,1.1,2.2,2.8,3,3.8
	c-1.7,4.7-1.9,11.7-7.7,12.8c-3.9,1.4-7.5,3.6-11,5.8c-5.6,3.4-11.6,7.2-18.6,6.9c-8.9-0.2-15.2-7-21.7-12.2c-0.3,1.3-0.8,3-1.1,4.1
	c8.1,8.6,20.5,12.5,31.3,9.9c5.2-0.9,9.7-3.9,13.9-6.6c5.3-3.4,10.5-6.7,16.9-6.9l3.8,3.4c-3.8,5.8-3.6,12.7-5.9,18.9
	c-4.7,12.5-14.6,23.2-26.9,29.1c-6.6,3-13.8,1.3-20.8,1.3c4.2,5.5,11.6,4.8,17.5,4.1c8.6-1.6,16-7.4,23.6-16.3
	c10.2-0.5,13.5-9.1,18.8-16.6c5-7.5,10.3-15.2,13.8-23.8h5.9c1.4-1.3,2.8-2.5,4.5-3.4c0.8,9.7,0.9,19.4,2.7,29.3
	c-5.9,2.8-13.8,8.1-18,16.9c-11,25.5-10.6,53.8-22.4,79c-2.2-0.2-4.4-0.2-6.6-0.3c0.9-0.9,2-1.9,2.3-3.4l-2.3-1.4V885
	c1.9,2,3,3.9,3.8,5.9l1.1,1.6c4.8-2,0.2-5.8-1.1-8.8c2.2-0.9,4.4-1.7,6.6-2.7c-1.4-3.1-3.9-5.5-6.4-7.7c-2.2-2-4.5-4.1-5.9-6.7
	c-5.5-9.5-15.8-15.6-26.1-15.3c-5.8-11.3-14.2-24.3-29.6-24.1c-3.3-0.2-7.2,0.9-10,4.4c-4.5,6.6-6.1,14.6-7.8,22.1
	c-4.5,21.7-9.5,43.2-13.3,65.2C1441.4,920.8,1440.6,922.8,1439.7,924.8L1439.7,924.8z M1531.3,874.5c2.2,1.4,4.2,2.8,6.3,4.5
	c-2,0.6-4.1,1.3-6.4,1.7C1531.2,878.7,1531.2,876.7,1531.3,874.5z M1561.5,747.9c3.6,4.5,9.9,7.4,10.5,13.6c0.9,3.1-0.8,5.9-2,8.6
	c-5.6,1.1-8.9-3.3-12.2-7.2c1.6-3.1,3.4-6.1,3.9-9.7c-0.5-3.1-2.2-5.8-3.6-8.4c4.5-1.6,8.6,0.9,10.5,5.2
	C1566.5,749.3,1563.9,748.5,1561.5,747.9L1561.5,747.9z M1549.8,777.8c-2.5-3.8-6.1-8.1-11.4-8c0.9-2.8,1.7-5.6,2.3-8
	c8-0.9,17.2,2,20,10.5c-4.5,7.2-8.4,14.6-13.5,21.6c-1.1,1.4-2.2,3.1-3.1,4.7c-2,3.1-4.1,6.4-7,8.8c0.9-4.4,3.6-8,4.8-12.2
	c1.6-4.8,2-9.9,2.8-14.9c1.6-0.8,3.1-1.4,4.7-2.2L1549.8,777.8L1549.8,777.8z M1538.2,751c1.9-3.3,3.8-6.9,7.2-8.6
	c2.3-0.3,4.7,0.2,7,0.3c1.9,3,4.2,5.8,5.6,9.1c0.8,3.3-1.7,6.4-3.4,9.1c-3.6-0.8-7.7-1.3-12.7-1.7
	C1540.7,756.5,1539.5,753.7,1538.2,751L1538.2,751z M1336.7,919.1c1.6-5.6,5.6-14.9,14.7-18.9c9.1-3.8,19.7-2.3,27.4,3.4
	c-5.8,3.6-12.7,7.8-12.5,15.8c1.9-1.4,3.6-3,5.3-4.5c8.9-8.6,16-11.4,28.6-8.4c-2.3,5.3-5.5,8-9.5,8.3c-1.9,2.3-3.3,4.5-4.7,7
	c5.3-4.2,13.1-7.4,19.6-2c-0.9,2-2,4.5-3,7.2c-2,1.6-4.1,3.3-5.9,5c5.8,0,11.3,0.6,15.8,2c-0.2-2.7-2.2-4.1-4.1-5
	c-1.4-0.8-2.8-1.6-3.1-3c3.3-4.7,9.4-2.3,14.2-2.7c-1.7-2.5-4.2-5.6-8.1-4.8c-4.5,0.6-7.4-3.9-11-5.9c10-8.9,14.2-6.1,25.8-3.8
	c-2.3-3-5.3-5.5-8.8-6.7c1.7-11.3,11.6-22.7,23.5-20.3c-0.2,8.6-3.1,16.7-3.4,25.3c-0.3,8.4-2.3,16.6-3.4,24.9
	c-8,2.3-14.7,8.6-19.2,17.8c-6.6-3.8-14.4-3.8-20.7,0.2C1382.9,927,1364.6,910.4,1336.7,919.1L1336.7,919.1z M1299.3,953.3
	c7.4-31.8,12.7-63.2,20.3-95c3.3,6.1,9.2,10,16.1,10.8c6.9,4.8,12.5,11.6,17.2,17.7c5.9,7.8,16.6,4.4,24.7,7
	c0.8-1.3,1.7-2.5,2.8-4.2c3.9,2,8.3,4.5,13,2c-5.2-4.4-12.5-5.2-17.1-10.2c-4.1-4.1-5.2-9.9-9.1-14.1c2.7-1.9,5-2.5,7.2-1.6
	c4.5,1.7,8.3,4.8,11.9,7.8c5.3,4.2,11.9,10.6,19.2,7.2c4.4-1.9,8.3-6.6,9.9-11.6c-4.1,2.3-7.8,5.2-11.4,8.8
	c-7.7-0.3-12.8-6.4-18.6-10.6c1.3-3.4,2.5-8,2.5-12.7c0.2-0.8,0-1.4-0.5-1.9c-1.1-1.3-3.3-1.4-4.7-1.6c-9.4-0.9-18.8-1.1-28.3-1.3
	c0.2-1.1,0.3-2,0.3-3c-1.9,0.2-3.8,0.5-5.6,0.6c0.2-1.3,0.5-3,0.6-4.1c-3.3-3.4-6.4-7-9.9-10.3c1.7,3.8,3.6,6.9,6.7,10.2
	c-0.6,0.5-1.3,0.9-1.9,1.6c-4.1-4.4-9.1-7.7-13.8-11.4c1.7-2,3.4-4.2,5.2-6.3c-2.8,1.7-5.6,3.3-8.6,5c-0.5-1.3-1.3-3-1.6-4.1
	c0.5-5.3,0.9-10.6,1.3-16c0.5-5.3,0.9-10.5,1.3-15.8c0.6-7.2,5.5-12.8,9.4-16.3c-0.3-5.6,4.1-9.5,8-11.7c4.1,4.1-1.1,8.9-2.8,13
	c16.3-2,32.1,1.7,48.2,1.7c3-3.4,5.8-7.4,10.5-7.8c0.5,4.7-2.5,8.4-5.3,11.6c19.9,23.5,32.2,54.8,36.1,90.6
	c-8.8,3.1-17.7,11.6-17.2,23c-5,0.9-9.5,2.2-13.5,3.9c-3.6-2.7-7.8-2.8-11.9-3c-2.2-0.2-4.5-0.2-6.7-0.6c-9.2-7-21-9.4-30.5-6.1
	c-11.9,3.6-18.5,15.5-20,25.7c-4.7,3.6-9.4,7-13.3,11.6C1313.1,939.4,1308.1,948.3,1299.3,953.3L1299.3,953.3z"/>
<path d="M1399.5,612.6c2.7-1.4,5.6,2.8,3.4,4.8C1400.2,618.8,1397.1,614.6,1399.5,612.6z M1411.5,619.1c-2.7,1.3-4.7-3-3-5
	C1411.3,611.9,1414,617.6,1411.5,619.1z M1422.6,619.3l0.2-0.2c2.8-1.1,3.8,0.3,2.8,3C1423.1,623.2,1421.4,622.3,1422.6,619.3z
	 M1361.9,625.4c0.2,3.3,1.1,6.4,3.1,9.2c3.6-1.9,6.1-4.5,7-7.8l3.4-2.2c-1.7,5.2-3.4,11.9-9.4,14.1c-5.8,0.2-6.6-6.9-7.2-11
	c0.5-0.3,0.9-0.6,1.4-1.1C1361,626.2,1361.4,625.9,1361.9,625.4z M1377.2,633.2l1.1-0.8c-1.6,6.1-6.9,10.5-13.6,11.3
	C1368.3,639.6,1372.7,636.5,1377.2,633.2z M1431.7,641.5c-0.6,1.1-1.1,2.3-1.7,3.4c-1.6-0.6-3.8-1.6-5.3-2.2l5.2-2.8
	c-1.1-2.3-2.3-5-3.3-7.2c2.5,2.3,4.4,5.5,7.5,7c1.1-1.7,2.5-3.8,3.8-5.8C1439.8,638.4,1436.5,643.1,1431.7,641.5z M1338,647
	c0.9,3.9-1.3,7.2-6.4,9.5l-0.9,0.5C1332.2,653.2,1333.4,648.2,1338,647z M1343.1,655.3c-1.4,1.9-2.8,3.9-4.7,5.8l-0.3,0.2
	c-1.1-0.8-2.5-1.6-3.6-2.3c1.7-1.9,3.4-3.9,5.2-5.8C1340.6,653.7,1342,654.6,1343.1,655.3z M1448,666.4c-2.8,1.9-5.9-3-3.6-5.2
	C1447.2,659.2,1450.5,664.2,1448,666.4z M1317.3,678.7c2.8-7,7.8-12.4,12-16.7c0,6.7-3.9,14.6-11.3,16.6L1317.3,678.7L1317.3,678.7z
	 M1446.4,672.8v0.3c-2.7,0.6-6.9-1.9-6.6-5C1442.5,666.4,1446.9,670.1,1446.4,672.8z M1376.5,669.4c1.6,1.4,3.4,2.8,5,4.2
	c5.9,0.5,12-0.3,18-1.3c-2.5,4.2-6.9,5.8-11.6,5.6c-4.4,0-8.8-1.3-11.9-2.3C1376.1,673.9,1376.3,671.1,1376.5,669.4z M1334.4,670.6
	c-0.3,6.7-5.3,13-11.6,14.6c1.4-5.5,5-10,10.8-14.1L1334.4,670.6L1334.4,670.6z M1643.4,674.8c2.2-0.6,4.5-1.3,6.9-1.9
	c0.9,3.6-2.2,4.5-4.7,5.5C1644.9,677.3,1644,675.9,1643.4,674.8L1643.4,674.8z M1403.8,674.7c5.3,2.8,11.1,0.5,16.6,0
	c-3.1,3.9-7.5,6.1-12.2,6.1c-1.6,0-3.3-0.3-4.7-0.8C1403.7,678.4,1403.7,676.2,1403.8,674.7L1403.8,674.7z M1435.3,676.4
	c-1.1,2.3-3.1,4.1-5.8,4.7c-3.4,0.6-7.4-0.5-10-3l3.4-2.8C1426.7,677.6,1431.1,676.9,1435.3,676.4z M1340.6,679.7h0.6
	c-2,5.3-6.9,9.4-12.5,10.2C1331.4,685,1335.2,679.2,1340.6,679.7z M1402.7,686.1c-4.2-0.5-10.3,1.1-10.6-5.2c3.6,0.5,7,0.9,10.6,1.3
	V686.1z M1391.8,686.9c-5,3.4-13,2-13.3-4.8c3.6,2.5,7.8,4.2,12,4.7L1391.8,686.9z M1412.9,683.3c4.4,1.3,8.8,1.7,13.1,1.4
	c-2.2,5.5-8,5.3-13.3,3.6L1412.9,683.3L1412.9,683.3z M1443.1,685.2l-0.2-0.5c4.5-1.1,5.9,3.8,7,7
	C1446.7,690.8,1444.4,688.6,1443.1,685.2z M1414.6,693l1.1,0.8c-4.8-0.2-12.2,2.3-13.9-4.2C1406.8,689.5,1411.3,690.6,1414.6,693z
	 M1447,698.1l0.3,0.9c-4.2-2.5-7.4-6.1-8.9-10.5C1442.6,690.3,1445.9,693.8,1447,698.1z M1467,689.7l-0.2-0.6
	c3.4,0.5,6.4,2.7,8.3,5.9C1471.1,695.2,1467.7,693.1,1467,689.7L1467,689.7z M1472.5,703c-3.4-1.7-7.4-3.1-9.1-6.9
	c3.1,0.8,6.3,1.7,9.1,2.7V703z M1490.2,697l0.3-2.2l0.6,1.1c2,3.6,0.5,10.3,5.5,11.4c4.4-1.7,2.3-8.1,3.8-11.9
	c2.2,2.7,3.3,6.6,2.5,9.9c-0.6,3.3-4.1,6.9-7.5,6.1c-2.2-0.8-3.4-3.6-4.4-5.9C1489.4,703,1489.7,699.9,1490.2,697L1490.2,697z
	 M1517.3,714.9c1.7,6.4,8.1,11,15.6,10.6c4.5-2.3,6.1-7,6.6-9.9c-5.2-0.5-10.8-0.8-14.7-4.7c-0.2-6.6,8.6-5.3,13.1-4.5
	c-1.6-1.7-3.3-2.8-5.3-3.6c0.9-0.6,2-1.4,3.1-2c-1.3-1.9-4.4-2.3-6.1-3.8l-1.1-0.8c3.3,0.3,6.6,0.5,9.7,0.9v6.6l1.3-0.6
	c1.1,7.7,3.6,16.3-0.6,23.3c-6.7,4.2-16.3,0.2-20.7-3.1c-2,1.3-4.1,2.3-6.1,3.6c1.7-3.6,3.8-7,4.8-10.6L1517.3,714.9L1517.3,714.9z
	 M1446.4,705.8l0.8,1.1c-5.3-1.3-10-5.2-13-10.3C1439,698.3,1443.1,701.3,1446.4,705.8z M1549.5,702.4c1.7,3.3,3.4,6.6,7.5,6.7
	c0.6-3.8,1.3-7.5,2-11.1c1.3,3.8,1.1,7.7,0.8,11.4c-1.6,1.7-3.3,3.4-4.8,5.2c-6.7-3.1-7-10.2-7-15
	C1548.4,700.5,1549,701.6,1549.5,702.4L1549.5,702.4z M1393.2,707.5l0.3,0.5c-4.4,2.2-8-1.7-9.2-6.3
	C1387.7,702.5,1390.5,704.2,1393.2,707.5L1393.2,707.5z M1474.7,708.5c-4.2,0.6-8.3,0.6-11.7-3l-0.5-0.5
	C1467,703.8,1471.7,705,1474.7,708.5z M1490.7,714.3c-4.1-0.6-10.2-5.5-6.6-9.9C1486.4,707.7,1488.5,711,1490.7,714.3z
	 M1587.4,826.8c5.2-2.2,3.3,6.6-0.2,6.4c-1.1,0-1.9-0.9-2-1.9C1584.9,829.8,1586.1,827.6,1587.4,826.8z M1602,831.5
	c-1.1,0-1.9-0.9-2-1.9c-0.3-1.6,0.9-3.8,2.2-4.5C1607.3,822.9,1605.4,831.7,1602,831.5z M1354.1,718.2l0.8,1.1c-5,2.2-7-2.8-9.1-6.4
	C1349.7,712.2,1352.2,715.4,1354.1,718.2L1354.1,718.2z M1314.5,716.4c3,1.1,4.2,3.9,5.2,6.7C1315.9,722.9,1312.6,720,1314.5,716.4z
	 M1336.1,724.1c-2.8,0.3-4.4-4.1-2.7-6.1C1337,715.2,1340,723,1336.1,724.1z M1494.7,791.2c-0.8,3-7.7,2.5-6.3-1.4
	C1489.9,787.8,1495.1,787.9,1494.7,791.2z M1373.6,826.9c0.9-1.1,1.9-2,2.8-3.1c-0.8-1.3-1.7-2.7-2.5-3.8c7.7,0.5,14.4,0.6,21,0.3
	c-0.5,3.9,0.2,8.1-2.2,11.6c-2.2,0-4.2-0.9-6.3-1.4c-0.9,0.6-2.7,1.7-3.6,2.3l-4.5-4.2c-3,1.9-6.6,1.4-9.4-1.4
	c-1.1,0.3-2.7,0.6-3.8,0.9c0.8-0.8,2-1.6,2.3-2.7c-3.9,2.7-12.8,7.4-20.3,2.8c-4.1-7.4-1.6-15.6-0.5-23.3l1.3,0.6v-6.6
	c3.3-0.3,6.4-0.8,9.7-0.9l-1.1,0.8c-1.7,1.4-4.8,1.9-6.1,3.8c1.1,0.8,2.2,1.4,3.1,2c-2,0.8-3.9,2-5.3,3.6c4.5-0.8,13.3-2.2,13.1,4.5
	c-3.9,3.9-9.5,4.2-14.7,4.7c0.6,3,2.2,7.7,6.6,9.9c5.3,0.2,10.3-2,13.3-5.8v-0.9c0.3-1.1,0.3-2,0.2-3.1c0.5,0.2,1.1,0.2,1.7,0.3
	l0.5-1.3l0.3,1.4c2,0.3,3.6,0.6,5.3,0.8c-1.3,0.8-2.7,1.9-4.1,2.8C1371.6,823.3,1372.5,825.2,1373.6,826.9L1373.6,826.9z
	 M1393.4,813l-0.2,0.2c-4.5-2.8-6.9-8.3-6.4-14.1c2.3,2.8,4.2,5.8,6.6,8.6c3.1,0.3,4.5-3.1,6.4-5.2
	C1400.4,806.7,1398.4,810.2,1393.4,813z M1340.2,805.3l-0.2,0.2c-3.3-2-4.7-5.9-4.4-9.9c1.6,1.9,3,4.1,4.5,5.9c2,0.2,3-2.3,4.4-3.6
	C1345,800.9,1343.6,803.4,1340.2,805.3L1340.2,805.3z M1574.5,864.9c-3.1,0-3-4.7-0.9-6.1C1577.7,856.9,1577.7,864.6,1574.5,864.9z"
	/>
<path d="M1595,834.3c-0.5,1.3-0.9,2.5-1.4,3.6c1.9,3.9,3.6,8.4,8.3,9.7c0.8-3.8,1.1-7.5,1.1-11.1c3,0,6.3-0.6,8.6-3.1
	c-3.3,0-6.7,0-10-0.2c-1.1-1.7-2-3.8-3.8-5L1595,834.3L1595,834.3z M1597.4,836.1c1.1-1.4,1.6-1.6,2.2-0.3c0.8,1.7,0.8,5.3-0.2,6.9
	h-0.2c-0.3-1.9-0.8-3.8-1.6-5.5L1597.4,836.1L1597.4,836.1z M1534,905.6c2.7-0.8,5.6-1.9,8.6-2.5c-0.5,2.5-3,5.6-5.6,5.6
	C1536,908.7,1534.5,907.9,1534,905.6z M1561.4,865.4c-2.5,0-3.6-4.4-1.6-5.8C1563.6,857.1,1565.5,865.2,1561.4,865.4z M1531.7,916.7
	l0.3-4.8c1.9,0.3,3.9,0.6,5.9,1.1c-0.6,3-3.4,3.3-5.8,3.6L1531.7,916.7L1531.7,916.7z M1532.6,918.9c2.2,0.2,3.6,2.7,1.9,4.4
	c-0.5,0.8-1.3,1.3-2.2,1.3c-1.1,0-2.2-0.8-2.7-1.7C1529,921.1,1530.7,918.7,1532.6,918.9L1532.6,918.9z M1499.1,911.4
	c0.2,2.8,0,5.9-0.9,8.9C1493.3,918.4,1495.1,913.1,1499.1,911.4z M1491,911.2c0.8,2.7,1.7,5.5,0.9,8.4
	C1487.1,918.7,1487.4,913.6,1491,911.2z M1512.9,882l-0.3,0.3c-1.6-1.4-3-3-4.5-4.4c0-2.2,0.2-4.4,0.2-6.6c0.8,0.2,1.7,0.2,2.5,0.3
	c0,1.4-0.2,3.9-0.3,5.5c2.8-0.9,5.5-2,8.3-2.8C1517,877.1,1514.8,879.9,1512.9,882L1512.9,882z M1477.1,846.8
	c-0.5,1.1-0.9,2-1.4,3.1c-3.8,0.3-7.2-1.9-9.1-5.2c2,0.6,4.1,1.3,6.3,2.2l2.5-5c0.8,0.6,2,1.6,2.8,2.2
	C1477.8,844.9,1477.5,845.8,1477.1,846.8L1477.1,846.8z M1412.8,831.9c-1.1,0.5-2.2,0.2-2.8-0.6c-1.7-2.2,1.3-5.2,3.6-4.4
	C1416.4,827.8,1414.8,831,1412.8,831.9L1412.8,831.9z M1389.6,833.2c-3.6,4.5-8.3,3.3-13.3,3.1c-6.1-0.5-12.8-1.3-16.6-6.7
	c2.7,0.6,5.5,1.3,8.1,2C1374.9,833.5,1382.2,835.2,1389.6,833.2L1389.6,833.2z M1481.6,847.1c-1.1,4.5-1.3,9.1-1.7,13.5
	c2.8-0.2,5.8-0.2,8.6-0.2v-2h1.4c-3.4-6.1,11.1-5.3,3.3-11.7c0,3.9-2.2,4.2-5.8,3.8C1485.8,848.6,1484.7,845.5,1481.6,847.1
	L1481.6,847.1z M1483.8,858c0.2-2,0.3-4.1,0.6-5.9c1.7,0.9,3,3.1,3.4,6.1C1486.8,858.2,1484.9,858,1483.8,858L1483.8,858z
	 M178.1,928.7l-4.8-2.7c38.5-18.3,97.4-26.3,170.5-23.1c49.3,2.1,89.8,8.7,98.1,10.1c63.3-18.4,117.7-16.4,152.2-11.5
	c31.7,4.5,52.6,12.1,59,14.7c70.6-22.1,142.8-5.8,153.7-3.2c136.1-22.3,182.6-8.8,195.8-2.3c11.7-11.2,64.9-25.3,76.5-28.3l3.1,3.6
	c-28.4,7.3-73.9,21.6-74.4,28.6l-0.6,6.3l-6.2-5.3c-0.4-0.3-31.7-25.3-193.4,1.4l-1.5,0.2l-1.3-0.4c-0.7-0.2-76.6-20.4-150,3.4
	l-2.2,0.7l-2-0.9c-0.2-0.1-22-9.6-58.3-14.8c-33.6-4.8-86.5-6.7-148.3,11.5l-1.5,0.4l-1.5-0.3C439.4,916.5,267.6,886.1,178.1,928.7
	L178.1,928.7z M1231,927.9c0.6-0.2,1.2-0.2,1.8,0c0.5,0.2,0.9,0.5,1.4,0.7l-5.1-3.6C1229.7,926,1230.3,927,1231,927.9L1231,927.9z"
	/>
<path class="st3" d="M1096,960.2c0.2-8.6,0.1-17.3-1.2-25.8c-1.9,3.2-3.7,6.3-5.5,9.6c-1.3-0.1-1.5-0.2-2.8-0.3
	c-2.4-7.8-4.6-15.7-3.6-24c-3.2,0.1-6.3,0.3-9.5,0.4c7.9-10.9,14.2-23.6,15.1-37.2c1.1-12.7,6.2-25.1,4.3-38
	c-1.9-7.6-5.6-14.7-7.3-22.4c-5.1-24.3-4-49.4-1.1-74c-4.2-5.1-12.4-4.6-18.6-5.7c0.5-1.1,1.4-3.4,1.9-4.5c-2.9-2.8-7.3-4.9-8.1-9.2
	c-0.1-0.7-0.3-1.4-0.4-2c-3.5-7.7-4.4-18-3.8-29c-0.9-15,0.2-30.1,3.9-44.7c2.8-8.9,7.2-17,12.5-24.5c1.5-2.1,3-4.1,4.7-6
	c-0.8-4.8-1.5-9.6-1.2-14.6c0.1-1.1-0.2-1.9-0.6-2.6c0.8-0.2,1.6-0.4,2.3-0.6h0.1c-0.5-4.8-1.3-9.6-1.9-14.4c2,1.9,4,3.7,6,5.4
	c4.1,3.5,10.1-2.5,6-6c-9.9-8.4-18.5-18.2-26.2-28.6c-5.3-7.2-10.3-14.6-14.8-22.3c-0.5-2-0.9-4-1.4-5.9c0.6-0.9,0.8-2,0.4-3.4
	c-0.8-2.2-1.5-4.4-2.1-6.6c-0.2-1.5-0.3-2.9-0.3-4.4c-0.3-0.1-0.6-0.2-0.9-0.4c-2.5-9.9-4-20.1-4.7-30.3
	c4.2-11.8,10.4-23.2,13.3-35.4c0.5-2-0.4-3.6-1.8-4.5c4.2-4.3,8.1-8.7,10.4-14.3c6.8-14.1,3.6-30.1,6.4-45c0.6-3.8,1.8-7.4,3.2-11
	c-0.4-0.3-0.8-0.5-1.2-0.8c0.1-1.3-0.1-2.6-0.5-3.9c-0.1-0.2-0.2-0.4-0.2-0.6c-1.1-1.6-2-3.8-2.6-4.9c0-0.1-0.1-0.2-0.1-0.3
	c0,0,0.1-0.1,0.2-0.1c-0.1,0-0.1,0-0.2,0.1l-0.6-1.2c-0.5-0.7-1.1-1.3-1.7-2c-1.3-1.3-2.6-2.4-3.3-3.3c-1-1.2-1.9-2.5-2.7-3.8
	c-0.6-2.4-1-4.8-1.4-7.3c-0.9-1.9-1.5-4-2-6.1c-1.4-7.6-1.2-16.7,2.9-23.5c2.4-9.5,7.2-18.2,15-24.9c0.2,0.1,0.5,0.2,0.7,0.3
	c-0.2-0.1-0.3-0.2-0.5-0.4c9.8-1.6,21-5.5,30.3-0.1c4.2,2.1,8.4,4.7,13.2,3.8c1.2,0.6,3.5,1.8,4.7,2.4c3.1,4.2,6.2,8.4,9.2,12.7
	c32.2-16.1,70.1-21.1,105.3-13.2c1.8,1.2,4,1.9,6.8,1.9h0.7c0.9,0.3,1.8,0.5,2.7,0.7v-1.1c2.2-0.6,4-1.7,5.3-3.1
	c4.5-1,7.3-4.1,8.5-7.8c6.2-4.9,13.1-8.9,20.3-12.2c8.1,1.5,17.6,2.6,23.7,8.2c1.6,0.3,2.7,1.2,3.5,2.3c0.4,17.4-3,34.6-5.4,51.9
	c-2.8,3.7-6.1,7.1-10.2,9.7c-4.5,2.9-0.3,10.3,4.3,7.3c1.5-1,2.9-2,4.3-3.1c-0.7,8.5,0.1,17,3.2,25c3.7,9.4,9.3,17.9,14.4,26.7
	c1,1.8,2.7,2.3,4.2,2c3.1,2.8,6.5,5.2,10,7.6c2.5,0.4,5,0.9,7.5,1.3c0.1,1.4,0.1,2.8,0.2,4.1c0.4,0.3,0.7,0.5,1.1,0.8
	c2.4,2,4.9,4.1,7.3,6.2c1.6,4,2.9,8.2,4.2,12.3c-0.2-0.1-0.5-0.2-0.7-0.4c0.3,0.5,0.6,0.9,1,1.4c3.6,12.6,6.1,25.8,7.3,39.2
	c-1,9.3-1.2,18.7,0.1,27.9c-0.2,2.2-0.4,4.3-0.6,6.4c-0.3,2.3-0.6,4.6-1,7c-5.3,11.7-12.5,22.9-22.6,30.8c-4.3,3.4,1.7,9.3,6,6
	c1-0.8,2-1.6,3-2.5c-7.1,8.6-15.6,16.6-18.6,27.7c-0.6,2.2,1,4.6,3.1,5.3c-0.3,2.4-0.7,4.9-0.9,7.3h0.1c1.3,0.4,2.6,0.8,4.1,1.2
	c-0.8,1.3-1,2.8-0.6,4.5c5.6,5.7,10.7,11.8,14.4,18.9c13.7,24.2,16.1,54,7.8,80.3c-1.8,6.3-6.1,11-10.5,15.4c-2.2,3-4.8,5.8-7.7,8.6
	c6.5,26,8.1,53.6,2.9,80c-1.7,10.4-10.1,19.1-8.5,30.1c-0.2,16.5,7.4,31.6,11.6,47.2c2.8,10.5,6.8,20.7,10.3,31.1
	c-3.1-2.7-6.2-5.5-9.3-8.2c0,6.3-0.1,12.5-0.5,18.8c-3.9,6.1-5.2,13.2-5.8,20.3c8.9,0.3,18.4-0.3,26.4,4.5
	c9.2,6,16.9,14.5,21.3,24.5c3.5,15.2,8.6,30.9,4.9,46.5c-8.1,11.9-23.8,13.9-36.5,18.3c-13.7,5-28.4,4.7-42.4,8
	c-25,3.4-47.5-10.4-71.3-15.2c-6.3-7.3-14.8-12-22.3-17.9c-9.9,8.5-19.8,17.7-32.3,22c-17.6,6.2-35,13-53.2,17.4
	c-22.2,4.9-43.7-5-65.4-7.7c-8.5-5.4-22-8.6-23.1-20.5c-0.1-15.9,4.8-31.5,10.8-46.1C1062.2,967.7,1079.1,959.6,1096,960.2
	L1096,960.2z"/>
<path d="M1280.6,394.4c-14.1,8.1-30.2,9.8-45.4,11.5c-5.8-14.1,6.3-11.8,11-13.7c13.9-2.8,26.9-9.5,39.7-16.1
	c2.2-1.4,4.3,0.9,6.3,1.8c0.9,5.1-0.3,10.2-2.6,14.2C1286.7,393.4,1283.3,392.6,1280.6,394.4L1280.6,394.4z M1255.8,539
	c0.1-0.1,0.1-0.3,0.2-0.5C1255.9,538.7,1255.8,538.8,1255.8,539z M1158.7,556.3c7.7,14.9,20.2,27.1,37.4,28.8
	c11.2,0.7,21.3-2.3,29.9-7.8c-9.2,6.9-20.3,10.7-33,10c-16.8-1.7-29.2-13.4-37-28C1157.1,558.4,1158,557.4,1158.7,556.3
	L1158.7,556.3z M1151.1,562.6c-0.1-0.3-0.2-0.5-0.3-0.8c0.9-0.2,1.8-0.5,2.6-0.9C1152.7,561.6,1152,562.1,1151.1,562.6z
	 M1244.3,565.1c-1-0.8-2-1.6-3-2.5c0.7-1,1.5-2,2.1-3.1l0.1,0.1c1.2,1.2,2.5,2.2,3.8,3.2c-5.5,9.2-12.9,17.3-22.3,23.5
	C1233.1,580.6,1239.5,573.3,1244.3,565.1z M1209.3,560.9c-7.9-0.5-17-0.1-23.1-6.2C1194.1,554.4,1204.2,553.5,1209.3,560.9z
	 M1214.2,540.2c-15.6,1.5-31.1,0.9-46.5-1.4c-3.9-0.6-2.2-5.2,1.6-4.6c11.6,1.7,23.2,2.4,35,1.9c6-0.3,12-0.8,18-1.7
	c4-0.5,9.3,0.3,9.2-5.3c0.6-3,6.5-1.7,5.9,1.3C1237.5,541.4,1221.8,538.9,1214.2,540.2z M1166.5,337.6c3.6-0.5,7.2-1.2,10.9-1.5
	C1174.1,337.6,1170.3,337.9,1166.5,337.6z"/>
<path d="M1030,512.5c3.1,1.2,6.3,2.4,9.5,3.6c0.6,13.1,5.9,25.4,7.1,38.4c1.1-0.3,3.3-0.9,4.4-1.3c4.9,7.2,9.6,14.9,14.7,22.2
	c-1,0.2-2,0.3-3,0.5c-0.6,0.5-1.2,1-1.7,1.5c2.2,0.3,4.6,0.3,6.7,0.8c1.5,2,3,4,4.6,5.9c0.6,6.3,1.7,12.5,2.5,18.7h-0.1
	c-0.7,0.2-1.5,0.4-2.3,0.6c0.5,0.7,0.7,1.6,0.7,2.7c-0.3,5,0.5,9.9,1.3,14.7c-1.6,2-3.2,4-4.7,6.1c-5.4,7.6-9.8,15.8-12.5,24.8
	c-3.7,14.8-4.6,30-3.6,45.2c-0.5,11.1,0.5,21.4,4.1,29.2c0.1,0.7,0.3,1.4,0.4,2.1c0.8,4.3,5.4,6.3,8.3,9.2c-0.5,1.1-1.4,3.4-1.9,4.5
	c6.2,1.1,14.5,0.5,18.8,5.7c-2.8,24.8-3.8,50.1,1.6,74.6c1.8,7.7,5.6,14.8,7.5,22.5c1.2,7.7-0.1,15.3-1.5,22.8
	c-2.8,8.7-4.5,17.2-4.3,26.2c-2.6,9.7-7.5,18.8-13.3,26.9c3.2-0.1,6.4-0.3,9.6-0.5c-0.9,8.3,1.3,16.3,3.8,24.2
	c1.3,0.1,1.5,0.1,2.8,0.3c1.7-3.3,3.6-6.5,5.5-9.7c1.3,8.6,1.5,17.4,1.4,26.1c-17.1-0.4-34.1,7.9-45.8,20
	c-5.9,14.8-10.7,30.6-10.6,46.6c1.2,12,14.8,15.2,23.4,20.6c22,2.6,43.7,12.4,66.1,7.3c18.3-4.5,35.8-11.6,53.6-17.9
	c12.6-4.4,22.6-13.8,32.5-22.4c7.6,5.9,16.2,10.6,22.6,17.9c24,4.7,46.8,18.4,72,14.8c14.1-3.5,29-3.2,42.8-8.4
	c12.7-4.6,28.6-6.7,36.7-18.8c3.6-15.8-1.6-31.6-5.3-46.9c-4.6-10.1-12.4-18.6-21.7-24.6c-8.1-4.7-17.7-4.1-26.7-4.3
	c0.6-7.1,1.9-14.4,5.7-20.5c0.3-6.3,0.4-12.6,0.4-19c3.1,2.7,6.2,5.5,9.4,8.2c-3.5-10.4-7.7-20.7-10.6-31.3
	c-4.4-15.8-12.2-30.9-12.1-47.6c-1.8-11.1,6.7-19.9,8.3-30.4c5-26.7,3.3-54.6-3.5-80.7c2.9-2.8,5.5-5.7,7.7-8.7
	c4.5-4.5,8.8-9.3,10.5-15.6c8.3-26.6,5.6-56.6-8.4-80.9c-3.8-7.2-9-13.3-14.7-19c-0.5-1.7-0.2-3.2,0.6-4.5c-1.5-0.4-2.9-0.8-4.1-1.2
	c0,0-0.1,0-0.1-0.1c0.7-6.6,1.7-13.1,2.4-19.7c2.9-3.4,5.9-6.8,8.7-10.3c1.3-0.1,2.7-0.2,4-0.4c-0.6-0.6-1.3-1.2-1.9-1.8
	c-0.1,0-0.1,0-0.2-0.1c2.8-3.5,5.5-7,8-10.8c9.3-22.4,15.4-46.3,14-70.7c1.4-0.1,4.2-0.1,5.6-0.2c-2.6-15.8-8.3-31.3-17.8-44.3
	c3.8,2.1,7.6,4.1,11.5,6c-5.3-9.9-13.9-17.3-22.5-24.3c-0.4-0.3-0.7-0.5-1.1-0.8l-0.3-4.2c-2.5-0.4-5.1-0.8-7.6-1.2
	c-8.2-5.6-16.3-11.5-20.4-20.9c-3.8-8.8-6.4-18.1-9.4-27.2h0.2c-0.4-1.2-0.6-2.4-0.5-3.7c0.1-1.1,0.3-2.3,0.5-3.4
	c0.1-0.4,0.3-0.8,0.4-1.1c-1.1-1.6-1.2-3.7,0.3-5.8c9.7-12.9,15.6-31.8,12.9-48c-0.9-5.5-2.9-10.7-5.4-15.7
	c-1.1,0.1-2.2,0.3-3.3,0.5c-0.3-2.4-1.8-4.5-4.6-5c-6.2-5.6-15.8-6.7-24-8.1c-7.2,3.4-14.2,7.4-20.4,12.4c-1.2,3.8-4.1,7-8.6,8
	c-1.4,1.5-3.2,2.6-5.4,3.1v1.1c-0.9-0.3-1.8-0.5-2.7-0.7h-0.7c-2.7,0-5-0.7-6.9-1.9c-35.5-7.8-73.8-2.5-106.2,14
	c-3.1-4.3-6.2-8.5-9.4-12.8c-1.2-0.6-3.5-1.8-4.7-2.4c-4.9,0.9-9.2-1.7-13.4-3.7c-9.4-5.4-20.6-1.4-30.6,0.3
	c0.2,0.1,0.3,0.3,0.5,0.4c-0.3-0.1-0.5-0.2-0.7-0.3c-7.8,6.8-12.6,15.6-14.9,25.3c-4,6.9-4.2,16.1-2.7,23.8c0.4,2.2,1.1,4.2,2,6.2
	c0.4,2.5,0.9,4.9,1.5,7.3c0.9,1.3,1.8,2.6,2.8,3.8c0.7,0.9,2.1,2,3.4,3.3c0.7,0.7,1.2,1.3,1.7,2l0.6,1.2c0.1,0,0.1,0,0.2-0.1
	l-0.1,0.1c0.1,0.1,0.1,0.2,0.1,0.3c0.6,1.1,1.6,3.3,2.7,5c0.1,0.2,0.1,0.4,0.2,0.6c0.4,1.3,0.6,2.6,0.5,3.9c0.4,0.3,0.8,0.5,1.2,0.8
	c-1.4,3.6-2.6,7.2-3.1,11.1c-2.7,15.1,0.6,31.2-6.2,45.5c-4.3,10.4-13.9,17-20.7,25.6l8.8-0.4c-2.9,4.9-5.6,10-7.9,15.2
	C1033.6,483.1,1029.3,499.5,1030,512.5z M1306.8,315.3v-0.2c0.1,2.2-0.1,4.4-0.5,6.6c-0.1-0.6-0.1-1.2-0.3-1.7
	C1305.6,318.1,1306,316.5,1306.8,315.3L1306.8,315.3z M1315.9,409c-5.1-0.9-10.3-1.8-15.4-2.5c-7.2-0.9-14.5-1.4-21.8-0.8
	c-9.4,0.6-18.6,2.2-27.8,3.8c-9.4,1.7-18.5,4.6-27.9,6.5c-6.2,1.3-34.8,4.8-41.3,4.9c-1.4-0.1-2.7-0.1-4.1-0.2
	c-11.8-0.9-23.4-3.2-35.1-5c3.1-0.8,6.3,0.4,9.4-0.1c3.1-2.7,5.1-6.3,5.1-10.2c-1.9-1.1-3.7-3.1-6.2-2.5
	c-14.2,2.7-28.7,5.5-43.4,5.2c-5,0.6-16.6-3-13.9,7.4c-2.8,0.5-5.5,1-8.3,1.6c-6.9,1.6-13.4,4.3-20.3,5.6c-0.8,0.1-1.6,0.3-2.4,0.6
	c3.3-14.7,2.2-31.4,6.3-46c-0.1-1.1,0.2-2.3,1-3.5c0.7-1,1.2-2,1.6-3c-0.4-0.8-0.7-1.5-1.1-2.3c2.6-1.4,5.1-3.3,6.5-4.2
	c2.2-1.5,4.3-3.1,6.5-4.7c1.9-1.4,5.9-3.2,6.8-5.3c0.2-0.5,0.4-0.9,0.5-1.1c-0.2-0.7-1.7-1.9-2.9-2.8c0.1,0.1,0.1,0.2,0.2,0.3
	c-0.3,0-0.7,0.1-1.1,0c-2.3-1.3-4.2-3-5.9-5c0.9,1.9,2.1,3.6,3.5,5.2c-0.8,0-1.7-0.1-2.5,0.1c-3-2-5.7-4.5-7.8-7.5
	c-1.3-1.6-2.2-3.6-3.5-5.3c0.3,4.3,2.3,8.1,4,12c-8.7-7.1-11.8-18.7-13-29.4c-1,4.7-0.3,9.6,0.1,14.4c-3.2-7.2-3.1-15.4-1.5-23
	c-0.2-0.7-0.3-1.4-0.5-2.1c-0.2,0.3-0.4,0.5-0.6,0.8c2-4.5,5.1-8.5,9.8-11.4c1.5-1,3.1-1.1,4.4-0.7c11.4-5.2,28.4-1.4,36.8,8.1
	c1.1,0.4,2.3,0.8,3.4,1.3c0.8,0.3,1.4,0.7,1.9,1.2c0.5-0.9,0.9-1.7,1.3-2.3c1.5,4.8,3.3,9.5,5.4,14c0.9-0.9,2.2-1.4,3.8-1.4v-4.8
	c8.1-5.3,17.6-7.8,27.2-9.1c0.5,0.6,0.9,1.1,1.4,1.7c2.3-2,5.2-3.5,8.8-4.4c1.7-0.4,3.4-0.6,5.1-0.7l-0.6-0.3
	c22.9-5.5,47.3-6.2,70,0.6c0.3,1.8,0.7,3.5,1,5.3c0.9-0.7,2.2-1.2,3.7-1.2h0.5l1.2-3.9c1.4-0.1,4.1-0.4,5.4-0.6
	c0.2-1.5,0.7-4.6,0.9-6.1c8.4-7.4,16.3-18.7,28.9-17.8c5.1-0.5,9.8,1.2,14.1,3.7c-0.2,0.1-0.3,0.3-0.5,0.4c-0.6,0.1-1.2,0.1-1.8,0.1
	c2.1,2.4,4.1,5.1,5.8,7.9c0,0.2-0.1,0.4-0.1,0.6c1.2,1.9,2.1,4,2.3,6.2c-0.9-1.3-1.7-2.6-2.8-3.7c-0.2,0.7-0.3,1.4-0.5,2.1
	c1.6,7.7,1.7,15.8-1.5,23c0.3-4.8,1.1-9.7,0.1-14.4c-1.2,10.7-4.2,22.4-13,29.4c1.7-3.9,3.7-7.7,4-12c-1.3,1.7-2.2,3.6-3.5,5.3
	c-2.1,2.9-4.8,5.5-7.8,7.5c-0.8-0.2-1.6-0.1-2.5-0.1c1.4-1.6,2.6-3.3,3.5-5.2c-1.7,1.9-3.6,3.7-5.9,5h-1.1c0.1-0.1,0.1-0.2,0.2-0.3
	c-1.2,0.9-2.7,2.1-2.9,2.8c0.1,0.2,0.3,0.5,0.5,1.1c0.9,2.1,4.9,3.9,6.8,5.3c2.2,1.6,4.3,3.2,6.5,4.7s7.7,5.6,10.9,6
	c-0.8,0.9-1.6,1.7-2.4,2.6c1.2,0.9,2.4,1.9,3.6,2.8c3.3,9.3,6,18.9,9,28.4C1304,395.8,1309.6,402.8,1315.9,409L1315.9,409z
	 M1147.9,470.4c5.5-2.5,10.9-5.6,16.8-7.1c0.8-0.4,1.6-0.7,2.5-1l0.9-0.3c-0.6,1.5-1.2,2.9-1.8,4.4c-5,4-9,8.8-11.7,14.2
	c-0.4,1.4-0.9,2.9-1.3,4.4c-2.8,2.4-5.8,4.4-9.1,5.9c-10.1,4.8-21.6,5.7-32.5,4.1c-2.6-0.5-5.3-0.8-7.8-1.6c-4.6-1.4-8.9-4-12.3-7.5
	c-3.1-3.2-5.5-7.1-7.1-11.3c-3.5-9.4-6.4-19.1-7-29.2c-0.1-3.5-0.4-7.1,0.8-10.4c1.3-3.8,4.3-6.9,7.8-8.8c5.1-2.9,11-4.1,16.8-5.1
	c10.6-1.7,21.3-3,32.1-2.4c2.5,0.2,5.1,0.4,7.6,0.8c5.8,1,11.6,2.3,17,4.6c4.1,1.7,8.1,4.1,10.7,7.8c2.1,2.9,3,6.5,3,10
	c-6.4,0.6-13-0.9-19.2-2.7c-22.6-6.3-58.8-22.4-69.7,9.7c5.2-3.7,14.2-7.5,17.6,0.5c4.7,10.9,9.1,22.5,20.5,27.3
	c-2.6-3.8-6.2-7-7.4-11.7c4.1,3.8,7.2,9,12.5,11.2c-3.8-5.1-8.6-9.7-10-16.3c4,4.5,7.1,10.2,12.3,13.4c-1.9-3.8-4.6-7.2-5.9-11.3
	c13.3,9.3,20,3.2,33.6,0.8C1154.1,465.4,1150.3,467.1,1147.9,470.4L1147.9,470.4z M1151.1,455.4c-6.8,2.2-14.2,1.6-20.9-0.3
	c-5.9-1.9-11.8-5.2-15.5-10.5c-1.2-1.4-1.7-4.5,0.6-5c2.3-0.6,4.7,0.1,6.9,0.7c8.6,2.4,17.2,5,25.7,7.6c2.3,0.9,5.2,1.5,6.7,3.9
	C1155.1,453.8,1152.6,454.8,1151.1,455.4L1151.1,455.4z M1176.8,454.6c0.6-2.6,1.5-5.3,2.7-7.7c7-3,19.8-6.1,19.8-6.1
	c8.1-0.7,15.4,4.6,18.6,7.5c0.8,2.5,1.5,5.1,2.4,7.6c-3.5-1.2-7-2-10.6-2.5c-12.1-0.9-24.5,1.9-34.7,7.4
	C1175.6,458.8,1176.2,456.7,1176.8,454.6L1176.8,454.6z M1314.4,459.8c-1.2,4.3-2.3,8.6-4.6,12.4c-3.6,6.5-9.8,11.4-16.8,13.6
	c-5.7,1.7-11.7,2.7-17.6,2.9c-8.3,0.3-16.7-1.2-24.2-4.9c-2.5-4.5-5.4-8.7-8.9-12.7c-3.7-4.5-8-8.1-12.6-10.8l-0.3-0.6
	c-0.4-0.8-0.8-1.6-1.1-2.4h0.1c0.9,0.2,1.8,0.6,2.6,1c6.1,1.5,11.8,4.6,17.6,7.1c-2.6-3.3-6.6-5.1-10-7.5
	c14.2,2.3,21.3,8.4,35.3-0.8c-1.3,4.2-4.2,7.5-6.2,11.3c5.5-3.2,8.7-8.9,13-13.4c-1.4,6.6-6.5,11.2-10.5,16.3
	c5.5-2.3,8.8-7.4,13.1-11.2c-1.2,4.7-5,7.9-7.7,11.7c12-4.8,16.6-16.4,21.6-27.3c3.6-8,13-4.2,18.5-0.5
	c-11.5-32.1-49.6-16.1-73.4-9.7c-6.5,1.8-13.3,3.3-20,2.7c0-2.3,0.3-4.5,1.2-6.6c1.5-3.8,4.6-6.8,8-9c5.1-3.2,10.8-5.1,16.6-6.7
	c9.5-2.7,19.6-3.1,29.4-2.7c4.7,0.2,9.4,0.6,14,1c4.8,0.5,9.6,1.3,14.1,2.9c3,1.1,5.9,2.7,8.1,5c2.5,2.6,3.9,6.1,4.1,9.6
	C1318.7,440.4,1317,450.3,1314.4,459.8L1314.4,459.8z M1241.5,446.6c1.6-2.3,4.6-2.9,7.1-3.9c9-2.6,18-5.2,27-7.6
	c2.4-0.5,4.9-1.3,7.3-0.7c2.4,0.5,1.8,3.6,0.6,5c-3.9,5.3-10.1,8.7-16.3,10.5c-7.1,1.9-14.9,2.5-22,0.3
	C1243.6,449.6,1241,448.7,1241.5,446.6L1241.5,446.6z M1244.2,479.4c-2.5-1.9-4.8-4.2-6.8-6.6
	C1239.8,474.9,1242.1,477.1,1244.2,479.4z M1212.9,892.8l1.5,0.5v0.5l-0.3,0.3c-1.7,1.7-1.5,4.3,0,6l0.1,0.1
	c-0.1,4.1-0.3,8.2-0.4,12.4c19.5,1.3,39,3,58.5,5.3c13.4,1.6,27.1-0.3,40.5-2.4c1.4,2.8,2.9,5.5,4.3,8.3c-1.8,6.3-4.1,12.4-6.8,18.3
	l15.3-9.9c2-3.7,4.1-7.3,6.2-10.8c0.4,8.4,0.4,16.8,0.2,25.2c-14.4,6.7-30.4,11.9-40.8,24.8c6.3-0.4,11.3-4.6,16.8-7
	c12.2-5.1,24.4-10.7,37.5-13.1c13.4-0.7,25.6,8.7,31.7,19.9c5.3,16.4,10.5,34.3,5,51.3c-0.7,0.4-1.5,0.9-2.3,1.3
	c-0.6-1.1-1.3-2.3-1.9-3.4c-1.6,0.9-3.3,1.8-4.9,2.7c-0.1,0.1-0.3,0.2-0.4,0.4c-1.1-3.5-2.2-6.9-3.3-10.4c-1.3-4-2.4-8-3.9-11.9
	c-2.5-6.5-6.1-12.9-12.8-15.6c-1.7-0.7-2.4,2.1-0.8,2.8c6.2,2.6,9.3,9.3,11.4,15.2c2.5,7.1,4.7,14.4,6.9,21.7
	c-1.3,0.8-2.7,1.4-4.1,1.9c0.1,0.5,0.2,0.9,0.3,1.4c-4.3,1-8.5,2.1-12.8,3.3c-0.2-0.4-0.4-0.7-0.6-1.1c-4.6,1.1-9.3,1.9-14,2.3
	c0.2,0.8,0.3,1.7,0.5,2.5l-1.2,0.3v-0.2c-1-4.6-2-9.1-3-13.7c-0.9-4-1.5-8-2.8-11.9c-1.2-3.4-3-6.6-5.9-8.8c-2.7-2-6.2-3-9.6-2
	c-1.8,0.5-1,3.3,0.8,2.8c3.1-1,6.3,0.5,8.5,2.7c2.3,2.4,3.4,5.7,4.2,8.8c1.9,7.5,3.3,15.2,5,22.8v0.1c-2.9,0.8-5.9,1.5-8.9,2.2
	c-0.3-0.5-0.5-0.9-0.8-1.4l-3,1.3c-4.7,1.9-9.6,3.4-14.6,3.4c0.3,0.1,0.6,0.3,0.8,0.5c-7.8,0.9-15.9,0.5-22.5-3.9
	c-3.5-0.1-6.1-1.3-8.1-3.1c-2.4-0.8-4.7-1.7-7-2.7c-4.9-0.7-9.7-1.8-14.5-3.1c-14-2.3-25.6-10.9-37-18.8
	C1210.6,972.1,1211.4,932.2,1212.9,892.8L1212.9,892.8z M1319.5,925c-0.1-0.7-0.1-1.5-0.2-2.4c0.4,0.4,0.9,0.7,1.5,0.9
	C1320.3,924,1319.9,924.5,1319.5,925z M1183.8,638.1c-2.3-1.1-4.5-2.4-6.7-3.5c14.8-3.5,29.9-5.7,45.1-5.2
	c6.2,0.8,12.2,2.3,18.2,4.4c7.9,2.8,15.2,6.7,23.3,8.7c1.9,0.4,3.9,0.9,5.9,1.3c3.5,1.9,6.9,4.1,10.1,6.4l-11.1,5.7
	c-4.3,4.8-9.1,9.3-14.4,13c-8.3,5.3-14.1,13.4-22,19.2c-15.7,11.5-31.5,23-47.5,33.9c-5,2.7-10.1,5.3-15.2,7.8
	c0,0-52.9-37.2-53-67.9c6.8-5.6,15-10,22.8-13.5c13.4-6,28.8-10.8,43.9-10.3C1183.4,638,1183.6,638.1,1183.8,638.1L1183.8,638.1z
	 M1246,683.8C1246,683.9,1245.9,683.9,1246,683.8c-0.5,0.6-0.9,1.1-1.2,1.6l-1.6,0.8C1244.1,685.5,1245,684.6,1246,683.8L1246,683.8
	z M1254,676.7c-0.9,1.3-1.8,2.5-2.6,3.9c-0.5-0.1-1.1-0.1-1.7,0C1251.1,679.3,1252.6,678,1254,676.7L1254,676.7z M1279.4,655.7
	c-0.7,0.5-1.4,1.1-2.1,1.6h-0.4C1277.7,656.7,1278.5,656.2,1279.4,655.7z M1283.8,741.8c-5.1,2.3-10.3,3.9-15.7,5.1
	c-13.3,1.5-26.7,2.5-40.1,3.4c-6.2,0.1-12.3,0.2-18.3,0.5c-4.3-1.1-8.6-2-13-2.5c-3.8-0.4-7.7-0.9-11.6-0.9c1.4,1.3,2.2,3.3,2.1,5.3
	c-11.9-0.5-23.7-3.1-35-6.9c5.9-4.1,11.9-7.8,18-11.4c1.8,0.2,5.5,0.6,7.3,0.8c20.6-16.8,43.3-30.7,63.8-47.5h0.1
	C1283.6,666.3,1284.6,722.7,1283.8,741.8L1283.8,741.8z M1209.6,886c-2.7-0.3-5.4-0.7-8.1-1c-0.7-1.1-1.4-2.2-2.2-3.2
	c-0.6-0.8-1.4-1.3-2.3-1.6c0-0.1-0.1-0.1-0.1-0.1c5.5,2.1,11,4,16.7,5.6c2.4,0.7,4.8,1.4,7.3,1.8c-0.7,0.6-1.4,1.3-2.1,1.9
	c-1.4-0.5-2.8-1-4.3-1.5v0.7c-1.7-0.5-3.4-1.1-5.1-1.5C1209.6,886.7,1209.6,886.4,1209.6,886L1209.6,886z M1095.6,921.8
	c0.4-0.2,0.8-0.4,1.2-0.7c1.8,3.5,3.6,7.1,5.5,10.7c12.6-10.2,22.7-23.9,40.7-21.6c21.4,0,42.7,0.6,64.1,1.9
	c0.1,20,2.5,40.1,1.4,60.1c-0.5,12.8,6.2,25.2,3.3,37.8c-6.6,14.2-23.3,17.1-36.4,22.4c-15.8,7-31.6,13.7-48.2,18.5
	c-4.5,0.6-9.1,0.5-13.6,0v-0.2c-1.1,0.1-2.2,0.1-3.4,0.1c-0.3,0.7-1.1,1.1-1.9,0.5l-0.9-0.6c-1.2,0-2.5-0.1-3.6-0.1
	c-1.3,0-1.7-1.4-1.2-2.3c-1-0.4-2-0.7-3.1-1c-0.1,0.1-0.1,0.3-0.2,0.5c-4.2-1.2-8.5-2.2-12.8-3.3v-0.2c-1.2-0.2-2.4-0.5-3.6-0.7
	c0.7-5.4,1.4-10.9,2.4-16.2c0.8-4.6,2.3-10.7,7.3-12.4c1.7-0.6,1-3.4-0.8-2.8c-5.5,1.9-7.9,7.5-9,12.9c-0.8,3.6-1.1,7.3-1.7,10.9
	c-0.3,2.4-0.7,4.7-1,7.1c-5.6-1.1-11.6-2.3-16.9-4.5c-1.2-0.3-2.5-0.6-3.7-1v-0.8c-1.2-0.7-2.4-1.4-3.5-2.2c-0.5-0.4-1-0.7-1.4-1.1
	c3.2-7.1,6.4-14.2,9.8-21.2c2.6-5.4,6-11.4,12-13.7c1.7-0.6,1-3.4-0.8-2.8c-6.3,2.4-10.2,8-13.1,13.9c-3.6,7.1-6.7,14.5-10,21.7
	c-1.8-2-3.1-4.3-4-6.8l-1.5,4.8c-1.4-13.5,0.8-27.3,6.8-39.5c5.1-9.6,15.8-13.8,25-18.5c17.6-5.5,35.3,1.2,52.4,5.3
	c-7-9.5-19.8-10.4-30.3-13.4c0-4.2,0.1-8.4,0-12.6c3,1.9,6,3.9,9,5.8c-2.1-12.2,6.9-20.7,14.6-28.5c-1.7-0.2-5.1-0.6-6.7-0.8
	c-4.7,5.4-9.2,10.8-13.7,16.2l-9.3-18c-2,2.9-4.1,5.9-6.1,8.9c-0.4-5.2-0.8-10.3-1.4-15.4c0.6,0.3,1.4,0.6,2.3,0.9
	c0.3,3.2,0.5,6.4,0.8,9.6C1092.1,926.8,1093.9,924.3,1095.6,921.8L1095.6,921.8z M1041.1,475.5c0.1,0.1,0.3,0.3,0.5,0.4
	c1.6-10.3,5.3-20.3,14.6-25.9c-2.6-0.6-5.2-1.1-7.9-1.7c6.2-5.2,9.9-11.3,12.2-18.1c0.1,0.9,0.1,1.7,0.1,2.6
	c-0.1,1.9-0.4,3.9,0.3,5.8c0.5,1.1,1.7,1.5,2.6,2.2c3.1,2.1,4.9,5.6,6.1,9.1c1.8,5.3,3.3,10.7,4.9,16c1.6,5.4,3.4,10.9,6.3,15.8
	c3.9,6.6,10,11.8,16.9,15c9.8,4.6,21,5.8,31.7,4.5c6.4-0.9,12.7-2.6,18.5-5.4c0.5-0.3,1.1-0.5,1.6-0.8c-4.9,9.3-5.3,20.6-3.1,32
	l1.1,0.1l3.4,0.3c-0.1-0.8-0.3-1.6-0.4-2.4c-1.5-6.9-2-14.2-0.9-21.1c0-3.3,0.7-6.7,1.8-10c2.9-1.7,5.6-3.7,8-6
	c5.2-5,9-11.2,11.9-17.7c10.7-6.9,24.1-10.8,37.8-8.8c5,0.3,10.1,1.4,15,3.3c1.5,2.7,3.1,5.3,4.9,7.9c-3-2-6.7-2.8-10-1.7
	c-12.7,0-20.3,5.1-33-0.7c-7.6,1.5-11.8,8.4-16.7,13.6c9,12.4,16.6,32.8,31.9,32.8c12.7,0,25.4-15.2,33-30.5c0.6-2.5,0.5-4.9-0.2-7
	c3.1,3.6,6.7,6.8,10.8,9.3c2.5,1.6,5.2,2.8,8,3.8c3.3,6.2,5.6,12.8,6.9,19.4c-0.5-6.3-1.9-12.5-4.3-18.6c1.3,0.4,2.7,0.7,4,0.9
	c4.1,0.7,8.2,0.9,12.4,0.9c10.8,0.1,21.8-1.9,31.5-7.1c5.1-2.7,9.8-6.7,12.1-12.1c4.9-11.4,8.5-23.2,11-35.3c0.4-1.9,1.3-3.5,2.4-5
	c-0.5-2.6,1.6-4.8,3.8-5.2c0.3-0.1,0.7-0.2,1.1-0.2c1.2-0.5,2.7-0.4,3.8,0.1c6.8,3.2,10.6,12.9,13.4,19.3c3.4,7.8,6.7,16.2,7.9,24.6
	c0.3,1.8-0.5,3.3-1.7,4.2c1.7,14.2-1.7,29.7-5.6,43.2c-1.5,5.3-3.4,11.9-6.3,17.9c-1.8,6.6-6.4,12.4-11.4,17c-0.9,0.9-2,1.2-3.1,1.1
	c-0.4,0.8-0.9,1.7-1.3,2.5c-6.1-1-12.2-1.6-18.3-1.8c-12.3,10.8-27,19-41.1,27.8c0.1,0.6,0.1,1.3-0.3,1.9
	c-3.8,7.3-9.5,13.4-15.8,18.7c-0.6,0.8-1.4,1.9-2.4,2c-7.9,6.3-16,12.1-24.8,16.8c-19.7-2-39.5,0.9-59,5.5
	c-8.1-3.6-15.5-8.3-22.7-13.4c0.6,0,1.2,0,1.7-0.1c-0.3-0.9-1-2.8-1.3-3.7c-2.2-0.2-4.3-0.4-6.5-0.7c-5.5-4.3-10.3-9.2-13.7-15
	c-0.3-0.5-0.3-1.1-0.2-1.6c-12.8-7.3-26.2-14.1-37.4-23.2c-5.1,0.1-10.2,0.6-15.3,1.3c-2.4-2.7-4.6-5.5-6.7-8.5
	c-8.9-9.4-11.6-22.3-16.7-33.7c-5.8-15.7-4.2-32.6-1-48.6c-7.5,1.7-9,9.2-11.2,15.4C1036.6,493.4,1039,482.4,1041.1,475.5
	L1041.1,475.5z"/>
<g>
	<path d="M923.1,794c-1.9-1.1-3.3-3-4.8-4.6c-2,1.6-5.5,2.3-5.7,5.5c1.4,1.6,3.4,0.7,5.1,0.4c0,2,0.1,4.1,0.4,6.1
		c1.5-1,2.9-2,4.3-3.1l3,2.7c0.7-1.5,1.4-3.1,2.1-4.6c1.9,0,3.8-0.1,5.7-0.1c-1.7-2.7-3.4-5.3-5.3-7.9
		C926.4,790.4,925.3,792.8,923.1,794 M1058.1,740.6c-1.1-29.5-7.3-58.4-13.6-87c3-5.1,9.9-7.1,12.5-12.8c0.9-2.4,0.1-6.3-2.9-5.9
		c-9.9,1.2-18.9,8.7-29,5.3c-19-2.8-38.3-1.1-57.2,1.5c-5.6-3-12.2-9.7-18.7-5.7c-3.7,7.6,5.9,10.5,9.9,14.4
		c1,17.1,1.2,34.2,1.3,51.3c1.6-0.2,3.2-0.3,4.8-0.5c0.7-17.3-0.5-34.4-1.5-51.7c-4.1-2.9-8.9-5.2-11.2-10.1
		c4.5,1.4,8.7,3.9,12.3,7.1c12.9-3.2,26.2-2.6,39.4-3c8.9-0.4,17.7,1.5,26.5,2.6c7-2.7,14-5.7,21.5-6.7c-2.1,6.4-9.1,7.9-13,12.6
		v2.8c6.5,28.6,11.9,57.6,13.7,87C1052.3,747,1059.3,744.5,1058.1,740.6"/>
	<path d="M1029,655.5c-1.5-1.3-2.9-2.7-4.5-3.8c-2.9,0.1-3.1,3.7-4.2,5.8c3.3,0.3,6,2,8,4.8l2-2.8l4.8,1.8c-0.5-1.7-1-3.3-1.6-5
		c0.7-0.7,2.1-2,2.8-2.7C1033.6,651.9,1031.1,653.2,1029,655.5 M990.6,653.7c-2.7,1.2-4.2,4-6.1,6.2c-3.5-1.4-5.9-4.5-8.4-7.4
		c-2.6,2.3-4.9,5.1-6.1,8.5c1.9-0.3,3.9-0.8,5.8-1.2c0.2,2,0.5,4,0.8,6c1.8-1.1,3.5-2.2,5.3-3.3c1.4,1.8,2.9,3.5,4.3,5.2
		c0.6-1.7,1.2-3.5,1.8-5.2c1.2,0,3.7,0.2,4.9,0.2C992.2,659.7,993.1,655.8,990.6,653.7 M1008.3,654.9c-3-0.3-5.7,1.1-8.4,2.2
		c-1.1,7.8,4.1,14.8,10.6,17.6c3.7,1,7.5-0.6,11.1-1.1C1021.5,665.1,1015.1,658.6,1008.3,654.9 M1007.8,669.3c1.9-0.8,6.1,0.2,6,2.7
		C1011.9,673.3,1008,671.6,1007.8,669.3 M1005.1,663.3c-2.4-2,1-5,3.1-3.6c3,1.8,4.9,4.9,6.5,7.9
		C1011.3,666.9,1007.3,666.6,1005.1,663.3 M979.4,679.8c-2.8-1.1-5.3-2.6-8.1-3.7c3.7,6.2,12.1,9.7,18.4,5.5
		c1.5-0.9,5.2-2.6,2.8-4.8C988.1,675.6,984.1,681.7,979.4,679.8 M1010.6,680c-4.6,0.7-9.1,0.3-12.9-2.8
		C999.5,682.7,1007.4,685.9,1010.6,680 M1022.7,678.7c3.3,4.1,11.3,3.8,13.2-1.6C1031.6,678.8,1027.2,679.2,1022.7,678.7
		 M1064.7,703.1c-0.8-6-2.1-12-4-17.8c-0.5-1.7-1.5-2.4-3.3-2.3c0.1,6.7,1.7,13.2,2.8,19.7C1061.4,702.8,1063.6,703,1064.7,703.1
		 M855.1,749.8c1.2,4.5,5.6,6.8,8.6,9.8c-1.6,1.6-4.8,2.7-4,5.6c2.9,8.4,11.9,11.5,19.2,14c4.1-0.1,12.5,2.3,12.2-4.5
		c-8.3-2.3-20.6,1.5-24.5-9.2c3.4-2.2,7.2-3.2,10.9-4.6c-4.7-4.6-14-2.5-15.3-10.9c10.2-5.6,21.8-4.3,32.7-5.7
		c3.3-0.3,6.7-0.3,10-0.5c-1.3-3.9-5.2-5.5-7.8-8.3c4.6-3.3,10.3-2.5,15.6-2.7c23.9,0.2,47.7,1.4,71.6,0.6
		c4.7,5.5,12.5,8.9,19.5,7.3c3.2-3.2,7.6-4,11.9-4.5c3.3,0.7,6.7,2.7,10,0.7c4.8-1.1,7.8-5.5,12.6-6.6c-1.2-4.2-4.2-7.4-7-10.4
		c3.1-5.5,4.3-11.9,5.8-18.1c2.4-0.8,4.8-1.5,7.1-2.4c-1.8,0-3.5,0.1-5.3,0.2c-1.2-2.8-1.8-6.4-4.6-7.9c-6-3.7-12.6-6.6-19.5-7.5
		c-5.6,4.9-6.3,13.6-9.4,20.3c-6.3,1.7-12.1,4.8-17.9,7.7c-3.9,2.1-7.6-1.7-11.4-2.6c4.2,4.4,10.9,5.2,16.1,2.4
		c6.7-3.1,14.5-8.1,21.9-3.7c8,4.8,14.9,12,19.9,20.2c-3.2-1.1-6.3-2.6-9.5-3.7c1.4,3.1,3.4,5.7,5.2,8.6c-4.3-0.5-7.9-3.5-12.2-4.1
		c1.8,2.1,3.8,4.1,5.1,6.7c-4.6-1.1-8.4-4-12.4-6.5c0.3,2.2,0.7,4.4,1,6.6c-3.4-1.3-6.3-3.5-9.3-5.4c-1.1-1-3.3-0.5-2.5,1.4
		c1.5,2.4,3.4,4.6,3.8,7.5c-6.2-1.9-12.7-4.1-17.3-9.1c-2-2.2-5.2-2.3-8-2.4c-24.1,0.5-48.2-0.4-72.3-0.3
		c-5.1,0.3-11.8-0.3-14.8,5.1c-0.3,2.4,1.8,4.1,2.7,6.1c-7.6,1.2-15.4,1.2-23.1,2.2C864.8,742.4,857.3,743.4,855.1,749.8
		 M1016.5,686.6c2.5,0,2,4.3-0.3,4.3C1013.7,690.9,1014.4,686.7,1016.5,686.6 M1013.9,706c-1.9-0.4-3.8-0.7-5.7-1.1
		c2.4-4.2,3.4-9.4,6.3-13.1c0.7,0,2-0.1,2.7-0.1C1015.3,696.3,1014.8,701.2,1013.9,706 M1016.3,707.6c2-6.2,3.3-12.6,4.1-19.1
		c4.7,1.3,10.1,2.9,12.9,7.4c0,7.2-2.4,14.3-5,20.9C1024.6,713.4,1020.6,710.2,1016.3,707.6"/>
	<path d="M987.7,686.5c4,4.5,10.2,5.4,15.5,3.2c0.2-0.9,0.5-2.7,0.7-3.6c-2.9,0.8-5.7,2-8.7,2.5C992.7,688,990.2,687.2,987.7,686.5
		 M977.2,692.4c2.9,4,8.8,5.8,12.9,2.5C985.6,696,981.3,694.6,977.2,692.4 M964.1,712.5c-0.3-0.9-0.8-2.6-1-3.5
		c-3.7-0.1-7.3,0-11,0.2c-0.1,0.7-0.4,2-0.6,2.6C955.6,713.9,959.9,714,964.1,712.5 M1011.9,715.2c-2.5-1.7-5.5-5.6-8.4-2.5
		c3.9,4.1,8.5,7.8,13.9,9.2C1017.2,718.4,1014,717.1,1011.9,715.2 M1006.9,722.8c-2.9-4.2-7.3-6.8-11.7-8.8
		C994.9,719.7,1002.1,722.6,1006.9,722.8 M954,720.3c9.4,0.7,18.8,0.5,28.1-0.7c-3.5-5.8-10.8-4.2-16.3-4.4
		c-5.8,0.5-12.1-1.7-17.4,1.7C950.1,718.4,951.6,720.6,954,720.3 M990.6,718.3c-1.3,5.1,4.1,7.2,8,6.7
		C996.3,722.3,994.2,718.9,990.6,718.3 M977.2,847.4c5.6-2.4,9.7-9.5,7.9-15.8c-2.7,1.2-5.3,2.8-7.8,4.4c-4.1-4.5-6.7-10.9-5-17.1
		c2.5-11,3.1-23.2-2.9-33.1c2.7-5.1,4.5-10.7,5.4-16.4c-0.8,0-2.5,0.2-3.4,0.2c0.9-3.9,1.4-7.9,1.8-11.9c-2.7,1.1-5.3,3.9-8.4,2.6
		c-8.7-2.8-14.1-11.4-22.2-15.5c-5.7-3.6-12.7-2.3-18.6-0.2c-6.4,3.7-13.1,9.6-12.6,18.1c-6.5-0.9-13-7.7-19.2-3
		c0.1,0.9,0.4,2.8,0.5,3.7c4.3,7.6,11.2,12.9,16.7,19.5c-5.7,1.9-11.7,3.1-16.9,6.3c-6.5,3.9-10.3,13.3-7,20.7
		c4.7,10.4,16.7,15.5,27.2,13.7c1.8,0,5.3-1.7,5.7,1.4c2,6.6,2.1,13.7,1.4,20.5c-3.6,0.5-7.3,3-11,2.1c-5.4-4.1-11.2-7.4-17.6-9.5
		c-6.8-11.7-11.4-24.9-16-37.7c-1.6-4.5-3.7-9.7-8.6-10.8c-9.1-1.7-18.2,0.5-27.2,1.5c-4.1,0.9-8.8,2.9-10.6,7.3
		c2.9,19.3,13.1,36,22.2,52.6c-1.3,2.6-4.1,5.6-2.3,8.7c3.3,6.8,10.3,11.1,17.2,12.8c12.3,1.1,24.5-1.4,36.5-3.9
		c3.6,1.8,7,4,10.6,5.9c-0.1,7.7-3.3,15.4-1.9,23.1h4.4c1.3-7.1,1.9-14.3,2.5-21.5c5.5,0.4,11.1,1.6,16.4-0.5l0.4-3.6
		c-1.9-0.1-3.7-0.2-5.6-0.3c0.4-2.3,0.8-4.5,1.1-6.8c-1.5,2.3-1.8,5.7-4.2,7.3c-8.7-0.8-17.4-3.8-24.2-9.7
		c-3.6-3.1-5.9-7.4-8.6-11.2c-2-3.2-7-3.7-7.5-8.1c9.4-1.4,16.8,5.8,22.9,12.2c5.9,6.3,14.7,7.7,22.7,7c5.9-2.4,14.4-5.7,14.1-13.6
		c-3.4,1-5.5,4.2-8.3,6.4c-4.1,2.8-9.3,3-14,2.7c0.9-5.1,1.9-10.2,2.5-15.3c6,0.3,12.2,1,18.1-0.6c4.2-1.1,7.9-3.7,11.7-5.8
		c0.9,5.6,2.4,11.2,4.3,16.6c1,0,3-0.1,4-0.2c0.1-1.1,0.5-3.4,0.6-4.5C968.7,848.5,973.2,849.4,977.2,847.4 M842,795
		c5.8-0.9,11.6-2.3,17.6-2.5c3.2,0.1,7.5,0.4,8.4,4.4c-7.7,0.7-15.7-1.3-23.2,1.5c4.1,14.6,12.7,27.1,19.2,40.5
		c1.5,2.3,2.3,5.7,4.7,6.9c4-1.1,7.9-2.9,11.9-4.2c0.5,2.1,0.9,4.3,1.4,6.4c-4.4,1.6-8.8,3.1-13.4,3.6c-2-0.5-2.8-2.7-4.1-4.1
		c-7.2-11-13.1-22.8-18.5-34.9C843.6,807,841.4,801.1,842,795 M893.4,858.1c1.5,2.2,3,4.3,4.5,6.5c-10.5,2.2-21.4,4.3-32.1,3.1
		c-5.5-2.2-13.5-4.9-13.6-12.3c4.6,3,7.6,9.2,13.5,9.2C875.3,864.7,884.3,860.8,893.4,858.1 M887.7,851.8c0.8,0.6,2.3,1.7,3,2.2
		c-7.3,2.6-14.8,4.9-22.4,6c-4.9-0.2-8.2-4.6-10.6-8.6c-7.2-11.9-14.1-24-19.5-36.9c-2-5.1-4.7-10.5-3.6-16.2
		c0.7-0.5,2.1-1.6,2.7-2.2c3,16.2,10.9,30.6,18.6,44.8c3.1,5.4,6.2,11.2,11.5,14.6C874.3,855.8,880.8,851.7,887.7,851.8
		 M868.6,844.8c-8.1-14.8-17.1-29.2-22.9-45.2c7.4-3.5,15.9-2,23.6-0.6c5,13.4,9.5,27.2,16.6,39.7
		C879.9,840,874.2,842.2,868.6,844.8 M918.5,856.1c-2.7-0.7-4.7-2.6-6.1-5c2.2-0.5,4.3-0.9,6.5-1.3
		C918.8,851.9,918.7,854,918.5,856.1 M948.7,834.5c-6.9,3.7-15,3.1-22.4,2.1c-0.9-5.2-1.8-10.5-3.3-15.6c3.5-3.3,9.5-5.6,9.3-11.5
		c-4.5,1.5-8.1,4.7-12.1,7c-9.9,4.6-22.8,1.2-28.9-8.4c-2.9-6,1.5-12.3,5.8-15.9c6.2-3.6,13.5-4.3,20.1-6.9c1.4-1.5,2-3.7,3-5.4
		c-0.8,0.2-2.3,0.7-3,0.9c-4.1-4.2-8.8-7.8-12.2-12.7c5.6,1.6,10.5,5.2,16.1,6.9c4,2,9.6,1.6,11.8,6.3c1.9,0.6,3.7,1.3,5.5,2.1
		c1.7-2.4,3.5-4.9,4.5-7.8c-1.9,0.5-3.7,1.1-5.6,1.6c2.4-3.2,5.2-6.3,9.1-7.2c-0.2,4.2-1.4,8.3-2.8,12.2c2.9,2.9,2.8,7.3,4.9,10.6
		c6.7,9.4,6.4,21.9,7.1,33.1C956.3,830.7,951.8,832.7,948.7,834.5 M965.2,843.6c-2.7-1-3-4.4-3.6-6.9c-1-11.5-1-23.2-2.9-34.6
		c-1-7.1-5.5-12.7-9.8-17.9c1.8-4.8,4.1-9.9,3.3-15.2c-1.2-2.7-3.6-5.9-6.9-5c-5.1,0.9-8.6,5.2-11.9,9c-6.3-3.1-16.7-5.6-15.3-15.2
		c3.8-7.6,12.8-11.6,20.6-9.3c4,1.8,7.1,5.1,10.5,7.8c4.7,3.9,10.2,6.6,14.9,10.4c-2,2.2-4.1,4.2-6.2,6.2c1.8,2.6,4.6,3.9,7.5,4.7
		c-1.1,2.1-2.3,4.1-3.6,6.2c8.5,9,8.3,23,5.6,34.6c-2.4,9.3,2.4,20.9,11.8,23.1C975.5,844.7,970,846.4,965.2,843.6 M1027.3,760.9
		c-2.7-5.7-5.6-11.3-9.3-16.2c-1.2-2-3.3-2.9-5.5-3c0.2,5.2,1.8,10.1,1.9,15.3c-7.5-1-14.8,1.3-20.9,5.9c-3.2-3.5-5.4-8.5-10-10.2
		c-0.6,2.3-1.8,4.8-1,7.3c1.7,5.6,2.9,12.9,8.9,15.2c-1.4-3.7-2.5-7.6-3.3-11.5c2,1.5,3.8,3.2,5.6,5c3.4-3.3,6.9-7.2,11.8-7.9
		c4.5-1,9,0.3,13.4,1.6c0-2.6,0-5.3,0.1-7.9C1021.4,757.1,1023.5,760.6,1027.3,760.9 M1079.8,797.6c7.9,2.5,16.4,1.5,24.2-1.2
		c2.7-1,5.1-3.3,3.9-6.5c-6.5,1.8-12.9,4.3-19.7,4.4c-2.6-0.2-5.6-1.2-6.6-4c0-2.2,1.1-4.2,2.7-5.6c7.2-0.8,15.3-0.4,21.5-5.2
		c2.8-1.7,2.5-8-1.4-7.7c-8.2-1.8-15.7,2.8-22.1,7.7c-1.9-1.6-3.8-3.2-5.4-5.2c-0.6-2.1,0-4.4,0.1-6.6c6.2-0.5,12.6,0.3,18.5-2.1
		c3.3-1.4,7.5-3.1,7.6-7.5c-2.1-4.8-7.6-3.7-11.6-3.4c-5.9,0.6-10.8,4.8-16.3,6.4c-4.5-1.4-8.2-4.7-12.2-7.3
		c-4.7,5.8,3.4,9.9,7.4,12.5c0.1,3.3,0,6.7,0.4,10c1.4,3.5,4.4,5.6,7.1,7.9C1076.8,788.3,1074.9,795.2,1079.8,797.6 M1101.6,774.9
		c-1.4,4.5-7.1,3.9-10.7,4.4C1094.1,776.9,1097.8,775.7,1101.6,774.9 M1098.3,758.2c-3.9,2.9-8.6,4.7-13.5,3.9
		C1088.8,759.2,1093.6,758.4,1098.3,758.2 M1050.5,773.9c-4.6-7.2-13-14.3-21.7-10.6c-0.6,1.9-1.1,3.8-1.5,5.7
		c-2,0.1-4.1,0.2-5.7-1.2c0.4,0.7,1.1,2.1,1.4,2.8c2.2,0.1,4.5,0.2,6.7,0.2c0.6-1.8,1.3-3.6,1.9-5.4c6.6,1.2,12.6,5.7,15.4,12.1
		c1.9,4.3,0.9,9.2,0.9,13.7C1053.8,787.9,1053,779.4,1050.5,773.9 M1008.6,776.9c-2.5-0.6-4.9-1.3-7.4-2.1c0.8,1.3,1.6,2.6,2.3,3.9
		c2.3,0,4.6-0.1,6.9-0.3c0.3-2.3,0.6-4.6,0.8-6.8C1008.9,772.1,1009.2,775,1008.6,776.9"/>
	<path d="M1039.7,774.8c-1.3-3-4.8-2.3-7.2-1.5c-0.1,2-0.1,4-0.1,6c3.2,0.7,3.6-2.4,4.5-4.7c0.2,1.3,0.7,3.9,0.9,5.2
		C1040.1,778.7,1040.7,777.1,1039.7,774.8 M1115.6,839.3c4.7-12.4,1.9-26.1,2.4-39c-5.9-0.8-11,2.7-16.4,4.4
		c-8.3,2.7-16.5,5.9-25,8.1c-2.6,0.6-4.5,2.6-6.4,4.4c-2.3-1.4-4.6-3.3-7.3-3.8c-2.9,0.4-5.7,1.1-8.5,1.7c-2-5.8-4.4-11.5-7.6-16.7
		c-1.5,2.2-1.9,5.1-3.4,7.2c-10.4,7.7-23.3,12-36,10.5c-3.6-12.5-8-24.7-14.1-36.1c-0.9-1.5-2.2-2.2-4-2.1c-0.2,2.3-0.3,4.7,0.6,6.9
		c8.4,24.5,18.2,48.9,21.2,75c-6.6-1.9-11.8-6.7-17.7-10c-3.2-0.9-4.5,2.4-3.5,5.1c3.8,10.3,12.7,18.4,22.9,20.9
		c-1.9,2.9-3,6.3-2.1,9.8c-2.8,0.6-5.6,1.6-8.1,3c0.1,3,1.2,5.7,3.3,7.8c-0.6-1.8-1.1-3.6-1.7-5.4c3.5-2.3,7.6-1.8,11.5-2
		c-0.6-3-1.5-6-2.5-8.9c7.3-4.2,15.4-0.1,23-0.2c-0.4-3.9-3.5-6.2-5.5-9.1c-0.2-2.5,2.4-3.9,4.2-4.7c7.3-2.2,14.9-2,22.3-4
		c-4.4-2.6-9.6-0.8-14.3-1.3c2.5-3.9,4.6-8.1,6.5-12.4c1,0.3,3.1,0.8,4.2,1c-0.3,2.5-0.6,5.1-0.8,7.7c1.9,0.4,3.8,0.4,5.6,0
		c8.9-2.1,18-3.2,26.5-6.6C1095.8,848.3,1105.2,842.5,1115.6,839.3 M1082.8,813.9c10.5-2.6,20.1-8.3,30.8-9.7
		c-0.1,8.6,0.4,17.3,0.8,25.9c-10.9,4.6-22.1,8.5-33.8,9.8C1080.5,831.2,1081.9,822.5,1082.8,813.9 M995.1,854.8
		c5.9,3,10.8,8.1,17.5,9.3c0.3,2.4,0.5,4.8,0.7,7.3C1005.4,869.2,998,863.1,995.1,854.8 M1062.5,853.5c0.5-0.7,1.4-2.2,1.8-3l6-0.9
		C1069.8,853.5,1065.1,852.4,1062.5,853.5 M1058.9,847.3c-3.7,0.2-6.6-3.1-10.1-3.6c-4.1,2.9-5,8.3-7.1,12.7
		c-1.8,1.9-4.6,0.7-6.8,0.9c-1.6-9.7,0.4-20.1,6.9-27.4c1.3-1.6,2.8-1.8,4.6-0.8c6.9,3.7,11.1,10.7,15.6,16.9
		c2.2-6.7-3.8-11.3-7.6-15.5c-3.1-3.8-8.2-4.9-12.7-3.7c-4.7,3.1-6.8,8.9-9.5,13.7c-3-1.7-5.9-3.7-9-5.3c0.6,5,6,5.8,8.5,9.3
		c0.2,3.6,0,7.2,0,10.8c-2.4-0.6-4.8-1.3-7.1-2.1c0.3,0.7,0.8,2.1,1.1,2.8c4.1,2.2,8.4,3.9,12.6,5.6c-3.3,1.7-6.9,3-9.9,5.5
		c-1.3,2.5,0.3,5.6,0.5,8.3c-4-0.3-8-0.5-11.9-1.1c1.9-18.7-5.2-36.3-8.5-54.3c7.8-1,15.7-1,23.2-3.7c5.3-1.8,10.2-4.8,15.1-7.4
		c3.6,6.4,4,14.7,9.4,19.8c0.6-3.7,0.6-7.4,0.5-11c1.8-0.7,4-2.8,5.8-1c2.8,2,6.4,3.2,8.5,6.1c0.1,4.9,0.1,9.7-0.2,14.6
		c-3.8-2.4-6.7-6-9.5-9.6c-0.9,0.2-2.6,0.7-3.5,0.9c4.1,5.7,8.1,12.1,14.7,14.9C1069.3,848,1063.5,847.1,1058.9,847.3 M1073.8,849.4
		c-1.9-1-1.9-2,0.1-3C1075.9,847.3,1075.8,848.3,1073.8,849.4 M1075.2,816.5c1.5-0.5,3-0.9,4.5-1.4c-1.2,8.5-0.5,17.2-2.2,25.7
		c-0.5,0.2-1.5,0.5-2.1,0.7C1075.9,833.2,1076,824.8,1075.2,816.5 M1077.6,844.7c11.9-3.4,23.8-6.9,35.9-9.5
		c-1.1,1.2-2.4,2.1-3.9,2.7c-10.6,4.2-21.5,7.2-32.5,10C1077.3,847.2,1077.5,845.5,1077.6,844.7"/>
	<path d="M1041.1,794.6c1.1,0,3.2,0,4.3-0.1c0.6-2.9,0.6-5.8,0.1-8.7c-0.9,0.2-2.7,0.7-3.6,0.9
		C1041.5,789.3,1041.3,791.9,1041.1,794.6 M1032.3,800.8l5.1-3.3l0.3-8.7c-0.8,0.2-2.5,0.5-3.3,0.7
		C1033.6,793.2,1032.8,797,1032.3,800.8 M1024,802.6c4.1-2.6,5.4-7.6,4.9-12.4C1023.7,791.6,1024.2,798.1,1024,802.6 M1014.5,800.8
		c3.9-1.1,5.9-4.3,5.5-8.5c-0.8,0.1-2.5,0.2-3.3,0.3C1015.9,795.4,1015.1,798.1,1014.5,800.8 M1006,799.6c1.6-0.8,3.2-1.6,4.8-2.3
		c0.1-1,0.2-3,0.3-4.1C1008.8,794.7,1007.6,797.4,1006,799.6"/>
</g>
<text transform="matrix(1 0 0 1 657.7741 546.1534)" class="st4 st5">Branding, </text>
<text transform="matrix(1 0 0 1 678.7062 599.6466)" class="st4 st6">Qu es Branding?</text>
</svg>
