<?xml version="1.0" encoding="utf-8"?>
<!-- Generator: Adobe Illustrator 25.3.1, SVG Export Plug-In . SVG Version: 6.00 Build 0)  -->
<svg version="1.1" id="Capa_1" xmlns="http://www.w3.org/2000/svg" xmlns:xlink="http://www.w3.org/1999/xlink" x="0px" y="0px"
	 width="1920px" height="1080px" viewBox="0 0 1920 1080" style="enable-background:new 0 0 1920 1080;" xml:space="preserve">
<style type="text/css">
	.st0{fill:#FFFFFF;}
</style>
<g>
	<path class="st0" d="M433.7,676.4c1.5,21.8,4.7,43.6,10,64.7c0.6,0.4,1.3,0.6,1.9,0.9c0,3.2,0.2,6.2,0.6,9.4
		c1.3,4.7,2.8,9.4,4.5,14.1c0.9,3,0.4,5.3-0.9,7.3c1.1,4.1,1.9,8.3,3,12.6c9.6,16.4,20.3,32.2,31.6,47.6
		c16.4,22.2,34.8,43.1,56,61.1c8.8,7.5-4.1,20.3-12.8,12.8c-4.3-3.6-8.5-7.5-12.8-11.5c1.3,10.3,3,20.5,4.1,30.8h-0.2
		c-1.5,0.4-3.2,0.9-4.9,1.3c0.9,1.5,1.5,3.2,1.3,5.6c-0.6,10.7,0.9,20.9,2.6,31.2c-3.6,4.1-6.8,8.3-10,12.8
		c-3.8,5.4-7.5,11-10.8,16.8h606.1c-3.8-10.6-8.6-21-14.2-30.9c-7.9-15.2-18.8-28.2-30.8-40.4c-0.9-3.6-0.4-6.8,1.3-9.6
		c-3.2-0.9-6-1.7-8.8-2.6h-0.2c0.4-5.1,1.3-10.5,1.9-15.6c-4.5-1.5-7.9-6.6-6.6-11.3c6.4-23.7,24.6-40.8,39.7-59.2
		c-2.1,1.9-4.3,3.6-6.4,5.3c-9.2,7-22-5.6-12.8-12.8c21.6-16.9,36.9-40.8,48.3-65.8c0.9-5.1,1.5-10,2.1-14.9c0.4-4.5,0.9-9,1.3-13.7
		c-2.8-19.6-2.3-39.7-0.2-59.6c-2.6-28.6-7.9-56.8-15.6-83.7c-0.9-1.1-1.5-1.9-2.1-3c0.4,0.4,1.1,0.6,1.5,0.9
		c-2.8-8.8-5.6-17.7-9-26.3c-5.1-4.5-10.5-9-15.6-13.2c-0.9-0.6-1.5-1.1-2.3-1.7c-0.2-2.8-0.2-5.8-0.4-8.8c-5.3-0.9-10.7-1.9-16-2.8
		c-7.5-5.1-14.7-10.3-21.4-16.2c-3.2,0.6-6.8-0.4-9-4.3c-10.9-18.8-22.9-36.9-30.8-57c-6.6-17.1-8.3-35.2-6.8-53.4
		c-3,2.3-6,4.5-9.2,6.6c-9.8,6.4-18.8-9.4-9.2-15.6c8.8-5.6,15.8-12.8,21.8-20.7c5.1-36.9,12.4-73.7,11.5-110.8
		c-1.7-2.3-4.1-4.3-7.5-4.9c-13-12-33.3-14.3-50.6-17.5c-15.4,7-30.1,15.6-43.4,26.1c-2.6,7.9-8.5,14.5-18.2,16.7
		c-2.8,3-6.6,5.3-11.3,6.6v2.3c-1.9-0.4-3.8-0.9-5.8-1.5h-1.5c-6,0-10.7-1.5-14.5-4.1c-75.2-16.9-156.1-6.2-224.9,28.2
		c-6.4-9.2-13-18.2-19.6-27.1c-2.6-1.3-7.5-3.8-10-5.1c-10.3,1.9-19.2-3.6-28.2-8.1c-19.9-11.5-43.8-3.2-64.7,0.2
		c0.4,0.4,0.6,0.6,1.1,0.9c-0.4-0.2-1.1-0.4-1.5-0.6c-16.7,14.3-26.9,32.9-32,53.2c-8.8,14.5-9.2,34-6.2,50.2c1.1,4.5,2.3,9,4.3,13
		c0.9,5.3,1.7,10.5,3,15.6c1.7,2.8,3.6,5.6,5.8,8.1c1.5,1.9,4.3,4.3,7,7c1.3,1.5,2.6,2.8,3.6,4.3l1.3,2.6c0.2-0.2,0.2-0.2,0.4-0.2
		c-0.2,0-0.4,0.2-0.4,0.2c0,0.2,0.2,0.4,0.2,0.6c1.3,2.3,3.2,7,5.6,10.5c0,0.4,0.2,0.9,0.4,1.3c0.9,2.8,1.3,5.6,1.1,8.3
		c0.9,0.6,1.7,1.1,2.6,1.7c-3,7.7-5.6,15.4-6.8,23.5c-6,31.8,0.9,66-13.7,96.1c-4.9,12-13.2,21.4-22.2,30.5c3,1.9,4.9,5.3,3.8,9.6
		C455.9,626.8,442.7,651.2,433.7,676.4z"/>
	<path d="M953.5,476.1c-30.1,17.3-64.5,20.9-97,24.6c-12.4-30.1,13.5-25.2,23.5-29.3c29.7-6,57.5-20.3,84.8-34.4
		c4.7-3,9.2,1.9,13.5,3.8c1.9,10.9-0.6,21.8-5.6,30.3C966.5,474.1,959.5,472.2,953.5,476.1L953.5,476.1z M900.6,784.9
		c0.2-0.2,0.2-0.6,0.4-1.1C900.8,784.2,900.8,784.7,900.6,784.9z M693.4,821.8c16.4,31.8,43.1,57.9,79.9,61.5
		c23.9,1.5,45.5-4.9,63.9-16.7c-19.6,14.7-43.4,22.9-70.5,21.4c-35.9-3.6-62.4-28.6-79-59.8C689.8,826.3,691.7,824.2,693.4,821.8
		L693.4,821.8z M677.2,835.3c-0.2-0.6-0.4-1.1-0.6-1.7c1.9-0.4,3.8-1.1,5.6-1.9C680.6,833.1,678.9,834.4,677.2,835.3z M876.2,840.6
		c-2.1-1.7-4.3-3.4-6.4-5.3c1.5-2.1,3.2-4.3,4.5-6.6l0.2,0.2c2.6,2.6,5.3,4.7,8.1,6.8c-11.7,19.6-27.6,36.9-47.6,50.2
		C852.1,873.7,865.7,858.1,876.2,840.6L876.2,840.6z M801.2,831.9c-16.9-1.1-36.3-0.2-49.3-13.2
		C768.8,817.8,790.6,815.8,801.2,831.9z M811.9,787.4c-33.3,3.2-66.4,1.9-99.3-3c-8.3-1.3-4.7-11.1,3.4-9.8
		c24.8,3.6,49.5,5.1,74.7,4.1c12.8-0.6,25.6-1.7,38.4-3.6c8.5-1.1,19.9,0.6,19.6-11.3c1.3-6.4,13.9-3.6,12.6,2.8
		C861.5,790,828.2,784.7,811.9,787.4z M710,354.7c7.7-1.1,15.4-2.6,23.3-3.2C726.1,354.7,718.2,355.4,710,354.7z"/>
	<path d="M1058.8,874.2c10.1-19,25-35.4,29.1-56.8c1.9-2.6,3.7-5.3,5.5-8c19.9-47.8,32.9-98.9,29.9-151c3-0.2,9-0.2,12-0.4
		c-5.6-33.7-17.7-66.8-38-94.6c8.1,4.5,16.2,8.8,24.6,12.8c-11.3-21.1-29.7-36.9-48.1-51.9c-0.9-0.6-1.5-1.1-2.3-1.7l-0.6-9
		c-5.3-0.9-10.9-1.7-16.2-2.6c-17.5-12-34.8-24.6-43.6-44.6c-8.1-18.8-13.7-38.7-20.1-58.1h0.4c-0.9-2.6-1.3-5.1-1.1-7.9
		c0.2-2.3,0.6-4.9,1.1-7.3c0.2-0.9,0.6-1.7,0.9-2.3c-2.3-3.4-2.6-7.9,0.6-12.4c20.7-27.6,33.3-67.9,27.6-102.5
		c-1.9-11.7-6.2-22.9-11.5-33.5c-2.3,0.2-4.7,0.6-7,1.1c-0.6-5.1-3.8-9.6-9.8-10.7c-13.2-12-33.7-14.3-51.3-17.3
		c-15.4,7.3-30.3,15.8-43.6,26.5c-2.6,8.1-8.8,14.9-18.4,17.1c-3,3.2-6.8,5.6-11.5,6.6v2.3c-1.9-0.6-3.8-1.1-5.8-1.5H860
		c-5.8,0-10.7-1.5-14.7-4.1c-75.8-16.7-157.6-5.3-226.8,29.9c-6.6-9.2-13.2-18.2-20.1-27.3c-2.6-1.3-7.5-3.8-10-5.1
		c-10.5,1.9-19.6-3.6-28.6-7.9c-20.1-11.5-44-3-65.4,0.6c0.4,0.2,0.6,0.6,1.1,0.9c-0.6-0.2-1.1-0.4-1.5-0.6
		c-16.7,14.5-26.9,33.3-31.8,54c-8.5,14.7-9,34.4-5.8,50.8c0.9,4.7,2.3,9,4.3,13.2c0.9,5.3,1.9,10.5,3.2,15.6c1.9,2.8,3.8,5.6,6,8.1
		c1.5,1.9,4.5,4.3,7.3,7c1.5,1.5,2.6,2.8,3.6,4.3l1.3,2.6c0.2,0,0.2,0,0.4-0.2l-0.2,0.2c0.2,0.2,0.2,0.4,0.2,0.6
		c1.3,2.3,3.4,7,5.8,10.7c0.2,0.4,0.2,0.9,0.4,1.3c0.9,2.8,1.3,5.6,1.1,8.3c0.9,0.6,1.7,1.1,2.6,1.7c-3,7.7-5.6,15.4-6.6,23.7
		c-5.8,32.2,1.3,66.6-13.2,97.2c-9.2,22.2-29.7,36.3-44.2,54.7l18.8-0.9c-6.2,10.5-12,21.4-16.9,32.5c-4.1,27.3-13.2,62.1-11.7,89.9
		l0,0c6.6,2.6,13.5,5.1,20.3,7.7c1.3,28,12.6,54.2,15.2,82c2.3-0.6,7-1.9,9.4-2.8c8.8,13,17.3,26.7,26.3,40
		c-6-2.2-12.5-3.2-16.3,3.1c-0.9,1.5-0.9,3.5,0,5c9.3,15.6,18.7,31.2,27.9,46.9c3.3,5.6,6.6,11.4,9.4,17.4c0,0.2,0,0.4,0,0.6
		c-0.6,10.7,1.1,21.1,2.8,31.4c-3.4,4.3-6.8,8.5-10,13c-4.8,6.8-9.3,13.8-13.2,21h251.5c-2.9-1.6-5.8-3.2-8.7-4.6
		c31.6-7.5,63.9-12.2,96.3-11.1c13.2,1.7,26.1,4.9,38.9,9.4c5.4,1.9,10.7,4.1,16,6.3H1105c-4.4-13.6-10.2-26.7-17.3-39.2
		c-8.1-15.4-19.2-28.4-31.4-40.6c-1.1-3.6-0.4-6.8,1.3-9.6c-1.3-0.3-2.6-0.7-3.8-1c-0.6-6-0.5-12.1,0.2-18.1
		C1055.3,881.4,1057,877.7,1058.8,874.2z M1009.7,307.1v-0.4c0.2,4.7-0.2,9.4-1.1,14.1c-0.2-1.3-0.2-2.6-0.6-3.6
		C1007.1,313.1,1008,309.9,1009.7,307.1z M1025.9,615.9L1025.9,615.9c-2.6,9.2-4.9,18.4-9.8,26.5c-7.7,13.9-20.9,24.3-35.9,29
		c-12.2,3.6-25,5.8-37.6,6.2c-17.7,0.6-35.7-2.6-51.7-10.5c-5.3-9.6-11.5-18.6-19-27.1c-7.9-9.6-17.1-17.3-26.9-23.1l-0.6-1.3
		c-0.9-1.7-1.7-3.4-2.3-5.1h0.2c1.9,0.4,3.8,1.3,5.6,2.1c13,3.2,25.2,9.8,37.6,15.2c-5.6-7-14.1-10.9-21.4-16
		c30.3,4.9,45.5,17.9,75.4-1.7c-2.8,9-9,16-13.2,24.1c11.7-6.8,18.6-19,27.8-28.6c-3,14.1-13.9,23.9-22.4,34.8
		c11.7-4.9,18.8-15.8,28-23.9c-2.6,10-10.7,16.9-16.4,25c25.6-10.3,35.5-35,46.1-58.3c7.7-17.1,27.8-9,39.5-1.1
		c-24.6-68.6-105.9-34.4-156.8-20.7c-13.9,3.8-28.4,7-42.7,5.8c0-4.9,0.6-9.6,2.6-14.1c3.2-8.1,9.8-14.5,17.1-19.2
		c10.9-6.8,23.1-10.9,35.5-14.3c20.3-5.8,41.9-6.6,62.8-5.8c10,0.4,20.1,1.3,29.9,2.1c10.3,1.1,20.5,2.8,30.1,6.2
		c6.4,2.3,12.6,5.8,17.3,10.7c5.3,5.6,8.3,13,8.8,20.5C1034.9,574.3,1031.5,595.4,1025.9,615.9z M875.8,657.8
		c-5.3-4.1-10.3-9-14.5-14.1C866.6,648,871.5,652.7,875.8,657.8z M870.2,587.5L870.2,587.5c3.4-4.9,9.8-6.2,15.2-8.3
		c19.2-5.6,38.4-11.1,57.7-16.2c5.1-1.1,10.5-2.8,15.6-1.5c5.1,1.1,3.8,7.7,1.3,10.7c-8.3,11.3-21.6,18.6-34.8,22.4
		c-15.2,4.1-31.8,5.3-47,0.6C874.5,594.2,868.9,592,870.2,587.5z M501.4,439.5c-0.2-2.3,0.4-4.9,2.1-7.5c1.5-2.1,2.6-4.3,3.4-6.4
		c-0.9-1.7-1.5-3.2-2.3-4.9c5.6-3,10.9-7,13.9-9c4.7-3.2,9.2-6.6,13.9-10c4.1-3,12.6-6.8,14.5-11.3c0.4-1.1,0.9-1.9,1.1-2.3
		c-0.4-1.5-3.6-4.1-6.2-6c0.2,0.2,0.2,0.4,0.4,0.6c-0.6,0-1.5,0.2-2.3,0c-4.9-2.8-9-6.4-12.6-10.7c1.9,4.1,4.5,7.7,7.5,11.1
		c-1.7,0-3.6-0.2-5.3,0.2c-6.4-4.3-12.2-9.6-16.7-16c-2.8-3.4-4.7-7.7-7.5-11.3c0.6,9.2,4.9,17.3,8.5,25.6
		c-18.6-15.2-25.2-39.9-27.8-62.8c-2.1,10-0.6,20.5,0.2,30.8c-6.8-15.4-6.6-32.9-3.2-49.1c-0.4-1.5-0.6-3-1.1-4.5
		c-0.4,0.6-0.9,1.1-1.3,1.7c4.3-9.6,10.9-18.2,20.9-24.3c3.2-2.1,6.6-2.3,9.4-1.5c24.3-11.1,60.7-3,78.6,17.3
		c2.3,0.9,4.9,1.7,7.3,2.8c1.7,0.6,3,1.5,4.1,2.6c1.1-1.9,1.9-3.6,2.8-4.9c3.2,10.3,7,20.3,11.5,29.9c1.9-1.9,4.7-3,8.1-3v-10.3
		c17.3-11.3,37.6-16.7,58.1-19.4c1.1,1.3,1.9,2.3,3,3.6c4.9-4.3,11.1-7.5,18.8-9.4c3.6-0.9,7.3-1.3,10.9-1.5l-1.3-0.6
		c48.9-11.7,101-13.2,149.5,1.3c0.6,3.8,1.5,7.5,2.1,11.3c1.9-1.5,4.7-2.6,7.9-2.6h1.1l2.6-8.3c3-0.2,8.8-0.9,11.5-1.3
		c0.4-3.2,1.5-9.8,1.9-13c17.9-15.8,34.8-39.9,61.7-38c10.9-1.1,20.9,2.6,30.1,7.9c-0.4,0.2-0.6,0.6-1.1,0.9
		c-1.3,0.2-2.6,0.2-3.8,0.2c4.5,5.1,8.8,10.9,12.4,16.9c0,0.4-0.2,0.9-0.2,1.3c2.6,4.1,4.5,8.5,4.9,13.2c-1.9-2.8-3.6-5.6-6-7.9
		c-0.4,1.5-0.6,3-1.1,4.5c3.4,16.4,3.6,33.7-3.2,49.1c0.6-10.3,2.3-20.7,0.2-30.8c-2.6,22.9-9,47.8-27.8,62.8
		c3.6-8.3,7.9-16.4,8.5-25.6c-2.8,3.6-4.7,7.7-7.5,11.3c-4.5,6.2-10.3,11.7-16.7,16c-1.7-0.4-3.4-0.2-5.3-0.2c3-3.4,5.6-7,7.5-11.1
		c-3.6,4.1-7.7,7.9-12.6,10.7h-2.3c0.2-0.2,0.2-0.4,0.4-0.6c-2.6,1.9-5.8,4.5-6.2,6c0.2,0.4,0.6,1.1,1.1,2.3
		c1.9,4.5,10.5,8.3,14.5,11.3c4.7,3.4,9.2,6.8,13.9,10s16.4,12,23.3,12.8c-1.7,1.9-3.4,3.6-5.1,5.6c2.6,1.9,5.1,4.1,7.7,6
		c7,19.9,12.8,40.4,19.2,60.7c7.5,17.5,19.4,32.7,33.1,45.7h0c-10.9-1.9-22-3.8-32.9-5.3c-15.4-1.9-31-3-46.6-1.7
		c-20.1,1.3-39.7,4.7-59.4,8.1c-20.1,3.6-39.5,9.8-59.6,13.9c-13.2,2.8-74.3,10.3-88.2,10.5c-3-0.2-5.8-0.2-8.8-0.4
		c-25.2-1.9-50-6.8-75-10.7c6.6-1.7,13.5,0.9,20.1-0.2c6.6-5.8,10.9-13.5,10.9-21.8c-4.1-2.3-7.9-6.6-13.2-5.3
		c-30.3,5.8-61.3,11.7-92.7,11.1c-10.7,1.3-35.5-6.4-29.7,15.8c-6,1.1-11.7,2.1-17.7,3.4c-14.7,3.4-28.6,9.2-43.4,12
		c-1.7,0.2-3.4,0.6-5.1,1.3C495,506.4,492.6,470.7,501.4,439.5z M737.6,588.4c14.9-6.4,42.3-13,42.3-13c17.3-1.5,32.9,9.8,39.7,16
		c1.7,5.3,3.2,10.9,5.1,16.2c-7.5-2.6-14.9-4.3-22.6-5.3c-25.8-1.9-52.3,4.1-74.1,15.8c1.3-4.5,2.6-9,3.8-13.2v0
		C733.1,599.3,735,593.5,737.6,588.4z M632.5,605.7c-12.6-4.1-25.2-11.1-33.1-22.4c-2.6-3-3.6-9.6,1.3-10.7c4.9-1.3,10,0.2,14.7,1.5
		c18.4,5.1,36.7,10.7,54.9,16.2c4.9,1.9,11.1,3.2,14.3,8.3c0.9,4.3-4.3,6.4-7.5,7.7v0C662.6,611,646.8,609.8,632.5,605.7z
		 M683.3,572c-48.3-13.5-125.6-47.8-148.9,20.7c11.1-7.9,30.3-16,37.6,1.1c10,23.3,19.4,48.1,43.8,58.3c-5.6-8.1-13.2-14.9-15.8-25
		c8.8,8.1,15.4,19.2,26.7,23.9c-8.1-10.9-18.4-20.7-21.4-34.8c8.5,9.6,15.2,21.8,26.3,28.6c-4.1-8.1-9.8-15.4-12.6-24.1
		c28.4,19.9,42.7,6.8,71.8,1.7c-7.3,5.3-15.4,9-20.7,16.2h0c11.7-5.3,23.3-12,35.9-15.2c1.7-0.9,3.4-1.5,5.3-2.1l1.9-0.6
		c-1.3,3.2-2.6,6.2-3.8,9.4c-10.7,8.5-19.2,18.8-25,30.3c-0.9,3-1.9,6.2-2.8,9.4c-6,5.1-12.4,9.4-19.4,12.6
		c-21.6,10.3-46.1,12.2-69.4,8.8c-5.6-1.1-11.3-1.7-16.7-3.4c-9.8-3-19-8.5-26.3-16c-6.6-6.8-11.7-15.2-15.2-24.1
		c-7.5-20.1-13.7-40.8-14.9-62.4c-0.2-7.5-0.9-15.2,1.7-22.2c2.8-8.1,9.2-14.7,16.7-18.8c10.9-6.2,23.5-8.8,35.9-10.9
		c22.6-3.6,45.5-6.4,68.6-5.1c5.3,0.4,10.9,0.9,16.2,1.7c12.4,2.1,24.8,4.9,36.3,9.8c8.8,3.6,17.3,8.8,22.9,16.7
		c4.5,6.2,6.4,13.9,6.4,21.4C710.7,579,696.6,575.8,683.3,572z M930.5,889.1c-8.1,15.6-20.3,28.6-33.7,39.9c-1.3,1.7-3,4.1-5.1,4.3
		c-16.9,13.5-34.2,25.8-53,35.9c-42.1-4.3-84.4,1.9-126,11.7c-17.3-7.7-33.1-17.7-48.5-28.6c1.3,0,2.6,0,3.6-0.2
		c-0.6-1.9-2.1-6-2.8-7.9c-4.7-0.4-9.2-0.9-13.9-1.5c-11.7-9.2-22-19.6-29.3-32c-0.6-1.1-0.6-2.3-0.4-3.4
		c-27.3-15.6-56-30.1-79.9-49.5c-10.9,0.2-21.8,1.3-32.7,2.8c-5.1-5.8-9.8-11.7-14.3-18.2c-19-20.1-24.8-47.6-35.7-72
		c-12.4-33.5-9-69.6-2.1-103.8c-16,3.6-19.2,19.6-23.9,32.9c-0.4-11.7,4.9-35.2,9.4-50v0c0.2,0.2,0.6,0.6,1.1,0.9
		c3.4-22,11.3-43.4,31.2-55.3c-5.6-1.3-11.1-2.3-16.9-3.6c13.2-11.1,21.1-24.1,26.1-38.7c0.2,1.9,0.2,3.6,0.2,5.6
		c-0.2,4.1-0.9,8.3,0.6,12.4c1.1,2.3,3.6,3.2,5.6,4.7c6.6,4.5,10.5,12,13,19.4c3.8,11.3,7,22.9,10.5,34.2
		c3.4,11.5,7.3,23.3,13.5,33.7c8.3,14.1,21.4,25.2,36.1,32c20.9,9.8,44.8,12.4,67.7,9.6c13.7-1.9,27.1-5.6,39.5-11.5
		c1.1-0.6,2.3-1.1,3.4-1.7c-10.5,19.9-11.3,44-6.6,68.3l2.3,0.2l7.3,0.6c-0.2-1.7-0.6-3.4-0.9-5.1c-3.2-14.7-4.3-30.3-1.9-45.1
		c0-7,1.5-14.3,3.8-21.4c6.2-3.6,12-7.9,17.1-12.8c11.1-10.7,19.2-23.9,25.4-37.8c22.9-14.7,51.5-23.1,80.7-18.8
		c10.7,0.6,21.6,3,32,7c3.2,5.8,6.6,11.3,10.5,16.9c-6.4-4.3-14.3-6-21.4-3.6c-27.1,0-43.4,10.9-70.5-1.5
		c-16.2,3.2-25.2,17.9-35.7,29c19.2,26.5,35.5,70.1,68.1,70.1c27.1,0,54.2-32.5,70.5-65.1c1.3-5.3,1.1-10.5-0.4-14.9
		c6.6,7.7,14.3,14.5,23.1,19.9c5.3,3.4,11.1,6,17.1,8.1c7,13.2,12,27.3,14.7,41.4c-1.1-13.5-4.1-26.7-9.2-39.7
		c2.8,0.9,5.8,1.5,8.5,1.9c8.8,1.5,17.5,1.9,26.5,1.9c23.1,0.2,46.6-4.1,67.3-15.2c10.9-5.8,20.9-14.3,25.8-25.8
		c10.5-24.3,18.2-49.5,23.5-75.4c0.9-4.1,2.8-7.5,5.1-10.7c-1.1-5.6,3.4-10.3,8.1-11.1c0.6-0.2,1.5-0.4,2.3-0.4
		c2.6-1.1,5.8-0.9,8.1,0.2c14.5,6.8,22.6,27.6,28.6,41.2c7.3,16.7,14.3,34.6,16.9,52.5c0.6,3.8-1.1,7-3.6,9
		c3.6,30.3-3.6,63.4-12,92.3c-3.2,11.3-7.3,25.4-13.5,38.2c-2.1,7.8-6.1,15.2-11.1,21.8c-12.2,5.8-24.4,11.7-36.5,17.5
		c-1.3,0.6-2,1.5-2.3,2.5c-7.6-0.8-15.2-1.4-22.9-1.6c-26.3,23.1-57.7,40.6-87.8,59.4C931.3,886.3,931.3,887.8,930.5,889.1z"/>
</g>
<g>
	<path d="M1299.7,866.2c1.9-1.1,3.3-3,4.8-4.6c2,1.6,5.5,2.3,5.7,5.5c-1.4,1.6-3.4,0.7-5.1,0.4c0,2-0.1,4.1-0.4,6.1
		c-1.5-1-2.9-2-4.3-3.1l-3,2.7c-0.7-1.5-1.4-3.1-2.1-4.6c-1.9,0-3.8-0.1-5.7-0.1c1.7-2.7,3.4-5.3,5.3-7.9
		C1296.4,862.6,1297.5,865,1299.7,866.2 M1164.7,812.8c1.1-29.5,7.3-58.4,13.6-87c-3-5.1-9.9-7.1-12.5-12.8
		c-0.9-2.4-0.1-6.3,2.9-5.9c9.9,1.2,18.9,8.7,29,5.3c19-2.8,38.3-1.1,57.2,1.5c5.6-3,12.2-9.7,18.7-5.7c3.7,7.6-5.9,10.5-9.9,14.4
		c-1,17.1-1.2,34.2-1.3,51.3c-1.6-0.2-3.2-0.3-4.8-0.5c-0.7-17.3,0.5-34.4,1.5-51.7c4.1-2.9,8.9-5.2,11.2-10.1
		c-4.5,1.4-8.7,3.9-12.3,7.1c-12.9-3.2-26.2-2.6-39.4-3c-8.9-0.4-17.7,1.5-26.5,2.6c-7-2.7-14-5.7-21.5-6.7c2.1,6.4,9.1,7.9,13,12.6
		v2.8c-6.5,28.6-11.9,57.6-13.7,87C1170.5,819.3,1163.5,816.7,1164.7,812.8"/>
	<path d="M1193.8,727.7c1.5-1.3,2.9-2.7,4.5-3.8c2.9,0.1,3.1,3.7,4.2,5.8c-3.3,0.3-6,2-8,4.8l-2-2.8l-4.8,1.8c0.5-1.7,1-3.3,1.6-5
		c-0.7-0.7-2.1-2-2.8-2.7C1189.3,724.2,1191.7,725.5,1193.8,727.7 M1232.3,725.9c2.7,1.2,4.2,4,6.1,6.2c3.5-1.4,5.9-4.5,8.4-7.4
		c2.6,2.3,4.9,5.1,6.1,8.5c-1.9-0.3-3.9-0.8-5.8-1.2c-0.2,2-0.5,4-0.8,6c-1.8-1.1-3.5-2.2-5.3-3.3c-1.4,1.8-2.9,3.5-4.3,5.2
		c-0.6-1.7-1.2-3.5-1.8-5.2c-1.2,0-3.7,0.2-4.9,0.2C1230.7,731.9,1229.7,728,1232.3,725.9 M1214.5,727.1
		c-6.8,3.7-13.1,10.3-13.4,18.8c3.7,0.5,7.4,2,11.1,1.1c6.6-2.8,11.8-9.8,10.6-17.6C1220.2,728.2,1217.5,726.8,1214.5,727.1
		 M1215,741.6c-0.2,2.3-4.1,4-6,2.7C1208.9,741.7,1213.1,740.8,1215,741.6 M1217.7,735.5c-2.1,3.3-6.2,3.6-9.6,4.3
		c1.6-3.1,3.6-6.1,6.5-7.9C1216.7,730.5,1220.1,733.6,1217.7,735.5 M1243.5,752c2.8-1.1,5.3-2.6,8.1-3.7c-3.7,6.2-12.1,9.7-18.4,5.5
		c-1.5-0.9-5.2-2.6-2.8-4.8C1234.7,747.8,1238.8,753.9,1243.5,752 M1212.2,752.2c4.6,0.7,9.1,0.3,12.9-2.8
		C1223.3,754.9,1215.4,758.1,1212.2,752.2 M1200.1,751c-3.3,4.1-11.3,3.8-13.2-1.6C1191.2,751,1195.7,751.4,1200.1,751
		 M1158.1,775.3c0.8-6,2.1-12,4-17.8c0.5-1.7,1.5-2.4,3.3-2.3c-0.1,6.7-1.7,13.2-2.8,19.7C1161.4,775.1,1159.2,775.2,1158.1,775.3
		 M1367.7,822.1c-2.1-6.4-9.7-7.4-15.2-8.7c-7.7-1-15.4-1.1-23.1-2.2c0.9-2,3-3.7,2.7-6.1c-3-5.5-9.7-4.8-14.8-5.1
		c-24.1-0.1-48.2,0.8-72.3,0.3c-2.7,0.2-5.9,0.2-8,2.4c-4.6,5-11.1,7.3-17.3,9.1c0.5-2.9,2.3-5.1,3.8-7.5c0.8-1.8-1.5-2.3-2.5-1.4
		c-3.1,1.9-6,4.2-9.3,5.4c0.3-2.2,0.7-4.4,1-6.6c-4,2.5-7.9,5.3-12.4,6.5c1.3-2.5,3.3-4.5,5.1-6.7c-4.3,0.6-7.9,3.6-12.2,4.1
		c1.7-2.9,3.8-5.5,5.2-8.6c-3.2,1.1-6.3,2.6-9.5,3.7c5-8.2,11.9-15.4,19.9-20.2c7.3-4.4,15.1,0.6,21.9,3.7c5.2,2.8,11.9,2,16.1-2.4
		c-3.7,0.9-7.5,4.6-11.4,2.6c-5.8-2.9-11.6-6-17.9-7.7c-3.1-6.7-3.8-15.4-9.4-20.3c-6.9,0.9-13.6,3.8-19.5,7.5
		c-2.8,1.5-3.4,5.1-4.6,7.9c-1.8-0.1-3.5-0.1-5.3-0.2c2.3,1,4.7,1.7,7.1,2.4c1.5,6.1,2.7,12.5,5.8,18.1c-2.9,3-5.8,6.2-7,10.4
		c4.7,1.2,7.8,5.6,12.6,6.6c3.2,1.9,6.7,0,10-0.7c4.3,0.5,8.7,1.3,11.9,4.5c6.9,1.6,14.7-1.8,19.5-7.3c23.9,0.8,47.7-0.4,71.6-0.6
		c5.2,0.2,11-0.6,15.6,2.7c-2.5,2.8-6.5,4.5-7.8,8.3c3.3,0.2,6.7,0.3,10,0.5c11,1.4,22.6,0.1,32.7,5.7c-1.3,8.4-10.6,6.3-15.3,10.9
		c3.7,1.5,7.5,2.5,10.9,4.6c-3.9,10.7-16.2,6.9-24.5,9.2c-0.3,6.8,8.1,4.4,12.2,4.5c7.4-2.5,16.3-5.6,19.2-14c0.8-3-2.4-4.1-4-5.6
		C1362.1,828.9,1366.5,826.5,1367.7,822.1 M1206.3,758.8c2.1,0.1,2.8,4.3,0.3,4.3C1204.4,763.2,1203.8,758.8,1206.3,758.8
		 M1208.9,778.2c-0.9-4.8-1.4-9.8-3.3-14.3c0.7,0,2,0.1,2.7,0.1c3,3.7,4,8.9,6.3,13.1C1212.7,777.5,1210.8,777.9,1208.9,778.2
		 M1206.5,779.8c-4.3,2.6-8.3,5.8-12,9.3c-2.6-6.6-5-13.7-5-20.9c2.8-4.6,8.2-6.2,12.9-7.4C1203.2,767.2,1204.5,773.6,1206.5,779.8"
		/>
	<path d="M1235.1,758.8c-4,4.5-10.2,5.4-15.5,3.2c-0.2-0.9-0.5-2.7-0.7-3.6c2.9,0.8,5.7,2,8.7,2.5
		C1230.1,760.3,1232.6,759.4,1235.1,758.8 M1245.6,764.6c-2.9,4-8.8,5.8-12.9,2.5C1237.3,768.2,1241.5,766.8,1245.6,764.6
		 M1258.7,784.7c0.3-0.9,0.8-2.6,1-3.5c3.7-0.1,7.3,0,11,0.2c0.1,0.7,0.4,2,0.6,2.6C1267.3,786.1,1262.9,786.2,1258.7,784.7
		 M1210.9,787.4c2.5-1.7,5.5-5.6,8.4-2.5c-3.9,4.1-8.5,7.8-13.9,9.2C1205.6,790.6,1208.8,789.3,1210.9,787.4 M1216,795
		c2.9-4.2,7.3-6.8,11.7-8.8C1227.9,792,1220.7,794.9,1216,795 M1268.8,792.6c-9.4,0.7-18.8,0.5-28.1-0.7c3.5-5.8,10.8-4.2,16.3-4.4
		c5.8,0.5,12.1-1.7,17.4,1.7C1272.8,790.7,1271.3,792.8,1268.8,792.6 M1232.3,790.5c1.3,5.1-4.1,7.2-8,6.7
		C1226.5,794.5,1228.6,791.2,1232.3,790.5 M1245.6,919.6c4,2,8.5,1,12.6,0.4c0.1,1.1,0.5,3.4,0.6,4.5c1,0,3,0.1,4,0.2
		c1.8-5.4,3.3-10.9,4.3-16.6c3.8,2.1,7.5,4.6,11.7,5.8c5.9,1.5,12.1,0.9,18.1,0.6c0.7,5.1,1.6,10.2,2.5,15.3
		c-4.7,0.3-9.9,0.1-14-2.7c-2.7-2.2-4.8-5.3-8.3-6.4c-0.3,8,8.3,11.2,14.1,13.6c8,0.6,16.8-0.8,22.7-7c6.1-6.4,13.5-13.6,22.9-12.2
		c-0.6,4.3-5.5,4.8-7.5,8.1c-2.7,3.9-5.1,8.1-8.6,11.2c-6.8,6-15.5,8.9-24.2,9.7c-2.4-1.5-2.7-4.9-4.2-7.3c0.3,2.3,0.7,4.5,1.1,6.8
		c-1.9,0.1-3.7,0.2-5.6,0.3l0.4,3.6c5.3,2.1,11,0.9,16.4,0.5c0.6,7.2,1.2,14.4,2.5,21.5h4.4c1.4-7.7-1.8-15.4-1.9-23.1
		c3.6-1.9,7-4.2,10.6-5.9c12,2.4,24.3,5,36.5,3.9c6.9-1.7,13.8-6,17.2-12.8c1.9-3.1-1-6-2.3-8.7c9.1-16.6,19.3-33.3,22.2-52.6
		c-1.8-4.3-6.5-6.3-10.6-7.3c-9-1-18.1-3.2-27.2-1.5c-4.9,1.2-7.1,6.4-8.6,10.8c-4.7,12.8-9.2,26-16,37.7c-6.4,2-12.2,5.4-17.6,9.5
		c-3.6,0.9-7.3-1.6-11-2.1c-0.7-6.8-0.7-13.9,1.4-20.5c0.4-3,3.9-1.3,5.7-1.4c10.5,1.8,22.5-3.3,27.2-13.7c3.3-7.4-0.5-16.7-7-20.7
		c-5.2-3.2-11.2-4.3-16.9-6.3c5.5-6.6,12.4-11.9,16.7-19.5c0.1-0.9,0.4-2.7,0.5-3.7c-6.3-4.7-12.8,2.1-19.2,3
		c0.5-8.5-6.3-14.4-12.6-18.1c-5.9-2.1-13-3.4-18.6,0.2c-8,4.2-13.4,12.7-22.2,15.5c-3,1.2-5.7-1.5-8.4-2.6c0.3,4,0.9,8,1.8,11.9
		c-0.9,0-2.5-0.2-3.4-0.2c1,5.7,2.8,11.3,5.4,16.4c-6.1,9.9-5.4,22.1-2.9,33.1c1.7,6.2-0.9,12.7-5,17.1c-2.5-1.6-5.1-3.2-7.8-4.4
		C1235.9,910.2,1240,917.2,1245.6,919.6 M1380.8,867.2c0.6,6.2-1.6,12-4,17.5c-5.3,12.1-11.3,23.9-18.5,34.9
		c-1.3,1.5-2.1,3.7-4.1,4.1c-4.6-0.5-9.1-2-13.4-3.6c0.5-2.1,1-4.3,1.4-6.4c4,1.3,7.9,3.1,11.9,4.2c2.5-1.2,3.2-4.6,4.7-6.9
		c6.5-13.4,15.2-25.9,19.2-40.5c-7.5-2.8-15.5-0.8-23.2-1.5c0.9-4,5.2-4.3,8.4-4.4C1369.2,864.8,1375,866.2,1380.8,867.2
		 M1329.4,930.3c9.1,2.7,18.1,6.6,27.7,6.5c5.9-0.1,8.9-6.3,13.5-9.2c-0.1,7.5-8.1,10.1-13.6,12.3c-10.7,1.2-21.6-1-32.1-3.1
		C1326.4,934.6,1327.9,932.5,1329.4,930.3 M1335.1,924.1c7-0.1,13.4,4,20.4,3.7c5.2-3.4,8.4-9.2,11.5-14.6
		c7.6-14.2,15.5-28.6,18.6-44.8c0.7,0.6,2.1,1.7,2.7,2.2c1,5.7-1.6,11.1-3.6,16.2c-5.5,12.9-12.4,25-19.5,36.9
		c-2.4,4-5.7,8.4-10.6,8.6c-7.6-1.1-15.1-3.4-22.4-6C1332.8,925.7,1334.3,924.6,1335.1,924.1 M1354.2,917
		c-5.6-2.5-11.3-4.8-17.3-6.1c7.1-12.4,11.6-26.2,16.6-39.7c7.7-1.4,16.2-2.9,23.6,0.6C1371.3,887.8,1362.3,902.2,1354.2,917
		 M1304.3,928.3c-0.2-2.1-0.3-4.2-0.4-6.4c2.2,0.5,4.4,0.9,6.5,1.3C1309,925.8,1307,927.7,1304.3,928.3 M1274.1,906.7
		c-3.1-1.8-7.6-3.8-6.8-8.4c0.7-11.2,0.3-23.7,7.1-33.1c2.1-3.3,2-7.8,4.9-10.6c-1.4-3.9-2.6-8-2.8-12.2c3.9,0.9,6.7,4,9.1,7.2
		c-1.9-0.6-3.7-1.1-5.6-1.6c0.9,2.9,2.7,5.3,4.5,7.8c1.8-0.8,3.6-1.5,5.5-2.1c2.3-4.7,7.9-4.3,11.8-6.3c5.6-1.8,10.5-5.4,16.1-6.9
		c-3.4,4.9-8.1,8.5-12.2,12.7c-0.8-0.2-2.3-0.7-3-0.9c1,1.8,1.6,3.9,3,5.4c6.6,2.6,13.8,3.2,20.1,6.9c4.3,3.6,8.7,10,5.8,15.9
		c-6.1,9.6-19,13-28.9,8.4c-4.1-2.3-7.7-5.5-12.1-7c-0.2,5.8,5.7,8.2,9.3,11.5c-1.5,5.1-2.4,10.3-3.3,15.6
		C1289.1,909.8,1281,910.4,1274.1,906.7 M1257.6,915.8c-4.7,2.8-10.3,1.1-14.3-2.2c9.4-2.2,14.2-13.8,11.8-23.1
		c-2.7-11.6-2.9-25.5,5.6-34.6c-1.3-2-2.4-4.1-3.6-6.2c2.9-0.9,5.7-2.1,7.5-4.7c-2.1-2-4.2-4.1-6.2-6.2c4.8-3.8,10.3-6.4,14.9-10.4
		c3.4-2.7,6.6-6,10.5-7.8c7.8-2.3,16.8,1.7,20.6,9.3c1.5,9.6-9,12.1-15.3,15.2c-3.3-3.8-6.8-8.1-11.9-9c-3.2-0.9-5.6,2.3-6.9,5
		c-0.8,5.3,1.5,10.4,3.3,15.2c-4.3,5.2-8.8,10.9-9.8,17.9c-1.9,11.4-1.9,23.1-2.9,34.6C1260.5,911.4,1260.3,914.8,1257.6,915.8
		 M1195.5,833.1c2.7-5.7,5.6-11.3,9.3-16.2c1.2-2,3.3-2.9,5.5-3c-0.2,5.2-1.8,10.1-1.9,15.3c7.5-1,14.8,1.3,20.9,5.9
		c3.2-3.5,5.4-8.5,10-10.2c0.6,2.3,1.8,4.8,1,7.3c-1.7,5.6-2.9,12.9-8.9,15.2c1.4-3.7,2.5-7.6,3.3-11.5c-2,1.5-3.8,3.2-5.6,5
		c-3.4-3.3-6.9-7.2-11.8-7.9c-4.5-1-9,0.3-13.4,1.6c0-2.6,0-5.3-0.1-7.9C1201.4,829.3,1199.3,832.8,1195.5,833.1 M1143.1,869.8
		c4.8-2.4,3-9.3,2.1-13.6c2.7-2.2,5.8-4.4,7.1-7.9c0.4-3.3,0.3-6.7,0.4-10c4-2.6,12.1-6.7,7.4-12.5c-3.9,2.6-7.6,5.9-12.2,7.3
		c-5.6-1.6-10.4-5.8-16.3-6.4c-4-0.3-9.5-1.4-11.6,3.4c0.1,4.4,4.3,6.1,7.6,7.5c5.9,2.4,12.3,1.6,18.5,2.1c0.1,2.2,0.7,4.4,0.1,6.6
		c-1.6,2-3.5,3.6-5.4,5.2c-6.4-4.9-13.9-9.5-22.1-7.7c-4-0.3-4.2,5.9-1.4,7.7c6.1,4.8,14.2,4.4,21.5,5.2c1.6,1.4,2.7,3.4,2.7,5.6
		c-1,2.8-4,3.8-6.6,4c-6.8,0-13.2-2.6-19.7-4.4c-1.2,3.3,1.2,5.5,3.9,6.5C1126.6,871.3,1135.2,872.3,1143.1,869.8 M1121.2,847.1
		c3.8,0.8,7.5,2,10.7,4.4C1128.3,851,1122.6,851.6,1121.2,847.1 M1124.5,830.4c4.7,0.2,9.5,1,13.5,3.9
		C1133.1,835.1,1128.5,833.3,1124.5,830.4 M1172.3,846.2c4.6-7.2,13-14.3,21.7-10.6c0.6,1.9,1.1,3.8,1.5,5.7c2,0.1,4.1,0.2,5.7-1.2
		c-0.4,0.7-1.1,2.1-1.4,2.8c-2.2,0.1-4.5,0.2-6.7,0.2c-0.6-1.8-1.3-3.6-1.9-5.4c-6.6,1.2-12.6,5.7-15.4,12.1
		c-1.9,4.3-0.9,9.2-0.9,13.7C1169,860.1,1169.9,851.7,1172.3,846.2 M1214.2,849.1c2.5-0.6,4.9-1.3,7.4-2.1c-0.8,1.3-1.6,2.6-2.3,3.9
		c-2.3,0-4.6-0.1-6.9-0.3c-0.3-2.3-0.6-4.6-0.8-6.8C1213.9,844.3,1213.6,847.2,1214.2,849.1"/>
	<path d="M1183.1,847c1.3-3,4.8-2.3,7.2-1.5c0.1,2,0.1,4,0.1,6c-3.2,0.7-3.6-2.4-4.5-4.7c-0.2,1.3-0.7,3.9-0.9,5.2
		C1182.8,850.9,1182.1,849.3,1183.1,847 M1107.2,911.5c10.4,3.2,19.8,9,30.5,11.2c8.5,3.4,17.7,4.5,26.5,6.6c1.9,0.4,3.8,0.4,5.6,0
		c-0.2-2.6-0.5-5.1-0.8-7.7c1-0.3,3.1-0.8,4.2-1c1.9,4.3,4,8.5,6.5,12.4c-4.8,0.5-9.9-1.3-14.3,1.3c7.3,2,15,1.8,22.3,4
		c1.8,0.8,4.3,2.3,4.2,4.7c-2,2.9-5.1,5.2-5.5,9.1c7.7,0.1,15.8-3.9,23,0.2c-1,2.9-1.9,5.8-2.5,8.9c3.9,0.2,8.1-0.3,11.5,2
		c-0.5,1.8-1.1,3.6-1.7,5.4c2.1-2.1,3.2-4.7,3.3-7.8c-2.6-1.4-5.3-2.5-8.1-3c0.9-3.6-0.2-6.9-2.1-9.8c10.3-2.5,19.1-10.6,22.9-20.9
		c1.1-2.7-0.3-6-3.5-5.1c-5.9,3.3-11.1,8.1-17.7,10c3-26.1,12.8-50.5,21.2-75c0.9-2.2,0.8-4.6,0.6-6.9c-1.8-0.1-3.1,0.6-4,2.1
		c-6,11.4-10.5,23.6-14.1,36.1c-12.7,1.5-25.6-2.8-36-10.5c-1.6-2.1-1.9-5-3.4-7.2c-3.2,5.2-5.6,10.9-7.6,16.7
		c-2.8-0.6-5.6-1.4-8.5-1.7c-2.7,0.5-5,2.3-7.3,3.8c-1.9-1.8-3.8-3.8-6.4-4.4c-8.5-2.2-16.7-5.4-25-8.1c-5.4-1.7-10.6-5.1-16.4-4.4
		C1105.3,885.5,1102.5,899.1,1107.2,911.5 M1140,886.1c0.9,8.6,2.3,17.3,2.2,26c-11.7-1.3-22.9-5.3-33.8-9.8
		c0.3-8.6,0.9-17.3,0.8-25.9C1120,877.8,1129.6,883.5,1140,886.1 M1227.7,927c-2.8,8.3-10.2,14.3-18.2,16.5c0.2-2.4,0.4-4.9,0.7-7.3
		C1216.9,935.2,1221.8,930.1,1227.7,927 M1160.3,925.7c-2.6-1.1-7.3,0-7.8-3.9l6,0.9C1158.9,923.5,1159.9,925,1160.3,925.7
		 M1163.9,919.6c-4.6-0.2-10.3,0.7-13.6-3.7c6.6-2.8,10.6-9.2,14.7-14.9c-0.9-0.2-2.6-0.7-3.5-0.9c-2.8,3.6-5.7,7.2-9.5,9.6
		c-0.3-4.9-0.3-9.7-0.2-14.6c2.1-2.8,5.7-4,8.5-6.1c1.9-1.7,4,0.4,5.8,1c-0.1,3.7,0,7.4,0.5,11c5.5-5.1,5.8-13.4,9.4-19.8
		c5,2.6,9.8,5.5,15.1,7.4c7.4,2.8,15.4,2.7,23.2,3.7c-3.3,18-10.3,35.6-8.5,54.3c-3.9,0.7-7.9,0.8-11.9,1.1c0.2-2.7,1.8-5.8,0.5-8.3
		c-2.9-2.4-6.5-3.7-9.9-5.5c4.3-1.7,8.5-3.4,12.6-5.6c0.3-0.7,0.8-2.1,1.1-2.8c-2.3,0.8-4.7,1.5-7.1,2.1c-0.1-3.6-0.2-7.2,0-10.8
		c2.5-3.4,7.8-4.3,8.5-9.3c-3.1,1.6-6,3.5-9,5.3c-2.7-4.8-4.8-10.6-9.5-13.7c-4.5-1.2-9.6-0.1-12.7,3.7c-3.8,4.3-9.8,8.8-7.6,15.5
		c4.5-6.2,8.8-13.3,15.6-16.9c1.7-1,3.3-0.7,4.6,0.8c6.5,7.3,8.5,17.7,6.9,27.4c-2.2-0.2-5,1-6.8-0.9c-2.1-4.4-3-9.7-7.1-12.7
		C1170.5,916.5,1167.6,919.8,1163.9,919.6 M1149,921.6c-2.1-1-2.1-2-0.1-3C1151,919.6,1151,920.6,1149,921.6 M1147.7,888.8
		c-0.8,8.3-0.8,16.7-0.3,25c-0.5-0.2-1.5-0.5-2.1-0.7c-1.6-8.4-1-17.2-2.2-25.7C1144.7,887.8,1146.2,888.3,1147.7,888.8
		 M1145.2,916.9c0.1,0.8,0.3,2.5,0.4,3.3c-11-2.8-21.9-5.8-32.5-10c-1.5-0.6-2.8-1.5-3.9-2.7C1121.3,910,1133.3,913.5,1145.2,916.9"
		/>
	<path d="M1181.8,866.8c-1.1,0-3.2,0-4.3-0.1c-0.6-2.9-0.6-5.8-0.1-8.7c0.9,0.2,2.7,0.7,3.6,0.9
		C1181.3,861.6,1181.5,864.2,1181.8,866.8 M1190.5,873.1l-5.1-3.3l-0.3-8.7c0.8,0.2,2.5,0.5,3.3,0.7
		C1189.3,865.5,1190,869.3,1190.5,873.1 M1198.8,874.8c-4.1-2.6-5.4-7.6-4.9-12.4C1199.1,863.8,1198.6,870.3,1198.8,874.8
		 M1208.3,873.1c-3.9-1.1-5.9-4.3-5.5-8.5c0.8,0.1,2.5,0.2,3.3,0.3C1207,867.6,1207.7,870.3,1208.3,873.1 M1216.8,871.8
		c-1.6-0.8-3.2-1.6-4.8-2.3c-0.1-1-0.2-3-0.3-4.1C1214,866.9,1215.2,869.6,1216.8,871.8"/>
</g>
<g>
	<path class="st0" d="M1920.8,1075.2v-97.3c-86.1-24.4-174.3-20.6-259.9,3.4c-40.1,11.2-80.3,22.7-122.5,21.2
		c-37.2-1.4-73.4-10.8-108.5-22.5c-77.6-25.8-150.9-59.6-235.3-56c-86.9,3.8-169.4,34.1-255.3,44.3
		c-162.1,19.2-333.4-29.8-490.5,25.6c-19.6,6.9-37.8,16.8-57.3,23.9c-19.7,7.2-39.3,7.4-60,4.8c-44.1-5.6-87.8-10.5-132.3-11.1
		c-70-0.8-139.8,6.4-207.8,21.4v42.3H1920.8z"/>
	<path d="M1660.1,978.4l-2.4,0.7c-38.5,10.8-78.3,21.9-119.2,20.4c-40.4-1.5-78.7-12.7-107.6-22.3c-14.5-4.8-29-10-43-15
		c-61-21.7-124.1-44.1-193.3-41.2c-49.6,2.1-98.5,13.1-145.8,23.7c-35.8,8-72.8,16.3-109.7,20.7c-31.1,3.7-62.8,4.8-94.6,4.7
		c1.5-1.6,2.9-3.2,4.4-4.8c1.6,0.6,3.5,0.5,5.2-0.9c4-3.3,8-6.6,12-9.9c13.6-4.4,25-14.4,31.2-27.6c6.4-2.5,13.1-4.1,19.4-6.8
		c7.3-3.1,13.7-7.8,19.8-12.9c3.3-2.8,1.1-7-2.1-8.1c14.2-10.9,26-24.3,39.5-36c13.9-12,30.1-20.4,47.4-26.3
		c19.2-6.5,39.1-10.3,59-14c6.3-1.2,3.6-10.8-2.7-9.6c-35.4,6.6-72.8,13.8-102.2,36c-15.2,11.4-27.5,26-42.1,38.2
		c-14.7,12.3-31.9,21.3-47.5,32.5c-5.8,3.2-11.1,7-16.2,11.2c-6.2,4.5-11.8,9.7-17,15.3c-0.7,0.4-1.5,0.9-2.2,1.3
		c-1.6,1-2.3,2.7-2.3,4.3c-4.4,4.4-8.6,8.8-12.7,13.4c-1.3,1.4-1.5,3.1-1.2,4.6c-30-0.4-60-1.8-89.5-3.2
		c-20.3-0.9-40.7-1.9-61.2-2.5c0-1.5-0.7-2.9-2.3-3.8c-0.2-0.6-0.6-1.2-1.1-1.8c-11.6-13.6-23.2-27.3-36.6-39.1
		c-13.4-11.8-28.7-20.5-43.6-30.1c-27.5-17.7-56-47.2-92-36.8c-6.2,1.8-3.5,11.4,2.7,9.6c33.3-9.6,61.8,21.7,87.4,37.7
		c9.3,5.9,18.6,11.5,27.5,17.9c-3,1.4-4.4,5.4-1.7,8c10.2,9.8,20.4,19.7,30.6,29.5c2.2,2.1,5.2,5.5,8.6,8.3
		c-72.6-1.3-145.5,2.9-214.9,27.3c-10.3,3.6-20.3,8.1-30,12.4c-8.9,4-18.1,8.1-27.3,11.5c-16.9,6.2-35,7.6-58.6,4.7
		c-42.2-5.3-87.2-10.5-132.7-11.1c-69.8-0.8-139.5,6.3-207.9,21.3v6.1c68.4-15.1,138.1-22.3,207.8-21.5c45.1,0.5,90,5.7,132,11
		c24.6,3.1,43.5,1.6,61.4-5c9.5-3.5,18.7-7.6,27.7-11.6c9.6-4.3,19.5-8.7,29.5-12.2c94.5-33.3,196.1-28.5,294.4-24
		c64.5,3,131.2,6.1,195.5-1.5c37.3-4.4,74.4-12.7,110.4-20.8c47-10.5,95.7-21.4,144.8-23.5c68-2.9,127.8,18.3,191,40.8
		c14.1,5,28.6,10.2,43.2,15c29.2,9.7,68.1,21.1,109.3,22.6c41.9,1.5,82.1-9.7,121-20.6l2.4-0.7c90.5-25.3,177.7-26.4,259.1-3.1v-6.2
		C1838.7,951.7,1751,952.9,1660.1,978.4z"/>
</g>
<g>
	<path d="M1043.5,421.4c0-8.8,3.1-16.3,9.4-22.6c6.3-6.3,13.8-9.5,22.5-9.5c4,0,7.9,0.6,11.6,1.9c3.8,1.3,6.9,3.3,9.4,5.9l-7.5,9.1
		c-3.8-3.2-8.1-4.8-13-4.8c-5.6,0-10.2,2-13.6,5.9c-3.4,4-5.1,8.3-5.1,13.1c0,3.7,1.1,6.8,3.2,9.2c2.2,2.4,5.3,3.7,9.4,3.7
		c5.2,0,10.5-2.2,15.9-6.5l5.2,10.6c-2.6,2.3-5.9,4.3-9.9,5.8c-4,1.5-8,2.3-11.9,2.3c-7.9,0-14.1-2.2-18.7-6.7
		C1045.8,434.3,1043.5,428.5,1043.5,421.4z"/>
	<path d="M1096.5,421.2c0-5.6,1.5-10.9,4.5-15.9c3-4.9,6.9-8.9,11.8-11.8c4.9-2.9,10.1-4.3,15.6-4.3c7.7,0,13.9,2.2,18.6,6.7
		c4.7,4.4,7,10.1,7,17.1c0,5.7-1.5,11.1-4.5,16.1c-3,5-7,9-11.9,12c-4.9,2.9-10.1,4.4-15.5,4.4c-7.7,0-13.9-2.3-18.6-6.8
		C1098.9,434.1,1096.5,428.3,1096.5,421.2z M1110.2,420.4c0,3.8,1.1,6.9,3.3,9.3c2.2,2.4,5.1,3.6,8.7,3.6c4.6,0,8.8-1.9,12.5-5.7
		c3.7-3.8,5.6-8.4,5.6-13.7c0-3.7-1.1-6.7-3.3-9c-2.2-2.3-5.1-3.4-8.7-3.4c-4.7,0-8.8,1.9-12.5,5.6
		C1112.1,410.7,1110.2,415.2,1110.2,420.4z"/>
	<path d="M1157,444.6l10.7-54.4h12.9l10.1,25.4c0.3,1.1,0.7,2.4,1.1,4c0.4,1.6,0.8,2.9,1.1,3.8l0.4,1.5h0.2c0.4-3.9,0.8-7,1.3-9.3
		l4.9-25.4h13.3l-10.5,54.4h-12.9l-10.2-25.4c-0.4-1.1-0.9-2.4-1.3-3.9c-0.4-1.6-0.8-2.8-1.1-3.8l-0.4-1.5h-0.2
		c-0.3,3.9-0.7,7-1.1,9.3l-5,25.3H1157z"/>
	<path d="M1214.1,444.6l10.7-54.4h33l-2.1,11.4h-20l-2.3,11.4h16.5l-2.1,11.4h-16.6l-4,20.2H1214.1z"/>
	<path d="M1255.1,444.6l10.6-54.4h13.3l-10.6,54.4H1255.1z M1267.3,386.6l8.4-11.4h13.5l-11.3,11.4H1267.3z"/>
	<path d="M1274.3,444.6l28-54.4h15.6l7.2,54.4h-13.3l-1.1-11.4h-16.9l-5.8,11.4H1274.3z M1299.2,422.5h10.7l-1.1-10.6l-0.5-9.4h-0.2
		c-1.5,4-2.7,7.1-3.9,9.4L1299.2,422.5z"/>
	<path d="M1330.8,444.6l10.7-54.4h12.9l10.1,25.4c0.3,1.1,0.7,2.4,1.1,4c0.4,1.6,0.8,2.9,1.1,3.8l0.4,1.5h0.2c0.4-3.9,0.8-7,1.3-9.3
		l4.9-25.4h13.3l-10.5,54.4h-12.9l-10.2-25.4c-0.4-1.1-0.9-2.4-1.3-3.9c-0.4-1.6-0.8-2.8-1.1-3.8l-0.4-1.5h-0.2
		c-0.3,3.9-0.7,7-1.1,9.3l-5,25.3H1330.8z"/>
	<path d="M1399.5,444.9l6.7-34.3h21.4l-1.4,7.2h-13.1l-1.2,6.2h10.4l-1.4,7.2h-10.4l-1.3,6.5h13.8l-1.4,7.2H1399.5z"/>
	<path d="M1427,444.9l6.7-34.3h8.2l6.4,16c0.2,0.7,0.4,1.5,0.7,2.5c0.3,1,0.5,1.8,0.7,2.4l0.3,0.9h0.1c0.2-2.5,0.5-4.4,0.8-5.9
		l3.1-16h8.4l-6.6,34.3h-8.1l-6.4-16c-0.3-0.7-0.5-1.5-0.8-2.5c-0.3-1-0.5-1.8-0.7-2.4l-0.3-1h-0.1c-0.2,2.5-0.4,4.4-0.7,5.8
		l-3.2,16H1427z"/>
	<path d="M1116.2,511.1l8.4-42.7h10.2l7.9,19.9c0.3,0.9,0.6,1.9,0.9,3.1c0.3,1.2,0.6,2.2,0.8,3l0.3,1.2h0.1c0.3-3.1,0.6-5.5,1-7.3
		l3.8-20h10.4l-8.3,42.7h-10.1l-8-19.9c-0.3-0.8-0.7-1.9-1-3.1c-0.4-1.2-0.6-2.2-0.9-3l-0.3-1.2h-0.1c-0.2,3.1-0.5,5.5-0.9,7.3
		l-3.9,19.9H1116.2z"/>
	<path d="M1162.5,492.7c0-4.4,1.2-8.6,3.5-12.5c2.3-3.9,5.4-7,9.3-9.2c3.9-2.3,8-3.4,12.3-3.4c6.1,0,10.9,1.7,14.6,5.2
		c3.7,3.5,5.5,8,5.5,13.4c0,4.5-1.2,8.7-3.6,12.7c-2.4,3.9-5.5,7.1-9.4,9.4c-3.9,2.3-7.9,3.5-12.2,3.5c-6.1,0-10.9-1.8-14.6-5.4
		C1164.4,502.9,1162.5,498.3,1162.5,492.7z M1173.3,492.1c0,3,0.9,5.4,2.6,7.3c1.8,1.9,4,2.8,6.8,2.8c3.6,0,6.9-1.5,9.8-4.5
		c2.9-3,4.4-6.6,4.4-10.8c0-2.9-0.9-5.3-2.6-7.1c-1.8-1.8-4-2.7-6.8-2.7c-3.7,0-6.9,1.5-9.8,4.4
		C1174.7,484.5,1173.3,488,1173.3,492.1z"/>
	<path d="M1208.1,505.7l6.2-7.4c1.2,1.2,2.7,2.1,4.6,2.8c1.9,0.7,3.7,1.1,5.5,1.1c1.3,0,2.5-0.3,3.5-0.9c1.1-0.6,1.6-1.6,1.6-2.8
		c0-0.7-0.4-1.4-1.2-2c-0.8-0.7-1.8-1.3-3-1.9c-1.2-0.6-2.5-1.3-3.8-2.1c-1.4-0.8-2.7-1.7-3.8-2.7c-1.2-0.9-2.2-2.2-3-3.7
		c-0.8-1.5-1.2-3.2-1.2-5.1c0-4,1.6-7.3,4.8-9.7c3.2-2.4,6.9-3.6,11.1-3.6c6.1,0,11,1.7,14.6,5l-5.6,7.7c-1-0.8-2.4-1.6-4.1-2.2
		c-1.7-0.6-3.4-0.9-5.1-0.9c-1.3,0-2.5,0.3-3.6,1c-1.1,0.6-1.7,1.6-1.7,2.8c0,0.7,0.4,1.4,1.2,2.1c0.8,0.7,1.8,1.3,3,1.9
		c1.2,0.6,2.5,1.2,3.9,2.1c1.4,0.8,2.7,1.7,3.9,2.6c1.2,0.9,2.2,2.2,3,3.7c0.8,1.5,1.2,3.2,1.2,5.1c0,3.7-1.5,6.9-4.5,9.5
		c-3,2.6-6.8,3.9-11.4,3.9c-3,0-6-0.5-9-1.6C1212.3,509.2,1209.9,507.7,1208.1,505.7z"/>
	<path d="M1245.4,492.7c0-4.4,1.2-8.6,3.5-12.5c2.3-3.9,5.4-7,9.3-9.2c3.9-2.3,8-3.4,12.3-3.4c6.1,0,10.9,1.7,14.6,5.2
		c3.7,3.5,5.5,8,5.5,13.4c0,4.5-1.2,8.7-3.6,12.7c-2.4,3.9-5.5,7.1-9.4,9.4c-3.9,2.3-7.9,3.5-12.2,3.5c-6.1,0-10.9-1.8-14.6-5.4
		C1247.2,502.9,1245.4,498.3,1245.4,492.7z M1256.2,492.1c0,3,0.9,5.4,2.6,7.3c1.8,1.9,4,2.8,6.8,2.8c3.6,0,6.9-1.5,9.8-4.5
		c2.9-3,4.4-6.6,4.4-10.8c0-2.9-0.9-5.3-2.6-7.1c-1.8-1.8-4-2.7-6.8-2.7c-3.7,0-6.9,1.5-9.8,4.4
		C1257.6,484.5,1256.2,488,1256.2,492.1z"/>
	<path d="M1300.4,511.1l6.6-33.8h-12.9l1.7-9h36.2l-1.7,9h-12.9l-6.6,33.8H1300.4z"/>
	<path d="M1329,511.1l8.4-42.7h15.9c2.5,0,4.6,0.3,6.3,1c4.3,1.7,6.4,5,6.4,9.8c0,2.9-0.7,5.7-2.2,8.5c-1.5,2.8-3.7,4.8-6.7,5.9v0.1
		c0.3,0.5,0.6,1.3,1.1,2.6l5.5,14.8h-11.2l-4.8-14.4l-5.3,0l-2.8,14.4H1329z M1344,487.6h4.5c1.9,0,3.5-0.6,4.8-1.7
		c1.3-1.1,1.9-2.8,1.9-4.8c0-1.2-0.4-2.2-1.2-2.8s-1.8-1-3.2-1h-4.7L1344,487.6z"/>
	<path d="M1369.3,492.7c0-4.4,1.2-8.6,3.5-12.5s5.4-7,9.3-9.2c3.9-2.3,8-3.4,12.3-3.4c6.1,0,10.9,1.7,14.6,5.2
		c3.7,3.5,5.5,8,5.5,13.4c0,4.5-1.2,8.7-3.6,12.7c-2.4,3.9-5.5,7.1-9.4,9.4c-3.9,2.3-7.9,3.5-12.2,3.5c-6.1,0-10.9-1.8-14.6-5.4
		C1371.1,502.9,1369.3,498.3,1369.3,492.7z M1380,492.1c0,3,0.9,5.4,2.6,7.3c1.8,1.9,4,2.8,6.8,2.8c3.6,0,6.9-1.5,9.8-4.5
		c2.9-3,4.4-6.6,4.4-10.8c0-2.9-0.9-5.3-2.6-7.1c-1.8-1.8-4-2.7-6.8-2.7c-3.7,0-6.9,1.5-9.8,4.4C1381.5,484.5,1380,488,1380,492.1z"
		/>
	<path d="M1414.8,505.7l6.2-7.4c1.2,1.2,2.7,2.1,4.6,2.8c1.9,0.7,3.7,1.1,5.5,1.1c1.3,0,2.5-0.3,3.5-0.9c1.1-0.6,1.6-1.6,1.6-2.8
		c0-0.7-0.4-1.4-1.2-2c-0.8-0.7-1.8-1.3-3-1.9c-1.2-0.6-2.5-1.3-3.8-2.1c-1.4-0.8-2.7-1.7-3.8-2.7c-1.2-0.9-2.2-2.2-3-3.7
		c-0.8-1.5-1.2-3.2-1.2-5.1c0-4,1.6-7.3,4.8-9.7c3.2-2.4,6.9-3.6,11.1-3.6c6.1,0,11,1.7,14.6,5l-5.6,7.7c-1-0.8-2.4-1.6-4.1-2.2
		c-1.7-0.6-3.4-0.9-5.1-0.9c-1.3,0-2.5,0.3-3.6,1c-1.1,0.6-1.7,1.6-1.7,2.8c0,0.7,0.4,1.4,1.2,2.1c0.8,0.7,1.8,1.3,3,1.9
		c1.2,0.6,2.5,1.2,3.9,2.1c1.4,0.8,2.7,1.7,3.9,2.6c1.2,0.9,2.2,2.2,3,3.7c0.8,1.5,1.2,3.2,1.2,5.1c0,3.7-1.5,6.9-4.5,9.5
		c-3,2.6-6.8,3.9-11.4,3.9c-3,0-6-0.5-9-1.6C1419,509.2,1416.6,507.7,1414.8,505.7z"/>
	<g>
		<path d="M1434.3,543.3h-275.2c-2.3,0-2.3,3.6,0,3.6h275.2C1436.7,546.9,1436.7,543.3,1434.3,543.3z"/>
		<path d="M1434.3,550.4h-275.2c-2.9,0-5.2-2.3-5.2-5.3c0-3,2.3-5.3,5.2-5.3h275.2c2.9,0,5.2,2.3,5.2,5.3
			C1439.6,548.1,1437.3,550.4,1434.3,550.4z"/>
	</g>
</g>
</svg>
