<?xml version="1.0" encoding="utf-8"?>
<!-- Generator: Adobe Illustrator 25.3.0, SVG Export Plug-In . SVG Version: 6.00 Build 0)  -->
<svg version="1.1" id="Capa_1" xmlns="http://www.w3.org/2000/svg" xmlns:xlink="http://www.w3.org/1999/xlink" x="0px" y="0px"
	 width="1920px" height="1080px" viewBox="0 0 1920 1080" style="enable-background:new 0 0 1920 1080;" xml:space="preserve">
<style type="text/css">
	.st0{fill:#FFFFFF;}
</style>
<g>
	<path d="M1547.3,210.9c1.3,0.8,2.6,1.6,3.8,2.4c8.7,16.6,15.7,33.6,23.9,50.4c1.7,8,8.6,14.5,11.2,22.2c-2.9,1.6-5.7,3.2-8.7,4.6
		c4.2-0.3,4.3,3.7,6.4,5.7c0.3-2.3,0-4.7,1.4-6.9c4.5,3.8,5,9.2,6.9,14c4,9.8,8,19.8,13.9,28.9c2.2,3.4,1.9,7.4,3.8,10.9
		c-0.6,2.7-1.4,5.4-1.6,8.1c3.2,2.2,4.4,0,5.4-2.3c7-1.5,14.3-2.7,21.6-2.8c-0.3-0.9-0.7-2.7-0.9-3.6c-6.2,0.9-12.5,2-18.6,3
		c-0.3-1.6-0.9-4.8-1.2-6.3c4.1-1.8,12.6-0.5,12.4-5.6c-4.6,0.9-9.2,1.8-13.8,2.7c-1.9-2.9-3.8-5.8-5.6-8.6c6-0.8,12-1.7,17.5-3.7
		c-1-0.3-3.2-1-4.3-1.4c-4.8,0.9-9.7,1.5-14.5,2.2c-2.5-3.8-4.7-7.7-5.5-12c9.2-2.7,20.4-1.8,28.6-6.6c-10.2-0.6-19.9,2.6-29.9,3.8
		c-1.5-3-3-6-4.6-9c7.2-1.5,14.4-2.7,21.7-3.6c-1.6-1.8-4.6-2.9-7.4-1.9c-5.2,0.9-10.4,2-15.8,2.2c-0.7-2.9-1.5-5.7-2.1-8.6
		c13-1.5,24.9-6.6,38.1-7.2c-0.3-2.5-1.8-3.3-4.5-2.7c-12,1.8-23.1,6.1-35.3,6.8c-2.1-5-4.7-10-6.9-15c9.2-1.4,18.1-3.7,27.3-5.1
		c3.2-0.7,7.5-0.4,8.6-3.6c-13,0.1-24.8,4.9-37.6,6.2c-1.8-3.6-3.5-7.3-5.6-10.8c6-2.2,12.3-3.7,18.8-4.4c3.4-0.7,7.6-0.4,9.8-3.1
		c-10.4-0.1-20.5,1.9-30.3,4.6c-1.2-4.1-3.1-8-3.8-12.2c11.2-1.5,22.6-2.5,33.4-5.5c9.6-2.7,19.9-1.5,29.6-3.7
		c0.1-0.6,0.2-1.8,0.2-2.4c-22.2,0.3-43,7.7-65.2,8.4c-2.7-3.9-4.4-8.3-6-12.7c26.4-6,54.1-7.9,81.3-9.5c0.1-0.7,0.3-2.1,0.4-2.8
		c-28.1,2.1-56.5,4-83.9,9.8c-2.2-4.7-4.5-9.3-6.5-14.1c20-6.8,42.2-7.5,63-12c6.2-1.8,12.7-2.8,19.2-3.7c-1.9-1.8-4.3-2.6-7.2-2.5
		c0.1-0.6,0.3-1.9,0.3-2.5c-0.3,0.8-0.9,2.2-1.1,3c-24.2,8-51.5,6.8-75.7,15.1c-2.5-5.9-5.6-11.5-7.4-17.6c-1.4-0.7-2.7-1.4-3.9-2.1
		C1541.2,195.9,1550.2,203,1547.3,210.9z"/>
	<path d="M1548,248.5c8.4,14.3,10.3,30.5,19.7,44.6c5.1,7.7,8.1,16.3,13.9,23.7c8.5,10.9,13.2,23.4,19.9,35c1,0.3,3.1,0.8,4,1
		c-6.1-14.9-14.3-29.3-24.5-42.8c-5.2-10.7-12.8-20.6-16.9-31.7c-5.5-12.6-8.5-26.3-18.6-37.2c-5-5-5.3-11.5-8-17.3
		c-6.9-11.5-14.3-22.8-22-34c-0.9-0.1-2.8-0.3-3.8-0.3c7.7,12.6,18.1,24.3,23.5,37.7C1536.3,235.3,1542.7,241.8,1548,248.5z"/>
	<path d="M344.6,223.3c-4.6-0.8-9.2-1.5-13.9-2.3c-1.5,0.9-3,1.9-4.4,2.8c12.7,0.2,24.5,4,36.8,6.3c15.1,3.4,31,4.7,45.7,9.2
		c16.9,4.5,34.5,7.4,51.7,11.3c1.5-0.8,2.9-1.6,4.4-2.5c-22-3.3-43.5-8.5-64.8-13.9c-7.9-1.8-16.1-2.3-23.9-4
		c-10.8-1.8-21.1-5.1-32.1-6.4c1.3-0.9,2.6-1.9,3.9-2.9c15.1,2.4,30.5,4,45.2,7.6c18.3,4.4,35.8,11.4,54.7,14.1
		c12.6,2.8,25.6,4.4,37.8,8c9.4,2.8,20.4,3.3,28.4,8.5c1.5-0.1,4.4-0.2,5.9-0.3c-1.1,0.3-3.3,1.2-4.4,1.5v0.9
		c8.2,2.1,16.8,3.8,25.3,5c6.6,3,14.4,3.5,21.5,5.2c15.2,3.8,30.3,8,45.5,11.9c1.1-0.5,3.2-1.5,4.3-2.1c-10.9-3.5-22.2-6.1-33.4-9.1
		c-2.1-0.5-4.3-1-6.3-1.5c13.7,2.5,27.6,4.2,41.1,7.6c1.4-1,2.7-2,4-3c-9.2-1.8-18.3-3.4-27.5-4.9c-16.5-2.7-32.5-7.5-48.9-10.3
		c-17.6-2.4-34.1-7.9-51.4-11.5c-18.5-5-37.8-7.9-56.5-12.1c-23.1-6.4-46.1-13.6-70.4-16.4c-23-3.8-46.5-6.5-68.3-13.5
		c-0.2,0.6-0.5,1.9-0.7,2.6c15.8,4.8,32.3,8.5,49.2,10.3C343.3,220.7,344.2,222.4,344.6,223.3z"/>
	<path d="M762.3,348.8c-39.9-7.1-79.9-13.7-119.8-20.7c-33.2-7.4-67.5-11-100.8-18c-27.7-4.3-55.5-8.6-83.1-13.7
		c-35.2-5.3-70.1-11.7-104.5-19.4c-19.8-4.7-40.5-6.6-59.9-12.5c-14.4-4.5-29.7-6.5-44.8-8.3c-9.2-0.9-18.1-3.3-27.4-3.9
		c0.3,0.7,1.1,2.2,1.5,2.9c8.8-0.3,17.1,2.6,25.8,3.3c17.5,1.5,34.6,5.4,51.1,10.1c0.2,0.3,0.4,1.1,0.6,1.5
		c-4.4,2.3-9.8-1.3-14.3-1.9c-22.1-5-45.1-7.4-67.2-12.2c-1.5,0.8-3,1.5-4.5,2.4c8.3,0.7,16.6,2,24.6,3.9c18.6,3,37.3,5.8,55.5,10.3
		c17.9,3.8,35.6,8.3,54,10.4c4.5,0.3,9.2,3.2,13.5,1.3c-0.2-0.3-0.6-0.9-0.8-1.3c-19.7-3.5-39.3-6.7-58.8-10.6c0.8-0.5,2.2-1.5,3-2
		c16.6,3.2,33.4,5.6,49.7,9.5c5.8,1.7,13.8,0.9,17.8,5.1c12.3-0.3,23.3,4.9,35.2,5.3c-2.4,0.1-4.6,0.5-6.7,1.3l-0.1,0.9
		c37.9,5.7,75.7,12.3,113.6,18.6c14.7,1.6,29.4,3.5,43.6,7.2c24.3,5.9,50.3,5.1,74.2,12.1c19.7,3.3,39.5,6.3,59.1,10
		c24.7,2.5,48.4,8.7,72,14.8c18.8,3.7,37.7,7.1,56.8,10c-0.1-0.9-0.2-2.7-0.3-3.6c-1.6-0.2-4.8-0.4-6.4-0.6
		c3.4-0.4,7.4-0.4,10.4-1.9c-20.1-2.3-39.4-8-59.7-9.5c-0.2,0.4-0.5,1.3-0.7,1.7c15.7,2,31.1,5.3,46.7,7.9c0.2,0.3,0.6,0.8,0.8,1
		c-4.2,1.4-8.6-0.3-12.8-0.9c-13.6-2.9-27.7-4.3-41-8.1c0.9-0.4,2.6-1.2,3.4-1.6L762.3,348.8z"/>
	<path d="M372.3,287.7c8.7,0.3,17,4,25.7,3.4c-0.3-0.4-1-1.4-1.3-1.8c-6.6-1.5-13.3-2.3-20-3.7C375.2,286.4,373.7,287.1,372.3,287.7
		z"/>
	<path d="M365.7,284.5c-1.9,3,3.7,3.6,5.8,2.1C373,284,367.7,282.4,365.7,284.5z"/>
	<path d="M511.9,260.2c-0.3-0.5-1.1-1.6-1.5-2.2c-15.4-3.2-30.7-6.6-46.2-9.4c0.4,0.9,1.2,2.6,1.6,3.4c15.4,1.4,30.3,6.4,45.2,8.8
		L511.9,260.2z"/>
	<path d="M263.8,206c20.7,3.3,38.7,12.7,59.1,16.8c1.5-0.8,3-1.5,4.4-2.2c-12.3-1.5-23.4-6-35.1-9c-1.9-1-3.8-2.1-5.7-3.1l5,0.9
		c-0.3-0.8-0.8-2.3-1.1-3.1c-7.7-1-15-3.4-22-5.9c-0.6,0-1.7,0-2.3,0c-9.7-3.3-20.5-2.7-30.1-5.9c-11-3.6-22.9-2.3-34.4-2.9
		c0,0.5,0,1.5,0,2.1c14.6,1.5,28.2,6.5,42.7,8.7C250.7,203.7,257.2,205.2,263.8,206z"/>
	<path d="M220.2,251.5c-5.9,0.1-11.7-0.9-17.4-2.2c-0.6,0.3-1.7,0.9-2.3,1.3C206.8,252,215,256.7,220.2,251.5z"/>
	<path d="M208.7,255.2c0.3,0.5,0.9,1.5,1.3,1.9c3.6-0.1,4.4-1,2.6-2.7l-2.6-0.1L208.7,255.2z"/>
	<path d="M204.4,252.3c-0.7,0.5-2,1.5-2.7,2.1c0.8,0.6,2.2,1.9,2.9,2.6C206.9,255.5,206.8,254,204.4,252.3z"/>
	<path d="M318.5,316.4c0.2-0.5,0.4-1.6,0.6-2.2c-16.8-2.5-33.5-5-50.1-8.1c0.3-0.4,0.8-1.4,1.1-1.8c16.9,3,33.9,5,50.6,8.5
		c1.5-0.8,2.9-1.6,4.4-2.5c-23.3-2.1-45.8-7.7-69.1-9.6c-16.5-0.1-32.8-2.7-48.9-5c0,0.8-0.1,2.3-0.1,3.1
		c30.5,2.8,60,10.2,90.2,13.9C304.3,313.8,311.4,315.3,318.5,316.4z"/>
	<path d="M327,316.7c-0.9-2.1-2.9-2.6-6-1.5C322,317.4,324,317.9,327,316.7z"/>
	<path d="M310.6,901.9c-4.4-5-8.1-10.3-13.2-15c2.2-2.4-0.1-9.6-3.8-4.8c-15.9-16.2-29.9-33.5-46.9-49
		c-13.3-11.9-25.6-24.5-38.4-36.8c0.2,2.2,0.3,4.6,2.4,6.3c17.8,18.1,37.7,34.9,54.8,53.5c13.2,15.1,28.2,29.1,40.3,44.7
		c-10.8,3-22.2,3.3-33.2,5.6c-4-5.5-8.4-10.9-13.9-15.5c-16.3-14.3-29.2-30.8-45.2-45.2c-1.5-1.5-3.5-2.4-5.9-2.7
		c0.9,2,2.1,4,3.9,5.6c14.4,12.9,26.2,27.5,40.7,40.3c6.7,5.8,12.9,12,17.4,18.9c4.9,7.6,12.4,13.8,18,21c-1.1,0.1-3.3,0.2-4.4,0.3
		c-0.2,1.1-0.3,2.2-0.6,3.4c1.5-4,7.4-0.5,10.8-0.9c-4.7-8.4-13.7-14.6-19.4-22.6c10.9-3.1,22.4-4.2,33.8-5.3
		c13.4,12.4,26.6,25,40.6,37c5,3.7,9,8,11.7,13c-2.3,0.6-3.4,1.8-3.3,3.7c1.4,0.2,4,0.4,5.3,0.6c-0.2-2.4-0.4-4.7-0.6-7.1
		C345.8,934.1,326.5,919.1,310.6,901.9z"/>
	<path d="M375.5,928.1c0.6,2.3,1.2,4.6,1.9,6.9c4.4,1.8,7.1,5.1,10.3,8l-0.4,1.5l1.5,1c0.6-0.4,1.7-1.3,2.3-1.7
		C388,937.4,382.4,932,375.5,928.1z"/>
	<path d="M766.4,919.4c1.4,3.8,6.1,5.8,9.8,8.1c5.6,3.5,11.5,6.8,18.2,9.2c0.4,1.1,1.3,3.3,1.6,4.4c2.6,0,5.1,0,7.8,0
		c-5.9-5.9-15.1-8.2-22.2-12.7C776.7,925.3,771.8,922,766.4,919.4z"/>
	<path d="M916.9,933c0.3-0.6,0.7-1.7,0.9-2.2c-7.5-0.2-12.7-5.1-18.6-8.1c-14.6-8.6-32.8-12.5-46.8-21.7
		c-7.7-5.1-17.2-8.1-25.3-12.8c-9.5-5.6-20.6-8.9-30.5-14.2c-7.8-4.2-15.5-8.6-23.4-12.7c-3.7-1.7-5.6-4.6-7.6-7.4c0,0,0-0.1,0-0.1
		c0,0,0,0,0,0c-1.1-1.5-2.2-2.9-3.6-4.1c-4.9-3.6-10.9-6-16.9-8.4c0.5,1.1,1.5,3.3,2.1,4.5c4.7,1.5,9.8,3.2,12.7,6.6
		c-15.7,5.5-31.1,11.3-47.3,15.8c-2.6-3.5,2.8-4.6,5.3-6.1c6.6-2.9,13.7-5.1,20.8-7.1c-1.3-0.9-2.6-1.6-3.8-2.5
		c-3.4,1.5-6.8,3.1-10,4.7c-1.2-0.7-2.4-1.3-3.6-2c5-1.2,10-2.5,15.1-3.7c1.5-2.8,3.8-5.3,6.8-7.2c-1.2-0.7-2.4-1.4-3.6-2.1
		c-3.6,1.5-7.1,2.8-10.8,4.1c4.1-2.6,8.4-5,12.7-7.4c-9.2-5.1-17.7-10.9-26.9-15.9c-0.7-1.8-1.5-3.7-2.1-5.5
		c-10.9-6.2-22.5-11.6-33.5-17.8c-8.6-4.8-18.2-8.8-25.4-15.1c-1.3,0.9-2.7,1.7-3.9,2.7c11.8,4.6,21.3,11,31.5,16.4
		c8.7,5,18.5,8.7,27,13.9c-23.4,8.2-49,11.6-72.1,20.3c-2.1-1.2-4.1-2.4-6.2-3.6c1.8,1.5,3.6,2.9,5.5,4.4
		c-8.1,3.3-17.2,5.2-25.1,8.8c2.2,0.6,4.5,1.3,6.8,1.8c-4.4,0.7-8.7,1.5-13,2.3c1.5,0.8,2.8,1.5,4.3,2.3c10.9-3.1,21.6-6.7,32.9-8.1
		c5-4.2,12.3-4.9,18.9-6.5c9.4-2.1,18.5-5,27.1-8.6c-1.1,6.7-1.4,13.3-1.4,20c-9.3,3.4-18.7,6.6-28.4,9.3
		c-11.9,3.4-22.8,8.5-34.8,11.8c-8.6,2.7-17.8,4.3-25.8,7.8c-6.3,2.7-12.9,5.2-19.8,7.1c-15.4,4-29.6,10.4-45.1,14.2
		c-18.9,4.9-37,11.8-56.7,14.5c1.2-7.9,2.4-15.8,2-23.8c31-11.1,64.3-17.3,95.8-27.4c9.9-2.7,19.8-5.5,29.7-8.4
		c0.3-0.9,0.9-2.7,1.2-3.6l-3.7,1.2c0.1-0.9,0.2-2.5,0.3-3.3c-7.4,0.3-13.9,3.5-20.8,5.4c-16,5-32.1,9.8-48.8,13.1
		c-4.3,1.4-11.6,1.5-11.8,6.3c-1.3-0.6-3.7-1.8-5-2.4c0.2,1.6,0.3,3.3,0.4,5c-12.7,5-26.3,9.4-40.5,10.8
		c10.6-5.3,23.3-6.8,34.6-10.9c0.1-0.3,0.3-0.9,0.3-1.3c-14.9,0.5-27.7,8.1-42.4,10c1.5,0.9,2.9,1.8,4.4,2.7l-2.5,0.5
		c2,1.2,4,2.4,6,3.6c-0.4,3-0.3,6.1-2.7,8.6c0.7-0.3,2-0.8,2.7-1.1c-2.2,8.4-3,17-1.3,25.6c0.4,13.3,1.6,26.5,2.6,39.8
		c0.2,1.9,1,3.8,1.8,5.6c3.9-11.9-1.3-23.9-0.9-35.8c4,3.8,7.4,7.9,10.3,12.2c0.9-0.3,2.7-0.9,3.6-1.3c-4-5-7.7-10.4-14-13.9
		c-0.1-4.4-0.1-8.9-0.1-13.3c7.9-2.4,15.9-4.4,24-6c7,5,14.8,9.3,20.8,15.1c2.3,2.5,5.6,4.1,9.2,4.9c-8.6-7.9-17.2-16.3-29.3-20.9
		c6.4-2.1,12.9-3.8,19.6-5.4c9.6,10.6,21.2,19.8,31.5,30c8.5,8.7,18,16.7,26.7,25.2c3.1,3.2,6.9,5.8,11.5,7.4
		c-8.5-10.1-19.7-18.5-29.3-27.9c-11.6-11.7-24.1-23-36.9-34c-0.3-2.4,1.2-3.3,4.4-2.6c16.1,12.7,30.7,26.4,44.7,40.5
		c5,4.8,9.8,10.1,17.3,12.6c-0.2-15.7-0.9-31.4,0.3-47c-8.2-6.2-17.4-11.8-23.9-19.3c10.6,5.3,18.8,13,28.3,19.3
		c3,12.1,1.1,24.5,0.1,36.7c-0.8,7.4-3.9,16.3,2.7,22.6c0.4-11.5,0.3-22.9,2.1-34.3c1.5-8-0.9-16.1-0.2-24.1
		c20.4-11,44.6-16.2,66.9-24.2c0.3,1.3,0.8,3.8,0.9,5c-5.6,1.5-11.1,3.3-16.3,5.4c-12.8,5.5-27,8.4-40.1,13.3
		c-5.6,2.5-3.3,8.2-3.8,12.3c0.9,14.9-1.1,29.8-0.3,44.7c21.3-5.1,41.3-12.8,61-20.9c-0.1,2.1-0.3,4.4-0.3,6.5
		c-12.1,4.4-23.8,9.3-35.2,14.6c4.1-0.1,8.2-0.5,12.1-1.5c2.7,0.5,5.6,1.1,8.3,1.7c-0.9-1.6-1.6-3.3-2.5-4.9
		c5.3-2.2,10.5-4.4,15.7-6.7c0.8,4,0.5,8.7,4.4,11.8c1.4-36.5,1.5-73.1-1.5-109.6c5.4-2.1,10.9-4,16.4-5.8c0.5,9.5-1,19-0.2,28.5
		c2.7,25.8-1,51.8,2,77.7c0.4,3.3,0.2,6.9,3.3,9.5c0.4-6-0.3-12-1.1-18c-1.4-19,0.2-38-0.3-57c-1.4-20.3,0-40.5-0.9-60.8
		c-0.7-6.2,8.6-7.3,14.3-8c0.3-0.8,0.8-2.3,0.9-3.1l-5.4,0.3c2.9-1,5.9-2.1,8.8-3.1l-3.5,2c2,1,3.9,2.1,5.9,3.2
		c0.9,12.5-1.2,25-0.4,37.6c-1.2,0.7-3.6,2.1-4.8,2.7c1.2,0.3,3.7,0.9,4.9,1.2c2.6,18.5,0.1,37.1,2.3,55.6c0.9,10.3-1.8,20.7-0.6,31
		c0.8,5.5-0.4,11.5,3.4,16.3c0.3-2.9,0.4-5.8,0.5-8.6c6.3,1.3,13,4.3,19.6,2.3c9.2-2,14.9-8.6,18.6-15c3.8-7.9-1.2-16.4-8.8-21.7
		c8.4-4.2,17.6-7.1,26-11.1c-1.1-8.5-2.1-16.9-1.3-25.4c17.6,7.8,32.6,18.4,49.5,27c12.4,7.2,25.6,13.6,38.3,20.4
		c-0.9-4.7-7-6.2-11.3-8.6c-11.9-5.4-22.2-12.6-33.9-18.3c-14.5-7.4-26.6-17.6-42.7-22.9c-0.1-9.3,0.9-18.6,0.3-27.9
		c13.6,8.3,27.5,16.6,43,22.6c15.8,7.9,32,15.4,46.8,24.5c22.2,8.9,43.3,19.2,63.6,30.6C927,934,920.3,933.9,916.9,933z"/>
	<path d="M605.3,847.5l-1.5,0.9c0.3,0.6,1,1.7,1.5,2.2l1.4-0.9C606.3,849.2,605.6,848,605.3,847.5z"/>
	<path d="M653.3,826.6c1.5-0.2,4.7-0.4,6.2-0.6c1.1-2.3,3.2-4.2,5-6.1C659.5,820.4,652.6,821,653.3,826.6z"/>
	<path d="M655.1,815.4c0.3,2.5,6,1.9,8.1,0.9C662.8,814,657.1,814.5,655.1,815.4z"/>
	<path d="M738.6,853.2c4.5-0.3,8.3-2.6,12.3-3.9c-0.8-0.4-2.3-1.4-3.1-1.9C743.7,848.2,737.2,848.1,738.6,853.2z"/>
	<path d="M1002.2,919.7c-8.4-3.6-16.5-7.7-24.5-11.8c-25.4-14.6-56.4-21-82.5-34.6c-29.1-12.1-56.7-26.6-87.1-36.5
		c20.5,8.6,42,16.2,61.2,26.6c6.8,3.5,13.9,6.4,21,9.5c9.9,4,18.9,9.5,29.3,12.7c21.5,7.4,42.6,15.2,62.1,25.6
		c7.9,3.5,15.3,7.8,23.5,10.8c5.6,2.3,10.9,5,16.3,7.5c-0.2-0.7-0.6-2-0.8-2.7C1014.2,925,1008.1,922.6,1002.2,919.7z"/>
	<path d="M1773.8,472.8h-2.1c-46.4,0.1-92.9-0.2-139.3,0c-1.1-10.4-1.3-20.9-2.1-31.3c26.8-0.8,52.9-5.5,79.6-6.6
		c13.9-1.4,28,0.1,41.7-1.9c2.8-0.1,5.1-1.5,7.3-2.7c-20.8,0.2-41.5,1.2-62.2,3.1c-19.1,0.4-37.6,4.4-56.7,4.7
		c-13.9,0.3-27.8,2.1-41.7,2.7c-8.3,0.4-16.7,0.8-24.6,3c-4.5-0.1-9,0.4-13.2,1.5c-4.4-2.1-9.1-3.9-13.6-5.9
		c2.6-2.8,5.1-5.7,7.4-8.7c1.5,0.4,2.9,0.9,4.4,1.3c22.5-3,45.2-5.5,68.1-6.6c24.1-1.8,47.9-5.3,72.1-6.3
		c19.8-1.6,40.5,0.4,59.5-5.1c-14.2-0.7-28,3.1-42.1,2.7c-8.8-0.2-17.4,2.1-26.3,2c-18.2-0.4-36.3,2.3-54.3,4
		c-25.5,1.2-50.8,4.6-76,7.4c-1.4-0.6-2.7-1.3-4.1-1.9c2-6.2,0.4-12.4-2.2-18.2c-1.4-0.5-4.2-1.5-5.6-2c-3.9,3.1-7.6,6.6-8.4,11.1
		c-3.3,7.9,3.8,15.1,3.8,22.8c-2.2-1-4.4-2.1-6.4-3.1c-0.4,2.3-0.9,4.6-1.2,6.9c-24.5,3.1-49.2,5.3-74,5.6
		c-0.8-6.2,7.4-4.8,12.5-5.4c18.7-0.6,37.2-4.1,56.1-3.6c0-0.8-0.1-2.2-0.1-3c-22.9,2.1-45.8,3.7-68.8,5.7c0.4-2.8,2.1-5.4,6.1-5.6
		c16-1.2,31.6-5.1,47.9-4.2c8-0.7,16.7-0.2,23.7-3.6c-13.5-0.5-26.7,2.7-40.1,3.3c-16.4,2.3-33.3,2-49.7,4.4
		c-0.4-5.9-0.9-11.8-1.4-17.8c2.5,0,5,0,7.5,0.1c3.3-6.6,8.2-12.8,9-20c-5.8-1.3-11.5-2.9-17.5-3.8c-6.1-0.5-12.8,1.1-17.6-2.7
		c1.8-0.8,5.5-2.3,7.4-3.1c0.6-5-3.7-7.9-9.8-7.7c-3.8,2.6-8.3,4.2-12.8,5.6c-1.3-5.6-1.7-11.2-2.1-16.9c16.9-3.1,34.1-4.6,51.4-5.2
		c4.5-0.4,8.1,2.1,11.5,3.9c7.4,4.4,14.7,9.1,21.8,13.8c3.2-0.2,6.3-0.3,9.5-0.4c-0.6-6.9-0.3-13.9-0.4-20.9
		c12.5-1,24.5-3.8,36.4-6.9c17.4-2.2,34.6-6,52.4-6.5c0.3,1.1,1.1,3.3,1.5,4.4c1-0.3,3-1.1,4-1.5c-3.3-3.8-6.5-7.5-9-11.7
		c-15.5-27.1-30.4-54.6-48.8-80.6c2-0.3,5.9-0.7,7.8-0.9c-4-2.1-10.2-2.4-12.1-6.4c-7.7-13.7-16.4-27-24.7-40.5
		c3.3-1.1,6.4-2.3,9.7-3.5c-3.9-1.1-8.1-0.2-12.1,0.3c-5.6-7.4-8.2-16.9-17.4-21.9c3.9,8.1,10,15.3,14.8,23.1
		c-9.2,1.7-18.8,1.8-27.9,4c-14.2,3.3-29,3.5-43.3,6.3c-13.6,1-26.4,5.5-40.2,5.2c-18.6,3.1-37.3,6.1-56.3,8
		c-5.3-4.6-10.5-9.4-15.6-14.2c21.8-1.1,42.6-7,64-9.9c10.4-0.2,20.4-1.5,30.3-4.2c19.8-2.3,39.3-6.3,59.1-8.9
		c5.4-0.3,11.6,1.4,16-2.2c-14.1-2.6-28,1.9-41.8,3.3c-16.9,2.8-34,5.1-50.7,8.5c-27.2,1-52.6,10.9-79.9,10.5
		c-4.3-5-9.1-9.6-14.2-14c13.9-0.4,27.3-4,41-5.8c19.2-3.4,38.8-5.6,58.3-8.3c-23.2-2-45.6,4.5-68.3,7.1c-11.9,2.3-24,4.3-36.3,3.8
		c-5-4.4-9.2-10.1-16.7-12.4c8.2,10.4,21.6,17.4,30.6,27.2c6.9,7.6,14.8,14.6,23,21.4c6.5,5.3,14.5,9.2,21.1,14.5
		c7,5.6,13.7,11.5,20.8,17.1c-1.4,0.9-2.7,1.8-3.9,2.7l5.3-2.6l-1,5.8c0.9-1.2,1.7-2.4,2.6-3.5c11,10.3,25.6,17.6,37,27.5
		c7.7,6.7,16.1,13,22.3,20.6c13.2,7.9,26,16.3,38.1,25.1c6,7.6,14.9,13.7,19.6,21.9c1.5,4.6,0,9.4,0.1,14.1
		c-8.8-7.6-20.4-12.6-29.7-19.7c-7.4-5-14.3-10.7-22.4-15.1c-8.6-4.7-17.4-9.2-25.1-14.8c-15.8-11.8-34.5-20.9-50.8-32.2
		c-11.7-8-23.6-15.9-35.8-23.5c-10.5-6.8-18.2-16.1-30.3-21.4c-12.6-5.8-22.2-14.6-33.1-22c-12.5-8.6-24.8-17.4-38-25.3
		c-9.8-6.2-18-15.1-31-17.4c14.3,9,28.1,18.5,42.5,27.4c21,13.7,39.7,29.9,62.5,41.7c9.1,5,15.3,12.6,24,18
		c21.5,13.3,41.1,28.5,63.4,41c15.7,8.2,27.8,20,44.1,27.5c10.6,4.8,18.6,12.3,28.6,17.9c-0.9,0.7-1.9,1.3-2.8,2
		c-7.3-5.5-15.5-10-23-15.1c-15.5-11.2-35.2-18-50.4-29.4c-26-16.2-48.5-35.6-75.8-50.6c-4.5-2.1-7.7-5.4-10.7-8.8
		c-12-2.6-22.8-8.6-31-15.8c-5.9-2.8-11.6-5.9-17.2-9.1c-0.3-0.8-0.7-2.3-0.9-3.1c-13.3-5.5-22.2-15.5-34.3-22.1
		c-6.3-4.4-15.9-7-18.2-13.9c-1.2,0-3.4,0.1-4.6,0.2c-4.2-3.1-8.1-6.6-13.9-7.9c2.9,3.3,6.3,6.3,9.8,9.3c-8.2,1-16.4,2.1-24.6,3.3
		c-23.5,2.6-46,9.2-69.7,10.7c-7.6,0.2-14.6,2.3-21.8,3.8c-10.9-4.4-20.9-9.9-30.6-15.6c20.6-4.7,42.4-2.8,63.3-6.2
		c8.8-1.5,17.8-2.7,26.5-4.4c-12.8-0.8-24.9,3.3-37.6,4.1c-19.1,1.5-38.3,1.4-57.1,4.8c-7.7-3.7-15.1-8.3-24.3-9.4
		c6.2,4.6,14.1,7.3,21.2,10.8c14.6,6.9,28.1,15.2,43.5,21c12.3,5,25.6,9,35.8,16.5c9.5,7.1,22.8,9.2,32.9,15.4
		c6.2,3.8,12,7.8,18.1,11.6c9.6,6.2,21.6,9.2,32,14.3c16.3,7.9,34,14.1,49.4,23.1c30.2,9.9,54.7,27.5,83.1,40
		c22.3,12.5,45.7,23.8,70.1,33.5c0.3,5.2,0.3,10.5,0.1,15.7c-34.7-14-71.3-25-106.1-39c-25.1-10.6-51.7-19-76.8-29.7
		c-27.5-9.9-53.5-22.2-80.2-33.4c-24.4-9.2-46.2-22.2-71.2-30.3c-26.7-8.6-52.4-18.8-77.6-29.9c-20-8.8-41.6-15-61-24.7
		c-9.7-4.9-20.4-8-30.7-12c-4.2-1.7-8.9-2.5-13.5-2.8c11.4,6.8,25.5,9.4,37.8,15c16.1,8.1,33.5,14.5,50.6,20.9
		c0.4,0.3,1.3,1.2,1.7,1.5c-5.5,1.5-10-2.4-14.9-3.8c-23.8-10.3-48.2-19.7-72.7-28.8c-6-2.7-12.5-4.6-19.4-4.9
		c8.6,3.8,17.5,7.2,26.3,10.9c-9.7,3.8-20.7,3.3-31,4.9c-14.4,1.5-27.5,6.7-41.4,9.6c-4.4,1.3-8.6-0.5-12.6-1.9
		c-8.5-3.3-16.6-7-24.9-10.4c21.3-1.9,41.4-7.7,61.8-12.5c-11.5-1-21.7,3.6-32.5,5.6c-11.7,2.6-24,2.9-35.6,5.9
		c-12.3-2.8-22.2-10.3-35.1-11.9c16.1,11.5,38.7,13.3,56.6,22.2c26.8,10.6,56.8,15.1,83.7,25.5c5,2,9.5,4.6,14,7.3
		c22.8,3.8,43.4,12.7,64.5,20.1c16.4,6.2,32.8,12.7,49.4,18.6c0.5,0.6,1.5,1.9,2,2.5c14.3,2.1,27.9,6.4,41.1,11.1
		c24.3,11.3,51,18.6,76.5,28c5.4,2.4,13.9,2,16.3,7.2c-0.2-0.7-0.5-2.1-0.7-2.7c3,1.1,6.1,2.2,9.1,3.3c-0.9,7.1-0.6,14.9-7.3,20.4
		c-10.3-0.9-19.9-3.6-29.4-6.7c-15.7-4.3-31.1-9.1-47-13.2c-0.1,1.2-0.1,2.3-0.1,3.4c13,2.7,25.4,6.9,38.2,10.3
		c6.4,1.9,13.3,3.2,18.5,7c-15.5-3-29.9-8.6-45.1-12.6c-6.8-1.7-13.3-3.8-19.6-6.2c2.1-0.9,4.3-1.6,6.4-2.6
		c-15.4-3.5-30.5-8-45.7-12c-40.6-11.3-82.6-19.8-121.8-34.2c-8.2-2.9-16.7-5.2-25.1-7.5c-21.5-5.6-41.5-14.2-63-19.8
		c-15.1-3.8-29.7-8.8-45.1-12.1c-26.9-6-53.5-12.7-79.6-20.4c-0.1-12.3,0.6-24.6,1.3-36.9c-2.1,0.3-4.1,0.5-6.2,1
		c-1.5,4.4-1.9,9-2.4,13.5c6.9,6.9,2.8,16.8,2.7,24.9c-0.9-6.3,0-12.6,0.7-18.9c-1.5,0.1-3,0.1-4.5,0.3c0.2,4.6-0.1,9.2-0.3,13.8
		c-28.2-8.4-56.5-16.7-84.3-25.7c-12.7-3.5-25.5-7.9-39.1-8.8c11.8,4.7,24.6,7.2,36.8,10.9c27.4,8.6,54.9,16.9,82.5,25.1
		c2.8,0.5,4.3,2.6,5.8,4.3c-15.8-3.1-31-8-46.9-11.3c-11.3-2.1-22-6.1-33.3-8.5c-0.9-1.1-1.6-2.1-2.5-3.2c-3.4,0.3-6.8,0.3-10-0.9
		c-15.7-4.8-31.3-9.5-46.9-14.5c-3.9-1.3-8.3-1.3-12.6-1.5c3,1.3,6,2.6,9,3.8c-10.3,2.6-20.7,5.3-30.1,9.6c-5.3-2.1-10.5-4-15.8-6
		c6.2-2.4,12.5-4.7,18.5-7.4c-8.8-0.2-16.2,4.4-24.6,5.1c-9-1.5-17.4-6-26.9-4.5c15.2,4.5,30.6,8.7,45.3,14.3
		c32.8,9.5,66.1,18.1,99.2,27c11.5,3.6,23.2,7.1,35.2,9.7c13.3,2.8,26.3,7,39.9,8.8c0.9,0.4,2.5,1.2,3.3,1.6
		c-5.2,1.1-10.7,1.6-15.6,3.5c-3.5,3-3.8,7.4-5.9,10.9c-12.1,1.3-24.5,1.4-36.1,4.3c-6.5,1.9-11,6.2-16.1,9.8
		c-2.1,1-4.2,2.1-6.2,3.1l3.8,0.9c-1,9.4-3.9,19.6,0.9,28.6c7.6,8.6,21.9,10,33.8,12.6c22.2,4.7,45.4,4.1,68.2,2.7
		c11.5-0.9,23.4-0.3,34.7-2.5c6.8-1.2,12.1-5,17.2-8.6c28.7,5.5,55.6,15.7,84.5,20.6c23.4,5.3,47.4,8.8,70.7,14.5
		c-0.3,1.2-0.6,3.7-0.9,4.9c2.8,2.6,5.6,5.2,8.3,7.9c-5.4,1.5-10.8,2.8-16.2,4c-1.9-0.7-3.8-1.5-5.6-2.1c-6.8,2.8-13.8,8-22,6
		c-14.5-2.8-28-8.6-41.1-14.2c-1.1,0.8-3.3,2.4-4.4,3.2c-1.5-0.3-4.3-0.7-5.6-0.9c-1.9,0.4-3.9,0.8-5.8,1.1c1.7-0.9,0.5-3.8-3-2.7
		c0.1,0.7,0.2,2.1,0.3,2.7c0.5,0.1,0.9,0.2,1.3,0.2c-0.9,0.2-1.8,0.3-2.8,0.5c-1.5,0.7-2.9,1.5-4.4,2.1c5.9,0.4,11.8,1.3,17.6,2.4
		c1.7,2.9,3.5,5.7,5.4,8.6c-3.4,1.2-6.8,2.4-10,3.7c-11.5,1.5-23.1-0.2-33.8-3.4c-2.7-0.9-4.1-3.1-6.1-4.6c-1.4,0.4-3.9,1.3-5.3,1.7
		c-1.5,0.9-3.2,1.9-4.8,2.7c-14.4-2.1-28.1-6.2-42.3-8.9c-26.6-4.2-53.6-6.2-80.7-7c-36-4.1-72.2-7.4-108.3-11.9
		c-0.2-0.1-0.3-0.3-0.5-0.4c-37.3-7.6-75.7-11.6-113.4-17.8c-23.9-4.4-47.6-9.7-71.9-12.1c-4.3-1.7-9-2.7-13.7-3.5l-1.5,0.4
		c-9.2-0.7-18.6-1.5-27.4-4.4c0.2,1,0.6,3.1,0.8,4.1l3.3-1.1c-0.2,0.9-0.3,2.9-0.5,3.9c3.9,0.2,7.7,0.7,11.5,0.8
		c6.2,3.1,13.8,3.3,20.8,4.2c10.4,0.8,20.7,2.6,31.1,3.1c40.5,6.8,81.4,11.9,121.7,19.2c14.3,1.5,27.9,5.8,42.4,6
		c-0.5-0.4-1.2-1-1.9-1.6c6.2,4,15,3.5,22.5,4.8c38.7,3.3,77,9.3,115.3,15.1c18.3,2.9,37,5,54.7,9.8c7.6,2.1,15.8,1.3,23.7,2.1
		c-3,1.1-6.2,2.7-9.7,0.9c-0.1,3.7,0.2,7.4,0.3,10.9c1.2,1.3,2.4,2.7,3.6,3.9c-0.9,1.5-1.6,2.9-2.5,4.4c-2.9,1.4-7.7,2.1-7.4,5.6
		c-1.1,11.2,0.5,22.5,1.6,33.7c-15.1-0.4-30.4-2.6-45.5-0.9c15.1,0.9,30.2,0.9,45.1,3c0.3,0.9,0.8,2.9,1.1,3.9
		c-28.2-1-56.5-1.7-84.6-3.8c-21-1.3-42.3-1.1-62.5-6.2c1.5,6,2,12.1,2.3,18c1.1-0.3,3.2-1,4.3-1.4c0-1.4-0.1-4-0.1-5.3
		c9.8-2.3,20,0.6,29.9,0.9c19.3,0.6,38.7,1.1,58,2.3c-0.1,20.8,5.5,41.8-0.6,62.4c1.2,0.2,3.7,0.4,4.9,0.6
		c0.5-21.1-0.8-42.2-0.4-63.3c16,2.7,32.4,2.4,48.7,2.5c-0.4,8.3-0.9,16.6,0.2,24.9c2.1,0.3,4.4,0.6,6.5,0.9c2.5-1.5,5-2.9,7.5-4.4
		c-2.2-7.9-1.3-16-0.1-23.9l3.8-1.5c-0.7,0.9-2.1,2.9-2.7,3.9c4.4,7,2.8,15.1,6.2,22.4c8.9-1.7,17.6-4.2,26.9-4
		c-0.1-5.3-0.6-10.7-2.1-15.9c4.6,0.2,9.3,0.3,13.9,0.4c0.2,10.8,1,21.5,0.9,32.2c-3.5-1-3.8-4-4.6-6.5c-0.5,2.4-1,4.7-1.5,7.1
		c2.3,0.2,4.6,0.3,6.9,0.3c-0.2,7.4,0,14.7-2.5,21.9c-2,0.1-5.9,0.2-7.8,0.2c0.8,2.2,1.6,4.4,2.4,6.6c5.9,0.7,11.9,0.7,17.8,1
		c-6,1.5-12.4,1.5-18.6,1.9c-0.4,1-1.2,3.1-1.5,4.2c-3.2-0.9-6.3-1.9-9.4-2.9c1.4-0.2,4.1-0.4,5.6-0.5c0.1-2.3,0.3-4.6,0.4-6.9
		c-7.2,0.2-14.4,0.2-21.6,0.1V513c-3.2,0.4-9.4,1.3-12.6,1.7c2.5,1.1,5,2.1,7.5,3.2c-1.4,1.2-2.7,2.5-3.9,3.7c2,0.4,5.9,1.4,7.9,1.8
		c-7.1,3-15.1,3.6-23,2.9c1.5-0.9,4.4-2.5,5.7-3.3c-2.2-1.5-4.6-2.7-7.1-3.8c-6.6,0-13.1,1.1-19.7,1c7.5-1.6,15.3-2.8,22.3-5.7
		c-13.8,0.4-27.6,1.6-41.1,3.8c-0.7,0.4-2.2,1.3-2.9,1.6c-0.3,0.7-0.9,2-1.3,2.7c6.4,0,12.8-0.4,19.2-0.7c-3.8,1.4-7.5,2.7-10.5,5
		c8.8-1.7,17.7-3.9,26.9-3c-14.6,2.8-29.4,6-44.7,3.8c1.4-1.2,4-3.5,5.3-4.7c-6.3-1-11.5,3.2-17.7,2.1c-3.7,1.6-7.2,3.5-10.4,5.6
		c-8,0.3-16.1,0.4-23.9-1.2c5.5-1.8,12.4-1.5,16.4-5.4c-2.4,0-7.2-0.1-9.7-0.1c1-1.2,3.1-3.4,4.1-4.6c-17.7-2.9-35.7,2.2-53.2-0.4
		c3.3-18.8,1.1-37.7-1.2-56.5c0-3.3-2.5-5.8-5-8.1c2.5,11.9,3.2,24,3.6,36c2,12.1-0.9,24.1-0.4,36.2c-0.6,0-1.7,0.1-2.2,0.1
		c0.8-18.5-5.3-37-2.4-55.4c1.6-12.2-2.8-24.3-2.1-36.6c16.8-1.2,33,2.7,49.7,3c6.7,0.1,13.4,0.2,20.2,0
		c-26.9-1.8-53.8-5.3-80.7-6.8c1.8,1.8,3.8,3.6,5.6,5.3c1.5,8.1,2.3,16.3,2.1,24.5c-9.2,0-18.5-0.3-27.7-0.4c-0.3-3-0.6-5.9-1.2-8.8
		c-1.7-0.3-5-0.8-6.8-1c1.3,15.7-0.3,31.4,1.6,47c1.6,15.6,0.9,31.1-0.2,46.7c2.2,15,1.2,29.9,3.3,44.9c0.1,26.5,0.3,53-0.6,79.5
		c1.4,17.7,1.8,35.5-0.8,53.2c-3.1-1.5-6.3-3-9.2-4.9c-2-6.2-0.7-12.6-0.9-18.8c0.7-10.4-3.1-20.8-0.1-31
		c0.4-24.3-4.1-48.5-3.1-72.8c-1.2-23.1-0.3-46.1-1.5-69.2c-1.7-17.4,1.4-34.7-0.4-52c-5,6.8-4.8,15.1-5.4,22.7
		c-0.5-0.3-1.6-0.9-2.1-1.3l-0.9-0.9c-0.8-0.5-2.2-1.5-3-2l0.5,3.8c-16.9-0.3-33.6-0.2-50.4,0.6c-3.3-0.3-6.7-0.6-10-0.9l-1.3-0.2
		c0.1,1.2,0.2,3.4,0.3,4.6l0.1,1.4c0.9,0.1,2.9,0.3,3.8,0.4c18.5-1.8,37,1.2,55.5,1.3c-0.2,2.1-0.3,4.4-0.6,6.5
		c-0.7,3.6-1.3,7.2-1.5,10.8c-0.3,4.2-0.9,8.3-1.8,12.4c1.8,0.9,4.5,3.8,6.4,1.5c0.4-0.4,1.4-1.2,1.8-1.5
		c-1.8-6.8,0.4-13.6,1.9-20.4c0.6-3,1.2-6,1.8-9c0.4,0,1.3,0.1,1.7,0.1c-1.2,13.5,2.7,27.4-0.5,40.7l-7.1-1.3c2.6,2,5.8,3.1,8.9,4.4
		c-13.3,0.8-26.8,0.9-40.1-0.2c8.9-0.8,17.9-0.5,26.9-0.3c1.6-2.2,3.2-4.4,4.7-6.7c-3.9-4.3-7.8,0.3-9.6,3.3
		c-8.5,1.6-17.2,1.4-25.7,1.6c-10.6,0.1-21.2,0.1-31.9-0.2c-0.3-9-3.8-18.4,0.4-27.1c2.1-4.8,2.1-9.8,2.2-14.8
		c-2.4-5.6-2.4-11.4-2.4-17.2c0.9-2.3,1.8-4.5,2.7-6.8c-0.4,4.1-0.8,8.2-1,12.3l3.3-2.6c1.1-8.4,1.3-16.8,3-25.1
		c0.9-6.1,1-12.2,0.5-18.4c13.9,0.7,27.8,1.1,41.7,1.8c-10.4,1.2-21,0.3-31.6,0.4c-3.2-0.5-5.8,1-8.5,2.1
		c15.2,0.9,30.6,0.9,45.8,0.7c5.3-2.1,11.4-1.7,17.2-1.8c-1.6,12.6-2.8,25.1-4.5,37.6c-2.1,1.9,0.1,4.3,2.5,4.3
		c0.9-5,1.1-10.2,3.8-14.9l-2.2-1.5c1.1,0,3.2,0.1,4.3,0.1c-0.8-10.7,0.1-21.4,0.5-32.1c-10.6,1.9-21.6,1.3-32.2,0.6
		c-0.1-0.3-0.1-0.7-0.2-1c0,0,0,0,0,0c0,0,0,0,0,0c0-0.2-0.1-0.5-0.1-0.6c2.7-1.5,5.8-2.2,8.6-3.4c-7,0.2-14.1-0.2-21-1.5
		c6.2-1.5,12.8-0.7,19.2-0.3c9,0.7,18.2,0.4,27,2.5c-8.6,0.6-17.3,0-25.9-0.3c0.2,0.9,0.5,2.5,0.7,3.3c11.4-0.6,23.2,1.1,33.9-2.9
		c0.9,4.2,1.5,8.4,2.1,12.6h2.8c-1.1-5.2-2.1-10.4-2.8-15.7c-30.9-0.3-61.6-3.8-92.5-4.4c-19.4-0.1-38.8-1.9-58.2-2.7
		c-0.7,0.2-2.1,0.5-2.7,0.7c0.2,0.2,0.5,0.6,0.7,0.9c32.2,3.5,64.8,2.9,97.2,5.1c-15.7,2.6-31.6-0.3-47.5-0.4
		c-13.3,0-26.5-2.3-39.7-1.2c9.8,4,22.5,1.7,33.4,3.8c0.9,9.2,1.2,18.6,1.5,27.8c0,4.6,0.3,9.5-2.8,13.6c1.1,0,3.3,0,4.3-0.1
		c-4.4,3.5-11.1,2-16.7,2.1c-11.5-0.8-23.3,0.4-34.6-1.8c-0.8-4.7-0.3-9.4-0.2-14.1c-0.7-0.2-2.1-0.6-2.8-0.8
		c-6.5-2.8-14.2-2.1-21.3-2.6c-13.6-0.7-27.2-1-40.8-1.2c0.2-9.7,0.1-19.4-0.7-29.1c5.6-0.2,11.2-0.3,16.8,0
		c1.5-0.9,3.1-1.6,4.6-2.5c-8-0.4-16.2-0.1-24.3-0.6c10.5-2.8,21.6-0.9,32.2,0.3c-0.3-0.9-1-2.5-1.4-3.3
		c-10.8,0.1-21.5-1.5-32.2-0.5c0.5,10.3,2.7,20.4,1.8,30.7c-1.5-1.8-3.2-3.6-4.7-5.4c0.1-9.6-0.3-19.2-0.2-28.7
		c12-1,24,0.5,35.8,1.2c9.4,0.4,18.8,0.1,28.2,1.1c10.8,1.4,21.8,0.2,32.6,1.5c13.8,1.7,27.7,0.6,41.5,2.1c32.2,2.7,65,0.5,97,5
		c0.3,6.3-4.3,13.9,1.9,19.2c0.7-7.3,0.5-14.5,1.3-21.7c-12.3-0.1-24.4-2.3-36.7-2.1c-32.8,1.2-65.4-3.5-98.3-3.1
		c-31.4-1.6-62.7-4.3-94-6.3c-6.8-0.7-13.2,1.4-19.2,3.8c0.4,9.8,0.9,19.8,0.9,29.6c-25.4-0.7-51,1.5-76.3-0.7
		c-10-0.6-20.2-0.7-30.1,0.5c8.4,2.8,17.7,0.7,26.5,1.5c29.6,2.4,59.3-0.4,88.9,1.6c0.2,1.4,0.4,4.1,0.6,5.5
		c-19.5-1.9-39.1-2.4-58.8-2.1c-18.6,0.4-37.3-1.5-55.9-0.2c5.6,2.9,12.5,1.2,18.7,1.5c29.9,1,60,0,89.8,2.2c0.6,2,1.2,4,1.8,6.1
		c-6.5,0.1-13-0.1-19.5-0.4c-20.3-0.9-40.6,0.7-60.9-1c-10.1-0.8-20.2-0.4-30.4-0.2c0.6,0.5,1.7,1.6,2.3,2.1
		c24.5-1.2,48.9,2.1,73.5,0.6c9.8-0.3,19.7,0.9,29.5,1.5c0.9,11.1-0.2,22.3,1.5,33.4c0.7,6.7,0.6,13.4-0.3,20
		c1.2-1.1,2.3-2.1,3.5-3.3c-0.2-8-0.7-15.8-1.7-23.8c0-8.9,1.3-17.8,1.5-26.7c2.3,8.1,1.4,16.6,3,24.9c1.8,9.1-0.8,18.5,1.9,27.5
		c2.5-3.6,1.5-7.9,1.7-11.8c0.1-15.5-4.7-31-1.9-46.5l4-2.6c0.7,15.2,2.1,30.4,2.4,45.6c-0.9,19.6,0.9,39.2-0.3,58.7
		c-0.7,9.2-1.8,18.6-0.9,27.8c2.1,17.8,0.3,35.8,2.1,53.5c0.3,8.6,1.9,17.7-1.6,26.1c-3.6-14.3-2-28.8-1.4-43.2
		c-0.9-26-2.4-51.9-1.9-77.9c-1.1-8.6,1-17.4-1.8-25.8l-0.6-0.1c-2.3,13.3,0.4,26.6-0.3,39.9c-1.3,24.5,3.7,49.1,1,73.6
		c-1.3-10.2-0.1-20.4-1.6-30.5c-2.8-14.9-2.4-29.9-2.2-44.9c0.9-13.3-3-26.6,0.6-39.8c-1.1-0.1-3.3-0.3-4.4-0.4
		c-2.7,15.1,1.6,30.3,0.3,45.5c-0.9,19.7,2,39.3,3,58.9c-0.6,13.4,2.8,27-0.2,40.5c-1.6,9.5,0,19.2,1,28.7
		c0.9,15.1,0.9,30.4,1.1,45.6c-5.5,0.8-10.9,1.5-16.3,2.1c-0.4,6-0.4,12-0.2,18c-4.9,0.8-9.8,1.5-14.7,2.4
		c-0.6-24.5-1.8-48.9-4-73.4c0.7-34-2.6-68.1-3.3-102.1c-2.6-21.8,0.8-43.8-1-65.7c-1.4-12.1,1.8-24.3,0.3-36.4
		c-0.4-4.1-7-2.6-10.5-2.9c-25.5,1.5-51-0.4-76.5-0.3c-0.8,0.8-2.2,2.4-2.9,3.2c22.8-0.3,45.6,1,68.3-0.3c6.3,0.4,13.9-0.6,19,3
		c-14.2,0.3-28.3,1.4-42.5,0.3c-14.8-1.1-29.7-1.3-44.6-1.5c0.6,0.8,1.9,2.3,2.5,3.1c16.1,1,32.2,0.7,48.2,2.1
		c9.2,0.9,18.6,1.1,27.9,1.3c-0.3,17.2-0.3,34.3-0.3,51.5c-18.6,0.3-37.3,1.2-55.9-0.1c-6.6-0.4-13.2,0.2-19.7,0.9
		c0.9,2.8,1.3,5.8,1,8.7c18.7-0.9,37.5-0.1,56.2,0.1c-0.4,4.4-0.9,8.9-0.5,13.3c1.2,0,3.6,0.1,4.8,0.2c0.6-4.7,0.7-9.3,1-14
		c4.4-0.1,8.9,0,13.4,0c2.2,13.5,0.7,27.2,3.2,40.6c0.8,1.1,1.7,2.2,2.7,3.3l-3.1-1.5c0.3,10.9,1.9,21.7,1.6,32.6
		c0.2,10.9-1.1,21.8-0.5,32.8c-0.3,0-1-0.1-1.5-0.1c-0.9-2.6-2-5-3-7.6c-10.6,1.2-21.3,2.1-32.1,1.8c5.1-0.9,10.3-1.5,15.6-2
		c-1.2-0.7-3.6-2.1-4.8-2.9c-11.5,0.4-22.8,3.9-34.5,3.3c17-4.4,34.8-6.8,52.1-10.6c-0.1-0.9-0.2-2.8-0.2-3.8
		c-15,3-30.3,4.2-45.7,4.8c2.1-1.7,4-3.5,6.1-5.3c-9.2,0.1-17.8,2-26.1,4.4c-0.2,1.6-0.3,3.3-0.4,5c3.7,0.2,7.4,0.3,11.1,0.3
		c-2.8,2.5-3.4,5.4-2,8.6c-4.7,0.3-9.5,0.9-14.2,1.3c0.1,4,0.3,8,0.5,11.9c10.3-1.4,20.8-1.5,31.1-2.4c-0.2-1.1-0.4-2.2-0.6-3.3
		c-7.5,0.4-15.1,0.9-22.6,1.1c0.3-1,0.7-3,0.9-4c19.3-1.9,38.7-2.4,58.1-4.5c3.8-1.1,5.9,1.4,5.8,3.9c-13.5,1.5-27,3-40.7,3.1
		c1,0.6,3.1,1.8,4.1,2.4c7.9,1.9,16.1,0.2,24.1-0.3c-0.1,5.8-1.4,11.7-0.3,17.4c1.1,0.6,3.4,1.7,4.5,2.3c-0.3-6.8-0.3-13.8,0.6-20.6
		c4.6-0.2,9.2-0.3,13.9-0.7c1.2,14.4,2,28.8,1.7,43.2c-14.1,0.3-27.6,4-41.7,5c-3.2,0.4-5.5-1.8-8-2.8c-1.4,0-4.2,0.1-5.6,0.1
		c5-0.9,10-1.7,15-2.7c-1.5-0.9-2.8-1.7-4.3-2.5c-9,1.6-18.2,2-27.4,3.2c-0.1,0.9-0.3,2.6-0.4,3.4c4.5,0.9,9.1,1.7,13.5,2.7
		c-6.4,0.9-12.9,1.2-19.3,1.6c0,3.7,0.1,7.4,0.2,11c20-1,39.6-4.4,59.6-5.5c2.9,17.7,2.7,35.8,0.8,53.5c8.9,3.2,16.4,8.2,25.5,11
		c6.6-2.3,13.4-4.2,20.4-5.6c-0.1,12.1,0.3,24.2-0.2,36.3c-15-9.6-26-22.3-39.4-33.1c-3.7-3.1-9.1-5.9-7.9-10.9
		c-12.4,3-25.1,5.2-38.1,6c-6.4,0.6-13.9,0.6-18.8,4.5c6.4-0.3,12.7-1.2,19.1-2.2c7.4,8.6,17.5,15.6,24.9,24.3
		c10.2,12,19.9,24.3,32.8,34.6c9.8,8,19,16.3,28.7,24.3c0.3-37.1-0.9-74.3,1.7-111.4c4.1,3.8,0.4,9,1.1,13.3
		c1.5-2.2,2.7-4.5,3.8-6.8c0.8,0.4,2.2,1.2,2.9,1.5c1.5,3.8,3.1,7.7,5.9,11.1c7.8,9.4,14.9,19.2,20.4,29.7c2.3,4.9,6.1,9.1,10.3,13
		c3.5,3.5,7.4,6.8,10.3,10.7c8.9,13.5,19.8,26.2,29.9,39.1c4.7,6.1,11,11.1,15.8,17.1c4.9,6,2.2,13.4,2,20
		c-12.6-13.2-23.5-27.3-34.6-41.2c-17.4-26.9-38.5-52.3-58.9-77.8c-4.1-4.1-3.7-9.5-2.8-14.4c-1.1-0.2-3.3-0.6-4.3-0.9
		c0.3,38.9,1.2,77.8,0.7,116.7c0.2,6.9-2.3,14.3,2.1,20.8c3-40.2,0-80.6,1.1-120.9c6,8.7,14.5,16.1,20.5,24.7
		c5,12.5,1.7,25.9,3,38.7c2,15.1,0.1,30.2,0.1,45.2c-0.9,2.9,1.8,4.8,4.4,6.5c0.2-5.4,0-10.8,0.3-16.3c13.9-0.4,26.2-5.7,39.4-8
		c5.1,1.5,6.5,7,9.3,10.5c-24.8,7.7-50.1,14.4-75.2,21.6c5.9,3.2,13.3-2.4,19.7-3.3c6.3,8.1,15.4,14.5,22.2,22.4
		c0.9-0.8,1.6-1.5,2.5-2.3c-8.8-6.2-15.4-13.9-23.8-20.4c9.3-2.4,18.6-4.9,27.6-8c2.7,3.3,5.5,6.5,9,9.3
		c12.9,10.6,26.2,21,39.6,31.2c0.3,8.6-0.1,17.3,0.3,26c-0.3,2.6,1.2,4.9,3.1,6.9c0.9-13.9,0.6-27.7,0.2-41.6
		c-1.6-12.6-2.1-25.3-0.9-37.9c2,2.7,3.8,5.3,5.8,8c2.6,1.5,5.8,2.7,5.1,5.6c0.4,11.8-0.8,23.7,0.5,35.5c1.2,9.8-0.2,19.8,1.5,29.6
		c4.4-7.4,1.6-15.8,2.1-23.7c-1.4-15.4-0.4-30.7-0.9-46.1c8-2.2,16.3-4.3,24.3-6.4c0.1-0.9,0.2-2.8,0.3-3.8
		c-9.5,3.3-19.4,6.1-29.6,7.5c7.2-5.2,17.4-8,27.1-7.8c0.1-0.9,0.3-2.7,0.4-3.5c-9.8,1.3-19.2,4.1-28.7,6
		c-8.7-8.9-14.4-19.2-22.6-28.4c-16.9-14.9-27.4-33.4-42-49.7c-3.4-4.5-6.4-9.2-10.7-13.3c-7-6.2-10.6-14.3-15.6-21.6
		c-7.4-10.3-14.5-20.9-24-30.1c-0.9-6.3,9.8-4.4,14.9-5.8c3.4-0.3,6.8-0.7,10.3-0.9c1.1-0.9,2.1-1.9,3.2-2.9h0.2
		c1.3,2.2,2.2,4.7,4.1,6.8c0.4,0.4,0.7,0.7,1.1,1.1c-0.1,0.1-0.1,0.1-0.2,0.2c1.2,1,2.3,2.1,3.3,3.2c8.3,9.2,15.3,19.2,23.7,28.5
		c0.1,0.1,0.2,0.2,0.3,0.4c0.7,0.8,1.4,1.6,2.2,2.4c2.9,3.9,5.9,7.9,8.8,11.8c0.3-0.6,1.1-1.8,1.5-2.4c3.2-0.4,6.4-1,9.6-1.5
		c7.4-1.8,15.3-2.1,22.2-4.8c0.5,0,1.6,0.1,2.1,0.2c-0.8-0.9-2.4-2.5-3.2-3.3c3.5-7.4,9.5-13.9,13.5-21.2
		c6.9,6.2,9.8,15.4,19.2,19.7c0.9,0.4,2.7,1.3,3.6,1.7c-16.4,3.1-33.3,6.2-47.9,13.3c1,5.6,3.5,11.2,1.3,16.8
		c-1.8,3.3,0.4,6.6,1.6,9.8c0.2,3.8,0.7,7.8,4.7,10.3c-0.5-2.8-1.1-5.6-1.9-8.3c1.4,0,4.1,0.1,5.6,0.1c-3.7-3.3-6.4-7.3-8.5-11.4
		c5.6,3.3,10.5,7.3,15.1,11.5c8.3,7.6,18.1,14,25.5,22.2c-2.1-0.4-6.2-1.2-8.3-1.5c-6.9-6.8-14.4-13.4-21.6-20.1
		c-0.9,0.8-1.7,1.5-2.6,2.3c7.5,4.7,13.4,10.8,20.1,16.2c7.1,7.3,16.3,13.1,22.8,20.9c-19.5-6.8-31.2-21.9-47.6-32.2
		c1.9,4.6,5.6,8.7,10.8,11.4c13.3,7,23.9,16.7,37.5,23.3c0-1.8,0-5.2,0-7c2.9,3.1,5.6,6.2,8.2,9.4l-3.9,2c4.2-0.7,8.3-1.5,12.4-2.4
		c-1.5-0.3-4.4-0.9-5.9-1.1c-4.4-5.7-9.6-11-14.9-16.2c3.8,1.1,7.6,2.4,11.4,3.5c-3.4-8.5-14.5-13.1-17.6-21.6
		c-12.3-11.2-25.1-22.2-36.1-34.1c-3.3-4.6,4.3-6.5,8.2-8c17.4-5.1,35.5-9.2,54-10.8c20.4-3.3,41.2-5.2,61-10.3
		c14.5-1.1,29-3.3,43.6-4.2c10.9,5.6,23,9.5,33.4,15.7c12.2,7.7,25.5,15.2,32.5,26.7c-31.1,10.3-64.2,16.4-96.3,24.1
		c-19.8,3.3-39.2,7.8-58.7,12c-8,1.5-16.1,4.2-24.4,2.6c2.3,2.1,4.7,4.2,7,6.2c-0.3,2.1-0.7,4.2-0.9,6.3c4.4-0.9,8.9-1.6,13.3-2.6
		c-5.4,1.6-11.3,3-14.5,7.2c12.6-1.9,23.9-6.9,35.9-10.1c16.2-5.3,33.2-9,49-15.1c25.1-6.4,50.2-13.4,76.3-16.8
		c1.3,0.9,3.8,2.5,5,3.3c-24.4,5.3-48.9,10.2-72.5,17.4c-14.4,3.1-28.1,7.8-42.6,10.8c-16.3,2.4-31,8.9-47,12c2.5,0.7,5,1.4,7.5,2.1
		c-3.3,1.2-6.3,2.8-8.8,5c9.3-1.4,17.4-5.6,26.3-8.1c9.7-2.9,19.2-6.2,28.3-9.8c12.3-2.9,24.2-7,36.4-10.3c3.5,2.2,7,4.4,10.8,6.5
		c-3.1-2.2-6.3-4.3-9.5-6.3c2.1-0.9,6.2-2.5,8.2-3.3l-1.3,2.3c9.4-5.1,21.3-5.8,31.8-8.9c11.6-3.5,24.3-3.9,35.8-7.7
		c-0.1-1.2-0.3-3.7-0.4-4.9c1.8-1.2,5.6-3.6,7.4-4.8l-6.2,0.9c0.3-1.2,1-3.7,1.4-5c-5.6,1.8-10.6,4.6-16.1,6.6
		c-24.7,6.1-50,10.9-74.3,18c-11.3,1.4-21.7,5.2-32.6,8c-14.3,3.8-28.9,6.9-43.5,9.7c0.4-0.7,1.4-2.2,1.8-2.9c0.3-1,0.9-3.2,1.1-4.2
		c17.6-3.5,35.1-8,52.8-11.3c30.3-5,59.7-12.8,89.5-19.4c9.9-2.1,19.2-6.2,29.7-5.8c-6.8-12.1-20.4-20.3-33.1-28.4
		c-8.6-5.6-18.3-9.9-27.8-14.4c-0.8-1.5-1.5-3-2.2-4.5c-7.7,0-15.5,0.3-23.1,1.4c-23.8-10.3-45.1-23.6-67.2-35.9
		c-5.6-2.8-11.2-5.6-15.8-9.3c2.2-0.3,6.6-0.9,8.8-1.1c0.4-1,1.3-3,1.7-4c14.5-0.4,26.4,6.9,37.4,13.5
		c20.4,10.3,39.6,22.2,60.4,32.2c10.9,5.7,22.4,10.6,33,16.6c5,2.8,10.1,5.9,16.3,7.2c-0.3-0.6-0.8-1.6-1.1-2.3
		c2.4,0.4,4.7,0.8,7,1.2l-1.5,0.9c13,2.4,22.1,10.6,33.5,15.5c11.5,5,22.8,10.6,34.3,15.7c7.7,3.4,16.3,5.3,24,8.5
		c13,5.2,25.6,11.1,38.7,16.3c6.2,2.4,11.7,5.6,17.2,8.7c7.5,4.5,16.3,7.5,24.1,11.7c10.9,6,22.2,11.6,33.4,17.3
		c11,5.6,24,8.4,35.1,13.9c16.3,8.6,34,15.5,51.1,22.9c10.9,3.7,19.6,10.3,29.9,14.7c-4.3-5.1-11.2-8.3-17.7-11.5
		c-11.9-5-23.8-10.1-35.7-15.1c-16.2-7.6-31.8-16-49.4-21.4c-15.4-6.5-29.7-14.5-44.2-22.2c-7.4-3.6-15.3-6.3-22.2-10.4
		c-16.9-10.3-36.4-17.1-54.9-25.2c-16.2-6.1-32.9-11.1-47.8-19.1c-19.6-8.9-38.2-19-58.4-27.1c0-0.2,0.1-0.4,0.1-0.5l-0.3,0.2
		l0.2,0.3c0,0,0,0,0,0c0.7,1,2.2,3,3,4.3c-4.3-1.7-8.2-4-12.1-6.2l5.1-0.6c-10.8-6.4-22.3-12.1-35-15.9c-2.3-0.4-4.5-0.9-6.8-1.2
		c-5.5-2.8-10.9-5.7-16.1-9c-0.9-0.3-2.7-0.9-3.7-1.2c-13.1-7.9-26.7-15.1-40.5-22.1c-8-5.6-17.4-9.6-26.9-13.5
		c-3.2,0-6.4,0-9.6,0.1c-1.1-2.6,0-7.2-5.6-6.1c-2.8-3.3-5-6.8-4.2-10.8c11.6,5,22.7,10.7,34.7,15.1c8.6,3,16.6,8,26.2,8.8
		c-13.8-8.5-31.4-11.8-46-19.2c-5-2.6-10.3-5-15.7-6.9c-2.1-0.9-4.4-1.9-6.5-2.7c-6.9-4.4-18.3-6.4-19.2-14.6
		c-15.2-6.6-32.9-8-48.2-14.5c1.4,1.5,2.8,2.9,4.2,4.4c-7.6-0.3-16,1.4-23-1.9c-15.2-6.3-30.4-12.9-45.1-20
		c-1.1-1.1-9.7-2.2-3.8,0.7c13.9,8.8,31.6,12.8,46,21.2c-9.7,0.6-19.2,1.8-28.9,1.5c-5.4-4.5-11.9-8.1-18.4-11.6
		c-2.5-22.5-1-45-2.7-67.5c-0.5-15.6,2.3-31.1,1.3-46.7c-1-25.3,1.1-50.7-2.6-75.9c17.2,1,34.4,2.1,51.7,1.9
		c1.4,10.3,1.2,20.6,1,30.9c-0.3,11.8,2.1,23.4,2.3,35.2c-0.3,10.7-0.4,21.5-0.2,32.2c0.8,15.6-3.4,31.1-0.8,46.8
		c1.4,6.2-1.4,13.1,2.9,18.7c3-10.7-0.3-21.6,0.1-32.4c-0.1-9.8,1.2-19.6,2-29.4c0.3,0.3,0.9,1,1.2,1.3c0.7,9.6,0.9,19.2,0.4,28.7
		c-2.1,11.2-1.4,22.5,0.9,33.7c3.5-4.8,1.9-10.4,1.7-15.7c-0.6-5.8,0.8-11.5,1.8-17.2c-0.7,9.8,1.9,19.8,0,29.6
		c1.3,0.1,3.7,0.3,5,0.4c-0.9-15.1-1.4-30.4-2.8-45.5c1.9-13.3-1.4-26.6,0.2-39.9c0.9-11.5-1.6-23.1-1.1-34.6
		c0.3-6.8,0.9-13.8,0-20.6c16.9,0.2,33.9,0.1,50.8,0.5c4.4,20.5,0.8,41.5,2.7,62.2c-1.4,0.7-4.3,2.1-5.6,2.8c2.9,2,5.4,4.7,8.8,6.1
		c7.8,0.5,15.7,0.2,23.5,0c0.3,3.7,0.8,7.4,1.1,10.9c0.6,6.2,0,12.6,0.8,18.8c7.4-0.2,15-1.2,22.2,0.9c-0.8,0.3-2.3,0.9-3.1,1.2
		c-3.1,0.2-6.2,0.3-9.2,0.3c-3.9-0.1-8-0.2-11.6-1.6c-8.9-3.6-19.4-4.4-27.2-9.7c-13.9,2.3-28.3,0.1-42.2,2.4
		c1,15.6,0.9,31.2,0.3,46.8c-3.6,0.3-7.2,0.5-10.8,0.9c-0.3,3.8-1,7.4-2,11.1c6.9-0.6,13.8-2.4,20.8-2.1c9.2,3.6,17.3,9.1,27.1,11.8
		c8.3,2.3,16,5.7,23.5,9.2c25.5-2.7,51.2-5.6,77-7.2c1.5,7.9,2.7,15.8,0.2,23.7c-6.4-3.1-12.5-6.6-19.8-8.3c5.9,4.2,13,7,19.7,10.3
		c0.3,9.5,0.7,18.9,0.2,28.4c-22.1-11.3-47.1-18.1-69.3-29.3c-17.4-8.9-36.8-15.2-54.5-23.9c-3.4-1.8-7.4-2.6-11.4-3.1
		c-1.8,1.4-3.6,2.7-5.3,4.2c1.8-1.1,3.5-2.1,5.3-3.2c22.4,10.3,45.8,19.2,68.7,28.8c19.1,8.9,39.7,15.5,58.9,24.1
		c5.7,2.1,7.4,7.4,11.2,11c-1.3,1.1-2.6,2.1-3.8,3.3c2.5,1.3,4.9,2.6,7.4,3.8l-3.4-2.1c1.2-0.8,2.5-1.5,3.7-2.3
		c4.8,2.8,11.2,5,16.9,2.4c9.3-4.5,19.9-7.2,30.7-8.4c4.4,2.7,10,4.5,13.3,8.1c-3.7,2.7-8.9,3.3-13.5,4.5c-5.5-2.6-11.1-5-17-6.9
		c7.6,4.2,16.3,7.1,24.3,10.7c1.7-3.8,7.3-4.3,11.2-6c7.9,0,14.2,4.7,21.5,6.6c16.5,4.7,32.2,10.9,48.2,16.8
		c14.5,5,28.8,10.3,41.8,17.4c26.3,12,53.3,22.9,79.4,35.2c-9.2,2.5-21.4,0.1-28.3,6.3c-25.5-8.8-49.7-19.8-74-30.4
		c-15.7-8.2-32.2-15.7-47.5-24.6c-1-0.1-3.2-0.2-4.3-0.3c1.2,0.3,3.4,0.7,4.6,0.9c0.1,0.8,0.2,2.3,0.3,3.1c7.4-0.3,12.5,4.1,18,7.3
		c8.3,5.2,18,8.9,26.7,13.7c25.5,10.8,50.2,22.8,76.8,31.7c8.8-4.5,20-3.6,29-7.6c1.4,1.1,4,3.3,5.3,4.4c0.9-7.9,0.3-15.7,0-23.6
		l-4.7,0.3c-0.1,5.2,2.1,10.9-1.5,15.7c-3.9-19.8,0.3-39.8,1-59.6c1.1-5.2-0.2-12.1,6-15.6c-3,19.5-6,39.1-5.2,58.8l4.1-0.2
		c0.3-13.3,0.9-26.8,2.3-40c1.3,16.9-2.5,33.9-0.3,50.7c1,6.7-3,15.7,6.5,19.7c-3.5-24.4-1.1-49,0-73.4c0.4-2.5-0.2-5.6,2.9-7.3
		c7.4-1.9,15.4-1.3,23.2-1.3c-5.6,1-11.3,2.1-17.1,2.7c-1.7,0.1-5,0.3-6.8,0.5c0.9,2.2,1.6,4.6,1.2,7c-1.8,13.9-0.6,27.8-0.9,41.7
		c-0.3,9.3,2.5,18.8-0.4,28.1c0.9,2.3,1.9,4.6,2.9,7c2.9,0.3,5.8,0.5,8.8,0.8c-0.1,2.5-0.1,4.9-0.2,7.4c2.8-0.4,5.7-0.9,8.6-1.4
		c1.9,4.7,7.4,4.3,12.5,3.8c0.1,1.4,0.2,4.2,0.3,5.6c4,0.2,8.6-1,12.1,1.3c-0.2-1.5-0.3-3.2-0.5-4.7c-1.9,0.3-5.6,0.9-7.4,1.3
		c3-8.2-2.3-16.4-1.6-24.7c-0.8-10.9,1.5-22.2-2-33c-0.5-6.6,1.7-13.3-0.8-19.7c-2.9,14.5-1.8,29.3-0.4,44c0,9.1-0.7,18.1-1.1,27.2
		c-1.2,0.5-3.6,1.5-4.7,2.1c-0.9-13.3-0.4-26.5-0.5-39.8c0.3-14.8-0.8-29.8,2.7-44.4c6.7-3.3,15-3.1,22.5-3.8
		c-0.2-5.2-1.4-10.3-2.8-15.4l-4.2,0.3c0-3.2,0-6.4,0-9.7c1.8,2.2,3.6,4.4,5.6,6.7c2.6,2.8,2,6.6,3.9,9.6c0.8-4.4,0.7-8.8,1.1-13.2
		c2,3.2,3.6,6.3,5.1,9.7c1.4-3.5,3.4-7,6.9-9.5c-0.2,2.1-0.4,6.2-0.6,8.4c3.8-1,7.7-2,11.6-2.7c-3.5-3-7.3-5.7-11-8.6
		c2.8,0.9,5.6,1.8,8.6,2.8c1.3-1,2.7-2.1,3.9-3.1l-4.4-1c1.2-0.7,3.5-2.1,4.6-2.9c0.1,2.9,0.2,5.9,0.4,8.8
		c5.9,1.3,11.8,2.7,17.9,3.5c22,2.9,43,9.4,65.2,11.4c12.4,1.1,24.5,3.8,37,4.3c-1.4,2.7-2.8,5.4-4,8c-0.9-0.4-2.9-1.4-3.8-1.9
		c-2.4-2-4.4-4.1-6.9-6c-3.7-0.4-4.1,3.5-6.1,5c-1.1-0.1-3.3-0.3-4.4-0.3c-0.7-2.1-1.4-4.1-2-6.2c-6.1-0.2-11.6,1.5-16.2,4.7
		c-2.2-2.1-2.6-5.9-6.4-6.6c-2.8,1.3-5.6,2.6-8.6,3.8c-5.6-1.5-9.7-8.8-15.9-6.6c3.8,1.5,4.7,4.7,4.8,7.8c1.3,0.6,3.8,1.8,5.1,2.4
		c0.8-0.4,2.4-1.3,3.3-1.7c2.4,1.4,4.7,2.7,7,4.2c-5.1-0.3-10.2-0.9-15.2-1.7c-0.6-0.7-1.9-2-2.5-2.7c-0.1-1.3-0.3-3.8-0.4-5.1
		c-1-0.5-3.1-1.5-4.2-2c-2.8-1.6-5.6-3.3-8.5-4.9c-1.9,1.5-4.1,2.5-6.5,3.1c-2-1.1-3.4-2.6-4.4-4.4c-0.9-0.1-2.9-0.3-3.9-0.5
		c-1.1,0.3-3.3,0.7-4.4,0.9c-0.4-0.5-1.4-1.5-1.8-2.1c-1.9-2.7-5-4.3-9.4-4.4c1.2,2.8,3.4,5.1,6.6,7c-3.6-1.5-7.3-3.4-11.5-2.6
		l-0.1-1.8c-4.6,1-9.3,2-14,2.8c1.9,0.7,5.6,2.1,7.5,2.7c1.2,2.2,2.3,4.5,3.4,6.8c1.9-2.6,3.6-5.2,5-8c-0.1,4.4,0.8,8.8,1.5,13.2
		c1.4-0.4,4.1-1.3,5.5-1.6l-2.7-3.7c4.1,0.7,8.3,1.5,12.6,1.8c-3.8-3.3-8.9-5.4-13.8-7.4c6,1.7,12.1,4.4,18.7,3
		c-1.6,2.1-3.5,3.9-5.9,5.5c4.8,1,10.4,1.6,13.1,5.5c1.7-0.9,3.4-1.6,5.2-2.5c5.1,0.8,6.8,5.6,11.8,6.6c0.9,10.4-21.7,6.8-19.8,17.5
		c0.2,6.9,1.2,13.9,0.5,20.8c-1.1,11.9-0.9,23.8-1.1,35.8c-0.6,7.2-0.3,14.4-0.8,21.6c0,4.3-6.2,5.2-10,6.9
		c-2.2-15.6-1.4-31.2,0.2-46.8c-1.8-13.4-1.4-26.9-1.7-40.3c9.2-4.4,19.4-7.4,29-11.4c-2.5-2.1-4.4-4.4-7-6.3
		c-2.1,1.9-3.9,4-6.8,5.1c0.7,0.9,1.5,1.6,2.2,2.5c-6,3.4-13.7,7.3-20.9,3.4c-1.3,10.4,0.3,21-0.3,31.5c-0.7,17.6-0.2,35.2-0.2,52.8
		c-2.9,1.1-5.7,2.2-8.6,3.3c1.7-18.6,1.5-37.4-1-56c0.1-10.7-1.5-21.7,2.9-32.1c1.4-0.1,2.8,0,4.2,0.3c7.7-2.7,15.2-6.1,23.7-7.3
		c0.3-1.1,0.4-2.3,0.6-3.4c-1.6,0.2-3.2,0.4-4.7,0.7c-1.1-0.7-3.3-2-4.3-2.7c-1.8-2.9-5.1-3.9-9.1-4.1c1.1,2.7,2.3,5.2,3.4,7.9
		c-7.4,1.8-14.9,3.5-22.2,5.5c0.9,11.2-0.7,22.4,0.8,33.6c0.8,6.2,0.4,12.6,0.3,18.8c-0.3,10.2,2.1,20.4-0.4,30.6
		c-4,0.7-8,1.4-12.1,2.1c0.4-1,1.2-2.9,1.6-3.9c-1.2-7.3,0.5-14.6,0-22c-0.4-6.3-0.6-12.7,0-19.1c1.3-13.3,0.1-26.5,0.9-39.8
		c9.1-3.2,18.6-5.5,28.3-7.2c-2.1-2-4.1-3.8-6.2-5.8c-1.1,0.9-2.3,1.8-3.3,2.7l-1.7-2.1c-6.7,3.6-14.2,6.2-22.3,6.6
		c5.7-3.5,15.4-1.8,19.5-6.5c-0.2-0.8-0.4-2.3-0.6-3.1c-0.8-0.9-2.3-2.6-3.1-3.4l0.3,3.5c-4.3,1-8.6,2.1-12.8,3.2
		c-5.7,1.8-11.5,3.3-17.4,5c-2.6,21.6-3.1,43.5-1.1,65.1c0.3,8.7,0.5,17.4-0.3,26.1l3.6-0.4c2.6-0.3,5.2-0.5,7.9-0.7
		c1.5,1.7,2.9,3.4,4.4,5.2c4.1-1,8.2-2.1,12.2-3.2c0.4,1.8,0.8,3.7,1.3,5.6c0.7,3.2,1.4,6.3,1.9,9.6c-11.2-4.4-22.3-9.2-34-13.1
		c-23.5-7.7-45.8-17.6-69.2-25.7c-2.6-0.9-5.4-1.3-8.1-1.8c14,6.4,29.3,10.9,43.7,16.8c22.1,9,45.2,16.2,66.6,25.9
		c0.4,1.1,1.3,3.3,1.7,4.4c0.9-0.9,1.7-2,2.5-2.9c-1.5-3.4-2.3-7-1.3-10.5c1.3,0.2,3.8,0.5,5,0.7c-0.3,3.6-1,7.2-2.4,10.7
		c0.1,1.1,0.3,3.2,0.3,4.3c2.1-0.3,4.2-0.6,6.3-0.9c18.5,6.8,35.4,15.7,53.5,23.1c29.4,13.4,60,25.1,90.4,37.1
		c12.1,5.4,24.2,10.7,37,15c-26-10.8-51-23.2-77.5-33.2c-34.3-14.1-67.3-30-101.6-44.2c5.1-2,10.2-4,15.2-6.1
		c-2.7-0.1-5.4,0.1-8,0.2c2.7-1.2,5.4-2.5,8.1-3.7c0.4,3.1,0.9,6.1,1.4,9.2c3.5-1,6.9-2.1,10.3-3.2c24.6,8.8,48.1,19.7,72.4,29
		c27,10.9,55.5,19.4,82.4,30.4c2.1,3,6.8,3.1,10.4,3.9c-1.8-1.6-3.6-3.3-5.4-5c-1.3,0.1-3.8,0.2-5.1,0.3
		c-13.9-6.9-29.8-10.6-43.7-17.3c8.6-4.5,20.2-3.3,28.3-8.5c-11.4,0.5-22.2,3.7-32.8,6.8c-18.3-7.1-36.9-13.9-54.5-21.9
		c4.4-3.3,8.7-6.6,13-10c0.1,3.9,0.2,7.9,0.3,11.8c3.2-1,7-1.4,8.6-4.1c3.3-4.2,8.1-7.5,13.2-10.4c0.6,5.7-4.4,13.9,3.6,17.4
		c4.8-6.4,10.4-12.5,18.7-16.3c0.4,2.6,0.9,5.2,1.4,7.8c-0.2,3.3,0,6.5,0.3,9.8c3.3,0.1,6.6,0.3,9.9,0.1c2.4-3.6,0.4-11.4,7.1-11.5
		c5.8,4.7,0.7,12.7,6.7,17.4c2.1-4.4,4.3-9,6.2-13.5c4.9,2.6,9.8,5.1,14.8,7.6c-0.1,3.3,0,6.6,0.1,9.9c2-0.1,3.8-0.2,5.8-0.2
		c0.3-2.9,0.5-5.9,0.9-8.7c3.7,1.5,7.4,3,11,4.5c2-1.8,4-3.6,6.1-5.4c0.1,1.4,0.1,4,0.2,5.3c1.3-0.3,3.8-0.9,5.1-1.1
		c0,1.3,0.1,3.8,0.1,5c-2.2-1.4-4.4-2.7-6.7-4c1.1,3.3,4.1,5.8,7.4,8c1.3-4.8,1.1-9.8,0.7-14.6c2,0.4,5.8,1.2,7.7,1.6
		c5.2,8,9,16.7,12.3,25.4c-11.3-4.4-22.8-8.6-34.1-13.1c-2.8-1.2-6.2-0.9-9.2-1c17.4,6.9,35.6,12.7,52.9,19.8
		c20.1,8.6,41.3,15.3,61.6,23.6c19.1,6.6,36.4,16.1,56.2,21.2c12.8,3.3,24.1,9.8,37.6,11.6c-23.4-11.3-50.6-16.2-74.2-27.2
		c-29.6-12.7-61-22.7-90.7-35.3c3.3-0.9,6.8-1.5,10.2-2.2c0.3-4.2,0.5-8.5,0.8-12.6c2.9,3.6,6.3,7.1,11.1,9.3c-0.5-3.2-2-6-3.8-8.8
		c27,7.4,52.6,17.6,78.7,26.9c13.7,6.1,29.1,8.7,43.1,14.1c26,7.7,50.6,18,76.2,26.5c10.3,2.5,19.6,7.4,30.4,8.7
		c-10.9-6-24-8.6-36.1-12.7c-22.5-8-44.7-16.4-67.7-23.7c-14.4-5.2-29.9-8.1-43.9-14c-9.9-4.1-20.4-7.3-30.5-11
		c4.4-2.1,9.2-3.8,14.2-4.9c0.8-0.4,2.2-1.4,2.9-1.9c5.6-1,11.5-3.3,17.3-1.6c35.3,9,68.1,23.1,103.1,32.7
		c20.4,5.8,40.8,11.9,59.9,20c15.6,4.2,31,9.1,46.7,12.9c6.1,1.6,12.1,3.7,18.6,3.6c-16.5-5.4-34-8.4-50.6-13.8
		c-16-3.8-29.8-11.5-45.5-16c-27.4-8.1-54.9-16.1-81.6-25.6c-29.5-10.6-60.9-17.6-89.9-29.2c-13.4-5.3-28.2-8.4-41.4-14l-1.7-1.5
		c0.6-0.6,1.8-1.9,2.4-2.6c13.1-0.7,26.9-3,39.5,1.2c16.9,5.2,33.9,10.5,51.3,14.7c14.2,3.2,27,9.3,41.4,12.4
		c20.4,5.7,41.1,11,61.6,16.8c20.2,5.6,39.2,13.7,59.6,18.8c23.8,5.8,46.9,13.2,69.8,20.7c20.1,7.9,41.7,12.7,63,18
		c-10-5.2-22.3-6.2-33.3-9.8c-31-9.2-60.7-20.6-92.2-28.7c-22.2-5.2-43.1-13-64.3-19.9c-25.9-7.6-52.8-13.1-78.4-21.6
		c-25.5-9.2-53.3-13.6-78.2-23.8c11-3.3,23.2-2,34.4-4.5c6.2-1.1,12.3-3.1,18.7-3.4c23.9,6.3,45.5,17.2,69.8,22.7
		c32.4,9.8,64.1,21.8,98.3,27c12.1,2.4,22.7,7.8,34.6,10.6c14.9,5,30.5,8.6,45.1,14c14.5,5.2,30.3,7.7,44.2,13.9
		c17.4,7.7,36.4,12.1,54.9,17.7c8.9,2.2,17.7,5.2,27.1,5.9c-19.7-6.1-39.6-11.7-59.7-16.8c-14-4-26.3-11-40.7-14.3
		c-18.5-4.2-35.2-12.1-53.5-16.8c-8-2.2-15.7-4.8-23.8-6.8c-10.9-2.7-20.6-7.9-31.9-9.6c-33-5.4-63.7-16.9-95-26.3
		c-22.6-6-43.4-15.4-65.7-22c5.9-3.3,12.6-6.2,19.9-6.4c8.9,1.6,17.2,5,25.9,7.1c38.4,9.7,76,21.3,113.9,32
		c22.6,5.1,44.7,11.6,67.6,16.1c22.1,5.3,44,10.8,65.5,17.3c13.7,2.8,25.4,9.6,39.1,12.4c19.2,4.7,37,12.4,56.5,16.4
		c-0.2-0.7-0.4-2.1-0.5-2.9c-8.3-0.8-16.1-3.2-23.6-5.9c-14.4-5.3-29.7-8.8-44.5-13.2c-37.2-13.3-76.6-22.5-116-30.9
		c-19.3-6.2-39.9-9.2-59-15.6c-40.8-11.1-81.2-23.3-122.1-34.1c9.2-3,17.3-7.8,25.7-12c16.3,1.4,29.9,9.3,44.9,13.7
		c10.7,1.9,21.2,4.4,32,6.1c16.1,3.2,31.5,8.2,47.7,11c15.7,2.5,29,10.1,44.7,12.7c16.5,5.5,34.6,6.2,51.6,10.2
		c25.9,6,52.7,9.2,78.4,15.9c1,0.6,3.2,1.8,4.2,2.4c18.4,2.7,35.4,9.7,52.9,14.9c9.3,2.7,19.1,4.3,28.4,7
		c12.1,3.3,22.6,9.6,34.7,12.8l1.7-0.9c-0.2-0.4-0.5-1.2-0.7-1.6c-15.1-4.5-28.8-11.9-44.7-15c-12.2-2.5-24.3-5.6-35.5-10.2
		c-27.3-8.4-54.7-16.9-83.6-21.3c-18.7-2.3-36.7-7.5-55.3-10.2c-16.3-2.1-31.8-7.1-47.6-10.9c-18.2-7.2-38.5-9.2-57.5-14.5
		c-18.4-4.4-37.4-6.9-55.6-11.7c-12.5-4.3-24-10.4-37.5-12.6c5.3-5,8.8-11.1,9.8-17.7c20.8,3.3,39.6,11.1,59.7,16.2
		c14.6,2.5,28.1,9,43.3,9c13.6,0.4,25.3,6.2,37,11.1c26.4,7.5,54.1,11.7,80.7,19.1c21.6,4.8,43.3,9.2,64.9,13.9
		c32.6,8.3,66.4,13.5,98.7,22.8c10.8,2.5,20.6,6.9,31.5,9.3c0.1-0.8,0.2-2.3,0.2-3.1c-17.1-4.1-33.3-10.2-50.6-13.9
		c-26.8-7.3-54.8-11-81.5-18.3c-9.4-1.9-18.6-4.2-28-6.5c-27.6-4.1-53.9-12.3-81.1-17.8c-15.1-3.8-31.3-5.9-45-12.7
		c-14.5-6.8-32.3-3.7-47.4-9.2c-10.7-3.6-22.5-4.3-32.9-8.2c-16.2-5.3-32.5-10.3-49.5-13.6c-2.7-5.7-6.1-11.2-10.1-16.4
		c12.7,3.3,26,4,38.8,6.7c18.5,3.7,36,9.9,54.7,12.9c27.5,4.7,51.5,17.2,79,21.6c18,4,36,8.1,53.9,12.6c13.1,2.1,26.1,4.8,38.7,8.4
		c44.7,10.3,89.6,19.9,134.2,30.5c8,2,16.2,3.8,23.2,7.6c1.1,0,3.3,0,4.3,0c-0.3-0.7-0.8-2.1-1.1-2.9c-25.1-7.4-50.7-13.3-76.4-18.9
		c-20-5.6-40.8-9-60.9-14.3c-19.2-3.8-37.8-9.5-57.2-12.5c-26-6.2-52.1-12.2-78.4-17.6c-22.6-6.2-44.2-15-68-18.2
		c-12.1-1.1-22.8-5.8-34.5-8.2c-17.3-4.4-35.3-6.5-53-10c-3.6-3.1-7.1-6.2-10.5-9.4c17.4-0.7,34.8-1.1,52.2-0.3
		c12,1.5,23.4,4.9,35.2,7c31.8,5.2,62.4,14,93.3,21.8c21.6,3.7,42.6,9.2,63.8,14.4c26,4.5,51.4,11.2,77.5,15.7
		c11.3,2.3,22.8,4.2,33.7,7.6c13.8,4.4,28.7,5.6,42.6,9.7c13.8,4.1,28.2,6.4,42.4,9.6c-4.1-4.7-11.7-5-18-6.3
		c-15.3-2.7-29.4-8.2-44.7-10.6c-15.7-2.6-30.2-8.3-45.8-10.9c-23.6-4.1-46.9-9.3-70.2-14.5c-23.7-3.3-45.8-11.2-69.3-15.2
		c-21.6-3.9-42.7-9.5-64.1-14.3c-21.7-5-43.8-9.2-65.8-13.5c-0.7-5-1-10-2.8-14.8c-2.2-1.6-5-2.7-7.5-3.9
		c22.2,4.8,45.2,6.7,67.5,11.2c14.4,3.2,29.9,3.1,43.5,8c7.2,2.3,15.1,2.7,22.4,4.7c9.2,2.7,19,2.8,28.4,4.8
		c11.1,1.9,21.3,6.2,32.6,7.4c17.7,1.7,34.6,6.5,52,9.5c21.9,3.4,43.6,7.4,65.4,11.2c11.8,3.4,24.5,3.3,36.4,6.3
		c12.8,3.8,26.2,6.4,39.6,8.6c-0.5-1.1-1.1-2.2-1.6-3.3c-12.6-1.5-25-4.1-36.9-7.7c-8.5-2.5-17.7-2-26.3-4
		c-17.9-4.9-36.6-6.8-54.7-10.8c-18.3-2.5-36.4-6-54.1-10c-11.1-2.5-23-2.6-33.8-5.9c-10.9-3.3-22.3-5.3-33.8-6.6
		c-23.4-4.4-46.5-9.7-70.1-13.1c-19.2-3.4-38.6-7.4-58.3-8.5c-0.4-0.6-1.3-2-1.7-2.7c7.4-0.3,14.6-0.8,21.9-1.6
		c-0.2-3.1-0.3-6.1-0.5-9.2c22.2,6.7,46.1,7.6,68.9,12.3c7.9,2.5,16.1,4.1,24.5,4.9c15,3.7,30.5,5.9,45.9,8.1
		c19.3,4.1,39.2,6.3,58.5,10.7c14.4,3.3,29.2,4.7,43.7,7.5c22.4,4.3,45.8,5.2,67.8,11.1c12.8,4.8,27.1,5.3,40.6,8.3
		c-0.3-0.9-0.8-2.5-0.9-3.3c-11-2.7-22.8-2.8-33.7-6.1c-18.1-5.8-37.7-7.6-56.9-10.3c-10.5-1.8-21-3.8-31.5-5.4
		c-24.4-3.3-47.8-9.7-72.2-12.7c-18.7-4.4-38.4-5.7-57.1-10.2c-6.2-1.5-12.7-1.5-19-2.7c-25.7-7.4-54-7.2-79.4-15.6
		c-0.2-5.3-0.3-10.6-0.3-15.9c20.7,1.6,39.2,9.8,59.5,12.7c8.3,1,15.7,4.8,24,5.7c7.2,1,14.5,1.5,21.9,1.9c25.1,1.9,49.2,7.8,74,11
		c38.1,4.9,75.8,12.1,113.4,19c13.8,2.1,27.5,5.2,41.6,5.8c-0.2-2-1.5-3-3.8-3.2c-32.2-3.4-63.6-10.3-95.2-16.2
		c-16.3-2.1-32.5-5.5-48.8-7.5c-30.7-3.6-60.5-11.8-91.7-12.6c-12.9-0.2-24.6-4.8-37.1-6.4c-19.4-2.9-37-11.5-57.1-12.3
		c-0.4-2.7-0.8-5.2-1.2-7.8c-1.1,12.1-0.2,24.4,0.6,36.5c-5.7,0.7-11.5,0.9-17.3,1c-0.5-2.8-1-5.7-1.5-8.6c0-6.6-0.4-13.2-1.6-19.8
		c-1.6-9-1.6-18.4-6.2-26.9c0.1-0.6,0.1-1.7,0.2-2.2c1.5-3.9,2.8-8.3,7.6-10.5c4.4,3.9,9.8,7.3,13.2,11.9c1.4,5.9,1.9,11.9,3.7,17.7
		c0.4-1.3,1.2-3.8,1.6-5c26,4.3,52.1,8.1,77.7,14c24.4,4.9,49.1,9.2,73.9,12.5c12.8,1.2,24.5,5.9,37.5,6.4
		c38.4,6.2,77.2,11,115.4,18.5c9.1,2.4,18.3,4.7,27.7,6.1c-0.1-0.9-0.3-2.7-0.3-3.5c-6.6-0.9-13.2-1.7-19.5-3.5
		c-15.3-4.3-31.6-5.6-47.3-8.8c-21-3.5-42.4-6-63.3-9.9c-10-2-20.5-1.8-30.4-4.4c-11.9-3.3-24.6-3.7-36.9-5.8
		c-45.7-7-90.4-17.3-136.2-23.9c-0.2-1.4-0.4-4.2-0.5-5.6c1.2-1.7,2.3-3.5,3.4-5.2c10.4,1.7,21,2.6,31.5,4.3
		c32.9,6.8,66.7,10.6,99.5,17.7c32.7,5,65.2,10.8,98.4,13.4c19.2,1.6,37.2,7.4,56.3,9.2c8.7,0.8,16.9,3.5,25.3,5.1
		c-0.2-0.8-0.5-2.3-0.7-3.1c-8.1-2-16.1-4.5-24.5-5c-17.1-1.2-33.1-6.4-50-8.3c-41.1-4.5-82.1-9.7-122.3-17.6
		c-16.9-2.3-33.2-6.5-50.2-7.9c-13.3-1.4-25.9-5.6-39.3-6.8c-9.6-1-19.1-2.2-28.6-3.8c-0.6-4.4-1-9-1.2-13.5
		c11.3,1.5,22.4,3.7,33.7,5c25.7,3,50.6,9.4,76.4,12.4c18.3,1.8,36.4,5.3,54.7,7.2c21.5,1.7,42.6,5,63.9,7.6
		c16,0.9,31.4,4.8,47.4,5.6c15.9,0.8,31,5.1,47,6.2c0.1-0.8,0.3-2.2,0.4-3c-10.3-1.9-21.1-2.1-31.4-4.6
		c-44-4.3-87.4-11.3-131.4-15.2c-30.9-3.8-61.8-7.9-92.3-13.2c-23.8-5.1-48.4-7.4-72.4-11.8c-13.9-3.4-28.6-6.2-43.3-4.4
		c-0.8-0.8-2.4-2.2-3.3-3c-2.5,1.2-4.8,2.5-7.2,3.7l1.2-2.3c-9.2,4.2-20.4,3.4-30.4,2.4c9.8-1.5,20.7,2.1,29.3-3.1
		c-10.3-0.3-20.4,0.7-30.6,0.9c0-3.3,0-6.7,0.1-10l2.1,0.7l1.5,0.5c7.5,0.5,15.5,1.5,22.8-0.7c-7.7-1.4-16.6,1-23.1-3.4
		c17.4-2.1,35.3-1.5,52.9-1.7l-0.2-2.1c-12.1,0.3-24.3,0.5-36.4,1.1c-6.2,0.1-12.8,0.9-18.3-1.8c5.7,0.5,11.5,0,17.2-1.1
		c7.6-1,15.2-2,22.8-2.8c6.5-0.9,13.2,1.6,17.3,5.6c2.4,1.4,4.8,2.7,7.2,4c-11.2,1.7-22.8-0.4-34,1.1c-0.4,1.3-1.2,3.8-1.6,5
		c3.3-1.3,6.8-2.6,10.1-3.8l-0.3,4.9c2.1-0.9,4.2-1.8,6.3-2.7c2.7,1.1,5.6,2.2,8.4,3.4c-1.7,1.1-7.4,1.2-5.9,3.8
		c6.5,0.1,13,0.2,19.5,0.1c-4.6-3.8-10.5-6.3-16.3-8.8c8.6-0.7,17.5-2.6,26.2-0.7c14.4,2.9,29.2,3.6,43.6,6.2
		c26.7,4.6,53.8,7.9,80.9,10.3c19.4,2.9,38.9,5.1,58.6,6.8c25.7,2.4,51.2,6,76.6,9.4c24,1.5,47.5,6.1,71.2,8.7
		c0.1-0.5,0.3-1.7,0.3-2.2c-10.6-3.1-21.8-3.7-32.8-5c-13.3-2.4-27-3.6-40.6-4.8c-28.7-3.8-57.4-7.5-86.2-10.2
		c-28.1-2.2-55.7-7.5-83.9-9.1c-18.3-2-36.6-4.6-54.6-7.8c-13.7-1.6-27.5-2.7-40.9-5.9c-3.8-5-11.1-6.7-16.8-9.8
		c15,0,29.6,2.7,44.1,5.5c42.9,3.3,85,11.3,128,14.6c25.8,3.1,51.8,4.4,77.7,7.4c31.7,4.9,64.1,6,95.8,10.7
		c3.4,0.5,6.9,0.6,10.2-0.5c-2.7-1.8-5.3-3.7-7.8-5.6c-34.7-2.8-69.3-7-104-10.1c-10.5-0.7-20.8-3.9-31.4-3.3
		c-0.9,0.3-2.6,1-3.4,1.4c-10.8-0.1-21.6-0.5-32.2-2.4c8.4-0.3,16.9-0.1,25.1,1.3c2.7,2,4.4-0.2,5.6-1.6c-16.2-3.3-32.9-3.5-49.4-5
		c-19.8-1.6-39.4-4-59.1-5.7c2.4-5.7,0.1-12.3,0-18.3c-2-0.5-3.9-1-5.9-1.5c1.5,6.3,2.1,12.7,2.9,19.2l1.2,0.3
		c-2.4-0.2-4.7-0.4-7.1-0.6c-16.8-1.5-33.1-5.4-50-6.2c-15.4-0.4-30.1-4.2-45.2-6.3c0.3-2.3,0.5-4.6,0.7-7
		c-6.2-3.4-14.1-3.5-21.1-5.3c-7.5-1.9-15.5-1.4-23.3-1.5c-0.2-1.2-0.4-3.6-0.6-4.8c-0.7-0.5-2.1-1.5-2.7-1.9
		c-1.6-0.9-3.3-1.6-4.9-2.4c10.3,1.1,20.5,1.6,30.9,2.5c1.5-0.9,2.8-1.8,4.3-2.7c-11.6,0.2-23.1-1.2-34.6-2.7
		c21.9-0.6,43.6,2.3,65.5,2.4c0.3,0.8,0.9,2.3,1.1,3.1c-10.5,0.1-21-0.9-31.3-2c0,0.8,0.1,2.3,0.1,3.1c17.1,0,34.1,1.6,51.1,3.7
		c15.7,0.9,31.5,2.5,47.1,3.7c-0.4-2.8-2.7-5-4.4-7.4c-2.8-0.9-5.6-1.8-8.4-2.7c-5.1-0.1-10.3-0.1-15.4-0.1
		c7.4-0.7,15.4-0.8,21.7-4.5c-7.4-0.8-14.7-0.7-22.1-0.8c6.4-0.8,14.1,0.8,19.2-3.3c-4-0.9-8.1-1.6-12.2-2.2c-2.6,0.5-5.5,4.7-8,2.4
		c0.8-1.5,3.3-2.1,4.7-3.2c-10.3,0.4-20.3-2.2-30.5-2.7c6.5,3.2,14.8,2.5,21.6,5.4c-2.7,0.9-5.3,1.8-8,2.7c1.5,1,4.6,3.2,6.1,4.3
		c-13.3,2.7-25.6-2.5-38.4-3.6c6-0.1,12.7,0.1,17-3.8c-9.8-0.6-19.7-0.1-29.5,0.3c-1.6,0.9-3.3,1.7-4.8,2.7l6.8,1.3
		c-10.5,0.6-21.4,0.1-30.5-4.6c4.3-0.3,8.6-0.5,12.8-0.8l0.3-1.1c0.2-0.7,0.5-2.1,0.7-2.9c4.2,1.5,15.1-0.6,9.7,6.5
		c8-4.5,18.1-4.1,27.5-4.4c-0.9-3.1-1.6-6.1-2.4-9.2c-4.4-1.2-8.6-2.5-12.9-3.8c-0.1-1.5-0.3-4.6-0.3-6.2c18.3-1,36.4,2.9,54.8,1.4
		c0.6,0.3,1.2,0.7,1.5,0.9c0.1,0.3,0.3,1.1,0.3,1.5c6-0.2,12,0,17.9,1c-0.9-2.9,0.3-6.7-2.6-8.9c-8.7,0-18-1.3-26.2,1.5
		c8.6,1.4,18.2-1.7,25.9,2.4c-5.3,3.6-12.2,1.5-18.4,0.9c0,0,0.1,0.1,0.2,0.1c-7.7-2.1-16.1-0.6-24-1.1c-10.5-0.7-21-0.9-31.6-1
		l-0.1-3c15.1-0.1,30.1-0.7,45.1,0.3c6.3-1.1,12.7-1.8,19.1-2.7c-7.8-2-16.1-1-24-1.5c9.8-1.5,20.6-0.3,29.1-5.1
		c-11.5-1.7-24.7,4.6-34.6-2.1c-1.8,2.5-3.4,5-5.1,7.6c1.2,0.3,3.6,0.9,4.7,1.1c-14.2-0.2-28.5,1.2-42.5-0.3c8-0.8,16-0.3,24-0.9
		c-4.5-2.3-9.9-2.1-15.1-2.3c5.7-0.6,11.5-1.2,17.2-2l-0.2-2.7c-8.8,0-17.7,0.2-26.4-0.9c8.6-1.5,17.8-1,25.7-4.5
		c-9.8-0.9-19.6-0.4-29.3-0.9c-5-0.3-10.1-0.1-15,0.6l-2.9,1.5c-7.6,0.8-15.4,0.6-23,0.2c6.8-2.3,14.1-3,21.4-3.3
		c-0.1-0.5-0.3-1.5-0.3-2c-4.9,0.3-9.7,0.4-14.5,0.5c-0.6-4.4-0.6-9.2-4.1-13c20.3-0.3,40.6-0.2,60.8,0.9c22.3,2.2,44.7-0.4,67,0.2
		l-0.3-1.9c-24.1,0.5-48.3,1.7-72.4,0c4.3-0.9,8.6-1.7,13-2.6c-0.4-1.3-1.4-3.8-1.8-5c-2.7-0.4-5.4-0.9-8.1-1.4
		c2.7-1.5,5.2-3,7.8-4.5c-5.4-0.3-10.8-0.3-16.2-0.2l0.1-0.9c5.4-0.1,11.1-0.3,15.6-3.2c-5.4-0.2-10.7-0.1-16,0
		c0-1.7,0.1-5.1,0.1-6.9c-7.4-0.2-14.7,0.1-22,0.3c-8-0.4-16.2-1-24.1,0.3l-2.7-0.3c-0.3-3.2-0.3-6.3-0.3-9.6
		c41.2-1.4,82.5-1.4,123.7-1.4c5.5,0.2,3.3-5.4,3.3-8.1c-3.7,0.2-7.3,0.3-10.9,0.4c0.1-1.7,0.3-5.2,0.4-7
		c-8.5,0.5-17.4-0.1-25.4,2.3c1,0.6,3.1,1.9,4.1,2.5c-11.2-1-21.5,4.4-32.8,2.8c-22.6,1.5-45.2,0.3-67.7,0.9l-0.3-2
		c7.1-0.2,14.5,0.3,21.1-2c-7.9-0.4-15.7,0.3-23.5-0.6c3.6-1.7,7.5-3.3,11-5c-3.2-0.6-6.3-1.2-9.6-1.7c20.3-5.2,42-3.8,63-3.3
		c-6,0.6-12,0.9-18,1.4c5,1.7,10.6,1.5,16,2.2c-4.6,0.6-9.3,0.4-13.9,0.3c0.3,0.7,0.7,2.1,0.9,2.7c-4.7,1.1-9.5,2.2-14.1,3.7
		c0.4,0.3,1.3,1.2,1.7,1.5c11.5-1.3,24,0.9,34.6-3.3c-4.6-0.2-9.2-0.3-13.7-0.4c6.5-2.6,14.1-3.5,19.8-7.4c-1.5-0.1-4.6-0.3-6.2-0.4
		c0.1-2.9,0.1-5.8,0.2-8.7c-4.8,0-9.6,0-14.3-0.1c-1.5-1.9-3-3.7-4.5-5.5c3.3-1.3,3.8-3.6,2.5-6.1c-12.7-2.1-26-0.8-38.9-1.3
		c0.2-3.1,0.3-6.2,0.5-9.3c45.2,0.9,90.3,0,135.6,0.3c0.1,6.4-0.1,12.8,1.1,19.2c1.6,8.8,0.1,17.7,1.1,26.5
		c-2.8,0.1-5.6,0.2-8.4,0.3c1.4,3.2,2.8,6.2,4.2,9.4c26.3-2.1,52.8,0.2,79.2-0.4c15.3-0.4,30.6-0.3,45.8-1.5c12.7-1,25.5,1,38.2,0.8
		c0.7,1.4,1.4,2.7,2.1,4.1c1.1-0.6,3.4-1.9,4.6-2.5c0.3,9.1,0.9,18,1.8,27.1l4.4-1.5c1.4-8.6-0.6-17.2-1.5-25.7c3-1,6-2.1,9-3.3
		c-5.6,0-11.2,0-16.9-0.4c6.8-3.3,14.7-4,22.4-4.2c-0.5,2.7-2.2,4.7-5,6.1c0.1,0.4,0.3,1.4,0.3,1.9c2.2,1,4.5,2.1,6.8,3.2
		c-0.1-4.9,0.1-9.7,0.4-14.5c-9.3,2-19,2.3-28.6,2.1c0.3,1.6,1.1,4.7,1.5,6.3c-7.3,0.5-14.5,0.6-21.9,0.3c-15.3-0.9-30.6,1-45.8,0.5
		c-31.2,0.3-62.4-0.5-93.6-1.2c-1-0.8-3-2.4-4-3.2c18.7-0.5,37.6,0.9,56.3-1c16.9-0.4,33.7-0.6,50.6,0.2c1.4-2.7,2.9-5.2,4.5-7.7
		c-0.1-1.4-0.3-2.7-0.3-4.1c-1.4-0.3-4-1.1-5.3-1.5c-0.5-7-0.3-13.9,0-21c1.6-1.1,3.3-2.3,4.9-3.4c-0.6-3.6-1.1-7.2-1.6-10.8
		c19.8,0.1,39.8-0.2,59.6,0c0.7,14.5,3.6,29.3-0.4,43.6c2.8,0.4,5.6,0.9,8.6,1.3c-0.3-14.8-0.3-29.7-1.7-44.5
		c46.5-0.3,93.1-0.1,139.6,0c0.7,0,2.1,0,2.8,0h2.9v-3.3C1776.6,472.8,1774.7,472.8,1773.8,472.8z"/>
	<path d="M1653.8,627.8c-0.7-0.7-2.1-2.1-2.7-2.9c-6.5,3.2-12.1,7.2-18.7,10.2c-5.3,3-12.7,5.1-13.5,10.9c0.3-1.9,0.6-3.7,0.9-5.6
		c-8.6-0.2-17.2-0.1-25.7-0.5c7.2-1,14.5-1.7,21.7-1.9c3.3-0.4,7.4,0.3,9.8-1.9c4.7-5.3,12.8-7.3,19.2-10.9c0-1.5,0-4.4,0-5.8
		c-3.2-0.3-6.3-0.4-9.5-0.7c3.5-2.7,3.6-6.5,3.6-10.2c-3.5-2.6-7.2-5-12.1-5.5c5-1.4,9.8-2.8,14.9-3.9l0.2,1.2
		c-1.9,0.4-5.8,1.4-7.7,1.8c0.5,0.9,1.5,2.5,2.1,3.3c4.4-1.5,9-2.8,13.6-4.1c3.3-1.2,0.4-4.7,0.4-6.8c-10.3,1.3-20.2,4-29.6,7.4
		c-1.8-0.4-5.5-1.3-7.3-1.7c7.4-2.4,15.2-3.9,22.7-6.3c-3.1-6.3-9.4,2.8-15.1-0.9l0.8,2.5c-1.4-0.1-4.2-0.3-5.6-0.3l4.2-1.3
		c-1.5-0.9-3.1-1.7-4.6-2.6c-5,2.7-11,2.1-16.8,2.1c8-0.9,16-1.9,23.3-4.7c4.4-1.9,12.6,0.9,11.5-5.1c-5.2,0.6-10.3,1.4-15.5,2.3
		c-10.1,2.1-20.6,0.8-30.7-0.7c-0.9,1-2.7,3.2-3.5,4.2c5.6-0.4,11.3-0.9,16.9,0c-5.2,0.9-10.6,1.4-15.7,2.7
		c2.7,2.6,7.2,2.7,10.5,4.4c-4.7,0.3-9.4,0.2-14.1,0.2c1.2,2,3.3,3.2,6,3.7c-10.5,1.1-21.8-0.2-32-0.6c8.4,0.3,17.3-0.3,23-5.9
		c-1.5-0.2-4.3-0.6-5.6-0.9c3.8-0.3,5.3-1.8,4.2-4.4c-7.4-0.3-14.7-0.4-22-0.7c0.3-0.4,0.9-1.3,1.1-1.7c6.6-2,13.5-1.3,20.4-1
		l1.9-2.2c-6.6-1.1-13.3-1.6-20-1.9c-1.7,0.9-3.6,1.7-5.6,2.2c-10.9-5.4-24.4-0.9-36.2,0.1c-0.3,3.3-5,5-4.8,8.2
		c7.2,0,14.4,0.3,21.6,1.1c-3.5,0.6-7.1,1.2-10.6,1.7c-4,0.8-8,1.6-12.1,2.5c-1.2,1.3-2.3,2.6-3.4,3.8c-3.7-0.3-7.4-0.7-11-1
		c-1.4,1-2.7,2-3.8,3c11.3-0.2,22.6,0.1,33.9,0.6l0.9,0.9c5,0.1,10.3,0.2,15.2-0.9c25.7-0.2,51.7,2.2,77.3,0.1
		c3.1-1.1,4.5,1.5,5.7,3.2c-35.2,0.2-70.5,1.9-105.6-0.7c-12.2-1.1-24.6,0.4-36.9-1.1c-7.4-0.9-14.7-0.3-22.1-0.8
		c-0.1-0.9-0.2-2.6-0.3-3.4c10.8-0.3,21.5,0.9,32.2,1.5c-0.4-1-1.4-3-1.8-3.9c-1.5,0.1-4.4,0.2-5.8,0.3c3.8-0.9,7.5-1.6,11.3-2.5
		c-1.2-0.6-3.7-1.9-5-2.5c5-0.9,9-3,11.9-6.3c-9.8,3.7-20.4,6.4-31.5,5.5c-4.2,0.4-10.9-1.4-12.7,2.9c1.7,0.3,5,1,6.8,1.4
		c-2.9,0.4-5.7,0.8-8.6,1.2c-0.1,2.5-0.3,4.9-0.1,7.4c2.2,0.7,4.4,1.4,6.6,2.1c0.9,3.5,0.3,7.1,0.6,10.6c5.5-2.7,3-7.4,2.7-11.5
		c10.3-0.7,20.5,1.7,30.9,1.4c17.5-0.5,35.1,0.9,52.6,1.7c16.8,0,33.5-0.6,50.3-0.4c8.2,0.1,16.8-1.5,24.7,0.9
		c1.4-1.4,3.2-2.2,5.3-2.5c0.9,3.6,1,7.4,1.6,10.9c-13.9-1-28.4-1.4-42,1.7c-2.7-0.3-3.5-2.7-2.1-4.4c-8-1-16.4-2.3-24.5-0.9
		c-5.8,1-11.7,2.1-17.7,2c-1.1-0.4-3.3-1.4-4.4-1.8c-17.9-2.5-35.2,2.9-52.5,5.8c-5.2-1.2-10.7-1.5-16.1-2c4.4-1.2,8.9-2.1,13.3-3.5
		c-0.1-0.8-0.2-2.4-0.3-3.2c-5,0.6-10,1.2-15.1,1.7c-0.3,0.8-0.8,2.2-1.1,3c-2.3,1.4-4.3,3-5.9,4.8c4.2,0.3,8.4,0.5,12.6,0.9
		c-4,2.4-12.4,1-13.7,5.3c4.4,2.1,9.8,2.4,14.8,2.7c-4.7,0.5-8.6,2.7-12.1,5.1c-3.4-0.2-6.8-0.3-10.3-0.4c-0.1,2.6-0.1,5-0.1,7.6
		c3.2-0.2,6.5,0.1,9.4-1.1c-0.1-0.3-0.3-1-0.3-1.3c-1.7-0.2-5.2-0.5-6.9-0.8l1.7-1.7c8.2-0.9,16.5,0.7,24.8,1.2
		c0-0.5,0.1-1.6,0.1-2.1l-0.6-0.9c0.5-1.3,1.3-2.5,2.3-3.6l-5.7-0.1c2.2-0.8,4.5-1.5,6.8-2.3c5.6,1,11.4,1.6,17.2,2.1
		c-6,0.3-12.1,0.5-18,0.8c0.2,1.4,0.6,4.2,0.8,5.6c18.6,4.2,38.1,3.2,57.1,4.5c28.4-0.3,56.6,2.4,84.9,4.4l-0.3-2.6
		c2,0.7,2,1.8,0,3.5c-1.4-0.2-4.2-0.4-5.6-0.6c-0.3,4.4-5.8,2.3-9.2,2.5c-19.9-2.4-40.3-0.9-60-3.9c-13.6,0.2-26.9-2-40.4-3.2
		c-15.1,0.3-30-3.1-45.1-2.1l-0.7,0.9l0.1,0.9c22.4,1.9,45,2.9,67.3,5.6c19.8,0.3,39.3,3.5,59.1,3.5c10.3-0.3,20.3,2.7,30.5,1.7
		c3.6-2,6.8-4.3,10.3-6.2c0.3,6.8,0.1,13.5-0.3,20.3c3.3,0.4,7.8,1,8-2.7c0.1-7.2-0.3-14.5-0.9-21.6c3.3-1.5,6.8-3.1,10-4.8
		c-1.4-1.9-3-3.7-4.4-5.5c-8.1,2.6-14.7,7.4-22.6,10.3c5.2-5,12.9-8,19.3-12.1C1646.8,629.8,1650.3,628.7,1653.8,627.8z"/>
	<path d="M1465.3,567.1c-0.1-1.1-0.3-3.3-0.4-4.4c30.7,0.9,61.4,2.1,92.2,1.7c5.9,0.3,11.9,0.4,17.9,0.7l0.8-0.4
		c8.9,0,17.7,0.3,26.6,0.9c5.5,0.9,11.3,2.1,16.8,0.4c1.4,1.2,4.1,3.6,5.6,4.7c-15.3,0-30.5-1.7-45.8-1.3c-20.4,0.7-40.5-2-60.9-2
		c-10.2,0-20.5,1.3-30.5-1c-6.5-1.5-13.3-1.9-20-1.2c4,3.3,10.2,1.5,15.2,2.7c17.2,3.7,35,0.1,52.4,1.9c30.4,3.3,61.4-0.9,91.5,4.5
		c6.4-1.5,12.8-3.3,19.5-4c1,1.9-0.3,5,2.8,6.2c0-2.7,0.9-5,2.9-6.9c-0.7-2-1.5-3.9-2.2-5.8c-6.5,3.3-16.5,3.9-22.9,0.3
		c-1.8-0.4-3.5-1-5-1.9c-2.6,2.7-7.5,0.4-11,0.7c2.6-2.5,6.7-2.8,10.1-4c-0.3-3.3-4.3-7.7-9.2-6.2c-13.5,1.6-27.1-1.2-40.6,0.3
		c-0.2,0.9-0.5,2.7-0.7,3.7l1.9-1.5c1,0.2,3.1,0.6,4.1,0.8l0.3,1.9c-0.3,0.7-0.9,2.1-1.2,2.7c-4.8,0.4-9.7,0.7-14.5,0.7
		c-0.3-2.3-0.4-4.6-0.6-6.8c-2.7,0.3-5.3,0.6-7.9,1c-7.2,0-14.3,0.6-21.4,1.4l1.7,2.2c-3,0-6,0.1-9,0.1l0.1,3.3
		c-11.1-2.1-22.7,0.3-33.7-2c5.4-1.7,14.6,1.6,17.4-3.5c-3.6-0.7-7.1-1.5-10.8-2c1.4-0.1,4.1-0.3,5.5-0.5c3.5-0.6,8.3-0.1,10.2-3.3
		c-1.5-0.4-4.5-1.2-6.1-1.6c0.1-2.4-1.2-3.7-3.8-3.8c-10.8-1.6-22-1.2-32.8-0.4c4-3.2,2.7-7.4,2.4-11.4c-1.6,0.3-4.8,0.7-6.4,0.9
		l-2.1-1.9c0.7,5,1.5,9.9,1.7,15c0.2,2.1,0.3,4.1,0.4,6.2c4.4-0.9,9-1.4,13.1,0.5l1.6,1.1c-3.5,0.6-9.3-0.5-8.6,3.8
		c-4.2,0.3-8.4,0.7-12.6,1.1C1460.1,563.4,1460.2,567.4,1465.3,567.1z"/>
	<path d="M1514.9,555.3c3.9,0.4,7.9,0.9,11.8,1.2c9.8-3.1,20.4-3.8,30.6-5.8c-2-1.3-4.2-2.3-6.8-2.1c-11.4-0.3-23,0.3-34-2.2
		c-0.3,0.6-0.7,2-0.9,2.6c7.5,0.3,17.1-1.6,23,2.9c-6.2,0.4-12.5,0.4-18.7,1C1517.4,552.7,1515.8,553.6,1514.9,555.3z"/>
	<path d="M1627.3,577c-2.6,2.7,3.4,5,5.5,2.6C1635.5,576.9,1629.4,574.6,1627.3,577z"/>
	<path d="M1499.6,581c-9-0.9-18,0.1-26.9-0.7c-0.3-2.6-0.7-5.1-1-7.7c-3.2-1.1-5.8-2.7-8.3-4.5c0.2,3.4,0.3,7.1,3.8,9.6
		c-1.2,0.5-3.6,1.6-4.8,2.2c5.6,2.6,12.6,1.8,18.7,2.8c-6.5,1.7-16.4,0.4-19.7,6.1c1.9,0.4,5.7,1.4,7.6,1.9l-0.5-2.5
		c9.7-3.8,20.8-2.8,31-5.1C1499.5,582.4,1499.6,581.5,1499.6,581z"/>
	<path d="M1620.2,590.5c1.5,4.1,9.1-0.1,12.6-0.6C1630.9,587.2,1623.6,589.9,1620.2,590.5z"/>
	<path d="M1383.8,558.5c2.7,3.1,7.8,2,11.8,2.1c10.8-0.6,21.5,0.3,32.2,0.7c6.3,0.3,16.3,2.8,19.8-2.6c-6.7,0-13.3,0.2-20,0.5
		c-0.1-1.1-0.2-2.2-0.2-3.3c1.6,0.2,4.9,0.5,6.5,0.7c-0.2-2.1-0.2-4.4-0.2-6.5c-3.7-0.1-7.4-0.2-11-0.3c1.3-2.7,4.9-2.8,7.9-3.4
		c-4.7-2.2-10.2-1.2-15.3-0.9c-9,0.9-18,0.7-26.9,0.9c3.8,4.4,12.1,0.8,17.6,1.5l0.2,1.1c-5,0.7-9.9,1.4-14.9,1.9
		c-0.9,1-1.9,2.1-2.8,3.1c1.8,0.3,5.3,0.7,7.1,0.9C1397.5,559.6,1387.3,556.9,1383.8,558.5z"/>
	<path d="M1388.9,513c2.7,2.9,9.3,3.3,12.9,1.5c8.9-4.8,20.9-2.3,31-4.2c-5.8-3.1-13.1-1.5-19.7-1.3
		C1405,510,1396.2,509.8,1388.9,513z"/>
	<path d="M1353.6,508.1c-4.9,1.2-10.4,1.6-14,4.9c5.3,0.3,10.5-0.2,15.7-0.6C1354.9,511.3,1354.1,509.1,1353.6,508.1z"/>
	<path d="M1321.6,510.8c2.4,1.7,8.3,1.1,9.6-1.2C1328.4,508.8,1323.2,508.4,1321.6,510.8z"/>
	<path d="M1386.6,581.5c6.4,3,15.3-0.2,20.9,4.7c8.1-1.4,16.3-2.1,24.6-2.2c-0.3-0.6-0.6-1.8-0.9-2.4
		C1416.4,582.3,1401.5,581.7,1386.6,581.5z"/>
	<path d="M1354.8,624.2c0.1-0.8,0.2-2.3,0.3-3.1C1350.8,619.9,1350.1,625.6,1354.8,624.2z"/>
	<path d="M1358.6,679.2c-1.1,2.7,0.1,3.7,3.8,2.8C1363.4,679.3,1362.1,678.4,1358.6,679.2z"/>
	<path d="M908.9,739.3c-1.4-1.1-4-3.3-5.4-4.4v4.9c-0.3-1-0.8-3-1.1-4c-2.9,2.1-6.2,3.3-10.3,2.4l-1,2.1c-6.5,0.7-12.9,1.9-18.8,4
		c0,3.4-0.5,7,1.2,10.3c2.9,6.7,1.2,13.9,1.8,20.9l2.5-0.3c-0.1-9.4-0.3-18.9,0.9-28.3C888.1,742.6,899.9,744.3,908.9,739.3z"/>
	<path d="M913,739c1.4-2.1-1.2-6.5-4.5-6.1C906.9,735.1,909.4,739.6,913,739z"/>
	<path d="M670.4,774.8c24.2,11.2,49.1,21.5,72.5,33.7c12.8,5.6,25.6,11.5,38.7,16.8c-14-7.2-29.1-13-42.6-20.7
		c-38-18.9-77.5-35.8-116.5-53.2c-13.9-7.9-29.5-13.8-44.1-20.7c0.1-5.6-8.6-1.5-12.7-1.9c12.7,3,23.5,9,35.5,13.3
		c15.3,6.8,29.1,15.7,45,21.8c6.2,3.5,14.5,5,19,10.1c-6,0.9-12.1,1.1-18.2,1.2C653.9,778.8,662.7,775.1,670.4,774.8z"/>
	<path d="M583.8,725.7c-0.6,0.5-1.7,1.5-2.2,2C583.3,733.7,592.2,724.7,583.8,725.7z"/>
	<path d="M485.3,668.7c-11.3-5.2-23.1-9.8-34.6-14.7c-3.3-1-8-4.1-10.2-0.2c8,2.7,16.1,5,23.7,8.3c8.1,3.7,17.5,5.6,25.2,9.8
		C494.9,671.4,487.3,668.7,485.3,668.7z"/>
	<path d="M502.8,670.9c13.7,0.6,24.1,8.9,37.2,11.2c-8.2-4.7-17.4-8.2-26.4-11.8C510.2,668.2,506.3,670.3,502.8,670.9z"/>
	<path d="M517.7,669c12.1,0.6,24.4-0.4,35.8-3.4C541.5,665.4,529.4,667,517.7,669z"/>
	<path d="M513.1,682.6c14.5,3.9,27.8,10.1,41.8,15c-18.1-8.4-36.6-17.1-56.9-21.6C501.3,680,507.9,680.7,513.1,682.6z"/>
	<path d="M408.4,659.7c-1.2-3.8-6.5-5-10.1-7.1c-13.1-5.2-26.3-10.4-39.9-14.9C373.7,646.7,393.4,650,408.4,659.7z"/>
	<path d="M365.2,627.4c10.2,5.1,21.4,8.7,31.9,13.2c0.1-0.5,0.2-1.5,0.3-2.1C386.3,635.5,377,628.8,365.2,627.4z"/>
	<path d="M279.5,696c-1.3-0.6-3.9-1.8-5.3-2.4c-0.1-1-0.3-3-0.5-4c-16.9,2-34.1,2.9-50.9,5.6c-3.8,0.3-6,2.9-8.2,5
		c4.3,1,8.6,2.7,13.3,2.1c13.7-1.4,27.3-3.4,40.9-5.4c-14.1,5.6-30.8,3.3-45.6,6.9c-2.9,0.6-4.5,2.1-4.9,4.5
		c12.5,1.6,24.9-1.4,37.2-2.9c-1.6,0.4-5,1.2-6.6,1.6c3.3,3.9,9,2,13.9,2c-6,1.4-12.1,2-18.3,2.7l3.1,2.6c9,0.4,17.7-2.6,26.5-3.8
		c-1.8-0.8-5.5-2.4-7.3-3.2c4.5-1.1,9.6-1.7,13.4-4c-2-3-7-2.1-10.4-3C272.8,699,277.4,698.8,279.5,696z"/>
	<path d="M263.2,572c-16.5,2-33.2,3.6-49.5,6.4c-0.3,1.2-0.9,3.4-1.2,4.6c21-0.5,42.1-0.5,62.7-3.7c-3.5,0.9-7,1.7-10.5,2.6
		c1.6,1,3.3,2.1,5,3c5-1.5,10.8-2.7,14-6.4c-1.7-4.7-8.2-3.2-12.5-2.5c-10.4,2.3-21.4,1.5-31.9,3c0-0.3-0.1-0.7-0.1-0.9
		c8.3-0.8,16.6-1.7,24.7-3.3C263.9,574,263.5,572.7,263.2,572z"/>
	<path d="M284.2,570.5c-2-1-3.8-2.6-6.3-2.7c-4.7,0.4-7.4,4.7-12.8,3.6C270.5,575.9,278.5,573.2,284.2,570.5z"/>
	<path d="M261.7,582.6c-12.7,2.4-25.8,2-38.7,2.6c-3.2,0.4-8.4,0.3-7.9,4.3c18,0.5,35.8-0.9,53.8,0.2c1.6,1.5,3.3,2.8,5,4.2
		c3.9-0.9,10.5-2.6,6.4-6.8c-4.4-0.7-8.7-0.9-13.1-1.2C265.3,584.6,263.5,583.6,261.7,582.6z"/>
	<path d="M262.5,607c0.3-1,1-3.1,1.4-4.2c-17.4-0.3-34.7,2.3-52.2,2.9c0,3.4-0.1,6.9-0.1,10.3c10.2-2.3,20.7-1.6,31.1-2.4
		c8.9,0.2,18-1.9,26.8-0.1c0.2,3.1,0.3,6.2,1,9.2c7.4,0.8,3.5-6.2,4.3-9.7c4.6-0.4,9.2-0.9,13.8-1.5c-0.9-3.2,0.9-7.7-2.8-9.9
		c-6.2-1-12.7-0.2-19,0.1c0.9-1.1,2.9-3.4,3.9-4.5c-12.3-0.3-24.5,3.2-36.9,1.2c12.2-2,24.7-3.3,37.1-4.2c-1.5-1.1-3.2-2.1-4.7-3.2
		c-15.3,1.1-30.5,3.2-45.2,6.6c-2.8,0.3-4.9,1.5-6.2,3.6c10.4,1.4,21.2,3.2,31.7,1.3c5.6-0.9,11.3-0.9,16.9-0.9
		c0.9,1.4,1.9,2.7,2.9,4.1c5.6-1.2,11.4-1,17.1-0.9c-0.1,0.9-0.2,2.7-0.3,3.7c-6.2,0.6-12.5,0.9-18.7,0.9
		c-16.3-0.3-32.6,2.7-48.8,1.2C230.6,606.9,246.9,606.5,262.5,607z"/>
	<path d="M275.5,625.4c-15.4,1.2-30.5,4.2-46,5.3c-6.5,0.2-12.1,2.9-17.7,5c0.5,1,1.5,2.9,2,3.9c10,0.7,20.1-0.1,30.1-0.2
		c-0.3,1.5-0.3,2.8-0.3,4.3c10.3-1.3,20.5-2.6,30.7-4.4c0-0.9-0.1-2.5-0.1-3.3c-13.3,0.8-26.4-0.6-39.7,0.3
		c14.5-3,30.4-2.4,43.5-8.7C277.6,627.2,276.2,626,275.5,625.4z"/>
	<path d="M266.5,495.3c-0.4,5-0.6,10.1-0.1,15.1c7.6-2.5,3.4-10,3.8-14.9C269.3,495.5,267.4,495.3,266.5,495.3z"/>
	<path d="M212.8,513.4c-2.3,2.2-0.1,4.1,1.7,5.9c1.5,1.2,2.9,2.4,4.3,3.7c-2.1,1.8-4.3,3.6-6.5,5.3c0.3,1,1.1,3,1.5,4
		c18.9-1.1,37.9-1.7,56.8-1.1c0.1,0.4,0.1,1.4,0.2,1.8c-15.3,0.9-30.5,3.8-45.8,3.3c1.2,1.2,2.4,2.5,3.4,3.8
		c15.1-0.7,30-3.1,45.1-3.8c4.4-0.2,8.9-1.4,11.4-4.5c-4.7-2.1-10.8-2.5-14.7-5.6l8-1.3l-2.3-0.2l2.6,0.2l-1.2-1l1.1,0.9
		c1.4-1.2,4.1-3.7,5.5-5c-1-0.5-3.1-1.5-4.1-2.1c-3.8-0.3-7.7-0.5-11.5-0.8c3.3-1.5,6.8-2.8,10.3-4c0.2-2.5,1.8-5.9-2.9-6.1
		c-1,1.9-1.8,3.8-2.5,5.7C253.2,516,232.8,513.1,212.8,513.4z"/>
	<path d="M210.3,542.5c19.8,5.1,40.7,0.9,61,2.1c3.7,1.5,5.4-3.6,1.6-3.5c-13.8-1.5-27.5,1.5-41.3,0.4c-3.8-0.2-6.4-2.7-9.3-4.3
		C218,538.5,212.8,539.1,210.3,542.5z"/>
	<path d="M427.4,433.8c-3.8-3.3-9.8-2.4-14.7-3.1c-4.8-0.1-9.8-2-14.5-0.5c-3.3,3.3,0.7,8.4,5.7,7.8c7.3-0.2,14.5,2.7,16.3,8.6
		c-4.1-0.5-8.2-0.1-11.2,2.3c2,0.1,6,0.3,8,0.3l0.3,0.9c-15.1-0.4-30.5,2.9-45.2-0.3c0.3-0.9,0.9-2.9,1.1-3.9
		c-1.9,0.3-5.6,0.8-7.4,1c2.2-2.7,3.6-6.4,8-7.3c5.5-1.7,13.3-0.3,16.4-5.2c1.7-1.2,3.3-2.5,4.8-3.8c-9.4-0.3-18.6-2-28-2.2
		c0.1,0.9,0.2,2.5,0.2,3.3c6.5-0.8,13,0.2,19.3,1c-1.9,4.2-8.8,2.7-13,4.4c-7.6,0.9-10.9,7.4-10.7,12.8c11.8,3.1,24.6,5.2,37,3
		c7.4-1.1,15-0.7,22.3-1.8c3-3.5,1.1-8.5-2.7-11.1c-4.6-4.4-12.5-4.4-19.1-5.5c0.9-0.6,2.8-1.7,3.8-2.2
		C412.1,432.9,419.7,434,427.4,433.8z"/>
	<path d="M391.3,428.5c6.4-0.5,13.9,1.1,19.7-0.8v-1c-11.8-0.5-24.2-0.8-36.3-1.1C378.3,430.1,385.9,427.7,391.3,428.5z"/>
	<path d="M377.2,445.2c-0.4,0.4-1.4,1.4-1.8,1.8c11.3,0.8,22.8-0.1,34.2,0.8c-0.3-0.7-0.7-2.1-0.9-2.9
		C398.2,446.2,387.7,444.3,377.2,445.2z"/>
	<path d="M538,449.8c3.2,1.2,7.4,1.4,10.5,0.2C547.1,447.6,539.3,447.6,538,449.8z"/>
	<path d="M677.5,519.1c2.6-2.5-3.7-4-5.6-2.4C669.5,519.3,675.5,520.8,677.5,519.1z"/>
	<path d="M691.7,518.9c2,1.3,3.9,2.5,6.1,3.7c4.9-0.5,9.8-0.8,14.5-1.6l0.2-1C707.4,516.9,698,518.8,691.7,518.9z"/>
	<path d="M710.6,525.3c2.4,0.8,7.5,0.6,8.3-1.6C716.4,522.5,711.6,522.9,710.6,525.3z"/>
	<path d="M681.1,522.9c4.3,1,8.8,2.6,13.3,1.3c-1.4-1.5-2.8-3.1-4.3-4.5C686.9,520.2,683.8,521.3,681.1,522.9z"/>
	<path d="M774,517.6c-3.4-4.7-9.2-0.9-12.2,1.9C766,521.9,770.5,519.4,774,517.6z"/>
	<path d="M1616.5,432c-15.5,1.5-30.9,3.3-46.4,4.3c-4.7,0.6-10.1,0.6-13.5,3.5c10.3-0.9,20.5-1.7,30.6-3.5c12.6-0.2,25-1.9,37.5-2.8
		c10.9-0.9,22-0.9,32.8-2.1c17.4-1,34.6-4.2,52.2-4.2c13.3,0,26.3-1.4,39.5-2.3c3.3-0.4,6.9-0.7,9.1-3c-35.8,2-71.6,4.5-107.3,8
		C1639.5,430.8,1627.9,430.3,1616.5,432z"/>
</g>
<g>
	<path class="st0" d="M858.2,581.6v-56.3h35.3v11.8H872v10.2h17.2v11.8H872v10.6h22.6v11.8H858.2z"/>
	<path class="st0" d="M899.1,574.5l7.2-10.5c1.8,1.6,3.9,2.9,6.4,4.1c2.5,1.2,4.9,1.7,7.2,1.7c1.8,0,3.3-0.4,4.3-1.1
		c1-0.7,1.5-1.7,1.5-2.8c0-1.2-0.6-2.3-1.8-3.3c-1.2-1-2.8-1.9-4.6-2.6c-1.8-0.7-3.8-1.6-6-2.6c-2.2-1.1-4.1-2.2-6-3.4
		c-1.8-1.2-3.4-2.9-4.6-5c-1.2-2.1-1.8-4.6-1.8-7.4c0-5.1,1.9-9.3,5.7-12.5c3.8-3.2,8.7-4.8,14.7-4.8c7,0,12.9,2.1,17.6,6.4L933,542
		c-1.6-1.4-3.6-2.6-5.8-3.5c-2.3-0.9-4.5-1.4-6.6-1.4c-2,0-3.5,0.4-4.5,1.1c-1,0.7-1.5,1.7-1.5,2.9c0,1.2,0.6,2.3,1.8,3.3
		c1.2,1,2.8,1.8,4.6,2.5c1.8,0.7,3.8,1.5,6,2.5c2.2,1,4.1,2.1,6,3.3c1.8,1.2,3.4,2.8,4.6,5c1.2,2.1,1.8,4.6,1.8,7.4
		c0,5-1.8,9.2-5.3,12.5c-3.5,3.4-8.4,5-14.7,5c-3.8,0-7.5-0.7-11.1-2C904.9,579.1,901.7,577.1,899.1,574.5z"/>
	<path class="st0" d="M948.2,581.6v-56.3h23.4c5.5,0,9.9,1.8,13.3,5.4c3.4,3.6,5.1,8.3,5.1,13.9c0,5.7-1.7,10.4-5.1,14
		c-3.4,3.6-7.8,5.5-13.3,5.5H962v17.4H948.2z M962,552.4h6.8c2.3,0,4.1-0.7,5.3-2.1c1.2-1.4,1.8-3.3,1.8-5.6c0-2.3-0.6-4.1-1.8-5.5
		c-1.2-1.4-2.9-2-5.1-2h-7V552.4z"/>
	<path class="st0" d="M988.6,581.6l19.1-56.3h14.5l19.1,56.3h-14.2l-3.5-11.8h-17.5l-3.4,11.8H988.6z M1009.4,558.8h11.1l-3.1-10.9
		l-2.3-9.7h-0.2c-0.8,4.1-1.6,7.3-2.3,9.7L1009.4,558.8z"/>
	<path class="st0" d="M1042.7,553.3c0-8.3,2.8-15.2,8.3-20.7c5.5-5.5,12.6-8.3,21.2-8.3c3.9,0,7.8,0.7,11.5,2
		c3.7,1.3,6.9,3.3,9.6,5.9l-6.4,10.4c-1.9-1.7-4.1-3.1-6.6-4.1c-2.5-1.1-5-1.6-7.4-1.6c-5.2,0-9.2,1.6-11.9,4.7
		c-2.7,3.1-4,6.9-4,11.4c0,4.6,1.4,8.5,4.1,11.9c2.8,3.4,6.7,5,11.8,5c5.4,0,10.3-2.3,15-6.9l7.1,10.1c-6.1,6.3-13.6,9.4-22.7,9.4
		c-8.9,0-16.1-2.7-21.4-8.2C1045.4,568.8,1042.7,561.8,1042.7,553.3z"/>
	<path class="st0" d="M1101.9,581.6v-56.3h13.8v56.3H1101.9z"/>
	<path class="st0" d="M1124.4,553.1c0-8.2,2.8-15,8.3-20.5c5.5-5.5,12.6-8.2,21.2-8.2s15.7,2.7,21.2,8.2c5.5,5.5,8.3,12.3,8.3,20.5
		c0,8.4-2.8,15.4-8.3,21c-5.5,5.6-12.6,8.4-21.2,8.4s-15.7-2.8-21.2-8.4C1127.2,568.5,1124.4,561.5,1124.4,553.1z M1138.6,553.1
		c0,4.8,1.4,8.8,4.3,12c2.9,3.2,6.5,4.8,10.9,4.8c4.4,0,8-1.6,10.9-4.8c2.9-3.2,4.3-7.2,4.3-12c0-4.6-1.4-8.5-4.3-11.5
		c-2.9-3.1-6.5-4.6-10.9-4.6c-4.4,0-8,1.5-10.9,4.6C1140.1,544.6,1138.6,548.5,1138.6,553.1z"/>
	<path class="st0" d="M1187.7,574.5l7.2-10.5c1.8,1.6,3.9,2.9,6.4,4.1c2.5,1.2,4.9,1.7,7.2,1.7c1.8,0,3.3-0.4,4.3-1.1
		c1-0.7,1.5-1.7,1.5-2.8c0-1.2-0.6-2.3-1.8-3.3c-1.2-1-2.8-1.9-4.6-2.6c-1.8-0.7-3.8-1.6-6-2.6c-2.2-1.1-4.1-2.2-6-3.4
		c-1.8-1.2-3.4-2.9-4.6-5c-1.2-2.1-1.8-4.6-1.8-7.4c0-5.1,1.9-9.3,5.7-12.5c3.8-3.2,8.7-4.8,14.7-4.8c7,0,12.9,2.1,17.6,6.4
		l-5.8,11.3c-1.6-1.4-3.6-2.6-5.8-3.5c-2.3-0.9-4.5-1.4-6.6-1.4c-2,0-3.5,0.4-4.5,1.1c-1,0.7-1.5,1.7-1.5,2.9c0,1.2,0.6,2.3,1.8,3.3
		c1.2,1,2.8,1.8,4.6,2.5c1.8,0.7,3.8,1.5,6,2.5c2.2,1,4.1,2.1,6,3.3c1.8,1.2,3.4,2.8,4.6,5c1.2,2.1,1.8,4.6,1.8,7.4
		c0,5-1.8,9.2-5.3,12.5c-3.5,3.4-8.4,5-14.7,5c-3.8,0-7.5-0.7-11.1-2C1193.4,579.1,1190.3,577.1,1187.7,574.5z"/>
</g>
<g>
	<path class="st0" d="M863.6,632.2v-29.6h9.4c2.5,0,4.3,0.3,5.5,0.8c1.5,0.6,2.6,1.6,3.4,3c0.8,1.3,1.3,2.9,1.3,4.8
		c0,1.9-0.5,3.6-1.4,5.1c-1,1.5-2.2,2.5-3.8,3v0.1c0.2,0.3,0.5,0.7,0.8,1.3l6.3,11.5h-4.7l-6.2-11.8h-6.3v11.8H863.6z M867.7,616.8
		h5.9c1.6,0,2.9-0.5,3.9-1.5c0.9-1,1.4-2.3,1.4-4c0-2.3-0.9-3.9-2.8-4.6c-0.8-0.3-1.9-0.5-3.6-0.5h-4.9V616.8z"/>
	<path class="st0" d="M889.9,632.2v-29.6h17.2v3.6H894v9.3h10.6v3.6H894v9.5h13.8v3.6H889.9z"/>
	<path class="st0" d="M920.4,632.2v-26h-10.2v-3.6h24.4v3.6h-10.2v26H920.4z"/>
	<path class="st0" d="M933.5,632.2l10.6-29.6h4.4l10.6,29.6h-4.3l-3-8.5h-11.1l-3,8.5H933.5z M941.8,620.2h9l-3.3-9.3l-1.2-4.2h-0.1
		c-0.4,1.8-0.8,3.2-1.1,4.2L941.8,620.2z"/>
	<path class="st0" d="M963.6,632.2v-29.6h4.1v29.6H963.6z"/>
	<path class="st0" d="M975.6,632.2v-29.6h4.1v26H993v3.6H975.6z"/>
	<path class="st0" d="M1006.9,632.2v-29.6h10.3c2.6,0,4.6,0.7,6.2,2c1.6,1.3,2.4,3.2,2.4,5.5c0,1.4-0.3,2.7-1,3.8
		c-0.7,1.1-1.6,2-2.7,2.6v0.1c1.5,0.4,2.7,1.3,3.6,2.6c0.9,1.3,1.3,2.8,1.3,4.5c0,2.7-0.9,4.8-2.7,6.2c-1.8,1.5-4.1,2.2-6.8,2.2
		H1006.9z M1011,615h6.2c1.3,0,2.4-0.4,3.2-1.3c0.8-0.8,1.2-1.9,1.2-3.2c0-1.3-0.4-2.4-1.2-3.2c-0.8-0.8-1.9-1.2-3.2-1.2h-6.2V615z
		 M1011,628.6h6.7c1.6,0,2.8-0.5,3.7-1.4c0.9-0.9,1.4-2.1,1.4-3.7c0-1.5-0.5-2.7-1.4-3.6s-2.1-1.4-3.7-1.4h-6.7V628.6z"/>
	<path class="st0" d="M1033,632.2v-29.6h9.4c2.5,0,4.3,0.3,5.5,0.8c1.5,0.6,2.6,1.6,3.4,3c0.8,1.3,1.3,2.9,1.3,4.8
		c0,1.9-0.5,3.6-1.4,5.1c-1,1.5-2.2,2.5-3.8,3v0.1c0.2,0.3,0.5,0.7,0.8,1.3l6.3,11.5h-4.7l-6.2-11.8h-6.3v11.8H1033z M1037.1,616.8
		h5.9c1.6,0,2.9-0.5,3.9-1.5c0.9-1,1.4-2.3,1.4-4c0-2.3-0.9-3.9-2.8-4.6c-0.8-0.3-1.9-0.5-3.6-0.5h-4.9V616.8z"/>
	<path class="st0" d="M1056,632.2l10.6-29.6h4.4l10.6,29.6h-4.3l-3-8.5h-11.1l-3,8.5H1056z M1064.3,620.2h9l-3.3-9.3l-1.2-4.2h-0.1
		c-0.4,1.8-0.8,3.2-1.1,4.2L1064.3,620.2z"/>
	<path class="st0" d="M1086.1,632.2v-29.6h4.1l13.2,19.2l2.4,4.3h0.1c-0.2-1.8-0.3-3.2-0.3-4.3v-19.2h4.1v29.6h-4.1l-13.2-19.2
		l-2.4-4.3h-0.1c0.2,1.8,0.3,3.2,0.3,4.3v19.2H1086.1z"/>
	<path class="st0" d="M1117.6,632.2v-29.6h9.8c4.5,0,8.2,1.3,10.9,3.9c2.7,2.6,4.1,6.2,4.1,10.8c0,4.6-1.4,8.3-4.1,10.9
		c-2.7,2.6-6.3,3.9-10.9,3.9H1117.6z M1121.7,628.6h5.4c3.4,0,6-1,8-2.9c2-1.9,3-4.7,3-8.3c0-3.5-1-6.3-3-8.2s-4.6-2.9-8-2.9h-5.4
		V628.6z"/>
	<path class="st0" d="M1148.4,632.2v-29.6h4.1v29.6H1148.4z"/>
	<path class="st0" d="M1160.4,632.2v-29.6h4.1l13.2,19.2l2.4,4.3h0.1c-0.2-1.8-0.3-3.2-0.3-4.3v-19.2h4.1v29.6h-4.1l-13.2-19.2
		l-2.4-4.3h-0.1c0.2,1.8,0.3,3.2,0.3,4.3v19.2H1160.4z"/>
	<path class="st0" d="M1190.1,617.3c0-4.3,1.4-7.9,4.3-10.8c2.9-2.9,6.5-4.4,10.8-4.4c4.3,0,7.9,1.2,10.8,3.6l-2.1,3.1
		c-1-0.8-2.3-1.5-3.8-2.1c-1.5-0.5-3.1-0.8-4.5-0.8c-3.3,0-6,1.1-8.1,3.3c-2,2.2-3,4.9-3,8.1c0,3.4,1,6.2,3.1,8.3
		c2.1,2.2,4.6,3.3,7.7,3.3c3.2,0,6-1.2,8.4-3.7v-4.3h-4.8v-3.6h8.6v14.9h-3.6v-1.8l0-1.3h-0.1c-1,1.1-2.4,2-4,2.6
		c-1.6,0.7-3.3,1-5.1,1c-4,0-7.5-1.4-10.3-4.3S1190.1,621.8,1190.1,617.3z"/>
</g>
</svg>
