<svg version="1.1" id="Capa_1" xmlns="http://www.w3.org/2000/svg" x="0" y="0" width="1920" height="1080" xml:space="preserve"><style>.st0{fill:#010101}.st2{enable-background:new}.st3{fill:#fff}</style><path class="st0" d="M-20.7-454.2c1.9-.7 3 2.5.9 2.8-1.8.5-2.9-2.5-.9-2.8zM667.9-453.2c1.6-.5 2.2 0 1.7 1.7-1.6.4-2.2-.1-1.7-1.7zM-50.7-445.4c1.6-.6 2.2-.1 1.7 1.6-1.5.6-2.1.1-1.7-1.6zM-104.8-442c1.4-1.2 3.1 1.3 1.7 2.3-1.5 1.3-3.2-1.3-1.7-2.3zM1667.1 291.6c-4.3-.7-2.1-7 1.7-5.6 4 .7 1.9 6.7-1.7 5.6zM291.2 291.3c-1-3.2.2-4.3 3.4-3.3 1 3.2-.1 4.3-3.4 3.3zM1725.2 306.8c-.9-3.3.3-4.4 3.5-3.2.8 3.3-.4 4.4-3.5 3.2zM1833.4 315.1c-3-2 .4-7 3.3-4.6 3.1 1.9-.4 7-3.3 4.6zM1180.7 338.2c22.7-1.5 45.6-1.8 68.2 1.9 22.5 3.6 45.6 10.3 63.3 25.4 10.9 9 16.2 22.6 20.1 35.8 6.2 21.1 7 43.3 6.7 65.1 11.4-4.1 22.9-8.2 35-9.6 8.2 12.5 13.1 27.2 13 42.3.3 23.5-10.6 45.3-23.8 64.2 20.7 32.3 42 64.9 71.3 90.1-9.4 4.7-20.1 4.5-30.3 4.8 7.6 9.1 14.9 18.8 24.4 26 5.1 1.5 10.5 1.5 15.8 2 4.4 4.2 8.7 8.3 13.1 12.5-6.3 1.1-13.2.7-18.7 4.3-3.2 2-3.7 6-4.1 9.5-2.7 25.9-8.2 51.8-6.7 78 10.6 7.6 18.3 18.3 25.2 29.1 6.5 10.5 15.4 19.2 21.7 29.8 6.4 10.6 15.7 19 22.7 29.3 7.4 11.1 19.3 18.4 25.9 30.2 19 30.5 20.2 68.1 17 102.9-1.8 9.4 3.7 17.8 6.9 26.2 1.6 6.9 9.4 7.8 14.2 11.8-.2 2.7-.8 5.4-1.2 8.1-10.4 3.1-19.9 8.5-28.7 14.7-15.1-23-41.8-37.8-69.4-37.2-24.2 1.3-47.7 13.4-62.2 33-13.9-7.6-29.6-12.2-45.5-11.1-17.9.7-34.7 8.6-48.4 19.8-9.7-1.1-19.6-3.5-29.4-1.7-3.9.2-8 1.9-11.9.9-4.6-3.6-8.4-8.1-13.2-11.5-18.9-13.9-44.3-19.1-67.1-12.7-8.1 1.7-15.3 7.5-23.9 6.3-1.7 4.7-4.6 8.8-8.7 11.7.2-8.2 1-16.4.1-24.5-1.5 7.6-1.8 15.4-2.4 23.1-4.5-15.5-11.8-30.5-24.1-41.3-21.4-20.5-54.9-26.5-82.3-15.6-16.6 6.3-30.1 18.8-39.5 33.6-11-1.9-22.3-1.9-33.4-1.5-.4-27.2-1.9-54.4-.4-81.6 1.6-31.5 6.7-63.5 21.1-91.9 5-10.7 13-19.5 17.2-30.6 2.5-6.4 8-10.8 13.1-15.1 2.8 5 5.4 11.2 11.8 12.4-3-4.8-6.4-9.2-9.9-13.7 4.1-2.7 8.1-5.5 12.1-8.3 2.5 4.4 5.5 8.7 9.3 12.1 16.6 15.3 32.2 32 50.9 44.9 18.6 13.3 41.5 21.7 64.6 18.8-4.3-8.3-9.8-15.9-13.1-24.6-1.5-3.9-3.2-7.8-5.4-11.3 2.5-1 5.1-2 7.6-2.9-18.8-7.5-37.1-16.3-54.2-27.3 4.1 4.2 8.4 8 12.3 12.4-13.3-5.5-22.5-17-32.7-26.6 3.1 5.8 7.1 11 10.5 16.5-30.4-20.7-49.1-53.8-63.8-86.7l-4 6.4c-2.2-10-3.6-20.2-5.3-30.2-1.6 12.6 1.1 25.3 2.5 37.8-1.7-1.2-1.9-3.5-2.7-5.2-10.9-33.9-13.4-71.6-1-105.5-.2 6.8-1.2 13.4-1.6 20.2 6.5-8.1 3.9-19.4 8.6-28.5-2.8 19.7-3.8 39.6-3 59.5.6 2.7 2.2 4.9 3.9 7.1.6 1.8 1.1 3.7 1.6 5.5 1.6 9.4 2.7 19 6.3 27.9-.8-15.6-4.9-31.1-3-46.8 2.4 12.8 3.9 25.8 8 38.3 8.3 26.8 22.5 52.8 44.2 71 11.2 5.8 20 15.1 31 21.2-26.4-22.3-51.4-48.8-62-82.3 13.5 19.9 26.1 41.6 45.8 56-9.5-14.1-21.9-27-25.9-44.1 7.3 9.6 13.9 20.1 24 27-3.4-9.6-8.9-18.6-9.9-28.9 17.9 38.1 42 73.8 74.3 101.2 1.9-1.8 3.8-3.6 5.4-5.5-8.8-10.3-17.8-20.5-24.8-32.1-.6 1.2-1.7 3.6-2.3 4.8-12.6-13.8-26-29.4-28.5-48.6 7.3 12.7 14 26 24.8 36.2.6-6.2 1.2-12.3 2.4-18.4 2.6 7.4 4.1 15.5 8.8 22 7.5 11.1 19.8 17.5 29.5 26.4 10.2-8.5 22.7-14.3 30.9-25 5.1-6.3 6.9-14.3 10-21.6.5 5.3.9 10.6 1.3 15.9 12.6-7.4 18.5-21.1 27.6-31.8-1.7 5.1-3.8 10-5.7 15 4.9-3.3 9.7-6.8 14-10.8-1.3 0-4 .1-5.3.1 16.1-31.7 19.5-69.8 11-104.2-1.2 3.6-2.4 7.3-3.6 10.9-1.5-6.7-1.3-13.6-1-20.4-1.5 1.1-4.6 3.4-6.1 4.5 4-10.2 11.1-19 13.4-29.8-2.8-.3-5.6-.7-8.4-1-1.2 2.3-2.4 4.6-3.7 6.9-.4-2.5-.7-5.1-1.1-7.6-1.6-.3-4.8-.8-6.5-1.1.4 6.5 2.8 15.1-3.4 19.8-8.9 7.3-21.5 4.9-31.6 1.6 1.6-4.9 8-7.4 7.9-13-.4-8.3-12.4-12.4-17.8-6-7.2 8.4-6.8 20.2-9.7 30.3-1.8 7.1-14.4 6.6-15.8-.4-2.5-10.6-1.1-22.9-8.8-31.5-5.2-5.9-16.4-1.9-17.2 5.8-.7 5.7 5 8.9 8.1 12.8-10.2 3.2-22.5 5.3-31.6-1.8-5.7-4.3-4.3-12-4.6-18.1-2 1.4-4.1 2.8-6.2 4.3-3.6.2-7.2.6-10.8 1 3.2 8.5 7.9 16.4 10.6 25.2-2-2-4-4.1-6-6.1-.2 6.9-.3 13.9-2.1 20.7-.9-3.7-1.8-7.4-2.8-11.1-11.6 33.4-7.3 70.1 3.2 103.3-10.1-12.9-15.7-28.8-18.7-44.8-3.6 4.3-7.3 8.4-11.4 12.2 3.9-11.9 10.2-23.1 10.7-35.9-4.5 5.3-8.9 10.9-14.7 14.9 6.6-11.8 14-23.5 15.9-37.2-5.6 6.5-10.7 13.7-17.6 18.9 7.3-12.7 16.3-25 18.3-40-3.1 3.8-5.8 7.9-8.8 11.8 3-10 7.4-19.6 10.7-29.5-3.5 2.9-7 6-10.4 9.1 1.6-2.8 3.3-5.6 5-8.3-15.3.6-31.7-2.5-43.2-13.4-13.2-13.4-17-32.8-21.3-50.4-8.1 11.9-18.4 22.3-31.5 28.5 12.2.1 23.8-3.4 35.1-7.6-16.3 22.6-37.5 41.8-61.8 55.3 12.6-12.5 29.1-21.5 38.4-37.1-8.1-.4-15.6-3.7-20.8-10 11.4-5.2 22.1-12.2 29.7-22.3-1-1.9-2-3.9-3-5.8-4.8 5.8-9.7 12.7-17 15.4-1.2.4-3.5 1.2-4.6 1.5 1-3.3 2-6.7 3-10-2.4 2.9-4.8 5.8-7.1 8.8-13.3 16-28.4 30.4-43.6 44.6 9.2 2.1 18.6 1.5 27.9.4-9.7 13.9-21.8 25.8-35 36.3 17.8-4.3 34.2-12.6 50-21.7-6.4 8.8-16.3 13.8-24.6 20.5 11.3.1 22.8-.6 33.6-3.9 5.9-1.7 9-7.4 13.2-11.4-1.2 5.5-3 10.9-4.7 16.3-8.5 26.8-3.1 56-13 82.6 0-14.8 1.2-29.7-.8-44.4-1.8 10.5-1.1 21.1-2.2 31.7-1 10.9-3.4 21.7-5.7 32.4 16-3.4 29.2-13 41.5-23.3 5.5 17 11.2 33.9 19.6 49.7 1.6 3.5 4.1 6.7 4.5 10.6-4.1 3.7-8.9 6.7-13.5 9.8-3-3.8-6-7.6-9.3-11.2 1.8 4.4 3.8 8.7 6 13-2.4 2.3-4.9 4.6-7.1 7.1-5.4 5.7-6.9 13.7-11.4 20-12.5 17.9-20.7 38.6-25.4 59.9-9.9 43.8-6.2 88.9-6.3 133.4-9.9 2.4-18.9 7.1-27.7 12.2-5.2-8.6-10.8-17.3-18.7-23.8-2.2-2.3-6-4.3-5.3-8.1 1.1-26.9 4.8-53.8 10.7-80.1-11.1 24.4-19.2 50.7-19 77.8-11.5-5.3-23.8-9-36.4-9.8-1.7-6-3.8-11.8-5.9-17.6 4.8.9 9.5 2.1 14.2 3.3-5.8-3.6-11.8-6.7-17.2-10.7 6.7-2.5 13.7-4.1 20.7-5.5-.2-12.4-1.3-24.8-.7-37.2.6-4.1-3.3-6.8-4.8-10.2-.5-2.8 1.8-5 2.7-7.4-1.4-11.8-7.4-23.1-5.8-35.1 6.3-4.9 13.9-7.5 21-10.9-2.8-11.1-2.5-22.8-5.9-33.8-5.3-7.9-12.4-14.3-18.9-21.3-7.2-7.8-16.9-12.8-23.6-21.1 9.5-10.1 21.7-17 32-26.2 19.1-16.4 40.3-30.2 60.4-45.4 2-1.6 4.5-3.3 4.3-6.2 1.5-13.1 3.7-26.2 8.2-38.7-17.2.8-34.5-.2-51.2-4.3 6.2-5.4 12.7-10.5 19.7-14.8-1.3-1.1-2.6-2.2-3.9-3.2.9-6.8 1.9-13.6 3.2-20.4 1.1.1 3.4.4 4.6.5-.8 5.8-1.5 11.6-3.7 17l2.7 3.3c6.9-7.4 15-13.8 20.9-22.2-9.7-.9-20-.7-28.7-5.9 3.5-5.4 9.8-8.2 14.2-12.8 21.6-20.5 40.2-44.1 57.3-68.5-1.6-5.9-2.5-12.1-6-17.2-7.1-11-9.8-23.9-13.2-36.2 3.4-3.9 2.5-9.1 2.6-13.8.1-16.2 5.4-32.6 15.9-45.1 7.1 2 14.3 4.2 21.3 6.4-3.3-14.8-7.6-30.5-2.9-45.5 4.2-11.8 13-21.4 22.4-29.4 26.5-21.6 60.8-29.9 94.2-33.1 1.4-7.2 2.9-14.9 7.9-20.5 10.9-13 32.8-14.2 45.1-2.6 5.2 3.6 6.8 10.1 8.7 16.2zm-40.4 7.7c-16.7 3.4-31.4 13.5-41.9 26.8-12.8 16.1-19.4 36.4-20.8 56.7-2.5-27.2 6.7-56.1 26.6-75.2-24.1 4.6-48.3 12-68.5 26.3-11 8-21.1 18.9-24.1 32.6-3.6 18 2.2 35.8 6.5 53.1.3 2.7 2.3 6 .4 8.5l-.9.8c.7 2 3 2.8 4.5 4.2 2.9 8.1 5.7 16.3 8.7 24.4 16.5-11.4 34.9-19.7 54.2-25.1-2.3-34-.2-70.1 17.3-100.3-1 12.8-5.2 25.2-4.5 38.2 4.8-9.3 9.2-19 16.9-26.3-5.2 13.3-10.6 26.7-11.8 41.1 3.7-7 6.6-14.4 11.2-20.9 7.2-10.4 17.9-18.6 30.2-22.1 6-1.7 12.4-1.6 18.4-3.3 9.4-6.5 13.8-17.7 18.1-27.8 9.1 10.7 14.4 24.1 16.5 37.8.6 7.4 7.4 11.7 11.8 17 5.4-4.8 10.2-10.2 15-15.6 3.2 7.8 6.2 15.9 6.4 24.4 1.3 13-7.9 24.5-4.6 37.5 18.1-.7 36.3-.2 54.3-2.8 5.3-.5 9.7-4.3 11.7-9.1 3.3-7.1 2.3-15.1 2.8-22.6 2.6 5.5 4.5 11.2 6.7 16.9-.9-17-7-33.9-18.7-46.5-4.1-4.3-8.6-8.1-12.6-12.5 15.1 4.6 27.7 14.5 38.4 25.8-3.4-15.9-11.1-30.3-19.8-43.9 14.1 5.2 23.8 17.8 29.6 31.1 4.2 8.9 5.8 18.7 8.8 28-1.9-17-6.3-34.3-17.1-47.9-7.5-9.8-18-17.4-29.9-20.8-26.4-8.5-54.5-7.4-81.8-6.1 22.8 14.2 40.8 36.6 47.6 62.8 2.7 9.8 3.2 20 3.4 30.1-8.1-26.2-17.8-53.2-37.6-73-17.6-19.3-45.8-28-71.4-22.3zm9.8 71.5c4.1-2 8.1-4.1 12.1-6.2-1.5 9.2-4 18.2-5.8 27.3 7-5.9 11.9-13.7 18.2-20.2-1.9 12-6.8 23.1-9.8 34.7 13.6-18.3 20.7-41 20.7-63.8-6.1 10.3-10.4 21.9-18.7 30.7 3.9-12.1 8.9-24.1 10.6-36.8-7.5 12.6-16.7 24.1-27.3 34.3zm54.3 13.8c3.8-1.4 7.6-2.9 11.4-4.3-2 7.7-5.1 15-7.4 22.6 8.2-9.5 11.9-22 11.7-34.4-5.3 5.2-10.6 10.5-15.7 16.1zM989 451.8c-3.9 4.6-7 9.7-9.4 15.3 2.1-1.7 4.1-3.4 6.2-5-1.3 8.9-2.5 17.9-1.8 26.9.5 1 1.6 2.9 2.1 3.8.7-3.3 1.3-6.5 1.8-9.8 2.9 16.1 8 33 20.8 44.1-2.4-5.7-4.8-11.5-6.2-17.5 6.6 6.8 11.5 15.8 20.9 19.1-.6-1.6-1.7-4.8-2.3-6.4 2.7 1.7 5.4 3.5 8.2 5.2-4.3-10.7-8.1-21.5-12.7-32-3.3-7.8-9.5-13.5-14.1-20.4 8 3.9 13.3 11.1 19.7 16.8-4.3-11-14.2-18-21.3-27 4.8 2.2 8.5 6.9 13.7 7.8-.8-2.9-4-5-4.6-7.7 4.3-2.6-.2-5.3-2.5-6.3-5.9-2.8-12.3-4.7-18.5-6.9zm378.5 10c-10.8 4.2-24 5.3-31.7 14.8 4.3-.8 8.5-2.3 12.7-3.8-1.8 2.6-6 4.4-5.8 7.9 5.5-.5 9.3-6.5 15-6.8-10.1 7.7-19.9 16.3-26.1 27.5 7.5-6.2 14.1-13.7 23.1-17.9-8.8 10.1-18.5 19.5-26.4 30.4-13-2.3-26.4.1-38 6.3 14.9 1.2 29.9 1.2 44.7 3-.1 4-.2 8-.2 12 6.6-5 11.9-11.4 17-17.8-1.7 6.1-4.2 11.9-6.8 17.7 13.2-9.6 17.9-25.8 22.7-40.5.4 5.6-.1 11.2-.7 16.7 5.7-11.9 5.2-25.4 3.8-38.2 1.5 1.1 4.4 3.2 5.8 4.3-2.2-5.7-5-11.1-9.1-15.6zm-305.3 34.6c9-.6 17.7-3 26.7-4.1-8.9 5.3-18.7 9.2-26.8 15.9-.2.5-.5 1.4-.7 1.8 15.5-7.6 32.3-11.9 49.1-15.6 10.1-2.1 20.3-4.5 30.6-4.8-25.6 6.7-51.6 13.8-74.6 27.1 22.1-5.6 43.9-13.5 66.8-15.3-20.6 6.7-41.2 13.8-60.7 23.1 9.5-.6 18.7-3.4 28.1-5 60.5-11.8 122.3-15.3 183.8-16 9.6-.1 19.2.7 28.7-1-18.9-5.8-38.9-6.5-58.6-7.3-11.5-.5-23.1.8-34.5-1.1 33.9-5.6 68.4-4.1 102.6-2-25-6.3-51-7-76.7-7.9 26.6-5.3 53.8-1.6 80.3 2.1-19-8.6-40.2-7.8-60.2-12.5 20.8 0 41.6 2.3 62.4 2.4-88.4-16.7-181.7-11.7-266.3 20.2zm-76.4 3.2c2.8-.5 3.2-1.9 1.4-4.1-2.8.5-3.3 1.8-1.4 4.1zm246.8 22.5c-3.5.7-6.7-1-9.5-2.9 7.6-1 15.1-3.1 22.2-5.8-10.9-.9-21.9.2-32.8.7-28.5 1.6-57.1 4.3-85.3 9.2-1-.2-3.1-.6-4.1-.8-1 2.2-2.2 4.4-3.5 6.5l8.1 2.1c5.7 1.8 11.3 4 16.8 6.2 6.6 2.8 14 1.4 20.9 1.5l-4.8-6.3c3.6 2 7 4.3 10.3 6.6 6.2-.2 12.3-1.1 17.9-3.9 23.7-10.5 49.7-15.2 75.6-14.7 7.3.4 15.1-.4 21-5.2-6.4.2-13.2 4.7-19.3 1.1 3-1 6-1.9 8.9-2.9-14.7-1.1-28 6.8-42.4 8.6zm27.8 8.9c-9.9.9-19.9 1.7-30 1.2-12.6-.7-25.6 4.7-33.5 14.5 2.6 6.6 8.5 12 15.8 12.6 17.7 2.8 34.6-5.1 52-7 11.5-1.8 24.1-2.3 34.5 3.7 6.3 3.3 9 10.3 13.3 15.5.5-10.2 1.7-22.5-6.6-30.2-11.8-11.7-30-11.6-45.5-10.3zm-151.8 5c-19.2-1.7-38.8-.3-57.3 5.4-7.7 2.6-18.2-2.1-23.2 6.5-9.3 9.4-7.7 23.2-5.7 35.1 2.7 14.8 9.1 29.6 20.8 39.5 10.9 8.9 25.9 9.6 39.4 8.3 3-3.5 6.2-6.8 9.7-9.9.1 2 .3 6 .4 7.9 2.5-.5 5-1.1 7.4-1.6-.3-10.2 2.1-20.5 8.9-28.4 5.5-7.4 13.6-12 20.3-18.1-5.7 1.9-11.2 4.3-16.7 6.5 1.1-1.5 3.4-4.4 4.5-5.8-6.1 1.5-12 3.6-18.3 4-5.2-.2-10-2.4-14.9-3.8 2 3 3.9 6 5.8 9.1h-3.6c-.4 1.4-1.1 4.2-1.4 5.6-1.8-2.3-.1-4.9.9-7.1-2.4-3.2-5.2-6-8.5-8.4 1.7 3 3.7 5.9 6.4 8.2-2 1.9-4 3.7-6 5.7-5.4-4.8-10.6-10-13.6-16.7-2.8-5-4.3-11.2-9-14.8-5.6-2-11 1.9-16.2 3.4 4.3-8.4 10.1-17.3 20-19.2 27.9-7.1 53.7 12.7 81.4 10-3.9-5.8-11.9-4.1-17.7-6.6 4.6-.5 9.1-.9 13.7-1.4-6.2-9.1-17-13-27.5-13.4zm51 23.6c-4.3 3.8-4.7 10-6.8 15.1 3.5-1.4 7-2.8 10.5-4-4.4 4.4-10.2 7.9-13 13.7-2.8 5.8-5.2 11.8-7.9 17.7 16.5-5.5 34.2-5.9 51.2-2.7-4.1-7.9-8.5-15.8-10.7-24.4-1.9-6.2-3.4-13.4-8.9-17.5-4.6-2.8-10.4-.7-14.4 2.1zm-88.5-3.5c1.6 5.3 5.2 9.9 10.2 12.4 10.8 5.8 24.5 7.7 35.8 2.1.7-4.7-4.8-5-7.9-6.3-12.7-3.1-25-8-38.1-8.2zm253.3 1.4c-3.7 19.5-5.7 40.2-16.5 57.3-9.5 14-26.8 20.2-43.2 20.8 2.3 3.4 4.6 6.8 6.7 10.4-2.6-1.1-5.1-2.4-7.6-3.6.9 2.2 1.8 4.5 2.7 6.8l.7.3c2.7 8.6 5.6 17.1 8.1 25.8-3.4-4.7-6.1-9.8-8.9-14.8.8 15.6 9.5 28.9 16.1 42.6-6.2-5.5-10.7-12.6-16.1-18.9 1.2 13.5 7.8 25.4 14.1 37.1-5.8-4-9.8-9.9-14.2-15.3.1 12.8 5.2 24.7 9.5 36.6-4.1-3.9-7.8-8.3-11.1-13-4.4 14.4-9.5 29.1-19.3 40.9l3.5 3.5c5.3-6.9 8.9-14.8 13.7-22-1.2 5-3 9.8-4.8 14.6 16.4-11 32.4-22.8 49.2-33.2 2.2-1.6 5-2.8 5.9-5.5 4.1-10.8 5.3-22.3 8.5-33.3-.3 10.9-2.2 21.6-2.7 32.5 4.9-7 4.6-16 6.3-24 .9 2.5 1.8 5 2.6 7.6 4.3-22.4 3.8-45.3 1.5-67.9 5.7 15.6 4.7 32.4 8.3 48.4.4-12.9-1.8-25.8-.5-38.7 5.1 20 6.3 40.8 4 61.2 6.3-2.7 13.2-4.2 19.8-1.5-2.4-12.7-9.3-23.7-14.8-35.1 2.9.2 5.8.5 8.7.7-.8-3.4-1.7-6.8-2.4-10.2 3.2 3.4 6.2 7 8.9 10.7 3.5.5 7.1 1 10.6 1.5-.2-1.7-.7-5.1-.9-6.9 6.9 3.1 13.9 6.1 21.3 7.9-6.1-5.8-13-10.9-17.8-18 13.9 8.8 27.6 19.3 44.5 21.3-9.8-10.9-19.9-21.5-27.6-34 9.3 1.7 18.8 2.6 28.2 1.1-11.7-11.8-23.3-23.8-33.6-36.9-1.3-.1-3.9-.2-5.2-.2 3.6-7.7-5.6-12.6-9.2-18.4v5.4l-6-6-2.4 4.5c-2.9-3.6-5.7-7.3-8.5-11-.2-.5-.7-1.6-.9-2.1-.1 1.2-.4 3.6-.5 4.8-1.4-.6-4.1-1.8-5.5-2.4 1.3 2 2.3 4.3 3.9 6.2 6.2 9.9 16.9 15 25.7 22.1-5.4 2.1-11.2 3.3-16.8 4.5 1.4 16.5 16 26.7 26.5 37.8-21.3-13.1-38.6-32.3-52-53.2 10.9 4.3 22.1 9.2 34.1 8.7-6.5-4-13.4-7.8-18.3-13.9-11.7-13-16.6-29.8-26.3-43.6zm-63.6 6.3c-9.7 2.1-19.9 3.3-28.7 8.2 14.2 10.3 36.7 6.7 47.6-6.9-.3-.9-.9-2.8-1.3-3.8-6 .1-11.8 1.3-17.6 2.5zm35.8 5.5c-5.2 3.6-7.2 10.2-10.5 15.4-3.9 7.3-10.5 12.7-17.7 16.6 2.1-3.4 4.2-6.7 6.4-10-2.6 1.7-5.1 3.3-7.7 4.9 1.7-3.3 3.4-6.5 5.2-9.8-4.3 3.9-8.7 7.8-13.6 10.9 2.2-3.4 4.6-6.7 6.9-10-10.8 3.6-21.9 1.2-32.3-2.3 1.3 1.5 3.9 4.4 5.2 5.8-6.1-2.5-11.9-5.3-18-7.7 7.8 6.7 16.4 12.9 21.6 22 4.1 6.4 5.7 13.9 6.6 21.3 14.2 1.4 29.9 1.6 41.9-7.3 14.6-10.6 20.1-28.9 22.7-45.9-5.6-1.3-11-4.6-16.7-3.9zM1195 580.6c3.1 7.7 5.5 16.2 11.4 22.4 8.4 5.5 17.6 10.3 23.5 18.7 4.1 1 8.2 2.1 12.3 2.8-3.8-16.8-17.7-32.3-35.9-32.3-2.3-5.1-6.9-8.4-11.3-11.6zm-212.1 7.7c2.4 1.1 5.2-2.7 3.7-4.8-2.3-1-5.1 2.7-3.7 4.8zm122.6 36.7c15.9-4.6 25.8-19.5 31.1-34.3-16.7 3.2-28.2 18.2-31.1 34.3zm30.8-12.8c22-2 44.2-4 66.1.7-1.8-2-2.8-5.2-5.7-5.7-19.9-5.7-42-4.9-60.4 5zm-44.8 183.2c2.9.9 3.7-.1 2.4-2.8-2.9-.9-3.7.1-2.4 2.8zm-222.7 22.7c3.9 7.4 10.1 13.2 16.7 18.2-4.4-7-10-13.3-16.7-18.2zm547.4 45.2c-12.4 4.2-24.9 9.6-34.4 18.9 11.9-4 22-12.3 34.5-14.7 18.6-3.4 37.6-1.1 55.8 3.4-5.2-5.4-13.2-5.3-20-6.6-11.9-1.5-24-3.1-35.9-1zm-76.4 59c7.9-5.5 13.9-13.3 19.4-21.2-9.4 3.3-15.4 12.5-19.4 21.2zm-195.1-1.9c-2.8 1.3-5 3.5-6.9 6 11.7-4.8 23.8-9.3 33.9-16.9-10.1-.1-18.3 6.6-27 10.9zm6.4 9.3c4.3.9 8.2-1.8 10-5.5-.9-.3-2.6-.9-3.4-1.3-3.4-.1-8.5 2.8-6.6 6.8zm176.4 4.6c2.5-1.8 8.4-1.4 8.2-5.4-4.1-1.1-7 1.7-8.2 5.4zm-185.1 1.5c1.6 7.2 3 14.4 4.4 21.6l5.7-5.4c-1.3-5.4-2.5-10.7-3.6-16.1-1.6-.1-4.8-.1-6.5-.1zm48.4 22.6c-5.9 1-10.3 5.2-13.5 10.1 30.8-4.4 59.9-17.4 91.2-19.5-.7-1.7-1.5-3.5-2.2-5.2-25.4 3.9-50.4 9.3-75.5 14.6zm-42-.9c1.1 8.3-1.6 21.3 8 25.2 0-9 .8-19.9-8-25.2zm115.5 6.4c-13 .3-25.2 9.9-38.2 5.2-10.9 8.1-24.1 12.5-37.7 12.5-.9 3.7-1.8 7.5-2.5 11.3 9.5-.1 17.8-5.2 26.7-7.9 19.2-6.3 39.1-9.9 58.5-15.7-2.3-1.9-4.4-3.8-6.8-5.4zM1153.5 986c.3 6 .9 11.9 1.6 17.9l7.5-3c-2.2-5.4-4.9-10.6-9.1-14.9zm146.2 11.5c1.8.5 3.6 1 5.3 1.5.4-1.4 1.4-4.1 1.8-5.4-4-2-6.4-.3-7.1 3.9zm-143 10.7c.5 7.4 1.4 15.4 7.4 20.5.2-5.5.2-11 .1-16.4-2.5-1.4-5-2.8-7.5-4.1zm4.6 22.8c-1 6.6-1.5 13.3-1.9 20 1.9 0 5.7.1 7.6.1-.6-7-1.5-14.2-5.7-20.1z"/><path class="st0" d="M926.5 536.6c3.7-2.1 7.7-3.7 11.7-5.1 1.5-6.6 2.5-13.3 3.4-20 .4-.2.8-.5 1.2-.9 1.6-1.5 3.2-3 5.1-4.1-1.1 8-2.2 15.9-2.8 24 7.7-1.6 15.3-3.7 22.9-5.8-.3 1-1 2.9-1.4 3.9-7.6 2.4-15.5 3.6-23 6-3.9 27.6-10.6 54.7-15.5 82.2-.5 4.4-3.5 7.8-6.4 10.8 4.1-30.7 10.9-61 16.7-91.4-4 .1-8 .4-11.9.4zM955.6 375c-.4-16.1.2-32.1-.2-48.2.2-11.8-10.8-23-24-22.9H578.3v-.1H408.7c-13.2 0-24.2 11.3-23.9 23.2-.2 22 0 44 0 66-.8 10.9 7.4 22.2 19.4 24.2 6.7 1.4 15 1 19.5 6.7 4.7 4.8 3.9 11.7 4.1 17.7-.4 13.3.5 26.6-.7 39.9 2.3 2.8 4.6 5.6 6.8 8.5-.1-.5-.2-1.1-.3-1.6 7.1 6 16.5 8.4 26.1 7.4h63.9v.1c136 0 271.9.1 407.9 0 10.1.1 19.6-6.7 22.6-15.4 8.8-38.5 19.5-76.7 28.7-115.2-9.2 2.8-18.3 6.2-27.2 9.7zM1694.4 399.4c4 2.1 8.3 3.8 11.8 6.7 1.2 9-.2 18.1-.9 27.1-5.1 46.5-15.8 92.2-23.5 138.3-1.3-9.2.4-18.3 2.8-27.1-9.2-4.2-18.9-7.1-27.9-11.6 10.2.4 19.2 5.6 28.7 8.8 0-3.4 0-6.7-.1-10.1-10.5-4.2-20.9-8.8-31.8-12.2-3.9 18.9-4.2 38.3-7.3 57.3-1.4 10.1-2.5 20.2-3.4 30.3-1 10.2.8 20.6-.7 30.8-.9 6.5-2.2 12.8-3.3 19.3l12.6 4.8c4.1-4.2 8.4-8.7 9.2-14.8 5.1-24.8 12.2-50.3 28.4-70.3 7.1-9.2 17.8-14.5 28.9-17.4 37.5-10 78.5-8 114.4 7.1 16 8.3 30.7 22 34.9 40.2 4.2 18.3 6.1 37.3 5.6 56.1 4.2 1.1 8.4 2.3 12.6 3.5 6.2-3.4 12.4-7.5 14.4-14.7 2.7-8.3 10.4-12.9 17-17.9v5a46.4 46.4 0 00-16.5 19.4c5.5 3.5 11.2 6.8 16.5 10.4v2.4c-4.3 2.8-8.9 5.7-11.8 10.1 3.8 4.8 8.1 9.1 11.3 14.3-4.7-2.7-9-6.1-14.1-8.2-5.1.2-9.6 3.2-14.5 4.5 7.2-8.6 17.2-14.6 23.1-24.5-6.9-4.6-15-3.9-22.3-.6 1 3.6 2.1 7.2 3.1 10.8-5-4.1-9.7-9.9-16.6-10.2-6.7-.7-12.7 3-18.2 6.3 2.7 3.2 5.3 6.3 8.1 9.4 4.4 1.4 8.7 2.9 13 4.5-4.1.5-8.3.3-12.2 1.7-1.8 1.9-3.3 4-4.9 6 3.1 2.5 6.2 5 9.2 7.6-7.2-3.4-15.1-4.4-22.6-1.3 5.9-4.5 11.7-9.5 15.3-16.1-10-8.3-22.5-14.8-35.9-13.7-8.4.1-15.8 4.6-22.4 9.4 4 4.2 7.7 8.8 12.3 12.3 4.8 1.7 10.1 2.2 14.8 4.3-8.4 1.1-19-.5-24.9 7.1 2.4 3.6 5.5 6.7 8.5 9.8 6.8.5 13.8 1.3 20 4.3 7.8 4 16.9 2.1 24.7 6-5.7.7-11.6.4-17.2 1.8-5.1 1.7-9.6 4.7-14.4 6.9 2.3-3.5 4.7-6.9 7.1-10.4-5.1-1.9-10.4-4.5-16-3.7-4.2.5-7.4 3.5-10.8 5.8 5.7 4.5 10.8 9.8 13.6 16.6-5.1-3.7-9.3-8.8-15.2-11.3-5.8-.9-11.5 1.4-17.2 2 7.1-6.4 17-8.5 23.1-16.1-3.7-2.6-7.2-6-11.7-7.1-4.1.1-7.9 1.5-11.8 2.5.6 3 1.2 6.1 1.8 9.1-8.2-8.1-16.7-16.8-28.2-19.9-13.1-4.6-27.4-1.7-39.6 4.4 3.3 3.9 6.5 7.9 9.4 12.1-6.6-3.4-12.5-8.4-19.8-10.2-7.6-.9-14.7 3.3-21.8 5.2 3.3-3.1 6.3-7.7 11.3-8.2 7.6-1 15.8.6 22.6-3.7 19.4-11.4 44.7-5.6 60.9 8.9 5.6-1.5 11.3-2.6 16.6-5 4.3-2.5 7.1-6.8 10.4-10.4-5.3-3.8-10.7-8.4-17.4-9.1-8.3-1.1-15.3 4.3-22.5 7.7 1.6-3.3 3.2-6.5 4.7-9.7-10.6-17.2-25.4-33.1-45.3-39.1-14.7-4.9-31.1-1.7-43.8 6.9 6.7 6 12.8 13.6 21.9 15.8 7.7 2 14.9 5.9 19.4 12.7-8.7-3.4-16.9-8.6-26.4-9.5-5.8-.7-11.4 1.6-16.8 3.5 2.2 2.3 4.4 4.6 6.7 6.9-5.3 0-10.6-.5-15.8.6-3.6 2-6.5 5.2-9.5 8 3.8 3.4 7.5 6.8 11.2 10.3-4-2-7.8-4.3-12.1-5.7-4.2.6-8.1 2.4-12.2 3.8.9-2 1.8-4 2.7-6.1 2.9-.4 5.8-.9 8.7-1.3l4.2-11.7c-10.5-1.8-23.5-2.6-30.7 7 2.7 4.3 6.2 8.1 9.3 12.1-5.8-2.7-11.3-6.8-17.8-7.8-3.4.6-6.7 2-9.9 3.2 3.9 7.5 9.5 13.6 15.2 19.7-3.7-1.2-7.4-2.6-11.2-3.2-5.3.3-10 3-15.1 4.4 3.6-5.7 9.6-9.1 15.2-12.4-5-3.3-10.3-6.1-15.9-8.4-2.3 1.5-4.6 3.1-6.8 4.6 0 1.4 0 4.2.1 5.5-2.7-3.1-5.1-6.4-8.3-8.9-3.2-1.2-6.7-1-10-1.5.3 2.8.6 5.5.9 8.3-5.7-4.7-12.8-7.1-19.7-9.5 5-1.3 10.2-.9 15.3-.2 6.5-3.8 13.3-.9 19.9.9 11.7-1 22.9-4.6 34.1-8 4.2-2.8 6.8-7.8 11.8-9.3 3.8-1.3 7.7-2.2 11.6-3.3-24.3-15.3-55.6-17.2-82.6-8.6-18.1 5.4-29.9 21.3-46 30.3-7.1 4.2-15.1 6.2-22.6 9.4 10.8 7.8 26.7 8.9 38.1 2 3.6-1.8 3.8-6 4.9-9.4 4.8 3.8 10 7 15.2 10.1-4.8-.2-9.6-.6-14.4-1-2.3 2.5-4.7 5-7.1 7.6 6.2 4.7 13.1 10.4 21.4 8.9 4.7-.1 6.9-4.7 9.4-7.9 1.5 4.8 3.1 10.3 8 12.6 6.3 2.5 13.2 2.7 19.7 4.3-10.2 5-21.7 1.5-29.2-6.3-11.2 2.7-24.9-2.2-33.8 7 3.7 2.6 7.3 5.3 10.8 8.1-4.2-1.1-8.3-2.7-12.7-3.2-5.8 0-11.3 1.9-17 2.7 8.8-6.6 19.4-10.6 26.8-19-3.2-3.2-6.2-7.8-11.5-6.6-19.7 1.9-41.8-6.2-50.6-25 6.9 4.2 13.8 11.3 22.7 9 8.7-1.8 17.9-5.1 23.8-12-17-8.7-37.7-12.7-56-5.5-7.5 2.5-13.5 7.8-20.2 11.8-1.9-.9-3.7-1.8-5.4-2.8 11.4-10.5 25.9-16.7 41.2-18.9-2.4-4.3-4.9-8.5-7.4-12.8 6-5.7 12.1-11.6 19.6-15.2 7.5-3.7 16-4 24.1-4.9.9-1.2 2.6-3.6 3.4-4.8-2.3-1.2-4.7-2.4-7-3.6 1-1 2.9-3 3.9-4 3.1.7 6.1 1.4 9.2 2.1-1.6-2.1-3.3-4.1-4.9-6.2 1.1-2.2 2.3-4.3 3.4-6.5-10.7 10.5-25.7 19.5-41.2 14.8-17.8-6.1-26-24.4-34.2-39.8 4.1 1.6 8.1 3.3 12.1 4.9 3.5-4.7 7.1-9.3 10.7-13.9.6 9-.7 19.6 5.9 26.7 6.3 3.5 15 4.2 20.5-1 6.7-5.1 7.6-13.9 9.1-21.5 2.5-12.8 9.2-25.4 20.5-32.5 7.4-4.7 16.6-4.1 25-4.7.8.7 2.5 2.2 3.4 2.9 0-1.4 0-4.1-.1-5.5-.9.5-2.8 1.6-3.7 2.1-2.1-7.6-2.1-15.7 1.7-22.8-.8-2-1.7-4-2.6-6 6.7.1 13.6-2.3 20.2-.9 9.4 5.2 1.8 16.6-.9 23.7 2.5 2.8 5.1 5.5 7.6 8.3-1.8.2-5.6.5-7.5.7-1.5-3.7.4-10.8-4.7-11.6-6.5-.9-1.8 12.1 3.7 9.2-3.9.6-7.8.6-11.8.7 1.1 6.4 8.9 6.4 13.7 8.6 12.3 3.5 23.1 10.5 33.9 17.1 6.3-1.1 12.6-2.1 19-2.4-4.9 2-10 3.5-15.1 4.9 7.8 8.7 14.1 18.4 20.2 28.3 1.7-16 2.6-32.1 5.5-47.9 4.7-53.5 15.7-106.3 17.5-160.1-16.4 8.9-32.2 18.9-48.4 28-.9 14.8-4 29.3-5.2 44-2.3 25.3-5.7 50.5-7.4 75.9-.3 4.5-1 8.9-2.3 13.2-.5-9.8 1.1-19.6 1.2-29.4-1.9 1.3-3.7 2.5-5.6 3.8l-1.2-6c1.9.4 5.6 1.2 7.5 1.6.3-16.5 2.7-32.9 3.9-49.4-22.3 1.2-44.7 3.5-66.8 7.1-.1 7.7-.4 15.4-.8 23.1-.7 13.4.8 27.1-2.3 40.4-.8-22.6.1-45.2.5-67.7 23.6-3.4 47.3-6.1 71-8.1 1.6-15.9 2.5-31.8 4.8-47.5 1-10.1 16.7-8.8 16.5-19.5 1.5.9 2.9 1.8 4.3 2.7l8.7-5.1c.1-3 .2-6.1.3-9.1-4.4 2.6-10.1 4.8-9.6 11.2-.9-1.3-1.9-2.5-2.8-3.7 1.5-7.5.1-17.8 8-22 10.6-6.7 22-12 33.1-17.8 8.2 3.8 17.1 6.3 24.9 11 .1 9.2-1.4 18.4-2.1 27.6zm-23.2-25.8c.1 3.2 4.4 3.3 6.3 5 .3-3.2.6-6.5.9-9.7-1.1-.8-3.3-2.5-4.4-3.3-1.1 2.7-2.1 5.3-2.8 8zm-9.3-3.8c-.3 3.4-.6 6.8-.9 10.3l7.5-2.4c.2-3.3.4-6.6.6-10l-7.2 2.1zm19.9-.3c.7 8-.9 16-1.2 24l3.8 1.6c.4-7.3 1.4-14.5 3-21.5-1.9-1.4-3.8-2.7-5.6-4.1zm11 14.8c.1-3.8.1-7.7-.1-11.5-2.7 3.6-4.9 8.7.1 11.5zm-44.4-6.4c-.9 3.1-1.1 6.4-1.5 9.7 3.4-1.6 6.8-3.3 10.2-4.9.1-3 .3-6 .4-9-3.1 1.2-6.4 2.2-9.1 4.2zm22.5 3c-.1 2.7-.1 5.5-.2 8.2 2 .5 3.9 1.1 5.8 1.7.3-3.2.5-6.4.8-9.6-1.6 0-4.8-.2-6.4-.3zm-10.5 3.4c-.1 2.5-.1 5-.1 7.5 5.5-1.4 9-5.8 8.5-11.6-2.8 1.3-5.6 2.7-8.4 4.1zm-24.6 1c-.5 3-.8 6-1 9.1 2.8-1.6 5.9-2.9 8.3-5 .5-3.1.8-6.3.9-9.5-2.7 1.6-5.9 3-8.2 5.4zm54.6 12.7c1.1-3.1 2.2-7.1.3-10-3.6.8-2.7 8.4-.3 10zm-34.1-11.7c-3.1 1.5-6.1 3-9.2 4.5-.3 2.9-.7 5.7-1 8.6 3.5-1.6 7-3.3 10.5-5-.1-2.8-.2-5.4-.3-8.1zm10.4 6.8c-2.4 38.5-6.2 76.9-12.5 114.9.2 2.8-2.3 7.7 1.6 8.8 10.7 3.8 21 8.4 31.3 13.2 1.9-9.1 2.7-18.4 6.2-27-10.9-2.9-22.1-7.2-30.9-14.5 10.8 2.6 20.2 8.8 30.4 12.9.3-4 1.4-8.1.3-12.1-9.4-6.3-21.3-8.3-29.9-16 11.5 2.3 21.1 9.6 32 13.5 1.1-8.8 2.9-17.6 4.5-26.4-11.2-4.7-24.3-7.2-32.8-16.5 11.1 4.4 21.9 9.4 32.5 15 2.7-16 5.1-32.1 5.1-48.4-12.2-6.6-24.9-12.1-37.8-17.4zm-91.3 124.4c1.7 2.5 3.3 5.1 4.9 7.7-3.5-1.2-6.9-2.8-10.2-4.5-2.8 4.5-6.1 8.9-6.9 14.3 1.4 3.5 4.7 5.7 7.3 8.1l4.8-9c2.4-1.5 5.4-.2 8-.3.2-4.8 2.4-10 .1-14.5-1.3-3.1-5.3-1.8-8-1.8zM1532 563c-8.7 11.6-8.6 26.9-14.3 39.9 1.6 2.8 3.3 5.5 4.8 8.3-2.6-1.8-5.1-3.7-7.5-5.5-1.6 1.8-3.3 3.5-4.8 5.4.8 1.9 1.8 3.8 2.8 5.6l-6.9-5.1-8.1 3c-4-2.6-8.2-4.9-11.8-8.1-4.1-3.6-5.3-9.2-7.3-14-2.4 2.4-4.8 4.8-7.2 7.1 4.4 11.4 13.4 22 25.9 24.7 9.5 2.5 18.3-3.1 25.9-7.9 6.4-4.1 10.8-10.5 16.2-15.7 5-1.1 8.4 3.7 9.5 7.9 1.7 9.3-2.5 18.8-9.6 24.7 0 3.4.1 6.8.2 10.1 8.7 1 16.6-4.2 18.2-12.9 1.1 2 2.1 4 3 6.2-2 4-4.9 8.2-9.5 9.6-5.9.9-12 0-17.9 1-6.9 1.1-13.7 9.2-8.1 15.6 8.2 0 16.6-.9 24.1-4.5 9.7-4 17.1-11.5 24.9-18.2.8 2.7.6 5.6-1.8 7.4-8.3 8.7-19.3 14.5-30.7 17.9-.4 3.8-.8 7.6-1.1 11.4-3.4-.3-8.8-2-6.8 3.5 2.5.8 4.6.2 6.3-1.8 10.1-7.1 19.5-15.7 31.3-19.9 19.3-7.1 40.7-7.5 60.7-3.4 4.9-17.8 5.3-37.1-.7-54.6-7.3-17.5-23.5-29.4-40-37.6 6.3 5.9 12.4 12.4 14.5 21 5.6 15.8.7 35.6-13.8 45-6.1 4.9-14.4 5.3-21.8 3.8-5.6-2.3-9.3-7.6-11.6-13 4.7 3.9 8 10.5 14.6 11.4 16.2-.2 29.9-14.9 31.4-30.6 1.6-13-3.6-27.5-15.1-34.5-5.7-2.8-12.6-1.6-18.1-4.8 6.7-1 13.3.5 19.7 1.9-7.9-5.7-17.9-6.2-26.4-10.5-11.2-5.7-25.9.1-33.1 10.2zm191.5.7c-11.9 3-23.9 7.9-31.8 17.7 19.1 1 38.2 1.6 57.4 1.2 2.7 1.9 5 5 8.6 5 19.2 1.5 38.6.7 57.7 3.6 11.2 1.7 22.7 1.4 34 2.2 2.6-.1 5 1 6.9 2.8-33.1-1.7-66.2-3.5-99.3-5.4 2.1 3.9 3.6 8.5 6.9 11.5 21.4 5 43.6 2.4 65.3 5.7 5.9 1.1 12.3.4 17.8 3.1-1.7 8.5-4 17-4.2 25.7 8.4 1.2 16.8 2.7 25.2 4.4-.3-8.9-.7-17.8-1.9-26.6-5.4-1.4-12.6.1-16.8-3.6 5.2-1.8 10.7-.3 16-.1-2.4-9.1-6-18.4-13.1-24.9-7.4-6.6-15-13.7-24.7-16.9-33.5-11.2-69.9-14-104-5.4zm-33.8 21.3l-1.2.5c-4.3 7.2-8.6 14.5-11.3 22.4 13.9.9 27.9 1.5 41.8 1.8 1.8 4.8 3.6 9.7 5.2 14.6 26.7 2.5 53.3 6.1 80.2 7.5.9-7.6 2.1-15.1 4.2-22.4-15.9-2.3-32.1-1.5-47.9-3.8-5.3-6.2-8.9-13.5-13.6-20-19.2-1.8-38.3 1.1-57.4-.6zm-151.2 19.9c3.2 9.2 0 18.5-2.6 27.4 10.2-6 14.6-19.6 8-29.9-1.8.8-3.6 1.6-5.4 2.5zm272.3 5c-1.5 7.8-2.4 15.7-2.5 23.5 10.2.5 20.5 1.3 30.7 2.4 1.4-8.2 3.1-16.2 4.3-24.4-10.9-.2-21.7-.9-32.5-1.5zm-99.4 2.6c-11.9-.6-23.8.4-35.7-.3-3.3 8.4-5.9 17-8.2 25.7 14.6-.5 29.3 2 43.9-.6 13.2-2.1 25.6 3.3 38.2 6 39.6 3.8 79.2 7.5 118.5 13.8 0-4.4 0-8.8-.1-13.2-21.9-4.7-44.3-7.1-66.7-8.9-14.5-2.8-29.4-1.6-43.9-4.3-11.9-2.2-24.4-.3-36-3.9-4-4.1-2.6-14-10-14.3zm-183.7 26.3c1.1 1.7 2.1 3.5 3.2 5.2 2.1-.7 4.1-1.4 6.2-2l.3-7.2c-3.3 1.3-6.5 2.6-9.7 4zm139.2.4c-.8 4.2-1.7 8.4-2.5 12.6 6.7-.8 13.5-.7 20-2.2 3.4-2.7 6-6.2 8.8-9.5-8.8.2-17.6.7-26.3-.9zm-150.2 2.3c-7.8 2.6-16.1 5.2-21.6 11.6 7.2-.6 13.5-4.2 20.3-6.3 0 .8-.1 2.4-.1 3.3-7.7 4.7-16.9 6-25.8 6.6 2.7 4.6 4.6 11 10.6 12.1 10.1 2.3 20.4 4 29.9 8.3 1.9-2.2 3.7-4.3 5.6-6.5-5.9-4.2-15.4-5.5-16.9-13.8 1.8-4.7 4.4-9 6.6-13.5-2.5 1.1-5 2.2-7.4 3.3l-1.2-5.1zm236.1 5c7.8 6.3 13.6 17 24.5 17.8 10.3 1.6 20.7 1.8 30.9 3.8 7.7 1.5 15.1-2.3 22.8-1.9 7.9.4 15.3 3.6 22.8 6.1 4.9-4.7 10.8-7.9 16.5-11.5-25.3-6.1-51.4-8.5-77.2-11-13.5-.4-26.8-3.3-40.3-3.3zm-97.9 15.8c6.4 5.7 12.9 11.5 20.3 15.8 7-5.5 14.3-10.9 22.5-14.4-11.6-11-30.2-10.5-42.8-1.4zm118.4 4.7c2.9 4.7 5.9 9.3 9.3 13.7 5.7-.4 11.5-.4 17.2-.2 2.8-3.3 5.5-6.7 8.2-10.1-11.5-1.9-23.1-3.4-34.7-3.4zM1785.4 385.1c6.1-3.3 7.8-10 9.1-16.2 2.7 2.7 6.2 4.9 7.8 8.4.6 4 .7 8.3-.9 12-2.6 3-5.9 5.3-8.9 7.9 3.4.9 6.8 1.7 10.1 2.5-7.8 7.1-18.1 9.6-28.1 12.2-.2 1.2-.6 3.6-.9 4.8-2-1.9-4-3.9-6.1-5.6l-1.6 4c-6.7-8.1-15.9-14.4-20.8-23.9-.5-4.8.5-9.6.9-14.4 2.1 2.2 4.2 4.5 6.2 6.7 2.5-5.6 4.1-12.3 9.4-15.9 5.7-3.1 13.6-2 17.9 3.1 4 3.9 4.6 9.5 5.9 14.4zm-18.3-17.4c-9.6 5.6-12.4 17.2-12.3 27.5.1 5.3 3.3 11 8.7 12.4 10.6 3.5 21.7-.6 31-5.7-1.7-1.9-3.3-3.8-5-5.7 3.7-3.2 7.8-6 10.6-10 2.6-4.2-1.3-8.3-3.4-11.7-3.7 5.5-6.8 12.3-13.4 14.8-4.6 1.6-8.2-1.9-10.8-5.1 3.1-1.3 6.2-2.5 9.3-3.7-2.7-6.3-7.1-13-14.7-12.8zm13.6 19.8c2.7-1.3 2.7-2.6.1-4-2.7 1.3-2.8 2.6-.1 4zm-28.8-4c-8.3 1.7-3 10.5 1.3 13.5-.3-4.5-.7-9-1.3-13.5z"/><path class="st0" d="M1700.1 419c-9.8-2.8-19-7.4-27.8-12.4-.1-.7-.2-2.2-.3-2.9 9.3 5.4 20.3 7.7 28.1 15.3zM1619.5 428.7c8.6-5.5 17.5-10.7 27.2-14.1-8 6.4-16.9 12.6-27.2 14.1zM1670.8 417.1c10.3 2.5 20.2 7.1 28.5 13.6-9.9-3.4-20.1-7-28.5-13.6zM1618.7 443c1.5-1.9 2.8-4.1 5-5.3 8.5-4.9 16.4-11.1 25.8-14.4-9.3 8-19.7 14.6-30.8 19.7zM1669.2 430.1c10.3 2 20.4 6 28.4 12.9-9.8-3.3-19.7-7.2-28.4-12.9zM1616.8 456.8c2.3-2.7 5.3-4.7 8.6-6 9-3.6 17.3-8.9 26.7-11.4-10.3 8-22.8 13.4-35.3 17.4zM1916.9 445.7v2.6c-6.4 4.3-13.6 8.5-16.8 16-4.2 7.4-3.7 16.1-2.4 24.1 3-5.3 5.1-11.1 8-16.4 2.6-4.8 7.3-7.7 11.2-11.3v4.7c-4.8 5.4-11 10.3-12.3 17.7-1.4 5.9.7 11.7 2.2 17.4l10.2.3v4.3c-1.7-2.1-7.1-.7-4.8 2.4 1.4 1.3 3 2.3 4.8 3v7c-2.4 1.8-4.9 3.7-7.3 5.5 1.9 2.5 3.8 5.1 5.7 7.6-3.1-1-6.1-2-9.2-3-1.8 1.9-3.6 3.8-5.2 5.8 4.4 5.8 10.1 10.4 14.5 16.2-6.6-3-12.4-7.6-18-12.2.2 4.2.2 8.5 1 12.7 5 5.8 12 9.5 18.5 13.3v6.4c-3.2.7-3.2 1.9 0 3.5v2.5c-6.8 3.3-11.7 9.2-17.4 14-1.7-6.1-3.3-12.3-4.7-18.4-2.7-1.8-5.4-3.6-8.2-5.4 1.3-9.2 2.4-19.4-2.4-27.8 1.3-2.3 2.6-4.5 3.8-6.7-1.6-2.8-3.3-5.5-4.6-8.4 1-1.2 2.9-3.7 3.8-5 .2 2 .6 6.1.9 8.1l5.7.9-.3-6.3c-.8-.5-2.4-1.6-3.3-2.1 7.3-10.6 4.6-24.1 2.2-35.8-2-9 1.7-18.2 6.4-25.7 4-6.6 11.8-8.4 18-11.5zm-18.2 54.4c-.2 4.2-1.1 8.5 0 12.7 2.2 3.8 5.2 7 7.9 10.3 2.5-2.9 5-5.8 7.4-8.7-4-5.9-8.6-11.5-15.3-14.3zm-.4 21c-.4 3.6-.4 7.2-.5 10.7 2.7-2 5.1-4.5 7.3-7-2.2-1.1-4-3.6-6.8-3.7zm-11.1 16.4c2.1 1.4 4.1 2.8 6.2 4.1l.6-9.3c-2.3 1.8-4.5 3.5-6.8 5.2zm1.4 10.2c1.8 2.1 3.7 4.1 5.7 6 .1-1.7.3-5 .4-6.6-1.5.1-4.5.4-6.1.6zm9.4 8.2c.3 9.4 1.4 18.7 3.2 27.9 5.2-5.4 9.4-11.6 13.6-17.7-5.5-3.4-11.1-6.8-16.8-10.2zm-5.2 3.2c-4.4.5-2.2 8.8 1.8 6.8 1.7-1.9 1-6.2-1.8-6.8zM1615 474.2c1.8-2.2 3.6-4.5 6.5-5.3 9.6-3.6 18.5-9.1 28.6-11.7-10.4 7.8-22.8 12.8-35.1 17zM1667.1 459.3c10.5 2.3 20.8 7.1 29.1 13.9-10.3-3-20.3-7.6-29.1-13.9zM1612.7 487.2c11.2-5.7 22.7-11.1 34.9-13.9-10.7 6.4-22.2 12.8-34.9 13.9zM1603 492c-1.1-.6-3.3-1.9-4.4-2.5.6-2.5 2.1-4.7 3.4-6.9.4 3.1.8 6.2 1 9.4zM1586 483.9c3.3 2.3 3.8 6.2 4.9 9.8-6.6.5-4.8-5.7-4.9-9.8zM1556.8 486.6c4.2 1.5 6.6 6.8 2 9.4-.8-3.1-1.5-6.2-2-9.4zM1638.1 493.8c-9.2 3.7-18.1 8.8-28.2 9.4 4-3.2 8.8-4.8 13.6-6.5 7.9-2.8 15.3-6.7 23.6-8.6-2.3 2.8-5.6 4.4-9 5.7zM1547.7 494.6c-3.8-.5-3-8 1.1-6 3.2 1.1 2.8 6.9-1.1 6zM1598.6 500.2c2.4 3.2 2.4 7.3 2 11.1-4.2-2.3-2.7-7.2-2-11.1zM1585.7 510.5c-2.1-3.2-.2-6.7 1-9.8.6 2.8 4.1 9.8-1 9.8zM1809.3 529.2c3.5-9.3 8.6-18 13.8-26.4-1.6 10.1-7.1 19-13.8 26.4zM1658.8 503c10.7.4 20.3 6.6 29.4 11.9-10.5-2.1-20.1-6.9-29.4-11.9zM1574.3 502.4c2.2 2.9 2.6 6.3.9 9.7-2.9-2.7-1.7-6.4-.9-9.7zM1557.8 502.2c3.8 2.7 3.6 7.3 3 11.6-2.7-3.3-3.2-7.5-3-11.6zM1610.2 517.6c4.7-4.4 11.2-5.2 17.1-7.2 6.3-1.9 12.4-5.2 19.2-5.2-11.1 6.5-23.8 10.1-36.3 12.4zM1550.4 512.8c-6.4.8-2.6-6.6.5-8.5 0 2.8-.2 5.7-.5 8.5zM1558.5 518.2c1.6 3.9 3.3 8.6-1.3 11 .2-3.7.7-7.4 1.3-11zM697 522.5l-5.4-.9-.6.3 6 .6zM1217.3 523.6c-3.6-1.7 2.5-4.2 4.2-3.1-.1.7-.2 2.2-.3 2.9-.9.1-2.9.2-3.9.2zM1609.3 534c8.3-7.6 20.4-9.5 31.3-11-9.4 5.9-20.8 7.3-31.3 11zM1547.7 530.8c-4.5-.3-2.4-8.8 1.6-6.6 1.9 1.8 1.5 6.3-1.6 6.6zM1449.2 608.6c.5 4.2.6 8.5-4 10.1.5-2.8 1.1-5.7 1.7-8.5-13.8 9.2-31.8 6.8-46.2.1-4.7-3.8-7.6-9.2-10.9-14 12.9 4.3 26.4 9.1 40.2 6.8 7.3-1 15-5.2 17.4-12.6 2.4-8.5-1.8-17.2-7.2-23.7-13.7-16.6-32.8-27.4-51.9-36.4-3.3-.9-.9-4.6-1.2-6.8 23.9 9 48.5 21.3 63 43.3 8.5 12.2 9.2 30-.9 41.7zM1708 528.7c4.3 2.3 7.2 6.3 9.2 10.7-4.4-2.2-7.4-6.1-9.2-10.7z"/><path class="st0" d="M1917 540.8c-3.6-.2-3.6-5.4 0-5.6v5.6zM1855 535.3c-2.1 5.2-5.5 9.7-10.6 12.3 2.5-4.9 6.3-8.9 10.6-12.3zM1610.8 546.2c8.3-6.2 19.2-7.4 29.1-9.1-8.8 5.3-19.1 7.2-29.1 9.1zM960.4 535.8c4.1 2.3 7.7 5.5 10 9.7-4.8-1.3-8.9-4.6-10-9.7zM1414.5 572.9c-1.2 4.5-.4 10.6-4.9 13.3-4.6 2-9.7.3-14.4 0 1.9 2.3 3.7 4.5 5.5 6.8-7.7-2.2-17-3.7-21.2-11.4-3.5-6.1-9-11.6-10.7-18.4 4.1-7.9 9.2-15.2 13.3-23.1 19.8 11.2 43.2 24.7 48 48.9-4.9-5.8-9.8-11.4-15.6-16.1zM951.9 539.9c4.3 2.2 7.8 5.5 11 9-4.7-1.6-9.5-3.8-11-9zM1203.8 551.6c-1.5-1.6-6.9-4.3-3.1-6.5 8.9 4.5 18.3 7.7 28.4 8.6-8.3 2.5-17.9 3.1-25.3-2.1zM947.3 549.8c-3.3-.7-1.9-6.1 1.3-4.8 3.4.6 2 6-1.3 4.8zM1657.6 547.5c7.9 1.3 15.3 4.5 21.9 9.1-7.8-1.6-15.7-3.9-21.9-9.1zM952 558.5c-1.1 10.2-2.8 20.2-4.2 30.4 3.8-.5 7.6-.9 11.4-1.3-4.3 3.5-9.7 5-15.2 5.3 2.7-12.2 4.7-24.6 6.3-37.1 8.3-1.8 16.8-3.7 25.3-3.9-6.3 6-15.8 4.5-23.6 6.6zM1614.5 562c-.6-.5-1.9-1.4-2.5-1.9 8.4-1.4 16.3-6.8 25-4.8-7.1 3.4-14.9 5.2-22.5 6.7zM721.2 558c3 .8 6.1 1.5 9.2 2.1-1.2-.9-2.1-2-2.8-3.2-2.1-.6-4.4 0-6.4 1.1zM1657.1 561.3c6 1 12.7 2 16.8 7-6-1.1-11.8-3.4-16.8-7zM1745.4 574.6c-8.1-.1-16.4 2.3-24.4-.3 20.5-3 41.3-2.8 62-1.9 6.9.4 14.3-.2 20.5 3.4-19.3.9-38.7-1.2-58.1-1.2zM1588.1 609.2c1.3-4.2 3.1-8.2 4-12.5.8-9-4.8-16.6-8.1-24.4 10.1 9 14.7 26.6 4.1 36.9z"/><path class="st0" d="M951.4 584.2c-3.4-2 .7-6.5 3.4-4.4 3.5 1.9-.6 6.5-3.4 4.4zM1544.9 594.4c-1.4-2.6-2.9-5.3-4.3-7.9 2.4 1.3 4.8 2.7 7.2 4 2.1-1.9 4.2-3.8 6.4-5.7-1.1 4.8-4.8 7.9-9.3 9.6zM1613.1 608.9c-.2-3.7.1-7.4 1.8-10.7.8 3.7 1 7.6-1.8 10.7zM1466.2 635.3c5.6 1.3 11.9.5 16.4 4.7-7.5.2-17.3-2.5-22.5 4.6 1.7 5.8 4.8 11.1 7.8 16.3-5.3-2.9-11.1-4.8-17.1-5.6-.1-.4-.3-1.3-.4-1.7 3.2-.3 6.4-.3 9.6-.4-.7-2.5-1.5-5.1-2.3-7.7l-5.7-3c4.5-1.3 8.8-3.3 11.4-7.4-5.7-1-11.5-.9-17.3-.3.4-2.7.8-5.5 1.2-8.2-6.7-.9-13.3-.4-19.9.6 2.5-2.4 3.4-9.7 8-7.5 10.8 4.2 20.4 10.7 30.8 15.6zM1415.4 628.7c-2.4-2.5-4.8-5.1-7.1-7.6l9 .6c-.7 2.2-1.3 4.6-1.9 7z"/><path class="st0" d="M1448.3 652.7c-9.8 5.6-19.5 11.4-28.2 18.6-1.5-2.1-3.1-4.2-4.6-6.3 8.5-4.1 18.1-5.4 25.9-10.9-3.3-3.1-6.7-6.1-9.9-9.3 5.3-.6 10.7-.8 16 0 .3 2.7.5 5.3.8 7.9zM1917 701v4.2c-5.1 2.5-11 4-14.9 8.4-5.2 5.5-5.7 13.8-4.6 21 2.6 9.2 11.9 13.5 19.5 18v5.1c-6.5-3.7-13.7-6.7-18.2-12.8-5-6-4.9-14.1-6.1-21.3-6 4.8-11.6 10.9-12.8 18.9-3.3 13.2 6.9 26.4 19.3 30 5.8 2 11.9.4 17.8-.5v4.8c-8.8.5-17.7.3-26.2-2.4-.9 1.4-1.8 2.8-2.8 4.3-2.4-6.3-5.4-12.3-8.3-18.3-4.9-9.8-2.8-21.8 1.8-31.2 4.9-6.4 12.7-9.8 17.2-16.7 4.1-6.8 11.4-9.4 18.3-11.5zM1442.9 716.6c7.3 1.1 14.1 4.2 21.1 6.3 6.6.7 13.1 1.7 19.7 1.9 8.3-1 18.5-4.4 24.4 3.8-5.8-.3-11.7-2.1-17.5-1.1-5.8 1.4-7.8 7.7-10.3 12.3 4.8 1.6 9.5 3.6 13.2 7.2-7.3-2-15.2-3.7-21.6 1.5-.5-.8-1.3-2.5-1.8-3.3 2.9-2.2 6.8-3.5 8.9-6.5.6-3.5.7-7 1-10.4-5.6 0-11.5-1-16.8 1.4-5.8 2.8-8.3 9-11.3 14.3 6.6 2.5 13.2 5.7 17.4 11.7-6.9-2.6-13.8-5.7-21.4-5.5-2.7 3-5.3 5.9-8 8.9 4.4 3.9 8.9 8.2 9.3 14.5-6-4.2-11.1-9.4-16.8-14 4.2-4.7 8.6-9.2 13.5-13 2.6-1.9 2.5-5.4 3.6-8.1 1.4-5.5 5.3-10 8.3-14.7-6.8-.4-13.6-.4-20.3-.1.5-7.4.3-17.1 8.7-20.1-.9 4.3-2.1 8.7-3.3 13zM1192.6 732.5c-20.4 4.2-41.5 2.5-61.7-2.3-.2-1.5-.5-4.5-.7-6 17.7 5 36.7 7.7 54.7 3 8.4-2.1 15.5-7.6 23.7-10.1 3.4-1.8 5.9 1.7 8.5 3.2-7 6-15.4 10.3-24.5 12.2zM1691.3 728.3c9.2 1.4 18.3 2.4 27.6 2.8-1.1 1.8-2.2 3.6-3.4 5.4-11.4.1-22.5-3.2-33.9-2.8-7.1.2-14.3.6-21.4.4-2.2-3.5-4.7-6.7-7.5-9.7.1 4 .6 8 .3 12-1.9 5.4-5.3 10.1-7.7 15.3-11.8 25-16.1 52.5-22.5 79.2-2.7 11-4.8 22.2-6.7 33.3 12.3 13.5 15 32.3 15.6 49.9 2.1 1.6 4.1 3.4 6.4 4.7 7-1.8 14.5-4 21.6-1.1 4.8 2.6 9.7 6.8 9.8 12.7-4.6-2.8-8.5-6.8-13.3-9.3-5.2-1.8-10.7-.5-15.9.1 1 3 1.8 6 3.3 8.8 3.4 3.3 8 5.2 10.8 9.1-4.4-1.4-8.6-3-12.9-4.7-2.7 1.3-5.5 2.5-8.2 3.8 2.2-3.1 4.5-6.1 6.8-9.1-2.7-3.8-5.3-7.8-9.1-10.5-3.9-1.1-8-1.4-11.9-2.1 3.3-1.9 6.9-3.3 10.5-4.5-.8-15.4-4.2-31.5-14.4-43.4-9-10.4-23.1-18-37.2-14.9-7.5 1.4-12.8 7.4-17.8 12.8 3.8 4.9 9.8 9.2 9 16.2 4.9 2.1 9.4 5.1 14.6 6.3 10.3-1 11.5-13.3 19.9-17.5-2.4 4.9-5.5 9.4-8.6 13.8 1.6 4.1 3.1 8.2 4.4 12.4-2.4-3-4.8-6.2-7.1-9.3-6.8 3.4-9.9 10.3-14.2 16.1.8-3.8 1.8-7.5 2.9-11.2-4.9-5.3-14.1-7.8-19-1.1 1.1 4.9 4.4 9 6.3 13.6-4.2-3.1-7.8-7.2-12.6-9.4-4-.5-8-.2-12.1-.3 4-4.5 10.2-3.3 15.3-5 3.1-2.7 6-5.8 8.6-9.1-.3-5.1-5.2-8.1-8.9-10.7-7.3-3.7-14.8 1.3-21.5 3.7 2.2-4.5 6.1-7.7 10.5-9.9.5-4.5.9-9.1 1.4-13.6-5.7-2.6-12.1-5.1-18.3-2.8-6.8 2.4-10.5 9-14.7 14.3 3.4 2.2 6.9 4.5 10.1 6.9-8.7-1.9-17.3-1.3-24.9 3.5 2.5-5.3 7.7-7.9 12.9-9.9 2.7-7 6.3-14.8 13.9-17.5 7.3-3.5 15.2-.7 22.4 1.4.6-7.1 4.2-16-2.1-21.6-4.7-5-10.1-13.5-4.6-19.7 4.7 3.3 8 8 11.6 12.3.3 1.4.9 4.2 1.3 5.6-6.1-2.3-6.4-10.2-12.1-13.1 1.5 8.1 6.3 14.9 13 19.5 2-.7 3.9-1.5 5.9-2.1 4.3 2.5 9.2 3.8 14.2 4.3-.6.9-1.7 2.6-2.2 3.5-4.8-1.7-9.6-3.4-14.5-4.5 2.6 6.8 10.9 6.5 15.3 11.4-7-.5-13.3-3.6-19-7.6-1.9 10.4-4.6 20.7-6.1 31.1 6.6.1 9.3-6.3 13.3-10.2 4-4.8 10.3-6.2 15.9-8.2 2.3-13.1 4.2-26.4 8.2-39.1 7.7-2.3 15.1-6.1 19.6-13-7.7-5.3-15.6.8-22.3 4.7-5.7-2.3-11.2-5.1-16.5-8.2 1.2-5.6 2.4-11.2 2.7-16.9-5.6 3.9-8.2 10.2-9.2 16.8-2.3-1.5-4.6-3-7-4.5-3.5 1.8-7.4 2.1-11.3 2.7 1.1 2.5 2.1 5.3 3.4 7.7 5 4 12.5 4.4 16.4 9.9 1 5.4-.8 10.9-3.6 15.5-1.2-1.1-2.4-2.3-3.6-3.4 2.3-3.7 3.5-7.9 3.8-12.3-11.5-5.7-24.3-9.6-33.5-19 9.5-3.3 19.6-3.4 29.4-1.7 1-.4 2.9-1.3 3.8-1.7.5-6 4.6-10.5 8.9-14.3 1.3 1.1 3.8 3.3 5.1 4.5 1.7-1.7 3.3-3.4 5.1-5 .8 2.6 1.6 5.2 2.3 7.8 2.3-1.4 4.6-2.7 7-4.1.4 2.6.8 5.2 1.2 7.9 2.8-1 5.7-2.1 8.5-3.1-1.3 3.6-2.6 7.2-4 10.7 5.3.9 13.9-.6 15.7 6.2 0 10.8-12.1 13.1-19 18.2-3.1 10.9-4.6 22.2-6.8 33.3 8.8 1.9 17.2 5.3 25.3 9.1 4.1-21.9 10.5-43.2 16.2-64.7 4.5-17.1 11.1-33.6 18.5-49.7 3.9-7.7 2.4-16.6 3-24.8 7.7.3 12.7 6.2 18.2 10.5 8.3 1.5 16.9-1 25.4.2zm-117.8 64c3.8 1.6 7.6 3.9 11.8 4 4.3-2.8 6.8-7.5 9.6-11.7-1.8-.1-5.4-.4-7.2-.5V779c-2.2.4-4.3.9-6.5 1.2-.6-1.4-1.8-4.2-2.5-5.6-3.9 5-4.5 11.5-5.2 17.7zM1773.6 799.1c10.4-8.5 12.6-23 22.6-31.8 5.9-6.2 16.6-10.4 23.3-2.9-1.6 3.2-4.3 6.2-4.5 9.9 0 10.4 8.1 19.4 6.5 30-2.1 14.5-11.4 26.5-21 37-7 7.8-17.6 10.3-26.3 15.4-1.1 6.1-.3 12.3-.5 18.5-3.3-2-7.1-4.6-6.6-9 .7-35.9 1.6-73.1-10.2-107.5-4.4-7.4-1.5-15.8-1.1-23.8-2.6 2.8-5.1 5.8-7.6 8.7-9.8-2.7-19.8-5.2-30-5 .5-1.6 1.6-4.8 2.1-6.4 9 0 17.9 3.2 27 3.3 2.9-2.8 5.8-5.7 8.8-8.4 8.8 5.7 5.7 16.4 6.2 25 3.8 15.8 8.2 31.2 11.3 47zm14.7-7.9c-2.8 6.5-8 11.4-13.7 15.4-.3 13.6.9 27.2.3 40.8 18.7-6.3 33.8-21.9 38.5-41.1-6.6.6-14.4 2.2-19.3-3.5 2.5.3 7.4 1 9.9 1.3-3.3-5.6-8.1-9.9-13.2-13.8 2.8.7 5.6 1.5 8.4 2.3 3.3-9.2 9.5-17.1 11.6-26.8-10.7 4.9-17.6 15-22.5 25.4zm15.4-3c.1 3.3-.1 6.7.6 10 1.9 4.2 6.8 5.3 10.6 6.9.6-7.5-.9-14.9-4-21.8-2.4 1.6-4.8 3.2-7.2 4.9z"/><path class="st0" d="M1716.4 745.4l1.6 3.6c12.9.4 18.5 16.7 14.9 27.4-3.7 4.8-9.9 7.6-11.6 13.8-2.8 8-11.1 14.4-19.8 13.3-10.4.4-21.2-3.2-27.9-11.5-4.1-4.3-6.3-11.4-2.8-16.6 2.7-.5 5.5-.9 8.3-1-2 1.8-4.1 3.5-6.1 5.3 2.4 2 5.2 3.6 7.2 6.1 3.2 2.5-4.1 6.1-5.6 3.3 6.3 8.3 16.8 11.2 26.8 11.8-4.4-5.6-10.6-9.9-18-9.9-.3-2.6-.5-5.1-.8-7.6l-3.6-6.8c7.2 2.4 14.9 3.4 21.9 6.5 6-.6 12.1-.5 18.1-1.6 3.6-3.2 2.6-8.6 3.3-12.9-2.8-1.2-5.6-2.4-8.4-3.7 5.2-2.6 11.2-.9 16.7-2-4.9-7.8-14.8-4.1-21.3-.7.7-2 1.5-4 2.4-5.9 4.3-2 9.3-1.7 13.8-2.5-6.2-2.6-13.4-2.4-19.1-6.3 3.6-.3 7.2-.7 10.3-2.6l-7.5-3.3c5.1-.2 10.1.9 14.6 3.2-1.7.2-5.5.4-7.4.6zm7.5 22.4c0 3.8 0 7.7.1 11.6 5.5-2.3 6.9-7.9 7.9-13.1-2.7.5-5.4 1-8 1.5zm-38.3 18.8c2.9 0 5.8-.4 8.5-1.4-2.7-2.9-10.2-5.3-8.5 1.4zm25.7 5.1c2.2-1.8 2.9-4.7 4.1-7.1-4.1-.3-10.6 4.6-4.1 7.1zM1185.5 746.6c-8.5 3.6-17.6 5.8-26.7 7.6-3.7 2-5.7-5.2-2.3-6.2 9-3.2 18.4-5.3 27.8-7.6.3 1.6.9 4.7 1.2 6.2zM1668.6 751.3c3.3-2.2 7.2-7.5 10.4-2.5-2.8 2.3-5.7 4.7-9.2 5.6-4.7-1.1-8.4-6-6.2-10.7 1.7 2.6 3.4 5.1 5 7.6zM1534.7 757.5c-9.2-.1-19.9-2.3-27.5 4.2-3.7 2.2-3.1 7-3.8 10.6 3.8 2.5 7.4 5.5 10.5 8.9-6.1-1.4-11.8-4.2-17.9-5.4-5.6.7-10.8 3-16.3 4.3 2.4-7.9 11.6-8.8 18.5-9.9 2.4-5.3 4.8-10.6 7-16-7.5-1.9-14.9-.1-21.2 4.3.3-1.4.8-4.1 1-5.5 2.8-1.8 5.5-3.7 8.4-5.2 4.6.8 8.9 2.5 13.2 4 9 4 21-3.8 28.1 5.7zM1748.8 758c-1.1 3.8-4.4 6.3-8.3 5-5.6-.4-4.3-7.7-4.9-11.6 1.6 2.5 2.8 5.3 3.8 8.1 3.1-.5 6.3-1 9.4-1.5zM1678.5 759.1c-4.1-.9-1.3-6.9 2-5.3 4.8.8 1.5 7.8-2 5.3zM1646.8 770.6c2.2-3 5.3-5 8.7-6.2-.6 4.6-4.5 6.2-8.7 6.2z"/><path class="st0" d="M1699.6 771.5c-3.1-2 .5-6.9 3.3-4.7 3.1 2-.4 6.8-3.3 4.7zM1650.2 777.7c-2-3.3 1.8-6.1 4.8-4.7 2.3 3.4-1.6 6.4-4.8 4.7zM1909.8 783.4c-1.2 2.9-2.4 5.8-3.7 8.7 3.6.8 7.3 1.7 10.9 2.8v5.4l-10.8-6c-1.4 3.2-2.7 6.4-4.2 9.6-.9.2-2.6.7-3.4.9 3 7 4.9 14.4 6.7 21.8 3.9-1.5 7.8-3 11.7-4.7v4.7c-6.6 4.7-14.5 9-17.4 17 4.1 7.3 10.9 12.4 17.4 17.4v4.2c-3.2-1.5-6.4-2.9-9.6-4.2-4.4 2.4-9 4.6-13.6 6.6 3-4.7 6.7-8.9 10.7-12.8-5.1-3.4-10.7-8.8-17.3-6.3-5.2 2.6-9.2 6.8-13.9 10.2 1.4-3.9 2-8.4 5.3-11.2 4.7-3.9 11-4.5 16.7-5.6 2.3-3.9 4.7-7.8 7.1-11.7-3.3-15.6-8.1-30.8-12.7-46.1.8-1.5 2.3-4.6 3.1-6.2 4.2 3.5 8.3 7 12.3 10.5 1.2-1.2 3.5-3.7 4.7-5zm-15.7.7c1.1 5.8 2.3 11.7 4.9 17 2.8-2.1 4.7-5.3 4.8-8.8-2.6-3.4-6.3-5.8-9.7-8.2zM1749.9 780.3c2.8-1.7 7.9 1.7 6.9 4.9-2.7 1.1-7.9-1.7-6.9-4.9zM1650.2 787.4c-4-.4.3-5.4 2.3-3.9 6-.2 1.8 8-2.3 3.9zM1746.3 789.5c-3.5-.2-.1-6 2.1-4 5.7.2 2 7.8-2.1 4zM1743.7 792.7c2.9 1.3 5.8 2.7 8 5.1-3.4-.3-9-.1-8-5.1z"/><path class="st0" d="M1917 800.6v8.4c-3.2.7-3.2 1.9 0 3.5v4.7c-5.1-2.8-10-5.9-14.9-8.8 1.1-1 2.2-2.1 3.3-3.1l7.5 4.5c1.4-3.1 2.8-6.1 4.1-9.2zM1572.7 802.4c4.1 1.7 8.2 3.5 12.1 5.8-4.9.1-9.5-1.4-12.1-5.8zM1709.3 814.1c3 2.8 8.5 1.8 12.2 4.1 3.9 5.3 6.5 11.6 7.2 18.1-2 6.9-9.2 13.2-6.1 20.8 2.8 7.7 3.2 17.2-2.6 23.6-10.2 2.7-17.9 10-27 14.8-15.3 5.6-35.6 2.8-45.9-10.8 8.7 3.3 16.7 10.3 26.5 9 10.8-.5 20-6.7 28.3-13.2 5.6-5 15.7-2.9 19.1-10.4 2.7-17-21.4-29.2-34.4-18.9-7.1 5.4-16.6 7.6-25.1 3.9-6.6-2.9-15-6.2-16.8-14 9.1 5.3 18.5 13 29.8 9.7 8.3-3.3 16-8.3 25.1-9.2-1.4-6.9-4.2-13.7-3.7-20.8 1.9-3.5 7-3.1 9.2-6.1-7.7-1.1-15.5-1.8-22.2-6.3 6.8.4 13.6 2 20.5 2 6.7 0 12.2-4.4 18.3-6.6-2.9 5-8.6 6.7-12.4 10.3zm-10.4 14.2c2.9 9.7 14.4 12 23.1 13.3 2.8-5.2 5.8-11.9 1.4-17.1-4.6-10.4-24.9-8.8-24.5 3.8zm1.6 9.7c4.2 7 12.5 9.1 18.5 14 .6-3.1 1.2-6.2 1.9-9.2-1.7.3-5 1-6.7 1.3-4-3-8.7-5.1-13.7-6.1zM1477.7 826.7c.9 3.9.6 7.9-.2 11.9 3.3-.2 6.5-.4 9.7-.5-.6 5.7-.9 11.7-4.3 16.5-3-7.8-11-12.9-11.7-21.7-.8-.1-2.5-.2-3.3-.3-2-2.1-4.1-4.1-6.1-6.2 1.8-1.2 3.7-2.3 5.6-3.5 1.5 3 1.4 6.4 2 9.7 2.8-1.9 5.6-3.9 8.3-5.9zM1804.6 889.9c3.7-2.7 8.1-2.9 12.5-2.2-1.1 6.2-3 12.3-3.2 18.7.5 5.3 3.2 10.2 3.3 15.6-.1 5.6-1.5 11.2-2.8 16.7.8.7 2.4 2 3.3 2.6-3.4 1.3-6.9 2.5-10.3 3.8 2.2 2.2 4.4 4.5 6.6 6.7-3.1-1-6.3-2.1-9.4-3.1.9 6.5 2.6 12.8 3.4 19.3.5 5.3-2.9 9.8-5 14.4 7.7 6.4 13.2 17.2 24.5 17.3 4.9-6.1 9.8-12.7 17-16.3 7.9-4 17-4.2 25.7-4.9 2-15.6 7.2-30.5 12.4-45.2 2.9-8.8 8.9-16.4 11.5-25.3-.1-6.9-2-13.6-3-20.4 9.1 2.1 17.8 5.7 26 10.2v9.2c-6.8-4.9-13.1-11.9-22.3-11.7 2.2 5.4 5.2 10.6 6.5 16.4-3.3 7.2-8.8 13.1-12.1 20.2-7.7 14.7-10.2 31.1-15.2 46.7 14.9.9 29.7 4.5 43.1 11.1v4.8c-20-9.4-43.2-15.4-65.1-9.4-8.7 2.3-15.5 8.6-21.2 15.3 2.2 2.1 4.3 4.3 6.4 6.4-5.8.7-10.4-3.3-15.9-4.3-3.8-.7-7.1 2-10.2 3.7-.8-.7-1.7-1.5-2.6-2.2.9-1.3 2.7-3.8 3.7-5.2-15.3-20.5-43.8-32-68.8-25.2-9.3 3.2-16.5 10.2-23.3 17 3.6 2.7 6.9 5.8 11.2 7.5 8.8.3 16.8-4 24.9-6.5-3.4 3.4-7.4 6.3-10.3 10.3-1 5.1.4 10.2 1.2 15.3 1.8.1 5.3.3 7.1.4-4.7 4.3-8.9 9.1-12.9 14.1 1.2-4.6 2.7-9.2 3.2-14-.5-6.4-2.7-12.4-4.5-18.5-5.5 2.8-10.4 6.6-14.6 11.1 3.4 2.2 6.8 4.3 10.3 6.4-4.7 0-9.4 0-14.1.1-3.8 4.3-7.7 8.4-12.4 11.7 4.5-10.2 14.3-16.7 18.5-27-4.6-4.9-11.3-8-18-7.4-4.6 1-8.3 4-12.3 6.3 2.6 3.7 5.2 7.3 7.7 11.1-8.8-4.4-16.8-12.8-27.3-11.4-7.3.4-12.3 6.3-16.9 11.3 5.1 3.6 10 7.6 13.5 12.9-6.3-2.6-11.9-6.7-18.5-8.5-7.4-1.5-13.4 4.2-19.8 6.8 3-3.7 5.5-8.6 10.3-10.1 4.1-.9 8.3-.8 12.5-1 3.2-5 7-9.5 9.8-14.7 1.2-4 1.2-8.3 2.3-12.4 1.7-3.3 4.4-5.8 6.2-9 1.6-5.5 1.3-11.4 1.7-17.1 2.8-2.4 5.4-5 8.7-6.7 4.1-1 8.3 0 12.3.4-6 1.6-13.5 1.2-17.6 6.6-3.1 5.3-2.1 11.7-2.7 17.6 2.7.1 5.4.3 8.2.4-.1.9-.3 2.7-.4 3.7-3.4-.1-6.8-.1-10.2-.2-4.6 4.3-5.9 10.3-6.3 16.4 8-.3 16.1.4 23.8 2.6 3.3-2.8 6.3-6 10.1-8.2 4.1-1 8.4-.6 12.6-.8 2-3.4 4-6.8 6-10.1-5.8-8.4-10.2-17.9-10-28.3-1.7.7-3.5 1.5-5.2 2.2-7.1-8.9-16.1-18.1-16.3-30.2-.5-5 5.3-6.2 8.5-8.6 3.7 7.8 8.3 15.1 14 21.5.8-4.4-.5-9.7 3-13.1 5.8-6.8 13.9-11 21.8-14.9 2.3-7 5.3-13.7 9.5-19.7 4.7-6.8 6.1-15.2 8.5-22.9 8 6.1 13.3 14.9 20.8 21.7 7.3 5.3 18.5 7.9 26.6 2.2zm-45.3-12.7c-.8 5.7-.4 12-4.2 16.7-5.7 7.2-8.5 16.9-5.9 25.9 1.8 2 3.9 3.7 5.9 5.7-1 .4-2.9 1.3-3.9 1.7 6 8.7 11.9 18.5 22 22.9 4.3 1.6 10.1 3.5 13.3-.9 2.1 1.7 4.9 3.7 7.3 1.4 10-6.1 15.8-17.3 17.7-28.6 1.2-5.4-1.7-10.5-2.1-15.8.2-4.5.9-8.9 1.3-13.3-4.1 1.3-8 3.1-11.8 5.2-7.7-1.7-15.3-3.9-22.8-6.1-4.4-6.2-10.4-10.9-16.8-14.8zm-42.5 66.6c-1 .4-3.1 1.3-4.2 1.7-6.7-7.2-9.4-16.7-14.1-25-3.3-.6-4 3.4-5.1 5.7 3.2 9.4 9.3 17.7 16.6 24.3 1-2.7 2.8-4.2 5.3-4.7.5.3 1.4.9 1.8 1.2-.1 11.1 3.8 21.7 8.3 31.7 7.5-5.3 15.9-8.9 24.2-12.7-4.2-2.6-9-3.4-13.7-4.1-3-5.9-7.1-11.1-10.9-16.4 5.8 3 8.3 9.3 13.2 13.2 7.1 2 12.6 8.1 20.2 8.5-7.1-8-18.9-13.6-20.1-25.4-1.2-6.2 5.2-9.3 9.4-12.2-2.2-3.8-4.6-7.5-7.2-11 .6-1.2 1.9-3.7 2.6-5-14 3.4-23.6 16.2-26.3 30.2zm27.8-9c-1.6 2.4-3.5 4.6-4.4 7.3 3 10.7 13.2 16.7 21.3 23.1.6-1.4 1.9-4.1 2.6-5.5-1.6-2.8-3.3-5.6-4.9-8.4 3.9 2 8.7 9.8 12.4 3.7-8.3-4.6-14.7-11.7-20.5-19.1-1.6-.2-4.8-.8-6.5-1.1zm52.8 18.6c-3.6 1.5-8.4 2.2-8.5 7.1-7.7-2.3-15.8-2-23.3 1v5.9c8.9 1.9 17.6 4.9 26.2 7.9 4.8 1.8 10.2-2.8 10.3-7.6 1-5.3-2.2-9.9-4.7-14.3z"/><path class="st0" d="M1901.6 905.5c-1-3.3.1-4.4 3.3-3.3 1 3.2-.1 4.3-3.3 3.3zM1652.9 902.5c6.4 1.5 15.6.1 19.2 6.9-6.8-.7-13.8-2.5-19.2-6.9zM1784.3 914.9c-.9-2.8 0-3.8 2.8-2.8.9 2.7 0 3.7-2.8 2.8zM1759.2 920.7c7.5-2.6 15.1.8 18.6 7.7-6.2-2.7-12.4-5.1-18.6-7.7zM1917 933.1c-.9-.9-2.6-2.7-3.5-3.6-.7 4.3-1.3 8.6-2.1 12.9-2.3-6-1.7-12.2 1.5-17.7 1 1.1 3 3.2 4.1 4.3v4.1zM1790.6 945.9c-1.5.2-4.6.7-6.1.9.3-3.9-1.1-8.7 2.5-11.5 5-.4 9.9.5 14.9.7-4.1 3-8 6.2-11.3 9.9zM1888.5 953.2c-3.4-1.6.1-9.4 3.7-7.2 1.2 2.7-1.2 6.1-3.7 7.2zM1648.1 966.1c-4.2 4-8.6 7.9-13.6 10.9-10.8 7-23.9 9.7-34 17.9-5.3 4.3-13.2 5.5-16.9 11.5-.6 1.3-1.9 3.8-2.6 5.1-.6-.2-1.7-.5-2.3-.6.7-2 2.3-5.9 3-7.8-5.2-1.1-10.3-2.8-14.6-6.2 4.2.7 8.2 2.2 12.5 2.2 9.4-1.5 16.8-7.8 24.7-12.5 10.3-6.6 21.9-10.7 32.5-16.7-.8-1.5-2.5-4.5-3.3-6 2.4 1.3 4.9 2.6 7.4 3.7 1.1-1.4 2.1-2.9 3.1-4.3-3.3 0-9.7-6.8-10.6-.3-5.7-6.2-14.7-1.3-21.5-.1-.7-1.3-1.5-2.6-2.2-3.9 1.5-.1 4.6-.2 6.1-.3-2.5-3.8-6.4-4.8-10.7-3.9.7 2.5 1.5 5 2.1 7.5-5 1.4-10.2 2.5-15.2 3.9-2 4.4-3.4 9.1-6.3 13-2.5 3.3-8.7 4.1-10.4-.4-4.8-7 4.2-13.1 8.5-17.6-13.2-4.2-27.1-4.3-40.8-2.3.5-1 1.5-3 2-4.1 14.4-3.5 29.3-.1 43.2 4.1 1.8-.5 5.3-1.6 7-2.1-1.8 2.5-3.7 5-5.4 7.5 5.4-1.1 12.1-1.1 14.9-6.8-1.7-.1-5-.2-6.7-.3-1-1-2-2.1-3-3.2 5.6 1.9 11.6.8 16.1-3 2 2.6 3.9 5.2 5.8 7.7 10.8-1.5 23.8-2.2 31.2 7.4zm-72.1 6c-.4 2.8.7 5.5 1.2 8.2 2.7-.8 6.1-.2 8.2-2.5 3-4 1.6-9.1 1.3-13.6-3.8 2.2-8.4 3.9-10.7 7.9zM1891.4 957.1c.7-2.9 1.9-5.9 5.6-5 .9 3.8-1.5 7.9-5.6 5z"/><path class="st0" d="M1557.3 962.7c2.6.2 5.2.5 7.8.8.7 6-8.8 5-7.8-.8zM1550.3 977.9c-3.4-.8-2.1-6.6 1.4-5.4 3.5.7 2.1 6.6-1.4 5.4zM1563 981c1.8.1 5.2.3 7 .4-3.2 1.8-6.9 2.1-10.5 2 .6-6.4 5.9-10 12.1-9.5-2.9 2.4-5.8 4.7-8.6 7.1zM1623.1 1000.8c-2.4 1.2-4.8 2.5-7.2 3.7 1.8-3.1 3.5-6.4 4.6-9.9-6.4 6-13.9 12.1-23.3 11.1 8.5-2.6 16.9-6.3 22.2-13.8 1.3 3 2.5 6 3.7 8.9zM1891.5 1019c10-.7 19.3 3.9 25.5 11.5v5.2c-6-5.2-13.6-9.9-21.9-8.6-6.6 1.4-10.9 7.5-13 13.5-2.5 7.8-.1 16 .2 23.9-3.3-5.6-5.2-11.9-6.3-18.3-5.2.2-10.2 1.6-14.9 3.8-3.6-.8-7.3-1.7-10.9-2.6 1.1-.9 3.3-2.8 4.4-3.8-2.7-3-5.2-6.4-8.6-8.8-4.2-1.6-8.8-1.6-13.1-2.4 6.2-2 12.6-1.6 18.8-.3 1.7-6.1 3.3-12.3 4.7-18.5 1.5-2.3 3.1-4.6 4.6-6.9-2.8.5-5.6 1.1-8.3 1.6 6.7-4.6 12.5-11.1 20.4-13.2 7.5-1.7 13.3 3.8 18.2 8.6 0 5.2.1 10.2.2 15.3zm-23.6-16c-7.3 8.9-9.7 20.5-13.3 31.2-2.2 4.6 1.8 8.6 3.7 12.5 2.5-6.6 2.7-15.1 9-19.5 4.9-1 9.6 2.4 14.2 3.7 2.9-6.7 7.2-13.3 6.8-20.9-.7-9.2-14.5-15.1-20.4-7zm2.1 27.6c-4.7 2.4-5.1 8.4-7.1 12.7 4.7-.1 9.4-.2 14.2-.2 1.2-2.7 2.3-5.4 3.5-8.1-3.4-1.7-6.5-6.6-10.6-4.4zM818.8 1000.5c5 .6 9.9 1.3 14.9 1.8-2.8-2.2-5.8-4.2-8.7-6.3 6.8.2 13.2 2.6 19.4 5-7.6 5.8-18.6 6.7-25.6-.5zM1545.1 1002.8c-2.2-2.3 1.4-7.2 4-4.7 2.1 2.3-1.4 7-4 4.7z"/><path class="st0" d="M1596.4 1009c9.9 1.1 19.9-1.7 29.9-.3-5.9 2.2-12.3 1.7-18.6 1.6 2.9 4.8 7.7 11.5 2.3 16.6-4.4.4-8.2-2.8-12.4-3.7-7.4.6-14.7 2.1-22.1 2.8-.9 3.2-1.8 6.4-2.8 9.6 5.3 1 11.5 1.5 15 6.3 3.1 3.9 8.8 7.1 13.5 3.9 11.5-6.8 24.6-11.8 38.1-10.5 6.3.9 12.4-.5 18-3.5-6.1 4.6-6.7 12.4-10.9 18.3 0-3.7.5-7.4 1.1-11.1-11.4-3-23.8-1.4-34.1 4.3-7.8 3.8-13.3 11-21.5 14.2 1.4-3.5 2.9-6.9 4.4-10.4-5.8.5-11.4 2-16.9 4 2.9-2.7 5.9-5.4 8.9-8.2-4.8-3.4-10.3-5.5-16.2-5.8-1.8 4.3-3.7 8.7-5.9 12.9-2.4-8.6 5-16.3 6.3-24.6-2.6-1.8-5.2-3.7-7.7-5.5 11.4 2 23 1 34.1-2.2 2.1 1.7 4.1 3.6 6.3 5.1 1.7-.5 5.1-1.6 6.7-2.1-2.3-2.7-4.2-6-7.1-8-5.4-2.4-11.4-1.1-17-.6l.6-1c1.5-2.4 2.9-4.9 5.7-5.9l2.3 3.8zM1795.1 1010.7c-6.7-1.9-13.1 3.3-15.8 9-1.5 12.2 5.6 27.8 18.5 30.2 4.4-8.1-4.3-12.6-10.6-14.8 3.7-.5 7.5-.9 11.2-1.2 1 3.1 2 6.1 3.1 9.2 5 .7 10.1 1.5 14.7 3.9-4.3.6-8.6.7-12.8 1.8-3.7 1.3-7.1 4.8-11.2 4-7.7-3.8-11.6-11.9-15.5-19.2-4.1-.1-8.4-.4-12.1 1.8-1.3.2-3.8.8-5 1 3.1-7.2 10.3-7.4 16.9-6.9.8-6.5.7-13.9 5.8-18.7 6-6.5 15.7-3.6 23.3-2.8 5.2 3.4 9.9 8.3 12.1 14.3-7.9-3.4-14-10.3-22.6-11.6zM1571.9 1013.4c-3-2.1.6-6.8 3.4-4.5 3.1 2-.5 6.8-3.4 4.5zM1868.6 1011.7c4.4-.2 7.8 2 6.8 6.9-3-1.4-5.4-3.8-6.8-6.9zM1753.4 1045.4c-4.8.4-9.2 2.1-13.8 3.2 2.3-7.8 11-7.1 17.1-9.5 4.4 2.7 9.2 5.4 11.2 10.4-4.8-1.3-9.5-3.4-14.5-4.1zM1739 1049.3c4.6 3.2 9.1 6.6 13.2 10.5-6.5-.9-12.4-3.8-18.7-5.4-5.1 0-9 4-13.4 6.1 1.6-3.2 3.3-6.3 5-9.3-3.3-2.9-6.9-6.7-11.8-6.1-5 1.1-9.7 3.5-14.6 5.1 4.2-10.7 18.8-10.9 26.2-3.7 3.9 3.3 9.2 4.6 14.1 2.8zM1895 1046.8c-2.1 1-4.2 1.9-6.3 2.9 2.8-6.3 9.4-6.8 15.4-5.4-2.8 1.5-6 2.1-9.1 2.5zM-213 657.7c2.7-3.4 4.7-3 5.9 1.1-2.7 3.5-4.7 3.1-5.9-1.1zM-326.5 737.4c1.6-4.4 8.6-1.3 6.7 2.9-1.6 4.5-8.7 1.3-6.7-2.9zM139.1 647.5c-32 18.5-63.7 37.8-94.6 58.1-12.6-13.2-24.7-26.6-37.3-39.7l.8 6.8c10 9.7 20.2 19.2 29.7 29.4 27 28.8 55.3 56.3 81.7 85.7 4.7 5.1 9.7 9.9 15.4 14-8.8-12.4-20.1-22.9-29.6-34.7 3.5-.2 6.9-.5 10.4-.7-1.1-2.1-3.2-6.4-4.2-8.5-1.9 2.3-5.7 6.8-7.6 9.1-16.2-20-34.9-37.6-52-56.6 28.5-19.9 57.9-38.5 88.4-55.3 7.5 9.3 15.2 18.4 23 27.5 13.7 15.8 25 33.9 41.5 47.1-20.7-28.3-43.4-55.1-65.6-82.2zM28.1 847l.8 6.7c5.3-9 10.8-17.8 15.3-27.3-6.7 5.8-11.6 13.1-16.1 20.6z"/><path class="st0" d="M376.1 834.1c-1.1-7.6-2.2-15.2-3.2-22.7-12.8-1.2-25.8-2.6-38.5.2-12.7 2.6-23.3 10.5-34.2 17.2-2.2-.6-6.5-1.9-8.7-2.6l5.1-11.1c-2.2-.3-6.5-.9-8.6-1.1-3 3.8-6.2 7.6-9.2 11.4 0-4.1 0-8.2.1-12.3-3.5-1.6-6.9-3.1-10.3-4.7 23.1 2.7 50.2-.8 64.6-21.3 16-24.5 8.4-54.7 3.6-81.3-3.4 5.9-6.7 11.7-10.1 17.6-8.8-2.3-17.6-4.5-26.3-6.7 7.9 11.5 19.6 23.3 18.4 38.4-4.3 10.3-14.3 19.5-26.1 18.4-13.1.2-22.6-9.8-31.8-17.6-15.3-13.3-35.5-22.3-56.1-20.1-13.6 1.3-24.2 10.9-35 18.2-.3 1.7-1 5.1-1.3 6.8l-5.2-6.8c1.6-.3 4.9-.7 6.6-1-4.8-11.3-12.4-21.2-23.9-26.2-.9-3.3-1.7-6.5-2.5-9.8-8.1 6.6-18.8 10.2-25.5 18.2-6.5 15.3 13.6 22 23.7 28.1-.4 5.8-.9 11.6-1.4 17.4 2.4-1.6 7.3-4.8 9.8-6.4-1.7-6-10.8-12.8-5.4-18.6 6-6.1 11.7 7.4 7.7 12.8 4-2.6 7.8-5.6 11.7-8.5 4.9 8.9-4.7 16.3-8.5 23.6-11.6 16.1-18.1 35-25.1 53.4-8.8 4.7-17.5 9.5-25.6 15.3 7.9-2.3 15.6-5.3 23.2-8.5-1.2 18 .4 36 2.5 54-17.6-18-34-36.8-52.8-53.4-18.3-19.6-37.4-38.5-56.6-57.2l.6 4.9c.6.6 1.2 1.1 1.8 1.7 2.5 3.6 10.2 7.2 6.4 12.3-1.9 3-3.7 6.1-5.6 9.2l.8 7.1c3.2-5.3 6.4-10.4 9.9-15.5C58.1 826.2 77 849.6 99 870c11.3 11 22.4 22.3 33.2 33.8 11 11.6 18.8 25.9 30.3 37 7.3 7 15 13.5 22.5 20.4l-10.8 18c-9-1.1-18.6-2.5-25.4-9.3-30-25.5-63.1-49.7-102.1-58.8-3.7-.9-7.5-1.5-11.3-1.7l1 8.5c3.9.1 7.7.6 11.6 1.5-3.5 3-6.9 6-10.4 9l.8 6.8c5.3-4.2 10.5-8.5 15.5-13.2l2-.6c12.2 4.6 24.4 9.5 35.3 16.5-15.6 14-31.6 27.6-47.8 40.9l1.2 9.9c1.6 4.8 3.2 9.5 4.9 14.3-1 .9-1.9 1.8-2.9 2.8l.8 6.8c2.8-2.9 5.4-6 7.7-9.3 1-8.7-10.2-19.5-1.4-27 14-12.1 29.4-22.3 43.3-34.6 12.1 7 23.5 15.1 34.7 23.5-18.4 13.4-33.9 30.6-54.2 41.3-11.6 6.4-19.9 16.3-27.7 26.6l1.4 12c1.9-3.8 4.1-7.4 6.6-10.9 13.2-20.1 36.4-31.9 60.1-33.4-2.5 13.8-2.7 28.8-11.7 40.4-7.5 9.8-12.5 21.5-11.6 34.1 7.4-12.5 12.4-26.8 23.2-36.9 6.5-6.4 15.5-8.9 23.9-11.7-.5 4.9-1 9.9-1.5 14.8 6.4-5 12.5-10.7 19.8-14.4 6.4-1 12.9.1 19.3.7-1.4 7.8-2.7 15.5-3.8 23.3 3-6.2 5.4-12.8 9.3-18.5 5.7-3.3 12.3-4.8 18.5-7-3.1-1.6-6.1-3.2-9.1-4.8-4 2.2-7.9 4.5-11.8 6.8-5.5-3.4-10.9-6.8-16.3-10.3 11.1-12.3 26.2-25.7 44.1-20.8.8 7.9.2 15.8.3 23.7 4.5-8.9 7.3-19.1 14.3-26.6 4.8-2.6 10.1-3.9 15.2-5.6 2.4 12.8 1.4 25.8.3 38.7 3.4-5 6.6-10.2 10.7-14.7 6.7-4.7 15.2-5.9 22.6-9-9.9-3.5-20.4-1.9-30.5-.6 2.9-8.9 6.7-17.4 11.4-25.4 4.3-.3 8.5-.6 12.8-.9l5.2 6.8c.3-6.3.1-12.8 1.7-18.9 2.7-4.5 7.2-7.7 10.8-11.4 2.3 3.7 4.6 7.3 6.8 11 2.5-11.3 8.8-21 15.1-30.5-7.4 3.3-13.4 8.6-18.8 14.4-11.6 1.7-17.1 11.7-23.4 20.1-15.3 9.9-32.4 16.4-49.3 22.8-7.8.6-15.8-3-23.4-.1-5.9 2-11.5 4.6-17.3 7 15-42 51.5-74.3 92.8-89.6 27.3-10.7 57-2.6 85.2-7 12.6-1.6 24.4-6.9 36.6-10.2-5.8 19.8-24.1 36.4-44.7 39-6.1 1.3-10.5-3.7-15-6.8-2.2 9.2-5.5 18.1-8.9 27 5.7-4.9 11.2-9.9 16.7-15.1 5.3.8 10.6 1.7 15.9 2.5-3.1 11.6-6 25.2-17.6 31.4-5.9 4.3-12.9.8-19.1-.6 2.7 7.3 6.1 15.5 2.3 23.1-5.2 9.1-13.5 15.8-20 24.1 17.2-3.7 27.9-18.9 29.7-35.8 16.4-7.4 28.4-26.5 48-23.9-2 6.7-3.8 13.4-5.5 20.2 4.1-5.4 7.6-11.3 12.4-16 7.1-5.5 15.6-8.5 23.3-12.9-17.1.4-33.8 5.6-50.9 2.5.8-6.9.1-15.5 7.7-19 25.9-16.5 45.2-47.5 37.9-79-4.4 11.8-6 27-19.1 32.7-12.3 6.2-26.8 11-40.6 8.1 12.4-26.9 34-51.6 63.2-60.3 11.6-4.1 24-3.3 35.9-5 1.4-2.8 2.7-5.7 3.9-8.7-24.2-2.1-48 4.3-68.7 16.1zm-216.7-77.4c-4.9-2.1-9.6-4.4-14.5-6.4-4.3.5-6.8 4.9-10.1 7.3-4.8-5.6-12.6-9.9-14-17.6-1.2-5.3 4.8-7.4 8.1-10 .4 4.7.8 9.4 1.3 14.1 3.1-4.9 5.7-10 8.1-15.2 7.7 2.9 16 5.1 22.2 10.9 1.7 5.6-.3 11.3-1.1 16.9zm-57.1 235.9c10.9-8.1 22.2-16 31.3-26.3 5 4.3 10.1 8.7 15.1 13-9 5.4-17.1 12-26.6 16.4-6.7 0-13.2-1.8-19.8-3.1zm58.5 29.2c-13.9 0-27.8.4-41.3 3.9 3.6-24.6 26.9-41.7 50.9-42.7-2.4 13.1-4.7 26.3-9.6 38.8zm142.6-189.4c.4 3.1.8 6.2 1.2 9.4-3.2 1.1-6.4 2.3-9.5 3.4-2.4-2.8-4.9-5.6-7.3-8.4 5.2-1.4 10.4-2.9 15.6-4.4zm-16.2 0c-18.3 2.4-36.6-10-38.5-28.9 3-.7 6-1.4 9.1-2.1 4.8 14.3 17.8 22.6 29.4 31zm38.8 61.2c-19.2 1-38.8-.5-57.3 5.7-30.3 9.8-57 29.8-77.4 53.9-23-17-41.9-40.3-51.4-67.5-7.7-28.4.5-58.4 12.9-84.2-2.1 13.2-3.3 27.1 2.4 39.6 8.4 24.7 33.3 44.2 59.9 41.8 12.2.2 22.6-7.4 30.2-16.2 4.7-8.1 4.1-18.1 1.8-26.9-2 9.3.2 20.5-6.9 27.9-20.1 15.3-50.8 10.5-67.7-7.3-14.4-14.3-22-37.1-14.7-56.7 4.3-8.9 13.8-14 17.6-23.2-9.2 5.1-15.7 13.3-22.3 21.2 4.2-14.5 15.9-24.7 22.2-38.1 8.4-18.2 31.9-25.2 50.3-19.7 21.8 5.9 36.3 24.6 55.7 35.1.6 4.9 1.3 9.9 2.1 14.8 1.4-4.6 2.7-9.3 4-13.9 3.7.6 7.4 1.1 11 2 .9 3.1 1.4 6.3 2 9.5 1.1-4.3 2.3-8.6 3.5-12.8 4.2-1.4 8.5-2.8 12.7-4.1 2.4-7 5.3-13.9 6.7-21.2 1.6-8.3-2.3-16.3-4.6-24.1l15.6 1.8c5.5 18.2 4.7 39.8-8 54.9-9.2 12.1-25.3 13.7-39.3 15.2-11.8 1.2-23.2-2.5-34.8-3.6-7.1 3.4-6.7 12.6-4 18.8 6.8 13 21 20.6 35.4 21 3.2 4.2 6.3 8.4 9.4 12.6-9.6 9.6-24.3 10.8-34.7 1.7.7 3.5 1.3 7 2.2 10.4 6.3 2.9 13.9 5.3 20.8 2.7 8.1-4.6 14.6-11.5 22.9-15.9 9.6-5.2 25.6-1.8 24.8 11.3-10 7.9-21.1 14.8-33.8 17.6-15.6 4.4-31.9 2.3-47.8 1.6 1.7 4 4.6 7.4 9.4 7.3 18.5 2.8 37.4-.7 54.7-7.5 4.1 4.3 8.2 8.6 12.2 12.9 3.8-3.6 8.8-10.8 11.7-2.2-2.1 3.3-5.3 4.6-9.4 3.8zm39.8-50.9c-10.2 12.5-21.1 24.4-28.6 38.8-4.3-.9-8.7-1.7-13-2.6 3.1-10.8 13.6-21.4 7.3-33.1-6.7-4-14-6.8-21-10.2 4.1-1.1 8.2-2.1 12.3-3.1-1.1-2.4-2.3-4.8-3.4-7.2 12-4.3 24.6-9.1 37.6-6.5-9.4 6.2-20.5 7.9-30.8 11.7.8 1 2.4 2.9 3.3 3.9 14-1.7 26.4-8.9 37.8-16.6 1 8.1 4.8 17.9-1.5 24.9z"/><path class="st0" d="M31.4 875.5l.6 5.5 18.6 16.8c-4.9-8.7-11.7-15.9-19.2-22.3zM10.5 695l.4 3.6c3.1-1 6.1-2.1 9.2-3.2-3.2-.7-6.4-.7-9.6-.4zM13.7 722.7c8.6-2.2 17.1-4.9 25.3-7.8-4.3-1-8.8-2.1-13-.3-4.2 1.3-8.5 2.4-12.9 3.5l.6 4.6zM3.8 742.6c-1.9.8-3.7 1.6-5.5 2.4 1.9-.2 3.8-.5 5.7-.8l-.2-1.6zM16 742.4c13.5-2.5 26.8-6.3 38.3-13.8-13 2.5-26.2 5.4-38.8 9.7l.5 4.1zM62.8 712.7c3.8 1.4 7.7 2.6 10.8 5.2-.7 1.8-2.2 5.5-3 7.3-2.6-4.1-5.2-8.3-7.8-12.5zM87.2 715.5c-2.1-5.3-5.2-10.7-3.4-16.6 3.8 5.2 11.9 11 3.4 16.6zM128.7 687.8c-8.1 1.1-10.2-7.6-6.6-13.5 2.4 4.5 4.5 9 6.6 13.5zM50.1 750.5c-10.6 3.5-21.6 5.8-32 9.9l.3 2.7c3.8-.1 7.5-1 11.1-2.1 14.8-4.3 30.5-6.6 43.4-15.5-7.9-.1-15.4 2.5-22.8 5zM133.9 669.1c3.1-6.3 11.1 2 7 6.3-3.9 4.9-10-1.8-7-6.3zM92.1 746.5c-4.1-4.4-8-9.2-8.1-15.5 4.5 4.1 11.1 8.6 8.1 15.5zM99 720.3c4.4 2.7 10.2 5.1 10.6 11.1-6.1 4.7-8.7-7.2-10.6-11.1zM124 723.1c-5.2-2.5-7.9-7.1-8.1-12.7 4.1 3.2 9.1 6.7 8.1 12.7zM143.2 711.4c-4.7-4.6-9.4-10-7.4-17 4.2 4.8 7.5 10.4 7.4 17zM30.3 782.9c8.2-6.5 18.8-8.2 28.4-12 9.1-3.2 17.9-8.4 27.8-7.5-17.5 9.1-36.4 16.9-56.2 19.5zM146.2 690.3c5.6-.6 17.4 4.8 8.8 9.9-3.1-3.1-6-6.4-8.8-9.9zM162.4 726.7c-8 1.6-10.4-5.9-12.2-12.1 4.3 3.8 8.4 7.8 12.2 12.1zM54.4 799.1c14.7-8.5 31.4-17.8 48.8-16.5-16.3 5.4-31.5 14.7-48.8 16.5zM167.2 713.1c2.8-6.5 13.4 1.9 8.3 6.6-4 2.5-8.9-2.5-8.3-6.6zM68.8 815.8c13.7-7.6 28.2-16.5 44.3-16.8-14.1 7.1-28.5 14.7-44.3 16.8zM39 877.4c3.7-11.9 9.7-22.9 18.1-32.1-2.6 12.3-9.9 22.7-18.1 32.1zM89.9 835.2c8.7-10.8 23.5-11.8 35.1-18.2l-1.2 4.8c-10.9 5.4-22 10.7-33.9 13.4zM57.1 886.4c.3-10.1 7.4-17.7 13.9-24.7-2.6 9.2-7.6 17.5-13.9 24.7zM170.9 805.2c3.4 12.8 3.9 27.4 13.5 37.6 5.2 4.4 11.2 7.6 16.8 11.4-22.8-2.5-34-28.4-30.3-49zM219.3 791.9c4.4.2 8.8.5 13.2.9 1.6-4 3.2-7.9 4.9-11.8.8 4.6 1.6 9.2 2.3 13.7-7 2.3-14.4 2-20.4-2.8zM157.9 866.3c5.2 2.5 9.2 6.7 12.5 11.4-6.4-1-9.9-5.9-12.5-11.4z"/><path fill="none" d="M-28.3-109.8h2.4v5.6h-2.4z"/><g><path class="st0" d="M472.2 623.2c-3.6-2.7-2.9-7.8 2-7.9 13.5.1 27.9-2.2 40.5 3.9-1.4 3.8-3.6 7.7-2.9 12 8 6.7 15.5 14.1 23.1 21.3 5.8 5.6 13 10.2 16.5 17.8 4.1 8.7 7.7 18.1 7.6 27.8.5 17.8 2.4 35.6.7 53.4.4 3.3-2.9 3.8-5.4 3.6-.8-17.6 1-35.5-.8-53.2-1.5-13.4-4-28.6-15.4-37.3-10.6-7.7-21.9-15.3-28.6-27-1-.4-2.9-1.2-3.8-1.6-8.9 1.4-17.7-1.7-26.5-1.7 4.4 2.4 10 1.8 13.6 5.5-6-.1-12-.8-17.7-2.8-2.6 1.9-5.3 3.7-8 5.5 2.1 1.5 3.3 3.6 3.6 6.1-.9-.9-2.6-2.6-3.4-3.5-9.8-.9-22.2 2.4-25.2 13.1-9.3 26.2-15.8 53.4-19.6 81 2.3-2.1 4.9-3.9 7.7-5.3-2.2 3.2-4.8 6-7.5 8.8-.3 1.9-.9 5.6-1.2 7.5 5.7-5.1 9.4-12.5 16.2-16.3-4.8 9.6-17.1 14.8-17.3 26.5 9.5-9.7 17.1-21.4 28.2-29.6-4.3 7.2-11.2 12.3-16.3 18.8-3.5 4.4-7.4 8.5-11.1 12.9.1 6.6 1.5 13.1 2.3 19.6 12.4-16.5 25.9-32.3 39.4-48-11.8 17.6-26.4 33-39 50 .7 2.9 1.5 5.7 2.2 8.6.6-.3 1.9-.9 2.5-1.2 3.1-6.2 7.2-11.9 11.7-17.2 9.2-11 18.5-21.9 28.1-32.4-7.5 12.1-18 21.9-26.4 33.4-5.6 6.4-9.5 14.1-15.1 20.5 1.5 1.2 4.6 3.5 6.2 4.7 13.5-17.3 28.2-33.6 41.4-51.2-2.2 8-8.9 13.5-13.5 20.1-8.2 11-17.6 20.9-25.7 32 8.8 6 18.7 10.7 29.2 12.4 7.1-1.2 13.3-7.4 20.9-5.5 4.4 1.7 7.4 5.8 11.5 8.1 9.3-.2 18-4.3 26.7-7.3 6.3-2.1 12.4-4.9 18-8.6 4.3-13.3 10.6-26.6 10.3-40.8 2.4-1.2 4.8-2.5 7.1-3.9-.9 14.2-3.8 28-8.2 41.5-1.2 10-11.8 13.8-19.6 17.7-11.6 4.6-23.4 12.1-36.4 9.5-5.3-.9-8.5-5.7-13.1-8-6.1-.2-11.4 4.4-17.5 4-13.6-2.3-26.1-8.4-37.8-15.6-2.8-1.8-5.4-4.2-6.3-7.6-3.8-12.3-7-25-7.2-37.9 1.6-31.1 7.6-61.8 16.8-91.5 2.5-8.7 4.5-18.6 11.8-24.7 7.4-6.1 17.8-4.6 25.9-8.9 3.3-3 3.6-7.4 4.8-11.1zm7.9-1.8l-2 3.9c1.5-.4 4.5-1.3 6-1.7-2.2 2.6-4.2 5.3-5.9 8.3 4.1-1.9 6.8-5.6 10.1-8.4-1.3 2.4-3.9 7.2-5.1 9.6 3.7-2.9 7-6.3 10.6-9.3-1.5 3-3.7 5.6-5.8 8.2h5.3c1-1.4 2-2.7 3.1-4-.2 1.3-.7 3.9-1 5.1 2.6-.1 7.7-.2 10.3-.3.1-3.5.2-7 .2-10.5-8.7.2-17.2-1.8-25.8-.9zM679 634.6c-4.4-4-2.9-11.2 1.1-14.9 3.7-.4 7.5-.3 11 1.2 9.1 3.6 18.3 6.6 27.3 10.4 4.2 1.9 8.9 4.5 9.7 9.5 1.5 5.4 1.6 13.4 9.1 13.6.5-3.7.7-7.4 1.5-11 3.6-2.6 8.2-2.7 12.4-3.2 13.7-.9 27.3-4.3 41.1-3.6-.1 5.3-1 10.5-2.4 15.6 8.9 10.1 15.4 21.9 23.6 32.6-4.6 25.7-12.7 50.7-15.5 76.7-2.3.3-4.5.6-6.8 1 2.8-12.4 5.3-24.9 8.5-37.2-.8-1.3-1.6-2.6-2.5-3.9-.3 5.3-4.9 8.3-9 10.7-3.8 9.8-8.9 21.6-19.7 25.2-4 .8-10.8 1.2-11.8-4 1.5-3.7 4.2 1.7 6 2.5 9.4 1.5 16.2-7 18.8-15-2.4.1-4.6.6-6.7 1.6-.2 1.8-.2 3.6-.7 5.3-1.6-3.5-6-7-9.2-3-2 2.7-4.8 2.3-7.2.3-.7 2.3-1.5 4.7-2.4 6.9-.7-3.7-1.3-7.3-2-11-1.9-.2-3.7-.5-5.6-.7-.7-3-1.5-5.9-2.3-8.9 2.3-1.5 4.7-3.1 6.9-4.7l-.8-4.8 1.8 1.4c6.1-9.3 13.6-17.6 19.2-27.3-3.3.7-6.6 1.5-9.8 2.4-1.7 3-3.3 6.1-5.7 8.6 1.4-3 2.9-5.9 4.6-8.8l-5.7.9.7 2.7-1.6-.1c-.2-1.9-.3-3.8-.5-5.7 18-.4 34.9-8.1 52.3-11.9-7.8-9.6-13.8-20.5-21.1-30.5-14.6 1.9-29.2 3.5-43.7 5.9 1.8 7.8 2.1 16 4.8 23.7 1.7 4.6 2.7 9.4 3.4 14.3 1.4.7 2.7 1.5 4 2.3-7.2 1.3-5.5 9.9-6.6 15.1-1.1 2.8 2.8 3 4.3 1.3-1.8 2-3.2 4.3-5.7 5.6-6.8 22.7-9.1 46.6-14.8 69.6 17.8-6.7 35.1-14.7 52.8-21.8 4.7-1.3 8.4-8 13.6-5.2-3.4 9.3-13.8 10.9-21.8 14.4-15.5 4.8-30.4 11.3-45.9 16.1-15.4-11.5-32.3-21.1-47.2-33.2.1-4.5 1.5-8.8 2.3-13.3l1.6 1.4c-.3-2.2-.6-4.5.1-6.7 3.3-13.6 7.8-27.1 9.1-41.1 1-8.3 3.1-16.5 4-24.8.7-4-2.9-7.2-2.9-11.2 3.9-6 10.7-9.2 16.2-13.6-7.8-11.7-23.9-9.7-34.2-17.7zm1.2-10.1c.3 2.9.7 5.9 1.4 8.7l2.8-6.8c.1 1.5.3 4.6.4 6.2 7.8 3.1 15.9 5 23.8 7.9 1.8-1.8 3.6-3.6 5.6-5.1-.9 1.9-2.7 5.8-3.5 7.8 2.6-4.9 11.6.4 6.2 4.5 2.7-2.2 5.3-4.4 7.9-6.6-2-1.5-5.2-2.4-5-5.6l-1.2 3c-1-1.4-1.9-2.9-2.8-4.4l-.5 2.1c-3.5-4-8.7-5.3-13.5-7-7.2-2.3-14-6.3-21.6-4.7zm93.9 17.2c-1.1 2.5-2.2 5.1-3.8 7.4.9-2.9 1.9-5.8 3.1-8.7-7 .2-8.4 7.9-12.8 11.9 1.8-3.9 4.3-7.5 6.4-11.2-6.5.3-8.3 6.4-10.9 11.1l-1.3-.2c1.9-3.2 3.7-6.3 5.5-9.5l-7.2 1.5c-1.3 4.3-3.3 8.3-5.4 12.3 12.7-2.2 25.6-3.1 38.2-5.7.4-2.4 1.3-7.1 1.7-9.5l-3 2.4.4-4.8c-4 2.1-6.1 6.1-9.2 9.1 1.4-2.5 2.8-5 4.4-7.4-1.6.3-4.6.9-6.1 1.3zM741.3 658c8-.9 8.6-10.2 12-15.8-1.4.9-4.2 2.7-5.7 3.6l-2.3-2.7c-3 4.3-3.5 9.7-4 14.9zm-22.9-2.1c.9 4.3-1.8 13.2 5.7 12.2l-.2 2.4c-5.2-.4-10.7-.4-15.2-3.5 2 0 5.9.1 7.9.1-.6-3.5-1.1-7-1.5-10.4-4.7 2.8-9.4 5.8-13.5 9.4h7.6c-.6.8-1.8 2.3-2.4 3.1l3.6-1.1-1.2 2.7c1.8.7 5.5 2.3 7.3 3-2.3 0-4.6-.1-6.9-.3-2.5-2.8-6-4.3-9.4-5.7 2 2.8 4.4 5.3 6.6 7.8l-3.2.4c-1.9 20.2-6.7 40-9.9 60.1-1.4 8.1-3.9 16-5.7 24 13.4 10.1 27.2 19.6 41.7 28 5-30 12.2-59.5 17.6-89.4-14.2-6.5-26.3-17.2-41.2-22 1-.9 2-1.7 3-2.6 3.3 4.7 7.6.5 11.2-1.1-.3 1.3-.8 4-1.1 5.4 2.1 1.6 4.2 3.4 6.2 5.1 2.7-4.6 5.9-8.9 9.1-13.2-1.7 0-5.1-.1-6.8-.1-.6 3.2-2.7 5.7-5.1 7.8 1.5-2.9 4-5.5 2.7-9 1-6.7.6-13.5.7-20.3-2.5 2.3-9 2.3-7.6 7.2zm10.1.3c.1 4 .2 8.1.6 12.1 3.6.3 7.2.6 10.8.7-.9-3.6-1.9-7.1-2.8-10.7-2.8-.7-5.7-1.4-8.6-2.1zm7.1 14.4c-3 4.5-6.1 9-9.3 13.5 7.1 3.9 14.1 8 21.3 11.6-1.2-7.2-4.4-13.9-5.5-21.1-2.7 3.1-5.3 6.4-8.6 9 2.5-4.1 6-7.5 9.4-10.9-2.4-.8-4.9-1.4-7.3-2.1zm46.2 23.5c-4 5.7-7.4 11.9-11.4 17.7-2.8 4.4-6.5 8.5-7.7 13.8 3.7-2.1 7.9-3.6 11.3-6.1 6.5-8 11.9-16.8 18.5-24.7-4.7 8.9-11.1 16.6-16.9 24.7 2.4.5 4.9 1.1 7.3 1.7 3.9-5.9 7.1-12.2 12.2-17.2-1.2 5.3-9.2 9.5-5.9 14.9 1.9-.6 5.8-1.7 7.8-2.2 1.1 2.2 2.3 4.4 3.5 6.6 1.4-12.5 5.7-24.5 8-36.9-9 2.1-17.9 4.7-26.7 7.7zm-15.1 12.4c-5 7-10.7 13.6-14.7 21.3 2.8-.9 5.3-2.2 7.4-4.1 3.6-2 5.6-5.7 7.8-9 4.5-6.9 9.2-13.7 13.4-20.8-7.8-.6-10 7.5-13.9 12.6zm21.4 16.4l-2.7-3.7c.4 2.6 1.1 7.8 1.5 10.4 5.8-.2 7.9-5.9 10.3-10.2-3.6-.2-6.7.9-9.1 3.5zm-15.1 1.3c-4.5 1.2-8.8 5.4-13.6 2.6l2.5 3.5-3.4-2.7 1.3 4-1.1 1.1-1.1 1.1c-3.1 2.6-1.1 7.8-2.3 11.2 7.8-2.2 16.2-2.2 23.5-6.1 1.2.9 2.4 1.7 3.6 2.6 2.9-5.4 3.8-11.5 2.3-17.4-3.8-.5-8-2.2-11.7.1zm-25.7 7.4c.7 2.7 4.9 11.4 7.1 5.3l-.3-.7c.6-1.1 1.9-3.2 2.6-4.2-.6-.5-1.8-1.4-2.4-1.9.5-4.1-5.1 1.2-7 1.5zM601.5 638.6c9.4-11.1 25.4-10.5 38.7-11.2-5.9 4.2-11.7 8.9-14.7 15.6-3.7 6.4-6.9 16.1-15.7 16.3-10.2.3-14.5-13.7-8.3-20.7zm4.3.2c-3.7 3.7-4.3 10.3-.4 14.1 2.8 3.8 8.2.9 10.1-2.4 4.4-7.4 7.7-15.5 13.8-21.7-8.5 1.3-17.4 3.7-23.5 10z"/><path class="st0" d="M470.9 667.6c.7-5.9-1.2-12.7 3-17.6 1.4 7.1.7 14.4.3 21.6 1.4-.4 4.2-1.1 5.6-1.4-1.7 1-3.5 2-5.3 2.9-.5 3.8-.9 7.6-1.3 11.4 3.4-3.5 6.3-7.5 9.9-10.9-3.5 8.5-12.8 13.4-12.6 23.5 3.4-3.6 6.1-8 9.9-11.3-3.7 8.8-11.5 15.2-15.5 23.9-5.8 10.5-16.7 22-29.9 18.9 6-1.4 12.6-2.2 17.1-6.8 14.7-13.8 18.6-34.9 18.8-54.2z"/><path class="st0" d="M455.9 654.6c5 .7 11.4 3.2 11.1 9.3.4 13.5-.7 27.5-6.8 39.7-3.2 5-5.3 12.3-12.6 11.7-1.9 1.9-3.7 3.8-5.7 5.6.6-3 6.7-7.6 1.5-9.1-3.5 3.4-5.8 8.1-10.5 10 2.7-4.5 6.6-8 9.9-12.1-.4-1.3-1.2-3.8-1.6-5.1-2 2.3-4 4.6-6 7l-2.1-.5c4.7-5 10.9-9.5 8.6-17.5-2.3 2.5-4.7 5.1-7 7.7 0-.6 0-1.7-.1-2.3 1.6-1.7 3.2-3.4 4.9-5 5.9-12.7 3.6-30.2 16.4-39.4zm-2.4 4.6c-8.3 13-9.9 29.5-9.4 44.7-.5 4.4 3.7 12.4 8.2 6.8 11-12.1 12.5-29.6 12.1-45.2.4-5.5-6.7-9.2-10.9-6.3zM621.1 664.1c1.9 6.9 6.3 12.6 9.8 18.8 2.2 6 2.3 12.9-.4 18.8-3.1 6.3-13.8 6.8-16.6 0-5.5-12.8.8-26.6 7.2-37.6zm-4.7 32c.7 3.3 2.8 6.5 6.6 5.9 3.9-1.5 4.4-6.1 4.5-9.7.4-7.9-6.1-13.7-8.2-20.9-3.3 7.8-4.2 16.4-2.9 24.7zM466 718c3.4-7.8 9.2-14.7 15.7-20.2-4.8 7-10 13.9-15.7 20.2zM496.1 712c14.2-6.2 29.6-9.9 44.8-12.5 3.8 8.6 2.1 18.2 2.5 27.4-.5 13.4.1 27.1-1.9 40.4-16.4 5.7-32.2 15.5-50.1 15.2-.2-5.3-.1-10.6.8-15.8 1.7-10.7.8-21.6 2-32.4.8-7.4 1.5-14.8 1.9-22.3zm15.3-3.6c-4.7 1.7-10.6 1.7-14.4 5-1.9 22.3-2.8 44.7-3.1 67.1 16.2-1.7 30.4-10 45.5-15.2.9-20.9 2.8-42 .7-62.8-9.7 0-19.2 4.1-28.7 5.9zM468.1 727.3c2.4-5.4 6.1-10.2 10.3-14.3-1.8 5.7-6 10.3-10.3 14.3zM443.6 746c4.6-4.9 8.1-10.8 13.2-15.2-5.5 11.5-15.4 20.1-23.8 29.5-3 3.2-5.4 7.2-9.3 9.4 5.4-8.9 13.2-15.9 19.9-23.7zM764.8 733c3.3.4 1.4 5.2-1 5.5-3.3-.4-1.8-5.5 1-5.5zM704.9 744.4c-2.1 0-3-2.3-4.1-3.7 2.5 2.5 5.7 2.6 9 2.8 2.8 1.9 5.4 4 8 6 1.3 1.7 2.6 3.4 3.7 5.3-6-2.8-9.5-10.3-16.6-10.4zM628.6 756.6c9.4-3.6 19.2-5.7 28.7-8.6.6.3 1.9.8 2.5 1.1 1.1 5.7 1.1 11.6.6 17.4 12.1 10.4 22.8 22.3 34.7 33-.7 25.2-1.7 50.4-1.8 75.6-2-.3-4.1-.5-6.1-.7.7-10.3.6-20.6.7-30.9-.3-13.8 1.9-27.6 1.5-41.5-17.1 8.7-34.1 17.6-52.1 24.5-2.7 1.1-5.7 1.8-7.6 4.2-1.4-.1-4-.4-5.4-.5-1.7 5.4.6 10.4 2.8 15.2-.8.4-2.3 1.2-3.1 1.7 0 15.4-.1 30.7-.1 46.1-.7 2.7 1.2 4.7 2.3 6.9 1.6-5 6.4-7.5 11.2-8.4 1.3-2.7 2.9-5.3 4.5-7.8 3.5-14.9 8.6-29.4 12.1-44.2l1.2.2c-3.6 14.9-8.4 29.5-12.2 44.3 1 1.4 2 2.7 3.1 4 5-7.2 14.1-11.4 22.7-9.1.4-2.4.9-4.8 1.4-7.1.9.6 2.7 1.9 3.6 2.5 2.9-1.4 5.7-3 9-3.4 3.9 6.5-1.5 15.4-7.6 18.9-1.1 10.4-4.7 20.7-10.8 29.1-4.5 4.6-11.8 8.6-18.3 5.8-4.7-4.3-7.5-10.3-9.3-16.3-2.2.1-4.4.1-6.6 0-2.1-3.4-3.2-7.5-6.4-10.1-.4 33.8-1 67.5-.7 101.3.2 5.8.2 11.6-.4 17.4 6.6-4.4 13.8-7.9 20.1-12.7 14.3-10.8 30.6-18.6 44.1-30.5-1.5-8.5-.4-17.1-.5-25.7.1-23.5.9-46.9.8-70.4.6-3.1 4-1.8 6-1.2-.8 22.6-.5 45.1-.8 67.7.3 11.7 3 24.2-1.8 35.3-11.5 10.1-25.7 16.5-38.7 24.4-9.5 6-19.2 11.5-28.9 17.2-7-.8-12.9-5.6-19.3-8.2-15.1-6.4-30.6-12-44.7-20.3.6-6.6.5-13.3 1-19.9 2.7-24.6 1.7-49.5 2.2-74.2.8-29.3-.6-58.6-1.1-88 11.4-10.8 25.5-18.2 38.2-27.4 1.7-4.9-.7-10.5-.9-15.6 9-6.5 20.3-7.3 30.2-11.1zm26.7-3.9c-8.2 2.2-16.3 4.9-24.6 6.8 1.6.9 3.3 1.8 4.9 2.6l-4.4-1.4c2.7 5.2-2.3 9.8-3.3 14.6 9 0 7.2-10.2 12.5-14.9-1.5 4.3-3.6 8.2-5.3 12.4 6.6-2.6 14.1-3.6 20-7.7.4-4.1.2-8.3.2-12.4zm-29.2 9.2c-2.7 5.5-4.9 11.2-7.7 16.7 2.8-1 5.6-2.1 8.3-3.2 1.1-4.3 3-8.4 4.8-12.5-1.5-1-3.3-4.6-5.4-1zm-9.4 2.5c-.2 2.7.1 5.6-1.6 7.8-.9 2.8-1.7 5.7-2.4 8.6 8-2.5 7.8-12.8 12.2-18.9-2.8.8-5.5 1.6-8.2 2.5zM605.4 774c3.2.9 5.4-4.6 5.5-7.2-3.6-.8-6.6 3.9-5.5 7.2zm6.8-5.6c-.8 1.9-2.5 5.7-3.3 7.6-1.4 2.6-7 3.7-3.2 7.5 7.2-.5 8.9-9.6 6.5-15.1zm-5.8 17.4c4.1 9.2 6.1 19.3 11.7 27.8 2.9 4.6 4.7 9.8 6.3 14.9 21.3-7.8 41.3-18.4 61.7-28.2-.2-2.2-2.6-3.1-3.9-4.7-9.3-8.4-17.3-18.2-26.6-26.6-16.3 5.9-33.1 10.4-49.2 16.8zm-6 2.2c1.2 4 1 8.1-1.5 11.6 2.9-1 5.8-2.1 8.8-3-.8-2.6-1.5-5.1-2.2-7.7-1.2-.3-3.8-.7-5.1-.9zm-12.5 10.6l-.3 4.7c1-.7 3-2 4-2.7l3.7.3c-.5-1.1-1.6-3.5-2.2-4.6 1.4 1.2 4.1 3.5 5.5 4.7-.7-3.1-1.5-6.1-2.1-9.2-3 2.2-5.8 4.5-8.6 6.8zm-3.3 4.8c2.5-1.6 2.7-3 .5-4.3-2.5 1.6-2.7 3-.5 4.3zm21.2-3.2c-3.2 5.7-4.9 12.2-6.9 18.4 1.1.5 3.3 1.5 4.4 2.1 1.6-7.5 5.1-14.6 6.2-22.2l-3.7 1.7zm-9.4 2.4c-1.2 5.2-8.2 15.1.8 16.5 1.7-6.4 4.4-12.4 6.9-18.5-2.5.7-5.1 1.3-7.7 2zm-22.1 3.3c1.1 2.3 7.9-.2 7.3-3.2-2.7-1.1-5.3 1.6-7.3 3.2zm14.5-1.2c-.9 3.2-1.7 6.5-3.8 9.1.7-3.2 1.7-6.2 2.5-9.3-4.6.9-6.3 5.2-8.1 8.9 3.8.4 7.5 1.6 11.1 3.1 1.3-4.6 2.8-9.2 4.4-13.8-2.1.7-4.1 1.3-6.1 2zm21.2-.9c-2 5.6-3.8 11.3-5.3 17.1 1.1.6 3.4 1.9 4.5 2.6 1.6-3.2 3.2-6.5 4.9-9.7-1.3-3.4-2.7-6.7-4.1-10zm-40 6.5c3.1 1 6.2 2 9.4 3 .4-1.5 1.3-4.7 1.7-6.2-3.7 1.1-7.4 2.2-11.1 3.2zm-4 2.2c2.1 48.4.7 96.9 1.3 145.3.4 11.1-1.2 22.2-1.3 33.2 12.3 6 24.8 11.6 37.3 17.2 5.9 1.6 11.8 3.4 17.2 6.4.4-61.3.6-122.6 1.4-183.9-18.9-5.5-36.6-14.3-55.9-18.2zm48.6 1.5c-1.5 3.4-2.9 6.8-3.9 10.3 3.4.5 6.7 1.2 10.1 2-1.6-4.4-3.6-8.6-6.2-12.3zm56.2 67.8c1.1 2.3 2.2 4.5 3.4 6.8 2.6-2 5-4.1 7.2-6.5-.8-1.1-1.6-2.2-2.5-3.3 1.1-.2 3.3-.7 4.4-1l-2.4-4.3c-3.6 2.4-6.9 5.4-10.1 8.3zM645.4 892.4c-1-1.7-2.3-2.7-4-3.1-.4 1.2-1.2 3.7-1.6 5 1-.2 3-.6 4-.7-2.5 4.4-4 9.2-5.5 14.1.7-.2 2-.4 2.7-.6-.9 6.5 3.8 11.7 7.9 16.1 10.4 2.2 19.9-8.9 19.7-18.5-2.1-5.4-7.6.6-10.2 2.5-6.1-.3-9.4 4.3-12.5 8.7 1.9-3.4 3.6-7.9 7.9-8.6 6.1-.4 11.7-10.4 16.9-3.1 1.3-5.2 2.2-10.4 2.3-15.8-1.2-1.9-2.4-3.9-3.6-5.9-9.3-2.3-17.8 3.6-24 9.9zm-17.1 6.1c2.3 3.5 4.6 10.2 9.9 6.7 1-3.4 2-6.8 3.1-10.2-4.8-1.1-9.6-.2-13 3.5zM477.7 761c-2.1 6.7-6.9 12-10.8 17.7-7.4 9.1-13.6 19.3-22.2 27.4 3.7-8.6 10.3-15.4 15.8-22.8 6.1-7.1 11-15.2 17.2-22.3zM467.4 789c4.9-5.9 8.5-12.9 13.9-18.4-3.2 7.8-8.6 14.4-13.6 21.1-4.8 5.7-9 12.2-15.3 16.4 4.2-6.9 10.2-12.5 15-19.1z"/><path class="st0" d="M665.7 786.5c2.9.7.5 7.5-2.3 6.7-1.4-2.2.5-5.2 2.3-6.7zM633.1 880.4c3.8-16 7.3-32.3 13-47.7-.7 8.9-4 17.3-6 25.9-2.3 7.3-3.4 15-7 21.8zM454.5 848.5c5.9-3.9 11.3-9.3 18-11.5 2.5 4.4 4.1 9.2 5.6 14.1 12.6 4.4 24.1 11.8 36.8 16 5.9 18 11.8 35.9 17.2 54.1 3.3 9.7 8.7 18.9 9.5 29.3-4.9 10.4-13.4 18.6-20.8 27.3-7.3 8.8-14.3 17.8-21.8 26.4-7.6.7-15.2-1.4-22.8-1.7-12-.1-23.9-1.5-35.9-2.6-6.8-20.2-10.5-41.5-19.4-61-3.3-8.2-6.1-16.5-9.5-24.6 4.6-6.3 8.2-13.3 13.2-19.3 3.4-4.5 7.6-8.5 10-13.7-1.5-4.1-3.6-7.9-5.5-11.9 6.9-8.7 17.3-13.5 25.4-20.9zm15.1-7.3c-3.7 2.2-4.1 6-3.9 9.9-.4-1.4-1.2-4.3-1.7-5.7-1.5 1.1-4.4 3.5-5.8 4.6 0 3.6.1 7.2-.1 10.8-.5-3.6-.9-7.1-1.4-10.7-3.7 4.1-2.5 9.9-4.3 14.8.1-3.7.3-7.4.5-11-7.1 2.6-4.6 9.5-4.8 15.2-1-3.6-1.3-7.3-1.9-11-5.5 4.6-2 11.9-2.4 17.9 9.8-8.3 20.4-15.5 29.9-24.1-1.4-3.6-2.6-7.2-4.1-10.7zm-2.9 19.8c-8.7 7.3-18.5 13.1-26.4 21.3 6.1 5.5 10.2 12.8 16.7 17.9 3.8 3 6.9 6.7 10 10.4 15-12.3 27.9-26.7 41.6-40.4-11.4-4-21.7-10.4-32.7-15.3-3.7.6-6.1 4.1-9.2 6.1zm-33.2 11.1c.9-.9 2.7-2.7 3.6-3.7-.2 4.1.6 8.2 1.1 12.3 1.7-1.3 3.4-2.5 5-3.8-1.1-4.9-1.5-9.8-1.7-14.8-2.8 3.1-7.5 5.1-8 10zm59.5 18.5c-2.5 2.8-6.3 4.6-7.6 8.3-.6 7.7.1 15.4.2 23.1 1.8 3 3 6.5 5.6 9 .6-3.8-2.2-6.5-3.8-9.5l5.2 1c-.8-9.7-.2-19.4-.8-29.1 2.8 7.6.1 16.3 1.5 24.3 3-2.6 5.9-5.3 9.1-7.7.2-6.3.5-12.6.8-18.9l1.6-.3c-.8 5.9-1.3 11.9-1.4 17.9 1.1.8 3.4 2.3 4.5 3.1-1.9-5 .1-9.6 2.3-14 0 1.4 0 4.1-.1 5.4 2.4-1.7 4.9-3.3 7.5-4.5l.9 5.9c.9-2.3 2.7-4.8 1.1-7.2-2.9-8.6-5-17.5-8.1-26.1-6.8 6-12.4 12.9-18.5 19.3zm-55.4 4.4c2.9-2 1.8-7.6 1.5-10.8-3 1.7-2.6 7.7-1.5 10.8zM429.9 897.1c-.9.3-2.7 1-3.7 1.4-.4 2.2-.9 4.4-1.3 6.6 1.1-1.2 3.5-3.7 4.6-4.9 1.8-1.1 3.6-2.1 5.3-3.2 0-2.4-.1-7.2-.1-9.6-1.7 3.1-3.4 6.4-4.8 9.7zm10.7-.9c0 4.1.5 8.2.2 12.4-.6-3.9-.8-7.8-1-11.7-5.6 3.6-14 6.3-12.9 14.6 1.3-.1 3.9-.4 5.3-.6.1-2.3.4-7 .5-9.3.7 3 1.1 6.1 1.1 9.2 4.1-.1 8.2 0 12.3.2-.4-4.4-.5-8.9 0-13.3.8 4.4 1 8.8.7 13.3 1.2-.1 3.6-.2 4.8-.2.1-3.5.5-7 .7-10.6-1.9-3.1-4.7-5.6-6.8-8.6-1.6 1.6-3.3 3.1-4.9 4.6zm38.1 7.5c.6 7.2-.1 14.4-1.1 21.5l-.9-.3c.9-6.8 1.7-13.7 1.3-20.6-6.6 3-4.4 9.8-4.7 15.5-.6-3.5-.9-7-1.3-10.5-1.1.8-3.4 2.4-4.6 3.2 7.2 20.4 13.6 41.2 21.1 61.5 2.8 8.9 7 17.4 9.2 26.5 4.6-5.5 9.4-11 13.4-17 8.2-12 18.4-22.6 25.5-35.3-6.9-14.6-10.8-30.4-15.1-45.9-2.4 4.6-3.4 9.9-5.8 14.6 1.6 11.2 3.6 26.4-7.1 33.8-7.2 5.5-14-3.4-18.5-8.3-5 3.9-8.4-1.5-11.8-4.6 1.7-3.4 4-6.6 5.9-9.9.2-9.7-.5-19.3-.4-29-1.7 1.5-3.4 3.2-5.1 4.8zm-25.3-3c-.3 3.4-.7 6.9-1.1 10.3 3.7-.3 7.4-.5 11-.8-3.1-3.3-6.3-6.6-9.9-9.5zm57.3 5.9c.9.8 2.6 2.3 3.5 3-1.4-.3-4.2-1-5.7-1.4 1.1 1.7 3.3 5.2 4.4 6.9 4.3-3 5.3-8.8 3.8-13.6-2.2 1.5-4.3 3.2-6 5.1zm-91.7 5.6c3-1.1 9.5.7 7.9-4.8-1.1.1-3.3.3-4.4.5-.1-.9-.4-2.7-.5-3.6-.5 2.8.1 6.2-3 7.9zm-3.5 2.5c10.4 24.7 19.8 49.8 27.4 75.5 1.1 2 .7 6.4 4 6.2 16 1.8 32 3.1 48.1 2.9-10.8-28.4-20.1-57.3-29.7-86.1-16.5 1.1-33.2-.7-49.8 1.5zm87.9-2.2c-3.6 6 2.7 6.9 6 8.6-.3.9-1.1 2.7-1.4 3.7-1.2-2-2.6-3.9-4.2-5.6-.2 2.1-.6 6.2-.7 8.3-.6-4.6-.8-9.2-1.1-13.9-9.5 6.8-11.9 20.1-7.7 30.5 1.6 1.4 3.3 2.7 4.9 4.1.1-3 .3-6 .7-8.9 3.6-3.6 7.3-7.2 10.8-11 1.3 0 3.9.1 5.2.2-1-7-2.7-18.3-12.5-16zm-2.8 26.5c-.3 4.1-2.6 12.2 4.4 11.2 8.2-2.8 12.1-13.3 8.9-20.9-6.1-.4-8 7.7-13.3 9.7zm-17.5-6.6c-6.2 4 3.5 11.3 7.8 7-.1-3.1-.2-6.2-.4-9.2-2.7.3-5.1 1-7.4 2.2zM712 851.1c5.6-8.5 15.6-12.8 25.6-13.1 22.2-1.6 45-2.2 66.8 3.3 9.3 2.4 9.4 13.4 9.8 21.2-1.1 16-3.3 31.9-3.6 47.9-2.9 20.2-1.1 40.7-3.3 61-.3 9.1-1.9 18.1-2.7 27.3-14.5 10.9-33.8 13.7-51.4 11.2-10.4-1-21.7-3.6-28.8-11.9-3-17.1-4.3-34.3-6.3-51.5-.4-23-6.1-45.6-5.8-68.6.1-9-.9-17.9-.3-26.8zm8.1 1.1c6.6 3.4 14.1 2.8 21.2 3.2l-.4-1.2c-1.2-.5-3.6-1.6-4.8-2.1 17.3 2.6 35.2-.5 52.6 1.9-14.9 1.8-30 .1-44.9 1.4 17.6 2.6 35.5 1.6 53-1 3.5-.6 6.8-1.8 9.9-3.6-.2-3.2-3.3-4.3-5.9-5.1-7.2-1.9-14.9-3.4-22.1-.7 4.6.5 9.3.2 14 .2l-.1 2.4c-5.3-.8-10.6-1.6-16-1.6l.7-2.3c-3.6.5-7.3.9-10.8 1.9-4.4.2-8.9.4-13.3 1-8.6 1.3-17.7-.3-25.9 3.4 1.6.4 4.9 1.2 6.6 1.6v.7c-3.4 1.1-6.3-.8-9.1-2.3 1.3-.7 3.9-2.1 5.3-2.8 3.2 0 6.4-.7 9.5-1.6 9.3-2.4 19.3-.2 28.4-3.1-6.7-1.8-13.7-1.2-20.4.1-9.7 1.3-21 1.3-27.5 9.6zm71.7 9.2c-7.9 9.8-16.4 19.2-23.7 29.4 7-.1 13.9.6 20.8.6 3.4.2 7.5-4.1 10.1-.4.4 11.5-.5 23.1-.5 34.6-3.3 19-3.2 38.3-4.3 57.5-.1 7-6.9 10.4-12.8 12-14.6 3.7-30.8 4.2-44.8-2-5.4-18.1-4.6-37.5-6.8-56.2-.6-17.1-6-33.9-4.9-51.1 7.8 2.7 16-1 24 1 5.8 1.2 11.5 2.8 17.3 3.9 7.4-10.5 16.3-19.7 24.2-29.7-4.8.6-9.5 1.3-14.2 1.9-5.7 5.6-9.9 12.8-16.1 17.9 3.5-6.7 8.8-12 13.5-17.8-10.1.4-20.2.1-30.3-1.3-9.1-1.4-19.5 1.6-27.4-4.7 1.5 21.7 2.2 43.4 6.1 64.8 1.9 24.9 4.3 49.8 8 74.5 10.2 7.8 23.7 7.3 35.9 8 10.9-.6 22.7-2.4 31.5-9.3 3.3-8.1 2.5-17.2 3.6-25.7 2-15.7.3-31.6 2.6-47.3l-3.2 1.8c4.3-4.9 3.6-11.5 4.2-17.5 1.7-16.6 3.8-33.1 4.9-49.7-5.5 2.1-11.6 3.5-17.7 4.8zm-62.6 28.2c7.8 9 20.7 8.9 31.6 8.8 1-1.5 3.1-4.4 4.1-5.9-11.7-2.7-23.7-6.5-35.7-2.9zm-2.5 1.7c2.2 13.8 4.5 27.7 5.9 41.6 2.5 19.3 1.8 39 6.6 58 13.5 4.9 28.6 4.9 42.4 1.1 4.4-1.4 10-3.9 9.8-9.3.7-19.3 1.5-38.7 4.6-57.8.4-11.1.4-22.2 1-33.3-4 2-8 3.9-11.8 6.2-12.7 18.2-25.6 36.4-40.1 53.1 12.8-18.3 26.9-35.7 40.1-53.8-7.9 2.2-16.2 3-24.3 3.8-6 7.5-10.3 16.4-17 23.3 4.3-8.3 10.1-15.7 15.2-23.5-11.3.2-24.3-.4-32.4-9.4zm39.7 1.8c-1 1.3-3 4-4 5.4 8-1 16.3-1.4 23.8-4.8-6.6-.5-13.2-.8-19.8-.6zM578.5 843.4c2.3-1.3 4.7-2.5 7-3.7l-.6 2.6c1.2.6 3.5 1.6 4.7 2.2 2.9-1.6 5.2-1 6.9 1.8 3.7-1.3 8.1-2 10.4 2-4.8-.9-9.9.4-14.5-1.5-2.9-.3-6.1-1.7-8.9.2-1.6-1.2-3.3-2.4-5-3.6z"/><path class="st0" d="M795.4 847c7.5-.4 1.2 10.2-3.6 6.1 1-1.1 2.3-2.1 3.9-2.9-.1-.8-.3-2.4-.3-3.2zM576.7 854.5c1.1 1 3.3 3.1 4.4 4.1 1.9-1.5 3.7-2.9 5.7-4.3.5 1 1.4 3 1.8 4 5.3 0 10.6.3 15.9 1-5.9 3-13.4 1.8-19.3-.5-4.6 3.4-7.3-.1-8.5-4.3zM576.2 917.7c1.1-7.8 0-16 2.2-23.6 1.1 12.3-1.1 24.6-.5 36.9 0 3 .7 6.3-1.5 8.8-.9-7.3-1.4-14.8-.2-22.1zM582.2 897.3c-.2-.4-.5-1.1-.7-1.5 8.4 3.7 17.3 6.2 26.1 8.7.2 15.3-2.1 30.6-2 45.9-9-4-18.2-7.3-27.1-11.5 8.7 1.8 16.7 5.9 25.3 8.4.5-13.7 1.4-27.3 3-40.9-8.2-2.7-16.6-5.5-24.6-9.1zM648.3 896.7c3.8-.8 3.2 6.7-.2 6.4-2.5-1.1-1.8-5.1.2-6.4zM433.6 932.2c1.1-1.4 2.3-2.7 3.4-4.1.6.7 1.9 2.3 2.5 3 6.9-1.8 13.8-3.3 20.9-2.4.1.6.2 1.8.2 2.4-3.1.2-6.3.2-9.3-.7-4.7.9-9.8 3.2-14.5 1.5-3.4 2.7-6.4 1.5-7.4-2.7 1 .8 3.2 2.3 4.2 3zM496.9 934.8c-3.2-.1-3.6-5.9-.3-6.1 2.8.4 3.5 5.8.3 6.1zM433.3 940.6c6.4-1.6 13-.5 19.5-1.7-5.4 4.6-13.2 3-19.5 1.7zM439.1 950.5c2.3-1.7 3.6-1.3 4.1 1.3-2.3 1.6-3.7 1.2-4.1-1.3zM579.2 951.7c.9 1.1 2.6 3.4 3.4 4.5.7-.8 2.3-2.3 3-3.1.8 1 2.5 2.9 3.3 3.9 7.5 1.2 16.5 1.2 22 7.1-9.8-2.7-19.7-6.2-29.7-7.2-.7-1.7-1.3-3.5-2-5.2zM448.7 956.7c7.2 2.7 14.7-3.5 21.9-.5-7.4.8-15.1 4.9-22.4 2.3-2.4.3-4.9.5-7.3.6 2.5-.7 5.1-2.7 7.8-2.4zM580.4 962.7c3.6 3.2 8.7 1.9 12.4 4.7 1.1-.2 3.2-.6 4.3-.9-2 4.3-6 2.5-9.1.6-3.6.7-6-1.4-7.6-4.4zM444.9 967.5c4.3-1.2 8.7-2.2 13.1-1.5-3.8 2.7-8.8 2-13.1 1.5z"/></g><g><path class="st0" d="M462.8 503.8c10.2 11.9 17.8 26.5 20.1 42.1.5 11.2-10.1 18.4-19.9 21-3.9 6-11.7 6-16.8 1.6-6.7 4.4-13.8 8.2-20.4 12.8-12.3 8.5-25.7 15.8-36 26.8-7 13.1-11.1 27.7-18.6 40.4-12.4 13.3-29.9 19.8-45.5 28.3-16.2 8.8-33.3 15.7-49.5 24.4-11.6 4.3-22 11.7-34.3 13.9-15.7 2.3-30.5-6.9-40.3-18.4-11.8-15.5-22.2-33.9-21.5-53.9.2-9.5 1.6-19.7 7.9-27.2 15.3-18.5 37.5-28.7 57.9-40.5 9.3-6.7 19.8-11.5 28.9-18.5 12.1-7.4 24.7-14.7 39-16.6 16.1 0 31.7 5.5 47.8 5.3 20.6-7 41-14.9 60.5-24.4.1-6.3 3.6-12.2 10.2-13.3 2.7-4.2 8.1-4.5 12.5-6.1 5.9-1.7 13.4-3.1 18 2.3zm0 5.2c-2.3-1.9-4.7-6-8.1-4.9-2.3 5.3 3.8 6 7.1 8.2 1.2 2.5 1.2 7.3 5.2 6 1.2 3.5 5 6 5.1 9.8-2.5-2.6-5-5.1-7.6-7.6-.5 1-1.6 2.9-2.2 3.9-1.2-2.3-2.6-4.4-4.2-6.4.5-.6 1.6-1.8 2.1-2.4-1.6-2-3.4-4-5.3-5.9-1.5 5.4 3.3 9.3 3.5 14.4 2.9 3 6.2 5.5 9.3 8.2.4-.7 1.3-2 1.7-2.7 1.4 6.1 4.9 11.7 9 16.3 1.4-5.5-1.9-10.5-4.5-15-2.1-7.9-6-15.5-11.1-21.9zm7.5 32.2l-1.9 1c2.7 3.7 4.6 8.8 9.5 10.1.6-2.1 1.1-4.1 1.6-6.2-2.9.8-7-2.8-9.2-4.9zm-6.5-8.2c0 2.9 4.8 8.9 6.5 4.3-2.2-1.4-4.3-3.7-6.5-4.3zM451 502.7c-4.8 1.8-9.8 3.3-14.5 5.5.2 1.9.3 3.8.5 5.6 3.2-.8 6.5-2.8 9.9-2-3.2 1.7-6.4 3.1-9.8 4.3 3.3 3.4 5.8 7.5 5.8 12.3 2.6-.4 5.4-3.4 8-1.8-2.5 1.4-5.1 2.8-7.6 4.1 3.3 2.9 5.8 6.6 6.2 11.1 2.9-1.8 6-3.2 9.3-3.9-3.1 2.1-6.3 4.1-9.4 6.3 3.6 2 6.5 4.9 8.6 8.4 2.1-1.3 4.3-2.5 6.5-3.8-1.6 2.3-3.5 4.5-5.3 6.6 2.2 1.6 3.8 3.6 5.2 5.8 2.5-2.1 5.2-4 7.9-5.9-2.2 1.5-3.1 3.4-2.9 5.6 2.8-1.5 5.5-3.2 8.3-4.9-6.6-1-9.5-7.8-12.7-12.8-7.3-12.2-16.2-25.4-14-40.5zm-1.7 45.1c1 3.6 3.2 6.7 5.5 9.6-.7 1.1-2 2.4-3.2 1-9.2-10.8-14.3-24.4-18.8-37.6-1.3-3.5-.8-7.2-.4-10.8-3.3.6-4.8 3.3-6.3 6 .5.8 1.5 2.3 2 3.1l-2.4 2c3.1 13.2 9.9 25.2 16.8 36.8 2.4 4.5 6.3 7.9 10.4 10.7 3.2 1.5 5.7-1.4 8.3-2.7-2.7-.7-5.7-1.8-5.4-5.1 2.2-1.1 3 4.7 5.7 1.9-5.2-4.2-7.9-10.2-12.2-14.9zm-26.2-24.1c-15 9.2-31.9 14.2-47.9 21.1 11.7 6 18.2 18 23.8 29.3 2.9 5.8 2.3 12.4 3.5 18.5 13.8-8.8 27.1-18.4 41.6-26.2-8.9-13.1-18.6-26.8-21-42.7zM374 544.8c-5 1.2-4.7 6.6-3.8 10.6 4.5 15.1 12.2 30.4 25.5 39.5-5.5-1-9.9-4.9-13.5-8.9-4.4-5.4-9.1-10.9-11-17.8-2.1-6.9-5.5-14.4-1.9-21.3-12.4 5.2-25.8-.4-38.5-1.6-8.2-.6-16.6-3.9-24.6-.2 7.7 8.6 17 16.1 22 26.7-4-1.1-6.4-11.9-11.6-6.5.6-.6 1.8-1.7 2.4-2.3-5.8-5.6-9.9-13.9-18.2-16.3-6.7 9.3-5.8 21.9-4.5 32.8 3.9 28 20.7 54.2 45.2 68.5 5.6 3.9 12.3 7.2 19.3 5.7-2.6-11.7-3-23.8-7.6-35.1 7.9 9.6 8.5 22.9 7.8 34.8 5.2-4.2 9.8-9.3 11.7-15.9 5.1-10.2 8.7-21.2 13.8-31.3 4.5-5.5 11-9 15.8-14.2-3.6-5-3-12-6.3-17.4-6.5-10.4-11.8-22.2-22-29.8zm-33.1 106.8c-4.1-4.3-9.9-5.8-14.6-9.1-8.7-8.3-15.8-18.1-22.6-27.9-1.9-7.4-6.8-13.8-8.3-21.3-1.6-7.6-4.6-15.2-4.1-23 1.3-6.8-.1-14.2 3.4-20.5-3.4 3.5-7.9 4.9-12.3 6.6-3.3 6.1-3.7 13.3-4.6 20.1-2.1-5.8-.8-12.1.6-17.9-6.7 3.2-4.6 11.5-6.6 17.3-.6-4.2-.7-8.4-1.1-12.6-1.3 1.2-3.8 3.6-5.1 4.8l1.7 2.3c-.6-.8-1.8-2.3-2.3-3.1-4.6 3.1-.6 8.9-2.3 13.2-1.3-3.6-1.3-7.5-.8-11.2-5.8 3.5-11.4 7.3-17 11.1-13.9 8.9-29.2 15.2-42.5 25.2-2.5 1-2.2 3.7-2.7 5.8-3.2 1.4-3.5 5.3-5.5 7.8.4 1 1.1 3.1 1.5 4.1-1 10.1.2 20.4 3.4 30 7.2 19.9 19.8 37.9 36.5 50.9 1.7 1.5 4 1.8 6.1 2.4-6.7-4.4-12.9-9.5-18.3-15.4.4-1.6.7-3.2 1-4.7 7.3 8.5 15.5 17.1 25.9 21.6 8-2.2 15.6-6 23.3-9.5 22-10.9 44.2-21.3 66-32.7-6.2-3.2-11.8-7.4-17.3-11.7-6.8 1.4-13.2 5.4-19.4 8.7 5.1 3.7 8.4 9.5 13.9 12.9-4.9 0-8.9-4.1-11-8.2-.5-2.9-5-6-7-2.3l-1.2-1.6 2.8-1.2c-.7-.9-2.2-2.7-3-3.6 2.8-1.2 5.4 2.9 7.9.8 4.1-1.9 7.8-4.6 11.5-7.1 3-2.2 6.9-1.1 10.4-1.2-6.8-5.3-14.3-10.1-19.2-17.4-14.6-18.1-24.3-41-23.6-64.5.7-5.3.5-11.4 4.3-15.7-3.2 21.4.7 43.8 11.6 62.6 5.8 12.2 15.1 23 26.8 29.8 4.9 5.9 12.5 8.5 18.7 12.8 3.2-.3 6.4-.9 9.5-1.8-5.1-.9-9.7-3.4-14.4-5.6zm-1.1 7.2c-4.2-1.9-8.1-4.2-11.9-6.7-2.3 1.4.7 3.9 2.1 4.8 5.2 3.1 10.6 11.3 16.9 5.4-1.3-2.8-4.6-2.4-7.1-3.5zm-147.8-44l1.3 4.1-2 1c-1.4 6.4-2 13.1-.8 19.5 2.4 11.1 3.6 22.8 9.4 32.8 5.2 8.4 10.6 16.9 18.4 23.2 3.9 3.9 9 6.6 11.8 11.4-2.7.2-5.4-1-7.2-2.9-2.5-2.4-6.9-1.8-8.5-5.4-1.1.3-3.2.8-4.3 1.1 4.2 3.8 9.5 6.9 15.2 8 4.9 2.4 10.5 4.8 15.9 2.2-4.1-1-7.4-3.7-10.7-6.1-9.3-5.3-15.1-14.8-21.7-22.9-8.9-14.2-16.7-30.1-17-47.3.1-4.9-1-10.6 2.5-14.7-.7-.8-1.8-2.9-2.3-4zm-4.2 7.5c-4 9.9-4 21-3.5 31.5-.2 3.4 3.9 4 6.3 4.7-.5-2.6-1.1-5.2-1.6-7.9-2.2-2.3-3.4-5.2-4.5-8.2.8-.3 2.4-1 3.2-1.3-1-2.5-1.7-5-2.2-7.6 1.6-3.4 2.6-7.3 2.3-11.2zm20.6 67.8c-.3.9-.9 2.8-1.2 3.8-.6-1.4-1.7-4.2-2.3-5.5H200c2.9 3.6 5.4 7.7 9 10.7 1.4-.5 4.1-1.4 5.5-1.8-2.4-2.1-4.5-4.5-6.1-7.2zm-8.7-11.9c-.7 1.3-2.2 3.9-2.9 5.2 1 1.8 2.4 3.3 4.1 4.5l4.4-.8c-2-2.8-3.9-5.8-5.6-8.9zm-11.8-19.8l-2.2 1c3.4 7.6 5.6 15.6 10.1 22.7l2.2-1.8c-2.4-4.9-4.5-9.9-4.9-15.5l-2.1 2.1c-1-2.9-2-5.8-3.1-8.5z"/><path class="st0" d="M285.4 605.1c5 2.3 3.3 9.1-.8 11.4 1.3 2.2 2.5 4.5 3.7 6.7 4.8-6.8 14 3.9 7 7.7 1-2.9.6-5.6-2-7.6-5.1 3.4-.6 9.8.4 14.3 3 6.1.7 12.9-3.2 17.9l-2.1-2.2c4-2.1 2-6.9 2.3-10.4-.1-5.5-1.7-13.7-8.7-13.1.9 2.1 1.8 4.1 2.6 6.2 1-.1 3.1-.4 4.1-.6-1.3.7-3.8 2.1-5.1 2.8 1.3 1.7 2.7 3.5 4.1 5.2-.6.3-1.8 1-2.4 1.4-.7 4.6-.6 9.3-1.8 13.8-1.9-4.7-.3-9.8-1.6-14.6-1.9-.1-3.6-.5-5.3-1.2 1.9.1 3.8.3 5.7.6-1-3.4-1.9-6.8-2.5-10.3-2.8-.3-5.5-.4-8.3-.6 2.6 3.7 2.6 8.3 3.3 12.6-.3 3.2 3.7 1.5 5.1 3.6-1.2-.3-3.6-1-4.7-1.3-.3 2.9-.6 5.8-1.1 8.7 2.3.7 4.5 1.4 6.7 2.1-2.4.1-4.7-.8-6.9-1.6-.5 1-1.4 3.1-1.9 4.1 1.8-14-2.2-28.2-8.2-40.7-1-.2-2.9-.7-3.8-1 1.3-.3 2.6-.6 3.9-1 2.8 4 7.4 7.4 7.2 12.8 2.5.8 5.1 1.1 7.8 1.2 2.3-4.8-4.2-5.2-7.3-5.9 2-.2 4.1-.2 6.1.1-.9-1.4-2.6-4.2-3.5-5.5-1.9.2-3.8.3-5.8.3 1.9-.9 4-.9 6-1-1.8-2.9-3.7-5.7-5.6-8.4-1.1.4-3.3 1.4-4.5 1.8 1.2-.6 3.5-1.8 4.6-2.5-2.9-1.9-5.9-3.9-8.5-6.2 1.8.7 3.6 1.5 5.3 2.4.8-2.9 3-4.4 6-4.8-3-3.4-6.6-6.2-11-7.5 11-1.1 15.3 11 21.6 17.6.7.1 2 .4 2.7.6.3-1.2.8-3.7 1.1-4.9-1.4.1-4.1.2-5.5.3 1.1-.9 3.5-2.5 4.8-3.3zm-6.5 12.6c-1.2-2.9-1.5-7.1-5.3-7.7-.5-1.3-1.6-4-2.1-5.3-2.7-1.2-6.9 1.1-2.9 3.5 4 3.8 8.1 7.9 10.1 13.2 1-.6 2.9-1.7 3.8-2.2-.3-.7-.9-2-1.2-2.7-.7.2-1.8.9-2.4 1.2zm2 3.7c-1.9 1.6.5 4.3 1.5 5.8 3.2-.8 2.3-7.4-1.5-5.8zM296.8 668.7c2.8-2.9 7.8 2.2 3.5 4.4-5 2.7-.5-2.9-3.5-4.4zM252.5 584.6c1.1 3.5-2.4 3.6-5.1 3.8 1.1 1.2 3.2 3.5 4.3 4.6-6.2-1.7-13.5-2.4-18.8 2.1-2.6-1.9-5.2 1.7-7.4 2.8-6.9 4.6-11.2 11.7-15.5 18.7.7-3.7 1.9-7.3 3.3-10.8-1.1-.5-3.2-1.5-4.3-2 .6-.3 1.7-1 2.2-1.3.5.7 1.4 2 1.9 2.7 3.1-.9 1.9-5.5 5.4-5.4-.2-.7-.6-2-.8-2.7 4.6.3 7.4-4.6 11.8-5.5 2.6-1.6 8.9-1.7 7-6.2l1.1 2.1 6.1-5c.1 1.8-6.1 4.5-3.3 6.7h4.9c2.2-1.7 4.6-3.4 7.2-4.6zM293.2 658.6c2.6 3.6-2.2 7.7.5 10.7-1.6 2.2-5.9 5.1-3.5 8-2.7 1.3-4.6 3.6-6.8 5.5l.9 1.9c-1.4.4-4.1 1.1-5.4 1.5 2.6.8 5.3 1.4 7.9 1.8-.6-1-1.9-3.1-2.6-4.1 3.2-.5 7.2 2.7 4 5.5-3.3.6-6.4-.7-9.1-2.6-1.9.7-3.9 1.5-5.8 2.3 1.8 1.4 7.2 4.8 2.9 6.8-2.8-.3-5.4-1.6-7.3-3.7 1.7.4 5.1 1.3 6.8 1.7-1.6-6.5-8.7-2.3-13-2.6 1.1 2.1 5.2 5.4.8 6.3-.4-1.7-.7-3.5-1-5.3-4.2-.8-8.6-1.1-12.8-1.9.7 1.3 2.2 3.9 2.9 5.2.8-.5 2.4-1.6 3.2-2.2-.1 1.7-.6 3.3-1.6 4.7-3.7-.8-3.7-5.3-5.1-8l-5.1-2.7 8.4 1.5c-2.3-2.4-3.6-5.4-1.4-8.3 3.2 0 5.1 5.9.2 5.3l2.8 3.2c8.8-.2 17.6-2.3 25-7.1-.8-1.5-2.3-4.4-3.1-5.8-.3 1.7-1 5.1-1.4 6.8-.7-2.8-1-5.8-1-8.7 4.4-1.1 5.2 4.5 6.5 7.4 4.5-4.3 9.7-9.3 10-15.9 2.8-1.6 1.9-4.9 3.2-7.2z"/><path class="st0" d="M289.8 656.3c1.4 1.4 1.3 5-.4 5.9-1.6-1.3-2.3-5.6.4-5.9zM255.2 596.3c-.1 2.4-1.2 2.9-3.3 1.4.3-2.4 1.4-2.8 3.3-1.4zM251.5 600.2c5.6 2.1 10.3 9.9 5.8 15.2-3.3 4.8-9.7 3.3-14.6 2.6 2 4.1 2.7 9.7-1.4 12.8-4.9 2.5-10.5 2.2-15.6.6-2.4-3.1-5.9-8-2.2-11.4 4.1-1.5 6.7 1.5 7.7 5.2-1.7-.7-4.3-5.9-6.2-2.9-2.2 1.7.7 4.3 1.7 5.9 3.8 1.8 8.8 1.7 12.5-.3 4.2-4.2-.5-9.5-3.6-12.7-1.8-2.9-6-3.8-8.5-.9 1.2-2.8 5.6-2.3 5.8-5.6-5.4 1.6-9.1 5.6-12.9 9.4l3.2-4.4c-1.9-.6-3.8-1.1-5.7-1.7.1-.8.2-2.5.3-3.3.8 0 2.4-.1 3.2-.2.5 1.2 1.4 3.5 1.9 4.7 2.8-4.9 8.3-6.9 12.7-10.1 4.5-3.4 10.5-4 15.9-2.9zm-12.8 5.4c4.4-1.3 10.3-2.6 13.5 1.8 1.5 3.9-3.7 5.7-6.5 4.3 1.2-.4 3.5-1.2 4.7-1.7-2.5-6.6-11.1-1-15.7-.1.7.6 2 1.9 2.7 2.5 5.1 1.7 10.8 4.5 16.1 1.9 2.3-1.4 2.4-4.3 1.7-6.6-3-5.9-12-6.2-16.5-2.1zM290.3 676.8c2.2.6 6.3-.9 6.9 2.4-1.6 2.9-6.2 3.3-9.1 2.5 1.6-.5 4.7-1.6 6.3-2.1-1-.8-3-2.1-4.1-2.8zM287.2 662.9c2.9.6 1 4.8-1.2 4.9-2.6-.7-1.4-5.2 1.2-4.9zM248.3 594.9c2.5 1.3-1.2 5.5-2.5 2.7.7-.7 1.9-2 2.5-2.7zM257 618.1c.2.8.5 2.5.6 3.4 4.5 3.3 6.5 8.8 9.5 13.3.6 6.2.6 12.4.4 18.7h-2.3c.3-11.3-2-23.9-10.7-32 .7-.9 1.9-2.6 2.5-3.4zM243 593.3c-.2 2.1-.5 4.1-1 6.1-.7-.5-2.2-1.6-3-2.1-1.8 3.9-4.2 2.4-6.6.1 2-.4 3.7-1.4 4.9-3.2l2.4 2.4c.9-.8 2.5-2.4 3.3-3.3zM270.6 666.2c.5.7 1.5 2 2.1 2.6l-3.6 2.8-1-3.9c-.6 1.4-1.9 4.1-2.6 5.4l-.8-.6c-1-3.6 2.8-5.9 5.9-6.3zM231.1 598.4c2 1.5-.6 5.2-2.8 3.7-2.4-1.5 1.3-3.7 2.8-3.7z"/><path class="st0" d="M230.9 644c-.4-8.8 11.2-13.2 17.3-7.6 2.9 2.7 2 6.4.9 9.6-3.6 1.7-7.2-.8-6.7-4.8 1.2-.6 3.7-1.8 4.9-2.4-3.2-2.2-6.9-2.2-10.6-1.8-3.1 2.4-3.9 6.7-7.2 8.8 1.2 2.8 4.3 4.5 4.2 8 3.4 1.7 4 5.7 5.2 8.9 1.7-4.2 1.7-10.2 6.8-12 4.2-2.3 9.3.5 10.9 4.7-.4 1-1.3 2.9-1.7 3.8 5.4-1.7 7.7 5.3 4.7 8.9 1.3 1.5 2.9 2.8 3.8 4.5-4.8-3.8-11.2.3-16.1-2.4 1.1-3.5 6.7-1 9.3-3.5 3-1.7 1.7-5.9-1.6-6.4-.5 1-1.6 3.1-2.1 4.1.3-1.3 1-3.8 1.3-5.1-3.2-.8-6.6-2.5-9.8-.9.2-.8.6-2.3.8-3.1 2.7 1.5 5.6 2.2 8.7 2.2.9-4.5-5.2-6.6-8.3-4.3-6.1 2.7-3.5 12.5-10.7 13.8.4-2 1.3-3.7 2.8-5.2-1.4.6-4.2 1.8-5.6 2.3 2.8 4.1 5.7 8.1 9.3 11.5-5.5-.2-7.3-7.6-12.6-6.5.7-.5 2-1.4 2.7-1.8-2-4.4-6.7-3.1-10.4-2.4 3.3 4.5 6.7 9.3 11.7 12.2-6.3.3-10.2-5.8-13.5-10.2-4-4.9-7-10.7-7.6-17.1-.9.4-2.6 1.3-3.5 1.7.6 3.6 6.1 4.9 4.2 8.9 1.4 1.7 4.2 5.1 5.7 6.7-2-1.2-6.1-3.6-8.2-4.8 3 5.6 6.1 11.1 9.8 16.3.7-.8 2.2-2.4 2.9-3.2 4.4 1 5.2 5.9 8.7 8.2 2.3 1.5 5 2.3 7.5 3.4-6.7.7-13-3.2-15-9.7-1 .5-3.1 1.4-4.2 1.9 2.9 2.6 3.6 6.2 2.6 9.9-8.2-11.1-15.8-22.9-21.3-35.6-3.6-12.8-6.5-26.7-2.9-39.9l2-2.7c-.5 8.3-.6 16.7.4 25 1.5.7 3.1 1.4 4.6 2 .1-5.8-.8-12.1 3.1-17.1-2 5.5-.5 11.3-.6 16.9-.5.4-1.5 1.3-2.1 1.7-1.5-.4-2.9-.2-4.3.4 2 6.9 3.9 13.8 7.2 20.2l1.6-1.1c-1.3-1.9-2.6-3.8-3.8-5.7.2-1.9.3-3.7.2-5.6 1.8-.3 3.6-.6 5.3-.9-2.6-8 .5-16.9 3.4-24.5-.2 10.7-4 22.5 2.4 32.3 1.8-.2 3.7-.4 5.5-.5-2.8-6.1-4.3-13.4-.9-19.7.1 3.5.2 7.1 1.1 10.5 2-2.3 5-1.9 7.8-.8zm15-3.7c-.4.6-1.2 1.7-1.6 2.2l1.1.7c.4-.6 1.2-1.7 1.7-2.2l-1.2-.7zm-16.7 8.9c-.9.5-2.8 1.5-3.8 2 2 3.7 3.8 7.5 5.7 11.3 1.2-.5 3.5-1.5 4.7-2-.5-1.4-1.6-4.3-2.1-5.7l-4.4 3.6c.8-3.1 2.5-6.5-.1-9.2zm-5.8 6.2c-2.4.3-4.9.3-7.3-.1 1.3 2.5 2.4 5.1 3.9 7.5 2.3 1.3 5.1 1.2 7.6 1.4-1.6-2.8-3-5.7-4.2-8.8zM264.6 680.5c.6-4 5.5-1 5.5 1.7-1.4 2.3-6.2 1.7-5.5-1.7zM223.6 602.8c3.2 3.4-3.7 3.5-1.3 0h1.3z"/><path class="st0" d="M239.5 640.2c.8 2.5 1.6 5 2.3 7.5-.9-1.2-2.8-3.6-3.7-4.8l-4 2c1.1-2.3 3.4-3.4 5.4-4.7zM257.9 686.7c-2.5-2 .1-8.8 3.2-4.8 2.9 3-1.5 3.4-3.2 4.8zM240.1 694.6c5.8-.3 7.8 6.7 11.2 10.2-1.5-.7-2.9-1.5-4.1-2.5-5.1 2.9-5.3-4.8-7.1-7.7zM230 707c.2.1.7.2.9.3-.2-.1-.7-.3-.9-.3z"/></g><g class="st2"><path class="st3" d="M609.8 448.7c0-2.9.8-5.6 2.5-8 1.6-2.5 3.8-4.3 6.5-5.4v-.2c-2-1-3.6-2.6-4.8-4.8-1.2-2.2-1.8-4.6-1.8-7.3 0-5.1 1.8-8.9 5.4-11.4 3.6-2.5 8-3.8 13.1-3.8 2.4 0 5 .3 8.1.9l-3.1 10.7c-.8-.2-1.9-.3-3.1-.3-1.9 0-3.4.5-4.7 1.5-1.2 1-1.8 2.4-1.8 4.3 0 1.5.5 2.8 1.5 3.8s2.4 1.6 4.2 1.6h6.8v-6.9h13.5v6.9h7v11.8h-7v5.4c0 5.2-1.9 9.6-5.7 13-3.8 3.5-9 5.2-15.7 5.2-6.3 0-11.3-1.6-15.1-4.9-3.9-3.1-5.8-7.2-5.8-12.1zm14-.9c0 1.5.7 2.8 2 3.9s2.9 1.6 4.9 1.6c2.5 0 4.5-.6 5.8-1.8 1.4-1.2 2.1-2.8 2.1-4.7v-4.6h-7.7c-4.7.1-7.1 1.9-7.1 5.6zM686.7 464.9v-56.1h13.7v44.3h22.9v11.8h-36.6zM723.8 464.9l19.1-56.1h14.4l19.1 56.1h-14.1l-3.5-11.8h-17.5l-3.4 11.8h-14.1zm20.8-22.7h11.1l-3.1-10.9-2.3-9.7h-.2c-.8 4.1-1.6 7.3-2.3 9.7l-3.2 10.9zM782.1 464.9v-56.1h20.6c5.8 0 10.4 1.3 13.8 3.8 3.5 2.5 5.2 6.2 5.2 10.9 0 2.4-.6 4.7-1.7 6.9-1.2 2.2-2.7 3.9-4.8 5.1v.2c3 .9 5.2 2.5 6.6 4.9 1.4 2.4 2.2 5 2.2 7.7 0 5.7-2 9.9-6 12.6-4 2.7-9.1 4.1-15.3 4.1h-20.6zm13.7-34.3h7.1c1.6 0 2.8-.5 3.7-1.5.8-1 1.3-2.2 1.3-3.7 0-1.4-.4-2.6-1.3-3.5-.9-.9-2.2-1.3-3.9-1.3h-6.8v10zm0 22.6h8.2c1.9 0 3.3-.6 4.4-1.7 1-1.1 1.6-2.5 1.6-4.2 0-1.7-.5-3-1.5-4.1-1-1.1-2.5-1.6-4.4-1.6h-8.3v11.6zM832.8 464.9v-56.1H868v11.8h-21.4v10.2h17.1v11.8h-17.1v10.6h22.5V465h-36.3zM877.9 464.9v-56.1h13.7v44.3h22.9v11.8h-36.6z"/></g><g class="st2"><path class="st3" d="M454.2 391.6v-56.1h23.3c5.4 0 9.8 1.8 13.2 5.4 3.4 3.6 5.1 8.2 5.1 13.9 0 5.7-1.7 10.4-5.1 14-3.4 3.6-7.8 5.5-13.2 5.5h-9.6v17.3h-13.7zm13.7-29.1h6.7c2.3 0 4.1-.7 5.3-2.1 1.2-1.4 1.8-3.3 1.8-5.6s-.6-4.1-1.8-5.5c-1.2-1.4-2.9-2-5.1-2h-7v15.2zM494.4 391.6l19.1-56.1h14.4l19.1 56.1h-14.1l-3.5-11.8h-17.5l-3.4 11.8h-14.1zm20.7-22.7h11.1l-3.1-10.9-2.3-9.7h-.2c-.8 4.1-1.6 7.3-2.3 9.7l-3.2 10.9zM548.4 363.5c0-8.3 2.8-15.1 8.3-20.6 5.5-5.5 12.6-8.2 21.1-8.2 3.9 0 7.7.7 11.5 2 3.7 1.3 6.9 3.3 9.6 5.9l-6.4 10.4c-1.9-1.7-4.1-3-6.6-4.1-2.5-1.1-5-1.6-7.4-1.6-5.2 0-9.2 1.6-11.8 4.7-2.7 3.1-4 6.9-4 11.3 0 4.6 1.4 8.5 4.1 11.8 2.7 3.3 6.7 5 11.7 5 5.3 0 10.3-2.3 14.9-6.9l7.1 10c-6.1 6.3-13.6 9.4-22.6 9.4-8.9 0-16-2.7-21.4-8.2-5.4-5.5-8.1-12.5-8.1-20.9zM607.4 391.6v-56.1h13.7v21.7h5.6l11.6-21.7h14.8L638 362.4v.2l16 29.1h-15.4l-11.8-22.8h-5.6v22.8h-13.8zM654.3 391.6l19.1-56.1h14.4l19.1 56.1h-14.1l-3.5-11.8h-17.5l-3.4 11.8h-14.1zm20.7-22.7h11l-3.1-10.9-2.3-9.7h-.2c-.8 4.1-1.6 7.3-2.3 9.7l-3.1 10.9zM708.2 363.5c0-8.2 2.8-15.1 8.4-20.6 5.6-5.5 12.6-8.3 21.1-8.3 8.7 0 15.9 2.5 21.6 7.5l-6.6 10.3c-1.6-1.5-3.7-2.7-6.3-3.7-2.6-1-5-1.5-7.4-1.5-5.5 0-9.7 1.5-12.4 4.5-2.7 3-4.1 6.8-4.1 11.3 0 5.2 1.6 9.3 4.7 12.4 3.1 3.1 6.9 4.6 11.4 4.6 4.1 0 7.9-1.4 11.4-4.1v-4.3h-8v-11.7h20.1v31.7h-11.5V390l.1-2.4h-.2c-1.7 1.5-3.9 2.6-6.6 3.5-2.7.9-5.4 1.3-8.2 1.3-7.5 0-14-2.6-19.4-7.9-5.4-5.1-8.1-12.2-8.1-21zM771.9 391.6v-56.1h13.7v56.1h-13.7zM797.4 391.6v-56.1h13.9l15.5 26.2c.6 1.1 1.3 2.4 2.1 4s1.4 2.9 1.9 4l.7 1.6h.2c-.4-4-.6-7.2-.6-9.6v-26.2h13.7v56.1H831l-15.6-26.1c-.6-1.1-1.3-2.4-2.1-4s-1.4-2.9-1.9-4l-.7-1.6h-.2c.4 4 .6 7.2.6 9.6v26.1h-13.7zM853.5 363.5c0-8.2 2.8-15.1 8.4-20.6 5.6-5.5 12.6-8.3 21.1-8.3 8.7 0 15.9 2.5 21.6 7.5l-6.6 10.3c-1.6-1.5-3.7-2.7-6.3-3.7-2.6-1-5-1.5-7.4-1.5-5.5 0-9.7 1.5-12.4 4.5-2.7 3-4.1 6.8-4.1 11.3 0 5.2 1.6 9.3 4.7 12.4s6.9 4.6 11.4 4.6c4.1 0 7.9-1.4 11.4-4.1v-4.3h-7.9v-11.7h20.1v31.7H896V390l.1-2.4h-.2c-1.7 1.5-3.9 2.6-6.6 3.5-2.7.9-5.4 1.3-8.2 1.3-7.5 0-14-2.6-19.4-7.9-5.5-5.1-8.2-12.2-8.2-21z"/></g><text transform="translate(-844.936 695.915)" font-family="MyriadPro-Regular" font-size="12">Lorem ipsum</text><g><path d="M526.9 550.1l9.9-28.1h5.4l9.9 28.1h-5.2l-2.4-7.2h-9.9l-2.4 7.2h-5.3zm8.8-11.3h7.3l-2.5-7.5-1.1-4.4h-.1c-.4 1.8-.8 3.3-1.1 4.4l-2.5 7.5zM553.5 540c0-3.2.9-5.7 2.6-7.7 1.7-1.9 3.9-2.9 6.6-2.9 2.7 0 4.6.9 5.9 2.7h.1c-.1-.3-.1-.7-.1-1.2V522h5v28.1h-4.7v-1.7l.1-1.3h-.1c-.6 1.1-1.5 1.9-2.6 2.5-1.1.6-2.4.9-3.8.9-2.7 0-4.9-1-6.5-2.9-1.7-1.9-2.5-4.4-2.5-7.6zm5 0c0 1.9.5 3.4 1.4 4.6.9 1.2 2.1 1.7 3.6 1.7 1.4 0 2.6-.5 3.6-1.6s1.5-2.7 1.5-4.8c0-1.7-.4-3.1-1.3-4.4-.9-1.2-2.1-1.8-3.7-1.8-1.4 0-2.6.6-3.6 1.7-1 1.2-1.5 2.7-1.5 4.6zM577.7 540c0-3.1 1-5.7 2.9-7.6 1.9-2 4.4-2.9 7.4-2.9 2.8 0 5 .9 6.6 2.7 1.6 1.8 2.4 4.1 2.4 6.9 0 .4-.1 1.1-.2 1.9h-13.9c.2 1.7.8 3 1.9 3.9 1.1.9 2.5 1.4 4.1 1.4 2 0 3.9-.7 5.8-2.2l2 3.6c-1 .9-2.2 1.6-3.7 2.1s-2.9.8-4.4.8c-3.2 0-5.9-1-7.9-3.1-2-2-3-4.5-3-7.5zm5.3-2.5h8.9c0-1.3-.4-2.4-1.2-3.1-.8-.8-1.7-1.1-2.9-1.1-1.3 0-2.3.4-3.2 1.2-.8.7-1.4 1.8-1.6 3zM599.9 540c0-3 1-5.5 3-7.5s4.7-3.1 7.9-3.1c1.5 0 2.9.3 4.3.8s2.6 1.3 3.5 2.3l-2.3 3.4c-1.5-1.5-3.2-2.2-5.2-2.2-1.8 0-3.3.6-4.4 1.8-1.1 1.2-1.7 2.7-1.7 4.5 0 1.8.6 3.3 1.7 4.5 1.2 1.2 2.7 1.8 4.6 1.8 2.2 0 4.2-.9 5.9-2.6l1.9 3.6c-.9 1-2.2 1.8-3.7 2.4-1.5.6-3 .9-4.6.9-3.3 0-5.9-1-7.9-3s-3-4.6-3-7.6zM622.6 542.9v-13h5v11.9c0 1.3.2 2.4.7 3.1.5.7 1.3 1 2.4 1 1.7 0 3.1-.7 4.1-2 1-1.3 1.5-2.9 1.5-4.8V530h5v20.2h-4.8v-2.4l.1-1.4h-.1c-.5 1.1-1.4 2.1-2.7 3-1.3.8-2.7 1.3-4.3 1.3-4.6-.1-6.9-2.7-6.9-7.8zM645.2 544.6c0-1.4.4-2.6 1.2-3.6.8-1 1.8-1.7 3.1-2.2 1.3-.5 2.5-.8 3.7-1 1.2-.2 2.5-.3 3.8-.3h.9v-.3c0-2.4-1.3-3.6-3.8-3.6-1.8 0-3.7.6-5.6 1.9l-1.9-3.6c.9-.7 2-1.3 3.5-1.8s2.9-.7 4.4-.7c2.6 0 4.7.7 6.2 2.1 1.5 1.4 2.2 3.4 2.2 5.9V550h-4.7v-1.7l.1-1.5h-.1c-.6 1.1-1.5 2-2.7 2.6-1.1.7-2.4 1-3.7 1-1.9 0-3.4-.6-4.7-1.7-1.2-.9-1.9-2.4-1.9-4.1zm5-.5c0 .7.3 1.3.8 1.9.5.5 1.3.8 2.2.8 1.3 0 2.5-.6 3.3-1.7.9-1.1 1.3-2.3 1.3-3.6v-.6h-.8c-4.5 0-6.8 1.1-6.8 3.2zM666.9 540c0-3.2.9-5.7 2.6-7.7 1.7-1.9 3.9-2.9 6.6-2.9 2.7 0 4.6.9 5.9 2.7h.1c-.1-.3-.1-.7-.1-1.2V522h5v28.1h-4.7v-1.7l.1-1.3h-.1c-.6 1.1-1.5 1.9-2.6 2.5-1.1.6-2.4.9-3.8.9-2.7 0-4.9-1-6.5-2.9-1.7-1.9-2.5-4.4-2.5-7.6zm5.1 0c0 1.9.5 3.4 1.4 4.6.9 1.2 2.1 1.7 3.6 1.7 1.4 0 2.6-.5 3.6-1.6s1.5-2.7 1.5-4.8c0-1.7-.4-3.1-1.3-4.4-.9-1.2-2.1-1.8-3.7-1.8-1.4 0-2.6.6-3.6 1.7-1.1 1.2-1.5 2.7-1.5 4.6zM694.3 547.6c-2.1-2-3.2-4.5-3.2-7.6 0-3.1 1.1-5.6 3.2-7.6s4.7-3 7.8-3c3.1 0 5.7 1 7.9 3 2.1 2 3.2 4.5 3.2 7.6 0 3.1-1.1 5.6-3.2 7.6s-4.8 3-7.9 3c-3 0-5.7-1-7.8-3zm1.9-7.6c0 1.8.6 3.4 1.7 4.5 1.1 1.2 2.6 1.8 4.3 1.8 1.7 0 3.1-.6 4.3-1.8 1.2-1.2 1.7-2.7 1.7-4.5 0-1.8-.6-3.3-1.8-4.5-1.2-1.2-2.6-1.8-4.3-1.8-1.7 0-3.1.6-4.2 1.8-1.1 1.2-1.7 2.7-1.7 4.5zM725.8 553.4c.7.6 1.5.8 2.2.8 1.6 0 2.8-.9 3.5-2.6l.8-1.8-8.5-19.9h5.7l4.2 11.6.8 2.7h.1c.2-1.1.5-1.9.7-2.7l4-11.7h5.5l-9 23.2c-.7 1.8-1.6 3.1-2.9 4-1.3.9-2.7 1.3-4.3 1.3-.7 0-1.4-.1-2.1-.3-.7-.2-1.2-.4-1.6-.6l-.5-.4 1.4-3.6zM755.2 544.6c0-1.4.4-2.6 1.2-3.6.8-1 1.8-1.7 3.1-2.2 1.3-.5 2.5-.8 3.7-1 1.2-.2 2.5-.3 3.8-.3h.9v-.3c0-2.4-1.3-3.6-3.8-3.6-1.8 0-3.7.6-5.6 1.9l-1.9-3.6c.9-.7 2-1.3 3.5-1.8s2.9-.7 4.4-.7c2.6 0 4.7.7 6.2 2.1 1.5 1.4 2.2 3.4 2.2 5.9V550h-4.7v-1.7l.1-1.5h-.1c-.6 1.1-1.5 2-2.7 2.6-1.1.7-2.4 1-3.7 1-1.9 0-3.4-.6-4.7-1.7-1.3-.9-1.9-2.4-1.9-4.1zm4.9-.5c0 .7.3 1.3.8 1.9.5.5 1.3.8 2.2.8 1.3 0 2.5-.6 3.3-1.7.9-1.1 1.3-2.3 1.3-3.6v-.6h-.7c-4.6 0-6.9 1.1-6.9 3.2zM778.9 542.7v-8.5h-2.6v-4h2.7v-5.8h4.9v5.8h4.6v4H784v7.9c0 1.5.4 2.4 1.2 3 .8.5 1.7.8 2.8.8.3 0 .6 0 .9-.1v4.4c-.8.1-1.3.1-1.5.1-.7 0-1.3 0-2-.1-.6-.1-1.4-.3-2.2-.6-.8-.3-1.5-.7-2.1-1.2-.6-.5-1.1-1.3-1.5-2.2-.5-1-.7-2.2-.7-3.5zM792.7 550.1V530h4.8v3.6l-.1 1.4h.1c.5-1.5 1.3-2.7 2.5-3.7s2.5-1.5 4-1.5c.2 0 .5 0 .9.1v4.9c-.3-.1-.7-.1-1.2-.1-2 0-3.4.7-4.4 2.1-1 1.4-1.5 3.2-1.5 5.2v8.2h-5.1zM806.6 544.6c0-1.4.4-2.6 1.2-3.6.8-1 1.8-1.7 3.1-2.2 1.3-.5 2.5-.8 3.7-1 1.2-.2 2.5-.3 3.8-.3h.9v-.3c0-2.4-1.3-3.6-3.8-3.6-1.8 0-3.7.6-5.6 1.9l-1.9-3.6c.9-.7 2-1.3 3.5-1.8s2.9-.7 4.4-.7c2.6 0 4.7.7 6.2 2.1 1.5 1.4 2.2 3.4 2.2 5.9V550h-4.7v-1.7l.1-1.5h-.1c-.6 1.1-1.5 2-2.7 2.6-1.1.7-2.4 1-3.7 1-1.9 0-3.4-.6-4.7-1.7-1.3-.9-1.9-2.4-1.9-4.1zm5-.5c0 .7.3 1.3.8 1.9.5.5 1.3.8 2.2.8 1.3 0 2.5-.6 3.3-1.7.9-1.1 1.3-2.3 1.3-3.6v-.6h-.9c-4.5 0-6.7 1.1-6.7 3.2zM828.2 540c0-3 1-5.5 3-7.5s4.7-3.1 7.9-3.1c1.5 0 2.9.3 4.3.8s2.6 1.3 3.5 2.3l-2.3 3.4c-1.5-1.5-3.2-2.2-5.2-2.2-1.8 0-3.3.6-4.4 1.8-1.1 1.2-1.7 2.7-1.7 4.5 0 1.8.6 3.3 1.7 4.5 1.2 1.2 2.7 1.8 4.6 1.8 2.2 0 4.2-.9 5.9-2.6l1.9 3.6c-.9 1-2.2 1.8-3.7 2.4-1.5.6-3 .9-4.6.9-3.3 0-5.9-1-7.9-3s-3-4.6-3-7.6zM852.1 542.7v-8.5h-2.6v-4h2.7v-5.8h4.9v5.8h4.6v4h-4.6v7.9c0 1.5.4 2.4 1.2 3 .8.5 1.7.8 2.8.8.3 0 .6 0 .9-.1v4.4c-.8.1-1.3.1-1.5.1-.7 0-1.3 0-2-.1-.6-.1-1.4-.3-2.2-.6-.8-.3-1.5-.7-2.1-1.2-.6-.5-1.1-1.3-1.5-2.2-.4-1-.6-2.2-.6-3.5zM865.8 526.5V522h5v4.5h-5zm0 23.6V530h5v20.2h-5zM881.4 550.1l-7.3-20.2h5.3l4.2 12.5.7 3h.1c.2-1.2.5-2.3.7-3l4.2-12.5h5.3l-7.2 20.2h-6zM899.3 547.6c-2.1-2-3.2-4.5-3.2-7.6 0-3.1 1.1-5.6 3.2-7.6s4.7-3 7.8-3c3.1 0 5.7 1 7.9 3 2.1 2 3.2 4.5 3.2 7.6 0 3.1-1.1 5.6-3.2 7.6s-4.8 3-7.9 3-5.7-1-7.8-3zm1.9-7.6c0 1.8.6 3.4 1.7 4.5 1.1 1.2 2.6 1.8 4.3 1.8s3.1-.6 4.3-1.8c1.2-1.2 1.7-2.7 1.7-4.5 0-1.8-.6-3.3-1.8-4.5-1.2-1.2-2.6-1.8-4.3-1.8-1.7 0-3.1.6-4.2 1.8-1.2 1.2-1.7 2.7-1.7 4.5zM556.5 592c0-1.4.4-2.6 1.2-3.6.8-1 1.8-1.7 3.1-2.2 1.3-.5 2.5-.8 3.7-1 1.2-.2 2.5-.3 3.8-.3h.9v-.3c0-2.4-1.3-3.6-3.8-3.6-1.8 0-3.7.6-5.6 1.9l-1.9-3.6c.9-.7 2-1.3 3.5-1.8s2.9-.7 4.4-.7c2.6 0 4.7.7 6.2 2.1 1.5 1.4 2.2 3.4 2.2 5.9v12.6h-4.7v-1.7l.1-1.5h-.1c-.6 1.1-1.5 2-2.7 2.6-1.1.7-2.4 1-3.7 1-1.9 0-3.4-.6-4.7-1.7-1.2-.8-1.9-2.3-1.9-4.1zm5-.4c0 .7.3 1.3.8 1.9.5.5 1.3.8 2.2.8 1.3 0 2.5-.6 3.3-1.7.9-1.1 1.3-2.3 1.3-3.6v-.6h-.9c-4.4 0-6.7 1.1-6.7 3.2zM579.1 590.4v-13h5v11.9c0 1.3.2 2.4.7 3.1.5.7 1.3 1 2.4 1 1.7 0 3.1-.7 4.1-2 1-1.3 1.5-2.9 1.5-4.8v-9.3h5v20.2H593v-2.4l.1-1.4h-.1c-.5 1.1-1.4 2.1-2.7 3-1.3.8-2.7 1.3-4.3 1.3-4.5.1-6.9-2.5-6.9-7.6zM603.3 597.6v-20.2h4.8v2.4l-.1 1.4h.1c.5-1.1 1.4-2.1 2.6-3 1.2-.9 2.5-1.3 4-1.3 3.1 0 5 1.4 5.9 4.2h.1c.6-1.1 1.5-2.1 2.8-2.9 1.2-.8 2.6-1.2 4.1-1.2 4.4 0 6.6 2.6 6.6 7.7v13h-5v-12c0-1.3-.2-2.3-.6-3-.4-.7-1.1-1-2.2-1-1.6 0-2.9.7-3.8 2.1-.9 1.4-1.3 3-1.3 4.9v9.1h-5v-12c0-1.3-.2-2.3-.6-3-.4-.7-1.1-1-2.2-1-1.6 0-2.9.7-3.8 2.1-.9 1.4-1.4 3-1.4 4.9v9.1h-5zM638.2 587.5c0-3.1 1-5.7 2.9-7.6 1.9-2 4.4-2.9 7.4-2.9 2.8 0 5 .9 6.6 2.7 1.6 1.8 2.4 4.1 2.4 6.9 0 .4-.1 1.1-.2 1.9h-13.9c.2 1.7.8 3 1.9 3.9 1.1.9 2.5 1.4 4.1 1.4 2 0 3.9-.7 5.8-2.2l2 3.6c-1 .9-2.2 1.6-3.7 2.1s-2.9.8-4.4.8c-3.2 0-5.9-1-7.9-3.1-2-2-3-4.5-3-7.5zm5.3-2.5h8.9c0-1.3-.4-2.4-1.2-3.1-.8-.8-1.7-1.1-2.9-1.1-1.3 0-2.3.4-3.2 1.2-.8.7-1.4 1.7-1.6 3zM661.6 597.6v-20.2h4.8v2.4l-.1 1.4h.1c.5-1.1 1.4-2.1 2.6-2.9 1.2-.9 2.7-1.3 4.6-1.3 4.7 0 7 2.6 7 7.7v13h-5v-11.9c0-1.3-.2-2.4-.7-3.1-.5-.7-1.3-1-2.5-1-1.7 0-3.1.6-4.2 1.9-1.1 1.3-1.6 2.8-1.6 4.7v9.5h-5zM686.8 590.2v-8.5h-2.6v-4h2.7v-5.8h4.9v5.8h4.6v4h-4.6v7.9c0 1.5.4 2.4 1.2 3 .8.5 1.7.8 2.8.8.3 0 .6 0 .9-.1v4.4c-.8.1-1.3.1-1.5.1-.7 0-1.3 0-2-.1-.6-.1-1.4-.3-2.2-.6-.8-.3-1.5-.7-2.1-1.2-.6-.5-1.1-1.3-1.5-2.2-.4-1.1-.6-2.2-.6-3.5zM699.1 592c0-1.4.4-2.6 1.2-3.6.8-1 1.8-1.7 3.1-2.2 1.3-.5 2.5-.8 3.7-1 1.2-.2 2.5-.3 3.8-.3h.9v-.3c0-2.4-1.3-3.6-3.8-3.6-1.8 0-3.7.6-5.6 1.9l-1.9-3.6c.9-.7 2-1.3 3.5-1.8s2.9-.7 4.4-.7c2.6 0 4.7.7 6.2 2.1 1.5 1.4 2.2 3.4 2.2 5.9v12.6H712v-1.7l.1-1.5h-.1c-.6 1.1-1.5 2-2.7 2.6-1.1.7-2.4 1-3.7 1-1.9 0-3.4-.6-4.7-1.7-1.2-.8-1.8-2.3-1.8-4.1zm4.9-.4c0 .7.3 1.3.8 1.9.5.5 1.3.8 2.2.8 1.3 0 2.5-.6 3.3-1.7.9-1.1 1.3-2.3 1.3-3.6v-.6h-.9c-4.4 0-6.7 1.1-6.7 3.2zM730.1 595.1l2.3-3.3c1.6 1.5 3.5 2.2 5.7 2.2.9 0 1.6-.2 2.1-.5.5-.4.7-.9.7-1.5s-.3-1.1-1-1.5c-.7-.4-1.5-.8-2.5-1.1-1-.3-2-.7-2.9-1.2-1-.5-1.8-1.1-2.5-2-.7-.9-1-1.9-1-3.1 0-1.9.7-3.4 2.2-4.5 1.5-1.1 3.3-1.6 5.5-1.6 2.8 0 5.1.8 6.8 2.3l-1.9 3.5c-.6-.5-1.4-.9-2.3-1.2-1-.3-1.9-.5-2.8-.5-1.9 0-2.8.6-2.8 1.9 0 .6.3 1.1 1 1.5.7.4 1.5.8 2.5 1.1 1 .3 2 .7 2.9 1.2 1 .4 1.8 1.1 2.5 2 .7.9 1 1.9 1 3.1 0 1.8-.7 3.3-2.1 4.5-1.4 1.2-3.2 1.8-5.5 1.8-3.2-.1-5.8-1.1-7.9-3.1zM749.6 590.4v-13h5v11.9c0 1.3.2 2.4.7 3.1.5.7 1.3 1 2.4 1 1.7 0 3.1-.7 4.1-2 1-1.3 1.5-2.9 1.5-4.8v-9.3h5v20.2h-4.8v-2.4l.1-1.4h-.1c-.5 1.1-1.4 2.1-2.7 3-1.3.8-2.7 1.3-4.3 1.3-4.5.1-6.9-2.5-6.9-7.6zM772.2 595.1l2.3-3.3c1.6 1.5 3.5 2.2 5.7 2.2.9 0 1.6-.2 2.1-.5.5-.4.7-.9.7-1.5s-.3-1.1-1-1.5c-.7-.4-1.5-.8-2.5-1.1-1-.3-2-.7-2.9-1.2-1-.5-1.8-1.1-2.5-2-.7-.9-1-1.9-1-3.1 0-1.9.7-3.4 2.2-4.5 1.5-1.1 3.3-1.6 5.5-1.6 2.8 0 5.1.8 6.8 2.3l-1.9 3.5c-.6-.5-1.4-.9-2.3-1.2-1-.3-1.9-.5-2.8-.5-1.9 0-2.8.6-2.8 1.9 0 .6.3 1.1 1 1.5.7.4 1.5.8 2.5 1.1 1 .3 2 .7 2.9 1.2 1 .4 1.8 1.1 2.5 2 .7.9 1 1.9 1 3.1 0 1.8-.7 3.3-2.1 4.5-1.4 1.2-3.2 1.8-5.5 1.8-3.2-.1-5.8-1.1-7.9-3.1zM806 597.6l-7.3-20.2h5.3l4.2 12.5.7 3h.1c.2-1.2.5-2.3.7-3l4.2-12.5h5.3l-7.2 20.2h-6zM820.6 587.5c0-3.1 1-5.7 2.9-7.6 1.9-2 4.4-2.9 7.4-2.9 2.8 0 5 .9 6.6 2.7 1.6 1.8 2.4 4.1 2.4 6.9 0 .4-.1 1.1-.2 1.9h-13.9c.2 1.7.8 3 1.9 3.9 1.1.9 2.5 1.4 4.1 1.4 2 0 3.9-.7 5.8-2.2l2 3.6c-1 .9-2.2 1.6-3.7 2.1s-2.9.8-4.4.8c-3.2 0-5.9-1-7.9-3.1-2-2-3-4.5-3-7.5zm5.3-2.5h8.9c0-1.3-.4-2.4-1.2-3.1-.8-.8-1.7-1.1-2.9-1.1-1.3 0-2.3.4-3.2 1.2-.8.7-1.3 1.7-1.6 3zM844.1 597.6v-20.2h4.8v2.4l-.1 1.4h.1c.5-1.1 1.4-2.1 2.6-2.9 1.2-.9 2.7-1.3 4.6-1.3 4.7 0 7 2.6 7 7.7v13h-5v-11.9c0-1.3-.2-2.4-.7-3.1-.5-.7-1.3-1-2.5-1-1.7 0-3.1.6-4.2 1.9-1.1 1.3-1.6 2.8-1.6 4.7v9.5h-5zM869.3 590.2v-8.5h-2.6v-4h2.7v-5.8h4.9v5.8h4.6v4h-4.6v7.9c0 1.5.4 2.4 1.2 3 .8.5 1.7.8 2.8.8.3 0 .6 0 .9-.1v4.4c-.8.1-1.3.1-1.5.1-.7 0-1.3 0-2-.1-.6-.1-1.4-.3-2.2-.6-.8-.3-1.5-.7-2.1-1.2-.6-.5-1.1-1.3-1.5-2.2-.4-1.1-.6-2.2-.6-3.5zM881.5 592c0-1.4.4-2.6 1.2-3.6.8-1 1.8-1.7 3.1-2.2 1.3-.5 2.5-.8 3.7-1 1.2-.2 2.5-.3 3.8-.3h.9v-.3c0-2.4-1.3-3.6-3.8-3.6-1.8 0-3.7.6-5.6 1.9l-1.9-3.6c.9-.7 2-1.3 3.5-1.8s2.9-.7 4.4-.7c2.6 0 4.7.7 6.2 2.1 1.5 1.4 2.2 3.4 2.2 5.9v12.6h-4.7v-1.7l.1-1.5h-.1c-.6 1.1-1.5 2-2.7 2.6-1.1.7-2.4 1-3.7 1-1.9 0-3.4-.6-4.7-1.7-1.3-.8-1.9-2.3-1.9-4.1zm5-.4c0 .7.3 1.3.8 1.9.5.5 1.3.8 2.2.8 1.3 0 2.5-.6 3.3-1.7.9-1.1 1.3-2.3 1.3-3.6v-.6h-.9c-4.5 0-6.7 1.1-6.7 3.2zM902.7 595.1l2.3-3.3c1.6 1.5 3.5 2.2 5.7 2.2.9 0 1.6-.2 2.1-.5.5-.4.7-.9.7-1.5s-.3-1.1-1-1.5c-.7-.4-1.5-.8-2.5-1.1-1-.3-2-.7-2.9-1.2-1-.5-1.8-1.1-2.5-2-.7-.9-1-1.9-1-3.1 0-1.9.7-3.4 2.2-4.5 1.5-1.1 3.3-1.6 5.5-1.6 2.8 0 5.1.8 6.8 2.3l-1.9 3.5c-.6-.5-1.4-.9-2.3-1.2-1-.3-1.9-.5-2.8-.5-1.9 0-2.8.6-2.8 1.9 0 .6.3 1.1 1 1.5.7.4 1.5.8 2.5 1.1 1 .3 2 .7 2.9 1.2 1 .4 1.8 1.1 2.5 2 .7.9 1 1.9 1 3.1 0 1.8-.7 3.3-2.1 4.5-1.4 1.2-3.2 1.8-5.5 1.8-3.2-.1-5.9-1.1-7.9-3.1z"/></g></svg>