<svg version="1.1" id="Capa_1" xmlns="http://www.w3.org/2000/svg" xmlns:xlink="http://www.w3.org/1999/xlink" x="0" y="0" width="1920" height="1080" style="enable-background:new 0 0 1920 1080" xml:space="preserve"><style>.st0{fill:#708cf5}.st1{fill:#fff}.st2{opacity:.36;fill:#4c65ba}.st3{opacity:.43;fill:#708cf5}.st4{fill:#ffaab5}.st5{opacity:.41}.st6,.st7{fill:#4c65ba}.st7{opacity:.41}.st8{opacity:.47;fill:#ecf1f7}.st10{fill:#f7c9bf}.st11{fill:#ff8e77}.st12{fill:#353148}.st13{opacity:.46;fill:#ff8e77}.st14{opacity:.31}.st15{fill:#f7eee6}.st16{fill:#f9cad0}.st17{opacity:.54;fill:#fff}.st18{fill:#b69cdc}.st20{opacity:.15;fill:#708cf5}.st21{fill:#f7a9b4}.st24{fill:#020202}</style><path class="st0" d="M1083.7 248.4c-.2-10.4-8.8-18.6-19.2-18.4l-91.9 1.8c-10.4.2-18.6 8.8-18.4 19.2l1.2 60.8c.2 10.4 8.8 18.6 19.2 18.4l19.7-.4 25.7 24.7 24.7-25.7 21.7-.4c10.4-.2 18.6-8.8 18.4-19.2l-1.1-60.8z"/><path class="st1" d="M1019.5 308.8c-.4 0-.7-.2-1.1-.5-6.4-5.2-12.6-10.9-18.6-16.4l-1.2-1c-5.3-4.8-11.3-11.5-10.7-20.2.6-9.1 7.9-16 17-16 5.9 0 11.4 3.1 14.6 7.9 3.2-4.8 8.7-7.9 14.6-7.9 7 0 13.5 4.3 16.2 10.8.9 2.2 1.3 4.5 1.3 6.8-.2 8.2-6.3 14.4-11.9 19.5l-.8.7c-14.6 13.4-17.9 16.3-19.4 16.3zm-14.6-50.3c-7.1 0-12.7 5.2-13.2 12.4-.5 7.1 4.8 12.8 9.5 17.1l1.2 1c5.6 5.1 11.5 10.4 17.4 15.4 1.6-1.2 5.7-4.8 16.5-14.7l.8-.7c5.3-4.8 10.4-10.1 10.6-16.8.1-1.8-.3-3.5-1-5.2-2.1-5-7.2-8.4-12.6-8.4-5.6 0-10.8 3.6-12.8 8.9l-1.8 4.9-1.8-4.9c-2-5.4-7.1-9-12.8-9z"/><path class="st2" d="M827.7 460.9H639.6c-4.2 0-7.5-3.4-7.5-7.5V198.7c0-4.2 3.4-7.5 7.5-7.5h188.1c4.2 0 7.5 3.4 7.5 7.5v254.7c.1 4.1-3.3 7.5-7.5 7.5z"/><path class="st1" d="M820.4 454.6H632.3c-4.2 0-7.5-3.4-7.5-7.5V191.2c0-4.2 3.4-7.5 7.5-7.5h188.1c4.2 0 7.5 3.4 7.5 7.5v255.9c.1 4.1-3.3 7.5-7.5 7.5z"/><path class="st3" d="M633.3 228.8h186v186h-186z"/><defs><path id="SVGID_1_" d="M633.3 228.8h186v186h-186z"/></defs><clipPath id="SVGID_2_"><use xlink:href="#SVGID_1_" style="overflow:visible"/></clipPath><defs><path id="SVGID_3_" d="M633 239.1h185.9v175.7H633z"/></defs><clipPath id="SVGID_4_"><use xlink:href="#SVGID_3_" style="overflow:visible"/></clipPath><path class="st4" d="M642.8 435.7c.6.5 6.7 6 6.9 5.9 2.4-2 4.8-4.2 7.1-6.4 2.1-2 4.2-4.5 3.5-7.7-.5-2.1-2.2-3.8-4.3-4.1-2.7-.5-5.1 1-6.1 3.1-.1.2-.4.2-.5 0-1.1-2.2-3.7-3.6-6.5-2.9-1.5.4-2.8 1.4-3.6 2.8-.5.9-.7 1.8-.6 2.7.1 2.8 2.2 4.8 4.1 6.6z"/><g class="st5"><path class="st6" d="M695.5 433.9c-.4 0-.8-.2-1-.5l-5-7.7c-.2-.4-.3-.8 0-1.2s.6-.6 1.1-.6h18.2c.6 0 1 .4 1.2.9.1.5-.1 1.1-.6 1.4l-13.2 7.7h-.7zm-3.7-8.2 3.9 6 10.3-6h-14.2zm-.7-1.1z"/><path class="st6" d="M699.9 442.1c-.5 0-.9-.3-1.1-.7l-4.2-8.2c-.3-.6-.1-1.3.5-1.6l13.3-7.6c.5-.3 1.1-.2 1.5.2.4.4.5 1 .2 1.5l-9.1 15.8c-.3.3-.7.6-1.1.6zm-3.2-9.1 3.3 6.4 7-12.4-10.3 6zm-.6.3z"/></g><path class="st7" d="M682 440.8h-6.9c-4.9 0-8.8-4-8.8-8.8 0-4.9 4-8.8 8.8-8.8 4.9 0 8.8 4 8.8 8.8v6.9c0 1.1-.9 1.9-1.9 1.9zm-6.9-15.7c-3.8 0-6.9 3.1-6.9 6.9s3.1 6.9 6.9 6.9h6.9V432c0-3.8-3.1-6.9-6.9-6.9zM802.6 438.2c-.2 0-.4 0-.5-.1-.5-.2-.8-.7-.8-1.3v-14.4c0-.8.6-1.4 1.4-1.4h11.7c.8 0 1.4.6 1.4 1.4v14.4c0 .6-.3 1.1-.9 1.3-.5.2-1.1.1-1.5-.3l-4.8-4.8-4.9 4.9c-.4.2-.8.3-1.1.3zm.5-15.2v12.5l4.3-4.3c.5-.5 1.4-.5 1.9 0l4.3 4.3V423h-10.5zm5.7 9.5z"/><g><path class="st3" d="M659.5 207.1c0 6.8-5.5 12.3-12.3 12.3-6.8 0-12.3-5.5-12.3-12.3 0-6.8 5.5-12.3 12.3-12.3 6.8 0 12.3 5.5 12.3 12.3z"/><path class="st1" d="M647.2 211.6c-3 0-5.5-2.5-5.5-5.5s2.5-5.5 5.5-5.5 5.5 2.5 5.5 5.5-2.5 5.5-5.5 5.5zm0-9.1c-2 0-3.6 1.6-3.6 3.6s1.6 3.6 3.6 3.6 3.6-1.6 3.6-3.6-1.6-3.6-3.6-3.6z"/><path class="st1" d="M655.6 216.4c-.5 0-1-.4-1-1 0-2.1-1.7-3.8-3.8-3.8h-7.3c-2.1 0-3.8 1.7-3.8 3.8 0 .5-.4 1-1 1-.5 0-1-.4-1-1 0-3.2 2.6-5.7 5.7-5.7h7.3c3.2 0 5.7 2.6 5.7 5.7.2.5-.3 1-.8 1z"/></g><g><circle class="st7" cx="815.3" cy="198.7" r="1.8"/><path class="st7" d="M817.1 208c0 1-.8 1.8-1.8 1.8s-1.8-.8-1.8-1.8.8-1.8 1.8-1.8 1.8.7 1.8 1.8zM817.1 216.5c0 1-.8 1.8-1.8 1.8s-1.8-.8-1.8-1.8.8-1.8 1.8-1.8 1.8.8 1.8 1.8z"/></g><g><path class="st2" d="M760.4 734.6H555.5c-4.2 0-7.5-3.4-7.5-7.5v-277c0-4.2 3.4-7.5 7.5-7.5h204.9c4.2 0 7.5 3.4 7.5 7.5v277c0 4.1-3.4 7.5-7.5 7.5z"/><path class="st1" d="M752.5 727.8H547.6c-4.2 0-7.5-3.4-7.5-7.5V442c0-4.2 3.4-7.5 7.5-7.5h204.9c4.2 0 7.5 3.4 7.5 7.5v278.2c0 4.2-3.4 7.6-7.5 7.6z"/><path class="st3" d="M549.3 483.3h201.4v201.4H549.3z"/><path class="st8" d="M589.4 523.8c-8.2 0-14.9-6.7-14.9-14.9s6.7-14.9 14.9-14.9 14.9 6.7 14.9 14.9-6.7 14.9-14.9 14.9zm0-27.8c-7.1 0-12.9 5.8-12.9 12.9 0 7.1 5.8 12.9 12.9 12.9 7.1 0 12.9-5.8 12.9-12.9 0-7.1-5.8-12.9-12.9-12.9zM575.5 563.8c-4.9 0-8.9-4-8.9-8.9s4-8.9 8.9-8.9 8.9 4 8.9 8.9c.1 4.9-4 8.9-8.9 8.9zm0-15.9c-3.9 0-7 3.1-7 7s3.1 7 7 7 7-3.1 7-7-3.1-7-7-7zM725 533.2c-4.6 0-8.3-3.7-8.3-8.3 0-4.6 3.7-8.3 8.3-8.3 4.6 0 8.3 3.7 8.3 8.3 0 4.6-3.7 8.3-8.3 8.3zm0-14.7c-3.5 0-6.4 2.8-6.4 6.4 0 3.5 2.8 6.4 6.4 6.4 3.5 0 6.4-2.8 6.4-6.4 0-3.5-2.9-6.4-6.4-6.4zM734 589.8c-2.7 0-5-2.2-5-5 0-2.7 2.2-5 5-5s5 2.2 5 5-2.3 5-5 5zm0-7.9c-1.7 0-3 1.4-3 3 0 1.7 1.4 3 3 3s3-1.4 3-3c0-1.7-1.3-3-3-3z"/><defs><path id="SVGID_5_" d="M549.3 483.3h201.4v201.4H549.3z"/></defs><clipPath id="SVGID_6_"><use xlink:href="#SVGID_5_" style="overflow:visible"/></clipPath><g style="clip-path:url(#SVGID_6_)"><path class="st8" d="M639.3 590.9c-3.8 0-6.9-3.1-6.9-6.9 0-3.8 3.1-6.9 6.9-6.9 3.8 0 6.9 3.1 6.9 6.9.1 3.8-3 6.9-6.9 6.9zm0-11.9c-2.7 0-5 2.2-5 5 0 2.7 2.2 5 5 5 2.7 0 5-2.2 5-5s-2.2-5-5-5zM636.8 618.6c-2.4 0-4.4-2-4.4-4.4 0-2.4 2-4.4 4.4-4.4 2.4 0 4.4 2 4.4 4.4 0 2.4-2 4.4-4.4 4.4zm0-6.8c-1.4 0-2.5 1.1-2.5 2.5s1.1 2.4 2.5 2.4 2.4-1.1 2.4-2.4c.1-1.4-1-2.5-2.4-2.5zM615.2 580.5c-2.3 0-4.1-1.8-4.1-4.1s1.8-4.1 4.1-4.1 4.1 1.8 4.1 4.1-1.8 4.1-4.1 4.1zm0-6.2c-1.2 0-2.2 1-2.2 2.2 0 1.2 1 2.2 2.2 2.2 1.2 0 2.2-1 2.2-2.2 0-1.3-1-2.2-2.2-2.2zM581.4 643.2c-1.5 0-2.7-1.2-2.7-2.7 0-1.5 1.2-2.7 2.7-2.7s2.7 1.2 2.7 2.7c0 1.5-1.2 2.7-2.7 2.7zm0-3.4c-.4 0-.7.3-.7.7s.3.7.7.7.7-.3.7-.7-.3-.7-.7-.7z"/><path class="st10" d="m741.7 655.8.6 55.9c-.2 7.6-7.2 13.6-15.6 13.4-9.7-.3-17.4-7.7-17.1-16.4l1.7-57.4 30.4 4.5z"/><path class="st1" d="m712.7 610.6-.2.4c-.2-.1-.4-.2-.6-.2l-31.3-6.2-56.2 6.1s-21.6-4.2-51.3 44.1l7.2 3.3 30.1 13.7 5 2.3.2-.4 7.6 52.7h81.6l7.2-55 32.9-1.1c-10.6-55.9-32.2-59.7-32.2-59.7z"/><path class="st0" d="m628 612.2 4.4 27.7c.1.7.6 1.3 1.2 1.5l28.5 11.8c.6.3 1.3.2 1.9-.2l26.9-18.2c.5-.4.9-.9.9-1.6l1-23.9c.1-1.3 1.3-2.2 2.5-1.9h.1c.9.2 1.5 1 1.5 1.9v28c0 .4.1.7.3 1l14.8 25.2c.2.4.3.8.3 1.2l-6.9 59.6c-.1 1-1.8 1.2-2.8 1.1l-78.3.7c-1 0-1.8-.7-1.9-1.6l-10-55.2c-.1-.5 0-1 .3-1.4l15.4-24.6c.2-.4.3-.9.3-1.3l-4-29.3c-.1-.9.4-1.9 1.3-2.2.8-.3 2.1.4 2.3 1.7z"/><g><path class="st10" d="m610.4 671.6-13.9-6.3-2.5-36.5h.1s7.6-21.9 6.4-26.9c-.7-3-3.3-4.4-5.1-5-1.2-.4-2.5-.3-3.7.1l-1.2.4 2.8-18.6c.3-1.9-1-3.7-2.9-4l-1.5-.2c-1.9-.3-3.7 1-4 2.9l-2.4 16-5.6-14.2c-.7-1.8-2.7-2.7-4.5-2l-1.4.5c-1.8.7-2.7 2.7-2 4.5l6.6 16.8c-4.8 1.9-13.7 6.8-8.4 14.9 2.1 3.3 3.5 6 4.3 8.2-1 4.7-2.1 9.4-3.1 14.1-1.9 8.9-3.9 17.7-5.8 26.6-2 9-3.8 17.3-1.5 25.8-1.2 5.9 1.2 12.3 6.6 15.8 5.1 3.3 11.3 3.7 16.6 1.4.3-.1.7-.2 1-.3 6.6-2.5 11.3-8.3 12.5-15.1l12.6-18.9z"/><path class="st11" d="M579.3 624c-.1 0-.1 0 0 0-.3 0-.5-.2-.5-.5 0-.5.6-11.3 7.1-15.5l-2.5.3c-1.6.2-3.3-.3-4.5-1.4-1.2-1.1-2-2.6-2-4.3v-.3l13.9-5.8c1.3-.5 2.7-.6 4.1-.3 2.1.5 4.7 1.8 5.6 4.9.1.3-.1.5-.3.6-.3.1-.5-.1-.6-.3-.8-2.7-3.1-3.8-4.9-4.3-1.1-.3-2.4-.2-3.4.2l-13.3 5.6c.1 1.2.7 2.4 1.6 3.2 1 .9 2.4 1.3 3.7 1.1l6.3-.8.2 1c-9.2 1.8-10 15.9-10 16-.1.4-.3.6-.5.6z"/><path class="st11" d="M572.5 621.5h-.3c-.7-.1-1.4-.5-1.8-1.1l-3.6-5.6c-.1-.2-.1-.5.1-.7.2-.1.5-.1.7.1l3.6 5.6c.3.4.7.6 1.1.7.5.1.9-.1 1.3-.4 1.3-1.2 1.6-3.2.8-4.7l-3.9-7.3.8-.5 4.6 7.5c.3.5.9.9 1.5 1 .6.1 1.2 0 1.8-.4.9-.7 1.3-1.9.9-2.9l-3.4-9.4c-.1-.3 0-.5.3-.6.3-.1.5 0 .6.3l3.4 9.4c.5 1.5 0 3.1-1.2 4-.7.5-1.6.7-2.5.6-.5-.1-1-.3-1.5-.7.3 1.6-.2 3.3-1.5 4.5-.5.3-1.1.6-1.8.6z"/></g><g><path class="st12" d="M714.6 596.7c-.4-7.2-5.7-12.7-8.2-19.2-3.3-8.4.7-16.2 1.9-24.5 1.1-7.8-.9-15.9-4.9-22.8-4-6.8-9.8-12.5-16.4-16.9-3.9-2.6-8-4.9-12.5-6.1-4.5-1.2-9.4-1.4-13.8 0-2 .6-3.8 1.6-5.5 2.7-3.1 1-6 2.4-8.6 4.2-1.1-2.1-3.1-3.6-5.4-3.6-1.9 0-3.6.9-4.8 2.5-4.7-4.7-11.4-6-16.3-2.7-5.6 3.8-6.4 12.3-1.9 18.9 2 2.9 4.6 4.9 7.5 6-3.4 1.7-6.6 3.5-9.1 6.4-3.6 4.2-5.6 9.9-5 15.4.4 4 2 8.2.2 11.8-1 2-2.9 3.4-4.6 4.9-1.6 1.5-3.1 3.6-2.8 5.9.4 3 3.7 4.5 6.5 5.4 4.3 1.3 8.7 2.2 13.1 3.1 28 5.6 56 10.9 84.4 14.6 1 .1 2.1.3 3.1-.1 2.5-.7 3.3-3.5 3.1-5.9z"/><path class="st10" d="m690.6 561.4-.9-.1 1-7.2-4.2-.7-2.4-9.7-1 9.1-11.8-2-4.4-12.7-2 11.7-13.4-2.3c-4.4-.7-8.2-3.2-10.7-6.5-.4 1.3-.6 2.6-.8 3.9l-1 7.8h-.5c-4.6-.8-9 2.3-9.8 7l-.2 1.5c-.8 4.6 2.3 9 7 9.8l.9.2h.2l-.5 3.8c-1.2 9.1 2.2 17.6 8.3 23.2v10.1c0 8.3 6.7 15.1 15 15.1h2.6c8.3 0 15.1-6.7 15.1-15v-9.2c5.2-4.1 9-10.3 9.9-17.6l.2-1.8h.2c4.6.8 9-2.3 9.8-7l.2-1.5c1-4.7-2.1-9.1-6.8-9.9z"/><path class="st13" d="M684.3 583.6c-2.1 12.1-13.5 20.2-25.6 18.1l-3.8-.7c-12.1-2.1-20.2-13.5-18.1-25.6l.7-4.2-1.1-.2-.5 3.8c-1.4 10.4 3.3 20.1 11.2 25.4 1.2 6.3 6.7 11 13.4 11.1 6.3 0 11.6-4.3 13.2-10.1 6.9-3.9 12-11.1 13.2-19.8l.2-1.8-2-.3-.8 4.3z"/><g><image style="overflow:visible" width="85" height="79" xlink:href="5BD746A0.png" transform="translate(634.414 536.65)" class="st14"/><image style="overflow:visible" width="84" height="79" xlink:href="5BD746A1.png" transform="translate(603.414 530.65)" class="st14"/><path class="st11" d="M633.7 564c-.2 0-.3-.1-.4-.2-.1-.2-.1-.5.2-.7l2-1.2-2.1-3.2c-.1-.2-.1-.5.1-.7.2-.1.5-.1.7.1l2.7 4.1-2.9 1.7c-.1.1-.2.1-.3.1zM691.2 573.5c-.1 0-.3-.1-.4-.2l-2.2-2.5 3.9-3c.2-.2.5-.1.7.1.2.2.1.5-.1.7L690 571l1.5 1.8c.2.2.2.5 0 .7-.1-.1-.2 0-.3 0z"/><path class="st13" d="M655 591.7c.2 0 .4 0 .5-.2.8-1 2.1-1.5 3.4-1.3 1.3.2 2.3 1.1 2.8 2.2.1.3.4.4.7.3.3-.1.4-.4.3-.7-.6-1.6-2-2.7-3.7-3-1.7-.3-3.4.4-4.4 1.7-.2.2-.2.6.1.8.1.2.2.2.3.2z"/><path class="st12" d="M657.8 560.1c-.6.3-1.4.2-2.1.3h-2.2c-.7 0-1.4.1-2.2.2-.8.1-1.5.2-2.1-.1-.6-.2-.8-.9-.2-1.8.6-.9 2.2-1.8 4.4-1.9 2.2-.1 3.9.7 4.5 1.5.7.8.5 1.5-.1 1.8zM679.4 557.5c-.7.2-1.5-.1-2.2-.2-.8-.2-1.6-.3-2.2-.5-.7-.1-1.5-.2-2.3-.3-.8-.1-1.6-.2-2.2-.5-.5-.4-.7-1.1.2-1.9.8-.7 2.7-1.4 5-1 2.3.4 3.8 1.6 4.3 2.6.4 1 0 1.7-.6 1.8zM672.3 567.5c-.2 1 .5 2 1.5 2.2 1 .2 2-.5 2.2-1.5.2-1-.5-2-1.5-2.2-1-.2-2 .5-2.2 1.5z"/><path class="st11" d="M676.2 571.5c-.2 0-.4-.1-.5-.3 0-.1-.6-1.9-4.2-.9-.3.1-.5-.1-.6-.3-.1-.3.1-.5.3-.6 4.5-1.2 5.4 1.6 5.4 1.6.1.3-.1.5-.3.6l-.1-.1z"/><path class="st12" d="M655.2 566.8c-.1 0-.2 0-.3-.1-.1-.1-2-1.5-4.4-.5-.2.1-.5 0-.6-.3-.1-.2 0-.5.3-.6 2.9-1.3 5.3.6 5.4.6.2.2.2.5.1.7-.2.1-.4.2-.5.2z"/><path class="st15" d="M631.6 566.7c-.2.9.5 1.8 1.4 2 .9.2 1.8-.5 2-1.4.2-.9-.5-1.8-1.4-2-1-.1-1.9.5-2 1.4zM689.6 576c-.2.9.5 1.8 1.4 2 .9.2 1.8-.5 2-1.4.2-.9-.5-1.8-1.4-2-1-.1-1.9.5-2 1.4z"/><path class="st11" d="M663.8 572.8h-.5l-3.4-.5c-.3 0-.4-.3-.4-.5 0-.3.3-.5.5-.4l3.4.5c.7.1 1.4-.1 2-.5.6-.4.9-1.1 1-1.8l.1-.9c.1-.8-.4-1.6-1.2-1.8l-1.3-.3.5-6.3c0-.3.2-.5.5-.4.3 0 .5.3.4.5l-.4 5.5.5.1c1.3.3 2.1 1.5 2 2.8l-.1.9c-.1 1-.6 1.9-1.4 2.5-.6.3-1.4.6-2.2.6z"/><path class="st1" d="M653 572s4.8 3 10 4.3c5.1 1.3.1 9.5-7.7 8-8-1.5-6.5-13.7-2.3-12.3z"/></g></g></g><defs><path id="SVGID_7_" d="M549 494.5h201.2v190.2H549z"/></defs><clipPath id="SVGID_8_"><use xlink:href="#SVGID_7_" style="overflow:visible"/></clipPath><path class="st4" d="M559.6 707.3c.6.6 7.2 6.5 7.4 6.4 2.6-2.2 5.2-4.6 7.7-6.9 2.3-2.1 4.6-4.9 3.7-8.3-.5-2.3-2.4-4.1-4.7-4.5-2.9-.5-5.5 1-6.6 3.4-.1.2-.4.2-.5 0-1.2-2.4-4-3.9-7-3.2-1.6.4-3.1 1.6-3.8 3.1-.5 1-.7 2-.7 3 .1 2.8 2.4 5.1 4.5 7z"/><g class="st5"><path class="st6" d="M616.6 705.3c-.4 0-.8-.2-1-.6l-5.4-8.3c-.2-.4-.3-.9 0-1.3.2-.4.6-.6 1.1-.6H631c.6 0 1 .4 1.2.9.1.5-.1 1.1-.6 1.4l-14.3 8.3c-.3.1-.5.2-.7.2zm-4.1-8.9 4.3 6.7 11.5-6.7h-15.8zm-.7-1.1z"/><path class="st6" d="M621.4 714.1s-.1 0 0 0c-.5 0-.9-.3-1.1-.7l-4.5-8.9c-.3-.6-.1-1.3.5-1.6l14.4-8.3c.5-.3 1.1-.2 1.5.2.4.4.5 1 .2 1.5l-9.9 17.1c-.3.5-.7.7-1.1.7zm-.6-1.6zm-3-8.2 3.6 7.1 7.9-13.7-11.5 6.6zm-.6.3z"/></g><path class="st7" d="M602 712.7h-7.5c-5.2 0-9.5-4.2-9.5-9.5s4.3-9.5 9.5-9.5 9.5 4.2 9.5 9.5v7.5c0 1.1-.9 2-2 2zm-7.5-17c-4.2 0-7.5 3.4-7.5 7.5 0 4.2 3.4 7.5 7.5 7.5h7.5l.1-7.5c-.1-4.1-3.4-7.5-7.6-7.5zM732.5 709.9c-.2 0-.4 0-.5-.1-.5-.2-.9-.7-.9-1.3v-15.6c0-.8.6-1.4 1.4-1.4h12.6c.8 0 1.4.6 1.4 1.4v15.6c0 .6-.3 1.1-.9 1.3-.5.2-1.1.1-1.5-.3l-5.3-5.3-5.3 5.3c-.3.3-.6.4-1 .4zm.5-16.5v13.8l4.8-4.8c.6-.6 1.4-.6 2 0l4.8 4.8v-13.8H733z"/><g><path class="st3" d="M577.6 459.8c0 7.3-5.9 13.3-13.3 13.3-7.3 0-13.3-5.9-13.3-13.3 0-7.3 5.9-13.3 13.3-13.3s13.3 6 13.3 13.3z"/><path class="st1" d="M564.3 464.6c-3.2 0-5.9-2.6-5.9-5.9s2.6-5.9 5.9-5.9 5.9 2.6 5.9 5.9-2.6 5.9-5.9 5.9zm0-9.8c-2.2 0-3.9 1.8-3.9 3.9s1.8 3.9 3.9 3.9c2.2 0 3.9-1.8 3.9-3.9s-1.7-3.9-3.9-3.9z"/><path class="st1" d="M573.4 469.8c-.5 0-1-.4-1-1 0-2.3-1.9-4.2-4.2-4.2h-7.9c-2.3 0-4.2 1.9-4.2 4.2 0 .5-.4 1-1 1-.5 0-1-.4-1-1 0-3.4 2.7-6.1 6.1-6.1h7.9c3.4 0 6.1 2.7 6.1 6.1.2.6-.2 1-.8 1z"/></g><g><path class="st7" d="M748.3 450.8c0 1.1-.9 2-2 2s-2-.9-2-2 .9-2 2-2 2 .9 2 2z"/><circle class="st7" cx="746.3" cy="460.8" r="2"/><circle class="st7" cx="746.3" cy="470" r="2"/></g></g><g><path class="st16" d="M793.4 333.6h-27.8l-26.8 20.3-24.3-20.3h-30.3c-6.7 0-12.2-5.5-12.2-12.2v-53.6c0-6.7 5.5-12.2 12.2-12.2h109.1c6.7 0 12.2 5.5 12.2 12.2v53.6c.1 6.7-5.4 12.2-12.1 12.2z"/><path class="st1" d="M710.5 312.2c-.8 0-2.8-1.7-11.9-9.9l-.5-.4c-3.5-3.1-7.2-6.9-7.4-11.8-.1-1.8.3-3.5 1.2-5.1 1.4-2.6 3.9-4.6 6.7-5.3 4.6-1.1 9.2.7 11.7 4.6 2.2-3.8 6.6-5.8 11-5 3.9.7 7.2 3.8 8.1 7.8 1.4 6-2.6 10.7-6.2 14l-.7.7c-3.7 3.4-7.5 6.9-11.4 10.2-.2.1-.4.2-.6.2zm-9.3-30.9c-.7 0-1.5.1-2.2.3-2.3.6-4.3 2.2-5.4 4.3-.7 1.3-1 2.7-1 4.2.2 4.2 3.4 7.5 6.8 10.5l.5.5c7.1 6.4 9.6 8.4 10.5 9.1 3.7-3.1 7.3-6.5 10.8-9.7l.7-.7c3.2-3 6.8-7.1 5.6-12.2-.8-3.2-3.4-5.8-6.6-6.3-3.9-.7-7.7 1.2-9.4 4.8-.2.5-.7.8-1.3.8-.5 0-1-.3-1.3-.8-1.4-3.1-4.5-4.8-7.7-4.8zm8.6 3.8zM740.1 286.5v2.9l2.8-1.7v17h2.9v-20.1h-2.9zM756.1 284.3c-1.9 0-3.3.5-4.3 1.5s-1.5 2.4-1.5 4.2v9.2c0 1.8.5 3.2 1.5 4.2s2.4 1.5 4.3 1.5 3.3-.5 4.3-1.5 1.5-2.4 1.5-4.2V290c0-1.8-.5-3.2-1.5-4.2s-2.4-1.5-4.3-1.5zm2.9 14.9c0 1-.2 1.7-.7 2.3-.5.5-1.2.8-2.2.8-1 0-1.7-.3-2.2-.8-.5-.5-.7-1.3-.7-2.3V290c0-1 .2-1.7.7-2.3.5-.5 1.2-.8 2.2-.8 1 0 1.7.3 2.2.8.5.5.7 1.3.7 2.3v9.2zM771.7 284.3c-1.9 0-3.3.5-4.3 1.5s-1.5 2.4-1.5 4.2v9.2c0 1.8.5 3.2 1.5 4.2s2.4 1.5 4.3 1.5 3.3-.5 4.3-1.5 1.5-2.4 1.5-4.2V290c0-1.8-.5-3.2-1.5-4.2-.9-1-2.4-1.5-4.3-1.5zm3 14.9c0 1-.2 1.7-.7 2.3-.5.5-1.2.8-2.2.8-1 0-1.7-.3-2.2-.8-.5-.5-.7-1.3-.7-2.3V290c0-1 .2-1.7.7-2.3.5-.5 1.2-.8 2.2-.8 1 0 1.7.3 2.2.8.5.5.7 1.3.7 2.3v9.2zM797.6 294.1h-4.2v-4.3h-2.8v4.3h-4.2v2.7h4.2v4.3h2.8v-4.3h4.2z"/></g><g><path class="st0" d="M800.8 504H676.6c-1.4 0-2.6-1.1-2.6-2.6V377.3c0-1.4 1.1-2.6 2.6-2.6h124.2c1.4 0 2.6 1.1 2.6 2.6v124.2c-.1 1.4-1.2 2.5-2.6 2.5z"/><path class="st1" d="M787.1 407.5h-35.4c-.7 0-1.2-.5-1.2-1.2s.5-1.2 1.2-1.2h35.4c.7 0 1.2.5 1.2 1.2s-.5 1.2-1.2 1.2zM787.1 422.2h-35.4c-.7 0-1.2-.5-1.2-1.2s.5-1.2 1.2-1.2h35.4c.7 0 1.2.5 1.2 1.2 0 .6-.5 1.2-1.2 1.2zM787.1 436.8h-35.4c-.7 0-1.2-.5-1.2-1.2s.5-1.2 1.2-1.2h35.4c.7 0 1.2.5 1.2 1.2s-.5 1.2-1.2 1.2z"/><g><circle transform="rotate(-63.54 714.564 419.746)" class="st17" cx="714.6" cy="419.8" r="26.2"/><path class="st1" d="M714.5 422.1c-4.2 0-7.6-3.4-7.6-7.6 0-4.2 3.4-7.6 7.6-7.6 4.2 0 7.6 3.4 7.6 7.6.1 4.2-3.3 7.6-7.6 7.6zm0-13.3c-3.1 0-5.7 2.6-5.7 5.7s2.6 5.7 5.7 5.7 5.7-2.6 5.7-5.7-2.5-5.7-5.7-5.7z"/><path class="st1" d="M723.6 434.6h-18c-1.9 0-3.5-1.6-3.5-3.5 0-5.7 4.6-10.3 10.3-10.3h5.5c5 0 9.2 4.1 9.2 9.2v1.2c0 1.8-1.6 3.4-3.5 3.4zm-11.2-11.9c-4.6 0-8.4 3.8-8.4 8.4 0 .9.7 1.6 1.6 1.6h18c.9 0 1.6-.7 1.6-1.6v-1.2c0-4-3.2-7.2-7.2-7.2h-5.6z"/></g><path class="st17" d="M766.7 477.4H722c-4 0-7.4-3.3-7.4-7.4 0-4 3.3-7.4 7.4-7.4h44.7c4 0 7.4 3.3 7.4 7.4-.1 4-3.4 7.4-7.4 7.4z"/></g><g><path class="st4" d="M647.6 325.2c-.1-5.9-5-10.6-10.9-10.5l-52.5 1c-5.9.1-10.6 5-10.5 10.9l.7 34.7c.1 5.9 5 10.6 10.9 10.5l11.3-.2 14.7 14.1 14.1-14.7 12.4-.2c5.9-.1 10.6-5 10.5-10.9l-.7-34.7z"/><path class="st1" d="M610.9 359.5c-.2 0-.4-.1-.6-.3-3.6-3-7.2-6.2-10.7-9.4l-.6-.6c-3-2.7-6.4-6.5-6.1-11.4.4-5.1 4.5-9 9.6-9 3.4 0 6.5 1.8 8.3 4.6 1.8-2.8 4.9-4.6 8.3-4.6 3.9 0 7.6 2.4 9.1 6.1.5 1.2.8 2.5.7 3.8-.1 4.6-3.5 8.1-6.7 11.1l-.5.4c-8.2 7.7-10 9.3-10.8 9.3zm-8.4-28.7c-4.2 0-7.4 3-7.7 7.2-.3 4.1 2.8 7.4 5.5 9.9l.6.6c3.3 3 6.6 6 10.1 8.9.8-.7 3.2-2.6 9.5-8.5l.5-.4c3-2.8 6-5.8 6.1-9.7 0-1-.2-2-.6-3-1.2-2.9-4.2-4.9-7.3-4.9-3.3 0-6.3 2.1-7.4 5.2l-.9 2.4-.9-2.4c-1.2-3.2-4.2-5.3-7.5-5.3z"/></g><g><circle transform="rotate(-45.001 526.092 528.352)" class="st18" cx="526.1" cy="528.3" r="35.6"/><path class="st1" d="M526 531.2c-5.5 0-10-4.5-10-10s4.5-10 10-10 10 4.5 10 10c.1 5.5-4.4 10-10 10zm0-18.1c-4.5 0-8.1 3.6-8.1 8.1s3.6 8.1 8.1 8.1 8.1-3.6 8.1-8.1-3.6-8.1-8.1-8.1z"/><path class="st1" d="M538.3 548.1h-24.5c-2.4 0-4.4-2-4.4-4.4 0-7.6 6.1-13.7 13.7-13.7h7.5c6.7 0 12.1 5.4 12.1 12.1v1.6c0 2.4-2 4.4-4.4 4.4zm-15.2-16.2c-6.5 0-11.8 5.3-11.8 11.8 0 1.4 1.1 2.5 2.5 2.5h24.5c1.4 0 2.5-1.1 2.5-2.5v-1.6c0-5.6-4.6-10.2-10.2-10.2h-7.5z"/><g><path class="st0" d="M571.3 530.2c0 6.6-5.4 12-12 12s-12-5.4-12-12 5.4-12 12-12 12 5.4 12 12z"/><path class="st1" d="M565.4 530.9h-12.2c-.4 0-.7-.3-.7-.7 0-.4.3-.7.7-.7h12.2c.4 0 .7.3.7.7 0 .4-.3.7-.7.7z"/><path class="st1" d="M559.3 537c-.4 0-.7-.3-.7-.7v-12.2c0-.4.3-.7.7-.7s.7.3.7.7v12.2c0 .4-.3.7-.7.7z"/></g></g><g><path class="st2" d="M1487.4 822.5h-188.1c-4.2 0-7.5-3.4-7.5-7.5V560.2c0-4.2 3.4-7.5 7.5-7.5h188.1c4.2 0 7.5 3.4 7.5 7.5v254.7c0 4.2-3.4 7.6-7.5 7.6z"/><path class="st1" d="M1480.1 816.2H1292c-4.2 0-7.5-3.4-7.5-7.5V552.8c0-4.2 3.4-7.5 7.5-7.5h188.1c4.2 0 7.5 3.4 7.5 7.5v255.9c0 4.1-3.4 7.5-7.5 7.5z"/><path class="st3" d="M1293 590.3h186v186h-186z"/><defs><path id="SVGID_9_" d="M1293 590.3h186v186h-186z"/></defs><clipPath id="SVGID_10_"><use xlink:href="#SVGID_9_" style="overflow:visible"/></clipPath><defs><path id="SVGID_11_" d="M1292.7 600.7h185.9v175.7h-185.9z"/></defs><clipPath id="SVGID_12_"><use xlink:href="#SVGID_11_" style="overflow:visible"/></clipPath><path class="st4" d="M1302.5 797.2c.6.5 6.7 6 6.9 5.9 2.4-2 4.8-4.2 7.1-6.4 2.1-2 4.2-4.5 3.5-7.7-.5-2.1-2.2-3.8-4.3-4.1-2.7-.5-5.1 1-6.1 3.1-.1.2-.4.2-.5 0-1.1-2.2-3.7-3.6-6.5-2.9-1.5.4-2.8 1.4-3.6 2.8-.5.9-.7 1.8-.6 2.7 0 2.8 2.2 4.9 4.1 6.6z"/><g class="st5"><path class="st6" d="M1355.1 795.5c-.4 0-.8-.2-1-.5l-5-7.7c-.2-.4-.3-.8 0-1.2.2-.4.6-.6 1.1-.6h18.2c.6 0 1 .4 1.2.9.1.5-.1 1.1-.6 1.4l-13.2 7.7c-.3-.1-.5 0-.7 0zm-3.6-8.2 3.9 6 10.3-6h-14.2z"/><path class="st6" d="M1359.5 803.6c-.5 0-.9-.3-1.1-.7l-4.2-8.2c-.3-.6-.1-1.3.5-1.6l13.3-7.6c.5-.3 1.1-.2 1.5.2.4.4.5 1 .2 1.5l-9.1 15.8c-.2.4-.6.6-1.1.6zm-.6-1.5zm-2.6-7.6 3.3 6.4 7.1-12.3-10.4 5.9zm12.7-7.3z"/></g><path class="st7" d="M1341.6 802.4h-6.9c-4.9 0-8.8-4-8.8-8.8 0-4.9 4-8.8 8.8-8.8 4.9 0 8.8 4 8.8 8.8v6.9c0 1-.8 1.9-1.9 1.9zm-6.9-15.8c-3.8 0-6.9 3.1-6.9 6.9 0 3.8 3.1 6.9 6.9 6.9h6.9v-6.9c0-3.8-3.1-6.9-6.9-6.9zM1462.2 799.8c-.2 0-.4 0-.5-.1-.5-.2-.9-.7-.9-1.3V784c0-.8.6-1.4 1.4-1.4h11.7c.8 0 1.4.6 1.4 1.4v14.4c0 .6-.3 1.1-.8 1.3-.5.2-1.1.1-1.5-.3l-4.8-4.8-4.9 4.9c-.4.1-.7.3-1.1.3zm-.4-1.8zm.9-13.5V797l4.3-4.3c.5-.5 1.4-.5 1.9 0l4.3 4.3v-12.5h-10.5z"/><g><path class="st3" d="M1319.1 568.6c0 6.8-5.5 12.3-12.3 12.3-6.8 0-12.3-5.5-12.3-12.3 0-6.8 5.5-12.3 12.3-12.3 6.8.1 12.3 5.6 12.3 12.3z"/><path class="st1" d="M1306.8 573.2c-3 0-5.5-2.5-5.5-5.5s2.5-5.5 5.5-5.5 5.5 2.5 5.5 5.5-2.4 5.5-5.5 5.5zm0-9.1c-2 0-3.6 1.6-3.6 3.6s1.6 3.6 3.6 3.6 3.6-1.6 3.6-3.6-1.6-3.6-3.6-3.6z"/><path class="st1" d="M1315.2 577.9c-.5 0-1-.4-1-1 0-2.1-1.7-3.8-3.8-3.8h-7.3c-2.1 0-3.8 1.7-3.8 3.8 0 .5-.4 1-1 1s-1-.4-1-1c0-3.2 2.6-5.7 5.7-5.7h7.3c3.2 0 5.7 2.6 5.7 5.7.2.6-.2 1-.8 1z"/></g><g><path class="st7" d="M1476.8 560.3c0 1-.8 1.8-1.8 1.8s-1.8-.8-1.8-1.8.8-1.8 1.8-1.8 1.8.8 1.8 1.8z"/><circle class="st7" cx="1475" cy="569.5" r="1.8"/><circle class="st7" cx="1475" cy="578.1" r="1.8"/></g><g><path class="st2" d="M1426.9 622.2h-211.3c-4.2 0-7.5-3.4-7.5-7.5V329.1c0-4.2 3.4-7.5 7.5-7.5h211.3c4.2 0 7.5 3.4 7.5 7.5v285.5c0 4.2-3.3 7.6-7.5 7.6z"/><path class="st1" d="M1418.8 615.2h-211.3c-4.2 0-7.5-3.4-7.5-7.5V320.8c0-4.2 3.4-7.5 7.5-7.5h211.3c4.2 0 7.5 3.4 7.5 7.5v286.8c0 4.2-3.4 7.6-7.5 7.6z"/><defs><path id="SVGID_13_" d="M1209.1 375.1h207.1v195.8h-207.1z"/></defs><clipPath id="SVGID_14_"><use xlink:href="#SVGID_13_" style="overflow:visible"/></clipPath><path class="st4" d="M1220 594.1c.6.6 7.4 6.7 7.7 6.6 2.7-2.3 5.3-4.7 7.9-7.1 2.4-2.2 4.7-5 3.9-8.6-.5-2.3-2.5-4.2-4.8-4.6-3-.5-5.7 1.1-6.8 3.5-.1.2-.4.2-.5 0-1.3-2.5-4.1-4-7.2-3.2-1.7.4-3.1 1.6-4 3.1-.5 1-.8 2.1-.7 3 0 3 2.4 5.3 4.5 7.3z"/><g class="st5"><path class="st6" d="M1278.7 592c-.4 0-.8-.2-1-.6l-5.6-8.6c-.2-.4-.3-.9 0-1.3.2-.4.6-.6 1.1-.6h20.3c.6 0 1 .4 1.2.9.1.5-.1 1.1-.6 1.4l-14.8 8.6c-.2.2-.4.2-.6.2zm-4.3-9.1 4.5 7 12-7h-16.5z"/><path class="st6" d="M1283.6 601.1c-.5 0-.9-.3-1.1-.7l-4.7-9.1c-.3-.6-.1-1.3.5-1.6l14.8-8.5c.5-.3 1.1-.2 1.5.2.4.4.5 1 .2 1.5l-10.1 17.6c-.2.4-.7.6-1.1.6zm.6-1.6zm-4.3-8.5 3.8 7.4 8.2-14.3-12 6.9zm13.2-9.1z"/></g><path class="st7" d="M1263.7 599.7h-7.7c-5.4 0-9.7-4.4-9.7-9.7 0-5.4 4.4-9.7 9.7-9.7 5.4 0 9.7 4.4 9.7 9.7v7.7c0 1.1-.9 2-2 2zm-7.7-17.5c-4.3 0-7.8 3.5-7.8 7.8s3.5 7.8 7.8 7.8h7.7l.1-7.8c0-4.3-3.5-7.8-7.8-7.8zM1398 596.8c-.2 0-.4 0-.5-.1-.5-.2-.9-.7-.9-1.3v-16.1c0-.8.6-1.4 1.4-1.4h13c.8 0 1.4.6 1.4 1.4v16c0 .6-.3 1.1-.9 1.3-.5.2-1.1.1-1.6-.3l-5.5-5.5-5.5 5.5c-.2.3-.5.5-.9.5zm.5-17v14.3l5-5c.6-.6 1.5-.6 2 0l5 5v-14.3h-12z"/><circle class="st3" cx="1224.9" cy="339.4" r="13.7"/><path class="st1" d="M1224.9 344.3c-3.3 0-6-2.7-6-6s2.7-6 6-6 6 2.7 6 6-2.7 6-6 6zm0-10.1c-2.3 0-4.1 1.8-4.1 4.1s1.8 4.1 4.1 4.1 4.1-1.8 4.1-4.1-1.8-4.1-4.1-4.1z"/><path class="st1" d="M1234.3 349.6c-.5 0-1-.4-1-1 0-2.4-1.9-4.3-4.3-4.3h-8.1c-2.4 0-4.3 1.9-4.3 4.3 0 .5-.4 1-1 1-.5 0-1-.4-1-1 0-3.5 2.8-6.3 6.3-6.3h8.1c3.5 0 6.3 2.8 6.3 6.3-.1.6-.5 1-1 1z"/><g><circle class="st7" cx="1412.2" cy="330.1" r="2"/><circle class="st7" cx="1412.2" cy="340.3" r="2"/><circle class="st7" cx="1412.2" cy="349.9" r="2"/></g><path class="st3" d="M1212.6 366H1414v201.4h-201.4z"/><g><path class="st8" d="M1374.4 415c-8.9 0-16.2-7.3-16.2-16.2 0-8.9 7.3-16.2 16.2-16.2s16.2 7.3 16.2 16.2c0 9-7.2 16.2-16.2 16.2zm0-30.4c-7.8 0-14.2 6.4-14.2 14.2 0 7.8 6.4 14.2 14.2 14.2 7.8 0 14.2-6.4 14.2-14.2.1-7.8-6.3-14.2-14.2-14.2z"/><path d="M1377.5 527.1c0 5.8-27.4 10.5-61.1 10.5s-61.1-4.7-61.1-10.5 27.4-10.5 61.1-10.5 61.1 4.7 61.1 10.5z" style="opacity:.25;fill:#3e479b"/><path class="st8" d="M1379.1 453.1c-5.3 0-9.7-4.4-9.7-9.7s4.3-9.7 9.7-9.7 9.7 4.4 9.7 9.7-4.4 9.7-9.7 9.7zm0-17.5c-4.3 0-7.8 3.5-7.8 7.8s3.5 7.8 7.8 7.8 7.8-3.5 7.8-7.8-3.5-7.8-7.8-7.8zM1321 399.8c-4.9 0-9-4-9-9s4-9 9-9c4.9 0 9 4 9 9s-4.1 9-9 9zm0-16c-3.9 0-7 3.2-7 7 0 3.9 3.2 7 7 7 3.9 0 7-3.2 7-7s-3.1-7-7-7zM1226.5 517.9c-2.9 0-5.3-2.4-5.3-5.3s2.4-5.3 5.3-5.3 5.3 2.4 5.3 5.3-2.3 5.3-5.3 5.3zm0-8.8c-1.9 0-3.4 1.5-3.4 3.4s1.5 3.4 3.4 3.4 3.4-1.5 3.4-3.4c0-1.8-1.5-3.4-3.4-3.4z"/><path class="st16" d="M1257.3 430.1h52.4c2.4 0 4.4 2 4.4 4.4 0 2.4-2 4.4-4.4 4.4h-52.4c-2.4 0-4.4-2-4.4-4.4 0-2.5 2-4.4 4.4-4.4z"/><path class="st1" d="M1261.9 528.4h42.4c2.9 0 5.3-2.1 5.5-4.9l6-80.1c.2-3.1-2.3-5.7-5.5-5.7h-54.4c-3.2 0-5.7 2.6-5.5 5.7l6 80.1c.2 2.8 2.6 4.9 5.5 4.9z"/><path class="st0" d="m1314 469.2-2.3 34h-57.2l-2.4-34z"/><path class="st0" d="m1314 469.2-2.3 34h-57.2l-2.4-34z"/><path class="st1" d="M1261.9 528.4h42.4c2.9 0 5.3-2.1 5.5-4.9l6-80.1c.2-3.1-2.3-5.7-5.5-5.7h-54.4c-3.2 0-5.7 2.6-5.5 5.7l6 80.1c.2 2.8 2.6 4.9 5.5 4.9z"/><path class="st20" d="m1290.5 523.7-2.6-76.6c-.1-2.9 1-5.4 2.3-5.4h20c3.2 0 5.7 2.5 5.5 5.4l-1.7 22.2h-25.3l1 29.8h22l-1.9 24.6c-.2 2.7-2.6 4.7-5.5 4.7h-11.4c-1.3 0-2.3-2-2.4-4.7z"/><path class="st21" d="m1315.8 472.5-2.1 30.1c-.1 1.6-1.5 2.9-3.1 2.9h-55.2c-1.6 0-3-1.3-3.1-2.9l-2.1-30.1c-.1-1.8 1.3-3.3 3.1-3.3h59.3c1.9 0 3.3 1.5 3.2 3.3zM1250.3 448.6h65.9c1.9 0 3.5-1.6 3.5-3.5v-6.9c0-1.9-1.6-3.5-3.5-3.5h-65.9c-1.9 0-3.5 1.6-3.5 3.5v6.9c0 2 1.5 3.5 3.5 3.5z"/><circle cx="1283.2" cy="487.1" r="12.2" style="fill:#f28393"/><path class="st21" d="m1294 430.1-18.8-4c-2.7-.6-5.2 1.3-5.6 4h24.4z"/><g><path class="st1" d="M1370.4 487.5c1.6-1.8 2.6-4.4 2.3-7.1-.5-4.7-4.6-8.2-9.4-8.2h-5.1c.5-.9.8-1.9.8-2.9 0-3.2-2.5-5.7-5.7-5.8h.5s-5-14.6-19.3-9.9c-.7.2-.6 1.2.1 1.3 1.9.3 4 1.6 4.3 5.1.2 2.5-1 2.8-5.8 3.4h-1.5c-3 0-5.6 2.1-5.9 5.1-.1 1.3.2 2.6.8 3.6h-5.1c-4.7 0-8.9 3.4-9.5 8.1-.3 2.7.6 5.2 2.2 7.1-5 1.2-8.7 5.7-8.8 11.1 0 6.3 5.1 11.5 11.4 11.5l50.7.2c6.3 0 11.5-5.1 11.5-11.4.2-5.4-3.5-10-8.5-11.2z"/><path class="st20" d="M1314.3 487.2c-1.6-1.9-2.5-4.4-2.2-7.1.3-3 2.1-5.4 4.6-6.9v1.5c-.1 17.1 14 30.9 31.3 31 11.8.1 22.1-6.3 27.5-15.6 2.3 2.1 3.7 5.1 3.7 8.4 0 6.3-5.2 11.4-11.5 11.4l-50.7-.2c-6.3 0-11.4-5.2-11.4-11.5-.1-5.2 3.7-9.8 8.7-11z"/><g style="opacity:.54"><path class="st21" d="M1327.5 482c-.2 0-.5-.1-.7-.3l-1.4-1.4c-.4-.4-.4-1 0-1.4.4-.4 1-.4 1.4 0l1.4 1.4c.4.4.4 1 0 1.4-.2.2-.5.3-.7.3zM1364.1 495.8c-.2 0-.5-.1-.7-.3l-1.4-1.4c-.4-.4-.4-1 0-1.4.4-.4 1-.4 1.4 0l1.4 1.4c.4.4.4 1 0 1.4-.2.2-.4.3-.7.3zM1335 499.1c-.2 0-.5-.1-.7-.3l-1.4-1.4c-.4-.4-.4-1 0-1.4.4-.4 1-.4 1.4 0l1.4 1.4c.4.4.4 1 0 1.4-.2.2-.5.3-.7.3zM1345 466.4c-.2 0-.5-.1-.7-.3l-1.4-1.4c-.4-.4-.4-1 0-1.4.4-.4 1-.4 1.4 0l1.4 1.4c.4.4.4 1 0 1.4-.2.2-.4.3-.7.3zM1321.9 494c-.2 0-.5-.1-.7-.3l-1.4-1.5c-.4-.4-.4-1 0-1.4.4-.4 1-.4 1.4 0l1.4 1.5c.4.4.4 1 0 1.4-.2.2-.5.3-.7.3zM1359.3 485.1c-.1 0-.2 0-.3-.1-.5-.2-.8-.7-.6-1.2l.7-1.9c.2-.5.7-.8 1.2-.6.5.2.8.7.6 1.2l-.7 1.9c-.2.5-.6.7-.9.7zM1351.6 499.7c-.1 0-.2 0-.3-.1-.5-.2-.8-.7-.6-1.2l.7-1.9c.2-.5.7-.8 1.2-.6.5.2.8.7.6 1.2l-.7 1.9c-.1.4-.5.7-.9.7zM1341.9 480.9c-.5 0-1-.4-1-1v-2c0-.5.4-1 1-1 .5 0 1 .4 1 1v2c-.1.6-.5 1-1 1z"/></g><path class="st16" d="M1363.6 528.6h5.9c2.9 0 5.3-2 5.8-4.8l2-10.3c.9-4.9-2.8-9.4-7.8-9.4-3.3 0-5.9 2.7-5.9 5.9v18.6zM1321 528.6h-5.9c-2.9 0-5.3-2-5.8-4.8l-2-10.3c-.9-4.9 2.8-9.4 7.8-9.4 3.3 0 5.9 2.7 5.9 5.9v18.6z"/><path class="st21" d="M1356.5 504c-3.9 0-7.1 3.2-7.1 7.1v17.5h14.2v-17.5c0-3.9-3.2-7.1-7.1-7.1z"/><path class="st16" d="M1342.3 504c-3.9 0-7.1 3.2-7.1 7.1v17.5h14.2v-17.5c0-3.9-3.2-7.1-7.1-7.1z"/><path class="st21" d="M1328.1 504c-3.9 0-7.1 3.2-7.1 7.1v17.5h14.2v-17.5c0-3.9-3.2-7.1-7.1-7.1z"/></g></g><g><defs><path id="SVGID_15_" d="M1212.3 377.2h201.2v190.2h-201.2z"/></defs><clipPath id="SVGID_16_"><use xlink:href="#SVGID_15_" style="overflow:visible"/></clipPath></g></g><g><path class="st16" d="M1445.6 727.6h-27.8l-26.8 20.3-24.3-20.3h-30.3c-6.7 0-12.2-5.5-12.2-12.2v-53.6c0-6.7 5.5-12.2 12.2-12.2h109.1c6.7 0 12.2 5.5 12.2 12.2v53.6c.1 6.8-5.4 12.2-12.1 12.2z"/><path class="st1" d="M1373.4 673.3c-4.4-.8-8.8 1.2-11 5-2.4-3.9-7.1-5.8-11.7-4.6-2.8.7-5.3 2.7-6.7 5.3-.9 1.6-1.3 3.4-1.2 5.1.2 5 3.9 8.7 7.4 11.8l.5.4c9.1 8.2 11.1 9.9 12 9.9.2 0 .4-.1.6-.3 3.9-3.3 7.7-6.8 11.4-10.2l.7-.7c3.6-3.4 7.6-8 6.2-14-1-3.9-4.2-7-8.2-7.7zm.7 20.4-.7.7c-3.5 3.3-7.1 6.6-10.8 9.7-.9-.7-3.4-2.8-10.5-9.1l-.5-.4c-3.3-3-6.6-6.2-6.8-10.5-.1-1.4.3-2.8 1-4.2 1.1-2.1 3.2-3.7 5.4-4.3.8-.2 1.5-.3 2.3-.3 3.2 0 6.2 1.7 7.7 4.8.2.5.7.8 1.3.8.5 0 1-.3 1.3-.8 1.7-3.6 5.5-5.5 9.4-4.8 3.2.6 5.8 3.1 6.6 6.3 1.1 4.9-2.5 9.1-5.7 12.1zM1392.3 680.5v3l2.8-1.8v17.1h2.9v-20.2h-2.9zM1408.3 678.4c-1.9 0-3.3.5-4.3 1.5s-1.5 2.4-1.5 4.2v9.2c0 1.8.5 3.2 1.5 4.2s2.4 1.5 4.3 1.5 3.3-.5 4.3-1.5 1.5-2.4 1.5-4.2v-9.2c0-1.8-.5-3.2-1.5-4.2s-2.4-1.5-4.3-1.5zm2.9 14.8c0 1-.2 1.7-.7 2.3s-1.2.8-2.2.8c-1 0-1.7-.3-2.2-.8-.5-.5-.7-1.3-.7-2.3V684c0-1 .2-1.7.7-2.3.5-.5 1.2-.8 2.2-.8 1 0 1.7.3 2.2.8.5.5.7 1.3.7 2.3v9.2zM1423.9 678.4c-1.9 0-3.3.5-4.3 1.5s-1.5 2.4-1.5 4.2v9.2c0 1.8.5 3.2 1.5 4.2s2.4 1.5 4.3 1.5 3.3-.5 4.3-1.5 1.5-2.4 1.5-4.2v-9.2c0-1.8-.5-3.2-1.5-4.2-.9-1-2.4-1.5-4.3-1.5zm3 14.8c0 1-.2 1.7-.7 2.3s-1.2.8-2.2.8c-1 0-1.7-.3-2.2-.8-.5-.5-.7-1.3-.7-2.3V684c0-1 .2-1.7.7-2.3.5-.5 1.2-.8 2.2-.8 1 0 1.7.3 2.2.8.5.5.7 1.3.7 2.3v9.2zM1449.8 688.1h-4.2v-4.2h-2.8v4.2h-4.2v2.7h4.2v4.3h2.8v-4.3h4.2z"/></g><g><path class="st0" d="M1525.5 625.7h-124.2c-1.4 0-2.6-1.1-2.6-2.6V498.9c0-1.4 1.1-2.6 2.6-2.6h124.2c1.4 0 2.6 1.1 2.6 2.6v124.2c-.1 1.4-1.2 2.6-2.6 2.6z"/><path class="st1" d="M1511.8 529.2h-35.4c-.7 0-1.2-.5-1.2-1.2s.5-1.2 1.2-1.2h35.4c.7 0 1.2.5 1.2 1.2s-.5 1.2-1.2 1.2zM1511.8 543.8h-35.4c-.7 0-1.2-.5-1.2-1.2s.5-1.2 1.2-1.2h35.4c.7 0 1.2.5 1.2 1.2s-.5 1.2-1.2 1.2zM1511.8 558.5h-35.4c-.7 0-1.2-.5-1.2-1.2s.5-1.2 1.2-1.2h35.4c.7 0 1.2.5 1.2 1.2 0 .6-.5 1.2-1.2 1.2z"/><g><circle class="st17" cx="1439.3" cy="541.4" r="26.2"/><path class="st1" d="M1439.3 543.8c-4.2 0-7.6-3.4-7.6-7.6 0-4.2 3.4-7.6 7.6-7.6 4.2 0 7.6 3.4 7.6 7.6 0 4.2-3.4 7.6-7.6 7.6zm0-13.3c-3.1 0-5.7 2.6-5.7 5.7s2.6 5.7 5.7 5.7 5.7-2.6 5.7-5.7c-.1-3.2-2.6-5.7-5.7-5.7z"/><path class="st1" d="M1448.3 556.2h-18c-1.9 0-3.5-1.6-3.5-3.5 0-5.7 4.6-10.3 10.3-10.3h5.5c5 0 9.2 4.1 9.2 9.2v1.2c0 1.9-1.6 3.4-3.5 3.4zm-11.2-11.9c-4.6 0-8.4 3.8-8.4 8.4 0 .9.7 1.6 1.6 1.6h18c.9 0 1.6-.7 1.6-1.6v-1.2c0-4-3.2-7.2-7.2-7.2h-5.6z"/></g><path class="st17" d="M1491.4 599h-44.7c-4 0-7.4-3.3-7.4-7.4 0-4 3.3-7.4 7.4-7.4h44.7c4 0 7.4 3.3 7.4 7.4-.1 4.1-3.4 7.4-7.4 7.4z"/></g><g><path class="st4" d="M1581.4 658.8c-.1-5.9-5-10.6-10.9-10.5l-52.5 1c-5.9.1-10.6 5-10.5 10.9l.7 34.7c.1 5.9 5 10.6 10.9 10.5l11.3-.2 14.7 14.1 14.1-14.7 12.4-.2c5.9-.1 10.6-5 10.5-10.9l-.7-34.7z"/><path class="st1" d="M1544.7 693.1c-.2 0-.4-.1-.5-.3-3.7-3-7.2-6.2-10.7-9.4l-.6-.6c-3-2.7-6.4-6.5-6.1-11.4.4-5.1 4.5-9 9.6-9 3.4 0 6.5 1.8 8.3 4.6 1.8-2.8 4.9-4.6 8.3-4.6 3.9 0 7.6 2.4 9.1 6.1.5 1.2.8 2.5.7 3.8-.1 4.6-3.5 8.1-6.7 11.1l-.5.4c-8.3 7.7-10.1 9.3-10.9 9.3zm-8.4-28.7c-4.2 0-7.4 3-7.7 7.2-.3 4.1 2.8 7.4 5.5 9.9l.6.6c3.3 3 6.6 6 10.1 8.9.8-.7 3.2-2.6 9.5-8.4l.5-.4c3-2.8 6-5.8 6.1-9.7 0-1-.2-2-.6-3-1.2-2.9-4.2-4.9-7.3-4.9-3.3 0-6.3 2.1-7.4 5.2l-.9 2.4-.9-2.4c-1.2-3.3-4.2-5.4-7.5-5.4z"/></g><g><path class="st4" d="M1220.4 407.6c-.1-5.9-5-10.6-10.9-10.5l-52.5 1c-5.9.1-10.6 5-10.5 10.9l.7 34.7c.1 5.9 5 10.6 10.9 10.5l11.3-.2 14.7 14.1 14.1-14.7 12.4-.2c5.9-.1 10.6-5 10.5-10.9l-.7-34.7z"/><path class="st1" d="M1183.7 441.9c-.2 0-.4-.1-.5-.3-3.6-3-7.2-6.2-10.6-9.3l-.7-.6c-3-2.7-6.4-6.5-6.1-11.4.4-5.1 4.5-9 9.6-9 3.4 0 6.5 1.8 8.3 4.6 1.8-2.8 4.9-4.6 8.3-4.6 3.9 0 7.6 2.4 9.1 6.1.5 1.2.8 2.5.7 3.8-.1 4.6-3.5 8.1-6.7 11.1l-.5.5c-8.3 7.5-10.1 9.1-10.9 9.1zm-8.4-28.7c-4.2 0-7.4 3-7.7 7.2-.3 4.1 2.8 7.4 5.5 9.9l.7.6c3.2 3 6.6 6 10 8.8.9-.7 3.2-2.7 9.4-8.4l.5-.5c3-2.8 6-5.8 6.1-9.7 0-1-.2-2-.6-3-1.2-2.9-4.2-4.9-7.3-4.9-3.3 0-6.3 2.1-7.4 5.2l-.9 2.4-.9-2.4c-1.1-3.1-4.1-5.2-7.4-5.2.1 0 0 0 0 0z"/></g><g><circle transform="rotate(-22.5 1483.64 430.072)" class="st18" cx="1483.7" cy="430.1" r="35.6"/><path class="st1" d="M1483.7 432.9c-5.5 0-10-4.5-10-10s4.5-10 10-10 10 4.5 10 10-4.5 10-10 10zm0-18.1c-4.5 0-8.1 3.6-8.1 8.1s3.6 8.1 8.1 8.1 8.1-3.6 8.1-8.1c-.1-4.4-3.7-8.1-8.1-8.1z"/><path class="st1" d="M1495.9 449.8h-24.5c-2.4 0-4.4-2-4.4-4.4 0-7.6 6.1-13.7 13.7-13.7h7.5c6.7 0 12.1 5.4 12.1 12.1v1.6c0 2.5-2 4.4-4.4 4.4zm-15.2-16.1c-6.5 0-11.8 5.3-11.8 11.8 0 1.4 1.1 2.5 2.5 2.5h24.5c1.4 0 2.5-1.1 2.5-2.5v-1.6c0-5.6-4.6-10.2-10.2-10.2h-7.5z"/><g><path class="st0" d="M1528.9 432c0 6.6-5.4 12-12 12s-12-5.4-12-12 5.4-12 12-12 12 5.3 12 12z"/><path class="st1" d="M1523 432.6h-12.2c-.4 0-.7-.3-.7-.7 0-.4.3-.7.7-.7h12.2c.4 0 .7.3.7.7 0 .4-.3.7-.7.7z"/><path class="st1" d="M1516.9 438.7c-.4 0-.7-.3-.7-.7v-12.2c0-.4.3-.7.7-.7.4 0 .7.3.7.7V438c0 .4-.3.7-.7.7z"/></g></g></g><path class="st24" d="M925.4 957.9c8.4-2.3 11 .5 7.7 8.4-8.5 2.6-11-.2-7.7-8.4z"/><path class="st1" d="M892.3 582.2s79.6-84.6 81-82.3 26.9 15.9 26.9 15.9 23.8 81.7 23.5 81.7c-.3 0-75.2 38.1-80 36.6-4.8-1.5-58.7-4.3-58.7-4.3l38.9-37.7-33-8.3 1.4-1.6z"/><g><path class="st24" d="M1251.7 626.1c2.7 2.7 5.5 5.6 9.4 7.4.6-2.3 1.1-4.5 1.5-6.8-3.6-.3-7.3-.5-10.9-.6zM1291.3 578.6c5.6 6.3 10.2 14.7 8.5 23.3-1.8 7-8.6 11.7-15.5 13-14.3 2.7-28.8-1.5-42.1-6.7 3.5 4.8 6.6 9.9 10.8 14.1 14.4 5.8 33.5 9.9 46.3-1.2-.5 2.1-1.5 6.3-2 8.5 5.8.6 4.4-5.4 3.2-8.8 11.3-10.7 9.9-28.6 1.7-40.6-14.1-21.2-38.2-33-61.6-41.9-.6 1.8-1.2 3.6-2 5.2 19.5 8.4 38.5 19.1 52.7 35.1z"/><path class="st24" d="M1262.3 598.8c4.6-2.7 3.6-8.6 4.2-13 6.3 4.2 11.6 9.8 15.5 16.2-.8-8-4.6-15.4-10.1-21.3-10.4-11.3-23.6-19.5-37-26.7-3.9 7.7-8.7 15.1-13.2 22.8 2.4 6.3 7.4 11.6 10.8 17.5 4.1 8.2 14.2 9.1 22 11.6-2.5-2.5-5-4.9-7.5-7.4 5 .5 10.5 2.8 15.3.3zM1025.3 743.3c16.2-.2 34.1-2.3 46.2-13.8-1.8-1.5-3.6-4.9-6.4-3.7-8.5 2-15.4 7.9-23.8 10-18.1 4.9-37.4 2.5-55-2.9.2 1.9.6 3.8.8 5.8 12.5 2.9 25.3 4.8 38.2 4.6z"/><path class="st24" d="M1956.6 1051.3c-13.4-3.5-24.9-1.8-27.9-1.2-97.3-30.4-169.2-30.3-212.4-24.8-41.4 5.2-64.7 16-70.4 18.9-25.5-15.3-54.4-24.3-86-26.8-25.6-2-52.9.2-81.2 6.6-29.5 6.7-54.1 16.7-68.7 23.4-2.6-1.9-6.5-3.4-9.6-4.2-.8-1.9-1.5-3.8-2.4-5.7-2.4-5.7-4.9-11.3-7-17.2 1-16.8 3-33.7 1.2-50.6-2.1-26.9-10.7-55-31.6-73.6-8.9-6.9-13.8-17.4-21.7-25.4-6.1-6.4-11-13.7-15.7-21 .2-1.5.3-3 .6-4.4-1.1 0-2.3.1-3.4.1-.3-.5-.7-1-1-1.5-14.4-14.3-21.4-35-39.1-46.2-1.9-26.6 4.3-52.8 6.8-79.1 1.7-10.5 14.5-9.1 22.5-10.5-4.5-3.8-8.9-7.7-13-12-5.2-.8-10.6-.8-15.8-1.8-9.3-7.4-16.7-16.8-24.4-25.6 10.1-.8 21.2.5 30.1-5-29.2-24.1-49.9-56.1-70.4-87.3 9.3-13.1 17.5-27.3 21.2-42.9 5.4-20.5 1.9-43.2-10.7-60.5-11.9 1.2-23.1 5.5-34.3 9.3.7-29.2-1.5-59.8-15.7-86-11.2-17.3-31.2-26.4-50.5-32-29.3-8.1-60-8.8-90.2-6.6-1.3-5.6-3.1-11.6-7.4-15.7-11.4-11.6-32.4-11.3-43.7.1-6.1 5.6-8.1 13.9-9.8 21.7-17.3 1.4-34.4 4.2-50.7 9.6-24.1 8.1-48 21.7-61.3 43.8-9.4 16-4.2 34.9-.2 51.7-7-2.5-14.2-4.8-21.4-6.2-12.5 14.9-17 34.9-15.2 53.8-.8.6-2.4 1.9-3.2 2.5 3.7 11.3 5.6 23.5 12 33.8 3.5 5.2 7.3 11.1 5.1 17.6l4.4-2c-11.4 16.7-24.2 32.5-37.5 47.9-11 12.2-22.3 24.2-36 33.4 8.2 6.7 19.8 5.5 29.7 6.7-12.9 14.8-27.9 27.6-44.2 38.6 16.8 4.2 34.2 5.4 51.5 4.3-5.1 13-7.4 26.8-8.6 40.6-22.3 17.4-46.8 32.3-68.1 51.1-8.9 7-18.8 13-26.7 21.2 3.2 7.3 11.3 10.1 16.8 15.4 8.7 8 16.9 16.7 24.7 25.6 3.3 11 2.7 22.6 6.1 33.6-7.1 3.6-14.8 6-21.2 10.7-1.4 12.3 5.2 23.3 5.8 35.4-.7.7-2.1 2.3-2.9 3.1v3.7c2.3 2.4 6.1 4.6 5.2 8.6-1.3 12.3 1 24.5.4 36.9-6.9 1.4-14.1 2.1-20.3 5.7 5.1 3.9 11.7 5.5 16.7 9.5l-3.5 1.1.7-2.6c-3.9-.4-7.7-.6-11.6-1 2.6 4.4 4.4 9 5.6 13.9-96.9-30.1-168.5-30-211.6-24.6-41.4 5.2-64.7 16-70.4 18.9-25.5-15.3-54.4-24.3-86-26.8-25.6-2-52.9.2-81.2 6.6-42.2 9.6-74.2 25.8-81.7 29.8-14.9-13.3-34.7-22.6-58.8-27.6-19.8-4.1-42.6-5.3-67.7-3.6-42.7 2.8-78 13.2-78.3 13.3l1.5 5c.3-.1 35.1-10.3 77.3-13.1 38.6-2.6 91.4.8 123.9 31.1l1.4 1.3 1.7-1c.3-.2 34.6-19.4 82-30.2 43.6-9.9 107.6-14.4 164.6 20.3l1.3.8 1.3-.8c.2-.1 24-13.2 70.2-19 42.7-5.4 113.9-5.4 210.4 24.8l.7.2.7-.2c.1 0 5.5-1.2 13.2-.9 7.7 1.6 15.2 4.4 22.3 7.8 0-.8.1-1.7.1-2.5 2.9 1.4 5.5 3 8.1 4.8-.7 3.3 2.7 5.2 4.8 7.1 4.3 3.2 7.9 7.2 11.1 11.5 2.1 3.9 4 8.2 5.6 13l2.5-.8 2.5-.8c0-.1-.1-.3-.2-.4 7.9-4.3 15.8-8.9 24.9-10.3.1-31.9-2.1-64 1-95.8 2.5-29.7 9.6-59.7 25.5-85.3 3.5-6 8.6-11.2 10.4-18 2.3-6.6 7.7-11.1 12.9-15.4-2.3-4.5-4.6-8.9-5.8-13.8 3.1 3.7 6 7.9 9.1 11.7 4.8-3.2 9.6-6.2 14.1-10-10.5-18-18.1-37.5-24.3-57.3-.5-.1-1.3-.2-1.8-.2-11 10.5-24.4 18.9-39.7 21.8 3.5-13 5.7-26.2 6.3-39.7.5-8-.2-16 1.9-23.7 1 15 1.3 30 0 45 9.5-22.9 5.6-48.4 11.1-72.2 1.3-8.7 5.6-16.6 7.1-25.1-4.4 3.9-7 10.7-13.5 11.8-11.1 3.3-22.8 3.9-34.3 3.7 9.5-5.8 19.4-11.8 26.3-20.7-15.8 9.9-32.9 17.7-51.1 22.2 13.8-9.9 25.5-22.3 35.6-35.7-9.4 1.3-19.3 2.7-28.4-.7 19.3-15.1 35.4-33.6 51.5-51.9-2.7 7.4-9.3 12.5-13.2 19.3 3.9-2.5 7.1-6 10.1-9.5 1.2.4 3.6 1.2 4.8 1.7l-3.3-3.2c8.2 2.1 10.1-8.2 16.7-10.4l-1.2-2.4 4.3 2.5-2-4.2c.7-.4 2.3-1.1 3-1.4-2.5 2.1-1.2 4.3.4 6.2l4.4-5.2c-.8 2.3-2.3 4.3-3.7 6.3-7.1 9.8-17.5 16.7-28.7 21.2 4.5 6.6 12.2 10 20.3 9.4-1.3 2.5-2.4 5.2-4.4 7.3-10.2 11.3-23.1 19.8-34.4 30 24.3-13.5 45.9-32.2 62.1-54.6-11.7 4.6-23.9 8.2-36.7 7.6 14.4-4.9 25.5-16.1 33-28.8 3.6 16 7.5 32.4 17.3 45.9 11.2 13.6 29.9 18.3 47.1 16.8-2 3.1-3.9 6.2-5.7 9.4 3.8-3.6 6.9-8 11.4-10.6-4.4 9.9-8.1 20.1-12 30.3 4.1-4.2 6.7-9.3 9.8-14.2-1.7 15.4-10.7 28.7-19.2 41.2 7.5-4.9 12.3-12.4 18-19.1-1.8 13.8-8.9 25.9-16.7 37 6.7-3.7 11.1-10 15.5-16-.4 12.7-5.8 24.4-11.3 35.7 5.1-3 8.6-7.9 11.9-12.5 3.1 16.2 8.7 32.4 19.5 45.3-12.4-32.5-14.9-69.1-4.2-102.3 1.1 4.3 1.9 8.6 3.2 12.7 1.3-7.3 1.7-14.8 1.4-22.3 1.9 2.4 3.7 4.8 5.8 7-1.7-8.7-7.5-15.7-10.2-24.1 3.7 0 10.2-4.4 11 1.7-.5-4.3 3.2-5.7 6.6-7.1-1.1 6.1-1.5 13.3 3.8 17.6 8.9 6.8 21.8 5.5 31.6 1.2-3.3-3.1-9.1-6-8.3-11.3.2-8 11.7-12 17.2-6.2 7.3 8.1 6.4 19.7 8.3 29.7.5 8.1 15.5 8.5 16.2.2 2.3-9.6 2.3-20.8 9.4-28.7 5.5-5.5 15.7-2.3 17.3 5.2 1.1 6.2-5.2 9.3-8.9 13.1 10.2 3.6 23.3 6.6 32.5-1.1 5.8-4.8 4.1-13 2.7-19.2 1.8.4 5.5 1.1 7.3 1.4-.1 2.7-.1 5.4-.1 8.1 1.4-2.5 2.9-5.1 4.3-7.7 2 .2 6.2.8 8.2 1.1-1.7 11.1-10.1 19.3-13.3 29.9 2.3-2 4.3-4.4 6.4-6.6-.4 7.4-.8 14.8.8 22 1.1-4.2 1.8-8.6 3.9-12.4 7.7 33.6 4.8 69.9-10.2 101.3l1-.1c10.5-12.3 17.3-27.5 20.8-43.1 3.3 4.8 6.6 9.8 11.4 13.1-4.8-11.4-9.9-23.2-9.4-35.9 4.3 5.7 8 12.3 14.5 15.8-7.3-11.3-13.7-23.6-14.7-37 5.5 6.4 9.6 14.1 16.7 19.2-8.1-13.2-15.8-27.3-17.2-42.9 3.1 5.5 5.6 11.3 9.6 16.1-4.1-11.2-6.8-23-12-33.8 3.7 3.5 6.6 7.9 10.6 11.1-2.5-6-6.2-11.2-9.6-16.4 17.7 0 36.2-7.6 45-23.3 8.7-16.4 11.3-35 14.1-53.1 9.9 14.4 15.1 31.9 27.5 44.8 4.9 5.2 11.2 8.7 17.4 12-12.4.2-24.1-4.2-35.1-9.2 14.7 22.3 34.2 41.7 56.8 56.1-10.2-9.4-21.7-18.1-28.5-30.5-1.9-3.2-2.3-6.8-2.3-10.4 6-1.4 11.8-2.7 17.6-4.4-12-6.9-25.5-14.9-30.4-28.6 3.9 4.2 7.1 8.8 11.7 12.5-2.5-4.8-5.5-9.3-7.1-14.4 5.6 6.7 10.5 14.1 17.3 19.7-2.1-3.9-4.2-8-6.2-11.9 6.8 6.3 11 14.9 18.5 20.5l2.9-1.4c10.5 13 21.7 25.4 34.2 36.6-9.4 2.1-19.1 1-28.4-1.1 8 12.2 17.3 23.5 28.1 33.2-17.3-1.1-31.4-12.3-45.5-21.3 4.8 7.4 12.6 12 18.5 18.5-7.4-1.8-14.3-4.9-21.1-8 .2 1.7.8 5 1.1 6.7-3.6-.5-7-.8-10.5-1.2-3-3.8-6-7.9-9.4-11.3.8 3.6 2 7.1 3.2 10.7-2.1-.2-6.6-.6-8.8-.8 5.1 11.6 13.5 22.3 14.3 35.3-5.7-5.5-13.2-1.4-19.4.8 2.6-20.5 1.3-41.3-4.4-61.2-.5 13.9 2.1 27.8.6 41.7-2.3-17-2-34.7-8.1-50.9 2.9 22.5 4.2 46.2-2.1 68.4v-7.3l-1.9-.5c-.8 6.8-1.3 13.7-3.7 20.1-.7.4-2 1.2-2.6 1.5 1.5-10.4 3.1-21 2.7-31.6-2 11.9-4.5 23.7-8.5 35.1-18.7 11.6-36.8 23.8-54.7 36.5 2.5-5.6 5-11.2 6.4-17.2-4.6 7-8 15-13.2 21.7-5.7 4.8-11.9 8.9-18 13.2 2.7-5.6 5.2-11.2 7.1-17.2-8.7 11.7-14.9 25.7-28.4 33 0-5.5-.2-10.8-1.2-16.2-2.4 7-3.8 14.5-8.6 20.5-7.9 11.4-21.3 16.9-31.6 25.9-8.7-8.8-20.6-14.2-27.9-24.4-5.6-6.8-7.9-15.5-9.3-23.9-2.3 6.1-2 12.6-2.7 18.9-11.3-9.9-17.6-23.8-25.5-36.2 3.5 18.9 16.3 34.7 29.1 48.6.5-1.4 1.2-4.4 1.5-5.8 7.6 11.3 15.8 22.4 25.7 31.9-2.1 1.7-4.1 3.5-6.1 5.2-32.4-26.7-56.2-62.1-74-99.5 1.5 10.7 7 20.3 11.1 30.1-10.5-7.1-17.5-17.9-25-27.8 5.6 18.8 18.7 34 31.6 48.4-.6-.2-1.8-1-2.4-1.3-20.5-15.8-35.1-37.5-49-59 10.8 32.4 34.8 59 61.2 80.2h1.5l-.2 1.8c-10.8-6-18.9-15.8-30.4-20.4-25-21.1-40.7-51.3-47.9-82.7-2.1-8.3-2.6-17.2-4.9-25.5-.6 16.6 2.1 32.9 4.5 49.2-6.2-14.3-7.5-30.1-8.6-45.5-1 3.6-1.5 7-2.3 10.6-3.6-14.9-1.8-30.4-1.7-45.5-2.4 2.5-4.4 5.6-6.1 9.3.2-7.7 1.9-15.4 2.5-23-13.5 35-10.6 74.7 2.1 109.5 0-12.6-3.5-25-2.4-37.6 2.6 10.1 3.9 20.6 6 31 1.3-2.4 2.5-4.9 3.9-7.3 14.3 32.8 33.8 65.3 64.2 85.8-4.5-6.6-9.9-12.5-13.2-19.8 10 11.6 21.1 22.8 35.1 29.7-4.1-5.1-9.9-8.7-13.9-13.9 16.9 11.3 35.3 20 54.3 27-2.4 2.1-5.6 2.1-8.5 2.9 1.3 1.5 3.3 2.7 3.9 4.9 2.5 11.2 10 20.3 15.1 30.3-13.3 1.4-27.2-.1-39.7-5.1-26.9-10.8-47.6-31.6-68.3-51-5.5-5.5-12.6-10-15-17.7-4.2 2.9-8.2 5.6-12.4 8.5 3.3 4.1 6.7 8.1 9.8 12.3-7.3 1.3-8.3-6.7-11.3-11.1-4.5 3.5-8.9 7-11.9 11.9-2.6 4.3-3.2 9.4-6.4 13.3-13.6 18.8-22.4 40.7-27 63.4-8.6 41.2-6.1 83.6-5 125.4 11-2 22.2-.8 33.1.7 11-18.7 30.4-32.4 51.9-36.5 23.9-4.9 49.8 2.1 67.8 18.3 12.5 11.3 22 26.7 23.8 43.6 1.7-9.1.4-18.6 3.9-27.2-.6 8.3-.7 16.8-1.4 25.3 4.2-2.9 8.6-6.1 8-11.7 2.5.2 5 .6 7.5 1 9.1-5.1 19.4-7.5 29.7-8.9 23.9-2 48.6 7 64.7 24.7 2.5 3.7 7.4.8 11 .7 6.9-1.3 13.9-.8 21-.6l-.1 1c3.7.4 7.3.8 11 1 10.8-8.3 23.1-15.2 36.8-17.7 19.1-3.8 39.4-.4 56.1 9.6 16.1-22.4 44.3-34.2 71.7-32.3l-.2.8c23.8 1.7 45.7 15.8 58.5 35.5 2.1-1.5 4.3-3 6.6-4.4 7.1-3.9 15-6.8 21-11.7 1.9-1.4 2.7-2.7 2.7-4 14.5-6.6 38.3-16.2 67-22.7 43.6-9.9 107.6-14.4 164.6 20.3l1.3.8 1.3-.8c.2-.1 24-13.2 70.2-19 42.7-5.4 113.9-5.4 210.4 24.8l.7.2.7-.2c.1 0 12.3-2.7 26.3 1.1 18.6 5 31.7 18.3 38.9 39.7l5-1.7c-10-28.8-28.8-39.3-43-43zM726.9 823.6c7.6 5 13.6 12.2 18.5 19.7-7-5.6-14-11.8-18.5-19.7zm43 158.3c3.9-11.8 7.4-23.8 13.2-34.9-6.2 24.1-9.3 48.8-10.9 73.6-2.8-1.8-5.5-3.2-8.2-4.4.7-11.6 2-23.3 5.9-34.3zM1181.1 502c-27.4-4.4-55.5-7.3-82.9-2.4 27.2.5 54.4 1.8 80.9 8.1-34.9-2.6-70.3-4.2-104.9 1.8 10 1.7 20.1.2 30.1.7 21.4.7 43 1.5 63.7 7.4-10 1.9-20.3.5-30.3 1-68 .7-136.5 5-203 20.1-1.7.1-4.9.5-6.6.7 19.2-9.3 39.5-16.3 59.9-22.8 1.9-.5 3.7-1.1 5.6-1.7-25.5 4.1-50.7 10.1-75.2 18.3 24.7-13.2 51.7-22.6 79.3-27.9-8.8-.7-17.4 1.8-26 3.2-18.8 3.9-37.8 8.5-55.2 16.7 8.1-8.6 19.4-12.6 29.7-17.9-9.3 1.2-18.6 3-27.8 5-1.1.5-2.3.8-3.3 1.3 2.9-1.9 6-3.2 9.2-4.3 76.8-27 160.7-33.2 240.9-20.1 7.1 1.2 14.7 1.9 21.4 4.6-1.7-.5-3.3-.8-5-1.2-21.2-2.1-42.4-3.1-63.7-3.1 21.3 3.8 43.3 4 63.2 12.5zm-71.2 65.7c-15.1 2.4-30.6 8.8-46 4.3-5.8-1.4-9.5-6.4-11.9-11.6 8.3-9.6 21.7-15.2 34.5-14.1 19.5 1.3 39.1-4.9 58.4.2 8.9 3.1 18.1 8.8 20.8 18.3 1.3 6.7 1 13.5.8 20.1-4.6-3.8-5.8-10.5-11.1-13.8-13.1-9.2-30.6-6.1-45.5-3.4zm22.1 12.8c-6.9 7.5-17.6 10.5-27.6 10.4-6.1-.4-13.3-.8-17-6.4 7.9-3.9 16.8-4.9 25.3-6.8 5.8-1 11.6-2.7 17.3-2.9 3.8-1.4 4.8 3.9 2 5.7zm-123.7 7.7c2.9-5.4 2.4-13.2 8.6-16.2 3.7-2.1 8.6-3.5 12.6-1 5.4 3.7 7 10.2 8.7 16.2 2.1 8.9 6.8 17 11.2 25-17-3.7-35-3.2-51.5 2.6 3.2-6.1 5.7-12.4 8.5-18.6 3.5-5.8 9.4-9.4 14.9-13.2-4.5 1.4-8.9 3.2-13 5.2zm29.9-36.3c-3.9.8-8 1-12 1.2-3.3-2.7-6.9-5.1-10.7-7.3 2 2.5 4.3 4.9 6.4 7.4-6.7-1.4-13.7 1.4-20.1-1.3-9.1-3.7-18.1-7.5-27.8-9.2 4.1-.4 8.2-.4 12.2-1.5-3.3-.7-6.7-1.4-10-2.3 41.6-7.6 83.7-10.4 125.8-11.6-7.6 3-15.5 5.2-23.5 6.9 3.8 3.9 8.9 2.6 13.8 1.7 13.1-3.6 26-8.5 39.7-8.7-3.6 1.4-7.5 2.4-11.3 3 1.2 1 2.3 1.9 3.5 2.9l16.1-3.9c-4.6 4.9-11.6 6.1-18.1 5.8-28.9-.9-58.1 4.6-84 16.9zm2.3-145.4c.5 22.6-6.8 45.7-21.1 63.5 4.1-11.7 8.7-23.2 10.7-35.5-6.1 7.3-11.3 15.2-18.7 21.3 2.1-9.2 5.2-18.1 6.1-27.5-4.4 3-9.1 5.5-13.9 7.6 12-10.1 22.6-22 29.2-36.3-1.1 13.6-6.6 26.2-11.4 38.8 8.3-9.3 13.5-20.8 19.1-31.9zm18.3 42c5.4-5.4 11.1-10.5 15.8-16.3 1.5 13-3.9 26.4-12.9 36 3.8-7.9 7.1-16 9.1-24.4-3.9 1.7-7.9 3.6-12 4.7zM839 602.9c.4-3 3.1-7.1 6.2-8.1.6 3.2-2.9 8.1-6.2 8.1zm6-87.5c-3.5.2-2.1-8.8 1-5.7l-1 5.7zm14.7 8.1c1.2 6.3 3.9 12.3 6.9 18.1-14.1-11-18.2-28.8-22-45.1-.1 3.6-.1 7 0 10.6-.8-.2-2.4-.7-3.2-1-.2-9.8.1-19.7 2.3-29.2-1.4 1.7-4.5 5-6.1 6.7 1.2-6.1 4.9-11.3 9.4-15.5 7.1 2.5 14.4 4.8 21.2 8.2.5 1.1 1.4 3.1 1.9 4.2-1.3-.2-3.8-.8-5.1-1.1 4.4 3.8 7 10.5 12.5 12.5-3.8-19.8-12.5-39.8-8.8-60.4 2.7-14.8 14.3-26.1 26.3-34.4 20-13.1 43.4-20 66.7-24.3-23.3 19.1-29.7 51.2-28.4 79.6 1.1-17.9 5-35.9 14.4-51.3 9.3-15.7 24.1-28.8 41.9-34.3 25.3-8 54.7-1.4 74 16.3 21.6 19.5 33 47.2 40.1 74.6 2.5-36.5-18.6-72.2-50.4-90.3 27.5-1.7 56-2.5 82.6 6.2 28.8 8.9 44.6 40 44.6 68.4-2.4-16.2-7.7-32.4-18.1-45.4-5.2-6.3-11.9-11.4-19.9-13.9 9.9 13 16.8 28.1 20.5 44-10.2-12.4-23.8-21.9-39.4-26.7 4.4 4.4 9.8 8.1 13.9 13 11 12.4 17.7 28.7 17.5 45.1-2-6.2-3.7-12.5-6.9-18.2 1.1 11.1 1.7 26.7-10.7 31.8-18.6 3-37.8 2.4-56.6 3.1.1-5.6-2-11.4.8-16.7 6.4-13.9 3.9-30.4-3.1-43.6-4.2 5.7-8.9 10.8-14.4 15.2-3.6-3.8-7-7.6-10.7-11.2-1.9-15.2-7-30.6-17.5-42.3-3.3 10.2-8.7 20.4-17.3 27.3-3.5 1.3-7.5 1-11.1 1.7-15.8 1.7-29.8 11.6-38.4 24.5-4.4 6.3-7 13.5-10.2 20.4 1.3-15 6.3-29.3 12.9-42.8-7.9 7.6-13.2 17.2-17.3 27-1.4-13.5 2.6-26.3 5.4-39.3-18.6 29.4-20.8 65.8-18.3 99.5-19.1 5.2-37.5 13.2-53.6 24.7-3.2-8.1-5.8-16.4-8.9-24.5-7.7-3.8-13.1-11.2-21.6-13.7 9.3 8.5 19.1 17.4 23.8 29.3-6.7-7.4-13-15.8-22.4-20 4.5 5.6 10.1 10.5 13.3 16.9 6.1 11.3 9.1 23.8 15.1 35.1-3.6-1.8-6.8-4.2-10-6.6 1.3 2.4 2.7 4.6 4.1 7-10.4-1.9-15.1-12.3-21.7-19.2zM960 619.7c-3.5 5.8-3.6 12.6-3.2 19.1-1.9.5-5.8 1.4-7.9 1.9.1-1.9.1-5.6.1-7.5-4.3 1.8-6.7 5.8-9.5 9.2-14.3 1.5-30.5.4-41.5-9.9-15.5-15.1-20.7-37.8-19.7-58.6 2.6-6.8 6.9-13.7 13.2-17.7 5.8.5 11.8 1.1 17.4-1 20.4-6.2 42.2-6.8 63.1-4.1 7.6 1.5 15.5 5.2 19.4 12.2-4.5 1.1-9.3.8-13.8 1.2 5.1 1.9 10.5 2.7 16 3.1.4.8 1 2.6 1.3 3.5-13.2 2.1-26-3.5-38.7-6.4-14.3-3.6-30.1-7.7-44.6-2.1-8 3-12.5 10.6-15.8 18 5.2-2.5 12.2-7.1 17.7-2.5 4.2 5.8 6.1 13 10.4 18.8 3.1 4.6 7.6 8.1 12.2 11.6-.2-1.5-.8-4.4-1.1-5.8 2.7 1.8 5.5 3.6 8.3 5.4l.2-1.2-1.9-1.1 1.1-1.4c.8-.1 2.5-.5 3.3-.7-2.3-3.1-4.4-6.3-6.3-9.5 4.6 1.7 9.2 4.1 14.3 4.4 7.3 0 13.9-3.2 21-4.3-2.5 2.1-5.2 4.2-7.6 6.4 6.8-2.1 13.1-5.7 20.1-7.5-10.6 6.8-22 14.4-27.5 26.5zm-31.9-49.6c6.1-1.3 12 .8 18 2.4 7.3 2 14.7 3.7 21.9 6 2.1.8 6.3 1.8 5.5 5-8.6 5.1-19.5 4.1-28.7 1.3-7.1-2.7-15.2-6.8-16.7-14.7zm14.6 33.8-1.2.7c-3.6-3.6-6.4-7.9-8.6-12.5 3.5 3.6 8.9 7.2 9.8 11.8zm19.2 32.7c2.6-15.6 14.1-30.6 30.5-33.1-5.2 14.1-14.9 28.8-30.5 33.1zm29.7-11.6c18.5-11.6 42.4-11.1 62.8-5 1 1.7 2 3.3 3 5.1-21.6-4.9-44.1-3.5-65.8-.1zm92.9 8.4c-5.7-8.2-14.8-13.1-23.3-17.9-5.5-6.9-8.5-15.2-11.3-23.5 3.9 3.7 7.7 7.6 11.8 10.8-.6.6-1.8 1.5-2.4 2.1 18.8-2 34.3 14.1 37.2 31.3-4.1-.7-8.1-1.7-12-2.8zm59-2c-12 8-27 8-40.9 6.2.2-18.1-13.5-32.4-28-41.6 7.1.7 12.5 6 19.4 7.5-2.9-2.4-5.8-4.8-8.6-7.3 11.2 4.2 23.9 8.7 35.4 2.1-2.4 4.1-5.2 7.7-8.3 11.3 6.3-2.5 10-8.5 15.5-12-1.7 3.2-3.7 6.2-6.7 8.3l2.5 2.5c1.9-2.3 3.8-4.4 6-6.4-1.3 4.6-5.1 7.7-7.9 11.6 7.4-3.2 13.8-8.6 17.9-15.5 3.3-5 5.2-11.1 9.8-15.2 6.2-3.2 11.3 3.6 17.4 2.4-2.3 17.2-8.2 35.9-23.5 46.1zm54.3-81.6c2.7-5.7 6.3-11.2 7-17.6-4.6 6.3-9.9 12.5-16.4 17.2 0-3.9.1-7.7.2-11.6-14.9-2.1-30-1.9-44.9-3 11.7-5.8 24.9-9.1 37.9-6.1 8.2-10.6 17.4-20.5 27.2-29.8-10 3.7-17 12-24.5 19.2l-.1-.8c6.8-11.2 16.8-20 27-28.2-7.7 2.6-13.8 8-20.5 12.3 3.1-5 7.6-9.1 11.8-13.2l-.1-.6c-4.1 1.9-8 3.8-11.9 5.7.4-1.2 1-3.5 1.3-4.6 9.1-4.9 19.2-8 29.2-10.4 4.5 4.6 7.5 10.4 9.1 16.4-2-2.1-3.9-4.4-6-6.4 1.2 12.6 2.6 26.7-4.3 38.1.2-5.4 3.2-11.3.8-16.1-4.2 14.5-9.5 30.5-22.8 39.5zm25.4 57.7c5.1 5 9.4 10.8 13.5 16.8-6.9-2.9-9.9-10.7-13.5-16.8zM998.1 938.9c2.3 0 4.4-.1 6.8 0 1 5.4 2.1 10.6 3.6 15.7-2 1.8-3.9 3.7-5.8 5.6-1.4-7.1-2.7-14.3-4.6-21.3zm8.5-9.2c1.4-1.8 3.6-3.2 6-3.5 2-.8 5.8 2.7 2.3 4.1-1.8 3.1-9.9 4.4-8.3-.6zm1.3 52.9c-2.3-7.1-3.5-14.5-3.6-22 9.9 3.3 7.1 15.2 8.7 23-1.3-.3-3.8-.7-5.1-1zm2.9 22.7c-.7-5.7-1.3-11.6-1.7-17.3 4.8 3.5 7 9.1 8.9 14.5-2.5.9-4.9 1.8-7.2 2.8zm1.6 3.9c2.5 1.4 4.9 2.7 7.4 4.1.1 5.2.1 10.5-.1 15.7-6.6-4.4-6.9-12.8-7.3-19.8zm2.6 41.7c.5-6.3.8-12.7 1.5-19.1 5.4 5 5 12.6 5.8 19.3-1.8 0-5.5-.2-7.3-.2zm-21.2-120.2c.7-1.7 1.5-3.3 2.4-4.9 10.8-3.5 19.5-13.7 31.9-12.4-10.4 7.4-23.1 11.2-34.3 17.3zm53 29.9c24.4-4.8 48.7-10.4 73.5-13.9 1 1.7 2 3.3 3.1 5-14.5 1.4-28.9 3.8-42.9 7.9-5.1 1.1-10 5-15.4 3.5-10.4 4.1-21.3 5.7-32.2 8 2.4-5.7 8.1-9.4 13.9-10.5zm17.7 27.1c-6.4 2.3-12.6 5.5-19.4 6.8-6.9.4-2-8.2-.7-11.4 13.1.6 26.3-4.1 36.5-12.2 3.2.5 6.2 2.7 9.5 1.8 9.6-1.9 18.8-5.6 28.5-6.9 2.3 1.8 4.4 3.7 6.6 5.6-20.3 6-41.1 9.6-61 16.3zm94.2 12.8c-1.7-.6-3.3-1.2-4.9-1.8.7-1.8 1.4-3.6 2.3-5.4l4.6 2.5c-.7 1.6-1.3 3.1-2 4.7zm23.5-63.1c-1.1-4.3 5.2-7.7 7.7-3.7-2.5 1.3-5.1 2.5-7.7 3.7zm87.1-69.5c14.9-1.3 30 .1 44.8 3 3.3 1 8 1 9.5 4.8-6.8-.5-13.1-3.6-19.9-3.9-11.1-.6-22.3-1.4-33.2.5-13.1 2-23.7 10.6-36 15 9-9.9 22.5-14.5 34.8-19.4zm-60.8 38c1.1-.1 3.2-.2 4.3-.2-5.5 6.2-10.7 12.7-16.7 18.6-.7.2-2.4.6-3.2.8 3.8-7.4 9.8-13.6 15.6-19.2z"/></g></svg>