<svg version="1.1" id="Capa_1" xmlns="http://www.w3.org/2000/svg" x="0" y="0" width="1920" height="1080" style="enable-background:new 0 0 1920 1080" xml:space="preserve"><style>.st0{fill:#010101}.st1{fill:#fff}.st3{fill:#91b3fa}.st10{fill:#bdd0fb}.st11{fill:#7d97f4}.st67{fill:#020202}</style><path class="st0" d="M-20.7-606.7c1.9-.7 3 2.5.9 2.8-1.8.5-2.9-2.5-.9-2.8zM667.9-605.7c1.6-.5 2.2 0 1.7 1.7-1.6.4-2.2-.1-1.7-1.7zM-50.7-597.9c1.6-.6 2.2-.1 1.7 1.6-1.5.6-2.1.1-1.7-1.6zM-104.8-594.5c1.4-1.2 3.1 1.3 1.7 2.3-1.5 1.3-3.2-1.3-1.7-2.3z"/><path class="st1" d="M617.8 958c2.1-2.9 4.4-5.6 6.8-8.3 3.9 4 7.8 8.1 11.6 12.1 4.7-2.9 9.4-6 14.1-9.1 1.8 3 3.5 6.1 5.1 9.2-4 1.9-8 3.8-11.7 6.4 1.4 4.6 6.1 7.6 8.8 11.6-2 1.5-3.9 3.1-5.9 4.7-3.9-3.7-7.8-7.3-11.7-11-4.8 2.9-9.8 5.6-14.9 8.1-1.1-2.4-2.3-4.8-3.3-7.3 3.9-2.2 7.7-4.7 11.4-7.3-3.3-3.2-6.5-6.5-10.3-9.1z"/><linearGradient id="SVGID_1_" gradientUnits="userSpaceOnUse" x1="927.955" y1="818.66" x2="609.48" y2="479.638"><stop offset="0" style="stop-color:#dae3fe"/><stop offset="1" style="stop-color:#e9effd"/></linearGradient><path d="M832.3 682.6c-11.8 12.1-22.3 19.2-30.3 24.6-78.6 52.4-168.3 37.3-196.1 32.2-44.8-8.3-82.6-14.2-115.1-43.6-73.8-66.7-70.2-205.8-13.8-292 6.7-10.2 63-93.7 153-105.5 2.2-.3 3.8-.5 5.3-.6 13.9-1.5 100.2-9.3 170.5 49.7 10.1 8.4 26.3 23.7 41.3 46.9 54.9 84.9 55.1 216.3-14.8 288.3z" style="fill:url(#SVGID_1_)"/><ellipse transform="rotate(-87.486 594.46 468.747) scale(.99996)" class="st3" cx="594.5" cy="468.7" rx="143.7" ry="155.1"/><ellipse cx="586.1" cy="458.4" rx="121.7" ry="115" style="opacity:.19;fill:#fff"/><g style="opacity:.68"><path class="st1" d="M634.2 469.4s0 2.4-.1 6.8c-.1 4.5-.2 11-.6 19.3-.4 8.3-1.2 18.4-2.6 29.9-1.4 11.5-3.5 24.4-7 38.3-1.8 6.9-3.9 14.1-6.8 21.2-1.4 3.6-3.1 7.2-5 10.6-2 3.5-4.3 6.9-7.3 9.8-1.5 1.4-3.2 2.7-5.2 3.6-1.9.9-4.2 1.3-6.4 1.1-2.2-.2-4.3-1.1-6.1-2.3-1.8-1.2-3.4-2.7-4.9-4.3-2.9-3.3-5.1-7.1-7.1-11-2-3.9-3.7-8-5.2-12.3-3-8.4-5.3-17.2-7.2-26.2-1.9-9-3.4-18.2-4.6-27.4-2.4-18.6-3.5-37.6-3.6-56.6 0-9.5.3-19 .8-28.5s1.3-18.9 2.4-28.2c1.1-9.3 2.4-18.5 4.2-27.5 1.8-9 3.9-17.8 6.7-26.3 1.4-4.2 3-8.4 4.9-12.3 1.9-4 4.1-7.8 6.9-11.1 1.4-1.6 3-3.2 4.8-4.4 1.8-1.2 3.9-2 6-2.2.5 0 1.1-.1 1.6 0 .5 0 1.1.1 1.6.2 1.1.2 2.1.5 3 .9 1.9.9 3.6 2.1 5.2 3.5 3 2.8 5.4 6.1 7.5 9.6 2.1 3.4 3.8 7 5.3 10.5 3.1 7.1 5.3 14.2 7.3 21 3.8 13.8 6.1 26.7 7.7 38.2.8 5.7 1.4 11.1 1.9 16.1.5 5 .8 9.6 1 13.7.5 8.3.7 14.8.7 19.3.2 4.7.2 7 .2 7zm-2.1 0v-6.8c-.1-4.4-.2-10.9-.6-19.2-.2-4.1-.5-8.7-1-13.7-.4-5-1-10.3-1.7-16.1-.7-5.7-1.6-11.8-2.8-18.2-1.2-6.4-2.6-13-4.4-19.9-1.8-6.9-4-13.9-7-21-1.5-3.5-3.1-7-5.1-10.4-2-3.4-4.3-6.7-7.2-9.5-1.5-1.4-3.1-2.6-4.9-3.4-1.8-.8-3.9-1.3-5.9-1.1-2 .2-4 1-5.7 2.2-1.7 1.2-3.2 2.7-4.6 4.3-2.7 3.3-4.8 7.1-6.6 11-1.8 3.9-3.4 8.1-4.7 12.3-2.7 8.4-4.7 17.3-6.4 26.2-1.6 9-2.9 18.2-3.9 27.4-1.9 18.5-2.6 37.5-2.6 56.4-.1 18.9.9 37.9 3.1 56.4 1.1 9.3 2.5 18.4 4.3 27.3 1.8 8.9 4.1 17.7 7 26.1 1.5 4.2 3.1 8.3 5 12.1 1.9 3.9 4.1 7.6 6.9 10.8 1.4 1.6 2.9 3 4.6 4.2 1.7 1.1 3.6 1.9 5.6 2.1 2 .2 4-.2 5.8-1 1.8-.8 3.4-2.1 4.8-3.5 2.9-2.8 5.1-6.1 7-9.6 1.9-3.4 3.5-7 4.9-10.5 2.8-7.1 4.8-14.2 6.5-21.1 1.7-6.9 3-13.6 4.1-19.9 1.1-6.4 1.9-12.5 2.6-18.2.7-5.7 1.2-11.1 1.6-16.1.4-5 .7-9.6.9-13.7.4-8.3.6-14.8.6-19.2-.2-4.3-.2-6.7-.2-6.7z"/><path class="st1" d="M698.1 469.5v2.2c0 .7 0 1.7-.1 2.7 0 1.1 0 2.3-.1 3.8-.1 1.4-.2 3-.3 4.8-.1 1.8-.3 3.7-.5 5.7-.2 2.1-.5 4.3-.8 6.7-.3 2.4-.8 4.9-1.2 7.5-.1.7-.2 1.3-.4 2-.1.7-.3 1.4-.4 2l-.9 4.2c-.4 1.4-.7 2.9-1.1 4.4-.2.7-.4 1.5-.6 2.3-.2.8-.5 1.5-.7 2.3-1.8 6.2-4.2 12.8-7.2 19.6-3 6.8-6.7 13.9-11.3 20.9-4.6 7-10 14-16.5 20.5-6.4 6.6-14.1 12.5-22.6 17.4-1 .7-2.2 1.2-3.3 1.8-.6.3-1.1.6-1.7.9l-.8.4c-.3.1-.6.3-.9.4-1.2.5-2.3 1-3.5 1.5-.3.1-.6.3-.9.4l-.9.3c-.6.2-1.2.4-1.8.7-2.4 1-4.9 1.6-7.4 2.4-1.3.3-2.5.6-3.8.9-.6.1-1.3.3-1.9.4-.6.1-1.3.2-1.9.3-.6.1-1.3.2-2 .3-.7.1-1.3.2-2 .3-1.3.1-2.6.3-4 .4-.7.1-1.3.1-2 .1s-1.3 0-2 .1c-.7 0-1.3 0-2 .1-.7 0-1.3 0-2-.1-1.3-.1-2.7-.1-4-.1-1.4-.1-2.7-.3-4.1-.4l-1-.1-1-.2c-.7-.1-1.4-.2-2-.3-.7-.1-1.4-.2-2-.3-.7-.1-1.3-.3-2-.5-5.4-1.1-10.7-3-15.9-5.2l-1.9-.9-1-.4-.9-.5c-1.3-.6-2.5-1.3-3.8-2-2.5-1.4-5-2.8-7.3-4.5-1.2-.8-2.4-1.6-3.5-2.5-1.2-.9-2.3-1.7-3.5-2.6-1.1-.9-2.2-1.9-3.3-2.8l-.8-.7-.8-.7-1.6-1.5-1.6-1.5c-.5-.5-1-1-1.5-1.6-1-1.1-2.1-2.1-3.1-3.2s-2-2.2-2.9-3.3c-.5-.5-1-1.1-1.4-1.7l-1.4-1.7-1.4-1.7c-.5-.6-.9-1.2-1.3-1.8-.9-1.2-1.8-2.4-2.6-3.6-1.6-2.5-3.3-4.9-4.8-7.5-1.6-2.5-3-5.2-4.4-7.8-.7-1.3-1.3-2.7-2-4l-1-2-.9-2.1c-.6-1.4-1.2-2.8-1.8-4.1-.6-1.4-1.1-2.8-1.7-4.2-.6-1.4-1.1-2.8-1.6-4.3l-.8-2.1c-.3-.7-.5-1.4-.7-2.2-.9-2.9-1.8-5.8-2.5-8.8l-.6-2.2-.3-1.1-.2-1.1-1-4.5-.2-1.1-.2-1.1-.4-2.3-.4-2.3c-.1-.8-.3-1.5-.4-2.3-.4-3-.9-6.1-1.1-9.1-.7-6.1-.9-12.2-.9-18.4l.1-4.6v-2.3c0-.8.1-1.5.1-2.3l.3-4.6c.1-1.5.3-3.1.4-4.6.2-3.1.7-6.1 1.1-9.1.1-.8.2-1.5.4-2.3l.4-2.3.4-2.3.2-1.1.2-1.1 1-4.5.2-1.1.3-1.1.6-2.2c.7-3 1.6-5.9 2.5-8.8.2-.7.5-1.4.7-2.2l.8-2.1c.5-1.4 1-2.9 1.6-4.3.6-1.4 1.1-2.8 1.7-4.2.6-1.4 1.2-2.8 1.8-4.1l.9-2.1 1-2c.7-1.3 1.3-2.7 2-4 1.5-2.6 2.8-5.3 4.4-7.8 1.5-2.6 3.2-5 4.8-7.5.9-1.2 1.8-2.4 2.6-3.6.4-.6.9-1.2 1.3-1.8l1.4-1.7 1.4-1.7c.5-.6.9-1.1 1.4-1.7 1-1.1 2-2.2 2.9-3.3 1-1.1 2-2.1 3.1-3.2.5-.5 1-1.1 1.5-1.6l1.6-1.5 1.6-1.5.8-.7.8-.7c1.1-.9 2.2-1.9 3.3-2.8 1.1-.9 2.3-1.7 3.5-2.6 1.1-.9 2.3-1.7 3.5-2.5 2.3-1.6 4.9-3 7.3-4.5 1.3-.6 2.5-1.3 3.8-1.9l.9-.5 1-.4 1.9-.9c5.2-2.2 10.5-4 15.9-5.2 5.4-1.2 10.8-1.9 16.2-1.9.7 0 1.3-.1 2-.1s1.3 0 2 .1c.7 0 1.3 0 2 .1.7 0 1.3 0 2 .1 1.3.1 2.7.3 4 .4.7 0 1.3.2 2 .3.7.1 1.3.2 1.9.3.6.1 1.3.2 1.9.3.6.1 1.3.3 1.9.4 1.3.3 2.5.6 3.8.9 2.5.8 5 1.4 7.3 2.4.6.2 1.2.4 1.8.7l.9.3c.3.1.6.3.9.4 1.2.5 2.3 1 3.5 1.5.3.1.6.2.9.4l.8.4c.6.3 1.1.6 1.7.9 1.1.6 2.2 1.1 3.3 1.8 8.6 4.9 16.2 10.9 22.6 17.4 6.5 6.5 11.9 13.5 16.5 20.5s8.3 14.1 11.3 20.9c3 6.8 5.4 13.4 7.2 19.6.2.8.5 1.5.7 2.3.2.8.4 1.5.6 2.3.4 1.5.8 3 1.1 4.4.3 1.4.6 2.9.9 4.2.2.7.3 1.4.4 2 .1.7.2 1.3.4 2 .5 2.6 1 5.1 1.2 7.5.3 2.4.7 4.6.8 6.7.2 2.1.4 4 .5 5.7.1 1.8.2 3.4.3 4.8.1 1.4.1 2.7.1 3.8 0 1.1 0 2 .1 2.8.1 1.8.1 2.5.1 2.6zm-2.4-.1v-4.9c0-1.1 0-2.3-.1-3.7-.1-1.4-.2-3-.3-4.7-.1-1.7-.3-3.6-.5-5.7s-.5-4.2-.8-6.6c-.3-2.3-.7-4.8-1.2-7.4-.1-.7-.2-1.3-.4-2-.1-.7-.3-1.3-.4-2l-.9-4.2c-.4-1.4-.7-2.9-1.1-4.3-.2-.7-.4-1.5-.6-2.2-.2-.7-.4-1.5-.7-2.3-1.7-6.1-4-12.7-6.9-19.4-2.9-6.8-6.5-13.8-10.9-20.8s-9.8-13.9-16.1-20.4c-6.3-6.5-13.7-12.5-22.2-17.4-1-.7-2.1-1.2-3.2-1.8-.5-.3-1.1-.6-1.6-.9l-.8-.4c-.3-.1-.6-.3-.8-.4-1.1-.5-2.3-1-3.4-1.5-.3-.1-.6-.3-.9-.4l-.9-.3c-.6-.2-1.2-.4-1.8-.7-2.3-1-4.8-1.6-7.3-2.4-1.2-.3-2.5-.6-3.8-.9-.6-.1-1.3-.3-1.9-.4-.6-.1-1.3-.2-1.9-.3-.6-.1-1.3-.2-1.9-.3-.6-.1-1.3-.2-1.9-.3-1.3-.1-2.6-.3-3.9-.4-.7-.1-1.3-.1-2-.1s-1.3 0-2-.1c-.7 0-1.3 0-2-.1-.6 0-1.3 0-2 .1-5.3 0-10.7.8-16.1 2-5.3 1.1-10.6 3-15.7 5.2l-1.9.9-1 .4-.9.5c-1.2.6-2.5 1.3-3.7 2-2.4 1.4-4.9 2.8-7.2 4.5-1.2.8-2.4 1.6-3.5 2.5-1.1.9-2.3 1.7-3.4 2.6-1.1.9-2.2 1.9-3.3 2.8l-.8.7-.8.7-1.6 1.5-1.6 1.5c-.5.5-1 1-1.5 1.6-1 1.1-2 2.1-3 3.2-.9 1.1-1.9 2.2-2.8 3.3-.5.5-.9 1.1-1.4 1.7l-1.4 1.7-1.4 1.7c-.4.6-.9 1.2-1.3 1.8-.8 1.2-1.7 2.4-2.5 3.6-1.6 2.5-3.2 4.9-4.7 7.5-1.5 2.5-2.9 5.2-4.3 7.8-.7 1.3-1.3 2.7-1.9 4l-1 2-.9 2.1c-.6 1.4-1.2 2.7-1.7 4.1-.5 1.4-1.1 2.8-1.6 4.2-.6 1.4-1 2.8-1.5 4.2l-.7 2.1c-.2.7-.5 1.4-.7 2.1-.8 2.9-1.7 5.7-2.4 8.7l-.6 2.2-.3 1.1-.2 1.1-.9 4.4-.2 1.1-.2 1.1-.4 2.2-.4 2.2c-.1.7-.3 1.5-.3 2.2-.4 3-.8 6-1.1 9-.1 1.5-.3 3-.4 4.5l-.3 4.5c0 .8-.1 1.5-.1 2.3v2.3l-.1 4.5c0 12.1 1.2 24.2 3.5 36l.9 4.4.2 1.1.3 1.1.6 2.2c.7 2.9 1.6 5.8 2.4 8.7.2.7.4 1.4.7 2.1l.7 2.1c.5 1.4.9 2.8 1.5 4.2.5 1.4 1.1 2.8 1.6 4.2.6 1.4 1.2 2.7 1.7 4.1l.9 2 1 2c.6 1.3 1.3 2.7 1.9 4 1.4 2.6 2.7 5.2 4.3 7.8 1.4 2.6 3.1 5 4.7 7.5.8 1.2 1.7 2.4 2.5 3.6.4.6.8 1.2 1.3 1.8l1.4 1.7 1.4 1.7c.4.6.9 1.1 1.4 1.7 1 1.1 1.9 2.2 2.8 3.3 1 1.1 2 2.1 3 3.2.5.5 1 1.1 1.5 1.6l1.6 1.5 1.6 1.5.8.7.8.7c1.1.9 2.2 1.9 3.3 2.8 1.1.9 2.3 1.7 3.4 2.6 1.1.9 2.3 1.7 3.5 2.5 2.3 1.6 4.8 3 7.2 4.5 1.2.7 2.5 1.3 3.7 1.9l.9.5 1 .4 1.9.9c5.1 2.2 10.3 4.1 15.7 5.2.7.2 1.3.3 2 .5.7.1 1.3.2 2 .3.7.1 1.3.2 2 .3l1 .2 1 .1c1.3.1 2.7.3 4 .4 1.3.1 2.7.1 4 .2.7 0 1.4.1 2 .1.7 0 1.3 0 2-.1.7 0 1.3 0 2-.1.7 0 1.3 0 2-.1 1.3-.1 2.6-.3 3.9-.4.7 0 1.3-.2 1.9-.3.6-.1 1.3-.2 1.9-.3.6-.1 1.3-.2 1.9-.3.6-.1 1.3-.3 1.9-.4 1.3-.3 2.5-.6 3.7-.9 2.4-.8 4.9-1.4 7.2-2.4.6-.2 1.2-.4 1.8-.7l.9-.3c.3-.1.6-.3.9-.4 1.1-.5 2.3-1 3.4-1.5.3-.1.6-.2.8-.4l.8-.4c.5-.3 1.1-.6 1.6-.9 1.1-.6 2.2-1.1 3.2-1.8 8.5-4.9 15.9-10.9 22.2-17.4 6.3-6.5 11.7-13.4 16.1-20.4 4.5-7 8-14 11-20.7 2.9-6.8 5.2-13.3 6.9-19.4.2-.8.5-1.5.7-2.3.2-.8.4-1.5.6-2.2.4-1.5.7-2.9 1.1-4.3l.9-4.2c.1-.7.3-1.4.4-2 .1-.7.2-1.3.4-2 .4-2.6.9-5.1 1.2-7.4.3-2.3.6-4.5.8-6.6.2-2 .4-3.9.5-5.7.1-1.7.2-3.3.3-4.7.1-1.4.1-2.7.1-3.8v-2.7c.2-1.9.2-2.7.2-2.7z"/><path class="st1" d="M464.8 413.7s4 0 11.1-.1 17.2-.1 29.3-.2c12.1-.1 26.3-.1 41.4-.2 15.2 0 31.3 0 47.5-.1 16.2 0 32.3.1 47.5.1 7.6 0 14.9.1 21.8.1s13.5.1 19.6.1c12.1.1 22.2.2 29.3.2 7.1.1 11.1.1 11.1.1.1 0 .1 0 .1.1s0 .1-.1.1c0 0-4 0-11.1.1s-17.2.2-29.3.2c-6.1 0-12.6.1-19.6.1-6.9 0-14.3.1-21.8.1-15.2 0-31.3.1-47.5.1s-32.3 0-47.5-.1c-15.2-.1-29.3-.1-41.4-.2-12.1-.1-22.2-.2-29.3-.2-7.1-.1-11.1-.1-11.1-.1-.1 0-.2-.1-.2-.2 0 .1.1 0 .2 0zM502.3 359.6s2.9 0 7.9-.1 12.2-.1 20.8-.2c4.3 0 9-.1 13.9-.1s10.1-.1 15.5-.1c10.8 0 22.2 0 33.7-.1 11.5 0 22.9.1 33.7.1 5.4 0 10.6 0 15.5.1 4.9 0 9.6.1 13.9.1 8.6.1 15.8.2 20.8.2 5 .1 7.9.1 7.9.1.1 0 .1 0 .1.1s0 .1-.1.1c0 0-2.9 0-7.9.1s-12.2.2-20.8.2c-4.3 0-9 .1-13.9.1s-10.1.1-15.5.1c-10.8 0-22.2.1-33.7.1-11.5 0-22.9 0-33.7-.1-5.4 0-10.6-.1-15.5-.1s-9.6-.1-13.9-.1c-8.6-.1-15.8-.2-20.8-.2-5-.1-7.9-.1-7.9-.1-.1 0-.2-.1-.2-.2 0 .1.1 0 .2 0zM453.5 467.9s4.4 0 12.1-.1c7.7-.1 18.7-.1 31.8-.2 13.2-.1 28.5-.1 45-.2 16.5 0 34 0 51.6-.1 17.6 0 35.1.1 51.6.1 8.2 0 16.2.1 23.7.1s14.7.1 21.3.1c13.2.1 24.2.2 31.8.2 7.7.1 12.1.1 12.1.1.1 0 .1 0 .1.1s0 .1-.1.1c0 0-4.4 0-12.1.1-7.7.1-18.7.1-31.8.2-6.6 0-13.7.1-21.3.1-7.5 0-15.5.1-23.7.1-16.5 0-34 .1-51.6.1s-35.1 0-51.6-.1-31.8-.1-45-.2-24.2-.2-31.8-.2c-7.7-.1-12.1-.1-12.1-.1-.1 0-.2-.1-.2-.2h.2zM464.8 522s4 0 11.1-.1 17.2-.1 29.3-.2c12.1-.1 26.3-.1 41.4-.2 15.2 0 31.3 0 47.5-.1 16.2 0 32.3.1 47.5.1 7.6 0 14.9.1 21.8.1s13.5.1 19.6.1c12.1.1 22.2.2 29.3.2 7.1.1 11.1.1 11.1.1.1 0 .1 0 .1.1s0 .1-.1.1c0 0-4 0-11.1.1s-17.2.2-29.3.2c-6.1 0-12.6.1-19.6.1-6.9 0-14.3.1-21.8.1-15.2 0-31.3.1-47.5.1s-32.3 0-47.5-.1c-15.2-.1-29.3-.1-41.4-.2-12.1-.1-22.2-.2-29.3-.2-7.1-.1-11.1-.1-11.1-.1-.1 0-.2-.1-.2-.2 0 .1.1 0 .2 0zM690.5 576.8H506.9c-.3 0-.5-.2-.5-.5s.2-.5.5-.5h183.6c.3 0 .5.2.5.5s-.2.5-.5.5z"/></g><linearGradient id="SVGID_2_" gradientUnits="userSpaceOnUse" x1="476.013" y1="588.172" x2="885.626" y2="588.172"><stop offset="0" style="stop-color:#09005d"/><stop offset="1" style="stop-color:#1a0f91"/></linearGradient><path d="M476 480.6V682c0 16.6 11.9 30.1 26.8 30.5 66.4 1.9 298.4 6.5 361.6 5.5 10.9-.2 19.7-9.8 20-21.8 1.2-46.8 3.2-159.3-4.1-211.5-1.5-11-9.9-19.2-20-19.6-55.6-2-301.6-8.2-364.8-6.7-10.8.3-19.5 10.2-19.5 22.2z" style="fill:url(#SVGID_2_)"/><linearGradient id="SVGID_3_" gradientUnits="userSpaceOnUse" x1="688.992" y1="484.334" x2="660.684" y2="757.622"><stop offset="0" style="stop-color:#4f52ff"/><stop offset="1" style="stop-color:#4042e2"/></linearGradient><path d="M487.4 479.7V671c0 9.7 7 17.6 15.7 17.7l352.2 4.8c8.7.1 15.7-7.6 15.8-17.2l.6-189.6c0-6.9-4.9-12.5-11.1-12.6L500 466c-6.9-.2-12.6 6-12.6 13.7z" style="fill:url(#SVGID_3_)"/><path d="M500.4 486.2v173.3c0 8.8 6.6 15.9 14.8 16l330.8 4.4c8.1.1 14.8-6.9 14.8-15.5l.6-171.7c0-6.2-4.6-11.3-10.4-11.4L512.3 474c-6.6-.3-11.9 5.2-11.9 12.2z" style="opacity:.12;fill:#fff"/><path d="M873.8 701.3 487.4 694c-.3 0-.5-.2-.5-.5s.2-.5.5-.5l386.4 7.3c.3 0 .5.2.5.5s-.2.5-.5.5z" style="opacity:.65;fill:#fff"/><path class="st10" d="M559.4 608c-11.7-.1-21.7-9.5-22.6-21.3l-2.1-26.8c-.5-6.4 1.6-12.7 5.8-17.2 4-4.3 9.5-6.7 15.4-6.7l209.3-.4c6.6 0 12.3 2.6 16.2 7.4 4 4.9 5.5 11.5 4.1 18.2l-5.7 28.1c-2.4 11.7-13.8 20.8-25.9 20.8-.2-.1-194.5-2.1-194.5-2.1z"/><path class="st3" d="m765.1 541-209.3.4c-9.5 0-16.5 8.2-15.7 18.1l2.1 26.8c.7 9 8.4 16.2 17.3 16.3l194.1 2.1c9.6.1 18.9-7.1 20.8-16.5l5.7-28.1c2.1-10.4-4.6-19.1-15-19.1z"/><path class="st1" d="m604.4 560.3-9.7 29.5c-.5 1.4-1.6 2.5-2.9 2.8H590.1c-1.3-.3-2.4-1.3-2.9-2.8l-6.1-18.6-6.1 18.6c-.5 1.4-1.6 2.5-2.9 2.8h-.2.1-1.4c-1.3-.3-2.4-1.3-2.9-2.8l-9.7-29.5v-.1c-.2-.5-.2-1-.2-1.4 0-1.7 1-3.4 2.6-4 .4-.2.8-.2 1.2-.2 1.6 0 3.2 1.1 3.7 2.9 0 .1 3.3 10.2 6.1 18.5 2.7-8.4 6-18.4 6-18.5.4-1.3 1.3-2.2 2.4-2.7H582.7c1.1.5 1.9 1.4 2.4 2.7 0 .1 3.3 10.2 6 18.5 2.7-8.4 6-18.4 6-18.5.6-1.8 2.1-2.9 3.8-2.9.4 0 .8 0 1.2.2 1.6.6 2.6 2.2 2.6 4l-.3 1.5zM653.1 560.3l-9.7 29.5c-.5 1.4-1.6 2.5-2.9 2.8H638.8c-1.3-.3-2.4-1.3-2.9-2.8l-6.1-18.6-6.1 18.6c-.5 1.4-1.6 2.5-2.9 2.8H619.9h.1-.8c-1.3-.3-2.4-1.3-2.9-2.8l-9.7-29.5v-.1c-.2-.5-.2-1-.2-1.4 0-1.7 1-3.4 2.6-4 .4-.2.8-.2 1.2-.2 1.6 0 3.2 1.1 3.7 2.9 0 .1 3.3 10.2 6.1 18.5 2.7-8.4 6-18.4 6-18.5.4-1.3 1.3-2.2 2.4-2.7H631.3c1.1.5 1.9 1.4 2.4 2.7 0 .1 3.3 10.2 6 18.5 2.7-8.4 6-18.4 6-18.5.6-1.8 2.1-2.9 3.8-2.9.4 0 .8 0 1.2.2 1.6.6 2.6 2.2 2.6 4 0 .5 0 1-.2 1.5zM701.8 560.3l-9.7 29.5c-.5 1.4-1.6 2.5-2.9 2.8h-1.6c-1.3-.3-2.4-1.3-2.9-2.8l-6.1-18.6-6.1 18.6c-.5 1.4-1.6 2.5-2.9 2.8H667.8c-1.3-.3-2.4-1.3-2.9-2.8l-9.7-29.5v-.1c-.2-.5-.2-1-.2-1.4 0-1.7 1-3.4 2.6-4 .4-.2.8-.2 1.2-.2 1.6 0 3.2 1.1 3.7 2.9 0 .1 3.3 10.2 6.1 18.5 2.7-8.4 6-18.4 6-18.5.4-1.3 1.3-2.2 2.4-2.7H679.9c1.1.5 1.9 1.4 2.4 2.7 0 .1 3.3 10.2 6 18.5 2.7-8.4 6-18.4 6-18.5.6-1.8 2.1-2.9 3.8-2.9.4 0 .8 0 1.2.2 1.6.6 2.6 2.2 2.6 4 .2.5.1 1-.1 1.5zM712.2 593.3c0 .9-.7 1.6-1.6 1.6-.9 0-1.6-.7-1.6-1.6v-45.2c0-.9.7-1.6 1.6-1.6.9 0 1.6.7 1.6 1.6v45.2zM798.6 630.9l-24.4-29.7c-.2-.2-.3-.6-.2-.8.1-.3.3-.5.6-.6l21.5-5.2c.9-.2 1.5-.9 1.7-1.8.1-.9-.3-1.8-1-2.3l-61.4-38.8c-.7-.5-1.7-.5-2.4 0s-1.1 1.4-1 2.2l12.8 77.1c.2.9.9 1.7 1.8 1.8.9.2 1.9-.2 2.3-1.1l11.9-20c.1-.3.4-.4.7-.4.3 0 .6.1.8.3l22.7 29.1c1.3 1.7 3.7 2 5.4.9l7.3-5c.9-.6 1.6-1.6 1.7-2.7s-.1-2.1-.8-3z"/><g><path class="st11" d="M533.3 690.6h4.3v46.5h-4.3z"/><path class="st11" d="M554.2 738h-37.6v-1.5c0-.7.6-1.3 1.3-1.3h34.8c.8 0 1.4.6 1.4 1.4v1.4zM561.3 688.9c0 2.7-2.2 4.9-4.9 4.9H516c-2.7 0-4.9-2.2-4.9-4.9v-4.4c0-2.7 2.2-4.9 4.9-4.9h40.5c2.7 0 4.9 2.2 4.9 4.9v4.4z"/><linearGradient id="SVGID_4_" gradientUnits="userSpaceOnUse" x1="497.098" y1="739.622" x2="507.623" y2="770.109"><stop offset="0" style="stop-color:#09005d"/><stop offset="1" style="stop-color:#1a0f91"/></linearGradient><path d="M497.3 723s-13.9 6-13.1 12.2c0 0 14.4-2.8 16.9-6.9 2.6-4.1 1.2-6.5 1.2-6.5l-5 1.2z" style="fill:url(#SVGID_4_)"/><linearGradient id="SVGID_5_" gradientUnits="userSpaceOnUse" x1="666.76" y1="820.538" x2="674.315" y2="820.538" gradientTransform="scale(-1 1) rotate(-12.48 -373.02 6114.612)"><stop offset="0" style="stop-color:#febbba"/><stop offset="1" style="stop-color:#ff928e"/></linearGradient><path d="m500.7 716.2.7 6.1c.1.9-.4 1.8-1.3 2.1-.4.2-1 .3-1.8.3-1.1 0-2-.7-2.3-1.7l-1.4-4.9 6.1-1.9z" style="fill:url(#SVGID_5_)"/><linearGradient id="SVGID_6_" gradientUnits="userSpaceOnUse" x1="487.321" y1="694.041" x2="533.696" y2="694.041"><stop offset="0" style="stop-color:#e1473d"/><stop offset="1" style="stop-color:#e9605a"/></linearGradient><path d="M531.1 669.4s-25.5-1.2-38.3 6.2c-12.7 7.4.6 43 .6 43s3.3.7 8.1-1.8c0 0-6.8-26 5-30.6 13.3-5.1 27.1-3.9 27.1-3.9l-2.6-12.1.1-.8z" style="fill:url(#SVGID_6_)"/><linearGradient id="SVGID_7_" gradientUnits="userSpaceOnUse" x1="502.123" y1="649.712" x2="497.042" y2="693.627"><stop offset="0" style="stop-color:#09005d"/><stop offset="1" style="stop-color:#1a0f91"/></linearGradient><path d="M487 732.5c2.9-.6 11.5-4.2 12.8-4.2 1.3 0 3.2 2 3.2 2s.3 1.1-.6 2.6c-2.2 1.7-7 4.9-12.6 5.3-4.1.3-6.5-1.4-8-2.9 1.3-1.2 3.3-2.4 5.2-2.8z" style="fill:url(#SVGID_7_)"/><linearGradient id="SVGID_8_" gradientUnits="userSpaceOnUse" x1="663.622" y1="837.13" x2="683.94" y2="837.13" gradientTransform="scale(-1 1) rotate(-12.48 -373.02 6114.612)"><stop offset="0" style="stop-color:#4f52ff"/><stop offset="1" style="stop-color:#4042e2"/></linearGradient><path d="M489.8 738.2c5.6-.3 10.3-3.5 12.6-5.3-.6 1-1.8 2.3-4.1 3.6-5.6 3.2-14.9 2.7-16.7 2-1.5-.6-1-2 .3-3.3 1.4 1.6 3.8 3.3 7.9 3z" style="fill:url(#SVGID_8_)"/><linearGradient id="SVGID_9_" gradientUnits="userSpaceOnUse" x1="661.296" y1="827.511" x2="668.387" y2="827.511" gradientTransform="scale(-1 1) rotate(-12.48 -373.02 6114.612)"><stop offset="0" style="stop-color:#febbba"/><stop offset="1" style="stop-color:#ff928e"/></linearGradient><path d="M506.1 727.2c-.2.7-2.2 2.9-3.4 4.1-.6.6-1.4.8-2.2.6-.5-.1-1.1-.3-1.5-.5-.7-.4-1-1.3-.6-2l3-5.4 4.7 3.2z" style="fill:url(#SVGID_9_)"/><linearGradient id="SVGID_10_" gradientUnits="userSpaceOnUse" x1="499.252" y1="698.048" x2="556.764" y2="698.048"><stop offset="0" style="stop-color:#e1473d"/><stop offset="1" style="stop-color:#e9605a"/></linearGradient><path d="M556.4 667.3s2.2 15.8-4.2 19.1c-6.4 3.2-20.6 5.4-25.5 13.6-4.9 8.2-13.6 24.3-21.6 28.9 0 0-4.5-1.5-5.9-3.7 0 0 9.5-24.8 13.4-30.9 3.4-5.2 8.4-12.8 15.5-16 2-.9 2.2-3.1 1.8-5.3l-.7-4 27.2-1.7z" style="fill:url(#SVGID_10_)"/><linearGradient id="SVGID_11_" gradientUnits="userSpaceOnUse" x1="555.251" y1="544.074" x2="525.855" y2="610.216"><stop offset="0" style="stop-color:#ff928e"/><stop offset="1" style="stop-color:#fe7062"/></linearGradient><path d="M496.6 649.3c9 2.6 13.1-22.9 13.1-23.5l13.9 16.2s-8.3 14.5-20.7 16.1c-3.2.4-5.8-.2-8.1-1.2 1.6-2.7 2-5.3 1.8-7.6z" style="fill:url(#SVGID_11_)"/><linearGradient id="SVGID_12_" gradientUnits="userSpaceOnUse" x1="686.817" y1="752.871" x2="711.554" y2="752.871" gradientTransform="scale(-1 1) rotate(-12.48 -373.02 6114.612)"><stop offset="0" style="stop-color:#febbba"/><stop offset="1" style="stop-color:#ff928e"/></linearGradient><path d="M479.9 641c3.9-1.6 7.3 1.6 7.3 1.6 3.9 4 7 6 9.5 6.7.1 2.2-.3 4.9-1.9 7.6-4.9-2.2-7.7-6.7-8.9-9-.4-.8-1.4-1.2-2.2-.8-.8.4-1.7 1-1.7 1.9-.1 1.7-2.1 1.7-2.1 1.1 0-.6 1.5-3.9 1.5-3.9s-4.5 2.9-6.3 4c-1.8 1.1-3.3-.7-3.3-.7s4.1-6.9 8.1-8.5z" style="fill:url(#SVGID_12_)"/><linearGradient id="SVGID_13_" gradientUnits="userSpaceOnUse" x1="575.096" y1="552.895" x2="545.7" y2="619.036"><stop offset="0" style="stop-color:#ff928e"/><stop offset="1" style="stop-color:#fe7062"/></linearGradient><path d="M552.9 615.4s-12.1-8.3-41.5 6.7c0 0-3 3.8-1.6 8.1s18.8 27.7 19.5 38.7c0 0 11.9 7 27.4.1 0 0 5.2-29-3.8-53.6z" style="fill:url(#SVGID_13_)"/><linearGradient id="SVGID_14_" gradientUnits="userSpaceOnUse" x1="659.357" y1="708.388" x2="675.769" y2="708.388" gradientTransform="scale(-1 1) rotate(-12.48 -373.02 6114.612)"><stop offset="0" style="stop-color:#febbba"/><stop offset="1" style="stop-color:#ff928e"/></linearGradient><path d="m524.6 602.4 7.8 11.8c.5.9.4 2.1-.3 2.9-1.3 1.7-4.1 3.9-8.8 2.4-1.4-.4-2.5-1.6-2.8-3L518 606l6.6-3.6z" style="fill:url(#SVGID_14_)"/><linearGradient id="SVGID_15_" gradientUnits="userSpaceOnUse" x1="596.225" y1="562.285" x2="566.828" y2="628.426"><stop offset="0" style="stop-color:#ff928e"/><stop offset="1" style="stop-color:#fe7062"/></linearGradient><path d="M561.9 648.2c.8-5.7-14.3-16.8-14.3-16.8l5.3-16s28.8 20.6 22.8 37.4c-.9 2.4-2.2 4.2-3.7 5.4-3.1-6.3-7.3-8.9-10.1-10z" style="fill:url(#SVGID_15_)"/><linearGradient id="SVGID_16_" gradientUnits="userSpaceOnUse" x1="578.616" y1="592.546" x2="526.356" y2="714.213"><stop offset="0" style="stop-color:#febbba"/><stop offset="1" style="stop-color:#ff928e"/></linearGradient><path d="M540.8 649.8s17.1 4.8 20.6-.4c.2-.4.4-.7.4-1.2 2.8 1.1 7 3.7 10 9.9-8.1 6.4-23.8-.8-28-2.9-.7-.4-1.5-.4-2.3-.2-1.5.5-4.1 1.2-5.6 1.1-2.1-.1-4.4 7.6-8.1 5.6.2.1 1.9-13 13-11.9z" style="fill:url(#SVGID_16_)"/><linearGradient id="SVGID_17_" gradientUnits="userSpaceOnUse" x1="-1329.344" y1="-1583.957" x2="-1352.628" y2="-1553.154" gradientTransform="scale(-1 1) rotate(-3.204 38042.222 -15112.047)"><stop offset="0" style="stop-color:#febbba"/><stop offset="1" style="stop-color:#ff928e"/></linearGradient><path d="M506.9 594.9c0 .2 3.5 12.4 5.3 18.7.6 1.9 2.6 2.9 4.5 2.1l1.4-.6c1.9-.8 5.3-3.3 5.4-5.3l-.6-14.8s-15.8-4.6-16-.1z" style="fill:url(#SVGID_17_)"/><linearGradient id="SVGID_18_" gradientUnits="userSpaceOnUse" x1="-1344.253" y1="-1585.776" x2="-1319.745" y2="-1585.776" gradientTransform="scale(-1 1) rotate(-3.204 38042.222 -15112.047)"><stop offset="0" style="stop-color:#09005d"/><stop offset="1" style="stop-color:#1a0f91"/></linearGradient><path d="M522.8 590.9c.4-1.4.4-3.5-2.2-4.4-2.7-.9-4.5.6-5.4 1.8-.4.5-1 .6-1.6.3-.3-.2-.7-.2-1.1.1-.6.4-1.4.2-1.8-.4-.7-1.2-2.1-2.4-4.6-1.8-4.4 1.2-4.5 6.1-3 8.9 1.4 2.8 6.1 1.3 8.4-.4 1.7-1.3 4.2-.3 5.3.2.3.2.6.5.7.9l1.2 5.5c1.4.1 2.7.4 4 .6v-1c.1-1.8 2.2-3.1 3.1-3.6.3-.2.5-.4.6-.8.3-1.2.7-3.8-2.6-4.6-.8.1-1.2-.6-1-1.3z" style="fill:url(#SVGID_18_)"/><linearGradient id="SVGID_19_" gradientUnits="userSpaceOnUse" x1="-1358.633" y1="-1562.793" x2="-1342.177" y2="-1579.676" gradientTransform="scale(-1 1) rotate(-3.204 38042.222 -15112.047)"><stop offset="0" style="stop-color:#febbba"/><stop offset="1" style="stop-color:#ff928e"/></linearGradient><path d="M523.3 604.6s-2.3-5-.5-6.4c1.8-1.4 4.6-1 4.3 2.8-.3 4.7-3.8 3.6-3.8 3.6z" style="fill:url(#SVGID_19_)"/><g><linearGradient id="SVGID_20_" gradientUnits="userSpaceOnUse" x1="500.998" y1="517.914" x2="500.272" y2="567.636"><stop offset="0" style="stop-color:#09005d"/><stop offset="1" style="stop-color:#1a0f91"/></linearGradient><path d="M519 660.7s-.1 0 0 0h-40c-1 0-1.8-.8-1.8-1.8s.8-1.8 1.8-1.8h39.9c1 0 1.8.8 1.8 1.8s-.8 1.8-1.7 1.8z" style="fill:url(#SVGID_20_)"/><linearGradient id="SVGID_21_" gradientUnits="userSpaceOnUse" x1="470.77" y1="517.473" x2="470.044" y2="567.195"><stop offset="0" style="stop-color:#09005d"/><stop offset="1" style="stop-color:#1a0f91"/></linearGradient><path d="M443.1 624.5h33.3c2.5 0 4.7 1.4 5.7 3.6l15.4 32.6h-41.3c-1.6 0-3-1-3.6-2.4l-11.9-30.2c-.8-1.8.5-3.6 2.4-3.6z" style="fill:url(#SVGID_21_)"/></g><g><path class="st3" d="M448.5 746.4c-.2 0-.4 0-.7-.1-.9-.4-1.2-1.3-.9-2.1l35.2-79.2c.4-.8 1.4-1.2 2.2-.9.9.4 1.2 1.3.9 2.1L450 745.4c-.3.6-.9 1-1.5 1z"/><path class="st3" d="M488.1 746.4c-.7 0-1.3-.4-1.5-1l-35.2-79.2c-.4-.8 0-1.8.9-2.1.9-.4 1.8 0 2.2.9l35.2 79.2c.4.8 0 1.8-.9 2.1-.2 0-.5.1-.7.1zM557.4 746.4c-.2 0-.4 0-.7-.1-.9-.4-1.2-1.3-.9-2.1L591 665c.4-.8 1.4-1.2 2.2-.9.9.4 1.2 1.3.9 2.1l-35.2 79.2c-.2.6-.8 1-1.5 1z"/><path class="st3" d="M597.1 746.4c-.7 0-1.3-.4-1.5-1l-35.2-79.2c-.4-.8 0-1.8.9-2.1.9-.4 1.8 0 2.2.9l35.2 79.2c.4.8 0 1.8-.9 2.1-.3 0-.5.1-.7.1z"/><path class="st3" d="M601.2 662.4c.1-.5 0-1.1-.3-1.5-.3-.4-.7-.6-1.2-.6H439.5c-.6 0-1.2.4-1.5.9-.3.6-.4 1.3-.1 2l1.7 4.2c.4 1 1.3 1.6 2.2 1.6h156.7c.9 0 1.6-.7 1.8-1.7l.9-4.9z"/></g></g><g><path class="st10" d="m829.8 311.8-35.7-1.9c-2.9-.2-5.2 2.1-5.2 5.1l.9 32.9c.1 2.7 2.4 4.7 5.2 4.6l33.9-1.7c2.3-.1 4.2-2.2 4.3-4.6l.8-29.4c.1-2.6-1.8-4.9-4.2-5z"/><path class="st1" d="M810.8 344.5c-7.4 0-13.5-6-13.5-13.5 0-7.4 6-13.5 13.5-13.5 7.4 0 13.5 6 13.5 13.5s-6.1 13.5-13.5 13.5zm0-24.6c-6.2 0-11.2 5-11.2 11.2 0 6.2 5 11.2 11.2 11.2 6.2 0 11.2-5 11.2-11.2 0-6.2-5-11.2-11.2-11.2z"/><path d="M806.6 336.3v-9.7c0-1 1.1-1.7 2-1.1l8.2 4.8c.9.5.9 1.8 0 2.3l-8.2 4.8c-.9.5-2-.1-2-1.1z" style="fill-rule:evenodd;clip-rule:evenodd;fill:#fff"/></g><g><path class="st3" d="m479.7 572.6-29.9-1.6c-2.4-.1-4.4 1.8-4.3 4.2l.8 27.5c.1 2.2 2 4 4.3 3.8l28.4-1.4c1.9-.1 3.5-1.8 3.6-3.8l.7-24.6c0-2.1-1.5-4-3.6-4.1z"/><path class="st1" d="M474.4 598.2h-15.9c-.6 0-1.1-.4-1.3-1l-4.5-15.5-4.6-.8c-.7-.1-1.2-.8-1.1-1.6.1-.7.8-1.2 1.6-1.1l5.4.9c.5.1.9.5 1.1 1l4.5 15.3h13.8l2-11c.1-.7.8-1.2 1.6-1.1.7.1 1.2.8 1.1 1.6l-2.3 12.1c-.2.7-.8 1.2-1.4 1.2z"/><path class="st1" d="M475.9 585.7h-21.2c-.8 0-1.4-.6-1.4-1.4 0-.8.6-1.4 1.4-1.4h21.2c.8 0 1.4.6 1.4 1.4 0 .7-.6 1.4-1.4 1.4z"/><path class="st1" d="M462 596.3c-.8 0-1.4-.6-1.4-1.4v-10.3c0-.8.6-1.4 1.4-1.4s1.4.6 1.4 1.4v10.3c0 .8-.6 1.4-1.4 1.4zM469.7 596.3c-.8 0-1.4-.6-1.4-1.4v-10.3c0-.8.6-1.4 1.4-1.4s1.4.6 1.4 1.4v10.3c-.1.8-.7 1.4-1.4 1.4z"/><path class="st1" d="M474.8 591.1h-18c-.8 0-1.4-.6-1.4-1.4 0-.8.6-1.4 1.4-1.4h18c.8 0 1.4.6 1.4 1.4 0 .8-.6 1.4-1.4 1.4z"/><g><path class="st1" d="M462.9 600.9c0 1-.8 1.9-1.9 1.9-1 0-1.9-.8-1.9-1.9s.8-1.9 1.9-1.9c1 0 1.9.8 1.9 1.9zM474.4 600.9c0 1-.8 1.9-1.9 1.9s-1.9-.8-1.9-1.9.8-1.9 1.9-1.9 1.9.8 1.9 1.9z"/></g></g><g><path class="st3" d="m864.5 563.3-30.1-1.6c-2.5-.1-4.4 1.8-4.4 4.3l.8 27.7c.1 2.3 2 4 4.3 3.9l28.6-1.4c1.9-.1 3.5-1.8 3.6-3.9l.7-24.8c.1-2.2-1.4-4.1-3.5-4.2z"/><path class="st1" d="M859.7 590h-21.2c-1.8 0-3.3-1.5-3.3-3.3v-15.2c0-1.8 1.5-3.3 3.3-3.3h21.2c1.8 0 3.3 1.5 3.3 3.3v15.2c0 1.8-1.5 3.3-3.3 3.3zm-21.2-19c-.3 0-.6.3-.6.6v15.2c0 .3.3.6.6.6h21.2c.3 0 .6-.3.6-.6v-15.2c0-.3-.3-.6-.6-.6h-21.2z"/><path class="st1" d="M848.9 580.6c-.3 0-.6-.1-.8-.3l-11.8-8.4c-.6-.4-.8-1.3-.3-1.9.4-.6 1.3-.8 1.9-.3l11 7.8 10.9-7.7c.6-.4 1.5-.3 1.9.3.4.6.3 1.5-.3 1.9l-11.7 8.3c-.2.2-.5.3-.8.3z"/><path class="st1" d="m837.3 590.2-.4-2.7.2 1.3-1.1-.7c.2-.4 4.5-7.8 7.3-12.7.4-.7 1.2-.9 1.9-.5s.9 1.2.5 1.9c0 0-1.8 3.2-3.7 6.4-.9 1.6-1.8 3.2-2.5 4.4-1.5 2.5-1.5 2.5-2.2 2.6zM860.4 590.2c-.6-.1-.6-.1-2.1-2.7-.7-1.2-1.6-2.8-2.5-4.4-1.8-3.2-3.7-6.4-3.7-6.4-.4-.7-.1-1.5.5-1.9.7-.4 1.5-.1 1.9.5 2.8 4.9 7 12.3 7.3 12.7l-1.1.7-.3 1.5z"/></g><g><path class="st3" d="m870.4 352.3-30.1-1.6c-2.5-.1-4.4 1.8-4.4 4.3l.8 27.7c.1 2.3 2 4 4.3 3.9l28.6-1.4c1.9-.1 3.5-1.8 3.6-3.9l.7-24.8c.1-2.2-1.5-4.1-3.5-4.2z"/><path class="st1" d="M857.1 357.5c-.5-.2-1 .2-1 .7V372c-1-.9-2.5-1.4-4.1-1.4-3.2 0-5.8 2.1-5.8 4.6 0 2.5 2.6 4.6 5.8 4.6 3.2 0 5.8-2.1 5.8-4.6V361.4c2.3.3 3.8 2.1 4.7 3.5.4.6 1.3.3 1.3-.4-.3-4.2-4.7-6.3-6.7-7z"/></g><g><path class="st1" d="M507.7 445.2c-2 3-6 3.9-9 1.9s-3.9-6-1.9-9 6-3.9 9-1.9c3 1.9 3.8 5.9 1.9 9zm-8.8-5.8c-1.2 1.8-.7 4.3 1.2 5.4 1.8 1.2 4.3.7 5.4-1.2 1.2-1.8.7-4.3-1.2-5.4a4 4 0 0 0-5.4 1.2zM490.5 434c4.2-6.4 12.8-8.3 19.3-4.1.4.3.8.5 1.1.8.5.4 1.2.2 1.5-.3l.9-1.9c.2-.4.1-.9-.3-1.2-.3-.3-.7-.5-1-.7-8.2-5.4-19.3-3-24.7 5.2-.4.6-.8 1.3-1.1 1.9-.2.5 0 1.1.5 1.3l1.8.8c.5.2 1 0 1.2-.5.3-.4.5-.8.8-1.3z"/><path class="st1" d="M482.1 428.5c7.2-11.1 22.1-14.2 33.2-7 .5.3 1.1.1 1.4-.4l.8-1.8c-.1-.5-.2-.7-.3-1.2-12.8-8.2-30-4.5-38.3 8.3-.7 1.1-1.4 2.3-1.9 3.4-.2.5 0 1 .5 1.3l1.8.8c.5.2 1 0 1.2-.5.5-1 1-1.9 1.6-2.9z"/><path class="st1" d="M473.7 423c10-15.3 30.2-19.9 45.8-10.7.5.3 1.1.1 1.4-.4l.8-1.8c.2-.4 0-1-.4-1.2-17.3-10.1-39.8-5-50.9 12-1 1.6-1.9 3.2-2.7 4.9-.2.5 0 1 .5 1.3l1.8.8c.5.2 1 0 1.2-.5.8-1.5 1.6-2.9 2.5-4.4z"/></g><g><path class="st3" d="m839.1 520.9-30.4-1.6c-2.5-.1-4.5 1.8-4.4 4.3l.8 28c.1 2.3 2 4 4.4 3.9l28.9-1.4c2-.1 3.6-1.8 3.6-3.9l.7-25c0-2.2-1.6-4.1-3.6-4.3z"/><path class="st1" d="M835.1 524.1h-21.5c-2 0-4.5 1.4-4.5 3.5v12c0 2 2.5 3.6 4.5 3.6h14.8c.5 0 .8.9.8 1.5v1.8c0 .7.7 1 1.1 1.1.2.1.4.3.8.3.3 0 .6-.1.8-.4l3.2-3.8c2 0 2.9-2.2 2.9-4.1v-12c-.1-1.9-.9-3.5-2.9-3.5zm.7 15.5c0 .9.1 2-.7 2h-.8l-4 3.8v-2.6c0-.5.5-1.2 0-1.2h-16.7c-.9 0-2.9-1.1-2.9-2v-11.5c0-1.3 2-1.3 2.9-1.3h21.5c.9 0 .7-.1.7.8v12z"/><path class="st1" d="M833.6 530.1c0 .3-.2.5-.5.5h-19.6c-.3 0-.5-.2-.5-.5s.2-.5.5-.5H833c.3 0 .6.2.6.5zM833.6 533.4c0 .3-.2.5-.5.5h-19.6c-.3 0-.5-.2-.5-.5s.2-.5.5-.5H833c.3-.1.6.2.6.5zM833.6 538.3c0 .3-.2.5-.5.5h-19.6c-.3 0-.5-.2-.5-.5s.2-.5.5-.5H833c.3-.1.6.2.6.5z"/></g><g><linearGradient id="SVGID_22_" gradientUnits="userSpaceOnUse" x1="780.973" y1="510.533" x2="695.502" y2="441.939"><stop offset="0" style="stop-color:#febbba"/><stop offset="1" style="stop-color:#ff928e"/></linearGradient><path d="M707.8 507.6c.1 0 37.3-65.2 42.3-71.3.8-1 2.2-1.6 3.5-1.4l10.4 1.2 12.2 26.4-20.3-11.8c2 13.9-24.1 34.6-33 42.1-.9.8-1 2.1-.2 3l3.6 3.7c-5.9 5.9-12.6 9.8-20.3 11.5l1.8-3.4z" style="fill:url(#SVGID_22_)"/><linearGradient id="SVGID_23_" gradientUnits="userSpaceOnUse" x1="-3141.01" y1="-2819.501" x2="-3145.512" y2="-2750.467" gradientTransform="rotate(-26.182 5891.724 -9439.716)"><stop offset="0" style="stop-color:#09005d"/><stop offset="1" style="stop-color:#1a0f91"/></linearGradient><path d="M724.2 497.5s2.3.7 3.1 2.8c.4 1 0 2.1-.9 2.7-3.8 2.7-16.1 11.4-21.9 13.1-.5.1-.9-.3-.8-.8.3-1.3 1.2-4 4.3-7.9l-.3.6c-.3.7.4 1.4 1.1 1 3.8-2.1 11.6-6.8 15.4-11.5z" style="fill:url(#SVGID_23_)"/><linearGradient id="SVGID_24_" gradientUnits="userSpaceOnUse" x1="11079.73" y1="461.386" x2="11280.391" y2="335.77" gradientTransform="matrix(-1 0 0 1 11784.324 0)"><stop offset="0" style="stop-color:#febbba"/><stop offset="1" style="stop-color:#ff928e"/></linearGradient><path d="M722.3 523.6c.1 0 5.6-13.5 5.7-13.5 5.1-31.2 17.6-57.8 21.3-64.9.6-1.2 1.8-2 3.1-2.1l10.4-.9 17.3 23.4-22.3-7.5c4.8 13.2-16.6 38.7-23.8 47.9-.7.9-.5 2.3.4 3l4.3 2.9c-4.5 7-10.4 12.1-17.5 15.4l1.1-3.7z" style="fill:url(#SVGID_24_)"/><linearGradient id="SVGID_25_" gradientUnits="userSpaceOnUse" x1="-2173.963" y1="-4047.361" x2="-2178.465" y2="-3978.334" gradientTransform="rotate(-37.859 5905.873 -5986.701)"><stop offset="0" style="stop-color:#09005d"/><stop offset="1" style="stop-color:#1a0f91"/></linearGradient><path d="M736.3 510.4s2.4.3 3.6 2.1c.6.9.4 2-.3 2.8-3.1 3.4-13.5 14.4-18.8 17.2-.4.2-1-.1-.9-.6 0-1.4.4-4.1 2.6-8.6l-.2.6c-.2.8.7 1.3 1.3.8 3.3-2.8 9.9-9 12.7-14.3z" style="fill:url(#SVGID_25_)"/><linearGradient id="SVGID_26_" gradientUnits="userSpaceOnUse" x1="-4330.269" y1="491.232" x2="-4279.832" y2="419.326" gradientTransform="matrix(-1 0 0 1 -3512.11 0)"><stop offset="0" style="stop-color:#4f52ff"/><stop offset="1" style="stop-color:#4042e2"/></linearGradient><path d="M811.6 437.3s9.4 14 10.2 20.4c.8 6.4-2.6 8.6-12.5 9.4-29.4 2.4-43.8-6.4-43.8-6.4 2.2-6.1 4.9-18.9-11.9-25.9 0 0 13.8 2.2 18.1.6 4.3-1.6 39.9 1.9 39.9 1.9z" style="fill:url(#SVGID_26_)"/><g><linearGradient id="SVGID_27_" gradientUnits="userSpaceOnUse" x1="-4269.995" y1="350.726" x2="-4336.683" y2="435.428" gradientTransform="matrix(-1 0 0 1 -3512.11 0)"><stop offset="0" style="stop-color:#09005d"/><stop offset="1" style="stop-color:#1a0f91"/></linearGradient><path d="M758.4 362.6c.2 1.2 21.6 60.8 21.6 60.8l32.7 5.1c6.3 1 12.5-2.3 15.2-8.1 6.6-14.4.3-31.5-14.1-38.1L809 380c-7.2-3.3-14.3-9-20.5-15-5.2-5-12.1-8-19.4-8.3l-10.7 5.9z" style="fill:url(#SVGID_27_)"/><path class="st3" d="M822.2 415.1c-.1 0-.1 0-.1-.1-.1-.1 0-.2 0-.3 3.4-2.7 3.1-7.8 2.8-9.9-.6-4.1-2.2-8.1-4.7-11.4-4.5-6-11.4-9.5-18.1-13l-1.4-.7c-6.9-3.5-14.5-7.9-18.3-15.3 0-.1 0-.2.1-.2s.2 0 .2.1c3.8 7.2 11.4 11.6 18.2 15.1l1.4.7c6.7 3.5 13.7 7 18.2 13.1 2.5 3.4 4.2 7.4 4.8 11.5.3 2.1.6 7.4-2.9 10.2-.1.2-.1.2-.2.2z"/><path class="st3" d="M818.8 408.6c-.1 0-.2-.1-.2-.2.3-4.3-.3-8.1-1.8-11.1-2.7-5.5-8.4-9.1-13.1-11.6-.9-.5-1.9-1-2.8-1.5-4.3-2.2-8.8-4.5-12.3-8-.1-.1-.1-.2 0-.3.1-.1.2-.1.3 0 3.5 3.4 7.9 5.7 12.2 7.9 1 .5 1.9 1 2.9 1.5 4.7 2.5 10.5 6.1 13.2 11.7 1.5 3.1 2.1 6.9 1.9 11.3-.1.3-.2.3-.3.3z"/><linearGradient id="SVGID_28_" gradientUnits="userSpaceOnUse" x1="-4267.508" y1="394.441" x2="-4277.468" y2="431.293" gradientTransform="matrix(-1 0 0 1 -3512.11 0)"><stop offset="0" style="stop-color:#febbba"/><stop offset="1" style="stop-color:#ff928e"/></linearGradient><path d="M749.3 408.5s11.2 13.4 22.5 2.5l4.4 10.1s-16.5 12.7-28.9-7.3l2-5.3z" style="fill:url(#SVGID_28_)"/><linearGradient id="SVGID_29_" gradientUnits="userSpaceOnUse" x1="-3514.911" y1="-1294.146" x2="-3530.154" y2="-1260.938" gradientTransform="matrix(-1 0 0 1 -3512.11 0)"><stop offset="0" style="stop-color:#ff928e"/><stop offset="1" style="stop-color:#fe7062"/></linearGradient><path d="M786.1 435.5s-11-10.5-16.4-17.4c-2.9-3.7-3.8-8.7-2.5-13.2 2.5-8.3 6.8-16.9 7.2-18.3.6-2.1 12.9-2 12.9-2s11.6 1.8 11.7 21.4c0 4.7 1.3 9.3 3.8 13.2 2.8 4.6 5.5 11.4 8.7 18l-25.4-1.7z" style="fill:url(#SVGID_29_)"/><linearGradient id="SVGID_30_" gradientUnits="userSpaceOnUse" x1="-6170.554" y1="-74.148" x2="-6167.698" y2="-95.041" gradientTransform="rotate(-4.112 3989.146 -96616.738)"><stop offset="0" style="stop-color:#febbba"/><stop offset="1" style="stop-color:#ff928e"/></linearGradient><path d="m779 369.9 8.3 15.4c-.5 3.4-9 3.5-10.3 1.4-.1-.2-.2-.4-.3-.7l-4.9-10.3c-.2-1 2.5-4.4 3.4-4.9l3.3-1.7c1.2-.7-4.1-.7.5.8z" style="fill:url(#SVGID_30_)"/><linearGradient id="SVGID_31_" gradientUnits="userSpaceOnUse" x1="-7444.94" y1="-332.17" x2="-7418.05" y2="-380.025" gradientTransform="rotate(-56.921 -2668.116 -7558.755)"><stop offset="0" style="stop-color:#febbba"/><stop offset="1" style="stop-color:#ff928e"/></linearGradient><path d="M762.2 366.3s-.9 5.2 3.2 11.8c4.1 6.6 8.2 6.3 10.2 4 2.1-2.4 4.5-6.3 3.4-12.9-1.1-6.7-15.3-9.6-16.8-2.9z" style="fill:url(#SVGID_31_)"/><linearGradient id="SVGID_32_" gradientUnits="userSpaceOnUse" x1="-4269.776" y1="350.898" x2="-4336.464" y2="435.6" gradientTransform="matrix(-1 0 0 1 -3512.11 0)"><stop offset="0" style="stop-color:#09005d"/><stop offset="1" style="stop-color:#1a0f91"/></linearGradient><path d="M774.1 369.9s-6.6-8.7-11.7-1.1l.1 2.6s-6.6-.3-5.9-6.4c.7-6.1 6.1-10.2 13.6-8.2 7.5 2.1 11.8 4.4 12.7 9.6.8 5.2-3.4 4.3-3.4 4.3s-1.6-3.6-3.6-3.8c-2-.2-1.2 2.6-1.2 2.6l-.6.4z" style="fill:url(#SVGID_32_)"/><linearGradient id="SVGID_33_" gradientUnits="userSpaceOnUse" x1="-7439.216" y1="-328.955" x2="-7412.327" y2="-376.808" gradientTransform="rotate(-56.921 -2668.116 -7558.755)"><stop offset="0" style="stop-color:#febbba"/><stop offset="1" style="stop-color:#ff928e"/></linearGradient><path d="M775.6 369.6s-3.4-4.4-.3-5.4c3.1-.9 3 4.4 2.8 6.3l-2.5-.9z" style="fill:url(#SVGID_33_)"/><linearGradient id="SVGID_34_" gradientUnits="userSpaceOnUse" x1="-4286.769" y1="420.24" x2="-4243.517" y2="420.24" gradientTransform="matrix(-1 0 0 1 -3512.11 0)"><stop offset="0" style="stop-color:#febbba"/><stop offset="1" style="stop-color:#ff928e"/></linearGradient><path d="M801.1 423.6s-23.6-3.3-31.4-10.6c0 0-3.8-3.6-6.5-4-1.5-.2-3.1-.4-4.3-.5-.6 0-.8.7-.4 1 .9.6 2 1.3 3 1.4 1.9.2-.1 1.6 2 5.3 2.1 3.7 5.1 2.3 5.1 2.3s15.6 13.5 30.6 13.4c0 0 3.7-1.2 1.9-8.3z" style="fill:url(#SVGID_34_)"/><linearGradient id="SVGID_35_" gradientUnits="userSpaceOnUse" x1="-3557.82" y1="606.863" x2="-3565.035" y2="614.489" gradientTransform="matrix(.9865 -.1635 .2088 1.2596 4136.26 -945.69)"><stop offset="0" style="stop-color:#09005d"/><stop offset="1" style="stop-color:#1a0f91"/></linearGradient><path d="m741.9 399.2 8.2-1.1c1-.2 2 .4 2.6 1.5l5.4 11.9c1 1.8.3 4.1-1.3 4.4l-6.5.8c-.6.1-1.3-.3-1.6-1l-7.3-14.5c-.6-.8-.2-1.8.5-2z" style="fill:url(#SVGID_35_)"/><linearGradient id="SVGID_36_" gradientUnits="userSpaceOnUse" x1="-3525.054" y1="-1298.802" x2="-3540.297" y2="-1265.593" gradientTransform="matrix(-1 0 0 1 -3512.11 0)"><stop offset="0" style="stop-color:#ff928e"/><stop offset="1" style="stop-color:#fe7062"/></linearGradient><path d="M795.8 391.4s22.2 32.9 3.4 40.5l-3.4-9.2s2.3-5.1-4.4-17.9c-.9-1.7-1.3-3.6-1.2-5.5.3-5.4 1.2-15.7 5.6-7.9z" style="fill:url(#SVGID_36_)"/><path d="M795.8 423.1c.2 0 .3-.1.4-.2.1-.2 2.3-5.4-4.4-18.2-.1-.2-.3-.3-.5-.2-.2.1-.3.3-.2.5 6.4 12.4 4.4 17.5 4.4 17.5-.1.2 0 .4.2.5 0 .1.1.1.1.1z" style="opacity:.43;fill:#fff"/><linearGradient id="SVGID_37_" gradientUnits="userSpaceOnUse" x1="-4256.502" y1="398.337" x2="-4261.752" y2="417.759" gradientTransform="matrix(-1 0 0 1 -3512.11 0)"><stop offset="0" style="stop-color:#febbba"/><stop offset="1" style="stop-color:#ff928e"/></linearGradient><path d="M747.5 415.2s-5.5-8-4.8-9c.6-1 5.4-2.4 6.6-2.7 1-.3 3.2 7-1.8 11.7z" style="fill:url(#SVGID_37_)"/></g></g><g><linearGradient id="SVGID_38_" gradientUnits="userSpaceOnUse" x1="843.807" y1="655.31" x2="838.171" y2="708.854"><stop offset="0" style="stop-color:#febbba"/><stop offset="1" style="stop-color:#ff928e"/></linearGradient><path d="M832.4 694c2.2.4 14.7 7.9 14.7-.6v-9.5s-15.4 10-14.7 10.1z" style="fill:url(#SVGID_38_)"/><linearGradient id="SVGID_39_" gradientUnits="userSpaceOnUse" x1="842.165" y1="606.705" x2="827.818" y2="692.53"><stop offset="0" style="stop-color:#febbba"/><stop offset="1" style="stop-color:#ff928e"/></linearGradient><path d="M840.2 678s-5.5-9.3-6.2-18.4c-.7-9.1.4-13.1-.6-15.8-1-2.7-6.1-12.7-6.3-9.7-.2 3 1.6 6.2 1.6 6.2s-3.2 2.5-2.6 5.5c.5 2.9 1.7 3.2 1.7 3.2s.2 6.3.5 6.3-5.1 31.7.9 32.4c5.9.6 10.7 4.9 11-9.7z" style="fill:url(#SVGID_39_)"/><linearGradient id="SVGID_40_" gradientUnits="userSpaceOnUse" x1="783.1" y1="551.411" x2="788.06" y2="562.697" gradientTransform="rotate(-4.93 1801.615 130.785)"><stop offset="0" style="stop-color:#febbba"/><stop offset="1" style="stop-color:#ff928e"/></linearGradient><path d="M824.5 643.5c-.1-.4-3.9-8.8-3.2-9.8.7-1 1.4-1.8 2.5 1s2.4 10.5 2 10.6c-.5.1-1.1-.3-1.3-1.8z" style="fill:url(#SVGID_40_)"/><linearGradient id="SVGID_41_" gradientUnits="userSpaceOnUse" x1="787.161" y1="730.861" x2="775.344" y2="745.719"><stop offset="0" style="stop-color:#09005d"/><stop offset="1" style="stop-color:#1a0f91"/></linearGradient><path d="M788.3 735s-2.9-2.4-6.8-2.1c-2.7.5-5.9 2.9-7.9 4.6-.4.3-.5.8-.3 1.2.2.4.6.7 1.1.7 5.1-.1 15-.4 15-1.2 0-.9-1.1-3.2-1.1-3.2z" style="fill:url(#SVGID_41_)"/><linearGradient id="SVGID_42_" gradientUnits="userSpaceOnUse" x1="785.999" y1="730.778" x2="788.792" y2="737.133"><stop offset="0" style="stop-color:#febbba"/><stop offset="1" style="stop-color:#ff928e"/></linearGradient><path d="m790.4 730.7-2.3 4.4s-5.3.4-5.1-1.6c.2-2.1 1.5-4.6 1.5-4.6l5.9 1.8z" style="fill:url(#SVGID_42_)"/><path class="st11" d="M849.7 733.7c-3.6-19.9-6.3-32.7-6.3-32.7s-40.4-26.1-44.5-19.7c-4.1 6.4-16 49.9-16 49.9l7.9 2.2s15.1-20.5 16.5-37.9c3.9 12.7 7.5 43.2 37.4 44.1 1.5 0 2.9-.6 3.9-1.7 1-1.2 1.4-2.7 1.1-4.2z"/><linearGradient id="SVGID_43_" gradientUnits="userSpaceOnUse" x1="757.36" y1="731.839" x2="760.598" y2="739.205"><stop offset="0" style="stop-color:#febbba"/><stop offset="1" style="stop-color:#ff928e"/></linearGradient><path style="fill:url(#SVGID_43_)" d="m762.4 733.2-4.8 4.6-3.8-3.8 5-5.8z"/><linearGradient id="SVGID_44_" gradientUnits="userSpaceOnUse" x1="3297.943" y1="691.281" x2="3306.126" y2="709.9" gradientTransform="scale(-1 1) rotate(22.688 1327.85 -9693.623)"><stop offset="0" style="stop-color:#febbba"/><stop offset="1" style="stop-color:#ff928e"/></linearGradient><path d="m860.4 640.7 9.4 12.1c.4.6.5 1.3.2 1.9-1.2 2.1-4.8 6.7-12.3 6.8-.9 0-1.7-.5-2.1-1.4l-5.9-11.6 10.7-7.8z" style="fill:url(#SVGID_44_)"/><linearGradient id="SVGID_45_" gradientUnits="userSpaceOnUse" x1="2474.921" y1="563.707" x2="2486.777" y2="590.683" gradientTransform="scale(-1 1) rotate(-17.944 1019.344 11134.2)"><stop offset="0" style="stop-color:#febbba"/><stop offset="1" style="stop-color:#ff928e"/></linearGradient><path d="M837.9 624.9s-2.4 13.9 1.4 19.6c3.8 5.7 14.7 5.9 21.3-3l-1.1-19.2-21.6 2.6z" style="fill:url(#SVGID_45_)"/><linearGradient id="SVGID_46_" gradientUnits="userSpaceOnUse" x1="2473.946" y1="529.597" x2="2481.653" y2="573.557" gradientTransform="scale(-1 1) rotate(-17.944 1019.344 11134.2)"><stop offset="0" style="stop-color:#09005d"/><stop offset="1" style="stop-color:#1a0f91"/></linearGradient><path d="M855 634.1c-.4 0-.8-.4-.7-.8.2-1.3.5-3.9.1-5.8 0 0 1-1.6-4.7-.5-5.7 1-14.3 2.5-17.9-1.2-3.5-3.6-4.1-16.3 6.3-10.6.4.2.9 0 1-.4.5-1.9 2-6.1 6.8-6.1 4.5 0 6.1 2.6 6.6 4 .2.4.7.6 1 .3 1.7-1.2 6.1-3.5 10.2.2 3.4 3 3.2 5.7 2.7 7.2-.2.5.2 1 .7.9 1.4-.2 3.5.2 4.6 3.1 1.5 4.1-3.1 5.7-4.4 6.1-.2.1-.4.2-.5.4-.6 1.7-3 9.2-8 12.2-.4.3-1.3-.3-1.3-.8l-.7-7.7c0-.4-.3-.6-.7-.6l-1.1.1z" style="fill:url(#SVGID_46_)"/><linearGradient id="SVGID_47_" gradientUnits="userSpaceOnUse" x1="2468.392" y1="566.18" x2="2472.189" y2="574.821" gradientTransform="scale(-1 1) rotate(-17.944 1019.344 11134.2)"><stop offset="0" style="stop-color:#febbba"/><stop offset="1" style="stop-color:#ff928e"/></linearGradient><path d="M854.2 634.9s4-6.5 5.9-3.4c1.9 3.2-3.1 7.1-6.4 7.1l.5-3.7z" style="fill:url(#SVGID_47_)"/><linearGradient id="SVGID_48_" gradientUnits="userSpaceOnUse" x1="830.958" y1="668.218" x2="841.718" y2="739.184"><stop offset="0" style="stop-color:#febbba"/><stop offset="1" style="stop-color:#ff928e"/></linearGradient><path d="M845 674s-18.4 7.8-21.8 3.8c-3.4-4-1.6-26.2-1.6-26.2l-7.8-2.1s-9.5 39.2 6.7 45.1c11.8 4.3 34.2-9.6 34.2-9.6l-9.7-11z" style="fill:url(#SVGID_48_)"/><linearGradient id="SVGID_49_" gradientUnits="userSpaceOnUse" x1="936.385" y1="632.767" x2="909.71" y2="653.454"><stop offset="0" style="stop-color:#ff928e"/><stop offset="1" style="stop-color:#fe7062"/></linearGradient><path d="M862.3 647.2c-3 .7-6.2 3.5-8.8 6.2-2.9 3.1-4.9 7-5.6 11.2 0 .1 0 .3-.1.4-6.4 7-12 11.6-15.8 13.2 6.7 9.5 10.3 13.1 10.3 13.1s.8-.2 2.1-.5c-1.3 11.3-1.9 20-1.9 20s13 12.9 28.8 16.6c14.4-10.6 16.5-40.8 16.5-40.8 1.1-35.8-15.4-41.6-25.5-39.4z" style="fill:url(#SVGID_49_)"/><path class="st3" d="M871.2 727.4s-6.5 19.2-38.3 8.4c-15.5-5.2-37.1-35.5-37.1-35.5s-5.3 14.6-33.3 34.3l-6.2-5.6s28.3-48.7 42.7-43.6c14.5 5.1 76.7 29.6 72.2 42z"/><linearGradient id="SVGID_50_" gradientUnits="userSpaceOnUse" x1="748.212" y1="731.668" x2="752.234" y2="745.78"><stop offset="0" style="stop-color:#09005d"/><stop offset="1" style="stop-color:#1a0f91"/></linearGradient><path d="M760 735.6c-1.2 0-6.1-2.2-6.1-2.2l-4.6 1.2c-4-.6-7.5.8-9.8 2.1-.5.3-.8.9-.6 1.5.2.6.7 1 1.3 1 4.6.1 12.1.2 15.9-.1 5.5-.3 6.3-.1 3.9-3.5z" style="fill:url(#SVGID_50_)"/><linearGradient id="SVGID_51_" gradientUnits="userSpaceOnUse" x1="848.693" y1="546.72" x2="864.577" y2="700.949"><stop offset="0" style="stop-color:#e1473d"/><stop offset="1" style="stop-color:#e9605a"/></linearGradient><path d="M850.8 689.1c-.1 0-.2-.1-.2-.2s0-.2.1-.2c0 0 4.9-1.2 10.2-4.2 4.8-2.8 11-7.6 12.8-15.2 0-.1.1-.2.2-.2s.2.1.2.2c-1.8 7.7-8.1 12.7-13 15.5-5.3 3.1-10.2 4.3-10.3 4.3z" style="fill:url(#SVGID_51_)"/><linearGradient id="SVGID_52_" gradientUnits="userSpaceOnUse" x1="2909.218" y1="194.183" x2="2875.813" y2="241.315" gradientTransform="scale(-1 1) rotate(23.617 2.719 -8471.38)"><stop offset="0" style="stop-color:#09005d"/><stop offset="1" style="stop-color:#1a0f91"/></linearGradient><path d="M809.8 631.6c-.1-.3-.1-.7.1-1 .2-.3.5-.5.8-.6l9-1.7c.3-.1.7.1.8.5l6.9 22.3v.3c0 .1-.1.2-.2.2l-7.5 2.3c-.6.2-1.3-.1-1.5-.7l-8.4-21.6z" style="fill:url(#SVGID_52_)"/><path class="st3" d="M812.6 631.8c-.1-.2-.1-.4 0-.6.1-.2.3-.3.5-.3l6-1c.3-.1.7.1.8.5l5.9 19v.3c-.1.1-.1.2-.2.2l-5.3 1.3c-.2 0-.4-.1-.4-.2l-7.3-19.2z"/><linearGradient id="SVGID_53_" gradientUnits="userSpaceOnUse" x1="2841.107" y1="1609.63" x2="2838.821" y2="1612.856" gradientTransform="matrix(-.9785 .2063 .1084 .5141 3421.556 -784.23)"><stop offset="0" style="stop-color:#8d55d1"/><stop offset=".996" style="stop-color:#1c2873"/></linearGradient><path d="M815.5 630c0 .1.1.1.3.1l2-.4c.1 0 .2-.1.2-.2v-.1c0-.1-.1-.1-.3-.1l-2 .4c-.1.1-.2.2-.2.3z" style="fill:url(#SVGID_53_)"/><linearGradient id="SVGID_54_" gradientUnits="userSpaceOnUse" x1="818.476" y1="670.111" x2="829.236" y2="741.076"><stop offset="0" style="stop-color:#febbba"/><stop offset="1" style="stop-color:#ff928e"/></linearGradient><path d="M813.8 650c-.1-1-3.4-7.3-2.1-9.7 1.3-2.4 1.8-6.5 3.1-5.4s-.3 5.2.3 6.4c.6 1.2 2.7 4.3 3 6.7.3 2.4 1.9 5.8-1.5 6.3-3.5.4-2.8-4.3-2.8-4.3z" style="fill:url(#SVGID_54_)"/><linearGradient id="SVGID_55_" gradientUnits="userSpaceOnUse" x1="844.963" y1="547.105" x2="860.847" y2="701.333"><stop offset="0" style="stop-color:#e1473d"/><stop offset="1" style="stop-color:#e9605a"/></linearGradient><path d="M849.3 664.3h-.1c-.1-.1-.1-.2-.1-.3.4-.6 9.4-13.5 14.5-11.4.1 0 .2.2.1.3 0 .1-.2.2-.3.1-4.9-2.1-14 11.1-14.1 11.2.1 0 0 .1 0 .1z" style="fill:url(#SVGID_55_)"/><linearGradient id="SVGID_56_" gradientUnits="userSpaceOnUse" x1="828.054" y1="646.798" x2="831.419" y2="646.798"><stop offset="0" style="stop-color:#febbba"/><stop offset="1" style="stop-color:#ff928e"/></linearGradient><path d="M829.1 652.1c-.1 0-.1 0-.2-.1-1.6-2.2-.6-4.7-.2-5.7.1-.1.1-.3.1-.3-.2-.4-.9-2.6-.7-4 .1-.3.2-.4.3-.4.7-.1 2.2 2.2 2.9 3.2.1.1 0 .2-.1.3-.1.1-.2 0-.3-.1-1-1.6-2.1-3-2.4-3v.1c-.2 1.3.6 3.6.7 3.8.1.1 0 .3-.1.6-.4 1-1.3 3.3.1 5.3.1.1 0 .2 0 .3h-.1zm-.2-6.1z" style="fill:url(#SVGID_56_)"/><path class="st3" d="M833.1 625c-.1 0-.2-.1-.3-.2-1.6-2.7-2.1-5.1-1.5-6.9.6-1.8 2-2.5 2.1-2.5.2-.1.4 0 .5.2.1.2 0 .4-.2.5-.1 0-1.2.6-1.7 2.1-.5 1.6 0 3.8 1.4 6.3.1.2 0 .4-.1.5h-.2z"/></g><g><path class="st67" d="M1420.1 628.8c2.8 2.8 5.6 5.7 9.6 7.5.6-2.3 1.1-4.6 1.6-6.9-3.8-.3-7.6-.5-11.2-.6zM1460.4 580.3c5.7 6.4 10.4 14.9 8.6 23.8-1.8 7.2-8.7 11.9-15.8 13.2-14.6 2.8-29.4-1.6-42.9-6.8 3.5 4.9 6.7 10.1 11.1 14.3 14.7 6 34.1 10.1 47.2-1.2-.5 2.2-1.6 6.4-2.1 8.6 6 .6 4.5-5.5 3.3-9 11.5-10.9 10.1-29.1 1.7-41.4-14.3-21.6-39-33.6-62.8-42.8-.6 1.8-1.2 3.6-2.1 5.3 19.9 8.8 39.4 19.7 53.8 36z"/><path class="st67" d="M1430.9 600.9c4.7-2.8 3.6-8.7 4.3-13.2 6.4 4.3 11.8 10 15.8 16.5-.8-8.1-4.7-15.7-10.3-21.7-10.6-11.5-24-19.9-37.8-27.2-4 7.9-8.9 15.4-13.5 23.2 2.4 6.4 7.5 11.8 11.1 17.9 4.1 8.4 14.5 9.2 22.5 11.8-2.6-2.6-5.1-5-7.7-7.5 5 .5 10.6 2.8 15.6.2zM1189.2 748.3c16.5-.2 34.7-2.3 47.1-14.1-1.8-1.6-3.6-5-6.6-3.8-8.6 2.1-15.7 8-24.3 10.2-18.5 5-38.1 2.6-56.1-2.9.2 1.9.6 3.9.9 6 12.8 2.9 25.9 4.8 39 4.6z"/><path class="st67" d="M1893.7 1035.8c-42.2 5.3-65.9 16.3-71.8 19.3-26-15.6-55.5-24.8-87.6-27.3-26.1-2.1-53.9.2-82.8 6.8-30.1 6.8-55.1 17-70.1 23.9-2.7-1.9-6.6-3.4-9.8-4.3-.9-1.9-1.6-3.9-2.4-5.8-2.4-5.8-5-11.5-7.2-17.5 1-17.1 3-34.4 1.2-51.6-2.2-27.4-10.9-56.1-32.2-75.1-9.1-7-14.1-17.7-22.1-25.9-6.2-6.5-11.2-14-16-21.4.2-1.5.3-3 .6-4.5-1.2 0-2.3.1-3.5.1-.3-.5-.7-1-1-1.6-14.7-14.6-21.9-35.7-39.8-47.1-1.9-27.1 4.4-53.8 6.9-80.6 1.7-10.7 14.8-9.2 23-10.7-4.6-3.9-9.1-7.9-13.2-12.3-5.3-.9-10.8-.9-16.2-1.8-9.5-7.5-17-17.1-24.9-26.1 10.3-.9 21.6.5 30.7-5.1-29.8-24.5-50.9-57.2-71.8-89 9.5-13.4 17.9-27.8 21.6-43.7 5.5-20.9 1.9-44.1-10.9-61.7-12.1 1.2-23.6 5.6-35 9.5.7-29.8-1.6-61-16-87.7-11.4-17.6-31.8-27-51.5-32.7-29.9-8.3-61.2-9-91.9-6.7-1.3-5.7-3.2-11.8-7.5-16-11.7-11.8-33-11.5-44.6.1-6.2 5.7-8.3 14.2-10 22.1-17.6 1.5-35.1 4.3-51.7 9.8-24.5 8.3-48.9 22.1-62.5 44.7-9.6 16.3-4.3 35.6-.2 52.7-7.2-2.6-14.5-4.9-21.9-6.3-12.8 15.2-17.4 35.6-15.5 54.9-.9.6-2.4 1.9-3.3 2.6 3.8 11.5 5.7 23.9 12.3 34.5 3.5 5.3 7.4 11.3 5.2 18l4.5-2.1c-11.7 17-24.7 33.2-38.3 48.8-11.2 12.4-22.7 24.7-36.7 34 8.4 6.8 20.2 5.6 30.2 6.8-13.1 15.1-28.4 28.2-45.1 39.3 17.1 4.3 34.9 5.5 52.5 4.4-5.2 13.2-7.5 27.3-8.7 41.4-22.7 17.7-47.7 32.9-69.5 52.1-9.1 7.2-19.2 13.2-27.2 21.6 3.3 7.4 11.5 10.3 17.1 15.7 8.9 8.1 17.2 17 25.1 26.1 3.4 11.2 2.8 23.1 6.2 34.2-7.3 3.6-15.1 6.1-21.6 10.9-1.5 12.5 5.3 23.8 6 36.1-.7.7-2.2 2.3-2.9 3.2v3.8c2.3 2.4 6.2 4.7 5.3 8.7-1.3 12.5 1 25 .4 37.6-7 1.5-14.3 2.2-20.6 5.8 5.2 4 11.9 5.6 17 9.7l-3.5 1.1.7-2.7c-4-.4-7.9-.6-11.8-1 2.6 4.5 4.5 9.2 5.7 14.1-98.8-30.7-171.8-30.6-215.8-25-42.2 5.3-65.9 16.3-71.8 19.3-26-15.6-55.5-24.8-87.6-27.3-26.1-2.1-53.9.2-82.8 6.8-43 9.8-75.7 26.3-83.3 30.4-15.2-13.6-35.3-23.1-60-28.1-20.2-4.2-43.4-5.4-69-3.7-32.5 2.2-60.7 8.6-73.1 11.8-21.6 4.3-44.8 10.1-69.6 17.8-3-.6-14.8-2.4-28.4 1.2-14.4 3.8-33.7 14.5-43.5 44l5.1 1.7c7.3-21.8 20.6-35.4 39.6-40.5 14.3-3.8 26.7-1.1 26.8-1.1l.7.2.7-.2c22.5-7 43.6-12.5 63.4-16.6l.1.4c.1 0 2.4-.7 6.4-1.7 27.2-5.4 51.7-8.2 73.4-9.4-.4-.7-.7-1.5-1.1-2.2 39.3-2.6 93.2.8 126.3 31.7l1.4 1.3 1.7-1c.3-.2 35.3-19.8 83.6-30.8 44.5-10.1 109.7-14.7 167.8 20.7l1.3.8 1.4-.8c.2-.1 24.5-13.5 71.6-19.4 43.6-5.5 116.1-5.5 214.5 25.3l.7.2.7-.2c.1 0 5.6-1.2 13.4-.9 7.9 1.7 15.5 4.5 22.8 8 0-.8.1-1.7.1-2.5 2.9 1.4 5.7 3 8.2 4.9-.7 3.3 2.8 5.4 4.9 7.2 4.4 3.3 8 7.3 11.3 11.7 2.2 4 4.1 8.4 5.7 13.2l2.5-.8 2.5-.8c0-.1-.1-.3-.2-.4 8.1-4.4 16.1-9.1 25.4-10.5.1-32.5-2.2-65.2 1-97.6 2.6-30.2 9.8-60.8 26-87 3.5-6.1 8.7-11.4 10.6-18.3 2.3-6.7 7.9-11.3 13.1-15.7-2.3-4.6-4.7-9.1-6-14.1 3.2 3.8 6.1 8 9.2 11.9 4.9-3.3 9.8-6.3 14.3-10.2-10.7-18.3-18.5-38.3-24.8-58.4-.5-.1-1.3-.2-1.8-.2-11.2 10.7-24.9 19.3-40.4 22.2 3.5-13.2 5.8-26.7 6.4-40.4.5-8.1-.2-16.3 1.9-24.2 1 15.3 1.3 30.6 0 45.9 9.7-23.3 5.7-49.3 11.3-73.6 1.3-8.9 5.7-16.9 7.3-25.6-4.5 4-7.2 10.9-13.7 12-11.3 3.4-23.2 4-35 3.8 9.7-6 19.8-12 26.8-21.1-16.2 10.1-33.5 18.1-52.1 22.6 14.1-10.1 26-22.7 36.3-36.4-9.6 1.3-19.7 2.8-28.9-.7 19.7-15.4 36.1-34.2 52.5-53-2.8 7.5-9.5 12.8-13.5 19.7 4-2.6 7.3-6.1 10.3-9.7 1.2.4 3.6 1.2 4.9 1.7l-3.4-3.3c8.4 2.2 10.3-8.4 17-10.6l-1.2-2.4 4.4 2.6-2.1-4.3c.7-.4 2.3-1.1 3-1.5-2.6 2.2-1.2 4.4.4 6.3 1.1-1.3 3.4-4 4.5-5.3-.9 2.3-2.3 4.4-3.8 6.4-7.3 10-17.9 17-29.3 21.6 4.6 6.7 12.4 10.2 20.6 9.6-1.3 2.6-2.4 5.3-4.5 7.4-10.4 11.5-23.6 20.2-35.1 30.6 24.8-13.7 46.8-32.8 63.3-55.6-11.9 4.7-24.4 8.4-37.4 7.8 14.7-5 26-16.4 33.6-29.4 3.6 16.3 7.7 33 17.6 46.8 11.4 13.8 30.5 18.7 48 17.1-2.1 3.2-4 6.3-5.8 9.6 3.9-3.6 7-8.1 11.7-10.8-4.5 10.1-8.3 20.5-12.3 30.8 4.1-4.3 6.8-9.5 10-14.5-1.7 15.7-10.9 29.3-19.6 42 7.7-5 12.5-12.6 18.3-19.4-1.8 14.1-9.1 26.4-17 37.8 6.8-3.8 11.3-10.2 15.8-16.3-.4 13-6 24.9-11.5 36.4 5.2-3 8.7-8 12.1-12.8 3.2 16.5 8.9 33 19.9 46.2-12.6-33.2-15.2-70.4-4.3-104.3 1.1 4.4 1.9 8.7 3.3 13 1.3-7.4 1.7-15.1 1.5-22.7 1.9 2.4 3.8 4.9 6 7.2-1.7-8.9-7.7-16-10.4-24.5 3.8 0 10.4-4.5 11.2 1.7-.5-4.4 3.3-5.8 6.7-7.3-1.1 6.2-1.6 13.6 3.9 18 9.1 6.9 22.2 5.6 32.2 1.2-3.4-3.2-9.2-6.1-8.5-11.5.2-8.1 11.9-12.3 17.5-6.3 7.4 8.3 6.6 20 8.5 30.2.5 8.3 15.8 8.6 16.5.2 2.3-9.8 2.3-21.3 9.6-29.3 5.6-5.6 16-2.3 17.6 5.3 1.1 6.3-5.3 9.5-9.1 13.4 10.4 3.6 23.8 6.7 33.2-1.1 6-4.9 4.1-13.2 2.8-19.6 1.8.4 5.6 1.1 7.4 1.5-.1 2.8-.1 5.5-.1 8.3 1.5-2.6 2.9-5.2 4.4-7.9 2.1.2 6.3.9 8.4 1.1-1.7 11.3-10.3 19.7-13.6 30.5 2.3-2.1 4.4-4.5 6.6-6.7-.4 7.5-.9 15.1.9 22.5 1.1-4.3 1.8-8.7 4-12.6 7.9 34.2 4.9 71.3-10.4 103.2l1-.1c10.7-12.5 17.6-28.1 21.3-44 3.4 4.9 6.7 10 11.7 13.4-4.9-11.7-10.1-23.7-9.6-36.6 4.4 5.8 8.1 12.5 14.8 16.2-7.4-11.5-14-24-14.9-37.8 5.6 6.6 9.8 14.3 17 19.6-8.3-13.5-16.2-27.8-17.5-43.7 3.2 5.6 5.7 11.5 9.8 16.4-4.1-11.4-6.9-23.4-12.3-34.5 3.8 3.5 6.7 8 10.8 11.3-2.6-6.1-6.3-11.4-9.8-16.8 18.1 0 36.9-7.8 45.9-23.8 8.9-16.8 11.5-35.7 14.3-54.2 10.1 14.7 15.4 32.5 28.1 45.7 5 5.3 11.4 8.9 17.7 12.3-12.6.2-24.5-4.3-35.8-9.4 14.9 22.7 34.9 42.5 57.9 57.2-10.4-9.6-22.1-18.5-29-31.1-1.9-3.3-2.3-6.9-2.3-10.6 6.1-1.5 12-2.8 18-4.5-12.3-7-26-15.2-31-29.1 4 4.3 7.3 9 11.9 12.8-2.6-4.9-5.6-9.5-7.3-14.7 5.7 6.8 10.7 14.3 17.6 20-2.2-4-4.3-8.1-6.3-12.1 6.9 6.4 11.2 15.2 18.8 20.9l2.9-1.5c10.7 13.2 22.1 25.9 34.9 37.3-9.6 2.2-19.4 1-28.9-1.1 8.1 12.4 17.6 23.9 28.7 33.9-17.6-1.1-32.1-12.5-46.4-21.7 4.9 7.5 12.9 12.3 18.8 18.8-7.5-1.8-14.6-5-21.5-8.1.2 1.7.9 5.1 1.1 6.8-3.6-.5-7.2-.9-10.7-1.2-3-3.9-6.1-8-9.6-11.5.9 3.6 2.1 7.3 3.3 10.9-2.2-.2-6.7-.6-9-.9 5.2 11.8 13.7 22.7 14.6 35.9-5.8-5.6-13.5-1.5-19.8.9 2.7-20.9 1.3-42.1-4.5-62.4-.5 14.2 2.2 28.3.6 42.5-2.3-17.4-2.1-35.3-8.3-51.9 2.9 23 4.3 47.1-2.2 69.7v-7.4l-1.9-.5c-.9 6.9-1.3 14-3.8 20.5-.7.4-2.1 1.2-2.7 1.6 1.6-10.6 3.2-21.4 2.8-32.2-2.1 12.1-4.6 24.2-8.6 35.8-19.1 11.8-37.5 24.3-55.7 37.2 2.6-5.7 5.1-11.4 6.6-17.5-4.7 7.2-8.1 15.3-13.5 22.1-5.8 4.9-12.1 9.1-18.3 13.5 2.8-5.7 5.3-11.4 7.3-17.5-8.9 11.9-15.2 26.2-28.9 33.6 0-5.6-.2-11.1-1.2-16.5-2.4 7.2-3.9 14.8-8.7 20.9-8 11.7-21.7 17.2-32.2 26.4-8.9-9-21-14.5-28.4-24.9-5.7-6.9-8-15.8-9.5-24.4-2.3 6.2-2.1 12.9-2.8 19.3-11.5-10.1-18-24.3-26-36.9 3.5 19.3 16.6 35.3 29.6 49.6.5-1.5 1.2-4.5 1.6-6 7.8 11.5 16.2 22.8 26.2 32.5-2.2 1.7-4.1 3.5-6.2 5.3-33-27.2-57.3-63.3-75.4-101.4 1.6 10.9 7.2 20.6 11.3 30.7-10.7-7.3-17.9-18.2-25.5-28.3 5.7 19.2 19.1 34.6 32.2 49.3-.6-.2-1.8-1-2.4-1.3-20.9-16.2-35.8-38.3-49.9-60.1 11.1 33 35.5 60.1 62.4 81.7h1.6l-.2 1.8c-11.1-6.1-19.3-16.2-31-20.8-25.5-21.5-41.5-52.3-48.8-84.3-2.2-8.5-2.7-17.5-5-26-.6 16.9 2.2 33.5 4.6 50.2-6.3-14.6-7.7-30.7-8.7-46.4-1 3.6-1.6 7.2-2.3 10.8-3.6-15.2-1.8-31-1.7-46.4-2.4 2.6-4.5 5.7-6.2 9.5.2-7.9 1.9-15.7 2.6-23.4-13.7 35.7-10.8 76.1 2.2 111.6 0-12.9-3.5-25.5-2.4-38.4 2.7 10.3 4 21 6.1 31.6 1.3-2.4 2.6-5 4-7.4 14.6 33.4 34.5 66.6 65.5 87.4-4.6-6.7-10.1-12.8-13.5-20.2 10.2 11.8 21.5 23.2 35.8 30.2-4.1-5.2-10.1-8.9-14.2-14.2 17.2 11.5 35.9 20.4 55.4 27.6-2.4 2.2-5.7 2.2-8.6 2.9 1.3 1.6 3.4 2.8 4 5 2.6 11.4 10.2 20.6 15.4 30.8-13.6 1.5-27.7-.1-40.4-5.2-27.4-11.1-48.6-32.2-69.6-52-5.6-5.6-12.9-10.2-15.3-18.1-4.3 2.9-8.4 5.7-12.6 8.6 3.4 4.1 6.8 8.3 10 12.5-7.4 1.3-8.5-6.8-11.5-11.3-4.6 3.5-9.1 7.2-12.1 12.1-2.7 4.4-3.3 9.6-6.6 13.6-13.8 19.2-22.8 41.5-27.6 64.6-8.7 42-6.2 85.3-5.1 127.9 11.2-2.1 22.6-.9 33.8.7 11.2-19.1 31-33 53-37.2 24.4-5 50.8 2.2 69.1 18.7 12.8 11.5 22.5 27.2 24.3 44.5 1.7-9.2.4-18.9 4-27.7-.6 8.5-.7 17.1-1.5 25.7 4.3-2.9 8.7-6.2 8.1-11.9 2.6.2 5.1.6 7.7 1 9.2-5.2 19.8-7.7 30.2-9.1 24.4-2.1 49.6 7.2 65.9 25.1 2.6 3.8 7.5.9 11.2.7 7-1.3 14.2-.9 21.4-.6l-.1 1c3.8.4 7.4.9 11.2 1 11.1-8.5 23.6-15.5 37.5-18.1 19.4-3.9 40.2-.4 57.2 9.8 16.4-22.8 45.2-34.9 73.1-32.9l-.2.9c24.3 1.7 46.6 16.2 59.6 36.2 2.2-1.6 4.4-3 6.7-4.5 7.3-4 15.3-6.9 21.4-11.9 1.9-1.4 2.7-2.8 2.8-4 14.7-6.8 39.1-16.5 68.3-23.2 44.5-10.1 109.7-14.7 167.8 20.7l1.3.8 1.4-.8c.2-.1 24.5-13.5 71.6-19.4 16.1-2 36.2-3.3 60.1-2.5.8-1.8 1.7-3.5 2.5-5.3-26-.8-47.3.5-64.3 2.7zM885 830.1c7.8 5.1 13.8 12.4 18.8 20-7-5.6-14.2-12-18.8-20zm46.2 200.9c-2.8-1.8-5.6-3.3-8.4-4.5.6-11.9 2-23.7 6-34.9 4-12 7.5-24.3 13.5-35.6-6.3 24.5-9.5 49.7-11.1 75zm416.9-528.8c-27.9-4.5-56.6-7.4-84.5-2.4 27.7.5 55.5 1.8 82.5 8.3-35.6-2.7-71.7-4.3-107 1.8 10.2 1.7 20.5.2 30.7.7 21.9.7 43.8 1.6 65 7.5-10.2 1.9-20.6.5-30.8 1-69.3.7-139.2 5.1-206.9 20.5-1.7.1-5 .5-6.7.7 19.6-9.5 40.3-16.6 61.1-23.2 1.9-.5 3.8-1.1 5.7-1.7-26 4.1-51.7 10.3-76.6 18.7 25.1-13.5 52.7-23.1 80.9-28.4-9-.7-17.7 1.8-26.5 3.3-19.2 4-38.5 8.6-56.2 17 8.3-8.7 19.8-12.9 30.2-18.2-9.5 1.2-18.9 3-28.3 5.1-1.1.5-2.3.9-3.4 1.3 2.9-1.9 6.1-3.3 9.4-4.4 78.3-27.6 163.8-33.9 245.6-20.5 7.3 1.2 14.9 1.9 21.9 4.7-1.7-.5-3.4-.9-5.1-1.2-21.6-2.2-43.2-3.2-65-3.2 21.2 3.7 43.7 4 64 12.6zm-72.7 67c-15.4 2.4-31.2 9-46.9 4.4-6-1.5-9.7-6.6-12.1-11.8 8.5-9.8 22.1-15.5 35.2-14.3 19.9 1.3 39.8-5 59.5.2 9.1 3.2 18.5 9 21.3 18.7 1.3 6.8 1 13.7.9 20.5-4.7-3.9-6-10.7-11.3-14.1-13.5-9.5-31.4-6.3-46.6-3.6zm22.6 13c-7 7.7-18 10.7-28.2 10.6-6.2-.4-13.6-.9-17.4-6.6 8-4 17.1-5 25.7-6.9 6-1 11.8-2.8 17.6-2.9 4.2-1.3 5.1 4 2.3 5.8zm-126.2 7.9c2.9-5.5 2.4-13.5 8.7-16.5 3.8-2.2 8.7-3.5 12.9-1 5.5 3.8 7.2 10.4 8.9 16.5 2.2 9.1 6.9 17.4 11.4 25.5-17.4-3.8-35.7-3.3-52.5 2.7 3.3-6.2 5.8-12.6 8.6-18.9 3.5-6 9.6-9.6 15.2-13.5-4.4 1.3-8.9 3.2-13.2 5.2zm30.5-37c-4 .9-8.1 1-12.3 1.2-3.4-2.8-7-5.2-10.9-7.4 2.1 2.6 4.4 5 6.6 7.5-6.8-1.5-14 1.5-20.5-1.3-9.2-3.8-18.5-7.7-28.3-9.4 4.1-.4 8.4-.4 12.4-1.6-3.4-.7-6.8-1.5-10.2-2.3 42.4-7.8 85.4-10.6 128.3-11.8-7.8 3-15.8 5.3-23.9 7 3.9 4 9.1 2.7 14.1 1.7 13.4-3.6 26.5-8.6 40.4-8.9-3.6 1.5-7.7 2.4-11.5 3 1.2 1 2.3 1.9 3.5 2.9l16.4-4c-4.7 5-11.8 6.2-18.5 6-29.3-.7-59.1 4.9-85.6 17.4zm2.5-148.2c.5 23.1-6.9 46.6-21.5 64.7 4.1-11.9 8.9-23.7 10.9-36.2-6.2 7.4-11.5 15.5-19.1 21.7 2.2-9.4 5.3-18.5 6.2-28.1-4.5 3-9.2 5.6-14.2 7.8 12.3-10.3 23.1-22.5 29.8-37-1.1 13.8-6.7 26.7-11.7 39.6 8.5-9.5 13.9-21.2 19.6-32.5zm18.5 42.8c5.5-5.5 11.3-10.7 16.2-16.6 1.6 13.2-4 27-13.1 36.7 3.9-8 7.3-16.3 9.2-24.9-4 1.7-8 3.7-12.3 4.8zm-224 157.4c.4-3 3.2-7.3 6.3-8.3.6 3.3-2.9 8.3-6.3 8.3zm6.2-89.2c-3.5.2-2.2-9 1-5.8l-1 5.8zm14.9 8.3c1.2 6.4 4 12.5 7 18.5-14.3-11.2-18.6-29.4-22.5-46-.1 3.6-.1 7.2 0 10.8-.9-.2-2.4-.7-3.3-1-.2-10 .1-20 2.3-29.8-1.5 1.7-4.6 5.1-6.2 6.8 1.2-6.2 5-11.5 9.6-15.8 7.3 2.6 14.7 4.9 21.6 8.4.5 1.1 1.5 3.2 1.9 4.3-1.3-.2-3.9-.9-5.2-1.1 4.5 3.9 7.2 10.7 12.8 12.8-3.9-20.2-12.8-40.6-9-61.6 2.8-15.1 14.6-26.6 26.8-35.1 20.4-13.4 44.2-20.4 68-24.8-23.8 19.4-30.2 52.2-28.9 81.1 1.1-18.2 5.1-36.6 14.7-52.3 9.5-16 24.5-29.4 42.8-35 25.7-8.1 55.7-1.5 75.4 16.6 22 19.9 33.6 48.1 40.9 76 2.6-37.2-18.9-73.6-51.4-92.1 28.1-1.7 57.1-2.6 84.2 6.3 29.4 9.1 45.4 40.8 45.4 69.7-2.4-16.5-7.9-33-18.5-46.3-5.3-6.4-12.1-11.7-20.3-14.2 10.1 13.2 17.1 28.7 20.9 44.8-10.4-12.6-24.3-22.3-40.2-27.2 4.5 4.5 10 8.3 14.2 13.2 11.2 12.6 18.1 29.3 17.9 46-2.1-6.3-3.8-12.8-7-18.6 1.1 11.3 1.7 27.2-10.9 32.4-18.9 3-38.5 2.4-57.7 3.2.1-5.7-2.1-11.7.9-17 6.6-14.2 4-31-3.2-44.5-4.3 5.8-9.1 11.1-14.7 15.5-3.6-3.9-7.2-7.8-10.9-11.4-1.9-15.5-7.2-31.2-17.9-43.1-3.4 10.4-8.9 20.8-17.6 27.8-3.5 1.3-7.7 1-11.3 1.7-16.2 1.7-30.4 11.8-39.1 25-4.5 6.4-7.2 13.7-10.4 20.8 1.3-15.3 6.4-29.9 13.1-43.6-8 7.8-13.5 17.5-17.6 27.6-1.5-13.7 2.7-26.8 5.5-40.1-18.9 30-21.3 67-18.7 101.4-19.4 5.3-38.3 13.5-54.7 25.1-3.3-8.3-6-16.8-9.1-25-7.9-3.9-13.4-11.4-22-14 9.5 8.6 19.4 17.7 24.3 29.9-6.8-7.5-13.2-16.2-22.8-20.4 4.6 5.7 10.3 10.7 13.6 17.2 6.2 11.5 9.2 24.3 15.4 35.8-3.6-1.8-6.9-4.3-10.2-6.7 1.3 2.4 2.8 4.7 4.1 7.2-10.5-1.6-15.3-12.2-22-19.2zm102.3 98c-3.5 6-3.6 12.9-3.3 19.4-1.9.5-6 1.5-8 1.9.1-1.9.1-5.7.1-7.7-4.4 1.8-6.8 6-9.7 9.4-14.6 1.6-31.1.4-42.3-10.1-15.8-15.4-21.1-38.5-20-59.8 2.7-6.9 7-14 13.5-18.1 6 .5 12 1.1 17.7-1 20.8-6.3 43-6.9 64.4-4.1 7.8 1.6 15.8 5.3 19.8 12.4-4.6 1.1-9.5.9-14.1 1.2 5.2 1.9 10.7 2.8 16.3 3.2.4.9 1 2.7 1.3 3.5-13.5 2.2-26.5-3.5-39.5-6.6-14.6-3.6-30.7-7.9-45.4-2.2-8.1 3-12.8 10.8-16.2 18.3 5.3-2.6 12.4-7.3 18.1-2.6 4.3 6 6.2 13.2 10.6 19.2 3.2 4.7 7.8 8.3 12.4 11.8-.2-1.6-.9-4.5-1.1-6 2.8 1.8 5.6 3.6 8.5 5.5l.2-1.2-1.9-1.1 1.1-1.5c.9-.1 2.6-.5 3.4-.7-2.3-3.2-4.5-6.4-6.4-9.7 4.7 1.7 9.4 4.1 14.6 4.5 7.4 0 14.2-3.3 21.4-4.4-2.6 2.2-5.3 4.3-7.8 6.6 6.9-2.2 13.4-5.8 20.5-7.7-11 7.6-22.7 15.3-28.2 27.6zm-32.6-50.5c6.2-1.3 12.3.9 18.3 2.4 7.4 2.1 14.9 3.8 22.3 6.1 2.2.9 6.4 1.8 5.6 5.1-8.7 5.2-19.9 4.1-29.3 1.3-7-2.7-15.3-6.9-16.9-14.9zm15 34.5-1.2.7c-3.6-3.6-6.6-8-8.7-12.8 3.4 3.7 8.9 7.3 9.9 12.1zm19.5 33.2c2.7-15.9 14.3-31.2 31.1-33.8-5.3 14.5-15.2 29.5-31.1 33.8zm30.2-11.7c18.8-11.8 43.2-11.3 64-5.1 1 1.7 2.1 3.4 3 5.2-21.9-5-44.8-3.7-67-.1zm94.8 8.5c-5.8-8.4-15.1-13.4-23.8-18.2-5.6-7-8.6-15.5-11.5-23.9 4 3.8 7.9 7.8 12 11.1-.6.6-1.8 1.6-2.4 2.2 19.2-2.1 35 14.3 37.9 31.9-4.2-.9-8.2-1.9-12.2-3.1zm60.1-2c-12.3 8.1-27.6 8.1-41.7 6.3.2-18.5-13.7-33-28.5-42.4 7.3.7 12.8 6.1 19.8 7.7-2.9-2.4-6-4.9-8.7-7.4 11.4 4.3 24.4 8.9 36.1 2.2-2.4 4.1-5.3 7.9-8.5 11.5 6.4-2.6 10.2-8.6 15.8-12.3-1.7 3.3-3.8 6.3-6.8 8.5l2.6 2.6c1.9-2.3 3.9-4.5 6.1-6.6-1.3 4.7-5.2 7.9-8 11.8 7.5-3.3 14.1-8.7 18.2-15.8 3.4-5.1 5.3-11.3 10-15.5 6.3-3.3 11.5 3.6 17.7 2.4-2.5 17.5-8.4 36.6-24.1 47zm55.4-83.2c2.8-5.8 6.4-11.4 7.2-18-4.7 6.4-10.1 12.8-16.8 17.5 0-4 .1-7.9.2-11.8-15.2-2.2-30.6-1.9-45.8-3 11.9-6 25.4-9.2 38.6-6.2 8.4-10.8 17.7-20.9 27.7-30.4-10.2 3.8-17.4 12.3-25 19.6l-.1-.9c6.9-11.4 17.1-20.4 27.6-28.8-7.9 2.7-14.1 8.1-20.9 12.5 3.2-5.1 7.8-9.2 12-13.5l-.1-.6c-4.1 1.9-8.1 3.9-12.1 5.8.4-1.2 1-3.5 1.3-4.7 9.2-5 19.6-8.1 29.8-10.6 4.6 4.7 7.7 10.6 9.2 16.8-2.1-2.2-4-4.5-6.1-6.6 1.2 12.9 2.7 27.2-4.4 38.9.2-5.5 3.3-11.5.9-16.4-4.3 14.9-9.6 31.2-23.2 40.4zm25.8 58.8c5.2 5.1 9.6 11.1 13.7 17.1-6.9-2.9-9.9-10.9-13.7-17.1zm-229.4 337.9c2.3 0 4.5-.1 6.9 0 1 5.5 2.2 10.8 3.6 16-2.1 1.8-4 3.8-6 5.7-1.2-7.3-2.5-14.6-4.5-21.7zm8.6-9.4c1.5-1.8 3.6-3.3 6.1-3.5 2.1-.9 6 2.8 2.3 4.1-1.7 3.2-9.9 4.5-8.4-.6zm1.4 54c-2.3-7.3-3.5-14.8-3.6-22.5 10.1 3.4 7.3 15.5 8.9 23.4-1.4-.2-4-.7-5.3-.9zm2.9 23c-.7-5.8-1.3-11.8-1.7-17.6 4.9 3.5 7.2 9.2 9.1 14.8-2.5.9-5 1.9-7.4 2.8zm1.7 4c2.6 1.5 5 2.8 7.5 4.1.1 5.3.1 10.7-.1 16-6.7-4.4-7-12.9-7.4-20.1zm2.7 42.5c.5-6.4.9-13 1.6-19.4 5.5 5.1 5.1 12.9 6 19.7-2 0-5.8-.3-7.6-.3zm-21.6-122.5c.7-1.7 1.6-3.4 2.4-5 11.1-3.5 19.9-14 32.5-12.6-10.7 7.5-23.5 11.4-34.9 17.6zm54 30.5c24.9-4.9 49.7-10.6 74.9-14.2 1 1.7 2.1 3.4 3.2 5.1-14.8 1.5-29.5 3.9-43.7 8-5.2 1.1-10.2 5.1-15.7 3.5-10.6 4.1-21.7 5.8-32.8 8.1 2.3-5.7 8.1-9.4 14.1-10.5zm18 27.7c-6.6 2.3-12.9 5.6-19.8 6.9-7 .4-2.1-8.4-.7-11.7 13.4.6 26.8-4.1 37.2-12.4 3.3.5 6.3 2.8 9.7 1.8 9.8-1.9 19.2-5.7 29-7 2.3 1.8 4.5 3.8 6.7 5.7-20.6 6.1-41.8 9.8-62.1 16.7zm96 13c-1.7-.6-3.4-1.2-5-1.8.7-1.8 1.5-3.6 2.3-5.5l4.7 2.6c-.6 1.5-1.2 3.1-2 4.7zm24-64.4c-1.1-4.4 5.3-7.9 7.9-3.8-2.6 1.4-5.3 2.6-7.9 3.8zm14.2-13.4c-.7.2-2.4.6-3.3.9 3.9-7.5 10-13.8 15.9-19.6 1.1-.1 3.3-.2 4.4-.2-5.6 6.3-11 13-17 18.9zm109.6-53.5c-11.3-.6-22.7-1.5-33.9.5-13.4 2.1-24.2 10.8-36.7 15.3 9.2-10 23-14.7 35.5-19.7 15.2-1.3 30.6.1 45.7 3 3.4 1 8.1 1 9.7 4.9-6.9-.5-13.3-3.7-20.3-4z"/></g><text transform="translate(554.229 874.8)" style="font-size:134.7549px;font-family:'MuseoSansCyrl-900'">WEB</text></svg>