<?xml version="1.0" encoding="utf-8"?>
<!-- Generator: Adobe Illustrator 25.3.1, SVG Export Plug-In . SVG Version: 6.00 Build 0)  -->
<svg version="1.1" id="Capa_1" xmlns="http://www.w3.org/2000/svg" xmlns:xlink="http://www.w3.org/1999/xlink" x="0px" y="0px"
	 width="800px" height="600px" viewBox="0 0 800 600" style="enable-background:new 0 0 800 600;" xml:space="preserve">
<style type="text/css">
	.st0{fill:#020303;}
</style>
<g>
	<path class="st0" d="M692.3,452.4c-1-3.5-1.2-7.2-0.2-10.8c-1.4-4,0.4-8.3-1.5-12.2c-0.2-2.8-0.2-5.5-0.1-8.3c-2.4-2-5.9-2.4-9-3.3
		c-1-0.3-2.1-0.6-3.1-0.9c-2.7-0.8-5.5-1.4-8.3-1.9c-3.5-1.1-7-2.5-10.7-3c0-1,0.1-1.9,0.1-2.9c0.4,0,1.2-0.1,1.5-0.1
		c1.3-2.8,4-5,5-7.9c0.4-1.4,0.6-2.8,0.9-4.2c1.4-4.2,2-8.6,1.9-13c1.7-7.2,0.6-14.5,1-21.7c0.4-3.1-0.8-6.1-1.3-9.2
		c-1.4-2.7-0.9-5.7-0.6-8.6c0.7-1.1,0.9-2.2,1.2-3.4c0.9-1.7,0.7-3.7,0.8-5.5c0-6.9,0-13.9,0-20.8c0-1.3-0.2-2.7-0.9-3.9
		c-0.1-2-0.2-4.1-0.3-6.1c-1.3-2-0.4-4.3-1.7-6.3c-0.7-4-1.9-8-4.1-11.6c-0.6-1.9-1.6-3.7-3.3-5c-0.2-4.6,0.5-9.2-0.4-13.8
		c-1.2-2.6-0.1-5.5-1.5-8c-0.2-3.1-1.1-6.1-1.9-9.1c-0.5-2-1.2-3.9-2.1-5.8c-0.4-0.9-0.8-1.7-1.2-2.6c-0.1-0.4-0.3-1.1-0.4-1.5
		c-0.5-0.9-0.9-1.7-1.2-2.6c-0.5-0.8-1-1.6-1.5-2.4c-0.7-1.1-1.4-2.2-2-3.3c-1.2-2-2.4-4.1-4-5.9c-0.7-0.9-1.5-1.7-2.4-2.5
		c-0.1-1.7,0.2-3.5-0.9-5.1c-0.3-1.2-0.3-2.4-1.2-3.4c-0.1-0.8-0.1-1.6-0.1-2.4c0.6-0.8,1.2-1.6,1.8-2.5c0.9-1.9,2.3-3.5,3.8-5.1
		c0.3-0.8,0.6-1.6,0.9-2.4c0.8-1.4,1.6-2.8,2.1-4.2c1-1.6,1.8-3.2,2.1-4.9c0.5-1.6,0.9-3.2,1.7-4.7c-0.4-4.6,2.4-9.3,0.4-13.8
		c-0.6-4.9-1.9-9.7-4.2-14.2c-0.1-0.4-0.3-1.2-0.3-1.5c-0.8-1.4-1.4-2.9-2.2-4.3c-2.4-4.1-5.5-7.9-8.3-11.8
		c-0.8-0.7-1.6-1.5-2.4-2.2c-1.9-3.1-6-4.8-8.1-7.8c-1.1-0.6-2.1-1.2-3.2-1.8c-3.1-1.7-6-3.6-9.3-5.2c-2.8-0.9-5.6-1.6-8.4-2.4
		c-9-2.2-18.4-3.5-27.7-3.7c-3.1-1.2-6.7-0.6-10-0.8c-7.9-0.4-15.4,1.9-23.2,1.7c-2-1.1-4-2.2-6.1-3.1c-1.7-0.8-3.4-1.7-5.1-2.5
		c-4.1-1.9-8.1-4.2-12.6-5.5c-2.3-1-4.7-2-7.2-2.5c-4.4-2.5-9.9-1-14.8-1.5c-2-0.6-3.8-1.5-5.7-2.2c-1-0.5-2-1.1-3-1.7
		c-4.5-0.2-8-3-12.5-3.3c-3-0.8-6.1-1.8-9.2-2.2c-3.9-0.7-7.9-1.7-12-1.4c-2,1.1-4.4,0.7-6.6,0.7c-1-0.4-2.1-0.7-3.1-1
		c-4-1.1-8.2-2-12.4-2.5c-4.1-1.3-8.6-0.2-12.9-0.8c-5.2-1.1-10.6-0.4-15.9-0.5c-2.1,1.2-4.6,0.5-6.8,0.2c-1.9,0.2-3.8,0.8-5.7,0.1
		c-6.9,0.7-14.1,0.2-20.8,1.9c-1.4,0.2-2.8,0.4-4.1,0.8c-3,0.3-5.6,1.4-8.1,2.6c-1.9,0.4-3.7,1-5.7,1c-4.9-0.2-9.6,1.3-14.4,1.7
		c-2.4,0.1-4.7,0.8-6.9,1.5c-0.5,0.1-1.4,0.3-1.8,0.4c-3.5,0.9-7.2,1.5-10.5,2.9c-1.8,0.4-3.5,1-5.1,1.6c-1.8,0.4-3.6,1.1-5.2,1.9
		c-1.4,0-2.8,0.1-4.2,0.1c-0.4-0.4-1.3-1.1-1.7-1.4c-1.1-0.5-2.2-1.1-3.3-1.6c-1-0.5-2-1.1-3-1.6c-1.5-0.7-2.9-1.6-4.4-2.3
		c-7-2-13.2-5.4-20.5-6.6c-1-0.3-2.1-0.6-3.1-0.9c-14.5-2.7-30-5-44.4-0.8c-2.2,0.1-4.2,0.9-6.1,1.7c-3.3,0.7-6.2,2.2-9.3,3.3
		c-1.5,0.7-2.9,1.5-4.3,2.2c-1,0.6-2,1.2-3.1,1.7c-1.1,0.6-2.1,1.1-3.3,1.6c-3.6,2.7-7.1,5.5-10.5,8.4c-0.7,1.3-1.9,2.3-3,3.4
		c-0.9,1.2-1.9,2.4-2.7,3.6c-2.3,3.2-3.4,6.8-4.7,10.3c-0.1,1-0.2,1.9-0.3,2.9c-1.3,1.9-0.7,4.2-0.9,6.3c-0.3,6.3,0.1,12.7,1.8,18.9
		c0.2,1.4,0.3,2.8,1,4.1c0.3,1.1,0.6,2.2,1,3.3c0.4,0.8,0.8,1.7,1.2,2.5c0.1,0.8,0.3,1.6,0.4,2.4c0.4,0.8,0.8,1.6,1.1,2.5
		c-2,3-6.1,4.8-7.8,8l-1.3,0c-1.1,3.1-4.3,5.2-6.2,8c-0.7,0.9-1.3,1.7-2,2.5c-2.9,2.9-5.2,6.1-6.9,9.6c-0.4,0-1.2-0.1-1.6-0.1
		c-0.1,0.6-0.2,1.7-0.3,2.3c-0.3,0.4-0.9,1.3-1.2,1.7c-0.8,1.3-1.6,2.7-2,4.1c-0.9,1.5-2,3-1.8,4.7c0.4,1.8-1.9,2.8-3.7,3.4
		c-4.2,2.6-5.4,6.9-8,10.4c-0.7,1.6-1.4,3.3-2,5c-1.4,2.2-2.4,4.5-3.1,6.8c-0.4,0.3-1.2,1-1.6,1.3c-0.1,1.6-0.2,3.3-1.1,4.8
		c-0.2,3-2,5.8-2.6,8.7c-0.7,1.6-0.7,3.3-0.9,4.9c-1.1,3.7-2,7.6-1.8,11.4c1.6,2.2,1.4,5-0.2,7.1c-0.8,1.1-1.5,2.2-2.3,3.3
		c-1,2.1-0.6,4.3-0.8,6.5c-1.4,2-0.8,4.4-1.1,6.7c-1.7,4-0.4,8.4-1,12.5c-1.1,1.4-0.8,3.1-0.9,4.6c-0.1,4.5-0.2,8.9,0.2,13.4
		c1.2,3.9,0.8,8,0.8,12.1c-0.9,0.8-1.7,1.7-2.3,2.6c-0.7,1.2-1.6,2.3-2.7,3.2c-0.1,1-0.1,2-0.2,2.9c-0.7,0-2.2,0.1-2.9,0.2
		c0.2,11.9-0.1,23.8,0,35.8c-0.1,1.1,0.2,2.1,0.9,3.1c0,0.7,0,1.5,0.1,2.3c-2.4,3.1,0.8,7.2-1.9,10.2c0,1.1-0.2,2.4,0.9,3.3
		c0,1,0,1.9,0,2.9c1.2-0.5,2.5-0.9,3.8-1.1c0.2,1.1,0.3,2.3,0.7,3.4c1,0.7,1.7,1.7,1.8,3.1c0,0.3,0,0.6,0,0.9
		c0.8,0.8,1.7,1.6,2.3,2.5c3.3,1.8,6,4.2,9.6,5.7c2.1,0.8,4.2,1.6,6.3,2.4c1.7,0.8,3.4,1.7,5.1,2.5c1.8,0.8,3.6,1.8,5.4,2.6
		c0,0.3,0,0.8,0,1.1c2.4,0.2,4.7,0.7,7,1.2c1.1,0.5,2.2,1,3.2,1.7c0.2,9.4-0.2,18.8,0.2,28.1c0.5,3.2,1.1,6.9,4.4,9.1
		c1.2,0.4,2.2,1,3.3,1.6c1.8,0.9,3.5,2,5.7,2.2c6.2,1.4,12,3.5,18.3,4.6c1.2,0.1,2.4,0.2,3.7,0.3c0-0.4-0.1-1.2-0.1-1.6
		c2.1-0.8,4.3-1.2,6.6-1c2,1,4.2,1.9,6.1,3c2.6,1.6,5.5,2.6,8.5,3.6c2.1,0.1,4.2,0.2,6.2-0.5c1.6-0.3,2.9-1,4.1-1.9
		c0.6,0,1.8-0.1,2.4-0.1c0.4-0.4,1.1-1,1.5-1.4c2.1-0.2,3.8-1.3,5.7-2.1c4.2-3.4,9-6.3,14.1-8.7c0.5-0.2,1.6-0.6,2.1-0.8
		c1.1-0.4,2.2-0.8,3.3-1.2c1-0.4,2-0.8,3-1.2c1.8-0.4,3.5-1,5.2-1.6c1.4-0.4,2.8-0.8,4.3-1.2c1-0.5,2-1,3-1.5c1.3,0,2.7-0.1,3.4,1
		c0.2,7.1-0.2,14.3,0,21.4c0,1.6,0.8,3.1,1.3,4.7c1.5,2.5,4.2,4.3,6.5,6.2c9,0.1,17.9,1.9,26.6,3.7c-0.1,1.1-0.6,2.1-1.4,3
		c8.8-0.1,17.6,0,26.5,0.1c2.2,1.2,4.9,0.6,7.4,0.7c0.9-0.8,1.9-1.5,2.8-2.3c2.5,0.2,4.5-1.1,6.6-2c2.5-1.6,4.4-3.7,5-6.2
		c1.2-2,1.7-4.4,3.8-5.9c1.5-0.3,3.1-0.7,4.5-1.1c3.9-1.5,7.6-3.6,9.9-6.7c1.2-1.7,3.2-3,5.3-3.9c0.6-0.2,1.7-0.5,2.2-0.7
		c1-0.5,2-1.1,3-1.7c3.8-0.8,6.8-3,9.4-5.3c1.3,0,2.6,0.1,4,0.2c7.4,2.1,15.7,2.2,23.2,0.5c-0.1,5,0.5,10.1-0.9,15.1
		c0.2,6.4-1.3,12.7-2.3,19c-1.4,1.1-2.8,2.2-4.3,3.2c0.1,1.2,0.8,2.3,1.8,3.1c1.1,0,2.2,0,3.4,0c0.7-0.8,1.3-1.6,1.9-2.4
		c2.3-1.2,4.7-2.4,7.2-3.4c1.1-0.3,2.2-0.6,3.3-0.9c3.5,0,7.3,0.3,10.3-1.7c3.4-0.2,6.8-0.2,10.2,0.1c1.1,0.3,2.3,0.6,3.4,0.9
		c2,1.4,3.9,4.4,7,2.6c1.1-0.3,2.1-0.7,3.2-1.1c4.1-0.2,8.2-0.1,12.2,0c1.4,0.5,2.8,0.9,4.2,1.4c0.5,0.1,1.5,0.3,2,0.4
		c3.5,1.4,7.3,1.8,11.1,1.5c-0.1-0.4-0.1-1.1-0.2-1.4c1.6-0.6,3.2-1.2,4.7-2c1.8-0.1,3.5,0.3,5.2,0.9c0.3,2.7,3.3,0.8,4.9,0.1
		c2.9-1.4,6.3-0.9,9.5-0.9c1.7,0.9,3.4,1.9,5.2,2.7c1.5,0.6,2.8,1.3,4.1,2.2c1-0.7,1.9-1.5,2.9-2.2c0-2.1-2.2-3.3-3.8-4.5
		c-1.5-0.7-2.9-1.5-4.4-2.2c-1.5-0.6-3-1.1-4.4-1.6c-0.1-2.6,0.6-5.3-0.8-7.7c-0.2-3.1,0-6.3-0.2-9.4c-1.7-6.6-0.5-13.3-0.9-20
		c2.5-1.2,5.1-2.1,7.6-3.2c1.5-0.1,3-0.2,4.5-0.3c-0.2,3.6,0.1,7.2-0.3,10.8c-0.7,2.1-0.9,4.3-0.6,6.4c0.8,0.8,1.6,1.6,2.3,2.5
		c1.9,1,3.6,2.3,5.6,3.3c1.5,1.1,3.1,2,4.9,2.8c2.7,1,5.7,2.7,8.4,0.7c2.2-0.6,4.4-1.1,6.6-1.4c3,0.4,5.9,1.2,8.9,1.8
		c2.1,0.9,4.2,1.7,6.3,2.5c2.8,1.3,5.4,2.9,8.2,4.2c2,0.9,3.8,2,6.1,2.6c3.5,2,7.9,1,11.8,2c2.7,0.7,5.3-0.6,7.8-1.2
		c3.8-0.6,7.6-0.8,11.3-1.6c1.4-0.3,2.8-0.5,4.1-0.8c3.2-0.5,6.3-1.3,9.2-2.5c2.4-0.4,4.2-1.7,6.2-2.8c4.9-0.4,9.5,1.1,14.4,1
		c3.1,1.2,6.7,0.6,10,0.7c4.6-0.2,9.7,0.7,13.8-1.4c1.3-0.3,2.6-0.6,3.5-1.4c3.4-2.3,7.2-4.2,11.1-5.9c2.2-1,2.9-3.1,4.7-4.4
		C692.7,462.8,692.6,457.6,692.3,452.4z M658.5,363.2c-0.2,10.6-0.2,21.4-3.8,31.7c-1.7,3.9-2.5,9.1-7.8,10.8
		c-3.8,1.9-8.1-0.2-11.9-0.9c0.6-2.8,0.7-5.6,1.1-8.4c0.2-7.7,0.5-15.5,0.4-23.2c-1.5,0-2.2,0.5-2.1,1.6c-0.9,9.6,0.7,19.3-2.3,28.7
		c-1.2,0.1-2.3,0.3-3.4,0.4c0.3-4,0.7-8.2-0.5-12.1c-0.3,0.1-1,0.1-1.3,0.2c-0.5,4.1,0.1,8.3-0.6,12.5c-3,0.3-5.9,0.7-8.9,1.1
		c0.2-9.7,1.8-19.4,1.6-29.1c0.1-3.7,0-7.4,1-11c2-1.1,4.4-1.4,6.7-2.1c9-2.8,17.9-5.8,26.8-8.8
		C657.2,355.9,658.4,360.1,658.5,363.2z M653.1,290.6c2.8,11.5,4.1,23.3,3.9,35c0.4,5.8,0.3,11.7-0.5,17.5c-0.2,2.3-1.4,4.9-4.3,5.8
		c-19.8,7.1-40.5,12.9-61.9,15.7c-4.7,0.5-9.7,1.4-14.2-0.3c-1-0.9-0.9-2.3-1.3-3.4c-0.2-15.7-2.6-31.4-3.4-47.1
		c-0.1-3.5-1.3-6.8-1.7-10.2c16.1-2.8,32.3-5.3,48.5-7.5c4.4-0.5,8.1-2.5,12.4-3.2c6.4-1.2,13-1.8,19.3-3.4
		C651.1,289.1,653.1,289,653.1,290.6z M510.4,359.1c-3,0.9-5.9,1.7-8.9,2.5c2.2-12.5,1.8-25.3-1.1-37.7c2.7,1,5.3,2.1,8.1,3l0,0.1
		c4.8,1.4,8.1,5,10.8,8.4C525.3,343.5,520.6,354.8,510.4,359.1L510.4,359.1z M472.5,436.8c-0.6-8.1-2-16.2-3.8-24.1
		c6.9,0.1,13.8-0.1,20.7,0.1c1.9,7.8,2.2,15.7,2.3,23.6c-0.1,6.1-1.1,12.1-1.9,18.1c-6,0.9-12.2,0.3-18.3,0.8
		C472.6,449.2,472.6,443,472.5,436.8z M459,406.4c-8.4,1-17,1.6-25.3,3.2c-0.7-9.7-0.4-19.4-1.1-29c-0.1-3.1-0.3-6.3-0.5-9.4
		c24,3.7,49.1,2.1,72.4-3.6c0.4,1.7-0.7,2.9-2,4c-0.6,3.6-0.2,7.2-0.1,10.8c0.2,3.7-0.5,7.4-0.1,11c0.7,0.8,2.2,0.1,3.2,0.2
		c0.5,5.3,0.6,10.7,0.7,16.1c-1.6-0.4-3.1-0.8-4.7-1.2C487.7,405.3,473.2,406.3,459,406.4z M447.3,435.7c-0.5-6.9-2.1-13.7-3.5-20.4
		c4.4-0.5,8.8-1.2,13.2-1.6c2.2,7.2,3.5,14.5,3.9,21.8c0.7,6.7,0.1,13.5-1,20.2c-4.4,0.2-8.7-0.1-13.1-0.3
		C447.5,448.9,447.8,442.3,447.3,435.7z M439.4,442.9c-3.4-1.2-6.6-3.4-7.5-6.4c-0.5-2.2,0.1-4.6,1.3-6.6c1.3-0.8,2.8-1.3,4.2-1.9
		C439.6,432.8,439.6,437.9,439.4,442.9z M219.1,407.7c2.2-4.8,6.3-8.7,9.8-12.9c4.7-2.9,11-2.8,16.6-2.7c7.5,0,13.3,4.6,20.4,6
		c1.7,4,4.9,7.5,6.5,11.5c-19,3.4-36.9,10.1-56,13.1C214.4,417.6,216.9,412.4,219.1,407.7z M215.4,401.5c-4,7.4-4.5,15.8-4.5,23.8
		c-3.5-0.2-6.9-0.7-10.2-1.5c-7.4-1.9-15.2-2.5-22.8-3.9c-0.4-1.6-0.9-3.2-1.4-4.8c-2.2-6.6,2.9-12.8,5.8-18.7
		c3.1-6.7,8.3-12.6,13.3-18.4c2,0.7,3.2,2.3,4.8,3.4c5,3.6,10.2,7.2,15.9,10.2c1.5,1.1,3.8,1.7,4.5,3.3
		C219.2,397.2,216.6,399,215.4,401.5z M267.9,394.3c-5.7-0.8-9.7-4.5-15.3-5.6c-8.7-2.1-18.9-3-26.9,1.1c-3.1,2.1-5.9-1.2-8.2-2.6
		c-4.8-4.1-9.7-8.2-15.7-11.1c1.5-3.4,0.7-7.7,4.2-10.4c8.9-7.1,22.2-9.4,34.4-8.1c9.5,0.9,17.9,4.6,26.7,7.3
		c6.9,2,12.7,5.7,18.4,9.3c1.4,0.9,2.9,1.8,4.3,2.7C283.8,383.6,274.3,387.7,267.9,394.3z M244.8,354c-0.7-0.1-2.2-0.2-2.9-0.2
		c-4.2-0.2-8.6,0.1-12.6-1.5c4.9-3.5,11.3-5.1,17.1-7.4c6-2,11.2-5.5,17.6-6.5c14.6-2.7,29.3,0.9,43.5,3.4
		c11.4,3,22.7,7.9,29.7,16.1c-14,4.9-27.7,10.4-42.2,14.2c-1.6,0.6-3-0.6-4.3-1.2C276.9,363,261.6,356.5,244.8,354z M323.8,339.1
		c-10.8-5.4-23.6-7.2-36-8.3c0.4-7-0.8-14-0.3-21.1c1.1-0.6,2.2-1.2,3.4-1.8c2-0.3,4-0.6,6-0.4c15.5,1.2,31.1,1.2,46.7,1.5
		c24.7,2,49.6,3.1,74.5,3c0,1.4,0.1,2.8,0.2,4.2c-0.9-0.8-1.9-1.4-3.1-1.7c0.7,2.3,0.4,5,2.9,6.7c-2.9,2.6-6.6,4.4-9.2,7.3
		c-5,5.4-7.2,12.2-7.2,18.9c0.4,7.7,6.1,14.5,13.2,19.3c0.8,0.5,1.6,1,2.5,1.5c-0.7,1.1-0.7,2.2,0,3.3c1.2-0.5,2.3-1.1,3.4-1.7
		c0,1.2,0,2.4,0,3.7c-16.7-0.6-33.7-0.1-50.1-2.8c-7.3-6.7-13.9-14.7-24.8-17.7C338.8,348,332,342.7,323.8,339.1z M217.8,287.5
		c-1.6-4.1-1.4-8.6-0.4-12.8c1.9-8.5,3.2-17,5.9-25.4c0.8-3.3,5-5.3,9-5.6c4.4-0.3,8.9-0.1,13.3,0.4c11.9,1.9,24.1,1.4,36.1,2.8
		c23.4,1.4,46.8,2.1,70.1,4c2.1,1.2,4.2,2.5,4.6,4.7c0.9,3.9-1.3,7.7-1.6,11.6c-0.3,11.4-1,22.9-1.8,34.3c-2.1,3.3-7.3,3.5-11.4,3.3
		c-39.1-1.7-79.1-2.2-116.7-12.1C221.5,292.3,219.4,289.9,217.8,287.5l1.2,0.1L217.8,287.5z M425.9,145.7c0.6,0,1.7-0.1,2.2-0.1
		c1-3.8,0-7.6-0.4-11.4c0.4,0.1,1.3,0.3,1.7,0.5c0.9,4.1,2,8.2,2.8,12.4c-3.1,2-6.5,3.9-10.5,4.5c-7.7,1.4-15.7,0.5-23.6,0.8
		c-19.3,1.4-38.6,0.6-57.9,0.3c-4.6,0-9.1-0.9-13.4-2.2c0.2-1.1,0.4-2.3,0.7-3.4c3.2-7.5,9.1-14.3,16.9-19.2
		c9.7,0.3,19.3,1.8,29,1.7c4.1,0.1,8.3-0.8,12.4-0.1c11.7,1.6,23.6,2.1,35.5,1.7c2.5,0.2,6.6-1.6,7.3,1.4c-0.5,0.6-1,1.2-1.6,1.7
		l-1-1.4C425.8,137.2,427.4,141.4,425.9,145.7z M475.5,161.1c-0.5-1.9-1.1-3.7-1.8-5.6c-0.7,0-2-0.1-2.6-0.1
		c0.1,0.5,0.3,1.4,0.4,1.8c-1.1-1.3-2.4-2.5-3.9-3.4c3.5-0.1,6.9-0.4,10.3-0.7c0.4-0.1,1.1-0.2,1.5-0.2c8.6,12.9,17.6,26,21.7,40.4
		c-22.9,3.3-46.3,2.9-69.5,2.1c-3.2,1.7-7.1,1.3-10.7,1.5c-11,0.3-22,0.2-33-0.1c-3.8-0.1-7.5-1.2-10.8-2.6c-1.2-1.8-1.1-4-1.6-5.9
		c-1-9.6-1.2-19.5,1.7-28.9c18-2.1,36.3-0.7,54.1-3.3c3.7-2,8.1-1.3,12.4-1.3c7.5,0.6,15,0.1,22.4-0.8c0.6,0.4,1.3,0.9,1.9,1.3
		c0.3,1.8,1.4,3.5,3.1,4.6C471,155,473.2,161.3,475.5,161.1z M606.3,232.8c-2.2,0.5-4.4,1-6.6,1.7c-0.7-1.9-0.3-4.8-3.6-5
		c-0.4,2.2,0.5,4.2,2.8,5.3c-9.5,1.5-19,3.4-28.8,3.1c-0.5-1.9-1-3.7-1.5-5.5c-3.2-11.1-7.8-21.9-12.5-32.7c-0.9-1.7-1.1-3.4-1-5.2
		c2.3,0.4,4.5,1.4,5.6,3.1c6.9,9.5,12.9,19.6,15.8,30.5c0.1,1.3,1,2.3,2.5,2.8c8.4-0.9,16.9-1.8,25.2-3.3
		C604,229.4,604.8,231.3,606.3,232.8z M625.8,227.2c-1.6,0.4-3.1,0.7-4.7,1.1c-0.1-1.5-0.6-3.6-3.1-2.9c-0.3,1.7,0.6,2.9,3,3
		c-4.5,1.5-9.2,2.7-13.7,4.1c0.1-2-0.7-3.7-2.6-5c8.8-1.8,17.8-3.7,25.4-7.9c0.7,2.8-0.5,5.4-3.2,7.3c-0.7-1.4-1.8-2.5-3.4-3.3
		C622.4,225.5,624.3,226.3,625.8,227.2z M559.3,222.1c1.7,3.5,2.2,7.3,3.4,11l0.2-0.2c0.4,1.3,0.7,2.6,1.1,3.9
		c-1.9,1.5-4.2,2.7-6.8,3.1c-15.9,2.4-31.9,4-47.9,5.3c-0.9-2.1-1.8-4.1-2.8-6.1c-4-8.4-12.6-15.3-23.1-18.4
		c-13.4-4-28.9-3.1-41.7,2c-1.1-5.4-0.8-10.9-2.6-16.2c0.5-0.7,1.1-1.4,1.7-2.1c0.7,1.8,0.6,4,2.2,5.6c1.6,0.4,1.5-1.3,1.4-2.1
		c0.1-2.5-2.8-3.9-4.4-5.7c-0.9,1.2-2,2.4-2.8,3.7c0.6,6,1.9,12,1.7,18.1c-1,0.6-2.1,1.1-3.1,1.7c-0.6-7.1-1.7-14.1-3.4-21
		c-0.9-2.1,2.2-2.9,3.9-3.6c3.2-1.5,6.9-1.1,10.4-1.2c16.6,0.1,33.1,0,49.6-0.7c2.9-0.1,5.4-1.4,8.1-2c2.2-0.2,4.1,0.8,6.3,0.9
		c12.5,0.7,25.2-3.9,37.6-0.6C553.3,205.3,555.7,213.9,559.3,222.1z M473.7,337.2c-0.6-5.7-2.1-11.4-3.3-17.1
		c7.4,0.1,14.9,0.1,22.1,1.7c3.4,6.2,1.9,13.2,3.7,19.7c-0.2,6.2-0.9,12.4-1.9,18.6c-0.3,1-0.4,2.7-2.1,2.7
		c-6.6,0.7-13.4,1.1-20.1,1.5C474.3,355.5,474.4,346.3,473.7,337.2z M490.3,315.5c2-1.4,1.1-3.6,1.1-5.4c-0.6-0.1-1.9-0.2-2.5-0.2
		c0.1,1.9,0.4,3.8,0.8,5.6c-15.3-1.7-30.9-1.4-46.2,0.7c-5,0.4-9.9,1.3-14.7,2.4c-0.4-19.5-5.5-39-3.2-58.5
		c2-10.6,6.5-22.4,18.7-28.1c11-4.7,25.1-8.2,36.8-3.1l0.3,0.5c4,1,6.7,3.8,9.4,6.2c5.7,5.5,9.2,12.2,11.5,19
		c2.5,7.9,2.5,16.1,3.1,24.1c0.7,13.1,0.4,26.1,0.6,39.2c-1.6-0.2-3.1-0.5-4.5-1C497.8,316.7,494.1,316.1,490.3,315.5z M449,337.2
		c-0.7-5.2-1.3-10.3-2.3-15.5c3.8-0.4,7.6-0.7,11.4-0.9c2,6.3,3.3,12.8,3.6,19.3c0.6,8.4-0.3,16.9-2.2,25.2c-3.9,0-7.8-0.1-11.7-0.2
		C449.4,355.8,449.6,346.5,449,337.2z M441.3,352.5c-9.1,1.5-14-8.5-9.4-13.9c1.7-2.6,5.6-3.1,8.7-3.9
		C441.3,340.7,441.8,346.6,441.3,352.5z M362,258.9c0.4-2.4,1-5.7,4.2-6.7c4.8-0.6,9.7-0.3,14.5-0.4c12,0.6,23.9-0.5,35.9-0.2
		c-1.6,6.2-2.6,12.6-1.8,19c1.1,9.4,1.8,18.7,2.4,28.1c0.2,2.9,0.4,5.8,0.5,8.7c-19.4,0-39-0.7-58.1-4.2c0.1-1.5,0.2-3,0.2-4.4
		C359.3,285.5,360.4,272.2,362,258.9z M387.8,246.2c-21-0.4-41.9-0.9-62.9-1.6c-10.2-0.7-20.7-0.7-30.4-3.7c-3-0.8-1.5-3.8-1.8-5.7
		c0.8-9.2,1.8-18.6,6.1-27.3c0.5-3,1.4-7.2,5.4-8.2c18.6,1.2,37.3,1.9,55.9,2.6c5.5,0,10.9-1.2,16.4-1.1c14.3,2.5,29,0.9,43.4,0.5
		c2.3,0,4.6,0.3,6.8,0.8c2,8.9,3.2,17.9,3.3,27c-3.1,2.5-5.4,5.4-8,8.2c-0.1,0.7-0.4,1.4-0.9,2c-1,1.9-1.8,3.8-2.5,5.8
		C408.5,246,398.1,246.3,387.8,246.2z M548.2,191.8c-1.8-0.6-3.5-1.4-5.5-1.2c-10.6,0.7-21.2,3.1-31.9,2.6c-3.6-0.1-4.2-3.3-5.4-5.4
		c-3.7-7.9-7.8-15.7-11.7-23.6c-2-2.3-3.3-4.9-5.2-7.3c-1.2-1.5-2.3-3-3.4-4.5c8.9-1,17.7-2.3,26.5-3.5c2.5,0.7,4.7,2.2,6.5,3.7
		c12,10.7,23.6,21.9,32.7,34.4C552.3,189,549.4,190.5,548.2,191.8z M359.1,159c3.8,0,7.7,0,11.5,0.2c-1.6,11.8-0.3,23.7,0.1,35.6
		c-5.6,3-12.4,3.1-18.8,2.7c-25.8-1.2-51.8-2.2-77.4-5.2c-5.9-0.9-12.4-1.6-17-5c0.9-1.7,1.8-3.4,2.7-5.1l0.2,0
		c6.2-11.1,14-21.6,23.1-31.2c12.1,1.7,24.1,4.1,36.5,3.9C332.7,157.7,345.9,159,359.1,159z M258.9,171.3c-3.6,4.7-6.3,9.7-8.6,14.9
		c-2.7,2.2-7,1.6-10.4,1.1c-14-2.4-27.7-6.5-39.9-12.7c0.8-1.3,1.4-2.7,2.4-3.9c4.3-6.6,11.9-11,18.6-15.9
		c7.7-5.1,15.3-10.4,24.5-13.7c8.1,3.8,17.2,6.1,26.2,8.1c1.2,0.3,2.5,0.6,3.8,0.9C269.7,157.1,264.5,164.3,258.9,171.3z
		 M217.7,186.1c24.2,5.9,48.9,10.6,74.1,12.6c2,0.3,2.7,2,3.9,3.1c-4.6,9.7-6.3,20.1-8.1,30.3c-0.7,3,3.1,7.5-1.2,9.3
		c-13.6,1.9-27.3-0.9-40.8-2.5c-16.5-1.5-32.9-4.4-48.4-9.2c-2.3-0.5-2.1-2.7-2.7-4.2c0-6.4,2.6-12.6,5.8-18.4
		c3.5-6.3,7.8-12.3,12.8-17.9C214.2,187.8,216.1,187.1,217.7,186.1z M418.9,359.8c-7.7-5.5-9.5-15.4-4.4-22.6
		c4.8-7.2,13.7-13.1,23.9-14c0.4,1.7,0.8,3.3,1.3,5c0.1,0.5,0.2,1.4,0.2,1.9c-4.4,1.6-9.5,2.6-12.7,5.7c-4.2,4.4-5.2,11-1.3,15.7
		c3.4,3.7,8.8,6.3,14.6,6.4c-0.2,1.2-0.4,2.5-0.6,3.7c-0.3,1.1-0.6,2.1-0.9,3.2C432,364.4,424.5,363.6,418.9,359.8z M514.9,365.7
		c8-3.8,13.5-10.4,15.6-17.6c1.4-8.8-1.8-18.4-10-24.6c-1.6-1.3-3.8-2.1-5.2-3.6c0-3.7,0.2-7.4,0.4-11.1c15.5-1.1,30.8-3.6,46.3-4.8
		c2.6,7.3,4.1,14.9,4.9,22.5c0.7,12.5,2.7,25,1.1,37.5c0,1.8-2.2,2.7-4.2,2.8c-16.4,1.4-33,1.5-49.4,2.9
		C514.7,368.4,514.8,367,514.9,365.7z M551.1,300.2c-11.7,1.2-23.4,2.6-35.2,2.8c-0.2-2.6-0.4-5.2-0.4-7.9
		c-0.3-12.9-0.8-25.8-2.7-38.7c0.7-0.5,1.3-1,2-1.5c0,1.6-0.1,3.3-0.1,4.9c0.6,0.4,1.2,0.8,1.9,1.3c1.1-2,0.8-4.2,0.2-6.3
		c-1.5-0.2-3.1,0.2-4.6,0.2c-0.4-1.5-0.8-2.9-1.2-4.4c22.8-2.9,45.8-4.1,68.5-7.3c6.8-1,13.5-2.1,20.1-3.9c2.2,1,5.7,1.2,6.4,3.5
		c6.4,15,12,31,9.6,47.1C594.5,294.7,572.9,297.9,551.1,300.2z M644,252.3c2.3,7.1,5.1,14.2,5.8,21.6c0.4,2.4,0.6,4.9-0.3,7.2
		c-1.8,1.8-4.8,2.3-7.1,3.4c-0.2-0.3-0.6-0.9-0.8-1.1c-0.1,1.7-2.5,1.8-4.1,2.4c-4.2,1-8.4,1.9-12.7,2.3c-0.5-2.2-1-4.3-1.6-6.5
		c-3.6-14.7-5.7-29.9-12.8-43.9c6.4-1.6,12.7-3.5,19-5.4c1.7-0.4,3.4-1.2,5.2-1C638.6,238,641.2,245.2,644,252.3z M549.7,130
		c0.7,0.4,1.3,0.8,2,1.2l-2.3,0.1c-0.1,0.6-0.3,1.7-0.3,2.3c2.5-0.6,5.1-1.3,7.6-1.8c-1-1.9-3.2-1.5-5.3-1c0.2-0.4,0.6-1.1,0.8-1.4
		c11.6-1.5,23.4-0.5,35,0.6c13.6,1.5,27.9,5.1,37.3,13.6c13,12.1,18.8,29.1,15.2,44.8c-3.8,10.3-11.1,19.5-19.8,27.6
		c-0.9,1.1-2.6,1.3-4,1.7c-10.1,2.1-19.5,6.8-30.3,6.4c8.2-6.5,15.9-13.4,22.2-21.2c3.7-4.8,8.5-9.3,9.5-15.1l0.2,0.2
		c2.8-10.7,2.7-22.1-2.1-32.4c-4.2-9.2-11.5-17.9-22.3-22.7c-0.5-0.1-1.6-0.2-2.1-0.3c10.7,10.5,18.5,23.7,18.1,37.6
		c-0.7,6.1,0.2,12.4-2,18.4c-0.9,2.7-2.9,5-4.4,7.6c-3.7,6.4-9.8,11.6-15.6,16.9c-1.6,1.5-3.6,2.7-5.7,3.7
		c-14.6-27.3-39-49.9-63.6-71.5C527,138.5,537.6,132.8,549.7,130z M530.5,125.5c-0.9,0.1-2.6,0.3-3.5,0.3c0.8,1.5,2.5,2.2,4.5,2.5
		c-0.3-0.8-0.8-2.3-1.1-3.1c1.4,0.8,2.9,1.7,4.4,2.5c-2.1,0.9-4.1,2.1-6.5,2.5c-1.3-0.6-2.4-1.4-3.6-2.2c0.3-0.4,1-1.2,1.3-1.6
		c-2.9-2.1-5.3-5.3-9.5-5.4c1.2,1.7,2.8,3,4.4,4.4c-4.2-2.1-8-4.7-12-7c-1.5-0.8-2.9-1.8-3.7-3.1
		C514.6,116.7,522.5,121.5,530.5,125.5z M502.5,120.2c7.3,4.1,15.2,7.4,21.8,12.3c-3.9,2.9-8.6,5.3-11.8,8.8c-1.2,1-2,2.6-4,2.7
		c-19.9,3.5-40.3,5.9-60.7,6c-2.7-0.3-6.2,0.2-8.3-1.4c-3-5.7-3.8-12.2-1.7-18.2c6-1.5,12.2-1.9,18.2-2.9c10.6-1.8,21.5-2.2,32-4.7
		c3.4-1.1,6.8-2.4,10.1-3.6C499.7,118.6,501.3,119.5,502.5,120.2z M460,105.1c11.7,1.6,22.8,5.1,33.5,9.1c-8.4,4.4-19.3,7.8-29.3,5
		c-6-2.4-11.6-5.6-16.1-9.7C451.8,107.6,455.3,104.5,460,105.1z M460.2,122.6c-15.5,3-31.5,4.5-47.5,4.7c-5.2,0.1-10.4-0.6-15.5-1.4
		c-2-0.3-3.7-1.2-5.2-2.3l-0.4,0c0.2-3.8,2.4-7.9,6.8-9.8c9.9-0.7,20,0.2,29.9-1.3c2.7-0.4,5.5-0.8,8.3-0.8
		C444.8,114.7,453.2,117.8,460.2,122.6z M389.9,101.5c6.2-0.7,12.5-0.8,18.7-1c12.2-0.1,24.7-0.1,36.5,2.6c-1.6,1.7-4.4,1.5-6.7,1.7
		c-2.7-0.1-4.5,2.1-7.1,2.2c-14.3,2-28.9,2.7-43.3,1.6c-8.5,1.3-17.1-0.6-25.1-2.8C371.1,102,380.8,102.4,389.9,101.5z M358,109.1
		c8.1,2.2,16.5,3.2,24.9,4.1c2,0.2,4,0.5,6,0.8c-1.3,3.8-1.9,9-7.2,10.5c-14.8,2.3-29.8-0.2-44.2-2.7c-1.8-0.4-3.8-0.5-5.3-1.4
		c0.1-2,3.1-2.1,4.7-3C343.8,114.6,350.6,111.3,358,109.1z M339.9,108.4c4.4-0.7,8.6-1.9,13.1-2c-8.2,3.7-16.5,7.2-25,10.6
		c-4.5,0.8-9.2,0.1-13.6-0.5C321.9,112,331.1,110.3,339.9,108.4z M299.8,120.1c0.8,0.3,1.6,0.6,2.4,1l-2.4,0.7
		c1.3,1.1,2.7,2.6,3.5,0.4c-0.7-0.8-1.3-1.5-1.9-2.3c6.3-1,11.3,2.7,17.3,2.9c3.9-0.1,7.3,1.6,11.2,1.9c2.4,0.6,4.7,1.8,5,4.1
		c-4.9,6.1-9.8,12.3-13,19.1c-3.1,1.5-6.5,3.6-10.4,2.6c-19-3.4-39.7-3.1-56.9-11.3c1.4-1.1,2.8-2.2,4.5-2.9
		c7.7-4.9,16.7-8.1,25.3-11.8C289.4,122.6,294.4,120.9,299.8,120.1z M257,101.5c9,1.4,17.1,4.9,25.3,7.8c0.2,0.4,0.6,1.2,0.9,1.7
		c-2.1-0.8-3.8-0.7-5.2,0.5c-3.8-1.8-7.6-3.5-11.8-4.7c-0.3,0.5-0.8,1.4-1,1.9c3.8,1.4,7.8,2.6,11.3,4.4c1.7,0.9,2.7,2.4,4.6,3.1
		c0.6-1.1,0.7-2.3,0.3-3.5c1.3,0.6,2.7,1.2,4.1,1.8c-0.2-0.6-0.7-1.9-1-2.5c0.5-0.4,0.9-0.7,1.4-1c2.1,1.2,4.3,2.2,6.4,3.3
		c-6.8,1.7-13.2,4.2-19.6,6.8c-5.4-3.3-10.1-7.6-16.3-9.9c0.5-0.5,1.1-1,1.7-1.4c2,0.7,4.1,1.4,6.3,1.5c-1-2.1-3.5-3.3-6.2-3.3
		c-0.2-0.3-0.5-0.8-0.7-1.1c3.4-1.4-0.5-2.9-2.2-3.2c-0.1,0.5-0.3,1.6-0.4,2.1c3.8-0.5,1.9,3.5-0.1,4.3c-8.8-4.8-19.5-6.8-30-6.6
		C235,100.8,246.3,99.3,257,101.5z M187.4,134.2c1.4-5.9,4.7-11.6,9.9-16c6.9-7,16.6-12,27.2-14.7c0,0.4,0,1.3,0,1.8
		c4.1,0.5,8.2,1,12.1,2.1c7.4,2.9,13.8,7.2,19.8,11.6c2.6,1.9,4.5,4.2,6.5,6.5c-4.4,2.7-8.9,5.3-13.4,7.9c-2.6,1.6-6.2,0.8-9,1.9
		c-7.1,3-13.8,6.5-19.8,10.8c-10.4,6.8-20.1,14.2-28.5,22.7C188,157.7,184.7,145.8,187.4,134.2z M169.7,204.3
		c6.1-7.2,11.6-14.8,19.1-21.2c1.9-1.5,3.8-3.1,6.1-4.1c5.1,1.6,10,3.6,15.1,5.1c-10.3,11.9-16.9,25.5-21,39.6
		c-0.4,1.3-0.8,4-3.3,2.8c-7.6-2.6-15.4-4.9-22.9-7.7C163.3,213.5,166.2,208.7,169.7,204.3z M151.8,228.1c1.1-2.3,3.3-4.2,5.7-5.6
		c16.9,7.1,35.2,11.6,53.4,15.9c1.6,0.4,3.1,1.1,4.5,1.8c2.1,1.9,3.8,4.5,2.1,7c-5.1,10-7.6,20.9-7.4,31.7
		c-0.3,3.7-1.1,8.2-5.4,10.3c-4.2,1.3-8.7-0.4-12.9-0.7c-12.2-2.8-24.6-5.3-36.7-8.5c-5.6-1.4-10.9-3.5-15.4-6.5
		c-2.3-1.2-1.6-3.7-1.8-5.6C138.1,253.9,145.2,240.8,151.8,228.1z M135,288.1c0.4-3.1,1.2-6,2.4-9c4.7,2,9.6,4,14.4,5.9
		c-0.8,1.8-1.8,3.6-2.6,5.4l-0.1-0.1c-1.4,4.4-2.3,9-2.8,13.5c-0.4,6.2-0.5,12.4-1.3,18.5c0.1,6.8,1,13.6,1.3,20.4
		c-4.7-0.5-9-2.7-12.1-5.4C130.7,321.1,132.4,304.4,135,288.1z M157.5,355.7c-0.3,3.9-2.2,7.7-1.7,11.7c0.9,8.3,1.1,16.7,0.9,25
		c-0.2,7.5,0.3,15-0.1,22.5c0.1,0.6,0.2,1.7,0.2,2.3c-6.2-1.8-12.3-4.4-16.9-8.3c-3.1-0.9-5.5-3.1-8.9-3.6
		c-2.8-11.1-3.4-22.5-3.2-33.8c0-9.5-0.5-19.1,2.6-28.4c4.3,1.2,8.2,3.3,12.5,4.6c2.7,0.9,5.7,0.4,8.5,0.7
		C154.8,349.7,157.7,352.6,157.5,355.7z M155.2,344.3c-3.4-0.6-2.6-4-3.4-6c-2.7-14.8-1.5-30.1,2.6-44.6c1.1-2.6,1.9-6.1,5.5-7.1
		c33.6,6.5,67.3,12.8,101.2,18.5c4.9,0.7,9.7,1.9,14.7,2c2.7,0.1,6.7,0.8,6.6,3.7c-0.1,6.5-0.5,12.9-0.6,19.4
		c-2.7,0.4-5.5,0.4-8.2,0.5c-2.1,0.2-4.3,0.3-6.4,0.6c-0.6-0.4-1.1-0.9-1.7-1.3l2.3-0.5c-0.8-1-2-1.5-3.2-1.9
		c0.3,1.4,0.7,2.8,1.1,4.1c-5.1,0-9.5,2.4-14.1,3.8c-8.6,2.7-17.1,5.8-25.1,9.5c0-1.4,1.3-3.4-0.6-4.3c-1.9-0.1-1.3,2.1-2.1,2.9
		l1.6,0.1c-0.1,0.7-0.2,1.5-0.3,2.2c-2.3,0.6-4.3,1.7-6.3,2.8c0-0.5,0-1.5,0-2c-0.5-0.1-1.4-0.4-1.8-0.5c-0.1,0.2-0.4,0.7-0.5,1
		c0.5,0.6,0.9,1.2,1.1,1.9c-1.6,1.5-4.1,2.2-6,3.5c0-1.1,0-2.8-1.9-2.8c-1.5,1.2,1.3,2.5,1.8,3.6C192.1,353,173.3,349.2,155.2,344.3
		z M167.1,421.4c-2.3-1.3-4.4-3.5-4-5.9c-1-12.7,0.2-25.4-0.7-38.1c-0.4-4.8,0-9.6,0.7-14.3c0.4-3.4,4.3-5.6,7.9-6.8
		c8.4-2.5,17.1,0,25.6,0.7c2.4,0.2,4.9,0.4,7.3,0.6c-5.7,3.6-8.6,9-10.5,14.5c-7.2,2-10.3,8-14,12.9c-5,8.7-9.2,17.9-10.4,27.4
		C168.7,415.4,171.6,419.8,167.1,421.4z M209.3,465c-3.8-1.5-7.9-2.3-11.7-3.8c-3.5-1.3-6.7,1.1-9.7,2.2c-4.9-0.7-9.9-1.4-14.6-2.7
		c-2.6-0.5-3.5-3.2-3-5.1c-1.3-8.8-0.8-17.8,0.4-26.7c0.3-1.3,0.2-3.5,2.5-3.5c4.4-0.6,8.9,0,13.3,0.1c5.2,0,9.9,1.9,14.9,2.8
		c3.2,0.6,6.5,1,9.8,1.2C209.6,441.3,207.4,453.2,209.3,465z M267.3,446.5c-2.2,0.2-4.2,1.1-6,2.1c-8.9,4.6-19.9,6-28,11.7
		c-5,3.8-11.8,5.9-18.3,7.1c-0.7-11-1.5-22.1-0.5-33.2c0.2-1.8,0.6-3.7,1.2-5.4c8-1.7,15.5-4.5,23.6-5.9c6.6-1.9,13.4-3.1,19.8-5.2
		c4.6-1.4,9.3-2.8,14.1-3.6c0.2,6.7,0.1,13.4,1.4,20.1c0.4,3,1.6,5.9,1.9,9C273.6,444.6,270.7,446.2,267.3,446.5z M278.2,408.6
		c-1.6-3.5-5.1-6.5-5.7-10.3c-0.3-1.7,1.6-2.7,2.7-3.9c5.5-5.6,12.5-9.9,18.8-14.8c12.8,7.2,19.2,19.3,24.3,30.8
		c2.5,5.2,4.6,10.7,5.6,16.3c0.1,1.9,0.3,3.9,0.4,5.8c-7.7-0.4-15.5-0.1-23.3-0.2c-5.9-0.1-11.6-1.5-17.3-2.4
		C281.7,422.8,281.2,415.4,278.2,408.6z M333,478c-0.4,2-1.2,3.9-1.7,5.9c-4.2,0-8.3,1.1-12.5,1.5c-2.7-1-5.5-0.7-8.3-0.7
		c-7.6-0.9-14.8-3.1-22.5-3.6c-1.6-1.5-4.2-2.8-4.2-5c-0.8-2.5-0.1-5,0-7.5c-0.7-8.9-1.3-17.9,0.4-26.8c0.2-2.1,1.9-3.7,3.3-5.3
		c0.9,0.1,2.5,0.3,3.4,0.3c11.4-0.1,22.8-0.2,34.2,1c3.2,0.2,5.7,2.3,6.3,4.8c2,7.1,2,14.5,2.5,21.7
		C334.2,468.7,333.8,473.4,333,478z M332.7,430.7c-2.8-16.9-13.1-32.3-24.5-46.3c-2.6-3.1-7.2-5.1-8-9c14.2-4.1,26.9-11,41.4-14.5
		c6.1-0.6,11.4,2.8,15.1,6.5c9.8,9.8,18.4,20.8,21.5,33.4c0.3,2.6,0.9,6.3-2.6,7.6c-7.7,2.7-13.8,7.5-21.4,10.3
		C347.2,422.8,340.6,427.6,332.7,430.7z M387.1,433.2c-0.5,6.3,0.4,12.8-2.1,18.8c-3.7,2.8-6.3,6.6-10.8,8.6
		c-3.1,2.1-7.4,2.1-10.6,4c-1.8,1.7-2.7,3.9-4.3,5.7c-5.3-1.2-8.9,2.5-11.8,5.4c-2.9,2.6-3.4,6.2-4.3,9.4c-1.1,0.2-2.2,0.4-3.3,0.6
		c-0.3-10.8-0.3-21.6-1.3-32.3c-0.5-5.3-2.1-10.7-0.7-16c1.3-3.4,4.8-5.7,8.2-7.7c10.5-6.2,20.5-13.3,32.6-17.5
		c3.6,0.9,5.1,4.2,5.8,6.9C385.3,423.9,387.7,428.4,387.1,433.2z M404,453.6c0.5-5.1,0.4-10.2,0.2-15.4l0.4-0.2
		c-1.8-7.3-1.8-15.1-5.7-22l-1.8-0.8c0.8,5.2,2.7,10.3,3.3,15.6c1.5,7.3,1,14.8,0.2,22.2c-1.5-0.4-3-0.7-4.4-1.2
		c1.2-5.7,0.9-11.5,0.4-17.3c-1-7.5,0-15.5-4.3-22.5c-1.5-2.7-4.5-4.9-4.6-8c-1.5-9.3-5.9-18-11.5-26.2c14.8,0.6,29.7,0.9,44.6,0.8
		c0.8,11.2,0.5,22.5,1.9,33.7c-6.7,5.2-13.4,10.9-15.3,18.5c-1,2.1-0.2,5-1.8,6.8c0.5,3.4,1,6.8,1.6,10.2c0.7,0,2.2,0,2.9,0
		c1.3,2.1,4.1,3.8,4.5,6.2C411.1,454.4,407.5,454,404,453.6z M420.7,447.4c-4.6-5.3-5.2-12.4-2.7-18.4c1.3-4.3,5.9-7.2,10.2-9.6
		c2-0.8,4.2-2.4,6.5-1.7c0.6,1.5,1.1,3,1.7,4.5c-3.3,2.9-8.7,4.1-10.9,7.9c-4.1,7.7,3.8,17,13.7,18.3c-0.1,1.5-0.2,3-0.4,4.5
		c-0.1,0.5-0.4,1.5-0.6,2c-2.3-0.8-4.6-1.4-7-1.9C427.8,451,423.4,450.2,420.7,447.4z M501.9,490.6c-3-0.2-6.4-0.7-9.1,0.9
		c-1.5,0.5-3.2,2.2-4.9,1.1c-8-4-17.9-3.7-26.8-2.5c-1.6,0.5-3-0.3-4.4-0.9c-5.8-2.9-13.3-2.7-19.5-0.9c-2.5,0.7-5.2,0.7-7.9,0.8
		c1.6-9.7,0.8-19.5,1.4-29.2c18.7,3.8,38.3,3.6,57.2,1.5c6.3-0.6,12.5-1.8,18.6-3.2c1.5,10.7,1.6,21.6,3.6,32.3
		C507.6,491.3,504.7,491.1,501.9,490.6z M516.5,437.6c-0.5,3.5-2.4,6.8-5,9.6l0,0.2c-3.7,3.3-8.3,6.1-13.9,6.7
		c1.9-8,1.8-16.1,0.9-24.1c-0.7-5.6-1-11.2-2.5-16.7c5.2,1.4,10.4,3.6,13.5,7.4C514.1,425.3,517.6,431.4,516.5,437.6z M532.6,419.3
		c-1.1,2.3-1.3,4.9-1.9,7.3c-0.8,4.3-1.5,8.7-2,13c-0.8,0.2-2.5,0.7-3.3,0.9c0.4-2.2,1.1-4.3,1.3-6.5c-0.7-2.5-1.8-4.8-2.5-7.3
		c-2.4-3.9-3.1-8.2-2.2-12.5c-0.2-2.4,1.3-5.3-0.2-7.4c-3.1-0.9-1.4,3-2.1,4.4c0.4,2.3-0.3,4.7-0.3,7c-1-0.8-2-1.7-2.9-2.5
		c0.1-1.5,0.2-3.1,0.4-4.6c-0.4,0-1.1,0-1.5,0c-0.3-9.6-1.8-19.2,0.2-28.7c-0.5-3.1,2.7-5.2,5.3-6.9c2.2-1.1,4.9-0.7,7.4-0.9
		c11.2-0.4,22.3-0.6,33.5-1.2c6.7-1.2,13.5-2.4,20.3-3c8.6-0.8,16.9-4.5,25.7-3.1c2.2,0.4,5.8,0.9,5.4,3.4
		c-0.8,11.9-1.4,23.8-2.2,35.7c-7.8,1.2-15.6,2-23.4,3c0-1.1,0.1-2.2,0.3-3.3c-0.5-5.6-0.2-11.3-0.2-16.9l-1.5-0.7
		c-0.8,6.6-0.1,13.2-0.5,19.8c0,0.8-0.3,1.5-1,2.1c-0.8-4.1,0.1-8.2-0.5-12.2c0-1.1-0.8-2-1.7-2.7c-0.4,2.6-0.2,5.2-0.4,7.8
		c0,2.4,0,4.8-0.1,7.2c-0.7,0.1-2.1,0.2-2.8,0.3c0-0.8,0-1.7,0.1-2.5l-0.6-1.6c-0.3-0.1-0.8-0.2-1.1-0.2c-0.4,1.7-0.6,3.4-0.8,5.1
		c-0.2-0.3-0.5-0.8-0.7-1.1c0-1.5,0-3.3-2-4c-0.3,1.6-0.5,3.3-0.6,4.9c-1.3,0.3-2.6,0.6-3.9,0.9c-0.5-1.7-0.3-3.7-2-5
		c-0.1,1.2-0.2,2.4-0.3,3.6l0.4,1l-0.5,0.7c-7.7,1.8-16,1.4-23.5,3.8C539.8,417.5,535.4,416.9,532.6,419.3z M591.4,479.9
		c-8.2-1.5-14.7-5.9-22-8.9c-5.2-2.2-11.1-2.8-16.5-4.6c-3.8,0.6-8.2,2.9-11.9,0.8c-3-1.7-1-5-0.6-7.4c3.9-10.8,2.3-22.1,4.1-33.1
		c12.7,2,25.2,4.6,37.9,6.3c0.3,0.3,0.8,1,1.1,1.3c-1.2,1.7-2,4.2,0.1,5.7c0.5-1.6,0.9-3.2,1.3-4.8l-1.6-0.2c0.6-0.5,1.1-1,1.7-1.4
		c4.3,0.9,8.6,1.5,12.9,2.4C595.8,450.7,593,465.2,591.4,479.9z M592.2,430.9c-13.5-2.6-27.1-4.7-40.6-7.3
		c20.2-3.1,40.4-5.7,60.7-8.1c7-0.6,14-1.7,21-1.8c6.7,1,13.3,2.6,19.8,4.5c5.3,0.8,10.3,2.4,15.3,4.1c-7.1,1.4-14.4,2-21.6,3.2
		c-0.5-0.5-1-1-1.5-1.4l1.9-0.8c-1.5-0.3-4.3-2.4-4.4-0.1l0.6,0.9l1.8-0.1c0,0.6,0,1.2,0,1.9c-6.5,0.4-12.8,1.7-19.2,2.6
		c-3,0.6-4.4-2-6.4-3.2c-0.6,0.6-1.1,1.2-1.3,1.9c1.2,0.7,2.8,0.8,3.7,1.8c-6.1,1.8-12.7,1.8-19,3
		C599.3,432.8,595.7,431.6,592.2,430.9z M681.9,466.4c-5.3,0.2-8.7,3.7-13.2,5.4c-5.9,0-11.7,1.3-17.6,1.5
		c-5.1,0.2-9.2-3.5-14.4-2.9c-8.4,0.7-14.2,7.1-22.8,7.3c-5.2,0-10.1,1.2-15,2.3c0-14.6,3.7-29,5.6-43.5c24.4-3.8,49-6.8,73.5-10.5
		c1.4-0.2,3.9-0.5,4.3,1.1C683.9,440.1,682.3,453.3,681.9,466.4z"/>
</g>
</svg>
