<?xml version="1.0" encoding="utf-8"?>
<!-- Generator: Adobe Illustrator 25.3.1, SVG Export Plug-In . SVG Version: 6.00 Build 0)  -->
<svg version="1.1" id="Capa_1" xmlns="http://www.w3.org/2000/svg" xmlns:xlink="http://www.w3.org/1999/xlink" x="0px" y="0px"
	 width="1920px" height="1080px" viewBox="0 0 1920 1080" style="enable-background:new 0 0 1920 1080;" xml:space="preserve">
<style type="text/css">
	.st0{fill:#020202;}
</style>
<path d="M1176.8,821c-1.3,3.9-2.5,8.1-3.8,12.5c0.4-0.8,1-1.5,1.4-2.4C1175.3,827.8,1176,824.4,1176.8,821z"/>
<path class="st0" d="M674,2049.5c-0.1,0.9-0.1,1.8-0.2,2.7c3.6-2.2,6.1-5.8,6.6-10C677,2042.9,675.1,2046.2,674,2049.5L674,2049.5z"
	/>
<path d="M953.4,408.8c0.1,0,0.1,0,0.2-0.1C953.6,408.7,953.5,408.8,953.4,408.8z"/>
<path d="M847.5,948.6L847.5,948.6c0.7,3.4,4,3.8,6.8,4.1l0.5,0.1l-0.4-5.4C852.2,947.7,849.9,948,847.5,948.6z"/>
<path d="M1447.1,583L1447.1,583c7.3,5.2,8.5,15.1,8.8,24v0.4h0.4c0.9,0,1.9,0,2.8-0.1h0.4v-0.4c1-10.7-2.2-20.3-8.9-26.2
	c-1.1-1.2-2.7-1.3-4.1-1.4c-0.5,0-0.9-0.1-1.4-0.1l-0.8-0.1l0.4,0.8C1445.4,581.2,1446,582.3,1447.1,583z"/>
<path d="M1894.6,975.4L1894.6,975.4c-28.8-0.3-57.8-0.2-85.2-5.3c-24.7-4.6-47.4-11.9-73.1-15.1c-52.3-6.5-95.1,10.6-138.6,22.5
	c-13.9,3.8-28.3,7.6-44.5,6.1c-12.9-1.2-25-3.5-38.1-3.9c-13-7.3-38.1-13.2-62.6-17.9c-6-1.1-11.8,1.5-5.8,2.6
	c23,4.4,46.3,10,58.5,16.8c1.2,0.7,3.3,0.9,5.4,0.8c0.6,1.3,1.1,2.6,1.7,4c12.4,0,23.5,2.1,35.4,3.4c13.2,1.4,25.5,0.7,38-2
	c43.9-9.3,84-30.1,134.9-27.5c25.5,1.3,48.4,8.3,71.5,13.4c25.5,5.6,51.4,7.8,79,8.2c17.4,0.2,34.5,0.3,51.6,1
	c0.3-2.1,0.6-4.2,0.8-6.2C1914,975.8,1904.3,975.5,1894.6,975.4z"/>
<path d="M893.1,946.8c-0.2,3.2,0,6.7,1.1,10.1C900,954.8,897.8,948.8,893.1,946.8z"/>
<path d="M879.4,901.7c0,1.6,0.2,4.5,0.3,6.4c-3.3-1-6.5-2.3-9.8-3.2c2.1,3.1,4.7,6.3,6.9,8.7l0.4,0.3c1.9-1.6,3.5-3.4,5.3-5
	c0-2.5-0.2-5-0.2-7.5C881.4,901.6,880.3,901.6,879.4,901.7z"/>
<path d="M902.7,946.6c-1,3-2,6.2-1.1,9.5C907.3,955.1,906.9,949.3,902.7,946.6z"/>
<path d="M942.6,964.4L942.6,964.4L942.6,964.4z"/>
<g>
	<path d="M1428.4,577.4L1428.4,577.4v0.3l0.3,0.1c2.1,0.4,6,1.8,7.7,5.5c5.4,11.1,3.6,24,0.7,36.2l-0.1,0.5h3.1l0.1-0.3
		c0.3-0.8,0.5-1.6,0.8-2.4c1.6-4.9,3.3-10,2.9-15.2c-0.2-7.2-1-16.4-6.1-23.2c-1.7-2.5-4.7-3.7-9.3-3.8h-0.5l0.1,0.5
		C1428.3,576,1428.4,576.9,1428.4,577.4z"/>
	<path d="M1546.9,836.7L1546.9,836.7L1546.9,836.7z"/>
	<path d="M1555.2,762c0.6-0.7,1.3-1.4,1.9-2v-0.3c0.1-0.3,0.1-0.6,0.2-0.8C1556.6,759.9,1555.9,760.9,1555.2,762z"/>
	<path d="M1547.3,837.3c-0.1-0.2-0.3-0.4-0.4-0.6c0.6,1.3,1.3,2.7,2,4c-0.1-0.6-0.2-1.2-0.4-1.8
		C1548.1,838.4,1547.7,837.8,1547.3,837.3z"/>
	<path d="M771.8,849L771.8,849c-6-2.4-3.8,7.5,0.2,7.3c1.3,0,2.3-1,2.4-2.2C774.7,852.3,773.3,849.8,771.8,849z"/>
	<path d="M870.6,733.7L870.6,733.7c2.4,1.5,4.8,2.6,7.2,4.1c-2-4.1-4.4-7.9-5.6-12l-0.5-1.6c-2,7.2-9.6,12.5-18.4,12
		c-5.3-2.6-7.2-7.9-7.8-11.2c6.1-0.5,12.7-0.9,17.3-5.3c0.3-7.5-10.1-6-15.4-5.1c1.8-1.9,3.8-3.2,6.2-4.1c-1-0.7-2.3-1.6-3.6-2.3
		c1.6-2.1,5.2-2.6,7.2-4.3l1.3-0.9c-3.9,0.3-7.8,0.5-11.4,1v7.5l-1.5-0.7c-1.3,8.7-4.2,18.5,0.7,26.4
		C854.2,742,865.5,737.4,870.6,733.7z"/>
	<path d="M819.8,894.7c3,0,4.3-5,1.9-6.6C817.2,885.3,815,894.5,819.8,894.7z"/>
	<path d="M789.2,850.9L789.2,850.9c-6.2-2.4-3.9,7.5,0.2,7.3c1.3,0,2.3-1,2.4-2.2C792.1,854.3,790.7,851.8,789.2,850.9z"/>
	<path d="M827.3,723.8L827.3,723.8c7.9-3.5,8.3-11.5,8.3-17c-0.5,1-1.2,2.3-1.8,3.2c-2,3.7-4,7.5-8.8,7.6c-0.8-4.3-1.6-8.5-2.4-12.6
		c-1.5,4.3-1.3,8.7-0.9,12.9C823.5,719.8,825.5,721.8,827.3,723.8z"/>
	<path d="M720.7,682.8c0.8-1.2,1.9-2.8,2.6-4c-2.6-0.7-5.3-1.5-8.1-2.2C714.1,680.6,717.8,681.7,720.7,682.8z"/>
	<path d="M924.4,710.7L924.4,710.7c4-1.9,8.8-3.5,10.7-7.9c-3.6,0.9-7.4,2-10.7,3.1V710.7z"/>
	<path d="M930.9,695.6l0.3-0.7c-4,0.6-7.6,3.1-9.8,6.7C926.1,701.8,930.1,699.5,930.9,695.6z"/>
	<path d="M921.9,716.9L921.9,716.9c4.9,0.7,9.7,0.7,13.8-3.4l0.6-0.6C931,711.6,925.4,712.9,921.9,716.9z"/>
	<path d="M897.5,720.2L897.5,720.2c2.6-0.9,4-4.1,5.3-6.6c1.8-2.8,1.5-6.3,0.9-9.6l-0.4-2.5l-0.7,1.2c-2.4,4.1-0.6,11.7-6.5,12.9
		c-5.2-1.9-2.7-9.2-4.5-13.5c-2.5,3-3.8,7.5-2.9,11.2C889.4,717,893.5,721.1,897.5,720.2z"/>
	<path d="M910.8,712.3c-2.7,3.7-5.2,7.5-7.8,11.2C907.9,722.8,915,717.2,910.8,712.3z"/>
	<path d="M1317.7,531.2L1317.7,531.2c-4.8,6.4-6.9,12.6-6.2,18.4l0.1,0.4h0.4c0.6,0,1.8,0.1,2.4,0.1h0.5v-0.5
		c-0.2-4.9,1.9-10.2,6-15.6l1.5-2.1c2.1-3,4.3-6,7.4-8.1c0.7-0.6,1.6-1.1,2.4-1.7c2-1.3,4.1-2.6,4.9-5.1l0.2-0.7l-0.7,0.2
		C1328.1,518.5,1322,525.4,1317.7,531.2z"/>
	<path d="M1306.2,532.9c0.5,0,1.6-0.1,2.2-0.1h0.3l0.1-0.3c1.5-5.6,5.4-10.1,9.3-14.5l1.1-1.3c1.1-1.4,2.6-2.4,4.1-3.5
		c2.3-1.6,4.7-3.3,5.7-6.2l0.3-0.8l-0.8,0.3c-8.8,2.8-14.8,10.6-19.7,16.8c-2,2.4-3,5.6-3,9.2v0.5L1306.2,532.9L1306.2,532.9z"/>
	<path d="M1341.4,587.7L1341.4,587.7l0.1,0.5h0.4c1.2-0.1,2.5-0.1,3.8-0.1h0.5v-0.4c0.1-1.1,0.3-2.3,0.5-3.4l0.1-0.5h-0.5
		c-1.6,0-3.4,0.1-5.2,0.8l-0.3,0.1l0.1,0.4C1341,585.8,1341.2,587,1341.4,587.7z"/>
	<path d="M1151.8,910.5c2-0.3,7.2-1.3,9.3-4.6c1-1.5,1.1-3.2,0.5-5.2l-0.2-0.5l-0.5,0.3c-0.7,0.5-1.4,1.1-2.1,1.7
		c-1.5,1.4-2.9,2.7-5,2.5c-7.9,0.6-15.6-1.2-23.1-3c-5.1-1.2-10.4-2.4-15.7-2.9h-0.4l-0.1,0.4c-0.2,0.7-0.3,1.5-0.4,2.3
		c-0.3,2-0.6,4.2-2.1,5.6c-2.5,2.5-6.1,2.7-9.7,2.9c-0.6,0-1.3,0.1-1.9,0.1c-1.4,0.1-3-0.3-4.5-0.7c-2.6-0.7-5.2-1.4-7.7,0.2
		l-0.2,0.1v0.3c0.1,0.8,0.3,1.6,0.5,2.4c0.5,1.9,0.9,3.6-0.3,5.2c-3.9,7.2-12.2,10.3-20.4,12.8c-1.6,0.6-3.4,0.9-5.2,1.2
		c-3.4,0.6-6.9,1.3-9.5,3.7l-0.6,0.6l0.9,0.1c3.1,0.5,6.2,0,9.2-0.5c1.7-0.3,3.5-0.6,5.3-0.7l0.3,1.5c1,5.7,2.2,12.3,6.9,16.4
		c1.4,1.4,3.2,1.6,5,1.6h3.1l0.1-0.2c0.2-0.3,0.5-0.6,0.7-0.9c1.7-2.1,3.4-4.2,3.7-7c0.6-5.3,0.4-10.7,0.2-16
		c-0.1-1.6-0.1-3.3-0.1-4.9c2.7-3,5.7-6.4,6.6-10.9h1.8c-0.4,8.8,1.6,17.7,5.9,25.9c1.9,3.4,6.1,6.1,10.3,4.4
		c4.3-2.6,7.3-7.7,8.2-14c0.3-2.1,0.6-4.3,0.9-6.4c0.8-5.8,1.7-11.9,1.5-17.9c2.1,0.1,4.2,0.3,6.3,0.4v4.9c-0.1,6.3-0.2,12.8,1.7,19
		c1.4,3.5,4.3,7.1,8.2,6.4h0.1c3.6-1.7,6.6-4.8,8.3-8.7C1150.3,922.2,1151.7,916.1,1151.8,910.5z M1082.6,948L1082.6,948
		c-0.2,1.2-1,2.1-2.2,2.3c-1.4,0.3-2.8-0.3-3.6-1.4c-3.3-4.2-4.2-9.6-4.7-15.3c2.7-1,5.3-2.1,7.9-3.2c1-0.4,2-0.8,3-1.3l0.1,0.6
		C1083.6,935.9,1084.1,942.1,1082.6,948z M1116.6,924.1L1116.6,924.1c-0.2,1.8-0.5,3.7-0.7,5.5c-0.3,3.5-1.3,8.3-4.6,11.5
		c-3.2,1.3-5-1.8-6.7-5.5l-0.1-0.3c-3.4-6.8-3.3-14.7-2.9-20.2c0.4,0,0.9-0.1,1.3-0.1c3.3-0.2,6.7-0.4,9.9-1.9
		c1.5-1,2.8-2.2,4.1-3.4c0.3-0.3,0.6-0.5,0.9-0.8C1117.9,914,1117.2,919.1,1116.6,924.1z M1142.9,928L1142.9,928
		c-0.7,2-2.3,3.3-4,4.6c-0.3,0.2-0.6,0.5-0.9,0.7c-1.8-1.3-2.9-3-3.3-4.9c-1.3-7.5-1.4-13.9-0.3-19.7c1.5,0.2,3.1,0.4,4.6,0.7
		c2.4,0.4,4.9,0.8,7.4,0.9C1146.5,915.6,1145.3,921.4,1142.9,928z"/>
	<path d="M1495.2,873.5L1495.2,873.5l-0.5,0.2c-2.2,0.7-3.7,2.3-5.1,3.8c-0.4,0.4-0.8,0.8-1.1,1.2c-6.2,5.5-15.9,13-27.3,13.8h-1.8
		c-1.9,0.1-3.9,0.2-5.1-1.2c-1.1-1.5-1.2-3.3-1.3-5.2c0-0.8-0.1-1.6-0.2-2.4l-0.1-0.3h-0.3c-3.5-0.4-6.3,1.5-9.1,3.2
		c-1.2,0.8-2.4,1.6-3.7,2.1c-0.7,0.3-1.4,0.7-2.1,1c-7,3.4-14.2,7-22.1,6.3c0.3-1.9,0.7-3.7,1-5.5c0.2-0.7,0.3-1.5,0.4-2.2l0.1-0.4
		l-0.4-0.1c-2.6-0.4-4.8,0.6-7,1.6c-1.2,0.5-2.5,1.1-3.7,1.4c-7,2.1-14.3,1.9-21.4,1.7c-4.2-0.1-8.6-0.2-12.9,0.1l-1,0.1l0.8,0.7
		c4.6,4,11,4.4,16.7,4.4c-0.2,1.3-0.4,2.7-0.6,4.1c-0.9,5.6-1.9,11.5,1,16.7c0.9,1.7,2.5,2.7,4.5,3c2.4,0.3,5.1-0.6,6.8-2.3
		c4.3-3.7,6.4-8.8,8.5-13.8c0.8-1.9,1.6-3.8,2.5-5.7c1.3,0.7,2.6,1.5,4.2,2.4c-2.7,7.1-2.6,16,3.6,20.2l0.1,0.1
		c0.9,0.3,1.9,0.4,2.8,0.4c4.1,0,7.8-2.4,10-4.8c4.8-5.7,7.7-12.7,10.4-19.4c0.8-1.8,1.5-3.7,2.3-5.5c0.5-1.5,2-2.1,3.5-2.5
		c-0.7,1.9-1.5,3.8-2.3,5.7c-2.9,6.9-5.9,14-4.3,21.7c0.7,1.9,2.3,3.3,4.3,3.7c2.2,0.4,4.4-0.3,5.8-1.9c4.9-4.8,8.5-10.6,12-16.3
		c1.3-2.3,2.5-4.4,3.9-6.4c0.9-0.4,1.9-0.8,2.9-1.2c6.6-2.7,13.4-5.4,18.3-10.9c0.7-0.9,1.6-1.7,2.5-2.6c2.5-2.3,5.1-4.7,4.6-8.5
		L1495.2,873.5z M1402.2,906c-0.7,1.6-1.4,3.2-2.1,4.9c-1.1,2-3.4,5.5-6.9,6.4c-2.2-1.1-2.3-4.1-2.3-6.6v-1
		c0.2-4.1,0.3-8.7,3.1-11.9c3.4-1,7.1-1.2,10.6-1.4c0.5,0,1.1,0,1.6-0.1C1405,899.6,1403.6,902.8,1402.2,906L1402.2,906z
		 M1430.2,910.4c-0.4,0.6-0.7,1.3-1.1,1.9c-1.7,2.6-4.3,6.6-8.2,6.1c-5.4-4.3-2.9-12.4-0.8-17.1c4.4-0.6,8.6-2.2,12.7-3.7
		c1.3-0.5,2.5-0.9,3.8-1.4C1435.5,901.4,1432.8,906,1430.2,910.4z M1455.9,905.2L1455.9,905.2c-0.9,1.3-1.8,2.7-2.7,4.1
		c-2.5,4-4.8,6.6-7.6,8.3c-1.8-6,0.5-11.9,2.9-17.7c0.6-1.5,1.2-3,1.7-4.4c3.3,1.9,7,2.4,10,2.7
		C1459,900.6,1457.5,902.9,1455.9,905.2z"/>
	<path d="M1268,450.2c0.6,0.6,1.1,1.3,1.6,1.9C1268.9,451.1,1268.3,450.3,1268,450.2z"/>
	<path d="M1183.5,585.8L1183.5,585.8c-1.6-0.8-3.2-1.6-4.7-2.6c0,0-0.1-0.1-0.2-0.1c-0.5,1.2-1,2.5-1.6,3.7c1.2,0.7,2.4,1.4,3.7,1.9
		c-3.3,9.7-8.4,18.7-15.5,26.7C1173.7,606.7,1179.8,596.7,1183.5,585.8z"/>
	<path d="M1179.6,569.2c0,0.2-0.1,0.4-0.2,0.5C1179.6,569.6,1179.6,569.4,1179.6,569.2z"/>
	<path d="M1194.3,417.3L1194.3,417.3c3.6-2.1,8.3-1.6,12.1-3.2c2.9-4.3,4.1-9.5,2.5-14.4c-2.8-0.8-5.9-2.8-8.8-1.1
		c-17.1,7.9-34.4,16-53.3,20.3c-6.3,2.4-23.2,1.4-14.1,14.8C1153.6,430.3,1175.5,426.9,1194.3,417.3z"/>
	<path d="M961.9,379c-0.2-0.8-0.4-1.5-0.6-2.3C961,377.7,960.8,378.6,961.9,379z"/>
	<path d="M1513.3,842.7c-2.8-11.2-6.6-19.5-12-25.9c-2.8-3.5-6.7-6-10.4-8.3c-0.9-0.5-1.7-1.1-2.6-1.6c-1.7-1-2.5-2.8-3.4-4.6
		c-0.7-1.4-1.3-2.9-2.4-4c-7.7-8.6-19.6-10.9-28.2-11.3c-20.7-0.8-38.6,2.6-53.2,10.1c-4.3,2.3-9.9,5.4-15,9.2
		c-6.6-7.9-16.5-12.5-27.3-12.9c4.6-7.7,10.1-16.5,17-24c1.5-1.9,3.9-2.4,6.3-2.9l1.2-0.3c2.5-0.5,5-0.9,7.5-1.4
		c13.7-2.6,27.8-5.3,42-5.5c3.9,0,7.8-0.2,11.6-0.4c6.6-0.3,13.4-0.6,20-0.1c2,0.2,4,0.2,6,0.3c3.3,0.1,6.7,0.2,9.9,0.9
		c3.4,0.7,6.9,1.2,10.3,1.6c3.4,0.5,6.9,0.9,10.4,1.6c1.4,0.2,2.3,1.3,3.3,2.3l1.3,1.3l0.3-0.5c1-1.6,1.9-3.1,2.8-4.5l0.1-0.2
		l-0.1-0.2c-7.7-15-20-27.5-30.9-38c-6.4-6.5-14.1-11-22.7-15.8c0.9-0.9,1.8-1.8,2.8-2.7c1.6,2,4.4,3,6.7,1.4
		c-4.1-0.8-7.9-2.2-11.4-4.1c-1.1,1.1-2.3,2.3-3.7,3.2c-1.5-0.4-3.1-0.9-4.6-1.4c-5-1.6-10.2-3.2-15.6-3.8c-7-1.2-14.1-1-21.1-0.8
		c-1.1,0-2.2,0.1-3.3,0.1c3.4-11,7.3-31.3-2.6-48.3c8.8-4.4,12-14.8,10.5-22.9c-1.5-8.1-4.1-13.6-8.1-17.5
		c-5.1-5.1-10.7-10.2-17.8-11.8c-5.1-1.2-10.7-2.3-16.5-2.5c-0.1-0.3-0.2-0.6-0.3-0.8c-0.5-1.3-0.9-2.7-1.8-4.1
		c-0.9-0.9-2-1.6-3-2.2c-1.2-0.7-2.3-1.5-3.2-2.4c-0.4-2,0.4-3.8,1.2-5.7c0.9-2,1.8-4.1,1.2-6.4c-0.2-3.7-3.7-5.4-6.6-6.8
		c-0.5-0.2-1-0.5-1.4-0.7c-0.2-1-0.3-2.1-0.5-3.2c-0.5-4.2-1.1-8.5-4.8-11c-6.1-4.2-13.7-1.4-19.8,0.9c-0.6,0.2-1.1,0.4-1.7,0.7
		l-0.8,0.5c-5.4,3.2-11.6,6.9-14.6,13c-2,5.2,2.4,9,6,12c0.6,0.5,1.2,1,1.7,1.5c-0.9,2.6-1.9,5.2-1.4,8.1c1.3,3.3,4.7,4.3,7.8,5.2
		c0.5,0.1,0.9,0.3,1.3,0.4v0.4c0.2,2.5,0.3,5.1-1.8,6.6c-1.8,0.9-3.7,1.6-5.6,2.2c-1.8,0.6-3.6,1.2-5.3,2c-12.7,5.9-24,16-31.8,28.2
		c-0.4,0.5-0.7,1.1-1.1,1.6c-1.2,1.9-2.3,3.6-4.5,3.9c-1.5-1.9-3.1-3.8-4.8-5.6l-0.3-1.5h-1.1c-1.8-1.8-3.7-3.5-5.6-5.2
		c5.6-8,10.4-16.9,13.8-26.7c4.1-10.8,10.2-28.9,4.4-25.7c-2.8,1.6-7.1,2.5-11.4,2.9c1-1.7,2-3.4,2.9-5.2c7.8-24.8,11.9-51,8-77
		c1.5-0.2,3.5,4.4,5,4.3c-3.5-13.7-8.7-30.4-16.8-43c-1.3-2-2.6-3.9-4.1-5.6c1.2,1.7,2.6,4.1,3.5,5.1c-3.4-3.2-8.7-11.6-11.8-14.4
		c-2.4-2.2-4.8-4.4-7.1-6.7c-0.1,0-0.2,0-0.3,0.1v-0.4c-0.8-0.8-1.7-1.6-2.5-2.5c0.4,0.7,0.8,1.4,1,2.2c0.1,0.3,0.1,0.5,0.2,0.8
		c-1.1-1.1-2.1-2.2-3.1-3.2c0-0.1-0.1-0.2-0.1-0.3c-0.3-0.8-0.7-1.5-1.2-2.1c-0.7-0.6-1.4-1.2-2.1-1.9l-0.9-0.8
		c0.7,0.3,1.3,0.7,2,1.1l-0.3-0.3c-0.6-0.3-1.3-0.6-1.9-1l-1.2-1.1c-0.3-0.2-0.7-0.3-1-0.5c-0.5-0.4-1-0.9-1.5-1.4
		c-0.2-0.2-0.4-0.4-0.5-0.6c-0.6,0-1.2,0-1.8-0.1l-16.3-33.2c-0.6-1.2-0.9-2.5-1-3.9c0-1.2,0.1-2.4,0.2-3.7c0.1-0.4,0.2-0.8,0.3-1.3
		c-1.4-1.6-1.8-3.8-0.2-6.2c9.6-14.8,14.4-35.5,9.6-52.6c-1.6-5.8-4.4-11.2-7.7-16.3c-1.2,0.2-2.4,0.6-3.6,0.9
		c-0.6-2.5-2.5-4.7-5.7-4.9c-7.6-5.3-18.5-5.6-27.9-6.3c-7.8,4.4-15.2,9.3-21.8,15.3c-1,4.2-3.9,7.9-8.8,9.4
		c-1.4,1.7-3.3,3.1-5.7,3.9c0,0.4,0.1,0.8,0.1,1.2c-1.1-0.2-2.1-0.3-3.1-0.5c-0.3,0-0.5,0.1-0.8,0.1c-3.1,0.3-5.7-0.3-7.9-1.4
		c-40.9-4.9-83.5,4.6-118.3,25.3c-3.9-4.3-7.9-8.5-11.9-12.8c-1.4-0.5-4.2-1.6-5.6-2.1c-5.4,1.5-10.5-0.9-15.5-2.7
		c-11.2-4.9-23.4,0.5-34.4,3.3l0.6,0.3c-0.3-0.1-0.6-0.1-0.9-0.2c-8.1,8.1-12.6,18-14.2,28.5c-3.8,7.8-3.1,17.6-0.6,25.7
		c0.7,2.3,1.7,4.4,2.9,6.4c0.7,2.6,1.5,5.2,2.4,7.7c1.2,1.3,2.3,2.6,3.5,3.8c0.9,0.9,2.6,1.9,4.1,3.2c0.8,0.6,1.5,1.3,2.2,2
		c0.3,0.4,0.6,0.8,0.8,1.2c0.1,0,0.2-0.1,0.2-0.1c-0.1,0.1-0.1,0.1-0.2,0.1c0.1,0.1,0.1,0.2,0.2,0.3c0.8,1.1,2.1,3.4,3.5,5.1
		l0.3,0.6c0.6,1.3,0.9,2.7,1,4.1c0.5,0.2,1,0.5,1.5,0.7c-1.2,4-2.2,8-2.4,12.2c-0.4,4.9-0.3,9.8,0,14.7c-0.1,0.1-0.3,0.1-0.4,0.2
		c0.1,6.9-0.4,13.8-2.9,20.5c-0.7,2.3-1.7,4.4-2.8,6.5l-0.6,0.1l-0.4,1.8c-4.5,7.5-11,13.7-15.9,21c2.1-0.3,5.9-0.8,8.4-1.2
		l-0.3,2.8l0,0c-2.1,4.6-4,9.3-5.6,14.1c-1,13.7-3.9,31.6-1.9,45.4c3.5,0.9,7,1.9,10.5,2.9c1.9,14,8.7,26.6,11.3,40.4
		c1.1-0.5,3.4-1.3,4.6-1.8c4.1,4.9,8,10.1,12.1,15.2c-2.1,0.4-4.2,0.5-6.3,0.5l1.8,2.9c-7.9,1.1-15.3,1.8-15.3,1.8l4.9,6.6l-0.2,0.2
		h-0.1l1.8,3.4l-0.2-1.8l1.5,2c6,9.1,13.3,16.6,21.3,22.8c-0.7,0.3-1.6,0.6-2.4,0.9c0.6,0.7,1,1.7,1,2.9c0.1,1.3,0.2,2.5,0.4,3.7
		c-3.7,3.5-5.9,8.1-7.8,12.7c-6.1,8.1-10.9,17.3-14.5,27.6l-0.8-0.2c-0.4,2.4-0.9,4.8-1.3,7.2c-0.1,0.7-0.4,1.3-0.8,1.9
		c-0.5,2.2-1.2,4.5-1.8,6.6v0.1c-3.6-13.2-6.7-26.5-9.1-40c-0.1,0.9-0.3,1.8-0.4,2.7c-1.2-1.2-2.5-2.6-3.5-3.9
		c0.5-5,0.7-10.1,0.7-15.4c-8.9-4.1-14.4,4.4-18.8,10.4c-3.4-0.3-7.2-0.7-9.9-1c-1.3-2.4-2.7-4.9-4-7.1c4.9-5.2,8.1-10.7,9.2-16.5
		c-13.9-8.2-30.4,3.4-35.2,7.5c-4.6-0.6-9.7-0.6-13.7-2.8c-6.7-3.6-14.7-5.6-23.9-5.9c-4.4,0.1-7.2,4.1-9.5,7.6
		c2.1-0.3,4.1-0.7,6.1-1.2c11.2-3.5,20.6,1.6,29.8,7.5c-1.3,4.8-2.4,9.2-3.3,13.5c-2.9-1.2-6-2.4-9.2-3.4l0.6,4.3
		c-3.5-0.7-6.8-1.6-10.4-2.6c2.4-1.8,4.9-3.7,7.9-5.7c-5.8-3.4-12.9-5.2-16.2-11.2c-1.3,1-2.7,2.3-4,3.2c2.2,2.7,4.2,5.2,6.2,7.5
		c0,3.5,0,7,0.2,10.1c-6,0.3-11.9,1-18,0.7c-1.3-0.7-2.6-1.6-3.6-2.6c-2.2-2.2-4.6-4.1-7.9-4.1c-5.9,2.2-7.2,8.8-7.5,14.7
		c-0.6,10.9-2.2,21.3-3.5,32c-1.9,14.4-0.9,28.7-2.9,43.1c-14.2-12.6-20.2-31.5-36.8-41.8c-7.1-4.8-15.7-5.1-23.8-6.3
		c0.1-2.2,0.4-4.4,0.7-6.6c4.6-1.8,9.2-3.4,13.7-5.6c-3.4-1.9-6.8-3.6-10.4-5.4c0.4-4.6,0.9-9.3,0.6-14.1c-1.4-8-6.9-15.3-14.4-19.4
		c-5.5-2.6-10.5,0.9-14.7,3.7c-2.6,2-6.4,0.3-9.5,0.6c0,1.2,0.2,3.3,0.2,4.8c-1.6,2.8-2.8,6.7-3.2,10.4c1.6-1.5,3.3-3.1,4.9-4.6
		c-0.1,0.3-0.1,0.5-0.4,0.7c0.6,2,0.9,4.2,1.3,6.3c2.6,15.1,4.2,20.3,21.2,22.2c0.7,2.8,1.4,5.8,2.4,8.8
		c-6.7,2.3-11.9,11.2-9.9,17.6c5.6,6.6,14.5,6.2,21.9,9.4c12.9,16.3,19.9,36.4,36.5,50c4.9,4.4,9.9,9.1,16.7,10.3
		c-0.2,3.3-0.6,6.5-0.9,10c-8.8,1.5-19.4,4.5-25.5,12.5c-6.2,8.2-10.8,17.8-13.1,27.3c-3.3,13.8,0,27.9,0.9,41.7
		c-15.4,0.7-27.1,4.3-35.3,11c-6.9,4.9-9.9,12.9-13.1,20.5c-15.3,3.2-32.4,7.9-44.7,18.8c-3.3-1.4-6.6-2.6-10.1-3.8s-7-2.2-10.6-3.2
		c-27-7.8-50,5.3-75,13.4c-0.2,0-0.3-0.1-0.5-0.1c-15.2-3-31.1-4.5-47.6-3.6c-15.5,0.8-30.2,3.3-44.5,6.2
		c-16.6,3.3-32.8,7.1-49.9,9.8c-38-10.2-81.1,0.4-117,7.5c-10.4,2.1-21.1,3.9-32.2,5c-12.3,1.2-24.8,1-37.3,0.6
		c-23.3-0.9-46.3-1.6-69.7-0.7c-22.5,0.9-44.9,2.9-66.5,6c-10.7,1.5-21.3,3.3-31.6,5.4c-10.3,2-20.2,5-30.7,6.6
		c-11.3,1.8-22.2-0.1-32.4-2.6l-7.5-1.8c0.1,1.9,0.2,3.8,0.2,5.7c10,2.5,20.8,4.7,32.2,4.5c14.9-0.4,28.4-5,41.7-7.7
		c14.1-2.8,28.7-5.1,43.6-6.9c30.2-3.7,61.4-5.2,92.6-4.4c16.1,0.4,32.2,1.6,48.4,1.4c15.1-0.2,29.7-2,43.8-4.5
		c27.3-4.9,53.6-12.4,83.6-13c6.7-0.1,13.5,0.1,20,0.9c2.7,0.3,5.4,0.7,8,1.3c3.1,0.6,6.6,2.1,10,2.2c3.1,0,7-0.9,9.8-1.4
		c3.4-0.6,6.7-1.2,10-1.8c7.1-1.4,14.1-2.9,21.2-4.3c14.7-3.1,29.5-6.2,45.3-7.8c16.4-1.7,32.4-1.1,48.2,1.7
		c3.3,0.6,6.5,1.2,9.7,1.9c0,0.2,0.1,0.3,0.1,0.5c0.3-0.1,0.5-0.2,0.8-0.3c5.9,1.2,11.7,2.6,17.5,4c3.2,0.1,6.3,0.1,9.5,0.1
		c1.8-0.3,3.1,0.4,4,1.6c12.7-0.2,25.3,2.5,37.5,6.8c0.7-0.5,1.5-1.1,2.2-1.7c-8.1-1.9-16.2-3.9-24.3-5.8c-12.4-3-24.7-6.1-37.4-8.9
		c20.3-8.6,41.3-16.5,63.3-10.7c4.3,1.2,8.5,2.5,12.7,4c12.5,4.6,24.5,10.8,35.6,19.2l3.4-3.9c-7.3-5.4-15.2-10.2-23.7-14.3
		c12.4-7.6,27.2-16,43.5-17.1c17.4-1.8,35.4,7.5,44.1,22.3c1.9,3.5,2.8,7.2,3.2,11c2.2,0,4.4,0.1,6.5,0.2c-0.7-3.9-2.1-7.8-3.6-11.8
		c8.8-3.4,21.5-6,32.6-0.9c15.1,5.8,27.4,19.3,33.3,36.1c-0.4,0.3-0.9,1-1.3,1.6c-12,2.5-23.8,6.2-30.2,15.6
		c3.5-0.7,6.8-1.2,10.1-3.2c14.2-9.1,31.9-10,48.8-9.7c11.4,0.2,21.5,5.3,32.6,6.9c-2-12-5.1-23.8-6.9-35.8c2.4,1.9,4.8,4.1,7.5,6.6
		c0.6,10,2.6,19.5,4.5,27.9c0.7-0.7,1.9-1.7,2.6-2.3c-0.8-8-1.8-16-2.7-24.1c2.6,0.8,7.2,0.5,7.4,3.1c1.1,7.6,1.6,15.4,4,22.9
		c10.7-9.3,19.5-20.7,32.6-27c5.9-2.7,12.9-3.3,21-2c7.5,3,14.7,6.8,22.5,11c2.1,1.3,3.8,3.3,5.4,5.3c0.9,1.1,1.8,2.2,2.8,3.2
		c16.7,16.2,31.7,27.2,47.3,34.4c1.5,1.2,2.7,2.7,3.9,4.2c1.1,1.4,2.3,2.8,3.7,4c13.5,11.9,27.1,23,43.9,28.2c-1.2,1-2.4,2-3.5,2.9
		c-5.6,4.6-11.4,9.3-14.6,16l-0.5,1l1-0.4c4.2-1.7,7.5-4.7,10.7-7.7l0.6-0.6c12.3-10.2,27.3-16.5,41.7-22.6l2.6-1.1
		c7.7-3,15.6-6.2,23.9-7.6c2.5-0.5,5.1-0.6,7.6-0.8c1.9-0.1,3.9-0.2,5.8-0.5c2-0.2,4.1-0.3,6.1-0.3c4.1-0.1,8.4-0.1,12.4-1.9
		l0.8-0.4l-1.2-0.6c-1.7-0.9-3.5-1.7-5.6-1.6c-6.3-0.1-12.6,0-18.7,0.1h-2c3.1-6.9,4.8-14.1,5-21.3c1-9.2,0.4-18.5-0.3-27.5
		l-0.3-5.1c10.8-3.4,22-6.1,32.9-8.6l9.9-2.4c8.7-2.1,17.6-3.5,26.3-4.9c6.6-1.1,13.4-2.2,20-3.5c9.6-1.9,19.5-3.2,29.1-4.5
		c4.1-0.5,8.4-1.1,12.6-1.7c5.3-0.7,10.7-0.9,15.9-1.1c1.1,0,2.2-0.1,3.3-0.1h0.6l-0.2-0.5c-2.1-6.1-3.4-12.2-3.7-18
		c7,1.4,13.9,6,19.3,12.9l0.6,2.6c1.6,17.9,10.9,35.9,25.6,49.5c-11.7,6.3-26.4,15.1-37.4,27.8c-0.8,1-1.7,2.1-2.6,3.1
		c-3.3,3.7-6.6,7.6-8.3,12.5l-0.4,1.1l1-0.6c5.4-3.1,9.6-7.6,13.8-11.9c2.6-2.8,5.4-5.7,8.4-8.1c19.5-16,39.7-25.6,60-28.5
		c13.8-2.1,30.2-4.1,46.7-2.8c12.9,1.1,26.1,3.6,39.3,7.5c1.1,0.3,2.1,0.7,3.2,1c4.3,1.4,8.7,2.8,13.3,2.1l1.1-0.2l-0.9-0.6
		c-2.5-1.6-4.6-2.8-6.9-3.7c-16.3-6.1-33.7-10.1-51.7-11.9c8.4-10.4,27.5-43,26.7-42.9c0.8-2.4,1.5-4.9,2.2-7.4
		c1.2-4.5,2.5-9.1,4.5-13.4c1.2-0.6,2.5-1.2,3.7-1.8c8.5-4.2,17.3-8.6,24.4-15.3c6.2-5.7,10.6-13,14.4-20
		C1516.3,871.8,1517.4,856.5,1513.3,842.7L1513.3,842.7z M1227.3,339.3c0.3,2.3,0.3,4.6,0.2,6.9c-0.1-0.6-0.3-1.2-0.5-1.8
		C1226.2,342.4,1226.5,340.6,1227.3,339.3z M889.7,659.6L889.7,659.6c6.2-5.2,14-7.1,19.3-7.8c2,0.9,3.8,1.9,5.6,3.2
		c-3.3,4.5-7.9,8.2-12.4,11.7c-1.5,1.2-2.9,2.3-4.5,3.5c3.8,0.8,8.1,1.1,10.4,4.3c-8,3.1-16-4.5-23.9-1
		C885.4,668.7,885.3,662.8,889.7,659.6z M883.9,662.5L883.9,662.5c-0.9,4.4-1.9,8.8-3.2,13.1c-2.2,0.9-4.8,1.4-7.4,1.6
		C874,672.2,876.4,664.1,883.9,662.5z M813.4,705.7L813.4,705.7c0.4-9,3.2-17.5,2.9-26.3c2.6,2.5,4.7,5.7,6.2,9.4
		c28-6.2,56.5-5.9,84.9-7.1c8,0,15.5,2,23.4,0.6c1.6-2.6,1.1-8.2,4.9-8.5c0.1,4.9-0.9,10.4,2.4,14.8c7.8,10.9,8.4,24.3,11.1,36.7
		c2,10.2,0.4,20.7,1.3,31.2c0,0.6,0.1,1.1,0.1,1.7c0,4.6,0.2,9.5,0.6,14.8c-1.1,5.5-3.8,10.2-7,14.6c-6.3,2.8-11.6,7.7-15,13.7h-0.1
		c-2.5,8.1-6.9,15.9-12.1,22.3c-1,1.3-2.2,1.9-3.4,1.9c-3.6,5.8-6.5,11.5-8.8,17.2c-0.4,0.6-0.8,1.2-1.1,1.8
		c-0.2,0.4-0.5,0.8-0.7,1.2c-6.5,0.4-13.1,1-19.2-1.7c-14.5-6.7-26.1-18.8-31.7-33c-2.7-7-2.5-14.8-6.9-21.4l4.5-3.9
		c7.5,0.2,13.7,4,19.9,7.8c4.9,3.1,10.2,6.5,16.4,7.5c12.7,2.9,27.3-1.5,36.8-11.2c-0.4-1.2-0.9-3.2-1.3-4.6
		c-7.7,5.9-15.1,13.6-25.5,13.8c-8.2,0.3-15.3-4-21.9-7.8c-4.1-2.5-8.4-5-12.9-6.6c-6.8-1.2-7.1-9.2-9.1-14.5
		c0.9-1.1,2.5-3.1,3.5-4.3c-0.2-3.2-0.4-6.6-0.6-9.2v-0.2l-0.2-0.2c-2.8-2.5-5.8-5-8.5-7.5c-4.6,0.1-9.2,0.1-13.4,2.3
		c0.8-5.8,1.5-12-0.7-17.7c-1.3,6.1-1.6,12.4-2.4,18.6c-3.4-0.1-7.1-1.2-10.4,0.2c-3.5,2.5-5.2,6.5-5.2,11.2
		c-1.3,1.8-2.6,3.7-3.9,5.7C808.6,747.7,811.7,726.7,813.4,705.7z M816.5,760c2.2-4.9,7.1-7.7,12.4-5.9c-1.6,2.9-3.6,6-4.2,9.5
		c0.6,4.1,2.7,7.5,4.6,11c-3.9,4.4-7.8,9.4-14.4,8.2c-1.4-3.1-3.4-6.2-2.4-9.7c0.7-7.2,8.2-10.4,12.4-15.5
		C822.1,758.3,819,759.2,816.5,760z M829.1,762L829.1,762c1.6-3.7,4.4-6.9,6.6-10.3c2.7-0.1,5.5-0.7,8.2-0.3c4,1.9,6.2,6,8.5,9.7
		c-1.6,3-3,6.2-4.4,9.3c-5.9,0.5-10.7,1-14.9,1.9C831.1,769.2,828.2,765.7,829.1,762z M849.3,773.3L849.3,773.3
		c0.7,2.7,1.6,5.9,2.7,9.1c-6.2-0.1-10.5,4.8-13.4,9.1l0.5,0.3c1.9,0.9,3.6,1.6,5.5,2.5c0.9,5.7,1.4,11.4,3.3,16.9
		c1.4,4.8,4.6,8.8,5.6,13.8c-3.4-2.7-5.9-6.5-8.2-10c-1.1-1.8-2.4-3.7-3.6-5.3c-6-7.9-10.6-16.3-15.9-24.5
		C829.1,775.6,839.9,772.3,849.3,773.3z M809.3,781.9L809.3,781.9c2,1,3.6,2.4,5.3,3.9h6.9c4.1,9.7,10.4,18.5,16.2,27
		c6.2,8.5,10.1,18.2,22.1,18.8c8.9,10.1,17.7,16.7,27.8,18.5c4,0.5,8.6,0.9,12.7,0c-3.1,5.5-5.9,11.4-6.8,17.5
		c-0.4,2.3-0.4,4.7-0.3,7.1c-11.7,0.1-23.3,6.9-29.6,17.3c-1.6,2.9-4.4,5.3-6.9,7.6c-2.9,2.5-5.9,5.2-7.5,8.7c2.6,1.1,5.2,2,7.8,3.1
		c-1.5,3.4-6.9,7.7-1.3,10l1.3-1.8c0.9-2.3,2.2-4.4,4.5-6.7v5.1l-2.7,1.6c0.4,1.7,1.6,2.8,2.7,3.9c-2.6,0.1-5.2,0.1-7.8,0.3
		c-13.9-28.6-13.4-60.6-26.4-89.5c-4.9-10-14.2-16-21.2-19.2C808.2,803.9,808.3,792.9,809.3,781.9z M860.6,908
		c-2.7-0.5-5.2-1.2-7.5-1.9c2.5-1.9,4.8-3.5,7.4-5.1C860.6,903.5,860.6,905.8,860.6,908z M830.4,900.7l5.5-1.8
		c2.1,6.7,3.6,13.5,5.3,21.4c-3.9-1-8.7-1-11.7-3.9C830.5,911.8,830.8,907,830.4,900.7z M725.8,703.1c-4.1-1.1-8.1-2.4-9.4-6.2
		c-3.6-8.6-3.6-17.9,0.2-24.6c1.9-4.1,6.5-6.7,11.7-6.7c5.6,3.5,14.8,11.3,15.1,22.9c-4.4-0.5-8.6-1.1-13.1-1.5
		c-2.2,1.5-3.9,3.2-5.5,5c0.8,4,1.7,7.9,2.6,11.6C726.8,703.5,726.1,703.3,725.8,703.1z M728.3,693.6c0.1-1.2,0.8-2.3,2.4-3.2
		c3.4,0.6,7.1,0.9,11.7,0.9c-0.1,2.7-0.4,5.6-0.4,8.2c0.8,1.1,2.2,3.1,3.2,4.3c-3.9,0.3-8,0.6-12,0.6
		C731,701.1,727.4,697,728.3,693.6z M738.6,715.7L738.6,715.7c-1.4-0.1-3.1,0-4.6,0.6v-0.2c0-2.2,0.1-5.9,0.4-8.2
		C738.6,707.9,738.1,712.6,738.6,715.7z M775.2,780.8L775.2,780.8c-12.1-12.9-17.5-30.1-30-42.7c-6.6-2.3-15.8-1.8-19.7-8.5
		c5.1-9.7,19.1-11.1,29.8-7.6c22.5,9.2,29,33.7,46.6,47.7c-1.1,6.6-1.4,13.3-2,19.5c-0.1,3.4-0.4,6.7-0.7,10.1
		C789.5,795.6,782.3,788,775.2,780.8z M789.9,944.4L789.9,944.4L789.9,944.4c-8.5,0-15.7,1.1-21.9,3.4c-2.2,1.8-3.5,0-4.5-1.9
		c-4.9-7.8-12.7-14.2-22.5-17.6c-7.8-3.1-15.9-1.8-23.8-3.1c8.7-18.4,23.1-25.2,44.6-25.5C788.2,900.6,800.9,921.9,789.9,944.4
		L789.9,944.4z M837.1,989.3L837.1,989.3l-3.3-2.6c-0.2-5.7-0.5-10.8-3.2-15.1c-7.5-12.5-20.5-22.1-36.5-27.5
		c4.9-11.3,1.2-24.1-1.5-30.8c-4.6-11-16.7-14.7-27.1-19.5c-1.2-8.8-2.1-18.7-2.7-29.9c0-1.2,0.1-2.4,0.3-3.7
		c2.4,1.3,5.2,1.7,7.7,1.7c0,4.1,0.4,8.3,1.3,12.6c5.6-1.4,7.6-6.5,9.8-11c-0.5-1.3-1-2.6-1.6-4.1l-3.3-6.9
		c-2.1,1.4-3.2,3.8-4.5,5.7c-3,0.2-6.1,0.2-9.2,0.2c3.2-19.3,21.5-43.7,43.2-34.6c10.4,5.7,14.2,17.9,16.9,26.7
		c2,6.7,6.1,14.2,2.2,20.7c-8.1,2.3-16.8,0.7-25.1,1.2c1.2,1,2.5,2.3,3.5,3.5c8.6-1,17.7,1.8,25.5-3.2l4.9,21.3
		c-8.9,3.4-19.1,2.5-27.2-2.4c0.2-1.6-0.4-3.5-1.7-4.4c-0.7-0.3-1.3-0.4-1.7-0.3c0.2-4.7,0.7-9.6-3.3-13.3
		c-3.9,15,3.3,29.2,6.5,43.6l-7.2,1c0.6,7.8,6.8,12.4,12.9,16.7c2.8,1.9,3.2,1.9,1.9,5.3c-2.6,5.7,2.2,7.4,6.2,10
		c0.1,1.9,0.5,4.2,1.1,6.7c1.1,1.4,2.5,2.2,4,2.8c2.2,1,4.2,1.9,4.2,4.4c0.5,4.3,4.2,5.9,7.4,7.8c0.1,1.4,0.5,3.9,0.7,5.1
		c2.8,3.1,5.9,6.1,7.4,10C843.3,988.2,840.1,988.6,837.1,989.3z M826.7,916.2c-1.4,0.6-3.1,0.3-4.9-0.7c-0.6-5.1-1.3-10.1-1.9-15.1
		C828.7,899.5,826.9,910.2,826.7,916.2L826.7,916.2z M817.1,915.9L817.1,915.9c-1.6,0-4.2,0-5.8,0.1c-1.6-6-2.6-12.2-4.2-18.2
		c3.4,0.9,7.4,1.2,8.7,4.6C817.1,906.7,816.8,911.4,817.1,915.9z M887.4,994.4c-9.5-3.6-19.3-5-29.1-7.1c-3.1-3.7-11.4-6-7.5-11.9
		l-0.7-0.2c-1.1-0.6-2.9-1.2-4-1.8c5.5-6.6-4.6-7.1-9.5-8.4c1.4-1.9,2.7-3.7,4-5.7c-3.9-2.4-8.2-3.1-12.7-4.3
		c-0.5-3.2,4.6-4.4,5.6-7.3c-4.5-2.2-9.1-3.7-13.7-5.3c4-2.3,8.6-4.2,10.8-8.5c-8.2-2.2-17.5-4.4-22.8-11.3
		c11.7-1.6,23.1-0.6,32.6,3.2c-2.4,11.4,1.2,24.8,10.4,39.3c2.9,4.5,7.2,10.9,13.7,8.4c-4.1-3.4-7.7-7.4-10.7-11.7h0.3
		c1.3,0,2.6-0.9,3.1-2c0.7-2-1.3-4.7-3.5-4.5c-1.3,0.1-2.3,0.9-2.8,1.8c-2.5-4.6-4.5-9.5-5.8-14.6c1,0.8,2.2,1.3,3.4,1.3
		s3-0.9,3.5-3.5c-2.5-0.7-5.1-1.6-7.8-2.3c-0.6-3.7-1-7.5-0.9-11.3c5.5,1.6,11.9,0.5,17.2,2.6c3.9,17.2,4.8,35,6.1,52.4
		c0.5,3.1,0,6.8,4.5,7.5c-0.4-23.9-3.5-47.3-5.2-71.1c-1-7.1-1.2-14.1,0.5-20.2c0.1-0.1,0.2-0.2,0.4-0.2l-0.3-0.3
		c2.4-8,8-14.5,19.3-17.6c3.1,0,5.9,0.5,8.4,1.2c2.4,10.6,8.8,21,14.2,29.7c0.5,0.8,1.1,1.7,1.6,2.5c0,0-0.1,0-0.1,0.1
		c0.2,0.2,0.5,0.5,0.7,0.8c0.1,0.2,0.2,0.3,0.3,0.5c0.6,0.9,0.9,1.9,1,3l0.8-0.4c1.6,2.2,3.2,4.4,4.9,6.6c0.2,1,0.4,1.9,0.7,2.8
		c-0.9,1.4-2.1,3.2-3.2,4.8c-5.8,0.1-12.6,0.1-19.2-1.5c-3.5-0.7-7.2-2.2-10.5,0c-7.3,4.4-6.5,13.7-6.2,21
		C881.4,965.5,884.1,980,887.4,994.4z M890,961.5c-9.7-8.8-5.6-23.7-4-28.7c10.9,0.2,21.8,5.4,32.2,0c1.5,10.3,4.9,20.2,4.2,30.5
		C913.3,969.2,898.3,970.3,890,961.5z M915.9,981.7l-0.2,0.6c0.6,3.7-1.8,6.6-4,8.5c-1.3-6.8-2.7-12.5-4.2-17.6
		c1.9-0.1,4.8-0.1,6.5-0.3c0.6,2.3-0.9,7.3,3.3,6.7c1.1-2.6,1.3-5.3,0.7-7.9c2.2-0.8,4.8-1.9,7.5-2.6
		C926.3,974.9,922.1,981.3,915.9,981.7z M929.2,972L929.2,972c-2.4-8-2.7-16.4-3.6-24.6c-1.1-5.8-1.9-11.6-2.8-17.3
		c2.3,2.6,4.7,5.1,7.2,7.5v0.1c2.6,9.2,5.6,19.1,7.9,28.6C935.2,968.2,932.4,970.2,929.2,972z M942.6,964.4
		c-1.7-6.9-3.8-13.9-5.9-20.9c7.6,6.2,16,11.4,25.1,15.2c0.3,1.4,0.5,2.8,0.8,4.2C955.4,961.8,948.6,962.3,942.6,964.4z
		 M1434.8,707.1c11.7,2.9,22.3,7.6,31.3,14c8.6,7.1,15.7,13.8,21.7,20.7c1.7,2.2,3.6,4.4,5.3,6.6c2.5,3,5.1,6.2,7.5,9.4
		c-5.8-0.4-11.7-1.4-17.3-2.2c-8-1.2-16.3-2.5-24.5-2.5c-17.1-0.3-33.5,0.6-48.8,2.5l-0.3,0.1c-26,4.8-52.9,9.8-77.6,20.5
		c-5.4,2.1-10.7,4.6-15.8,7.1c-4.4,2.1-9,4.3-13.6,6.2l-1.2-2.5c-6.7-14.5-13.6-29.4-23-42.6c-5.6-9.1-13.8-16.7-20.5-22.8
		c-5.9-5.1-13.2-8.2-20.3-11.1c-1.5-0.6-2.9-1.2-4.3-1.9c12.3-3,25.7-3.9,39.7-2.5c15.8-0.1,31.7,2.7,47,5.3l1.8,0.3
		c4.2,0.3,8.4,1.1,12.5,1.8c6.6,1.2,13.4,2.4,20.3,1.9c1.3,0.1,2.4-0.6,3.3-1.3l1-0.7l-2.5-1c-0.9-0.4-1.8-0.7-2.7-1.1
		c5.8-1.5,11.9-2.1,18.1-1.7c1.1,1.9,2.4,3.8,3.6,5.6c1.3,1.9,2.7,4,3.8,6c1,1.7,2,3.5,2.9,5.2c1.5,2.8,3.1,5.7,4.9,8.4l0.3,0.5
		l0.4-0.5c0.4-0.5,1.1-1.3,1.4-1.7l0.1-0.1v-1.2l0.7,0.1c4.5,0.8,9,2,13.4,3.1c2.6,0.7,5.2,1.3,7.9,1.9h0.2l0.2-0.1
		c3.9-2.5,1.6-6.2-0.4-9.5c-0.7-1.1-1.3-2.1-1.7-3c6.6,1.3,12.7,4.4,18.6,7.4l0.6,0.3c2.4,1.4,5.1,1.4,7.8,1.5h0.6l0.1-0.2
		c2-4.1-0.1-7.8-2.1-11.3c-0.5-0.8-0.9-1.6-1.3-2.3c5.6,0.4,10.5,3,15.2,5.6c3.5,1.9,7.1,3.8,11,4.9l1,0.3l-0.5-0.9
		c-2-3.6-5.7-5.6-9.2-7.4c-0.8-0.4-1.6-0.9-2.4-1.3l-0.1-0.1c-5.9-3-12.6-6.5-19.4-3.9l-0.3,0.1v0.3c0.1,3.3,1.7,6.1,3.2,8.8
		c0.6,1.1,1.3,2.2,1.8,3.4c-3.5-1.1-6.8-2.6-10-4.1c-4.1-1.9-8.3-3.9-12.8-4.9c-1.9-0.4-4.7-0.1-6,1.2c-0.7,0.7-1,1.7-0.7,2.9
		c0.8,1.9,2,3.7,3.1,5.5c0.5,0.8,1.1,1.7,1.6,2.5c-1-0.3-2.1-0.7-3.1-1c-4.5-1.5-9.1-3-13.9-2.7h-0.2l-2.9,2.8
		c0.1-3.2,0.1-6.4,0.1-9.6c0-5.1,0.1-10.5,0.3-15.7c1.4-0.1,2.9-0.2,4.3-0.3C1407.4,704.8,1421.4,703.7,1434.8,707.1z M1369.2,689.2
		c-0.1-2-0.3-4-0.4-5.9c-0.2-2.6-0.5-5.4-0.5-8.1c2,3.4,4.3,6.8,6.5,10l0.6,0.9l0.3-0.1c1-0.2,1.9-0.4,2.9-0.7
		c1.5-0.4,3.1-0.7,4.6-1l0.3-0.1l0.1-1.9c0.1-1.3,0.1-2.7,0.2-4.1c1.8,1.2,3.2,2.9,3.8,4.7c-0.1,2.6-0.6,5.1-1.2,7.6
		c-0.6,2.7-1.2,5.6-1.2,8.5c0,4.2-1.1,7.1-3.4,9c-0.6-0.1-1.2-0.3-1.8-0.4c-2.2-0.4-4.6-0.8-5.7-3c-2.3-3.3-5.2-6.2-8.1-8.9
		c-1.7-1.7-3.5-3.4-5.2-5.2c-1.8-1.8-1.5-4.4-1.2-6.9c0-0.2,0-0.4,0.1-0.6c0.9,0.7,1.8,1.5,2.7,2.4c1.8,1.7,3.6,3.4,6,4.2l0.6,0.2
		L1369.2,689.2L1369.2,689.2z M1396.2,700.5c-1.8,0.4-3.7,1-5.8,1.5c-0.2-5.2,1-10.3,2.1-15.3c0.5-2.2,1-4.4,1.3-6.6v-0.2
		c-0.5-1.2-0.9-2.5-1.4-3.7c-2.8-7.5-5.8-15.3-7.6-23.2c4,0.1,8.2,0.1,12.8-0.2C1404.4,666.9,1403.9,684.7,1396.2,700.5z
		 M1389.1,605.5L1389.1,605.5c3.7,1,6.5,3.8,9.2,6.5l1.5,1.5c4.7,4.3,7.2,11.5,6.8,19.2c-0.6,5.1-2.4,11.5-8,13l-0.4,0.1
		c-5,1.5-10.7,3.2-15.1,0c-5-3.1-10.4-6.9-10.5-13.2c-0.6-4.3,1.6-8,3.8-11.7c0.4-0.6,0.8-1.3,1.1-1.9c1.1-1.9,2.6-3.6,4.1-5.2
		c0.9-1,1.9-2,2.7-3.2l0.6-0.8l-0.9,0.1c-2.6,0.2-4.7,1.6-6.6,3c-1.1,0.7-2.1,1.5-3.3,2c-0.9-2.8-2.1-5.4-3.3-8
		c-0.7-1.6-1.5-3.2-2.1-4.9C1375,602.3,1381.9,603.4,1389.1,605.5z M1367.8,613.4L1367.8,613.4c0.8,2.3,1.7,4.6,2.7,6.9
		c-3.6,7-3.8,14.7-0.6,20.6c1.2,2.3,3.2,4,5.2,5.5c1.2,0.9,2.3,1.9,3.3,2.9c1.1,4,2.5,8.1,3.8,12c1.2,3.6,2.5,7.4,3.5,11.1
		c-1.5,0.4-2.9,0.9-4.4,1.4l-0.2,0.1l-0.1,0.2c-0.4,1-0.7,1.9-1.1,2.9l-0.5,1.2c-1.5,0.4-2.9,0.8-4.3,1.3h-0.1l-0.3-0.6
		c-1.7-3.3-3.5-6.7-5.5-9.9l-0.1-0.2h-0.2c-1.2,0-2.5,0.1-3.7,0.1h-0.4v0.4c-0.2,3.5-0.2,7.1-0.3,10.6v0.7c-1.1-0.6-2.2-1.1-3.3-1.7
		l-0.1-0.1h-0.1c-1,0.2-2,0.3-3,0.5l-0.6-2.1c-1.2-4.7-2.5-9.6-4-14.4c-0.8-2.1,0.4-3.9,1.6-5.8c0.5-0.7,0.9-1.4,1.3-2.2
		c3.4-5.6,4.5-12.5,3.5-21.3c0.6,1.9,1.2,3.7,1.9,5.6c1.9,5.8,3.9,11.8,5.7,17.8c0.7,2.1,1.3,4.4,1.9,6.5c1.3,4.8,2.7,9.8,5.5,14.1
		l0.4,0.7l0.3-0.7c1-2.4,0.3-4.8-0.4-7c-0.2-0.6-0.4-1.2-0.5-1.8c-3.2-11.9-7.1-23.8-10.8-35.3c-1.4-4.4-2.9-8.8-4.3-13.2
		c-1.5-5.3-3.6-10.4-5.6-15.3l-0.8-2.1c3.1-0.9,6.4-0.9,9.5-0.8C1364.9,605.4,1366.4,609.5,1367.8,613.4z M1343.4,618.4
		L1343.4,618.4c-4-0.4-4.1-5.2-3.8-8.9c3.1-2.5,6.7-4.4,10.6-5.7c1.6,3.6,3,7.6,4.5,12.5c1.2,4.3,2.5,8.6,3.9,12.8
		C1355.6,623.4,1349.7,619.1,1343.4,618.4z M1362.4,593.1c0.9,0.2,1.5,0.6,1.9,1.3c0.5,0.8,0.6,2,0.3,3.2c-10.3-1.2-19.2,2.8-25,6.4
		c-1,0.6-1.7,1.5-2.5,2.3c-1.1,1.2-2.1,2.3-3.5,2.7c-0.7-1-1-2.2-1-3.4c0.1-1.4,0.7-2.6,1.7-3.4c5.9-7,15-9.5,22.9-9.5
		C1359,592.7,1360.8,592.8,1362.4,593.1z M1332.6,587.1c1.6-0.8,3.1-1.8,4.7-2.8c4.9-3.1,10-6.3,16-5c2.6,1.4,2.7,4.7,2.8,7.6
		c0,0.5,0,0.9,0.1,1.4c-8.3-0.4-16.1,3.5-22,7C1332.9,592.6,1332.4,589.8,1332.6,587.1z M1319.4,571.4c-0.1-1.6,0.7-3.4,2-4.8
		c8-7.8,17.9-11.5,26.6-9.9c2.2,2.2,2.3,5.4,2.4,8.5c0,0.6,0,1.1,0.1,1.7c-8.7,1.3-17.1,5.2-24.5,11.4l-0.5-0.4
		C1322.9,576.2,1320.3,574.4,1319.4,571.4z M1326.3,589.3L1326.3,589.3c-0.1,0.2-0.1,0.3-0.2,0.5c-1.5-3.9,1.4-7.7,5.1-9.7
		c6.7-4.2,13.6-7.8,20.6-7.8c2.2,0,4.3,0.4,6.5,1.2l0.2,0.6c0.3,1.1,0.6,2.2,1,3.2c-3.5-2.1-7.4-4.1-11.7-2.9
		c-6.7,0.8-12,4.9-17.1,8.9l-0.2,0.1C1328.4,584.9,1327.3,587.1,1326.3,589.3z M1283,648.3L1283,648.3c3.4-5.9,7.3-11.6,11.4-17
		c10.8-12.4,21.6-20.2,33.1-23.9c1,2.2,2.9,3.6,4.7,5c2.4,1.8,4.6,3.5,4.8,6.7c-6.9,2.6-13,6.9-18.9,11.1c-2.2,1.6-4.5,3.2-6.7,4.6
		l-0.8,0.5l0.9,0.2c4,1,7.7-0.9,11-2.6l1.1-0.5c1.9-1,3.7-2.1,5.4-3.2c3.8-2.4,7.6-4.8,12.1-5.6c4.5-0.7,10.1,1,12,5.7
		c4,9.7,1.2,22.1-6.7,30.3c-2.4,2.6-5.5,4.5-8.4,6.5c-2.6,1.7-5.2,3.4-7.5,5.5l-0.6,0.6l0.8,0.2c4.4,0.9,8.1-1.2,11.7-3.1
		c1.2-0.7,2.4-1.3,3.6-1.9c0.3,11.2-9,19-13.1,21.8c-1.5,1.1-2.9,2.4-4.6,4.3l-0.4,0.5l0.6,0.2c3.2,1.1,6.1-0.9,8.7-2.7
		c0.7-0.5,1.4-1,2.1-1.4c6.6-4.3,11-11.5,11.7-19c0.4,2,0.7,4,1.1,5.9c0.9,4.7,1.7,9.6,3,14.3l0.1,0.1c1.7,2.6,4,4.7,6.2,6.8
		c2.2,2,4.5,4.1,6.2,6.7c-3.4,0.6-6.9,1.1-10.3,1.5c-4.7,0.6-9.6,1.3-14.4,2.3c-4.3,0.9-8.6,0-12.7-0.9c-1.6-0.3-3.3-0.7-4.9-0.9
		c-4-0.6-8-1.3-11.8-2c-6.5-1.2-13.3-2.5-20-2.9l-5.4-0.6c-6.4-0.7-12.9-1.4-19.5-1.2h-3.5c-3.6-0.1-7.3-0.2-10.7,1.3
		c-1.9,0.9-3.9,0.7-6,0.5c-0.2,0-0.4,0-0.6-0.1c1.2-0.5,2.4-1.1,3.5-1.6v-0.9c3.6-1.2,6.9-3,9.5-6.6c1-1.3,1.9-2.7,2.7-4.1
		C1273.7,678.2,1278.2,661.8,1283,648.3z M1266,455.5l1,0.9c-0.6,0.6-1.3-0.6-2-1.7C1265.4,455,1265.7,455.2,1266,455.5z
		 M1234.4,477.9c-0.6,4.7-1.1,9.5-2.8,13.9c-2.7,7.5-8.4,13.8-15.6,17.3c-5.8,2.8-11.9,4.8-18.2,6c-8.7,1.7-17.9,1.6-26.5-1.1
		c-3.2-4.4-7-8.4-11.4-12.1l0,0c-4.7-4.1-9.8-7.2-15.3-9.3c-0.1-0.2-0.3-0.4-0.4-0.6c-0.6-0.8-1.1-1.6-1.7-2.4h0.1
		c1,0.1,2,0.3,2.9,0.6c6.8,0.6,13.3,2.8,19.8,4.5c-3.3-3.1-7.8-4.3-11.8-6.2c15.5,0.1,24,5.3,37.3-6.8c-0.7,4.7-3.1,8.6-4.6,13
		c5.3-4.3,7.8-10.9,11.5-16.4c-0.4,7.2-5,13.1-8.3,19.1c5.5-3.4,8.1-9.4,12.1-14.1c-0.6,5.1-4,9.3-6.2,13.7
		c12-7.1,14.9-20.1,18.3-32.6c2.4-9.1,13.1-6.7,19.5-3.6c-17.6-32.2-55.3-8.7-79.4,2.1c-6.5,2.9-13.6,5.7-20.8,6.3
		c-0.4-2.4-0.4-4.8,0.1-7.2c0.9-4.3,3.7-8,7-10.9c4.8-4.2,10.6-7.2,16.5-9.8c9.6-4.4,20.2-6.7,30.7-7.9c5-0.5,10.1-1,15-1.3
		c5.2-0.2,10.4-0.3,15.5,0.7c3.4,0.7,6.7,1.9,9.4,3.9c3.1,2.3,5.1,5.8,6,9.5C1235.6,456.6,1235.5,467.4,1234.4,477.9z M1163.3,510.4
		c-2.9-1.6-5.8-3.6-8.3-5.9C1157.9,506.2,1160.6,508.3,1163.3,510.4z M1154.9,476L1154.9,476c1.3-2.8,4.4-3.9,6.9-5.3
		c9-4.3,18.2-8.5,27.4-12.7c2.4-1,5-2.1,7.7-1.9c2.6,0.1,2.5,3.4,1.4,5.2c-3.3,6.3-9.2,10.8-15.5,13.9c-7.2,3.3-15.4,5.1-23.4,4.1
		C1157.6,478.9,1154.6,478.3,1154.9,476z M1133.9,489.5c-3.9-0.6-7.8-1-11.7-0.9c-13,1.1-25.6,6.1-35.7,13.7
		c0.3-2.3,0.6-4.6,0.9-6.9c0.2-2.9,0.6-5.9,1.6-8.6c6.9-4.4,19.9-9.7,19.9-9.7c8.5-2.2,17.2,2.3,21.1,4.8
		C1131.4,484.4,1132.5,487,1133.9,489.5z M958.7,476.6c0.4-4,0.9-8.1,1.7-12.1c0.5-2.7,0.7-5,1.5-7c0-0.9,0.1-1.9,0.1-2.8
		c0.5,0,1,0,1.5,0.1c-0.1-8.8-0.1-17.6,1.5-25.9c-0.2-1.2,0-2.5,0.8-3.9c0.6-1.1,1.1-2.3,1.5-3.4c-0.5-0.8-1-1.6-1.5-2.3
		c2.8-1.8,5.5-4,6.9-5.2c2.3-1.8,4.5-3.8,6.8-5.7c2-1.7,6.4-4,7.1-6.4c0.2-0.6,0.4-1,0.5-1.2c-0.3-0.8-2.1-1.9-3.5-2.7
		c0.1,0.1,0.2,0.2,0.2,0.3c-0.4,0.1-0.8,0.1-1.2,0.1c-2.7-1.1-5-2.8-7.1-4.7c1.2,2,2.8,3.7,4.5,5.3c-0.9,0.1-1.9,0.1-2.8,0.4
		c-3.6-1.8-6.9-4.3-9.6-7.2c-1.7-1.6-2.9-3.6-4.5-5.3c0.8,4.5,3.5,8.4,5.7,12.4c-10.5-6.8-15.2-19-17.6-30.3l0,0
		c-0.6,5.2,0.7,10.3,1.6,15.4c-4.4-7.4-5.1-16.1-4.1-24.5c-0.3-0.7-0.5-1.4-0.8-2.1l-0.6,0.9c1.8-5,4.9-9.5,9.9-13.1
		c1.6-1.2,3.4-1.5,4.9-1.2c12.3-6.7,31.9-4.2,42.4,5.1c1.3,0.3,2.7,0.6,4,1c0.9,0.3,1.7,0.7,2.3,1.1c0.5-1,0.9-1.9,1.2-2.6
		c2.2,5,4.7,9.8,7.6,14.4c1-1,2.3-1.7,4.1-1.9c-0.2-1.7-0.3-3.5-0.5-5.2c8.6-6.4,19.1-10.1,29.7-12.4l1.7,1.7
		c2.4-2.4,5.5-4.3,9.5-5.6c1.9-0.6,3.7-0.9,5.7-1.2c-0.2-0.1-0.4-0.2-0.7-0.3c25.3-8.2,52.8-11.3,79.1-6.2c0.5,1.9,1.1,3.7,1.6,5.6
		c1-0.9,2.3-1.5,4.1-1.7h0.6c0.3-1.4,0.6-2.9,1-4.3c1.5-0.3,4.5-0.9,6-1.1c0.1-1.7,0.3-5,0.4-6.6c8.7-8.8,16.5-21.6,30.8-21.8
		c5.7-1,11.2,0.3,16.3,2.6c-0.2,0.1-0.3,0.3-0.5,0.5c-0.6,0.1-1.3,0.2-2,0.3c2.6,2.4,5.2,5,7.4,7.9c0,0.2,0,0.5-0.1,0.7
		c1.6,1.9,2.7,4.1,3.2,6.4c-1.1-1.3-2.2-2.6-3.5-3.7c-0.1,0.8-0.2,1.5-0.4,2.3c2.6,8,3.5,16.7,0.6,24.8c-0.1-5.2,0.2-10.5-1.4-15.4
		c-0.2,11.6-2.5,24.3-11.6,32.7c1.5-4.3,3.3-8.6,3.3-13.2c-1.3,1.9-2.1,4.1-3.4,6c-2.1,3.3-4.8,6.3-8.1,8.7
		c-0.9-0.1-1.8,0.1-2.8,0.1c1.4-1.8,2.6-3.8,3.4-5.9c-1.7,2.2-3.7,4.3-6.1,5.9c-0.4,0.1-0.8,0.1-1.2,0.1c0.1-0.1,0.1-0.3,0.2-0.4
		c-1.2,1-2.8,2.5-3,3.3c0.1,0.2,0.4,0.6,0.7,1.1c1.2,2.2,6,3.7,8.2,5c2.6,1.5,5.1,3,7.8,4.4c2.6,1.4,9.2,5.2,12.9,5.4l-2.4,3
		c1.4,0.9,2.9,1.8,4.3,2.7c0.6,1.1,1.1,2.3,1.6,3.4c3.8,8,7.1,16.3,10.7,24.4c0.1-0.1,0.3-0.2,0.5-0.2c1.3,2.9,2.4,5.4,3.1,7.1
		c-1.4-0.5-2.7-1.2-4.1-1.9c1.2,1.1,2.3,2.1,3.5,3.1c-0.9-0.1-1.8-0.1-2.7-0.1c-5.5-0.1-11-0.1-16.5-0.1c-7.8,0.2-15.7,1-23.3,2.8
		c-9.9,2.2-19.4,5.5-28.9,8.7c-9.7,3.4-18.9,8-28.5,11.5c-6.4,2.4-36.1,10.9-43,12.2c-1.5,0.2-2.9,0.3-4.4,0.5
		c-12.7,1-25.4,0.6-38.1,0.6c0.1,0,0.2-0.1,0.3-0.1c-17.7,1.1-35.7,1.6-52.7,7.3c0.1,0.3,0.2,0.6,0.4,1c-2.8,1-5.7,2-8.5,3.1
		c-2.7,1.1-5.3,2.4-7.9,3.7l-15,2.8c0-1.1,0-2.3,0-3.4c-0.3,1.1-0.5,2.3-0.7,3.5l-2.1,0.4C958.4,477.5,958.6,477,958.7,476.6z
		 M1060.5,500.5c-6.8,3.5-14.8,4.1-22.2,3.2c-6.6-1-13.5-3.5-18.2-8.5c-1.5-1.3-2.6-4.4-0.3-5.4s5-0.6,7.5-0.4
		c9.5,1.2,19.1,2.4,28.5,3.7c2.6,0.6,5.8,0.7,7.7,3C1064.3,498.2,1061.9,499.7,1060.5,500.5L1060.5,500.5z M1060.6,483.1
		L1060.6,483.1c-25.1-2.9-66.2-13.8-72.4,22.1c4.9-4.8,13.7-10.3,18.7-2.4c6.8,10.8,13.4,22.4,26.4,25.5c-3.4-3.6-7.7-6.4-9.8-11.2
		c4.9,3.4,9.2,8.3,15.2,9.8c-4.8-4.8-10.7-8.9-13.4-15.6c5,4.2,9.3,9.6,15.3,12.1c-2.7-3.7-6.2-6.8-8.2-11.1
		c15.6,7.6,21.7,0,35.8-4.8c-3,3.1-6.7,5.6-8.8,9.5c5.5-3.6,10.6-7.8,16.6-10.3c0.8-0.6,1.5-1.1,2.5-1.5c0.3-0.2,0.7-0.2,1-0.5
		c-0.4,1.6-0.8,3.3-1.2,5c-4.6,5.1-8.1,10.9-10.1,17.1c-0.2,1.6-0.5,3.2-0.7,4.9c-2.5,3-5.4,5.7-8.7,7.8c-9.9,6.8-21.9,9.7-33.8,9.8
		c-2.9,0-5.7,0.1-8.5-0.3c-5.2-0.8-10.2-2.7-14.3-5.9c-3.9-2.8-7.1-6.6-9.4-10.8c-5.3-9.4-10-19.2-12.3-29.7
		c-0.7-3.7-1.6-7.4-0.9-11.2c0.7-4.3,3.4-8,6.8-10.7c4.9-3.9,11-6.2,16.9-8.2c11-3.5,22.1-6.8,33.6-8c2.7-0.2,5.4-0.5,8.2-0.4
		c6.3,0.1,12.7,0.5,18.9,1.9c4.6,1.2,9.3,3,12.7,6.5c2.7,2.7,4.2,6.3,4.9,10.1C1074.7,484.3,1067.5,483.9,1060.6,483.1z
		 M982.8,621.2c-1.3-1.4-2.6-2.8-3.9-4.3c-10.6-9-14.8-22.5-21.4-34.3l0,0c-7.7-16.2-7.6-34.5-5.8-51.9c-7.8,2.6-8.7,10.7-10.5,17.6
		c-0.7-5.9,0.8-17.9,2.4-25.5c0.2,0.1,0.4,0.2,0.5,0.4c0.5-7.7,2.1-15.4,6.1-21.7l11.6-3.5c0.7,1.2,2.1,1.4,3.1,1.9
		c3.6,1.8,6.1,5.1,8,8.6c2.9,5.3,5.3,10.8,7.9,16.1c2.6,5.4,5.4,11,9.4,15.6c5.2,6.4,12.5,10.8,20.5,13.1
		c11.2,3.3,23.3,2.7,34.4-0.6c6.7-1.9,13-5,18.8-8.9c0.6-0.3,1.1-0.8,1.5-1.1c-3.7,10.7-2.2,22.7,2.1,34.4l4.8-0.3
		c-0.3-0.8-0.6-1.7-0.9-2.4c-2.8-7-4.6-14.7-4.5-22.3c-0.5-3.6-0.5-7.2,0.3-10.9c2.8-2.3,5.3-4.9,7.5-7.7c4.6-6.2,7.6-13.3,9.6-20.8
		c0.3-0.2,0.6-0.5,0.8-0.7c0.3-0.1,0.6-0.1,0.9-0.2c0.1-0.3,0.2-0.6,0.3-0.9c9.9-8.2,22.7-13.7,36.6-13.9c5.4-0.6,10.9-0.2,16.5,1
		c2.1,2.6,4.2,5.1,6.5,7.5c-3.5-1.7-7.6-1.8-10.8-0.2c-9.1,1.4-42.5,5-49.1,6.5c-0.4,1-1.2,2.5-2.5,4.5
		c-5.4,8.8,27.5,42.5,40.4,40.5c13.5-2.1,24.4-20.5,29.9-38c0.2-2.8-0.4-5.3-1.4-7.4c3.9,3.2,8.2,6.1,13,8.1c2.9,1.2,6,2.1,9.1,2.7
		c4.6,6,8.1,12.7,10.5,19.4c-1.6-6.5-4.2-13-7.7-19c1.4,0.2,2.9,0.2,4.4,0.3c4.4,0,8.9-0.5,13.3-1.1c11.5-1.8,22.9-5.7,32.2-12.8
		c5-3.7,9.2-8.7,10.8-14.9c3.3-12.8,5.1-26.1,5.7-39.4c0.4-5,3.7-9,6.1-13.4l3.6,3.2v0.1c1.5,1.3,3.1,2.6,4.6,3.9l5.2,4.5
		c6.8,12.4,18.1,39.7,20.1,53.9c2.9,20-4.6,32-8.7,51.5c-1.2,0.9-3.7,2.7-4.9,3.7c-2.2,4.4-4.1,9.1-5.9,13.8
		c-0.7,0.1-1.4,0.1-2.1-0.1l-1.2,3c-1.8,0-2.8-0.1-2.8-0.1l-9.9,12.5l-32.3,26c-4.3,2.4-8.4,5-11.8,8.6c-1.5,1.6-3,3.2-4.5,4.6
		l-2.8,2.3c-0.1-0.4-0.2-0.9-0.3-1.3h-0.4c-0.1,0.2-0.2,0.4-0.4,0.5c-1,0.5-2.1,0.9-3.2,1.2c-8.6,2.9-17.7,3.6-26.7,4.6
		c-3.8,0.4-7.7,0.8-11.5,1.6c-2,0.4-4,0.9-6.1,1.2c-1.6,0.2-3.2,0.3-4.7,0.7c-0.8,0.2-1.4,0.8-1.9,1.8c-1,1.8-2,4.2-2.3,6.3
		c-0.8,5.1,0,10.3,1.1,15.3c0.3,1.5,0.6,2.9,1,4.4c-3.6,1-7.2,2.2-10.7,3.4c-3-4.5-5.6-9.2-7.5-14.2c-1.5-4.2-2.5-8.5-2.7-13
		c-4.8,0.1-9.6,1-14.2,2.2c-0.7-2.5-3.3-4.1-6.2-3.6c-11.4,2.4-22.9,2.6-34.3,0.7l-1.1-4.7c-6.5,1.9-13.1,1.8-19.7-0.6
		c-7.7-2.7-14.8-7-22.7-9.2c-7.9-2.2-17.4-1.7-24.6-5.8c-2.2-1.3-4.2-2.9-6-4.7c0,0,0.2-2.7-4.2,0.1
		C986.5,620.2,984.9,620.7,982.8,621.2z M1147.3,702.1L1147.3,702.1c-2.2-8-7-15-11.7-21.7c-0.6-0.9-1.2-1.8-1.8-2.6
		c2.9-1.1,5.8-2.1,8.8-3c2.6,8.9,5.9,17.6,7.9,26.7C1150.8,703.5,1147.8,704.1,1147.3,702.1z M983.9,848.1L983.9,848.1
		c-7.8-12.3-13.1-26-18.2-39.2c-0.1-0.2-0.1-0.3-0.1-0.5c16.7-16.2,37.7-27,59.2-35.7c5.7-2.3,11.4-4.5,17.2-6.7
		c4-1.5,8.7-3.8,13.3-4.9c8.6,3.1,17.5,7.7,24.1,15.2c-8.5,2.4-15.9,5.8-21.9,10.2c-7.4,4.8-15.7,10.3-17.6,19.5l-0.2,1.1l0.9-0.6
		c2.4-1.7,4.7-3.7,6.9-5.7c2.8-2.5,5.7-5.1,9-7.1l0.2-0.1c7.2-4.4,14.7-9,22.8-11.6c2.7-0.8,5.6-1.4,8.4-1.8c2,0.7,4.3,0.3,5.8-0.8
		c1.4-0.2,2.9-0.5,4.3-0.7l0.3-0.1l0.2-3h-0.4c-0.9-0.1-1.7-0.2-2.5-0.3v-0.1c-0.1-2,0.1-3.9,0.5-5.7c4.7-6.7,11.7-11.3,19.1-12.1
		c3.9-0.2,9.5,0.3,13.6,3.6c5.4,4.4,6.5,11.8,7,19.3c-1.2-0.1-2.4-0.3-3.6-0.5c-1.5-0.3-3.1-0.5-4.7-0.7l-0.7-0.1l1.3,3.2l0.1,0.1
		c2.1,1,4.3,1.8,6.5,2.6c2.9,1,5.9,2.1,8.5,3.7c13.9,8.3,22,22.6,26.3,33c2.5,7.3,4.5,14.9,2.2,22l-0.3-0.6
		c-0.9-1.8-1.7-3.7-3.8-4.5l-0.7-0.3l0.1,0.7c0.2,1.4,0.4,2.8,0.7,4.2c0.8,5.2,1.7,10.5,1.1,15.9c-1.4-1.2-2.6-2.6-3.8-4
		c-1.4-1.6-2.8-3.3-4.6-4.6c-13.7-10.6-29.4-16.2-44.1-15.8c-22.3-0.2-41.1,10.4-53,19.3c-12.2,9.2-21,19.6-26.2,30.9
		c-0.8,1.7-1.5,3.4-2.2,5.1c-1,2.5-2,5-3.4,7.4c-4.2-3.1-8.2-6.5-12.1-10c-0.2-2.9-2.5-4.4-5-4.4c-1.8-1.5-3.5-3.1-5.3-4.5
		C999.4,869.1,991.3,858.3,983.9,848.1z M1158.9,996.4c0,12-0.4,25.9-6.3,38.1c-1.5,0.7-3.2,1-4.9,1.3c-1.3,0.2-2.6,0.5-3.9,0.9
		c-15.9,5.1-31.2,12.4-46.7,20.1c-6.4-1.9-13.7-4.3-19.6-8.9l-4.5-3.3c-8.4-6-17.1-12.3-23.7-20.5c-7-7-10.6-16.6-12.6-23.2
		c-0.7-2.4-1.3-5-1.9-7.4c-0.9-4.1-1.9-8.3-3.6-12.2l-0.1-0.1l-3.8-2.1l-0.1,0.6c-0.9,6.8,0.9,13.5,2.6,19.9
		c0.3,1.2,0.6,2.4,0.9,3.5c1.1,4.2,2.8,8.4,5.1,12.7c-5.9-3.1-11.2-7.2-16.4-11.1c-1.8-1.4-3.7-2.8-5.5-4.1
		c-1.3-1.1-2.6-2.2-3.8-3.4c-5.3-4.6-10.7-9.4-15.5-14.6c-1.6-2-3-3.8-4.4-5.6c0.8-0.4,1.4-1.1,2-2c14.5-25,23.6-52.5,27-81.2
		c3.4,2.8,7,5.6,10.7,8.2c0.2,2.5-0.3,4.9-0.8,7.3c-0.4,1.6-0.7,3.3-0.9,5c-2,10.6-0.2,21.3,1.9,30.3l0.1,0.2l0.2,0.1
		c0.5,0.2,1.5,0.5,2,0.6l0.6,0.2v-0.6c0-1.8-0.3-3.6-0.5-5.4c-0.3-2.5-0.7-5.2-0.4-7.8c0.4-2.7,0.6-5.4,0.9-8
		c0.7-7,1.5-14.2,3.9-20.9c0.8-1.9,1.5-3.9,2.2-5.8c2.5-6.8,5.1-13.8,9.8-19.5c7.1-10.2,16.7-19,27.7-25.3c1.6-0.8,3.2-1.7,4.8-2.5
		c5.7-3.1,11.7-6.2,18.1-7.7c16.4-4.4,33.6-2.4,47.1,5.5c7.5,3.8,13.4,9.1,17.3,15.3c0.6,0.9,1.2,1.8,1.8,2.8
		c6.7,10.3,13.7,20.9,15.2,33.3c0.8,3.6,0,7.4-0.9,10.5c-1,1.3-2.6,1-4.3,0.8c-0.8-0.1-1.6-0.2-2.3-0.2h-0.3l-0.1,0.2
		c-1.4,3-2,6.3-2.5,9.5c-0.5,2.8-1,5.7-2,8.3c-3.4,8.8-6.7,16.6-11.7,23.5c-1.5,2.1-3.3,3.9-5,5.7c-1.3,1.3-2.6,2.7-3.9,4.2
		l-0.4,0.5l0.7,0.1c1.5,0.3,2.9,0.6,4.4,1C1155.9,973.9,1159.2,985,1158.9,996.4L1158.9,996.4z M1280.6,950.4l-3.2,0.5
		c-10.3,1-21.3,2.9-33.3,5.7c-28.8,4.2-54.3,10-78,17.7c-1.4,0.4-2.8,0.7-4.3,1c-0.6-2-1.2-4-1.7-5.9c-0.9-3.3-1.9-6.8-3.2-10.1
		c7.3-7,11.6-16.1,15.8-25.6c1.8-4.2,2.8-8.7,3.7-13.1c0.3-1.5,0.6-3.1,1-4.6c4.1-0.2,8.8-1.1,9.8-5.6c2.8-12.5-2.3-24.6-7-32.6
		c-0.9-1.7-1.9-3.5-2.8-5.1c-1.1-1.9-2.2-3.8-3.2-5.8c0-2.2,0.2-4.4,0.5-6.6c0.3-2.6,0.6-5.2,0.4-7.9c-0.2-1.8,0.7-3.3,1.7-4.9
		c0.8-1.4,1.7-2.8,1.8-4.4c2.3-16.2-5.7-31-12.9-40.6c-4.7-7-11.4-13.1-19.8-18.1c1-2.1,2.1-4.2,3.2-6.4c0.7-1,1.2-2.1,1.7-3.3
		c2.9-5.5,6-11.1,9.4-16.8c4.6-7.8,10.2-14.9,16.6-21c3-1.9,5.9-3.6,8.7-5.4c6.7-4.2,13.5-9,20.5-13.6c9.1-3.5,18.7-4.7,27.8-3.5
		l1.7,0.7c8,3.4,16.2,6.9,22.3,13.1c15.5,14.4,25.3,33.2,32.2,48c1.1,1.8,2,3.8,2.9,5.7c2,4.2,4.1,8.6,7.8,11.8l0.2,0.2l0.2-0.1
		c5.6-2,11.1-4.4,16.4-6.7c5.4-2.3,10.9-4.7,16.5-6.8c7.5-2.9,15.6-5.6,26.4-8.8c2.3-0.7,4.7-1,7-1.1c-6.8,9-13.8,18.4-19.1,28.6
		c-11,20.4-22.4,42.2-31.6,64.7l-0.2,0.5c-4.8,13-9.7,26.5-11.6,40.5l0,0c-0.1,3.1-0.3,6.3-0.6,9.3c-0.4,4.3-0.7,8.8-0.6,13.3
		c-0.2,4,0.5,7.9,1.2,11.7c0.5,2.9,1.1,5.8,1.2,8.7C1297.6,947.8,1289,949.1,1280.6,950.4z M1487.6,904L1487.6,904
		c-6,5.2-13.3,8.9-20.3,12.4l-1.5,0.8c-1.2,0.6-2.5,1.2-3.7,1.7c-2.5,1.1-5.1,2.2-7.2,3.9l-0.7,0.6l1,0.1c2,0.3,4,0.4,6,0.5
		c-2,7.5-4.1,15.1-7.7,22.1c-8.4,16.1-17.4,29.2-27.4,40.1c-21.5,0.2-40.1,2.7-56.9,7.8c-1.1,0.3-2.1,0.7-3.1,1.2
		c-1.7,0.8-3.4,1.5-5.2,1.3c-3.6-2.6-7.1-5.8-10.2-9.6c-4.8-6.7-10.7-15.8-13.3-26c-2.5-10.3-2.4-21.1-2.3-31.5
		c0-2.6,0.1-5.2,0.1-7.8c0-0.8,0.1-1.6,0.1-2.4c0.2-1.9,0.3-3.9-0.4-5.9l-0.3-0.8l-0.5,0.7c-1.7,2.5-3.3,5.2-3.3,8.3
		c-0.8,5-0.9,10.1-0.9,15v2.6c-6.1-5-12.7-8.6-19.6-10.7c-0.4-6.2,0.3-12.6,0.9-18.7c0.3-2.4,0.5-4.9,0.7-7.3
		c4.2-20.4,12.1-41.7,24.9-67c2.7-5.9,5.8-11.7,8.7-17.4c3-5.8,6.1-11.9,8.9-18c0.9,0,1.9-0.1,2.9-0.1c3.4-0.1,7-0.3,10.4,0.4
		c6.4,1.9,11.2,5,14.3,9c-1.5,1.7-3.2,3.5-4.8,5.1c-3.7,3.9-7.6,8-10.5,12.7c-6.5,9.2-14.3,21.5-16.7,35.8c-0.2,1.5-0.5,3.1-0.8,4.5
		c-0.8,3.6-1.5,7.2-0.6,10.9l0.4,1.5l0.9-3.1c2.5-8.3,5-17,8.8-24.9c4.8-8.8,10.6-19,18.2-28.1l0.9-0.9c6.1-6.4,12.4-13.1,20.4-17.3
		c14-8.7,31.4-13.2,51.5-13.2c11.2-0.2,20.4,2.1,27.4,6.7c1.3,0.7,2.2,1.9,2.6,3.4h-0.4c-2.6-0.1-5.4-0.1-8.1,0.1l-0.6,0.1l0.3,0.6
		c1.4,2.8,4.2,3.8,7,4.6c1.1,0.3,2.2,0.7,3.1,1.2c7.4,3.3,13,7.2,17.1,11.8c4.5,6.1,6.7,13.5,8.8,20.7c0.2,0.8,0.5,1.6,0.7,2.5
		C1513.6,865.9,1505.4,890.5,1487.6,904z"/>
	<path d="M1064.3,363c4.1-0.1,8.1-0.7,11.5-2.7C1071.9,361,1068.1,362,1064.3,363z"/>
	<path d="M983.1,441.7c4.2,0.4,8.4-1.6,12.6-0.7c21,3.7,42.9,0,63.7-3.4c4.1-16.7-11.6-10.2-18.4-10.6c-19.4,1.8-38.4-0.8-57.3-3.3
		c-3.3-0.8-5.5,2.3-7.9,4l0,0C976,433.3,978.8,438.2,983.1,441.7z"/>
	<path d="M1094.6,578.5L1094.6,578.5c16.4-1.7,32.7-4.6,48.7-9.1c7.7-2.5,24.4-4.2,22.8-11.9c0.2-2.2-6.2-1.9-6.4,0.4
		c0.9,3.9-4.7,4.5-8.8,5.7c-6.1,1.9-12.3,3.6-18.5,5.1c-12.2,2.9-24.5,4.9-36.8,6.2C1091.5,575.3,1090.4,578.9,1094.6,578.5z"/>
	<path d="M1142.9,592c-6.9-6.8-17.4-3.6-25.6-1.5C1125,595.5,1134.5,593.1,1142.9,592z"/>
	<path d="M1131.6,623.1L1131.6,623.1c13.4-1.9,24.4-8.5,32.5-17.7c-7.8,7.7-17.7,13-29.7,14.7c-18.4,1.9-34.2-8.1-45.6-22.1
		c-0.5,1.4-1.3,2.6-2.2,3.7C1097.9,615.3,1113.5,625,1131.6,623.1z"/>
</g>
<path d="M2046.5-343.6L2046.5-343.6L2046.5-343.6z"/>
<path d="M2054.8-418.3c0.6-0.7,1.3-1.4,1.9-2v-0.3c0.1-0.3,0.1-0.6,0.2-0.8C2056.2-420.4,2055.5-419.4,2054.8-418.3z"/>
<path d="M2046.9-343c-0.1-0.2-0.3-0.4-0.4-0.6c0.6,1.3,1.3,2.7,2,4c-0.1-0.6-0.2-1.2-0.4-1.8C2047.7-341.9,2047.3-342.5,2046.9-343z
	"/>
<path d="M1461.5-801.3c-0.2-0.8-0.4-1.5-0.6-2.3C1460.6-802.6,1460.4-801.7,1461.5-801.3z"/>
<g>
	<path d="M491.2,407.9c-0.7-0.7-0.9-1.7-0.8-3l2.1-26.2c0.2-1.3,0.6-2.4,1.3-3.1c0.8-0.8,1.9-1.1,3.1-1.1h9.9c3.5,0,6.5,0.7,9,1.9
		c2.5,1.3,4.5,3.2,5.9,5.6c1.4,2.4,2.1,5.3,2.1,8.6c0,3.9-0.8,7.2-2.3,9.9s-3.7,4.8-6.7,6.2c-2.9,1.4-6.3,2.2-10.4,2.2h-10.4
		C492.8,408.9,491.8,408.6,491.2,407.9z M503.7,401.7c3.8,0,6.7-0.9,8.4-2.7c1.9-1.8,2.7-4.5,2.7-8.4c0-2.9-0.8-5.1-2.4-6.7
		c-1.6-1.5-3.9-2.3-6.9-2.3h-4.4l-1.6,20L503.7,401.7L503.7,401.7z"/>
	<path d="M528.5,408.1c-0.8-0.7-1.2-1.7-1-2.9l1.3-16.8c0.2-1.3,0.7-2.4,1.5-3c0.8-0.7,1.9-1,3.2-1c1.3,0,2.3,0.3,3,1
		c0.8,0.7,1.1,1.7,1,3l-1.3,16.8c-0.1,1.3-0.6,2.3-1.4,2.9s-1.9,1-3.1,1C530.3,409.2,529.3,408.8,528.5,408.1z M530.6,379.8
		c-0.8-0.8-1.3-1.8-1.3-3s0.4-2.3,1.3-3c0.8-0.8,2-1.1,3.5-1.1s2.6,0.3,3.5,1.1s1.3,1.8,1.3,3s-0.4,2.3-1.3,3s-2,1.2-3.5,1.2
		C532.7,380.9,531.5,380.6,530.6,379.8z"/>
	<path d="M542.2,407.8c-0.8-0.3-1.4-0.8-1.9-1.4c-0.4-0.6-0.6-1.3-0.6-1.9c0-0.8,0.3-1.6,0.8-2.2c0.5-0.7,1.2-0.9,2-0.9
		c0.5,0,1,0.2,1.6,0.4c1,0.5,2.2,0.8,3.5,1.2c1.3,0.3,2.5,0.4,3.6,0.4c0.9,0,1.7-0.1,2.2-0.3s0.8-0.6,0.8-1c0-0.5-0.3-0.9-1-1.3
		c-0.7-0.3-1.7-0.7-3.2-1.1c-1.7-0.4-3.2-0.9-4.4-1.4s-2.2-1.2-3-2.2c-0.8-0.9-1.3-2.2-1.3-3.8s0.5-2.9,1.4-4.1
		c0.9-1.2,2.3-2.1,4-2.8c1.8-0.7,3.8-1,6.2-1c1,0,2.3,0.2,3.6,0.4c1.3,0.3,2.5,0.6,3.5,1c0.7,0.3,1.2,0.8,1.5,1.4
		c0.3,0.6,0.5,1.2,0.5,1.9c0,0.8-0.3,1.5-0.8,2.1c-0.5,0.6-1.1,0.9-1.9,0.9c-0.5,0-0.9-0.1-1.4-0.3c-1.9-0.9-3.8-1.3-5.8-1.3
		c-1,0-1.8,0.1-2.4,0.3c-0.5,0.3-0.8,0.6-0.8,1c0,0.5,0.3,0.9,1,1.3c0.7,0.3,1.8,0.7,3.2,1.1c1.8,0.5,3.2,1,4.4,1.4
		c1.2,0.5,2.2,1.2,3,2.2c0.8,0.9,1.3,2.2,1.3,3.8c0,2.4-1,4.4-2.9,5.8c-1.9,1.3-4.8,2.1-8.4,2.1
		C547.5,409.3,544.7,408.8,542.2,407.8z"/>
	<path d="M587.5,398c-0.4,0.4-1,0.6-1.7,0.6h-12.7c0.4,2.9,2.2,4.4,5.3,4.4c0.9,0,1.7-0.1,2.4-0.3c0.6-0.2,1.4-0.5,2.4-0.9
		c0.6-0.3,1.1-0.4,1.5-0.4c0.8,0,1.3,0.3,1.7,0.8c0.4,0.6,0.6,1.2,0.6,2c0,0.7-0.2,1.3-0.4,1.9c-0.3,0.6-0.8,1.1-1.3,1.4
		c-0.8,0.5-1.9,0.9-3.3,1.2c-1.3,0.3-2.7,0.5-4.2,0.5c-2.6,0-4.9-0.5-6.8-1.4c-1.9-1-3.5-2.4-4.6-4.1c-1.1-1.8-1.6-3.9-1.6-6.2
		c0-2.5,0.5-4.8,1.6-6.7c1.1-2,2.5-3.5,4.4-4.7c1.9-1.2,4-1.7,6.3-1.7c3.5,0,6.2,1,8.2,3.1c1.9,2.1,2.9,5.1,2.9,8.8
		C588.1,396.9,587.9,397.5,587.5,398z M574.5,391.2c-0.7,0.7-1.2,1.8-1.4,3.3h7.8c0-1.4-0.3-2.4-0.9-3.2c-0.6-0.8-1.5-1.1-2.6-1.1
		C576.2,390.1,575.3,390.5,574.5,391.2z"/>
	<path d="M614.8,386.6c1.3,1.5,2,3.7,2,6.7c0,0.8,0,1.3-0.1,1.7l-0.8,10.3c-0.2,1.3-0.6,2.2-1.4,2.9s-1.9,1.1-3.2,1.1
		s-2.4-0.3-3.1-1.1c-0.8-0.8-1.1-1.7-0.9-2.9l0.8-10c0.1-1.3-0.1-2.4-0.7-3.1c-0.5-0.8-1.3-1.1-2.5-1.1c-1.3,0-2.3,0.4-2.9,1.3
		s-1.1,1.9-1.2,3.4l-0.8,9.7c-0.1,1.3-0.6,2.2-1.3,2.9c-0.8,0.8-1.9,1.1-3.2,1.1c-1.3,0-2.4-0.3-3.1-1.1c-0.8-0.7-1-1.7-1-2.9
		l1.3-16.9c0.1-1.2,0.5-2.1,1.4-2.9c0.8-0.8,2-1.1,3.3-1.1c1.1,0,2,0.3,2.6,0.8c0.7,0.6,1,1.3,1.1,2.3c0.8-1,1.9-1.8,3.3-2.4
		c1.3-0.6,2.8-0.8,4.4-0.8C611.4,384.3,613.5,385.1,614.8,386.6z M607.3,380.2c-0.6-0.3-1.3-0.6-2.1-1c-0.6-0.3-1.1-0.6-1.5-0.8
		c-0.3-0.2-0.8-0.3-1.2-0.3c-0.4,0-0.8,0.1-1.1,0.3c-0.3,0.3-0.6,0.5-1,0.9c-0.3,0.4-0.7,0.8-0.9,0.9c-0.3,0.2-0.6,0.3-1,0.3
		c-0.5,0-0.8-0.2-1.1-0.6s-0.3-0.9-0.3-1.6c0-0.8,0.3-1.8,0.8-2.6s1.2-1.6,1.9-2.2c0.8-0.6,1.7-0.8,2.6-0.8c0.8,0,1.4,0.1,2,0.3
		c0.6,0.3,1.3,0.6,2.2,1.1c0.7,0.3,1.2,0.6,1.6,0.8c0.3,0.2,0.8,0.3,1.1,0.3c0.4,0,0.8-0.1,1.1-0.3c0.3-0.3,0.6-0.5,0.9-0.9
		c0.3-0.4,0.7-0.8,0.9-0.9c0.3-0.2,0.6-0.3,1-0.3c0.9,0,1.4,0.8,1.4,2.2c0,0.8-0.3,1.8-0.8,2.6c-0.5,0.8-1.2,1.6-1.9,2.2
		c-0.8,0.6-1.7,0.8-2.6,0.8C608.7,380.5,608,380.4,607.3,380.2z"/>
	<path d="M626.6,407.8c-2-1-3.5-2.4-4.6-4.2c-1.1-1.8-1.6-3.9-1.6-6.3c0-2.7,0.6-5.1,1.7-7c1.1-1.9,2.7-3.5,4.6-4.5
		c2-1,4.4-1.6,7-1.6c2.7,0,5,0.5,7,1.4c2,1,3.5,2.4,4.6,4.1s1.6,3.9,1.6,6.2c0,2.7-0.6,5.1-1.7,7.1c-1.1,1.9-2.7,3.5-4.6,4.5
		c-2,1-4.4,1.6-7,1.6C630.9,409.3,628.6,408.8,626.6,407.8z M637.2,400.9c0.8-1.3,1.2-2.9,1.2-5c0-1.8-0.3-3.1-1.1-4
		c-0.8-0.8-1.9-1.3-3.4-1.3c-1.7,0-2.9,0.7-3.7,1.9s-1.2,2.9-1.2,4.9c0,1.9,0.3,3.2,1.1,4c0.8,0.8,1.9,1.3,3.4,1.3
		C635.2,402.9,636.5,402.3,637.2,400.9z"/>
	<path d="M657.4,401.1c0.8,0.9,1.2,2.3,1.2,4.1c0,1.9-0.4,3.7-1.3,5.6c-0.8,1.8-2.1,3.4-3.5,4.8c-0.5,0.5-1.1,0.8-1.8,0.8
		c-0.6,0-1.1-0.2-1.5-0.6c-0.4-0.4-0.7-0.9-0.7-1.4c0-0.5,0.3-1,0.8-1.5c1.3-1.3,2.1-2.6,2.6-3.9c-1.2-0.2-2.1-0.7-2.8-1.4
		s-1-1.8-1-2.9c0-1.6,0.4-2.8,1.3-3.5c0.9-0.8,2-1.2,3.4-1.2C655.4,399.7,656.6,400.1,657.4,401.1z"/>
	<path d="M694.4,403.6c0.3,0.5,0.5,1.1,0.5,1.9c0,1.4-0.4,2.4-1.3,2.9s-2.4,0.8-4.6,0.8c-3,0-5.3-0.8-6.9-2.2
		c-1.6-1.5-2.4-3.6-2.4-6.5c0-0.7,0-1.2,0.1-1.4l0.7-7.8H679c-1.2,0-2.1-0.3-2.7-0.8c-0.7-0.5-1-1.3-1-2.3c0-2.3,1.4-3.4,4.2-3.4
		h1.4l0.3-3.2c0.1-1.3,0.6-2.3,1.4-2.9s1.9-1.1,3.3-1.1s2.4,0.3,3.1,1.1c0.7,0.8,1,1.7,0.9,2.9l-0.3,3.2h2.6c1.2,0,2,0.3,2.7,0.8
		c0.7,0.5,0.9,1.3,0.9,2.2c0,1.2-0.3,2-1,2.6c-0.7,0.6-1.7,0.8-3.1,0.8h-2.6l-0.7,7.9c0,0.2-0.1,0.4-0.1,0.8c0,2,0.9,3.1,2.7,3.1
		l1-0.1c0.5-0.1,0.8-0.1,1.1-0.1C693.7,402.9,694.1,403.2,694.4,403.6z"/>
	<path d="M719.2,398c-0.4,0.4-1,0.6-1.7,0.6h-12.7c0.4,2.9,2.2,4.4,5.3,4.4c0.9,0,1.7-0.1,2.4-0.3c0.6-0.2,1.4-0.5,2.4-0.9
		c0.6-0.3,1.1-0.4,1.5-0.4c0.8,0,1.3,0.3,1.7,0.8c0.4,0.6,0.6,1.2,0.6,2c0,0.7-0.2,1.3-0.4,1.9c-0.3,0.6-0.8,1.1-1.3,1.4
		c-0.8,0.5-1.9,0.9-3.3,1.2c-1.3,0.3-2.7,0.5-4.2,0.5c-2.6,0-4.9-0.5-6.8-1.4c-1.9-1-3.5-2.4-4.6-4.1c-1.1-1.8-1.6-3.9-1.6-6.2
		c0-2.5,0.5-4.8,1.6-6.7c1.1-2,2.5-3.5,4.4-4.7c1.9-1.2,4-1.7,6.3-1.7c3.5,0,6.2,1,8.2,3.1c1.9,2.1,2.9,5.1,2.9,8.8
		C719.8,396.9,719.6,397.5,719.2,398z M706.2,391.2c-0.7,0.7-1.2,1.8-1.4,3.3h7.8c0-1.4-0.3-2.4-0.9-3.2c-0.6-0.8-1.5-1.1-2.6-1.1
		C707.9,390.1,707,390.5,706.2,391.2z"/>
	<path d="M728.8,407.9c-2-0.9-3.5-2.4-4.6-4.1s-1.6-3.9-1.6-6.2c0-2.7,0.6-5.1,1.7-7.1c1.1-2,2.7-3.5,4.8-4.6
		c2.1-1.1,4.5-1.6,7.4-1.6c1.6,0,3,0.2,4.4,0.4c1.3,0.3,2.4,0.7,3.4,1.2c0.5,0.3,0.9,0.7,1.2,1.2c0.3,0.5,0.4,1.1,0.4,1.7
		c0,0.9-0.3,1.7-0.8,2.4c-0.5,0.7-1.2,1-1.9,1c-0.4,0-0.9-0.1-1.3-0.3c-1.6-0.8-3.2-1.1-4.7-1.1c-1.8,0-3.1,0.6-4,1.7
		c-0.9,1.1-1.4,2.7-1.4,4.8c0,1.7,0.4,3,1.3,4c0.8,0.9,2,1.4,3.5,1.4c0.8,0,1.6-0.1,2.3-0.3s1.4-0.4,2.3-0.7c0.5-0.3,1-0.4,1.5-0.4
		c0.8,0,1.3,0.3,1.7,0.8c0.4,0.5,0.6,1.2,0.6,1.9c0,0.7-0.2,1.3-0.5,1.9c-0.3,0.7-0.8,1.1-1.4,1.5c-0.8,0.4-1.9,0.8-3.2,1.2
		c-1.3,0.3-2.6,0.5-3.9,0.5C733.1,409.3,730.8,408.8,728.8,407.9z"/>
	<path d="M771,386.6c1.3,1.5,2,3.7,2,6.7c0,0.8,0,1.3-0.1,1.7l-0.8,10.3c-0.2,1.3-0.6,2.2-1.4,2.9s-1.9,1.1-3.2,1.1
		c-1.3,0-2.4-0.3-3.1-1.1s-1.1-1.7-0.9-2.9l0.8-10c0.1-1.3-0.1-2.4-0.7-3.1c-0.5-0.8-1.3-1.1-2.5-1.1c-1.3,0-2.3,0.4-2.9,1.3
		c-0.7,0.8-1.1,1.9-1.2,3.4l-0.8,9.7c-0.1,1.3-0.6,2.2-1.3,2.9c-0.8,0.8-1.9,1.1-3.2,1.1c-1.3,0-2.4-0.3-3.1-1.1
		c-0.8-0.7-1-1.7-1-2.9l1.3-16.9c0.1-1.2,0.5-2.1,1.4-2.9c0.8-0.8,2-1.1,3.3-1.1c1.1,0,2,0.3,2.6,0.8c0.7,0.6,1,1.3,1.1,2.3
		c0.8-1,1.9-1.8,3.3-2.4s2.8-0.8,4.4-0.8C767.6,384.3,769.6,385.1,771,386.6z"/>
	<path d="M782.7,407.8c-2-1-3.5-2.4-4.6-4.2c-1.1-1.8-1.6-3.9-1.6-6.3c0-2.7,0.6-5.1,1.7-7c1.1-1.9,2.7-3.5,4.6-4.5
		c2-1,4.4-1.6,7-1.6c2.7,0,5,0.5,7,1.4c2,1,3.5,2.4,4.6,4.1s1.6,3.9,1.6,6.2c0,2.7-0.6,5.1-1.7,7.1c-1.1,1.9-2.7,3.5-4.6,4.5
		c-2,1-4.4,1.6-7,1.6C787.1,409.3,784.8,408.8,782.7,407.8z M793.3,400.9c0.8-1.3,1.2-2.9,1.2-5c0-1.8-0.3-3.1-1.1-4
		c-0.8-0.8-1.9-1.3-3.4-1.3c-1.7,0-2.9,0.7-3.7,1.9c-0.8,1.3-1.2,2.9-1.2,4.9c0,1.9,0.3,3.2,1.1,4c0.8,0.8,1.9,1.3,3.4,1.3
		C791.3,402.9,792.6,402.3,793.3,400.9z"/>
	<path d="M807.3,408.1c-0.8-0.7-1.2-1.7-1-2.9l2.2-26.9c0.1-1.3,0.6-2.4,1.4-3.1c0.8-0.7,1.9-1,3.1-1c1.3,0,2.3,0.3,3,1
		c0.8,0.7,1.2,1.7,1,3.1l-2.2,26.9c-0.1,1.3-0.6,2.3-1.4,2.9s-1.9,1-3.1,1C809.2,409.2,808.2,408.8,807.3,408.1z"/>
	<path d="M825.8,407.8c-2-1-3.5-2.4-4.6-4.2c-1.1-1.8-1.6-3.9-1.6-6.3c0-2.7,0.6-5.1,1.7-7c1.1-1.9,2.7-3.5,4.6-4.5
		c2-1,4.4-1.6,7-1.6c2.7,0,5,0.5,7,1.4c2,1,3.5,2.4,4.6,4.1s1.6,3.9,1.6,6.2c0,2.7-0.6,5.1-1.7,7.1c-1.1,1.9-2.7,3.5-4.6,4.5
		c-2,1-4.4,1.6-7,1.6C830.2,409.3,827.8,408.8,825.8,407.8z M836.4,400.9c0.8-1.3,1.2-2.9,1.2-5c0-1.8-0.3-3.1-1.1-4
		c-0.8-0.8-1.9-1.3-3.4-1.3c-1.7,0-2.9,0.7-3.7,1.9c-0.8,1.3-1.2,2.9-1.2,4.9c0,1.9,0.3,3.2,1.1,4c0.8,0.8,1.9,1.3,3.4,1.3
		C834.4,402.9,835.6,402.3,836.4,400.9z"/>
	<path d="M875.5,385.5c0.7,0.8,1,1.7,0.9,2.9l-1.3,17.6c-0.3,4-1.8,7-4.3,9c-2.5,2-6.2,3.1-10.8,3.1c-1.6,0-3.1-0.2-4.7-0.5
		s-2.9-0.8-4.1-1.3c-1.3-0.7-1.9-1.7-1.9-2.9c0-0.8,0.3-1.7,0.8-2.4c0.6-0.7,1.3-1,2.2-1c0.3,0,0.7,0.1,1.1,0.3
		c2.9,1,5.2,1.4,6.8,1.4c1.9,0,3.5-0.4,4.5-1.3c1-0.8,1.6-2.1,1.8-3.9l0.1-1.2c-1.6,1.9-4,2.9-7.2,2.9c-2,0-3.8-0.4-5.4-1.3
		s-2.8-2.2-3.6-3.9s-1.3-3.6-1.3-5.8c0-2.4,0.5-4.6,1.4-6.6c1-1.9,2.4-3.5,4.1-4.6c1.8-1.1,3.8-1.7,6.1-1.7c3.1,0,5.6,1.1,7.2,3.3
		c0.3-1,0.8-1.8,1.6-2.4c0.8-0.6,1.8-0.8,2.9-0.8C873.8,384.4,874.8,384.7,875.5,385.5z M865.9,400.1c0.9-1,1.3-2.4,1.3-4.1
		c0-1.8-0.4-3.1-1.3-4c-0.8-0.8-2-1.3-3.5-1.3s-2.7,0.5-3.6,1.6c-0.8,1.1-1.3,2.5-1.3,4.5c0,1.6,0.4,2.8,1.3,3.7
		c0.8,0.8,2,1.3,3.5,1.3C863.8,401.7,865.1,401.2,865.9,400.1z"/>
	<path d="M881.1,408.1c-0.8-0.7-1.2-1.7-1-2.9l1.3-16.8c0.2-1.3,0.7-2.4,1.5-3c0.8-0.7,1.9-1,3.2-1c1.3,0,2.3,0.3,3,1
		c0.8,0.7,1.1,1.7,1,3l-1.3,16.8c-0.1,1.3-0.6,2.3-1.4,2.9s-1.9,1-3.1,1C883,409.2,882,408.8,881.1,408.1z M883.3,379.8
		c-0.8-0.8-1.3-1.8-1.3-3s0.4-2.3,1.3-3s2-1.1,3.5-1.1c1.4,0,2.6,0.3,3.5,1.1s1.3,1.8,1.3,3s-0.4,2.3-1.3,3s-2,1.2-3.5,1.2
		C885.3,380.9,884.1,380.6,883.3,379.8z"/>
	<path d="M914,386.7c1.8,1.6,2.7,4,2.7,7.2c0,0.7,0,1.3-0.1,1.6l-0.8,9.7c-0.1,1.3-0.5,2.3-1.3,2.9c-0.8,0.7-1.8,1-3.1,1
		c-1.1,0-1.9-0.3-2.6-0.9c-0.7-0.6-1.1-1.4-1.1-2.4c-0.6,1.1-1.4,1.9-2.5,2.5c-1.1,0.6-2.3,0.8-3.7,0.8c-1.6,0-2.9-0.3-4.3-0.9
		c-1.3-0.6-2.3-1.4-3-2.5c-0.8-1.1-1.1-2.3-1.1-3.6c0-1.9,0.4-3.4,1.3-4.5c0.9-1.1,2.4-1.9,4.4-2.4c2-0.5,4.6-0.8,7.9-0.8h1.8
		l0.1-0.3c0.2-2.3-1.2-3.5-3.9-3.5c-1.3,0-3.1,0.4-5.5,1.3c-0.6,0.3-1.1,0.3-1.7,0.3c-0.8,0-1.5-0.3-2-0.8s-0.8-1.2-0.8-1.9
		c0-0.6,0.2-1.2,0.5-1.8c0.3-0.6,0.8-1,1.6-1.4c2.4-1.3,5.4-2,8.9-2C909.5,384.3,912.2,385.1,914,386.7z M906.9,402.3
		c0.8-0.8,1.2-1.9,1.3-3.3l0.1-0.5h-1.3c-1.9,0-3.4,0.2-4.2,0.6s-1.3,1.1-1.3,2.1c0,0.7,0.3,1.3,0.7,1.7c0.5,0.4,1.1,0.7,1.9,0.7
		C905.2,403.5,906.2,403.1,906.9,402.3z"/>
	<path d="M508.1,443.5c0.7-0.4,1.3-0.6,2.1-0.6c1,0,1.9,0.3,2.8,1s1.2,1.5,1.2,2.4c0,0.5-0.2,1.1-0.4,1.7L500,474.2
		c-0.4,0.8-1,1.4-1.6,1.9s-1.3,0.6-2,0.6c-0.9,0-1.8-0.3-2.4-1c-0.7-0.7-1-1.5-1-2.4c0-0.7,0.2-1.3,0.5-2l2.5-5.1l-6.5-18.2
		c-0.2-0.3-0.2-0.7-0.2-1c0-1.1,0.5-2,1.4-2.8c1-0.8,2-1.2,3.2-1.2c0.8,0,1.4,0.2,2,0.6s1,1,1.3,1.9l3.8,11.6l5.6-11.5
		C507,444.6,507.5,444,508.1,443.5z"/>
	<path d="M552.5,444.3c1.5,0.9,2.8,2.3,3.6,4s1.3,3.8,1.3,6.2c0,2.6-0.5,5-1.4,7c-0.9,2-2.4,3.6-4,4.8c-1.8,1.2-3.8,1.7-6.1,1.7
		c-2.9,0-5.2-1-7-3.1l-0.7,8.1c-0.1,1.2-0.5,2-1.3,2.8c-0.8,0.7-1.9,1-3.1,1c-1.3,0-2.4-0.3-3.1-1.1c-0.8-0.8-1.1-1.7-1-2.9l2-25.8
		c0.1-1.2,0.5-2.2,1.3-2.9s1.9-1.1,3.2-1.1c1.2,0,2,0.3,2.8,0.8c0.7,0.6,1.1,1.3,1.2,2.3c0.8-1,1.8-1.9,3-2.4
		c1.2-0.6,2.6-0.8,4.2-0.8C549.1,442.9,550.9,443.4,552.5,444.3z M547.4,459.8c0.8-1.2,1.3-2.8,1.3-4.7c0-1.9-0.4-3.2-1.3-4.2
		s-1.9-1.5-3.5-1.5c-1.4,0-2.6,0.6-3.5,1.8c-0.8,1.2-1.3,2.7-1.3,4.6c0,1.9,0.4,3.4,1.2,4.4c0.8,1,1.9,1.5,3.4,1.5
		C545.3,461.6,546.6,461,547.4,459.8z"/>
	<path d="M580.8,445.3c1.8,1.6,2.7,4,2.7,7.2c0,0.7,0,1.3-0.1,1.6l-0.8,9.7c-0.1,1.3-0.5,2.3-1.3,2.9c-0.8,0.7-1.8,1-3.1,1
		c-1.1,0-1.9-0.3-2.6-0.9c-0.7-0.6-1.1-1.4-1.1-2.4c-0.6,1.1-1.4,1.9-2.5,2.5c-1.1,0.6-2.3,0.8-3.7,0.8c-1.6,0-2.9-0.3-4.3-0.9
		c-1.3-0.6-2.3-1.4-3-2.5c-0.8-1.1-1.1-2.3-1.1-3.6c0-1.9,0.4-3.4,1.3-4.5c0.9-1.1,2.4-1.9,4.4-2.4s4.6-0.8,7.9-0.8h1.8l0.1-0.3
		c0.2-2.3-1.2-3.5-3.9-3.5c-1.3,0-3.1,0.4-5.5,1.3c-0.6,0.3-1.1,0.3-1.7,0.3c-0.8,0-1.5-0.3-2-0.8c-0.5-0.6-0.8-1.2-0.8-1.9
		c0-0.6,0.2-1.2,0.5-1.8c0.3-0.6,0.8-1,1.6-1.4c2.4-1.3,5.4-2,8.9-2C576.3,442.9,579.1,443.7,580.8,445.3z M573.7,460.9
		c0.8-0.8,1.2-1.9,1.3-3.3l0.1-0.5h-1.3c-1.9,0-3.4,0.2-4.2,0.6s-1.3,1.1-1.3,2.1c0,0.7,0.3,1.3,0.7,1.7c0.5,0.4,1.1,0.7,1.9,0.7
		C572,462.2,572.9,461.7,573.7,460.9z"/>
	<path d="M588.6,466.5c-0.8-0.3-1.4-0.8-1.9-1.4c-0.4-0.6-0.6-1.3-0.6-1.9c0-0.8,0.3-1.6,0.8-2.2c0.5-0.7,1.2-0.9,2-0.9
		c0.5,0,1,0.2,1.6,0.4c1,0.5,2.2,0.8,3.5,1.2c1.3,0.3,2.5,0.4,3.6,0.4c0.9,0,1.7-0.1,2.2-0.3c0.5-0.3,0.8-0.6,0.8-1
		c0-0.5-0.3-0.9-1-1.3c-0.7-0.3-1.7-0.7-3.2-1.1c-1.7-0.4-3.2-0.9-4.4-1.4s-2.2-1.2-3-2.2c-0.8-0.9-1.3-2.2-1.3-3.8
		c0-1.6,0.5-2.9,1.4-4.1c0.9-1.2,2.3-2.1,4-2.8c1.8-0.7,3.8-1,6.2-1c1,0,2.3,0.2,3.6,0.4c1.3,0.3,2.5,0.6,3.5,1
		c0.7,0.3,1.2,0.8,1.5,1.4c0.3,0.6,0.5,1.2,0.5,1.9c0,0.8-0.3,1.5-0.8,2.1c-0.5,0.6-1.1,0.9-1.9,0.9c-0.5,0-0.9-0.1-1.4-0.3
		c-1.9-0.9-3.8-1.3-5.8-1.3c-1,0-1.8,0.1-2.4,0.3c-0.5,0.3-0.8,0.6-0.8,1c0,0.5,0.3,0.9,1,1.3s1.8,0.7,3.2,1.1
		c1.8,0.5,3.2,1,4.4,1.4c1.2,0.5,2.2,1.2,3,2.2c0.8,0.9,1.3,2.2,1.3,3.8c0,2.4-1,4.4-2.9,5.8c-1.9,1.3-4.8,2.1-8.4,2.1
		C593.9,468,591.1,467.5,588.6,466.5z"/>
	<path d="M612.6,466.8c-0.8-0.7-1.2-1.7-1-2.9l1.3-16.8c0.2-1.3,0.7-2.4,1.5-3c0.8-0.7,1.9-1,3.2-1c1.3,0,2.3,0.3,3,1
		c0.8,0.7,1.1,1.7,1,3l-1.3,16.8c-0.1,1.3-0.6,2.3-1.4,2.9c-0.8,0.7-1.9,1-3.1,1C614.5,467.8,613.5,467.5,612.6,466.8z M614.7,438.5
		c-0.8-0.8-1.3-1.8-1.3-3c0-1.3,0.4-2.3,1.3-3c0.8-0.8,2-1.1,3.5-1.1c1.4,0,2.6,0.3,3.5,1.1c0.8,0.8,1.3,1.8,1.3,3
		c0,1.3-0.4,2.3-1.3,3c-0.8,0.8-2,1.2-3.5,1.2C616.7,439.6,615.6,439.2,614.7,438.5z"/>
	<path d="M631.1,466.5c-2-1-3.5-2.4-4.6-4.2c-1.1-1.8-1.6-3.9-1.6-6.3c0-2.7,0.6-5.1,1.7-7c1.1-1.9,2.7-3.5,4.6-4.5
		c2-1,4.4-1.6,7-1.6c2.7,0,5,0.5,7,1.4c2,1,3.5,2.4,4.6,4.1s1.6,3.9,1.6,6.2c0,2.7-0.6,5.1-1.7,7.1c-1.1,1.9-2.7,3.5-4.6,4.5
		c-2,1-4.4,1.6-7,1.6C635.4,468,633.1,467.5,631.1,466.5z M641.7,459.5c0.8-1.3,1.2-2.9,1.2-5c0-1.8-0.3-3.1-1.1-4s-1.9-1.3-3.4-1.3
		c-1.7,0-2.9,0.7-3.7,1.9s-1.2,2.9-1.2,4.9c0,1.9,0.3,3.2,1.1,4c0.8,0.8,1.9,1.3,3.4,1.3C639.7,461.6,640.9,460.9,641.7,459.5z
		 M640.2,440.6c-0.6,0-1.1-0.2-1.4-0.5s-0.6-0.8-0.6-1.4c0-0.4,0.1-0.9,0.3-1.3l2-5.1c0.3-0.7,0.8-1.2,1.3-1.5
		c0.5-0.3,1.1-0.5,1.7-0.5c0.8,0,1.6,0.3,2.3,0.8c0.7,0.6,1,1.3,1,2.2c0,0.8-0.3,1.6-1,2.4l-3.2,3.9
		C641.9,440.2,641.1,440.6,640.2,440.6z"/>
	<path d="M678.2,445.2c1.3,1.5,2,3.7,2,6.7c0,0.8,0,1.3-0.1,1.7l-0.8,10.3c-0.2,1.3-0.6,2.2-1.4,2.9s-1.9,1.1-3.2,1.1
		c-1.3,0-2.4-0.3-3.1-1.1s-1.1-1.7-0.9-2.9l0.8-10c0.1-1.3-0.1-2.4-0.7-3.1c-0.5-0.8-1.3-1.1-2.5-1.1c-1.3,0-2.3,0.4-2.9,1.3
		s-1.1,1.9-1.2,3.4l-0.8,9.7c-0.1,1.3-0.6,2.2-1.3,2.9c-0.8,0.8-1.9,1.1-3.2,1.1s-2.4-0.3-3.1-1.1c-0.8-0.7-1-1.7-1-2.9l1.3-16.9
		c0.1-1.2,0.5-2.1,1.4-2.9c0.8-0.8,2-1.1,3.3-1.1c1.1,0,2,0.3,2.6,0.8c0.7,0.6,1,1.3,1.1,2.3c0.8-1,1.9-1.8,3.3-2.4
		c1.3-0.6,2.8-0.8,4.4-0.8C674.8,442.9,676.8,443.7,678.2,445.2z"/>
	<path d="M718.4,445.3c1.8,1.6,2.7,4,2.7,7.2c0,0.7,0,1.3-0.1,1.6l-0.8,9.7c-0.1,1.3-0.5,2.3-1.3,2.9c-0.8,0.7-1.8,1-3.1,1
		c-1.1,0-1.9-0.3-2.6-0.9c-0.7-0.6-1.1-1.4-1.1-2.4c-0.6,1.1-1.4,1.9-2.5,2.5c-1.1,0.6-2.3,0.8-3.7,0.8c-1.6,0-2.9-0.3-4.3-0.9
		c-1.3-0.6-2.3-1.4-3-2.5c-0.8-1.1-1.1-2.3-1.1-3.6c0-1.9,0.4-3.4,1.3-4.5c0.9-1.1,2.4-1.9,4.4-2.4c2-0.5,4.6-0.8,7.9-0.8h1.8
		l0.1-0.3c0.2-2.3-1.2-3.5-3.9-3.5c-1.3,0-3.1,0.4-5.5,1.3c-0.6,0.3-1.1,0.3-1.7,0.3c-0.8,0-1.5-0.3-2-0.8c-0.5-0.6-0.8-1.2-0.8-1.9
		c0-0.6,0.2-1.2,0.5-1.8c0.3-0.6,0.8-1,1.6-1.4c2.4-1.3,5.4-2,8.9-2C713.8,442.9,716.6,443.7,718.4,445.3z M711.3,460.9
		c0.8-0.8,1.2-1.9,1.3-3.3l0.1-0.5h-1.3c-1.9,0-3.4,0.2-4.2,0.6s-1.3,1.1-1.3,2.1c0,0.7,0.3,1.3,0.7,1.7c0.5,0.4,1.1,0.7,1.9,0.7
		C709.5,462.2,710.4,461.7,711.3,460.9z"/>
	<path d="M726.2,466.8c-0.8-0.7-1.2-1.7-1-2.9l2.2-26.9c0.1-1.3,0.6-2.4,1.4-3.1c0.8-0.7,1.9-1,3.1-1c1.3,0,2.3,0.3,3,1
		c0.8,0.7,1.2,1.7,1,3.1l-2.2,26.9c-0.1,1.3-0.6,2.3-1.4,2.9c-0.8,0.7-1.9,1-3.1,1C728,467.8,727,467.5,726.2,466.8z"/>
	<path d="M753.8,466.5c-0.8-0.3-1.4-0.8-1.9-1.4c-0.4-0.6-0.6-1.3-0.6-1.9c0-0.8,0.3-1.6,0.8-2.2c0.5-0.7,1.2-0.9,2-0.9
		c0.5,0,1,0.2,1.6,0.4c1,0.5,2.2,0.8,3.5,1.2c1.3,0.3,2.5,0.4,3.6,0.4c0.9,0,1.7-0.1,2.2-0.3c0.5-0.3,0.8-0.6,0.8-1
		c0-0.5-0.3-0.9-1-1.3c-0.7-0.3-1.7-0.7-3.2-1.1c-1.7-0.4-3.2-0.9-4.4-1.4s-2.2-1.2-3-2.2c-0.8-0.9-1.3-2.2-1.3-3.8
		c0-1.6,0.5-2.9,1.4-4.1c0.9-1.2,2.3-2.1,4-2.8c1.8-0.7,3.8-1,6.2-1c1,0,2.3,0.2,3.6,0.4c1.3,0.3,2.5,0.6,3.5,1
		c0.7,0.3,1.2,0.8,1.5,1.4c0.3,0.6,0.5,1.2,0.5,1.9c0,0.8-0.3,1.5-0.8,2.1c-0.5,0.6-1.1,0.9-1.9,0.9c-0.5,0-0.9-0.1-1.4-0.3
		c-1.9-0.9-3.8-1.3-5.8-1.3c-1,0-1.8,0.1-2.4,0.3c-0.5,0.3-0.8,0.6-0.8,1c0,0.5,0.3,0.9,1,1.3s1.8,0.7,3.2,1.1
		c1.8,0.5,3.2,1,4.4,1.4c1.2,0.5,2.2,1.2,3,2.2c0.8,0.9,1.3,2.2,1.3,3.8c0,2.4-1,4.4-2.9,5.8c-1.9,1.3-4.8,2.1-8.4,2.1
		C759.1,468,756.4,467.5,753.8,466.5z"/>
	<path d="M799.2,456.6c-0.4,0.4-1,0.6-1.7,0.6h-12.7c0.4,2.9,2.2,4.4,5.3,4.4c0.9,0,1.7-0.1,2.4-0.3c0.6-0.2,1.4-0.5,2.4-0.9
		c0.6-0.3,1.1-0.4,1.5-0.4c0.8,0,1.3,0.3,1.7,0.8c0.4,0.6,0.6,1.2,0.6,2c0,0.7-0.2,1.3-0.4,1.9c-0.3,0.6-0.8,1.1-1.3,1.4
		c-0.8,0.5-1.9,0.9-3.3,1.2c-1.3,0.3-2.7,0.5-4.2,0.5c-2.6,0-4.9-0.5-6.8-1.4c-1.9-1-3.5-2.4-4.6-4.1c-1.1-1.8-1.6-3.9-1.6-6.2
		c0-2.5,0.5-4.8,1.6-6.7c1.1-2,2.5-3.5,4.4-4.7c1.9-1.2,4-1.7,6.3-1.7c3.5,0,6.2,1,8.2,3.1c1.9,2.1,2.9,5.1,2.9,8.8
		C799.8,455.6,799.6,456.2,799.2,456.6z M786.2,449.9c-0.7,0.7-1.2,1.8-1.4,3.3h7.8c0-1.4-0.3-2.4-0.9-3.2s-1.5-1.1-2.6-1.1
		C787.9,448.8,786.9,449.1,786.2,449.9z"/>
	<path d="M822.6,443.8c0.6,0.6,0.8,1.4,0.7,2.6c-0.2,1.3-0.5,2.3-1.2,2.9c-0.7,0.6-1.8,0.9-3.5,1.1l-1.3,0.2
		c-1.9,0.3-3.1,0.7-3.8,1.4c-0.7,0.7-1.1,1.9-1.3,3.5l-0.7,8.3c-0.1,1.3-0.6,2.3-1.4,2.9s-1.9,1-3.1,1c-1.3,0-2.3-0.3-3-1
		c-0.8-0.7-1.2-1.7-1-2.9l1.3-16.9c0.2-1.3,0.7-2.3,1.5-2.9c0.9-0.7,1.9-1,3.1-1c1.2,0,2,0.3,2.7,0.9c0.7,0.7,1,1.5,0.9,2.7
		c0.9-1.1,2-1.9,3.3-2.5c1.3-0.7,2.4-1,3.6-1l0.6-0.1C821.2,442.9,822,443.2,822.6,443.8z"/>
	<path d="M843.4,443.5c0.7-0.4,1.3-0.6,2.1-0.6c1,0,1.9,0.3,2.8,1s1.2,1.5,1.2,2.4c0,0.5-0.2,1.1-0.4,1.7l-8.8,16.8
		c-0.5,1-1.3,1.8-2.2,2.4c-0.9,0.6-1.9,0.8-2.9,0.8s-1.9-0.3-2.7-0.8c-0.8-0.6-1.4-1.3-1.8-2.3l-6.1-16.9c-0.2-0.3-0.2-0.7-0.2-1
		c0-1.1,0.5-2,1.4-2.8c1-0.8,2-1.2,3.2-1.2c0.8,0,1.4,0.2,2,0.6c0.6,0.4,1,1,1.3,1.9l3.8,11.6l5.6-11.5
		C842.2,444.6,842.7,444,843.4,443.5z"/>
	<path d="M852.4,466.8c-0.8-0.7-1.2-1.7-1-2.9l1.3-16.8c0.2-1.3,0.7-2.4,1.5-3c0.8-0.7,1.9-1,3.2-1c1.3,0,2.3,0.3,3,1
		c0.8,0.7,1.1,1.7,1,3l-1.3,16.8c-0.1,1.3-0.6,2.3-1.4,2.9c-0.8,0.7-1.9,1-3.1,1C854.2,467.8,853.2,467.5,852.4,466.8z M854.4,438.5
		c-0.8-0.8-1.3-1.8-1.3-3c0-1.3,0.4-2.3,1.3-3c0.8-0.8,2-1.1,3.5-1.1s2.6,0.3,3.5,1.1c0.8,0.8,1.3,1.8,1.3,3c0,1.3-0.4,2.3-1.3,3
		c-0.8,0.8-2,1.2-3.5,1.2C856.5,439.6,855.4,439.2,854.4,438.5z"/>
	<path d="M870.9,466.5c-2-0.9-3.5-2.4-4.6-4.1s-1.6-3.9-1.6-6.2c0-2.7,0.6-5.1,1.7-7.1c1.1-2,2.7-3.5,4.8-4.6
		c2.1-1.1,4.5-1.6,7.4-1.6c1.6,0,3,0.2,4.4,0.4c1.3,0.3,2.4,0.7,3.4,1.2c0.5,0.3,0.9,0.7,1.2,1.2c0.3,0.5,0.4,1.1,0.4,1.7
		c0,0.9-0.3,1.7-0.8,2.4c-0.5,0.7-1.2,1-1.9,1c-0.4,0-0.9-0.1-1.3-0.3c-1.6-0.8-3.2-1.1-4.7-1.1c-1.8,0-3.1,0.6-4,1.7
		c-0.9,1.1-1.4,2.7-1.4,4.8c0,1.7,0.4,3,1.3,4c0.8,0.9,2,1.4,3.5,1.4c0.8,0,1.6-0.1,2.3-0.3s1.4-0.4,2.3-0.7c0.5-0.3,1-0.4,1.5-0.4
		c0.8,0,1.3,0.3,1.7,0.8c0.4,0.5,0.6,1.2,0.6,1.9c0,0.7-0.2,1.3-0.5,1.9c-0.3,0.7-0.8,1.1-1.4,1.5c-0.8,0.4-1.9,0.8-3.2,1.2
		c-1.3,0.3-2.6,0.5-3.9,0.5C875.2,468,872.9,467.5,870.9,466.5z"/>
	<path d="M890.5,466.8c-0.8-0.7-1.2-1.7-1-2.9l1.3-16.8c0.2-1.3,0.7-2.4,1.5-3c0.8-0.7,1.9-1,3.2-1c1.3,0,2.3,0.3,3,1
		c0.8,0.7,1.1,1.7,1,3l-1.3,16.8c-0.1,1.3-0.6,2.3-1.4,2.9c-0.8,0.7-1.9,1-3.1,1C892.4,467.8,891.3,467.5,890.5,466.8z M892.6,438.5
		c-0.8-0.8-1.3-1.8-1.3-3c0-1.3,0.4-2.3,1.3-3c0.8-0.8,2-1.1,3.5-1.1c1.4,0,2.6,0.3,3.5,1.1c0.8,0.8,1.3,1.8,1.3,3
		c0,1.3-0.4,2.3-1.3,3c-0.8,0.8-2,1.2-3.5,1.2C894.6,439.6,893.5,439.2,892.6,438.5z"/>
	<path d="M909,466.5c-2-1-3.5-2.4-4.6-4.2c-1.1-1.8-1.6-3.9-1.6-6.3c0-2.7,0.6-5.1,1.7-7c1.1-1.9,2.7-3.5,4.6-4.5c2-1,4.4-1.6,7-1.6
		c2.7,0,5,0.5,7,1.4c2,1,3.5,2.4,4.6,4.1c1.1,1.8,1.6,3.9,1.6,6.2c0,2.7-0.6,5.1-1.7,7.1c-1.1,1.9-2.7,3.5-4.6,4.5
		c-2,1-4.4,1.6-7,1.6C913.3,468,911,467.5,909,466.5z M919.6,459.5c0.8-1.3,1.2-2.9,1.2-5c0-1.8-0.3-3.1-1.1-4
		c-0.8-0.8-1.9-1.3-3.4-1.3c-1.7,0-2.9,0.7-3.7,1.9s-1.2,2.9-1.2,4.9c0,1.9,0.3,3.2,1.1,4c0.8,0.8,1.9,1.3,3.4,1.3
		C917.5,461.6,918.8,460.9,919.6,459.5z"/>
	<path d="M516.2,492.6c0.8,0.8,1.1,1.7,1,2.9l-2.1,27c-0.1,1.2-0.6,2.2-1.3,2.9c-0.8,0.8-1.9,1.1-3.2,1.1c-1.2,0-2-0.3-2.7-0.8
		c-0.7-0.6-1.1-1.3-1.2-2.3c-0.8,1-1.8,1.9-3,2.4c-1.3,0.6-2.6,0.8-4.1,0.8c-2,0-3.8-0.5-5.4-1.4c-1.5-0.9-2.8-2.3-3.6-4
		s-1.3-3.8-1.3-6.2c0-2.6,0.5-5,1.4-7c1-2,2.4-3.6,4-4.8c1.8-1.2,3.8-1.7,6.1-1.7c2.9,0,5.3,1,7,3.1l0.8-9.4c0.1-1.1,0.5-2,1.3-2.7
		s1.9-1,3.1-1C514.4,491.5,515.5,491.9,516.2,492.6z M506,518.4c0.8-1.2,1.3-2.7,1.3-4.6s-0.4-3.4-1.2-4.4s-1.9-1.5-3.4-1.5
		c-1.5,0-2.7,0.6-3.5,1.8s-1.3,2.8-1.3,4.7c0,1.9,0.4,3.2,1.2,4.2c0.8,1,1.9,1.5,3.5,1.5C504,520.2,505.2,519.6,506,518.4z"/>
	<path d="M542.6,515.2c-0.4,0.4-1,0.6-1.7,0.6h-12.7c0.4,2.9,2.2,4.4,5.3,4.4c0.9,0,1.7-0.1,2.4-0.3c0.6-0.2,1.4-0.5,2.4-0.9
		c0.6-0.3,1.1-0.4,1.5-0.4c0.8,0,1.3,0.3,1.7,0.8c0.4,0.6,0.6,1.2,0.6,2c0,0.7-0.2,1.3-0.4,1.9s-0.8,1.1-1.3,1.4
		c-0.8,0.5-1.9,0.9-3.3,1.2s-2.7,0.5-4.2,0.5c-2.6,0-4.9-0.5-6.8-1.4c-1.9-1-3.5-2.4-4.6-4.1c-1.1-1.8-1.6-3.9-1.6-6.2
		c0-2.5,0.5-4.8,1.6-6.7c1.1-2,2.5-3.5,4.4-4.7c1.9-1.2,4-1.7,6.3-1.7c3.5,0,6.2,1,8.2,3.1c1.9,2.1,2.9,5.1,2.9,8.8
		C543.2,514.2,543,514.8,542.6,515.2z M529.6,508.5c-0.7,0.7-1.2,1.8-1.4,3.3h7.8c0-1.4-0.3-2.4-0.9-3.2c-0.6-0.8-1.5-1.1-2.6-1.1
		C531.3,507.4,530.4,507.7,529.6,508.5z"/>
	<path d="M582.7,515.2c-0.4,0.4-1,0.6-1.7,0.6h-12.7c0.4,2.9,2.2,4.4,5.3,4.4c0.9,0,1.7-0.1,2.4-0.3c0.6-0.2,1.4-0.5,2.4-0.9
		c0.6-0.3,1.1-0.4,1.5-0.4c0.8,0,1.3,0.3,1.7,0.8c0.4,0.6,0.6,1.2,0.6,2c0,0.7-0.2,1.3-0.4,1.9s-0.8,1.1-1.3,1.4
		c-0.8,0.5-1.9,0.9-3.3,1.2s-2.7,0.5-4.2,0.5c-2.6,0-4.9-0.5-6.8-1.4c-1.9-1-3.5-2.4-4.6-4.1c-1.1-1.8-1.6-3.9-1.6-6.2
		c0-2.5,0.5-4.8,1.6-6.7c1.1-2,2.5-3.5,4.4-4.7c1.9-1.2,4-1.7,6.3-1.7c3.5,0,6.2,1,8.2,3.1c1.9,2.1,2.9,5.1,2.9,8.8
		C583.3,514.2,583.1,514.8,582.7,515.2z M569.7,508.5c-0.7,0.7-1.2,1.8-1.4,3.3h7.8c0-1.4-0.3-2.4-0.9-3.2c-0.6-0.8-1.5-1.1-2.6-1.1
		C571.4,507.4,570.5,507.7,569.7,508.5z"/>
	<path d="M608.9,519.8c0.7,0.8,1,1.6,1,2.5c0,1.1-0.4,2.1-1.3,2.9c-0.8,0.8-1.9,1.3-2.9,1.3c-1.1,0-2-0.5-2.9-1.4l-5-5.8l-6.2,5.9
		c-0.9,0.9-1.9,1.3-3,1.3c-1,0-1.9-0.3-2.5-1.1c-0.7-0.8-1-1.5-1-2.5c0-1.1,0.5-2.1,1.4-3.1l6.5-6l-5.1-5.6
		c-0.8-0.8-1.1-1.7-1.1-2.6c0-1.1,0.4-2,1.3-2.9s1.9-1.3,2.9-1.3c1.2,0,2.1,0.5,2.9,1.4l4.6,5.3l5.6-5.2c1-1,2-1.4,3.2-1.4
		c1,0,1.9,0.3,2.5,1c0.7,0.7,1,1.5,1,2.4c0,1.1-0.5,2.1-1.4,2.9l-6,5.6L608.9,519.8z"/>
	<path d="M635.7,502.9c1.5,0.9,2.8,2.3,3.6,4s1.3,3.8,1.3,6.2c0,2.6-0.5,5-1.4,7c-0.9,2-2.4,3.6-4,4.8c-1.8,1.2-3.8,1.7-6.1,1.7
		c-2.9,0-5.2-1-7-3.1l-0.7,8.1c-0.1,1.2-0.5,2-1.3,2.8c-0.8,0.7-1.9,1-3.1,1c-1.3,0-2.4-0.3-3.1-1.1c-0.8-0.8-1.1-1.7-1-2.9l2-25.8
		c0.1-1.2,0.5-2.2,1.3-2.9c0.8-0.8,1.9-1.1,3.2-1.1c1.2,0,2,0.3,2.8,0.8c0.7,0.6,1.1,1.3,1.2,2.3c0.8-1,1.8-1.9,3-2.4
		c1.2-0.6,2.6-0.8,4.2-0.8C632.4,501.6,634.2,502,635.7,502.9z M630.7,518.4c0.8-1.2,1.3-2.8,1.3-4.7c0-1.9-0.4-3.2-1.3-4.2
		s-1.9-1.5-3.5-1.5c-1.4,0-2.6,0.6-3.5,1.8c-0.8,1.2-1.3,2.7-1.3,4.6s0.4,3.4,1.2,4.4c0.8,1,1.9,1.5,3.4,1.5
		C628.6,520.2,629.8,519.6,630.7,518.4z"/>
	<path d="M666.4,515.2c-0.4,0.4-1,0.6-1.7,0.6H652c0.4,2.9,2.2,4.4,5.3,4.4c0.9,0,1.7-0.1,2.4-0.3c0.6-0.2,1.4-0.5,2.4-0.9
		c0.6-0.3,1.1-0.4,1.5-0.4c0.8,0,1.3,0.3,1.7,0.8c0.4,0.6,0.6,1.2,0.6,2c0,0.7-0.2,1.3-0.4,1.9s-0.8,1.1-1.3,1.4
		c-0.8,0.5-1.9,0.9-3.3,1.2c-1.3,0.3-2.7,0.5-4.2,0.5c-2.6,0-4.9-0.5-6.8-1.4c-1.9-1-3.5-2.4-4.6-4.1c-1.1-1.8-1.6-3.9-1.6-6.2
		c0-2.5,0.5-4.8,1.6-6.7c1.1-2,2.5-3.5,4.4-4.7c1.9-1.2,4-1.7,6.3-1.7c3.5,0,6.2,1,8.2,3.1c1.9,2.1,2.9,5.1,2.9,8.8
		C667,514.2,666.7,514.8,666.4,515.2z M653.4,508.5c-0.7,0.7-1.2,1.8-1.4,3.3h7.8c0-1.4-0.3-2.4-0.9-3.2c-0.6-0.8-1.5-1.1-2.6-1.1
		C655,507.4,654.1,507.7,653.4,508.5z"/>
	<path d="M689.7,502.4c0.6,0.6,0.8,1.4,0.7,2.6c-0.2,1.3-0.5,2.3-1.2,2.9s-1.8,0.9-3.5,1.1l-1.3,0.2c-1.9,0.3-3.1,0.7-3.8,1.4
		c-0.7,0.7-1.1,1.9-1.3,3.5l-0.7,8.3c-0.1,1.3-0.6,2.3-1.4,2.9c-0.8,0.7-1.9,1-3.1,1c-1.3,0-2.3-0.3-3-1c-0.8-0.7-1.2-1.7-1-2.9
		l1.3-16.9c0.2-1.3,0.7-2.3,1.5-2.9c0.9-0.7,1.9-1,3.1-1c1.2,0,2,0.3,2.7,0.9c0.7,0.7,1,1.5,0.9,2.7c0.9-1.1,2-1.9,3.3-2.5
		c1.3-0.7,2.4-1,3.6-1l0.6-0.1C688.3,501.6,689.1,501.8,689.7,502.4z"/>
	<path d="M691.6,525.4c-0.8-0.7-1.2-1.7-1-2.9l1.3-16.8c0.2-1.3,0.7-2.4,1.5-3c0.8-0.7,1.9-1,3.2-1c1.3,0,2.3,0.3,3,1
		c0.8,0.7,1.1,1.7,1,3l-1.3,16.8c-0.1,1.3-0.6,2.3-1.4,2.9c-0.8,0.7-1.9,1-3.1,1C693.4,526.4,692.4,526.1,691.6,525.4z M693.8,497.1
		c-0.8-0.8-1.3-1.8-1.3-3s0.4-2.3,1.3-3c0.8-0.8,2-1.1,3.5-1.1c1.4,0,2.6,0.3,3.5,1.1c0.8,0.8,1.3,1.8,1.3,3s-0.4,2.3-1.3,3
		c-0.8,0.8-2,1.2-3.5,1.2C695.8,498.2,694.6,497.9,693.8,497.1z"/>
	<path d="M726.7,515.2c-0.4,0.4-1,0.6-1.7,0.6h-12.7c0.4,2.9,2.2,4.4,5.3,4.4c0.9,0,1.7-0.1,2.4-0.3c0.6-0.2,1.4-0.5,2.4-0.9
		c0.6-0.3,1.1-0.4,1.5-0.4c0.8,0,1.3,0.3,1.7,0.8c0.4,0.6,0.6,1.2,0.6,2c0,0.7-0.2,1.3-0.4,1.9s-0.8,1.1-1.3,1.4
		c-0.8,0.5-1.9,0.9-3.3,1.2c-1.3,0.3-2.7,0.5-4.2,0.5c-2.6,0-4.9-0.5-6.8-1.4c-1.9-1-3.5-2.4-4.6-4.1c-1.1-1.8-1.6-3.9-1.6-6.2
		c0-2.5,0.5-4.8,1.6-6.7c1.1-2,2.5-3.5,4.4-4.7c1.9-1.2,4-1.7,6.3-1.7c3.5,0,6.2,1,8.2,3.1s2.9,5.1,2.9,8.8
		C727.3,514.2,727.1,514.8,726.7,515.2z M713.7,508.5c-0.7,0.7-1.2,1.8-1.4,3.3h7.8c0-1.4-0.3-2.4-0.9-3.2c-0.6-0.8-1.5-1.1-2.6-1.1
		C715.4,507.4,714.4,507.7,713.7,508.5z"/>
	<path d="M754,503.9c1.3,1.5,2,3.7,2,6.7c0,0.8,0,1.3-0.1,1.7l-0.8,10.3c-0.2,1.3-0.6,2.2-1.4,2.9c-0.8,0.8-1.9,1.1-3.2,1.1
		c-1.3,0-2.4-0.3-3.1-1.1c-0.8-0.8-1.1-1.7-0.9-2.9l0.8-10c0.1-1.3-0.1-2.4-0.7-3.1c-0.5-0.8-1.3-1.1-2.5-1.1
		c-1.3,0-2.3,0.4-2.9,1.3c-0.7,0.8-1.1,1.9-1.2,3.4l-0.8,9.7c-0.1,1.3-0.6,2.2-1.3,2.9c-0.8,0.8-1.9,1.1-3.2,1.1s-2.4-0.3-3.1-1.1
		c-0.8-0.7-1-1.7-1-2.9l1.3-16.9c0.1-1.2,0.5-2.1,1.4-2.9c0.8-0.8,2-1.1,3.3-1.1c1.1,0,2,0.3,2.6,0.8c0.7,0.6,1,1.3,1.1,2.3
		c0.8-1,1.9-1.8,3.3-2.4c1.3-0.6,2.8-0.8,4.4-0.8C750.6,501.6,752.7,502.4,754,503.9z"/>
	<path d="M765.9,525.1c-2-0.9-3.5-2.4-4.6-4.1c-1.1-1.8-1.6-3.9-1.6-6.2c0-2.7,0.6-5.1,1.7-7.1c1.1-2,2.7-3.5,4.8-4.6
		c2.1-1.1,4.5-1.6,7.4-1.6c1.6,0,3,0.2,4.4,0.4c1.3,0.3,2.4,0.7,3.4,1.2c0.5,0.3,0.9,0.7,1.2,1.2c0.3,0.5,0.4,1.1,0.4,1.7
		c0,0.9-0.3,1.7-0.8,2.4c-0.5,0.7-1.2,1-1.9,1c-0.4,0-0.9-0.1-1.3-0.3c-1.6-0.8-3.2-1.1-4.7-1.1c-1.8,0-3.1,0.6-4,1.7
		c-0.9,1.1-1.4,2.7-1.4,4.8c0,1.7,0.4,3,1.3,4c0.8,0.9,2,1.4,3.5,1.4c0.8,0,1.6-0.1,2.3-0.3s1.4-0.4,2.3-0.7c0.5-0.3,1-0.4,1.5-0.4
		c0.8,0,1.3,0.3,1.7,0.8c0.4,0.5,0.6,1.2,0.6,1.9c0,0.7-0.2,1.3-0.5,1.9c-0.3,0.7-0.8,1.1-1.4,1.5c-0.8,0.4-1.9,0.8-3.2,1.2
		c-1.3,0.3-2.6,0.5-3.9,0.5C770.2,526.6,767.8,526.1,765.9,525.1z"/>
	<path d="M785.5,525.4c-0.8-0.7-1.2-1.7-1-2.9l1.3-16.8c0.2-1.3,0.7-2.4,1.5-3c0.8-0.7,1.9-1,3.2-1c1.3,0,2.3,0.3,3,1
		c0.8,0.7,1.1,1.7,1,3l-1.3,16.8c-0.1,1.3-0.6,2.3-1.4,2.9c-0.8,0.7-1.9,1-3.1,1C787.4,526.4,786.4,526.1,785.5,525.4z M787.6,497.1
		c-0.8-0.8-1.3-1.8-1.3-3s0.4-2.3,1.3-3c0.8-0.8,2-1.1,3.5-1.1c1.4,0,2.6,0.3,3.5,1.1c0.8,0.8,1.3,1.8,1.3,3s-0.4,2.3-1.3,3
		c-0.8,0.8-2,1.2-3.5,1.2C789.6,498.2,788.5,497.9,787.6,497.1z"/>
	<path d="M818.4,504c1.8,1.6,2.7,4,2.7,7.2c0,0.7,0,1.3-0.1,1.6l-0.8,9.7c-0.1,1.3-0.5,2.3-1.3,2.9c-0.8,0.7-1.8,1-3.1,1
		c-1.1,0-1.9-0.3-2.6-0.9c-0.7-0.6-1.1-1.4-1.1-2.4c-0.6,1.1-1.4,1.9-2.5,2.5c-1.1,0.6-2.3,0.8-3.7,0.8c-1.6,0-2.9-0.3-4.3-0.9
		c-1.3-0.6-2.3-1.4-3-2.5c-0.8-1.1-1.1-2.3-1.1-3.6c0-1.9,0.4-3.4,1.3-4.5c0.9-1.1,2.4-1.9,4.4-2.4c2-0.5,4.6-0.8,7.9-0.8h1.8
		l0.1-0.3c0.2-2.3-1.2-3.5-3.9-3.5c-1.3,0-3.1,0.4-5.5,1.3c-0.6,0.3-1.1,0.3-1.7,0.3c-0.8,0-1.5-0.3-2-0.8c-0.5-0.6-0.8-1.2-0.8-1.9
		c0-0.6,0.2-1.2,0.5-1.8c0.3-0.6,0.8-1,1.6-1.4c2.4-1.3,5.4-2,8.9-2C813.9,501.6,816.6,502.4,818.4,504z M811.3,519.5
		c0.8-0.8,1.2-1.9,1.3-3.3l0.1-0.5h-1.3c-1.9,0-3.4,0.2-4.2,0.6c-0.8,0.4-1.3,1.1-1.3,2.1c0,0.7,0.3,1.3,0.7,1.7
		c0.5,0.4,1.1,0.7,1.9,0.7C809.6,520.8,810.5,520.4,811.3,519.5z"/>
	<path d="M826.1,525.1c-0.8-0.3-1.4-0.8-1.9-1.4c-0.4-0.6-0.6-1.3-0.6-1.9c0-0.8,0.3-1.6,0.8-2.2c0.5-0.7,1.2-0.9,2-0.9
		c0.5,0,1,0.2,1.6,0.4c1,0.5,2.2,0.8,3.5,1.2c1.3,0.3,2.5,0.4,3.6,0.4c0.9,0,1.7-0.1,2.2-0.3c0.5-0.3,0.8-0.6,0.8-1
		c0-0.5-0.3-0.9-1-1.3c-0.7-0.3-1.7-0.7-3.2-1.1c-1.7-0.4-3.2-0.9-4.4-1.4c-1.2-0.5-2.2-1.2-3-2.2c-0.8-0.9-1.3-2.2-1.3-3.8
		c0-1.6,0.5-2.9,1.4-4.1c0.9-1.2,2.3-2.1,4-2.8s3.8-1,6.2-1c1,0,2.3,0.2,3.6,0.4c1.3,0.3,2.5,0.6,3.5,1c0.7,0.3,1.2,0.8,1.5,1.4
		c0.3,0.6,0.5,1.2,0.5,1.9c0,0.8-0.3,1.5-0.8,2.1c-0.5,0.6-1.1,0.9-1.9,0.9c-0.5,0-0.9-0.1-1.4-0.3c-1.9-0.9-3.8-1.3-5.8-1.3
		c-1,0-1.8,0.1-2.4,0.3c-0.5,0.3-0.8,0.6-0.8,1c0,0.5,0.3,0.9,1,1.3c0.7,0.3,1.8,0.7,3.2,1.1c1.8,0.5,3.2,1,4.4,1.4
		c1.2,0.5,2.2,1.2,3,2.2c0.8,0.9,1.3,2.2,1.3,3.8c0,2.4-1,4.4-2.9,5.8c-1.9,1.3-4.8,2.1-8.4,2.1
		C831.5,526.6,828.7,526.1,826.1,525.1z"/>
	<path d="M526.2,551.4c0.8,0.8,1,1.9,0.9,3.3l-2.1,26.5c-0.2,1.3-0.6,2.2-1.3,2.9c-0.8,0.8-1.7,1.1-2.9,1.1c-1.2,0-2-0.3-2.8-1.1
		c-0.7-0.8-1-1.7-0.8-2.9l1.1-14.4L512,577c-0.7,1-1.3,1.8-1.9,2.3c-0.7,0.4-1.4,0.7-2.3,0.7s-1.6-0.3-2.2-0.7
		c-0.6-0.4-1.1-1.2-1.6-2.3l-4.7-9.8l-1.1,13.8c-0.1,1.2-0.5,2.2-1.3,2.9c-0.8,0.8-1.8,1.1-2.9,1.1s-2-0.3-2.7-1.1
		c-0.7-0.7-0.9-1.7-0.8-2.9l2.1-26.6c0.2-1.3,0.6-2.4,1.4-3.2s1.9-1.3,3.1-1.3c1.8,0,3.1,1,4,2.9l7.5,16.6l10.3-16.5
		c0.6-1,1.3-1.7,2-2.2c0.8-0.5,1.5-0.8,2.4-0.8C524.6,550.1,525.6,550.5,526.2,551.4z"/>
	<path d="M553.2,573.9c-0.4,0.4-1,0.6-1.7,0.6h-12.7c0.4,2.9,2.2,4.4,5.3,4.4c0.9,0,1.7-0.1,2.4-0.3c0.6-0.2,1.4-0.5,2.4-0.9
		c0.6-0.3,1.1-0.4,1.5-0.4c0.8,0,1.3,0.3,1.7,0.8c0.4,0.6,0.6,1.2,0.6,2c0,0.7-0.2,1.3-0.4,1.9c-0.3,0.6-0.8,1.1-1.3,1.4
		c-0.8,0.5-1.9,0.9-3.3,1.2s-2.7,0.5-4.2,0.5c-2.6,0-4.9-0.5-6.8-1.4c-1.9-1-3.5-2.4-4.6-4.1c-1.1-1.8-1.6-3.9-1.6-6.2
		c0-2.5,0.5-4.8,1.6-6.7c1.1-2,2.5-3.5,4.4-4.7c1.9-1.2,4-1.7,6.3-1.7c3.5,0,6.2,1,8.2,3.1c1.9,2.1,2.9,5.1,2.9,8.8
		C553.8,572.9,553.6,573.5,553.2,573.9z M540.2,567.1c-0.7,0.7-1.2,1.8-1.4,3.3h7.8c0-1.4-0.3-2.4-0.9-3.2c-0.6-0.8-1.5-1.1-2.6-1.1
		C541.9,566.1,540.9,566.4,540.2,567.1z"/>
	<path d="M594.8,562.4c1.3,1.5,2,3.7,2,6.7c0,0.8,0,1.3-0.1,1.6l-0.8,10.4c-0.1,1.3-0.6,2.4-1.4,3c-0.8,0.7-1.9,1-3.2,1
		c-1.3,0-2.3-0.3-3-1c-0.8-0.7-1.2-1.7-1-2.9l0.8-10.2c0.1-1.3-0.1-2.3-0.5-3c-0.4-0.7-1.2-1-2.1-1c-1.2,0-2.1,0.4-2.7,1.2
		c-0.7,0.8-1,2.1-1.2,4l-0.8,9.1c-0.2,1.3-0.6,2.4-1.5,3c-0.8,0.7-1.9,1-3.1,1c-1.3,0-2.3-0.3-3-1c-0.8-0.7-1.1-1.7-1-2.9l0.8-10.1
		c0.2-2.8-0.7-4.1-2.6-4.1c-1.2,0-2.1,0.4-2.7,1.3c-0.7,0.8-1,2.1-1.2,3.9l-0.8,9.1c-0.1,1.3-0.6,2.3-1.4,2.9s-1.9,1-3.1,1
		c-1.3,0-2.3-0.3-3-1c-0.8-0.7-1.2-1.7-1-2.9l1.3-16.9c0.2-1.3,0.7-2.3,1.6-2.9c0.9-0.7,1.9-1,3.2-1c1,0,1.9,0.3,2.5,0.8
		s1.1,1.2,1.2,2.1c0.9-1,2-1.8,3.2-2.3c1.2-0.5,2.5-0.8,4-0.8c1.6,0,2.9,0.3,4,1c1.2,0.7,2,1.6,2.7,2.8c1-1.3,2.3-2.2,3.7-2.8
		c1.4-0.7,2.9-0.9,4.5-0.9C591.5,560.2,593.5,561,594.8,562.4z"/>
	<path d="M606.5,583.7c-2-1-3.5-2.4-4.6-4.2c-1.1-1.8-1.6-3.9-1.6-6.3c0-2.7,0.6-5.1,1.7-7c1.1-1.9,2.7-3.5,4.6-4.5
		c2-1,4.4-1.6,7-1.6c2.7,0,5,0.5,7,1.4c2,1,3.5,2.4,4.6,4.1c1.1,1.8,1.6,3.9,1.6,6.2c0,2.7-0.6,5.1-1.7,7.1
		c-1.1,1.9-2.7,3.5-4.6,4.5s-4.4,1.6-7,1.6C610.9,585.3,608.6,584.8,606.5,583.7z M617.2,576.8c0.8-1.3,1.2-2.9,1.2-5
		c0-1.8-0.3-3.1-1.1-4s-1.9-1.3-3.4-1.3c-1.7,0-2.9,0.7-3.7,1.9c-0.8,1.3-1.2,2.9-1.2,4.9c0,1.9,0.3,3.2,1.1,4
		c0.8,0.8,1.9,1.3,3.4,1.3C615.1,578.9,616.4,578.2,617.2,576.8z"/>
	<path d="M649.8,561.1c0.6,0.6,0.8,1.4,0.7,2.6c-0.2,1.3-0.5,2.3-1.2,2.9c-0.7,0.6-1.8,0.9-3.5,1.1l-1.3,0.2
		c-1.9,0.3-3.1,0.7-3.8,1.4c-0.7,0.8-1.1,1.9-1.3,3.5l-0.7,8.3c-0.1,1.3-0.6,2.3-1.4,2.9c-0.8,0.7-1.9,1-3.1,1c-1.3,0-2.3-0.3-3-1
		c-0.8-0.7-1.2-1.7-1-2.9l1.3-16.9c0.2-1.3,0.7-2.3,1.5-2.9c0.9-0.7,1.9-1,3.1-1s2,0.3,2.7,0.9c0.7,0.7,1,1.5,0.9,2.7
		c0.9-1.1,2-1.9,3.3-2.5c1.3-0.7,2.4-1,3.6-1l0.6-0.1C648.3,560.2,649.2,560.5,649.8,561.1z"/>
	<path d="M670.8,562.6c1.8,1.6,2.7,4,2.7,7.2c0,0.7,0,1.3-0.1,1.6l-0.8,9.7c-0.1,1.3-0.5,2.3-1.3,2.9c-0.8,0.7-1.8,1-3.1,1
		c-1.1,0-1.9-0.3-2.6-0.9c-0.7-0.6-1.1-1.4-1.1-2.4c-0.6,1.1-1.4,1.9-2.5,2.5s-2.3,0.8-3.7,0.8c-1.6,0-2.9-0.3-4.3-0.9
		c-1.3-0.6-2.3-1.4-3-2.5c-0.8-1.1-1.1-2.3-1.1-3.6c0-1.9,0.4-3.4,1.3-4.5c0.9-1.1,2.4-1.9,4.4-2.4c2-0.5,4.6-0.8,7.9-0.8h1.8
		l0.1-0.3c0.2-2.3-1.2-3.5-3.9-3.5c-1.3,0-3.1,0.4-5.5,1.3c-0.6,0.3-1.1,0.3-1.7,0.3c-0.8,0-1.5-0.3-2-0.8c-0.5-0.6-0.8-1.2-0.8-1.9
		c0-0.6,0.2-1.2,0.5-1.8c0.3-0.6,0.8-1,1.6-1.4c2.4-1.3,5.4-2,8.9-2C666.4,560.2,669.1,561,670.8,562.6z M663.8,578.2
		c0.8-0.8,1.2-1.9,1.3-3.3l0.1-0.5h-1.3c-1.9,0-3.4,0.2-4.2,0.6c-0.8,0.4-1.3,1.1-1.3,2.1c0,0.7,0.3,1.3,0.7,1.7
		c0.5,0.4,1.1,0.7,1.9,0.7C662.1,579.4,663,579,663.8,578.2z"/>
	<path d="M700.1,561.6c1.5,0.9,2.8,2.3,3.6,4s1.3,3.8,1.3,6.2c0,2.6-0.5,5-1.4,7c-0.9,2-2.3,3.6-4,4.8s-3.8,1.7-6.1,1.7
		c-3.1,0-5.5-1.1-7.2-3.4c-0.3,1-0.8,1.8-1.5,2.4c-0.8,0.6-1.8,0.9-2.9,0.9c-1.3,0-2.4-0.3-3.1-1.1c-0.8-0.8-1-1.7-1-2.9l2.2-27
		c0.1-1.2,0.5-2.1,1.4-2.9c0.9-0.8,2-1.1,3.4-1.1c1.3,0,2.3,0.3,2.9,1c0.7,0.7,1,1.6,0.9,2.7l-0.8,9.4c0.8-1,1.8-1.7,2.9-2.3
		c1.2-0.5,2.5-0.8,4-0.8C696.7,560.2,698.5,560.7,700.1,561.6z M695,577.1c0.8-1.2,1.3-2.7,1.3-4.7c0-1.9-0.4-3.3-1.2-4.3
		c-0.8-1-1.9-1.5-3.5-1.5c-1.4,0-2.6,0.6-3.5,1.8c-0.8,1.2-1.3,2.7-1.3,4.6s0.4,3.4,1.2,4.4s1.9,1.5,3.4,1.5
		C693,578.9,694.2,578.3,695,577.1z"/>
	<path d="M709.3,584.1c-0.8-0.7-1.2-1.7-1-2.9l2.2-26.9c0.1-1.3,0.6-2.4,1.4-3.1c0.8-0.7,1.9-1,3.1-1c1.3,0,2.3,0.3,3,1
		c0.8,0.7,1.2,1.7,1,3.1l-2.2,26.9c-0.1,1.3-0.6,2.3-1.4,2.9s-1.9,1-3.1,1C711,585.1,710,584.8,709.3,584.1z"/>
	<path d="M744.3,573.9c-0.4,0.4-1,0.6-1.7,0.6h-12.7c0.4,2.9,2.2,4.4,5.3,4.4c0.9,0,1.7-0.1,2.4-0.3c0.6-0.2,1.4-0.5,2.4-0.9
		c0.6-0.3,1.1-0.4,1.5-0.4c0.8,0,1.3,0.3,1.7,0.8c0.4,0.6,0.6,1.2,0.6,2c0,0.7-0.2,1.3-0.4,1.9c-0.3,0.6-0.8,1.1-1.3,1.4
		c-0.8,0.5-1.9,0.9-3.3,1.2c-1.3,0.3-2.7,0.5-4.2,0.5c-2.6,0-4.9-0.5-6.8-1.4c-1.9-1-3.5-2.4-4.6-4.1c-1.1-1.8-1.6-3.9-1.6-6.2
		c0-2.5,0.5-4.8,1.6-6.7c1.1-2,2.5-3.5,4.4-4.7c1.9-1.2,4-1.7,6.3-1.7c3.5,0,6.2,1,8.2,3.1c1.9,2.1,2.9,5.1,2.9,8.8
		C744.9,572.9,744.6,573.5,744.3,573.9z M731.3,567.1c-0.7,0.7-1.2,1.8-1.4,3.3h7.8c0-1.4-0.3-2.4-0.9-3.2c-0.6-0.8-1.5-1.1-2.6-1.1
		C732.9,566.1,732,566.4,731.3,567.1z"/>
	<path d="M749,583.7c-0.8-0.3-1.4-0.8-1.9-1.4c-0.4-0.6-0.6-1.3-0.6-1.9c0-0.8,0.3-1.6,0.8-2.2c0.5-0.7,1.2-0.9,2-0.9
		c0.5,0,1,0.2,1.6,0.4c1,0.5,2.2,0.8,3.5,1.2c1.3,0.3,2.5,0.4,3.6,0.4c0.9,0,1.7-0.1,2.2-0.3c0.5-0.3,0.8-0.6,0.8-1
		c0-0.5-0.3-0.9-1-1.3c-0.7-0.3-1.7-0.7-3.2-1.1c-1.7-0.4-3.2-0.9-4.4-1.4c-1.2-0.5-2.2-1.2-3-2.2c-0.8-0.9-1.3-2.2-1.3-3.8
		s0.5-2.9,1.4-4.1c0.9-1.2,2.3-2.1,4-2.8c1.8-0.7,3.8-1,6.2-1c1,0,2.3,0.2,3.6,0.4c1.3,0.3,2.5,0.6,3.5,1c0.7,0.3,1.2,0.8,1.5,1.4
		c0.3,0.6,0.5,1.2,0.5,1.9c0,0.8-0.3,1.5-0.8,2.1c-0.5,0.6-1.1,0.9-1.9,0.9c-0.5,0-0.9-0.1-1.4-0.3c-1.9-0.9-3.8-1.3-5.8-1.3
		c-1,0-1.8,0.1-2.4,0.3c-0.5,0.3-0.8,0.6-0.8,1c0,0.5,0.3,0.9,1,1.3c0.7,0.3,1.8,0.7,3.2,1.1c1.8,0.5,3.2,1,4.4,1.4
		c1.2,0.5,2.2,1.2,3,2.2c0.8,0.9,1.3,2.2,1.3,3.8c0,2.4-1,4.4-2.9,5.8c-1.9,1.3-4.8,2.1-8.4,2.1C754.3,585.3,751.6,584.8,749,583.7z
		"/>
</g>
<path d="M733.4,607.5L733.4,607.5c-18.4,1.5-37.7,0.3-57-0.3c-20.8-0.8-41.7-1-62.3-0.7c-20.3,0.3-40.2,1.2-59.5,2.6
	c-14.8,1.1-32.9,2.2-39.7,6.6c-5.1,3.2,11.7,6.8,17,3.6c6.4-4,29.7-4.5,43.3-5.4c17.9-1,36.2-1.6,54.9-1.7
	c18.7-0.1,37.5,0.5,56.5,1.2c17.6,0.8,35.5,1.3,52.2,0C750.1,612.3,745.3,606.5,733.4,607.5z"/>
</svg>
