<?xml version="1.0" encoding="utf-8"?>
<!-- Generator: Adobe Illustrator 25.3.1, SVG Export Plug-In . SVG Version: 6.00 Build 0)  -->
<svg version="1.1" id="Capa_1" xmlns="http://www.w3.org/2000/svg" xmlns:xlink="http://www.w3.org/1999/xlink" x="0px" y="0px"
	 width="1920px" height="1080px" viewBox="0 0 1920 1080" style="enable-background:new 0 0 1920 1080;" xml:space="preserve">
<style type="text/css">
	.st0{fill:#020203;}
</style>
<g>
	<path class="st0" d="M1550.2,523.7v0.3l0.3,0.1c2.1,0.4,6,1.8,7.7,5.5c5.4,11.1,3.6,24,0.7,36.2l-0.1,0.5h3.1l0.1-0.3
		c0.3-0.8,0.5-1.6,0.8-2.4c1.6-4.9,3.3-10,2.9-15.2c-0.2-7.2-1-16.4-6.1-23.2c-1.7-2.5-4.7-3.7-9.3-3.8h-0.5l0.1,0.5
		C1550.1,522.3,1550.2,523.2,1550.2,523.7z"/>
	<path class="st0" d="M1677,708.3c0.6-0.7,1.3-1.4,1.9-2V706c0.1-0.3,0.1-0.6,0.2-0.8C1678.4,706.2,1677.7,707.2,1677,708.3z"/>
	<path class="st0" d="M1669.1,783.6c-0.1-0.2-0.3-0.4-0.4-0.6c0.6,1.3,1.3,2.7,2,4c-0.1-0.6-0.2-1.2-0.4-1.8
		C1669.9,784.7,1669.5,784.1,1669.1,783.6z"/>
	<path class="st0" d="M893.6,795.3c-6-2.4-3.8,7.5,0.2,7.3c1.3,0,2.3-1,2.4-2.2C896.5,798.6,895.1,796.1,893.6,795.3z"/>
	<path class="st0" d="M992.4,680c2.4,1.5,4.8,2.6,7.2,4.1c-2-4.1-4.4-7.9-5.6-12l-0.5-1.6c-2,7.2-9.6,12.5-18.4,12
		c-5.3-2.6-7.2-7.9-7.8-11.2c6.1-0.5,12.7-0.9,17.3-5.3c0.3-7.5-10.1-6-15.4-5.1c1.8-1.9,3.8-3.2,6.2-4.1c-1-0.7-2.3-1.6-3.6-2.3
		c1.6-2.1,5.2-2.6,7.2-4.3l1.3-0.9c-3.9,0.3-7.8,0.5-11.4,1v7.5l-1.5-0.7c-1.3,8.7-4.2,18.5,0.7,26.4
		C976,688.3,987.3,683.7,992.4,680z"/>
	<path class="st0" d="M941.6,841c3,0,4.3-5,1.9-6.6C939,831.6,936.8,840.8,941.6,841z"/>
	<path class="st0" d="M911,797.2c-6.2-2.4-3.9,7.5,0.2,7.3c1.3,0,2.3-1,2.4-2.2C913.9,800.6,912.5,798.1,911,797.2z"/>
	<path class="st0" d="M949.1,670.1c7.9-3.5,8.3-11.5,8.3-17c-0.5,1-1.2,2.3-1.8,3.2c-2,3.7-4,7.5-8.8,7.6c-0.8-4.3-1.6-8.5-2.4-12.6
		c-1.5,4.3-1.3,8.7-0.9,12.9C945.3,666.1,947.3,668.1,949.1,670.1z"/>
	<path class="st0" d="M842.5,629.1c0.8-1.2,1.9-2.8,2.6-4c-2.6-0.7-5.3-1.5-8.1-2.2C835.9,626.9,839.6,628,842.5,629.1z"/>
	<path class="st0" d="M1046.2,657c4-1.9,8.8-3.5,10.7-7.9c-3.6,0.9-7.4,2-10.7,3.1V657z"/>
	<path class="st0" d="M1052.7,641.9l0.3-0.7c-4,0.6-7.6,3.1-9.8,6.7C1047.9,648.1,1051.9,645.8,1052.7,641.9z"/>
	<path class="st0" d="M1043.7,663.2c4.9,0.7,9.7,0.7,13.8-3.4l0.6-0.6C1052.8,657.9,1047.2,659.2,1043.7,663.2z"/>
	<path class="st0" d="M1019.3,666.5c2.6-0.9,4-4.1,5.3-6.6c1.8-2.8,1.5-6.3,0.9-9.6l-0.4-2.5l-0.7,1.2c-2.4,4.1-0.6,11.7-6.5,12.9
		c-5.2-1.9-2.7-9.2-4.5-13.5c-2.5,3-3.8,7.5-2.9,11.2C1011.2,663.3,1015.3,667.4,1019.3,666.5z"/>
	<path class="st0" d="M1032.6,658.6c-2.7,3.7-5.2,7.5-7.8,11.2C1029.7,669.1,1036.8,663.5,1032.6,658.6z"/>
	<path class="st0" d="M1439.5,477.5c-4.8,6.4-6.9,12.6-6.2,18.4l0.1,0.4h0.4c0.6,0,1.8,0.1,2.4,0.1h0.5v-0.5
		c-0.2-4.9,1.9-10.2,6-15.6l1.5-2.1c2.1-3,4.3-6,7.4-8.1c0.7-0.6,1.6-1.1,2.4-1.7c2-1.3,4.1-2.6,4.9-5.1l0.2-0.7l-0.7,0.2
		C1449.9,464.8,1443.8,471.7,1439.5,477.5z"/>
	<path class="st0" d="M1430.2,479.1h0.3l0.1-0.3c1.5-5.6,5.4-10.1,9.3-14.5l1.1-1.3c1.1-1.4,2.6-2.4,4.1-3.5
		c2.3-1.6,4.7-3.3,5.7-6.2l0.3-0.8l-0.8,0.3c-8.8,2.8-14.8,10.6-19.7,16.8c-2,2.4-3,5.6-3,9.2v0.5l0.4-0.1
		C1428.5,479.2,1429.6,479.1,1430.2,479.1z"/>
	<path class="st0" d="M1463.2,534l0.1,0.5h0.4c1.2-0.1,2.5-0.1,3.8-0.1h0.5V534c0.1-1.1,0.3-2.3,0.5-3.4l0.1-0.5h-0.5
		c-1.6,0-3.4,0.1-5.2,0.8l-0.3,0.1l0.1,0.4C1462.8,532.1,1463,533.3,1463.2,534z"/>
	<path class="st0" d="M1273.6,856.8c2-0.3,7.2-1.3,9.3-4.6c1-1.5,1.1-3.2,0.5-5.2l-0.2-0.5l-0.5,0.3c-0.7,0.5-1.4,1.1-2.1,1.7
		c-1.5,1.4-2.9,2.7-5,2.5c-7.9,0.6-15.6-1.2-23.1-3c-5.1-1.2-10.4-2.4-15.7-2.9h-0.4l-0.1,0.4c-0.2,0.7-0.3,1.5-0.4,2.3
		c-0.3,2-0.6,4.2-2.1,5.6c-2.5,2.5-6.1,2.7-9.7,2.9c-0.6,0-1.3,0.1-1.9,0.1c-1.4,0.1-3-0.3-4.5-0.7c-2.6-0.7-5.2-1.4-7.7,0.2
		l-0.2,0.1v0.3c0.1,0.8,0.3,1.6,0.5,2.4c0.5,1.9,0.9,3.6-0.3,5.2c-3.9,7.2-12.2,10.3-20.4,12.8c-1.6,0.6-3.4,0.9-5.2,1.2
		c-3.4,0.6-6.9,1.3-9.5,3.7l-0.6,0.6l0.9,0.1c3.1,0.5,6.2,0,9.2-0.5c1.7-0.3,3.5-0.6,5.3-0.7l0.3,1.5c1,5.7,2.2,12.3,6.9,16.4
		c1.4,1.4,3.2,1.6,5,1.6h3.1l0.1-0.2c0.2-0.3,0.5-0.6,0.7-0.9c1.7-2.1,3.4-4.2,3.7-7c0.6-5.3,0.4-10.7,0.2-16
		c-0.1-1.6-0.1-3.3-0.1-4.9c2.7-3,5.7-6.4,6.6-10.9h1.8c-0.4,8.8,1.6,17.7,5.9,25.9c1.9,3.4,6.1,6.1,10.3,4.4
		c4.3-2.6,7.3-7.7,8.2-14c0.3-2.1,0.6-4.3,0.9-6.4c0.8-5.8,1.7-11.9,1.5-17.9c2.1,0.1,4.2,0.3,6.3,0.4v4.9c-0.1,6.3-0.2,12.8,1.7,19
		c1.4,3.5,4.3,7.1,8.2,6.4h0.1c3.6-1.7,6.6-4.8,8.3-8.7C1272.1,868.5,1273.5,862.4,1273.6,856.8z M1204.4,894.3
		c-0.2,1.2-1,2.1-2.2,2.3c-1.4,0.3-2.8-0.3-3.6-1.4c-3.3-4.2-4.2-9.6-4.7-15.3c2.7-1,5.3-2.1,7.9-3.2c1-0.4,2-0.8,3-1.3l0.1,0.6
		C1205.4,882.2,1205.9,888.4,1204.4,894.3z M1238.4,870.4c-0.2,1.8-0.5,3.7-0.7,5.5c-0.3,3.5-1.3,8.3-4.6,11.5
		c-3.2,1.3-5-1.8-6.7-5.5l-0.1-0.3c-3.4-6.8-3.3-14.7-2.9-20.2c0.4,0,0.9-0.1,1.3-0.1c3.3-0.2,6.7-0.4,9.9-1.9
		c1.5-1,2.8-2.2,4.1-3.4c0.3-0.3,0.6-0.5,0.9-0.8C1239.7,860.3,1239,865.4,1238.4,870.4z M1264.7,874.3c-0.7,2-2.3,3.3-4,4.6
		c-0.3,0.2-0.6,0.5-0.9,0.7c-1.8-1.3-2.9-3-3.3-4.9c-1.3-7.5-1.4-13.9-0.3-19.7c1.5,0.2,3.1,0.4,4.6,0.7c2.4,0.4,4.9,0.8,7.4,0.9
		C1268.3,861.9,1267.1,867.7,1264.7,874.3z"/>
	<path class="st0" d="M1617,819.8l-0.5,0.2c-2.2,0.7-3.7,2.3-5.1,3.8c-0.4,0.4-0.8,0.8-1.1,1.2c-6.2,5.5-15.9,13-27.3,13.8h-1.8
		c-1.9,0.1-3.9,0.2-5.1-1.2c-1.1-1.5-1.2-3.3-1.3-5.2c0-0.8-0.1-1.6-0.2-2.4l-0.1-0.3h-0.3c-3.5-0.4-6.3,1.5-9.1,3.2
		c-1.2,0.8-2.4,1.6-3.7,2.1c-0.7,0.3-1.4,0.7-2.1,1c-7,3.4-14.2,7-22.1,6.3c0.3-1.9,0.7-3.7,1-5.5c0.2-0.7,0.3-1.5,0.4-2.2l0.1-0.4
		l-0.4-0.1c-2.6-0.4-4.8,0.6-7,1.6c-1.2,0.5-2.5,1.1-3.7,1.4c-7,2.1-14.3,1.9-21.4,1.7c-4.2-0.1-8.6-0.2-12.9,0.1l-1,0.1l0.8,0.7
		c4.6,4,11,4.4,16.7,4.4c-0.2,1.3-0.4,2.7-0.6,4.1c-0.9,5.6-1.9,11.5,1,16.7c0.9,1.7,2.5,2.7,4.5,3c2.4,0.3,5.1-0.6,6.8-2.3
		c4.3-3.7,6.4-8.8,8.5-13.8c0.8-1.9,1.6-3.8,2.5-5.7c1.3,0.7,2.6,1.5,4.2,2.4c-2.7,7.1-2.6,16,3.6,20.2l0.1,0.1
		c0.9,0.3,1.9,0.4,2.8,0.4c4.1,0,7.8-2.4,10-4.8c4.8-5.7,7.7-12.7,10.4-19.4c0.8-1.8,1.5-3.7,2.3-5.5c0.5-1.5,2-2.1,3.5-2.5
		c-0.7,1.9-1.5,3.8-2.3,5.7c-2.9,6.9-5.9,14-4.3,21.7c0.7,1.9,2.3,3.3,4.3,3.7c2.2,0.4,4.4-0.3,5.8-1.9c4.9-4.8,8.5-10.6,12-16.3
		c1.3-2.3,2.5-4.4,3.9-6.4c0.9-0.4,1.9-0.8,2.9-1.2c6.6-2.7,13.4-5.4,18.3-10.9c0.7-0.9,1.6-1.7,2.5-2.6c2.5-2.3,5.1-4.7,4.6-8.5
		L1617,819.8z M1524,852.3c-0.7,1.6-1.4,3.2-2.1,4.9c-1.1,2-3.4,5.5-6.9,6.4c-2.2-1.1-2.3-4.1-2.3-6.6v-1c0.2-4.1,0.3-8.7,3.1-11.9
		c3.4-1,7.1-1.2,10.6-1.4c0.5,0,1.1,0,1.6-0.1C1526.8,845.9,1525.4,849.1,1524,852.3z M1552,856.7c-0.4,0.6-0.7,1.3-1.1,1.9
		c-1.7,2.6-4.3,6.6-8.2,6.1c-5.4-4.3-2.9-12.4-0.8-17.1c4.4-0.6,8.6-2.2,12.7-3.7c1.3-0.5,2.5-0.9,3.8-1.4
		C1557.3,847.7,1554.6,852.3,1552,856.7z M1577.7,851.5c-0.9,1.3-1.8,2.7-2.7,4.1c-2.5,4-4.8,6.6-7.6,8.3c-1.8-6,0.5-11.9,2.9-17.7
		c0.6-1.5,1.2-3,1.7-4.4c3.3,1.9,7,2.4,10,2.7C1580.8,846.9,1579.3,849.2,1577.7,851.5z"/>
	<path class="st0" d="M1389.8,396.5c0.6,0.6,1.1,1.3,1.6,1.9C1390.7,397.4,1390.1,396.6,1389.8,396.5z"/>
	<path class="st0" d="M1305.3,532.1c-1.6-0.8-3.2-1.6-4.7-2.6c0,0-0.1-0.1-0.2-0.1c-0.5,1.2-1,2.5-1.6,3.7c1.2,0.7,2.4,1.4,3.7,1.9
		c-3.3,9.7-8.4,18.7-15.5,26.7C1295.5,553,1301.6,543,1305.3,532.1z"/>
	<path class="st0" d="M1301.4,515.5c0,0.2-0.1,0.4-0.2,0.5C1301.4,515.9,1301.4,515.7,1301.4,515.5z"/>
	<path class="st0" d="M1316.1,363.6c3.6-2.1,8.3-1.6,12.1-3.2c2.9-4.3,4.1-9.5,2.5-14.4c-2.8-0.8-5.9-2.8-8.8-1.1
		c-17.1,7.9-34.4,16-53.3,20.3c-6.3,2.4-23.2,1.4-14.1,14.8C1275.4,376.6,1297.3,373.2,1316.1,363.6z"/>
	<path class="st0" d="M1083.7,325.3c-0.2-0.8-0.4-1.5-0.6-2.3C1082.8,324,1082.6,324.9,1083.7,325.3z"/>
	<path class="st0" d="M1623.1,763.1c-2.8-3.5-6.7-6-10.4-8.3c-0.9-0.5-1.7-1.1-2.6-1.6c-1.7-1-2.5-2.8-3.4-4.6
		c-0.7-1.4-1.3-2.9-2.4-4c-7.7-8.6-19.6-10.9-28.2-11.3c-20.7-0.8-38.6,2.6-53.2,10.1c-4.3,2.3-9.9,5.4-15,9.2
		c-6.6-7.9-16.5-12.5-27.3-12.9c4.6-7.7,10.1-16.5,17-24c1.5-1.9,3.9-2.4,6.3-2.9l1.2-0.3c2.5-0.5,5-0.9,7.5-1.4
		c13.7-2.6,27.8-5.3,42-5.5c3.9,0,7.8-0.2,11.6-0.4c6.6-0.3,13.4-0.6,20-0.1c2,0.2,4,0.2,6,0.3c3.3,0.1,6.7,0.2,9.9,0.9
		c3.4,0.7,6.9,1.2,10.3,1.6c3.4,0.5,6.9,0.9,10.4,1.6c1.4,0.2,2.3,1.3,3.3,2.3l1.3,1.3l0.3-0.5c1-1.6,1.9-3.1,2.8-4.5l0.1-0.2
		l-0.1-0.2c-7.7-15-20-27.5-30.9-38c-6.4-6.5-14.1-11-22.7-15.8c0.9-0.9,1.8-1.8,2.8-2.7c1.6,2,4.4,3,6.7,1.4
		c-4.1-0.8-7.9-2.2-11.4-4.1c-1.1,1.1-2.3,2.3-3.7,3.2c-1.5-0.4-3.1-0.9-4.6-1.4c-5-1.6-10.2-3.2-15.6-3.8c-7-1.2-14.1-1-21.1-0.8
		c-1.1,0-2.2,0.1-3.3,0.1c3.4-11,7.3-31.3-2.6-48.3c8.8-4.4,12-14.8,10.5-22.9c-1.5-8.1-4.1-13.6-8.1-17.5
		c-5.1-5.1-10.7-10.2-17.8-11.8c-5.1-1.2-10.7-2.3-16.5-2.5c-0.1-0.3-0.2-0.6-0.3-0.8c-0.5-1.3-0.9-2.7-1.8-4.1
		c-0.9-0.9-2-1.6-3-2.2c-1.2-0.7-2.3-1.5-3.2-2.4c-0.4-2,0.4-3.8,1.2-5.7c0.9-2,1.8-4.1,1.2-6.4c-0.2-3.7-3.7-5.4-6.6-6.8
		c-0.5-0.2-1-0.5-1.4-0.7c-0.2-1-0.3-2.1-0.5-3.2c-0.5-4.2-1.1-8.5-4.8-11c-6.1-4.2-13.7-1.4-19.8,0.9c-0.6,0.2-1.1,0.4-1.7,0.7
		l-0.8,0.5c-5.4,3.2-11.6,6.9-14.6,13c-2,5.2,2.4,9,6,12c0.6,0.5,1.2,1,1.7,1.5c-0.9,2.6-1.9,5.2-1.4,8.1c1.3,3.3,4.7,4.3,7.8,5.2
		c0.5,0.1,0.9,0.3,1.3,0.4v0.4c0.2,2.5,0.3,5.1-1.8,6.6c-1.8,0.9-3.7,1.6-5.6,2.2c-1.8,0.6-3.6,1.2-5.3,2c-12.7,5.9-24,16-31.8,28.2
		c-0.4,0.5-0.7,1.1-1.1,1.6c-1.2,1.9-2.3,3.6-4.5,3.9c-1.5-1.9-3.1-3.8-4.8-5.6l-0.3-1.5h-1.1c-1.8-1.8-3.7-3.5-5.6-5.2
		c5.6-8,10.4-16.9,13.8-26.7c4.1-10.8,10.2-28.9,4.4-25.7c-2.8,1.6-7.1,2.5-11.4,2.9c1-1.7,2-3.4,2.9-5.2c7.8-24.8,11.9-51,8-77
		c1.5-0.2,3.5,4.4,5,4.3c-3.5-13.7-8.7-30.4-16.8-43c-1.3-2-2.6-3.9-4.1-5.6c1.2,1.7,2.6,4.1,3.5,5.1c-3.4-3.2-8.7-11.6-11.8-14.4
		c-2.4-2.2-4.8-4.4-7.1-6.7c-0.1,0-0.2,0-0.3,0.1v-0.4c-0.8-0.8-1.7-1.6-2.5-2.5c0.4,0.7,0.8,1.4,1,2.2c0.1,0.3,0.1,0.5,0.2,0.8
		c-1.1-1.1-2.1-2.2-3.1-3.2c0-0.1-0.1-0.2-0.1-0.3c-0.3-0.8-0.7-1.5-1.2-2.1c-0.7-0.6-1.4-1.2-2.1-1.9l-0.9-0.8
		c0.7,0.3,1.3,0.7,2,1.1l-0.3-0.3c-0.6-0.3-1.3-0.6-1.9-1l-1.2-1.1c-0.3-0.2-0.7-0.3-1-0.5c-0.5-0.4-1-0.9-1.5-1.4
		c-0.2-0.2-0.4-0.4-0.5-0.6c-0.6,0-1.2,0-1.8-0.1l-16.3-33.2c-0.6-1.2-0.9-2.5-1-3.9c0-1.2,0.1-2.4,0.2-3.7c0.1-0.4,0.2-0.8,0.3-1.3
		c-1.4-1.6-1.8-3.8-0.2-6.2c9.6-14.8,14.4-35.5,9.6-52.6c-1.6-5.8-4.4-11.2-7.7-16.3c-1.2,0.2-2.4,0.6-3.6,0.9
		c-0.6-2.5-2.5-4.7-5.7-4.9c-7.6-5.3-18.5-5.6-27.9-6.3c-7.8,4.4-15.2,9.3-21.8,15.3c-1,4.2-3.9,7.9-8.8,9.4
		c-1.4,1.7-3.3,3.1-5.7,3.9c0,0.4,0.1,0.8,0.1,1.2c-1.1-0.2-2.1-0.3-3.1-0.5c-0.3,0-0.5,0.1-0.8,0.1c-3.1,0.3-5.7-0.3-7.9-1.4
		c-40.9-4.9-83.5,4.6-118.3,25.3c-3.9-4.3-7.9-8.5-11.9-12.8c-1.4-0.5-4.2-1.6-5.6-2.1c-5.4,1.5-10.5-0.9-15.5-2.7
		c-11.2-4.9-23.4,0.5-34.4,3.3l0.6,0.3c-0.3-0.1-0.6-0.1-0.9-0.2c-8.1,8.1-12.6,18-14.2,28.5c-3.8,7.8-3.1,17.6-0.6,25.7
		c0.7,2.3,1.7,4.4,2.9,6.4c0.7,2.6,1.5,5.2,2.4,7.7c1.2,1.3,2.3,2.6,3.5,3.8c0.9,0.9,2.6,1.9,4.1,3.2c0.8,0.6,1.5,1.3,2.2,2
		c0.3,0.4,0.6,0.8,0.8,1.2c0.1,0,0.2-0.1,0.2-0.1c-0.1,0.1-0.1,0.1-0.2,0.1c0.1,0.1,0.1,0.2,0.2,0.3c0.8,1.1,2.1,3.4,3.5,5.1
		l0.3,0.6c0.6,1.3,0.9,2.7,1,4.1c0.5,0.2,1,0.5,1.5,0.7c-1.2,4-2.2,8-2.4,12.2c-0.4,4.9-0.3,9.8,0,14.7c-0.1,0.1-0.3,0.1-0.4,0.2
		c0.1,6.9-0.4,13.8-2.9,20.5c-0.7,2.3-1.7,4.4-2.8,6.5l-0.6,0.1l-0.4,1.8c-4.5,7.5-11,13.7-15.9,21c2.1-0.3,5.9-0.8,8.4-1.2
		l-0.3,2.8c-2.1,4.6-4,9.3-5.6,14.1c-1,13.7-3.9,31.6-1.9,45.4c3.5,0.9,7,1.9,10.5,2.9c1.9,14,8.7,26.6,11.3,40.4
		c1.1-0.5,3.4-1.3,4.6-1.8c4.1,4.9,8,10.1,12.1,15.2c-2.1,0.4-4.2,0.5-6.3,0.5l1.8,2.9c-7.9,1.1-15.3,1.8-15.3,1.8l4.9,6.6l-0.2,0.2
		h-0.1l1.8,3.4l-0.2-1.8l1.5,2c6,9.1,13.3,16.6,21.3,22.8c-0.7,0.3-1.6,0.6-2.4,0.9c0.6,0.7,1,1.7,1,2.9c0.1,1.3,0.2,2.5,0.4,3.7
		c-3.7,3.5-5.9,8.1-7.8,12.7c-6.1,8.1-10.9,17.3-14.5,27.6l-0.8-0.2c-0.4,2.4-0.9,4.8-1.3,7.2c-0.1,0.7-0.4,1.3-0.8,1.9
		c-0.5,2.2-1.2,4.5-1.8,6.6v0.1c-3.6-13.2-6.7-26.5-9.1-40c-0.1,0.9-0.3,1.8-0.4,2.7c-1.2-1.2-2.5-2.6-3.5-3.9
		c0.5-5,0.7-10.1,0.7-15.4c-8.9-4.1-14.4,4.4-18.8,10.4c-3.4-0.3-7.2-0.7-9.9-1c-1.3-2.4-2.7-4.9-4-7.1c4.9-5.2,8.1-10.7,9.2-16.5
		c-13.9-8.2-30.4,3.4-35.2,7.5c-4.6-0.6-9.7-0.6-13.7-2.8c-6.7-3.6-14.7-5.6-23.9-5.9c-4.4,0.1-7.2,4.1-9.5,7.6
		c2.1-0.3,4.1-0.7,6.1-1.2c11.2-3.5,20.6,1.6,29.8,7.5c-1.3,4.8-2.4,9.2-3.3,13.5c-2.9-1.2-6-2.4-9.2-3.4l0.6,4.3
		c-3.5-0.7-6.8-1.6-10.4-2.6c2.4-1.8,4.9-3.7,7.9-5.7c-5.8-3.4-12.9-5.2-16.2-11.2c-1.3,1-2.7,2.3-4,3.2c2.2,2.7,4.2,5.2,6.2,7.5
		c0,3.5,0,7,0.2,10.1c-6,0.3-11.9,1-18,0.7c-1.3-0.7-2.6-1.6-3.6-2.6c-2.2-2.2-4.6-4.1-7.9-4.1c-5.9,2.2-7.2,8.8-7.5,14.7
		c-0.6,10.9-2.2,21.3-3.5,32c-1.9,14.4-0.9,28.7-2.9,43.1c-14.2-12.6-20.2-31.5-36.8-41.8c-7.1-4.8-15.7-5.1-23.8-6.3
		c0.1-2.2,0.4-4.4,0.7-6.6c4.6-1.8,9.2-3.4,13.7-5.6c-3.4-1.9-6.8-3.6-10.4-5.4c0.4-4.6,0.9-9.3,0.6-14.1c-1.4-8-6.9-15.3-14.4-19.4
		c-5.5-2.6-10.5,0.9-14.7,3.7c-2.6,2-6.4,0.3-9.5,0.6c0,1.2,0.2,3.3,0.2,4.8c-1.6,2.8-2.8,6.7-3.2,10.4c1.6-1.5,3.3-3.1,4.9-4.6
		c-0.1,0.3-0.1,0.5-0.4,0.7c0.6,2,0.9,4.2,1.3,6.3c2.6,15.1,4.2,20.3,21.2,22.2c0.7,2.8,1.4,5.8,2.4,8.8
		c-6.7,2.3-11.9,11.2-9.9,17.6c5.6,6.6,14.5,6.2,21.9,9.4c12.9,16.3,19.9,36.4,36.5,50c4.9,4.4,9.9,9.1,16.7,10.3
		c-0.2,3.3-0.6,6.5-0.9,10c-8.8,1.5-19.4,4.5-25.5,12.5c-6.2,8.2-10.8,17.8-13.1,27.3c-3.3,13.8,0,27.9,0.9,41.7
		c-15.4,0.7-27.1,4.3-35.3,11c-6.9,4.9-9.9,12.9-13.1,20.5c-15.3,3.2-32.4,7.9-44.7,18.8c-3.3-1.4-6.6-2.6-10.1-3.8s-7-2.2-10.6-3.2
		c-27-7.8-50,5.3-75,13.4c-0.2,0-0.3-0.1-0.5-0.1c-15.2-3-31.1-4.5-47.6-3.6c-15.5,0.8-30.2,3.3-44.5,6.2
		c-16.6,3.3-32.8,7.1-49.9,9.8c-38-10.2-81.1,0.4-117,7.5c-10.4,2.1-21.1,3.9-32.2,5c-12.3,1.2-24.8,1-37.3,0.6
		c-23.3-0.9-46.3-1.6-69.7-0.7c-22.5,0.9-44.9,2.9-66.5,6c-10.7,1.5-21.3,3.3-31.6,5.4c-10.3,2-20.2,5-30.7,6.6
		c-11.3,1.8-22.2-0.1-32.4-2.6l-7.5-1.8c0.1,1.9,0.2,3.8,0.2,5.7c10,2.5,20.8,4.7,32.2,4.5c14.9-0.4,28.4-5,41.7-7.7
		c14.1-2.8,28.7-5.1,43.6-6.9c30.2-3.7,61.4-5.2,92.6-4.4c16.1,0.4,32.2,1.6,48.4,1.4c15.1-0.2,29.7-2,43.8-4.5
		c27.3-4.9,53.6-12.4,83.6-13c6.7-0.1,13.5,0.1,20,0.9c2.7,0.3,5.4,0.7,8,1.3c3.1,0.6,6.6,2.1,10,2.2c3.1,0,7-0.9,9.8-1.4
		c3.4-0.6,6.7-1.2,10-1.8c7.1-1.4,14.1-2.9,21.2-4.3c14.7-3.1,29.5-6.2,45.3-7.8c16.4-1.7,32.4-1.1,48.2,1.7
		c3.3,0.6,6.5,1.2,9.7,1.9c0,0.2,0.1,0.3,0.1,0.5c0.3-0.1,0.5-0.2,0.8-0.3c5.9,1.2,11.7,2.6,17.5,4c3.2,0.1,6.3,0.1,9.5,0.1
		c1.8-0.3,3.1,0.4,4,1.6c12.7-0.2,25.3,2.5,37.5,6.8c0.7-0.5,1.5-1.1,2.2-1.7c-8.1-1.9-16.2-3.9-24.3-5.8c-12.4-3-24.7-6.1-37.4-8.9
		c20.3-8.6,41.3-16.5,63.3-10.7c4.3,1.2,8.5,2.5,12.7,4c12.5,4.6,24.5,10.8,35.6,19.2l3.4-3.9c-7.3-5.4-15.2-10.2-23.7-14.3
		c12.4-7.6,27.2-16,43.5-17.1c17.4-1.8,35.4,7.5,44.1,22.3c1.9,3.5,2.8,7.2,3.2,11c2.2,0,4.4,0.1,6.5,0.2c-0.7-3.9-2.1-7.8-3.6-11.8
		c8.8-3.4,21.5-6,32.6-0.9c15.1,5.8,27.4,19.3,33.3,36.1c-0.4,0.3-0.9,1-1.3,1.6c-12,2.5-23.8,6.2-30.2,15.6
		c3.5-0.7,6.8-1.2,10.1-3.2c14.2-9.1,31.9-10,48.8-9.7c11.4,0.2,21.5,5.3,32.6,6.9c-2-12-5.1-23.8-6.9-35.8c2.4,1.9,4.8,4.1,7.5,6.6
		c0.6,10,2.6,19.5,4.5,27.9c0.7-0.7,1.9-1.7,2.6-2.3c-0.8-8-1.8-16-2.7-24.1c2.6,0.8,7.2,0.5,7.4,3.1c1.1,7.6,1.6,15.4,4,22.9
		c10.7-9.3,19.5-20.7,32.6-27c5.9-2.7,12.9-3.3,21-2c7.5,3,14.7,6.8,22.5,11c2.1,1.3,3.8,3.3,5.4,5.3c0.9,1.1,1.8,2.2,2.8,3.2
		c16.7,16.2,31.7,27.2,47.3,34.4c1.5,1.2,2.7,2.7,3.9,4.2c1.1,1.4,2.3,2.8,3.7,4c13.5,11.9,27.1,23,43.9,28.2c-1.2,1-2.4,2-3.5,2.9
		c-5.6,4.6-11.4,9.3-14.6,16l-0.5,1l1-0.4c4.2-1.7,7.5-4.7,10.7-7.7l0.6-0.6c12.3-10.2,27.3-16.5,41.7-22.6l2.6-1.1
		c7.7-3,15.6-6.2,23.9-7.6c2.5-0.5,5.1-0.6,7.6-0.8c1.9-0.1,3.9-0.2,5.8-0.5c2-0.2,4.1-0.3,6.1-0.3c4.1-0.1,8.4-0.1,12.4-1.9
		l0.8-0.4l-1.2-0.6c-1.7-0.9-3.5-1.7-5.6-1.6c-6.3-0.1-12.6,0-18.7,0.1h-2c3.1-6.9,4.8-14.1,5-21.3c1-9.2,0.4-18.5-0.3-27.5
		l-0.3-5.1c10.8-3.4,22-6.1,32.9-8.6l9.9-2.4c8.7-2.1,17.6-3.5,26.3-4.9c6.6-1.1,13.4-2.2,20-3.5c9.6-1.9,19.5-3.2,29.1-4.5
		c4.1-0.5,8.4-1.1,12.6-1.7c5.3-0.7,10.7-0.9,15.9-1.1c1.1,0,2.2-0.1,3.3-0.1h0.6l-0.2-0.5c-2.1-6.1-3.4-12.2-3.7-18
		c7,1.4,13.9,6,19.3,12.9l0.6,2.6c1.6,17.9,10.9,35.9,25.6,49.5c-11.7,6.3-26.4,15.1-37.4,27.8c-0.8,1-1.7,2.1-2.6,3.1
		c-3.3,3.7-6.6,7.6-8.3,12.5l-0.4,1.1l1-0.6c5.4-3.1,9.6-7.6,13.8-11.9c2.6-2.8,5.4-5.7,8.4-8.1c19.5-16,39.7-25.6,60-28.5
		c13.8-2.1,30.2-4.1,46.7-2.8c12.9,1.1,26.1,3.6,39.3,7.5c1.1,0.3,2.1,0.7,3.2,1c4.3,1.4,8.7,2.8,13.3,2.1l1.1-0.2l-0.9-0.6
		c-2.5-1.6-4.6-2.8-6.9-3.7c-16.3-6.1-33.7-10.1-51.7-11.9c8.4-10.4,27.5-43,26.7-42.9c0.8-2.4,1.5-4.9,2.2-7.4
		c1.2-4.5,2.5-9.1,4.5-13.4c1.2-0.6,2.5-1.2,3.7-1.8c8.5-4.2,17.3-8.6,24.4-15.3c6.2-5.7,10.6-13,14.4-20c5.9-13.4,7-28.7,2.9-42.5
		C1632.3,777.8,1628.5,769.5,1623.1,763.1z M1349.1,285.6c0.3,2.3,0.3,4.6,0.2,6.9c-0.1-0.6-0.3-1.2-0.5-1.8
		C1348,288.7,1348.3,286.9,1349.1,285.6z M1011.5,605.9c6.2-5.2,14-7.1,19.3-7.8c2,0.9,3.8,1.9,5.6,3.2c-3.3,4.5-7.9,8.2-12.4,11.7
		c-1.5,1.2-2.9,2.3-4.5,3.5c3.8,0.8,8.1,1.1,10.4,4.3c-8,3.1-16-4.5-23.9-1C1007.2,615,1007.1,609.1,1011.5,605.9z M1005.7,608.8
		c-0.9,4.4-1.9,8.8-3.2,13.1c-2.2,0.9-4.8,1.4-7.4,1.6C995.8,618.5,998.2,610.4,1005.7,608.8z M935.2,652c0.4-9,3.2-17.5,2.9-26.3
		c2.6,2.5,4.7,5.7,6.2,9.4c28-6.2,56.5-5.9,84.9-7.1c8,0,15.5,2,23.4,0.6c1.6-2.6,1.1-8.2,4.9-8.5c0.1,4.9-0.9,10.4,2.4,14.8
		c7.8,10.9,8.4,24.3,11.1,36.7c2,10.2,0.4,20.7,1.3,31.2c0,0.6,0.1,1.1,0.1,1.7c0,4.6,0.2,9.5,0.6,14.8c-1.1,5.5-3.8,10.2-7,14.6
		c-6.3,2.8-11.6,7.7-15,13.7h-0.1c-2.5,8.1-6.9,15.9-12.1,22.3c-1,1.3-2.2,1.9-3.4,1.9c-3.6,5.8-6.5,11.5-8.8,17.2
		c-0.4,0.6-0.8,1.2-1.1,1.8c-0.2,0.4-0.5,0.8-0.7,1.2c-6.5,0.4-13.1,1-19.2-1.7c-14.5-6.7-26.1-18.8-31.7-33
		c-2.7-7-2.5-14.8-6.9-21.4l4.5-3.9c7.5,0.2,13.7,4,19.9,7.8c4.9,3.1,10.2,6.5,16.4,7.5c12.7,2.9,27.3-1.5,36.8-11.2
		c-0.4-1.2-0.9-3.2-1.3-4.6c-7.7,5.9-15.1,13.6-25.5,13.8c-8.2,0.3-15.3-4-21.9-7.8c-4.1-2.5-8.4-5-12.9-6.6
		c-6.8-1.2-7.1-9.2-9.1-14.5c0.9-1.1,2.5-3.1,3.5-4.3c-0.2-3.2-0.4-6.6-0.6-9.2v-0.2l-0.2-0.2c-2.8-2.5-5.8-5-8.5-7.5
		c-4.6,0.1-9.2,0.1-13.4,2.3c0.8-5.8,1.5-12-0.7-17.7c-1.3,6.1-1.6,12.4-2.4,18.6c-3.4-0.1-7.1-1.2-10.4,0.2
		c-3.5,2.5-5.2,6.5-5.2,11.2c-1.3,1.8-2.6,3.7-3.9,5.7C930.4,694,933.5,673,935.2,652z M938.3,706.3c2.2-4.9,7.1-7.7,12.4-5.9
		c-1.6,2.9-3.6,6-4.2,9.5c0.6,4.1,2.7,7.5,4.6,11c-3.9,4.4-7.8,9.4-14.4,8.2c-1.4-3.1-3.4-6.2-2.4-9.7c0.7-7.2,8.2-10.4,12.4-15.5
		C943.9,704.6,940.8,705.5,938.3,706.3z M950.9,708.3c1.6-3.7,4.4-6.9,6.6-10.3c2.7-0.1,5.5-0.7,8.2-0.3c4,1.9,6.2,6,8.5,9.7
		c-1.6,3-3,6.2-4.4,9.3c-5.9,0.5-10.7,1-14.9,1.9C952.9,715.5,950,712,950.9,708.3z M971.1,719.6c0.7,2.7,1.6,5.9,2.7,9.1
		c-6.2-0.1-10.5,4.8-13.4,9.1l0.5,0.3c1.9,0.9,3.6,1.6,5.5,2.5c0.9,5.7,1.4,11.4,3.3,16.9c1.4,4.8,4.6,8.8,5.6,13.8
		c-3.4-2.7-5.9-6.5-8.2-10c-1.1-1.8-2.4-3.7-3.6-5.3c-6-7.9-10.6-16.3-15.9-24.5C950.9,721.9,961.7,718.6,971.1,719.6z M931.1,728.2
		c2,1,3.6,2.4,5.3,3.9h6.9c4.1,9.7,10.4,18.5,16.2,27c6.2,8.5,10.1,18.2,22.1,18.8c8.9,10.1,17.7,16.7,27.8,18.5
		c4,0.5,8.6,0.9,12.7,0c-3.1,5.5-5.9,11.4-6.8,17.5c-0.4,2.3-0.4,4.7-0.3,7.1c-11.7,0.1-23.3,6.9-29.6,17.3
		c-1.6,2.9-4.4,5.3-6.9,7.6c-2.9,2.5-5.9,5.2-7.5,8.7c2.6,1.1,5.2,2,7.8,3.1c-1.5,3.4-6.9,7.7-1.3,10l1.3-1.8
		c0.9-2.3,2.2-4.4,4.5-6.7v5.1l-2.7,1.6c0.4,1.7,1.6,2.8,2.7,3.9c-2.6,0.1-5.2,0.1-7.8,0.3c-13.9-28.6-13.4-60.6-26.4-89.5
		c-4.9-10-14.2-16-21.2-19.2C930,750.2,930.1,739.2,931.1,728.2z M982.4,854.3c-2.7-0.5-5.2-1.2-7.5-1.9c2.5-1.9,4.8-3.5,7.4-5.1
		C982.4,849.8,982.4,852.1,982.4,854.3z M952.2,847l5.5-1.8c2.1,6.7,3.6,13.5,5.3,21.4c-3.9-1-8.7-1-11.7-3.9
		C952.3,858.1,952.6,853.3,952.2,847z M847.6,649.4c-4.1-1.1-8.1-2.4-9.4-6.2c-3.6-8.6-3.6-17.9,0.2-24.6c1.9-4.1,6.5-6.7,11.7-6.7
		c5.6,3.5,14.8,11.3,15.1,22.9c-4.4-0.5-8.6-1.1-13.1-1.5c-2.2,1.5-3.9,3.2-5.5,5c0.8,4,1.7,7.9,2.6,11.6
		C848.6,649.8,847.9,649.6,847.6,649.4z M850.1,639.9c0.1-1.2,0.8-2.3,2.4-3.2c3.4,0.6,7.1,0.9,11.7,0.9c-0.1,2.7-0.4,5.6-0.4,8.2
		c0.8,1.1,2.2,3.1,3.2,4.3c-3.9,0.3-8,0.6-12,0.6C852.8,647.4,849.2,643.3,850.1,639.9z M860.4,662c-1.4-0.1-3.1,0-4.6,0.6v-0.2
		c0-2.2,0.1-5.9,0.4-8.2C860.4,654.2,859.9,658.9,860.4,662z M897,727.1c-12.1-12.9-17.5-30.1-30-42.7c-6.6-2.3-15.8-1.8-19.7-8.5
		c5.1-9.7,19.1-11.1,29.8-7.6c22.5,9.2,29,33.7,46.6,47.7c-1.1,6.6-1.4,13.3-2,19.5c-0.1,3.4-0.4,6.7-0.7,10.1
		C911.3,741.9,904.1,734.3,897,727.1z M911.7,890.7c-8.5,0-15.7,1.1-21.9,3.4c-2.2,1.8-3.5,0-4.5-1.9c-4.9-7.8-12.7-14.2-22.5-17.6
		c-7.8-3.1-15.9-1.8-23.8-3.1c8.7-18.4,23.1-25.2,44.6-25.5C910,846.9,922.7,868.2,911.7,890.7z M958.9,935.6l-3.3-2.6
		c-0.2-5.7-0.5-10.8-3.2-15.1c-7.5-12.5-20.5-22.1-36.5-27.5c4.9-11.3,1.2-24.1-1.5-30.8c-4.6-11-16.7-14.7-27.1-19.5
		c-1.2-8.8-2.1-18.7-2.7-29.9c0-1.2,0.1-2.4,0.3-3.7c2.4,1.3,5.2,1.7,7.7,1.7c0,4.1,0.4,8.3,1.3,12.6c5.6-1.4,7.6-6.5,9.8-11
		c-0.5-1.3-1-2.6-1.6-4.1l-3.3-6.9c-2.1,1.4-3.2,3.8-4.5,5.7c-3,0.2-6.1,0.2-9.2,0.2c3.2-19.3,21.5-43.7,43.2-34.6
		c10.4,5.7,14.2,17.9,16.9,26.7c2,6.7,6.1,14.2,2.2,20.7c-8.1,2.3-16.8,0.7-25.1,1.2c1.2,1,2.5,2.3,3.5,3.5c8.6-1,17.7,1.8,25.5-3.2
		l4.9,21.3c-8.9,3.4-19.1,2.5-27.2-2.4c0.2-1.6-0.4-3.5-1.7-4.4c-0.7-0.3-1.3-0.4-1.7-0.3c0.2-4.7,0.7-9.6-3.3-13.3
		c-3.9,15,3.3,29.2,6.5,43.6l-7.2,1c0.6,7.8,6.8,12.4,12.9,16.7c2.8,1.9,3.2,1.9,1.9,5.3c-2.6,5.7,2.2,7.4,6.2,10
		c0.1,1.9,0.5,4.2,1.1,6.7c1.1,1.4,2.5,2.2,4,2.8c2.2,1,4.2,1.9,4.2,4.4c0.5,4.3,4.2,5.9,7.4,7.8c0.1,1.4,0.5,3.9,0.7,5.1
		c2.8,3.1,5.9,6.1,7.4,10C965.1,934.5,961.9,934.9,958.9,935.6z M948.5,862.5c-1.4,0.6-3.1,0.3-4.9-0.7c-0.6-5.1-1.3-10.1-1.9-15.1
		C950.5,845.8,948.7,856.5,948.5,862.5z M938.9,862.2c-1.6,0-4.2,0-5.8,0.1c-1.6-6-2.6-12.2-4.2-18.2c3.4,0.9,7.4,1.2,8.7,4.6
		C938.9,853,938.6,857.7,938.9,862.2z M1009.2,940.7c-9.5-3.6-19.3-5-29.1-7.1c-3.1-3.7-11.4-6-7.5-11.9l-0.7-0.2
		c-1.1-0.6-2.9-1.2-4-1.8c5.5-6.6-4.6-7.1-9.5-8.4c1.4-1.9,2.7-3.7,4-5.7c-3.9-2.4-8.2-3.1-12.7-4.3c-0.5-3.2,4.6-4.4,5.6-7.3
		c-4.5-2.2-9.1-3.7-13.7-5.3c4-2.3,8.6-4.2,10.8-8.5c-8.2-2.2-17.5-4.4-22.8-11.3c11.7-1.6,23.1-0.6,32.6,3.2
		c-2.4,11.4,1.2,24.8,10.4,39.3c2.9,4.5,7.2,10.9,13.7,8.4c-4.1-3.4-7.7-7.4-10.7-11.7h0.3c1.3,0,2.6-0.9,3.1-2
		c0.7-2-1.3-4.7-3.5-4.5c-1.3,0.1-2.3,0.9-2.8,1.8c-2.5-4.6-4.5-9.5-5.8-14.6c1,0.8,2.2,1.3,3.4,1.3s3-0.9,3.5-3.5
		c-2.5-0.7-5.1-1.6-7.8-2.3c-0.6-3.7-1-7.5-0.9-11.3c5.5,1.6,11.9,0.5,17.2,2.6c3.9,17.2,4.8,35,6.1,52.4c0.5,3.1,0,6.8,4.5,7.5
		c-0.4-23.9-3.5-47.3-5.2-71.1c-1-7.1-1.2-14.1,0.5-20.2c0.1-0.1,0.2-0.2,0.4-0.2l-0.3-0.3c2.4-8,8-14.5,19.3-17.6
		c3.1,0,5.9,0.5,8.4,1.2c2.4,10.6,8.8,21,14.2,29.7c0.5,0.8,1.1,1.7,1.6,2.5c0,0-0.1,0-0.1,0.1c0.2,0.2,0.5,0.5,0.7,0.8
		c0.1,0.2,0.2,0.3,0.3,0.5c0.6,0.9,0.9,1.9,1,3l0.8-0.4c1.6,2.2,3.2,4.4,4.9,6.6c0.2,1,0.4,1.9,0.7,2.8c-0.9,1.4-2.1,3.2-3.2,4.8
		c-5.8,0.1-12.6,0.1-19.2-1.5c-3.5-0.7-7.2-2.2-10.5,0c-7.3,4.4-6.5,13.7-6.2,21C1003.2,911.8,1005.9,926.3,1009.2,940.7z
		 M1011.8,907.8c-9.7-8.8-5.6-23.7-4-28.7c10.9,0.2,21.8,5.4,32.2,0c1.5,10.3,4.9,20.2,4.2,30.5
		C1035.1,915.5,1020.1,916.6,1011.8,907.8z M1037.7,928l-0.2,0.6c0.6,3.7-1.8,6.6-4,8.5c-1.3-6.8-2.7-12.5-4.2-17.6
		c1.9-0.1,4.8-0.1,6.5-0.3c0.6,2.3-0.9,7.3,3.3,6.7c1.1-2.6,1.3-5.3,0.7-7.9c2.2-0.8,4.8-1.9,7.5-2.6
		C1048.1,921.2,1043.9,927.6,1037.7,928z M1051,918.3c-2.4-8-2.7-16.4-3.6-24.6c-1.1-5.8-1.9-11.6-2.8-17.3c2.3,2.6,4.7,5.1,7.2,7.5
		v0.1c2.6,9.2,5.6,19.1,7.9,28.6C1057,914.5,1054.2,916.5,1051,918.3z M1064.4,910.7c-1.7-6.9-3.8-13.9-5.9-20.9
		c7.6,6.2,16,11.4,25.1,15.2c0.3,1.4,0.5,2.8,0.8,4.2C1077.2,908.1,1070.4,908.6,1064.4,910.7z M1556.6,653.4
		c11.7,2.9,22.3,7.6,31.3,14c8.6,7.1,15.7,13.8,21.7,20.7c1.7,2.2,3.6,4.4,5.3,6.6c2.5,3,5.1,6.2,7.5,9.4
		c-5.8-0.4-11.7-1.4-17.3-2.2c-8-1.2-16.3-2.5-24.5-2.5c-17.1-0.3-33.5,0.6-48.8,2.5l-0.3,0.1c-26,4.8-52.9,9.8-77.6,20.5
		c-5.4,2.1-10.7,4.6-15.8,7.1c-4.4,2.1-9,4.3-13.6,6.2l-1.2-2.5c-6.7-14.5-13.6-29.4-23-42.6c-5.6-9.1-13.8-16.7-20.5-22.8
		c-5.9-5.1-13.2-8.2-20.3-11.1c-1.5-0.6-2.9-1.2-4.3-1.9c12.3-3,25.7-3.9,39.7-2.5c15.8-0.1,31.7,2.7,47,5.3l1.8,0.3
		c4.2,0.3,8.4,1.1,12.5,1.8c6.6,1.2,13.4,2.4,20.3,1.9c1.3,0.1,2.4-0.6,3.3-1.3l1-0.7l-2.5-1c-0.9-0.4-1.8-0.7-2.7-1.1
		c5.8-1.5,11.9-2.1,18.1-1.7c1.1,1.9,2.4,3.8,3.6,5.6c1.3,1.9,2.7,4,3.8,6c1,1.7,2,3.5,2.9,5.2c1.5,2.8,3.1,5.7,4.9,8.4l0.3,0.5
		l0.4-0.5c0.4-0.5,1.1-1.3,1.4-1.7l0.1-0.1v-1.2l0.7,0.1c4.5,0.8,9,2,13.4,3.1c2.6,0.7,5.2,1.3,7.9,1.9h0.2l0.2-0.1
		c3.9-2.5,1.6-6.2-0.4-9.5c-0.7-1.1-1.3-2.1-1.7-3c6.6,1.3,12.7,4.4,18.6,7.4l0.6,0.3c2.4,1.4,5.1,1.4,7.8,1.5h0.6l0.1-0.2
		c2-4.1-0.1-7.8-2.1-11.3c-0.5-0.8-0.9-1.6-1.3-2.3c5.6,0.4,10.5,3,15.2,5.6c3.5,1.9,7.1,3.8,11,4.9l1,0.3l-0.5-0.9
		c-2-3.6-5.7-5.6-9.2-7.4c-0.8-0.4-1.6-0.9-2.4-1.3l-0.1-0.1c-5.9-3-12.6-6.5-19.4-3.9l-0.3,0.1v0.3c0.1,3.3,1.7,6.1,3.2,8.8
		c0.6,1.1,1.3,2.2,1.8,3.4c-3.5-1.1-6.8-2.6-10-4.1c-4.1-1.9-8.3-3.9-12.8-4.9c-1.9-0.4-4.7-0.1-6,1.2c-0.7,0.7-1,1.7-0.7,2.9
		c0.8,1.9,2,3.7,3.1,5.5c0.5,0.8,1.1,1.7,1.6,2.5c-1-0.3-2.1-0.7-3.1-1c-4.5-1.5-9.1-3-13.9-2.7h-0.2l-2.9,2.8
		c0.1-3.2,0.1-6.4,0.1-9.6c0-5.1,0.1-10.5,0.3-15.7c1.4-0.1,2.9-0.2,4.3-0.3C1529.2,651.1,1543.2,650,1556.6,653.4z M1491,635.5
		c-0.1-2-0.3-4-0.4-5.9c-0.2-2.6-0.5-5.4-0.5-8.1c2,3.4,4.3,6.8,6.5,10l0.6,0.9l0.3-0.1c1-0.2,1.9-0.4,2.9-0.7
		c1.5-0.4,3.1-0.7,4.6-1l0.3-0.1l0.1-1.9c0.1-1.3,0.1-2.7,0.2-4.1c1.8,1.2,3.2,2.9,3.8,4.7c-0.1,2.6-0.6,5.1-1.2,7.6
		c-0.6,2.7-1.2,5.6-1.2,8.5c0,4.2-1.1,7.1-3.4,9c-0.6-0.1-1.2-0.3-1.8-0.4c-2.2-0.4-4.6-0.8-5.7-3c-2.3-3.3-5.2-6.2-8.1-8.9
		c-1.7-1.7-3.5-3.4-5.2-5.2c-1.8-1.8-1.5-4.4-1.2-6.9c0-0.2,0-0.4,0.1-0.6c0.9,0.7,1.8,1.5,2.7,2.4c1.8,1.7,3.6,3.4,6,4.2l0.6,0.2
		L1491,635.5z M1518,646.8c-1.8,0.4-3.7,1-5.8,1.5c-0.2-5.2,1-10.3,2.1-15.3c0.5-2.2,1-4.4,1.3-6.6v-0.2c-0.5-1.2-0.9-2.5-1.4-3.7
		c-2.8-7.5-5.8-15.3-7.6-23.2c4,0.1,8.2,0.1,12.8-0.2C1526.2,613.2,1525.7,631,1518,646.8z M1510.9,551.8c3.7,1,6.5,3.8,9.2,6.5
		l1.5,1.5c4.7,4.3,7.2,11.5,6.8,19.2c-0.6,5.1-2.4,11.5-8,13l-0.4,0.1c-5,1.5-10.7,3.2-15.1,0c-5-3.1-10.4-6.9-10.5-13.2
		c-0.6-4.3,1.6-8,3.8-11.7c0.4-0.6,0.8-1.3,1.1-1.9c1.1-1.9,2.6-3.6,4.1-5.2c0.9-1,1.9-2,2.7-3.2l0.6-0.8l-0.9,0.1
		c-2.6,0.2-4.7,1.6-6.6,3c-1.1,0.7-2.1,1.5-3.3,2c-0.9-2.8-2.1-5.4-3.3-8c-0.7-1.6-1.5-3.2-2.1-4.9
		C1496.8,548.6,1503.7,549.7,1510.9,551.8z M1489.6,559.7c0.8,2.3,1.7,4.6,2.7,6.9c-3.6,7-3.8,14.7-0.6,20.6c1.2,2.3,3.2,4,5.2,5.5
		c1.2,0.9,2.3,1.9,3.3,2.9c1.1,4,2.5,8.1,3.8,12c1.2,3.6,2.5,7.4,3.5,11.1c-1.5,0.4-2.9,0.9-4.4,1.4l-0.2,0.1l-0.1,0.2
		c-0.4,1-0.7,1.9-1.1,2.9l-0.5,1.2c-1.5,0.4-2.9,0.8-4.3,1.3h-0.1l-0.3-0.6c-1.7-3.3-3.5-6.7-5.5-9.9l-0.1-0.2h-0.2
		c-1.2,0-2.5,0.1-3.7,0.1h-0.4v0.4c-0.2,3.5-0.2,7.1-0.3,10.6v0.7c-1.1-0.6-2.2-1.1-3.3-1.7l-0.1-0.1h-0.1c-1,0.2-2,0.3-3,0.5
		l-0.6-2.1c-1.2-4.7-2.5-9.6-4-14.4c-0.8-2.1,0.4-3.9,1.6-5.8c0.5-0.7,0.9-1.4,1.3-2.2c3.4-5.6,4.5-12.5,3.5-21.3
		c0.6,1.9,1.2,3.7,1.9,5.6c1.9,5.8,3.9,11.8,5.7,17.8c0.7,2.1,1.3,4.4,1.9,6.5c1.3,4.8,2.7,9.8,5.5,14.1l0.4,0.7l0.3-0.7
		c1-2.4,0.3-4.8-0.4-7c-0.2-0.6-0.4-1.2-0.5-1.8c-3.2-11.9-7.1-23.8-10.8-35.3c-1.4-4.4-2.9-8.8-4.3-13.2
		c-1.5-5.3-3.6-10.4-5.6-15.3l-0.8-2.1c3.1-0.9,6.4-0.9,9.5-0.8C1486.7,551.7,1488.2,555.8,1489.6,559.7z M1465.2,564.7
		c-4-0.4-4.1-5.2-3.8-8.9c3.1-2.5,6.7-4.4,10.6-5.7c1.6,3.6,3,7.6,4.5,12.5c1.2,4.3,2.5,8.6,3.9,12.8
		C1477.4,569.7,1471.5,565.4,1465.2,564.7z M1484.2,539.4c0.9,0.2,1.5,0.6,1.9,1.3c0.5,0.8,0.6,2,0.3,3.2c-10.3-1.2-19.2,2.8-25,6.4
		c-1,0.6-1.7,1.5-2.5,2.3c-1.1,1.2-2.1,2.3-3.5,2.7c-0.7-1-1-2.2-1-3.4c0.1-1.4,0.7-2.6,1.7-3.4c5.9-7,15-9.5,22.9-9.5
		C1480.8,539,1482.6,539.1,1484.2,539.4z M1454.4,533.4c1.6-0.8,3.1-1.8,4.7-2.8c4.9-3.1,10-6.3,16-5c2.6,1.4,2.7,4.7,2.8,7.6
		c0,0.5,0,0.9,0.1,1.4c-8.3-0.4-16.1,3.5-22,7C1454.7,538.9,1454.2,536.1,1454.4,533.4z M1441.2,517.7c-0.1-1.6,0.7-3.4,2-4.8
		c8-7.8,17.9-11.5,26.6-9.9c2.2,2.2,2.3,5.4,2.4,8.5c0,0.6,0,1.1,0.1,1.7c-8.7,1.3-17.1,5.2-24.5,11.4l-0.5-0.4
		C1444.7,522.5,1442.1,520.7,1441.2,517.7z M1448.1,535.6c-0.1,0.2-0.1,0.3-0.2,0.5c-1.5-3.9,1.4-7.7,5.1-9.7
		c6.7-4.2,13.6-7.8,20.6-7.8c2.2,0,4.3,0.4,6.5,1.2l0.2,0.6c0.3,1.1,0.6,2.2,1,3.2c-3.5-2.1-7.4-4.1-11.7-2.9
		c-6.7,0.8-12,4.9-17.1,8.9l-0.2,0.1C1450.2,531.2,1449.1,533.4,1448.1,535.6z M1404.8,594.6c3.4-5.9,7.3-11.6,11.4-17
		c10.8-12.4,21.6-20.2,33.1-23.9c1,2.2,2.9,3.6,4.7,5c2.4,1.8,4.6,3.5,4.8,6.7c-6.9,2.6-13,6.9-18.9,11.1c-2.2,1.6-4.5,3.2-6.7,4.6
		l-0.8,0.5l0.9,0.2c4,1,7.7-0.9,11-2.6l1.1-0.5c1.9-1,3.7-2.1,5.4-3.2c3.8-2.4,7.6-4.8,12.1-5.6c4.5-0.7,10.1,1,12,5.7
		c4,9.7,1.2,22.1-6.7,30.3c-2.4,2.6-5.5,4.5-8.4,6.5c-2.6,1.7-5.2,3.4-7.5,5.5l-0.6,0.6l0.8,0.2c4.4,0.9,8.1-1.2,11.7-3.1
		c1.2-0.7,2.4-1.3,3.6-1.9c0.3,11.2-9,19-13.1,21.8c-1.5,1.1-2.9,2.4-4.6,4.3l-0.4,0.5l0.6,0.2c3.2,1.1,6.1-0.9,8.7-2.7
		c0.7-0.5,1.4-1,2.1-1.4c6.6-4.3,11-11.5,11.7-19c0.4,2,0.7,4,1.1,5.9c0.9,4.7,1.7,9.6,3,14.3l0.1,0.1c1.7,2.6,4,4.7,6.2,6.8
		c2.2,2,4.5,4.1,6.2,6.7c-3.4,0.6-6.9,1.1-10.3,1.5c-4.7,0.6-9.6,1.3-14.4,2.3c-4.3,0.9-8.6,0-12.7-0.9c-1.6-0.3-3.3-0.7-4.9-0.9
		c-4-0.6-8-1.3-11.8-2c-6.5-1.2-13.3-2.5-20-2.9l-5.4-0.6c-6.4-0.7-12.9-1.4-19.5-1.2h-3.5c-3.6-0.1-7.3-0.2-10.7,1.3
		c-1.9,0.9-3.9,0.7-6,0.5c-0.2,0-0.4,0-0.6-0.1c1.2-0.5,2.4-1.1,3.5-1.6v-0.9c3.6-1.2,6.9-3,9.5-6.6c1-1.3,1.9-2.7,2.7-4.1
		C1395.5,624.5,1400,608.1,1404.8,594.6z M1387.8,401.8l1,0.9c-0.6,0.6-1.3-0.6-2-1.7C1387.2,401.3,1387.5,401.5,1387.8,401.8z
		 M1356.2,424.2c-0.6,4.7-1.1,9.5-2.8,13.9c-2.7,7.5-8.4,13.8-15.6,17.3c-5.8,2.8-11.9,4.8-18.2,6c-8.7,1.7-17.9,1.6-26.5-1.1
		c-3.2-4.4-7-8.4-11.4-12.1c-4.7-4.1-9.8-7.2-15.3-9.3c-0.1-0.2-0.3-0.4-0.4-0.6c-0.6-0.8-1.1-1.6-1.7-2.4h0.1c1,0.1,2,0.3,2.9,0.6
		c6.8,0.6,13.3,2.8,19.8,4.5c-3.3-3.1-7.8-4.3-11.8-6.2c15.5,0.1,24,5.3,37.3-6.8c-0.7,4.7-3.1,8.6-4.6,13
		c5.3-4.3,7.8-10.9,11.5-16.4c-0.4,7.2-5,13.1-8.3,19.1c5.5-3.4,8.1-9.4,12.1-14.1c-0.6,5.1-4,9.3-6.2,13.7
		c12-7.1,14.9-20.1,18.3-32.6c2.4-9.1,13.1-6.7,19.5-3.6c-17.6-32.2-55.3-8.7-79.4,2.1c-6.5,2.9-13.6,5.7-20.8,6.3
		c-0.4-2.4-0.4-4.8,0.1-7.2c0.9-4.3,3.7-8,7-10.9c4.8-4.2,10.6-7.2,16.5-9.8c9.6-4.4,20.2-6.7,30.7-7.9c5-0.5,10.1-1,15-1.3
		c5.2-0.2,10.4-0.3,15.5,0.7c3.4,0.7,6.7,1.9,9.4,3.9c3.1,2.3,5.1,5.8,6,9.5C1357.4,402.9,1357.3,413.7,1356.2,424.2z M1285.1,456.7
		c-2.9-1.6-5.8-3.6-8.3-5.9C1279.7,452.5,1282.4,454.6,1285.1,456.7z M1276.7,422.3c1.3-2.8,4.4-3.9,6.9-5.3
		c9-4.3,18.2-8.5,27.4-12.7c2.4-1,5-2.1,7.7-1.9c2.6,0.1,2.5,3.4,1.4,5.2c-3.3,6.3-9.2,10.8-15.5,13.9c-7.2,3.3-15.4,5.1-23.4,4.1
		C1279.4,425.2,1276.4,424.6,1276.7,422.3z M1255.7,435.8c-3.9-0.6-7.8-1-11.7-0.9c-13,1.1-25.6,6.1-35.7,13.7
		c0.3-2.3,0.6-4.6,0.9-6.9c0.2-2.9,0.6-5.9,1.6-8.6c6.9-4.4,19.9-9.7,19.9-9.7c8.5-2.2,17.2,2.3,21.1,4.8
		C1253.2,430.7,1254.3,433.3,1255.7,435.8z M1080.5,422.9c0.4-4,0.9-8.1,1.7-12.1c0.5-2.7,0.7-5,1.5-7c0-0.9,0.1-1.9,0.1-2.8
		c0.5,0,1,0,1.5,0.1c-0.1-8.8-0.1-17.6,1.5-25.9c-0.2-1.2,0-2.5,0.8-3.9c0.6-1.1,1.1-2.3,1.5-3.4c-0.5-0.8-1-1.6-1.5-2.3
		c2.8-1.8,5.5-4,6.9-5.2c2.3-1.8,4.5-3.8,6.8-5.7c2-1.7,6.4-4,7.1-6.4c0.2-0.6,0.4-1,0.5-1.2c-0.3-0.8-2.1-1.9-3.5-2.7
		c0.1,0.1,0.2,0.2,0.2,0.3c-0.4,0.1-0.8,0.1-1.2,0.1c-2.7-1.1-5-2.8-7.1-4.7c1.2,2,2.8,3.7,4.5,5.3c-0.9,0.1-1.9,0.1-2.8,0.4
		c-3.6-1.8-6.9-4.3-9.6-7.2c-1.7-1.6-2.9-3.6-4.5-5.3c0.8,4.5,3.5,8.4,5.7,12.4c-10.5-6.8-15.2-19-17.6-30.3
		c-0.6,5.2,0.7,10.3,1.6,15.4c-4.4-7.4-5.1-16.1-4.1-24.5c-0.3-0.7-0.5-1.4-0.8-2.1l-0.6,0.9c1.8-5,4.9-9.5,9.9-13.1
		c1.6-1.2,3.4-1.5,4.9-1.2c12.3-6.7,31.9-4.2,42.4,5.1c1.3,0.3,2.7,0.6,4,1c0.9,0.3,1.7,0.7,2.3,1.1c0.5-1,0.9-1.9,1.2-2.6
		c2.2,5,4.7,9.8,7.6,14.4c1-1,2.3-1.7,4.1-1.9c-0.2-1.7-0.3-3.5-0.5-5.2c8.6-6.4,19.1-10.1,29.7-12.4l1.7,1.7
		c2.4-2.4,5.5-4.3,9.5-5.6c1.9-0.6,3.7-0.9,5.7-1.2c-0.2-0.1-0.4-0.2-0.7-0.3c25.3-8.2,52.8-11.3,79.1-6.2c0.5,1.9,1.1,3.7,1.6,5.6
		c1-0.9,2.3-1.5,4.1-1.7h0.6c0.3-1.4,0.6-2.9,1-4.3c1.5-0.3,4.5-0.9,6-1.1c0.1-1.7,0.3-5,0.4-6.6c8.7-8.8,16.5-21.6,30.8-21.8
		c5.7-1,11.2,0.3,16.3,2.6c-0.2,0.1-0.3,0.3-0.5,0.5c-0.6,0.1-1.3,0.2-2,0.3c2.6,2.4,5.2,5,7.4,7.9c0,0.2,0,0.5-0.1,0.7
		c1.6,1.9,2.7,4.1,3.2,6.4c-1.1-1.3-2.2-2.6-3.5-3.7c-0.1,0.8-0.2,1.5-0.4,2.3c2.6,8,3.5,16.7,0.6,24.8c-0.1-5.2,0.2-10.5-1.4-15.4
		c-0.2,11.6-2.5,24.3-11.6,32.7c1.5-4.3,3.3-8.6,3.3-13.2c-1.3,1.9-2.1,4.1-3.4,6c-2.1,3.3-4.8,6.3-8.1,8.7
		c-0.9-0.1-1.8,0.1-2.8,0.1c1.4-1.8,2.6-3.8,3.4-5.9c-1.7,2.2-3.7,4.3-6.1,5.9c-0.4,0.1-0.8,0.1-1.2,0.1c0.1-0.1,0.1-0.3,0.2-0.4
		c-1.2,1-2.8,2.5-3,3.3c0.1,0.2,0.4,0.6,0.7,1.1c1.2,2.2,6,3.7,8.2,5c2.6,1.5,5.1,3,7.8,4.4c2.6,1.4,9.2,5.2,12.9,5.4l-2.4,3
		c1.4,0.9,2.9,1.8,4.3,2.7c0.6,1.1,1.1,2.3,1.6,3.4c3.8,8,7.1,16.3,10.7,24.4c0.1-0.1,0.3-0.2,0.5-0.2c1.3,2.9,2.4,5.4,3.1,7.1
		c-1.4-0.5-2.7-1.2-4.1-1.9c1.2,1.1,2.3,2.1,3.5,3.1c-0.9-0.1-1.8-0.1-2.7-0.1c-5.5-0.1-11-0.1-16.5-0.1c-7.8,0.2-15.7,1-23.3,2.8
		c-9.9,2.2-19.4,5.5-28.9,8.7c-9.7,3.4-18.9,8-28.5,11.5c-6.4,2.4-36.1,10.9-43,12.2c-1.5,0.2-2.9,0.3-4.4,0.5
		c-12.7,1-25.4,0.6-38.1,0.6c0.1,0,0.2-0.1,0.3-0.1c-17.7,1.1-35.7,1.6-52.7,7.3c0.1,0.3,0.2,0.6,0.4,1c-2.8,1-5.7,2-8.5,3.1
		c-2.7,1.1-5.3,2.4-7.9,3.7l-15,2.8c0-1.1,0-2.3,0-3.4c-0.3,1.1-0.5,2.3-0.7,3.5l-2.1,0.4C1080.2,423.8,1080.4,423.3,1080.5,422.9z
		 M1182.4,429.4c-25.1-2.9-66.2-13.8-72.4,22.1c4.9-4.8,13.7-10.3,18.7-2.4c6.8,10.8,13.4,22.4,26.4,25.5c-3.4-3.6-7.7-6.4-9.8-11.2
		c4.9,3.4,9.2,8.3,15.2,9.8c-4.8-4.8-10.7-8.9-13.4-15.6c5,4.2,9.3,9.6,15.3,12.1c-2.7-3.7-6.2-6.8-8.2-11.1
		c15.6,7.6,21.7,0,35.8-4.8c-3,3.1-6.7,5.6-8.8,9.5c5.5-3.6,10.6-7.8,16.6-10.3c0.8-0.6,1.5-1.1,2.5-1.5c0.3-0.2,0.7-0.2,1-0.5
		c-0.4,1.6-0.8,3.3-1.2,5c-4.6,5.1-8.1,10.9-10.1,17.1c-0.2,1.6-0.5,3.2-0.7,4.9c-2.5,3-5.4,5.7-8.7,7.8c-9.9,6.8-21.9,9.7-33.8,9.8
		c-2.9,0-5.7,0.1-8.5-0.3c-5.2-0.8-10.2-2.7-14.3-5.9c-3.9-2.8-7.1-6.6-9.4-10.8c-5.3-9.4-10-19.2-12.3-29.7
		c-0.7-3.7-1.6-7.4-0.9-11.2c0.7-4.3,3.4-8,6.8-10.7c4.9-3.9,11-6.2,16.9-8.2c11-3.5,22.1-6.8,33.6-8c2.7-0.2,5.4-0.5,8.2-0.4
		c6.3,0.1,12.7,0.5,18.9,1.9c4.6,1.2,9.3,3,12.7,6.5c2.7,2.7,4.2,6.3,4.9,10.1C1196.5,430.6,1189.3,430.2,1182.4,429.4z
		 M1182.3,446.8c-6.8,3.5-14.8,4.1-22.2,3.2c-6.6-1-13.5-3.5-18.2-8.5c-1.5-1.3-2.6-4.4-0.3-5.4s5-0.6,7.5-0.4
		c9.5,1.2,19.1,2.4,28.5,3.7c2.6,0.6,5.8,0.7,7.7,3C1186.1,444.5,1183.7,446,1182.3,446.8z M1104.6,567.5c-1.3-1.4-2.6-2.8-3.9-4.3
		c-10.6-9-14.8-22.5-21.4-34.3c-7.7-16.2-7.6-34.5-5.8-51.9c-7.8,2.6-8.7,10.7-10.5,17.6c-0.7-5.9,0.8-17.9,2.4-25.5
		c0.2,0.1,0.4,0.2,0.5,0.4c0.5-7.7,2.1-15.4,6.1-21.7l11.6-3.5c0.7,1.2,2.1,1.4,3.1,1.9c3.6,1.8,6.1,5.1,8,8.6
		c2.9,5.3,5.3,10.8,7.9,16.1c2.6,5.4,5.4,11,9.4,15.6c5.2,6.4,12.5,10.8,20.5,13.1c11.2,3.3,23.3,2.7,34.4-0.6
		c6.7-1.9,13-5,18.8-8.9c0.6-0.3,1.1-0.8,1.5-1.1c-3.7,10.7-2.2,22.7,2.1,34.4l4.8-0.3c-0.3-0.8-0.6-1.7-0.9-2.4
		c-2.8-7-4.6-14.7-4.5-22.3c-0.5-3.6-0.5-7.2,0.3-10.9c2.8-2.3,5.3-4.9,7.5-7.7c4.6-6.2,7.6-13.3,9.6-20.8c0.3-0.2,0.6-0.5,0.8-0.7
		c0.3-0.1,0.6-0.1,0.9-0.2c0.1-0.3,0.2-0.6,0.3-0.9c9.9-8.2,22.7-13.7,36.6-13.9c5.4-0.6,10.9-0.2,16.5,1c2.1,2.6,4.2,5.1,6.5,7.5
		c-3.5-1.7-7.6-1.8-10.8-0.2c-9.1,1.4-42.5,5-49.1,6.5c-0.4,1-1.2,2.5-2.5,4.5c-5.4,8.8,27.5,42.5,40.4,40.5
		c13.5-2.1,24.4-20.5,29.9-38c0.2-2.8-0.4-5.3-1.4-7.4c3.9,3.2,8.2,6.1,13,8.1c2.9,1.2,6,2.1,9.1,2.7c4.6,6,8.1,12.7,10.5,19.4
		c-1.6-6.5-4.2-13-7.7-19c1.4,0.2,2.9,0.2,4.4,0.3c4.4,0,8.9-0.5,13.3-1.1c11.5-1.8,22.9-5.7,32.2-12.8c5-3.7,9.2-8.7,10.8-14.9
		c3.3-12.8,5.1-26.1,5.7-39.4c0.4-5,3.7-9,6.1-13.4l3.6,3.2v0.1c1.5,1.3,3.1,2.6,4.6,3.9l5.2,4.5c6.8,12.4,18.1,39.7,20.1,53.9
		c2.9,20-4.6,32-8.7,51.5c-1.2,0.9-3.7,2.7-4.9,3.7c-2.2,4.4-4.1,9.1-5.9,13.8c-0.7,0.1-1.4,0.1-2.1-0.1l-1.2,3
		c-1.8,0-2.8-0.1-2.8-0.1l-9.9,12.5l-32.3,26c-4.3,2.4-8.4,5-11.8,8.6c-1.5,1.6-3,3.2-4.5,4.6l-2.8,2.3c-0.1-0.4-0.2-0.9-0.3-1.3
		h-0.4c-0.1,0.2-0.2,0.4-0.4,0.5c-1,0.5-2.1,0.9-3.2,1.2c-8.6,2.9-17.7,3.6-26.7,4.6c-3.8,0.4-7.7,0.8-11.5,1.6
		c-2,0.4-4,0.9-6.1,1.2c-1.6,0.2-3.2,0.3-4.7,0.7c-0.8,0.2-1.4,0.8-1.9,1.8c-1,1.8-2,4.2-2.3,6.3c-0.8,5.1,0,10.3,1.1,15.3
		c0.3,1.5,0.6,2.9,1,4.4c-3.6,1-7.2,2.2-10.7,3.4c-3-4.5-5.6-9.2-7.5-14.2c-1.5-4.2-2.5-8.5-2.7-13c-4.8,0.1-9.6,1-14.2,2.2
		c-0.7-2.5-3.3-4.1-6.2-3.6c-11.4,2.4-22.9,2.6-34.3,0.7l-1.1-4.7c-6.5,1.9-13.1,1.8-19.7-0.6c-7.7-2.7-14.8-7-22.7-9.2
		c-7.9-2.2-17.4-1.7-24.6-5.8c-2.2-1.3-4.2-2.9-6-4.7c0,0,0.2-2.7-4.2,0.1C1108.3,566.5,1106.7,567,1104.6,567.5z M1269.1,648.4
		c-2.2-8-7-15-11.7-21.7c-0.6-0.9-1.2-1.8-1.8-2.6c2.9-1.1,5.8-2.1,8.8-3c2.6,8.9,5.9,17.6,7.9,26.7
		C1272.6,649.8,1269.6,650.4,1269.1,648.4z M1105.7,794.4c-7.8-12.3-13.1-26-18.2-39.2c-0.1-0.2-0.1-0.3-0.1-0.5
		c16.7-16.2,37.7-27,59.2-35.7c5.7-2.3,11.4-4.5,17.2-6.7c4-1.5,8.7-3.8,13.3-4.9c8.6,3.1,17.5,7.7,24.1,15.2
		c-8.5,2.4-15.9,5.8-21.9,10.2c-7.4,4.8-15.7,10.3-17.6,19.5l-0.2,1.1l0.9-0.6c2.4-1.7,4.7-3.7,6.9-5.7c2.8-2.5,5.7-5.1,9-7.1
		l0.2-0.1c7.2-4.4,14.7-9,22.8-11.6c2.7-0.8,5.6-1.4,8.4-1.8c2,0.7,4.3,0.3,5.8-0.8c1.4-0.2,2.9-0.5,4.3-0.7l0.3-0.1l0.2-3h-0.4
		c-0.9-0.1-1.7-0.2-2.5-0.3v-0.1c-0.1-2,0.1-3.9,0.5-5.7c4.7-6.7,11.7-11.3,19.1-12.1c3.9-0.2,9.5,0.3,13.6,3.6
		c5.4,4.4,6.5,11.8,7,19.3c-1.2-0.1-2.4-0.3-3.6-0.5c-1.5-0.3-3.1-0.5-4.7-0.7l-0.7-0.1l1.3,3.2l0.1,0.1c2.1,1,4.3,1.8,6.5,2.6
		c2.9,1,5.9,2.1,8.5,3.7c13.9,8.3,22,22.6,26.3,33c2.5,7.3,4.5,14.9,2.2,22l-0.3-0.6c-0.9-1.8-1.7-3.7-3.8-4.5l-0.7-0.3l0.1,0.7
		c0.2,1.4,0.4,2.8,0.7,4.2c0.8,5.2,1.7,10.5,1.1,15.9c-1.4-1.2-2.6-2.6-3.8-4c-1.4-1.6-2.8-3.3-4.6-4.6
		c-13.7-10.6-29.4-16.2-44.1-15.8c-22.3-0.2-41.1,10.4-53,19.3c-12.2,9.2-21,19.6-26.2,30.9c-0.8,1.7-1.5,3.4-2.2,5.1
		c-1,2.5-2,5-3.4,7.4c-4.2-3.1-8.2-6.5-12.1-10c-0.2-2.9-2.5-4.4-5-4.4c-1.8-1.5-3.5-3.1-5.3-4.5
		C1121.2,815.4,1113.1,804.6,1105.7,794.4z M1280.7,942.7c0,12-0.4,25.9-6.3,38.1c-1.5,0.7-3.2,1-4.9,1.3c-1.3,0.2-2.6,0.5-3.9,0.9
		c-15.9,5.1-31.2,12.4-46.7,20.1c-6.4-1.9-13.7-4.3-19.6-8.9l-4.5-3.3c-8.4-6-17.1-12.3-23.7-20.5c-7-7-10.6-16.6-12.6-23.2
		c-0.7-2.4-1.3-5-1.9-7.4c-0.9-4.1-1.9-8.3-3.6-12.2l-0.1-0.1l-3.8-2.1l-0.1,0.6c-0.9,6.8,0.9,13.5,2.6,19.9
		c0.3,1.2,0.6,2.4,0.9,3.5c1.1,4.2,2.8,8.4,5.1,12.7c-5.9-3.1-11.2-7.2-16.4-11.1c-1.8-1.4-3.7-2.8-5.5-4.1
		c-1.3-1.1-2.6-2.2-3.8-3.4c-5.3-4.6-10.7-9.4-15.5-14.6c-1.6-2-3-3.8-4.4-5.6c0.8-0.4,1.4-1.1,2-2c14.5-25,23.6-52.5,27-81.2
		c3.4,2.8,7,5.6,10.7,8.2c0.2,2.5-0.3,4.9-0.8,7.3c-0.4,1.6-0.7,3.3-0.9,5c-2,10.6-0.2,21.3,1.9,30.3l0.1,0.2l0.2,0.1
		c0.5,0.2,1.5,0.5,2,0.6l0.6,0.2v-0.6c0-1.8-0.3-3.6-0.5-5.4c-0.3-2.5-0.7-5.2-0.4-7.8c0.4-2.7,0.6-5.4,0.9-8
		c0.7-7,1.5-14.2,3.9-20.9c0.8-1.9,1.5-3.9,2.2-5.8c2.5-6.8,5.1-13.8,9.8-19.5c7.1-10.2,16.7-19,27.7-25.3c1.6-0.8,3.2-1.7,4.8-2.5
		c5.7-3.1,11.7-6.2,18.1-7.7c16.4-4.4,33.6-2.4,47.1,5.5c7.5,3.8,13.4,9.1,17.3,15.3c0.6,0.9,1.2,1.8,1.8,2.8
		c6.7,10.3,13.7,20.9,15.2,33.3c0.8,3.6,0,7.4-0.9,10.5c-1,1.3-2.6,1-4.3,0.8c-0.8-0.1-1.6-0.2-2.3-0.2h-0.3l-0.1,0.2
		c-1.4,3-2,6.3-2.5,9.5c-0.5,2.8-1,5.7-2,8.3c-3.4,8.8-6.7,16.6-11.7,23.5c-1.5,2.1-3.3,3.9-5,5.7c-1.3,1.3-2.6,2.7-3.9,4.2
		l-0.4,0.5l0.7,0.1c1.5,0.3,2.9,0.6,4.4,1C1277.7,920.2,1281,931.3,1280.7,942.7z M1402.4,896.7l-3.2,0.5c-10.3,1-21.3,2.9-33.3,5.7
		c-28.8,4.2-54.3,10-78,17.7c-1.4,0.4-2.8,0.7-4.3,1c-0.6-2-1.2-4-1.7-5.9c-0.9-3.3-1.9-6.8-3.2-10.1c7.3-7,11.6-16.1,15.8-25.6
		c1.8-4.2,2.8-8.7,3.7-13.1c0.3-1.5,0.6-3.1,1-4.6c4.1-0.2,8.8-1.1,9.8-5.6c2.8-12.5-2.3-24.6-7-32.6c-0.9-1.7-1.9-3.5-2.8-5.1
		c-1.1-1.9-2.2-3.8-3.2-5.8c0-2.2,0.2-4.4,0.5-6.6c0.3-2.6,0.6-5.2,0.4-7.9c-0.2-1.8,0.7-3.3,1.7-4.9c0.8-1.4,1.7-2.8,1.8-4.4
		c2.3-16.2-5.7-31-12.9-40.6c-4.7-7-11.4-13.1-19.8-18.1c1-2.1,2.1-4.2,3.2-6.4c0.7-1,1.2-2.1,1.7-3.3c2.9-5.5,6-11.1,9.4-16.8
		c4.6-7.8,10.2-14.9,16.6-21c3-1.9,5.9-3.6,8.7-5.4c6.7-4.2,13.5-9,20.5-13.6c9.1-3.5,18.7-4.7,27.8-3.5l1.7,0.7
		c8,3.4,16.2,6.9,22.3,13.1c15.5,14.4,25.3,33.2,32.2,48c1.1,1.8,2,3.8,2.9,5.7c2,4.2,4.1,8.6,7.8,11.8l0.2,0.2l0.2-0.1
		c5.6-2,11.1-4.4,16.4-6.7c5.4-2.3,10.9-4.7,16.5-6.8c7.5-2.9,15.6-5.6,26.4-8.8c2.3-0.7,4.7-1,7-1.1c-6.8,9-13.8,18.4-19.1,28.6
		c-11,20.4-22.4,42.2-31.6,64.7l-0.2,0.5c-4.8,13-9.7,26.5-11.6,40.5c-0.1,3.1-0.3,6.3-0.6,9.3c-0.4,4.3-0.7,8.8-0.6,13.3
		c-0.2,4,0.5,7.9,1.2,11.7c0.5,2.9,1.1,5.8,1.2,8.7C1419.4,894.1,1410.8,895.4,1402.4,896.7z M1609.4,850.3
		c-6,5.2-13.3,8.9-20.3,12.4l-1.5,0.8c-1.2,0.6-2.5,1.2-3.7,1.7c-2.5,1.1-5.1,2.2-7.2,3.9l-0.7,0.6l1,0.1c2,0.3,4,0.4,6,0.5
		c-2,7.5-4.1,15.1-7.7,22.1c-8.4,16.1-17.4,29.2-27.4,40.1c-21.5,0.2-40.1,2.7-56.9,7.8c-1.1,0.3-2.1,0.7-3.1,1.2
		c-1.7,0.8-3.4,1.5-5.2,1.3c-3.6-2.6-7.1-5.8-10.2-9.6c-4.8-6.7-10.7-15.8-13.3-26c-2.5-10.3-2.4-21.1-2.3-31.5
		c0-2.6,0.1-5.2,0.1-7.8c0-0.8,0.1-1.6,0.1-2.4c0.2-1.9,0.3-3.9-0.4-5.9l-0.3-0.8l-0.5,0.7c-1.7,2.5-3.3,5.2-3.3,8.3
		c-0.8,5-0.9,10.1-0.9,15v2.6c-6.1-5-12.7-8.6-19.6-10.7c-0.4-6.2,0.3-12.6,0.9-18.7c0.3-2.4,0.5-4.9,0.7-7.3
		c4.2-20.4,12.1-41.7,24.9-67c2.7-5.9,5.8-11.7,8.7-17.4c3-5.8,6.1-11.9,8.9-18c0.9,0,1.9-0.1,2.9-0.1c3.4-0.1,7-0.3,10.4,0.4
		c6.4,1.9,11.2,5,14.3,9c-1.5,1.7-3.2,3.5-4.8,5.1c-3.7,3.9-7.6,8-10.5,12.7c-6.5,9.2-14.3,21.5-16.7,35.8c-0.2,1.5-0.5,3.1-0.8,4.5
		c-0.8,3.6-1.5,7.2-0.6,10.9l0.4,1.5l0.9-3.1c2.5-8.3,5-17,8.8-24.9c4.8-8.8,10.6-19,18.2-28.1l0.9-0.9c6.1-6.4,12.4-13.1,20.4-17.3
		c14-8.7,31.4-13.2,51.5-13.2c11.2-0.2,20.4,2.1,27.4,6.7c1.3,0.7,2.2,1.9,2.6,3.4h-0.4c-2.6-0.1-5.4-0.1-8.1,0.1l-0.6,0.1l0.3,0.6
		c1.4,2.8,4.2,3.8,7,4.6c1.1,0.3,2.2,0.7,3.1,1.2c7.4,3.3,13,7.2,17.1,11.8c4.5,6.1,6.7,13.5,8.8,20.7c0.2,0.8,0.5,1.6,0.7,2.5
		C1635.4,812.2,1627.2,836.8,1609.4,850.3z"/>
	<path class="st0" d="M1186.1,309.3c4.1-0.1,8.1-0.7,11.5-2.7C1193.7,307.3,1189.9,308.3,1186.1,309.3z"/>
	<path class="st0" d="M1104.9,388c4.2,0.4,8.4-1.6,12.6-0.7c21,3.7,42.9,0,63.7-3.4c4.1-16.7-11.6-10.2-18.4-10.6
		c-19.4,1.8-38.4-0.8-57.3-3.3c-3.3-0.8-5.5,2.3-7.9,4C1097.8,379.6,1100.6,384.5,1104.9,388z"/>
	<path class="st0" d="M1216.4,524.8c16.4-1.7,32.7-4.6,48.7-9.1c7.7-2.5,24.4-4.2,22.8-11.9c0.2-2.2-6.2-1.9-6.4,0.4
		c0.9,3.9-4.7,4.5-8.8,5.7c-6.1,1.9-12.3,3.6-18.5,5.1c-12.2,2.9-24.5,4.9-36.8,6.2C1213.3,521.6,1212.2,525.2,1216.4,524.8z"/>
	<path class="st0" d="M1264.7,538.3c-6.9-6.8-17.4-3.6-25.6-1.5C1246.8,541.8,1256.3,539.4,1264.7,538.3z"/>
	<path class="st0" d="M1253.4,569.4c13.4-1.9,24.4-8.5,32.5-17.7c-7.8,7.7-17.7,13-29.7,14.7c-18.4,1.9-34.2-8.1-45.6-22.1
		c-0.5,1.4-1.3,2.6-2.2,3.7C1219.7,561.6,1235.3,571.3,1253.4,569.4z"/>
</g>
<g>
	<path class="st0" d="M542.3,358.2c-0.7-0.7-1-1.9-0.9-3.4l2.3-29.1c0.2-1.5,0.7-2.6,1.5-3.5c0.8-0.8,2.1-1.2,3.5-1.2h10.9
		c3.8,0,7.2,0.7,10,2.2c2.8,1.5,5.1,3.6,6.5,6.3c1.6,2.7,2.3,5.9,2.3,9.5c0,4.3-0.8,8-2.5,10.9s-4.1,5.3-7.4,6.9
		c-3.2,1.6-7,2.4-11.5,2.4h-11.5C544.1,359.4,542.9,359,542.3,358.2z M556.1,351.3c4.2,0,7.4-1,9.4-3c2.1-2,3-5.1,3-9.4
		c0-3.2-0.8-5.7-2.6-7.4c-1.8-1.7-4.3-2.5-7.7-2.5h-4.9l-1.8,22.2L556.1,351.3L556.1,351.3z"/>
	<path class="st0" d="M583.7,358.5c-0.8-0.7-1.3-1.9-1.1-3.3l1.5-18.6c0.2-1.5,0.7-2.6,1.7-3.4c0.9-0.7,2.2-1.1,3.6-1.1
		c1.4,0,2.5,0.4,3.4,1.1c0.8,0.7,1.2,1.9,1.1,3.4l-1.5,18.6c-0.1,1.4-0.7,2.5-1.6,3.3c-0.9,0.7-2.2,1.1-3.5,1.1
		C585.7,359.7,584.6,359.3,583.7,358.5z M586.1,327.1c-0.9-0.8-1.4-2-1.4-3.4c0-1.4,0.5-2.5,1.4-3.4s2.2-1.2,3.8-1.2
		c1.6,0,2.9,0.4,3.8,1.2s1.5,2,1.5,3.4c0,1.4-0.5,2.5-1.4,3.4s-2.2,1.3-3.8,1.3C588.3,328.3,587,327.9,586.1,327.1z"/>
	<path class="st0" d="M598.9,358.2c-0.9-0.4-1.6-0.9-2.1-1.6s-0.7-1.4-0.7-2.2c0-0.9,0.3-1.8,0.9-2.4c0.6-0.7,1.3-1,2.2-1
		c0.6,0,1.1,0.2,1.8,0.5c1.1,0.6,2.4,0.9,3.8,1.3c1.4,0.3,2.8,0.5,4,0.5c1,0,1.9-0.1,2.4-0.4c0.6-0.3,0.8-0.7,0.8-1.1
		c0-0.6-0.4-1-1.1-1.4c-0.7-0.3-1.9-0.7-3.6-1.2c-1.9-0.5-3.6-1-4.9-1.6s-2.4-1.3-3.4-2.4c-0.9-1-1.4-2.4-1.4-4.2s0.6-3.3,1.6-4.6
		c1-1.3,2.5-2.3,4.5-3.1c2-0.7,4.2-1.1,6.8-1.1c1.1,0,2.5,0.2,4,0.5c1.5,0.3,2.8,0.7,3.8,1.1c0.7,0.4,1.3,0.9,1.7,1.6
		c0.4,0.7,0.6,1.3,0.6,2.1c0,0.9-0.3,1.7-0.8,2.3c-0.6,0.7-1.2,1-2.1,1c-0.6,0-1-0.1-1.6-0.4c-2.1-1-4.2-1.5-6.5-1.5
		c-1.1,0-2,0.1-2.6,0.4c-0.6,0.3-0.9,0.7-0.9,1.1c0,0.6,0.4,1,1.1,1.4c0.7,0.4,2,0.7,3.6,1.2c2,0.6,3.6,1.1,4.9,1.6
		c1.3,0.6,2.4,1.3,3.4,2.4c0.9,1,1.4,2.4,1.4,4.2c0,2.7-1.1,4.9-3.3,6.5c-2.2,1.5-5.3,2.3-9.4,2.3
		C604.8,359.8,601.7,359.3,598.9,358.2z"/>
	<path class="st0" d="M649.2,347.2c-0.5,0.5-1.1,0.7-1.9,0.7h-14.1c0.5,3.3,2.4,4.9,5.9,4.9c1,0,1.9-0.1,2.6-0.3
		c0.7-0.2,1.6-0.6,2.7-1c0.7-0.3,1.2-0.5,1.7-0.5c0.8,0,1.4,0.3,1.9,0.9s0.7,1.3,0.7,2.2c0,0.7-0.2,1.5-0.5,2.2
		c-0.3,0.7-0.8,1.2-1.5,1.6c-0.9,0.6-2.2,1-3.6,1.3c-1.5,0.3-3,0.6-4.7,0.6c-2.9,0-5.4-0.6-7.6-1.6c-2.2-1.1-3.9-2.6-5.1-4.6
		c-1.2-2-1.8-4.3-1.8-6.9c0-2.8,0.6-5.3,1.8-7.5c1.2-2.2,2.8-3.9,4.9-5.2c2.1-1.3,4.5-1.9,7-1.9c3.8,0,6.9,1.1,9.1,3.5
		c2.2,2.3,3.3,5.6,3.3,9.8C649.8,346.1,649.7,346.7,649.2,347.2z M634.8,339.7c-0.7,0.7-1.3,2-1.6,3.6h8.6c0-1.6-0.4-2.7-1-3.6
		c-0.7-0.8-1.7-1.2-2.9-1.2C636.7,338.5,635.6,338.9,634.8,339.7z"/>
	<path class="st0" d="M679.5,334.6c1.5,1.7,2.2,4.1,2.2,7.4c0,0.8,0,1.4-0.1,1.9l-0.9,11.4c-0.2,1.4-0.7,2.4-1.6,3.3
		c-0.9,0.8-2.1,1.2-3.6,1.2c-1.5,0-2.6-0.4-3.5-1.2s-1.2-1.9-1-3.3l0.9-11.1c0.1-1.5-0.1-2.7-0.7-3.5c-0.6-0.8-1.5-1.2-2.8-1.2
		c-1.4,0-2.5,0.5-3.3,1.4c-0.7,0.9-1.2,2.2-1.3,3.7l-0.9,10.8c-0.1,1.4-0.7,2.4-1.5,3.3c-0.9,0.8-2.1,1.2-3.6,1.2
		c-1.5,0-2.7-0.4-3.5-1.2c-0.8-0.7-1.1-1.9-1.1-3.3l1.5-18.7c0.1-1.3,0.6-2.3,1.6-3.2c0.9-0.8,2.2-1.2,3.6-1.2
		c1.2,0,2.2,0.3,2.9,0.9c0.7,0.7,1.1,1.4,1.2,2.5c0.9-1.1,2.2-2,3.6-2.6c1.5-0.7,3.1-0.9,4.9-0.9C675.8,332.1,678,332.9,679.5,334.6
		z M671.2,327.5c-0.7-0.3-1.5-0.7-2.3-1.1c-0.7-0.4-1.2-0.7-1.7-0.8c-0.4-0.2-0.8-0.3-1.3-0.3s-0.8,0.1-1.2,0.4
		c-0.3,0.3-0.7,0.6-1.1,1c-0.4,0.5-0.7,0.8-1,1s-0.7,0.3-1.1,0.3c-0.6,0-0.9-0.2-1.2-0.7s-0.4-1-0.4-1.8c0-0.9,0.3-2,0.8-2.9
		c0.6-0.9,1.3-1.8,2.2-2.4c0.9-0.7,1.9-0.9,2.9-0.9c0.8,0,1.6,0.1,2.2,0.4s1.4,0.7,2.4,1.2c0.7,0.4,1.3,0.7,1.8,0.8
		c0.4,0.2,0.8,0.3,1.2,0.3c0.5,0,0.8-0.1,1.2-0.4c0.3-0.3,0.7-0.6,1-1c0.4-0.5,0.7-0.8,1-1s0.7-0.3,1.1-0.3c1,0,1.6,0.8,1.6,2.4
		c0,0.9-0.3,2-0.8,2.9s-1.3,1.8-2.2,2.4c-0.9,0.7-1.9,0.9-2.9,0.9C672.7,327.9,671.9,327.8,671.2,327.5z"/>
	<path class="st0" d="M692.6,358.2c-2.2-1.1-3.9-2.6-5.1-4.7c-1.2-2-1.8-4.3-1.8-7c0-3,0.7-5.6,1.9-7.8c1.2-2.2,3-3.8,5.1-5.1
		c2.2-1.1,4.9-1.8,7.8-1.8c3,0,5.5,0.6,7.8,1.6c2.2,1.1,3.9,2.6,5.1,4.6c1.2,2,1.8,4.3,1.8,6.9c0,3-0.7,5.6-1.9,7.9
		c-1.2,2.2-3,3.8-5.1,5.1c-2.2,1.1-4.9,1.8-7.8,1.8C697.4,359.8,694.8,359.3,692.6,358.2z M704.4,350.5c0.8-1.4,1.3-3.3,1.3-5.5
		c0-2-0.4-3.5-1.2-4.4c-0.8-0.9-2.1-1.4-3.7-1.4c-1.9,0-3.3,0.7-4.1,2.2c-0.8,1.4-1.3,3.3-1.3,5.4c0,2.1,0.4,3.6,1.2,4.5
		c0.8,0.9,2.1,1.5,3.7,1.5C702.1,352.7,703.5,352,704.4,350.5z"/>
	<path class="st0" d="M726.7,350.7c0.8,1,1.3,2.5,1.3,4.6s-0.5,4.1-1.5,6.2c-0.9,2-2.3,3.7-3.9,5.3c-0.6,0.6-1.2,0.8-2,0.8
		c-0.7,0-1.2-0.2-1.7-0.7c-0.5-0.5-0.7-1-0.7-1.6s0.3-1.1,0.8-1.7c1.4-1.4,2.3-2.9,2.9-4.3c-1.3-0.2-2.3-0.7-3.1-1.6s-1.1-2-1.1-3.3
		c0-1.8,0.5-3.1,1.5-3.9c1-0.9,2.2-1.3,3.7-1.3C724.6,349.2,725.9,349.6,726.7,350.7z"/>
	<path class="st0" d="M767.9,353.5c0.4,0.6,0.6,1.2,0.6,2.2c0,1.6-0.5,2.6-1.5,3.3s-2.7,0.9-5.1,0.9c-3.4,0-5.9-0.8-7.7-2.4
		c-1.8-1.7-2.6-4-2.6-7.2c0-0.7,0-1.3,0.1-1.6l0.7-8.7h-1.6c-1.3,0-2.3-0.3-3-0.8c-0.7-0.6-1.1-1.4-1.1-2.5c0-2.5,1.6-3.7,4.7-3.7
		h1.6l0.3-3.6c0.1-1.4,0.7-2.5,1.6-3.3c0.9-0.7,2.2-1.2,3.6-1.2s2.6,0.4,3.5,1.2c0.7,0.8,1.1,1.9,1,3.3l-0.3,3.6h2.9
		c1.3,0,2.2,0.3,3,0.8c0.7,0.6,1,1.4,1,2.4c0,1.3-0.4,2.2-1.1,2.9c-0.7,0.7-1.9,0.9-3.5,0.9h-2.9l-0.7,8.8c0,0.2-0.1,0.5-0.1,0.8
		c0,2.2,1,3.5,3,3.5l1.1-0.1c0.6-0.1,0.9-0.1,1.2-0.1C767,352.7,767.5,353,767.9,353.5z"/>
	<path class="st0" d="M795.4,347.2c-0.5,0.5-1.1,0.7-1.9,0.7h-14.1c0.5,3.3,2.4,4.9,5.9,4.9c1,0,1.9-0.1,2.6-0.3
		c0.7-0.2,1.6-0.6,2.7-1c0.7-0.3,1.2-0.5,1.7-0.5c0.8,0,1.4,0.3,1.9,0.9s0.7,1.3,0.7,2.2c0,0.7-0.2,1.5-0.5,2.2
		c-0.3,0.7-0.8,1.2-1.5,1.6c-0.9,0.6-2.2,1-3.6,1.3s-3,0.6-4.7,0.6c-2.9,0-5.4-0.6-7.6-1.6c-2.2-1.1-3.9-2.6-5.1-4.6
		s-1.8-4.3-1.8-6.9c0-2.8,0.6-5.3,1.8-7.5c1.2-2.2,2.8-3.9,4.9-5.2c2.1-1.3,4.5-1.9,7-1.9c3.8,0,6.9,1.1,9.1,3.5
		c2.2,2.3,3.3,5.6,3.3,9.8C796,346.1,795.8,346.7,795.4,347.2z M781,339.7c-0.7,0.7-1.3,2-1.6,3.6h8.6c0-1.6-0.4-2.7-1-3.6
		c-0.7-0.8-1.7-1.2-2.9-1.2C782.8,338.5,781.8,338.9,781,339.7z"/>
	<path class="st0" d="M806,358.2c-2.2-1-3.9-2.6-5.1-4.6c-1.2-2-1.8-4.3-1.8-6.9c0-3,0.7-5.6,1.9-7.9c1.2-2.2,3-3.9,5.3-5.1
		c2.3-1.2,5.1-1.8,8.2-1.8c1.8,0,3.4,0.2,4.9,0.5c1.5,0.3,2.7,0.7,3.7,1.3c0.6,0.3,1,0.7,1.3,1.3c0.3,0.6,0.5,1.2,0.5,1.9
		c0,1-0.3,1.9-0.8,2.7c-0.6,0.7-1.3,1.1-2.2,1.1c-0.5,0-1-0.1-1.5-0.4c-1.8-0.8-3.6-1.2-5.2-1.2c-2,0-3.5,0.7-4.5,1.9
		c-1,1.2-1.6,3-1.6,5.3c0,1.9,0.5,3.4,1.4,4.4c0.9,1,2.2,1.6,3.9,1.6c0.9,0,1.8-0.1,2.5-0.3c0.7-0.2,1.6-0.5,2.5-0.7
		c0.6-0.3,1.1-0.5,1.7-0.5c0.8,0,1.4,0.3,1.9,0.9c0.5,0.6,0.7,1.3,0.7,2.2c0,0.7-0.2,1.5-0.6,2.2c-0.4,0.7-0.8,1.2-1.6,1.7
		c-0.9,0.5-2.2,0.9-3.6,1.3s-2.9,0.6-4.3,0.6C810.8,359.8,808.3,359.3,806,358.2z"/>
	<path class="st0" d="M852.9,334.6c1.5,1.7,2.2,4.1,2.2,7.4c0,0.8,0,1.4-0.1,1.9l-0.9,11.4c-0.2,1.4-0.7,2.4-1.6,3.3
		s-2.1,1.2-3.6,1.2s-2.6-0.4-3.5-1.2s-1.2-1.9-1-3.3l0.9-11.1c0.1-1.5-0.1-2.7-0.7-3.5c-0.6-0.8-1.5-1.2-2.8-1.2
		c-1.4,0-2.5,0.5-3.3,1.4c-0.7,0.9-1.2,2.2-1.3,3.7l-0.9,10.8c-0.1,1.4-0.7,2.4-1.5,3.3c-0.9,0.8-2.1,1.2-3.6,1.2s-2.7-0.4-3.5-1.2
		c-0.8-0.7-1.1-1.9-1.1-3.3l1.5-18.7c0.1-1.3,0.6-2.3,1.6-3.2c0.9-0.8,2.2-1.2,3.6-1.2c1.2,0,2.2,0.3,2.9,0.9
		c0.7,0.7,1.1,1.4,1.2,2.5c0.9-1.1,2.2-2,3.6-2.6c1.5-0.7,3.1-0.9,4.9-0.9C849.1,332.1,851.3,332.9,852.9,334.6z"/>
	<path class="st0" d="M865.9,358.2c-2.2-1.1-3.9-2.6-5.1-4.7c-1.2-2-1.8-4.3-1.8-7c0-3,0.7-5.6,1.9-7.8c1.2-2.2,3-3.8,5.1-5.1
		c2.2-1.1,4.9-1.8,7.8-1.8c3,0,5.5,0.6,7.8,1.6c2.2,1.1,3.9,2.6,5.1,4.6c1.2,2,1.8,4.3,1.8,6.9c0,3-0.7,5.6-1.9,7.9
		c-1.2,2.2-3,3.8-5.1,5.1c-2.2,1.1-4.9,1.8-7.8,1.8C870.8,359.8,868.1,359.3,865.9,358.2z M877.7,350.5c0.8-1.4,1.3-3.3,1.3-5.5
		c0-2-0.4-3.5-1.2-4.4s-2.1-1.4-3.7-1.4c-1.9,0-3.3,0.7-4.1,2.2c-0.8,1.4-1.3,3.3-1.3,5.4c0,2.1,0.4,3.6,1.2,4.5
		c0.8,0.9,2.1,1.5,3.7,1.5C875.4,352.7,876.8,352,877.7,350.5z"/>
	<path class="st0" d="M893.2,358.5c-0.8-0.7-1.3-1.9-1.1-3.3l2.4-29.8c0.1-1.5,0.7-2.6,1.6-3.5c0.9-0.7,2.2-1.1,3.5-1.1
		c1.4,0,2.5,0.4,3.4,1.1c0.8,0.7,1.3,1.9,1.1,3.5l-2.4,29.8c-0.1,1.4-0.7,2.5-1.6,3.3c-0.9,0.7-2.2,1.1-3.5,1.1
		S894.2,359.3,893.2,358.5z"/>
	<path class="st0" d="M913.7,358.2c-2.2-1.1-3.9-2.6-5.1-4.7c-1.2-2-1.8-4.3-1.8-7c0-3,0.7-5.6,1.9-7.8c1.2-2.2,3-3.8,5.1-5.1
		c2.2-1.1,4.9-1.8,7.8-1.8c3,0,5.5,0.6,7.8,1.6c2.2,1.1,3.9,2.6,5.1,4.6s1.8,4.3,1.8,6.9c0,3-0.7,5.6-1.9,7.9
		c-1.2,2.2-3,3.8-5.1,5.1c-2.2,1.1-4.9,1.8-7.8,1.8C918.6,359.8,915.9,359.3,913.7,358.2z M925.5,350.5c0.8-1.4,1.3-3.3,1.3-5.5
		c0-2-0.4-3.5-1.2-4.4c-0.8-0.9-2.1-1.4-3.7-1.4c-1.9,0-3.3,0.7-4.1,2.2c-0.8,1.4-1.3,3.3-1.3,5.4c0,2.1,0.4,3.6,1.2,4.5
		c0.8,0.9,2.1,1.5,3.7,1.5C923.2,352.7,924.6,352,925.5,350.5z"/>
	<path class="st0" d="M968.9,333.4c0.7,0.8,1.1,1.9,1,3.3l-1.5,19.5c-0.4,4.4-2,7.8-4.8,10c-2.8,2.2-6.8,3.5-12,3.5
		c-1.8,0-3.5-0.2-5.2-0.6c-1.8-0.4-3.3-0.8-4.6-1.4c-1.4-0.7-2.2-1.9-2.2-3.3c0-0.9,0.3-1.9,0.9-2.6c0.7-0.7,1.4-1.1,2.4-1.1
		c0.4,0,0.7,0.1,1.2,0.3c3.3,1.1,5.8,1.6,7.6,1.6c2.2,0,3.8-0.5,5-1.4c1.1-0.9,1.8-2.3,2-4.3l0.1-1.3c-1.8,2.1-4.5,3.2-8,3.2
		c-2.2,0-4.2-0.5-6-1.5c-1.8-1-3.1-2.4-4-4.3c-0.9-1.9-1.4-4-1.4-6.5c0-2.7,0.6-5.1,1.6-7.3c1.1-2.2,2.6-3.9,4.6-5.1
		c2-1.2,4.2-1.9,6.7-1.9c3.5,0,6.2,1.2,8,3.6c0.3-1.1,0.8-2,1.8-2.6c0.8-0.7,2-0.9,3.3-0.9C967,332.2,968.1,332.5,968.9,333.4z
		 M958.2,349.6c1-1.1,1.5-2.7,1.5-4.6c0-2-0.5-3.5-1.4-4.5c-0.9-0.9-2.2-1.5-3.9-1.5c-1.7,0-3,0.6-4,1.8c-0.9,1.2-1.5,2.8-1.5,5
		c0,1.8,0.5,3.1,1.4,4.1c0.9,0.9,2.2,1.5,3.8,1.5C955.9,351.4,957.3,350.9,958.2,349.6z"/>
	<path class="st0" d="M975.1,358.5c-0.8-0.7-1.3-1.9-1.1-3.3l1.5-18.6c0.2-1.5,0.7-2.6,1.7-3.4c0.9-0.7,2.2-1.1,3.6-1.1
		c1.4,0,2.5,0.4,3.4,1.1c0.8,0.7,1.2,1.9,1.1,3.4l-1.5,18.6c-0.1,1.4-0.7,2.5-1.6,3.3c-0.9,0.7-2.2,1.1-3.5,1.1
		C977.2,359.7,976.1,359.3,975.1,358.5z M977.5,327.1c-0.9-0.8-1.4-2-1.4-3.4c0-1.4,0.5-2.5,1.4-3.4c0.9-0.8,2.2-1.2,3.8-1.2
		c1.6,0,2.9,0.4,3.8,1.2s1.5,2,1.5,3.4c0,1.4-0.5,2.5-1.4,3.4s-2.2,1.3-3.8,1.3C979.7,328.3,978.4,327.9,977.5,327.1z"/>
	<path class="st0" d="M1011.6,334.7c2,1.8,3,4.5,3,8c0,0.7,0,1.4-0.1,1.8l-0.8,10.8c-0.1,1.4-0.6,2.5-1.5,3.3
		c-0.8,0.7-2,1.1-3.5,1.1c-1.2,0-2.2-0.4-2.9-1c-0.7-0.7-1.2-1.6-1.2-2.6c-0.7,1.2-1.6,2.2-2.8,2.8c-1.2,0.7-2.5,0.9-4.1,0.9
		c-1.8,0-3.3-0.4-4.8-1c-1.4-0.7-2.5-1.6-3.4-2.8c-0.8-1.2-1.2-2.5-1.2-4c0-2.1,0.5-3.7,1.5-5c1-1.2,2.6-2.2,4.9-2.7
		c2.2-0.6,5.1-0.8,8.8-0.8h2l0.1-0.4c0.2-2.5-1.3-3.8-4.3-3.8c-1.4,0-3.5,0.5-6.1,1.4c-0.7,0.3-1.2,0.4-1.9,0.4
		c-0.9,0-1.7-0.3-2.2-0.9c-0.6-0.7-0.8-1.3-0.8-2.2c0-0.7,0.2-1.3,0.6-2c0.4-0.7,0.9-1.1,1.8-1.6c2.7-1.5,6-2.2,9.9-2.2
		C1006.7,332.1,1009.7,332.9,1011.6,334.7z M1003.8,352c0.8-0.9,1.3-2.2,1.4-3.6l0.1-0.6h-1.5c-2.2,0-3.7,0.2-4.7,0.7
		c-0.9,0.5-1.4,1.2-1.4,2.3c0,0.7,0.3,1.4,0.7,1.9c0.6,0.5,1.2,0.7,2.1,0.7C1001.9,353.4,1002.9,352.9,1003.8,352z"/>
	<path class="st0" d="M561.1,397.8c0.7-0.5,1.5-0.7,2.3-0.7c1.1,0,2.2,0.4,3.1,1.1c0.9,0.7,1.3,1.7,1.3,2.7c0,0.6-0.2,1.2-0.5,1.9
		l-15.2,29c-0.5,0.9-1.1,1.6-1.8,2.1s-1.4,0.7-2.2,0.7c-1,0-2-0.4-2.7-1.1c-0.7-0.7-1.1-1.7-1.1-2.7c0-0.7,0.2-1.5,0.6-2.2l2.8-5.6
		l-7.2-20.2c-0.2-0.3-0.2-0.7-0.2-1.1c0-1.2,0.6-2.2,1.6-3.1c1.1-0.8,2.2-1.3,3.6-1.3c0.8,0,1.6,0.2,2.2,0.7s1.1,1.1,1.5,2.1
		l4.2,12.9l6.2-12.8C559.8,399,560.4,398.3,561.1,397.8z"/>
	<path class="st0" d="M610.3,398.7c1.7,1,3.1,2.5,4,4.4c0.9,1.9,1.4,4.2,1.4,6.8c0,2.9-0.6,5.5-1.6,7.8c-1,2.2-2.6,4-4.5,5.3
		c-2,1.3-4.2,1.9-6.7,1.9c-3.2,0-5.8-1.1-7.8-3.5l-0.7,9c-0.1,1.3-0.6,2.2-1.5,3.1c-0.9,0.7-2.1,1.1-3.5,1.1c-1.5,0-2.6-0.4-3.5-1.2
		s-1.2-1.9-1.1-3.2l2.2-28.6c0.1-1.3,0.6-2.4,1.5-3.3c0.9-0.8,2.1-1.2,3.6-1.2c1.3,0,2.2,0.3,3.1,0.9c0.7,0.7,1.2,1.5,1.3,2.5
		c0.8-1.1,2-2.1,3.4-2.6c1.3-0.7,2.9-0.9,4.7-0.9C606.5,397.2,608.5,397.6,610.3,398.7z M604.7,415.9c0.9-1.3,1.4-3.1,1.4-5.2
		c0-2.1-0.5-3.6-1.4-4.7c-0.9-1.1-2.2-1.7-3.8-1.7c-1.6,0-2.9,0.7-3.8,2s-1.4,3-1.4,5.1s0.5,3.7,1.3,4.9c0.8,1.1,2.2,1.7,3.7,1.7
		C602.3,417.8,603.7,417.2,604.7,415.9z"/>
	<path class="st0" d="M641.8,399.8c2,1.8,3,4.5,3,8c0,0.7,0,1.4-0.1,1.8l-0.8,10.8c-0.1,1.4-0.6,2.5-1.5,3.3c-0.8,0.7-2,1.1-3.5,1.1
		c-1.2,0-2.2-0.4-2.9-1c-0.7-0.7-1.2-1.6-1.2-2.6c-0.7,1.2-1.6,2.2-2.8,2.8s-2.5,0.9-4.1,0.9c-1.8,0-3.3-0.4-4.8-1
		c-1.4-0.7-2.5-1.6-3.4-2.8c-0.8-1.2-1.2-2.5-1.2-4c0-2.1,0.5-3.7,1.5-5c1-1.2,2.6-2.2,4.9-2.7c2.2-0.6,5.1-0.8,8.8-0.8h2l0.1-0.4
		c0.2-2.5-1.3-3.8-4.3-3.8c-1.4,0-3.5,0.5-6.1,1.4c-0.7,0.3-1.2,0.4-1.9,0.4c-0.9,0-1.7-0.3-2.2-0.9c-0.6-0.7-0.8-1.3-0.8-2.2
		c0-0.7,0.2-1.3,0.6-2c0.4-0.7,0.9-1.1,1.8-1.6c2.7-1.5,6-2.2,9.9-2.2C636.8,397.2,639.8,398,641.8,399.8z M633.9,417.1
		c0.8-0.9,1.3-2.2,1.4-3.6l0.1-0.6h-1.5c-2.2,0-3.7,0.2-4.7,0.7c-0.9,0.5-1.4,1.2-1.4,2.3c0,0.7,0.3,1.4,0.7,1.9
		c0.6,0.5,1.2,0.7,2.1,0.7C632,418.5,633,418,633.9,417.1z"/>
	<path class="st0" d="M650.4,423.3c-0.9-0.4-1.6-0.9-2.1-1.6s-0.7-1.4-0.7-2.2c0-0.9,0.3-1.8,0.9-2.4c0.6-0.7,1.3-1,2.2-1
		c0.6,0,1.1,0.2,1.8,0.5c1.1,0.6,2.4,0.9,3.8,1.3c1.4,0.3,2.8,0.5,4,0.5c1,0,1.9-0.1,2.4-0.4s0.8-0.7,0.8-1.1c0-0.6-0.4-1-1.1-1.4
		c-0.7-0.3-1.9-0.7-3.6-1.2c-1.9-0.5-3.6-1-4.9-1.6s-2.4-1.3-3.4-2.4c-0.9-1-1.4-2.4-1.4-4.2s0.6-3.3,1.6-4.6s2.5-2.3,4.5-3.1
		c2-0.7,4.2-1.1,6.8-1.1c1.1,0,2.5,0.2,4,0.5c1.5,0.3,2.8,0.7,3.8,1.1c0.7,0.4,1.3,0.9,1.7,1.6c0.4,0.7,0.6,1.3,0.6,2.1
		c0,0.9-0.3,1.7-0.8,2.3c-0.6,0.7-1.2,1-2.1,1c-0.6,0-1-0.1-1.6-0.4c-2.1-1-4.2-1.5-6.5-1.5c-1.1,0-2,0.1-2.6,0.4
		c-0.6,0.3-0.9,0.7-0.9,1.1c0,0.6,0.4,1,1.1,1.4s2,0.7,3.6,1.2c2,0.6,3.6,1.1,4.9,1.6c1.3,0.6,2.4,1.3,3.4,2.4
		c0.9,1,1.4,2.4,1.4,4.2c0,2.7-1.1,4.9-3.3,6.5c-2.2,1.5-5.3,2.3-9.4,2.3C656.3,424.9,653.2,424.4,650.4,423.3z"/>
	<path class="st0" d="M677.1,423.6c-0.8-0.7-1.3-1.9-1.1-3.3l1.5-18.6c0.2-1.5,0.7-2.6,1.7-3.4c0.9-0.7,2.2-1.1,3.6-1.1
		c1.4,0,2.5,0.4,3.4,1.1c0.8,0.7,1.2,1.9,1.1,3.4l-1.5,18.6c-0.1,1.4-0.7,2.5-1.6,3.3c-0.9,0.7-2.2,1.1-3.5,1.1
		C679.1,424.8,678,424.4,677.1,423.6z M679.4,392.2c-0.9-0.8-1.4-2-1.4-3.4c0-1.4,0.5-2.5,1.4-3.4c0.9-0.8,2.2-1.2,3.8-1.2
		s2.9,0.4,3.8,1.2c0.9,0.8,1.5,2,1.5,3.4c0,1.4-0.5,2.5-1.4,3.4c-0.9,0.8-2.2,1.3-3.8,1.3C681.6,393.4,680.3,393,679.4,392.2z"/>
	<path class="st0" d="M697.5,423.3c-2.2-1.1-3.9-2.6-5.1-4.7c-1.2-2-1.8-4.3-1.8-7c0-3,0.7-5.6,1.9-7.8c1.2-2.2,3-3.8,5.1-5.1
		c2.2-1.1,4.9-1.8,7.8-1.8c3,0,5.5,0.6,7.8,1.6c2.2,1.1,3.9,2.6,5.1,4.6c1.2,2,1.8,4.3,1.8,6.9c0,3-0.7,5.6-1.9,7.9
		c-1.2,2.2-3,3.8-5.1,5.1c-2.2,1.1-4.9,1.8-7.8,1.8C702.3,424.9,699.8,424.4,697.5,423.3z M709.3,415.6c0.8-1.4,1.3-3.3,1.3-5.5
		c0-2-0.4-3.5-1.2-4.4c-0.8-0.9-2.1-1.4-3.7-1.4c-1.9,0-3.3,0.7-4.1,2.2c-0.8,1.4-1.3,3.3-1.3,5.4c0,2.1,0.4,3.6,1.2,4.5
		c0.8,0.9,2.1,1.5,3.7,1.5C707.1,417.8,708.5,417.1,709.3,415.6z M707.6,394.5c-0.7,0-1.2-0.2-1.6-0.6c-0.4-0.4-0.7-0.9-0.7-1.6
		c0-0.5,0.1-1,0.4-1.5l2.2-5.7c0.4-0.7,0.9-1.3,1.5-1.7s1.2-0.6,1.9-0.6c0.9,0,1.8,0.3,2.5,0.9s1.1,1.4,1.1,2.4
		c0,0.8-0.4,1.8-1.1,2.6l-3.6,4.3C709.6,394.1,708.7,394.5,707.6,394.5z"/>
	<path class="st0" d="M749.8,399.7c1.5,1.7,2.2,4.1,2.2,7.4c0,0.8,0,1.4-0.1,1.9l-0.9,11.4c-0.2,1.4-0.7,2.4-1.6,3.3
		c-0.9,0.8-2.1,1.2-3.6,1.2c-1.5,0-2.6-0.4-3.5-1.2c-0.8-0.8-1.2-1.9-1-3.3l0.9-11.1c0.1-1.5-0.1-2.7-0.7-3.5
		c-0.6-0.8-1.5-1.2-2.8-1.2c-1.4,0-2.5,0.5-3.3,1.4c-0.7,0.9-1.2,2.2-1.3,3.7l-0.9,10.8c-0.1,1.4-0.7,2.4-1.5,3.3
		c-0.9,0.8-2.1,1.2-3.6,1.2c-1.5,0-2.7-0.4-3.5-1.2c-0.8-0.7-1.1-1.9-1.1-3.3l1.5-18.7c0.1-1.3,0.6-2.3,1.6-3.2
		c0.9-0.8,2.2-1.2,3.6-1.2c1.2,0,2.2,0.3,2.9,0.9c0.7,0.7,1.1,1.4,1.2,2.5c0.9-1.1,2.2-2,3.6-2.6c1.5-0.7,3.1-0.9,4.9-0.9
		C746.1,397.2,748.3,398,749.8,399.7z"/>
	<path class="st0" d="M794.4,399.8c2,1.8,3,4.5,3,8c0,0.7,0,1.4-0.1,1.8l-0.8,10.8c-0.1,1.4-0.6,2.5-1.5,3.3c-0.8,0.7-2,1.1-3.5,1.1
		c-1.2,0-2.2-0.4-2.9-1c-0.7-0.7-1.2-1.6-1.2-2.6c-0.7,1.2-1.6,2.2-2.8,2.8s-2.5,0.9-4.1,0.9c-1.8,0-3.3-0.4-4.8-1
		c-1.4-0.7-2.5-1.6-3.4-2.8c-0.8-1.2-1.2-2.5-1.2-4c0-2.1,0.5-3.7,1.5-5c1-1.2,2.6-2.2,4.9-2.7c2.2-0.6,5.1-0.8,8.8-0.8h2l0.1-0.4
		c0.2-2.5-1.3-3.8-4.3-3.8c-1.4,0-3.5,0.5-6.1,1.4c-0.7,0.3-1.2,0.4-1.9,0.4c-0.9,0-1.7-0.3-2.2-0.9c-0.6-0.7-0.8-1.3-0.8-2.2
		c0-0.7,0.2-1.3,0.6-2c0.4-0.7,0.9-1.1,1.8-1.6c2.7-1.5,6-2.2,9.9-2.2C789.4,397.2,792.5,398,794.4,399.8z M786.6,417.1
		c0.8-0.9,1.3-2.2,1.4-3.6l0.1-0.6h-1.5c-2.2,0-3.7,0.2-4.7,0.7c-0.9,0.5-1.4,1.2-1.4,2.3c0,0.7,0.3,1.4,0.7,1.9
		c0.6,0.5,1.2,0.7,2.1,0.7C784.6,418.5,785.7,418,786.6,417.1z"/>
	<path class="st0" d="M803.1,423.6c-0.8-0.7-1.3-1.9-1.1-3.3l2.4-29.8c0.1-1.5,0.7-2.6,1.6-3.5c0.9-0.7,2.2-1.1,3.5-1.1
		c1.4,0,2.5,0.4,3.4,1.1c0.8,0.7,1.3,1.9,1.1,3.5l-2.4,29.8c-0.1,1.4-0.7,2.5-1.6,3.3c-0.9,0.7-2.2,1.1-3.5,1.1
		S804,424.4,803.1,423.6z"/>
	<path class="st0" d="M833.8,423.3c-0.9-0.4-1.6-0.9-2.1-1.6s-0.7-1.4-0.7-2.2c0-0.9,0.3-1.8,0.9-2.4c0.6-0.7,1.3-1,2.2-1
		c0.6,0,1.1,0.2,1.8,0.5c1.1,0.6,2.4,0.9,3.8,1.3c1.4,0.3,2.8,0.5,4,0.5c1,0,1.9-0.1,2.4-0.4c0.6-0.3,0.8-0.7,0.8-1.1
		c0-0.6-0.4-1-1.1-1.4c-0.7-0.3-1.9-0.7-3.6-1.2c-1.9-0.5-3.6-1-4.9-1.6c-1.3-0.6-2.4-1.3-3.4-2.4c-0.9-1-1.4-2.4-1.4-4.2
		s0.6-3.3,1.6-4.6c1-1.3,2.5-2.3,4.5-3.1c2-0.7,4.2-1.1,6.8-1.1c1.1,0,2.5,0.2,4,0.5c1.5,0.3,2.8,0.7,3.8,1.1
		c0.7,0.4,1.3,0.9,1.7,1.6c0.4,0.7,0.6,1.3,0.6,2.1c0,0.9-0.3,1.7-0.8,2.3c-0.6,0.7-1.2,1-2.1,1c-0.6,0-1-0.1-1.6-0.4
		c-2.1-1-4.2-1.5-6.5-1.5c-1.1,0-2,0.1-2.6,0.4c-0.6,0.3-0.9,0.7-0.9,1.1c0,0.6,0.4,1,1.1,1.4s2,0.7,3.6,1.2c2,0.6,3.6,1.1,4.9,1.6
		c1.3,0.6,2.4,1.3,3.4,2.4c0.9,1,1.4,2.4,1.4,4.2c0,2.7-1.1,4.9-3.3,6.5c-2.2,1.5-5.3,2.3-9.4,2.3
		C839.7,424.9,836.6,424.4,833.8,423.3z"/>
	<path class="st0" d="M884.1,412.3c-0.5,0.5-1.1,0.7-1.9,0.7h-14.1c0.5,3.3,2.4,4.9,5.9,4.9c1,0,1.9-0.1,2.6-0.3
		c0.7-0.2,1.6-0.6,2.7-1c0.7-0.3,1.2-0.5,1.7-0.5c0.8,0,1.4,0.3,1.9,0.9c0.5,0.7,0.7,1.3,0.7,2.2c0,0.7-0.2,1.5-0.5,2.2
		s-0.8,1.2-1.5,1.6c-0.9,0.6-2.2,1-3.6,1.3c-1.5,0.3-3,0.6-4.7,0.6c-2.9,0-5.4-0.6-7.6-1.6c-2.2-1.1-3.9-2.6-5.1-4.6
		c-1.2-2-1.8-4.3-1.8-6.9c0-2.8,0.6-5.3,1.8-7.5c1.2-2.2,2.8-3.9,4.9-5.2c2.1-1.3,4.5-1.9,7-1.9c3.8,0,6.9,1.1,9.1,3.5
		c2.2,2.3,3.3,5.6,3.3,9.8C884.8,411.2,884.6,411.8,884.1,412.3z M869.7,404.8c-0.7,0.7-1.3,2-1.6,3.6h8.6c0-1.6-0.4-2.7-1-3.6
		c-0.7-0.8-1.7-1.2-2.9-1.2C871.6,403.6,870.6,404,869.7,404.8z"/>
	<path class="st0" d="M910.1,398.1c0.7,0.7,0.9,1.6,0.7,2.9c-0.2,1.4-0.6,2.5-1.3,3.2c-0.7,0.7-2,1-3.8,1.2l-1.5,0.2
		c-2.1,0.3-3.5,0.7-4.2,1.6c-0.7,0.7-1.2,2.1-1.4,3.9l-0.7,9.3c-0.1,1.4-0.7,2.5-1.6,3.3c-0.9,0.7-2.2,1.1-3.5,1.1
		c-1.4,0-2.5-0.4-3.4-1.1c-0.8-0.7-1.3-1.9-1.1-3.3l1.5-18.7c0.2-1.4,0.7-2.5,1.7-3.3c1-0.7,2.2-1.1,3.5-1.1c1.3,0,2.2,0.4,3,1
		c0.7,0.7,1.1,1.7,1,3c1-1.2,2.2-2.2,3.6-2.8c1.4-0.7,2.7-1.1,4-1.1l0.7-0.1C908.6,397.2,909.5,397.4,910.1,398.1z"/>
	<path class="st0" d="M933.2,397.8c0.7-0.5,1.5-0.7,2.3-0.7c1.1,0,2.2,0.4,3.1,1.1c0.9,0.7,1.3,1.7,1.3,2.7c0,0.6-0.2,1.2-0.5,1.9
		l-9.7,18.6c-0.6,1.1-1.4,2-2.4,2.6c-1,0.7-2.1,0.9-3.2,0.9c-1.1,0-2.1-0.3-3-0.9s-1.6-1.5-2-2.5l-6.7-18.8
		c-0.2-0.3-0.2-0.7-0.2-1.1c0-1.2,0.6-2.2,1.6-3.1c1.1-0.8,2.2-1.3,3.6-1.3c0.8,0,1.6,0.2,2.2,0.7c0.7,0.5,1.1,1.1,1.5,2.1l4.2,12.9
		l6.2-12.8C931.9,399,932.5,398.3,933.2,397.8z"/>
	<path class="st0" d="M943.3,423.6c-0.8-0.7-1.3-1.9-1.1-3.3l1.5-18.6c0.2-1.5,0.7-2.6,1.7-3.4c0.9-0.7,2.2-1.1,3.6-1.1
		c1.4,0,2.5,0.4,3.4,1.1c0.8,0.7,1.2,1.9,1.1,3.4l-1.5,18.6c-0.1,1.4-0.7,2.5-1.6,3.3c-0.9,0.7-2.2,1.1-3.5,1.1
		C945.2,424.8,944.1,424.4,943.3,423.6z M945.5,392.2c-0.9-0.8-1.4-2-1.4-3.4c0-1.4,0.5-2.5,1.4-3.4c0.9-0.8,2.2-1.2,3.8-1.2
		c1.6,0,2.9,0.4,3.8,1.2s1.5,2,1.5,3.4c0,1.4-0.5,2.5-1.4,3.4c-0.9,0.8-2.2,1.3-3.8,1.3C947.8,393.4,946.5,393,945.5,392.2z"/>
	<path class="st0" d="M963.7,423.3c-2.2-1-3.9-2.6-5.1-4.6c-1.2-2-1.8-4.3-1.8-6.9c0-3,0.7-5.6,1.9-7.9c1.2-2.2,3-3.9,5.3-5.1
		c2.3-1.2,5.1-1.8,8.2-1.8c1.8,0,3.4,0.2,4.9,0.5s2.7,0.7,3.7,1.3c0.6,0.3,1,0.7,1.3,1.3c0.3,0.6,0.5,1.2,0.5,1.9
		c0,1-0.3,1.9-0.8,2.7c-0.6,0.7-1.3,1.1-2.2,1.1c-0.5,0-1-0.1-1.5-0.4c-1.8-0.8-3.6-1.2-5.2-1.2c-2,0-3.5,0.7-4.5,1.9
		c-1,1.2-1.6,3-1.6,5.3c0,1.9,0.5,3.4,1.4,4.4c0.9,1,2.2,1.6,3.9,1.6c0.9,0,1.8-0.1,2.5-0.3c0.7-0.2,1.6-0.5,2.5-0.7
		c0.6-0.3,1.1-0.5,1.7-0.5c0.8,0,1.4,0.3,1.9,0.9c0.5,0.6,0.7,1.3,0.7,2.2c0,0.7-0.2,1.5-0.6,2.2c-0.4,0.7-0.8,1.2-1.6,1.7
		c-0.9,0.5-2.2,0.9-3.6,1.3s-2.9,0.6-4.3,0.6C968.5,424.9,966,424.4,963.7,423.3z"/>
	<path class="st0" d="M985.5,423.6c-0.8-0.7-1.3-1.9-1.1-3.3l1.5-18.6c0.2-1.5,0.7-2.6,1.7-3.4c0.9-0.7,2.2-1.1,3.6-1.1
		c1.4,0,2.5,0.4,3.4,1.1c0.8,0.7,1.2,1.9,1.1,3.4l-1.5,18.6c-0.1,1.4-0.7,2.5-1.6,3.3c-0.9,0.7-2.2,1.1-3.5,1.1
		C987.6,424.8,986.5,424.4,985.5,423.6z M987.9,392.2c-0.9-0.8-1.4-2-1.4-3.4c0-1.4,0.5-2.5,1.4-3.4s2.2-1.2,3.8-1.2
		s2.9,0.4,3.8,1.2c0.9,0.8,1.5,2,1.5,3.4c0,1.4-0.5,2.5-1.4,3.4c-0.9,0.8-2.2,1.3-3.8,1.3C990.1,393.4,988.9,393,987.9,392.2z"/>
	<path class="st0" d="M1006,423.3c-2.2-1.1-3.9-2.6-5.1-4.7c-1.2-2-1.8-4.3-1.8-7c0-3,0.7-5.6,1.9-7.8c1.2-2.2,3-3.8,5.1-5.1
		c2.2-1.1,4.9-1.8,7.8-1.8c3,0,5.5,0.6,7.8,1.6c2.2,1.1,3.9,2.6,5.1,4.6c1.2,2,1.8,4.3,1.8,6.9c0,3-0.7,5.6-1.9,7.9
		c-1.2,2.2-3,3.8-5.1,5.1c-2.2,1.1-4.9,1.8-7.8,1.8C1010.9,424.9,1008.3,424.4,1006,423.3z M1017.8,415.6c0.8-1.4,1.3-3.3,1.3-5.5
		c0-2-0.4-3.5-1.2-4.4c-0.8-0.9-2.1-1.4-3.7-1.4c-1.9,0-3.3,0.7-4.1,2.2c-0.8,1.4-1.3,3.3-1.3,5.4c0,2.1,0.4,3.6,1.2,4.5
		c0.8,0.9,2.1,1.5,3.7,1.5C1015.6,417.8,1017,417.1,1017.8,415.6z"/>
	<path class="st0" d="M611.7,448.7c0.8,0.8,1.2,1.9,1.1,3.2l-2.3,30c-0.1,1.3-0.7,2.4-1.5,3.3c-0.9,0.8-2.1,1.2-3.6,1.2
		c-1.3,0-2.2-0.3-3-0.9c-0.7-0.7-1.2-1.5-1.3-2.5c-0.8,1.1-2,2.1-3.4,2.6c-1.4,0.7-2.9,0.9-4.6,0.9c-2.2,0-4.2-0.6-6-1.6
		c-1.7-1-3.1-2.5-4-4.4c-0.9-1.9-1.4-4.2-1.4-6.8c0-2.9,0.6-5.5,1.6-7.8c1.1-2.2,2.6-4,4.5-5.3c2-1.3,4.2-1.9,6.7-1.9
		c3.3,0,5.9,1.1,7.8,3.5l0.8-10.4c0.1-1.2,0.6-2.2,1.5-3s2.1-1.1,3.5-1.1C609.6,447.5,610.8,447.9,611.7,448.7z M600.4,477.4
		c0.9-1.3,1.4-3,1.4-5.1s-0.5-3.7-1.3-4.9c-0.8-1.1-2.2-1.7-3.7-1.7c-1.7,0-3,0.7-3.9,2s-1.5,3.1-1.5,5.2c0,2.1,0.5,3.6,1.3,4.7
		c0.9,1.1,2.2,1.7,3.8,1.7C598.1,479.4,599.4,478.7,600.4,477.4z"/>
	<path class="st0" d="M641,473.9c-0.5,0.5-1.1,0.7-1.9,0.7H625c0.5,3.3,2.4,4.9,5.9,4.9c1,0,1.9-0.1,2.6-0.3c0.7-0.2,1.6-0.6,2.7-1
		c0.7-0.3,1.2-0.5,1.7-0.5c0.8,0,1.4,0.3,1.9,0.9c0.5,0.7,0.7,1.3,0.7,2.2c0,0.7-0.2,1.5-0.5,2.2c-0.3,0.7-0.8,1.2-1.5,1.6
		c-0.9,0.6-2.2,1-3.6,1.3s-3,0.6-4.7,0.6c-2.9,0-5.4-0.6-7.6-1.6c-2.2-1.1-3.9-2.6-5.1-4.6c-1.2-2-1.8-4.3-1.8-6.9
		c0-2.8,0.6-5.3,1.8-7.5c1.2-2.2,2.8-3.9,4.9-5.2c2.1-1.3,4.5-1.9,7-1.9c3.8,0,6.9,1.1,9.1,3.5c2.2,2.3,3.3,5.6,3.3,9.8
		C641.6,472.7,641.4,473.4,641,473.9z M626.6,466.4c-0.7,0.7-1.3,2-1.6,3.6h8.6c0-1.6-0.4-2.7-1-3.6c-0.7-0.8-1.7-1.2-2.9-1.2
		C628.4,465.2,627.4,465.5,626.6,466.4z"/>
	<path class="st0" d="M685.5,473.9c-0.5,0.5-1.1,0.7-1.9,0.7h-14.1c0.5,3.3,2.4,4.9,5.9,4.9c1,0,1.9-0.1,2.6-0.3
		c0.7-0.2,1.6-0.6,2.7-1c0.7-0.3,1.2-0.5,1.7-0.5c0.8,0,1.4,0.3,1.9,0.9c0.5,0.7,0.7,1.3,0.7,2.2c0,0.7-0.2,1.5-0.5,2.2
		c-0.3,0.7-0.8,1.2-1.5,1.6c-0.9,0.6-2.2,1-3.6,1.3c-1.5,0.3-3,0.6-4.7,0.6c-2.9,0-5.4-0.6-7.6-1.6c-2.2-1.1-3.9-2.6-5.1-4.6
		c-1.2-2-1.8-4.3-1.8-6.9c0-2.8,0.6-5.3,1.8-7.5c1.2-2.2,2.8-3.9,4.9-5.2c2.1-1.3,4.5-1.9,7-1.9c3.8,0,6.9,1.1,9.1,3.5
		c2.2,2.3,3.3,5.6,3.3,9.8C686.1,472.7,685.9,473.4,685.5,473.9z M671.1,466.4c-0.7,0.7-1.3,2-1.6,3.6h8.6c0-1.6-0.4-2.7-1-3.6
		c-0.7-0.8-1.7-1.2-2.9-1.2C672.9,465.2,671.9,465.5,671.1,466.4z"/>
	<path class="st0" d="M714.6,478.9c0.7,0.8,1.1,1.8,1.1,2.8c0,1.2-0.5,2.3-1.4,3.3c-0.9,0.9-2.1,1.4-3.3,1.4c-1.2,0-2.2-0.6-3.2-1.6
		l-5.5-6.5l-6.8,6.5c-1,1-2.2,1.5-3.4,1.5c-1.1,0-2.1-0.4-2.8-1.2c-0.7-0.8-1.1-1.7-1.1-2.8c0-1.2,0.6-2.3,1.6-3.5l7.2-6.6l-5.6-6.2
		c-0.8-0.9-1.2-1.9-1.2-2.9c0-1.2,0.5-2.2,1.4-3.2c0.9-0.9,2.1-1.4,3.3-1.4c1.3,0,2.3,0.6,3.3,1.6l5.1,5.9l6.2-5.8
		c1.1-1.1,2.2-1.6,3.6-1.6c1.1,0,2.1,0.4,2.8,1.1c0.7,0.7,1.1,1.7,1.1,2.7c0,1.2-0.6,2.3-1.6,3.3l-6.6,6.3L714.6,478.9z"/>
	<path class="st0" d="M744.3,460.2c1.7,1,3.1,2.5,4,4.4s1.4,4.2,1.4,6.8c0,2.9-0.6,5.5-1.6,7.8s-2.6,4-4.5,5.3
		c-2,1.3-4.2,1.9-6.7,1.9c-3.2,0-5.8-1.1-7.8-3.5l-0.7,9c-0.1,1.3-0.6,2.2-1.5,3.1c-0.9,0.7-2.1,1.1-3.5,1.1c-1.5,0-2.6-0.4-3.5-1.2
		c-0.8-0.8-1.2-1.9-1.1-3.2l2.2-28.6c0.1-1.3,0.6-2.4,1.5-3.3c0.9-0.8,2.1-1.2,3.6-1.2c1.3,0,2.2,0.3,3.1,0.9
		c0.7,0.7,1.2,1.5,1.3,2.5c0.8-1.1,2-2.1,3.4-2.6c1.3-0.7,2.9-0.9,4.7-0.9C740.7,458.7,742.6,459.2,744.3,460.2z M738.8,477.4
		c0.9-1.3,1.4-3.1,1.4-5.2c0-2.1-0.5-3.6-1.4-4.7c-0.9-1.1-2.2-1.7-3.8-1.7c-1.6,0-2.9,0.7-3.8,2c-0.9,1.3-1.4,3-1.4,5.1
		s0.5,3.7,1.3,4.9c0.8,1.1,2.2,1.7,3.7,1.7C736.5,479.4,737.8,478.7,738.8,477.4z"/>
	<path class="st0" d="M778.4,473.9c-0.5,0.5-1.1,0.7-1.9,0.7h-14.1c0.5,3.3,2.4,4.9,5.9,4.9c1,0,1.9-0.1,2.6-0.3
		c0.7-0.2,1.6-0.6,2.7-1c0.7-0.3,1.2-0.5,1.7-0.5c0.8,0,1.4,0.3,1.9,0.9c0.5,0.7,0.7,1.3,0.7,2.2c0,0.7-0.2,1.5-0.5,2.2
		c-0.3,0.7-0.8,1.2-1.5,1.6c-0.9,0.6-2.2,1-3.6,1.3s-3,0.6-4.7,0.6c-2.9,0-5.4-0.6-7.6-1.6c-2.2-1.1-3.9-2.6-5.1-4.6
		c-1.2-2-1.8-4.3-1.8-6.9c0-2.8,0.6-5.3,1.8-7.5c1.2-2.2,2.8-3.9,4.9-5.2c2.1-1.3,4.5-1.9,7-1.9c3.8,0,6.9,1.1,9.1,3.5
		c2.2,2.3,3.3,5.6,3.3,9.8C779,472.7,778.7,473.4,778.4,473.9z M764,466.4c-0.7,0.7-1.3,2-1.6,3.6h8.6c0-1.6-0.4-2.7-1-3.6
		c-0.7-0.8-1.7-1.2-2.9-1.2C765.7,465.2,764.7,465.5,764,466.4z"/>
	<path class="st0" d="M804.3,459.6c0.7,0.7,0.9,1.6,0.7,2.9c-0.2,1.4-0.6,2.5-1.3,3.2c-0.7,0.7-2,1-3.8,1.2l-1.5,0.2
		c-2.1,0.3-3.5,0.7-4.2,1.6c-0.7,0.7-1.2,2.1-1.4,3.9l-0.7,9.3c-0.1,1.4-0.7,2.5-1.6,3.3c-0.9,0.7-2.2,1.1-3.5,1.1
		c-1.4,0-2.5-0.4-3.4-1.1c-0.8-0.7-1.3-1.9-1.1-3.3l1.5-18.7c0.2-1.4,0.7-2.5,1.7-3.3c1-0.7,2.2-1.1,3.5-1.1s2.2,0.4,3,1
		c0.7,0.7,1.1,1.7,1,3c1-1.2,2.2-2.2,3.6-2.8c1.4-0.7,2.7-1.1,4-1.1l0.7-0.1C802.7,458.7,803.6,459,804.3,459.6z"/>
	<path class="st0" d="M806.4,485.2c-0.8-0.7-1.3-1.9-1.1-3.3l1.5-18.6c0.2-1.5,0.7-2.6,1.7-3.4c0.9-0.7,2.2-1.1,3.6-1.1
		s2.5,0.4,3.4,1.1c0.8,0.7,1.2,1.9,1.1,3.4l-1.5,18.6c-0.1,1.4-0.7,2.5-1.6,3.3c-0.9,0.7-2.2,1.1-3.5,1.1
		C808.4,486.3,807.3,485.9,806.4,485.2z M808.8,453.7c-0.9-0.8-1.4-2-1.4-3.4c0-1.4,0.5-2.5,1.4-3.4s2.2-1.2,3.8-1.2
		c1.6,0,2.9,0.4,3.8,1.2s1.5,2,1.5,3.4c0,1.4-0.5,2.5-1.4,3.4s-2.2,1.3-3.8,1.3C811,455,809.7,454.6,808.8,453.7z"/>
	<path class="st0" d="M845.3,473.9c-0.5,0.5-1.1,0.7-1.9,0.7h-14.1c0.5,3.3,2.4,4.9,5.9,4.9c1,0,1.9-0.1,2.6-0.3
		c0.7-0.2,1.6-0.6,2.7-1c0.7-0.3,1.2-0.5,1.7-0.5c0.8,0,1.4,0.3,1.9,0.9c0.5,0.7,0.7,1.3,0.7,2.2c0,0.7-0.2,1.5-0.5,2.2
		c-0.3,0.7-0.8,1.2-1.5,1.6c-0.9,0.6-2.2,1-3.6,1.3s-3,0.6-4.7,0.6c-2.9,0-5.4-0.6-7.6-1.6c-2.2-1.1-3.9-2.6-5.1-4.6
		c-1.2-2-1.8-4.3-1.8-6.9c0-2.8,0.6-5.3,1.8-7.5c1.2-2.2,2.8-3.9,4.9-5.2c2.1-1.3,4.5-1.9,7-1.9c3.8,0,6.9,1.1,9.1,3.5
		c2.2,2.3,3.3,5.6,3.3,9.8C846,472.7,845.8,473.4,845.3,473.9z M830.9,466.4c-0.7,0.7-1.3,2-1.6,3.6h8.6c0-1.6-0.4-2.7-1-3.6
		c-0.7-0.8-1.7-1.2-2.9-1.2C832.8,465.2,831.7,465.5,830.9,466.4z"/>
	<path class="st0" d="M875.6,461.2c1.5,1.7,2.2,4.1,2.2,7.4c0,0.8,0,1.4-0.1,1.9l-0.9,11.4c-0.2,1.4-0.7,2.4-1.6,3.3
		c-0.9,0.8-2.1,1.2-3.6,1.2s-2.6-0.4-3.5-1.2c-0.8-0.8-1.2-1.9-1-3.3l0.9-11.1c0.1-1.5-0.1-2.7-0.7-3.5c-0.6-0.8-1.5-1.2-2.8-1.2
		c-1.4,0-2.5,0.5-3.3,1.4s-1.2,2.2-1.3,3.7l-0.9,10.8c-0.1,1.4-0.7,2.4-1.5,3.3c-0.9,0.8-2.1,1.2-3.6,1.2s-2.7-0.4-3.5-1.2
		c-0.8-0.7-1.1-1.9-1.1-3.3l1.5-18.7c0.1-1.3,0.6-2.3,1.6-3.2c0.9-0.8,2.2-1.2,3.6-1.2c1.2,0,2.2,0.3,2.9,0.9
		c0.7,0.7,1.1,1.4,1.2,2.5c0.9-1.1,2.2-2,3.6-2.6c1.5-0.7,3.1-0.9,4.9-0.9C871.9,458.7,874.1,459.5,875.6,461.2z"/>
	<path class="st0" d="M888.8,484.8c-2.2-1-3.9-2.6-5.1-4.6c-1.2-2-1.8-4.3-1.8-6.9c0-3,0.7-5.6,1.9-7.9c1.2-2.2,3-3.9,5.3-5.1
		c2.3-1.2,5.1-1.8,8.2-1.8c1.8,0,3.4,0.2,4.9,0.5c1.5,0.3,2.7,0.7,3.7,1.3c0.6,0.3,1,0.7,1.3,1.3c0.3,0.6,0.5,1.2,0.5,1.9
		c0,1-0.3,1.9-0.8,2.7c-0.6,0.7-1.3,1.1-2.2,1.1c-0.5,0-1-0.1-1.5-0.4c-1.8-0.8-3.6-1.2-5.2-1.2c-2,0-3.5,0.7-4.5,1.9
		s-1.6,3-1.6,5.3c0,1.9,0.5,3.4,1.4,4.4c0.9,1,2.2,1.6,3.9,1.6c0.9,0,1.8-0.1,2.5-0.3s1.6-0.5,2.5-0.7c0.6-0.3,1.1-0.5,1.7-0.5
		c0.8,0,1.4,0.3,1.9,0.9c0.5,0.6,0.7,1.3,0.7,2.2c0,0.7-0.2,1.5-0.6,2.2c-0.4,0.7-0.8,1.2-1.6,1.7c-0.9,0.5-2.2,0.9-3.6,1.3
		c-1.4,0.4-2.9,0.6-4.3,0.6C893.6,486.5,891,485.9,888.8,484.8z"/>
	<path class="st0" d="M910.6,485.2c-0.8-0.7-1.3-1.9-1.1-3.3l1.5-18.6c0.2-1.5,0.7-2.6,1.7-3.4c0.9-0.7,2.2-1.1,3.6-1.1
		s2.5,0.4,3.4,1.1c0.8,0.7,1.2,1.9,1.1,3.4l-1.5,18.6c-0.1,1.4-0.7,2.5-1.6,3.3c-0.9,0.7-2.2,1.1-3.5,1.1
		C912.7,486.3,911.5,485.9,910.6,485.2z M913,453.7c-0.9-0.8-1.4-2-1.4-3.4c0-1.4,0.5-2.5,1.4-3.4s2.2-1.2,3.8-1.2
		c1.6,0,2.9,0.4,3.8,1.2s1.5,2,1.5,3.4c0,1.4-0.5,2.5-1.4,3.4s-2.2,1.3-3.8,1.3C915.2,455,913.9,454.6,913,453.7z"/>
	<path class="st0" d="M947.1,461.3c2,1.8,3,4.5,3,8c0,0.7,0,1.4-0.1,1.8l-0.8,10.8c-0.1,1.4-0.6,2.5-1.5,3.3c-0.8,0.7-2,1.1-3.5,1.1
		c-1.2,0-2.2-0.4-2.9-1c-0.7-0.7-1.2-1.6-1.2-2.6c-0.7,1.2-1.6,2.2-2.8,2.8c-1.2,0.7-2.5,0.9-4.1,0.9c-1.8,0-3.3-0.4-4.8-1
		c-1.4-0.7-2.5-1.6-3.4-2.8c-0.8-1.2-1.2-2.5-1.2-4c0-2.1,0.5-3.7,1.5-5c1-1.2,2.6-2.2,4.9-2.7c2.2-0.6,5.1-0.8,8.8-0.8h2l0.1-0.4
		c0.2-2.5-1.3-3.8-4.3-3.8c-1.4,0-3.5,0.5-6.1,1.4c-0.7,0.3-1.2,0.4-1.9,0.4c-0.9,0-1.7-0.3-2.2-0.9c-0.6-0.7-0.8-1.3-0.8-2.2
		c0-0.7,0.2-1.3,0.6-2c0.4-0.7,0.9-1.1,1.8-1.6c2.7-1.5,6-2.2,9.9-2.2C942.1,458.7,945.1,459.5,947.1,461.3z M939.2,478.6
		c0.8-0.9,1.3-2.2,1.4-3.6l0.1-0.6h-1.5c-2.2,0-3.7,0.2-4.7,0.7c-0.9,0.5-1.4,1.2-1.4,2.3c0,0.7,0.3,1.4,0.7,1.9
		c0.6,0.5,1.2,0.7,2.1,0.7C937.4,480,938.4,479.6,939.2,478.6z"/>
	<path class="st0" d="M955.7,484.8c-0.9-0.4-1.6-0.9-2.1-1.6s-0.7-1.4-0.7-2.2c0-0.9,0.3-1.8,0.9-2.4c0.6-0.7,1.3-1,2.2-1
		c0.6,0,1.1,0.2,1.8,0.5c1.1,0.6,2.4,0.9,3.8,1.3c1.4,0.3,2.8,0.5,4,0.5c1,0,1.9-0.1,2.4-0.4c0.6-0.3,0.8-0.7,0.8-1.1
		c0-0.6-0.4-1-1.1-1.4c-0.7-0.3-1.9-0.7-3.6-1.2c-1.9-0.5-3.6-1-4.9-1.6c-1.3-0.6-2.4-1.3-3.4-2.4c-0.9-1-1.4-2.4-1.4-4.2
		s0.6-3.3,1.6-4.6c1-1.3,2.5-2.3,4.5-3.1c2-0.7,4.2-1.1,6.8-1.1c1.1,0,2.5,0.2,4,0.5s2.8,0.7,3.8,1.1c0.7,0.4,1.3,0.9,1.7,1.6
		c0.4,0.7,0.6,1.3,0.6,2.1c0,0.9-0.3,1.7-0.8,2.3c-0.6,0.7-1.2,1-2.1,1c-0.6,0-1-0.1-1.6-0.4c-2.1-1-4.2-1.5-6.5-1.5
		c-1.1,0-2,0.1-2.6,0.4c-0.6,0.3-0.9,0.7-0.9,1.1c0,0.6,0.4,1,1.1,1.4c0.7,0.4,2,0.7,3.6,1.2c2,0.6,3.6,1.1,4.9,1.6
		c1.3,0.6,2.4,1.3,3.4,2.4c0.9,1,1.4,2.4,1.4,4.2c0,2.7-1.1,4.9-3.3,6.5c-2.2,1.5-5.3,2.3-9.4,2.3
		C961.7,486.5,958.6,485.9,955.7,484.8z"/>
	<path class="st0" d="M622.8,514c0.8,0.9,1.1,2.2,1,3.6l-2.3,29.4c-0.2,1.4-0.7,2.4-1.4,3.3c-0.8,0.8-1.9,1.2-3.3,1.2
		c-1.3,0-2.2-0.4-3.1-1.2c-0.7-0.8-1.1-1.9-0.9-3.3l1.2-16l-7,11.4c-0.7,1.1-1.4,2-2.2,2.5c-0.7,0.5-1.6,0.7-2.5,0.7
		s-1.8-0.3-2.4-0.7s-1.2-1.3-1.8-2.5l-5.2-10.8l-1.2,15.3c-0.1,1.3-0.6,2.4-1.4,3.3s-2,1.2-3.3,1.2s-2.2-0.4-3-1.2
		c-0.7-0.7-1-1.9-0.9-3.3l2.3-29.6c0.2-1.4,0.7-2.6,1.6-3.6s2.1-1.4,3.5-1.4c2,0,3.5,1.1,4.5,3.3l8.3,18.4l11.4-18.3
		c0.7-1.1,1.4-1.9,2.2-2.4c0.8-0.6,1.7-0.8,2.6-0.8C620.9,512.6,622.1,513,622.8,514z"/>
	<path class="st0" d="M652.7,539c-0.5,0.5-1.1,0.7-1.9,0.7h-14.1c0.5,3.3,2.4,4.9,5.9,4.9c1,0,1.9-0.1,2.6-0.3
		c0.7-0.2,1.6-0.6,2.7-1c0.7-0.3,1.2-0.5,1.7-0.5c0.8,0,1.4,0.3,1.9,0.9c0.5,0.7,0.7,1.3,0.7,2.2c0,0.7-0.2,1.5-0.5,2.2
		c-0.3,0.7-0.8,1.2-1.5,1.6c-0.9,0.6-2.2,1-3.6,1.3c-1.5,0.3-3,0.6-4.7,0.6c-2.9,0-5.4-0.6-7.6-1.6c-2.2-1.1-3.9-2.6-5.1-4.6
		c-1.2-2-1.8-4.3-1.8-6.9c0-2.8,0.6-5.3,1.8-7.5c1.2-2.2,2.8-3.9,4.9-5.2c2.1-1.3,4.5-1.9,7-1.9c3.8,0,6.9,1.1,9.1,3.5
		c2.2,2.3,3.3,5.6,3.3,9.8C653.4,537.8,653.2,538.5,652.7,539z M638.3,531.5c-0.7,0.7-1.3,2-1.6,3.6h8.6c0-1.6-0.4-2.7-1-3.6
		c-0.7-0.8-1.7-1.2-2.9-1.2C640.2,530.3,639.1,530.6,638.3,531.5z"/>
	<path class="st0" d="M699,526.2c1.5,1.7,2.2,4.1,2.2,7.4c0,0.8,0,1.4-0.1,1.8l-0.9,11.6c-0.1,1.5-0.7,2.6-1.6,3.4s-2.2,1.1-3.6,1.1
		s-2.5-0.4-3.4-1.1c-0.8-0.7-1.3-1.9-1.1-3.3l0.9-11.3c0.1-1.4-0.1-2.5-0.6-3.4c-0.5-0.7-1.3-1.1-2.3-1.1c-1.3,0-2.3,0.5-3,1.3
		c-0.7,0.8-1.1,2.3-1.3,4.4l-0.8,10.1c-0.2,1.5-0.7,2.6-1.7,3.4c-0.9,0.7-2.2,1.1-3.5,1.1c-1.4,0-2.5-0.4-3.4-1.1s-1.2-1.9-1.1-3.3
		l0.9-11.2c0.2-3.1-0.7-4.6-2.9-4.6c-1.3,0-2.3,0.5-3,1.4c-0.7,0.9-1.1,2.3-1.3,4.3l-0.8,10.1c-0.1,1.4-0.7,2.5-1.6,3.3
		c-0.9,0.7-2.2,1.1-3.5,1.1c-1.4,0-2.5-0.4-3.4-1.1c-0.8-0.7-1.3-1.9-1.1-3.3l1.5-18.7c0.2-1.4,0.7-2.5,1.8-3.3s2.2-1.1,3.6-1.1
		c1.1,0,2.1,0.3,2.8,0.8c0.7,0.6,1.2,1.3,1.3,2.3c1-1.1,2.2-2,3.6-2.5s2.8-0.8,4.5-0.8c1.8,0,3.3,0.4,4.5,1.1c1.3,0.7,2.2,1.8,3,3.1
		c1.1-1.4,2.5-2.4,4.1-3.1c1.6-0.7,3.3-1,5.1-1C695.3,523.8,697.5,524.6,699,526.2z"/>
	<path class="st0" d="M712,549.9c-2.2-1.1-3.9-2.6-5.1-4.7c-1.2-2-1.8-4.3-1.8-7c0-3,0.7-5.6,1.9-7.8c1.2-2.2,3-3.8,5.1-5.1
		c2.2-1.1,4.9-1.8,7.8-1.8c3,0,5.5,0.6,7.8,1.6c2.2,1.1,3.9,2.6,5.1,4.6c1.2,2,1.8,4.3,1.8,6.9c0,3-0.7,5.6-1.9,7.9
		c-1.2,2.2-3,3.8-5.1,5.1c-2.2,1.2-4.9,1.8-7.8,1.8C716.8,551.6,714.2,551,712,549.9z M723.7,542.2c0.8-1.4,1.3-3.3,1.3-5.5
		c0-2-0.4-3.5-1.2-4.4c-0.8-0.9-2.1-1.4-3.7-1.4c-1.9,0-3.3,0.7-4.1,2.2c-0.8,1.4-1.3,3.3-1.3,5.4c0,2.1,0.4,3.6,1.2,4.5
		s2.1,1.5,3.7,1.5C721.5,544.5,722.9,543.7,723.7,542.2z"/>
	<path class="st0" d="M759.9,524.7c0.7,0.7,0.9,1.6,0.7,2.9c-0.2,1.4-0.6,2.5-1.3,3.2c-0.7,0.7-2,1-3.8,1.2l-1.5,0.2
		c-2.1,0.3-3.5,0.7-4.2,1.6c-0.7,0.8-1.2,2.1-1.4,3.9l-0.7,9.3c-0.1,1.4-0.7,2.5-1.6,3.3c-0.9,0.7-2.2,1.1-3.5,1.1
		c-1.4,0-2.5-0.4-3.4-1.1c-0.8-0.7-1.3-1.9-1.1-3.3l1.5-18.7c0.2-1.4,0.7-2.5,1.7-3.3c1-0.7,2.2-1.1,3.5-1.1s2.2,0.4,3,1
		c0.7,0.7,1.1,1.7,1,3c1-1.2,2.2-2.2,3.6-2.8c1.4-0.7,2.7-1.1,4-1.1l0.7-0.1C758.3,523.8,759.3,524.1,759.9,524.7z"/>
	<path class="st0" d="M783.3,526.4c2,1.8,3,4.5,3,8c0,0.7,0,1.4-0.1,1.8l-0.8,10.8c-0.1,1.4-0.6,2.5-1.5,3.3c-0.8,0.7-2,1.1-3.5,1.1
		c-1.2,0-2.2-0.4-2.9-1c-0.7-0.7-1.2-1.6-1.2-2.6c-0.7,1.2-1.6,2.2-2.8,2.8c-1.2,0.7-2.5,0.9-4.1,0.9c-1.8,0-3.3-0.4-4.8-1
		c-1.4-0.7-2.5-1.6-3.4-2.8c-0.8-1.2-1.2-2.5-1.2-4c0-2.1,0.5-3.7,1.5-5c1-1.2,2.6-2.2,4.9-2.7c2.2-0.6,5.1-0.8,8.8-0.8h2l0.1-0.4
		c0.2-2.5-1.3-3.8-4.3-3.8c-1.4,0-3.5,0.5-6.1,1.4c-0.7,0.3-1.2,0.4-1.9,0.4c-0.9,0-1.7-0.3-2.2-0.9c-0.6-0.7-0.8-1.3-0.8-2.2
		c0-0.7,0.2-1.3,0.6-2c0.4-0.7,0.9-1.1,1.8-1.6c2.7-1.5,6-2.2,9.9-2.2C778.4,523.8,781.4,524.6,783.3,526.4z M775.5,543.7
		c0.8-0.9,1.3-2.2,1.4-3.6l0.1-0.6h-1.5c-2.2,0-3.7,0.2-4.7,0.7s-1.4,1.2-1.4,2.3c0,0.7,0.3,1.4,0.7,1.9c0.6,0.5,1.2,0.7,2.1,0.7
		C773.6,545.1,774.6,544.7,775.5,543.7z"/>
	<path class="st0" d="M815.8,525.3c1.7,1,3.1,2.5,4,4.4c0.9,1.9,1.4,4.2,1.4,6.8c0,2.9-0.6,5.5-1.6,7.8s-2.5,4-4.5,5.3
		c-2,1.3-4.2,1.9-6.7,1.9c-3.5,0-6.1-1.2-8-3.7c-0.3,1.1-0.8,2-1.7,2.6c-0.8,0.7-2,1-3.3,1c-1.5,0-2.6-0.4-3.5-1.2
		c-0.8-0.8-1.1-1.9-1.1-3.3l2.4-30c0.1-1.3,0.6-2.3,1.6-3.2s2.2-1.2,3.7-1.2c1.4,0,2.5,0.4,3.3,1.1c0.7,0.7,1.1,1.8,1,3L802,527
		c0.8-1.1,2-1.9,3.3-2.5c1.3-0.6,2.8-0.8,4.5-0.8C812,523.8,814,524.3,815.8,525.3z M810.2,542.5c0.9-1.3,1.4-3,1.4-5.2
		c0-2.1-0.5-3.6-1.3-4.8c-0.9-1.1-2.2-1.7-3.8-1.7c-1.6,0-2.9,0.7-3.8,2c-0.9,1.3-1.4,3-1.4,5.1c0,2.2,0.5,3.7,1.3,4.9
		c0.8,1.1,2.2,1.7,3.7,1.7C807.9,544.5,809.2,543.8,810.2,542.5z"/>
	<path class="st0" d="M826,550.3c-0.8-0.7-1.3-1.9-1.1-3.3l2.4-29.8c0.1-1.5,0.7-2.6,1.6-3.5c0.9-0.7,2.2-1.1,3.5-1.1
		c1.4,0,2.5,0.4,3.4,1.1c0.8,0.7,1.3,1.9,1.1,3.5l-2.4,29.8c-0.1,1.4-0.7,2.5-1.6,3.3c-0.9,0.7-2.2,1.1-3.5,1.1
		C827.9,551.4,826.8,551,826,550.3z"/>
	<path class="st0" d="M864.9,539c-0.5,0.5-1.1,0.7-1.9,0.7h-14.1c0.5,3.3,2.4,4.9,5.9,4.9c1,0,1.9-0.1,2.6-0.3
		c0.7-0.2,1.6-0.6,2.7-1c0.7-0.3,1.2-0.5,1.7-0.5c0.8,0,1.4,0.3,1.9,0.9s0.7,1.3,0.7,2.2c0,0.7-0.2,1.5-0.5,2.2s-0.8,1.2-1.5,1.6
		c-0.9,0.6-2.2,1-3.6,1.3s-3,0.6-4.7,0.6c-2.9,0-5.4-0.6-7.6-1.6c-2.2-1.1-3.9-2.6-5.1-4.6c-1.2-2-1.8-4.3-1.8-6.9
		c0-2.8,0.6-5.3,1.8-7.5c1.2-2.2,2.8-3.9,4.9-5.2c2.1-1.3,4.5-1.9,7-1.9c3.8,0,6.9,1.1,9.1,3.5c2.2,2.3,3.3,5.6,3.3,9.8
		C865.5,537.8,865.2,538.5,864.9,539z M850.5,531.5c-0.7,0.7-1.3,2-1.6,3.6h8.6c0-1.6-0.4-2.7-1-3.6c-0.7-0.8-1.7-1.2-2.9-1.2
		C852.2,530.3,851.2,530.6,850.5,531.5z"/>
	<path class="st0" d="M870.1,549.9c-0.9-0.4-1.6-0.9-2.1-1.6s-0.7-1.4-0.7-2.2c0-0.9,0.3-1.8,0.9-2.4c0.6-0.7,1.3-1,2.2-1
		c0.6,0,1.1,0.2,1.8,0.5c1.1,0.6,2.4,0.9,3.8,1.3c1.4,0.3,2.8,0.5,4,0.5c1,0,1.9-0.1,2.4-0.4c0.6-0.3,0.8-0.7,0.8-1.1
		c0-0.6-0.4-1-1.1-1.4c-0.7-0.3-1.9-0.7-3.6-1.2c-1.9-0.5-3.6-1-4.9-1.6c-1.3-0.6-2.4-1.3-3.4-2.4c-0.9-1-1.4-2.4-1.4-4.2
		c0-1.8,0.6-3.3,1.6-4.6c1-1.3,2.5-2.3,4.5-3.1c2-0.7,4.2-1.1,6.8-1.1c1.1,0,2.5,0.2,4,0.5c1.5,0.3,2.8,0.7,3.8,1.1
		c0.7,0.4,1.3,0.9,1.7,1.6c0.4,0.7,0.6,1.3,0.6,2.1c0,0.9-0.3,1.7-0.8,2.3c-0.6,0.7-1.2,1-2.1,1c-0.6,0-1-0.1-1.6-0.4
		c-2.1-1-4.2-1.5-6.5-1.5c-1.1,0-2,0.1-2.6,0.4c-0.6,0.3-0.9,0.7-0.9,1.1c0,0.6,0.4,1,1.1,1.4c0.7,0.4,2,0.7,3.6,1.2
		c2,0.6,3.6,1.1,4.9,1.6c1.3,0.6,2.4,1.3,3.4,2.4c0.9,1,1.4,2.4,1.4,4.2c0,2.7-1.1,4.9-3.3,6.5c-2.2,1.5-5.3,2.3-9.4,2.3
		C876,551.6,872.9,551,870.1,549.9z"/>
</g>
<path class="st0" d="M861.9,580.6L861.9,580.6c-18.4,1.5-37.7,0.3-57-0.3c-20.8-0.8-41.7-1-62.3-0.7c-20.3,0.3-40.2,1.2-59.5,2.6
	c-14.8,1.1-32.9,2.2-39.7,6.6c-5.1,3.2,11.7,6.8,17,3.6c6.4-4,29.7-4.5,43.3-5.4c17.9-1,36.2-1.6,54.9-1.7
	c18.7-0.1,37.5,0.5,56.5,1.2c17.6,0.8,35.5,1.3,52.2,0C878.7,585.4,873.9,579.5,861.9,580.6z"/>
</svg>
