<?xml version="1.0" encoding="utf-8"?>
<!-- Generator: Adobe Illustrator 25.3.1, SVG Export Plug-In . SVG Version: 6.00 Build 0)  -->
<svg version="1.1" id="Capa_1" xmlns="http://www.w3.org/2000/svg" xmlns:xlink="http://www.w3.org/1999/xlink" x="0px" y="0px"
	 width="1920px" height="1080px" viewBox="0 0 1920 1080" style="enable-background:new 0 0 1920 1080;" xml:space="preserve">
<style type="text/css">
	.st0{fill:#CCCCCC;}
	.st1{fill:#FFFFFF;}
</style>
<ellipse class="st0" cx="943.1" cy="990.5" rx="161.1" ry="39.8"/>
<path d="M761.2,933.5c-0.4-0.1-0.8-0.2-1.2-0.1c0.1-0.4,0.3-0.9,0.5-1.3c-0.5-2.1,0.5-4.4,2.1-5.7c0.9-3.3,0.8-6.6-2.8-8.7
	c0.7,5.7-0.7,11.1-4.6,15.1c-6.4-21.1-8.8-42.4-14.5-63.6c-7.3-25.1-12-52.2-14.4-79.8c-0.7-7.8-1.5-15.7-7.2-21.4
	c-2.8-2.1-4-5.1-5.4-8.2c-1.2-2.8-2.4-5.8-4.9-8.1l-0.1-0.1h-0.1c-2.7,0-5.5,0.1-8.5,0.3c-1.3,2.8-2.4,5.8-2.8,9
	c-11.1,0.6-22.2,0.1-33.1,2.5c-1.8-3-3.9-5.8-5.8-8.5c-6.3-0.4-12,3.3-13.3,9c-1.2,3.9,1.6,6.9,3.4,9.9
	c-14.7,18.6-25.9,46.5-30.4,72.4c-0.7,4.2-1.5,8.7-2.7,12.9c-1.6-4.9-1.3-10.2-2.1-15.3c-5.4-29-4.3-58.4-6.6-87.6
	c0.4-13-0.7-26.2-1.8-38.9c-0.6-6.1-1.2-12.4-1.5-18.7c-0.1-7-4.2-13.9-2.4-21c1.9-10.6,2.5-21.1,4.5-31.7
	c8.7,1.2,17.5,1.9,24.7-3.1c1.8,2.5,6.4,7,11.1,3.4c-0.9-1.6-1.8-3.3-2.4-4.6c0.7-0.7,1.6-1.8,2.4-2.7c0.4,2.2,1.2,4.3,2.2,6.3
	c1-4.5,3.9-9.9,0-13.8c1.8-0.9,3.6-1.6,5.2-2.4c-1.5-1-3-1.9-4.5-3c-2.7,2.4-6.3,3.1-9.6,4.3c-0.4-1.8-1-4.5-1.5-6.1
	c5.7-2.5,12.4-2.8,18.7-1c1.2,5.4,1.5,11.4,6,15.1c9,9.6,22.9,9.9,30.5,9.1c16.6-1.6,25.6-14.2,21.4-29.8c0.6-0.6,1.6-1.8,2.2-2.5
	c10.5,17.1,17.4,34.3,23.2,52.2c3,8.5,6.1,17.2,7.2,26.2c-31.9,14.5-65.1-17.4-89.6-6.7c-10.5,7-18.3,17.2-29.3,23.6
	c-5.4,2.7-11.2,4-16.8,6.4c0.1,6.1,5.2,10.8,9.9,13c4.8,0.9,9.6,0,14.7-1.2c1,2.8,0.1,7,3.9,8.2c5.1,2.5,10-0.7,14.1-3.3
	c0.6,4.3,1.2,11.4,7.2,11.1c6,1,9.4-4.2,13.5-7.5c0.7,3,1,6.3,3,8.8c1.9,3.6,6.1,1.6,9.3,1.9c2.2-2.5,4.5-5.2,7.2-8.5
	c1.2,4.3,3,7.8,5.2,10.8h5.4c2.5-3.1,4.9-6.4,8.1-10.6c0.6,3.6,3.3,10,8.7,8.5c2.2-1.9,4-4.3,5.8-6.6c1.5,2.2,2.1,5.8,5.1,6.6
	c2.4,1.2,5.5,1,7-1.3c7.3-9.1,10.2-20.7,13.3-31.6c3,7.7,4.1,15.8,5.5,23.9l3.9-2.4c-2.1-9.8-4.8-19.3-6.2-29.3
	c0.9,0,1.8,0.1,2.7,0.1c-0.2-0.8-0.5-1.6-0.6-2.4c-0.1-0.7-0.2-1.4-0.2-2c-0.9,0-1.8,0-2.6,0.1c-3.4-16-8.7-31.1-12.9-42.7
	c0.3-0.3,0.7-0.5,1.1-0.7c-0.5-1.2-0.7-2.5-0.6-3.8c0-0.5,0-1.1,0.1-1.6c-0.7,0.4-1.3,0.7-2,1.2c-3.4-8.4-6.4-16.9-9.3-25.1
	c0.4-0.2,0.8-0.3,1.2-0.5c-1.1-1.5-1.6-3.5-1.5-5.5c-0.6,0.2-1.2,0.3-1.8,0.5c-2.7-4.9-5.7-9.6-8.4-14.4c1.6-1,3.4-2.5,5.5-2.5
	c6.4-0.4,10.3,6,15,9.7c-0.4-5.8-5.4-10.5-9.4-13c-4.8-2.7-9.7,0.3-14.2,1.9c-1.9-2.5-3.6-4.9-5.1-7.6c1-9.1,1-17.4,0.1-25.4
	c0.1,0,0.2-0.1,0.3-0.1c-0.5-1.4-0.6-3-0.2-4.5c-0.6,0.2-1.2,0.3-1.9,0.5c-0.3,2.5-1.6,4.8-4,5.9c0.7-0.1,1.4-0.3,2.1-0.4
	c-5.1,7.2-9.3,13-13.3,18.4c-0.1-0.2-0.1-0.5-0.2-0.7c-1.2,1.5-3,2.5-5.5,2.5c-0.9,0-1.7-0.1-2.5-0.4c-22.2,2.7-44.1,7-65.9,11.2
	c-1.8-2.2-3.1-4.8-3.7-7.5c-6.7,0.3-10.3-6.3-15-10.2c-0.6,1.3-1,2.5-1.6,3.9v0.3c2.2,8.5,6.7,16,9.9,24.1c-2.1,4.8-9,5.4-13.2,7.9
	c-0.6,4.3-1.5,8.8,0.1,13c1.8,2.7,4.3,4.8,6.1,7.5c-0.1,10.3-2.2,20.4-3.6,30.7c-0.9-1-1.9-2.2-2.8-3.3c0.4-4.2,0.6-8.5,0.6-13
	c-7.2-3.4-11.7,3.7-15.3,8.8c-2.8-0.3-5.8-0.6-8.1-0.9c-1-1.9-2.2-4-3.3-6c4-4.3,6.6-9,7.5-13.9c-11.2-6.9-24.7,2.8-28.6,6.3
	c-3.7-0.4-7.8-0.4-11.1-2.4c-5.5-3-12-4.6-19.5-4.9c-3.6,0.1-5.8,3.4-7.8,6.4c1.6-0.3,3.3-0.6,4.9-1c9.1-3,16.8,1.3,24.2,6.3
	c-1,4-1.9,7.8-2.7,11.4c-2.4-1-4.9-1.9-7.5-2.8l0.4,3.6c-2.8-0.6-5.5-1.3-8.4-2.2c1.9-1.5,4-3.1,6.4-4.8c-4.6-2.8-10.5-4.3-13.2-9.4
	c-1,0.9-2.2,1.9-3.3,2.7c1.8,2.2,3.4,4.3,5.1,6.3c0,3,0,6,0.1,8.5c-4.9,0.3-9.7,0.9-14.7,0.6c-1-0.6-2.1-1.3-3-2.2
	c-1.8-1.8-3.7-3.4-6.4-3.4c-4.8,1.8-5.8,7.5-6.1,12.4c-0.4,9.1-1.8,18-2.8,26.9c-1.5,12.1-0.7,24.2-2.4,36.4
	c-11.5-10.6-16.5-26.6-29.9-35.3c-5.7-4-12.7-4.3-19.3-5.4c0.1-1.8,0.3-3.7,0.6-5.5c3.7-1.5,7.5-2.8,11.1-4.6
	c-2.7-1.6-5.5-3.1-8.4-4.6c0.3-3.9,0.7-7.8,0.4-11.8c-1.2-6.7-5.7-12.9-11.7-16.3c-4.5-2.2-8.5,0.7-12,3.1c-2.1,1.6-5.2,0.3-7.8,0.4
	c0,1,0.1,2.8,0.1,4c-1.3,2.4-2.2,5.7-2.5,8.8c1.3-1.2,2.7-2.5,4-3.9c-0.1,0.3-0.1,0.4-0.3,0.6c0.4,1.8,0.7,3.6,1,5.4
	c2.1,12.7,3.4,17.1,17.2,18.7c0.6,2.4,1.2,4.9,1.9,7.5c-5.5,1.9-9.7,9.4-8.1,14.8c4.6,5.5,11.8,5.2,17.8,7.9
	c10.5,13.8,16.2,30.7,29.6,42.2c4,3.7,8.1,7.6,13.6,8.7c-0.1,2.7-0.4,5.4-0.7,8.4c-7.2,1.2-15.9,3.7-20.8,10.5
	c-5.1,6.9-8.8,15-10.6,23c-2.7,11.7,0,23.5,0.7,35.2c-12.6,0.6-22,3.6-28.7,9.3c-5.7,4.2-8.1,10.9-10.6,17.4
	c-12.3,2.6-26.2,6.7-36.3,15.9c-26.7-11.6-59.9-14.7-97.5-8.9c-34.7,5.4-62.2,16.7-66.8,18.6C133.2,891.9,75.3,889.9,37,900
	c-29.1,7.6-36.9,20-37.2,20.5l3.6,2c0.3-0.5,30.6-46.8,201.3-12.6l0.6,0.2l0.6-0.2c0.3-0.1,29.3-12.8,66.5-18.5
	c34.2-5.2,82.4-5.6,118.5,22.6l2.8-3.3c-5.9-4.6-12.4-8.6-19.3-12.1c10-6.4,22.1-13.5,35.4-14.4c14.2-1.5,28.9,6.3,35.9,18.9
	c3.3,6.3,2.7,13.6,3.1,20.5c-5.4,0.1-8.1,4.5-10.8,8.5c-2.8,4.2-5.4,8.2-10.8,7.9c-6.1,0.3-10.3-4.9-15.7-6.9
	c-4.6-1.6-7.8,2.7-9.7,4.9c3.6,0.9,6.7-1.2,9.9-2.5c6.3,4,12.9,9.1,20.8,7.6c3.9-1.9,6.1-5.4,8.2-8.7s4-6.3,7.5-8.1
	c-0.1,6.3-2.8,11.8-3.7,17.8c2.8-0.3,3.6-3.4,4.8-5.5c2.8,5.4,9.3,4,14.2,4.3c0.1-0.4,0.3-1.2,0.3-1.6c-5.8,0.7-12.6-1.2-13.5-7.2
	c0.7-5.5,3.6-10.5,3.7-16c0.3-5.2-1.3-10.3-3.3-15.7c7.2-2.8,17.5-5.1,26.5-0.7c12.3,4.9,22.3,16.3,27.1,30.5
	c-0.3,0.3-0.7,0.9-1,1.3c-9.7,2.1-19.3,5.2-24.5,13.2c2.8-0.6,5.5-1,8.2-2.7c11.5-7.6,25.9-8.4,39.7-8.2c9.3,0.1,17.5,4.5,26.5,5.8
	c-1.6-10.2-4.2-20.1-5.7-30.2c1.9,1.6,3.9,3.4,6.1,5.5c0.4,8.4,2.1,16.5,3.6,23.5c0.6-0.6,1.5-1.5,2.1-1.9
	c-0.7-6.7-1.5-13.5-2.2-20.4c2.1,0.6,5.8,0.3,6,2.5c0.9,6.4,1.3,13,3.3,19.3c8.7-7.8,15.9-17.5,26.5-22.7c6.7-3.1,15.3-3,25.3,0.3
	c7.5,2.5,12.4,8.8,18,14.1c-0.7,0.9-1.4,1.9-2.1,2.8c0.8,0.6,1.7,1.2,2.4,1.8c0.2,0.2,0.5,0.4,0.7,0.7c5.3-3.8,12.2-6.1,18.9-2.6
	c-1.2,4.5-1.6,7.5-1.9,11.2c4.6-5.7,6.4-12.7,10.5-18.7c5.8-8.4,11.8-16.3,20.7-20.5c9.6-4.6,23.3-5.7,32.6,2.7
	c4.9,3.7,8.7,8.7,12.4,13.5c4.5,6,9.3,12.1,16.2,15.9c2.1,0.4,4.3,0.6,6.7,0.9l-3.6,4.9c4.2-0.9,7.6-3.3,10.3-7.6
	c3.1,2.1,5.6,4.1,7.9,6.1C765.6,939.7,763.3,936.6,761.2,933.5L761.2,933.5z M730.8,743.6l-3.1-2.2c0.4-0.7,1-1.5,1.5-2.1
	c1.9-2.7,3.7-5.4,4-8.8c-2.7,1.9-4.2,5.1-6.3,7.6c-0.3-3.7-1.5-8.7,2.1-10.9c4.2-3.1,9-6.9,12-12.3c0.6,0.4,1,1.2,1.6,1.8
	C740.2,728.1,736.3,736.9,730.8,743.6z M743.8,696.3c0.9,4.2,0.6,8.5,0.3,12.7c-0.1,1.2-0.3,2.2-0.3,3.4c-1.5,0.7-3,1-4.6,0.9
	c-4.6,4.2-8.8,9.4-15.3,10.5c-0.9-5.7-0.1-10.5,2.2-14.8c-6.7,3.6-11.7,9.4-18.7,12.6c-0.9-5.7-0.4-10.9,1-15.9
	c-7.3,4.5-14.2,10.3-22.9,12.1c0.3-5.7,3-10.6,3.9-16c-7.3,4.2-13.9,11.2-23,10.8c0.1-5.1,2.7-9.4,3.9-14.2
	c-3.9,1.5-7.6,3.7-11.1,5.8c-2.7,1.6-5.4,3.3-8.2,4.6c-1.3-0.1-4-0.1-5.4-0.3l-2.2,3.6c6.9,4.9,13.5-1.8,19.6-4.8
	c0.1,2.5,0.3,4.9,0.4,7.5c6.3,6.3,13.6-0.3,19.8-3.6c-0.3,2.7-0.6,5.5-0.9,8.2c1,0.7,2.8,2.1,3.9,2.8c6.4-1.5,11.7-5.2,17.1-8.7
	c0.3,4.6,0.1,9.7,4.3,12.9c4.5-2.2,8.2-5.5,12-8.7c0.3,2.1,0.6,4.6,0.7,6.9l4.2,4.2c-2.2,4.5-4.8,9.4-8.5,13.5
	c0.6-4.2,0.9-8.8,0.3-13.3c-3.3,2.4-1.8,6.1-1.9,9.4c-4-1.9-2.7-8.2-3.1-12.3c-6.3,5.1-6.7,15.3-14.4,19c1.2-6,4-11.5,3.3-17.8
	l-3,2.1c-0.3,3.9-0.4,7.9-2.4,11.4c-1.5-4.8-2.2-9.9-2.1-15.1c-3.3,3.9-5.5,8.4-8.8,12.3c-1.9,2.2-4,4.8-7.2,4.2
	c2.2-5.5,7.3-9.9,6.9-16.5c-3.6,3.6-4.8,8.7-7.6,12.9c-2.1-4.3-1.2-9.4-1.3-14.1c-6,4.8-9.9,15-18.6,14.4c4-5.4,8.8-10.6,9.9-17.7
	c-4.3,4-6.1,10-10.6,13.9c0.3-4,0.7-7.9,1-12c-3.4,1.3-6.4,3.6-9.4,5.7c-1.2,0.9-2.4,1.6-3.6,2.5c-0.7,1-3.4,1.8-4.8,1.2
	c-0.6-0.3-0.9-0.7-0.9-1.3c6-4.2,12.4-8.2,15.3-15.3c-4.8,3.4-8.7,7.9-13.6,11.2l1-6.6c-7.6,0.1-14.1,5.8-21.7,5.5
	c6.7-6,18.6-5.5,21.1-15.9c-7.3,6.4-16.5,10.2-25,14.5c-1.2-1.5-2.2-3.3-3.3-4.9c10.9-2.5,21.6-8.2,31.3-16.8
	c0.1,2.5,0.1,5.5,0.3,7.8c2.4-2.1,2.8-5.2,3-8.1c0-1,0.1-2.2,0.3-3.3c5.1-6.3,10.6-10,16-10.8c23.2,0,43.1,15.6,66.6,13.3
	C734.4,701.7,740.6,701.4,743.8,696.3L743.8,696.3z M638.6,630.8c0.9,0.7,2.1,1.8,3,2.5c-0.4,0.6-0.9,1-1.5,1.5
	c-1.6,2.1-3.3,4-3.9,6.7c-0.1,1-0.4,2.1-1,2.4c-0.3,0.1-0.6,0.1-1,0C631.1,639.2,635.4,634.7,638.6,630.8L638.6,630.8z M701.4,636.9
	c-8.8,5.7-21.3,6.6-34.1,2.7c-5.2-1.3-9.4-5.7-11.1-11.2c-1-4.8,4-7.5,7.8-9.7c7.6-3.7,15-5.7,21.6-5.7c8.8,0.1,21,3.7,20.8,14.4
	C706.4,631.4,704.4,635,701.4,636.9z M604.4,600.5c3.7,2.5,6.4,6.1,8.8,9.7c6,0.1,12-1.2,17.7-2.4c20.5-4.5,42.5-9.3,65.6-10h0.1
	c2.5-2.8,4-6.7,6.9-9.3c-0.3,3.7-1,7.3-0.7,11.1c1.6,3.9,4.2,7.2,6.4,10.6l-2.5,3.6c-7.9-6.6-19-7.9-33.8-4.3
	c-5.2,1.2-9.7,4.2-14.8,5.8c-1.6,1.6-3.1,3.7-4.9,5.2c-8.5-1.6-16-1.5-22.6,0.7c-7.3-3.7-13.3-5.4-20.2-4.6
	C610.7,610.6,606.1,606.1,604.4,600.5z M609.1,622.1l0.3-0.1c5.7-0.1,11.7-0.4,16.6,3c2.5,1.3,4.6,4.2,4.9,6.9
	c0.1,1.3,0,3.3-1.8,4.9c-6.9,7.9-18.6,5.7-23.6,4.2C606.8,634.7,607.4,628.4,609.1,622.1L609.1,622.1z M727,839.6
	c-2.7,3.6-8.1,9.3-15,8.4c-1.2-1.2-2.1-3.3-1.2-5.1c3.3-4.6,8.2-8.2,13.8-9.7C725.7,835.7,726.4,837.6,727,839.6L727,839.6z
	 M709.1,851.4c-5.7,4.5-9.9,10-15,15c2.1-10.2,5.1-19.8,7.6-29.6c6.6-4.6,12.1-10.5,19.2-14.8c-1,3.1-2.1,6.3-3.4,9.3
	c-0.9,1-1.9,1.9-3,2.7C707.3,839.4,708.2,843.3,709.1,851.4L709.1,851.4z M687.4,853.5c0.1-6.1-7.3-9.7-12.7-7.9
	c-2.4,1-4.3,2.8-6.4,4.3c-1.6-3.4-1.9-7.2-2.1-10.8c10.9-0.3,21.7-1,32.6-1.2c-3,10.3-6,20.8-8.7,31.3c-5.4,1.5-10.8,2.2-16,2.4
	c2.7-3.7,6-7,7.8-11.4c1.2-2.7,3.6-4.6,5.7-6.7L687.4,853.5L687.4,853.5z M726,830.9c-1.6-0.4-3.3-0.7-5.1-1c0.9-2.7,2.2-5.1,4-7.2
	C725.2,825,725.7,827.6,726,830.9z M596.4,628.5c2.2-1.2,4.6-2.4,7-3.6c-0.3,1.6-0.6,3.3-0.9,5.1c-0.4,2.8-1,5.7-1.5,8.7
	C596.5,636.8,596.2,631.7,596.4,628.5z M550.6,654.1c5.1-4.3,11.4-6,15.7-6.6c1.6,0.7,3.1,1.6,4.6,2.7c-2.7,3.9-6.4,6.9-10,9.9
	c-1.2,1-2.4,1.9-3.6,3c3,0.6,6.6,0.9,8.4,3.6c-6.6,2.5-13-3.9-19.5-0.9C547.1,661.8,547,656.8,550.6,654.1L550.6,654.1z
	 M545.8,656.5c-0.7,3.7-1.5,7.5-2.5,11.1c-1.8,0.7-3.9,1.2-6,1.3C537.8,664.8,539.8,657.9,545.8,656.5L545.8,656.5z M417.4,690.9
	c-3.3-0.9-6.6-1.9-7.6-5.2c-3-7.3-3-15.1,0.1-20.8c1.5-3.4,5.2-5.7,9.4-5.7c4.6,3,12.1,9.6,12.3,19.3c-3.6-0.3-7-0.9-10.6-1.2
	c-1.8,1.2-3.1,2.7-4.5,4.2c0.7,3.3,1.5,6.6,2.2,9.7C418.3,691.1,417.7,690.9,417.4,690.9z M423.4,691.8c-1.8-2.7-4.6-6.1-3.9-9
	c0.1-1,0.7-1.9,1.9-2.7c2.7,0.4,5.7,0.7,9.4,0.7c-0.1,2.2-0.3,4.6-0.3,6.9c0.6,0.9,1.8,2.5,2.5,3.6
	C429.9,691.7,426.6,691.8,423.4,691.8z M427.8,701.4c-1.2-0.1-2.5,0-3.7,0.4v-0.1c0-1.8,0.1-4.9,0.3-6.9
	C427.8,694.8,427.4,698.7,427.8,701.4L427.8,701.4z M457.6,756.3c-9.9-10.9-14.2-25.4-24.4-36.1c-5.4-1.9-12.9-1.5-16-7.2
	c4.2-8.2,15.6-9.4,24.2-6.4c18.3,7.8,23.5,28.4,37.9,40.3c-0.9,5.5-1.2,11.2-1.6,16.5c-0.1,2.8-0.3,5.7-0.6,8.5
	C469.2,768.9,463.3,762.5,457.6,756.3z M469.4,894.5c-6.9,0-12.7,0.9-17.8,2.8c-1.8,1.5-2.8,0-3.6-1.6c-4-6.6-10.3-12-18.3-14.8
	c-6.3-2.5-12.9-1.5-19.3-2.5c7-15.6,18.7-21.3,36.2-21.6C468.1,857.5,478.4,875.5,469.4,894.5L469.4,894.5z M507.9,932.4l-2.7-2.2
	c-0.1-4.8-0.3-9.1-2.5-12.7c-6.1-10.5-16.6-18.6-29.6-23.2c4-9.6,1-20.4-1.2-26c-3.7-9.3-13.6-12.4-22-16.5
	c-1-7.5-1.8-15.9-2.2-25.3c0.1-16.6,16.2-42.2,35.5-33.8c8.4,4.8,11.5,15.1,13.8,22.6c1.6,5.7,4.9,12,1.8,17.5
	c-6.6,1.9-13.6,0.6-20.4,1c0.9,0.9,1.9,1.9,2.8,3c7-0.9,14.4,1.5,20.8-2.7l4,18c-8.4,3.3-18.1,1.8-25-4.2c0-4.5,1-9.4-2.5-13
	c-3.1,12.6,2.7,24.7,5.2,36.8l-5.8,0.9c0.4,6.6,5.5,10.5,10.5,14.1c2.2,1.6,2.5,1.6,1.5,4.5c-2.1,4.8,1.8,6.1,5.1,8.4
	c0.1,1.6,0.4,3.6,0.9,5.7c0.9,1.2,2.1,1.8,3.3,2.4c1.8,0.9,3.4,1.6,3.4,3.7c0.3,3.6,3.4,4.9,6,6.6c0.1,1.2,0.4,3.3,0.6,4.3
	c2.2,2.5,4.8,5.1,6,8.4C512.9,931.5,510.3,931.8,507.9,932.4L507.9,932.4z M502.4,857.5l4.5-1.5c1.8,5.7,3,11.4,4.3,18.1
	c-3.1-0.9-7-0.9-9.4-3.3C502.5,867,502.7,862.9,502.4,857.5z M499.4,870.7c-1.2,0.4-2.5,0.3-4-0.6c-0.4-4.3-1-8.5-1.5-12.7
	C501,856.6,499.5,865.6,499.4,870.7z M491.6,870.4c-1.3,0-3.4,0-4.6,0.1c-1.3-5.1-2.1-10.3-3.4-15.4c2.7,0.7,6,1,7,3.9
	C491.6,862.6,491.3,866.7,491.6,870.4z M548.8,936.5c-7.8-3-15.7-4.2-23.6-6c-2.5-3.1-9.3-5.1-6.1-10l-0.6-0.1
	c-0.9-0.4-2.4-1-3.3-1.5c4.5-5.5-3.7-6-7.8-7c1.2-1.6,2.2-3.1,3.3-4.8c-3.1-1.9-6.7-2.5-10.3-3.6c-0.3-2.7,3.7-3.7,4.6-6.1
	c-3.6-1.8-7.3-3.1-11.1-4.5c3.3-1.9,7-3.6,8.8-7.2c-6.7-1.8-14.2-3.7-18.6-9.6c9.4-1.3,18.7-0.4,26.5,2.7c-1.9,9.7,0.9,21,8.4,33.2
	c2.4,3.7,5.8,9.1,11.1,7c-11.1-9.4-17.5-24.2-17.2-39.5c4.5,1.3,9.6,0.4,13.9,2.2c3.1,14.5,3.9,29.5,4.9,44.2c0.3,2.5,0,5.7,3.6,6.3
	c-0.3-20.2-2.8-40-4.2-60c-1.9-14.2,0-27.7,16.2-32.3c21.3,0.1,22.7,23.8,26.3,39.5c-0.7,1.2-1.6,2.7-2.5,4
	c-4.6,0.1-10.2,0.1-15.6-1.2c-2.8-0.6-5.8-1.8-8.5,0c-6,3.7-5.2,11.5-5.1,17.7C543.8,912.3,546.1,924.6,548.8,936.5L548.8,936.5z
	 M550.9,909c-7.9-7.5-4.6-20.1-3.3-24.2c8.8,0.1,17.7,4.6,26.2,0c1.2,8.7,4,17.1,3.4,25.7C569.7,915.4,557.6,916.3,550.9,909
	L550.9,909z M571.8,926.1l-0.1,0.4c0.4,3.1-1.5,5.5-3.3,7.2c-1-5.7-2.2-10.5-3.4-14.8c1.5-0.1,3.9-0.1,5.2-0.3
	c0.4,1.9-0.7,6.1,2.7,5.7c0.9-2.2,1-4.5,0.6-6.7c1.8-0.7,3.9-1.6,6.1-2.2C580.4,920.2,576.9,925.6,571.8,926.1L571.8,926.1z
	 M582.7,917.8c-1.9-6.9-2.2-13.9-3-20.8c-0.9-5.1-1.6-10.2-2.4-15.1c-1.5-10.5-3.1-21.4-6.7-31.6c-2.2-6.3-7.6-10.3-12.9-13.5
	c5.7-10.6,12.1-17.2,19.9-19.8c4-1.6,9.6-0.7,11.8,3.4c3.4,6.1,4.6,13.2,6.1,20.1c0.1,2.1,1.6,5.1-0.6,6.3
	c-4.5,3.1-11.1-1.6-15.3,2.8c-4.2,4.5-3.9,11.2-3,16c1.9,7.8,4.2,15.6,6.4,23c2.2,7.8,4.8,16,6.6,24.1
	C587.5,914.5,585.3,916.2,582.7,917.8L582.7,917.8z M593.5,911.4c-2.1-8.8-4.8-17.8-7.3-26.3c-1.9-6.3-3.9-12.6-5.5-19
	c-1.3-4.5-1-9.6,0.7-14.2c5.7-0.7,11.2-0.7,16.8-1.9c3.6,20.4,8.1,40,11.7,60.3C604,909.2,598.5,909.6,593.5,911.4L593.5,911.4z
	 M612.5,900c-3.6-21.1-8.4-41.6-12.7-62.4c-1.6-7.2-3.1-14.8-7.5-21.1c-2.7-3.3-6.4-4.3-9.6-4.2c-14.7-0.1-22.7,12.3-28.3,23
	c-9.9-0.3-19.8,5.5-25,14.7c-1.3,2.5-3.6,4.5-5.7,6.4c-2.4,2.1-4.8,4.3-6.1,7.3c2.1,0.9,4.2,1.6,6.3,2.5c-1.2,2.8-5.7,6.4-1,8.4
	l1-1.5c0.7-1.9,1.8-3.7,3.6-5.7v4.3l-2.2,1.3c0.3,1.5,1.3,2.4,2.2,3.3c-2.1,0.1-4.2,0.1-6.3,0.3c-11.2-24.1-10.9-51.2-21.4-75.6
	c-4-8.4-11.5-13.5-17.2-16.2c1.6-9.4,1.8-18.7,2.5-28c1.6,0.9,3,2.1,4.3,3.3h5.7c3.3,8.2,8.4,15.6,13.2,22.7
	c5.1,7.2,8.2,15.4,18,15.9c7.3,8.5,14.4,14.1,22.6,15.6c5.7,0.7,12.7,1.3,16.8-3.9c-6.7,0-13.6,1.6-19.9-1.2
	c-11.8-5.7-21.3-15.9-25.7-27.8c-2.2-6-2.1-12.6-5.7-18.1l3.6-3.3c6.1,0.1,11.1,3.3,16.2,6.6c4,2.5,8.4,5.4,13.3,6.3
	c10.3,2.5,22.2-1.2,29.9-9.4c-0.3-1-0.7-2.7-1-3.9c-6.3,4.9-12.3,11.5-20.8,11.7c-6.7,0.3-12.4-3.3-17.8-6.6
	c-3.3-2.1-6.7-4.2-10.5-5.5c-5.5-1-5.7-7.8-7.3-12.3c0.7-0.9,1.9-2.5,2.8-3.6c-0.1-2.7-0.3-5.5-0.4-7.8v-0.1l-0.1-0.1
	c-2.2-2.1-4.6-4.2-6.9-6.3c-3.7,0.1-7.5,0.1-10.9,1.9c0.6-4.9,1.2-10.2-0.6-15c-1,5.2-1.3,10.5-1.9,15.7c-2.7-0.1-5.7-1-8.4,0.1
	c-2.8,2.1-4.2,5.4-4.2,9.4c-1,1.5-2.1,3.1-3.1,4.8c-1.3-18,1.2-35.6,2.5-53.4c0.3-7.5,2.5-14.7,2.4-22.2c2.1,2.1,3.9,4.8,5.1,7.9
	c22.7-5.2,45.9-4.9,69-6c6.4,0,12.6,1.6,19,0.4c1.3-2.2,0.9-6.9,4-7.2c0.1,4.2-0.7,8.8,1.9,12.6c6.3,9.1,6.7,20.5,9,31
	c1.6,8.7,0.3,17.5,1,26.3c0.7,10.5,1.9,21.1,1.5,31.9c0.7,21.6,3.3,42.8,4.6,64.2c0.9,13,1.8,26.3,4.3,39.4c0.1,5.4,1,10.6,1.9,15.9
	c0.9,6.1,1.9,12.6,1.9,19C613.6,904.1,612.8,902.1,612.5,900L612.5,900z M526.9,863.8c-2.2-0.4-4.2-1-6.1-1.6c1.9-1.6,3.9-3,6-4.3
	C526.9,859.9,526.9,861.9,526.9,863.8L526.9,863.8z M491.2,738.7c1.8-4,5.7-6.4,10-4.9c-1.3,2.5-3,5.1-3.4,8.1
	c0.4,3.4,2.2,6.3,3.7,9.3c-3.1,3.7-6.3,7.9-11.7,6.9c-1.2-2.5-2.8-5.2-1.9-8.2c0.6-6,6.6-8.7,10-13
	C495.6,737.3,493.1,738.1,491.2,738.7L491.2,738.7z M509.4,765.6c1.5,0.7,3,1.3,4.5,2.1c0.7,4.8,1.2,9.6,2.7,14.2
	c1.2,4,3.7,7.5,4.6,11.7c-2.8-2.2-4.8-5.4-6.7-8.4c-0.9-1.5-1.9-3.1-3-4.5c-4.8-6.7-8.5-13.8-12.9-20.7c2.7-8.1,11.5-10.9,19.2-10
	c0.6,2.2,1.3,4.9,2.2,7.6c-5.1-0.1-8.5,4-10.9,7.6L509.4,765.6L509.4,765.6z M516.6,747.5c-4.8,0.4-8.7,0.9-12.1,1.6
	c-1.6-2.5-4-5.5-3.3-8.7c1.3-3.1,3.6-5.8,5.4-8.7c2.2-0.1,4.5-0.6,6.7-0.3c3.3,1.6,5.1,5.1,6.9,8.2C519,742.3,517.8,745,516.6,747.5
	L516.6,747.5z M658,930c-6-3.7-13.5-3.7-19.8-0.1c-4.3-8.8-10.8-14.8-18.4-17.1c-1-7.9-3-15.7-3.3-23.8c-0.3-8.2-3.1-16-3.3-24.2
	c11.4-2.2,20.8,8.7,22.4,19.5c-3.3,1.2-6.1,3.6-8.4,6.4c11.1-2.2,15.1-4.9,24.7,3.6c-3.4,1.9-6.1,6.3-10.5,5.7
	c-3.7-0.7-6.1,2.2-7.8,4.6c4.6,0.3,10.5-1.9,13.6,2.5c-0.3,1.3-1.6,2.1-3,2.8c-1.8,0.9-3.7,2.2-3.9,4.8c4.3-1.3,9.6-1.9,15.1-1.9
	c-1.8-1.6-3.7-3.3-5.7-4.8c-0.9-2.5-1.9-4.9-2.8-6.9c6.1-5.1,13.6-2.1,18.7,1.9c-1.3-2.4-2.7-4.5-4.5-6.7c-3.9-0.3-6.9-2.8-9.1-7.9
	c12.1-2.8,18.9-0.1,27.4,8.1c1.6,1.5,3.3,3,5.1,4.3c0.1-7.6-6.4-11.7-12-15.1c7.3-5.5,17.5-6.9,26.2-3.3
	c8.7,3.9,12.6,12.7,14.1,18.1C686.3,892.2,668.8,908.1,658,930L658,930z M729.4,912.9c-3.7-4.3-8.2-7.6-12.7-11.1
	c-1.5-9.7-7.8-21.1-19.2-24.5c-9.1-3.1-20.4-0.9-29.2,5.8c-2.1,0.4-4.3,0.4-6.4,0.6c-3.9,0.1-7.9,0.3-11.4,2.8
	c-3.7-1.6-8.1-2.8-12.9-3.7c0.4-10.9-8.1-19-16.5-22c3.7-34.3,15.6-64.2,34.6-86.7c-2.7-3-5.5-6.6-5.1-11.1c4.5,0.4,7.2,4.2,10,7.5
	c15.4,0,30.5-3.6,46.1-1.6c-1.6-3.9-6.6-8.5-2.7-12.4c3.7,2.1,7.9,5.8,7.6,11.2c3.7,3.3,8.4,8.7,9,15.6c0.3,5.1,0.7,10,1.2,15.1
	c0.3,5.1,0.7,10.2,1.2,15.3c-0.3,1-1,2.7-1.5,3.9c-2.8-1.6-5.5-3.1-8.2-4.8c1.6,1.9,3.3,4,4.9,6c-4.5,3.6-9.3,6.7-13.2,10.9
	c-0.6-0.6-1.2-1-1.8-1.5c3-3.1,4.8-6.1,6.4-9.7c-3.3,3.1-6.3,6.6-9.4,9.9c0.1,1,0.4,2.7,0.6,3.9c-1.8-0.1-3.6-0.4-5.4-0.6
	c0,0.9,0.1,1.8,0.3,2.8c-9.1,0.1-18.1,0.3-27.1,1.2c-1.3,0.1-3.4,0.3-4.5,1.5c-0.4,0.4-0.6,1-0.4,1.8c0,4.5,1.2,8.8,2.4,12.1
	c-5.5,4-10.5,9.9-17.8,10.2c-3.4-3.4-7-6.1-10.9-8.4c1.5,4.8,5.2,9.3,9.4,11.1c7,3.3,13.3-2.8,18.4-6.9c3.4-2.8,7-5.8,11.4-7.5
	c2.1-0.9,4.3-0.3,6.9,1.5c-3.7,4-4.8,9.6-8.7,13.5c-4.3,4.8-11.4,5.5-16.3,9.7c4.5,2.4,8.7,0,12.4-1.9c1,1.6,1.9,2.8,2.7,4
	c7.8-2.5,18,0.7,23.6-6.7c4.5-5.8,9.9-12.3,16.5-16.9c6.6-0.7,12.3-4.5,15.4-10.3c7.3,30.4,12.4,60.5,19.5,90.8
	C740.3,928.5,735.6,919.9,729.4,912.9L729.4,912.9z"/>
<path d="M652.9,607.3c-2.5-1.3-5.4,2.7-3.3,4.6C652.2,613.3,655.2,609.2,652.9,607.3z M641.4,613.6c2.5,1.2,4.5-2.8,2.8-4.8
	C641.6,606.7,639,612.1,641.4,613.6z M630.8,613.7L630.8,613.7c-2.8-1.1-3.7,0.2-2.8,2.7C630.3,617.5,632,616.6,630.8,613.7z
	 M688.9,619.6c-0.1,3.1-1,6.1-3,8.8c-3.4-1.8-5.8-4.3-6.7-7.5l-3.3-2.1c1.6,4.9,3.3,11.4,9,13.5c5.5,0.1,6.3-6.6,6.9-10.5
	c-0.4-0.3-0.9-0.6-1.3-1C689.8,620.3,689.3,620,688.9,619.6L688.9,619.6z M674.2,627l-1-0.7c1.5,5.8,6.6,10,13,10.8
	C682.7,633.2,678.5,630.2,674.2,627z M622.1,635c0.6,1,1,2.2,1.6,3.3c1.5-0.6,3.6-1.5,5.1-2.1l-4.9-2.7c1-2.2,2.2-4.8,3.1-6.9
	c-2.4,2.2-4.2,5.2-7.2,6.7c-1-1.6-2.4-3.6-3.6-5.5C614.3,632,617.5,636.5,622.1,635L622.1,635z M711.8,640.2
	c-0.9,3.7,1.2,6.9,6.1,9.1l0.9,0.4C717.3,646.2,716.1,641.4,711.8,640.2z M706.8,648.1c1.3,1.8,2.7,3.7,4.5,5.5l0.3,0.1
	c1-0.7,2.4-1.5,3.4-2.2c-1.6-1.8-3.3-3.7-4.9-5.5C709.2,646.6,707.9,647.5,706.8,648.1L706.8,648.1z M606.5,658.8
	c2.7,1.8,5.7-2.8,3.4-4.9C607.3,651.9,604.1,656.7,606.5,658.8z M731.5,670.6c-2.7-6.7-7.5-11.8-11.5-16c0,6.4,3.7,13.9,10.8,15.9
	L731.5,670.6z M608,664.9v0.3c2.5,0.6,6.6-1.8,6.3-4.8C611.8,658.8,607.6,662.4,608,664.9z M674.9,661.6c-1.5,1.3-3.3,2.7-4.8,4
	c-5.7,0.4-11.5-0.3-17.2-1.2c2.4,4,6.6,5.5,11.1,5.4c4.2,0,8.4-1.2,11.4-2.2C675.2,666,675.1,663.3,674.9,661.6z M715.2,662.8
	c0.3,6.4,5.1,12.4,11.1,13.9c-1.3-5.2-4.8-9.6-10.3-13.5L715.2,662.8z M419.6,666.9c-2.1-0.6-4.3-1.2-6.6-1.8
	c-0.9,3.4,2.1,4.3,4.5,5.2C418.1,669.2,419,667.9,419.6,666.9z M648.7,666.7c-5.1,2.7-10.6,0.4-15.9,0c3,3.7,7.2,5.8,11.7,5.8
	c1.5,0,3.1-0.3,4.5-0.7C648.9,670.3,648.9,668.2,648.7,666.7z M618.7,668.3c1,2.2,3,3.9,5.5,4.5c3.3,0.6,7-0.4,9.6-2.8l-3.3-2.7
	C626.9,669.5,622.7,668.8,618.7,668.3z M709.2,671.5h-0.6c1.9,5.1,6.6,9,12,9.7C718,676.6,714.4,671,709.2,671.5z M649.8,677.6
	c4-0.4,9.9,1,10.2-4.9c-3.4,0.4-6.7,0.9-10.2,1.2V677.6z M660.3,678.4c4.8,3.3,12.4,1.9,12.7-4.6c-3.4,2.4-7.5,4-11.5,4.5
	L660.3,678.4z M640.1,674.9c-4.2,1.2-8.4,1.6-12.6,1.3c2.1,5.2,7.6,5.1,12.7,3.4L640.1,674.9L640.1,674.9z M611.2,676.7l0.1-0.4
	c-4.3-1-5.7,3.6-6.7,6.7C607.7,682.1,610,680,611.2,676.7L611.2,676.7z M638.4,684.2l-1,0.7c4.6-0.1,11.7,2.2,13.3-4
	C645.9,680.9,641.6,682,638.4,684.2z M607.4,689.1l-0.3,0.9c4-2.4,7-5.8,8.5-10C611.6,681.7,608.5,685,607.4,689.1z M588.3,681.1
	l0.1-0.6c-3.3,0.4-6.1,2.5-7.9,5.7C584.4,686.3,587.7,684.4,588.3,681.1L588.3,681.1z M583,693.8c3.3-1.6,7-3,8.7-6.6
	c-3,0.7-6,1.6-8.7,2.5V693.8z M566.1,688.1l-0.3-2.1l-0.6,1c-1.9,3.4-0.4,9.9-5.2,10.9c-4.2-1.6-2.2-7.8-3.6-11.4
	c-2.1,2.5-3.1,6.3-2.4,9.4c0.6,3.1,3.9,6.6,7.2,5.8c2.1-0.7,3.3-3.4,4.2-5.7C566.9,693.8,566.6,690.8,566.1,688.1L566.1,688.1z
	 M540.2,705.2c-1.6,6.1-7.8,10.5-15,10.2c-4.3-2.2-5.8-6.7-6.3-9.4c4.9-0.4,10.3-0.7,14.1-4.5c0.1-6.3-8.2-5.1-12.6-4.3
	c1.5-1.6,3.1-2.7,5.1-3.4c-0.9-0.6-1.9-1.3-3-1.9c1.2-1.8,4.2-2.2,5.8-3.6l1-0.7c-3.1,0.3-6.3,0.4-9.3,0.9v6.3l-1.2-0.6
	c-1,7.3-3.4,15.6,0.6,22.3c6.4,4,15.6,0.1,19.8-3c1.9,1.2,3.9,2.2,5.8,3.4c-1.6-3.4-3.6-6.7-4.6-10.2L540.2,705.2L540.2,705.2z
	 M608,696.5l-0.7,1c5.1-1.2,9.6-4.9,12.4-9.9C615.1,689.3,611.2,692.1,608,696.5z M509.4,693.2c-1.6,3.1-3.3,6.3-7.2,6.4
	c-0.6-3.6-1.2-7.2-1.9-10.6c-1.2,3.6-1,7.3-0.7,10.9c1.5,1.6,3.1,3.3,4.6,4.9c6.4-3,6.7-9.7,6.7-14.4
	C510.5,691.4,509.9,692.4,509.4,693.2L509.4,693.2z M658.9,698.1l-0.3,0.4c4.2,2.1,7.6-1.6,8.8-6C664.2,693.3,661.5,695,658.9,698.1
	z M580.9,699c4,0.6,7.9,0.6,11.2-2.8l0.4-0.4C588.3,694.5,583.8,695.7,580.9,699L580.9,699z M565.7,704.6c3.9-0.6,9.7-5.2,6.3-9.4
	C569.7,698.3,567.8,701.4,565.7,704.6z M473.2,812.3c-4.9-2.1-3.1,6.3,0.1,6.1c1,0,1.8-0.9,1.9-1.8
	C475.5,815.1,474.3,813,473.2,812.3z M459.2,816.7c1,0,1.8-0.9,1.9-1.8c0.3-1.5-0.9-3.6-2.1-4.3
	C454.1,808.5,455.9,816.9,459.2,816.7z M696.3,708.3l-0.7,1c4.8,2.1,6.7-2.7,8.7-6.1C700.5,702.6,698.1,705.6,696.3,708.3z
	 M734.2,706.7c-2.8,1-4,3.7-4.9,6.4C732.9,712.8,736,710.1,734.2,706.7z M713.6,714c2.7,0.3,4.2-3.9,2.5-5.8
	C712.7,705.5,709.8,712.9,713.6,714z M561.8,778.2c0.7,2.8,7.3,2.4,6-1.3C566.4,774.9,561.5,775.1,561.8,778.2z M677.6,812.3
	c-0.9-1-1.8-1.9-2.7-3c0.7-1.2,1.6-2.5,2.4-3.6c-7.3,0.4-13.8,0.6-20.1,0.3c0.4,3.7-0.1,7.8,2.1,11.1c2.1,0,4-0.9,6-1.3
	c0.9,0.6,2.5,1.6,3.4,2.2l4.3-4c2.8,1.8,6.3,1.3,9-1.3c1,0.3,2.5,0.6,3.6,0.9c-0.7-0.7-1.9-1.5-2.2-2.5c3.7,2.5,12.3,7,19.5,2.7
	c3.9-7,1.5-15,0.4-22.3l-1.2,0.6v-6.3c-3.1-0.3-6.1-0.7-9.3-0.9l1,0.7c1.6,1.3,4.6,1.8,5.8,3.6c-1,0.7-2.1,1.3-3,1.9
	c1.9,0.7,3.7,1.9,5.1,3.4c-4.3-0.7-12.7-2.1-12.6,4.3c3.7,3.7,9.1,4,14.1,4.5c-0.6,2.8-2.1,7.3-6.3,9.4c-5.1,0.1-9.9-1.9-12.7-5.5
	v-0.9c-0.3-1-0.3-1.9-0.1-3c-0.4,0.1-1,0.1-1.6,0.3l-0.4-1.2l-0.3,1.3c-1.9,0.3-3.4,0.6-5.1,0.7c1.2,0.7,2.5,1.8,3.9,2.7
	C679.6,808.9,678.7,810.7,677.6,812.3L677.6,812.3z M658.8,799L658.8,799c4.4-2.6,6.7-7.8,6.2-13.4c-2.2,2.7-4,5.5-6.3,8.2
	c-3,0.3-4.3-3-6.1-4.9C652,793,654,796.3,658.8,799L658.8,799z M709.7,791.7L709.7,791.7c3.2-1.8,4.6-5.6,4.3-9.3
	c-1.5,1.8-2.8,3.9-4.3,5.7c-1.9,0.1-2.8-2.2-4.2-3.4C705,787.5,706.4,789.9,709.7,791.7L709.7,791.7z M485.5,848.7
	c3,0,2.8-4.5,0.9-5.8C482.5,841.1,482.5,848.4,485.5,848.7z"/>
<path d="M463.2,813.5c-1.6,1.2-2.5,3.1-3.6,4.8c-3.1,0.1-6.4,0.1-9.6,0.1c2.2,2.4,5.4,3,8.2,3c0,3.4,0.3,7,1,10.6
	c4.5-1.2,6.1-5.5,7.9-9.3c-0.4-1-0.9-2.2-1.3-3.4L463.2,813.5L463.2,813.5z M463.3,822.2c-0.7,1.6-1.2,3.4-1.5,5.2h-0.1
	c-0.9-1.5-0.9-4.9-0.1-6.6c0.6-1.2,1-1,2.1,0.3L463.3,822.2z M524.2,887.6c-2.5-0.7-5.4-1.8-8.2-2.4c0.4,2.4,2.8,5.4,5.4,5.4
	C522.3,890.6,523.8,889.8,524.2,887.6z M498,849.1c2.4,0,3.4-4.2,1.5-5.5C495.9,841.2,494.1,849,498,849.1z M526.5,898.2l-0.3-4.6
	c-1.8,0.3-3.7,0.6-5.7,1c0.6,2.8,3.3,3.1,5.5,3.4L526.5,898.2L526.5,898.2z M525.6,900.3c-2.1,0.1-3.4,2.5-1.8,4.2
	c0.4,0.7,1.2,1.2,2.1,1.2c1,0,2.1-0.7,2.5-1.6C529,902.4,527.4,900.2,525.6,900.3L525.6,900.3z M557.6,893.1c-0.1,2.7,0,5.7,0.9,8.5
	C563.1,899.9,561.5,894.8,557.6,893.1z M565.4,893c-0.7,2.5-1.6,5.2-0.9,8.1C569.1,900.2,568.8,895.2,565.4,893z M544.4,865l0.3,0.3
	c1.5-1.3,2.8-2.8,4.3-4.2c0-2.1-0.1-4.2-0.1-6.3c-0.7,0.1-1.6,0.1-2.4,0.3c0,1.3,0.1,3.7,0.3,5.2c-2.7-0.9-5.2-1.9-7.9-2.7
	C540.5,860.4,542.6,863.1,544.4,865L544.4,865z M578.7,831.3c0.4,1,0.9,1.9,1.3,3c3.6,0.3,6.9-1.8,8.7-4.9c-1.9,0.6-3.9,1.2-6,2.1
	l-2.4-4.8c-0.7,0.6-1.9,1.5-2.7,2.1C578,829.5,578.3,830.4,578.7,831.3L578.7,831.3z M640.2,817.1c1,0.4,2.1,0.1,2.7-0.6
	c1.6-2.1-1.2-4.9-3.4-4.2C636.8,813.2,638.3,816.2,640.2,817.1z M662.4,818.3c3.4,4.3,7.9,3.1,12.7,3c5.8-0.4,12.3-1.2,15.9-6.4
	c-2.5,0.6-5.2,1.2-7.8,1.9C676.4,818.6,669.4,820.3,662.4,818.3L662.4,818.3z M568.8,834.8c-3.4,0.4-5.5,0.1-5.5-3.6
	c-7.5,6.1,6.4,5.4,3.1,11.2h1.3v1.9c2.7,0,5.5,0,8.2,0.1c-0.4-4.2-0.6-8.5-1.6-12.9C571.4,830.1,570.3,833.1,568.8,834.8z
	 M568.4,842.3c0.4-2.8,1.6-4.9,3.3-5.8c0.3,1.8,0.4,3.7,0.6,5.7C571.2,842.1,569.4,842.3,568.4,842.3L568.4,842.3z"/>
<g>
	<path d="M1903.9,908c-89.5-42.6-261.3-12.2-262.9-11.9l-1.5,0.3l-1.5-0.4c-61.8-18.2-114.8-16.3-148.3-11.5
		c-36.3,5.2-58.1,14.7-58.3,14.8l-2,0.9l-2.2-0.7c-73.3-23.8-149.3-3.6-150-3.4l-1.3,0.4l-1.5-0.2c-161.7-26.7-193.1-1.7-193.4-1.4
		l-6.2,5.3l-0.6-6.3c-0.6-7-46-21.3-74.4-28.6l3.1-3.6c11.6,3,64.7,17.1,76.5,28.3c13.2-6.5,59.8-20,195.8,2.3
		c10.8-2.6,83.1-18.9,153.7,3.2c6.4-2.6,27.3-10.2,59-14.7c34.5-4.9,88.9-6.9,152.2,11.5c8.3-1.4,48.8-8,98.1-10.1
		c73.2-3.2,132,4.8,170.5,23.1L1903.9,908L1903.9,908z"/>
</g>
<g>
	<path d="M892.3,907.2c0.6-0.2,1.2-0.2,1.8,0c0.5,0.2,0.9,0.5,1.4,0.7l-5.1-3.6C891,905.4,891.7,906.3,892.3,907.2L892.3,907.2z"/>
	<path class="st1" d="M757.3,939.5c0.2-8.6,0.1-17.3-1.2-25.8c-1.9,3.2-3.7,6.3-5.5,9.6c-1.3-0.1-1.5-0.2-2.8-0.3
		c-2.4-7.8-4.6-15.7-3.6-24c-3.2,0.1-6.3,0.3-9.5,0.4c7.9-10.9,14.2-23.6,15.1-37.2c1.1-12.7,6.2-25.1,4.3-38
		c-1.9-7.6-5.6-14.7-7.3-22.4c-5.1-24.3-4-49.4-1.1-74c-4.2-5.1-12.4-4.6-18.6-5.7c0.5-1.1,1.4-3.4,1.9-4.5
		c-2.9-2.8-7.3-4.9-8.1-9.2c-0.1-0.7-0.3-1.4-0.4-2c-3.5-7.7-4.4-18-3.8-29c-0.9-15,0.2-30.1,3.9-44.7c2.8-8.9,7.2-17,12.5-24.5
		c1.5-2.1,3-4.1,4.7-6c-0.8-4.8-1.5-9.6-1.2-14.6c0.1-1.1-0.2-1.9-0.6-2.6c0.8-0.2,1.6-0.4,2.3-0.6h0.1c-0.5-4.8-1.3-9.6-1.9-14.4
		c2,1.9,4,3.7,6,5.4c4.1,3.5,10.1-2.5,6-6c-9.9-8.4-18.5-18.2-26.2-28.6c-5.3-7.2-10.3-14.6-14.8-22.3c-0.5-2-0.9-4-1.4-5.9
		c0.6-0.9,0.8-2,0.4-3.4c-0.8-2.2-1.5-4.4-2.1-6.6c-0.2-1.5-0.3-2.9-0.3-4.4c-0.3-0.1-0.6-0.2-0.9-0.4c-2.5-9.9-4-20.1-4.7-30.3
		c4.2-11.8,10.4-23.2,13.3-35.4c0.5-2-0.4-3.6-1.8-4.5c4.2-4.3,8.1-8.7,10.4-14.3c6.8-14.1,3.6-30.1,6.4-45c0.6-3.8,1.8-7.4,3.2-11
		c-0.4-0.3-0.8-0.5-1.2-0.8c0.1-1.3-0.1-2.6-0.5-3.9c-0.1-0.2-0.2-0.4-0.2-0.6c-1.1-1.6-2-3.8-2.6-4.9c0-0.1-0.1-0.2-0.1-0.3
		c0,0,0.1-0.1,0.2-0.1c-0.1,0-0.1,0-0.2,0.1l-0.6-1.2c-0.5-0.7-1.1-1.3-1.7-2c-1.3-1.3-2.6-2.4-3.3-3.3c-1-1.2-1.9-2.5-2.7-3.8
		c-0.6-2.4-1-4.8-1.4-7.3c-0.9-1.9-1.5-4-2-6.1c-1.4-7.6-1.2-16.7,2.9-23.5c2.4-9.5,7.2-18.2,15-24.9c0.2,0.1,0.5,0.2,0.7,0.3
		c-0.2-0.1-0.3-0.2-0.5-0.4c9.8-1.6,21-5.5,30.3-0.1c4.2,2.1,8.4,4.7,13.2,3.8c1.2,0.6,3.5,1.8,4.7,2.4c3.1,4.2,6.2,8.4,9.2,12.7
		c32.2-16.1,70.1-21.1,105.3-13.2c1.8,1.2,4,1.9,6.8,1.9h0.7c0.9,0.3,1.8,0.5,2.7,0.7v-1.1c2.2-0.6,4-1.7,5.3-3.1
		c4.5-1,7.3-4.1,8.5-7.8c6.2-4.9,13.1-8.9,20.3-12.2c8.1,1.5,17.6,2.6,23.7,8.2c1.6,0.3,2.7,1.2,3.5,2.3c0.4,17.4-3,34.6-5.4,51.9
		c-2.8,3.7-6.1,7.1-10.2,9.7c-4.5,2.9-0.3,10.3,4.3,7.3c1.5-1,2.9-2,4.3-3.1c-0.7,8.5,0.1,17,3.2,25c3.7,9.4,9.3,17.9,14.4,26.7
		c1,1.8,2.7,2.3,4.2,2c3.1,2.8,6.5,5.2,10,7.6c2.5,0.4,5,0.9,7.5,1.3c0.1,1.4,0.1,2.8,0.2,4.1c0.4,0.3,0.7,0.5,1.1,0.8
		c2.4,2,4.9,4.1,7.3,6.2c1.6,4,2.9,8.2,4.2,12.3c-0.2-0.1-0.5-0.2-0.7-0.4c0.3,0.5,0.6,0.9,1,1.4c3.6,12.6,6.1,25.8,7.3,39.2
		c-1,9.3-1.2,18.7,0.1,27.9c-0.2,2.2-0.4,4.3-0.6,6.4c-0.3,2.3-0.6,4.6-1,7c-5.3,11.7-12.5,22.9-22.6,30.8c-4.3,3.4,1.7,9.3,6,6
		c1-0.8,2-1.6,3-2.5c-7.1,8.6-15.6,16.6-18.6,27.7c-0.6,2.2,1,4.6,3.1,5.3c-0.3,2.4-0.7,4.9-0.9,7.3h0.1c1.3,0.4,2.6,0.8,4.1,1.2
		c-0.8,1.3-1,2.8-0.6,4.5c5.6,5.7,10.7,11.8,14.4,18.9c13.7,24.2,16.1,54,7.8,80.3c-1.8,6.3-6.1,11-10.5,15.4
		c-2.2,3-4.8,5.8-7.7,8.6c6.5,26,8.1,53.6,2.9,80c-1.7,10.4-10.1,19.1-8.5,30.1c-0.2,16.5,7.4,31.6,11.6,47.2
		c2.8,10.5,6.8,20.7,10.3,31.1c-3.1-2.7-6.2-5.5-9.3-8.2c0,6.3-0.1,12.5-0.5,18.8c-3.9,6.1-5.2,13.2-5.8,20.3
		c8.9,0.3,18.4-0.3,26.4,4.5c9.2,6,16.9,14.5,21.3,24.5c3.5,15.2,8.6,30.9,4.9,46.5c-8.1,11.9-23.8,13.9-36.5,18.3
		c-13.7,5-28.4,4.7-42.4,8c-25,3.4-47.5-10.4-71.3-15.2c-6.3-7.3-14.8-12-22.3-17.9c-9.9,8.5-19.8,17.7-32.3,22
		c-17.6,6.2-35,13-53.2,17.4c-22.2,4.9-43.7-5-65.4-7.7c-8.5-5.4-22-8.6-23.1-20.5c-0.1-15.9,4.8-31.5,10.8-46.1
		C723.5,947.1,740.4,938.9,757.3,939.5L757.3,939.5z"/>
	<path d="M941.9,373.7c-14.1,8.1-30.2,9.8-45.4,11.5c-5.8-14.1,6.3-11.8,11-13.7c13.9-2.8,26.9-9.5,39.7-16.1
		c2.2-1.4,4.3,0.9,6.3,1.8c0.9,5.1-0.3,10.2-2.6,14.2C948,372.8,944.7,371.9,941.9,373.7L941.9,373.7z M917.1,518.3
		c0.1-0.1,0.1-0.3,0.2-0.5C917.2,518,917.2,518.2,917.1,518.3z M820.1,535.6c7.7,14.9,20.2,27.1,37.4,28.8
		c11.2,0.7,21.3-2.3,29.9-7.8c-9.2,6.9-20.3,10.7-33,10c-16.8-1.7-29.2-13.4-37-28C818.4,537.7,819.3,536.7,820.1,535.6L820.1,535.6
		z M812.5,541.9c-0.1-0.3-0.2-0.5-0.3-0.8c0.9-0.2,1.8-0.5,2.6-0.9C814.1,540.9,813.3,541.5,812.5,541.9z M905.7,544.4
		c-1-0.8-2-1.6-3-2.5c0.7-1,1.5-2,2.1-3.1l0.1,0.1c1.2,1.2,2.5,2.2,3.8,3.2c-5.5,9.2-12.9,17.3-22.3,23.5
		C894.4,559.9,900.8,552.6,905.7,544.4L905.7,544.4z M870.6,540.3c-7.9-0.5-17-0.1-23.1-6.2C855.4,533.7,865.6,532.8,870.6,540.3z
		 M875.6,519.5c-15.6,1.5-31.1,0.9-46.5-1.4c-3.9-0.6-2.2-5.2,1.6-4.6c11.6,1.7,23.2,2.4,35,1.9c6-0.3,12-0.8,18-1.7
		c4-0.5,9.3,0.3,9.2-5.3c0.6-3,6.5-1.7,5.9,1.3C898.8,520.7,883.2,518.2,875.6,519.5z M827.9,316.9c3.6-0.5,7.2-1.2,10.9-1.5
		C835.4,316.9,831.7,317.2,827.9,316.9z"/>
	<path d="M691.3,491.8c3.1,1.2,6.3,2.4,9.5,3.6c0.6,13.1,5.9,25.4,7.1,38.4c1.1-0.3,3.3-0.9,4.4-1.3c4.9,7.2,9.6,14.9,14.7,22.2
		c-1,0.2-2,0.3-3,0.5c-0.6,0.5-1.2,1-1.7,1.5c2.2,0.3,4.6,0.3,6.7,0.8c1.5,2,3,4,4.6,5.9c0.6,6.3,1.7,12.5,2.5,18.7H736
		c-0.7,0.2-1.5,0.4-2.3,0.6c0.5,0.7,0.7,1.6,0.7,2.7c-0.3,5,0.5,9.9,1.3,14.7c-1.6,2-3.2,4-4.7,6.1c-5.4,7.6-9.8,15.8-12.5,24.8
		c-3.7,14.8-4.6,30-3.6,45.2c-0.5,11.1,0.5,21.4,4.1,29.2c0.1,0.7,0.3,1.4,0.4,2.1c0.8,4.3,5.4,6.3,8.3,9.2
		c-0.5,1.1-1.4,3.4-1.9,4.5c6.2,1.1,14.5,0.5,18.8,5.7c-2.8,24.8-3.8,50.1,1.6,74.6c1.8,7.7,5.6,14.8,7.5,22.5
		c1.2,7.7-0.1,15.3-1.5,22.8c-2.8,8.7-4.5,17.2-4.3,26.2c-2.6,9.7-7.5,18.8-13.3,26.9c3.2-0.1,6.4-0.3,9.6-0.5
		c-0.9,8.3,1.3,16.3,3.8,24.2c1.3,0.1,1.5,0.1,2.8,0.3c1.7-3.3,3.6-6.5,5.5-9.7c1.3,8.6,1.5,17.4,1.4,26.1
		c-17.1-0.4-34.1,7.9-45.8,20c-5.9,14.8-10.7,30.6-10.6,46.6c1.2,12,14.8,15.2,23.4,20.6c22,2.6,43.7,12.4,66.1,7.3
		c18.3-4.5,35.8-11.6,53.6-17.9c12.6-4.4,22.6-13.8,32.5-22.4c7.6,5.9,16.2,10.6,22.6,17.9c24,4.7,46.8,18.4,72,14.8
		c14.1-3.5,29-3.2,42.8-8.4c12.7-4.6,28.6-6.7,36.7-18.8c3.6-15.8-1.6-31.6-5.3-46.9c-4.6-10.1-12.4-18.6-21.7-24.6
		c-8.1-4.7-17.7-4.1-26.7-4.3c0.6-7.1,1.9-14.4,5.7-20.5c0.3-6.3,0.4-12.6,0.4-19c3.1,2.7,6.2,5.5,9.4,8.2
		c-3.5-10.4-7.7-20.7-10.6-31.3c-4.4-15.8-12.2-30.9-12.1-47.6c-1.8-11.1,6.7-19.9,8.3-30.4c5-26.7,3.3-54.6-3.5-80.7
		c2.9-2.8,5.5-5.7,7.7-8.7c4.5-4.5,8.8-9.3,10.5-15.6c8.3-26.6,5.6-56.6-8.4-80.9c-3.8-7.2-9-13.3-14.7-19c-0.5-1.7-0.2-3.2,0.6-4.5
		c-1.5-0.4-2.9-0.8-4.1-1.2c0,0-0.1,0-0.1-0.1c0.7-6.6,1.7-13.1,2.4-19.7c2.9-3.4,5.9-6.8,8.7-10.3c1.3-0.1,2.7-0.2,4-0.4
		c-0.6-0.6-1.3-1.2-1.9-1.8c-0.1,0-0.1,0-0.2-0.1c2.8-3.5,5.5-7,8-10.8c9.3-22.4,15.4-46.3,14-70.7c1.4-0.1,4.2-0.1,5.6-0.2
		c-2.6-15.8-8.3-31.3-17.8-44.3c3.8,2.1,7.6,4.1,11.5,6c-5.3-9.9-13.9-17.3-22.5-24.3c-0.4-0.3-0.7-0.5-1.1-0.8l-0.3-4.2
		c-2.5-0.4-5.1-0.8-7.6-1.2c-8.2-5.6-16.3-11.5-20.4-20.9c-3.8-8.8-6.4-18.1-9.4-27.2h0.2c-0.4-1.2-0.6-2.4-0.5-3.7
		c0.1-1.1,0.3-2.3,0.5-3.4c0.1-0.4,0.3-0.8,0.4-1.1c-1.1-1.6-1.2-3.7,0.3-5.8c9.7-12.9,15.6-31.8,12.9-48
		c-0.9-5.5-2.9-10.7-5.4-15.7c-1.1,0.1-2.2,0.3-3.3,0.5c-0.3-2.4-1.8-4.5-4.6-5c-6.2-5.6-15.8-6.7-24-8.1
		c-7.2,3.4-14.2,7.4-20.4,12.4c-1.2,3.8-4.1,7-8.6,8c-1.4,1.5-3.2,2.6-5.4,3.1v1.1c-0.9-0.3-1.8-0.5-2.7-0.7h-0.7
		c-2.7,0-5-0.7-6.9-1.9c-35.5-7.8-73.8-2.5-106.2,14c-3.1-4.3-6.2-8.5-9.4-12.8c-1.2-0.6-3.5-1.8-4.7-2.4c-4.9,0.9-9.2-1.7-13.4-3.7
		c-9.4-5.4-20.6-1.4-30.6,0.3c0.2,0.1,0.3,0.3,0.5,0.4c-0.3-0.1-0.5-0.2-0.7-0.3c-7.8,6.8-12.6,15.6-14.9,25.3
		c-4,6.9-4.2,16.1-2.7,23.8c0.4,2.2,1.1,4.2,2,6.2c0.4,2.5,0.9,4.9,1.5,7.3c0.9,1.3,1.8,2.6,2.8,3.8c0.7,0.9,2.1,2,3.4,3.3
		c0.7,0.7,1.2,1.3,1.7,2l0.6,1.2c0.1,0,0.1,0,0.2-0.1l-0.1,0.1c0.1,0.1,0.1,0.2,0.1,0.3c0.6,1.1,1.6,3.3,2.7,5
		c0.1,0.2,0.1,0.4,0.2,0.6c0.4,1.3,0.6,2.6,0.5,3.9c0.4,0.3,0.8,0.5,1.2,0.8c-1.4,3.6-2.6,7.2-3.1,11.1c-2.7,15.1,0.6,31.2-6.2,45.5
		c-4.3,10.4-13.9,17-20.7,25.6l8.8-0.4c-2.9,4.9-5.6,10-7.9,15.2C694.9,462.5,690.6,478.8,691.3,491.8L691.3,491.8z M968.2,294.6
		v-0.2c0.1,2.2-0.1,4.4-0.5,6.6c-0.1-0.6-0.1-1.2-0.3-1.7C967,297.4,967.4,295.9,968.2,294.6L968.2,294.6z M977.3,388.3
		c-5.1-0.9-10.3-1.8-15.4-2.5c-7.2-0.9-14.5-1.4-21.8-0.8c-9.4,0.6-18.6,2.2-27.8,3.8c-9.4,1.7-18.5,4.6-27.9,6.5
		c-6.2,1.3-34.8,4.8-41.3,4.9c-1.4-0.1-2.7-0.1-4.1-0.2c-11.8-0.9-23.4-3.2-35.1-5c3.1-0.8,6.3,0.4,9.4-0.1
		c3.1-2.7,5.1-6.3,5.1-10.2c-1.9-1.1-3.7-3.1-6.2-2.5c-14.2,2.7-28.7,5.5-43.4,5.2c-5,0.6-16.6-3-13.9,7.4c-2.8,0.5-5.5,1-8.3,1.6
		c-6.9,1.6-13.4,4.3-20.3,5.6c-0.8,0.1-1.6,0.3-2.4,0.6c3.3-14.7,2.2-31.4,6.3-46c-0.1-1.1,0.2-2.3,1-3.5c0.7-1,1.2-2,1.6-3
		c-0.4-0.8-0.7-1.5-1.1-2.3c2.6-1.4,5.1-3.3,6.5-4.2c2.2-1.5,4.3-3.1,6.5-4.7c1.9-1.4,5.9-3.2,6.8-5.3c0.2-0.5,0.4-0.9,0.5-1.1
		c-0.2-0.7-1.7-1.9-2.9-2.8c0.1,0.1,0.1,0.2,0.2,0.3c-0.3,0-0.7,0.1-1.1,0c-2.3-1.3-4.2-3-5.9-5c0.9,1.9,2.1,3.6,3.5,5.2
		c-0.8,0-1.7-0.1-2.5,0.1c-3-2-5.7-4.5-7.8-7.5c-1.3-1.6-2.2-3.6-3.5-5.3c0.3,4.3,2.3,8.1,4,12c-8.7-7.1-11.8-18.7-13-29.4
		c-1,4.7-0.3,9.6,0.1,14.4c-3.2-7.2-3.1-15.4-1.5-23c-0.2-0.7-0.3-1.4-0.5-2.1c-0.2,0.3-0.4,0.5-0.6,0.8c2-4.5,5.1-8.5,9.8-11.4
		c1.5-1,3.1-1.1,4.4-0.7c11.4-5.2,28.4-1.4,36.8,8.1c1.1,0.4,2.3,0.8,3.4,1.3c0.8,0.3,1.4,0.7,1.9,1.2c0.5-0.9,0.9-1.7,1.3-2.3
		c1.5,4.8,3.3,9.5,5.4,14c0.9-0.9,2.2-1.4,3.8-1.4v-4.8c8.1-5.3,17.6-7.8,27.2-9.1c0.5,0.6,0.9,1.1,1.4,1.7c2.3-2,5.2-3.5,8.8-4.4
		c1.7-0.4,3.4-0.6,5.1-0.7l-0.6-0.3c22.9-5.5,47.3-6.2,70,0.6c0.3,1.8,0.7,3.5,1,5.3c0.9-0.7,2.2-1.2,3.7-1.2h0.5l1.2-3.9
		c1.4-0.1,4.1-0.4,5.4-0.6c0.2-1.5,0.7-4.6,0.9-6.1c8.4-7.4,16.3-18.7,28.9-17.8c5.1-0.5,9.8,1.2,14.1,3.7c-0.2,0.1-0.3,0.3-0.5,0.4
		c-0.6,0.1-1.2,0.1-1.8,0.1c2.1,2.4,4.1,5.1,5.8,7.9c0,0.2-0.1,0.4-0.1,0.6c1.2,1.9,2.1,4,2.3,6.2c-0.9-1.3-1.7-2.6-2.8-3.7
		c-0.2,0.7-0.3,1.4-0.5,2.1c1.6,7.7,1.7,15.8-1.5,23c0.3-4.8,1.1-9.7,0.1-14.4c-1.2,10.7-4.2,22.4-13,29.4c1.7-3.9,3.7-7.7,4-12
		c-1.3,1.7-2.2,3.6-3.5,5.3c-2.1,2.9-4.8,5.5-7.8,7.5c-0.8-0.2-1.6-0.1-2.5-0.1c1.4-1.6,2.6-3.3,3.5-5.2c-1.7,1.9-3.6,3.7-5.9,5
		h-1.1c0.1-0.1,0.1-0.2,0.2-0.3c-1.2,0.9-2.7,2.1-2.9,2.8c0.1,0.2,0.3,0.5,0.5,1.1c0.9,2.1,4.9,3.9,6.8,5.3c2.2,1.6,4.3,3.2,6.5,4.7
		s7.7,5.6,10.9,6c-0.8,0.9-1.6,1.7-2.4,2.6c1.2,0.9,2.4,1.9,3.6,2.8c3.3,9.3,6,18.9,9,28.4C965.3,375.1,970.9,382.2,977.3,388.3
		L977.3,388.3z M809.2,449.8c5.5-2.5,10.9-5.6,16.8-7.1c0.8-0.4,1.6-0.7,2.5-1l0.9-0.3c-0.6,1.5-1.2,2.9-1.8,4.4
		c-5,4-9,8.8-11.7,14.2c-0.4,1.4-0.9,2.9-1.3,4.4c-2.8,2.4-5.8,4.4-9.1,5.9c-10.1,4.8-21.6,5.7-32.5,4.1c-2.6-0.5-5.3-0.8-7.8-1.6
		c-4.6-1.4-8.9-4-12.3-7.5c-3.1-3.2-5.5-7.1-7.1-11.3c-3.5-9.4-6.4-19.1-7-29.2c-0.1-3.5-0.4-7.1,0.8-10.4c1.3-3.8,4.3-6.9,7.8-8.8
		c5.1-2.9,11-4.1,16.8-5.1c10.6-1.7,21.3-3,32.1-2.4c2.5,0.2,5.1,0.4,7.6,0.8c5.8,1,11.6,2.3,17,4.6c4.1,1.7,8.1,4.1,10.7,7.8
		c2.1,2.9,3,6.5,3,10c-6.4,0.6-13-0.9-19.2-2.7c-22.6-6.3-58.8-22.4-69.7,9.7c5.2-3.7,14.2-7.5,17.6,0.5
		c4.7,10.9,9.1,22.5,20.5,27.3c-2.6-3.8-6.2-7-7.4-11.7c4.1,3.8,7.2,9,12.5,11.2c-3.8-5.1-8.6-9.7-10-16.3c4,4.5,7.1,10.2,12.3,13.4
		c-1.9-3.8-4.6-7.2-5.9-11.3c13.3,9.3,20,3.2,33.6,0.8C815.5,444.7,811.7,446.4,809.2,449.8L809.2,449.8z M812.5,434.7
		c-6.8,2.2-14.2,1.6-20.9-0.3c-5.9-1.9-11.8-5.2-15.5-10.5c-1.2-1.4-1.7-4.5,0.6-5c2.3-0.6,4.7,0.1,6.9,0.7c8.6,2.4,17.2,5,25.7,7.6
		c2.3,0.9,5.2,1.5,6.7,3.9C816.4,433.1,814,434.1,812.5,434.7L812.5,434.7z M838.1,434c0.6-2.6,1.5-5.3,2.7-7.7
		c7-3,19.8-6.1,19.8-6.1c8.1-0.7,15.4,4.6,18.6,7.5c0.8,2.5,1.5,5.1,2.4,7.6c-3.5-1.2-7-2-10.6-2.5c-12.1-0.9-24.5,1.9-34.7,7.4
		C836.9,438.1,837.5,436,838.1,434L838.1,434z M975.8,439.2c-1.2,4.3-2.3,8.6-4.6,12.4c-3.6,6.5-9.8,11.4-16.8,13.6
		c-5.7,1.7-11.7,2.7-17.6,2.9c-8.3,0.3-16.7-1.2-24.2-4.9c-2.5-4.5-5.4-8.7-8.9-12.7c-3.7-4.5-8-8.1-12.6-10.8l-0.3-0.6
		c-0.4-0.8-0.8-1.6-1.1-2.4h0.1c0.9,0.2,1.8,0.6,2.6,1c6.1,1.5,11.8,4.6,17.6,7.1c-2.6-3.3-6.6-5.1-10-7.5
		c14.2,2.3,21.3,8.4,35.3-0.8c-1.3,4.2-4.2,7.5-6.2,11.3c5.5-3.2,8.7-8.9,13-13.4c-1.4,6.6-6.5,11.2-10.5,16.3
		c5.5-2.3,8.8-7.4,13.1-11.2c-1.2,4.7-5,7.9-7.7,11.7c12-4.8,16.6-16.4,21.6-27.3c3.6-8,13-4.2,18.5-0.5
		c-11.5-32.1-49.6-16.1-73.4-9.7c-6.5,1.8-13.3,3.3-20,2.7c0-2.3,0.3-4.5,1.2-6.6c1.5-3.8,4.6-6.8,8-9c5.1-3.2,10.8-5.1,16.6-6.7
		c9.5-2.7,19.6-3.1,29.4-2.7c4.7,0.2,9.4,0.6,14,1c4.8,0.5,9.6,1.3,14.1,2.9c3,1.1,5.9,2.7,8.1,5c2.5,2.6,3.9,6.1,4.1,9.6
		C980,419.7,978.4,429.6,975.8,439.2L975.8,439.2z M902.9,425.9c1.6-2.3,4.6-2.9,7.1-3.9c9-2.6,18-5.2,27-7.6
		c2.4-0.5,4.9-1.3,7.3-0.7c2.4,0.5,1.8,3.6,0.6,5c-3.9,5.3-10.1,8.7-16.3,10.5c-7.1,1.9-14.9,2.5-22,0.3
		C904.9,429,902.3,428,902.9,425.9L902.9,425.9z M905.5,458.8c-2.5-1.9-4.8-4.2-6.8-6.6C901.2,454.2,903.5,456.4,905.5,458.8z
		 M874.3,872.1l1.5,0.5v0.5l-0.3,0.3c-1.7,1.7-1.5,4.3,0,6l0.1,0.1c-0.1,4.1-0.3,8.2-0.4,12.4c19.5,1.3,39,3,58.5,5.3
		c13.4,1.6,27.1-0.3,40.5-2.4c1.4,2.8,2.9,5.5,4.3,8.3c-1.8,6.3-4.1,12.4-6.8,18.3l15.3-9.9c2-3.7,4.1-7.3,6.2-10.8
		c0.4,8.4,0.4,16.8,0.2,25.2c-14.4,6.7-30.4,11.9-40.8,24.8c6.3-0.4,11.2-4.6,16.8-7c12.2-5.1,24.4-10.7,37.5-13.1
		c13.4-0.7,25.6,8.7,31.7,19.9c5.3,16.4,10.5,34.3,5,51.3c-0.7,0.4-1.5,0.9-2.3,1.3c-0.6-1.1-1.3-2.3-1.9-3.4
		c-1.6,0.9-3.3,1.8-4.9,2.7c-0.1,0.1-0.3,0.2-0.4,0.4c-1.1-3.5-2.2-6.9-3.3-10.4c-1.3-4-2.4-8-3.9-11.9c-2.5-6.5-6.1-12.9-12.8-15.6
		c-1.7-0.7-2.4,2.1-0.8,2.8c6.2,2.6,9.3,9.3,11.4,15.2c2.5,7.1,4.7,14.4,6.9,21.7c-1.3,0.8-2.7,1.4-4.1,1.9c0.1,0.5,0.2,0.9,0.3,1.4
		c-4.3,1-8.5,2.1-12.8,3.3c-0.2-0.4-0.4-0.7-0.6-1.1c-4.6,1.1-9.3,1.9-14,2.3c0.2,0.8,0.3,1.7,0.5,2.5l-1.2,0.3v-0.2
		c-1-4.6-2-9.1-3-13.7c-0.9-4-1.5-8-2.8-11.9c-1.2-3.4-3-6.6-5.9-8.8c-2.7-2-6.2-3-9.6-2c-1.8,0.5-1,3.3,0.8,2.8
		c3.1-1,6.3,0.5,8.5,2.7c2.3,2.4,3.4,5.7,4.2,8.8c1.9,7.5,3.3,15.2,5,22.8v0.1c-2.9,0.8-5.9,1.5-8.9,2.2c-0.3-0.5-0.5-0.9-0.8-1.4
		l-3,1.3c-4.7,1.9-9.6,3.4-14.6,3.4c0.3,0.1,0.6,0.3,0.8,0.5c-7.8,0.9-15.9,0.5-22.5-3.9c-3.5-0.1-6.1-1.3-8.1-3.1
		c-2.4-0.8-4.7-1.7-7-2.7c-4.9-0.7-9.7-1.8-14.5-3.1c-14-2.3-25.6-10.9-37-18.8C872,951.5,872.8,911.5,874.3,872.1L874.3,872.1z
		 M980.8,904.3c-0.1-0.7-0.1-1.5-0.2-2.4c0.4,0.4,0.9,0.7,1.5,0.9C981.6,903.3,981.2,903.8,980.8,904.3z M845.2,617.4
		c-2.3-1.1-4.5-2.4-6.7-3.5c14.8-3.5,29.9-5.7,45.1-5.2c6.2,0.8,12.2,2.3,18.2,4.4c7.9,2.8,15.2,6.7,23.3,8.7
		c1.9,0.4,3.9,0.9,5.9,1.3c3.5,1.9,6.9,4.1,10.1,6.4l-11.1,5.7c-4.3,4.8-9.1,9.3-14.4,13c-8.3,5.3-14.1,13.4-22,19.2
		c-15.7,11.5-31.5,23-47.5,33.9c-5,2.7-10.1,5.3-15.2,7.8c0,0-52.9-37.2-53-67.9c6.8-5.6,15-10,22.8-13.5
		c13.4-6,28.8-10.8,43.9-10.3L845.2,617.4L845.2,617.4z M907.3,663.2c-0.5,0.6-0.9,1.1-1.2,1.6l-1.6,0.8
		C905.5,664.8,906.4,664,907.3,663.2L907.3,663.2z M915.3,656c-0.9,1.3-1.8,2.5-2.6,3.9c-0.5-0.1-1.1-0.1-1.7,0
		C912.5,658.6,913.9,657.3,915.3,656z M940.7,635c-0.7,0.5-1.4,1.1-2.1,1.6h-0.4C939.1,636.1,939.9,635.5,940.7,635z M945.1,721.1
		c-5.1,2.3-10.3,3.9-15.7,5.1c-13.3,1.5-26.7,2.5-40.1,3.4c-6.2,0.1-12.3,0.2-18.3,0.5c-4.3-1.1-8.6-2-13-2.5
		c-3.8-0.4-7.7-0.9-11.6-0.9c1.4,1.3,2.2,3.3,2.1,5.3c-11.9-0.5-23.7-3.1-35-6.9c5.9-4.1,11.9-7.8,18-11.4c1.8,0.2,5.5,0.6,7.3,0.8
		c20.6-16.8,43.3-30.7,63.8-47.5h0.1C945,645.6,945.9,702,945.1,721.1L945.1,721.1z M871,865.3c-2.7-0.3-5.4-0.7-8.1-1
		c-0.7-1.1-1.4-2.2-2.2-3.2c-0.6-0.8-1.4-1.3-2.3-1.6c0-0.1-0.1-0.1-0.1-0.1c5.5,2.1,11,4,16.7,5.6c2.4,0.7,4.8,1.4,7.3,1.8
		c-0.7,0.6-1.4,1.3-2.1,1.9c-1.4-0.5-2.8-1-4.3-1.5v0.7c-1.7-0.5-3.4-1.1-5.1-1.5C870.9,866.1,870.9,865.7,871,865.3L871,865.3z
		 M756.9,901.1c0.4-0.2,0.8-0.4,1.2-0.7c1.8,3.5,3.6,7.1,5.5,10.7c12.6-10.2,22.7-23.9,40.7-21.6c21.4,0,42.7,0.6,64.1,1.9
		c0.1,20,2.5,40.1,1.4,60.1c-0.5,12.8,6.2,25.2,3.3,37.8c-6.6,14.2-23.3,17.1-36.4,22.4c-15.8,7-31.6,13.7-48.2,18.5
		c-4.5,0.6-9.1,0.5-13.6,0v-0.2c-1.1,0.1-2.2,0.1-3.4,0.1c-0.3,0.7-1.1,1.1-1.9,0.5l-0.9-0.6c-1.2,0-2.5-0.1-3.6-0.1
		c-1.3,0-1.7-1.4-1.2-2.3c-1-0.4-2-0.7-3.1-1c-0.1,0.1-0.1,0.3-0.2,0.5c-4.2-1.2-8.5-2.2-12.8-3.3v-0.2c-1.2-0.2-2.4-0.5-3.6-0.7
		c0.7-5.4,1.4-10.9,2.4-16.2c0.8-4.6,2.3-10.7,7.3-12.4c1.7-0.6,1-3.4-0.8-2.8c-5.5,1.9-7.9,7.5-9,12.9c-0.8,3.6-1.1,7.3-1.7,10.9
		c-0.3,2.4-0.7,4.7-1,7.1c-5.6-1.1-11.6-2.3-16.9-4.5c-1.2-0.3-2.5-0.6-3.7-1v-0.8c-1.2-0.7-2.4-1.4-3.5-2.2c-0.5-0.4-1-0.7-1.4-1.1
		c3.2-7.1,6.4-14.2,9.8-21.2c2.6-5.4,6-11.4,12-13.7c1.7-0.6,1-3.4-0.8-2.8c-6.3,2.4-10.2,8-13.1,13.9c-3.6,7.1-6.7,14.5-10,21.7
		c-1.8-2-3.1-4.3-4-6.8l-1.5,4.8c-1.4-13.5,0.8-27.3,6.8-39.5c5.1-9.6,15.8-13.8,25-18.5c17.6-5.5,35.3,1.2,52.4,5.3
		c-7-9.5-19.8-10.4-30.3-13.4c0-4.2,0.1-8.4,0-12.6c3,1.9,6,3.9,9,5.8c-2.1-12.2,6.9-20.7,14.6-28.5c-1.7-0.2-5.1-0.6-6.7-0.8
		c-4.7,5.4-9.2,10.8-13.7,16.2l-9.3-18c-2,2.9-4.1,5.9-6.1,8.9c-0.4-5.2-0.8-10.3-1.4-15.4c0.6,0.3,1.4,0.6,2.3,0.9
		c0.3,3.2,0.5,6.4,0.8,9.6C753.5,906.2,755.2,903.6,756.9,901.1L756.9,901.1z M702.5,454.9c0.1,0.1,0.3,0.3,0.5,0.4
		c1.6-10.3,5.3-20.3,14.6-25.9c-2.6-0.6-5.2-1.1-7.9-1.7c6.2-5.2,9.9-11.3,12.2-18.1c0.1,0.9,0.1,1.7,0.1,2.6
		c-0.1,1.9-0.4,3.9,0.3,5.8c0.5,1.1,1.7,1.5,2.6,2.2c3.1,2.1,4.9,5.6,6.1,9.1c1.8,5.3,3.3,10.7,4.9,16c1.6,5.4,3.4,10.9,6.3,15.8
		c3.9,6.6,10,11.8,16.9,15c9.8,4.6,21,5.8,31.7,4.5c6.4-0.9,12.7-2.6,18.5-5.4c0.5-0.3,1.1-0.5,1.6-0.8c-4.9,9.3-5.3,20.6-3.1,32
		l1.1,0.1l3.4,0.3c-0.1-0.8-0.3-1.6-0.4-2.4c-1.5-6.9-2-14.2-0.9-21.1c0-3.3,0.7-6.7,1.8-10c2.9-1.7,5.6-3.7,8-6
		c5.2-5,9-11.2,11.9-17.7c10.7-6.9,24.1-10.8,37.8-8.8c5,0.3,10.1,1.4,15,3.3c1.5,2.7,3.1,5.3,4.9,7.9c-3-2-6.7-2.8-10-1.7
		c-12.7,0-20.3,5.1-33-0.7c-7.6,1.5-11.8,8.4-16.7,13.6c9,12.4,16.6,32.8,31.9,32.8c12.7,0,25.4-15.2,33-30.5c0.6-2.5,0.5-4.9-0.2-7
		c3.1,3.6,6.7,6.8,10.8,9.3c2.5,1.6,5.2,2.8,8,3.8c3.3,6.2,5.6,12.8,6.9,19.4c-0.5-6.3-1.9-12.5-4.3-18.6c1.3,0.4,2.7,0.7,4,0.9
		c4.1,0.7,8.2,0.9,12.4,0.9c10.8,0.1,21.8-1.9,31.5-7.1c5.1-2.7,9.8-6.7,12.1-12.1c4.9-11.4,8.5-23.2,11-35.3c0.4-1.9,1.3-3.5,2.4-5
		c-0.5-2.6,1.6-4.8,3.8-5.2c0.3-0.1,0.7-0.2,1.1-0.2c1.2-0.5,2.7-0.4,3.8,0.1c6.8,3.2,10.6,12.9,13.4,19.3
		c3.4,7.8,6.7,16.2,7.9,24.6c0.3,1.8-0.5,3.3-1.7,4.2c1.7,14.2-1.7,29.7-5.6,43.2c-1.5,5.3-3.4,11.9-6.3,17.9
		c-1.8,6.6-6.4,12.4-11.4,17c-0.9,0.9-2,1.2-3.1,1.1c-0.4,0.8-0.9,1.7-1.3,2.5c-6.1-1-12.2-1.6-18.3-1.8c-12.3,10.8-27,19-41.1,27.8
		c0.1,0.6,0.1,1.3-0.3,1.9c-3.8,7.3-9.5,13.4-15.8,18.7c-0.6,0.8-1.4,1.9-2.4,2c-7.9,6.3-16,12.1-24.8,16.8c-19.7-2-39.5,0.9-59,5.5
		c-8.1-3.6-15.5-8.3-22.7-13.4c0.6,0,1.2,0,1.7-0.1c-0.3-0.9-1-2.8-1.3-3.7c-2.2-0.2-4.3-0.4-6.5-0.7c-5.5-4.3-10.3-9.2-13.7-15
		c-0.3-0.5-0.3-1.1-0.2-1.6c-12.8-7.3-26.2-14.1-37.4-23.2c-5.1,0.1-10.2,0.6-15.3,1.3c-2.4-2.7-4.6-5.5-6.7-8.5
		c-8.9-9.4-11.6-22.3-16.7-33.7c-5.8-15.7-4.2-32.6-1-48.6c-7.5,1.7-9,9.2-11.2,15.4C697.9,472.8,700.4,461.8,702.5,454.9
		L702.5,454.9z"/>
</g>
<g>
	<path d="M1158.9,773.3c1.9-1.1,3.3-3,4.8-4.6c2,1.6,5.5,2.3,5.7,5.5c-1.4,1.6-3.4,0.7-5.1,0.4c0,2-0.1,4.1-0.4,6.1
		c-1.5-1-2.9-2-4.3-3.1l-3,2.7c-0.7-1.5-1.4-3.1-2.1-4.6c-1.9,0-3.8-0.1-5.7-0.1c1.7-2.7,3.4-5.3,5.3-7.9
		C1155.6,769.7,1156.7,772.1,1158.9,773.3 M1023.9,719.9c1.1-29.5,7.3-58.4,13.6-87c-3-5.1-9.9-7.1-12.5-12.8
		c-0.9-2.4-0.1-6.3,2.9-5.9c9.9,1.2,18.9,8.7,29,5.3c19-2.8,38.3-1.1,57.2,1.5c5.6-3,12.2-9.7,18.7-5.7c3.7,7.6-5.9,10.5-9.9,14.4
		c-1,17.1-1.2,34.2-1.3,51.3c-1.6-0.2-3.2-0.3-4.8-0.5c-0.7-17.3,0.5-34.4,1.5-51.7c4.1-2.9,8.9-5.2,11.2-10.1
		c-4.5,1.4-8.7,3.9-12.3,7.1c-12.9-3.2-26.2-2.6-39.4-3c-8.9-0.4-17.7,1.5-26.5,2.6c-7-2.7-14-5.7-21.5-6.7c2.1,6.4,9.1,7.9,13,12.6
		v2.8c-6.5,28.6-11.9,57.6-13.7,87C1029.7,726.4,1022.7,723.8,1023.9,719.9"/>
	<path d="M1053,634.8c1.5-1.3,2.9-2.7,4.5-3.8c2.9,0.1,3.1,3.7,4.2,5.8c-3.3,0.3-6,2-8,4.8l-2-2.8l-4.8,1.8c0.5-1.7,1-3.3,1.6-5
		c-0.7-0.7-2.1-2-2.8-2.7C1048.5,631.3,1050.9,632.6,1053,634.8 M1091.5,633c2.7,1.2,4.2,4,6.1,6.2c3.5-1.4,5.9-4.5,8.4-7.4
		c2.6,2.3,4.9,5.1,6.1,8.5c-1.9-0.3-3.9-0.8-5.8-1.2c-0.2,2-0.5,4-0.8,6c-1.8-1.1-3.5-2.2-5.3-3.3c-1.4,1.8-2.9,3.5-4.3,5.2
		c-0.6-1.7-1.2-3.5-1.8-5.2c-1.2,0-3.7,0.2-4.9,0.2C1089.9,639,1088.9,635.1,1091.5,633 M1073.7,634.2c-6.8,3.7-13.1,10.3-13.4,18.8
		c3.7,0.5,7.4,2,11.1,1.1c6.6-2.8,11.8-9.8,10.6-17.6C1079.4,635.3,1076.7,633.9,1073.7,634.2 M1074.2,648.7c-0.2,2.3-4.1,4-6,2.7
		C1068.1,648.8,1072.3,647.9,1074.2,648.7 M1076.9,642.6c-2.1,3.3-6.2,3.6-9.6,4.3c1.6-3.1,3.6-6.1,6.5-7.9
		C1075.9,637.6,1079.3,640.7,1076.9,642.6 M1102.7,659.1c2.8-1.1,5.3-2.6,8.1-3.7c-3.7,6.2-12.1,9.7-18.4,5.5
		c-1.5-0.9-5.2-2.6-2.8-4.8C1093.9,654.9,1098,661,1102.7,659.1 M1071.4,659.3c4.6,0.7,9.1,0.3,12.9-2.8
		C1082.5,662,1074.6,665.2,1071.4,659.3 M1059.3,658.1c-3.3,4.1-11.3,3.8-13.2-1.6C1050.4,658.1,1054.9,658.5,1059.3,658.1
		 M1017.3,682.4c0.8-6,2.1-12,4-17.8c0.5-1.7,1.5-2.4,3.3-2.3c-0.1,6.7-1.7,13.2-2.8,19.7C1020.6,682.2,1018.4,682.3,1017.3,682.4
		 M1226.9,729.2c-2.1-6.4-9.7-7.4-15.2-8.7c-7.7-1-15.4-1.1-23.1-2.2c0.9-2,3-3.7,2.7-6.1c-3-5.5-9.7-4.8-14.8-5.1
		c-24.1-0.1-48.2,0.8-72.3,0.3c-2.7,0.2-5.9,0.2-8,2.4c-4.6,5-11.1,7.3-17.3,9.1c0.5-2.9,2.3-5.1,3.8-7.5c0.8-1.8-1.5-2.3-2.5-1.4
		c-3.1,1.9-6,4.2-9.3,5.4c0.3-2.2,0.7-4.4,1-6.6c-4,2.5-7.9,5.3-12.4,6.5c1.3-2.5,3.3-4.5,5.1-6.7c-4.3,0.6-7.9,3.6-12.2,4.1
		c1.7-2.9,3.8-5.5,5.2-8.6c-3.2,1.1-6.3,2.6-9.5,3.7c5-8.2,11.9-15.4,19.9-20.2c7.3-4.4,15.1,0.6,21.9,3.7c5.2,2.8,11.9,2,16.1-2.4
		c-3.7,0.9-7.5,4.6-11.4,2.6c-5.8-2.9-11.6-6-17.9-7.7c-3.1-6.7-3.8-15.4-9.4-20.3c-6.9,0.9-13.6,3.8-19.5,7.5
		c-2.8,1.5-3.4,5.1-4.6,7.9c-1.8-0.1-3.5-0.1-5.3-0.2c2.3,1,4.7,1.7,7.1,2.4c1.5,6.1,2.7,12.5,5.8,18.1c-2.9,3-5.8,6.2-7,10.4
		c4.7,1.2,7.8,5.6,12.6,6.6c3.2,1.9,6.7,0,10-0.7c4.3,0.5,8.7,1.3,11.9,4.5c6.9,1.6,14.7-1.8,19.5-7.3c23.9,0.8,47.7-0.4,71.6-0.6
		c5.2,0.2,11-0.6,15.6,2.7c-2.5,2.8-6.5,4.5-7.8,8.3c3.3,0.2,6.7,0.3,10,0.5c11,1.4,22.6,0.1,32.7,5.7c-1.3,8.4-10.6,6.3-15.3,10.9
		c3.7,1.5,7.5,2.5,10.9,4.6c-3.9,10.7-16.2,6.9-24.5,9.2c-0.3,6.8,8.1,4.4,12.2,4.5c7.4-2.5,16.3-5.6,19.2-14c0.8-3-2.4-4.1-4-5.6
		C1221.3,736,1225.7,733.6,1226.9,729.2 M1065.5,665.9c2.1,0.1,2.8,4.3,0.3,4.3C1063.6,670.3,1063,665.9,1065.5,665.9 M1068.1,685.3
		c-0.9-4.8-1.4-9.8-3.3-14.3c0.7,0,2,0.1,2.7,0.1c3,3.7,4,8.9,6.3,13.1C1071.9,684.6,1070,685,1068.1,685.3 M1065.7,686.9
		c-4.3,2.6-8.3,5.8-12,9.3c-2.6-6.6-5-13.7-5-20.9c2.8-4.6,8.2-6.2,12.9-7.4C1062.4,674.3,1063.7,680.7,1065.7,686.9"/>
	<path d="M1094.3,665.9c-4,4.5-10.2,5.4-15.5,3.2c-0.2-0.9-0.5-2.7-0.7-3.6c2.9,0.8,5.7,2,8.7,2.5
		C1089.3,667.4,1091.8,666.5,1094.3,665.9 M1104.8,671.7c-2.9,4-8.8,5.8-12.9,2.5C1096.5,675.3,1100.7,673.9,1104.8,671.7
		 M1117.9,691.8c0.3-0.9,0.8-2.6,1-3.5c3.7-0.1,7.3,0,11,0.2c0.1,0.7,0.4,2,0.6,2.6C1126.5,693.2,1122.1,693.3,1117.9,691.8
		 M1070.1,694.5c2.5-1.7,5.5-5.6,8.4-2.5c-3.9,4.1-8.5,7.8-13.9,9.2C1064.8,697.7,1068,696.4,1070.1,694.5 M1075.2,702.1
		c2.9-4.2,7.3-6.8,11.7-8.8C1087.1,699.1,1079.9,702,1075.2,702.1 M1128,699.7c-9.4,0.7-18.8,0.5-28.1-0.7
		c3.5-5.8,10.8-4.2,16.3-4.4c5.8,0.5,12.1-1.7,17.4,1.7C1132,697.8,1130.5,699.9,1128,699.7 M1091.5,697.6c1.3,5.1-4.1,7.2-8,6.7
		C1085.7,701.6,1087.8,698.3,1091.5,697.6 M1104.8,826.7c4,2,8.5,1,12.6,0.4c0.1,1.1,0.5,3.4,0.6,4.5c1,0,3,0.1,4,0.2
		c1.8-5.4,3.3-10.9,4.3-16.6c3.8,2.1,7.5,4.6,11.7,5.8c5.9,1.5,12.1,0.9,18.1,0.6c0.7,5.1,1.6,10.2,2.5,15.3
		c-4.7,0.3-9.9,0.1-14-2.7c-2.7-2.2-4.8-5.3-8.3-6.4c-0.3,8,8.3,11.2,14.1,13.6c8,0.6,16.8-0.8,22.7-7c6.1-6.4,13.5-13.6,22.9-12.2
		c-0.6,4.3-5.5,4.8-7.5,8.1c-2.7,3.9-5.1,8.1-8.6,11.2c-6.8,6-15.5,8.9-24.2,9.7c-2.4-1.5-2.7-4.9-4.2-7.3c0.3,2.3,0.7,4.5,1.1,6.8
		c-1.9,0.1-3.7,0.2-5.6,0.3l0.4,3.6c5.3,2.1,11,0.9,16.4,0.5c0.6,7.2,1.2,14.4,2.5,21.5h4.4c1.4-7.7-1.8-15.4-1.9-23.1
		c3.6-1.9,7-4.2,10.6-5.9c12,2.4,24.3,5,36.5,3.9c6.9-1.7,13.8-6,17.2-12.8c1.9-3.1-1-6-2.3-8.7c9.1-16.6,19.3-33.3,22.2-52.6
		c-1.8-4.3-6.5-6.3-10.6-7.3c-9-1-18.1-3.2-27.2-1.5c-4.9,1.2-7.1,6.4-8.6,10.8c-4.7,12.8-9.2,26-16,37.7c-6.4,2-12.2,5.4-17.6,9.5
		c-3.6,0.9-7.3-1.6-11-2.1c-0.7-6.8-0.7-13.9,1.4-20.5c0.4-3,3.9-1.3,5.7-1.4c10.5,1.8,22.5-3.3,27.2-13.7c3.3-7.4-0.5-16.7-7-20.7
		c-5.2-3.2-11.2-4.3-16.9-6.3c5.5-6.6,12.4-11.9,16.7-19.5c0.1-0.9,0.4-2.7,0.5-3.7c-6.3-4.7-12.8,2.1-19.2,3
		c0.5-8.5-6.3-14.4-12.6-18.1c-5.9-2.1-13-3.4-18.6,0.2c-8,4.2-13.4,12.7-22.2,15.5c-3,1.2-5.7-1.5-8.4-2.6c0.3,4,0.9,8,1.8,11.9
		c-0.9,0-2.5-0.2-3.4-0.2c1,5.7,2.8,11.3,5.4,16.4c-6.1,9.9-5.4,22.1-2.9,33.1c1.7,6.2-0.9,12.7-5,17.1c-2.5-1.6-5.1-3.2-7.8-4.4
		C1095.1,817.3,1099.2,824.3,1104.8,826.7 M1240,774.3c0.6,6.2-1.6,12-4,17.5c-5.3,12.1-11.3,23.9-18.5,34.9
		c-1.3,1.5-2.1,3.7-4.1,4.1c-4.6-0.5-9.1-2-13.4-3.6c0.5-2.1,1-4.3,1.4-6.4c4,1.3,7.9,3.1,11.9,4.2c2.5-1.2,3.2-4.6,4.7-6.9
		c6.5-13.4,15.2-25.9,19.2-40.5c-7.5-2.8-15.5-0.8-23.2-1.5c0.9-4,5.2-4.3,8.4-4.4C1228.4,771.9,1234.2,773.3,1240,774.3
		 M1188.6,837.4c9.1,2.7,18.1,6.6,27.7,6.5c5.9-0.1,8.9-6.3,13.5-9.2c-0.1,7.5-8.1,10.1-13.6,12.3c-10.7,1.2-21.6-1-32.1-3.1
		C1185.6,841.7,1187.1,839.6,1188.6,837.4 M1194.3,831.2c7-0.1,13.4,4,20.4,3.7c5.2-3.4,8.4-9.2,11.5-14.6
		c7.6-14.2,15.5-28.6,18.6-44.8c0.7,0.6,2.1,1.7,2.7,2.2c1,5.7-1.6,11.1-3.6,16.2c-5.5,12.9-12.4,25-19.5,36.9
		c-2.4,4-5.7,8.4-10.6,8.6c-7.6-1.1-15.1-3.4-22.4-6C1192,832.8,1193.5,831.7,1194.3,831.2 M1213.4,824.1
		c-5.6-2.5-11.3-4.8-17.3-6.1c7.1-12.4,11.6-26.2,16.6-39.7c7.7-1.4,16.2-2.9,23.6,0.6C1230.5,794.9,1221.5,809.3,1213.4,824.1
		 M1163.5,835.4c-0.2-2.1-0.3-4.2-0.4-6.4c2.2,0.5,4.4,0.9,6.5,1.3C1168.2,832.9,1166.2,834.8,1163.5,835.4 M1133.3,813.8
		c-3.1-1.8-7.6-3.8-6.8-8.4c0.7-11.2,0.3-23.7,7.1-33.1c2.1-3.3,2-7.8,4.9-10.6c-1.4-3.9-2.6-8-2.8-12.2c3.9,0.9,6.7,4,9.1,7.2
		c-1.9-0.6-3.7-1.1-5.6-1.6c0.9,2.9,2.7,5.3,4.5,7.8c1.8-0.8,3.6-1.5,5.5-2.1c2.3-4.7,7.9-4.3,11.8-6.3c5.6-1.8,10.5-5.4,16.1-6.9
		c-3.4,4.9-8.1,8.5-12.2,12.7c-0.8-0.2-2.3-0.7-3-0.9c1,1.8,1.6,3.9,3,5.4c6.6,2.6,13.8,3.2,20.1,6.9c4.3,3.6,8.7,10,5.8,15.9
		c-6.1,9.6-19,13-28.9,8.4c-4.1-2.3-7.7-5.5-12.1-7c-0.2,5.8,5.7,8.2,9.3,11.5c-1.5,5.1-2.4,10.3-3.3,15.6
		C1148.3,816.9,1140.2,817.5,1133.3,813.8 M1116.8,822.9c-4.7,2.8-10.3,1.1-14.3-2.2c9.4-2.2,14.2-13.8,11.8-23.1
		c-2.7-11.6-2.9-25.5,5.6-34.6c-1.3-2-2.4-4.1-3.6-6.2c2.9-0.9,5.7-2.1,7.5-4.7c-2.1-2-4.2-4.1-6.2-6.2c4.8-3.8,10.3-6.4,14.9-10.4
		c3.4-2.7,6.6-6,10.5-7.8c7.8-2.3,16.8,1.7,20.6,9.3c1.5,9.6-9,12.1-15.3,15.2c-3.3-3.8-6.8-8.1-11.9-9c-3.2-0.9-5.6,2.3-6.9,5
		c-0.8,5.3,1.5,10.4,3.3,15.2c-4.3,5.2-8.8,10.9-9.8,17.9c-1.9,11.4-1.9,23.1-2.9,34.6C1119.7,818.5,1119.5,821.9,1116.8,822.9
		 M1054.7,740.2c2.7-5.7,5.6-11.3,9.3-16.2c1.2-2,3.3-2.9,5.5-3c-0.2,5.2-1.8,10.1-1.9,15.3c7.5-1,14.8,1.3,20.9,5.9
		c3.2-3.5,5.4-8.5,10-10.2c0.6,2.3,1.8,4.8,1,7.3c-1.7,5.6-2.9,12.9-8.9,15.2c1.4-3.7,2.5-7.6,3.3-11.5c-2,1.5-3.8,3.2-5.6,5
		c-3.4-3.3-6.9-7.2-11.8-7.9c-4.5-1-9,0.3-13.4,1.6c0-2.6,0-5.3-0.1-7.9C1060.6,736.4,1058.5,739.9,1054.7,740.2 M1002.3,776.9
		c4.8-2.4,3-9.3,2.1-13.6c2.7-2.2,5.8-4.4,7.1-7.9c0.4-3.3,0.3-6.7,0.4-10c4-2.6,12.1-6.7,7.4-12.5c-3.9,2.6-7.6,5.9-12.2,7.3
		c-5.6-1.6-10.4-5.8-16.3-6.4c-4-0.3-9.5-1.4-11.6,3.4c0.1,4.4,4.3,6.1,7.6,7.5c5.9,2.4,12.3,1.6,18.5,2.1c0.1,2.2,0.7,4.4,0.1,6.6
		c-1.6,2-3.5,3.6-5.4,5.2c-6.4-4.9-13.9-9.5-22.1-7.7c-4-0.3-4.2,5.9-1.4,7.7c6.1,4.8,14.2,4.4,21.5,5.2c1.6,1.4,2.7,3.4,2.7,5.6
		c-1,2.8-4,3.8-6.6,4c-6.8,0-13.2-2.6-19.7-4.4c-1.2,3.3,1.2,5.5,3.9,6.5C985.8,778.4,994.4,779.4,1002.3,776.9 M980.4,754.2
		c3.8,0.8,7.5,2,10.7,4.4C987.5,758.1,981.8,758.7,980.4,754.2 M983.7,737.5c4.7,0.2,9.5,1,13.5,3.9
		C992.3,742.2,987.7,740.4,983.7,737.5 M1031.5,753.3c4.6-7.2,13-14.3,21.7-10.6c0.6,1.9,1.1,3.8,1.5,5.7c2,0.1,4.1,0.2,5.7-1.2
		c-0.4,0.7-1.1,2.1-1.4,2.8c-2.2,0.1-4.5,0.2-6.7,0.2c-0.6-1.8-1.3-3.6-1.9-5.4c-6.6,1.2-12.6,5.7-15.4,12.1
		c-1.9,4.3-0.9,9.2-0.9,13.7C1028.2,767.2,1029.1,758.8,1031.5,753.3 M1073.4,756.2c2.5-0.6,4.9-1.3,7.4-2.1
		c-0.8,1.3-1.6,2.6-2.3,3.9c-2.3,0-4.6-0.1-6.9-0.3c-0.3-2.3-0.6-4.6-0.8-6.8C1073.1,751.4,1072.8,754.3,1073.4,756.2"/>
	<path d="M1042.3,754.1c1.3-3,4.8-2.3,7.2-1.5c0.1,2,0.1,4,0.1,6c-3.2,0.7-3.6-2.4-4.5-4.7c-0.2,1.3-0.7,3.9-0.9,5.2
		C1042,758,1041.3,756.4,1042.3,754.1 M966.4,818.6c10.4,3.2,19.8,9,30.5,11.2c8.5,3.4,17.7,4.5,26.5,6.6c1.9,0.4,3.8,0.4,5.6,0
		c-0.2-2.6-0.5-5.1-0.8-7.7c1-0.3,3.1-0.8,4.2-1c1.9,4.3,4,8.5,6.5,12.4c-4.8,0.5-9.9-1.3-14.3,1.3c7.3,2,15,1.8,22.3,4
		c1.8,0.8,4.3,2.3,4.2,4.7c-2,2.9-5.1,5.2-5.5,9.1c7.7,0.1,15.8-3.9,23,0.2c-1,2.9-1.9,5.8-2.5,8.9c3.9,0.2,8.1-0.3,11.5,2
		c-0.5,1.8-1.1,3.6-1.7,5.4c2.1-2.1,3.2-4.7,3.3-7.8c-2.6-1.4-5.3-2.5-8.1-3c0.9-3.6-0.2-6.9-2.1-9.8c10.3-2.5,19.1-10.6,22.9-20.9
		c1.1-2.7-0.3-6-3.5-5.1c-5.9,3.3-11.1,8.1-17.7,10c3-26.1,12.8-50.5,21.2-75c0.9-2.2,0.8-4.6,0.6-6.9c-1.8-0.1-3.1,0.6-4,2.1
		c-6,11.4-10.5,23.6-14.1,36.1c-12.7,1.5-25.6-2.8-36-10.5c-1.6-2.1-1.9-5-3.4-7.2c-3.2,5.2-5.6,10.9-7.6,16.7
		c-2.8-0.6-5.6-1.4-8.5-1.7c-2.7,0.5-5,2.3-7.3,3.8c-1.9-1.8-3.8-3.8-6.4-4.4c-8.5-2.2-16.7-5.4-25-8.1c-5.4-1.7-10.6-5.1-16.4-4.4
		C964.5,792.6,961.7,806.2,966.4,818.6 M999.2,793.2c0.9,8.6,2.3,17.3,2.2,26c-11.7-1.3-22.9-5.3-33.8-9.8
		c0.3-8.6,0.9-17.3,0.8-25.9C979.2,784.9,988.8,790.6,999.2,793.2 M1086.9,834.1c-2.8,8.3-10.2,14.3-18.2,16.5
		c0.2-2.4,0.4-4.9,0.7-7.3C1076.1,842.3,1081,837.2,1086.9,834.1 M1019.5,832.8c-2.6-1.1-7.3,0-7.8-3.9l6,0.9
		C1018.1,830.6,1019.1,832.1,1019.5,832.8 M1023.1,826.7c-4.6-0.2-10.3,0.7-13.6-3.7c6.6-2.8,10.6-9.2,14.7-14.9
		c-0.9-0.2-2.6-0.7-3.5-0.9c-2.8,3.6-5.7,7.2-9.5,9.6c-0.3-4.9-0.3-9.7-0.2-14.6c2.1-2.8,5.7-4,8.5-6.1c1.9-1.7,4,0.4,5.8,1
		c-0.1,3.7,0,7.4,0.5,11c5.5-5.1,5.8-13.4,9.4-19.8c5,2.6,9.8,5.5,15.1,7.4c7.4,2.8,15.4,2.7,23.2,3.7c-3.3,18-10.3,35.6-8.5,54.3
		c-3.9,0.7-7.9,0.8-11.9,1.1c0.2-2.7,1.8-5.8,0.5-8.3c-2.9-2.4-6.5-3.7-9.9-5.5c4.3-1.7,8.5-3.4,12.6-5.6c0.3-0.7,0.8-2.1,1.1-2.8
		c-2.3,0.8-4.7,1.5-7.1,2.1c-0.1-3.6-0.2-7.2,0-10.8c2.5-3.4,7.8-4.3,8.5-9.3c-3.1,1.6-6,3.5-9,5.3c-2.7-4.8-4.8-10.6-9.5-13.7
		c-4.5-1.2-9.6-0.1-12.7,3.7c-3.8,4.3-9.8,8.8-7.6,15.5c4.5-6.2,8.8-13.3,15.6-16.9c1.7-1,3.3-0.7,4.6,0.8
		c6.5,7.3,8.5,17.7,6.9,27.4c-2.2-0.2-5,1-6.8-0.9c-2.1-4.4-3-9.7-7.1-12.7C1029.7,823.6,1026.8,826.9,1023.1,826.7 M1008.2,828.7
		c-2.1-1-2.1-2-0.1-3C1010.2,826.7,1010.2,827.7,1008.2,828.7 M1006.9,795.9c-0.8,8.3-0.8,16.7-0.3,25c-0.5-0.2-1.5-0.5-2.1-0.7
		c-1.6-8.4-1-17.2-2.2-25.7C1003.9,794.9,1005.4,795.4,1006.9,795.9 M1004.4,824c0.1,0.8,0.3,2.5,0.4,3.3c-11-2.8-21.9-5.8-32.5-10
		c-1.5-0.6-2.8-1.5-3.9-2.7C980.5,817.1,992.5,820.6,1004.4,824"/>
	<path d="M1041,773.9c-1.1,0-3.2,0-4.3-0.1c-0.6-2.9-0.6-5.8-0.1-8.7c0.9,0.2,2.7,0.7,3.6,0.9C1040.5,768.7,1040.7,771.3,1041,773.9
		 M1049.7,780.2l-5.1-3.3l-0.3-8.7c0.8,0.2,2.5,0.5,3.3,0.7C1048.5,772.6,1049.2,776.4,1049.7,780.2 M1058,781.9
		c-4.1-2.6-5.4-7.6-4.9-12.4C1058.3,770.9,1057.8,777.4,1058,781.9 M1067.5,780.2c-3.9-1.1-5.9-4.3-5.5-8.5c0.8,0.1,2.5,0.2,3.3,0.3
		C1066.2,774.7,1066.9,777.4,1067.5,780.2 M1076,778.9c-1.6-0.8-3.2-1.6-4.8-2.3c-0.1-1-0.2-3-0.3-4.1
		C1073.2,774,1074.4,776.7,1076,778.9"/>
</g>
<g>
	<g>
		<path d="M1072.3,474l4.8-21.2h6.4L1080,474H1072.3z M1077.4,449.8l1.2-6.4h6.8l-1.2,6.4H1077.4z"/>
		<path d="M1087.3,465.4l6-30.7h7.5l-2.4,12.3h11.2l2.4-12.3h7.5l-6,30.7h-7.5l2.4-12h-11.2l-2.4,12H1087.3z"/>
		<path d="M1121.1,452.2c-1-19.1,31.5-26.3,32.5-4.6C1154.6,466.9,1122,474.4,1121.1,452.2z M1128.9,451.8c0.4,12.7,18,6.5,17-3.7
			C1145.3,435.8,1127.8,441.8,1128.9,451.8z"/>
		<path d="M1155.2,465.4l6-30.7h7.5L1164,459h12.5l-1.3,6.4H1155.2z"/>
		<path d="M1175.6,465.4l15.8-30.7h8.8l4.1,30.7h-7.5l-0.6-6.4h-9.5l-3.3,6.4H1175.6z M1189.7,453h6.1c-0.4-2.8-0.8-8.5-0.9-11.3
			h-0.1C1193.3,445.7,1191.3,449.5,1189.7,453z"/>
		<path d="M1207.6,465.4l1.1-6.4h6.7l-1.1,6.4H1207.6z M1209.2,455.9l3.7-21.2h7.8l-4.8,21.2L1209.2,455.9z"/>
		<path d="M1230.5,461.6l4.5-5.3c2,3.1,13.9,4.6,10.1-1.4c-3.2-2.3-7.8-3.5-9.8-7.4c-5.3-12.4,14.2-17.1,21-9.7l-4,5.5
			c-2.2-2.7-13.1-3.5-9.5,2c3.2,2.3,7.9,3.5,9.8,7.4C1257.9,465.6,1237.6,470,1230.5,461.6z"/>
		<path d="M1257.3,452.2c-1-19.1,31.5-26.3,32.5-4.6C1290.7,466.9,1258.2,474.4,1257.3,452.2z M1265,451.8c0.4,12.7,18,6.5,17-3.7
			C1281.5,435.8,1264,441.8,1265,451.8z"/>
		<path d="M1290.3,465.4l8.2-30.7h8.2c0.6,3.6,2.4,14.6,2.5,18h0.1c1.8-3.3,7.7-14.6,9.6-18h8.2l-3.6,30.7h-7.3
			c0.4-3.7,1.7-15.6,2.7-19l-0.1,0c-2.1,4.1-5.6,10.2-7.7,14h-6.5c-0.6-3.3-1.9-10.9-2.2-14.1h-0.1c-0.4,3.9-3.7,15.2-4.6,19.1
			H1290.3z"/>
		<path d="M1330.3,452.2c-1-19.1,31.5-26.3,32.5-4.6C1363.7,466.9,1331.1,474.4,1330.3,452.2z M1338,451.8c0.4,12.7,18,6.5,17-3.7
			C1354.4,435.8,1336.9,441.8,1338,451.8z"/>
		<path d="M1363,461.6l4.5-5.3c2,3.1,13.9,4.6,10.1-1.4c-3.2-2.3-7.8-3.5-9.8-7.4c-5.3-12.4,14.2-17.1,21-9.7l-4,5.5
			c-2.2-2.7-13.1-3.5-9.5,2c3.2,2.3,7.9,3.5,9.8,7.4C1390.4,465.6,1370.1,470,1363,461.6z"/>
	</g>
</g>
<path d="M1043.2,491.1c2.2-0.8,4.6-1.4,6.9-1.9c2.4-0.5,4.9-0.5,7.4-0.4c2.5,0.1,4.9,0.5,7.4,1.4c2.4,0.8,4.6,2.2,6.5,3.9
	c1.9,1.8,3.8,4,5.1,6.9c2.5,4.8,3,10.4,1.9,15.7c-1.4,6.3-4.6,11.7-9,16.3c-5.6,5.3-12.2,9.3-19.8,11.3c-2.2,0.8-4.4,0.5-6.8-0.5
	l-3-1.8l-3-2.2l-1.4-1.3l-1-1.4c-0.6-1.4-0.8-2.9-0.4-4.3l3.7-39.8L1043.2,491.1L1043.2,491.1z M1054.4,529.5
	c2.4-1.9,4.3-3.9,5.7-6.3c2.7-3.7,4.3-7.9,4.7-12.3c0.1-2.5-0.1-4.6-0.8-6c-0.8-1.4-2-2.5-3.9-3.2c-2.3-0.6-4.7-0.6-6.9,0.2
	c-1.4,5.6-2.8,10.8-3.9,16.1l-3.2,16.1C1049.2,533.2,1052.1,531.7,1054.4,529.5L1054.4,529.5z M1120,497.7c0.8,1.4,1.4,3.1,1.5,4.9
	c0.9,7,0.4,13.9-1.5,20.7c-1,3.6-2.4,6.9-4,9.9c-1.6,3.1-3.9,5.8-6.3,8.1c-1.8,1.4-3.3,2.2-5.2,2.5c-1.9,0.4-3.9,0.5-6.3,0.2
	l-4.9-0.8c-1.6-0.4-3.1-0.8-4.6-1.5c-1.3-0.5-2.3-1.4-3.3-2.3c-1.3-0.8-1.9-2-2.5-3.1c-2.2-4.4-3.1-9.3-3-14.1
	c0.1-11.4,4.9-22.5,13.3-30.1c3.1-2.4,7.2-3.6,11.1-3c2.4,0.4,4.6,1,6.9,1.9c2.2,0.8,3.9,1.9,5.5,3
	C1118,494.9,1119.1,496.2,1120,497.7L1120,497.7z M1103.6,501.1c-1.3,1-2.2,2.4-3.2,4.2c-1.3,1.9-2.2,3.8-3,5.8
	c-0.9,2.2-1.8,4.3-2.3,6.3s-1,4-1.4,6.3c-0.2,2.2-0.4,4-0.2,5.8c0.1,1.9,0.4,3.3,0.8,4.7c0.4,1.4,1.4,2.2,2.3,2.4
	c0.8,0.4,1.9,0.1,2.8-0.5c1-0.6,1.9-1.8,3-3c1-1.4,1.9-3.1,2.7-5.1c3.3-7.9,4.6-16.5,3.7-25.2c-0.4-1.4-1-2.4-1.9-2.5
	C1105.6,499.6,1104.7,500.1,1103.6,501.1L1103.6,501.1z M1153.8,506.5l3.8-14.6c0.4-1.4,0.8-2,1.5-2.3c0.6-0.4,1.8-0.2,3,0.1
	l1.8,0.4l1.4,0.5l1.5,0.8l1.9,1.3c1.4,0.8,1.9,1.5,2,2.3c0.1,0.8,0,1.8-0.2,2.8c-1,3.1-2,6.6-3,10.6l-3.1,11.9l-3,11.8l-2.5,10
	c-0.2,1.5-1.4,2.2-3.8,1.8c-1.9-0.4-3.9-0.8-5.8-1.8c-1.8-0.6-3.1-2-3.9-3.8l-1.9-4.6l-1.9-5.6l-1.9-6.3l-1.9-6.5l-1.4,7.7l-1.4,7.4
	l-1.4,6.6l-0.8,5.2c-0.2,0.6-0.4,1.3-0.8,1.4c-0.4,0.2-1.3,0.1-2.3-0.1l-3-0.8c-1-0.3-2.2-0.6-3-1.4c-0.8-0.4-1.5-1-1.9-1.5
	c-0.4-0.5-0.4-1.4-0.4-2.5l0.4-4.8l0.8-7.1l1.3-8.5l1.4-9.1c0.8-5.5,1.8-10.8,3-16.1c0.4-1.4,0.8-2,1.5-2.4c0.8-0.4,1.9-0.4,3,0
	l4.6,1.4l4.6,1.9c1.4,0.5,2.3,1.4,2.8,2c0.5,0.8,0.8,2,1.4,3.7l0.8,4.6l1.3,6.3l1.4,6.8l1.4,6.8
	C1151.7,517.2,1152.4,511.9,1153.8,506.5L1153.8,506.5z M1186.8,532.7c-3.1,0.4-5.8,1-8.4,1.5l-2.3,4.6l-1.9,4.2
	c-0.4,0.6-0.8,1.3-1.4,1.4c-0.4,0.1-1.4,0-2.2-0.4l-1.9-0.6l-2-0.8l-1.4-0.8l-0.8-0.8c-0.2-0.4-0.4-0.8-0.4-1.4l0.4-2.2
	c1-3,2.4-6.3,3.9-10l5.2-11.9c1.9-4.2,3.8-8.4,5.7-12.2c1.8-3.7,3.6-7.3,5.6-10.8c0.6-1.3,1.4-2,2.5-2.8c1-0.6,2.5-1,4.6-0.8
	c2.8,0.1,5.6,0.4,8.4,1.3l3,0.8l2.8,0.8c1.4,0.4,2.2,1.3,2.5,1.9c0.4,0.8,0.4,1.8,0.4,3c-0.4,7.4-0.8,14.7-1,22.2l-0.1,12.4v11.6
	c0,0.8-0.1,1.4-0.4,1.5c-0.4,0.4-1,0.4-2.2,0.4h-2.7c-0.8-0.1-1.9-0.2-2.8-0.5c-1-0.4-1.8-0.6-2.2-1.3c-0.4-0.4-0.6-1.4-0.8-2.5
	l-0.4-3.9l-0.4-4.7C1193.1,531.8,1189.9,532.2,1186.8,532.7L1186.8,532.7z M1189.9,521.8l5.7-0.5l-0.2-10c-0.1-3.3,0-6.8,0.1-10
	l-5.5,10l-5.8,11.4L1189.9,521.8z M1252.3,504.4l-4.7,7.6l-5.6,8.5l-5.7,8.4l-1.9,7.7l-1.4,7c-0.2,0.8-0.5,1.4-0.8,1.4
	c-0.4,0.1-1.3,0.1-2.3-0.1l-3.1-0.8c-1-0.3-2.2-0.6-3-1.3c-0.8-0.5-1.5-1.3-1.9-1.8s-0.4-1.4-0.4-2.5l0.8-6.3l1.3-7.9l-2.8-8.1
	l-3-8.5l-3-8.4l-2.5-7.5c-0.4-1.3-0.5-1.9-0.4-2.3c0.2-0.4,0.8-0.6,2-0.8l3.8-0.2c1.3-0.1,2.5,0,3.8,0.4c1.3,0.4,2.2,0.8,2.7,1.4
	l1.9,3c1,2.5,2,5.5,3,8.5l3.2,10l6.6-10.9l6.5-11.2c0.4-1,1-1.5,1.9-1.8c0.8-0.1,1.8,0.1,2.7,0.6c1,0.4,1.9,1.3,2.8,1.9l2.5,2.2
	l0.8,1.4c0.2,0.4,0.4,0.8,0.4,1.4c0,0.4,0,0.8-0.2,1.4l-0.6,1.8C1254.8,500.1,1253.7,501.9,1252.3,504.4z M1265.5,535.9l-1.4,6.9
	c-0.2,0.6-0.4,1.3-0.8,1.4c-0.4,0.2-1,0.2-2,0l-3-0.6c-0.8-0.2-1.8-0.4-2.5-0.8c-0.8-0.4-1.4-1-1.8-1.8c-0.4-0.6-0.4-1.4-0.4-2.5
	l0.4-3.9l0.5-5.7l0.6-6.9l0.8-7.4l1-7.1l1.4-6.3l1.4-4.6c0.5-1.4,1-1.9,1.5-2.3l8.2-3.6c2.8-1.3,5.6-1.9,8.4-2.4
	c2.7-0.4,5.5-0.5,7.7-0.1c2.4,0.4,4.6,1.4,6.5,3.2c1.4,1.5,2.8,3.2,3.9,5.1c1.3,1.9,2.2,4,2.8,6.8c0.5,2.8,0.4,5.1-0.6,6.9
	c-1.4,3-3.9,5.6-7.4,8.1c-3.3,2.5-7.4,4.7-12.1,6.8c2.2,2.4,4.6,4.7,6.8,7.1l3.7,3.6c1.3,1.3,2.4,2.2,3.3,3c0.8,0.6,1.4,1.4,1.3,1.8
	c-0.1,0.4-0.4,0.8-1.3,1.4c-0.8,0.5-1.4,0.8-1.9,1l-1.9,0.4c-0.8,0.2-1.9,0.4-3,0.2c-1.3-0.1-2.4-0.5-3.9-1.4l-3.3-2.5l-3.9-3.3
	l-4-3.9c-1.4-1.4-2.5-2.5-3.7-3.9C1266.7,531.2,1266.3,533.5,1265.5,535.9L1265.5,535.9z M1272,510.1l-2.2,7.7
	c4.9-1.6,9.4-4.3,13.3-7.9c1.4-1.4,2.4-2.5,3.2-4.2c0.6-1.4,0.8-2.3,0.6-3c-0.5-1.3-2-1.9-4.6-1.9c-3,0-6.1,0.6-8.7,2.2L1272,510.1
	L1272,510.1z M1310.1,491.8c7.2-1.6,14.4-2.7,21.7-3c2.4,0,3.9,0.8,4.6,2.8c0.5,1,0.8,1.9,1.3,2.7l0.6,2.7c0.2,1.3,0.1,1.9-0.2,2.3
	c-0.4,0.4-1.3,0.6-2.4,0.8l-7.7,0.8l-8.5,1.3l-1.9,5.8l-1.9,6.5l3.8-0.4l4-0.2c1.3,0,2.2,0.1,2.8,0.4c0.6,0.2,1.4,0.8,1.8,1.8
	c0.5,0.8,0.8,1.8,1.3,2.5l0.6,2.5c0.4,1,0.4,1.5,0.1,1.9c-0.2,0.4-1,0.6-2.2,0.8l-7.6,1.4l-7.5,1.4l-0.8,3.9l-1,3.5l5.6-0.8l5.8-0.5
	c1.3-0.1,2,0,2.7,0.2c0.7,0.2,1.4,0.8,1.8,1.4c0.5,0.8,0.8,1.5,1.3,2.4l0.8,2.3c0.2,0.8,0.2,1.4,0,1.8s-0.8,0.5-2,0.8l-8.4,1.5
	l-7.9,1.4c-1.8,0.4-3,0.5-3.9,0.2c-0.8-0.4-1.5-0.5-2.3-1l-2-1.4c-1.5-1-2.9-2.4-3.9-3.9c-0.4-0.8-0.5-1.9-0.4-3l6-41.6
	L1310.1,491.8L1310.1,491.8z M1377.3,507.3l-3.6,11.9l-3.3,12.2c-1.4,4.1-2.3,8.4-3.2,12.4c-0.4,0.2-0.8,0.2-1.4,0.2l-1.9-0.4
	l-2.4-0.5c-1.8-0.5-3-1.3-4-1.9c-1-0.6-1.4-1.9-0.8-3.3l0.8-5.2l1.4-6.6l-5.2,0.6l-5.2,0.8l-1.8,8.2l-1.3,6.9
	c-0.2,0.6-0.4,1.3-0.8,1.4c-0.4,0.2-1.3,0.2-2.2-0.1l-3.2-0.8c-1.3-0.4-2-0.6-2.8-1.3c-1-0.4-1.8-1-2-1.5c-0.4-0.5-0.5-1.4-0.2-2.5
	c1.4-7.4,2.5-14.6,3.3-22.1l1.4-12.4l1.4-11.4c0.4-1.4,0.8-2.2,1.4-2.4c0.8-0.2,1.5-0.1,2.8,0.4c1.4,0.4,2.8,0.8,4.3,1.5
	c1.9,0.8,3.8,1.9,5.5,3.2l0.8,1c0.1,0.4,0.2,0.6,0.1,1.3l-0.2,1.4l-2.2,8.5l-2.4,10.2l5.2-0.5l4.9-0.4l3-13.3c1-4.4,1.9-8.4,3-11.8
	c0.4-1.4,0.8-2.2,1.5-2.3c0.6-0.1,1.8-0.1,3,0.2c1.4,0.4,2.5,0.8,3.8,1.4c1.4,0.5,2.5,1.4,3.8,2c0.8,0.4,1.5,1.4,2,2
	c0.2,0.5,0.2,1.4-0.1,2.5L1377.3,507.3L1377.3,507.3z M1396.9,532.7c-3.1,0.4-5.8,1-8.4,1.5l-2.3,4.6l-1.9,4.2
	c-0.4,0.6-0.8,1.3-1.4,1.4c-0.4,0.1-1.4,0-2.2-0.4l-1.9-0.6l-2-0.8l-1.4-0.8l-0.8-0.8c-0.2-0.4-0.4-0.8-0.4-1.4l0.4-2.2
	c1-3,2.4-6.3,3.9-10l5.2-11.9c1.9-4.2,3.8-8.4,5.7-12.2c1.8-3.7,3.6-7.3,5.6-10.8c0.6-1.3,1.4-2,2.5-2.8c1-0.6,2.5-1,4.6-0.8
	c2.8,0.1,5.6,0.4,8.4,1.3l3,0.8l2.8,0.8c1.4,0.4,2.2,1.3,2.5,1.9c0.4,0.8,0.4,1.8,0.4,3c-0.4,7.4-0.8,14.7-1,22.2l-0.1,12.4v11.6
	c0,0.8-0.1,1.4-0.4,1.5c-0.4,0.4-1,0.4-2.2,0.4l-3-0.1c-0.8-0.1-1.9-0.2-2.8-0.5c-1-0.4-1.8-0.6-2.2-1.3c-0.4-0.4-0.6-1.4-0.8-2.5
	l-0.4-3.9l-0.4-4.7C1403,531.8,1400.1,532.2,1396.9,532.7L1396.9,532.7z M1399.9,521.8l5.7-0.5l-0.2-10c-0.1-3.3,0-6.8,0.1-10
	l-5.5,10l-5.8,11.4L1399.9,521.8z M1434.8,535.9l-1.4,6.9c-0.2,0.6-0.4,1.3-0.8,1.4c-0.4,0.2-1,0.2-2,0l-3-0.6
	c-0.8-0.2-1.8-0.4-2.5-0.8c-0.8-0.4-1.4-1-1.8-1.8c-0.4-0.6-0.4-1.4-0.4-2.5l0.4-3.9l0.5-5.7l0.6-6.9l0.8-7.4l1-7.1l1.4-6.3l1.4-4.6
	c0.5-1.4,1-1.9,1.5-2.3l8.2-3.6c2.8-1.3,5.6-1.9,8.4-2.4c2.7-0.4,5.5-0.5,7.7-0.1c2.4,0.4,4.6,1.4,6.5,3.2c1.4,1.5,2.8,3.2,3.9,5.1
	c1.3,1.9,2.2,4,2.8,6.8c0.5,2.8,0.4,5.1-0.6,6.9c-1.4,3-3.9,5.6-7.4,8.1c-3.3,2.5-7.4,4.7-12.1,6.8c2.2,2.4,4.6,4.7,6.8,7.1l3.7,3.6
	c1.3,1.3,2.4,2.2,3.3,3c0.8,0.6,1.4,1.4,1.3,1.8s-0.4,0.8-1.3,1.4c-0.8,0.5-1.4,0.8-1.9,1l-1.9,0.4c-0.8,0.2-1.9,0.4-3,0.2
	c-1.3-0.1-2.4-0.5-3.9-1.4l-3.3-2.5l-3.9-3.3l-4-3.9c-1.4-1.4-2.5-2.5-3.7-3.9C1435.8,531.2,1435.4,533.5,1434.8,535.9L1434.8,535.9
	z M1441.3,510.1l-2.2,7.7c4.9-1.6,9.4-4.3,13.3-7.9c1.4-1.4,2.4-2.5,3.2-4.2c0.6-1.4,0.8-2.3,0.6-3c-0.5-1.3-2-1.9-4.6-1.9
	c-3,0-6.1,0.6-8.7,2.2L1441.3,510.1L1441.3,510.1z M1505.6,499.7l-6,0.5l-2.7,10.8l-2.7,11.2l-2.5,10.8l-2,9.9
	c-0.1,0.5-0.2,1-0.5,1.3c-0.4,0.2-0.8,0.2-1.4,0.2l-1.9-0.4l-2.4-0.6l-2.4-0.8c-1.4-0.4-2.3-1.4-2.8-2.5c0-3.1,0.3-6.3,0.6-9.4
	l1.4-9.4l1.8-9.9c0.5-3.3,1.4-6.5,1.9-9.3l-3.6,0.5l-2.8,0.5c-1,0.2-1.9,0.2-2.5,0.1c-0.6-0.1-1.4-0.6-2.3-1.5
	c-0.8-0.8-1.8-2-2.5-3.3l-1.9-3.3c-0.5-1-0.6-1.5-0.4-1.9c0.2-0.4,0.8-0.5,1.5-0.8c6-1,11.8-1.9,17.9-2.5l9.5-0.8
	c3.1-0.4,6-0.4,8.5-0.4c1.4,0,2.3,0.1,2.8,0.4c0.5,0.2,1,0.5,1.4,1.3c0.8,1,1.5,2,2,3.1c0.5,1.3,1,2.3,1.4,3.3c0.2,1,0.2,1.5,0,2
	c-0.2,0.4-1,0.5-2.3,0.6C1509.2,499.3,1507.4,499.4,1505.6,499.7L1505.6,499.7z M1071.2,576.3v-20.9h12.5v3.1h-8.7v5.4h7v3.1h-7v5.6
	h9.2v3.1L1071.2,576.3L1071.2,576.3z M1086.4,573.6l2-2.9c0.6,0.6,1.4,1.2,2.5,1.7c1,0.5,1.9,0.6,2.9,0.6c1,0,1.8-0.2,2.3-0.6
	c0.5-0.4,0.8-1.2,0.8-1.8c0-0.7-0.4-1.4-1-1.9c-0.6-0.5-1.4-1-2.5-1.4l-2.9-1.3c-1-0.4-1.9-1.3-2.5-2c-0.6-0.8-1-1.9-1-3
	c0-1.9,0.6-3.1,2-4.4c1.4-1.2,3-1.8,5.2-1.8c2.3-0.1,4.5,0.7,6.2,2.3l-1.8,3c-0.5-0.5-1.3-1-2.1-1.3c-0.8-0.4-1.7-0.5-2.5-0.5
	c-1,0-1.8,0.2-2.4,0.6c-0.6,0.4-0.8,1-0.8,1.8c0,0.7,0.4,1.3,1,1.9c0.6,0.6,1.4,1,2.5,1.3l2.9,1.3c1,0.4,1.9,1.2,2.5,2
	c0.6,0.8,1,1.9,1,3c0,1.9-0.6,3.1-1.9,4.4c-1.3,1.3-2.9,1.9-5.2,1.9c-1.3,0-2.6-0.2-3.8-0.7C1088.4,575.2,1087.2,574.6,1086.4,573.6
	L1086.4,573.6z M1108.9,576.3v-17.6h-6.8v-3.1h17.4v3.1h-6.8v17.6H1108.9L1108.9,576.3z M1122.3,568.7v-13.3h3.7v13.3
	c0,1.4,0.4,2.5,1.3,3.1c0.8,0.7,1.9,1.3,3.5,1.3c1.4,0,2.5-0.4,3.5-1.3c0.8-0.7,1.3-1.9,1.3-3.1v-13.3h3.7v13.3
	c0,2.4-0.7,4.3-2.4,5.7c-1.7,1.4-3.6,2.1-6.2,2.1s-4.6-0.7-6.2-2.1C1122.9,572.9,1122.1,570.7,1122.3,568.7L1122.3,568.7z
	 M1143.8,576.3v-20.9h7.1c3.1,0,6,1,7.9,2.9c1.9,1.9,2.9,4.4,2.9,7.9c0,3.1-1,5.8-2.9,7.9c-1.9,1.9-4.5,2.9-7.9,2.9h-7.1V576.3
	L1143.8,576.3z M1147.5,572.9h3c2.1,0,3.8-0.6,5.2-1.9c1.3-1.3,1.9-3,1.9-5.2c0-2.2-0.6-4.1-1.9-5.2c-1.4-1.4-3.2-2-5.2-1.9h-3
	V572.9z M1165.5,576.3v-20.9h3.7v20.9H1165.5z M1173,565.5c0-3,1.2-5.6,3-7.7c2-2,4.6-3,7.9-3c5.8-0.1,10.5,4.5,10.6,10.3v0.4
	c0,3-1.2,5.7-3,7.9c-2,2.1-4.6,3-7.9,3c-3.1,0-5.7-1.2-7.9-3C1174,571.1,1172.9,568.4,1173,565.5L1173,565.5z M1177,565.5
	c0,2.1,0.6,4,1.9,5.2c1.3,1.4,3,2.1,4.9,2.1s3.7-0.7,4.9-2.1c1.3-1.4,1.9-3.1,1.9-5.2c0-2-0.6-3.7-1.9-5.2c-1.3-1.4-3-2-4.9-2
	s-3.7,0.6-4.9,2C1177.6,561.7,1177,563.5,1177,565.5z M1205.7,576.3v-20.9h7.1c3.1,0,6,1,7.9,2.9s2.9,4.4,2.9,7.9
	c0,3.1-1,5.8-2.9,7.9c-1.9,1.9-4.5,2.9-7.9,2.9h-7.1V576.3L1205.7,576.3z M1209.4,572.9h3c2.1,0,3.8-0.6,5.2-1.9
	c1.3-1.3,1.9-3,1.9-5.2c0-2.2-0.6-4.1-1.9-5.2c-1.4-1.4-3.2-2-5.2-1.9h-3V572.9z M1227.3,576.3v-20.9h12.4v3.1h-8.7v5.4h7v3.1h-7
	v5.6h9.2v3.1L1227.3,576.3L1227.3,576.3z M1251.3,576.3v-20.9h7.4c1.9,0,3.6,0.4,4.7,1.4c1.3,1,1.9,2.3,1.9,4c0,1-0.2,1.9-0.6,2.6
	c-0.4,0.7-1.2,1.4-1.9,1.9v0.1c1.2,0.4,1.9,1,2.5,1.9c0.5,0.8,0.8,1.9,0.8,3c0,1.9-0.6,3.6-2,4.5c-1.4,1.2-3.2,1.7-5.2,1.4
	L1251.3,576.3L1251.3,576.3z M1255.1,563.9h3.7c0.8,0,1.4-0.2,1.9-0.7c0.4-0.5,0.7-1.3,0.7-1.9c0-0.6-0.2-1.4-0.7-1.9
	c-0.4-0.5-1.2-0.7-1.9-0.7h-3.7V563.9z M1255.1,572.9h4.1c1,0,1.8-0.4,2.3-0.8c0.5-0.4,0.8-1.3,0.8-2.1c0-0.8-0.2-1.7-0.8-2.1
	c-0.5-0.5-1.3-0.8-2.3-0.8h-4.1V572.9z M1269.7,576.3v-20.9h6.8c1.9,0,3,0.2,4,0.5c1.2,0.4,1.9,1.3,2.5,2.1c0.6,1,1,2.1,1,3.6
	c0,1.3-0.4,2.5-1,3.6c-0.6,1.2-1.4,1.9-2.5,2.3l0.6,1.2l4.3,7.9h-4.3l-4.1-7.9h-3.6v7.9L1269.7,576.3z M1273.7,565.2h3.5
	c1.2,0,1.9-0.4,2.5-0.8c0.6-0.5,0.8-1.4,0.8-2.5c0-1.4-0.5-2.4-1.7-2.9c-0.7-0.3-1.6-0.4-2.4-0.4h-2.9L1273.7,565.2L1273.7,565.2z
	 M1286.4,576.3l7.3-20.9h4l7.3,20.9h-3.8l-1.9-5.2h-7.3l-1.9,5.2H1286.4z M1293.1,567.8h5.4l-1.9-5.6l-0.8-3.1
	c-0.4,1.4-0.5,2.5-0.8,3.1L1293.1,567.8z M1307.7,576.3v-20.9h3.7l7.9,12l0.7,1.4l0.7,1.3l0.2,0.5h0.1l-0.2-3.1v-12.2h3.7v20.9h-3.7
	l-7.9-11.8l-0.7-1.4l-0.7-1.3l-0.2-0.5h-0.1l0.2,3.1v11.8h-3.7V576.3z M1329.8,576.3v-20.9h7.1c3.1,0,6,1,7.9,2.9s2.9,4.4,2.9,7.9
	c0,3.1-1,5.8-2.9,7.9c-1.9,1.9-4.5,2.9-7.9,2.9h-7.1V576.3L1329.8,576.3z M1333.5,572.9h3c2.1,0,3.8-0.6,5.2-1.9
	c1.3-1.3,1.9-3,1.9-5.2c0-2.2-0.6-4.1-1.9-5.2c-1.4-1.4-3.2-2-5.2-1.9h-3V572.9z M1351.4,576.3v-20.9h3.7v20.9H1351.4z
	 M1360.3,576.3v-20.9h3.7l7.9,12l0.7,1.4l0.7,1.3l0.2,0.5h0.1l-0.2-3.1v-12.2h3.7v20.9h-3.7l-7.9-11.8l-0.7-1.4l-0.7-1.3l-0.2-0.5
	h-0.1l0.2,3.1v11.8h-3.7V576.3z M1381.1,565.8c0-3,1.2-5.6,3-7.9c2-2.1,4.6-3,7.9-3c3.1,0,5.7,0.8,7.9,2.6l-1.9,2.9
	c-0.6-0.5-1.4-1.2-2.5-1.4c-1.2-0.4-2-0.5-3-0.5c-2.3,0-4.1,0.6-5.2,2c-1.3,1.4-2,3.2-1.9,5.2c0,2.3,0.6,4.1,2,5.2
	c1.3,1.4,3.1,2,5,2s3.7-0.7,5.2-2.1v-2.5h-3.1v-3h6.7v11h-3.2v-1.8h-0.1c-1.8,1.4-3.8,2.3-6.2,2.3c-2.9,0-5.2-1-7.3-3
	C1382.1,571.4,1381.1,568.9,1381.1,565.8L1381.1,565.8z M1411,565.6c-0.2-5.8,4.4-10.5,10.1-10.7h0.5c3.1,0,5.8,1,7.9,2.9l-1.9,2.9
	c-1.6-1.4-3.6-2.1-5.7-2.3c-2.1,0-4,0.6-5.2,2c-1.3,1.4-1.9,3-1.9,5.2c0,2,0.6,3.8,1.9,5.2c1.3,1.4,3,2.1,5.2,2.1
	c2.2,0,4.3-0.8,6.2-2.6l2,2.9c-2.1,2.3-5.2,3.5-8.3,3.5s-6-1.2-7.9-3C1411.8,571.3,1410.8,568.5,1411,565.6L1411,565.6z
	 M1431.3,565.5c0-3,1.2-5.6,3-7.7c2-2,4.6-3,7.9-3c5.8-0.1,10.5,4.5,10.6,10.3v0.4c0,3-1.2,5.7-3,7.9c-2,2.1-4.6,3-7.9,3
	c-3.1,0-5.7-1.2-7.9-3C1432.3,571.1,1431.1,568.4,1431.3,565.5L1431.3,565.5z M1435.3,565.5c0,2.1,0.6,4,1.9,5.2
	c1.3,1.4,3,2.1,4.9,2.1s3.7-0.7,4.9-2.1c1.3-1.4,1.9-3.1,1.9-5.2c0-2-0.6-3.7-1.9-5.2c-1.3-1.4-3-2-4.9-2s-3.7,0.6-4.9,2
	C1435.9,561.7,1435.3,563.5,1435.3,565.5z M1456.6,576.3v-20.9h3.7l7.9,12l0.7,1.4l0.7,1.3l0.2,0.5h0.1l-0.2-3.1v-12.2h3.7v20.9
	h-3.7l-7.9-11.8l-0.7-1.4l-0.7-1.3l-0.1-0.4l0.2,3.1v11.8L1456.6,576.3L1456.6,576.3z M1200.7,608.8l2-2.9c0.6,0.6,1.4,1.2,2.5,1.7
	c1,0.4,1.9,0.6,2.9,0.6c1,0,1.8-0.2,2.3-0.6c0.5-0.4,0.8-1.2,0.8-1.8c0-0.7-0.4-1.4-1-1.9c-0.6-0.6-1.4-1-2.5-1.4l-2.9-1.3
	c-1-0.4-1.9-1.3-2.5-2c-0.6-0.7-1-1.9-1-3c0-1.9,0.6-3.1,2-4.4c1.4-1.2,3-1.8,5.2-1.8c2.3-0.1,4.5,0.7,6.2,2.3l-1.8,3
	c-0.5-0.5-1.3-1-2.1-1.3s-1.7-0.5-2.5-0.5c-1,0-1.8,0.2-2.4,0.6c-0.5,0.4-0.8,1-0.8,1.8s0.4,1.3,1,1.9c0.6,0.6,1.4,1,2.5,1.3
	l2.9,1.3c1,0.4,1.9,1.2,2.5,2c0.6,0.8,1,1.9,1,3c0,1.9-0.6,3.1-1.9,4.4c-1.4,1.3-3.2,1.9-5.2,1.9c-1.3,0-2.6-0.2-3.8-0.7
	C1202.6,610.4,1201.6,609.8,1200.7,608.8z M1218.6,611.4v-20.9h12.4v3.1h-8.7v5.4h7v3.1h-7v5.6h9.2v3.1L1218.6,611.4L1218.6,611.4z
	 M1235.1,611.4v-20.9h7.1c3.1,0,6,1,7.9,2.9c1.9,1.9,2.9,4.4,2.9,7.9c0,3.4-1,5.8-2.9,7.9c-1.9,1.9-4.5,2.9-7.9,2.9h-7.1V611.4
	L1235.1,611.4z M1239,608.1h3c2.1,0,3.8-0.6,5.2-1.9c1.3-1.3,1.9-3,1.9-5.2c0-2.2-0.6-4.1-1.9-5.2c-1.4-1.4-3.2-2-5.2-1.9h-3V608.1z
	 M1256.8,611.4v-20.9h12.5v3.1h-8.6v5.4h7v3.1h-7v5.6h9.2v3.1L1256.8,611.4L1256.8,611.4z M1280.7,611.4v-20.9h12.5v3.1h-8.7v5.4h7
	v3.1h-7v5.6h9.2v3.1L1280.7,611.4L1280.7,611.4z M1297.5,611.4v-20.9h3.7l7.9,12l0.7,1.4l0.7,1.3l0.2,0.5h0.1l-0.1-3.1v-12h3.7v20.9
	h-3.6l-7.9-11.8l-0.7-1.4l-0.7-1.3l-0.2-0.5h-0.2l0.2,3.1v11.8H1297.5L1297.5,611.4z M1326.8,611.4v-20.9h3.7v17.6h9.1v3.1
	L1326.8,611.4L1326.8,611.4z M1342.5,611.4v-20.9h3.7v20.9H1342.5z M1350.6,611.4l1.8-20.9h4.1l4.1,10.3l1.2,3h0.1l1.2-3l4.1-10.3
	h4.1l1.8,20.9h-3.8l-0.8-11.6v-3.1h-0.2l-1.3,3.1l-3.5,8.1h-3.4l-3.5-8.1l-1.3-3.1v3.1l-0.8,11.6H1350.6L1350.6,611.4z
	 M1374.3,611.4l7.3-20.9h4l7.3,20.9h-3.8l-1.9-5.2h-7.3l-1.9,5.2H1374.3L1374.3,611.4z M1380.8,603h5.4l-1.9-5.6l-0.8-3.1
	c-0.4,1.4-0.5,2.5-0.8,3.1L1380.8,603z M1393.9,614.4l2-6.8h3.7l-2.9,6.8H1393.9z M1403.9,611.4v-20.9h8c1.9,0,3.6,0.6,4.8,1.9
	c1.3,1.3,1.9,2.9,1.9,4.9s-0.6,3.7-1.9,4.9c-1.3,1.3-3,2-4.8,1.9h-4.3v7.1L1403.9,611.4L1403.9,611.4z M1407.9,600.8h3.6
	c1.2,0,1.9-0.4,2.5-1c0.6-0.6,1-1.4,1-2.6c0-1.2-0.4-1.9-1-2.5s-1.4-1-2.5-1h-3.7L1407.9,600.8L1407.9,600.8L1407.9,600.8z
	 M1422.1,611.4v-20.9h12.5v3.1h-8.7v5.4h7v3.1h-7v5.6h9.2v3.1L1422.1,611.4L1422.1,611.4z M1438.6,611.4v-20.9h6.8
	c1.9,0,3,0.2,4,0.5c1.2,0.4,1.9,1.3,2.5,2.1c0.6,0.8,1,2.1,1,3.6c0,1.3-0.4,2.5-1,3.6c-0.6,1.1-1.4,1.9-2.5,2.3l0.6,1.2l4.3,7.9
	h-4.3l-4.1-7.9h-3.7v7.9L1438.6,611.4z M1442.4,600.2h3.5c1.2,0,1.9-0.4,2.5-0.8c0.6-0.5,0.8-1.4,0.8-2.5c0-1.4-0.5-2.4-1.7-2.9
	c-0.7-0.3-1.6-0.4-2.4-0.4h-2.9L1442.4,600.2L1442.4,600.2z M1457.1,603.9v-13.3h3.7v13.3c0,1.4,0.4,2.5,1.3,3.1
	c0.8,0.7,1.9,1.3,3.5,1.3c1.4,0,2.5-0.4,3.5-1.3c0.8-0.7,1.3-1.9,1.3-3.1v-13.3h3.7v13.3c0,2.4-0.7,4.3-2.4,5.7s-3.6,2.1-6.2,2.1
	c-2.6,0-4.6-0.7-6.2-2.1C1458.1,608.2,1457.1,606,1457.1,603.9L1457.1,603.9z M1463.9,589.2l2.3-4h3.8l-3,4H1463.9z"/>
</svg>
