<?xml version="1.0" encoding="utf-8"?>
<!-- Generator: Adobe Illustrator 25.3.1, SVG Export Plug-In . SVG Version: 6.00 Build 0)  -->
<svg version="1.1" id="Capa_1" xmlns="http://www.w3.org/2000/svg" xmlns:xlink="http://www.w3.org/1999/xlink" x="0px" y="0px"
	 width="800px" height="1000px" viewBox="0 0 800 1000" style="enable-background:new 0 0 800 1000;" xml:space="preserve">
<style type="text/css">
	.st0{fill:#CCCCCC;}
	.st1{fill:#FFFFFF;}
</style>
<ellipse class="st0" cx="506.2" cy="911.4" rx="131.4" ry="32.5"/>
<path d="M357.9,864.9c-0.3-0.1-0.7-0.2-1-0.1c0.1-0.3,0.2-0.7,0.4-1.1c-0.4-1.7,0.4-3.6,1.7-4.6c0.7-2.7,0.7-5.4-2.3-7.1
	c0.6,4.6-0.6,9.1-3.8,12.3c-5.2-17.2-7.2-34.6-11.8-51.9c-6-20.5-9.8-42.6-11.7-65.1c-0.6-6.4-1.2-12.8-5.9-17.5
	c-2.3-1.7-3.3-4.2-4.4-6.7c-1-2.3-2-4.7-4-6.6l-0.1-0.1H315c-2.2,0-4.5,0.1-6.9,0.2c-1.1,2.3-2,4.7-2.3,7.3c-9.1,0.5-18.1,0.1-27,2
	c-1.5-2.4-3.2-4.7-4.7-6.9c-5.1-0.3-9.8,2.7-10.8,7.3c-1,3.2,1.3,5.6,2.8,8.1c-12,15.2-21.1,37.9-24.8,59c-0.6,3.4-1.2,7.1-2.2,10.5
	c-1.3-4-1.1-8.3-1.7-12.5c-4.4-23.6-3.5-47.6-5.4-71.4c0.3-10.6-0.6-21.4-1.5-31.7c-0.5-5-1-10.1-1.2-15.2c-0.1-5.7-3.4-11.3-2-17.1
	c1.5-8.6,2-17.2,3.7-25.8c7.1,1,14.3,1.5,20.1-2.5c1.5,2,5.2,5.7,9.1,2.8c-0.7-1.3-1.5-2.7-2-3.8c0.6-0.6,1.3-1.5,2-2.2
	c0.3,1.8,1,3.5,1.8,5.1c0.8-3.7,3.2-8.1,0-11.3c1.5-0.7,2.9-1.3,4.2-2c-1.2-0.8-2.4-1.5-3.7-2.4c-2.2,2-5.1,2.5-7.8,3.5
	c-0.3-1.5-0.8-3.7-1.2-5c4.6-2,10.1-2.3,15.2-0.8c1,4.4,1.2,9.3,4.9,12.3c7.3,7.8,18.7,8.1,24.9,7.4c13.5-1.3,20.9-11.6,17.5-24.3
	c0.5-0.5,1.3-1.5,1.8-2c8.6,13.9,14.2,28,18.9,42.6c2.4,6.9,5,14,5.9,21.4c-26,11.8-53.1-14.2-73.1-5.5c-8.6,5.7-14.9,14-23.9,19.2
	c-4.4,2.2-9.1,3.3-13.7,5.2c0.1,5,4.2,8.8,8.1,10.6c3.9,0.7,7.8,0,12-1c0.8,2.3,0.1,5.7,3.2,6.7c4.2,2,8.2-0.6,11.5-2.7
	c0.5,3.5,1,9.3,5.9,9.1c4.9,0.8,7.7-3.4,11-6.1c0.6,2.4,0.8,5.1,2.4,7.2c1.5,2.9,5,1.3,7.6,1.5c1.8-2,3.7-4.2,5.9-6.9
	c1,3.5,2.4,6.4,4.2,8.8h4.4c2-2.5,4-5.2,6.6-8.6c0.5,2.9,2.7,8.2,7.1,6.9c1.8-1.5,3.3-3.5,4.7-5.4c1.2,1.8,1.7,4.7,4.2,5.4
	c2,1,4.5,0.8,5.7-1.1c6-7.4,8.3-16.9,10.8-25.8c2.4,6.3,3.3,12.9,4.5,19.5l3.2-2c-1.7-8-3.9-15.7-5.1-23.9c0.7,0,1.5,0.1,2.2,0.1
	c-0.2-0.7-0.4-1.3-0.5-2c-0.1-0.6-0.2-1.1-0.2-1.6c-0.7,0-1.5,0-2.1,0.1c-2.8-13-7.1-25.4-10.5-34.8c0.2-0.2,0.6-0.4,0.9-0.6
	c-0.4-1-0.6-2-0.5-3.1c0-0.4,0-0.9,0.1-1.3c-0.6,0.3-1.1,0.6-1.6,1c-2.8-6.8-5.2-13.8-7.6-20.5c0.3-0.2,0.7-0.2,1-0.4
	c-0.9-1.2-1.3-2.9-1.2-4.5c-0.5,0.2-1,0.2-1.5,0.4c-2.2-4-4.6-7.8-6.8-11.7c1.3-0.8,2.8-2,4.5-2c5.2-0.3,8.4,4.9,12.2,7.9
	c-0.3-4.7-4.4-8.6-7.7-10.6c-3.9-2.2-7.9,0.2-11.6,1.5c-1.5-2-2.9-4-4.2-6.2c0.8-7.4,0.8-14.2,0.1-20.7c0.1,0,0.2-0.1,0.2-0.1
	c-0.4-1.1-0.5-2.4-0.2-3.7c-0.5,0.2-1,0.2-1.5,0.4c-0.2,2-1.3,3.9-3.3,4.8c0.6-0.1,1.1-0.2,1.7-0.3c-4.2,5.9-7.6,10.6-10.8,15
	c-0.1-0.2-0.1-0.4-0.2-0.6c-1,1.2-2.4,2-4.5,2c-0.7,0-1.4-0.1-2-0.3c-18.1,2.2-36,5.7-53.7,9.1c-1.5-1.8-2.5-3.9-3-6.1
	c-5.5,0.2-8.4-5.1-12.2-8.3c-0.5,1.1-0.8,2-1.3,3.2v0.2c1.8,6.9,5.5,13,8.1,19.7c-1.7,3.9-7.3,4.4-10.8,6.4
	c-0.5,3.5-1.2,7.2,0.1,10.6c1.5,2.2,3.5,3.9,5,6.1c-0.1,8.4-1.8,16.6-2.9,25c-0.7-0.8-1.5-1.8-2.3-2.7c0.3-3.4,0.5-6.9,0.5-10.6
	c-5.9-2.8-9.5,3-12.5,7.2c-2.3-0.2-4.7-0.5-6.6-0.7c-0.8-1.5-1.8-3.3-2.7-4.9c3.3-3.5,5.4-7.3,6.1-11.3c-9.1-5.6-20.1,2.3-23.3,5.1
	c-3-0.3-6.4-0.3-9.1-2c-4.5-2.4-9.8-3.8-15.9-4c-2.9,0.1-4.7,2.8-6.4,5.2c1.3-0.2,2.7-0.5,4-0.8c7.4-2.4,13.7,1.1,19.7,5.1
	c-0.8,3.3-1.5,6.4-2.2,9.3c-2-0.8-4-1.5-6.1-2.3l0.3,2.9c-2.3-0.5-4.5-1.1-6.8-1.8c1.5-1.2,3.3-2.5,5.2-3.9
	c-3.8-2.3-8.6-3.5-10.8-7.7c-0.8,0.7-1.8,1.5-2.7,2.2c1.5,1.8,2.8,3.5,4.2,5.1c0,2.4,0,4.9,0.1,6.9c-4,0.2-7.9,0.7-12,0.5
	c-0.8-0.5-1.7-1.1-2.4-1.8c-1.5-1.5-3-2.8-5.2-2.8c-3.9,1.5-4.7,6.1-5,10.1c-0.3,7.4-1.5,14.7-2.3,21.9c-1.2,9.9-0.6,19.7-2,29.7
	c-9.4-8.6-13.5-21.7-24.4-28.8c-4.6-3.3-10.4-3.5-15.7-4.4c0.1-1.5,0.2-3,0.5-4.5c3-1.2,6.1-2.3,9.1-3.8c-2.2-1.3-4.5-2.5-6.8-3.8
	c0.2-3.2,0.6-6.4,0.3-9.6c-1-5.5-4.6-10.5-9.5-13.3c-3.7-1.8-6.9,0.6-9.8,2.5c-1.7,1.3-4.2,0.2-6.4,0.3c0,0.8,0.1,2.3,0.1,3.3
	c-1.1,2-1.8,4.6-2,7.2c1.1-1,2.2-2,3.3-3.2c-0.1,0.2-0.1,0.3-0.2,0.5c0.3,1.5,0.6,2.9,0.8,4.4c1.7,10.4,2.8,13.9,14,15.2
	c0.5,2,1,4,1.5,6.1c-4.5,1.5-7.9,7.7-6.6,12.1c3.8,4.5,9.6,4.2,14.5,6.4c8.6,11.3,13.2,25,24.1,34.4c3.3,3,6.6,6.2,11.1,7.1
	c-0.1,2.2-0.3,4.4-0.6,6.8c-5.9,1-13,3-17,8.6c-4.2,5.6-7.2,12.2-8.6,18.8c-2.2,9.5,0,19.2,0.6,28.7c-10.3,0.5-17.9,2.9-23.4,7.6
	c-4.6,3.4-6.6,8.9-8.6,14.2c-10,2.1-21.4,5.5-29.6,13c-10.7-4.6-22.7-7.6-35.8-8.9c0.1,1.1,0.3,2.1,0.4,3.2
	c18.5,1.8,37.4,7.4,53.4,19.9l2.3-2.7c-4.8-3.8-10.1-7-15.7-9.9c8.2-5.2,18-11,28.9-11.7c11.6-1.2,23.6,5.1,29.3,15.4
	c2.7,5.1,2.2,11.1,2.5,16.7c-4.4,0.1-6.6,3.7-8.8,6.9c-2.3,3.4-4.4,6.7-8.8,6.4c-5,0.2-8.4-4-12.8-5.6c-3.8-1.3-6.4,2.2-7.9,4
	c2.9,0.7,5.5-1,8.1-2c5.1,3.3,10.5,7.4,17,6.2c3.2-1.5,5-4.4,6.7-7.1c1.7-2.7,3.3-5.1,6.1-6.6c-0.1,5.1-2.3,9.6-3,14.5
	c2.3-0.2,2.9-2.8,3.9-4.5c2.3,4.4,7.6,3.3,11.6,3.5c0.1-0.3,0.2-1,0.2-1.3c-4.7,0.6-10.3-1-11-5.9c0.6-4.5,2.9-8.6,3-13
	c0.2-4.2-1.1-8.4-2.7-12.8c5.9-2.3,14.3-4.2,21.6-0.6c10,4,18.2,13.3,22.1,24.9c-0.2,0.2-0.6,0.7-0.8,1.1c-7.9,1.7-15.7,4.2-20,10.8
	c2.3-0.5,4.5-0.8,6.7-2.2c9.4-6.2,21.1-6.8,32.4-6.7c7.6,0.1,14.3,3.7,21.6,4.7c-1.3-8.3-3.4-16.4-4.6-24.6c1.5,1.3,3.2,2.8,5,4.5
	c0.3,6.8,1.7,13.5,2.9,19.2c0.5-0.5,1.2-1.2,1.7-1.5c-0.6-5.5-1.2-11-1.8-16.6c1.7,0.5,4.7,0.2,4.9,2c0.7,5.2,1.1,10.6,2.7,15.7
	c7.1-6.4,13-14.3,21.6-18.5c5.5-2.5,12.5-2.4,20.6,0.2c6.1,2,10.1,7.2,14.7,11.5c-0.6,0.7-1.1,1.5-1.7,2.3c0.7,0.5,1.4,1,2,1.5
	c0.2,0.2,0.4,0.3,0.6,0.6c4.3-3.1,9.9-5,15.4-2.1c-1,3.7-1.3,6.1-1.5,9.1c3.8-4.6,5.2-10.4,8.6-15.2c4.7-6.8,9.6-13.3,16.9-16.7
	c7.8-3.8,19-4.6,26.6,2.2c4,3,7.1,7.1,10.1,11c3.7,4.9,7.6,9.9,13.2,13c1.7,0.3,3.5,0.5,5.5,0.7l-2.9,4c3.4-0.7,6.2-2.7,8.4-6.2
	c2.5,1.7,4.6,3.3,6.4,5C361.5,870,359.6,867.5,357.9,864.9z M257.9,618.1L257.9,618.1c0.7,0.6,1.7,1.5,2.4,2
	c-0.3,0.5-0.7,0.8-1.2,1.2c-1.3,1.7-2.7,3.3-3.2,5.5c-0.1,0.8-0.3,1.7-0.8,2c-0.2,0.1-0.5,0.1-0.8,0
	C251.8,625,255.3,621.3,257.9,618.1z M333.1,710.1l-2.5-1.8c0.3-0.6,0.8-1.2,1.2-1.7c1.5-2.2,3-4.4,3.3-7.2
	c-2.2,1.5-3.4,4.2-5.1,6.2c-0.2-3-1.2-7.1,1.7-8.9c3.4-2.5,7.3-5.6,9.8-10c0.5,0.3,0.8,1,1.3,1.5
	C340.8,697.4,337.6,704.6,333.1,710.1z M343.7,671.5L343.7,671.5c0.7,3.4,0.5,6.9,0.2,10.4c-0.1,1-0.2,1.8-0.2,2.8
	c-1.2,0.6-2.4,0.8-3.8,0.7c-3.8,3.4-7.2,7.7-12.5,8.6c-0.7-4.6-0.1-8.6,1.8-12.1c-5.5,2.9-9.5,7.7-15.2,10.3
	c-0.7-4.6-0.3-8.9,0.8-13c-6,3.7-11.6,8.4-18.7,9.9c0.2-4.6,2.4-8.6,3.2-13c-6,3.4-11.3,9.1-18.8,8.8c0.1-4.2,2.2-7.7,3.2-11.6
	c-3.2,1.2-6.2,3-9.1,4.7c-2.2,1.3-4.4,2.7-6.7,3.8c-1.1-0.1-3.3-0.1-4.4-0.2l-1.8,2.9c5.6,4,11-1.5,16-3.9c0.1,2,0.2,4,0.3,6.1
	c5.1,5.1,11.1-0.2,16.1-2.9c-0.2,2.2-0.5,4.5-0.7,6.7c0.8,0.6,2.3,1.7,3.2,2.3c5.2-1.2,9.5-4.2,13.9-7.1c0.2,3.8,0.1,7.9,3.5,10.5
	c3.7-1.8,6.7-4.5,9.8-7.1c0.2,1.7,0.5,3.8,0.6,5.6l3.4,3.4c-1.8,3.7-3.9,7.7-6.9,11c0.5-3.4,0.7-7.2,0.2-10.8c-2.7,2-1.5,5-1.5,7.7
	c-3.3-1.5-2.2-6.7-2.5-10c-5.1,4.2-5.5,12.5-11.7,15.5c1-4.9,3.3-9.4,2.7-14.5l-2.4,1.7c-0.2,3.2-0.3,6.4-2,9.3
	c-1.2-3.9-1.8-8.1-1.7-12.3c-2.7,3.2-4.5,6.8-7.2,10c-1.5,1.8-3.3,3.9-5.9,3.4c1.8-4.5,6-8.1,5.6-13.5c-2.9,2.9-3.9,7.1-6.2,10.5
	c-1.7-3.5-1-7.7-1.1-11.5c-4.9,3.9-8.1,12.2-15.2,11.7c3.3-4.4,7.2-8.6,8.1-14.4c-3.5,3.3-5,8.2-8.6,11.3c0.2-3.3,0.6-6.4,0.8-9.8
	c-2.8,1.1-5.2,2.9-7.7,4.6c-1,0.7-2,1.3-2.9,2c-0.6,0.8-2.8,1.5-3.9,1c-0.5-0.2-0.7-0.6-0.7-1.1c4.9-3.4,10.1-6.7,12.5-12.5
	c-3.9,2.8-7.1,6.4-11.1,9.1l0.8-5.4c-6.2,0.1-11.5,4.7-17.7,4.5c5.5-4.9,15.2-4.5,17.2-13c-6,5.2-13.5,8.3-20.4,11.8
	c-1-1.2-1.8-2.7-2.7-4c8.9-2,17.6-6.7,25.5-13.7c0.1,2,0.1,4.5,0.2,6.4c2-1.7,2.3-4.2,2.4-6.6c0-0.8,0.1-1.8,0.2-2.7
	c4.2-5.1,8.6-8.2,13-8.8c18.9,0,35.1,12.7,54.3,10.8C336,675.9,341.1,675.7,343.7,671.5z M309.1,623.1c-7.2,4.6-17.4,5.4-27.8,2.2
	c-4.2-1.1-7.7-4.6-9.1-9.1c-0.8-3.9,3.3-6.1,6.4-7.9c6.2-3,12.2-4.6,17.6-4.6c7.2,0.1,17.1,3,17,11.7
	C313.2,618.6,311.6,621.5,309.1,623.1z M230,593.4c3,2,5.2,5,7.2,7.9c4.9,0.1,9.8-1,14.4-2c16.7-3.7,34.7-7.6,53.5-8.2h0.1
	c2-2.3,3.3-5.5,5.6-7.6c-0.2,3-0.8,6-0.6,9.1c1.3,3.2,3.4,5.9,5.2,8.6l-2,2.9c-6.4-5.4-15.5-6.4-27.6-3.5c-4.2,1-7.9,3.4-12.1,4.7
	c-1.3,1.3-2.5,3-4,4.2c-6.9-1.3-13-1.2-18.4,0.6c-6-3-10.8-4.4-16.5-3.8C235.2,601.6,231.4,598,230,593.4z M233.9,611L233.9,611
	l0.2-0.1c4.6-0.1,9.5-0.3,13.5,2.4c2,1.1,3.8,3.4,4,5.6c0.1,1.1,0,2.7-1.5,4c-5.6,6.4-15.2,4.6-19.2,3.4
	C232,621.3,232.5,616.1,233.9,611z M330,788.4c-2.2,2.9-6.6,7.6-12.2,6.8c-1-1-1.7-2.7-1-4.2c2.7-3.8,6.7-6.7,11.3-7.9
	C328.9,785.2,329.5,786.7,330,788.4z M315.4,798L315.4,798c-4.6,3.7-8.1,8.2-12.2,12.2c1.7-8.3,4.2-16.1,6.2-24.1
	c5.4-3.8,9.9-8.6,15.7-12.1c-0.8,2.5-1.7,5.1-2.8,7.6c-0.7,0.8-1.5,1.5-2.4,2.2C313.9,788.2,314.7,791.4,315.4,798z M297.9,799.7
	h-0.2c0.1-5-6-7.9-10.4-6.4c-2,0.8-3.5,2.3-5.2,3.5c-1.3-2.8-1.5-5.9-1.7-8.8c8.9-0.2,17.7-0.8,26.6-1c-2.4,8.4-4.9,17-7.1,25.5
	c-4.4,1.2-8.8,1.8-13,2c2.2-3,4.9-5.7,6.4-9.3C294.2,803,296.2,801.4,297.9,799.7z M329.2,781.3c-1.3-0.3-2.7-0.6-4.2-0.8
	c0.7-2.2,1.8-4.2,3.3-5.9C328.5,776.5,328.9,778.6,329.2,781.3z M223.5,616.2c1.8-1,3.8-2,5.7-2.9c-0.2,1.3-0.5,2.7-0.7,4.2
	c-0.3,2.3-0.8,4.6-1.2,7.1C223.6,623,223.3,618.8,223.5,616.2z M186.2,637.1L186.2,637.1c4.2-3.5,9.3-4.9,12.8-5.4
	c1.3,0.6,2.5,1.3,3.8,2.2c-2.2,3.2-5.2,5.6-8.2,8.1c-1,0.8-2,1.5-2.9,2.4c2.4,0.5,5.4,0.7,6.8,2.9c-5.4,2-10.6-3.2-15.9-0.7
	C183.3,643.4,183.2,639.3,186.2,637.1z M182.2,639.1c-0.6,3-1.2,6.1-2,9.1c-1.5,0.6-3.2,1-4.9,1.1
	C175.7,645.8,177.3,640.2,182.2,639.1z M77.5,667.1c-2.7-0.7-5.4-1.5-6.2-4.2c-2.4-6-2.4-12.3,0.1-17c1.2-2.8,4.2-4.6,7.7-4.6
	c3.8,2.4,9.9,7.8,10,15.7c-2.9-0.2-5.7-0.7-8.6-1c-1.5,1-2.5,2.2-3.7,3.4c0.6,2.7,1.2,5.4,1.8,7.9C78.3,667.3,77.8,667.1,77.5,667.1
	z M79.2,660.5c0.1-0.8,0.6-1.5,1.5-2.2c2.2,0.3,4.6,0.6,7.7,0.6c-0.1,1.8-0.2,3.8-0.2,5.6c0.5,0.7,1.5,2,2,2.9
	c-2.5,0.3-5.2,0.4-7.8,0.4C81,665.6,78.7,662.9,79.2,660.5z M86,675.7c-1-0.1-2,0-3,0.3v-0.1c0-1.5,0.1-4,0.2-5.6
	C86,670.3,85.7,673.5,86,675.7z M110.3,720.4c-8.1-8.9-11.6-20.7-19.9-29.4c-4.4-1.5-10.5-1.2-13-5.9c3.4-6.7,12.7-7.7,19.7-5.2
	c14.9,6.4,19.2,23.2,30.9,32.9c-0.7,4.5-1,9.1-1.3,13.5c-0.1,2.3-0.2,4.6-0.5,6.9C119.8,730.7,115,725.5,110.3,720.4z M119.9,833.1
	c-5.6,0-10.4,0.7-14.5,2.3c-1.5,1.2-2.3,0-2.9-1.3c-3.3-5.4-8.4-9.8-14.9-12.1c-5.1-2-10.5-1.2-15.7-2c5.7-12.7,15.2-17.4,29.5-17.6
	C118.9,803,127.3,817.6,119.9,833.1z M151.3,864l-2.2-1.8c-0.1-3.9-0.2-7.4-2-10.4c-5-8.6-13.5-15.2-24.1-18.9
	c3.3-7.8,0.8-16.6-1-21.2c-3-7.6-11.1-10.1-17.9-13.5c-0.8-6.1-1.5-13-1.8-20.6c0.1-13.5,13.2-34.4,28.9-27.6
	c6.8,3.9,9.4,12.3,11.3,18.4c1.3,4.6,4,9.8,1.5,14.3c-5.4,1.5-11.1,0.5-16.6,0.8c0.7,0.7,1.5,1.5,2.3,2.4c5.7-0.7,11.7,1.2,17-2.2
	l3.3,14.7c-6.8,2.7-14.8,1.5-20.4-3.4c0-3.7,0.8-7.7-2-10.6c-2.5,10.3,2.2,20.1,4.2,30l-4.7,0.7c0.3,5.4,4.5,8.6,8.6,11.5
	c1.8,1.3,2,1.3,1.2,3.7c-1.7,3.9,1.5,5,4.2,6.8c0.1,1.3,0.3,2.9,0.7,4.6c0.7,1,1.7,1.5,2.7,2c1.5,0.7,2.8,1.3,2.8,3
	c0.2,2.9,2.8,4,4.9,5.4c0.1,1,0.3,2.7,0.5,3.5c1.8,2,3.9,4.2,4.9,6.8C155.4,863.3,153.3,863.6,151.3,864z M146.8,803l3.7-1.2
	c1.5,4.6,2.4,9.3,3.5,14.8c-2.5-0.7-5.7-0.7-7.7-2.7C146.9,810.7,147.1,807.4,146.8,803z M144.4,813.7c-1,0.3-2,0.2-3.3-0.5
	c-0.3-3.5-0.8-6.9-1.2-10.4C145.7,802.2,144.5,809.6,144.4,813.7z M138,813.5c-1.1,0-2.8,0-3.8,0.1c-1.1-4.2-1.7-8.4-2.8-12.6
	c2.2,0.6,4.9,0.8,5.7,3.2C138,807.1,137.8,810.5,138,813.5z M184.7,867.4L184.7,867.4c-6.4-2.4-12.8-3.4-19.2-4.9
	c-2-2.5-7.6-4.2-5-8.2l-0.5-0.1c-0.7-0.3-2-0.8-2.7-1.2c3.7-4.5-3-4.9-6.4-5.7c1-1.3,1.8-2.5,2.7-3.9c-2.5-1.5-5.5-2-8.4-2.9
	c-0.2-2.2,3-3,3.8-5c-2.9-1.5-6-2.5-9.1-3.7c2.7-1.5,5.7-2.9,7.2-5.9c-5.5-1.5-11.6-3-15.2-7.8c7.7-1.1,15.2-0.3,21.6,2.2
	c-1.5,7.9,0.7,17.1,6.8,27.1c2,3,4.7,7.4,9.1,5.7c-9.1-7.7-14.3-19.7-14-32.2c3.7,1.1,7.8,0.3,11.3,1.8c2.5,11.8,3.2,24.1,4,36
	c0.2,2,0,4.6,2.9,5.1c-0.2-16.5-2.3-32.6-3.4-48.9c-1.5-11.6,0-22.6,13.2-26.3c17.4,0.1,18.5,19.4,21.4,32.2c-0.6,1-1.3,2.2-2,3.3
	c-3.8,0.1-8.3,0.1-12.7-1c-2.3-0.5-4.7-1.5-6.9,0c-4.9,3-4.2,9.4-4.2,14.4C180.6,847.6,182.5,857.7,184.7,867.4z M186.4,845
	L186.4,845c-6.4-6.1-3.8-16.4-2.7-19.7c7.2,0.1,14.4,3.8,21.4,0c1,7.1,3.3,13.9,2.8,21C201.7,850.2,191.9,850.9,186.4,845z
	 M203.4,858.9L203.4,858.9l-0.1,0.3c0.3,2.5-1.2,4.5-2.7,5.9c-0.8-4.6-1.8-8.6-2.8-12.1c1.2-0.1,3.2-0.1,4.2-0.2
	c0.3,1.5-0.6,5,2.2,4.6c0.7-1.8,0.8-3.7,0.5-5.5c1.5-0.6,3.2-1.3,5-1.8C210.5,854.1,207.6,858.5,203.4,858.9z M212.3,852.1
	c-1.5-5.6-1.8-11.3-2.4-17c-0.7-4.2-1.3-8.3-2-12.3c-1.2-8.6-2.5-17.5-5.5-25.8c-1.8-5.1-6.2-8.4-10.5-11c4.6-8.6,9.9-14,16.2-16.1
	c3.3-1.3,7.8-0.6,9.6,2.8c2.8,5,3.8,10.8,5,16.4c0.1,1.7,1.3,4.2-0.5,5.1c-3.7,2.5-9.1-1.3-12.5,2.3c-3.4,3.7-3.2,9.1-2.4,13
	c1.5,6.4,3.4,12.7,5.2,18.8c1.8,6.4,3.9,13,5.4,19.7C216.2,849.4,214.5,850.8,212.3,852.1z M221.1,846.9L221.1,846.9
	c-1.7-7.2-3.9-14.5-6-21.4c-1.5-5.1-3.2-10.3-4.5-15.5c-1.1-3.7-0.8-7.8,0.6-11.6c4.6-0.6,9.1-0.6,13.7-1.5
	c2.9,16.6,6.6,32.6,9.5,49.2C229.7,845.1,225.2,845.4,221.1,846.9z M236.6,837.6L236.6,837.6c-2.9-17.2-6.8-33.9-10.4-50.9
	c-1.3-5.9-2.5-12.1-6.1-17.2c-2.2-2.7-5.2-3.5-7.8-3.4c-12-0.1-18.5,10-23.1,18.8c-8.1-0.2-16.1,4.5-20.4,12c-1.1,2-2.9,3.7-4.6,5.2
	c-2,1.7-3.9,3.5-5,6c1.7,0.7,3.4,1.3,5.1,2c-1,2.3-4.6,5.2-0.8,6.8l0.8-1.2c0.6-1.5,1.5-3,2.9-4.6v3.5l-1.8,1.1
	c0.2,1.2,1.1,2,1.8,2.7c-1.7,0.1-3.4,0.1-5.1,0.2c-9.1-19.7-8.9-41.8-17.5-61.6c-3.3-6.8-9.4-11-14-13.2c1.3-7.7,1.5-15.2,2-22.8
	c1.3,0.7,2.4,1.7,3.5,2.7h4.6c2.7,6.7,6.8,12.7,10.8,18.5c4.2,5.9,6.7,12.6,14.7,13c6,6.9,11.7,11.5,18.4,12.7
	c4.6,0.6,10.4,1.1,13.7-3.2c-5.5,0-11.1,1.3-16.2-1c-9.6-4.6-17.4-13-21-22.7c-1.8-4.9-1.7-10.3-4.6-14.8l2.9-2.7
	c5,0.1,9.1,2.7,13.2,5.4c3.3,2,6.8,4.4,10.8,5.1c8.4,2,18.1-1,24.4-7.7c-0.2-0.8-0.6-2.2-0.8-3.2c-5.1,4-10,9.4-17,9.5
	c-5.5,0.2-10.1-2.7-14.5-5.4c-2.7-1.7-5.5-3.4-8.6-4.5c-4.5-0.8-4.6-6.4-6-10c0.6-0.7,1.5-2,2.3-2.9c-0.1-2.2-0.2-4.5-0.3-6.4v-0.1
	l-0.1-0.1c-1.8-1.7-3.8-3.4-5.6-5.1c-3,0.1-6.1,0.1-8.9,1.5c0.5-4,1-8.3-0.5-12.2c-0.8,4.2-1.1,8.6-1.5,12.8
	c-2.2-0.1-4.6-0.8-6.8,0.1c-2.3,1.7-3.4,4.4-3.4,7.7c-0.8,1.2-1.7,2.5-2.5,3.9c-1.1-14.7,1-29,2-43.5c0.2-6.1,2-12,2-18.1
	c1.7,1.7,3.2,3.9,4.2,6.4c18.5-4.2,37.4-4,56.3-4.9c5.2,0,10.3,1.3,15.5,0.3c1.1-1.8,0.7-5.6,3.3-5.9c0.1,3.4-0.6,7.2,1.5,10.3
	c5.1,7.4,5.5,16.7,7.3,25.3c1.3,7.1,0.2,14.3,0.8,21.4c0.6,8.6,1.5,17.2,1.2,26c0.6,17.6,2.7,34.9,3.8,52.4
	c0.7,10.6,1.5,21.4,3.5,32.1c0.1,4.4,0.8,8.6,1.5,13c0.7,5,1.5,10.3,1.5,15.5C237.5,841,236.9,839.3,236.6,837.6z M166.8,808.1
	c-1.8-0.3-3.4-0.8-5-1.3c1.5-1.3,3.2-2.4,4.9-3.5C166.8,804.9,166.8,806.6,166.8,808.1z M137.7,706.1c1.5-3.3,4.6-5.2,8.2-4
	c-1.1,2-2.4,4.2-2.8,6.6c0.3,2.8,1.8,5.1,3,7.6c-2.5,3-5.1,6.4-9.5,5.6c-1-2-2.3-4.2-1.5-6.7c0.5-4.9,5.4-7.1,8.2-10.6
	C141.3,704.9,139.3,705.6,137.7,706.1z M152.6,728L152.6,728c1.2,0.6,2.4,1.1,3.7,1.7c0.6,3.9,1,7.8,2.2,11.6c1,3.3,3,6.1,3.8,9.5
	c-2.3-1.8-3.9-4.4-5.5-6.8c-0.7-1.2-1.5-2.5-2.4-3.7c-3.9-5.5-6.9-11.3-10.5-16.9c2.2-6.6,9.4-8.9,15.7-8.2c0.5,1.8,1.1,4,1.8,6.2
	c-4.2-0.1-6.9,3.3-8.9,6.2L152.6,728z M158.4,713.3c-3.9,0.3-7.1,0.7-9.9,1.3c-1.3-2-3.3-4.5-2.7-7.1c1.1-2.5,2.9-4.7,4.4-7.1
	c1.8-0.1,3.7-0.5,5.5-0.2c2.7,1.3,4.2,4.2,5.6,6.7C160.4,709,159.4,711.2,158.4,713.3z M273.7,862.1L273.7,862.1
	c-4.9-3-11-3-16.1-0.1c-3.5-7.2-8.8-12.1-15-13.9c-0.8-6.4-2.4-12.8-2.7-19.4c-0.2-6.7-2.5-13-2.7-19.7c9.3-1.8,17,7.1,18.3,15.9
	c-2.7,1-5,2.9-6.8,5.2c9.1-1.8,12.3-4,20.1,2.9c-2.8,1.5-5,5.1-8.6,4.6c-3-0.6-5,1.8-6.4,3.8c3.8,0.2,8.6-1.5,11.1,2
	c-0.2,1.1-1.3,1.7-2.4,2.3c-1.5,0.7-3,1.8-3.2,3.9c3.5-1.1,7.8-1.5,12.3-1.5c-1.5-1.3-3-2.7-4.6-3.9c-0.7-2-1.5-4-2.3-5.6
	c5-4.2,11.1-1.7,15.2,1.5c-1.1-2-2.2-3.7-3.7-5.5c-3.2-0.2-5.6-2.3-7.4-6.4c9.9-2.3,15.4-0.1,22.3,6.6c1.3,1.2,2.7,2.4,4.2,3.5
	c0.1-6.2-5.2-9.5-9.8-12.3c6-4.5,14.3-5.6,21.4-2.7c7.1,3.2,10.3,10.4,11.5,14.8C296.8,831.3,282.5,844.2,273.7,862.1z M332,848.1
	L332,848.1c-3-3.5-6.7-6.2-10.4-9.1c-1.2-7.9-6.4-17.2-15.7-20c-7.4-2.5-16.6-0.7-23.8,4.7c-1.7,0.3-3.5,0.3-5.2,0.5
	c-3.2,0.1-6.4,0.2-9.3,2.3c-3-1.3-6.6-2.3-10.5-3c0.3-8.9-6.6-15.5-13.5-17.9c3-28,12.7-52.4,28.2-70.7c-2.2-2.4-4.5-5.4-4.2-9.1
	c3.7,0.3,5.9,3.4,8.2,6.1c12.6,0,24.9-2.9,37.6-1.3c-1.3-3.2-5.4-6.9-2.2-10.1c3,1.7,6.4,4.7,6.2,9.1c3,2.7,6.8,7.1,7.3,12.7
	c0.2,4.2,0.6,8.2,1,12.3c0.2,4.2,0.6,8.3,1,12.5c-0.2,0.8-0.8,2.2-1.2,3.2c-2.3-1.3-4.5-2.5-6.7-3.9c1.3,1.5,2.7,3.3,4,4.9
	c-3.7,2.9-7.6,5.5-10.8,8.9c-0.5-0.5-1-0.8-1.5-1.2c2.4-2.5,3.9-5,5.2-7.9c-2.7,2.5-5.1,5.4-7.7,8.1c0.1,0.8,0.3,2.2,0.5,3.2
	c-1.5-0.1-2.9-0.3-4.4-0.5c0,0.7,0.1,1.5,0.2,2.3c-7.4,0.1-14.8,0.2-22.1,1c-1.1,0.1-2.8,0.2-3.7,1.2c-0.3,0.3-0.5,0.8-0.3,1.5
	c0,3.7,1,7.2,2,9.9c-4.5,3.3-8.6,8.1-14.5,8.3c-2.8-2.8-5.7-5-8.9-6.8c1.2,3.9,4.2,7.6,7.7,9.1c5.7,2.7,10.8-2.3,15-5.6
	c2.8-2.3,5.7-4.7,9.3-6.1c1.7-0.7,3.5-0.2,5.6,1.2c-3,3.3-3.9,7.8-7.1,11c-3.5,3.9-9.3,4.5-13.3,7.9c3.7,2,7.1,0,10.1-1.5
	c0.8,1.3,1.5,2.3,2.2,3.3c6.4-2,14.7,0.6,19.2-5.5c3.7-4.7,8.1-10,13.5-13.8c5.4-0.6,10-3.7,12.6-8.4c6,24.8,10.1,49.3,15.9,74
	C340.8,860.9,337,853.8,332,848.1z"/>
<path d="M269.6,598.9c-2-1.1-4.4,2.2-2.7,3.8C269,603.8,271.5,600.5,269.6,598.9z M260.2,604.1c2,1,3.7-2.3,2.3-3.9
	C260.4,598.4,258.2,602.9,260.2,604.1z M251.6,604.2c-2.3-0.9-3,0.2-2.3,2.2C251.1,607.3,252.5,606.5,251.6,604.2z M298.9,609
	c-0.1,2.5-0.8,5-2.4,7.2c-2.8-1.5-4.7-3.5-5.5-6.1l-2.7-1.7c1.3,4,2.7,9.3,7.3,11c4.5,0.1,5.1-5.4,5.6-8.6c-0.3-0.2-0.7-0.5-1.1-0.8
	C299.7,609.5,299.3,609.3,298.9,609L298.9,609z M286.9,615l-0.8-0.6c1.2,4.7,5.4,8.2,10.6,8.8C293.9,620.1,290.5,617.6,286.9,615z
	 M244.5,621.5c0.5,0.8,0.8,1.8,1.3,2.7c1.2-0.5,2.9-1.2,4.2-1.7l-4-2.2c0.8-1.8,1.8-3.9,2.5-5.6c-2,1.8-3.4,4.2-5.9,5.5
	c-0.8-1.3-2-2.9-2.9-4.5C238.1,619.1,240.7,622.7,244.5,621.5L244.5,621.5z M317.6,625.8c-0.7,3,1,5.6,5,7.4l0.7,0.3
	C322.1,630.7,321.1,626.7,317.6,625.8z M313.5,632.2c1.1,1.5,2.2,3,3.7,4.5l0.2,0.1c0.8-0.6,2-1.2,2.8-1.8c-1.3-1.5-2.7-3-4-4.5
	C315.5,631,314.4,631.7,313.5,632.2L313.5,632.2z M231.7,640.9c2.2,1.5,4.6-2.3,2.8-4C232.4,635.3,229.8,639.2,231.7,640.9z
	 M333.7,650.6c-2.2-5.5-6.1-9.6-9.4-13c0,5.2,3,11.3,8.8,13L333.7,650.6z M233,645.9v0.2c2,0.5,5.4-1.5,5.1-3.9
	C236.1,640.9,232.6,643.9,233,645.9z M287.5,643.2c-1.2,1.1-2.7,2.2-3.9,3.3c-4.6,0.3-9.4-0.2-14-1c2,3.3,5.4,4.5,9.1,4.4
	c3.4,0,6.8-1,9.3-1.8C287.8,646.8,287.7,644.6,287.5,643.2z M320.4,644.2c0.2,5.2,4.2,10.1,9.1,11.3c-1.1-4.2-3.9-7.8-8.4-11
	L320.4,644.2z M79.3,647.5c-1.7-0.5-3.5-1-5.4-1.5c-0.7,2.8,1.7,3.5,3.7,4.2C78.1,649.4,78.8,648.4,79.3,647.5z M266.1,647.4
	c-4.2,2.2-8.6,0.3-13,0c2.4,3,5.9,4.7,9.5,4.7c1.2,0,2.5-0.2,3.7-0.6C266.3,650.3,266.3,648.6,266.1,647.4z M241.7,648.7
	c0.8,1.8,2.4,3.2,4.5,3.7c2.7,0.5,5.7-0.3,7.8-2.3l-2.7-2.2C248.4,649.7,244.9,649.1,241.7,648.7z M315.5,651.3H315
	c1.5,4.2,5.4,7.3,9.8,7.9C322.7,655.4,319.7,650.9,315.5,651.3z M267,656.3c3.3-0.3,8.1,0.8,8.3-4c-2.8,0.3-5.5,0.7-8.3,1V656.3z
	 M275.6,656.9c3.9,2.7,10.1,1.5,10.4-3.8c-2.8,2-6.1,3.3-9.4,3.7L275.6,656.9z M259.1,654.1c-3.4,1-6.8,1.3-10.3,1.1
	c1.7,4.2,6.2,4.2,10.4,2.8L259.1,654.1L259.1,654.1z M235.6,655.5l0.1-0.3c-3.5-0.8-4.6,2.9-5.5,5.5
	C232.7,659.9,234.6,658.2,235.6,655.5L235.6,655.5z M257.8,661.6l-0.8,0.6c3.8-0.1,9.5,1.8,10.8-3.3
	C263.9,659,260.4,659.9,257.8,661.6z M232.5,665.6l-0.2,0.7c3.3-2,5.7-4.7,6.9-8.2C235.9,659.6,233.4,662.3,232.5,665.6z
	 M216.9,659.1l0.1-0.5c-2.7,0.3-5,2-6.4,4.6C213.7,663.4,216.4,661.8,216.9,659.1L216.9,659.1z M212.6,669.5
	c2.7-1.3,5.7-2.4,7.1-5.4c-2.4,0.6-4.9,1.3-7.1,2V669.5z M198.8,664.8l-0.2-1.7l-0.5,0.8c-1.5,2.8-0.3,8.1-4.2,8.9
	c-3.4-1.3-1.8-6.4-2.9-9.3c-1.7,2-2.5,5.1-2,7.7c0.5,2.5,3.2,5.4,5.9,4.7c1.7-0.6,2.7-2.8,3.4-4.6
	C199.4,669.5,199.2,667,198.8,664.8L198.8,664.8z M177.7,678.8c-1.3,5-6.4,8.6-12.2,8.3c-3.5-1.8-4.7-5.5-5.1-7.7
	c4-0.3,8.4-0.6,11.5-3.7c0.1-5.1-6.7-4.2-10.3-3.5c1.2-1.3,2.5-2.2,4.2-2.8c-0.7-0.5-1.5-1.1-2.4-1.5c1-1.5,3.4-1.8,4.7-2.9l0.8-0.6
	c-2.5,0.2-5.1,0.3-7.6,0.7v5.1l-1-0.5c-0.8,6-2.8,12.7,0.5,18.2c5.2,3.3,12.7,0.1,16.1-2.4c1.5,1,3.2,1.8,4.7,2.8
	c-1.3-2.8-2.9-5.5-3.8-8.3L177.7,678.8L177.7,678.8z M233,671.7l-0.6,0.8c4.2-1,7.8-4,10.1-8.1C238.8,665.8,235.6,668.1,233,671.7z
	 M152.6,669c-1.3,2.5-2.7,5.1-5.9,5.2c-0.5-2.9-1-5.9-1.5-8.6c-1,2.9-0.8,6-0.6,8.9c1.2,1.3,2.5,2.7,3.8,4c5.2-2.4,5.5-7.9,5.5-11.7
	C153.5,667.5,153,668.3,152.6,669L152.6,669z M274.5,673l-0.2,0.3c3.4,1.7,6.2-1.3,7.2-4.9C278.8,669.1,276.6,670.5,274.5,673z
	 M210.9,673.7c3.3,0.5,6.4,0.5,9.1-2.3l0.3-0.3C216.9,670,213.2,671,210.9,673.7L210.9,673.7z M198.5,678.3c3.2-0.5,7.9-4.2,5.1-7.7
	C201.7,673.1,200.2,675.7,198.5,678.3z M123,766.1c-4-1.7-2.5,5.1,0.1,5c0.8,0,1.5-0.7,1.5-1.5C124.9,768.4,123.9,766.7,123,766.1z
	 M111.6,769.7c0.8,0,1.5-0.7,1.5-1.5c0.2-1.2-0.7-2.9-1.7-3.5C107.5,763,108.9,769.9,111.6,769.7z M305,681.3l-0.6,0.8
	c3.9,1.7,5.5-2.2,7.1-5C308.4,676.6,306.4,679.1,305,681.3z M335.9,680c-2.3,0.8-3.3,3-4,5.2C334.8,685,337.3,682.8,335.9,680z
	 M319.1,685.9c2.2,0.2,3.4-3.2,2-4.7C318.3,679,316,685,319.1,685.9z M195.3,738.3c0.6,2.3,6,2,4.9-1.1
	C199,735.6,195,735.8,195.3,738.3z M289.7,766.1c-0.7-0.8-1.5-1.5-2.2-2.4c0.6-1,1.3-2,2-2.9c-6,0.3-11.3,0.5-16.4,0.2
	c0.3,3-0.1,6.4,1.7,9.1c1.7,0,3.3-0.7,4.9-1.1c0.7,0.5,2,1.3,2.8,1.8l3.5-3.3c2.3,1.5,5.1,1.1,7.3-1.1c0.8,0.2,2,0.5,2.9,0.7
	c-0.6-0.6-1.5-1.2-1.8-2c3,2,10,5.7,15.9,2.2c3.2-5.7,1.2-12.2,0.3-18.2l-1,0.5v-5.1c-2.5-0.2-5-0.6-7.6-0.7l0.8,0.6
	c1.3,1.1,3.8,1.5,4.7,2.9c-0.8,0.6-1.7,1.1-2.4,1.5c1.5,0.6,3,1.5,4.2,2.8c-3.5-0.6-10.4-1.7-10.3,3.5c3,3,7.4,3.3,11.5,3.7
	c-0.5,2.3-1.7,6-5.1,7.7c-4.2,0.1-8.1-1.5-10.4-4.5v-0.7c-0.2-0.8-0.2-1.5-0.1-2.4c-0.3,0.1-0.8,0.1-1.3,0.2l-0.3-1l-0.2,1.1
	c-1.5,0.2-2.8,0.5-4.2,0.6c1,0.6,2,1.5,3.2,2.2C291.3,763.3,290.6,764.8,289.7,766.1L289.7,766.1z M274.4,755.3
	c3.6-2.1,5.5-6.4,5.1-10.9c-1.8,2.2-3.3,4.5-5.1,6.7c-2.4,0.2-3.5-2.4-5-4C268.8,750.4,270.5,753.1,274.4,755.3L274.4,755.3z
	 M315.9,749.3c2.6-1.5,3.8-4.6,3.5-7.6c-1.2,1.5-2.3,3.2-3.5,4.6c-1.5,0.1-2.3-1.8-3.4-2.8C312.1,745.9,313.2,747.8,315.9,749.3z
	 M133.1,795.8c2.4,0,2.3-3.7,0.7-4.7C130.6,789.6,130.6,795.5,133.1,795.8z"/>
<path d="M165.8,837.9c-1.7,0.1-2.8,2-1.5,3.4c0.3,0.6,1,1,1.7,1c0.8,0,1.7-0.6,2-1.3C168.5,839.6,167.2,837.8,165.8,837.9z"/>
<path d="M191.9,832c-0.1,2.2,0,4.6,0.7,6.9C196.3,837.5,195,833.4,191.9,832z"/>
<path d="M198.2,831.9c-0.6,2-1.3,4.2-0.7,6.6C201.2,837.8,201,833.7,198.2,831.9z"/>
<path d="M166.5,836.2L166.5,836.2l-0.2-3.8c-1.5,0.2-3,0.5-4.6,0.8c0.5,2.3,2.7,2.5,4.5,2.8L166.5,836.2z"/>
<path d="M114.9,767.1L114.9,767.1c-1.3,1-2,2.5-2.9,3.9c-2.5,0.1-5.2,0.1-7.8,0.1c1.8,2,4.4,2.4,6.7,2.4c0,2.8,0.2,5.7,0.8,8.6
	c3.7-1,5-4.5,6.4-7.6c-0.3-0.8-0.7-1.8-1.1-2.8L114.9,767.1z M115,774.2c-0.6,1.3-1,2.8-1.2,4.2h-0.1c-0.7-1.2-0.7-4-0.1-5.4
	c0.5-1,0.8-0.8,1.7,0.2L115,774.2z"/>
<path d="M144.5,791.6c-2.9-2-4.4,4.4-1.2,4.5C145.2,796.1,146,792.7,144.5,791.6z"/>
<path d="M164.6,827.5c-2-0.6-4.4-1.5-6.7-2c0.3,2,2.3,4.4,4.4,4.4C163.1,830,164.3,829.3,164.6,827.5z"/>
<path d="M182.8,801c0,1.1,0.1,3,0.2,4.2c-2.2-0.7-4.2-1.5-6.4-2.2c1.3,2.3,3,4.5,4.5,6h0l0.2,0.2c1.2-1.1,2.3-2.3,3.5-3.4
	c0-1.7-0.1-3.4-0.1-5.1C184.2,800.8,183.5,800.8,182.8,801z"/>
<path d="M798.1,827.4c-10.8,1.5-18.3,3.3-21,3.9c-110.9-18.2-148.9-7.2-159.7-1.9c-9.6-9.1-52.9-20.6-62.4-23.1l-2.5,2.9
	c23.2,6,60.2,17.6,60.7,23.3l0.5,5.1l5.1-4.3c0.2-0.2,25.8-20.6,157.7,1.1l1.2,0.2l1.1-0.3c0.2-0.1,7.5-2,19.4-3.8V827.4z"/>
<path d="M464.8,843.5c0.5-0.2,1-0.2,1.5,0c0.4,0.2,0.7,0.4,1.1,0.6l-4.2-2.9C463.7,842,464.3,842.8,464.8,843.5z"/>
<path d="M201,784.5c-2.8,0.3-4.5,0.1-4.5-2.9c-6.1,5,5.2,4.4,2.5,9.1h1.1v1.5c2.2,0,4.5,0,6.7,0.1c-0.3-3.4-0.5-6.9-1.3-10.5
	C203.1,780.6,202.2,783.1,201,784.5z M200.7,790.6c0.3-2.3,1.3-4,2.7-4.7c0.2,1.5,0.3,3,0.5,4.6C203,790.4,201.5,790.6,200.7,790.6z
	"/>
<path d="M258.6,766.1c-2.2,0.7-1,3.2,0.6,3.9c0.8,0.3,1.7,0.1,2.2-0.5C262.7,767.8,260.4,765.5,258.6,766.1z"/>
<path d="M210.4,777.8c-0.6,0.5-1.5,1.2-2.2,1.7c0.3,0.6,0.6,1.3,0.9,2l0,0c0.3,0.8,0.7,1.5,1.1,2.4c2.9,0.2,5.6-1.5,7.1-4
	c-1.5,0.5-3.2,1-4.9,1.7L210.4,777.8z"/>
<path d="M277.3,771L277.3,771c2.8,3.5,6.4,2.5,10.4,2.4c4.7-0.3,10-1,13-5.2c-2,0.5-4.2,1-6.4,1.5C288.7,771.2,283,772.6,277.3,771z
	"/>
<path class="st1" d="M354.7,869.8c0.2-7,0.1-14.1-1-21c-1.5,2.6-3,5.1-4.5,7.8c-1.1-0.1-1.2-0.2-2.3-0.2c-2-6.4-3.8-12.8-2.9-19.6
	c-2.6,0.1-5.1,0.2-7.7,0.3c6.4-8.9,11.6-19.2,12.3-30.3c0.9-10.4,5.1-20.5,3.5-31c-1.5-6.2-4.6-12-6-18.3
	c-4.2-19.8-3.3-40.3-0.9-60.3c-3.4-4.2-10.1-3.8-15.2-4.6c0.4-0.9,1.1-2.8,1.5-3.7c-2.4-2.3-6-4-6.6-7.5c-0.1-0.6-0.2-1.1-0.3-1.6
	c-2.9-6.3-3.6-14.7-3.1-23.6c-0.7-12.2,0.2-24.5,3.2-36.5c2.3-7.3,5.9-13.9,10.2-20c1.2-1.7,2.4-3.3,3.8-4.9
	c-0.7-3.9-1.2-7.8-1-11.9c0.1-0.9-0.2-1.5-0.5-2.1c0.7-0.2,1.3-0.3,1.9-0.5h0.1c-0.4-3.9-1.1-7.8-1.5-11.7c1.6,1.5,3.3,3,4.9,4.4
	c3.3,2.9,8.2-2,4.9-4.9c-8.1-6.8-15.1-14.8-21.4-23.3c-4.3-5.9-8.4-11.9-12.1-18.2c-0.4-1.6-0.7-3.3-1.1-4.8
	c0.5-0.7,0.7-1.6,0.3-2.8c-0.7-1.8-1.2-3.6-1.7-5.4c-0.2-1.2-0.2-2.4-0.2-3.6c-0.2-0.1-0.5-0.2-0.7-0.3c-2-8.1-3.3-16.4-3.8-24.7
	c3.4-9.6,8.5-18.9,10.8-28.9c0.4-1.6-0.3-2.9-1.5-3.7c3.4-3.5,6.6-7.1,8.5-11.7c5.5-11.5,2.9-24.5,5.2-36.7c0.5-3.1,1.5-6,2.6-9
	c-0.3-0.2-0.7-0.4-1-0.7c0.1-1.1-0.1-2.1-0.4-3.2c-0.1-0.2-0.2-0.3-0.2-0.5c-0.9-1.3-1.6-3.1-2.1-4c0-0.1-0.1-0.2-0.1-0.2
	c0,0,0.1-0.1,0.2-0.1c-0.1,0-0.1,0-0.2,0.1l-0.5-1c-0.4-0.6-0.9-1.1-1.4-1.6c-1.1-1.1-2.1-2-2.7-2.7c-0.8-1-1.5-2-2.2-3.1
	c-0.5-2-0.8-3.9-1.1-6c-0.7-1.5-1.2-3.3-1.6-5c-1.1-6.2-1-13.6,2.4-19.2c2-7.7,5.9-14.8,12.2-20.3c0.2,0.1,0.4,0.2,0.6,0.2
	c-0.2-0.1-0.2-0.2-0.4-0.3c8-1.3,17.1-4.5,24.7-0.1c3.4,1.7,6.8,3.8,10.8,3.1c1,0.5,2.9,1.5,3.8,2c2.5,3.4,5.1,6.8,7.5,10.4
	c26.3-13.1,57.2-17.2,85.9-10.8c1.5,1,3.3,1.5,5.5,1.5h0.6c0.7,0.2,1.5,0.4,2.2,0.6v-0.9c1.8-0.5,3.3-1.4,4.3-2.5
	c3.7-0.8,6-3.3,6.9-6.4c5.1-4,10.7-7.3,16.6-9.9c6.6,1.2,14.4,2.1,19.3,6.7c1.3,0.2,2.2,1,2.9,1.9c0.3,14.2-2.4,28.2-4.4,42.3
	c-2.3,3-5,5.8-8.3,7.9c-3.7,2.4-0.2,8.4,3.5,6c1.2-0.8,2.4-1.6,3.5-2.5c-0.6,6.9,0.1,13.9,2.6,20.4c3,7.7,7.6,14.6,11.7,21.8
	c0.8,1.5,2.2,1.9,3.4,1.6c2.5,2.3,5.3,4.2,8.2,6.2c2,0.3,4.1,0.7,6.1,1.1c0.1,1.1,0.1,2.3,0.2,3.3c0.3,0.2,0.6,0.4,0.9,0.7
	c2,1.6,4,3.3,6,5.1c1.3,3.3,2.4,6.7,3.4,10c-0.2-0.1-0.4-0.2-0.6-0.3c0.2,0.4,0.5,0.7,0.8,1.1c2.9,10.3,5,21,6,32
	c-0.8,7.6-1,15.2,0.1,22.8c-0.2,1.8-0.3,3.5-0.5,5.2c-0.2,1.9-0.5,3.8-0.8,5.7c-4.3,9.5-10.2,18.7-18.4,25.1
	c-3.5,2.8,1.4,7.6,4.9,4.9c0.8-0.7,1.6-1.3,2.4-2c-5.8,7-12.7,13.5-15.2,22.6c-0.5,1.8,0.8,3.8,2.5,4.3c-0.2,2-0.6,4-0.7,6h0.1
	c1.1,0.3,2.1,0.7,3.3,1c-0.7,1.1-0.8,2.3-0.5,3.7c4.6,4.6,8.7,9.6,11.7,15.4c11.2,19.7,13.1,44,6.4,65.5c-1.5,5.1-5,9-8.6,12.6
	c-1.8,2.4-3.9,4.7-6.3,7c5.3,21.2,6.6,43.7,2.4,65.2c-1.4,8.5-8.2,15.6-6.9,24.5c-0.2,13.5,6,25.8,9.5,38.5
	c2.3,8.6,5.5,16.9,8.4,25.4c-2.5-2.2-5.1-4.5-7.6-6.7c0,5.1-0.1,10.2-0.4,15.3c-3.2,5-4.2,10.8-4.7,16.6c7.3,0.2,15-0.2,21.5,3.7
	c7.5,4.9,13.8,11.8,17.4,20c2.9,12.4,7,25.2,4,37.9c-6.6,9.7-19.4,11.3-29.8,14.9c-11.2,4.1-23.2,3.8-34.6,6.5
	c-20.4,2.8-38.7-8.5-58.1-12.4c-5.1-6-12.1-9.8-18.2-14.6c-8.1,6.9-16.1,14.4-26.3,17.9c-14.4,5.1-28.5,10.6-43.4,14.2
	c-18.1,4-35.6-4.1-53.3-6.3c-6.9-4.4-17.9-7-18.8-16.7c-0.1-13,3.9-25.7,8.8-37.6C327.1,876,340.9,869.3,354.7,869.8L354.7,869.8z"
	/>
<path d="M505.2,408.4c-11.5,6.6-24.6,8-37,9.4c-4.7-11.5,5.1-9.6,9-11.2c11.3-2.3,21.9-7.7,32.4-13.1c1.8-1.1,3.5,0.7,5.1,1.5
	c0.7,4.2-0.2,8.3-2.1,11.6C510.2,407.7,507.5,407,505.2,408.4L505.2,408.4z M485,526.4c0.1-0.1,0.1-0.2,0.2-0.4
	C485.1,526.1,485.1,526.3,485,526.4z M405.9,540.5c6.3,12.2,16.5,22.1,30.5,23.5c9.1,0.6,17.4-1.9,24.4-6.4
	c-7.5,5.6-16.6,8.7-26.9,8.2c-13.7-1.4-23.8-10.9-30.2-22.8C404.5,542.2,405.3,541.4,405.9,540.5L405.9,540.5z M399.7,545.6
	c-0.1-0.2-0.2-0.4-0.2-0.7c0.7-0.2,1.5-0.4,2.1-0.7C401,544.8,400.4,545.3,399.7,545.6z M475.7,547.6c-0.8-0.7-1.6-1.3-2.4-2
	c0.6-0.8,1.2-1.6,1.7-2.5l0.1,0.1c1,1,2,1.8,3.1,2.6c-4.5,7.5-10.5,14.1-18.2,19.2C466.5,560.3,471.7,554.3,475.7,547.6L475.7,547.6
	z M447.1,544.3c-6.4-0.4-13.9-0.1-18.8-5.1C434.7,538.9,443,538.2,447.1,544.3z M451.2,527.3c-12.7,1.2-25.4,0.7-37.9-1.1
	c-3.2-0.5-1.8-4.2,1.3-3.8c9.5,1.4,18.9,2,28.5,1.5c4.9-0.2,9.8-0.7,14.7-1.4c3.3-0.4,7.6,0.2,7.5-4.3c0.5-2.4,5.3-1.4,4.8,1.1
	C470.1,528.3,457.4,526.3,451.2,527.3z M412.3,362.1c2.9-0.4,5.9-1,8.9-1.2C418.4,362.1,415.4,362.4,412.3,362.1z"/>
<path d="M300.9,504.8c2.5,1,5.1,2,7.7,2.9c0.5,10.7,4.8,20.7,5.8,31.3c0.9-0.2,2.7-0.7,3.6-1.1c4,5.9,7.8,12.2,12,18.1
	c-0.8,0.2-1.6,0.2-2.4,0.4c-0.5,0.4-1,0.8-1.4,1.2c1.8,0.2,3.8,0.2,5.5,0.7c1.2,1.6,2.4,3.3,3.8,4.8c0.5,5.1,1.4,10.2,2,15.2h-0.1
	c-0.6,0.2-1.2,0.3-1.9,0.5c0.4,0.6,0.6,1.3,0.6,2.2c-0.2,4.1,0.4,8.1,1.1,12c-1.3,1.6-2.6,3.3-3.8,5c-4.4,6.2-8,12.9-10.2,20.2
	c-3,12.1-3.8,24.5-2.9,36.9c-0.4,9.1,0.4,17.5,3.3,23.8c0.1,0.6,0.2,1.1,0.3,1.7c0.7,3.5,4.4,5.1,6.8,7.5c-0.4,0.9-1.1,2.8-1.5,3.7
	c5.1,0.9,11.8,0.4,15.3,4.6c-2.3,20.2-3.1,40.9,1.3,60.8c1.5,6.3,4.6,12.1,6.1,18.3c1,6.3-0.1,12.5-1.2,18.6
	c-2.3,7.1-3.7,14-3.5,21.4c-2.1,7.9-6.1,15.3-10.8,21.9c2.6-0.1,5.2-0.2,7.8-0.4c-0.7,6.8,1.1,13.3,3.1,19.7
	c1.1,0.1,1.2,0.1,2.3,0.2c1.4-2.7,2.9-5.3,4.5-7.9c1.1,7,1.2,14.2,1.1,21.3c-13.9-0.3-27.8,6.4-37.3,16.3c-4.8,12.1-8.7,25-8.6,38
	c1,9.8,12.1,12.4,19.1,16.8c17.9,2.1,35.6,10.1,53.9,6c14.9-3.7,29.2-9.5,43.7-14.6c10.3-3.6,18.4-11.3,26.5-18.3
	c6.2,4.8,13.2,8.6,18.4,14.6c19.6,3.8,38.2,15,58.7,12.1c11.5-2.9,23.6-2.6,34.9-6.8c10.4-3.8,23.3-5.5,29.9-15.3
	c2.9-12.9-1.3-25.8-4.3-38.2c-3.8-8.2-10.1-15.2-17.7-20.1c-6.6-3.8-14.4-3.3-21.8-3.5c0.5-5.8,1.5-11.7,4.6-16.7
	c0.2-5.1,0.3-10.3,0.3-15.5c2.5,2.2,5.1,4.5,7.7,6.7c-2.9-8.5-6.3-16.9-8.6-25.5c-3.6-12.9-9.9-25.2-9.9-38.8
	c-1.5-9.1,5.5-16.2,6.8-24.8c4.1-21.8,2.7-44.5-2.9-65.8c2.4-2.3,4.5-4.6,6.3-7.1c3.7-3.7,7.2-7.6,8.6-12.7
	c6.8-21.7,4.6-46.2-6.8-66c-3.1-5.9-7.3-10.8-12-15.5c-0.4-1.4-0.2-2.6,0.5-3.7c-1.2-0.3-2.4-0.7-3.3-1c0,0-0.1,0-0.1-0.1
	c0.6-5.4,1.4-10.7,2-16.1c2.4-2.8,4.8-5.5,7.1-8.4c1.1-0.1,2.2-0.2,3.3-0.3c-0.5-0.5-1.1-1-1.5-1.5c-0.1,0-0.1,0-0.2-0.1
	c2.3-2.9,4.5-5.7,6.5-8.8c7.6-18.3,12.6-37.8,11.4-57.7c1.1-0.1,3.4-0.1,4.6-0.2c-2.1-12.9-6.8-25.5-14.5-36.1
	c3.1,1.7,6.2,3.3,9.4,4.9c-4.3-8.1-11.3-14.1-18.3-19.8c-0.3-0.2-0.6-0.4-0.9-0.7l-0.2-3.4c-2-0.3-4.2-0.7-6.2-1
	c-6.7-4.6-13.3-9.4-16.6-17c-3.1-7.2-5.2-14.8-7.7-22.2h0.2c-0.3-1-0.5-2-0.4-3c0.1-0.9,0.2-1.9,0.4-2.8c0.1-0.3,0.2-0.7,0.3-0.9
	c-0.9-1.3-1-3,0.2-4.7c7.9-10.5,12.7-25.9,10.5-39.1c-0.7-4.5-2.4-8.7-4.4-12.8c-0.9,0.1-1.8,0.2-2.7,0.4c-0.2-2-1.5-3.7-3.8-4.1
	c-5.1-4.6-12.9-5.5-19.6-6.6c-5.9,2.8-11.6,6-16.6,10.1c-1,3.1-3.3,5.7-7,6.5c-1.1,1.2-2.6,2.1-4.4,2.5v0.9
	c-0.7-0.2-1.5-0.4-2.2-0.6h-0.6c-2.2,0-4.1-0.6-5.6-1.5c-28.9-6.4-60.2-2-86.6,11.4c-2.5-3.5-5.1-6.9-7.7-10.4c-1-0.5-2.9-1.5-3.8-2
	c-4,0.7-7.5-1.4-10.9-3c-7.7-4.4-16.8-1.1-25,0.2c0.2,0.1,0.2,0.2,0.4,0.3c-0.2-0.1-0.4-0.2-0.6-0.2c-6.4,5.5-10.3,12.7-12.2,20.6
	c-3.3,5.6-3.4,13.1-2.2,19.4c0.3,1.8,0.9,3.4,1.6,5.1c0.3,2,0.7,4,1.2,6c0.7,1.1,1.5,2.1,2.3,3.1c0.6,0.7,1.7,1.6,2.8,2.7
	c0.6,0.6,1,1.1,1.4,1.6l0.5,1c0.1,0,0.1,0,0.2-0.1l-0.1,0.1c0.1,0.1,0.1,0.2,0.1,0.2c0.5,0.9,1.3,2.7,2.2,4.1
	c0.1,0.2,0.1,0.3,0.2,0.5c0.3,1.1,0.5,2.1,0.4,3.2c0.3,0.2,0.7,0.4,1,0.7c-1.1,2.9-2.1,5.9-2.5,9.1c-2.2,12.3,0.5,25.4-5.1,37.1
	c-3.5,8.5-11.3,13.9-16.9,20.9l7.2-0.3c-2.4,4-4.6,8.2-6.4,12.4C303.8,480.9,300.3,494.2,300.9,504.8L300.9,504.8z M526.7,343.9
	v-0.2c0.1,1.8-0.1,3.6-0.4,5.4c-0.1-0.5-0.1-1-0.2-1.4C525.7,346.2,526,345,526.7,343.9L526.7,343.9z M534.1,420.4
	c-4.2-0.7-8.4-1.5-12.6-2c-5.9-0.7-11.8-1.1-17.8-0.7c-7.7,0.5-15.2,1.8-22.7,3.1c-7.7,1.4-15.1,3.8-22.8,5.3
	c-5.1,1.1-28.4,3.9-33.7,4c-1.1-0.1-2.2-0.1-3.3-0.2c-9.6-0.7-19.1-2.6-28.6-4.1c2.5-0.7,5.1,0.3,7.7-0.1c2.5-2.2,4.2-5.1,4.2-8.3
	c-1.5-0.9-3-2.5-5.1-2c-11.6,2.2-23.4,4.5-35.4,4.2c-4.1,0.5-13.5-2.4-11.3,6c-2.3,0.4-4.5,0.8-6.8,1.3c-5.6,1.3-10.9,3.5-16.6,4.6
	c-0.7,0.1-1.3,0.2-2,0.5c2.7-12,1.8-25.6,5.1-37.5c-0.1-0.9,0.2-1.9,0.8-2.9c0.6-0.8,1-1.6,1.3-2.4c-0.3-0.7-0.6-1.2-0.9-1.9
	c2.1-1.1,4.2-2.7,5.3-3.4c1.8-1.2,3.5-2.5,5.3-3.8c1.5-1.1,4.8-2.6,5.5-4.3c0.2-0.4,0.3-0.7,0.4-0.9c-0.2-0.6-1.4-1.5-2.4-2.3
	c0.1,0.1,0.1,0.2,0.2,0.2c-0.2,0-0.6,0.1-0.9,0c-1.9-1.1-3.4-2.4-4.8-4.1c0.7,1.5,1.7,2.9,2.9,4.2c-0.7,0-1.4-0.1-2,0.1
	c-2.4-1.6-4.6-3.7-6.4-6.1c-1.1-1.3-1.8-2.9-2.9-4.3c0.2,3.5,1.9,6.6,3.3,9.8c-7.1-5.8-9.6-15.2-10.6-24c-0.8,3.8-0.2,7.8,0.1,11.7
	c-2.6-5.9-2.5-12.6-1.2-18.8c-0.2-0.6-0.2-1.1-0.4-1.7c-0.2,0.2-0.3,0.4-0.5,0.7c1.6-3.7,4.2-6.9,8-9.3c1.2-0.8,2.5-0.9,3.6-0.6
	c9.3-4.2,23.2-1.1,30,6.6c0.9,0.3,1.9,0.7,2.8,1.1c0.7,0.2,1.1,0.6,1.5,1c0.4-0.7,0.7-1.4,1.1-1.9c1.2,3.9,2.7,7.7,4.4,11.4
	c0.7-0.7,1.8-1.1,3.1-1.1v-3.9c6.6-4.3,14.4-6.4,22.2-7.4c0.4,0.5,0.7,0.9,1.1,1.4c1.9-1.6,4.2-2.9,7.2-3.6c1.4-0.3,2.8-0.5,4.2-0.6
	l-0.5-0.2c18.7-4.5,38.6-5.1,57.1,0.5c0.2,1.5,0.6,2.9,0.8,4.3c0.7-0.6,1.8-1,3-1h0.4l1-3.2c1.1-0.1,3.3-0.3,4.4-0.5
	c0.2-1.2,0.6-3.8,0.7-5c6.8-6,13.3-15.2,23.6-14.5c4.2-0.4,8,1,11.5,3c-0.2,0.1-0.2,0.2-0.4,0.3c-0.5,0.1-1,0.1-1.5,0.1
	c1.7,2,3.3,4.2,4.7,6.4c0,0.2-0.1,0.3-0.1,0.5c1,1.5,1.7,3.3,1.9,5.1c-0.7-1.1-1.4-2.1-2.3-3c-0.2,0.6-0.2,1.1-0.4,1.7
	c1.3,6.3,1.4,12.9-1.2,18.8c0.2-3.9,0.9-7.9,0.1-11.7c-1,8.7-3.4,18.3-10.6,24c1.4-3.2,3-6.3,3.3-9.8c-1.1,1.4-1.8,2.9-2.9,4.3
	c-1.7,2.4-3.9,4.5-6.4,6.1c-0.7-0.2-1.3-0.1-2-0.1c1.1-1.3,2.1-2.7,2.9-4.2c-1.4,1.5-2.9,3-4.8,4.1h-0.9c0.1-0.1,0.1-0.2,0.2-0.2
	c-1,0.7-2.2,1.7-2.4,2.3c0.1,0.2,0.2,0.4,0.4,0.9c0.7,1.7,4,3.2,5.5,4.3c1.8,1.3,3.5,2.6,5.3,3.8c1.8,1.2,6.3,4.6,8.9,4.9
	c-0.7,0.7-1.3,1.4-2,2.1c1,0.7,2,1.5,2.9,2.3c2.7,7.6,4.9,15.4,7.3,23.2C524.3,409.6,528.9,415.4,534.1,420.4L534.1,420.4z
	 M397,470.5c4.5-2,8.9-4.6,13.7-5.8c0.7-0.3,1.3-0.6,2-0.8l0.7-0.2c-0.5,1.2-1,2.4-1.5,3.6c-4.1,3.3-7.3,7.2-9.5,11.6
	c-0.3,1.1-0.7,2.4-1.1,3.6c-2.3,2-4.7,3.6-7.4,4.8c-8.2,3.9-17.6,4.6-26.5,3.3c-2.1-0.4-4.3-0.7-6.4-1.3c-3.8-1.1-7.3-3.3-10-6.1
	c-2.5-2.6-4.5-5.8-5.8-9.2c-2.9-7.7-5.2-15.6-5.7-23.8c-0.1-2.9-0.3-5.8,0.7-8.5c1.1-3.1,3.5-5.6,6.4-7.2c4.2-2.4,9-3.3,13.7-4.2
	c8.6-1.4,17.4-2.4,26.2-2c2,0.2,4.2,0.3,6.2,0.7c4.7,0.8,9.5,1.9,13.9,3.8c3.3,1.4,6.6,3.3,8.7,6.4c1.7,2.4,2.4,5.3,2.4,8.2
	c-5.2,0.5-10.6-0.7-15.7-2.2c-18.4-5.1-47.9-18.3-56.8,7.9c4.2-3,11.6-6.1,14.4,0.4c3.8,8.9,7.4,18.3,16.7,22.3
	c-2.1-3.1-5.1-5.7-6-9.5c3.3,3.1,5.9,7.3,10.2,9.1c-3.1-4.2-7-7.9-8.2-13.3c3.3,3.7,5.8,8.3,10,10.9c-1.5-3.1-3.8-5.9-4.8-9.2
	c10.8,7.6,16.3,2.6,27.4,0.7C402.2,466.3,399.1,467.7,397,470.5L397,470.5z M399.7,458.2c-5.5,1.8-11.6,1.3-17-0.2
	c-4.8-1.5-9.6-4.2-12.6-8.6c-1-1.1-1.4-3.7,0.5-4.1c1.9-0.5,3.8,0.1,5.6,0.6c7,2,14,4.1,21,6.2c1.9,0.7,4.2,1.2,5.5,3.2
	C402.9,456.9,400.9,457.7,399.7,458.2L399.7,458.2z M420.6,457.6c0.5-2.1,1.2-4.3,2.2-6.3c5.7-2.4,16.1-5,16.1-5
	c6.6-0.6,12.6,3.8,15.2,6.1c0.7,2,1.2,4.2,2,6.2c-2.9-1-5.7-1.6-8.6-2c-9.9-0.7-20,1.5-28.3,6C419.6,461,420.1,459.3,420.6,457.6
	L420.6,457.6z M532.9,461.9c-1,3.5-1.9,7-3.8,10.1c-2.9,5.3-8,9.3-13.7,11.1c-4.6,1.4-9.5,2.2-14.4,2.4c-6.8,0.2-13.6-1-19.7-4
	c-2-3.7-4.4-7.1-7.3-10.4c-3-3.7-6.5-6.6-10.3-8.8l-0.2-0.5c-0.3-0.7-0.7-1.3-0.9-2h0.1c0.7,0.2,1.5,0.5,2.1,0.8
	c5,1.2,9.6,3.8,14.4,5.8c-2.1-2.7-5.4-4.2-8.2-6.1c11.6,1.9,17.4,6.8,28.8-0.7c-1.1,3.4-3.4,6.1-5.1,9.2c4.5-2.6,7.1-7.3,10.6-10.9
	c-1.1,5.4-5.3,9.1-8.6,13.3c4.5-1.9,7.2-6,10.7-9.1c-1,3.8-4.1,6.4-6.3,9.5c9.8-3.9,13.5-13.4,17.6-22.3c2.9-6.5,10.6-3.4,15.1-0.4
	c-9.4-26.2-40.4-13.1-59.9-7.9c-5.3,1.5-10.8,2.7-16.3,2.2c0-1.9,0.2-3.7,1-5.4c1.2-3.1,3.8-5.5,6.5-7.3c4.2-2.6,8.8-4.2,13.5-5.5
	c7.7-2.2,16-2.5,24-2.2c3.8,0.2,7.7,0.5,11.4,0.8c3.9,0.4,7.8,1.1,11.5,2.4c2.4,0.9,4.8,2.2,6.6,4.1c2,2.1,3.2,5,3.3,7.8
	C536.3,446,535,454,532.9,461.9L532.9,461.9z M473.4,451c1.3-1.9,3.8-2.4,5.8-3.2c7.3-2.1,14.7-4.2,22-6.2c2-0.4,4-1.1,6-0.6
	c2,0.4,1.5,2.9,0.5,4.1c-3.2,4.3-8.2,7.1-13.3,8.6c-5.8,1.5-12.2,2-17.9,0.2C475.1,453.5,472.9,452.7,473.4,451L473.4,451z
	 M475.6,477.8c-2-1.5-3.9-3.4-5.5-5.4C472.1,474.1,473.9,475.9,475.6,477.8z M450.1,814.9l1.2,0.4v0.4l-0.2,0.2
	c-1.4,1.4-1.2,3.5,0,4.9l0.1,0.1c-0.1,3.3-0.2,6.7-0.3,10.1c15.9,1.1,31.8,2.4,47.7,4.3c10.9,1.3,22.1-0.2,33-2
	c1.1,2.3,2.4,4.5,3.5,6.8c-1.5,5.1-3.3,10.1-5.5,14.9L542,847c1.6-3,3.3-6,5.1-8.8c0.3,6.8,0.3,13.7,0.2,20.5
	c-11.7,5.5-24.8,9.7-33.3,20.2c5.1-0.3,9.1-3.8,13.7-5.7c9.9-4.2,19.9-8.7,30.6-10.7c10.9-0.6,20.9,7.1,25.8,16.2
	c4.3,13.4,8.6,28,4.1,41.8c-0.6,0.3-1.2,0.7-1.9,1.1c-0.5-0.9-1.1-1.9-1.5-2.8c-1.3,0.7-2.7,1.5-4,2.2c-0.1,0.1-0.2,0.2-0.3,0.3
	c-0.9-2.9-1.8-5.6-2.7-8.5c-1.1-3.3-2-6.5-3.2-9.7c-2-5.3-5-10.5-10.4-12.7c-1.4-0.6-2,1.7-0.7,2.3c5.1,2.1,7.6,7.6,9.3,12.4
	c2,5.8,3.8,11.7,5.6,17.7c-1.1,0.7-2.2,1.1-3.3,1.5c0.1,0.4,0.2,0.7,0.2,1.1c-3.5,0.8-6.9,1.7-10.4,2.7c-0.2-0.3-0.3-0.6-0.5-0.9
	c-3.8,0.9-7.6,1.5-11.4,1.9c0.2,0.7,0.2,1.4,0.4,2l-1,0.2v-0.2c-0.8-3.8-1.6-7.4-2.4-11.2c-0.7-3.3-1.2-6.5-2.3-9.7
	c-1-2.8-2.4-5.4-4.8-7.2c-2.2-1.6-5.1-2.4-7.8-1.6c-1.5,0.4-0.8,2.7,0.7,2.3c2.5-0.8,5.1,0.4,6.9,2.2c1.9,2,2.8,4.6,3.4,7.2
	c1.5,6.1,2.7,12.4,4.1,18.6v0.1c-2.4,0.7-4.8,1.2-7.3,1.8c-0.2-0.4-0.4-0.7-0.7-1.1l-2.4,1.1c-3.8,1.5-7.8,2.8-11.9,2.8
	c0.2,0.1,0.5,0.2,0.7,0.4c-6.4,0.7-13,0.4-18.3-3.2c-2.9-0.1-5-1.1-6.6-2.5c-2-0.7-3.8-1.4-5.7-2.2c-4-0.6-7.9-1.5-11.8-2.5
	c-11.4-1.9-20.9-8.9-30.2-15.3C448.2,879.6,448.9,847,450.1,814.9L450.1,814.9z M537,841.1c-0.1-0.6-0.1-1.2-0.2-2
	c0.3,0.3,0.7,0.6,1.2,0.7C537.6,840.3,537.3,840.7,537,841.1z M426.4,607.2c-1.9-0.9-3.7-2-5.5-2.9c12.1-2.9,24.4-4.6,36.8-4.2
	c5.1,0.7,9.9,1.9,14.8,3.6c6.4,2.3,12.4,5.5,19,7.1c1.5,0.3,3.2,0.7,4.8,1.1c2.9,1.5,5.6,3.3,8.2,5.2l-9.1,4.6
	c-3.5,3.9-7.4,7.6-11.7,10.6c-6.8,4.3-11.5,10.9-17.9,15.7c-12.8,9.4-25.7,18.8-38.7,27.6c-4.1,2.2-8.2,4.3-12.4,6.4
	c0,0-43.1-30.3-43.2-55.4c5.5-4.6,12.2-8.2,18.6-11c10.9-4.9,23.5-8.8,35.8-8.4L426.4,607.2L426.4,607.2z M477,644.5
	c-0.4,0.5-0.7,0.9-1,1.3l-1.3,0.7C475.6,645.8,476.3,645.2,477,644.5L477,644.5z M483.5,638.6c-0.7,1.1-1.5,2-2.1,3.2
	c-0.4-0.1-0.9-0.1-1.4,0C481.3,640.8,482.4,639.7,483.5,638.6z M504.3,621.5c-0.6,0.4-1.1,0.9-1.7,1.3h-0.3
	C503,622.4,503.6,621.9,504.3,621.5z M507.8,691.7c-4.2,1.9-8.4,3.2-12.8,4.2c-10.8,1.2-21.8,2-32.7,2.8c-5.1,0.1-10,0.2-14.9,0.4
	c-3.5-0.9-7-1.6-10.6-2c-3.1-0.3-6.3-0.7-9.5-0.7c1.1,1.1,1.8,2.7,1.7,4.3c-9.7-0.4-19.3-2.5-28.5-5.6c4.8-3.3,9.7-6.4,14.7-9.3
	c1.5,0.2,4.5,0.5,6,0.7c16.8-13.7,35.3-25,52-38.7h0.1C507.8,630.2,508.5,676.2,507.8,691.7L507.8,691.7z M447.4,809.3
	c-2.2-0.2-4.4-0.6-6.6-0.8c-0.6-0.9-1.1-1.8-1.8-2.6c-0.5-0.7-1.1-1.1-1.9-1.3c0-0.1-0.1-0.1-0.1-0.1c4.5,1.7,9,3.3,13.6,4.6
	c2,0.6,3.9,1.1,6,1.5c-0.6,0.5-1.1,1.1-1.7,1.5c-1.1-0.4-2.3-0.8-3.5-1.2v0.6c-1.4-0.4-2.8-0.9-4.2-1.2
	C447.3,810,447.3,809.6,447.4,809.3L447.4,809.3z M354.4,838.5c0.3-0.2,0.7-0.3,1-0.6c1.5,2.9,2.9,5.8,4.5,8.7
	c10.3-8.3,18.5-19.5,33.2-17.6c17.5,0,34.8,0.5,52.3,1.5c0.1,16.3,2,32.7,1.1,49c-0.4,10.4,5.1,20.5,2.7,30.8
	c-5.4,11.6-19,13.9-29.7,18.3c-12.9,5.7-25.8,11.2-39.3,15.1c-3.7,0.5-7.4,0.4-11.1,0v-0.2c-0.9,0.1-1.8,0.1-2.8,0.1
	c-0.2,0.6-0.9,0.9-1.5,0.4l-0.7-0.5c-1,0-2-0.1-2.9-0.1c-1.1,0-1.4-1.1-1-1.9c-0.8-0.3-1.6-0.6-2.5-0.8c-0.1,0.1-0.1,0.2-0.2,0.4
	c-3.4-1-6.9-1.8-10.4-2.7v-0.2c-1-0.2-2-0.4-2.9-0.6c0.6-4.4,1.1-8.9,2-13.2c0.7-3.8,1.9-8.7,6-10.1c1.4-0.5,0.8-2.8-0.7-2.3
	c-4.5,1.5-6.4,6.1-7.3,10.5c-0.7,2.9-0.9,6-1.4,8.9c-0.2,2-0.6,3.8-0.8,5.8c-4.6-0.9-9.5-1.9-13.8-3.7c-1-0.2-2-0.5-3-0.8v-0.7
	c-1-0.6-2-1.1-2.9-1.8c-0.4-0.3-0.8-0.6-1.1-0.9c2.6-5.8,5.2-11.6,8-17.3c2.1-4.4,4.9-9.3,9.8-11.2c1.4-0.5,0.8-2.8-0.7-2.3
	c-5.1,2-8.3,6.5-10.7,11.3c-2.9,5.8-5.5,11.8-8.2,17.7c-1.5-1.6-2.5-3.5-3.3-5.5l-1.2,3.9c-1.1-11,0.7-22.3,5.5-32.2
	c4.2-7.8,12.9-11.3,20.4-15.1c14.4-4.5,28.8,1,42.7,4.3c-5.7-7.7-16.1-8.5-24.7-10.9c0-3.4,0.1-6.8,0-10.3c2.4,1.5,4.9,3.2,7.3,4.7
	c-1.7-9.9,5.6-16.9,11.9-23.2c-1.4-0.2-4.2-0.5-5.5-0.7c-3.8,4.4-7.5,8.8-11.2,13.2l-7.6-14.7c-1.6,2.4-3.3,4.8-5,7.3
	c-0.3-4.2-0.7-8.4-1.1-12.6c0.5,0.2,1.1,0.5,1.9,0.7c0.2,2.6,0.4,5.2,0.7,7.8C351.6,842.7,353,840.6,354.4,838.5L354.4,838.5z
	 M310,474.7c0.1,0.1,0.2,0.2,0.4,0.3c1.3-8.4,4.3-16.6,11.9-21.1c-2.1-0.5-4.2-0.9-6.4-1.4c5.1-4.2,8.1-9.2,9.9-14.8
	c0.1,0.7,0.1,1.4,0.1,2.1c-0.1,1.5-0.3,3.2,0.2,4.7c0.4,0.9,1.4,1.2,2.1,1.8c2.5,1.7,4,4.6,5,7.4c1.5,4.3,2.7,8.7,4,13
	c1.3,4.4,2.8,8.9,5.1,12.9c3.2,5.4,8.2,9.6,13.8,12.2c8,3.8,17.1,4.7,25.8,3.7c5.2-0.7,10.4-2.1,15.1-4.4c0.4-0.2,0.9-0.4,1.3-0.7
	c-4,7.6-4.3,16.8-2.5,26.1l0.9,0.1l2.8,0.2c-0.1-0.7-0.2-1.3-0.3-2c-1.2-5.6-1.6-11.6-0.7-17.2c0-2.7,0.6-5.5,1.5-8.2
	c2.4-1.4,4.6-3,6.5-4.9c4.2-4.1,7.3-9.1,9.7-14.4c8.7-5.6,19.7-8.8,30.8-7.2c4.1,0.2,8.2,1.1,12.2,2.7c1.2,2.2,2.5,4.3,4,6.4
	c-2.4-1.6-5.5-2.3-8.2-1.4c-10.4,0-16.6,4.2-26.9-0.6c-6.2,1.2-9.6,6.8-13.6,11.1c7.3,10.1,13.5,26.7,26,26.7
	c10.4,0,20.7-12.4,26.9-24.9c0.5-2,0.4-4-0.2-5.7c2.5,2.9,5.5,5.5,8.8,7.6c2,1.3,4.2,2.3,6.5,3.1c2.7,5.1,4.6,10.4,5.6,15.8
	c-0.4-5.1-1.5-10.2-3.5-15.2c1.1,0.3,2.2,0.6,3.3,0.7c3.3,0.6,6.7,0.7,10.1,0.7c8.8,0.1,17.8-1.5,25.7-5.8c4.2-2.2,8-5.5,9.9-9.9
	c4-9.3,6.9-18.9,9-28.8c0.3-1.5,1.1-2.9,2-4.1c-0.4-2.1,1.3-3.9,3.1-4.2c0.2-0.1,0.6-0.2,0.9-0.2c1-0.4,2.2-0.3,3.1,0.1
	c5.5,2.6,8.6,10.5,10.9,15.7c2.8,6.4,5.5,13.2,6.4,20.1c0.2,1.5-0.4,2.7-1.4,3.4c1.4,11.6-1.4,24.2-4.6,35.2
	c-1.2,4.3-2.8,9.7-5.1,14.6c-1.5,5.4-5.2,10.1-9.3,13.9c-0.7,0.7-1.6,1-2.5,0.9c-0.3,0.7-0.7,1.4-1.1,2c-5-0.8-9.9-1.3-14.9-1.5
	c-10,8.8-22,15.5-33.5,22.7c0.1,0.5,0.1,1.1-0.2,1.5c-3.1,6-7.7,10.9-12.9,15.2c-0.5,0.7-1.1,1.5-2,1.6c-6.4,5.1-13,9.9-20.2,13.7
	c-16.1-1.6-32.2,0.7-48.1,4.5c-6.6-2.9-12.6-6.8-18.5-10.9c0.5,0,1,0,1.4-0.1c-0.2-0.7-0.8-2.3-1.1-3c-1.8-0.2-3.5-0.3-5.3-0.6
	c-4.5-3.5-8.4-7.5-11.2-12.2c-0.2-0.4-0.2-0.9-0.2-1.3c-10.4-6-21.4-11.5-30.5-18.9c-4.2,0.1-8.3,0.5-12.5,1.1
	c-2-2.2-3.8-4.5-5.5-6.9c-7.3-7.7-9.5-18.2-13.6-27.5c-4.7-12.8-3.4-26.6-0.8-39.6c-6.1,1.4-7.3,7.5-9.1,12.6
	C306.3,489.3,308.3,480.3,310,474.7L310,474.7z"/>
<g>
	<path d="M682.2,734.3c1.5-0.9,2.7-2.4,3.9-3.8c1.6,1.3,4.5,1.9,4.6,4.5c-1.1,1.3-2.8,0.6-4.2,0.3c0,1.6-0.1,3.3-0.3,5
		c-1.2-0.8-2.4-1.6-3.5-2.5l-2.4,2.2c-0.6-1.2-1.1-2.5-1.7-3.8c-1.5,0-3.1-0.1-4.6-0.1c1.4-2.2,2.8-4.3,4.3-6.4
		C679.5,731.4,680.4,733.3,682.2,734.3 M572.1,690.8c0.9-24.1,6-47.6,11.1-70.9c-2.4-4.2-8.1-5.8-10.2-10.4c-0.7-2-0.1-5.1,2.4-4.8
		c8.1,1,15.4,7.1,23.6,4.3c15.5-2.3,31.2-0.9,46.6,1.2c4.6-2.4,9.9-7.9,15.2-4.6c3,6.2-4.8,8.6-8.1,11.7c-0.8,13.9-1,27.9-1.1,41.8
		c-1.3-0.2-2.6-0.2-3.9-0.4c-0.6-14.1,0.4-28.1,1.2-42.2c3.3-2.4,7.3-4.2,9.1-8.2c-3.7,1.1-7.1,3.2-10,5.8
		c-10.5-2.6-21.4-2.1-32.1-2.4c-7.3-0.3-14.4,1.2-21.6,2.1c-5.7-2.2-11.4-4.6-17.5-5.5c1.7,5.2,7.4,6.4,10.6,10.3v2.3
		c-5.3,23.3-9.7,47-11.2,70.9C576.8,696.1,571.1,693.9,572.1,690.8"/>
	<path d="M595.8,621.4c1.2-1.1,2.4-2.2,3.7-3.1c2.4,0.1,2.5,3,3.4,4.7c-2.7,0.2-4.9,1.6-6.5,3.9l-1.6-2.3l-3.9,1.5
		c0.4-1.4,0.8-2.7,1.3-4.1c-0.6-0.6-1.7-1.6-2.3-2.2C592.2,618.5,594.1,619.6,595.8,621.4 M627.2,619.9c2.2,1,3.4,3.3,5,5.1
		c2.9-1.1,4.8-3.7,6.8-6c2.1,1.9,4,4.2,5,6.9c-1.5-0.2-3.2-0.7-4.7-1c-0.2,1.6-0.4,3.3-0.7,4.9c-1.5-0.9-2.9-1.8-4.3-2.7
		c-1.1,1.5-2.4,2.9-3.5,4.2c-0.5-1.4-1-2.9-1.5-4.2c-1,0-3,0.2-4,0.2C625.9,624.8,625.1,621.6,627.2,619.9 M612.7,620.9
		c-5.5,3-10.7,8.4-10.9,15.3c3,0.4,6,1.6,9.1,0.9c5.4-2.3,9.6-8,8.6-14.4C617.4,621.8,615.2,620.6,612.7,620.9 M613.1,632.7
		c-0.2,1.9-3.3,3.3-4.9,2.2C608.1,632.8,611.6,632,613.1,632.7 M615.3,627.7c-1.7,2.7-5.1,2.9-7.8,3.5c1.3-2.5,2.9-5,5.3-6.4
		C614.5,623.6,617.3,626.2,615.3,627.7 M636.4,641.2c2.3-0.9,4.3-2.1,6.6-3c-3,5.1-9.9,7.9-15,4.5c-1.2-0.7-4.2-2.1-2.3-3.9
		C629.2,637.8,632.5,642.7,636.4,641.2 M610.8,641.3c3.8,0.6,7.4,0.2,10.5-2.3C619.9,643.5,613.4,646.2,610.8,641.3 M601,640.4
		c-2.7,3.3-9.2,3.1-10.8-1.3C593.7,640.4,597.4,640.7,601,640.4 M566.7,660.2c0.7-4.9,1.7-9.8,3.3-14.5c0.4-1.4,1.2-2,2.7-1.9
		c-0.1,5.5-1.4,10.8-2.3,16.1C569.4,660,567.6,660.1,566.7,660.2 M737.6,698.3c-1.7-5.2-7.9-6-12.4-7.1c-6.3-0.8-12.6-0.9-18.8-1.8
		c0.7-1.6,2.4-3,2.2-5c-2.4-4.5-7.9-3.9-12.1-4.2c-19.7-0.1-39.3,0.7-59,0.2c-2.2,0.2-4.8,0.2-6.5,2c-3.8,4.1-9.1,6-14.1,7.4
		c0.4-2.4,1.9-4.2,3.1-6.1c0.7-1.5-1.2-1.9-2-1.1c-2.5,1.5-4.9,3.4-7.6,4.4c0.2-1.8,0.6-3.6,0.8-5.4c-3.3,2-6.4,4.3-10.1,5.3
		c1.1-2,2.7-3.7,4.2-5.5c-3.5,0.5-6.4,2.9-9.9,3.3c1.4-2.4,3.1-4.5,4.2-7c-2.6,0.9-5.1,2.1-7.7,3c4.1-6.7,9.7-12.6,16.2-16.5
		c6-3.6,12.3,0.5,17.9,3c4.2,2.3,9.7,1.6,13.1-2c-3,0.7-6.1,3.8-9.3,2.1c-4.7-2.4-9.5-4.9-14.6-6.3c-2.5-5.5-3.1-12.6-7.7-16.6
		c-5.6,0.7-11.1,3.1-15.9,6.1c-2.3,1.2-2.8,4.2-3.8,6.4c-1.5-0.1-2.9-0.1-4.3-0.2c1.9,0.8,3.8,1.4,5.8,2c1.2,5,2.2,10.2,4.7,14.8
		c-2.4,2.4-4.7,5.1-5.7,8.5c3.8,1,6.4,4.6,10.3,5.4c2.6,1.5,5.5,0,8.2-0.6c3.5,0.4,7.1,1.1,9.7,3.7c5.6,1.3,12-1.5,15.9-6
		c19.5,0.7,38.9-0.3,58.4-0.5c4.2,0.2,9-0.5,12.7,2.2c-2,2.3-5.3,3.7-6.4,6.8c2.7,0.2,5.5,0.2,8.2,0.4c9,1.1,18.4,0.1,26.7,4.6
		c-1.1,6.8-8.6,5.1-12.5,8.9c3,1.2,6.1,2,8.9,3.8c-3.2,8.7-13.2,5.6-20,7.5c-0.2,5.5,6.6,3.6,9.9,3.7c6-2,13.3-4.6,15.7-11.4
		c0.7-2.4-2-3.3-3.3-4.6C733.1,703.9,736.7,701.9,737.6,698.3 M606,646.7c1.7,0.1,2.3,3.5,0.2,3.5C604.5,650.3,604,646.7,606,646.7
		 M608.1,662.5c-0.7-3.9-1.1-8-2.7-11.7c0.6,0,1.6,0.1,2.2,0.1c2.4,3,3.3,7.3,5.1,10.7C611.2,662,609.7,662.3,608.1,662.5
		 M606.2,663.8c-3.5,2.1-6.8,4.7-9.8,7.6c-2.1-5.4-4.1-11.2-4.1-17c2.3-3.8,6.7-5.1,10.5-6C603.5,653.6,604.6,658.8,606.2,663.8"/>
	<path d="M629.5,646.7c-3.3,3.7-8.3,4.4-12.6,2.6c-0.2-0.7-0.4-2.2-0.6-2.9c2.4,0.7,4.6,1.6,7.1,2
		C625.4,647.9,627.5,647.2,629.5,646.7 M638.1,651.5c-2.4,3.3-7.2,4.7-10.5,2C631.3,654.4,634.7,653.2,638.1,651.5 M648.8,667.8
		c0.2-0.7,0.7-2.1,0.8-2.9c3-0.1,6,0,9,0.2c0.1,0.6,0.3,1.6,0.5,2.1C655.8,669,652.2,669.1,648.8,667.8 M609.8,670
		c2-1.4,4.5-4.6,6.8-2c-3.2,3.3-6.9,6.4-11.3,7.5C605.5,672.7,608.1,671.6,609.8,670 M613.9,676.2c2.4-3.4,6-5.5,9.5-7.2
		C623.6,673.8,617.8,676.2,613.9,676.2 M657,674.3c-7.7,0.6-15.3,0.4-22.9-0.6c2.9-4.7,8.8-3.4,13.3-3.6c4.7,0.4,9.9-1.4,14.2,1.4
		C660.3,672.7,659,674.4,657,674.3 M627.2,672.6c1.1,4.2-3.3,5.9-6.5,5.5C622.5,675.8,624.2,673.1,627.2,672.6 M638.1,777.8
		c3.3,1.6,6.9,0.8,10.3,0.3c0.1,0.9,0.4,2.8,0.5,3.7c0.8,0,2.4,0.1,3.3,0.2c1.5-4.4,2.7-8.9,3.5-13.5c3.1,1.7,6.1,3.8,9.5,4.7
		c4.8,1.2,9.9,0.7,14.8,0.5c0.6,4.2,1.3,8.3,2,12.5c-3.8,0.2-8.1,0.1-11.4-2.2c-2.2-1.8-3.9-4.3-6.8-5.2c-0.2,6.5,6.8,9.1,11.5,11.1
		c6.5,0.5,13.7-0.7,18.5-5.7c5-5.2,11-11.1,18.7-9.9c-0.5,3.5-4.5,3.9-6.1,6.6c-2.2,3.2-4.2,6.6-7,9.1c-5.5,4.9-12.6,7.3-19.7,7.9
		c-2-1.2-2.2-4-3.4-6c0.2,1.9,0.6,3.7,0.9,5.5c-1.5,0.1-3,0.2-4.6,0.2l0.3,2.9c4.3,1.7,9,0.7,13.4,0.4c0.5,5.9,1,11.7,2,17.5h3.6
		c1.1-6.3-1.5-12.6-1.5-18.8c2.9-1.5,5.7-3.4,8.6-4.8c9.8,2,19.8,4.1,29.8,3.2c5.6-1.4,11.3-4.9,14-10.4c1.5-2.5-0.8-4.9-1.9-7.1
		c7.4-13.5,15.7-27.2,18.1-42.9c-1.5-3.5-5.3-5.1-8.6-6c-7.3-0.8-14.8-2.6-22.2-1.2c-4,1-5.8,5.2-7,8.8c-3.8,10.4-7.5,21.2-13,30.7
		c-5.2,1.6-9.9,4.4-14.4,7.7c-2.9,0.7-6-1.3-9-1.7c-0.6-5.5-0.6-11.3,1.1-16.7c0.3-2.4,3.2-1.1,4.6-1.1c8.6,1.5,18.3-2.7,22.2-11.2
		c2.7-6-0.4-13.6-5.7-16.9c-4.2-2.6-9.1-3.5-13.8-5.1c4.5-5.4,10.1-9.7,13.6-15.9c0.1-0.7,0.3-2.2,0.4-3c-5.1-3.8-10.4,1.7-15.7,2.4
		c0.4-6.9-5.1-11.7-10.3-14.8c-4.8-1.7-10.6-2.8-15.2,0.2c-6.5,3.4-10.9,10.4-18.1,12.6c-2.4,1-4.6-1.2-6.8-2.1
		c0.2,3.3,0.7,6.5,1.5,9.7c-0.7,0-2-0.2-2.8-0.2c0.8,4.6,2.3,9.2,4.4,13.4c-5,8.1-4.4,18-2.4,27c1.4,5.1-0.7,10.4-4.1,13.9
		c-2-1.3-4.2-2.6-6.4-3.6C630.2,770.2,633.5,775.9,638.1,777.8 M748.3,735.1c0.5,5.1-1.3,9.8-3.3,14.3c-4.3,9.9-9.2,19.5-15.1,28.5
		c-1.1,1.2-1.7,3-3.3,3.3c-3.8-0.4-7.4-1.6-10.9-2.9c0.4-1.7,0.8-3.5,1.1-5.2c3.3,1.1,6.4,2.5,9.7,3.4c2-1,2.6-3.8,3.8-5.6
		c5.3-10.9,12.4-21.1,15.7-33c-6.1-2.3-12.6-0.7-18.9-1.2c0.7-3.3,4.2-3.5,6.8-3.6C738.9,733.2,743.6,734.3,748.3,735.1
		 M706.4,786.6c7.4,2.2,14.8,5.4,22.6,5.3c4.8-0.1,7.3-5.1,11-7.5c-0.1,6.1-6.6,8.2-11.1,10c-8.7,1-17.6-0.8-26.2-2.5
		C704,790.1,705.2,788.4,706.4,786.6 M711.1,781.5c5.7-0.1,10.9,3.3,16.6,3c4.2-2.8,6.8-7.5,9.4-11.9c6.2-11.6,12.6-23.3,15.2-36.5
		c0.6,0.5,1.7,1.4,2.2,1.8c0.8,4.6-1.3,9.1-2.9,13.2c-4.5,10.5-10.1,20.4-15.9,30.1c-2,3.3-4.6,6.8-8.6,7
		c-6.2-0.9-12.3-2.8-18.3-4.9C709.2,782.8,710.4,781.9,711.1,781.5 M726.6,775.7c-4.6-2-9.2-3.9-14.1-5c5.8-10.1,9.5-21.4,13.5-32.4
		c6.3-1.1,13.2-2.4,19.2,0.5C740.6,751.9,733.2,763.7,726.6,775.7 M685.9,784.9c-0.2-1.7-0.2-3.4-0.3-5.2c1.8,0.4,3.6,0.7,5.3,1.1
		C689.8,782.9,688.1,784.5,685.9,784.9 M661.3,767.3c-2.5-1.5-6.2-3.1-5.5-6.8c0.6-9.1,0.2-19.3,5.8-27c1.7-2.7,1.6-6.4,4-8.6
		c-1.1-3.2-2.1-6.5-2.3-9.9c3.2,0.7,5.5,3.3,7.4,5.9c-1.5-0.5-3-0.9-4.6-1.3c0.7,2.4,2.2,4.3,3.7,6.4c1.5-0.7,2.9-1.2,4.5-1.7
		c1.9-3.8,6.4-3.5,9.6-5.1c4.6-1.5,8.6-4.4,13.1-5.6c-2.8,4-6.6,6.9-9.9,10.4c-0.7-0.2-1.9-0.6-2.4-0.7c0.8,1.5,1.3,3.2,2.4,4.4
		c5.4,2.1,11.3,2.6,16.4,5.6c3.5,2.9,7.1,8.2,4.7,13c-5,7.8-15.5,10.6-23.6,6.8c-3.3-1.9-6.3-4.5-9.9-5.7c-0.2,4.7,4.6,6.7,7.6,9.4
		c-1.2,4.2-2,8.4-2.7,12.7C673.5,769.9,666.9,770.3,661.3,767.3 M647.9,774.7c-3.8,2.3-8.4,0.9-11.7-1.8c7.7-1.8,11.6-11.3,9.6-18.8
		c-2.2-9.5-2.4-20.8,4.6-28.2c-1.1-1.6-2-3.3-2.9-5.1c2.4-0.7,4.6-1.7,6.1-3.8c-1.7-1.6-3.4-3.3-5.1-5.1c3.9-3.1,8.4-5.2,12.2-8.5
		c2.8-2.2,5.4-4.9,8.6-6.4c6.4-1.9,13.7,1.4,16.8,7.6c1.2,7.8-7.3,9.9-12.5,12.4c-2.7-3.1-5.5-6.6-9.7-7.3c-2.6-0.7-4.6,1.9-5.6,4.1
		c-0.7,4.3,1.2,8.5,2.7,12.4c-3.5,4.2-7.2,8.9-8,14.6c-1.5,9.3-1.5,18.8-2.4,28.2C650.2,771.2,650.1,773.9,647.9,774.7 M597.2,707.3
		c2.2-4.6,4.6-9.2,7.6-13.2c1-1.6,2.7-2.4,4.5-2.4c-0.2,4.2-1.5,8.2-1.5,12.5c6.1-0.8,12.1,1.1,17,4.8c2.6-2.9,4.4-6.9,8.2-8.3
		c0.5,1.9,1.5,3.9,0.8,6c-1.4,4.6-2.4,10.5-7.3,12.4c1.1-3,2-6.2,2.7-9.4c-1.6,1.2-3.1,2.6-4.6,4.1c-2.8-2.7-5.6-5.9-9.6-6.4
		c-3.7-0.8-7.3,0.2-10.9,1.3c0-2.1,0-4.3-0.1-6.4C602,704.2,600.3,707.1,597.2,707.3 M554.5,737.2c3.9-2,2.4-7.6,1.7-11.1
		c2.2-1.8,4.7-3.6,5.8-6.4c0.3-2.7,0.2-5.5,0.3-8.2c3.3-2.1,9.9-5.5,6-10.2c-3.2,2.1-6.2,4.8-9.9,6c-4.6-1.3-8.5-4.7-13.3-5.2
		c-3.3-0.2-7.7-1.1-9.5,2.8c0.1,3.6,3.5,5,6.2,6.1c4.8,2,10,1.3,15.1,1.7c0.1,1.8,0.6,3.6,0.1,5.4c-1.3,1.6-2.9,2.9-4.4,4.2
		c-5.2-4-11.3-7.7-18-6.3c-3.3-0.2-3.4,4.8-1.1,6.3c5,3.9,11.6,3.6,17.5,4.2c1.3,1.1,2.2,2.8,2.2,4.6c-0.8,2.3-3.3,3.1-5.4,3.3
		c-5.5,0-10.8-2.1-16.1-3.6c-1,2.7,1,4.5,3.2,5.3C541,738.5,548,739.3,554.5,737.2 M536.6,718.7c3.1,0.7,6.1,1.6,8.7,3.6
		C542.4,721.9,537.8,722.4,536.6,718.7 M539.3,705.1c3.8,0.2,7.7,0.8,11,3.2C546.3,708.9,542.6,707.5,539.3,705.1 M578.3,718
		c3.8-5.9,10.6-11.7,17.7-8.6c0.5,1.5,0.9,3.1,1.2,4.6c1.6,0.1,3.3,0.2,4.6-1c-0.3,0.6-0.9,1.7-1.1,2.3c-1.8,0.1-3.7,0.2-5.5,0.2
		c-0.5-1.5-1.1-2.9-1.5-4.4c-5.4,1-10.3,4.6-12.6,9.9c-1.5,3.5-0.7,7.5-0.7,11.2C575.6,729.3,576.3,722.5,578.3,718 M612.5,720.4
		c2-0.5,4-1.1,6-1.7c-0.7,1.1-1.3,2.1-1.9,3.2c-1.9,0-3.8-0.1-5.6-0.2c-0.2-1.9-0.5-3.8-0.7-5.5C612.2,716.4,612,718.8,612.5,720.4"
		/>
	<path d="M587.1,718.6c1.1-2.4,3.9-1.9,5.9-1.2c0.1,1.6,0.1,3.3,0.1,4.9c-2.6,0.6-2.9-2-3.7-3.8c-0.2,1.1-0.6,3.2-0.7,4.2
		C586.9,721.8,586.3,720.5,587.1,718.6 M525.2,771.2c8.5,2.6,16.1,7.3,24.9,9.1c6.9,2.8,14.4,3.7,21.6,5.4c1.5,0.3,3.1,0.3,4.6,0
		c-0.2-2.1-0.4-4.2-0.7-6.3c0.8-0.2,2.5-0.7,3.4-0.8c1.5,3.5,3.3,6.9,5.3,10.1c-3.9,0.4-8.1-1.1-11.7,1.1c6,1.6,12.2,1.5,18.2,3.3
		c1.5,0.7,3.5,1.9,3.4,3.8c-1.6,2.4-4.2,4.2-4.5,7.4c6.3,0.1,12.9-3.2,18.8,0.2c-0.8,2.4-1.5,4.7-2,7.3c3.2,0.2,6.6-0.2,9.4,1.6
		c-0.4,1.5-0.9,2.9-1.4,4.4c1.7-1.7,2.6-3.8,2.7-6.4c-2.1-1.1-4.3-2-6.6-2.4c0.7-2.9-0.2-5.6-1.7-8c8.4-2,15.6-8.6,18.7-17
		c0.9-2.2-0.2-4.9-2.9-4.2c-4.8,2.7-9.1,6.6-14.4,8.2c2.4-21.3,10.4-41.2,17.3-61.2c0.7-1.8,0.7-3.8,0.5-5.6
		c-1.5-0.1-2.5,0.5-3.3,1.7c-4.9,9.3-8.6,19.2-11.5,29.4c-10.4,1.2-20.9-2.3-29.4-8.6c-1.3-1.7-1.5-4.1-2.8-5.9
		c-2.6,4.2-4.6,8.9-6.2,13.6c-2.3-0.5-4.6-1.1-6.9-1.4c-2.2,0.4-4.1,1.9-6,3.1c-1.5-1.5-3.1-3.1-5.2-3.6c-6.9-1.8-13.6-4.4-20.4-6.6
		c-4.4-1.4-8.6-4.2-13.4-3.6C523.7,750,521.4,761.1,525.2,771.2 M552,750.5c0.7,7,1.9,14.1,1.8,21.2c-9.5-1.1-18.7-4.3-27.6-8
		c0.2-7,0.7-14.1,0.7-21.1C535.7,743.8,543.5,748.4,552,750.5 M623.5,783.9c-2.3,6.8-8.3,11.7-14.8,13.5c0.2-2,0.3-4,0.6-6
		C614.7,790.6,618.7,786.4,623.5,783.9 M568.5,782.8c-2.1-0.9-6,0-6.4-3.2l4.9,0.7C567.4,781,568.2,782.2,568.5,782.8 M571.5,777.8
		c-3.8-0.2-8.4,0.6-11.1-3c5.4-2.3,8.6-7.5,12-12.2c-0.7-0.2-2.1-0.6-2.9-0.7c-2.3,2.9-4.6,5.9-7.7,7.8c-0.2-4-0.2-7.9-0.2-11.9
		c1.7-2.3,4.6-3.3,6.9-5c1.5-1.4,3.3,0.3,4.7,0.8c-0.1,3,0,6,0.4,9c4.5-4.2,4.7-10.9,7.7-16.1c4.1,2.1,8,4.5,12.3,6
		c6,2.3,12.6,2.2,18.9,3c-2.7,14.7-8.4,29-6.9,44.3c-3.2,0.6-6.4,0.7-9.7,0.9c0.2-2.2,1.5-4.7,0.4-6.8c-2.4-2-5.3-3-8.1-4.5
		c3.5-1.4,6.9-2.8,10.3-4.6c0.2-0.6,0.7-1.7,0.9-2.3c-1.9,0.7-3.8,1.2-5.8,1.7c-0.1-2.9-0.2-5.9,0-8.8c2-2.8,6.4-3.5,6.9-7.6
		c-2.5,1.3-4.9,2.9-7.3,4.3c-2.2-3.9-3.9-8.6-7.7-11.2c-3.7-1-7.8-0.1-10.4,3c-3.1,3.5-8,7.2-6.2,12.6c3.7-5.1,7.2-10.8,12.7-13.8
		c1.4-0.8,2.7-0.6,3.8,0.7c5.3,6,6.9,14.4,5.6,22.3c-1.8-0.2-4.1,0.8-5.5-0.7c-1.7-3.6-2.4-7.9-5.8-10.4
		C576.8,775.3,574.5,778,571.5,777.8 M559.3,779.5c-1.7-0.8-1.7-1.6-0.1-2.4C560.9,777.8,560.9,778.7,559.3,779.5 M558.2,752.7
		c-0.7,6.8-0.7,13.6-0.2,20.4c-0.4-0.2-1.2-0.4-1.7-0.6c-1.3-6.8-0.8-14-1.8-21C555.8,751.9,557,752.3,558.2,752.7 M556.2,775.6
		c0.1,0.7,0.2,2,0.3,2.7c-9-2.3-17.9-4.7-26.5-8.2c-1.2-0.5-2.3-1.2-3.2-2.2C536.7,770,546.5,772.9,556.2,775.6"/>
	<path d="M586,734.8c-0.9,0-2.6,0-3.5-0.1c-0.5-2.4-0.5-4.7-0.1-7.1c0.7,0.2,2.2,0.6,2.9,0.7C585.6,730.6,585.8,732.7,586,734.8
		 M593.1,739.9l-4.2-2.7l-0.2-7.1c0.7,0.2,2,0.4,2.7,0.6C592.2,733.7,592.7,736.8,593.1,739.9 M599.9,741.3c-3.3-2.1-4.4-6.2-4-10.1
		C600.2,732.3,599.7,737.6,599.9,741.3 M607.7,739.9c-3.2-0.9-4.8-3.5-4.5-6.9c0.7,0.1,2,0.2,2.7,0.2
		C606.6,735.4,607.2,737.6,607.7,739.9 M614.6,738.9c-1.3-0.7-2.6-1.3-3.9-1.9c-0.1-0.8-0.2-2.4-0.2-3.3
		C612.3,734.9,613.3,737.1,614.6,738.9"/>
</g>
<g>
	<g>
		<path d="M70.4,139.4c-1.4-1.2-2-2.8-2-4.9c0-0.6,0-1,0.1-1.3l3.5-19.9c0.2-1.2,0.6-2.2,1.3-2.8c0.7-0.7,1.5-1,2.5-1
			c1,0,1.8,0.3,2.5,1c0.7,0.7,1.1,1.6,1.3,2.8l3.5,19.9c0.1,0.7,0.1,1.1,0.1,1.4c0,2-0.7,3.6-2,4.8c-1.4,1.1-3.1,1.7-5.3,1.7
			C73.5,141.2,71.8,140.6,70.4,139.4z M70.8,104.4c-1.3-1.3-1.9-2.9-1.9-4.9c0-1.9,0.6-3.5,1.9-4.9c1.3-1.3,2.9-2,4.9-2
			c1.9,0,3.5,0.7,4.8,2c1.3,1.3,1.9,2.9,1.9,4.9c0,1.9-0.6,3.5-1.9,4.9c-1.3,1.3-2.9,2-4.8,2C73.7,106.4,72.1,105.7,70.8,104.4z"/>
		<path d="M133.7,79.8c1.1,1.2,1.7,2.7,1.7,4.6v37.7c0,1.9-0.6,3.5-1.7,4.6c-1.2,1.2-2.7,1.8-4.6,1.8c-1.9,0-3.5-0.6-4.6-1.7
			c-1.2-1.1-1.7-2.7-1.7-4.7V108h-20.3v14.1c0,1.9-0.6,3.5-1.7,4.6c-1.2,1.2-2.7,1.8-4.6,1.8c-1.9,0-3.5-0.6-4.6-1.7
			c-1.2-1.1-1.7-2.7-1.7-4.7V84.4c0-1.9,0.6-3.5,1.7-4.6c1.1-1.1,2.7-1.7,4.6-1.7c1.9,0,3.5,0.6,4.6,1.7c1.1,1.2,1.7,2.7,1.7,4.6
			v13.3h20.3V84.4c0-1.9,0.6-3.5,1.7-4.6c1.1-1.1,2.7-1.7,4.6-1.7C131,78.1,132.5,78.7,133.7,79.8z"/>
		<path d="M151,126.4c-2.9-1.5-5.1-3.6-6.7-6.3c-1.6-2.7-2.4-5.9-2.4-9.6s0.8-6.8,2.4-9.5c1.6-2.7,3.8-4.8,6.7-6.2
			c2.9-1.5,6.2-2.2,10.1-2.2c3.8,0,7.2,0.7,10.1,2.2c2.9,1.5,5.1,3.5,6.7,6.2c1.6,2.7,2.4,5.9,2.4,9.5s-0.8,6.9-2.4,9.6
			c-1.6,2.7-3.8,4.8-6.7,6.3c-2.9,1.5-6.2,2.2-10.1,2.2C157.2,128.6,153.9,127.9,151,126.4z M167.7,110.6c0-5.8-2.2-8.7-6.7-8.7
			c-4.5,0-6.7,2.9-6.7,8.7c0,5.8,2.2,8.7,6.7,8.7C165.5,119.3,167.7,116.4,167.7,110.6z"/>
		<path d="M187.6,127.1c-1.2-1-1.8-2.4-1.8-4.3V83.9c0-1.9,0.6-3.4,1.8-4.4c1.2-1,2.7-1.5,4.5-1.5c1.8,0,3.3,0.5,4.5,1.5
			c1.2,1,1.8,2.4,1.8,4.4v38.8c0,1.9-0.6,3.4-1.8,4.3c-1.2,1-2.7,1.4-4.5,1.4C190.3,128.5,188.8,128,187.6,127.1z"/>
		<path d="M233.6,96.4c2.6,2.6,3.8,6.4,3.8,11.7v14.7c0,1.8-0.5,3.2-1.6,4.2c-1.1,1-2.5,1.5-4.4,1.5c-1.6,0-3-0.5-4-1.4
			c-1.1-0.9-1.6-2.2-1.7-3.8c-0.7,1.7-1.8,3-3.3,3.9c-1.5,0.9-3.4,1.4-5.6,1.4c-2.4,0-4.6-0.5-6.5-1.4c-1.9-1-3.4-2.3-4.5-4
			c-1.1-1.7-1.7-3.6-1.7-5.8c0-2.5,0.6-4.5,1.9-6c1.3-1.5,3.3-2.5,6.2-3.2c2.8-0.7,6.6-1,11.4-1h1.9v-0.8c0-1.6-0.4-2.8-1.1-3.6
			c-0.8-0.7-2-1.1-3.8-1.1c-1.9,0-4.7,0.7-8.5,2c-1.1,0.4-2,0.6-2.7,0.6c-1.2,0-2.1-0.4-2.8-1.3c-0.7-0.8-1.1-1.9-1.1-3.3
			c0-1,0.2-1.9,0.6-2.5c0.4-0.7,1.1-1.2,2-1.8c1.6-0.8,3.7-1.5,6.2-2c2.5-0.5,4.9-0.8,7.3-0.8C227.1,92.6,231,93.9,233.6,96.4z
			 M223.9,118.5c1.1-1.2,1.6-2.7,1.6-4.6V113h-1.1c-3,0-5.1,0.3-6.4,0.8c-1.3,0.5-1.9,1.4-1.9,2.7c0,1.1,0.3,2,1,2.7
			c0.7,0.7,1.6,1.1,2.6,1.1C221.4,120.3,222.8,119.7,223.9,118.5z"/>
		<path d="M247.9,110.7c-0.7-0.7-1.1-1.6-1.3-2.8L242.9,86c0-0.3-0.1-0.7-0.1-1.1c0-2.1,0.7-3.8,2.1-5c1.4-1.2,3.2-1.8,5.4-1.8
			c2.2,0,4,0.6,5.4,1.8c1.4,1.2,2.1,2.9,2.1,5c0,0.5,0,0.8-0.1,1.1l-3.7,21.8c-0.1,1.2-0.6,2.2-1.2,2.8c-0.7,0.7-1.5,1-2.5,1
			C249.4,111.7,248.6,111.4,247.9,110.7z M245.5,126.5c-1.3-1.3-1.9-2.9-1.9-4.9c0-1.9,0.6-3.5,1.9-4.9c1.3-1.3,2.9-2,4.9-2
			c1.9,0,3.5,0.7,4.8,2c1.3,1.3,1.9,2.9,1.9,4.9c0,1.9-0.6,3.5-1.9,4.9c-1.3,1.3-2.9,2-4.8,2C248.4,128.5,246.8,127.9,245.5,126.5z"
			/>
	</g>
	<path d="M440.5,191l1.8-0.2c0.5-0.1,2.9-0.3,7.2-0.7c2.3-0.1,3.9-0.5,5.1-1.2c1.8-1.1,2.9-3.3,3.2-5.8c0.1-1.3,0.1-3.4-1.1-5.6
		c-1.2-2.3-1.5-0.7-2.5-0.8c-0.8-0.1-0.5,0.8-4.3,1.7c-2.4,0.4-4.4,0.6-6.1,0.8c-0.5,0.2-2,0.6-2.5,0.7c0.2-1.5,0.7-4.5,0.9-5.4
		c0.7-2.8,0.8-3.5,0.8-3.9c0.2-2.1-0.3-3.5-0.7-4.3c-0.7-1.2-1.7-1.8-3-2c-2.3-0.3-4.4,1.1-5.6,3.9c-0.6,1.4-1,2.9-1.4,4.6
		c-0.3,1.5-0.6,5.3-0.9,7.8c-0.6,0-3.6,0.5-3.8,0.5c-5.1-0.3-9.8,0-15,0c-10.2,0.1-19.7-1.9-30-0.5c-1.6,0.2-3,1.4-3.7,3.2
		c-0.8,2-0.5,4.6,0.6,6.4c1,1.5,2.5,2.3,4.2,2.1c8.7-1.1,17.5-1.8,26-2c4.3-0.1,8.6-0.1,12.9,0c0.4,0,5.4,1.1,6.6,1.3
		c0.3,0,0.7,0.9,0.7,0.9c0,1.2-0.4,1.9,0.2,2.8c0,0.4-0.1,0.9-0.1,1.3c-0.3,3.4-0.5,6.5-0.6,9c0,0.6-0.1,1.2-0.1,1.8
		c-0.1,1.6-0.2,3-0.3,4.4c-0.2,3-0.2,5.7-0.2,8.1c0,2.8,0.1,4.7,0.4,6c0.2,1.2,0.6,2.2,1.1,2.9c0.7,1,1.6,1.7,2.7,1.8
		c1.2,0.2,2.4-0.2,3.6-1.1c2.2-1.6,2.7-3.8,2.9-5.1l0.1-0.6v-0.5c0-0.3-0.1-0.7-0.4-3.6c-0.1-1.1-0.3-3.3-0.1-7.3
		c0-0.6,0.1-1.3,0.1-2l0.1-0.1c0-0.7,0-1.5,0-2.4c0.1-1.5,0.2-3,0.4-4.7l0,0h-0.1c0.1-1.9,0.3-3.9,0.5-6.1
		C440.1,195.1,440.3,193,440.5,191z"/>
	<path d="M124.9,231.5c2.2,2.6,5.5,3.9,9.7,3.9c4,0,7.6-1.1,10.8-3.3c3-2.1,5.4-4.6,7-7.5l0,0c1.8-3,2.6-5.7,2.6-8.2
		c0-3-0.9-5.6-2.7-7.8c-1.4-1.8-3.2-3.6-5.3-5.3c0-0.1,0-0.1,0-0.2c0-1.5-0.9-2.8-2.3-3.4c-0.6-0.2-1.3-0.4-2.3-0.4
		c-0.4,0-0.7,0-1.1,0c-0.1-1.4-0.8-2.6-2.1-3.3c-0.8-0.5-1.9-0.8-2.8-0.8c-1.6,0-3.3,0.6-4.7,1.6c-1.3,0.9-2.3,2.2-3.3,3.9
		s-1.2,2.1-1.3,2.2c-1.8,3-3,6.4-4,10.2c-0.9,3.7-1.4,6.9-1.4,9.6C121.8,226,122.9,229.1,124.9,231.5z M132.9,215.5
		c0.7-2.2,1.6-4.6,3-6.9c0.1-0.4,0.4-0.6,0.5-0.9c0.2,0.2,0.4,0.4,0.5,0.5c0.7,0.7,1.8,1.5,3.2,2.6c1.8,1.3,3.2,2.5,4.1,3.6
		c0.6,0.7,0.9,1.5,0.9,2.5s-0.5,2.1-1.3,3.4c-0.9,1.5-2.1,2.7-3.6,3.7c-1.4,0.9-2.8,1.4-4.5,1.4c-4,0-4-1.4-4-2.7
		C131.8,220.1,132.2,217.6,132.9,215.5z"/>
	<path d="M156.1,212.2l1.1,10.7l0.6,6.1c0.2,2.1,1.3,3,2.1,3.4c0.2,0.1,0.6,0.2,0.9,0.4l2.6,0.1c0.8-0.1,1.5-0.5,2.3-0.8
		c1.1-0.7,1.8-1.5,2.2-2.8l1.1-2.9c2.6-6.7,4.8-12.2,6.8-16.3c0.4-0.7,0.6-1.3,0.9-1.8c0,1.2,0.1,2.6,0.1,4c0,2.9-0.1,6.7-0.5,11.1
		c-0.4,4.3-0.5,7.5-0.5,9.6c0,1.5,0.7,2.8,2,3.6c0.8,0.6,1.9,0.8,2.9,0.8c1.4,0,2.8-0.5,3.9-1.4l0,0c1.2-1.1,1.9-2.5,1.9-4
		c0-8.7-0.1-15.3-0.2-19.8c-0.1-4.2-0.6-7.7-1.2-10.5c-1.2-5.5-4.5-6.4-6.2-6.4c-4.7,0-7.7,4.9-9.6,8.7c-1.1,2.1-2.2,4.6-3.4,7.1
		c-0.2-5.3-0.5-9-0.7-11.4c-0.2-2.1-0.6-6.4-4.2-6.4c-1.5,0-2.9,0.5-4.1,1.3c-1.4,1.1-2.2,2.6-2.2,4.3c0,0.6,0.1,1.3,0.2,2.2
		C155.3,204.5,155.7,208.1,156.1,212.2z"/>
	<path d="M195.4,235.4c4,0,7.8-1.5,11.4-4.5c3.2-2.6,5.9-5.5,8-8.4c0.4-0.6,0.7-1.1,1.2-1.6c-0.1,3.2-0.1,5.2-0.1,6
		c0,1.8,0.4,3.4,0.9,4.9c1.3,3.2,3.9,3.5,4.8,3.5c1.2,0,2.8-0.5,4.1-2.6c0.8-1.3,1.3-2.6,1.3-3.7c0-0.9-0.4-2-1.2-2.8
		c0-0.8-0.1-1.8-0.1-2.9c0-1.5-0.1-3.2-0.1-4.7l-0.2-6c-0.1-2.5-0.1-4.1-0.2-4.9c-0.1-1.6-0.6-2.8-1.2-3.5c0.1-0.7,0.2-1.5,0.2-2.2
		c0-1.8-0.5-3.4-1.4-4.8c-0.8-1.3-1.9-2.3-3.2-3c-2.7-1.5-5.3-1.5-8.3-0.1c-1.3,0.6-2.9,1.8-5,3.4c-2.9,2.5-5.9,5.5-8.8,9.3
		c-2.9,3.6-5.3,7.4-7.1,10.9c-2,4-3,7-3,9.6c0,2.3,0.7,4.3,2.1,6C190.4,234,192.3,235.4,195.4,235.4z M199.7,220.3
		c1.5-2.9,3.5-5.9,5.9-8.8c2.3-2.9,4.6-5.3,6.7-7.1c1.6-1.4,2.5-1.6,2.7-1.8c0.1,0.1,0.2,0.4,0.2,0.7c0,1.3-0.2,2.3-0.6,3.4
		c-2.2,3.9-4.3,7-6.2,9.7c-1.8,2.5-3.7,4.7-6,6.4c-1.5,1.2-2.9,1.9-4.5,2.1C197.9,224,198.5,222.5,199.7,220.3z"/>
	<path d="M231.4,222.2c2.1,4.6,4.8,6.9,8.1,6.9c2.3,0,4.5-0.9,6.6-2.7c-0.5,4.1-0.7,7.4-0.7,10c0,3.9,0.2,6.8,0.6,8.8
		c0.7,3.4,2.2,5.2,4.6,5.2c1.3,0,2.6-0.2,3.7-0.8c2.7-1.2,3-3,3-4.1c0-0.8-0.4-1.5-0.9-2.8c-0.2-0.4-0.5-1.1-0.8-2.2
		c-0.1-0.7-0.4-2-0.4-4.2c0-2.5,0.1-5.3,0.4-8.3c0.2-3.2,0.7-7.8,1.4-13.8c0-0.2,0.2-1.5,0.9-7.1c0.7-5.3,0.8-7,0.8-7.8
		c0-1.3-0.5-2.6-1.5-3.7c-1.4-1.6-2.9-2-3.9-2c-1.9,0-3.4,0.9-4.1,2.7c-0.4,0.8-0.6,1.9-0.7,3.4l-0.5,7c-0.4,1.1-0.8,2.2-1.5,3.7
		c-0.7,1.5-1.3,2.8-1.9,3.7c-1.3,2-2.3,3.5-3.2,4.5c-0.5,0.5-0.7,0.6-1.1,0.6c-0.5-0.5-2.9-3.2-4.9-17.9c-0.7-5.2-3.9-5.7-5.3-5.7
		c-1.6,0-4.3,1.1-4.3,5c0,2.2,0.5,5.5,1.4,10C228.5,214.6,229.8,218.7,231.4,222.2z"/>
	<path d="M260.8,215.1c0,2,0.1,3.6,0.1,4.7c0,4.5,0.2,7.7,0.5,10.1c0.6,5.2,2.9,6.2,4.8,6.2c1.9,0,3.5-0.8,4.3-2.3
		c0.6-1.1,0.8-2.1,0.8-3.4l-0.2-3.2c0-0.8-0.1-2.1-0.2-3.9c-0.1-1.4-0.1-2.6-0.2-3.5c2.1-5.3,4.3-9.6,6.6-13.1
		c1.8-2.7,2.8-3.7,3.3-4.1c0.1,0.1,0.2,0.2,0.4,0.4c0.5,0.7,1.1,1.3,1.5,1.8c1.2,1.1,2.3,1.3,3.2,1.3c1.3,0,2.5-0.6,3.7-1.6
		c1.3-1.2,2-2.5,2-3.9s-0.5-2.8-1.5-4.1c-0.9-1.2-2-2.1-3.5-2.8c-1.4-0.7-2.9-1.1-4.6-1.1c-2.1,0-4.2,0.9-6.6,2.9
		c-1.5,1.4-3,3.2-4.7,5.4c0-2-0.2-2.9-0.4-3.5c-0.5-2.1-2.3-3.5-4.6-3.5c-3.6,0-5.3,2.5-5.3,4.9c0,1.9,0.1,4.9,0.2,9.3
		C260.7,210.8,260.8,213.1,260.8,215.1z"/>
	<path d="M294.2,231.3c2.7,2.6,6.1,3.9,10.1,3.9c4.7,0,8.7-1.6,11.9-4.8c2.9-2.8,5.2-6,6.7-9.4c2-4.5,2.2-6.1,2.2-7.1
		c0-2.9-1.9-4.3-3.7-4.3c-1.1,0-2.6,0.5-3.6,2.8c-0.2,0.5-0.4,0.8-0.5,1.1c-1.4,3.2-3.3,6-5.4,8.4c-1.8,2-4,3-6.9,3
		c-2.1,0-2.9-0.7-3.4-1.3c-0.8-0.9-1.3-2.6-1.3-4.6c0-1.3,0.1-2.6,0.4-4c2.8-0.6,5.5-1.4,8.2-2.5c3.4-1.4,6.2-2.9,8.4-4.8
		c2.7-2.2,4.1-4.8,4.1-7.5c0-2.6-1.2-4.8-3.4-6.2c-1.8-1.2-3.9-1.8-6.3-1.8c-3.9,0-7.5,1.4-10.9,4.3c-3.2,2.7-5.9,6.2-7.8,10.3
		c-2,4.2-2.9,8.6-2.9,12.8C290,224.9,291.4,228.7,294.2,231.3z M305.6,201.2c0.6-0.6,1.3-1.1,2-1.4c0.2-0.1,0.6-0.4,0.8-0.5
		c0,0,0,0,0.1,0c0.1-0.1,0.2-0.1,0.2-0.2c1.2-1.2,2.9-1.1,4.1,0c0.2,0.2,0.5,0.5,0.6,0.8l2.9-1.6l-2.9,1.6c0.5,1.1,0.2,2.5-0.6,3.3
		c-0.6,0.6-1.3,1.1-2,1.4c-0.2,0.1-0.6,0.4-0.8,0.5c0,0,0,0-0.1,0c-0.1,0.1-0.2,0.1-0.2,0.2c-1.2,1.2-3.7,3.2-4.9,2.1
		C303.6,206.4,304.4,202.3,305.6,201.2z"/>
	<path d="M367.9,208.2c0-2.6-1.5-4.2-2.2-4.9c-0.9-0.9-1.8-1.6-2.8-1.9l0.6-9.3c0-0.4,0.2-2.2,0.7-8.6c0.5-5.7,0.6-7.3,0.6-8
		c0-5.8-3.5-7.4-5.5-7.4c-1.5,0-2.9,0.6-4.1,1.6c-1.5,1.3-2.3,3.2-2.3,5.4c0,1-0.1,3.8-0.7,11.4l-0.3,5c-0.1,1.4-0.3,3.5-0.4,6.2
		c-0.2,2.4-0.3,4.2-0.4,5.6c-2.9,0.4-5.3,0.6-7.4,0.8l0.1-3.6v-0.1c0-0.2,0-1.3,0.3-7.6c0.3-4.1,0.3-5.5,0.3-6.1
		c0-1.3-0.1-2.5-0.3-3.6c-0.8-3.7-3.3-5.1-5.2-5.1c-1.6,0-3.1,0.6-4.4,1.8c-1.5,1.4-2.3,3.4-2.3,5.5v2.5c0.1,3.9,0.1,8.3,0.1,13.2
		c0,1,0,2.2-0.1,3.6c-0.1,0-0.3,0-0.4,0l-3.1-0.1c-0.7,0-3,0-4.7,1.9c-0.8,0.9-1.7,2.4-1.7,4.9c0,2.4,1,4.6,2.7,6
		c1.3,1,2.8,1.5,4.4,1.5c0.6,0,1.3,0,2-0.1c-0.1,1.9-0.2,3.9-0.4,5.9v0.1c0,0.6-0.1,1.4-0.2,2.4v0.4c0,0.6-0.1,1.3-0.2,2.1
		c-0.1,1.1-0.1,1.8-0.1,2.4c0,1.5,0.3,3,0.8,4.2c1,2.3,2.9,3.7,5,3.7c1.2,0,2.4-0.5,3.7-1.4c2.4-1.8,2.8-4.2,2.8-5.4
		c0-0.6-0.1-1.4-0.2-2.3c0-0.2-0.1-0.3-0.1-0.4c0-0.5,0-2,0.3-7.2c0.1-2.1,0.2-4.1,0.3-5.9c0.7-0.1,1.6-0.2,2.4-0.3l4.6-0.5
		c0,0.3,0,0.6-0.1,0.9c-0.2,2.7-0.3,4.6-0.5,5.7v0.1c-0.5,1-1.1,2.1-1.1,3.6c0,1.4,0.3,2.9,0.9,4.6c1.5,4.2,4,4.8,5.4,4.8
		c1,0,5.8-0.4,6.4-7.9l0.9-13v-0.1c0.5-0.1,1-0.3,1.5-0.4C366.7,213.3,367.9,210.5,367.9,208.2z"/>
	<path d="M398.4,220.2c0-1.3-0.1-2.7-0.1-4l-0.2-5.1c-0.1-2.1-0.1-3.5-0.2-4.2c-0.1-1.4-0.5-2.4-1-3c0.1-0.6,0.2-1.3,0.2-1.9
		c0-1.5-0.4-2.9-1.2-4.1c-0.7-1.1-1.6-2-2.7-2.6c-2.3-1.3-4.5-1.3-7.1-0.1c-1.1,0.5-2.5,1.5-4.3,2.9c-2.5,2.1-5,4.7-7.5,7.8
		c-2.5,3.1-4.5,6.3-6.1,9.2c-1.7,3.4-2.6,6-2.6,8.1c0,2,0.6,3.7,1.8,5.1c0.9,1,2.5,2.2,5.2,2.2c3.4,0,6.7-1.3,9.6-3.8
		c2.7-2.2,5-4.7,6.8-7.2c0.3-0.5,0.6-0.9,1-1.4c-0.1,2.7-0.1,4.4-0.1,5.1c0,1.5,0.3,2.9,0.8,4.2c1.1,2.7,3.3,3,4.1,3
		c1,0,2.4-0.4,3.5-2.2c0.7-1.1,1.1-2.2,1.1-3.2c0-0.8-0.3-1.7-1-2.4C398.5,222,398.4,221.1,398.4,220.2z M388.9,206.2
		c-1.9,3.2-3.7,6-5.3,8.2c-1.5,2.1-3.2,4-5.1,5.5l0,0c-1.3,1-2.5,1.6-3.8,1.8c0.2-0.8,0.6-2.1,1.7-4c1.3-2.5,3-5,5-7.5
		c2-2.5,3.9-4.5,5.7-6.1c1.4-1.2,2.1-1.4,2.3-1.5c0.1,0.1,0.2,0.3,0.2,0.6C389.4,204.3,389.3,205.3,388.9,206.2z"/>
	<path d="M425.6,204.2c1.1-1,1.7-2.1,1.7-3.3c0-1.2-0.4-2.4-1.3-3.5c-0.8-1-1.7-1.8-3-2.4c-1.2-0.6-2.5-0.9-3.9-0.9
		c-1.8,0-3.6,0.8-5.6,2.5c-1.3,1.2-2.6,2.7-4,4.6c0-1.7-0.2-2.5-0.3-3c-0.4-1.8-2-3-3.9-3c-3.1,0-4.5,2.1-4.5,4.2
		c0,1.6,0.1,4.2,0.2,7.8c0.1,2.4,0.1,4.4,0.2,6.1c0,1.7,0.1,3.1,0.1,4c0,3.8,0.2,6.6,0.4,8.5c0.5,4.4,2.5,5.3,4.1,5.3s3-0.7,3.7-2
		c0.5-0.9,0.7-1.8,0.7-2.9l-0.2-2.7c0-0.7-0.1-1.8-0.2-3.3c-0.1-1.2-0.1-2.2-0.2-3c1.8-4.5,3.7-8.1,5.6-11.1
		c1.5-2.3,2.4-3.2,2.8-3.5c0.1,0.1,0.2,0.2,0.3,0.3c0.4,0.6,0.9,1.1,1.3,1.5c1,0.9,2,1.1,2.7,1.1
		C423.5,205.6,424.6,205.1,425.6,204.2z"/>
	<path d="M96.1,239.7c9.1-8.1,15.9-15.5,20-21.9c4.3-6.8,6.7-14.2,6.7-21.9c0-7.3-3.2-17.1-17.9-22.4c-10.5-3.7-24.1-5.6-40.5-5.6
		c-5.2,0-9.6,0.2-13.6,0.6c-3.7,0.4-8.3,0.9-13.7,1.6c-2,0.2-3.5,0.7-4.7,1.5c-2.6,1.6-2.9,3.7-2.9,4.9c0,1.9,0.5,3.7,1.5,5.6
		c1.9,3.2,4.1,3.9,5.7,3.9c1.1,0,2.2-0.2,4-0.8c3.4-0.9,5-1.1,5.6-1.2h0.4c3-0.5,6-0.8,8.6-1.1c-0.1,0.4-0.4,0.7-0.5,1.1l-0.1,0.2
		c-1.2,3.7-1.8,8.4-1.8,14.1c0,3.4,0.1,9.3,0.2,17.6c0.2,7,0.4,15,0.4,23.7c0,5-0.2,9.5-0.6,13.1c-0.6,6-0.6,6.7-0.6,7
		c0,2.6,1.1,4.1,2,4.9c1.2,1.1,2.7,1.5,4.6,1.5c2.1,0,4-0.6,5.3-1.9c0.7-0.6,1.2-1.4,1.6-2.2c3.7-1.9,8.2-4.8,13.4-8.7
		C85,249.2,90.6,244.5,96.1,239.7z M68.1,243.2c0-1.4,0-2.9,0-4.7c0-3.9-0.1-10.8-0.2-21c-0.2-7.7-0.4-15-0.4-21.4
		c0-1.9,0.4-4,1.1-6.2c1.2-3.9,1.4-4.6,1.5-5l0.1-0.5V184c0-0.5-0.1-0.9-0.2-1.4c11.2,0.4,20.5,1.5,27.8,3.7
		c9.3,2.7,10.3,7.3,10.3,10.5c0,5-1.5,9.8-4.6,14.6c-3.3,5.2-8.7,11-15.9,17.6c-3.6,3-8.1,6.6-13.4,10.3
		C71.9,240.8,69.9,242.1,68.1,243.2z"/>
	<g>
		<path d="M139.3,178.1c-2.7-0.7-4.8-1.6-6.5-2.8c-0.7-0.5-1.1-1-1.4-1.6c-0.3-0.5-0.4-1.2-0.4-2.1c0-1.2,0.3-2.2,1-3
			c0.7-0.9,1.5-1.3,2.4-1.3c0.5,0,1,0.1,1.5,0.2c0.5,0.2,1,0.4,1.7,0.9c1.6,0.9,3.2,1.5,4.7,1.9c1.6,0.4,3.3,0.6,5.3,0.6
			c2.3,0,4-0.3,5.2-1c1.2-0.7,1.8-1.7,1.8-3c0-0.9-0.6-1.7-1.7-2.3c-1.1-0.6-3.2-1.3-6.3-1.9c-3.8-0.8-6.8-1.8-9-2.9
			c-2.2-1.1-3.7-2.4-4.6-4c-0.9-1.5-1.3-3.4-1.3-5.5c0-2.5,0.7-4.7,2.2-6.7c1.5-2,3.5-3.6,6.1-4.7c2.6-1.1,5.5-1.7,8.7-1.7
			c2.8,0,5.3,0.3,7.5,0.9c2.2,0.6,4.2,1.6,6,2.9c0.7,0.5,1.2,1,1.5,1.6c0.3,0.6,0.4,1.2,0.4,2.1c0,1.2-0.3,2.2-1,3
			c-0.7,0.9-1.5,1.3-2.4,1.3c-0.5,0-1-0.1-1.4-0.2c-0.4-0.1-1-0.4-1.8-0.9c-0.2-0.1-0.7-0.4-1.7-0.9c-0.9-0.5-2-0.9-3.2-1.2
			c-1.2-0.3-2.5-0.4-4-0.4c-2,0-3.6,0.4-4.8,1.1c-1.2,0.8-1.8,1.8-1.8,3c0,0.7,0.2,1.3,0.6,1.8c0.4,0.5,1.2,0.9,2.4,1.4
			c1.2,0.4,2.9,0.9,5.2,1.4c3.7,0.8,6.6,1.8,8.8,2.9c2.1,1.1,3.6,2.5,4.5,4c0.9,1.5,1.3,3.3,1.3,5.3c0,2.6-0.7,4.8-2.1,6.8
			c-1.4,2-3.4,3.5-6,4.5c-2.6,1.1-5.6,1.6-9,1.6C144.8,179.1,141.9,178.8,139.3,178.1z"/>
		<path d="M176.5,177.2c-2.4-1.2-4.2-3-5.5-5.2c-1.3-2.2-1.9-4.9-1.9-7.9s0.6-5.6,1.9-7.9c1.3-2.2,3.1-3.9,5.5-5.1
			c2.4-1.2,5.1-1.8,8.3-1.8c3.2,0,5.9,0.6,8.3,1.8c2.4,1.2,4.2,2.9,5.5,5.1c1.3,2.2,1.9,4.8,1.9,7.9s-0.6,5.7-1.9,7.9
			c-1.3,2.2-3.1,4-5.5,5.2c-2.4,1.2-5.1,1.8-8.3,1.8C181.6,179.1,178.9,178.4,176.5,177.2z M190.3,164.1c0-4.8-1.8-7.2-5.5-7.2
			c-3.7,0-5.5,2.4-5.5,7.2c0,4.8,1.8,7.2,5.5,7.2C188.4,171.3,190.3,168.9,190.3,164.1z"/>
		<path d="M248.9,152.1c1.7,1.9,2.6,5,2.6,9.5v12.5c0,1.6-0.5,2.8-1.5,3.6c-1,0.8-2.2,1.2-3.7,1.2c-1.5,0-2.7-0.4-3.7-1.2
			c-1-0.8-1.5-2-1.5-3.6v-12.8c0-1.5-0.3-2.6-0.8-3.3c-0.5-0.6-1.3-0.9-2.4-0.9c-1.4,0-2.4,0.5-3.3,1.5c-0.8,1-1.2,2.3-1.2,4v11.5
			c0,1.6-0.5,2.8-1.5,3.6c-1,0.8-2.2,1.2-3.7,1.2c-1.5,0-2.7-0.4-3.7-1.2c-1-0.8-1.5-2-1.5-3.6v-12.8c0-1.5-0.3-2.6-0.8-3.3
			c-0.5-0.6-1.3-0.9-2.4-0.9c-1.4,0-2.4,0.5-3.2,1.5c-0.8,1-1.2,2.3-1.2,4v11.5c0,1.6-0.5,2.8-1.5,3.6c-1,0.8-2.2,1.2-3.7,1.2
			c-1.5,0-2.7-0.4-3.7-1.2c-1-0.8-1.5-2-1.5-3.6v-20.1c0-1.5,0.5-2.7,1.5-3.5c1-0.8,2.3-1.2,3.7-1.2c1.4,0,2.5,0.4,3.4,1.1
			c0.9,0.7,1.4,1.8,1.4,3.1c1.9-2.9,4.8-4.3,8.7-4.3c4.1,0,6.9,1.7,8.3,5.1c1-1.5,2.3-2.8,3.9-3.7c1.6-0.9,3.5-1.4,5.5-1.4
			C244.8,149.3,247.2,150.3,248.9,152.1z"/>
		<path d="M263.4,177.2c-2.4-1.2-4.2-3-5.5-5.2c-1.3-2.2-1.9-4.9-1.9-7.9s0.6-5.6,1.9-7.9c1.3-2.2,3.1-3.9,5.5-5.1
			c2.4-1.2,5.1-1.8,8.3-1.8c3.2,0,5.9,0.6,8.3,1.8c2.4,1.2,4.2,2.9,5.5,5.1c1.3,2.2,1.9,4.8,1.9,7.9s-0.6,5.7-1.9,7.9
			c-1.3,2.2-3.1,4-5.5,5.2c-2.4,1.2-5.1,1.8-8.3,1.8C268.5,179.1,265.8,178.4,263.4,177.2z M277.2,164.1c0-4.8-1.8-7.2-5.5-7.2
			c-3.7,0-5.5,2.4-5.5,7.2c0,4.8,1.8,7.2,5.5,7.2C275.4,171.3,277.2,168.9,277.2,164.1z"/>
		<path d="M296.8,178.5c-1.8-0.4-3.3-1-4.7-1.9c-0.5-0.3-1-0.7-1.3-1.4c-0.3-0.7-0.5-1.4-0.5-2.2c0-1,0.3-1.9,0.8-2.6
			c0.6-0.7,1.3-1,2.1-1c0.6,0,1.1,0.1,1.6,0.2c0.5,0.1,1.1,0.4,1.9,0.7c1.2,0.4,2.3,0.8,3.3,1c0.9,0.2,2.2,0.3,3.6,0.3
			c1,0,1.9-0.1,2.5-0.4c0.6-0.3,0.9-0.7,0.9-1.2c0-0.4-0.1-0.8-0.4-1c-0.3-0.2-0.8-0.5-1.7-0.7c-0.8-0.2-2.2-0.5-4.1-0.9
			c-3.4-0.7-5.9-1.7-7.5-3c-1.5-1.3-2.3-3.2-2.3-5.7c0-1.8,0.6-3.4,1.7-4.8c1.1-1.4,2.6-2.6,4.6-3.4c1.9-0.8,4.1-1.2,6.5-1.2
			c1.7,0,3.4,0.2,5.1,0.6c1.6,0.4,3.1,1,4.4,1.8c1.2,0.7,1.8,1.8,1.8,3.4c0,1.1-0.3,2-0.9,2.7c-0.6,0.7-1.3,1.1-2.1,1.1
			c-1,0-2.2-0.3-3.6-1c-0.9-0.4-1.8-0.7-2.5-1c-0.7-0.2-1.6-0.3-2.5-0.3c-1,0-1.7,0.1-2.3,0.4c-0.5,0.3-0.8,0.7-0.8,1.2
			c0,0.6,0.4,1.1,1.1,1.5c0.8,0.3,2.3,0.7,4.5,1.2c3.8,0.7,6.4,1.7,8,3c1.5,1.3,2.3,3.3,2.3,5.8c0,2.8-1.2,5.1-3.5,6.8
			c-2.3,1.7-5.5,2.5-9.4,2.5C300.8,179.1,298.6,178.9,296.8,178.5z"/>
	</g>
	<g>
		<path d="M103.4,280.5c-0.5-0.5-0.7-1.2-0.7-2.1v-17.4c0-0.9,0.2-1.6,0.7-2.1c0.5-0.5,1.2-0.7,2.1-0.7h11.3c0.9,0,1.6,0.2,2.1,0.6
			c0.5,0.4,0.7,1,0.7,1.7c0,1.6-0.9,2.3-2.8,2.3h-8.2v4.4h7.5c1.9,0,2.8,0.8,2.8,2.3c0,0.7-0.2,1.3-0.7,1.7
			c-0.5,0.4-1.2,0.6-2.1,0.6h-7.5v4.8h8.2c1.9,0,2.8,0.8,2.8,2.3c0,0.7-0.2,1.3-0.7,1.7c-0.5,0.4-1.2,0.6-2.1,0.6h-11.3
			C104.6,281.3,103.9,281,103.4,280.5z"/>
		<path d="M124.3,281.2c-1-0.2-1.9-0.6-2.6-1c-0.3-0.2-0.5-0.4-0.7-0.8c-0.2-0.4-0.3-0.8-0.3-1.2c0-0.6,0.2-1.1,0.5-1.4
			c0.3-0.4,0.7-0.6,1.2-0.6c0.3,0,0.6,0,0.9,0.1c0.3,0.1,0.6,0.2,1,0.4c0.7,0.2,1.3,0.4,1.8,0.6c0.5,0.1,1.2,0.2,2,0.2
			c0.6,0,1-0.1,1.4-0.2c0.3-0.2,0.5-0.4,0.5-0.7c0-0.2-0.1-0.4-0.2-0.6c-0.2-0.1-0.5-0.3-0.9-0.4c-0.5-0.1-1.2-0.3-2.3-0.5
			c-1.9-0.4-3.3-0.9-4.2-1.7c-0.9-0.7-1.3-1.8-1.3-3.2c0-1,0.3-1.9,0.9-2.7c0.6-0.8,1.5-1.4,2.6-1.9c1.1-0.5,2.3-0.7,3.6-0.7
			c1,0,1.9,0.1,2.8,0.4c0.9,0.2,1.7,0.6,2.5,1c0.7,0.4,1,1,1,1.9c0,0.6-0.2,1.1-0.5,1.5c-0.3,0.4-0.7,0.6-1.2,0.6
			c-0.6,0-1.2-0.2-2-0.6c-0.5-0.2-1-0.4-1.4-0.5c-0.4-0.1-0.9-0.2-1.4-0.2c-0.5,0-1,0.1-1.3,0.2c-0.3,0.2-0.5,0.4-0.5,0.7
			c0,0.3,0.2,0.6,0.6,0.8c0.4,0.2,1.3,0.4,2.5,0.7c2.1,0.4,3.6,0.9,4.5,1.7s1.3,1.8,1.3,3.2c0,1.6-0.7,2.8-2,3.8
			c-1.3,0.9-3.1,1.4-5.3,1.4C126.6,281.5,125.3,281.4,124.3,281.2z"/>
		<path d="M149.1,279.3c0,0.8-0.3,1.3-0.9,1.7c-0.6,0.4-1.4,0.5-2.5,0.5l-0.9-0.1c-2-0.2-3.4-0.7-4.4-1.8c-1-1-1.5-2.5-1.5-4.3v-5.8
			H138c-1.7,0-2.6-0.7-2.6-2.1c0-1.4,0.9-2.1,2.6-2.1h0.9v-2.1c0-0.8,0.3-1.5,0.8-2c0.5-0.5,1.2-0.7,2.1-0.7c0.9,0,1.6,0.2,2.1,0.7
			c0.5,0.5,0.8,1.1,0.8,2v2.1h1.8c1.7,0,2.6,0.7,2.6,2.1c0,1.4-0.9,2.1-2.6,2.1h-1.8v6.2c0,0.4,0.1,0.8,0.4,1c0.2,0.3,0.6,0.4,1,0.5
			l0.9,0.1C148.4,277.4,149.1,278.1,149.1,279.3z"/>
		<path d="M166,265.6c0.5,0.5,0.8,1.1,0.8,2v11.3c0,0.8-0.3,1.4-0.8,1.9c-0.5,0.5-1.2,0.7-2.1,0.7c-0.8,0-1.4-0.2-1.9-0.6
			c-0.5-0.4-0.8-1-0.8-1.7c-0.5,0.8-1.1,1.4-1.9,1.8c-0.8,0.4-1.7,0.6-2.7,0.6c-2.1,0-3.6-0.6-4.6-1.7c-1-1.1-1.5-2.9-1.5-5.2v-7
			c0-0.8,0.3-1.5,0.8-2c0.5-0.5,1.2-0.7,2.1-0.7c0.9,0,1.6,0.2,2.1,0.7c0.5,0.5,0.8,1.1,0.8,2v7.2c0,1.6,0.7,2.3,2,2.3
			c0.8,0,1.4-0.3,1.9-0.8c0.5-0.6,0.7-1.3,0.7-2.2v-6.4c0-0.8,0.3-1.5,0.8-2c0.5-0.5,1.2-0.7,2.1-0.7
			C164.8,264.9,165.5,265.2,166,265.6z"/>
		<path d="M186.3,258.9c0.6,0.5,0.8,1.1,0.8,1.9v18c0,0.8-0.3,1.5-0.8,2c-0.5,0.5-1.2,0.7-2.1,0.7c-0.8,0-1.5-0.2-2-0.6
			c-0.5-0.4-0.8-1-0.9-1.7c-0.5,0.8-1.1,1.4-2,1.8c-0.9,0.4-1.9,0.7-2.9,0.7c-1.4,0-2.6-0.4-3.7-1.1c-1.1-0.7-1.9-1.7-2.5-3
			c-0.6-1.3-0.9-2.7-0.9-4.4c0-1.6,0.3-3.1,0.9-4.3c0.6-1.2,1.4-2.2,2.5-2.9c1.1-0.7,2.3-1,3.7-1c1,0,2,0.2,2.8,0.6
			c0.9,0.4,1.5,1,2,1.7v-6.5c0-0.8,0.3-1.4,0.8-1.8c0.5-0.5,1.2-0.7,2.1-0.7C185.1,258.2,185.8,258.4,186.3,258.9z M180.6,276.1
			c0.5-0.7,0.8-1.7,0.8-3c0-1.3-0.3-2.3-0.8-2.9c-0.5-0.7-1.3-1-2.3-1c-1,0-1.8,0.3-2.3,1c-0.5,0.7-0.8,1.6-0.8,2.9
			c0,1.3,0.3,2.3,0.8,3c0.6,0.7,1.3,1.1,2.3,1.1C179.3,277.2,180.1,276.8,180.6,276.1z"/>
		<path d="M191.1,261.9c-0.6-0.5-0.9-1.2-0.9-2s0.3-1.5,0.9-2c0.6-0.5,1.4-0.7,2.3-0.7c1,0,1.7,0.2,2.3,0.7c0.6,0.5,0.9,1.2,0.9,2
			s-0.3,1.5-0.9,2c-0.6,0.5-1.4,0.8-2.3,0.8C192.5,262.6,191.7,262.4,191.1,261.9z M191.4,280.8c-0.6-0.4-0.8-1.1-0.8-2v-11.2
			c0-0.9,0.3-1.6,0.8-2c0.6-0.4,1.2-0.7,2.1-0.7c0.8,0,1.5,0.2,2.1,0.7c0.6,0.4,0.8,1.1,0.8,2v11.2c0,0.9-0.3,1.6-0.8,2
			c-0.6,0.4-1.2,0.7-2.1,0.7C192.6,281.5,191.9,281.2,191.4,280.8z"/>
		<path d="M203.1,280.5c-1.3-0.7-2.4-1.7-3.1-2.9c-0.7-1.3-1.1-2.7-1.1-4.4c0-1.7,0.4-3.2,1.1-4.4c0.7-1.2,1.8-2.2,3.1-2.9
			c1.3-0.7,2.9-1,4.7-1c1.8,0,3.3,0.3,4.7,1c1.3,0.7,2.3,1.6,3.1,2.9c0.7,1.2,1.1,2.7,1.1,4.4c0,1.7-0.4,3.2-1.1,4.4
			c-0.7,1.3-1.8,2.2-3.1,2.9c-1.3,0.7-2.9,1-4.7,1C206,281.5,204.4,281.2,203.1,280.5z M210.8,273.2c0-2.7-1-4-3.1-4
			c-2.1,0-3.1,1.3-3.1,4c0,2.7,1,4,3.1,4C209.8,277.2,210.8,275.8,210.8,273.2z"/>
		<path d="M244.6,258.9c0.6,0.5,0.8,1.1,0.8,1.9v18c0,0.8-0.3,1.5-0.8,2c-0.5,0.5-1.2,0.7-2.1,0.7c-0.8,0-1.5-0.2-2-0.6
			c-0.5-0.4-0.8-1-0.9-1.7c-0.5,0.8-1.1,1.4-2,1.8c-0.9,0.4-1.9,0.7-2.9,0.7c-1.4,0-2.6-0.4-3.7-1.1c-1.1-0.7-1.9-1.7-2.5-3
			c-0.6-1.3-0.9-2.7-0.9-4.4c0-1.6,0.3-3.1,0.9-4.3c0.6-1.2,1.4-2.2,2.5-2.9c1.1-0.7,2.3-1,3.7-1c1,0,2,0.2,2.8,0.6
			c0.9,0.4,1.5,1,2,1.7v-6.5c0-0.8,0.3-1.4,0.8-1.8c0.5-0.5,1.2-0.7,2.1-0.7C243.4,258.2,244.1,258.4,244.6,258.9z M239,276.1
			c0.5-0.7,0.8-1.7,0.8-3c0-1.3-0.3-2.3-0.8-2.9c-0.5-0.7-1.3-1-2.3-1c-1,0-1.8,0.3-2.3,1c-0.5,0.7-0.8,1.6-0.8,2.9
			c0,1.3,0.3,2.3,0.8,3c0.6,0.7,1.3,1.1,2.3,1.1C237.6,277.2,238.4,276.8,239,276.1z"/>
		<path d="M263.1,276.7c0.3,0.4,0.5,0.9,0.5,1.5c0,0.9-0.4,1.5-1.3,2c-0.7,0.4-1.6,0.7-2.6,0.9c-1,0.2-1.9,0.4-2.8,0.4
			c-1.8,0-3.3-0.3-4.7-1c-1.3-0.7-2.3-1.6-3.1-2.9c-0.7-1.3-1.1-2.7-1.1-4.4c0-1.6,0.3-3,1-4.3c0.7-1.3,1.6-2.3,2.9-3
			c1.2-0.7,2.6-1.1,4.1-1.1c1.5,0,2.8,0.3,3.9,1c1.1,0.7,2,1.6,2.6,2.8c0.6,1.2,0.9,2.6,0.9,4.2c0,0.5-0.1,0.9-0.3,1.2
			c-0.2,0.3-0.6,0.4-1,0.4h-8.6c0.2,1,0.5,1.8,1,2.2c0.5,0.5,1.3,0.7,2.3,0.7c0.5,0,1-0.1,1.5-0.2c0.5-0.1,1-0.3,1.5-0.5
			c0.3-0.1,0.6-0.2,1-0.3c0.3-0.1,0.6-0.1,0.9-0.1C262.4,276.1,262.8,276.3,263.1,276.7z M254.5,269.5c-0.5,0.5-0.7,1.2-0.8,2.1h5.1
			c-0.1-1.9-1-2.9-2.5-2.9C255.5,268.8,254.9,269,254.5,269.5z"/>
		<path d="M294.4,271.4c0.7,1,1.1,2.2,1.1,3.6c0,1.3-0.3,2.4-1,3.3c-0.7,0.9-1.6,1.7-2.8,2.2c-1.2,0.5-2.7,0.8-4.3,0.8h-8.7
			c-0.9,0-1.6-0.2-2.1-0.7c-0.5-0.5-0.7-1.2-0.7-2.1v-17.4c0-0.9,0.2-1.6,0.7-2.1c0.5-0.5,1.2-0.7,2.1-0.7h8.3
			c2.4,0,4.3,0.5,5.7,1.6c1.4,1.1,2.1,2.5,2.1,4.3c0,1.2-0.3,2.2-0.9,3.1c-0.6,0.9-1.5,1.6-2.6,2
			C292.7,269.8,293.7,270.4,294.4,271.4z M281.8,267.3h4.3c1.1,0,2-0.2,2.5-0.5c0.5-0.3,0.8-0.9,0.8-1.7c0-0.8-0.3-1.4-0.8-1.8
			c-0.5-0.4-1.3-0.6-2.5-0.6h-4.3V267.3z M289.2,276.2c0.5-0.4,0.8-1,0.8-1.9c0-0.9-0.3-1.5-0.8-1.9c-0.5-0.4-1.4-0.6-2.6-0.6h-4.8
			v4.9h4.8C287.8,276.7,288.7,276.5,289.2,276.2z"/>
		<path d="M310.1,265.4c0.4,0.4,0.7,1,0.7,1.8c0,0.9-0.2,1.5-0.6,1.9c-0.4,0.4-1.1,0.6-2.2,0.7l-1,0.1c-1.1,0.1-1.9,0.5-2.3,1
			c-0.5,0.6-0.7,1.3-0.7,2.3v5.6c0,0.9-0.3,1.6-0.8,2c-0.6,0.4-1.2,0.7-2.1,0.7s-1.5-0.2-2.1-0.7c-0.6-0.4-0.8-1.1-0.8-2v-11.3
			c0-0.8,0.3-1.5,0.8-1.9c0.6-0.5,1.2-0.7,2-0.7c0.8,0,1.4,0.2,1.9,0.7c0.5,0.4,0.7,1,0.7,1.8v0.6c0.3-1,0.9-1.7,1.7-2.2
			c0.8-0.5,1.6-0.8,2.5-0.8l0.5,0C309.1,264.9,309.7,265,310.1,265.4z"/>
		<path d="M324.8,266.6c1.2,1.2,1.8,3,1.8,5.4v6.8c0,0.8-0.2,1.5-0.7,1.9c-0.5,0.5-1.2,0.7-2,0.7c-0.8,0-1.4-0.2-1.9-0.7
			c-0.5-0.4-0.8-1-0.8-1.8c-0.3,0.8-0.8,1.4-1.5,1.8c-0.7,0.4-1.6,0.7-2.6,0.7c-1.1,0-2.1-0.2-3-0.7c-0.9-0.4-1.6-1.1-2.1-1.9
			c-0.5-0.8-0.8-1.7-0.8-2.7c0-1.1,0.3-2.1,0.9-2.7c0.6-0.7,1.5-1.2,2.8-1.5c1.3-0.3,3.1-0.5,5.3-0.5h0.9v-0.4
			c0-0.8-0.2-1.3-0.5-1.6c-0.3-0.3-0.9-0.5-1.8-0.5c-0.9,0-2.2,0.3-3.9,0.9c-0.5,0.2-0.9,0.3-1.3,0.3c-0.5,0-1-0.2-1.3-0.6
			c-0.3-0.4-0.5-0.9-0.5-1.5c0-0.5,0.1-0.9,0.3-1.2c0.2-0.3,0.5-0.6,0.9-0.8c0.8-0.4,1.7-0.7,2.9-0.9c1.1-0.2,2.3-0.4,3.4-0.4
			C321.8,264.9,323.6,265.4,324.8,266.6z M320.3,276.8c0.5-0.6,0.7-1.3,0.7-2.1v-0.4h-0.5c-1.4,0-2.4,0.1-3,0.4
			c-0.6,0.2-0.9,0.7-0.9,1.3c0,0.5,0.2,0.9,0.5,1.2c0.3,0.3,0.7,0.5,1.2,0.5C319.2,277.6,319.8,277.4,320.3,276.8z"/>
		<path d="M344.8,266.6c0.9,1.1,1.4,2.9,1.4,5.2v7c0,0.8-0.3,1.5-0.8,2c-0.5,0.5-1.2,0.7-2.1,0.7c-0.9,0-1.6-0.2-2.1-0.7
			c-0.5-0.5-0.8-1.1-0.8-2V272c0-1-0.2-1.6-0.5-2.1c-0.3-0.4-0.8-0.7-1.5-0.7c-0.9,0-1.6,0.3-2.1,0.8c-0.5,0.6-0.8,1.3-0.8,2.2v6.4
			c0,0.8-0.3,1.5-0.8,2c-0.5,0.5-1.2,0.7-2.1,0.7c-0.9,0-1.6-0.2-2.1-0.7c-0.5-0.5-0.8-1.1-0.8-2v-11.3c0-0.8,0.3-1.4,0.8-1.9
			c0.5-0.5,1.2-0.7,2.1-0.7c0.8,0,1.5,0.2,2,0.7c0.5,0.5,0.7,1.1,0.7,1.8c0.6-0.8,1.3-1.5,2.2-1.9c0.9-0.4,1.9-0.7,3-0.7
			C342.5,264.9,343.9,265.4,344.8,266.6z"/>
		<path d="M365.6,258.9c0.6,0.5,0.8,1.1,0.8,1.9v18c0,0.8-0.3,1.5-0.8,2c-0.5,0.5-1.2,0.7-2.1,0.7c-0.8,0-1.5-0.2-2-0.6
			c-0.5-0.4-0.8-1-0.9-1.7c-0.5,0.8-1.1,1.4-2,1.8c-0.9,0.4-1.9,0.7-2.9,0.7c-1.4,0-2.6-0.4-3.7-1.1c-1.1-0.7-1.9-1.7-2.5-3
			c-0.6-1.3-0.9-2.7-0.9-4.4c0-1.6,0.3-3.1,0.9-4.3c0.6-1.2,1.4-2.2,2.5-2.9c1.1-0.7,2.3-1,3.7-1c1,0,2,0.2,2.8,0.6
			c0.9,0.4,1.5,1,2,1.7v-6.5c0-0.8,0.3-1.4,0.8-1.8c0.5-0.5,1.2-0.7,2.1-0.7S365.1,258.4,365.6,258.9z M359.9,276.1
			c0.5-0.7,0.8-1.7,0.8-3c0-1.3-0.3-2.3-0.8-2.9c-0.5-0.7-1.3-1-2.3-1c-1,0-1.8,0.3-2.3,1c-0.5,0.7-0.8,1.6-0.8,2.9
			c0,1.3,0.3,2.3,0.8,3c0.6,0.7,1.3,1.1,2.3,1.1C358.6,277.2,359.4,276.8,359.9,276.1z"/>
		<path d="M370.4,261.9c-0.6-0.5-0.9-1.2-0.9-2s0.3-1.5,0.9-2c0.6-0.5,1.4-0.7,2.3-0.7c1,0,1.7,0.2,2.3,0.7c0.6,0.5,0.9,1.2,0.9,2
			s-0.3,1.5-0.9,2c-0.6,0.5-1.4,0.8-2.3,0.8C371.8,262.6,371,262.4,370.4,261.9z M370.7,280.8c-0.6-0.4-0.8-1.1-0.8-2v-11.2
			c0-0.9,0.3-1.6,0.8-2c0.6-0.4,1.2-0.7,2.1-0.7s1.5,0.2,2.1,0.7c0.6,0.4,0.8,1.1,0.8,2v11.2c0,0.9-0.3,1.6-0.8,2
			c-0.6,0.4-1.2,0.7-2.1,0.7S371.2,281.2,370.7,280.8z"/>
		<path d="M394,266.6c0.9,1.1,1.4,2.9,1.4,5.2v7c0,0.8-0.3,1.5-0.8,2c-0.5,0.5-1.2,0.7-2.1,0.7c-0.9,0-1.6-0.2-2.1-0.7
			c-0.5-0.5-0.8-1.1-0.8-2V272c0-1-0.2-1.6-0.5-2.1c-0.3-0.4-0.8-0.7-1.5-0.7c-0.9,0-1.6,0.3-2.1,0.8c-0.5,0.6-0.8,1.3-0.8,2.2v6.4
			c0,0.8-0.3,1.5-0.8,2c-0.5,0.5-1.2,0.7-2.1,0.7c-0.9,0-1.6-0.2-2.1-0.7c-0.5-0.5-0.8-1.1-0.8-2v-11.3c0-0.8,0.3-1.4,0.8-1.9
			c0.5-0.5,1.2-0.7,2.1-0.7c0.8,0,1.5,0.2,2,0.7c0.5,0.5,0.7,1.1,0.7,1.8c0.6-0.8,1.3-1.5,2.2-1.9c0.9-0.4,1.9-0.7,3-0.7
			C391.7,264.9,393.1,265.4,394,266.6z"/>
		<path d="M415,265.7c0.5,0.5,0.8,1.1,0.8,1.9v11.7c0,2.6-0.8,4.7-2.4,6c-1.6,1.4-3.9,2.1-7,2.1c-1.2,0-2.3-0.1-3.4-0.3
			c-1.1-0.2-2-0.5-2.7-0.9c-0.4-0.2-0.7-0.5-0.9-0.8c-0.2-0.3-0.3-0.7-0.3-1.2c0-0.6,0.2-1.1,0.5-1.5c0.3-0.4,0.7-0.6,1.2-0.6
			c0.4,0,1.1,0.2,2.1,0.5c0.7,0.2,1.3,0.4,1.8,0.5c0.5,0.1,1.1,0.2,1.6,0.2c1.3,0,2.3-0.3,2.9-0.8c0.6-0.6,0.9-1.4,0.9-2.6v-1.2
			c-0.5,0.7-1.2,1.3-2.1,1.7c-0.9,0.4-1.9,0.6-2.9,0.6c-1.4,0-2.6-0.3-3.7-1c-1.1-0.7-1.9-1.6-2.5-2.8s-0.9-2.6-0.9-4.2
			c0-1.6,0.3-3,0.9-4.2c0.6-1.2,1.5-2.2,2.5-2.8c1.1-0.7,2.3-1,3.7-1c1.1,0,2,0.2,2.9,0.7c0.9,0.4,1.6,1,2.1,1.8
			c0-0.7,0.3-1.3,0.8-1.7c0.5-0.4,1.2-0.6,2-0.6C413.8,264.9,414.5,265.2,415,265.7z M409.2,275.5c0.6-0.6,0.8-1.5,0.8-2.7
			c0-1.1-0.3-2.1-0.8-2.7c-0.6-0.7-1.4-1-2.4-1c-1,0-1.8,0.3-2.3,1c-0.6,0.6-0.8,1.5-0.8,2.7c0,1.1,0.3,2,0.9,2.7
			c0.6,0.6,1.4,1,2.3,1C407.9,276.5,408.7,276.2,409.2,275.5z"/>
		<path d="M103.8,318.4c-1.5-1.5-2.3-3.5-2.3-6c0-1.7,0.4-3.1,1.1-4.4c0.7-1.3,1.8-2.3,3.1-3c1.3-0.7,2.9-1,4.6-1
			c0.9,0,1.8,0.1,2.7,0.4c0.9,0.2,1.7,0.6,2.4,1c0.7,0.4,1,1,1,1.9c0,0.7-0.2,1.2-0.5,1.6c-0.3,0.4-0.7,0.6-1.2,0.6
			c-0.3,0-0.6,0-0.9-0.1c-0.3-0.1-0.6-0.2-1-0.4c-0.4-0.2-0.8-0.3-1.1-0.4c-0.3-0.1-0.6-0.1-1-0.1c-2.1,0-3.2,1.3-3.2,3.9
			c0,1.3,0.3,2.3,0.8,3c0.6,0.7,1.4,1,2.4,1c0.4,0,0.7,0,1-0.1c0.3-0.1,0.7-0.2,1.1-0.4c0.4-0.2,0.8-0.3,1.1-0.4
			c0.3-0.1,0.6-0.1,0.9-0.1c0.5,0,0.9,0.2,1.2,0.6c0.3,0.4,0.5,1,0.5,1.6c0,0.4-0.1,0.8-0.3,1.1c-0.2,0.3-0.4,0.6-0.7,0.8
			c-1.5,0.9-3.3,1.4-5.5,1.4C107.4,320.6,105.3,319.8,103.8,318.4z"/>
		<path d="M122,319.5c-1.3-0.7-2.4-1.7-3.1-2.9c-0.7-1.3-1.1-2.7-1.1-4.4c0-1.7,0.4-3.2,1.1-4.4c0.7-1.2,1.8-2.2,3.1-2.9
			c1.3-0.7,2.9-1,4.7-1c1.8,0,3.3,0.3,4.7,1c1.3,0.7,2.3,1.6,3.1,2.9c0.7,1.2,1.1,2.7,1.1,4.4c0,1.7-0.4,3.2-1.1,4.4
			c-0.7,1.3-1.8,2.2-3.1,2.9c-1.3,0.7-2.9,1-4.7,1C124.9,320.6,123.3,320.2,122,319.5z M129.7,312.2c0-2.7-1-4-3.1-4
			c-2.1,0-3.1,1.3-3.1,4c0,2.7,1,4,3.1,4C128.7,316.2,129.7,314.9,129.7,312.2z"/>
		<path d="M153.1,305.6c0.9,1.1,1.4,2.9,1.4,5.2v7c0,0.8-0.3,1.5-0.8,2c-0.5,0.5-1.2,0.7-2.1,0.7c-0.9,0-1.6-0.2-2.1-0.7
			c-0.5-0.5-0.8-1.1-0.8-2v-6.8c0-1-0.2-1.6-0.5-2.1c-0.3-0.4-0.8-0.7-1.5-0.7c-0.9,0-1.6,0.3-2.1,0.8c-0.5,0.6-0.8,1.3-0.8,2.2v6.4
			c0,0.8-0.3,1.5-0.8,2c-0.5,0.5-1.2,0.7-2.1,0.7c-0.9,0-1.6-0.2-2.1-0.7c-0.5-0.5-0.8-1.1-0.8-2v-11.3c0-0.8,0.3-1.4,0.8-1.9
			c0.5-0.5,1.2-0.7,2.1-0.7c0.8,0,1.5,0.2,2,0.7s0.7,1.1,0.7,1.8c0.6-0.8,1.3-1.5,2.2-1.9c0.9-0.4,1.9-0.7,3-0.7
			C150.8,303.9,152.2,304.5,153.1,305.6z"/>
		<path d="M169.7,320.2c-1-0.2-1.9-0.6-2.6-1c-0.3-0.2-0.5-0.4-0.7-0.8c-0.2-0.4-0.3-0.8-0.3-1.2c0-0.6,0.2-1.1,0.5-1.4
			c0.3-0.4,0.7-0.6,1.2-0.6c0.3,0,0.6,0,0.9,0.1c0.3,0.1,0.6,0.2,1,0.4c0.7,0.2,1.3,0.4,1.8,0.6c0.5,0.1,1.2,0.2,2,0.2
			c0.6,0,1-0.1,1.4-0.2c0.3-0.2,0.5-0.4,0.5-0.7c0-0.2-0.1-0.4-0.2-0.6c-0.2-0.1-0.5-0.3-0.9-0.4c-0.5-0.1-1.2-0.3-2.3-0.5
			c-1.9-0.4-3.3-0.9-4.2-1.7c-0.9-0.7-1.3-1.8-1.3-3.2c0-1,0.3-1.9,0.9-2.7c0.6-0.8,1.5-1.4,2.6-1.9c1.1-0.5,2.3-0.7,3.6-0.7
			c1,0,1.9,0.1,2.8,0.4c0.9,0.2,1.7,0.6,2.5,1c0.7,0.4,1,1,1,1.9c0,0.6-0.2,1.1-0.5,1.5c-0.3,0.4-0.7,0.6-1.2,0.6
			c-0.6,0-1.2-0.2-2-0.6c-0.5-0.2-1-0.4-1.4-0.5c-0.4-0.1-0.9-0.2-1.4-0.2c-0.5,0-1,0.1-1.3,0.2c-0.3,0.2-0.5,0.4-0.5,0.7
			c0,0.3,0.2,0.6,0.6,0.8c0.4,0.2,1.3,0.4,2.5,0.7c2.1,0.4,3.6,0.9,4.5,1.7c0.9,0.7,1.3,1.8,1.3,3.2c0,1.6-0.7,2.8-2,3.8
			c-1.3,0.9-3.1,1.4-5.3,1.4C171.9,320.6,170.7,320.5,169.7,320.2z"/>
		<path d="M197.3,315.8c0.3,0.4,0.5,0.9,0.5,1.5c0,0.9-0.4,1.5-1.3,2c-0.7,0.4-1.6,0.7-2.6,0.9c-1,0.2-1.9,0.4-2.8,0.4
			c-1.8,0-3.3-0.3-4.7-1c-1.3-0.7-2.3-1.6-3.1-2.9c-0.7-1.3-1.1-2.7-1.1-4.4c0-1.6,0.3-3,1-4.3c0.7-1.3,1.6-2.3,2.9-3
			c1.2-0.7,2.6-1.1,4.1-1.1c1.5,0,2.8,0.3,3.9,1c1.1,0.7,2,1.6,2.6,2.8c0.6,1.2,0.9,2.6,0.9,4.2c0,0.5-0.1,0.9-0.3,1.2
			c-0.2,0.3-0.6,0.4-1,0.4h-8.6c0.2,1,0.5,1.8,1,2.2c0.5,0.5,1.3,0.7,2.3,0.7c0.5,0,1-0.1,1.5-0.2c0.5-0.1,1-0.3,1.5-0.5
			c0.3-0.1,0.6-0.2,1-0.3c0.3-0.1,0.6-0.1,0.9-0.1C196.5,315.2,196.9,315.4,197.3,315.8z M188.7,308.5c-0.5,0.5-0.7,1.2-0.8,2.1h5.1
			c-0.1-1.9-1-2.9-2.5-2.9C189.7,307.8,189.1,308.1,188.7,308.5z"/>
		<path d="M216.6,297.9c0.6,0.5,0.8,1.1,0.8,1.9v18c0,0.8-0.3,1.5-0.8,2c-0.5,0.5-1.2,0.7-2.1,0.7c-0.8,0-1.5-0.2-2-0.6
			c-0.5-0.4-0.8-1-0.9-1.7c-0.5,0.8-1.1,1.4-2,1.8c-0.9,0.4-1.9,0.7-2.9,0.7c-1.4,0-2.6-0.4-3.7-1.1c-1.1-0.7-1.9-1.7-2.5-3
			c-0.6-1.3-0.9-2.7-0.9-4.4c0-1.6,0.3-3.1,0.9-4.3c0.6-1.2,1.4-2.2,2.5-2.9c1.1-0.7,2.3-1,3.7-1c1,0,2,0.2,2.8,0.6
			c0.9,0.4,1.5,1,2,1.7v-6.5c0-0.8,0.3-1.4,0.8-1.8c0.5-0.5,1.2-0.7,2.1-0.7S216,297.4,216.6,297.9z M210.9,315.2
			c0.5-0.7,0.8-1.7,0.8-3c0-1.3-0.3-2.3-0.8-2.9c-0.5-0.7-1.3-1-2.3-1c-1,0-1.8,0.3-2.3,1c-0.5,0.7-0.8,1.6-0.8,2.9
			c0,1.3,0.3,2.3,0.8,3c0.6,0.7,1.3,1.1,2.3,1.1C209.6,316.2,210.3,315.9,210.9,315.2z"/>
		<path d="M235,315.8c0.3,0.4,0.5,0.9,0.5,1.5c0,0.9-0.4,1.5-1.3,2c-0.7,0.4-1.6,0.7-2.6,0.9c-1,0.2-1.9,0.4-2.8,0.4
			c-1.8,0-3.3-0.3-4.7-1c-1.3-0.7-2.3-1.6-3.1-2.9c-0.7-1.3-1.1-2.7-1.1-4.4c0-1.6,0.3-3,1-4.3c0.7-1.3,1.6-2.3,2.9-3
			c1.2-0.7,2.6-1.1,4.1-1.1c1.5,0,2.8,0.3,3.9,1c1.1,0.7,2,1.6,2.6,2.8c0.6,1.2,0.9,2.6,0.9,4.2c0,0.5-0.1,0.9-0.3,1.2
			c-0.2,0.3-0.6,0.4-1,0.4h-8.6c0.2,1,0.5,1.8,1,2.2c0.5,0.5,1.3,0.7,2.3,0.7c0.5,0,1-0.1,1.5-0.2c0.5-0.1,1-0.3,1.5-0.5
			c0.3-0.1,0.6-0.2,1-0.3c0.3-0.1,0.6-0.1,0.9-0.1C234.3,315.2,234.7,315.4,235,315.8z M226.4,308.5c-0.5,0.5-0.7,1.2-0.8,2.1h5.1
			c-0.1-1.9-1-2.9-2.5-2.9C227.5,307.8,226.9,308.1,226.4,308.5z"/>
		<path d="M261.7,315.8c0.3,0.4,0.5,0.9,0.5,1.5c0,0.9-0.4,1.5-1.3,2c-0.7,0.4-1.6,0.7-2.6,0.9c-1,0.2-1.9,0.4-2.8,0.4
			c-1.8,0-3.3-0.3-4.7-1c-1.3-0.7-2.3-1.6-3.1-2.9c-0.7-1.3-1.1-2.7-1.1-4.4c0-1.6,0.3-3,1-4.3c0.7-1.3,1.6-2.3,2.9-3
			c1.2-0.7,2.6-1.1,4.1-1.1c1.5,0,2.8,0.3,3.9,1c1.1,0.7,2,1.6,2.6,2.8c0.6,1.2,0.9,2.6,0.9,4.2c0,0.5-0.1,0.9-0.3,1.2
			c-0.2,0.3-0.6,0.4-1,0.4h-8.6c0.2,1,0.5,1.8,1,2.2c0.5,0.5,1.3,0.7,2.3,0.7c0.5,0,1-0.1,1.5-0.2c0.5-0.1,1-0.3,1.5-0.5
			c0.3-0.1,0.6-0.2,1-0.3c0.3-0.1,0.6-0.1,0.9-0.1C261,315.2,261.4,315.4,261.7,315.8z M253.1,308.5c-0.5,0.5-0.7,1.2-0.8,2.1h5.1
			c-0.1-1.9-1-2.9-2.5-2.9C254.2,307.8,253.6,308.1,253.1,308.5z"/>
		<path d="M279.9,305.6c0.9,1.1,1.4,2.9,1.4,5.2v7c0,0.8-0.3,1.5-0.8,2c-0.5,0.5-1.2,0.7-2.1,0.7c-0.9,0-1.6-0.2-2.1-0.7
			c-0.5-0.5-0.8-1.1-0.8-2v-6.8c0-1-0.2-1.6-0.5-2.1c-0.3-0.4-0.8-0.7-1.5-0.7c-0.9,0-1.6,0.3-2.1,0.8c-0.5,0.6-0.8,1.3-0.8,2.2v6.4
			c0,0.8-0.3,1.5-0.8,2c-0.5,0.5-1.2,0.7-2.1,0.7c-0.9,0-1.6-0.2-2.1-0.7c-0.5-0.5-0.8-1.1-0.8-2v-11.3c0-0.8,0.3-1.4,0.8-1.9
			c0.5-0.5,1.2-0.7,2.1-0.7c0.8,0,1.5,0.2,2,0.7c0.5,0.5,0.7,1.1,0.7,1.8c0.6-0.8,1.3-1.5,2.2-1.9c0.9-0.4,1.9-0.7,3-0.7
			C277.6,303.9,279,304.5,279.9,305.6z"/>
		<path d="M103.4,358.6c-0.5-0.5-0.7-1.2-0.7-2.1v-17.4c0-0.9,0.3-1.6,0.8-2.1c0.5-0.5,1.3-0.8,2.2-0.8c0.9,0,1.7,0.3,2.2,0.8
			c0.5,0.5,0.8,1.2,0.8,2.1v15.3h7.5c1.9,0,2.8,0.8,2.8,2.4c0,0.8-0.2,1.4-0.7,1.8c-0.5,0.4-1.2,0.6-2.1,0.6h-10.7
			C104.6,359.4,103.9,359.1,103.4,358.6z"/>
		<path d="M121.5,340c-0.6-0.5-0.9-1.2-0.9-2s0.3-1.5,0.9-2c0.6-0.5,1.4-0.7,2.3-0.7c1,0,1.7,0.2,2.3,0.7c0.6,0.5,0.9,1.2,0.9,2
			s-0.3,1.5-0.9,2c-0.6,0.5-1.4,0.8-2.3,0.8C122.8,340.7,122,340.5,121.5,340z M121.7,358.9c-0.6-0.4-0.8-1.1-0.8-2v-11.2
			c0-0.9,0.3-1.6,0.8-2c0.6-0.4,1.2-0.7,2.1-0.7s1.5,0.2,2.1,0.7c0.6,0.4,0.8,1.1,0.8,2v11.2c0,0.9-0.3,1.6-0.8,2
			c-0.6,0.4-1.2,0.7-2.1,0.7S122.3,359.3,121.7,358.9z"/>
		<path d="M154.5,344.5c1,1.1,1.4,2.8,1.4,5.3v7c0,0.9-0.3,1.6-0.8,2c-0.6,0.4-1.2,0.7-2.1,0.7c-0.8,0-1.5-0.2-2.1-0.7
			c-0.6-0.4-0.8-1.1-0.8-2v-7.2c0-0.9-0.2-1.5-0.5-1.8c-0.3-0.3-0.7-0.5-1.3-0.5c-0.8,0-1.4,0.3-1.8,0.8c-0.5,0.5-0.7,1.3-0.7,2.2
			v6.4c0,0.9-0.3,1.6-0.8,2c-0.5,0.4-1.2,0.7-2.1,0.7c-0.8,0-1.5-0.2-2.1-0.7c-0.6-0.4-0.8-1.1-0.8-2v-7.2c0-0.9-0.2-1.5-0.5-1.8
			c-0.3-0.3-0.7-0.5-1.3-0.5c-0.8,0-1.4,0.3-1.8,0.8c-0.4,0.5-0.7,1.3-0.7,2.2v6.4c0,0.9-0.3,1.6-0.8,2c-0.6,0.4-1.2,0.7-2.1,0.7
			c-0.8,0-1.5-0.2-2.1-0.7c-0.6-0.4-0.8-1.1-0.8-2v-11.3c0-0.8,0.3-1.5,0.9-1.9c0.6-0.4,1.3-0.7,2.1-0.7c0.8,0,1.4,0.2,1.9,0.6
			c0.5,0.4,0.8,1,0.8,1.7c1.1-1.6,2.7-2.4,4.9-2.4c2.3,0,3.9,0.9,4.7,2.8c0.5-0.9,1.3-1.6,2.2-2.1c0.9-0.5,1.9-0.8,3.1-0.8
			C152.2,343,153.6,343.5,154.5,344.5z"/>
		<path d="M172.2,344.7c1.2,1.2,1.8,3,1.8,5.4v6.8c0,0.8-0.2,1.5-0.7,1.9c-0.5,0.5-1.2,0.7-2,0.7c-0.8,0-1.4-0.2-1.9-0.7
			c-0.5-0.4-0.8-1-0.8-1.8c-0.3,0.8-0.8,1.4-1.5,1.8c-0.7,0.4-1.6,0.7-2.6,0.7c-1.1,0-2.1-0.2-3-0.7c-0.9-0.4-1.6-1.1-2.1-1.9
			c-0.5-0.8-0.8-1.7-0.8-2.7c0-1.1,0.3-2.1,0.9-2.7c0.6-0.7,1.5-1.2,2.8-1.5c1.3-0.3,3.1-0.5,5.3-0.5h0.9v-0.4
			c0-0.8-0.2-1.3-0.5-1.6c-0.3-0.3-0.9-0.5-1.8-0.5c-0.9,0-2.2,0.3-3.9,0.9c-0.5,0.2-0.9,0.3-1.3,0.3c-0.5,0-1-0.2-1.3-0.6
			s-0.5-0.9-0.5-1.5c0-0.5,0.1-0.9,0.3-1.2c0.2-0.3,0.5-0.6,0.9-0.8c0.8-0.4,1.7-0.7,2.9-0.9c1.1-0.2,2.3-0.4,3.4-0.4
			C169.2,343,171,343.5,172.2,344.7z M167.7,354.9c0.5-0.6,0.7-1.3,0.7-2.1v-0.4h-0.5c-1.4,0-2.4,0.1-3,0.4
			c-0.6,0.2-0.9,0.7-0.9,1.3c0,0.5,0.2,0.9,0.5,1.2c0.3,0.3,0.7,0.5,1.2,0.5C166.6,355.7,167.2,355.5,167.7,354.9z"/>
		<path d="M182.2,354.3c0.6,0.7,0.9,1.7,0.9,3c0,2.5-0.9,4.7-2.7,6.6c-0.3,0.3-0.7,0.5-1.1,0.5c-0.4,0-0.8-0.1-1.1-0.4
			c-0.3-0.3-0.5-0.6-0.5-1c0-0.3,0.1-0.7,0.4-0.9c0.8-0.8,1.3-1.7,1.6-2.6c-0.8-0.1-1.5-0.4-2-0.9c-0.5-0.5-0.8-1.2-0.8-2
			c0-0.9,0.3-1.6,0.9-2.2c0.6-0.6,1.3-0.9,2.2-0.9C180.8,353.2,181.6,353.6,182.2,354.3z"/>
		<path d="M187.2,358.8c-0.5-0.5-0.8-1.3-0.8-2.2v-17.4c0-0.9,0.2-1.6,0.7-2.1c0.5-0.5,1.2-0.7,2.1-0.7h8.3c2.5,0,4.5,0.6,5.9,1.9
			c1.4,1.3,2.1,3.1,2.1,5.4c0,2.3-0.7,4.1-2.1,5.4c-1.4,1.3-3.4,2-5.9,2h-5.1v5.5c0,0.9-0.3,1.6-0.8,2.2c-0.5,0.5-1.3,0.8-2.2,0.8
			C188.5,359.6,187.8,359.3,187.2,358.8z M196.7,346.6c1.1,0,1.9-0.2,2.5-0.7c0.5-0.5,0.8-1.2,0.8-2.1c0-1.9-1.1-2.8-3.3-2.8h-4.3
			v5.6H196.7z"/>
		<path d="M221.6,354.8c0.3,0.4,0.5,0.9,0.5,1.5c0,0.9-0.4,1.5-1.3,2c-0.7,0.4-1.6,0.7-2.6,0.9c-1,0.2-1.9,0.4-2.8,0.4
			c-1.8,0-3.3-0.3-4.7-1c-1.3-0.7-2.3-1.6-3.1-2.9c-0.7-1.3-1.1-2.7-1.1-4.4c0-1.6,0.3-3,1-4.3c0.7-1.3,1.6-2.3,2.9-3
			c1.2-0.7,2.6-1.1,4.1-1.1c1.5,0,2.8,0.3,3.9,1c1.1,0.7,2,1.6,2.6,2.8c0.6,1.2,0.9,2.6,0.9,4.2c0,0.5-0.1,0.9-0.3,1.2
			c-0.2,0.3-0.6,0.4-1,0.4h-8.6c0.2,1,0.5,1.8,1,2.2c0.5,0.5,1.3,0.7,2.3,0.7c0.5,0,1-0.1,1.5-0.2c0.5-0.1,1-0.3,1.5-0.5
			c0.3-0.1,0.6-0.2,1-0.3c0.3-0.1,0.6-0.1,0.9-0.1C220.9,354.2,221.3,354.4,221.6,354.8z M213,347.6c-0.5,0.5-0.7,1.2-0.8,2.1h5.1
			c-0.1-1.9-1-2.9-2.5-2.9C214.1,346.9,213.5,347.1,213,347.6z"/>
		<path d="M236.7,343.5c0.4,0.4,0.7,1,0.7,1.8c0,0.9-0.2,1.5-0.6,1.9c-0.4,0.4-1.1,0.6-2.2,0.7l-1,0.1c-1.1,0.1-1.9,0.5-2.3,1
			c-0.5,0.6-0.7,1.3-0.7,2.3v5.6c0,0.9-0.3,1.6-0.8,2c-0.6,0.4-1.2,0.7-2.1,0.7c-0.8,0-1.5-0.2-2.1-0.7c-0.6-0.4-0.8-1.1-0.8-2
			v-11.3c0-0.8,0.3-1.5,0.8-1.9c0.6-0.5,1.2-0.7,2-0.7c0.8,0,1.4,0.2,1.9,0.7c0.5,0.4,0.7,1,0.7,1.8v0.6c0.3-1,0.9-1.7,1.7-2.2
			c0.8-0.5,1.6-0.8,2.5-0.8l0.5,0C235.7,343,236.3,343.1,236.7,343.5z"/>
		<path d="M253.8,343.7c0.5,0.5,0.8,1.1,0.8,2v11.3c0,0.8-0.3,1.4-0.8,1.9c-0.5,0.5-1.2,0.7-2.1,0.7c-0.8,0-1.4-0.2-1.9-0.6
			c-0.5-0.4-0.8-1-0.8-1.7c-0.5,0.8-1.1,1.4-1.9,1.8s-1.7,0.6-2.7,0.6c-2.1,0-3.6-0.6-4.6-1.7c-1-1.1-1.5-2.9-1.5-5.2v-7
			c0-0.8,0.3-1.5,0.8-2c0.5-0.5,1.2-0.7,2.1-0.7c0.9,0,1.6,0.2,2.1,0.7c0.5,0.5,0.8,1.1,0.8,2v7.2c0,1.6,0.7,2.3,2,2.3
			c0.8,0,1.4-0.3,1.9-0.8c0.5-0.6,0.7-1.3,0.7-2.2v-6.4c0-0.8,0.3-1.5,0.8-2c0.5-0.5,1.2-0.7,2.1-0.7
			C252.6,343,253.3,343.3,253.8,343.7z M246.6,341.4c-0.4,0-0.8-0.1-1-0.4c-0.3-0.3-0.4-0.6-0.4-1c0-0.3,0.1-0.7,0.4-1l2.4-3.3
			c0.3-0.4,0.6-0.7,1-0.9c0.4-0.2,0.8-0.3,1.2-0.3c0.6,0,1.2,0.2,1.7,0.7c0.5,0.4,0.7,1,0.7,1.6c0,0.8-0.4,1.4-1.2,2l-3.7,2.4
			C247.3,341.3,247,341.4,246.6,341.4z"/>
	</g>
</g>
</svg>
