<?xml version="1.0" encoding="utf-8"?>
<!-- Generator: Adobe Illustrator 25.3.1, SVG Export Plug-In . SVG Version: 6.00 Build 0)  -->
<svg version="1.1" id="Layer_1" xmlns="http://www.w3.org/2000/svg" xmlns:xlink="http://www.w3.org/1999/xlink" x="0px" y="0px"
	 width="76px" height="81.7px" viewBox="0 0 76 81.7" style="enable-background:new 0 0 76 81.7;" xml:space="preserve">
<g>
	<g>
		<path d="M30.2,8.6c4.8-1.4,10.2,1.7,11.6,6.5c1.1,3.4,0,7.4-2.7,9.9c-2.8,2.7-7.3,3.3-10.8,1.5c-3.4-1.6-5.6-5.4-5.3-9.2
			C23.3,13.3,26.3,9.6,30.2,8.6z M30.7,10.7c-3.4,0.8-5.8,4.3-5.5,7.8c0.2,4,4,7.3,8,6.9c4.2-0.2,7.6-4.4,6.8-8.6
			C39.5,12.5,34.9,9.5,30.7,10.7z"/>
	</g>
	<path d="M53,9.6c4.4-0.4,8.8-0.1,13.3-0.2c1.6-0.2,3.4,0.9,3.6,2.7c0.2,3.7,0,7.5,0.1,11.2c-0.1,1.5,0.2,3.2-1,4.4
		c-1,1.1-2.5,0.9-3.9,1c-3.7-0.1-7.5,0.1-11.2,0c-1.7,0.1-3.2-1.5-3.1-3.2c-0.1-2.3-0.2-4.6,0.1-6.9c0.4-1,2.1-0.7,2,0.4
		c0.5,2.4-0.7,5.4,0.7,7.4c3.9,0.3,7.8,0,11.7,0.1c0.9-0.1,2.6,0.3,2.6-1c0.1-4.3,0.1-8.6,0-12.9c0.1-0.8-0.8-1.1-1.5-1
		c-3.9,0-7.9,0-11.8,0c-2.9-0.4-0.1,4.7-3.1,4.2C50.1,13.9,50.6,10.2,53,9.6z"/>
	<g>
		<path d="M30.1,13.8c2,0.1,3.7,1.6,5.5,2.3c0.9,0.6,2.7,0.9,2.3,2.3c-2,1.5-4.4,2.4-6.6,3.5c-0.7,0.5-1.8,0.2-1.8-0.8
			c-0.1-2.3-0.2-4.6,0.1-6.8C29.7,14.1,30,13.9,30.1,13.8z M31.6,16.4c0,1,0,2,0,2.9c1-0.5,2-1,3-1.5C33.6,17.4,32.6,16.9,31.6,16.4
			z"/>
	</g>
	<path d="M59.2,14.6c1.1-1.2,2.9-1,4.4-0.9c0.8,0,1.2,0.8,1,1.5c-0.8,0.9-2.2,0.4-3.2,0.7c-1-0.1-0.9,1.2-1.2,1.9
		c0.7,0.3,2.4,0.1,2.3,1.3c0.1,1.1-1.4,1-2.1,1.2c-0.2,1.4,0.7,4.4-1.6,4.1c-1-1-0.4-2.7-0.6-4.1C57.5,20,56,20.1,56.1,19
		c-0.2-1.1,1.3-0.9,2-1.2C58.4,16.7,58.3,15.4,59.2,14.6z"/>
	<g>
		<path d="M6.6,19.1C11,18.9,15.5,19,19.9,19c1.1,0,1,1.3,1,2.1c0,5.3,0.1,10.7-0.1,16c0.1,1.1-1.3,1.1-2.1,1.1
			c-3.9,0-7.8,0.1-11.8-0.1c-1.4,0-1-1.7-1.1-2.6c0.1-5.3-0.2-10.6,0.1-15.9C6.2,19.5,6.4,19.2,6.6,19.1z M8.1,21.1c0,5,0,10,0,14.9
			c3.6,0,7.1,0,10.7,0c0-5,0-10,0-14.9C15.2,21.1,11.7,21.1,8.1,21.1z"/>
	</g>
	<path d="M13,23.4c1.2-0.2,4.1-0.6,3.6,1.4c-0.7,1-2.2,0.6-3.2,0.6C12.3,25.4,12,23.8,13,23.4z"/>
	<path d="M46.1,25.4c0.8-0.3,1.4,0.3,1.5,1c-1,1.9-2.4,3.7-3.9,5.3c-0.8,0.4-1.3-0.3-1.5-1C43.2,28.8,44.6,27,46.1,25.4z"/>
	<path d="M10.8,27.6c1.7-0.2,3.5-0.2,5.2,0c0.8,0.2,0.8,1.6,0,1.9c-1.7,0.2-3.5,0.2-5.2,0C10.1,29.2,10.1,28,10.8,27.6z"/>
	<path d="M50,31.1c0.8-0.9,2.2,0.1,1.8,1.1c-1.6,1.5-3.4,2.9-5.3,3.9c-0.7-0.2-1.3-0.7-1-1.5C46.9,33.2,48.4,32.1,50,31.1z"/>
	<path d="M10.8,31.9c1.7-0.2,3.5-0.2,5.3,0c0.8,0.3,0.8,1.6,0,1.9c-1.7,0.2-3.5,0.2-5.2,0C10,33.5,10.1,32.3,10.8,31.9z"/>
	<g>
		<path d="M36.8,32.7c0.6-0.4,1.2-1.2,2.1-0.7c0.8,1,2,2.3,1.3,3.6c-1,0.6-1.6-0.4-2.3-1c-4.4,3.7-8.8,7.3-13.2,10.9
			c1,1.8,2.2,3.5,2.9,5.4c-0.4,0.9-1,1.1-1.8,0.7c-1.2-1.5-2-3.3-2.9-4.9c-1.5,0.9-3.2,1.6-4.4,2.9c-0.8,1.4,0.4,2.8,1,4
			c0.8,1.2,1.4,3.1,3.1,2.9c2.3-0.7,4.1-2.4,6.4-3.2c5.5-2,10.8-4.2,16.4-6c-1.5-3.1-3.7-5.8-4.9-9l0.3-0.6c0.3-0.1,0.8-0.3,1.1-0.4
			c1.4,1.5,2.2,3.4,3.3,5.2c1,1.8,2.2,3.4,2.9,5.4c-0.4,0.8-1.3,1-2.1,1.3c-4.9,1.8-9.8,3.6-14.6,5.5c0.8,1.6,2.1,3.1,2.4,4.9
			c0.2,2.5-3.1,4.2-5.1,2.6c-1.3-1.3-2-3-2.9-4.6c-1.9,1.2-4.3,1.3-6.2-0.1c-1.1,0.4-2.3,1.2-3.6,0.7c-1.7-0.5-2.7-2.4-2.1-4
			c0.3-1.1,1.5-1.7,2.3-2.4c0.1-1.5,0.1-3.3,1.5-4.3c1.9-1.5,4.3-2.3,6.1-3.9C28,40,32.4,36.3,36.8,32.7z M16.9,53.5
			c-0.4,0.6-1.7,1.3-1.1,2.1c0.5,1,1.7,0.2,2.5,0C17.8,55,17.3,54.3,16.9,53.5z M27.3,56.4c0.9,1.5,1.5,3.1,2.7,4.3
			c0.8,0,1.3-0.4,1.4-1.2c-0.6-1.5-1.5-2.8-2.3-4.2C28.5,55.7,27.9,56.1,27.3,56.4z"/>
	</g>
	<path d="M54.6,37.2c1.2-0.6,2.2,1.5,0.9,1.9c-1.9,0.6-3.8,1-5.8,1.2c-0.9,0.2-1.4-0.8-1.2-1.6C50.5,37.8,52.6,37.5,54.6,37.2z"/>
	<g>
		<path d="M9.2,43.5c0-0.8-0.1-2.1,1-2.1c3.4-0.1,6.8-0.1,10.2,0c1.1,0,1.1,2,0,2c-3,0.2-6.1,0-9.1,0.1c0,7.1,0,14.2,0,21.3
			c9.2,0,18.5,0,27.7,0c0.1-3.6-0.1-7.1,0.1-10.7c-0.1-1.1,2.1-1.2,2,0c0.2,3.5,0,7.1,0.1,10.6c1,0.2,2.5-0.3,3.1,0.7
			c0.3,2.1,0.2,4.4-1.2,6.1c-1.1,1.3-2.8,1.9-4.5,1.8c-8.7,0-17.4,0-26.2,0c-1.6,0-3.3-0.2-4.6-1.3c-1.9-1.6-2.1-4.3-1.7-6.6
			c0.7-1,2.1-0.4,3.1-0.7C9.2,57.7,9.2,50.6,9.2,43.5z M8,67c0.2,1.1,0.1,2.5,1.1,3.3c1.1,1.2,2.8,0.9,4.2,1
			c0.3-0.8,0.1-2.1,1.2-2.2c1.2,0.1,0.9,1.4,1.2,2.2c6.3,0,12.6,0,18.9,0c0.3-0.8,0.1-2.1,1.2-2.1c1.2,0,1,1.4,1.3,2.2
			c1.4-0.1,3.2,0.2,4.2-1c0.9-0.8,0.8-2.2,1.1-3.3C30.9,67,19.5,67,8,67z"/>
	</g>
	<path d="M53,42.6c3.9-0.4,7.8,0,11.6-0.2c1.8-0.1,4.2-0.1,5,1.9c0.5,2,0.2,4.1,0.3,6.1c-0.1,0.9,0.2,2-0.6,2.6
		c-0.6,0.2-1.1,0-1.4-0.5c-0.4-2.4,0.1-4.9-0.2-7.4c-0.5-0.9-1.7-0.5-2.6-0.6c-3.7,0.1-7.5-0.1-11.2,0.1c-1.1,0-1,1.3-1,2.1
		c0,3.9-0.1,7.8,0.1,11.8c0,1.3,1.7,1,2.6,1.1c3.9-0.1,7.8,0.2,11.7-0.1c1.2-1.1,0-3.1,1.2-4.1c1.7-0.5,1.7,1.6,1.6,2.7
		c0.2,1.8-1.2,3.7-3.2,3.7c-3.6,0.1-7.2,0-10.7,0.1c-1.5-0.1-3.3,0.2-4.4-1c-1.1-1-0.9-2.5-1-3.9c0.1-3.8-0.1-7.5,0.1-11.3
		C50.8,44.3,51.7,43,53,42.6z"/>
	<g>
		<path d="M58.9,48c2.3-0.9,5,0.6,5.6,2.9c0.6,2.2-0.9,4.7-3.1,5.2c-2.2,0.6-4.7-0.9-5.2-3.1C55.7,51,56.9,48.7,58.9,48z M59.5,50.1
			c-1.3,0.6-1.7,2.5-0.6,3.4c1.1,1.2,3.3,0.6,3.6-1C62.9,50.9,61,49.3,59.5,50.1z"/>
	</g>
</g>
</svg>
