<?xml version="1.0" encoding="utf-8"?>
<!-- Generator: Adobe Illustrator 25.3.1, SVG Export Plug-In . SVG Version: 6.00 Build 0)  -->
<svg version="1.1" id="Layer_1" xmlns="http://www.w3.org/2000/svg" xmlns:xlink="http://www.w3.org/1999/xlink" x="0px" y="0px"
	 width="76px" height="81.7px" viewBox="0 0 76 81.7" style="enable-background:new 0 0 76 81.7;" xml:space="preserve">
<g>
	<g>
		<path d="M4.7,8.3h67.4c0,0,0,0,0,0v67.4c0,0,0,0,0,0H4.8c0,0,0,0,0,0L4.7,8.3C4.7,8.3,4.7,8.3,4.7,8.3z M7.3,10.9
			c0,2.6,0,5.3,0,7.9c20.7,0,41.5,0,62.2,0c0-0.9,0-1.8,0-2.6c-12.5,0-25,0.1-37.5-0.1c-2.3-1.3-3.5-3.8-5.7-5.1
			C20,10.8,13.7,11,7.3,10.9z M30.3,10.9c1.2,1,2.1,2.9,3.9,2.6c11.8,0,23.6,0,35.3,0c0-0.9,0-1.7,0-2.6
			C56.5,10.9,43.4,10.9,30.3,10.9z M7.3,21.5c0,17.2,0,34.4,0,51.7c11.9,0,23.9,0,35.8,0c0.1-6.5-0.1-13,0.1-19.5
			c-0.1-0.9,0.6-1.6,1.5-1.5c6.7-0.1,13.4,0,20.1-0.1c1-0.1,2.2,0.3,2.1,1.5c0.1,6.5,0,13,0,19.6c0.9,0,1.7,0,2.6,0
			c0-17.2,0-34.5,0-51.7C48.8,21.5,28.1,21.5,7.3,21.5z M47.7,54.7c2.4,2.4,4.9,4.9,7.3,7.3c2.4-2.5,4.9-4.9,7.3-7.3
			C57.5,54.7,52.6,54.7,47.7,54.7z M45.9,56.6c0,4.9,0,9.8,0,14.7c2.4-2.5,4.9-4.9,7.3-7.3C50.8,61.5,48.3,59,45.9,56.6z M56.9,63.9
			c2.5,2.5,4.9,4.9,7.4,7.4c0-4.9,0-9.8,0-14.7C61.8,59,59.4,61.5,56.9,63.9z M47.7,73.2c4.9,0,9.8,0,14.7,0
			c-2.5-2.4-4.9-4.9-7.4-7.4C52.6,68.2,50.2,70.7,47.7,73.2z"/>
	</g>
	<path d="M10.6,16c-1.2-0.6-0.5-2.7,0.9-2.4c2.3,0.1,4.9-0.7,6.8,0.9c-0.5,0.7-0.8,1.8-1.9,1.6C14.5,16.2,12.5,16.4,10.6,16z"/>
	<path d="M21.2,13.8c1.4-0.9,2.8,1.5,1.3,2.3C21.1,17,19.7,14.5,21.2,13.8z"/>
	<g>
		<path d="M20.6,24.3c0.8-0.3,1.7-0.2,2.5-0.2c10.5,0,21.1,0,31.6,0c0.8,0,2,0,2,1c0.2,1.9,0.2,3.9,0,5.8c-0.1,1-1.2,1-2,1
			c-10.7,0-21.5,0-32.2,0c-0.9-0.1-2.4,0.2-2.6-1.1c-0.1-2.2-0.4-4.4,0.2-6.5L20.6,24.3z M22.6,26.8c0,0.9,0,1.8,0,2.6
			c10.5,0,21.1,0,31.6,0c0-0.9,0-1.7,0-2.6C43.7,26.7,33.2,26.8,22.6,26.8z"/>
	</g>
	<path d="M10.6,36.4c2.2-0.4,4.5-0.2,6.8-0.1c1.4-0.1,1.8,2.1,0.4,2.5c-2.3,0.2-4.6,0.2-6.9,0C9.9,38.6,9.6,36.9,10.6,36.4z"/>
	<path d="M22.2,36.3c1.6-0.6,2.4,1.9,0.9,2.5C21.5,39.4,20.5,36.8,22.2,36.3z"/>
	<path d="M27.1,36.6c2.2-0.6,4.8-0.3,7.1-0.2c1.4,0.1,1.4,2.4,0,2.5c-2.1,0.2-4.3,0.2-6.4,0C26.7,38.9,26.1,37.2,27.1,36.6z"/>
	<g>
		<path d="M43.9,36.4c6.2-0.4,12.6-0.1,18.8-0.2c1.3,0.1,2.7-0.2,3.9,0.4c0.5,1,0.3,2.2,0.4,3.3c-0.1,2.8,0.1,5.7-0.1,8.5
			c0,1-1.2,1-2,1c-6.5,0-13.1,0-19.6,0c-0.7,0-2,0-2-1c-0.2-3.2,0-6.3-0.1-9.5C43.3,38.1,43,36.8,43.9,36.4z M50.2,38.9
			c1.7,0.8,3.3,1.6,5,2.5c1.6-0.8,3.3-1.7,4.9-2.5C56.7,38.9,53.5,38.9,50.2,38.9z M45.8,39.7c0,2.1,0,4.2,0,6.3
			c2.1-1,4.2-2.1,6.3-3.1C50,41.8,47.9,40.7,45.8,39.7z M58,42.8c2.1,1,4.2,2.1,6.3,3.1c0-2.1,0-4.2,0-6.2
			C62.2,40.8,60.1,41.8,58,42.8z M50.2,46.7c3.3,0.1,6.6,0,9.8,0c-1.7-0.8-3.3-1.6-4.9-2.5C53.5,45.1,51.8,45.9,50.2,46.7z"/>
	</g>
	<path d="M10.6,41.7c1.2-0.3,2.4-0.2,3.6-0.2c8.3,0.1,16.6,0,24.8,0.1c0.8-0.1,1.8,0.7,1.4,1.6c-0.2,1.2-1.7,1-2.6,1.1
		c-8.8-0.1-17.6,0-26.4,0C10.1,44.4,9.4,42.4,10.6,41.7z"/>
	<path d="M10.6,47c0.8-0.2,1.7-0.2,2.5-0.2c6.9,0,13.7,0,20.6,0c1-0.2,2,1.1,1.3,2c-0.5,0.8-1.6,0.6-2.4,0.7
		c-7.1-0.1-14.1,0-21.2-0.1C10.1,49.7,9.4,47.5,10.6,47z"/>
	<path d="M10.6,52.3c1.4-0.9,2.8,1.5,1.3,2.2C10.5,55.5,9.1,53,10.6,52.3z"/>
	<path d="M15.9,52.3c1.9-0.4,3.8-0.2,5.7-0.2c0.7,0.1,1.6-0.2,2.1,0.6c0.8,0.7,0,2.1-0.9,2c-2.1,0.1-4.3,0.2-6.4,0
		C15.1,54.6,14.9,52.7,15.9,52.3z"/>
	<path d="M27.5,52.2c1.5-0.8,2.6,2,0.9,2.5C26.8,55.2,25.8,52.6,27.5,52.2z"/>
	<path d="M32.4,52.3c2.3-0.6,4.8-0.3,7.1-0.2c1.4,0,1.3,2.4,0,2.4c-2.1,0.2-4.3,0.1-6.4,0C32,54.7,31.4,53,32.4,52.3z"/>
	<path d="M10.7,57.5c1-0.3,2-0.2,3-0.2c6.7,0.1,13.5-0.1,20.2,0.1c1.6-0.1,1.5,2.6,0,2.5c-7.4,0.1-14.9,0.1-22.3,0
		C10.1,60.2,9.4,58.1,10.7,57.5z"/>
	<path d="M38.5,57.4c0.9-0.3,2,0.6,1.8,1.6c-0.2,1.1-1.8,1.4-2.4,0.5C37.4,58.6,37.8,57.8,38.5,57.4z"/>
	<path d="M10.6,62.8c4.2-0.4,8.4-0.1,12.6-0.2c3.8,0.1,7.7-0.3,11.5,0.2c1.2,0.7,0.5,2.7-0.9,2.4c-7.1,0.1-14.1,0-21.2,0.1
		c-0.8-0.1-2,0.2-2.4-0.7C9.7,64,10.1,63.1,10.6,62.8z"/>
	<path d="M10.6,68.1c0.9-0.3,2-0.3,2.9,0c1,0.6,0.8,2.2-0.4,2.4c-0.9,0.1-2,0.2-2.9-0.3C9.8,69.5,9.9,68.5,10.6,68.1z"/>
	<path d="M17.5,68.1c0.6-0.6,1.9,0,1.9,0.8c0.3,0.8-0.7,1.8-1.5,1.5C16.8,70.3,16.5,68.6,17.5,68.1z"/>
	<path d="M22.8,68.1c1.3-0.3,2.7-0.3,4,0c1,0.6,0.7,2.2-0.4,2.4c-1.3,0.1-2.7,0.3-3.9-0.3C22,69.5,22,68.5,22.8,68.1z"/>
	<path d="M30.7,68.1c1.4-1,2.8,1.4,1.4,2.2C30.6,71.3,29.2,68.9,30.7,68.1z"/>
	<path d="M35.9,68.1c1.3-0.4,2.7-0.3,4,0c1,0.5,0.8,2.2-0.4,2.4c-1.2,0.2-2.4,0.2-3.6-0.1C35.1,69.9,35.1,68.5,35.9,68.1z"/>
</g>
</svg>
