<?xml version="1.0" encoding="utf-8"?>
<!-- Generator: Adobe Illustrator 25.3.1, SVG Export Plug-In . SVG Version: 6.00 Build 0)  -->
<svg version="1.1" id="Layer_1" xmlns="http://www.w3.org/2000/svg" xmlns:xlink="http://www.w3.org/1999/xlink" x="0px" y="0px"
	 width="76px" height="81.7px" viewBox="0 0 76 81.7" style="enable-background:new 0 0 76 81.7;" xml:space="preserve">
<g>
	<g>
		<g>
			<path d="M73,42.5l-5.4-9.7c0-1.2,0-4.7-0.1-5.5c0,0,0,0,0-0.1l-0.2-2.1c0,0,0,0,0-0.1c-1-7.1-4.6-13-10.3-17.1
				c-5.3-3.8-12.2-5.8-20-5.8c-0.1,0-0.2,0-0.2,0C19.9,2.2,6,15.9,5.8,32.7c-0.2,12.8,7.5,24.3,19.3,29l-2.7,12.7
				c-0.1,0.4,0,0.8,0.2,1.2c0.2,0.3,0.6,0.6,1,0.6l23.7,3.1c0.1,0,0.1,0,0.2,0c0.7,0,1.3-0.5,1.5-1.1l3.1-11.6c0.2,0,0.5,0,0.7,0.1
				c1.4,0.1,3.2,0.3,4.4,0.4c1.1,0.1,6.4,0.5,6.6,0.5c1.2,0,2.2-0.4,3-1.2c0.7-0.8,1.1-1.8,1.1-2.9V48l2.6-0.4
				c1.1-0.2,2-0.9,2.5-1.9C73.5,44.7,73.5,43.5,73,42.5z M70.3,44.4c0,0.1-0.1,0.2-0.3,0.2c0,0,0,0,0,0l-3.8,0.7
				c-0.7,0.1-1.3,0.8-1.3,1.5v16.9c0,0,0,0,0,0.1c0,0.3-0.1,0.6-0.3,0.7c-0.2,0.2-0.5,0.3-0.8,0.3c-0.9-0.1-11.6-1-12.6-1.1
				c-0.2,0-0.4,0-0.6,0c-0.6,0.1-1,0.5-1.2,1.1l-3.1,11.5l-20.7-2.7l2.3-11l10.4,2c0.1,0,0.2,0,0.3,0c0.7,0,1.3-0.5,1.5-1.2
				c0.2-0.8-0.4-1.6-1.2-1.8l-11.8-2.3c-11.2-4-18.6-14.7-18.4-26.6C9,17.6,21.5,5.3,36.7,5.3c0.1,0,0.1,0,0.2,0
				c15,0.1,25.5,7.9,27.3,20.3l0.2,2c0,0.5,0.1,2.3,0.1,3.7h-3.2c-0.8,0-1.5,0.7-1.5,1.5c0,0.8,0.7,1.5,1.5,1.5H65l5.3,9.6
				C70.4,44.2,70.4,44.3,70.3,44.4z"/>
		</g>
	</g>
	<g>
		<g>
			<path d="M46.1,64c0-0.1,0-0.2-0.1-0.3c0-0.1-0.1-0.2-0.1-0.3c-0.1-0.1-0.1-0.2-0.2-0.2c-0.3-0.3-0.9-0.5-1.4-0.4
				c-0.1,0-0.2,0-0.3,0.1c-0.1,0-0.2,0.1-0.3,0.1c-0.1,0.1-0.2,0.1-0.2,0.2c-0.1,0.1-0.1,0.1-0.2,0.2c-0.1,0.1-0.1,0.2-0.1,0.3
				c0,0.1-0.1,0.2-0.1,0.3c0,0.1,0,0.2,0,0.3c0,0.4,0.2,0.8,0.4,1.1c0.1,0.1,0.1,0.1,0.2,0.2c0.1,0.1,0.2,0.1,0.3,0.1
				c0.1,0,0.2,0.1,0.3,0.1c0.1,0,0.2,0,0.3,0c0.4,0,0.8-0.2,1.1-0.4c0.3-0.3,0.4-0.7,0.4-1.1C46.1,64.2,46.1,64.1,46.1,64z"/>
		</g>
	</g>
	<g>
		<g>
			<path d="M54,31.1c1.1-2.1,1.7-4.5,1.7-7c0-8.3-6.7-15-15-15c-3.1,0-6.1,0.9-8.6,2.7c-2.2,1.6-3.9,3.6-5,6.1
				c-7.5,0.8-13.4,7.2-13.4,14.9c0,2.4,0.6,4.8,1.7,7l-1.5,5.7c-0.1,0.5,0,1.1,0.4,1.5c0.4,0.4,0.9,0.5,1.5,0.4l5.5-1.5
				c2.3,1.3,4.8,2,7.4,2c0,0,0,0,0,0c6.1,0,11.3-3.6,13.6-8.8c2-0.2,4-0.9,5.8-1.9l5.5,1.5c0.5,0.1,1.1,0,1.5-0.4
				c0.4-0.4,0.5-0.9,0.4-1.5L54,31.1z M27.2,34.5h13.4c0,0,0,0.1,0,0.1c0,0,0,0.1,0,0.1c0,0.1-0.1,0.3-0.1,0.4c0,0,0,0.1,0,0.1
				c0,0.2-0.1,0.3-0.1,0.5c0,0,0,0,0,0.1c0,0.2-0.1,0.4-0.1,0.5c0,0,0,0,0,0c-1.5,4.9-6.1,8.4-11.4,8.4c0,0,0,0,0,0
				c-2.3,0-4.5-0.6-6.4-1.8c-0.2-0.2-0.5-0.2-0.8-0.2c-0.1,0-0.3,0-0.4,0.1l-3.6,1l1-3.7c0.1-0.4,0-0.8-0.2-1.1
				c-1.1-1.8-1.6-3.9-1.6-6c0-6.6,5.4-12,12-12c6.1,0,11.2,4.6,11.9,10.6H27.2c-0.8,0-1.5,0.7-1.5,1.5S26.3,34.5,27.2,34.5z
				 M51,31.3l1,3.7l-3.6-1c-0.4-0.1-0.8,0-1.2,0.2c-1.1,0.7-2.4,1.2-3.7,1.5c0.1-0.6,0.2-1.2,0.2-1.8c0,0,0,0,0,0c0-0.1,0-0.2,0-0.3
				c0,0,0,0,0-0.1c0-0.1,0-0.2,0-0.3c0,0,0,0,0-0.1c0-0.1,0-0.3,0-0.4c0-0.2,0-0.5,0-0.7c0,0,0,0,0-0.1c0-0.2,0-0.4,0-0.6
				c0,0,0-0.1,0-0.1c0-0.2,0-0.4-0.1-0.6c0,0,0-0.1,0-0.1c0-0.2-0.1-0.4-0.1-0.6c0,0,0-0.1,0-0.1c0-0.2-0.1-0.4-0.1-0.6
				c0,0,0-0.1,0-0.1c0-0.2-0.1-0.4-0.2-0.6c0,0,0,0,0-0.1c-0.1-0.2-0.1-0.4-0.2-0.6c0,0,0,0,0,0c-0.1-0.2-0.1-0.4-0.2-0.6
				c0,0,0,0,0-0.1c-0.1-0.2-0.2-0.4-0.2-0.6c0,0,0-0.1,0-0.1c-0.1-0.2-0.2-0.4-0.2-0.5c0,0,0-0.1,0-0.1c-0.1-0.2-0.2-0.3-0.3-0.5
				c0,0,0-0.1,0-0.1c-0.1-0.2-0.2-0.3-0.3-0.5c0,0,0,0,0-0.1c-0.1-0.2-0.2-0.3-0.3-0.5c0,0,0,0,0,0c-0.1-0.2-0.2-0.3-0.4-0.5
				c0,0,0,0,0,0c-0.1-0.2-0.2-0.3-0.4-0.5c0,0,0,0,0-0.1c-0.1-0.2-0.3-0.3-0.4-0.4c0,0,0,0-0.1-0.1c-0.1-0.1-0.3-0.3-0.4-0.4
				c0,0,0-0.1-0.1-0.1c-0.1-0.1-0.3-0.3-0.4-0.4c0,0-0.1,0-0.1-0.1c-0.1-0.1-0.3-0.3-0.4-0.4c0,0,0,0-0.1-0.1
				c-0.2-0.1-0.3-0.3-0.5-0.4c0,0,0,0,0,0c-0.2-0.1-0.3-0.2-0.5-0.4c0,0,0,0,0,0c-0.2-0.1-0.3-0.2-0.5-0.3c0,0,0,0-0.1,0
				c-0.2-0.1-0.3-0.2-0.5-0.3c0,0-0.1,0-0.1-0.1c-0.2-0.1-0.3-0.2-0.5-0.3c0,0-0.1,0-0.1,0c-0.2-0.1-0.3-0.2-0.5-0.3
				c0,0-0.1,0-0.1,0c-0.2-0.1-0.4-0.2-0.5-0.2c0,0-0.1,0-0.1,0c-0.2-0.1-0.4-0.2-0.6-0.2c0,0,0,0,0,0c-0.2-0.1-0.4-0.1-0.6-0.2
				c0,0,0,0,0,0c-0.2-0.1-0.4-0.1-0.6-0.2c0,0-0.1,0-0.1,0c-0.2-0.1-0.4-0.1-0.6-0.1c0,0-0.1,0-0.1,0c-0.2,0-0.4-0.1-0.6-0.1
				c0,0-0.1,0-0.1,0c-0.2,0-0.4-0.1-0.6-0.1c0,0,0,0,0,0c2.1-3.5,6-5.8,10.3-5.8c6.6,0,12,5.4,12,12c0,2.1-0.6,4.2-1.6,6
				C50.9,30.5,50.8,30.9,51,31.3z"/>
		</g>
	</g>
	<g>
		<g>
			<path d="M22.6,32.7c0-0.1,0-0.2-0.1-0.3c0-0.1-0.1-0.2-0.1-0.3c-0.1-0.1-0.1-0.2-0.2-0.2c-0.3-0.4-0.9-0.5-1.4-0.4
				c-0.1,0-0.2,0-0.3,0.1c-0.1,0-0.2,0.1-0.3,0.1c-0.1,0.1-0.2,0.1-0.2,0.2C20,32,20,32,19.9,32.1c-0.1,0.1-0.1,0.2-0.1,0.3
				c0,0.1-0.1,0.2-0.1,0.3c0,0.1,0,0.2,0,0.3c0,0.1,0,0.2,0,0.3c0,0.1,0,0.2,0.1,0.3c0,0.1,0.1,0.2,0.1,0.3c0.1,0.1,0.1,0.2,0.2,0.2
				c0.1,0.1,0.1,0.1,0.2,0.2c0.1,0.1,0.2,0.1,0.3,0.1c0.1,0,0.2,0.1,0.3,0.1c0.1,0,0.2,0,0.3,0c0.4,0,0.8-0.2,1.1-0.4
				c0.3-0.3,0.4-0.7,0.4-1.1C22.7,32.9,22.6,32.8,22.6,32.7z"/>
		</g>
	</g>
</g>
</svg>
