<?xml version="1.0" encoding="utf-8"?>
<!-- Generator: Adobe Illustrator 25.3.1, SVG Export Plug-In . SVG Version: 6.00 Build 0)  -->
<svg version="1.1" id="Layer_1" xmlns="http://www.w3.org/2000/svg" xmlns:xlink="http://www.w3.org/1999/xlink" x="0px" y="0px"
	 width="76px" height="81.7px" viewBox="0 0 76 81.7" style="enable-background:new 0 0 76 81.7;" xml:space="preserve">
<style type="text/css">
	.st0{fill:none;stroke:#000000;stroke-miterlimit:10;}
</style>
<g>
	<g>
		<path d="M26.8,3.4h12.3c1.1,0.6,2.1,1.3,3.1,2c2.7,0.5,5.5,1.3,7.2,3.6c2.4,2.8,1.9,6.8,2,10.2c2.6,0.4,5.3,0.9,7.5,2.4
			c2.4,1.5,3.9,3.9,5.2,6.3c2.8,0.1,5.6-0.4,8.3,0.5c2.4,0.9,3.5,3.5,3.3,6c0,13.1,0,26.3,0,39.4c0.2,2.9-1.9,5.3-4.7,5.9h-4.2
			c0-0.6,0.1-1.3,0.2-1.9c1.6-0.4,3.3-0.3,4.9-0.9c1.8-1,1.5-3.3,1.6-5c-0.1-12.3,0-24.6,0-36.9c0-1.5,0-3.5-1.6-4.3
			c-1.6-0.7-3.3-0.4-5-0.5c-6.4,0.1-12.7,0-19.1,0c-1,0.1-2.6,0-2.9,1.3c-0.7,3.1,0.6,6.9-2,9.3c-2.6,2.4-6.4,0.9-9.5,1.9
			c-1.1,0.8-0.8,2.4-0.9,3.6c0.1,9.2-0.1,18.3,0,27.5c-0.2,1.9,1.3,3.7,3.3,3.6c5.6,0.2,11.2,0,16.8,0.1c4,0,8.1-0.3,12.1,0.4
			c-0.2,0.5-0.6,1.4-0.8,1.8H35.1c-2.1-0.5-4.2-1.9-4.6-4.2c-0.4-2.7-0.2-5.5-0.2-8.2c-5.7,0-11.3,0.1-17-0.1
			C6.8,66.9,1.2,61.1,1,54.6C0.9,47.9,1,41.1,1,34.4c-0.1-3.5,0.6-7.3,3-10c0.6-0.9,1.7-0.3,2.5-0.1c-1.2,2.2-2.8,4.4-3.1,7
			c-0.3,3.2-0.1,6.4-0.2,9.7c-0.1,3.6-0.3,7.5,2,10.5c1.6,2.6,4.5,3.9,7.3,4.8c0.4-2,0.2-4.5,1.8-6c2-2.1,5.6-2.1,7.5,0
			c1.6,1.6,1.4,3.9,1.6,6c2.3,0,4.6,0,6.8,0c0.1-4.5-0.2-9,0.1-13.4c0.2-2.9,2.6-4.8,4.4-6.6c2.3-2.2,4.4-4.7,6.9-6.8
			c1.4-1.2,3.2-1.5,4.9-1.5c5,0,10,0.1,15,0C60.3,26,58.9,24,56.9,23c-2-1.2-4.4-1.4-6.6-1.4c-10.3,0-20.6,0-31,0
			c-2.7,0-5.5-0.2-8.2,0.6c-1.3,0.3-2.6,1.1-3.9,0.4c0.8-3.1,4.9-2.8,7.4-3.4c0-3.5-0.5-7.4,2-10.3c1.7-2.4,4.7-3.1,7.4-3.5
			C24.8,4.7,25.8,4,26.8,3.4z M26.6,6c-1.2,0.9-0.8,2.7-0.8,4c0,1,0.7,2,1.8,2c3.5,0.2,7.1,0.1,10.7,0c1.1,0,2-1,1.9-2.1
			c0.1-1.5,0.3-4.2-1.8-4.3C34.5,5.7,30.4,5.2,26.6,6z M18.3,10.2c-2.2,2.5-1.5,6.1-1.6,9.1c0.6,0,1.7,0,2.2,0
			c0.1-2.3-0.4-4.7,0.5-6.8c0.7-1.7,2.6-2.1,4.1-2.7c0-0.5,0-1.6,0-2.2C21.7,8.1,19.5,8.5,18.3,10.2z M42.5,7.7c0,0.5,0,1.6,0,2.1
			c1.6,0.6,3.6,1.3,4.1,3.1c0.5,2.1,0.3,4.2,0.3,6.4c0.7,0,1.5,0,2.2,0c-0.1-3,0.6-6.6-1.6-9.1C46.4,8.6,44.3,8.1,42.5,7.7z
			 M21.3,13.8c-0.3,1.8-0.1,3.7-0.2,5.6c7.8,0,15.7,0,23.5,0c0-1.8,0.2-3.7-0.2-5.5c-0.2-1-1.5-1.1-2.2-1.6c-1.2,1-2.3,2.3-4,2.2
			c-3.6,0.1-7.1,0.1-10.7,0c-1.6,0-2.7-1.2-3.8-2.1C22.9,12.5,21.6,12.7,21.3,13.8z M34.1,40c2.5-0.3,6,0.9,7.8-1.5
			c0.9-2.1,0.4-4.6,0.5-6.8C39.7,34.5,36.9,37.3,34.1,40z M16.5,51.3c-2.1,1.3-1.5,4.2-1.4,6.3c0.1,2.2,2.9,3.5,4.6,2.2
			c1.9-1.3,1.4-3.9,1.4-5.9C21.2,51.7,18.4,50,16.5,51.3z M3.1,52.6c0.2,2,0.2,4,1.1,5.8c1.7,3.8,5.6,6.6,9.7,6.6
			c5.5,0.1,10.9,0,16.4,0c0-2.2,0-4.4,0-6.6c-2.3,0-4.6,0-6.9,0c-1,2.1-2.7,4.2-5.3,4.1c-2.6,0.2-4.4-2-5.4-4.1
			C8.8,57.8,5.5,55.7,3.1,52.6z"/>
	</g>
	<path d="M38.3,44.5c0.3-0.9,1.4-1.9,2.2-0.9c1.2,2.2,1.9,4.6,2.8,6.9c0.5,0.8-0.3,1.8-1.2,1.7c-0.5-0.5-1-1.1-1.4-1.6
		c-0.6,0-1.3,0-1.9,0c-0.6,1-2.4,2.7-2.8,0.6C36.4,48.8,37.4,46.6,38.3,44.5z"/>
	<path d="M44.6,43.6l0.3-0.4c3.1,0.3,0.7,4.7,2,6.5c0.7,0.6,2.3,0.1,2-1c0.3-1.8-0.6-4,0.8-5.5c0.3,0.1,1,0.3,1.3,0.4
		c0.4,2.1,0.4,4.3,0,6.4c-0.8,3-5.8,3-6.5-0.1C44.1,47.8,43.9,45.5,44.6,43.6z"/>
	<g>
		<path d="M52.7,43.4c1.5-0.3,3.1-0.4,4.5,0.2c3,1.7,2.8,7.1-0.6,8.3c-1.3,0.3-2.8,0.5-4-0.3C52.3,49,52.2,46.2,52.7,43.4z
			 M54.7,50.2c1.2-0.4,2.6-1.2,2.3-2.8c0.1-1.4-1.3-1.9-2.3-2.4C54.6,46.8,54.7,48.5,54.7,50.2z"/>
	</g>
	<path d="M61,43.5c0.9-0.6,2-0.1,1.9,1c0.1,2.4,0.2,4.8-0.1,7.1c-0.5,1-1.2,0.5-1.9,0.1C60.7,48.9,60.5,46.2,61,43.5z"/>
	<path d="M64.1,45.1c0.3-2.8,3.8-1.8,5.7-1.6c1.2,1-0.6,2-1.4,2.4c0,2,0.1,3.9-0.2,5.9c-0.6,0.7-1.3,0.4-1.9,0
		c-0.3-2-0.1-4.1-0.1-6.1C65.5,45.4,64.8,45.2,64.1,45.1z"/>
	<path d="M35.6,55.4c0.9-0.5,1.9-0.4,2.8-0.4c9.9,0.1,19.9,0,29.8,0c1.1,0.1,2.7-0.2,2.6,1.4c-0.7,1.1-2.1,0.7-3.2,0.9
		c-10.3-0.1-20.7,0.1-31-0.1C35.5,57.3,35,56.1,35.6,55.4z"/>
	<path d="M35.7,60.2c0.7-0.7,1.8-0.3,2.7-0.4c9.7,0,19.5,0,29.2,0c1.2,0.2,3.2-0.4,3.2,1.4c-0.7,1.2-2.1,0.8-3.2,0.9
		c-10.1-0.1-20.3,0-30.4,0C36,62.3,34.6,61.2,35.7,60.2z"/>
	<path d="M35.5,66.5c-0.6-1.2,0.5-2,1.6-1.8c11.1-0.1,22.2,0,33.3,0c-0.1,0.9,0.3,2.5-1.2,2.2c-10.1,0.1-20.2,0-30.3,0.1
		C37.7,66.9,36.5,67,35.5,66.5z"/>
	<path d="M35.2,70.7c0.3-0.9,1-1.3,1.9-1.2c7.9,0,15.8,0,23.7,0c0,0.9,0.3,2.5-1.1,2.2c-7.1,0.1-14.3,0-21.4,0.1
		C37.2,71.6,35.7,72,35.2,70.7z"/>
</g>
<polygon class="st0" points="18,25.7 21.3,32.4 28.7,33.5 23.4,38.7 24.6,46.1 18,42.6 11.4,46.1 12.7,38.7 7.3,33.5 14.7,32.4 "/>
</svg>
