<?xml version="1.0" encoding="utf-8"?>
<!-- Generator: Adobe Illustrator 25.3.1, SVG Export Plug-In . SVG Version: 6.00 Build 0)  -->
<svg version="1.1" id="Layer_1" xmlns="http://www.w3.org/2000/svg" xmlns:xlink="http://www.w3.org/1999/xlink" x="0px" y="0px"
	 width="76px" height="96.5px" viewBox="0 0 76 96.5" style="enable-background:new 0 0 76 96.5;" xml:space="preserve">
<style type="text/css">
	.st0{fill:none;stroke:#000000;stroke-width:2;stroke-miterlimit:10;}
</style>
<g>
	<line class="st0" x1="28.7" y1="37.6" x2="57.9" y2="37.6"/>
	<line class="st0" x1="28.7" y1="50.9" x2="57.9" y2="50.9"/>
	<line class="st0" x1="28.7" y1="64.2" x2="57.9" y2="64.2"/>
	<line class="st0" x1="28.7" y1="77.5" x2="57.9" y2="77.5"/>
	<line class="st0" x1="23.4" y1="37.6" x2="18.1" y2="37.6"/>
	<line class="st0" x1="23.4" y1="50.9" x2="18.1" y2="50.9"/>
	<line class="st0" x1="23.4" y1="64.2" x2="18.1" y2="64.2"/>
	<line class="st0" x1="23.4" y1="77.5" x2="18.1" y2="77.5"/>
	<polyline class="st0" points="26,16.3 8.7,16.3 8.7,89.5 67.2,89.5 67.2,16.3 50,16.3 	"/>
	<polygon class="st0" points="43.3,12.4 43.3,7 32.7,7 32.7,12.4 27.4,12.4 24.7,23 51.3,23 48.6,12.4 	"/>
</g>
</svg>
