<?xml version="1.0" encoding="utf-8"?>
<!-- Generator: Adobe Illustrator 25.3.1, SVG Export Plug-In . SVG Version: 6.00 Build 0)  -->
<svg version="1.1" id="Capa_1" xmlns="http://www.w3.org/2000/svg" xmlns:xlink="http://www.w3.org/1999/xlink" x="0px" y="0px"
	 width="30.7px" height="34.3px" viewBox="0 0 30.7 34.3" style="enable-background:new 0 0 30.7 34.3;" xml:space="preserve">
<g>
	<g>
		<path d="M17.2,0.1c0.2-0.1,0.5-0.1,0.7,0c0.1,0.1,0.2,0.2,0.2,0.4c0,1.3,0,2.7,0,4C19,4.2,20,3.9,21,3.6c0.3-0.1,0.7,0.1,0.7,0.5
			c0,1,0,2,0,2.9c0.8-0.1,1.7-0.2,2.5-0.3c0.3,0,0.6,0.2,0.6,0.5c0,0.7,0,1.4,0,2.1c0.7,0,1.4,0,2.1,0c0.3,0,0.5,0.3,0.5,0.5
			c0,7.1,0,14.1,0,21.2c0,0.3-0.3,0.6-0.6,0.5c-7.7,0-15.5,0-23.2,0c-0.2,0-0.4,0-0.5,0c-0.2-0.1-0.4-0.3-0.4-0.5
			c0-7.1,0-14.1,0-21.2c0-0.2,0.1-0.4,0.3-0.5C7.8,6.3,12.5,3.2,17.2,0.1z M3.8,10.2c0,6.6,0,13.3,0,19.9c0,0,0,0,0,0
			c4.4-2.9,8.7-5.8,13.1-8.6c0-6.6,0-13.3,0-19.9C12.6,4.4,8.2,7.3,3.8,10.2z M18.1,5.7c0,5.3,0,10.5,0,15.8c0,0.2,0,0.4-0.1,0.5
			c-0.1,0.1-0.2,0.2-0.3,0.3c-2.7,1.8-5.4,3.5-8.1,5.3c-0.9,0.6-1.8,1.2-2.6,1.8c4.5-1.5,9.1-3,13.6-4.4c0-6.7,0-13.4,0-20.1
			C19.7,5.1,18.9,5.4,18.1,5.7z M21.7,8.1c0,0.3,0,0.7,0,1c0,5.4,0,10.8,0,16.1c0,0.1,0,0.3-0.1,0.4c-0.1,0.1-0.3,0.2-0.5,0.2
			c-4,1.3-8.1,2.6-12.1,3.9c0.6-0.1,1.1-0.1,1.6-0.2c4.4-0.6,8.8-1.1,13.1-1.7c0-2.9,0-5.8,0-8.7c0-3.8,0-7.6,0-11.4
			C23,7.9,22.3,8,21.7,8.1z M24.8,10.4c0,5.9,0,11.8,0,17.7c0,0.1,0,0.3,0,0.4c-0.1,0.2-0.2,0.3-0.4,0.3c-4.2,0.5-8.4,1.1-12.6,1.6
			c0.6,0,1.1,0,1.7,0c4.3,0,8.7,0,13,0c0-6.7,0-13.4,0-20.1C25.8,10.4,25.3,10.5,24.8,10.4z"/>
	</g>
</g>
</svg>
