<?xml version="1.0" encoding="utf-8"?>
<!-- Generator: Adobe Illustrator 25.3.1, SVG Export Plug-In . SVG Version: 6.00 Build 0)  -->
<svg version="1.1" id="Capa_1" xmlns="http://www.w3.org/2000/svg" xmlns:xlink="http://www.w3.org/1999/xlink" x="0px" y="0px"
	 width="27.8px" height="28.5px" viewBox="0 0 27.8 28.5" style="enable-background:new 0 0 27.8 28.5;" xml:space="preserve">
<style type="text/css">
	.st0{fill:#F1312E;}
</style>
<g id="Capa_2_1_">
	<g id="Layer_2">
		<g>
			<path class="st0" d="M1.5,21.6c-0.1,0-0.2,0-0.2-0.1C1.1,21.5,1,21.3,1,21.1V7.5c0-2,1.6-3.6,3.6-3.6h9.7c0,0,0,0,0,0
				c1,0,1.8,0.4,2.5,1c0.7,0.7,1,1.6,1,2.5v7.7c0,2-1.6,3.6-3.6,3.6h-9l-3.4,2.8C1.8,21.6,1.7,21.6,1.5,21.6z M4.6,5.1
				c-1.4,0-2.5,1.1-2.5,2.4v12.4l2.6-2.1c0.1-0.1,0.2-0.1,0.4-0.1h9.2c1.3,0,2.4-1.1,2.4-2.4V7.5c0-0.7-0.3-1.3-0.7-1.7
				c-0.5-0.5-1.1-0.7-1.7-0.7c0,0,0,0,0,0H4.6z"/>
		</g>
		<g>
			<path class="st0" d="M26.1,27.7c-0.1,0-0.3,0-0.4-0.1l-3.4-2.8h-9c-1,0-1.9-0.4-2.5-1c-0.7-0.7-1-1.6-1-2.5v-7.7
				c0-2,1.6-3.6,3.6-3.6h9.7c2,0,3.6,1.6,3.6,3.6v13.6c0,0.2-0.1,0.4-0.3,0.5C26.3,27.7,26.2,27.7,26.1,27.7z M13.4,23.7h9.2
				c0.1,0,0.3,0,0.4,0.1l2.6,2.1V13.6c0-1.3-1.1-2.4-2.5-2.4h-9.7c-1.3,0-2.4,1.1-2.4,2.4v7.7c0,0.7,0.3,1.3,0.7,1.7
				S12.7,23.7,13.4,23.7v0.6V23.7z"/>
		</g>
	</g>
</g>
</svg>
