<?xml version="1.0" encoding="utf-8"?>
<!-- Generator: Adobe Illustrator 25.3.1, SVG Export Plug-In . SVG Version: 6.00 Build 0)  -->
<svg version="1.1" id="Capa_1" xmlns="http://www.w3.org/2000/svg" xmlns:xlink="http://www.w3.org/1999/xlink" x="0px" y="0px"
	 width="36.4px" height="37.3px" viewBox="0 0 36.4 37.3" style="enable-background:new 0 0 36.4 37.3;" xml:space="preserve">
<g>
	<path d="M29.5,4.9c-0.5-0.2-1-0.1-1.5-0.1c-3.3,0-6.5,0-9.8,0c-1.2,0-2,1.2-1.9,2.3c0.1,0.6-0.2,1.4,0.4,1.7
		c0.7-0.2,0.4-1.1,0.5-1.6c-0.1-0.7,0.5-1.5,1.2-1.4c3.4,0,6.7,0,10.1,0c0.7-0.1,1.2,0.5,1.2,1.2c0.1,1.9,0,3.8,0,5.6
		c0,0.5,0.8,0.4,0.8-0.1c0-1.8,0-3.7,0-5.5C30.7,6,30.2,5.3,29.5,4.9z"/>
	<path d="M25.9,7c-0.1-0.5-0.9,0-0.5,0.3C25.5,7.8,26.2,7.2,25.9,7z"/>
	<path d="M24.4,6.9c-1.1-0.1-2.3-0.1-3.4,0c-0.2,0.2-0.3,0.6,0.1,0.6c1.1,0.1,2.2,0.1,3.3,0C24.3,7.3,24.3,7,24.4,6.9z"/>
	<path d="M28.5,8.6c-3.2,0-6.3,0-9.5,0c-0.3,0-0.9-0.1-0.8,0.4c0,0.6,0.7,0.4,1.1,0.4c3,0,6,0,9.1,0C28.9,9.6,29.1,8.7,28.5,8.6z"/>
	<g>
		<path d="M17,14.6c-0.6,0.8-0.2,1.9-0.8,2.6c-0.3,0.1-0.5,0.1-0.7-0.2c0.1-0.7,0.2-1.5,0.3-2.2c0.3-0.6,0.8-1.2,0.9-1.9
			c0.2-1.1-0.1-2.4-1.2-2.9c-0.8,0.8-0.9,1.9-1.6,2.8c-2.1,2.6-2.2,6.2-2.8,9.3c-0.1,0.8-0.7,1.4-1.4,1.9c0.8,2.3,1.6,4.6,2.3,6.9
			c0.6-0.2,1.3-0.5,1.9-0.6c1-0.2,1.8,0.7,2.7,0.6c0.8,0,1.5-0.3,2.2-0.4c0.2,0.2,0.5,0.5,0.1,0.8c-0.7,0.3-1.5,0.5-2.3,0.5
			c-0.9,0-1.6-0.5-2.4-0.7c-0.7,0.1-1.3,0.4-1.9,0.6c0.1,0.4,0.3,0.8,0.3,1.2c-1.7,0.8-3.5,1.3-5.3,1.8C7,34.4,6.9,34,6.8,33.6
			c-1-2.9-2-5.9-3-8.8c0-0.2-0.2-0.7,0.1-0.8c1.6-0.6,3.1-1.1,4.7-1.6c0.5-0.2,0.6,0.4,0.9,0.7c0.4-0.5,0.7-1,0.8-1.7
			c0.4-2.4,0.6-4.9,1.6-7.2c0.4-1,1.2-1.7,1.6-2.8c0.4-0.7,0.5-1.7,1.4-2.1c0.7-0.4,1.6,0.1,2,0.8C17.9,11.5,17.8,13.3,17,14.6z
			 M4.8,24.8c1,3,2,6,3.1,9c1.3-0.4,2.6-0.9,3.8-1.3c-1-3-2-6-3.1-9C7.4,23.9,6.1,24.4,4.8,24.8z"/>
	</g>
	<g>
		<path d="M32.5,16.6c0.6,0.4,1.2,1,1.2,1.7c0.1,0.7-0.3,1.2-0.8,1.7c1,0.9,0.9,2.6-0.3,3.3c0.5,0.6,0.9,1.3,0.6,2.1
			c-0.2,1-1.3,1.3-2.2,1.5c-1,0.3-2.2-0.5-2.4-1.5c-0.1-0.5,0.1-0.9,0.2-1.3c-0.5-0.4-1.1-0.9-1.1-1.6c-0.1-0.7,0.3-1.4,0.8-1.8
			c-0.5-0.6-0.9-1.3-0.6-2.1c0.1-0.5,0.6-0.9,0.9-1.2c-0.9-0.8-0.9-2.4,0.1-3.1c0.9-0.5,2.2-0.9,3.1-0.1
			C32.8,14.7,32.8,15.7,32.5,16.6z M29.4,15c-0.8,0.5-0.3,2,0.6,1.9c0.7-0.1,1.5-0.2,1.8-1c0.2-0.4,0-0.9-0.4-1.1
			C30.8,14.3,30,14.7,29.4,15z M29.3,18.1c-1,0.3-0.8,1.9,0.2,2c0.9-0.1,1.8-0.5,2.7-0.8c0.8-0.3,0.8-1.4,0.1-1.8
			C31.3,17.1,30.3,17.9,29.3,18.1z M31.7,20.5c-0.8,0.1-1.6,0.5-2.4,0.7c-0.5,0.1-0.6,0.6-0.9,1c0.2,0.5,0.5,1,1.1,1.1
			c0.9-0.2,1.8-0.5,2.7-0.9C33.1,22,32.7,20.5,31.7,20.5z M29.8,24.3c-0.7,0.6-0.2,1.8,0.7,1.8c0.6-0.1,1.1-0.2,1.6-0.6
			c0.5-0.5,0.3-1.5-0.5-1.7C31,23.7,30.4,24,29.8,24.3z"/>
	</g>
	<path d="M17.2,18.1c-0.2-0.4-0.9-0.3-0.8,0.2c0,3.2,0,6.4,0,9.6C16.3,29,17.1,30,18.2,30c3.4,0,6.9,0,10.3,0
		c0.8,0.1,1.6-0.5,1.9-1.2c0.2-0.4,0.4-1.1-0.2-1.3c-0.7,0.1-0.4,1.1-0.9,1.4c-0.3,0.3-0.9,0.2-1.3,0.3c-3.2,0-6.4,0-9.5,0
		c-0.6,0.1-1.2-0.4-1.2-1C17.2,24.8,17.3,21.4,17.2,18.1z"/>
	<path d="M27.8,25.3c-3-0.1-6.1,0-9.2,0c-0.6,0-0.5,1,0.1,0.8c2.7,0.1,5.4,0,8.1,0c0.5,0,1.2,0.2,1.2-0.5
		C28,25.6,27.8,25.4,27.8,25.3z"/>
	<path d="M24.3,27.6c0-0.5-0.6-0.7-0.9-0.9c-0.4,0.3-0.9,0.9-0.5,1.4C23.3,28.8,24.3,28.4,24.3,27.6z"/>
	<path d="M10.1,31.8c-0.3-0.2-0.5-0.7-1-0.5s-0.5,1.1,0.1,1.2C9.7,32.6,9.9,32,10.1,31.8z"/>
</g>
</svg>
