<?xml version="1.0" encoding="utf-8"?>
<!-- Generator: Adobe Illustrator 25.3.1, SVG Export Plug-In . SVG Version: 6.00 Build 0)  -->
<svg version="1.1" id="Layer_1" xmlns="http://www.w3.org/2000/svg" xmlns:xlink="http://www.w3.org/1999/xlink" x="0px" y="0px"
	 width="76px" height="81.7px" viewBox="0 0 76 81.7" style="enable-background:new 0 0 76 81.7;" xml:space="preserve">
<g>
	<g>
		<path d="M13.2,12.8c0.1-1.2-0.3-3,1.3-3.3c1.8,0,1.5,2.1,1.6,3.3c4.1,0,8.3,0,12.4,0c0.1-1.1-0.3-3.2,1.4-3.2
			c1.7-0.1,1.4,2.1,1.5,3.2c4.1,0,8.3,0,12.4,0c0.1-1.1-0.3-3.3,1.5-3.3c1.7,0.1,1.2,2.1,1.4,3.3c4.1,0,8.3,0,12.4,0
			C59,11.7,58.6,10,60,9.5c2-0.3,1.8,2,1.8,3.3c2.1,0,4.3-0.2,6.3,0.3c2.4,0.6,4.1,2.8,4.5,5.2V66c-0.5,3.1-3.4,5.6-6.6,5.3
			c-19,0-38,0-57,0c-3.2,0.2-5.9-2.1-6.6-5.2V18.3c0.3-2.3,1.8-4.4,4-5.1C8.6,12.5,10.9,12.9,13.2,12.8z M6.6,16.1
			c-2.3,1.6-1.3,4.6-1.5,6.9c21.5,0,43.1,0,64.6,0c-0.2-2.3,0.8-5.3-1.5-6.9c-2-1.1-4.4-0.4-6.6-0.6c0,0.5,0,1.4,0,1.8
			c1.2,0,3.3-0.2,3.1,1.6c-0.5,1.9-2.9,1-4.3,1.2c-1.5-0.3-3.9,0.7-4.6-1.1c-0.3-1.9,1.9-1.7,3.1-1.7c0-0.5,0-1.4,0-1.8
			c-4.2,0-8.3,0-12.5,0c0,0.5,0,1.4,0,1.8c1.2,0,3.3-0.1,3.1,1.6c-0.6,1.8-3,0.9-4.4,1.1c-1.5-0.2-3.8,0.7-4.5-1.1
			c-0.3-1.8,1.9-1.7,3.1-1.7c0-0.5,0-1.4,0-1.8c-4.2,0-8.3,0-12.5,0c0,0.5,0,1.4,0,1.8c0.9,0.2,2.3-0.3,2.9,0.7c0.6,0.8-0.1,2-1,2
			c-2.2,0.1-4.4,0.1-6.6,0c-1-0.1-1.4-1.2-1-2c0.6-1,2-0.6,2.9-0.7c0-0.5,0-1.4,0-1.8c-4.2,0-8.3,0-12.5,0c0,0.5,0,1.4,0,1.8
			c0.9,0.2,2.2-0.3,2.8,0.6c0.7,0.8,0,2.1-1,2.1c-2,0.1-4.1,0.1-6.1,0c-1,0.1-1.8-1-1.4-2c0.6-1.1,2-0.7,3-0.8c0-0.5,0-1.4,0-1.8
			C11.1,15.7,8.6,15,6.6,16.1z M5.2,25.8c0,13.1,0,26.2,0,39.3c-0.1,2,1.8,3.7,3.8,3.5c19,0,38,0,57,0c2,0.2,3.9-1.4,3.8-3.4
			c0-13.1,0-26.2,0-39.3C48.2,25.8,26.7,25.8,5.2,25.8z"/>
	</g>
	<g>
		<path d="M31,30.2c2-0.3,4-0.1,5.9-0.1c0.9-0.1,1.7,0.7,1.6,1.5c0,8.6,0,17.2,0,25.8c0,0.8,0.1,2-0.8,2.4c-1.5,0.3-3.1,0.1-4.7,0.1
			c-0.9,0-2.2,0.2-2.7-0.9c-0.1-0.9-0.1-1.8-0.1-2.7c-3-1.2-6-2.4-9-3.6c-0.1,2.8,0.1,5.6-0.1,8.4c-0.7,1.5-2.7,0.8-4,1
			c-1.3-0.2-3.4,0.6-4-1c-0.2-3,0-6-0.1-8.9c-1.4-0.4-2.8-1.5-2.9-3.1c-0.1-2.6,0-5.1,0-7.7C10,39.9,11,38.4,12.5,38
			c3-0.6,6.2,0.5,9-0.9c2.9-1.2,5.8-2.3,8.7-3.5C30.4,32.5,29.9,30.9,31,30.2z M33,32.8c0,8.1,0,16.3,0,24.4c0.9,0,1.8,0,2.8,0
			c0-8.1,0-16.3,0-24.4C34.9,32.8,33.9,32.8,33,32.8z M21.3,40.1c0,3.3,0,6.5,0,9.8c3,1.2,6,2.4,9,3.6c0-5.6,0-11.3,0-16.9
			C27.3,37.7,24.3,38.9,21.3,40.1z M13,40.6c-0.2,2.9-0.1,5.8-0.1,8.7c1.9,0.3,3.8,0.1,5.6,0.2c0-3,0.1-6-0.1-8.9
			C16.6,40.5,14.8,40.5,13,40.6z M15.8,52.2c0,2.4,0,4.8,0,7.3c0.9,0,1.8,0,2.7,0c0-2.4,0-4.8,0-7.3C17.6,52.2,16.7,52.2,15.8,52.2z
			"/>
	</g>
	<g>
		<path d="M44.8,32.9c6.1-0.2,12.3,0,18.5-0.1c0.9,0,2.1-0.1,2.4,1c0.1,3.1,0.1,6.2,0,9.3c-0.1,0.9-1.1,1.2-1.8,1.1
			c-6,0-12.1,0-18.1,0c-0.8,0.1-1.8-0.2-1.9-1.2c-0.1-2.7,0-5.5-0.1-8.2C43.7,34.1,43.8,33.1,44.8,32.9z M46.5,35.6c0,2,0,3.9,0,5.9
			c5.5,0,11,0,16.5,0c0-2,0-3.9,0-5.9C57.4,35.6,51.9,35.6,46.5,35.6z"/>
	</g>
	<g>
		<path d="M44.2,48.3c0.7-0.6,1.7-0.2,2.6-0.3c5.9,0.1,11.7,0,17.5,0c1-0.1,1.4,1,1.3,1.8c0,2.7,0.1,5.4,0,8.2c0.1,1-1,1.5-1.8,1.4
			c-6.1,0-12.1,0-18.2,0c-0.7,0-1.7-0.2-1.8-1.1c-0.2-2.5,0-5-0.1-7.5C43.8,50,43.5,48.9,44.2,48.3z M46.5,56.6c5.5,0,11,0,16.5,0
			c0-2,0-3.9,0-5.9c-5.5,0-10.9,0-16.4,0C46.4,52.6,46.5,54.6,46.5,56.6z"/>
	</g>
</g>
</svg>
