<?xml version="1.0" encoding="utf-8"?>
<!-- Generator: Adobe Illustrator 25.3.0, SVG Export Plug-In . SVG Version: 6.00 Build 0)  -->
<svg version="1.1" id="Capa_1" xmlns="http://www.w3.org/2000/svg" xmlns:xlink="http://www.w3.org/1999/xlink" x="0px" y="0px"
	 width="16.04px" height="18px" viewBox="0 0 16.04 18" style="enable-background:new 0 0 16.04 18;" xml:space="preserve">
<style type="text/css">
	.st0{fill:#010101;}
</style>
<g>
	<path class="st0" d="M3.59,9.98c0.14-0.02,0.28-0.04,0.43-0.03c-0.34-1.98-0.66-3.96-1-5.94c2.48-0.4,4.95-0.81,7.43-1.22
		c0.04-0.01,0.11,0,0.13-0.05c0.1-0.17,0.23-0.33,0.38-0.46C8.28,2.72,5.61,3.16,2.93,3.6C2.72,3.64,2.56,3.86,2.6,4.07
		C2.93,6.04,3.26,8.01,3.59,9.98z"/>
	<path class="st0" d="M4.52,4.66L4.51,4.64C4.34,4.76,4.48,5.06,4.69,5c1.72-0.28,3.44-0.56,5.16-0.84c0.1-0.01,0.2-0.08,0.21-0.18
		c0.03-0.14-0.11-0.27-0.25-0.24C8.2,4,6.6,4.26,5,4.52C4.99,4.55,4.98,4.59,4.97,4.61c0-0.02,0-0.05-0.01-0.07
		C4.84,4.55,4.72,4.57,4.6,4.59c0,0.01-0.01,0.02-0.01,0.03C4.59,4.63,4.6,4.64,4.61,4.65C4.58,4.67,4.56,4.68,4.54,4.7
		C4.54,4.69,4.53,4.67,4.52,4.66z"/>
	<path class="st0" d="M4.81,5.83c1.71-0.28,3.42-0.56,5.14-0.84c0.1-0.01,0.16-0.1,0.24-0.15c0.04-0.14-0.07-0.3-0.22-0.28
		C9.68,4.6,9.39,4.65,9.1,4.7C8.99,4.71,8.88,4.73,8.77,4.75l0,0C7.44,4.97,6.11,5.19,4.78,5.41c-0.1,0.01-0.19,0.09-0.2,0.19
		C4.55,5.73,4.68,5.85,4.81,5.83z"/>
	<path class="st0" d="M10.87,4.9c-0.56,0.26-1,0.75-1.21,1.33C9.51,6.62,9.47,7.06,9.5,7.48c0.03,0.14,0.23,0.2,0.34,0.11
		c0.1-0.08,0.07-0.22,0.08-0.33C9.9,6.81,10.01,6.37,10.25,6c0.24-0.37,0.6-0.66,1.02-0.8C11.13,5.12,10.99,5.02,10.87,4.9z"/>
	<path class="st0" d="M14.62,6.3c-0.19-0.57-0.6-1.06-1.13-1.34l-0.02-0.01c-0.02-0.01-0.06-0.03-0.08-0.04
		c-0.12,0.12-0.26,0.22-0.4,0.3c0.4,0.13,0.75,0.39,0.98,0.74c0.27,0.38,0.39,0.85,0.37,1.31c0,0.12-0.03,0.27,0.09,0.34
		c0.12,0.1,0.33,0.01,0.33-0.14C14.78,7.06,14.75,6.66,14.62,6.3z"/>
	<path class="st0" d="M11.62,6.92c0.1,0.08,0.19,0.15,0.29,0.22c0.14,0.09,0.33,0.08,0.46-0.02c0.09-0.06,0.17-0.13,0.26-0.19
		c0.1-0.08,0.15-0.21,0.13-0.33c-0.07-0.41-0.14-0.82-0.22-1.23c-0.14,0.03-0.28,0.05-0.42,0.05c0.07,0.4,0.14,0.81,0.21,1.21
		c-0.07,0.05-0.13,0.1-0.2,0.15c-0.07-0.05-0.14-0.1-0.21-0.16c0.06-0.4,0.12-0.81,0.17-1.21c-0.14,0-0.28-0.03-0.42-0.06
		c-0.06,0.4-0.12,0.81-0.18,1.21C11.49,6.7,11.52,6.84,11.62,6.92z"/>
	<path class="st0" d="M9.59,5.46C8.57,5.63,7.56,5.8,6.54,5.96c0.15,0.09,0.27,0.23,0.37,0.37c0.8-0.13,1.61-0.26,2.41-0.4
		C9.4,5.77,9.49,5.61,9.59,5.46z"/>
	<path class="st0" d="M4.79,6.59C4.98,6.45,5.17,6.3,5.36,6.16C5.19,6.19,5.02,6.21,4.85,6.25C4.7,6.28,4.66,6.53,4.79,6.59z"/>
	<path class="st0" d="M8.81,12.93c0.06,0.03,0.12,0.06,0.17,0.09c0.11,0.06,0.22,0.12,0.23,0.12c0.05,0.03,0.09,0.05,0.14,0.08
		c0.36,0.19,0.71,0.38,1.07,0.57c0.11,0.06,0.25,0.09,0.36,0c0.1-0.08,0.1-0.23,0.07-0.34c-0.14-0.57-0.28-1.13-0.42-1.7
		c-0.01-0.04-0.02-0.09-0.05-0.12c-1.26-1.67-2.52-3.33-3.78-5c-0.05,0.01-0.1,0.01-0.14,0.02C6.5,6.63,6.56,6.62,6.6,6.61
		C6.51,6.49,6.41,6.35,6.26,6.29c-0.18-0.07-0.4-0.02-0.54,0.11C5.47,6.61,5.21,6.8,4.95,7C4.77,7.14,4.7,7.4,4.8,7.61
		c0.05,0.12,0.14,0.21,0.22,0.31c0.64,0.85,1.28,1.69,1.92,2.54c0,0,0,0,0.01,0.01l0.33,0.44l0,0.01c0,0.01,0.01,0.02,0.02,0.02
		c0.49,0.64,0.97,1.29,1.46,1.93C8.77,12.89,8.79,12.91,8.81,12.93z M10.37,13.29c-0.35-0.19-0.7-0.38-1.06-0.56
		c0.26-0.19,0.52-0.37,0.78-0.55C10.19,12.54,10.28,12.91,10.37,13.29z M7.63,10.68L7.63,10.68l-0.48-0.66l-0.01,0.01
		c-0.64-0.85-1.29-1.7-1.93-2.55C5.16,7.43,5.18,7.35,5.23,7.32c0.26-0.2,0.53-0.41,0.79-0.61c0.05-0.05,0.11-0.02,0.14,0.04
		c1.26,1.67,2.52,3.34,3.79,5.01c-0.33,0.23-0.66,0.47-0.99,0.7C8.52,11.86,8.07,11.27,7.63,10.68z"/>
	<path class="st0" d="M9.09,6.82c0.02-0.15,0.04-0.3,0.08-0.44C8.51,6.48,7.85,6.59,7.19,6.7c0.1,0.13,0.19,0.26,0.29,0.38
		C8.02,6.99,8.56,6.91,9.09,6.82z"/>
	<path class="st0" d="M9.12,7.66C9.07,7.52,9.07,7.38,9.07,7.24C8.64,7.31,8.2,7.38,7.76,7.45c0.1,0.13,0.19,0.26,0.29,0.38
		C8.41,7.78,8.76,7.72,9.12,7.66z"/>
	<path class="st0" d="M10.58,8.27c0.09-0.02,0.17-0.11,0.17-0.2c0.01-0.13-0.13-0.24-0.26-0.21C9.77,7.97,9.05,8.09,8.33,8.21
		c0.1,0.13,0.19,0.25,0.29,0.38C9.27,8.48,9.92,8.38,10.58,8.27z"/>
	<path class="st0" d="M9.18,9.34c0.5-0.08,0.99-0.16,1.49-0.24c0.07-0.01,0.15-0.04,0.18-0.11c0.06-0.1,0.01-0.25-0.09-0.29
		c-0.07-0.04-0.15-0.01-0.22,0c-0.45,0.08-0.9,0.15-1.35,0.22c-0.1,0.01-0.2,0.03-0.3,0.04C8.92,9,8.96,9.04,8.99,9.08
		C9.05,9.17,9.12,9.25,9.18,9.34z"/>
	<path class="st0" d="M5.46,9.94c0.17-0.01,0.33-0.05,0.5-0.08c-0.1-0.13-0.19-0.25-0.29-0.38C5.54,9.52,5.37,9.5,5.29,9.63
		C5.21,9.76,5.31,9.94,5.46,9.94z"/>
	<path class="st0" d="M10.85,9.91C11,9.89,11.08,9.7,10.98,9.58c-0.05-0.08-0.15-0.1-0.24-0.08c-0.43,0.07-0.85,0.14-1.28,0.21
		c0.1,0.13,0.19,0.25,0.29,0.38C10.12,10.03,10.48,9.98,10.85,9.91z"/>
	<path class="st0" d="M5.65,10.76c0.29-0.05,0.58-0.1,0.87-0.14c-0.1-0.13-0.19-0.25-0.29-0.38c-0.22,0.04-0.45,0.07-0.67,0.11
		c-0.13,0.02-0.21,0.17-0.16,0.29C5.45,10.73,5.56,10.79,5.65,10.76z"/>
	<path class="st0" d="M10.97,10.74c0.1-0.01,0.19-0.11,0.19-0.22c0-0.13-0.13-0.23-0.25-0.2c-0.29,0.05-0.58,0.1-0.88,0.14
		c0.1,0.13,0.19,0.25,0.29,0.38C10.54,10.81,10.76,10.78,10.97,10.74z"/>
	<path class="st0" d="M4.29,13.05c0.53-0.13,0.94-0.63,0.99-1.17c0.05-0.43-0.12-0.87-0.44-1.15c-0.28-0.26-0.68-0.39-1.06-0.35
		c-0.44,0.04-0.85,0.31-1.06,0.7c-0.2,0.36-0.22,0.81-0.06,1.18c0.11,0.26,0.3,0.48,0.53,0.63C3.51,13.1,3.92,13.17,4.29,13.05z
		 M3.04,12.1c-0.18-0.4-0.02-0.92,0.35-1.15c0.11-0.07,0.24-0.12,0.37-0.15c0.49-0.09,1,0.27,1.09,0.76
		c0.1,0.47-0.21,0.97-0.68,1.09C3.72,12.79,3.21,12.53,3.04,12.1z"/>
	<path class="st0" d="M11.27,11.46c0.09-0.13-0.01-0.32-0.16-0.32c-0.17,0.01-0.34,0.05-0.5,0.08c0.09,0.12,0.21,0.23,0.23,0.39
		C10.98,11.57,11.17,11.6,11.27,11.46z"/>
	<path class="st0" d="M5.91,12.41c0.58-0.09,1.17-0.19,1.75-0.29c-0.1-0.13-0.19-0.25-0.29-0.38C6.87,11.83,6.36,11.91,5.85,12
		c-0.1,0.01-0.18,0.11-0.18,0.21C5.68,12.33,5.79,12.43,5.91,12.41z"/>
	<path class="st0" d="M11.32,12.36c0.13-0.06,0.16-0.26,0.04-0.35c-0.13-0.1-0.29-0.01-0.43,0c0.03,0.14,0.07,0.27,0.1,0.41
		C11.13,12.4,11.23,12.4,11.32,12.36z"/>
	<path class="st0" d="M8.23,12.88c-0.1-0.13-0.19-0.25-0.29-0.38c-0.64,0.1-1.29,0.21-1.93,0.31c-0.11,0-0.19,0.1-0.21,0.2
		c0.09,0.07,0.18,0.14,0.26,0.22C6.79,13.11,7.51,13,8.23,12.88z"/>
	<path class="st0" d="M11.53,13.12c0.09-0.11,0.03-0.3-0.11-0.33c-0.1-0.02-0.2,0.02-0.29,0.03c0.03,0.14,0.07,0.28,0.1,0.41
		C11.33,13.21,11.46,13.22,11.53,13.12z"/>
	<path class="st0" d="M1.7,13.84c-0.29,0.43-0.43,0.96-0.42,1.48c0.01,0.13-0.03,0.29,0.08,0.38c0.12,0.1,0.33,0.02,0.34-0.14
		c0-0.2-0.01-0.4,0.02-0.6c0.09-0.74,0.62-1.42,1.34-1.65c-0.15-0.08-0.28-0.18-0.4-0.3C2.27,13.2,1.94,13.48,1.7,13.84z"/>
	<path class="st0" d="M8.52,13.25c-0.71,0.12-1.42,0.23-2.13,0.35c0.09,0.12,0.17,0.25,0.24,0.39c0.83-0.14,1.67-0.27,2.5-0.41
		C8.93,13.47,8.72,13.36,8.52,13.25z"/>
	<path class="st0" d="M4.32,13.48c-0.14,0.03-0.28,0.05-0.42,0.05c0.07,0.4,0.14,0.81,0.21,1.21c-0.07,0.05-0.13,0.1-0.2,0.15
		c-0.07-0.05-0.14-0.1-0.21-0.16c0.06-0.4,0.12-0.81,0.18-1.21c-0.14-0.01-0.28-0.03-0.42-0.06c-0.06,0.42-0.13,0.84-0.18,1.27
		c-0.02,0.17,0.1,0.3,0.23,0.38c0.12,0.09,0.23,0.2,0.39,0.2c0.19,0.01,0.32-0.15,0.47-0.25c0.12-0.08,0.19-0.23,0.16-0.37
		C4.47,14.29,4.4,13.89,4.32,13.48z"/>
	<path class="st0" d="M11.26,4.69C11.57,4.95,12,5.05,12.4,4.97c0.4-0.08,0.75-0.34,0.94-0.7c0.18-0.34,0.21-0.76,0.07-1.12
		c-0.15-0.39-0.48-0.71-0.88-0.83c-0.33-0.1-0.7-0.07-1.01,0.08C11.4,2.46,11.3,2.53,11.2,2.61c-0.24,0.23-0.41,0.55-0.44,0.88
		C10.72,3.94,10.91,4.41,11.26,4.69z M11.47,2.95c0.13-0.12,0.29-0.21,0.46-0.25c0.46-0.11,0.96,0.18,1.1,0.62
		c0.16,0.44-0.06,0.96-0.48,1.16c-0.42,0.22-0.97,0.06-1.22-0.34C11.09,3.77,11.15,3.25,11.47,2.95z"/>
	<path class="st0" d="M5.15,8.8C5.12,8.88,5.11,8.98,5.18,9.05c0.05,0.07,0.14,0.07,0.22,0.07C5.32,9.01,5.23,8.91,5.15,8.8z"/>
	<path class="st0" d="M6.53,14.96c-0.08-0.83-0.6-1.6-1.36-1.95c-0.12,0.11-0.25,0.22-0.4,0.3c0.64,0.21,1.14,0.77,1.29,1.43
		c0.07,0.26,0.06,0.53,0.06,0.8c0,0.12,0.13,0.22,0.24,0.2c0.09-0.01,0.15-0.08,0.17-0.16c0-0.02,0-0.04,0-0.06
		C6.55,15.33,6.56,15.15,6.53,14.96z"/>
	<polygon class="st0" points="7.1,11.37 6.81,10.99 5.66,11.13 5.61,11.14 5.67,11.66 	"/>
	<path class="st0" d="M13.43,13.83l-0.05-0.29c-0.01-0.07-0.01-0.14,0-0.21c-0.01,0-0.02,0-0.03,0l0,0l0,0
		c-0.3-1.75-0.59-3.51-0.88-5.27c-0.14,0-0.29,0-0.43,0c0.28,1.64,0.55,3.28,0.83,4.92l0,0l0.08,0.51l-0.03,0.01l0.03,0.01
		l0.03,0.22c0.01,0.04,0.01,0.08,0.01,0.12c-0.01,0.05,0.01,0.1,0.03,0.15c-2.02,0.33-4.04,0.66-6.06,0.99
		c0.01,0.14,0.01,0.28,0.01,0.43c2.04-0.33,4.07-0.67,6.11-1c0.15-0.02,0.28-0.11,0.33-0.25C13.46,14.05,13.45,13.94,13.43,13.83
		L13.43,13.83z"/>
</g>
</svg>
