<?xml version="1.0" encoding="utf-8"?>
<!-- Generator: Adobe Illustrator 25.3.1, SVG Export Plug-In . SVG Version: 6.00 Build 0)  -->
<svg version="1.1" id="Capa_1" xmlns="http://www.w3.org/2000/svg" xmlns:xlink="http://www.w3.org/1999/xlink" x="0px" y="0px"
	 width="35.3px" height="34.3px" viewBox="0 0 35.3 34.3" style="enable-background:new 0 0 35.3 34.3;" xml:space="preserve">
<style type="text/css">
	.st0{fill:#010101;}
</style>
<g>
	<path class="st0" d="M34.9,27.3c0-0.3-0.1-0.4,0-0.6c-0.1-0.3,0-0.5-0.1-0.8c0-0.1,0-0.4,0-0.5c-0.1-0.1-0.4-0.1-0.5-0.3h-0.1
		c-0.1,0-0.4-0.1-0.5-0.1c-0.3-0.1-0.4-0.1-0.6-0.1v-0.1h0.1c0.1-0.1,0.3-0.3,0.3-0.5c0-0.1,0-0.1,0-0.3c0.1-0.3,0.1-0.5,0.1-0.8
		c0.1-0.4,0-0.9,0-1.3c0-0.1,0-0.4-0.1-0.5c-0.1-0.1,0-0.4,0-0.5c0,0,0-0.1,0.1-0.3c0-0.1,0-0.3,0-0.4c0-0.4,0-0.9,0-1.3
		c0-0.1,0-0.1,0-0.3c0-0.1,0-0.3,0-0.4c-0.1-0.1,0-0.3-0.1-0.4c0-0.3-0.1-0.5-0.3-0.6c0-0.1-0.1-0.3-0.3-0.3c0-0.3,0-0.5,0-0.8
		c-0.1-0.1,0-0.4-0.1-0.5c0-0.1-0.1-0.4-0.1-0.5c0-0.1-0.1-0.3-0.1-0.4c0,0,0-0.1-0.1-0.1v-0.1c0,0,0-0.1-0.1-0.1c0,0,0-0.1-0.1-0.1
		c0-0.1-0.1-0.1-0.1-0.3c-0.1-0.1-0.1-0.3-0.3-0.4l-0.1-0.1c0-0.1,0-0.3,0-0.3c0-0.1,0-0.1-0.1-0.3v-0.1l0.1-0.1
		c0-0.1,0.1-0.3,0.3-0.3v-0.1c0-0.1,0.1-0.1,0.1-0.3c0-0.1,0.1-0.1,0.1-0.3c0-0.1,0-0.1,0.1-0.3c0-0.3,0.1-0.5,0-0.9
		c0-0.3-0.1-0.6-0.3-0.9V9.7c0-0.1-0.1-0.1-0.1-0.3c0.1-0.3-0.1-0.5-0.3-0.8l-0.1-0.1C31.3,8.4,31,8.3,30.9,8l-0.1-0.1
		c-0.1-0.1-0.4-0.3-0.5-0.3c-0.1,0-0.4-0.1-0.5-0.1c-0.5-0.1-1-0.3-1.7-0.3c-0.1-0.1-0.4,0-0.6,0c-0.5,0-0.9,0.1-1.4,0.1
		c-0.1-0.1-0.3-0.1-0.4-0.1c-0.1,0-0.3-0.1-0.3-0.1c-0.3-0.1-0.5-0.3-0.8-0.4c-0.1,0-0.3-0.1-0.4-0.1c-0.3-0.1-0.6,0-0.9-0.1
		c-0.1,0-0.3-0.1-0.4-0.1l-0.1-0.1c-0.3,0-0.5-0.1-0.8-0.3c-0.1,0-0.4-0.1-0.5-0.1c-0.3,0-0.5-0.1-0.8-0.1c-0.1,0.1-0.3,0-0.4,0
		h-0.1c-0.3-0.1-0.5-0.1-0.8-0.1c-0.3-0.1-0.5,0-0.8,0c-0.3-0.1-0.6,0-0.9,0c-0.1,0.1-0.3,0-0.4,0c-0.1,0-0.3,0-0.4,0
		c-0.4,0-0.9,0-1.3,0.1c-0.1,0-0.1,0-0.3,0c-0.1,0-0.4,0.1-0.5,0.1c-0.1,0-0.3,0-0.4,0c-0.3,0-0.5,0.1-0.9,0.1c-0.1,0-0.3,0-0.4,0.1
		h-0.1c-0.3,0-0.4,0.1-0.6,0.1c-0.1,0-0.3,0-0.3,0.1c-0.1,0-0.3,0-0.3,0.1c-0.1,0-0.1,0-0.3,0c0,0-0.1,0-0.1-0.1
		c-0.1,0-0.1,0-0.3-0.1l-0.1-0.1c0.1,0.1,0,0-0.1,0C10.7,6,10.3,5.7,9.8,5.7H9.7C8.9,5.5,8,5.3,7.1,5.6c-0.1,0-0.3,0-0.4,0.1
		c-0.1,0-0.4,0.1-0.5,0.1C6.1,5.9,6.1,6,6,6L5.8,6.1c0,0-0.1,0.1-0.3,0.1C5.3,6.4,5.2,6.6,4.9,6.8c0,0.1-0.1,0.1-0.1,0.3
		S4.7,7.1,4.7,7.3C4.4,7.4,4.4,7.5,4.3,7.8v0.1c-0.1,0.1,0,0.3,0,0.4c0,0.4,0,0.8,0.1,1.2c0,0.1,0,0.1,0,0.3c0,0.1,0,0.1,0,0.3
		c0,0,0,0.1,0.1,0.1v0.1v0.1c0,0.3-0.3,0.4-0.4,0.5H4c0,0.1-0.3,0.3-0.3,0.5c-0.1,0-0.1,0.1-0.1,0.1c-0.1,0.1-0.3,0.4-0.4,0.6H3.1
		v0.1c0,0,0,0.1-0.1,0.1c0,0.1-0.1,0.1-0.1,0.3c0,0.1-0.1,0.1-0.1,0.3c0,0.1-0.1,0.1-0.3,0.3c-0.3,0.1-0.3,0.4-0.5,0.6
		c0,0.1-0.1,0.3-0.1,0.3c-0.1,0.1-0.1,0.3-0.1,0.4c0,0-0.1,0-0.1,0.1s0,0.3,0,0.3c0,0.1-0.1,0.4-0.1,0.5c0,0.1,0,0.3,0,0.3
		c-0.1,0.3-0.1,0.5-0.1,0.6c0.1,0.1,0.1,0.3,0,0.4c0,0.1-0.1,0.1-0.1,0.3c0,0.1,0,0.3,0,0.4c-0.1,0.1,0,0.3,0,0.4
		c-0.1,0.3,0,0.5,0,0.8c-0.1,0.1,0,0.1,0,0.3c0,0.3,0,0.5,0,0.8c0.1,0.3,0,0.5,0,0.8l-0.1,0.1c0,0.1-0.1,0.1-0.1,0.1v0.1H0.8
		c0,0.8,0,1.4,0,2.2c0,0.1,0,0.1,0,0.1v0.1c-0.1,0.1,0,0.4-0.1,0.6c0,0.1,0,0.1,0,0.3v0.1c0.1,0,0.1,0,0.3-0.1c0,0.1,0,0.1,0,0.3
		l0.1,0.1l0,0l0.1,0.1c0.3,0.1,0.4,0.3,0.5,0.4C1.9,24.9,2,25,2.1,25s0.3,0.1,0.3,0.1c0.1,0,0.3,0.1,0.4,0.1c0,0,0,0,0,0.1
		c0.1,0,0.3,0,0.4,0.1c0.1,0,0.1,0,0.1,0.1c0,0.5,0,1.2,0,1.7c0,0.3,0,0.4,0.3,0.5c0.1,0,0.1,0,0.3,0.1c0.1,0,0.3,0.1,0.4,0.1
		c0.4,0.1,0.8,0.3,1,0.3c0.1,0,0.1,0,0.3,0v-0.1c0.1,0,0.3-0.1,0.4,0c0.1,0,0.3,0.1,0.4,0.1c0.1,0.1,0.4,0.1,0.5,0.3
		c0.1,0,0.3,0,0.4,0c0.1,0,0.1,0,0.3-0.1h0.1c0,0,0.1,0,0.1-0.1c0.1,0,0.3-0.1,0.4-0.1c0.3-0.3,0.5-0.4,0.9-0.5h0.1
		c0.1,0,0.1,0,0.3-0.1c0,0,0.1,0,0.1-0.1c0.1,0,0.3,0,0.3-0.1c0.1,0,0.1,0,0.3-0.1c0,0,0.1,0,0.1-0.1c0.1,0,0.1,0,0.3,0
		c0,0.4,0,0.9,0,1.3c0,0.1,0,0.1,0.1,0.3c0.1,0.1,0.3,0.3,0.4,0.4c0.5,0,1,0.1,1.5,0.3c0,0.1,0,0.1-0.1,0.1c0.5,0,1,0,1.5,0
		c0.1,0.1,0.3,0,0.4,0l0.1-0.1c0.1,0,0.3,0,0.4-0.1c0.1-0.1,0.3-0.3,0.3-0.4c0.1-0.1,0.1-0.3,0.3-0.4c0.1,0,0.1,0,0.3-0.1
		c0.3-0.1,0.5-0.3,0.6-0.4c0.1-0.1,0.1-0.1,0.3-0.3h0.1l0.1-0.1c0.3,0,0.4-0.1,0.5-0.4c0.1,0,0.1,0,0.3,0c0.4,0.1,0.9,0.1,1.4,0
		c0,0.3,0,0.6,0,0.9c0,0.4-0.1,0.8-0.1,1.2c-0.1,0.1-0.1,0.1-0.3,0.3c0,0.1,0,0.1,0.1,0.1c0.1,0,0.1,0,0.3,0l0.1-0.1
		c0.1-0.1,0.3-0.1,0.4-0.3c0.1,0,0.1,0,0.3,0c0.3,0,0.4,0,0.6-0.1c0.3,0,0.4,0,0.6,0c0.1,0,0.1,0,0.3,0c0.1,0.1,0.3,0.3,0.4,0.1h0.1
		c0.3,0,0.5,0,0.8,0c0.1,0,0.1,0,0.3,0.1h0.1c0.3,0.1,0.4,0.1,0.6,0.1c0,0,0,0,0-0.1c0.1,0,0.1-0.1,0.3-0.1c0.1,0,0.3,0,0.3,0
		c0,0.1,0.3,0,0.3,0c0.1-0.1,0.4,0,0.5,0c0.1,0,0.3,0.1,0.3,0.1c0.1,0,0.1,0.1,0.3,0.1l0.1-0.1c0-0.1-0.1-0.3-0.3-0.3
		c-0.1,0-0.1-0.1-0.3-0.1c-0.1,0-0.1-0.1-0.3-0.1c0-0.1,0-0.4,0-0.5c0-0.1,0-0.4,0-0.5c-0.1-0.4,0-0.8,0-1.2
		c0.1-0.1,0.3-0.1,0.5-0.3c0.1,0,0.1,0,0.3,0c0,0.3,0,0.4,0,0.6c0,0.1,0,0.3,0,0.4l0.1,0.1c0.1,0,0.3,0.1,0.4,0.3
		c0.1,0,0.1,0.1,0.3,0.1c0.1,0,0.4,0.1,0.5,0c0.1,0,0.3-0.1,0.4-0.1c0.1,0,0.4,0.1,0.5,0.1c0.1,0,0.3,0.1,0.4,0.1
		c0.1,0.1,0.4,0.1,0.5,0.3c0.1,0,0.3,0.1,0.4,0.1c0.3,0.1,0.5,0,0.6,0.1c0.1,0,0.3,0,0.5-0.1c0.3,0,0.5,0,0.6-0.1c0.1,0,0.1,0,0.3,0
		c0.1,0,0.4-0.1,0.5-0.1c0.1,0,0.3-0.1,0.4-0.1c0.3,0,0.5,0.1,0.9,0c0.1,0.1,0.4,0,0.6,0c0.3,0,0.5,0,0.8-0.1c0.1,0,0.1,0,0.3-0.1
		c0.3-0.1,0.4-0.3,0.6-0.4c0.1,0,0.1-0.1,0.3-0.3C34.9,28,34.9,27.7,34.9,27.3z M32.8,21.9c0,0.6,0,1.3-0.3,1.9
		c-0.1,0.3-0.1,0.5-0.5,0.6c-0.3,0.1-0.5,0-0.8,0c0-0.1,0-0.4,0.1-0.5c0-0.5,0-0.9,0-1.4c-0.1,0-0.1,0-0.1,0.1c0,0.6,0,1.2-0.1,1.8
		c-0.1,0-0.1,0-0.3,0c0-0.3,0-0.5,0-0.8c0,0,0,0-0.1,0c0,0.3,0,0.5,0,0.8c-0.1,0-0.4,0-0.5,0.1c0-0.6,0.1-1.2,0.1-1.8
		c0-0.3,0-0.4,0-0.6c0.1-0.1,0.3-0.1,0.4-0.1c0.5-0.1,1-0.4,1.5-0.5C32.8,21.5,32.8,21.8,32.8,21.9z M32.6,17.6
		c0.1,0.6,0.3,1.4,0.3,2.2c0,0.4,0,0.8,0,1c0,0.1-0.1,0.3-0.3,0.4c-1.2,0.4-2.4,0.8-3.7,0.9c-0.3,0-0.6,0.1-0.9,0c0,0,0-0.1-0.1-0.3
		c0-0.9-0.1-1.9-0.3-2.8c0-0.3-0.1-0.4-0.1-0.6c0.9-0.1,1.9-0.3,2.8-0.5c0.3,0,0.5-0.1,0.8-0.3c0.4-0.1,0.8-0.1,1.2-0.3
		C32.5,17.4,32.6,17.4,32.6,17.6z M24.1,21.7c-0.1,0-0.4,0.1-0.5,0.1c0.1-0.8,0.1-1.5-0.1-2.3c0.1,0,0.3,0.1,0.5,0.1l0,0
		c0.3,0.1,0.5,0.3,0.6,0.5C25,20.8,24.7,21.4,24.1,21.7L24.1,21.7z M21.8,26.4c0-0.5-0.1-1-0.3-1.4c0.4,0,0.8,0,1.3,0
		c0.1,0.4,0.1,0.9,0.1,1.4c0,0.4-0.1,0.8-0.1,1.2c-0.4,0-0.8,0-1,0C21.8,27.2,21.8,26.8,21.8,26.4z M21,24.6c-0.5,0-1,0.1-1.5,0.1
		c0-0.6,0-1.2-0.1-1.8c0-0.1,0-0.4,0-0.5c1.4,0.3,3,0.1,4.4-0.3c0,0.1,0,0.1-0.1,0.3c0,0.3,0,0.4,0,0.6s0,0.4,0,0.6h0.1
		c0,0.4,0,0.6,0,1c-0.1,0-0.1,0-0.3-0.1C22.7,24.5,21.9,24.6,21,24.6z M20.4,26.3c0-0.4-0.1-0.8-0.3-1.3c0.3,0,0.5-0.1,0.8-0.1
		c0.1,0.4,0.3,0.9,0.3,1.3c0,0.4,0,0.8,0,1.3c-0.3,0-0.5,0-0.8,0C20.4,27.2,20.4,26.8,20.4,26.3z M19.9,26.8
		c-0.3-0.1-0.4-0.3-0.4-0.4c0-0.1,0-0.3,0.1-0.4c0.1,0,0.1-0.1,0.3-0.1C19.9,26.2,19.9,26.6,19.9,26.8z M6.7,24.6
		c0.1-0.3,0.4-0.5,0.6-0.8c0.3-0.1,0.6-0.1,1-0.1s0.8,0.3,1.2,0.4c0.1,0.3,0.3,0.5,0.4,0.6c-1.2,0.3-2.2,0.6-3.3,0.8
		C6.5,25.3,6.6,24.9,6.7,24.6z M6.5,24.2c-0.3,0.5-0.3,1-0.3,1.5c-0.3,0-0.4,0-0.6-0.1c-0.4-0.1-0.9-0.1-1.4-0.3
		c0-0.1,0-0.3-0.1-0.3c-0.1-0.4,0.1-0.8,0.4-1.2c0.1-0.4,0.5-0.8,0.8-1.2c0.1,0,0.1,0.1,0.3,0.3c0.5,0.3,0.8,0.4,1.2,0.6
		c0.1,0,0.3,0.1,0.3,0.3C6.7,24,6.6,24.1,6.5,24.2z M9.7,23.9c-0.4,0-0.5-0.3-0.9-0.4c-0.5-0.1-1.2-0.1-1.7,0.1
		c-0.1,0.1-0.4-0.1-0.5-0.1c-0.3-0.3-0.5-0.5-0.9-0.6c0.1-0.3,0-0.5,0.3-0.6c0.5-0.4,1.3-0.5,2.1-0.5c0.5,0,1,0.3,1.5,0.4
		c0.4,0.1,0.8,0.4,1.2,0.5c0.1,0,0.1,0.1,0.3,0.1C10.6,23.2,10.1,23.5,9.7,23.9z M8.3,21.4H8.2c-0.3,0-0.5,0-0.8-0.1
		C7.6,21,8,21,8.4,20.9c0.4-0.1,0.6-0.4,1-0.4c0.9-0.1,1.8,0,2.6,0.3c0.6,0.1,1.3,0.5,1.8,1c-0.8,0.3-1.7,0.6-2.6,0.9
		c-0.1,0-0.1,0-0.3-0.1C10.2,21.9,9.3,21.5,8.3,21.4z M13,20.5c-0.6-0.4-1.4-0.4-2.2-0.5c0-0.4,0-0.9,0-1.3c0.1,0,0.1-0.1,0.3-0.1
		c0.1,0,0.3,0,0.4,0c0.9,0.1,1.8,0.1,2.8,0.1c1.4,0.1,3,0.1,4.4,0.1c0,0.1,0,0.1,0,0.3L18.6,19c0,0.1,0,0.3,0.1,0.4
		c-0.1,0.1-0.4,0.3-0.5,0.4c-0.3,0.4-0.4,0.8-0.4,1.2c0,0.5,0.4,0.9,0.8,1.2c0,0,0.1,0,0.1,0.1c0,0.1,0,0.1,0,0.3
		c0.1,0,0.1-0.1,0.3-0.1c0,0.1,0,0.1,0,0.3c-1,0-2.1,0-3-0.1c-0.4-0.4-0.8-0.9-1.4-1C13.8,21,13.4,20.8,13,20.5z M6.6,17.4
		c-0.1-0.3-0.1-0.5,0-0.8c0.1-0.5,0.1-1,0.4-1.5c0-0.3,0.3-0.4,0.5-0.4c0.3,0,0.5,0,0.8,0c0.8,0.1,1.4,0.1,2.2,0.1
		c1.4,0.1,2.8,0.1,4.1,0.3c0.1,0.1,0.3,0.1,0.3,0.3c0,0.3-0.1,0.5-0.1,0.6c0,0.6,0,1.4-0.1,2.1c-0.1,0.3-0.4,0.3-0.6,0.3
		c-2.3-0.1-4.8-0.1-6.9-0.8C6.9,17.7,6.7,17.6,6.6,17.4L6.6,17.4L6.6,17.4z M19.1,8.8h0.1c0-0.3,0-0.5,0-0.6h0.1
		c0,0.3,0.1,0.5,0.1,0.8c-0.1,0.1-0.4,0.3-0.6,0.3c-0.5,0.1-0.9,0-1.4,0c-1.2,0-2.3,0-3.5,0c-0.3,0-0.5,0-0.8-0.1c0-0.1,0-0.1,0-0.3
		c0.1-0.5,0.5-0.9,1-1.2c0.5,0,1.2,0.1,1.7,0.1c0.3,0,0.5,0,0.8,0c0.8,0.1,1.4,0.1,2.2,0.1c0.1,0,0.4-0.1,0.4,0.1c0,0,0,0.1-0.1,0.1
		V8C19.1,8.3,19.1,8.6,19.1,8.8z M22,9.7c0-0.1-0.1-0.3-0.1-0.4h-0.1v0.1c-0.1,0-0.1-0.1-0.3-0.3c0.3,0,0.4,0,0.6,0h0.1
		c0.5,0.8,1,1.5,1.3,2.4c-1.4,0.3-2.7,0.1-4.1,0.1c-0.1,0.1-0.4,0.1-0.6,0.1c-0.6,0-1.3,0-1.9,0c-0.3,0-0.4-0.1-0.6-0.1
		c-0.1-0.1-0.1-0.3-0.1-0.4c0-0.6-0.1-1.2,0.1-1.8c1-0.1,2.2,0,3.2-0.3c0.3-0.1,0.5-0.1,0.8-0.1c0.4,0,0.9,0,1.3,0
		c0,0,0.1,0,0.1,0.1s0.1,0.3,0.1,0.3C21.8,9.3,21.9,9.7,22,9.7z M29.8,14.1c-0.1,0-0.3,0-0.4,0.1c0-0.1,0-0.3-0.3-0.3
		c0,0.1,0,0.3,0.1,0.4c-0.5,0.1-1.2,0.3-1.7,0.1c0-0.1,0-0.3-0.1-0.4c-0.1-0.6-0.5-1.3-0.8-1.9c0-0.1-0.1-0.3,0-0.3
		c0.1,0,0.3,0.1,0.4,0.1c0.4,0.5,0.8,1.2,0.9,1.8c0,0.1,0,0.1,0.1,0.1c0.5,0,1-0.1,1.5-0.3C29.6,13.8,29.8,14,29.8,14.1z M30.9,13.7
		c-0.1,0-0.1,0-0.3,0.1c0-0.1,0-0.3-0.1-0.1c0,0.1,0,0.1,0.1,0.1c-0.3,0.1-0.5,0.1-0.8,0.3c0-0.1,0-0.3-0.1-0.3
		c0.5-0.1,1-0.3,1.5-0.5C31.3,13.4,31.2,13.6,30.9,13.7c0-0.1,0-0.1-0.1-0.3C30.8,13.6,30.9,13.7,30.9,13.7z M26.9,13.4
		c0.1,0.3,0.1,0.4,0.3,0.6l0,0c0,0.1,0,0.1,0.1,0.3c-0.1,0.1-0.3,0.1-0.4,0.1c-0.9,0.1-1.9,0.3-2.8,0.3c0-0.1-0.1-0.3-0.1-0.4
		c-0.3-0.5-0.8-0.9-1.4-1.2c-0.8-0.3-1.7-0.1-2.4,0.1c0-0.4,0-0.6-0.1-1c0,0,0-0.1,0.1-0.1c0,0.1,0,0.3,0.1,0.4
		c0.1,0,0.1-0.1,0.1-0.1c0-0.1-0.1-0.3-0.3-0.4c0,0.1-0.1,0.1-0.1,0.3c0,0.4,0.1,0.8,0.1,1.2L20,13.6c0-0.4-0.1-0.9-0.3-1.3
		c0-0.1,0.1-0.1,0.3-0.3c0.1-0.1,0.4,0,0.6-0.1c1,0,1.9,0,3,0c0.1,0,0.3-0.1,0.5-0.1c0.1,0,0.3,0,0.4,0c0.8,0,1.5-0.3,2.2,0
		C26.7,12.4,26.8,12.9,26.9,13.4z M21.9,20.4c0-0.4-0.1-0.6-0.3-1c0.4,0,0.9,0,1.3,0.1c0.3,0.4,0.1,0.8,0.3,1.2c0,0.4,0,0.8-0.1,1.2
		c0,0,0,0.1-0.1,0.1c-0.4,0-0.8,0.1-1.2,0.1C21.9,21.5,21.9,20.9,21.9,20.4z M22.9,19.1c0.1-0.1,0-0.3,0.1-0.4h-0.1
		C22.8,18.8,22.8,19,22.9,19.1C22,19,21,19,20.1,19.1c-0.3,0-0.6,0.1-0.9,0.1c0-1.2-0.4-2.3-0.1-3.6c0.1-0.6,0.4-1.4,1.2-1.7
		c0.6-0.3,1.5-0.5,2.2-0.1l0,0c0.3,0,0.4,0.3,0.5,0.4c0.4,0.4,0.5,0.8,0.6,1.2c0.1,0.5,0.1,1,0.1,1.4c0,0.8,0,1.5,0,2.3
		c-0.1,0-0.1,0-0.3,0C23.3,19.1,23.1,19.1,22.9,19.1z M20.4,20.4c0-0.3-0.1-0.6-0.1-0.9c0.3,0,0.5,0,0.6,0c0.1,0.4,0.3,0.8,0.3,1.2
		c0,0.5,0,1-0.1,1.5c-0.3,0-0.5,0-0.6,0C20.5,21.5,20.5,20.9,20.4,20.4z M20,21.3c-0.5,0.1-0.8-0.5-0.5-0.9c0.1-0.1,0.4-0.1,0.5-0.3
		C20,20.6,20,20.9,20,21.3z M15.2,15.6c0-0.1,0-0.4,0.3-0.4s0.5,0,0.9,0c0.8,0,1.4,0,2.2,0c-0.1,0.4-0.1,0.8-0.1,1.2
		c0,0.5,0.1,1.2,0.1,1.7c0,0.1,0,0.4,0,0.5c-1.2,0-2.3,0-3.5-0.3c0-0.1,0-0.1,0-0.3C15.1,17.3,15.1,16.4,15.2,15.6z M16.8,14.9
		c-1.3,0-2.4,0-3.7-0.1c-0.6,0-1.3,0-1.8-0.3c-0.1,0-0.1-0.3-0.1-0.4c0-0.5,0.1-1.2,0.4-1.7c0-0.1,0.1-0.4,0.3-0.5
		c1.2,0.1,2.2,0.1,3.3,0.1c0.4,0,0.6-0.1,1-0.1c0.9,0.1,1.7,0,2.6,0c0.1,0,0.3,0,0.4,0c0.1,0.5,0.1,1,0.3,1.7
		c-0.1,0.1-0.4,0.4-0.5,0.5v0.1c0,0.1-0.1,0.3-0.1,0.4C18.1,14.9,17.4,14.9,16.8,14.9z M26.3,11.5c-0.1,0-0.3-0.1-0.4-0.1
		c-0.6,0-1.3,0.1-1.9,0.1c-0.3,0-0.3-0.3-0.3-0.4c-0.3-0.5-0.5-0.9-0.6-1.4c-0.1,0-0.1-0.1-0.3-0.3c-0.1-0.1-0.1-0.1-0.3-0.3
		c0.5,0,1-0.1,1.5-0.3c0.1,0,0.3,0.1,0.4,0.3c0.8,0.6,1.4,1.3,1.9,2.1C26.5,11.4,26.4,11.5,26.3,11.5z M15.1,9.6c0.3,0,0.5,0,0.6,0
		c-0.1,0.8,0,1.4,0,2.2c-0.4,0.1-0.8,0.1-1.2,0.1c-1.4,0-3-0.1-4.5-0.3c-0.4,0-0.8-0.1-1-0.3c0-0.1,0.1-0.3,0.1-0.3l0,0
		c0.4-0.6,0.8-1.3,1.4-1.9c0.6,0,1.4,0.1,2.2,0.1C13.6,9.5,14.3,9.6,15.1,9.6z M9.1,10.4c-0.1,0.3-0.3,0.5-0.5,0.9
		c-0.1,0.1-0.4,0.1-0.5,0c-0.9-0.1-1.7-0.4-2.4-0.8c0-0.1,0.1-0.1,0.1-0.3C6,9.8,6.5,9.6,6.9,9.3c0.5-0.3,0.9-0.6,1.4-0.8
		c0.5,0.1,1,0.3,1.5,0.4c0.1,0,0.1,0,0.3,0C9.7,9.5,9.4,9.8,9.1,10.4z M6.6,11.3c1.4,0.4,3,0.6,4.4,0.8c0.1,0,0.1,0.1,0.3,0.1
		c-0.3,0.6-0.4,1.2-0.5,1.8c0,0.1,0.1,0.5-0.1,0.5c-0.8,0.1-1.7,0-2.4-0.1c-1-0.1-1.9-0.3-2.8-0.5c-0.1,0-0.1-0.1-0.1-0.3
		c0-0.4,0.1-0.8,0.4-1.2c0.3-0.4,0.5-0.8,0.8-1C6.5,11.4,6.6,11.3,6.6,11.3z M18.7,21.8c-0.5-0.4-0.5-0.9-0.3-1.4
		c0.3-0.4,0.8-0.8,1.4-0.9c0,0.1,0,0.3,0.1,0.3v0.1c-0.3,0.1-0.5,0.1-0.8,0.4c-0.3,0.3-0.3,0.6-0.1,0.9c0.3,0.3,0.5,0.4,0.9,0.4
		c0,0.1,0,0.1,0,0.3v0.1C19.5,22.1,19,21.9,18.7,21.8z M24.4,22.1c0.5-0.3,0.8-0.6,0.9-1c0.1-0.5-0.1-1.2-0.6-1.5
		c-0.1-0.1-0.3-0.1-0.3-0.3c0-0.3,0-0.4,0-0.6c0.9-0.1,1.8-0.3,2.7-0.3c0.1,0.4,0.3,0.9,0.3,1.4c0,0.8,0.1,1.5,0.1,2.3
		c0,0.1-0.1,0.1-0.3,0.1c-1,0.1-1.9,0.1-3,0.1C24.4,22.3,24.4,22.2,24.4,22.1z M26.5,18.2c-0.6,0.1-1.4,0.1-2.1,0.1
		c0-0.1,0-0.3,0-0.5c0-0.8,0-1.5-0.1-2.3c0,0,0.1,0,0.1-0.1c0,0.1,0,0.3,0,0.3s0.1,0,0.1,0.1c0-0.1,0-0.3,0-0.4c-0.1,0-0.1,0-0.3,0
		c0-0.1,0-0.1-0.1-0.3c1.4-0.1,2.7-0.3,4.1-0.4c0.4,0,0.8-0.1,1.2-0.3c0.1,0,0.4,0.1,0.4,0.3c0.4,0.9,0.8,1.9,0.5,2.8
		C29.1,17.8,27.8,17.9,26.5,18.2z M32.1,15.2c0.1,0.4,0.3,0.9,0.4,1.3c0,0.1,0,0.3,0,0.4c-0.1,0.1-0.3,0.1-0.4,0.3c0,0,0,0,0-0.1
		c0,0.1-0.1,0.1-0.3,0.1c-0.3,0-0.5,0.1-0.8,0.1c0-0.1,0-0.3-0.1-0.4c-0.3-0.9-0.4-1.8-0.8-2.7c0.4-0.1,0.8-0.3,1.2-0.4
		c0.1,0,0.3-0.1,0.3,0C31.7,14.3,31.8,14.9,32.1,15.2z M26.4,7.8C26.4,7.8,26.5,7.9,26.4,7.8L26.4,7.8c0,0.1,0,0.1,0,0.3
		c0.1,0,0.3-0.1,0.4-0.1C26.8,7.8,26.7,7.8,26.4,7.8c0.1,0,0.1,0,0.1,0c0.6-0.1,1.4,0,2.1,0c0.8,0.1,1.7,0.3,2.2,0.8
		c0.8,0.8,1.2,1.8,0.9,2.7c-0.3,0.6-0.6,1.2-1.2,1.7c0,0.1-0.1,0.1-0.3,0.1c-0.6,0.1-1.2,0.4-1.8,0.4c0.5-0.4,0.9-0.8,1.3-1.3
		c0.3-0.3,0.5-0.5,0.5-0.9l0,0c0.1-0.6,0.1-1.3-0.1-1.9c-0.3-0.5-0.6-1-1.3-1.4h-0.1c0.6,0.6,1.2,1.4,1,2.3c0,0.4,0,0.8-0.1,1.2
		c0,0.1-0.1,0.3-0.3,0.5c-0.3,0.4-0.6,0.6-0.9,1c-0.1,0.1-0.3,0.1-0.4,0.3c-0.9-1.7-2.3-3.1-3.7-4.4C25.1,8.3,25.6,8,26.4,7.8z
		 M25.3,7.5c0,0-0.1,0-0.3,0c0,0.1,0.1,0.1,0.3,0.1C25.3,7.7,25.3,7.5,25.3,7.5c0.1,0,0.1,0.1,0.3,0.1c-0.1,0-0.3,0.1-0.4,0.1
		c-0.1,0-0.1-0.1-0.3-0.1c0,0,0-0.1,0.1-0.1c-0.1-0.1-0.3-0.3-0.5-0.4c0.1,0.1,0.1,0.1,0.3,0.3C24.5,7.3,24.2,7.1,24,7
		c-0.1,0-0.1-0.1-0.3-0.1C24.4,7,24.7,7.3,25.3,7.5z M23.6,7.3C24,7.5,24.5,7.7,24.9,8c-0.3,0.1-0.5,0.3-0.6,0.5
		c-0.1,0-0.1,0.1-0.3,0.1c-1.2,0.3-2.4,0.4-3.6,0.4c-0.1,0-0.4,0-0.5-0.1c-0.1-0.4-0.3-0.8-0.1-1.2c0.4-0.1,0.8-0.1,1-0.1
		c0.6-0.1,1.3-0.1,1.9-0.3c0.3-0.1,0.4-0.1,0.6-0.3C23.5,7.1,23.6,7.1,23.6,7.3z M21.1,6.4c0.6,0.1,1.4,0.3,2.1,0.5
		c-0.5,0.3-1.2,0.5-1.8,0.3c-0.4-0.1-0.8-0.4-1-0.5C20.6,6.5,20.8,6.2,21.1,6.4z M21.1,7.4c-0.9,0.1-1.9,0.3-2.8,0.3
		c-0.3,0-0.6,0-0.9-0.1c-0.1,0-0.3-0.1-0.3-0.1l0,0c0-0.3,0.1-0.5,0.4-0.6c0.6,0,1.2,0,1.8-0.1c0.1,0,0.4,0,0.5,0
		C20.2,6.9,20.6,7.1,21.1,7.4z M16.9,6.1c0.4,0,0.8,0,1.2,0c0.8,0,1.4,0,2.2,0.1c-0.1,0.1-0.3,0.1-0.4,0.1c-0.1,0-0.3,0.1-0.4,0.1
		c-0.9,0.1-1.7,0.1-2.6,0.1c-0.5,0.1-1,0-1.5-0.1C15.7,6.1,16.4,6.1,16.9,6.1z M15,6.5c0.5,0.1,1,0.3,1.5,0.3c0.1,0,0.3,0,0.4,0
		c-0.1,0.3-0.1,0.5-0.4,0.6c-0.9,0.1-1.8,0-2.6-0.1c-0.1,0-0.3,0-0.3-0.1S13.8,7,13.9,7C14.2,6.9,14.6,6.6,15,6.5z M13.9,6.5
		c0.3,0,0.5-0.1,0.8-0.1c-0.5,0.3-1,0.4-1.5,0.6c-0.3,0-0.5,0-0.8,0C12.9,6.8,13.4,6.6,13.9,6.5z M11.5,7.3h0.1H11.5
		c0.1,0.1,0.1,0.3,0.3,0.1C11.8,7.3,11.6,7.3,11.5,7.3c0.5-0.1,0.8,0.1,1.2,0.1c0.3,0,0.4,0.1,0.6,0.1c0.1,0,0.3,0.1,0.3,0.3
		c-0.3,0.4-0.6,0.8-0.8,1.2c-0.1,0-0.3,0.1-0.5,0.1c-1.2-0.3-2.4-0.3-3.5-0.6c0.1-0.1,0.1-0.1,0.3-0.1c0.5-0.4,1-0.6,1.5-0.8
		C11,7.4,11.2,7.3,11.5,7.3z M9.1,6.1c0.5,0.1,1,0.3,1.5,0.5v0.1c-0.1,0-0.3,0-0.3,0c-0.3-0.1-0.5-0.3-0.8-0.4v0.1
		c0.1,0.1,0.4,0.1,0.6,0.3c0.1,0,0.1,0.1,0.3,0.1c0-0.1,0-0.1,0-0.3c0.1,0,0.1,0.1,0.3,0.1V6.6c0,0,0,0,0.1,0
		c0.1,0.1,0.3,0.1,0.4,0.3C10.7,7,10.3,7.1,10,7.3C9.6,7,9.3,6.8,8.9,6.6c0,0,0.1,0,0.1-0.1c0.1,0.1,0.3,0.1,0.4,0.1
		c0-0.1-0.3-0.3-0.4-0.3c0,0,0,0,0-0.1c0.3-0.1,0-0.1-0.1-0.3v0.1c0.3,0,0.1,0.3,0,0.3c-0.6,0-1.2-0.1-1.8-0.1C7.6,6,8.4,6,9.1,6.1z
		 M4.8,8c0.1-0.4,0.4-0.6,0.6-0.9c0.4-0.5,1-0.8,1.7-0.9v0.1c0.3,0,0.5,0,0.8,0.1c0.4,0.1,0.8,0.4,1,0.6c0.1,0.1,0.3,0.3,0.4,0.4
		C9.1,7.7,8.8,7.9,8.5,8C8.4,8.2,8.2,8,8,8.2C7.6,8.3,7.3,8.6,6.9,8.8c-0.6,0.4-1.2,0.9-1.7,1.4C4.9,9.5,4.7,8.8,4.8,8z M3.8,12.3
		c0.4-0.4,0.6-0.9,1.2-1.3c0.1-0.1,0.3-0.1,0.4-0.3c0.3,0.1,0.5,0.3,0.9,0.4c-0.6,0.8-1,1.5-1.3,2.4c0,0.1,0,0.3-0.3,0.1
		c-0.5-0.1-0.9-0.3-1.4-0.5C3.4,12.9,3.7,12.5,3.8,12.3z M2.8,13.8c0.1-0.1,0.3-0.3,0.4-0.4c0.9,0.4,2.1,0.6,3.1,0.9
		c0.1,0,0.1,0.1,0.3,0.1c0.1,0.1,0.3,0.3,0.1,0.4c-0.3,0.6-0.4,1.3-0.4,2.1c0,0.3,0,0.5-0.3,0.6c-0.3,0.1-0.5,0-0.8,0
		c-0.8-0.3-1.5-0.4-2.3-0.6c-0.4-0.1-0.6-0.3-0.9-0.4c-0.1-0.1-0.1-0.3-0.1-0.4C2,15.4,2.4,14.6,2.8,13.8z M1.7,17.4
		c0-0.1,0.1-0.4,0.1-0.5c0.3,0.1,0.5,0.3,0.9,0.4c0,0.1-0.1,0.3-0.1,0.4l0,0c-0.1,0.3-0.1,0.5-0.1,0.8c-0.1,0.3-0.1,0.6-0.1,1
		c0,0.4,0,0.8,0.1,1.3c-0.3,0-0.5-0.1-0.8-0.4C1.5,19.4,1.6,18.5,1.7,17.4z M3.1,21.5c0,0.3-0.1,0.5-0.1,0.8c0,0.5,0.1,1,0,1.5
		c0,0.5,0,0.9,0,1.4v0.1c-0.4-0.1-0.8-0.3-1-0.5c-0.1,0-0.4-0.1-0.5-0.3c-0.1-0.6-0.3-1.4-0.1-2.1c0-0.5,0-1.2,0.1-1.7
		C1.7,21,2,21.2,2.2,21.2c0.1,0,0.4,0,0.5,0C2.9,21.2,3.1,21.3,3.1,21.5z M2.9,20.8c-0.3,0-0.1-0.3-0.3-0.4
		c-0.1-0.9-0.1-1.8,0.1-2.7c0-0.1,0.1-0.4,0.4-0.4c2.1,0.4,4,0.8,6,1.2c0.3,0,0.5,0.1,0.9,0.1c0.1,0,0.4,0,0.4,0.3
		c0,0.4,0,0.8,0,1.2c-0.1,0-0.4,0-0.5,0c-0.1,0-0.3,0-0.4,0c0,0-0.1,0-0.1-0.1h0.1l-0.1-0.1c0,0.1,0,0.1,0.1,0.3
		c-0.3,0-0.5,0.1-0.9,0.3c-0.5,0.1-1,0.4-1.5,0.5c0-0.1,0.1-0.3,0-0.3C7,20.5,7,20.6,7,20.6h0.1v0.1c-0.1,0-0.3,0.1-0.4,0.1v-0.1
		H6.6l0,0c0,0,0,0.1,0.1,0.1C6.6,21,6.5,21,6.4,21.2c0-0.1,0-0.1-0.1-0.1c-0.1,0.1,0,0.3,0,0.4C5.2,21.3,4,21.2,2.9,20.8z M3.7,25.5
		c-0.1-0.1-0.3-0.3-0.3-0.4c0-0.8,0-1.5,0-2.3c0-0.3,0-0.6,0-0.9s0.3-0.4,0.5-0.4c0.5-0.1,1,0,1.5,0c0.1,0,0.3,0,0.4,0
		c-0.4,0.3-0.5,0.5-0.6,0.9c-0.4,0.1-0.6,0.5-0.8,0.8c-0.3,0.5-0.5,1-0.6,1.7C3.8,25.1,3.9,25.4,3.7,25.5z M6.2,28.1
		C6,28,5.7,28,5.6,27.8C5.3,27.7,5.2,28,5.1,28c-0.3,0-0.6-0.1-0.9-0.1c-0.1,0-0.3-0.3-0.1-0.3c-0.1-0.5,0-1,0-1.7
		c0-0.1,0-0.3,0.1-0.3c0.3,0,0.5,0,0.8,0c0.3,0,0.6,0.1,0.9,0.1c0.1,0,0.4,0,0.6,0.1C6.2,26.7,6.1,27.5,6.2,28.1z M9.6,27.1
		c-0.1,0-0.3,0-0.4,0.1c-0.5,0.3-1.2,0.4-1.7,0.6c-0.3,0.3-0.6,0.4-1,0.4c0-0.6-0.1-1.3,0-2.1c0-0.1,0-0.3,0.1-0.4
		c0.5-0.1,0.9-0.3,1.4-0.4c0.4-0.1,0.8-0.1,1.2-0.3c0.3-0.1,0.5-0.1,0.9-0.3c0,0.4,0,0.8,0.1,1.2c0,0.1,0.1,0.4,0.1,0.5
		C10,26.9,9.8,26.9,9.6,27.1z M10.2,24.8c-0.1-0.3-0.3-0.4-0.4-0.6C9.8,24,10,24,10,23.9c0.4-0.4,0.8-0.6,1.2-0.9
		c0.8,0.4,1.2,1.2,1.4,1.9c0.1,0.3,0.3,0.6,0.4,1c0,0.1,0,0.3,0,0.4c-0.5,0-0.9,0-1.4,0c-0.4,0-0.6-0.1-1-0.1
		C10.5,25.5,10.5,25.1,10.2,24.8z M13.6,28.9c0,0.1-0.1,0.3-0.1,0.4c-0.3,0-0.5,0.1-0.8,0.1c-0.1,0-0.4,0-0.5,0
		c-0.5,0-0.9-0.1-1.3-0.3c-0.1-0.1-0.3-0.1-0.3-0.3c0-0.1,0-0.3,0-0.5c0-0.5-0.1-1,0-1.7c0-0.1,0.1-0.3,0.3-0.4c0,0,0.1,0,0.3,0
		c0.6,0,1.4,0,2.1,0c0.1,0,0.4,0.1,0.4,0.3c0.1,0.4,0.1,0.9,0.1,1.3C13.6,28.4,13.6,28.6,13.6,28.9z M13.6,26
		c-0.1-1-0.8-1.9-1.4-2.8c-0.1-0.1-0.4-0.3-0.5-0.5c0.9-0.3,1.5-0.6,2.4-0.9c0.4,0,0.6,0.1,0.9,0.4c0.6,0.6,1.2,1.3,1.3,2.1
		c0,0.1,0,0.4-0.1,0.5c-0.5,0.1-0.8,0.5-1.3,0.6C14.3,25.5,13.9,25.9,13.6,26z M16.8,26.2c0,0.4,0,0.8-0.1,1.2
		c-0.3,0.1-0.4,0.4-0.6,0.5c-0.1,0.1-0.4,0.1-0.6,0.3c-0.1,0.1-0.1,0.3-0.3,0.4c-0.3-0.1-0.5,0.1-0.6,0.4c-0.1,0.1-0.3,0.4-0.3,0.5
		c-0.1,0-0.1,0-0.3,0c0-0.6,0-1.3-0.1-1.9c0-0.4-0.1-0.6,0-1c0.1-0.3,0.3-0.4,0.5-0.5c0.6-0.4,1.2-0.8,1.9-1c0.3,0,0.3,0.3,0.4,0.4
		C16.6,25.7,16.8,25.9,16.8,26.2z M17.8,27.5c0-0.3,0-0.6,0-0.9l0,0c-0.1-0.4-0.1-0.9-0.4-1.3h-0.1c0,0.3,0.1,0.6,0.3,0.9
		c0.1,0.4,0,0.9,0,1.3c-0.1,0-0.1,0-0.3-0.1c0.1-0.4,0-0.6,0-1c0-0.5,0-0.9-0.3-1.4c-0.1-0.1-0.3-0.3-0.3-0.5
		c-0.1-0.5-0.4-1.2-0.6-1.5c0.9,0,1.8,0,2.7,0c0,0.6,0,1.4,0.1,2.1c-0.4,0.3-0.8,0.6-0.9,1.2c0,0.1,0,0.3-0.1,0.4
		c0,0.3,0,0.4,0.1,0.6h0.1c0.1,0.1,0.3,0.3,0.3,0.4C18.2,27.5,17.9,27.5,17.8,27.5z M18.7,27.1c-0.3-0.3-0.3-0.8-0.1-1.2
		c0.1-0.3,0.4-0.4,0.6-0.6c0.1,0,0.3-0.1,0.4-0.1c0,0.1,0,0.1,0.1,0.3c-0.3,0.1-0.5,0.3-0.6,0.5c-0.3,0.5,0.3,1,0.8,1.2
		c0,0.1,0,0.1,0,0.3v0.1c-0.1,0-0.3-0.1-0.4-0.1C19.2,27.3,19,27.2,18.7,27.1z M23.6,29.6c-0.1,0-0.4,0-0.5,0
		c-0.1,0-0.1,0.1-0.3,0.1c-0.5-0.3-1-0.3-1.5-0.1c-0.1,0-0.1,0-0.3,0c-0.4-0.1-0.8-0.1-1.2,0c-0.1,0-0.3,0-0.5,0
		c0.1-0.6,0-1.2,0.1-1.8c1.2,0.3,2.3,0.3,3.3,0.1c0.4,0,0.8-0.1,1.2-0.1c0.1,0.6,0.1,1.3,0.3,1.9C24,29.8,23.7,29.8,23.6,29.6z
		 M24.5,26.4c0,0.3-0.1,0.4-0.3,0.6l0,0c-0.3,0.3-0.5,0.4-0.8,0.4c0.1-0.5,0.1-1,0-1.4c0-0.4,0-0.6-0.1-1c0.3,0.1,0.6,0.3,0.8,0.4
		C24.4,25.8,24.5,26,24.5,26.4z M25.4,25.4c0,0.1-0.1,0.3-0.1,0.4c0,0.3-0.1,0.5-0.1,0.8c0,0-0.1,0-0.3,0c0-0.1,0.1-0.3,0.1-0.4
		c0-0.1-0.1-0.3-0.1-0.4c-0.1-0.3-0.1-0.5-0.1-0.8c0-0.1,0.1-0.3,0-0.4c-0.1,0-0.1,0.1-0.1,0.3c0,0.1,0,0.3,0,0.4l-0.1-0.1
		c0-0.1,0-0.1,0-0.3h-0.1c0-0.6-0.1-1.2,0-1.8c0-0.1,0.1-0.3,0.3-0.4c0.1-0.1,0.3,0,0.4,0c0.6,0,1.3,0,1.9-0.1
		c0.4-0.1,0.8-0.1,1.2-0.1c0.5,0,1-0.3,1.5-0.1c0.1,0,0.4,0,0.3,0.3c0,0.8-0.1,1.4-0.1,2.2c-0.5,0.1-0.9,0.1-1.4,0.1
		c0-0.1,0-0.1,0-0.3c0-0.4,0-0.6,0-1h-0.1c0,0.4,0,0.8,0,1.2v0.1c0-0.3,0-0.5,0-0.8c0-0.1,0-0.1-0.1-0.1c0,0.1,0,0.3,0,0.5
		c0,0.1,0,0.3,0,0.4H28v-0.1v-0.1c0,0,0,0-0.1,0c0,0.1,0,0.3,0,0.3s0,0,0-0.1c0-0.1,0-0.3-0.1-0.3c0,0.1,0,0.3,0,0.3
		c-0.1,0-0.1,0-0.3,0c0-0.1,0-0.3-0.1-0.3c0,0.1,0,0.1,0,0.3l0,0l0,0c-0.5,0.1-0.9,0.1-1.4,0.3C25.8,25.3,25.5,25.3,25.4,25.4z
		 M28.9,29c-0.5-0.1-0.9-0.4-1.3-0.5c-0.3-0.1-0.6-0.1-1-0.3c-0.3,0-0.5,0.1-0.8,0c-0.1-0.1,0-0.3,0-0.4c0.3-0.6,0.1-1.3,0.3-2.1
		c0.8,0.1,1.5,0.3,2.3,0.4c0,0,0,0,0,0.1c-0.1,0.1-0.1,0.3,0,0.4c0-0.1,0-0.3,0.1-0.3h-0.1c0,0,0.1,0,0.1-0.1c0.3,0,0.5,0.1,0.8,0.1
		C29.1,27.3,29,28.1,28.9,29z M29,26c-0.8-0.1-1.7-0.3-2.4-0.4c1.2-0.1,2.4-0.4,3.6-0.5c0.4,0,0.8-0.1,1.3-0.1
		c0.4,0,0.8,0.1,1.2,0.3c0.3,0,0.6,0.1,0.9,0.3c-0.4,0.1-0.9,0.1-1.3,0.1c0,0,0,0-0.1-0.1h0.1c-0.1,0-0.3-0.1-0.3,0l0,0h0.1v0.1
		c-0.4,0-0.8,0.1-1.2,0.1c-0.1,0-0.3-0.1-0.4-0.1c0,0,0,0.1-0.1,0.1c0.1,0,0.1,0,0.3,0.1C30.3,26,29.9,26,29.5,26
		C29.4,26.2,29.1,26.2,29,26z M34.3,28.2c-0.3,0-0.5,0.3-0.8,0.4c-0.4,0-0.6,0.1-1,0.1c-0.3,0-0.5-0.3-0.9-0.1
		c-0.5,0-0.9,0.4-1.4,0.4c-0.3,0-0.6,0.1-0.9,0.1c0-0.9,0.3-1.8,0.4-2.7c1.4-0.3,3-0.4,4.4-0.6c0.1,0,0.3,0,0.3,0.1
		C34.4,26.7,34.3,27.5,34.3,28.2z"/>
</g>
</svg>
