<?xml version="1.0" encoding="utf-8"?>
<!-- Generator: Adobe Illustrator 25.3.1, SVG Export Plug-In . SVG Version: 6.00 Build 0)  -->
<svg version="1.1" id="Capa_1" xmlns="http://www.w3.org/2000/svg" xmlns:xlink="http://www.w3.org/1999/xlink" x="0px" y="0px"
	 width="26.9px" height="27.9px" viewBox="0 0 26.9 27.9" style="enable-background:new 0 0 26.9 27.9;" xml:space="preserve">
<style type="text/css">
	.st0{fill:#7134BF;}
	.st1{fill:#FFFFFF;}
	.st2{fill:#01D2D7;}
</style>
<g>
	<path d="M5.9,24.4c-1.5,0-2.7-1.2-2.7-2.7V7.2c0-1,1-1.6,1.9-1.6h3c0.3,0,0.4,0.2,0.4,0.4v15.6C8.5,23.2,7.3,24.4,5.9,24.4z
		 M5.1,6.6c-0.4,0-1,0.1-1,0.7v14.5c0,1,0.8,1.8,1.8,1.8c1,0,1.8-0.8,1.8-1.8V6.6H5.1z"/>
	<path d="M14.8,10.1h-4.5c-0.3,0-0.4-0.2-0.4-0.4s0.2-0.4,0.4-0.4h4.5c0.3,0,0.4,0.2,0.4,0.4C15.2,9.9,15,10.1,14.8,10.1z"/>
	<path d="M14.8,7.4h-4.5c-0.3,0-0.4-0.2-0.4-0.4s0.2-0.4,0.4-0.4h4.5c0.3,0,0.4,0.2,0.4,0.4C15.2,7.3,15,7.4,14.8,7.4z"/>
	<path d="M21.9,7.4h-4.5C17.2,7.4,17,7.2,17,7s0.2-0.4,0.4-0.4h4.5c0.3,0,0.4,0.2,0.4,0.4C22.4,7.3,22.2,7.4,21.9,7.4z"/>
	<path d="M14.8,12.8h-4.5c-0.3,0-0.4-0.2-0.4-0.4c0-0.3,0.2-0.4,0.4-0.4h4.5c0.3,0,0.4,0.2,0.4,0.4C15.2,12.6,15,12.8,14.8,12.8z"/>
	<path d="M14.8,15.5h-4.5c-0.3,0-0.4-0.2-0.4-0.4c0-0.3,0.2-0.4,0.4-0.4h4.5c0.3,0,0.4,0.2,0.4,0.4S15,15.5,14.8,15.5z"/>
	<path d="M22.4,15.5H17c-0.3,0-0.4-0.2-0.4-0.4V9.7c0-0.3,0.2-0.4,0.4-0.4h5.4c0.3,0,0.4,0.2,0.4,0.4V15
		C22.8,15.3,22.6,15.5,22.4,15.5z M17.5,14.6h4.5v-4.5h-4.5V14.6z"/>
	<path d="M14.8,18.2h-4.5c-0.3,0-0.4-0.2-0.4-0.4s0.2-0.4,0.4-0.4h4.5c0.3,0,0.4,0.2,0.4,0.4C15.2,18,15,18.2,14.8,18.2z"/>
	<path d="M21.9,18.2h-4.5c-0.3,0-0.4-0.2-0.4-0.4s0.2-0.4,0.4-0.4h4.5c0.3,0,0.4,0.2,0.4,0.4C22.4,18,22.2,18.2,21.9,18.2z"/>
	<path d="M14.8,20.8h-4.5c-0.3,0-0.4-0.2-0.4-0.4s0.2-0.4,0.4-0.4h4.5c0.3,0,0.4,0.2,0.4,0.4S15,20.8,14.8,20.8z"/>
	<path d="M21.9,20.8h-4.5c-0.3,0-0.4-0.2-0.4-0.4s0.2-0.4,0.4-0.4h4.5c0.3,0,0.4,0.2,0.4,0.4S22.2,20.8,21.9,20.8z"/>
	<path d="M23,24.4H5.9c-0.3,0-0.4-0.2-0.4-0.4c0-0.3,0.2-0.4,0.4-0.4H23c0.4,0,0.8-0.6,0.8-1.1V4.5c0-0.3-0.1-0.7-0.8-0.7H9.6
		c-0.4,0-1,0.2-1,0.7v17.2c0,0.3-0.2,0.4-0.4,0.4S7.6,22,7.6,21.7V4.5c0-1,1-1.6,1.9-1.6H23c1,0,1.7,0.6,1.7,1.6v17.9
		C24.6,23.4,24,24.4,23,24.4z"/>
</g>
<g>
	<polygon class="st0" points="-521.8,300.3 -567.8,300.1 -578.3,327 -568.8,336.7 -525.5,337 -515.4,306.8 	"/>
	<path d="M-547.8,343.4C-547.8,343.4-547.8,343.4-547.8,343.4l-19.6-0.1c-0.2,0-0.3-0.1-0.4-0.2l-9.6-9.7c-0.2-0.2-0.2-0.4-0.1-0.7
		l10.5-27c0.1-0.2,0.3-0.4,0.6-0.4c0,0,0,0,0,0l44,0.2c0.4,0,0.6,0.3,0.6,0.6c0,0.4-0.3,0.6-0.6,0.6c0,0,0,0,0,0l-43.5-0.2
		l-10.2,26.2l9.1,9.2l19.3,0.1c0.4,0,0.6,0.3,0.6,0.6C-547.2,343.1-547.5,343.4-547.8,343.4z"/>
	<path d="M-520.4,332.6c-0.1,0-0.1,0-0.2,0c-0.3-0.1-0.5-0.5-0.4-0.8l3.8-11.4c0.1-0.3,0.5-0.5,0.8-0.4c0.3,0.1,0.5,0.5,0.4,0.8
		l-3.8,11.4C-519.9,332.4-520.1,332.6-520.4,332.6z"/>
	<g>
		<g>
			<path d="M-539.4,333.5l-2.6,0.4c-1.2,0.2-2,1.2-1.8,2.4l0.4,3.4c0.2,1.2,1.2,2,2.4,1.8l2.6-0.4c0.6-0.1,1.3,0,1.9,0.1l9.1,2.3
				l-2-15.2l-8.1,4.6C-538.2,333.2-538.8,333.4-539.4,333.5z"/>
			<path d="M-526.7,344.3l-10-2.5c-0.5-0.1-1.1-0.2-1.6-0.1l-2.6,0.4c-0.7,0.1-1.5-0.1-2-0.5c-0.6-0.4-1-1.1-1.1-1.8l-0.4-3.4
				c-0.2-1.5,0.9-2.9,2.4-3.1l2.6-0.4c0.6-0.1,1.1-0.2,1.6-0.5l9-5L-526.7,344.3z M-537.7,340.4c0.5,0,0.9,0.1,1.4,0.2l8.1,2.1
				l-1.8-13.3l-7.3,4.1c-0.6,0.4-1.3,0.6-2,0.7l-2.6,0.4c-0.8,0.1-1.4,0.9-1.3,1.7l0.4,3.4c0.1,0.8,0.9,1.4,1.7,1.3l2.6-0.4
				C-538.2,340.4-538,340.4-537.7,340.4z"/>
		</g>
		<g>
			<path d="M-543.9,336l-0.6,0.1c-0.7,0.1-1.2,0.7-1.1,1.4l0.2,1.3c0.1,0.7,0.7,1.2,1.4,1.1l0.6-0.1L-543.9,336z"/>
			<path d="M-544.2,340.5c-0.4,0-0.8-0.1-1.2-0.4c-0.4-0.3-0.7-0.8-0.7-1.3l-0.2-1.3c-0.1-1,0.6-2,1.6-2.1l1.3-0.2l0.7,5.1l-1.3,0.2
				C-544,340.5-544.1,340.5-544.2,340.5z M-544.4,336.7c-0.3,0-0.6,0.4-0.5,0.7l0.2,1.3c0,0.2,0.1,0.3,0.2,0.4
				c0.1,0.1,0.3,0.1,0.5,0.1L-544.4,336.7z"/>
		</g>
		<g>
			<path class="st1" d="M-541.2,341.4l0.5,3.8c0.1,1,1.1,1.8,2.1,1.6l0,0c1-0.1,1.8-1.1,1.6-2.1l-0.5-3.8L-541.2,341.4z"/>
			<path d="M-538.8,347.5c-0.6,0-1.1-0.2-1.5-0.5c-0.5-0.4-0.9-1-1-1.7l-0.6-4.4l5.1-0.7l0.6,4.4c0.1,0.7-0.1,1.3-0.5,1.9
				c-0.4,0.5-1,0.9-1.7,1C-538.6,347.5-538.7,347.5-538.8,347.5z M-540.5,342l0.4,3.2c0,0.3,0.2,0.6,0.5,0.8
				c0.3,0.2,0.6,0.3,0.9,0.3c0.3,0,0.6-0.2,0.8-0.5c0.2-0.3,0.3-0.6,0.3-0.9l-0.4-3.2L-540.5,342z"/>
		</g>
		<g>
			<g>
				<path class="st2" d="M-538,337.2c-0.2-1.5-0.1-2.9,0.1-4.1c-0.5,0.2-1,0.4-1.6,0.5l-2.6,0.4c-1.2,0.2-2,1.2-1.8,2.4l0.4,3.4
					c0.2,1.2,1.2,2,2.4,1.8l2.6-0.4c0.5-0.1,1.1,0,1.6,0.1C-537.3,340-537.8,338.6-538,337.2z"/>
				<path d="M-541.3,342.1c-0.6,0-1.2-0.2-1.7-0.6c-0.6-0.4-1-1.1-1.1-1.8l-0.4-3.4c-0.2-1.5,0.9-2.9,2.4-3.1l2.6-0.4
					c0.5-0.1,0.9-0.2,1.4-0.4l1.2-0.6l-0.3,1.3c-0.2,1.2-0.3,2.6-0.1,3.9l0,0c0.2,1.4,0.6,2.7,1.1,3.8l0.6,1.2l-1.3-0.3
					c-0.5-0.1-1-0.1-1.4-0.1l-2.6,0.4C-541.1,342.1-541.2,342.1-541.3,342.1z M-538.6,334c-0.2,0.1-0.5,0.1-0.7,0.1l-2.6,0.4
					c-0.8,0.1-1.4,0.9-1.3,1.7l0.4,3.4c0.1,0.4,0.3,0.7,0.6,1c0.3,0.2,0.7,0.3,1.1,0.3l2.6-0.4c0.2,0,0.5,0,0.7,0
					c-0.4-1-0.6-2-0.8-3.2C-538.7,336.1-538.8,335-538.6,334z"/>
			</g>
		</g>
		<g>
			
				<ellipse transform="matrix(0.9912 -0.1321 0.1321 0.9912 -48.9991 -66.8282)" class="st1" cx="-528.1" cy="335.8" rx="4.5" ry="8.3"/>
			<path d="M-527.4,344.7c-2.7,0-5.3-3.5-5.9-8.2c-0.3-2.3-0.1-4.5,0.6-6.3c0.7-1.9,1.9-3,3.4-3.2c2.9-0.4,5.6,3.2,6.3,8.2l0,0
				c0.3,2.3,0.1,4.5-0.6,6.3c-0.7,1.9-1.9,3-3.4,3.2C-527.1,344.7-527.2,344.7-527.4,344.7z M-528.9,328.2c-0.1,0-0.2,0-0.3,0
				c-1,0.1-1.8,1-2.4,2.4c-0.6,1.6-0.8,3.6-0.5,5.7c0.5,4.1,2.8,7.3,4.9,7.1c1-0.1,1.8-1,2.4-2.4c0.6-1.6,0.8-3.6,0.5-5.7l0,0
				C-524.8,331.4-526.9,328.2-528.9,328.2z"/>
		</g>
		<g>
			<path d="M-525.7,335.5c0.4,3-0.4,5.6-1.7,5.8c-1.3,0.2-2.7-2.1-3.1-5.2c-0.4-3,0.4-5.6,1.7-5.8
				C-527.5,330.2-526.1,332.5-525.7,335.5z"/>
			<path d="M-527.5,342c-0.8,0-1.6-0.6-2.3-1.7c-0.6-1-1.1-2.5-1.3-4c-0.5-3.5,0.5-6.3,2.2-6.5c0.9-0.1,1.8,0.5,2.5,1.7
				c0.6,1,1.1,2.5,1.3,4l0,0c0.5,3.5-0.5,6.3-2.2,6.5C-527.4,342-527.5,342-527.5,342z M-528.7,331C-528.7,331-528.7,331-528.7,331
				c-0.8,0.1-1.6,2.1-1.2,5.1c0.2,1.4,0.6,2.6,1.1,3.5c0.4,0.7,0.9,1.1,1.3,1.1c0.7-0.1,1.5-2.1,1.1-5.1c-0.2-1.4-0.6-2.6-1.1-3.5
				C-527.9,331.4-528.3,331-528.7,331z"/>
		</g>
		<g>
			<path class="st1" d="M-526.5,335.4c-0.2-1.6-1.7-2.7-3.2-2.5c-0.3,0-0.6,0.1-0.8,0.2c-0.1,0.9-0.1,1.9,0,3
				c0.1,0.9,0.3,1.7,0.6,2.5c0.3,0.1,0.6,0.1,1,0C-527.4,338.5-526.2,337-526.5,335.4z"/>
			<path d="M-529.3,339.3c-0.2,0-0.5,0-0.7-0.1l-0.3-0.1l-0.1-0.3c-0.3-0.8-0.5-1.7-0.6-2.6c-0.1-1.1-0.2-2.2,0-3.1l0-0.3l0.3-0.1
				c0.3-0.2,0.7-0.3,1-0.3c0.9-0.1,1.9,0.1,2.6,0.7c0.7,0.6,1.2,1.4,1.4,2.3l0,0c0.1,0.9-0.1,1.9-0.7,2.6c-0.6,0.7-1.4,1.2-2.3,1.4
				C-529,339.3-529.2,339.3-529.3,339.3z M-529.5,338.1c0.1,0,0.3,0,0.4,0c0.6-0.1,1.1-0.4,1.5-0.9c0.4-0.5,0.5-1.1,0.4-1.7l0,0
				c-0.1-0.6-0.4-1.1-0.9-1.5c-0.5-0.4-1.1-0.5-1.7-0.4c-0.1,0-0.2,0-0.3,0.1c-0.1,0.8-0.1,1.6,0.1,2.4
				C-529.8,336.8-529.7,337.4-529.5,338.1z"/>
		</g>
	</g>
	<g>
		<path class="st2" d="M-512.6,315.3c-0.6,2.4-2.9,3.9-5,3.3s-3.4-3-2.8-5.3c0.6-2.4,2.9-3.9,5-3.3
			C-513.2,310.5-512,312.9-512.6,315.3z"/>
		<path d="M-515.9,317.4c-0.3,0-0.7,0-1-0.1c-2.3-0.6-3.6-3.1-3-5.6c0.6-2.5,3-4,5.3-3.4c1.1,0.3,2,1,2.6,2.1
			c0.5,1.1,0.7,2.3,0.4,3.5v0C-512.1,315.9-513.9,317.4-515.9,317.4z M-515.5,309.3c-1.4,0-2.7,1.1-3.1,2.6c-0.5,1.8,0.5,3.6,2.1,4
			c1.6,0.4,3.3-0.7,3.8-2.5c0.2-0.9,0.1-1.8-0.3-2.6c-0.4-0.7-1-1.3-1.8-1.5C-515,309.4-515.3,309.3-515.5,309.3z"/>
	</g>
	<g>
		<path class="st1" d="M-563,317.9v-6h2.3c0.6,0,1,0.2,1.4,0.5c0.4,0.4,0.5,0.8,0.5,1.4c0,0.6-0.2,1-0.5,1.4
			c-0.4,0.4-0.8,0.5-1.4,0.5h-1.2v2.1H-563z M-561.9,314.9h1c0.3,0,0.6-0.1,0.7-0.3s0.3-0.4,0.3-0.7c0-0.3-0.1-0.6-0.3-0.7
			c-0.2-0.2-0.4-0.3-0.7-0.3h-1V314.9z"/>
		<path class="st1" d="M-557.9,315.8v-3.8h1.1v3.8c0,0.4,0.1,0.7,0.4,0.9c0.2,0.2,0.6,0.3,1,0.3c0.4,0,0.7-0.1,1-0.3
			c0.2-0.2,0.4-0.5,0.4-0.9v-3.8h1.1v3.8c0,0.7-0.2,1.2-0.7,1.6c-0.4,0.4-1,0.6-1.7,0.6c-0.7,0-1.3-0.2-1.7-0.6
			C-557.7,317-557.9,316.4-557.9,315.8z"/>
		<path class="st1" d="M-551.7,317.9v-6h2.1c0.6,0,1,0.1,1.3,0.4c0.3,0.3,0.5,0.6,0.5,1.1c0,0.3-0.1,0.5-0.2,0.8
			c-0.1,0.2-0.3,0.4-0.5,0.5v0c0.3,0.1,0.6,0.3,0.7,0.5c0.2,0.3,0.2,0.6,0.2,0.9c0,0.6-0.2,1-0.6,1.3c-0.4,0.3-0.9,0.4-1.5,0.4
			H-551.7z M-550.6,314.4h1c0.2,0,0.4-0.1,0.5-0.2c0.1-0.1,0.2-0.3,0.2-0.5c0-0.2-0.1-0.4-0.2-0.5c-0.1-0.1-0.3-0.2-0.6-0.2h-1
			V314.4z M-550.6,317h1.2c0.3,0,0.5-0.1,0.6-0.2c0.2-0.2,0.2-0.4,0.2-0.6c0-0.3-0.1-0.5-0.2-0.6c-0.2-0.2-0.4-0.2-0.6-0.2h-1.2V317
			z"/>
		<path class="st1" d="M-546.4,317.9v-6h1.1v5h2.6v0.9H-546.4z"/>
		<path class="st1" d="M-541.9,317.9v-6h1.1v6H-541.9z"/>
		<path class="st1" d="M-539.7,314.9c0-0.9,0.3-1.6,0.9-2.2c0.6-0.6,1.3-0.9,2.2-0.9c0.9,0,1.6,0.3,2.2,0.8l-0.5,0.8
			c-0.2-0.2-0.5-0.3-0.8-0.5c-0.3-0.1-0.6-0.2-0.9-0.2c-0.6,0-1.1,0.2-1.5,0.6c-0.4,0.4-0.5,0.9-0.5,1.5c0,0.6,0.2,1.1,0.5,1.5
			c0.4,0.4,0.8,0.6,1.5,0.6c0.6,0,1.2-0.3,1.7-0.8l0.6,0.8c-0.6,0.6-1.4,1-2.3,1c-0.9,0-1.7-0.3-2.2-0.9
			C-539.4,316.5-539.7,315.8-539.7,314.9z"/>
		<path class="st1" d="M-533.4,317.9v-6h1.1v6H-533.4z"/>
		<path class="st1" d="M-554.5,328v-5h-2V322h5v0.9h-2v5H-554.5z"/>
		<path class="st1" d="M-551.7,328l2.1-6h1.1l2.1,6h-1.1l-0.5-1.5h-2.1l-0.5,1.5H-551.7z M-549.9,325.6h1.6l-0.5-1.6l-0.2-0.9h0
			c-0.1,0.4-0.2,0.7-0.2,0.9L-549.9,325.6z"/>
		<path class="st1" d="M-545.6,328v-6h2c0.5,0,0.9,0.1,1.1,0.2c0.3,0.1,0.6,0.3,0.7,0.6c0.2,0.3,0.3,0.6,0.3,1c0,0.4-0.1,0.7-0.3,1
			c-0.2,0.3-0.4,0.5-0.7,0.6v0c0.1,0.1,0.1,0.2,0.2,0.3l1.2,2.2h-1.2l-1.2-2.2h-1v2.2H-545.6z M-544.5,324.8h1
			c0.3,0,0.5-0.1,0.7-0.3c0.2-0.2,0.3-0.4,0.3-0.7c0-0.4-0.2-0.7-0.5-0.8c-0.2-0.1-0.4-0.1-0.7-0.1h-0.8V324.8z"/>
		<path class="st1" d="M-540.3,328v-6h1.1v6H-540.3z"/>
		<path class="st1" d="M-538.1,324.9c0-0.9,0.3-1.6,0.9-2.2c0.6-0.6,1.3-0.9,2.2-0.9c0.9,0,1.6,0.3,2.2,0.9c0.6,0.6,0.9,1.3,0.9,2.2
			c0,0.9-0.3,1.6-0.9,2.2c-0.6,0.6-1.3,0.9-2.2,0.9c-0.9,0-1.6-0.3-2.2-0.9C-537.8,326.6-538.1,325.8-538.1,324.9z M-537,324.9
			c0,0.6,0.2,1.1,0.6,1.5c0.4,0.4,0.8,0.6,1.4,0.6c0.6,0,1-0.2,1.4-0.6c0.4-0.4,0.6-0.9,0.6-1.5c0-0.6-0.2-1.1-0.6-1.5
			c-0.4-0.4-0.8-0.6-1.4-0.6c-0.6,0-1,0.2-1.4,0.6C-536.8,323.9-537,324.4-537,324.9z"/>
	</g>
</g>
</svg>
