<?xml version="1.0" encoding="utf-8"?>
<!-- Generator: Adobe Illustrator 25.3.1, SVG Export Plug-In . SVG Version: 6.00 Build 0)  -->
<svg version="1.1" id="Capa_1" xmlns="http://www.w3.org/2000/svg" xmlns:xlink="http://www.w3.org/1999/xlink" x="0px" y="0px"
	 width="39.8px" height="27.9px" viewBox="0 0 39.8 27.9" style="enable-background:new 0 0 39.8 27.9;" xml:space="preserve">
<style type="text/css">
	.st0{fill-rule:evenodd;clip-rule:evenodd;}
</style>
<path class="st0" d="M36.9,15.4c0-0.3,0.6-0.1,0.6-0.5c-0.3-0.6-1.2-0.7-1.7-1.1c0.8-0.9-0.7-1.5-1.3-1.9c0.2-0.2,0.3-0.5,0.4-0.8
	c-0.2-0.4-0.7-0.6-1.2-0.7C34.2,9.9,34,9,33.4,8.7c-0.7,0.1-1.3,0.2-1.9-0.1c-0.9-0.4-1.9-1-2.7-1.5c-2.7-1.6-5.2-3.6-8-4.9
	c0-0.2,0-0.3-0.2-0.3c-0.1,0-0.1,0.2-0.3,0.1c-0.1,0.2,0,0.4-0.1,0.7c-0.7,1.2-1.1,2-1.9,2.8c-1.9,1.7-4.8,1.8-6.1,3.8
	C10.2,9.5,8.6,9,6.3,9.1C5.4,9.2,4.6,9.4,3.8,9.7c-1,0.4-2.7,1.2-1.1,1.8c-0.4,0.4-0.8,0.7-1,1.3c0.1,0.3,0.6,0.4,0.9,0.6
	c-0.5,0.6-1,1.1-1.3,1.9c0.2,0.4,0.9,0.3,1.3,0.6c-0.5,0.5-1.2,0.8-1.4,1.7c3.1,3.2,8.6,5.1,12.5,7.7c0.5,0.4,1.3,1.1,1.7,1.1
	c0.2,0,0.4-0.1,0.6-0.1c0.1,0,0.3,0.1,0.4,0.1c0.8,0,2-0.4,2.9-0.7c2.6-0.9,4.6-2.8,6.2-4.5c0.7,0.4,1.6,0.1,2.1-0.3
	c0.3-0.2,0.5-0.6,0.8-0.7c0.5-0.1,1.1-0.1,1.7-0.1c1.7-0.2,3-0.5,4.5-1c1.9-0.6,3.7-1,4.9-2.5C38.8,16.1,37.7,15.9,36.9,15.4z
	 M35.4,13.3c-1.5,2.2-3.8,4.6-6.8,5c2.6-1.3,4.3-3.4,5.6-6C34.6,12.7,35,13,35.4,13.3z M33.5,10.9c0.3,0.1,0.6,0.2,0.9,0.3
	c-1.7,2.9-3.5,5.6-6.9,6.7c-0.1,0,0-0.1,0-0.1C30.2,16.2,32,13.8,33.5,10.9z M17.5,6.8c1.4-0.9,2.6-2.4,3.1-4.3
	c3.1,1.5,5.6,3.6,8.6,5.4c1.3,0.7,2.4,1.6,4.2,1.5c-1.7,3.8-4.1,7-7.9,8.7c-1.6-1.9-3.5-3.6-5.4-5.1c-1.9-1.5-4-3.2-6.9-3.6
	C14,7.8,16.1,7.8,17.5,6.8z M11.2,9.8c5-0.2,7.8,3.1,10.7,5.6c1.2,1.1,2.3,1.8,3.1,3.2c-1.2,0.5-2.7,1-4.4,1c-2.2,0-4.5-0.8-6.2,0.3
	c-1.8-1.3-3-3.2-4.7-4.6c-1-0.9-2.2-1.5-3.2-2.3c-1.1-0.8-2.2-1.7-3.5-2.1C4.4,9.3,8,9.9,11.2,9.8z M23.6,19.8
	c-2.3,1.4-6.5,0.8-9.1,1.9c-0.6-0.6-1.1-1.3-1.7-1.9c0.5-0.1,0.7,0.9,1.2,1c0.6,0.1,1.5-0.8,2.1-0.9c0.5-0.1,1.3,0,1.9,0
	C20.1,20.1,22.2,20.4,23.6,19.8z M2.3,12.8c0.1-0.5,0.4-0.8,0.8-1c3.7,1.9,6.6,4.6,9.3,7.5c0.1,0.1,0.2,0.3,0,0.1
	c-1-0.6-1.9-1.4-2.7-2.3c-1.8-1.8-4.1-2.9-6.4-4.2C2.8,13,2.6,12.9,2.3,12.8z M19.2,25.3c-0.7,0.2-1.6,0.6-2.1,0.5
	c-0.5,0-1-0.6-1.5-0.1c-4.5-2.7-9.6-4.9-13.8-7.9c0.3-0.7,0.7-1.2,1.3-1.5c1.1,0.6,2.1,1.2,3.1,2c1,0.8,2.1,1.3,3.1,2
	c1.9,1.5,3.6,3.2,5.7,4.5c0.4-0.1,0.7-0.6,1.1-0.7c1.3-0.4,2.8-0.3,4.1-0.5c1.4-0.2,2.8-0.7,3.8-1.5C22.9,23.1,21.2,24.6,19.2,25.3z
	 M24.2,20.7c-0.9,1-2.2,1.9-3.9,2.2c-1.7,0.3-3.8,0.1-5.1,0.9c-2.4-1.2-4.2-3.2-6.4-4.7c-0.5-0.4-1.2-0.6-1.7-1
	c-1.5-1-3.1-2.5-5.2-3c0.3-0.6,0.7-1.1,1.2-1.5c2,0.7,4.1,2.1,5.7,3.5c0.5,0.5,0.9,1,1.5,1.5c0.6,0.5,1.4,0.7,1.8,1.2
	c0.6,0.6,0.9,1.4,1.5,1.9c0.2,0.3-0.1,0.6,0.1,0.8c0.9,0.1,1.7-0.5,2.7-0.7c1.9-0.4,4.2-0.4,6-0.9c0.9-0.3,1.6-0.7,2.3-1.1
	C24.9,20.2,24.4,20.5,24.2,20.7z M24.4,21.7c-0.1-0.2,0.4-0.4,0.5-0.7C25.1,21.3,24.6,21.4,24.4,21.7z M24.7,19.7
	c0.1-0.1,0.2-0.2,0.4-0.3C25.1,19.5,25,19.7,24.7,19.7z M25.3,20.7c0.1-1,1.4-0.4,2.3-0.6C27.3,20.9,25.9,21.4,25.3,20.7z
	 M27.1,19.5c3.8-0.8,6.6-2.5,8.4-5.2c0.4,0.2,0.9,0.4,1.3,0.7c-0.1,0.5-0.7,0.4-1.1,0.5c-0.1,0.3,0.2,0.3,0.3,0.4
	C34,18,31.2,19.5,27.1,19.5z M32,19.3c1.8-0.7,3.3-1.7,4.4-3.2c0.7,0.2,1.3,0.5,1.9,0.7C36.8,17.9,34,18.8,32,19.3z"/>
</svg>
