<?xml version="1.0" encoding="utf-8"?>
<!-- Generator: Adobe Illustrator 25.3.1, SVG Export Plug-In . SVG Version: 6.00 Build 0)  -->
<svg version="1.1" id="Capa_1" xmlns="http://www.w3.org/2000/svg" xmlns:xlink="http://www.w3.org/1999/xlink" x="0px" y="0px"
	 viewBox="0 0 27.8 28.5" style="enable-background:new 0 0 27.8 28.5;" xml:space="preserve">
<style type="text/css">
	.st0{fill:#010101;}
</style>
<g>
	<g>
		<path class="st0" d="M12.2,1h3.5c0.3,0.1,0.7,0.3,0.7,0.7c0,0.3,0,0.6,0,0.9c2,0,4,0,6,0C22.8,2,23.8,1.6,24.5,2
			c1,0.4,1.3,1.8,0.5,2.6c-0.7,0.8-2.2,0.7-2.7-0.3c-1.3,0-2.6,0-3.9,0c3.1,1.4,5.6,4.2,6.7,7.5c0.9,0.3,1.4,1.3,1,2.2
			c-0.4,1-1.7,1.3-2.5,0.7c-0.8-0.6-0.9-1.9-0.1-2.5c-1-3.3-3.8-6-7.2-6.8C16.3,5.7,16,6,15.6,6c-1.1,0-2.3,0-3.4,0
			c-0.4,0-0.6-0.3-0.7-0.6c-3.4,0.8-6.2,3.5-7.2,6.8c0.7,0.7,0.7,2-0.1,2.5C3.4,15.4,2,15,1.7,14c-0.4-0.9,0.1-1.9,1-2.2
			c1-3.3,3.5-6.1,6.7-7.5c-1.3,0-2.6,0-3.9,0C5.2,4.7,4.9,5,4.5,5.1c-0.8,0.2-1.7-0.2-2-1c-0.3-0.8,0.2-1.9,1-2.1
			C4.2,1.7,5.1,2,5.5,2.7c2,0,4,0,6,0c0-0.4,0-0.7,0-1.1C11.6,1.3,11.9,1.1,12.2,1z M13.1,2.7c0,0.6,0,1.1,0,1.7c0.6,0,1.1,0,1.7,0
			c0-0.6,0-1.1,0-1.7C14.2,2.7,13.6,2.7,13.1,2.7z"/>
	</g>
	<g>
		<path class="st0" d="M13.2,8.1c0.2-0.3,0.5-0.5,0.8-0.4c0.4,0,0.6,0.4,0.8,0.7c2.1,3.2,4.3,6.4,6.4,9.6c0.2,0.3,0.2,0.7,0,1
			c-1.1,1.1-2,2.4-2.6,3.9c-0.1,0.3-0.5,0.5-0.8,0.5c-0.5,0-0.9-0.7-0.7-1.2c0.6-1.4,1.5-2.7,2.4-3.8c-1.6-2.4-3.1-4.7-4.7-7.1
			c0,1.3,0,2.7,0,4c0.8,0.4,1.5,1.1,1.6,2c0.2,1.5-1.3,3-2.8,2.7c-1.2-0.3-2.2-1.5-2-2.7c0.1-0.9,0.8-1.6,1.6-2c0-1.3,0-2.7,0-4
			c-1.6,2.4-3.2,4.7-4.8,7.1c1.4,1.7,2.7,3.6,3,5.9c2.7,0,5.5,0,8.2,0c0.4,0,0.9,0.3,0.9,0.7c0,0.6,0,1.2,0,1.9
			c0,0.4-0.3,0.6-0.7,0.7h-0.2c-0.2-0.1-0.4-0.1-0.5-0.3c-0.3-0.4-0.2-0.9-0.2-1.4c-3.3,0-6.6,0-9.9,0c0,0.5,0.1,1-0.2,1.4
			c-0.1,0.2-0.3,0.2-0.5,0.3H8c-0.3-0.1-0.7-0.3-0.7-0.7c0-0.6,0-1.2,0-1.7c0-0.4,0.3-0.8,0.8-0.8c0.5,0,1.1,0,1.6,0
			c-0.4-2-1.7-3.7-3-5.2c-0.2-0.2-0.2-0.6-0.1-0.9C8.8,14.7,11,11.4,13.2,8.1z M13.4,16.8c-0.4,0.3-0.4,1-0.2,1.4
			c0.3,0.2,0.7,0.3,1,0.2c0.6-0.2,0.6-0.9,0.3-1.3C14.3,16.6,13.8,16.6,13.4,16.8z"/>
	</g>
</g>
</svg>
