<?xml version="1.0" encoding="utf-8"?>
<!-- Generator: Adobe Illustrator 25.3.1, SVG Export Plug-In . SVG Version: 6.00 Build 0)  -->
<svg version="1.1" id="Capa_1" xmlns="http://www.w3.org/2000/svg" xmlns:xlink="http://www.w3.org/1999/xlink" x="0px" y="0px"
	 width="32.8px" height="27.9px" viewBox="0 0 32.8 27.9" style="enable-background:new 0 0 32.8 27.9;" xml:space="preserve">
<style type="text/css">
	.st0{fill:#010101;}
</style>
<g>
	<g>
		<path class="st0" d="M14.8,0.6h3.5C18.6,0.7,19,0.9,19,1.3c0,0.3,0,0.6,0,0.9c2,0,4,0,6,0c0.4-0.6,1.4-1,2.1-0.6
			c1,0.4,1.3,1.8,0.5,2.6c-0.7,0.8-2.2,0.7-2.7-0.3c-1.3,0-2.6,0-3.9,0c3.1,1.4,5.6,4.2,6.7,7.5c0.9,0.3,1.4,1.3,1,2.2
			c-0.4,1-1.7,1.3-2.5,0.7s-0.9-1.9-0.1-2.5c-1-3.3-3.8-6-7.2-6.8c0,0.3-0.3,0.6-0.7,0.6c-1.1,0-2.3,0-3.4,0c-0.4,0-0.6-0.3-0.7-0.6
			c-3.4,0.8-6.2,3.5-7.2,6.8c0.7,0.7,0.7,2-0.1,2.5C6,15,4.6,14.6,4.3,13.6c-0.4-0.9,0.1-1.9,1-2.2c1-3.3,3.5-6.1,6.7-7.5
			c-1.3,0-2.6,0-3.9,0c-0.3,0.4-0.6,0.7-1,0.8c-0.8,0.2-1.7-0.2-2-1c-0.3-0.8,0.2-1.9,1-2.1c0.7-0.3,1.6,0,2,0.7c2,0,4,0,6,0
			c0-0.4,0-0.7,0-1.1C14.2,0.9,14.5,0.7,14.8,0.6z M15.7,2.3c0,0.6,0,1.1,0,1.7c0.6,0,1.1,0,1.7,0c0-0.6,0-1.1,0-1.7
			C16.8,2.3,16.2,2.3,15.7,2.3z"/>
	</g>
	<g>
		<path class="st0" d="M15.8,7.8c0.2-0.3,0.5-0.5,0.8-0.4c0.4,0,0.6,0.4,0.8,0.7c2.1,3.2,4.3,6.4,6.4,9.6c0.2,0.3,0.2,0.7,0,1
			c-1.1,1.1-2,2.4-2.6,3.9c-0.1,0.3-0.5,0.5-0.8,0.5c-0.5,0-0.9-0.7-0.7-1.2c0.6-1.4,1.5-2.7,2.4-3.8c-1.6-2.4-3.1-4.7-4.7-7.1
			c0,1.3,0,2.7,0,4c0.8,0.4,1.5,1.1,1.6,2c0.2,1.5-1.3,3-2.8,2.7c-1.2-0.3-2.2-1.5-2-2.7c0.1-0.9,0.8-1.6,1.6-2c0-1.3,0-2.7,0-4
			c-1.6,2.4-3.2,4.7-4.8,7.1c1.4,1.7,2.7,3.6,3,5.9c2.7,0,5.5,0,8.2,0c0.4,0,0.9,0.3,0.9,0.7c0,0.6,0,1.2,0,1.9
			c0,0.4-0.3,0.6-0.7,0.7h-0.2c-0.2-0.1-0.4-0.1-0.5-0.3c-0.3-0.4-0.2-0.9-0.2-1.4c-3.3,0-6.6,0-9.9,0c0,0.5,0.1,1-0.2,1.4
			c-0.1,0.2-0.3,0.2-0.5,0.3h-0.3c-0.3-0.1-0.7-0.3-0.7-0.7c0-0.6,0-1.2,0-1.7c0-0.4,0.3-0.8,0.8-0.8s1.1,0,1.6,0
			c-0.4-2-1.7-3.7-3-5.2c-0.2-0.2-0.2-0.6-0.1-0.9C11.4,14.3,13.6,11,15.8,7.8z M16,16.4c-0.4,0.3-0.4,1-0.2,1.4
			c0.3,0.2,0.7,0.3,1,0.2c0.6-0.2,0.6-0.9,0.3-1.3C16.9,16.3,16.4,16.3,16,16.4z"/>
	</g>
</g>
</svg>
