<?xml version="1.0" encoding="utf-8"?>
<!-- Generator: Adobe Illustrator 25.3.0, SVG Export Plug-In . SVG Version: 6.00 Build 0)  -->
<svg version="1.1" id="Capa_1" xmlns="http://www.w3.org/2000/svg" xmlns:xlink="http://www.w3.org/1999/xlink" x="0px" y="0px"
	 width="32px" height="32px" viewBox="0 0 32 32" style="enable-background:new 0 0 32 32;" xml:space="preserve">
<style type="text/css">
	.st0{fill:#E5332A;}
	.st1{fill:#FFFFFF;}
</style>
<path class="st0" d="M26.71,19.53c-2.8,6.86-10.63,10.14-17.49,7.34C-6.99,19.59,2.7-4.11,19.37,2.04
	C26.22,4.84,29.51,12.68,26.71,19.53z"/>
<path class="st1" d="M31.29,20.01c-0.71-0.54-1.34-1.18-1.87-1.88c0.45-0.01,0.96,0.06,1.37-0.18c-1.27-1.12-2.25-2.58-3.1-4.03
	c1.01-1.28,1.62-3.25,0.52-4.65c-0.53,0.04-1.03,0.24-1.54,0.39c0.05-1.37-0.01-2.85-0.73-4.06c-1.36-1.7-4.24-1.81-6.25-1.72
	c-0.16-1.55-2.59-1.51-2.71,0.23c-1.87,0.07-4.93,0.91-5.36,3.01c-0.08,0.56,0.08,1.11,0.19,1.65c-0.29-0.1-0.58-0.23-0.89-0.28
	c-0.04-0.01-0.1-0.01-0.12,0.04c-0.56,0.66-0.75,1.56-0.69,2.41c-1.66,0.19-3.99,0.61-4.91,2.16c-0.37,0.65-0.2,1.46,0.5,1.79
	c1.64,0.61,3.81-0.84,5.2-1.64c-0.54,0.8-1.19,1.54-1.83,2.26c-0.48,0.51-0.98,1.01-1.56,1.39c0.38,0.28,0.9,0.26,1.35,0.31
	c-0.6,0.66-1.29,1.23-2.04,1.71c0.76,0.19,1.54,0.27,2.32,0.23c-0.29,0.73-0.43,1.52-0.43,2.31c-0.8,0.01-1.61,0.13-2.41,0.3
	c-0.06,0.05-0.11,0.1-0.17,0.16c0.32,0.05,0.71,0.01,0.94,0.24l0.11,0.24c0.05,0.71,0.17,1.42,0.25,2.13c0,0-0.01,0-0.01,0
	c-0.41,0.11-0.96,0.28-1.59,0.51c0.22,0.64,0.55,1.22,0.92,1.77c0.43,0.44,0.79,0.97,1.11,1.35c0.02,0.02,0.03,0.05,0.04,0.07
	c0.01,0,0.02,0.01,0.03,0.01c0.67,0.27,1.21,0.75,1.75,1.2c0.54,0.22,1.08,0.42,1.64,0.59c0.68,0.21,1.35,0.46,2.03,0.68
	c0.7-0.01,1.4-0.1,2.08-0.17c0.33-0.03,0.33,0.48,0,0.52c-0.17,0.02-0.35,0.04-0.52,0.06c0.21,0.03,0.43,0.06,0.64,0.07
	c0.48,0.03,0.94-0.02,1.42-0.04c0.44-0.02,0.89-0.01,1.33-0.01c0.02-0.05,0.04-0.1,0.06-0.15c0.12-0.26,0.47-0.1,0.47,0.15
	c0.34-0.01,0.67-0.02,1.01-0.06c0.47-0.05,0.87-0.22,1.28-0.44c0.41-0.21,0.83-0.4,1.27-0.55c0.52-0.19,1.04-0.36,1.55-0.56
	c0.22-0.1,0.44-0.2,0.66-0.29c0.17-0.08,0.34-0.18,0.51-0.27c0.77-0.46,1.49-1.01,2.12-1.65c0.6-0.62,1.06-1.29,1.45-2.06
	c0.31-0.6,0.61-1.23,1.05-1.74c-0.4-0.06-0.81-0.11-1.22-0.13c0.13-0.38,0.19-0.78,0.24-1.18c0.16,0.2,0.24,0.46,0.31,0.7
	c0.24-0.93,0.12-1.95-0.12-2.87C29.74,20.15,30.53,20.16,31.29,20.01z"/>
<g>
	<path d="M12.55,9.47c-0.31-1.48,0.09-3.14,1.3-4.12C11.81,6.01,11.74,7.76,12.55,9.47z"/>
	<path d="M20.2,12.79c-0.02,0.13,0.1,0.22,0.19,0.29c0.34,0.24,0.81,0.25,1.18,0.09c-0.41,0-0.86-0.05-1.19-0.34
		C20.33,12.8,20.25,12.72,20.2,12.79z"/>
	<path d="M19.92,21.15c0.49-0.21,1.09-0.47,1.32-1c-0.1-0.14-0.28-0.11-0.4-0.01c-0.28,0.21-0.51,0.49-0.82,0.66
		c-0.73,0.42-1.59,0.55-2.42,0.52c0.03,0.08,0.06,0.16,0.09,0.24C18.45,21.55,19.21,21.42,19.92,21.15z"/>
	<path d="M20,21.45c-0.31,0.18-0.63,0.37-0.94,0.55c-0.17,0.1-0.01,0.36,0.16,0.26c0.31-0.18,0.63-0.37,0.94-0.55
		C20.32,21.62,20.17,21.35,20,21.45z"/>
	<path d="M11.77,21.89c-0.07-0.62-0.18-1.24-0.11-1.86c0.08,0.51,0.15,1.02,0.25,1.52c0.04-0.12,0.1-0.24,0.2-0.33
		c0.58,1.52,1.48,3,2.83,3.95c-0.22-0.3-0.49-0.6-0.6-0.97c0.05,0.06,0.1,0.12,0.15,0.18c0,0,0,0,0,0c0.36,0.5,0.85,0.88,1.36,1.21
		c0.03,0.01,0.07,0.01,0.1,0.02c-0.07-0.07-0.15-0.13-0.22-0.2c0.21,0.13,0.43,0.24,0.66,0.34c-0.29-0.21-0.58-0.43-0.87-0.64
		c0,0,0-0.01-0.01-0.01c0.83,0.57,1.76,1.02,2.74,1.27c-1.62-1.32-2.85-3.07-3.66-5c0.11,0.53,0.33,1.03,0.55,1.53
		c-0.48-0.35-0.81-0.84-1.14-1.33c0.26,0.87,0.84,1.6,1.44,2.26c-1.04-0.72-1.73-1.84-2.36-2.9c0.53,1.61,1.67,2.95,3,3.96
		c-0.54-0.27-0.99-0.68-1.43-1.08c0.04,0.08,0.08,0.16,0.12,0.24c-1.58-1.24-2.37-3.24-2.51-5.21c-0.09,0.79,0.04,1.59,0.18,2.37
		c-0.31-0.67-0.36-1.44-0.39-2.17c-0.08,0.21-0.07,0.44-0.1,0.67c-0.19-1.07-0.06-2.17,0.12-3.23c-0.28,0.81-0.41,1.65-0.52,2.5
		c-0.02-0.73,0.1-1.46,0.21-2.18C11.11,18.44,11.15,20.3,11.77,21.89z"/>
	<path d="M20.35,25.23c-0.47,0.46-1,0.85-1.54,1.21c1.09-0.18,2.13-0.6,3.09-1.13c-0.18,0.23-0.45,0.38-0.68,0.56
		c0.03,0,0.07-0.01,0.11-0.01c0.46-0.25,0.9-0.52,1.27-0.89c0.14-0.13,0.25-0.29,0.38-0.42c-0.17,0.4-0.48,0.73-0.8,1.02
		c1.46-0.81,2.53-2.26,3.25-3.73c0.08,0.1,0.13,0.22,0.16,0.35c0.15-0.49,0.26-1,0.39-1.49c0,0.63-0.16,1.23-0.28,1.84
		c0.76-1.54,0.97-3.38,0.49-5.04c0.05,0.73,0.1,1.46,0.02,2.19c-0.04-0.84-0.08-1.69-0.29-2.5c0.08,1.06,0.11,2.14-0.17,3.18
		c-0.01-0.22,0.01-0.44-0.04-0.65c-0.11,0.75-0.24,1.52-0.61,2.19c0.23-0.79,0.42-1.6,0.42-2.43c-0.31,1.95-1.28,3.88-2.97,4.99
		c0.04-0.07,0.08-0.14,0.12-0.21c-0.45,0.32-0.89,0.67-1.41,0.87c1.34-0.9,2.59-2.07,3.22-3.59c-0.73,1-1.51,2.02-2.59,2.65
		c0.65-0.61,1.31-1.29,1.64-2.13c-0.37,0.45-0.75,0.92-1.26,1.22c0.25-0.45,0.52-0.91,0.66-1.41
		C22.24,23.08,21.39,24.25,20.35,25.23z"/>
	<path d="M16.96,24.64c0.03-0.1,0.06-0.19,0.1-0.29c0.37,0.71,0.91,1.33,1.51,1.87c0.63-0.49,1.23-1.05,1.66-1.72
		c0.03,0.1,0.05,0.19,0.08,0.29c0.63-0.6,1.25-1.28,1.48-2.13c-0.38,0.58-0.75,1.18-1.3,1.63c0.01-0.31,0.02-0.62-0.05-0.93
		c-0.16,0.87-0.63,1.32-1.36,1.75c-0.17,0.1-0.34,0.21-0.48,0.36c-0.2-0.25-0.48-0.41-0.73-0.61c-0.55-0.42-0.88-0.96-0.91-1.66
		c-0.1,0.3-0.12,0.62-0.13,0.93c-0.5-0.49-0.82-1.13-1.15-1.74C15.82,23.25,16.39,23.99,16.96,24.64z"/>
	<g>
		<path d="M5.52,14.7c1.64,0.61,3.81-0.84,5.2-1.64c-0.54,0.8-1.19,1.54-1.83,2.26c-0.48,0.51-0.98,1.01-1.56,1.39
			c0.38,0.28,0.9,0.26,1.35,0.31c-0.6,0.66-1.29,1.23-2.04,1.71c0.76,0.19,1.54,0.27,2.32,0.23c-0.29,0.73-0.43,1.52-0.43,2.31
			c-0.8,0.01-1.61,0.13-2.41,0.3c-0.06,0.05-0.11,0.1-0.17,0.16c0.32,0.05,0.71,0.01,0.94,0.24l0.11,0.24
			c0.05,0.71,0.17,1.42,0.25,2.13c0,0-0.01,0-0.01,0c-0.6,0.17-1.5,0.45-2.5,0.86C5.08,25.78,9,32.19,18.46,31.4
			c-0.06-0.03-0.11-0.1-0.11-0.19c0-0.92,0.02-1.84,0.03-2.76c-0.1-0.01-0.17-0.1-0.18-0.19c-0.56-0.16-1.02-0.56-1.55-0.78
			c-1.11-0.44-2.08-1.13-3.02-1.87c-0.09-0.01-0.16-0.1-0.21-0.17c-0.54-0.46-1.03-0.98-1.36-1.61c-0.07-0.14,0.01-0.33,0.17-0.34
			c0.01-0.04,0.03-0.08,0.07-0.1c-0.1-0.05-0.2-0.1-0.3-0.15c-0.19-0.47-0.35-0.95-0.48-1.44c-0.3,0.3-0.65,0.56-1.03,0.74
			c-0.15-0.12-0.24-0.28-0.28-0.47c-0.04-0.18,0.07-0.4,0.03-0.57c-0.01,0-0.02-0.01-0.04-0.01c0.29-1.29,0.13-2.7,0.79-3.9
			c-0.17,0.09-0.28,0.26-0.4,0.4c-0.07,0.09-0.19,0.1-0.29,0.13c-0.51,0.14-1.05,0.15-1.57,0.14c0.11-0.09,0.24-0.13,0.36-0.2
			c0.28-0.17,0.54-0.38,0.79-0.6c0.03-0.03,0.08-0.07,0.07-0.12c-0.7,0.46-1.5,0.78-2.32,0.95c0.64-0.42,1.2-0.98,1.65-1.59
			c-0.43,0.08-0.88,0.1-1.29-0.04c0.38-0.28,0.73-0.6,1.09-0.92c0.08-0.13,0.2-0.21,0.3-0.32c0.3-0.31,0.6-0.62,0.88-0.94
			c0.05-0.06,0.11-0.12,0.17-0.17c-0.17,0.36-0.48,0.62-0.7,0.94c0.41-0.29,0.71-0.71,1.06-1.07c-0.1,0.26-0.3,0.45-0.44,0.67
			c0.36-0.24,0.62-0.58,0.91-0.9c-0.07,0.25-0.26,0.43-0.39,0.64c0.25-0.13,0.4-0.39,0.62-0.58c-0.27,0.6-0.91,1.04-1.52,1.25
			c0.29,0.32,0.45,0.44,0.89,0.43c0.11,0.33-1.48,1.41-1.77,1.68c1.06-0.54,2.16-1.46,2.86-2.43c-0.52,0.23-1.1,0.35-1.67,0.32
			c0.02-0.02,0.05-0.03,0.08-0.04c0.63-0.2,1.11-0.7,1.45-1.26c0.24,1.28,0.58,2.59,2.05,2.86c0.02,0,0.04,0,0.07,0.01l0.02,0.01
			c0.03,0,0.06,0,0.08,0.01c0.07,0.01,0.13,0,0.2,0.01v0.01c0.15,0,0.3,0,0.46,0c-0.1,0.14-0.19,0.29-0.27,0.44
			c0.14-0.15,0.28-0.3,0.42-0.44c0.04,0,0.07-0.01,0.11-0.01c-0.15,0.24-0.25,0.51-0.34,0.77c-0.07,0.21-0.18,0.4-0.28,0.59
			c0.25-0.21,0.4-0.51,0.55-0.79c-0.11,0.73-0.51,1.38-0.94,1.96c0.33-0.22,0.57-0.55,0.82-0.86c-0.06,0.64-0.42,1.18-0.78,1.68
			c0.3-0.16,0.53-0.44,0.7-0.73c0.01,0.59-0.27,1.14-0.55,1.64c0.25-0.14,0.43-0.37,0.57-0.61c0.11,0.78,0.39,1.54,0.88,2.16
			c-0.61-1.48-0.63-3.17-0.16-4.7c0.11,0.19,0.1,0.42,0.12,0.63c0.11-0.34,0.12-0.71,0.11-1.07c0.12,0.11,0.19,0.27,0.29,0.41
			c-0.05-0.42-0.36-0.76-0.46-1.17c0.03-0.01,0.05-0.02,0.08-0.02c0.11-0.02,0.22-0.05,0.33-0.08c0.02,0.07,0.05,0.13,0.08,0.19
			c0.01-0.07,0.01-0.14,0-0.21c0.11-0.03,0.22-0.07,0.32-0.11c-0.35,1.03,0.85,1.17,1.56,0.89c-0.12-0.11-0.28-0.2-0.35-0.35
			c-0.09-0.18,0-0.39,0.16-0.49c0.17-0.12,0.42-0.12,0.57,0.03c0.21,0.2,0.26,0.51,0.31,0.78c0.09,0.44-0.09,0.96,0.58,0.86
			c0.12-0.02,0.19-0.12,0.22-0.24c0.12-0.48,0.19-1.62,0.93-1.39c0.2,0.08,0.36,0.32,0.27,0.53c-0.07,0.18-0.26,0.26-0.4,0.37
			c0.78,0.39,1.98,0.27,1.6-0.87c0.12,0.03,0.24,0.05,0.36,0.07c0,0.13-0.01,0.27-0.04,0.4c0.08-0.11,0.15-0.24,0.19-0.38
			c0.01,0,0.03,0,0.04,0.01c0.01,0,0.03,0,0.03,0.01c0.03,0,0.05,0,0.08,0.01c0.05,0.01,0.1,0.01,0.15,0.02
			c0.03,0.01,0.06,0.01,0.1,0.01c-0.07,0.53-0.5,0.9-0.64,1.4c0.12-0.11,0.19-0.27,0.33-0.37c-0.04,0.35-0.07,0.72,0.02,1.07
			c0.03-0.21,0.06-0.43,0.17-0.62c0.36,1.54,0.15,3.21-0.54,4.62c0.54-0.54,0.86-1.29,1.04-2.02c0.12,0.25,0.27,0.5,0.52,0.66
			c-0.24-0.52-0.46-1.09-0.4-1.68c0.15,0.3,0.35,0.6,0.63,0.78c-0.33-0.52-0.62-1.1-0.63-1.73c0.23,0.31,0.42,0.67,0.74,0.91
			c-0.38-0.61-0.7-1.28-0.76-2.01c0.14,0.28,0.25,0.59,0.48,0.81c-0.27-0.54-0.3-1.16-0.64-1.66c0.23,0.19,0.38,0.46,0.58,0.67
			c-0.11-0.29-0.29-0.55-0.46-0.81c0.11,0,0.21,0,0.32-0.01l0-0.01c0.06-0.01,0.11,0.01,0.17-0.01c0.02-0.01,0.04-0.01,0.07-0.01
			c0.03-0.01,0.06-0.02,0.1-0.02c0.02-0.01,0.04-0.01,0.07-0.01c0.09-0.01,0.2-0.04,0.27-0.08c1.23-0.36,1.51-1.79,1.7-2.89
			c0-0.02,0-0.04,0.01-0.06c0.02-0.04,0.03-0.09,0.02-0.13c0-0.02,0-0.04,0.01-0.07c0-0.03,0-0.06,0.01-0.08
			c0-0.01,0.01-0.02,0.01-0.03c0.63,1.02,0.82,2.11,2.04,2.64c-0.02-0.01-0.06-0.02-0.08-0.02c-0.14,0.03-0.29-0.01-0.43-0.03
			c-0.39-0.07-0.76-0.22-1.11-0.41c0.61,1.02,1.56,1.97,2.56,2.63c-0.5-0.47-1.32-1.08-1.41-1.79c-0.01-0.08,0.08-0.13,0.15-0.15
			c0.22-0.06,0.46-0.06,0.66-0.18c-0.57-0.26-1.15-0.72-1.37-1.32c0.22,0.19,0.35,0.47,0.6,0.63c-0.13-0.22-0.32-0.43-0.37-0.69
			c0.11,0.09,0.18,0.23,0.27,0.34c0.17,0.2,0.33,0.42,0.54,0.58c-0.11-0.22-0.29-0.41-0.36-0.65c0.04,0.03,0.08,0.07,0.11,0.11
			c0.25,0.35,0.51,0.71,0.83,0.99c-0.19-0.34-0.48-0.63-0.62-1c0.31,0.37,0.6,0.79,0.92,1.16c0.09,0.12,0.22,0.22,0.28,0.36
			c0.33,0.35,0.65,0.71,1.01,1.02c-0.42,0.12-0.87,0.04-1.28-0.06c0.4,0.65,0.89,1.26,1.5,1.73c-0.85-0.25-1.63-0.68-2.33-1.23
			c0.01,0.03,0.03,0.07,0.05,0.1c0.29,0.29,0.58,0.6,0.92,0.83c0.09,0.06,0.18,0.1,0.25,0.17c-0.61-0.05-1.23-0.11-1.78-0.38
			c-0.15-0.16-0.23-0.37-0.41-0.5c0.26,0.66,0.35,1.37,0.36,2.08c0.02,0.8-0.06,1.62,0.19,2.39c0-0.76,0.03-1.54,0.25-2.28
			c-0.1,1.04-0.14,2.11,0.08,3.14c-0.71-0.18-1.32-0.63-1.78-1.18c-0.31,0.86-0.72,1.68-1.21,2.45l-0.73,0.51
			c0.25-0.34,0.48-0.7,0.67-1.07c-0.16,0.12-0.32,0.25-0.47,0.39c-0.47,0.61-0.97,1.23-1.63,1.65c-0.95,0.97-2.44,2.05-3.8,2.12
			c-0.01,0.91-0.03,1.82-0.03,2.73c0,0.08-0.03,0.13-0.07,0.17c0.35-0.03,0.7-0.08,1.06-0.13c0,0,8.04-1.62,10.19-7.59L30,23.87
			l0.1-0.36l-0.01,0c-0.08-0.06-0.15-0.11-0.23-0.16c-0.5-0.07-1-0.14-1.5-0.17c0.13-0.38,0.19-0.78,0.24-1.18
			c0.16,0.2,0.24,0.46,0.31,0.7c0.24-0.93,0.12-1.95-0.12-2.87c0.77,0.11,1.56,0.12,2.32-0.03c-0.71-0.54-1.34-1.18-1.87-1.88
			c0.45-0.01,0.96,0.06,1.37-0.18c-1.27-1.12-2.25-2.58-3.1-4.03c1.01-1.28,1.62-3.25,0.52-4.65C27.5,9.1,26.99,9.3,26.49,9.45
			c0.05-1.37-0.01-2.85-0.73-4.06c-1.36-1.7-4.24-1.81-6.25-1.72c-0.16-1.55-2.59-1.51-2.71,0.23c-1.87,0.07-4.93,0.91-5.36,3.01
			c-0.08,0.56,0.08,1.11,0.19,1.65c-0.29-0.1-0.58-0.23-0.89-0.28c-0.04-0.01-0.1-0.01-0.12,0.04c-0.56,0.66-0.75,1.56-0.69,2.41
			c-1.66,0.19-3.99,0.61-4.91,2.16C4.65,13.56,4.82,14.37,5.52,14.7z M8.84,21.26c0.03-0.05,0.07-0.09,0.11-0.13
			c0,0.04,0,0.09,0,0.14C8.92,21.26,8.88,21.26,8.84,21.26z M10,19.68c0.1,0.58,0.11,1.17,0.07,1.75c-0.05-0.02-0.11-0.04-0.16-0.06
			C9.99,20.82,9.97,20.25,10,19.68z M28.38,23.75l-0.16,0.02c0-0.07,0-0.15,0-0.22c0.05-0.12,0.09-0.24,0.13-0.35
			C28.36,23.38,28.37,23.56,28.38,23.75z M15.74,16.33c-0.12,0.04-0.24,0.07-0.37,0.1c-0.01-0.12-0.01-0.25,0-0.38
			c-0.17,0.12-0.3,0.28-0.43,0.44c-0.02,0-0.04,0-0.06,0c-0.19,0.05-0.39,0.02-0.58,0c-0.01,0-0.04,0.01-0.05,0.02
			c-0.02-0.01-0.04-0.01-0.06-0.03c-0.01,0-0.03,0-0.05-0.01c-0.03,0.01-0.06,0.01-0.09-0.01l-0.01-0.01
			c-0.03,0.01-0.06,0.01-0.09-0.01c-0.93-0.15-1.48-1.07-1.65-1.93c-0.02-0.02-0.02-0.05-0.01-0.07l-0.01-0.01
			c-0.02-0.02-0.02-0.05-0.01-0.07c0-0.02,0-0.04-0.01-0.06c-0.02-0.02-0.02-0.06-0.01-0.08c-0.02-0.02-0.02-0.06-0.01-0.08
			c-0.01-0.03-0.01-0.06,0-0.08l-0.01-0.01c-0.03-0.03-0.03-0.07-0.01-0.12c0-0.06-0.01-0.13-0.02-0.2c0-0.08,0-0.16,0-0.25
			c-0.01-0.03-0.01-0.06,0.01-0.09c0.01-0.07,0.03-0.14,0.05-0.21c0.12-0.19,0.26-0.38,0.4-0.54c0.08-0.06,0.16-0.1,0.24-0.14
			c0.3,0.19,0.66,0,0.98-0.06c0.86-0.21,1.75-0.19,2.62-0.07c0.34,0.09,0.68,0.27,0.86,0.58c-0.21,0.03-0.43,0.03-0.64,0.01
			c0.22,0.11,0.47,0.17,0.71,0.15c0.02,0.06,0.04,0.13,0.05,0.19c-0.34,0.04-0.69-0.03-1.02-0.12c-1.12-0.3-2.91-1.05-3.45,0.46
			c0.26-0.18,0.7-0.35,0.87,0.02c0.23,0.52,0.45,1.06,1.01,1.29c-0.13-0.18-0.31-0.33-0.36-0.55c0.2,0.18,0.36,0.42,0.62,0.53
			c-0.19-0.24-0.43-0.46-0.49-0.77c0.2,0.21,0.35,0.48,0.61,0.63c-0.09-0.18-0.23-0.34-0.29-0.53c0.66,0.44,0.99,0.15,1.66,0.04
			c-0.16,0.11-0.35,0.19-0.47,0.35c0.32-0.13,0.62-0.31,0.97-0.36c-0.1,0.07-0.2,0.13-0.31,0.19
			C16.23,14.87,15.61,15.54,15.74,16.33z M16.65,11.85c1.89-0.34,3.82-0.43,5.74-0.42c-0.52,0.15-1.03,0.29-1.56,0.4
			c0.73,0.13,1.43-0.15,2.13-0.31c0.26-0.05,0.54-0.12,0.8-0.07c-0.26,0.07-0.56,0.1-0.78,0.28c0.39-0.03,0.76-0.13,1.14-0.21
			c-0.13,0.14-0.33,0.2-0.51,0.26c-0.02,0-0.05,0-0.07,0v-0.02c-0.49,0-0.97,0-1.46,0.03l0.01,0.01c-0.11,0-0.22,0.01-0.34,0.02
			v0.01c-0.03,0-0.05,0-0.08,0c-0.03,0.01-0.06,0.02-0.1,0.02c-0.01,0-0.04,0.01-0.05,0.01c-0.02,0.01-0.04,0.01-0.06,0.01
			c-0.05,0-0.09,0.01-0.13,0.03c-0.05,0.02-0.11-0.01-0.17,0.03l0,0.01c-0.06,0-0.11,0-0.16,0.03c-0.02,0.01-0.04,0.01-0.06,0.01
			c-0.37,0.08-0.74,0.19-1.08,0.36c0.03-0.03,0.06-0.05,0.09-0.08c-0.14,0.05-0.27,0.11-0.4,0.2c-0.02,0-0.03,0.01-0.05,0.01
			c-0.02,0.01-0.04,0.01-0.06,0.01c-0.09,0.02-0.19,0.02-0.28,0.02c-0.08,0.02-0.16,0.01-0.24,0.01c-0.15-0.14-0.31-0.26-0.5-0.33
			c0.11,0.11,0.23,0.22,0.33,0.33c-0.06,0-0.12,0-0.19,0c-0.08-0.05-0.16-0.09-0.24-0.13c0.04,0.05,0.09,0.09,0.13,0.13
			c-0.13,0-0.26,0-0.39-0.01c-0.03,0-0.05,0-0.08-0.01c-0.4-0.1-0.74-0.36-1.15-0.42c-0.1-0.03-0.29-0.08-0.44-0.09
			c0.25,0,0.51,0.03,0.76-0.03C16.99,11.91,16.82,11.88,16.65,11.85z M20.16,14.25c-0.07-0.06-0.14-0.11-0.22-0.16
			c0,0,0-0.01,0-0.01c0-0.01-0.01-0.02-0.01-0.03c-0.02-0.15-0.01-0.31-0.01-0.46c0-0.04,0.01-0.1,0.02-0.15
			c-0.01-0.02-0.01-0.05,0.01-0.07c0.01-0.06,0.02-0.11,0.03-0.17C19.94,13.56,20.03,13.93,20.16,14.25z M18.09,14.12
			c0.01-0.04,0.02-0.09,0.03-0.13c0.06-0.14,0.11-0.28,0.15-0.43c0.07-0.11,0.18-0.19,0.31-0.23c0.29-0.15,0.57-0.02,0.7,0.26
			c0.15,0.28,0.16,0.6,0.29,0.89c0.11,0.26,0.24,0.51,0.37,0.75c-0.77-0.21-1.61-0.19-2.36,0.07c0.17-0.28,0.31-0.57,0.42-0.88
			c0.2-0.22,0.4-0.42,0.69-0.53C18.46,13.91,18.27,14.01,18.09,14.12z M16.35,13.94c-0.34,0.1-0.7,0.08-1.04-0.02
			c-0.29-0.09-0.58-0.24-0.77-0.49c-0.06-0.07-0.09-0.21,0.03-0.24c0.11-0.03,0.23,0.01,0.34,0.03c0.43,0.11,0.85,0.24,1.27,0.36
			c0.12,0.04,0.26,0.07,0.33,0.18C16.55,13.86,16.42,13.91,16.35,13.94z M15.95,16.26c0.1-0.61,0.5-1.19,1.09-1.41
			c0.1-0.04,0.21-0.06,0.31-0.07C17.11,15.43,16.65,16.07,15.95,16.26z M17.25,15.8C17.25,15.79,17.26,15.79,17.25,15.8
			c0.79-0.56,1.99-0.51,2.88-0.22c0.05,0.08,0.1,0.16,0.15,0.25C19.3,15.59,18.25,15.57,17.25,15.8z M21.48,16.2
			c-0.24-0.37-0.61-0.62-1.01-0.79c-0.23-0.32-0.4-0.68-0.48-1.06c-0.02-0.02-0.02-0.04-0.01-0.07c-0.01-0.01-0.02-0.02-0.02-0.03
			c0.19,0.21,0.33,0.47,0.61,0.57c-0.07,0.02-0.14,0.05-0.21,0.08c0.88-0.07,1.56,0.61,1.68,1.45
			C21.84,16.32,21.66,16.27,21.48,16.2z M22.76,16.48c-0.03-0.04-0.07-0.08-0.11-0.11c0,0.03,0,0.07-0.01,0.1
			c-0.11-0.01-0.22-0.04-0.33-0.06l-0.01-0.01c0,0-0.01,0-0.01,0c0.06-0.62-0.33-1.18-0.78-1.56c-0.15-0.14-0.34-0.24-0.49-0.38
			c0.34,0.08,0.63,0.28,0.93,0.44c-0.1-0.17-0.29-0.26-0.43-0.39c0.68,0.17,0.94,0.48,1.66,0.11c-0.1,0.22-0.26,0.39-0.42,0.56
			c0.31-0.13,0.51-0.41,0.75-0.63c-0.09,0.3-0.35,0.5-0.56,0.72c0.27-0.09,0.44-0.31,0.66-0.47c-0.09,0.23-0.29,0.39-0.48,0.54
			c1.31-0.38,0.89-2.02,2.05-1.17c-0.66-2.44-4.45,0.45-5.09-1.28c0.23-0.37,0.67-0.52,1.07-0.62c0.02,0,0.04,0,0.07,0
			c0.02-0.02,0.05-0.02,0.07-0.01l0.01-0.01c0.01,0,0.01,0,0.02,0c0.61,0.04,1.22,0.05,1.82-0.05c0.15,0.01,0.29,0.01,0.44,0.03
			c0.03,0,0.07,0,0.1-0.01c0.02,0,0.03,0.01,0.05,0.02c0.08,0.01,0.15,0.01,0.22,0.02c0.02-0.01,0.05-0.01,0.07,0.01
			c0.06,0.01,0.12,0.02,0.18,0.03c0.43,0.15,0.88,0.42,1,0.89c0.02,0.02,0.02,0.04,0.01,0.07C25.43,14.9,24.65,16.66,22.76,16.48z
			 M21.79,13.93c0.12-0.06,0.26-0.08,0.39-0.11c0.41-0.08,0.82-0.16,1.24-0.23c0.11-0.01,0.26-0.04,0.35,0.06
			c0.04,0.1-0.06,0.19-0.12,0.26c-0.39,0.34-0.95,0.44-1.45,0.36C22.06,14.27,21.49,14.11,21.79,13.93z M26.43,9.74
			c0.43-0.2,0.88-0.36,1.35-0.45c0.17,0.14,0.28,0.34,0.35,0.54c0,0,0.01,0.01,0.02,0.02c0.01,0.08,0.02,0.15,0.03,0.22
			c-0.08-0.13-0.16-0.27-0.26-0.38c0.1,0.62,0.08,1.3-0.22,1.86c0.04-0.34,0.14-0.68,0.09-1.02c-0.15,0.76-0.45,1.57-1.12,2.01
			c0.16-0.27,0.32-0.54,0.37-0.84c-0.21,0.29-0.46,0.58-0.77,0.78c0-0.01,0-0.03,0-0.04c0.01-0.16,0-0.29,0.02-0.47
			c-0.03-0.01-0.07-0.02-0.1-0.03c-0.03,0-0.06,0-0.08-0.01c-0.01,0-0.03,0-0.03-0.01c-0.61-0.07-1.23-0.1-1.84-0.12
			c0.56-0.27,1.14-0.42,1.75-0.26c0.38-0.48,0.8-0.92,1.26-1.33c-0.46,0.17-0.81,0.54-1.15,0.89c0.06-0.16,0.17-0.29,0.27-0.42
			c0.25-0.31,0.55-0.57,0.87-0.8c0.05-0.03,0.09-0.08,0.14-0.12c-0.38,0.15-0.72,0.39-1.02,0.65c0.16-0.28,0.41-0.49,0.64-0.71
			c-0.2,0.05-0.38,0.16-0.56,0.26C26.41,9.89,26.42,9.82,26.43,9.74z M23.1,9.75c0.99,0.13,2.02,0.2,2.95,0.61
			c-1.26-0.23-2.56-0.41-3.84-0.19c1.24,0.03,2.51,0.08,3.71,0.46c-1.61-0.2-3.27-0.3-4.87,0c1.49,0.01,3.02-0.02,4.45,0.44
			c-3.6-0.08-7.25-0.02-10.78,0.74c-0.09,0-0.17,0-0.26,0c1.02-0.43,2.06-0.8,3.13-1.07c-1.23,0.19-2.45,0.44-3.62,0.83
			c1.19-0.62,2.5-1.02,3.81-1.28c-1.32,0.1-2.63,0.4-3.86,0.89c0.44-0.35,0.94-0.6,1.46-0.79c-0.49,0.04-0.99,0.14-1.47,0.25
			c3.94-1.48,8.36-1.61,12.44-0.66C25.27,9.83,24.19,9.76,23.1,9.75z M18.88,7.24c0.24-0.32,0.47-0.65,0.64-1.02
			c0.06-0.12,0.1-0.25,0.17-0.37c0.04,1.07-0.36,2.16-1.05,2.98c0.22-0.55,0.46-1.1,0.56-1.69c-0.27,0.35-0.53,0.73-0.9,0.99
			c0.17-0.41,0.28-0.84,0.34-1.28c-0.19,0.17-0.42,0.28-0.67,0.33c0.61-0.41,1.08-1,1.4-1.66c-0.08,0.64-0.3,1.26-0.59,1.83
			C18.81,7.32,18.85,7.28,18.88,7.24z M20.43,7.84c0.28-0.26,0.58-0.49,0.8-0.8c0.05,0.62-0.2,1.26-0.64,1.69
			C20.76,8.37,20.94,8,21.01,7.6C20.82,7.69,20.64,7.8,20.43,7.84z M11.89,6.92c0.4-1.7,2.77-2.39,4.29-2.61
			c-1.12,0.81-1.36,2.3-1.41,3.6l0.02-0.03c0.2-4.26,5.02-5.52,6.98-1.62c0.35,0.64,0.57,1.35,0.73,2.06
			c0.12-1.67-0.77-3.33-2.22-4.17c2.76-0.19,5.64,0.1,5.73,3.52c-0.18-1.04-0.57-2.39-1.7-2.75c0.47,0.59,0.76,1.31,0.9,2.05
			c-0.42-0.63-1.08-1.08-1.8-1.3c0.89,0.61,1.48,1.67,1.41,2.76c-0.05-0.35-0.18-0.69-0.33-1c0.09,0.49,0.11,1.14-0.36,1.45
			c-0.14,0.09-0.31,0.08-0.47,0.1c-0.75,0.05-1.5,0.05-2.25,0.04c0.04-0.16,0.04-0.33,0-0.49c-0.03-0.08,0.03-0.16,0.07-0.23
			c0.31-0.63,0.24-1.41-0.1-2.01c-0.16,0.28-0.4,0.5-0.67,0.68c-0.13-0.19-0.3-0.36-0.46-0.52c-0.05-0.7-0.3-1.39-0.74-1.93
			c-0.15,0.49-0.43,0.95-0.84,1.26c-1.34-0.03-2.31,0.84-2.69,2.09c0.04-0.71,0.27-1.4,0.64-2c-0.39,0.34-0.64,0.8-0.86,1.26
			c-0.01-0.64,0.14-1.25,0.33-1.86c-0.87,1.32-1.04,2.97-0.93,4.51c-0.01,0.01-0.04,0.02-0.05,0.03c-0.81,0.21-1.59,0.54-2.3,0.98
			c-0.03,0.04-0.07,0.06-0.11,0.08C12.32,9.72,11.72,8.15,11.89,6.92z M10.9,8.53c0.29,0.08,0.57,0.2,0.84,0.33
			c0.06,0.01,0.1,0.05,0.14,0.09c0.01,0.06,0.02,0.12,0.02,0.18c-0.08-0.03-0.16-0.07-0.24-0.1c0.2,0.23,0.43,0.44,0.55,0.73
			c-0.28-0.26-0.56-0.53-0.91-0.69c0.45,0.44,0.93,0.88,1.15,1.48c-0.3-0.4-0.63-0.81-1.09-1.03c0.08,0.11,0.19,0.19,0.28,0.29
			c0.55,0.58,0.62,1.42,1.01,2.08c-0.02,0-0.05,0-0.08,0c-0.16-0.09-0.3-0.21-0.42-0.35c0.06,0.14,0.15,0.26,0.25,0.37
			c-0.06,0-0.12-0.01-0.18,0.01c-0.21-0.14-0.4-0.33-0.56-0.53c-0.09-0.12-0.16-0.26-0.25-0.37c0.02,0.3,0.17,0.58,0.28,0.85
			c-0.62-0.5-0.84-1.33-0.92-2.1c-0.07,0.34-0.02,0.69,0,1.03c-0.26-0.59-0.21-1.26-0.06-1.87c-0.12,0.1-0.21,0.22-0.29,0.35
			C10.48,8.98,10.67,8.71,10.9,8.53z M5.23,13.4c0.27-1.49,3.4-2.34,4.72-2.45c-0.54,0.14-1.1,0.24-1.61,0.48
			c0.55-0.15,1.1-0.27,1.67-0.3c-0.57,0.09-1.14,0.26-1.68,0.48c0.55-0.12,1.11-0.27,1.67-0.3c-1.25,0.3-3.65,0.94-3.97,2.37
			c0.2-0.29,0.48-0.52,0.8-0.66c-0.17,0.65,0.23,0.78,0.79,0.64c-0.1,0.14-0.25,0.23-0.4,0.32c1.21-0.13,2.29-0.76,3.33-1.34
			c-0.23,0.19-0.49,0.34-0.73,0.52c0.3-0.1,0.57-0.25,0.86-0.37c-0.61,0.39-1.25,0.73-1.91,1.02c-0.92,0.37-2.32,0.84-3.23,0.26
			C5.34,13.92,5.2,13.66,5.23,13.4z"/>
	</g>
</g>
</svg>
