<?xml version="1.0" encoding="utf-8"?>
<!-- Generator: Adobe Illustrator 25.3.1, SVG Export Plug-In . SVG Version: 6.00 Build 0)  -->
<svg version="1.1" id="Capa_1" xmlns="http://www.w3.org/2000/svg" xmlns:xlink="http://www.w3.org/1999/xlink" x="0px" y="0px"
	 width="33.7px" height="30px" viewBox="0 0 33.7 30" style="enable-background:new 0 0 33.7 30;" xml:space="preserve">
<style type="text/css">
	.st0{fill:#E42320;}
	.st1{fill:#FFFFFF;}
	.st2{fill:#020202;}
</style>
<g>
	<circle class="st0" cx="14.3" cy="12.1" r="11.1"/>
	<path class="st1" d="M28,6.5c-0.1,0-0.1,0-0.2,0c0-0.2,0-0.4-0.2-0.5c-0.3-0.6-0.9-0.8-1.4-1.1C26,4.9,25.7,5,25.5,5.1
		c-0.3,0.1-0.5,0.2-0.8,0.3c-0.2,0.4-0.6,0.5-0.8,0.4c-1.9-1-3.8-2.4-5.9-2.1c-1.1,0.2-2.1-0.1-3.2,0.2c-0.3,0-0.5,0.1-0.8,0.1
		c-1.5,0.4-3,1.3-4.2,2.4c-0.2,0.1-0.3,0-0.5-0.1C9.1,6.2,8.9,6.1,8.7,5.8C8.5,5.7,8.3,5.6,8,5.6C7.7,5.6,7.5,5.6,7.2,5.5
		C6.7,5.8,6.1,6.2,5.9,6.8C5.8,6.9,5.7,7.1,5.8,7.3c-0.1,0-0.1,0-0.2,0.1c0,0.4,0,0.9,0.1,1.3C5.7,9.2,6,9.8,6.3,10.3
		c0.1,0,0.1,0,0.2,0c0.1,0.1,0.3,0.1,0.4,0.2c0.1,0.1,0.1,0.3,0,0.5c0,0,0,0,0,0c-0.1,0.1-0.1,0.3-0.1,0.5c0.1,0.1,0.1,0.2,0.1,0.3
		c-0.1,0.6-0.1,1.1,0,1.7c0,0,0.1,0,0.1,0.1c-0.1,0.6-0.1,1.2-0.1,1.9c0,1.1,0.1,2.1,0.3,2.9c0,0.3,0,0.6-0.1,0.9
		c0.1,0.6,0.2,1.2,0.3,1.7c0.1,0.3,0.1,0.6,0.2,0.8C8,23,8.6,24,9.7,24.7c0.2,0.2,0.5,0.3,0.8,0.5c0.3,0.1,0.6,0.3,1,0.3
		c0.2,0.1,0.3,0.2,0.5,0.3c0.5,0.3,0.9,0.5,1.4,0.8c0,0.3-0.1,0.5-0.1,0.8c0.6,0.4,1.3,0.9,2,1.3c0,0,0,0,0,0l0,0l0.3,0.1l0-0.1
		c0.1,0,0.1,0.1,0.2,0.1c0.1,0.1,0.1,0.2,0.2,0.3c0.1,0,0.1,0.1,0.2,0.1c0,0,0,0-0.1,0.1c0.1,0.1,0.1,0.1,0.2,0.2
		c0.1-0.1,0.2-0.1,0.3,0c0,0,0.1,0.1,0.1,0.1c0.3-0.1,0.6-0.4,1-0.6c0,0.1,0,0.1,0,0.2c0.1-0.1,0.3-0.2,0.5-0.3c-0.1,0-0.1,0-0.2,0
		c0.1-0.1,0.2-0.1,0.3-0.2l0.4,0l-0.1-0.2c0.5-0.3,1-0.6,1.5-0.9c0.2-0.2,0.6-0.2,0.6-0.5c0.1-0.2-0.1-0.3-0.2-0.5
		c0,0,0.4-0.2,1-0.5c0.2-0.1,0.4-0.2,0.6-0.3c2.1-0.6,3.8-2,4.4-4.1c0.1,0,0.2,0.1,0.3,0.1c0.2-0.8,0.3-1.7,0.4-2.5
		c0.1-0.2,0.1-0.4,0.1-0.7c0-0.3-0.1-0.6-0.2-0.9c0.2-0.8,0.3-1.8,0.3-2.9c0-1-0.1-2-0.3-2.8c0.1,0,0.1,0,0.2,0.1
		c0-0.7-0.2-1.4-0.5-1.9c0.2-0.2,0.5-0.3,0.7-0.4c0.4-0.7,0.8-1.4,0.9-2.2C28.1,7.4,28.1,6.9,28,6.5z"/>
	<g>
		<path class="st2" d="M14,12c0.3,0,0.6,0.1,0.9,0.1c-0.7-0.2-1.3-0.3-1.9-0.6c0.8,0.1,1.5,0.3,2.3,0.3c-0.3-0.1-0.6-0.2-0.9-0.3
			l0,0c0,0-0.1-0.1-0.2-0.1c0.5,0.1,0.9,0.2,1.4,0.2c0.2-0.1,0.1-0.3,0.2-0.4c-0.1,0-0.2,0-0.3,0c-1.9-0.4-3.6-0.9-5.3-1.6
			c-0.1,0-0.2-0.1-0.4-0.1c0,0-0.1,0.1-0.1,0.1c0.3,0.2,0.5,0.3,0.8,0.5C10.1,10,9.9,9.9,9.6,9.8c-0.1,0.4-0.3,0.9,0,1.3
			C10.9,11.5,12.4,11.8,14,12L14,12z"/>
		<path class="st2" d="M18.4,20c0,0.1,0.1,0.1-0.1,0.1c-0.1,0-0.3,0.1-0.4,0.1c-0.3,0.1-0.5,0.1-0.8,0.2c-0.6,0.1-1.1,0.2-1.7,0.2
			c-0.4,0-0.4,0.4,0,0.4c0.8-0.1,1.6-0.2,2.3-0.3c0.3-0.1,0.8-0.1,1-0.3c0.3-0.1,0.3-0.4,0.2-0.6C18.9,19.6,18.3,19.7,18.4,20z"/>
		<path class="st2" d="M9.1,8.3C9.1,8.3,9.1,8.3,9.1,8.3C9,8.2,8.9,8.1,8.7,8.1C8.8,8.2,8.9,8.2,9.1,8.3z"/>
		<path class="st2" d="M16.6,19.6L16.6,19.6c0.1,0.1,0.2,0.1,0.3,0.1c0,0,0,0,0.1,0c0,0,0,0,0.1,0c0.1,0,0.2,0,0.3-0.1l0,0
			c0.6-0.2,1.2-0.9,1.5-1.5c0,0,0-0.1,0-0.1c0,0,0,0,0,0.1c0-0.2-0.1-0.4-0.4-0.5c-0.1,0-0.2-0.1-0.2-0.1c-0.1,0-0.3,0-0.4,0
			c-0.4,0-0.7,0.1-1,0.1c-0.3,0-0.6-0.1-1-0.1c-0.1,0-0.1,0-0.2,0c0,0,0-0.1,0-0.1c0,0,0-0.1,0-0.1c-0.2,0-0.3,0.1-0.4,0.2
			c-0.1,0.1-0.2,0.3-0.3,0.4c0,0.1-0.1,0.1-0.1,0.1c0,0,0,0,0,0.1c0,0.1,0,0.2,0,0.3c0,0,0,0,0,0c0,0,0,0.1,0,0.1c0,0,0,0.1,0,0.1
			c0,0,0.1-0.1,0.1-0.1C15.5,18.9,16,19.4,16.6,19.6z"/>
		<path class="st2" d="M15.7,27.2C15.7,27.2,15.8,27.2,15.7,27.2c0.1-0.1,0.1-0.2,0.1-0.3c0,0,0,0-0.1,0
			C15.7,27,15.7,27.1,15.7,27.2z"/>
		<path class="st2" d="M21.1,22.6c-0.1,0.1-0.2,0.2-0.4,0.2C20.9,22.8,21,22.7,21.1,22.6z"/>
		<path class="st2" d="M18.5,27c0-0.1,0.1-0.2,0.1-0.3c0,0,0,0,0-0.1c-0.1,0-0.1,0-0.2,0C18.5,26.8,18.5,26.9,18.5,27z"/>
		<path class="st2" d="M16.4,21.4c0.4-0.1,0.8-0.2,1.3-0.1c0.2-0.1,0.4-0.1,0.5-0.2c-0.7,0-1.6-0.1-2.2,0.4
			C16.1,21.4,16.3,21.4,16.4,21.4z"/>
		<path class="st2" d="M18.2,23c-0.5-0.5-1.1-0.8-1.8-0.9c0.1,0.1,0.1,0.1,0.2,0.2c-0.1-0.1-0.3,0-0.5,0.1c0,0,0,0,0,0
			c0,0.1,0,0.1,0.1,0.2c0,0,0,0,0,0c0,0,0,0,0,0c0.1,0.2,0.1,0.4,0.1,0.7c0,0,0.1,0,0.1,0.1c0.4,0.1,0.5,0.4,0.5,0.8
			c0.1,0.1,0.1,0.2,0.1,0.3c0.1,0,0.1,0,0.2,0c0-0.3,0.1-0.6,0.2-1c0,0.2,0.2,0.3,0.2,0.6c0.1-0.5,0-0.9,0-1.4
			C17.8,22.8,18,22.9,18.2,23z"/>
		<path class="st2" d="M13.4,22.3C13.4,22.3,13.4,22.3,13.4,22.3c0.1,0.2,0.3,0.4,0.4,0.5C13.7,22.7,13.5,22.5,13.4,22.3z"/>
		<path class="st2" d="M15.5,24.3c-0.1,0.2-0.2,0.4-0.2,0.6C15.4,24.7,15.4,24.5,15.5,24.3z"/>
		<path class="st2" d="M29.4,13.6c0-0.2,0-0.3-0.1-0.3c0.1-0.2,0.1-0.4-0.1-0.6c-0.8-0.6-1.5-1.4-2-2.4c-0.2-0.4-0.8-0.1-0.6,0.4
			c0.5,0.9,1.1,1.7,1.9,2.4c-0.5-0.1-1.1-0.2-1.6-0.3c0.1-1-0.2-1.8-0.5-2.4c0.2-0.2,0.5-0.3,0.7-0.4c0.4-0.7,0.8-1.4,0.9-2.2
			c0.1-0.4,0-0.9,0-1.3c-0.1,0-0.1,0-0.2,0c0-0.2,0-0.4-0.2-0.5c-0.3-0.6-0.9-0.8-1.4-1.1C26,4.9,25.7,5,25.5,5.1
			c-0.3,0.1-0.5,0.2-0.8,0.3c-0.2,0.4-0.6,0.5-0.8,0.4c-1.9-1-3.8-2.4-5.9-2.1c-1.1,0.2-2.1-0.1-3.2,0.2c-0.3,0-0.5,0.1-0.8,0.1
			c-1.5,0.4-3,1.3-4.2,2.4c-0.2,0.1-0.3,0-0.5-0.1C9.1,6.2,8.9,6.1,8.7,5.8C8.5,5.7,8.3,5.6,8,5.6C7.7,5.6,7.5,5.6,7.2,5.5
			C6.7,5.8,6.1,6.2,5.9,6.8C5.8,6.9,5.7,7.1,5.8,7.3c-0.1,0-0.1,0-0.2,0.1c0,0.4,0,0.9,0.1,1.3c0.2,0.9,0.7,1.8,1.3,2.5
			c-0.2,0.5-0.3,1-0.3,1.7c-0.4,0.1-0.9,0.2-1.3,0.2c0.5-0.5,1-1,1.4-1.6c0.3-0.4-0.2-0.9-0.5-0.5c-0.6,0.7-1.2,1.4-1.9,2
			c-0.1,0.1-0.1,0.3,0,0.4c-0.1,0.2-0.1,0.4,0,0.8c0,0.1,0.1,0.2,0.2,0.3c0.2,0.1,0.4,0.3,0.5,0.6c0.2,0.6,0.5,1.3,0.7,1.9
			c0.3,0.7,0.7,1.3,1.4,1.6c0.1,0.8,0.2,1.6,0.4,2.4c0.1,0.3,0.1,0.6,0.2,0.8C8,23,8.6,24,9.7,24.7c0.2,0.2,0.5,0.3,0.8,0.5
			c0.3,0.1,0.6,0.3,1,0.3c0.2,0.1,0.3,0.2,0.5,0.3c0.5,0.3,0.9,0.5,1.4,0.8c0,0.3-0.1,0.5-0.1,0.8c0.6,0.4,1.3,0.9,2,1.3
			c0,0,0,0,0,0l0,0l0.3,0.1l0-0.1c0.1,0,0.1,0.1,0.2,0.1c0.1,0.1,0.1,0.2,0.2,0.3c0.1,0,0.1,0.1,0.2,0.1c0,0,0,0-0.1,0.1
			c0.1,0.1,0.1,0.1,0.2,0.2c0.1-0.1,0.2-0.1,0.3,0c0,0,0.1,0.1,0.1,0.1c0.3-0.1,0.6-0.4,1-0.6c0,0.1,0,0.1,0,0.2
			c0.1-0.1,0.3-0.2,0.5-0.3c-0.1,0-0.1,0-0.2,0c0.1-0.1,0.2-0.1,0.3-0.2l0.4,0l-0.1-0.2c0.5-0.3,1-0.6,1.5-0.9
			c0.2-0.2,0.6-0.2,0.6-0.5c0.1-0.2-0.1-0.3-0.2-0.5c0,0,0.4-0.2,1-0.5c0.2-0.1,0.4-0.2,0.6-0.3c2.1-0.6,3.8-2,4.4-4.1
			c0.1,0,0.2,0.1,0.3,0.1c0.3-1,0.3-2,0.5-3c0-0.2,0-0.3,0-0.5c0.4-0.3,0.7-0.6,0.9-1.1c0.3-0.8,0.6-1.5,0.9-2.3
			c0.1-0.2,0.2-0.3,0.3-0.4c0.2-0.1,0.3-0.3,0.3-0.6C29.4,13.9,29.4,13.8,29.4,13.6z M26.2,18.5c-0.8,0.3-1.6,0.4-2.5,0.4
			c-1,0-2-0.2-3-0.5c-0.5-0.2-0.9-0.5-1.3-0.9c-0.1-0.2-0.2-0.3-0.3-0.5c0.1,0.1,0.2,0.1,0.4,0.2c-0.2-0.2-0.4-0.4-0.6-0.6
			c0,0,0,0,0,0c0.9,0.2,1.4,0.7,2.4,0c-0.1,0.3-0.3,0.5-0.4,0.8c0.3-0.2,0.6-0.6,0.9-0.9c-0.1,0.5-0.5,0.8-0.7,1.1
			c0.4-0.1,0.6-0.5,0.9-0.7c-0.1,0.3-0.4,0.5-0.5,0.8c0.8-0.3,1.2-1.1,1.5-1.8c0.3-0.5,0.9-0.2,1.2,0c-0.7-2.3-3.3-1.3-4.8-0.9
			C19,14.9,18.8,15,18.5,15c0-0.1,0-0.2,0-0.3c0-0.6,0.3-1,0.8-1.3c0.6-0.3,1.3-0.4,1.9-0.5c0.4,0,0.8-0.1,1.2-0.1
			c1.3-0.1,2.6,0,3.9,0.3c0,0,0,0.1,0,0.2c0,0,0,0,0,0.1c0.3,0.7,0.3,1.4,0.3,2.1c0,0.6-0.1,1.3-0.3,1.9c0,0.1,0,0.1,0,0.2
			c0,0.1,0,0.2,0,0.3c0,0,0,0,0,0.1c0,0.1,0,0.1,0,0.2c0,0.1,0,0.2,0,0.3C26.3,18.4,26.3,18.4,26.2,18.5
			C26.2,18.5,26.2,18.5,26.2,18.5z M19.2,15.8c0.1-0.2,0.3-0.2,0.5-0.3c0.6-0.2,1.2-0.3,1.8-0.5c0.2,0,0.3-0.1,0.5,0
			c0.1,0.1,0.1,0.3,0,0.4c-0.3,0.3-0.7,0.6-1.1,0.7c-0.5,0.1-1,0.1-1.5,0v0C19.3,16,19.1,15.9,19.2,15.8z M27.3,9.3c0,0,0-0.1,0-0.1
			c0-0.1,0-0.3,0.1-0.3C27.4,9,27.4,9.1,27.3,9.3z M6.3,9.5c0.1,0.1,0.2,0.2,0.2,0.3c0,0,0,0.1,0,0.1C6.4,9.8,6.3,9.7,6.3,9.5z
			 M7.4,12c0.1,0,0.1,0.1,0.1,0.1c0,0,0,0,0,0.1c0,0,0.1-0.1,0.1-0.1c0.2-0.7,0.6-1.4,1.1-1.9c0,0,0,0,0,0c-0.2,0-0.5-0.2-0.7-0.3
			C8,9.8,8,9.7,8,9.7L8,9.3c0,0-0.1,0.1-0.2,0.2c0,0-0.1-0.1-0.1-0.1c0,0,0,0.1,0.1,0.1C7.7,9.7,7.7,9.8,7.6,9.8
			C7.2,9.5,6.9,9,6.7,8.5c0.1,0.4,0.3,0.7,0.4,1.1C6.7,9,6.5,8.4,6.4,7.8c0,0,0-0.1-0.1-0.1c0,0.1-0.1,0.2-0.1,0.3
			c0-0.2,0-0.3,0-0.5c0,0,0,0,0,0c0-0.2,0.1-0.5,0.1-0.7c0,0-0.1,0-0.1,0c0,0,0,0,0,0c0.2-0.3,0.4-0.5,0.8-0.6C7.1,6,7.3,6,7.5,6
			c0.2,0,0.4,0.1,0.6,0.1c0.5,0.2,1.1,0.4,1.4,1C9.5,7.1,9.7,7,9.8,7C9.9,7.1,10,7.3,10,7.5c1-1.4,2.5-2.3,4.1-2.7
			c0.3-0.1,0.5-0.1,0.8-0.2c2.8-0.5,6.5-0.3,8.5,2.2c0.1,0.1,0.4-0.3,0.8-0.3c0.1,0,0.2-0.2,0.2-0.4c0.2-0.1,0.3-0.2,0.5-0.3
			c0.5-0.3,1.1-0.7,1.7-0.4c0.4,0.1,0.6,0.3,0.8,0.6c0,0,0,0,0,0c0,0-0.1,0-0.1,0c0.1,0.2,0.1,0.5,0.2,0.7c0,0,0,0,0,0
			c0,0.2,0,0.4,0,0.5c0-0.1-0.1-0.2-0.1-0.3c0,0,0,0.1-0.1,0.2c-0.1,0.6-0.2,1.2-0.6,1.7c0.1-0.3,0.3-0.7,0.3-1.1
			c-0.2,0.6-0.6,1.3-1.1,1.7c0,0-0.1-0.1-0.1-0.1C25.9,9.2,26,9,26,8.9c-0.1,0.1-0.2,0.2-0.3,0.3c-0.1-0.1-0.2-0.2-0.2-0.2l0.1,0.2
			c-0.2,0.2-0.4,0.3-0.6,0.3c0,0-0.1,0-0.1-0.1c0.1-0.1,0.2-0.2,0.3-0.3c-0.1,0.1-0.3,0.2-0.5,0.3l-0.1,0c0,0,0,0,0,0
			c-0.1,0-0.2,0.1-0.3,0.2l0,0.1c0.1-0.1,0.3-0.1,0.5,0c0.5,0.5,0.8,1.2,1,1.8c0,0,0,0,0,0c0,0,0.1,0,0.1-0.1c0-0.1,0-0.2,0-0.4
			l0.4,1.5c-0.3-0.1-0.7-0.1-1-0.1c-0.4,0-0.8-0.1-1.2-0.1c0,0,0-0.1,0.1-0.1c0,0-0.1,0-0.2,0c-0.5,0-1,0-1.5,0
			c0.5,0,1.1-0.1,1.6-0.2c0.2-0.1,0.1-0.2,0.2-0.3c-0.3,0.1-0.6,0.1-0.9,0.2c-0.2,0-0.3,0-0.5,0c0.4-0.1,0.8-0.2,1.2-0.3
			c0.1,0,0.2-0.1,0.2-0.1c0-0.2,0-0.4-0.1-0.7C24.1,11,24,11,23.8,11C22,11.5,20,11.8,18,12c0,0-0.1,0-0.1,0c0.1,0.2,0,0.4,0.1,0.5
			c0.3,0,0.6,0,0.9,0c-0.3,0.1-0.5,0.1-0.8,0.1c-0.2,0-0.1,0.1-0.1,0.2c0.4,0.1,0.9,0.1,1.3,0.1c0,0,0,0,0,0
			c-0.4,0.1-0.8,0.2-1.2,0.4c-0.9,0.4-1.9,0.3-2.8,0c-1.6-0.6-3.3-0.9-5-0.9c-1.1,0-2.1,0.1-3.1,0.2L7.4,12z M7.9,10.1l0.1-0.2
			C8,10,8.2,10.1,8.3,10.3C8.1,10.2,8,10.1,7.9,10.1z M25.7,9.6c-0.1,0-0.1,0.1-0.2,0.1C25.5,9.6,25.6,9.6,25.7,9.6L25.7,9.6z
			 M14.4,14.8c-1.6-0.4-4.2-1.4-4.8,0.9c0.4-0.3,1-0.6,1.2,0c0.3,0.8,0.7,1.5,1.5,1.8c-0.2-0.3-0.5-0.5-0.5-0.8
			c0.3,0.3,0.5,0.6,0.9,0.7c-0.3-0.4-0.6-0.7-0.7-1.1c0.3,0.3,0.5,0.7,0.9,0.9c-0.1-0.3-0.3-0.5-0.4-0.8c1,0.6,1.4,0.2,2.4,0
			c-0.2,0.3-0.4,0.4-0.6,0.7c0.1-0.1,0.2-0.1,0.4-0.2c-0.2,0.3-0.4,0.6-0.7,0.9c-0.4,0.4-1,0.6-1.6,0.8c-1.5,0.4-2.9,0.4-4.4,0
			c-0.1,0-0.2,0-0.2-0.1c0-0.2-0.1-0.4-0.1-0.7c0,0,0,0.1,0.1,0.1c0,0,0,0,0-0.1c0.2-0.7-0.1-1.5-0.3-2.2c-0.1-0.6-0.2-1.2,0-1.7
			c0,0,0,0,0,0c0-0.2,0-0.4,0-0.5c0,0-0.1,0-0.1,0l0.1-0.2c1.1-0.3,2.2-0.4,3.4-0.4c1.1,0,2.3,0.1,3.4,0.5c0.2,0.1,0.3,0.1,0.5,0.2
			c0.6,0.3,0.9,0.7,0.8,1.3c0,0.1,0,0.2,0,0.3C14.9,15,14.6,14.9,14.4,14.8z M14.3,16.1L14.3,16.1c-0.5,0.2-1,0.1-1.5,0
			c-0.4-0.1-0.8-0.3-1.1-0.7c-0.1-0.1-0.1-0.3,0-0.4c0.2,0,0.3,0,0.5,0c0.6,0.1,1.2,0.3,1.8,0.5c0.2,0,0.4,0.1,0.5,0.3
			C14.5,15.9,14.4,16,14.3,16.1z M6.1,17.2c-0.3-0.8-0.5-1.7-0.5-2.6c0-0.7,0.3-1,1-1.3c0,0,0.1,0,0.1,0c0,0.1,0,0.2,0,0.2
			c0,0,0,0-0.1,0c0.2,1.6,0.2,3.2,0.4,4.8C6.6,18,6.3,17.7,6.1,17.2z M20.1,27.1c-0.1,0-0.1-0.2-0.1-0.2
			C20.2,26.8,20.2,27,20.1,27.1z M26.2,19.1c-0.1,2.8-1.7,5.5-4.7,6.4c-0.1,0.1-0.3,0.2-0.5,0.3c-0.5,0.3-1.1,0.6-1.1,0.6
			c-0.1-0.2-0.2-0.4-0.3-0.6c0,0,0,0,0,0c0.5-0.5,1.1-1,1.4-1.5c0.2-0.2,0.4-0.5,0.5-0.7c0.4-0.8,0.6-1.7,0.2-2.8
			c-0.1-0.3-0.3-0.6-0.4-0.8c-0.1-0.2-0.2-0.5-0.3-0.7c-0.1-0.2-0.3-0.4-0.5-0.5c0.1,0.2,0.2,0.4,0.4,0.6c0.2,0.5,0.5,1.1,0.6,1.6
			c0.1,0.3,0.1,0.6,0,0.8c0,0.3-0.1,0.7-0.3,0.9c0.2-0.1,0.3-0.2,0.4-0.4c-0.5,1.2-1,3-2.1,3.2c-0.1-0.1-0.1-0.2-0.2-0.3
			c0.1,0.5,0.2,1,0.2,1.6c0.1,0.2,0.1,0.4,0,0.6c-0.2,0.1-0.4,0.3-0.6,0.4c0,0,0,0.1,0,0.1c0,0.3-0.4,0.4-0.6,0.3
			c-0.1,0-0.1,0.1-0.2,0.1l-0.5-1.6l0.2,1.8c-0.3,0.2-0.5,0.3-0.8,0.5C17,29,16.8,29,16.7,29l0,0c0,0-0.1,0-0.2,0.1
			c-0.3-0.2-0.5-0.3-0.8-0.5c0,0,0-0.1,0-0.1c-0.1,0-0.2,0-0.3,0l0.2-2.2l-0.4,2c-0.3-0.2-0.7-0.5-1-0.7c-0.1-0.3,0-0.6-0.1-0.9
			c-0.1,0.2-0.2,0.5-0.2,0.7c-0.1-0.1-0.2-0.1-0.2-0.3c0-0.6,0.1-1.3,0.2-1.9c0,0,0,0,0,0c0,0,0,0,0,0c0.1-0.3,0.1-0.6,0.2-0.9
			c0,0-0.1,0-0.1,0c-0.1,0.2-0.2,0.5-0.3,0.7c0,0,0,0,0,0c-0.5-0.5-0.9-1.1-1.1-1.8c-0.1-0.2-0.2-0.5-0.2-0.7
			c-0.1-0.2-0.1-0.5-0.2-0.7c0.2,0.1,0.3,0.3,0.4,0.4c0,0,0,0,0-0.1c-0.2-0.3-0.3-0.6-0.3-1c-0.1-0.8,0.1-1.8,0.6-2.4
			c-0.4-0.1-0.7,0.2-0.8,0.7c0.1-0.1,0.2-0.2,0.3-0.4c-0.2,0.9-0.9,1.6-0.7,2.7l0.1-0.1c0.3,0.5,0.5,0.9,0.5,1.5
			c0-0.1,0.1-0.1,0.1-0.2c0.1,0.3,0.2,0.5,0.3,0.7c0.3,0.5,0.7,1,1,1.5c-0.1,0.2-0.1,0.5-0.2,0.7l0,0.1c-0.2-0.1-0.5-0.3-0.7-0.4
			c0-0.1,0-0.1,0-0.2c-0.2,0-0.3,0-0.5-0.1c0,0,0,0,0,0c-0.2-0.1-0.4-0.2-0.6-0.4c-0.3-0.1-0.7-0.2-0.9-0.3
			c-0.3-0.1-0.5-0.3-0.7-0.5c-0.7-0.6-1.2-1.3-1.5-2.1c-0.1-0.3-0.2-0.5-0.3-0.8c-0.2-0.9-0.5-1.7-0.7-2.5C7.8,18.9,7.9,19,8.1,19
			c1.5,0.3,3,0.1,4.4-0.2c1.1-0.2,2-0.9,2.4-2c0-0.1,0.1-0.2,0.1-0.3c0.1,0,0.1-0.1,0.2-0.1c0,0,0,0,0.1,0c0.2-0.5,0.3-1,0.3-1.5
			c0-0.1,0-0.1,0.1-0.2c0.1-0.4,0.3-0.6,0.8-0.6c0.1,0,0.3,0,0.4,0c0.7,0,0.9,0.2,1.1,0.8c0,0,0,0,0,0c0,0.5,0.1,1,0.3,1.4
			c0,0,0,0,0.1,0c0,0,0.1,0,0.1,0c0.1,0.2,0.1,0.3,0.2,0.5c0.5,1,1.2,1.4,2.3,1.8c0.9,0.3,1.7,0.4,2.7,0.4c0.7,0,1.5-0.1,2.2-0.3
			c0.1,0,0.2-0.1,0.3-0.1C26.2,18.9,26.2,19,26.2,19.1z M27.4,17.5c-0.1,0.2-0.3,0.4-0.4,0.5c0-0.2,0-0.4,0-0.6c0-0.2,0-0.5,0-0.7
			c0-0.2,0-0.5,0-0.7c0-0.2,0.1-0.4,0.1-0.7c0.1-0.7,0.1-1.4,0-2c0.7,0.2,1,0.6,1,1.3C28.1,15.6,27.9,16.6,27.4,17.5z"/>
	</g>
</g>
</svg>
