<?xml version="1.0" encoding="utf-8"?>
<!-- Generator: Adobe Illustrator 25.3.1, SVG Export Plug-In . SVG Version: 6.00 Build 0)  -->
<svg version="1.1" id="Capa_1" xmlns="http://www.w3.org/2000/svg" xmlns:xlink="http://www.w3.org/1999/xlink" x="0px" y="0px"
	 width="39.8px" height="27.9px" viewBox="0 0 39.8 27.9" style="enable-background:new 0 0 39.8 27.9;" xml:space="preserve">
<style type="text/css">
	.st0{fill:#7134BF;}
	.st1{fill:#FFFFFF;}
	.st2{fill:#01D2D7;}
</style>
<polygon class="st0" points="30.8,3.1 6,3 0.3,17.5 5.5,22.7 28.7,22.8 34.2,6.6 "/>
<path d="M18.3,24.2C18.3,24.2,18.3,24.2,18.3,24.2L7.4,24.1c-0.1,0-0.2,0-0.3-0.1l-5.3-5.4c-0.1-0.1-0.1-0.2-0.1-0.4L7.6,3.1
	C7.6,3,7.7,2.9,7.9,2.9c0,0,0,0,0,0l24.6,0.1c0.2,0,0.4,0.2,0.4,0.4c0,0.2-0.2,0.4-0.4,0.4c0,0,0,0,0,0L8.1,3.6L2.4,18.2l5.1,5.1
	l10.8,0.1c0.2,0,0.4,0.2,0.4,0.4C18.7,24,18.5,24.2,18.3,24.2z"/>
<path d="M33.7,18.1c0,0-0.1,0-0.1,0c-0.2-0.1-0.3-0.3-0.2-0.5l2.1-6.4c0.1-0.2,0.3-0.3,0.5-0.2c0.2,0.1,0.3,0.3,0.2,0.5L34,17.9
	C34,18,33.8,18.1,33.7,18.1z"/>
<g>
	<g>
		<path d="M16.9,13.4l-2.4,0.3c-1.1,0.1-1.8,1.1-1.7,2.2l0.4,3.1c0.1,1.1,1.1,1.8,2.2,1.7l2.4-0.3c0.6-0.1,1.2,0,1.7,0.1l8.4,2.1
			L26.1,8.6l-7.5,4.3C18.1,13.2,17.5,13.4,16.9,13.4z"/>
		<path d="M28.7,23.5l-9.2-2.3c-0.5-0.1-1-0.2-1.5-0.1l-2.4,0.3c-0.7,0.1-1.4-0.1-1.9-0.5c-0.5-0.4-0.9-1-1-1.7l-0.4-3.1
			c-0.2-1.4,0.8-2.7,2.2-2.9l2.4-0.3c0.5-0.1,1-0.2,1.4-0.5l8.3-4.7L28.7,23.5z M18.5,19.8c0.4,0,0.9,0.1,1.3,0.2l7.6,1.9L25.6,9.6
			l-6.8,3.8c-0.6,0.3-1.2,0.5-1.9,0.6l-2.4,0.3c-0.8,0.1-1.3,0.8-1.2,1.5l0.4,3.1c0.1,0.8,0.8,1.3,1.5,1.2l2.4-0.3
			C18,19.9,18.2,19.8,18.5,19.8z"/>
	</g>
	<g>
		<path d="M12.8,15.8l-0.6,0.1c-0.6,0.1-1.1,0.7-1,1.3l0.2,1.2c0.1,0.6,0.7,1.1,1.3,1l0.6-0.1L12.8,15.8z"/>
		<path d="M12.5,20c-0.4,0-0.8-0.1-1.1-0.4c-0.4-0.3-0.6-0.7-0.7-1.2l-0.2-1.2c-0.1-1,0.6-1.9,1.5-2l1.2-0.2l0.6,4.7L12.7,20
			C12.6,20,12.6,20,12.5,20z M12.2,16.5c-0.3,0-0.6,0.3-0.5,0.7l0.2,1.2c0,0.2,0.1,0.3,0.2,0.4c0.1,0.1,0.3,0.1,0.4,0.1L12.2,16.5z"
			/>
	</g>
	<g>
		<path class="st1" d="M15.2,20.8l0.5,3.5c0.1,1,1,1.7,2,1.5l0,0c1-0.1,1.7-1,1.5-2l-0.5-3.5L15.2,20.8z"/>
		<path d="M17.4,26.5c-0.5,0-1-0.2-1.4-0.5c-0.5-0.4-0.8-0.9-0.9-1.6l-0.5-4.1l4.7-0.6l0.5,4.1c0.1,0.6-0.1,1.2-0.5,1.7
			c-0.4,0.5-0.9,0.8-1.6,0.9C17.7,26.5,17.5,26.5,17.4,26.5z M15.9,21.3l0.4,2.9c0,0.3,0.2,0.6,0.5,0.8c0.3,0.2,0.6,0.3,0.9,0.2
			c0.3,0,0.6-0.2,0.8-0.5c0.2-0.3,0.3-0.6,0.2-0.9L18.2,21L15.9,21.3z"/>
	</g>
	<g>
		<g>
			<path class="st2" d="M18.3,16.8c-0.2-1.4-0.1-2.7,0.1-3.8c-0.5,0.2-0.9,0.4-1.4,0.4l-2.4,0.3c-1.1,0.1-1.8,1.1-1.7,2.2l0.4,3.1
				c0.1,1.1,1.1,1.8,2.2,1.7l2.4-0.3c0.5-0.1,1,0,1.5,0.1C18.8,19.5,18.5,18.2,18.3,16.8z"/>
			<path d="M15.1,21.4c-0.6,0-1.1-0.2-1.6-0.5c-0.5-0.4-0.9-1-1-1.7l-0.4-3.1c-0.2-1.4,0.8-2.7,2.2-2.9l2.4-0.3
				c0.4-0.1,0.9-0.2,1.3-0.4l1.1-0.5l-0.2,1.2c-0.2,1.1-0.3,2.4-0.1,3.7l0,0c0.2,1.3,0.5,2.5,1,3.5l0.5,1.1l-1.2-0.2
				c-0.4-0.1-0.9-0.1-1.3,0l-2.4,0.3C15.4,21.4,15.3,21.4,15.1,21.4z M17.6,13.9C17.4,14,17.2,14,17,14l-2.4,0.3
				c-0.8,0.1-1.3,0.8-1.2,1.5l0.4,3.1c0,0.4,0.2,0.7,0.5,0.9c0.3,0.2,0.7,0.3,1,0.3l2.4-0.3c0.2,0,0.4,0,0.6,0
				c-0.4-0.9-0.6-1.9-0.7-2.9C17.5,15.9,17.5,14.9,17.6,13.9z"/>
		</g>
	</g>
	<g>
		<ellipse transform="matrix(0.9912 -0.1321 0.1321 0.9912 -1.8245 3.7564)" class="st1" cx="27.4" cy="15.6" rx="4.2" ry="7.7"/>
		<path d="M28.1,23.9c-2.5,0-4.9-3.2-5.5-7.6c-0.3-2.1-0.1-4.2,0.5-5.8c0.7-1.8,1.8-2.8,3.1-3c2.7-0.4,5.2,3,5.9,7.6l0,0
			c0.3,2.1,0.1,4.2-0.5,5.8c-0.7,1.8-1.8,2.8-3.1,3C28.4,23.9,28.2,23.9,28.1,23.9z M26.7,8.6c-0.1,0-0.2,0-0.2,0
			c-0.9,0.1-1.7,0.9-2.2,2.3c-0.6,1.5-0.7,3.3-0.5,5.3c0.5,3.8,2.6,6.8,4.5,6.6c0.9-0.1,1.7-0.9,2.2-2.3c0.6-1.5,0.7-3.3,0.5-5.3
			l0,0C30.5,11.5,28.6,8.6,26.7,8.6z"/>
	</g>
	<g>
		<path d="M29.6,15.3c0.4,2.8-0.3,5.2-1.6,5.4c-1.2,0.2-2.5-2-2.9-4.8s0.3-5.2,1.6-5.4C28,10.4,29.3,12.5,29.6,15.3z"/>
		<path d="M27.9,21.3c-0.8,0-1.5-0.5-2.1-1.6c-0.6-1-1-2.3-1.2-3.7c-0.4-3.2,0.5-5.8,2.1-6c0.8-0.1,1.7,0.4,2.4,1.6
			c0.6,1,1,2.3,1.2,3.7l0,0c0.4,3.2-0.5,5.8-2.1,6C28.1,21.3,28,21.3,27.9,21.3z M26.9,11.1C26.8,11.1,26.8,11.1,26.9,11.1
			c-0.7,0.1-1.5,2-1.1,4.7c0.2,1.3,0.5,2.4,1.1,3.3c0.4,0.7,0.9,1,1.2,1c0.7-0.1,1.4-2,1.1-4.7c-0.2-1.3-0.5-2.4-1.1-3.3
			C27.6,11.5,27.2,11.1,26.9,11.1z"/>
	</g>
	<g>
		<path class="st1" d="M28.9,15.2c-0.2-1.5-1.5-2.5-3-2.3c-0.3,0-0.5,0.1-0.8,0.2c-0.1,0.8-0.1,1.8,0,2.8c0.1,0.8,0.3,1.6,0.6,2.3
			c0.3,0.1,0.6,0.1,0.9,0C28.1,18.1,29.1,16.7,28.9,15.2z"/>
		<path d="M26.3,18.9c-0.2,0-0.5,0-0.7-0.1l-0.3-0.1l-0.1-0.3c-0.3-0.7-0.5-1.6-0.6-2.4c-0.1-1-0.1-2,0-2.9l0-0.3l0.3-0.1
			c0.3-0.1,0.6-0.2,0.9-0.3c0.9-0.1,1.7,0.1,2.4,0.6c0.7,0.5,1.1,1.3,1.3,2.2l0,0c0.1,0.9-0.1,1.7-0.6,2.4c-0.5,0.7-1.3,1.1-2.2,1.3
			C26.6,18.9,26.4,18.9,26.3,18.9z M26.2,17.7c0.1,0,0.3,0,0.4,0c0.6-0.1,1-0.4,1.4-0.8c0.3-0.4,0.5-1,0.4-1.5l0,0
			c-0.1-0.6-0.4-1-0.8-1.4c-0.4-0.3-1-0.5-1.5-0.4c-0.1,0-0.2,0-0.3,0.1c-0.1,0.7,0,1.5,0.1,2.3C25.8,16.5,26,17.1,26.2,17.7z"/>
	</g>
</g>
<g>
	<path class="st2" d="M38,8.4c-0.3,1.3-1.6,2.2-2.8,1.8c-1.2-0.3-1.9-1.6-1.6-3C34,6,35.3,5.2,36.5,5.5C37.7,5.8,38.4,7.1,38,8.4z"
		/>
	<path d="M36.2,9.6c-0.2,0-0.4,0-0.6-0.1c-1.3-0.3-2-1.7-1.7-3.1c0.4-1.4,1.7-2.3,3-1.9c0.6,0.2,1.1,0.6,1.5,1.2
		c0.3,0.6,0.4,1.3,0.2,1.9v0C38.3,8.8,37.3,9.6,36.2,9.6z M36.4,5.1c-0.8,0-1.5,0.6-1.7,1.5c-0.3,1,0.3,2,1.2,2.3
		c0.9,0.2,1.8-0.4,2.1-1.4C38,6.9,38,6.4,37.8,6c-0.2-0.4-0.6-0.7-1-0.8C36.6,5.1,36.5,5.1,36.4,5.1z"/>
</g>
</svg>
