<?xml version="1.0" encoding="utf-8"?>
<!-- Generator: Adobe Illustrator 25.3.0, SVG Export Plug-In . SVG Version: 6.00 Build 0)  -->
<svg version="1.1" id="Capa_1" xmlns="http://www.w3.org/2000/svg" xmlns:xlink="http://www.w3.org/1999/xlink" x="0px" y="0px"
	 width="27.83px" height="28.45px" viewBox="0 0 27.83 28.45" style="enable-background:new 0 0 27.83 28.45;" xml:space="preserve"
	>
<g>
	<g>
		<path d="M7.63,1.54h13.22c0.37,0.05,0.74,0.19,1.03,0.43c0.43,0.35,0.69,0.91,0.68,1.47c0,1.04,0,2.09,0,3.13
			c0.95,0.12,1.8,0.76,2.2,1.63c0.56,1.12,1.13,2.24,1.7,3.36c0.14,0.29,0.31,0.58,0.42,0.88c0.1,0.26,0.14,0.53,0.19,0.8v1.39
			c-0.03,0.67-0.3,1.33-0.76,1.83c-0.45,0.49-1.07,0.81-1.73,0.9c-0.01,2.65,0,5.31,0,7.96c0,0.58-0.3,1.15-0.77,1.5
			c-0.28,0.21-0.63,0.32-0.97,0.36H22.4c-0.27-0.05-0.41-0.39-0.24-0.6c0.14-0.19,0.4-0.14,0.6-0.15c0.55-0.02,1.04-0.5,1.06-1.05
			c0.01-0.4,0-0.8,0-1.2c-2.33,0-4.65,0-6.98,0c-0.36,0.01-0.73,0.01-1.07-0.14c-0.56-0.22-1-0.73-1.13-1.31
			c-0.07-0.28-0.05-0.57-0.05-0.85c0-0.69-0.01-1.37,0-2.06c0.02-0.77,0.57-1.47,1.29-1.7c0.34-0.12,0.7-0.09,1.05-0.1
			c2.29,0,4.59,0,6.88,0c0-0.22,0-0.43,0-0.65c-0.83-0.11-1.61-0.61-2.05-1.32c-0.02-0.04-0.07-0.12-0.1-0.04
			c-0.33,0.54-0.84,0.97-1.43,1.2c-0.67,0.26-1.44,0.25-2.11-0.03c-0.58-0.24-1.09-0.68-1.4-1.23c-0.27,0.41-0.59,0.79-1.02,1.04
			c-0.66,0.4-1.49,0.51-2.24,0.3c-0.72-0.2-1.36-0.69-1.73-1.35c-0.37,0.61-0.94,1.11-1.63,1.32c-0.74,0.23-1.58,0.15-2.26-0.23
			c-0.46-0.25-0.83-0.64-1.1-1.08c-0.43,0.77-1.23,1.32-2.11,1.43c0,2.52,0,5.04,0,7.57c0,0.18-0.01,0.37,0.02,0.55
			c0.06,0.39,0.35,0.74,0.72,0.88c0.24,0.1,0.51,0.07,0.77,0.07c0-2.17,0-4.35,0-6.52c-0.01-0.51,0.21-1.02,0.59-1.38
			c0.35-0.34,0.84-0.52,1.33-0.52c1.27,0,2.54,0,3.81,0c0.36,0,0.73,0.07,1.04,0.26c0.55,0.32,0.92,0.95,0.92,1.59
			c0,2.19,0,4.38,0,6.56c2.35,0,4.71,0,7.06,0c0.23-0.03,0.44,0.17,0.42,0.4c-0.01,0.17-0.15,0.3-0.3,0.35H5.63
			c-0.43-0.05-0.86-0.23-1.17-0.54c-0.38-0.36-0.58-0.89-0.56-1.41c0-2.62,0-5.24,0-7.86c-0.72-0.1-1.4-0.48-1.85-1.04
			c-0.39-0.47-0.61-1.07-0.64-1.68V13.3c0.03-0.49,0.2-0.97,0.44-1.4c0.27-0.53,0.53-1.06,0.81-1.59c0.09-0.18,0.33-0.25,0.51-0.15
			c0.18,0.09,0.25,0.33,0.15,0.5c-0.32,0.65-0.66,1.29-0.97,1.94c-0.26,0.55-0.17,1.18-0.19,1.77c-0.01,0.38,0.05,0.78,0.23,1.12
			c0.32,0.63,0.97,1.08,1.68,1.15c0.67,0.07,1.36-0.21,1.8-0.72c0.34-0.38,0.51-0.89,0.52-1.4c0.01-0.52,0-1.04,0-1.55
			c0-0.08,0.01-0.17,0.03-0.24c0.61-1.81,1.22-3.61,1.83-5.41c-0.68,0-1.35-0.01-2.03,0c-0.69,0.02-1.35,0.41-1.7,1
			C4.34,8.65,4.18,9,3.99,9.34C3.9,9.52,3.64,9.58,3.47,9.46c-0.16-0.1-0.21-0.32-0.13-0.48C3.5,8.66,3.66,8.34,3.83,8.02
			c0.42-0.78,1.22-1.32,2.1-1.44c0.01-0.86-0.01-1.72,0-2.58c0-0.42-0.04-0.87,0.13-1.27C6.31,2.08,6.94,1.62,7.63,1.54z M6.68,3.35
			c-0.01,1.07,0,2.14,0,3.21c5.04,0,10.09,0,15.13,0c0-1.05,0-2.11,0-3.16c0-0.6-0.55-1.13-1.15-1.1c-4.29,0-8.59,0-12.88,0
			C7.21,2.3,6.7,2.78,6.68,3.35z M9.05,7.31c-0.63,1.87-1.27,3.74-1.89,5.62c-0.02,0.5,0,1-0.01,1.5c-0.01,0.31,0.04,0.61,0.15,0.9
			c0.27,0.7,0.94,1.22,1.69,1.31c0.69,0.1,1.41-0.18,1.86-0.7c0.32-0.36,0.5-0.84,0.52-1.32c0.02-0.6-0.01-1.2,0.01-1.79
			c0.3-1.84,0.62-3.67,0.93-5.51C11.22,7.31,10.13,7.31,9.05,7.31z M13.07,7.31c-0.27,1.64-0.55,3.27-0.82,4.91
			c-0.04,0.3-0.13,0.6-0.12,0.9c0,0.47,0,0.93,0,1.4c0.01,0.48,0.16,0.97,0.47,1.34c0.36,0.46,0.92,0.75,1.49,0.78
			c0.68,0.05,1.37-0.25,1.79-0.78c0.32-0.39,0.47-0.89,0.47-1.39c0-0.53,0.01-1.07-0.01-1.6c-0.31-1.86-0.62-3.71-0.94-5.57
			C14.63,7.31,13.85,7.3,13.07,7.31z M16.18,7.31c0.3,1.77,0.6,3.55,0.9,5.32c0.02,0.1,0.03,0.2,0.04,0.3c0,0.57-0.01,1.13,0,1.7
			c0.02,0.87,0.65,1.69,1.49,1.93c0.66,0.21,1.42,0.06,1.95-0.38c0.49-0.4,0.79-1.02,0.78-1.65c0-0.53,0.01-1.06-0.01-1.6
			c-0.62-1.88-1.26-3.74-1.89-5.62C18.35,7.3,17.26,7.31,16.18,7.31z M20.23,7.31c0.61,1.82,1.23,3.63,1.84,5.45
			c0.04,0.34,0.01,0.68,0.02,1.01c0.01,0.47-0.05,0.95,0.1,1.4c0.17,0.53,0.55,0.98,1.04,1.24c0.56,0.3,1.25,0.32,1.83,0.06
			c0.58-0.25,1.03-0.78,1.19-1.39c0.11-0.39,0.06-0.8,0.07-1.21c0.02-0.47-0.01-0.95-0.23-1.37c-0.7-1.37-1.39-2.75-2.09-4.12
			c-0.35-0.64-1.05-1.07-1.78-1.07C21.55,7.31,20.89,7.31,20.23,7.31z M7.01,19.47c-0.13,0.27-0.09,0.58-0.09,0.87
			c0,2.04,0,4.08,0,6.12c0.25,0,0.5,0,0.75,0c0-2.14,0-4.28,0-6.42c0-0.13,0-0.27,0.09-0.36c0.09-0.11,0.24-0.14,0.37-0.13
			c1.27,0,2.54,0,3.81,0c0.22-0.02,0.42,0.17,0.4,0.39c0,2.17,0,4.34,0,6.52c0.25,0,0.5,0,0.75,0c0-2.14,0-4.28,0-6.41
			c0-0.22-0.02-0.44-0.13-0.63c-0.19-0.38-0.61-0.63-1.03-0.62c-1.29,0-2.57,0-3.86,0C7.63,18.77,7.18,19.05,7.01,19.47z
			 M15.35,19.88c0,0.82,0,1.64,0,2.46c0,0.56,0.48,1.06,1.04,1.09c0.47,0.01,0.93,0,1.4,0.01c0.88-0.88,1.76-1.75,2.63-2.63
			c0.12-0.14,0.28-0.28,0.48-0.22c0.27,0.06,0.38,0.43,0.18,0.62c-0.74,0.75-1.48,1.48-2.22,2.23c1.66,0,3.31,0,4.97,0
			c0-1.55,0-3.1,0-4.65c-0.82,0.01-1.64-0.02-2.45,0.01c-0.86,0.86-1.72,1.72-2.58,2.58c-0.11,0.11-0.22,0.26-0.39,0.27
			c-0.23,0.03-0.44-0.19-0.41-0.41c0.01-0.16,0.14-0.26,0.24-0.36c0.7-0.7,1.39-1.39,2.09-2.09c-1.29,0.01-2.59-0.01-3.88,0
			C15.87,18.79,15.36,19.3,15.35,19.88z M8.42,20.29c0,2.05,0,4.11,0,6.16c1.06,0,2.12,0,3.18,0c0-2.05,0-4.11,0-6.16
			C10.53,20.29,9.48,20.29,8.42,20.29z"/>
	</g>
	<path d="M21.72,19.55c0.25-0.13,0.57,0.11,0.52,0.39c-0.02,0.28-0.38,0.43-0.6,0.25C21.43,20.04,21.47,19.65,21.72,19.55z"/>
	<path d="M17.12,22.01c0.23-0.15,0.58,0.05,0.56,0.33c0.01,0.29-0.35,0.48-0.58,0.31C16.87,22.51,16.88,22.14,17.12,22.01z"/>
	<g>
		<path d="M10.68,4.83c0.07,0.1,0.11,0.2,0.14,0.31c0.01,0.12,0,0.23-0.05,0.32c-0.05,0.09-0.12,0.17-0.23,0.26
			c-0.07,0.06-0.16,0.12-0.26,0.18c-0.1,0.06-0.2,0.11-0.31,0.16C9.86,6.1,9.75,6.14,9.64,6.18C9.53,6.21,9.43,6.25,9.33,6.27
			C9.27,6.28,9.23,6.29,9.19,6.3c-0.04,0.01-0.07,0.01-0.11,0c-0.03,0-0.07-0.01-0.1-0.02C8.95,6.27,8.91,6.25,8.86,6.23
			C8.78,6.19,8.71,6.15,8.65,6.11C8.58,6.07,8.51,6.02,8.43,5.96C8.4,5.93,8.37,5.9,8.35,5.87C8.32,5.85,8.3,5.82,8.29,5.8
			C8.28,5.77,8.27,5.74,8.26,5.71s-0.01-0.08,0-0.13C8.27,5.41,8.28,5.21,8.31,5c0.02-0.22,0.05-0.44,0.07-0.68
			c0.03-0.23,0.05-0.47,0.07-0.71c0.02-0.24,0.03-0.46,0.04-0.68C8.6,2.88,8.72,2.82,8.86,2.77c0.14-0.05,0.28-0.09,0.43-0.13
			c0.15-0.04,0.3-0.06,0.46-0.08s0.3-0.02,0.44-0.01c0.14,0.01,0.27,0.03,0.38,0.07s0.21,0.09,0.29,0.16c0.1,0.1,0.18,0.2,0.24,0.31
			c0.06,0.11,0.11,0.24,0.14,0.39c0.01,0.08,0.01,0.16,0,0.23s-0.04,0.15-0.08,0.22C11.14,4,11.09,4.07,11.04,4.13
			s-0.11,0.12-0.17,0.17c-0.07,0.05-0.13,0.1-0.2,0.15s-0.15,0.1-0.25,0.15C10.53,4.65,10.62,4.73,10.68,4.83z M9.09,5.32
			C9.07,5.43,9.05,5.54,9.03,5.65c0.14-0.04,0.28-0.08,0.4-0.13s0.22-0.1,0.3-0.16C9.81,5.3,9.87,5.24,9.91,5.19
			c0.04-0.06,0.05-0.11,0.04-0.16C9.94,5,9.92,4.98,9.87,4.96c-0.04-0.02-0.1-0.04-0.17-0.05S9.56,4.9,9.47,4.92
			c-0.09,0.01-0.19,0.04-0.3,0.07C9.14,5.11,9.12,5.22,9.09,5.32z M9.8,4.09c0.14-0.08,0.26-0.16,0.35-0.24
			c0.1-0.08,0.17-0.16,0.21-0.23c0.04-0.07,0.06-0.13,0.05-0.18c-0.01-0.04-0.04-0.06-0.09-0.08s-0.11-0.02-0.19-0.02
			c-0.08,0-0.17,0.02-0.27,0.05c-0.1,0.03-0.21,0.07-0.33,0.12c-0.04,0.12-0.07,0.24-0.1,0.37C9.39,4.01,9.36,4.15,9.32,4.3
			C9.5,4.24,9.66,4.17,9.8,4.09z"/>
		<path d="M11.88,2.77c0.15-0.03,0.3-0.06,0.46-0.09c0.16-0.03,0.32-0.05,0.49-0.07c0.17-0.02,0.33-0.03,0.5-0.04
			c0.16,0,0.26,0.06,0.3,0.18c0.04,0.07,0.06,0.13,0.07,0.18c0.01,0.05,0.03,0.11,0.04,0.18c0.01,0.07,0.01,0.12-0.02,0.15
			c-0.02,0.02-0.07,0.04-0.15,0.05c-0.17,0.02-0.34,0.04-0.52,0.06c-0.18,0.02-0.36,0.04-0.56,0.07c-0.04,0.13-0.08,0.25-0.12,0.39
			c-0.04,0.13-0.08,0.28-0.12,0.42c0.08-0.01,0.17-0.02,0.25-0.02c0.08-0.01,0.17-0.01,0.27-0.01c0.08,0,0.14,0,0.18,0.02
			c0.04,0.02,0.08,0.05,0.11,0.11c0.03,0.06,0.06,0.11,0.08,0.16c0.02,0.05,0.03,0.11,0.05,0.16c0.02,0.06,0.02,0.11,0.01,0.13
			c-0.02,0.02-0.07,0.04-0.14,0.06c-0.17,0.03-0.34,0.06-0.51,0.09S12.21,5,12.05,5.04c-0.02,0.09-0.04,0.17-0.06,0.25
			c-0.02,0.08-0.04,0.16-0.06,0.24c0.13-0.02,0.25-0.04,0.37-0.05c0.12-0.01,0.25-0.02,0.38-0.03c0.08-0.01,0.14,0,0.18,0.02
			c0.04,0.02,0.08,0.05,0.11,0.1c0.03,0.06,0.06,0.11,0.08,0.16c0.02,0.05,0.04,0.1,0.06,0.15c0.01,0.06,0.01,0.09,0,0.11
			c-0.01,0.02-0.06,0.04-0.13,0.05c-0.18,0.03-0.36,0.07-0.54,0.1c-0.18,0.04-0.36,0.07-0.52,0.1c-0.11,0.03-0.19,0.03-0.25,0.02
			c-0.06-0.02-0.11-0.04-0.15-0.06c-0.05-0.03-0.09-0.06-0.13-0.09c-0.04-0.03-0.09-0.07-0.15-0.12c-0.05-0.04-0.08-0.08-0.11-0.14
			s-0.04-0.12-0.03-0.19l0.4-2.76C11.6,2.84,11.73,2.81,11.88,2.77z"/>
		<path d="M14.82,5.49c-0.21,0.03-0.39,0.06-0.55,0.11c-0.06,0.11-0.1,0.21-0.15,0.3s-0.08,0.18-0.12,0.27
			c-0.02,0.05-0.05,0.08-0.08,0.08s-0.08,0-0.14-0.02c-0.04-0.01-0.08-0.03-0.12-0.05s-0.09-0.04-0.13-0.06
			c-0.03-0.02-0.06-0.04-0.09-0.06c-0.03-0.02-0.04-0.03-0.06-0.06c-0.01-0.02-0.02-0.05-0.02-0.09c0-0.03,0.01-0.08,0.02-0.14
			c0.07-0.19,0.15-0.42,0.26-0.67c0.11-0.26,0.22-0.52,0.34-0.8c0.12-0.27,0.25-0.55,0.38-0.81s0.25-0.51,0.37-0.71
			c0.04-0.07,0.1-0.14,0.16-0.18c0.07-0.05,0.17-0.07,0.3-0.05c0.11,0.01,0.21,0.01,0.3,0.03c0.09,0.01,0.17,0.03,0.24,0.04
			c0.07,0.02,0.14,0.03,0.21,0.05c0.06,0.02,0.13,0.04,0.19,0.05c0.09,0.03,0.14,0.07,0.16,0.12c0.02,0.05,0.03,0.12,0.02,0.2
			c-0.02,0.2-0.03,0.42-0.04,0.68c-0.01,0.26-0.02,0.52-0.03,0.8c0,0.28-0.01,0.56-0.01,0.83c0,0.28,0,0.54,0,0.78
			c0,0.05-0.01,0.08-0.03,0.1c-0.02,0.02-0.07,0.03-0.14,0.03c-0.07,0-0.14,0-0.2-0.01c-0.06,0-0.12-0.02-0.19-0.04
			c-0.07-0.02-0.11-0.04-0.14-0.08c-0.03-0.03-0.05-0.08-0.06-0.16c-0.01-0.08-0.02-0.17-0.03-0.26c-0.01-0.1-0.02-0.2-0.02-0.31
			C15.23,5.43,15.03,5.46,14.82,5.49z M15.02,4.77c0.13-0.01,0.25-0.02,0.38-0.03c0-0.23-0.01-0.45-0.01-0.68c0-0.23,0-0.45,0-0.67
			c-0.11,0.2-0.23,0.43-0.36,0.67c-0.13,0.25-0.26,0.5-0.39,0.76C14.77,4.8,14.9,4.78,15.02,4.77z"/>
		<path d="M17.34,5.7c-0.03,0.16-0.06,0.31-0.09,0.46c-0.01,0.04-0.03,0.07-0.06,0.09c-0.02,0.01-0.07,0.01-0.13,0
			c-0.08-0.02-0.14-0.03-0.2-0.05c-0.06-0.01-0.11-0.03-0.17-0.06c-0.05-0.03-0.09-0.07-0.11-0.11s-0.03-0.1-0.02-0.17
			c0-0.06,0.01-0.14,0.02-0.25s0.02-0.24,0.04-0.38c0.01-0.14,0.03-0.29,0.05-0.45c0.02-0.16,0.04-0.32,0.06-0.48
			c0.02-0.16,0.04-0.32,0.07-0.47c0.03-0.15,0.05-0.29,0.08-0.41c0.03-0.12,0.06-0.22,0.09-0.3s0.07-0.13,0.1-0.15
			c0.17-0.08,0.35-0.15,0.54-0.23c0.19-0.07,0.37-0.13,0.55-0.16c0.18-0.03,0.35-0.03,0.52-0.01s0.3,0.1,0.43,0.22
			c0.1,0.11,0.19,0.22,0.26,0.34s0.14,0.27,0.18,0.44c0.04,0.19,0.02,0.34-0.04,0.46c-0.1,0.19-0.26,0.37-0.48,0.53
			c-0.22,0.16-0.49,0.31-0.8,0.45c0.06,0.07,0.13,0.15,0.21,0.23c0.08,0.08,0.16,0.16,0.24,0.24c0.08,0.08,0.16,0.16,0.24,0.23
			c0.08,0.08,0.15,0.14,0.22,0.2c0.05,0.05,0.08,0.08,0.07,0.11c-0.01,0.03-0.03,0.06-0.07,0.09c-0.05,0.04-0.09,0.06-0.13,0.07
			c-0.04,0.01-0.08,0.01-0.13,0.02c-0.06,0.02-0.13,0.02-0.2,0.01c-0.07-0.01-0.16-0.04-0.26-0.1c-0.06-0.04-0.14-0.1-0.22-0.17
			c-0.08-0.07-0.17-0.14-0.26-0.22c-0.09-0.08-0.18-0.16-0.27-0.25c-0.09-0.09-0.17-0.18-0.24-0.26C17.41,5.38,17.37,5.55,17.34,5.7
			z M17.76,3.98c-0.04,0.16-0.09,0.33-0.14,0.52c0.19-0.06,0.36-0.14,0.51-0.23s0.27-0.19,0.37-0.28c0.1-0.1,0.17-0.19,0.22-0.27
			c0.04-0.09,0.06-0.15,0.04-0.2c-0.03-0.08-0.13-0.12-0.29-0.12c-0.08,0-0.17,0.01-0.27,0.03c-0.1,0.02-0.2,0.06-0.31,0.11
			C17.85,3.67,17.8,3.82,17.76,3.98z"/>
	</g>
</g>
</svg>
