<?xml version="1.0" encoding="utf-8"?>
<!-- Generator: Adobe Illustrator 25.3.1, SVG Export Plug-In . SVG Version: 6.00 Build 0)  -->
<svg version="1.1" id="Capa_1" xmlns="http://www.w3.org/2000/svg" xmlns:xlink="http://www.w3.org/1999/xlink" x="0px" y="0px"
	 width="32.8px" height="27.9px" viewBox="0 0 32.8 27.9" style="enable-background:new 0 0 32.8 27.9;" xml:space="preserve">
<g>
	<g>
		<path d="M18.4,1.6c0.4-0.4,1-0.8,1.5-0.6c0.4,0.7,0.5,1.4,0.7,2.1c0.7,0,1.5-0.1,2.2,0c0.7,0.1,1,0.8,1.5,1.2
			c0.8,0.9,1.9,1.3,2.9,1.9c0.4,0.2,0.8,0.5,0.8,1c0.1,1.1-0.5,2.4-1.6,2.8c-1.2,0.5-2.5-0.1-3.7-0.2c-0.3,0-0.8-0.1-0.9,0.3
			c-0.6,1.7,0.1,3.6,1.4,4.7c0.8,0.7,1.9,1.3,2,2.5c0,1.1-0.5,2.1-0.8,3.2c0.4,0.2,0.8,0.5,1.1,0.8c0.3,0.5,0.3,1,0.4,1.6
			c0.5,0.2,1.2,0.3,1.4,0.8c0.1,0.5,0.1,1.1,0.1,1.7c0.6,0,1.2,0,1.8,0.3v0.6c-0.5,0.1-1,0.2-1.5,0.2c-5.2,0-10.3,0-15.5,0
			c-0.7,0-1.5,0.1-2.2-0.2c0-0.2,0-0.5,0-0.7c0.6-0.2,1.3-0.2,1.9-0.2c0-0.6,0-1.2,0.2-1.7c0.2-0.6,0.9-0.6,1.4-0.8
			c0.1-0.5,0.1-1.1,0.4-1.6c0.3-0.3,0.7-0.5,1.1-0.8c-1.1-2.2-1.6-4.7-1.3-7.1c0.3-3.4,1.7-6.5,3.5-9.3C17.7,3.4,17.7,2.4,18.4,1.6z
			 M18.2,4.5c-1.4,2.1-2.5,4.4-3.1,6.9c-0.8,3.1-0.5,6.5,1.1,9.3c2.4,0,4.7,0,7.1,0c0.3-1,0.7-2,0.9-3c0-0.8-0.9-1.2-1.4-1.7
			c-2-1.5-2.9-4.5-1.6-6.7c-0.5-0.4-1-0.8-1.2-1.4c0-0.4,0.5-0.7,0.8-0.3c0.6,0.6,1.3,1.2,2.2,1.4c1,0.2,2,0.5,3,0.3
			c0.8-0.2,1-1.1,1.2-1.8c-1.2-0.6-2.4-1.1-3.3-2.1c-0.4-0.4-0.7-0.8-1-1.2c-0.8-0.1-1.7,0.1-2.5,0c-0.7-0.3-0.7-1.3-1-1.9
			C18.7,2.9,18.6,3.8,18.2,4.5z M14.5,23.1c3.4,0,6.9,0,10.3,0c0-0.6-0.1-1.4-0.8-1.3c-2.9,0-5.7,0-8.6,0
			C14.6,21.7,14.5,22.5,14.5,23.1z M13,24.2c0,0.5,0,0.9,0,1.4c4.4,0,8.9,0,13.3,0c0-0.5,0-0.9,0-1.4C21.9,24.1,17.4,24.2,13,24.2z"
			/>
	</g>
	<path d="M13.9,3.4c0-0.9,1.1-0.9,1.8-0.9c0.5,0.4,0.7,1,0.8,1.6c-0.1,0.2-0.3,0.4-0.5,0.5c-0.2-0.1-0.4-0.3-0.6-0.4
		C15,5,14.7,5.9,13.9,6.4c-0.7,0.4-1.3-0.3-1.8-0.7c-0.4,1-0.7,2.1-1.2,3.1c-0.2,0.5-0.9,0.8-1.4,0.7C9.2,9.4,9,9.2,8.7,9
		C8.2,9.4,7.8,10.2,7,10C6,9.9,5.8,8.7,5.5,7.9C5.2,7.5,5.7,6.9,6.2,7.2c0.4,0.6,0.7,1.3,1,1.9c0.4-0.4,0.7-1,1.3-1.1
		c0.6-0.1,1,0.3,1.5,0.6c0.4-1,0.7-2.1,1.2-3.1c0.2-0.4,0.6-0.8,1.1-0.7c0.5,0,0.9,0.5,1.3,0.8c0.3-0.5,0.6-1.1,0.9-1.6
		C14.3,3.7,14.1,3.6,13.9,3.4z"/>
	<g>
		<path d="M2.4,4.4C3,4,3.5,3.5,4.1,3.2C4.7,3.5,5.8,4,5.7,4.8C5.4,5.1,5,5,4.6,5c0,2.4,0,4.7,0,7.1c0.4,0.3,0.8,0.7,1.1,1.1
			c1.6,0.1,3.3,0,4.9,0c0-0.4-0.2-1.2,0.5-1.1c0.6,0.4,1,0.9,1.3,1.6c-0.2,0.7-0.7,1.3-1.3,1.6c-0.6,0.1-0.5-0.7-0.5-1.1
			c-1.6,0-3.3,0-4.9,0c-0.4,0.5-0.9,1.2-1.7,1.1c-0.9,0-1.5-0.7-1.7-1.6v-0.4c0.2-0.6,0.7-1.1,1.2-1.4c0-2.4,0-4.7,0-7.1
			C3.3,5,3.1,5,2.9,5C2.7,4.9,2.5,4.8,2.4,4.7V4.4z M3.9,13.2c-0.8,0.1-0.4,1.5,0.3,1.2C5.1,14.2,4.7,12.9,3.9,13.2z"/>
	</g>
	<path d="M18.6,9.8c0.4-0.3,1,0.1,0.7,0.6c-0.3,1.4-0.5,2.9,0.2,4.3c0.3,0.8,1.1,1.4,1.4,2.2c0,0.5-0.7,0.6-0.9,0.3
		c-1.5-1.4-2.2-3.6-1.9-5.7C18.2,10.9,18.2,10.2,18.6,9.8z"/>
	<path d="M21.5,17.5c0.5-0.4,1.1,0.2,0.7,0.7C21.7,18.8,21,18,21.5,17.5z"/>
</g>
</svg>
