<?xml version="1.0" encoding="utf-8"?>
<!-- Generator: Adobe Illustrator 25.3.1, SVG Export Plug-In . SVG Version: 6.00 Build 0)  -->
<svg version="1.1" id="Capa_1" xmlns="http://www.w3.org/2000/svg" xmlns:xlink="http://www.w3.org/1999/xlink" x="0px" y="0px"
	 width="32.3px" height="28.5px" viewBox="0 0 32.3 28.5" style="enable-background:new 0 0 32.3 28.5;" xml:space="preserve">
<style type="text/css">
	.st0{fill:url(#SVGID_1_);}
</style>
<g>
	<linearGradient id="SVGID_1_" gradientUnits="userSpaceOnUse" x1="25.5494" y1="6.3596" x2="11.0864" y2="20.8226">
		<stop  offset="0" style="stop-color:#6197ED"/>
		<stop  offset="1" style="stop-color:#001D73"/>
	</linearGradient>
	<path class="st0" d="M13.6,26.6C13.5,26.6,13.5,26.6,13.6,26.6c-0.1-0.1,0-0.1,0-0.1c0-0.1,0.1-0.1,0.3,0c-0.2-0.1-0.3-0.2-0.3-0.3
		c0,0,0-0.1,0-0.1c0.1-0.1,0.4,0,1,0.2c0.1,0.1,0.3,0.1,0.4,0.2c-0.2-0.2-0.6-0.4-0.8-0.5c-0.5-0.3-0.6-0.4-0.6-0.4c0,0,0-0.1,0-0.1
		c0.1-0.1,0.3,0,1.5,0.6c0,0,0,0,0,0c0,0-0.1,0-0.1,0c-0.9-0.5-1.4-0.9-1.5-1.1c0,0,0-0.1,0-0.1c0.1-0.2,0.5,0,2,0.9
		c0.4,0.2,0.8,0.5,1.1,0.7c-0.3-0.2-0.9-0.6-1.3-0.8c-1.2-0.7-1.8-1.1-1.8-1.3c0-0.1,0-0.1,0-0.1c0,0,0.1-0.1,0.1-0.1
		c0,0,0.1,0,0.2,0c-0.2-0.2-0.3-0.3-0.3-0.4c0-0.1,0-0.1,0-0.1c0.1-0.1,0.2-0.1,0.7,0.2c-0.4-0.3-0.7-0.5-0.7-0.6c0,0,0-0.1,0-0.1
		c0-0.1,0.1-0.1,0.2-0.1c0.4-0.1,1.2,0.5,2.4,1.5c0.6,0.5,1.6,1.2,1.8,1.2c-0.2-0.3-1.8-1.4-2.8-2c-1.4-0.9-1.6-1-1.6-1.1
		c0,0,0-0.1,0-0.1c0,0,0.1-0.1,0.2-0.1c-0.1-0.1-0.2-0.2-0.2-0.3c0-0.1,0-0.1,0-0.2c0.2-0.2,0.8,0.1,2.3,1.3
		c0.8,0.6,1.9,1.4,2.1,1.3c0-0.1-0.1-0.2-0.3-0.3c-0.5-0.1-1.2-0.7-2.2-1.4c0,0-0.1-0.1-0.1-0.1c-1.3-0.8-1.8-1.1-1.9-1.3
		c0,0,0-0.1,0-0.1c0,0,0.1-0.1,0.1-0.1c0.2,0,0.6,0.3,1.5,1c0.1,0.1,0.3,0.2,0.4,0.4c1,0.6,1.7,1,2.1,1.4c0.1,0,0.1,0,0.2,0
		c0,0,0,0,0,0c-0.1-0.1-0.6-0.5-1.1-0.8c-0.2-0.1-0.5-0.3-0.7-0.5c-0.3-0.2-0.5-0.3-0.7-0.5c-1.6-1-1.9-1.2-1.9-1.4c0,0,0-0.1,0-0.1
		c0,0,0,0,0.1,0c0,0,0.1,0,0.2,0.1c-0.2-0.2-0.3-0.3-0.3-0.4c0-0.1,0-0.1,0-0.1c0.1-0.1,0.2-0.1,2.3,1.2c0.6,0.4,1.2,0.8,1.7,1
		c-0.4-0.3-1.1-0.8-1.7-1.2c-1.7-1.1-2.3-1.5-2.3-1.7c0,0,0-0.1,0-0.1c0,0,0,0,0.1-0.1c-0.1-0.1-0.1-0.1-0.1-0.2c0-0.1,0-0.1,0-0.2
		c0,0,0,0,0,0c0,0-0.1-0.1-0.1-0.1c0-0.1,0-0.2,0-0.2c0-0.1,0.1-0.1,0.2-0.1c-0.1-0.1-0.2-0.2-0.2-0.3c0-0.1,0-0.1,0-0.2
		c0.1-0.2,0.4,0,2.1,1.1c0.8,0.5,2,1.4,2.3,1.4c0,0,0-0.1-0.1-0.1c-0.3,0-0.9-0.5-1.7-1.2c-0.2-0.1-0.4-0.3-0.6-0.4
		c-1.4-0.8-2-1.2-2-1.4c0,0,0-0.1,0-0.1c0,0,0,0,0,0c0,0-0.1-0.1-0.1-0.1c0-0.1,0-0.1,0-0.2c0,0,0.1-0.1,0.1-0.1
		c0.1,0,0.4,0.1,0.7,0.3c-0.5-0.4-0.8-0.6-0.8-0.7c0,0,0-0.1,0-0.1c0-0.1,0.1-0.1,0.2-0.1c0,0,0,0,0.1,0c-0.2-0.1-0.3-0.2-0.3-0.3
		c0,0,0-0.1,0-0.1c0,0,0.1-0.1,0.1,0c0,0,0,0.1,0,0.1c0.1,0.2,1.3,0.9,2.1,1.5c1.5,0.9,2.3,1.4,2.3,1.7c0,0,0,0.1,0,0.1
		c0,0-0.1,0.1-0.1,0.1c0,0-0.1,0-0.2,0c0.2,0.2,0.3,0.3,0.3,0.4c0,0,0,0.1,0,0.1c0,0-0.1,0.1-0.1,0.1c0,0-0.1,0-0.1,0
		c0.2,0.1,0.3,0.3,0.3,0.4c0,0.1,0,0.1,0,0.2c0,0,0,0,0,0c0,0.1,0.1,0.1,0.1,0.2c0,0.1,0,0.1,0,0.2c-0.1,0.2-0.6,0-2.6-1.4
		c-0.7-0.5-1.6-1-1.8-1.2c0.2,0.4,1.5,1.1,2.4,1.7c1.4,0.8,2,1.2,2,1.4c0,0,0,0.1,0,0.1c0,0.1-0.1,0.1-0.2,0
		c0.1,0.1,0.2,0.2,0.3,0.3c0,0.1,0,0.1,0,0.2c0,0,0,0-0.1,0.1c0.1,0.1,0.1,0.1,0.1,0.2c0,0.1,0,0.1,0,0.1c0,0.1-0.1,0.1-0.2,0.1
		c0,0,0,0,0,0c0.2,0.1,0.2,0.2,0.2,0.3c0,0,0,0.1,0,0.1c-0.1,0.1-0.2,0.1-2.4-1.3c-0.8-0.5-1.7-1.1-2-1.2c0.2,0.3,1.7,1.2,2.6,1.8
		c1.3,0.8,1.8,1.1,1.8,1.3c0,0,0,0.1,0,0.1c0,0-0.1,0.1-0.1,0.1c0,0-0.1,0-0.1,0c0.2,0.1,0.3,0.2,0.3,0.3c0,0,0,0.1,0,0.1
		c0,0.1-0.1,0.1-0.2,0.1c0.1,0.1,0.2,0.2,0.2,0.3c0,0.1,0,0.1,0,0.2c-0.2,0.3-0.8-0.2-2.4-1.3c-0.8-0.6-1.9-1.3-2.1-1.3
		c0.1,0.4,1.8,1.4,2.9,2.1c1.2,0.7,1.5,0.9,1.5,1c0,0,0,0.1,0,0.1c-0.1,0.1-0.2,0.1-0.4,0c0.3,0.2,0.4,0.4,0.4,0.5
		c0,0.1,0,0.1,0,0.1c0,0-0.1,0.1-0.1,0.1c-0.3,0-0.9-0.4-2-1.2c-0.9-0.7-1.9-1.5-2.3-1.4c0,0,0,0,0,0c0.1,0.2,1.4,1,2.3,1.6
		c1.5,0.9,2.1,1.3,2.1,1.5c0,0,0,0.1,0,0.1c-0.1,0.1-0.2,0.1-0.6-0.1c0.1,0.1,0.2,0.2,0.2,0.2c0,0,0,0.1,0,0.1
		c0,0.1-0.1,0.1-0.2,0.1c-0.1,0-0.3-0.1-0.6-0.2c0,0,0,0.1,0,0.1c-0.1,0.1-0.3,0-1.6-0.8c-0.5-0.3-1.3-0.8-1.6-0.9
		c0.2,0.2,0.9,0.6,1.3,0.9c0.8,0.5,1,0.6,1.1,0.8c0,0,0,0.1,0,0.1c-0.1,0.1-0.2,0.1-1.2-0.5c0,0,0,0,0,0c0.3,0.2,0.4,0.3,0.4,0.4
		c0,0,0,0.1,0,0.1c-0.1,0.1-0.3,0-0.8-0.2c-0.1-0.1-0.4-0.1-0.5-0.2c0,0,0.1,0,0.1,0c0.2,0.1,0.3,0.2,0.3,0.2c0,0,0,0.1,0,0.1
		c0,0.1-0.1,0.1-0.4,0c0,0-0.1,0-0.2,0c0,0,0,0,0,0C13.8,26.7,13.7,26.7,13.6,26.6C13.6,26.6,13.6,26.6,13.6,26.6
		C13.6,26.6,13.6,26.6,13.6,26.6z M13.6,26.5L13.6,26.5L13.6,26.5z M13.7,24.2c0.1,0.2,1.1,0.8,1.7,1.1c0,0,0,0,0,0c0,0,0,0,0,0
		C14.8,24.9,13.9,24.2,13.7,24.2z M15.7,25.3c0.7,0.5,1.5,1.2,1.8,1.2c-0.2-0.2-0.8-0.6-1.4-0.9C16,25.5,15.9,25.4,15.7,25.3z
		 M13.8,23.7c0.3,0.3,1.4,1,2.3,1.6c-0.2-0.2-0.5-0.3-0.8-0.5C14.7,24.3,14,23.9,13.8,23.7z M17.6,26c-0.4-0.3-1.1-0.7-1.7-1.1
		c-0.5-0.3-1-0.6-1.3-0.9c0.2,0.1,0.5,0.3,0.8,0.6c0.8,0.6,2.1,1.5,2.5,1.6C17.9,26.2,17.8,26.1,17.6,26z M15,23.2
		c-0.3-0.2-0.6-0.4-0.8-0.5C14.4,22.9,14.7,23.1,15,23.2z M14.9,21.4C14.9,21.4,14.9,21.4,14.9,21.4c0.4,0.3,0.9,0.7,1.4,1
		c0.2,0.1,0.4,0.3,0.5,0.4c0.5,0.3,0.9,0.5,1,0.5c-0.2-0.2-1-0.7-1.7-1.1C15.7,21.9,15.3,21.7,14.9,21.4z M13.8,19.6
		c0.2,0.2,1.1,0.8,1.9,1.3c-0.2-0.1-0.3-0.3-0.5-0.4C14.5,20.1,14.1,19.8,13.8,19.6C13.8,19.6,13.8,19.6,13.8,19.6z M16.2,21.1
		c0.7,0.6,1.5,1.2,1.7,1.2c0,0,0,0,0,0c0,0-0.1-0.1-0.2-0.2c-0.3-0.1-0.6-0.3-1.1-0.7C16.5,21.2,16.3,21.2,16.2,21.1z M13.7,19.1
		C13.7,19.1,13.7,19.1,13.7,19.1c0,0.1,0.1,0.1,0.2,0.2c0.3,0.1,0.8,0.4,1.4,0.9c0.1,0,0.1,0.1,0.2,0.1c-0.1,0-0.1-0.1-0.2-0.1
		c-0.2-0.2-0.4-0.3-0.6-0.5C14.2,19.6,13.9,19.3,13.7,19.1C13.7,19.1,13.7,19.1,13.7,19.1z M15.8,20.4c0.3,0.2,0.6,0.5,1,0.7
		c0.5,0.3,0.8,0.5,1.1,0.7c0,0,0,0,0,0c0.1,0,0.1,0,0.1,0c0-0.3-1.1-0.9-2-1.3C15.9,20.5,15.8,20.5,15.8,20.4z M13.7,18.8
		C13.7,18.8,13.7,18.8,13.7,18.8c0,0.1,0.1,0.1,0.1,0.2c0.2,0.1,0.5,0.3,1,0.7c0.4,0.2,0.8,0.5,1.2,0.7c0.1,0.1,0.2,0.1,0.4,0.2
		c-0.2-0.1-0.4-0.3-0.6-0.5C15,19.5,13.9,18.8,13.7,18.8z M17.7,21.1c-0.4-0.3-1-0.6-1.5-0.9c0.7,0.5,1.5,1,1.8,1.1
		C17.9,21.2,17.8,21.1,17.7,21.1z M13.7,17.6c0.2,0.2,0.9,0.7,1.6,1c-0.1-0.1-0.1-0.1-0.2-0.2C14.5,18.1,14,17.8,13.7,17.6z
		 M16,18.9c0.1,0.1,0.2,0.2,0.3,0.3c0.8,0.5,1.4,0.8,1.7,1.1c0,0,0,0,0,0c0,0,0,0,0,0C17.9,20,16.9,19.4,16,18.9z M15.1,18
		c-0.6-0.4-1.3-0.9-1.4-0.8c0,0,0,0,0,0c0,0,0,0.1,0.1,0.1c0.3,0,0.8,0.4,1.5,1c0.2,0.1,0.4,0.2,0.6,0.3c0.1,0,0.1,0.1,0.2,0.1
		c-0.1-0.1-0.2-0.2-0.4-0.3C15.5,18.3,15.3,18.1,15.1,18z M15.2,17.8c0.2,0.1,0.4,0.3,0.6,0.5c0.8,0.6,1.9,1.4,2.2,1.4
		c-0.1-0.2-1.3-1-2.2-1.5c-0.5-0.3-0.8-0.5-1.2-0.7C14.8,17.5,15,17.7,15.2,17.8z M13.7,16.5c0.1,0.2,1.3,0.9,2.2,1.5
		c0.2,0.1,0.4,0.3,0.6,0.4c-0.2-0.1-0.3-0.3-0.5-0.4C15.2,17.3,14.1,16.4,13.7,16.5C13.7,16.5,13.7,16.5,13.7,16.5z M16.1,17.8
		C16.1,17.8,16.1,17.8,16.1,17.8c0.8,0.6,1.6,1.3,1.8,1.3C17.8,18.8,16.9,18.3,16.1,17.8z M13.7,15.9L13.7,15.9L13.7,15.9z M18.3,12
		c-0.2-0.1-0.3-0.2-0.3-0.3c0-0.1,0-0.1,0-0.1c0,0,0.1-0.1,0.1-0.1c0.1,0,0.2,0,0.4,0.2c0,0,0-0.1,0-0.1c0.1-0.1,0.2-0.1,0.5,0.1
		c0,0,0-0.1,0-0.1c0.1-0.1,0.2-0.1,0.6,0.2c0,0,0-0.1,0-0.1c0,0,0-0.1,0-0.1c0.1-0.1,0.2,0,1.1,0.4c0.3,0.2,0.7,0.4,1,0.5
		c-0.1-0.1-0.2-0.1-0.3-0.2c-0.6-0.3-0.9-0.5-0.9-0.7c0,0,0-0.1,0-0.1c0.1-0.2,0.4,0,1,0.2c0,0,0,0,0,0c-0.1-0.1-0.1-0.1-0.1-0.1
		c0,0,0-0.1,0-0.1c0-0.1,0.1-0.1,0.5,0c0,0,0.1,0,0.2,0c0,0,0,0,0,0c0-0.1,0.1-0.1,0.2,0l0,0c0,0,0.1,0,0.1,0.1c0,0,0,0.1,0,0.1
		c0,0.1-0.1,0.1-0.4,0c0,0,0,0-0.1,0c0,0,0,0,0,0c0.3,0.2,0.4,0.2,0.4,0.3c0,0,0,0.1,0,0.1c-0.1,0.1-0.3,0-0.8-0.2
		c-0.2-0.1-0.5-0.2-0.7-0.3c0.1,0.1,0.5,0.3,0.8,0.5c0.5,0.3,0.7,0.4,0.7,0.5c0,0,0,0.1,0,0.1c-0.1,0.2-0.5,0-1.6-0.6
		c0.1,0.1,0.2,0.1,0.2,0.2c1,0.7,1.2,0.8,1.3,0.9c0,0,0,0.1,0,0.1c0,0-0.1,0.1-0.2,0c0.1,0.1,0.1,0.1,0.1,0.2c0,0,0,0.1,0,0.1
		c0,0-0.1,0.1-0.1,0.1c0.1,0.1,0.1,0.1,0.1,0.2c0,0,0,0.1,0,0.1c0,0,0,0-0.1,0.1c0,0,0,0.1,0,0.1c0,0.1,0,0.1,0,0.2
		c0,0-0.1,0.1-0.1,0c0,0-0.1-0.1,0-0.1c0,0,0,0,0,0c0,0,0-0.1-0.1-0.1c-0.4,0-1-0.5-1.9-1.2c0,0-0.1,0-0.1-0.1
		C19.1,12.5,18.6,12.2,18.3,12z M18.2,11.6c0.1,0.1,0.4,0.3,0.7,0.5C18.6,11.9,18.3,11.7,18.2,11.6z M18.8,11.7
		c0.1,0.3,1.1,0.8,1.8,1.2c0,0,0,0,0,0c-0.1-0.1-0.1-0.1-0.2-0.2C19.8,12.3,19,11.7,18.8,11.7z M21.6,13.7c0.1,0.1,0.2,0.1,0.2,0.2
		c0,0,0,0,0,0C21.8,13.8,21.7,13.8,21.6,13.7z M21.7,13.4c-0.1-0.1-0.3-0.2-0.4-0.3C21.4,13.2,21.6,13.3,21.7,13.4
		C21.7,13.4,21.7,13.4,21.7,13.4z M19.4,11.7c0.2,0.2,0.6,0.4,0.9,0.6C20,12.1,19.6,11.8,19.4,11.7z M22.2,11.6L22.2,11.6L22.2,11.6
		z M9.9,15.9C9.9,15.8,9.9,15.8,9.9,15.9c-0.1-0.1,0-0.1,0-0.2c0.1-0.1,0.2-0.1,0.6,0c-0.1,0-0.1-0.1-0.2-0.1
		c-0.3-0.2-0.4-0.2-0.5-0.3c0,0,0-0.1,0-0.1c0,0,0.1-0.1,0.1-0.1C9.9,15,9.9,15,9.9,14.9c0,0,0-0.1,0-0.1c0.1-0.1,0.2-0.1,0.3-0.1
		c-0.2-0.1-0.3-0.2-0.3-0.3c0,0,0-0.1,0-0.1c0.1-0.1,0.2-0.1,0.5,0c-0.3-0.2-0.5-0.3-0.5-0.5c0-0.1,0-0.1,0-0.2c0,0,0.1,0,0.1-0.1
		c0,0,0.1,0,0.1,0c-0.2-0.2-0.2-0.3-0.3-0.4c0-0.1,0-0.2,0-0.2C9.9,13,10,13,10,13c-0.1-0.1-0.1-0.2-0.2-0.2c0,0,0-0.1,0-0.1
		c0,0,0-0.1,0-0.1c0-0.1,0-0.2,0-0.3c0,0,0,0,0,0C9.9,12.1,9.8,12,9.8,12c0-0.1,0-0.3,0.1-0.4c0.1-0.1,0.2-0.2,0.3-0.2
		c0.1,0,0.2,0,0.3,0c0,0,0.1,0,0.1,0c0.2,0,0.4,0.1,0.7,0.2c0,0,0-0.1,0-0.1c0.1-0.1,0.2-0.1,0.7,0.2c0,0,0,0,0,0c0-0.1,0-0.1,0-0.2
		c0,0,0.1,0,0.1,0c0.1,0,0.2,0,0.4,0.2c0,0,0-0.1,0-0.1c0,0,0.1-0.1,0.1-0.1c0.1,0,0.2,0,0.4,0.2c0,0,0-0.1,0-0.1
		c0,0,0.1-0.1,0.1-0.1c0.1,0,0.2,0,0.4,0.1c0,0,0-0.1,0-0.1c0,0,0-0.1,0.1-0.1c-0.1-0.1-0.1-0.1-0.1-0.2c0-0.1,0-0.1,0-0.1
		c0,0,0.1-0.1,0.1-0.1c-0.1-0.1-0.2-0.2-0.2-0.3c0-0.1,0-0.2,0-0.3c0,0,0-0.1,0-0.1c0-0.1,0-0.1,0-0.2c0,0,0-0.1,0-0.1
		c0-0.1,0-0.3,0.1-0.4c0,0,0.1,0,0.1-0.1c0,0,0,0,0,0c-0.1-0.1-0.2-0.2-0.2-0.3c0-0.1,0-0.2,0-0.2c0,0,0.1,0,0.1-0.1
		c0.1,0,0.2,0,0.3,0.1c-0.2-0.2-0.4-0.3-0.4-0.5c0-0.1,0-0.2,0-0.2c0-0.1,0.1-0.1,0.2-0.1c0,0,0,0,0,0c-0.1-0.1-0.2-0.2-0.2-0.3
		c0-0.1,0-0.1,0-0.2c0,0,0.1-0.1,0.1-0.1c0-0.1-0.1-0.1-0.1-0.2c0-0.1,0-0.1,0-0.2c0.1-0.1,0.1-0.1,0.4,0.1
		c-0.2-0.2-0.3-0.3-0.3-0.4c0,0,0-0.1,0-0.1c0.1-0.1,0.1-0.1,1.5,0.9c0.4,0.3,0.9,0.6,1.4,1C17,8.9,17.2,9,17.5,9.2
		c0.2,0.1,0.4,0.2,0.5,0.2c0-0.1-0.1-0.1-0.2-0.2c-0.4-0.2-1.2-0.7-2.1-1.4c0,0-0.1-0.1-0.1-0.1c-1.3-0.8-1.6-1-1.6-1.2
		c0,0,0-0.1,0-0.1c0,0,0.1,0,0.1-0.1c0,0,0,0,0.1,0c0-0.1-0.1-0.1-0.1-0.2c0-0.1,0-0.1,0-0.1C14,6,14.1,6,15.4,6.9
		c0.8,0.5,2.2,1.5,2.5,1.5c-0.1-0.2-1.2-0.8-1.9-1.3c-1.3-0.8-1.9-1.2-1.9-1.4c0,0,0-0.1,0-0.1c0-0.1,0.1-0.1,0.2-0.1
		c0.1,0,0.1,0,0.2,0c-0.1-0.1-0.2-0.2-0.2-0.2c0,0,0-0.1,0-0.1c0-0.1,0.1-0.1,0.3,0c0-0.1-0.1-0.1-0.1-0.2c0-0.1,0-0.1,0-0.2
		c0-0.1,0.1-0.1,0.2-0.1c0,0,0,0,0,0c0,0,0,0,0,0c0-0.1,0-0.1,0-0.2c0.1-0.1,0.2-0.1,0.4-0.1c0,0,0-0.1,0-0.1c0-0.1,0-0.1,0-0.2
		C15.3,4,15.3,4,17.5,5.3c0.1,0,0.1,0.1,0.2,0.1c-1.2-0.8-2-1.3-2-1.5c0-0.1,0-0.1,0-0.1c0-0.1,0.1-0.1,0.2-0.1c0.1,0,0.2,0,0.3,0
		c-0.1-0.1-0.1-0.1-0.1-0.1c0,0,0-0.1,0-0.1c0,0,0.1-0.1,0.2-0.1c0.1,0,0.1,0,0.2,0c0-0.1,0-0.1,0-0.2c0,0,0.1,0,0.1-0.1
		c0.2,0,0.7,0.4,2,1.4C18.8,4.7,19,4.8,19.1,5c1.3,0.7,2.2,1.2,2.4,1.6c0.2,0.1,0.4,0.2,0.5,0.2c0,0,0,0,0,0c0,0,0,0,0-0.1
		c-0.1-0.5-2-1.6-3.3-2.3c-1.3-0.7-1.7-1-1.8-1.2c0,0,0-0.1,0-0.1c0.1-0.1,0.3-0.1,0.8,0.1c-0.1-0.1-0.1-0.1-0.1-0.2
		c0,0,0-0.1,0-0.1c0,0,0.1-0.1,0.1-0.1c0.1,0,0.3,0,0.5,0.1c0-0.1,0-0.1,0-0.2c0.1-0.1,0.3-0.1,0.7,0.2c0,0,0-0.1,0-0.1
		c0,0,0-0.1,0-0.1c0.1-0.1,0.2-0.1,0.7,0.2c0,0,0,0,0-0.1c0,0,0-0.1,0-0.1c0.1-0.2,0.4,0,1.1,0.4c-0.2-0.2-0.3-0.2-0.3-0.3
		c0,0,0-0.1,0-0.1c0.1-0.1,0.1-0.1,0.6,0.2c0.1,0.1,0.3,0.1,0.4,0.2C21.6,3.1,21.5,3,21.5,3c0,0,0-0.1,0-0.1c0.1-0.1,0.1-0.1,0.5,0
		c0.1,0,0.1,0,0.2,0.1c0,0,0,0,0,0c0-0.1,0.1-0.1,0.2,0c0,0,0,0,0,0c0,0,0.1,0.1,0.1,0.1c0,0,0,0.1,0,0.1c-0.1,0.1-0.1,0.1-0.5,0
		c0,0,0,0,0,0c0.1,0.1,0.2,0.1,0.2,0.1c0.3,0.1,0.3,0.2,0.3,0.2c0,0,0,0.1,0,0.1c-0.1,0.1-0.3,0.1-1-0.2c0,0,0,0,0,0
		c0.8,0.5,1,0.7,1,0.8c0,0,0,0.1,0,0.1c-0.1,0.1-0.3,0-1.2-0.5c-0.4-0.3-1.1-0.7-1.3-0.7c0.1,0.2,0.8,0.6,1.3,0.8
		c0.8,0.5,1.2,0.7,1.2,0.9c0,0,0,0.1,0,0.1c0,0.1-0.1,0.1-0.2,0c0.2,0.1,0.3,0.2,0.3,0.3c0,0.1,0,0.1,0,0.2c-0.1,0.1-0.3,0-1.8-1
		c-0.8-0.5-1.9-1.3-2.2-1.3c0,0,0,0,0,0c0,0,0,0.1,0.1,0.2c0.4,0.2,1,0.6,1.6,1.1c0.2,0.1,0.5,0.3,0.7,0.4c1.1,0.6,1.5,0.9,1.6,1.1
		c0,0,0,0.1,0,0.1c0,0,0,0-0.1,0.1c-0.2,0-0.7-0.3-1.9-1.2c-0.1-0.1-0.3-0.2-0.4-0.3c-0.7-0.4-1.3-0.8-1.6-1.1C18.2,3.1,18,3,17.8,3
		c0.2,0.2,1.4,1,2.3,1.6c1.6,1,2.3,1.4,2.3,1.7c0,0,0,0.1,0,0.1c-0.1,0.1-0.1,0.1-0.3,0c0.1,0.1,0.1,0.2,0.1,0.2c0,0.1,0,0.2,0,0.2
		c0,0-0.1,0.1-0.2,0.1c-0.1,0-0.3,0-0.5-0.1c0,0,0,0,0,0.1c0,0.1-0.1,0.1-0.2,0.1c-0.1,0-0.3,0-0.5-0.1c0,0,0,0,0,0
		c0,0-0.1,0-0.1,0.1c-0.2,0-0.6-0.3-1.7-1.2c-1.1-0.8-2.6-2-3.1-1.9c0,0,0,0,0,0c0.1,0.3,1.6,1.2,2.5,1.8C19.6,6.4,20,6.6,20,6.8
		c0,0,0,0.1,0,0.1C19.9,7,19.8,7,17.4,5.5c-0.7-0.5-1.6-1-1.9-1.2c0,0.1,0.1,0.2,0.2,0.3c0.5,0.2,1.2,0.7,2.2,1.4
		C17.9,6,18,6,18,6.1c1,0.6,1.2,0.7,1.3,0.8c0,0,0,0.1,0,0.1c-0.1,0.1-0.2,0.1-1.4-0.8c0,0-0.1-0.1-0.1-0.1c-1-0.6-1.8-1.1-2.2-1.4
		c-0.3-0.1-0.4-0.2-0.5-0.1c0,0,0,0,0,0c0,0,0,0.1,0.1,0.1c0.5,0.2,1.4,0.8,2.5,1.6c0.1,0.1,0.1,0.1,0.2,0.2c0.8,0.5,1,0.6,1,0.7
		c0,0,0,0.1,0,0.1c0,0-0.1,0-0.1,0c-0.1,0-0.3-0.1-1-0.6c0,0-0.1,0-0.1-0.1c-1.2-0.7-2.2-1.3-2.6-1.7c-0.1,0-0.1,0-0.1,0
		c0,0,0,0,0,0c0,0,0,0,0,0c0.1,0.3,1.2,0.9,2,1.3c1,0.6,1.6,0.9,1.7,1.1c0,0.1,0,0.1,0,0.1c0,0.1-0.1,0.1-0.2,0.1c0,0,0,0.1,0.1,0.1
		c0,0.1,0,0.1,0,0.2c0,0-0.1,0.1-0.1,0.1C18,8,17.9,8,17.8,8c0.2,0.2,0.4,0.3,0.4,0.4c0,0,0,0.1,0,0.1c-0.2,0.3-0.9-0.1-2.8-1.4
		c-0.4-0.3-0.9-0.6-1.2-0.8c0.3,0.3,1.5,1.1,2.3,1.5c1.3,0.8,1.7,1,1.7,1.2c0,0,0,0.1,0,0.1c0,0-0.1,0.1-0.1,0.1
		c0.1,0.1,0.1,0.1,0.1,0.2c0,0.1,0,0.1,0,0.1c0,0-0.1,0.1-0.1,0.1c0.1,0.1,0.1,0.2,0.2,0.3c0,0.1,0,0.1,0,0.2
		c-0.1,0.1-0.2,0.1-0.4,0c0.3,0.2,0.4,0.3,0.4,0.4c0,0,0,0.1,0,0.1c0,0-0.1,0.1-0.1,0.1c0,0,0,0,0,0c0.1,0.1,0.2,0.2,0.2,0.2
		c0,0,0,0.1,0,0.1c0,0-0.1,0-0.1,0.1c0,0-0.1,0-0.2,0c0.2,0.1,0.3,0.3,0.3,0.4c0,0.1,0,0.2,0,0.2c0,0.1-0.1,0.1-0.2,0.1
		c-0.5,0.1-1.5-0.7-2.9-1.7c-0.6-0.4-1.2-0.9-1.4-0.9c0,0,0,0,0,0c0.1,0.5,2.3,1.8,4.3,3c2.4,1.4,3.8,2.2,3.9,2.7c0,0.1,0,0.1,0,0.2
		c-0.1,0.1-0.2,0.1-0.3,0.2c0.1,0.1,0.2,0.2,0.2,0.3c0,0,0,0.1,0,0.1c0,0-0.1,0.1-0.1,0.1c0,0,0,0,0,0c0,0.1,0,0.2,0,0.2
		c0,0-0.1,0.1-0.2,0.1c-0.1,0-0.2,0-0.3-0.1c0,0-0.1,0.1-0.1,0.1c-0.1,0-0.4-0.1-0.7-0.2c0,0,0,0.1,0,0.1c0,0.1-0.1,0.1-0.2,0.1
		c-0.1,0-0.2,0-0.4-0.1C19.7,16,19.6,16,19.5,16c-0.1,0-0.3,0-0.5-0.1c0,0-0.1,0.1-0.1,0.1c-0.1,0-0.2,0-0.4-0.1
		c0,0-0.1,0.1-0.1,0.1c-0.1,0-0.1,0-0.2,0c0,0,0,0,0,0c0,0-0.1,0.1-0.2,0c0.1,0.1,0.2,0.2,0.2,0.3c0,0.1,0,0.1,0,0.2
		c0,0-0.1,0.1-0.1,0.1c0.1,0.1,0.1,0.2,0.2,0.3c0,0.1,0,0.2-0.1,0.3c0,0-0.1,0.1-0.1,0.1c0,0,0,0,0,0c0.1,0.1,0.2,0.2,0.2,0.2
		c0,0,0,0.1,0,0.1c-0.1,0.1-0.2,0.1-0.3,0.2c-0.1,0-0.1,0-0.2,0c0,0,0,0,0.1,0c0.3,0.2,0.4,0.3,0.5,0.4c0,0,0,0.1,0,0.1c0,0,0,0,0,0
		c0,0.1,0,0.1,0.1,0.1c0,0.1,0,0.2,0,0.2c0,0,0,0,0,0c0,0.1,0.1,0.1,0.1,0.2c0,0.1,0,0.2,0,0.2c0,0-0.1,0.1-0.2,0.1
		c-0.6,0.1-2.6-1.4-5.1-3.3c0,0,0,0,0,0c-0.1,0.2-0.4,0-1-0.3c0.1,0.1,0.1,0.1,0.1,0.2c0,0.1,0,0.1,0,0.1c-0.1,0.1-0.3,0.1-0.6-0.2
		c0,0,0,0,0,0.1c0,0,0,0.1,0,0.1c-0.1,0.1-0.2,0-0.5-0.1c0,0,0,0,0,0c0,0,0,0.1,0,0.1c0,0.1-0.1,0.1-0.4,0c-0.1,0-0.2,0-0.3,0
		c0,0,0,0,0,0C10.1,15.9,10,15.9,9.9,15.9C10,15.9,10,15.9,9.9,15.9z M10.1,14.9c0.1,0.1,0.5,0.3,0.7,0.4c0.1,0,0.1,0.1,0.1,0.1
		C10.7,15.3,10.3,15,10.1,14.9z M11.7,15.6c-0.2-0.1-0.6-0.4-0.9-0.5c0.1,0.1,0.2,0.1,0.2,0.2c0.2,0.2,0.6,0.4,0.7,0.4
		C11.8,15.7,11.7,15.7,11.7,15.6z M11.1,15c-0.3-0.2-0.7-0.4-0.9-0.5c0.2,0.1,0.4,0.3,0.6,0.4C10.9,14.9,11,15,11.1,15z M12.2,15.4
		c-0.3-0.2-0.6-0.3-0.8-0.4c-0.1-0.1-0.3-0.2-0.4-0.2c0.2,0.1,0.3,0.2,0.5,0.3c0.4,0.3,1,0.6,1.2,0.7C12.5,15.6,12.4,15.5,12.2,15.4
		z M10.1,13.9c0.1,0.2,0.6,0.4,1,0.7C10.6,14.2,10.3,14,10.1,13.9z M12.8,15.6C12.8,15.6,12.8,15.6,12.8,15.6
		c1.9,1.4,4.6,3.4,5.1,3.3c0,0,0,0,0,0c0,0,0,0,0,0c0-0.1-0.1-0.2-0.2-0.3c-0.1,0-0.2-0.1-0.3-0.2c-0.6-0.2-1.6-0.9-2.7-1.7
		c-0.2-0.1-0.5-0.3-0.7-0.4c-0.6-0.3-1.1-0.6-1.6-0.9C12.7,15.4,12.8,15.5,12.8,15.6z M10.4,13.3c-0.2-0.1-0.3-0.1-0.4-0.1
		c0,0,0,0,0,0.1c0.1,0.5,2.1,1.6,3.9,2.7c-0.3-0.3-0.6-0.5-0.9-0.8C11.9,14.4,11,13.8,10.4,13.3z M16.4,17.6
		C16.4,17.6,16.4,17.6,16.4,17.6C16.4,17.6,16.4,17.6,16.4,17.6C16.4,17.6,16.4,17.6,16.4,17.6z M14.7,16.3c0.1,0.1,0.2,0.2,0.3,0.2
		c0,0,0.1,0,0.1,0C14.9,16.5,14.8,16.4,14.7,16.3z M10.3,12.9c0,0,0.1,0.1,0.1,0.1c0.1,0,0.1,0.1,0.2,0.1c0.1,0,0.1,0.1,0.2,0.1
		C10.6,13.1,10.4,13,10.3,12.9z M15.5,16.6c0.4,0.3,0.7,0.6,1.1,0.8c0.5,0.3,0.9,0.6,1.2,0.8c0,0,0.1,0,0.1,0c0,0,0,0,0.1,0
		c-0.1-0.1-0.2-0.2-0.3-0.3c-0.4-0.3-1.1-0.7-1.8-1.1C15.7,16.8,15.6,16.7,15.5,16.6z M17.9,18.4C17.9,18.4,17.9,18.4,17.9,18.4
		C17.9,18.5,18,18.5,17.9,18.4C18,18.5,18,18.5,17.9,18.4C18,18.4,18,18.4,17.9,18.4C17.9,18.4,17.9,18.4,17.9,18.4z M13.7,15.3
		c0.1,0.1,0.2,0.1,0.2,0.2c0,0,0,0,0.1,0C14,15.5,13.9,15.4,13.7,15.3C13.8,15.4,13.8,15.3,13.7,15.3z M11.7,13.7
		c0.1,0.1,0.3,0.3,0.5,0.4c0.1,0.1,0.2,0.1,0.3,0.2c-0.2-0.1-0.4-0.3-0.6-0.4C11.8,13.8,11.7,13.8,11.7,13.7z M10,12.4
		C10,12.5,10,12.5,10,12.4c0,0.1,0,0.1,0,0.2c0.1,0,0.2,0,0.3,0.1c-0.1-0.1-0.1-0.1-0.2-0.2C10.1,12.5,10.1,12.5,10,12.4z
		 M13.3,14.7c0.2,0.2,0.4,0.3,0.6,0.5c1.4,0.9,2.6,1.6,3.3,2.2c0.2,0.1,0.4,0.1,0.6,0.1c0.1,0,0.1,0,0.1-0.1
		c-0.1-0.2-1.4-0.9-2.5-1.5C14.8,15.6,14,15.2,13.3,14.7z M10.5,12.5c0.3,0.2,0.8,0.6,1.5,1.2c0,0,0.1,0,0.1,0.1
		c1.1,0.7,2.4,1.4,3.5,2.1c0.4,0.2,0.7,0.4,1,0.6c-0.5-0.4-1-0.8-1.7-1.4c-0.3-0.3-0.7-0.6-1-0.9c-0.1,0-0.1-0.1-0.2-0.1
		c-2-1.2-3.3-1.9-3.4-2.3c0,0,0,0,0-0.1c0,0-0.1,0-0.1,0c-0.1,0-0.1,0-0.2,0.1c0,0.1-0.1,0.1,0,0.2c0,0.1,0.1,0.3,0.3,0.5
		C10.3,12.4,10.4,12.4,10.5,12.5z M14.8,14.6c0.1,0.1,0.1,0.1,0.2,0.2c1.2,1,2.7,2.3,2.9,2.2c0,0,0,0,0-0.1c0-0.1-0.1-0.2-0.2-0.3
		C17.2,16.5,16.1,15.6,14.8,14.6C14.9,14.6,14.9,14.6,14.8,14.6z M10.6,11.7c0.1,0.3,1.3,1,2.5,1.7C12.1,12.5,11.1,11.8,10.6,11.7z
		 M16.3,15.5c0.4,0.3,0.8,0.5,1,0.7C17,16,16.7,15.7,16.3,15.5z M13.6,13.3c0.2,0.2,0.4,0.4,0.7,0.5c0.2,0.2,0.5,0.4,0.7,0.6
		c1.2,0.7,2.4,1.4,2.9,1.9c0,0,0,0,0,0c0,0,0.1,0,0.1,0c0-0.3-2.2-1.7-3.7-2.6C14.1,13.6,13.8,13.5,13.6,13.3z M11.5,11.7
		c0.3,0.3,1.5,1,2.5,1.7C13,12.6,11.9,11.9,11.5,11.7z M12.2,11.7c0.1,0.2,0.7,0.6,1.4,1c0,0-0.1-0.1-0.1-0.1
		c-0.4-0.2-0.6-0.4-0.8-0.6C12.4,11.9,12.3,11.8,12.2,11.7z M17.4,15.3c-0.1-0.1-0.3-0.2-0.4-0.3C17.1,15.2,17.3,15.2,17.4,15.3z
		 M14.7,13.4c0.1,0.1,0.2,0.2,0.3,0.3c0,0,0.1,0,0.1,0c0.3,0.2,0.6,0.4,0.9,0.6c-0.2-0.1-0.3-0.3-0.5-0.4c0,0-0.1,0-0.1-0.1
		C15.2,13.7,15,13.5,14.7,13.4z M12.7,11.8c0.2,0.2,0.5,0.4,0.8,0.6c0.3,0.2,0.7,0.4,1.1,0.7c-0.9-0.7-1.8-1.4-2-1.5c0,0,0,0,0,0
		C12.6,11.7,12.7,11.8,12.7,11.8z M18.1,15.7C18.1,15.7,18.1,15.7,18.1,15.7c0.1,0.1,0.1,0.1,0.1,0.1C18.2,15.8,18.2,15.7,18.1,15.7
		z M16.7,14.5c0.6,0.5,1.2,0.9,1.6,1.1c-0.1-0.1-0.1-0.1-0.2-0.2c-0.1-0.1-0.3-0.2-0.4-0.3C17.4,14.9,17.1,14.7,16.7,14.5z
		 M14.5,12.8c0.2,0.1,0.3,0.3,0.5,0.4c0.2,0.2,0.4,0.3,0.6,0.5c0.3,0.2,0.6,0.3,0.8,0.5c-0.3-0.2-0.5-0.4-0.8-0.7
		c-0.1,0-0.1-0.1-0.2-0.1c0,0-0.1-0.1-0.1-0.1C15.1,13.1,14.8,12.9,14.5,12.8z M18.6,15.7C18.6,15.7,18.6,15.7,18.6,15.7
		c0.1,0.1,0.1,0.1,0.1,0.1C18.7,15.8,18.6,15.7,18.6,15.7z M13.7,11.9c-0.3-0.2-0.5-0.3-0.5-0.2c0,0.1,0.7,0.6,1.5,1
		C14.2,12.3,13.9,12.1,13.7,11.9z M18,15.1c0.1,0,0.1,0.1,0.2,0.1c0.3,0.2,0.5,0.4,0.7,0.5c0-0.1-0.1-0.2-0.2-0.3
		c-0.3-0.2-0.6-0.5-1-0.8c-0.4-0.2-0.8-0.5-1.2-0.7c0.4,0.4,0.9,0.7,1.3,1.1C17.9,15,17.9,15,18,15.1z M19.1,15.6c0,0,0,0.1,0,0.1
		c0.1,0.1,0.3,0.1,0.4,0.1c0,0,0,0,0,0C19.4,15.8,19.3,15.7,19.1,15.6z M14,11.9c0.2,0.2,0.5,0.4,0.8,0.6c0.4,0.2,0.8,0.5,1.2,0.7
		c-0.6-0.5-1.2-1-1.7-1.4c-0.1-0.1-0.2-0.1-0.2-0.2c-0.2-0.1-0.3-0.2-0.4-0.2c0,0,0,0,0,0c0,0,0,0.1,0.1,0.2
		C13.9,11.7,14,11.8,14,11.9z M18.6,14.9c0.1,0.1,0.2,0.2,0.3,0.3c0.2,0.2,0.5,0.3,0.7,0.4C19.3,15.5,19,15.2,18.6,14.9z M15.8,12.8
		c0.2,0.1,0.3,0.3,0.5,0.4c0.2,0.2,0.5,0.4,0.7,0.6c1.6,0.9,2.6,1.6,2.7,1.9c0,0,0,0,0,0c0.1,0,0.2,0.1,0.3,0.1c0,0,0.1,0,0.1,0
		c0,0,0,0,0,0c0,0,0-0.1-0.1-0.1c-0.6-0.3-1.3-0.9-2.3-1.6c-0.4-0.3-0.9-0.5-1.3-0.8C16.3,13,16,12.9,15.8,12.8z M14,11.2
		c-0.1-0.1-0.2-0.1-0.3-0.1c0,0.1,0.2,0.2,0.4,0.4c0.1,0.1,0.2,0.1,0.4,0.2c0.6,0.4,1.3,0.8,2,1.2c-0.4-0.3-0.9-0.7-1.3-1
		C14.7,11.7,14.3,11.4,14,11.2z M16.5,12.7c0.2,0.2,0.5,0.4,0.7,0.5c0.2,0.2,0.5,0.4,0.8,0.6c0.2,0.1,0.3,0.2,0.4,0.3
		c-0.5-0.4-1-0.8-1.6-1.2C16.7,12.8,16.6,12.7,16.5,12.7z M13.7,10.6c0,0.1,0.2,0.3,0.4,0.5c0.3,0.1,0.7,0.4,1.2,0.8c0,0,0,0,0,0
		c0.2,0.1,0.3,0.2,0.5,0.3c-0.1-0.1-0.1-0.1-0.2-0.2C14.8,11.4,14,10.9,13.7,10.6z M20.1,15.3c0,0,0.1,0.1,0.1,0.1
		c0.2,0.2,0.5,0.3,0.6,0.3C20.7,15.7,20.4,15.5,20.1,15.3z M17.8,13.4c1.3,1,2.6,1.9,3.3,2.3c0,0,0,0,0,0c0,0,0-0.1,0-0.1
		c-0.5-0.3-1.3-0.8-2.2-1.6C18.5,13.8,18.2,13.6,17.8,13.4z M16.9,12.7C16.9,12.7,16.9,12.7,16.9,12.7
		C16.9,12.7,16.9,12.7,16.9,12.7C16.9,12.7,16.9,12.7,16.9,12.7z M21.3,15.6c0,0,0,0.1,0,0.1c0.1,0,0.2,0,0.2,0c0,0,0,0,0,0
		c0,0,0,0,0-0.1c0,0,0,0,0,0C21.5,15.7,21.4,15.7,21.3,15.6z M14.8,11c0.7,0.5,1.7,1.1,2.6,1.7c-1.5-1.3-3.1-2.7-3.6-2.7
		c0,0,0,0,0,0c0.1,0.2,0.5,0.5,0.9,0.8C14.7,10.9,14.7,11,14.8,11z M20.9,15c0.1,0.1,0.2,0.2,0.3,0.3c0.1,0,0.1,0.1,0.2,0.1
		C21.3,15.3,21.1,15.2,20.9,15z M13.7,9.7c0,0,0,0.1,0,0.2c0,0,0,0,0,0c0,0,0.1,0,0.1,0c0.1,0,0.2,0,0.3,0
		C13.9,9.8,13.8,9.7,13.7,9.7z M15.6,10.9c0.1,0.1,0.2,0.2,0.3,0.3c0.9,0.7,2,1.7,3,2.4c0.1,0.1,0.2,0.1,0.4,0.2
		c1,0.6,1.7,0.9,2.1,1.2c0.1,0,0.2,0,0.2,0c0.1,0,0.1,0,0.2-0.1c0,0,0,0,0,0c-0.1-0.4-2.1-1.6-3.8-2.6
		C17.1,11.8,16.3,11.3,15.6,10.9z M14.6,9.4c0.2,0.1,0.4,0.3,0.6,0.4c1,0.7,2.3,1.7,2.7,1.6c0,0,0.1,0,0.1,0c0,0,0,0,0-0.1
		c-0.1-0.3-1.2-0.9-2.2-1.4c-0.6-0.3-1.1-0.6-1.5-0.8C14.4,9.3,14.5,9.4,14.6,9.4z M14.1,8.4c-0.1,0-0.2-0.1-0.3-0.1
		c0,0-0.1,0-0.1,0c0,0,0,0,0,0.1c0.1,0.3,1.2,0.9,2.2,1.4c0.5,0.3,0.9,0.5,1.3,0.7c-0.2-0.1-0.4-0.3-0.6-0.5
		c-0.3-0.2-0.5-0.4-0.8-0.6C15,9,14.5,8.7,14.1,8.4z M14.1,8c-0.2-0.1-0.3-0.2-0.3-0.1c0,0.1,0.2,0.3,0.4,0.4c0.4,0.2,1,0.5,1.6,1
		c0,0,0,0,0,0c-0.1-0.1-0.2-0.1-0.3-0.2c-0.3-0.2-0.6-0.4-0.8-0.6C14.5,8.3,14.3,8.1,14.1,8z M17.3,10.4c0.2,0.1,0.3,0.2,0.5,0.3
		C17.7,10.6,17.5,10.5,17.3,10.4z M16.4,9.5c0.6,0.5,1.3,0.9,1.5,1C17.7,10.2,17,9.8,16.4,9.5z M13.8,7.5c0,0.1,0.2,0.2,0.3,0.3
		c0.2,0.1,0.4,0.3,0.7,0.5C15.4,8.6,16,9,16.4,9.2c0,0,0.1,0,0.1,0.1c-0.3-0.2-0.6-0.4-1-0.7C14.9,8.1,14.1,7.6,13.8,7.5z M16.6,8.9
		c-0.3-0.2-0.6-0.4-0.9-0.5C15.3,8.1,15,8,14.8,7.8C15,8,15.3,8.2,15.6,8.4C16.5,9,17.7,9.9,18,9.9c0-0.1-0.3-0.3-0.6-0.5
		C17.1,9.2,16.9,9.1,16.6,8.9z M17.8,8.9c-0.2-0.2-0.7-0.4-1.1-0.7C17.2,8.5,17.5,8.8,17.8,8.9C17.8,9,17.9,9,17.9,9
		C17.9,9,17.8,9,17.8,8.9z M14.3,5.7c0.1,0.2,1.1,0.8,1.8,1.2c0.3,0.2,0.5,0.3,0.8,0.5c-0.2-0.1-0.4-0.3-0.6-0.5
		C15.6,6.3,14.7,5.6,14.3,5.7C14.3,5.7,14.3,5.7,14.3,5.7z M15.9,6.3c0.2,0.1,0.4,0.3,0.6,0.5c0.6,0.5,1.5,1.1,1.6,1.1
		c0-0.1-0.1-0.2-0.3-0.3c-0.3-0.2-0.8-0.5-1.5-0.9c-0.1-0.1-0.3-0.1-0.4-0.2C15.9,6.4,15.9,6.3,15.9,6.3z M18.1,7.3
		c-0.3-0.2-0.9-0.6-1.4-0.8c-0.3-0.1-0.5-0.3-0.7-0.4c0.2,0.1,0.3,0.2,0.5,0.4c0.7,0.4,1.2,0.7,1.5,0.9c0.1,0.1,0.2,0.1,0.3,0.1
		C18.3,7.4,18.2,7.3,18.1,7.3z M18.5,5.2C18.5,5.2,18.5,5.2,18.5,5.2C18.6,5.2,18.5,5.2,18.5,5.2C18.5,5.2,18.5,5.2,18.5,5.2z M17,4
		c-0.2-0.2-0.4-0.3-0.6-0.4c0.2,0.1,0.5,0.3,0.8,0.5C17.2,4.1,17.1,4,17,4z M20,5.9c0.4,0.3,0.7,0.5,0.8,0.7
		c0.2,0.1,0.4,0.2,0.5,0.2c0,0,0.1,0,0.1,0c0,0,0,0,0,0C20.8,6.4,20,5.8,19,5.1c-0.1,0-0.2-0.1-0.3-0.1c-0.2-0.1-0.4-0.2-0.5-0.3
		c0.1,0.1,0.2,0.2,0.3,0.3c0,0,0.1,0.1,0.1,0.1C19.2,5.4,19.7,5.7,20,5.9z M16.7,3.4C16.8,3.6,17.3,4,18,4.3
		C17.4,3.9,16.9,3.5,16.7,3.4z M17.2,3.2c0.2,0.2,1,0.6,1.6,1c0.1,0.1,0.3,0.1,0.4,0.2C18.4,3.8,17.5,3.2,17.2,3.2z M21.9,6
		c-0.4-0.3-0.9-0.6-1.4-0.9c0.6,0.4,1.3,0.9,1.6,1.1C22.1,6.1,22,6.1,21.9,6z M22,4.8c-0.3-0.3-0.9-0.6-1.4-0.8
		c0.1,0,0.1,0.1,0.2,0.1c0.6,0.4,1.2,0.8,1.5,1C22.2,5,22.1,4.9,22,4.8z M19.3,3c0.2,0.2,0.9,0.6,1.3,0.8c0.1,0,0.1,0.1,0.2,0.1
		C20.3,3.5,19.6,3.1,19.3,3z M22.3,3L22.3,3L22.3,3z"/>
</g>
</svg>
