<?xml version="1.0" encoding="utf-8"?>
<!-- Generator: Adobe Illustrator 25.3.1, SVG Export Plug-In . SVG Version: 6.00 Build 0)  -->
<svg version="1.1" id="Capa_1" xmlns="http://www.w3.org/2000/svg" xmlns:xlink="http://www.w3.org/1999/xlink" x="0px" y="0px"
	 width="34.2px" height="34.6px" viewBox="0 0 34.2 34.6" style="enable-background:new 0 0 34.2 34.6;" xml:space="preserve">
<g>
	<path d="M28.2,8.6c0.1,0.1,0.2,0.2,0.4,0.3c0.4,0.3,0.9,0.7,1.3,0.9c0.4,0.2,0.6-0.1,0.8-0.3c0.1-0.1,0.1-0.2,0.2-0.2l0,0
		C31,9.1,31.1,9,31.2,8.9c0.5-0.5,1-1.1,1.1-1.8l0,0l0,0c-0.3-0.3-0.7-0.5-1-0.8c0,0-0.1-0.1-0.1-0.1c0,0,0-0.1,0.1-0.1
		c0.5-0.9,1-2,0.6-3.1c-0.2-0.6-0.8-1.1-1.6-1.4l-0.7,0l0,0c-0.9,0.3-1.6,0.9-2.2,1.4C27.1,3,27,2.9,27,2.9
		c-0.4-0.2-0.7-0.3-1.1-0.4l0,0l0,0C25,3,24.4,3.7,23.9,4.3c-0.1,0.2-0.3,0.3-0.4,0.5l0,0.1l0.1,0c0.6,0.5,1.2,0.9,1.8,1.4
		c-0.2,0.2-0.3,0.4-0.5,0.5c-0.5-0.4-1-0.8-1.5-1.2c-0.9-0.7-1.8-1.5-2.8-2l0,0l0,0c-0.6,0.4-1.1,0.9-1.5,1.5
		c-0.3,0.4-0.6,0.8-1,1.1c-0.2,0.2-0.5,0.2-0.8,0.2c-0.1,0-0.2,0-0.2,0c-0.8,0-1.6,0-2.4,0c-0.4,0-0.9,0-1.3,0c0-0.1,0-0.2-0.1-0.3
		c-0.2-0.9-0.4-1.7-1-2.4c-0.5-0.7-1.2-1.2-1.8-1.8C10.1,1.9,10,1.8,9.8,1.7L9.8,1.7l0,0.1C9.2,3,8.7,4.4,8.5,6
		C7.8,5.7,7.3,5.5,6.7,5.3l-0.1,0l0,0.1C6.4,5.9,6.2,6.6,6,7.1c-0.1,0-0.3,0-0.4,0c-0.2,0-0.3,0-0.5,0L5,7.2l0,0.1
		C4.8,8.1,4.7,9,4.6,9.9c-0.1,0-0.2,0.1-0.4,0.1c-0.4,0.1-0.8,0.2-1.2,0.4l0,0c-0.4,0.4-0.4,0.9-0.4,1.4c0,0.1,0,0.2,0,0.3
		c0,2-0.1,4-0.1,5.9c-0.1,2.8-0.1,5.6-0.1,8.5c0,0.4,0,0.8,0,1.3c0,0.9-0.1,1.9,0.1,2.8c0.2,0.6,0.8,0.7,1.4,0.8
		c0.2,0,0.3,0,0.4,0.1c0,0.1,0.1,0.2,0.1,0.3c0.5,1.1,1,2.4,2.3,2.8l0.9,0l0,0c2.2-0.4,4.4-0.7,6.6-1c2.1-0.3,4.2-0.6,6.3-1
		c0,0.1-0.1,0.2-0.1,0.2c-0.1,0.2-0.2,0.5-0.3,0.7l0,0.1l0.1,0c1.5,0,3-0.1,4.5-0.2c1.3-0.1,2.6-0.1,3.9-0.2c0.2,0,0.4,0,0.6,0
		c0.6,0,1.3,0,1.9-0.2c0.6-0.2,0.6-0.7,0.6-1.2c0-0.1,0-0.2,0-0.3c0-1,0.1-2.1,0.1-3.1c0.1-2.7,0.2-5.5,0.2-8.2l0-0.1L31.9,20
		c-0.6,0.5-1.2,1.1-1.7,1.7l-0.1,0.1c0.1-2.3,0.2-4.6,0.3-6.9c0.1-1.1,0.1-2.2,0.2-3.3c0-0.1,0-0.1,0-0.2c0-0.5,0-1.1-0.6-1.3
		c-0.7-0.2-1.5-0.2-2.3-0.2c-0.3,0-0.6,0-0.9,0c0.2-0.2,0.4-0.4,0.6-0.6C27.7,9.1,27.9,8.9,28.2,8.6z M29.9,13.1
		c-0.8-0.8-1.6-1.7-2.4-2.5c0.4,0,0.8,0,1.2,0c0.4,0,0.8,0,1.3,0.1C30,11.4,30,12.2,29.9,13.1z M30.4,23c-0.1-0.4,0-0.6,0.1-0.7
		c0.1-0.1,0.3-0.1,0.5,0l0.1,0l0-0.1c0-0.3,0.1-0.6,0.3-0.9c0,3.7-0.2,7.5-0.3,11c-0.9,0.1-1.8,0.2-2.7,0.2c-1.1,0-2.2,0.1-3.2,0.1
		c-1.3,0.1-2.6,0.2-3.9,0.1c0.2-0.2,0.3-0.5,0.6-0.8c0.2,0.1,0.5,0.1,0.7,0.2l0.1,0l-0.1-0.1c0-0.1-0.1-0.2-0.1-0.3
		c0-0.1-0.1-0.1-0.1-0.2c0.2-0.1,0.5-0.2,0.7-0.3l0,0l0,0c0-0.1,0-0.3,0-0.4c0-0.1,0-0.2,0-0.3c0.1,0.1,0.3,0.2,0.4,0.2l0.1,0.1
		l0-0.1c0-0.1,0-0.2,0-0.3c-0.1-0.2-0.1-0.5,0.1-0.6c0.3,0,0.5,0,0.8,0.1l0.2,0L24,29.2l0,0c0.1-0.1,0.2-0.2,0.3-0.3l0.2,0.1
		c0.2,0.1,0.4,0.2,0.6,0.3l0.2,0.1c-0.5,0.6-0.9,1.2-1.3,1.8l-0.1,0.1l0.1,0c0.3,0,0.6,0,0.9,0c1.3,0,2.6-0.1,3.9-0.1
		c0.4,0,0.7,0,1.1-0.1l0.1,0l0-0.1c0.2-2.1,0.4-4.2,0.5-6.4l0-0.1l-0.1,0c-0.8-0.1-1.3,0.5-1.7,1c-0.1,0.1-0.2,0.2-0.3,0.3l0,0
		c-0.1,0.1-0.2,0.2-0.3,0.3L28,26.2c-0.2-0.2-0.4-0.4-0.6-0.6l0.1-0.1c0.1-0.1,0.2-0.2,0.3-0.3c0.1,0,0.2,0.1,0.3,0.1
		c0.1,0.1,0.2,0.1,0.3,0.2l0.2,0.1l-0.1-0.2c-0.1-0.3-0.2-0.5-0.4-0.8c0.2-0.1,0.5-0.1,0.8-0.2l0.1,0l0-0.1c-0.1-0.2,0-0.4,0.1-0.5
		c0.1-0.1,0.4-0.2,0.9-0.1l0.2,0.1l-0.2-0.2c-0.1-0.1-0.2-0.2-0.3-0.3c-0.1-0.1-0.2-0.2-0.2-0.2C29.7,23.2,30,23,30.4,23L30.4,23
		L30.4,23z M4.2,30.7c0,0-0.1,0-0.1,0c-0.3-0.1-0.6-0.2-1-0.3C2.9,29.7,3,29,3,28.3c0-0.1,0-0.2,0-0.3c0.1,0.1,0.2,0.2,0.3,0.2
		c0.3,0.3,0.6,0.5,0.8,0.9c0.1,0.4,0.1,0.8,0.1,1.2C4.2,30.4,4.2,30.6,4.2,30.7z M3.8,28.1C3.4,27.8,3,27.5,3,27
		c0-4,0.1-8.7,0.3-13.5c0.4-0.4,0.8-0.9,1.2-1.3c0.3-0.3,0.6-0.6,0.9-0.9c0,0,0.1-0.1,0.1-0.1c0.2-0.2,0.5-0.4,0.8-0.5
		c0.9-0.1,1.8-0.1,2.7-0.1c0.4,0,0.9,0,1.3,0c0.1,0.1,0.1,0.2,0.2,0.3c0.3,0.4,0.5,0.9,1,1.1c0.5,0.3,1.1,0.3,1.6,0.1
		c0.4-0.1,0.8-0.4,0.9-0.8c0.2-0.4,0.5-0.6,0.8-0.9c0.1-0.1,0.2-0.2,0.4-0.3l0.1-0.1l-0.1,0c-0.1-0.1-0.3-0.1-0.4-0.2
		c-0.1,0-0.1,0-0.2-0.1c0.5,0.1,1.1,0.1,1.7,0c0.3,0.1,0.5,0.2,0.8,0.2c-0.1,0-0.3,0-0.4,0c-0.3,0-0.6,0-1,0l-0.1,0l0,0.1
		c0,0.1,0,0.2,0.1,0.3c0,0.1,0.1,0.2,0.1,0.3l0,0.1l0.1,0c0.9-0.1,1.9-0.1,2.8-0.1c0.3,0.9,1,1.4,1.8,1.3c0.8,0.2,1.6-0.3,2.1-1.3
		c0.5,0,1,0,1.5,0.1c1,0,2,0,2.9,0.2c0.9,0.8,2,1.8,2.9,3c0.1,0.9,0,1.9,0,2.8c0,0.4-0.1,0.8-0.1,1.2c-0.1,0.8-0.1,1.6-0.1,2.3
		c0,0.8-0.1,1.6-0.1,2.5c-0.9,1-1.8,1.9-2.7,2.9c-1.1,1.2-2.3,2.4-3.4,3.6c0-0.1,0-0.2-0.1-0.3c-0.1-0.8-0.3-1.8-1-2.3
		c-0.3-0.3-0.7-0.3-1.1-0.3c-0.2,0-0.3,0-0.5,0c-0.1,0-0.2,0-0.3,0c-0.9,0.1-1.9,0.2-2.8,0.3c-2.7,0.3-5.5,0.5-8.2,1
		c-0.5,0.1-1.1,0.2-1.7,0.2c-1.2,0.1-2.4,0.3-3.5,0.8C4.1,28.3,3.9,28.2,3.8,28.1z M3.3,12.8c0-0.1,0-0.1,0-0.2c0-0.5,0-1,0.1-1.5
		c0.3-0.5,0.9-0.5,1.5-0.5c0.2,0,0.4,0,0.5,0C4.7,11.3,4,12.1,3.3,12.8z M6.6,7.4C6.7,7,6.8,6.5,7,6.1c1.3,0.6,2.5,1,3.6,1.3
		c0,0.1-0.1,0.4-0.1,0.5C9.2,7.9,7.8,7.7,6.6,7.4z M10.3,3.7c0,0.1-0.1,0.1-0.1,0.2l-0.1-0.1C9.8,3.5,9.9,3.1,10,2.7
		c0,0,0.1,0.1,0.1,0.1c0.2,0.2,0.3,0.4,0.5,0.6C10.5,3.5,10.4,3.6,10.3,3.7z M10.2,4c0,0.1-0.1,0.1-0.1,0.2L9.9,4.4l0.2-0.1
		c0.2-0.1,0.3-0.2,0.5-0.3c0.1-0.1,0.3-0.2,0.4-0.2c0.2,0.3,0.5,0.5,0.7,0.8c0,0-0.1,0-0.1,0.1l0,0l0,0c-0.7,0.5-1.6,0.6-2.4,0.8
		c-0.1,0-0.1,0-0.2,0c0-0.1,0.1-0.3,0.1-0.5C9.4,4.5,9.5,4,10,4C10,4,10.1,4,10.2,4L10.2,4z M9.8,5.8c0.1,0,0.2,0,0.3,0
		c0.1,0.3,0.2,0.6,0.3,0.9l-0.1,0c-0.3-0.1-0.7-0.2-1-0.3L9.2,5.9C9.4,5.9,9.6,5.9,9.8,5.8z M11.5,5.5c0,0.1,0,0.2,0,0.3
		c0.1,0.3,0.1,0.6,0.1,0.9c-0.2,0.1-0.4,0.2-0.6,0.3c-0.1-0.3-0.2-0.6-0.3-0.8c-0.1-0.1-0.1-0.3-0.2-0.4C10.9,5.6,11.2,5.6,11.5,5.5
		z M25.7,7.5c-0.2-0.3-0.2-0.6,0-0.9c0.5,0.3,0.9,0.7,1.4,1c0.2,0.2,0.5,0.4,0.7,0.5c-0.6,0.6-1.2,1.2-1.8,1.7c-0.4,0-0.9,0-1.3-0.1
		c-0.6,0-1.1,0-1.7-0.1c0.3,0,0.6,0,0.9,0l0.2,0l-0.1-0.1c-0.1-0.1-0.2-0.2-0.3-0.3c-0.1-0.1-0.2-0.2-0.2-0.2
		c0.1-0.1,0.2-0.2,0.2-0.3l0,0c0.1,0.1,0.2,0.1,0.3,0.2c0.1,0.1,0.2,0.1,0.3,0.2l0.1,0.1l0-0.1c0-0.3-0.1-0.7-0.1-1.1
		c0.3,0.2,0.5,0.3,0.9,0.5l0.3,0.2l-0.4-0.6c-0.1-0.2-0.2-0.4-0.3-0.5c0.3,0,0.7,0,1,0l0.1,0L25.7,7.5z M21.3,10
		c-0.1,0.2-0.2,0.4-0.5,0.5c-0.2,0.1-0.5,0.1-0.8,0c-0.1-0.2-0.1-0.4,0-0.6c0.1-0.1,0.2-0.2,0.3-0.3c0.2-0.1,0.5-0.1,0.6,0
		C21.2,9.7,21.3,9.8,21.3,10z M18.2,9.5c0.2,0.1,0.4,0.2,0.5,0.3c0,0,0,0,0,0c-0.5,0-1.1,0-1.6,0C17.5,9.7,17.8,9.6,18.2,9.5z
		 M24.2,7.3c-0.4,0.5-0.8,1-1.3,1.4c-0.1,0.1-0.2,0.2-0.4,0.4c0-0.1-0.1-0.2-0.1-0.3c-0.3-0.6-0.5-1.3-1.1-1.7
		c-0.7-0.6-1.6-0.6-2.4-0.6c-0.1,0-0.2,0-0.3,0c0.2-0.2,0.3-0.4,0.4-0.5c0.4-0.5,0.8-1,1.3-1.5c0.2,0,0.4,0.2,0.6,0.3
		c0.1,0.1,0.2,0.1,0.3,0.2c0.4,0.3,0.8,0.6,1.2,0.9C23,6.3,23.6,6.8,24.2,7.3z M21.9,9.4c0.1,0.8-0.3,1.5-1,1.7
		c0.1-0.1,0.2-0.2,0.2-0.2c0.4-0.4,0.8-0.8,0.5-1.3c-0.1-0.3-0.4-0.5-0.8-0.5c-0.5,0-0.9,0.2-1.1,0.6c-0.3,0.4,0,0.9,0.2,1.2
		c0,0.1,0.1,0.1,0.1,0.2c0,0-0.1-0.1-0.1-0.1c-0.3-0.1-0.6-0.3-0.6-0.6c0-0.4,0.2-0.7,0.4-1.1C19.8,9.2,19.9,9,20,8.8l0-0.1l-0.1,0
		C19.1,9,18.6,9,18.1,8.7l0,0l0,0c-0.1,0-0.1,0.1-0.2,0.1c-0.2,0.1-0.4,0.3-0.6,0.4C17,9.1,16.8,9,16.5,8.8c-0.1,0-0.2-0.1-0.3-0.1
		l0,0l0,0c-0.1,0-0.2,0.1-0.3,0.2c-0.2,0.1-0.4,0.3-0.7,0.3c-0.2-0.1-0.4-0.3-0.6-0.5c-0.1-0.1-0.2-0.2-0.3-0.3l0,0l0,0
		c-0.3,0.3-0.4,0.6-0.4,1l-0.3,0l0.3,0.1c0,0.1,0,0.2,0,0.4c0,0.6,0,1.1-0.6,1.4c-0.4,0.3-0.9,0.3-1.3,0.1C11.3,11,11,10.6,11,10.1
		c0-0.1,0-0.3,0-0.4c-0.1-0.8-0.1-1.8,0.6-2.3c0.7-0.3,1.5-0.2,2.2-0.2c0.3,0,0.6,0,0.9,0c0.7,0,1.4,0,2,0c1.1,0,2.2-0.1,3.3,0
		C21.1,7.3,21.8,8.4,21.9,9.4z M28.7,28.1c0,0.5-0.1,1.1-0.1,1.6c0,0.3-0.1,0.6-0.1,0.9c-0.5,0-1,0-1.4,0c-0.2,0-0.4,0-0.6,0
		c0.1-0.1,0.2-0.2,0.3-0.4C27.4,29.6,28,28.9,28.7,28.1z M25.1,30.8c1.4-1.8,2.6-3.2,3.8-4.4c0,0.9-0.7,1.6-1.3,2.2
		c-0.2,0.2-0.3,0.3-0.5,0.5c-0.1,0.1-0.3,0.3-0.4,0.5C26.3,30.2,25.8,30.8,25.1,30.8z M29.3,30.7c-0.2-0.6-0.1-1.2-0.1-1.8
		c0-0.1,0-0.3,0-0.4c0-0.3,0.1-0.6,0.1-1c0-0.7,0.1-1.4,0.3-2.1C29.8,27.3,29.6,29,29.3,30.7z M27.2,27.2c-0.7,0.7-1.3,1.5-2,2.2
		l-0.1-0.2c-0.2-0.3-0.3-0.6-0.5-0.8c0.3,0,0.6,0,0.9,0h0.1l0-0.1c-0.1-0.2-0.1-0.4-0.2-0.6c0.1-0.2,0.4-0.2,0.6-0.2
		c0.1,0,0.2,0,0.2,0l0.1,0l0-0.1c0-0.2-0.1-0.4-0.1-0.6c0.2,0,0.5,0.1,0.7,0.1c0.1,0,0.1,0,0.2,0l0.2,0l-0.7-0.7
		c0.1-0.1,0.3-0.3,0.4-0.4l0.1,0c0.3,0.1,0.5,0.2,0.8,0.3l0.1,0.1C27.8,26.7,27.5,26.9,27.2,27.2z M7,30.8l0.1,0
		c0.2-0.1,0.4-0.1,0.6-0.2c0,0.1,0.1,0.2,0.1,0.4C7.9,31.2,8,31.4,8,31.7c-0.1,0-0.2,0-0.4,0c-0.1,0-0.2,0-0.3,0
		C7.2,31.4,7.1,31.1,7,30.8z M6.3,30.5L6.3,30.5L6.3,30.5c0,0.2,0,0.3,0.1,0.4c0.1,0.4,0.3,0.7,0.2,1.1c-0.4-0.2-0.6-0.6-0.8-1
		c-0.1-0.4-0.1-0.8,0.1-1.2c0.4-0.4,1-0.1,1.4,0.1C7,30.1,6.7,30.3,6.3,30.5z M17.9,27c0.3,0,0.7-0.1,1-0.1c1-0.1,2-0.2,3,0
		c-0.8,0.2-1.7,0.3-2.5,0.4c-0.5,0-1,0.1-1.5,0.2c-0.3,0-0.6,0.1-0.8,0.1c-0.8,0.1-1.5,0.2-2.2-0.2C15.9,27.1,16.9,27.1,17.9,27
		L17.9,27z M15.9,28.3c1.1-0.1,2.2-0.3,3.2-0.4c1.1-0.1,2.2-0.2,3.3-0.4c0.4,1.4,0.3,2.6-0.3,3.4c-0.4,0.6-1.3,0.8-2,1
		c-0.1,0-0.1,0-0.2,0c-0.8,0.1-1.5,0.2-2.3,0.4c-0.6,0.1-1.2,0.2-1.7,0.3C16.4,31,16.4,29.5,15.9,28.3z M4.8,28.8
		c1.1-0.3,2.2-0.4,3.3-0.6c0.6-0.1,1.3-0.2,1.9-0.3c0.1,0,0.2,0,0.4-0.1c0.7-0.1,1.4-0.2,2,0l0.1,0l0-0.1c0,0,0-0.1,0-0.2
		c0,0,0-0.1,0-0.1c0.1,0,0.3,0,0.5,0c0.6-0.1,1.3-0.1,1.7,0.3c-0.2,0-0.5,0.1-0.7,0.1c-0.5,0-1,0.1-1.5,0.2c-1.7,0.2-3.4,0.5-5,0.7
		c-0.3,0-0.6,0.1-0.9,0.1c-0.6,0.1-1.4,0.4-1.5,1.2c-0.1,0.8,0.2,1.6,0.8,2.2l0,0c0.5,0.3,1.1,0.2,1.6,0.1c0.2-0.1,0.5-0.1,0.7-0.1
		c0,0.1,0,0.2-0.1,0.3c-0.1,0.5-0.3,1-0.8,1.2c-0.8,0.1-1.4-0.5-1.8-1.2C5,31.5,4.7,30.2,4.8,28.8z M7.6,29.4
		c1.6-0.2,3.3-0.4,4.8-0.7l0.6-0.1c0.8,1.3,0.9,2.9,0.3,4.3c-0.9,0.1-1.7,0.2-2.6,0.4c-0.7,0.1-1.5,0.2-2.3,0.3
		C9,32.1,8.6,30.5,7.6,29.4z M13.6,28.5c0.1,0,0.3,0,0.4-0.1c0.4-0.1,0.8-0.1,1.3-0.1c0.9,1.2,0.6,2.8,0.2,4.2
		c-0.6,0.1-1.1,0.2-1.5,0.2C14.4,31.4,14.3,29.9,13.6,28.5z M11.9,5c0.3,0.4,0.4,1,0.5,1.6C12.1,6.2,11.9,5.7,11.9,5z M5.2,10
		c0.1-0.8,0.2-1.5,0.3-2.2C7,8.2,8.6,8.4,10.3,8.5c0,0.2,0,0.4,0,0.6c0,0.2,0,0.4,0,0.6l-1,0C8,9.9,6.6,9.9,5.2,10z M30.7,5.5
		c-0.1,0.2-0.3,0.5-0.4,0.7l0,0l0,0c0.4,0.3,0.8,0.6,1.1,0.8c0.1,0.1,0.2,0.1,0.2,0.2c-0.5,0.7-1.1,1.3-1.6,2
		c-0.4-0.3-0.8-0.6-1.2-1c-1.5-1.2-3-2.4-4.5-3.5c0.6-0.6,1.1-1.1,1.7-1.7c0.1,0.1,0.2,0.1,0.3,0.2c0.3,0.2,0.7,0.4,1,0.5l0,0l0,0
		c0.2-0.2,0.5-0.4,0.7-0.6c0.5-0.5,1.1-1,1.9-1c0.8,0,1.3,0.7,1.4,1.5C31.4,4.3,31,4.9,30.7,5.5z"/>
	<path d="M29.2,2.9c-0.5,0.1-1,0.5-1,1.1c0,0.4,0.3,0.9,0.8,1.1c0.2,0.1,0.3,0.1,0.5,0.1c0.3,0,0.6-0.1,0.8-0.4
		c0.4-0.4,0.3-1,0.1-1.4C30.2,3.1,29.7,2.8,29.2,2.9z M30.1,3.6c0,0.3,0,0.6-0.1,0.9c-0.3,0.2-0.7,0.3-1.1,0.1
		c-0.1-0.1-0.4-0.3-0.3-0.7l0,0c0.1-0.5,0.6-0.5,1.1-0.5c0,0,0.1,0,0.1,0c0.1,0,0.2,0,0.3,0C30.1,3.5,30.1,3.6,30.1,3.6z"/>
	<path d="M12.9,9.3c-0.3-0.1-0.8-0.1-1.1,0.1c-0.3,0.1-0.5,0.5-0.5,0.9c0,0.3,0.1,0.6,0.4,0.7c0.2,0.1,0.4,0.2,0.6,0.2
		c0.3,0,0.5-0.1,0.7-0.2c0.4-0.3,0.5-0.7,0.4-1.1C13.3,9.6,13.1,9.4,12.9,9.3z M12,9.7c0.4-0.1,0.7-0.2,1,0.1c0,0.2,0,0.4-0.2,0.6
		c-0.2,0.2-0.5,0.3-0.8,0.2c-0.1-0.3-0.2-0.5-0.3-0.8C11.7,9.8,11.8,9.8,12,9.7z"/>
	<path d="M19.6,18.3c1,0.1,2.1,0.2,3.1,0.3c0.8,0.1,1.5,0.2,2.3,0.2c0.1,0,0.1,0,0.2,0c0.2,0,0.4,0,0.6,0c0.5,0,1-0.1,1.2-0.7
		c0.3-1.1,0.6-2.2,0.4-3.3l0,0l0,0c-0.5-0.4-1.1-0.5-1.7-0.5c-0.2,0-0.4-0.1-0.6-0.1c-0.6-0.1-1.2-0.2-1.8-0.3
		c-1.2-0.2-2.5-0.4-3.8-0.4l0,0c-0.2,0-0.7,0.1-0.8,0.5c-0.3,1-0.4,2.1-0.4,3.2C18.2,17.9,18.9,18.2,19.6,18.3z M19,14.7
		c0-0.3,0.1-0.5,0.1-0.8c2,0,3.9,0.4,5.8,0.7c0.7,0.1,1.4,0.3,2.1,0.4c0,1.1-0.1,2.1-0.4,3.1l0,0c-0.1,0.3-0.4,0.3-0.8,0.3
		c-0.1,0-0.1,0-0.2,0c0,0-0.1,0-0.1,0c-1-0.1-2-0.2-3-0.3c-0.8-0.1-1.6-0.2-2.4-0.2c-0.1,0-0.2,0-0.2,0c-0.4-0.1-0.9-0.1-1.1-0.5
		C18.7,16.5,18.8,15.6,19,14.7z"/>
	<path d="M5.1,24c0.1,0.2,0.2,0.5,0.3,0.7c0.2,0.6,0.4,1.2,0.8,1.7l0,0l0,0c0.8-0.1,1.6-0.3,2.4-0.5c0.4-0.1,0.8-0.2,1.3-0.3
		c0.3-0.1,0.6-0.2,0.9-0.2c0.7-0.2,1.5-0.3,2.2-0.7l0,0l0,0c0-0.7-0.2-1.4-0.4-2c-0.1-0.3-0.2-0.5-0.2-0.8c-0.1-0.2-0.1-0.4-0.2-0.7
		c-0.2-0.6-0.3-1.2-0.7-1.7l0,0l0,0c-0.5-0.1-1,0-1.4,0.1c-0.1,0-0.2,0.1-0.3,0.1l0,0C9,19.8,8.2,20,7.5,20.3
		c-0.9,0.3-1.7,0.5-2.6,0.8l-0.1,0l0.1,0.1c0.1,0.1,0.3,0.2,0.4,0.3l0,0l0,0c2.3-0.9,4.1-1.4,5.8-1.7c0.2,0.3,0.3,0.5,0.4,0.8l0,0.1
		c-0.4,0.5-0.7,1-0.9,1.5c-0.4-0.3-0.9-0.5-1.3-0.4c-0.3,0-0.6,0.2-0.9,0.5c-0.5-0.2-0.9-0.4-1.4-0.5l-0.3-0.1l0.3,0.2
		c0.4,0.3,0.8,0.6,1.1,0.9c0,0.2,0,0.4-0.1,0.6c0,0.2,0,0.4-0.1,0.6C8,23.9,7.9,24,7.8,24c-0.2,0-0.3,0.1-0.5,0.1
		c0-0.1-0.1-0.2-0.1-0.3c-0.2-0.3-0.3-0.7-0.6-0.9l0,0c-0.3-0.2-0.8-0.3-1.1-0.3c-0.1,0-0.2,0-0.3,0c0-0.1-0.1-0.3-0.1-0.4
		c-0.1-0.3-0.1-0.6-0.2-0.9L4.7,21l-0.1,0.2c-0.3,0.8,0,1.5,0.3,2.2C5,23.6,5,23.8,5.1,24z M9.7,24.4L9.7,24.4L9.7,24.4
		c0.1-0.2,0.1-0.3,0.1-0.4c0-0.3,0-0.6,0.2-0.9c0.3-0.2,0.6-0.3,0.8-0.4c0.1,0,0.2-0.1,0.3-0.1l0,0l0,0c0.1-0.6,0.3-1,0.5-1.4
		c0,0.1,0.1,0.2,0.1,0.3c0.3,0.9,0.6,1.8,0.8,2.8c-0.5,0.3-1.2,0.4-1.7,0.6c-0.3,0.1-0.5,0.1-0.8,0.2c-0.4,0.1-0.9,0.2-1.3,0.3
		c-0.8,0.2-1.6,0.4-2.4,0.5c-0.4-0.9-0.7-1.8-1-2.8c0-0.1,0-0.1-0.1-0.2c0.3,0.1,0.6,0.2,0.9,0.3c0.3,0.2,0.4,0.6,0.5,1
		c0,0.1,0.1,0.3,0.1,0.4l0,0.1l0.1,0C7.8,24.3,8.8,24.3,9.7,24.4z M9.2,24c-0.4-0.1-0.5-0.4-0.5-0.6c-0.1-0.4,0.2-0.9,0.5-1.1l0,0
		c0.1-0.1,0.3-0.1,0.4-0.1c0.2,0,0.4,0.1,0.6,0.2c0.1,0,0.1,0,0.2,0.1C9.8,22.8,9.4,23.4,9.2,24z"/>
	<path d="M10,21.6c0,0,0.1,0,0.1,0c0.1,0,0.2,0,0.3-0.1c0.2-0.2,0.2-0.5,0.2-0.7c0-0.1-0.2-0.2-0.3-0.2l0,0l0,0
		c-0.2,0.1-0.3,0.2-0.4,0.5C9.8,21.2,9.9,21.4,10,21.6L10,21.6L10,21.6z"/>
	<path d="M9.3,21.5L9.3,21.5L9.3,21.5c0.2-0.2,0.2-0.3,0.2-0.5c0-0.1-0.2-0.2-0.4-0.2l0,0l0,0C8.9,21,8.9,21.2,9,21.3
		C9,21.4,9.1,21.5,9.3,21.5z"/>
	<path d="M8.4,21.9c0.1,0,0.1,0,0.2-0.1l0,0c0.2-0.2,0.1-0.4,0-0.5c-0.1-0.2-0.3-0.2-0.5-0.1l0,0c-0.2,0.2-0.1,0.4,0,0.5
		C8.2,21.8,8.3,21.9,8.4,21.9z"/>
	<path d="M7.5,23.3c0.1,0,0.2,0,0.3-0.1c0.1-0.2,0.1-0.4-0.1-0.5c-0.2-0.1-0.5-0.2-0.6,0l0,0C7,22.9,7,23,7.2,23.2
		C7.3,23.2,7.4,23.3,7.5,23.3z"/>
</g>
</svg>
