<?xml version="1.0" encoding="utf-8"?>
<!-- Generator: Adobe Illustrator 25.3.1, SVG Export Plug-In . SVG Version: 6.00 Build 0)  -->
<svg version="1.1" id="Layer_1" xmlns="http://www.w3.org/2000/svg" xmlns:xlink="http://www.w3.org/1999/xlink" x="0px" y="0px"
	 width="76px" height="81.7px" viewBox="0 0 76 81.7" style="enable-background:new 0 0 76 81.7;" xml:space="preserve">
<g>
	<path d="M64.8,36.3h3.9v-5.7c-4.2,0-16.5,0-22.1,0V23c0.3-0.1,0.7-0.3,1-0.4c4.7-1.9,6.5-7.6,4-12C49.6,6.9,45.1,5.4,41.1,7
		C37,8.6,32.9,9.5,29.7,9.6c-3.2,0-7.3-0.9-11.4-2.6c-3.9-1.6-8.5-0.1-10.6,3.6c-2.5,4.4-0.6,10.1,4,12c0.3,0.1,0.7,0.3,1,0.4v7.6
		h-2.3c-4.7,0-8.5,3.8-8.5,8.5v25.4c0,4.7,3.8,8.5,8.5,8.5h2.7c1.2,3.3,4.3,5.7,8,5.7s6.8-2.4,8-5.7h17.4c1.2,3.3,4.3,5.7,8,5.7
		c3.7,0,6.8-2.4,8-5.7h3.3c4.7,0,8.5-3.8,8.5-8.5v-9.1L64.8,36.3z M67,53.3H46.7v-5.7h17.5L67,53.3z M12.6,13.4
		C12.6,13.4,12.6,13.4,12.6,13.4c0.7-1.2,2.2-1.7,3.6-1.2c3.4,1.4,8.5,3,13.6,3c5.1,0,10.2-1.6,13.5-3c1.4-0.5,2.9-0.1,3.6,1.2
		c0.8,1.4,0.3,3.3-1.3,4c-5.4,2.3-10.4,3.4-15.8,3.5c-5.4-0.1-10.4-1.3-15.8-3.5C12.3,16.7,11.8,14.8,12.6,13.4L12.6,13.4z
		 M18.4,24.9c3.7,1,7.4,1.5,11.2,1.6c0,0,0,0,0.1,0s0,0,0.1,0c3.9-0.1,7.5-0.6,11.2-1.6v5.7H18.4V24.9z M7.7,47.6h22.1v5.7H7.7V47.6
		z M21.2,73c-1.6,0-2.8-1.3-2.8-2.8c0-1.6,1.3-2.8,2.8-2.8s2.8,1.3,2.8,2.8C24.1,71.8,22.8,73,21.2,73z M54.6,73
		c-1.6,0-2.8-1.3-2.8-2.8c0-1.6,1.3-2.8,2.8-2.8c1.6,0,2.8,1.3,2.8,2.8C57.4,71.8,56.1,73,54.6,73z M65.9,67.4h-3.3
		c-1.2-3.3-4.3-5.7-8-5.7c-3.7,0-6.8,2.4-8,5.7H29.2c-1.2-3.3-4.3-5.7-8-5.7s-6.8,2.4-8,5.7h-2.7c-1.6,0-2.8-1.3-2.8-2.8v-5.7h27.7
		v-17H7.7v-2.8c0-1.6,1.3-2.8,2.8-2.8h48l2.8,5.7H41v17h27.7v5.7C68.7,66.1,67.5,67.4,65.9,67.4L65.9,67.4z"/>
</g>
</svg>
