<?xml version="1.0" encoding="utf-8"?>
<!-- Generator: Adobe Illustrator 25.3.1, SVG Export Plug-In . SVG Version: 6.00 Build 0)  -->
<svg version="1.1" id="Capa_1" xmlns="http://www.w3.org/2000/svg" xmlns:xlink="http://www.w3.org/1999/xlink" x="0px" y="0px"
	 width="41.7px" height="28.6px" viewBox="0 0 41.7 28.6" style="enable-background:new 0 0 41.7 28.6;" xml:space="preserve">
<style type="text/css">
	.st0{fill:#010101;}
</style>
<g>
	<path class="st0" d="M34,24.6c-0.1-0.2-0.1-0.5,0-0.7c-0.1-0.3,0-0.5-0.1-0.8c0-0.2,0-0.3,0-0.5c-0.1-0.1-0.3-0.2-0.5-0.2
		c-0.1,0-0.1,0-0.2-0.1c-0.1-0.1-0.3-0.1-0.4-0.1c-0.2-0.1-0.4-0.2-0.5-0.2c0-0.1,0-0.1,0-0.2h0.1c0.1-0.2,0.2-0.3,0.3-0.5
		c0-0.1,0-0.2,0-0.3c0.1-0.2,0.1-0.4,0.1-0.7c0.1-0.4,0-0.9,0-1.5c0-0.2,0-0.4-0.1-0.6c-0.1-0.2,0-0.4,0-0.5c0-0.1,0-0.1,0.1-0.2
		c0-0.1,0-0.2,0-0.3c0-0.4,0-0.9,0-1.4c0-0.1,0-0.2,0-0.2c0-0.1,0-0.3,0-0.4c-0.1-0.1,0-0.3-0.1-0.4c0-0.3-0.1-0.5-0.2-0.7
		c0-0.1-0.1-0.2-0.2-0.3c0-0.3,0-0.6,0-0.9c-0.1-0.2,0-0.3-0.1-0.5c0-0.2-0.1-0.4-0.1-0.6c0-0.1-0.1-0.2-0.1-0.4
		c0-0.1,0-0.1-0.1-0.2v-0.1c0-0.1,0-0.1-0.1-0.2c0-0.1-0.1-0.1-0.1-0.2c0-0.1-0.1-0.1-0.1-0.2c-0.1-0.1-0.1-0.3-0.2-0.4
		c0-0.1-0.1-0.1-0.1-0.2s0-0.2,0-0.3c0-0.1,0-0.2-0.1-0.2V8.8c0-0.1,0.1-0.1,0.1-0.2c0-0.1,0.1-0.2,0.2-0.3c0-0.1,0-0.1,0-0.2
		s0.1-0.2,0.1-0.3c0.2,0.1,0.2,0,0.2-0.2c0-0.1,0-0.2,0.1-0.3c0-0.3,0.1-0.6,0-0.9c0-0.3-0.1-0.6-0.2-0.9V5.2c0-0.1-0.1-0.2-0.1-0.3
		c-0.1-0.3-0.3-0.5-0.4-0.7L31,4c-0.1-0.2-0.3-0.3-0.4-0.5c-0.1,0-0.1-0.1-0.2-0.1c-0.2-0.1-0.3-0.2-0.5-0.3C29.7,3,29.5,3,29.4,2.9
		c-0.5-0.1-1-0.1-1.5-0.2c-0.2-0.1-0.3,0-0.5,0c-0.4,0-0.8,0.1-1.3,0.1c-0.1-0.1-0.2-0.1-0.3-0.2c-0.1-0.1-0.2-0.1-0.3-0.2
		c-0.2-0.1-0.4-0.3-0.6-0.3c-0.1-0.1-0.2-0.1-0.4-0.2c-0.2-0.2-0.5-0.1-0.8-0.1c-0.1,0-0.2-0.1-0.3-0.1c-0.1,0-0.1-0.1-0.2-0.1
		c-0.2,0-0.4-0.2-0.6-0.2c-0.2-0.1-0.3-0.1-0.5-0.1c-0.2,0-0.4-0.1-0.6-0.1c-0.1,0.1-0.2,0-0.3,0c-0.1,0-0.1,0-0.2-0.1
		c-0.2-0.1-0.4-0.1-0.6-0.2c-0.2-0.1-0.4,0-0.7,0c-0.3-0.1-0.5,0-0.8,0c-0.1,0.1-0.2,0-0.3,0c-0.1,0-0.2,0-0.3,0
		c-0.4,0-0.7,0-1.2,0.1c-0.1,0-0.1,0-0.2,0.1c-0.2,0-0.3,0.1-0.4,0.2c-0.1,0-0.2,0.1-0.3,0.1c-0.3,0-0.5,0.1-0.7,0.1
		c-0.1,0-0.2,0.1-0.3,0.1h-0.1c-0.2,0.1-0.4,0.1-0.5,0.2c-0.1,0-0.2,0-0.3,0c-0.1,0-0.2,0.1-0.3,0.1s-0.1,0-0.2,0l-0.1-0.1
		c0,0,0,0-0.1,0S13.1,1.6,13,1.6s-0.1-0.1-0.2-0.1c-0.4-0.1-0.7-0.3-1-0.4c-0.1,0-0.1,0-0.2-0.1c-0.7-0.2-1.6-0.4-2.3-0.1
		C9.1,0.9,9,1,8.9,1C8.7,1,8.5,1.1,8.4,1.2c-0.1,0-0.1,0.1-0.2,0.1S8.1,1.4,8,1.4c-0.1,0-0.1,0.1-0.2,0.1C7.6,1.7,7.4,1.9,7.2,2.2
		c0,0.1-0.1,0.1-0.2,0.2c0,0.1-0.1,0.1-0.1,0.2C6.8,2.8,6.8,3.1,6.7,3.3c0,0.1,0,0.1,0,0.2C6.6,3.6,6.6,3.7,6.6,3.9
		c0,0.4,0,0.8,0.1,1.3c0,0.1,0,0.2,0,0.3c0,0.1,0,0.1,0,0.2c0,0.1,0,0.1,0.1,0.2c0,0,0,0.1,0,0.2s0,0.1,0.1,0.2c0,0-0.3,0.1-0.3,0.3
		H6.5C6.4,6.9,6.3,7,6.2,7.2c0,0.1-0.1,0.1-0.1,0.2C5.9,7.5,5.8,7.7,5.6,7.9H5.5c0,0.1,0,0.1,0,0.2c0,0,0,0.1-0.1,0.1
		c0,0.1-0.1,0.2-0.1,0.3c0,0.1-0.1,0.2-0.1,0.3C5.2,9,5.1,9.1,5,9.1C4.8,9.3,4.7,9.5,4.6,9.8c0,0.1-0.1,0.2-0.1,0.3
		c0,0,0,0.2-0.1,0.3l-0.1,0.1c0,0.1,0,0.2-0.1,0.3c0,0.2-0.1,0.4-0.1,0.5c0,0.1,0,0.2,0,0.3C4,11.9,4,12.2,4,12.4
		c0.1,0.1,0.1,0.3,0,0.4c0,0.1-0.1,0.1-0.1,0.2s0,0.3,0,0.4c-0.1,0.1,0,0.3-0.1,0.4c-0.1,0.3,0,0.5-0.1,0.8c-0.1,0.1,0,0.2,0,0.3
		c0,0.3,0,0.6,0,0.8c0.1,0.2,0,0.5,0,0.8c0,0.1-0.1,0.1-0.1,0.2S3.4,17,3.4,17.1c0,0.1,0,0.1,0,0.2H3.3c0,0.7,0,1.6,0,2.3
		c0,0.1,0,0.1,0,0.2V20c-0.1,0.2,0,0.5-0.1,0.6c0,0.1,0,0.1,0,0.2c0,0.1,0,0.1,0,0.2c0.1,0,0.1-0.1,0.2-0.1c0,0.1,0,0.1,0,0.2
		c0.1,0,0.1,0.1,0.1,0.2c0,0,0,0,0,0.1s0.1,0.1,0.1,0.2C3.9,21.7,4,22,4.2,22.1c0.1,0.1,0.2,0.1,0.3,0.2s0.2,0.1,0.3,0.2
		c0.1,0.1,0.2,0.2,0.3,0.2v0.1c0.1,0,0.2,0,0.4,0.1c0.1,0,0.1,0.1,0.2,0.1c0,0.6,0,1.3,0,1.9c0,0.2,0.1,0.4,0.2,0.6
		c0.1,0,0.1,0.1,0.2,0.1c0.1,0.1,0.2,0.1,0.3,0.1c0.3,0.1,0.6,0.2,0.9,0.3c0.1,0,0.1,0,0.2,0v-0.1c0-0.1,0.2-0.1,0.3-0.1
		c0.1,0.1,0.2,0.1,0.3,0.2s0.3,0.2,0.4,0.2s0.2,0,0.3,0c0.1,0,0.1-0.1,0.2-0.1h0.1L9.4,26c0.1,0,0.2-0.1,0.3-0.1
		c0.2-0.2,0.5-0.4,0.7-0.5c0,0,0.1,0,0.1-0.1c0.1,0,0.1-0.1,0.2-0.1c0,0,0.1-0.1,0.2-0.1s0.2-0.1,0.3-0.1c0.1,0,0.1-0.1,0.2-0.1
		c0.1,0,0.1-0.1,0.2-0.1s0.1,0,0.2,0.1c0,0.4,0,0.9,0,1.4c0,0.1,0,0.2,0.1,0.3c0.1,0.2,0.2,0.3,0.3,0.4c0.5,0,0.9,0.1,1.5,0.2
		c0,0.1,0,0.1-0.1,0.2c0.4,0,0.9,0,1.4,0c0.1,0.1,0.2,0,0.4,0l0.1-0.1c0.1,0,0.2-0.1,0.3-0.1c0.1-0.1,0.2-0.2,0.3-0.4
		c0.1-0.1,0.1-0.3,0.2-0.4c0.1,0,0.2,0,0.2-0.1c0.2-0.1,0.4-0.2,0.5-0.4c0.1-0.1,0.2-0.2,0.3-0.2h0.1c0.1,0,0.1-0.1,0.2-0.1
		c0.2-0.1,0.3-0.2,0.5-0.3c0.1,0,0.1,0,0.2,0c0.4,0.1,0.8,0.1,1.3,0c0,0.3,0,0.6,0,0.9c0,0.4-0.1,0.8-0.1,1.3
		c-0.1,0.1-0.1,0.1-0.2,0.2c0,0.1,0,0.1,0.1,0.2c0.1,0,0.1,0,0.2,0l0.1-0.1c0.1-0.1,0.2-0.2,0.4-0.2c0.1,0,0.1,0,0.2-0.1
		c0.2,0,0.4,0,0.5-0.1c0.2,0,0.3,0,0.5,0c0.1,0,0.1,0,0.2,0.1c0.1,0.1,0.2,0.3,0.4,0.2c0.1,0,0.1,0,0.2-0.1c0.2,0,0.4,0,0.6,0
		c0.1,0,0.1,0.1,0.2,0.1h0.1c0.2,0.1,0.4,0.1,0.6,0.1v-0.1c0.1,0,0.2-0.1,0.2-0.1c0.1,0,0.2,0,0.3,0.1c0,0.2,0.2,0.1,0.3,0
		c0.1-0.1,0.3-0.1,0.5-0.1c0.1,0.1,0.2,0.1,0.3,0.2c0.1,0,0.1,0.1,0.2,0.1l0.1-0.1c0-0.1-0.1-0.2-0.2-0.3c-0.1,0-0.1-0.1-0.2-0.1
		s-0.2-0.1-0.2-0.1c0-0.2,0-0.3,0-0.5c0-0.2,0-0.4,0-0.6c-0.1-0.4,0-0.8,0-1.4c0.1-0.1,0.3-0.1,0.4-0.2c0.1,0,0.2,0,0.2,0
		c0,0.2,0,0.5,0,0.7c0,0.1,0,0.3,0,0.4c0,0,0.1,0.1,0.1,0.2c0.1,0.1,0.2,0.1,0.3,0.2s0.2,0.1,0.2,0.2c0.1,0.1,0.3,0.2,0.4,0
		c0.1,0,0.2-0.1,0.3-0.1c0.2,0,0.3,0.1,0.5,0.1c0.1,0.1,0.2,0.1,0.3,0.2c0.1,0.1,0.3,0.2,0.4,0.3c0.1,0.1,0.2,0.1,0.3,0.2
		c0.2,0.1,0.4,0.1,0.6,0.1c0.1,0,0.3,0,0.4-0.1c0.2,0,0.4-0.1,0.6-0.1c0.1,0,0.1,0,0.2-0.1c0.2,0,0.3-0.1,0.5-0.2
		c0.1,0,0.2-0.1,0.3-0.2c0.2,0,0.5,0.1,0.7,0.1c0.2,0.1,0.3,0,0.5,0s0.5,0,0.7-0.1c0.1,0,0.1,0,0.2-0.1c0.2-0.1,0.4-0.3,0.6-0.4
		c0.1-0.1,0.1-0.2,0.2-0.3C34,25.2,34,24.9,34,24.6z M32.3,18.7c0,0.7,0,1.4-0.2,2.1c-0.1,0.2-0.1,0.6-0.4,0.7
		c-0.2,0.1-0.4,0-0.6-0.1c0-0.2,0-0.4,0.1-0.5c0-0.5,0-1,0-1.6c-0.1,0-0.1,0-0.1,0.1c0,0.6,0,1.3-0.1,1.9c-0.1,0-0.1,0-0.2,0
		c0-0.3,0-0.5,0-0.8c0,0,0,0-0.1,0c0,0.3,0,0.5,0,0.8c-0.2,0-0.3,0-0.5,0.1c0-0.6,0.1-1.3,0.1-1.9c0-0.2,0-0.5,0.1-0.7
		c0.1-0.1,0.2-0.1,0.3-0.1c0.5-0.2,0.9-0.4,1.5-0.6C32.1,18.2,32.3,18.5,32.3,18.7z M31.9,13.9c0.1,0.7,0.2,1.6,0.2,2.3
		c0,0.4,0,0.7,0,1.2c0,0.1-0.1,0.3-0.2,0.4c-1,0.4-2.2,0.8-3.2,1c-0.2,0-0.5,0.1-0.7,0c-0.1-0.1,0-0.1-0.1-0.2c0-1-0.1-2.1-0.2-3.1
		c0-0.2-0.1-0.4-0.1-0.6c0.8-0.2,1.7-0.3,2.6-0.5c0.2,0,0.4-0.2,0.6-0.2c0.3-0.1,0.7-0.1,1-0.2C31.8,13.8,31.9,13.8,31.9,13.9z
		 M24.4,18.4c-0.2,0.1-0.3,0.1-0.5,0.2c0.1-0.8,0.1-1.7-0.1-2.5c0.1,0.1,0.3,0.1,0.4,0.2l0,0c0.2,0.1,0.4,0.3,0.5,0.5
		C25.1,17.3,24.9,18.1,24.4,18.4L24.4,18.4z M22.3,23.5c0-0.5-0.1-1-0.2-1.6c0.4,0,0.7,0,1.2,0c0.1,0.5,0.1,1,0.1,1.6
		c0,0.4-0.1,0.8-0.1,1.2c-0.3,0.1-0.6,0-0.9,0.1C22.3,24.4,22.3,23.9,22.3,23.5z M21.6,21.5c-0.4,0.1-0.9,0.1-1.4,0.2
		c0-0.6,0-1.3-0.1-1.9c0-0.2,0-0.4,0-0.6c1.3,0.2,2.6,0.1,3.9-0.2c0,0.1,0,0.2-0.1,0.2c0,0.2,0,0.5,0,0.7c0,0.2,0,0.5,0,0.7
		c0,0.1,0.1,0,0.2,0c0,0.3,0,0.7,0,1c-0.1,0-0.2-0.1-0.2-0.1C23.1,21.4,22.4,21.5,21.6,21.5z M21,23.4c0-0.4-0.1-0.9-0.2-1.4
		c0.2,0,0.4-0.1,0.7-0.1c0.1,0.4,0.2,0.9,0.2,1.5c0,0.4,0,0.8-0.1,1.4c-0.2,0-0.4,0-0.7,0C21,24.4,21,23.8,21,23.4z M20.6,23.9
		c-0.2-0.1-0.4-0.2-0.4-0.4c0-0.1,0-0.3,0.1-0.4c0.1-0.1,0.1-0.1,0.2-0.1C20.6,23.2,20.6,23.6,20.6,23.9z M8.9,21.6
		c0.1-0.3,0.3-0.5,0.5-0.8c0.2-0.2,0.5-0.2,0.8-0.2c0.4,0,0.7,0.3,1,0.4c0.1,0.3,0.2,0.5,0.3,0.7c-1,0.2-2,0.6-2.9,0.8
		C8.6,22.3,8.7,22,8.9,21.6z M8.7,21.2c-0.2,0.5-0.2,1-0.2,1.6c-0.2,0-0.4,0-0.5-0.1c-0.4-0.1-0.8-0.2-1.3-0.2c0-0.1,0-0.2-0.1-0.3
		c-0.1-0.4,0.1-0.8,0.3-1.3c0.2-0.4,0.4-0.8,0.7-1.3c0.1,0,0.2,0.1,0.2,0.2c0.3,0.2,0.5,0.5,0.8,0.7c0.1,0.1,0.2,0.1,0.2,0.2
		C8.9,20.9,8.7,21,8.7,21.2z M11.4,20.7c-0.3-0.1-0.5-0.3-0.8-0.4c-0.4-0.1-1-0.2-1.5,0.1c-0.2,0.1-0.3-0.1-0.4-0.2
		c-0.2-0.3-0.5-0.5-0.8-0.7c0.1-0.2,0-0.5,0.2-0.7c0.5-0.4,1.2-0.6,1.8-0.5c0.5,0.1,0.9,0.3,1.5,0.5c0.4,0.1,0.6,0.4,0.9,0.6
		c0.1,0.1,0.1,0.1,0.2,0.2C12.2,20.1,11.8,20.3,11.4,20.7z M10.3,18.1h-0.1c-0.2,0-0.4,0-0.6-0.1c0.2-0.2,0.6-0.3,0.9-0.5
		c0.3-0.1,0.6-0.3,0.9-0.4c0.7-0.2,1.6,0.1,2.3,0.2c0.6,0.2,1.3,0.5,1.6,1c-0.7,0.3-1.5,0.7-2.2,0.9c-0.1,0-0.2,0-0.2-0.1
		C11.9,18.7,11.1,18.2,10.3,18.1z M14.4,17.1c-0.6-0.3-1.3-0.5-1.9-0.5c0-0.4,0-0.9,0-1.4c0.1,0,0.1-0.1,0.2-0.1c0.1,0,0.2,0,0.3,0
		c0.8,0.1,1.7,0.1,2.5,0.1c1.4,0.1,2.6,0.2,4,0.2c0,0.1,0,0.2,0,0.3c0,0-0.1-0.1-0.2-0.1c0,0.1,0,0.3,0.1,0.4
		c-0.1,0.2-0.3,0.3-0.5,0.5c-0.3,0.3-0.4,0.8-0.4,1.3c0,0.5,0.3,0.9,0.7,1.3l0.1,0.1c0,0.1,0,0.1,0,0.2c0.1,0,0.1-0.1,0.2-0.1
		c0,0.1,0,0.2,0,0.2c-0.8,0-1.8,0-2.6-0.2c-0.4-0.4-0.7-0.9-1.4-1.2C15.2,17.7,14.9,17.3,14.4,17.1z M8.8,13.7
		c-0.1-0.3-0.1-0.5,0-0.8c0.1-0.5,0.2-1.2,0.3-1.7c0-0.2,0.3-0.3,0.5-0.4c0.2,0,0.5,0,0.7,0c0.6,0.1,1.3,0.1,1.9,0.2
		c1.3,0.1,2.5,0.1,3.8,0.3c0.1,0.1,0.2,0.2,0.2,0.3c0,0.2-0.1,0.5-0.1,0.7c0,0.7-0.1,1.5-0.1,2.3c-0.1,0.2-0.4,0.2-0.6,0.2
		c-2.1-0.1-4.2-0.1-6.2-0.8C9,14,8.9,13.9,8.8,13.7L8.8,13.7L8.8,13.7z M19.9,4.4H20c0.1-0.2,0-0.5,0-0.7h0.1c0,0.3,0.1,0.5,0.1,0.8
		c-0.2,0.1-0.3,0.2-0.5,0.3c-0.4,0.1-0.8,0-1.3,0.1c-1,0.1-2.1,0-3,0c-0.2,0-0.5-0.1-0.7-0.1c0-0.1,0-0.1,0-0.2
		c0.2-0.5,0.5-0.9,0.9-1.3c0.5,0,1,0.1,1.6,0.1c0.2,0,0.4,0,0.6,0c0.6,0.1,1.3,0.1,1.9,0.1c0.1,0,0.3-0.1,0.4,0.1L20,3.7V3.6
		C19.9,3.8,19.9,4,19.9,4.4z M22.5,5.4c0-0.1-0.1-0.2-0.1-0.3h-0.1v0.1C22.2,5.1,22.2,5,22.1,5c0.2,0,0.4,0,0.5,0h0.1
		c0.4,0.8,0.9,1.7,1.2,2.6c-1.3,0.2-2.5,0.2-3.7,0.1c-0.2,0.1-0.4,0.1-0.5,0.1c-0.6,0-1.2,0-1.8,0c-0.2,0-0.4-0.1-0.5-0.2
		c-0.1-0.1-0.1-0.2-0.1-0.4c0-0.6-0.1-1.3,0.1-1.9c0.9-0.1,1.9,0,2.9-0.2C20.5,5,20.7,5,20.9,5c0.4,0,0.8,0,1.2,0l0.1,0.1
		c0,0.1,0.1,0.2,0.2,0.3C22.3,5,22.4,5.4,22.5,5.4z M29.4,10.1c-0.1,0-0.2,0.1-0.3,0.1c0-0.1,0-0.3-0.2-0.3c0,0.1,0,0.3,0.1,0.3
		c-0.5,0.1-1,0.2-1.6,0.2c0-0.1,0-0.2-0.1-0.3c-0.2-0.7-0.4-1.5-0.6-2.2c0-0.1-0.1-0.2-0.1-0.3c0.1,0,0.2,0.1,0.3,0.2
		c0.4,0.6,0.7,1.3,0.8,2c0,0.1,0,0.1,0.1,0.2c0.4-0.1,0.9-0.1,1.4-0.2C29.3,9.9,29.4,10,29.4,10.1z M30.5,9.7c-0.1,0-0.2,0-0.2,0.1
		c0-0.1,0-0.2-0.2-0.2c0,0.1,0,0.2,0.2,0.2c-0.2,0.1-0.5,0.2-0.7,0.3c0-0.1,0-0.2-0.1-0.3c0.4-0.1,0.9-0.2,1.4-0.5
		C30.8,9.4,30.7,9.6,30.5,9.7c0-0.1,0-0.2-0.1-0.2C30.4,9.6,30.5,9.7,30.5,9.7z M27,9.4c0.1,0.2,0.1,0.5,0.2,0.7l0,0
		c0,0.1,0,0.2,0.1,0.2c-0.1,0.1-0.2,0.2-0.3,0.2c-0.8,0.2-1.7,0.3-2.5,0.3c0-0.1-0.1-0.3-0.1-0.4c-0.2-0.5-0.6-1-1.3-1.3
		C22.4,9,21.6,9,20.9,9.3c-0.1-0.3,0-0.7-0.1-1l0.1-0.1c0,0.1,0,0.3,0.1,0.4c0.1,0,0.1-0.1,0.1-0.1c0-0.2-0.1-0.2-0.2-0.4
		c0,0.1-0.1,0.1-0.1,0.2c0,0.4,0.1,0.8,0.1,1.2c-0.1,0-0.1,0.1-0.2,0.1c0-0.4-0.1-0.9-0.2-1.4c-0.3,0-0.2-0.1-0.1-0.1
		c0.2-0.1,0.4-0.1,0.5-0.1c0.8,0,1.8,0,2.6,0c0.1,0,0.3-0.1,0.4-0.1c0.1,0,0.2,0.1,0.3,0.1c0.6,0,1.4-0.2,2,0
		C26.6,8.2,26.8,8.9,27,9.4z M22.4,16.9c0-0.4-0.1-0.7-0.2-1.2c0.4,0,0.8,0,1.2,0.1c0.2,0.4,0.1,0.8,0.2,1.3c0,0.4,0,0.8-0.1,1.3
		c0,0.1,0,0.2-0.1,0.2c-0.3,0-0.7,0.1-1,0.1C22.4,18.2,22.4,17.6,22.4,16.9z M23.2,15.6c0.1-0.1,0.1-0.2,0.1-0.3h-0.1
		C23.2,15.2,23.2,15.5,23.2,15.6c-0.8-0.1-1.7-0.1-2.5,0c-0.3,0-0.5,0.1-0.7,0.2c0-1.3-0.3-2.6-0.2-3.9c0.1-0.7,0.3-1.5,1-1.9
		c0.6-0.3,1.4-0.5,2-0.2l0,0c0.2,0.1,0.3,0.2,0.5,0.4c0.3,0.3,0.5,0.8,0.6,1.3c0.1,0.5,0.1,1,0.2,1.6c0,0.8,0,1.7,0,2.6
		c-0.1,0-0.2,0-0.2-0.1C23.7,15.6,23.5,15.6,23.2,15.6z M21,16.9c0-0.3-0.1-0.6-0.1-1c0.2,0,0.4,0,0.6-0.1c0.1,0.4,0.2,0.8,0.2,1.3
		c0,0.5,0,1.2-0.1,1.7c-0.2,0-0.4,0-0.6,0C21.1,18.2,21.1,17.6,21,16.9z M20.6,18c-0.4,0.1-0.7-0.5-0.4-0.9c0.1-0.2,0.3-0.2,0.4-0.2
		C20.7,17.2,20.7,17.6,20.6,18z M16.4,11.8c0-0.2,0.1-0.4,0.2-0.4c0.2,0,0.5,0,0.7,0c0.6,0,1.3,0,1.9,0c-0.1,0.4-0.1,0.8-0.1,1.3
		c0.1,0.6,0.1,1.3,0.1,1.9c0,0.2,0,0.4,0,0.5c-1,0-2.1,0-3.1-0.3c0-0.1,0-0.2,0-0.3C16.3,13.6,16.3,12.6,16.4,11.8z M17.8,11
		c-1.2,0-2.2-0.1-3.4-0.1c-0.5,0-1.2,0-1.6-0.2c-0.2-0.1-0.1-0.2-0.1-0.4c0-0.6,0.1-1.3,0.3-1.8c0-0.2,0.1-0.5,0.3-0.5
		c0.9,0.1,2,0.1,2.9,0.2C16.6,8.1,17,8,17.2,8c0.7,0.2,1.6,0.1,2.3,0c0.1,0,0.2,0,0.3,0.1C19.9,8.8,20,9.3,20,9.9
		c-0.2,0.2-0.3,0.3-0.4,0.5v0.1c0,0.1-0.1,0.2-0.1,0.4C18.9,11,18.4,11,17.8,11z M26.4,7.4c-0.1,0-0.2-0.1-0.3-0.1
		c-0.5,0-1.2,0.2-1.7,0.2c-0.2,0-0.2-0.2-0.3-0.3c-0.2-0.5-0.4-1-0.6-1.6c-0.1-0.1-0.2-0.3-0.3-0.5C23,5,23,4.9,22.9,4.8
		c0.5-0.1,0.9-0.1,1.4-0.2c0.1,0,0.2,0.1,0.3,0.2c0.8,0.7,1.5,1.5,1.9,2.3C26.6,7.2,26.4,7.3,26.4,7.4z M16.3,5.2c0.2,0,0.4,0,0.6,0
		c-0.1,0.7,0,1.6,0,2.3c-0.3,0.2-0.6,0.2-1,0.2c-1.4-0.1-2.7-0.1-4.1-0.3c-0.3,0-0.7-0.1-0.9-0.3C10.9,7,11,6.9,11,6.8l0,0
		c0.3-0.7,0.7-1.5,1.3-2.1c0.6,0.1,1.3,0.3,2,0.2C14.9,5.1,15.6,5.2,16.3,5.2z M11,6c-0.2,0.3-0.3,0.6-0.5,0.9
		c-0.1,0.2-0.3,0.1-0.5,0.1C9.2,7,8.5,6.7,7.8,6.2C7.8,6.1,8,6,8,6c0.2-0.4,0.6-0.7,0.9-1C9.3,4.6,9.7,4.3,10.3,4
		c0.4,0.2,0.9,0.4,1.4,0.5c0.1,0,0.1,0,0.2,0.1C11.5,5.1,11.3,5.6,11,6z M8.8,7c1.3,0.4,2.6,0.7,4,0.8C12.9,7.9,12.9,8,12.9,8
		c-0.2,0.6-0.3,1.4-0.4,2c0,0.2,0.2,0.5-0.1,0.6c-0.7,0.1-1.5-0.1-2.2-0.2c-0.8-0.1-1.8-0.3-2.6-0.6c-0.1,0-0.1-0.2-0.1-0.3
		c0-0.4,0.1-0.8,0.3-1.3c0.3-0.2,0.5-0.6,0.8-1C8.6,7.1,8.7,7.1,8.8,7z M19.5,18.5c-0.4-0.3-0.5-1-0.2-1.5c0.2-0.5,0.7-0.8,1.3-0.9
		c0,0.1,0,0.2,0.1,0.3v0.1c-0.2,0.1-0.5,0.2-0.6,0.4c-0.2,0.3-0.3,0.7-0.1,1c0.2,0.2,0.4,0.4,0.7,0.4c0,0.1,0,0.2,0,0.2
		c0,0.1,0,0.1,0,0.2C20.2,18.7,19.8,18.7,19.5,18.5z M24.6,18.8c0.4-0.2,0.7-0.7,0.8-1.2c0.1-0.6-0.1-1.3-0.5-1.6
		c-0.1-0.1-0.2-0.1-0.3-0.2c0-0.2,0-0.5,0-0.7c0.8-0.1,1.7-0.2,2.5-0.3c0.1,0.5,0.2,0.9,0.3,1.5c0,0.8,0.1,1.7,0.1,2.5
		c0,0.1-0.1,0.2-0.2,0.2c-0.8,0.1-1.8,0.1-2.6,0.2C24.6,19,24.6,18.9,24.6,18.8z M26.5,14.5c-0.6,0.1-1.3,0.2-1.9,0.2
		c0-0.2,0-0.3,0-0.5c0-0.8,0-1.7-0.1-2.5l0.1-0.1c0,0.1,0,0.2,0,0.3l0.1,0.1c0.1-0.1,0-0.3,0-0.4c-0.1,0-0.2,0-0.2,0
		c0-0.1,0-0.2-0.1-0.3c1.3-0.2,2.4-0.3,3.7-0.5c0.3-0.1,0.7-0.1,1-0.2c0.1,0.1,0.3,0.1,0.3,0.2c0.3,0.9,0.6,2,0.5,3.1
		C28.8,14.2,27.6,14.4,26.5,14.5z M31.5,11.4c0.1,0.4,0.3,0.9,0.3,1.5c0,0.1,0,0.3,0,0.5c-0.1,0.1-0.2,0.1-0.4,0.2v-0.1
		c0,0.1-0.1,0.1-0.2,0.1c-0.2,0.1-0.4,0.1-0.6,0.1c0-0.1-0.1-0.3-0.1-0.4c-0.2-0.9-0.3-2-0.6-2.9c0.3-0.1,0.6-0.2,1-0.3
		c0.1,0,0.2-0.1,0.3-0.1C31.2,10.4,31.3,10.9,31.5,11.4z M26.5,3.3l0.1,0.1L26.5,3.3c0,0.1,0,0.2,0,0.2c0.1,0,0.3-0.1,0.4-0.1
		C26.8,3.3,26.7,3.3,26.5,3.3c0.1,0,0.1,0,0.1,0c0.6-0.1,1.3,0,1.9,0c0.7,0.1,1.5,0.3,2,0.9c0.7,0.8,1,1.9,0.8,2.9
		c-0.2,0.6-0.6,1.3-1,1.8c0,0.1-0.1,0.1-0.2,0.1c-0.5,0.1-1,0.4-1.6,0.4c0.4-0.4,0.8-0.8,1.2-1.4c0.2-0.3,0.4-0.6,0.5-0.9l0,0
		c0.1-0.7,0.1-1.5-0.1-2.1c-0.2-0.6-0.6-1.2-1.2-1.5h-0.1c0.4,0.5,0.8,1.5,0.8,2.3c0,0.4,0,0.8-0.1,1.3c0,0.2-0.1,0.3-0.2,0.5
		c-0.2,0.4-0.5,0.7-0.8,1.2c-0.1,0.1-0.2,0.2-0.3,0.2c-0.7-1.8-2.1-3.2-3.4-4.7C25.2,3.8,25.8,3.5,26.5,3.3z M25.4,3
		c0,0-0.1,0-0.2,0c0,0.1,0.1,0.1,0.2,0.2C25.4,3.2,25.4,3.1,25.4,3c0.1,0,0.1,0.1,0.2,0.1c-0.1,0.1-0.2,0.1-0.3,0.2
		c-0.1,0-0.1-0.1-0.2-0.1l0.1-0.1c-0.1-0.1-0.3-0.3-0.5-0.3c0.1,0.1,0.1,0.2,0.2,0.3c-0.2-0.1-0.4-0.3-0.6-0.4
		c-0.1-0.1-0.1-0.1-0.2-0.2C24.6,2.5,25,2.8,25.4,3z M24,2.7c0.4,0.3,0.8,0.5,1.2,0.8c-0.2,0.2-0.4,0.3-0.6,0.6
		c-0.1,0-0.1,0.1-0.2,0.1c-1,0.2-2.1,0.4-3.2,0.4c-0.1,0-0.3,0-0.4-0.1c-0.2-0.4-0.2-0.8-0.1-1.2c0.3-0.1,0.6-0.1,0.9-0.2
		c0.5-0.1,1.2-0.1,1.7-0.3c0.2-0.1,0.4-0.2,0.5-0.3C23.8,2.6,23.9,2.6,24,2.7z M21.7,1.6c0.6,0.1,1.3,0.4,1.8,0.6
		c-0.4,0.3-1,0.5-1.6,0.3c-0.3-0.2-0.6-0.4-0.8-0.6C21.3,1.8,21.5,1.6,21.7,1.6z M21.7,2.8C20.8,3,20,3.1,19.2,3.1
		c-0.3,0-0.5,0-0.8-0.1c-0.1,0-0.2-0.1-0.3-0.1l0,0c0-0.2,0.1-0.5,0.3-0.6c0.5,0,1,0,1.6-0.1c0.1,0,0.3,0,0.4,0
		C20.8,2.3,21.4,2.5,21.7,2.8z M17.9,1.4c0.3,0,0.6,0,1-0.1c0.6,0,1.4,0,2,0.2c-0.1,0.1-0.2,0.1-0.3,0.1c-0.1,0-0.2,0.1-0.4,0.1
		c-0.7,0.1-1.6,0.2-2.3,0.1c-0.4,0.1-0.9,0-1.4-0.2C17,1.5,17.5,1.5,17.9,1.4z M16.2,1.9c0.4,0.1,0.8,0.2,1.4,0.3
		c0.1,0,0.2,0,0.3,0.1c-0.1,0.2-0.1,0.6-0.4,0.7c-0.8,0.1-1.6,0-2.3-0.2c-0.1,0-0.2,0-0.3-0.1c0-0.1,0.2-0.1,0.2-0.2
		C15.5,2.3,15.8,2.1,16.2,1.9z M15.3,1.9c0.2-0.1,0.4-0.2,0.7-0.2c-0.4,0.2-0.8,0.5-1.4,0.7c-0.2,0-0.5,0-0.7,0
		C14.3,2.2,14.9,2.1,15.3,1.9z M13.2,2.7c0,0,0.1,0,0.1,0.1h-0.1c0.1,0.1,0.1,0.2,0.2,0C13.3,2.8,13.3,2.7,13.2,2.7
		c0.4-0.1,0.7,0.2,1,0.2c0.2,0,0.4,0.1,0.6,0.1c0.1,0,0.2,0.1,0.3,0.3c-0.3,0.4-0.5,0.8-0.7,1.3c-0.2,0.1-0.3,0.2-0.5,0.2
		c-1-0.2-2.1-0.2-3-0.7c-0.1-0.2,0-0.3,0.1-0.3c0.4-0.3,0.8-0.5,1.4-0.7C12.6,2.8,12.9,2.7,13.2,2.7z M10.9,1.4
		c0.4,0.1,0.9,0.3,1.4,0.5v0.1c-0.1-0.1-0.2,0-0.3,0c-0.1-0.1-0.3-0.2-0.5-0.3c0,0,0,0.1-0.1,0.1c0.2,0.1,0.4,0.2,0.6,0.3
		C12,2.3,12,2.4,12.1,2.4c0-0.1,0-0.1,0-0.2c0.1,0,0.1,0.1,0.2,0.1c0,0,0-0.1,0-0.2c0,0,0,0,0.1-0.1c0.1,0.1,0.2,0.1,0.3,0.2
		c-0.3,0.1-0.7,0.3-1,0.4c-0.3-0.1-0.5-0.3-0.8-0.5L11,1.9c0.1,0,0.2,0.1,0.3,0.1c0-0.1-0.2-0.2-0.3-0.2V1.7c0.1,0-0.1-0.1-0.2-0.1
		v0.1c0.2,0,0.1,0.2,0,0.3c-0.5-0.3-1-0.5-1.7-0.5C9.7,1.4,10.3,1.3,10.9,1.4z M7.1,3.6c0.1-0.4,0.2-0.7,0.5-1
		c0.4-0.5,0.9-0.8,1.5-1v0.1c0.2,0.1,0.4,0.1,0.6,0.2c0.4,0.2,0.7,0.5,1,0.7C10.9,2.7,11,2.9,11.1,3c-0.1,0.2-0.4,0.4-0.6,0.5
		c-0.1,0.1-0.3,0-0.5,0.1c-0.3,0.2-0.7,0.5-1,0.7c-0.5,0.5-1,0.9-1.5,1.6C7.2,5.2,7,4.4,7.1,3.6z M6.2,8.2c0.3-0.5,0.6-0.9,1-1.4
		c0.1-0.1,0.2-0.2,0.3-0.3c0.3,0.1,0.5,0.2,0.8,0.3C7.8,7.6,7.4,8.5,7.2,9.5c0,0.1,0,0.3-0.2,0.2C6.6,9.5,6.2,9.4,5.8,9.2
		C5.9,8.9,6.1,8.5,6.2,8.2z M5.2,9.8c0.1-0.1,0.2-0.3,0.3-0.4c0.9,0.4,1.9,0.7,2.8,1c0.1,0,0.2,0.1,0.2,0.1c0.1,0.1,0.2,0.3,0.1,0.4
		c-0.3,0.6-0.4,1.4-0.4,2.1c0,0.2-0.1,0.5-0.3,0.6c-0.2,0.1-0.4,0-0.7,0c-0.6-0.2-1.3-0.3-2-0.5c-0.3-0.1-0.6-0.2-0.8-0.4
		c0.1,0,0.1-0.2,0.1-0.3C4.5,11.5,4.9,10.6,5.2,9.8z M4.4,13.7c0-0.2,0.1-0.4,0.1-0.6c0.2,0.1,0.5,0.2,0.7,0.4
		c0,0.1-0.1,0.2-0.1,0.3l0,0C5,14.1,5,14.4,5,14.7c0,0.4,0,0.8-0.1,1.3c0,0.4,0.1,0.9,0.1,1.4c-0.2,0-0.5-0.2-0.6-0.3
		C4.2,15.9,4.3,14.8,4.4,13.7z M5.5,18.2c0,0.2-0.1,0.5-0.1,0.7c0.1,0.6,0.1,1.2,0.1,1.7s0,0.9,0,1.5v0.1c-0.3-0.1-0.6-0.3-0.9-0.5
		c-0.1,0-0.2-0.1-0.4-0.2C4.1,20.7,4,20,4,19.2c0-0.6,0-1.3,0.1-1.9c0.2,0.1,0.4,0.2,0.6,0.3c0.1,0.1,0.3,0,0.4,0
		C5.4,17.8,5.5,18,5.5,18.2z M5.4,17.4c-0.2,0-0.1-0.2-0.2-0.4c-0.1-0.9-0.1-2,0.1-2.9c0.1-0.2,0.1-0.4,0.3-0.4
		c1.8,0.4,3.6,0.8,5.3,1.3c0.2,0,0.5,0.1,0.7,0.1c0.1,0,0.3,0.1,0.3,0.2c0,0.4,0,0.8,0,1.3c-0.1,0-0.3,0-0.4,0s-0.2,0-0.3,0
		l-0.1-0.1h0.1c0-0.1-0.1-0.1-0.2-0.1c0,0.1,0,0.2,0.1,0.3c-0.3,0-0.5,0.2-0.7,0.2C10,17,9.5,17.2,9.1,17.4c0-0.1,0.1-0.2,0-0.3
		C9,17.1,9,17.2,9,17.3h0.1v0.1c-0.1,0-0.2,0.1-0.3,0.2v-0.1H8.7c0,0,0,0,0,0.1c0,0,0,0.1,0.1,0.1c-0.1,0.1-0.2,0.1-0.3,0.2
		c0-0.1,0-0.2-0.1-0.2C8.3,17.9,8.5,18,8.5,18C7.4,18,6.4,17.8,5.4,17.4z M6.1,22.5c-0.1-0.1-0.2-0.2-0.2-0.4c0-0.8,0-1.7,0-2.5
		c0-0.3,0-0.6,0-0.9c0-0.2,0.2-0.4,0.4-0.4c0.4-0.2,0.9,0,1.4,0c0.1,0,0.2,0,0.4,0c-0.3,0.2-0.4,0.6-0.5,0.9C7.1,19.2,7,19.6,6.8,20
		c-0.3,0.5-0.5,1.2-0.5,1.8C6.2,22.2,6.3,22.4,6.1,22.5z M8.4,25.4c-0.2-0.1-0.4-0.1-0.6-0.2c-0.2-0.1-0.3,0.1-0.5,0.1
		s-0.5-0.1-0.7-0.2c-0.1,0-0.2-0.2-0.2-0.3c-0.1-0.6,0-1.2,0-1.8c0-0.1,0-0.2,0.1-0.2c0.2,0,0.5,0,0.7,0c0.3,0,0.5,0.1,0.8,0.2
		c0.2,0,0.3,0.1,0.5,0.1C8.4,23.8,8.3,24.6,8.4,25.4z M11.4,24.2c-0.1,0-0.2,0.1-0.3,0.1c-0.5,0.3-1,0.4-1.5,0.7
		c-0.3,0.2-0.6,0.4-0.9,0.4c0-0.7-0.1-1.5,0-2.2c0-0.1,0-0.2,0.1-0.3c0.4-0.1,0.8-0.3,1.3-0.4c0.3-0.1,0.7-0.2,1-0.3
		c0.2-0.1,0.5-0.2,0.7-0.2c0,0.4,0,0.8,0.1,1.4c0,0.2,0.1,0.4,0.1,0.6C11.7,24,11.6,24.2,11.4,24.2z M12,21.6
		c-0.1-0.2-0.3-0.4-0.3-0.6c0-0.1,0.1-0.2,0.1-0.2c0.3-0.3,0.6-0.6,1-0.9c0.7,0.5,1,1.3,1.3,2c0.1,0.3,0.2,0.7,0.3,1
		c0,0.1,0,0.2,0,0.4c-0.4,0-0.8,0-1.3,0c-0.3,0-0.6-0.1-0.9-0.2C12.1,22.6,12.1,22.2,12,21.6z M14.9,26.2c0,0.1-0.1,0.2-0.1,0.4
		c-0.2,0-0.4,0.1-0.6,0.1c-0.1-0.1-0.3,0-0.4,0c-0.4-0.1-0.8-0.2-1.2-0.2c-0.1-0.1-0.2-0.2-0.2-0.3c0-0.2,0-0.3,0-0.5
		c0-0.6-0.1-1.2,0-1.8c0-0.1,0.1-0.2,0.2-0.3c0,0,0.1,0,0.2,0c0.6,0,1.3,0,1.8,0.1c0.2,0,0.3,0.1,0.3,0.3C15,24.5,15,25,15,25.5
		C15,25.6,15,25.9,14.9,26.2z M14.9,23.1c-0.1-1.2-0.7-2.1-1.3-3c-0.1-0.2-0.4-0.3-0.4-0.6c0.7-0.3,1.5-0.7,2.2-0.9
		c0.3,0,0.6,0.2,0.8,0.4c0.5,0.6,0.9,1.4,1.2,2.2c0,0.2,0,0.4-0.1,0.5c-0.4,0.2-0.7,0.5-1.2,0.6C15.7,22.6,15.3,22.9,14.9,23.1z
		 M17.8,23.3c0,0.4,0,0.8-0.1,1.3c-0.2,0.2-0.3,0.4-0.6,0.5c-0.2,0.1-0.4,0.1-0.5,0.2c-0.1,0.1-0.1,0.2-0.2,0.4
		c-0.3-0.1-0.5,0.2-0.6,0.3c-0.1,0.2-0.2,0.4-0.2,0.6c-0.1,0-0.1,0-0.2,0c0-0.7,0-1.5-0.1-2.1c0-0.3-0.1-0.7,0-1
		c0.1-0.2,0.2-0.4,0.4-0.5c0.5-0.4,1-0.8,1.8-1.2c0.2,0.1,0.3,0.3,0.3,0.4C17.7,22.7,17.8,23,17.8,23.3z M18.7,24.6c0-0.3,0-0.6,0-1
		l0,0c-0.1-0.5-0.1-0.9-0.3-1.5L18.3,22c0,0.3,0.1,0.7,0.2,1c0.1,0.5,0.1,0.9,0,1.5c-0.1,0-0.2,0-0.2-0.1c0.1-0.4,0-0.7,0-1.2
		c-0.1-0.5,0-1-0.2-1.5c-0.1-0.2-0.2-0.3-0.2-0.5c-0.1-0.6-0.3-1.2-0.6-1.7c0.8,0,1.6,0.1,2.4,0c0,0.7,0,1.5,0.1,2.2
		c-0.3,0.3-0.7,0.7-0.8,1.3c-0.1,0.1,0,0.3-0.1,0.4c0,0.2,0.1,0.4,0.1,0.6h0.1c0.1,0.1,0.2,0.2,0.2,0.4
		C19.1,24.7,18.8,24.7,18.7,24.6z M19.6,24.3c-0.2-0.3-0.3-0.8-0.1-1.3c0.1-0.3,0.3-0.5,0.5-0.6c0.1,0,0.2-0.2,0.3-0.1
		c0,0.1,0.1,0.2,0.1,0.3c-0.2,0.2-0.4,0.3-0.6,0.5c-0.2,0.5,0.2,1.2,0.7,1.2c0,0.1,0,0.2,0,0.3v0.1c-0.1,0-0.2-0.1-0.4-0.1
		C20,24.5,19.7,24.4,19.6,24.3z M23.9,27.1c-0.2,0-0.3,0-0.5,0.1c-0.1,0-0.2,0.1-0.2,0.1c-0.4-0.2-0.9-0.2-1.5-0.2
		c-0.1,0-0.2,0-0.2-0.1c-0.3-0.2-0.7-0.2-1-0.1c-0.1,0-0.3,0-0.4,0.1c0.1-0.6,0-1.3,0.1-1.9c0.9,0.2,2,0.2,3,0.1
		c0.3,0,0.6-0.1,0.9-0.2c0.1,0.7,0.1,1.5,0.2,2.1C24.2,27.1,24.1,27.1,23.9,27.1z M24.7,23.5c0,0.2-0.1,0.4-0.3,0.6l0,0
		c-0.2,0.2-0.4,0.4-0.7,0.4c0.1-0.5,0.1-1,0-1.6c0-0.4-0.1-0.7-0.1-1c0.3,0.1,0.5,0.2,0.7,0.5C24.6,22.8,24.7,23.2,24.7,23.5z
		 M25.5,22.4c-0.1,0.1-0.1,0.3-0.1,0.5c0,0.3-0.1,0.5-0.1,0.8c0,0-0.1,0-0.2,0.1c0-0.1,0.1-0.3,0.1-0.4c0-0.2-0.1-0.3-0.1-0.5
		c-0.1-0.2-0.2-0.5-0.1-0.8c0-0.2,0.1-0.3,0-0.5c-0.2-0.1-0.1,0.2-0.1,0.3c0,0.1,0,0.3,0,0.4c-0.1-0.1-0.1-0.1-0.1-0.2s0-0.2,0-0.3
		h-0.1c0-0.6-0.1-1.3,0-1.9c0-0.2,0.1-0.3,0.3-0.4c0.1-0.1,0.3,0,0.4-0.1c0.6,0,1.2,0,1.8-0.1c0.3-0.1,0.7-0.2,1-0.2
		c0.4,0,0.9-0.3,1.4-0.2c0.1,0,0.3,0.1,0.3,0.2c0,0.7-0.1,1.6-0.1,2.3c-0.4,0.1-0.8,0.1-1.3,0.2c0-0.1,0-0.1,0-0.2
		c0-0.4,0-0.7,0-1.2h-0.1c0,0.4,0,0.8,0,1.3c0,0.1,0,0.1,0,0.1c0-0.3,0-0.5,0-0.8c0-0.1,0-0.1-0.1-0.2c0,0.2,0,0.3,0,0.5
		c0,0.2,0,0.3,0,0.5h-0.1c0-0.1,0-0.1,0-0.2v-0.1c0,0,0,0-0.1,0c0,0.1,0,0.2,0,0.3v-0.1c0-0.1,0-0.2-0.1-0.3c0,0.1,0,0.2,0,0.3
		c-0.1,0-0.1,0-0.2,0.1c0-0.1,0-0.2-0.1-0.3c0,0.1,0,0.2,0,0.2v0.1l0,0c-0.4,0.1-0.8,0.1-1.3,0.2C26,22.3,25.7,22.2,25.5,22.4z
		 M28.7,26.4c-0.4-0.1-0.7-0.4-1.2-0.6c-0.3-0.1-0.6-0.2-0.8-0.3c-0.2,0-0.4,0.2-0.6,0.1c-0.2-0.1,0-0.3,0-0.5
		c0.2-0.7,0.1-1.5,0.2-2.2c0.6,0.1,1.4,0.3,2,0.4c0,0,0,0.1,0.1,0.1c-0.1,0.1-0.1,0.3,0,0.4c0-0.1,0-0.2,0.1-0.3h-0.1l0.1-0.1
		c0.2,0.1,0.4,0.1,0.7,0.1C28.9,24.5,28.8,25.4,28.7,26.4z M28.7,23.1c-0.7-0.2-1.5-0.3-2.2-0.5c1-0.2,2.2-0.4,3.2-0.5
		c0.4,0,0.7-0.1,1.2-0.1c0.3,0.1,0.7,0.2,1,0.3c0.3,0,0.5,0.2,0.8,0.3c-0.4,0.1-0.7,0.1-1.2,0.2l-0.1-0.1h0.1c-0.1,0-0.2-0.2-0.2,0
		v0.1h0.1v0.1c-0.3,0-0.6,0.1-1,0.2c-0.2,0-0.2-0.1-0.3-0.2L30.1,23c0.1,0,0.1,0.1,0.2,0.1c-0.3,0.1-0.6,0.1-1,0.2
		C29.1,23.2,28.9,23.2,28.7,23.1z M33.5,25.5c-0.3,0-0.4,0.2-0.7,0.3c-0.3,0-0.6,0.1-0.9,0.1s-0.5-0.2-0.7-0.2
		c-0.4,0-0.7,0.4-1.3,0.5c-0.3,0-0.5,0.1-0.8,0.1c0-0.9,0.2-1.9,0.3-2.8c1.3-0.2,2.6-0.4,3.9-0.7c0.1,0,0.2,0,0.2,0.1
		C33.6,23.7,33.5,24.6,33.5,25.5z"/>
</g>
</svg>
