<?xml version="1.0" encoding="utf-8"?>
<!-- Generator: Adobe Illustrator 25.3.1, SVG Export Plug-In . SVG Version: 6.00 Build 0)  -->
<svg version="1.1" id="Capa_1" xmlns="http://www.w3.org/2000/svg" xmlns:xlink="http://www.w3.org/1999/xlink" x="0px" y="0px"
	 width="25.3px" height="24.5px" viewBox="0 0 25.3 24.5" style="enable-background:new 0 0 25.3 24.5;" xml:space="preserve">
<g>
	<g>
		<path d="M8.4,2.6L8.4,2.6c0.3,0,0.5,0.2,0.6,0.4c0.1,0.2,0.1,0.4,0.1,0.5c0,0.3,0,0.7,0,1c0,0.2,0,0.4,0,0.6c0.3,0,0.6,0,0.9,0
			c0.2,0,0.4,0,0.5,0c0.3,0,0.7,0,1,0c0.3,0,0.6,0,0.8,0c0.3,0,0.7,0,1,0c0.3,0,0.6,0,0.8,0c0.3,0,0.6,0,1,0c0.3,0,0.7,0,1,0
			c0-0.2,0-0.4,0-0.7c0-0.3,0-0.5,0-0.8c0-0.2,0-0.3,0-0.5c0.1-0.3,0.3-0.5,0.6-0.5h0.1c0.2,0,0.4,0.2,0.5,0.4
			c0.1,0.2,0.1,0.3,0.1,0.5c0,0.3,0,0.7,0,1c0,0.2,0,0.4,0,0.6c0.3,0,0.7,0,1,0c0.4,0,0.7,0,1.1,0c0.4,0,0.9-0.1,1.3,0.1
			c0.5,0.2,0.8,0.6,1,1c0.2,0.4,0.1,0.9,0.1,1.3c0,0.3,0,0.6,0,0.9c-0.2,0-0.5,0-0.7,0c-0.3,0-0.6,0-0.9,0c-0.3,0-0.6,0-0.9,0
			c-0.3,0-0.7,0-1,0c-0.3,0-0.6,0-0.9,0c-0.3,0-0.7,0-1,0c-0.3,0-0.6,0-0.9,0c-0.3,0-0.7,0-1,0c-0.2,0-0.3,0-0.5,0c-0.3,0-0.7,0-1,0
			c-0.1,0-0.3,0-0.4,0c-0.3,0-0.6,0-1,0c-0.2,0-0.3,0-0.5,0c-0.3,0-0.6,0-0.9,0c-0.3,0-0.7,0-1,0c-0.1,0-0.3,0-0.4,0
			c-0.3,0-0.6,0-1,0c-0.3,0-0.6,0-0.9,0c-0.3,0-0.6,0-1,0c-0.1,0-0.3,0-0.4,0c-0.3,0-0.7,0-1,0c-0.1,0-0.2,0-0.4,0
			c-0.4,0-0.8,0-1.1,0c0-0.2,0-0.5,0-0.7c0-0.4,0-0.7,0-1.1c0-0.5,0.3-0.9,0.6-1.2c0.3-0.2,0.6-0.3,1-0.4c0.3,0,0.5,0,0.8,0
			c0.3,0,0.7,0,1,0c0.3,0,0.6,0,1,0c0-0.1,0-0.2,0-0.2c0-0.3,0-0.6,0-0.8c0-0.2,0-0.4,0-0.6c0-0.2,0-0.3,0.1-0.5
			C8,2.7,8.2,2.6,8.4,2.6z M7.4,6.1C7.3,6.2,7.3,6.4,7.2,6.5c0,0.3,0,0.6,0.1,0.8c0.1,0.2,0.3,0.5,0.6,0.6C8,7.9,8,8,8.1,8
			C8.2,8,8.3,8,8.4,8c0.1,0,0.2,0,0.3,0l0,0c0,0,0.1,0,0.1,0C8.9,8,8.9,7.9,9,7.9c0.3-0.1,0.5-0.3,0.6-0.6c0.1-0.2,0.1-0.5,0.1-0.7
			c0-0.3-0.2-0.6-0.5-0.8c0,0-0.1-0.1-0.1-0.1c0,0.4,0,0.7,0,1.1c0,0.3-0.3,0.6-0.7,0.6C8.2,7.4,8,7.3,7.9,7.1
			C7.8,7,7.8,6.8,7.8,6.7c0-0.1,0-0.2,0-0.4c0,0,0-0.1,0-0.1c0-0.2,0-0.3,0-0.5C7.7,5.8,7.5,5.9,7.4,6.1z M15.7,6.2
			c-0.2,0.3-0.2,0.7,0,1.1c0,0,0,0,0,0c0.2,0.3,0.5,0.6,0.8,0.7c0.2,0,0.4,0,0.6,0l0,0c0.1,0,0.2-0.1,0.3-0.1
			c0.2-0.1,0.4-0.3,0.6-0.6c0.1-0.2,0.1-0.4,0.1-0.5c0-0.4-0.2-0.8-0.5-1c0,0-0.1-0.1-0.1-0.1c0,0,0,0.1,0,0.1c0,0.2,0,0.5,0,0.7
			c0,0.2,0,0.4,0,0.5c-0.1,0.2-0.2,0.3-0.4,0.3c-0.3,0.1-0.6-0.1-0.8-0.3c-0.1-0.1-0.1-0.3-0.1-0.5c0-0.3,0-0.5,0-0.8
			c0,0,0-0.1,0-0.1C16,5.8,15.8,6,15.7,6.2z"/>
	</g>
	<g>
		<path d="M3.4,9.3c6.2,0,12.3,0,18.5,0c0,0.4,0,0.7,0,1.1c0,0.3,0,0.7,0,1c0,0.3,0,0.6,0,1c0,0.3,0,0.6,0,0.9c0,0.3,0,0.6,0,0.9
			c0,0.2,0,0.4,0,0.7c0,0.3,0,0.6,0,0.9c0,0.2,0,0.3,0,0.5c0,0.3,0,0.6,0,0.8c0,0.3,0,0.7,0,1c0,0.4,0,0.7,0,1.1c0,0.5,0,1,0,1.5
			c0,0.4,0,0.7,0,1.1c0,0.4-0.1,0.7-0.3,1.1c-0.3,0.5-0.8,0.8-1.4,0.8H5.1c-0.5,0-0.9-0.2-1.2-0.6c-0.2-0.2-0.3-0.5-0.4-0.8
			c-0.1-0.3,0-0.5,0-0.8c0-0.5,0-0.9,0-1.4c0-0.4,0-0.9,0-1.3c0-0.3,0-0.6,0-0.8c0-0.3,0-0.6,0-0.9c0-0.3,0-0.6,0-0.9
			c0-0.3,0-0.6,0-0.9c0-0.3,0-0.6,0-0.9c0-0.3,0-0.7,0-1c0-0.3,0-0.6,0-0.9c0-0.2,0-0.3,0-0.5c0-0.3,0-0.6,0-0.8c0-0.3,0-0.7,0-1
			C3.4,9.8,3.4,9.5,3.4,9.3z M4.7,10.6c0,0.1,0,0.3,0,0.4c0,0.2,0,0.4,0,0.6c0,0.2,0,0.4,0,0.6c0,0.2,0,0.3,0,0.5c0,0.4,0,0.7,0,1.1
			c0,0.1,0,0.1,0,0.2c0.2,0,0.5,0,0.7,0c0.2,0,0.4,0,0.7,0c0.3,0,0.6,0,1,0c0.2,0,0.3,0,0.5,0c0.2,0,0.3,0,0.5,0c0-0.3,0-0.5,0-0.8
			c0-0.1,0-0.2,0-0.3c0-0.3,0-0.6,0-0.9c0-0.3,0-0.6,0-0.9c0-0.1,0-0.3,0-0.4c-0.1,0-0.2,0-0.3,0c-0.3,0-0.6,0-0.9,0
			c-0.1,0-0.3,0-0.4,0c-0.2,0-0.3,0-0.5,0c-0.3,0-0.7,0-1,0C4.8,10.6,4.7,10.5,4.7,10.6z M8.9,10.6c0,0.2,0,0.3,0,0.5
			c0,0.3,0,0.6,0,0.9c0,0.3,0,0.6,0,0.8c0,0.4,0,0.7,0,1.1c0,0,0.1,0,0.2,0c0.3,0,0.7,0,1,0c0.2,0,0.4,0,0.6,0c0.1,0,0.2,0,0.3,0
			c0.2,0,0.4,0,0.6,0c0.1,0,0.2,0,0.3,0c0.1,0,0.2,0,0.3,0c0-0.2,0-0.4,0-0.5c0-0.3,0-0.7,0-1c0-0.3,0-0.6,0-1c0-0.3,0-0.5,0-0.8
			c-0.2,0-0.4,0-0.5,0c-0.1,0-0.3,0-0.4,0c-0.3,0-0.5,0-0.8,0c-0.1,0-0.3,0-0.4,0c-0.2,0-0.3,0-0.5,0C9.4,10.6,9.1,10.6,8.9,10.6z
			 M13.1,11.1c0,0.3,0,0.5,0,0.7c0,0.2,0,0.5,0,0.7c0,0.1,0,0.2,0,0.3c0,0.3,0,0.7,0,1c0.1,0,0.2,0,0.3,0c0.2,0,0.5,0,0.7,0
			c0.2,0,0.3,0,0.5,0c0.3,0,0.6,0,0.9,0c0.2,0,0.4,0,0.5,0c0.2,0,0.3,0,0.5,0c0,0,0-0.1,0-0.1c0-0.3,0-0.6,0-0.9c0-0.3,0-0.5,0-0.8
			c0-0.1,0-0.1,0-0.2c0-0.1,0-0.3,0-0.4c0-0.2,0-0.4,0-0.5c0-0.1,0-0.2,0-0.4c-0.1,0-0.2,0-0.3,0c-0.3,0-0.6,0-0.9,0
			c-0.3,0-0.6,0-0.9,0c-0.1,0-0.3,0-0.4,0c-0.3,0-0.5,0-0.8,0C13.1,10.8,13.1,11,13.1,11.1z M17.3,10.6c0,0.1,0,0.2,0,0.3
			c0,0.2,0,0.3,0,0.5c0,0.3,0,0.5,0,0.8c0,0.1,0,0.1,0,0.2c0,0.2,0,0.3,0,0.5c0,0.3,0,0.6,0,0.9c0,0,0,0.1,0,0.1c0.1,0,0.2,0,0.3,0
			c0.2,0,0.4,0,0.6,0c0.3,0,0.7,0,1,0c0.1,0,0.1,0,0.2,0c0.2,0,0.4,0,0.6,0c0,0,0.1,0,0.1,0c0.2,0,0.3,0,0.5,0c0-0.1,0-0.2,0-0.2
			c0-0.1,0-0.2,0-0.3c0-0.3,0-0.7,0-1c0-0.2,0-0.3,0-0.5c0-0.1,0-0.3,0-0.4c0-0.2,0-0.3,0-0.5c0-0.1,0-0.1,0-0.2c0-0.1,0-0.1,0-0.2
			c-0.2,0-0.5,0-0.7,0c-0.3,0-0.5,0-0.8,0c-0.1,0-0.1,0-0.2,0c-0.3,0-0.5,0-0.8,0c-0.1,0-0.2,0-0.4,0C17.7,10.6,17.5,10.6,17.3,10.6
			z M4.7,14.8c0,0.3,0,0.6,0,0.9c0,0.3,0,0.6,0,0.9c0,0.2,0,0.4,0,0.6c0,0.3,0,0.6,0,0.9c0.1,0,0.2,0,0.2,0c0.3,0,0.7,0,1,0
			c0.3,0,0.6,0,1,0c0.3,0,0.7,0,1,0c0.1,0,0.1,0,0.2,0c0-0.2,0-0.4,0-0.6c0-0.3,0-0.6,0-1c0-0.3,0-0.6,0-0.8c0-0.3,0-0.6,0-1
			c-0.1,0-0.3,0-0.4,0c-0.2,0-0.5,0-0.7,0c-0.1,0-0.2,0-0.2,0c-0.3,0-0.5,0-0.8,0c-0.3,0-0.7,0-1,0C4.8,14.8,4.8,14.8,4.7,14.8z
			 M8.9,14.8c0,0.3,0,0.6,0,0.9c0,0.2,0,0.4,0,0.6c0,0.3,0,0.6,0,0.9c0,0.3,0,0.7,0,1c0.2,0,0.5,0,0.7,0c0.3,0,0.5,0,0.8,0
			c0.1,0,0.1,0,0.2,0c0.2,0,0.3,0,0.5,0c0.2,0,0.5,0,0.7,0c0.2,0,0.3,0,0.5,0c0,0,0-0.1,0-0.1c0-0.2,0-0.3,0-0.5c0-0.2,0-0.5,0-0.7
			c0-0.2,0-0.5,0-0.7c0-0.2,0-0.3,0-0.5c0-0.2,0-0.4,0-0.6c0-0.1,0-0.1,0-0.2c-0.3,0-0.6,0-0.8,0c-0.1,0-0.2,0-0.4,0
			c-0.2,0-0.5,0-0.7,0c-0.1,0-0.2,0-0.3,0c-0.3,0-0.5,0-0.8,0C9.2,14.8,9,14.8,8.9,14.8z M13.1,14.8c0,0.1,0,0.2,0,0.3
			c0,0.2,0,0.3,0,0.5c0,0.2,0,0.5,0,0.7c0,0.2,0,0.4,0,0.7c0,0.4,0,0.8,0,1.2c0.1,0,0.2,0,0.3,0c0.3,0,0.6,0,1,0c0.2,0,0.5,0,0.7,0
			c0.1,0,0.1,0,0.2,0c0.1,0,0.3,0,0.4,0c0.3,0,0.5,0,0.8,0c0-0.1,0-0.2,0-0.3c0-0.3,0-0.5,0-0.8c0-0.3,0-0.7,0-1c0-0.2,0-0.4,0-0.6
			c0-0.2,0-0.4,0-0.7c-0.1,0-0.2,0-0.3,0c-0.3,0-0.5,0-0.8,0c-0.4,0-0.7,0-1.1,0c-0.3,0-0.5,0-0.8,0C13.4,14.8,13.2,14.8,13.1,14.8z
			 M17.3,14.8c0,0.1,0,0.1,0,0.2c0,0.1,0,0.1,0,0.2c0,0.1,0,0.1,0,0.2c0,0.2,0,0.4,0,0.6c0,0.1,0,0.1,0,0.2c0,0.1,0,0.1,0,0.2
			c0,0.1,0,0.2,0,0.3c0,0.1,0,0.3,0,0.4c0,0.2,0,0.3,0,0.5c0,0.2,0,0.4,0,0.6c0.1,0,0.2,0,0.3,0c0.2,0,0.5,0,0.7,0
			c0.2,0,0.5,0,0.7,0c0.3,0,0.6,0,0.9,0c0.2,0,0.3,0,0.5,0c0.1,0,0.2,0,0.3,0c0-0.2,0-0.4,0-0.6c0-0.1,0-0.3,0-0.4
			c0-0.2,0-0.4,0-0.6c0-0.1,0-0.2,0-0.4c0-0.2,0-0.3,0-0.5c0-0.1,0-0.3,0-0.4c0-0.1,0-0.3,0-0.4c-0.1,0-0.1,0-0.2,0
			c-0.2,0-0.4,0-0.5,0c-0.3,0-0.7,0-1,0c-0.3,0-0.6,0-1,0C17.7,14.8,17.5,14.8,17.3,14.8z M4.7,19.4c0,0.3,0,0.6,0,0.9
			c0,0.3,0,0.7,0,1c0,0.3,0,0.7,0,1c0.1,0,0.2,0,0.3,0c0.1,0,0.1,0,0.2,0c0.3,0,0.6,0,0.9,0c0.1,0,0.2,0,0.3,0c0.1,0,0.1,0,0.2,0
			c0.1,0,0.2,0,0.3,0c0.2,0,0.5,0,0.7,0c0.2,0,0.3,0,0.5,0c0-0.3,0-0.6,0-0.8c0-0.1,0-0.3,0-0.4c0-0.2,0-0.4,0-0.6c0-0.3,0-0.7,0-1
			c0-0.1,0-0.3,0-0.4c-0.1,0-0.1,0-0.2,0c0,0-0.1,0-0.1,0c-0.3,0-0.6,0-0.9,0c-0.1,0-0.1,0-0.2,0c0,0-0.1,0-0.1,0
			c-0.1,0-0.2,0-0.4,0c-0.1,0-0.1,0-0.2,0c-0.1,0-0.2,0-0.4,0c-0.2,0-0.4,0-0.6,0c-0.1,0-0.2,0-0.3,0C4.7,19.1,4.7,19.2,4.7,19.4z
			 M8.9,19.4c0,0.3,0,0.6,0,1c0,0.2,0,0.4,0,0.7c0,0.3,0,0.5,0,0.8c0,0.2,0,0.4,0,0.5c0,0,0,0.1,0.1,0c0.2,0,0.5,0,0.7,0
			c0,0,0.1,0,0.1,0c0.1,0,0.2,0,0.3,0c0.2,0,0.5,0,0.7,0c0.1,0,0.1,0,0.2,0c0.2,0,0.3,0,0.5,0c0.1,0,0.1,0,0.2,0c0.1,0,0.2,0,0.2,0
			c0.1,0,0.2,0,0.3,0c0-0.2,0-0.4,0-0.6c0-0.3,0-0.7,0-1c0-0.3,0-0.6,0-0.9c0-0.1,0-0.2,0-0.3c0-0.2,0-0.4,0-0.5c-0.3,0-0.5,0-0.8,0
			c-0.2,0-0.4,0-0.6,0c-0.1,0-0.3,0-0.4,0c-0.2,0-0.4,0-0.7,0c-0.1,0-0.1,0-0.2,0c-0.2,0-0.5,0-0.7,0C8.9,19.1,8.9,19.2,8.9,19.4z
			 M13.1,19.7c0,0.1,0,0.2,0,0.4c0,0.3,0,0.5,0,0.8c0,0.2,0,0.5,0,0.7c0,0.3,0,0.5,0,0.8c0,0,0,0.1,0,0.1c0.2,0,0.3,0,0.5,0
			c0,0,0.1,0,0.1,0c0.2,0,0.4,0,0.6,0c0,0,0.1,0,0.1,0c0,0,0.1,0,0.1,0c0.1,0,0.1,0,0.2,0c0.2,0,0.3,0,0.5,0c0,0,0.1,0,0.1,0
			c0.1,0,0.2,0,0.3,0c0.2,0,0.3,0,0.5,0c0.1,0,0.2,0,0.3,0c0-0.2,0-0.4,0-0.5c0-0.4,0-0.7,0-1.1c0-0.1,0-0.3,0-0.4
			c0-0.1,0-0.2,0-0.2c0-0.1,0-0.1,0-0.2c0,0,0-0.1,0-0.1c0-0.2,0-0.4,0-0.6c0-0.1,0-0.1,0-0.2c-0.1,0-0.2,0-0.3,0
			c-0.1,0-0.3,0-0.4,0c0,0-0.1,0-0.1,0c-0.1,0-0.2,0-0.4,0c-0.1,0-0.3,0-0.4,0c-0.2,0-0.4,0-0.6,0c-0.2,0-0.4,0-0.6,0
			c-0.2,0-0.4,0-0.6,0C13.1,19.2,13.1,19.4,13.1,19.7z M17.3,19C17.3,19,17.3,19,17.3,19c0,0.2,0,0.3,0,0.4c0,0.1,0,0.2,0,0.3
			c0,0.1,0,0.1,0,0.2c0,0.2,0,0.3,0,0.5c0,0.1,0,0.3,0,0.4c0,0.1,0,0.2,0,0.4c0,0.2,0,0.4,0,0.6c0,0.1,0,0.2,0,0.4
			c0,0.1,0,0.2,0,0.3c0.1,0,0.2,0,0.3,0c0.2,0,0.5,0,0.7,0c0.1,0,0.2,0,0.3,0c0.3,0,0.6,0,0.9,0c0.2,0,0.4,0,0.6,0
			c0.1,0,0.2,0,0.4,0c0.1,0,0.2,0,0.3,0c0,0,0-0.1,0-0.1c0-0.3,0-0.6,0-1c0-0.1,0-0.3,0-0.4c0-0.1,0-0.1,0-0.2c0-0.3,0-0.5,0-0.8
			c0-0.3,0-0.6,0-0.9c0,0,0,0,0,0c-0.2,0-0.4,0-0.6,0c-0.2,0-0.4,0-0.5,0c-0.1,0-0.2,0-0.2,0c-0.1,0-0.2,0-0.3,0c0,0-0.1,0-0.1,0
			c-0.2,0-0.3,0-0.5,0c-0.1,0-0.2,0-0.3,0C17.8,19,17.5,19,17.3,19z"/>
	</g>
</g>
</svg>
