<?xml version="1.0" encoding="utf-8"?>
<!-- Generator: Adobe Illustrator 25.3.1, SVG Export Plug-In . SVG Version: 6.00 Build 0)  -->
<svg version="1.1" id="Layer_1" xmlns="http://www.w3.org/2000/svg" xmlns:xlink="http://www.w3.org/1999/xlink" x="0px" y="0px"
	 width="76px" height="81.7px" viewBox="0 0 76 81.7" style="enable-background:new 0 0 76 81.7;" xml:space="preserve">
<g>
	<path d="M7.5,23.5c0-2.9,0-5.6,0-8.5c0-1.5,1.2-2.4,2.7-2.4c2.9,0,5.6,0,8.5,0c0-1,0-1.9,0-2.9c-2.9,0-5.6,0-8.5,0
		c-1.2,0-2.4,0.5-3.4,1.2c-1.5,0.7-2.2,2.4-2.2,4.1c0,2.9,0,5.6,0,8.5C5.5,23.5,6.5,23.5,7.5,23.5z"/>
	<path d="M64.2,12.3c1.2,0,2.4,1.2,2.4,2.4c0,2.9,0,5.6,0,8.5c1,0,1.9,0,2.9,0c0-2.4,0-5.1,0-7.5c0-0.5,0-1,0-1.5
		c0-1-0.5-2.2-1.2-2.9c-1-1.2-2.7-2.2-4.4-2.2c-2.9,0-5.6,0-8.5,0c0,1,0,1.9,0,2.9C58.6,12.3,61.3,12.3,64.2,12.3z"/>
	<path d="M22,24.2c2.9-2.4,6.5-4.4,10.2-5.1c2.7-0.5,5.1-0.5,7.8-0.2c4.1,0.7,8.2,2.7,11.4,5.6c0.2,0.2,0.7,0.5,1.2,0.5
		c0.7,0,1.5-1,1.2-1.7c-0.2-0.5-0.5-0.7-1-1.2c-3.4-2.9-7.8-5.1-12.1-5.6c-2.2-0.2-4.4-0.5-6.5-0.2c-5.1,0.5-10.2,2.7-14,6.1
		c-0.5,0.5-0.5,1.2,0,1.7C20.3,24.7,21.3,24.7,22,24.2z"/>
	<path d="M49.4,25.2c-3.6-2.9-8.5-4.4-13.1-4.4c-3.6,0-7.5,1-10.4,3.1c-1.7,1.2-3.1,2.4-4.6,4.1c-1.7,2.4-3.1,5.1-3.9,8
		c-0.2,0.5,0.2,1.2,0.7,1.5c0.7,0.5,1.7,0,1.9-0.7c0.5-2.4,1.7-4.6,3.1-6.8c1.2-1.7,2.9-3.1,4.6-4.1c2.4-1.5,5.1-2.2,7.8-2.4
		c4.8-0.2,9.7,1.5,13.1,4.6c2.7,2.7,4.6,5.8,5.6,9.4c0,0.7,0.7,1,1.5,1c0.7,0,1.5-0.7,1.2-1.5c-0.7-2.9-1.9-5.6-3.9-8
		C52.1,27.6,50.8,26.1,49.4,25.2z"/>
	<path d="M52.3,57.9c-0.7-0.2-1.5-0.7-1.9-1.5c-0.7-1-0.7-2.4-0.2-3.4c1.2-2.4,2.2-5.1,2.4-8c0-0.5,0-0.7,0.2-1.2c0.2-2.7,0-5.3-1-8
		c-1.2-3.1-3.6-6.1-6.5-8c-3.4-2.2-7.5-3.1-11.6-2.7c-2.7,0.2-5.3,1.5-7.3,3.4c-2.4,2.2-4.1,5.3-4.8,8.7c-0.2,1.2-0.5,2.7-1,3.9
		c-0.2,0.7-1,1.2-1.5,1.5s-1.2,0.2-1.9,0.5c-0.7,0-1.2,0.7-1.2,1.2c0,0.7,0.5,1.2,1.2,1.2c1.5,0,3.1-0.5,4.4-1.5l0.2-0.2
		c0.5-0.5,0.7-1,1-1.5s0.5-1,0.7-1.5c0.5-1,0.5-2.2,0.7-3.1c0.5-2.2,1.2-4.1,2.7-6.1c1.7-1.9,3.9-3.4,6.5-3.9
		c1.9-0.5,4.1-0.2,6.1,0.2c3.9,1,7.3,3.9,9,7.5c1,1.9,1.5,4.4,1.2,6.5v0.2v0.2c0,0.7,0,1.2-0.2,1.9c-0.2,2.4-1,4.8-2.2,7
		c-0.7,1.7-1,3.6-0.2,5.3c0.7,1.5,1.9,2.7,3.4,3.1c0.7,0.2,1.5,0,1.7-0.7C53.3,59.1,52.8,58.4,52.3,57.9z"/>
	<path d="M23,48.7c1.9-1,3.4-2.4,4.4-4.1l0,0c0.2,0,0.2-0.2,0.5-0.5l0,0c0.2-0.5,0.5-0.7,0.5-1.2c0.2-0.2,0-0.5,0.2-0.7l0,0
		c0.2-0.7,0.2-1.5,0.5-2.4c0.2-2.2,1-4.4,2.7-5.8c1.2-1.2,2.9-1.7,4.6-1.7c2.4,0,4.6,1,6.3,2.7c1,1,1.9,2.4,2.4,3.6
		c0.2,0.5,0.2,1,0.5,1.5l0,0c0,0.5,0,1,0,1.5s0,0.7,0,1.2s-0.2,1-0.2,1.5c-0.2,1-0.5,2.2-0.7,3.1c-0.7,2.4-1.9,4.8-2.4,7.3
		c-0.2,1.2-0.5,2.7,0,3.9c0.5,1.2,1.7,2.2,2.9,2.7c0.5,0.2,1.2,0,1.5-0.5s0.5-1,0-1.5c-0.5-0.7-1.2-0.5-1.7-1.2
		c-0.5-0.5-0.5-1.5-0.2-2.2c0.5-1.9,1.2-3.9,1.9-5.8c0.7-2.2,1.5-4.6,1.7-6.8v-0.2v-0.2v-0.2c0-0.7,0-1.7,0-2.4
		c-0.2-1.9-1-3.6-1.9-5.1c-1.2-1.7-2.9-3.1-4.8-4.1c-2.2-1-4.4-1.2-6.8-1c-2.2,0.2-4.1,1.5-5.6,3.1c-1.7,1.9-2.4,4.4-2.9,6.8
		c0,1-0.2,1.7-0.5,2.7v0.2c-0.2,0.2-0.5,0.5-0.5,0.7l-0.2,0.2c-0.5,0.7-1.2,1.5-1.9,1.9c-1.2,1-2.9,1.5-4.4,1.7
		c-0.5,0-1,0.2-1.2,0.7c-0.2,0.5,0,1.2,0.2,1.5c0.5,0.2,1,0.2,1.5,0.2C20.6,49.6,21.8,49.4,23,48.7z"/>
	<path d="M37.8,56.4c2.7-3.4,4.4-7.5,5.1-11.6l0,0c0-0.7,0.2-1.7,0.2-2.4c0-0.5,0-1.2,0-1.7c0-2.4-1.5-4.6-3.4-5.8
		c-1.5-1-3.1-1.2-4.6-0.7c-1.5,0.5-2.9,1.5-3.4,2.9c-0.7,1.7-0.5,3.4-0.7,5.1c0,1-0.2,1.7-0.5,2.7c-0.5,1.9-1.9,3.4-3.4,4.6
		c-1.7,1.5-3.9,2.2-6.1,2.4c-0.5,0-1,0-1.5,0.2s-1,1-0.7,1.5c0.2,0.5,0.7,1,1.2,1c1.7,0,3.4-0.5,5.1-1c1.9-0.7,3.6-1.9,5.1-3.4
		s2.7-3.6,3.1-5.8c0.2-1.5,0.2-2.9,0.5-4.4c0-0.7,0.2-1.7,0.5-2.4c0.5-0.7,1.2-1,1.7-1.2c1-0.2,1.9,0.2,2.7,1c1,0.7,1.5,1.9,1.5,3.1
		c0.2,2.2-0.2,4.4-0.7,6.5c-1,3.4-2.7,6.8-5.3,9.2c-1.5,1.5-3.4,2.7-5.3,3.4c-0.7,0.2-1.5,0.5-1.9,0.7c-1,0.5-1.7,1-2.2,1.9
		c-0.5,0.7-0.5,1.7-0.2,2.7c0,0.5,0.5,1,1,1c0.7,0.2,1.7,0,1.9-0.7c0.2-0.5-0.2-1-0.2-1.5c0-0.2,0.2-0.5,0.2-0.7
		c0.5-0.5,1.2-0.5,1.7-0.7C32.7,61.3,35.6,59.1,37.8,56.4z"/>
	<path d="M38.5,44.6c-0.2-0.2-0.5,0.2-0.5,0.2h0.2H38c0-0.2-0.2-0.5,0-0.5C38.2,44.3,38.2,44.3,38.5,44.6c0.2-1.7,0.5-3.1,0.5-4.6
		c0-0.5-0.5-1-1-1.2c-0.7-0.2-1.7,0.2-1.7,1c0,0.5,0,1.2,0,1.7c0,0.2,0,0.2,0,0.5h-0.2c0,0,0,0,0.2,0c0,0.2,0,0.7,0,1s0,0.2,0,0.5
		c-0.2,0.5-0.2,1-0.5,1.7c-0.5,1.7-1.2,3.4-1.9,4.8c-1.2,1.9-2.9,3.4-4.6,4.6c-1.9,1.2-4.1,1.9-6.3,2.2c-0.5,0-1,0.5-1.2,1
		c-0.2,0.7,0.5,1.5,1.2,1.5c0.5,0,1,0,1.5-0.2c3.1-0.7,6.1-1.9,8.5-3.9C35.6,52.8,37.8,48.7,38.5,44.6z"/>
	<path d="M57.6,41.4c-0.2-0.7-1-1.2-1.7-1c-0.7,0.2-1,1-1,1.7c0.5,3.6-0.2,7.3-1.9,10.7c-0.2,0.5-0.5,0.7-0.2,1.2s0.7,1,1.5,1
		c0.5,0,1-0.2,1.2-0.7c1.7-3.1,2.4-6.8,2.4-10.4C57.9,42.9,57.6,42.1,57.6,41.4z"/>
	<path d="M48.2,63.4c-1,0.2-2.2,0.2-3.1-0.2c-1.5-0.7-2.7-1.9-3.9-2.9c-0.5-0.5-1.2-1-2.2-1c-1.7,0.2-3.1,1-4.6,1.7
		c-1.9,1-3.6,2.2-5.1,3.6c-0.2,0.2-0.5,0.7-0.5,1c0,0.7,0.7,1.5,1.5,1.2c0.5,0,1-0.5,1.5-1c1.5-1.2,3.1-2.4,4.8-3.4
		c0.7-0.2,1.5-0.7,2.4-1c1.2,1,2.2,2.2,3.6,2.9c1.7,1.2,4.1,1.5,6.1,1c0.7-0.2,1-1,1-1.5C49.6,63.7,48.9,63.4,48.2,63.4z"/>
	<path d="M18.4,71.4c-2.9,0-5.6,0-8.5,0c-1.2,0-2.4-1.2-2.4-2.4c0-2.9,0-5.6,0-8.5c-1,0-1.9,0-2.9,0c0,2.7,0,5.3,0,8
		c0,1.5,0.2,2.7,1.2,3.9c1,1.5,2.7,2.2,4.4,2.2c2.9,0,5.6,0,8.5,0C18.4,73.6,18.4,72.7,18.4,71.4z"/>
	<path d="M66.6,60.5c0,2.7,0,5.6,0,8.2c0.2,1.5-1.2,2.9-2.7,2.9c-2.9,0-5.6,0-8.5,0c0,1,0,1.9,0,2.9c2.9,0,5.6,0,8.5,0
		c1.7,0,3.4-0.7,4.4-2.2c0.7-1,1.2-2.2,1.2-3.4c0-2.9,0-5.6,0-8.5C68.8,60.5,67.6,60.5,66.6,60.5z"/>
	<path d="M45,68c-1-0.7-1.9-1.5-2.9-1.9c-1.5-0.7-3.1-1-4.6-0.7c-2.4,0.5-4.4,2.2-5.6,4.1c-0.2,0.5-0.2,1.2,0,1.7
		c0.5,0.5,1.7,0.5,2.2,0c0.5-0.7,1.2-1.5,1.9-1.9c0.7-0.7,1.9-1.2,2.9-1c1.5,0,2.7,1,3.9,1.7c0.5,0.2,0.7,0.7,1.5,0.7
		c0.7,0,1.5-0.5,1.5-1.2C45.5,68.5,45.3,68.3,45,68z"/>
</g>
</svg>
