<?xml version="1.0" encoding="utf-8"?>
<!-- Generator: Adobe Illustrator 25.3.1, SVG Export Plug-In . SVG Version: 6.00 Build 0)  -->
<svg version="1.1" id="Layer_1" xmlns="http://www.w3.org/2000/svg" xmlns:xlink="http://www.w3.org/1999/xlink" x="0px" y="0px"
	 width="76px" height="81.7px" viewBox="0 0 76 81.7" style="enable-background:new 0 0 76 81.7;" xml:space="preserve">
<g>
	<path d="M9.5,9.1c0.2-2.4,2.5-4.3,4.8-4.3c7.1-0.1,14.3,0,21.4,0c0,0.8,0,1.7,0,2.5c-6.9,0-13.8,0-20.7,0c-1.3-0.1-2.8,0.5-3,1.9
		c-0.3,3.1,0,6.3-0.1,9.4c-0.8,0-1.7,0-2.5,0C9.5,15.4,9.3,12.3,9.5,9.1z"/>
	<circle cx="39.6" cy="6.1" r="1.8"/>
	<g>
		<path d="M14.5,11.7c-0.2-1.2,0.7-2.1,1.8-1.9c14.5,0,28.9,0,43.3,0c0.8,0.1,1.9-0.2,2.4,0.7c0.2,1.4,0.1,2.9,0.2,4.3
			c2.7,0.1,5.4-0.2,8.1,0.1c1,0.7,0.6,2,0.7,3.1c-0.1,3.7,0.2,7.5-0.2,11.2c-0.1,0.1-0.4,0.4-0.6,0.6c-2.7,0.3-5.4,0.1-8.1,0.1
			c0,0.8,0,1.7,0,2.5c2.7,0.1,5.4-0.2,8.1,0.1c1.1,0.8,0.6,2.4,0.7,3.6c-0.2,1.2,0.4,2.8-0.7,3.6c-2.7,0.3-5.4,0.1-8.1,0.1
			c0,0.8,0,1.7,0,2.5c2.7,0.1,5.4-0.2,8.1,0.1c0.1,0.1,0.4,0.4,0.6,0.5c0.3,2.9,0.3,5.8,0,8.7c-0.1,0.1-0.4,0.4-0.6,0.5
			c-2.7,0.3-5.4,0.1-8.1,0.1c0,0.8,0,1.7,0,2.5c2.7,0.1,5.4-0.2,8.1,0.1c0.1,0.1,0.4,0.4,0.6,0.5c0.3,4,0,7.9,0.1,11.9
			c-0.1,3.9,0.2,7.9-0.1,11.8c-0.5,0.9-1.5,0.6-2.4,0.7c-20.3,0-40.6,0-61,0c-1.1,0.2-2.1-0.6-1.9-1.8c-0.1-11.1,0-22.2,0-33.4
			c0.1-0.8-0.2-1.9,0.7-2.4c2.7-0.3,5.4-0.1,8.1-0.1C14.5,32.2,14.4,22,14.5,11.7z M17,12.3c0,10,0,20.1,0,30.1c9.6,0,19.2,0,28.9,0
			c0.8,0.1,1.9-0.2,2.4,0.7c0.3,3.1,0.1,6.2,0.1,9.4c-0.8,0-1.7,0-2.5,0c0-2.5,0-5,0-7.5c-12.6,0-25.1,0-37.7,0
			c0,10.9,0,21.8,0,32.7c6.7,0,13.4,0,20.1,0c0.1-7.1-0.1-14.3,0.1-21.4c-0.1-1.3,1.6-1.2,2.5-1.2c9.6,0,19.3,0,28.9,0
			c0-0.8,0-1.7,0-2.5c-2.3-0.1-4.8,0.4-6.9-0.5c-2.3-1.3-1.8-4.2-1.9-6.4c0.2-1-0.3-2.4,0.7-3c2.7-0.3,5.4-0.1,8.1-0.1
			c0-0.8,0-1.7,0-2.5c-5,0-10.1,0-15.1,0c-3.2,0.1-5.5-3-8.8-2.6c0-0.8,0-1.5,0-2.3c3.5,0.3,5.9-3.1,9.4-2.7c4.8,0,9.6,0,14.4,0
			c0-0.8,0-1.7,0-2.5c-4.4-0.1-8.7,0.2-13.1-0.1c-0.1-0.2-0.4-0.4-0.6-0.6c-0.2-4.5-0.2-9.1,0-13.7c0.1-0.1,0.4-0.4,0.6-0.6
			c4.4-0.3,8.8,0,13.1-0.1c0-0.8,0-1.7,0-2.5C45.4,12.3,31.2,12.3,17,12.3z M48.4,17.4c0,3.3,0,6.7,0,10c6.7,0,13.4,0,20.1,0
			c0-3.3,0-6.7,0-10C61.8,17.4,55.1,17.4,48.4,17.4z M41.5,36.4c2.8,1.9,6.3,0.9,9.4,1.1c0-0.8,0-1.7,0-2.5
			C47.8,35.3,43.8,33.8,41.5,36.4z M53.4,34.9c0,0.8,0,1.7,0,2.5c5,0,10,0,15.1,0c0-0.8,0-1.7,0-2.5C63.4,34.9,58.4,34.9,53.4,34.9z
			 M53.4,45c0,1.4-0.1,2.9,0.2,4.3c0.5,0.8,1.6,0.6,2.4,0.9c0-1.7,0-3.5,0-5.2C55.1,45,54.2,45,53.4,45z M58.4,45c0,1.7,0,3.3,0,5
			c3.3,0,6.7,0,10,0c0-1.7,0-3.3,0-5C65.1,45,61.8,45,58.4,45z M30.8,57.6c0.9,2.7,3.2,5,6.2,4.9c8.4,0.1,16.9,0.1,25.3,0
			c3,0.1,5.3-2.3,6.2-4.9C55.9,57.5,43.3,57.5,30.8,57.6z M30.8,62.5c0.1,5,0,10.1,0,15.1c12.6,0,25.1,0,37.7,0c0-5,0-10.1,0-15.1
			c-1.8,1.4-3.9,2.6-6.3,2.5c-8.4,0.1-16.8,0.1-25.2,0C34.7,65.1,32.6,63.9,30.8,62.5z"/>
	</g>
	<circle cx="20.7" cy="16.1" r="1.8"/>
	<ellipse cx="29.5" cy="16.1" rx="7.1" ry="1.8"/>
	<circle cx="52.1" cy="21.1" r="1.8"/>
	<ellipse cx="60.9" cy="21.1" rx="7.1" ry="1.8"/>
	<path d="M73.5,34.9c0.8,0,1.7,0,2.5,0c0,8.4,0,16.7,0,25.1c-0.8,0-1.7,0-2.5,0C73.5,51.7,73.5,43.3,73.5,34.9z"/>
	<circle cx="11.9" cy="48.8" r="1.8"/>
	<ellipse cx="20.7" cy="48.8" rx="7.1" ry="1.8"/>
	<ellipse cx="1.9" cy="66.3" rx="1.8" ry="14.2"/>
	<circle cx="34.5" cy="73.9" r="1.8"/>
	<ellipse cx="43.3" cy="73.9" rx="7.1" ry="1.8"/>
</g>
</svg>
