<?xml version="1.0" encoding="utf-8"?>
<!-- Generator: Adobe Illustrator 25.3.1, SVG Export Plug-In . SVG Version: 6.00 Build 0)  -->
<svg version="1.1" id="Capa_1" xmlns="http://www.w3.org/2000/svg" xmlns:xlink="http://www.w3.org/1999/xlink" x="0px" y="0px"
	 width="27.8px" height="28.5px" viewBox="0 0 27.8 28.5" style="enable-background:new 0 0 27.8 28.5;" xml:space="preserve">
<style type="text/css">
	.st0{fill:url(#SVGID_1_);}
	.st1{fill:url(#SVGID_2_);}
</style>
<g>
	<linearGradient id="SVGID_1_" gradientUnits="userSpaceOnUse" x1="23.101" y1="2.5324" x2="1.8352" y2="29.6197">
		<stop  offset="1.075300e-02" style="stop-color:#3542E0"/>
		<stop  offset="0.1748" style="stop-color:#3841DF"/>
		<stop  offset="0.2744" style="stop-color:#403FDA"/>
		<stop  offset="0.357" style="stop-color:#4E3CD2"/>
		<stop  offset="0.4301" style="stop-color:#6337C7"/>
		<stop  offset="0.4971" style="stop-color:#7D31B9"/>
		<stop  offset="0.5595" style="stop-color:#9E2AA8"/>
		<stop  offset="0.6173" style="stop-color:#C32193"/>
		<stop  offset="0.6236" style="stop-color:#C82091"/>
		<stop  offset="0.7612" style="stop-color:#F62B37"/>
		<stop  offset="1" style="stop-color:#FFC658"/>
	</linearGradient>
	<path class="st0" d="M12.9,18.9c-0.3-0.2-0.4-0.3-0.4-0.5c0-0.1,0-0.1,0-0.2c0,0,0.1-0.1,0.1-0.1c0.2,0,0.4,0.1,0.8,0.4
		c0,0,0-0.1,0-0.1c0.1-0.1,0.2-0.1,1.2,0.6c0.1,0.1,0.2,0.1,0.3,0.2c0.4,0.2,0.7,0.4,0.9,0.6c0.3,0.2,0.5,0.3,0.6,0.3
		c-0.1-0.2-1.1-0.8-1.6-1.1c-0.7-0.4-0.8-0.5-0.8-0.6c0,0,0-0.1,0-0.1c0.1-0.2,0.5-0.1,1.1,0.3c-0.3-0.2-0.3-0.2-0.3-0.3
		c0,0,0-0.1,0-0.1c0.1-0.1,0.2-0.1,0.6,0.1c0,0-0.1-0.1-0.1-0.1c0,0,0-0.1,0-0.1c0.1-0.1,0.1-0.1,0.9,0.4c0.4,0.3,1.2,0.7,1.4,0.8
		c-0.2-0.2-1-0.7-1.4-0.9c-0.6-0.3-0.6-0.4-0.6-0.4c0,0,0-0.1,0-0.1c0.1-0.1,0.3-0.1,1.1,0.3c-0.5-0.3-0.6-0.4-0.7-0.5
		c0,0,0-0.1,0-0.1c0.1-0.1,0.3-0.1,1.2,0.5c0,0,0,0,0,0c-0.6-0.3-0.8-0.5-0.9-0.7c0,0,0-0.1,0-0.1c0.1-0.1,0.2-0.1,0.9,0.4
		c0.2,0.1,0.4,0.2,0.7,0.4C18.2,18,18.1,18,18,17.9c-0.8-0.5-1-0.7-1-0.8c0,0,0-0.1,0-0.1c0.1-0.1,0.3,0,1,0.4
		c0.3,0.2,1,0.5,1.2,0.6c-0.1-0.2-0.8-0.6-1.2-0.8c-0.5-0.3-0.6-0.4-0.6-0.5c0,0,0-0.1,0-0.1c0.1-0.1,0.2-0.1,0.5,0.1
		c-0.3-0.2-0.4-0.3-0.4-0.4c0,0,0-0.1,0-0.1c0.1-0.1,0.2-0.1,1.1,0.4c0.3,0.1,0.7,0.4,0.9,0.5c-0.2-0.2-0.6-0.4-0.9-0.5
		c-0.6-0.4-0.9-0.5-0.9-0.6c0,0,0-0.1,0-0.1c0-0.1,0.1-0.1,0.2-0.1c0,0-0.1-0.1-0.1-0.1c0,0,0-0.1,0-0.1c0.1-0.1,0.2-0.1,0.8,0.2
		c0.3,0.1,0.8,0.4,1.1,0.5c-0.1-0.1-0.3-0.2-0.4-0.3c-0.9-0.5-1.3-0.8-1.4-1c0-0.1,0-0.1,0-0.1c0-0.1,0.1-0.1,0.3,0
		c-0.2-0.1-0.2-0.2-0.2-0.3c0,0,0-0.1,0-0.1c0.1-0.2,0.5,0,1.2,0.4c0.3,0.2,0.7,0.4,0.9,0.5c-0.2-0.2-0.7-0.4-1.1-0.6
		c-0.8-0.4-1.1-0.6-1.2-0.8c0-0.1,0-0.1,0-0.1c0.1-0.1,0.3,0,1.1,0.5c0.4,0.2,0.9,0.6,1.2,0.7c-0.2-0.3-1.2-0.8-1.6-1.1
		c-0.6-0.4-0.7-0.4-0.7-0.5c0,0,0-0.1,0-0.1c0.2-0.2,0.6,0,1.4,0.5c0.2,0.1,0.5,0.3,0.8,0.4c-0.2-0.2-0.6-0.4-0.8-0.5
		c-1.2-0.8-1.7-1.1-1.7-1.3c0,0,0-0.1,0-0.1c0,0,0,0,0.1-0.1c-0.5-0.3-0.8-0.6-0.8-0.8c0-0.1,0-0.1,0-0.2c0-0.1,0.1-0.1,0.2,0
		c0.1,0,0.1,0.1,0,0.2c0,0,0,0,0,0c0.1,0.3,1.3,1,2.1,1.4c1,0.6,1.4,0.8,1.4,0.9c0,0,0,0.1,0,0.1c-0.1,0.2-0.4,0-1.2-0.6
		c-0.4-0.3-1.1-0.8-1.4-0.9c0.2,0.2,1,0.7,1.5,1c1,0.6,1.2,0.7,1.2,0.9c0,0,0,0.1,0,0.1c-0.1,0.2-0.4,0.1-0.9-0.2
		c0.6,0.4,0.9,0.6,0.9,0.8c0,0.1,0,0.1,0,0.2c0,0-0.1,0.1-0.1,0.1c0.1,0.1,0.1,0.1,0.1,0.2c0,0.1,0,0.1,0,0.2
		c-0.1,0.2-0.5,0-1.3-0.4c-0.2-0.1-0.6-0.3-0.8-0.4c0.2,0.2,0.7,0.5,1,0.7c0.8,0.5,0.9,0.6,0.9,0.7c0,0,0,0.1,0,0.1
		c-0.1,0.1-0.1,0.1-1-0.4c-0.3-0.1-0.6-0.3-0.9-0.5c0.3,0.2,0.7,0.5,1,0.6c0.6,0.4,0.8,0.5,0.8,0.6c0,0,0,0.1,0,0.1
		c-0.1,0.2-0.4,0.1-1.1-0.2c0.6,0.3,0.9,0.5,0.9,0.7c0,0.1,0,0.1,0,0.1c0,0.1-0.1,0.1-0.2,0.1c0,0,0.1,0.1,0.1,0.1c0,0,0,0.1,0,0.1
		c-0.1,0.2-0.4,0-1.4-0.5c0,0-0.1,0-0.1-0.1c0.2,0.1,0.3,0.2,0.5,0.3c0.7,0.5,0.8,0.5,0.8,0.6c0,0,0,0.1,0,0.1c0,0.1-0.1,0.1-0.2,0
		c0,0,0.1,0.1,0.1,0.1c0,0.1,0,0.1,0,0.2c-0.1,0.2-0.5,0-1.4-0.4c0,0,0,0,0.1,0c0.8,0.5,0.9,0.6,1,0.7c0,0,0,0.1,0,0.1
		c-0.1,0.1-0.2,0.1-0.5,0c0.1,0.1,0.2,0.2,0.2,0.3c0,0,0,0.1,0,0.1c-0.1,0.1-0.3,0.1-0.9-0.3c0.4,0.3,0.6,0.4,0.6,0.5
		c0,0,0,0.1,0,0.1c-0.1,0.1-0.1,0.1-0.7-0.2c0.2,0.1,0.3,0.3,0.3,0.4c0,0.1,0,0.1,0,0.2c-0.1,0.1-0.2,0.1-0.4,0c0,0,0.1,0.1,0.1,0.1
		c0,0,0,0.1,0,0.1c-0.1,0.1-0.3,0.1-1.2-0.5c-0.2-0.1-0.5-0.3-0.7-0.4c0.1,0,0.1,0.1,0.1,0.1c1,0.6,1.3,0.9,1.3,1c0,0,0,0.1,0,0.1
		c-0.1,0.1-0.3,0-1.1-0.5c-0.4-0.3-1.3-0.8-1.7-0.9c0.1,0.1,0.3,0.2,0.5,0.3c1,0.5,1.6,0.9,1.7,1.2c0,0.1,0,0.1,0,0.2
		c-0.1,0.1-0.1,0.1-0.3,0c0,0.1,0,0.1,0,0.2c0,0-0.1,0.1-0.1,0.1c-0.1,0-0.2,0-0.4-0.1c0,0,0,0.1,0,0.1c0,0,0,0.1,0,0.1
		c-0.1,0.1-0.2,0-0.2-0.1c-0.1-0.1-0.8-0.5-1.3-0.8C13.7,19.4,13.2,19.1,12.9,18.9z M12.7,18.4c0.1,0.2,1.1,0.8,1.7,1.2
		c0.1,0.1,0.2,0.1,0.3,0.2c-0.1-0.1-0.2-0.1-0.3-0.2C13.9,19.1,12.9,18.4,12.7,18.4z M14.2,19.1c0.1,0.1,0.2,0.2,0.3,0.2
		c0.6,0.4,1.3,1,1.5,1c0-0.1-0.1-0.2-0.3-0.3c-0.2-0.1-0.6-0.3-1-0.6C14.6,19.3,14.4,19.2,14.2,19.1C14.3,19.1,14.3,19.1,14.2,19.1z
		 M8.6,18.3c-0.1-0.1-0.2-0.1-0.2-0.2c0,0,0-0.1,0-0.1c0.1-0.2,0.5,0,1.8,0.8c-0.1-0.1-0.2-0.1-0.3-0.2c-1.8-1.2-2.1-1.4-2.1-1.5
		c0,0,0-0.1,0-0.1c0.1-0.1,0.1-0.1,0.2-0.1c-0.4-0.2-0.5-0.3-0.5-0.4c0,0,0-0.1,0-0.1c0,0,0.1-0.1,0.1-0.1c0.1,0,0.2,0,0.4,0.1
		c-0.5-0.4-0.8-0.6-0.8-0.8c0,0,0-0.1,0-0.1c0.1-0.2,0.3-0.1,0.7,0c-0.5-0.3-0.8-0.5-0.8-0.7c0-0.1,0-0.1,0-0.2
		c0.1-0.2,0.3,0,1.1,0.5C8.8,15.4,9.6,16,9.9,16c-0.2-0.2-0.7-0.5-1.1-0.7c-1-0.6-1.5-0.9-1.6-1.1c0-0.1,0-0.1,0-0.1
		c0.2-0.2,0.5,0,1.3,0.5c0.3,0.2,0.7,0.5,1,0.6c-0.3-0.2-0.8-0.5-1.1-0.8c-1-0.7-1.1-0.7-1.1-0.8c0,0,0-0.1,0-0.1
		c0.1-0.2,0.3,0,1.1,0.4c0.3,0.2,0.8,0.5,1.1,0.6c-0.2-0.1-0.6-0.4-0.9-0.5c-0.8-0.5-1.2-0.7-1.2-0.9c0,0,0-0.1,0-0.1
		c0,0,0.1-0.1,0.1-0.1c0,0,0-0.1,0-0.1c0-0.1,0-0.1,0-0.2c0.1-0.2,0.6,0,1.5,0.5c-0.3-0.2-0.6-0.4-0.8-0.5c-0.6-0.3-0.6-0.4-0.6-0.5
		c0,0,0-0.1,0-0.1C7.6,12,7.7,12,8.3,12.3c0.3,0.2,0.9,0.5,1.3,0.6c-0.2-0.1-0.5-0.3-0.7-0.4c-0.7-0.4-1.1-0.6-1.1-0.8
		c0,0,0-0.1,0-0.1c0.1-0.1,0.2-0.1,1.1,0.4c0.2,0.1,0.6,0.3,0.8,0.4c-0.2-0.2-0.6-0.4-0.8-0.5c-0.6-0.3-0.9-0.5-0.9-0.6
		c0,0,0-0.1,0-0.1c0.1-0.2,0.5,0,1.6,0.5c0,0,0,0,0,0c-0.2-0.1-0.3-0.2-0.5-0.3c-0.7-0.5-0.8-0.5-0.8-0.6c0,0,0-0.1,0-0.1
		c0.1-0.1,0.1-0.1,0.4,0.1c-0.1-0.1-0.2-0.2-0.2-0.2c0-0.1,0-0.1,0-0.2c0.1-0.2,0.3,0,1.1,0.4c0.3,0.2,0.9,0.5,1.1,0.5
		c-0.2-0.2-0.8-0.5-1.1-0.7C9,10,8.9,10,8.9,9.9c0,0,0-0.1,0-0.1C9,9.7,9,9.7,9.2,9.8C9.1,9.7,9.1,9.7,9.1,9.6c0,0,0-0.1,0-0.1
		c0.1-0.1,0.2-0.1,0.4,0c0,0-0.1-0.1-0.1-0.1c0,0,0-0.1,0-0.1c0.1-0.1,0.2-0.1,1.1,0.4c0.3,0.1,0.6,0.3,0.9,0.5
		c-0.1-0.1-0.3-0.2-0.4-0.3c-1-0.6-1.1-0.8-1.2-0.9c0,0,0-0.1,0-0.1c0.1-0.2,0.5,0,1.4,0.6c0.3,0.2,0.7,0.4,1,0.6
		c-0.2-0.2-0.6-0.4-0.8-0.5c-0.8-0.5-1.1-0.7-1.1-0.8c0,0,0-0.1,0-0.1c0.1-0.1,0.2-0.1,0.5,0.1c0,0-0.1-0.1-0.1-0.1
		c0-0.1,0-0.1,0-0.2c0.1-0.2,0.3,0,1.4,0.6c0.5,0.3,1.3,0.8,1.7,0.9c-0.2-0.2-0.6-0.4-1-0.6c-1-0.6-1.4-0.9-1.5-1.1c0,0,0-0.1,0-0.1
		c0.1-0.1,0.3-0.1,0.8,0.2c-0.1-0.1-0.1-0.2-0.1-0.2c0-0.1,0-0.1,0-0.2c0,0,0.1-0.1,0.1-0.1c0.1,0,0.3,0.1,0.6,0.3
		c-0.1-0.1-0.1-0.1-0.1-0.2c0-0.1,0-0.1,0-0.2c0.1-0.1,0.1-0.1,0.2-0.1c0.1,0,0.2,0,0.3,0c0,0,0.1,0,0.1-0.1c0.2,0,0.5,0.1,0.8,0.3
		c0,0,0,0,0,0c0,0,0-0.1,0-0.1c0,0,0.1-0.1,0.1-0.1c0.2,0,0.6,0.3,1.7,1.1c1.1,0.8,2.6,1.9,3.1,1.9c0,0,0,0,0,0
		c-0.1-0.2-1-0.7-1.7-1.1c-1.2-0.7-1.9-1.1-2-1.4c0-0.1,0-0.1,0-0.2c0,0,0.1-0.1,0.1-0.1C16,7.7,16.4,8,17,8.5c0,0,0,0,0,0
		c0-0.1,0.2-0.1,0.2,0c0.1,0,0.2,0.2,0.4,0.2c0.6,0.4,0.8,0.5,0.8,0.6c0,0,0,0.1,0,0.1c0,0-0.1,0.1-0.1,0.1c0,0-0.1,0-0.1,0
		c0.9,0.5,1.2,0.8,1.3,1c0,0.1,0,0.1,0,0.1c0,0-0.1,0.1-0.2,0.1c0,0-0.1,0-0.1,0c0.6,0.4,0.9,0.7,0.9,0.9c0,0.1,0,0.1,0,0.2
		c0,0-0.1,0.1-0.1,0.1c-0.3,0-1.2-0.6-2.8-1.8c-1.2-0.9-2.6-2-3.3-2.3c0.6,0.4,1.6,1.1,2.7,2.1c0.2,0.2,0.5,0.3,0.7,0.4
		c2.2,1.3,3.1,2,3.2,2.3c0,0,0,0.1,0,0.1c0,0,0,0,0,0c0.1,0.1,0.2,0.2,0.2,0.3c0,0.1,0,0.1,0,0.2c-0.1,0.1-0.2,0.2-0.3,0.2
		c-0.8,0.1-2.9-1.5-4.8-3.1c-0.2-0.1-0.6-0.3-1.6-0.9c-0.6-0.4-1.6-1-2-1.2C12.1,8.5,12.6,8.8,13,9c0.9,0.6,1.2,0.8,1.2,0.9
		c0,0,0,0.1,0,0.1c-0.1,0.2-0.4,0.1-1.1-0.3c0.1,0.1,0.1,0.1,0.1,0.2c0,0,0,0.1,0,0.1c-0.1,0.1-0.2,0.1-0.9-0.3
		c0.2,0.2,0.3,0.3,0.4,0.3c0,0,0,0.1,0,0.1c-0.1,0.2-0.5,0-1.5-0.6c-0.2-0.1-0.4-0.2-0.5-0.3c0.2,0.1,0.4,0.2,0.5,0.3
		c0.9,0.6,0.9,0.6,1,0.7c0,0,0,0.1,0,0.1c-0.1,0.1-0.3,0.1-1-0.3c0.3,0.2,0.4,0.3,0.5,0.4c0,0.1,0,0.1,0,0.2c-0.2,0.2-0.5,0-1.2-0.5
		c-0.2-0.1-0.5-0.3-0.7-0.5c0.2,0.2,0.6,0.4,0.8,0.5c0.8,0.5,0.8,0.5,0.8,0.6c0,0,0,0.1,0,0.1c-0.1,0.1-0.1,0.1-0.2,0.1c0,0,0,0,0,0
		c0,0,0,0.1,0,0.1c-0.2,0.2-0.6,0-1.5-0.5c-0.2-0.1-0.5-0.3-0.7-0.3C9,10.7,9.6,11,10,11.2c0.5,0.3,0.6,0.4,0.6,0.4c0,0,0,0.1,0,0.1
		c-0.1,0.1-0.2,0.1-0.4,0c0.1,0.1,0.2,0.1,0.2,0.2c0,0,0,0.1,0,0.1c-0.1,0.1-0.2,0.1-0.9-0.3c-0.3-0.2-0.9-0.4-1.2-0.5
		c0.2,0.1,0.4,0.3,0.7,0.4c0.7,0.4,1.1,0.6,1.1,0.8c0,0.1,0,0.1,0,0.1c-0.1,0.1-0.3,0.1-1.3-0.5c-0.1,0-0.1-0.1-0.2-0.1
		c0.1,0.1,0.3,0.2,0.4,0.2c0.7,0.4,0.9,0.5,0.9,0.7c0,0,0,0.1,0,0.1c-0.1,0.1-0.3,0.1-0.7-0.1c0.4,0.2,0.5,0.4,0.6,0.5
		c0,0,0,0.1,0,0.1c-0.1,0.1-0.1,0.1-0.7-0.3c-0.4-0.2-1.2-0.7-1.4-0.7c0.1,0.2,0.8,0.6,1.2,0.8c0.6,0.4,0.9,0.5,0.9,0.6
		c0,0,0,0.1,0,0.1c0,0-0.1,0.1-0.1,0.1c0.1,0.1,0.2,0.2,0.2,0.2c0,0,0,0.1,0,0.1c-0.1,0.2-0.4,0.1-1-0.3c0.9,0.6,1.2,0.8,1.2,0.9
		c0,0,0,0.1,0,0.1c-0.2,0.3-0.7-0.1-1.5-0.6c-0.3-0.2-0.7-0.5-0.9-0.6c0.2,0.2,0.9,0.6,1.4,0.9c0.9,0.5,1.2,0.7,1.3,0.9
		c0,0,0,0.1,0,0.1c-0.1,0.1-0.1,0.1-0.3,0.1c0.7,0.4,1,0.7,1.1,0.9c0,0.1,0,0.1,0,0.2c-0.1,0.1-0.2,0.1-1-0.4
		c-0.5-0.3-2.1-1.4-2.4-1.2c0.2,0.3,2.1,1.5,3.6,2.5c2.5,1.6,3.6,2.3,3.6,2.6c0,0,0,0.1,0,0.1C14.7,21,14.6,21,14.4,21
		c-0.2,0-0.3,0-0.6-0.1c0,0.1-0.1,0.1-0.2,0.1c-0.1,0-0.3,0-0.5-0.2C13.1,21,13,21,12,20.2c0,0.1,0.1,0.1,0.1,0.2c0,0.1,0,0.1,0,0.2
		c0,0.1-0.1,0.1-0.2,0c-0.1,0-0.1-0.1,0-0.2c0.1-0.3-1.6-1.2-2.3-1.6C9,18.6,8.7,18.4,8.6,18.3z M8.1,17.1c0.2,0.2,1.2,0.8,2,1.4
		c0.2,0.2,0.4,0.3,0.6,0.4C9.7,18,8.6,17,8.1,17.1C8.1,17,8.1,17.1,8.1,17.1z M12.7,20.2c0.1,0.1,0.2,0.1,0.2,0.2
		c0.3,0.2,0.5,0.3,0.6,0.4C13.3,20.7,13,20.5,12.7,20.2z M10.6,18.3c1.1,0.9,2.2,1.8,3,2.3C13.4,20,12,19.1,10.6,18.3z M13.2,19.7
		c0.4,0.3,0.7,0.6,0.7,0.9c0,0,0,0.1,0,0.1c0.2,0.1,0.3,0.1,0.5,0.1c0,0,0.1,0,0.1,0C14.4,20.6,13.9,20.2,13.2,19.7z M9,17
		c0.2,0.1,0.4,0.3,0.6,0.5c0.4,0.2,0.7,0.4,1.1,0.6C10,17.6,9.4,17.3,9,17z M7.5,14.9c0.1,0.1,0.4,0.2,0.6,0.4
		C7.9,15.1,7.7,15,7.5,14.9z M10.4,16.9c-0.2-0.2-0.5-0.3-0.8-0.5c0.1,0.1,0.3,0.2,0.4,0.3c0.2,0.1,0.4,0.3,0.5,0.3
		C10.5,17,10.5,16.9,10.4,16.9z M7.6,13.1c0.2,0.2,0.7,0.4,1,0.7C8.3,13.5,7.8,13.2,7.6,13.1z M11.2,10.5c-0.2-0.1-0.5-0.3-0.8-0.4
		C10.8,10.3,11.1,10.5,11.2,10.5C11.3,10.6,11.3,10.6,11.2,10.5z M11.1,8.5c0.2,0.2,0.8,0.5,1.2,0.7c0,0,0.1,0,0.1,0.1
		c-0.1-0.1-0.2-0.1-0.3-0.2C11.7,8.9,11.3,8.6,11.1,8.5z M12.3,8c0.1,0.2,0.9,0.7,1.6,1.1C13.2,8.5,12.6,8,12.3,8z M15.6,10.3
		c1.7,1.4,3.8,3,4.5,3c0.1,0,0.1,0,0.2-0.1c0-0.1-0.1-0.1-0.2-0.2c-0.4,0-1.3-0.6-2.5-1.7c-0.3-0.2-0.7-0.4-1-0.6
		c-1-0.6-1.8-1.1-2.5-1.5c0.2,0.2,0.5,0.4,0.8,0.6c0.1,0.1,0.2,0.1,0.3,0.2C15.6,10.1,15.6,10.2,15.6,10.3
		C15.6,10.2,15.6,10.3,15.6,10.3z M13.3,7.8c-0.1,0-0.1,0-0.2,0c-0.1,0-0.1,0-0.1,0c0,0.3,2,1.5,3.6,2.5c-0.1-0.1-0.1-0.1-0.2-0.2
		C14.5,8.9,13.3,8.2,13.3,7.8C13.3,7.8,13.3,7.8,13.3,7.8z M17.6,10.9c0,0,0.1,0.1,0.1,0.1c1.1,0.7,1.9,1.2,2.4,1.6
		C19.8,12.3,18.7,11.6,17.6,10.9z M13.6,7.9c0.2,0.2,0.8,0.7,1.5,1.1C14.5,8.6,14,8.1,13.6,7.9z M16.6,9.3c0.2,0.2,0.5,0.4,0.7,0.5
		c1,0.8,2.3,1.8,2.6,1.8C19.8,11.3,17.8,10.1,16.6,9.3C16.6,9.4,16.6,9.3,16.6,9.3z M15.8,8c0.1,0.2,1,0.8,1.7,1.1
		c-0.1-0.1-0.3-0.2-0.5-0.3C16.7,8.5,16,8,15.8,8z M17.2,8.6L17.2,8.6L17.2,8.6z M19.6,8.5C19.5,8.4,19.5,8.4,19.6,8.5
		c-0.1-0.1-0.1-0.2-0.1-0.2c0.1-0.1,0.3-0.1,0.9,0.2c0.1,0.1,0.3,0.1,0.4,0.2c-0.2-0.1-0.5-0.3-0.8-0.4c-0.7-0.4-0.9-0.5-1-0.7
		c0,0,0-0.1,0-0.1c0.1-0.1,0.3,0,0.9,0.4c0.4,0.2,1,0.7,1.2,0.8c-0.2-0.2-0.8-0.5-1.1-0.7c-0.8-0.5-1-0.6-1-0.7c0,0,0-0.1,0-0.1
		c0.2-0.3,0.7,0.1,1.6,0.7c0.3,0.2,0.7,0.5,0.9,0.6c-0.3-0.3-1.2-0.8-1.6-1.1c-0.7-0.4-0.7-0.5-0.8-0.5c0,0,0-0.1,0-0.1
		c0.1-0.1,0.1-0.1,1.4,0.6c0.1,0.1,0.3,0.1,0.4,0.2c0,0-0.1,0-0.1-0.1c-1-0.7-1.4-0.9-1.4-1.1c0,0,0-0.1,0-0.1
		c0.1-0.2,0.4,0,1.3,0.5c0.4,0.2,1,0.6,1.3,0.7c-0.1-0.1-0.6-0.4-1-0.6c-0.7-0.3-1-0.5-1.1-0.7c0-0.1,0-0.1,0-0.2
		c0.1-0.1,0.1-0.1,1,0.2c0.1,0,0.1,0,0.2,0.1C21.3,6.1,21.3,6,21.2,6c0,0,0-0.1,0-0.1c0-0.1,0.2-0.1,0.2,0c0,0,0.1,0.1,0.2,0.1
		c0.3,0.2,0.4,0.3,0.4,0.3c0,0,0,0.1,0,0.1c-0.1,0.1-0.1,0.1-0.9-0.2c-0.2-0.1-0.4-0.1-0.6-0.2c0.2,0.1,0.6,0.3,0.8,0.5
		c0.7,0.3,1.1,0.6,1.1,0.8c0,0.1,0,0.1,0,0.2c-0.2,0.2-0.6,0-1.6-0.6c-0.2-0.1-0.4-0.2-0.6-0.3c0.3,0.2,0.7,0.4,0.9,0.6
		c0.9,0.6,1.1,0.7,1.1,0.8c0,0,0,0.1,0,0.1c-0.1,0.1-0.1,0.1-0.9-0.3C21.8,8,22,8.2,22,8.4c0,0.1,0,0.1,0,0.1
		c-0.1,0.1-0.2,0.1-0.4,0c0.1,0.1,0.1,0.1,0.1,0.2c0,0,0,0.1,0,0.1c-0.1,0.1-0.2,0.1-0.4,0c0,0,0,0.1,0,0.1C21.1,9,21,9,20.4,8.7
		c0,0-0.1,0-0.1,0c0,0,0,0,0,0.1c0,0,0,0.1,0,0.1c-0.1,0.1-0.2,0-0.2,0c-0.1-0.1-0.2-0.2-0.3-0.2C19.7,8.5,19.6,8.5,19.6,8.5z
		 M20.3,7.7c-0.3-0.2-0.5-0.4-0.7-0.4C19.8,7.3,20.1,7.5,20.3,7.7z M21.4,6L21.4,6L21.4,6z M6.2,24.6c-0.3-0.2-0.4-0.3-0.4-0.4
		c0,0,0-0.1,0-0.1c0,0,0.1-0.1,0.1-0.1c0.1,0,0.4,0.1,1,0.6c0,0,0,0,0,0c0,0,0-0.1,0-0.1c0.1-0.2,0.6-0.1,1.3,0.4c0,0,0-0.1,0-0.1
		c0,0,0-0.1,0-0.1c0.1-0.1,0.4-0.1,1.2,0.4c0-0.1-0.1-0.1-0.1-0.1c0-0.1,0-0.1,0-0.2c0.1-0.2,0.5-0.1,1,0.2c0,0,0,0,0,0
		c0,0,0-0.1,0-0.1c0-0.1,0.1-0.1,0.2-0.1c0.3,0,0.9,0.4,1.9,1.2c0.8,0.6,1.7,1.3,2,1.3c0,0,0,0,0,0c-0.5-0.3-1.2-0.8-2-1.4
		c-0.2-0.1-0.3-0.2-0.5-0.3c-0.6-0.4-0.7-0.4-0.7-0.5c0,0,0-0.1,0-0.1c0,0,0.1,0,0.1-0.1c0.1,0,0.2,0,0.5,0.3c0,0,0,0,0-0.1
		c0-0.1,0-0.1,0-0.1c0.1-0.1,0.3-0.1,0.6,0.1c0,0,0-0.1,0-0.1c0.1-0.1,0.3-0.1,0.7,0.2c0,0,0,0,0,0c0,0,0-0.1,0-0.1
		c0-0.1,0.1-0.1,0.2-0.1c0.1,0,0.3,0,0.6,0.2c0,0,0,0,0-0.1c0,0,0.1-0.1,0.1-0.1c0.1,0,0.2,0,0.4,0.1c0,0,0-0.1,0-0.1
		c0-0.1,0.1-0.1,0.2-0.1c0.2,0,0.4,0.1,0.7,0.2c0,0,0,0,0,0c0,0,0-0.1,0-0.1c0,0,0.1-0.1,0.1-0.1c0.1,0,0.3,0,0.5,0.1c0,0,0,0,0-0.1
		c0.1-0.1,0.3-0.1,0.6,0.1c0,0,0-0.1,0-0.1c0,0,0.1-0.1,0.1-0.1c0.1,0,0.2,0,0.4,0.1c0,0,0-0.1,0-0.1c0.2-0.2,0.7,0.1,2,0.9
		c0.5,0.3,1.1,0.7,1.5,0.9c-0.3-0.2-0.7-0.5-1.1-0.7c-1.2-0.8-1.4-1-1.5-1.1c0,0,0-0.1,0-0.1c0,0,0.1,0,0.1,0c0.1,0,0.1,0,0.5,0.3
		c0,0,0-0.1,0-0.1c0-0.1,0-0.1,0-0.2c0.1-0.1,0.2-0.1,0.7,0.2c0,0,0-0.1-0.1-0.1c0-0.1,0-0.1,0-0.1c0.1-0.1,0.2-0.1,1.3,0.5
		c0.6,0.4,1.7,1,1.9,1c-0.1-0.2-1.1-0.8-1.5-1c-0.6-0.4-0.8-0.4-0.8-0.5c0,0,0-0.1,0-0.1c0.1-0.2,0.4-0.1,0.8,0.1
		c-0.1-0.1-0.1-0.1-0.1-0.2c0,0,0-0.1,0-0.1c0.2-0.2,0.6,0,1.5,0.7c0.3,0.2,0.7,0.5,0.9,0.6c0,0-0.1-0.1-0.1-0.1
		c-0.2-0.1-0.5-0.3-0.8-0.5c-0.2-0.1-0.4-0.3-0.6-0.3c-0.5-0.3-0.5-0.3-0.6-0.4c0,0,0-0.1,0-0.1c0.1-0.1,0.2-0.1,0.4,0
		c0,0,0,0,0-0.1c0,0,0-0.1,0-0.1c0.1-0.2,0.4,0,1.6,0.5c0.2,0.1,0.3,0.2,0.5,0.2c-0.2-0.1-0.4-0.2-0.5-0.3c-0.7-0.4-1-0.6-1-0.7
		c0,0,0-0.1,0-0.1c0.1-0.1,0.3-0.1,1.5,0.5c0.2,0.1,0.5,0.2,0.6,0.3c-0.3-0.2-0.8-0.5-1.1-0.7C23,23.4,23,23.4,23,23.3
		c0,0,0-0.1,0-0.1c0.1-0.2,0.5,0,1.3,0.5c0.3,0.1,0.6,0.3,0.8,0.4c-0.2-0.2-0.7-0.5-1-0.6c-0.6-0.3-0.8-0.4-0.8-0.5c0,0,0-0.1,0-0.1
		c0.1-0.1,0.1-0.1,0.3,0c-0.1-0.1-0.1-0.1-0.2-0.2c0,0,0-0.1,0-0.1c0.2-0.2,0.5,0,1.2,0.4c0.2,0.1,0.6,0.4,0.8,0.4
		c-0.2-0.2-0.6-0.4-0.9-0.6c-0.7-0.4-0.9-0.5-0.9-0.6c0,0,0-0.1,0-0.1c0-0.1,0.1-0.1,0.2-0.1c0,0-0.1-0.1-0.1-0.1c0,0,0-0.1,0-0.1
		c0.1-0.1,0.1-0.1,1,0.3c0.3,0.1,0.8,0.3,1,0.4c-0.2-0.2-0.8-0.5-1.1-0.7c-0.7-0.4-0.8-0.5-0.8-0.6c0,0,0-0.1,0-0.1
		c0-0.1,0.1-0.1,0.2-0.1c-0.1-0.1-0.1-0.1-0.1-0.2c0,0,0-0.1,0-0.1c0.1-0.1,0.2-0.1,0.9,0.3c0.4,0.2,1.1,0.6,1.3,0.6
		c-0.1-0.2-0.7-0.5-1.1-0.7c-0.7-0.4-1-0.6-1-0.7c0,0,0-0.1,0-0.1c0.1-0.1,0.2-0.1,0.9,0.3c0.3,0.2,1,0.5,1.2,0.6
		c-0.2-0.1-0.6-0.4-0.9-0.6c-0.8-0.5-1.1-0.7-1.2-0.8c0,0,0-0.1,0-0.1c0.1-0.1,0.1-0.1,0.7,0.3c0.3,0.2,1.1,0.7,1.4,0.7
		c-0.2-0.1-0.6-0.4-0.9-0.5c-0.8-0.5-1.2-0.7-1.3-0.9c0,0,0-0.1,0-0.1c0.1-0.1,0.3,0,1.1,0.4c0.2,0.1,0.5,0.3,0.7,0.4
		c-0.1-0.1-0.3-0.2-0.4-0.2c-0.9-0.5-1.4-0.8-1.4-1.1c0-0.1,0-0.1,0-0.1c0.1-0.2,0.5,0,1.5,0.5c0.2,0.1,0.5,0.3,0.7,0.4
		c-0.3-0.2-0.9-0.6-1.2-0.8c-0.7-0.4-0.9-0.5-0.9-0.7c0,0,0-0.1,0-0.1c0.1-0.1,0.1-0.1,0.2-0.1c-0.2-0.1-0.2-0.2-0.3-0.3
		c0,0,0-0.1,0-0.1c0,0,0.1-0.1,0.1-0.1c-0.1-0.1-0.1-0.1-0.1-0.2c0,0,0-0.1,0-0.1c0,0,0-0.1,0.1-0.1c-0.1-0.1-0.1-0.1-0.1-0.2
		c0-0.1,0-0.1,0-0.2c0-0.1,0.1-0.1,0.2-0.1c-0.1-0.1-0.2-0.2-0.2-0.2c0,0,0-0.1,0-0.1c0.2-0.2,0.6,0,1.4,0.5
		c0.3,0.2,0.7,0.4,0.9,0.5c-0.1-0.2-0.9-0.6-1.3-0.8c-0.7-0.4-1-0.6-1-0.7c0,0,0-0.1,0-0.1c0.1-0.1,0.1-0.1,0.5,0.1
		c-0.4-0.3-0.5-0.4-0.5-0.5c0,0,0-0.1,0-0.1c0.1-0.1,0.1-0.1,0.7,0.3c0.4,0.2,1.1,0.7,1.5,0.8c-0.2-0.2-0.7-0.5-1-0.7
		c-0.8-0.5-1.2-0.7-1.2-0.9c0,0,0-0.1,0-0.1c0.1-0.2,0.4,0,1.4,0.5c0.2,0.1,0.5,0.3,0.7,0.4c-0.3-0.2-0.9-0.6-1.2-0.8
		c-0.8-0.5-0.8-0.5-0.9-0.6c0,0,0-0.1,0-0.1c0.1-0.1,0.1-0.1,0.3-0.1c-0.2-0.2-0.3-0.3-0.3-0.3c0,0,0-0.1,0-0.1
		c0.1-0.1,0.2-0.1,0.4,0c-0.2-0.2-0.4-0.3-0.4-0.4c0-0.1,0-0.1,0-0.2c0.1-0.2,0.5,0,1.3,0.4c0.3,0.1,0.6,0.3,0.8,0.4
		c-0.3-0.2-0.8-0.5-1.1-0.8c-0.9-0.6-1-0.7-1-0.8c0,0,0-0.1,0-0.1c0.1-0.1,0.2-0.1,0.8,0.3c0.3,0.2,1,0.6,1.3,0.7
		c-0.2-0.1-0.4-0.3-0.6-0.4c-1-0.6-1.5-0.9-1.5-1.1c0,0,0-0.1,0-0.1c0.1-0.1,0.3,0,1.1,0.4c0.3,0.2,0.9,0.5,1.1,0.5
		c-0.3-0.2-0.9-0.7-1.4-0.9c-0.8-0.5-0.9-0.6-0.9-0.6c0,0,0-0.1,0-0.1c0-0.1,0.1-0.1,0.2-0.1c-0.1-0.1-0.2-0.2-0.2-0.3
		c0-0.1,0-0.1,0-0.2c0.1-0.1,0.3-0.1,0.7,0.1c-0.5-0.3-0.7-0.4-0.7-0.6c0-0.1,0-0.1,0-0.1c0.1-0.1,0.3,0,1,0.4
		c0.4,0.2,1,0.6,1.3,0.7c-0.2-0.2-1-0.7-1.4-0.9c-0.7-0.4-0.9-0.5-0.9-0.7c0,0,0-0.1,0-0.1c0.1-0.1,0.2-0.1,0.4-0.1
		c-0.3-0.2-0.4-0.4-0.5-0.5c0-0.1,0-0.1,0-0.1c0.1-0.2,0.4,0,1.1,0.5c0.4,0.2,1.1,0.7,1.2,0.7c-0.1-0.2-0.9-0.6-1.4-0.9
		c-0.8-0.4-1.1-0.6-1.1-0.8c0,0,0-0.1,0-0.1c0.1-0.2,0.5,0,1.4,0.5c0.3,0.2,0.7,0.4,0.9,0.5c-0.3-0.2-0.9-0.6-1.4-0.9
		c-1-0.6-1.2-0.8-1.3-0.9c0,0,0-0.1,0-0.1C23.9,6.3,24,6.3,25.1,7c0.5,0.3,1.2,0.7,1.4,0.7c-0.1-0.3-1.4-1-2-1.4
		c-1-0.6-1.4-0.8-1.4-1c0,0,0-0.1,0-0.1c0-0.1,0.1-0.1,0.2,0c0,0,0.1,0.1,0,0.1c0.1,0.1,0.8,0.5,1.3,0.8c1.3,0.7,2.1,1.2,2.2,1.5
		c0,0.1,0,0.1,0,0.2c-0.1,0.1-0.3,0.1-1.4-0.5c1,0.6,1.5,0.9,1.5,1.1c0,0,0,0.1,0,0.1c-0.1,0.2-0.5,0-1.4-0.5
		c-0.3-0.2-0.7-0.4-0.9-0.5C24.7,7.7,25,7.8,25.3,8c0.9,0.5,1.5,0.8,1.5,1.1c0,0.1,0,0.1,0,0.2c-0.2,0.2-0.7-0.1-1.6-0.6
		c-0.2-0.1-0.5-0.3-0.7-0.4c0.3,0.3,1.1,0.7,1.5,1c0.7,0.4,0.8,0.5,0.8,0.6c0,0,0,0.1,0,0.1c-0.1,0.2-0.4,0-1.1-0.4
		c-0.3-0.2-0.7-0.5-1-0.6c0.2,0.1,0.4,0.3,0.6,0.4c0.9,0.5,1.5,0.9,1.5,1.1c0,0.1,0,0.1,0,0.1c-0.1,0.1-0.3,0.1-0.7-0.1
		c0.5,0.3,0.7,0.5,0.8,0.6c0,0,0,0.1,0,0.1c-0.1,0.2-0.5,0-1.3-0.5c-0.3-0.2-0.8-0.5-1-0.6c0.1,0.1,0.4,0.4,0.8,0.6
		c0.1,0.1,0.3,0.2,0.4,0.3c0.2,0.1,0.3,0.2,0.4,0.2c0.6,0.3,0.7,0.4,0.7,0.5c0,0,0,0.1,0,0.1c-0.1,0.1-0.2,0.1-0.7-0.3
		c-0.1-0.1-0.3-0.2-0.5-0.3c-0.2-0.1-0.3-0.2-0.4-0.3c-0.2-0.1-0.3-0.2-0.5-0.2c0.2,0.1,0.4,0.2,0.6,0.4c1.1,0.7,1.5,1,1.6,1.2
		c0,0,0,0.1,0,0.1c-0.2,0.2-0.6,0-1.5-0.5c-0.2-0.1-0.4-0.2-0.6-0.3c0.3,0.2,0.9,0.6,1.2,0.8c0.8,0.5,0.9,0.6,0.9,0.7
		c0,0,0,0.1,0,0.1c-0.1,0.1-0.3,0.1-0.7-0.1c0.5,0.4,0.7,0.5,0.8,0.6c0,0,0,0.1,0,0.1c-0.1,0.2-0.5,0-1.3-0.4
		c-0.3-0.2-0.8-0.4-1-0.5c0.1,0.2,0.9,0.6,1.3,0.8c0.7,0.4,1,0.6,1,0.7c0,0,0,0.1,0,0.1c-0.1,0.1-0.3,0-1.3-0.5
		c-0.2-0.1-0.5-0.3-0.7-0.4c0.3,0.2,0.8,0.5,1.1,0.7c0.8,0.5,0.9,0.6,0.9,0.7c0,0,0,0.1,0,0.1c-0.1,0.1-0.2,0.1-0.3,0
		c0.2,0.2,0.3,0.3,0.3,0.4c0,0,0,0.1,0,0.1c-0.1,0.1-0.3,0-1.2-0.5c-0.2-0.1-0.5-0.3-0.7-0.4c0.2,0.2,0.5,0.3,0.8,0.5
		c0.8,0.5,1.2,0.7,1.2,0.9c0,0,0,0.1,0,0.1c-0.1,0.1-0.2,0.1-0.4,0.1c0.3,0.2,0.4,0.3,0.4,0.3c0,0,0,0.1,0,0.1c0,0,0,0.1-0.1,0.1
		c0.1,0.1,0.1,0.1,0.1,0.2c0,0.1,0,0.1,0,0.2c-0.1,0.2-0.5,0-1.2-0.5c-0.3-0.2-0.8-0.5-1-0.6c0.2,0.2,0.7,0.5,1.1,0.7
		c0.8,0.5,1.1,0.7,1.1,0.8c0,0,0,0.1,0,0.1c-0.1,0.1-0.3,0-0.9-0.4c-0.4-0.3-1.2-0.8-1.4-0.8c0.1,0.2,0.9,0.6,1.4,0.9
		c0.7,0.4,0.9,0.5,0.9,0.6c0,0,0,0.1,0,0.1c0,0-0.1,0.1-0.1,0c0.1,0.1,0.1,0.1,0.2,0.2c0,0.1,0,0.1,0,0.1c0,0.1-0.1,0.1-0.2,0.1
		c0.1,0.1,0.1,0.1,0.2,0.2c0,0,0,0.1,0,0.1c0,0-0.1,0.1-0.1,0.1c0.1,0.1,0.1,0.1,0.1,0.2c0,0.1,0,0.1,0,0.2
		c-0.1,0.1-0.3,0.1-1.1-0.4c-0.3-0.2-0.9-0.5-1.1-0.6c0.2,0.2,0.9,0.6,1.3,0.8c0.7,0.4,0.9,0.5,0.9,0.6c0,0,0,0.1,0,0.1
		c-0.1,0.2-0.5,0-1.4-0.5c-0.2-0.1-0.4-0.2-0.6-0.3c0.2,0.2,0.7,0.4,0.9,0.6c0.7,0.4,1,0.6,1.1,0.8c0,0,0,0.1,0,0.1
		c-0.1,0.1-0.2,0.1-0.5,0c0.3,0.2,0.4,0.3,0.5,0.4c0,0,0,0.1,0,0.1c-0.1,0.1-0.2,0.1-0.5,0c0.2,0.2,0.4,0.3,0.4,0.4
		c0,0.1,0,0.1,0,0.2c-0.1,0.1-0.3,0.1-0.6,0c0.3,0.2,0.4,0.3,0.4,0.4c0,0.1,0,0.1,0,0.1c0,0.1-0.1,0.1-0.2,0.1c0,0,0.1,0.1,0.1,0.1
		c0,0,0,0.1,0,0.1c-0.1,0.1-0.2,0.1-1.5-0.4c-0.1,0-0.2-0.1-0.2-0.1c0.2,0.1,0.4,0.2,0.6,0.4c0.7,0.4,0.9,0.6,0.9,0.7
		c0,0,0,0.1,0,0.1c0,0.1-0.1,0.1-0.2,0.1c0,0,0,0.1,0.1,0.1c0,0,0,0.1,0,0.1c-0.2,0.2-0.5,0-1.2-0.4c-0.2-0.1-0.4-0.2-0.6-0.3
		c0.1,0.1,0.3,0.2,0.4,0.2c0.8,0.4,1.1,0.7,1.2,0.9c0,0,0,0.1,0,0.1c0,0.1-0.1,0.1-0.2,0c0,0,0,0.1,0,0.1c0,0.1,0,0.1,0,0.2
		c-0.1,0.1-0.3,0.1-0.8-0.2c0.3,0.2,0.5,0.4,0.5,0.5c0,0.1,0,0.1,0,0.2c-0.1,0.1-0.1,0.1-1.1-0.4c-0.3-0.1-0.7-0.3-1-0.5
		c0.2,0.1,0.5,0.3,0.7,0.4c0.7,0.4,1,0.6,1,0.7c0,0,0,0.1,0,0.1c-0.1,0.1-0.2,0.1-1.2-0.4c-0.3-0.2-0.7-0.4-1-0.5
		c0.2,0.1,0.5,0.3,0.7,0.4c0.8,0.5,1,0.6,1,0.8c0,0,0,0.1,0,0.1c-0.1,0.1-0.1,0.1-0.3,0.1c0,0,0,0.1,0,0.1c-0.1,0.1-0.2,0.1-0.5-0.1
		c0.1,0.1,0.1,0.1,0.1,0.2c0,0,0,0.1,0,0.1c-0.1,0.1-0.2,0.1-0.9-0.4c-0.9-0.6-1.5-0.9-1.8-1c0.1,0.1,0.4,0.2,0.6,0.3
		c0.9,0.5,1.6,0.9,1.6,1.2c0,0.1,0,0.1,0,0.2c-0.2,0.2-0.7,0-2.2-0.9c-0.2-0.1-0.4-0.3-0.6-0.4c0.3,0.2,0.7,0.5,1,0.6
		c0.8,0.5,1.1,0.7,1.2,0.8c0,0,0,0.1,0,0.1c-0.1,0.1-0.2,0.1-0.5-0.1c0,0,0,0,0,0c0,0.1,0,0.1,0,0.2c0,0-0.1,0.1-0.2,0.1
		c-0.1,0-0.2,0-0.3,0c0,0,0,0,0,0.1c-0.1,0.2-0.4,0.1-1-0.3c0.1,0.1,0.2,0.2,0.2,0.3c0,0.1,0,0.1,0,0.2c0,0.1-0.1,0.1-0.2,0.1
		c-0.1,0-0.2,0-0.3-0.1c0,0,0,0,0,0c-0.1,0.1-0.2,0.1-0.6-0.2c0,0,0.1,0.1,0.1,0.1c0,0,0,0.1,0,0.1c0,0-0.1,0.1-0.1,0.1
		c-0.1,0-0.2,0-0.5-0.2c0,0,0,0,0,0.1c0,0,0,0.1,0,0.1c0,0-0.1,0.1-0.1,0.1c-0.1,0-0.4-0.1-0.7-0.3c0,0,0.1,0.1,0.1,0.1
		c0,0.1,0,0.1,0,0.2c0,0-0.1,0.1-0.1,0.1c-0.1,0-0.2,0-0.4-0.2c0,0,0,0.1,0,0.1c0,0-0.1,0.1-0.1,0.1c-0.1,0-0.3-0.1-0.7-0.4
		c0,0.1,0.1,0.1,0.1,0.1c0,0.1,0,0.1,0,0.2c-0.1,0.1-0.2,0.1-0.7-0.2c0,0,0,0,0,0c0,0.1,0,0.1,0,0.2c-0.1,0.1-0.2,0.1-0.6-0.2
		c0,0,0,0,0,0c0,0.1,0,0.1,0,0.2c0,0-0.1,0.1-0.1,0.1c-0.1,0-0.2,0-0.4-0.1c0,0,0,0,0,0c0,0.1-0.1,0.1-0.2,0.1
		c-0.2,0-0.4-0.1-0.7-0.2c0,0,0,0,0,0c0,0,0,0.1,0,0.1c-0.1,0.1-0.3,0.1-1.1-0.5c0.1,0.1,0.1,0.2,0.2,0.2c0,0.1,0,0.1,0,0.2
		c-0.1,0.2-0.3,0-2-1C10.1,25.7,9,25,8.5,24.8c0.3,0.2,0.8,0.5,1.2,0.7c1.2,0.7,2,1.2,2,1.5c0,0.1,0,0.1,0,0.2
		c-0.1,0.2-0.3,0.1-1.8-1c-0.9-0.6-2.4-1.7-2.8-1.7c0.2,0.2,1,0.7,1.6,1c1.3,0.8,1.9,1.2,2,1.4c0,0.1,0,0.1,0,0.1
		c0,0.1-0.1,0.1-0.2,0.1c-0.1,0-0.3,0-0.4-0.1c-0.1,0-0.1,0-0.1-0.1c-0.5-0.3-1.3-0.9-2.2-1.6C7,25.1,6.5,24.8,6.2,24.6z M7.6,25.2
		c0.1,0.1,0.1,0.1,0.2,0.2c0,0,0,0,0,0c1.4,0.9,2.1,1.3,2.2,1.6c0.1,0.1,0.3,0.1,0.3,0.1c0,0,0,0,0,0c-0.1-0.2-1.2-0.8-1.9-1.3
		C8.2,25.5,7.9,25.3,7.6,25.2z M11.2,26.7c-0.4-0.3-1-0.7-1.5-0.9c0.1,0.1,0.2,0.2,0.4,0.2c0.6,0.4,1.2,0.8,1.4,0.9
		C11.5,26.9,11.4,26.8,11.2,26.7z M12.4,26.8C12,26.5,11.5,26.2,11,26c-0.1,0-0.1-0.1-0.1-0.1c0,0,0,0,0.1,0c0.6,0.4,1.4,0.9,1.7,1
		C12.6,26.9,12.5,26.9,12.4,26.8z M12.2,26.4c0,0-0.1-0.1-0.1-0.1c-0.7-0.5-2.4-1.7-2.5-1.5c0,0.2,1,0.7,1.6,1
		C11.5,26,11.9,26.2,12.2,26.4z M10.6,24.9c0.3,0.2,1.2,0.9,1.8,1.3c0,0,0.1,0,0.1,0.1c-0.1-0.1-0.2-0.1-0.3-0.2
		C11.7,25.5,10.9,24.9,10.6,24.9z M14.4,26.6c0.1,0.1,0.2,0.2,0.2,0.3c0.2,0.1,0.3,0.1,0.3,0.1C15,27,14.7,26.8,14.4,26.6z
		 M12.1,24.9c0.2,0.2,0.9,0.6,1.4,0.9C13,25.4,12.4,25,12.1,24.9z M15.3,26.7c-0.3-0.2-0.7-0.5-1.1-0.7c0,0,0,0,0,0
		c0.5,0.4,1.1,0.8,1.3,0.9C15.5,26.9,15.4,26.8,15.3,26.7z M16,26.7c-0.4-0.3-1.1-0.7-1.5-0.9c0.1,0.1,0.2,0.1,0.2,0.2
		c0.6,0.4,1.3,0.9,1.5,1C16.3,26.9,16.2,26.8,16,26.7z M13.5,24.9c0.2,0.1,0.7,0.5,1.2,0.7c0.3,0.2,0.6,0.3,0.8,0.5
		c-0.1-0.1-0.2-0.1-0.3-0.2c-0.4-0.2-0.6-0.4-0.8-0.6C13.9,25,13.6,24.9,13.5,24.9z M14.3,24.9c0,0,0.1,0.1,0.1,0.1
		c0.3,0.2,0.5,0.4,0.8,0.6c0.2,0.2,0.5,0.3,0.7,0.4c0,0,0,0,0,0C15.4,25.6,14.6,25,14.3,24.9z M16.7,26.3c0.4,0.3,0.8,0.6,1,0.6
		C17.5,26.8,17.1,26.6,16.7,26.3z M16.3,25.7c-0.6-0.4-1.2-0.8-1.4-0.8c0,0.2,0.9,0.7,1.5,1c0.3,0.2,0.5,0.3,0.7,0.4
		c-0.1-0.1-0.2-0.1-0.2-0.2C16.7,26,16.5,25.8,16.3,25.7z M16.7,25.7c0.1,0.1,0.2,0.1,0.3,0.2c0.5,0.4,1.2,0.9,1.5,1
		C18.2,26.7,17.3,26.1,16.7,25.7z M16.5,25.3c-0.1-0.1-0.2-0.2-0.4-0.2C16.2,25.2,16.3,25.2,16.5,25.3z M17.5,25.2
		c-0.3-0.2-0.5-0.4-0.6-0.3c0,0,0.1,0.1,0.1,0.2c0.2,0.1,0.4,0.3,0.7,0.4c0.2,0.1,0.4,0.2,0.6,0.3C18,25.6,17.8,25.4,17.5,25.2z
		 M18.6,25.8c0.6,0.4,1.5,1.2,1.7,1.1C20.2,26.7,19.2,26.1,18.6,25.8C18.6,25.8,18.6,25.8,18.6,25.8z M17.6,24.9
		c0.2,0.2,0.8,0.5,1.2,0.7c0.1,0.1,0.2,0.1,0.4,0.2C18.6,25.4,17.9,25,17.6,24.9z M19.7,25.5C19.7,25.5,19.7,25.5,19.7,25.5
		c0.7,0.5,1.7,1.2,1.8,1.1c0-0.1-0.8-0.5-1.3-0.8C20.1,25.7,19.9,25.6,19.7,25.5z M19.2,24.9c0.1,0.1,0.4,0.3,0.7,0.4
		C19.6,25.2,19.4,25,19.2,24.9z M26,22c-0.1-0.1-0.2-0.2-0.4-0.2C25.7,21.8,25.8,21.9,26,22z M26.4,18.2c-0.1-0.1-0.2-0.1-0.3-0.2
		C26.2,18.1,26.3,18.2,26.4,18.2z M26.5,10.9c-0.2-0.2-0.6-0.4-1-0.6c-0.2-0.1-0.3-0.2-0.4-0.2c0.1,0.1,0.3,0.2,0.5,0.3
		C25.9,10.6,26.3,10.9,26.5,10.9C26.5,10.9,26.5,10.9,26.5,10.9z M23.2,5.3L23.2,5.3L23.2,5.3z M2.6,24.5c-0.1-0.1-0.1-0.1-0.1-0.2
		c0,0,0-0.1,0-0.1C2.2,24.1,2,23.9,2,23.7c0-0.1,0-0.2,0-0.2c0.1-0.1,0.3-0.1,1.9,1c-0.1-0.1-0.3-0.2-0.5-0.4
		c-0.7-0.4-1.2-0.8-1.6-1.2c-0.2-0.2-0.3-0.2-0.3-0.3c0,0,0,0,0,0c-0.1-0.2-0.2-0.3-0.2-0.4c0-0.1,0-0.2,0.1-0.3c0,0,0,0,0.1-0.1
		c-0.2-0.2-0.3-0.3-0.3-0.4c0-0.1,0-0.2,0-0.2c0-0.1,0.1-0.1,0.2-0.1c-0.2-0.1-0.3-0.3-0.3-0.4c0-0.1,0-0.1,0-0.2
		c0.1-0.2,0.4-0.1,0.8,0.2c-0.5-0.3-0.9-0.6-0.9-0.8c0-0.1,0-0.1,0-0.2c0.1-0.2,0.3,0,1.1,0.5c0.4,0.3,1.2,0.8,1.4,0.8
		c-0.1-0.2-0.9-0.7-1.4-0.9c-0.8-0.4-1.1-0.6-1.1-0.8c0,0,0-0.1,0-0.1c0-0.1,0.1-0.1,0.2-0.1C1.1,19.1,1,19,1,18.9c0,0,0-0.1,0-0.1
		c0-0.1,0.1-0.1,0.2-0.1C1.1,18.6,1,18.4,1,18.3c0-0.1,0-0.1,0-0.2c0.1-0.2,0.4,0,1.1,0.5c0.2,0.2,0.6,0.4,0.8,0.5
		c-0.2-0.1-0.5-0.3-0.7-0.5C1.2,18,1,17.9,1,17.8c0,0,0-0.1,0-0.1c0.1-0.1,0.2-0.1,0.4,0C1,17.4,1,17.4,0.9,17.3c0,0,0-0.1,0-0.1
		c0.1-0.1,0.2-0.1,0.8,0.3c0.4,0.2,1.3,0.8,1.5,0.8c-0.1-0.2-0.7-0.5-1.1-0.7c-0.8-0.5-1.2-0.7-1.2-0.9c0-0.1,0-0.1,0-0.1
		c0.1-0.1,0.3-0.1,0.9,0.2c-0.5-0.3-0.9-0.6-0.9-0.8c0-0.1,0-0.1,0-0.2c0,0,0,0,0.1-0.1c-0.1-0.1-0.1-0.1-0.1-0.2c0-0.1,0-0.1,0-0.2
		c0.1-0.2,0.5,0,1.4,0.5c0.2,0.1,0.4,0.2,0.5,0.3c-0.2-0.1-0.5-0.3-0.7-0.4c-0.9-0.5-1.2-0.8-1.3-0.9c0,0,0-0.1,0-0.1
		c0.1-0.1,0.3-0.1,1.2,0.4c0.2,0.1,0.5,0.3,0.8,0.4c-0.3-0.2-0.7-0.5-1-0.7c-0.9-0.6-1-0.7-1-0.7c0,0,0-0.1,0-0.1
		C1,13.9,1.1,13.9,1.3,14c-0.3-0.2-0.4-0.3-0.4-0.4c0,0,0-0.1,0-0.1c0,0,0.1-0.1,0.1-0.1c-0.1-0.1-0.1-0.1-0.1-0.2
		c0-0.1,0-0.1,0-0.2C1,13,1.2,13,2.1,13.6C2.4,13.8,2.7,14,3,14.2c-0.3-0.2-0.9-0.6-1.2-0.8c-0.7-0.5-0.8-0.5-0.8-0.6
		c0,0,0-0.1,0-0.1c0.1-0.1,0.2-0.1,0.5,0c-0.3-0.2-0.5-0.3-0.5-0.5c0-0.1,0-0.1,0-0.2c0.2-0.2,0.6,0,1.3,0.4c-0.9-0.5-1.3-0.8-1.3-1
		c0,0,0-0.1,0-0.1c0.1-0.2,0.4-0.1,0.9,0.2C1.3,11.2,1,11,0.9,10.8c0-0.1,0-0.1,0-0.2c0.1-0.1,0.2-0.1,0.4,0C1.1,10.4,1,10.3,1,10.2
		c0-0.1,0-0.1,0-0.1c0.1-0.1,0.1-0.1,1,0.3c0.3,0.2,0.9,0.4,1.2,0.5c-0.2-0.2-0.6-0.4-1-0.6C1.5,9.9,1,9.7,1,9.5c0-0.1,0-0.1,0-0.2
		c0-0.1,0.1-0.1,0.2-0.1C1.1,9.1,1,9,1,9c0,0,0-0.1,0-0.1c0.1-0.1,0.2,0,0.9,0.4C2.3,9.5,2.8,9.9,3.1,10C3,9.8,2.6,9.7,2.4,9.5
		C1.5,9,1.1,8.8,1.1,8.6c0-0.1,0-0.1,0-0.1c0-0.1,0.1-0.1,0.2-0.1C1.1,8.2,1.1,8.2,1.1,8.1c0,0,0-0.1,0-0.1C1.2,7.9,1.2,8,2,8.4
		C2.4,8.5,3,8.9,3.3,9c-0.2-0.1-0.7-0.4-1-0.6C1.6,8,1.2,7.8,1.2,7.6c0-0.1,0-0.1,0-0.2c0.1-0.1,0.2-0.1,0.3,0
		C1.3,7.3,1.3,7.2,1.2,7.1c0,0,0-0.1,0-0.1c0-0.1,0.1-0.1,0.3-0.1C1.4,6.8,1.3,6.8,1.3,6.7c0-0.1,0-0.1,0-0.1c0.1-0.1,0.2-0.1,0.4,0
		C1.5,6.4,1.5,6.3,1.5,6.3c0,0,0-0.1,0-0.1c0.1-0.1,0.1-0.1,0.9,0.4c0.2,0.1,0.4,0.2,0.7,0.3C2.8,6.7,2.6,6.6,2.4,6.4
		C1.7,6,1.6,5.9,1.6,5.9c0,0,0-0.1,0-0.1c0.1-0.1,0.3-0.1,1.1,0.3C3,6.2,3.3,6.3,3.5,6.4C3.3,6.3,2.9,6.1,2.7,5.9
		C2,5.5,1.9,5.4,1.9,5.3c0,0,0-0.1,0-0.1c0.1-0.1,0.2-0.1,0.4,0C2.2,5.1,2.1,5,2.1,4.9c0,0,0-0.1,0-0.1c0.1-0.1,0.1-0.1,0.5,0.1
		C2.3,4.7,2.3,4.7,2.2,4.6c0,0,0-0.1,0-0.1c0.1-0.2,0.5,0,1.3,0.5C3.7,5.1,4,5.2,4.2,5.3C4,5.2,3.7,5,3.5,4.9
		C2.8,4.5,2.6,4.4,2.5,4.2c0,0,0-0.1,0-0.1C2.6,4,2.7,4,3,4.2C2.8,4,2.8,4,2.7,3.9c0,0,0-0.1,0-0.1C2.9,3.7,3,3.7,3.3,3.9
		C3.1,3.7,3,3.7,3,3.6c0,0,0-0.1,0-0.1c0.1-0.1,0.3-0.1,1.5,0.6c0.1,0.1,0.2,0.1,0.4,0.2C4.7,4.1,4.4,4,4.2,3.8
		C3.5,3.4,3.4,3.3,3.4,3.2c0,0,0-0.1,0-0.1C3.5,3,3.8,3.1,4.4,3.4C4,3.2,3.9,3,3.8,2.9c0-0.1,0-0.1,0-0.1c0,0,0.1-0.1,0.1-0.1
		c0,0,0.1,0,0.2,0c0,0,0,0,0,0c0,0,0-0.1,0-0.1c0.1-0.1,0.2-0.1,0.3,0c0,0,0,0,0-0.1c0,0,0-0.1,0-0.1c0.2-0.2,0.6,0,1.9,0.8
		c0.3,0.2,0.7,0.4,0.9,0.5C7,3.5,6.6,3.3,6.3,3.1C5.5,2.6,5.1,2.4,5.1,2.2c0-0.1,0-0.1,0-0.1C5.2,2,5.4,2,6,2.4
		C5.8,2.2,5.7,2.1,5.7,2c0-0.1,0-0.1,0-0.2c0.1-0.1,0.2-0.1,0.5,0c0,0,0,0,0,0c0,0,0-0.1,0-0.1c0.1-0.1,0.2-0.1,0.6,0.1
		c0,0,0-0.1,0-0.1c0,0,0-0.1,0-0.1c0.1-0.1,0.2-0.1,0.4,0c0,0,0-0.1,0-0.1c0.1-0.1,0.2-0.1,0.6,0.1c0,0,0,0,0,0c0-0.1,0-0.1,0-0.2
		C8,1.3,8.3,1.3,8.7,1.6c0-0.1,0-0.1,0-0.2c0,0,0.1-0.1,0.1-0.1c0.1,0,0.2,0,0.4,0.2c0-0.1,0-0.1,0-0.2c0,0,0.1-0.1,0.1-0.1
		c0.1,0,0.4,0.2,1.3,0.8c0.8,0.6,2.1,1.6,2.5,1.5c0,0,0,0,0,0c-0.5-0.3-1.1-0.7-1.7-1.2c-0.9-0.5-1.3-0.7-1.3-0.9c0-0.1,0-0.1,0-0.1
		c0,0,0.1,0,0.1,0c0.1,0,0.2,0.1,1,0.6c0.1,0.1,0.2,0.2,0.4,0.3c0,0,0.1,0,0.1,0.1c1,0.5,1.7,0.9,1.8,1.2c0.2,0.1,0.3,0.1,0.4,0.1
		c0,0,0,0,0,0c0-0.2-1.2-0.8-1.8-1.2c-1-0.6-1.3-0.8-1.3-0.9c0,0,0-0.1,0-0.1c0.2-0.2,0.8,0.1,2.7,1.4C14,3,14.6,3.4,14.8,3.5
		c-0.2-0.3-1.7-1.2-2.3-1.5c-0.8-0.4-0.9-0.5-0.9-0.6c0,0,0-0.1,0-0.1c0-0.1,0.1-0.1,0.2-0.1c0.2,0,0.4,0.1,0.8,0.3
		c0-0.1,0-0.1,0-0.2c0.1-0.1,0.3-0.1,1.6,0.8c0.7,0.5,1.8,1.3,2.3,1.4c-0.2-0.2-0.7-0.5-1.1-0.7c-1.3-0.8-1.9-1.2-2-1.4
		c0,0,0-0.1,0-0.1c0.2-0.2,0.7,0.1,2.5,1.2c0.6,0.4,1.4,0.9,1.7,1.1c-0.3-0.3-1.3-0.9-1.9-1.3c-1.1-0.7-1.3-0.8-1.3-0.9
		c0,0,0-0.1,0-0.1c0.1-0.1,0.2-0.1,0.6,0.1c0,0,0-0.1,0-0.1c0.1-0.2,0.4-0.1,1.1,0.4c-0.1-0.1-0.1-0.2-0.2-0.2c0-0.1,0-0.1,0-0.1
		c0.1-0.1,0.2-0.1,0.6,0.1c0,0,0-0.1,0-0.1c0,0,0.1-0.1,0.2-0.1c0.1,0,0.3,0,0.5,0.1c0,0,0.1-0.1,0.1-0.1c0.1,0,0.2,0,0.4,0.1
		c0,0,0,0,0,0c0,0,0.1,0,0.1-0.1c0.2,0,0.6,0.3,2.3,1.5C20.8,2.9,20.9,2.9,21,3c1.1,0.6,2.3,1.3,3.4,2c-0.1-0.1-0.2-0.2-0.4-0.3
		c-0.5-0.3-1-0.6-1.5-0.9c-2.1-1.3-3.1-1.9-3.1-2.2c0-0.1,0-0.1,0-0.1c0.1-0.1,0.1-0.1,0.2-0.1c0.2,0,0.3,0,0.6,0.2
		c0,0,0.1-0.1,0.2-0.1c0.2,0,0.5,0.1,0.9,0.3c0,0,0,0,0,0c0.1-0.2,0.3,0,1.4,0.7c0.5,0.3,1.3,0.9,1.6,1c-0.1-0.1-0.5-0.3-0.6-0.4
		c-0.4-0.2-0.6-0.3-0.6-0.4c0,0,0-0.1,0-0.1c0.1-0.1,0.2,0,0.2,0.1c0.1,0.1,0.3,0.2,0.5,0.3c0.5,0.3,0.8,0.4,0.8,0.6
		c0,0,0,0.1,0,0.1c0,0.1-0.1,0.1-0.2,0.1c0.8,0.5,1.3,0.8,1.3,1.1c0,0.1,0,0.1,0,0.2c0,0-0.1,0.1-0.1,0.1c0,0-0.1,0-0.1,0
		c0.5,0.3,0.7,0.6,0.8,0.7c0,0.1,0,0.1,0,0.2c0,0,0,0-0.1,0.1c0.2,0.2,0.3,0.3,0.3,0.4c0,0.1,0,0.1,0,0.2c0,0,0,0,0,0
		c0.2,0.2,0.3,0.4,0.3,0.5c0,0.1,0,0.3-0.1,0.4c-0.1,0.1-0.1,0.1-0.3,0.1c-0.7,0.1-2.3-1.2-4.6-3.2c-0.1,0-0.3-0.1-1.1-0.8
		c-0.1-0.1-0.3-0.2-0.5-0.4c-0.1,0-0.1-0.1-0.2-0.1c-1.3-0.7-2.1-1.2-2.2-1.5c-0.2-0.1-0.4-0.2-0.5-0.1c0,0,0,0,0,0
		c0,0.2,1.2,0.8,1.9,1.2c1.1,0.7,1.6,0.9,1.6,1.1c0,0,0,0.1,0,0.1c-0.1,0.1-0.2,0.1-0.8-0.2c0,0,0,0,0,0c0,0,0,0.1,0,0.1
		c-0.1,0.2-0.5,0.1-1.1-0.3c0,0,0.1,0.1,0.1,0.1c0,0,0,0.1,0,0.1c-0.1,0.1-0.2,0.1-0.8-0.3c0,0.1,0.1,0.1,0.1,0.1c0,0,0,0.1,0,0.1
		c-0.1,0.2-0.6,0-2.1-1.1c-0.7-0.5-1.8-1.2-2.1-1.3C14,1.7,15,2.3,15.6,2.7c1.1,0.7,1.3,0.8,1.4,1c0,0,0,0.1,0,0.1
		c-0.1,0.1-0.3,0.1-0.8-0.2c0,0,0,0.1,0,0.1c0,0.1-0.1,0.1-0.2,0.1c-0.2,0-0.5-0.1-0.8-0.3c0,0,0,0,0,0c0,0.1,0,0.1,0,0.2
		c-0.1,0.1-0.3,0.1-1.7-0.9c-0.7-0.4-1.7-1.1-2.2-1.3c0.2,0.2,0.7,0.4,1,0.6c1.1,0.7,1.9,1.1,1.9,1.4c0,0.1,0,0.1,0,0.2
		c0,0.1-0.1,0.1-0.2,0.1c-0.1,0-0.3,0-0.5-0.1c0,0.1-0.1,0.1-0.2,0.1c-0.2,0-0.4,0-0.6-0.2c0,0,0,0,0,0.1c0,0-0.1,0.1-0.2,0.1
		c-0.1,0-0.2,0-0.4-0.1c0,0,0,0,0,0c-0.2,0.2-0.6,0-1.8-0.9C9.5,2.4,8.2,1.4,8,1.6c0,0.2,1.3,1,2,1.3c0.8,0.5,1,0.6,1,0.7
		c0,0,0,0.1,0,0.1c-0.1,0.1-0.3,0.1-0.6-0.1c0,0,0,0.1,0,0.1c-0.1,0.1-0.1,0.1-0.5-0.1c0,0.1,0,0.1,0,0.1C9.7,3.9,9.6,3.9,9.1,3.6
		c0,0,0,0,0,0.1c0,0.1,0,0.1,0,0.1C9,3.9,8.8,3.9,8.5,3.7c0,0,0,0,0,0.1c0,0,0,0.1,0,0.1C8.4,4,8.1,3.9,7.6,3.6
		c0.1,0.1,0.1,0.1,0.1,0.2c0,0.1,0,0.1,0,0.2C7.5,4.1,7.3,4,6.3,3.4c-0.4-0.2-1-0.6-1.4-0.8c0,0,0,0,0,0C5.1,2.8,5.5,3,5.8,3.2
		C6.7,3.7,6.9,3.9,6.9,4c0,0,0,0.1,0,0.1C6.8,4.2,6.7,4.2,6.4,4c0,0,0.1,0.1,0.1,0.1c0,0,0,0.1,0,0.1c0,0-0.1,0.1-0.1,0.1
		c-0.1,0-0.1,0-0.3-0.1c0,0,0,0.1,0,0.1c0,0,0,0.1,0,0.1C6,4.6,5.6,4.4,5,4.1c0.4,0.2,0.5,0.4,0.6,0.5c0,0,0,0.1,0,0.1
		C5.5,4.8,5.4,4.8,4.4,4.3c0,0-0.1,0-0.1-0.1c0.6,0.3,0.8,0.5,0.9,0.7c0,0,0,0.1,0,0.1C5.1,5.1,5,5.1,4.8,5.1c0,0,0,0.1,0.1,0.1
		c0,0,0,0.1,0,0.1C4.8,5.4,4.7,5.4,4.5,5.3c0.1,0.1,0.1,0.1,0.1,0.2c0,0,0,0.1,0,0.1c-0.1,0.2-0.4,0-1.2-0.4C3.3,5.1,3.1,5,3,4.9
		C3.1,4.9,3.2,5,3.2,5c0.8,0.5,1.1,0.7,1.1,0.8c0,0,0,0.1,0,0.1C4.2,6.1,4.2,6.1,3.6,5.8C4.1,6,4.2,6.1,4.2,6.2c0,0,0,0.1,0,0.1
		c-0.1,0.1-0.3,0-0.9-0.4C3,5.8,2.7,5.7,2.5,5.5c0.1,0.1,0.2,0.1,0.3,0.2C3.7,6.3,3.9,6.5,4,6.6c0,0,0,0.1,0,0.1
		c-0.1,0.1-0.4,0-1.3-0.4c0,0-0.1,0-0.1-0.1c1,0.7,1.3,0.9,1.3,1c0,0,0,0.1,0,0.1C3.7,7.4,3.6,7.4,2.8,7c0.8,0.6,0.9,0.6,0.9,0.7
		c0,0,0,0.1,0,0.1c0,0.1-0.1,0.1-0.2,0.1C3.6,8,3.6,8,3.6,8.1c0,0,0,0.1,0,0.1c-0.1,0.1-0.2,0-1-0.4c-0.3-0.2-0.8-0.5-1-0.6
		c0.2,0.2,0.7,0.4,1,0.6c0.7,0.4,1,0.6,1,0.7c0,0,0,0.1,0,0.1C3.5,8.7,3.4,8.7,3.3,8.7C3.5,8.8,3.5,8.9,3.6,9c0,0.1,0,0.1,0,0.2
		C3.4,9.3,3.3,9.3,2.4,8.8c0.9,0.6,1.1,0.7,1.1,0.8c0,0,0,0.1,0,0.1c0,0.1-0.1,0.1-0.2,0.1C3.4,9.9,3.5,10,3.5,10c0,0,0,0.1,0,0.1
		c-0.1,0.1-0.2,0.1-0.5,0c0.5,0.3,0.5,0.3,0.5,0.4c0,0,0,0.1,0,0.1c0,0-0.1,0.1-0.1,0.1c0.1,0.1,0.1,0.1,0.1,0.2c0,0.1,0,0.1,0,0.2
		c-0.1,0.1-0.2,0.1-1.6-0.5c-0.1-0.1-0.3-0.1-0.4-0.2c0.2,0.1,0.6,0.3,0.8,0.5c0.8,0.4,1.1,0.6,1.2,0.8c0,0.1,0,0.1,0,0.1
		c-0.2,0.2-0.6,0-1.3-0.5c-0.3-0.2-0.8-0.5-1-0.6c0.1,0.2,0.8,0.5,1.2,0.7c0.7,0.4,1,0.6,1.1,0.8c0,0,0,0.1,0,0.1
		c-0.1,0.2-0.5,0-1.2-0.4c-0.3-0.2-0.9-0.5-1.1-0.5c0.2,0.2,1,0.7,1.4,1c0.7,0.4,0.8,0.5,0.8,0.6c0,0,0,0.1,0,0.1
		c-0.2,0.2-0.5,0-1.3-0.4c-0.3-0.2-0.8-0.5-1-0.5c0.1,0.2,0.7,0.5,1.1,0.7c0.8,0.4,1.1,0.6,1.2,0.8c0,0.1,0,0.1,0,0.1
		c-0.1,0.1-0.3,0-1-0.4c-0.3-0.2-0.7-0.4-1.1-0.6c0.1,0.1,0.3,0.2,0.5,0.3c1.1,0.7,1.5,1,1.6,1.2c0,0,0,0.1,0,0.1
		c0,0-0.1,0.1-0.1,0.1c0.1,0.1,0.1,0.1,0.2,0.2c0,0.1,0,0.1,0,0.2c-0.1,0.2-0.3,0-1-0.5c-0.3-0.2-0.9-0.6-1.2-0.7
		c0.2,0.2,0.7,0.5,1.1,0.7c0.9,0.6,1.1,0.7,1.1,0.8c0,0,0,0.1,0,0.1c-0.1,0.1-0.2,0.1-0.3,0.1c0.3,0.2,0.3,0.3,0.4,0.4
		c0,0,0,0.1,0,0.1C3.3,16,3,15.9,2,15.3c-0.2-0.1-0.3-0.2-0.5-0.3c0.2,0.2,0.5,0.3,0.8,0.5c0.9,0.5,1.1,0.7,1.2,0.9c0,0,0,0.1,0,0.1
		c-0.1,0.1-0.3,0.1-1.2-0.4c-0.4-0.2-0.9-0.5-1.1-0.5c0.1,0.2,1,0.7,1.4,0.9c0.7,0.4,0.9,0.5,0.9,0.6c0,0,0,0.1,0,0.1
		c-0.1,0.2-0.4,0-1.2-0.6c-0.3-0.2-0.9-0.6-1.1-0.7c0.1,0.2,1.2,0.8,1.6,1.1c0.6,0.4,0.7,0.4,0.7,0.5c0,0,0,0.1,0,0.1
		c-0.1,0.1-0.3,0.1-1.3-0.4c-0.3-0.1-0.7-0.3-0.9-0.4c0.2,0.2,0.7,0.4,1,0.6c0.8,0.5,1.2,0.7,1.2,0.9c0,0.1,0,0.1,0,0.1
		c-0.1,0.1-0.2,0.1-0.5,0c0.4,0.2,0.5,0.4,0.5,0.5c0,0,0,0.1,0,0.1c-0.1,0.1-0.1,0.1-0.3,0.1c0.2,0.2,0.3,0.2,0.3,0.3
		c0,0,0,0.1,0,0.1c0,0.1-0.1,0.1-0.2,0.1c0.1,0.1,0.2,0.2,0.3,0.3c0,0.1,0,0.1,0,0.2c-0.1,0.1-0.2,0-1-0.4c-0.4-0.2-1-0.6-1.3-0.7
		c0.2,0.2,0.7,0.5,1.1,0.7c0.9,0.5,1.3,0.7,1.3,0.9c0,0.1,0,0.1,0,0.1c0,0-0.1,0.1-0.2,0c0.2,0.1,0.3,0.2,0.3,0.4c0,0.1,0,0.1,0,0.2
		c-0.1,0.1-0.2,0.1-0.4,0c0.5,0.3,0.6,0.4,0.6,0.5c0,0,0,0.1,0,0.1c-0.2,0.2-0.6,0-1.5-0.5c-0.4-0.2-1-0.6-1.1-0.6
		c0,0.2,1.4,1,2.1,1.4c0.9,0.5,1.1,0.7,1.2,0.8c0,0,0,0.1,0,0.1c-0.1,0.1-0.2,0.1-1.4-0.7c-0.6-0.4-1.5-1-1.8-1c0,0,0,0,0,0
		c0,0.1,0.1,0.3,0.3,0.4c0.6,0.1,2,1.1,3.9,2.7c0.3,0.2,0.5,0.3,0.7,0.4c2.2,1.3,3,1.9,3.1,2.1c0,0,0,0.1,0,0.1c0,0-0.1,0.1-0.2,0.1
		c-0.2,0-0.4-0.1-0.8-0.3c0,0,0,0,0,0.1c0,0,0,0.1,0,0.1c-0.1,0.1-0.2,0.1-0.3,0.2c-0.3,0-0.9-0.2-1.6-0.7c0,0,0,0.1,0,0.1
		c0,0.1,0,0.2,0,0.2c-0.1,0.1-0.3,0.1-1-0.3c0,0,0,0,0,0c0,0.1-0.1,0.1-0.2,0c0,0-0.1-0.1,0-0.1c0,0-0.1-0.1-0.2-0.2
		c-0.3-0.2-0.6-0.4-1-0.7c-0.3-0.2-0.5-0.3-0.8-0.5C3,24.7,2.8,24.6,2.6,24.5z M6.1,26.3c-0.4-0.3-1.2-0.7-1.8-1c0,0,0,0,0,0
		c0,0,0,0,0.1,0c0.5,0.3,0.8,0.5,1,0.7c0.5,0.3,0.9,0.6,1.1,0.6c0,0,0,0,0,0C6.4,26.6,6.3,26.5,6.1,26.3z M2.2,23.7
		c0.1,0.3,1.2,0.9,2.2,1.4c0.1,0.1,0.2,0.1,0.3,0.2C3.7,24.6,2.6,23.8,2.2,23.7z M4.9,25c0.5,0.4,1,0.8,1.4,1.1
		c0.5,0.4,1,0.6,1.2,0.7c0-0.2-0.3-0.4-0.6-0.6c-0.2-0.1-0.3-0.2-0.5-0.3C5.9,25.6,5.4,25.3,4.9,25z M7.7,26.6
		c0,0.1,0.1,0.1,0.1,0.2c0,0.1,0,0.1,0,0.2C8,27,8.1,27,8.2,27c0,0,0.1,0,0.1,0C8.2,26.9,8,26.8,7.7,26.6z M1.6,22
		C1.6,22,1.6,22,1.6,22C1.6,22,1.6,22,1.6,22c-0.1,0-0.1,0.1-0.1,0.2c0,0.1,0.1,0.2,0.2,0.3c0.2,0,0.4,0.2,1.1,0.8
		c0.2,0.1,0.4,0.3,0.6,0.4C5,24.5,6.3,25.3,7.1,26c0.2,0.1,0.4,0.2,0.6,0.3c-0.5-0.4-1.2-0.9-1.9-1.5c-0.1-0.1-0.2-0.1-0.2-0.2
		C3.7,23.5,2.3,22.6,1.6,22z M2.3,22.2c0.4,0.3,1,0.7,1.6,1.1C3.3,22.8,2.7,22.4,2.3,22.2z M7.1,25.6C8,26.3,8.9,27,9.2,27
		C9,26.8,8.1,26.2,7.1,25.6z M3.5,21.6c-0.2-0.1-0.4-0.2-0.6-0.4C2.7,21.1,2.5,21,2.4,21c0,0,0.1,0.1,0.1,0.1
		C2.8,21.2,3.2,21.5,3.5,21.6z M1.3,20c0.2,0.2,0.8,0.6,1.3,0.9c-0.2-0.1-0.4-0.2-0.6-0.4C1.8,20.3,1.5,20.1,1.3,20z M2.3,20
		c-0.3-0.2-0.7-0.4-0.9-0.5C1.6,19.6,2,19.8,2.3,20C2.3,20,2.3,20,2.3,20z M1.3,18.4c0.1,0.1,0.3,0.2,0.6,0.3
		C1.6,18.6,1.4,18.5,1.3,18.4z M3.1,18.8c-0.3-0.2-0.7-0.5-1-0.7c0.1,0,0.1,0.1,0.2,0.1C2.5,18.4,2.9,18.7,3.1,18.8
		C3.1,18.8,3.1,18.8,3.1,18.8z M3.1,12.2c-0.2-0.1-0.5-0.3-0.8-0.5c-0.1-0.1-0.2-0.1-0.3-0.2c0.1,0.1,0.3,0.2,0.4,0.2
		C2.6,11.9,2.9,12.1,3.1,12.2z M3.1,11.6c-0.2-0.2-0.6-0.4-0.9-0.5C2.1,11,2.1,11,2,10.9c0.1,0.1,0.2,0.1,0.3,0.2
		C2.6,11.3,3,11.6,3.1,11.6C3.2,11.6,3.1,11.6,3.1,11.6z M1.2,9.4c0.1,0.1,0.6,0.4,1,0.6C1.9,9.8,1.4,9.5,1.2,9.4z M1.3,8.6
		c0.2,0.2,0.8,0.5,1.2,0.7c0,0,0,0,0,0c0,0-0.1-0.1-0.1-0.1C2,9,1.5,8.6,1.3,8.6z M1.4,7.6c0.2,0.1,0.6,0.4,1,0.6c0,0,0,0,0,0
		c0,0,0,0,0,0C2.1,8,1.6,7.7,1.4,7.6z M4.8,4.8C4.5,4.6,4.2,4.4,3.9,4.2C3.8,4.2,3.7,4.1,3.6,4.1C3.7,4.1,3.9,4.2,4,4.3
		C4.2,4.5,4.7,4.8,4.8,4.8C4.8,4.8,4.8,4.8,4.8,4.8z M4.1,2.9C4.3,3.1,5,3.5,5.4,3.8c0.1,0.1,0.2,0.1,0.2,0.1
		C5.5,3.8,5.4,3.8,5.3,3.7C5,3.4,4.3,3,4.1,2.9z M6.3,2.8C6,2.6,5.7,2.4,5.5,2.3C5.7,2.5,6,2.7,6.3,2.8z M5.9,2C6,2.2,7,2.8,7.6,3.1
		c0.1,0,0.2,0.1,0.2,0.1C7.7,3.1,7.5,3.1,7.4,2.9C6.9,2.6,6.1,2.1,5.9,2z M8.7,3.5C8.4,3.3,8,3.1,7.7,2.9c0.4,0.3,0.9,0.6,1.1,0.7
		C8.8,3.6,8.7,3.5,8.7,3.5z M7.3,2.4C7.1,2.2,6.8,2.1,6.7,2C6.8,2.1,7.1,2.3,7.3,2.4z M9.4,3.5C9.1,3.2,8.5,2.9,8.1,2.7c0,0,0,0,0,0
		c0,0,0,0,0.1,0c0.5,0.4,1.2,0.8,1.5,0.9C9.6,3.6,9.5,3.5,9.4,3.5z M7.5,1.7c0,0,0.1,0.1,0.1,0.1C7.7,1.9,7.9,2,8,2.1
		c0.1,0.1,0.2,0.1,0.4,0.2C8,2.1,7.7,1.8,7.5,1.7z M10.8,3c-0.1,0-0.1-0.1-0.2-0.1c0.4,0.3,0.8,0.5,1,0.6C11.4,3.4,11.1,3.2,10.8,3z
		 M8.9,1.6C9,1.7,9.3,1.9,9.6,2.1C9.3,1.9,9.1,1.7,8.9,1.6z M10.9,2.8C10.9,2.8,10.9,2.8,10.9,2.8C11,2.8,11,2.8,10.9,2.8
		C11,2.8,11,2.8,10.9,2.8z M11.7,3.2c0.1,0.1,0.2,0.1,0.2,0.2c0.2,0.1,0.3,0.2,0.4,0.2c-0.1-0.1-0.5-0.3-0.9-0.6
		C11.5,3.1,11.6,3.2,11.7,3.2z M9.5,1.6C9.7,1.8,10,2,10.4,2.2C10.1,2,9.7,1.7,9.5,1.6z M13,2c-0.4-0.3-0.7-0.5-0.9-0.5
		c0.2,0.1,0.4,0.2,0.6,0.4C12.8,1.8,12.9,1.9,13,2z M14.3,2.7c0.6,0.5,1.3,1,1.6,0.9c0,0,0,0,0,0c-0.1-0.2-0.8-0.5-1.3-0.8
		C14.5,2.8,14.4,2.7,14.3,2.7z M13,1.5c0.2,0.2,0.8,0.6,1.3,0.9c0,0-0.1,0-0.1-0.1C13.7,2,13.2,1.7,13,1.5z M15.5,1.5
		c0.2,0.2,1.1,0.7,1.7,1.1c0.1,0.1,0.2,0.1,0.3,0.2c0,0-0.1-0.1-0.2-0.1C16.7,2.2,15.8,1.5,15.5,1.5z M19.5,3.7
		c-0.2-0.2-0.7-0.5-1.1-0.7c-0.2-0.1-0.3-0.2-0.5-0.3C18.4,3.1,19.1,3.6,19.5,3.7C19.5,3.7,19.5,3.7,19.5,3.7z M16.5,1.5
		c0.3,0.3,1.3,0.9,1.9,1.3c0.1,0,0.1,0.1,0.2,0.1c0,0-0.1,0-0.1-0.1C17.8,2.4,16.9,1.7,16.5,1.5z M21.8,4.2c1.8,1.5,3.9,3.2,4.5,3.1
		c0.1,0,0.1,0,0.1,0c0,0,0-0.1,0-0.2c0-0.1-0.1-0.3-0.3-0.5c-0.7-0.1-2.7-1.5-5.2-3.3c-0.1-0.1-0.2-0.2-0.4-0.3
		c-0.2-0.1-0.4-0.2-0.5-0.3c0.3,0.2,0.6,0.5,1,0.8C21.5,3.9,21.8,4.1,21.8,4.2C21.8,4.2,21.8,4.2,21.8,4.2z M18.4,1.8
		c-0.1-0.1-0.2-0.2-0.3-0.2C18.2,1.6,18.3,1.7,18.4,1.8z M25.2,5.9c-0.8-0.6-1.8-1.2-2.8-1.8C23.6,5,25,5.9,25.8,6.3
		C25.6,6.1,25.4,6,25.2,5.9z M19.6,1.5c0.1,0.3,1.7,1.2,3,2c0.1,0,0.1,0.1,0.2,0.1c-0.1-0.1-0.2-0.2-0.3-0.2
		c-1.4-0.8-2.3-1.4-2.4-1.8c0,0,0,0,0,0C19.9,1.5,19.8,1.5,19.6,1.5C19.6,1.5,19.6,1.5,19.6,1.5z M25.6,5.9c0.2,0.2,0.4,0.4,0.6,0.5
		c0,0,0,0,0,0c0-0.1-0.1-0.2-0.4-0.4C25.8,5.9,25.7,5.9,25.6,5.9z M20.6,2c0.2,0.1,0.4,0.3,0.6,0.4C21,2.2,20.8,2.1,20.6,2z
		 M23.6,4.1c0.2,0.1,0.3,0.3,0.5,0.4c0.8,0.5,1.4,0.9,1.8,1.3c0,0,0,0,0.1,0c0,0,0,0,0,0C26,5.5,24.7,4.7,23.6,4.1z M21,1.9
		c0.5,0.3,1,0.8,1.7,1.3c0.2,0.1,0.5,0.3,0.7,0.4c0.3,0.2,0.6,0.3,0.9,0.5c-0.3-0.2-0.6-0.4-0.9-0.7c-0.5-0.4-1-0.8-1.4-1.1
		c0,0,0,0,0,0c-0.1-0.1-0.3-0.2-0.4-0.2c-0.4-0.3-0.8-0.5-1-0.5C20.6,1.7,20.8,1.8,21,1.9z M23.4,3.2C23.4,3.2,23.4,3.3,23.4,3.2
		c0.9,0.7,1.9,1.5,2.1,1.5C25.4,4.4,24.3,3.7,23.4,3.2z M22.3,2.4C22.1,2.2,22,2.1,21.8,2c0.1,0,0.1,0.1,0.2,0.1
		C22.1,2.2,22.2,2.3,22.3,2.4z M23.3,2.5L23.3,2.5L23.3,2.5z"/>
	<linearGradient id="SVGID_2_" gradientUnits="userSpaceOnUse" x1="23.101" y1="2.5324" x2="1.8352" y2="29.6197">
		<stop  offset="1.075300e-02" style="stop-color:#3542E0"/>
		<stop  offset="0.1748" style="stop-color:#3841DF"/>
		<stop  offset="0.2744" style="stop-color:#403FDA"/>
		<stop  offset="0.357" style="stop-color:#4E3CD2"/>
		<stop  offset="0.4301" style="stop-color:#6337C7"/>
		<stop  offset="0.4971" style="stop-color:#7D31B9"/>
		<stop  offset="0.5595" style="stop-color:#9E2AA8"/>
		<stop  offset="0.6173" style="stop-color:#C32193"/>
		<stop  offset="0.6236" style="stop-color:#C82091"/>
		<stop  offset="0.7612" style="stop-color:#F62B37"/>
		<stop  offset="1" style="stop-color:#FFC658"/>
	</linearGradient>
	<path class="st1" d="M12.9,18.9c-0.3-0.2-0.4-0.3-0.4-0.5c0-0.1,0-0.1,0-0.2c0,0,0.1-0.1,0.1-0.1c0.2,0,0.4,0.1,0.8,0.4
		c0,0,0-0.1,0-0.1c0.1-0.1,0.2-0.1,1.2,0.6c0.1,0.1,0.2,0.1,0.3,0.2c0.4,0.2,0.7,0.4,0.9,0.6c0.3,0.2,0.5,0.3,0.6,0.3
		c-0.1-0.2-1.1-0.8-1.6-1.1c-0.7-0.4-0.8-0.5-0.8-0.6c0,0,0-0.1,0-0.1c0.1-0.2,0.5-0.1,1.1,0.3c-0.3-0.2-0.3-0.2-0.3-0.3
		c0,0,0-0.1,0-0.1c0.1-0.1,0.2-0.1,0.6,0.1c0,0-0.1-0.1-0.1-0.1c0,0,0-0.1,0-0.1c0.1-0.1,0.1-0.1,0.9,0.4c0.4,0.3,1.2,0.7,1.4,0.8
		c-0.2-0.2-1-0.7-1.4-0.9c-0.6-0.3-0.6-0.4-0.6-0.4c0,0,0-0.1,0-0.1c0.1-0.1,0.3-0.1,1.1,0.3c-0.5-0.3-0.6-0.4-0.7-0.5
		c0,0,0-0.1,0-0.1c0.1-0.1,0.3-0.1,1.2,0.5c0,0,0,0,0,0c-0.6-0.3-0.8-0.5-0.9-0.7c0,0,0-0.1,0-0.1c0.1-0.1,0.2-0.1,0.9,0.4
		c0.2,0.1,0.4,0.2,0.7,0.4C18.2,18,18.1,18,18,17.9c-0.8-0.5-1-0.7-1-0.8c0,0,0-0.1,0-0.1c0.1-0.1,0.3,0,1,0.4
		c0.3,0.2,1,0.5,1.2,0.6c-0.1-0.2-0.8-0.6-1.2-0.8c-0.5-0.3-0.6-0.4-0.6-0.5c0,0,0-0.1,0-0.1c0.1-0.1,0.2-0.1,0.5,0.1
		c-0.3-0.2-0.4-0.3-0.4-0.4c0,0,0-0.1,0-0.1c0.1-0.1,0.2-0.1,1.1,0.4c0.3,0.1,0.7,0.4,0.9,0.5c-0.2-0.2-0.6-0.4-0.9-0.5
		c-0.6-0.4-0.9-0.5-0.9-0.6c0,0,0-0.1,0-0.1c0-0.1,0.1-0.1,0.2-0.1c0,0-0.1-0.1-0.1-0.1c0,0,0-0.1,0-0.1c0.1-0.1,0.2-0.1,0.8,0.2
		c0.3,0.1,0.8,0.4,1.1,0.5c-0.1-0.1-0.3-0.2-0.4-0.3c-0.9-0.5-1.3-0.8-1.4-1c0-0.1,0-0.1,0-0.1c0-0.1,0.1-0.1,0.3,0
		c-0.2-0.1-0.2-0.2-0.2-0.3c0,0,0-0.1,0-0.1c0.1-0.2,0.5,0,1.2,0.4c0.3,0.2,0.7,0.4,0.9,0.5c-0.2-0.2-0.7-0.4-1.1-0.6
		c-0.8-0.4-1.1-0.6-1.2-0.8c0-0.1,0-0.1,0-0.1c0.1-0.1,0.3,0,1.1,0.5c0.4,0.2,0.9,0.6,1.2,0.7c-0.2-0.3-1.2-0.8-1.6-1.1
		c-0.6-0.4-0.7-0.4-0.7-0.5c0,0,0-0.1,0-0.1c0.2-0.2,0.6,0,1.4,0.5c0.2,0.1,0.5,0.3,0.8,0.4c-0.2-0.2-0.6-0.4-0.8-0.5
		c-1.2-0.8-1.7-1.1-1.7-1.3c0,0,0-0.1,0-0.1c0,0,0,0,0.1-0.1c-0.5-0.3-0.8-0.6-0.8-0.8c0-0.1,0-0.1,0-0.2c0-0.1,0.1-0.1,0.2,0
		c0.1,0,0.1,0.1,0,0.2c0,0,0,0,0,0c0.1,0.3,1.3,1,2.1,1.4c1,0.6,1.4,0.8,1.4,0.9c0,0,0,0.1,0,0.1c-0.1,0.2-0.4,0-1.2-0.6
		c-0.4-0.3-1.1-0.8-1.4-0.9c0.2,0.2,1,0.7,1.5,1c1,0.6,1.2,0.7,1.2,0.9c0,0,0,0.1,0,0.1c-0.1,0.2-0.4,0.1-0.9-0.2
		c0.6,0.4,0.9,0.6,0.9,0.8c0,0.1,0,0.1,0,0.2c0,0-0.1,0.1-0.1,0.1c0.1,0.1,0.1,0.1,0.1,0.2c0,0.1,0,0.1,0,0.2
		c-0.1,0.2-0.5,0-1.3-0.4c-0.2-0.1-0.6-0.3-0.8-0.4c0.2,0.2,0.7,0.5,1,0.7c0.8,0.5,0.9,0.6,0.9,0.7c0,0,0,0.1,0,0.1
		c-0.1,0.1-0.1,0.1-1-0.4c-0.3-0.1-0.6-0.3-0.9-0.5c0.3,0.2,0.7,0.5,1,0.6c0.6,0.4,0.8,0.5,0.8,0.6c0,0,0,0.1,0,0.1
		c-0.1,0.2-0.4,0.1-1.1-0.2c0.6,0.3,0.9,0.5,0.9,0.7c0,0.1,0,0.1,0,0.1c0,0.1-0.1,0.1-0.2,0.1c0,0,0.1,0.1,0.1,0.1c0,0,0,0.1,0,0.1
		c-0.1,0.2-0.4,0-1.4-0.5c0,0-0.1,0-0.1-0.1c0.2,0.1,0.3,0.2,0.5,0.3c0.7,0.5,0.8,0.5,0.8,0.6c0,0,0,0.1,0,0.1c0,0.1-0.1,0.1-0.2,0
		c0,0,0.1,0.1,0.1,0.1c0,0.1,0,0.1,0,0.2c-0.1,0.2-0.5,0-1.4-0.4c0,0,0,0,0.1,0c0.8,0.5,0.9,0.6,1,0.7c0,0,0,0.1,0,0.1
		c-0.1,0.1-0.2,0.1-0.5,0c0.1,0.1,0.2,0.2,0.2,0.3c0,0,0,0.1,0,0.1c-0.1,0.1-0.3,0.1-0.9-0.3c0.4,0.3,0.6,0.4,0.6,0.5
		c0,0,0,0.1,0,0.1c-0.1,0.1-0.1,0.1-0.7-0.2c0.2,0.1,0.3,0.3,0.3,0.4c0,0.1,0,0.1,0,0.2c-0.1,0.1-0.2,0.1-0.4,0c0,0,0.1,0.1,0.1,0.1
		c0,0,0,0.1,0,0.1c-0.1,0.1-0.3,0.1-1.2-0.5c-0.2-0.1-0.5-0.3-0.7-0.4c0.1,0,0.1,0.1,0.1,0.1c1,0.6,1.3,0.9,1.3,1c0,0,0,0.1,0,0.1
		c-0.1,0.1-0.3,0-1.1-0.5c-0.4-0.3-1.3-0.8-1.7-0.9c0.1,0.1,0.3,0.2,0.5,0.3c1,0.5,1.6,0.9,1.7,1.2c0,0.1,0,0.1,0,0.2
		c-0.1,0.1-0.1,0.1-0.3,0c0,0.1,0,0.1,0,0.2c0,0-0.1,0.1-0.1,0.1c-0.1,0-0.2,0-0.4-0.1c0,0,0,0.1,0,0.1c0,0,0,0.1,0,0.1
		c-0.1,0.1-0.2,0-0.2-0.1c-0.1-0.1-0.8-0.5-1.3-0.8C13.7,19.4,13.2,19.1,12.9,18.9z M12.7,18.4c0.1,0.2,1.1,0.8,1.7,1.2
		c0.1,0.1,0.2,0.1,0.3,0.2c-0.1-0.1-0.2-0.1-0.3-0.2C13.9,19.1,12.9,18.4,12.7,18.4z M14.2,19.1c0.1,0.1,0.2,0.2,0.3,0.2
		c0.6,0.4,1.3,1,1.5,1c0-0.1-0.1-0.2-0.3-0.3c-0.2-0.1-0.6-0.3-1-0.6C14.6,19.3,14.4,19.2,14.2,19.1C14.3,19.1,14.3,19.1,14.2,19.1z
		 M8.6,18.3c-0.1-0.1-0.2-0.1-0.2-0.2c0,0,0-0.1,0-0.1c0.1-0.2,0.5,0,1.8,0.8c-0.1-0.1-0.2-0.1-0.3-0.2c-1.8-1.2-2.1-1.4-2.1-1.5
		c0,0,0-0.1,0-0.1c0.1-0.1,0.1-0.1,0.2-0.1c-0.4-0.2-0.5-0.3-0.5-0.4c0,0,0-0.1,0-0.1c0,0,0.1-0.1,0.1-0.1c0.1,0,0.2,0,0.4,0.1
		c-0.5-0.4-0.8-0.6-0.8-0.8c0,0,0-0.1,0-0.1c0.1-0.2,0.3-0.1,0.7,0c-0.5-0.3-0.8-0.5-0.8-0.7c0-0.1,0-0.1,0-0.2
		c0.1-0.2,0.3,0,1.1,0.5C8.8,15.4,9.6,16,9.9,16c-0.2-0.2-0.7-0.5-1.1-0.7c-1-0.6-1.5-0.9-1.6-1.1c0-0.1,0-0.1,0-0.1
		c0.2-0.2,0.5,0,1.3,0.5c0.3,0.2,0.7,0.5,1,0.6c-0.3-0.2-0.8-0.5-1.1-0.8c-1-0.7-1.1-0.7-1.1-0.8c0,0,0-0.1,0-0.1
		c0.1-0.2,0.3,0,1.1,0.4c0.3,0.2,0.8,0.5,1.1,0.6c-0.2-0.1-0.6-0.4-0.9-0.5c-0.8-0.5-1.2-0.7-1.2-0.9c0,0,0-0.1,0-0.1
		c0,0,0.1-0.1,0.1-0.1c0,0,0-0.1,0-0.1c0-0.1,0-0.1,0-0.2c0.1-0.2,0.6,0,1.5,0.5c-0.3-0.2-0.6-0.4-0.8-0.5c-0.6-0.3-0.6-0.4-0.6-0.5
		c0,0,0-0.1,0-0.1C7.6,12,7.7,12,8.3,12.3c0.3,0.2,0.9,0.5,1.3,0.6c-0.2-0.1-0.5-0.3-0.7-0.4c-0.7-0.4-1.1-0.6-1.1-0.8
		c0,0,0-0.1,0-0.1c0.1-0.1,0.2-0.1,1.1,0.4c0.2,0.1,0.6,0.3,0.8,0.4c-0.2-0.2-0.6-0.4-0.8-0.5c-0.6-0.3-0.9-0.5-0.9-0.6
		c0,0,0-0.1,0-0.1c0.1-0.2,0.5,0,1.6,0.5c0,0,0,0,0,0c-0.2-0.1-0.3-0.2-0.5-0.3c-0.7-0.5-0.8-0.5-0.8-0.6c0,0,0-0.1,0-0.1
		c0.1-0.1,0.1-0.1,0.4,0.1c-0.1-0.1-0.2-0.2-0.2-0.2c0-0.1,0-0.1,0-0.2c0.1-0.2,0.3,0,1.1,0.4c0.3,0.2,0.9,0.5,1.1,0.5
		c-0.2-0.2-0.8-0.5-1.1-0.7C9,10,8.9,10,8.9,9.9c0,0,0-0.1,0-0.1C9,9.7,9,9.7,9.2,9.8C9.1,9.7,9.1,9.7,9.1,9.6c0,0,0-0.1,0-0.1
		c0.1-0.1,0.2-0.1,0.4,0c0,0-0.1-0.1-0.1-0.1c0,0,0-0.1,0-0.1c0.1-0.1,0.2-0.1,1.1,0.4c0.3,0.1,0.6,0.3,0.9,0.5
		c-0.1-0.1-0.3-0.2-0.4-0.3c-1-0.6-1.1-0.8-1.2-0.9c0,0,0-0.1,0-0.1c0.1-0.2,0.5,0,1.4,0.6c0.3,0.2,0.7,0.4,1,0.6
		c-0.2-0.2-0.6-0.4-0.8-0.5c-0.8-0.5-1.1-0.7-1.1-0.8c0,0,0-0.1,0-0.1c0.1-0.1,0.2-0.1,0.5,0.1c0,0-0.1-0.1-0.1-0.1
		c0-0.1,0-0.1,0-0.2c0.1-0.2,0.3,0,1.4,0.6c0.5,0.3,1.3,0.8,1.7,0.9c-0.2-0.2-0.6-0.4-1-0.6c-1-0.6-1.4-0.9-1.5-1.1c0,0,0-0.1,0-0.1
		c0.1-0.1,0.3-0.1,0.8,0.2c-0.1-0.1-0.1-0.2-0.1-0.2c0-0.1,0-0.1,0-0.2c0,0,0.1-0.1,0.1-0.1c0.1,0,0.3,0.1,0.6,0.3
		c-0.1-0.1-0.1-0.1-0.1-0.2c0-0.1,0-0.1,0-0.2c0.1-0.1,0.1-0.1,0.2-0.1c0.1,0,0.2,0,0.3,0c0,0,0.1,0,0.1-0.1c0.2,0,0.5,0.1,0.8,0.3
		c0,0,0,0,0,0c0,0,0-0.1,0-0.1c0,0,0.1-0.1,0.1-0.1c0.2,0,0.6,0.3,1.7,1.1c1.1,0.8,2.6,1.9,3.1,1.9c0,0,0,0,0,0
		c-0.1-0.2-1-0.7-1.7-1.1c-1.2-0.7-1.9-1.1-2-1.4c0-0.1,0-0.1,0-0.2c0,0,0.1-0.1,0.1-0.1C16,7.7,16.4,8,17,8.5c0,0,0,0,0,0
		c0-0.1,0.2-0.1,0.2,0c0.1,0,0.2,0.2,0.4,0.2c0.6,0.4,0.8,0.5,0.8,0.6c0,0,0,0.1,0,0.1c0,0-0.1,0.1-0.1,0.1c0,0-0.1,0-0.1,0
		c0.9,0.5,1.2,0.8,1.3,1c0,0.1,0,0.1,0,0.1c0,0-0.1,0.1-0.2,0.1c0,0-0.1,0-0.1,0c0.6,0.4,0.9,0.7,0.9,0.9c0,0.1,0,0.1,0,0.2
		c0,0-0.1,0.1-0.1,0.1c-0.3,0-1.2-0.6-2.8-1.8c-1.2-0.9-2.6-2-3.3-2.3c0.6,0.4,1.6,1.1,2.7,2.1c0.2,0.2,0.5,0.3,0.7,0.4
		c2.2,1.3,3.1,2,3.2,2.3c0,0,0,0.1,0,0.1c0,0,0,0,0,0c0.1,0.1,0.2,0.2,0.2,0.3c0,0.1,0,0.1,0,0.2c-0.1,0.1-0.2,0.2-0.3,0.2
		c-0.8,0.1-2.9-1.5-4.8-3.1c-0.2-0.1-0.6-0.3-1.6-0.9c-0.6-0.4-1.6-1-2-1.2C12.1,8.5,12.6,8.8,13,9c0.9,0.6,1.2,0.8,1.2,0.9
		c0,0,0,0.1,0,0.1c-0.1,0.2-0.4,0.1-1.1-0.3c0.1,0.1,0.1,0.1,0.1,0.2c0,0,0,0.1,0,0.1c-0.1,0.1-0.2,0.1-0.9-0.3
		c0.2,0.2,0.3,0.3,0.4,0.3c0,0,0,0.1,0,0.1c-0.1,0.2-0.5,0-1.5-0.6c-0.2-0.1-0.4-0.2-0.5-0.3c0.2,0.1,0.4,0.2,0.5,0.3
		c0.9,0.6,0.9,0.6,1,0.7c0,0,0,0.1,0,0.1c-0.1,0.1-0.3,0.1-1-0.3c0.3,0.2,0.4,0.3,0.5,0.4c0,0.1,0,0.1,0,0.2c-0.2,0.2-0.5,0-1.2-0.5
		c-0.2-0.1-0.5-0.3-0.7-0.5c0.2,0.2,0.6,0.4,0.8,0.5c0.8,0.5,0.8,0.5,0.8,0.6c0,0,0,0.1,0,0.1c-0.1,0.1-0.1,0.1-0.2,0.1c0,0,0,0,0,0
		c0,0,0,0.1,0,0.1c-0.2,0.2-0.6,0-1.5-0.5c-0.2-0.1-0.5-0.3-0.7-0.3C9,10.7,9.6,11,10,11.2c0.5,0.3,0.6,0.4,0.6,0.4c0,0,0,0.1,0,0.1
		c-0.1,0.1-0.2,0.1-0.4,0c0.1,0.1,0.2,0.1,0.2,0.2c0,0,0,0.1,0,0.1c-0.1,0.1-0.2,0.1-0.9-0.3c-0.3-0.2-0.9-0.4-1.2-0.5
		c0.2,0.1,0.4,0.3,0.7,0.4c0.7,0.4,1.1,0.6,1.1,0.8c0,0.1,0,0.1,0,0.1c-0.1,0.1-0.3,0.1-1.3-0.5c-0.1,0-0.1-0.1-0.2-0.1
		c0.1,0.1,0.3,0.2,0.4,0.2c0.7,0.4,0.9,0.5,0.9,0.7c0,0,0,0.1,0,0.1c-0.1,0.1-0.3,0.1-0.7-0.1c0.4,0.2,0.5,0.4,0.6,0.5
		c0,0,0,0.1,0,0.1c-0.1,0.1-0.1,0.1-0.7-0.3c-0.4-0.2-1.2-0.7-1.4-0.7c0.1,0.2,0.8,0.6,1.2,0.8c0.6,0.4,0.9,0.5,0.9,0.6
		c0,0,0,0.1,0,0.1c0,0-0.1,0.1-0.1,0.1c0.1,0.1,0.2,0.2,0.2,0.2c0,0,0,0.1,0,0.1c-0.1,0.2-0.4,0.1-1-0.3c0.9,0.6,1.2,0.8,1.2,0.9
		c0,0,0,0.1,0,0.1c-0.2,0.3-0.7-0.1-1.5-0.6c-0.3-0.2-0.7-0.5-0.9-0.6c0.2,0.2,0.9,0.6,1.4,0.9c0.9,0.5,1.2,0.7,1.3,0.9
		c0,0,0,0.1,0,0.1c-0.1,0.1-0.1,0.1-0.3,0.1c0.7,0.4,1,0.7,1.1,0.9c0,0.1,0,0.1,0,0.2c-0.1,0.1-0.2,0.1-1-0.4
		c-0.5-0.3-2.1-1.4-2.4-1.2c0.2,0.3,2.1,1.5,3.6,2.5c2.5,1.6,3.6,2.3,3.6,2.6c0,0,0,0.1,0,0.1C14.7,21,14.6,21,14.4,21
		c-0.2,0-0.3,0-0.6-0.1c0,0.1-0.1,0.1-0.2,0.1c-0.1,0-0.3,0-0.5-0.2C13.1,21,13,21,12,20.2c0,0.1,0.1,0.1,0.1,0.2c0,0.1,0,0.1,0,0.2
		c0,0.1-0.1,0.1-0.2,0c-0.1,0-0.1-0.1,0-0.2c0.1-0.3-1.6-1.2-2.3-1.6C9,18.6,8.7,18.4,8.6,18.3z M8.1,17.1c0.2,0.2,1.2,0.8,2,1.4
		c0.2,0.2,0.4,0.3,0.6,0.4C9.7,18,8.6,17,8.1,17.1C8.1,17,8.1,17.1,8.1,17.1z M12.7,20.2c0.1,0.1,0.2,0.1,0.2,0.2
		c0.3,0.2,0.5,0.3,0.6,0.4C13.3,20.7,13,20.5,12.7,20.2z M10.6,18.3c1.1,0.9,2.2,1.8,3,2.3C13.4,20,12,19.1,10.6,18.3z M13.2,19.7
		c0.4,0.3,0.7,0.6,0.7,0.9c0,0,0,0.1,0,0.1c0.2,0.1,0.3,0.1,0.5,0.1c0,0,0.1,0,0.1,0C14.4,20.6,13.9,20.2,13.2,19.7z M9,17
		c0.2,0.1,0.4,0.3,0.6,0.5c0.4,0.2,0.7,0.4,1.1,0.6C10,17.6,9.4,17.3,9,17z M7.5,14.9c0.1,0.1,0.4,0.2,0.6,0.4
		C7.9,15.1,7.7,15,7.5,14.9z M10.4,16.9c-0.2-0.2-0.5-0.3-0.8-0.5c0.1,0.1,0.3,0.2,0.4,0.3c0.2,0.1,0.4,0.3,0.5,0.3
		C10.5,17,10.5,16.9,10.4,16.9z M7.6,13.1c0.2,0.2,0.7,0.4,1,0.7C8.3,13.5,7.8,13.2,7.6,13.1z M11.2,10.5c-0.2-0.1-0.5-0.3-0.8-0.4
		C10.8,10.3,11.1,10.5,11.2,10.5C11.3,10.6,11.3,10.6,11.2,10.5z M11.1,8.5c0.2,0.2,0.8,0.5,1.2,0.7c0,0,0.1,0,0.1,0.1
		c-0.1-0.1-0.2-0.1-0.3-0.2C11.7,8.9,11.3,8.6,11.1,8.5z M12.3,8c0.1,0.2,0.9,0.7,1.6,1.1C13.2,8.5,12.6,8,12.3,8z M15.6,10.3
		c1.7,1.4,3.8,3,4.5,3c0.1,0,0.1,0,0.2-0.1c0-0.1-0.1-0.1-0.2-0.2c-0.4,0-1.3-0.6-2.5-1.7c-0.3-0.2-0.7-0.4-1-0.6
		c-1-0.6-1.8-1.1-2.5-1.5c0.2,0.2,0.5,0.4,0.8,0.6c0.1,0.1,0.2,0.1,0.3,0.2C15.6,10.1,15.6,10.2,15.6,10.3
		C15.6,10.2,15.6,10.3,15.6,10.3z M13.3,7.8c-0.1,0-0.1,0-0.2,0c-0.1,0-0.1,0-0.1,0c0,0.3,2,1.5,3.6,2.5c-0.1-0.1-0.1-0.1-0.2-0.2
		C14.5,8.9,13.3,8.2,13.3,7.8C13.3,7.8,13.3,7.8,13.3,7.8z M17.6,10.9c0,0,0.1,0.1,0.1,0.1c1.1,0.7,1.9,1.2,2.4,1.6
		C19.8,12.3,18.7,11.6,17.6,10.9z M13.6,7.9c0.2,0.2,0.8,0.7,1.5,1.1C14.5,8.6,14,8.1,13.6,7.9z M16.6,9.3c0.2,0.2,0.5,0.4,0.7,0.5
		c1,0.8,2.3,1.8,2.6,1.8C19.8,11.3,17.8,10.1,16.6,9.3C16.6,9.4,16.6,9.3,16.6,9.3z M15.8,8c0.1,0.2,1,0.8,1.7,1.1
		c-0.1-0.1-0.3-0.2-0.5-0.3C16.7,8.5,16,8,15.8,8z M17.2,8.6L17.2,8.6L17.2,8.6z M19.6,8.5C19.5,8.4,19.5,8.4,19.6,8.5
		c-0.1-0.1-0.1-0.2-0.1-0.2c0.1-0.1,0.3-0.1,0.9,0.2c0.1,0.1,0.3,0.1,0.4,0.2c-0.2-0.1-0.5-0.3-0.8-0.4c-0.7-0.4-0.9-0.5-1-0.7
		c0,0,0-0.1,0-0.1c0.1-0.1,0.3,0,0.9,0.4c0.4,0.2,1,0.7,1.2,0.8c-0.2-0.2-0.8-0.5-1.1-0.7c-0.8-0.5-1-0.6-1-0.7c0,0,0-0.1,0-0.1
		c0.2-0.3,0.7,0.1,1.6,0.7c0.3,0.2,0.7,0.5,0.9,0.6c-0.3-0.3-1.2-0.8-1.6-1.1c-0.7-0.4-0.7-0.5-0.8-0.5c0,0,0-0.1,0-0.1
		c0.1-0.1,0.1-0.1,1.4,0.6c0.1,0.1,0.3,0.1,0.4,0.2c0,0-0.1,0-0.1-0.1c-1-0.7-1.4-0.9-1.4-1.1c0,0,0-0.1,0-0.1
		c0.1-0.2,0.4,0,1.3,0.5c0.4,0.2,1,0.6,1.3,0.7c-0.1-0.1-0.6-0.4-1-0.6c-0.7-0.3-1-0.5-1.1-0.7c0-0.1,0-0.1,0-0.2
		c0.1-0.1,0.1-0.1,1,0.2c0.1,0,0.1,0,0.2,0.1C21.3,6.1,21.3,6,21.2,6c0,0,0-0.1,0-0.1c0-0.1,0.2-0.1,0.2,0c0,0,0.1,0.1,0.2,0.1
		c0.3,0.2,0.4,0.3,0.4,0.3c0,0,0,0.1,0,0.1c-0.1,0.1-0.1,0.1-0.9-0.2c-0.2-0.1-0.4-0.1-0.6-0.2c0.2,0.1,0.6,0.3,0.8,0.5
		c0.7,0.3,1.1,0.6,1.1,0.8c0,0.1,0,0.1,0,0.2c-0.2,0.2-0.6,0-1.6-0.6c-0.2-0.1-0.4-0.2-0.6-0.3c0.3,0.2,0.7,0.4,0.9,0.6
		c0.9,0.6,1.1,0.7,1.1,0.8c0,0,0,0.1,0,0.1c-0.1,0.1-0.1,0.1-0.9-0.3C21.8,8,22,8.2,22,8.4c0,0.1,0,0.1,0,0.1
		c-0.1,0.1-0.2,0.1-0.4,0c0.1,0.1,0.1,0.1,0.1,0.2c0,0,0,0.1,0,0.1c-0.1,0.1-0.2,0.1-0.4,0c0,0,0,0.1,0,0.1C21.1,9,21,9,20.4,8.7
		c0,0-0.1,0-0.1,0c0,0,0,0,0,0.1c0,0,0,0.1,0,0.1c-0.1,0.1-0.2,0-0.2,0c-0.1-0.1-0.2-0.2-0.3-0.2C19.7,8.5,19.6,8.5,19.6,8.5z
		 M20.3,7.7c-0.3-0.2-0.5-0.4-0.7-0.4C19.8,7.3,20.1,7.5,20.3,7.7z M21.4,6L21.4,6L21.4,6z M6.2,24.6c-0.3-0.2-0.4-0.3-0.4-0.4
		c0,0,0-0.1,0-0.1c0,0,0.1-0.1,0.1-0.1c0.1,0,0.4,0.1,1,0.6c0,0,0,0,0,0c0,0,0-0.1,0-0.1c0.1-0.2,0.6-0.1,1.3,0.4c0,0,0-0.1,0-0.1
		c0,0,0-0.1,0-0.1c0.1-0.1,0.4-0.1,1.2,0.4c0-0.1-0.1-0.1-0.1-0.1c0-0.1,0-0.1,0-0.2c0.1-0.2,0.5-0.1,1,0.2c0,0,0,0,0,0
		c0,0,0-0.1,0-0.1c0-0.1,0.1-0.1,0.2-0.1c0.3,0,0.9,0.4,1.9,1.2c0.8,0.6,1.7,1.3,2,1.3c0,0,0,0,0,0c-0.5-0.3-1.2-0.8-2-1.4
		c-0.2-0.1-0.3-0.2-0.5-0.3c-0.6-0.4-0.7-0.4-0.7-0.5c0,0,0-0.1,0-0.1c0,0,0.1,0,0.1-0.1c0.1,0,0.2,0,0.5,0.3c0,0,0,0,0-0.1
		c0-0.1,0-0.1,0-0.1c0.1-0.1,0.3-0.1,0.6,0.1c0,0,0-0.1,0-0.1c0.1-0.1,0.3-0.1,0.7,0.2c0,0,0,0,0,0c0,0,0-0.1,0-0.1
		c0-0.1,0.1-0.1,0.2-0.1c0.1,0,0.3,0,0.6,0.2c0,0,0,0,0-0.1c0,0,0.1-0.1,0.1-0.1c0.1,0,0.2,0,0.4,0.1c0,0,0-0.1,0-0.1
		c0-0.1,0.1-0.1,0.2-0.1c0.2,0,0.4,0.1,0.7,0.2c0,0,0,0,0,0c0,0,0-0.1,0-0.1c0,0,0.1-0.1,0.1-0.1c0.1,0,0.3,0,0.5,0.1c0,0,0,0,0-0.1
		c0.1-0.1,0.3-0.1,0.6,0.1c0,0,0-0.1,0-0.1c0,0,0.1-0.1,0.1-0.1c0.1,0,0.2,0,0.4,0.1c0,0,0-0.1,0-0.1c0.2-0.2,0.7,0.1,2,0.9
		c0.5,0.3,1.1,0.7,1.5,0.9c-0.3-0.2-0.7-0.5-1.1-0.7c-1.2-0.8-1.4-1-1.5-1.1c0,0,0-0.1,0-0.1c0,0,0.1,0,0.1,0c0.1,0,0.1,0,0.5,0.3
		c0,0,0-0.1,0-0.1c0-0.1,0-0.1,0-0.2c0.1-0.1,0.2-0.1,0.7,0.2c0,0,0-0.1-0.1-0.1c0-0.1,0-0.1,0-0.1c0.1-0.1,0.2-0.1,1.3,0.5
		c0.6,0.4,1.7,1,1.9,1c-0.1-0.2-1.1-0.8-1.5-1c-0.6-0.4-0.8-0.4-0.8-0.5c0,0,0-0.1,0-0.1c0.1-0.2,0.4-0.1,0.8,0.1
		c-0.1-0.1-0.1-0.1-0.1-0.2c0,0,0-0.1,0-0.1c0.2-0.2,0.6,0,1.5,0.7c0.3,0.2,0.7,0.5,0.9,0.6c0,0-0.1-0.1-0.1-0.1
		c-0.2-0.1-0.5-0.3-0.8-0.5c-0.2-0.1-0.4-0.3-0.6-0.3c-0.5-0.3-0.5-0.3-0.6-0.4c0,0,0-0.1,0-0.1c0.1-0.1,0.2-0.1,0.4,0
		c0,0,0,0,0-0.1c0,0,0-0.1,0-0.1c0.1-0.2,0.4,0,1.6,0.5c0.2,0.1,0.3,0.2,0.5,0.2c-0.2-0.1-0.4-0.2-0.5-0.3c-0.7-0.4-1-0.6-1-0.7
		c0,0,0-0.1,0-0.1c0.1-0.1,0.3-0.1,1.5,0.5c0.2,0.1,0.5,0.2,0.6,0.3c-0.3-0.2-0.8-0.5-1.1-0.7C23,23.4,23,23.4,23,23.3
		c0,0,0-0.1,0-0.1c0.1-0.2,0.5,0,1.3,0.5c0.3,0.1,0.6,0.3,0.8,0.4c-0.2-0.2-0.7-0.5-1-0.6c-0.6-0.3-0.8-0.4-0.8-0.5c0,0,0-0.1,0-0.1
		c0.1-0.1,0.1-0.1,0.3,0c-0.1-0.1-0.1-0.1-0.2-0.2c0,0,0-0.1,0-0.1c0.2-0.2,0.5,0,1.2,0.4c0.2,0.1,0.6,0.4,0.8,0.4
		c-0.2-0.2-0.6-0.4-0.9-0.6c-0.7-0.4-0.9-0.5-0.9-0.6c0,0,0-0.1,0-0.1c0-0.1,0.1-0.1,0.2-0.1c0,0-0.1-0.1-0.1-0.1c0,0,0-0.1,0-0.1
		c0.1-0.1,0.1-0.1,1,0.3c0.3,0.1,0.8,0.3,1,0.4c-0.2-0.2-0.8-0.5-1.1-0.7c-0.7-0.4-0.8-0.5-0.8-0.6c0,0,0-0.1,0-0.1
		c0-0.1,0.1-0.1,0.2-0.1c-0.1-0.1-0.1-0.1-0.1-0.2c0,0,0-0.1,0-0.1c0.1-0.1,0.2-0.1,0.9,0.3c0.4,0.2,1.1,0.6,1.3,0.6
		c-0.1-0.2-0.7-0.5-1.1-0.7c-0.7-0.4-1-0.6-1-0.7c0,0,0-0.1,0-0.1c0.1-0.1,0.2-0.1,0.9,0.3c0.3,0.2,1,0.5,1.2,0.6
		c-0.2-0.1-0.6-0.4-0.9-0.6c-0.8-0.5-1.1-0.7-1.2-0.8c0,0,0-0.1,0-0.1c0.1-0.1,0.1-0.1,0.7,0.3c0.3,0.2,1.1,0.7,1.4,0.7
		c-0.2-0.1-0.6-0.4-0.9-0.5c-0.8-0.5-1.2-0.7-1.3-0.9c0,0,0-0.1,0-0.1c0.1-0.1,0.3,0,1.1,0.4c0.2,0.1,0.5,0.3,0.7,0.4
		c-0.1-0.1-0.3-0.2-0.4-0.2c-0.9-0.5-1.4-0.8-1.4-1.1c0-0.1,0-0.1,0-0.1c0.1-0.2,0.5,0,1.5,0.5c0.2,0.1,0.5,0.3,0.7,0.4
		c-0.3-0.2-0.9-0.6-1.2-0.8c-0.7-0.4-0.9-0.5-0.9-0.7c0,0,0-0.1,0-0.1c0.1-0.1,0.1-0.1,0.2-0.1c-0.2-0.1-0.2-0.2-0.3-0.3
		c0,0,0-0.1,0-0.1c0,0,0.1-0.1,0.1-0.1c-0.1-0.1-0.1-0.1-0.1-0.2c0,0,0-0.1,0-0.1c0,0,0-0.1,0.1-0.1c-0.1-0.1-0.1-0.1-0.1-0.2
		c0-0.1,0-0.1,0-0.2c0-0.1,0.1-0.1,0.2-0.1c-0.1-0.1-0.2-0.2-0.2-0.2c0,0,0-0.1,0-0.1c0.2-0.2,0.6,0,1.4,0.5
		c0.3,0.2,0.7,0.4,0.9,0.5c-0.1-0.2-0.9-0.6-1.3-0.8c-0.7-0.4-1-0.6-1-0.7c0,0,0-0.1,0-0.1c0.1-0.1,0.1-0.1,0.5,0.1
		c-0.4-0.3-0.5-0.4-0.5-0.5c0,0,0-0.1,0-0.1c0.1-0.1,0.1-0.1,0.7,0.3c0.4,0.2,1.1,0.7,1.5,0.8c-0.2-0.2-0.7-0.5-1-0.7
		c-0.8-0.5-1.2-0.7-1.2-0.9c0,0,0-0.1,0-0.1c0.1-0.2,0.4,0,1.4,0.5c0.2,0.1,0.5,0.3,0.7,0.4c-0.3-0.2-0.9-0.6-1.2-0.8
		c-0.8-0.5-0.8-0.5-0.9-0.6c0,0,0-0.1,0-0.1c0.1-0.1,0.1-0.1,0.3-0.1c-0.2-0.2-0.3-0.3-0.3-0.3c0,0,0-0.1,0-0.1
		c0.1-0.1,0.2-0.1,0.4,0c-0.2-0.2-0.4-0.3-0.4-0.4c0-0.1,0-0.1,0-0.2c0.1-0.2,0.5,0,1.3,0.4c0.3,0.1,0.6,0.3,0.8,0.4
		c-0.3-0.2-0.8-0.5-1.1-0.8c-0.9-0.6-1-0.7-1-0.8c0,0,0-0.1,0-0.1c0.1-0.1,0.2-0.1,0.8,0.3c0.3,0.2,1,0.6,1.3,0.7
		c-0.2-0.1-0.4-0.3-0.6-0.4c-1-0.6-1.5-0.9-1.5-1.1c0,0,0-0.1,0-0.1c0.1-0.1,0.3,0,1.1,0.4c0.3,0.2,0.9,0.5,1.1,0.5
		c-0.3-0.2-0.9-0.7-1.4-0.9c-0.8-0.5-0.9-0.6-0.9-0.6c0,0,0-0.1,0-0.1c0-0.1,0.1-0.1,0.2-0.1c-0.1-0.1-0.2-0.2-0.2-0.3
		c0-0.1,0-0.1,0-0.2c0.1-0.1,0.3-0.1,0.7,0.1c-0.5-0.3-0.7-0.4-0.7-0.6c0-0.1,0-0.1,0-0.1c0.1-0.1,0.3,0,1,0.4
		c0.4,0.2,1,0.6,1.3,0.7c-0.2-0.2-1-0.7-1.4-0.9c-0.7-0.4-0.9-0.5-0.9-0.7c0,0,0-0.1,0-0.1c0.1-0.1,0.2-0.1,0.4-0.1
		c-0.3-0.2-0.4-0.4-0.5-0.5c0-0.1,0-0.1,0-0.1c0.1-0.2,0.4,0,1.1,0.5c0.4,0.2,1.1,0.7,1.2,0.7c-0.1-0.2-0.9-0.6-1.4-0.9
		c-0.8-0.4-1.1-0.6-1.1-0.8c0,0,0-0.1,0-0.1c0.1-0.2,0.5,0,1.4,0.5c0.3,0.2,0.7,0.4,0.9,0.5c-0.3-0.2-0.9-0.6-1.4-0.9
		c-1-0.6-1.2-0.8-1.3-0.9c0,0,0-0.1,0-0.1C23.9,6.3,24,6.3,25.1,7c0.5,0.3,1.2,0.7,1.4,0.7c-0.1-0.3-1.4-1-2-1.4
		c-1-0.6-1.4-0.8-1.4-1c0,0,0-0.1,0-0.1c0-0.1,0.1-0.1,0.2,0c0,0,0.1,0.1,0,0.1c0.1,0.1,0.8,0.5,1.3,0.8c1.3,0.7,2.1,1.2,2.2,1.5
		c0,0.1,0,0.1,0,0.2c-0.1,0.1-0.3,0.1-1.4-0.5c1,0.6,1.5,0.9,1.5,1.1c0,0,0,0.1,0,0.1c-0.1,0.2-0.5,0-1.4-0.5
		c-0.3-0.2-0.7-0.4-0.9-0.5C24.7,7.7,25,7.8,25.3,8c0.9,0.5,1.5,0.8,1.5,1.1c0,0.1,0,0.1,0,0.2c-0.2,0.2-0.7-0.1-1.6-0.6
		c-0.2-0.1-0.5-0.3-0.7-0.4c0.3,0.3,1.1,0.7,1.5,1c0.7,0.4,0.8,0.5,0.8,0.6c0,0,0,0.1,0,0.1c-0.1,0.2-0.4,0-1.1-0.4
		c-0.3-0.2-0.7-0.5-1-0.6c0.2,0.1,0.4,0.3,0.6,0.4c0.9,0.5,1.5,0.9,1.5,1.1c0,0.1,0,0.1,0,0.1c-0.1,0.1-0.3,0.1-0.7-0.1
		c0.5,0.3,0.7,0.5,0.8,0.6c0,0,0,0.1,0,0.1c-0.1,0.2-0.5,0-1.3-0.5c-0.3-0.2-0.8-0.5-1-0.6c0.1,0.1,0.4,0.4,0.8,0.6
		c0.1,0.1,0.3,0.2,0.4,0.3c0.2,0.1,0.3,0.2,0.4,0.2c0.6,0.3,0.7,0.4,0.7,0.5c0,0,0,0.1,0,0.1c-0.1,0.1-0.2,0.1-0.7-0.3
		c-0.1-0.1-0.3-0.2-0.5-0.3c-0.2-0.1-0.3-0.2-0.4-0.3c-0.2-0.1-0.3-0.2-0.5-0.2c0.2,0.1,0.4,0.2,0.6,0.4c1.1,0.7,1.5,1,1.6,1.2
		c0,0,0,0.1,0,0.1c-0.2,0.2-0.6,0-1.5-0.5c-0.2-0.1-0.4-0.2-0.6-0.3c0.3,0.2,0.9,0.6,1.2,0.8c0.8,0.5,0.9,0.6,0.9,0.7
		c0,0,0,0.1,0,0.1c-0.1,0.1-0.3,0.1-0.7-0.1c0.5,0.4,0.7,0.5,0.8,0.6c0,0,0,0.1,0,0.1c-0.1,0.2-0.5,0-1.3-0.4
		c-0.3-0.2-0.8-0.4-1-0.5c0.1,0.2,0.9,0.6,1.3,0.8c0.7,0.4,1,0.6,1,0.7c0,0,0,0.1,0,0.1c-0.1,0.1-0.3,0-1.3-0.5
		c-0.2-0.1-0.5-0.3-0.7-0.4c0.3,0.2,0.8,0.5,1.1,0.7c0.8,0.5,0.9,0.6,0.9,0.7c0,0,0,0.1,0,0.1c-0.1,0.1-0.2,0.1-0.3,0
		c0.2,0.2,0.3,0.3,0.3,0.4c0,0,0,0.1,0,0.1c-0.1,0.1-0.3,0-1.2-0.5c-0.2-0.1-0.5-0.3-0.7-0.4c0.2,0.2,0.5,0.3,0.8,0.5
		c0.8,0.5,1.2,0.7,1.2,0.9c0,0,0,0.1,0,0.1c-0.1,0.1-0.2,0.1-0.4,0.1c0.3,0.2,0.4,0.3,0.4,0.3c0,0,0,0.1,0,0.1c0,0,0,0.1-0.1,0.1
		c0.1,0.1,0.1,0.1,0.1,0.2c0,0.1,0,0.1,0,0.2c-0.1,0.2-0.5,0-1.2-0.5c-0.3-0.2-0.8-0.5-1-0.6c0.2,0.2,0.7,0.5,1.1,0.7
		c0.8,0.5,1.1,0.7,1.1,0.8c0,0,0,0.1,0,0.1c-0.1,0.1-0.3,0-0.9-0.4c-0.4-0.3-1.2-0.8-1.4-0.8c0.1,0.2,0.9,0.6,1.4,0.9
		c0.7,0.4,0.9,0.5,0.9,0.6c0,0,0,0.1,0,0.1c0,0-0.1,0.1-0.1,0c0.1,0.1,0.1,0.1,0.2,0.2c0,0.1,0,0.1,0,0.1c0,0.1-0.1,0.1-0.2,0.1
		c0.1,0.1,0.1,0.1,0.2,0.2c0,0,0,0.1,0,0.1c0,0-0.1,0.1-0.1,0.1c0.1,0.1,0.1,0.1,0.1,0.2c0,0.1,0,0.1,0,0.2
		c-0.1,0.1-0.3,0.1-1.1-0.4c-0.3-0.2-0.9-0.5-1.1-0.6c0.2,0.2,0.9,0.6,1.3,0.8c0.7,0.4,0.9,0.5,0.9,0.6c0,0,0,0.1,0,0.1
		c-0.1,0.2-0.5,0-1.4-0.5c-0.2-0.1-0.4-0.2-0.6-0.3c0.2,0.2,0.7,0.4,0.9,0.6c0.7,0.4,1,0.6,1.1,0.8c0,0,0,0.1,0,0.1
		c-0.1,0.1-0.2,0.1-0.5,0c0.3,0.2,0.4,0.3,0.5,0.4c0,0,0,0.1,0,0.1c-0.1,0.1-0.2,0.1-0.5,0c0.2,0.2,0.4,0.3,0.4,0.4
		c0,0.1,0,0.1,0,0.2c-0.1,0.1-0.3,0.1-0.6,0c0.3,0.2,0.4,0.3,0.4,0.4c0,0.1,0,0.1,0,0.1c0,0.1-0.1,0.1-0.2,0.1c0,0,0.1,0.1,0.1,0.1
		c0,0,0,0.1,0,0.1c-0.1,0.1-0.2,0.1-1.5-0.4c-0.1,0-0.2-0.1-0.2-0.1c0.2,0.1,0.4,0.2,0.6,0.4c0.7,0.4,0.9,0.6,0.9,0.7
		c0,0,0,0.1,0,0.1c0,0.1-0.1,0.1-0.2,0.1c0,0,0,0.1,0.1,0.1c0,0,0,0.1,0,0.1c-0.2,0.2-0.5,0-1.2-0.4c-0.2-0.1-0.4-0.2-0.6-0.3
		c0.1,0.1,0.3,0.2,0.4,0.2c0.8,0.4,1.1,0.7,1.2,0.9c0,0,0,0.1,0,0.1c0,0.1-0.1,0.1-0.2,0c0,0,0,0.1,0,0.1c0,0.1,0,0.1,0,0.2
		c-0.1,0.1-0.3,0.1-0.8-0.2c0.3,0.2,0.5,0.4,0.5,0.5c0,0.1,0,0.1,0,0.2c-0.1,0.1-0.1,0.1-1.1-0.4c-0.3-0.1-0.7-0.3-1-0.5
		c0.2,0.1,0.5,0.3,0.7,0.4c0.7,0.4,1,0.6,1,0.7c0,0,0,0.1,0,0.1c-0.1,0.1-0.2,0.1-1.2-0.4c-0.3-0.2-0.7-0.4-1-0.5
		c0.2,0.1,0.5,0.3,0.7,0.4c0.8,0.5,1,0.6,1,0.8c0,0,0,0.1,0,0.1c-0.1,0.1-0.1,0.1-0.3,0.1c0,0,0,0.1,0,0.1c-0.1,0.1-0.2,0.1-0.5-0.1
		c0.1,0.1,0.1,0.1,0.1,0.2c0,0,0,0.1,0,0.1c-0.1,0.1-0.2,0.1-0.9-0.4c-0.9-0.6-1.5-0.9-1.8-1c0.1,0.1,0.4,0.2,0.6,0.3
		c0.9,0.5,1.6,0.9,1.6,1.2c0,0.1,0,0.1,0,0.2c-0.2,0.2-0.7,0-2.2-0.9c-0.2-0.1-0.4-0.3-0.6-0.4c0.3,0.2,0.7,0.5,1,0.6
		c0.8,0.5,1.1,0.7,1.2,0.8c0,0,0,0.1,0,0.1c-0.1,0.1-0.2,0.1-0.5-0.1c0,0,0,0,0,0c0,0.1,0,0.1,0,0.2c0,0-0.1,0.1-0.2,0.1
		c-0.1,0-0.2,0-0.3,0c0,0,0,0,0,0.1c-0.1,0.2-0.4,0.1-1-0.3c0.1,0.1,0.2,0.2,0.2,0.3c0,0.1,0,0.1,0,0.2c0,0.1-0.1,0.1-0.2,0.1
		c-0.1,0-0.2,0-0.3-0.1c0,0,0,0,0,0c-0.1,0.1-0.2,0.1-0.6-0.2c0,0,0.1,0.1,0.1,0.1c0,0,0,0.1,0,0.1c0,0-0.1,0.1-0.1,0.1
		c-0.1,0-0.2,0-0.5-0.2c0,0,0,0,0,0.1c0,0,0,0.1,0,0.1c0,0-0.1,0.1-0.1,0.1c-0.1,0-0.4-0.1-0.7-0.3c0,0,0.1,0.1,0.1,0.1
		c0,0.1,0,0.1,0,0.2c0,0-0.1,0.1-0.1,0.1c-0.1,0-0.2,0-0.4-0.2c0,0,0,0.1,0,0.1c0,0-0.1,0.1-0.1,0.1c-0.1,0-0.3-0.1-0.7-0.4
		c0,0.1,0.1,0.1,0.1,0.1c0,0.1,0,0.1,0,0.2c-0.1,0.1-0.2,0.1-0.7-0.2c0,0,0,0,0,0c0,0.1,0,0.1,0,0.2c-0.1,0.1-0.2,0.1-0.6-0.2
		c0,0,0,0,0,0c0,0.1,0,0.1,0,0.2c0,0-0.1,0.1-0.1,0.1c-0.1,0-0.2,0-0.4-0.1c0,0,0,0,0,0c0,0.1-0.1,0.1-0.2,0.1
		c-0.2,0-0.4-0.1-0.7-0.2c0,0,0,0,0,0c0,0,0,0.1,0,0.1c-0.1,0.1-0.3,0.1-1.1-0.5c0.1,0.1,0.1,0.2,0.2,0.2c0,0.1,0,0.1,0,0.2
		c-0.1,0.2-0.3,0-2-1C10.1,25.7,9,25,8.5,24.8c0.3,0.2,0.8,0.5,1.2,0.7c1.2,0.7,2,1.2,2,1.5c0,0.1,0,0.1,0,0.2
		c-0.1,0.2-0.3,0.1-1.8-1c-0.9-0.6-2.4-1.7-2.8-1.7c0.2,0.2,1,0.7,1.6,1c1.3,0.8,1.9,1.2,2,1.4c0,0.1,0,0.1,0,0.1
		c0,0.1-0.1,0.1-0.2,0.1c-0.1,0-0.3,0-0.4-0.1c-0.1,0-0.1,0-0.1-0.1c-0.5-0.3-1.3-0.9-2.2-1.6C7,25.1,6.5,24.8,6.2,24.6z M7.6,25.2
		c0.1,0.1,0.1,0.1,0.2,0.2c0,0,0,0,0,0c1.4,0.9,2.1,1.3,2.2,1.6c0.1,0.1,0.3,0.1,0.3,0.1c0,0,0,0,0,0c-0.1-0.2-1.2-0.8-1.9-1.3
		C8.2,25.5,7.9,25.3,7.6,25.2z M11.2,26.7c-0.4-0.3-1-0.7-1.5-0.9c0.1,0.1,0.2,0.2,0.4,0.2c0.6,0.4,1.2,0.8,1.4,0.9
		C11.5,26.9,11.4,26.8,11.2,26.7z M12.4,26.8C12,26.5,11.5,26.2,11,26c-0.1,0-0.1-0.1-0.1-0.1c0,0,0,0,0.1,0c0.6,0.4,1.4,0.9,1.7,1
		C12.6,26.9,12.5,26.9,12.4,26.8z M12.2,26.4c0,0-0.1-0.1-0.1-0.1c-0.7-0.5-2.4-1.7-2.5-1.5c0,0.2,1,0.7,1.6,1
		C11.5,26,11.9,26.2,12.2,26.4z M10.6,24.9c0.3,0.2,1.2,0.9,1.8,1.3c0,0,0.1,0,0.1,0.1c-0.1-0.1-0.2-0.1-0.3-0.2
		C11.7,25.5,10.9,24.9,10.6,24.9z M14.4,26.6c0.1,0.1,0.2,0.2,0.2,0.3c0.2,0.1,0.3,0.1,0.3,0.1C15,27,14.7,26.8,14.4,26.6z
		 M12.1,24.9c0.2,0.2,0.9,0.6,1.4,0.9C13,25.4,12.4,25,12.1,24.9z M15.3,26.7c-0.3-0.2-0.7-0.5-1.1-0.7c0,0,0,0,0,0
		c0.5,0.4,1.1,0.8,1.3,0.9C15.5,26.9,15.4,26.8,15.3,26.7z M16,26.7c-0.4-0.3-1.1-0.7-1.5-0.9c0.1,0.1,0.2,0.1,0.2,0.2
		c0.6,0.4,1.3,0.9,1.5,1C16.3,26.9,16.2,26.8,16,26.7z M13.5,24.9c0.2,0.1,0.7,0.5,1.2,0.7c0.3,0.2,0.6,0.3,0.8,0.5
		c-0.1-0.1-0.2-0.1-0.3-0.2c-0.4-0.2-0.6-0.4-0.8-0.6C13.9,25,13.6,24.9,13.5,24.9z M14.3,24.9c0,0,0.1,0.1,0.1,0.1
		c0.3,0.2,0.5,0.4,0.8,0.6c0.2,0.2,0.5,0.3,0.7,0.4c0,0,0,0,0,0C15.4,25.6,14.6,25,14.3,24.9z M16.7,26.3c0.4,0.3,0.8,0.6,1,0.6
		C17.5,26.8,17.1,26.6,16.7,26.3z M16.3,25.7c-0.6-0.4-1.2-0.8-1.4-0.8c0,0.2,0.9,0.7,1.5,1c0.3,0.2,0.5,0.3,0.7,0.4
		c-0.1-0.1-0.2-0.1-0.2-0.2C16.7,26,16.5,25.8,16.3,25.7z M16.7,25.7c0.1,0.1,0.2,0.1,0.3,0.2c0.5,0.4,1.2,0.9,1.5,1
		C18.2,26.7,17.3,26.1,16.7,25.7z M16.5,25.3c-0.1-0.1-0.2-0.2-0.4-0.2C16.2,25.2,16.3,25.2,16.5,25.3z M17.5,25.2
		c-0.3-0.2-0.5-0.4-0.6-0.3c0,0,0.1,0.1,0.1,0.2c0.2,0.1,0.4,0.3,0.7,0.4c0.2,0.1,0.4,0.2,0.6,0.3C18,25.6,17.8,25.4,17.5,25.2z
		 M18.6,25.8c0.6,0.4,1.5,1.2,1.7,1.1C20.2,26.7,19.2,26.1,18.6,25.8C18.6,25.8,18.6,25.8,18.6,25.8z M17.6,24.9
		c0.2,0.2,0.8,0.5,1.2,0.7c0.1,0.1,0.2,0.1,0.4,0.2C18.6,25.4,17.9,25,17.6,24.9z M19.7,25.5C19.7,25.5,19.7,25.5,19.7,25.5
		c0.7,0.5,1.7,1.2,1.8,1.1c0-0.1-0.8-0.5-1.3-0.8C20.1,25.7,19.9,25.6,19.7,25.5z M19.2,24.9c0.1,0.1,0.4,0.3,0.7,0.4
		C19.6,25.2,19.4,25,19.2,24.9z M26,22c-0.1-0.1-0.2-0.2-0.4-0.2C25.7,21.8,25.8,21.9,26,22z M26.4,18.2c-0.1-0.1-0.2-0.1-0.3-0.2
		C26.2,18.1,26.3,18.2,26.4,18.2z M26.5,10.9c-0.2-0.2-0.6-0.4-1-0.6c-0.2-0.1-0.3-0.2-0.4-0.2c0.1,0.1,0.3,0.2,0.5,0.3
		C25.9,10.6,26.3,10.9,26.5,10.9C26.5,10.9,26.5,10.9,26.5,10.9z M23.2,5.3L23.2,5.3L23.2,5.3z M2.6,24.5c-0.1-0.1-0.1-0.1-0.1-0.2
		c0,0,0-0.1,0-0.1C2.2,24.1,2,23.9,2,23.7c0-0.1,0-0.2,0-0.2c0.1-0.1,0.3-0.1,1.9,1c-0.1-0.1-0.3-0.2-0.5-0.4
		c-0.7-0.4-1.2-0.8-1.6-1.2c-0.2-0.2-0.3-0.2-0.3-0.3c0,0,0,0,0,0c-0.1-0.2-0.2-0.3-0.2-0.4c0-0.1,0-0.2,0.1-0.3c0,0,0,0,0.1-0.1
		c-0.2-0.2-0.3-0.3-0.3-0.4c0-0.1,0-0.2,0-0.2c0-0.1,0.1-0.1,0.2-0.1c-0.2-0.1-0.3-0.3-0.3-0.4c0-0.1,0-0.1,0-0.2
		c0.1-0.2,0.4-0.1,0.8,0.2c-0.5-0.3-0.9-0.6-0.9-0.8c0-0.1,0-0.1,0-0.2c0.1-0.2,0.3,0,1.1,0.5c0.4,0.3,1.2,0.8,1.4,0.8
		c-0.1-0.2-0.9-0.7-1.4-0.9c-0.8-0.4-1.1-0.6-1.1-0.8c0,0,0-0.1,0-0.1c0-0.1,0.1-0.1,0.2-0.1C1.1,19.1,1,19,1,18.9c0,0,0-0.1,0-0.1
		c0-0.1,0.1-0.1,0.2-0.1C1.1,18.6,1,18.4,1,18.3c0-0.1,0-0.1,0-0.2c0.1-0.2,0.4,0,1.1,0.5c0.2,0.2,0.6,0.4,0.8,0.5
		c-0.2-0.1-0.5-0.3-0.7-0.5C1.2,18,1,17.9,1,17.8c0,0,0-0.1,0-0.1c0.1-0.1,0.2-0.1,0.4,0C1,17.4,1,17.4,0.9,17.3c0,0,0-0.1,0-0.1
		c0.1-0.1,0.2-0.1,0.8,0.3c0.4,0.2,1.3,0.8,1.5,0.8c-0.1-0.2-0.7-0.5-1.1-0.7c-0.8-0.5-1.2-0.7-1.2-0.9c0-0.1,0-0.1,0-0.1
		c0.1-0.1,0.3-0.1,0.9,0.2c-0.5-0.3-0.9-0.6-0.9-0.8c0-0.1,0-0.1,0-0.2c0,0,0,0,0.1-0.1c-0.1-0.1-0.1-0.1-0.1-0.2c0-0.1,0-0.1,0-0.2
		c0.1-0.2,0.5,0,1.4,0.5c0.2,0.1,0.4,0.2,0.5,0.3c-0.2-0.1-0.5-0.3-0.7-0.4c-0.9-0.5-1.2-0.8-1.3-0.9c0,0,0-0.1,0-0.1
		c0.1-0.1,0.3-0.1,1.2,0.4c0.2,0.1,0.5,0.3,0.8,0.4c-0.3-0.2-0.7-0.5-1-0.7c-0.9-0.6-1-0.7-1-0.7c0,0,0-0.1,0-0.1
		C1,13.9,1.1,13.9,1.3,14c-0.3-0.2-0.4-0.3-0.4-0.4c0,0,0-0.1,0-0.1c0,0,0.1-0.1,0.1-0.1c-0.1-0.1-0.1-0.1-0.1-0.2
		c0-0.1,0-0.1,0-0.2C1,13,1.2,13,2.1,13.6C2.4,13.8,2.7,14,3,14.2c-0.3-0.2-0.9-0.6-1.2-0.8c-0.7-0.5-0.8-0.5-0.8-0.6
		c0,0,0-0.1,0-0.1c0.1-0.1,0.2-0.1,0.5,0c-0.3-0.2-0.5-0.3-0.5-0.5c0-0.1,0-0.1,0-0.2c0.2-0.2,0.6,0,1.3,0.4c-0.9-0.5-1.3-0.8-1.3-1
		c0,0,0-0.1,0-0.1c0.1-0.2,0.4-0.1,0.9,0.2C1.3,11.2,1,11,0.9,10.8c0-0.1,0-0.1,0-0.2c0.1-0.1,0.2-0.1,0.4,0C1.1,10.4,1,10.3,1,10.2
		c0-0.1,0-0.1,0-0.1c0.1-0.1,0.1-0.1,1,0.3c0.3,0.2,0.9,0.4,1.2,0.5c-0.2-0.2-0.6-0.4-1-0.6C1.5,9.9,1,9.7,1,9.5c0-0.1,0-0.1,0-0.2
		c0-0.1,0.1-0.1,0.2-0.1C1.1,9.1,1,9,1,9c0,0,0-0.1,0-0.1c0.1-0.1,0.2,0,0.9,0.4C2.3,9.5,2.8,9.9,3.1,10C3,9.8,2.6,9.7,2.4,9.5
		C1.5,9,1.1,8.8,1.1,8.6c0-0.1,0-0.1,0-0.1c0-0.1,0.1-0.1,0.2-0.1C1.1,8.2,1.1,8.2,1.1,8.1c0,0,0-0.1,0-0.1C1.2,7.9,1.2,8,2,8.4
		C2.4,8.5,3,8.9,3.3,9c-0.2-0.1-0.7-0.4-1-0.6C1.6,8,1.2,7.8,1.2,7.6c0-0.1,0-0.1,0-0.2c0.1-0.1,0.2-0.1,0.3,0
		C1.3,7.3,1.3,7.2,1.2,7.1c0,0,0-0.1,0-0.1c0-0.1,0.1-0.1,0.3-0.1C1.4,6.8,1.3,6.8,1.3,6.7c0-0.1,0-0.1,0-0.1c0.1-0.1,0.2-0.1,0.4,0
		C1.5,6.4,1.5,6.3,1.5,6.3c0,0,0-0.1,0-0.1c0.1-0.1,0.1-0.1,0.9,0.4c0.2,0.1,0.4,0.2,0.7,0.3C2.8,6.7,2.6,6.6,2.4,6.4
		C1.7,6,1.6,5.9,1.6,5.9c0,0,0-0.1,0-0.1c0.1-0.1,0.3-0.1,1.1,0.3C3,6.2,3.3,6.3,3.5,6.4C3.3,6.3,2.9,6.1,2.7,5.9
		C2,5.5,1.9,5.4,1.9,5.3c0,0,0-0.1,0-0.1c0.1-0.1,0.2-0.1,0.4,0C2.2,5.1,2.1,5,2.1,4.9c0,0,0-0.1,0-0.1c0.1-0.1,0.1-0.1,0.5,0.1
		C2.3,4.7,2.3,4.7,2.2,4.6c0,0,0-0.1,0-0.1c0.1-0.2,0.5,0,1.3,0.5C3.7,5.1,4,5.2,4.2,5.3C4,5.2,3.7,5,3.5,4.9
		C2.8,4.5,2.6,4.4,2.5,4.2c0,0,0-0.1,0-0.1C2.6,4,2.7,4,3,4.2C2.8,4,2.8,4,2.7,3.9c0,0,0-0.1,0-0.1C2.9,3.7,3,3.7,3.3,3.9
		C3.1,3.7,3,3.7,3,3.6c0,0,0-0.1,0-0.1c0.1-0.1,0.3-0.1,1.5,0.6c0.1,0.1,0.2,0.1,0.4,0.2C4.7,4.1,4.4,4,4.2,3.8
		C3.5,3.4,3.4,3.3,3.4,3.2c0,0,0-0.1,0-0.1C3.5,3,3.8,3.1,4.4,3.4C4,3.2,3.9,3,3.8,2.9c0-0.1,0-0.1,0-0.1c0,0,0.1-0.1,0.1-0.1
		c0,0,0.1,0,0.2,0c0,0,0,0,0,0c0,0,0-0.1,0-0.1c0.1-0.1,0.2-0.1,0.3,0c0,0,0,0,0-0.1c0,0,0-0.1,0-0.1c0.2-0.2,0.6,0,1.9,0.8
		c0.3,0.2,0.7,0.4,0.9,0.5C7,3.5,6.6,3.3,6.3,3.1C5.5,2.6,5.1,2.4,5.1,2.2c0-0.1,0-0.1,0-0.1C5.2,2,5.4,2,6,2.4
		C5.8,2.2,5.7,2.1,5.7,2c0-0.1,0-0.1,0-0.2c0.1-0.1,0.2-0.1,0.5,0c0,0,0,0,0,0c0,0,0-0.1,0-0.1c0.1-0.1,0.2-0.1,0.6,0.1
		c0,0,0-0.1,0-0.1c0,0,0-0.1,0-0.1c0.1-0.1,0.2-0.1,0.4,0c0,0,0-0.1,0-0.1c0.1-0.1,0.2-0.1,0.6,0.1c0,0,0,0,0,0c0-0.1,0-0.1,0-0.2
		C8,1.3,8.3,1.3,8.7,1.6c0-0.1,0-0.1,0-0.2c0,0,0.1-0.1,0.1-0.1c0.1,0,0.2,0,0.4,0.2c0-0.1,0-0.1,0-0.2c0,0,0.1-0.1,0.1-0.1
		c0.1,0,0.4,0.2,1.3,0.8c0.8,0.6,2.1,1.6,2.5,1.5c0,0,0,0,0,0c-0.5-0.3-1.1-0.7-1.7-1.2c-0.9-0.5-1.3-0.7-1.3-0.9c0-0.1,0-0.1,0-0.1
		c0,0,0.1,0,0.1,0c0.1,0,0.2,0.1,1,0.6c0.1,0.1,0.2,0.2,0.4,0.3c0,0,0.1,0,0.1,0.1c1,0.5,1.7,0.9,1.8,1.2c0.2,0.1,0.3,0.1,0.4,0.1
		c0,0,0,0,0,0c0-0.2-1.2-0.8-1.8-1.2c-1-0.6-1.3-0.8-1.3-0.9c0,0,0-0.1,0-0.1c0.2-0.2,0.8,0.1,2.7,1.4C14,3,14.6,3.4,14.8,3.5
		c-0.2-0.3-1.7-1.2-2.3-1.5c-0.8-0.4-0.9-0.5-0.9-0.6c0,0,0-0.1,0-0.1c0-0.1,0.1-0.1,0.2-0.1c0.2,0,0.4,0.1,0.8,0.3
		c0-0.1,0-0.1,0-0.2c0.1-0.1,0.3-0.1,1.6,0.8c0.7,0.5,1.8,1.3,2.3,1.4c-0.2-0.2-0.7-0.5-1.1-0.7c-1.3-0.8-1.9-1.2-2-1.4
		c0,0,0-0.1,0-0.1c0.2-0.2,0.7,0.1,2.5,1.2c0.6,0.4,1.4,0.9,1.7,1.1c-0.3-0.3-1.3-0.9-1.9-1.3c-1.1-0.7-1.3-0.8-1.3-0.9
		c0,0,0-0.1,0-0.1c0.1-0.1,0.2-0.1,0.6,0.1c0,0,0-0.1,0-0.1c0.1-0.2,0.4-0.1,1.1,0.4c-0.1-0.1-0.1-0.2-0.2-0.2c0-0.1,0-0.1,0-0.1
		c0.1-0.1,0.2-0.1,0.6,0.1c0,0,0-0.1,0-0.1c0,0,0.1-0.1,0.2-0.1c0.1,0,0.3,0,0.5,0.1c0,0,0.1-0.1,0.1-0.1c0.1,0,0.2,0,0.4,0.1
		c0,0,0,0,0,0c0,0,0.1,0,0.1-0.1c0.2,0,0.6,0.3,2.3,1.5C20.8,2.9,20.9,2.9,21,3c1.1,0.6,2.3,1.3,3.4,2c-0.1-0.1-0.2-0.2-0.4-0.3
		c-0.5-0.3-1-0.6-1.5-0.9c-2.1-1.3-3.1-1.9-3.1-2.2c0-0.1,0-0.1,0-0.1c0.1-0.1,0.1-0.1,0.2-0.1c0.2,0,0.3,0,0.6,0.2
		c0,0,0.1-0.1,0.2-0.1c0.2,0,0.5,0.1,0.9,0.3c0,0,0,0,0,0c0.1-0.2,0.3,0,1.4,0.7c0.5,0.3,1.3,0.9,1.6,1c-0.1-0.1-0.5-0.3-0.6-0.4
		c-0.4-0.2-0.6-0.3-0.6-0.4c0,0,0-0.1,0-0.1c0.1-0.1,0.2,0,0.2,0.1c0.1,0.1,0.3,0.2,0.5,0.3c0.5,0.3,0.8,0.4,0.8,0.6
		c0,0,0,0.1,0,0.1c0,0.1-0.1,0.1-0.2,0.1c0.8,0.5,1.3,0.8,1.3,1.1c0,0.1,0,0.1,0,0.2c0,0-0.1,0.1-0.1,0.1c0,0-0.1,0-0.1,0
		c0.5,0.3,0.7,0.6,0.8,0.7c0,0.1,0,0.1,0,0.2c0,0,0,0-0.1,0.1c0.2,0.2,0.3,0.3,0.3,0.4c0,0.1,0,0.1,0,0.2c0,0,0,0,0,0
		c0.2,0.2,0.3,0.4,0.3,0.5c0,0.1,0,0.3-0.1,0.4c-0.1,0.1-0.1,0.1-0.3,0.1c-0.7,0.1-2.3-1.2-4.6-3.2c-0.1,0-0.3-0.1-1.1-0.8
		c-0.1-0.1-0.3-0.2-0.5-0.4c-0.1,0-0.1-0.1-0.2-0.1c-1.3-0.7-2.1-1.2-2.2-1.5c-0.2-0.1-0.4-0.2-0.5-0.1c0,0,0,0,0,0
		c0,0.2,1.2,0.8,1.9,1.2c1.1,0.7,1.6,0.9,1.6,1.1c0,0,0,0.1,0,0.1c-0.1,0.1-0.2,0.1-0.8-0.2c0,0,0,0,0,0c0,0,0,0.1,0,0.1
		c-0.1,0.2-0.5,0.1-1.1-0.3c0,0,0.1,0.1,0.1,0.1c0,0,0,0.1,0,0.1c-0.1,0.1-0.2,0.1-0.8-0.3c0,0.1,0.1,0.1,0.1,0.1c0,0,0,0.1,0,0.1
		c-0.1,0.2-0.6,0-2.1-1.1c-0.7-0.5-1.8-1.2-2.1-1.3C14,1.7,15,2.3,15.6,2.7c1.1,0.7,1.3,0.8,1.4,1c0,0,0,0.1,0,0.1
		c-0.1,0.1-0.3,0.1-0.8-0.2c0,0,0,0.1,0,0.1c0,0.1-0.1,0.1-0.2,0.1c-0.2,0-0.5-0.1-0.8-0.3c0,0,0,0,0,0c0,0.1,0,0.1,0,0.2
		c-0.1,0.1-0.3,0.1-1.7-0.9c-0.7-0.4-1.7-1.1-2.2-1.3c0.2,0.2,0.7,0.4,1,0.6c1.1,0.7,1.9,1.1,1.9,1.4c0,0.1,0,0.1,0,0.2
		c0,0.1-0.1,0.1-0.2,0.1c-0.1,0-0.3,0-0.5-0.1c0,0.1-0.1,0.1-0.2,0.1c-0.2,0-0.4,0-0.6-0.2c0,0,0,0,0,0.1c0,0-0.1,0.1-0.2,0.1
		c-0.1,0-0.2,0-0.4-0.1c0,0,0,0,0,0c-0.2,0.2-0.6,0-1.8-0.9C9.5,2.4,8.2,1.4,8,1.6c0,0.2,1.3,1,2,1.3c0.8,0.5,1,0.6,1,0.7
		c0,0,0,0.1,0,0.1c-0.1,0.1-0.3,0.1-0.6-0.1c0,0,0,0.1,0,0.1c-0.1,0.1-0.1,0.1-0.5-0.1c0,0.1,0,0.1,0,0.1C9.7,3.9,9.6,3.9,9.1,3.6
		c0,0,0,0,0,0.1c0,0.1,0,0.1,0,0.1C9,3.9,8.8,3.9,8.5,3.7c0,0,0,0,0,0.1c0,0,0,0.1,0,0.1C8.4,4,8.1,3.9,7.6,3.6
		c0.1,0.1,0.1,0.1,0.1,0.2c0,0.1,0,0.1,0,0.2C7.5,4.1,7.3,4,6.3,3.4c-0.4-0.2-1-0.6-1.4-0.8c0,0,0,0,0,0C5.1,2.8,5.5,3,5.8,3.2
		C6.7,3.7,6.9,3.9,6.9,4c0,0,0,0.1,0,0.1C6.8,4.2,6.7,4.2,6.4,4c0,0,0.1,0.1,0.1,0.1c0,0,0,0.1,0,0.1c0,0-0.1,0.1-0.1,0.1
		c-0.1,0-0.1,0-0.3-0.1c0,0,0,0.1,0,0.1c0,0,0,0.1,0,0.1C6,4.6,5.6,4.4,5,4.1c0.4,0.2,0.5,0.4,0.6,0.5c0,0,0,0.1,0,0.1
		C5.5,4.8,5.4,4.8,4.4,4.3c0,0-0.1,0-0.1-0.1c0.6,0.3,0.8,0.5,0.9,0.7c0,0,0,0.1,0,0.1C5.1,5.1,5,5.1,4.8,5.1c0,0,0,0.1,0.1,0.1
		c0,0,0,0.1,0,0.1C4.8,5.4,4.7,5.4,4.5,5.3c0.1,0.1,0.1,0.1,0.1,0.2c0,0,0,0.1,0,0.1c-0.1,0.2-0.4,0-1.2-0.4C3.3,5.1,3.1,5,3,4.9
		C3.1,4.9,3.2,5,3.2,5c0.8,0.5,1.1,0.7,1.1,0.8c0,0,0,0.1,0,0.1C4.2,6.1,4.2,6.1,3.6,5.8C4.1,6,4.2,6.1,4.2,6.2c0,0,0,0.1,0,0.1
		c-0.1,0.1-0.3,0-0.9-0.4C3,5.8,2.7,5.7,2.5,5.5c0.1,0.1,0.2,0.1,0.3,0.2C3.7,6.3,3.9,6.5,4,6.6c0,0,0,0.1,0,0.1
		c-0.1,0.1-0.4,0-1.3-0.4c0,0-0.1,0-0.1-0.1c1,0.7,1.3,0.9,1.3,1c0,0,0,0.1,0,0.1C3.7,7.4,3.6,7.4,2.8,7c0.8,0.6,0.9,0.6,0.9,0.7
		c0,0,0,0.1,0,0.1c0,0.1-0.1,0.1-0.2,0.1C3.6,8,3.6,8,3.6,8.1c0,0,0,0.1,0,0.1c-0.1,0.1-0.2,0-1-0.4c-0.3-0.2-0.8-0.5-1-0.6
		c0.2,0.2,0.7,0.4,1,0.6c0.7,0.4,1,0.6,1,0.7c0,0,0,0.1,0,0.1C3.5,8.7,3.4,8.7,3.3,8.7C3.5,8.8,3.5,8.9,3.6,9c0,0.1,0,0.1,0,0.2
		C3.4,9.3,3.3,9.3,2.4,8.8c0.9,0.6,1.1,0.7,1.1,0.8c0,0,0,0.1,0,0.1c0,0.1-0.1,0.1-0.2,0.1C3.4,9.9,3.5,10,3.5,10c0,0,0,0.1,0,0.1
		c-0.1,0.1-0.2,0.1-0.5,0c0.5,0.3,0.5,0.3,0.5,0.4c0,0,0,0.1,0,0.1c0,0-0.1,0.1-0.1,0.1c0.1,0.1,0.1,0.1,0.1,0.2c0,0.1,0,0.1,0,0.2
		c-0.1,0.1-0.2,0.1-1.6-0.5c-0.1-0.1-0.3-0.1-0.4-0.2c0.2,0.1,0.6,0.3,0.8,0.5c0.8,0.4,1.1,0.6,1.2,0.8c0,0.1,0,0.1,0,0.1
		c-0.2,0.2-0.6,0-1.3-0.5c-0.3-0.2-0.8-0.5-1-0.6c0.1,0.2,0.8,0.5,1.2,0.7c0.7,0.4,1,0.6,1.1,0.8c0,0,0,0.1,0,0.1
		c-0.1,0.2-0.5,0-1.2-0.4c-0.3-0.2-0.9-0.5-1.1-0.5c0.2,0.2,1,0.7,1.4,1c0.7,0.4,0.8,0.5,0.8,0.6c0,0,0,0.1,0,0.1
		c-0.2,0.2-0.5,0-1.3-0.4c-0.3-0.2-0.8-0.5-1-0.5c0.1,0.2,0.7,0.5,1.1,0.7c0.8,0.4,1.1,0.6,1.2,0.8c0,0.1,0,0.1,0,0.1
		c-0.1,0.1-0.3,0-1-0.4c-0.3-0.2-0.7-0.4-1.1-0.6c0.1,0.1,0.3,0.2,0.5,0.3c1.1,0.7,1.5,1,1.6,1.2c0,0,0,0.1,0,0.1
		c0,0-0.1,0.1-0.1,0.1c0.1,0.1,0.1,0.1,0.2,0.2c0,0.1,0,0.1,0,0.2c-0.1,0.2-0.3,0-1-0.5c-0.3-0.2-0.9-0.6-1.2-0.7
		c0.2,0.2,0.7,0.5,1.1,0.7c0.9,0.6,1.1,0.7,1.1,0.8c0,0,0,0.1,0,0.1c-0.1,0.1-0.2,0.1-0.3,0.1c0.3,0.2,0.3,0.3,0.4,0.4
		c0,0,0,0.1,0,0.1C3.3,16,3,15.9,2,15.3c-0.2-0.1-0.3-0.2-0.5-0.3c0.2,0.2,0.5,0.3,0.8,0.5c0.9,0.5,1.1,0.7,1.2,0.9c0,0,0,0.1,0,0.1
		c-0.1,0.1-0.3,0.1-1.2-0.4c-0.4-0.2-0.9-0.5-1.1-0.5c0.1,0.2,1,0.7,1.4,0.9c0.7,0.4,0.9,0.5,0.9,0.6c0,0,0,0.1,0,0.1
		c-0.1,0.2-0.4,0-1.2-0.6c-0.3-0.2-0.9-0.6-1.1-0.7c0.1,0.2,1.2,0.8,1.6,1.1c0.6,0.4,0.7,0.4,0.7,0.5c0,0,0,0.1,0,0.1
		c-0.1,0.1-0.3,0.1-1.3-0.4c-0.3-0.1-0.7-0.3-0.9-0.4c0.2,0.2,0.7,0.4,1,0.6c0.8,0.5,1.2,0.7,1.2,0.9c0,0.1,0,0.1,0,0.1
		c-0.1,0.1-0.2,0.1-0.5,0c0.4,0.2,0.5,0.4,0.5,0.5c0,0,0,0.1,0,0.1c-0.1,0.1-0.1,0.1-0.3,0.1c0.2,0.2,0.3,0.2,0.3,0.3
		c0,0,0,0.1,0,0.1c0,0.1-0.1,0.1-0.2,0.1c0.1,0.1,0.2,0.2,0.3,0.3c0,0.1,0,0.1,0,0.2c-0.1,0.1-0.2,0-1-0.4c-0.4-0.2-1-0.6-1.3-0.7
		c0.2,0.2,0.7,0.5,1.1,0.7c0.9,0.5,1.3,0.7,1.3,0.9c0,0.1,0,0.1,0,0.1c0,0-0.1,0.1-0.2,0c0.2,0.1,0.3,0.2,0.3,0.4c0,0.1,0,0.1,0,0.2
		c-0.1,0.1-0.2,0.1-0.4,0c0.5,0.3,0.6,0.4,0.6,0.5c0,0,0,0.1,0,0.1c-0.2,0.2-0.6,0-1.5-0.5c-0.4-0.2-1-0.6-1.1-0.6
		c0,0.2,1.4,1,2.1,1.4c0.9,0.5,1.1,0.7,1.2,0.8c0,0,0,0.1,0,0.1c-0.1,0.1-0.2,0.1-1.4-0.7c-0.6-0.4-1.5-1-1.8-1c0,0,0,0,0,0
		c0,0.1,0.1,0.3,0.3,0.4c0.6,0.1,2,1.1,3.9,2.7c0.3,0.2,0.5,0.3,0.7,0.4c2.2,1.3,3,1.9,3.1,2.1c0,0,0,0.1,0,0.1c0,0-0.1,0.1-0.2,0.1
		c-0.2,0-0.4-0.1-0.8-0.3c0,0,0,0,0,0.1c0,0,0,0.1,0,0.1c-0.1,0.1-0.2,0.1-0.3,0.2c-0.3,0-0.9-0.2-1.6-0.7c0,0,0,0.1,0,0.1
		c0,0.1,0,0.2,0,0.2c-0.1,0.1-0.3,0.1-1-0.3c0,0,0,0,0,0c0,0.1-0.1,0.1-0.2,0c0,0-0.1-0.1,0-0.1c0,0-0.1-0.1-0.2-0.2
		c-0.3-0.2-0.6-0.4-1-0.7c-0.3-0.2-0.5-0.3-0.8-0.5C3,24.7,2.8,24.6,2.6,24.5z M6.1,26.3c-0.4-0.3-1.2-0.7-1.8-1c0,0,0,0,0,0
		c0,0,0,0,0.1,0c0.5,0.3,0.8,0.5,1,0.7c0.5,0.3,0.9,0.6,1.1,0.6c0,0,0,0,0,0C6.4,26.6,6.3,26.5,6.1,26.3z M2.2,23.7
		c0.1,0.3,1.2,0.9,2.2,1.4c0.1,0.1,0.2,0.1,0.3,0.2C3.7,24.6,2.6,23.8,2.2,23.7z M4.9,25c0.5,0.4,1,0.8,1.4,1.1
		c0.5,0.4,1,0.6,1.2,0.7c0-0.2-0.3-0.4-0.6-0.6c-0.2-0.1-0.3-0.2-0.5-0.3C5.9,25.6,5.4,25.3,4.9,25z M7.7,26.6
		c0,0.1,0.1,0.1,0.1,0.2c0,0.1,0,0.1,0,0.2C8,27,8.1,27,8.2,27c0,0,0.1,0,0.1,0C8.2,26.9,8,26.8,7.7,26.6z M1.6,22
		C1.6,22,1.6,22,1.6,22C1.6,22,1.6,22,1.6,22c-0.1,0-0.1,0.1-0.1,0.2c0,0.1,0.1,0.2,0.2,0.3c0.2,0,0.4,0.2,1.1,0.8
		c0.2,0.1,0.4,0.3,0.6,0.4C5,24.5,6.3,25.3,7.1,26c0.2,0.1,0.4,0.2,0.6,0.3c-0.5-0.4-1.2-0.9-1.9-1.5c-0.1-0.1-0.2-0.1-0.2-0.2
		C3.7,23.5,2.3,22.6,1.6,22z M2.3,22.2c0.4,0.3,1,0.7,1.6,1.1C3.3,22.8,2.7,22.4,2.3,22.2z M7.1,25.6C8,26.3,8.9,27,9.2,27
		C9,26.8,8.1,26.2,7.1,25.6z M3.5,21.6c-0.2-0.1-0.4-0.2-0.6-0.4C2.7,21.1,2.5,21,2.4,21c0,0,0.1,0.1,0.1,0.1
		C2.8,21.2,3.2,21.5,3.5,21.6z M1.3,20c0.2,0.2,0.8,0.6,1.3,0.9c-0.2-0.1-0.4-0.2-0.6-0.4C1.8,20.3,1.5,20.1,1.3,20z M2.3,20
		c-0.3-0.2-0.7-0.4-0.9-0.5C1.6,19.6,2,19.8,2.3,20C2.3,20,2.3,20,2.3,20z M1.3,18.4c0.1,0.1,0.3,0.2,0.6,0.3
		C1.6,18.6,1.4,18.5,1.3,18.4z M3.1,18.8c-0.3-0.2-0.7-0.5-1-0.7c0.1,0,0.1,0.1,0.2,0.1C2.5,18.4,2.9,18.7,3.1,18.8
		C3.1,18.8,3.1,18.8,3.1,18.8z M3.1,12.2c-0.2-0.1-0.5-0.3-0.8-0.5c-0.1-0.1-0.2-0.1-0.3-0.2c0.1,0.1,0.3,0.2,0.4,0.2
		C2.6,11.9,2.9,12.1,3.1,12.2z M3.1,11.6c-0.2-0.2-0.6-0.4-0.9-0.5C2.1,11,2.1,11,2,10.9c0.1,0.1,0.2,0.1,0.3,0.2
		C2.6,11.3,3,11.6,3.1,11.6C3.2,11.6,3.1,11.6,3.1,11.6z M1.2,9.4c0.1,0.1,0.6,0.4,1,0.6C1.9,9.8,1.4,9.5,1.2,9.4z M1.3,8.6
		c0.2,0.2,0.8,0.5,1.2,0.7c0,0,0,0,0,0c0,0-0.1-0.1-0.1-0.1C2,9,1.5,8.6,1.3,8.6z M1.4,7.6c0.2,0.1,0.6,0.4,1,0.6c0,0,0,0,0,0
		c0,0,0,0,0,0C2.1,8,1.6,7.7,1.4,7.6z M4.8,4.8C4.5,4.6,4.2,4.4,3.9,4.2C3.8,4.2,3.7,4.1,3.6,4.1C3.7,4.1,3.9,4.2,4,4.3
		C4.2,4.5,4.7,4.8,4.8,4.8C4.8,4.8,4.8,4.8,4.8,4.8z M4.1,2.9C4.3,3.1,5,3.5,5.4,3.8c0.1,0.1,0.2,0.1,0.2,0.1
		C5.5,3.8,5.4,3.8,5.3,3.7C5,3.4,4.3,3,4.1,2.9z M6.3,2.8C6,2.6,5.7,2.4,5.5,2.3C5.7,2.5,6,2.7,6.3,2.8z M5.9,2C6,2.2,7,2.8,7.6,3.1
		c0.1,0,0.2,0.1,0.2,0.1C7.7,3.1,7.5,3.1,7.4,2.9C6.9,2.6,6.1,2.1,5.9,2z M8.7,3.5C8.4,3.3,8,3.1,7.7,2.9c0.4,0.3,0.9,0.6,1.1,0.7
		C8.8,3.6,8.7,3.5,8.7,3.5z M7.3,2.4C7.1,2.2,6.8,2.1,6.7,2C6.8,2.1,7.1,2.3,7.3,2.4z M9.4,3.5C9.1,3.2,8.5,2.9,8.1,2.7c0,0,0,0,0,0
		c0,0,0,0,0.1,0c0.5,0.4,1.2,0.8,1.5,0.9C9.6,3.6,9.5,3.5,9.4,3.5z M7.5,1.7c0,0,0.1,0.1,0.1,0.1C7.7,1.9,7.9,2,8,2.1
		c0.1,0.1,0.2,0.1,0.4,0.2C8,2.1,7.7,1.8,7.5,1.7z M10.8,3c-0.1,0-0.1-0.1-0.2-0.1c0.4,0.3,0.8,0.5,1,0.6C11.4,3.4,11.1,3.2,10.8,3z
		 M8.9,1.6C9,1.7,9.3,1.9,9.6,2.1C9.3,1.9,9.1,1.7,8.9,1.6z M10.9,2.8C10.9,2.8,10.9,2.8,10.9,2.8C11,2.8,11,2.8,10.9,2.8
		C11,2.8,11,2.8,10.9,2.8z M11.7,3.2c0.1,0.1,0.2,0.1,0.2,0.2c0.2,0.1,0.3,0.2,0.4,0.2c-0.1-0.1-0.5-0.3-0.9-0.6
		C11.5,3.1,11.6,3.2,11.7,3.2z M9.5,1.6C9.7,1.8,10,2,10.4,2.2C10.1,2,9.7,1.7,9.5,1.6z M13,2c-0.4-0.3-0.7-0.5-0.9-0.5
		c0.2,0.1,0.4,0.2,0.6,0.4C12.8,1.8,12.9,1.9,13,2z M14.3,2.7c0.6,0.5,1.3,1,1.6,0.9c0,0,0,0,0,0c-0.1-0.2-0.8-0.5-1.3-0.8
		C14.5,2.8,14.4,2.7,14.3,2.7z M13,1.5c0.2,0.2,0.8,0.6,1.3,0.9c0,0-0.1,0-0.1-0.1C13.7,2,13.2,1.7,13,1.5z M15.5,1.5
		c0.2,0.2,1.1,0.7,1.7,1.1c0.1,0.1,0.2,0.1,0.3,0.2c0,0-0.1-0.1-0.2-0.1C16.7,2.2,15.8,1.5,15.5,1.5z M19.5,3.7
		c-0.2-0.2-0.7-0.5-1.1-0.7c-0.2-0.1-0.3-0.2-0.5-0.3C18.4,3.1,19.1,3.6,19.5,3.7C19.5,3.7,19.5,3.7,19.5,3.7z M16.5,1.5
		c0.3,0.3,1.3,0.9,1.9,1.3c0.1,0,0.1,0.1,0.2,0.1c0,0-0.1,0-0.1-0.1C17.8,2.4,16.9,1.7,16.5,1.5z M21.8,4.2c1.8,1.5,3.9,3.2,4.5,3.1
		c0.1,0,0.1,0,0.1,0c0,0,0-0.1,0-0.2c0-0.1-0.1-0.3-0.3-0.5c-0.7-0.1-2.7-1.5-5.2-3.3c-0.1-0.1-0.2-0.2-0.4-0.3
		c-0.2-0.1-0.4-0.2-0.5-0.3c0.3,0.2,0.6,0.5,1,0.8C21.5,3.9,21.8,4.1,21.8,4.2C21.8,4.2,21.8,4.2,21.8,4.2z M18.4,1.8
		c-0.1-0.1-0.2-0.2-0.3-0.2C18.2,1.6,18.3,1.7,18.4,1.8z M25.2,5.9c-0.8-0.6-1.8-1.2-2.8-1.8C23.6,5,25,5.9,25.8,6.3
		C25.6,6.1,25.4,6,25.2,5.9z M19.6,1.5c0.1,0.3,1.7,1.2,3,2c0.1,0,0.1,0.1,0.2,0.1c-0.1-0.1-0.2-0.2-0.3-0.2
		c-1.4-0.8-2.3-1.4-2.4-1.8c0,0,0,0,0,0C19.9,1.5,19.8,1.5,19.6,1.5C19.6,1.5,19.6,1.5,19.6,1.5z M25.6,5.9c0.2,0.2,0.4,0.4,0.6,0.5
		c0,0,0,0,0,0c0-0.1-0.1-0.2-0.4-0.4C25.8,5.9,25.7,5.9,25.6,5.9z M20.6,2c0.2,0.1,0.4,0.3,0.6,0.4C21,2.2,20.8,2.1,20.6,2z
		 M23.6,4.1c0.2,0.1,0.3,0.3,0.5,0.4c0.8,0.5,1.4,0.9,1.8,1.3c0,0,0,0,0.1,0c0,0,0,0,0,0C26,5.5,24.7,4.7,23.6,4.1z M21,1.9
		c0.5,0.3,1,0.8,1.7,1.3c0.2,0.1,0.5,0.3,0.7,0.4c0.3,0.2,0.6,0.3,0.9,0.5c-0.3-0.2-0.6-0.4-0.9-0.7c-0.5-0.4-1-0.8-1.4-1.1
		c0,0,0,0,0,0c-0.1-0.1-0.3-0.2-0.4-0.2c-0.4-0.3-0.8-0.5-1-0.5C20.6,1.7,20.8,1.8,21,1.9z M23.4,3.2C23.4,3.2,23.4,3.3,23.4,3.2
		c0.9,0.7,1.9,1.5,2.1,1.5C25.4,4.4,24.3,3.7,23.4,3.2z M22.3,2.4C22.1,2.2,22,2.1,21.8,2c0.1,0,0.1,0.1,0.2,0.1
		C22.1,2.2,22.2,2.3,22.3,2.4z M23.3,2.5L23.3,2.5L23.3,2.5z"/>
</g>
</svg>
