<?xml version="1.0" encoding="utf-8"?>
<!-- Generator: Adobe Illustrator 25.3.1, SVG Export Plug-In . SVG Version: 6.00 Build 0)  -->
<svg version="1.1" id="Capa_1" xmlns="http://www.w3.org/2000/svg" xmlns:xlink="http://www.w3.org/1999/xlink" x="0px" y="0px"
	 width="23.3px" height="24.4px" viewBox="0 0 23.3 24.4" style="enable-background:new 0 0 23.3 24.4;" xml:space="preserve">
<g>
	<g>
		<path d="M3.2,1.5h16.9c1.2,0.1,2.1,1.1,2.3,2.2v16.8c-0.1,1.2-1.1,2.1-2.2,2.3H3.3c-1.2-0.1-2.1-1.1-2.3-2.2V3.8
			C1.1,2.6,2.1,1.7,3.2,1.5z M3.2,3.2C2.8,3.4,2.6,3.8,2.7,4.2c0,5.3,0,10.7,0,16c-0.1,0.6,0.4,1.1,1,1c5.3,0,10.7,0,16,0
			c0.6,0.1,1.1-0.4,1-1c0-5.3,0-10.7,0-16c0.1-0.5-0.3-1-0.8-1c-5.3,0-10.6,0-15.8,0C3.7,3.2,3.5,3.2,3.2,3.2z"/>
	</g>
	<path d="M5.7,5.1c1.2-0.4,2.5,0.8,2.2,2c-0.2,1.2-2,1.8-2.8,0.8C4.1,7.1,4.5,5.4,5.7,5.1z"/>
	<path d="M12.3,11c0.5-0.8,1.5-1.4,2.5-1.4c1.1-0.1,2.3,0.1,3,1c0.7,0.9,0.8,2,0.8,3.1c0,1.8,0,3.6,0,5.5c-1,0-1.9,0-2.9,0
		c0-1.6,0-3.2,0-4.8c0-0.7,0-1.4-0.5-1.9C14.8,12,14,12,13.4,12.2c-0.8,0.3-1,1.2-1,2c0,1.7,0,3.3,0,5c-0.9,0-1.9,0-2.8,0
		c0-3.1,0-6.3,0-9.4c0.9,0,1.9,0,2.8,0C12.3,10.1,12.3,10.6,12.3,11z"/>
	<path d="M4.8,9.7c1,0,1.9,0,2.9,0c0,3.1,0,6.3,0,9.4c-1,0-1.9,0-2.9,0C4.8,16,4.7,12.9,4.8,9.7z"/>
</g>
</svg>
