<?xml version="1.0" encoding="utf-8"?>
<!-- Generator: Adobe Illustrator 25.3.1, SVG Export Plug-In . SVG Version: 6.00 Build 0)  -->
<svg version="1.1" id="Capa_1" xmlns="http://www.w3.org/2000/svg" xmlns:xlink="http://www.w3.org/1999/xlink" x="0px" y="0px"
	 width="23.3px" height="24.4px" viewBox="0 0 23.3 24.4" style="enable-background:new 0 0 23.3 24.4;" xml:space="preserve">
<g>
	<path d="M11.2-0.1h0.6c0.6,0.1,1.1,0.3,1.5,0.8c2.4,2.4,4.8,4.8,7.3,7.3c0.4,0.5,0.9,0.9,1.3,1.4v0.4c-0.2,0.2-0.3,0.6-0.6,0.6
		c-0.4,0.1-0.6-0.2-1-0.4c0,1.1,0.1,2.3,0,3.3c0,0.6-0.7,1-1.2,0.7c-0.4-0.2-0.4-0.6-0.4-1.1c0-1.5,0-3.2,0-4.7
		c-2.1-2.1-4.2-4.2-6.3-6.3c-0.2-0.2-0.5-0.5-0.8-0.5c-0.3,0-0.5,0.2-0.7,0.4C8.6,4,6.4,6.1,4.3,8.3c0,3,0,6.1,0,9
		c0,0.8,0.6,1.5,1.5,1.5c0.9,0.1,1.8,0,2.7,0c0-1.6,0-3.2,0-4.8c0.1-1.5,1.5-2.8,3-2.8c1.1,0,2.3,0.6,2.7,1.8
		c0.2,0.6,0.3,1.2,0.3,1.9c0,1.4,0,2.7,0,4c0.9,0,1.7,0,2.6,0c0.6-0.1,1.2-0.6,1.4-1.2c0.1-0.4,0.1-0.9,0.5-1.1
		c0.5-0.2,1.1,0,1.2,0.6c0.2,1.7-1.3,3.2-2.9,3.4h-3.7c-0.3-0.2-0.6-0.4-0.6-0.8c0-1.9,0-3.6,0-5.5c0-1.1-1.4-1.7-2.2-1.1
		c-0.6,0.3-0.6,1-0.6,1.5c0,1.7,0,3.3,0,5c0,0.4-0.2,0.6-0.6,0.8H5.7c-1.6-0.1-3-1.6-3-3.2c0-2.4,0-4.9,0-7.4
		c-0.3,0.2-0.6,0.5-1,0.4c-0.3,0-0.5-0.3-0.6-0.6V9.3C1.4,8.7,2,8.2,2.5,7.7C4.9,5.3,7.2,3,9.7,0.5C10.1,0.2,10.6,0,11.2-0.1z"/>
	<path d="M9.1,7.8c0.4-0.2,0.8-0.1,1.2-0.2c1.1,0,2.3,0,3.4,0c0.7,0.2,0.8,1.4,0,1.5c-0.9,0.1-1.9,0-2.8,0.1c-0.6,0-1.2,0.1-1.8-0.1
		C8.6,9,8.5,8.1,9.1,7.8z"/>
</g>
</svg>
