<?xml version="1.0" encoding="utf-8"?>
<!-- Generator: Adobe Illustrator 25.3.1, SVG Export Plug-In . SVG Version: 6.00 Build 0)  -->
<svg version="1.1" id="Capa_1" xmlns="http://www.w3.org/2000/svg" xmlns:xlink="http://www.w3.org/1999/xlink" x="0px" y="0px"
	 width="42px" height="40.1px" viewBox="0 0 42 40.1" enable-background="new 0 0 42 40.1" xml:space="preserve">
<g>
	<g>
		<path fill="#E4342A" d="M16.8,4.7c0.1,0.2,0.3,0.4,0.5,0.5C17.1,5,16.9,4.9,16.8,4.7z"/>
		<path fill="#E4342A" d="M16.9,4.6c0.2,0.5,0.5,0.9,1.1,1c0.2,0.2,0.4,0.3,0.7,0.4c0,0.1,0,0.1,0,0.2C18.8,6.1,18.9,6.1,19,6
			c0,0,0.1,0,0.1,0s0.1,0,0.1,0s0.1-0.1,0.1-0.1c0.2-0.1,0.3-0.1,0.5-0.2c0,0,0.1-0.1,0.1-0.1c1.6-0.5,3.2-0.8,4.9-0.8
			c-2.3-1-4.9-1.5-7.5-1.5c-0.7,0-1.4,0.1-2.1,0.1C15.7,3.8,16.4,4.2,16.9,4.6z"/>
		<path fill="#E4342A" d="M7.5,32.7c0.2,0.5,0.5,0.9,0.9,1.2c0.3-0.1,0.6-0.1,1,0.2c0.9,0.6,1.7,1.2,2.6,1.7
			c0.2-0.3,0.4-0.5,0.5-0.8c0-0.2,0-0.3-0.1-0.4c0.1-0.1,0.2-0.1,0.3-0.1c0,0,0-0.1-0.1-0.1c0,0,0.1,0,0.1,0
			c-0.1-0.6-0.2-1.2-0.3-1.8c-0.3-0.3-0.5-0.6-0.8-0.9c-0.1,0-0.2,0-0.4,0c0.1-0.1,0.1-0.1,0.2-0.2c0,0,0,0,0,0
			c-0.3-0.3-0.5-0.6-0.7-1c-0.9-2.1-1.6-4.3-1.6-6.6c-0.1,0-0.4,0-0.5,0c0.1-1.5,0.5-3,1.2-4.3c-0.1,0.1-0.1,0.1-0.2,0.1
			c-0.2,0.2-0.5,0.4-0.7,0.5c0.4-1,1.1-1.7,1.7-2.5c0,0,0.1-0.1,0.1-0.1c0-0.1,0-0.3,0-0.4c0.1,0,0.2-0.1,0.4-0.1c0-0.1,0-0.1,0-0.1
			c0.2-0.1,0.3-0.1,0.5-0.1c0.5-0.5,1-1,1.3-1.7c-0.1,0-0.1,0-0.2,0c0.2-0.4,0.4-0.7,0.6-1.1c0.1-0.1,0-0.2-0.1-0.2
			c0.1-0.6,0.2-1.1,0.4-1.6c0,0,0,0,0,0c0-0.1,0-0.2,0-0.4c0-0.1-0.1-0.2-0.1-0.3c0,0,0-0.1-0.1-0.1c0.1-0.2,0.1-0.4-0.1-0.6
			C12.5,9.8,11.9,8,12,6.4c0.1-0.5,0.2-1.1,0.4-1.5c0.1,0,0.2,0,0.3,0c0-0.2,0.1-0.5,0.4-0.5c0.2-0.2,0.5-0.4,0.7-0.5
			C6.6,5.8,1.3,13,1.3,21.7c0,4.5,1.5,8.6,3.8,11.8C5.1,32.2,6.9,31.3,7.5,32.7z"/>
	</g>
	<path fill="#FFFFFF" d="M11.6,14.3c0,0,0.1,0,0.1,0c0,0,0,0,0-0.1c-0.2,0.1-0.3,0.2-0.5,0.2c0,0.1,0,0.1,0,0.2
		C11.4,14.6,11.5,14.4,11.6,14.3z"/>
	<path fill="#FFFFFF" d="M39.1,20.8c-0.3-0.5-0.6-1-0.9-1.4c0.2,0,0.6,0,0.9,0c-0.7-0.8-1.7-1.4-2.2-2.3c-0.8-1.3-0.6-2.9-0.9-4.3
		c-0.1-0.4-0.2-0.7-0.4-1.1c0,0,0.1-0.1,0.1-0.1c0-0.1,0-0.3,0-0.4c0,0,0-0.1,0-0.1c0.1-0.2,0.2-0.4,0.2-0.5v0c0,0,0,0,0,0l0,0
		c0,0,0,0,0,0c0,0,0-0.1,0.1-0.1c0.1-0.1,0.1-0.1,0.2-0.2c0.1-0.1,0.2-0.3,0.3-0.4c0.1-0.1,0.2-0.3,0.2-0.4c0-0.2,0.1-0.5,0.1-0.7
		c0.1-0.2,0.1-0.4,0.2-0.6c0.1-0.8,0-1.6-0.5-2.3c-0.3-0.9-0.8-1.7-1.6-2.3c0,0-0.1,0-0.1,0c0,0,0,0,0.1-0.1c-1-0.1-2.1-0.4-2.9,0.2
		c-0.4,0.2-0.8,0.5-1.3,0.5c-0.1,0.1-0.3,0.2-0.5,0.3c-0.3,0.4-0.6,0.9-0.8,1.3c-3.2-1.4-7-1.6-10.3-0.6c-0.2,0.1-0.4,0.2-0.6,0.2
		c0,0-0.1,0-0.1,0c-0.1,0-0.2,0.1-0.3,0.1c0,0,0-0.1,0-0.1c-0.2,0-0.4-0.1-0.5-0.3c-0.5-0.1-0.7-0.4-0.9-0.7
		c-0.6-0.5-1.4-0.8-2.1-1.1c-0.8,0.2-1.7,0.4-2.2,1c-0.3,0.1-0.4,0.3-0.4,0.5c-0.1,0-0.2,0-0.3,0c-0.2,0.5-0.4,1-0.4,1.6
		c-0.1,1.6,0.6,3.3,1.6,4.5c0.2,0.2,0.2,0.4,0.1,0.6c0,0,0,0.1,0.1,0.1c0,0.1,0.1,0.2,0.1,0.3s0,0.2,0,0.4h0
		c-0.1,0.6-0.3,1.1-0.4,1.6c0.1,0,0.2,0.1,0.1,0.2c-0.3,0.3-0.5,0.7-0.7,1.1c0.1,0,0.1,0,0.2,0c-0.4,0.8-1,1.4-1.7,1.9
		c-0.2,0.1-0.5,0.1-0.7,0.2c0,0.1,0,0.3,0,0.4c0,0-0.1,0.1-0.1,0.1c-0.8,0.7-1.6,1.5-2,2.5c0.4-0.2,0.7-0.5,1.1-0.7
		c-0.8,1.3-1.3,2.8-1.4,4.4c0.1,0,0.4,0,0.5,0c0.1,2.3,0.8,4.6,1.9,6.7c0.3,0.4,0.6,0.7,0.9,1h0c-0.1,0.1-0.1,0.1-0.2,0.2
		c0.1,0,0.3,0,0.4,0c0.3,0.3,0.6,0.6,0.9,0.9c0.1,0.6,0.3,1.2,0.4,1.9l0,0c-0.1,0.1-0.2,0.1-0.4,0.1c0.1,0.1,0.1,0.3,0.1,0.4
		c-0.1,0.1-0.1,0.2-0.2,0.2c0.9,0.5,1.7,1,2.6,1.4c0.4-0.2,0.8-0.2,1.2,0.1c0.1,0.1,0.3,0.2,0.4,0.2c0.7,0.4,1.5,0.6,2.3,0.8
		c1.6-0.6,3.2-0.6,4.9-1.1c0.5-0.1,0.8,0,1.1,0.2c2.2-0.1,4.8-0.4,7.1-1.1c1.2-1.3,2.7-2.4,4.3-3.1c0.3-0.1,0.6-0.2,0.8-0.1
		c0-0.3,0-0.6,0.1-0.9c0.1-0.2,0.3-0.4,0.4-0.6c0.2-0.1,0.5-0.1,0.6-0.1c-0.1-0.1-0.1-0.1-0.2-0.1c-0.1,0-0.2,0-0.3,0
		c0.5-0.7,0.8-1.5,1.2-2.2c0.1,0,0.3,0.1,0.4,0.1c0-1.3,0.4-2.5,0.4-3.7c0.3-0.1,0.6-0.3,0.9-0.4C40,23.6,39.4,22.1,39.1,20.8z"/>
	<path d="M18.8,28.9L18.8,28.9C18.8,28.9,18.8,28.9,18.8,28.9C18.8,28.9,18.8,28.9,18.8,28.9z"/>
	<path d="M28.3,29.9c-0.6,1.5-1.8,2.7-3.4,3c-1.1,0.1-2.1-0.1-2.9-0.6c0.9,0.6,2,0.9,3.2,0.7c1.6-0.3,2.7-1.5,3.3-3
		C28.4,30.1,28.3,30,28.3,29.9z"/>
	<path d="M29,30.5C29,30.4,29.1,30.4,29,30.5c-0.1-0.1-0.2-0.1-0.3-0.2C28.9,30.4,29,30.4,29,30.5z"/>
	<path d="M20.1,31.3c0.1-0.1,0.2-0.2,0.3-0.3c-0.1-0.1-0.2-0.2-0.2-0.3c0,0,0,0,0,0c-0.1,0.1-0.2,0.2-0.4,0.4
		c0.6,0.9,1.4,1.6,2.3,2.1C21.3,32.8,20.6,32.1,20.1,31.3z"/>
	<path d="M23.5,30.7c0.8-0.1,1.6-0.1,2.2-0.8C24.8,30,23.9,29.9,23.5,30.7z"/>
	<path d="M22.8,28.7c1.5,0,3-0.1,4.5-0.5c0.4-0.1,0.2-0.5-0.2-0.4c-1.1,0.2-2.2,0.4-3.3,0.4c-0.6,0-1.2,0-1.7-0.1
		c-0.4,0-0.9,0.1-0.9-0.5c-0.1-0.3-0.6-0.1-0.6,0.2C20.6,29,22.1,28.7,22.8,28.7z"/>
	<path d="M26,8.9c-0.4,0-0.7-0.1-1.1-0.1C25.3,9,25.7,9,26,8.9z"/>
	<path d="M39.5,20.8c-0.3-0.5-0.6-1-0.9-1.4c0.2,0,0.6,0,0.9,0c-0.7-0.8-1.7-1.4-2.2-2.3c-0.7-1.3-0.5-2.9-0.9-4.3
		c-0.1-0.4-0.2-0.7-0.4-1.1c0,0,0.1-0.1,0.1-0.1c0-0.1,0-0.3,0-0.4c0,0,0-0.1,0-0.1c0.1-0.2,0.2-0.4,0.2-0.5v0c0,0,0,0,0,0l0,0
		c0,0,0,0,0,0c0,0,0-0.1,0.1-0.1c0.1-0.1,0.1-0.1,0.2-0.2c0.1-0.1,0.2-0.3,0.3-0.4C37,9.9,37,9.7,37.1,9.6c0.1-0.2,0.1-0.5,0.1-0.7
		c0.1-0.2,0.1-0.4,0.2-0.6c0.1-0.7,0-1.6-0.4-2.3c-0.3-0.9-0.8-1.7-1.6-2.3c0,0-0.1,0-0.1,0c0,0,0,0,0.1,0c-1-0.1-2.1-0.4-2.9,0.2
		c-0.4,0.2-0.8,0.5-1.3,0.5c-0.1,0.1-0.3,0.2-0.5,0.3c-0.3,0.4-0.6,0.9-0.8,1.3c-3.2-1.4-6.9-1.6-10.3-0.6c-0.2,0.1-0.4,0.2-0.6,0.2
		c0,0-0.1,0-0.1,0c-0.1,0-0.2,0.1-0.3,0.1c0,0,0-0.1,0-0.1c-0.2-0.1-0.4-0.1-0.5-0.3c-0.5-0.1-0.7-0.4-0.9-0.7
		c-0.6-0.5-1.3-0.8-2.1-1.1c-0.8,0.2-1.7,0.4-2.2,1c-0.3,0.1-0.4,0.3-0.4,0.5c-0.1,0-0.2,0-0.3,0c-0.2,0.5-0.4,1-0.4,1.6
		C11.5,8,12.2,9.8,13.2,11c0.2,0.2,0.2,0.4,0.1,0.6c0,0,0,0.1,0.1,0.1c0,0.1,0.1,0.2,0.1,0.3s0,0.2,0,0.4h0
		c-0.2,0.9-0.4,1.8-0.7,2.7c-0.4,0.9-1.1,1.6-1.8,2.2c-0.2,0.1-0.5,0.1-0.7,0.2c0,0.1,0,0.3,0,0.4c0,0-0.1,0.1-0.1,0.1
		c-0.8,0.7-1.6,1.5-2,2.5c0.4-0.2,0.7-0.4,1.1-0.7C8.3,21,7.9,22.5,7.7,24c0.1,0,0.4,0,0.5,0c0,2.3,0.8,4.6,1.8,6.7
		c0.3,0.4,0.6,0.7,0.9,1h0c-0.1,0.1-0.1,0.1-0.2,0.2c0.1,0,0.3,0,0.4,0c0.3,0.3,0.6,0.6,0.9,0.9c0.1,0.6,0.3,1.2,0.4,1.9l0,0
		c-0.1,0.1-0.2,0.1-0.4,0.1c0.1,0.1,0.1,0.3,0.1,0.4c-0.1,0.2-0.3,0.3-0.4,0.5c0.8,0.5,1.7,0.9,2.5,1.3c0.4-0.2,0.8-0.2,1.2,0.1
		c0.1,0.1,0.3,0.2,0.4,0.2c1,0.5,2.2,0.9,3.3,1c0.7-0.4,1.5-0.6,2.3-0.7c0.4-0.1,0.7-0.2,1.1-0.3c0.1,0,0.1,0,0.2,0
		c0.1,0,0.2-0.1,0.4-0.1c1.3,0,2.7-0.1,4.2-0.3c-1.7-0.2-3.5-0.4-5.2-0.1c-0.9-0.4-1.7-0.9-2.5-1.5c-0.1,0-0.2-0.1-0.2-0.2
		c-0.6-0.5-1.2-1-1.6-1.7c0-0.1-0.1-0.1,0-0.2c-1.4-0.7-2.9-1.4-4.1-2.4c-0.6,0.1-1.2,0.2-1.7,0.3c-0.4-0.6-0.7-1.3-1.2-1.9
		c-0.1-0.1-0.4-0.2-0.5-0.3c-0.6-1.7-1.4-3.4-1.4-5.2c0-1.3,0.6-2.5,1.1-3.6c-0.1-0.1-0.4-0.3-0.5-0.4c0.4-0.4,0.8-0.9,1.1-1.3
		c0.3,0.4,0.7,0.6,0.8,1.1c0.3,1.1,0.8,2.3,1.3,3.3c0.3,0.5,0.7,0.9,1.2,1.1c1,0.4,2,0.6,3.1,0.5c0.4,0,0.8-0.1,1.2-0.2
		c0.1,0,0.3-0.1,0.4-0.1c-0.2,0.6-0.3,1.2-0.3,1.8c0.1-0.6,0.3-1.3,0.5-1.9c0.3-0.1,0.5-0.3,0.7-0.4c0.4-0.3,0.7-0.6,1-1
		c-0.1,0.2-0.1,0.5,0,0.7c0.9,1.4,2.2,2.8,3.4,2.7c1.5-0.1,2.1-2.1,2.8-3.4c-0.5-0.5-1-1.1-1.7-1.2c-1.2,0.6-2,0.2-3.2,0.3
		c-0.3-0.1-0.7,0-1,0.2c0.2-0.3,0.3-0.5,0.4-0.8c0.5-0.2,1-0.4,1.4-0.4c1.3-0.3,2.6,0,3.7,0.6c0.3,0.6,0.7,1.2,1.3,1.6
		c0.2,0.2,0.5,0.4,0.8,0.5c0.1,0.3,0.2,0.6,0.2,1c0.2,0.7,0.2,1.4,0.1,2c0,0.1,0,0.2,0,0.2l0.3-0.1l0.1,0c0.1-1.1,0-2.2-0.5-3.1
		c0.1,0,0.1,0.1,0.2,0.1c0.6,0.2,1.2,0.4,1.8,0.4c1,0.1,2.1-0.1,3-0.6c0.6-0.4,1.2-0.9,1.5-1.6c0.2-0.5,0.4-1,0.5-1.6
		s0.2-1.1,0.4-1.6c0.1-0.4,0.2-0.7,0.5-0.9c0.1-0.1,0.2-0.1,0.2-0.2c0.1-0.2,0-0.4,0-0.6c0-0.1,0-0.2,0-0.2c0.3,0.6,0.7,1.2,1.3,1.7
		c-0.2,0.1-0.5,0.1-0.7,0.2c0.9,0.5,1.4,1.4,1.6,2.4c0,0,0,0,0.1-0.1c0.3,0.7,0.6,1.7,0.6,2.2c-0.3-0.6-0.5-1.3-1.2-1.4
		c0.4,1.5,0.7,3.1,0.2,4.7c-0.4,1.1-0.6,2.4-1.4,3.3c-0.2,0.3-0.4,0.6-0.6,0.9c-0.5,0-1-0.1-1.5,0c-1,1-2.3,1.7-3.4,2.5
		c0,0.1,0,0.1,0,0.2c-0.3,0.6-0.7,1.1-1.2,1.5c-0.2,0.1-0.4,0.1-0.6,0.1c0,0.1-0.1,0.3-0.1,0.4c0.1,0,0.1,0,0.2,0
		c-0.6,0.5-1.1,0.9-1.7,1.2c1-0.2,2.1-0.4,3.1-0.7c1.2-1.3,2.7-2.4,4.3-3.1c0.3-0.1,0.6-0.2,0.9-0.1c0.1-0.1,0.2-0.1,0.3-0.2
		c0-0.3,0-0.5,0.1-0.8c0.1-0.2,0.3-0.4,0.4-0.6c0.2-0.1,0.5-0.1,0.6-0.1c-0.1-0.1-0.1-0.1-0.2-0.1c-0.1,0-0.2,0-0.3,0
		c0.5-0.7,0.9-1.5,1.3-2.2c0.1,0,0.3,0.1,0.4,0.1c0-1.3,0.5-2.5,0.4-3.7c0.3-0.1,0.6-0.3,0.9-0.4C40.3,23.5,39.8,22,39.5,20.8z
		 M12.5,8.2c0,0.1,0,0.1,0,0.2c-0.1-0.2-0.1-0.4-0.1-0.6C12.5,7.8,12.5,8,12.5,8.2z M10.1,18.1c0.1-0.1,0.1-0.1,0.2-0.1v0.1v0
		C10.2,18.2,10.2,18.1,10.1,18.1z M19.5,23.1c0.2-0.2,0.4-0.5,0.6-0.7C20,22.7,19.8,22.9,19.5,23.1z M19.4,18.7
		c-2.3-0.5-6.1-1.7-7,1.5c0.5-0.4,1.4-0.8,1.8-0.1c0.6,1,1.1,2.1,2.3,2.5c-0.3-0.4-0.7-0.6-0.8-1.1c0.5,0.4,0.8,0.8,1.4,1
		c-0.4-0.5-0.9-0.9-1.1-1.5c0.5,0.4,0.8,0.9,1.4,1.2c-0.2-0.4-0.5-0.7-0.7-1.1c1.4,0.8,2,0.2,3.4-0.2c-0.3,0.3-0.7,0.5-0.9,0.8
		c0.6-0.3,1.1-0.6,1.6-0.8c0.1-0.1,0.2-0.1,0.2-0.1l0,0c0,0.1-0.1,0.2-0.1,0.2c0,0,0,0,0,0.1c-0.4,0.3-0.8,0.7-1.1,1.1
		c-0.3,0.4-0.6,0.9-0.8,1.3c-0.7,0.4-1.5,0.6-2.3,0.6c-0.6,0-1.2,0-1.7-0.2c-0.7-0.2-1.3-0.6-1.7-1.2c-0.2-0.4-0.4-0.8-0.5-1.2
		c-0.3-0.9-0.5-1.9-0.5-2.8c0-0.4,0.1-0.7,0.4-1c0.2-0.2,0.5-0.4,0.7-0.5c0.4-0.2,0.9-0.3,1.4-0.4c0.5-0.1,0.9-0.1,1.4-0.2
		c1-0.1,1.9-0.1,2.8,0.1c0.6,0.1,1.1,0.3,1.6,0.5c0.4,0.2,0.7,0.5,0.8,0.8c0.1,0.2,0.1,0.4,0.2,0.6C20.7,19,20,18.8,19.4,18.7z
		 M19.2,20.3c-0.7,0.3-1.4,0.3-2.1,0.1c-0.6-0.1-1.2-0.4-1.6-0.9c-0.1-0.1-0.2-0.4,0-0.5c0.2-0.1,0.5,0,0.7,0
		c0.9,0.2,1.8,0.4,2.7,0.6c0.2,0.1,0.5,0.1,0.7,0.3C19.6,20.1,19.4,20.2,19.2,20.3z M22.7,20.3c-0.4,0.1-0.7,0.2-1,0.3
		c0.1-0.2,0.1-0.5,0.2-0.7c0.3-0.3,1-0.9,1.7-0.9c0,0,1.2,0.2,2,0.5c0.1,0.2,0.2,0.5,0.3,0.7c0.1,0.2,0.1,0.4,0.2,0.6
		C25,20.4,23.8,20.2,22.7,20.3z M34.9,21.6c-0.1,0.4-0.3,0.8-0.6,1.1c-0.3,0.4-0.7,0.6-1.1,0.8c-0.2,0.1-0.5,0.2-0.7,0.2
		c-1,0.2-2.2,0.2-3.1-0.2c-0.3-0.1-0.6-0.3-0.9-0.5c-0.1-0.1-0.1-0.3-0.2-0.4c-0.3-0.5-0.7-1-1.2-1.3c-0.1-0.1-0.1-0.3-0.2-0.4
		c0,0,0.1,0,0.1,0c0.1,0,0.2,0.1,0.2,0.1c0.6,0.1,1.1,0.4,1.7,0.6c-0.3-0.3-0.6-0.5-1-0.7c1.3,0.1,2,0.7,3.2-0.3
		c-0.1,0.4-0.4,0.7-0.5,1.1c0.5-0.4,0.7-0.9,1.1-1.4c-0.1,0.6-0.5,1.1-0.9,1.6c0.5-0.3,0.8-0.8,1.1-1.2c-0.1,0.5-0.4,0.8-0.6,1.2
		c1.1-0.6,1.4-1.7,1.8-2.8c0.3-0.8,1.2-0.5,1.7-0.2c-1.3-3-4.6-1.2-6.8-0.5c-0.6,0.2-1.2,0.4-1.8,0.4c0-0.4,0.1-0.7,0.2-1
		c0.2-0.4,0.6-0.6,1-0.8c0.5-0.3,1.1-0.4,1.6-0.6c0.2-0.1,0.5-0.1,0.7-0.1c1-0.1,2.1-0.1,3.1,0c0.6,0.1,1.1,0.1,1.6,0.4
		c0.4,0.2,0.7,0.4,0.8,0.8c0.1,0.3,0.1,0.7,0.2,1C35.3,19.7,35.1,20.6,34.9,21.6z M27.9,19.8c0.1-0.2,0.4-0.3,0.6-0.4
		c0.8-0.3,1.6-0.6,2.4-0.9c0.2-0.1,0.5-0.2,0.7-0.1c0.2,0,0.2,0.4,0.1,0.5c-0.3,0.5-0.9,0.9-1.4,1.1c-0.6,0.2-1.4,0.4-2,0.2
		C28.2,20.1,27.9,20,27.9,19.8z M36.4,16.4c-0.7-0.1-1.3-0.3-2-0.4c-0.5-0.1-1-0.1-1.6-0.2c-1.2-0.1-2.5,0.1-3.7,0.4
		c-1.2,0.3-2.4,0.6-3.6,0.8c-0.1,0-0.3,0-0.4,0.1c-0.6,0-3.4-0.1-4-0.2c-0.9-0.1-1.8-0.4-2.7-0.4c-0.9-0.1-1.8-0.2-2.7-0.2
		c-0.7,0-1.4,0.1-2.1,0.2c-0.5,0.1-1,0.2-1.5,0.4c0.6-0.6,1.1-1.4,1.4-2.2c0.2-0.9,0.4-1.9,0.7-2.8c0.1-0.1,0.2-0.2,0.3-0.3
		c-0.1-0.1-0.2-0.2-0.2-0.2c0.3-0.1,0.8-0.5,1-0.7c0.2-0.2,0.4-0.4,0.6-0.5c0.2-0.2,0.6-0.4,0.6-0.6c0-0.1,0-0.1,0.1-0.1
		c0-0.1-0.2-0.2-0.3-0.2c0,0,0,0,0,0c0,0-0.1,0-0.1,0c-0.2-0.1-0.4-0.3-0.6-0.5c0.1,0.2,0.2,0.4,0.4,0.5c-0.1,0-0.2,0-0.2,0
		c-0.3-0.2-0.6-0.4-0.8-0.7c-0.1-0.2-0.2-0.4-0.4-0.5c0.1,0.4,0.3,0.8,0.5,1.1c-0.9-0.6-1.3-1.7-1.5-2.7c-0.1,0.5,0.1,0.9,0.1,1.4
		c-0.4-0.7-0.4-1.5-0.3-2.2c0-0.1-0.1-0.1-0.1-0.2C13.1,5.8,13,6,13,6.1c0-0.2,0.1-0.4,0.2-0.6c0,0,0,0,0-0.1
		c0.1-0.3,0.3-0.6,0.5-0.8c-0.1,0-0.1,0-0.2,0c0-0.1,0-0.1-0.1-0.1c0.4-0.3,0.9-0.5,1.3-0.5c1.2-0.2,2,0.9,2.9,1.5
		c0,0.1,0.1,0.4,0.1,0.6c0.1,0,0.4,0,0.5,0c0.1,0.1,0.1,0.2,0.1,0.4c0,0,0,0,0.1,0c0.2,0,0.3,0,0.4,0.1c0-0.2,0-0.4,0.1-0.5
		c2.1-0.8,4.5-0.9,6.7-0.5c0,0,0,0-0.1,0c0.2,0,0.3,0,0.5,0c0.4,0.1,0.6,0.2,0.9,0.4C27,6,27,5.9,27.1,5.9c0.9,0.1,1.9,0.2,2.7,0.7
		c0,0.2,0,0.3,0,0.5c0.2,0,0.3,0,0.4,0.1c0.2-0.5,0.3-0.9,0.4-1.4c0,0.1,0.1,0.1,0.1,0.2c0.1-0.1,0.1-0.1,0.2-0.1
		c0.1-0.1,0.2-0.1,0.3-0.2c0.7-1,2.3-1.5,3.5-1c0.1-0.1,0.3-0.1,0.4,0.1c0.5,0.3,0.8,0.6,1,1c0,0-0.1-0.1-0.1-0.1c0,0.1,0,0.1,0,0.2
		c0.2,0.7,0.3,1.5,0,2.2c0-0.5,0-1-0.1-1.4c-0.1,1-0.3,2.2-1.1,2.9c0.1-0.4,0.3-0.8,0.3-1.2c-0.1,0.2-0.2,0.4-0.3,0.5
		c-0.2,0.3-0.4,0.6-0.7,0.8c-0.1,0-0.2,0-0.2,0c0.1-0.2,0.2-0.4,0.3-0.5c-0.2,0.2-0.3,0.4-0.5,0.5c0,0-0.1,0-0.1,0c0,0,0,0,0,0
		c-0.1,0.1-0.2,0.2-0.3,0.3c0,0,0,0.1,0.1,0.1c0.1,0.2,0.5,0.4,0.7,0.5c0.2,0.1,0.4,0.3,0.7,0.4c0.1,0.1,0.4,0.2,0.7,0.4
		c0,0.1-0.1,0.2-0.1,0.2c0.1,0.1,0.1,0.2,0.2,0.3c0.1,0.1,0.1,0.2,0.1,0.4c0.5,1.4,0.5,3,0.9,4.4C36.5,16.4,36.4,16.4,36.4,16.4z"/>
	<path d="M12.5,8.5L12.5,8.5C12.5,8.5,12.5,8.5,12.5,8.5C12.5,8.5,12.5,8.5,12.5,8.5z"/>
	<path fill="#010101" d="M14.6,15.4c0.3,0.1,0.7,0,1,0.1c1.6,0.7,3.4,0.7,5.1,0.6c0.5-1.6-0.9-1.2-1.4-1.4c-1.6-0.1-3.1-0.7-4.5-1.2
		c-0.3-0.1-0.5,0.2-0.7,0.3C14.1,14.5,14.3,15,14.6,15.4z"/>
	<path fill="#010101" d="M27.9,16.3c0.4,0,0.7-0.2,1.1-0.1c1.8,0.2,3.6-0.2,5.3-0.6c0.2-1.3-1-0.7-1.6-0.7c-1.6,0.2-3.2,0.1-4.8,0
		c-0.3,0-0.5,0.2-0.6,0.4C27.3,15.7,27.6,16.1,27.9,16.3z"/>
</g>
</svg>
