<?xml version="1.0" encoding="utf-8"?>
<!-- Generator: Adobe Illustrator 25.3.1, SVG Export Plug-In . SVG Version: 6.00 Build 0)  -->
<svg version="1.1" id="Layer_1" xmlns="http://www.w3.org/2000/svg" xmlns:xlink="http://www.w3.org/1999/xlink" x="0px" y="0px"
	 width="76px" height="81.7px" viewBox="0 0 76 81.7" style="enable-background:new 0 0 76 81.7;" xml:space="preserve">
<g>
	<g>
		<path d="M6.8,7.6C7.5,7.4,8.2,7.3,9,7.4c19.4,0,38.8,0,58.1,0c1.6-0.1,3.3,0.7,3.7,2.3c0.3,1.4,0.2,2.9,0.2,4.3
			c0,18.7,0,37.3,0,56c0.3,2.2-1.7,4.1-3.9,3.8c-19.6,0-39.1,0-58.7,0c-2.2,0.3-4.1-1.7-3.8-3.8c0-19.6,0-39.2,0-58.8
			C4.4,9.7,5.3,8,6.8,7.6z M7.3,9.7C7.2,9.8,7,10.1,6.8,10.2c-0.3,2-0.1,4-0.1,6c20.7,0,41.3,0,62,0c0-2,0.1-4-0.1-6
			c-0.4-0.8-1.4-0.5-2.1-0.6c-17.9,0-35.8,0-53.7,0C11,9.6,9.2,9.5,7.3,9.7z M6.7,18.4c0,17,0,34,0,51c0.1,0.7-0.2,1.7,0.6,2.1
			c2.2,0.3,4.4,0.1,6.5,0.1c17.5,0,35.1,0,52.6,0c0.7-0.1,1.7,0.2,2.1-0.6c0.2-1.8,0.1-3.7,0.1-5.5c0-15.7,0-31.4,0-47.1
			C48.1,18.5,27.4,18.5,6.7,18.4z"/>
	</g>
	<path d="M9.6,11.9c0.9-0.1,2.7-0.4,2.7,1c0.1,1.2-1.4,1.2-2.2,1.1C8.9,14.1,8.5,12.3,9.6,11.9z"/>
	<path d="M15.1,11.9c0.9-0.2,2.7-0.3,2.6,1c0.2,1.2-1.4,1.2-2.2,1.1C14.4,14.1,14.1,12.3,15.1,11.9z"/>
	<path d="M20.6,11.9c1-0.2,2.7-0.4,2.8,1c-0.1,1.4-1.8,1.2-2.7,1C19.8,13.5,19.8,12.3,20.6,11.9z"/>
	<path d="M32.8,11.9c9-0.2,18.1-0.1,27.1-0.1c1.4-0.1,1.4,2.3,0,2.1c-8.9,0.1-17.8,0.1-26.7,0C32.1,14.1,31.8,12.2,32.8,11.9z"/>
	<path d="M63.8,11.9c1-0.2,2.6-0.4,2.8,1c-0.2,1.3-1.8,1.3-2.8,1C63,13.6,63,12.3,63.8,11.9z"/>
	<g>
		<path d="M11.8,23c10.5-0.3,21,0,31.5-0.1c0.8,0,2.2-0.1,2.2,1.1c0.1,7.2,0,14.4,0.1,21.7c0.2,1-0.6,1.9-1.7,1.6
			c-10.7-0.1-21.4,0.1-32.1-0.1c-0.1-0.1-0.4-0.4-0.5-0.6c-0.3-3.1,0-6.2-0.1-9.3c0.1-4.6-0.2-9.2,0.1-13.8
			C11.4,23.4,11.7,23.1,11.8,23z M13.4,25.1c0,5.8,0,11.6,0,17.3c2.3-3.3,4.4-6.8,6.7-10.1c0.3-0.6,1.2-0.9,1.7-0.3
			c1.5,1.8,2.7,4,4.1,5.9c2.5-3.4,4.3-7.3,7-10.6C34,27,34.4,28.3,35,29c2.7,4.4,5.5,8.9,8.3,13.3c0-5.7,0-11.4,0-17.2
			C33.3,25.1,23.3,25.1,13.4,25.1z M24.2,45c6,0,12.1,0,18.2,0c-3-4.8-6-9.7-9.1-14.5C30.3,35.4,27.2,40.2,24.2,45z M14.3,45
			c2.4,0,4.9,0,7.3,0c1-1.6,2-3.2,3-4.9c-1.2-1.7-2.2-3.5-3.5-5.1C18.7,38.2,16.6,41.7,14.3,45z"/>
	</g>
	<path d="M49.4,23c0.9-0.2,2.8-0.4,2.7,1c0.1,1.2-1.4,1.2-2.2,1.1C48.8,25.2,48.4,23.4,49.4,23z"/>
	<path d="M55,23c2.7-0.3,5.5-0.1,8.2-0.1c1.1-0.1,1.5,1.6,0.5,2.1c-2.7,0.2-5.5,0.1-8.3,0.1C54.3,25.2,53.8,23.3,55,23z"/>
	<path d="M49.4,27.4c4.6-0.2,9.2-0.1,13.8,0c1.4-0.2,1.4,2.3,0,2.1c-4.4,0.1-8.9,0.1-13.3,0C48.7,29.7,48.4,27.8,49.4,27.4z"/>
	<path d="M49.4,31.8c4.6-0.2,9.2-0.1,13.9-0.1c1.4-0.1,1.4,2.3,0,2.1c-4.5,0.1-8.9,0.1-13.4,0C48.7,34,48.4,32.3,49.4,31.8z"/>
	<path d="M49.4,36.3c4.6-0.2,9.2-0.1,13.8-0.1c1.4-0.2,1.4,2.3,0,2.1c-4.4,0.1-8.9,0.1-13.3,0C48.7,38.5,48.4,36.7,49.4,36.3z"/>
	<path d="M49.4,40.7c4.2-0.3,8.5,0,12.7-0.1c0.7,0.1,1.8-0.2,2.1,0.7c0.4,0.7-0.2,1.6-1,1.5c-4.4,0.1-8.9,0.1-13.3,0
		C48.7,42.9,48.3,41.1,49.4,40.7z"/>
	<path d="M49.4,45.1c2.8-0.2,5.5-0.1,8.3-0.1c1.2-0.1,1.5,1.7,0.4,2.1c-2.7,0.2-5.5,0.1-8.3,0.1C48.7,47.3,48.4,45.6,49.4,45.1z"/>
	<path d="M61.6,45.1c0.9-0.1,2.1-0.4,2.7,0.5c0.7,2.2-4,2.2-3.2,0C61.2,45.5,61.5,45.3,61.6,45.1z"/>
	<g>
		<path d="M11.8,51.8c4.6-0.2,9.2-0.1,13.8-0.1c1.2-0.1,1,1.4,1.1,2.2c-0.1,4.1,0.1,8.1,0,12.2c0,1.4-1.8,1-2.7,1.1
			c-4-0.1-8.1,0.1-12.1-0.1c-0.1-0.1-0.4-0.4-0.5-0.5c-0.2-4.7-0.2-9.5,0-14.3C11.4,52.2,11.6,51.9,11.8,51.8z M13.4,53.9
			c0,3.7,0,7.4,0,11.1c3.7,0,7.4,0,11.1,0c0-3.7,0-7.4,0-11.1C20.7,53.9,17.1,53.9,13.4,53.9z"/>
	</g>
	<g>
		<path d="M30.6,51.8c4.6-0.2,9.2-0.1,13.8-0.1c1.2-0.1,1.1,1.3,1.1,2.2c0,4.2,0.1,8.4-0.1,12.6c-0.1,0.1-0.4,0.4-0.5,0.6
			c-4.6,0.2-9.2,0.1-13.9,0.1c-1.2,0-1.1-1.4-1.1-2.1c0-4.2-0.1-8.5,0.1-12.7C30.2,52.2,30.5,51.9,30.6,51.8z M32.2,53.9
			c0,3.7,0,7.4,0,11.1c3.7,0,7.4,0,11.1,0c0-3.7,0-7.4,0-11.1C39.6,53.9,35.9,53.9,32.2,53.9z"/>
	</g>
	<g>
		<path d="M49.4,51.8c4.6-0.2,9.2-0.1,13.8,0c1.2-0.1,1.1,1.4,1.1,2.1c-0.1,4.1,0.1,8.1,0,12.2c0,1.4-1.8,1.1-2.7,1.1
			c-4-0.1-8.1,0.1-12.1-0.1c-0.1-0.1-0.4-0.4-0.5-0.5c-0.2-4.8-0.2-9.5,0-14.3C49,52.2,49.3,51.9,49.4,51.8z M51,53.9
			c0,3.7,0,7.4,0,11.1c3.7,0,7.4,0,11.1,0c0-3.7,0-7.4,0-11.1C58.4,53.9,54.7,53.9,51,53.9z"/>
	</g>
</g>
</svg>
