<?xml version="1.0" encoding="utf-8"?>
<!-- Generator: Adobe Illustrator 25.3.1, SVG Export Plug-In . SVG Version: 6.00 Build 0)  -->
<svg version="1.1" id="Layer_1" xmlns="http://www.w3.org/2000/svg" xmlns:xlink="http://www.w3.org/1999/xlink" x="0px" y="0px"
	 width="76px" height="81.7px" viewBox="0 0 76 81.7" style="enable-background:new 0 0 76 81.7;" xml:space="preserve">
<g>
	<g>
		<path d="M40.9,6.6h4.2C45.5,7,45.9,7.5,46.3,8c5.2,0,10.5,0,15.7,0c0.3-0.5,0.6-1,0.9-1.4h4.3c1.2,1.2,0.8,2.9,0.8,4.4
			c0.1,0.9-0.9,1.2-1.4,1.8c-0.1,1.1-0.1,2.3-0.1,3.5c-0.2,0.2-0.7,0.5-1,0.7c-0.2-0.2-0.7-0.5-1-0.7c0-1.2-0.1-2.4-0.1-3.6
			c-0.7-0.2-1.5-0.1-2.1-0.7c-0.2-0.6-0.3-1.2-0.5-1.9c-5.3,0-10.6,0-15.9,0c0,1.5-0.9,2.6-2.5,2.6c0,6.2,0,12.5,0,18.7
			c1.5,0,2.5,0.9,2.5,2.4c5.3,0,10.5,0,15.8,0c0-1.6,1-2.5,2.6-2.4c0-3.4,0-6.7,0-10.1c-0.2-0.9,0.4-1.6,1.1-2.1
			c0.6,0.6,1.1,1.3,1,2.1c0,3.3-0.1,6.6,0,9.9c2,1.1,1.5,3.6,1.3,5.4c-0.9,1.2-2.6,0.7-3.9,0.8c-1.1,0.2-1.6-0.8-2.1-1.5
			c-0.5,0-1.5,0-2-0.1c-0.1,4.3,0.1,8.6-0.1,12.9c-0.2,0.3-0.7,0.8-0.9,1.1c-0.7-0.5-1.1-1.3-1-2.1c0-3.9,0-7.8,0-11.7
			c-3.8,0-7.7,0-11.5,0c-0.8,2.2-3.4,1.5-5.2,1.4c-1.4-0.8-0.8-2.7-0.9-4c-0.2-1.1,0.7-1.6,1.5-2.1c0-4.9,0-9.7,0-14.6
			c-7.7,0-15.4,0-23.1,0c0,16.7,0,33.5,0,50.2c13.1,0,26.2,0,39.3,0c0.1-4.6-0.1-9.2,0.1-13.8c0.1-0.2,0.3-0.5,0.4-0.7
			c0.2-0.1,0.7-0.4,1-0.5c0.8,1.2,0.7,2.6,0.7,3.9c-0.1,4,0,8-0.1,12.1c-0.4,0.4-0.8,0.8-1.2,1.2c0,1.5,0.1,3.3-1.4,4.3
			c-0.1,1.2-0.2,2.4-1.1,3.3H11.9c-2.5-0.5-4.6-2.8-4.4-5.5c0-18.4,0-36.9,0-55.3c0-1.4,0.2-2.9,1.2-4c1.6-1.8,4.4-1.6,6.6-1.3
			c1.9,0.4,2.9,2.2,3.4,4c7.7,0,15.3,0,23,0c0-0.6,0-1.2-0.1-1.9c-0.4-0.5-1.3-0.7-1.4-1.4C40.1,9.7,39.8,7.9,40.9,6.6z M42.3,8.6
			c0,0.6-0.1,1.1-0.1,1.7c0.6,0,1.2,0,1.8,0c0-0.6,0-1.1,0-1.7C43.4,8.6,42.9,8.6,42.3,8.6z M64.3,8.6c0,0.6-0.1,1.1-0.1,1.7
			c0.6,0,1.2,0.1,1.8,0.1c0-0.6,0-1.2,0-1.8C65.5,8.6,64.9,8.6,64.3,8.6z M9.5,14.8c-0.1,16.4,0,32.8,0,49.2c2.2-0.9,4.8-0.8,7,0
			c0-16.1,0-32.1,0-48.2c0-0.9,0-2-0.7-2.7c-0.9-1-2.5-0.7-3.7-0.7C10.8,12.4,9.5,13.5,9.5,14.8z M42.3,33.6c0,0.6,0,1.2,0,1.8
			c0.6,0,1.1,0,1.7,0c0-0.6,0-1.2,0-1.7C43.4,33.6,42.8,33.6,42.3,33.6z M64.3,33.6c0,0.6,0,1.1,0,1.7c0.6,0,1.1,0,1.7,0
			c0-0.6,0-1.2,0-1.8C65.5,33.6,64.9,33.6,64.3,33.6z M10,66.5c-1.3,1.7,0.1,4.4,2.1,4.6c3.3,0.2,6.5-0.1,9.8,0.1
			c0.2,0.2,0.5,0.5,0.7,0.7c1,0,2.1,0,3.1,0l0.3-0.6c10.2-0.2,20.4,0,30.6-0.1c0-0.7,0-1.4,0-2.1c-13.2-0.1-26.4,0.1-39.6-0.1
			c-0.8-1.1-0.6-3-2.3-3.3C13.2,65.5,11.2,65.1,10,66.5z M9.5,72.3c0.8,1.3,2,2.4,3.6,2.2c14,0,28,0,42,0c0-0.5,0-1,0-1.4
			c-9.1,0.1-18.1,0-27.2,0c-0.9,0-1.8-0.1-2.6-0.3l0.4-0.7c-1.1,0-2.2,0-3.3,0l0.3,0.8c-3,0.6-6,0.1-9.1,0.3
			C12.2,73.3,10.8,73,9.5,72.3z"/>
	</g>
	<path d="M48.3,15.4c3.6-0.6,7.3-0.1,10.9-0.2c1.2-0.3,1.5,1.7,0.4,1.9c-2.9,0.3-5.8,0-8.7,0.1C49.7,17.4,47.1,17.2,48.3,15.4z"/>
	<path d="M48.3,19.3c3.5-0.6,7.3-0.1,10.9-0.2c1.3-0.3,1.6,1.9,0.3,2c-3.5,0.1-7,0-10.5,0C48.1,21.1,47.6,19.9,48.3,19.3z"/>
	<path d="M21.2,20c3.1-0.3,6.3-0.1,9.5-0.1c1.1-0.1,1.5,1.4,0.6,1.9c-3.1,0.2-6.3,0.1-9.4,0.1C20.8,21.7,21.1,20.8,21.2,20z"/>
	<path d="M48.3,23.1c3.6-0.4,7.3-0.2,10.9-0.1c1.2-0.2,1.5,1.9,0.2,1.9c-3.5,0.1-7,0.1-10.5,0C48,24.9,47.7,23.7,48.3,23.1z"/>
	<path d="M21.7,25c5-0.1,10,0,15,0c1-0.2,1.7,1,1,1.7c-0.8,0.5-1.7,0.2-2.6,0.3c-4.4,0-8.8,0.1-13.2,0C20.8,26.8,20.8,25.3,21.7,25z
		"/>
	<path d="M48.3,27c3.6-0.5,7.2-0.1,10.8-0.2c1.2-0.2,1.6,1.8,0.3,2c-3.4,0.1-6.8,0.1-10.2,0C48.3,29,47.5,27.7,48.3,27z"/>
	<path d="M21.4,28.6l0.4-0.2c5.1,0,10.2-0.1,15.3,0c1.1,0.2,0.8,2-0.2,1.9c-5,0-10,0.1-14.9,0C21.1,30.6,20.6,29,21.4,28.6z"/>
	<path d="M22,31.9c4.7-0.1,9.5,0,14.2,0c0.7,0,1.8,0.1,1.8,1c0,0.9-1,1.2-1.7,1.1c-4.2,0-8.5,0-12.7,0c-0.8,0-1.7-0.1-2.5-0.3
		C21.1,33,21,31.9,22,31.9z"/>
	<path d="M21.3,35.5c5.1-0.4,10.2-0.1,15.4-0.2c1.2-0.3,1.7,1.7,0.5,1.9c-4.9,0.2-9.8,0-14.7,0.1C21.3,37.7,20.6,36.4,21.3,35.5z"/>
	<g>
		<path d="M21.5,41.3c0.7-0.6,1.7-0.3,2.5-0.4c4,0,8.1,0,12.1,0c1-0.2,1.9,0.7,1.8,1.7c0,6.6,0,13.2,0,19.8c0.1,1-0.7,1.9-1.7,1.7
			c-4.6,0-9.2,0.1-13.8,0c-0.9,0-1.4-0.9-1.3-1.7c0-6.4,0-12.8,0-19.2C21.1,42.6,20.9,41.7,21.5,41.3z M23.1,59.8
			c3.9-5.6,7.9-11.2,11.8-16.8c-3.9,0-7.8,0-11.7,0.1C23.1,48.6,23.2,54.2,23.1,59.8z M24.2,62c3.9,0.1,7.8,0,11.7,0
			c0-5.6,0-11.2,0-16.8C31.8,50.8,28,56.4,24.2,62z"/>
	</g>
	<g>
		<path d="M40.6,41.1c3.8-0.4,7.7-0.1,11.5-0.2c1.1,0,2.9-0.3,3.1,1.2c0.1,4.2,0.1,8.4,0,12.6c0.1,0.8-0.6,1.6-1.5,1.6
			c-4.1,0.1-8.1,0-12.2,0c-0.9,0.1-1.9-0.6-1.7-1.6c-0.1-3.7,0-7.3,0-11C39.9,42.9,39.6,41.6,40.6,41.1z M41.9,43c0,3.3,0,6.5,0,9.8
			c3.2-3.3,6.5-6.5,9.8-9.8C48.4,43,45.2,43,41.9,43z M43.5,54.1c3.2,0.4,6.4,0,9.5,0.2c0-3.3,0-6.5,0-9.8
			C50,47.8,46.8,51,43.5,54.1z"/>
	</g>
	<path d="M40.2,58.8c2.6-0.5,5.4-0.2,8.1-0.2c1.2-0.2,1.6,1.8,0.4,2c-2.6,0.1-5.3,0.1-8,0C39.8,60.5,39.5,59.3,40.2,58.8z"/>
	<path d="M40.8,62.1c2.6-0.1,5.2-0.1,7.8,0c1,0,1.1,1.7,0.2,1.9c-2.7,0.1-5.5,0.1-8.3,0C39.4,63.8,39.7,62,40.8,62.1z"/>
	<path d="M51.2,62.2c1.3-0.1,2.6-0.2,3.9,0c1.1,0.2,0.9,2.1-0.3,1.9c-1.4-0.1-4.1,0.9-4.2-1.2C50.7,62.7,51,62.3,51.2,62.2z"/>
</g>
</svg>
