<?xml version="1.0" encoding="utf-8"?>
<!-- Generator: Adobe Illustrator 25.3.1, SVG Export Plug-In . SVG Version: 6.00 Build 0)  -->
<svg version="1.1" id="Capa_1" xmlns="http://www.w3.org/2000/svg" xmlns:xlink="http://www.w3.org/1999/xlink" x="0px" y="0px"
	 width="27.8px" height="28.5px" viewBox="0 0 27.8 28.5" style="enable-background:new 0 0 27.8 28.5;" xml:space="preserve">
<g>
	<g>
		<path d="M1.5,2.4C1.8,2,2.3,2,2.8,2c3.4,0,6.7,0,10.1,0c0.6-0.1,1.3,0.4,1.4,1c0.1,0.8,0,1.5,0,2.3c3.6,0,7.1,0,10.7,0
			c0.4,0,1,0,1.3,0.4c0.4,0.3,0.4,0.8,0.4,1.3c0,2.7,0,5.5,0,8.2c0,0.4,0,0.9-0.4,1.3c-0.3,0.4-0.8,0.4-1.3,0.4c-1.3,0-2.6,0-3.9,0
			c-0.6,0.7-1.2,1.5-1.9,2.2c-0.5,0.5-1.3,0.2-1.5-0.4c-0.1-0.6-0.1-1.2-0.1-1.8c-0.3,0-0.5,0-0.8,0c0,2.2,0,4.4,0,6.6
			c0,0.4,0,1-0.4,1.3C16.1,25,15.5,25,15.1,25c-1.4,0-2.7,0-4.1,0c0,0.6,0.1,1.2-0.1,1.8c-0.2,0.6-1.1,0.8-1.5,0.4
			c-0.7-0.7-1.2-1.5-1.9-2.2c-1.4,0-2.9,0-4.3,0C2.5,25,2,24.4,2,23.8c0-2.7,0-5.4,0-8c-0.1-0.6,0.4-1.3,1-1.4c1.2-0.1,2.4,0,3.6,0
			c-0.2-0.3-0.5-0.5-0.7-0.8c-1.2,0-2.3,0-3.5,0c-0.6,0-1.2-0.5-1.2-1.2c0-2.8,0-5.6,0-8.4C1.2,3.4,1.1,2.7,1.5,2.4z M2,3.2
			c0,2.9,0,5.8,0,8.6c0,0.3,0,0.8,0.4,0.8c1.3,0.1,2.6,0,3.9,0c0.8,0.8,1.4,1.8,2.2,2.5c0.1-0.8,0-1.7,0-2.5c1.5,0,3,0,4.5,0
			c0.4,0,0.4-0.5,0.4-0.8c0-2.9,0-5.8,0-8.6c0-0.4-0.5-0.4-0.8-0.4c-3.4,0-6.7,0-10.1,0C2.3,2.8,2,2.9,2,3.2z M14.3,6.1
			c0,1.9,0,3.8,0,5.7c0,0.4,0,0.9-0.4,1.3c-0.3,0.4-0.8,0.3-1.3,0.4c0,0.7,0,1.5,0,2.2c0,0,0.1,0.1,0.2,0.2c1.8,0.1,3.7,0,5.5,0
			c0,0.8,0,1.7,0,2.5c0.9-0.7,1.5-1.7,2.2-2.5c1.6,0,3.1,0,4.7,0c0.4,0,0.4-0.5,0.4-0.8c0-2.9,0-5.8,0-8.6c0-0.3-0.3-0.4-0.6-0.4
			C21.5,6.1,17.9,6.1,14.3,6.1z M9.4,13.5c0,0.3,0,0.5,0,0.8c0.8,0,1.6,0,2.5,0c0-0.3,0-0.5,0-0.8C11,13.5,10.2,13.5,9.4,13.5z
			 M2.8,15.9c0,2.5,0,5.1,0,7.6c0,0.3,0.1,0.6,0.4,0.6c1.6,0,3.1,0,4.7,0c0.8,0.8,1.4,1.8,2.2,2.5c0-0.8,0-1.7,0-2.5
			c1.8,0,3.6,0,5.3,0c0.3,0,0.4-0.3,0.4-0.6c0-2.3,0-4.5,0-6.8c-1.1,0-2.2,0.1-3.2-0.1c-0.7-0.2-0.9-0.9-0.9-1.6c-0.8,0-1.6,0-2.4,0
			C9.2,15.5,9,15.9,8.5,16c-0.6,0.1-0.9-0.4-1.3-0.8c-1.3,0-2.7,0-4,0C2.8,15.1,2.8,15.7,2.8,15.9z"/>
	</g>
	<g>
		<path d="M3.6,6.7c0.1-1.2,1.2-2.3,2.4-2.2c0.6,0,1.2,0.3,1.7,0.6c0.9-0.7,2.1-0.8,3-0.1c1.3,0.9,1.4,3,0.3,4.1c-1.1,1-2.2,2-3.3,3
			c-1-0.9-2.1-1.8-3.1-2.8C3.9,8.6,3.5,7.7,3.6,6.7z M4.4,6.9C4.4,7.6,4.7,8.2,5.2,8.6c0.8,0.8,1.7,1.5,2.5,2.3
			c0.9-0.8,1.9-1.6,2.7-2.5c0.9-0.9,0.6-2.8-0.7-3.1c-0.8-0.3-1.5,0.3-2,0.9c-0.5-0.4-0.9-1-1.6-1C5.2,5.3,4.5,6.1,4.4,6.9z"/>
	</g>
	<g>
		<path d="M19.3,7.4c0.5-0.8,1.8-0.6,2.3,0.2c0.4,0.5,0.3,1.2,0.2,1.7c0.8-0.1,1.9,0.1,2.2,1c0.3,0.9,0.1,2,0.1,2.9
			c0.1,0.9-0.5,1.7-1.4,1.8c-1.5,0.1-3,0.1-4.3-0.5c-0.5,0.7-1.5,0.5-2.3,0.5c-0.5,0.1-1-0.3-1-0.8c0-1.3,0-2.6,0-3.9
			c0-0.4,0.2-0.9,0.6-1c0.8-0.1,1.6-0.1,2.4,0.1C18.7,8.9,18.9,8.2,19.3,7.4z M19.9,8c-0.3,0.9-0.8,1.7-1.5,2.4c0,1.1,0,2.2,0,3.3
			c1.3,0.7,2.7,0.7,4.1,0.6c0.4,0,0.8-0.4,0.8-0.8c0-0.9,0.1-1.9-0.1-2.8c-0.5-0.8-1.7-0.4-2.5-0.5C20.9,9.6,21,9,21,8.4
			C21,7.9,20.1,7.5,19.9,8z M15.9,10.2c0,1.4,0,2.7,0,4.1c0.5,0,1.1,0,1.6,0c0-1.4,0-2.7,0-4.1C17,10.2,16.5,10.2,15.9,10.2z"/>
	</g>
	<g>
		<path d="M8.1,17.4c0.6-0.8,1.9-0.8,2.5,0C11,17.8,11,18.4,11,19c0.2-0.5,0.5-1.1,1.1-1.3c0.9-0.3,1.9,0.2,2.1,1.1
			c0.2,0.5-0.1,1.1-0.3,1.5c1,0.6,1.3,1.8,1.2,3c-0.3,0-0.5,0-0.8,0c0-0.7,0.1-1.5-0.5-2c-0.5-0.5-1.2-0.5-1.9-0.4
			c0.1,0.8,0.2,1.5,0.3,2.3c-0.3,0-0.5,0.1-0.8,0.1c-0.2-1,0-2.2-0.9-2.9c-0.9-0.8-2.4-0.5-2.9,0.6c-0.3,0.7-0.3,1.5-0.4,2.3
			c-0.3,0-0.5-0.1-0.8-0.1c0.1-0.8,0.2-1.5,0.3-2.3c-0.6-0.2-1.4-0.2-1.9,0.4c-0.5,0.5-0.5,1.3-0.5,2c-0.3,0-0.5,0-0.8,0
			c-0.1-1.1,0.2-2.3,1.2-3c-0.3-0.5-0.5-1.1-0.3-1.7c0.3-0.9,1.5-1.4,2.4-0.9C7.3,18,7.5,18.5,7.7,19C7.7,18.4,7.7,17.8,8.1,17.4z
			 M9,17.7c-0.6,0.2-0.6,1.1-0.1,1.4c0.4,0.4,1.2,0.1,1.3-0.5C10.3,18,9.6,17.4,9,17.7z M5.7,18.5c-0.6,0.2-0.7,1.1-0.1,1.4
			C6,20.3,6.8,20,6.9,19.4C7,18.8,6.3,18.2,5.7,18.5z M12.3,18.5c-0.6,0.2-0.6,1.1-0.1,1.4c0.5,0.4,1.3,0,1.3-0.7
			C13.5,18.7,12.8,18.2,12.3,18.5z M7.8,18.7c-0.1,0.4-0.1,0.8-0.2,1.2c0.2-0.1,0.3-0.2,0.5-0.3C8,19.3,7.9,19,7.8,18.7z M10.9,18.8
			c-0.1,0.3-0.2,0.6-0.3,0.8c0.2,0.1,0.3,0.2,0.5,0.3C11,19.5,11,19.1,10.9,18.8z"/>
	</g>
</g>
</svg>
