<?xml version="1.0" encoding="utf-8"?>
<!-- Generator: Adobe Illustrator 25.3.0, SVG Export Plug-In . SVG Version: 6.00 Build 0)  -->
<svg version="1.1" id="Capa_1" xmlns="http://www.w3.org/2000/svg" xmlns:xlink="http://www.w3.org/1999/xlink" x="0px" y="0px"
	 width="32px" height="32px" viewBox="0 0 32 32" style="enable-background:new 0 0 32 32;" xml:space="preserve">
<g>
	<path d="M5.8,19.92c0.02,1.52,1.92,1.22,2.88,0.78C8.58,19.32,6.71,20.17,5.8,19.92z"/>
	<path d="M5.81,21.7c0.03,1.53,1.89,1.19,2.87,0.77C8.57,21.06,6.71,21.91,5.81,21.7z"/>
	<path d="M6.01,23.44c-0.47,1.52,1.87,1.24,2.64,0.75C8.63,22.91,6.84,23.57,6.01,23.44z"/>
	<path d="M27.93,13.88c0.28-0.9,0.57-1.79,0.88-2.67c0.6,0.11,1.21,0.23,1.83,0.29c0.1-0.54-0.08-0.99-0.57-1.37
		c0.55-0.81,1.17-1.6,1.66-2.46c-0.07-0.11-0.21-0.33-0.28-0.44c-1.83-0.8-3.76-1.34-5.66-1.94c-0.21,1.43,0.18,3.1-1.09,4.14
		c0.2,0.16,0.6,0.47,0.81,0.62c-0.31,0.88-0.64,1.78-0.96,2.66c-2.35-0.07-4.68,1.08-5.92,3.1c-2.36,3.36-0.59,8.72,3.41,9.84
		c2.74,1.22,6.14-0.02,7.73-2.49C31.73,20.17,30.88,15.91,27.93,13.88z M26.64,6.66c1.24,0.42,2.48,0.85,3.73,1.27
		c-0.54,0.68-1.04,1.39-1.56,2.09c-0.72-0.26-1.43-0.51-2.14-0.81C26.53,8.35,26.64,7.5,26.64,6.66z M24.78,25.04
		c-3.41,0.54-6.57-2.84-6.14-6.18c0.02-1.17,0.72-2.17,1.25-3.16c1.83-0.13,3.54,0.6,4.97,1.7c1.5,1.08,3.24,1.7,5.04,2.04
		C29.85,22.24,27.6,24.8,24.78,25.04z M21.12,14.58c1.29-0.55,2.66-0.8,4.06-0.86c0.39-1.14,0.78-2.3,1.19-3.44
		c0.55,0.2,1.11,0.37,1.66,0.57c-0.39,1.16-0.8,2.31-1.19,3.47c1.29,1.04,2.46,2.35,2.82,4.04C26.46,17.9,24.28,15.15,21.12,14.58z"
		/>
	<path d="M13.6,27.09c-0.96-2.53-2.04-5.02-3.03-7.53c-0.41-1.06-1.04-2.09-1.06-3.26c-0.05-2.82-0.03-5.64,0-8.44
		c0.67-0.08,1.34-0.16,2-0.26c-0.37-1.34-1.91-0.72-2.9-0.86c0,1.76,0,3.52-0.02,5.28C7.43,12,6.25,12,5.1,12.02
		c0-1.53,0.03-3.06,0-4.6c0.15-1.06-1.32-0.49-1.89-0.72c0.03,0.65,0.44,1.06,0.98,1.37c0.05,2.88,0.08,5.79-0.02,8.69
		c-1.04,3.49-2.61,6.83-3.59,10.33l0,0l-0.31,0.95h13.79L13.6,27.09L13.6,27.09z M1.67,26.96c1.08-3.15,2.28-6.26,3.36-9.4
		c0.16-1.48,0.03-2.98,0.07-4.47c1.17,0,2.35-0.02,3.52-0.02c0.02,1.5-0.08,3.02,0.03,4.51c1.21,3.15,2.56,6.23,3.76,9.36
		C8.84,26.95,5.26,26.93,1.67,26.96z"/>
	<path d="M18.53,10.98c-1.16-0.23-1.96,0.7-2.23,1.73c-0.72-0.02-1.45-0.02-2.17-0.02c-0.34-0.95-1.37-2.3-2.44-1.5
		c-0.18,0.8,0.88,0.96,1.34,1.4c0.02,3.96-0.02,7.94,0,11.9c-0.02,0.18,0.02,0.33,0.08,0.47c0.23,0.96,1.08,1.68,2.1,1.68
		c1.17,0,2.12-0.93,2.17-2.1c0.05-0.18,0.07-0.34,0.07-0.54c0.03-3.81-0.08-7.64,0.03-11.47C17.86,12.05,19.24,11.77,18.53,10.98z
		 M16.33,24.83c-0.08,0.13-0.16,0.24-0.26,0.36c-0.55,0.54-1.27,0.39-1.78-0.07c-0.34-0.46-0.39-4.81-0.39-4.81v-0.08l0,0
		c0-0.37,0-0.73,0-1.11c0.6-0.21,1.96,0.15,1.83-0.91c-0.54-0.34-1.74,0.07-1.84-0.73c0.57-0.36,2.41-0.11,1.61-1.14
		c-0.6-0.13-1.21-0.24-1.79-0.36c0.57-0.44,1.29-0.52,1.96-0.77c0.21-1.11-1.56-0.47-1.94-1.37c0.93-0.08,1.87-0.11,2.82-0.11
		c0,2.84,0.02,5.69,0,8.52l0.02,0.02C16.52,23.28,16.47,24.39,16.33,24.83z"/>
	<circle cx="14.94" cy="9.97" r="1.24"/>
	<path d="M17.27,8.65c1.27,1.12,3.59-0.13,3.06-1.86c-0.15-1.37-1.71-1.65-2.79-1.27C16.42,6.17,16.16,7.85,17.27,8.65z M18.49,5.99
		c0.68,0,1.24,0.55,1.24,1.24s-0.55,1.24-1.24,1.24s-1.24-0.55-1.24-1.24C17.25,6.53,17.81,5.99,18.49,5.99z"/>
</g>
</svg>
