<?xml version="1.0" encoding="utf-8"?>
<!-- Generator: Adobe Illustrator 25.3.0, SVG Export Plug-In . SVG Version: 6.00 Build 0)  -->
<svg version="1.1" id="Capa_1" xmlns="http://www.w3.org/2000/svg" xmlns:xlink="http://www.w3.org/1999/xlink" x="0px" y="0px"
	 width="36.4px" height="25.7px" viewBox="0 0 36.4 25.7" style="enable-background:new 0 0 36.4 25.7;" xml:space="preserve">
<style type="text/css">
	.st0{fill:#BBBABA;}
</style>
<g>
	<path class="st0" d="M11,7.5c0.4-0.3,1-0.3,1.5-0.3c6.3,0,12.5,0,18.8,0c1-0.1,1.8,0.8,1.8,1.8c0,3.7,0,7.4,0,11.1
		c0.1,0.9-0.8,1.8-1.8,1.7c-6.5,0-13,0-19.5,0c-0.9,0-1.6-0.8-1.5-1.7c0-3.7,0-7.4,0-11.1C10.3,8.4,10.5,7.8,11,7.5z M12.5,8.3
		c3,2.5,5.9,4.9,8.9,7.4c0.1,0,0.3,0.1,0.4,0.1c3.1-2.5,6-5.1,9.1-7.5C24.8,8.2,18.6,8.3,12.5,8.3z M11.4,9c0.1,3.6,0,7.2,0.1,10.8
		c1.9-2,3.8-4.1,5.7-6.1C15.2,12.1,13.4,10.4,11.4,9z M26.2,13.7c1.9,2,3.8,4.1,5.7,6.1c0-3.6,0-7.3,0-10.9
		C30,10.5,28.1,12.1,26.2,13.7z M12.2,20.7c6.3,0,12.7,0,19,0c-2-2.1-3.9-4.2-5.9-6.3c-1.2,1-2.4,2.1-3.7,3c-1.2-1-2.4-2-3.6-3
		C16.1,16.5,14.1,18.5,12.2,20.7z"/>
</g>
<path class="st0" d="M6.6,10.1C7.4,10,8.3,9.9,9.2,10c0.5,0,0.7,0.7,0.3,1c-0.8,0.1-1.7,0.1-2.5,0C6.6,10.9,6.6,10.5,6.6,10.1z"/>
<path class="st0" d="M5.6,12.7c1.3-0.2,2.6-0.2,3.9,0c0,0.2,0.1,0.6,0.1,0.8c-1,0.5-2.2,0.2-3.3,0.2C5.8,13.9,5.1,13.2,5.6,12.7z"/>
<path class="st0" d="M4.5,16.3c-0.2-0.6,0.1-1.2,0.8-1.1c1.4,0,2.8-0.1,4.2,0c0.3,0.3,0.3,0.7,0,1C7.8,16.4,6.1,16.3,4.5,16.3z"/>
<path class="st0" d="M3.4,18.2l0.1-0.2c2-0.1,4-0.1,6,0c0,0.2,0.1,0.6,0.1,0.8l-0.3,0.2c-1.8,0.1-3.7,0-5.5,0
	C3.5,19.1,3.1,18.5,3.4,18.2z"/>
</svg>
