<?xml version="1.0" encoding="utf-8"?>
<!-- Generator: Adobe Illustrator 25.3.1, SVG Export Plug-In . SVG Version: 6.00 Build 0)  -->
<svg version="1.1" id="Capa_1" xmlns="http://www.w3.org/2000/svg" xmlns:xlink="http://www.w3.org/1999/xlink" x="0px" y="0px"
	 width="36.4px" height="37.3px" viewBox="0 0 36.4 37.3" style="enable-background:new 0 0 36.4 37.3;" xml:space="preserve">
<g>
	<path d="M21.2,4.1c2,0,3.9,0,5.9,0c-0.4,0.6-0.9,1.2-1.4,1.9c0.5,0.6,0.9,1.2,1.3,1.8c-1.6,0-3.2,0-4.8,0c0,0.7,0,1.5,0,2.2
		c1.5,0.1,3.1-0.2,4.5,0.4c1.7,0.7,3,2.5,3,4.4c0,2.5,0,4.9,0,7.4c0,0.3-0.3,0.7-0.6,0.6c-2.8,0-5.6,0-8.5,0c0,3.2,0,6.4,0,9.6
		c0,0.3,0,0.7-0.4,0.8c-0.3,0.1-0.5-0.1-0.6-0.3c0-3.4,0-6.7,0-10.1c-0.6,0-1.2,0-1.7,0c0,3.3,0,6.6,0,9.9c0.1,0.6-1.1,0.6-1,0
		c0-3.3,0-6.6,0-9.9c-2.8,0-5.6,0-8.3,0c-0.4,0-0.8-0.4-0.7-0.8c0-2.3,0-4.7,0-7c0-1,0.3-2,0.9-2.9c0.9-1.3,2.4-2.1,4-2.1
		c2.8,0,5.6,0,8.5,0C21.2,8,21.2,6,21.2,4.1z M22.3,5.1c0,0.5,0,1.1,0,1.6c0.9,0,1.8,0,2.8,0c-0.2-0.3-0.4-0.6-0.6-0.8
		c0.2-0.3,0.4-0.6,0.6-0.8C24.1,5.1,23.2,5.1,22.3,5.1z M10.9,11.6c-1.2,0.7-2,2.1-1.9,3.5c0,2.2,0,4.5,0,6.7c2.6,0,5.2,0,7.8,0
		c0.1-2.3,0-4.5,0-6.8c0-1.5-1-3-2.4-3.6C13.3,10.9,11.9,11,10.9,11.6z M16.3,11.4c1,0.9,1.5,2.2,1.5,3.5c0,2.3,0,4.5,0,6.8
		c3.6,0,7.3,0,10.9,0c0-2.3,0-4.6,0-7c0-1.9-1.7-3.6-3.6-3.7c-1,0-1.9,0-2.9,0c0,1.2,0,2.4,0,3.5c-0.1,0.5-1.1,0.4-1-0.2
		c0-1.1,0-2.3,0-3.4c-1.7,0-3.5,0-5.2,0C15.9,11.2,16.3,11.3,16.3,11.4z"/>
</g>
<path d="M10.1,20.1C10.4,20,10.7,20,11,20c1.5,0,3,0,4.5,0c0.5,0.1,0.4,0.8,0,1c-1.8,0-3.6,0-5.3,0C9.8,20.9,9.7,20.3,10.1,20.1z"/>
</svg>
