<?xml version="1.0" encoding="utf-8"?>
<!-- Generator: Adobe Illustrator 25.3.1, SVG Export Plug-In . SVG Version: 6.00 Build 0)  -->
<svg version="1.1" id="Capa_1" xmlns="http://www.w3.org/2000/svg" xmlns:xlink="http://www.w3.org/1999/xlink" x="0px" y="0px"
	 width="36.4px" height="37.3px" viewBox="0 0 36.4 37.3" style="enable-background:new 0 0 36.4 37.3;" xml:space="preserve">
<g>
	<g>
		<path d="M18,3.4h1.5c1.6,0.2,3.3,0.8,4.5,1.9c2.2,1.9,3.1,4.9,2.8,7.7c-0.3,2.3-1.3,4.4-2.5,6.4c1.2,0,2.3,0,3.5,0
			c0.6,0,0.7,0.6,0.9,1c1.7,4.1,3.5,8.2,5.2,12.3v0.6c-0.3,0-0.4,0.1-0.5,0.4H4.1c0-0.3-0.2-0.5-0.5-0.4v-0.6
			c1.7-4.2,3.5-8.3,5.3-12.4c0.2-0.4,0.4-0.8,0.9-0.8c1.2-0.1,2.3,0,3.5,0c-1.1-2-2.2-4.1-2.4-6.4c-0.3-2.7,0.5-5.6,2.5-7.5
			C14.6,4.3,16.3,3.7,18,3.4z M15.9,6c-1.9,1-3,3-3.2,5.1c-0.3,2.2,0.5,4.4,1.5,6.3c1.3,2.5,2.9,4.8,4.7,7c2.2-2.8,4.4-5.9,5.7-9.3
			c0.9-2.4,0.8-5.3-0.7-7.4C22.1,5.3,18.5,4.5,15.9,6z M10.5,21.3c-1,2.1-1.8,4.2-2.7,6.3c2.7-1.4,5.4-2.7,8.1-4.1
			c-0.5-0.7-1-1.4-1.4-2.1C13.1,21.3,11.8,21.4,10.5,21.3z M23.3,21.4c-1.1,1.7-2.3,3.4-3.7,4.9c-0.3,0.4-0.9,0.6-1.3,0.2
			c-0.5-0.5-0.9-1.1-1.4-1.6c-1.1,0.6-2.2,1.1-3.2,1.6c1.8,1.8,3.7,3.7,5.5,5.5c0.8-0.1,1.6,0.2,2.3-0.2c2.8-1.4,5.5-2.8,8.3-4.3
			c-0.9-2-1.8-4.1-2.6-6.1C25.9,21.3,24.6,21.3,23.3,21.4z M6.8,30.2c-0.4,0.5-0.6,1.3-0.9,1.9c3.6,0,7.2,0,10.8,0
			c-1.5-1.5-3.1-3.1-4.6-4.6C10.3,28.4,8.5,29.2,6.8,30.2z M25,32.1c2.3,0,4.5,0,6.8,0c-0.4-1-0.8-1.9-1.2-2.9
			C28.7,30.2,26.8,31.1,25,32.1z"/>
	</g>
	<g>
		<path d="M17.8,9c1.4-0.7,3.3,0.2,3.7,1.7c0.5,1.5-0.7,3.3-2.4,3.4c-1.4,0.2-2.8-1-2.9-2.4C16,10.6,16.7,9.5,17.8,9z M18.5,10.7
			c-0.5,0.2-0.7,1-0.2,1.4c0.4,0.5,1.3,0.2,1.5-0.4C19.9,11.1,19.1,10.3,18.5,10.7z"/>
	</g>
</g>
</svg>
