<?xml version="1.0" encoding="utf-8"?>
<!-- Generator: Adobe Illustrator 25.3.1, SVG Export Plug-In . SVG Version: 6.00 Build 0)  -->
<svg version="1.1" id="Capa_1" xmlns="http://www.w3.org/2000/svg" xmlns:xlink="http://www.w3.org/1999/xlink" x="0px" y="0px"
	 width="27.8px" height="28.5px" viewBox="0 0 27.8 28.5" style="enable-background:new 0 0 27.8 28.5;" xml:space="preserve">
<g>
	<g>
		<path d="M22.6,3.8C23,3.5,23.4,3.1,24,3.3c0.2,0.6,0.1,1.2,0.1,1.7c0,1.3,0,2.6,0,4c0.5,0,0.9-0.1,1.4,0.1c0.3,0.2,0.2,0.7,0.2,1
			c0,2.1,0,4.1,0,6.2c-0.3,0.5-1.1,0.3-1.6,0.3c0,1.7,0,3.4,0,5.1c0,0.2,0,0.6-0.3,0.6c-0.3,0.1-0.6-0.2-0.9-0.3
			c-1.5-1.1-3-2.2-4.5-3.3c-0.2-0.2-0.5-0.1-0.8-0.2c-2.1,0-4.2,0-6.3,0c0.7,1.5,1.5,3,2.2,4.5c0.2,0.4-0.2,0.7-0.5,0.8
			c-1,0.5-1.9,1-2.9,1.4c-0.3,0.2-0.7,0-0.8-0.3c-1.1-2.2-2.2-4.3-3.3-6.5c-2.8-0.9-4.6-4.2-3.8-7C2.9,9,5.1,7.1,7.5,7.1
			c3.6,0,7.1,0,10.7,0C19.7,6,21.1,4.9,22.6,3.8z M18.9,7.8c-0.3,0.2-0.2,0.5-0.2,0.8c0,3,0,6.1,0,9.1c1.5,1.1,2.9,2.2,4.4,3.2
			c0-5.4,0-10.8,0-16.2C21.7,5.7,20.3,6.7,18.9,7.8z M3.3,11.5c-0.6,1.9,0.3,4.1,1.9,5.3c0.5,0.4,1.1,0.7,1.8,0.6
			c3.6,0,7.2,0,10.8,0c0-3.1,0-6.3,0-9.4c-3.4,0-6.7,0-10,0C5.7,8,3.8,9.6,3.3,11.5z M24.1,10c0,1.9,0,3.7,0,5.6c0.2,0,0.4,0,0.6,0
			c0-1.9,0-3.7,0-5.6C24.5,9.9,24.3,10,24.1,10z M7.2,18.4c0.9,1.9,1.9,3.8,2.9,5.7c0.8-0.4,1.6-0.8,2.4-1.1
			c-0.7-1.5-1.5-3.1-2.3-4.6C9.2,18.4,8.2,18.4,7.2,18.4z"/>
	</g>
</g>
</svg>
