<?xml version="1.0" encoding="utf-8"?>
<!-- Generator: Adobe Illustrator 25.3.1, SVG Export Plug-In . SVG Version: 6.00 Build 0)  -->
<svg version="1.1" id="Capa_1" xmlns="http://www.w3.org/2000/svg" xmlns:xlink="http://www.w3.org/1999/xlink" x="0px" y="0px"
	 width="32.8px" height="27.9px" viewBox="0 0 32.8 27.9" style="enable-background:new 0 0 32.8 27.9;" xml:space="preserve">
<g>
	<path d="M5.1,2h8.7c0.3,0.5,0.6,1.1,0.5,1.8c0,1.2,0.1,2.5-0.1,3.7c-0.2,0.1-0.5,0.2-0.6,0.3c0-1.6,0-3.2,0-4.8c-2.7,0-5.4,0-8,0
		c0,3.3,0,6.6,0,9.9c1.1,0,2.1,0,3.2,0c0.3,0.5,0.6,1.1,0.8,1.7c0.3-0.5,0.5-1.1,0.8-1.6c0.3,0,0.9,0,1.2,0
		c-0.8,0.9-1.1,2.3-2.1,2.9c-0.5-0.7-0.8-1.4-1.2-2.1c-1.2,0-2.6,0.2-3.6-0.5V2.6C5,2.7,5.2,2.5,5.1,2z"/>
	<path d="M20.1,2h8.7c-0.1,0.5,0.1,0.7,0.6,0.6v10.6c-1.1,0.7-2.4,0.5-3.6,0.5c-0.5,0.7-0.6,1.8-1.5,2.1c-0.6-1-1.2-2-1.9-2.9
		c0.3,0,0.9,0,1.2,0c0.3,0.5,0.5,1.1,0.8,1.6c0.3-0.6,0.6-1.1,0.8-1.7c1.1,0,2.1,0,3.2,0c0-3.3,0-6.6,0-9.9c-2.7,0-5.4,0-8,0
		c0,1.6,0,3.2,0,4.8c-0.4-0.2-0.8-0.3-0.7-0.8C19.7,5.3,19.2,3.5,20.1,2z"/>
	<g>
		<path d="M8.5,3.9c1.3-0.8,3.1,0.5,2.9,2c-0.1,1.5-2.1,2.3-3.2,1.3C7.1,6.4,7.3,4.5,8.5,3.9z M9.2,4.5C8.3,4.7,7.9,5.8,8.5,6.4
			c0.6,0.8,1.9,0.4,2.1-0.5C10.8,5.1,9.9,4.3,9.2,4.5z"/>
	</g>
	<g>
		<path d="M23.4,4c1.3-0.8,3.1,0.4,2.9,1.9c-0.1,1.5-2.1,2.4-3.2,1.3C22.1,6.4,22.3,4.6,23.4,4z M24.1,4.5c-0.5,0.2-1,0.8-0.9,1.3
			c0.1,0.9,1.5,1.4,2.1,0.6C26.1,5.6,25.1,4.2,24.1,4.5z"/>
	</g>
	<path d="M6.9,9.7c1-1.4,3.2-1.7,4.5-0.6l-0.1,0.5c-0.9-0.1-2-0.7-2.9-0.1c-0.8,0.3-1.1,1.1-1.5,1.8c1.4,0,2.8-0.1,4.3,0.1
		c0,0.2,0.2,0.5,0.2,0.7c-1.8,0.1-3.5,0.1-5.3,0C6.2,11.2,6.3,10.3,6.9,9.7z"/>
	<g>
		<path d="M12.1,9.4c-0.1-0.5,0.3-1,0.9-1c2.6,0,5.2,0,7.9,0c0.6-0.1,1,0.5,0.9,1c0,3,0,6,0,8.9c0,0.5,0.1,1.2-0.6,1.5
			c-1,0.1-2,0.1-3,0.1c-0.4,0.8-0.8,1.6-1.3,2.3c-0.5-0.7-0.9-1.5-1.3-2.3c-1,0-2,0-3-0.1c-0.7-0.2-0.5-0.9-0.6-1.5
			C12.1,15.4,12.1,12.4,12.1,9.4z M12.9,9.2c0,3.3,0,6.6,0,9.9c1.1,0,2.1,0,3.2,0c0.3,0.5,0.6,1,0.9,1.5c0.3-0.5,0.5-1,0.8-1.6
			c1.1,0,2.1,0,3.2,0c0-3.3,0-6.6,0-9.9C18.3,9.2,15.6,9.2,12.9,9.2z"/>
	</g>
	<path d="M22.5,9.5c-0.2-0.8,0.9-0.9,1.5-1.1c2.1-0.3,3.8,1.6,3.7,3.6c-1.8,0.1-3.5,0.1-5.3,0c0.1-0.2,0.2-0.5,0.2-0.7
		c1.4-0.1,2.9,0,4.3-0.1c-0.4-0.9-1-1.8-2-2C24.1,9,23.3,9.7,22.5,9.5z"/>
	<g>
		<path d="M16,10.2c1.2-0.8,3,0.3,2.9,1.7c0.1,1.5-1.7,2.5-3,1.7C14.6,13,14.6,10.9,16,10.2z M16.3,11c-1.3,0.7,0,2.8,1.2,2
			C18.9,12.3,17.6,10,16.3,11z"/>
	</g>
	<g>
		<path d="M13.6,18.3c-0.1-1.7,1.1-3.4,2.9-3.6c2-0.3,3.9,1.6,3.6,3.6C18,18.3,15.8,18.3,13.6,18.3z M14.4,17.5
			c1.7,0.1,3.4,0.1,5.1,0c-0.4-0.9-1.1-1.9-2.2-2C15.9,15.2,14.8,16.3,14.4,17.5z"/>
	</g>
	<g>
		<path d="M4.5,22.9c1.9-0.2,3.8-0.1,5.7-0.1c6.4,0,12.8-0.1,19.2,0.1v3.9c0,0-0.1,0.1-0.1,0.1H4.6c0,0-0.1,0-0.1,0V22.9z M5.4,23.6
			c0,0.8,0,1.6,0,2.3c4.8,0,9.7,0,14.5,0c0-0.8,0-1.6,0-2.3C15.1,23.6,10.3,23.6,5.4,23.6z M20.7,23.6c0,0.8,0,1.6,0,2.3
			c2.6,0,5.1,0,7.7,0c0-0.8,0-1.6,0-2.3C25.9,23.6,23.3,23.6,20.7,23.6z"/>
	</g>
	<path d="M22,24.5c0.3-0.6,1.2,0.1,0.8,0.6C22.5,25.6,21.6,25,22,24.5z"/>
	<path d="M24.2,24.5c0.4-0.6,1.2,0.1,0.8,0.6C24.6,25.6,23.8,25,24.2,24.5z"/>
	<path d="M26.3,24.5c0.3-0.6,1.2,0.1,0.8,0.6C26.8,25.6,25.9,25,26.3,24.5z"/>
</g>
</svg>
