<?xml version="1.0" encoding="utf-8"?>
<!-- Generator: Adobe Illustrator 25.3.1, SVG Export Plug-In . SVG Version: 6.00 Build 0)  -->
<svg version="1.1" id="Layer_1" xmlns="http://www.w3.org/2000/svg" xmlns:xlink="http://www.w3.org/1999/xlink" x="0px" y="0px"
	 width="76px" height="81.7px" viewBox="0 0 76 81.7" style="enable-background:new 0 0 76 81.7;" xml:space="preserve">
<g>
	<path d="M2.4,43V21.4h5l5.6,10.1c0.2,0.4,0.5,0.9,0.8,1.6c0.3,0.6,0.5,1.1,0.7,1.5l0.3,0.6h0.1c-0.2-1.6-0.2-2.8-0.2-3.7V21.4h5V43
		h-5L8.9,33c-0.2-0.4-0.5-0.9-0.8-1.6c-0.3-0.6-0.5-1.1-0.7-1.5l-0.3-0.6H7.2C7.3,30.8,7.4,32,7.4,33V43H2.4z"/>
</g>
<g>
	<path d="M25.2,43l6.9-21.7h5.2L44.2,43h-5.1l-1.2-4.5h-6.3L30.3,43H25.2z M32.7,34.3h4L35.5,30l-0.8-3.7h-0.1
		c-0.3,1.6-0.6,2.8-0.8,3.7L32.7,34.3z"/>
</g>
<g>
	<path d="M50.4,43l1.7-21.7h5.4l2.9,9.1l1,3.6h0.1c0.4-1.5,0.7-2.6,1-3.6l2.9-9.1h5.4L72.5,43h-5l-0.6-9.8c0-0.5-0.1-1-0.1-1.6
		s0-1.1,0-1.5l0-0.5h-0.1c-0.5,1.5-0.8,2.7-1.1,3.6l-2.1,6.3h-4.2l-2.1-6.3l-1.1-3.6H56c0.1,1.3,0.1,2.5,0,3.6L55.4,43H50.4z"/>
</g>
<g>
	<path d="M8.6,73.3V51.7h5v21.7H8.6z"/>
</g>
<g>
	<path d="M25.7,73.3V51.7h5l5.6,10.1c0.2,0.4,0.5,0.9,0.8,1.6c0.3,0.6,0.5,1.1,0.7,1.5l0.3,0.6H38c-0.2-1.6-0.2-2.8-0.2-3.7V51.7h5
		v21.7h-5l-5.6-10.1c-0.2-0.4-0.5-0.9-0.8-1.6c-0.3-0.6-0.5-1.1-0.7-1.5l-0.3-0.6h-0.1c0.2,1.6,0.2,2.8,0.2,3.7v10.1H25.7z"/>
</g>
<g>
	<path d="M51.7,62.5c0-3.2,1-5.8,3-7.9c2-2.1,4.5-3.2,7.6-3.2c3.2,0,5.8,1,7.8,2.9l-2.4,4c-0.6-0.6-1.3-1-2.3-1.4
		c-0.9-0.4-1.8-0.6-2.7-0.6c-2,0-3.5,0.6-4.5,1.7c-1,1.2-1.5,2.6-1.5,4.4c0,2,0.6,3.6,1.7,4.8c1.1,1.2,2.5,1.8,4.1,1.8
		c1.5,0,2.8-0.5,4.1-1.6v-1.7h-2.9v-4.5h7.3v12.2H67v-0.6l0-0.9H67c-0.6,0.6-1.4,1-2.4,1.4c-1,0.3-2,0.5-3,0.5c-2.7,0-5.1-1-7-3.1
		C52.7,68.6,51.7,65.9,51.7,62.5z"/>
</g>
<g>
	<path d="M22.1,46.2H0V18.3h22.1V46.2z M1.1,45h20V19.4h-20V45z"/>
</g>
<g>
	<path d="M22.1,76.4H0V48.6h22.1V76.4z M1.1,75.3h20V49.7h-20V75.3z"/>
</g>
<g>
	<path d="M46.7,46.2H22.6V18.3h24.1V46.2z M23.6,45h22V19.4h-22V45z"/>
</g>
<g>
	<path d="M46.7,76.4H22.6V48.6h24.1V76.4z M23.6,75.3h22V49.7h-22V75.3z"/>
</g>
<g>
	<path d="M76,46.2H47.2V18.3H76V46.2z M48.2,45h26.7V19.4H48.2V45z"/>
</g>
<g>
	<path d="M76,76.4H47.2V48.6H76V76.4z M48.2,75.3h26.7V49.7H48.2V75.3z"/>
</g>
</svg>
