<?xml version="1.0" encoding="utf-8"?>
<!-- Generator: Adobe Illustrator 25.3.1, SVG Export Plug-In . SVG Version: 6.00 Build 0)  -->
<svg version="1.1" id="Layer_1" xmlns="http://www.w3.org/2000/svg" xmlns:xlink="http://www.w3.org/1999/xlink" x="0px" y="0px"
	 width="76px" height="81.7px" viewBox="0 0 76 81.7" style="enable-background:new 0 0 76 81.7;" xml:space="preserve">
<g>
	<path d="M5.4,15.1c0.5-1.2,1.2-2.5,2.6-2.7c1.9-0.3,3.8-0.3,5.7,0c0.9,1.8-1.5,1.7-2.6,1.7c-1.2,0.2-3.5-0.4-3.6,1.4
		c-0.3,2.8-0.1,5.7-0.1,8.6c20.7,0,41.4,0,62.1,0c-0.1-2.8,0.2-5.7-0.1-8.5c0-1.6-2-1.3-3.1-1.4c-14.6,0.1-29.2,0-43.8,0
		c-2,0-4.1,0.2-6.1-0.5c0.1-0.3,0.3-1,0.4-1.3c2.1-0.3,4.2-0.2,6.3-0.2c13.2,0,26.5,0,39.7,0c2.1,0,4.1-0.2,6.2,0.2
		c1.4,0.2,2,1.5,2.6,2.6V56c-0.6,0-1.2-0.1-1.8-0.3c-0.2-1-0.2-2-0.2-3c0-8.9,0-17.8,0-26.7c-20.7,0-41.4,0-62.1,0
		c0,11.8,0,23.6,0,35.4c0,1.7-0.1,3.4,0.2,5.1c0.3,1.1,1.6,0.8,2.5,1c18.7,0,37.5,0,56.2,0c1-0.1,2.1,0.1,2.9-0.6
		c0.7-2.5,0-5.2,0.5-7.7c0.6-0.2,1.2-0.4,1.8-0.6v8c-0.6,1.8-2.2,3.1-4.1,2.9c-19.2,0-38.5,0-57.7,0c-1.9,0.2-3.5-1.1-4.1-2.8V15.1z
		"/>
	<g>
		<path d="M10.7,16.8c1.8-1.1,4.3,0.3,4.3,2.4c0.2,2.3-2.6,3.9-4.4,2.6C8.7,20.8,8.7,17.7,10.7,16.8z M11.8,18.4
			c-1,0.2-0.8,2,0.3,1.8C13.6,20.5,13,17.8,11.8,18.4z"/>
	</g>
	<g>
		<path d="M19,16.9c1.8-1.1,4.4,0.2,4.4,2.3c0.2,2.1-2.3,3.8-4.2,2.7C17.1,21,17,17.9,19,16.9z M20.1,18.5c-1.2,0.4-0.4,2.3,0.7,1.7
			C22.1,19.9,21.2,17.9,20.1,18.5z"/>
	</g>
	<g>
		<path d="M27.2,16.8c1.8-1.1,4.3,0.3,4.3,2.4c0.2,2.1-2.3,3.8-4.2,2.7C25.3,21.1,25.2,17.8,27.2,16.8z M27.3,19.5
			c0.6,0.3,1.1,0.7,1.7,0.9c1.1-0.6,0.2-1.6-0.2-2.3C28.3,18.5,27.8,19,27.3,19.5z"/>
	</g>
	<g>
		<path d="M35.9,16.8c1.1-0.5,2.3-0.3,3.4-0.4c8.2,0.1,16.5,0,24.7,0c1.6-0.1,3.2,1.1,3.3,2.8c0.1,1.8-1.5,3.2-3.3,3
			c-8.4,0-16.9,0-25.3,0c-1.3,0-2.7,0.1-3.7-0.9C33.9,20,34.3,17.6,35.9,16.8z M37,18.5c-1,0.1-0.7,1.8,0.2,1.7
			c7.1,0.2,14.2,0,21.2,0.1c2.2,0,4.5,0.2,6.7-0.2c1-1.1-0.4-2-1.5-1.7C54.8,18.5,45.9,18.2,37,18.5z"/>
	</g>
	<path d="M21.2,30c0.1-1.3,1.6-1.8,2.7-1.7c9.5,0,18.9,0,28.4,0c1.2,0,2.8,0,3.3,1.4c0.4,2,0.2,4.1,0.1,6.1c0,1-0.8,2-1.9,2.1
		c-2.6,0.2-5.2,0.1-7.8,0c-1.2,0.2-1.1-2,0-1.8c2.6-0.2,5.2,0,7.8-0.1c0-1.9,0-3.8,0-5.7c-10.3,0-20.5,0-30.8,0c0,1.9,0,3.8,0,5.7
		c5.5,0,10.9,0,16.4,0c1,0,1.9,0,2.9,0.2c0.8,1-0.3,1.9-1.4,1.7c-5.7,0-11.3,0-17,0c-1.1,0.1-2.6-0.4-2.7-1.7
		C21,34.2,21,32.1,21.2,30z"/>
	<path d="M14.2,47.6c-0.8-3.9,2.8-7.7,6.7-7.3c3.8,0.1,6.8,4.1,5.8,7.8c0,0.8-1.1,1.7-1.7,0.9c-0.5-1.5,0.3-3.3-0.7-4.7
		c-1.4-2.4-5-2.8-6.9-0.8c-2,1.8-1.6,5.4,0.7,6.8c1.5,1.1,3.5,0.5,5.2,0.3c0,0.5,0.1,1.1,0.1,1.6C19.7,54.4,14.6,51.7,14.2,47.6z"/>
	<g>
		<path d="M36,40.7c3.4-1.5,7.7,0.7,8.5,4.3c1,3.3-1.3,7-4.6,7.8c-3.3,0.9-7-1.3-7.7-4.6C31.4,45.1,33.1,41.8,36,40.7z M36.5,42.6
			c-2.8,1.2-3.4,5.4-1,7.4c2.3,2.2,6.7,0.8,7.2-2.4C43.6,44.1,39.6,40.9,36.5,42.6z"/>
	</g>
	<g>
		<path d="M54,40.6c3.4-1.4,7.6,0.8,8.4,4.4c1,3.4-1.5,7.3-5,7.8c-3.2,0.7-6.7-1.6-7.4-4.8C49.3,45,51.1,41.7,54,40.6z M54.4,42.5
			c-3.1,1.2-3.5,5.9-0.7,7.7c2.6,2,6.8,0.1,7-3.2C61.2,43.8,57.4,41.1,54.4,42.5z"/>
	</g>
	<path d="M16.3,55c3.1-0.2,6.3-0.2,9.5,0c1-0.1,1.1,1.7,0.1,1.7c-3.2,0.3-6.5,0.3-9.7,0C15.2,56.6,15.5,55.1,16.3,55z"/>
	<path d="M34,55.1c3.2-0.3,6.3-0.2,9.5-0.1c1.3-0.2,1.3,1.9,0.1,1.8c-2.9,0.1-5.9,0.1-8.8,0C33.7,57,33,55.6,34,55.1z"/>
	<path d="M51.9,55c3-0.3,6.1-0.1,9.2-0.1c1-0.2,1.9,1,0.9,1.7c-3.2,0.3-6.5,0.2-9.8,0.1C51.4,56.8,51.1,55.4,51.9,55z"/>
	<path d="M13.8,60c0.7-0.6,1.3-1.5,2.4-1.3c3.3,0.1,6.5-0.2,9.8,0.1c1,0.1,0.8,1.7-0.2,1.7c-1.8,0.2-3.6,0.1-5.4,0.1
		C18.1,60.7,15.8,61,13.8,60z"/>
	<path d="M32.4,59.2l0.2-0.3c2.6-0.3,5.2-0.1,7.8-0.1c1.3,0.1,2.7-0.2,3.9,0.4c0.4,0.7,0,1.6-0.9,1.5c-3.3,0.2-6.6,0.1-9.8,0
		C32.8,60.8,31.7,60,32.4,59.2z"/>
	<path d="M50.4,59c3.5-0.5,7.1-0.2,10.7-0.2c1.4-0.4,1.9,1.7,0.4,1.8c-3.4,0.2-6.8,0.1-10.2,0C50.3,60.7,49.7,59.8,50.4,59z"/>
	<path d="M14.8,62.8c3.5-0.3,7.1-0.1,10.7-0.1c0.9-0.1,1.2,0.7,1.1,1.4c-1.1,0.7-2.5,0.4-3.7,0.5c-2.7-0.1-5.5,0.2-8.2-0.2
		C14.3,63.9,14.1,63.1,14.8,62.8z"/>
	<path d="M32.8,62.8c3.2-0.3,6.4-0.1,9.7-0.1c0.9-0.1,2.3,0.1,1.9,1.4c-0.6,0.8-1.7,0.5-2.5,0.6c-2.9-0.1-5.9,0.1-8.8-0.1
		C32.2,64.6,31.8,62.9,32.8,62.8z"/>
	<path d="M50.9,62.8c3.5-0.2,7.1-0.1,10.6-0.1c1.1-0.1,1.2,1.8,0.1,1.8c-3.6,0.1-7.2,0.2-10.8-0.1C49.8,64.4,49.9,62.7,50.9,62.8z"
		/>
</g>
</svg>
