<?xml version="1.0" encoding="utf-8"?>
<!-- Generator: Adobe Illustrator 25.3.1, SVG Export Plug-In . SVG Version: 6.00 Build 0)  -->
<svg version="1.1" id="Layer_1" xmlns="http://www.w3.org/2000/svg" xmlns:xlink="http://www.w3.org/1999/xlink" x="0px" y="0px"
	 width="76px" height="81.7px" viewBox="0 0 76 81.7" style="enable-background:new 0 0 76 81.7;" xml:space="preserve">
<g>
	<g>
		<path d="M28.3,9.7c1.3-1.7,3.6-1.2,5.4-1.3c3.9,0.2,7.7-0.2,11.6,0.2c3.1,1,2.1,4.7,2.4,7.1c1.1,3.1,3,5.9,4.2,8.9
			c0.4,1.8,0.2,3.7,0.2,5.5c0,6.8,0,13.7,0,20.5c-0.7,0-1.5,0-2.2,0c0-7.6,0-15.2,0-22.8c0.4-3.4-2.1-6.2-3.4-9.2
			c-1.2,3-3.7,5.7-3.4,9.2c0.1,15,0,30,0,45c2,0,4,0.2,6.1-0.1c1-0.7,0.5-2.2,0.7-3.2c0.7,0,1.5,0,2.2,0c-0.1,1.5,0.2,3.4-1,4.6
			c-0.9,1-2.3,1-3.5,1c-6.5,0-13,0-19.5,0c-1.4,0-3,0.1-4-1c-1-0.9-1-2.3-1-3.5c0-11.1,0-22.2,0-33.4c-2-0.7-3.7-2.1-4.3-4.1
			c-2.6,2.8-6.8,3.7-10.4,2.7C5.8,35,4,32.2,4.3,29.5C4.5,26.7,7,24.2,9.8,24c3-0.2,6,0,9-0.1c-0.2-1.2-0.1-2.6-0.7-3.7
			c-2.1-4-8.8-4-10.9,0c-0.4,0.8-0.5,1.8-0.8,2.7c-0.7,0-1.5,0-2.2,0C4.4,21,4.9,19,6.3,17.6c3.8-4.3,12.2-3.2,14.1,2.5
			c1.2,4.1,0,8.5,0.7,12.6c0.2,1,1.2,1.6,2,2.3c0.1-3.3-0.1-6.7,0.1-10c1-3,2.9-5.7,4.1-8.6C28.1,14.2,27,11.6,28.3,9.7z M30.5,10.7
			c-1.2,1-0.4,2.9-0.6,4.3c5.2,0,10.4,0,15.6,0c-0.2-1.4,0.6-3.4-0.7-4.3C40,10.5,35.2,10.5,30.5,10.7z M29.4,17.3
			c-1.1,2.2-2.2,4.4-3.3,6.7c5.1,0,10.2,0,15.3,0c1.1-2.2,2.2-4.4,3.3-6.7C39.6,17.3,34.5,17.3,29.4,17.3z M6.5,29.5
			c-0.4,1.9,1,3.9,2.9,4.3c2.8,0.6,6.1,0,7.9-2.4c1.2-1.4,1.4-3.4,1.5-5.2c-2.8,0.1-5.7-0.1-8.5,0C8.5,26.2,6.8,27.7,6.5,29.5z
			 M25.4,26.2c0,15,0,30.1,0,45.1c-0.1,0.7,0.2,1.6,1.1,1.6c4.8,0.1,9.7,0,14.5,0c0-15.6,0-31.1,0-46.7
			C35.8,26.1,30.6,26.2,25.4,26.2z"/>
	</g>
	<g>
		<path d="M56.5,8.4c3.7,0,7.4,0,11.1,0c0,11.1,0,22.2,0,33.4c-3.7,0-7.4,0-11.1,0C56.5,30.6,56.5,19.5,56.5,8.4z M58.8,10.6
			c0,1.1,0,2.2,0,3.3c1.1,0,2.2,0,3.3,0c0,0.7,0,1.5,0,2.2c-1.1,0-2.2,0-3.4,0c0,1.5,0,3,0,4.4c1.1,0,2.2,0,3.3,0c0,0.7,0,1.5,0,2.2
			c-1.1,0-2.2,0-3.3,0c0,1.5,0,3,0,4.4c1.1,0,2.2,0,3.3,0c0,0.8,0,1.5,0,2.2c-1.1,0-2.3,0-3.4,0c0,1.5,0,3,0,4.5c1.1,0,2.2,0,3.3,0
			c0,0.7,0,1.5,0,2.2c-1.1,0-2.2,0-3.3,0c0,1.1,0,2.2,0,3.3c2.2,0,4.4,0,6.7,0c0-9.6,0-19.3,0-28.9C63.2,10.6,61,10.6,58.8,10.6z"/>
	</g>
	<g>
		<path d="M6.4,49.4c2.3-3.6,4.5-7.3,6.8-10.9c2.3,3.6,4.5,7.3,6.8,10.9c-1.3,2.5-2.1,5.1-2.4,7.9c1.1,0.8,2.3,1.8,2.2,3.3
			c0.1,1.5-1.1,2.5-2.2,3.2c0,3.7,0,7.5,0,11.2c-0.8,0-1.5,0-2.3,0c0-3.7,0-7.4,0-11.1c-1.5,0-3,0-4.4,0c0,3.7,0,7.4,0,11.1
			c-0.7,0-1.5,0-2.2,0c-0.1-3.7,0-7.5,0-11.2c-1.1-0.8-2.3-1.8-2.2-3.3c-0.1-1.5,1.1-2.5,2.2-3.3C8.5,54.6,7.6,51.9,6.4,49.4z
			 M8.9,49.6c1.1,2.4,1.8,5.1,2,7.7c1.5,0,3,0,4.4,0c0.3-2.7,0.9-5.3,2-7.8c-1-1.7-2.1-3.4-3.1-5c0,2,0,4.1,0,6.1
			c-0.7,0-1.5,0-2.2,0c0-2,0-4.1,0-6.1C11,46.2,9.9,47.9,8.9,49.6z M9.4,59.6c-1.1,0.4-0.7,2.2,0.4,2.1c2.4,0.1,4.8,0.2,7.2-0.1
			c1.1-0.3,0.7-2.2-0.4-2C14.1,59.5,11.7,59.4,9.4,59.6z"/>
	</g>
	<g>
		<path d="M31.2,44.4c3.9-1.8,8.5,2.3,7.4,6.4c-0.7,4-6.1,5.8-9.1,3C26.4,51.2,27.4,45.6,31.2,44.4z M32.2,46.4
			c-2.3,0.6-3.1,3.9-1.4,5.5c1.6,1.8,4.9,1,5.5-1.4C37.2,48.1,34.6,45.5,32.2,46.4z"/>
	</g>
	<g>
		<path d="M62.2,47.9c1.2-1.5,2.2-3.6,4.3-3.7c2.2-0.2,4.3,2.1,3.7,4.3c-0.6,1.8-1.9,3.2-2.9,4.8c1.2,1.3,2.9,2.5,2.7,4.4
			c-0.3,2.1-2.3,3.3-3.6,4.7c-1.4,1.4-3.2,3.7-5.5,2.8c-2.2-1.2-3.7-3.4-5.5-5c-1.2-1.4-3.1-2.5-3.5-4.4c-0.4-1.9,1.2-3.2,2.4-4.4
			c1.3-1.2,2.5-2.7,4-3.7C59.6,46.7,61,47.4,62.2,47.9z M66.2,46.5c-1,0.9-1.7,2-2.5,3.1c0.7,0.7,1.3,1.3,2,2
			c0.8-1.2,1.8-2.4,2.4-3.8C68.3,46.8,67,45.9,66.2,46.5z M57,51.7c-1,1.1-2.3,2-3,3.4c1,1.8,2.7,3,4.1,4.5c1.3,1.2,2.3,2.8,4,3.5
			c2.2-1.5,4.2-3.6,5.8-5.8c-1.4-2.3-3.8-3.9-5.5-5.9c-0.5,0.7-1.1,1.4-1.6,2.1c-0.6-0.4-1.2-0.9-1.8-1.3c0.7-0.9,1.3-1.9,1.9-2.9
			C59.1,49.1,58.1,50.7,57,51.7z"/>
	</g>
	<g>
		<path d="M47.9,65.4c-1.2-3,1.7-5.4,3-7.8c1.4,2.4,4.3,4.8,3,7.8C53,67.9,48.9,68,47.9,65.4z M49.9,64c-0.2,1.2,1.8,1.6,2.1,0.5
			c0.5-1.1-0.5-2-1-3C50.6,62.3,49.8,63,49.9,64z"/>
	</g>
</g>
</svg>
