<?xml version="1.0" encoding="utf-8"?>
<!-- Generator: Adobe Illustrator 25.3.1, SVG Export Plug-In . SVG Version: 6.00 Build 0)  -->
<svg version="1.1" id="Layer_1" xmlns="http://www.w3.org/2000/svg" xmlns:xlink="http://www.w3.org/1999/xlink" x="0px" y="0px"
	 width="76px" height="72.7px" viewBox="0 0 76 72.7" style="enable-background:new 0 0 76 72.7;" xml:space="preserve">
<style type="text/css">
	.st0{fill:none;stroke:#000000;stroke-width:1.3;stroke-miterlimit:10;}
	.st1{fill:#231F20;}
</style>
<g>
	<g>
		<polygon class="st0" points="70.7,67.6 5.3,67.6 5.3,11.8 13.7,11.8 13.7,13.1 6.6,13.1 6.6,66.3 69.4,66.3 69.4,13.1 63.3,13.1 
			63.3,11.8 70.7,11.8 		"/>
		<rect x="21.2" y="11.8" class="st0" width="33.4" height="1.3"/>
		<rect x="11.3" y="25.9" class="st0" width="52.6" height="1.3"/>
		<rect x="16.8" y="5.2" class="st0" width="1.3" height="13.2"/>
		<rect x="58.2" y="5.2" class="st0" width="1.3" height="13.2"/>
	</g>
	<g>
		<g>
			<path class="st1" d="M30.9,51.4c0.9,2.4,3.7,4.2,6.3,4.2c4,0,6.3-2.5,6.3-5.7c0-3.5-3-5.4-5.7-5.4c-2.5,0-4,0.5-6.9,2l-1-1.3
				l2.2-12.5h12.3v2.5H34.3l-1.5,8.3c1.8-0.9,3.4-1.5,5.1-1.5c4.4,0,8.3,2.8,8.3,7.9s-3.5,8.3-8.9,8.3c-3.5,0-6.9-2.2-8.4-5.3
				L30.9,51.4z"/>
		</g>
	</g>
</g>
</svg>
