<?xml version="1.0" encoding="utf-8"?>
<!-- Generator: Adobe Illustrator 25.3.1, SVG Export Plug-In . SVG Version: 6.00 Build 0)  -->
<svg version="1.1" id="Capa_1" xmlns="http://www.w3.org/2000/svg" xmlns:xlink="http://www.w3.org/1999/xlink" x="0px" y="0px"
	 width="34.1px" height="31.2px" viewBox="0 0 34.1 31.2" style="enable-background:new 0 0 34.1 31.2;" xml:space="preserve">
<g>
	<path d="M16,3h2.3c0.7,0.2,1.4,0,2.1,0.2c1.8,0.4,3.5,1.4,4.7,2.8c1.2,1.4,2,3.3,2.1,5.2c0,0.6,0.3,1.1,0.5,1.6
		c0.5,1.3,1,2.7,1.5,4v0.6c0,0.2-0.1,0.4-0.1,0.5c-0.6,0.2-1.2,0.1-1.8,0.1c0-0.3,0-0.5,0-0.8c0.4,0,0.8,0,1.2,0
		c-0.1-0.6-0.3-1.1-0.5-1.6c-0.4-1.2-0.9-2.3-1.3-3.5c-0.2-0.4-0.1-0.9-0.2-1.4c-0.2-1.9-1.2-3.7-2.6-5c-1.2-1.1-2.7-1.7-4.3-1.9
		c2.3,1.2,4.1,3.3,4.7,5.8c0.3,0.9,0.2,1.8,0.5,2.6c0.5,1.4,1.1,2.8,1.6,4.3c0.2,0.4,0.1,0.7,0.1,1.1c0,0.2-0.1,0.4-0.3,0.4
		c-0.5,0-1.1,0-1.6,0c0-0.3,0-0.5,0-0.8c0.4,0,0.8,0,1.2,0c-0.4-1.5-1.1-2.9-1.6-4.4c-0.2-0.5-0.4-0.9-0.4-1.4c0-2-0.9-4.1-2.4-5.5
		c-1.2-1.2-2.8-1.9-4.5-2.1c1.5,0.8,2.7,1.9,3.6,3.3c0.8,1.2,1.2,2.6,1.3,4c0,0.6,0.3,1.1,0.5,1.7c0.5,1.2,0.9,2.4,1.4,3.6
		c0.2,0.5,0.2,1.1,0,1.6c-0.6,0-1.2,0-1.8,0c0,0.9,0,1.8,0,2.8c0,0.4,0,0.8-0.1,1.2c-0.3,0.9-1.1,1.6-2,1.8
		c-0.8,0.1-1.7,0.1-2.5,0.1c0,1.4,0,2.9,0,4.3c-0.3,0-0.5,0-0.8,0c0-1.4,0-2.9,0-4.3c-0.3,0-0.5,0-0.8,0c0-0.3,0-0.5,0-0.8
		c1.1,0,2.3,0,3.4,0c0.4,0,0.7,0,1-0.2c0.5-0.3,1-0.9,1-1.5c0.1-1.4,0-2.7,0.1-4.1c0.6-0.2,1.3-0.1,1.9-0.1c-0.3-1.4-0.9-2.7-1.4-4
		c-0.2-0.7-0.6-1.3-0.6-2c-0.1-1.8-0.8-3.6-2.1-4.9c-1.3-1.4-3.1-2.3-5-2.5c-1,0-2.1-0.1-3.1,0.2C9,4.5,7.4,5.5,6.4,7
		c-0.9,1.3-1.5,2.9-1.5,4.5c0,0.7,0,1.3,0.1,2c0.5,2.7,1.8,5.2,2.4,7.9c0.1,0.6,0.2,1.2,0.2,1.8c0,1.7,0,3.3,0,5c-0.3,0-0.5,0-0.8,0
		c0-1.8,0-3.6-0.1-5.5c0-0.8-0.2-1.5-0.4-2.2c-0.7-2.2-1.6-4.2-2-6.4c-0.2-0.7-0.2-1.5-0.2-2.3v-0.2c0.1-1.7,0.6-3.4,1.6-4.8
		c1.4-1.9,3.6-3.3,5.9-3.6C13.1,3,14.6,3.1,16,3z"/>
	<path d="M16,9.2c0.2-0.2,0.4-0.4,0.6-0.5c0.6,0.6,1.2,1.1,1.7,1.8c-0.4,0.7-1.1,1.2-1.7,1.9c-0.2-0.2-0.4-0.4-0.6-0.5
		c0.3-0.3,0.6-0.6,0.9-0.9c-1.9,0-3.8,0-5.7,0c0-0.3,0-0.5,0-0.8c1.9,0,3.8,0,5.8,0C16.6,9.8,16.4,9.5,16,9.2z"/>
	<path d="M9.7,11c0.2,0.2,0.4,0.4,0.6,0.5c-0.3,0.3-0.6,0.6-0.9,0.9c1.9,0,3.8,0,5.8,0c0,0.3,0,0.5,0,0.8c-1.9,0-3.8,0-5.8,0
		c0.3,0.3,0.6,0.6,0.9,0.9c-0.2,0.2-0.4,0.4-0.6,0.6c-0.5-0.5-1.1-1-1.5-1.6C8.1,13,8,12.8,8.1,12.7C8.6,12.1,9.2,11.6,9.7,11z"/>
	<path d="M26.5,18.8c0.3,0,0.5,0,0.8,0c0,0.9,0,1.8-0.1,2.8c-0.2,1.3-1.4,2.3-2.7,2.4c0-0.3,0-0.5,0-0.8c1,0,1.9-0.8,2-1.7
		C26.6,20.5,26.5,19.7,26.5,18.8z"/>
	<path d="M23.8,18.8c0.3,0,0.5,0,0.8,0c0,0.6,0,1.2,0,1.8c0,0.6,0,1.2-0.3,1.7c-0.5,0.9-1.4,1.5-2.4,1.6c0-0.3,0-0.5,0-0.8
		c1,0,1.9-0.7,1.9-1.7C23.8,20.5,23.8,19.7,23.8,18.8z"/>
	<path d="M19.1,24.7c0.3,0,0.5,0,0.8,0c0,1.2,0,2.3,0,3.5c-0.3,0-0.5,0-0.8,0C19.1,27,19.1,25.8,19.1,24.7z"/>
	<path d="M21.8,24.7c0.3,0,0.5,0,0.8,0c0,1.2,0,2.3,0,3.5c-0.3,0-0.5,0-0.8,0C21.8,27,21.8,25.9,21.8,24.7z"/>
</g>
</svg>
