<?xml version="1.0" encoding="utf-8"?>
<!-- Generator: Adobe Illustrator 25.3.1, SVG Export Plug-In . SVG Version: 6.00 Build 0)  -->
<svg version="1.1" id="Layer_1" xmlns="http://www.w3.org/2000/svg" xmlns:xlink="http://www.w3.org/1999/xlink" x="0px" y="0px"
	 width="76px" height="81.7px" viewBox="0 0 76 81.7" style="enable-background:new 0 0 76 81.7;" xml:space="preserve">
<g>
	<g>
		<path d="M22.4,5.2c7.4-1.3,15.2,1.2,20.7,6.3c5.2-0.5,10.6-0.7,15.5-2.8c1.8-0.5,1.3-3.3,3.2-3.7c1.8-0.2,3.5-0.2,5.3-0.1
			c1.2,0,2.2,1.1,2.2,2.2c0.2,3.1,0,6.2,0,9.3c2.5,0.8,4.7,3,4.6,5.8c0.1,2.8-2.1,5-4.6,5.8c-0.2,3.4,0.3,6.9-0.2,10.3
			c-1.2,2.2-4.2,1.2-6.2,1.4c-1.8,0.3-2.9-1.3-3.1-2.9c-2.7-2-6.2-2.4-9.4-3c-0.4,2.2-1.2,4.3-1.9,6.5c-0.2,2.9,0,5.8-0.1,8.7
			c2.3,0,4.6,0,7,0c0.3-2.2-1-5.4,1.4-6.7c2.6-0.5,5.3-0.1,7.9-0.2c0,0.8,0,1.6,0,2.3c-2.3,0-4.6,0-7,0c0,3.9,0,7.7,0,11.6
			c3.9,0,7.7,0,11.6,0c0-1.5,0-3.1,0-4.6c0.8,0,1.5,0,2.3,0c-0.3,2.2,1,5.4-1.3,6.7c-3.2,0.5-6.5,0.1-9.7,0.3
			c-1.7-0.1-4.1,0.5-5-1.4c-0.4-1.8-0.2-3.8-0.2-5.6c-2.3,0-4.6,0-7,0c0,5.4,0,10.8,0,16.3c2.3,0,4.6,0,7,0c0.3-2.2-1-5.4,1.3-6.8
			c2.6-0.5,5.3-0.1,7.9-0.2c0,0.8,0,1.5,0,2.3c-2.3,0-4.6,0-7,0c0,3.9,0,7.7,0,11.6c3.9,0,7.7,0,11.6,0c0-1.5,0-3.1,0-4.6
			c0.8,0,1.5,0,2.3,0c-0.3,2.2,1.1,5.9-1.8,6.9c-3.9,0.2-7.7,0-11.6,0.1c-1.1,0.1-2.6-0.5-2.8-1.7c-0.2-1.7-0.1-3.5-0.1-5.2
			c-2.4,0-4.7,0.1-7,0c-1.2,0-2.3-1.1-2.2-2.3c-0.1-7.7,0.1-15.5-0.1-23.2c-3.2,5.1-8.6,8.5-11.3,14c1.7,2.6,0.7,5.8,0.9,8.6
			c0.3,1.5-0.9,2.6-2.2,3c-0.3,3.4-2.9,6.5-6.4,6.7c-3.9,0.5-7.4-2.9-7.7-6.7c-1-0.5-2.3-1.1-2.2-2.5c0.1-3.1-0.6-6.4,0.8-9.3
			c-0.7-1.9-2.1-3.5-3.5-5c-3-3.2-6.2-6.3-8.5-10c-4.6-7.2-5.3-16.8-1.6-24.5C7.7,11.7,14.6,6.4,22.4,5.2z M19,8.5
			C11.7,11,6.1,17.7,4.7,25.3C3.7,31,4.8,37.1,7.9,42c2.3,3.8,5.6,6.8,8.6,10c0.5-5.6,1.1-11.2,1.7-16.8c-1.9,0-4.2-0.9-4.4-3
			c-0.2-3.7,0-7.4-0.1-11.1c2.3,0,4.6,0,7,0c0,1.6,0,3.1,0,4.7c0.8,0,1.5,0,2.3,0c0-1.5,0-3.1,0-4.6c2.3,0,4.7,0,7,0
			c0,1.5,0,3.1,0,4.6c0.8,0,1.5,0,2.3,0c0-1.6,0-3.1,0-4.7c2.3,0,4.7,0,7,0c0,3.7,0.2,7.4-0.1,11.1c-0.2,2.1-2.5,3-4.4,3
			c0.6,5.6,1.1,11.2,1.7,16.9c3.1-3.3,6.4-6.5,8.8-10.4c4.9-8,4.4-19.2-1.8-26.4C37.7,8.1,27.5,5.3,19,8.5z M62.4,7.2
			c0,10.1,0,20.1,0,30.2c1.5,0,3.1,0,4.6,0c0-10.1,0-20.1,0-30.2C65.5,7.2,63.9,7.2,62.4,7.2z M45.1,13.6c4.1,5,6.1,11.5,5.6,17.9
			c3.2,0.5,6.4,1.1,9.3,2.5c0-7.8,0-15.7,0-23.5C55.4,12.7,50.2,13.1,45.1,13.6z M69.4,18.9c-0.1,2.3,0,4.5,0,6.8
			c1.1-0.8,2.4-1.9,2.3-3.4C71.7,20.7,70.5,19.7,69.4,18.9z M16,23.4c0,2.9-0.2,5.8,0.1,8.6c0.4,0.8,1.5,0.6,2.2,0.6
			c6-0.1,12,0.1,17.9-0.1c0.1-0.1,0.4-0.4,0.6-0.6c0.2-2.9,0-5.8,0.1-8.6c-0.8,0-1.6,0-2.3,0c0,1.5,0,3.1,0,4.6c-2.3,0-4.6,0-7,0
			c0-1.5,0-3.1,0-4.6c-0.8,0-1.5,0-2.3,0c0,1.6,0,3.1,0,4.7c-2.3,0-4.7,0-7,0c0-1.5,0-3.1,0-4.6C17.5,23.4,16.7,23.4,16,23.4z
			 M18.7,53.1c-0.4,1.9,1.2,3.4,1.8,5.1c4,0.1,8,0.1,12,0c0.5-1.7,2.1-3.2,1.7-5.1c-0.6-6-1.2-12-1.8-18c-3.9,0-7.9,0-11.8,0
			C19.9,41,19.3,47.1,18.7,53.1z M19.4,60.6c0,0.8,0,1.5,0,2.3c4.6,0,9.3,0,13.9,0c0-0.8,0-1.5,0-2.3C28.7,60.6,24.1,60.6,19.4,60.6
			z M19.4,65.2c0,0.8,0,1.5,0,2.3c4.6,0,9.3,0,13.9,0c0-0.8,0-1.5,0-2.3C28.7,65.2,24.1,65.2,19.4,65.2z M21.6,69.9
			c0.3,2.4,2.2,4.7,4.8,4.6c2.6,0.1,4.5-2.2,4.8-4.6C28,69.8,24.8,69.8,21.6,69.9z"/>
	</g>
	<path d="M25.2,39.7c0.8,0,1.6,0,2.3,0c0,0.8,0,1.6,0,2.3c-0.8,0-1.6,0-2.3,0C25.2,41.2,25.2,40.4,25.2,39.7z"/>
	<path d="M71.9,40.1c0.6,0.5,1.2,1,1.8,1.4C70.4,45.8,67,50,63.6,54.2c-1.4-1.5-2.9-3-4.4-4.4c0.5-0.5,1.1-1.1,1.6-1.6
		c0.9,0.8,1.7,1.7,2.6,2.5C66.3,47.2,69.1,43.6,71.9,40.1z"/>
	<circle cx="26.4" cy="45.5" r="1.6"/>
	<path d="M25.2,49c0.8,0,1.5,0,2.3,0c0,0.8,0,1.6,0,2.4c-0.8,0-1.6,0-2.4,0C25.2,50.5,25.2,49.7,25.2,49z"/>
	<path d="M71.9,58.7c0.6,0.5,1.2,1,1.8,1.5c-3.3,4.2-6.7,8.4-10.1,12.6c-1.5-1.5-3-2.9-4.4-4.4c0.6-0.5,1.2-1.1,1.7-1.6
		c0.8,0.9,1.6,1.7,2.5,2.6C66.3,65.7,69.1,62.2,71.9,58.7z"/>
</g>
</svg>
