<?xml version="1.0" encoding="utf-8"?>
<!-- Generator: Adobe Illustrator 25.3.0, SVG Export Plug-In . SVG Version: 6.00 Build 0)  -->
<svg version="1.1" id="Capa_1" xmlns="http://www.w3.org/2000/svg" xmlns:xlink="http://www.w3.org/1999/xlink" x="0px" y="0px"
	 width="26.04px" height="20.79px" viewBox="0 0 26.04 20.79" style="enable-background:new 0 0 26.04 20.79;" xml:space="preserve"
	>
<g>
	<path d="M6.13,9.56c4.55-0.04,9.1,0.06,13.66-0.05c0.02-0.24,0.04-0.71,0.05-0.95C14.74,8.41,9.61,8.34,4.5,8.61
		C4.74,9.39,5.36,9.68,6.13,9.56z"/>
	<path d="M6.13,11.43c2.43,0.02,4.85,0.01,7.28-0.02c-0.22-0.3-0.04-1.08-0.59-1c-2.77-0.12-5.56-0.22-8.32,0.12
		C4.77,11.23,5.39,11.56,6.13,11.43z"/>
	<path d="M4.5,12.37c0.17,0.22,0.52,0.65,0.69,0.87c1.79,0.17,3.61,0.03,5.42,0.07c-0.08-0.32-0.17-0.64-0.27-0.95
		C8.41,12.04,6.43,12.2,4.5,12.37z"/>
	<path d="M24.06,2.91c-1.84-0.1-3.68-0.08-5.52-0.06c-0.04-0.4-0.13-1.2-0.17-1.6c-0.73,0.27-1.01,0.91-1.2,1.61
		c-2.97-0.05-5.96-0.03-8.94-0.02C8.18,2.45,8.07,1.67,8.03,1.28c-0.69,0.29-1.06,0.8-1.14,1.56c-1.8,0-3.6-0.05-5.39,0.09
		c-0.02,5.29-0.19,10.6,0.08,15.88c6.39,0.28,12.81,0.03,19.2,0.12c1.1-1.41,2.34-2.73,3.28-4.26C24.18,10.75,24.11,6.82,24.06,2.91
		z M20.6,17.7l-0.14-0.01v-2.77h1.94L20.6,17.7z M23.01,14.07c-1.24,0-2.47,0.02-3.7,0.12c-0.05,1.22-0.06,2.44-0.08,3.67
		c-5.56-0.04-11.12,0-16.68-0.02c-0.04-3.69,0.01-7.38-0.03-11.09c6.83-0.02,13.66,0.01,20.49-0.01
		C23.01,9.19,23.01,11.63,23.01,14.07z M22.99,5.66C16.18,5.63,9.36,5.67,2.56,5.64C2.54,5.07,2.54,4.5,2.52,3.94
		c6.83-0.03,13.66-0.01,20.49-0.02C23.01,4.5,22.99,5.08,22.99,5.66z"/>
</g>
</svg>
