<?xml version="1.0" encoding="utf-8"?>
<!-- Generator: Adobe Illustrator 25.3.1, SVG Export Plug-In . SVG Version: 6.00 Build 0)  -->
<svg version="1.1" id="Layer_1" xmlns="http://www.w3.org/2000/svg" xmlns:xlink="http://www.w3.org/1999/xlink" x="0px" y="0px"
	 width="76px" height="81.7px" viewBox="0 0 76 81.7" style="enable-background:new 0 0 76 81.7;" xml:space="preserve">
<style type="text/css">
	.st0{fill:#1A1A1A;}
	.st1{fill:#ED1C24;}
</style>
<g>
	<g>
		<path class="st0" d="M4.3,11.8C4.2,9.8,6.1,8.3,8,8.5c19.8,0,39.6,0,59.4,0c1.2,0,2.5,0,3.4,1c1.1,1,0.9,2.6,1,4
			c-0.1,10.4,0,20.7,0,31.1c0.2,0.8-0.6,1.7-1.4,1.3c-1-0.3-0.6-1.7-0.8-2.5c-21,0-42,0-63.1,0c0,7.6-0.1,15.3,0,22.9
			c-0.1,0.8,0.9,1.1,1.5,1.1c10.7,0.1,21.5-0.1,32.2,0.1c1.4-0.2,1.4,2.2,0,2.1c-10.4,0.1-20.7,0-31.1,0.1c-1.3,0-2.9,0.1-3.9-1
			c-1-0.8-1-2.2-1-3.4C4.3,47.4,4.2,29.6,4.3,11.8z M7,10.8c-1.2,1-0.4,2.9-0.6,4.3c1.5,0,2.9,0,4.4,0c0-1.5,0-2.9,0-4.4
			C9.5,10.7,8.3,10.6,7,10.8z M13,10.7c0,1.5,0,2.9,0,4.4c1.5,0,2.9,0,4.4,0c0-1.5,0-2.9,0-4.4C15.9,10.7,14.4,10.7,13,10.7z
			 M19.5,10.7c0,1.5,0,2.9,0,4.4c16.7,0,33.4,0,50.1,0c0-1.2,0.1-2.5-0.1-3.7c-0.4-0.8-1.3-0.6-2-0.6C51.5,10.7,35.5,10.7,19.5,10.7
			z M6.4,17.3c0,5.8,0,11.6,0,17.4c1.5,0,2.9,0,4.4,0c0-3.3-0.1-6.6,0-9.9c0-1.7,1.5-3.2,3.2-3.2c4.6-0.1,9.1,0,13.7,0
			c1.3,0,2.9-0.1,3.9,1c1.3,1.3,0.9,3.3,1,4.9c3.1-1.5,6.2-3.2,9.4-4.7c1.7-0.9,3.8-0.7,5.4,0.3c5.4,3.1,10.8,6.2,16.3,9.3
			c1.9,1,3.6,2.5,5.9,2.4c0-5.8,0-11.7,0-17.5C48.5,17.3,27.5,17.3,6.4,17.3z M13,24.9C12.9,30,12.9,35,13,40.1
			c0.1,1.6,2.2,0.9,3.2,1.1c0.5-1.1,1.1-2.2,1.9-3.2c-1.1-1-2.3-2.2-2.7-3.7c-1.1-3.3,0.9-7.1,4.2-8.1c3.5-1.2,7.5,1.1,8.3,4.6
			c0.8,2.7-0.6,5.5-2.8,7.2c0.8,0.9,1.4,2,1.9,3.2c1-0.2,3.1,0.5,3.2-1.1c0.1-4.7,0-9.5,0.1-14.2c0-0.8,0.1-2.2-1.1-2.1
			c-4.7-0.1-9.5,0-14.2-0.1C14.3,23.8,12.9,23.7,13,24.9z M43.2,24.7c-3.6,1.6-7.1,3.5-10.6,5.2c0,1.6,0,3.2,0,4.8
			c10.2,0,20.5,0,30.7,0c-5.5-3.2-11-6.2-16.4-9.4C45.8,24.6,44.4,24,43.2,24.7z M17.3,31.4c0.4,0,1.2,0.1,1.7,0.1
			c0.7-0.7,1.4-1.5,2.3-2.1c1.4-0.2,2.1,1.4,3.1,2.1c0.4,0,1.2-0.1,1.6-0.1c-0.8-1.7-2.3-3.3-4.3-3.2C19.6,28.1,18.1,29.6,17.3,31.4
			z M20,33.5c-0.9,0-1.7,0.1-2.6,0.1c0.8,1.7,2.3,3.3,4.3,3.2c2,0.1,3.5-1.5,4.3-3.2c-0.9,0-1.8-0.1-2.6-0.1
			c-0.6-0.5-1.1-1.1-1.7-1.7C21.1,32.4,20.5,33,20,33.5z M6.4,36.8c0,1.4,0,2.9,0,4.4c1.5,0,3,0,4.4,0c-0.1-1.5-0.1-2.9-0.1-4.4
			C9.3,36.8,7.9,36.8,6.4,36.8z M32.6,36.8c0,1.5,0,2.9-0.1,4.4c12.4,0,24.7,0,37.1,0c0-1.5,0-2.9,0-4.4
			C57.2,36.8,44.9,36.8,32.6,36.8z M18.5,41.1c2.1,0.1,4.2,0.1,6.4,0c-0.8-1-1.7-2.2-3.2-2.1C20.2,39,19.2,40.1,18.5,41.1z"/>
	</g>
	<g>
		<path class="st0" d="M61.1,20.8c2.6-1.2,5.7,1.3,5.2,4.1c-0.3,2.6-3.6,4.2-5.8,2.7C57.9,26.1,58.3,21.8,61.1,20.8z M61.6,23
			c-1.8,1.1,0.1,4,1.8,2.7C65.2,24.6,63.3,21.7,61.6,23z"/>
	</g>
	<g>
		<path class="st0" d="M13.1,47.9c7-0.4,14.1,0,21.1-0.2c1.7-0.1,3.9,0.1,4.6,2c0.6,2.4,0.2,4.9,0.3,7.3c-0.1,1.7,0.4,3.7-1,5
			c-0.9,1-2.2,1-3.4,1c-6.5,0-13.1,0-19.6,0c-1.2,0-2.5,0-3.4-1c-1.1-1-0.9-2.6-1-4c0.1-2.4-0.1-4.8,0-7.1
			C10.8,49.6,11.7,48.3,13.1,47.9z M13.6,50c-0.1,0.1-0.4,0.4-0.5,0.5c-0.2,3.1-0.1,6.2-0.1,9.2c-0.1,1.2,1.3,1.1,2.1,1.1
			c6.9-0.1,13.8,0.1,20.7-0.1c1.1,0,1.1-1.3,1.1-2.1c-0.1-2.7,0.1-5.4-0.1-8.1c-0.5-1-1.7-0.5-2.6-0.7C27.3,50,20.4,49.8,13.6,50z"
			/>
	</g>
	<path class="st0" d="M15.8,52.2c5.6-0.2,11.2,0,16.8-0.1c0.8,0,2.2-0.1,2.1,1.1c0.1,1.2-1.3,1.2-2.1,1.1
		c-5.5-0.1-10.9,0.1-16.4-0.1C15,54.3,14.7,52.6,15.8,52.2z"/>
	<path class="st0" d="M15.8,56.5c5.4-0.3,10.8,0,16.2-0.1c0.9,0.1,2.1-0.3,2.7,0.6c0.4,1-0.6,1.7-1.5,1.5c-5.6,0-11.3,0.1-16.9,0
		C15.1,58.7,14.7,56.9,15.8,56.5z"/>
</g>
<g>
	<g>
		<path class="st1" d="M43.5,51c-0.1-1.7,1.5-3.2,3.2-3.2c6.7-0.1,13.5,0,20.2,0c1.3,0,2.9-0.1,3.9,1c1.1,1,1,2.6,1,3.9
			c-0.1,5.3,0,10.5,0,15.8c0,1.5-1.1,3-2.7,3.2c-2,0.2-4,0.1-6,0.1c-0.3,1.4,0.8,3.8-1.1,4.4c-2.5-1.1-4.5-3.1-6.9-4.3
			c-2.9-0.3-5.9,0.1-8.9-0.2c-1.8-0.2-2.9-2-2.7-3.7C43.5,62.3,43.4,56.6,43.5,51z M45.6,51.5c0,5.5,0,10.9,0,16.4
			c-0.1,0.7,0.2,1.7,1.1,1.6c2.4,0.1,4.7,0,7.1,0c2.8-0.3,4.8,2.2,7,3.4c0.2-1.1-0.4-2.5,0.6-3.3c2.5-0.3,5,0.1,7.5-0.2
			c0.8-0.4,0.6-1.3,0.7-2c0-5.5,0.1-10.9-0.1-16.4c0.1-1.2-1.3-1.1-2.1-1.1c-6.9,0.1-13.8-0.1-20.7,0C45.8,49.9,45.5,50.8,45.6,51.5
			z"/>
	</g>
	<g>
		<path class="st1" d="M51,53.1c2-1.5,4.7-1.1,6.6,0.3c1.9-1.5,4.7-1.9,6.6-0.3c2.5,1.8,2.6,5.4,1.1,7.9c-1.7,2.9-4.6,5.1-7.8,6.4
			c-3.1-1.3-6.1-3.4-7.8-6.4C48.4,58.5,48.4,54.8,51,53.1z M51.3,59c1.1,2.8,3.8,4.5,6.3,6c2.1-1.3,4.3-2.6,5.6-4.7
			c0.9-1.3,1.3-3.1,0.6-4.6c-0.7-1.5-2.8-2-4.1-1c-0.7,0.5-1.3,1.1-2.1,1.5c-1.4-0.8-2.5-2.4-4.3-1.9C51.2,54.7,50.6,57.3,51.3,59z"
			/>
	</g>
</g>
</svg>
