<?xml version="1.0" encoding="utf-8"?>
<!-- Generator: Adobe Illustrator 25.3.1, SVG Export Plug-In . SVG Version: 6.00 Build 0)  -->
<svg version="1.1" id="Capa_1" xmlns="http://www.w3.org/2000/svg" xmlns:xlink="http://www.w3.org/1999/xlink" x="0px" y="0px"
	 width="36.4px" height="37.3px" viewBox="0 0 36.4 37.3" style="enable-background:new 0 0 36.4 37.3;" xml:space="preserve">
<style type="text/css">
	.st0{fill:#039BE5;}
</style>
<g>
	<g>
		<path class="st0" d="M16.2,4.2c2.4-0.2,4.9,0.1,7.2,1.1c3.6,1.4,6.6,4.1,8.3,7.5c1.4,2.7,2,5.8,1.7,8.9c-0.3,2.7-1.2,5.3-2.7,7.5
			c-1.6,2.4-3.9,4.3-6.6,5.5c-3.7,1.7-8,1.8-11.8,0.5c-2.4-0.8-4.6-2.3-6.3-4.1c-1.8-1.9-3.1-4.2-3.8-6.8c-0.7-2.8-0.7-5.7,0.1-8.5
			c0.7-2.5,2-4.7,3.8-6.6c1.7-1.8,3.8-3.2,6.2-4C13.5,4.6,14.9,4.3,16.2,4.2z M24.3,13.8c-5,1.9-10.1,3.9-15.1,5.8
			c-0.3,0.1-0.7,0.2-0.9,0.5c-0.1,0.1-0.2,0.3-0.1,0.4c0.1,0.2,0.3,0.4,0.6,0.4c1.3,0.4,2.7,0.8,4,1.2c3.1-1.9,6.1-3.8,9.2-5.8
			c0.2-0.1,0.5-0.2,0.6,0c-0.2,0.3-0.5,0.5-0.8,0.7c-2.3,2-4.5,4.1-6.8,6.1c-0.1,1.3-0.2,2.7-0.3,4c0.3,0,0.6-0.1,0.7-0.3
			c0.7-0.6,1.3-1.3,2-1.9c1.3,0.9,2.5,1.9,3.8,2.8c0.2,0.2,0.5,0.3,0.8,0.3c0.3,0,0.5-0.2,0.7-0.4c0.2-0.3,0.2-0.6,0.3-1
			c0.8-3.8,1.6-7.6,2.4-11.4c0.1-0.4,0.2-0.7,0.1-1.1c0-0.2-0.2-0.4-0.4-0.5C24.8,13.7,24.6,13.7,24.3,13.8z"/>
	</g>
</g>
</svg>
