<?xml version="1.0" encoding="utf-8"?>
<!-- Generator: Adobe Illustrator 25.3.1, SVG Export Plug-In . SVG Version: 6.00 Build 0)  -->
<svg version="1.1" id="Capa_1" xmlns="http://www.w3.org/2000/svg" xmlns:xlink="http://www.w3.org/1999/xlink" x="0px" y="0px"
	 width="43.8px" height="42.5px" viewBox="0 0 43.8 42.5" style="enable-background:new 0 0 43.8 42.5;" xml:space="preserve">
<g>
	<path d="M21.4,4.5c8.9-1.5,13,11.3,4.8,15.2C15,24.5,9.5,7,21.4,4.5z M21.2,5.9C12.8,8,15.4,20.5,23.9,19C32.7,17.2,30,4,21.2,5.9z
		"/>
</g>
<path d="M18.5,12c1.4-1.4,2.8-2.8,4.2-4.2c1.4,1.4,2.8,2.8,4.2,4.2c-0.3,0.3-0.6,0.6-1,0.9c-0.8-0.9-1.7-1.7-2.6-2.6
	c0,1.9,0,3.9,0,5.8c-0.4,0-0.9,0-1.3,0c0-1.9,0-3.9,0-5.8c-0.8,0.9-1.7,1.7-2.6,2.6C19.1,12.6,18.8,12.3,18.5,12z"/>
<path d="M10,23.8c1.1-0.6,2.4-0.3,3.4,0.4c-0.2,0.2-0.3,0.5-0.5,0.7c-0.8-0.7-3.6-0.8-2.3,0.8c0.8,0.4,1.8,0.4,2.5,1
	c1.9,2.8-2.5,3.8-4.1,2c0.2-0.3,0.4-0.5,0.6-0.8c0.7,0.8,3.5,1.3,2.8-0.5c-0.9-0.6-2.1-0.4-2.8-1.2C9,25.5,9.2,24.3,10,23.8z"/>
<path d="M18,23.7c0.3,0,0.6,0,0.9,0c0.5,1.4,0.9,2.8,1.3,4.2c0.5-1.4,1-2.8,1.5-4.2c0.4,0,0.7,0,1.1,0c-0.7,2-1.4,4-2.1,5.9
	c-0.3,0-0.7,0-1,0c-0.4-1.4-0.8-2.8-1.3-4.1c-0.5,1.4-0.9,2.8-1.3,4.1c-0.3,0-0.7,0-1,0c-0.7-2-1.4-3.9-2.1-5.9c0.4,0,0.7,0,1.1,0
	c0.5,1.4,1,2.8,1.5,4.3C17.1,26.5,17.5,25.1,18,23.7z"/>
<g>
	<path d="M26.3,23.7c1.1,0,2.2-0.1,3.3,0.1c1.7,0.4,1.8,3.3,0.2,3.8c-0.8,0.3-1.6,0.2-2.4,0.2c0,0.6,0,1.2,0,1.7c-0.3,0-0.7,0-1,0
		C26.3,27.6,26.3,25.6,26.3,23.7z M27.3,24.6c0,0.8,0,1.6,0,2.4c0.8,0,1.6,0.1,2.3-0.3C30.6,24.7,28.9,24.4,27.3,24.6z"/>
</g>
<path d="M32.1,23.7c1.4,0,2.8,0,4.2,0c0,0.2,0,0.7,0,0.9c-1.1,0-2.1,0-3.2,0c0,0.5,0,1,0,1.6c0.9,0,1.9,0,2.8,0c0,0.3,0,0.6,0,0.9
	c-0.9,0-1.9,0-2.8,0c0,0.5,0,1.1,0,1.6c1.1,0,2.2,0,3.3,0c0,0.2,0,0.7,0,0.9c-1.4,0-2.8,0-4.3,0C32.1,27.6,32.1,25.6,32.1,23.7z"/>
<path d="M17.3,32.1c0.3,0,0.7,0,1,0c0.2,1.6-0.9,4.9,1.5,5c2.3-0.2,1.2-3.4,1.5-5c0.3,0,0.7,0,1,0c-0.2,1.9,0.8,4.9-1.6,5.8
	C16.9,39.1,17.3,34.7,17.3,32.1z"/>
<g>
	<path d="M23.9,32.1c1.1,0.1,2.4-0.2,3.5,0.2c1.3,0.5,1.4,2.2,0.7,3.2c-0.8,0.9-2.1,0.7-3.2,0.7c0,0.6,0,1.2,0,1.8c-0.3,0-0.7,0-1,0
		C23.9,36.1,23.9,34.1,23.9,32.1z M24.9,33.1c0,0.8,0,1.6,0,2.4c1.4,0.2,3.3-0.2,2.3-2C26.6,32.9,25.7,33.1,24.9,33.1z"/>
</g>
<g>
	<path d="M23.7,23.7c0.3,0,0.7,0,1,0c0,2,0,3.9,0,5.9c-0.3,0-0.7,0-1,0C23.7,27.6,23.7,25.6,23.7,23.7z"/>
</g>
</svg>
