<?xml version="1.0" encoding="utf-8"?>
<!-- Generator: Adobe Illustrator 25.3.1, SVG Export Plug-In . SVG Version: 6.00 Build 0)  -->
<svg version="1.1" id="Capa_1" xmlns="http://www.w3.org/2000/svg" xmlns:xlink="http://www.w3.org/1999/xlink" x="0px" y="0px"
	 width="36.4px" height="37.3px" viewBox="0 0 36.4 37.3" style="enable-background:new 0 0 36.4 37.3;" xml:space="preserve">
<style type="text/css">
	.st0{fill:#4CAF50;}
</style>
<g>
	<g>
		<path class="st0" d="M18.4,2.7h0.6c2.4,0.1,4.8,0.6,7,1.7c3.2,1.6,5.8,4.3,7.3,7.6c1.3,2.9,1.8,6.2,1.2,9.3c-0.4,2.5-1.5,5-3.1,7
			c-1.5,1.9-3.3,3.5-5.5,4.6c-2.1,1.1-4.5,1.7-6.9,1.7h-0.4c-1.7,0-3.5-0.3-5.1-0.9c-1.3-0.4-2.4-1-3.6-1.8c-2,0.7-4.1,1.3-6.1,2
			c0.7-2,1.3-4,2-5.9c-1.6-2.2-2.6-4.8-2.9-7.6c-0.4-3.6,0.4-7.3,2.4-10.4c1-1.5,2.2-2.9,3.7-4C11.5,3.9,14.9,2.7,18.4,2.7z
			 M12.2,10c-0.6,0.1-1.1,0.4-1.4,0.8c-1.1,1.1-1.5,2.8-1.3,4.3c0.2,1.2,0.7,2.4,1.4,3.4c1.2,1.9,2.6,3.6,4.3,5.1
			c1.3,1.2,2.8,2.1,4.4,2.8c1.2,0.5,2.5,1,3.8,1.1c1.2,0.2,2.4-0.2,3.4-0.9c0.5-0.4,1.1-0.8,1.3-1.5c0.2-0.6,0.4-1.3,0.3-2
			c0-0.3-0.2-0.4-0.4-0.5c-1.1-0.5-2.1-1-3.2-1.5c-0.3-0.1-0.7-0.4-1.1-0.3c-0.3,0.1-0.5,0.4-0.7,0.6c-0.3,0.5-0.7,1-1.1,1.4
			c-0.3,0.3-0.7,0.3-1.1,0.2c-1.8-0.7-3.4-1.8-4.7-3.2c-0.6-0.7-1.2-1.5-1.7-2.4c-0.1-0.2-0.1-0.5,0-0.7c0.4-0.6,1.1-1.1,1.4-1.7
			c0.1-0.2,0.1-0.5,0-0.7c-0.5-1.2-1-2.4-1.5-3.6c-0.1-0.3-0.3-0.7-0.7-0.8C13.1,10,12.6,10,12.2,10z"/>
	</g>
</g>
</svg>
