<?xml version="1.0" encoding="utf-8"?>
<!-- Generator: Adobe Illustrator 25.3.0, SVG Export Plug-In . SVG Version: 6.00 Build 0)  -->
<svg version="1.1" id="Capa_1" xmlns="http://www.w3.org/2000/svg" xmlns:xlink="http://www.w3.org/1999/xlink" x="0px" y="0px"
	 width="41.84px" height="28.45px" viewBox="0 0 41.84 28.45" style="enable-background:new 0 0 41.84 28.45;" xml:space="preserve"
	>
<style type="text/css">
	.st0{fill:#010101;}
</style>
<g>
	<path class="st0" d="M11.93,16.34c0,0.09-0.02,0.22,0.09,0.26c0.13,0.11,0.32-0.04,0.29-0.19c0-3.83,0.01-7.66-0.01-11.48
		c0.05-0.04,0.09-0.07,0.14-0.11c-0.04,0-0.11,0.01-0.15,0.01c0.05-0.56,0-1.11,0.02-1.67c4.14,0,8.28,0,12.43,0
		c0,0.93,0,1.87,0,2.8c-0.01,0.11,0.06,0.23,0.18,0.22c0.95,0.01,1.9,0,2.84,0c0,1.19,0,2.39,0,3.58c0.01,0.08-0.02,0.2,0.07,0.25
		c0.1,0.09,0.3,0.03,0.3-0.12c0.02-1.27,0.01-2.54,0.01-3.81c0.03-0.18-0.13-0.29-0.24-0.41c-0.93-0.92-1.85-1.85-2.78-2.78
		c-0.06-0.05-0.12-0.13-0.21-0.12c-4.21,0-8.43,0-12.64,0c-0.17-0.03-0.35,0.1-0.34,0.28c-0.01,0.4,0,0.8-0.01,1.2
		c0.01,0.26-0.05,0.52,0,0.78C11.93,8.8,11.93,12.57,11.93,16.34z M25.12,3.43c0.79,0.79,1.58,1.59,2.38,2.37c-0.79,0-1.59,0-2.38,0
		C25.12,5.01,25.12,4.22,25.12,3.43z"/>
	<path class="st0" d="M13.02,6.57c-0.22,0.06-0.13,0.42,0.1,0.37c3.55,0,7.1,0,10.65,0c0.14,0.03,0.27-0.15,0.19-0.27
		c-0.05-0.14-0.21-0.1-0.32-0.11C20.09,6.57,16.55,6.55,13.02,6.57z"/>
	<path class="st0" d="M13.11,8.65c3.57,0,7.14,0.01,10.71,0c0.24-0.01,0.19-0.42-0.05-0.37c-3.44-0.01-6.88,0-10.33,0
		c-0.15,0-0.3-0.01-0.45,0.02C12.8,8.38,12.9,8.7,13.11,8.65z"/>
	<path class="st0" d="M28.15,14.15c-0.01-0.11,0.01-0.29-0.13-0.31c-0.12-0.05-0.26,0.05-0.25,0.18c-0.01,3.54,0,7.09,0,10.63
		c-5.15,0-10.3,0-15.45,0c0.01-1.15,0-2.31,0-3.46c-0.01-0.11,0.02-0.27-0.11-0.32c-0.12-0.09-0.3,0.05-0.27,0.19
		c0,1.21,0,2.41,0,3.62c0,0.09,0.01,0.19,0.07,0.26c0.13,0.15,0.35,0.08,0.53,0.1c5.05,0,10.11,0,15.16,0
		c0.12-0.01,0.26,0.02,0.36-0.08c0.13-0.12,0.09-0.32,0.1-0.48C28.15,21.03,28.15,17.59,28.15,14.15z"/>
	<path class="st0" d="M4.8,20.16c1.1,0,2.19,0,3.29,0c0.16,0.02,0.24-0.18,0.16-0.3c-0.09-0.11-0.23-0.07-0.35-0.08
		c-1.05,0.01-2.1-0.01-3.15,0.01C4.51,19.81,4.56,20.19,4.8,20.16z"/>
	<path class="st0" d="M11.31,20.77c-3.2,0-6.41,0-9.61,0c-0.22,0-0.23,0.27-0.08,0.38c3.28-0.01,6.56,0.01,9.84-0.01
		C11.59,21.01,11.53,20.73,11.31,20.77z"/>
	<path class="st0" d="M26.98,10.35c-0.08,0.01-0.2-0.02-0.25,0.07c-0.11,0.12,0.04,0.29,0.18,0.26c1.34,0,2.67,0,4.01,0
		c0.16-0.01,0.29,0.1,0.39,0.21c-0.37,0.02-0.73,0.01-1.1,0.01c-0.26,0-0.53,0-0.79,0c-3.54,0.01-7.09,0-10.63,0
		c-0.1,0-0.2,0.03-0.3,0.06c-1.13,0.34-2.25,0.68-3.38,1.02c-0.16,0.02-0.19,0.27-0.02,0.31c1.1,0.35,2.21,0.68,3.31,1.02
		c0.13,0.04,0.25,0.09,0.39,0.09c4.26,0,8.52,0,12.77,0c0.23,0,0.48,0.03,0.68-0.1c0.22-0.12,0.36-0.37,0.35-0.62
		c-0.01-0.41,0.02-0.82-0.02-1.22c-0.09-0.41-0.53-0.6-0.92-0.55c-0.1-0.29-0.35-0.54-0.67-0.54
		C29.65,10.35,28.32,10.36,26.98,10.35z M18.59,13.03c-0.64-0.2-1.28-0.39-1.92-0.59c0-0.2,0-0.4,0-0.59
		c0.64-0.19,1.28-0.38,1.92-0.58C18.61,11.85,18.61,12.44,18.59,13.03z M21.04,13.07c-0.51,0-1.02,0-1.52,0c0-0.62,0-1.23,0-1.85
		c0.51,0,1.02,0,1.52,0C21.04,11.84,21.04,12.45,21.04,13.07z M27.77,11.7c0,0.3,0,0.6,0,0.91c0.02,0.18-0.12,0.32-0.21,0.47
		c-2.07,0-4.13,0-6.2,0c0-0.62,0-1.23,0-1.85c2.07,0,4.13,0,6.2,0C27.65,11.37,27.79,11.51,27.77,11.7z M31.88,11.22
		c0.19,0,0.37,0.15,0.38,0.34c0.02,0.3,0,0.61,0.01,0.91c-1.24,0-2.49,0-3.73,0c-0.11,0.01-0.29-0.02-0.31,0.13
		c-0.03,0.15,0.12,0.21,0.24,0.19c1.27,0.01,2.54-0.01,3.81,0.01c-0.1,0.12-0.21,0.27-0.38,0.26c-1.3,0.01-2.61-0.01-3.91,0.01
		c0.17-0.28,0.13-0.61,0.13-0.92c-0.01-0.32,0.05-0.66-0.14-0.94c0.47,0.01,0.93,0,1.4,0.01c0.3,0,0.6,0,0.9,0
		C30.8,11.23,31.34,11.22,31.88,11.22z"/>
	<path class="st0" d="M23.06,12.48c-0.47,0-0.95-0.02-1.42,0.01c-0.14,0.06-0.11,0.3,0.05,0.3c0.43,0.02,0.86,0,1.29,0.01
		c0.11,0,0.3,0.01,0.31-0.14C23.32,12.52,23.17,12.46,23.06,12.48z"/>
	<path class="st0" d="M27.31,12.48c-0.86,0-1.72,0-2.59,0c-0.09,0.01-0.2-0.02-0.29,0.03c-0.13,0.07-0.06,0.29,0.08,0.29
		c0.93,0.01,1.86,0,2.79,0c0.11,0.02,0.26-0.07,0.21-0.2C27.51,12.5,27.4,12.47,27.31,12.48z"/>
	<path class="st0" d="M33.69,13.19c0.99-0.01,1.98,0.01,2.97-0.01c0.25,0.03,0.26-0.4,0-0.38c-1.1,0-2.21-0.01-3.31,0
		c-0.19-0.01-0.19,0.21-0.15,0.34C33.37,13.18,33.53,13.19,33.69,13.19z"/>
	<path class="st0" d="M39.76,13.79c-3.63-0.01-7.26,0-10.9,0c-0.1,0.01-0.23-0.02-0.29,0.08c-0.11,0.15,0.05,0.34,0.22,0.3
		c3.66,0,7.31,0,10.97,0C40,14.18,40,13.76,39.76,13.79z"/>
	<path class="st0" d="M6.07,19.17c0.45,0.01,0.91,0.01,1.36,0c0.2-0.02,0.19-0.34,0-0.36c-0.47-0.01-0.94-0.02-1.4,0
		C5.85,18.86,5.88,19.17,6.07,19.17z"/>
	<path class="st0" d="M18.6,4.84c-1.78-0.01-3.57,0-5.36,0c-0.1,0.01-0.23-0.03-0.3,0.06c-0.15,0.12-0.01,0.36,0.17,0.32
		c1.84,0,3.68,0.01,5.52,0C18.86,5.2,18.83,4.81,18.6,4.84z"/>
	<path class="st0" d="M34.03,12.19c0.41,0.02,0.81,0,1.22,0.01c0.1-0.01,0.23,0.02,0.27-0.1c0.09-0.14-0.05-0.31-0.21-0.28
		c-0.45,0.01-0.91-0.04-1.35,0.03C33.82,11.92,33.86,12.18,34.03,12.19z"/>
	<path class="st0" d="M8.93,20.39c0.12,0.08,0.29-0.04,0.27-0.18c0-0.34,0-0.68,0-1.02c3.67,0,7.34,0,11.01,0c0.04,0,0.12,0,0.15,0
		c0.17,0,0.35,0.01,0.52-0.03c0.03,0.01,0.08,0.03,0.1,0.04c0.69-0.03,1.37,0,2.06-0.01c0.09,0.22,0.25,0.42,0.48,0.49
		c0.37,0.13,0.79-0.11,0.89-0.48c0.17-0.01,0.33-0.01,0.5-0.01c0,0.28,0,0.56,0,0.85c-4.91,0-9.81,0-14.72,0
		c-0.08,0.01-0.18-0.01-0.22,0.08c-0.11,0.11,0,0.32,0.15,0.3c4.97,0.01,9.94,0,14.91,0c0.12,0.02,0.27-0.05,0.25-0.2
		c0-1.01,0-2.03,0-3.05c0.01-0.11-0.07-0.2-0.18-0.2c-0.73-0.01-1.46,0-2.19,0.04l-0.08-0.07l-0.05,0.05
		c-0.1-0.01-0.19-0.02-0.29-0.03c-4.49,0.02-8.98,0-13.47,0.01c-0.12-0.01-0.24,0.09-0.22,0.22c0,0.99,0,1.97,0,2.96
		C8.82,20.24,8.83,20.36,8.93,20.39z M9.2,17.35c0.25,0,0.49,0,0.74,0c0.01,0.27,0,0.53,0,0.8c0.01,0.11-0.01,0.25,0.07,0.34
		c0.11,0.05,0.25,0.03,0.3-0.09c0.03-0.35,0.01-0.69,0.01-1.04c0.2,0,0.4,0,0.6,0c0,0.22-0.02,0.44,0.01,0.66
		c0.03,0.17,0.32,0.17,0.35,0c0.02-0.22,0.01-0.45,0.01-0.67c0.2,0,0.4,0,0.61,0c0.01,0.35-0.02,0.7,0.02,1.04
		c0.05,0.17,0.36,0.15,0.36-0.05c0.03-0.33,0-0.67,0.01-1c0.2,0,0.4,0,0.6,0c0,0.22-0.02,0.45,0.01,0.67c0.04,0.17,0.32,0.17,0.36,0
		c0.03-0.22,0.01-0.45,0.01-0.67c0.2,0,0.4,0,0.6,0c0,0.29,0,0.57,0,0.86c0,0.1-0.01,0.21,0.08,0.27c0.1,0.06,0.27,0.03,0.29-0.11
		c0.03-0.34,0-0.68,0.01-1.02c0.2,0,0.4,0,0.6,0c0.02,0.25-0.04,0.51,0.05,0.75c0.09,0.06,0.2,0.06,0.29-0.01
		c0.08-0.24,0.03-0.49,0.04-0.74c0.2,0,0.4,0,0.6,0c0,0.33-0.01,0.67,0.01,1c0,0.18,0.3,0.23,0.36,0.05
		c0.04-0.35,0.01-0.7,0.01-1.05c0.2,0,0.4,0,0.6,0c0,0.22-0.01,0.43,0.01,0.65c0.01,0.18,0.33,0.19,0.36,0.01
		c0.03-0.22,0.01-0.44,0.01-0.67c0.2,0,0.4,0,0.6,0c0.01,0.34-0.02,0.69,0.01,1.03c0.03,0.17,0.29,0.18,0.35,0.02
		c0.03-0.35,0-0.7,0.01-1.05c0.2,0,0.4,0,0.6,0c0,0.22-0.01,0.45,0.01,0.67c0.04,0.17,0.32,0.17,0.36,0
		c0.03-0.22,0.01-0.45,0.01-0.67c0.2,0,0.4,0,0.6,0c0.02,0.38-0.03,0.78,0.05,1.15c0.11-0.01,0.29,0.03,0.32-0.13
		c0.03-0.34,0-0.69,0.01-1.03c0.2,0,0.4,0,0.61,0c0,0.22-0.02,0.44,0.01,0.66c0.02,0.18,0.33,0.18,0.35,0
		c0.03-0.22,0.01-0.44,0.01-0.66c0.2,0,0.4,0,0.6,0c0,0.14,0,0.28,0,0.42c0,0.04,0,0.11,0,0.15c0,0.16,0,0.32,0,0.48
		c0.09,0.13,0.24,0.19,0.35,0.06c0.07-0.35,0.02-0.71,0-1.06l0.02-0.04c0.22,0,0.43,0.01,0.65,0.01c0.01,0.22,0,0.45,0.03,0.67
		c0.06,0.17,0.35,0.15,0.36-0.03c0.02-0.22,0-0.44,0.02-0.66c0.59,0.02,1.18,0.01,1.77,0.01c0,0.49,0,0.97,0,1.46
		c-0.16,0-0.32,0-0.48,0c-0.12-0.3-0.41-0.55-0.75-0.51c-0.3,0.01-0.53,0.25-0.64,0.51c-0.51,0-1.01,0-1.52,0c-0.4-0.01-0.8,0-1.2,0
		c-3.71,0.01-7.42,0-11.12,0.01C9.2,18.33,9.21,17.84,9.2,17.35z"/>
</g>
</svg>
