<?xml version="1.0" encoding="utf-8"?>
<!-- Generator: Adobe Illustrator 25.3.0, SVG Export Plug-In . SVG Version: 6.00 Build 0)  -->
<svg version="1.1" id="Capa_1" xmlns="http://www.w3.org/2000/svg" xmlns:xlink="http://www.w3.org/1999/xlink" x="0px" y="0px"
	 width="250px" height="250px" viewBox="0 0 250 250" style="enable-background:new 0 0 250 250;" xml:space="preserve">
<style type="text/css">
	.st0{fill-rule:evenodd;clip-rule:evenodd;fill:url(#SVGID_1_);}
	.st1{fill-rule:evenodd;clip-rule:evenodd;fill:#FFFFFF;}
</style>
<g>
	
		<linearGradient id="SVGID_1_" gradientUnits="userSpaceOnUse" x1="140.1027" y1="205.0985" x2="140.1027" y2="27.0516" gradientTransform="matrix(1 5.134660e-03 5.134660e-03 -1 -6.5353 233.2083)">
		<stop  offset="0" style="stop-color:#00C13E"/>
		<stop  offset="1" style="stop-color:#008530"/>
	</linearGradient>
	<path class="st0" d="M134.7,28.8c-49.5-0.2-89.9,39.5-90.2,88.6c-0.1,19.5,6.2,37.5,16.8,52.3l-11.4,32.9l34.5-10.7
		c14.2,9.4,31.1,14.8,49.3,14.9c49.5,0.2,89.9-39.5,90.2-88.6C224.2,69.2,184.1,29.1,134.7,28.8L134.7,28.8z"/>
	<g>
		<path class="st1" d="M235.4,117.5c-0.3,55.7-46,100.6-102.1,100.3c-17.8,0-34.6-4.7-49-12.8l-56.4,17.6l18.6-54
			c-9.2-15.3-14.5-33.1-14.3-52.2c0.3-55.7,46-100.6,102.1-100.3C190.4,16.5,235.7,61.8,235.4,117.5L235.4,117.5z M134.2,32.3
			C87.1,32,48.6,69.9,48.3,116.6c-0.1,18.6,5.9,35.7,16,49.8l-10.9,31.5l32.8-10.3c13.5,8.9,29.6,14.2,47,14.3
			c47.1,0.2,85.7-37.6,85.9-84.4C219.5,70.7,181.2,32.5,134.2,32.3L134.2,32.3z M185,140.6c-0.6-1-2.2-1.7-4.7-2.9
			c-2.5-1.3-14.8-7.4-17-8.2c-2.3-0.8-3.9-1.3-5.6,1.2c-1.7,2.5-6.5,8-8,9.6c-1.4,1.7-2.9,1.9-5.4,0.5c-2.5-1.3-10.5-3.9-19.9-12.4
			c-7.4-6.7-12.4-14.7-13.8-17.2s-0.1-3.8,1.1-5c1.2-1.2,2.6-2.9,3.7-4.3c1.3-1.4,1.7-2.5,2.6-4.2c0.9-1.6,0.5-3-0.2-4.3
			c-0.6-1.2-5.5-13.5-7.6-18.5c-2.1-5-4.1-4.8-5.5-4.8c-1.4,0-4.1,0.4-4.1,0.4s-5,0.6-7.4,3.1c-2.4,2.4-8.8,8.4-8.8,20.6
			c-0.1,12.2,8.7,23.9,10.1,25.6c1.2,1.7,17.2,27.5,42.4,37.6c25.3,10.1,25.3,6.7,29.8,6.4c4.5-0.3,14.7-5.9,16.9-11.7
			C185.5,146.5,185.5,141.6,185,140.6L185,140.6z"/>
	</g>
</g>
</svg>
