<?xml version="1.0" encoding="utf-8"?>
<!-- Generator: Adobe Illustrator 25.3.1, SVG Export Plug-In . SVG Version: 6.00 Build 0)  -->
<svg version="1.1" id="Capa_1" xmlns="http://www.w3.org/2000/svg" xmlns:xlink="http://www.w3.org/1999/xlink" x="0px" y="0px"
	 width="27.8px" height="26.6px" viewBox="0 0 27.8 26.6" style="enable-background:new 0 0 27.8 26.6;" xml:space="preserve">
<g>
	<g>
		<path d="M2.4,3.5c1.3-0.3,2.6-0.2,4-0.2c5.7,0,11.4,0,17.1,0c0.7,0,1.3,0.1,2,0.2v15.1c-0.6,0.1-1-0.2-0.9-0.8c0-3.6,0-7.2,0-10.8
			c-7.1,0-14.2,0-21.3,0c0,5.4,0,10.7,0,16.1c7.1,0,14.2,0,21.3,0c0-1.3,0-2.5,0-3.8c0.2,0,0.6,0,0.9,0v4.5c-0.6,0.2-1.3,0.2-2,0.2
			c-5.3,0-10.5,0-15.8,0c-1.8,0-3.5,0.1-5.3-0.1V3.5z M3.3,4.2c0,0.7,0,1.4,0,2.2c4.5,0,9,0,13.4,0c0-0.7,0-1.4,0-2.2
			C12.2,4.2,7.7,4.2,3.3,4.2z M17.4,4.2c0,0.7,0,1.4,0,2.2c2.4,0,4.8,0,7.1,0c0-0.7,0-1.4,0-2.2C22.2,4.2,19.8,4.2,17.4,4.2z"/>
	</g>
	<path d="M18.6,5C19,4.4,19.8,5,19.4,5.5C19.1,6,18.3,5.4,18.6,5z"/>
	<path d="M20.7,5c0.5-0.2,0.7,0,0.6,0.5C20.8,5.7,20.6,5.5,20.7,5z"/>
	<path d="M22.7,5c0.5-0.2,0.7,0,0.6,0.5C22.7,5.7,22.5,5.5,22.7,5z"/>
	<path d="M9.9,12.4c0.3-0.3,1.1-0.2,0.8,0.3c-1.2,0.9-2.6,1.5-3.8,2.4c1.3,0.8,2.6,1.5,3.9,2.3l0,0.3L10.3,18
		c-1.5-0.9-3.1-1.7-4.6-2.7c0-0.1,0-0.3-0.1-0.4C7.1,14.1,8.5,13.3,9.9,12.4z"/>
	<path d="M15.4,12.3c0.2,0,0.5,0.1,0.7,0.2c-1.2,1.9-2.5,3.8-3.9,5.7l-0.4-0.4C12.9,15.8,14.2,14.1,15.4,12.3z"/>
	<path d="M16.9,12.5c0.7-0.5,1.2,0.1,1.8,0.4c1.1,0.7,2.3,1.3,3.4,2.1c0,0.5-0.6,0.6-0.9,0.9c-1.3,0.7-2.4,1.5-3.7,2.1l-0.4-0.2
		l0.1-0.4c1.2-0.9,2.6-1.5,3.9-2.3C19.7,14.2,18.1,13.6,16.9,12.5z"/>
</g>
</svg>
