<?xml version="1.0" encoding="utf-8"?>
<!-- Generator: Adobe Illustrator 25.3.1, SVG Export Plug-In . SVG Version: 6.00 Build 0)  -->
<svg version="1.1" id="Capa_1" xmlns="http://www.w3.org/2000/svg" xmlns:xlink="http://www.w3.org/1999/xlink" x="0px" y="0px"
	 width="406px" height="144px" viewBox="0 0 406 144" style="enable-background:new 0 0 406 144;" xml:space="preserve">
<style type="text/css">
	.st0{fill:#E5332A;}
	.st1{fill:#FFFFFF;}
	.st2{fill:#010101;}
</style>
<g>
	<g>
		<g>
			<path class="st0" d="M57.9,11.9c0.4,0.8,0.9,1.3,1.6,1.5C59.1,13,58.5,12.4,57.9,11.9z"/>
			<path class="st0" d="M58.5,11.7c0.7,1.6,1.8,3,3.7,3.4c0.6,0.7,1.3,1.1,2.3,1.3c0,0.2,0,0.4,0,0.6c0.4-0.2,0.8-0.3,1.1-0.5
				c0.1,0,0.2,0,0.3,0c0.1,0,0.3,0,0.4-0.1c0.1-0.1,0.3-0.2,0.4-0.3c0.6-0.2,1.1-0.4,1.6-0.6c0.1-0.1,0.3-0.2,0.4-0.3
				c5.3-1.8,11-2.7,16.7-2.8c-8.1-3.3-16.9-5.1-25.9-5.1c-2.4,0-4.8,0.2-7.2,0.4C54.3,8.7,56.5,10.2,58.5,11.7z"/>
			<path class="st0" d="M25.9,108.3c0.8,1.6,1.7,3.1,3,4.2c1-0.3,2.2-0.2,3.3,0.6c3,2.1,6,4,9.1,5.7c0.6-0.9,1.2-1.8,1.8-2.6
				c0.1-0.6,0-1.1-0.3-1.4c0.4-0.2,0.7-0.3,1-0.5c0-0.1-0.1-0.2-0.2-0.3c0.1-0.1,0.2-0.1,0.3-0.1c-0.4-2-0.8-4-1.1-6.1
				c-0.9-1.1-1.8-2.1-2.7-3.2c-0.4,0-0.8,0-1.2,0c0.2-0.2,0.4-0.5,0.6-0.7c0,0,0,0,0.1,0c-0.9-1.1-1.7-2.2-2.5-3.4
				c-3.2-7.1-5.5-14.8-5.6-22.8c-0.4,0-1.2,0.1-1.6,0.1c0.4-5.3,1.7-10.4,4.1-15c-0.3,0.2-0.5,0.4-0.8,0.5c-0.8,0.7-1.6,1.2-2.4,1.7
				c1.3-3.4,3.7-6,6-8.6c0.1-0.1,0.2-0.2,0.3-0.3c0-0.5,0-0.9,0-1.3c0.4-0.1,0.8-0.2,1.2-0.4c0-0.2,0-0.3,0-0.5
				c0.6-0.2,1.1-0.3,1.6-0.5c1.8-1.6,3.5-3.5,4.4-5.8c-0.2,0-0.4,0-0.6,0c0.6-1.3,1.3-2.5,2.1-3.8c0.3-0.4,0-0.8-0.3-0.8
				c0.5-1.9,0.8-3.8,1.2-5.6c0,0,0,0-0.1,0c0.1-0.2,0.1-0.7,0.1-1.1c-0.1-0.4-0.2-0.8-0.2-1.1c0-0.1-0.1-0.3-0.2-0.4
				c0.3-0.6,0.3-1.3-0.3-1.9c-3.1-4-5.3-10-4.8-15.4c0.2-1.8,0.7-3.7,1.2-5.3c0.4,0,0.7,0,1,0.1c0-0.8,0.5-1.5,1.2-1.7
				c0.7-0.8,1.5-1.3,2.4-1.8C22.7,15.7,4.5,40.6,4.5,70.3c0,15.5,5,29.7,13.3,40.7C17.7,106.6,23.9,103.7,25.9,108.3z"/>
		</g>
		<path class="st1" d="M39.9,45.1C40,45,40.2,45,40.3,45c0-0.1,0.1-0.1,0.1-0.2c-0.6,0.2-1.1,0.6-1.5,0.8c0,0.3,0,0.5,0.1,0.8
			C39.2,45.9,39.5,45.4,39.9,45.1z"/>
		<path class="st1" d="M134.9,67.6c-0.9-1.6-1.9-3.3-3-4.8c0.8,0,2.2-0.1,2.9-0.1c-2.4-2.6-5.8-4.6-7.5-7.9
			c-2.6-4.5-1.9-10-3.2-14.9c-0.3-1.3-0.8-2.4-1.3-3.7c0.1-0.1,0.3-0.2,0.4-0.3c-0.1-0.5,0-0.9,0.1-1.3c0-0.1,0-0.2,0.1-0.2
			c0.4-0.6,0.6-1.3,0.8-1.7v-0.1c0.1-0.1,0.1-0.3,0.2-0.4c0.2-0.3,0.4-0.5,0.6-0.8c0.4-0.5,0.8-0.9,1-1.2c0.3-0.5,0.6-0.9,0.8-1.3
			c0.1-0.8,0.3-1.6,0.3-2.4c0.3-0.7,0.5-1.3,0.6-2.1c0.3-2.6,0-5.6-1.5-7.8c-1-3.1-2.8-5.9-5.6-8c-0.1,0-0.2,0.1-0.3,0.1
			c0.1-0.1,0.1-0.1,0.2-0.2c-3.4-0.3-7.2-1.3-10.1,0.8c-1.3,0.8-2.7,1.7-4.3,1.5c-0.4,0.3-1.1,0.8-1.5,0.9c-0.9,1.4-1.9,3-2.8,4.4
			c-11.2-4.6-24-5.4-35.5-1.9c-0.6,0.5-1.3,0.8-2.2,0.8h-0.3c-0.3,0.1-0.6,0.2-0.9,0.3v-0.4c-0.8-0.1-1.3-0.5-1.8-0.9
			c-1.5-0.2-2.5-1.2-3-2.4C55.5,10.1,53.1,9,50.6,8c-2.6,0.8-5.8,1.3-7.7,3.3c-0.9,0.3-1.3,1-1.3,1.8C41.2,13,40.8,13,40.5,13
			c-0.8,1.7-1.2,3.5-1.3,5.4c-0.5,5.5,2,11.6,5.6,15.5c0.6,0.7,0.6,1.3,0.3,1.9c0.1,0.1,0.1,0.3,0.2,0.4c0.1,0.4,0.2,0.8,0.3,1.1
			c0.1,0.5,0,0.8-0.1,1.2h0.1c-0.5,1.9-0.9,3.9-1.3,5.6c0.4,0.1,0.7,0.5,0.3,0.8c-1,1.1-1.8,2.4-2.4,3.8h0.7
			c-1.3,2.7-3.6,4.6-5.8,6.5c-0.8,0.2-1.6,0.5-2.4,0.7V57c-0.1,0.1-0.3,0.2-0.4,0.3c-2.6,2.5-5.4,5.2-6.8,8.7
			c1.3-0.8,2.4-1.5,3.7-2.3c-3.3,4.6-4.8,9.9-5.2,15.2c0.5,0,1.3-0.1,1.8-0.1c0.2,8.1,2.8,15.9,6.5,23c0.9,1.2,1.9,2.3,2.9,3.4h-0.1
			c-0.2,0.2-0.4,0.5-0.6,0.7h1.3c1,1.1,2.1,2.1,3.2,3.2c0.4,2.2,0.9,4.2,1.3,6.5c-0.5,0.2-0.8,0.3-1.3,0.5c0.3,0.4,0.5,0.9,0.3,1.4
			c-0.2,0.3-0.5,0.6-0.7,0.8c2.9,1.7,5.9,3.3,8.9,4.7c1-0.5,2-0.6,3.2-0.2c-1.1,2.3-0.4,5.5,2.7,6.5c7.7,2.5,15.8,3.9,23.9,3.7
			c0.3,2,1.9,3.7,4.3,3.8c8.9,0.3,16.9-2.8,24.4-6.9c0.5-0.1,1-0.2,1.5-0.5c2.4-1.2,4.6-2.6,6.5-4.3c0.3-0.2,0.7-0.5,1-0.7
			c1-0.7,1.6-1.5,1.9-2.5c2.3-3,3.9-6.4,4.8-10.1c0.2-1,0.2-1.8-0.1-2.6c0.7-0.2,1.3-0.2,2-0.1c0.1-1,0.1-2.1,0.2-3.1
			c0.5-0.7,0.9-1.3,1.3-2.1c0.8-0.2,1.5-0.3,2.2-0.5c-0.2-0.2-0.5-0.3-0.7-0.5c-0.4,0-0.7-0.1-1-0.1c1.5-2.5,2.8-5.2,4.2-7.7
			c0.4,0.1,1.1,0.2,1.4,0.3c0.1-4.3,1.4-8.6,1.3-12.9c1-0.5,2-0.9,3.1-1.4C137.7,76.9,135.9,71.6,134.9,67.6z M77.3,123.9
			c-0.6,0-1.1-0.1-1.6-0.1c0.5-0.1,1.1-0.2,1.5-0.3C77.2,123.7,77.2,123.8,77.3,123.9z"/>
		<path d="M64.9,95.2L64.9,95.2c0-0.1,0-0.1-0.1-0.2C64.8,95.1,64.8,95.1,64.9,95.2z"/>
		<path d="M97.5,98.7c-2.2,5.1-6.1,9.4-11.7,10.4c-3.8,0.5-7.1-0.3-10.1-1.9c3.2,2.1,7,3.1,11.2,2.5c5.6-1,9.3-5.2,11.6-10.2
			C98,99.3,97.7,99.1,97.5,98.7z"/>
		<path d="M100.1,100.6c0-0.1,0.1-0.2,0.1-0.3c-0.3,0-0.7-0.1-0.9-0.3C99.5,100.3,99.8,100.5,100.1,100.6z"/>
		<path d="M69.3,103.6c0.4-0.3,0.7-0.6,0.9-0.9c-0.3-0.3-0.6-0.7-0.8-1c0,0,0,0,0,0.1c-0.4,0.5-0.8,0.8-1.2,1.2
			c2,2.9,4.6,5.5,7.9,7.2C73.4,108.5,71.1,106.2,69.3,103.6z"/>
		<path d="M80.8,101.4c2.6-0.4,5.6-0.5,7.4-2.6C85.6,98.9,82.3,98.8,80.8,101.4z"/>
		<path d="M78.6,94.7c5.2,0.1,10.4-0.5,15.3-1.5c1.3-0.3,0.7-1.7-0.7-1.4c-3.9,0.8-7.6,1.3-11.6,1.4c-2,0.1-4,0-6-0.2
			c-1.3-0.1-3.1,0.4-3.2-1.5c-0.3-1-2.2-0.5-1.9,0.6C71,95.6,76.1,94.4,78.6,94.7z"/>
		<path d="M89.7,26.4c-1.2-0.1-2.4-0.2-3.7-0.3C87.2,26.6,88.4,26.6,89.7,26.4z"/>
		<g>
			<path d="M115.6,29C115.7,29,115.7,29,115.6,29L115.6,29z"/>
			<path d="M136.1,67.4c-0.9-1.6-1.9-3.3-3-4.8c0.8,0,2.2-0.1,2.9-0.1c-2.4-2.7-5.8-4.6-7.4-8c-2.5-4.5-1.8-10-3.1-14.9
				c-0.3-1.3-0.8-2.4-1.3-3.7c0.1-0.1,0.3-0.2,0.4-0.3c-0.1-0.5,0-0.9,0.1-1.3c0-0.1,0-0.2,0.1-0.2c0.4-0.6,0.6-1.3,0.8-1.7v-0.1
				c0.1-0.1,0.1-0.3,0.2-0.4c0.2-0.3,0.4-0.5,0.6-0.8c0.4-0.5,0.8-0.9,1-1.2c0.3-0.5,0.6-0.9,0.8-1.3c0.2-0.8,0.3-1.6,0.4-2.4
				c0.3-0.7,0.5-1.3,0.6-2.1c0.3-2.5,0-5.6-1.4-7.8c-1-3.1-2.8-5.9-5.6-8c-0.1,0-0.2,0.1-0.3,0.1c0.1-0.1,0.1-0.1,0.2-0.1
				c-3.4-0.3-7.2-1.3-10.1,0.7c-1.3,0.8-2.7,1.7-4.3,1.5c-0.4,0.3-1.1,0.8-1.5,0.9c-0.9,1.4-1.9,3-2.8,4.4
				c-11.1-4.7-23.9-5.6-35.5-2.1c-0.6,0.5-1.3,0.8-2.2,0.8h-0.3c-0.3,0.1-0.6,0.2-0.9,0.3v-0.4c-0.8-0.2-1.3-0.5-1.8-0.9
				c-1.5-0.2-2.5-1.2-3-2.4c-2.2-1.5-4.5-2.6-7.1-3.7c-2.6,0.7-5.8,1.3-7.7,3.3c-0.9,0.3-1.3,1-1.3,1.7c-0.4-0.1-0.8-0.1-1.1-0.1
				c-0.8,1.7-1.3,3.5-1.4,5.4c-0.6,5.5,1.9,11.6,5.4,15.6c0.6,0.7,0.6,1.3,0.3,1.9c0.1,0.1,0.1,0.3,0.2,0.4c0.1,0.4,0.2,0.8,0.3,1.1
				c0.1,0.5,0,0.8-0.1,1.2h-0.1c-0.8,3.1-1.4,6.2-2.4,9.2c-1.2,3.2-3.7,5.4-6.3,7.4c-0.8,0.2-1.6,0.4-2.4,0.6v1.3
				c-0.1,0.1-0.3,0.2-0.4,0.3c-2.6,2.5-5.4,5.2-6.9,8.6c1.3-0.8,2.4-1.4,3.7-2.3c-2.9,4.5-4.3,9.8-4.9,15.1c0.5,0,1.3-0.1,1.8-0.1
				c0.1,8.1,2.6,15.9,6.3,23.1c0.9,1.2,1.9,2.3,2.9,3.4H38c-0.2,0.2-0.4,0.5-0.7,0.7h1.3c1,1.1,2.1,2.2,3.1,3.2
				c0.4,2.2,0.9,4.2,1.3,6.5c-0.5,0.2-0.8,0.3-1.3,0.5c0.3,0.4,0.5,0.9,0.3,1.4c-0.5,0.6-0.9,1.1-1.3,1.6c0.9,0.5,1.7,1,2.6,1.4
				c-0.1,1.4,0.5,3,1.9,4.1c11.2,8.2,24.8,12.5,38.6,12.7c12.3,0.1,27.1-2.9,36.4-11.5c4-3.8,7.8-10.1,6-15.8c0-0.1-0.1-0.3-0.1-0.4
				c0.3-0.2,0.6-0.4,0.8-0.5c0.1-0.9,0.1-1.8,0.2-2.7c0.5-0.7,0.9-1.3,1.3-2.1c0.8-0.2,1.5-0.3,2.2-0.5c-0.2-0.2-0.5-0.3-0.7-0.5
				c-0.4,0-0.7-0.1-1-0.1c1.5-2.5,2.9-5.2,4.3-7.7c0.4,0.1,1.1,0.2,1.4,0.3c0.1-4.3,1.5-8.6,1.4-12.9c1-0.5,2-0.9,3.1-1.3
				C139,76.8,137.2,71.5,136.1,67.4z M43.1,23.9c0,0.2-0.1,0.4-0.1,0.6c-0.2-0.8-0.3-1.4-0.3-2.1C43.1,22.8,43.2,23.3,43.1,23.9z
				 M46.5,46.2c0.8-3.2,1.4-6.5,2.3-9.6c0.4-0.4,0.8-0.7,1.1-1c-0.3-0.3-0.6-0.6-0.8-0.8c1.1-0.2,2.8-1.7,3.5-2.3
				c0.8-0.6,1.3-1.2,2-1.7c0.7-0.6,1.9-1.2,2.1-1.9c0.1-0.2,0.1-0.3,0.2-0.4c-0.1-0.3-0.7-0.7-1-0.8c0,0,0,0.1,0.1,0.1h-0.4
				c-0.8-0.4-1.4-0.9-2.1-1.5c0.4,0.7,0.8,1.2,1.3,1.6c-0.3,0-0.6,0-0.8,0.1c-1.1-0.7-2-1.3-2.7-2.3c-0.5-0.6-0.8-1.2-1.3-1.6
				c0.2,1.3,1,2.6,1.6,3.9c-3.1-2.2-4.4-5.9-5.1-9.4c-0.2,1.6,0.2,3.2,0.4,4.8c-1.2-2.3-1.3-5-1.1-7.5c-0.1-0.2-0.2-0.5-0.2-0.7
				c-0.4,0.4-0.6,0.8-0.8,1.3c0-0.8,0.3-1.4,0.7-2.1c0-0.1,0-0.1-0.1-0.2c0.5-1,1.1-1.9,1.7-2.7h-0.7c-0.1-0.1-0.1-0.1-0.2-0.1
				c1.3-0.9,2.9-1.6,4.5-1.5c4.1-0.7,7,2.9,10,5.2c0.1,0.5,0.4,1.4,0.5,2c0.5,0,1.3,0.1,1.8,0.1c0.2,0.5,0.4,0.8,0.5,1.3
				c0.1,0,0.1,0,0.2,0c0.6,0,0.9,0.1,1.3,0.4c0.1-0.7,0.1-1.2,0.2-1.8c7.3-2.8,15.4-3.2,23.2-1.8c-0.1,0-0.1,0.1-0.2,0.1
				c0.6,0,1.1,0,1.7,0.1c1.2,0.2,2.2,0.7,3,1.3c0.2-0.2,0.3-0.4,0.5-0.7c3.2,0.2,6.4,0.8,9.1,2.4c0,0.6,0.1,1.1,0.1,1.6
				c0.6,0,1,0.1,1.3,0.4c0.6-1.5,1.1-3.2,1.4-4.7c0.1,0.2,0.3,0.5,0.5,0.8c0.2-0.2,0.4-0.4,0.7-0.5c0.4-0.2,0.8-0.4,1.1-0.6
				c2.5-3.4,8.1-5,12-3.6c0.5-0.2,0.9-0.2,1.4,0.2c1.6,0.9,2.8,2.1,3.6,3.6c-0.1-0.1-0.2-0.2-0.3-0.3c0,0.3-0.1,0.5-0.1,0.8
				c0.8,2.4,0.9,5.2,0,7.6c0-1.6,0.1-3.3-0.4-4.8c-0.2,3.6-0.9,7.5-3.7,10.1c0.5-1.3,1-2.6,1-4c-0.4,0.6-0.7,1.3-1,1.8
				c-0.7,1-1.4,1.9-2.4,2.6c-0.3-0.1-0.6,0-0.8,0c0.5-0.6,0.8-1.2,1-1.8c-0.6,0.8-1.1,1.3-1.8,1.8H116l0,0c-0.4,0.3-0.8,0.7-0.9,1
				c0,0.1,0.1,0.2,0.2,0.4c0.4,0.8,1.7,1.2,2.4,1.6c0.8,0.5,1.4,1,2.3,1.4c0.5,0.3,1.3,0.8,2.3,1.3c-0.1,0.3-0.2,0.6-0.4,0.8
				c0.2,0.4,0.4,0.7,0.7,1c0.3,0.4,0.5,0.8,0.5,1.2c1.6,4.5,1.7,9.9,3.1,14.5c-0.1-0.1-0.2-0.1-0.3-0.1c-2.4-0.3-4.5-1-6.8-1.3
				c-1.8-0.3-3.6-0.4-5.4-0.7c-4.2-0.5-8.6,0.3-12.6,1.3c-4.1,0.9-8.3,2.1-12.5,2.7c-0.5,0.1-0.9,0.1-1.3,0.2
				C85,54.5,75.4,54,73.4,53.7c-3.2-0.4-6.3-1.2-9.3-1.4c-3.1-0.3-6.2-0.7-9.2-0.7c-2.4,0-4.8,0.3-7.2,0.8c-1.7,0.4-3.4,0.8-5.1,1.2
				C43.9,51.5,45.6,49,46.5,46.2z M95.8,67.8c4.5,0.5,6.9,2.3,11.1-1.1c-0.3,1.4-1.2,2.5-1.6,3.9c1.6-1.2,2.5-3.1,3.8-4.7
				c-0.3,2.2-1.8,3.9-2.9,5.6c1.7-0.9,2.6-2.6,3.9-4c-0.3,1.5-1.3,2.7-2.2,4c3.7-1.9,4.8-5.8,6.2-9.5c0.9-2.7,4-1.7,5.8-0.6
				c-4.3-10.4-16-4.1-23.3-1.5c-2,0.8-4.1,1.3-6.3,1.3c-0.1-1.2,0.2-2.4,0.8-3.4c0.8-1.3,2.1-2.2,3.4-2.8c1.7-0.9,3.7-1.4,5.6-1.9
				c0.8-0.2,1.6-0.4,2.4-0.5c3.6-0.5,7.1-0.3,10.7,0c1.9,0.2,3.9,0.5,5.6,1.3c1.2,0.6,2.3,1.4,2.8,2.7c0.5,1.1,0.5,2.3,0.6,3.5
				c-0.1,3.3-0.8,6.5-1.7,9.7c-0.5,1.4-1.1,2.8-2.1,3.9c-1,1.3-2.4,2.2-3.9,2.7c-0.8,0.4-1.7,0.6-2.5,0.8c-3.6,0.8-7.4,0.8-10.8-0.6
				c-1.1-0.5-2.2-1-3.2-1.7c-0.2-0.5-0.4-0.9-0.6-1.4c-1-1.7-2.4-3.3-4.1-4.4c-0.3-0.5-0.5-0.9-0.8-1.3c0.1,0,0.2,0,0.3,0.1
				c0.3,0.1,0.6,0.2,0.8,0.3c2,0.4,3.9,1.3,5.7,1.9C98.1,68.9,96.8,68.4,95.8,67.8z M96.3,64c0.5-0.8,1.3-1.1,2.1-1.4
				c2.7-1.1,5.6-2.1,8.4-3.1c0.8-0.3,1.5-0.6,2.3-0.4c0.8,0.1,0.7,1.2,0.3,1.6c-1.1,1.8-3,3.1-4.9,3.9c-2.2,0.8-4.6,1.2-6.9,0.7
				C97.1,64.9,96.1,64.6,96.3,64z M89.9,67.5c-3.7-1.5-7.8-2.2-11.7-1.6c-1.2,0.3-2.4,0.7-3.5,1.1c0.2-0.8,0.4-1.7,0.7-2.5
				c1-1,3.3-3,6-2.9c0,0,4.2,0.8,6.7,1.5c0.5,0.8,0.8,1.6,1.1,2.4C89.5,66.1,89.6,66.8,89.9,67.5z M43,57.6c0.7-0.8,1.6-1.3,2.5-1.8
				c1.4-0.7,3-1,4.6-1.3c1.5-0.3,3.1-0.5,4.6-0.7c3.3-0.4,6.6-0.5,9.8,0.2c1.9,0.4,3.9,0.9,5.6,1.8c1.2,0.7,2.3,1.5,2.8,2.8
				c0.4,0.7,0.5,1.4,0.6,2.2c-2.2,0.1-4.5-0.3-6.7-0.7c-8-1.5-21-6-24.1,5c1.7-1.3,4.7-2.8,6.1-0.3c1.9,3.6,3.8,7.2,7.8,8.6
				c-1-1.2-2.4-2.2-2.8-3.8c1.5,1.2,2.7,2.8,4.6,3.5c-1.4-1.6-3.2-3-3.9-5.2c1.5,1.3,2.7,3.2,4.6,4c-0.8-1.2-1.8-2.3-2.3-3.7
				c4.8,2.7,7.1,0.6,11.7-0.6c-1.1,0.9-2.4,1.5-3.1,2.7c1.9-1,3.7-2.1,5.6-2.7c0.3-0.2,0.6-0.3,0.8-0.4c-0.1,0.3-0.2,0.6-0.4,0.8
				c0,0.1-0.1,0.1-0.1,0.2c-1.4,1-2.8,2.3-3.9,3.9c-1.1,1.4-1.9,2.9-2.6,4.4c-2.4,1.3-5.2,2.1-7.9,2.2c-2,0.1-4-0.1-5.9-0.6
				c-2.4-0.6-4.5-2.1-5.9-4c-0.8-1.2-1.3-2.6-1.8-4c-1.1-3.1-1.8-6.4-1.8-9.6C41.7,59.8,42.1,58.5,43,57.6z M67.5,64.4
				c0.1,0.7-0.8,1-1.3,1.3c-2.3,0.9-4.9,0.9-7.2,0.4c-2.1-0.5-4.2-1.4-5.6-3.1c-0.5-0.5-0.8-1.4,0.1-1.6c0.8-0.3,1.6-0.1,2.4,0.1
				c3.1,0.7,6.1,1.3,9.1,1.9C65.9,63.5,67,63.6,67.5,64.4z M69.4,72.9c-0.6,0.8-1.3,1.6-2.1,2.4C67.9,74.4,68.7,73.6,69.4,72.9z
				 M132.4,71.9c1.4,5.3,2.4,10.8,0.8,16.1c-1.4,3.9-2,8.3-4.7,11.6c-0.7,1-1.3,2-2,3c-1.7-0.1-3.5-0.2-5.1-0.1
				c-3.6,3.3-7.8,5.8-11.8,8.6c0.1,0.2,0,0.4,0,0.6c-1,2-2.4,3.8-4.1,5.3c-0.8,0.2-1.3,0.3-2.1,0.4c-0.1,0.4-0.3,0.9-0.4,1.3h0.6
				c-1.3,1-2.5,1.9-3.9,2.9c-1.3,0.5-2.5,0.9-3.8,1.3c-0.7,0.2-1.4,0.4-2.2,0.5c-0.2,0-0.5-0.1-0.7-0.1c0,0.1,0,0.2,0,0.3v6.5
				c0,2.5-2.1,4.4-4.5,4.5c-2.4,0.1-4.5-2.1-4.5-4.5v-6.6c0-0.3,0-0.6,0.1-0.9c-2.4,0-4.8,0.1-7.1,0.5c-0.4-0.1-0.8-0.1-1.2-0.2
				c-2.8-1.3-5.4-2.9-8.1-4.7c-0.4,0-0.7-0.4-0.8-0.7c-2.2-1.6-4.2-3.5-5.6-5.8c-0.1-0.2-0.2-0.4-0.1-0.7c-4.9-2.5-9.9-4.9-14.3-8.3
				c-2,0.2-4,0.6-6,1c-1.3-2.1-2.5-4.4-4-6.4c-0.5-0.2-1.3-0.7-1.6-0.9c-2.2-5.7-4.6-11.7-4.7-17.9c-0.1-4.4,2.1-8.5,3.7-12.4
				c-0.5-0.3-1.3-0.9-1.7-1.2c1.3-1.4,2.6-3,3.9-4.5c1,1.2,2.4,2.1,2.8,3.7c1.1,3.9,2.6,7.8,4.4,11.5c0.9,1.7,2.5,2.9,4.2,3.8
				c3.3,1.4,7,1.9,10.5,1.6c1.3-0.1,2.7-0.3,4-0.7c0.5-0.1,0.9-0.3,1.3-0.4c-0.7,2.1-0.9,4.1-1,6.3c0.3-2.2,0.9-4.4,1.8-6.5
				c0.9-0.4,1.7-0.9,2.5-1.4c1.3-0.9,2.4-2.1,3.4-3.4c-0.2,0.8-0.2,1.5,0.1,2.4c2.9,4.9,7.4,9.6,11.7,9.3c5.1-0.4,7.1-7.2,9.8-11.7
				c-1.7-1.6-3.3-3.9-5.8-4c-4,2.2-6.7,0.8-10.9,1c-1.1-0.3-2.3,0.1-3.3,0.8c0.6-0.9,1-1.8,1.4-2.7c1.6-0.8,3.3-1.3,4.9-1.4
				c4.4-1,9,0,12.7,2c1.1,2.1,2.5,4,4.3,5.6c0.8,0.8,1.8,1.3,2.8,1.8c0.5,1.1,0.8,2.2,0.8,3.3c0.6,2.3,0.6,4.6,0.2,7
				c0,0.3-0.1,0.6-0.1,0.8l1.1-0.2l0.4-0.1c0.5-3.9,0.1-7.5-1.8-10.5c0.2,0.1,0.4,0.2,0.6,0.3c2,0.8,4,1.2,6.3,1.3
				c3.6,0.2,7.2-0.5,10.4-2.2c2.2-1.3,4-3.1,5.3-5.4c0.8-1.7,1.3-3.6,1.7-5.4c0.4-1.8,0.8-3.7,1.3-5.5c0.4-1.2,0.8-2.4,1.8-3.2
				c0.3-0.3,0.8-0.4,0.8-0.8c0.2-0.7,0-1.3,0-1.9c-0.1-0.3-0.1-0.6,0-0.8c0.9,2.2,2.4,4.1,4.4,5.7c-0.8,0.3-1.7,0.5-2.5,0.8
				c3.2,1.6,4.7,4.9,5.5,8.3c0.1-0.1,0.1-0.1,0.2-0.2c0.9,2.3,1.9,5.8,2,7.7C135.6,74.7,135,72.3,132.4,71.9z"/>
		</g>
		<path d="M43.2,25L43.2,25c0.1,0,0.1,0,0.2,0C43.2,25,43.2,25,43.2,25z"/>
		<path class="st2" d="M50.4,48.8c1.1,0.4,2.4-0.1,3.5,0.5c5.6,2.4,11.7,2.3,17.5,2.2c1.5-5.6-2.9-4-4.7-4.6
			c-5.4-0.4-10.5-2.4-15.6-4.1c-0.9-0.5-1.5,0.6-2.3,1C48.7,45.5,49.3,47.3,50.4,48.8z"/>
		<path class="st2" d="M96.3,51.9c1.2,0,2.4-0.6,3.7-0.4c6.1,0.7,12.2-0.8,18.2-2c0.8-4.4-3.6-2.4-5.6-2.4c-5.6,0.8-11,0.5-16.6,0.1
			c-1-0.1-1.5,0.8-2.2,1.2C94.2,49.8,95.1,51.1,96.3,51.9z"/>
	</g>
	<g>
		<path d="M180.9,90.9c-3.1,10.3-6.2,21.8-8.7,32c0,1.1-0.6,1.3-1.5,1.2c-0.5,0-1-0.1-1.7-0.3c-0.6-0.2-1.3-0.3-2.1-0.5
			c-1.5-0.4-2.8-1-3.6-1.6c-0.9-0.6-1.1-1.6-0.8-3.1c0.4-3.4,1-6.8,1.7-10.6c-3.2,0.5-6.1,0.8-9.3,1.3c-1.1,4.6-1.7,9.2-2.5,13.5
			c-0.4,1.5-0.9,1.5-2.7,1.2c-1.7-0.5-4-0.9-5.5-1.8c-0.9-0.4-1.5-0.9-1.8-1.4c-0.4-0.5-0.4-1.3-0.2-2.2c0.6-2.7,1.1-5.6,1.5-9.1
			c1.5-10.4,2.7-22.2,4.1-32.5c0.6-2.5,1.5-2.7,3.8-1.8c2.9,0.8,6.5,2.4,8.8,4.3c1.1,1,0.9,1.9,0.6,3.3c-1.4,5.1-2.7,11.2-4,17
			c3.1-0.4,6.1-0.5,9.1-0.8c1.7-7.4,3.5-15.7,5.4-22.6c0.3-1.2,0.8-1.9,1.4-2c1.7-0.4,4.3,0.7,6,1.5c1.6,0.8,4.4,2.1,5.1,3.7
			c0.2,0.5,0.2,1.3-0.1,2.2C182.8,84.3,181.9,87.4,180.9,90.9z"/>
	</g>
	<g>
		<path d="M194,113.6c-2.4,0.3-4.5,0.7-6.2,1.2c-1.2,2.4-2,4.4-3.1,6.6c-0.3,0.5-0.6,0.8-0.9,0.9c-0.7,0.2-2.1-0.4-3-0.8
			c-0.5-0.2-1-0.4-1.5-0.7c-0.4-0.3-0.7-0.5-1-0.6c-0.6-0.4-0.9-0.9-0.9-1.6c0-0.4,0.1-0.9,0.3-1.6c0.8-2.2,1.7-4.8,3-7.8
			c3.7-8.7,8.1-18.6,12.6-26.7c1.2-2,2.6-3,5.2-2.8c1.3,0.1,2.5,0.2,3.5,0.3c1.8,0.2,3.5,0.6,5.1,1.1c1.3,0.4,3.5,0.7,4.1,2
			c0.3,0.6,0.4,1.3,0.3,2.2c-0.7,8.4-0.8,17.9-0.9,26.6c0,3.2,0,6.1,0,8.9c0,0.6-0.1,1-0.4,1.2c-0.2,0.2-0.8,0.3-1.6,0.3
			c-1.6,0-3,0-4.5-0.5c-1.6-0.5-1.9-1-2.2-2.8c-0.3-2.1-0.4-4.3-0.6-6.6C198.7,112.9,196.3,113.2,194,113.6z M196.3,105.3
			c1.4-0.2,2.9-0.3,4.4-0.4c-0.1-5.2-0.2-10.4-0.1-15.5c-2.8,5.1-5.9,10.9-8.6,16.5C193.4,105.6,194.9,105.4,196.3,105.3z"/>
	</g>
	<g>
		<path d="M222.9,116.1c-0.4,1.7-0.7,3.6-1.1,5.2c-0.2,0.5-0.4,0.8-0.6,1c-0.3,0.2-0.8,0.2-1.5,0c-0.8-0.2-1.6-0.4-2.2-0.5
			c-1.2-0.2-2.7-0.8-3.2-1.9c-0.2-0.5-0.3-1.1-0.2-1.9c0.2-2,0.4-4.8,0.7-7.3c0.5-5.2,1.1-10.9,2-16.2c0.5-2.9,1-5.7,1.9-8.2
			c0.4-0.9,0.8-1.4,1.2-1.7c1.9-0.9,4.1-1.7,6.2-2.7c4-1.5,8.3-2.6,12.3-1.9c1.8,0.3,3.5,1.1,4.9,2.6c2.5,2.7,4.3,5.2,5.2,9
			c1.9,8-8.7,13.5-15.2,16.5c3.2,3.5,6.8,7.4,10.4,10.3c0.6,0.5,0.9,1,0.8,1.3c-0.1,0.7-1.7,1.7-2.2,1.8c-1.1,0.2-2.5,0.6-3.8,0.4
			c-1.9-0.2-3.8-1.6-5.5-3.1c-3-2.5-6.2-5.4-8.8-8.5C223.7,112.4,223.3,114.2,222.9,116.1z M227.8,96.2c-0.5,1.8-1,3.8-1.6,5.9
			c3.9-1.2,7.5-3.4,10.1-5.9c1.5-1.4,3.4-3.7,3-5.4c-0.7-1.7-4.5-1.4-6.4-1c-1.1,0.2-2.2,0.6-3.6,1.2
			C228.7,92.6,228.2,94.4,227.8,96.2z"/>
	</g>
	<g>
		<path d="M270.6,88.5c-1.4,0.1-3,0.3-4.5,0.4c-2.7,10.6-5.5,22-7.6,32.6c-0.2,2-3.4,0.6-4.7,0.3c-2-0.6-4.6-1.5-4-4.1
			c0.7-8.6,2.6-18.7,4.4-27.3c-1.5,0.3-3.5,0.4-4.8,0.8c-1.7,0.4-2.5,0.2-3.7-1.1c-1.2-1.1-2.5-3.7-3.2-5.1c-0.7-1.4-0.4-1.6,0.9-2
			c8.6-1.6,18.6-2.6,27.3-3c1.6,0.1,2.4,0.1,3.3,1.1c1.2,1.4,2,3.2,2.6,4.9c0.2,0.7,0.2,1.2,0,1.5c-0.2,0.3-0.7,0.4-1.7,0.5
			C273.3,88.2,272,88.4,270.6,88.5z"/>
	</g>
	<g>
		<g>
			<path d="M146.3,23c5.4-1.8,11.9-2.7,17.5-0.6c6,2.1,10.4,8.1,11.1,14.6c1,10.3-5.6,20-14.5,25.1c-2.7,1.5-5.7,2.9-9.1,3.8
				c-1.7,0.6-3.5,0.4-5.4-0.4c-1.9-1-3.1-1.7-4.9-3.1c-1-0.9-2-1.7-2.1-3.3c-0.1-0.5,0-1.2,0-2l3-32.1
				C143.1,24.3,144.6,23.6,146.3,23z M155.3,54c3.4-2.8,6-6.2,7.4-10.1c1.1-3.1,1.6-7.2,0.3-9.6c-1.6-2.9-5.2-3.6-8.8-2.4
				c-2.4,8.8-4.1,17.3-5.7,26.1C151.3,56.9,153.5,55.5,155.3,54z"/>
		</g>
		<g>
			<path d="M210.3,28.1c5.2,9.8-1.4,33.4-13.4,35.9c-2.9,0.6-6.5,0.2-9.7-0.4c-3.5-0.7-7.2-2.5-9-5.4c-5-9.2-2.1-21.5,4.1-29.5
				c1.4-1.8,3.1-3.5,4.9-4.9c2.5-1.7,6.4-2.9,9.5-2.4C201.9,22.1,207.8,23.8,210.3,28.1z M196.1,30.7c-4.2,3.8-7.8,11.8-8.5,17.4
				c-0.4,2.9-0.7,9.1,2.5,10.1c1.9,0.5,3.6-1.2,4.9-2.9c3-4,4.6-9.1,5.4-14.2c0.4-2.8,1.2-10.4-1.6-11.3
				C197.9,29.7,197.1,29.9,196.1,30.7z"/>
		</g>
		<g>
			<path d="M239.6,36.3c1-4,2.1-7.6,3.2-10.9c0.3-0.9,0.7-1.4,1.3-1.6s1.4-0.2,2.7,0c1,0.2,1.8,0.3,2.8,0.7c1,0.4,1.8,0.8,3,1.4
				c1.9,1,2.1,1.9,1.5,3.8c-3.6,10.3-7.1,22.6-9.9,33.1c-0.2,1.2-1.3,1.6-3.3,1.2c-1.6-0.3-3.4-0.7-5.1-1.2
				c-1.6-0.5-2.8-1.4-3.4-2.8c-0.5-0.9-1-2-1.5-3.4c-1.7-4.3-3.4-9-4.7-13.5c-1.1,5.3-2.4,10.9-3.5,16.2c-0.3,1.5-0.5,2.9-0.7,3.9
				c-0.1,0.5-0.4,0.8-0.7,1c-0.3,0.1-0.9,0.1-1.9-0.1c-1.7-0.4-3.6-0.6-5.2-1.5c-0.8-0.3-1.3-0.7-1.6-1.2c-0.3-0.4-0.4-1.1-0.3-1.8
				c0.6-6.8,1.8-14.8,3.1-21.9c0.7-4,1.5-8.4,2.5-12c0.2-0.9,0.7-1.5,1.3-1.7c0.6-0.2,1.5-0.2,2.7,0c1.3,0.3,2.7,0.7,3.9,1
				c1.2,0.3,2.6,0.8,4,1.3c1.1,0.4,1.9,0.9,2.4,1.5c0.5,0.6,0.8,1.5,1,2.7c1.1,5.6,2.6,12.3,4,18C237.6,44.3,238.6,40.3,239.6,36.3z
				"/>
		</g>
		<g>
			<path d="M268.2,55.7c-2.7,0.3-5.1,0.7-7.2,1.2c-0.7,1.2-1.3,2.4-1.9,3.4c-0.5,1-1,2-1.5,3.1c-0.3,0.5-0.6,0.8-1,0.9
				c-0.8,0.2-2.4-0.4-3.4-0.8c-0.5-0.2-1.1-0.4-1.7-0.7c-0.4-0.2-0.8-0.4-1.1-0.6c-0.6-0.4-1-0.8-1-1.6c0-0.4,0.1-0.9,0.3-1.5
				c3.4-8.2,8.4-17.6,12.8-25.6c1.6-3,3.3-5.6,4.8-8c1.4-2,3.1-2.9,5.9-2.7c2.6,0.1,4.8,0.4,7.2,0.8c1.8,0.3,3.4,0.8,5.1,1.2
				c1.1,0.3,1.8,0.8,2.1,1.3c0.3,0.5,0.4,1.3,0.3,2.1c-0.2,2.2-0.4,4.7-0.5,7.6c-0.4,8.6-0.5,18.4-0.4,27c0,0.5-0.1,0.9-0.4,1.1
				c-0.3,0.2-0.9,0.3-1.8,0.3c-1.8,0-3.3,0-5-0.5c-1.7-0.5-2.2-0.8-2.6-2.7c-0.3-2-0.5-4.2-0.7-6.4
				C273.6,55.1,270.9,55.4,268.2,55.7z M270.9,47.7c1.6-0.2,3.3-0.3,4.9-0.4c-0.1-5-0.3-10.1-0.1-15.1c-3.2,4.9-6.6,10.6-9.7,16.1
				C267.6,48.1,269.2,47.9,270.9,47.7z"/>
		</g>
		<g>
			<path d="M324.7,34.7c-4.1,5.9-9.2,12.4-13.8,18c-1.1,3.9-1.9,7.3-2.9,11c-0.2,0.6-0.4,1-0.7,1.1c-0.3,0.1-0.9,0.1-1.9-0.1
				c-1.6-0.4-3.7-0.9-5.3-1.5c-1.5-0.9-1.9-1.3-1.8-3.2c0.6-3.3,0.9-6.8,1.6-10.4c-3.2-7.8-6.8-16.2-9.7-23.9
				c-0.8-1.7-0.4-2,1.4-2.4c2.2-0.1,4.2-0.4,6.4,0.1c1.1,0.2,1.8,0.6,2.4,1c0.5,0.5,1,1.2,1.6,2.2c1.9,4.3,3.7,9.2,5.4,14
				c4-5.4,7.7-11,11.3-16.8c1-2.7,4.8-0.5,6.3,0.6c1.2,1,3,1.9,3.2,3.5C328.3,29.6,326.1,32.8,324.7,34.7z"/>
		</g>
		<g>
			<path d="M336.3,58.2c-0.4,1.7-0.8,3.5-1.2,5.1c-0.5,1.2-1,1.2-2.5,1c-1.7-0.4-3.2-0.4-4.8-1.1c-1.4-0.7-1.8-1.5-1.6-3.2
				c0.1-0.6,0.2-1.6,0.3-2.9c0.7-6.3,1.5-13.5,2.8-19.9c0.5-2.6,1.5-8.5,3.6-9.6c7.6-2.9,19.4-7.8,26.5-2c1.2,1.2,2.5,2.5,3.5,3.8
				c1.9,2.5,3.8,7.4,1.8,10.1c-3.5,5.4-10.1,8.3-16.7,10.9c3.6,3.4,7.8,7.2,11.9,10c0.7,0.5,1,0.9,1,1.2c-0.2,0.7-1.9,1.6-2.6,1.7
				c-1.3,0.2-2.8,0.6-4.3,0.4c-2-0.2-4.2-1.5-6.2-3c-3.4-2.4-7.1-5.2-10-8.3C337.2,54.6,336.7,56.5,336.3,58.2z M341.8,38.9
				c-0.5,1.8-1.1,3.7-1.8,5.7c4.3-1.2,8.4-3.3,11.5-5.8c1.3-1,2.2-2,2.9-3.1c1.6-2.7-0.1-3.5-3.3-3.6c-2.5,0-5,0.5-7.5,1.5
				C342.9,35.4,342.3,37,341.8,38.9z"/>
		</g>
		<g>
			<path d="M374.7,25.4c4-0.8,8.2-1.4,12.4-1.8c2.1-0.2,4.4-0.4,6.5-0.4c2,0,3.4,0.6,4,2c0.5,0.7,0.8,1.4,1,2c0.2,0.9,1,2.9,0.3,3.6
				c-0.3,0.3-0.9,0.5-2,0.6c-4.6,0.5-9.2,0.8-14,1.4c-1.1,3-1.9,5.9-3.1,9.1c2.2-0.3,4.4-0.4,6.7-0.4c1,0,1.8,0,2.4,0.2
				c1.2,0.4,2,1.9,2.5,3.1c0.2,0.6,0.4,1.2,0.6,1.8c0.3,0.7,0.3,1.2,0.1,1.4c-0.2,0.2-0.8,0.5-1.8,0.6c-4.3,0.7-9,1.2-13.2,2
				c-0.6,1.9-1,3.6-1.6,5.4c3.5-0.5,6.2-0.8,9.8-1c1-0.1,1.8,0,2.4,0.2c1.8,0.6,2.4,3.1,3.3,4.5c0.4,1.5-0.1,1.5-1.7,1.8
				c-4.5,0.7-9.5,1.6-13.9,2.2c-1.4,0.3-2.6,0.4-3.3,0.2c-0.7-0.2-1.3-0.4-1.9-0.7c-1.4-0.8-2.4-1.4-3.8-2.5c-1.2-0.9-2-2-1.8-3.7
				l5.1-31C371.1,26.1,372.8,25.8,374.7,25.4z"/>
		</g>
	</g>
	<path d="M327.3,88.3c1.1,0,1.6-0.7,1.8-1.3c0.9-2.4,1-4.8,1.9-7.2c0.8,1,1.2,2.1,1.8,3.3s0.3,2.5,1.8,3.4c1.6,0.9,4.2-0.2,3.7-1.5
		c-0.1-3.6,1-7.2,2.5-10.6c0.3-0.9,0.6-1.8,0.2-2.8c-0.2-0.4-0.8-0.8-1.6-0.8c-1.1,0.3-1.8,1.1-1.9,1.8c-0.8,2.8-1.6,5.5-2.2,8.4
		c-0.8-0.9-1.1-1.8-1.5-2.9c-0.4-1.2-0.2-2.5-0.7-3.7c-0.8-0.8-2.7-1-3.7-0.3c-1.6,0.7-1.1,2.1-1.3,3.2c-0.6,3.1-2.1,6.1-2.1,9.3
		C326,87.2,326.1,88.2,327.3,88.3z"/>
	<path d="M361.9,88.3c0.3,0.3,1,0.3,1.3,0.1c0.8-0.2,0.9-0.8,1.2-1.3c1-2.2,1.3-4.6,2.3-6.8c0.7,1,1.1,2.1,1.6,3.3
		c0.4,1.1,0.2,2.6,1.6,3.5c1.2,0.7,3.3,0.1,3.8-0.8c0.1-3.8,1.5-7.5,3.2-11c0.4-0.9,0.8-1.9,0.6-2.9c-0.2-0.4-0.9-1-1.7-0.7
		c-0.9,0.3-1.6,0.8-1.7,1.4c-1.1,2.9-1.9,5.7-3,8.5c-0.7-0.9-1-1.8-1.2-2.9c-0.3-1.2,0-2.5-0.3-3.7c-0.7-0.8-2.6-1.1-3.6-0.4
		c-1.7,0.6-1.3,2-1.6,3.2c-0.8,3-2.5,5.9-2.8,9C361.3,87.1,361.4,87.7,361.9,88.3z"/>
	<path d="M300,77.8c-0.7,3.1-1.5,6-1.6,9.1c0,0.5,0.3,1.1,1.2,1.2c1-0.1,1.8-0.6,2-1.3c0.6-1.6,0.9-3.3,1.3-5
		c2.8,0.7,5.6,1.4,8.5,1.8c-0.7,1.3-1.7,2.7-1.8,4.1c0.1,0.4,0.1,0.9,0.7,1.2c0.9-0.1,1.6-0.6,2.1-1.1c1.3-1.5,2-3.3,3.1-4.9
		c1.6-0.5,3.3-0.9,5-1.2c0.1,1.4-0.2,2.9,0.8,4.2c0.4,0.6,1.8,1.3,2.5,0.5c0.8-1,0.4-2.2,0.3-3.4c-0.1-1.7-0.2-3.5-0.3-5.2
		c-0.1-1.8,0.8-3.6,0.3-5.4c0-0.4-0.6-0.8-1.2-0.7c-1.3,0.2-2.6,0.6-3.8,1c-1.5,0.5-2.1,1.6-2.8,2.6c-1.3,2-2.6,4.2-3.8,6.3
		c-2-0.7-4.2-1-6.3-1.6c2.3-0.8,4.6-1.9,6-3.5c1-1,1.6-2.4,1.2-3.6c-0.2-0.8-1.5-1.5-2.7-1.4c-2.8,0.1-5.5,0.6-7.8,1.4
		c-1.6,0.6-3.2,1.4-3.5,2.8C299.8,76.6,300.1,77.2,300,77.8z M320.6,75.3c0,1.4-0.1,2.9,0,4.3c-1.1,0.2-2.2,0.3-3.3,0.6
		C318.1,78.5,318.8,76.7,320.6,75.3z M303.8,75.7c2.1-0.8,4.4-1.5,6.7-1.6c-1.1,2.1-3.9,3.7-7,4.5C303.6,77.6,304.3,76.7,303.8,75.7
		z"/>
	<path d="M343,77.3c-0.7,1.5-1.3,3.2-1.7,4.8c-0.3,1.5-1.2,3-1.9,4.5c-0.3,0.5,0,1.5,1.1,1.5c1.2,0.1,2-0.5,2.9-1
		c3-1.6,5.9-3.4,8.4-5.3c2-1.6,3.2-3.6,4.2-5.6c0.7-1.3,0.4-2.9-1.1-3.9c-0.9-0.6-2.2-0.7-3.5-0.5c-2.3,0.3-4.5,1-6.5,1.8
		c-0.9,0.4-1.9,0.7-2.2,1.4C342.2,75.7,343.4,76.5,343,77.3z M346,79.1c0.6-1.1,1.1-2.2,0.9-3.5c1.6-0.7,3.2-1.2,5.1-1.3
		c0.6,0,0.9,0.3,0.8,0.7c-0.3,2.4-2.2,4.3-4.4,6c-1.3,1-2.6,2.1-4.4,3C344.7,82.2,345.2,80.6,346,79.1z"/>
	<path d="M394.5,73.1c-1.6-0.8-3.7-0.8-5.6-0.5c-2.7,0.5-5.4,1.2-7.4,2.6c-3.7,2.5-5.7,6.1-4.7,9.7c0.4,1.8,3.2,3.4,6,3.4
		c1.5,0.1,3.1,0.1,4.4-0.5c1-0.5,0.7-1.4,1-2.2c0.4-2.1,2-4.1,2.3-6.2c0-0.6-1.1-0.6-1.8-0.5c-2.5,0.3-5.1,0.8-6.6,2.2
		c-0.2,0.2-0.6,0.7,0,0.8c1.5,0.1,2.8-0.2,4-0.5c-0.7,1.5-1.3,3.1-1.9,4.5c-1,0-2,0-2.8-0.5c-1.9-1.2-1.8-3.2-1-4.7
		c0.8-1.5,1.8-3.3,3.9-4.3c2.2-1.1,5-1.8,7.9-1.7c0.6,0,1.2,0.1,1.7-0.2C394.6,74.1,395.1,73.5,394.5,73.1z"/>
	<path d="M285.4,88.6c3.7-0.6,7.5-1.3,10.3-3.2c1.1-0.7,2-1.9,1.1-2.9c-1.1-1.3-2.9-2.2-4.7-3.2c1.5-0.7,2.8-1.3,4.1-2
		c1.1-0.6,2.3-1.4,2.7-2.5c0.2-1.2-1.1-2.7-3-2.7c-2,0-4,0.5-5.9,0.9c-1.5,0.4-3.1,0.7-3.9,1.7c-0.6,0.7,0.2,1.5,0.1,2.2
		c-0.3,3.3-1.6,6.5-2.5,9.8c-0.1,0.5-0.1,0.9,0.2,1.4C284.3,88.7,284.9,88.7,285.4,88.6z M290.3,75.5c1.6-0.4,3.2-0.8,4.9-0.7
		c-0.3,0.7-1.1,1.1-1.9,1.6c-1.1,0.6-2.2,1.2-3.5,1.6C290.1,77.2,290.2,76.4,290.3,75.5z M289.1,81.1c1.3,0.5,2.7,1.1,3.7,1.8
		c0.6,0.3,0.9,0.9,0.3,1.3c-1.5,0.8-3.2,1.3-5,1.5C288.1,84.1,288.5,82.5,289.1,81.1z"/>
	<path d="M356,85.7c0.1,0.4,0.3,0.9,1.1,0.9c0.9-0.1,1.3-0.7,1.7-1.2c0.9-1.5,0.9-3.2,1.6-4.7c0.7-1.8,1.1-3.7,1.8-5.5
		c0.1-0.6,0.4-1.3-0.2-1.7c-0.4-0.4-1.3-0.3-1.9-0.1c-0.6,0.1-0.9,0.4-1.1,0.7c-0.9,1.3-1.1,2.9-1.6,4.3
		C356.7,80.7,355.5,83.1,356,85.7z"/>
	<g>
		<path d="M294.3,108.8c-2.3-1.6-5-3-7-4.7c-1.5-1.2-0.1-2.9,1.3-3.9c0.8-0.5,1.8-1.1,2.8-1.5c2.3-1.2,5.1-2.1,8.1-2.6
			c0.9,0.3,1.6,0.8,2.6,1c0.9,0.2,1.9,0.1,2.7-0.2c0.7-0.4,1-1,0.8-1.6c-0.4-1.1-1.8-2.2-3.8-2.5c-2-0.2-4.2-0.2-6.3,0.1
			c-3.3,0.5-6.4,1.4-9,2.7c-2.1,1.1-3.9,2.4-5.2,3.8c-2.1,2.1-1.8,5,1,7c3.3,2.5,7.4,4.6,10.7,7.1c0.9,0.7,1.7,1.4,2.1,2.2
			c0.9,1.7-0.7,3.7-3.2,4.8c-1.2,0.7-2.8,1.2-4.5,1.3c-3.6,0-3.9-2.5-6.1-3.6c-1.1-0.4-2.5-0.3-3.6,0c-0.7,0.5-1.1,1.1-0.9,1.7
			c0.7,3.9,8.5,6.4,14.8,5.3c1.9-0.3,3.7-0.9,5.2-1.6c3.6-1.9,5.7-4.6,5.1-7.5C301.2,113.2,297.6,110.9,294.3,108.8z"/>
		<path d="M368.4,120.6c-17.3-0.3-35.7,1.5-51.5,6.2c-1.3,0.2-2.8,1.5-0.4,1.6c3.5-0.4,6.7-1.2,10.1-1.9c14.1-2.6,28.8-3.7,43.2-3.4
			C371.5,122.2,371.1,120.5,368.4,120.6z"/>
		<path d="M329.2,103.4c0.3-0.5,0.3-1.2-0.4-1.6c-1.2-0.6-3.1-0.1-3.6,0.8c-2,3.9-3.5,7.8-4.6,11.8c-0.2,1.1-0.4,2.5,0.4,3.5
			c0.7,0.8,2.1,1.2,3.5,1c2-0.3,3.8-1,5.5-1.8c0.2,0.5,0.2,1,0.8,1.4c1,0.7,3.2,0.5,3.6-0.5c1-5.4,2.3-10.8,4.2-16.2
			c0.3-0.9-1.1-1.7-2.5-1.4c-1.1,0.1-1.7,0.9-1.9,1.6c-1.1,3.3-2.2,6.6-3.1,9.9c-0.1,0.7-1,1.2-1.7,1.8c-1.2,0.8-2.6,1.6-4.4,1.9
			c-0.1-1.1,0.3-2.4,0.6-3.5C326.6,109.2,327.7,106.2,329.2,103.4z"/>
		<path d="M355.7,116.6c1,0.5,2.9,0.4,3.5-0.3c0.7-1,0.4-2.1,0.8-3.2c1-3.7,2.3-7.4,3.7-10.9c0.1-0.4,0.4-0.9,0-1.3
			c-0.6-0.4-1.6-0.5-2.3-0.3c-1.1,0.2-1.6,0.9-1.9,1.5c-1.1,2-1.7,4.2-2.3,6.2c-0.7,2.1-1.3,4.2-1.7,6.3
			C355.2,115.2,354.9,116.1,355.7,116.6z"/>
		<path d="M338.5,110.2c-0.8,1.6-1.1,3.5,0.1,5c0.9,1.1,2.8,1.8,4.7,1.9c3.3,0.2,7-0.1,9.8-1.3c1.6-0.6,0.7-2.2-1.1-2.2
			c0.1-1.6,0.2-3.3,0.3-4.9c1-4.3,2.3-8.5,3.7-12.7c0.1-0.5,0.4-1.1,0-1.6c-0.6-0.5-1.7-0.6-2.6-0.4c-1.2,0.3-1.7,1.1-2.1,1.8
			c-0.7,1.3-1.1,2.8-1.5,4.1c-0.8,0.3-1.5,0.7-2,1.1C343.9,103.6,340.2,106.7,338.5,110.2z M348.6,104.4c-0.6,2.2-1.2,4.5-1.6,6.7
			c-0.1,0.8-0.3,1.7,0.6,2.5c0.2,0.1,0.4,0.2,0.7,0.3c0,0.2,0,0.3,0,0.5c-1.9,0.2-3.8,0.3-5.7,0c-0.9-0.2-1-0.9-0.9-1.4
			c0.2-2.1,1.9-4.1,3.7-5.8c1-1,2.1-1.9,3.3-2.9C348.6,104.3,348.6,104.3,348.6,104.4z"/>
		<path d="M363,99.4c3.2-0.1,3.1-3.1-0.1-3C359.7,96.5,359.7,99.5,363,99.4z"/>
		<path d="M320.6,99.6c8.8-1.8,18-3.2,27.2-4h0.4l0.3-0.2c1.1-0.7,1.5-1.7,0.8-2.5c-0.6-0.6-1.8-1.1-3.8-0.9
			c-19.4,1.9-37.1,5.7-50.9,11c-1.2,0.3-2.3,1.2-2,2c0.1,0.3,0.6,0.8,2.1,0.8c0.2,0,0.3,0,0.6,0h0.2c2-0.5,4-1,5.9-1.5
			c1-0.3,2-0.6,3.1-0.8v0.1c0.7-0.2,1.3-0.4,1.9-0.6c0.4-0.1,0.9-0.2,1.3-0.3c-0.4,5.7-0.8,11.5-1.2,17.2c0,0.8-0.1,1.7,0.1,2.6
			c0.4,1.3,3.5,1.6,4.8,0.6c0.9-0.8,1-1.8,0.9-2.8c-0.3-6.2,0.3-12.5,1-18.7C315.8,100.8,318.2,100.2,320.6,99.6z"/>
		<path d="M386.7,100.4c-1.1,1.5-2.7,3.1-4.9,4.1c-0.3-1.9-1.2-3.8-3.2-5.2c-0.8-0.4-0.6-1.3-1.6-1.6c-1.1-0.4-2.5-0.3-3.6,0.1
			c-3,1-5.2,2.8-6.8,4.7c-0.8,0.6-1.2,1.2-1.6,1.9c-0.1,0.2-0.1,0.4-0.1,0.6c-0.1,0.2-0.2,0.4-0.3,0.7c-0.9,2.7-1.5,5.5,0.1,8.2
			c1,1.5,2.9,3.1,5.7,3.3c3.1,0.2,5.9-1.1,7.6-2.7c2-1.8,3.1-4,3.7-6.2c4.5-1.3,7.9-3.9,9.8-6.4C393,100,388.1,98.6,386.7,100.4z
			 M373.5,113.6c-0.7,0.5-1.9,1.2-2.9,0.6c-1.7-1.2-1.9-3-1.9-4.6c0-0.4,0-0.8,0.1-1.2c1,0.3,2.1,0.6,3.1,0.7
			c1.7,0.2,3.2,0.3,4.8,0.2C376,110.8,375,112.3,373.5,113.6z M377.2,105.9c-1.5,0.2-3,0.2-4.4-0.1c-0.6-0.1-2.1-0.4-2.3-0.8l0,0
			c-0.2,0-0.3-0.1-0.6-0.1c0.9-1.5,2.3-3,4.2-4.1c2.3,1.1,2.9,3.1,2.9,4.8C377.2,105.7,377.2,105.8,377.2,105.9z"/>
	</g>
</g>
</svg>
