<?xml version="1.0" encoding="utf-8"?>
<!-- Generator: Adobe Illustrator 25.3.1, SVG Export Plug-In . SVG Version: 6.00 Build 0)  -->
<svg version="1.1" id="Capa_1" xmlns="http://www.w3.org/2000/svg" xmlns:xlink="http://www.w3.org/1999/xlink" x="0px" y="0px"
	 width="411.3px" height="150px" viewBox="0 0 411.3 150" style="enable-background:new 0 0 411.3 150;" xml:space="preserve">
<style type="text/css">
	.st0{fill:#E5332A;}
	.st1{fill:#FFFFFF;}
	.st2{fill:#010101;}
</style>
<g>
	<g>
		<g>
			<path class="st0" d="M60.4,14.4c0.4,0.8,0.9,1.3,1.6,1.5C61.6,15.5,61,14.9,60.4,14.4z"/>
			<path class="st0" d="M61,14.2c0.7,1.6,1.8,3,3.7,3.4c0.6,0.7,1.3,1.1,2.3,1.3c0,0.2,0,0.4,0,0.6c0.4-0.2,0.8-0.3,1.1-0.5
				c0.1,0,0.2,0,0.3,0s0.3,0,0.4-0.1c0.1-0.1,0.3-0.2,0.4-0.3c0.6-0.2,1.1-0.4,1.6-0.6c0.1-0.1,0.3-0.2,0.4-0.3
				c5.3-1.8,11-2.7,16.7-2.8c-8.1-3.3-16.9-5.1-25.9-5.1c-2.4,0-4.8,0.2-7.2,0.4C56.9,11.2,59,12.7,61,14.2z"/>
			<path class="st0" d="M28.5,110.8c0.8,1.6,1.7,3.1,3,4.2c1-0.3,2.2-0.2,3.3,0.6c3,2.1,6,4,9.1,5.7c0.6-0.9,1.2-1.8,1.8-2.6
				c0.1-0.6,0-1.1-0.3-1.4c0.4-0.2,0.7-0.3,1-0.5c0-0.1-0.1-0.2-0.2-0.3c0.1-0.1,0.2-0.1,0.3-0.1c-0.4-2-0.8-4-1.1-6.1
				c-0.9-1.1-1.8-2.1-2.7-3.2c-0.4,0-0.8,0-1.2,0c0.2-0.2,0.4-0.5,0.6-0.7c0,0,0,0,0.1,0c-0.9-1.1-1.7-2.2-2.5-3.4
				c-3.2-7.1-5.5-14.8-5.6-22.8c-0.4,0-1.2,0.1-1.6,0.1c0.4-5.3,1.7-10.4,4.1-15c-0.3,0.2-0.5,0.4-0.8,0.5c-0.8,0.7-1.6,1.2-2.4,1.7
				c1.3-3.4,3.7-6,6-8.6c0.1-0.1,0.2-0.2,0.3-0.3c0-0.5,0-0.9,0-1.3c0.4-0.1,0.8-0.2,1.2-0.4c0-0.2,0-0.3,0-0.5
				c0.6-0.2,1.1-0.3,1.6-0.5c1.8-1.6,3.5-3.5,4.4-5.8c-0.2,0-0.4,0-0.6,0c0.6-1.3,1.3-2.5,2.1-3.8c0.3-0.4,0-0.8-0.3-0.8
				c0.5-1.9,0.8-3.8,1.2-5.6c0,0,0,0-0.1,0c0.1-0.2,0.1-0.7,0.1-1.1c-0.1-0.4-0.2-0.8-0.2-1.1c0-0.1-0.1-0.3-0.2-0.4
				c0.3-0.6,0.3-1.3-0.3-1.9c-3.1-4-5.3-10-4.8-15.4c0.2-1.8,0.7-3.7,1.2-5.3c0.4,0,0.7,0,1,0.1c0-0.8,0.5-1.5,1.2-1.7
				c0.7-0.8,1.5-1.3,2.4-1.8C25.2,18.2,7,43.1,7,72.8c0,15.5,5,29.7,13.3,40.7C20.2,109.1,26.5,106.2,28.5,110.8z"/>
		</g>
		<path class="st1" d="M42.4,47.6c0.1-0.1,0.3-0.1,0.4-0.1c0-0.1,0.1-0.1,0.1-0.2c-0.6,0.2-1.1,0.6-1.5,0.8c0,0.3,0,0.5,0.1,0.8
			C41.8,48.4,42.1,47.9,42.4,47.6z"/>
		<path class="st1" d="M137.4,70.1c-0.9-1.6-1.9-3.3-3-4.8c0.8,0,2.2-0.1,2.9-0.1c-2.4-2.6-5.8-4.6-7.5-7.9
			c-2.6-4.5-1.9-10-3.2-14.9c-0.3-1.3-0.8-2.4-1.3-3.7c0.1-0.1,0.3-0.2,0.4-0.3c-0.1-0.5,0-0.9,0.1-1.3c0-0.1,0-0.2,0.1-0.2
			c0.4-0.6,0.6-1.3,0.8-1.7v-0.1c0.1-0.1,0.1-0.3,0.2-0.4c0.2-0.3,0.4-0.5,0.6-0.8c0.4-0.5,0.8-0.9,1-1.2c0.3-0.5,0.6-0.9,0.8-1.3
			c0.1-0.8,0.3-1.6,0.3-2.4c0.3-0.7,0.5-1.3,0.6-2.1c0.3-2.6,0-5.6-1.5-7.8c-1-3.1-2.8-5.9-5.6-8c-0.1,0-0.2,0.1-0.3,0.1
			c0.1-0.1,0.1-0.1,0.2-0.2c-3.4-0.3-7.2-1.3-10.1,0.8c-1.3,0.8-2.7,1.7-4.3,1.5c-0.4,0.3-1.1,0.8-1.5,0.9c-0.9,1.4-1.9,3-2.8,4.4
			c-11.2-4.6-24-5.4-35.5-1.9c-0.6,0.5-1.3,0.8-2.2,0.8h-0.3c-0.3,0.1-0.6,0.2-0.9,0.3v-0.4c-0.8-0.1-1.3-0.5-1.8-0.9
			c-1.5-0.2-2.5-1.2-3-2.4c-2.2-1.5-4.6-2.6-7.1-3.7c-2.6,0.8-5.8,1.3-7.7,3.3c-0.9,0.3-1.3,1-1.3,1.8c-0.4-0.1-0.8-0.1-1.1-0.1
			c-0.8,1.7-1.2,3.5-1.3,5.4c-0.5,5.5,2,11.6,5.6,15.5c0.6,0.7,0.6,1.3,0.3,1.9c0.1,0.1,0.1,0.3,0.2,0.4c0.1,0.4,0.2,0.8,0.3,1.1
			c0.1,0.5,0,0.8-0.1,1.2H48c-0.5,1.9-0.9,3.9-1.3,5.6c0.4,0.1,0.7,0.5,0.3,0.8c-1,1.1-1.8,2.4-2.4,3.8h0.7
			c-1.3,2.7-3.6,4.6-5.8,6.5c-0.8,0.2-1.6,0.5-2.4,0.7v1.3c-0.1,0.1-0.3,0.2-0.4,0.3c-2.6,2.5-5.4,5.2-6.8,8.7
			c1.3-0.8,2.4-1.5,3.7-2.3c-3.3,4.6-4.8,9.9-5.2,15.2c0.5,0,1.3-0.1,1.8-0.1c0.2,8.1,2.8,15.9,6.5,23c0.9,1.2,1.9,2.3,2.9,3.4h-0.1
			c-0.2,0.2-0.4,0.5-0.6,0.7h1.3c1,1.1,2.1,2.1,3.2,3.2c0.4,2.2,0.9,4.2,1.3,6.5c-0.5,0.2-0.8,0.3-1.3,0.5c0.3,0.4,0.5,0.9,0.3,1.4
			c-0.2,0.3-0.5,0.6-0.7,0.8c2.9,1.7,5.9,3.3,8.9,4.7c1-0.5,2-0.6,3.2-0.2c-1.1,2.3-0.4,5.5,2.7,6.5c7.7,2.5,15.8,3.9,23.9,3.7
			c0.3,2,1.9,3.7,4.3,3.8c8.9,0.3,16.9-2.8,24.4-6.9c0.5-0.1,1-0.2,1.5-0.5c2.4-1.2,4.6-2.6,6.5-4.3c0.3-0.2,0.7-0.5,1-0.7
			c1-0.7,1.6-1.5,1.9-2.5c2.3-3,3.9-6.4,4.8-10.1c0.2-1,0.2-1.8-0.1-2.6c0.7-0.2,1.3-0.2,2-0.1c0.1-1,0.1-2.1,0.2-3.1
			c0.5-0.7,0.9-1.3,1.3-2.1c0.8-0.2,1.5-0.3,2.2-0.5c-0.2-0.2-0.5-0.3-0.7-0.5c-0.4,0-0.7-0.1-1-0.1c1.5-2.5,2.8-5.2,4.2-7.7
			c0.4,0.1,1.1,0.2,1.4,0.3c0.1-4.3,1.4-8.6,1.3-12.9c1-0.5,2-0.9,3.1-1.4C140.3,79.4,138.5,74.1,137.4,70.1z M79.8,126.4
			c-0.6,0-1.1-0.1-1.6-0.1c0.5-0.1,1.1-0.2,1.5-0.3C79.7,126.2,79.7,126.3,79.8,126.4z"/>
		<path d="M67.5,97.7L67.5,97.7c0-0.1,0-0.1-0.1-0.2C67.4,97.6,67.4,97.6,67.5,97.7z"/>
		<path d="M100,101.2c-2.2,5.1-6.1,9.4-11.7,10.4c-3.8,0.5-7.1-0.3-10.1-1.9c3.2,2.1,7,3.1,11.2,2.5c5.6-1,9.3-5.2,11.6-10.2
			C100.5,101.9,100.2,101.6,100,101.2z"/>
		<path d="M102.6,103.1c0-0.1,0.1-0.2,0.1-0.3c-0.3,0-0.7-0.1-0.9-0.3C102.1,102.8,102.3,103,102.6,103.1z"/>
		<path d="M71.8,106.1c0.4-0.3,0.7-0.6,0.9-0.9c-0.3-0.3-0.6-0.7-0.8-1c0,0,0,0,0,0.1c-0.4,0.5-0.8,0.8-1.2,1.2
			c2,2.9,4.6,5.5,7.9,7.2C76,111,73.6,108.7,71.8,106.1z"/>
		<path d="M83.4,103.9c2.6-0.4,5.6-0.5,7.4-2.6C88.2,101.4,84.8,101.3,83.4,103.9z"/>
		<path d="M81.2,97.2c5.2,0.1,10.4-0.5,15.3-1.5c1.3-0.3,0.7-1.7-0.7-1.4c-3.9,0.8-7.6,1.3-11.6,1.4c-2,0.1-4,0-6-0.2
			c-1.3-0.1-3.1,0.4-3.2-1.5c-0.3-1-2.2-0.5-1.9,0.6C73.5,98.1,78.6,97,81.2,97.2z"/>
		<path d="M92.2,29c-1.2-0.1-2.4-0.2-3.7-0.3C89.7,29.2,91,29.2,92.2,29z"/>
		<g>
			<path d="M118.1,31.6C118.2,31.6,118.2,31.6,118.1,31.6L118.1,31.6z"/>
			<path d="M138.6,69.9c-0.9-1.6-1.9-3.3-3-4.8c0.8,0,2.2-0.1,2.9-0.1c-2.4-2.7-5.8-4.6-7.4-8c-2.5-4.5-1.8-10-3.1-14.9
				c-0.3-1.3-0.8-2.4-1.3-3.7c0.1-0.1,0.3-0.2,0.4-0.3c-0.1-0.5,0-0.9,0.1-1.3c0-0.1,0-0.2,0.1-0.2c0.4-0.6,0.6-1.3,0.8-1.7v-0.1
				c0.1-0.1,0.1-0.3,0.2-0.4c0.2-0.3,0.4-0.5,0.6-0.8c0.4-0.5,0.8-0.9,1-1.2c0.3-0.5,0.6-0.9,0.8-1.3c0.2-0.8,0.3-1.6,0.4-2.4
				c0.3-0.7,0.5-1.3,0.6-2.1c0.3-2.5,0-5.6-1.4-7.8c-1-3.1-2.8-5.9-5.6-8c-0.1,0-0.2,0.1-0.3,0.1c0.1-0.1,0.1-0.1,0.2-0.1
				c-3.4-0.3-7.2-1.3-10.1,0.7c-1.3,0.8-2.7,1.7-4.3,1.5c-0.4,0.3-1.1,0.8-1.5,0.9c-0.9,1.4-1.9,3-2.8,4.4
				c-11.1-4.7-23.9-5.6-35.5-2.1C69.6,16.7,68.9,17,68,17h-0.3c-0.3,0.1-0.6,0.2-0.9,0.3v-0.4c-0.8-0.2-1.3-0.5-1.8-0.9
				c-1.5-0.2-2.5-1.2-3-2.4c-2.2-1.5-4.5-2.6-7.1-3.7c-2.6,0.7-5.8,1.3-7.7,3.3c-0.9,0.3-1.3,1-1.3,1.7c-0.4-0.1-0.8-0.1-1.1-0.1
				c-0.8,1.7-1.3,3.5-1.4,5.4c-0.6,5.5,1.9,11.6,5.4,15.6c0.6,0.7,0.6,1.3,0.3,1.9c0.1,0.1,0.1,0.3,0.2,0.4c0.1,0.4,0.2,0.8,0.3,1.1
				c0.1,0.5,0,0.8-0.1,1.2h-0.1c-0.8,3.1-1.4,6.2-2.4,9.2c-1.2,3.2-3.7,5.4-6.3,7.4c-0.8,0.2-1.6,0.4-2.4,0.6V59
				c-0.1,0.1-0.3,0.2-0.4,0.3c-2.6,2.5-5.4,5.2-6.9,8.6c1.3-0.8,2.4-1.4,3.7-2.3c-2.9,4.5-4.3,9.8-4.9,15.1c0.5,0,1.3-0.1,1.8-0.1
				c0.1,8.1,2.6,15.9,6.3,23.1c0.9,1.2,1.9,2.3,2.9,3.4h-0.1c-0.2,0.2-0.4,0.5-0.7,0.7h1.3c1,1.1,2.1,2.2,3.1,3.2
				c0.4,2.2,0.9,4.2,1.3,6.5c-0.5,0.2-0.8,0.3-1.3,0.5c0.3,0.4,0.5,0.9,0.3,1.4c-0.5,0.6-0.9,1.1-1.3,1.6c0.9,0.5,1.7,1,2.6,1.4
				c-0.1,1.4,0.5,3,1.9,4.1c11.2,8.2,24.8,12.5,38.6,12.7c12.3,0.1,27.1-2.9,36.4-11.5c4-3.8,7.8-10.1,6-15.8c0-0.1-0.1-0.3-0.1-0.4
				c0.3-0.2,0.6-0.4,0.8-0.5c0.1-0.9,0.1-1.8,0.2-2.7c0.5-0.7,0.9-1.3,1.3-2.1c0.8-0.2,1.5-0.3,2.2-0.5c-0.2-0.2-0.5-0.3-0.7-0.5
				c-0.4,0-0.7-0.1-1-0.1c1.5-2.5,2.9-5.2,4.3-7.7c0.4,0.1,1.1,0.2,1.4,0.3c0.1-4.3,1.5-8.6,1.4-12.9c1-0.5,2-0.9,3.1-1.3
				C141.5,79.3,139.7,74,138.6,69.9z M45.6,26.5c0,0.2-0.1,0.4-0.1,0.6c-0.2-0.8-0.3-1.4-0.3-2.1C45.6,25.3,45.7,25.8,45.6,26.5z
				 M49.1,48.7c0.8-3.2,1.4-6.5,2.3-9.6c0.4-0.4,0.8-0.7,1.1-1c-0.3-0.3-0.6-0.6-0.8-0.8c1.1-0.2,2.8-1.7,3.5-2.3
				c0.8-0.6,1.3-1.2,2-1.7c0.7-0.6,1.9-1.2,2.1-1.9c0.1-0.2,0.1-0.3,0.2-0.4c-0.1-0.3-0.7-0.7-1-0.8c0,0,0,0.1,0.1,0.1h-0.4
				c-0.8-0.4-1.4-0.9-2.1-1.5c0.4,0.7,0.8,1.2,1.3,1.6c-0.3,0-0.6,0-0.8,0.1c-1.1-0.7-2-1.3-2.7-2.3c-0.5-0.6-0.8-1.2-1.3-1.6
				c0.2,1.3,1,2.6,1.6,3.9c-3.1-2.2-4.4-5.9-5.1-9.4c-0.2,1.6,0.2,3.2,0.4,4.8c-1.2-2.3-1.3-5-1.1-7.5c-0.1-0.2-0.2-0.5-0.2-0.7
				c-0.4,0.4-0.6,0.8-0.8,1.3c0-0.8,0.3-1.4,0.7-2.1c0-0.1,0-0.1-0.1-0.2c0.5-1,1.1-1.9,1.7-2.7h-0.7c-0.1-0.1-0.1-0.1-0.2-0.1
				c1.3-0.9,2.9-1.6,4.5-1.5c4.1-0.7,7,2.9,10,5.2c0.1,0.5,0.4,1.4,0.5,2c0.5,0,1.3,0.1,1.8,0.1c0.2,0.5,0.4,0.8,0.5,1.3
				c0.1,0,0.1,0,0.2,0c0.6,0,0.9,0.1,1.3,0.4c0.1-0.7,0.1-1.2,0.2-1.8c7.3-2.8,15.4-3.2,23.2-1.8c-0.1,0-0.1,0.1-0.2,0.1
				c0.6,0,1.1,0,1.7,0.1c1.2,0.2,2.2,0.7,3,1.3c0.2-0.2,0.3-0.4,0.5-0.7c3.2,0.2,6.4,0.8,9.1,2.4c0,0.6,0.1,1.1,0.1,1.6
				c0.6,0,1,0.1,1.3,0.4c0.6-1.5,1.1-3.2,1.4-4.7c0.1,0.2,0.3,0.5,0.5,0.8c0.2-0.2,0.4-0.4,0.7-0.5c0.4-0.2,0.8-0.4,1.1-0.6
				c2.5-3.4,8.1-5,12-3.6c0.5-0.2,0.9-0.2,1.4,0.2c1.6,0.9,2.8,2.1,3.6,3.6c-0.1-0.1-0.2-0.2-0.3-0.3c0,0.3-0.1,0.5-0.1,0.8
				c0.8,2.4,0.9,5.2,0,7.6c0-1.6,0.1-3.3-0.4-4.8c-0.2,3.6-0.9,7.5-3.7,10.1c0.5-1.3,1-2.6,1-4c-0.4,0.6-0.7,1.3-1,1.8
				c-0.7,1-1.4,1.9-2.4,2.6c-0.3-0.1-0.6,0-0.8,0c0.5-0.6,0.8-1.2,1-1.8c-0.6,0.8-1.1,1.3-1.8,1.8h-0.4l0,0c-0.4,0.3-0.8,0.7-0.9,1
				c0,0.1,0.1,0.2,0.2,0.4c0.4,0.8,1.7,1.2,2.4,1.6c0.8,0.5,1.4,1,2.3,1.4c0.5,0.3,1.3,0.8,2.3,1.3c-0.1,0.3-0.2,0.6-0.4,0.8
				c0.2,0.4,0.4,0.7,0.7,1c0.3,0.4,0.5,0.8,0.5,1.2c1.6,4.5,1.7,9.9,3.1,14.5c-0.1-0.1-0.2-0.1-0.3-0.1c-2.4-0.3-4.5-1-6.8-1.3
				c-1.8-0.3-3.6-0.4-5.4-0.7c-4.2-0.5-8.6,0.3-12.6,1.3c-4.1,0.9-8.3,2.1-12.5,2.7c-0.5,0.1-0.9,0.1-1.3,0.2
				C87.5,57,78,56.5,76,56.2c-3.2-0.4-6.3-1.2-9.3-1.4s-6.2-0.7-9.2-0.7c-2.4,0-4.8,0.3-7.2,0.8c-1.7,0.4-3.4,0.8-5.1,1.2
				C46.5,54,48.1,51.5,49.1,48.7z M98.3,70.3c4.5,0.5,6.9,2.3,11.1-1.1c-0.3,1.4-1.2,2.5-1.6,3.9c1.6-1.2,2.5-3.1,3.8-4.7
				c-0.3,2.2-1.8,3.9-2.9,5.6c1.7-0.9,2.6-2.6,3.9-4c-0.3,1.5-1.3,2.7-2.2,4c3.7-1.9,4.8-5.8,6.2-9.5c0.9-2.7,4-1.7,5.8-0.6
				c-4.3-10.4-16-4.1-23.3-1.5c-2,0.8-4.1,1.3-6.3,1.3c-0.1-1.2,0.2-2.4,0.8-3.4c0.8-1.3,2.1-2.2,3.4-2.8c1.7-0.9,3.7-1.4,5.6-1.9
				c0.8-0.2,1.6-0.4,2.4-0.5c3.6-0.5,7.1-0.3,10.7,0c1.9,0.2,3.9,0.5,5.6,1.3c1.2,0.6,2.3,1.4,2.8,2.7c0.5,1.1,0.5,2.3,0.6,3.5
				c-0.1,3.3-0.8,6.5-1.7,9.7c-0.5,1.4-1.1,2.8-2.1,3.9c-1,1.3-2.4,2.2-3.9,2.7c-0.8,0.4-1.7,0.6-2.5,0.8c-3.6,0.8-7.4,0.8-10.8-0.6
				c-1.1-0.5-2.2-1-3.2-1.7c-0.2-0.5-0.4-0.9-0.6-1.4c-1-1.7-2.4-3.3-4.1-4.4c-0.3-0.5-0.5-0.9-0.8-1.3c0.1,0,0.2,0,0.3,0.1
				c0.3,0.1,0.6,0.2,0.8,0.3c2,0.4,3.9,1.3,5.7,1.9C100.6,71.4,99.4,71,98.3,70.3z M98.9,66.5c0.5-0.8,1.3-1.1,2.1-1.4
				c2.7-1.1,5.6-2.1,8.4-3.1c0.8-0.3,1.5-0.6,2.3-0.4c0.8,0.1,0.7,1.2,0.3,1.6c-1.1,1.8-3,3.1-4.9,3.9c-2.2,0.8-4.6,1.2-6.9,0.7
				C99.6,67.4,98.7,67.1,98.9,66.5z M92.4,70c-3.7-1.5-7.8-2.2-11.7-1.6c-1.2,0.3-2.4,0.7-3.5,1.1c0.2-0.8,0.4-1.7,0.7-2.5
				c1-1,3.3-3,6-2.9c0,0,4.2,0.8,6.7,1.5c0.5,0.8,0.8,1.6,1.1,2.4C92,68.6,92.1,69.3,92.4,70z M45.5,60.2c0.7-0.8,1.6-1.3,2.5-1.8
				c1.4-0.7,3-1,4.6-1.3c1.5-0.3,3.1-0.5,4.6-0.7c3.3-0.4,6.6-0.5,9.8,0.2c1.9,0.4,3.9,0.9,5.6,1.8c1.2,0.7,2.3,1.5,2.8,2.8
				c0.4,0.7,0.5,1.4,0.6,2.2c-2.2,0.1-4.5-0.3-6.7-0.7c-8-1.5-21-6-24.1,5c1.7-1.3,4.7-2.8,6.1-0.3c1.9,3.6,3.8,7.2,7.8,8.6
				c-1-1.2-2.4-2.2-2.8-3.8c1.5,1.2,2.7,2.8,4.6,3.5c-1.4-1.6-3.2-3-3.9-5.2c1.5,1.3,2.7,3.2,4.6,4c-0.8-1.2-1.8-2.3-2.3-3.7
				c4.8,2.7,7.1,0.6,11.7-0.6c-1.1,0.9-2.4,1.5-3.1,2.7c1.9-1,3.7-2.1,5.6-2.7c0.3-0.2,0.6-0.3,0.8-0.4c-0.1,0.3-0.2,0.6-0.4,0.8
				c0,0.1-0.1,0.1-0.1,0.2c-1.4,1-2.8,2.3-3.9,3.9c-1.1,1.4-1.9,2.9-2.6,4.4c-2.4,1.3-5.2,2.1-7.9,2.2c-2,0.1-4-0.1-5.9-0.6
				c-2.4-0.6-4.5-2.1-5.9-4c-0.8-1.2-1.3-2.6-1.8-4c-1.1-3.1-1.8-6.4-1.8-9.6C44.3,62.3,44.7,61,45.5,60.2z M70.1,66.9
				c0.1,0.7-0.8,1-1.3,1.3c-2.3,0.9-4.9,0.9-7.2,0.4c-2.1-0.5-4.2-1.4-5.6-3.1c-0.5-0.5-0.8-1.4,0.1-1.6c0.8-0.3,1.6-0.1,2.4,0.1
				c3.1,0.7,6.1,1.3,9.1,1.9C68.4,66,69.5,66.1,70.1,66.9z M71.9,75.4c-0.6,0.8-1.3,1.6-2.1,2.4C70.5,76.9,71.2,76.2,71.9,75.4z
				 M135,74.4c1.4,5.3,2.4,10.8,0.8,16.1c-1.4,3.9-2,8.3-4.7,11.6c-0.7,1-1.3,2-2,3c-1.7-0.1-3.5-0.2-5.1-0.1
				c-3.6,3.3-7.8,5.8-11.8,8.6c0.1,0.2,0,0.4,0,0.6c-1,2-2.4,3.8-4.1,5.3c-0.8,0.2-1.3,0.3-2.1,0.4c-0.1,0.4-0.3,0.9-0.4,1.3h0.6
				c-1.3,1-2.5,1.9-3.9,2.9c-1.3,0.5-2.5,0.9-3.8,1.3c-0.7,0.2-1.4,0.4-2.2,0.5c-0.2,0-0.5-0.1-0.7-0.1c0,0.1,0,0.2,0,0.3v6.5
				c0,2.5-2.1,4.4-4.5,4.5s-4.5-2.1-4.5-4.5v-6.6c0-0.3,0-0.6,0.1-0.9c-2.4,0-4.8,0.1-7.1,0.5c-0.4-0.1-0.8-0.1-1.2-0.2
				c-2.8-1.3-5.4-2.9-8.1-4.7c-0.4,0-0.7-0.4-0.8-0.7c-2.2-1.6-4.2-3.5-5.6-5.8c-0.1-0.2-0.2-0.4-0.1-0.7c-4.9-2.5-9.9-4.9-14.3-8.3
				c-2,0.2-4,0.6-6,1c-1.3-2.1-2.5-4.4-4-6.4c-0.5-0.2-1.3-0.7-1.6-0.9c-2.2-5.7-4.6-11.7-4.7-17.9c-0.1-4.4,2.1-8.5,3.7-12.4
				c-0.5-0.3-1.3-0.9-1.7-1.2c1.3-1.4,2.6-3,3.9-4.5c1,1.2,2.4,2.1,2.8,3.7c1.1,3.9,2.6,7.8,4.4,11.5c0.9,1.7,2.5,2.9,4.2,3.8
				c3.3,1.4,7,1.9,10.5,1.6c1.3-0.1,2.7-0.3,4-0.7c0.5-0.1,0.9-0.3,1.3-0.4c-0.7,2.1-0.9,4.1-1,6.3c0.3-2.2,0.9-4.4,1.8-6.5
				c0.9-0.4,1.7-0.9,2.5-1.4c1.3-0.9,2.4-2.1,3.4-3.4c-0.2,0.8-0.2,1.5,0.1,2.4c2.9,4.9,7.4,9.6,11.7,9.3c5.1-0.4,7.1-7.2,9.8-11.7
				c-1.7-1.6-3.3-3.9-5.8-4c-4,2.2-6.7,0.8-10.9,1c-1.1-0.3-2.3,0.1-3.3,0.8c0.6-0.9,1-1.8,1.4-2.7c1.6-0.8,3.3-1.3,4.9-1.4
				c4.4-1,9,0,12.7,2c1.1,2.1,2.5,4,4.3,5.6c0.8,0.8,1.8,1.3,2.8,1.8c0.5,1.1,0.8,2.2,0.8,3.3c0.6,2.3,0.6,4.6,0.2,7
				c0,0.3-0.1,0.6-0.1,0.8l1.1-0.2l0.4-0.1c0.5-3.9,0.1-7.5-1.8-10.5c0.2,0.1,0.4,0.2,0.6,0.3c2,0.8,4,1.2,6.3,1.3
				c3.6,0.2,7.2-0.5,10.4-2.2c2.2-1.3,4-3.1,5.3-5.4c0.8-1.7,1.3-3.6,1.7-5.4s0.8-3.7,1.3-5.5c0.4-1.2,0.8-2.4,1.8-3.2
				c0.3-0.3,0.8-0.4,0.8-0.8c0.2-0.7,0-1.3,0-1.9c-0.1-0.3-0.1-0.6,0-0.8c0.9,2.2,2.4,4.1,4.4,5.7c-0.8,0.3-1.7,0.5-2.5,0.8
				c3.2,1.6,4.7,4.9,5.5,8.3c0.1-0.1,0.1-0.1,0.2-0.2c0.9,2.3,1.9,5.8,2,7.7C138.2,77.2,137.5,74.8,135,74.4z"/>
		</g>
		<path d="M45.7,27.5L45.7,27.5c0.1,0,0.1,0,0.2,0C45.7,27.5,45.7,27.5,45.7,27.5z"/>
		<path class="st2" d="M52.9,51.3c1.1,0.4,2.4-0.1,3.5,0.5c5.6,2.4,11.7,2.3,17.5,2.2c1.5-5.6-2.9-4-4.7-4.6
			C63.8,49,58.7,47,53.6,45.2c-0.9-0.5-1.5,0.6-2.3,1C51.2,48,51.9,49.9,52.9,51.3z"/>
		<path class="st2" d="M98.9,54.4c1.2,0,2.4-0.6,3.7-0.4c6.1,0.7,12.2-0.8,18.2-2c0.8-4.4-3.6-2.4-5.6-2.4c-5.6,0.8-11,0.5-16.6,0.1
			c-1-0.1-1.5,0.8-2.2,1.2C96.8,52.4,97.6,53.6,98.9,54.4z"/>
	</g>
	<g>
		<path d="M183.4,93.4c-3.1,10.3-6.2,21.8-8.7,32c0,1.1-0.6,1.3-1.5,1.2c-0.5,0-1-0.1-1.7-0.3c-0.6-0.2-1.3-0.3-2.1-0.5
			c-1.5-0.4-2.8-1-3.6-1.6c-0.9-0.6-1.1-1.6-0.8-3.1c0.4-3.4,1-6.8,1.7-10.6c-3.2,0.5-6.1,0.8-9.3,1.3c-1.1,4.6-1.7,9.2-2.5,13.5
			c-0.4,1.5-0.9,1.5-2.7,1.2c-1.7-0.5-4-0.9-5.5-1.8c-0.9-0.4-1.5-0.9-1.8-1.4c-0.4-0.5-0.4-1.3-0.2-2.2c0.6-2.7,1.1-5.6,1.5-9.1
			c1.5-10.4,2.7-22.2,4.1-32.5c0.6-2.5,1.5-2.7,3.8-1.8c2.9,0.8,6.5,2.4,8.8,4.3c1.1,1,0.9,1.9,0.6,3.3c-1.4,5.1-2.7,11.2-4,17
			c3.1-0.4,6.1-0.5,9.1-0.8c1.7-7.4,3.5-15.7,5.4-22.6c0.3-1.2,0.8-1.9,1.4-2c1.7-0.4,4.3,0.7,6,1.5c1.6,0.8,4.4,2.1,5.1,3.7
			c0.2,0.5,0.2,1.3-0.1,2.2C185.4,86.8,184.5,90,183.4,93.4z"/>
	</g>
	<g>
		<path d="M196.5,116.1c-2.4,0.3-4.5,0.7-6.2,1.2c-1.2,2.4-2,4.4-3.1,6.6c-0.3,0.5-0.6,0.8-0.9,0.9c-0.7,0.2-2.1-0.4-3-0.8
			c-0.5-0.2-1-0.4-1.5-0.7c-0.4-0.3-0.7-0.5-1-0.6c-0.6-0.4-0.9-0.9-0.9-1.6c0-0.4,0.1-0.9,0.3-1.6c0.8-2.2,1.7-4.8,3-7.8
			c3.7-8.7,8.1-18.6,12.6-26.7c1.2-2,2.6-3,5.2-2.8c1.3,0.1,2.5,0.2,3.5,0.3c1.8,0.2,3.5,0.6,5.1,1.1c1.3,0.4,3.5,0.7,4.1,2
			c0.3,0.6,0.4,1.3,0.3,2.2c-0.7,8.4-0.8,17.9-0.9,26.6c0,3.2,0,6.1,0,8.9c0,0.6-0.1,1-0.4,1.2c-0.2,0.2-0.8,0.3-1.6,0.3
			c-1.6,0-3,0-4.5-0.5c-1.6-0.5-1.9-1-2.2-2.8c-0.3-2.1-0.4-4.3-0.6-6.6C201.2,115.4,198.9,115.7,196.5,116.1z M198.9,107.8
			c1.4-0.2,2.9-0.3,4.4-0.4c-0.1-5.2-0.2-10.4-0.1-15.5c-2.8,5.1-5.9,10.9-8.6,16.5C195.9,108.1,197.4,107.9,198.9,107.8z"/>
	</g>
	<g>
		<path d="M225.5,118.6c-0.4,1.7-0.7,3.6-1.1,5.2c-0.2,0.5-0.4,0.8-0.6,1c-0.3,0.2-0.8,0.2-1.5,0c-0.8-0.2-1.6-0.4-2.2-0.5
			c-1.2-0.2-2.7-0.8-3.2-1.9c-0.2-0.5-0.3-1.1-0.2-1.9c0.2-2,0.4-4.8,0.7-7.3c0.5-5.2,1.1-10.9,2-16.2c0.5-2.9,1-5.7,1.9-8.2
			c0.4-0.9,0.8-1.4,1.2-1.7c1.9-0.9,4.1-1.7,6.2-2.7c4-1.5,8.3-2.6,12.3-1.9c1.8,0.3,3.5,1.1,4.9,2.6c2.5,2.7,4.3,5.2,5.2,9
			c1.9,8-8.7,13.5-15.2,16.5c3.2,3.5,6.8,7.4,10.4,10.3c0.6,0.5,0.9,1,0.8,1.3c-0.1,0.7-1.7,1.7-2.2,1.8c-1.1,0.2-2.5,0.6-3.8,0.4
			c-1.9-0.2-3.8-1.6-5.5-3.1c-3-2.5-6.2-5.4-8.8-8.5C226.3,114.9,225.9,116.7,225.5,118.6z M230.4,98.7c-0.5,1.8-1,3.8-1.6,5.9
			c3.9-1.2,7.5-3.4,10.1-5.9c1.5-1.4,3.4-3.7,3-5.4c-0.7-1.7-4.5-1.4-6.4-1c-1.1,0.2-2.2,0.6-3.6,1.2
			C231.3,95.2,230.8,96.9,230.4,98.7z"/>
	</g>
	<g>
		<path d="M273.1,91c-1.4,0.1-3,0.3-4.5,0.4c-2.7,10.6-5.5,22-7.6,32.6c-0.2,2-3.4,0.6-4.7,0.3c-2-0.6-4.6-1.5-4-4.1
			c0.7-8.6,2.6-18.7,4.4-27.3c-1.5,0.3-3.5,0.4-4.8,0.8c-1.7,0.4-2.5,0.2-3.7-1.1c-1.2-1.1-2.5-3.7-3.2-5.1c-0.7-1.4-0.4-1.6,0.9-2
			c8.6-1.6,18.6-2.6,27.3-3c1.6,0.1,2.4,0.1,3.3,1.1c1.2,1.4,2,3.2,2.6,4.9c0.2,0.7,0.2,1.2,0,1.5c-0.2,0.3-0.7,0.4-1.7,0.5
			C275.9,90.7,274.5,90.9,273.1,91z"/>
	</g>
	<g>
		<g>
			<path d="M148.9,25.5c5.4-1.8,11.9-2.7,17.5-0.6c6,2.1,10.4,8.1,11.1,14.6c1,10.3-5.6,20-14.5,25.1c-2.7,1.5-5.7,2.9-9.1,3.8
				c-1.7,0.6-3.5,0.4-5.4-0.4c-1.9-1-3.1-1.7-4.9-3.1c-1-0.9-2-1.7-2.1-3.3c-0.1-0.5,0-1.2,0-2l3-32.1
				C145.6,26.8,147.1,26.2,148.9,25.5z M157.9,56.5c3.4-2.8,6-6.2,7.4-10.1c1.1-3.1,1.6-7.2,0.3-9.6c-1.6-2.9-5.2-3.6-8.8-2.4
				c-2.4,8.8-4.1,17.3-5.7,26.1C153.8,59.4,156,58.1,157.9,56.5z"/>
		</g>
		<g>
			<path d="M212.9,30.7c5.2,9.8-1.4,33.4-13.4,35.9c-2.9,0.6-6.5,0.2-9.7-0.4c-3.5-0.7-7.2-2.5-9-5.4c-5-9.2-2.1-21.5,4.1-29.5
				c1.4-1.8,3.1-3.5,4.9-4.9c2.5-1.7,6.4-2.9,9.5-2.4C204.4,24.6,210.3,26.4,212.9,30.7z M198.7,33.2c-4.2,3.8-7.8,11.8-8.5,17.4
				c-0.4,2.9-0.7,9.1,2.5,10.1c1.9,0.5,3.6-1.2,4.9-2.9c3-4,4.6-9.1,5.4-14.2c0.4-2.8,1.2-10.4-1.6-11.3
				C200.4,32.2,199.6,32.4,198.7,33.2z"/>
		</g>
		<g>
			<path d="M242.1,38.8c1-4,2.1-7.6,3.2-10.9c0.3-0.9,0.7-1.4,1.3-1.6c0.6-0.2,1.4-0.2,2.7,0c1,0.2,1.8,0.3,2.8,0.7
				c1,0.4,1.8,0.8,3,1.4c1.9,1,2.1,1.9,1.5,3.8c-3.6,10.3-7.1,22.6-9.9,33.1c-0.2,1.2-1.3,1.6-3.3,1.2c-1.6-0.3-3.4-0.7-5.1-1.2
				c-1.6-0.5-2.8-1.4-3.4-2.8c-0.5-0.9-1-2-1.5-3.4c-1.7-4.3-3.4-9-4.7-13.5c-1.1,5.3-2.4,10.9-3.5,16.2c-0.3,1.5-0.5,2.9-0.7,3.9
				c-0.1,0.5-0.4,0.8-0.7,1c-0.3,0.1-0.9,0.1-1.9-0.1c-1.7-0.4-3.6-0.6-5.2-1.5c-0.8-0.3-1.3-0.7-1.6-1.2c-0.3-0.4-0.4-1.1-0.3-1.8
				c0.6-6.8,1.8-14.8,3.1-21.9c0.7-4,1.5-8.4,2.5-12c0.2-0.9,0.7-1.5,1.3-1.7c0.6-0.2,1.5-0.2,2.7,0c1.3,0.3,2.7,0.7,3.9,1
				c1.2,0.3,2.6,0.8,4,1.3c1.1,0.4,1.9,0.9,2.4,1.5c0.5,0.6,0.8,1.5,1,2.7c1.1,5.6,2.6,12.3,4,18C240.2,46.8,241.1,42.8,242.1,38.8z
				"/>
		</g>
		<g>
			<path d="M270.7,58.3c-2.7,0.3-5.1,0.7-7.2,1.2c-0.7,1.2-1.3,2.4-1.9,3.4c-0.5,1-1,2-1.5,3.1c-0.3,0.5-0.6,0.8-1,0.9
				c-0.8,0.2-2.4-0.4-3.4-0.8c-0.5-0.2-1.1-0.4-1.7-0.7c-0.4-0.2-0.8-0.4-1.1-0.6c-0.6-0.4-1-0.8-1-1.6c0-0.4,0.1-0.9,0.3-1.5
				c3.4-8.2,8.4-17.6,12.8-25.6c1.6-3,3.3-5.6,4.8-8c1.4-2,3.1-2.9,5.9-2.7c2.6,0.1,4.8,0.4,7.2,0.8c1.8,0.3,3.4,0.8,5.1,1.2
				c1.1,0.3,1.8,0.8,2.1,1.3c0.3,0.5,0.4,1.3,0.3,2.1c-0.2,2.2-0.4,4.7-0.5,7.6c-0.4,8.6-0.5,18.4-0.4,27c0,0.5-0.1,0.9-0.4,1.1
				c-0.3,0.2-0.9,0.3-1.8,0.3c-1.8,0-3.3,0-5-0.5c-1.7-0.5-2.2-0.8-2.6-2.7c-0.3-2-0.5-4.2-0.7-6.4C276.2,57.6,273.4,58,270.7,58.3z
				 M273.4,50.2c1.6-0.2,3.3-0.3,4.9-0.4c-0.1-5-0.3-10.1-0.1-15.1c-3.2,4.9-6.6,10.6-9.7,16.1C270.1,50.6,271.8,50.4,273.4,50.2z"
				/>
		</g>
		<g>
			<path d="M327.3,37.2c-4.1,5.9-9.2,12.4-13.8,18c-1.1,3.9-1.9,7.3-2.9,11c-0.2,0.6-0.4,1-0.7,1.1s-0.9,0.1-1.9-0.1
				c-1.6-0.4-3.7-0.9-5.3-1.5c-1.5-0.9-1.9-1.3-1.8-3.2c0.6-3.3,0.9-6.8,1.6-10.4c-3.2-7.8-6.8-16.2-9.7-23.9
				c-0.8-1.7-0.4-2,1.4-2.4c2.2-0.1,4.2-0.4,6.4,0.1c1.1,0.2,1.8,0.6,2.4,1c0.5,0.5,1,1.2,1.6,2.2c1.9,4.3,3.7,9.2,5.4,14
				c4-5.4,7.7-11,11.3-16.8c1-2.7,4.8-0.5,6.3,0.6c1.2,1,3,1.9,3.2,3.5C330.9,32.1,328.6,35.4,327.3,37.2z"/>
		</g>
		<g>
			<path d="M338.8,60.7c-0.4,1.7-0.8,3.5-1.2,5.1c-0.5,1.2-1,1.2-2.5,1c-1.7-0.4-3.2-0.4-4.8-1.1c-1.4-0.7-1.8-1.5-1.6-3.2
				c0.1-0.6,0.2-1.6,0.3-2.9c0.7-6.3,1.5-13.5,2.8-19.9c0.5-2.6,1.5-8.5,3.6-9.6c7.6-2.9,19.4-7.8,26.5-2c1.2,1.2,2.5,2.5,3.5,3.8
				c1.9,2.5,3.8,7.4,1.8,10.1c-3.5,5.4-10.1,8.3-16.7,10.9c3.6,3.4,7.8,7.2,11.9,10c0.7,0.5,1,0.9,1,1.2c-0.2,0.7-1.9,1.6-2.6,1.7
				c-1.3,0.2-2.8,0.6-4.3,0.4c-2-0.2-4.2-1.5-6.2-3c-3.4-2.4-7.1-5.2-10-8.3C339.8,57.1,339.2,59,338.8,60.7z M344.4,41.4
				c-0.5,1.8-1.1,3.7-1.8,5.7c4.3-1.2,8.4-3.3,11.5-5.8c1.3-1,2.2-2,2.9-3.1c1.6-2.7-0.1-3.5-3.3-3.6c-2.5,0-5,0.5-7.5,1.5
				C345.5,37.9,344.9,39.5,344.4,41.4z"/>
		</g>
		<g>
			<path d="M377.3,27.9c4-0.8,8.2-1.4,12.4-1.8c2.1-0.2,4.4-0.4,6.5-0.4c2,0,3.4,0.6,4,2c0.5,0.7,0.8,1.4,1,2c0.2,0.9,1,2.9,0.3,3.6
				c-0.3,0.3-0.9,0.5-2,0.6c-4.6,0.5-9.2,0.8-14,1.4c-1.1,3-1.9,5.9-3.1,9.1c2.2-0.3,4.4-0.4,6.7-0.4c1,0,1.8,0,2.4,0.2
				c1.2,0.4,2,1.9,2.5,3.1c0.2,0.6,0.4,1.2,0.6,1.8c0.3,0.7,0.3,1.2,0.1,1.4c-0.2,0.2-0.8,0.5-1.8,0.6c-4.3,0.7-9,1.2-13.2,2
				c-0.6,1.9-1,3.6-1.6,5.4c3.5-0.5,6.2-0.8,9.8-1c1-0.1,1.8,0,2.4,0.2c1.8,0.6,2.4,3.1,3.3,4.5c0.4,1.5-0.1,1.5-1.7,1.8
				c-4.5,0.7-9.5,1.6-13.9,2.2c-1.4,0.3-2.6,0.4-3.3,0.2c-0.7-0.2-1.3-0.4-1.9-0.7c-1.4-0.8-2.4-1.4-3.8-2.5c-1.2-0.9-2-2-1.8-3.7
				l5.1-31C373.6,28.6,375.3,28.3,377.3,27.9z"/>
		</g>
	</g>
	<path d="M329.8,90.8c1.1,0,1.6-0.7,1.8-1.3c0.9-2.4,1-4.8,1.9-7.2c0.8,1,1.2,2.1,1.8,3.3c0.6,1.1,0.3,2.5,1.8,3.4
		c1.6,0.9,4.2-0.2,3.7-1.5c-0.1-3.6,1-7.2,2.5-10.6c0.3-0.9,0.6-1.8,0.2-2.8c-0.2-0.4-0.8-0.8-1.6-0.8c-1.1,0.3-1.8,1.1-1.9,1.8
		c-0.8,2.8-1.6,5.5-2.2,8.4c-0.8-0.9-1.1-1.8-1.5-2.9c-0.4-1.2-0.2-2.5-0.7-3.7c-0.8-0.8-2.7-1-3.7-0.3c-1.6,0.7-1.1,2.1-1.3,3.2
		c-0.6,3.1-2.1,6.1-2.1,9.3C328.6,89.7,328.7,90.7,329.8,90.8z"/>
	<path d="M364.4,90.8c0.3,0.3,1,0.3,1.3,0.1c0.8-0.2,0.9-0.8,1.2-1.3c1-2.2,1.3-4.6,2.3-6.8c0.7,1,1.1,2.1,1.6,3.3
		c0.4,1.1,0.2,2.6,1.6,3.5c1.2,0.7,3.3,0.1,3.8-0.8c0.1-3.8,1.5-7.5,3.2-11c0.4-0.9,0.8-1.9,0.6-2.9c-0.2-0.4-0.9-1-1.7-0.7
		c-0.9,0.3-1.6,0.8-1.7,1.4c-1.1,2.9-1.9,5.7-3,8.5c-0.7-0.9-1-1.8-1.2-2.9c-0.3-1.2,0-2.5-0.3-3.7c-0.7-0.8-2.6-1.1-3.6-0.4
		c-1.7,0.6-1.3,2-1.6,3.2c-0.8,3-2.5,5.9-2.8,9C363.8,89.6,364,90.3,364.4,90.8z"/>
	<path d="M302.6,80.3c-0.7,3.1-1.5,6-1.6,9.1c0,0.5,0.3,1.1,1.2,1.2c1-0.1,1.8-0.6,2-1.3c0.6-1.6,0.9-3.3,1.3-5
		c2.8,0.7,5.6,1.4,8.5,1.8c-0.7,1.3-1.7,2.7-1.8,4.1c0.1,0.4,0.1,0.9,0.7,1.2c0.9-0.1,1.6-0.6,2.1-1.1c1.3-1.5,2-3.3,3.1-4.9
		c1.6-0.5,3.3-0.9,5-1.2c0.1,1.4-0.2,2.9,0.8,4.2c0.4,0.6,1.8,1.3,2.5,0.5c0.8-1,0.4-2.2,0.3-3.4c-0.1-1.7-0.2-3.5-0.3-5.2
		c-0.1-1.8,0.8-3.6,0.3-5.4c0-0.4-0.6-0.8-1.2-0.7c-1.3,0.2-2.6,0.6-3.8,1c-1.5,0.5-2.1,1.6-2.8,2.6c-1.3,2-2.6,4.2-3.8,6.3
		c-2-0.7-4.2-1-6.3-1.6c2.3-0.8,4.6-1.9,6-3.5c1-1,1.6-2.4,1.2-3.6c-0.2-0.8-1.5-1.5-2.7-1.4c-2.8,0.1-5.5,0.6-7.8,1.4
		c-1.6,0.6-3.2,1.4-3.5,2.8C302.3,79.1,302.7,79.7,302.6,80.3z M323.1,77.8c0,1.4-0.1,2.9,0,4.3c-1.1,0.2-2.2,0.3-3.3,0.6
		C320.6,81.1,321.3,79.2,323.1,77.8z M306.4,78.2c2.1-0.8,4.4-1.5,6.7-1.6c-1.1,2.1-3.9,3.7-7,4.5C306.1,80.1,306.8,79.2,306.4,78.2
		z"/>
	<path d="M345.5,79.8c-0.7,1.5-1.3,3.2-1.7,4.8c-0.3,1.5-1.2,3-1.9,4.5c-0.3,0.5,0,1.5,1.1,1.5c1.2,0.1,2-0.5,2.9-1
		c3-1.6,5.9-3.4,8.4-5.3c2-1.6,3.2-3.6,4.2-5.6c0.7-1.3,0.4-2.9-1.1-3.9c-0.9-0.6-2.2-0.7-3.5-0.5c-2.3,0.3-4.5,1-6.5,1.8
		c-0.9,0.4-1.9,0.7-2.2,1.4C344.8,78.2,346,79,345.5,79.8z M348.6,81.6c0.6-1.1,1.1-2.2,0.9-3.5c1.6-0.7,3.2-1.2,5.1-1.3
		c0.6,0,0.9,0.3,0.8,0.7c-0.3,2.4-2.2,4.3-4.4,6c-1.3,1-2.6,2.1-4.4,3C347.2,84.7,347.8,83.1,348.6,81.6z"/>
	<path d="M397,75.6c-1.6-0.8-3.7-0.8-5.6-0.5c-2.7,0.5-5.4,1.2-7.4,2.6c-3.7,2.5-5.7,6.1-4.7,9.7c0.4,1.8,3.2,3.4,6,3.4
		c1.5,0.1,3.1,0.1,4.4-0.5c1-0.5,0.7-1.4,1-2.2c0.4-2.1,2-4.1,2.3-6.2c0-0.6-1.1-0.6-1.8-0.5c-2.5,0.3-5.1,0.8-6.6,2.2
		c-0.2,0.2-0.6,0.7,0,0.8c1.5,0.1,2.8-0.2,4-0.5c-0.7,1.5-1.3,3.1-1.9,4.5c-1,0-2,0-2.8-0.5c-1.9-1.2-1.8-3.2-1-4.7
		c0.8-1.5,1.8-3.3,3.9-4.3c2.2-1.1,5-1.8,7.9-1.7c0.6,0,1.2,0.1,1.7-0.2C397.1,76.7,397.7,76,397,75.6z"/>
	<path d="M287.9,91.1c3.7-0.6,7.5-1.3,10.3-3.2c1.1-0.7,2-1.9,1.1-2.9c-1.1-1.3-2.9-2.2-4.7-3.2c1.5-0.7,2.8-1.3,4.1-2
		c1.1-0.6,2.3-1.4,2.7-2.5c0.2-1.2-1.1-2.7-3-2.7c-2,0-4,0.5-5.9,0.9c-1.5,0.4-3.1,0.7-3.9,1.7c-0.6,0.7,0.2,1.5,0.1,2.2
		c-0.3,3.3-1.6,6.5-2.5,9.8c-0.1,0.5-0.1,0.9,0.2,1.4C286.8,91.2,287.5,91.2,287.9,91.1z M292.8,78c1.6-0.4,3.2-0.8,4.9-0.7
		c-0.3,0.7-1.1,1.1-1.9,1.6c-1.1,0.6-2.2,1.2-3.5,1.6C292.6,79.7,292.7,78.9,292.8,78z M291.6,83.6c1.3,0.5,2.7,1.1,3.7,1.8
		c0.6,0.3,0.9,0.9,0.3,1.3c-1.5,0.8-3.2,1.3-5,1.5C290.6,86.6,291.1,85,291.6,83.6z"/>
	<path d="M358.5,88.2c0.1,0.4,0.3,0.9,1.1,0.9c0.9-0.1,1.3-0.7,1.7-1.2c0.9-1.5,0.9-3.2,1.6-4.7c0.7-1.8,1.1-3.7,1.8-5.5
		c0.1-0.6,0.4-1.3-0.2-1.7c-0.4-0.4-1.3-0.3-1.9-0.1c-0.6,0.1-0.9,0.4-1.1,0.7c-0.9,1.3-1.1,2.9-1.6,4.3
		C359.3,83.2,358,85.7,358.5,88.2z"/>
	<g>
		<path d="M296.9,111.3c-2.3-1.6-5-3-7-4.7c-1.5-1.2-0.1-2.9,1.3-3.9c0.8-0.5,1.8-1.1,2.8-1.5c2.3-1.2,5.1-2.1,8.1-2.6
			c0.9,0.3,1.6,0.8,2.6,1c0.9,0.2,1.9,0.1,2.7-0.2c0.7-0.4,1-1,0.8-1.6c-0.4-1.1-1.8-2.2-3.8-2.5c-2-0.2-4.2-0.2-6.3,0.1
			c-3.3,0.5-6.4,1.4-9,2.7c-2.1,1.1-3.9,2.4-5.2,3.8c-2.1,2.1-1.8,5,1,7c3.3,2.5,7.4,4.6,10.7,7.1c0.9,0.7,1.7,1.4,2.1,2.2
			c0.9,1.7-0.7,3.7-3.2,4.8c-1.2,0.7-2.8,1.2-4.5,1.3c-3.6,0-3.9-2.5-6.1-3.6c-1.1-0.4-2.5-0.3-3.6,0c-0.7,0.5-1.1,1.1-0.9,1.7
			c0.7,3.9,8.5,6.4,14.8,5.3c1.9-0.3,3.7-0.9,5.2-1.6c3.6-1.9,5.7-4.6,5.1-7.5C303.8,115.7,300.1,113.5,296.9,111.3z"/>
		<path d="M371,123.1c-17.3-0.3-35.7,1.5-51.5,6.2c-1.3,0.2-2.8,1.5-0.4,1.6c3.5-0.4,6.7-1.2,10.1-1.9c14.1-2.6,28.8-3.7,43.2-3.4
			C374.1,124.7,373.6,123,371,123.1z"/>
		<path d="M331.7,105.9c0.3-0.5,0.3-1.2-0.4-1.6c-1.2-0.6-3.1-0.1-3.6,0.8c-2,3.9-3.5,7.8-4.6,11.8c-0.2,1.1-0.4,2.5,0.4,3.5
			c0.7,0.8,2.1,1.2,3.5,1c2-0.3,3.8-1,5.5-1.8c0.2,0.5,0.2,1,0.8,1.4c1,0.7,3.2,0.5,3.6-0.5c1-5.4,2.3-10.8,4.2-16.2
			c0.3-0.9-1.1-1.7-2.5-1.4c-1.1,0.1-1.7,0.9-1.9,1.6c-1.1,3.3-2.2,6.6-3.1,9.9c-0.1,0.7-1,1.2-1.7,1.8c-1.2,0.8-2.6,1.6-4.4,1.9
			c-0.1-1.1,0.3-2.4,0.6-3.5C329.1,111.7,330.2,108.8,331.7,105.9z"/>
		<path d="M358.3,119.1c1,0.5,2.9,0.4,3.5-0.3c0.7-1,0.4-2.1,0.8-3.2c1-3.7,2.3-7.4,3.7-10.9c0.1-0.4,0.4-0.9,0-1.3
			c-0.6-0.4-1.6-0.5-2.3-0.3c-1.1,0.2-1.6,0.9-1.9,1.5c-1.1,2-1.7,4.2-2.3,6.2c-0.7,2.1-1.3,4.2-1.7,6.3
			C357.7,117.8,357.5,118.6,358.3,119.1z"/>
		<path d="M341.1,112.7c-0.8,1.6-1.1,3.5,0.1,5c0.9,1.1,2.8,1.8,4.7,1.9c3.3,0.2,7-0.1,9.8-1.3c1.6-0.6,0.7-2.2-1.1-2.2
			c0.1-1.6,0.2-3.3,0.3-4.9c1-4.3,2.3-8.5,3.7-12.7c0.1-0.5,0.4-1.1,0-1.6c-0.6-0.5-1.7-0.6-2.6-0.4c-1.2,0.3-1.7,1.1-2.1,1.8
			c-0.7,1.3-1.1,2.8-1.5,4.1c-0.8,0.3-1.5,0.7-2,1.1C346.4,106.1,342.7,109.2,341.1,112.7z M351.1,106.9c-0.6,2.2-1.2,4.5-1.6,6.7
			c-0.1,0.8-0.3,1.7,0.6,2.5c0.2,0.1,0.4,0.2,0.7,0.3c0,0.2,0,0.3,0,0.5c-1.9,0.2-3.8,0.3-5.7,0c-0.9-0.2-1-0.9-0.9-1.4
			c0.2-2.1,1.9-4.1,3.7-5.8c1-1,2.1-1.9,3.3-2.9C351.1,106.8,351.1,106.8,351.1,106.9z"/>
		<path d="M365.5,101.9c3.2-0.1,3.1-3.1-0.1-3C362.3,99,362.3,102,365.5,101.9z"/>
		<path d="M323.1,102.1c8.8-1.8,18-3.2,27.2-4h0.4l0.3-0.2c1.1-0.7,1.5-1.7,0.8-2.5c-0.6-0.6-1.8-1.1-3.8-0.9
			c-19.4,1.9-37.1,5.7-50.9,11c-1.2,0.3-2.3,1.2-2,2c0.1,0.3,0.6,0.8,2.1,0.8c0.2,0,0.3,0,0.6,0h0.2c2-0.5,4-1,5.9-1.5
			c1-0.3,2-0.6,3.1-0.8v0.1c0.7-0.2,1.3-0.4,1.9-0.6c0.4-0.1,0.9-0.2,1.3-0.3c-0.4,5.7-0.8,11.5-1.2,17.2c0,0.8-0.1,1.7,0.1,2.6
			c0.4,1.3,3.5,1.6,4.8,0.6c0.9-0.8,1-1.8,0.9-2.8c-0.3-6.2,0.3-12.5,1-18.7C318.3,103.3,320.8,102.7,323.1,102.1z"/>
		<path d="M389.2,102.9c-1.1,1.5-2.7,3.1-4.9,4.1c-0.3-1.9-1.2-3.8-3.2-5.2c-0.8-0.4-0.6-1.3-1.6-1.6c-1.1-0.4-2.5-0.3-3.6,0.1
			c-3,1-5.2,2.8-6.8,4.7c-0.8,0.6-1.2,1.2-1.6,1.9c-0.1,0.2-0.1,0.4-0.1,0.6c-0.1,0.2-0.2,0.4-0.3,0.7c-0.9,2.7-1.5,5.5,0.1,8.2
			c1,1.5,2.9,3.1,5.7,3.3c3.1,0.2,5.9-1.1,7.6-2.7c2-1.8,3.1-4,3.7-6.2c4.5-1.3,7.9-3.9,9.8-6.4
			C395.6,102.5,390.6,101.1,389.2,102.9z M376,116.1c-0.7,0.5-1.9,1.2-2.9,0.6c-1.7-1.2-1.9-3-1.9-4.6c0-0.4,0-0.8,0.1-1.2
			c1,0.3,2.1,0.6,3.1,0.7c1.7,0.2,3.2,0.3,4.8,0.2C378.6,113.4,377.6,114.8,376,116.1z M379.7,108.5c-1.5,0.2-3,0.2-4.4-0.1
			c-0.6-0.1-2.1-0.4-2.3-0.8l0,0c-0.2,0-0.3-0.1-0.6-0.1c0.9-1.5,2.3-3,4.2-4.1c2.3,1.1,2.9,3.1,2.9,4.8
			C379.7,108.2,379.7,108.4,379.7,108.5z"/>
	</g>
</g>
</svg>
