<?xml version="1.0" encoding="utf-8"?>
<!-- Generator: Adobe Illustrator 25.3.0, SVG Export Plug-In . SVG Version: 6.00 Build 0)  -->
<svg version="1.1" id="Capa_1" xmlns="http://www.w3.org/2000/svg" xmlns:xlink="http://www.w3.org/1999/xlink" x="0px" y="0px"
	 width="382px" height="150px" viewBox="0 0 382 150" style="enable-background:new 0 0 382 150;" xml:space="preserve">
<style type="text/css">
	.st0{fill:#E5332A;}
	.st1{fill:#FFFFFF;}
</style>
<path class="st0" d="M130.03,90.65c-13.7,33.52-51.99,49.59-85.51,35.89C-34.71,90.91,12.68-24.94,94.14,5.14
	C127.67,18.84,143.73,57.13,130.03,90.65z"/>
<path class="st1" d="M152.44,92.99c-3.45-2.63-6.53-5.76-9.16-9.21c2.22-0.03,4.69,0.29,6.69-0.88
	c-6.23-5.48-11.02-12.59-15.16-19.7c4.93-6.25,7.91-15.88,2.55-22.75c-2.59,0.19-5.05,1.15-7.52,1.89
	c0.26-6.71-0.07-13.92-3.57-19.84c-6.64-8.32-20.75-8.83-30.57-8.42c-0.79-7.59-12.67-7.39-13.24,1.14
	c-9.14,0.35-24.08,4.43-26.19,14.74c-0.37,2.73,0.4,5.42,0.92,8.08c-1.44-0.47-2.84-1.11-4.34-1.38c-0.22-0.06-0.47-0.03-0.59,0.18
	c-2.76,3.24-3.68,7.61-3.37,11.78c-8.11,0.92-19.51,3-24,10.58c-1.8,3.17-0.98,7.15,2.46,8.75c8.03,2.96,18.62-4.1,25.41-8.04
	c-2.62,3.93-5.8,7.51-8.95,11.04c-2.34,2.49-4.79,4.92-7.65,6.81c1.87,1.39,4.38,1.25,6.59,1.52c-2.93,3.22-6.33,6.02-9.98,8.38
	c3.7,0.94,7.54,1.34,11.36,1.11c-1.4,3.58-2.09,7.42-2.1,11.27c-3.91,0.07-7.86,0.65-11.76,1.47c-0.27,0.25-0.54,0.5-0.81,0.76
	c1.58,0.24,3.47,0.03,4.62,1.19l0.54,1.19c0.24,3.49,0.83,6.95,1.21,10.43c-0.01,0.01-0.03,0.02-0.04,0.02
	c-2.01,0.55-4.69,1.37-7.75,2.48c1.1,3.12,2.69,5.95,4.5,8.64c2.09,2.13,3.86,4.76,5.43,6.61c0.09,0.1,0.15,0.22,0.2,0.35
	c0.05,0.01,0.11,0.03,0.16,0.05c3.29,1.31,5.9,3.66,8.58,5.89c2.62,1.06,5.27,2.03,8.01,2.88c3.32,1.03,6.61,2.24,9.93,3.31
	c3.41-0.06,6.83-0.48,10.15-0.82c1.61-0.17,1.59,2.35,0,2.52c-0.85,0.09-1.7,0.18-2.56,0.27c1.04,0.17,2.08,0.3,3.13,0.36
	c2.33,0.14,4.62-0.11,6.94-0.2c2.17-0.08,4.34-0.05,6.51-0.04c0.1-0.25,0.2-0.49,0.31-0.74c0.57-1.29,2.29-0.48,2.29,0.72
	c1.65-0.03,3.3-0.1,4.95-0.28c2.3-0.25,4.24-1.1,6.27-2.15c2.02-1.04,4.05-1.94,6.19-2.7c2.55-0.91,5.09-1.75,7.57-2.75
	c1.07-0.48,2.14-0.96,3.21-1.43c0.84-0.41,1.67-0.86,2.48-1.34c3.78-2.25,7.3-4.92,10.38-8.06c2.94-3.01,5.2-6.31,7.11-10.05
	c1.51-2.95,2.97-6,5.14-8.53c-1.98-0.28-3.97-0.52-5.95-0.62c0.63-1.86,0.92-3.81,1.17-5.75c0.78,0.99,1.16,2.23,1.52,3.42
	c1.15-4.53,0.58-9.53-0.59-14.02C144.84,93.67,148.7,93.7,152.44,92.99z"/>
<g>
	<path d="M60.81,41.45c-1.5-7.25,0.46-15.34,6.35-20.14C57.18,24.55,56.84,33.08,60.81,41.45z"/>
	<path d="M98.2,57.71c-0.08,0.63,0.48,1.07,0.92,1.41c1.67,1.19,3.94,1.24,5.79,0.45c-2.02,0.01-4.22-0.26-5.8-1.64
		C98.87,57.75,98.47,57.33,98.2,57.71z"/>
	<path d="M96.84,98.56c2.42-1.02,5.35-2.32,6.46-4.87c-0.5-0.69-1.39-0.53-1.98-0.06c-1.37,1.03-2.48,2.4-3.99,3.25
		c-3.56,2.03-7.76,2.71-11.81,2.52c0.15,0.39,0.3,0.79,0.46,1.18C89.68,100.53,93.38,99.87,96.84,98.56z"/>
	<path d="M97.22,100.04c-1.53,0.9-3.06,1.79-4.59,2.69c-0.83,0.49-0.07,1.78,0.77,1.29c1.53-0.9,3.06-1.79,4.59-2.69
		C98.81,100.84,98.05,99.55,97.22,100.04z"/>
	<path d="M57.03,102.2c-0.34-3.01-0.86-6.05-0.55-9.09c0.39,2.49,0.73,4.98,1.23,7.45c0.21-0.59,0.5-1.16,0.96-1.61
		c2.85,7.41,7.24,14.68,13.82,19.31c-1.09-1.49-2.39-2.91-2.95-4.72c0.26,0.28,0.5,0.59,0.73,0.9c-0.01,0-0.01-0.01-0.02-0.01
		c1.74,2.44,4.14,4.3,6.63,5.93c0.17,0.04,0.34,0.07,0.51,0.11c-0.35-0.33-0.71-0.64-1.07-0.96c1.04,0.63,2.11,1.19,3.22,1.64
		c-1.4-1.05-2.83-2.1-4.26-3.14c-0.01-0.02-0.02-0.04-0.03-0.05c4.05,2.81,8.62,5.01,13.4,6.21c-7.94-6.44-13.94-15.03-17.87-24.44
		c0.52,2.61,1.61,5.06,2.68,7.49c-2.33-1.71-3.98-4.12-5.58-6.48c1.25,4.26,4.1,7.84,7.04,11.07c-5.07-3.52-8.44-8.98-11.56-14.18
		c2.58,7.85,8.16,14.41,14.66,19.37c-2.62-1.34-4.84-3.31-7-5.27c0.19,0.39,0.39,0.78,0.6,1.17c-7.72-6.05-11.61-15.85-12.29-25.45
		c-0.43,3.88,0.19,7.78,0.86,11.6c-1.52-3.29-1.74-7.04-1.93-10.61c-0.37,1.05-0.36,2.17-0.49,3.26c-0.93-5.25-0.3-10.61,0.6-15.81
		c-1.39,3.94-2.02,8.09-2.54,12.22c-0.1-3.59,0.48-7.14,1.04-10.67C53.8,85.29,53.97,94.38,57.03,102.2z"/>
	<path d="M98.96,118.5c-2.29,2.23-4.87,4.15-7.53,5.91c5.34-0.88,10.39-2.95,15.12-5.53c-0.89,1.14-2.18,1.86-3.31,2.74
		c0.17-0.02,0.35-0.04,0.52-0.06c2.23-1.2,4.41-2.55,6.22-4.34c0.67-0.64,1.21-1.4,1.86-2.06c-0.85,1.97-2.35,3.56-3.93,4.97
		c7.13-3.94,12.38-11.04,15.91-18.24c0.41,0.48,0.64,1.08,0.8,1.69c0.73-2.41,1.26-4.87,1.91-7.3c0.01,3.06-0.79,6.02-1.37,8.99
		c3.73-7.53,4.73-16.54,2.38-24.64c0.26,3.57,0.47,7.15,0.12,10.72c-0.22-4.1-0.4-8.24-1.44-12.23c0.38,5.18,0.54,10.46-0.82,15.53
		c-0.07-1.07,0.03-2.15-0.21-3.2c-0.52,3.66-1.15,7.43-2.99,10.69c1.13-3.86,2.05-7.84,2.03-11.89
		c-1.51,9.54-6.27,18.99-14.52,24.38c0.19-0.34,0.39-0.68,0.58-1.01c-2.19,1.57-4.34,3.3-6.87,4.27
		c6.56-4.39,12.66-10.14,15.74-17.55c-3.55,4.87-7.4,9.89-12.68,12.96c3.2-3,6.39-6.29,8.02-10.43c-1.81,2.2-3.67,4.48-6.15,5.96
		c1.22-2.22,2.54-4.45,3.22-6.91C108.17,107.98,104.06,113.72,98.96,118.5z"/>
	<path d="M82.37,115.61c0.14-0.48,0.3-0.95,0.49-1.4c1.82,3.49,4.47,6.5,7.38,9.12c3.06-2.42,6-5.11,8.12-8.42
		c0.15,0.47,0.26,0.95,0.37,1.43c3.06-2.91,6.13-6.25,7.23-10.43c-1.86,2.83-3.69,5.79-6.35,7.96c0.06-1.52,0.08-3.05-0.22-4.54
		c-0.77,4.25-3.06,6.47-6.67,8.58c-0.84,0.5-1.67,1.03-2.35,1.74c-0.97-1.23-2.37-2-3.55-3c-2.67-2.07-4.28-4.71-4.47-8.12
		c-0.49,1.46-0.58,3.01-0.65,4.54c-2.44-2.41-4-5.51-5.6-8.49C76.82,108.84,79.58,112.44,82.37,115.61z"/>
	<g>
		<path d="M26.47,67.02c8.03,2.96,18.62-4.1,25.41-8.04c-2.62,3.93-5.8,7.51-8.95,11.04c-2.34,2.49-4.79,4.92-7.65,6.81
			c1.87,1.39,4.38,1.25,6.59,1.52c-2.93,3.22-6.33,6.02-9.98,8.38c3.7,0.94,7.54,1.34,11.36,1.11c-1.4,3.58-2.09,7.42-2.1,11.27
			c-3.91,0.07-7.86,0.65-11.76,1.47c-0.27,0.25-0.54,0.5-0.81,0.76c1.58,0.24,3.47,0.03,4.62,1.19l0.54,1.19
			c0.24,3.49,0.83,6.95,1.21,10.43c-0.01,0.01-0.03,0.02-0.04,0.02c-2.94,0.81-7.33,2.18-12.23,4.22
			c1.62,2.81,20.77,34.16,67.01,30.27c-0.31-0.16-0.53-0.47-0.54-0.93c-0.02-4.49,0.1-8.98,0.13-13.48
			c-0.5-0.04-0.81-0.47-0.87-0.93c-2.74-0.78-4.97-2.73-7.59-3.83c-5.45-2.17-10.18-5.52-14.78-9.15c-0.43-0.03-0.76-0.51-1.02-0.84
			c-2.65-2.25-5.04-4.79-6.65-7.89c-0.35-0.68,0.03-1.63,0.84-1.68c0.05-0.2,0.16-0.38,0.32-0.51c-0.51-0.23-1-0.49-1.49-0.75
			c-0.92-2.29-1.7-4.64-2.35-7.02c-1.45,1.48-3.16,2.74-5.03,3.64c-0.72-0.59-1.17-1.38-1.35-2.31c-0.18-0.89,0.33-1.98,0.17-2.79
			c-0.05-0.01-0.11-0.03-0.18-0.05c1.42-6.31,0.66-13.19,3.84-19.05c-0.83,0.46-1.37,1.25-1.96,1.97c-0.33,0.45-0.93,0.49-1.42,0.65
			c-2.5,0.69-5.11,0.75-7.69,0.69c0.53-0.42,1.18-0.62,1.74-0.98c1.37-0.85,2.64-1.86,3.85-2.93c0.16-0.16,0.4-0.32,0.32-0.59
			c-3.44,2.23-7.32,3.8-11.33,4.64c3.15-2.05,5.85-4.78,8.08-7.79c-2.08,0.4-4.28,0.5-6.31-0.21c1.87-1.38,3.59-2.95,5.31-4.51
			c0.38-0.62,0.98-1.04,1.47-1.55c1.45-1.52,2.93-3.02,4.3-4.62c0.25-0.3,0.53-0.58,0.84-0.82c-0.85,1.74-2.34,3.05-3.43,4.62
			c2.01-1.44,3.48-3.46,5.19-5.21c-0.47,1.25-1.47,2.18-2.17,3.3c1.74-1.17,3.04-2.86,4.45-4.39c-0.35,1.21-1.29,2.1-1.93,3.15
			c1.24-0.66,1.98-1.93,3.03-2.82c-1.32,2.93-4.43,5.08-7.41,6.09c1.43,1.55,2.19,2.14,4.37,2.09c0.56,1.63-7.23,6.87-8.65,8.19
			c5.17-2.66,10.57-7.15,13.98-11.86c-2.56,1.12-5.36,1.73-8.16,1.58c0.1-0.11,0.23-0.17,0.37-0.18c3.1-1,5.41-3.44,7.08-6.15
			c1.19,6.26,2.82,12.68,10,13.98c0.11-0.01,0.22,0,0.32,0.05l0.08,0.03c0.13-0.01,0.27,0,0.39,0.05c0.32,0.07,0.65,0.02,0.98,0.04
			l0,0.07c0.74,0,1.49-0.01,2.23-0.01c-0.48,0.69-0.94,1.4-1.34,2.14c0.69-0.71,1.35-1.47,2.05-2.17c0.18-0.02,0.36-0.05,0.55-0.05
			c-0.71,1.17-1.2,2.47-1.66,3.76c-0.34,1.02-0.9,1.94-1.39,2.89c1.2-1.04,1.95-2.48,2.69-3.86c-0.55,3.58-2.49,6.73-4.6,9.6
			c1.63-1.07,2.81-2.68,3.99-4.21c-0.3,3.11-2.04,5.77-3.83,8.23c1.47-0.8,2.57-2.14,3.44-3.55c0.03,2.9-1.3,5.57-2.7,8.03
			c1.23-0.67,2.1-1.81,2.8-2.99c0.53,3.79,1.89,7.53,4.28,10.54c-2.96-7.25-3.09-15.52-0.78-22.97c0.54,0.93,0.49,2.05,0.59,3.08
			c0.54-1.68,0.58-3.46,0.54-5.21c0.61,0.56,0.95,1.32,1.41,2c-0.25-2.07-1.76-3.71-2.23-5.72c0.13-0.05,0.26-0.1,0.4-0.08
			c0.54-0.11,1.07-0.24,1.61-0.38c0.12,0.32,0.26,0.63,0.41,0.93c0.04-0.35,0.03-0.7,0.02-1.05c0.53-0.16,1.06-0.34,1.56-0.56
			c-1.72,5.03,4.16,5.73,7.62,4.33c-0.59-0.55-1.35-0.96-1.69-1.72c-0.42-0.86,0.02-1.92,0.79-2.42c0.83-0.6,2.03-0.57,2.8,0.13
			c1.04,0.97,1.29,2.47,1.51,3.81c0.44,2.17-0.43,4.71,2.84,4.22c0.58-0.08,0.95-0.61,1.06-1.15c0.57-2.35,0.94-7.93,4.57-6.78
			c0.99,0.37,1.76,1.55,1.34,2.6c-0.33,0.9-1.26,1.28-1.96,1.82c3.79,1.89,9.67,1.33,7.82-4.26c0.58,0.14,1.16,0.25,1.74,0.36
			c-0.01,0.66-0.07,1.31-0.19,1.96c0.41-0.55,0.71-1.19,0.95-1.85c0.07,0,0.13,0,0.19,0.03c0.04,0.01,0.13,0.02,0.17,0.03
			c0.13-0.02,0.26-0.01,0.39,0.04c0.22,0.03,0.5,0.05,0.72,0.08c0.15,0.04,0.31,0.03,0.47,0.04c-0.33,2.58-2.45,4.4-3.13,6.84
			c0.58-0.56,0.94-1.3,1.59-1.79c-0.19,1.73-0.34,3.51,0.08,5.21c0.14-1.03,0.27-2.1,0.81-3.01c1.74,7.53,0.74,15.67-2.66,22.6
			c2.64-2.66,4.19-6.29,5.07-9.89c0.6,1.23,1.34,2.46,2.52,3.22c-1.17-2.56-2.27-5.34-1.94-8.21c0.72,1.48,1.7,2.92,3.1,3.82
			c-1.59-2.55-3.02-5.37-3.09-8.45c1.11,1.54,2.05,3.28,3.6,4.44c-1.84-3-3.44-6.27-3.71-9.84c0.68,1.37,1.22,2.87,2.33,3.97
			c-1.31-2.62-1.47-5.68-3.15-8.13c1.11,0.95,1.85,2.23,2.86,3.26c-0.55-1.42-1.4-2.71-2.24-3.98c0.52-0.01,1.04,0.02,1.55-0.03
			l-0.01-0.04c0.27-0.05,0.55,0.03,0.81-0.06c0.1-0.05,0.21-0.06,0.32-0.06c0.16-0.05,0.31-0.09,0.48-0.1
			c0.1-0.06,0.21-0.07,0.32-0.06c0.43-0.07,0.96-0.19,1.3-0.4c6.02-1.78,7.37-8.74,8.33-14.13c-0.02-0.11-0.01-0.22,0.04-0.31
			c0.09-0.21,0.14-0.43,0.12-0.66c-0.02-0.11,0-0.22,0.06-0.32c0-0.13,0.02-0.27,0.06-0.39c0.01-0.05,0.03-0.11,0.04-0.16
			c3.09,4.97,4.02,10.32,9.95,12.92c-0.1-0.03-0.31-0.09-0.41-0.12c-0.7,0.14-1.41-0.06-2.1-0.17c-1.91-0.34-3.72-1.09-5.43-2
			c2.99,5.01,7.64,9.63,12.5,12.84c-2.46-2.28-6.43-5.27-6.91-8.77c-0.04-0.41,0.37-0.63,0.71-0.72c1.08-0.31,2.25-0.3,3.24-0.89
			c-2.8-1.26-5.61-3.5-6.72-6.43c1.09,0.91,1.71,2.3,2.92,3.09c-0.65-1.1-1.57-2.09-1.83-3.38c0.54,0.46,0.86,1.11,1.3,1.66
			c0.83,1,1.61,2.06,2.64,2.85c-0.54-1.09-1.42-2.01-1.74-3.2c0.18,0.17,0.37,0.34,0.52,0.54c1.23,1.72,2.49,3.45,4.07,4.86
			c-0.95-1.66-2.34-3.09-3.02-4.91c1.54,1.81,2.92,3.86,4.48,5.69c0.46,0.59,1.06,1.08,1.38,1.78c1.63,1.69,3.17,3.47,4.95,5
			c-2.05,0.61-4.24,0.22-6.27-0.3c1.96,3.19,4.37,6.16,7.34,8.46c-4.14-1.23-7.99-3.34-11.38-5.99c0.07,0.16,0.13,0.34,0.26,0.47
			c1.43,1.43,2.83,2.92,4.51,4.06c0.42,0.27,0.87,0.5,1.24,0.84c-2.96-0.22-6.03-0.53-8.72-1.87c-0.71-0.77-1.11-1.82-2.01-2.43
			c1.27,3.22,1.73,6.71,1.76,10.16c0.11,3.89-0.3,7.91,0.94,11.67c0.02-3.74,0.13-7.54,1.2-11.15c-0.49,5.1-0.7,10.31,0.41,15.36
			c-3.46-0.86-6.45-3.07-8.72-5.77c-1.51,4.2-3.53,8.21-5.92,11.98l-3.58,2.48c1.24-1.65,2.35-3.4,3.3-5.22
			c-0.79,0.6-1.55,1.23-2.3,1.89c-2.3,2.97-4.75,6.02-7.95,8.05c-4.64,4.74-11.91,10.03-18.56,10.36
			c-0.03,4.44-0.15,8.89-0.13,13.33c0,0.37-0.14,0.64-0.36,0.82c1.69-0.17,3.42-0.38,5.18-0.64c0,0,39.33-7.9,49.82-37.09l0.1,1.07
			l0.5-1.74l-0.06,0.01c-0.38-0.27-0.75-0.53-1.13-0.8c-2.44-0.36-4.89-0.7-7.33-0.82c0.63-1.86,0.92-3.81,1.17-5.75
			c0.78,0.99,1.16,2.23,1.52,3.42c1.15-4.53,0.58-9.53-0.59-14.02c3.76,0.55,7.62,0.59,11.36-0.13c-3.45-2.63-6.53-5.76-9.16-9.21
			c2.22-0.03,4.69,0.29,6.69-0.88c-6.23-5.48-11.02-12.59-15.16-19.7c4.93-6.25,7.91-15.88,2.55-22.75
			c-2.59,0.19-5.05,1.15-7.52,1.89c0.26-6.71-0.07-13.92-3.57-19.84c-6.64-8.32-20.75-8.83-30.57-8.42
			c-0.79-7.59-12.67-7.39-13.24,1.14c-9.14,0.35-24.08,4.43-26.19,14.74c-0.37,2.73,0.4,5.42,0.92,8.08
			c-1.44-0.47-2.84-1.11-4.34-1.38c-0.22-0.06-0.47-0.03-0.59,0.18c-2.76,3.24-3.68,7.61-3.37,11.78c-8.11,0.92-19.51,3-24,10.58
			C22.21,61.45,23.03,65.43,26.47,67.02z M42.68,99.11c0.16-0.23,0.33-0.45,0.53-0.66c0.01,0.22,0.01,0.45,0.02,0.67
			C43.05,99.12,42.86,99.12,42.68,99.11z M48.33,91.38c0.47,2.83,0.56,5.72,0.36,8.58c-0.26-0.08-0.52-0.21-0.76-0.27
			C48.3,96.93,48.22,94.14,48.33,91.38z M138.23,111.26l-0.76,0.1c-0.01-0.36-0.01-0.72-0.01-1.08c0.23-0.57,0.44-1.15,0.63-1.73
			C138.11,109.45,138.16,110.36,138.23,111.26z M76.4,74.98c-0.59,0.18-1.19,0.34-1.8,0.47c-0.04-0.61-0.03-1.23,0-1.84
			c-0.81,0.61-1.48,1.39-2.12,2.17c-0.1,0-0.2,0.01-0.27,0.01c-0.92,0.22-1.89,0.09-2.82-0.01c-0.06,0.02-0.19,0.07-0.25,0.09
			c-0.11-0.03-0.22-0.07-0.31-0.13c-0.06-0.01-0.17-0.02-0.23-0.03c-0.14,0.05-0.31,0.06-0.43-0.04l-0.06-0.03
			c-0.14,0.05-0.3,0.06-0.42-0.04c-4.55-0.74-7.24-5.21-8.07-9.42c-0.1-0.09-0.1-0.23-0.05-0.35l-0.03-0.06
			c-0.1-0.09-0.1-0.23-0.06-0.34c-0.01-0.1-0.02-0.21-0.03-0.31c-0.1-0.12-0.1-0.27-0.07-0.41c-0.12-0.1-0.12-0.27-0.07-0.4
			c-0.04-0.14-0.03-0.28,0-0.41l-0.03-0.06c-0.14-0.16-0.17-0.35-0.07-0.59c-0.01-0.31-0.04-0.66-0.09-0.97c-0.01-0.4,0-0.8,0-1.2
			c-0.05-0.14-0.05-0.3,0.04-0.42c0.05-0.35,0.14-0.69,0.25-1.03c0.6-0.93,1.25-1.84,1.98-2.66c0.37-0.27,0.77-0.5,1.18-0.69
			c1.48,0.91,3.23-0.01,4.78-0.28c4.2-1.03,8.58-0.91,12.83-0.36c1.67,0.43,3.33,1.3,4.2,2.83c-1.03,0.15-2.1,0.13-3.11,0.06
			c1.06,0.54,2.29,0.82,3.49,0.73c0.12,0.31,0.2,0.63,0.26,0.95c-1.65,0.21-3.37-0.16-4.97-0.6c-5.47-1.46-14.24-5.15-16.88,2.24
			c1.26-0.86,3.43-1.73,4.25,0.11c1.14,2.52,2.19,5.18,4.96,6.29c-0.63-0.87-1.5-1.61-1.78-2.69c0.99,0.88,1.75,2.07,3.02,2.59
			c-0.91-1.17-2.08-2.24-2.41-3.76c0.97,1.04,1.72,2.35,2.98,3.08c-0.46-0.88-1.12-1.65-1.42-2.61c3.22,2.13,4.85,0.73,8.13,0.19
			c-0.78,0.55-1.69,0.95-2.29,1.72c1.55-0.66,3.05-1.52,4.74-1.75c-0.48,0.36-1,0.66-1.52,0.95C78.81,67.86,75.78,71.15,76.4,74.98z
			 M80.88,53.08c9.22-1.64,18.7-2.11,28.05-2.04c-2.53,0.71-5.05,1.43-7.62,1.95c3.55,0.65,6.98-0.73,10.39-1.51
			c1.28-0.24,2.62-0.58,3.92-0.33c-1.29,0.33-2.73,0.49-3.79,1.38c1.89-0.17,3.73-0.64,5.57-1.05c-0.66,0.68-1.6,0.97-2.47,1.27
			c-0.12,0-0.24,0-0.36,0l0-0.08c-2.38,0.01-4.76,0-7.13,0.13l0.04,0.06c-0.55-0.01-1.09,0.07-1.64,0.12l0,0.05
			c-0.13,0.01-0.26,0.02-0.39,0.02c-0.15,0.06-0.31,0.1-0.48,0.08c-0.06,0.01-0.19,0.03-0.26,0.04c-0.1,0.05-0.2,0.06-0.31,0.05
			c-0.23-0.02-0.44,0.06-0.66,0.13c-0.26,0.1-0.56-0.03-0.81,0.15l-0.01,0.05c-0.27,0.01-0.54,0-0.79,0.13
			c-0.1,0.05-0.2,0.06-0.31,0.05c-1.82,0.41-3.63,0.91-5.3,1.77c0.15-0.13,0.31-0.25,0.46-0.39c-0.69,0.23-1.34,0.56-1.95,0.96
			c-0.08,0.02-0.16,0.05-0.24,0.07c-0.1,0.05-0.2,0.06-0.31,0.05c-0.44,0.09-0.91,0.08-1.36,0.12c-0.39,0.08-0.79,0.04-1.19,0.06
			c-0.73-0.67-1.52-1.25-2.44-1.62c0.53,0.54,1.11,1.06,1.62,1.63c-0.31,0-0.61,0-0.92,0.01c-0.38-0.24-0.76-0.46-1.19-0.62
			c0.2,0.23,0.43,0.42,0.65,0.62c-0.64,0.02-1.28-0.01-1.91-0.07c-0.13,0.01-0.26,0.01-0.39-0.04c-1.95-0.48-3.61-1.75-5.62-2.06
			c-0.51-0.16-1.44-0.37-2.13-0.45c1.23,0.02,2.49,0.15,3.71-0.13C82.53,53.38,81.7,53.26,80.88,53.08z M98.03,64.82
			c-0.33-0.29-0.7-0.55-1.07-0.78c0-0.01,0-0.03,0.01-0.04c-0.01-0.04-0.03-0.11-0.04-0.14c-0.1-0.75-0.04-1.52-0.07-2.27
			c0.02-0.22,0.04-0.5,0.09-0.71c-0.05-0.12-0.05-0.25,0.05-0.34c0.04-0.27,0.09-0.55,0.16-0.82
			C96.93,61.43,97.37,63.24,98.03,64.82z M87.9,64.2c0.06-0.22,0.11-0.44,0.16-0.66c0.3-0.67,0.54-1.37,0.71-2.08
			c0.36-0.53,0.88-0.95,1.51-1.14c1.41-0.73,2.78-0.1,3.43,1.29c0.72,1.36,0.76,2.95,1.41,4.34c0.52,1.27,1.15,2.49,1.82,3.68
			c-3.76-1.03-7.86-0.92-11.55,0.35c0.81-1.36,1.5-2.8,2.04-4.29c0.97-1.06,1.98-2.07,3.36-2.57C89.73,63.16,88.77,63.63,87.9,64.2z
			 M79.4,63.3c-1.64,0.5-3.43,0.37-5.07-0.08c-1.44-0.43-2.86-1.19-3.76-2.42c-0.28-0.33-0.42-1.03,0.14-1.15
			c0.56-0.13,1.13,0.03,1.68,0.16c2.08,0.56,4.16,1.15,6.22,1.75c0.57,0.22,1.26,0.35,1.62,0.89C80.36,62.94,79.76,63.16,79.4,63.3z
			 M77.45,74.64c0.51-2.98,2.45-5.83,5.35-6.88c0.5-0.2,1.02-0.28,1.54-0.33C83.11,70.58,80.87,73.72,77.45,74.64z M83.82,72.38
			C83.82,72.37,83.83,72.37,83.82,72.38c3.84-2.76,9.75-2.51,14.09-1.1c0.24,0.4,0.49,0.8,0.74,1.2
			C93.8,71.4,88.68,71.29,83.82,72.38z M104.46,74.38c-1.15-1.8-2.99-3.03-4.92-3.87c-1.11-1.56-1.95-3.33-2.36-5.2
			c-0.09-0.09-0.1-0.22-0.06-0.33c-0.07-0.04-0.09-0.1-0.1-0.17c0.93,1.01,1.62,2.31,2.97,2.81c-0.36,0.1-0.7,0.24-1.03,0.4
			c4.31-0.33,7.61,3,8.21,7.11C106.25,74.94,105.35,74.7,104.46,74.38z M110.74,75.74c-0.17-0.18-0.34-0.37-0.52-0.54
			c-0.01,0.17-0.02,0.33-0.03,0.5c-0.55-0.03-1.09-0.2-1.63-0.27l-0.05-0.03c-0.02,0.01-0.04,0-0.05,0.01
			c0.3-3.02-1.62-5.77-3.81-7.65c-0.75-0.68-1.64-1.18-2.38-1.87c1.66,0.39,3.06,1.37,4.54,2.16c-0.51-0.84-1.41-1.28-2.12-1.91
			c3.32,0.85,4.6,2.35,8.14,0.54c-0.47,1.06-1.28,1.91-2.07,2.74c1.5-0.66,2.49-2,3.67-3.08c-0.46,1.47-1.72,2.44-2.72,3.53
			c1.3-0.42,2.17-1.52,3.24-2.32c-0.45,1.13-1.43,1.9-2.34,2.65c6.42-1.85,4.35-9.88,10.03-5.72c-3.23-11.92-21.78,2.21-24.87-6.27
			c1.13-1.8,3.26-2.55,5.22-3.05c0.11-0.01,0.21-0.01,0.32-0.01c0.08-0.11,0.23-0.1,0.34-0.05l0.05-0.04c0.03,0,0.07-0.01,0.1-0.01
			c2.96,0.19,5.95,0.26,8.89-0.24c0.72,0.07,1.44,0.05,2.16,0.13c0.17-0.01,0.33-0.02,0.5-0.03c0.09,0.02,0.17,0.05,0.26,0.08
			c0.37,0.03,0.73,0.06,1.1,0.09c0.11-0.04,0.25-0.05,0.34,0.05c0.3,0.05,0.6,0.1,0.9,0.15c2.1,0.71,4.32,2.04,4.87,4.35
			c0.1,0.09,0.1,0.22,0.06,0.34C123.79,67.99,119.98,76.61,110.74,75.74z M105.97,63.28c0.6-0.3,1.26-0.41,1.91-0.55
			c2.02-0.37,4.03-0.78,6.06-1.11c0.56-0.05,1.29-0.22,1.7,0.27c0.19,0.5-0.27,0.95-0.6,1.28c-1.91,1.68-4.64,2.15-7.1,1.78
			C107.3,64.9,104.53,64.12,105.97,63.28z M128.66,42.8c2.11-0.96,4.31-1.77,6.59-2.22c0.82,0.69,1.35,1.64,1.69,2.65
			c0.02,0.02,0.06,0.07,0.08,0.09c0.05,0.37,0.1,0.73,0.13,1.1c-0.4-0.64-0.77-1.31-1.29-1.87c0.5,3.05,0.41,6.34-1.08,9.11
			c0.21-1.65,0.68-3.32,0.44-4.99c-0.71,3.7-2.22,7.68-5.47,9.85c0.76-1.3,1.56-2.62,1.83-4.13c-1.03,1.44-2.27,2.85-3.78,3.81
			c0.01-0.06,0-0.13,0.02-0.2c0.05-0.79,0.02-1.4,0.1-2.29c-0.16-0.04-0.32-0.09-0.48-0.14c-0.14,0.01-0.27,0-0.4-0.05
			c-0.04-0.01-0.13-0.02-0.17-0.03c-2.98-0.32-6.02-0.51-9.02-0.6c2.72-1.32,5.56-2.05,8.56-1.26c1.86-2.34,3.91-4.51,6.15-6.49
			c-2.27,0.83-3.94,2.66-5.6,4.33c0.28-0.78,0.81-1.42,1.3-2.07c1.22-1.5,2.67-2.81,4.25-3.92c0.24-0.17,0.46-0.37,0.67-0.57
			c-1.85,0.72-3.5,1.89-5,3.17c0.77-1.37,1.99-2.39,3.12-3.45c-0.98,0.25-1.85,0.78-2.73,1.26
			C128.58,43.53,128.62,43.17,128.66,42.8z M112.42,42.83c4.86,0.66,9.89,1,14.44,3c-6.15-1.14-12.53-1.99-18.75-0.91
			c6.08,0.13,12.29,0.4,18.12,2.24c-7.89-0.99-15.97-1.46-23.83,0c7.28,0.03,14.78-0.1,21.78,2.17
			c-17.61-0.41-35.44-0.09-52.72,3.61c-0.43,0-0.85,0-1.28,0.01c4.98-2.08,10.08-3.93,15.32-5.25c-5.99,0.91-11.96,2.13-17.71,4.05
			c5.82-3.04,12.2-5,18.63-6.25c-6.44,0.5-12.87,1.98-18.88,4.36c2.13-1.69,4.58-2.94,7.12-3.88c-2.42,0.21-4.82,0.69-7.19,1.2
			c19.27-7.24,40.85-7.88,60.81-3.23C123.02,43.2,117.72,42.85,112.42,42.83z M91.78,30.57c1.19-1.56,2.29-3.19,3.14-4.97
			c0.29-0.59,0.48-1.22,0.82-1.79c0.18,5.24-1.76,10.57-5.13,14.56c1.1-2.68,2.24-5.39,2.72-8.27c-1.32,1.73-2.59,3.58-4.41,4.82
			c0.84-2,1.39-4.11,1.65-6.26c-0.93,0.81-2.06,1.35-3.26,1.62c2.97-2.01,5.28-4.88,6.83-8.11c-0.39,3.13-1.46,6.15-2.9,8.95
			C91.42,30.94,91.62,30.77,91.78,30.57z M99.33,33.5c1.35-1.25,2.84-2.39,3.89-3.92c0.25,3.03-1,6.14-3.14,8.28
			c0.87-1.78,1.77-3.59,2.12-5.56C101.26,32.73,100.35,33.28,99.33,33.5z M57.6,29.01c1.94-8.3,13.54-11.67,20.97-12.78
			c-5.46,3.96-6.64,11.26-6.87,17.58l0.12-0.14c1-20.83,24.53-26.98,34.11-7.93c1.69,3.14,2.79,6.61,3.58,10.09
			c0.61-8.18-3.77-16.3-10.87-20.37c13.5-0.91,27.58,0.48,28.01,17.21c-0.88-5.1-2.81-11.69-8.29-13.44
			c2.32,2.88,3.74,6.4,4.41,10.02c-2.03-3.1-5.29-5.27-8.8-6.34c4.34,2.98,7.26,8.16,6.91,13.48c-0.24-1.72-0.87-3.35-1.62-4.9
			c0.43,2.42,0.55,5.57-1.76,7.1c-0.67,0.46-1.52,0.38-2.28,0.49c-3.66,0.26-7.34,0.25-11.01,0.22c0.18-0.79,0.2-1.62,0.02-2.41
			c-0.13-0.41,0.17-0.76,0.32-1.11c1.53-3.09,1.17-6.9-0.51-9.85c-0.77,1.38-1.97,2.46-3.26,3.34c-0.65-0.94-1.46-1.75-2.27-2.54
			c-0.25-3.41-1.45-6.79-3.62-9.45c-0.74,2.38-2.1,4.64-4.11,6.15c-6.56-0.15-11.29,4.12-13.16,10.2c0.22-3.45,1.34-6.84,3.13-9.79
			c-1.92,1.64-3.14,3.91-4.19,6.17c-0.07-3.11,0.68-6.13,1.59-9.07c-4.27,6.43-5.09,14.53-4.53,22.07
			c-0.06,0.04-0.19,0.11-0.25,0.15c-3.97,1.01-7.77,2.64-11.24,4.81c-0.14,0.18-0.35,0.28-0.53,0.41
			C59.68,42.66,56.75,35.02,57.6,29.01z M52.77,36.87c1.42,0.41,2.79,0.99,4.13,1.61c0.27,0.05,0.51,0.24,0.7,0.44
			c0.06,0.28,0.08,0.58,0.11,0.87c-0.39-0.17-0.77-0.34-1.16-0.49c0.98,1.12,2.11,2.17,2.69,3.58c-1.35-1.28-2.75-2.58-4.46-3.37
			c2.19,2.13,4.56,4.28,5.61,7.24c-1.49-1.94-3.06-3.96-5.31-5.05c0.41,0.52,0.93,0.94,1.37,1.44c2.71,2.82,3.01,6.92,4.94,10.18
			c-0.12,0.01-0.25,0.02-0.37,0.01c-0.79-0.44-1.46-1.05-2.05-1.73c0.3,0.68,0.74,1.26,1.21,1.82c-0.29,0.01-0.58-0.03-0.86,0.04
			c-1.05-0.7-1.98-1.59-2.73-2.6c-0.46-0.57-0.76-1.25-1.21-1.83c0.12,1.49,0.81,2.83,1.39,4.17c-3.04-2.46-4.11-6.52-4.52-10.25
			c-0.35,1.65-0.09,3.35,0.02,5.02c-1.27-2.88-1.05-6.18-0.27-9.16c-0.57,0.49-1.01,1.1-1.42,1.73
			C50.72,39.08,51.61,37.73,52.77,36.87z M25.04,60.66c1.31-7.3,16.63-11.45,23.07-12c-2.65,0.67-5.38,1.15-7.87,2.34
			c2.67-0.74,5.4-1.32,8.17-1.48c-2.81,0.46-5.57,1.26-8.2,2.36c2.7-0.59,5.41-1.3,8.18-1.47c-6.11,1.49-17.85,4.58-19.42,11.57
			c0.96-1.43,2.34-2.52,3.91-3.22c-0.83,3.17,1.12,3.8,3.84,3.15c-0.51,0.67-1.22,1.14-1.94,1.55c5.9-0.64,11.18-3.72,16.28-6.55
			c-1.11,0.95-2.4,1.66-3.57,2.54c1.45-0.49,2.8-1.22,4.22-1.79c-2.97,1.9-6.09,3.59-9.34,4.97c-4.51,1.81-11.32,4.1-15.79,1.28
			C25.55,63.2,24.89,61.93,25.04,60.66z"/>
	</g>
	<path d="M0.77,138.49l-0.76,0.1C0,138.23,0,137.87,0,137.51c0.23-0.57,0.44-1.15,0.63-1.73C0.66,136.68,0.7,137.59,0.77,138.49z"/>
</g>
<g>
	<g>
		<path d="M194.01,87.35c-2.8,9.3-5.63,19.66-7.89,28.98c0.01,0.98-0.57,1.16-1.43,1.15c-0.44-0.02-0.97-0.1-1.56-0.26
			c-0.6-0.15-1.24-0.32-1.92-0.49c-1.4-0.41-2.49-0.91-3.28-1.51c-0.79-0.6-1.02-1.51-0.72-2.74c0.35-3.04,0.95-6.24,1.59-9.63
			c-2.89,0.42-5.57,0.74-8.45,1.23c-0.99,4.14-1.61,8.35-2.25,12.19c-0.37,1.41-0.86,1.39-2.41,1.08c-1.56-0.47-3.6-0.83-4.97-1.64
			c-0.79-0.38-1.35-0.81-1.69-1.31c-0.34-0.49-0.41-1.19-0.2-2.07c0.51-2.36,0.99-5.1,1.43-8.24c1.36-9.4,2.37-20.11,3.69-29.44
			c0.57-2.2,1.4-2.41,3.43-1.69c2.6,0.75,5.9,2.11,7.96,3.84c0.98,0.88,0.81,1.72,0.54,2.92c-1.3,4.65-2.43,10.13-3.63,15.31
			c2.76-0.34,5.55-0.5,8.24-0.72c1.59-6.62,3.16-14.22,4.86-20.48c0.31-1.09,0.74-1.72,1.31-1.87c1.54-0.33,3.86,0.66,5.5,1.38
			c1.52,0.74,4,1.95,4.64,3.35c0.19,0.48,0.14,1.16-0.13,2.05C195.85,81.31,194.96,84.17,194.01,87.35z"/>
	</g>
	<g>
		<path d="M204.71,104.37c-1.85,0.26-3.49,0.58-4.9,0.95c-0.94,1.8-1.61,3.39-2.39,5.15c-0.2,0.42-0.44,0.67-0.73,0.75
			c-0.58,0.15-1.66-0.32-2.35-0.62c-0.39-0.16-0.78-0.34-1.17-0.54c-0.3-0.2-0.56-0.37-0.78-0.5c-0.48-0.3-0.71-0.68-0.73-1.27
			c-0.01-0.31,0.06-0.73,0.21-1.25c0.6-1.72,1.37-3.73,2.33-6.04c2.84-6.77,6.29-14.51,9.79-20.85c0.93-1.57,2.01-2.34,4.1-2.13
			c1.02,0.05,1.93,0.13,2.72,0.24c1.43,0.19,2.73,0.49,4.01,0.88c1.04,0.35,2.72,0.57,3.17,1.57c0.21,0.45,0.28,1.03,0.21,1.75
			c-0.53,6.52-0.64,13.97-0.69,20.72c-0.01,2.5-0.01,4.82,0.02,6.96c0,0.45-0.09,0.76-0.28,0.93c-0.19,0.17-0.6,0.26-1.25,0.26
			c-1.27-0.02-2.28,0.01-3.47-0.41c-1.28-0.4-1.53-0.76-1.75-2.13c-0.23-1.67-0.35-3.36-0.49-5.18
			C208.42,103.85,206.57,104.11,204.71,104.37z M206.54,97.93c1.13-0.12,2.27-0.22,3.41-0.3c-0.09-4.04-0.18-8.11-0.07-12.12
			c-2.18,3.98-4.59,8.56-6.71,12.87C204.28,98.21,205.41,98.06,206.54,97.93z"/>
	</g>
	<g>
		<path d="M227.31,106.29c-0.29,1.39-0.57,2.76-0.84,4.1c-0.12,0.4-0.29,0.66-0.5,0.78c-0.21,0.12-0.6,0.12-1.17,0
			c-0.67-0.17-1.27-0.31-1.79-0.41c-0.92-0.17-2.09-0.65-2.46-1.51c-0.17-0.39-0.24-0.9-0.19-1.55c0.16-1.6,0.32-3.72,0.52-5.65
			c0.41-4.04,0.9-8.53,1.57-12.57c0.39-2.24,0.78-4.49,1.53-6.34c0.3-0.71,0.61-1.15,0.93-1.32c1.54-0.7,3.15-1.38,4.83-2.05
			c3.09-1.22,6.42-2.03,9.59-1.51c1.45,0.24,2.73,0.89,3.82,1.96c1.89,2.1,3.32,4.06,4.03,7.01c1.51,6.26-6.78,10.5-11.86,12.87
			c2.46,2.72,5.32,5.72,8.13,8.06c0.5,0.42,0.72,0.76,0.67,1.01c-0.09,0.55-1.32,1.33-1.77,1.4c-0.9,0.15-1.91,0.46-2.95,0.34
			c-1.48-0.14-2.93-1.29-4.27-2.37c-2.35-1.93-4.9-4.23-6.86-6.6C227.92,103.44,227.6,104.9,227.31,106.29z M231.1,90.85
			c-0.37,1.44-0.8,2.98-1.27,4.62c3.01-0.97,5.81-2.66,7.91-4.64c1.17-1.13,2.65-2.91,2.31-4.23c-0.56-1.36-3.47-1.12-5.03-0.78
			c-0.87,0.17-1.79,0.5-2.76,0.97C231.86,88.05,231.47,89.41,231.1,90.85z"/>
	</g>
	<g>
		<path d="M264.42,84.79c-1.14,0.11-2.32,0.23-3.54,0.35c-2.07,8.27-4.33,17.13-5.93,25.44c-0.15,1.63-2.63,0.45-3.65,0.22
			c-1.6-0.45-3.61-1.19-3.13-3.21c0.53-6.73,1.96-14.6,3.39-21.3c-1.22,0.24-2.69,0.34-3.77,0.63c-1.34,0.3-1.88,0.12-2.87-0.9
			c-0.98-0.91-1.92-2.87-2.5-3.99c-0.57-1.1-0.31-1.3,0.71-1.6c6.67-1.27,14.53-1.98,21.3-2.28c1.29,0.04,1.82,0.04,2.54,0.9
			c0.96,1.08,1.61,2.5,1.98,3.84c0.15,0.57,0.16,0.96,0.02,1.17c-0.14,0.21-0.59,0.34-1.36,0.39
			C266.62,84.57,265.56,84.67,264.42,84.79z"/>
	</g>
	<g>
		<g>
			<path d="M149.5,24.73c5.33-1.85,11.63-2.57,17.09-0.59c5.94,2.06,10.22,7.88,10.92,14.29c1,10.13-5.54,19.62-14.26,24.66
				c-2.61,1.55-5.56,2.79-8.87,3.71c-1.68,0.59-3.45,0.45-5.3-0.45c-1.95-0.98-3.01-1.7-4.8-3.02c-1.01-0.9-2-1.71-2.13-3.17
				c-0.07-0.53-0.05-1.2,0.05-2.03l2.87-31.45C146.32,25.99,147.79,25.34,149.5,24.73z M158.34,55.09c3.34-2.75,5.87-6.09,7.23-9.88
				c1.09-2.99,1.6-6.96,0.35-9.41c-1.65-2.83-5.1-3.53-8.57-2.33c-2.32,8.6-3.96,16.87-5.65,25.56
				C154.28,57.94,156.49,56.63,158.34,55.09z"/>
		</g>
		<g>
			<path d="M202.71,36.14c4.22,7.9-1.12,26.97-10.78,28.94c-2.3,0.52-5.31,0.17-7.83-0.31c-2.8-0.54-5.78-1.95-7.3-4.39
				c-4.05-7.44-1.76-17.34,3.3-23.84c1.15-1.48,2.49-2.82,4-4c2.01-1.41,5.23-2.28,7.7-1.89C195.83,31.25,200.64,32.61,202.71,36.14
				z M191.19,38.19c-3.4,3.04-6.29,9.49-6.86,14.06c-0.3,2.35-0.6,7.33,1.97,8.13c1.56,0.42,2.88-0.99,3.94-2.28
				c2.36-3.2,3.69-7.35,4.37-11.44c0.36-2.21,0.95-8.4-1.36-9.16C192.63,37.32,191.95,37.55,191.19,38.19z"/>
		</g>
		<g>
			<path d="M226.28,42.75c0.86-3.18,1.71-6.11,2.56-8.79c0.23-0.73,0.59-1.18,1.07-1.35c0.48-0.17,1.19-0.16,2.12,0.04
				c0.82,0.2,1.46,0.28,2.21,0.56c0.82,0.32,1.52,0.64,2.38,1.13c1.58,0.84,1.71,1.55,1.22,3.04c-2.91,8.31-5.68,18.25-8,26.71
				c-0.18,0.95-1.05,1.28-2.62,0.98c-1.34-0.23-2.71-0.55-4.11-0.98c-1.28-0.43-2.19-1.18-2.71-2.25c-0.41-0.78-0.82-1.68-1.25-2.7
				c-1.4-3.46-2.75-7.27-3.83-10.93c-0.88,4.3-1.92,8.86-2.78,13.05c-0.25,1.22-0.45,2.27-0.59,3.17c-0.12,0.43-0.31,0.69-0.57,0.81
				c-0.26,0.11-0.77,0.08-1.53-0.09c-1.42-0.33-2.89-0.52-4.2-1.24c-0.64-0.28-1.07-0.59-1.29-0.96c-0.22-0.36-0.3-0.87-0.24-1.52
				c0.49-5.55,1.45-11.98,2.45-17.69c0.57-3.21,1.24-6.75,1.97-9.69c0.2-0.75,0.57-1.22,1.09-1.41s1.24-0.18,2.14,0.02
				c1.08,0.28,2.13,0.55,3.15,0.83c1.02,0.28,2.08,0.64,3.19,1.09c0.9,0.33,1.54,0.73,1.92,1.22c0.38,0.49,0.66,1.21,0.83,2.16
				c0.91,4.56,2.08,9.88,3.24,14.5C224.7,49.16,225.42,45.93,226.28,42.75z"/>
		</g>
		<g>
			<path d="M249.37,58.39c-2.17,0.26-4.09,0.58-5.75,0.96c-0.58,0.98-1.09,1.88-1.53,2.72c-0.44,0.84-0.86,1.66-1.27,2.46
				c-0.23,0.43-0.52,0.68-0.85,0.75c-0.67,0.15-1.93-0.32-2.75-0.62c-0.45-0.16-0.91-0.34-1.38-0.54c-0.35-0.2-0.66-0.37-0.92-0.51
				c-0.53-0.29-0.83-0.65-0.85-1.28c-0.01-0.31,0.07-0.73,0.24-1.26c2.75-6.63,6.73-14.15,10.34-20.64
				c1.36-2.42,2.65-4.56,3.87-6.44c1.16-1.68,2.44-2.34,4.81-2.14c2.1,0.08,3.89,0.29,5.75,0.64c1.49,0.28,2.7,0.66,4.13,0.98
				c0.9,0.28,1.48,0.64,1.73,1.09c0.25,0.45,0.33,1.04,0.24,1.77c-0.17,1.78-0.32,3.82-0.44,6.12c-0.35,6.96-0.43,14.83-0.35,21.75
				c0,0.45-0.11,0.76-0.33,0.94c-0.22,0.17-0.71,0.26-1.46,0.26c-1.49-0.02-2.66,0.01-4.07-0.41c-1.41-0.39-1.79-0.68-2.05-2.14
				c-0.27-1.68-0.41-3.38-0.57-5.22C253.72,57.87,251.54,58.13,249.37,58.39z M251.51,51.91c1.33-0.13,2.66-0.23,4-0.3
				c-0.11-4.06-0.21-8.17-0.09-12.21c-2.55,4-5.37,8.61-7.87,12.96C248.86,52.19,250.18,52.04,251.51,51.91z"/>
		</g>
		<g>
			<path d="M295.02,41.43c-3.31,4.75-7.46,9.97-11.17,14.54c-0.93,3.11-1.56,5.88-2.27,8.87c-0.15,0.5-0.35,0.8-0.61,0.9
				c-0.26,0.1-0.77,0.08-1.53-0.08c-1.35-0.29-3-0.75-4.29-1.2c-1.24-0.71-1.59-1.11-1.49-2.52c0.5-2.65,0.71-5.49,1.36-8.45
				c-2.54-6.25-5.49-13.02-7.87-19.31c-0.65-1.43-0.34-1.63,1.14-1.92c1.81-0.07,3.38-0.3,5.16,0.08c0.88,0.18,1.51,0.46,1.9,0.85
				c0.39,0.39,0.82,0.98,1.29,1.78c1.53,3.44,2.96,7.45,4.37,11.27c3.21-4.37,6.19-8.9,9.18-13.49c0.86-2.12,3.84-0.41,5.14,0.53
				c1.03,0.8,2.4,1.53,2.54,2.78C297.88,37.29,296.04,39.91,295.02,41.43z"/>
		</g>
		<g>
			<path d="M304.33,60.33c-0.34,1.4-0.66,2.78-0.98,4.13c-0.4,0.99-0.81,0.97-1.97,0.79c-1.44-0.36-2.58-0.36-3.85-0.94
				c-1.15-0.58-1.46-1.27-1.36-2.55c0.06-0.53,0.14-1.29,0.24-2.29c0.55-5.15,1.23-10.89,2.21-16.06c0.45-2.1,1.25-6.82,2.89-7.72
				c6.09-2.29,15.68-6.29,21.38-1.62c1.02,0.95,1.95,1.97,2.78,3.06c1.54,1.94,3.04,5.9,1.51,8.13c-2.77,4.39-8.18,6.67-13.47,8.83
				c2.91,2.76,6.27,5.79,9.53,8.11c0.58,0.43,0.85,0.76,0.79,1.01c-0.14,0.59-1.58,1.34-2.08,1.41c-1.06,0.15-2.25,0.47-3.45,0.34
				c-1.69-0.13-3.4-1.27-5.01-2.39c-2.73-1.93-5.71-4.23-8.05-6.65C305.04,57.46,304.66,58.93,304.33,60.33z M308.77,44.78
				c-0.44,1.45-0.93,3.01-1.49,4.66c3.47-0.97,6.74-2.63,9.27-4.68c1.05-0.86,1.81-1.68,2.27-2.46c1.32-2.16-0.09-2.81-2.67-2.86
				c-1.98,0.02-4.04,0.38-6.03,1.24C309.66,41.96,309.21,43.32,308.77,44.78z"/>
		</g>
		<g>
			<path d="M335.29,33.88c3.21-0.63,6.61-1.13,9.97-1.48c1.76-0.19,3.52-0.31,5.27-0.36c1.66-0.02,2.73,0.53,3.19,1.65
				c0.38,0.6,0.64,1.15,0.79,1.63c0.18,0.72,0.84,2.34,0.26,2.91c-0.23,0.23-0.77,0.39-1.62,0.49c-3.75,0.38-7.42,0.68-11.33,1.16
				c-0.94,2.4-1.59,4.81-2.49,7.33c1.85-0.21,3.51-0.29,5.42-0.34c0.82-0.02,1.46,0.04,1.92,0.19c0.97,0.29,1.62,1.6,1.99,2.46
				c0.19,0.49,0.36,0.98,0.5,1.48c0.23,0.58,0.26,0.96,0.07,1.16s-0.69,0.38-1.51,0.53c-3.43,0.56-7.23,1-10.62,1.62
				c-0.46,1.54-0.82,2.91-1.31,4.39c2.84-0.41,5.05-0.64,7.96-0.79c0.82-0.05,1.45,0,1.9,0.15c1.45,0.51,1.93,2.44,2.6,3.64
				c0.33,1.23-0.08,1.24-1.4,1.5c-3.61,0.58-7.64,1.28-11.19,1.84c-1.17,0.25-2.05,0.31-2.65,0.17c-0.6-0.14-1.11-0.33-1.55-0.58
				c-1.14-0.64-1.88-1.12-3.02-1.95c-1.01-0.73-1.62-1.65-1.49-2.97c0,0,4.15-24.98,4.15-24.98
				C332.37,34.47,333.76,34.18,335.29,33.88z"/>
		</g>
	</g>
	<g>
		<path d="M276.15,87.89v-8.89h3.81c0.81,0,1.47,0.24,2,0.71c1.16,0.95,1,2.76-0.23,3.49c1.63,0.69,1.99,2.73,0.61,3.93
			c-0.57,0.51-1.29,0.77-2.17,0.77H276.15z M278.06,80.58v1.91h1.77c0.6,0.01,1.02-0.36,1.02-0.96c0-0.6-0.42-0.96-1.02-0.96
			C279.83,80.58,278.06,80.58,278.06,80.58z M280.09,86.3c1.05,0.04,1.62-1.23,0.87-1.96c-0.23-0.22-0.52-0.33-0.87-0.33h-2.03v2.29
			H280.09z"/>
		<path d="M285.93,78.99h3.94c0.88,0,1.61,0.28,2.19,0.85c1.43,1.33,1.02,3.87-0.72,4.68l1.9,3.37h-2.03l-1.71-3.11h-1.65v3.11
			h-1.91V78.99z M290.67,81.05c-0.23-0.23-0.52-0.34-0.87-0.34h-1.97v2.35h1.97c0.35,0,0.64-0.11,0.87-0.33
			C291.14,82.3,291.12,81.47,290.67,81.05z"/>
		<path d="M297.68,85.79l-0.76,2.1h-2.03l3.5-8.89h2.03l3.5,8.89h-2.03l-0.76-2.1H297.68z M299.4,81.22l-1.09,2.92h2.16L299.4,81.22
			z"/>
		<path d="M314.06,78.99v8.89h-1.65l-4.38-5.65v5.65h-1.91v-8.89h1.66l4.38,5.66v-5.66H314.06z"/>
		<path d="M320.61,78.99c4.04-0.09,6.12,4.8,3.26,7.6c-0.88,0.86-1.96,1.29-3.26,1.29h-3.31v-8.89H320.61z M319.21,80.71v5.46h1.4
			c1.46,0.03,2.71-1.27,2.67-2.73c0.03-1.48-1.17-2.77-2.67-2.73C320.61,80.71,319.21,80.71,319.21,80.71z"/>
		<path d="M327.9,78.99h1.91v8.89h-1.91V78.99z"/>
		<path d="M340.98,78.99v8.89h-1.65l-4.38-5.65v5.65h-1.91v-8.89h1.66l4.38,5.66v-5.66H340.98z"/>
		<path d="M352.41,83.06v3.3c-2.89,3.26-8.64,1.65-8.7-2.92c0-4.43,5.83-6.3,8.52-2.86l-1.21,1.21c-1.66-2.29-5.41-1.32-5.4,1.65
			c-0.03,1.63,1.29,2.96,2.92,2.92c0.72,0.01,1.51-0.24,1.97-0.69v-1.21h-1.59v-1.4H352.41z"/>
	</g>
	<g>
		<path d="M273.04,104.69c-1.95-1.2-4.92-1.1-6.42-3.14c-1.35-1.72-1.06-4.6,0.76-6.06c2.44-2.22,7.38-1.71,9.53,0.81l-2.1,2.23
			c-0.4-0.45-0.63-0.63-1.42-1.02c-0.98-0.51-2.43-0.57-3.24,0.13c-0.41,0.34-0.61,0.76-0.61,1.25c-0.02,1.28,1.7,1.78,2.84,2.16
			c0.79,0.23,1.58,0.5,2.38,0.8c1.71,0.67,2.91,2.18,2.86,4.17c-0.02,3.38-2.78,5.21-6.21,5.16c-2.35,0.02-4.75-0.99-6.21-2.7
			l2.11-2.1c0.49,0.56,0.76,0.78,1.75,1.26c1.19,0.62,3.1,0.73,4.09-0.1C274.07,106.79,274.19,105.32,273.04,104.69z"/>
		<path d="M291.53,94.43v3.17h-4.68v13.23h-3.51V97.59h-4.69v-3.17H291.53z"/>
		<path d="M303.69,106.9c0.71-0.74,1.06-1.66,1.06-2.75v-9.72h3.51v9.72c0.07,3.96-3.17,7.12-7.14,7.03
			c-3.97,0.09-7.21-3.07-7.14-7.03c0,0,0-9.72,0-9.72h3.51v9.72c0,1.09,0.36,2.01,1.07,2.75
			C299.92,108.38,302.34,108.38,303.69,106.9z"/>
		<path d="M318.45,94.43c7.44-0.16,11.27,8.84,6,14.01c-1.62,1.58-3.62,2.38-6,2.38h-6.09V94.43L318.45,94.43z M315.88,97.59v10.07
			h2.57c2.69,0.06,4.99-2.33,4.91-5.04c0.06-2.73-2.15-5.1-4.91-5.04C318.45,97.59,315.88,97.59,315.88,97.59z"/>
		<path d="M330.14,94.43h3.52v16.39h-3.52V94.43z"/>
		<path d="M339.5,96.59c5.36-5.3,15.27-1.73,15.22,6.04c0.1,4.73-4.15,8.68-8.9,8.55C338.1,111.31,333.85,102.03,339.5,96.59z
			 M342.09,106.45c3.31,3.38,9.08,0.92,9-3.82c0.07-2.91-2.35-5.45-5.26-5.39C341.07,97.18,338.82,103.17,342.09,106.45z"/>
	</g>
</g>
</svg>
