<?xml version="1.0" encoding="utf-8"?>
<!-- Generator: Adobe Illustrator 25.3.1, SVG Export Plug-In . SVG Version: 6.00 Build 0)  -->
<svg version="1.1" id="Capa_1" xmlns="http://www.w3.org/2000/svg" xmlns:xlink="http://www.w3.org/1999/xlink" x="0px" y="0px"
	 width="405.7px" height="141.2px" viewBox="0 0 405.7 141.2" style="enable-background:new 0 0 405.7 141.2;" xml:space="preserve"
	>
<style type="text/css">
	.st0{fill:#E5332A;}
	.st1{fill:#FFFFFF;}
	.st2{fill:#010101;}
</style>
<g>
	<g>
		<g>
			<path class="st0" d="M57.6,15.3c0.4,0.8,0.9,1.3,1.6,1.5C58.7,16.3,58.1,15.8,57.6,15.3z"/>
			<path class="st0" d="M58.1,15.1c0.7,1.6,1.8,3,3.7,3.4c0.6,0.7,1.3,1.1,2.3,1.3c0,0.2,0,0.4,0,0.6c0.4-0.2,0.8-0.3,1.1-0.5
				c0.1,0,0.2,0,0.3,0c0.1,0,0.3,0,0.4-0.1s0.3-0.2,0.4-0.3c0.6-0.2,1.1-0.4,1.6-0.6c0.1-0.1,0.3-0.2,0.4-0.3
				c5.3-1.8,11-2.7,16.7-2.8c-8.1-3.3-16.9-5.1-25.9-5.1c-2.4,0-4.8,0.2-7.2,0.4C54,12.1,56.1,13.6,58.1,15.1z"/>
			<path class="st0" d="M25.6,111.7c0.8,1.6,1.7,3.1,3,4.2c1-0.3,2.2-0.2,3.3,0.6c3,2.1,6,4,9.1,5.7c0.6-0.9,1.2-1.8,1.8-2.6
				c0.1-0.6,0-1.1-0.3-1.4c0.4-0.2,0.7-0.3,1-0.5c0-0.1-0.1-0.2-0.2-0.3c0.1-0.1,0.2-0.1,0.3-0.1c-0.4-2-0.8-4-1.1-6.1
				c-0.9-1.1-1.8-2.1-2.7-3.2c-0.4,0-0.8,0-1.2,0c0.2-0.2,0.4-0.5,0.6-0.7c0,0,0,0,0.1,0c-0.9-1.1-1.7-2.2-2.5-3.4
				c-3.2-7.1-5.5-14.8-5.6-22.8c-0.4,0-1.2,0.1-1.6,0.1c0.4-5.3,1.7-10.4,4.1-15c-0.3,0.2-0.5,0.4-0.8,0.5c-0.8,0.7-1.6,1.2-2.4,1.7
				c1.3-3.4,3.7-6,6-8.6c0.1-0.1,0.2-0.2,0.3-0.3c0-0.5,0-0.9,0-1.3c0.4-0.1,0.8-0.2,1.2-0.4c0-0.2,0-0.3,0-0.5
				c0.6-0.2,1.1-0.3,1.6-0.5c1.8-1.6,3.5-3.5,4.4-5.8c-0.2,0-0.4,0-0.6,0c0.6-1.3,1.3-2.5,2.1-3.8c0.3-0.4,0-0.8-0.3-0.8
				c0.5-1.9,0.8-3.8,1.2-5.6c0,0,0,0-0.1,0c0.1-0.2,0.1-0.7,0.1-1.1c-0.1-0.4-0.2-0.8-0.2-1.1c0-0.1-0.1-0.3-0.2-0.4
				c0.3-0.6,0.3-1.3-0.3-1.9c-3.1-4-5.3-10-4.8-15.4c0.2-1.8,0.7-3.7,1.2-5.3c0.4,0,0.7,0,1,0.1c0-0.8,0.5-1.5,1.2-1.7
				c0.7-0.8,1.5-1.3,2.4-1.8C22.3,19,4.1,44,4.1,73.6c0,15.5,5,29.7,13.3,40.7C17.3,110,23.6,107.1,25.6,111.7z"/>
		</g>
		<path class="st1" d="M39.6,48.5c0.1-0.1,0.3-0.1,0.4-0.1c0-0.1,0.1-0.1,0.1-0.2c-0.6,0.2-1.1,0.6-1.5,0.8c0,0.3,0,0.5,0.1,0.8
			C38.9,49.3,39.2,48.8,39.6,48.5z"/>
		<path class="st1" d="M134.5,71c-0.9-1.6-1.9-3.3-3-4.8c0.8,0,2.2-0.1,2.9-0.1c-2.4-2.6-5.8-4.6-7.5-7.9c-2.6-4.5-1.9-10-3.2-14.9
			c-0.3-1.3-0.8-2.4-1.3-3.7c0.1-0.1,0.3-0.2,0.4-0.3c-0.1-0.5,0-0.9,0.1-1.3c0-0.1,0-0.2,0.1-0.2c0.4-0.6,0.6-1.3,0.8-1.7V36
			c0.1-0.1,0.1-0.3,0.2-0.4c0.2-0.3,0.4-0.5,0.6-0.8c0.4-0.5,0.8-0.9,1-1.2c0.3-0.5,0.6-0.9,0.8-1.3c0.1-0.8,0.3-1.6,0.3-2.4
			c0.3-0.7,0.5-1.3,0.6-2.1c0.3-2.6,0-5.6-1.5-7.8c-1-3.1-2.8-5.9-5.6-8c-0.1,0-0.2,0.1-0.3,0.1c0.1-0.1,0.1-0.1,0.2-0.2
			c-3.4-0.3-7.2-1.3-10.1,0.8c-1.3,0.8-2.7,1.7-4.3,1.5c-0.4,0.3-1.1,0.8-1.5,0.9c-0.9,1.4-1.9,3-2.8,4.4c-11.2-4.6-24-5.4-35.5-1.9
			c-0.6,0.5-1.3,0.8-2.2,0.8h-0.3c-0.3,0.1-0.6,0.2-0.9,0.3v-0.4c-0.8-0.1-1.3-0.5-1.8-0.9c-1.5-0.2-2.5-1.2-3-2.4
			c-2.2-1.5-4.6-2.6-7.1-3.7c-2.6,0.8-5.8,1.3-7.7,3.3c-0.9,0.3-1.3,1-1.3,1.8c-0.4-0.1-0.8-0.1-1.1-0.1c-0.8,1.7-1.2,3.5-1.3,5.4
			c-0.5,5.5,2,11.6,5.6,15.5c0.6,0.7,0.6,1.3,0.3,1.9c0.1,0.1,0.1,0.3,0.2,0.4c0.1,0.4,0.2,0.8,0.3,1.1c0.1,0.5,0,0.8-0.1,1.2h0.1
			c-0.5,1.9-0.9,3.9-1.3,5.6c0.4,0.1,0.7,0.5,0.3,0.8c-1,1.1-1.8,2.4-2.4,3.8h0.7c-1.3,2.7-3.6,4.6-5.8,6.5
			c-0.8,0.2-1.6,0.5-2.4,0.7v1.3c-0.1,0.1-0.3,0.2-0.4,0.3c-2.6,2.5-5.4,5.2-6.8,8.7c1.3-0.8,2.4-1.5,3.7-2.3
			c-3.3,4.6-4.8,9.9-5.2,15.2c0.5,0,1.3-0.1,1.8-0.1c0.2,8.1,2.8,15.9,6.5,23c0.9,1.2,1.9,2.3,2.9,3.4h-0.1
			c-0.2,0.2-0.4,0.5-0.6,0.7h1.3c1,1.1,2.1,2.1,3.2,3.2c0.4,2.2,0.9,4.2,1.3,6.5c-0.5,0.2-0.8,0.3-1.3,0.5c0.3,0.4,0.5,0.9,0.3,1.4
			c-0.2,0.3-0.5,0.6-0.7,0.8c2.9,1.7,5.9,3.3,8.9,4.7c1-0.5,2-0.6,3.2-0.2c-1.1,2.3-0.4,5.5,2.7,6.5c7.7,2.5,15.8,3.9,23.9,3.7
			c0.3,2,1.9,3.7,4.3,3.8c8.9,0.3,16.9-2.8,24.4-6.9c0.5-0.1,1-0.2,1.5-0.5c2.4-1.2,4.6-2.6,6.5-4.3c0.3-0.2,0.7-0.5,1-0.7
			c1-0.7,1.6-1.5,1.9-2.5c2.3-3,3.9-6.4,4.8-10.1c0.2-1,0.2-1.8-0.1-2.6c0.7-0.2,1.3-0.2,2-0.1c0.1-1,0.1-2.1,0.2-3.1
			c0.5-0.7,0.9-1.3,1.3-2.1c0.8-0.2,1.5-0.3,2.2-0.5c-0.2-0.2-0.5-0.3-0.7-0.5c-0.4,0-0.7-0.1-1-0.1c1.5-2.5,2.8-5.2,4.2-7.7
			c0.4,0.1,1.1,0.2,1.4,0.3c0.1-4.3,1.4-8.6,1.3-12.9c1-0.5,2-0.9,3.1-1.4C137.4,80.3,135.6,75,134.5,71z M76.9,127.3
			c-0.6,0-1.1-0.1-1.6-0.1c0.5-0.1,1.1-0.2,1.5-0.3C76.8,127.1,76.8,127.2,76.9,127.3z"/>
		<path d="M64.6,98.6L64.6,98.6c0-0.1,0-0.1-0.1-0.2C64.5,98.5,64.5,98.5,64.6,98.6z"/>
		<path d="M97.1,102.1c-2.2,5.1-6.1,9.4-11.7,10.4c-3.8,0.5-7.1-0.3-10.1-1.9c3.2,2.1,7,3.1,11.2,2.5c5.6-1,9.3-5.2,11.6-10.2
			C97.6,102.7,97.3,102.4,97.1,102.1z"/>
		<path d="M99.7,104c0-0.1,0.1-0.2,0.1-0.3c-0.3,0-0.7-0.1-0.9-0.3C99.2,103.7,99.5,103.9,99.7,104z"/>
		<path d="M68.9,107c0.4-0.3,0.7-0.6,0.9-0.9c-0.3-0.3-0.6-0.7-0.8-1c0,0,0,0,0,0.1c-0.4,0.5-0.8,0.8-1.2,1.2c2,2.9,4.6,5.5,7.9,7.2
			C73.1,111.9,70.8,109.6,68.9,107z"/>
		<path d="M80.5,104.8c2.6-0.4,5.6-0.5,7.4-2.6C85.3,102.3,81.9,102.2,80.5,104.8z"/>
		<path d="M78.3,98.1c5.2,0.1,10.4-0.5,15.3-1.5c1.3-0.3,0.7-1.7-0.7-1.4c-3.9,0.8-7.6,1.3-11.6,1.4c-2,0.1-4,0-6-0.2
			c-1.3-0.1-3.1,0.4-3.2-1.5c-0.3-1-2.2-0.5-1.9,0.6C70.7,99,75.8,97.8,78.3,98.1z"/>
		<path d="M89.3,29.8c-1.2-0.1-2.4-0.2-3.7-0.3C86.8,30,88.1,30,89.3,29.8z"/>
		<g>
			<path d="M115.3,32.4C115.3,32.4,115.3,32.4,115.3,32.4L115.3,32.4z"/>
			<path d="M135.8,70.8c-0.9-1.6-1.9-3.3-3-4.8c0.8,0,2.2-0.1,2.9-0.1c-2.4-2.7-5.8-4.6-7.4-8c-2.5-4.5-1.8-10-3.1-14.9
				c-0.3-1.3-0.8-2.4-1.3-3.7c0.1-0.1,0.3-0.2,0.4-0.3c-0.1-0.5,0-0.9,0.1-1.3c0-0.1,0-0.2,0.1-0.2c0.4-0.6,0.6-1.3,0.8-1.7v-0.1
				c0.1-0.1,0.1-0.3,0.2-0.4c0.2-0.3,0.4-0.5,0.6-0.8c0.4-0.5,0.8-0.9,1-1.2c0.3-0.5,0.6-0.9,0.8-1.3c0.2-0.8,0.3-1.6,0.4-2.4
				c0.3-0.7,0.5-1.3,0.6-2.1c0.3-2.5,0-5.6-1.4-7.8c-1-3.1-2.8-5.9-5.6-8c-0.1,0-0.2,0.1-0.3,0.1c0.1-0.1,0.1-0.1,0.2-0.1
				c-3.4-0.3-7.2-1.3-10.1,0.7c-1.3,0.8-2.7,1.7-4.3,1.5c-0.4,0.3-1.1,0.8-1.5,0.9c-0.9,1.4-1.9,3-2.8,4.4
				c-11.1-4.7-23.9-5.6-35.5-2.1c-0.6,0.5-1.3,0.8-2.2,0.8h-0.3c-0.3,0.1-0.6,0.2-0.9,0.3v-0.4c-0.8-0.2-1.3-0.5-1.8-0.9
				c-1.5-0.2-2.5-1.2-3-2.4c-2.2-1.5-4.5-2.6-7.1-3.7c-2.6,0.7-5.8,1.3-7.7,3.3c-0.9,0.3-1.3,1-1.3,1.7c-0.4-0.1-0.8-0.1-1.1-0.1
				c-0.8,1.7-1.3,3.5-1.4,5.4c-0.6,5.5,1.9,11.6,5.4,15.6c0.6,0.7,0.6,1.3,0.3,1.9c0.1,0.1,0.1,0.3,0.2,0.4c0.1,0.4,0.2,0.8,0.3,1.1
				c0.1,0.5,0,0.8-0.1,1.2h-0.1c-0.8,3.1-1.4,6.2-2.4,9.2c-1.2,3.2-3.7,5.4-6.3,7.4c-0.8,0.2-1.6,0.4-2.4,0.6v1.3
				c-0.1,0.1-0.3,0.2-0.4,0.3c-2.6,2.5-5.4,5.2-6.9,8.6c1.3-0.8,2.4-1.4,3.7-2.3c-2.9,4.5-4.3,9.8-4.9,15.1c0.5,0,1.3-0.1,1.8-0.1
				c0.1,8.1,2.6,15.9,6.3,23.1c0.9,1.2,1.9,2.3,2.9,3.4h-0.1c-0.2,0.2-0.4,0.5-0.7,0.7h1.3c1,1.1,2.1,2.2,3.1,3.2
				c0.4,2.2,0.9,4.2,1.3,6.5c-0.5,0.2-0.8,0.3-1.3,0.5c0.3,0.4,0.5,0.9,0.3,1.4c-0.5,0.6-0.9,1.1-1.3,1.6c0.9,0.5,1.7,1,2.6,1.4
				c-0.1,1.4,0.5,3,1.9,4.1c11.2,8.2,24.8,12.5,38.6,12.7c12.3,0.1,27.1-2.9,36.4-11.5c4-3.8,7.8-10.1,6-15.8c0-0.1-0.1-0.3-0.1-0.4
				c0.3-0.2,0.6-0.4,0.8-0.5c0.1-0.9,0.1-1.8,0.2-2.7c0.5-0.7,0.9-1.3,1.3-2.1c0.8-0.2,1.5-0.3,2.2-0.5c-0.2-0.2-0.5-0.3-0.7-0.5
				c-0.4,0-0.7-0.1-1-0.1c1.5-2.5,2.9-5.2,4.3-7.7c0.4,0.1,1.1,0.2,1.4,0.3c0.1-4.3,1.5-8.6,1.4-12.9c1-0.5,2-0.9,3.1-1.3
				C138.7,80.2,136.8,74.9,135.8,70.8z M42.7,27.3c0,0.2-0.1,0.4-0.1,0.6c-0.2-0.8-0.3-1.4-0.3-2.1C42.7,26.2,42.8,26.7,42.7,27.3z
				 M46.2,49.6c0.8-3.2,1.4-6.5,2.3-9.6c0.4-0.4,0.8-0.7,1.1-1c-0.3-0.3-0.6-0.6-0.8-0.8c1.1-0.2,2.8-1.7,3.5-2.3
				c0.8-0.6,1.3-1.2,2-1.7s1.9-1.2,2.1-1.9c0.1-0.2,0.1-0.3,0.2-0.4c-0.1-0.3-0.7-0.7-1-0.8c0,0,0,0.1,0.1,0.1h-0.4
				c-0.8-0.4-1.4-0.9-2.1-1.5c0.4,0.7,0.8,1.2,1.3,1.6c-0.3,0-0.6,0-0.8,0.1c-1.1-0.7-2-1.3-2.7-2.3c-0.5-0.6-0.8-1.2-1.3-1.6
				c0.2,1.3,1,2.6,1.6,3.9c-3.1-2.2-4.4-5.9-5.1-9.4c-0.2,1.6,0.2,3.2,0.4,4.8c-1.2-2.3-1.3-5-1.1-7.5c-0.1-0.2-0.2-0.5-0.2-0.7
				c-0.4,0.4-0.6,0.8-0.8,1.3c0-0.8,0.3-1.4,0.7-2.1c0-0.1,0-0.1-0.1-0.2c0.5-1,1.1-1.9,1.7-2.7h-0.7c-0.1-0.1-0.1-0.1-0.2-0.1
				c1.3-0.9,2.9-1.6,4.5-1.5c4.1-0.7,7,2.9,10,5.2c0.1,0.5,0.4,1.4,0.5,2c0.5,0,1.3,0.1,1.8,0.1c0.2,0.5,0.4,0.8,0.5,1.3
				c0.1,0,0.1,0,0.2,0c0.6,0,0.9,0.1,1.3,0.4c0.1-0.7,0.1-1.2,0.2-1.8c7.3-2.8,15.4-3.2,23.2-1.8c-0.1,0-0.1,0.1-0.2,0.1
				c0.6,0,1.1,0,1.7,0.1c1.2,0.2,2.2,0.7,3,1.3c0.2-0.2,0.3-0.4,0.5-0.7c3.2,0.2,6.4,0.8,9.1,2.4c0,0.6,0.1,1.1,0.1,1.6
				c0.6,0,1,0.1,1.3,0.4c0.6-1.5,1.1-3.2,1.4-4.7c0.1,0.2,0.3,0.5,0.5,0.8c0.2-0.2,0.4-0.4,0.7-0.5c0.4-0.2,0.8-0.4,1.1-0.6
				c2.5-3.4,8.1-5,12-3.6c0.5-0.2,0.9-0.2,1.4,0.2c1.6,0.9,2.8,2.1,3.6,3.6c-0.1-0.1-0.2-0.2-0.3-0.3c0,0.3-0.1,0.5-0.1,0.8
				c0.8,2.4,0.9,5.2,0,7.6c0-1.6,0.1-3.3-0.4-4.8c-0.2,3.6-0.9,7.5-3.7,10.1c0.5-1.3,1-2.6,1-4c-0.4,0.6-0.7,1.3-1,1.8
				c-0.7,1-1.4,1.9-2.4,2.6c-0.3-0.1-0.6,0-0.8,0c0.5-0.6,0.8-1.2,1-1.8c-0.6,0.8-1.1,1.3-1.8,1.8h-0.4l0,0c-0.4,0.3-0.8,0.7-0.9,1
				c0,0.1,0.1,0.2,0.2,0.4c0.4,0.8,1.7,1.2,2.4,1.6c0.8,0.5,1.4,1,2.3,1.4c0.5,0.3,1.3,0.8,2.3,1.3c-0.1,0.3-0.2,0.6-0.4,0.8
				c0.2,0.4,0.4,0.7,0.7,1c0.3,0.4,0.5,0.8,0.5,1.2c1.6,4.5,1.7,9.9,3.1,14.5c-0.1-0.1-0.2-0.1-0.3-0.1c-2.4-0.3-4.5-1-6.8-1.3
				c-1.8-0.3-3.6-0.4-5.4-0.7c-4.2-0.5-8.6,0.3-12.6,1.3c-4.1,0.9-8.3,2.1-12.5,2.7c-0.5,0.1-0.9,0.1-1.3,0.2
				c-2.2,0.1-11.7-0.4-13.8-0.7c-3.2-0.4-6.3-1.2-9.3-1.4c-3.1-0.3-6.2-0.7-9.2-0.7c-2.4,0-4.8,0.3-7.2,0.8
				c-1.7,0.4-3.4,0.8-5.1,1.2C43.6,54.9,45.2,52.4,46.2,49.6z M95.4,71.1c4.5,0.5,6.9,2.3,11.1-1.1c-0.3,1.4-1.2,2.5-1.6,3.9
				c1.6-1.2,2.5-3.1,3.8-4.7c-0.3,2.2-1.8,3.9-2.9,5.6c1.7-0.9,2.6-2.6,3.9-4c-0.3,1.5-1.3,2.7-2.2,4c3.7-1.9,4.8-5.8,6.2-9.5
				c0.9-2.7,4-1.7,5.8-0.6c-4.3-10.4-16-4.1-23.3-1.5c-2,0.8-4.1,1.3-6.3,1.3c-0.1-1.2,0.2-2.4,0.8-3.4c0.8-1.3,2.1-2.2,3.4-2.8
				c1.7-0.9,3.7-1.4,5.6-1.9c0.8-0.2,1.6-0.4,2.4-0.5c3.6-0.5,7.1-0.3,10.7,0c1.9,0.2,3.9,0.5,5.6,1.3c1.2,0.6,2.3,1.4,2.8,2.7
				c0.5,1.1,0.5,2.3,0.6,3.5c-0.1,3.3-0.8,6.5-1.7,9.7c-0.5,1.4-1.1,2.8-2.1,3.9c-1,1.3-2.4,2.2-3.9,2.7c-0.8,0.4-1.7,0.6-2.5,0.8
				c-3.6,0.8-7.4,0.8-10.8-0.6c-1.1-0.5-2.2-1-3.2-1.7c-0.2-0.5-0.4-0.9-0.6-1.4c-1-1.7-2.4-3.3-4.1-4.4c-0.3-0.5-0.5-0.9-0.8-1.3
				c0.1,0,0.2,0,0.3,0.1c0.3,0.1,0.6,0.2,0.8,0.3c2,0.4,3.9,1.3,5.7,1.9C97.7,72.3,96.5,71.8,95.4,71.1z M96,67.4
				c0.5-0.8,1.3-1.1,2.1-1.4c2.7-1.1,5.6-2.1,8.4-3.1c0.8-0.3,1.5-0.6,2.3-0.4c0.8,0.1,0.7,1.2,0.3,1.6c-1.1,1.8-3,3.1-4.9,3.9
				c-2.2,0.8-4.6,1.2-6.9,0.7C96.8,68.3,95.8,68,96,67.4z M89.5,70.9c-3.7-1.5-7.8-2.2-11.7-1.6c-1.2,0.3-2.4,0.7-3.5,1.1
				c0.2-0.8,0.4-1.7,0.7-2.5c1-1,3.3-3,6-2.9c0,0,4.2,0.8,6.7,1.5c0.5,0.8,0.8,1.6,1.1,2.4C89.2,69.5,89.3,70.2,89.5,70.9z M42.6,61
				c0.7-0.8,1.6-1.3,2.5-1.8c1.4-0.7,3-1,4.6-1.3c1.5-0.3,3.1-0.5,4.6-0.7c3.3-0.4,6.6-0.5,9.8,0.2c1.9,0.4,3.9,0.9,5.6,1.8
				c1.2,0.7,2.3,1.5,2.8,2.8c0.4,0.7,0.5,1.4,0.6,2.2c-2.2,0.1-4.5-0.3-6.7-0.7c-8-1.5-21-6-24.1,5c1.7-1.3,4.7-2.8,6.1-0.3
				c1.9,3.6,3.8,7.2,7.8,8.6c-1-1.2-2.4-2.2-2.8-3.8c1.5,1.2,2.7,2.8,4.6,3.5c-1.4-1.6-3.2-3-3.9-5.2c1.5,1.3,2.7,3.2,4.6,4
				c-0.8-1.2-1.8-2.3-2.3-3.7c4.8,2.7,7.1,0.6,11.7-0.6c-1.1,0.9-2.4,1.5-3.1,2.7c1.9-1,3.7-2.1,5.6-2.7c0.3-0.2,0.6-0.3,0.8-0.4
				c-0.1,0.3-0.2,0.6-0.4,0.8c0,0.1-0.1,0.1-0.1,0.2c-1.4,1-2.8,2.3-3.9,3.9c-1.1,1.4-1.9,2.9-2.6,4.4c-2.4,1.3-5.2,2.1-7.9,2.2
				c-2,0.1-4-0.1-5.9-0.6c-2.4-0.6-4.5-2.1-5.9-4c-0.8-1.2-1.3-2.6-1.8-4c-1.1-3.1-1.8-6.4-1.8-9.6C41.4,63.2,41.8,61.9,42.6,61z
				 M67.2,67.8c0.1,0.7-0.8,1-1.3,1.3c-2.3,0.9-4.9,0.9-7.2,0.4c-2.1-0.5-4.2-1.4-5.6-3.1c-0.5-0.5-0.8-1.4,0.1-1.6
				c0.8-0.3,1.6-0.1,2.4,0.1c3.1,0.7,6.1,1.3,9.1,1.9C65.6,66.9,66.6,67,67.2,67.8z M69,76.2c-0.6,0.8-1.3,1.6-2.1,2.4
				C67.6,77.8,68.4,77,69,76.2z M132.1,75.3c1.4,5.3,2.4,10.8,0.8,16.1c-1.4,3.9-2,8.3-4.7,11.6c-0.7,1-1.3,2-2,3
				c-1.7-0.1-3.5-0.2-5.1-0.1c-3.6,3.3-7.8,5.8-11.8,8.6c0.1,0.2,0,0.4,0,0.6c-1,2-2.4,3.8-4.1,5.3c-0.8,0.2-1.3,0.3-2.1,0.4
				c-0.1,0.4-0.3,0.9-0.4,1.3h0.6c-1.3,1-2.5,1.9-3.9,2.9c-1.3,0.5-2.5,0.9-3.8,1.3c-0.7,0.2-1.4,0.4-2.2,0.5
				c-0.2,0-0.5-0.1-0.7-0.1c0,0.1,0,0.2,0,0.3v6.5c0,2.5-2.1,4.4-4.5,4.5c-2.4,0.1-4.5-2.1-4.5-4.5v-6.6c0-0.3,0-0.6,0.1-0.9
				c-2.4,0-4.8,0.1-7.1,0.5c-0.4-0.1-0.8-0.1-1.2-0.2c-2.8-1.3-5.4-2.9-8.1-4.7c-0.4,0-0.7-0.4-0.8-0.7c-2.2-1.6-4.2-3.5-5.6-5.8
				c-0.1-0.2-0.2-0.4-0.1-0.7c-4.9-2.5-9.9-4.9-14.3-8.3c-2,0.2-4,0.6-6,1c-1.3-2.1-2.5-4.4-4-6.4c-0.5-0.2-1.3-0.7-1.6-0.9
				c-2.2-5.7-4.6-11.7-4.7-17.9c-0.1-4.4,2.1-8.5,3.7-12.4c-0.5-0.3-1.3-0.9-1.7-1.2c1.3-1.4,2.6-3,3.9-4.5c1,1.2,2.4,2.1,2.8,3.7
				c1.1,3.9,2.6,7.8,4.4,11.5c0.9,1.7,2.5,2.9,4.2,3.8c3.3,1.4,7,1.9,10.5,1.6c1.3-0.1,2.7-0.3,4-0.7c0.5-0.1,0.9-0.3,1.3-0.4
				c-0.7,2.1-0.9,4.1-1,6.3c0.3-2.2,0.9-4.4,1.8-6.5c0.9-0.4,1.7-0.9,2.5-1.4c1.3-0.9,2.4-2.1,3.4-3.4c-0.2,0.8-0.2,1.5,0.1,2.4
				c2.9,4.9,7.4,9.6,11.7,9.3c5.1-0.4,7.1-7.2,9.8-11.7c-1.7-1.6-3.3-3.9-5.8-4c-4,2.2-6.7,0.8-10.9,1c-1.1-0.3-2.3,0.1-3.3,0.8
				c0.6-0.9,1-1.8,1.4-2.7c1.6-0.8,3.3-1.3,4.9-1.4c4.4-1,9,0,12.7,2c1.1,2.1,2.5,4,4.3,5.6c0.8,0.8,1.8,1.3,2.8,1.8
				c0.5,1.1,0.8,2.2,0.8,3.3c0.6,2.3,0.6,4.6,0.2,7c0,0.3-0.1,0.6-0.1,0.8l1.1-0.2l0.4-0.1c0.5-3.9,0.1-7.5-1.8-10.5
				c0.2,0.1,0.4,0.2,0.6,0.3c2,0.8,4,1.2,6.3,1.3c3.6,0.2,7.2-0.5,10.4-2.2c2.2-1.3,4-3.1,5.3-5.4c0.8-1.7,1.3-3.6,1.7-5.4
				c0.4-1.8,0.8-3.7,1.3-5.5c0.4-1.2,0.8-2.4,1.8-3.2c0.3-0.3,0.8-0.4,0.8-0.8c0.2-0.7,0-1.3,0-1.9c-0.1-0.3-0.1-0.6,0-0.8
				c0.9,2.2,2.4,4.1,4.4,5.7c-0.8,0.3-1.7,0.5-2.5,0.8c3.2,1.6,4.7,4.9,5.5,8.3c0.1-0.1,0.1-0.1,0.2-0.2c0.9,2.3,1.9,5.8,2,7.7
				C135.3,78.1,134.6,75.7,132.1,75.3z"/>
		</g>
		<path d="M42.8,28.4L42.8,28.4c0.1,0,0.1,0,0.2,0C42.8,28.4,42.8,28.4,42.8,28.4z"/>
		<path class="st2" d="M50.1,52.2c1.1,0.4,2.4-0.1,3.5,0.5c5.6,2.4,11.7,2.3,17.5,2.2c1.5-5.6-2.9-4-4.7-4.6
			c-5.4-0.4-10.5-2.4-15.6-4.1c-0.9-0.5-1.5,0.6-2.3,1C48.3,48.9,49,50.7,50.1,52.2z"/>
		<path class="st2" d="M96,55.3c1.2,0,2.4-0.6,3.7-0.4c6.1,0.7,12.2-0.8,18.2-2c0.8-4.4-3.6-2.4-5.6-2.4c-5.6,0.8-11,0.5-16.6,0.1
			c-1-0.1-1.5,0.8-2.2,1.2C93.9,53.2,94.7,54.5,96,55.3z"/>
	</g>
	<g>
		<path d="M180.6,94.3c-3.1,10.3-6.2,21.8-8.7,32c0,1.1-0.6,1.3-1.5,1.2c-0.5,0-1-0.1-1.7-0.3c-0.6-0.2-1.3-0.3-2.1-0.5
			c-1.5-0.4-2.8-1-3.6-1.6c-0.9-0.6-1.1-1.6-0.8-3.1c0.4-3.4,1-6.8,1.7-10.6c-3.2,0.5-6.1,0.8-9.3,1.3c-1.1,4.6-1.7,9.2-2.5,13.5
			c-0.4,1.5-0.9,1.5-2.7,1.2c-1.7-0.5-4-0.9-5.5-1.8c-0.9-0.4-1.5-0.9-1.8-1.4c-0.4-0.5-0.4-1.3-0.2-2.2c0.6-2.7,1.1-5.6,1.5-9.1
			c1.5-10.4,2.7-22.2,4.1-32.5c0.6-2.5,1.5-2.7,3.8-1.8c2.9,0.8,6.5,2.4,8.8,4.3c1.1,1,0.9,1.9,0.6,3.3c-1.4,5.1-2.7,11.2-4,17
			c3.1-0.4,6.1-0.5,9.1-0.8c1.7-7.4,3.5-15.7,5.4-22.6c0.3-1.2,0.8-1.9,1.4-2c1.7-0.4,4.3,0.7,6,1.5c1.6,0.8,4.4,2.1,5.1,3.7
			c0.2,0.5,0.2,1.3-0.1,2.2C182.5,87.6,181.6,90.8,180.6,94.3z"/>
	</g>
	<g>
		<path d="M193.6,117c-2.4,0.3-4.5,0.7-6.2,1.2c-1.2,2.4-2,4.4-3.1,6.6c-0.3,0.5-0.6,0.8-0.9,0.9c-0.7,0.2-2.1-0.4-3-0.8
			c-0.5-0.2-1-0.4-1.5-0.7c-0.4-0.3-0.7-0.5-1-0.6c-0.6-0.4-0.9-0.9-0.9-1.6c0-0.4,0.1-0.9,0.3-1.6c0.8-2.2,1.7-4.8,3-7.8
			c3.7-8.7,8.1-18.6,12.6-26.7c1.2-2,2.6-3,5.2-2.8c1.3,0.1,2.5,0.2,3.5,0.3c1.8,0.2,3.5,0.6,5.1,1.1c1.3,0.4,3.5,0.7,4.1,2
			c0.3,0.6,0.4,1.3,0.3,2.2c-0.7,8.4-0.8,17.9-0.9,26.6c0,3.2,0,6.1,0,8.9c0,0.6-0.1,1-0.4,1.2c-0.2,0.2-0.8,0.3-1.6,0.3
			c-1.6,0-3,0-4.5-0.5c-1.6-0.5-1.9-1-2.2-2.8c-0.3-2.1-0.4-4.3-0.6-6.6C198.3,116.3,196,116.6,193.6,117z M196,108.7
			c1.4-0.2,2.9-0.3,4.4-0.4c-0.1-5.2-0.2-10.4-0.1-15.5c-2.8,5.1-5.9,10.9-8.6,16.5C193,109,194.6,108.8,196,108.7z"/>
	</g>
	<g>
		<path d="M222.6,119.4c-0.4,1.7-0.7,3.6-1.1,5.2c-0.2,0.5-0.4,0.8-0.6,1c-0.3,0.2-0.8,0.2-1.5,0c-0.8-0.2-1.6-0.4-2.2-0.5
			c-1.2-0.2-2.7-0.8-3.2-1.9c-0.2-0.5-0.3-1.1-0.2-1.9c0.2-2,0.4-4.8,0.7-7.3c0.5-5.2,1.1-10.9,2-16.2c0.5-2.9,1-5.7,1.9-8.2
			c0.4-0.9,0.8-1.4,1.2-1.7c1.9-0.9,4.1-1.7,6.2-2.7c4-1.5,8.3-2.6,12.3-1.9c1.8,0.3,3.5,1.1,4.9,2.6c2.5,2.7,4.3,5.2,5.2,9
			c1.9,8-8.7,13.5-15.2,16.5c3.2,3.5,6.8,7.4,10.4,10.3c0.6,0.5,0.9,1,0.8,1.3c-0.1,0.7-1.7,1.7-2.2,1.8c-1.1,0.2-2.5,0.6-3.8,0.4
			c-1.9-0.2-3.8-1.6-5.5-3.1c-3-2.5-6.2-5.4-8.8-8.5C223.4,115.8,223,117.6,222.6,119.4z M227.5,99.6c-0.5,1.8-1,3.8-1.6,5.9
			c3.9-1.2,7.5-3.4,10.1-5.9c1.5-1.4,3.4-3.7,3-5.4c-0.7-1.7-4.5-1.4-6.4-1c-1.1,0.2-2.2,0.6-3.6,1.2
			C228.4,96,227.9,97.8,227.5,99.6z"/>
	</g>
	<g>
		<path d="M270.2,91.8c-1.4,0.1-3,0.3-4.5,0.4c-2.7,10.6-5.5,22-7.6,32.6c-0.2,2-3.4,0.6-4.7,0.3c-2-0.6-4.6-1.5-4-4.1
			c0.7-8.6,2.6-18.7,4.4-27.3c-1.5,0.3-3.5,0.4-4.8,0.8c-1.7,0.4-2.5,0.2-3.7-1.1c-1.2-1.1-2.5-3.7-3.2-5.1s-0.4-1.6,0.9-2
			c8.6-1.6,18.6-2.6,27.3-3c1.6,0.1,2.4,0.1,3.3,1.1c1.2,1.4,2,3.2,2.6,4.9c0.2,0.7,0.2,1.2,0,1.5c-0.2,0.3-0.7,0.4-1.7,0.5
			C273,91.5,271.6,91.7,270.2,91.8z"/>
	</g>
	<g>
		<g>
			<path d="M146,26.4c5.4-1.8,11.9-2.7,17.5-0.6c6,2.1,10.4,8.1,11.1,14.6c1,10.3-5.6,20-14.5,25.1c-2.7,1.5-5.7,2.9-9.1,3.8
				c-1.7,0.6-3.5,0.4-5.4-0.4c-1.9-1-3.1-1.7-4.9-3.1c-1-0.9-2-1.7-2.1-3.3c-0.1-0.5,0-1.2,0-2l3-32.1C142.7,27.6,144.3,27,146,26.4
				z M155,57.4c3.4-2.8,6-6.2,7.4-10.1c1.1-3.1,1.6-7.2,0.3-9.6c-1.6-2.9-5.2-3.6-8.8-2.4c-2.4,8.8-4.1,17.3-5.7,26.1
				C150.9,60.3,153.2,58.9,155,57.4z"/>
		</g>
		<g>
			<path d="M210,31.5c5.2,9.8-1.4,33.4-13.4,35.9c-2.9,0.6-6.5,0.2-9.7-0.4c-3.5-0.7-7.2-2.5-9-5.4c-5-9.2-2.1-21.5,4.1-29.5
				c1.4-1.8,3.1-3.5,4.9-4.9c2.5-1.7,6.4-2.9,9.5-2.4C201.5,25.5,207.4,27.2,210,31.5z M195.8,34.1c-4.2,3.8-7.8,11.8-8.5,17.4
				c-0.4,2.9-0.7,9.1,2.5,10.1c1.9,0.5,3.6-1.2,4.9-2.9c3-4,4.6-9.1,5.4-14.2c0.4-2.8,1.2-10.4-1.6-11.3
				C197.5,33.1,196.7,33.3,195.8,34.1z"/>
		</g>
		<g>
			<path d="M239.2,39.7c1-4,2.1-7.6,3.2-10.9c0.3-0.9,0.7-1.4,1.3-1.6c0.6-0.2,1.4-0.2,2.7,0c1,0.2,1.8,0.3,2.8,0.7
				c1,0.4,1.8,0.8,3,1.4c1.9,1,2.1,1.9,1.5,3.8c-3.6,10.3-7.1,22.6-9.9,33.1c-0.2,1.2-1.3,1.6-3.3,1.2c-1.6-0.3-3.4-0.7-5.1-1.2
				c-1.6-0.5-2.8-1.4-3.4-2.8c-0.5-0.9-1-2-1.5-3.4c-1.7-4.3-3.4-9-4.7-13.5c-1.1,5.3-2.4,10.9-3.5,16.2c-0.3,1.5-0.5,2.9-0.7,3.9
				c-0.1,0.5-0.4,0.8-0.7,1c-0.3,0.1-0.9,0.1-1.9-0.1c-1.7-0.4-3.6-0.6-5.2-1.5c-0.8-0.3-1.3-0.7-1.6-1.2c-0.3-0.4-0.4-1.1-0.3-1.8
				c0.6-6.8,1.8-14.8,3.1-21.9c0.7-4,1.5-8.4,2.5-12c0.2-0.9,0.7-1.5,1.3-1.7c0.6-0.2,1.5-0.2,2.7,0c1.3,0.3,2.7,0.7,3.9,1
				c1.2,0.3,2.6,0.8,4,1.3c1.1,0.4,1.9,0.9,2.4,1.5c0.5,0.6,0.8,1.5,1,2.7c1.1,5.6,2.6,12.3,4,18C237.3,47.7,238.2,43.7,239.2,39.7z
				"/>
		</g>
		<g>
			<path d="M267.9,59.1c-2.7,0.3-5.1,0.7-7.2,1.2c-0.7,1.2-1.3,2.4-1.9,3.4c-0.5,1-1,2-1.5,3.1c-0.3,0.5-0.6,0.8-1,0.9
				c-0.8,0.2-2.4-0.4-3.4-0.8c-0.5-0.2-1.1-0.4-1.7-0.7c-0.4-0.2-0.8-0.4-1.1-0.6c-0.6-0.4-1-0.8-1-1.6c0-0.4,0.1-0.9,0.3-1.5
				c3.4-8.2,8.4-17.6,12.8-25.6c1.6-3,3.3-5.6,4.8-8c1.4-2,3.1-2.9,5.9-2.7c2.6,0.1,4.8,0.4,7.2,0.8c1.8,0.3,3.4,0.8,5.1,1.2
				c1.1,0.3,1.8,0.8,2.1,1.3c0.3,0.5,0.4,1.3,0.3,2.1c-0.2,2.2-0.4,4.7-0.5,7.6c-0.4,8.6-0.5,18.4-0.4,27c0,0.5-0.1,0.9-0.4,1.1
				c-0.3,0.2-0.9,0.3-1.8,0.3c-1.8,0-3.3,0-5-0.5s-2.2-0.8-2.6-2.7c-0.3-2-0.5-4.2-0.7-6.4C273.3,58.5,270.5,58.8,267.9,59.1z
				 M270.5,51c1.6-0.2,3.3-0.3,4.9-0.4c-0.1-5-0.3-10.1-0.1-15.1c-3.2,4.9-6.6,10.6-9.7,16.1C267.3,51.5,268.9,51.3,270.5,51z"/>
		</g>
		<g>
			<path d="M324.4,38.1c-4.1,5.9-9.2,12.4-13.8,18c-1.1,3.9-1.9,7.3-2.9,11c-0.2,0.6-0.4,1-0.7,1.1c-0.3,0.1-0.9,0.1-1.9-0.1
				c-1.6-0.4-3.7-0.9-5.3-1.5c-1.5-0.9-1.9-1.3-1.8-3.2c0.6-3.3,0.9-6.8,1.6-10.4c-3.2-7.8-6.8-16.2-9.7-23.9
				c-0.8-1.7-0.4-2,1.4-2.4c2.2-0.1,4.2-0.4,6.4,0.1c1.1,0.2,1.8,0.6,2.4,1c0.5,0.5,1,1.2,1.6,2.2c1.9,4.3,3.7,9.2,5.4,14
				c4-5.4,7.7-11,11.3-16.8c1-2.7,4.8-0.5,6.3,0.6c1.2,1,3,1.9,3.2,3.5C328,33,325.7,36.2,324.4,38.1z"/>
		</g>
		<g>
			<path d="M336,61.6c-0.4,1.7-0.8,3.5-1.2,5.1c-0.5,1.2-1,1.2-2.5,1c-1.7-0.4-3.2-0.4-4.8-1.1c-1.4-0.7-1.8-1.5-1.6-3.2
				c0.1-0.6,0.2-1.6,0.3-2.9c0.7-6.3,1.5-13.5,2.8-19.9c0.5-2.6,1.5-8.5,3.6-9.6c7.6-2.9,19.4-7.8,26.5-2c1.2,1.2,2.5,2.5,3.5,3.8
				c1.9,2.5,3.8,7.4,1.8,10.1c-3.5,5.4-10.1,8.3-16.7,10.9c3.6,3.4,7.8,7.2,11.9,10c0.7,0.5,1,0.9,1,1.2c-0.2,0.7-1.9,1.6-2.6,1.7
				c-1.3,0.2-2.8,0.6-4.3,0.4c-2-0.2-4.2-1.5-6.2-3c-3.4-2.4-7.1-5.2-10-8.3C336.9,58,336.4,59.8,336,61.6z M341.5,42.3
				c-0.5,1.8-1.1,3.7-1.8,5.7c4.3-1.2,8.4-3.3,11.5-5.8c1.3-1,2.2-2,2.9-3.1c1.6-2.7-0.1-3.5-3.3-3.6c-2.5,0-5,0.5-7.5,1.5
				C342.6,38.8,342,40.4,341.5,42.3z"/>
		</g>
		<g>
			<path d="M374.4,28.8c4-0.8,8.2-1.4,12.4-1.8c2.1-0.2,4.4-0.4,6.5-0.4c2,0,3.4,0.6,4,2c0.5,0.7,0.8,1.4,1,2c0.2,0.9,1,2.9,0.3,3.6
				c-0.3,0.3-0.9,0.5-2,0.6c-4.6,0.5-9.2,0.8-14,1.4c-1.1,3-1.9,5.9-3.1,9.1c2.2-0.3,4.4-0.4,6.7-0.4c1,0,1.8,0,2.4,0.2
				c1.2,0.4,2,1.9,2.5,3.1c0.2,0.6,0.4,1.2,0.6,1.8c0.3,0.7,0.3,1.2,0.1,1.4c-0.2,0.2-0.8,0.5-1.8,0.6c-4.3,0.7-9,1.2-13.2,2
				c-0.6,1.9-1,3.6-1.6,5.4c3.5-0.5,6.2-0.8,9.8-1c1-0.1,1.8,0,2.4,0.2c1.8,0.6,2.4,3.1,3.3,4.5c0.4,1.5-0.1,1.5-1.7,1.8
				c-4.5,0.7-9.5,1.6-13.9,2.2c-1.4,0.3-2.6,0.4-3.3,0.2c-0.7-0.2-1.3-0.4-1.9-0.7c-1.4-0.8-2.4-1.4-3.8-2.5c-1.2-0.9-2-2-1.8-3.7
				l5.1-31C370.7,29.5,372.5,29.2,374.4,28.8z"/>
		</g>
	</g>
	<path d="M326.9,91.6c1.1,0,1.6-0.7,1.8-1.3c0.9-2.4,1-4.8,1.9-7.2c0.8,1,1.2,2.1,1.8,3.3c0.6,1.1,0.3,2.5,1.8,3.4
		c1.6,0.9,4.2-0.2,3.7-1.5c-0.1-3.6,1-7.2,2.5-10.6c0.3-0.9,0.6-1.8,0.2-2.8c-0.2-0.4-0.8-0.8-1.6-0.8c-1.1,0.3-1.8,1.1-1.9,1.8
		c-0.8,2.8-1.6,5.5-2.2,8.4c-0.8-0.9-1.1-1.8-1.5-2.9c-0.4-1.2-0.2-2.5-0.7-3.7c-0.8-0.8-2.7-1-3.7-0.3c-1.6,0.7-1.1,2.1-1.3,3.2
		c-0.6,3.1-2.1,6.1-2.1,9.3C325.7,90.6,325.8,91.5,326.9,91.6z"/>
	<path d="M361.5,91.6c0.3,0.3,1,0.3,1.3,0.1c0.8-0.2,0.9-0.8,1.2-1.3c1-2.2,1.3-4.6,2.3-6.8c0.7,1,1.1,2.1,1.6,3.3
		c0.4,1.1,0.2,2.6,1.6,3.5c1.2,0.7,3.3,0.1,3.8-0.8c0.1-3.8,1.5-7.5,3.2-11c0.4-0.9,0.8-1.9,0.6-2.9c-0.2-0.4-0.9-1-1.7-0.7
		c-0.9,0.3-1.6,0.8-1.7,1.4c-1.1,2.9-1.9,5.7-3,8.5c-0.7-0.9-1-1.8-1.2-2.9c-0.3-1.2,0-2.5-0.3-3.7c-0.7-0.8-2.6-1.1-3.6-0.4
		c-1.7,0.6-1.3,2-1.6,3.2c-0.8,3-2.5,5.9-2.8,9C361,90.5,361.1,91.1,361.5,91.6z"/>
	<path d="M299.7,81.2c-0.7,3.1-1.5,6-1.6,9.1c0,0.5,0.3,1.1,1.2,1.2c1-0.1,1.8-0.6,2-1.3c0.6-1.6,0.9-3.3,1.3-5
		c2.8,0.7,5.6,1.4,8.5,1.8c-0.7,1.3-1.7,2.7-1.8,4.1c0.1,0.4,0.1,0.9,0.7,1.2c0.9-0.1,1.6-0.6,2.1-1.1c1.3-1.5,2-3.3,3.1-4.9
		c1.6-0.5,3.3-0.9,5-1.2c0.1,1.4-0.2,2.9,0.8,4.2c0.4,0.6,1.8,1.3,2.5,0.5c0.8-1,0.4-2.2,0.3-3.4c-0.1-1.7-0.2-3.5-0.3-5.2
		c-0.1-1.8,0.8-3.6,0.3-5.4c0-0.4-0.6-0.8-1.2-0.7c-1.3,0.2-2.6,0.6-3.8,1c-1.5,0.5-2.1,1.6-2.8,2.6c-1.3,2-2.6,4.2-3.8,6.3
		c-2-0.7-4.2-1-6.3-1.6c2.3-0.8,4.6-1.9,6-3.5c1-1,1.6-2.4,1.2-3.6c-0.2-0.8-1.5-1.5-2.7-1.4c-2.8,0.1-5.5,0.6-7.8,1.4
		c-1.6,0.6-3.2,1.4-3.5,2.8C299.5,80,299.8,80.6,299.7,81.2z M320.2,78.7c0,1.4-0.1,2.9,0,4.3c-1.1,0.2-2.2,0.3-3.3,0.6
		C317.8,81.9,318.4,80.1,320.2,78.7z M303.5,79.1c2.1-0.8,4.4-1.5,6.7-1.6c-1.1,2.1-3.9,3.7-7,4.5C303.3,81,303.9,80.1,303.5,79.1z"
		/>
	<path d="M342.7,80.7c-0.7,1.5-1.3,3.2-1.7,4.8c-0.3,1.5-1.2,3-1.9,4.5c-0.3,0.5,0,1.5,1.1,1.5c1.2,0.1,2-0.5,2.9-1
		c3-1.6,5.9-3.4,8.4-5.3c2-1.6,3.2-3.6,4.2-5.6c0.7-1.3,0.4-2.9-1.1-3.9c-0.9-0.6-2.2-0.7-3.5-0.5c-2.3,0.3-4.5,1-6.5,1.8
		c-0.9,0.4-1.9,0.7-2.2,1.4C341.9,79.1,343.1,79.9,342.7,80.7z M345.7,82.4c0.6-1.1,1.1-2.2,0.9-3.5c1.6-0.7,3.2-1.2,5.1-1.3
		c0.6,0,0.9,0.3,0.8,0.7c-0.3,2.4-2.2,4.3-4.4,6c-1.3,1-2.6,2.1-4.4,3C344.3,85.6,344.9,84,345.7,82.4z"/>
	<path d="M394.1,76.5c-1.6-0.8-3.7-0.8-5.6-0.5c-2.7,0.5-5.4,1.2-7.4,2.6c-3.7,2.5-5.7,6.1-4.7,9.7c0.4,1.8,3.2,3.4,6,3.4
		c1.5,0.1,3.1,0.1,4.4-0.5c1-0.5,0.7-1.4,1-2.2c0.4-2.1,2-4.1,2.3-6.2c0-0.6-1.1-0.6-1.8-0.5c-2.5,0.3-5.1,0.8-6.6,2.2
		c-0.2,0.2-0.6,0.7,0,0.8c1.5,0.1,2.8-0.2,4-0.5c-0.7,1.5-1.3,3.1-1.9,4.5c-1,0-2,0-2.8-0.5c-1.9-1.2-1.8-3.2-1-4.7
		c0.8-1.5,1.8-3.3,3.9-4.3c2.2-1.1,5-1.8,7.9-1.7c0.6,0,1.2,0.1,1.7-0.2C394.2,77.5,394.8,76.9,394.1,76.5z"/>
	<path d="M285.1,91.9c3.7-0.6,7.5-1.3,10.3-3.2c1.1-0.7,2-1.9,1.1-2.9c-1.1-1.3-2.9-2.2-4.7-3.2c1.5-0.7,2.8-1.3,4.1-2
		c1.1-0.6,2.3-1.4,2.7-2.5c0.2-1.2-1.1-2.7-3-2.7c-2,0-4,0.5-5.9,0.9c-1.5,0.4-3.1,0.7-3.9,1.7c-0.6,0.7,0.2,1.5,0.1,2.2
		c-0.3,3.3-1.6,6.5-2.5,9.8c-0.1,0.5-0.1,0.9,0.2,1.4C283.9,92,284.6,92,285.1,91.9z M290,78.9c1.6-0.4,3.2-0.8,4.9-0.7
		c-0.3,0.7-1.1,1.1-1.9,1.6c-1.1,0.6-2.2,1.2-3.5,1.6C289.7,80.6,289.9,79.8,290,78.9z M288.7,84.5c1.3,0.5,2.7,1.1,3.7,1.8
		c0.6,0.3,0.9,0.9,0.3,1.3c-1.5,0.8-3.2,1.3-5,1.5C287.7,87.4,288.2,85.9,288.7,84.5z"/>
	<path d="M355.6,89.1c0.1,0.4,0.3,0.9,1.1,0.9c0.9-0.1,1.3-0.7,1.7-1.2c0.9-1.5,0.9-3.2,1.6-4.7c0.7-1.8,1.1-3.7,1.8-5.5
		c0.1-0.6,0.4-1.3-0.2-1.7c-0.4-0.4-1.3-0.3-1.9-0.1c-0.6,0.1-0.9,0.4-1.1,0.7c-0.9,1.3-1.1,2.9-1.6,4.3
		C356.4,84.1,355.2,86.5,355.6,89.1z"/>
	<g>
		<path d="M294,112.2c-2.3-1.6-5-3-7-4.7c-1.5-1.2-0.1-2.9,1.3-3.9c0.8-0.5,1.8-1.1,2.8-1.5c2.3-1.2,5.1-2.1,8.1-2.6
			c0.9,0.3,1.6,0.8,2.6,1c0.9,0.2,1.9,0.1,2.7-0.2c0.7-0.4,1-1,0.8-1.6c-0.4-1.1-1.8-2.2-3.8-2.5c-2-0.2-4.2-0.2-6.3,0.1
			c-3.3,0.5-6.4,1.4-9,2.7c-2.1,1.1-3.9,2.4-5.2,3.8c-2.1,2.1-1.8,5,1,7c3.3,2.5,7.4,4.6,10.7,7.1c0.9,0.7,1.7,1.4,2.1,2.2
			c0.9,1.7-0.7,3.7-3.2,4.8c-1.2,0.7-2.8,1.2-4.5,1.3c-3.6,0-3.9-2.5-6.1-3.6c-1.1-0.4-2.5-0.3-3.6,0c-0.7,0.5-1.1,1.1-0.9,1.7
			c0.7,3.9,8.5,6.4,14.8,5.3c1.9-0.3,3.7-0.9,5.2-1.6c3.6-1.9,5.7-4.6,5.1-7.5C300.9,116.6,297.2,114.3,294,112.2z"/>
		<path d="M368.1,124c-17.3-0.3-35.7,1.5-51.5,6.2c-1.3,0.2-2.8,1.5-0.4,1.6c3.5-0.4,6.7-1.2,10.1-1.9c14.1-2.6,28.8-3.7,43.2-3.4
			C371.2,125.6,370.7,123.8,368.1,124z"/>
		<path d="M328.8,106.8c0.3-0.5,0.3-1.2-0.4-1.6c-1.2-0.6-3.1-0.1-3.6,0.8c-2,3.9-3.5,7.8-4.6,11.8c-0.2,1.1-0.4,2.5,0.4,3.5
			c0.7,0.8,2.1,1.2,3.5,1c2-0.3,3.8-1,5.5-1.8c0.2,0.5,0.2,1,0.8,1.4c1,0.7,3.2,0.5,3.6-0.5c1-5.4,2.3-10.8,4.2-16.2
			c0.3-0.9-1.1-1.7-2.5-1.4c-1.1,0.1-1.7,0.9-1.9,1.6c-1.1,3.3-2.2,6.6-3.1,9.9c-0.1,0.7-1,1.2-1.7,1.8c-1.2,0.8-2.6,1.6-4.4,1.9
			c-0.1-1.1,0.3-2.4,0.6-3.5C326.2,112.6,327.4,109.6,328.8,106.8z"/>
		<path d="M355.4,120c1,0.5,2.9,0.4,3.5-0.3c0.7-1,0.4-2.1,0.8-3.2c1-3.7,2.3-7.4,3.7-10.9c0.1-0.4,0.4-0.9,0-1.3
			c-0.6-0.4-1.6-0.5-2.3-0.3c-1.1,0.2-1.6,0.9-1.9,1.5c-1.1,2-1.7,4.2-2.3,6.2c-0.7,2.1-1.3,4.2-1.7,6.3
			C354.8,118.6,354.6,119.4,355.4,120z"/>
		<path d="M338.2,113.6c-0.8,1.6-1.1,3.5,0.1,5c0.9,1.1,2.8,1.8,4.7,1.9c3.3,0.2,7-0.1,9.8-1.3c1.6-0.6,0.7-2.2-1.1-2.2
			c0.1-1.6,0.2-3.3,0.3-4.9c1-4.3,2.3-8.5,3.7-12.7c0.1-0.5,0.4-1.1,0-1.6c-0.6-0.5-1.7-0.6-2.6-0.4c-1.2,0.3-1.7,1.1-2.1,1.8
			c-0.7,1.3-1.1,2.8-1.5,4.1c-0.8,0.3-1.5,0.7-2,1.1C343.6,107,339.9,110,338.2,113.6z M348.2,107.8c-0.6,2.2-1.2,4.5-1.6,6.7
			c-0.1,0.8-0.3,1.7,0.6,2.5c0.2,0.1,0.4,0.2,0.7,0.3c0,0.2,0,0.3,0,0.5c-1.9,0.2-3.8,0.3-5.7,0c-0.9-0.2-1-0.9-0.9-1.4
			c0.2-2.1,1.9-4.1,3.7-5.8c1-1,2.1-1.9,3.3-2.9C348.2,107.7,348.2,107.7,348.2,107.8z"/>
		<path d="M362.6,102.8c3.2-0.1,3.1-3.1-0.1-3C359.4,99.9,359.4,102.9,362.6,102.8z"/>
		<path d="M320.2,103c8.8-1.8,18-3.2,27.2-4h0.4l0.3-0.2c1.1-0.7,1.5-1.7,0.8-2.5c-0.6-0.6-1.8-1.1-3.8-0.9
			c-19.4,1.9-37.1,5.7-50.9,11c-1.2,0.3-2.3,1.2-2,2c0.1,0.3,0.6,0.8,2.1,0.8c0.2,0,0.3,0,0.6,0h0.2c2-0.5,4-1,5.9-1.5
			c1-0.3,2-0.6,3.1-0.8v0.1c0.7-0.2,1.3-0.4,1.9-0.6c0.4-0.1,0.9-0.2,1.3-0.3c-0.4,5.7-0.8,11.5-1.2,17.2c0,0.8-0.1,1.7,0.1,2.6
			c0.4,1.3,3.5,1.6,4.8,0.6c0.9-0.8,1-1.8,0.9-2.8c-0.3-6.2,0.3-12.5,1-18.7C315.4,104.2,317.9,103.6,320.2,103z"/>
		<path d="M386.3,103.8c-1.1,1.5-2.7,3.1-4.9,4.1c-0.3-1.9-1.2-3.8-3.2-5.2c-0.8-0.4-0.6-1.3-1.6-1.6c-1.1-0.4-2.5-0.3-3.6,0.1
			c-3,1-5.2,2.8-6.8,4.7c-0.8,0.6-1.2,1.2-1.6,1.9c-0.1,0.2-0.1,0.4-0.1,0.6c-0.1,0.2-0.2,0.4-0.3,0.7c-0.9,2.7-1.5,5.5,0.1,8.2
			c1,1.5,2.9,3.1,5.7,3.3c3.1,0.2,5.9-1.1,7.6-2.7c2-1.8,3.1-4,3.7-6.2c4.5-1.3,7.9-3.9,9.8-6.4C392.7,103.4,387.8,102,386.3,103.8z
			 M373.1,117c-0.7,0.5-1.9,1.2-2.9,0.6c-1.7-1.2-1.9-3-1.9-4.6c0-0.4,0-0.8,0.1-1.2c1,0.3,2.1,0.6,3.1,0.7c1.7,0.2,3.2,0.3,4.8,0.2
			C375.7,114.2,374.7,115.7,373.1,117z M376.8,109.3c-1.5,0.2-3,0.2-4.4-0.1c-0.6-0.1-2.1-0.4-2.3-0.8l0,0c-0.2,0-0.3-0.1-0.6-0.1
			c0.9-1.5,2.3-3,4.2-4.1c2.3,1.1,2.9,3.1,2.9,4.8C376.8,109.1,376.8,109.2,376.8,109.3z"/>
	</g>
</g>
</svg>
