<?xml version="1.0" encoding="utf-8"?>
<!-- Generator: Adobe Illustrator 25.3.0, SVG Export Plug-In . SVG Version: 6.00 Build 0)  -->
<svg version="1.1" id="Capa_1" xmlns="http://www.w3.org/2000/svg" xmlns:xlink="http://www.w3.org/1999/xlink" x="0px" y="0px"
	 width="328px" height="150px" viewBox="0 0 328 150" style="enable-background:new 0 0 328 150;" xml:space="preserve">
<style type="text/css">
	.st0{fill:#E5332A;}
	.st1{fill:#FFFFFF;}
</style>
<path class="st0" d="M119.54,91.36c-12.6,30.82-47.8,45.59-78.62,32.99C-31.91,91.6,11.66-14.91,86.55,12.74
	C117.37,25.34,132.14,60.54,119.54,91.36z"/>
<path class="st1" d="M140.15,93.51c-3.18-2.42-6.01-5.3-8.42-8.47c2.04-0.03,4.31,0.27,6.15-0.81
	c-5.73-5.03-10.13-11.58-13.94-18.12c4.53-5.75,7.27-14.6,2.35-20.92c-2.38,0.17-4.64,1.06-6.91,1.74
	c0.24-6.17-0.07-12.8-3.28-18.24c-6.11-7.65-19.08-8.12-28.11-7.74c-0.72-6.97-11.65-6.8-12.17,1.05
	c-8.4,0.32-22.14,4.08-24.08,13.55c-0.34,2.51,0.37,4.99,0.85,7.42c-1.32-0.43-2.61-1.02-3.99-1.27c-0.2-0.06-0.43-0.03-0.55,0.17
	c-2.54,2.98-3.38,7-3.1,10.83c-7.45,0.84-17.94,2.75-22.06,9.72c-1.65,2.92-0.9,6.58,2.26,8.04c7.38,2.72,17.12-3.77,23.36-7.4
	C46.1,66.7,43.18,70,40.28,73.24c-2.15,2.29-4.41,4.52-7.03,6.26c1.72,1.28,4.03,1.15,6.06,1.39c-2.69,2.96-5.82,5.54-9.18,7.71
	c3.4,0.87,6.93,1.23,10.44,1.02c-1.29,3.29-1.92,6.82-1.93,10.36c-3.6,0.07-7.22,0.6-10.81,1.35c-0.25,0.23-0.5,0.46-0.74,0.7
	c1.45,0.22,3.19,0.03,4.25,1.09l0.5,1.1c0.22,3.21,0.76,6.39,1.11,9.59c-0.01,0.01-0.03,0.01-0.04,0.02
	c-1.84,0.51-4.31,1.26-7.12,2.28c1.01,2.87,2.47,5.47,4.14,7.94c1.92,1.96,3.55,4.38,4.99,6.08c0.08,0.09,0.14,0.2,0.18,0.32
	c0.05,0.01,0.1,0.03,0.15,0.05c3.03,1.2,5.42,3.37,7.89,5.42c2.41,0.98,4.85,1.87,7.37,2.64c3.06,0.95,6.08,2.06,9.13,3.04
	c3.13-0.05,6.28-0.44,9.33-0.76c1.48-0.15,1.47,2.16,0,2.31c-0.78,0.08-1.56,0.16-2.35,0.25c0.95,0.16,1.91,0.27,2.88,0.33
	c2.14,0.13,4.24-0.1,6.38-0.18c1.99-0.08,3.99-0.04,5.99-0.04c0.09-0.23,0.18-0.45,0.28-0.68c0.52-1.19,2.11-0.44,2.11,0.67
	c1.52-0.02,3.04-0.09,4.55-0.26c2.11-0.23,3.89-1.01,5.77-1.97c1.86-0.96,3.72-1.78,5.69-2.48c2.35-0.83,4.68-1.61,6.96-2.53
	c0.98-0.44,1.96-0.88,2.95-1.31c0.77-0.38,1.53-0.79,2.28-1.23c3.47-2.07,6.71-4.52,9.54-7.41c2.71-2.77,4.78-5.8,6.54-9.24
	c1.39-2.71,2.73-5.52,4.73-7.84c-1.82-0.26-3.65-0.48-5.47-0.57c0.58-1.71,0.84-3.5,1.08-5.29c0.72,0.91,1.07,2.05,1.4,3.15
	c1.06-4.17,0.54-8.77-0.54-12.89C133.16,94.13,136.71,94.16,140.15,93.51z"/>
<g>
	<path d="M55.9,46.12c-1.38-6.67,0.43-14.1,5.83-18.51C52.57,30.59,52.26,38.42,55.9,46.12z"/>
	<path d="M90.29,61.07c-0.07,0.58,0.44,0.99,0.85,1.3c1.53,1.1,3.63,1.14,5.32,0.42c-1.86,0.01-3.88-0.24-5.33-1.5
		C90.9,61.11,90.53,60.73,90.29,61.07z"/>
	<path d="M89.03,98.63c2.22-0.93,4.92-2.14,5.94-4.48c-0.46-0.64-1.27-0.49-1.82-0.06c-1.26,0.95-2.28,2.2-3.67,2.99
		c-3.27,1.86-7.14,2.49-10.86,2.32c0.14,0.36,0.28,0.72,0.42,1.08C82.45,100.44,85.85,99.84,89.03,98.63z"/>
	<path d="M89.38,99.99c-1.41,0.82-2.82,1.65-4.22,2.47c-0.77,0.45-0.07,1.64,0.7,1.19c1.41-0.82,2.82-1.65,4.22-2.47
		C90.85,100.73,90.15,99.54,89.38,99.99z"/>
	<path d="M52.43,101.97c-0.31-2.77-0.79-5.56-0.51-8.35c0.36,2.29,0.67,4.58,1.13,6.85c0.2-0.54,0.46-1.07,0.88-1.48
		c2.62,6.82,6.65,13.49,12.71,17.75c-1.01-1.37-2.19-2.68-2.71-4.34c0.24,0.26,0.46,0.54,0.67,0.83c-0.01,0-0.01-0.01-0.02-0.01
		c1.6,2.25,3.81,3.96,6.1,5.46c0.16,0.03,0.31,0.07,0.47,0.1c-0.32-0.3-0.65-0.59-0.99-0.88c0.95,0.58,1.94,1.09,2.96,1.51
		c-1.29-0.96-2.6-1.93-3.92-2.88c-0.01-0.02-0.02-0.03-0.03-0.05c3.72,2.58,7.92,4.6,12.32,5.71c-7.3-5.92-12.81-13.82-16.43-22.47
		c0.48,2.4,1.48,4.66,2.47,6.88c-2.14-1.57-3.66-3.79-5.13-5.96c1.14,3.91,3.77,7.2,6.47,10.18c-4.66-3.23-7.76-8.25-10.63-13.04
		c2.37,7.22,7.5,13.25,13.48,17.81c-2.41-1.23-4.45-3.04-6.44-4.84c0.18,0.36,0.36,0.71,0.55,1.07c-7.1-5.56-10.68-14.57-11.3-23.39
		c-0.39,3.57,0.18,7.16,0.79,10.67c-1.4-3.03-1.6-6.47-1.77-9.76c-0.34,0.96-0.33,1.99-0.45,2.99c-0.85-4.83-0.28-9.75,0.55-14.53
		c-1.28,3.62-1.86,7.44-2.34,11.24c-0.09-3.3,0.44-6.57,0.96-9.81C49.46,86.43,49.62,94.78,52.43,101.97z"/>
	<path d="M90.98,116.96c-2.11,2.05-4.48,3.81-6.92,5.43c4.91-0.81,9.55-2.71,13.9-5.08c-0.82,1.05-2.01,1.71-3.04,2.52
		c0.16-0.02,0.32-0.04,0.48-0.06c2.05-1.11,4.05-2.34,5.71-3.99c0.62-0.59,1.12-1.28,1.71-1.9c-0.78,1.81-2.16,3.27-3.61,4.57
		c6.55-3.63,11.38-10.15,14.63-16.77c0.38,0.45,0.58,0.99,0.74,1.55c0.67-2.22,1.16-4.48,1.76-6.71c0.01,2.81-0.72,5.53-1.26,8.26
		c3.43-6.92,4.35-15.21,2.18-22.66c0.23,3.28,0.43,6.58,0.11,9.86c-0.2-3.77-0.37-7.58-1.32-11.25c0.35,4.76,0.5,9.62-0.76,14.28
		c-0.07-0.98,0.02-1.97-0.2-2.94c-0.48,3.36-1.06,6.83-2.75,9.82c1.04-3.55,1.88-7.21,1.86-10.93c-1.39,8.77-5.77,17.46-13.35,22.41
		c0.18-0.31,0.36-0.62,0.53-0.93c-2.01,1.44-3.99,3.03-6.32,3.93c6.03-4.04,11.64-9.32,14.47-16.14c-3.26,4.48-6.8,9.09-11.66,11.91
		c2.94-2.76,5.88-5.78,7.37-9.59c-1.66,2.03-3.37,4.12-5.65,5.48c1.13-2.04,2.33-4.09,2.96-6.36
		C99.45,107.29,95.67,112.57,90.98,116.96z"/>
	<path d="M75.73,114.3c0.13-0.44,0.28-0.87,0.45-1.29c1.67,3.2,4.11,5.98,6.79,8.39c2.82-2.23,5.52-4.7,7.46-7.74
		c0.13,0.43,0.24,0.87,0.34,1.32c2.81-2.68,5.64-5.75,6.65-9.59c-1.71,2.6-3.4,5.32-5.83,7.32c0.06-1.39,0.08-2.8-0.2-4.18
		c-0.7,3.91-2.82,5.95-6.13,7.89c-0.77,0.46-1.53,0.95-2.16,1.6c-0.89-1.14-2.18-1.84-3.26-2.76c-2.45-1.9-3.93-4.33-4.11-7.46
		c-0.45,1.34-0.53,2.77-0.6,4.18c-2.24-2.22-3.68-5.07-5.15-7.81C70.62,108.08,73.17,111.39,75.73,114.3z"/>
	<g>
		<path d="M24.34,69.63c7.38,2.72,17.12-3.77,23.36-7.4c-2.41,3.61-5.33,6.91-8.23,10.15c-2.15,2.29-4.41,4.52-7.03,6.26
			c1.72,1.28,4.03,1.15,6.06,1.39c-2.69,2.96-5.82,5.54-9.18,7.71c3.4,0.87,6.93,1.23,10.44,1.02c-1.29,3.29-1.92,6.82-1.93,10.36
			c-3.6,0.07-7.22,0.6-10.81,1.35c-0.25,0.23-0.5,0.46-0.74,0.7c1.45,0.22,3.19,0.03,4.25,1.09l0.5,1.1
			c0.22,3.21,0.76,6.39,1.11,9.59c-0.01,0.01-0.03,0.01-0.04,0.02c-2.7,0.75-6.74,2-11.25,3.88c1.49,2.58,19.09,31.4,61.6,27.83
			c-0.28-0.15-0.49-0.43-0.49-0.85c-0.02-4.13,0.09-8.26,0.12-12.39c-0.46-0.04-0.75-0.43-0.8-0.86c-2.52-0.72-4.57-2.51-6.97-3.52
			c-5.01-2-9.36-5.07-13.58-8.41c-0.39-0.02-0.7-0.47-0.94-0.77c-2.44-2.07-4.63-4.4-6.11-7.25c-0.32-0.62,0.02-1.5,0.77-1.54
			c0.05-0.19,0.15-0.35,0.3-0.47c-0.47-0.21-0.92-0.45-1.37-0.69c-0.84-2.11-1.56-4.26-2.16-6.45c-1.34,1.36-2.9,2.52-4.62,3.35
			c-0.66-0.54-1.07-1.27-1.24-2.12c-0.16-0.82,0.3-1.82,0.16-2.57c-0.05-0.01-0.1-0.02-0.16-0.04c1.31-5.8,0.6-12.13,3.53-17.52
			c-0.76,0.42-1.26,1.15-1.8,1.81c-0.3,0.41-0.85,0.45-1.3,0.6c-2.3,0.63-4.7,0.69-7.07,0.63c0.48-0.39,1.09-0.57,1.6-0.9
			c1.26-0.78,2.43-1.71,3.54-2.69c0.14-0.15,0.37-0.29,0.3-0.54c-3.16,2.05-6.73,3.49-10.42,4.26c2.9-1.88,5.38-4.39,7.43-7.16
			c-1.91,0.36-3.94,0.46-5.8-0.19c1.72-1.27,3.3-2.71,4.88-4.14c0.34-0.57,0.9-0.95,1.35-1.43c1.33-1.4,2.7-2.78,3.96-4.25
			c0.23-0.28,0.48-0.54,0.77-0.76c-0.78,1.6-2.16,2.8-3.16,4.25c1.84-1.32,3.2-3.19,4.77-4.79c-0.43,1.15-1.36,2.01-2,3.03
			c1.6-1.08,2.8-2.63,4.09-4.04c-0.32,1.11-1.18,1.93-1.77,2.89c1.14-0.61,1.82-1.78,2.79-2.59c-1.21,2.69-4.07,4.67-6.81,5.6
			c1.32,1.43,2.02,1.97,4.01,1.92c0.52,1.5-6.65,6.32-7.95,7.53c4.75-2.45,9.72-6.57,12.85-10.91c-2.36,1.03-4.93,1.59-7.51,1.45
			c0.09-0.1,0.21-0.15,0.34-0.17c2.85-0.92,4.97-3.16,6.51-5.66c1.09,5.75,2.59,11.66,9.19,12.85c0.1-0.01,0.2,0,0.29,0.05
			l0.07,0.02c0.12-0.01,0.25,0,0.36,0.04c0.29,0.07,0.6,0.02,0.9,0.04l0,0.07c0.68,0,1.37-0.01,2.05-0.01
			c-0.44,0.64-0.87,1.29-1.23,1.97c0.64-0.65,1.24-1.35,1.88-1.99c0.17-0.02,0.33-0.04,0.5-0.04c-0.66,1.08-1.11,2.27-1.53,3.46
			c-0.32,0.94-0.83,1.78-1.27,2.66c1.1-0.96,1.79-2.28,2.47-3.55c-0.51,3.3-2.29,6.18-4.23,8.82c1.5-0.98,2.58-2.47,3.67-3.87
			c-0.28,2.86-1.88,5.3-3.52,7.57c1.35-0.74,2.36-1.97,3.16-3.26c0.02,2.66-1.19,5.12-2.48,7.38c1.14-0.61,1.93-1.67,2.57-2.75
			c0.49,3.48,1.73,6.92,3.94,9.69c-2.73-6.66-2.84-14.27-0.72-21.11c0.5,0.85,0.45,1.88,0.54,2.84c0.5-1.55,0.53-3.19,0.49-4.79
			c0.56,0.52,0.87,1.22,1.3,1.84c-0.23-1.9-1.62-3.41-2.05-5.26c0.12-0.04,0.24-0.1,0.37-0.07c0.49-0.1,0.99-0.22,1.48-0.35
			c0.11,0.29,0.24,0.58,0.38,0.86c0.04-0.32,0.03-0.64,0.01-0.96c0.49-0.14,0.97-0.31,1.44-0.52c-1.58,4.63,3.83,5.26,7.01,3.98
			c-0.54-0.5-1.24-0.88-1.56-1.58c-0.39-0.79,0.02-1.77,0.73-2.22c0.76-0.55,1.86-0.52,2.57,0.12c0.96,0.89,1.19,2.27,1.39,3.5
			c0.4,2-0.4,4.33,2.61,3.88c0.53-0.08,0.87-0.56,0.98-1.06c0.52-2.16,0.86-7.29,4.21-6.24c0.91,0.34,1.62,1.43,1.23,2.39
			c-0.3,0.82-1.15,1.18-1.81,1.67c3.48,1.74,8.89,1.22,7.19-3.92c0.53,0.13,1.07,0.23,1.6,0.33c-0.01,0.6-0.06,1.21-0.17,1.8
			c0.38-0.51,0.65-1.1,0.87-1.7c0.06,0,0.12,0,0.18,0.03c0.04,0.01,0.12,0.02,0.16,0.03c0.12-0.01,0.24-0.01,0.36,0.04
			c0.2,0.03,0.46,0.05,0.66,0.07c0.14,0.04,0.29,0.03,0.43,0.04c-0.3,2.37-2.25,4.05-2.88,6.29c0.53-0.51,0.87-1.2,1.47-1.64
			c-0.18,1.59-0.32,3.23,0.08,4.79c0.13-0.94,0.25-1.93,0.75-2.76c1.6,6.92,0.68,14.4-2.44,20.78c2.43-2.45,3.85-5.78,4.66-9.1
			c0.55,1.13,1.23,2.26,2.31,2.96c-1.07-2.36-2.09-4.91-1.79-7.55c0.66,1.36,1.56,2.68,2.85,3.51c-1.47-2.35-2.78-4.94-2.84-7.76
			c1.02,1.41,1.88,3.02,3.31,4.08c-1.69-2.76-3.17-5.77-3.42-9.04c0.63,1.26,1.12,2.64,2.14,3.65c-1.2-2.41-1.35-5.23-2.89-7.48
			c1.02,0.87,1.7,2.05,2.63,2.99c-0.51-1.31-1.29-2.49-2.06-3.66c0.47-0.01,0.95,0.02,1.43-0.03l-0.01-0.04
			c0.24-0.05,0.5,0.02,0.74-0.06c0.09-0.04,0.19-0.06,0.29-0.05c0.14-0.05,0.29-0.09,0.44-0.09c0.09-0.05,0.19-0.07,0.29-0.06
			c0.4-0.07,0.88-0.17,1.19-0.36c5.54-1.64,6.78-8.03,7.66-12.99c-0.02-0.1-0.01-0.2,0.04-0.29c0.08-0.19,0.13-0.4,0.11-0.61
			c-0.02-0.1,0-0.21,0.05-0.29c0-0.12,0.01-0.24,0.06-0.36c0.01-0.05,0.03-0.1,0.04-0.15c2.84,4.57,3.7,9.48,9.15,11.88
			c-0.09-0.03-0.28-0.08-0.38-0.11c-0.65,0.13-1.3-0.06-1.93-0.15c-1.76-0.32-3.42-1-4.99-1.83c2.75,4.61,7.02,8.85,11.49,11.8
			c-2.26-2.1-5.91-4.85-6.35-8.06c-0.03-0.37,0.34-0.58,0.65-0.66c0.99-0.29,2.07-0.27,2.98-0.82c-2.57-1.15-5.16-3.22-6.18-5.91
			c1,0.84,1.57,2.11,2.69,2.84c-0.6-1.01-1.44-1.92-1.68-3.1c0.5,0.42,0.79,1.02,1.19,1.53c0.76,0.92,1.48,1.9,2.43,2.62
			c-0.5-1-1.31-1.85-1.6-2.95c0.17,0.16,0.34,0.31,0.48,0.5c1.13,1.58,2.29,3.17,3.74,4.47c-0.88-1.53-2.16-2.84-2.77-4.52
			c1.41,1.67,2.68,3.54,4.12,5.23c0.43,0.54,0.98,1,1.27,1.63c1.5,1.55,2.91,3.19,4.55,4.6c-1.89,0.56-3.9,0.2-5.77-0.28
			c1.8,2.93,4.02,5.66,6.74,7.78c-3.8-1.13-7.34-3.07-10.46-5.51c0.06,0.15,0.12,0.31,0.24,0.43c1.31,1.32,2.6,2.69,4.15,3.73
			c0.39,0.24,0.8,0.46,1.14,0.77c-2.73-0.2-5.54-0.48-8.02-1.72c-0.66-0.71-1.02-1.68-1.85-2.23c1.17,2.96,1.59,6.17,1.62,9.34
			c0.1,3.58-0.28,7.27,0.87,10.73c0.02-3.44,0.12-6.93,1.1-10.25c-0.45,4.69-0.64,9.48,0.37,14.12c-3.19-0.79-5.93-2.82-8.02-5.3
			c-1.38,3.86-3.25,7.55-5.44,11.01l-3.29,2.28c1.14-1.52,2.16-3.12,3.04-4.8c-0.72,0.55-1.43,1.13-2.12,1.74
			c-2.11,2.73-4.36,5.54-7.31,7.4c-4.26,4.36-10.95,9.22-17.07,9.52c-0.03,4.09-0.13,8.17-0.12,12.26c0,0.34-0.13,0.59-0.33,0.75
			c1.55-0.15,3.14-0.35,4.76-0.59c0,0,36.16-7.27,45.81-34.1l0.09,0.98l0.46-1.6l-0.06,0.01c-0.35-0.24-0.69-0.49-1.04-0.73
			c-2.24-0.33-4.5-0.64-6.74-0.75c0.58-1.71,0.84-3.5,1.08-5.29c0.72,0.91,1.07,2.05,1.4,3.15c1.06-4.17,0.54-8.77-0.54-12.89
			c3.45,0.51,7.01,0.54,10.44-0.12c-3.18-2.42-6.01-5.3-8.42-8.47c2.04-0.03,4.31,0.27,6.15-0.81
			c-5.73-5.03-10.13-11.58-13.94-18.12c4.53-5.75,7.27-14.6,2.35-20.92c-2.38,0.17-4.64,1.06-6.91,1.74
			c0.24-6.17-0.07-12.8-3.28-18.24c-6.11-7.65-19.08-8.12-28.11-7.74c-0.72-6.97-11.65-6.8-12.17,1.05
			c-8.4,0.32-22.14,4.08-24.08,13.55c-0.34,2.51,0.37,4.99,0.85,7.42c-1.32-0.43-2.61-1.02-3.99-1.27c-0.2-0.06-0.43-0.03-0.55,0.17
			c-2.54,2.98-3.38,7-3.1,10.83c-7.45,0.84-17.94,2.75-22.06,9.72C20.42,64.51,21.17,68.17,24.34,69.63z M39.24,99.14
			c0.15-0.21,0.31-0.42,0.49-0.61c0,0.2,0.01,0.41,0.02,0.61C39.58,99.14,39.41,99.14,39.24,99.14z M44.43,92.03
			c0.43,2.6,0.51,5.26,0.33,7.89c-0.24-0.07-0.48-0.19-0.7-0.25C44.4,97.13,44.33,94.57,44.43,92.03z M127.08,110.3l-0.7,0.09
			c-0.01-0.33-0.01-0.66-0.01-1c0.21-0.52,0.41-1.05,0.58-1.59C126.97,108.64,127.02,109.47,127.08,110.3z M70.24,76.95
			c-0.55,0.17-1.1,0.32-1.65,0.43c-0.03-0.56-0.03-1.13,0-1.69c-0.75,0.56-1.36,1.27-1.95,1.99c-0.09,0-0.18,0.01-0.25,0.01
			c-0.85,0.2-1.74,0.08-2.6-0.01c-0.06,0.02-0.18,0.06-0.23,0.09c-0.1-0.03-0.2-0.06-0.29-0.12c-0.05-0.01-0.16-0.02-0.21-0.03
			c-0.13,0.04-0.28,0.06-0.39-0.04l-0.05-0.03c-0.13,0.04-0.28,0.05-0.39-0.04c-4.18-0.68-6.66-4.79-7.42-8.66
			c-0.09-0.08-0.09-0.21-0.05-0.32l-0.03-0.05c-0.09-0.08-0.09-0.21-0.05-0.32c-0.01-0.1-0.02-0.19-0.03-0.28
			c-0.09-0.11-0.09-0.25-0.06-0.38c-0.11-0.1-0.11-0.25-0.06-0.37c-0.04-0.12-0.03-0.26,0-0.38l-0.02-0.05
			c-0.13-0.14-0.15-0.32-0.06-0.54c-0.01-0.29-0.04-0.61-0.08-0.89c-0.01-0.37,0-0.73,0-1.1c-0.04-0.13-0.05-0.27,0.04-0.38
			c0.04-0.32,0.13-0.64,0.23-0.94c0.55-0.86,1.15-1.69,1.82-2.45c0.34-0.25,0.7-0.46,1.09-0.64c1.36,0.84,2.97-0.01,4.39-0.26
			c3.86-0.95,7.88-0.84,11.8-0.33c1.54,0.4,3.06,1.19,3.86,2.61c-0.94,0.14-1.93,0.12-2.86,0.05c0.98,0.5,2.11,0.75,3.21,0.68
			c0.11,0.28,0.19,0.57,0.24,0.88c-1.52,0.2-3.1-0.14-4.57-0.55c-5.03-1.34-13.09-4.73-15.52,2.06c1.15-0.79,3.15-1.59,3.91,0.1
			c1.05,2.31,2.01,4.76,4.56,5.79c-0.58-0.8-1.38-1.48-1.64-2.47c0.91,0.81,1.61,1.9,2.78,2.38c-0.84-1.08-1.92-2.06-2.21-3.45
			c0.89,0.96,1.58,2.16,2.74,2.83c-0.42-0.81-1.03-1.52-1.3-2.4c2.96,1.95,4.46,0.67,7.48,0.18c-0.72,0.51-1.56,0.87-2.11,1.58
			c1.43-0.6,2.8-1.4,4.36-1.61c-0.44,0.34-0.92,0.6-1.4,0.88C72.45,70.4,69.67,73.43,70.24,76.95z M74.36,56.82
			c8.48-1.5,17.19-1.94,25.79-1.88c-2.32,0.65-4.64,1.31-7.01,1.8c3.26,0.6,6.42-0.67,9.55-1.39c1.18-0.22,2.41-0.54,3.6-0.3
			c-1.19,0.3-2.51,0.45-3.48,1.27c1.73-0.16,3.43-0.59,5.12-0.96c-0.61,0.62-1.47,0.89-2.27,1.16c-0.11,0-0.22,0-0.33,0l0-0.07
			c-2.19,0.01-4.37,0-6.55,0.12l0.03,0.06c-0.51-0.01-1.01,0.07-1.51,0.11l0,0.04c-0.12,0.01-0.24,0.02-0.36,0.02
			c-0.14,0.06-0.29,0.1-0.44,0.07c-0.06,0.01-0.18,0.03-0.24,0.04c-0.09,0.05-0.19,0.06-0.28,0.04c-0.21-0.01-0.41,0.06-0.6,0.12
			c-0.24,0.1-0.52-0.03-0.75,0.14l-0.01,0.04c-0.25,0.01-0.5,0-0.73,0.12c-0.09,0.05-0.19,0.05-0.28,0.04
			c-1.67,0.37-3.34,0.84-4.87,1.63c0.14-0.12,0.28-0.23,0.42-0.35c-0.64,0.21-1.24,0.52-1.8,0.88c-0.07,0.02-0.14,0.05-0.22,0.07
			c-0.09,0.04-0.19,0.05-0.28,0.05c-0.41,0.08-0.84,0.07-1.25,0.11c-0.36,0.07-0.73,0.04-1.1,0.05c-0.67-0.61-1.4-1.15-2.24-1.49
			c0.49,0.5,1.02,0.97,1.49,1.5c-0.28,0-0.56,0-0.84,0.01c-0.35-0.22-0.7-0.42-1.09-0.57c0.18,0.21,0.39,0.39,0.6,0.57
			c-0.59,0.02-1.17-0.01-1.76-0.06c-0.12,0.01-0.24,0.01-0.35-0.04c-1.79-0.44-3.32-1.61-5.17-1.89c-0.47-0.14-1.32-0.34-1.96-0.42
			c1.13,0.02,2.29,0.14,3.41-0.12C75.88,57.09,75.11,56.98,74.36,56.82z M90.13,67.61c-0.31-0.27-0.64-0.5-0.99-0.72
			c0-0.01,0-0.03,0.01-0.04c-0.01-0.03-0.03-0.1-0.04-0.13c-0.09-0.69-0.04-1.4-0.06-2.09c0.02-0.2,0.04-0.46,0.08-0.65
			c-0.04-0.11-0.04-0.23,0.04-0.32c0.04-0.25,0.09-0.5,0.15-0.75C89.12,64.49,89.52,66.15,90.13,67.61z M80.82,67.04
			c0.06-0.2,0.1-0.41,0.15-0.61c0.27-0.61,0.49-1.26,0.65-1.91c0.33-0.49,0.81-0.87,1.39-1.05c1.29-0.67,2.55-0.09,3.15,1.18
			c0.66,1.25,0.69,2.72,1.3,3.99c0.48,1.17,1.05,2.29,1.67,3.38c-3.46-0.94-7.23-0.85-10.62,0.32c0.74-1.25,1.38-2.57,1.87-3.94
			c0.89-0.98,1.82-1.9,3.09-2.37C82.49,66.08,81.61,66.51,80.82,67.04z M73,66.21c-1.51,0.46-3.16,0.34-4.66-0.07
			c-1.32-0.39-2.63-1.09-3.46-2.23c-0.26-0.31-0.39-0.95,0.13-1.06c0.51-0.12,1.04,0.03,1.54,0.15c1.91,0.51,3.82,1.06,5.72,1.61
			c0.52,0.2,1.16,0.32,1.49,0.82C73.88,65.88,73.33,66.08,73,66.21z M71.21,76.64c0.47-2.74,2.25-5.36,4.92-6.32
			c0.46-0.18,0.93-0.26,1.42-0.3C76.41,72.91,74.35,75.8,71.21,76.64z M77.07,74.56C77.07,74.56,77.07,74.55,77.07,74.56
			c3.53-2.54,8.97-2.31,12.95-1.01c0.22,0.37,0.45,0.73,0.68,1.1C86.24,73.66,81.53,73.56,77.07,74.56z M96.04,76.4
			c-1.06-1.65-2.75-2.78-4.52-3.56c-1.02-1.44-1.79-3.06-2.17-4.78c-0.08-0.08-0.09-0.2-0.06-0.31c-0.06-0.03-0.08-0.09-0.09-0.15
			c0.85,0.93,1.49,2.12,2.73,2.59c-0.33,0.09-0.65,0.22-0.95,0.37c3.96-0.3,6.99,2.75,7.55,6.54C97.68,76.91,96.85,76.69,96.04,76.4
			z M101.81,77.65c-0.16-0.17-0.31-0.34-0.48-0.5c0,0.15-0.02,0.3-0.03,0.46c-0.51-0.03-1-0.19-1.5-0.25l-0.05-0.03
			c-0.02,0.01-0.03,0-0.05,0.01c0.27-2.77-1.49-5.3-3.5-7.03c-0.69-0.63-1.51-1.09-2.19-1.72c1.52,0.36,2.81,1.26,4.17,1.98
			c-0.47-0.77-1.29-1.18-1.95-1.75c3.06,0.78,4.23,2.16,7.48,0.5c-0.43,0.98-1.18,1.76-1.9,2.52c1.38-0.6,2.29-1.84,3.37-2.83
			c-0.42,1.35-1.58,2.24-2.5,3.24c1.2-0.39,2-1.4,2.98-2.13c-0.42,1.04-1.32,1.75-2.15,2.44c5.91-1.7,4-9.08,9.22-5.26
			c-2.97-10.96-20.02,2.03-22.87-5.76c1.04-1.65,3-2.35,4.8-2.8c0.1-0.01,0.2-0.01,0.3-0.01c0.07-0.1,0.21-0.09,0.31-0.05l0.05-0.03
			c0.02,0,0.06-0.01,0.09-0.01c2.72,0.17,5.47,0.24,8.17-0.22c0.66,0.07,1.32,0.04,1.99,0.12c0.15-0.01,0.31-0.02,0.46-0.02
			c0.08,0.02,0.16,0.05,0.24,0.07c0.34,0.03,0.67,0.05,1.02,0.09c0.1-0.04,0.23-0.04,0.31,0.05c0.28,0.05,0.55,0.09,0.83,0.14
			c1.93,0.66,3.97,1.87,4.47,4c0.09,0.08,0.09,0.21,0.05,0.31C113.81,70.53,110.3,78.45,101.81,77.65z M97.43,66.2
			c0.55-0.27,1.16-0.38,1.75-0.5c1.86-0.34,3.71-0.72,5.57-1.02c0.51-0.04,1.19-0.2,1.57,0.25c0.17,0.46-0.25,0.88-0.55,1.17
			c-1.76,1.55-4.27,1.97-6.53,1.64C98.64,67.68,96.1,66.96,97.43,66.2z M118.29,47.37c1.94-0.89,3.96-1.62,6.06-2.04
			c0.75,0.63,1.24,1.51,1.55,2.43c0.02,0.02,0.05,0.07,0.07,0.09c0.04,0.34,0.09,0.68,0.12,1.02c-0.37-0.59-0.71-1.21-1.19-1.72
			c0.46,2.8,0.38,5.83-0.99,8.37c0.2-1.52,0.63-3.05,0.41-4.59c-0.66,3.4-2.04,7.06-5.03,9.06c0.7-1.2,1.44-2.41,1.68-3.8
			c-0.95,1.33-2.09,2.62-3.48,3.5c0.01-0.06,0-0.12,0.02-0.18c0.05-0.73,0.02-1.29,0.09-2.1c-0.15-0.03-0.3-0.08-0.44-0.13
			c-0.13,0.01-0.25,0-0.37-0.04c-0.04-0.01-0.12-0.02-0.16-0.03c-2.74-0.3-5.53-0.46-8.3-0.55c2.5-1.21,5.11-1.89,7.87-1.15
			c1.71-2.15,3.6-4.15,5.65-5.97c-2.08,0.76-3.62,2.45-5.15,3.98c0.26-0.71,0.74-1.31,1.19-1.9c1.12-1.38,2.46-2.58,3.91-3.6
			c0.22-0.16,0.42-0.34,0.62-0.53c-1.7,0.66-3.21,1.74-4.59,2.91c0.71-1.26,1.83-2.2,2.86-3.17c-0.9,0.23-1.7,0.72-2.51,1.16
			C118.21,48.04,118.25,47.7,118.29,47.37z M103.35,47.39c4.47,0.61,9.09,0.92,13.28,2.76c-5.65-1.05-11.52-1.83-17.24-0.84
			c5.59,0.12,11.3,0.37,16.66,2.06c-7.25-0.91-14.69-1.34-21.91,0c6.69,0.03,13.59-0.09,20.03,2c-16.19-0.38-32.58-0.09-48.47,3.32
			c-0.39,0-0.78,0-1.18,0.01c4.58-1.92,9.27-3.62,14.09-4.83c-5.5,0.84-11,1.96-16.29,3.72c5.35-2.8,11.21-4.6,17.13-5.75
			c-5.92,0.46-11.83,1.82-17.36,4.01c1.96-1.55,4.21-2.7,6.55-3.57c-2.23,0.19-4.43,0.63-6.61,1.1c17.71-6.65,37.56-7.24,55.91-2.97
			C113.1,47.73,108.23,47.41,103.35,47.39z M84.38,36.12c1.09-1.43,2.11-2.94,2.88-4.57c0.27-0.54,0.45-1.13,0.76-1.65
			c0.16,4.81-1.62,9.72-4.72,13.39c1.01-2.47,2.06-4.96,2.5-7.6c-1.21,1.59-2.38,3.29-4.06,4.43c0.77-1.84,1.28-3.78,1.52-5.75
			c-0.85,0.75-1.9,1.24-3,1.49c2.73-1.85,4.86-4.49,6.28-7.45c-0.36,2.88-1.34,5.65-2.67,8.22C84.05,36.47,84.23,36.31,84.38,36.12z
			 M91.32,38.82c1.24-1.15,2.61-2.19,3.58-3.61c0.23,2.79-0.92,5.64-2.88,7.62c0.8-1.64,1.62-3.3,1.95-5.11
			C93.09,38.11,92.26,38.61,91.32,38.82z M52.96,34.69c1.78-7.63,12.45-10.73,19.28-11.75c-5.02,3.64-6.1,10.36-6.32,16.16
			l0.11-0.13c0.92-19.15,22.56-24.81,31.36-7.29c1.56,2.89,2.56,6.08,3.29,9.27c0.56-7.52-3.46-14.99-9.99-18.73
			c12.41-0.84,25.36,0.44,25.75,15.82c-0.81-4.69-2.59-10.75-7.62-12.36c2.14,2.65,3.44,5.89,4.05,9.21
			c-1.86-2.85-4.86-4.85-8.09-5.83c3.99,2.74,6.67,7.5,6.35,12.39c-0.22-1.58-0.8-3.08-1.49-4.5c0.4,2.23,0.5,5.12-1.62,6.53
			c-0.61,0.42-1.4,0.35-2.1,0.45c-3.37,0.24-6.75,0.23-10.12,0.2c0.16-0.73,0.19-1.49,0.02-2.22c-0.12-0.38,0.16-0.7,0.3-1.02
			c1.41-2.84,1.08-6.34-0.47-9.05c-0.7,1.27-1.81,2.26-2.99,3.07c-0.6-0.86-1.34-1.61-2.09-2.34c-0.23-3.13-1.33-6.24-3.33-8.69
			c-0.68,2.19-1.93,4.27-3.78,5.66c-6.03-0.14-10.38,3.79-12.1,9.38c0.2-3.17,1.23-6.29,2.88-9c-1.77,1.5-2.89,3.6-3.85,5.67
			c-0.07-2.86,0.62-5.64,1.46-8.34c-3.92,5.92-4.68,13.36-4.17,20.29c-0.06,0.03-0.17,0.1-0.23,0.14
			c-3.65,0.93-7.15,2.43-10.34,4.42c-0.13,0.16-0.32,0.26-0.48,0.38C54.87,47.23,52.17,40.22,52.96,34.69z M48.51,41.92
			c1.31,0.38,2.56,0.91,3.8,1.48c0.25,0.05,0.47,0.22,0.64,0.4c0.06,0.26,0.08,0.53,0.1,0.8c-0.35-0.15-0.71-0.31-1.06-0.45
			c0.9,1.03,1.94,2,2.48,3.29c-1.24-1.17-2.53-2.37-4.1-3.09c2.01,1.95,4.19,3.94,5.16,6.65c-1.37-1.78-2.82-3.64-4.88-4.65
			c0.38,0.48,0.86,0.87,1.26,1.33c2.49,2.59,2.77,6.36,4.54,9.36c-0.11,0.01-0.23,0.02-0.34,0.01c-0.72-0.4-1.35-0.96-1.89-1.59
			c0.27,0.62,0.68,1.16,1.11,1.67c-0.27,0.01-0.53-0.03-0.79,0.04c-0.97-0.65-1.82-1.46-2.51-2.39c-0.42-0.53-0.7-1.15-1.11-1.68
			c0.11,1.37,0.75,2.6,1.27,3.84c-2.79-2.26-3.78-6-4.16-9.43c-0.32,1.52-0.08,3.08,0.02,4.61c-1.17-2.65-0.96-5.68-0.25-8.42
			c-0.52,0.45-0.93,1.01-1.3,1.59C46.63,43.94,47.45,42.7,48.51,41.92z M23.02,63.79c1.2-6.71,15.29-10.52,21.21-11.03
			c-2.44,0.61-4.95,1.06-7.23,2.15c2.45-0.68,4.97-1.22,7.52-1.36c-2.59,0.42-5.12,1.16-7.54,2.17c2.48-0.55,4.97-1.2,7.52-1.35
			C38.89,55.73,28.09,58.57,26.65,65c0.89-1.31,2.15-2.31,3.59-2.96c-0.76,2.92,1.03,3.5,3.53,2.9c-0.47,0.62-1.12,1.05-1.79,1.42
			c5.42-0.59,10.28-3.42,14.96-6.02c-1.02,0.88-2.21,1.53-3.28,2.34c1.33-0.45,2.57-1.12,3.88-1.65c-2.73,1.75-5.6,3.3-8.58,4.57
			c-4.15,1.67-10.41,3.77-14.51,1.18C23.49,66.12,22.88,64.95,23.02,63.79z"/>
	</g>
	<path d="M0.71,135.34l-0.7,0.09C0,135.1,0,134.77,0,134.44c0.21-0.52,0.41-1.05,0.58-1.59C0.61,133.68,0.65,134.51,0.71,135.34z"/>
</g>
<g>
	<g>
		<path class="st1" d="M178.36,88.32c-2.57,8.55-5.18,18.07-7.25,26.64c0.01,0.9-0.52,1.07-1.32,1.06
			c-0.41-0.02-0.89-0.09-1.44-0.24c-0.55-0.14-1.14-0.29-1.76-0.45c-1.29-0.38-2.29-0.84-3.01-1.39c-0.72-0.55-0.94-1.39-0.66-2.52
			c0.32-2.8,0.88-5.74,1.46-8.85c-2.65,0.38-5.12,0.68-7.77,1.13c-0.91,3.8-1.48,7.68-2.07,11.2c-0.34,1.3-0.79,1.27-2.21,0.99
			c-1.43-0.43-3.31-0.76-4.57-1.51c-0.72-0.35-1.24-0.75-1.55-1.2c-0.31-0.45-0.38-1.09-0.19-1.91c0.47-2.17,0.91-4.69,1.32-7.58
			c1.25-8.65,2.18-18.49,3.39-27.07c0.52-2.02,1.29-2.22,3.15-1.55c2.39,0.69,5.43,1.94,7.32,3.53c0.9,0.81,0.74,1.59,0.49,2.68
			c-1.2,4.27-2.23,9.31-3.34,14.07c2.53-0.31,5.1-0.46,7.58-0.66c1.46-6.09,2.9-13.08,4.47-18.83c0.28-1,0.68-1.58,1.2-1.72
			c1.42-0.3,3.55,0.6,5.06,1.27c1.39,0.68,3.68,1.79,4.26,3.08c0.17,0.44,0.13,1.07-0.12,1.88
			C180.06,82.77,179.24,85.4,178.36,88.32z"/>
	</g>
	<g>
		<path class="st1" d="M188.21,103.97c-1.7,0.24-3.21,0.53-4.51,0.87c-0.86,1.66-1.48,3.12-2.19,4.73
			c-0.18,0.39-0.41,0.62-0.67,0.69c-0.53,0.14-1.52-0.29-2.16-0.57c-0.35-0.15-0.71-0.31-1.08-0.5c-0.27-0.18-0.51-0.34-0.72-0.46
			c-0.44-0.28-0.65-0.62-0.67-1.17c-0.01-0.29,0.05-0.67,0.19-1.15c0.55-1.58,1.26-3.43,2.14-5.55c2.61-6.22,5.79-13.34,9-19.17
			c0.85-1.44,1.85-2.15,3.77-1.95c0.94,0.05,1.77,0.12,2.5,0.22c1.32,0.18,2.51,0.45,3.69,0.81c0.95,0.32,2.5,0.52,2.91,1.44
			c0.19,0.41,0.26,0.95,0.19,1.61c-0.49,5.99-0.59,12.84-0.63,19.05c-0.01,2.3-0.01,4.43,0.02,6.39c0,0.41-0.09,0.7-0.26,0.86
			c-0.17,0.16-0.55,0.24-1.15,0.24c-1.17-0.02-2.09,0.01-3.19-0.38c-1.18-0.37-1.41-0.7-1.61-1.95c-0.21-1.53-0.32-3.09-0.45-4.77
			C191.62,103.49,189.91,103.73,188.21,103.97z M189.89,98.05c1.04-0.11,2.09-0.21,3.14-0.27c-0.09-3.71-0.17-7.45-0.07-11.14
			c-2,3.66-4.22,7.87-6.17,11.83C187.81,98.31,188.85,98.17,189.89,98.05z"/>
	</g>
	<g>
		<path class="st1" d="M208.99,105.73c-0.26,1.28-0.52,2.54-0.77,3.77c-0.11,0.37-0.27,0.61-0.46,0.72c-0.19,0.11-0.55,0.11-1.08,0
			c-0.62-0.16-1.17-0.29-1.65-0.38c-0.84-0.15-1.92-0.6-2.26-1.39c-0.16-0.35-0.22-0.83-0.17-1.42c0.14-1.47,0.3-3.42,0.48-5.19
			c0.38-3.71,0.83-7.84,1.44-11.56c0.36-2.06,0.71-4.13,1.41-5.83c0.27-0.65,0.56-1.06,0.86-1.22c1.42-0.64,2.9-1.27,4.44-1.89
			c2.84-1.12,5.9-1.86,8.81-1.39c1.34,0.22,2.51,0.82,3.51,1.8c1.74,1.94,3.05,3.73,3.7,6.45c1.39,5.75-6.23,9.66-10.9,11.83
			c2.26,2.5,4.89,5.25,7.48,7.41c0.46,0.39,0.66,0.7,0.62,0.93c-0.09,0.51-1.21,1.22-1.63,1.29c-0.83,0.13-1.76,0.43-2.71,0.31
			c-1.36-0.12-2.69-1.18-3.93-2.18c-2.16-1.78-4.51-3.89-6.31-6.07C209.54,103.12,209.25,104.45,208.99,105.73z M212.47,91.54
			c-0.34,1.33-0.73,2.74-1.17,4.25c2.77-0.89,5.34-2.44,7.27-4.27c1.07-1.04,2.43-2.67,2.13-3.89c-0.51-1.25-3.19-1.03-4.63-0.72
			c-0.8,0.16-1.65,0.46-2.54,0.89C213.16,88.97,212.81,90.21,212.47,91.54z"/>
	</g>
	<g>
		<path class="st1" d="M243.1,85.97c-1.05,0.1-2.14,0.21-3.26,0.33c-1.9,7.6-3.98,15.75-5.45,23.38c-0.14,1.49-2.42,0.41-3.36,0.21
			c-1.47-0.41-3.31-1.1-2.88-2.95c0.49-6.18,1.8-13.42,3.12-19.58c-1.12,0.22-2.47,0.31-3.46,0.58c-1.23,0.27-1.73,0.11-2.64-0.82
			c-0.9-0.83-1.77-2.64-2.3-3.67c-0.52-1.01-0.29-1.19,0.65-1.47c6.13-1.16,13.36-1.82,19.58-2.09c1.19,0.03,1.68,0.04,2.33,0.82
			c0.88,0.99,1.48,2.3,1.82,3.53c0.14,0.53,0.14,0.89,0.02,1.08c-0.13,0.19-0.54,0.31-1.25,0.36
			C245.12,85.77,244.15,85.86,243.1,85.97z"/>
	</g>
	<g>
		<g>
			<path class="st1" d="M137.44,30.75c4.9-1.7,10.7-2.36,15.71-0.55c5.46,1.89,9.39,7.25,10.04,13.14
				c0.92,9.31-5.09,18.04-13.11,22.68c-2.4,1.43-5.12,2.57-8.15,3.42c-1.55,0.55-3.17,0.41-4.87-0.41c-1.8-0.9-2.77-1.57-4.42-2.78
				c-0.92-0.83-1.84-1.57-1.96-2.91c-0.06-0.49-0.05-1.11,0.05-1.87l2.64-28.91C134.52,31.91,135.88,31.32,137.44,30.75z
				 M145.57,58.66c3.07-2.53,5.39-5.6,6.65-9.08c1-2.74,1.48-6.4,0.32-8.65c-1.52-2.6-4.69-3.25-7.88-2.14
				c-2.13,7.91-3.64,15.51-5.19,23.49C141.84,61.28,143.87,60.08,145.57,58.66z"/>
		</g>
		<g>
			<path class="st1" d="M186.37,41.24c3.88,7.27-1.03,24.79-9.91,26.61c-2.12,0.48-4.88,0.15-7.2-0.29
				c-2.57-0.49-5.31-1.8-6.71-4.04c-3.73-6.84-1.62-15.94,3.04-21.92c1.06-1.36,2.29-2.59,3.68-3.67c1.84-1.3,4.81-2.1,7.07-1.74
				C180.04,36.75,184.46,38,186.37,41.24z M175.77,43.13c-3.12,2.8-5.78,8.73-6.31,12.92c-0.28,2.16-0.55,6.74,1.81,7.48
				c1.44,0.39,2.65-0.91,3.62-2.1c2.17-2.94,3.39-6.75,4.02-10.52c0.33-2.03,0.88-7.72-1.25-8.42
				C177.1,42.32,176.47,42.53,175.77,43.13z"/>
		</g>
		<g>
			<path class="st1" d="M208.03,47.32c0.79-2.92,1.57-5.62,2.35-8.08c0.21-0.67,0.54-1.08,0.98-1.24c0.44-0.16,1.09-0.15,1.95,0.03
				c0.75,0.18,1.35,0.26,2.03,0.52c0.76,0.29,1.4,0.59,2.19,1.04c1.45,0.77,1.58,1.42,1.13,2.8c-2.68,7.64-5.22,16.78-7.36,24.56
				c-0.16,0.87-0.96,1.17-2.41,0.9c-1.23-0.21-2.49-0.51-3.78-0.9c-1.18-0.39-2.01-1.08-2.49-2.07c-0.38-0.71-0.76-1.54-1.15-2.49
				c-1.29-3.18-2.53-6.69-3.52-10.05c-0.81,3.95-1.76,8.15-2.55,12c-0.23,1.12-0.41,2.09-0.54,2.92c-0.11,0.39-0.28,0.64-0.52,0.74
				c-0.24,0.1-0.71,0.07-1.41-0.09c-1.3-0.3-2.65-0.48-3.86-1.14c-0.59-0.25-0.98-0.55-1.19-0.88c-0.2-0.33-0.27-0.8-0.22-1.4
				c0.45-5.1,1.33-11.01,2.25-16.27c0.53-2.95,1.14-6.21,1.81-8.91c0.19-0.69,0.52-1.12,1-1.3c0.48-0.17,1.14-0.17,1.97,0.02
				c0.99,0.25,1.96,0.51,2.89,0.76c0.94,0.25,1.92,0.59,2.93,1c0.83,0.3,1.42,0.67,1.77,1.12c0.35,0.45,0.6,1.11,0.76,1.99
				c0.84,4.19,1.92,9.08,2.97,13.33C206.58,53.21,207.24,50.24,208.03,47.32z"/>
		</g>
		<g>
			<path class="st1" d="M229.26,61.7c-2,0.24-3.76,0.54-5.29,0.88c-0.54,0.9-1.01,1.73-1.41,2.5c-0.4,0.77-0.79,1.53-1.17,2.26
				c-0.21,0.39-0.48,0.62-0.78,0.69c-0.61,0.14-1.78-0.29-2.53-0.57c-0.42-0.15-0.84-0.32-1.27-0.5c-0.32-0.18-0.6-0.34-0.84-0.47
				c-0.49-0.26-0.76-0.6-0.78-1.17c-0.01-0.29,0.06-0.67,0.22-1.16c2.53-6.1,6.18-13.01,9.51-18.98c1.25-2.22,2.43-4.2,3.56-5.92
				c1.06-1.54,2.25-2.15,4.42-1.97c1.93,0.07,3.58,0.26,5.29,0.59c1.37,0.25,2.48,0.61,3.8,0.9c0.83,0.25,1.36,0.59,1.59,1
				c0.23,0.41,0.3,0.96,0.22,1.62c-0.16,1.63-0.3,3.51-0.4,5.63c-0.32,6.4-0.4,13.63-0.32,20c0,0.41-0.1,0.7-0.3,0.86
				c-0.2,0.16-0.65,0.24-1.35,0.24c-1.37-0.02-2.45,0.01-3.74-0.38c-1.3-0.36-1.64-0.63-1.89-1.97c-0.25-1.54-0.37-3.11-0.52-4.8
				C233.26,61.22,231.26,61.46,229.26,61.7z M231.23,55.74c1.22-0.11,2.45-0.21,3.68-0.28c-0.1-3.74-0.2-7.51-0.08-11.22
				c-2.34,3.68-4.94,7.92-7.24,11.91C228.8,56,230.01,55.86,231.23,55.74z"/>
		</g>
		<g>
			<path class="st1" d="M271.23,46.11c-3.04,4.37-6.86,9.16-10.27,13.37c-0.86,2.86-1.43,5.41-2.09,8.15
				c-0.13,0.46-0.32,0.74-0.56,0.83c-0.24,0.09-0.71,0.07-1.41-0.07c-1.24-0.27-2.76-0.69-3.94-1.11c-1.14-0.66-1.46-1.02-1.37-2.31
				c0.46-2.44,0.66-5.05,1.25-7.77c-2.33-5.75-5.05-11.97-7.24-17.75c-0.6-1.31-0.32-1.5,1.05-1.76c1.66-0.07,3.11-0.28,4.74,0.07
				c0.8,0.16,1.39,0.42,1.75,0.78c0.36,0.36,0.76,0.9,1.19,1.64c1.41,3.16,2.72,6.85,4.02,10.36c2.95-4.02,5.69-8.18,8.44-12.4
				c0.79-1.95,3.53-0.38,4.72,0.48c0.95,0.74,2.21,1.41,2.33,2.56C273.86,42.3,272.17,44.71,271.23,46.11z"/>
		</g>
		<g>
			<path class="st1" d="M279.79,63.48c-0.31,1.29-0.61,2.56-0.9,3.8c-0.37,0.91-0.74,0.89-1.81,0.73c-1.32-0.33-2.37-0.34-3.54-0.86
				c-1.05-0.54-1.34-1.16-1.25-2.35c0.05-0.48,0.13-1.19,0.22-2.11c0.5-4.73,1.13-10.01,2.03-14.76c0.42-1.93,1.15-6.27,2.65-7.1
				c5.6-2.1,14.41-5.78,19.66-1.49c0.94,0.88,1.79,1.81,2.55,2.81c1.41,1.79,2.79,5.42,1.39,7.48c-2.54,4.03-7.52,6.13-12.38,8.12
				c2.68,2.54,5.76,5.32,8.76,7.46c0.54,0.39,0.78,0.7,0.72,0.93c-0.13,0.55-1.45,1.23-1.91,1.3c-0.98,0.13-2.07,0.43-3.18,0.31
				c-1.55-0.12-3.12-1.16-4.6-2.19c-2.51-1.77-5.25-3.89-7.4-6.11C280.44,60.84,280.1,62.19,279.79,63.48z M283.87,49.18
				c-0.4,1.34-0.86,2.76-1.37,4.28c3.19-0.89,6.2-2.42,8.52-4.3c0.97-0.79,1.66-1.55,2.09-2.26c1.21-1.98-0.09-2.59-2.45-2.62
				c-1.82,0.01-3.71,0.35-5.55,1.14C284.69,46.59,284.27,47.85,283.87,49.18z"/>
		</g>
		<g>
			<path class="st1" d="M308.25,39.17c2.95-0.58,6.08-1.04,9.17-1.36c1.62-0.17,3.24-0.28,4.84-0.33c1.53-0.02,2.51,0.48,2.93,1.52
				c0.35,0.55,0.59,1.05,0.72,1.5c0.17,0.66,0.77,2.15,0.24,2.68c-0.21,0.21-0.71,0.36-1.49,0.45c-3.45,0.35-6.82,0.63-10.41,1.07
				c-0.87,2.21-1.46,4.42-2.29,6.73c1.7-0.19,3.22-0.26,4.99-0.31c0.75-0.02,1.34,0.03,1.77,0.17c0.89,0.27,1.49,1.47,1.83,2.26
				c0.17,0.45,0.33,0.9,0.46,1.36c0.21,0.53,0.23,0.89,0.06,1.07c-0.17,0.18-0.64,0.35-1.39,0.48c-3.15,0.51-6.65,0.92-9.77,1.49
				c-0.42,1.42-0.75,2.68-1.21,4.04c2.61-0.38,4.65-0.59,7.32-0.73c0.75-0.05,1.33,0,1.75,0.14c1.33,0.47,1.77,2.24,2.39,3.35
				c0.31,1.13-0.07,1.14-1.29,1.38c-3.32,0.53-7.02,1.18-10.29,1.69c-1.07,0.23-1.88,0.28-2.43,0.16c-0.55-0.13-1.02-0.31-1.43-0.54
				c-1.05-0.59-1.73-1.03-2.77-1.8c-0.93-0.68-1.49-1.51-1.37-2.73c0,0,3.82-22.97,3.82-22.97
				C305.57,39.71,306.85,39.44,308.25,39.17z"/>
		</g>
	</g>
	<g>
		<path class="st1" d="M253.88,88.82v-8.18h3.51c0.74,0,1.35,0.22,1.84,0.65c1.06,0.87,0.92,2.53-0.21,3.2
			c1.5,0.63,1.83,2.51,0.56,3.62c-0.52,0.47-1.19,0.71-2,0.71H253.88z M255.64,82.1v1.76h1.63c0.55,0.01,0.94-0.33,0.94-0.88
			c0-0.55-0.39-0.89-0.94-0.88C257.27,82.1,255.64,82.1,255.64,82.1z M257.5,87.36c0.97,0.04,1.49-1.13,0.8-1.8
			c-0.21-0.2-0.48-0.31-0.8-0.31h-1.86v2.1H257.5z"/>
		<path class="st1" d="M262.87,80.64h3.62c0.81,0,1.48,0.26,2.01,0.78c1.31,1.22,0.94,3.56-0.66,4.3l1.75,3.1h-1.87l-1.57-2.86
			h-1.52v2.86h-1.76V80.64z M267.23,82.53c-0.21-0.21-0.48-0.31-0.8-0.31h-1.81v2.16h1.81c0.32,0,0.58-0.1,0.8-0.31
			C267.67,83.68,267.64,82.92,267.23,82.53z"/>
		<path class="st1" d="M273.68,86.89l-0.7,1.93h-1.87l3.22-8.18h1.86l3.22,8.18h-1.87l-0.7-1.93H273.68z M275.26,82.69l-1,2.69h1.99
			L275.26,82.69z"/>
		<path class="st1" d="M288.74,80.64v8.18h-1.52l-4.03-5.19v5.19h-1.76v-8.18h1.52l4.03,5.2v-5.2H288.74z"/>
		<path class="st1" d="M294.76,80.64c3.71-0.08,5.62,4.41,2.99,6.99c-0.81,0.79-1.8,1.19-2.99,1.19h-3.04v-8.18H294.76z
			 M293.47,82.22v5.02h1.28c1.34,0.03,2.49-1.16,2.45-2.51c0.03-1.36-1.07-2.54-2.45-2.51C294.76,82.22,293.47,82.22,293.47,82.22z"
			/>
		<path class="st1" d="M301.46,80.64h1.76v8.18h-1.76V80.64z"/>
		<path class="st1" d="M313.49,80.64v8.18h-1.52l-4.03-5.19v5.19h-1.76v-8.18h1.52l4.03,5.2v-5.2H313.49z"/>
		<path class="st1" d="M324,84.38v3.03c-2.66,3-7.94,1.52-8-2.69c0-4.07,5.36-5.79,7.83-2.63l-1.11,1.11
			c-1.52-2.11-4.98-1.21-4.96,1.52c-0.03,1.5,1.19,2.72,2.69,2.69c0.66,0.01,1.39-0.22,1.81-0.64v-1.11h-1.46v-1.28H324z"/>
	</g>
	<g>
		<path class="st1" d="M251.02,104.27c-1.79-1.11-4.52-1.01-5.9-2.89c-1.24-1.58-0.97-4.23,0.7-5.57c2.25-2.04,6.79-1.58,8.76,0.75
			l-1.93,2.05c-0.37-0.42-0.58-0.58-1.3-0.94c-0.9-0.47-2.23-0.52-2.98,0.12c-0.37,0.32-0.56,0.7-0.56,1.15
			c-0.02,1.18,1.56,1.64,2.61,1.99c0.73,0.21,1.45,0.46,2.19,0.74c1.57,0.62,2.68,2.01,2.63,3.84c-0.02,3.11-2.56,4.79-5.71,4.74
			c-2.16,0.02-4.36-0.91-5.71-2.48l1.94-1.93c0.45,0.51,0.69,0.71,1.61,1.16c1.1,0.57,2.85,0.67,3.76-0.09
			C251.97,106.2,252.08,104.84,251.02,104.27z"/>
		<path class="st1" d="M268.02,94.83v2.91h-4.3v12.16h-3.23V97.74h-4.31v-2.91H268.02z"/>
		<path class="st1" d="M279.2,106.29c0.65-0.68,0.98-1.52,0.98-2.53v-8.93h3.23v8.93c0.07,3.64-2.91,6.54-6.56,6.46
			c-3.65,0.08-6.63-2.82-6.56-6.46c0,0,0-8.93,0-8.93h3.23v8.93c0,1,0.33,1.84,0.98,2.53C275.74,107.65,277.96,107.66,279.2,106.29z
			"/>
		<path class="st1" d="M292.77,94.83c6.84-0.15,10.37,8.12,5.52,12.88c-1.49,1.46-3.32,2.19-5.52,2.19h-5.6V94.83L292.77,94.83z
			 M290.41,97.74V107h2.36c2.48,0.05,4.58-2.15,4.52-4.63c0.05-2.51-1.98-4.69-4.52-4.63C292.77,97.74,290.41,97.74,290.41,97.74z"
			/>
		<path class="st1" d="M303.52,94.83h3.24v15.07h-3.24V94.83z"/>
		<path class="st1" d="M312.13,96.82c4.93-4.87,14.04-1.59,13.99,5.55c0.09,4.35-3.82,7.98-8.18,7.86
			C310.84,110.36,306.93,101.82,312.13,96.82z M314.51,105.88c3.04,3.1,8.35,0.85,8.27-3.52c0.07-2.68-2.16-5.01-4.84-4.95
			C313.57,97.36,311.5,102.87,314.51,105.88z"/>
	</g>
</g>
</svg>
