<?xml version="1.0" encoding="utf-8"?>
<!-- Generator: Adobe Illustrator 21.0.0, SVG Export Plug-In . SVG Version: 6.00 Build 0)  -->
<svg version="1.1" id="Layer_1" xmlns="http://www.w3.org/2000/svg" xmlns:xlink="http://www.w3.org/1999/xlink" x="0px" y="0px"
	 viewBox="0 0 79 64.3" style="enable-background:new 0 0 79 64.3;" xml:space="preserve">
<style type="text/css">
	.st0{fill:none;stroke:#000000;stroke-width:1.5;stroke-miterlimit:10;}
</style>
<g>
	<path class="st0" d="M40,55.5L21,42H4.7V21.4H21L40,7.9L40,55.5z M5.6,41.1h15.7L39,53.6l0-43.9L21.3,22.4H5.6V41.1z"/>
	<path class="st0" d="M46.2,42.2l-0.3-0.9c3.7-1.1,6.3-4.6,6.3-8.5c0-3.9-2.6-7.4-6.3-8.5l0.3-0.9c4.1,1.2,7,5.1,7,9.4
		C53.2,37.1,50.3,41,46.2,42.2z"/>
	<path class="st0" d="M49.7,48.9L49.5,48c6.7-2,11.4-8.2,11.4-15.2c0-7-4.7-13.2-11.4-15.2l0.3-0.9c7.1,2.1,12.1,8.7,12.1,16.1
		C61.8,40.2,56.8,46.8,49.7,48.9z"/>
	<path class="st0" d="M53.4,55.9l-0.3-0.9c9.8-2.9,16.6-12,16.6-22.1c0-10.2-6.8-19.3-16.6-22.1l0.3-0.9c10.2,3,17.3,12.5,17.3,23.1
		C70.6,43.4,63.5,52.9,53.4,55.9z"/>
</g>
</svg>
