<?xml version="1.0" encoding="utf-8"?>
<!-- Generator: Adobe Illustrator 21.0.0, SVG Export Plug-In . SVG Version: 6.00 Build 0)  -->
<svg version="1.1" id="Layer_1" xmlns="http://www.w3.org/2000/svg" xmlns:xlink="http://www.w3.org/1999/xlink" x="0px" y="0px"
	 viewBox="0 0 56.7 69" style="enable-background:new 0 0 56.7 69;" xml:space="preserve">
<style type="text/css">
	.st0{fill:none;stroke:#272525;stroke-width:2;stroke-linecap:round;stroke-linejoin:round;stroke-miterlimit:10;}
	.st1{fill:none;stroke:#000000;stroke-width:2;stroke-miterlimit:10;}
	.st2{fill:none;stroke:#000000;stroke-width:2;stroke-linecap:round;stroke-linejoin:round;stroke-miterlimit:10;}
	.st3{fill:#FFFFFF;stroke:#000000;stroke-width:2;stroke-miterlimit:10;}
	.st4{fill:none;stroke:#272525;stroke-width:2;stroke-miterlimit:10;}
	.st5{fill:#FFFFFF;stroke:#272525;stroke-width:2;stroke-miterlimit:10;}
	.st6{fill:#FFFFFF;stroke:#000000;stroke-width:2;stroke-linejoin:round;stroke-miterlimit:10;}
</style>
<path class="st1" d="M51,33.3l-4,16.1c-0.2,0.6-0.8,0.9-1.3,0.8H30.4c-0.4,0-0.2,0.2-0.2-0.2v-9.3c-0.2-0.5,0.1-1.1,0.6-1.3
	c2.9-0.8,4.9-3.4,4.9-6.4c0-3-2-5.7-4.9-6.4c-0.5-0.2-0.8-0.6-0.8-1.1V5.1c0-0.6,0-0.4,0.6-0.4h4.2c0.4-0.1,0.8,0.1,1.1,0.4l15,27.3
	C51,32.7,51.1,33,51,33.3z M10.6,50.2h14.2c0.4,0,1.3,0.4,1.3-0.2v-9.3c-0.1-0.7-0.6-1.3-1.3-1.5c-2.6-1-4.4-3.5-4.4-6.3
	c-0.1-2.8,1.7-5.3,4.4-6.3c0.6-0.2,1-0.7,1.1-1.3V5.1c0-0.6-1.1-0.4-1.7-0.4h-3c-0.4-0.1-0.8,0.1-1.1,0.4L5.3,32.4
	c-0.2,0.3-0.2,0.6-0.2,0.9l4,16.1c0.2,0.6,0.8,1,1.4,0.8C10.6,50.2,10.6,50.2,10.6,50.2z M47,57c0-0.6-0.5-1.1-1.1-1.1l0,0H10.3
	c-0.6,0-1.1,0.5-1.1,1.1l0,0v7.2c0,0.6,0.5,1.1,1.1,1.1l0,0h35.6c0.6,0,1.1-0.5,1.1-1.1l0,0V57z"/>
</svg>
