<?xml version="1.0" encoding="utf-8"?>
<!-- Generator: Adobe Illustrator 21.0.0, SVG Export Plug-In . SVG Version: 6.00 Build 0)  -->
<svg version="1.1" id="Layer_1" xmlns="http://www.w3.org/2000/svg" xmlns:xlink="http://www.w3.org/1999/xlink" x="0px" y="0px"
	 viewBox="0 0 55 77.7" style="enable-background:new 0 0 55 77.7;" xml:space="preserve">
<style type="text/css">
	.st0{fill:none;stroke:#272525;stroke-width:2;stroke-linecap:round;stroke-linejoin:round;stroke-miterlimit:10;}
	.st1{fill:none;stroke:#000000;stroke-width:2;stroke-miterlimit:10;}
	.st2{fill:none;stroke:#000000;stroke-width:2;stroke-linecap:round;stroke-linejoin:round;stroke-miterlimit:10;}
	.st3{fill:#FFFFFF;stroke:#000000;stroke-width:2;stroke-miterlimit:10;}
	.st4{fill:none;stroke:#272525;stroke-width:2;stroke-miterlimit:10;}
	.st5{fill:#FFFFFF;stroke:#272525;stroke-width:2;stroke-miterlimit:10;}
	.st6{fill:#FFFFFF;stroke:#000000;stroke-width:2;stroke-linejoin:round;stroke-miterlimit:10;}
</style>
<g>
	<g>
		<g>
			<path d="M47,71.6H3.7V9.5h5v57.1H47V71.6z M5,70.3h40.7v-2.4H7.3V10.8H4.9L5,70.3L5,70.3z"/>
		</g>
	</g>
	<g>
		<g>
			<path d="M35.3,26.3H12.9v-14h22.4V26.3z M14.3,25H34V13.6H14.3V25z"/>
		</g>
	</g>
	<g>
		<g>
			<rect x="12.9" y="29.6" width="22.5" height="1.3"/>
		</g>
	</g>
	<g>
		<g>
			<rect x="12.9" y="34.2" width="22.5" height="1.3"/>
		</g>
	</g>
	<g>
		<g>
			<rect x="12.9" y="38.9" width="32.3" height="1.3"/>
		</g>
	</g>
	<g>
		<g>
			<rect x="12.9" y="43.5" width="32.3" height="1.3"/>
		</g>
	</g>
	<g>
		<g>
			<rect x="12.9" y="48.1" width="32.3" height="1.3"/>
		</g>
	</g>
	<g>
		<g>
			<rect x="12.9" y="53.2" width="32.3" height="1.3"/>
		</g>
	</g>
	<g>
		<g>
			<path d="M50.8,67.9H7.3V5.8h34.9l8.5,8.5L50.8,67.9L50.8,67.9z M8.6,66.6h40.7V14.8l-7.7-7.8H8.6V66.6z"/>
		</g>
	</g>
	<g>
		<g>
			<path d="M50.1,15.2h-5.8c-1.6,0-3-1.3-3-3V6.4h1.3v5.8c0,1,0.7,1.7,1.7,1.7h5.8V15.2L50.1,15.2z"/>
		</g>
	</g>
</g>
</svg>
