<?xml version="1.0" encoding="utf-8"?>
<!-- Generator: Adobe Illustrator 25.3.1, SVG Export Plug-In . SVG Version: 6.00 Build 0)  -->
<svg version="1.1" id="Capa_1" xmlns="http://www.w3.org/2000/svg" xmlns:xlink="http://www.w3.org/1999/xlink" x="0px" y="0px"
	 width="800px" height="527px" viewBox="0 0 800 527" style="enable-background:new 0 0 800 527;" xml:space="preserve">
<style type="text/css">
	.st0{fill:#020303;}
</style>
<g>
	<path class="st0" d="M707,440.7c-1.1-3.9-1.3-8-0.3-12c-1.6-4.5,0.4-9.2-1.7-13.5c-0.3-3.1-0.3-6.1-0.1-9.2
		c-2.6-2.2-6.6-2.6-10-3.7c-1.1-0.4-2.4-0.7-3.4-1c-3-0.9-6.1-1.6-9.2-2.1c-3.9-1.2-7.8-2.8-11.9-3.3c0-1.1,0.1-2.1,0.1-3.2
		c0.4,0,1.3-0.1,1.7-0.1c1.4-3.1,4.5-5.5,5.5-8.8c0.4-1.6,0.7-3.1,1-4.7c1.6-4.7,2.2-9.6,2.1-14.5c1.9-8,0.7-16.2,1.1-24.1
		c0.4-3.4-0.9-6.8-1.4-10.2c-1.6-3-1-6.3-0.7-9.6c0.8-1.2,1-2.5,1.3-3.8c1-1.9,0.8-4.1,0.9-6.1c0-7.6,0-15.5,0-23.1
		c0-1.4-0.3-3-1-4.3c-0.1-2.2-0.3-4.6-0.4-6.8c-1.4-2.2-0.4-4.7-1.9-7c-0.8-4.5-2.1-8.9-4.6-12.9c-0.7-2.1-1.8-4.1-3.7-5.5
		c-0.3-5.1,0.5-10.2-0.4-15.4c-1.3-2.9-0.1-6.1-1.7-8.9c-0.3-3.4-1.2-6.8-2.1-10.1c-0.5-2.2-1.3-4.3-2.4-6.4c-0.4-1-0.9-1.9-1.3-2.9
		c-0.1-0.4-0.4-1.2-0.4-1.7c-0.5-1-1-1.9-1.3-2.9c-0.5-0.9-1.1-1.8-1.7-2.6c-0.8-1.2-1.6-2.5-2.2-3.7c-1.3-2.2-2.6-4.6-4.5-6.6
		c-0.8-1-1.7-1.9-2.6-2.8c-0.1-1.9,0.3-3.9-1-5.7c-0.4-1.3-0.4-2.6-1.3-3.8c-0.1-0.9-0.1-1.8-0.1-2.6c0.7-0.9,1.3-1.8,2-2.8
		c1-2.1,2.5-3.9,4.2-5.7c0.4-0.9,0.7-1.8,1-2.6c0.9-1.6,1.8-3.1,2.4-4.7c1.1-1.8,2-3.6,2.4-5.4c0.5-1.8,1-3.6,1.9-5.3
		c-0.4-5.1,2.6-10.4,0.4-15.4c-0.7-5.4-2.1-10.8-4.7-15.8c-0.1-0.4-0.4-1.3-0.4-1.7c-0.9-1.6-1.6-3.2-2.5-4.7
		c-2.6-4.6-6.1-8.8-9.2-13.1c-0.9-0.8-1.8-1.7-2.6-2.5c-2.1-3.4-6.7-5.4-9-8.7c-1.2-0.7-2.4-1.3-3.6-2c-3.4-1.9-6.7-4-10.4-5.8
		c-3.1-1-6.2-1.8-9.3-2.6c-10-2.5-20.5-3.9-30.8-4.1c-3.4-1.3-7.5-0.7-11.2-0.9c-8.8-0.4-17.1,2.1-25.8,1.9
		c-2.2-1.2-4.5-2.5-6.8-3.4c-1.9-0.9-3.8-1.9-5.7-2.8c-4.6-2.1-9-4.7-14-6.1c-2.5-1.1-5.3-2.2-8-2.8c-4.9-2.8-11-1.1-16.4-1.7
		c-2.2-0.7-4.2-1.7-6.3-2.5c-1.1-0.5-2.2-1.2-3.3-1.9c-5-0.3-8.9-3.3-13.9-3.7c-3.3-0.9-6.8-2-10.2-2.5c-4.3-0.8-8.8-1.9-13.3-1.6
		c-2.2,1.2-4.9,0.8-7.4,0.8c-1.1-0.4-2.4-0.8-3.4-1.1c-4.5-1.2-9.1-2.2-13.8-2.8c-4.6-1.4-9.6-0.3-14.3-0.9
		c-5.8-1.2-11.8-0.4-17.6-0.5c-2.4,1.3-5.1,0.5-7.6,0.3c-2.1,0.3-4.2,0.9-6.3,0.1c-7.6,0.8-15.7,0.3-23.1,2.1
		c-1.6,0.3-3.1,0.4-4.6,0.9c-3.3,0.4-6.2,1.6-9,2.9c-2.1,0.4-4.1,1.1-6.3,1.1c-5.4-0.3-10.7,1.4-16,1.9c-2.6,0.1-5.3,0.9-7.6,1.7
		c-0.5,0.1-1.6,0.4-2,0.4c-3.9,1-8,1.7-11.7,3.2c-2,0.4-3.9,1.1-5.7,1.8c-2,0.4-4,1.2-5.8,2.1c-1.6,0-3.1,0.1-4.7,0.1
		c-0.4-0.4-1.4-1.2-1.9-1.6c-1.2-0.5-2.5-1.2-3.7-1.8c-1.1-0.5-2.2-1.2-3.3-1.8c-1.7-0.8-3.2-1.8-4.9-2.5c-7.8-2.2-14.7-6-22.8-7.4
		c-1.1-0.4-2.4-0.7-3.4-1c-16.2-3-33.4-5.5-49.3-0.9c-2.5,0.1-4.7,1-6.8,1.9c-3.7,0.8-6.9,2.5-10.4,3.7c-1.7,0.8-3.2,1.7-4.7,2.5
		c-1.1,0.7-2.2,1.3-3.4,1.9c-1.2,0.7-2.4,1.2-3.7,1.8c-4,3-7.9,6.1-11.7,9.3c-0.8,1.4-2.1,2.5-3.3,3.8c-1,1.3-2.1,2.6-3,4
		c-2.5,3.6-3.8,7.6-5.3,11.4c-0.1,1.1-0.3,2.1-0.4,3.2c-1.4,2.1-0.8,4.7-1,7c-0.4,7,0.1,14.1,2,21c0.3,1.6,0.4,3.1,1.1,4.6
		c0.4,1.2,0.7,2.5,1.1,3.7c0.4,0.9,0.9,1.9,1.3,2.8c0.1,0.9,0.4,1.8,0.4,2.6c0.4,0.9,0.9,1.8,1.2,2.8c-2.2,3.3-6.8,5.4-8.7,8.9h-1.4
		c-1.2,3.4-4.7,5.8-6.9,8.9c-0.8,1-1.4,1.9-2.2,2.8c-3.2,3.2-5.8,6.8-7.6,10.7c-0.4,0-1.3-0.1-1.8-0.1c-0.1,0.7-0.3,1.9-0.4,2.5
		c-0.4,0.4-1,1.4-1.3,1.9c-0.9,1.4-1.8,3-2.2,4.6c-1,1.7-2.2,3.3-2,5.3c0.4,2-2.1,3.1-4.1,3.8c-4.7,2.9-6,7.6-8.9,11.6
		c-0.8,1.8-1.6,3.7-2.2,5.5c-1.6,2.5-2.6,5-3.4,7.6c-0.4,0.4-1.3,1.1-1.8,1.4c-0.1,1.8-0.3,3.7-1.2,5.4c-0.3,3.3-2.2,6.4-2.9,9.7
		c-0.8,1.8-0.8,3.7-1,5.4c-1.2,4.1-2.2,8.4-2,12.6c1.8,2.5,1.6,5.5-0.3,7.9c-0.9,1.2-1.7,2.5-2.5,3.7c-1.1,2.4-0.7,4.7-0.9,7.2
		c-1.6,2.2-0.9,4.9-1.2,7.5c-1.9,4.5-0.4,9.3-1.1,13.9c-1.2,1.6-0.9,3.4-1,5.1c-0.1,5-0.3,9.9,0.3,14.9c1.3,4.3,0.9,8.9,0.9,13.4
		c-1,0.9-1.9,1.9-2.5,2.9c-0.8,1.3-1.8,2.5-3,3.6c-0.1,1.1-0.1,2.2-0.3,3.2c-0.8,0-2.5,0.1-3.2,0.3c0.3,13.3-0.1,26.4,0,39.8
		c-0.1,1.2,0.3,2.4,1,3.4c0,0.8,0,1.7,0.1,2.5c-2.6,3.4,0.9,8-2.1,11.3c0,1.2-0.3,2.6,1,3.7c0,1.1,0,2.1,0,3.2
		c1.3-0.5,2.8-1,4.2-1.2c0.3,1.2,0.4,2.5,0.8,3.8c1.1,0.8,1.9,1.9,2,3.4c0,0.4,0,0.7,0,1c0.9,0.9,1.9,1.8,2.5,2.8
		c3.7,2,6.7,4.7,10.7,6.3c2.4,0.9,4.7,1.8,7,2.6c1.9,0.9,3.8,1.9,5.7,2.8c2,0.9,4,2,6,2.9c0,0.4,0,0.9,0,1.2
		c2.6,0.3,5.3,0.8,7.8,1.3c1.2,0.5,2.5,1.1,3.6,1.9c0.3,10.4-0.3,20.9,0.3,31.3c0.5,3.6,1.2,7.6,4.9,10.1c1.3,0.4,2.5,1.1,3.7,1.8
		c2,1,3.9,2.2,6.3,2.5c6.9,1.6,13.3,3.9,20.4,5.1c1.3,0.1,2.6,0.3,4.1,0.4c0-0.4-0.1-1.3-0.1-1.8c2.4-0.9,4.7-1.3,7.4-1.1
		c2.2,1.1,4.7,2.1,6.8,3.3c2.9,1.8,6.1,2.9,9.5,4c2.4,0.1,4.7,0.3,6.9-0.5c1.8-0.4,3.2-1.1,4.6-2.1c0.7,0,2-0.1,2.6-0.1
		c0.4-0.4,1.2-1.1,1.7-1.6c2.4-0.3,4.2-1.4,6.3-2.4c4.7-3.8,10-7,15.7-9.7c0.5-0.3,1.8-0.7,2.4-0.9c1.2-0.4,2.5-0.9,3.7-1.3
		c1.1-0.4,2.2-0.9,3.3-1.3c2-0.4,3.9-1.1,5.8-1.8c1.6-0.4,3.1-0.9,4.7-1.3c1.1-0.5,2.2-1.1,3.3-1.7c1.4,0,3-0.1,3.8,1.1
		c0.3,7.9-0.3,15.9,0,23.8c0,1.8,0.9,3.4,1.4,5.3c1.7,2.8,4.7,4.7,7.2,6.9c10,0.1,19.9,2.1,29.6,4.1c-0.1,1.2-0.7,2.4-1.6,3.3
		c9.7-0.1,19.6,0,29.5,0.1c2.5,1.3,5.4,0.7,8.3,0.8c1-0.9,2.1-1.7,3.1-2.5c2.8,0.3,5-1.2,7.4-2.2c2.8-1.8,4.9-4.1,5.5-6.9
		c1.3-2.2,1.9-4.9,4.2-6.6c1.7-0.4,3.4-0.8,5-1.2c4.3-1.7,8.4-4,11-7.5c1.3-1.9,3.6-3.3,5.9-4.3c0.7-0.3,1.9-0.5,2.5-0.8
		c1.1-0.5,2.2-1.2,3.3-1.9c4.2-0.9,7.6-3.3,10.4-5.9c1.4,0,2.9,0.1,4.5,0.3c8.3,2.4,17.5,2.5,25.8,0.5c-0.1,5.5,0.5,11.2-1,16.8
		c0.3,7.1-1.4,14.1-2.5,21.2c-1.6,1.2-3.1,2.5-4.7,3.6c0.1,1.3,0.9,2.5,2,3.4c1.2,0,2.5,0,3.8,0c0.8-0.9,1.4-1.8,2.1-2.6
		c2.5-1.3,5.3-2.6,8-3.8c1.2-0.4,2.5-0.7,3.7-1c3.9,0,8.1,0.4,11.4-1.9c3.8-0.3,7.6-0.3,11.3,0.1c1.2,0.4,2.5,0.7,3.8,1
		c2.2,1.6,4.3,4.9,7.8,2.9c1.2-0.4,2.4-0.8,3.6-1.2c4.6-0.3,9.1-0.1,13.5,0c1.6,0.5,3.1,1,4.7,1.6c0.5,0.1,1.7,0.4,2.2,0.4
		c3.9,1.6,8.1,2,12.4,1.7c-0.1-0.4-0.1-1.2-0.3-1.6c1.8-0.7,3.6-1.3,5.3-2.2c2-0.1,3.9,0.4,5.8,1c0.4,3,3.7,0.9,5.4,0.1
		c3.2-1.6,7-1,10.5-1c1.9,1,3.8,2.1,5.8,3c1.7,0.7,3.1,1.4,4.6,2.5c1.1-0.8,2.1-1.7,3.2-2.5c0-2.4-2.5-3.7-4.2-5
		c-1.7-0.8-3.2-1.7-4.9-2.5c-1.7-0.7-3.3-1.2-4.9-1.8c-0.1-2.9,0.7-5.9-0.9-8.5c-0.3-3.4,0-7-0.3-10.4c-1.9-7.4-0.5-14.8-1-22.2
		c2.8-1.3,5.7-2.4,8.4-3.6c1.7-0.1,3.3-0.3,5-0.4c-0.3,4,0.1,8-0.4,12c-0.8,2.4-1,4.7-0.7,7.1c0.9,0.9,1.8,1.8,2.5,2.8
		c2.1,1.1,4,2.5,6.2,3.7c1.7,1.2,3.4,2.2,5.4,3.1c3,1.1,6.3,3,9.3,0.8c2.5-0.7,4.9-1.2,7.4-1.6c3.3,0.4,6.6,1.3,9.9,2
		c2.4,1,4.7,1.9,7,2.8c3.1,1.4,6,3.2,9.1,4.7c2.2,1,4.2,2.2,6.8,2.9c3.9,2.2,8.8,1.1,13.1,2.2c3,0.8,5.9-0.7,8.7-1.3
		c4.2-0.7,8.4-0.9,12.6-1.8c1.6-0.4,3.1-0.5,4.6-0.9c3.6-0.5,7-1.4,10.2-2.8c2.6-0.4,4.7-1.9,6.9-3.1c5.4-0.4,10.5,1.2,16,1.1
		c3.4,1.3,7.5,0.7,11.2,0.8c5.1-0.3,10.8,0.8,15.4-1.6c1.4-0.4,2.9-0.7,3.9-1.6c3.8-2.5,8-4.7,12.4-6.6c2.5-1.1,3.2-3.4,5.3-4.9
		C707.5,452.2,707.3,446.4,707,440.7z M669.4,341.5c-0.3,11.8-0.3,23.8-4.2,35.2c-1.9,4.3-2.8,10.1-8.7,12c-4.2,2.1-9-0.3-13.3-1
		c0.7-3.1,0.8-6.2,1.2-9.3c0.3-8.5,0.5-17.2,0.4-25.8c-1.7,0-2.5,0.5-2.4,1.8c-1,10.7,0.8,21.4-2.5,31.9c-1.3,0.1-2.5,0.4-3.8,0.4
		c0.4-4.5,0.8-9.1-0.5-13.4c-0.4,0.1-1.1,0.1-1.4,0.3c-0.5,4.6,0.1,9.2-0.7,13.9c-3.3,0.4-6.6,0.8-9.9,1.2c0.3-10.8,2-21.6,1.8-32.3
		c0.1-4.1,0-8.3,1.1-12.2c2.2-1.2,4.9-1.6,7.5-2.4c10-3.1,19.9-6.4,29.8-9.7C667.9,333.4,669.3,338.1,669.4,341.5z M663.4,260.8
		c3.1,12.8,4.6,25.9,4.3,38.9c0.4,6.4,0.4,13-0.5,19.5c-0.3,2.5-1.6,5.4-4.7,6.4c-22,7.9-45,14.3-68.8,17.5
		c-5.3,0.5-10.8,1.6-15.8-0.4c-1.1-1-1-2.5-1.4-3.8c-0.3-17.5-2.9-34.9-3.8-52.3c-0.1-3.9-1.4-7.6-1.9-11.3
		c17.9-3.1,35.9-5.9,53.9-8.3c4.9-0.5,9-2.8,13.8-3.6c7.1-1.3,14.5-2,21.4-3.8C661.2,259.2,663.4,259,663.4,260.8z M504.7,337
		c-3.3,1-6.6,1.9-9.9,2.8c2.5-13.9,2-28.1-1.2-41.9c3,1.1,5.9,2.4,9,3.3v0.1c5.4,1.6,9,5.5,12,9.3
		C521.3,319.6,516.1,332.1,504.7,337L504.7,337z M462.7,423.4c-0.7-9-2.2-18-4.2-26.8c7.6,0.1,15.4-0.1,23,0.1
		c2.1,8.7,2.5,17.5,2.5,26.3c-0.1,6.8-1.2,13.4-2.1,20.1c-6.7,1-13.5,0.4-20.4,0.9C462.8,437.1,462.8,430.2,462.7,423.4z
		 M447.7,389.6c-9.3,1.1-18.9,1.8-28.1,3.6c-0.8-10.8-0.4-21.6-1.2-32.2c-0.1-3.4-0.4-7-0.5-10.4c26.7,4.1,54.6,2.4,80.5-4
		c0.4,1.9-0.8,3.2-2.2,4.5c-0.7,4-0.3,8-0.1,12c0.3,4.1-0.5,8.3-0.1,12.2c0.8,0.9,2.5,0.1,3.6,0.3c0.5,5.9,0.7,11.9,0.8,17.9
		c-1.8-0.4-3.4-0.9-5.3-1.3C479.5,388.3,463.4,389.5,447.7,389.6z M434.6,422.1c-0.5-7.6-2.4-15.2-3.9-22.7
		c4.9-0.5,9.7-1.3,14.7-1.8c2.5,8,3.9,16.2,4.3,24.2c0.8,7.5,0.1,15-1.1,22.5c-4.9,0.3-9.7-0.1-14.6-0.4
		C434.8,436.8,435.2,429.4,434.6,422.1z M425.8,430.1c-3.8-1.3-7.4-3.8-8.3-7.1c-0.5-2.5,0.1-5.1,1.4-7.4c1.4-0.9,3.1-1.4,4.7-2.1
		C426.1,418.9,426.1,424.6,425.8,430.1z M180.9,391c2.5-5.4,7-9.7,10.9-14.3c5.3-3.2,12.2-3.1,18.4-3c8.3,0,14.8,5.1,22.7,6.7
		c1.9,4.5,5.4,8.3,7.2,12.8c-21.2,3.8-41,11.2-62.2,14.6C175.7,402,178.5,396.2,180.9,391z M176.8,384.1c-4.5,8.3-5,17.6-5,26.4
		c-3.9-0.3-7.6-0.8-11.3-1.7c-8.3-2.1-16.9-2.8-25.4-4.3c-0.4-1.8-1-3.6-1.6-5.4c-2.5-7.4,3.2-14.2,6.4-20.8
		c3.4-7.5,9.2-14,14.8-20.5c2.2,0.8,3.6,2.5,5.4,3.8c5.5,4,11.3,8,17.6,11.3c1.7,1.2,4.2,1.9,5,3.7
		C181,379.3,178.1,381.3,176.8,384.1z M235.2,376.1c-6.3-0.9-10.8-5-17-6.2c-9.7-2.4-21-3.3-29.9,1.2c-3.4,2.4-6.6-1.3-9.1-2.9
		c-5.4-4.6-10.8-9.1-17.5-12.4c1.7-3.8,0.8-8.5,4.7-11.6c9.9-7.9,24.7-10.4,38.3-9c10.5,1,19.9,5.1,29.7,8.1
		c7.6,2.2,14.1,6.3,20.5,10.4c1.6,1,3.2,2,4.7,3C252.8,364.2,242.3,368.7,235.2,376.1z M209.5,331.3c-0.8-0.1-2.5-0.3-3.2-0.3
		c-4.7-0.3-9.6,0.1-14-1.7c5.4-3.9,12.6-5.7,19.1-8.3c6.7-2.2,12.5-6.1,19.6-7.2c16.2-3,32.6,1,48.4,3.8c12.6,3.3,25.2,8.8,33,17.9
		c-15.5,5.4-30.8,11.6-46.9,15.8c-1.8,0.7-3.3-0.7-4.7-1.3C245.2,341.3,228.2,334.1,209.5,331.3z M297.3,314.7c-12-6-26.3-8-40-9.2
		c0.4-7.8-0.9-15.5-0.4-23.4c1.2-0.7,2.5-1.3,3.8-2c2.2-0.4,4.5-0.7,6.7-0.4c17.2,1.3,34.6,1.3,51.9,1.7c27.5,2.2,55.1,3.4,82.8,3.3
		c0,1.6,0.1,3.1,0.3,4.7c-1-0.9-2.1-1.6-3.4-1.9c0.8,2.5,0.4,5.5,3.2,7.5c-3.2,2.9-7.4,4.9-10.2,8.1c-5.5,6-8,13.5-8,21
		c0.4,8.5,6.8,16.2,14.7,21.4c0.9,0.5,1.8,1.1,2.8,1.7c-0.8,1.2-0.8,2.5,0,3.7c1.3-0.5,2.5-1.2,3.8-1.9c0,1.3,0,2.6,0,4.1
		c-18.5-0.7-37.5-0.1-55.7-3.1c-8.1-7.5-15.5-16.3-27.6-19.7C314,324.6,306.5,318.7,297.3,314.7z M179.5,257.3
		c-1.8-4.6-1.6-9.6-0.4-14.2c2.1-9.5,3.6-18.9,6.6-28.3c0.9-3.7,5.5-5.9,10-6.2c4.9-0.4,9.9-0.1,14.8,0.4
		c13.3,2.1,26.8,1.6,40.1,3.1c26,1.6,52.1,2.4,78,4.5c2.4,1.3,4.7,2.8,5.1,5.3c1,4.3-1.4,8.5-1.8,12.9c-0.4,12.6-1.1,25.5-2,38.1
		c-2.4,3.7-8.1,3.9-12.6,3.7c-43.5-1.9-88-2.5-129.8-13.4C183.6,262.7,181.3,260,179.5,257.3l1.3,0.1L179.5,257.3z M410.9,99.7
		c0.7,0,1.9-0.1,2.5-0.1c1.1-4.2,0-8.4-0.4-12.6c0.4,0.1,1.4,0.4,1.9,0.5c1,4.6,2.2,9.1,3.1,13.8c-3.4,2.2-7.2,4.3-11.7,5
		c-8.5,1.6-17.5,0.5-26.3,0.9c-21.4,1.6-42.9,0.7-64.4,0.4c-5.1,0-10.1-1-14.9-2.5c0.3-1.2,0.4-2.5,0.8-3.8
		c3.6-8.3,10.1-15.9,18.8-21.3c10.8,0.4,21.4,2,32.2,1.9c4.6,0.1,9.2-0.9,13.8-0.1c13,1.8,26.3,2.4,39.4,1.9
		c2.8,0.3,7.4-1.8,8.1,1.6c-0.5,0.7-1.1,1.3-1.8,1.9l-1.1-1.6C410.7,90.2,412.5,94.9,410.9,99.7z M466,116.8c-0.5-2.1-1.2-4.1-2-6.2
		c-0.8,0-2.2-0.1-2.9-0.1c0.1,0.5,0.4,1.6,0.4,2c-1.2-1.4-2.6-2.8-4.3-3.8c3.9-0.1,7.6-0.4,11.4-0.8c0.4-0.1,1.2-0.3,1.7-0.3
		c9.6,14.3,19.6,28.9,24.1,45c-25.5,3.7-51.5,3.2-77.3,2.4c-3.6,1.9-7.9,1.4-11.9,1.7c-12.2,0.4-24.5,0.3-36.7-0.1
		c-4.2-0.1-8.3-1.3-12-2.9c-1.3-2-1.2-4.5-1.8-6.6c-1.1-10.7-1.3-21.7,1.9-32.1c20-2.4,40.4-0.8,60.1-3.7c4.1-2.2,9-1.4,13.8-1.4
		c8.3,0.7,16.7,0.1,24.9-0.9c0.7,0.4,1.4,1,2.1,1.4c0.4,2,1.6,3.9,3.4,5.1C461,110.1,463.4,117,466,116.8z M611.4,196.6
		c-2.5,0.5-4.9,1.1-7.4,1.9c-0.8-2.1-0.4-5.4-4-5.5c-0.4,2.5,0.5,4.7,3.1,5.9c-10.5,1.7-21.2,3.8-32,3.4c-0.5-2.1-1.1-4.1-1.7-6.1
		c-3.6-12.4-8.7-24.3-13.9-36.3c-1-1.9-1.2-3.8-1.1-5.8c2.5,0.4,5,1.6,6.2,3.4c7.6,10.5,14.3,21.8,17.6,33.9
		c0.1,1.4,1.1,2.5,2.8,3.1c9.3-1,18.8-2,28-3.7C608.9,192.8,609.7,194.9,611.4,196.6z M633.1,190.3c-1.8,0.4-3.4,0.8-5.3,1.2
		c-0.1-1.7-0.7-4-3.4-3.2c-0.4,1.9,0.7,3.2,3.3,3.3c-5,1.7-10.2,3-15.2,4.6c0.1-2.2-0.8-4.1-2.9-5.5c9.7-2,19.8-4.1,28.3-8.8
		c0.8,3.1-0.5,6-3.6,8.1c-0.8-1.6-2-2.8-3.8-3.7C629.3,188.4,631.4,189.3,633.1,190.3z M559.2,184.6c1.9,3.9,2.5,8.1,3.8,12.2
		l0.3-0.3c0.4,1.4,0.8,2.9,1.2,4.3c-2.1,1.7-4.7,3-7.6,3.4c-17.6,2.6-35.5,4.5-53.2,5.9c-1-2.4-2-4.6-3.1-6.8
		c-4.5-9.3-14-17-25.6-20.5c-14.9-4.5-32.1-3.4-46.4,2.2c-1.2-6-0.9-12.1-2.9-18c0.5-0.8,1.2-1.6,1.9-2.4c0.8,2,0.7,4.5,2.5,6.2
		c1.8,0.4,1.7-1.4,1.6-2.4c0.1-2.8-3.1-4.3-4.9-6.3c-1,1.3-2.2,2.6-3.1,4.1c0.7,6.7,2.1,13.3,1.9,20.1c-1.1,0.7-2.4,1.2-3.4,1.9
		c-0.7-7.9-1.9-15.7-3.8-23.4c-1-2.4,2.5-3.2,4.3-4c3.6-1.7,7.6-1.2,11.6-1.3c18.4,0.1,36.8,0,55.1-0.8c3.2-0.1,6-1.6,9-2.2
		c2.5-0.3,4.6,0.9,7,1c13.9,0.8,28-4.3,41.8-0.7C552.5,166,555.1,175.5,559.2,184.6z M464,312.6c-0.7-6.3-2.4-12.6-3.7-19.1
		c8.3,0.1,16.6,0.1,24.6,1.9c3.8,6.9,2.1,14.7,4.1,21.9c-0.3,6.9-1,13.8-2.1,20.7c-0.4,1.1-0.4,3-2.4,3c-7.4,0.8-14.9,1.2-22.4,1.7
		C464.6,332.9,464.8,322.7,464,312.6z M482.4,288.5c2.2-1.6,1.2-4,1.2-6c-0.7-0.1-2.1-0.3-2.8-0.3c0.1,2.1,0.4,4.2,0.9,6.2
		c-17-1.9-34.3-1.6-51.4,0.8c-5.5,0.4-11,1.4-16.3,2.6c-0.4-21.7-6.1-43.4-3.6-65.1c2.2-11.8,7.2-24.9,20.8-31.3
		c12.2-5.3,27.9-9.1,40.9-3.4l0.4,0.5c4.5,1.1,7.5,4.2,10.4,6.9c6.3,6.1,10.2,13.5,12.8,21.2c2.8,8.8,2.8,17.9,3.4,26.8
		c0.8,14.6,0.4,29,0.7,43.5c-1.8-0.3-3.4-0.5-5-1.1C490.8,289.8,486.6,289.1,482.4,288.5z M436.5,312.6c-0.8-5.8-1.4-11.4-2.5-17.2
		c4.2-0.4,8.4-0.8,12.6-1c2.2,7,3.7,14.2,4,21.4c0.7,9.3-0.4,18.8-2.5,28c-4.3,0-8.7-0.1-13-0.3
		C436.9,333.3,437.2,322.9,436.5,312.6z M428,329.6c-10.1,1.7-15.5-9.5-10.4-15.5c1.9-2.9,6.2-3.4,9.7-4.3
		C428,316.5,428.5,323.1,428,329.6z M339.7,225.5c0.4-2.6,1.1-6.3,4.7-7.5c5.4-0.7,10.8-0.4,16.2-0.4c13.3,0.7,26.6-0.5,39.9-0.3
		c-1.8,6.9-2.9,14-2,21.2c1.2,10.4,2,20.8,2.6,31.3c0.3,3.2,0.4,6.4,0.5,9.7c-21.6,0-43.4-0.8-64.6-4.7c0.1-1.7,0.3-3.3,0.3-4.9
		C336.8,255.1,338,240.4,339.7,225.5z M368.5,211.4c-23.4-0.4-46.6-1-69.9-1.8c-11.3-0.8-23-0.8-33.8-4.1c-3.3-0.9-1.7-4.2-2-6.3
		c0.9-10.2,2-20.7,6.8-30.4c0.5-3.3,1.6-8,6-9.1c20.7,1.3,41.4,2.1,62.2,2.9c6.1,0,12.1-1.3,18.3-1.2c15.9,2.8,32.2,1,48.3,0.5
		c2.5,0,5.1,0.4,7.6,0.9c2.2,9.9,3.6,19.9,3.7,30c-3.4,2.8-6,6-8.9,9.1c-0.1,0.8-0.4,1.6-1,2.2c-1.1,2.1-2,4.2-2.8,6.4
		C391.5,211.2,380,211.6,368.5,211.4z M546.8,151c-2-0.7-3.9-1.6-6.1-1.3c-11.8,0.8-23.5,3.4-35.5,2.9c-4-0.1-4.7-3.7-6-6
		c-4.1-8.8-8.7-17.5-13-26.3c-2.2-2.5-3.7-5.4-5.8-8.1c-1.3-1.7-2.5-3.3-3.8-5c9.9-1.1,19.7-2.5,29.5-3.9c2.8,0.8,5.3,2.5,7.2,4.1
		c13.3,11.9,26.3,24.3,36.3,38.3C551.3,147.8,548.1,149.5,546.8,151z M336.6,114.5c4.2,0,8.5,0,12.8,0.3
		c-1.8,13.1-0.4,26.3,0.1,39.6c-6.2,3.3-13.8,3.4-20.9,3c-28.7-1.3-57.6-2.5-86-5.8c-6.6-1-13.8-1.8-18.9-5.5c1-1.9,2-3.8,3-5.7h0.3
		c6.9-12.4,15.5-24,25.6-34.7c13.4,1.9,26.8,4.6,40.6,4.3C307.2,113.1,321.9,114.5,336.6,114.5z M225.2,128.2
		c-4,5.3-7,10.8-9.6,16.6c-3,2.5-7.8,1.8-11.6,1.2c-15.5-2.6-30.8-7.2-44.3-14.1c0.9-1.4,1.6-3,2.6-4.3c4.7-7.4,13.3-12.2,20.7-17.6
		c8.5-5.7,17-11.6,27.2-15.2c9,4.2,19.1,6.8,29.1,9c1.3,0.4,2.8,0.7,4.2,1C237.2,112.4,231.4,120.4,225.2,128.2z M179.3,144.6
		c26.9,6.6,54.3,11.8,82.4,14c2.2,0.4,3,2.2,4.3,3.4c-5.1,10.8-7,22.4-9,33.7c-0.8,3.3,3.4,8.3-1.3,10.4c-15.1,2.1-30.4-1-45.4-2.8
		c-18.4-1.7-36.6-4.9-53.8-10.2c-2.5-0.5-2.4-3-3-4.7c0-7.1,2.9-14,6.4-20.5c3.9-7,8.7-13.7,14.2-19.9
		C175.5,146.5,177.6,145.7,179.3,144.6z M403.1,337.8c-8.5-6.1-10.5-17.1-4.9-25.1c5.4-8,15.2-14.6,26.6-15.5
		c0.4,1.9,0.9,3.7,1.4,5.5c0.1,0.5,0.3,1.6,0.3,2.1c-4.9,1.8-10.5,2.9-14.1,6.3c-4.7,4.9-5.8,12.2-1.4,17.5c3.8,4.1,9.7,7,16.2,7.1
		c-0.3,1.3-0.4,2.8-0.7,4.1c-0.4,1.2-0.7,2.4-1,3.6C417.6,342.8,409.3,342,403.1,337.8z M509.7,344.3c8.9-4.2,15-11.6,17.4-19.6
		c1.6-9.7-2-20.5-11.2-27.3c-1.8-1.4-4.2-2.4-5.8-4c0-4.1,0.3-8.3,0.4-12.4c17.2-1.2,34.2-4,51.5-5.4c2.9,8.1,4.6,16.6,5.4,25
		c0.8,13.9,3,27.8,1.2,41.7c0,2-2.5,3-4.7,3.1c-18.3,1.6-36.7,1.7-54.9,3.2C509.6,347.3,509.6,345.7,509.7,344.3z M550,271.5
		c-13,1.3-26,2.9-39.2,3.1c-0.3-2.9-0.4-5.8-0.4-8.8c-0.4-14.3-0.9-28.7-3-43c0.8-0.5,1.4-1.1,2.2-1.7c0,1.8-0.1,3.7-0.1,5.4
		c0.7,0.4,1.3,0.9,2.1,1.4c1.2-2.2,0.9-4.7,0.3-7c-1.7-0.3-3.4,0.3-5.1,0.3c-0.4-1.7-0.9-3.2-1.3-4.9c25.4-3.2,50.9-4.6,76.1-8.1
		c7.6-1.1,15-2.4,22.4-4.3c2.5,1.1,6.3,1.3,7.1,3.9c7.1,16.7,13.3,34.5,10.7,52.3C598.2,265.4,574.3,268.9,550,271.5z M653.3,218.3
		c2.5,7.9,5.7,15.8,6.4,24c0.4,2.6,0.7,5.4-0.4,8c-2,2-5.4,2.5-7.9,3.8c-0.3-0.4-0.7-1-0.9-1.2c-0.1,1.9-2.8,2-4.6,2.6
		c-4.7,1.1-9.3,2.1-14.1,2.5c-0.5-2.5-1.1-4.7-1.8-7.2c-4-16.3-6.3-33.3-14.2-48.8c7.1-1.8,14.1-3.9,21.2-6c1.9-0.4,3.8-1.3,5.8-1.1
		C647.3,202.4,650.2,210.4,653.3,218.3z M548.4,82.3c0.8,0.4,1.4,0.9,2.2,1.3l-2.5,0.1c-0.1,0.7-0.4,1.9-0.4,2.5
		c2.8-0.7,5.7-1.4,8.4-2c-1.1-2.1-3.6-1.7-5.9-1.1c0.3-0.4,0.7-1.2,0.9-1.6c12.9-1.7,26-0.5,38.9,0.7c15.1,1.7,31,5.7,41.4,15.1
		c14.5,13.4,20.9,32.3,16.9,49.8c-4.2,11.4-12.4,21.7-22,30.6c-1,1.2-2.9,1.4-4.5,1.9c-11.2,2.4-21.7,7.6-33.7,7.1
		c9.1-7.2,17.6-14.9,24.7-23.5c4.1-5.4,9.5-10.4,10.5-16.8l0.3,0.3c3.1-11.9,3-24.6-2.4-36c-4.7-10.2-12.8-19.9-24.8-25.2
		c-0.5-0.1-1.8-0.3-2.4-0.4c11.9,11.7,20.5,26.3,20.1,41.8c-0.8,6.8,0.3,13.8-2.2,20.5c-1,3-3.2,5.5-4.9,8.4
		c-4.1,7.1-10.9,12.9-17.4,18.8c-1.8,1.7-4,3-6.3,4.1c-16.2-30.4-43.4-55.5-70.7-79.5C523.3,91.7,535,85.4,548.4,82.3z M527.1,77.3
		c-1,0.1-2.9,0.4-3.9,0.4c0.9,1.7,2.8,2.5,5,2.8c-0.4-0.9-0.9-2.5-1.2-3.4c1.6,0.9,3.2,1.9,4.9,2.8c-2.4,1-4.6,2.4-7.2,2.8
		c-1.4-0.7-2.6-1.6-4-2.5c0.4-0.4,1.1-1.3,1.4-1.8c-3.2-2.4-5.9-5.9-10.5-6c1.3,1.9,3.1,3.3,4.9,4.9c-4.7-2.4-8.9-5.3-13.3-7.8
		c-1.7-0.9-3.2-2-4.1-3.4C509.5,67.5,518.2,72.9,527.1,77.3z M495.9,71.4c8.1,4.6,16.9,8.3,24.2,13.7c-4.3,3.2-9.6,5.9-13.1,9.7
		c-1.3,1.1-2.2,2.9-4.5,3c-22.1,3.9-44.8,6.6-67.5,6.7c-3-0.4-6.9,0.3-9.2-1.6c-3.3-6.3-4.2-13.5-1.9-20.2
		c6.7-1.7,13.5-2.1,20.2-3.2c11.8-2,23.9-2.5,35.6-5.3c3.8-1.2,7.6-2.6,11.2-4C492.9,69.6,494.6,70.6,495.9,71.4z M448.7,54.6
		c13,1.8,25.4,5.7,37.2,10.1c-9.3,4.9-21.4,8.7-32.6,5.5c-6.7-2.6-12.9-6.2-17.9-10.8C439.6,57.4,443.5,53.9,448.7,54.6z M449,74
		c-17.2,3.3-35,5-52.8,5.3c-5.8,0.1-11.6-0.7-17.2-1.6c-2.2-0.4-4.1-1.3-5.8-2.5h-0.4c0.3-4.2,2.6-8.8,7.6-10.9
		c11-0.8,22.2,0.3,33.3-1.4c3-0.4,6.1-0.9,9.2-0.9C431.9,65.2,441.2,68.7,449,74z M370.8,50.6c6.9-0.8,13.9-0.9,20.8-1.1
		c13.5-0.1,27.5-0.1,40.6,2.9c-1.8,1.9-4.9,1.7-7.5,1.9c-3-0.1-5,2.4-7.9,2.5c-15.9,2.2-32.1,3-48.1,1.8c-9.5,1.4-19.1-0.7-27.9-3.1
		C349.9,51.2,360.6,51.6,370.8,50.6z M335.4,59.1c9,2.5,18.4,3.6,27.7,4.6c2.2,0.3,4.5,0.5,6.7,0.9c-1.4,4.2-2.1,10-8,11.7
		c-16.4,2.5-33.1-0.3-49.2-3c-2-0.4-4.2-0.5-5.9-1.6c0.1-2.2,3.4-2.4,5.3-3.3C319.6,65.1,327.1,61.4,335.4,59.1z M315.3,58.3
		c4.9-0.8,9.6-2.1,14.6-2.2c-9.1,4.1-18.4,8-27.8,11.8c-5,0.9-10.2,0.1-15.1-0.5C295.2,62.2,305.4,60.4,315.3,58.3z M270.7,71.3
		c0.9,0.4,1.8,0.7,2.6,1.1l-2.6,0.8c1.4,1.2,3,2.9,3.9,0.4c-0.8-0.9-1.4-1.7-2.1-2.5c7-1.1,12.6,3,19.2,3.2
		c4.3-0.1,8.1,1.8,12.5,2.1c2.6,0.7,5.3,2,5.5,4.6c-5.4,6.8-10.9,13.7-14.5,21.2c-3.4,1.7-7.2,4-11.6,2.9
		c-21.2-3.8-44.2-3.4-63.2-12.6c1.6-1.2,3.1-2.5,5-3.2c8.5-5.4,18.5-9,28.1-13.1C259.1,74,264.7,72.2,270.7,71.3z M223.1,50.6
		c10,1.6,19.1,5.4,28.1,8.7c0.3,0.4,0.7,1.3,1,1.9c-2.4-0.9-4.2-0.8-5.8,0.5c-4.2-2-8.4-3.9-13.1-5.3c-0.4,0.5-0.9,1.6-1.1,2.1
		c4.2,1.6,8.7,2.9,12.6,4.9c1.9,1,3,2.6,5.1,3.4c0.7-1.2,0.8-2.5,0.4-3.9c1.4,0.7,3,1.3,4.6,2c-0.3-0.7-0.8-2.1-1.1-2.8
		c0.5-0.4,1-0.8,1.6-1.1c2.4,1.3,4.7,2.5,7.1,3.7c-7.6,1.9-14.7,4.7-21.8,7.6c-6-3.7-11.2-8.4-18.1-11c0.5-0.5,1.2-1.1,1.9-1.6
		c2.2,0.8,4.6,1.6,7,1.7c-1.1-2.4-3.9-3.7-6.9-3.7c-0.3-0.4-0.5-0.9-0.8-1.2c3.8-1.6-0.5-3.2-2.5-3.6c-0.1,0.5-0.4,1.8-0.4,2.4
		c4.2-0.5,2.1,3.9-0.1,4.7c-9.7-5.4-21.7-7.6-33.4-7.4C198.6,49.8,211.1,48.1,223.1,50.6z M145.7,86.9c1.6-6.6,5.3-12.9,11-17.8
		c7.6-7.8,18.4-13.3,30.2-16.3c0,0.4,0,1.4,0,2c4.6,0.5,9.1,1.1,13.4,2.4c8.3,3.2,15.4,8,22,12.9c2.9,2.1,5,4.7,7.2,7.2
		c-4.9,3-9.9,5.9-14.9,8.8c-2.9,1.8-6.9,0.9-10,2.1c-7.9,3.3-15.4,7.2-22,12c-11.6,7.6-22.4,15.8-31.7,25.2
		C146.3,113.1,142.7,99.8,145.7,86.9z M126,164.9c6.8-8,12.9-16.4,21.2-23.5c2.1-1.7,4.2-3.4,6.8-4.6c5.7,1.8,11.2,4,16.8,5.7
		c-11.4,13.3-18.8,28.4-23.4,44c-0.4,1.4-0.9,4.5-3.7,3.1c-8.4-2.9-17.1-5.4-25.5-8.5C118.9,175.1,122.1,169.8,126,164.9z
		 M106.1,191.3c1.2-2.5,3.7-4.7,6.3-6.2c18.8,7.9,39.2,12.9,59.4,17.6c1.8,0.4,3.4,1.2,5,2c2.4,2.1,4.2,5,2.4,7.8
		c-5.7,11.2-8.4,23.3-8.3,35.2c-0.4,4.1-1.2,9.1-6,11.4c-4.7,1.4-9.7-0.4-14.3-0.8c-13.5-3.1-27.3-5.9-40.8-9.5
		c-6.2-1.6-12.1-3.9-17.1-7.2c-2.5-1.3-1.8-4.1-2-6.2C90.8,220,98.7,205.4,106.1,191.3z M87.4,258c0.4-3.4,1.3-6.7,2.6-10
		c5.3,2.2,10.7,4.5,16,6.6c-0.9,2-2,4-2.9,6l-0.1-0.1c-1.6,4.9-2.5,10-3.1,15c-0.4,6.9-0.5,13.8-1.4,20.5c0.1,7.6,1.1,15.1,1.4,22.7
		c-5.3-0.5-10-3-13.4-6C82.7,294.7,84.5,276.1,87.4,258z M112.4,333.2c-0.4,4.3-2.5,8.5-1.9,13c1,9.2,1.2,18.5,1,27.8
		c-0.3,8.3,0.4,16.7-0.1,25c0.1,0.7,0.3,1.9,0.3,2.5c-6.8-2-13.6-4.9-18.8-9.3c-3.4-1-6.1-3.4-9.9-4c-3.1-12.4-3.8-25-3.6-37.6
		c0-10.5-0.5-21.2,2.9-31.6c4.7,1.3,9.1,3.7,13.9,5.1c3,1,6.3,0.4,9.5,0.8C109.5,326.5,112.7,329.8,112.4,333.2z M109.9,320.5
		c-3.8-0.7-2.9-4.5-3.8-6.7c-3-16.4-1.7-33.5,2.9-49.6c1.2-2.9,2.1-6.8,6.1-7.9c37.3,7.2,74.8,14.2,112.5,20.5
		c5.4,0.8,10.8,2.1,16.3,2.2c3,0.1,7.5,0.9,7.4,4.1c-0.1,7.2-0.5,14.3-0.7,21.6c-3,0.4-6.1,0.4-9.1,0.5c-2.4,0.3-4.7,0.4-7.1,0.7
		c-0.7-0.4-1.2-1-1.9-1.4l2.5-0.5c-0.9-1.1-2.2-1.7-3.6-2.1c0.4,1.6,0.8,3.1,1.2,4.6c-5.7,0-10.5,2.6-15.7,4.2
		c-9.6,3-19.1,6.4-27.9,10.5c0-1.6,1.4-3.8-0.7-4.7c-2.1-0.1-1.4,2.4-2.4,3.2l1.8,0.1c-0.1,0.8-0.3,1.7-0.4,2.5
		c-2.5,0.7-4.7,1.9-7,3.1c0-0.5,0-1.7,0-2.2c-0.5-0.1-1.6-0.4-2-0.5c-0.1,0.3-0.4,0.8-0.5,1.1c0.5,0.7,1,1.3,1.2,2.1
		c-1.8,1.7-4.6,2.5-6.7,3.9c0-1.2,0-3.1-2.1-3.1c-1.7,1.3,1.4,2.8,2,4C150.9,330.2,130,326,109.9,320.5z M123.1,406.2
		c-2.5-1.4-4.9-3.9-4.5-6.6c-1.1-14.1,0.3-28.3-0.8-42.3c-0.4-5.4,0-10.7,0.8-15.9c0.4-3.8,4.7-6.2,8.8-7.6c9.3-2.8,19.1,0,28.4,0.8
		c2.6,0.3,5.4,0.4,8.1,0.7c-6.3,4-9.6,10-11.7,16.2c-8,2.2-11.4,8.9-15.5,14.3c-5.5,9.7-10.2,19.9-11.6,30.5
		C124.9,399.6,128.2,404.5,123.1,406.2z M170,454.7c-4.2-1.7-8.8-2.5-13-4.2c-3.9-1.4-7.5,1.2-10.8,2.5c-5.4-0.8-11-1.6-16.2-3
		c-2.9-0.5-3.9-3.6-3.3-5.7c-1.4-9.7-0.9-19.8,0.4-29.7c0.4-1.4,0.3-3.9,2.8-3.9c4.9-0.7,9.9,0,14.8,0.1c5.8,0,11,2.1,16.6,3.1
		c3.6,0.7,7.2,1.1,10.9,1.3C170.4,428.4,167.9,441.5,170,454.7z M234.5,434.2c-2.5,0.3-4.7,1.2-6.7,2.4c-9.9,5.1-22.1,6.7-31.2,13
		c-5.5,4.2-13.1,6.6-20.4,7.9c-0.8-12.2-1.7-24.6-0.5-36.9c0.3-2,0.7-4.1,1.3-6c8.9-1.9,17.2-5,26.3-6.6c7.4-2.1,14.9-3.4,22-5.8
		c5.1-1.6,10.4-3.1,15.7-4c0.3,7.5,0.1,14.9,1.6,22.4c0.4,3.3,1.8,6.6,2.1,10C241.5,432,238.3,433.8,234.5,434.2z M246.6,392
		c-1.8-3.9-5.7-7.2-6.3-11.4c-0.4-1.9,1.8-3,3-4.3c6.1-6.2,13.9-11,20.9-16.4c14.2,8,21.3,21.4,27,34.2c2.8,5.8,5.1,11.9,6.2,18.1
		c0.1,2.1,0.4,4.3,0.4,6.4c-8.5-0.4-17.2-0.1-25.9-0.3c-6.6-0.1-12.9-1.7-19.2-2.6C250.5,407.7,249.9,399.6,246.6,392z M307.5,469.1
		c-0.4,2.2-1.3,4.3-1.9,6.6c-4.7,0-9.2,1.2-13.9,1.7c-3-1.1-6.1-0.8-9.2-0.8c-8.4-1-16.4-3.4-25-4c-1.8-1.7-4.7-3.1-4.7-5.5
		c-0.9-2.8-0.1-5.5,0-8.3c-0.8-9.9-1.4-19.9,0.4-29.8c0.3-2.4,2.1-4.1,3.7-5.9c1,0.1,2.8,0.4,3.8,0.4c12.6-0.1,25.4-0.3,38,1.1
		c3.6,0.3,6.3,2.5,7,5.4c2.2,7.9,2.2,16.2,2.8,24.1C308.8,458.8,308.4,464,307.5,469.1z M307.2,416.6c-3.1-18.8-14.6-35.9-27.2-51.5
		c-2.9-3.4-8-5.7-8.9-10c15.8-4.6,29.9-12.2,46-16.2c6.8-0.7,12.6,3.1,16.8,7.2c10.9,10.9,20.5,23.1,23.9,37.1c0.4,2.9,1,7-2.9,8.4
		c-8.5,3-15.4,8.3-23.8,11.4C323.3,407.7,316,413.1,307.2,416.6z M367.7,419.3c-0.5,7,0.4,14.2-2.4,20.9c-4.1,3.1-7,7.4-12,9.6
		c-3.4,2.4-8.3,2.4-11.8,4.5c-2,1.9-3,4.3-4.7,6.3c-5.9-1.3-9.9,2.8-13.1,6c-3.2,2.9-3.8,6.9-4.7,10.4c-1.2,0.3-2.5,0.4-3.7,0.7
		c-0.4-12-0.4-24-1.4-35.9c-0.5-5.9-2.4-11.9-0.8-17.8c1.4-3.8,5.4-6.3,9.1-8.5c11.7-6.9,22.8-14.8,36.3-19.5c4,1,5.7,4.7,6.4,7.6
		C365.7,409,368.4,414,367.7,419.3z M386.5,442c0.5-5.7,0.4-11.3,0.3-17.1l0.4-0.3c-2-8.1-2-16.8-6.3-24.5l-2-0.9
		c0.9,5.8,3,11.4,3.7,17.4c1.7,8.1,1.1,16.4,0.3,24.7c-1.7-0.4-3.3-0.8-4.9-1.3c1.3-6.3,1-12.8,0.4-19.2c-1.1-8.3,0-17.2-4.7-25
		c-1.7-3-5-5.4-5.1-8.9c-1.7-10.4-6.6-20-12.8-29.1c16.4,0.7,33,1,49.6,0.9c0.9,12.5,0.5,25,2.1,37.5c-7.5,5.8-14.9,12.1-17,20.5
		c-1.1,2.4-0.3,5.5-2,7.6c0.5,3.8,1.1,7.6,1.8,11.3c0.8,0,2.5,0,3.2,0c1.4,2.4,4.6,4.2,5,6.9C394.4,442.9,390.4,442.5,386.5,442z
		 M405.1,435.1c-5.1-5.9-5.8-13.8-3-20.5c1.4-4.7,6.6-8,11.3-10.7c2.2-0.9,4.7-2.6,7.2-1.9c0.7,1.7,1.2,3.3,1.9,5
		c-3.7,3.2-9.7,4.6-12.1,8.8c-4.6,8.5,4.2,18.9,15.2,20.4c-0.1,1.7-0.3,3.3-0.4,5c-0.1,0.5-0.4,1.7-0.7,2.2
		c-2.5-0.9-5.1-1.6-7.8-2.1C413,439.2,408.1,438.2,405.1,435.1z M495.3,483.1c-3.3-0.3-7.1-0.8-10.1,1c-1.7,0.5-3.6,2.5-5.4,1.2
		c-8.9-4.5-19.9-4.1-29.8-2.8c-1.8,0.5-3.3-0.4-4.9-1c-6.4-3.2-14.8-3-21.7-1c-2.8,0.8-5.8,0.8-8.8,0.9c1.8-10.8,0.9-21.7,1.6-32.5
		c20.8,4.2,42.6,4,63.6,1.7c7-0.7,13.9-2,20.7-3.6c1.7,11.9,1.8,24,4,35.9C501.7,483.9,498.4,483.7,495.3,483.1z M511.6,424.2
		c-0.5,3.9-2.6,7.6-5.5,10.7v0.3c-4.1,3.7-9.2,6.8-15.5,7.5c2.1-8.9,2-17.9,1-26.8c-0.8-6.2-1.1-12.5-2.8-18.5
		c5.8,1.6,11.6,4,15,8.3C508.9,410.5,512.8,417.3,511.6,424.2z M529.5,403.9c-1.2,2.5-1.4,5.4-2.1,8.1c-0.9,4.7-1.7,9.7-2.2,14.5
		c-0.9,0.3-2.8,0.8-3.7,1c0.4-2.5,1.2-4.7,1.4-7.2c-0.8-2.8-2-5.4-2.8-8.1c-2.6-4.3-3.4-9.1-2.5-13.9c-0.3-2.6,1.4-5.9-0.3-8.3
		c-3.4-1-1.6,3.3-2.4,4.9c0.4,2.5-0.4,5.3-0.4,7.8c-1.1-0.9-2.2-1.9-3.2-2.8c0.1-1.7,0.3-3.4,0.4-5.1c-0.4,0-1.2,0-1.7,0
		c-0.4-10.7-2-21.3,0.3-31.9c-0.5-3.4,3-5.8,5.9-7.6c2.5-1.2,5.4-0.8,8.3-1c12.5-0.4,24.8-0.7,37.2-1.3c7.5-1.3,15-2.6,22.6-3.3
		c9.6-0.9,18.8-5,28.5-3.4c2.5,0.4,6.4,1,6,3.8c-0.9,13.3-1.6,26.4-2.5,39.7c-8.7,1.3-17.4,2.2-26,3.3c0-1.2,0.1-2.5,0.4-3.7
		c-0.5-6.2-0.3-12.6-0.3-18.8l-1.7-0.8c-0.9,7.4-0.1,14.7-0.5,22c0,0.9-0.4,1.7-1.1,2.4c-0.9-4.6,0.1-9.1-0.5-13.5
		c0-1.2-0.9-2.2-1.9-3c-0.4,2.9-0.3,5.8-0.4,8.7c0,2.6,0,5.4-0.1,8c-0.8,0.1-2.4,0.3-3.1,0.4c0-0.9,0-1.9,0.1-2.8l-0.7-1.8
		c-0.4-0.1-0.9-0.3-1.2-0.3c-0.4,1.9-0.7,3.8-0.9,5.7c-0.3-0.4-0.5-0.9-0.8-1.2c0-1.7,0-3.7-2.2-4.5c-0.4,1.8-0.5,3.7-0.7,5.4
		c-1.4,0.4-2.9,0.7-4.3,1c-0.5-1.9-0.4-4.1-2.2-5.5c-0.1,1.3-0.3,2.6-0.4,4l0.4,1.1l-0.5,0.8c-8.5,2-17.8,1.6-26.2,4.2
		C537.5,401.8,532.6,401.2,529.5,403.9z M594.8,471.2c-9.1-1.7-16.3-6.6-24.5-9.9c-5.8-2.5-12.4-3.1-18.4-5.1
		c-4.2,0.7-9.1,3.2-13.3,0.9c-3.3-1.9-1.1-5.5-0.7-8.3c4.3-12,2.5-24.6,4.6-36.8c14.1,2.2,28,5.1,42.1,7c0.4,0.4,0.9,1.1,1.2,1.4
		c-1.3,1.9-2.2,4.7,0.1,6.3c0.5-1.8,1-3.6,1.4-5.4l-1.8-0.3c0.7-0.5,1.2-1.1,1.9-1.6c4.7,1,9.6,1.7,14.3,2.6
		C599.7,438.8,596.6,454.9,594.8,471.2z M595.7,416.8c-15-2.9-30.1-5.3-45.1-8.1c22.5-3.4,45-6.3,67.5-9c7.8-0.7,15.5-1.9,23.4-2
		c7.5,1.1,14.8,2.9,22,5c5.9,0.9,11.4,2.6,17,4.6c-7.9,1.6-16,2.2-24,3.6c-0.5-0.5-1.1-1.1-1.7-1.6l2.1-0.9
		c-1.7-0.4-4.7-2.6-4.9-0.1l0.7,1l2-0.1c0,0.7,0,1.3,0,2.1c-7.2,0.4-14.2,1.9-21.3,2.9c-3.3,0.7-4.9-2.2-7.1-3.6
		c-0.7,0.7-1.2,1.3-1.4,2.1c1.3,0.8,3.1,0.9,4.1,2c-6.8,2-14.1,2-21.2,3.3C603.6,418.9,599.5,417.6,595.7,416.8z M695.4,456.3
		c-5.9,0.3-9.7,4.1-14.7,6c-6.6,0-13,1.4-19.6,1.7c-5.7,0.3-10.2-3.9-16-3.2c-9.3,0.8-15.8,7.9-25.4,8.1c-5.8,0-11.2,1.3-16.7,2.5
		c0-16.2,4.1-32.2,6.2-48.4c27.1-4.2,54.4-7.6,81.7-11.7c1.6-0.3,4.3-0.5,4.7,1.2C697.6,427,695.9,441.7,695.4,456.3z"/>
</g>
</svg>
