<?xml version="1.0" encoding="utf-8"?>
<!-- Generator: Adobe Illustrator 25.3.1, SVG Export Plug-In . SVG Version: 6.00 Build 0)  -->
<svg version="1.1" id="Capa_1" xmlns="http://www.w3.org/2000/svg" xmlns:xlink="http://www.w3.org/1999/xlink" x="0px" y="0px"
	 width="504px" height="666px" viewBox="0 0 504 666" style="enable-background:new 0 0 504 666;" xml:space="preserve">
<style type="text/css">
	.st0{fill:#020203;}
	.st1{fill:#E6332A;}
</style>
<g>
	<path class="st0" d="M246.2,144.5c10.8,6.2,23,7.5,34.6,8.8c4.4-10.8-4.8-9-8.4-10.5c-10.6-2.1-20.5-7.3-30.3-12.3
		c-1.7-1.1-3.3,0.7-4.8,1.4c-0.7,3.9,0.2,7.8,2,10.9C241.5,143.8,244.1,143.1,246.2,144.5z"/>
	<path class="st0" d="M265.1,254.7L265.1,254.7c0-0.1-0.1-0.2-0.1-0.4C265,254.5,265,254.6,265.1,254.7z"/>
	<path class="st0" d="M339.1,267.9c-5.9,11.4-15.4,20.6-28.5,21.9c-8.6,0.5-16.3-1.8-22.8-6c7,5.2,15.5,8.2,25.1,7.6
		c12.8-1.3,22.3-10.3,28.2-21.3C340.4,269.5,339.7,268.8,339.1,267.9z"/>
	<path class="st0" d="M344.9,272.8c0.1-0.2,0.2-0.4,0.2-0.6c-0.7-0.2-1.4-0.4-2-0.7C343.6,272,344.2,272.4,344.9,272.8z"/>
	<path class="st0" d="M273.8,274.6c0.8-0.6,1.5-1.2,2.3-1.9c-0.6-0.8-1.1-1.5-1.6-2.3c0,0-0.1,0.1-0.1,0.1c-0.9,0.9-1.9,1.7-2.9,2.5
		c4.2,7,9.8,13.2,17,17.9C282.4,286.4,277.5,280.9,273.8,274.6z"/>
	<path class="st0" d="M300.5,271.5c6-0.4,13-0.1,17.6-4.7C312.1,266.5,304.4,265.8,300.5,271.5z"/>
	<path class="st0" d="M296.8,255.7c11.9,1.2,23.7,0.7,35.4-1.1c2.9-0.4,1.7-3.9-1.2-3.5c-8.8,1.3-17.7,1.9-26.7,1.5
		c-4.6-0.2-9.2-0.6-13.7-1.3c-3-0.4-7.1,0.2-7-4.1c-0.4-2.3-4.9-1.3-4.5,1C279,256.5,291,254.7,296.8,255.7z"/>
	<path class="st0" d="M333.2,101.1c-2.8-0.4-5.5-0.9-8.3-1.2C327.4,101.1,330.3,101.4,333.2,101.1z"/>
	<path class="st0" d="M433,202.5c-1.7-4-3.8-7.8-6-11.6c1.7,0.1,5,0.3,6.7,0.3c-5.2-6.6-12.5-11.5-15.8-19.5
		c-5.2-10.9-2.6-23.2-4.7-34.7c-0.4-2.9-1.3-5.7-2.4-8.4c0.3-0.2,0.6-0.4,0.9-0.6c0-1,0.1-2,0.4-3c0.1-0.2,0.1-0.3,0.2-0.5
		c0.8-1.2,1.5-3,2-3.8c0-0.1,0.1-0.1,0.1-0.2c0,0-0.1,0-0.1-0.1c0,0,0.1,0,0.1,0c0.2-0.3,0.3-0.6,0.5-0.9c0.4-0.5,0.8-1,1.3-1.5
		c1-1,2-1.9,2.6-2.5c0.7-0.9,1.4-1.9,2.1-2.9c0.5-1.8,0.8-3.7,1.1-5.6c0.7-1.5,1.2-3,1.5-4.7c1.1-5.9,1-12.9-2.1-18.1
		c-1.8-7.3-5.4-14.1-11.4-19.3c-0.2,0.1-0.4,0.1-0.6,0.2c0.1-0.1,0.3-0.2,0.4-0.3c-7.6-1.3-16.1-4.3-23.3-0.2
		c-3.2,1.6-6.5,3.5-10.2,2.9c-0.9,0.5-2.7,1.4-3.6,1.9c-2.4,3.2-4.8,6.5-7.1,9.8c-24.7-12.5-53.9-16.6-81-10.6
		c-1.4,0.9-3.1,1.5-5.2,1.5c-0.2,0-0.4,0-0.6,0c-0.7,0.2-1.4,0.3-2.1,0.6c0-0.3,0-0.6,0-0.9c-1.7-0.4-3-1.3-4.1-2.4
		c-3.4-0.8-5.6-3.2-6.5-6.1c-4.8-3.8-10.1-6.9-15.6-9.5c-6.2,1.1-13.5,1.9-18.3,6.2c-2.1,0.4-3.2,2-3.5,3.8
		c-0.8-0.2-1.7-0.3-2.5-0.4c-1.9,3.8-3.4,7.8-4.1,12c-2.1,12.3,2.4,26.7,9.8,36.6c1.2,1.6,1.1,3.2,0.3,4.4c0.1,0.3,0.2,0.6,0.3,0.9
		c0.1,0.8,0.2,1.7,0.3,2.6c0,1-0.1,1.9-0.4,2.8c0.1,0,0.1,0,0.2,0c-2.3,6.9-4.3,14-7.2,20.7c-3.1,7.2-9.3,11.7-15.5,16
		c-1.9,0.3-3.9,0.7-5.8,0.9c-0.1,1.1-0.1,2.1-0.2,3.2c-0.3,0.2-0.6,0.4-0.8,0.6c-6.5,5.3-13.1,11-17.1,18.5c3-1.5,5.9-3,8.8-4.6
		c-7.3,9.9-11.6,21.7-13.6,33.8c1.1,0,3.2,0.1,4.3,0.1c-1.1,18.6,3.5,36.8,10.6,53.9c1.9,2.9,3.9,5.6,6.1,8.2c-0.1,0-0.1,0-0.2,0
		c-0.5,0.5-1,0.9-1.5,1.4c1,0.2,2,0.2,3,0.3c2.2,2.6,4.4,5.2,6.6,7.8c0.5,5,1.3,10,1.9,15c0,0,0,0-0.1,0c-1,0.3-2,0.6-3.2,0.9
		c0.6,1,0.8,2.2,0.4,3.4c-4.3,4.3-8.3,9-11.2,14.5c-10.6,18.5-12.7,41.4-6.4,61.7c1.3,4.9,4.6,8.5,8,11.9c1.7,2.3,3.7,4.5,5.9,6.6
		c-5.2,19.9-6.5,41.2-2.7,61.6c1.3,8,7.7,14.7,6.4,23.2c0.1,12.7-5.9,24.3-9.2,36.3c-2.2,8.1-5.4,15.9-8.1,23.9
		c2.4-2,4.8-4.2,7.2-6.2c0,4.8,0,9.6,0.3,14.5c3,4.7,3.9,10.2,4.4,15.6c-6.8,0.2-14.2-0.3-20.3,3.3c-7.1,4.5-13.1,11.1-16.5,18.7
		c-2.8,11.6-6.8,23.7-4,35.8c6.2,9.2,18.3,10.8,28,14.3c10.5,4,21.8,3.8,32.6,6.4c19.2,2.7,36.6-7.8,54.9-11.3
		c4.9-5.6,11.5-9.1,17.2-13.6c7.6,6.6,15.2,13.7,24.8,17.1c13.5,4.8,26.9,10.2,40.9,13.7c17.1,3.9,33.6-3.6,50.4-5.6
		c6.6-4.1,17-6.5,17.9-15.7c0.1-12.2-3.6-24.3-8.1-35.5c-8.9-9.2-21.9-15.6-34.9-15.2c-0.1-6.6,0-13.3,1-19.9
		c1.4,2.5,2.9,4.9,4.2,7.4c1-0.1,1.1-0.1,2.2-0.2c1.9-6,3.6-12.1,2.9-18.4c2.4,0.1,4.9,0.2,7.3,0.3c-4.4-6.2-8.2-13.1-10.1-20.6
		c0.2-6.9-1.1-13.3-3.2-20c-1.1-5.8-2.1-11.5-1.2-17.4c1.5-5.9,4.4-11.3,5.7-17.2c4.1-18.7,3.3-38,1.2-56.9
		c3.2-3.9,9.6-3.5,14.3-4.3c-0.3-0.8-1-2.6-1.4-3.5c2.2-2.2,5.7-3.7,6.3-7c0.1-0.5,0.2-1,0.3-1.6c2.8-5.9,3.5-13.8,3.1-22.3
		c0.7-11.5,0-23.2-2.8-34.4c-2.1-6.9-5.4-13.2-9.5-18.9v0c-1.1-1.6-2.3-3.1-3.6-4.6c0.6-3.7,1.2-7.4,1-11.2c0-0.8,0.2-1.5,0.5-2
		c-0.6-0.2-1.2-0.3-1.8-0.5c0,0,0,0-0.1,0c0.6-4.8,1.4-9.5,1.9-14.3c1.2-1.4,2.4-2.9,3.5-4.5c1.6-0.4,3.5-0.3,5.1-0.6
		c-0.4-0.4-0.9-0.8-1.3-1.2c-0.8-0.2-1.5-0.3-2.3-0.4c3.9-5.6,7.5-11.4,11.2-16.9c0.8,0.2,2.5,0.7,3.3,1c0.9-9.9,4.9-19.3,5.4-29.3
		c2.4-0.9,4.8-1.8,7.2-2.7C437.8,224.6,434.5,212.1,433,202.5z M226.7,87.7c-0.1,0.4-0.2,0.9-0.2,1.3c-0.3-1.7-0.4-3.4-0.3-5v0.1
		C226.8,85.1,227,86.3,226.7,87.7z M231,139.3c2.3-7.2,4.3-14.5,6.8-21.6c0.9-0.7,1.8-1.4,2.7-2.2c-0.6-0.7-1.2-1.3-1.8-2
		c2.5-0.3,6.7-3.4,8.3-4.6c1.7-1.2,3.3-2.4,4.9-3.6c1.4-1.1,4.5-2.5,5.2-4.1c0.2-0.4,0.3-0.7,0.4-0.8c-0.2-0.6-1.3-1.5-2.2-2.1
		c0,0.1,0.1,0.2,0.1,0.2c-0.3,0-0.5,0-0.8,0c-1.7-1-3.2-2.3-4.5-3.8c0.7,1.5,1.6,2.8,2.7,4c-0.6,0-1.3-0.1-1.9,0.1
		c-2.3-1.5-4.3-3.5-6-5.7c-1-1.2-1.7-2.7-2.7-4c0.3,3.3,1.8,6.2,3,9.1c-6.7-5.4-9-14.3-9.9-22.4c-0.8,3.6-0.2,7.3,0,11
		c-2.4-5.5-2.4-11.7-1.2-17.6c-0.1-0.5-0.3-1-0.4-1.6c-0.8,0.9-1.5,1.9-2.1,2.8c0.2-1.7,0.8-3.3,1.7-4.7c0-0.2-0.1-0.3-0.1-0.5
		c1.3-2.2,2.8-4.2,4.4-6c-0.5,0-0.9-0.1-1.3-0.1c-0.1-0.1-0.2-0.2-0.3-0.3c3.2-1.9,6.9-3.2,10.7-2.9c9.6-0.7,15.6,7.9,22,13.5
		c0.2,1.2,0.5,3.5,0.7,4.6c1,0.1,3.1,0.3,4.1,0.4c0.3,1,0.6,2,0.9,3c0.1,0,0.3,0,0.4,0c1.2,0,2.1,0.4,2.8,0.9
		c0.2-1.4,0.5-2.7,0.7-4.1c17.3-5.2,36-4.7,53.4-0.5c-0.2,0.1-0.3,0.2-0.4,0.3c1.3,0.1,2.6,0.2,3.9,0.5c2.8,0.7,5,1.8,6.7,3.4
		c0.3-0.4,0.7-0.8,1-1.3c7.3,1,14.5,2.9,20.7,6.9c0,1.2,0,2.4,0,3.7c1.2,0,2.2,0.4,2.9,1.1c1.6-3.5,3-7,4.1-10.7
		c0.3,0.5,0.6,1.1,1,1.8c0.4-0.4,0.9-0.7,1.5-0.9c0.9-0.4,1.7-0.7,2.6-1c6.4-7.2,19.4-10.1,28.1-6.2c1-0.3,2.2-0.2,3.4,0.6
		c3.5,2.2,5.9,5.2,7.5,8.7c-0.2-0.2-0.3-0.4-0.5-0.6c-0.1,0.5-0.2,1-0.4,1.6c1.2,5.8,1.3,12-1.2,17.6c0.2-3.7,0.8-7.4,0-11
		c-0.9,8.2-3.2,17-9.9,22.4c1.3-2.9,2.8-5.9,3-9.1c-1,1.3-1.6,2.8-2.7,4c-1.6,2.2-3.7,4.2-6,5.7c-0.6-0.2-1.2-0.1-1.9-0.1
		c1-1.2,2-2.5,2.7-4c-1.3,1.5-2.8,2.8-4.5,3.8c-0.3,0-0.5,0-0.8,0c0-0.1,0.1-0.2,0.1-0.2c-0.9,0.7-2,1.6-2.2,2.1
		c0.1,0.2,0.2,0.4,0.4,0.8c0.7,1.6,3.8,3,5.2,4.1c1.6,1.2,3.2,2.4,4.9,3.6c1,0.7,3,2.1,4.9,3.2c-0.3,0.6-0.6,1.2-0.8,1.7
		c0.3,0.8,0.7,1.5,1.2,2.3c0.6,0.9,0.8,1.9,0.8,2.7c3.1,11.2,2.3,23.8,4.8,35.1c-0.6-0.2-1.2-0.3-1.8-0.5c-5.3-1-10.3-3-15.5-4.3
		c-2.1-0.4-4.2-0.8-6.3-1.2c2-7.9-6.8-5.2-10.6-5.6c-11.3,0.2-22.3-1.9-33.1-4c-1.9-0.5-3.3,1.1-4.7,1.9c0,3,1.5,5.7,3.9,7.8
		c2.4,0.4,4.8-0.5,7.2,0.1c-8.9,1.4-17.8,3.2-26.8,3.8c-1,0.1-2.1,0.1-3.1,0.2c-5-0.1-26.8-2.7-31.5-3.7c-7.1-1.4-14.1-3.7-21.3-4.9
		c-7-1.2-14.1-2.5-21.2-2.9c-5.5-0.4-11.1-0.1-16.6,0.6c-3.9,0.5-7.9,1.2-11.8,1.9C224.1,150.9,228.3,145.5,231,139.3z M340.1,196.8
		c10.3,1.8,15.5,6.4,25.6-0.6c-0.9,3.2-3,5.7-4.5,8.6c4-2.4,6.3-6.8,9.4-10.2c-1,5-4.7,8.6-7.6,12.5c4-1.7,6.4-5.7,9.5-8.6
		c-0.9,3.6-3.6,6-5.6,8.9c8.7-3.7,12-12.5,15.6-20.8c2.6-6.1,9.4-3.2,13.4-0.4c-8.3-24.5-36-12.3-53.2-7.4
		c-4.7,1.4-9.8,2.5-14.6,2.1c0-2.7,0.7-5.4,2.3-7.6c2-2.8,5.1-4.6,8.2-5.9c4.2-1.7,8.6-2.7,13-3.5c1.9-0.3,3.8-0.5,5.8-0.6
		c8.2-0.5,16.4,0.6,24.5,1.9c4.4,0.7,8.9,1.7,12.8,3.9c2.7,1.5,4.9,3.8,5.9,6.7c0.9,2.5,0.7,5.3,0.6,7.9c-0.5,7.6-2.7,15.1-5.3,22.2
		c-1.2,3.2-3,6.2-5.4,8.6c-2.6,2.7-5.9,4.6-9.4,5.7c-1.9,0.6-3.9,0.9-5.9,1.2c-8.3,1.2-17.1,0.5-24.8-3.1c-2.5-1.2-4.9-2.7-7-4.5
		c-0.3-1.1-0.7-2.2-1-3.3c-2.1-4.1-5.2-7.8-8.9-10.8c-0.5-1.1-0.9-2.2-1.4-3.3c0.2,0.1,0.5,0.1,0.7,0.2c0.7,0.2,1.3,0.4,1.9,0.7
		c4.5,1.1,8.6,3.5,12.8,5.4C345.5,199.9,342.6,198.6,340.1,196.8z M342.3,188.1c1.1-1.8,3.3-2.2,5.1-2.9c6.5-2,13-3.9,19.6-5.8
		c1.7-0.4,3.5-1,5.3-0.5c1.8,0.4,1.3,2.7,0.4,3.8c-2.8,4.1-7.3,6.6-11.8,8c-5.2,1.5-10.8,1.9-16,0.3
		C343.7,190.5,341.9,189.8,342.3,188.1z M326.8,195.1c-7.8-4.2-17.3-6.3-26.5-5.6c-2.7,0.4-5.4,1-8.1,1.9c0.6-1.9,1.2-3.9,1.8-5.8
		c2.4-2.2,8-6.2,14.2-5.7c0,0,9.7,2.4,15.1,4.6c1,1.8,1.6,3.8,2.1,5.8C325.8,192,326.3,193.6,326.8,195.1z M217.7,172
		c0.2-2.7,1.3-5.4,3.2-7.3c1.7-1.8,3.9-3,6.2-3.8c3.5-1.3,7.1-1.8,10.8-2.2c3.5-0.3,7.1-0.6,10.7-0.8c7.5-0.3,15.2,0,22.5,2.1
		c4.4,1.2,8.8,2.6,12.7,5.1c2.6,1.7,5,3.9,6.1,6.8c0.6,1.6,0.9,3.3,0.9,5c-5.1,0.4-10.3-0.7-15.3-2.1c-18.1-4.8-47.2-17.1-55.9,7.4
		c4.2-2.9,11.4-5.7,14.1,0.4c3.8,8.4,7.3,17.2,16.4,20.8c-2.1-2.9-5-5.3-5.9-8.9c3.3,2.9,5.8,6.9,10,8.6c-3-3.9-6.9-7.4-8-12.5
		c3.2,3.4,5.7,7.8,9.9,10.2c-1.5-2.9-3.7-5.5-4.7-8.6c10.7,7.1,16.1,2.4,26.9,0.6c-2.6,1.8-5.6,3.2-7.6,5.7
		c4.4-1.9,8.8-4.3,13.4-5.4c0.6-0.3,1.3-0.6,2-0.7c0,0,0,0,0.1,0c-0.3,0.6-0.6,1.2-0.9,1.9c-0.1,0.2-0.2,0.3-0.2,0.4
		c-3.5,2.1-6.8,4.8-9.6,8.3c-2.7,3.1-4.9,6.3-6.8,9.7c-5.7,2.8-12.1,3.9-18.4,3.7c-4.6-0.2-9.1-0.9-13.5-2.2
		c-5.4-1.7-10.1-5.4-12.8-10.4c-1.7-2.9-2.6-6.2-3.5-9.5C218.4,187.1,217.1,179.5,217.7,172z M273.2,187.1
		c-5.4,1.7-11.4,1.2-16.8-0.3c-4.8-1.4-9.5-3.9-12.5-8c-0.9-1.1-1.4-3.4,0.5-3.8c1.9-0.4,3.7,0.1,5.6,0.5c6.9,1.9,13.8,3.8,20.6,5.8
		c1.9,0.7,4.2,1.2,5.4,2.9C276.4,185.9,274.4,186.6,273.2,187.1z M279.1,204.3c-1.5,1.9-3.3,3.6-5.2,5.1
		C275.5,207.5,277.2,205.9,279.1,204.3z M292.4,614.5c-8.7,6-17.5,12.6-28.2,14.3c-3.7,1-7.4,1.8-11.1,2.4c-1.7,0.8-3.5,1.5-5.3,2.1
		c-1.5,1.4-3.5,2.3-6.2,2.4c-5.1,3.4-11.2,3.6-17.2,2.9c0.2-0.1,0.4-0.2,0.6-0.3c-3.9,0-7.6-1.1-11.2-2.6l-2.3-1
		c-0.2,0.4-0.4,0.7-0.6,1.1c-2.3-0.5-4.5-1.1-6.8-1.7c0,0,0-0.1,0-0.1c1.3-5.8,2.3-11.7,3.8-17.4c0.6-2.4,1.5-4.9,3.2-6.7
		c1.7-1.7,4.1-2.8,6.5-2.1c1.3,0.4,1.9-1.7,0.6-2.1c-2.5-0.8-5.2-0.1-7.3,1.5c-2.3,1.7-3.6,4.1-4.5,6.7c-1,2.9-1.5,6-2.2,9.1
		c-0.8,3.5-1.5,6.9-2.3,10.4c0,0.1,0,0.1,0,0.2c-0.3-0.1-0.6-0.2-0.9-0.2c0.1-0.6,0.2-1.3,0.4-1.9c-3.6-0.3-7.2-0.9-10.7-1.7
		c-0.2,0.3-0.3,0.5-0.5,0.8c-3.2-0.9-6.5-1.7-9.7-2.5c0.1-0.4,0.1-0.7,0.2-1.1c-1.1-0.4-2.2-0.9-3.2-1.5c1.7-5.5,3.3-11.1,5.3-16.5
		c1.6-4.5,4-9.6,8.7-11.6c1.3-0.5,0.7-2.6-0.6-2.1c-5.1,2.1-7.9,7-9.8,11.9c-1.1,3-2,6-3,9c-0.8,2.6-1.7,5.3-2.5,7.9
		c-0.1-0.1-0.2-0.2-0.3-0.3c-1.3-0.7-2.5-1.3-3.7-2c-0.5,0.8-1,1.7-1.5,2.6c-0.6-0.3-1.2-0.6-1.7-1c-4.2-13-0.3-26.7,3.8-39.1
		c4.7-8.6,14-15.7,24.2-15.2c10,1.9,19.2,6.1,28.6,10c4.3,1.8,8,5,12.8,5.3c-7.9-9.8-20.1-13.8-31.1-18.9
		c-0.2-6.4-0.2-12.8,0.2-19.2c1.6,2.7,3.2,5.5,4.7,8.3c3.9,2.5,7.8,5,11.7,7.5c-2-4.5-3.8-9.2-5.2-14c1.1-2.1,2.2-4.2,3.3-6.3
		c10.2,1.6,20.6,3,30.9,1.8c14.9-1.7,29.8-3.1,44.6-4.1c-0.1-3.2-0.2-6.3-0.3-9.4c0,0,0,0,0.1-0.1c1.1-1.3,1.3-3.3,0-4.6
		c-0.1-0.1-0.1-0.1-0.2-0.2c0-0.1,0-0.3,0-0.4l1.1-0.4C298.9,554.6,299.5,585.1,292.4,614.5z M215.6,548c0.4-0.2,0.8-0.4,1.1-0.7
		c-0.1,0.7-0.1,1.3-0.2,1.8C216.2,548.7,215.9,548.4,215.6,548z M320.4,330.3c11.5-0.4,23.3,3.3,33.5,7.9c6,2.7,12.2,6,17.4,10.3
		c-0.1,23.4-40.4,51.8-40.4,51.8c-3.9-1.9-7.8-3.9-11.6-5.9c-12.3-8.4-24.3-17.1-36.3-25.9c-6-4.4-10.5-10.6-16.8-14.6
		c-4.1-2.8-7.7-6.2-11-9.9c-2.8-1.5-5.7-2.9-8.5-4.4c2.5-1.8,5.1-3.4,7.7-4.9c1.6-0.3,3.1-0.6,4.5-1c6.2-1.5,11.8-4.5,17.8-6.6
		c4.5-1.6,9.1-2.7,13.8-3.4c11.6-0.3,23.1,1.3,34.4,4c-1.7,0.8-3.4,1.8-5.1,2.7C320.1,330.3,320.2,330.3,320.4,330.3z M274.7,367
		c-0.8-0.4-1.2-0.6-1.2-0.6c-0.2-0.4-0.5-0.8-0.9-1.1c0,0,0,0,0-0.1C273.3,365.8,274,366.4,274.7,367z M269.7,362.7
		c-0.4-0.1-0.8-0.1-1.3,0c-0.6-1-1.3-2-2-3C267.5,360.7,268.6,361.7,269.7,362.7z M249,345c-0.1,0-0.2,0-0.3,0
		c-0.5-0.4-1.1-0.8-1.6-1.2C247.7,344.1,248.3,344.5,249,345z M276,368.1C276,368.1,276,368.1,276,368.1
		c15.7,12.8,33,23.5,48.7,36.3c1.4-0.2,4.1-0.4,5.5-0.6c4.7,2.8,9.3,5.6,13.7,8.7c-8.6,2.9-17.6,4.9-26.7,5.2c-0.1-1.5,0.6-3,1.6-4
		c-3,0-5.9,0.3-8.9,0.7c-3.3,0.4-6.6,1.1-9.9,1.9c-4.6-0.2-9.2-0.3-13.9-0.4c-10.2-0.7-20.4-1.5-30.6-2.6c-4.1-0.9-8.1-2.2-12-3.9
		C243.1,394.8,243.8,351.8,276,368.1z M300.3,520.2c-1.3,0.3-2.6,0.7-3.9,1.2c0-0.2,0-0.3,0-0.5c-1.1,0.4-2.2,0.8-3.2,1.2
		c-0.5-0.5-1-1-1.6-1.5c1.9-0.4,3.8-0.9,5.6-1.4c4.3-1.2,8.5-2.7,12.7-4.3c0,0,0,0.1-0.1,0.1c-0.7,0.2-1.3,0.6-1.7,1.2
		c-0.6,0.8-1.2,1.6-1.7,2.5c-2.1,0.3-4.1,0.5-6.2,0.8C300.3,519.7,300.3,519.9,300.3,520.2z M391.2,552.5c0.2-2.4,0.4-4.9,0.6-7.3
		c0.7-0.3,1.3-0.5,1.7-0.7c-0.4,3.9-0.7,7.8-1,11.8c-1.5-2.2-3.1-4.5-4.6-6.8c-2.4,4.6-4.7,9.1-7.1,13.7c-3.5-4.1-6.9-8.3-10.5-12.4
		c-1.3,0.2-3.9,0.5-5.1,0.6c5.9,5.9,12.8,12.5,11.1,21.7c2.3-1.4,4.6-2.9,6.9-4.4c0,3.2,0,6.4,0,9.6c-8,2.3-17.8,3-23.1,10.2
		c13-3.2,26.5-8.3,40-4.1c7,3.6,15.2,6.8,19,14.1c4.6,9.4,6.3,19.9,5.2,30.2c-0.4-1.2-0.8-2.4-1.2-3.6c-0.7,1.9-1.7,3.7-3,5.2
		c-2.5-5.5-4.9-11.1-7.6-16.6c-2.2-4.4-5.2-8.7-10-10.6c-1.3-0.5-1.9,1.6-0.6,2.1c4.6,1.7,7.1,6.3,9.1,10.4c2.6,5.3,5,10.8,7.4,16.2
		c-0.4,0.3-0.7,0.6-1.1,0.9c-0.8,0.6-1.7,1.2-2.7,1.7v0.6c-0.9,0.3-1.9,0.5-2.8,0.7c-4.1,1.7-8.6,2.6-12.9,3.4
		c-0.3-1.8-0.5-3.6-0.8-5.4c-0.4-2.8-0.7-5.6-1.3-8.3c-0.9-4.1-2.7-8.3-6.9-9.8c-1.3-0.5-1.9,1.6-0.6,2.1c3.8,1.3,5,5.9,5.6,9.5
		c0.7,4.1,1.3,8.2,1.8,12.4c-0.9,0.2-1.8,0.3-2.8,0.5v0.2c-3.2,0.8-6.5,1.6-9.7,2.5c0-0.1-0.1-0.3-0.1-0.4c-0.8,0.2-1.6,0.5-2.3,0.8
		c0.4,0.6,0.1,1.7-0.9,1.7c-0.9,0-1.8,0-2.8,0.1c-0.2,0.2-0.5,0.3-0.7,0.4c-0.6,0.4-1.2,0.1-1.4-0.4c-0.9,0-1.7,0-2.6-0.1v0.1
		c-3.4,0.3-6.9,0.5-10.3,0c-12.7-3.6-24.8-8.8-36.8-14.1c-10-4.1-22.7-6.3-27.8-17.1c-2.2-9.6,2.9-19.1,2.5-28.8
		c-0.8-15.3,1-30.6,1.1-45.8c16.3-1,32.6-1.4,48.9-1.4c13.7-1.7,21.4,8.7,31,16.5c1.4-2.7,2.8-5.4,4.2-8.1c0.3,0.2,0.6,0.4,0.9,0.5
		C388.6,548.6,389.9,550.5,391.2,552.5z M432.1,224.2c-1.7-4.8-2.9-10.5-8.5-11.8c2.4,12.2,3.7,25.1-0.7,37.1
		c-3.9,8.8-6,18.6-12.7,25.7c-1.6,2.2-3.3,4.4-5.1,6.4c-3.9-0.5-7.8-0.9-11.7-1c-8.6,6.9-18.8,12.1-28.5,17.7c0.1,0.4,0,0.8-0.2,1.2
		c-2.5,4.5-6.3,8.2-10.4,11.5c-1.6,0.2-3.3,0.4-4.9,0.5c-0.3,0.7-0.8,2.1-1,2.8c0.4,0,0.9,0,1.3,0c-5.5,3.9-11.1,7.4-17.3,10.2
		c-14.9-3.5-30-5.7-45-4.2c-6.7-3.6-12.8-8.1-18.9-12.8c-0.8,0-1.4-0.9-1.9-1.5c-4.8-4.1-9.1-8.7-12-14.3c-0.2-0.4-0.3-1-0.2-1.4
		c-10.7-6.6-21.9-12.9-31.3-21.2c-4.6,0.1-9.3,0.6-13.9,1.4c-0.3-0.6-0.7-1.3-1-1.9c-0.8,0.1-1.7-0.2-2.4-0.8
		c-3.9-3.5-7.4-7.9-8.7-13c-2.2-4.6-3.6-9.6-4.8-13.7c-2.9-10.3-5.5-22.1-4.2-32.9c-0.9-0.7-1.5-1.8-1.3-3.2
		c0.9-6.4,3.5-12.8,6-18.8c2.1-4.9,5-12.3,10.2-14.7c0.9-0.4,2-0.4,2.9-0.1c0.3,0,0.5,0,0.8,0.1c1.7,0.3,3.3,2,2.9,4
		c0.8,1.2,1.5,2.4,1.8,3.8c1.9,9.2,4.7,18.3,8.4,27c1.8,4.1,5.4,7.2,9.3,9.2c7.3,3.9,15.7,5.4,24,5.4c3.2,0,6.3-0.2,9.4-0.7
		c1-0.2,2-0.4,3-0.7c-1.8,4.6-2.9,9.4-3.2,14.2c1-5,2.7-10,5.2-14.8c2.1-0.7,4.2-1.7,6.1-2.9c3.1-1.9,5.8-4.4,8.2-7.1
		c-0.5,1.6-0.7,3.4-0.2,5.4c5.8,11.6,15.5,23.3,25.2,23.3c11.6,0,17.4-15.5,24.3-25c-3.7-4-7-9.3-12.7-10.4
		c-9.6,4.4-15.4,0.5-25.1,0.5c-2.5-0.8-5.3-0.2-7.6,1.3c1.3-1.9,2.5-3.9,3.7-6c3.8-1.5,7.6-2.3,11.5-2.5c10.4-1.5,20.7,1.4,28.8,6.7
		c2.2,5,5.1,9.7,9.1,13.5c1.8,1.8,3.9,3.3,6.1,4.6c0.9,2.5,1.4,5.1,1.4,7.6c0.8,5.2,0.5,10.8-0.7,16.1c-0.1,0.6-0.2,1.2-0.3,1.8
		l2.6-0.3l0.8-0.1c1.7-8.7,1.4-17.3-2.4-24.4c0.4,0.2,0.8,0.4,1.2,0.6c4.4,2.1,9.2,3.5,14.1,4.1c8.2,1,16.7,0.1,24.2-3.4
		c5.3-2.5,9.9-6.4,12.9-11.5c2.2-3.7,3.6-7.9,4.8-12c1.2-4.1,2.3-8.2,3.7-12.2c1-2.6,2.3-5.3,4.7-6.9c0.7-0.5,1.7-0.8,2-1.7
		c0.5-1.4,0.3-2.9,0.3-4.4c-0.1-0.7,0-1.3,0-2c1.8,5.1,4.6,9.8,9.3,13.8c-2,0.4-4,0.8-6,1.3c7.1,4.2,10,11.9,11.1,19.8
		c0.1-0.1,0.2-0.2,0.3-0.3C430.4,211.6,432.2,220,432.1,224.2z"/>
</g>
<path class="st1" d="M199.6,550.4c-0.3-4.8-0.3-9.6-0.3-14.5c-2.4,2.1-4.7,4.2-7.2,6.2c2.7-7.9,5.9-15.8,8.1-23.9
	c3.4-12,9.3-23.6,9.2-36.3c1.4-8.4-5.1-15.2-6.4-23.2c-3.8-20.3-2.5-41.6,2.7-61.6c-2.2-2.1-4.2-4.4-5.9-6.6
	c-3.4-3.5-6.7-7.1-8-11.9c-6.3-20.3-4.3-43.2,6.4-61.7c2.9-5.5,6.9-10.1,11.2-14.5c0.3-1.3,0.1-2.5-0.4-3.4c1.1-0.3,2.2-0.6,3.2-0.9
	c0,0,0,0,0.1,0c-0.5-5-1.3-10-1.9-15c-2.2-2.6-4.5-5.2-6.6-7.8c-1-0.1-2-0.1-3-0.3c0.5-0.5,1-0.9,1.5-1.4c0,0,0.1,0,0.2,0
	c-2.1-2.7-4.2-5.4-6.1-8.2c-7.1-17-11.7-35.3-10.6-53.9c-1.1,0-3.2-0.1-4.3-0.1c2-12.1,6.3-23.9,13.6-33.8c-2.9,1.6-5.8,3.1-8.8,4.6
	c4-7.6,10.6-13.2,17.1-18.5c0.3-0.2,0.6-0.4,0.8-0.6c0,0,0,0,0-0.1C119.2,189,57.4,268,57.4,361.4c0,93,61.2,171.8,145.6,198.1
	C202.4,556.3,201.3,553.2,199.6,550.4z"/>
<path class="st1" d="M431.9,238.2c-0.6,0.2-1.3,0.5-1.9,0.7c-0.4,10-4.5,19.4-5.4,29.3c-0.8-0.3-2.5-0.7-3.3-1
	c-3.8,5.5-7.3,11.4-11.2,16.9c0.8,0.1,1.5,0.3,2.3,0.4c0.4,0.4,0.9,0.8,1.3,1.2c-1.7,0.2-3.5,0.2-5.1,0.6c-1.1,1.5-2.3,3-3.5,4.5
	c-0.5,4.8-1.3,9.5-1.9,14.3c0,0,0,0,0.1,0c0.5,0.2,1.2,0.3,1.8,0.5c-0.3,0.5-0.5,1.2-0.5,2c0.2,3.8-0.4,7.6-1,11.2
	c1.2,1.5,2.4,3,3.6,4.6v0c4.1,5.8,7.4,12.1,9.5,18.9c2.8,11.3,3.5,22.9,2.8,34.4c0.4,8.5-0.3,16.4-3.1,22.3c-0.1,0.5-0.2,1-0.3,1.6
	c-0.6,3.3-4.1,4.8-6.3,7c0.4,0.9,1.1,2.6,1.4,3.5c-4.7,0.8-11.1,0.4-14.3,4.3c2.1,18.9,2.9,38.2-1.2,56.9
	c-1.4,5.9-4.2,11.3-5.7,17.2c-0.9,5.9,0.1,11.7,1.2,17.4c1.8,5.6,3,11.1,3.2,16.8c47.7-38,78.3-96.6,78.3-162.4
	C472.5,315.2,457.4,272.6,431.9,238.2z"/>
</svg>
