<?xml version="1.0" encoding="utf-8"?>
<!-- Generator: Adobe Illustrator 25.3.1, SVG Export Plug-In . SVG Version: 6.00 Build 0)  -->
<svg version="1.1" id="Capa_1" xmlns="http://www.w3.org/2000/svg" xmlns:xlink="http://www.w3.org/1999/xlink" x="0px" y="0px"
	 width="800px" height="600px" viewBox="0 0 800 600" style="enable-background:new 0 0 800 600;" xml:space="preserve">
<style type="text/css">
	.st0{fill:#020203;}
	.st1{fill:#CDCCCC;}
	.st2{fill:#FFFFFF;}
</style>
<g>
	<path class="st0" d="M399.3,351.6c-1.2-0.7-2.8,1.4-1.8,2.4C398.9,354.6,400.5,352.6,399.3,351.6z M393.4,354.8
		c1.2,0.6,2.3-1.5,1.5-2.5C393.4,351.1,392.1,354.1,393.4,354.8z M387.9,354.9c-1.5-0.6-1.9,0.2-1.5,1.4
		C387.6,356.8,388.5,356.3,387.9,354.9z M417.9,357.9c-0.1,1.7-0.5,3.2-1.6,4.6c-1.8-1-2.9-2.2-3.5-3.9l-1.8-1.1
		c0.8,2.6,1.8,5.9,4.7,7c2.9,0.1,3.3-3.4,3.6-5.5c-0.3-0.2-0.4-0.3-0.7-0.5C418.4,358.2,418.2,358,417.9,357.9z M410.3,361.7
		l-0.5-0.4c0.7,2.9,3.4,5.2,6.7,5.6C414.8,365,412.6,363.3,410.3,361.7z M383.4,365.8c0.3,0.5,0.5,1.1,0.8,1.8
		c0.7-0.3,1.8-0.7,2.7-1.1l-2.6-1.4c0.5-1.1,1.1-2.5,1.7-3.6c-1.2,1.1-2.2,2.7-3.7,3.5c-0.5-0.8-1.2-1.8-1.8-2.9
		C379.3,364.4,381,366.6,383.4,365.8L383.4,365.8z M429.8,368.5c-0.4,1.9,0.6,3.6,3.2,4.7l0.4,0.3
		C432.6,371.6,432,369.1,429.8,368.5L429.8,368.5z M427.3,372.6c0.7,1,1.4,1.9,2.3,2.9l0.2,0.1c0.5-0.4,1.2-0.7,1.8-1.1
		c-0.8-1-1.8-1.9-2.6-2.9C428.5,371.9,427.8,372.3,427.3,372.6z M375.2,378.2c1.4,1,2.9-1.5,1.8-2.6
		C375.7,374.6,374.1,377,375.2,378.2z M440.1,384.4c-1.4-3.5-3.9-6.2-6-8.2c0,3.3,1.9,7.2,5.6,8.2H440.1z M376,381.4v0.2
		c1.2,0.3,3.4-1,3.3-2.5C378.1,378.2,375.8,380,376,381.4L376,381.4z M410.7,379.6c-0.7,0.7-1.8,1.4-2.5,2.1c-2.9,0.3-6-0.2-8.8-0.6
		c1.2,2.1,3.4,2.9,5.7,2.8c2.2,0,4.2-0.6,5.9-1.1C410.8,381.9,410.8,380.6,410.7,379.6L410.7,379.6z M431.6,380.3
		c0.2,3.3,2.7,6.4,5.7,7.2c-0.7-2.7-2.5-4.9-5.3-7L431.6,380.3L431.6,380.3z M278.4,382.4c-1.1-0.3-2.2-0.6-3.4-1
		c-0.4,1.8,1.1,2.2,2.3,2.7C277.6,383.6,278.1,382.9,278.4,382.4L278.4,382.4z M397,382.3c-2.7,1.4-5.5,0.3-8.2,0
		c1.6,1.9,3.7,2.9,6.1,2.9c0.7,0,1.7-0.2,2.3-0.4C397.2,384.1,397.2,383,397,382.3z M381.6,383.1c0.5,1.1,1.6,2,2.9,2.3
		c1.8,0.3,3.6-0.3,4.9-1.5l-1.8-1.4C385.8,383.8,383.6,383.4,381.6,383.1z M428.5,384.8h-0.3c1,2.7,3.4,4.7,6.2,5
		C433.1,387.4,431.1,384.5,428.5,384.8z M397.7,387.9c2.1-0.3,5.2,0.5,5.2-2.6c-1.8,0.3-3.5,0.4-5.2,0.6V387.9z M403.1,388.4
		c2.5,1.8,6.4,1,6.6-2.4c-1.8,1.2-3.9,2.1-6,2.3L403.1,388.4z M392.6,386.5c-2.2,0.6-4.2,0.8-6.5,0.7c1.1,2.7,4,2.7,6.6,1.8
		L392.6,386.5L392.6,386.5z M377.7,387.5l0.1-0.3c-2.2-0.5-2.9,1.8-3.5,3.5C375.9,390.3,377.1,389.1,377.7,387.5L377.7,387.5z
		 M391.8,391.3l-0.5,0.4c2.4-0.1,6.1,1.1,6.8-2.1C395.6,389.7,393.4,390.3,391.8,391.3z M375.8,393.8l-0.2,0.4
		c2.1-1.2,3.6-2.9,4.3-5.2C378,390,376.3,391.8,375.8,393.8L375.8,393.8z M365.8,389.8l0.1-0.3c-1.8,0.3-3.2,1.2-4.1,2.9
		C363.7,392.4,365.6,391.4,365.8,389.8L365.8,389.8z M363.1,396.4c1.8-0.8,3.6-1.6,4.5-3.4c-1.6,0.4-3.1,0.8-4.5,1.2V396.4
		L363.1,396.4z M354.3,393.4l-0.2-1.1l-0.3,0.5c-1,1.8-0.3,5.2-2.7,5.7c-2.2-0.8-1.1-4.1-1.8-5.9c-1.1,1.2-1.7,3.3-1.2,4.9
		c0.3,1.7,2,3.4,3.7,2.9c1.1-0.4,1.8-1.8,2.2-2.9C354.6,396.4,354.6,394.8,354.3,393.4L354.3,393.4z M341,402.3
		c-0.8,3.2-4.1,5.5-7.7,5.2c-2.2-1.1-2.9-3.5-3.3-4.9c2.6-0.3,5.3-0.4,7.3-2.3c0.1-3.3-4.2-2.7-6.5-2.2c0.7-0.8,1.7-1.4,2.7-1.8
		c-0.4-0.3-1-0.7-1.6-1c0.6-1,2.2-1.1,2.9-1.8l0.5-0.4c-1.7,0.2-3.3,0.3-4.9,0.4v3.3l-0.6-0.3c-0.5,3.8-1.8,8.1,0.3,11.6
		c3.3,2.1,8.1,0.1,10.2-1.6c1,0.6,2,1.1,2.9,1.8c-0.8-1.8-1.8-3.5-2.4-5.2L341,402.3L341,402.3z M376,397.8l-0.4,0.5
		c2.7-0.6,4.9-2.6,6.4-5.2C379.7,394,377.7,395.5,376,397.8L376,397.8z M325,396c-0.8,1.7-1.8,3.3-3.7,3.3c-0.3-1.8-0.6-3.7-1-5.5
		c-0.6,1.8-0.5,3.8-0.4,5.7c0.7,0.8,1.7,1.8,2.4,2.6c3.3-1.6,3.5-5,3.5-7.4C325.5,395,325.3,395.6,325,396L325,396z M402.4,398.6
		l-0.2,0.3c2.2,1.1,4-0.8,4.6-3.1C405.2,396.1,403.8,396.9,402.4,398.6L402.4,398.6z M362.1,398.9c2.1,0.3,4.1,0.3,5.7-1.5l0.3-0.3
		C365.8,396.7,363.5,397.3,362.1,398.9z M354.1,401.9c2-0.3,5-2.7,3.3-4.9C356.1,398.7,355.3,400.3,354.1,401.9z M306.2,457.8
		c-2.6-1.1-1.7,3.3,0.1,3.2c0.5,0,1-0.4,1-1C307.4,459.1,306.8,458,306.2,457.8L306.2,457.8z M298.9,460c0.5,0,1-0.4,1-1
		c0.2-0.7-0.4-1.8-1.1-2.2C296.3,455.7,297.2,460.2,298.9,460L298.9,460z M421.8,403.8l-0.4,0.5c2.5,1.1,3.5-1.4,4.5-3.2
		C424,400.8,422.8,402.5,421.8,403.8z M441.5,403c-1.5,0.5-2.1,1.9-2.6,3.3C440.7,406.2,442.3,404.8,441.5,403z M430.7,406.8
		c1.4,0.2,2.2-2,1.2-2.9C430.3,402.4,428.8,406.2,430.7,406.8z M352.1,440.1c0.4,1.5,3.8,1.2,3.1-0.7
		C354.5,438.3,351.9,438.4,352.1,440.1z M412.1,457.8c-0.4-0.5-1-1-1.4-1.6c0.4-0.6,0.8-1.2,1.2-1.8c-3.8,0.3-7.2,0.3-10.4,0.2
		c0.3,1.9-0.1,4.1,1.1,5.7c1.1,0,2.1-0.4,3.1-0.7c0.4,0.3,1.2,0.8,1.8,1.1l2.2-2.1c1.5,1,3.3,0.7,4.7-0.7c0.5,0.2,1.2,0.3,1.8,0.4
		c-0.4-0.4-1-0.7-1.1-1.2c1.9,1.2,6.3,3.6,10.1,1.4c2-3.6,0.7-7.7,0.3-11.6l-0.6,0.3V444c-1.7-0.2-3.2-0.4-4.9-0.4l0.5,0.4
		c0.8,0.7,2.4,1,2.9,1.8c-0.5,0.4-1.1,0.7-1.6,1c1,0.4,1.9,1,2.7,1.8c-2.2-0.4-6.6-1.1-6.5,2.2c1.9,1.9,4.7,2.1,7.3,2.3
		c-0.3,1.5-1.1,3.8-3.3,4.9c-2.7,0.1-5.2-1-6.6-2.9v-0.4c-0.2-0.5-0.2-1-0.1-1.6c-0.3,0.1-0.5,0.1-0.8,0.2l-0.3-0.6l-0.2,0.7
		c-1,0.2-1.8,0.3-2.7,0.4c0.6,0.4,1.2,1,2,1.4C413,455.9,412.7,456.9,412.1,457.8L412.1,457.8z M402.3,450.9
		c2.2-1.3,3.5-4.1,3.3-6.9c-1.1,1.4-2.1,2.9-3.3,4.2c-1.6,0.2-2.2-1.6-3.2-2.6C398.8,447.7,399.9,449.5,402.3,450.9z M428.8,447
		c1.7-1,2.4-2.9,2.2-4.9c-0.7,1-1.5,2-2.2,2.9c-1,0.1-1.5-1.1-2.2-1.8C426.3,444.9,427,446.1,428.8,447z M312.5,476.6
		c1.6,0,1.5-2.3,0.4-2.9C311,472.7,311,476.3,312.5,476.6z M333.3,503.3c-1.1,0.1-1.8,1.2-1,2.2c0.3,0.4,0.6,0.6,1.1,0.6
		c0.5,0,1.1-0.4,1.2-0.8C335.1,504.4,334.3,503.2,333.3,503.3L333.3,503.3z M350,499.6c-0.1,1.4,0,2.9,0.4,4.3
		C352.7,503.1,351.9,500.5,350,499.6z M354,499.5c-0.4,1.2-0.8,2.7-0.4,4.2C355.9,503.2,355.7,500.6,354,499.5z M333.8,502.2
		l-0.2-2.4c-1,0.2-1.9,0.3-2.9,0.5c0.3,1.5,1.8,1.7,2.9,1.8L333.8,502.2z"/>
	<g>
		<ellipse class="st1" cx="557.4" cy="549.5" rx="83.5" ry="20.6"/>
		<path class="st0" d="M455.4,520.5c-0.3-0.1-0.4-0.2-0.6-0.1c0.1-0.3,0.2-0.4,0.3-0.7c-0.3-1.1,0.3-2.2,1.1-2.9
			c0.4-1.8,0.4-3.4-1.5-4.5c0.4,2.9-0.4,5.7-2.4,7.8c-3.3-11-4.6-22-7.5-32.9c-3.8-13.1-6.2-27.1-7.4-41.3
			c-0.4-4.1-0.7-8.1-3.7-11.1c-1.5-1.1-2.1-2.7-2.8-4.2c-0.6-1.5-1.2-2.9-2.6-4.2l-0.1-0.1c-1.4,0-2.9,0.1-4.3,0.2
			c-0.7,1.5-1.2,2.9-1.5,4.7c-5.7,0.3-11.5,0.1-17.1,1.2c-1-1.6-2-2.9-2.9-4.3c-3.3-0.3-6.2,1.8-6.8,4.7c-0.6,2,0.8,3.6,1.8,5.2
			c-7.6,9.7-13.3,24.1-15.7,37.5c-0.4,2.2-0.7,4.5-1.4,6.7c-0.8-2.6-0.7-5.2-1.1-8c-2.8-15-2.2-30.2-3.4-45.4
			c0.3-6.7-0.4-13.6-1-20.1c-0.3-3.2-0.6-6.4-0.7-9.7c-0.1-3.6-2.2-7.2-1.2-10.9c1-5.5,1.2-11,2.3-16.4c4.5,0.6,9.1,1,12.7-1.7
			c1,1.2,3.3,3.6,5.7,1.8c-0.4-0.8-1-1.8-1.2-2.4c0.4-0.4,0.8-1,1.2-1.4c0.3,1.1,0.6,2.2,1.1,3.3c0.5-2.3,2-5.2,0-7.2
			c1-0.4,1.8-0.8,2.7-1.2c-0.7-0.5-1.6-1-2.3-1.6c-1.4,1.2-3.3,1.7-4.9,2.2c-0.3-1-0.5-2.3-0.7-3.2c2.9-1.2,6.4-1.5,9.7-0.5
			c0.6,2.8,0.7,5.9,3.1,7.8c4.7,4.9,11.9,5.2,15.8,4.7c8.7-0.8,13.3-7.4,11.1-15.5c0.3-0.3,0.8-1,1.1-1.2c5.5,8.7,9,17.8,12,27.1
			c1.6,4.3,3.2,8.8,3.7,13.6c-16.5,7.5-33.7-9-46.5-3.5c-5.5,3.6-9.5,8.8-15.2,12.2c-2.8,1.4-5.7,2.1-8.7,3.3
			c0.1,3.2,2.7,5.6,5.2,6.7c2.5,0.4,4.9,0,7.6-0.6c0.5,1.5,0.1,3.6,2,4.2c2.7,1.2,5.2-0.4,7.3-1.8c0.3,2.2,0.6,5.9,3.7,5.7
			c3.1,0.5,4.9-2.2,7-3.9c0.4,1.6,0.5,3.3,1.6,4.6c1,1.8,3.2,0.8,4.9,1c1.1-1.2,2.3-2.7,3.7-4.3c0.6,2.2,1.6,4.1,2.7,5.6h2.8
			c1.2-1.7,2.6-3.3,4.2-5.5c0.3,1.8,1.8,5.2,4.5,4.3c1.1-1,2.1-2.2,2.9-3.4c0.7,1.1,1.1,2.9,2.7,3.4c1.2,0.6,2.9,0.5,3.6-0.7
			c3.8-4.7,5.2-10.7,6.8-16.4c1.6,4.1,2.1,8.2,2.9,12.4l2-1.2c-1.1-5.1-2.5-10-3.3-15.2c0.4,0,1,0.1,1.4,0.1
			c-0.2-0.4-0.3-0.8-0.3-1.2c-0.1-0.4-0.2-0.7-0.2-1c-0.4,0-1,0-1.3,0.1c-1.8-8.2-4.5-16.2-6.7-22.1c0.2-0.2,0.4-0.3,0.6-0.4
			c-0.3-0.6-0.4-1.2-0.3-1.9c0-0.3,0-0.6,0.1-0.8c-0.4,0.3-0.7,0.4-1,0.6c-1.8-4.2-3.3-8.7-4.9-13.1c0.3-0.2,0.4-0.2,0.6-0.3
			c-0.6-0.7-0.8-1.8-0.7-2.9c-0.3,0.2-0.6,0.2-1,0.3c-1.4-2.6-2.9-4.9-4.2-7.4c0.8-0.5,1.8-1.2,2.9-1.2c3.3-0.3,5.3,3.1,7.7,5
			c-0.3-2.9-2.8-5.5-4.9-6.7c-2.5-1.4-5,0.2-7.4,1c-1-1.2-1.8-2.6-2.7-4c0.5-4.7,0.5-9,0.1-13.2c0.1,0,0.2-0.1,0.2-0.1
			c-0.3-0.7-0.3-1.6-0.2-2.3c-0.3,0.2-0.6,0.2-1,0.3c-0.2,1.2-0.8,2.5-2.1,3c0.4-0.1,0.7-0.2,1.1-0.3c-2.7,3.7-4.9,6.7-6.8,9.5
			c-0.1-0.2-0.1-0.3-0.2-0.4c-0.6,0.7-1.6,1.2-2.9,1.2c-0.4,0-0.9-0.1-1.2-0.3c-11.5,1.4-22.9,3.6-34,5.7c-1-1.1-1.7-2.5-1.9-3.9
			c-3.5,0.2-5.3-3.3-7.7-5.2c-0.3,0.7-0.5,1.2-0.8,2v0.2c1.1,4.3,3.5,8.2,5.2,12.5c-1.1,2.5-4.7,2.8-6.8,4.1
			c-0.3,2.2-0.7,4.6,0.1,6.7c1,1.4,2.2,2.5,3.2,3.9c-0.1,5.3-1.1,10.6-1.8,15.9c-0.4-0.5-1-1.1-1.5-1.8c0.3-2.2,0.3-4.3,0.3-6.7
			c-3.7-1.8-6.1,1.9-8,4.6c-1.5-0.2-2.9-0.3-4.2-0.4c-0.5-1-1.1-2.1-1.8-3.1c2.1-2.2,3.4-4.7,3.9-7.2c-5.7-3.6-12.7,1.5-14.8,3.3
			c-1.9-0.3-4.1-0.3-5.7-1.2c-2.9-1.6-6.2-2.4-10.1-2.6c-1.8,0.1-2.9,1.8-4.1,3.3c0.8-0.2,1.8-0.3,2.6-0.5c4.7-1.6,8.7,0.7,12.5,3.3
			c-0.5,2.1-1,4.1-1.4,5.9c-1.2-0.5-2.6-1-3.9-1.5l0.3,1.8c-1.5-0.3-2.9-0.7-4.2-1.1c1-0.7,2.1-1.7,3.3-2.5
			c-2.4-1.5-5.5-2.2-6.8-4.9c-0.5,0.4-1.1,1-1.8,1.4c1,1.1,1.8,2.2,2.7,3.3c0,1.6,0,3.1,0.1,4.3c-2.6,0.2-5,0.4-7.6,0.3
			c-0.5-0.3-1.1-0.7-1.6-1.1c-1-1-1.9-1.8-3.3-1.8c-2.5,1-2.9,3.9-3.2,6.4c-0.3,4.7-1,9.4-1.5,14c-0.7,6.3-0.4,12.5-1.2,18.9
			c-6-5.5-8.7-13.8-15.5-18.3c-2.9-2.1-6.6-2.2-10-2.8c0.1-1,0.2-1.9,0.3-2.9c1.9-0.7,3.9-1.5,5.7-2.4c-1.4-0.8-2.9-1.7-4.2-2.4
			c0.2-2,0.4-4.1,0.3-6.2c-0.6-3.5-2.9-6.7-6.1-8.5c-2.3-1.1-4.3,0.4-6.2,1.7c-1.1,0.8-2.7,0.2-4.1,0.3c0,0.5,0.1,1.5,0.1,2.1
			c-0.7,1.2-1.1,2.9-1.2,4.6c0.7-0.6,1.4-1.2,2.1-2c-0.1,0.2-0.1,0.3-0.2,0.3c0.3,1,0.4,1.8,0.5,2.8c1.1,6.6,1.8,8.7,8.8,9.7
			c0.3,1.2,0.6,2.6,1,3.9c-2.9,1-5,4.9-4.2,7.7c2.4,2.9,6.2,2.7,9.2,4.1c5.5,7.2,8.4,15.9,15.3,21.8c2.1,1.9,4.2,4,7.1,4.5
			c-0.1,1.4-0.3,2.8-0.4,4.2c-3.7,0.6-8.2,1.9-10.8,5.5c-2.7,3.6-4.6,7.7-5.5,12c-1.4,6.1,0,12.2,0.4,18.2
			c-6.5,0.3-11.3,1.8-14.8,4.9c-2.9,2.2-4.2,5.7-5.5,9c-6.3,1.3-13.6,3.5-18.8,8.2c-6.8-2.9-14.5-4.9-22.7-5.7
			c0.1,0.7,0.3,1.3,0.3,2c11.7,1.1,23.7,4.7,34,12.6l1.5-1.8c-3-2.4-6.4-4.4-10-6.3c5.2-3.3,11.4-7,18.4-7.4
			c7.4-0.7,15,3.3,18.6,9.8c1.8,3.3,1.4,7.1,1.7,10.7c-2.8,0.1-4.2,2.3-5.6,4.3c-1.5,2.2-2.8,4.2-5.6,4.1c-3.2,0.2-5.3-2.6-8.1-3.6
			c-2.4-0.8-4.1,1.4-5,2.6c1.8,0.4,3.5-0.6,5.2-1.2c3.3,2.1,6.7,4.7,10.8,4c2-1,3.2-2.8,4.2-4.5c1.1-1.8,2.1-3.3,3.9-4.2
			c-0.1,3.3-1.5,6.2-1.9,9.2c1.5-0.2,1.8-1.8,2.5-2.9c1.5,2.8,4.9,2.1,7.4,2.2c0.1-0.3,0.2-0.6,0.2-0.8c-2.9,0.4-6.5-0.6-7-3.7
			c0.4-2.9,1.8-5.5,1.9-8.2c0.2-2.7-0.7-5.3-1.8-8.1c3.7-1.5,9.1-2.7,13.7-0.4c6.3,2.6,11.6,8.5,14,15.8c-0.2,0.2-0.4,0.4-0.5,0.7
			c-5,1.1-10,2.7-12.6,6.8c1.5-0.3,2.9-0.5,4.2-1.4c6-4,13.3-4.2,20.6-4.2c4.9,0.1,9.1,2.3,13.7,2.9c-0.8-5.2-2.2-10.4-2.9-15.6
			c1,0.8,2,1.8,3.2,2.9c0.3,4.2,1.1,8.7,1.8,12.2c0.3-0.3,0.7-0.7,1.1-1c-0.4-3.5-0.7-7-1.1-10.6c1.1,0.3,2.9,0.2,3.1,1.2
			c0.4,3.3,0.7,6.7,1.8,10c4.5-4.1,8.2-9.1,13.7-11.7c3.5-1.7,8-1.6,13.2,0.2c3.9,1.2,6.4,4.6,9.4,7.3c-0.4,0.4-0.7,1-1.1,1.5
			c0.4,0.3,0.9,0.6,1.2,1c0.2,0.2,0.3,0.3,0.4,0.4c2.7-1.9,6.3-3.2,9.8-1.3c-0.6,2.3-0.8,3.9-1,5.7c2.4-2.9,3.3-6.6,5.5-9.7
			c2.9-4.2,6.2-8.5,10.7-10.7c4.9-2.4,12.1-2.9,16.9,1.4c2.6,1.9,4.5,4.5,6.4,7c2.3,3.1,4.9,6.3,8.4,8.2c1.1,0.3,2.2,0.3,3.5,0.4
			l-1.8,2.6c2.2-0.4,4-1.8,5.3-4c1.7,1.1,2.9,2.1,4.1,3.2C457.7,523.7,456.5,522.1,455.4,520.5L455.4,520.5z M391.9,363.7
			c0.4,0.4,1.1,1,1.6,1.2c-0.3,0.3-0.4,0.5-0.7,0.7c-0.8,1.1-1.8,2.1-2,3.5c-0.1,0.5-0.3,1.1-0.5,1.2c-0.2,0.1-0.3,0.1-0.5,0
			C388,368,390.2,365.7,391.9,363.7L391.9,363.7z M439.6,422.2l-1.7-1.1c0.3-0.4,0.5-0.7,0.7-1.1c1-1.4,1.9-2.8,2.1-4.6
			c-1.4,1-2.2,2.7-3.3,4c-0.2-1.9-0.7-4.5,1.1-5.7c2.2-1.7,4.7-3.6,6.2-6.3c0.3,0.3,0.5,0.6,0.8,1
			C444.6,414,442.5,418.6,439.6,422.2L439.6,422.2z M446.4,397.6c0.4,2.2,0.3,4.3,0.2,6.6c-0.1,0.6-0.2,1.1-0.2,1.8
			c-0.7,0.4-1.6,0.5-2.4,0.4c-2.4,2.2-4.6,4.9-8,5.5c-0.4-2.9-0.1-5.5,1.1-7.7c-3.5,1.8-6.1,4.9-9.7,6.5c-0.4-2.9-0.3-5.7,0.5-8.2
			c-3.8,2.3-7.4,5.3-11.9,6.3c0.2-2.9,1.6-5.5,2-8.2c-3.8,2.2-7.2,5.7-12,5.6c0.1-2.7,1.4-4.9,2-7.4c-2,0.7-4,1.9-5.7,2.9
			c-1.4,0.8-2.8,1.8-4.2,2.4c-0.7-0.1-2.1-0.1-2.8-0.2l-1.1,1.8c3.6,2.6,7-1,10.2-2.5c0.1,1.2,0.2,2.6,0.3,3.9
			c3.3,3.3,7.1-0.2,10.2-1.8c-0.2,1.4-0.3,2.9-0.4,4.2c0.5,0.4,1.5,1.1,2,1.5c3.3-0.7,6.1-2.7,8.7-4.5c0.2,2.4,0.1,5,2.2,6.7
			c2.3-1.1,4.2-2.9,6.2-4.5c0.2,1.1,0.3,2.4,0.4,3.6l2.2,2.2c-1.1,2.3-2.5,4.9-4.3,7c0.3-2.2,0.4-4.6,0.2-6.8c-1.8,1.2-1,3.2-1,4.9
			c-2.1-1-1.4-4.2-1.7-6.3c-3.3,2.7-3.5,8-7.4,9.8c0.6-3.1,2.1-6,1.8-9.2L422,415c-0.2,2-0.3,4.1-1.2,5.9c-0.7-2.5-1.1-5.2-1.1-7.8
			c-1.8,2-2.9,4.2-4.6,6.3c-1,1.1-2.1,2.5-3.7,2.2c1.1-2.9,3.8-5.2,3.6-8.7c-1.8,1.8-2.5,4.5-4,6.7c-1.1-2.2-0.6-4.9-0.7-7.3
			c-3.1,2.5-5.2,7.7-9.7,7.4c2.1-2.8,4.6-5.5,5.2-9.2c-2.2,2.1-3.2,5.2-5.5,7.2c0.2-2.1,0.4-4.1,0.5-6.2c-1.8,0.7-3.3,1.8-4.9,2.9
			c-0.6,0.4-1.2,0.8-1.8,1.2c-0.4,0.5-1.8,1-2.5,0.6c-0.3-0.2-0.4-0.4-0.4-0.7c3.1-2.2,6.4-4.2,8-8c-2.5,1.8-4.5,4.1-7.1,5.7
			l0.5-3.4c-4,0.1-7.3,2.9-11.2,2.9c3.5-3.1,9.7-2.9,11-8.2c-3.8,3.3-8.7,5.2-13,7.5c-0.6-0.7-1.1-1.8-1.8-2.6
			c5.7-1.2,11.2-4.2,16.2-8.7c0.1,1.2,0.1,2.9,0.2,4.1c1.2-1.1,1.5-2.7,1.6-4.2c0-0.5,0.1-1.1,0.2-1.8c2.7-3.3,5.5-5.2,8.2-5.6
			c12,0,22.3,8.1,34.5,6.8C441.6,400.3,444.8,400.3,446.4,397.6L446.4,397.6z M424.4,366.9c-4.6,2.9-11,3.4-17.7,1.4
			c-2.7-0.7-4.9-2.9-5.7-5.7c-0.5-2.5,2.1-3.9,4.1-5c4-1.9,7.7-2.9,11.2-2.9c4.6,0.1,10.9,1.9,10.8,7.4
			C427,364,425.9,365.8,424.4,366.9L424.4,366.9z M374.1,348.1c1.9,1.2,3.3,3.2,4.6,5c3.1,0.1,6.2-0.6,9.2-1.2
			c10.7-2.3,22.1-4.9,34-5.2h0.1c1.2-1.5,2.1-3.5,3.6-4.9c-0.2,1.9-0.5,3.8-0.4,5.7c0.8,2,2.2,3.7,3.3,5.5l-1.2,1.8
			c-4.1-3.4-9.8-4.1-17.6-2.2c-2.7,0.6-5,2.2-7.7,2.9c-0.8,0.8-1.7,1.9-2.6,2.7c-4.3-0.8-8.2-0.7-11.7,0.4
			c-3.8-1.9-6.8-2.8-10.5-2.4C377.4,353.2,375.1,350.9,374.1,348.1L374.1,348.1z M376.6,359.2l0.2-0.1c2.9-0.1,6.1-0.3,8.7,1.6
			c1.2,0.7,2.4,2.2,2.6,3.6c0.1,0.7,0,1.8-1,2.6c-3.6,4.1-9.7,2.9-12.2,2.2C375.4,365.7,375.8,362.5,376.6,359.2L376.6,359.2z
			 M437.7,471.9c-1.4,1.8-4.2,4.9-7.7,4.2c-0.6-0.6-1.1-1.8-0.6-2.7c1.8-2.4,4.2-4.2,7.2-5C437,469.9,437.3,470.8,437.7,471.9
			L437.7,471.9z M428.4,477.9c-2.9,2.3-5.2,5.2-7.7,7.7c1.1-5.2,2.7-10.2,4-15.3c3.4-2.4,6.3-5.5,10-7.7c-0.5,1.7-1.1,3.3-1.8,4.9
			c-0.4,0.5-1,1-1.6,1.4C427.4,471.7,428,473.8,428.4,477.9L428.4,477.9z M417.3,479.1L417.3,479.1c0-3.2-3.9-5-6.7-4.1
			c-1.2,0.5-2.2,1.5-3.3,2.2c-0.8-1.8-1-3.7-1.1-5.6c5.7-0.2,11.2-0.5,16.9-0.6c-1.6,5.3-3.1,10.8-4.5,16.2
			c-2.8,0.7-5.6,1.1-8.2,1.2c1.4-1.9,3.1-3.6,4.1-5.9C414.9,481.2,416.3,480.1,417.3,479.1L417.3,479.1z M437.2,467.4
			c-0.8-0.3-1.8-0.4-2.7-0.5c0.4-1.4,1.1-2.7,2.1-3.7C436.7,464.3,437,465.6,437.2,467.4L437.2,467.4z M370.1,362.5
			c1.1-0.6,2.4-1.2,3.6-1.8c-0.2,0.8-0.3,1.8-0.4,2.7c-0.3,1.5-0.5,2.9-0.7,4.5C370.1,366.8,369.9,364.1,370.1,362.5L370.1,362.5z
			 M346.3,375.8c2.7-2.2,5.9-3.1,8.1-3.4c0.8,0.4,1.7,0.8,2.4,1.4c-1.4,2-3.3,3.6-5.2,5.2c-0.6,0.5-1.2,1-1.8,1.6
			c1.6,0.3,3.4,0.4,4.2,1.8c-3.4,1.2-6.7-2-10.1-0.4C344.5,379.8,344.4,377.1,346.3,375.8L346.3,375.8z M343.8,377
			c-0.4,1.9-0.7,3.9-1.2,5.7c-1,0.4-2,0.6-3.1,0.7C339.7,381.4,340.7,377.7,343.8,377z M277.3,394.9c-1.8-0.4-3.4-1-4-2.7
			c-1.6-3.8-1.6-7.8,0.1-10.8c0.7-1.8,2.7-2.9,4.9-2.9c2.4,1.6,6.3,4.9,6.3,10c-1.8-0.2-3.6-0.4-5.5-0.6c-1,0.6-1.7,1.4-2.3,2.2
			c0.4,1.8,0.7,3.4,1.1,5C277.8,395,277.5,394.9,277.3,394.9L277.3,394.9z M278.3,390.6c0.1-0.5,0.4-1,1-1.4
			c1.4,0.3,2.9,0.4,4.9,0.4c-0.1,1.1-0.2,2.4-0.2,3.6c0.3,0.4,1,1.2,1.2,1.8c-1.7,0.3-3.3,0.3-4.9,0.3
			C279.5,393.8,278.1,392.1,278.3,390.6L278.3,390.6z M282.7,400.3c-0.6-0.1-1.2,0-1.9,0.3v-0.2c0-1,0.1-2.6,0.2-3.6
			C282.7,396.8,282.6,398.8,282.7,400.3z M298.1,428.6c-5.2-5.7-7.4-13.2-12.6-18.6c-2.8-1-6.7-0.7-8.2-3.7
			c2.2-4.2,8.1-4.9,12.5-3.3c9.5,4.1,12.2,14.7,19.6,20.9c-0.4,2.9-0.6,5.7-0.8,8.7c-0.1,1.5-0.2,2.9-0.3,4.3
			C304.1,435.2,301,431.9,298.1,428.6z M304.2,500.3c-3.6,0-6.6,0.4-9.2,1.5c-1,0.7-1.5,0-1.8-0.8c-2.1-3.4-5.3-6.2-9.5-7.7
			c-3.3-1.2-6.7-0.7-10-1.2c3.6-8.1,9.7-11,18.7-11.2C303.5,481.2,309,490.4,304.2,500.3L304.2,500.3z M324.2,520l-1.4-1.1
			c-0.1-2.5-0.2-4.7-1.2-6.6c-3.2-5.5-8.7-9.7-15.3-12c2.1-4.9,0.5-10.6-0.6-13.4c-1.9-4.9-7.1-6.4-11.3-8.7
			c-0.5-3.9-1-8.2-1.1-13.2c0.1-8.7,8.4-21.8,18.4-17.6c4.2,2.5,6,7.8,7.2,11.7c0.8,2.9,2.6,6.2,1,9.1c-3.4,1-7.1,0.3-10.6,0.5
			c0.4,0.4,1,1,1.5,1.6c3.6-0.4,7.4,0.7,10.8-1.4l2.1,9.4c-4.2,1.8-9.4,1-13-2.2c0-2.3,0.5-4.9-1.2-6.7c-1.7,6.5,1.4,12.7,2.7,19.1
			l-2.9,0.4c0.3,3.4,2.9,5.5,5.5,7.3c1.1,0.8,1.2,0.8,0.7,2.3c-1.1,2.5,1,3.2,2.7,4.2c0.1,0.8,0.3,1.8,0.4,2.9
			c0.4,0.6,1.1,1,1.8,1.2c1,0.4,1.8,0.8,1.8,1.9c0.2,1.8,1.8,2.6,3.1,3.4c0.1,0.6,0.3,1.8,0.3,2.2c1.1,1.2,2.5,2.7,3.1,4.2
			C326.8,519.4,325.4,519.6,324.2,520L324.2,520z M321.3,481.2l2.3-0.7c1,2.9,1.6,5.9,2.2,9.4c-1.7-0.4-3.6-0.4-4.9-1.8
			C321.3,486,321.5,483.9,321.3,481.2z M319.8,487.9c-0.6,0.3-1.2,0.2-2.1-0.3c-0.3-2.2-0.5-4.3-0.7-6.6
			C320.6,480.6,319.8,485.3,319.8,487.9L319.8,487.9z M315.8,487.8c-0.7,0-1.8,0-2.4,0.1c-0.7-2.7-1.1-5.3-1.8-8
			c1.4,0.4,3.1,0.5,3.6,2C315.8,483.8,315.6,485.9,315.8,487.8z M345.4,522.1c-4.1-1.6-8.1-2.2-12.2-3.1c-1.2-1.7-4.9-2.7-3.2-5.2
			l-0.3-0.1c-0.4-0.3-1.2-0.5-1.8-0.7c2.3-2.9-1.9-3.1-4.1-3.6c0.6-0.8,1.1-1.7,1.8-2.5c-1.7-1-3.5-1.2-5.3-1.8
			c-0.2-1.4,1.9-1.9,2.4-3.2c-1.8-1-3.8-1.7-5.7-2.3c1.8-1,3.6-1.8,4.6-3.7c-3.5-1-7.4-1.9-9.7-4.9c4.9-0.7,9.7-0.3,13.7,1.4
			c-1,5,0.4,10.9,4.2,17.1c1.2,1.9,2.9,4.7,5.7,3.6c-5.7-4.9-9.1-12.5-8.8-20.4c2.3,0.7,4.9,0.3,7.2,1.1c1.7,7.5,2,15.3,2.6,22.9
			c0.2,1.2,0,2.9,1.8,3.3c-0.2-10.5-1.5-20.7-2.2-31.1c-1-7.4,0-14.4,8.4-16.7c11,0.1,11.7,12.3,13.6,20.4c-0.4,0.6-0.8,1.4-1.2,2.1
			c-2.4,0.1-5.2,0.1-8.1-0.6c-1.5-0.3-2.9-1-4.3,0c-3.1,1.9-2.7,6-2.7,9.2C342.7,509.5,344,515.9,345.4,522.1L345.4,522.1z
			 M346.4,507.8c-4.1-3.9-2.4-10.4-1.8-12.5c4.6,0.1,9.2,2.4,13.6,0c0.6,4.5,2.1,8.7,1.8,13.3C356.1,511.1,350,511.7,346.4,507.8z
			 M357.2,516.7l-0.1,0.3c0.3,1.7-0.7,2.9-1.8,3.7c-0.5-2.9-1.1-5.5-1.8-7.7c0.7-0.1,2-0.1,2.7-0.2c0.3,1-0.4,3.2,1.4,2.9
			c0.4-1.1,0.5-2.3,0.3-3.5c1-0.4,2-0.8,3.2-1.1C361.8,513.6,359.9,516.4,357.2,516.7L357.2,516.7z M363,512.3
			c-1-3.6-1.1-7.2-1.6-10.8c-0.4-2.7-0.8-5.2-1.2-7.8c-0.7-5.5-1.7-11.1-3.5-16.4c-1.1-3.3-4-5.3-6.7-7c2.9-5.5,6.3-8.8,10.2-10.2
			c2.1-0.8,4.9-0.4,6.2,1.8c1.8,3.2,2.4,6.8,3.2,10.4c0.1,1.1,0.8,2.7-0.3,3.3c-2.3,1.7-5.7-0.8-8,1.5c-2.2,2.3-2,5.7-1.6,8.2
			c1,4.1,2.2,8.1,3.3,12c1.1,4.1,2.5,8.2,3.4,12.5C365.4,510.7,364.4,511.6,363,512.3L363,512.3z M368.5,509.1
			c-1.1-4.6-2.5-9.2-3.8-13.6c-1-3.3-2-6.5-2.9-9.8c-0.7-2.3-0.5-4.9,0.4-7.4c2.9-0.4,5.7-0.4,8.7-1c1.8,10.6,4.2,20.7,6.1,31.3
			C374,507.9,371.1,508.1,368.5,509.1L368.5,509.1z M378.3,503.2c-1.8-11-4.2-21.6-6.6-32.3c-0.8-3.7-1.7-7.7-3.9-11
			c-1.4-1.8-3.3-2.2-4.9-2.2c-7.6-0.1-11.7,6.3-14.7,12c-5.2-0.2-10.2,2.9-13,7.6c-0.7,1.2-1.8,2.3-2.9,3.3
			c-1.2,1.1-2.5,2.2-3.2,3.8c1.1,0.4,2.2,0.8,3.3,1.2c-0.6,1.5-2.9,3.3-0.5,4.2l0.5-0.7c0.4-1,1-1.9,1.8-2.9v2.2l-1.1,0.7
			c0.2,0.7,0.7,1.2,1.1,1.8c-1.1,0.1-2.2,0.1-3.3,0.2c-5.7-12.5-5.7-26.6-11.1-39.1c-2.1-4.2-6-7-8.8-8.4c0.8-4.9,1-9.7,1.2-14.5
			c0.8,0.4,1.6,1.1,2.2,1.8h2.9c1.8,4.2,4.2,8.1,6.8,11.7c2.7,3.7,4.2,8,9.4,8.2c3.8,4.3,7.4,7.3,11.7,8.1c2.9,0.4,6.6,0.7,8.7-2
			c-3.5,0-7.1,0.8-10.2-0.6c-6.2-2.9-11-8.2-13.3-14.5c-1.1-3.1-1.1-6.5-2.9-9.4l1.8-1.8c3.2,0.1,5.7,1.8,8.4,3.4
			c2.1,1.2,4.2,2.8,6.8,3.3c5.3,1.2,11.5-0.6,15.5-4.9c-0.2-0.5-0.4-1.4-0.5-2c-3.3,2.6-6.3,6-10.8,6.1c-3.5,0.2-6.4-1.8-9.2-3.4
			c-1.8-1.1-3.5-2.2-5.5-2.9c-2.9-0.5-2.9-4.1-3.8-6.3c0.4-0.4,1-1.2,1.5-1.8c-0.1-1.4-0.2-2.9-0.3-4.1V418l-0.1-0.1
			c-1.1-1.1-2.4-2.2-3.6-3.3c-1.9,0.1-3.9,0.1-5.7,1c0.3-2.6,0.6-5.2-0.3-7.7c-0.5,2.7-0.7,5.5-1,8.1c-1.4-0.1-2.9-0.5-4.2,0.1
			c-1.5,1.1-2.2,2.8-2.2,4.9c-0.5,0.7-1.1,1.7-1.7,2.5c-0.7-9.4,0.6-18.5,1.2-27.6c0.2-3.9,1.2-7.6,1.2-11.5c1.1,1.1,2,2.5,2.7,4.1
			c11.7-2.7,23.7-2.6,35.8-3.1c3.3,0,6.5,0.8,9.8,0.3c0.7-1.1,0.4-3.6,2.1-3.7c0.1,2.2-0.4,4.6,1,6.5c3.3,4.7,3.5,10.7,4.7,16.1
			c0.8,4.5,0.2,9.1,0.5,13.6c0.4,5.5,1,11,0.7,16.5c0.4,11.2,1.8,22.2,2.4,33.3c0.4,6.7,1,13.6,2.2,20.4c0.1,2.8,0.5,5.5,1,8.2
			c0.4,3.2,1,6.5,1,9.8C378.9,505.2,378.5,504.1,378.3,503.2L378.3,503.2z M334,484.4c-1.1-0.3-2.2-0.5-3.2-0.8c1-0.8,2-1.6,3.1-2.2
			C334,482.3,334,483.4,334,484.4L334,484.4z M315.5,419.6c1-2.1,2.9-3.3,5.2-2.6c-0.7,1.2-1.6,2.7-1.8,4.2c0.3,1.8,1.1,3.3,1.9,4.9
			c-1.7,1.9-3.3,4.1-6.1,3.6c-0.6-1.2-1.5-2.7-1-4.2c0.3-3.1,3.4-4.5,5.2-6.7C317.8,418.8,316.5,419.3,315.5,419.6L315.5,419.6z
			 M325,433.6c0.7,0.4,1.6,0.7,2.3,1.1c0.4,2.5,0.6,4.9,1.4,7.4c0.6,2.1,1.9,3.9,2.4,6.1c-1.5-1.1-2.5-2.8-3.5-4.2
			c-0.4-0.7-1-1.7-1.6-2.3c-2.5-3.5-4.3-7.2-6.7-10.7c1.4-4.2,6-5.7,10-5.2c0.3,1.1,0.7,2.6,1.1,4c-2.7-0.1-4.3,2.1-5.7,4L325,433.6
			L325,433.6L325,433.6z M328.8,424.2c-2.5,0.3-4.5,0.4-6.3,0.8c-0.8-1.2-2.1-2.9-1.8-4.5c0.7-1.7,1.8-2.9,2.8-4.5
			c1.1-0.1,2.3-0.3,3.5-0.2c1.8,0.8,2.7,2.7,3.6,4.2C329.9,421.5,329.3,422.8,328.8,424.2z M401.9,518.7c-3.1-1.9-7-1.9-10.2-0.1
			c-2.2-4.6-5.6-7.7-9.5-8.7c-0.5-4.1-1.6-8.1-1.8-12.3c-0.2-4.2-1.7-8.2-1.8-12.5c5.9-1.1,10.8,4.5,11.7,10.1
			c-1.8,0.6-3.2,1.8-4.2,3.3c5.7-1.1,7.8-2.6,12.7,1.8c-1.8,1-3.2,3.3-5.5,2.9c-1.9-0.4-3.2,1.1-4.1,2.4c2.4,0.2,5.5-1,7.1,1.2
			c-0.2,0.7-0.8,1.1-1.6,1.5c-1,0.4-1.9,1.1-2,2.5c2.2-0.7,4.9-1,7.8-1c-1-0.8-1.9-1.8-2.9-2.5c-0.4-1.2-1-2.6-1.5-3.6
			c3.2-2.7,7.1-1.1,9.7,1c-0.7-1.2-1.4-2.3-2.3-3.5c-2-0.2-3.6-1.5-4.7-4.1c6.3-1.5,9.8-0.1,14.1,4.2c0.8,0.7,1.8,1.6,2.7,2.2
			c0.1-4-3.3-6.1-6.2-7.8c3.8-2.9,9.1-3.6,13.6-1.8c4.5,2,6.5,6.6,7.3,9.4C416.6,499.2,407.5,507.3,401.9,518.7z M438.9,509.7
			c-1.9-2.2-4.2-4-6.6-5.7c-0.7-5-4.1-11-10-12.6c-4.7-1.7-10.6-0.4-15.2,2.9c-1.1,0.3-2.2,0.3-3.3,0.3c-2,0.1-4.1,0.2-5.9,1.5
			c-1.9-0.8-4.2-1.5-6.7-1.9c0.3-5.7-4.2-9.8-8.7-11.3c1.9-17.8,8.1-33.3,17.8-45c-1.4-1.6-2.9-3.4-2.7-5.7c2.3,0.3,3.7,2.2,5.2,3.9
			c8,0,15.8-1.8,23.9-0.8c-0.8-2-3.4-4.3-1.4-6.4c1.9,1.1,4.1,2.9,4,5.7c1.9,1.8,4.2,4.5,4.7,8.1c0.2,2.7,0.4,5.2,0.6,7.8
			c0.2,2.7,0.4,5.2,0.6,8c-0.2,0.5-0.5,1.4-0.7,2c-1.5-0.8-2.9-1.7-4.2-2.5c0.8,1,1.8,2.1,2.6,3.1c-2.3,1.8-4.9,3.5-6.8,5.7
			c-0.3-0.3-0.6-0.5-1-0.7c1.6-1.7,2.5-3.2,3.3-5c-1.8,1.7-3.3,3.4-4.9,5.2c0.1,0.5,0.3,1.4,0.3,2c-1-0.1-1.8-0.3-2.8-0.3
			c0,0.4,0.1,1,0.2,1.5c-4.7,0.1-9.4,0.2-14,0.6c-0.7,0.1-1.8,0.2-2.3,0.7c-0.3,0.3-0.3,0.5-0.3,1c0,2.3,0.6,4.6,1.2,6.3
			c-2.9,2.1-5.5,5.2-9.2,5.2c-1.8-1.8-3.6-3.2-5.7-4.2c0.7,2.5,2.7,4.9,4.9,5.7c3.6,1.8,6.8-1.5,9.5-3.6c1.8-1.5,3.6-2.9,5.9-3.9
			c1.1-0.4,2.2-0.2,3.6,0.7c-1.9,2.1-2.5,4.9-4.5,7c-2.2,2.5-5.9,2.9-8.5,5c2.3,1.2,4.5,0,6.4-1c0.5,0.8,1,1.5,1.4,2.1
			c4.1-1.2,9.4,0.4,12.2-3.5c2.3-2.9,5.2-6.3,8.7-8.7c3.4-0.4,6.3-2.3,8-5.3c3.8,15.7,6.4,31.4,10.1,47
			C444.6,517.9,442.2,513.4,438.9,509.7L438.9,509.7z"/>
		<path class="st0" d="M301,458.4c-0.8,0.6-1.2,1.7-1.8,2.5c-1.7,0.1-3.3,0.1-4.9,0.1c1.1,1.2,2.8,1.6,4.2,1.6
			c0,1.8,0.2,3.6,0.5,5.5c2.3-0.6,3.2-2.9,4.1-4.9c-0.3-0.5-0.4-1.1-0.7-1.8L301,458.4z M301,462.9c-0.4,0.8-0.6,1.8-0.7,2.7h-0.1
			c-0.4-0.7-0.4-2.6-0.1-3.4c0.3-0.6,0.5-0.5,1.1,0.2L301,462.9L301,462.9z M319.8,473.9c-1.8-1.2-2.8,2.8-0.7,2.9
			C320.4,476.8,320.8,474.6,319.8,473.9z M332.7,496.7c-1.2-0.4-2.8-1-4.2-1.2c0.3,1.2,1.5,2.8,2.8,2.8
			C331.7,498.2,332.4,497.9,332.7,496.7L332.7,496.7z M344.2,479.9c0,0.7,0.1,1.9,0.2,2.7c-1.4-0.4-2.7-1-4.1-1.4
			c0.8,1.5,1.9,2.9,2.9,3.8l0.2,0.2c0.7-0.7,1.5-1.5,2.2-2.2c0-1.1-0.1-2.2-0.1-3.3C345,479.9,344.7,479.9,344.2,479.9L344.2,479.9z
			 M735,496.7c-6.8,1-11.7,2.1-13.3,2.5c-70.4-11.6-94.6-4.6-101.4-1.2c-6.2-5.7-33.6-13.2-39.7-14.7l-1.7,1.8
			c14.7,3.8,38.2,11.2,38.5,14.8l0.3,3.3l3.3-2.7c0.2-0.2,16.4-13.2,100.2,0.7l0.7,0.2l0.7-0.3c0.2-0.1,4.8-1.2,12.3-2.4L735,496.7
			L735,496.7L735,496.7z M523.3,506.9c0.3-0.2,0.6-0.2,1,0c0.3,0.2,0.4,0.3,0.7,0.4l-2.7-1.8C522.6,505.9,523,506.4,523.3,506.9
			L523.3,506.9z M355.7,469.4c-1.8,0.3-2.9,0.1-2.9-1.8c-3.9,3.2,3.3,2.8,1.7,5.7h0.7v1c1.4,0,2.9,0,4.2,0.1
			c-0.3-2.2-0.3-4.3-0.8-6.7C357.1,467,356.5,468.5,355.7,469.4L355.7,469.4z M355.5,473.3c0.3-1.5,0.8-2.6,1.8-2.9
			c0.2,1,0.3,1.9,0.3,2.9C357,473.1,356.1,473.3,355.5,473.3z M392.3,457.8c-1.4,0.4-0.6,2,0.4,2.5c0.5,0.3,1.1,0.1,1.4-0.3
			C394.9,458.8,393.4,457.3,392.3,457.8z M361.7,465.1c-0.4,0.3-1,0.7-1.4,1.1c0.3,0.4,0.4,0.8,0.6,1.2c0.3,0.5,0.4,1,0.7,1.6
			c1.8,0.2,3.6-1,4.5-2.6c-1,0.3-2,0.6-3.1,1.1L361.7,465.1z M404.2,460.9c1.8,2.2,4.1,1.7,6.6,1.6c2.9-0.3,6.3-0.6,8.2-3.3
			c-1.2,0.3-2.7,0.6-4.1,1C411.4,460.9,407.8,461.8,404.2,460.9z"/>
		<path class="st2" d="M461,523c0.2-4.4,0.1-8.9-0.6-13.3c-1,1.7-1.9,3.3-2.9,4.9c-0.7-0.1-0.7-0.2-1.5-0.2
			c-1.2-4.1-2.4-8.1-1.8-12.5c-1.7,0.1-3.3,0.2-4.9,0.3c4.1-5.7,7.4-12.2,7.8-19.2c0.6-6.6,3.3-13.1,2.2-19.7c-1-4-2.9-7.6-3.8-11.7
			c-2.7-12.6-2.1-25.6-0.6-38.3c-2.2-2.7-6.4-2.4-9.7-2.9c0.3-0.6,0.7-1.8,1-2.3c-1.6-1.5-3.8-2.6-4.2-4.8c-0.1-0.4-0.2-0.7-0.3-1
			c-1.8-4.1-2.2-9.4-1.9-15c-0.4-7.7,0.2-15.6,2-23.1c1.5-4.7,3.7-8.7,6.4-12.6c0.7-1.1,1.6-2.1,2.4-3.1c-0.4-2.5-0.7-4.9-0.6-7.5
			c0.1-0.6-0.2-1-0.3-1.3c0.4-0.2,0.8-0.3,1.2-0.3h0.1c-0.3-2.5-0.7-4.9-1-7.4c1,1,2.1,1.9,3.1,2.8c2.1,1.8,5.2-1.2,3.1-3.1
			c-5.2-4.2-9.6-9.4-13.6-14.8c-2.7-3.7-5.3-7.5-7.7-11.6c-0.3-1-0.4-2.1-0.7-3c0.3-0.4,0.4-1,0.3-1.8c-0.4-1.1-0.7-2.2-1.1-3.4
			c-0.2-0.7-0.2-1.6-0.2-2.2l-0.4-0.3c-1.2-5.2-2.1-10.4-2.4-15.6c2.2-6.2,5.4-12,6.8-18.4c0.3-1-0.3-1.8-1-2.3
			c2.2-2.2,4.2-4.5,5.4-7.4c3.5-7.3,1.8-15.6,3.3-23.3c0.3-1.9,1-3.8,1.7-5.7c-0.3-0.2-0.4-0.3-0.6-0.4c0.1-0.7-0.1-1.3-0.3-2
			c-0.1-0.2-0.2-0.3-0.2-0.3c-0.6-0.8-1-1.9-1.3-2.6c0-0.1-0.1-0.2-0.1-0.2s0.1-0.1,0.2-0.1c-0.1,0-0.1,0-0.2,0.1l-0.3-0.6
			c-0.3-0.4-0.6-0.7-0.9-1c-0.7-0.7-1.3-1.2-1.8-1.8c-0.5-0.6-1-1.2-1.4-1.9c-0.3-1.2-0.5-2.5-0.7-3.8c-0.4-1-0.7-2.1-1-3.2
			c-0.7-4-0.6-8.7,1.6-12.2c1.2-4.9,3.7-9.4,7.7-12.9c0.2,0.1,0.3,0.2,0.4,0.2c-0.2-0.1-0.2-0.2-0.3-0.3c5.1-0.8,10.9-2.9,15.6-0.1
			c2.2,1.1,4.2,2.4,6.8,1.9c0.6,0.3,1.8,1,2.4,1.2c1.7,2.2,3.3,4.2,4.8,6.6c16.7-8.3,36.4-11,54.6-6.8c1,0.6,2.1,1,3.5,1h0.4
			c0.4,0.2,1,0.3,1.4,0.4v-0.6c1.1-0.3,2.1-0.9,2.7-1.7c2.3-0.5,3.8-2.1,4.3-4.1c3.3-2.6,6.8-4.7,10.6-6.3c4.2,0.7,9.2,1.3,12.2,4.2
			c0.8,0.2,1.4,0.6,1.8,1.2c0.3,9-1.6,17.8-2.8,26.9c-1.5,1.9-3.2,3.7-5.2,5c-2.3,1.6-0.2,5.3,2.2,3.8c0.7-0.5,1.6-1,2.2-1.7
			c-0.4,4.3,0.1,8.7,1.7,13c1.9,4.9,4.9,9.3,7.4,13.9c0.5,1,1.4,1.2,2.2,1c1.7,1.5,3.4,2.7,5.2,4c1.2,0.3,2.7,0.4,3.9,0.7
			c0.1,0.7,0.1,1.5,0.2,2.1c0.3,0.2,0.4,0.3,0.6,0.4c1.2,1,2.6,2.1,3.8,3.3c0.8,2.1,1.6,4.2,2.2,6.3l-0.4-0.3
			c0.2,0.3,0.3,0.4,0.5,0.7c1.8,6.5,3.2,13.3,3.8,20.3c-0.5,4.9-0.6,9.7,0.1,14.5c-0.2,1.1-0.3,2.2-0.3,3.3
			c-0.2,1.2-0.3,2.4-0.5,3.6c-2.7,6.1-6.4,11.9-11.7,15.9c-2.2,1.8,0.9,4.9,3.1,3.1c0.5-0.4,1-0.8,1.6-1.2
			c-3.7,4.4-8.1,8.7-9.7,14.4c-0.3,1.1,0.5,2.4,1.7,2.7c-0.2,1.2-0.4,2.6-0.4,3.8h0.1c0.7,0.3,1.3,0.4,2.1,0.6
			c-0.4,0.7-0.5,1.5-0.3,2.3c2.9,2.9,5.5,6.2,7.4,9.8c7.2,12.5,8.3,28,4.1,41.6c-1,3.3-3.2,5.7-5.5,8c-1.1,1.6-2.5,2.9-4.1,4.4
			c3.4,13.4,4.2,27.7,1.6,41.4c-0.9,5.4-5.2,9.9-4.3,15.6c-0.2,8.7,3.8,16.4,6.1,24.5c1.5,5.5,3.5,10.7,5.3,16.2
			c-1.7-1.4-3.3-2.9-4.9-4.2c0,3.3-0.1,6.4-0.3,9.7c-2,3.2-2.7,6.8-2.9,10.6c4.7,0.2,9.5-0.2,13.7,2.3c4.8,3.1,8.7,7.5,11,12.6
			c1.8,7.9,4.4,16,2.6,24.1c-4.2,6.2-12.3,7.2-19,9.5c-7.2,2.7-14.7,2.4-22,4.2c-13,1.8-24.6-5.4-36.9-7.9
			c-3.3-3.8-7.7-6.2-11.6-9.3c-5.2,4.3-10.2,9.2-16.7,11.3c-9.2,3.3-18.1,6.7-27.6,9c-11.5,2.6-22.6-2.7-33.9-4.1
			c-4.3-2.8-11.3-4.4-12-10.7c-0.1-8.2,2.5-16.3,5.6-23.9C443.5,527,452.3,522.7,461,523L461,523z"/>
		<path class="st0" d="M556.7,229.9c-7.3,4.2-15.6,5.1-23.6,6c-2.9-7.3,3.3-6.2,5.7-7.2c7.2-1.5,14-4.9,20.6-8.3
			c1.1-0.7,2.2,0.4,3.3,1c0.4,2.7-0.2,5.2-1.3,7.4C559.9,229.5,558.2,229.1,556.7,229.9L556.7,229.9z M543.9,304.9
			c0.1-0.1,0.1-0.2,0.2-0.3C544,304.8,544,304.9,543.9,304.9z M493.6,313.9c4.1,7.7,10.5,14,19.3,14.9c5.7,0.4,11-1.2,15.5-4.1
			c-4.8,3.6-10.6,5.5-17.1,5.2c-8.7-0.9-15.2-6.9-19.2-14.5C492.7,314.9,493.2,314.4,493.6,313.9L493.6,313.9z M489.6,317.1
			c-0.1-0.2-0.2-0.3-0.2-0.4c0.4-0.2,1-0.3,1.3-0.4C490.4,316.5,490.2,316.9,489.6,317.1L489.6,317.1z M537.9,318.4
			c-0.5-0.4-1-0.8-1.6-1.2c0.4-0.5,0.7-1,1.1-1.7l0.1,0.1c0.6,0.6,1.2,1.1,1.9,1.7c-2.9,4.8-6.7,8.9-11.6,12.2
			C532.1,326.4,535.5,322.6,537.9,318.4z M519.7,316.3c-4.1-0.3-8.7-0.1-12-3.3C511.9,312.8,517.2,312.4,519.7,316.3z M522.4,305.5
			c-8.1,0.7-16.2,0.4-24.1-0.7c-2-0.3-1.1-2.7,0.8-2.4c6.1,0.9,12,1.2,18.1,1c3.1-0.2,6.2-0.4,9.4-0.9c2.1-0.3,4.9,0.2,4.8-2.7
			c0.3-1.6,3.4-0.9,3,0.7C534.3,306.1,526.3,304.9,522.4,305.5L522.4,305.5z M497.7,200.5c1.8-0.3,3.7-0.6,5.7-0.7
			C501.6,200.5,499.7,200.7,497.7,200.5z"/>
		<path class="st0" d="M426.9,291.2c1.7,0.6,3.3,1.2,4.9,1.8c0.3,6.8,3,13.2,3.7,19.9c0.6-0.2,1.8-0.4,2.2-0.7
			c2.6,3.7,4.9,7.7,7.6,11.5c-0.5,0.2-1,0.2-1.6,0.3c-0.3,0.3-0.6,0.5-0.9,0.7c1.1,0.2,2.4,0.2,3.5,0.4c0.7,1,1.6,2.1,2.4,3
			c0.3,3.3,0.9,6.4,1.2,9.7h-0.1c-0.4,0.2-0.7,0.3-1.2,0.3c0.3,0.4,0.4,0.8,0.4,1.4c-0.2,2.7,0.3,5.2,0.7,7.6
			c-0.8,1-1.7,2.1-2.4,3.2c-2.8,4-5.1,8.2-6.4,12.8c-1.9,7.7-2.4,15.6-1.8,23.5c-0.3,5.7,0.3,11.1,2.1,15.2c0.1,0.4,0.2,0.7,0.3,1.1
			c0.4,2.2,2.8,3.3,4.2,4.8c-0.3,0.6-0.7,1.8-1,2.3c3.3,0.6,7.5,0.3,9.7,2.9c-1.5,12.8-1.9,26,0.8,38.6c1,4.1,2.9,7.7,3.9,11.7
			c0.6,4.1-0.1,8-0.7,11.8c-1.5,4.5-2.3,8.8-2.2,13.6c-1.3,5-3.9,9.7-6.8,14c1.7-0.1,3.3-0.2,4.9-0.3c-0.4,4.2,0.7,8.5,1.9,12.5
			c0.7,0.1,0.7,0.1,1.5,0.2c0.9-1.8,1.8-3.4,2.9-5c0.7,4.4,0.7,9,0.7,13.5c-8.7-0.3-17.7,4.1-23.6,10.3c-3,7.7-5.5,15.9-5.5,24.1
			c0.6,6.2,7.7,7.9,12.1,10.7c11.3,1.3,22.6,6.4,34.2,3.8c9.5-2.3,18.6-6.1,27.7-9.3c6.5-2.2,11.7-7.2,16.8-11.7
			c4,3,8.4,5.5,11.7,9.3c12.5,2.4,24.3,9.5,37.3,7.7c7.3-1.8,15-1.7,22.2-4.2c6.6-2.4,14.8-3.5,19.1-9.7c1.8-8.2-0.8-16.4-2.7-24.3
			c-2.4-5.2-6.4-9.7-11.2-12.7c-4.2-2.4-9.2-2.1-13.9-2.2c0.3-3.7,1-7.4,2.9-10.7c0.2-3.3,0.3-6.5,0.3-9.8c1.7,1.4,3.3,2.9,4.9,4.2
			c-1.8-5.4-4.1-10.7-5.5-16.2c-2.2-8.2-6.3-16-6.3-24.6c-1-5.7,3.5-10.2,4.2-15.7c2.7-13.9,1.8-28.3-1.8-41.8
			c1.6-1.5,2.9-2.9,4.1-4.5c2.3-2.3,4.6-4.9,5.5-8.1c4.2-13.8,2.9-29.4-4.2-42c-1.9-3.7-4.7-6.8-7.6-9.8c-0.3-0.9-0.2-1.7,0.3-2.3
			c-0.7-0.3-1.6-0.4-2.1-0.6c0,0-0.1,0-0.1-0.1c0.4-3.4,0.9-6.8,1.2-10.2c1.6-1.8,3-3.5,4.5-5.3l2.1-0.3c-0.3-0.3-0.7-0.6-1-1
			c-0.1,0-0.1,0-0.2-0.1c1.5-1.8,2.9-3.6,4.2-5.6c4.9-11.7,8-24,7.2-36.6c0.7-0.1,2.2-0.1,2.9-0.2c-1.3-8.2-4.2-16.2-9.2-23
			c1.9,1.1,4,2.1,6,3.1c-2.7-5.2-7.2-8.9-11.7-12.6c-0.3-0.2-0.4-0.3-0.6-0.4l-0.2-2.2c-1.2-0.3-2.7-0.4-4-0.6
			c-4.2-2.9-8.5-6-10.6-10.8c-1.9-4.6-3.3-9.4-4.9-14.1h0.2c-0.3-0.6-0.3-1.2-0.3-1.9c0.1-0.6,0.2-1.2,0.3-1.8
			c0.1-0.3,0.2-0.4,0.3-0.6c-0.6-0.8-0.6-1.9,0.2-2.9c5-6.7,8.1-16.5,6.7-24.8c-0.4-2.9-1.6-5.5-2.8-8.1c-0.6,0.1-1.1,0.2-1.8,0.3
			c-0.2-1.2-1-2.3-2.4-2.7c-3.3-2.9-8.2-3.5-12.5-4.2c-3.7,1.8-7.4,3.8-10.6,6.4c-0.6,1.9-2.1,3.6-4.4,4.2c-0.7,0.7-1.7,1.3-2.8,1.7
			v0.6c-0.4-0.2-1-0.3-1.4-0.4h-0.4c-1.4,0-2.7-0.4-3.6-1c-18.4-4.1-38.2-1.2-54.9,7.2c-1.7-2.2-3.3-4.3-4.9-6.6
			c-0.6-0.3-1.8-1-2.4-1.2c-2.6,0.4-4.8-0.9-6.9-1.9c-4.9-2.8-10.7-0.7-15.9,0.2c0.2,0.1,0.2,0.2,0.3,0.3c-0.2-0.1-0.3-0.2-0.4-0.2
			c-4.1,3.5-6.5,8.1-7.7,13.2c-2.1,3.6-2.2,8.3-1.4,12.3c0.3,1.1,0.6,2.2,1,3.3c0.3,1.2,0.4,2.6,0.7,3.8c0.4,0.7,1,1.3,1.5,1.9
			c0.4,0.4,1.1,1,1.8,1.8c0.4,0.4,0.6,0.7,0.9,1l0.3,0.6c0.1,0,0.1,0,0.2-0.1l-0.1,0.1c0.1,0.1,0.1,0.2,0.1,0.2
			c0.3,0.6,0.8,1.8,1.4,2.7c0.1,0.2,0.1,0.3,0.2,0.3c0.3,0.7,0.3,1.3,0.3,2c0.3,0.2,0.4,0.3,0.6,0.4c-0.7,1.8-1.3,3.7-1.7,5.7
			c-1.4,7.8,0.3,16.2-3.3,23.6c-2.2,5.4-7.2,8.7-10.7,13.3l4.6-0.3c-1.6,2.6-2.9,5.2-4.1,7.9C428.8,276.1,426.6,284.5,426.9,291.2
			L426.9,291.2z M570.4,189v-0.2c0.1,1.1-0.1,2.2-0.3,3.4c-0.1-0.3-0.1-0.6-0.2-0.9C569.7,190.5,569.8,189.6,570.4,189L570.4,189z
			 M575,237.5c-2.7-0.4-5.3-1-8-1.2c-3.7-0.4-7.5-0.7-11.3-0.4c-4.9,0.3-9.7,1.1-14.5,1.9c-4.9,0.9-9.6,2.4-14.5,3.4
			c-3.3,0.7-18,2.5-21.4,2.6c-0.7-0.1-1.4-0.1-2.1-0.2c-6.2-0.4-12.1-1.7-18.1-2.7c1.7-0.4,3.3,0.3,4.9-0.1c1.7-1.4,2.7-3.3,2.7-5.2
			c-1-0.6-1.9-1.7-3.3-1.2c-7.4,1.4-14.8,2.9-22.5,2.7c-2.7,0.3-8.7-1.6-7.2,3.8c-1.5,0.3-2.9,0.5-4.2,0.8
			c-3.6,0.8-6.9,2.2-10.6,2.9c-0.4,0.1-0.8,0.2-1.2,0.3c1.8-7.6,1.1-16.3,3.3-23.8c-0.1-0.6,0.2-1.2,0.5-1.8c0.4-0.5,0.6-1,0.8-1.6
			l-0.6-1.2c1.3-0.7,2.7-1.8,3.4-2.2c1.1-0.7,2.2-1.7,3.4-2.4c1-0.7,3-1.7,3.5-2.7l0.3-0.6c-0.2-0.4-0.9-1-1.6-1.5
			c0.1,0.1,0.1,0.2,0.2,0.2c-0.2,0-0.4,0.1-0.6,0c-1.2-0.7-2.2-1.6-3-2.7c0.4,1,1.1,1.8,1.8,2.7c-0.4,0-0.9-0.1-1.2,0.1
			c-1.6-1-2.9-2.3-4.1-3.9c-0.7-0.8-1.1-1.8-1.8-2.7c0.2,2.2,1.2,4.2,2.1,6.2c-4.5-3.7-6.2-9.7-6.7-15.2c-0.5,2.4-0.2,4.9,0.1,7.4
			c-1.7-3.7-1.7-8-0.7-12c-0.2-0.4-0.2-0.7-0.3-1.1c-0.2,0.2-0.3,0.3-0.3,0.4c1-2.3,2.7-4.3,5.1-5.9c0.7-0.5,1.7-0.6,2.2-0.4
			c5.9-2.7,14.7-0.7,19.1,4.2c0.6,0.3,1.2,0.4,1.8,0.7c0.4,0.2,0.7,0.4,1,0.6c0.3-0.4,0.4-0.9,0.7-1.2c0.7,2.5,1.8,4.9,2.8,7.2
			c0.4-0.4,1.1-0.7,1.9-0.7v-2.5c4.2-2.7,9.2-4.1,14.1-4.7c0.3,0.3,0.4,0.6,0.7,0.9c1.2-1,2.7-1.8,4.6-2.2c0.9-0.3,1.8-0.3,2.7-0.4
			l-0.3-0.2c11.9-2.9,24.6-3.3,36.3,0.3c0.2,1,0.4,1.8,0.5,2.7c0.4-0.4,1.1-0.6,1.9-0.6h0.3l0.6-2c0.7-0.1,2.1-0.3,2.8-0.3
			c0.2-0.7,0.4-2.4,0.4-3.2c4.2-3.8,8.5-9.7,15-9.2c2.7-0.3,5.1,0.6,7.3,1.9c-0.2,0.1-0.2,0.2-0.3,0.3c-0.3,0.1-0.6,0.1-1,0.1
			c1.1,1.2,2.1,2.7,2.9,4.1c0,0.2-0.1,0.3-0.1,0.3c0.6,1,1.1,2.1,1.2,3.3c-0.4-0.7-0.9-1.3-1.5-1.9c-0.2,0.4-0.2,0.7-0.3,1.1
			c0.8,4.1,0.9,8.2-0.7,12c0.2-2.5,0.6-5,0.1-7.4c-0.6,5.5-2.2,11.7-6.7,15.2c0.9-2,1.9-4.1,2.1-6.2c-0.7,0.9-1.1,1.8-1.8,2.7
			c-1.1,1.6-2.5,2.9-4.1,3.9c-0.4-0.2-0.8-0.1-1.2-0.1c0.7-0.8,1.3-1.8,1.8-2.7c-0.9,1-1.8,1.9-3,2.7h-0.6c0.1-0.1,0.1-0.2,0.2-0.2
			c-0.6,0.4-1.4,1.1-1.6,1.5l0.3,0.6c0.4,1.1,2.6,2,3.5,2.7c1.1,0.8,2.2,1.7,3.4,2.4s4.1,2.9,5.7,3.1c-0.4,0.4-0.8,0.9-1.2,1.3
			c0.6,0.4,1.2,1,1.8,1.5c1.8,4.9,3.1,9.8,4.7,14.7C568.9,230.7,571.8,234.4,575,237.5z M487.9,269.3c2.9-1.2,5.7-2.9,8.7-3.7
			c0.4-0.3,0.8-0.4,1.2-0.5l0.4-0.2l-1,2.2c-2.7,2.1-4.7,4.6-6.1,7.4c-0.3,0.7-0.4,1.6-0.7,2.2c-1.5,1.2-2.9,2.2-4.7,3
			c-5.2,2.5-11.2,2.9-16.8,2.1c-1.3-0.3-2.7-0.4-4.1-0.8c-2.4-0.7-4.7-2.1-6.3-3.9c-1.7-1.7-2.9-3.7-3.7-5.8
			c-1.8-4.9-3.3-9.9-3.6-15.2c-0.1-1.8-0.3-3.7,0.4-5.4c0.7-1.9,2.2-3.6,4.1-4.6c2.7-1.6,5.7-2.1,8.7-2.7c5.5-0.9,11-1.6,16.6-1.2
			c1.2,0.2,2.7,0.3,4,0.4c2.9,0.5,6.1,1.2,8.7,2.4c2.1,0.9,4.2,2.1,5.5,4.1c1.1,1.6,1.6,3.4,1.6,5.2c-3.3,0.3-6.7-0.4-10-1.4
			c-11.7-3.3-30.5-11.7-36,5c2.7-1.9,7.4-3.9,9.2,0.3c2.4,5.7,4.7,11.7,10.7,14.1c-1.3-1.9-3.3-3.6-3.8-6.1c2.1,1.9,3.7,4.7,6.4,5.7
			c-1.9-2.7-4.4-5-5.2-8.5c2.1,2.3,3.7,5.2,6.3,6.9c-1-1.9-2.4-3.7-3-5.8c6.8,4.9,10.3,1.7,17.4,0.4
			C491.3,266.7,489.3,267.6,487.9,269.3L487.9,269.3z M489.6,261.6c-3.5,1.1-7.4,0.8-10.8-0.2c-3-1-6.2-2.7-8-5.5
			c-0.6-0.7-0.9-2.3,0.3-2.7c1.2-0.3,2.4,0.1,3.6,0.4c4.4,1.2,8.8,2.7,13.3,4c1.2,0.4,2.7,0.7,3.5,2
			C491.7,260.8,490.3,261.2,489.6,261.6z M503,261.1c0.3-1.3,0.7-2.7,1.4-4.1c3.6-1.6,10.2-3.2,10.2-3.2c4.2-0.4,8,2.4,9.7,3.9
			c0.4,1.2,0.7,2.7,1.2,4c-1.8-0.6-3.6-1-5.5-1.2c-6.3-0.4-12.6,1-17.9,3.8C502.3,263.4,502.6,262.2,503,261.1L503,261.1z
			 M574.3,264c-0.6,2.2-1.2,4.4-2.4,6.4c-1.8,3.4-5.1,5.9-8.7,7.1c-2.9,0.9-6.1,1.4-9.2,1.6c-4.2,0.2-8.7-0.6-12.5-2.6
			c-1.2-2.3-2.8-4.5-4.7-6.6c-1.9-2.3-4.2-4.2-6.5-5.6l-0.2-0.3c-0.3-0.4-0.4-0.8-0.6-1.2h0.1c0.4,0.2,1,0.3,1.3,0.5
			c3.2,0.7,6.2,2.4,9.2,3.7c-1.3-1.8-3.4-2.7-5.2-3.9c7.4,1.2,11,4.2,18.3-0.4c-0.7,2.2-2.2,3.9-3.3,5.8c2.9-1.7,4.5-4.7,6.7-6.9
			c-0.7,3.4-3.4,5.7-5.5,8.5c2.9-1.2,4.6-3.8,6.8-5.7c-0.6,2.4-2.7,4.1-4.1,6.1c6.2-2.5,8.7-8.6,11.2-14.1c1.8-4.2,6.7-2.2,9.6-0.3
			c-6-16.6-25.6-8.3-38-5c-3.4,1-6.8,1.8-10.3,1.4c0-1.2,0.2-2.3,0.6-3.4c0.7-1.9,2.4-3.5,4.2-4.7c2.7-1.7,5.6-2.7,8.7-3.5
			c4.9-1.4,10.2-1.7,15.2-1.4c2.4,0.2,4.9,0.3,7.2,0.5c2.5,0.3,4.9,0.7,7.3,1.6c1.6,0.6,3,1.4,4.2,2.7c1.2,1.3,2,3.2,2.1,4.9
			C576.4,253.8,575.7,258.8,574.3,264L574.3,264z M536.5,257c0.8-1.2,2.4-1.6,3.7-2c4.7-1.3,9.4-2.7,14-4c1.2-0.3,2.6-0.7,3.8-0.4
			c1.2,0.3,1,1.8,0.3,2.7c-2,2.7-5.2,4.5-8.5,5.5c-3.7,1-7.7,1.2-11.3,0.2C537.6,258.7,536.1,258.1,536.5,257z M537.9,274
			c-1.2-1-2.5-2.2-3.5-3.4C535.6,271.6,536.8,272.8,537.9,274z M521.7,488.2l0.7,0.3v0.3l-0.2,0.2c-0.9,0.9-0.7,2.2,0,3.1l0.1,0.1
			c-0.1,2.1-0.2,4.2-0.3,6.4c10.1,0.7,20.1,1.6,30.3,2.7c6.9,0.8,14-0.2,21-1.2c0.7,1.5,1.6,2.9,2.2,4.2c-1,3.3-2.1,6.4-3.5,9.5
			l7.9-5.1c1-1.9,2.1-3.8,3.3-5.6c0.3,4.2,0.3,8.7,0.2,13.1c-7.4,3.5-15.7,6.2-21.1,12.8c3.3-0.3,5.7-2.4,8.7-3.6
			c6.3-2.7,12.6-5.5,19.4-6.8c6.9-0.4,13.3,4.5,16.4,10.2c2.7,8.6,5.5,17.8,2.7,26.6c-0.4,0.3-0.7,0.4-1.2,0.7
			c-0.3-0.6-0.7-1.2-1-1.8c-0.8,0.4-1.8,1-2.6,1.4l-0.3,0.3c-0.6-1.8-1.1-3.6-1.8-5.4c-0.7-2.1-1.2-4.2-2-6.2
			c-1.2-3.4-3.2-6.7-6.6-8.1c-0.9-0.4-1.2,1.1-0.4,1.5c3.3,1.3,4.9,4.9,5.9,7.9c1.2,3.7,2.4,7.4,3.6,11.2c-0.7,0.4-1.4,0.7-2.1,1
			c0.1,0.3,0.2,0.4,0.2,0.7c-2.2,0.5-4.3,1.1-6.6,1.8c-0.2-0.3-0.3-0.4-0.3-0.6c-2.4,0.6-4.9,1-7.2,1.2c0.2,0.4,0.2,0.9,0.3,1.2
			l-0.6,0.2v-0.2c-0.5-2.4-1-4.7-1.6-7.2c-0.4-2.1-0.7-4.2-1.5-6.2c-0.6-1.8-1.6-3.4-3-4.6c-1.4-1-3.3-1.6-4.9-1
			c-1,0.3-0.5,1.8,0.4,1.5c1.7-0.5,3.3,0.3,4.3,1.4c1.2,1.2,1.8,2.9,2.2,4.6c1,3.9,1.8,7.9,2.7,11.8v0.1c-1.6,0.4-3,0.7-4.7,1.1
			c-0.2-0.3-0.3-0.4-0.4-0.7l-1.6,0.7c-2.4,1-4.9,1.8-7.5,1.8c0.2,0.1,0.3,0.2,0.4,0.3c-4.1,0.4-8.2,0.3-11.7-2
			c-1.8-0.1-3.2-0.7-4.2-1.7c-1.2-0.4-2.4-0.9-3.6-1.4c-2.6-0.4-5-1-7.5-1.7c-7.2-1.2-13.3-5.7-19.2-9.7
			C520.5,529.2,520.9,508.6,521.7,488.2L521.7,488.2z M576.9,504.8c-0.1-0.4-0.1-0.7-0.2-1.2c0.3,0.3,0.4,0.4,0.7,0.4
			C577.3,504.3,577,504.6,576.9,504.8z M506.6,356.2c-1.2-0.6-2.3-1.2-3.5-1.8c7.7-1.8,15.5-2.9,23.4-2.7c3.3,0.4,6.3,1.2,9.4,2.2
			c4.1,1.5,7.9,3.5,12.1,4.5c1,0.3,2,0.4,3,0.7c1.8,1,3.6,2.1,5.2,3.3l-5.7,2.9c-2.2,2.5-4.7,4.9-7.4,6.7c-4.2,2.7-7.3,6.9-11.3,10
			c-8.1,6-16.3,12-24.6,17.6c-2.7,1.4-5.2,2.7-7.9,4.1c0,0-27.4-19.2-27.5-35.2c3.5-2.9,7.7-5.2,11.8-7c6.9-3.1,14.9-5.6,22.7-5.3
			L506.6,356.2L506.6,356.2z M538.7,379.9c-0.3,0.3-0.4,0.6-0.6,0.8l-0.8,0.4C537.9,380.7,538.3,380.4,538.7,379.9z M542.9,376.1
			c-0.4,0.7-1,1.2-1.3,2c-0.3-0.1-0.6-0.1-0.9,0C541.5,377.6,542.2,376.9,542.9,376.1z M556.1,365.3c-0.4,0.3-0.7,0.6-1.1,0.8h-0.3
			C555.3,365.9,555.6,365.5,556.1,365.3L556.1,365.3z M558.4,409.9c-2.7,1.2-5.3,2-8.1,2.7c-6.8,0.7-13.9,1.2-20.8,1.8
			c-3.3,0.1-6.3,0.2-9.5,0.3c-2.2-0.6-4.4-1-6.7-1.2c-1.9-0.3-4.1-0.4-6.1-0.4c0.7,0.7,1.1,1.8,1.1,2.7c-6.2-0.3-12.2-1.7-18.1-3.6
			c3-2.1,6.2-4.1,9.4-5.9c1,0.2,2.9,0.3,3.8,0.4c10.7-8.7,22.4-15.9,33-24.6h0.1C558.4,370.8,558.8,400.1,558.4,409.9L558.4,409.9z
			 M519.9,484.6c-1.4-0.2-2.8-0.4-4.2-0.5c-0.4-0.6-0.7-1.1-1.1-1.7c-0.3-0.4-0.7-0.7-1.2-0.8c0-0.1-0.1-0.1-0.1-0.1
			c2.9,1.1,5.7,2.1,8.7,2.9c1.2,0.4,2.5,0.7,3.8,1c-0.4,0.3-0.7,0.7-1.1,1c-0.7-0.3-1.5-0.5-2.2-0.7v0.4c-0.9-0.3-1.8-0.6-2.7-0.7
			C519.9,485.1,519.9,484.8,519.9,484.6L519.9,484.6z M460.9,503.2c0.3-0.2,0.4-0.3,0.6-0.4c1,1.8,1.8,3.7,2.9,5.5
			c6.5-5.2,11.7-12.4,21.1-11.2c11.1,0,22.1,0.3,33.2,1c0.1,10.3,1.2,20.8,0.7,31.1c-0.3,6.6,3.3,13.1,1.8,19.6
			c-3.4,7.4-12.1,8.7-18.9,11.7c-8.2,3.6-16.4,7.2-25,9.6c-2.3,0.3-4.7,0.3-7.1,0v-0.2c-0.6,0.1-1.1,0.1-1.8,0.1
			c-0.2,0.4-0.6,0.6-1,0.3l-0.4-0.3c-0.6,0-1.2-0.1-1.8-0.1c-0.7,0-0.9-0.7-0.6-1.2c-0.5-0.3-1-0.4-1.7-0.5
			c-0.1,0.1-0.1,0.2-0.2,0.3c-2.2-0.6-4.3-1.1-6.6-1.8v-0.2c-0.6-0.2-1.2-0.3-1.8-0.4c0.4-2.8,0.7-5.7,1.2-8.4
			c0.4-2.4,1.2-5.5,3.8-6.4c0.9-0.3,0.5-1.8-0.4-1.5c-2.9,1-4.1,3.9-4.7,6.7c-0.4,1.8-0.6,3.8-0.9,5.7c-0.2,1.2-0.4,2.4-0.5,3.7
			c-2.9-0.6-6.1-1.2-8.7-2.3c-0.6-0.2-1.2-0.3-1.9-0.5v-0.4c-0.6-0.4-1.2-0.7-1.8-1.1c-0.3-0.3-0.5-0.4-0.7-0.6
			c1.7-3.7,3.3-7.4,5.1-11c1.3-2.8,3.1-5.9,6.2-7.2c0.9-0.3,0.5-1.8-0.4-1.5c-3.3,1.2-5.2,4.2-6.8,7.2c-1.8,3.7-3.5,7.5-5.2,11.2
			c-1-1-1.7-2.2-2.1-3.5l-0.7,2.5c-0.7-7,0.4-14.1,3.5-20.4c2.7-4.9,8.2-7.2,13-9.6c9.2-2.9,18.3,0.6,27.1,2.7
			c-3.6-4.9-10.2-5.4-15.6-6.9c0-2.2,0.1-4.2,0-6.5c1.6,1,3.1,2,4.7,2.9c-1.1-6.3,3.6-10.7,7.5-14.7c-0.9-0.2-2.7-0.3-3.5-0.4
			c-2.4,2.8-4.8,5.6-7.2,8.4l-4.9-9.4c-1,1.6-2.1,3-3.2,4.7c-0.3-2.7-0.4-5.3-0.7-8c0.3,0.2,0.7,0.3,1.2,0.4l0.4,4.9
			C459.1,505.7,460,504.5,460.9,503.2L460.9,503.2z M432.7,272.1c0.1,0.1,0.2,0.2,0.3,0.3c0.8-5.3,2.7-10.6,7.5-13.3l-4.1-0.9
			c3.3-2.7,5.2-5.8,6.3-9.4c0.1,0.4,0.1,0.9,0.1,1.3c-0.1,1-0.3,2,0.2,2.9c0.3,0.6,0.9,0.7,1.3,1.1c1.7,1.1,2.6,2.9,3.2,4.7
			c1,2.7,1.8,5.5,2.6,8.2c0.8,2.8,1.8,5.7,3.3,8.2c2,3.4,5.2,6.2,8.7,7.7c5.1,2.4,10.9,2.9,16.4,2.3c3.3-0.4,6.6-1.3,9.6-2.8
			c0.3-0.2,0.6-0.3,0.8-0.4c-2.6,4.9-2.7,10.7-1.7,16.6l0.6,0.1l1.8,0.2c-0.1-0.4-0.2-0.8-0.3-1.2c-0.7-3.6-1-7.4-0.4-11
			c0-1.8,0.4-3.5,1-5.2c1.6-0.9,2.9-1.9,4.2-3.1c2.7-2.7,4.7-5.7,6.2-9.2c5.5-3.6,12.5-5.6,19.6-4.6c2.7,0.2,5.2,0.7,7.7,1.8
			c0.7,1.4,1.7,2.7,2.6,4.1c-1.6-1-3.5-1.5-5.2-0.9c-6.6,0-10.6,2.7-17.1-0.4c-4,0.7-6.2,4.2-8.7,7.1c4.7,6.4,8.7,17,16.5,17
			c6.6,0,13.2-7.9,17.1-15.8c0.3-1.2,0.3-2.6-0.2-3.6c1.7,1.8,3.5,3.5,5.6,4.9c1.2,0.8,2.7,1.5,4.2,1.9c1.8,3.3,2.9,6.6,3.6,10.1
			c-0.3-3.3-1-6.4-2.2-9.7c0.7,0.3,1.4,0.4,2.1,0.4c2.1,0.4,4.2,0.4,6.4,0.4c5.6,0.1,11.3-1,16.3-3.7c2.7-1.4,5.1-3.5,6.3-6.3
			c2.6-5.9,4.3-12,5.7-18.3c0.3-1,0.7-1.8,1.2-2.7c-0.3-1.3,0.8-2.5,1.9-2.7c0.2-0.1,0.4-0.2,0.6-0.2c0.6-0.3,1.4-0.3,1.9,0.1
			c3.5,1.7,5.5,6.7,6.9,10c1.8,4.1,3.5,8.4,4.1,12.7c0.2,1-0.3,1.8-0.9,2.2c0.9,7.4-0.9,15.4-2.9,22.3c-0.7,2.7-1.8,6.2-3.3,9.3
			c-1,3.4-3.3,6.4-5.9,8.7c-0.4,0.4-1,0.6-1.7,0.6c-0.3,0.4-0.4,0.9-0.7,1.2c-3.2-0.5-6.3-0.8-9.5-1c-6.3,5.6-14,9.8-21.3,14.5
			c0.1,0.3,0.1,0.7-0.2,1c-1.9,3.8-4.9,6.9-8.2,9.7c-0.3,0.4-0.7,1-1.2,1c-4.1,3.3-8.2,6.3-12.8,8.7c-10.2-1-20.4,0.4-30.6,2.9
			c-4.2-1.8-8-4.2-11.7-6.9c0.3,0,0.6,0,0.9-0.1c-0.2-0.4-0.5-1.5-0.7-1.9c-1.1-0.2-2.2-0.3-3.4-0.4c-2.9-2.2-5.3-4.8-7.2-7.7
			c-0.2-0.3-0.2-0.6-0.2-0.8c-6.6-3.8-13.6-7.3-19.3-12c-2.7,0.1-5.2,0.3-8,0.7c-1.2-1.4-2.4-2.9-3.5-4.3
			c-4.7-4.9-6.1-11.6-8.7-17.5c-2.9-8.1-2.2-16.9-0.5-25.1c-3.9,0.9-4.7,4.8-5.7,8C430.4,281.4,431.6,275.6,432.7,272.1L432.7,272.1
			z"/>
		<path class="st0" d="M669.1,437c1-0.6,1.8-1.6,2.5-2.4c1,0.8,2.9,1.2,2.9,2.9c-0.7,0.8-1.8,0.4-2.7,0.3c0,1-0.1,2.1-0.3,3.2
			c-0.7-0.5-1.6-1-2.2-1.7l-1.6,1.4c-0.4-0.7-0.7-1.7-1.1-2.4c-1,0-1.9-0.1-2.9-0.1c0.9-1.4,1.8-2.7,2.7-4.1
			C667.4,435.1,668,436.4,669.1,437 M599.2,409.3c0.6-15.3,3.8-30.2,7.1-45.1c-1.6-2.7-5.2-3.7-6.4-6.6c-0.4-1.2-0.1-3.3,1.6-3
			c5.2,0.6,9.8,4.5,15,2.7c9.8-1.5,19.8-0.6,29.6,0.7c2.9-1.6,6.3-5,9.7-2.9c1.9,4-3,5.5-5.2,7.4c-0.5,8.7-0.6,17.8-0.7,26.6
			c-0.8-0.2-1.7-0.2-2.5-0.3c-0.4-8.9,0.3-17.8,0.7-26.9c2.1-1.6,4.7-2.7,5.7-5.2c-2.3,0.7-4.5,2-6.3,3.7
			c-6.7-1.7-13.6-1.3-20.4-1.6c-4.7-0.3-9.2,0.7-13.7,1.3c-3.6-1.4-7.2-2.9-11.1-3.5c1.1,3.3,4.7,4.1,6.7,6.5v1.5
			c-3.4,14.8-6.2,29.9-7.2,45.1C602.2,412.7,598.5,411.2,599.2,409.3"/>
		<path class="st0" d="M614.2,365.2c0.7-0.7,1.6-1.4,2.3-1.9c1.6,0.1,1.7,1.9,2.2,2.9c-1.8,0.2-3.1,1-4.2,2.5l-1-1.5l-2.5,1
			c0.3-0.9,0.5-1.8,0.8-2.7c-0.4-0.4-1.1-1-1.5-1.4C612,363.4,613.1,364,614.2,365.2 M634.1,364.3c1.4,0.6,2.2,2.1,3.2,3.3
			c1.8-0.7,3-2.3,4.2-3.8c1.3,1.2,2.6,2.7,3.2,4.3c-1-0.2-2-0.4-2.9-0.6c-0.2,1-0.3,2.1-0.4,3.1c-1-0.6-1.8-1.1-2.7-1.8
			c-0.7,1-1.6,1.8-2.2,2.7c-0.3-0.9-0.6-1.8-1-2.7c-0.6,0-1.9,0.2-2.6,0.2C633.4,367.4,632.8,365.4,634.1,364.3 M625,365
			c-3.5,1.9-6.8,5.3-6.9,9.7c1.9,0.3,3.8,1,5.7,0.6c3.4-1.5,6.2-5.1,5.5-9.2C628,365.5,626.5,364.7,625,365 M625.2,372.4
			c-0.2,1.2-2.1,2.1-3.1,1.4C622,372.5,624.3,372,625.2,372.4 M626.5,369.3c-1.1,1.8-3.3,1.8-4.9,2.2c0.8-1.7,1.8-3.2,3.4-4.1
			C626.1,366.6,627.9,368.4,626.5,369.3 M640,377.8c1.5-0.6,2.7-1.3,4.2-1.9c-1.9,3.3-6.3,5-9.5,2.9c-0.7-0.4-2.7-1.3-1.5-2.5
			C635.5,375.6,637.5,378.8,640,377.8 M623.7,377.9c2.4,0.4,4.7,0.2,6.7-1.5C629.6,379.3,625.5,381,623.7,377.9 M617.5,377.4
			c-1.8,2.1-5.8,1.9-6.8-0.8C612.9,377.4,615.2,377.5,617.5,377.4 M595.7,389.8c0.4-3.1,1.1-6.2,2.1-9.2c0.3-0.9,0.7-1.2,1.8-1.2
			c-0.1,3.5-0.9,6.8-1.5,10.2C597.5,389.8,596.3,389.8,595.7,389.8 M704.3,414.1c-1.1-3.3-5-3.8-7.9-4.5c-4.1-0.5-8-0.6-12-1.1
			c0.4-1,1.6-1.9,1.4-3.2c-1.6-2.9-5-2.5-7.7-2.7c-12.5-0.1-25,0.4-37.5,0.2c-1.4,0.2-3,0.2-4.2,1.2c-2.4,2.7-5.7,3.8-8.9,4.7
			c0.3-1.6,1.2-2.7,1.9-3.9c0.4-1-0.7-1.2-1.2-0.7c-1.7,1-3.1,2.2-4.9,2.8c0.2-1.1,0.4-2.2,0.5-3.4c-2.1,1.2-4.1,2.7-6.4,3.4
			c0.7-1.2,1.8-2.3,2.7-3.5c-2.2,0.3-4.1,1.8-6.3,2.1c0.9-1.6,1.9-2.9,2.7-4.4c-1.7,0.6-3.3,1.3-4.9,1.9c2.7-4.2,6.2-8,10.2-10.5
			c3.8-2.2,7.8,0.3,11.3,1.9c2.7,1.5,6.2,1,8.3-1.2c-1.9,0.4-3.9,2.4-5.9,1.3c-2.9-1.6-6.1-3.1-9.3-4.1c-1.7-3.5-1.9-8-4.9-10.6
			c-3.6,0.4-7.1,1.9-10.1,3.9c-1.5,0.7-1.8,2.7-2.4,4.1c-1-0.1-1.8-0.1-2.7-0.2c1.2,0.5,2.4,0.9,3.7,1.2c0.7,3.2,1.4,6.4,2.9,9.4
			c-1.6,1.6-2.9,3.3-3.6,5.4c2.4,0.6,4.1,2.9,6.5,3.4c1.7,1,3.5,0,5.2-0.4c2.2,0.3,4.5,0.7,6.2,2.3c3.6,0.8,7.6-1,10.1-3.8
			c12.4,0.4,24.7-0.3,37.1-0.3c2.7,0.2,5.7-0.3,8.1,1.4c-1.2,1.5-3.4,2.3-4.1,4.2c1.8,0.2,3.5,0.2,5.2,0.3c5.7,0.7,11.7,0.1,17,2.9
			c-0.7,4.2-5.5,3.3-8,5.7c1.9,0.7,3.9,1.2,5.7,2.4c-2,5.5-8.4,3.6-12.6,4.8c-0.2,3.5,4.2,2.2,6.3,2.3c3.8-1.2,8.5-2.9,10-7.2
			c0.4-1.6-1.2-2.1-2.1-2.9C701.5,417.7,703.8,416.3,704.3,414.1 M620.7,381.4c1.1,0.1,1.5,2.2,0.2,2.2
			C619.7,383.6,619.5,381.4,620.7,381.4 M622,391.3c-0.4-2.5-0.7-5.1-1.8-7.4c0.4,0,1,0.1,1.4,0.1c1.6,1.9,2.1,4.7,3.3,6.8
			C624.1,391.1,623,391.2,622,391.3 M620.8,392.2c-2.2,1.3-4.2,2.9-6.2,4.9c-1.3-3.4-2.7-7.2-2.7-10.8c1.5-2.4,4.2-3.3,6.7-3.8
			C619,385.8,619.7,389,620.8,392.2"/>
		<path class="st0" d="M635.6,381.4c-2.1,2.3-5.2,2.8-8,1.7c-0.2-0.4-0.3-1.4-0.4-1.8c1.6,0.4,2.9,1,4.5,1.2
			C633,382.1,634.4,381.6,635.6,381.4 M641.1,384.4c-1.6,2.1-4.6,2.9-6.7,1.2C636.8,386.2,638.9,385.4,641.1,384.4 M647.9,394.8
			c0.2-0.4,0.4-1.3,0.5-1.8c1.9-0.1,3.8,0,5.7,0.2c0.1,0.4,0.3,1,0.3,1.3C652.3,395.5,650,395.6,647.9,394.8 M623.1,396.1
			c1.2-0.9,2.9-2.9,4.2-1.2c-2,2.1-4.3,4.1-7.2,4.8C620.5,397.8,622,397.2,623.1,396.1 M625.7,400.1c1.6-2.2,3.8-3.5,6.1-4.6
			C631.9,398.5,628.1,400.1,625.7,400.1 M653.1,398.8c-4.9,0.4-9.7,0.3-14.6-0.4c1.8-2.9,5.6-2.2,8.5-2.2c2.9,0.3,6.3-0.9,9,0.9
			C655.3,397.8,654.4,398.8,653.1,398.8 M634.1,397.8c0.7,2.7-2.1,3.7-4.2,3.5C631.2,399.8,632.3,398.1,634.1,397.8 M641.1,464.6
			c2.1,1,4.3,0.5,6.5,0.3c0.1,0.6,0.3,1.8,0.3,2.3c0.5,0,1.6,0.1,2.1,0.2c1-2.8,1.8-5.7,2.2-8.7c1.9,1.1,3.9,2.4,6.1,2.9
			c3,0.7,6.3,0.4,9.4,0.3c0.4,2.7,0.8,5.2,1.2,8c-2.4,0.2-5.2,0.1-7.2-1.4c-1.4-1.1-2.5-2.7-4.2-3.3c-0.2,4.2,4.2,5.7,7.3,7.1
			c4.2,0.3,8.7-0.4,11.7-3.6c3.2-3.3,7-7.1,11.9-6.3c-0.3,2.2-2.9,2.5-3.9,4.2c-1.4,2-2.7,4.2-4.4,5.7c-3.5,3.1-8,4.7-12.5,5
			c-1.2-0.7-1.4-2.6-2.2-3.8c0.2,1.2,0.4,2.3,0.6,3.5c-1,0.1-1.9,0.2-2.9,0.2l0.3,1.8c2.7,1.1,5.7,0.4,8.6,0.3
			c0.3,3.7,0.6,7.4,1.2,11.1h2.2c0.7-4.1-1-8-1-12c1.8-1,3.6-2.2,5.5-3c6.2,1.2,12.6,2.7,19,2c3.6-0.9,7.2-3.1,8.8-6.6
			c1-1.7-0.5-3.1-1.2-4.5c4.7-8.7,10-17.2,11.5-27.2c-1-2.2-3.4-3.3-5.5-3.8c-4.7-0.5-9.4-1.7-14.1-0.7c-2.6,0.6-3.7,3.3-4.4,5.6
			c-2.4,6.6-4.8,13.4-8.2,19.5c-3.3,1-6.3,2.8-9.2,4.9c-1.8,0.4-3.8-0.8-5.7-1.1c-0.4-3.5-0.4-7.2,0.7-10.7c0.3-1.6,2-0.7,2.9-0.7
			c5.5,1,11.7-1.8,14.1-7.2c1.8-3.8-0.3-8.7-3.6-10.7c-2.7-1.7-5.7-2.2-8.7-3.3c2.9-3.4,6.4-6.2,8.7-10.1c0.1-0.4,0.3-1.4,0.3-1.9
			c-3.3-2.4-6.6,1.1-10,1.6c0.3-4.3-3.3-7.4-6.5-9.4c-3-1.1-6.7-1.8-9.7,0.2c-4.2,2.2-6.9,6.6-11.5,8c-1.6,0.6-2.9-0.7-4.2-1.3
			c0.2,2.1,0.4,4.2,1,6.2c-0.4,0-1.2-0.2-1.8-0.2c0.5,2.9,1.5,5.8,2.8,8.6c-3.2,5.2-2.8,11.4-1.6,17.1c0.9,3.3-0.4,6.6-2.7,8.7
			c-1.2-0.8-2.7-1.7-4.1-2.2C636,459.8,638.1,463.4,641.1,464.6 M711.1,437.5c0.3,3.3-0.8,6.2-2.1,9.1c-2.7,6.3-5.8,12.4-9.6,18.1
			c-0.7,0.7-1.1,1.9-2.1,2.1c-2.4-0.3-4.7-1-6.9-1.8c0.3-1.1,0.5-2.2,0.7-3.3c2.1,0.7,4.1,1.7,6.2,2.2c1.2-0.6,1.7-2.4,2.4-3.6
			c3.4-6.9,7.9-13.3,10-21c-3.9-1.5-8-0.4-12-0.7c0.4-2.1,2.7-2.2,4.2-2.2C705.1,436.3,708.1,437,711.1,437.5 M684.5,470.1
			c4.7,1.4,9.4,3.4,14.4,3.4c3-0.1,4.7-3.3,7-4.8c-0.1,3.9-4.2,5.2-7.1,6.3c-5.5,0.6-11.2-0.5-16.6-1.7
			C683,472.3,683.7,471.4,684.5,470.1 M687.5,467c3.6-0.1,6.9,2.1,10.6,1.9c2.7-1.8,4.2-4.8,6-7.5c4-7.4,8-14.8,9.7-23.1
			c0.4,0.3,1.1,0.9,1.4,1.1c0.5,2.9-0.8,5.7-1.8,8.4c-2.9,6.7-6.4,13-10.1,19.2c-1.2,2.1-2.9,4.2-5.5,4.4c-4-0.6-7.8-1.8-11.7-3.1
			C686.3,467.7,687.1,467.2,687.5,467 M697.3,463.2c-2.9-1.2-5.8-2.5-8.9-3.2c3.7-6.4,6.1-13.6,8.7-20.6c4.1-0.7,8.4-1.6,12.2,0.3
			C706.2,448.1,701.5,455.6,697.3,463.2 M671.5,469.1c-0.2-1.1-0.2-2.2-0.3-3.3c1.1,0.3,2.2,0.4,3.4,0.7
			C673.9,467.8,672.8,468.9,671.5,469.1 M655.9,457.9c-1.7-1-4-1.9-3.5-4.2c0.4-5.7,0.2-12.2,3.7-17.1c1.1-1.8,1-4.1,2.6-5.5
			c-0.7-2-1.3-4.2-1.5-6.3c2,0.4,3.5,2.1,4.7,3.7c-1-0.3-1.9-0.6-2.9-0.8c0.4,1.6,1.4,2.7,2.3,4.1c1-0.4,1.8-0.7,2.9-1.1
			c1.2-2.4,4.1-2.2,6.2-3.3c2.9-1,5.5-2.8,8.3-3.6c-1.8,2.6-4.2,4.3-6.3,6.6c-0.4-0.2-1.2-0.4-1.6-0.4c0.5,1,0.8,2,1.6,2.8
			c3.4,1.3,7.2,1.7,10.4,3.6c2.2,1.8,4.5,5.2,2.9,8.2c-3.2,4.9-9.8,6.7-15,4.2c-2.1-1.2-4.1-2.9-6.3-3.6c-0.2,2.9,2.9,4.2,4.9,6
			c-0.7,2.7-1.2,5.3-1.8,8.1C663.6,459.6,659.3,459.8,655.9,457.9 M647.4,462.6c-2.4,1.5-5.3,0.6-7.4-1.1c4.9-1.1,7.4-7.2,6.2-12
			c-1.4-6.1-1.6-13.3,2.9-17.8c-0.7-1-1.2-2.1-1.8-3.3c1.6-0.4,2.9-1.1,3.9-2.4c-1.1-1-2.2-2.1-3.3-3.3c2.5-1.9,5.3-3.3,7.7-5.4
			c1.8-1.4,3.4-3.1,5.5-4.1c4.1-1.2,8.7,0.9,10.7,4.9c0.7,4.9-4.7,6.3-8,7.9c-1.8-1.9-3.5-4.2-6.2-4.7c-1.7-0.4-2.9,1.2-3.6,2.7
			c-0.4,2.7,0.7,5.4,1.8,7.9c-2.2,2.7-4.6,5.7-5.1,9.3c-1,5.9-1,12-1.6,17.8C648.8,460.4,648.7,462.1,647.4,462.6 M615.1,419.8
			c1.4-2.9,2.9-5.8,4.9-8.4c0.6-1,1.8-1.6,2.9-1.6c-0.2,2.7-1,5.2-1,8c3.9-0.5,7.7,0.7,10.8,3c1.7-1.8,2.8-4.3,5.2-5.2
			c0.3,1.2,1,2.5,0.5,3.8c-0.9,2.9-1.6,6.7-4.7,7.9c0.7-1.9,1.2-4,1.8-6c-1,0.7-1.9,1.7-2.9,2.7c-1.8-1.8-3.6-3.7-6.2-4.1
			c-2.3-0.5-4.7,0.2-6.9,0.8c0-1.3,0-2.7-0.1-4.1C618.2,417.8,617.1,419.7,615.1,419.8 M587.9,438.9c2.5-1.2,1.6-4.9,1.1-7.1
			c1.4-1.1,2.9-2.2,3.7-4.1c0.3-1.8,0.2-3.5,0.3-5.2c2.1-1.3,6.3-3.5,3.8-6.4c-2,1.3-4,3-6.3,3.8c-2.9-0.8-5.4-2.9-8.5-3.3
			c-2.1-0.2-4.9-0.7-6.1,1.8c0.1,2.2,2.2,3.2,4,3.9c3,1.2,6.3,0.8,9.6,1.1c0.1,1.1,0.4,2.2,0.1,3.4c-0.8,1-1.8,1.8-2.8,2.7
			c-3.3-2.6-7.2-4.9-11.4-4.1c-2.1-0.2-2.2,3-0.7,4.1c3.2,2.5,7.4,2.2,11.1,2.7c0.8,0.7,1.4,1.8,1.4,2.9c-0.5,1.5-2.1,1.9-3.4,2.1
			c-3.5,0-6.8-1.3-10.2-2.2c-0.6,1.8,0.6,2.9,2,3.4C579.4,439.7,583.9,440.1,587.9,438.9 M576.6,427.1c1.9,0.4,3.9,1,5.5,2.2
			C580.3,429.1,577.3,429.4,576.6,427.1 M578.3,418.4c2.4,0.2,4.9,0.5,7,2C582.8,420.8,580.4,420,578.3,418.4 M603.1,426.7
			c2.4-3.7,6.7-7.4,11.2-5.5c0.3,1,0.6,1.9,0.7,2.9c1,0.1,2.1,0.2,2.9-0.6c-0.3,0.4-0.6,1.1-0.7,1.5c-1.1,0.1-2.3,0.2-3.5,0.2
			c-0.3-1-0.7-1.8-1-2.8c-3.4,0.6-6.5,2.9-8,6.3c-1,2.2-0.4,4.8-0.4,7.2C601.4,433.8,601.8,429.5,603.1,426.7 M624.9,428.2
			c1.2-0.3,2.6-0.7,3.8-1.1c-0.4,0.7-0.8,1.3-1.2,2c-1.2,0-2.4-0.1-3.6-0.2c-0.2-1.2-0.3-2.4-0.4-3.5
			C624.6,425.6,624.5,427.1,624.9,428.2"/>
		<path class="st0" d="M608.7,427c0.7-1.6,2.5-1.2,3.7-0.7c0.1,1,0.1,2.1,0.1,3.1c-1.7,0.4-1.8-1.2-2.3-2.4c-0.2,0.7-0.4,2-0.4,2.7
			C608.6,429.1,608.2,428.2,608.7,427 M569.4,460.4c5.4,1.7,10.2,4.7,15.8,5.7c4.3,1.8,9.2,2.3,13.7,3.4c1,0.3,1.9,0.3,2.9,0
			l-0.4-4.1c0.5-0.2,1.7-0.4,2.2-0.5c1,2.2,2.1,4.3,3.4,6.4c-2.5,0.3-5.2-0.7-7.4,0.7c3.8,1,7.7,1,11.6,2.1c1,0.4,2.2,1.2,2.2,2.4
			c-1,1.6-2.7,2.7-2.9,4.7c4.1,0.1,8.2-2,12,0.2c-0.5,1.6-1,2.9-1.2,4.7c2,0.2,4.2-0.2,6,1c-0.3,1-0.6,1.8-0.9,2.8
			c1.1-1.1,1.7-2.4,1.8-4.1c-1.3-0.7-2.7-1.2-4.2-1.6c0.4-1.8-0.2-3.6-1.1-5.1c5.3-1.2,9.9-5.5,11.9-10.8c0.6-1.4-0.2-3.1-1.8-2.7
			c-3,1.8-5.7,4.2-9.2,5.2c1.6-13.5,6.6-26.1,11-38.9c0.4-1.1,0.4-2.4,0.3-3.6c-1-0.1-1.7,0.3-2.1,1.1c-3.1,5.9-5.5,12.2-7.3,18.6
			c-6.6,0.7-13.3-1.5-18.6-5.5c-0.8-1.1-1-2.7-1.8-3.7c-1.7,2.7-2.9,5.7-4,8.7c-1.5-0.3-2.9-0.7-4.3-0.9c-1.4,0.3-2.7,1.2-3.8,1.9
			c-1-1-1.9-1.9-3.3-2.2c-4.3-1.1-8.7-2.8-13-4.2c-2.8-0.9-5.5-2.7-8.6-2.2C568.4,446.9,566.9,454,569.4,460.4 M586.4,447.3
			c0.4,4.4,1.2,8.9,1.1,13.4c-6.1-0.7-11.9-2.7-17.6-5.1c0.2-4.4,0.4-8.9,0.4-13.3C576,443,581,445.9,586.4,447.3 M631.8,468.5
			c-1.5,4.2-5.2,7.4-9.4,8.7c0.2-1.2,0.3-2.6,0.4-3.8C626.2,472.8,628.8,470,631.8,468.5 M596.9,467.7c-1.3-0.6-3.8,0-4.1-2l3.1,0.4
			C596.2,466.6,596.7,467.4,596.9,467.7 M598.8,464.6c-2.4-0.2-5.3,0.4-7.1-1.9c3.4-1.5,5.5-4.8,7.6-7.7c-0.4-0.2-1.3-0.4-1.8-0.4
			c-1.5,1.8-2.9,3.7-4.9,4.9c-0.2-2.6-0.2-5-0.2-7.5c1.1-1.5,2.9-2.1,4.3-3.2c1-0.9,2.1,0.3,2.9,0.5c-0.1,1.9,0,3.8,0.3,5.7
			c2.9-2.7,2.9-6.9,4.9-10.2c2.7,1.3,5.1,2.9,7.8,3.8c3.8,1.5,8,1.4,12,1.9c-1.8,9.4-5.3,18.5-4.3,28.2c-2,0.4-4.1,0.4-6.2,0.6
			c0.2-1.4,1-2.9,0.3-4.2c-1.6-1.2-3.4-1.9-5.2-2.9c2.2-0.9,4.3-1.8,6.5-2.9c0.2-0.4,0.4-1.1,0.6-1.5c-1.2,0.4-2.4,0.7-3.7,1.1
			c-0.1-1.8-0.2-3.7,0-5.6c1.2-1.8,4.1-2.2,4.3-4.9c-1.7,0.8-3.1,1.8-4.7,2.7c-1.4-2.5-2.5-5.5-4.9-7.2c-2.3-0.6-4.9-0.1-6.6,1.9
			c-1.9,2.2-5.1,4.6-4,8c2.3-3.3,4.6-6.8,8.1-8.7c0.9-0.5,1.8-0.4,2.4,0.4c3.4,3.8,4.3,9.2,3.6,14.1c-1.1-0.2-2.7,0.5-3.5-0.4
			c-1.1-2.2-1.6-5-3.7-6.6C602.2,463,600.7,464.7,598.8,464.6 M591,465.6c-1.1-0.5-1.1-1-0.1-1.6C592,464.6,592,465.2,591,465.6
			 M590.3,448.7c-0.4,4.2-0.4,8.7-0.2,13c-0.3-0.2-0.7-0.3-1.1-0.4c-0.8-4.2-0.5-8.8-1.1-13.3C588.7,448.1,589.6,448.4,590.3,448.7
			 M589.1,463.2c0.1,0.4,0.2,1.2,0.3,1.8c-5.7-1.5-11.3-2.9-16.8-5.2c-0.7-0.3-1.5-0.7-2-1.4C576.7,459.6,582.8,461.5,589.1,463.2"
			/>
		<path class="st0" d="M608.1,437.3c-0.6,0-1.7,0-2.2-0.1c-0.3-1.6-0.3-2.9-0.1-4.5c0.4,0.2,1.4,0.4,1.8,0.4
			C607.7,434.6,607.9,435.9,608.1,437.3 M612.6,440.5l-2.7-1.8l-0.2-4.5c0.4,0.2,1.2,0.3,1.8,0.4C612,436.6,612.2,438.6,612.6,440.5
			 M616.8,441.4c-2.1-1.3-2.8-4-2.6-6.4C617.1,435.7,616.7,439,616.8,441.4 M621.8,440.5c-2-0.6-3-2.2-2.9-4.3
			c0.4,0.1,1.2,0.2,1.8,0.2C621.1,437.6,621.5,439,621.8,440.5 M626.2,439.9c-0.8-0.4-1.7-0.8-2.5-1.2c-0.1-0.5-0.2-1.6-0.2-2.1
			C624.7,437.4,625.4,438.8,626.2,439.9 M265.6,509.9c-4.8-4.9-10.4-9.2-16.6-12.2s-13.2-4.9-20.1-4.2c-4.1,0.4-7.9,1.7-11.4,3.6
			c0.3-0.1,0.6-0.2,1-0.3c-13.7-0.1-26.9-4.4-40.5-5.7c-1-0.1-1.9,0.9-1.9,1.9c0,1.1,0.8,1.8,1.9,1.9c13.3,1.2,26.4,5.6,39.9,5.7
			c1.5,0,2.8-1.1,4.2-1.7c1.2-0.5,2.5-0.9,3.7-1.2c2.5-0.6,5.1-0.7,7.7-0.6c5.2,0.3,10.3,2,14.9,4.5c5.4,2.8,10.2,6.6,14.5,11
			C264.6,514.2,267.2,511.7,265.6,509.9z M591,490.5c5.7,2.2,11.1,4.9,16.5,7.6c1.3,0.7,2.7,1.2,4.2,1.8c1.3,0.5,2.7,1,4.2,0.8
			c1.6-0.2,3.2-0.7,4.7-1.1c1.5-0.4,3-0.7,4.6-1c6.2-1.2,12.5-2.2,18.8-2.7c6.3-0.4,12.5,0.1,18.6,0.6c12.5,1.1,24.9,2.5,37.4,3.1
			c12.6,0.5,25.2,0.3,37.5-1.9c0.7-0.2,1.2-0.3,1.9-0.3c0.7,0.1,1.3,0.2,1.9,0.3c1.2,0.3,2.6,0.4,3.7,0.8c2.6,0.7,4.9,1.6,7.3,2.7
			c4.9,2.2,9.6,4.9,14.5,7.2c1.2,0.6,2.5,1.1,3.7,1.8c0.9,0.4,2,0.3,2.6-0.7c0.4-0.7,0.3-2.2-0.7-2.6c-9.9-4.2-19.1-10.8-29.8-12.6
			c-1.3-0.3-2.9-0.6-4.3-0.4c-1.6,0.2-3.2,0.5-4.7,0.8c-3.1,0.4-6.2,0.8-9.2,1.1c-6.2,0.5-12.5,0.6-18.6,0.5
			c-12.6-0.3-25.2-1.5-37.7-2.7c-6.2-0.6-12.4-1.3-18.6-1.3c-6.4,0-12.7,0.7-19.1,1.8c-3.2,0.5-6.3,1.1-9.5,1.8
			c-1.6,0.4-3.2,0.7-4.7,1.1c-1.3,0.3-2.4-0.1-3.6-0.5c-5.6-2.2-10.7-5.2-16.3-7.6c-1.5-0.6-2.9-1.2-4.4-1.8c-1-0.4-2,0.4-2.3,1.2
			C589.4,489.3,590.2,490.3,591,490.5L591,490.5z"/>
	</g>
</g>
<g>
	<path d="M76.7,114.2c0.9,0.9,1.3,2.1,1.3,3.5v28.7c0,1.5-0.4,2.7-1.3,3.5c-0.9,0.9-2,1.3-3.3,1.3c-1.6,0-2.8-0.5-3.7-1.6
		l-16.3-20.4v17.1c0,1.5-0.4,2.7-1.2,3.5c-0.8,0.9-1.9,1.3-3.3,1.3c-1.4,0-2.5-0.4-3.3-1.3c-0.9-0.9-1.3-2.1-1.3-3.5v-28.7
		c0-1.4,0.4-2.6,1.3-3.5c0.9-0.9,2-1.3,3.3-1.3c1.5,0,2.7,0.5,3.6,1.6l16.3,20.3v-17.1c0-1.5,0.4-2.6,1.3-3.5
		c0.8-0.9,1.9-1.3,3.3-1.3S75.8,113.3,76.7,114.2z"/>
	<path d="M109.6,125.3c0.9,0.8,1.3,1.9,1.3,3.2v18.6c0,1.3-0.4,2.3-1.3,3.1c-0.9,0.8-2.1,1.2-3.5,1.2c-1.3,0-2.3-0.3-3.2-1
		c-0.8-0.7-1.3-1.6-1.3-2.8c-0.8,1.3-1.9,2.3-3.1,3c-1.3,0.7-2.7,1-4.4,1c-3.4,0-5.9-0.9-7.6-2.8c-1.6-1.9-2.5-4.7-2.5-8.6v-11.6
		c0-1.4,0.4-2.4,1.3-3.2c0.9-0.8,2-1.2,3.5-1.2c1.5,0,2.6,0.4,3.5,1.2c0.9,0.8,1.3,1.9,1.3,3.2v11.8c0,2.6,1.1,3.9,3.3,3.9
		c1.3,0,2.3-0.5,3.2-1.4c0.8-0.9,1.2-2.1,1.2-3.7v-10.6c0-1.4,0.4-2.4,1.3-3.2c0.9-0.8,2-1.2,3.5-1.2
		C107.6,124.1,108.7,124.5,109.6,125.3z"/>
	<path d="M140,143.5c0.5,0.6,0.8,1.5,0.8,2.5c0,1.4-0.7,2.5-2.1,3.3c-1.2,0.6-2.7,1.1-4.3,1.5c-1.7,0.4-3.2,0.6-4.6,0.6
		c-2.9,0-5.5-0.6-7.7-1.7c-2.2-1.1-3.9-2.7-5.1-4.8c-1.2-2.1-1.8-4.5-1.8-7.3c0-2.7,0.6-5,1.7-7.1c1.1-2.1,2.7-3.7,4.7-4.9
		c2-1.2,4.3-1.7,6.9-1.7c2.5,0,4.6,0.5,6.5,1.6c1.9,1.1,3.3,2.6,4.3,4.6c1,2,1.5,4.3,1.5,6.9c0,0.8-0.2,1.5-0.6,1.9
		c-0.4,0.4-0.9,0.7-1.6,0.7h-14.2c0.3,1.7,0.8,3,1.7,3.7c0.9,0.8,2.1,1.1,3.8,1.1c0.9,0,1.7-0.1,2.5-0.3s1.6-0.5,2.5-0.8
		c0.5-0.2,1.1-0.4,1.6-0.6c0.5-0.2,1-0.2,1.4-0.2C138.8,142.6,139.4,142.9,140,143.5z M125.8,131.6c-0.8,0.8-1.2,2-1.3,3.5h8.4
		c-0.2-3.2-1.6-4.7-4.1-4.7C127.5,130.4,126.5,130.8,125.8,131.6z"/>
	<path d="M149.6,150.9c-1.6-0.4-3.1-0.9-4.4-1.7c-0.5-0.3-0.9-0.7-1.2-1.3c-0.3-0.6-0.4-1.3-0.4-2c0-1,0.3-1.8,0.8-2.4
		c0.5-0.6,1.2-0.9,2-0.9c0.5,0,1,0.1,1.5,0.2c0.5,0.1,1,0.3,1.7,0.6c1.1,0.4,2.2,0.7,3,0.9c0.9,0.2,2,0.3,3.4,0.3
		c1,0,1.7-0.1,2.3-0.4c0.6-0.3,0.8-0.7,0.8-1.2c0-0.4-0.1-0.7-0.4-0.9c-0.3-0.2-0.8-0.4-1.5-0.6c-0.8-0.2-2-0.5-3.8-0.8
		c-3.2-0.6-5.5-1.5-6.9-2.8c-1.4-1.2-2.1-3-2.1-5.2c0-1.6,0.5-3.1,1.5-4.5c1-1.3,2.4-2.4,4.2-3.1c1.8-0.8,3.8-1.1,6-1.1
		c1.6,0,3.2,0.2,4.7,0.6c1.5,0.4,2.9,0.9,4.1,1.7c1.1,0.6,1.7,1.7,1.7,3.1c0,1-0.3,1.8-0.8,2.5c-0.5,0.7-1.2,1-2,1
		c-0.9,0-2-0.3-3.3-0.9c-0.9-0.4-1.6-0.7-2.3-0.9c-0.7-0.2-1.4-0.3-2.3-0.3c-0.9,0-1.6,0.1-2.1,0.4c-0.5,0.3-0.8,0.7-0.8,1.2
		c0,0.6,0.3,1,1,1.3c0.7,0.3,2.1,0.7,4.2,1.1c3.5,0.6,5.9,1.5,7.4,2.8c1.4,1.2,2.1,3,2.1,5.3c0,2.6-1.1,4.7-3.3,6.3
		c-2.2,1.6-5.1,2.3-8.7,2.3C153.2,151.5,151.2,151.3,149.6,150.9z"/>
	<path d="M190.5,147.8c0,1.3-0.5,2.2-1.5,2.8c-1,0.6-2.3,0.9-4.1,0.8l-1.5-0.1c-3.2-0.2-5.7-1.2-7.3-2.9c-1.7-1.7-2.5-4.1-2.5-7.1
		v-9.5H172c-2.9,0-4.3-1.2-4.3-3.5c0-2.3,1.4-3.5,4.3-3.5h1.6v-3.5c0-1.4,0.4-2.4,1.3-3.3c0.9-0.8,2-1.2,3.5-1.2
		c1.5,0,2.6,0.4,3.5,1.2c0.9,0.8,1.3,1.9,1.3,3.3v3.5h3c2.9,0,4.3,1.2,4.3,3.5c0,2.4-1.4,3.5-4.3,3.5h-3V142c0,0.7,0.2,1.3,0.6,1.7
		c0.4,0.5,0.9,0.7,1.6,0.8l1.6,0.1C189.3,144.7,190.5,145.8,190.5,147.8z"/>
	<path d="M212.7,124.9c0.7,0.7,1.1,1.6,1.1,2.9c0,1.4-0.3,2.5-1,3.1c-0.7,0.6-1.9,1.1-3.6,1.2l-1.6,0.2c-1.8,0.2-3.1,0.8-3.8,1.7
		c-0.8,0.9-1.2,2.2-1.2,3.7v9.2c0,1.5-0.5,2.6-1.4,3.3c-0.9,0.7-2.1,1.1-3.4,1.1c-1.4,0-2.5-0.4-3.4-1.1c-0.9-0.7-1.4-1.8-1.4-3.3
		v-18.6c0-1.4,0.5-2.4,1.4-3.2c0.9-0.8,2-1.1,3.3-1.1c1.3,0,2.4,0.4,3.2,1.1c0.8,0.7,1.2,1.7,1.2,3v1c0.6-1.6,1.5-2.8,2.8-3.7
		c1.3-0.9,2.7-1.3,4.1-1.4l0.8-0.1C211,124,212,124.2,212.7,124.9z"/>
	<path d="M220.7,149.8c-2.2-1.1-3.9-2.7-5.1-4.8c-1.2-2.1-1.8-4.5-1.8-7.3s0.6-5.2,1.8-7.3c1.2-2.1,2.9-3.6,5.1-4.8
		c2.2-1.1,4.7-1.7,7.7-1.7c2.9,0,5.5,0.6,7.7,1.7c2.2,1.1,3.9,2.7,5.1,4.8c1.2,2.1,1.8,4.5,1.8,7.3s-0.6,5.2-1.8,7.3
		c-1.2,2.1-2.9,3.7-5.1,4.8c-2.2,1.1-4.7,1.7-7.7,1.7C225.4,151.5,222.9,150.9,220.7,149.8z M233.4,137.7c0-4.4-1.7-6.7-5.1-6.7
		c-3.4,0-5.1,2.2-5.1,6.7c0,4.4,1.7,6.7,5.1,6.7C231.7,144.3,233.4,142.1,233.4,137.7z"/>
	<path d="M281.9,147.8c0,1.3-0.5,2.2-1.5,2.8c-1,0.6-2.3,0.9-4.1,0.8l-1.5-0.1c-3.2-0.2-5.7-1.2-7.3-2.9c-1.7-1.7-2.5-4.1-2.5-7.1
		v-9.5h-1.6c-2.9,0-4.3-1.2-4.3-3.5c0-2.3,1.4-3.5,4.3-3.5h1.6v-3.5c0-1.4,0.4-2.4,1.3-3.3c0.9-0.8,2-1.2,3.5-1.2
		c1.5,0,2.6,0.4,3.5,1.2c0.9,0.8,1.3,1.9,1.3,3.3v3.5h3c2.9,0,4.3,1.2,4.3,3.5c0,2.4-1.4,3.5-4.3,3.5h-3V142c0,0.7,0.2,1.3,0.6,1.7
		c0.4,0.5,0.9,0.7,1.6,0.8l1.6,0.1C280.7,144.7,281.9,145.8,281.9,147.8z"/>
	<path d="M304.1,124.9c0.7,0.7,1.1,1.6,1.1,2.9c0,1.4-0.3,2.5-1,3.1c-0.7,0.6-1.9,1.1-3.6,1.2l-1.6,0.2c-1.8,0.2-3.1,0.8-3.8,1.7
		c-0.8,0.9-1.2,2.2-1.2,3.7v9.2c0,1.5-0.5,2.6-1.4,3.3c-0.9,0.7-2.1,1.1-3.4,1.1c-1.4,0-2.5-0.4-3.4-1.1c-0.9-0.7-1.4-1.8-1.4-3.3
		v-18.6c0-1.4,0.5-2.4,1.4-3.2c0.9-0.8,2-1.1,3.3-1.1c1.3,0,2.4,0.4,3.2,1.1c0.8,0.7,1.2,1.7,1.2,3v1c0.6-1.6,1.5-2.8,2.8-3.7
		c1.3-0.9,2.7-1.3,4.1-1.4l0.8-0.1C302.4,124,303.3,124.2,304.1,124.9z"/>
	<path d="M328.3,126.9c2,2,2.9,4.9,2.9,8.9V147c0,1.4-0.4,2.4-1.2,3.2c-0.8,0.8-1.9,1.2-3.4,1.2c-1.3,0-2.3-0.4-3.1-1.1
		c-0.8-0.7-1.2-1.7-1.3-2.9c-0.5,1.3-1.3,2.3-2.5,3c-1.2,0.7-2.6,1.1-4.2,1.1c-1.8,0-3.5-0.4-4.9-1.1c-1.5-0.7-2.6-1.8-3.5-3.1
		c-0.8-1.3-1.3-2.8-1.3-4.4c0-1.9,0.5-3.4,1.5-4.5c1-1.1,2.6-1.9,4.7-2.4c2.1-0.5,5.1-0.8,8.7-0.8h1.5v-0.6c0-1.3-0.3-2.2-0.9-2.7
		c-0.6-0.6-1.5-0.8-2.9-0.8c-1.5,0-3.6,0.5-6.4,1.5c-0.8,0.3-1.5,0.4-2.1,0.4c-0.9,0-1.6-0.3-2.1-1c-0.5-0.6-0.8-1.5-0.8-2.5
		c0-0.8,0.2-1.4,0.5-1.9c0.3-0.5,0.8-0.9,1.6-1.3c1.3-0.6,2.8-1.2,4.7-1.6c1.9-0.4,3.8-0.6,5.6-0.6
		C323.3,124,326.4,124.9,328.3,126.9z M320.9,143.7c0.8-0.9,1.2-2.1,1.2-3.5v-0.6h-0.9c-2.3,0-3.9,0.2-4.9,0.6
		c-1,0.4-1.5,1.1-1.5,2.1c0,0.8,0.3,1.5,0.8,2c0.5,0.5,1.2,0.8,2,0.8C319,145.1,320.1,144.6,320.9,143.7z"/>
	<path d="M360.2,125.6c1.8,1.1,3.1,2.7,4.1,4.8c1,2.1,1.5,4.5,1.5,7.2c0,2.7-0.5,5.1-1.5,7.3c-1,2.1-2.4,3.8-4.1,4.9
		c-1.8,1.2-3.8,1.7-6,1.7c-1.8,0-3.4-0.4-4.8-1.1c-1.5-0.7-2.6-1.7-3.3-3c-0.1,1.2-0.6,2.2-1.4,2.9c-0.8,0.7-1.9,1-3.3,1
		c-1.4,0-2.6-0.4-3.4-1.2c-0.8-0.8-1.3-1.9-1.3-3.2v-29.8c0-1.3,0.4-2.3,1.3-3.1c0.9-0.8,2.1-1.2,3.5-1.2c1.4,0,2.5,0.4,3.4,1.1
		c0.9,0.8,1.3,1.8,1.3,3v10.7c0.8-1.1,1.9-2.1,3.3-2.7c1.4-0.7,3-1,4.6-1C356.4,124,358.5,124.5,360.2,125.6z M355,142.6
		c0.9-1.2,1.3-2.8,1.3-5c0-2.1-0.4-3.7-1.3-4.8c-0.9-1.1-2.1-1.7-3.8-1.7c-1.7,0-3,0.6-3.9,1.7c-0.9,1.1-1.3,2.7-1.3,4.9
		c0,2.1,0.4,3.8,1.3,4.9c0.9,1.1,2.2,1.7,3.8,1.7C352.8,144.3,354.1,143.7,355,142.6z"/>
	<path d="M391.6,126.9c2,2,2.9,4.9,2.9,8.9V147c0,1.4-0.4,2.4-1.2,3.2c-0.8,0.8-1.9,1.2-3.4,1.2c-1.3,0-2.3-0.4-3.1-1.1
		c-0.8-0.7-1.2-1.7-1.3-2.9c-0.5,1.3-1.3,2.3-2.5,3c-1.2,0.7-2.6,1.1-4.2,1.1c-1.8,0-3.5-0.4-4.9-1.1c-1.5-0.7-2.6-1.8-3.5-3.1
		c-0.8-1.3-1.3-2.8-1.3-4.4c0-1.9,0.5-3.4,1.5-4.5c1-1.1,2.6-1.9,4.7-2.4c2.1-0.5,5.1-0.8,8.7-0.8h1.5v-0.6c0-1.3-0.3-2.2-0.9-2.7
		c-0.6-0.6-1.5-0.8-2.9-0.8c-1.5,0-3.6,0.5-6.4,1.5c-0.8,0.3-1.5,0.4-2.1,0.4c-0.9,0-1.6-0.3-2.1-1c-0.5-0.6-0.8-1.5-0.8-2.5
		c0-0.8,0.2-1.4,0.5-1.9c0.3-0.5,0.8-0.9,1.6-1.3c1.3-0.6,2.8-1.2,4.7-1.6c1.9-0.4,3.8-0.6,5.6-0.6
		C386.6,124,389.6,124.9,391.6,126.9z M384.2,143.7c0.8-0.9,1.2-2.1,1.2-3.5v-0.6h-0.9c-2.3,0-3.9,0.2-4.9,0.6
		c-1,0.4-1.5,1.1-1.5,2.1c0,0.8,0.3,1.5,0.8,2c0.5,0.5,1.2,0.8,2,0.8C382.3,145.1,383.3,144.6,384.2,143.7z"/>
	<path d="M394,160.1c-1-0.6-1.5-1.5-1.5-2.8c0-1,0.3-1.8,0.9-2.3c0.6-0.5,1.5-0.8,2.7-0.9l1.5-0.1c0.7,0,1.2-0.3,1.6-0.8
		c0.4-0.5,0.6-1.1,0.6-1.8v-22.9c0-1.5,0.5-2.6,1.4-3.3c0.9-0.7,2.1-1.1,3.4-1.1c1.4,0,2.5,0.4,3.4,1.1c0.9,0.7,1.4,1.8,1.4,3.3
		v22.2c0,3-0.8,5.4-2.4,7.1c-1.6,1.7-4.1,2.7-7.4,3l-1.5,0.1C396.4,160.9,395,160.7,394,160.1z M400.7,119c-0.9-0.8-1.4-2-1.4-3.4
		c0-1.4,0.5-2.5,1.4-3.3c0.9-0.8,2.2-1.2,3.8-1.2c1.6,0,2.8,0.4,3.8,1.2c1,0.8,1.5,1.9,1.5,3.3c0,1.4-0.5,2.5-1.4,3.4
		c-0.9,0.8-2.2,1.3-3.8,1.3C402.9,120.3,401.6,119.9,400.7,119z"/>
	<path d="M420.6,149.8c-2.2-1.1-3.9-2.7-5.1-4.8c-1.2-2.1-1.8-4.5-1.8-7.3s0.6-5.2,1.8-7.3c1.2-2.1,2.9-3.6,5.1-4.8
		c2.2-1.1,4.7-1.7,7.7-1.7s5.5,0.6,7.7,1.7c2.2,1.1,3.9,2.7,5.1,4.8c1.2,2.1,1.8,4.5,1.8,7.3s-0.6,5.2-1.8,7.3
		c-1.2,2.1-2.9,3.7-5.1,4.8c-2.2,1.1-4.7,1.7-7.7,1.7C425.4,151.5,422.8,150.9,420.6,149.8z M433.4,137.7c0-4.4-1.7-6.7-5.1-6.7
		c-3.4,0-5.1,2.2-5.1,6.7c0,4.4,1.7,6.7,5.1,6.7C431.7,144.3,433.4,142.1,433.4,137.7z"/>
	<path d="M67,208c0.5,0.6,0.8,1.5,0.8,2.5c0,1.4-0.7,2.5-2.1,3.3c-1.2,0.6-2.7,1.1-4.3,1.5c-1.7,0.4-3.2,0.6-4.6,0.6
		c-2.9,0-5.5-0.6-7.7-1.7c-2.2-1.1-3.9-2.7-5.1-4.8c-1.2-2.1-1.8-4.5-1.8-7.3c0-2.7,0.6-5,1.7-7.1c1.1-2.1,2.7-3.7,4.7-4.9
		c2-1.2,4.3-1.7,6.9-1.7c2.5,0,4.6,0.5,6.5,1.6c1.9,1.1,3.3,2.6,4.3,4.6c1,2,1.5,4.3,1.5,6.9c0,0.8-0.2,1.5-0.6,1.9
		c-0.4,0.4-0.9,0.7-1.6,0.7H51.5c0.3,1.7,0.8,3,1.7,3.7s2.1,1.1,3.8,1.1c0.9,0,1.7-0.1,2.5-0.3c0.8-0.2,1.6-0.5,2.5-0.8
		c0.5-0.2,1.1-0.4,1.6-0.6c0.5-0.2,1-0.2,1.4-0.2C65.9,207,66.5,207.4,67,208z M52.8,196.1c-0.8,0.8-1.2,2-1.3,3.5h8.4
		c-0.2-3.2-1.6-4.7-4.1-4.7C54.6,194.9,53.6,195.3,52.8,196.1z"/>
	<path d="M76.6,215.4c-1.6-0.4-3.1-0.9-4.4-1.7c-0.5-0.3-0.9-0.7-1.2-1.3c-0.3-0.6-0.4-1.3-0.4-2c0-1,0.3-1.8,0.8-2.4
		c0.5-0.6,1.2-0.9,2-0.9c0.5,0,1,0.1,1.5,0.2c0.5,0.1,1,0.3,1.7,0.6c1.1,0.4,2.2,0.7,3,0.9c0.9,0.2,2,0.3,3.4,0.3
		c1,0,1.7-0.1,2.3-0.4c0.6-0.3,0.8-0.7,0.8-1.2c0-0.4-0.1-0.7-0.4-0.9c-0.3-0.2-0.8-0.4-1.5-0.6c-0.8-0.2-2-0.5-3.8-0.8
		c-3.2-0.6-5.5-1.5-6.9-2.8c-1.4-1.2-2.1-3-2.1-5.2c0-1.6,0.5-3.1,1.5-4.5c1-1.3,2.4-2.4,4.2-3.1c1.8-0.8,3.8-1.1,6-1.1
		c1.6,0,3.2,0.2,4.7,0.6c1.5,0.4,2.9,0.9,4.1,1.7c1.1,0.6,1.7,1.7,1.7,3.1c0,1-0.3,1.8-0.8,2.5c-0.5,0.7-1.2,1-2,1
		c-0.9,0-2-0.3-3.3-0.9c-0.9-0.4-1.6-0.7-2.3-0.9c-0.7-0.2-1.4-0.3-2.3-0.3c-0.9,0-1.6,0.1-2.1,0.4c-0.5,0.3-0.8,0.7-0.8,1.2
		c0,0.6,0.3,1,1,1.3c0.7,0.3,2.1,0.7,4.2,1.1c3.5,0.6,5.9,1.5,7.4,2.8c1.4,1.2,2.1,3,2.1,5.3c0,2.6-1.1,4.7-3.3,6.3
		c-2.2,1.6-5.1,2.3-8.7,2.3C80.3,216,78.3,215.8,76.6,215.4z"/>
	<path d="M138.9,191.3c1.5,1.9,2.3,4.7,2.3,8.6v11.6c0,1.4-0.4,2.4-1.3,3.2c-0.9,0.8-2,1.2-3.5,1.2c-1.5,0-2.6-0.4-3.5-1.2
		c-0.9-0.8-1.3-1.9-1.3-3.2v-11.8c0-2.6-1.1-3.9-3.3-3.9c-1.4,0-2.6,0.5-3.4,1.4c-0.8,0.9-1.3,2.1-1.3,3.7v10.6
		c0,1.4-0.4,2.4-1.3,3.2c-0.9,0.8-2,1.2-3.5,1.2c-1.5,0-2.6-0.4-3.5-1.2c-0.9-0.8-1.3-1.9-1.3-3.2v-29.8c0-1.3,0.4-2.3,1.3-3.1
		c0.9-0.8,2.1-1.2,3.5-1.2c1.4,0,2.5,0.4,3.4,1.1c0.9,0.8,1.3,1.8,1.3,3v10.7c1-1.3,2.2-2.2,3.6-2.8c1.4-0.6,3-1,4.8-1
		C135.1,188.4,137.4,189.4,138.9,191.3z"/>
	<path d="M167.9,191.4c2,2,2.9,4.9,2.9,8.9v11.2c0,1.4-0.4,2.4-1.2,3.2c-0.8,0.8-1.9,1.2-3.4,1.2c-1.3,0-2.3-0.4-3.1-1.1
		c-0.8-0.7-1.2-1.7-1.3-2.9c-0.5,1.3-1.3,2.3-2.5,3c-1.2,0.7-2.6,1.1-4.2,1.1c-1.8,0-3.5-0.4-4.9-1.1c-1.5-0.7-2.6-1.8-3.5-3.1
		c-0.8-1.3-1.3-2.8-1.3-4.4c0-1.9,0.5-3.4,1.5-4.5c1-1.1,2.6-1.9,4.7-2.4c2.1-0.5,5.1-0.8,8.7-0.8h1.5V199c0-1.3-0.3-2.2-0.9-2.7
		c-0.6-0.6-1.5-0.8-2.9-0.8c-1.5,0-3.6,0.5-6.4,1.5c-0.8,0.3-1.5,0.4-2.1,0.4c-0.9,0-1.6-0.3-2.1-1s-0.8-1.5-0.8-2.5
		c0-0.8,0.2-1.4,0.5-1.9c0.3-0.5,0.8-0.9,1.6-1.3c1.3-0.6,2.8-1.2,4.7-1.6c1.9-0.4,3.8-0.6,5.6-0.6
		C162.9,188.4,165.9,189.4,167.9,191.4z M160.5,208.2c0.8-0.9,1.2-2.1,1.2-3.5V204h-0.9c-2.3,0-3.9,0.2-4.9,0.6
		c-1,0.4-1.5,1.1-1.5,2.1c0,0.8,0.3,1.5,0.8,2c0.5,0.5,1.2,0.8,2,0.8C158.6,209.6,159.6,209.1,160.5,208.2z"/>
	<path d="M178.7,212.3c-2.5-2.4-3.8-5.7-3.8-9.9c0-2.8,0.6-5.2,1.8-7.3c1.2-2.1,2.9-3.7,5.1-4.9c2.2-1.1,4.7-1.7,7.6-1.7
		c1.5,0,3,0.2,4.5,0.6c1.5,0.4,2.8,0.9,4,1.7c1.1,0.7,1.7,1.7,1.7,3.1c0,1.1-0.3,2-0.8,2.7c-0.5,0.7-1.2,1-2,1
		c-0.5,0-1.1-0.1-1.6-0.2c-0.5-0.2-1.1-0.4-1.7-0.7c-0.7-0.3-1.3-0.6-1.8-0.7c-0.5-0.2-1.1-0.2-1.7-0.2c-3.5,0-5.3,2.2-5.3,6.5
		c0,2.1,0.5,3.8,1.4,4.9c0.9,1.1,2.2,1.7,3.9,1.7c0.6,0,1.2-0.1,1.7-0.2c0.5-0.2,1.1-0.4,1.7-0.7c0.7-0.3,1.3-0.6,1.7-0.7
		c0.4-0.2,0.9-0.2,1.5-0.2c0.8,0,1.5,0.3,2,1c0.5,0.7,0.8,1.6,0.8,2.7c0,0.7-0.1,1.3-0.4,1.9c-0.3,0.6-0.7,1-1.2,1.3
		c-2.5,1.5-5.5,2.3-9,2.3C184.6,216,181.2,214.7,178.7,212.3z"/>
	<path d="M226.5,208c0.5,0.6,0.8,1.5,0.8,2.5c0,1.4-0.7,2.5-2.1,3.3c-1.2,0.6-2.7,1.1-4.3,1.5c-1.7,0.4-3.2,0.6-4.6,0.6
		c-2.9,0-5.5-0.6-7.7-1.7c-2.2-1.1-3.9-2.7-5.1-4.8c-1.2-2.1-1.8-4.5-1.8-7.3c0-2.7,0.6-5,1.7-7.1c1.1-2.1,2.7-3.7,4.7-4.9
		c2-1.2,4.3-1.7,6.9-1.7c2.5,0,4.6,0.5,6.5,1.6c1.9,1.1,3.3,2.6,4.3,4.6c1,2,1.5,4.3,1.5,6.9c0,0.8-0.2,1.5-0.6,1.9
		c-0.4,0.4-0.9,0.7-1.6,0.7H211c0.3,1.7,0.8,3,1.7,3.7s2.1,1.1,3.8,1.1c0.9,0,1.7-0.1,2.5-0.3c0.8-0.2,1.6-0.5,2.5-0.8
		c0.5-0.2,1.1-0.4,1.6-0.6c0.5-0.2,1-0.2,1.4-0.2C225.3,207,226,207.4,226.5,208z M212.3,196.1c-0.8,0.8-1.2,2-1.3,3.5h8.4
		c-0.2-3.2-1.6-4.7-4.1-4.7C214.1,194.9,213.1,195.3,212.3,196.1z"/>
	<path d="M251.4,189.4c0.7,0.7,1.1,1.6,1.1,2.9c0,1.4-0.3,2.5-1,3.1c-0.7,0.6-1.9,1.1-3.6,1.2l-1.6,0.2c-1.8,0.2-3.1,0.8-3.8,1.7
		c-0.8,0.9-1.2,2.2-1.2,3.7v9.2c0,1.5-0.5,2.6-1.4,3.3c-0.9,0.7-2.1,1.1-3.4,1.1c-1.4,0-2.5-0.4-3.4-1.1c-0.9-0.7-1.4-1.8-1.4-3.3
		v-18.6c0-1.4,0.5-2.4,1.4-3.2c0.9-0.8,2-1.1,3.3-1.1c1.3,0,2.4,0.4,3.2,1.1c0.8,0.7,1.2,1.7,1.2,3v1c0.6-1.6,1.5-2.8,2.8-3.7
		c1.3-0.9,2.7-1.3,4.1-1.4l0.8-0.1C249.8,188.4,250.7,188.7,251.4,189.4z"/>
	<path d="M272.2,212.3c-2.5-2.4-3.8-5.7-3.8-9.9c0-2.8,0.6-5.2,1.8-7.3c1.2-2.1,2.9-3.7,5.1-4.9c2.2-1.1,4.7-1.7,7.6-1.7
		c1.5,0,3,0.2,4.5,0.6c1.5,0.4,2.8,0.9,4,1.7c1.1,0.7,1.7,1.7,1.7,3.1c0,1.1-0.3,2-0.8,2.7c-0.5,0.7-1.2,1-2,1
		c-0.5,0-1.1-0.1-1.6-0.2c-0.5-0.2-1.1-0.4-1.7-0.7c-0.7-0.3-1.3-0.6-1.8-0.7c-0.5-0.2-1.1-0.2-1.7-0.2c-3.5,0-5.3,2.2-5.3,6.5
		c0,2.1,0.5,3.8,1.4,4.9c0.9,1.1,2.2,1.7,3.9,1.7c0.6,0,1.2-0.1,1.7-0.2c0.5-0.2,1.1-0.4,1.7-0.7c0.7-0.3,1.3-0.6,1.7-0.7
		c0.4-0.2,0.9-0.2,1.5-0.2c0.8,0,1.5,0.3,2,1c0.5,0.7,0.8,1.6,0.8,2.7c0,0.7-0.1,1.3-0.4,1.9c-0.3,0.6-0.7,1-1.2,1.3
		c-2.5,1.5-5.5,2.3-9,2.3C278.1,216,274.7,214.7,272.2,212.3z"/>
	<path d="M316.2,189.4c0.7,0.7,1.1,1.6,1.1,2.9c0,1.4-0.3,2.5-1,3.1c-0.7,0.6-1.9,1.1-3.6,1.2l-1.6,0.2c-1.8,0.2-3.1,0.8-3.8,1.7
		c-0.8,0.9-1.2,2.2-1.2,3.7v9.2c0,1.5-0.5,2.6-1.4,3.3c-0.9,0.7-2.1,1.1-3.4,1.1c-1.4,0-2.5-0.4-3.4-1.1c-0.9-0.7-1.4-1.8-1.4-3.3
		v-18.6c0-1.4,0.5-2.4,1.4-3.2c0.9-0.8,2-1.1,3.3-1.1c1.3,0,2.4,0.4,3.2,1.1c0.8,0.7,1.2,1.7,1.2,3v1c0.6-1.6,1.5-2.8,2.8-3.7
		c1.3-0.9,2.7-1.3,4.1-1.4l0.8-0.1C314.5,188.4,315.5,188.7,316.2,189.4z"/>
	<path d="M342,208c0.5,0.6,0.8,1.5,0.8,2.5c0,1.4-0.7,2.5-2.1,3.3c-1.2,0.6-2.7,1.1-4.3,1.5c-1.7,0.4-3.2,0.6-4.6,0.6
		c-2.9,0-5.5-0.6-7.7-1.7c-2.2-1.1-3.9-2.7-5.1-4.8c-1.2-2.1-1.8-4.5-1.8-7.3c0-2.7,0.6-5,1.7-7.1c1.1-2.1,2.7-3.7,4.7-4.9
		c2-1.2,4.3-1.7,6.9-1.7c2.5,0,4.6,0.5,6.5,1.6c1.9,1.1,3.3,2.6,4.3,4.6c1,2,1.5,4.3,1.5,6.9c0,0.8-0.2,1.5-0.6,1.9
		c-0.4,0.4-0.9,0.7-1.6,0.7h-14.2c0.3,1.7,0.8,3,1.7,3.7c0.9,0.8,2.1,1.1,3.8,1.1c0.9,0,1.7-0.1,2.5-0.3c0.8-0.2,1.6-0.5,2.5-0.8
		c0.5-0.2,1.1-0.4,1.6-0.6c0.5-0.2,1-0.2,1.4-0.2C340.8,207,341.5,207.4,342,208z M327.8,196.1c-0.8,0.8-1.2,2-1.3,3.5h8.4
		c-0.2-3.2-1.6-4.7-4.1-4.7C329.6,194.9,328.6,195.3,327.8,196.1z"/>
	<path d="M349.8,212.3c-2.5-2.4-3.8-5.7-3.8-9.9c0-2.8,0.6-5.2,1.8-7.3c1.2-2.1,2.9-3.7,5.1-4.9c2.2-1.1,4.7-1.7,7.6-1.7
		c1.5,0,3,0.2,4.5,0.6c1.5,0.4,2.8,0.9,4,1.7c1.1,0.7,1.7,1.7,1.7,3.1c0,1.1-0.3,2-0.8,2.7c-0.5,0.7-1.2,1-2,1
		c-0.5,0-1.1-0.1-1.6-0.2c-0.5-0.2-1.1-0.4-1.7-0.7c-0.7-0.3-1.3-0.6-1.8-0.7c-0.5-0.2-1.1-0.2-1.7-0.2c-3.5,0-5.3,2.2-5.3,6.5
		c0,2.1,0.5,3.8,1.4,4.9c0.9,1.1,2.2,1.7,3.9,1.7c0.6,0,1.2-0.1,1.7-0.2c0.5-0.2,1.1-0.4,1.7-0.7c0.7-0.3,1.3-0.6,1.7-0.7
		c0.4-0.2,0.9-0.2,1.5-0.2c0.8,0,1.5,0.3,2,1c0.5,0.7,0.8,1.6,0.8,2.7c0,0.7-0.1,1.3-0.4,1.9c-0.3,0.6-0.7,1-1.2,1.3
		c-2.5,1.5-5.5,2.3-9,2.3C355.7,216,352.3,214.7,349.8,212.3z"/>
	<path d="M397.6,208c0.5,0.6,0.8,1.5,0.8,2.5c0,1.4-0.7,2.5-2.1,3.3c-1.2,0.6-2.7,1.1-4.3,1.5c-1.7,0.4-3.2,0.6-4.6,0.6
		c-2.9,0-5.5-0.6-7.7-1.7c-2.2-1.1-3.9-2.7-5.1-4.8c-1.2-2.1-1.8-4.5-1.8-7.3c0-2.7,0.6-5,1.7-7.1c1.1-2.1,2.7-3.7,4.7-4.9
		c2-1.2,4.3-1.7,6.9-1.7c2.5,0,4.6,0.5,6.5,1.6c1.9,1.1,3.3,2.6,4.3,4.6c1,2,1.5,4.3,1.5,6.9c0,0.8-0.2,1.5-0.6,1.9
		c-0.4,0.4-0.9,0.7-1.6,0.7h-14.2c0.3,1.7,0.8,3,1.7,3.7c0.9,0.8,2.1,1.1,3.8,1.1c0.9,0,1.7-0.1,2.5-0.3c0.8-0.2,1.6-0.5,2.5-0.8
		c0.5-0.2,1.1-0.4,1.6-0.6c0.5-0.2,1-0.2,1.4-0.2C396.4,207,397.1,207.4,397.6,208z M383.4,196.1c-0.8,0.8-1.2,2-1.3,3.5h8.4
		c-0.2-3.2-1.6-4.7-4.1-4.7C385.2,194.9,384.2,195.3,383.4,196.1z"/>
	<path d="M422.5,189.4c0.7,0.7,1.1,1.6,1.1,2.9c0,1.4-0.3,2.5-1,3.1c-0.7,0.6-1.9,1.1-3.6,1.2l-1.6,0.2c-1.8,0.2-3.1,0.8-3.8,1.7
		c-0.8,0.9-1.2,2.2-1.2,3.7v9.2c0,1.5-0.5,2.6-1.4,3.3c-0.9,0.7-2.1,1.1-3.4,1.1c-1.4,0-2.5-0.4-3.4-1.1c-0.9-0.7-1.4-1.8-1.4-3.3
		v-18.6c0-1.4,0.5-2.4,1.4-3.2c0.9-0.8,2-1.1,3.3-1.1c1.3,0,2.4,0.4,3.2,1.1c0.8,0.7,1.2,1.7,1.2,3v1c0.6-1.6,1.5-2.8,2.8-3.7
		c1.3-0.9,2.7-1.3,4.1-1.4l0.8-0.1C420.9,188.4,421.8,188.7,422.5,189.4z"/>
	<path d="M67,272.5c0.5,0.6,0.8,1.5,0.8,2.5c0,1.4-0.7,2.5-2.1,3.3c-1.2,0.6-2.7,1.1-4.3,1.5c-1.7,0.4-3.2,0.6-4.6,0.6
		c-2.9,0-5.5-0.6-7.7-1.7c-2.2-1.1-3.9-2.7-5.1-4.8c-1.2-2.1-1.8-4.5-1.8-7.3c0-2.7,0.6-5,1.7-7.1c1.1-2.1,2.7-3.7,4.7-4.9
		c2-1.2,4.3-1.7,6.9-1.7c2.5,0,4.6,0.5,6.5,1.6c1.9,1.1,3.3,2.6,4.3,4.6c1,2,1.5,4.3,1.5,6.9c0,0.8-0.2,1.5-0.6,1.9
		c-0.4,0.4-0.9,0.7-1.6,0.7H51.5c0.3,1.7,0.8,3,1.7,3.7c0.9,0.8,2.1,1.1,3.8,1.1c0.9,0,1.7-0.1,2.5-0.3c0.8-0.2,1.6-0.5,2.5-0.8
		c0.5-0.2,1.1-0.4,1.6-0.6c0.5-0.2,1-0.2,1.4-0.2C65.9,271.5,66.5,271.8,67,272.5z M52.8,260.6c-0.8,0.8-1.2,2-1.3,3.5h8.4
		c-0.2-3.2-1.6-4.7-4.1-4.7C54.6,259.4,53.6,259.8,52.8,260.6z"/>
	<path d="M73.7,279.2c-0.9-0.7-1.4-1.8-1.4-3.3v-29.6c0-1.5,0.5-2.6,1.4-3.3c0.9-0.8,2.1-1.1,3.4-1.1c1.4,0,2.5,0.4,3.4,1.1
		c0.9,0.8,1.4,1.9,1.4,3.3v29.6c0,1.5-0.5,2.6-1.4,3.3c-0.9,0.7-2.1,1.1-3.4,1.1C75.7,280.3,74.6,280,73.7,279.2z"/>
	<path d="M122,276.7c0,1.3-0.5,2.2-1.5,2.8c-1,0.6-2.3,0.9-4.1,0.8l-1.5-0.1c-3.2-0.3-5.7-1.2-7.3-2.9c-1.7-1.7-2.5-4.1-2.5-7.1
		v-9.5h-1.6c-2.9,0-4.3-1.2-4.3-3.5c0-2.3,1.4-3.5,4.3-3.5h1.6v-3.5c0-1.4,0.4-2.4,1.3-3.3c0.9-0.8,2-1.2,3.5-1.2
		c1.5,0,2.6,0.4,3.5,1.2c0.9,0.8,1.3,1.9,1.3,3.3v3.5h3c2.9,0,4.3,1.2,4.3,3.5c0,2.4-1.4,3.5-4.3,3.5h-3v10.3c0,0.7,0.2,1.3,0.6,1.7
		c0.4,0.5,0.9,0.7,1.6,0.8l1.6,0.1C120.8,273.7,122,274.7,122,276.7z"/>
	<path d="M149.9,254.2c0.9,0.8,1.3,1.9,1.3,3.2V276c0,1.3-0.4,2.3-1.3,3.1c-0.9,0.8-2.1,1.2-3.5,1.2c-1.3,0-2.3-0.3-3.2-1
		c-0.8-0.7-1.3-1.6-1.3-2.8c-0.8,1.3-1.9,2.3-3.1,3c-1.3,0.7-2.7,1-4.4,1c-3.4,0-5.9-0.9-7.6-2.8c-1.6-1.9-2.5-4.7-2.5-8.6v-11.6
		c0-1.4,0.4-2.4,1.3-3.2c0.9-0.8,2-1.2,3.5-1.2c1.5,0,2.6,0.4,3.5,1.2c0.9,0.8,1.3,1.9,1.3,3.2v11.8c0,2.6,1.1,3.9,3.3,3.9
		c1.3,0,2.3-0.5,3.2-1.4c0.8-0.9,1.2-2.1,1.2-3.7v-10.6c0-1.4,0.4-2.4,1.3-3.2c0.9-0.8,2-1.2,3.5-1.2
		C147.9,253,149,253.4,149.9,254.2z"/>
	<path d="M176.1,253.7c0.7-0.4,1.4-0.6,2.3-0.6c1.2,0,2.2,0.4,3.2,1.2c0.9,0.8,1.4,1.7,1.4,2.8c0,0.6-0.1,1.2-0.4,1.8l-14.2,28.5
		c-0.4,0.9-1,1.6-1.7,2c-0.7,0.4-1.5,0.6-2.3,0.6c-1.2,0-2.2-0.4-3.1-1.2c-0.9-0.8-1.4-1.7-1.4-2.8c0-0.6,0.2-1.2,0.5-1.9l3.5-7
		l-9.1-18.3c-0.3-0.6-0.4-1.2-0.4-1.7c0-1.1,0.5-2.1,1.5-2.9c1-0.8,2.1-1.2,3.4-1.2c0.9,0,1.7,0.2,2.4,0.7c0.7,0.4,1.3,1.1,1.7,2
		l5.7,12.4l5.6-12.4C174.8,254.8,175.4,254.2,176.1,253.7z"/>
	<path d="M190.9,278.8c-2.2-1.1-3.9-2.7-5.1-4.8c-1.2-2.1-1.8-4.5-1.8-7.3s0.6-5.2,1.8-7.3c1.2-2.1,2.9-3.6,5.1-4.8
		c2.2-1.1,4.7-1.7,7.7-1.7s5.5,0.6,7.7,1.7c2.2,1.1,3.9,2.7,5.1,4.8c1.2,2.1,1.8,4.5,1.8,7.3s-0.6,5.2-1.8,7.3
		c-1.2,2.1-2.9,3.7-5.1,4.8c-2.2,1.1-4.7,1.7-7.7,1.7C195.7,280.4,193.1,279.9,190.9,278.8z M203.7,266.6c0-4.4-1.7-6.7-5.1-6.7
		c-3.4,0-5.1,2.2-5.1,6.7c0,4.4,1.7,6.7,5.1,6.7C202,273.3,203.7,271.1,203.7,266.6z"/>
</g>
<g>
	<path d="M51.8,53.5L50.2,62h3.3c0.4,0,0.7,0.1,1,0.4c0.3,0.3,0.4,0.6,0.4,1c0,0.4-0.1,0.7-0.4,0.9c-0.3,0.2-0.6,0.4-1,0.4h-3.9
		l-1.2,5.9c-0.1,0.3-0.2,0.6-0.4,0.7c-0.2,0.2-0.5,0.3-0.9,0.3c-0.4,0-0.7-0.1-1-0.4c-0.3-0.3-0.4-0.6-0.4-1c0-0.2,0-0.3,0-0.4
		l1-5.2h-5.6l-1.2,5.9c-0.1,0.3-0.2,0.6-0.4,0.7c-0.2,0.2-0.5,0.3-0.9,0.3c-0.4,0-0.7-0.1-1-0.4c-0.3-0.3-0.4-0.6-0.4-1
		c0-0.2,0-0.3,0-0.4l1-5.2h-2.1c-0.4,0-0.7-0.1-1-0.4c-0.3-0.3-0.4-0.6-0.4-1c0-0.4,0.1-0.7,0.4-0.9c0.3-0.2,0.6-0.4,1-0.4H39
		l1.6-8.5h-3.5c-0.4,0-0.7-0.1-1-0.4c-0.3-0.3-0.4-0.6-0.4-1c0-0.4,0.1-0.7,0.4-0.9c0.3-0.2,0.6-0.4,1-0.4h4.1l1.1-5.8
		c0.1-0.3,0.2-0.6,0.4-0.7c0.2-0.2,0.5-0.3,0.9-0.3c0.4,0,0.8,0.1,1,0.4c0.3,0.3,0.4,0.6,0.4,1c0,0.2,0,0.3,0,0.3l-1,5h5.6l1.1-5.8
		c0.1-0.3,0.2-0.6,0.4-0.7c0.2-0.2,0.5-0.3,0.9-0.3c0.4,0,0.7,0.1,1,0.4c0.3,0.3,0.4,0.6,0.4,1c0,0.2,0,0.3,0,0.4l-1,5h2
		c0.4,0,0.7,0.1,1,0.4c0.3,0.3,0.4,0.6,0.4,1c0,0.4-0.1,0.7-0.4,0.9c-0.3,0.2-0.6,0.4-1,0.4H51.8z M47.4,62l1.6-8.5h-5.5L41.8,62
		H47.4z"/>
	<path d="M76.3,59.8v10c0,0.6-0.2,1-0.5,1.3c-0.4,0.3-0.8,0.5-1.4,0.5c-0.6,0-1.1-0.2-1.4-0.5c-0.3-0.3-0.5-0.8-0.5-1.3v-9.9
		c0-1.5-0.3-2.7-0.9-3.4c-0.6-0.7-1.6-1.1-2.9-1.1c-1.6,0-2.8,0.5-3.8,1.5c-0.9,1-1.4,2.3-1.4,3.9v9c0,0.6-0.2,1-0.5,1.3
		c-0.3,0.3-0.8,0.5-1.4,0.5c-0.6,0-1.1-0.2-1.4-0.5c-0.4-0.3-0.5-0.8-0.5-1.3V46c0-0.6,0.2-1,0.6-1.3c0.4-0.3,0.8-0.5,1.4-0.5
		c0.6,0,1,0.2,1.4,0.5c0.3,0.3,0.5,0.7,0.5,1.3v9.6c0.6-1.1,1.5-1.9,2.6-2.5c1.1-0.6,2.3-0.8,3.7-0.8C74.1,52.2,76.3,54.7,76.3,59.8
		z"/>
	<path d="M95,54.1c1.2,1.3,1.8,3.2,1.8,5.7v9.9c0,0.6-0.2,1-0.5,1.4c-0.3,0.3-0.8,0.5-1.4,0.5c-0.6,0-1-0.2-1.3-0.5
		c-0.3-0.3-0.5-0.8-0.5-1.3v-1.4c-0.5,1.1-1.2,1.9-2.2,2.5c-1,0.6-2.1,0.9-3.4,0.9c-1.2,0-2.4-0.2-3.4-0.7c-1-0.5-1.8-1.2-2.4-2.1
		c-0.6-0.9-0.9-1.9-0.9-3c0-1.4,0.4-2.4,1.1-3.2c0.7-0.8,1.9-1.3,3.5-1.7c1.6-0.3,3.9-0.5,6.7-0.5h0.9v-1.1c0-1.4-0.3-2.5-0.9-3.1
		c-0.6-0.6-1.5-1-2.8-1c-0.9,0-1.7,0.1-2.5,0.3c-0.8,0.2-1.7,0.6-2.6,1c-0.7,0.4-1.2,0.6-1.5,0.6c-0.4,0-0.7-0.1-0.9-0.4
		c-0.2-0.3-0.4-0.6-0.4-1.1c0-0.4,0.1-0.7,0.3-1c0.2-0.3,0.6-0.6,1.1-0.9c0.9-0.5,1.9-0.9,3.1-1.2c1.2-0.3,2.4-0.4,3.5-0.4
		C91.9,52.2,93.8,52.9,95,54.1z M91.7,67.4c0.9-1,1.3-2.2,1.3-3.7v-1h-0.7c-2,0-3.5,0.1-4.6,0.3c-1.1,0.2-1.8,0.5-2.3,0.9
		c-0.5,0.4-0.7,1-0.7,1.8c0,0.9,0.3,1.7,1,2.3c0.7,0.6,1.5,0.9,2.5,0.9C89.7,68.8,90.8,68.3,91.7,67.4z"/>
	<path d="M116.5,53.4c1.3,0.8,2.2,1.9,2.9,3.4c0.7,1.5,1.1,3.2,1.1,5.1c0,1.9-0.4,3.6-1.1,5.1c-0.7,1.5-1.7,2.6-3,3.5
		c-1.3,0.8-2.7,1.2-4.3,1.2c-1.4,0-2.6-0.3-3.7-0.9c-1.1-0.6-1.9-1.5-2.5-2.6v1.5c0,0.6-0.2,1-0.5,1.4s-0.8,0.5-1.4,0.5
		c-0.6,0-1.1-0.2-1.4-0.5c-0.4-0.3-0.5-0.8-0.5-1.4V46c0-0.6,0.2-1,0.6-1.3c0.4-0.3,0.8-0.5,1.4-0.5c0.6,0,1,0.2,1.4,0.5
		c0.3,0.3,0.5,0.7,0.5,1.3v9.8c0.6-1.1,1.4-2,2.5-2.6c1.1-0.6,2.3-0.9,3.7-0.9C113.8,52.2,115.2,52.6,116.5,53.4z M115.1,66.8
		c0.9-1.2,1.4-2.8,1.4-4.9c0-2.1-0.5-3.7-1.4-4.9c-0.9-1.1-2.2-1.7-3.9-1.7c-1.7,0-3,0.6-3.9,1.7c-0.9,1.2-1.4,2.8-1.4,4.9
		c0,2.1,0.5,3.8,1.4,4.9c0.9,1.2,2.2,1.7,3.9,1.7C112.9,68.6,114.2,68,115.1,66.8z"/>
	<path d="M125.3,71.1c-0.4-0.3-0.6-0.8-0.6-1.4V46.1c0-0.6,0.2-1.1,0.6-1.4c0.4-0.3,0.8-0.5,1.4-0.5c0.6,0,1,0.2,1.4,0.5
		c0.4,0.3,0.5,0.8,0.5,1.4v23.7c0,0.6-0.2,1.1-0.5,1.4c-0.4,0.3-0.8,0.5-1.4,0.5C126.2,71.6,125.7,71.4,125.3,71.1z"/>
	<path d="M149.6,67.1c0.2,0.3,0.3,0.6,0.3,1.1c0,0.7-0.5,1.4-1.4,1.9c-0.9,0.5-1.9,0.9-2.9,1.2c-1.1,0.3-2.1,0.4-3,0.4
		c-3,0-5.3-0.9-7-2.6c-1.7-1.7-2.6-4.1-2.6-7.1c0-1.9,0.4-3.6,1.1-5.1c0.8-1.5,1.8-2.6,3.2-3.5c1.4-0.8,2.9-1.2,4.7-1.2
		c2.5,0,4.5,0.8,5.9,2.4c1.5,1.6,2.2,3.8,2.2,6.5c0,1-0.5,1.5-1.4,1.5h-11.9c0.3,4,2.2,5.9,5.7,5.9c0.9,0,1.8-0.1,2.5-0.4
		c0.7-0.3,1.4-0.6,2.2-1c0.1-0.1,0.3-0.2,0.6-0.3c0.3-0.2,0.6-0.2,0.9-0.2C149.1,66.7,149.4,66.8,149.6,67.1z M138.5,56.5
		c-0.9,0.9-1.4,2.3-1.6,4h9.9c-0.1-1.7-0.5-3.1-1.3-4c-0.8-0.9-1.9-1.4-3.4-1.4C140.6,55.1,139.4,55.5,138.5,56.5z"/>
	<path d="M182.1,59.8v10c0,0.6-0.2,1-0.5,1.4c-0.4,0.3-0.8,0.5-1.4,0.5c-0.6,0-1-0.2-1.4-0.5c-0.4-0.3-0.5-0.8-0.5-1.4v-9.9
		c0-1.6-0.3-2.7-0.8-3.4c-0.6-0.7-1.4-1.1-2.6-1.1c-1.4,0-2.5,0.5-3.3,1.4c-0.8,1-1.2,2.3-1.2,3.9v9c0,0.6-0.2,1-0.5,1.4
		c-0.4,0.3-0.8,0.5-1.4,0.5c-0.6,0-1-0.2-1.4-0.5c-0.4-0.3-0.5-0.8-0.5-1.4v-9.9c0-1.6-0.3-2.7-0.8-3.4c-0.6-0.7-1.4-1.1-2.6-1.1
		c-1.4,0-2.5,0.5-3.4,1.4c-0.8,1-1.2,2.3-1.2,3.9v9c0,0.6-0.2,1-0.5,1.4c-0.4,0.3-0.8,0.5-1.4,0.5c-0.6,0-1-0.2-1.4-0.5
		c-0.4-0.3-0.6-0.8-0.6-1.4V54.1c0-0.6,0.2-1,0.6-1.3c0.4-0.3,0.8-0.5,1.4-0.5c0.5,0,1,0.2,1.3,0.5c0.3,0.3,0.5,0.8,0.5,1.3v1.4
		c0.6-1.1,1.3-1.9,2.3-2.5c1-0.6,2.1-0.8,3.5-0.8c1.4,0,2.6,0.3,3.5,0.9c0.9,0.6,1.6,1.5,2.1,2.7c0.6-1.1,1.4-2,2.5-2.6
		c1.1-0.7,2.4-1,3.8-1C180,52.2,182.1,54.7,182.1,59.8z"/>
	<path d="M190.7,70.5c-1.4-0.8-2.5-1.9-3.2-3.4c-0.8-1.5-1.1-3.2-1.1-5.1c0-2,0.4-3.7,1.1-5.2c0.8-1.5,1.8-2.6,3.2-3.4
		c1.4-0.8,3-1.2,4.9-1.2c1.8,0,3.5,0.4,4.9,1.2c1.4,0.8,2.5,1.9,3.2,3.4c0.8,1.5,1.1,3.2,1.1,5.2c0,1.9-0.4,3.7-1.1,5.1
		c-0.8,1.5-1.8,2.6-3.2,3.4c-1.4,0.8-3,1.2-4.9,1.2C193.7,71.7,192.1,71.3,190.7,70.5z M199.5,66.9c0.9-1.1,1.4-2.8,1.4-4.9
		c0-2.1-0.5-3.8-1.4-4.9c-0.9-1.1-2.2-1.7-3.9-1.7c-1.7,0-3,0.6-3.9,1.7c-0.9,1.1-1.4,2.8-1.4,4.9c0,2.2,0.5,3.8,1.4,4.9
		c0.9,1.1,2.2,1.7,3.9,1.7C197.3,68.6,198.6,68,199.5,66.9z"/>
	<path d="M209.2,70.1c-0.5-0.3-0.8-0.6-1-0.9c-0.2-0.3-0.3-0.7-0.3-1c0-0.4,0.1-0.8,0.3-1c0.2-0.3,0.5-0.4,0.9-0.4
		c0.3,0,0.9,0.2,1.6,0.6c0.8,0.4,1.5,0.7,2.2,1c0.7,0.3,1.6,0.4,2.7,0.4c1.2,0,2.2-0.2,2.9-0.7c0.7-0.4,1-1,1-1.8
		c0-0.5-0.1-0.9-0.4-1.2c-0.3-0.3-0.7-0.6-1.4-0.8c-0.7-0.2-1.6-0.5-3-0.8c-2.3-0.5-3.9-1.1-4.9-2c-1-0.8-1.5-2-1.5-3.4
		c0-1.1,0.3-2.1,1-3c0.6-0.9,1.5-1.6,2.6-2.1c1.1-0.5,2.4-0.7,3.8-0.7c1,0,2,0.1,3,0.4c1,0.3,1.8,0.7,2.6,1.2c0.8,0.6,1.3,1.2,1.3,2
		c0,0.4-0.1,0.8-0.4,1c-0.2,0.3-0.5,0.4-0.9,0.4c-0.2,0-0.5-0.1-0.7-0.2c-0.2-0.1-0.5-0.3-0.9-0.5c-0.7-0.4-1.3-0.7-1.9-1
		c-0.6-0.2-1.3-0.3-2.2-0.3c-1.1,0-1.9,0.2-2.6,0.7c-0.7,0.5-1,1.1-1,1.9c0,0.7,0.3,1.3,0.9,1.7c0.6,0.4,1.7,0.8,3.4,1.1
		c1.7,0.4,3.1,0.8,4,1.2c1,0.5,1.7,1,2.1,1.7c0.4,0.7,0.6,1.5,0.6,2.6c0,1.7-0.7,3-2.1,4c-1.4,1-3.3,1.5-5.6,1.5
		C213,71.7,210.8,71.1,209.2,70.1z"/>
</g>
<path d="M218.1,86.6H51.9c-6.9,0-6.9,2.2,0,2.2h166.2C225,88.8,225,86.6,218.1,86.6z"/>
</svg>
