<?xml version="1.0" encoding="utf-8"?>
<!-- Generator: Adobe Illustrator 25.3.1, SVG Export Plug-In . SVG Version: 6.00 Build 0)  -->
<svg version="1.1" id="Capa_1" xmlns="http://www.w3.org/2000/svg" xmlns:xlink="http://www.w3.org/1999/xlink" x="0px" y="0px"
	 width="800px" height="600px" viewBox="0 0 800 600" style="enable-background:new 0 0 800 600;" xml:space="preserve">
<style type="text/css">
	.st0{fill:#020203;}
	.st1{fill:#CDCCCC;}
	.st2{fill:#FFFFFF;}
</style>
<g>
	<path class="st0" d="M330,325.9c-1.4-0.8-3.2,1.6-2,2.7C329.5,329.3,331.3,327,330,325.9z M323.3,329.5c1.4,0.7,2.6-1.7,1.7-2.8
		C323.3,325.4,321.8,328.7,323.3,329.5z M317,329.6c-1.7-0.7-2.1,0.2-1.7,1.6C316.7,331.8,317.7,331.2,317,329.6z M351,333.1
		c-0.1,1.9-0.6,3.6-1.8,5.2c-2-1.1-3.3-2.5-4-4.4l-2-1.2c0.9,2.9,2,6.7,5.3,7.9c3.3,0.1,3.7-3.9,4.1-6.2c-0.3-0.2-0.5-0.3-0.8-0.6
		C351.6,333.4,351.3,333.2,351,333.1z M342.4,337.4l-0.6-0.4c0.8,3.3,3.9,5.9,7.6,6.3C347.5,341.1,345,339.2,342.4,337.4z
		 M311.9,342c0.3,0.6,0.6,1.3,0.9,2c0.8-0.3,2-0.8,3.1-1.2l-2.9-1.6c0.6-1.3,1.3-2.8,1.9-4.1c-1.4,1.3-2.5,3.1-4.2,4
		c-0.6-0.9-1.4-2-2-3.3C307.3,340.4,309.2,342.9,311.9,342L311.9,342z M364.5,345.1c-0.5,2.1,0.7,4.1,3.6,5.3l0.5,0.3
		C367.7,348.6,367,345.7,364.5,345.1L364.5,345.1z M361.6,349.7c0.8,1.1,1.6,2.1,2.6,3.3l0.2,0.1c0.6-0.4,1.4-0.8,2-1.3
		c-0.9-1.1-2-2.1-2.9-3.3C363,348.9,362.2,349.4,361.6,349.7z M302.7,356c1.6,1.1,3.3-1.7,2-2.9C303.2,352,301.4,354.7,302.7,356z
		 M376.1,363c-1.6-4-4.4-7-6.8-9.3c0,3.7,2.1,8.2,6.3,9.3H376.1z M303.6,359.6v0.2c1.4,0.3,3.9-1.1,3.7-2.8
		C305.9,356,303.4,358.1,303.6,359.6L303.6,359.6z M342.8,357.6c-0.8,0.8-2,1.6-2.8,2.4c-3.3,0.3-6.8-0.2-10-0.7
		c1.4,2.4,3.9,3.3,6.5,3.2c2.5,0,4.8-0.7,6.7-1.3C343,360.2,343,358.7,342.8,357.6L342.8,357.6z M366.5,358.4
		c0.2,3.7,3.1,7.2,6.5,8.2c-0.8-3.1-2.8-5.6-6-7.9L366.5,358.4L366.5,358.4z M193.1,360.8c-1.2-0.3-2.5-0.7-3.9-1.1
		c-0.5,2,1.2,2.5,2.6,3.1C192.2,362.1,192.8,361.4,193.1,360.8L193.1,360.8z M327.4,360.7c-3.1,1.6-6.2,0.3-9.3,0
		c1.8,2.1,4.2,3.3,6.9,3.3c0.8,0,1.9-0.2,2.6-0.4C327.6,362.7,327.6,361.5,327.4,360.7z M309.9,361.6c0.6,1.3,1.8,2.3,3.3,2.6
		c2,0.3,4.1-0.3,5.6-1.7l-2-1.6C314.7,362.4,312.2,361.9,309.9,361.6z M363,363.5h-0.3c1.1,3.1,3.9,5.3,7,5.7
		C368.2,366.4,366,363.2,363,363.5z M328.1,367c2.4-0.3,5.9,0.6,5.9-2.9c-2,0.3-4,0.5-5.9,0.7V367z M334.3,367.6
		c2.8,2,7.2,1.1,7.5-2.7c-2,1.4-4.4,2.4-6.8,2.6L334.3,367.6z M322.4,365.4c-2.5,0.7-4.8,0.9-7.4,0.8c1.2,3.1,4.5,3.1,7.5,2
		L322.4,365.4L322.4,365.4z M305.5,366.5l0.1-0.3c-2.5-0.6-3.3,2-4,4C303.5,369.7,304.8,368.4,305.5,366.5L305.5,366.5z
		 M321.5,370.9l-0.6,0.4c2.7-0.1,6.9,1.3,7.7-2.4C325.8,369.1,323.3,369.7,321.5,370.9z M303.3,373.7l-0.2,0.5
		c2.4-1.4,4.1-3.3,4.9-5.9C305.8,369.4,303.9,371.4,303.3,373.7L303.3,373.7z M292,369.2l0.1-0.3c-2,0.3-3.6,1.4-4.6,3.3
		C289.7,372.1,291.8,371,292,369.2L292,369.2z M289,376.6c2-0.9,4.1-1.8,5.1-3.9c-1.8,0.4-3.5,0.9-5.1,1.4V376.6L289,376.6z
		 M279,373.2l-0.2-1.2l-0.3,0.6c-1.1,2-0.3,5.9-3.1,6.4c-2.5-0.9-1.3-4.6-2-6.7c-1.2,1.4-1.9,3.7-1.4,5.5c0.3,1.9,2.3,3.9,4.2,3.3
		c1.2-0.4,2-2,2.5-3.3C279.4,376.6,279.4,374.8,279,373.2L279,373.2z M263.9,383.3c-0.9,3.6-4.6,6.2-8.7,5.9c-2.5-1.3-3.3-4-3.7-5.5
		c2.9-0.3,6-0.4,8.3-2.6c0.1-3.7-4.8-3.1-7.4-2.5c0.8-0.9,1.9-1.6,3.1-2c-0.5-0.3-1.1-0.8-1.8-1.1c0.7-1.1,2.5-1.3,3.3-2l0.6-0.4
		c-1.9,0.2-3.7,0.3-5.5,0.5v3.7l-0.7-0.3c-0.6,4.3-2,9.2,0.3,13.1c3.7,2.4,9.2,0.1,11.5-1.8c1.1,0.7,2.3,1.3,3.3,2
		c-0.9-2-2-4-2.7-5.9L263.9,383.3L263.9,383.3z M303.6,378.2l-0.4,0.6c3.1-0.7,5.6-2.9,7.2-5.9C307.8,373.9,305.5,375.6,303.6,378.2
		L303.6,378.2z M245.8,376.2c-0.9,1.9-2,3.7-4.2,3.7c-0.3-2-0.7-4.2-1.1-6.2c-0.7,2-0.6,4.3-0.4,6.4c0.8,0.9,1.9,2,2.7,2.9
		c3.7-1.8,4-5.7,4-8.4C246.4,375.1,246.2,375.7,245.8,376.2L245.8,376.2z M333.5,379.1l-0.2,0.3c2.5,1.2,4.5-0.9,5.2-3.5
		C336.6,376.3,335,377.2,333.5,379.1L333.5,379.1z M287.8,379.5c2.4,0.3,4.6,0.3,6.5-1.7l0.3-0.3C292,377,289.4,377.7,287.8,379.5z
		 M278.8,382.9c2.3-0.3,5.7-3.1,3.7-5.5C281.1,379.2,280.1,381,278.8,382.9z M224.5,446.1c-2.9-1.2-1.9,3.7,0.1,3.6
		c0.6,0,1.1-0.5,1.1-1.1C225.9,447.6,225.2,446.4,224.5,446.1L224.5,446.1z M216.3,448.6c0.6,0,1.1-0.5,1.1-1.1
		c0.2-0.8-0.5-2-1.2-2.5C213.4,443.8,214.4,448.8,216.3,448.6L216.3,448.6z M355.4,385l-0.4,0.6c2.8,1.2,4-1.6,5.1-3.6
		C357.9,381.6,356.5,383.5,355.4,385z M377.7,384.1c-1.7,0.6-2.4,2.1-2.9,3.7C376.8,387.7,378.6,386.1,377.7,384.1z M365.5,388.4
		c1.6,0.2,2.5-2.3,1.4-3.3C365,383.4,363.3,387.7,365.5,388.4z M276.5,426.1c0.4,1.7,4.3,1.4,3.5-0.8
		C279.2,424.1,276.3,424.2,276.5,426.1z M344.4,446.1c-0.5-0.6-1.1-1.1-1.6-1.8c0.4-0.7,0.9-1.4,1.4-2c-4.3,0.3-8.2,0.3-11.8,0.2
		c0.3,2.1-0.1,4.6,1.2,6.5c1.2,0,2.4-0.5,3.5-0.8c0.5,0.3,1.4,0.9,2,1.3l2.5-2.4c1.7,1.1,3.7,0.8,5.3-0.8c0.6,0.2,1.4,0.3,2,0.5
		c-0.4-0.4-1.1-0.8-1.3-1.4c2.1,1.4,7.1,4.1,11.4,1.6c2.3-4.1,0.8-8.7,0.3-13.1l-0.7,0.3v-3.7c-1.9-0.2-3.6-0.4-5.5-0.5l0.6,0.4
		c0.9,0.8,2.7,1.1,3.3,2c-0.6,0.4-1.2,0.8-1.8,1.1c1.1,0.4,2.1,1.1,3.1,2c-2.5-0.4-7.5-1.2-7.4,2.5c2.1,2.1,5.3,2.4,8.3,2.6
		c-0.3,1.7-1.2,4.3-3.7,5.5c-3.1,0.1-5.9-1.1-7.5-3.3v-0.5c-0.2-0.6-0.2-1.1-0.1-1.8c-0.3,0.1-0.6,0.1-0.9,0.2l-0.3-0.7l-0.2,0.8
		c-1.1,0.2-2,0.3-3.1,0.4c0.7,0.4,1.4,1.1,2.3,1.6C345.5,444,345.1,445.1,344.4,446.1L344.4,446.1z M333.4,438.3
		c2.5-1.5,4-4.6,3.7-7.8c-1.3,1.6-2.4,3.3-3.7,4.8c-1.8,0.2-2.5-1.8-3.6-2.9C329.4,434.7,330.6,436.7,333.4,438.3z M363.3,433.9
		c1.9-1.1,2.7-3.3,2.5-5.5c-0.8,1.1-1.7,2.3-2.5,3.3c-1.1,0.1-1.7-1.3-2.5-2C360.5,431.5,361.3,432.9,363.3,433.9z M231.7,467.4
		c1.8,0,1.7-2.6,0.5-3.3C230,463,230,467.1,231.7,467.4z M255.2,497.6c-1.2,0.1-2,1.4-1.1,2.5c0.3,0.4,0.7,0.7,1.2,0.7
		c0.6,0,1.2-0.4,1.4-0.9C257.3,498.9,256.4,497.5,255.2,497.6L255.2,497.6z M274.1,493.4c-0.1,1.6,0,3.3,0.5,4.9
		C277.2,497.4,276.3,494.5,274.1,493.4z M278.7,493.3c-0.4,1.4-0.9,3.1-0.5,4.8C280.8,497.5,280.6,494.6,278.7,493.3z M255.8,496.4
		l-0.2-2.7c-1.1,0.2-2.1,0.3-3.3,0.6c0.3,1.7,2,1.9,3.3,2L255.8,496.4z"/>
	<g>
		<ellipse class="st1" cx="508.9" cy="549.9" rx="94.5" ry="23.3"/>
		<path class="st0" d="M393.5,517.1c-0.3-0.1-0.5-0.2-0.7-0.1c0.1-0.3,0.2-0.5,0.3-0.8c-0.3-1.2,0.3-2.5,1.2-3.3
			c0.5-2,0.5-3.9-1.7-5.1c0.4,3.3-0.4,6.5-2.7,8.8c-3.7-12.4-5.2-24.9-8.5-37.3c-4.3-14.8-7-30.7-8.4-46.8
			c-0.4-4.6-0.8-9.2-4.2-12.6c-1.7-1.2-2.4-3.1-3.2-4.8c-0.7-1.7-1.4-3.3-2.9-4.8l-0.1-0.1c-1.6,0-3.3,0.1-4.9,0.2
			c-0.8,1.7-1.4,3.3-1.7,5.3c-6.5,0.3-13,0.1-19.4,1.4c-1.1-1.8-2.3-3.3-3.3-4.9c-3.7-0.3-7,2-7.7,5.3c-0.7,2.3,0.9,4.1,2,5.9
			c-8.6,11-15.1,27.3-17.8,42.5c-0.4,2.5-0.8,5.1-1.6,7.6c-0.9-2.9-0.8-5.9-1.2-9c-3.2-17-2.5-34.2-3.9-51.4
			c0.3-7.6-0.4-15.4-1.1-22.8c-0.3-3.6-0.7-7.2-0.8-11c-0.1-4.1-2.5-8.2-1.4-12.3c1.1-6.2,1.4-12.4,2.6-18.6
			c5.1,0.7,10.3,1.1,14.4-1.9c1.1,1.4,3.7,4.1,6.5,2c-0.5-0.9-1.1-2-1.4-2.7c0.4-0.4,0.9-1.1,1.4-1.6c0.3,1.3,0.7,2.5,1.3,3.7
			c0.6-2.6,2.3-5.9,0-8.2c1.1-0.5,2-0.9,3.1-1.4c-0.8-0.6-1.8-1.1-2.6-1.8c-1.6,1.4-3.7,1.9-5.6,2.5c-0.3-1.1-0.6-2.6-0.8-3.6
			c3.3-1.4,7.2-1.7,11-0.6c0.7,3.2,0.8,6.7,3.5,8.8c5.3,5.6,13.5,5.9,17.9,5.3c9.8-0.9,15-8.4,12.6-17.5c0.3-0.3,0.9-1.1,1.3-1.4
			c6.2,9.9,10.2,20.2,13.6,30.7c1.8,4.9,3.6,10,4.2,15.4c-18.7,8.5-38.2-10.2-52.6-4c-6.2,4.1-10.7,10-17.2,13.8
			c-3.2,1.6-6.5,2.4-9.8,3.7c0.1,3.6,3.1,6.3,5.9,7.6c2.8,0.5,5.6,0,8.6-0.7c0.6,1.7,0.1,4.1,2.3,4.8c3.1,1.4,5.9-0.4,8.3-2
			c0.3,2.5,0.7,6.7,4.2,6.5c3.5,0.6,5.5-2.5,7.9-4.4c0.4,1.8,0.6,3.7,1.8,5.2c1.1,2,3.6,0.9,5.5,1.1c1.3-1.4,2.6-3.1,4.2-4.9
			c0.7,2.5,1.8,4.6,3.1,6.3h3.2c1.4-1.9,2.9-3.7,4.8-6.2c0.3,2,2,5.9,5.1,4.9c1.3-1.1,2.4-2.5,3.3-3.9c0.8,1.3,1.2,3.3,3.1,3.9
			c1.4,0.7,3.3,0.6,4.1-0.8c4.3-5.3,5.9-12.1,7.7-18.6c1.8,4.6,2.4,9.3,3.3,14l2.3-1.4c-1.2-5.8-2.8-11.3-3.7-17.2
			c0.5,0,1.1,0.1,1.6,0.1c-0.2-0.5-0.3-0.9-0.3-1.4c-0.1-0.4-0.2-0.8-0.2-1.1c-0.5,0-1.1,0-1.5,0.1c-2-9.3-5.1-18.3-7.6-25
			c0.2-0.2,0.4-0.3,0.7-0.4c-0.3-0.7-0.4-1.4-0.3-2.2c0-0.3,0-0.7,0.1-0.9c-0.4,0.3-0.8,0.4-1.1,0.7c-2-4.8-3.7-9.9-5.5-14.8
			c0.3-0.2,0.5-0.2,0.7-0.3c-0.7-0.8-0.9-2-0.8-3.3c-0.3,0.2-0.7,0.2-1.1,0.3c-1.6-2.9-3.3-5.6-4.8-8.4c0.9-0.6,2-1.4,3.3-1.4
			c3.7-0.3,6,3.5,8.7,5.7c-0.3-3.3-3.2-6.2-5.5-7.6c-2.8-1.6-5.7,0.2-8.4,1.1c-1.1-1.4-2-2.9-3.1-4.5c0.6-5.3,0.6-10.2,0.1-14.9
			c0.1,0,0.2-0.1,0.2-0.1c-0.3-0.8-0.3-1.8-0.2-2.6c-0.3,0.2-0.7,0.2-1.1,0.3c-0.2,1.4-0.9,2.8-2.4,3.4c0.4-0.1,0.8-0.2,1.2-0.3
			c-3.1,4.2-5.5,7.6-7.7,10.8c-0.1-0.2-0.1-0.3-0.2-0.4c-0.7,0.8-1.8,1.4-3.3,1.4c-0.5,0-1-0.1-1.4-0.3c-13,1.6-25.9,4.1-38.5,6.5
			c-1.1-1.3-1.9-2.8-2.1-4.4c-4,0.2-6-3.7-8.7-5.9c-0.3,0.8-0.6,1.4-0.9,2.3v0.2c1.3,4.9,4,9.3,5.9,14.2c-1.2,2.8-5.3,3.2-7.7,4.6
			c-0.3,2.5-0.8,5.2,0.1,7.6c1.1,1.6,2.5,2.8,3.6,4.4c-0.1,6-1.3,12-2,18c-0.5-0.6-1.1-1.3-1.7-2c0.3-2.5,0.3-4.9,0.3-7.6
			c-4.2-2-6.9,2.1-9,5.2c-1.7-0.2-3.3-0.3-4.8-0.5c-0.6-1.1-1.3-2.4-2-3.5c2.4-2.5,3.9-5.3,4.4-8.2c-6.5-4.1-14.4,1.7-16.7,3.7
			c-2.1-0.3-4.6-0.3-6.5-1.4c-3.3-1.8-7-2.7-11.4-2.9c-2,0.1-3.3,2-4.6,3.7c0.9-0.2,2-0.3,2.9-0.6c5.3-1.8,9.8,0.8,14.2,3.7
			c-0.6,2.4-1.1,4.6-1.6,6.7c-1.4-0.6-2.9-1.1-4.4-1.7l0.3,2c-1.7-0.3-3.3-0.8-4.8-1.3c1.1-0.8,2.4-1.9,3.7-2.8
			c-2.7-1.7-6.2-2.5-7.7-5.5c-0.6,0.5-1.3,1.1-2,1.6c1.1,1.3,2,2.5,3.1,3.7c0,1.8,0,3.5,0.1,4.9c-2.9,0.2-5.7,0.5-8.6,0.3
			c-0.6-0.3-1.2-0.8-1.8-1.3c-1.1-1.1-2.1-2-3.7-2c-2.8,1.1-3.3,4.4-3.6,7.2c-0.3,5.3-1.1,10.6-1.7,15.8c-0.8,7.1-0.4,14.2-1.4,21.4
			c-6.8-6.2-9.8-15.6-17.6-20.7c-3.3-2.4-7.5-2.5-11.3-3.2c0.1-1.1,0.2-2.1,0.3-3.3c2.1-0.8,4.4-1.7,6.5-2.7
			c-1.6-0.9-3.3-1.9-4.8-2.7c0.2-2.3,0.4-4.6,0.3-7c-0.7-4-3.3-7.6-6.9-9.6c-2.6-1.3-4.9,0.4-7,1.9c-1.2,0.9-3.1,0.2-4.6,0.3
			c0,0.6,0.1,1.7,0.1,2.4c-0.8,1.4-1.3,3.3-1.4,5.2c0.8-0.7,1.6-1.4,2.4-2.3c-0.1,0.2-0.1,0.3-0.2,0.3c0.3,1.1,0.4,2,0.6,3.2
			c1.2,7.5,2,9.9,10,11c0.3,1.4,0.7,2.9,1.1,4.4c-3.3,1.1-5.7,5.5-4.8,8.7c2.7,3.3,7,3.1,10.4,4.6c6.2,8.2,9.5,18,17.3,24.7
			c2.4,2.1,4.8,4.5,8,5.1c-0.1,1.6-0.3,3.2-0.4,4.8c-4.2,0.7-9.3,2.1-12.2,6.2c-3.1,4.1-5.2,8.7-6.2,13.6c-1.6,6.9,0,13.8,0.4,20.6
			c-7.4,0.3-12.8,2-16.8,5.5c-3.3,2.5-4.8,6.4-6.2,10.2c-7.1,1.5-15.4,4-21.3,9.3c-7.7-3.3-16.4-5.5-25.7-6.4
			c0.1,0.8,0.3,1.5,0.3,2.3c13.3,1.3,26.8,5.3,38.5,14.3l1.7-2c-3.4-2.7-7.2-5-11.3-7.1c5.9-3.7,12.9-7.9,20.8-8.4
			c8.4-0.8,17,3.7,21.1,11.1c2,3.7,1.6,8,1.9,12.1c-3.2,0.1-4.8,2.6-6.3,4.9c-1.7,2.5-3.2,4.8-6.3,4.6c-3.6,0.2-6-2.9-9.2-4.1
			c-2.7-0.9-4.6,1.6-5.7,2.9c2,0.5,4-0.7,5.9-1.4c3.7,2.4,7.6,5.3,12.2,4.5c2.3-1.1,3.6-3.2,4.8-5.1c1.2-2,2.4-3.7,4.4-4.8
			c-0.1,3.7-1.7,7-2.1,10.4c1.7-0.2,2-2,2.8-3.3c1.7,3.2,5.5,2.4,8.4,2.5c0.1-0.3,0.2-0.7,0.2-0.9c-3.3,0.4-7.4-0.7-7.9-4.2
			c0.4-3.3,2-6.2,2.1-9.3c0.2-3.1-0.8-6-2-9.2c4.2-1.7,10.3-3.1,15.5-0.4c7.1,2.9,13.1,9.6,15.9,17.9c-0.2,0.2-0.4,0.5-0.6,0.8
			c-5.7,1.2-11.3,3.1-14.3,7.7c1.7-0.3,3.3-0.6,4.8-1.6c6.8-4.5,15.1-4.8,23.3-4.8c5.5,0.1,10.3,2.6,15.5,3.3
			c-0.9-5.9-2.5-11.8-3.3-17.7c1.1,0.9,2.3,2,3.6,3.3c0.3,4.8,1.2,9.8,2,13.8c0.3-0.3,0.8-0.8,1.2-1.1c-0.4-4-0.8-7.9-1.3-12
			c1.2,0.3,3.3,0.2,3.5,1.4c0.5,3.7,0.8,7.6,2,11.3c5.1-4.6,9.3-10.3,15.5-13.3c4-1.9,9-1.8,14.9,0.2c4.4,1.4,7.2,5.2,10.6,8.3
			c-0.4,0.5-0.8,1.1-1.2,1.7c0.5,0.3,1,0.7,1.4,1.1c0.2,0.2,0.3,0.3,0.4,0.4c3.1-2.2,7.1-3.6,11.1-1.5c-0.7,2.6-0.9,4.4-1.1,6.5
			c2.7-3.3,3.7-7.5,6.2-11c3.3-4.8,7-9.6,12.1-12.1c5.6-2.7,13.7-3.3,19.1,1.6c2.9,2.1,5.1,5.1,7.2,7.9c2.6,3.5,5.5,7.1,9.5,9.3
			c1.2,0.3,2.5,0.3,4,0.5l-2,2.9c2.5-0.5,4.5-2,6-4.5c1.9,1.2,3.3,2.4,4.6,3.6C396.1,520.7,394.7,518.9,393.5,517.1L393.5,517.1z
			 M321.6,339.6c0.5,0.4,1.2,1.1,1.8,1.4c-0.3,0.3-0.5,0.6-0.8,0.8c-0.9,1.2-2,2.4-2.3,4c-0.1,0.6-0.3,1.2-0.6,1.4
			c-0.2,0.1-0.3,0.1-0.6,0C317.1,344.5,319.7,341.9,321.6,339.6L321.6,339.6z M375.6,405.8l-1.9-1.3c0.3-0.4,0.6-0.8,0.8-1.2
			c1.1-1.6,2.1-3.2,2.4-5.2c-1.6,1.1-2.5,3.1-3.7,4.5c-0.2-2.1-0.8-5.1,1.2-6.4c2.5-1.9,5.3-4.1,7-7.1c0.3,0.3,0.6,0.7,0.9,1.1
			C381.2,396.6,378.9,401.8,375.6,405.8L375.6,405.8z M383.3,378c0.5,2.5,0.3,4.9,0.2,7.5c-0.1,0.7-0.2,1.3-0.2,2
			c-0.8,0.4-1.8,0.6-2.7,0.5c-2.7,2.5-5.2,5.5-9,6.2c-0.5-3.3-0.1-6.2,1.3-8.7c-4,2-6.9,5.5-11,7.4c-0.5-3.3-0.3-6.4,0.6-9.3
			c-4.3,2.6-8.4,6-13.5,7.1c0.2-3.3,1.8-6.2,2.3-9.3c-4.3,2.5-8.2,6.5-13.6,6.3c0.1-3.1,1.6-5.5,2.3-8.4c-2.3,0.8-4.5,2.1-6.5,3.3
			c-1.6,0.9-3.2,2-4.8,2.7c-0.8-0.1-2.4-0.1-3.2-0.2l-1.3,2c4.1,2.9,7.9-1.1,11.5-2.8c0.1,1.4,0.2,2.9,0.3,4.4c3.7,3.7,8-0.2,11.5-2
			c-0.2,1.6-0.3,3.3-0.5,4.8c0.6,0.4,1.7,1.2,2.3,1.7c3.7-0.8,6.9-3.1,9.9-5.1c0.2,2.7,0.1,5.7,2.5,7.6c2.6-1.3,4.8-3.3,7-5.1
			c0.2,1.2,0.3,2.7,0.4,4.1l2.5,2.5c-1.3,2.6-2.8,5.5-4.9,7.9c0.3-2.5,0.5-5.2,0.2-7.7c-2,1.4-1.1,3.6-1.1,5.5
			c-2.4-1.1-1.6-4.8-1.9-7.1c-3.7,3.1-4,9-8.4,11.1c0.7-3.5,2.4-6.8,2-10.4l-1.8,1.2c-0.2,2.3-0.3,4.6-1.4,6.7
			c-0.8-2.8-1.3-5.9-1.2-8.8c-2,2.3-3.3,4.8-5.2,7.1c-1.1,1.3-2.4,2.8-4.2,2.5c1.3-3.3,4.3-5.9,4.1-9.8c-2,2-2.8,5.1-4.5,7.6
			c-1.2-2.5-0.7-5.5-0.8-8.3c-3.5,2.8-5.9,8.7-11,8.4c2.4-3.2,5.2-6.2,5.9-10.4c-2.5,2.4-3.6,5.9-6.2,8.2c0.2-2.4,0.4-4.6,0.6-7
			c-2,0.8-3.7,2-5.5,3.3c-0.7,0.5-1.4,0.9-2,1.4c-0.4,0.6-2,1.1-2.8,0.7c-0.3-0.2-0.5-0.4-0.5-0.8c3.5-2.5,7.2-4.8,9-9
			c-2.8,2-5.1,4.6-8,6.5l0.6-3.9c-4.5,0.1-8.3,3.3-12.7,3.3c4-3.5,11-3.3,12.4-9.3c-4.3,3.7-9.8,5.9-14.7,8.5c-0.7-0.8-1.3-2-2-2.9
			c6.4-1.4,12.7-4.8,18.3-9.8c0.1,1.4,0.1,3.3,0.2,4.6c1.4-1.2,1.7-3.1,1.8-4.8c0-0.6,0.1-1.3,0.2-2c3.1-3.7,6.2-5.9,9.3-6.3
			c13.6,0,25.3,9.2,39.1,7.7C377.8,381.1,381.4,381,383.3,378L383.3,378z M358.4,343.2c-5.2,3.3-12.5,3.9-20,1.6
			c-3.1-0.8-5.5-3.3-6.5-6.5c-0.6-2.8,2.4-4.4,4.6-5.7c4.5-2.1,8.7-3.3,12.7-3.3c5.2,0.1,12.3,2.1,12.2,8.4
			C361.3,340,360.1,342,358.4,343.2L358.4,343.2z M301.4,321.9c2.1,1.4,3.7,3.6,5.2,5.7c3.5,0.1,7-0.7,10.4-1.4
			c12.1-2.6,25-5.5,38.5-5.9h0.1c1.4-1.7,2.4-4,4.1-5.5c-0.2,2.1-0.6,4.3-0.4,6.5c0.9,2.3,2.5,4.2,3.7,6.2l-1.4,2
			c-4.6-3.9-11.1-4.6-19.9-2.5c-3.1,0.7-5.7,2.5-8.7,3.3c-0.9,0.9-1.9,2.1-2.9,3.1c-4.9-0.9-9.3-0.8-13.2,0.4
			c-4.3-2.1-7.7-3.2-11.9-2.7C305.2,327.7,302.5,325.1,301.4,321.9L301.4,321.9z M304.3,334.5l0.2-0.1c3.3-0.1,6.9-0.3,9.8,1.8
			c1.4,0.8,2.7,2.5,2.9,4.1c0.1,0.8,0,2-1.1,2.9c-4.1,4.6-11,3.3-13.8,2.5C302.9,341.9,303.3,338.2,304.3,334.5L304.3,334.5z
			 M373.4,462.1c-1.6,2-4.8,5.5-8.7,4.8c-0.7-0.7-1.2-2-0.7-3.1c2-2.7,4.8-4.8,8.2-5.7C372.6,459.8,373,460.9,373.4,462.1
			L373.4,462.1z M362.9,468.9c-3.3,2.6-5.9,5.9-8.7,8.7c1.2-5.9,3.1-11.5,4.5-17.3c3.9-2.7,7.1-6.2,11.3-8.7c-0.6,1.9-1.2,3.7-2,5.5
			c-0.5,0.6-1.1,1.1-1.8,1.6C361.8,461.9,362.4,464.3,362.9,468.9L362.9,468.9z M350.3,470.2h-0.1c0.1-3.6-4.3-5.7-7.5-4.6
			c-1.4,0.6-2.5,1.7-3.7,2.5c-0.9-2-1.1-4.2-1.2-6.3c6.4-0.2,12.7-0.6,19.1-0.7c-1.8,6-3.5,12.2-5.1,18.3c-3.2,0.8-6.3,1.3-9.3,1.4
			c1.6-2.1,3.5-4.1,4.6-6.7C347.6,472.6,349.2,471.4,350.3,470.2L350.3,470.2z M372.8,457c-0.9-0.3-2-0.4-3.1-0.6
			c0.5-1.6,1.3-3.1,2.4-4.2C372.3,453.5,372.6,455,372.8,457L372.8,457z M296.9,338.3c1.3-0.7,2.7-1.4,4.1-2c-0.2,0.9-0.3,2-0.5,3.1
			c-0.3,1.7-0.6,3.3-0.8,5.1C296.9,343.1,296.7,340.1,296.9,338.3L296.9,338.3z M269.9,353.3c3.1-2.5,6.7-3.5,9.2-3.9
			c0.9,0.4,1.9,0.9,2.7,1.6c-1.6,2.3-3.7,4.1-5.9,5.9c-0.7,0.6-1.4,1.1-2,1.8c1.8,0.3,3.9,0.5,4.8,2c-3.9,1.4-7.6-2.3-11.4-0.5
			C267.9,357.8,267.8,354.8,269.9,353.3L269.9,353.3z M267.1,354.7c-0.4,2.1-0.8,4.4-1.4,6.5c-1.1,0.4-2.3,0.7-3.5,0.8
			C262.5,359.6,263.6,355.5,267.1,354.7z M191.8,374.9c-2-0.5-3.9-1.1-4.5-3.1c-1.8-4.3-1.8-8.8,0.1-12.2c0.8-2,3.1-3.3,5.5-3.3
			c2.7,1.8,7.1,5.6,7.1,11.3c-2-0.2-4.1-0.5-6.2-0.7c-1.1,0.7-1.9,1.6-2.6,2.5c0.4,2,0.8,3.9,1.3,5.7
			C192.4,375,192.1,374.9,191.8,374.9L191.8,374.9z M193,370.1c0.1-0.6,0.4-1.1,1.1-1.6c1.6,0.3,3.3,0.4,5.5,0.4
			c-0.1,1.3-0.2,2.7-0.2,4.1c0.3,0.5,1.1,1.4,1.4,2c-1.9,0.3-3.7,0.3-5.6,0.3C194.3,373.7,192.7,371.8,193,370.1L193,370.1z
			 M197.9,381c-0.7-0.1-1.4,0-2.1,0.3v-0.2c0-1.1,0.1-2.9,0.2-4.1C197.9,377.1,197.8,379.4,197.9,381z M215.4,413.1
			c-5.9-6.4-8.4-14.9-14.3-21.1c-3.2-1.1-7.6-0.8-9.3-4.2c2.5-4.8,9.2-5.5,14.2-3.7c10.7,4.6,13.8,16.6,22.2,23.7
			c-0.5,3.3-0.7,6.5-0.9,9.8c-0.1,1.7-0.2,3.3-0.3,4.9C222.2,420.5,218.7,416.8,215.4,413.1z M222.3,494.2c-4.1,0-7.5,0.5-10.4,1.7
			c-1.1,0.8-1.7,0-2-0.9c-2.4-3.9-6-7-10.7-8.7c-3.7-1.4-7.6-0.8-11.3-1.4c4.1-9.2,11-12.5,21.2-12.7
			C221.5,472.6,227.7,483,222.3,494.2L222.3,494.2z M244.9,516.5l-1.6-1.3c-0.1-2.8-0.2-5.3-1.4-7.5c-3.6-6.2-9.8-11-17.3-13.6
			c2.4-5.6,0.6-12-0.7-15.2c-2.1-5.5-8-7.2-12.8-9.8c-0.6-4.4-1.1-9.3-1.3-14.9c0.1-9.8,9.5-24.7,20.8-19.9
			c4.8,2.8,6.8,8.8,8.2,13.2c0.9,3.3,2.9,7,1.1,10.3c-3.9,1.1-8,0.3-12,0.6c0.5,0.5,1.1,1.1,1.7,1.8c4.1-0.5,8.4,0.8,12.2-1.6
			l2.4,10.6c-4.8,2-10.6,1.1-14.7-2.5c0-2.6,0.6-5.5-1.4-7.6c-1.9,7.4,1.6,14.4,3.1,21.6l-3.3,0.5c0.3,3.9,3.3,6.2,6.2,8.3
			c1.3,0.9,1.4,0.9,0.8,2.6c-1.2,2.8,1.1,3.6,3.1,4.8c0.1,0.9,0.3,2,0.5,3.3c0.5,0.7,1.2,1.1,2,1.4c1.1,0.5,2,0.9,2,2.1
			c0.2,2,2,2.9,3.5,3.9c0.1,0.7,0.3,2,0.3,2.5c1.3,1.4,2.8,3.1,3.5,4.8C247.9,515.9,246.3,516.1,244.9,516.5L244.9,516.5z
			 M241.7,472.6l2.6-0.8c1.1,3.3,1.8,6.7,2.5,10.6c-1.9-0.5-4.1-0.5-5.5-2C241.7,478.1,241.9,475.7,241.7,472.6z M239.9,480.2
			c-0.7,0.3-1.4,0.2-2.4-0.3c-0.3-2.5-0.6-4.9-0.8-7.5C240.9,472,240,477.3,239.9,480.2L239.9,480.2z M235.4,480.1
			c-0.8,0-2,0-2.7,0.1c-0.8-3.1-1.2-6-2-9.1c1.6,0.4,3.5,0.6,4.1,2.3C235.4,475.6,235.2,477.9,235.4,480.1z M268.9,518.9
			c-4.6-1.8-9.2-2.5-13.8-3.5c-1.4-1.9-5.5-3.1-3.6-5.9l-0.3-0.1c-0.5-0.3-1.4-0.6-2-0.8c2.6-3.3-2.1-3.5-4.6-4.1
			c0.7-0.9,1.3-1.9,2-2.8c-1.9-1.1-4-1.4-6-2c-0.2-1.6,2.1-2.1,2.7-3.6c-2-1.1-4.3-1.9-6.5-2.6c2-1.1,4.1-2,5.2-4.2
			c-4-1.1-8.4-2.1-11-5.6c5.5-0.8,11-0.3,15.5,1.6c-1.1,5.7,0.5,12.3,4.8,19.4c1.4,2.1,3.3,5.3,6.5,4.1c-6.5-5.5-10.3-14.2-10-23.1
			c2.6,0.8,5.6,0.3,8.2,1.3c1.9,8.5,2.3,17.3,2.9,25.9c0.2,1.4,0,3.3,2,3.7c-0.2-11.9-1.7-23.4-2.5-35.2c-1.1-8.4,0-16.3,9.5-18.9
			c12.5,0.1,13.3,13.9,15.4,23.1c-0.4,0.7-0.9,1.6-1.4,2.4c-2.7,0.1-5.9,0.1-9.2-0.7c-1.7-0.3-3.3-1.1-4.9,0
			c-3.5,2.1-3.1,6.8-3.1,10.4C265.9,504.7,267.3,511.9,268.9,518.9L268.9,518.9z M270.1,502.7c-4.6-4.4-2.7-11.8-2-14.2
			c5.2,0.1,10.4,2.7,15.4,0c0.7,5.1,2.4,9.9,2,15C281.1,506.5,274.1,507.1,270.1,502.7z M282.3,512.8l-0.1,0.3
			c0.3,1.9-0.8,3.3-2,4.2c-0.6-3.3-1.3-6.2-2-8.7c0.8-0.1,2.3-0.1,3.1-0.2c0.3,1.1-0.4,3.6,1.6,3.3c0.5-1.3,0.6-2.6,0.3-4
			c1.1-0.4,2.3-0.9,3.6-1.3C287.5,509.3,285.3,512.5,282.3,512.8L282.3,512.8z M288.8,507.8c-1.1-4.1-1.3-8.2-1.8-12.2
			c-0.5-3.1-0.9-5.9-1.4-8.8c-0.8-6.2-1.9-12.6-4-18.6c-1.3-3.7-4.5-6-7.6-7.9c3.3-6.2,7.1-10,11.6-11.5c2.4-0.9,5.6-0.4,7,2
			c2,3.6,2.7,7.7,3.6,11.8c0.1,1.2,0.9,3.1-0.3,3.7c-2.6,1.9-6.5-0.9-9,1.7s-2.3,6.5-1.8,9.3c1.1,4.6,2.5,9.2,3.7,13.6
			c1.3,4.6,2.8,9.3,3.9,14.2C291.6,506,290.4,507,288.8,507.8L288.8,507.8z M295.1,504.2c-1.2-5.2-2.8-10.4-4.3-15.4
			c-1.1-3.7-2.3-7.4-3.3-11.1c-0.8-2.6-0.6-5.6,0.4-8.4c3.3-0.4,6.5-0.4,9.8-1.1c2,12,4.8,23.4,6.9,35.4
			C301.3,502.8,298,503.1,295.1,504.2L295.1,504.2z M306.2,497.5c-2-12.4-4.8-24.4-7.5-36.6c-0.9-4.2-1.9-8.7-4.4-12.4
			c-1.6-2-3.7-2.5-5.6-2.5c-8.6-0.1-13.3,7.1-16.6,13.6c-5.9-0.2-11.5,3.3-14.7,8.6c-0.8,1.4-2,2.6-3.3,3.7
			c-1.4,1.2-2.8,2.5-3.6,4.3c1.2,0.5,2.5,0.9,3.7,1.4c-0.7,1.7-3.3,3.7-0.6,4.8l0.6-0.8c0.4-1.1,1.1-2.1,2-3.3v2.5l-1.3,0.8
			c0.2,0.8,0.8,1.4,1.3,2c-1.2,0.1-2.5,0.1-3.7,0.2c-6.5-14.2-6.4-30.1-12.6-44.3c-2.4-4.8-6.8-7.9-10-9.5c0.9-5.5,1.1-11,1.4-16.4
			c0.9,0.5,1.8,1.2,2.5,2h3.3c2,4.8,4.8,9.2,7.7,13.3c3.1,4.2,4.8,9.1,10.6,9.3c4.3,4.9,8.4,8.3,13.2,9.2c3.3,0.4,7.5,0.8,9.8-2.3
			c-4,0-8,0.9-11.6-0.7c-7-3.3-12.5-9.3-15-16.4c-1.3-3.5-1.2-7.4-3.3-10.6l2-2c3.6,0.1,6.5,2,9.5,3.9c2.4,1.4,4.8,3.2,7.7,3.7
			c6,1.4,13-0.7,17.6-5.5c-0.2-0.6-0.4-1.6-0.6-2.3c-3.7,2.9-7.1,6.8-12.2,6.9c-4,0.2-7.2-2-10.4-3.9c-2-1.2-4-2.5-6.2-3.3
			c-3.3-0.6-3.3-4.6-4.3-7.1c0.4-0.5,1.1-1.4,1.7-2c-0.1-1.6-0.2-3.3-0.3-4.6v-0.1l-0.1-0.1c-1.3-1.2-2.7-2.5-4.1-3.7
			c-2.1,0.1-4.4,0.1-6.4,1.1c0.3-2.9,0.7-5.9-0.3-8.7c-0.6,3.1-0.8,6.2-1.1,9.2c-1.6-0.1-3.3-0.6-4.8,0.1c-1.7,1.2-2.5,3.2-2.5,5.5
			c-0.6,0.8-1.2,1.9-1.9,2.8c-0.8-10.6,0.7-20.9,1.4-31.2c0.2-4.4,1.4-8.6,1.4-13c1.2,1.2,2.3,2.8,3.1,4.6
			c13.3-3.1,26.8-2.9,40.5-3.5c3.7,0,7.4,0.9,11.1,0.3c0.8-1.3,0.5-4.1,2.4-4.2c0.1,2.5-0.4,5.2,1.1,7.4c3.7,5.3,4,12.1,5.3,18.2
			c0.9,5.1,0.2,10.3,0.6,15.4c0.4,6.2,1.1,12.4,0.8,18.7c0.4,12.7,2,25.1,2.7,37.7c0.5,7.6,1.1,15.4,2.5,23.1
			c0.1,3.2,0.6,6.2,1.1,9.3c0.5,3.6,1.1,7.4,1.1,11.1C306.9,499.8,306.4,498.6,306.2,497.5L306.2,497.5z M256,476.2
			c-1.3-0.3-2.5-0.6-3.6-0.9c1.1-0.9,2.3-1.8,3.5-2.5C256,473.9,256,475.1,256,476.2L256,476.2z M235.1,402.9
			c1.1-2.4,3.3-3.7,5.9-2.9c-0.8,1.4-1.8,3.1-2,4.8c0.3,2,1.3,3.7,2.1,5.5c-1.9,2.1-3.7,4.6-6.9,4.1c-0.7-1.4-1.7-3.1-1.1-4.8
			c0.3-3.5,3.9-5.1,5.9-7.6C237.7,402,236.2,402.5,235.1,402.9L235.1,402.9z M245.8,418.7c0.8,0.4,1.8,0.8,2.6,1.2
			c0.4,2.8,0.7,5.6,1.6,8.4c0.7,2.4,2.1,4.4,2.7,6.9c-1.7-1.3-2.8-3.2-4-4.8c-0.5-0.8-1.1-1.9-1.8-2.6c-2.8-4-4.9-8.2-7.6-12.1
			c1.6-4.8,6.8-6.4,11.3-5.9c0.3,1.3,0.8,2.9,1.3,4.5c-3.1-0.1-4.9,2.4-6.4,4.5h0.3V418.7z M250.1,408.1c-2.8,0.3-5.1,0.5-7.1,0.9
			c-0.9-1.4-2.4-3.3-2-5.1c0.8-1.9,2-3.3,3.2-5.1c1.3-0.1,2.6-0.3,4-0.2c2,0.9,3.1,3.1,4.1,4.8C251.4,405,250.7,406.5,250.1,408.1z
			 M332.9,515.1c-3.5-2.1-7.9-2.1-11.5-0.1c-2.5-5.2-6.3-8.7-10.8-9.9c-0.6-4.6-1.8-9.2-2-13.9c-0.2-4.8-1.9-9.3-2-14.2
			c6.7-1.3,12.2,5.1,13.2,11.4c-2,0.7-3.6,2-4.8,3.7c6.5-1.3,8.8-2.9,14.4,2c-2,1.1-3.6,3.7-6.2,3.3c-2.1-0.4-3.6,1.3-4.6,2.7
			c2.7,0.2,6.2-1.1,8,1.4c-0.2,0.8-0.9,1.2-1.8,1.7c-1.1,0.5-2.1,1.3-2.3,2.8c2.5-0.8,5.6-1.1,8.8-1.1c-1.1-0.9-2.1-2-3.3-2.8
			c-0.5-1.4-1.1-2.9-1.7-4.1c3.6-3.1,8-1.2,11,1.1c-0.8-1.4-1.6-2.6-2.6-4c-2.3-0.2-4.1-1.7-5.3-4.6c7.1-1.7,11.1-0.1,16,4.8
			c0.9,0.8,2,1.8,3.1,2.5c0.1-4.5-3.7-6.9-7-8.8c4.3-3.3,10.3-4.1,15.4-2c5.1,2.3,7.4,7.5,8.3,10.6
			C349.5,493,339.2,502.2,332.9,515.1z M374.8,504.9c-2.1-2.5-4.8-4.5-7.5-6.5c-0.8-5.7-4.6-12.4-11.3-14.3
			c-5.3-1.9-12-0.5-17.2,3.3c-1.2,0.3-2.5,0.3-3.7,0.3c-2.3,0.1-4.6,0.2-6.7,1.7c-2.1-0.9-4.8-1.7-7.6-2.1
			c0.3-6.4-4.8-11.1-9.8-12.8c2.1-20.2,9.2-37.7,20.2-50.9c-1.6-1.8-3.3-3.9-3.1-6.5c2.6,0.3,4.2,2.5,5.9,4.4c9.1,0,17.9-2,27-0.9
			c-0.9-2.3-3.9-4.9-1.6-7.2c2.1,1.2,4.6,3.3,4.5,6.5c2.1,2,4.8,5.1,5.3,9.2c0.2,3.1,0.4,5.9,0.7,8.8c0.2,3.1,0.4,5.9,0.7,9
			c-0.2,0.6-0.6,1.6-0.8,2.3c-1.7-0.9-3.3-1.9-4.8-2.8c0.9,1.1,2,2.4,2.9,3.5c-2.6,2-5.5,4-7.7,6.4c-0.3-0.3-0.7-0.6-1.1-0.8
			c1.8-1.9,2.8-3.6,3.7-5.7c-2,1.9-3.7,3.9-5.5,5.9c0.1,0.6,0.3,1.6,0.3,2.3c-1.1-0.1-2-0.3-3.2-0.3c0,0.5,0.1,1.1,0.2,1.7
			c-5.3,0.1-10.6,0.2-15.9,0.7c-0.8,0.1-2,0.2-2.6,0.8c-0.3,0.3-0.3,0.6-0.3,1.1c0,2.6,0.7,5.2,1.4,7.1c-3.3,2.4-6.2,5.9-10.4,5.9
			c-2-2-4.1-3.6-6.4-4.8c0.8,2.8,3.1,5.5,5.5,6.5c4.1,2,7.7-1.7,10.8-4.1c2-1.7,4.1-3.3,6.7-4.4c1.2-0.5,2.5-0.2,4.1,0.8
			c-2.1,2.4-2.8,5.6-5.1,7.9c-2.5,2.8-6.7,3.3-9.6,5.7c2.6,1.4,5.1,0,7.2-1.1c0.6,0.9,1.1,1.7,1.6,2.4c4.6-1.4,10.6,0.4,13.8-4
			c2.6-3.3,5.9-7.1,9.8-9.9c3.9-0.4,7.1-2.6,9.1-6c4.3,17.8,7.2,35.5,11.4,53.2C381.2,514.2,378.5,509.1,374.8,504.9L374.8,504.9z"
			/>
		<path class="st0" d="M218.7,446.8c-0.9,0.7-1.4,1.9-2,2.8c-1.9,0.1-3.7,0.1-5.6,0.1c1.3,1.4,3.2,1.8,4.8,1.8c0,2,0.2,4.1,0.6,6.2
			c2.6-0.7,3.6-3.3,4.6-5.5c-0.3-0.6-0.5-1.3-0.8-2L218.7,446.8z M218.7,451.9c-0.4,0.9-0.7,2-0.8,3.1h-0.1
			c-0.5-0.8-0.5-2.9-0.1-3.9c0.3-0.7,0.6-0.6,1.2,0.2L218.7,451.9L218.7,451.9z M240,464.4c-2-1.4-3.2,3.2-0.8,3.3
			C240.6,467.6,241.1,465.2,240,464.4z M254.5,490.2c-1.4-0.4-3.2-1.1-4.8-1.4c0.3,1.4,1.7,3.2,3.2,3.2
			C253.4,491.9,254.2,491.5,254.5,490.2L254.5,490.2z M267.6,471.1c0,0.8,0.1,2.1,0.2,3.1c-1.6-0.5-3.1-1.1-4.6-1.6
			c0.9,1.7,2.1,3.3,3.3,4.3l0.2,0.2c0.8-0.8,1.7-1.7,2.5-2.5c0-1.2-0.1-2.5-0.1-3.7C268.5,471.1,268.1,471.1,267.6,471.1
			L267.6,471.1z M710,490.2c-7.7,1.1-13.2,2.4-15,2.8c-79.7-13.1-107.1-5.2-114.8-1.4c-7-6.5-38-14.9-44.9-16.6l-1.9,2
			c16.6,4.3,43.3,12.7,43.6,16.7l0.3,3.7l3.7-3.1c0.2-0.2,18.6-14.9,113.4,0.8l0.8,0.2l0.8-0.3c0.2-0.1,5.4-1.4,13.9-2.7L710,490.2
			L710,490.2L710,490.2z M470.3,501.7c0.3-0.2,0.7-0.2,1.1,0c0.3,0.2,0.5,0.3,0.8,0.4l-3.1-2C469.5,500.6,470,501.2,470.3,501.7
			L470.3,501.7z M280.6,459.3c-2,0.3-3.3,0.1-3.3-2c-4.4,3.6,3.7,3.2,1.9,6.5h0.8v1.1c1.6,0,3.3,0,4.8,0.1c-0.3-2.5-0.3-4.9-0.9-7.6
			C282.2,456.5,281.5,458.2,280.6,459.3L280.6,459.3z M280.4,463.7c0.3-1.7,0.9-2.9,2-3.3c0.2,1.1,0.3,2.1,0.3,3.3
			C282.1,463.5,281,463.7,280.4,463.7z M322,446.1c-1.6,0.5-0.7,2.3,0.4,2.8c0.6,0.3,1.2,0.1,1.6-0.3
			C325,447.3,323.3,445.6,322,446.1z M287.4,454.4c-0.4,0.3-1.1,0.8-1.6,1.2c0.3,0.4,0.4,0.9,0.7,1.4c0.3,0.6,0.5,1.1,0.8,1.8
			c2,0.2,4.1-1.1,5.1-2.9c-1.1,0.3-2.3,0.7-3.5,1.2L287.4,454.4z M335.5,449.6c2,2.5,4.6,1.9,7.5,1.8c3.3-0.3,7.1-0.7,9.3-3.7
			c-1.4,0.3-3.1,0.7-4.6,1.1C343.7,449.7,339.6,450.7,335.5,449.6z"/>
		<path class="st2" d="M399.8,520c0.2-5,0.1-10.1-0.7-15c-1.1,1.9-2.1,3.7-3.3,5.6c-0.8-0.1-0.8-0.2-1.7-0.2
			c-1.4-4.6-2.7-9.2-2-14.1c-1.9,0.1-3.7,0.2-5.5,0.3c4.6-6.4,8.4-13.8,8.8-21.7c0.7-7.5,3.7-14.8,2.5-22.3
			c-1.1-4.5-3.3-8.6-4.3-13.2c-3.1-14.3-2.4-29-0.7-43.4c-2.5-3.1-7.2-2.7-11-3.3c0.3-0.7,0.8-2,1.1-2.6c-1.8-1.7-4.3-2.9-4.8-5.4
			c-0.1-0.4-0.2-0.8-0.3-1.1c-2-4.6-2.5-10.6-2.2-17c-0.5-8.7,0.2-17.7,2.3-26.2c1.7-5.3,4.2-9.9,7.3-14.3c0.8-1.2,1.8-2.4,2.7-3.5
			c-0.5-2.8-0.8-5.6-0.7-8.5c0.1-0.7-0.2-1.1-0.3-1.5c0.5-0.2,0.9-0.3,1.4-0.3h0.1c-0.3-2.8-0.8-5.6-1.1-8.4
			c1.1,1.1,2.4,2.1,3.5,3.2c2.4,2,5.9-1.4,3.5-3.5c-5.9-4.8-10.9-10.6-15.4-16.7c-3.1-4.2-6-8.5-8.7-13.1c-0.3-1.1-0.5-2.4-0.8-3.4
			c0.3-0.5,0.5-1.1,0.3-2c-0.5-1.3-0.8-2.5-1.2-3.9c-0.2-0.8-0.2-1.8-0.2-2.5l-0.5-0.3c-1.4-5.9-2.4-11.8-2.7-17.7
			c2.5-7,6.1-13.6,7.7-20.8c0.3-1.1-0.3-2-1.1-2.6c2.5-2.5,4.8-5.1,6.1-8.4c4-8.3,2-17.7,3.7-26.4c0.3-2.2,1.1-4.3,1.9-6.5
			c-0.3-0.2-0.5-0.3-0.7-0.5c0.1-0.8-0.1-1.5-0.3-2.3c-0.1-0.2-0.2-0.3-0.2-0.3c-0.7-0.9-1.1-2.2-1.5-2.9c0-0.1-0.1-0.2-0.1-0.2
			s0.1-0.1,0.2-0.1c-0.1,0-0.1,0-0.2,0.1l-0.3-0.7c-0.3-0.4-0.7-0.8-1-1.1c-0.8-0.8-1.5-1.4-2-2c-0.6-0.7-1.1-1.4-1.6-2.2
			c-0.3-1.4-0.6-2.8-0.8-4.3c-0.5-1.1-0.8-2.4-1.1-3.6c-0.8-4.5-0.7-9.8,1.8-13.8c1.4-5.5,4.2-10.6,8.7-14.6
			c0.2,0.1,0.3,0.2,0.4,0.2c-0.2-0.1-0.2-0.2-0.3-0.3c5.8-0.9,12.3-3.3,17.7-0.1c2.5,1.2,4.8,2.7,7.7,2.2c0.7,0.3,2,1.1,2.7,1.4
			c1.9,2.5,3.7,4.8,5.4,7.5c18.9-9.4,41.2-12.4,61.8-7.7c1.1,0.7,2.4,1.1,4,1.1h0.4c0.5,0.2,1.1,0.3,1.6,0.4v-0.7
			c1.3-0.3,2.4-1,3.1-1.9c2.6-0.6,4.3-2.4,4.9-4.6c3.7-2.9,7.7-5.3,12-7.1c4.8,0.8,10.4,1.5,13.8,4.8c0.9,0.2,1.6,0.7,2,1.4
			c0.3,10.2-1.8,20.2-3.2,30.5c-1.7,2.1-3.6,4.2-5.9,5.7c-2.6,1.8-0.2,6,2.5,4.3c0.8-0.6,1.8-1.1,2.5-1.9c-0.4,4.9,0.1,9.9,1.9,14.7
			c2.1,5.5,5.5,10.5,8.4,15.7c0.6,1.1,1.6,1.4,2.5,1.1c1.9,1.7,3.8,3.1,5.9,4.5c1.4,0.3,3,0.5,4.4,0.8c0.1,0.8,0.1,1.7,0.2,2.4
			c0.3,0.2,0.4,0.3,0.7,0.5c1.4,1.1,2.9,2.4,4.3,3.7c0.9,2.4,1.8,4.8,2.5,7.1l-0.4-0.3c0.2,0.3,0.3,0.5,0.6,0.8c2,7.4,3.6,15,4.3,23
			c-0.6,5.5-0.7,11,0.1,16.4c-0.2,1.3-0.3,2.5-0.3,3.7c-0.2,1.4-0.3,2.7-0.6,4.1c-3.1,6.9-7.3,13.5-13.2,18c-2.5,2,1,5.5,3.5,3.5
			c0.6-0.5,1.1-0.9,1.8-1.4c-4.2,5-9.2,9.8-11,16.3c-0.3,1.3,0.6,2.7,1.9,3.1c-0.2,1.4-0.4,2.9-0.5,4.3h0.1c0.8,0.3,1.5,0.5,2.4,0.7
			c-0.5,0.8-0.6,1.7-0.3,2.6c3.3,3.3,6.2,7,8.4,11.1c8.1,14.2,9.4,31.7,4.6,47.1c-1.1,3.7-3.6,6.5-6.2,9.1c-1.3,1.8-2.8,3.3-4.6,5
			c3.8,15.2,4.8,31.4,1.8,46.9c-1,6.1-5.9,11.2-4.9,17.7c-0.2,9.8,4.3,18.6,6.9,27.7c1.7,6.2,4,12.1,6,18.3
			c-1.9-1.6-3.7-3.3-5.5-4.8c0,3.7-0.1,7.3-0.3,11c-2.3,3.6-3.1,7.7-3.3,12c5.3,0.2,10.8-0.2,15.5,2.6c5.4,3.5,9.9,8.5,12.5,14.3
			c2,8.9,5,18.1,2.9,27.3c-4.8,7-13.9,8.2-21.5,10.7c-8.1,3-16.6,2.7-24.9,4.7c-14.7,2-27.8-6.1-41.8-8.9c-3.7-4.3-8.7-7-13.1-10.5
			c-5.9,4.9-11.5,10.4-18.9,12.8c-10.4,3.7-20.5,7.6-31.2,10.2c-13,2.9-25.6-3-38.4-4.6c-4.9-3.2-12.8-5-13.6-12.1
			c-0.1-9.3,2.8-18.5,6.3-27C380,524.5,390,519.6,399.8,520L399.8,520z"/>
		<path class="st0" d="M508.1,188.1c-8.3,4.8-17.7,5.8-26.7,6.8c-3.3-8.3,3.7-7,6.5-8.1c8.2-1.7,15.8-5.5,23.3-9.4
			c1.3-0.8,2.5,0.5,3.7,1.1c0.5,3.1-0.2,5.9-1.5,8.4C511.7,187.7,509.8,187.2,508.1,188.1L508.1,188.1z M493.6,273
			c0.1-0.1,0.1-0.2,0.2-0.3C493.7,272.9,493.7,273,493.6,273z M436.7,283.2c4.6,8.7,11.9,15.9,21.9,16.9c6.5,0.4,12.5-1.4,17.6-4.6
			c-5.4,4.1-12,6.2-19.4,5.9c-9.8-1-17.2-7.8-21.7-16.4C435.7,284.4,436.3,283.8,436.7,283.2L436.7,283.2z M432.2,286.9
			c-0.1-0.2-0.2-0.3-0.2-0.5c0.5-0.2,1.1-0.3,1.5-0.5C433.1,286.2,432.8,286.6,432.2,286.9L432.2,286.9z M486.9,288.3
			c-0.6-0.5-1.1-0.9-1.8-1.4c0.4-0.6,0.8-1.1,1.2-1.9l0.1,0.1c0.7,0.7,1.4,1.3,2.2,1.9c-3.3,5.4-7.6,10.1-13.1,13.8
			C480.3,297.4,484.1,293.1,486.9,288.3z M466.3,286c-4.6-0.3-9.9-0.1-13.6-3.7C457.4,282,463.4,281.5,466.3,286z M469.3,273.7
			c-9.2,0.8-18.3,0.5-27.3-0.8c-2.3-0.3-1.3-3.1,0.9-2.7c6.9,1,13.6,1.4,20.5,1.1c3.5-0.2,7-0.5,10.6-1c2.4-0.3,5.5,0.2,5.4-3.1
			c0.3-1.8,3.8-1,3.4,0.8C482.8,274.4,473.7,273,469.3,273.7L469.3,273.7z M441.3,154.9c2-0.3,4.2-0.7,6.4-0.8
			C445.7,154.9,443.6,155.1,441.3,154.9z"/>
		<path class="st0" d="M361.2,257.5c1.9,0.7,3.7,1.4,5.5,2c0.3,7.7,3.4,14.9,4.2,22.5c0.7-0.2,2-0.5,2.5-0.8c2.9,4.2,5.6,8.7,8.6,13
			c-0.6,0.2-1.1,0.2-1.8,0.3c-0.3,0.3-0.7,0.6-1,0.8c1.3,0.2,2.7,0.2,4,0.5c0.8,1.1,1.8,2.4,2.7,3.4c0.3,3.7,1,7.3,1.4,11h-0.1
			c-0.4,0.2-0.8,0.3-1.4,0.3c0.3,0.4,0.4,0.9,0.4,1.6c-0.2,3,0.3,5.9,0.8,8.6c-0.9,1.1-1.9,2.4-2.7,3.6c-3.2,4.5-5.8,9.3-7.3,14.5
			c-2.1,8.7-2.7,17.7-2,26.6c-0.3,6.5,0.3,12.6,2.4,17.2c0.1,0.4,0.2,0.8,0.3,1.2c0.5,2.5,3.2,3.7,4.8,5.4c-0.3,0.7-0.8,2-1.1,2.6
			c3.7,0.7,8.5,0.3,11,3.3c-1.7,14.5-2.2,29.4,0.9,43.7c1.1,4.6,3.3,8.7,4.4,13.2c0.7,4.6-0.1,9-0.8,13.4c-1.7,5.1-2.6,10-2.5,15.4
			c-1.5,5.7-4.4,11-7.7,15.8c1.9-0.1,3.7-0.2,5.6-0.3c-0.5,4.8,0.8,9.6,2.2,14.2c0.8,0.1,0.8,0.1,1.7,0.2c1-2,2-3.8,3.3-5.7
			c0.8,5,0.8,10.2,0.8,15.3c-9.9-0.3-20,4.6-26.7,11.7c-3.4,8.7-6.2,18-6.2,27.3c0.7,7,8.7,8.9,13.7,12.1
			c12.8,1.5,25.6,7.2,38.7,4.3c10.7-2.6,21-6.9,31.4-10.5c7.4-2.5,13.2-8.2,19-13.2c4.5,3.4,9.5,6.2,13.2,10.5
			c14.1,2.7,27.5,10.8,42.2,8.7c8.3-2,17-1.9,25.1-4.8c7.5-2.7,16.7-4,21.6-11c2-9.3-0.9-18.6-3.1-27.5c-2.7-5.9-7.2-11-12.7-14.4
			c-4.8-2.7-10.4-2.4-15.7-2.5c0.3-4.2,1.1-8.4,3.3-12.1c0.2-3.7,0.3-7.4,0.3-11.1c1.9,1.6,3.7,3.3,5.5,4.8
			c-2-6.1-4.6-12.1-6.2-18.3c-2.5-9.3-7.1-18.1-7.1-27.9c-1.1-6.5,4-11.6,4.8-17.8c3-15.7,2-32-2-47.3c1.8-1.7,3.3-3.3,4.6-5.1
			c2.6-2.6,5.2-5.5,6.2-9.2c4.8-15.6,3.3-33.3-4.8-47.5c-2.2-4.2-5.3-7.7-8.6-11.1c-0.3-1-0.2-1.9,0.3-2.6c-0.8-0.3-1.8-0.5-2.4-0.7
			c0,0-0.1,0-0.1-0.1c0.4-3.9,1-7.7,1.4-11.5c1.8-2,3.4-4,5.1-6l2.4-0.3c-0.3-0.3-0.8-0.7-1.1-1.1c-0.1,0-0.1,0-0.2-0.1
			c1.7-2,3.3-4.1,4.7-6.3c5.5-13.2,9.1-27.2,8.2-41.4c0.8-0.1,2.5-0.1,3.3-0.2c-1.5-9.3-4.8-18.3-10.4-26c2.2,1.2,4.5,2.4,6.8,3.5
			c-3.1-5.9-8.2-10.1-13.2-14.3c-0.3-0.2-0.4-0.3-0.7-0.5l-0.2-2.5c-1.4-0.3-3.1-0.5-4.5-0.7c-4.8-3.3-9.6-6.8-12-12.2
			c-2.2-5.2-3.7-10.6-5.5-16h0.2c-0.3-0.7-0.3-1.4-0.3-2.1c0.1-0.7,0.2-1.4,0.3-2c0.1-0.3,0.2-0.5,0.3-0.7c-0.7-0.9-0.7-2.1,0.2-3.3
			c5.7-7.6,9.2-18.7,7.6-28.1c-0.5-3.3-1.8-6.2-3.2-9.2c-0.7,0.1-1.3,0.2-2,0.3c-0.2-1.4-1.1-2.6-2.7-3c-3.7-3.3-9.3-4-14.1-4.8
			c-4.2,2-8.4,4.3-12,7.2c-0.7,2.2-2.4,4.1-5,4.7c-0.8,0.8-1.9,1.5-3.2,1.9v0.7c-0.5-0.2-1.1-0.3-1.6-0.4h-0.4c-1.6,0-3-0.4-4.1-1.1
			c-20.8-4.6-43.3-1.4-62.2,8.2c-1.9-2.5-3.7-4.9-5.5-7.5c-0.7-0.3-2-1.1-2.7-1.4c-2.9,0.5-5.4-1-7.8-2.1c-5.5-3.2-12.1-0.8-18,0.2
			c0.2,0.1,0.2,0.2,0.3,0.3c-0.2-0.1-0.3-0.2-0.4-0.2c-4.6,4-7.4,9.2-8.7,14.9c-2.4,4.1-2.5,9.4-1.6,13.9c0.3,1.3,0.7,2.5,1.1,3.7
			c0.3,1.4,0.5,2.9,0.8,4.3c0.5,0.8,1.1,1.5,1.7,2.2c0.4,0.5,1.2,1.1,2,2c0.4,0.4,0.7,0.8,1,1.1l0.3,0.7c0.1,0,0.1,0,0.2-0.1
			l-0.1,0.1c0.1,0.1,0.1,0.2,0.1,0.2c0.3,0.7,0.9,2,1.6,3c0.1,0.2,0.1,0.3,0.2,0.3c0.3,0.8,0.3,1.5,0.3,2.3c0.3,0.2,0.5,0.3,0.7,0.5
			c-0.8,2-1.5,4.2-1.9,6.5c-1.6,8.8,0.3,18.3-3.7,26.7c-2.5,6.1-8.2,9.9-12.1,15l5.2-0.3c-1.8,2.9-3.3,5.9-4.6,8.9
			C363.3,240.4,360.8,249.9,361.2,257.5L361.2,257.5z M523.6,141.8v-0.2c0.1,1.3-0.1,2.5-0.3,3.9c-0.1-0.3-0.1-0.7-0.2-1
			C522.9,143.5,523,142.5,523.6,141.8L523.6,141.8z M528.9,196.8c-3.1-0.5-6-1.1-9.1-1.4c-4.2-0.5-8.5-0.8-12.8-0.5
			c-5.5,0.3-11,1.3-16.4,2.2c-5.5,1-10.9,2.7-16.4,3.8c-3.7,0.8-20.4,2.8-24.2,2.9c-0.8-0.1-1.6-0.1-2.4-0.2c-7-0.5-13.7-1.9-20.5-3
			c1.9-0.5,3.7,0.3,5.5-0.1c1.9-1.6,3.1-3.7,3.1-5.9c-1.1-0.7-2.1-1.9-3.7-1.4c-8.4,1.6-16.8,3.3-25.5,3.1c-3,0.3-9.8-1.8-8.2,4.3
			c-1.7,0.3-3.3,0.6-4.8,0.9c-4.1,0.9-7.8,2.5-12,3.3c-0.5,0.1-0.9,0.2-1.4,0.3c2-8.6,1.3-18.4,3.7-26.9c-0.1-0.7,0.2-1.4,0.6-2
			s0.7-1.1,0.9-1.8l-0.7-1.4c1.5-0.8,3.1-2,3.8-2.5c1.3-0.8,2.5-1.9,3.8-2.7c1.1-0.8,3.4-1.9,4-3.1l0.3-0.7c-0.2-0.4-1-1.1-1.8-1.7
			c0.1,0.1,0.1,0.2,0.2,0.2c-0.2,0-0.4,0.1-0.7,0c-1.4-0.8-2.5-1.8-3.4-3c0.5,1.1,1.2,2,2,3.1c-0.5,0-1-0.1-1.4,0.1
			c-1.8-1.1-3.3-2.6-4.6-4.4c-0.8-0.9-1.3-2-2-3.1c0.2,2.5,1.4,4.8,2.4,7c-5.1-4.2-7-11-7.6-17.2c-0.6,2.7-0.2,5.6,0.1,8.4
			c-1.9-4.2-1.9-9.1-0.8-13.6c-0.2-0.4-0.2-0.8-0.3-1.2c-0.2,0.2-0.3,0.3-0.3,0.5c1.1-2.6,3.1-4.9,5.8-6.7c0.8-0.6,1.9-0.7,2.5-0.4
			c6.7-3.1,16.6-0.8,21.6,4.8c0.7,0.3,1.4,0.5,2,0.8c0.5,0.2,0.8,0.4,1.1,0.7c0.3-0.5,0.5-1,0.8-1.4c0.8,2.8,2,5.5,3.2,8.2
			c0.5-0.5,1.3-0.8,2.2-0.8v-2.8c4.8-3.1,10.4-4.6,16-5.3c0.3,0.3,0.5,0.7,0.8,1c1.4-1.1,3.1-2,5.2-2.5c1-0.3,2-0.3,3.1-0.4
			l-0.3-0.2c13.5-3.3,27.8-3.7,41.1,0.3c0.2,1.1,0.4,2,0.6,3.1c0.5-0.4,1.3-0.7,2.1-0.7h0.3l0.7-2.3c0.8-0.1,2.4-0.3,3.2-0.3
			c0.2-0.8,0.4-2.7,0.5-3.6c4.8-4.3,9.6-11,17-10.4c3.1-0.3,5.8,0.7,8.3,2.1c-0.2,0.1-0.2,0.2-0.3,0.3c-0.3,0.1-0.7,0.1-1.1,0.1
			c1.2,1.4,2.4,3.1,3.3,4.6c0,0.2-0.1,0.3-0.1,0.3c0.7,1.1,1.2,2.4,1.4,3.7c-0.5-0.8-1-1.5-1.7-2.1c-0.2,0.4-0.2,0.8-0.3,1.2
			c0.9,4.6,1,9.3-0.8,13.6c0.2-2.8,0.7-5.7,0.1-8.4c-0.7,6.2-2.5,13.2-7.6,17.2c1-2.3,2.1-4.6,2.4-7c-0.8,1-1.3,2-2,3.1
			c-1.2,1.8-2.8,3.3-4.6,4.4c-0.5-0.2-0.9-0.1-1.4-0.1c0.8-0.9,1.5-2,2-3.1c-1,1.1-2,2.1-3.4,3h-0.7c0.1-0.1,0.1-0.2,0.2-0.2
			c-0.7,0.5-1.6,1.2-1.8,1.7l0.3,0.7c0.5,1.2,2.9,2.3,4,3.1c1.3,0.9,2.5,1.9,3.8,2.7s4.6,3.3,6.4,3.5c-0.5,0.5-0.9,1-1.4,1.5
			c0.7,0.5,1.4,1.1,2,1.7c2,5.5,3.5,11.1,5.3,16.6C521.9,189.1,525.2,193.2,528.9,196.8z M430.3,232.8c3.3-1.4,6.4-3.3,9.8-4.2
			c0.5-0.3,0.9-0.4,1.4-0.6l0.5-0.2l-1.1,2.5c-3,2.4-5.3,5.2-6.9,8.4c-0.3,0.8-0.5,1.8-0.8,2.5c-1.7,1.4-3.3,2.5-5.3,3.4
			c-5.9,2.8-12.7,3.3-19,2.4c-1.5-0.3-3.1-0.5-4.6-0.9c-2.7-0.8-5.3-2.4-7.1-4.4c-1.9-1.9-3.3-4.2-4.2-6.6c-2-5.5-3.7-11.2-4.1-17.2
			c-0.1-2-0.3-4.2,0.5-6.1c0.8-2.2,2.5-4.1,4.6-5.2c3.1-1.8,6.5-2.4,9.8-3.1c6.2-1,12.5-1.8,18.8-1.4c1.4,0.2,3.1,0.3,4.5,0.5
			c3.3,0.6,6.9,1.4,9.9,2.7c2.4,1,4.8,2.4,6.2,4.6c1.2,1.8,1.8,3.8,1.8,5.9c-3.7,0.3-7.6-0.5-11.3-1.6c-13.2-3.7-34.5-13.2-40.8,5.7
			c3.1-2.1,8.4-4.4,10.4,0.3c2.7,6.4,5.3,13.2,12.1,16c-1.5-2.2-3.7-4.1-4.3-6.9c2.4,2.2,4.2,5.3,7.3,6.5c-2.2-3.1-5-5.7-5.9-9.6
			c2.4,2.6,4.2,5.9,7.1,7.8c-1.1-2.2-2.7-4.2-3.4-6.6c7.7,5.5,11.7,1.9,19.7,0.5C434.1,229.8,431.8,230.8,430.3,232.8L430.3,232.8z
			 M432.2,224c-4,1.3-8.4,0.9-12.2-0.2c-3.4-1.1-7-3.1-9.1-6.2c-0.7-0.8-1-2.6,0.3-3c1.4-0.3,2.7,0.1,4.1,0.4c5,1.4,10,3,15,4.5
			c1.4,0.5,3.1,0.8,4,2.3C434.5,223.1,433,223.6,432.2,224z M447.3,223.5c0.3-1.5,0.8-3.1,1.6-4.6c4.1-1.8,11.5-3.6,11.5-3.6
			c4.8-0.4,9.1,2.7,11,4.4c0.5,1.4,0.8,3.1,1.4,4.5c-2-0.7-4.1-1.1-6.2-1.4c-7.1-0.5-14.3,1.1-20.3,4.3
			C446.5,226.1,446.9,224.7,447.3,223.5L447.3,223.5z M528.1,226.7c-0.7,2.5-1.4,5-2.7,7.2c-2,3.8-5.8,6.7-9.8,8
			c-3.3,1-6.9,1.6-10.4,1.8c-4.8,0.2-9.8-0.7-14.2-2.9c-1.4-2.6-3.2-5.1-5.3-7.5c-2.1-2.6-4.7-4.8-7.4-6.3l-0.2-0.3
			c-0.3-0.5-0.5-0.9-0.7-1.4h0.1c0.5,0.2,1.1,0.3,1.5,0.6c3.6,0.8,7,2.7,10.4,4.2c-1.5-2-3.9-3.1-5.9-4.4c8.4,1.4,12.5,4.8,20.7-0.5
			c-0.8,2.5-2.5,4.4-3.7,6.6c3.3-1.9,5.1-5.3,7.6-7.8c-0.8,3.9-3.8,6.5-6.2,9.6c3.3-1.4,5.2-4.3,7.7-6.5c-0.7,2.7-3,4.6-4.6,6.9
			c7-2.8,9.8-9.7,12.7-16c2-4.7,7.6-2.5,10.9-0.3c-6.8-18.8-29-9.4-43-5.7c-3.8,1.1-7.7,2-11.7,1.6c0-1.4,0.2-2.6,0.7-3.9
			c0.8-2.2,2.7-4,4.7-5.3c3.1-1.9,6.3-3.1,9.8-4c5.5-1.6,11.5-1.9,17.2-1.6c2.7,0.2,5.5,0.3,8.2,0.6c2.8,0.3,5.6,0.8,8.3,1.8
			c1.8,0.7,3.4,1.6,4.8,3c1.4,1.5,2.3,3.6,2.4,5.6C530.4,215.2,529.6,220.9,528.1,226.7L528.1,226.7z M485.3,218.8
			c0.9-1.4,2.7-1.8,4.2-2.3c5.3-1.5,10.6-3.1,15.8-4.5c1.4-0.3,2.9-0.8,4.3-0.4c1.4,0.3,1.1,2,0.3,3c-2.3,3.1-5.9,5.1-9.6,6.2
			c-4.2,1.1-8.7,1.4-12.8,0.2C486.5,220.7,484.8,220.1,485.3,218.8z M486.8,238.1c-1.4-1.1-2.8-2.5-4-3.9
			C484.2,235.4,485.6,236.7,486.8,238.1z M468.5,480.6l0.8,0.3v0.3l-0.2,0.2c-1,1-0.8,2.5,0,3.5l0.1,0.1c-0.1,2.4-0.2,4.8-0.3,7.2
			c11.4,0.8,22.8,1.8,34.3,3.1c7.8,0.9,15.9-0.2,23.8-1.4c0.8,1.7,1.8,3.3,2.5,4.8c-1.1,3.7-2.4,7.2-4,10.7l8.9-5.8
			c1.1-2.1,2.4-4.3,3.7-6.3c0.3,4.8,0.3,9.8,0.2,14.8c-8.4,4-17.8,7-23.9,14.5c3.7-0.3,6.5-2.7,9.8-4.1c7.1-3.1,14.3-6.2,22-7.7
			c7.8-0.4,15,5.1,18.6,11.6c3.1,9.7,6.2,20.2,3,30.1c-0.4,0.3-0.8,0.5-1.4,0.8c-0.3-0.7-0.8-1.4-1.1-2c-0.9,0.5-2,1.1-2.9,1.6
			l-0.3,0.3c-0.7-2-1.3-4.1-2-6.1c-0.8-2.4-1.4-4.7-2.3-7c-1.4-3.8-3.6-7.6-7.5-9.2c-1-0.4-1.4,1.2-0.5,1.7c3.7,1.5,5.5,5.5,6.7,8.9
			c1.4,4.2,2.7,8.4,4.1,12.7c-0.8,0.5-1.6,0.8-2.4,1.1c0.1,0.3,0.2,0.5,0.2,0.8c-2.5,0.6-4.9,1.2-7.5,2c-0.2-0.3-0.3-0.4-0.3-0.7
			c-2.7,0.7-5.5,1.1-8.2,1.4c0.2,0.5,0.2,1,0.3,1.4l-0.7,0.2v-0.2c-0.6-2.7-1.1-5.3-1.8-8.1c-0.5-2.4-0.8-4.7-1.7-7
			c-0.7-2-1.8-3.9-3.4-5.2c-1.6-1.1-3.7-1.8-5.6-1.1c-1.1,0.3-0.6,2,0.5,1.7c1.9-0.6,3.7,0.3,4.9,1.6c1.4,1.4,2,3.3,2.5,5.2
			c1.1,4.4,2,8.9,3,13.4v0.1c-1.8,0.5-3.4,0.8-5.3,1.3c-0.2-0.3-0.3-0.5-0.5-0.8l-1.8,0.8c-2.7,1.1-5.6,2-8.5,2
			c0.2,0.1,0.3,0.2,0.5,0.3c-4.6,0.5-9.3,0.3-13.2-2.3c-2-0.1-3.6-0.8-4.8-1.9c-1.4-0.5-2.7-1-4.1-1.6c-2.9-0.4-5.7-1.1-8.5-1.9
			c-8.2-1.4-15-6.4-21.7-11C467.1,527,467.6,503.6,468.5,480.6L468.5,480.6z M531,499.3c-0.1-0.4-0.1-0.8-0.2-1.4
			c0.3,0.3,0.5,0.4,0.8,0.5C531.4,498.8,531.1,499.1,531,499.3z M451.4,331.1c-1.4-0.7-2.6-1.4-4-2c8.7-2,17.6-3.3,26.5-3.1
			c3.7,0.5,7.1,1.4,10.6,2.5c4.6,1.7,8.9,4,13.7,5.1c1.1,0.3,2.3,0.5,3.4,0.8c2,1.1,4.1,2.4,5.9,3.7l-6.5,3.3
			c-2.5,2.8-5.3,5.5-8.4,7.6c-4.8,3.1-8.3,7.8-12.8,11.3c-9.2,6.8-18.5,13.6-27.8,19.9c-3,1.6-5.9,3.1-8.9,4.6
			c0,0-31-21.7-31.1-39.9c4-3.3,8.7-5.9,13.4-7.9c7.8-3.5,16.9-6.3,25.7-6L451.4,331.1L451.4,331.1z M487.8,358
			c-0.3,0.3-0.5,0.7-0.7,0.9l-0.9,0.5C486.8,358.9,487.3,358.5,487.8,358z M492.5,353.7c-0.5,0.8-1.1,1.4-1.5,2.3
			c-0.3-0.1-0.7-0.1-1,0C490.9,355.3,491.7,354.5,492.5,353.7z M507.5,341.4c-0.4,0.3-0.8,0.7-1.2,0.9H506
			C506.5,342.1,506.9,341.7,507.5,341.4L507.5,341.4z M510,391.9c-3.1,1.4-6,2.3-9.2,3.1c-7.7,0.8-15.7,1.4-23.5,2
			c-3.7,0.1-7.1,0.2-10.7,0.3c-2.5-0.7-5-1.1-7.6-1.4c-2.2-0.3-4.6-0.5-6.9-0.5c0.8,0.8,1.3,2,1.2,3.1c-7-0.3-13.8-1.9-20.5-4.1
			c3.4-2.4,7-4.6,10.6-6.7c1.1,0.2,3.3,0.3,4.3,0.5c12.1-9.8,25.4-18,37.4-27.8h0.1C510,347.7,510.5,380.8,510,391.9L510,391.9z
			 M466.5,476.5c-1.6-0.2-3.2-0.4-4.8-0.6c-0.4-0.7-0.8-1.3-1.3-1.9c-0.3-0.5-0.8-0.8-1.4-0.9c0-0.1-0.1-0.1-0.1-0.1
			c3.3,1.2,6.5,2.4,9.8,3.3c1.4,0.4,2.8,0.8,4.3,1.1c-0.4,0.3-0.8,0.8-1.2,1.1c-0.8-0.3-1.7-0.6-2.5-0.8v0.4c-1-0.3-2-0.7-3.1-0.8
			C466.5,477,466.5,476.7,466.5,476.5L466.5,476.5z M399.7,497.5c0.3-0.2,0.5-0.3,0.7-0.4c1.1,2,2,4.2,3.3,6.2
			c7.4-5.9,13.3-14,23.9-12.7c12.6,0,25,0.3,37.6,1.1c0.1,11.7,1.4,23.5,0.8,35.2c-0.3,7.5,3.7,14.8,2,22.2
			c-3.9,8.4-13.7,9.9-21.4,13.2c-9.3,4.1-18.6,8.1-28.3,10.9c-2.6,0.3-5.3,0.3-8,0V573c-0.7,0.1-1.3,0.1-2,0.1
			c-0.2,0.4-0.7,0.7-1.1,0.3l-0.5-0.3c-0.7,0-1.4-0.1-2-0.1c-0.8,0-1-0.8-0.7-1.4c-0.6-0.3-1.1-0.4-1.9-0.6
			c-0.1,0.1-0.1,0.2-0.2,0.3c-2.5-0.7-4.9-1.3-7.5-2v-0.2c-0.7-0.2-1.4-0.3-2-0.4c0.4-3.2,0.8-6.4,1.4-9.5c0.5-2.7,1.4-6.2,4.3-7.2
			c1-0.3,0.6-2-0.5-1.7c-3.3,1.1-4.6,4.4-5.3,7.6c-0.5,2-0.7,4.3-1,6.4c-0.2,1.4-0.4,2.7-0.6,4.2c-3.3-0.7-6.9-1.4-9.9-2.6
			c-0.7-0.2-1.4-0.3-2.1-0.6v-0.5c-0.7-0.4-1.4-0.8-2-1.3c-0.3-0.3-0.6-0.4-0.8-0.7c1.9-4.2,3.7-8.4,5.8-12.4c1.5-3.2,3.5-6.7,7-8.1
			c1-0.3,0.6-2-0.5-1.7c-3.7,1.4-5.9,4.7-7.7,8.2c-2,4.2-4,8.5-5.9,12.7c-1.1-1.1-1.9-2.5-2.4-4l-0.8,2.8c-0.8-7.9,0.5-16,4-23.1
			c3.1-5.6,9.3-8.2,14.7-10.9c10.4-3.3,20.7,0.7,30.7,3.1c-4.1-5.5-11.5-6.1-17.7-7.8c0-2.5,0.1-4.8,0-7.4c1.8,1.1,3.5,2.3,5.3,3.3
			c-1.2-7.1,4.1-12.1,8.5-16.6c-1-0.2-3.1-0.3-4-0.5c-2.7,3.2-5.4,6.3-8.1,9.5l-5.5-10.6c-1.1,1.8-2.4,3.4-3.6,5.3
			c-0.3-3.1-0.5-6-0.8-9.1c0.3,0.2,0.8,0.3,1.4,0.5l0.5,5.6C397.6,500.4,398.7,499,399.7,497.5L399.7,497.5z M367.8,235.9
			c0.1,0.1,0.2,0.2,0.3,0.3c0.9-6,3.1-12,8.5-15.1l-4.6-1c3.7-3.1,5.9-6.6,7.1-10.6c0.1,0.5,0.1,1,0.1,1.5c-0.1,1.1-0.3,2.3,0.2,3.3
			c0.3,0.7,1,0.8,1.5,1.3c1.9,1.2,2.9,3.3,3.6,5.3c1.1,3.1,2,6.2,2.9,9.3c0.9,3.2,2,6.4,3.7,9.3c2.3,3.9,5.9,7,9.9,8.7
			c5.8,2.7,12.3,3.3,18.6,2.6c3.7-0.5,7.5-1.5,10.9-3.2c0.3-0.2,0.7-0.3,0.9-0.5c-2.9,5.5-3.1,12.1-1.9,18.8l0.7,0.1l2,0.2
			c-0.1-0.5-0.2-0.9-0.3-1.4c-0.8-4.1-1.1-8.4-0.5-12.4c0-2,0.4-4,1.1-5.9c1.8-1,3.3-2.1,4.7-3.5c3.1-3,5.3-6.5,7-10.4
			c6.2-4.1,14.2-6.3,22.2-5.2c3,0.2,5.9,0.8,8.7,2c0.8,1.6,1.9,3.1,2.9,4.6c-1.8-1.1-4-1.7-5.9-1c-7.5,0-12,3.1-19.4-0.4
			c-4.5,0.8-7,4.8-9.8,8c5.3,7.2,9.8,19.2,18.7,19.2c7.5,0,14.9-8.9,19.4-17.9c0.3-1.4,0.3-2.9-0.2-4.1c1.9,2,4,4,6.3,5.5
			c1.4,0.9,3.1,1.7,4.7,2.2c2,3.7,3.3,7.5,4.1,11.4c-0.3-3.7-1.1-7.3-2.5-11c0.8,0.3,1.6,0.4,2.4,0.5c2.4,0.4,4.8,0.5,7.2,0.5
			c6.3,0.1,12.8-1.1,18.5-4.2c3.1-1.6,5.8-4,7.1-7.1c2.9-6.7,4.9-13.6,6.5-20.7c0.3-1.1,0.8-2,1.4-3c-0.3-1.5,0.9-2.8,2.2-3.1
			c0.2-0.1,0.4-0.2,0.7-0.2c0.7-0.3,1.6-0.3,2.2,0.1c4,1.9,6.2,7.6,7.8,11.3c2,4.6,4,9.5,4.6,14.4c0.2,1.1-0.3,2-1,2.5
			c1,8.4-1,17.4-3.3,25.3c-0.8,3.1-2,7-3.7,10.5c-1.1,3.9-3.7,7.2-6.7,9.9c-0.5,0.5-1.1,0.7-1.9,0.7c-0.3,0.5-0.5,1-0.8,1.4
			c-3.6-0.6-7.1-0.9-10.7-1.1c-7.1,6.3-15.8,11.1-24.1,16.4c0.1,0.3,0.1,0.8-0.2,1.1c-2.2,4.3-5.5,7.8-9.3,11
			c-0.3,0.5-0.8,1.1-1.4,1.1c-4.6,3.7-9.3,7.1-14.5,9.8c-11.5-1.1-23.1,0.5-34.6,3.3c-4.8-2-9.1-4.8-13.3-7.8c0.3,0,0.7,0,1-0.1
			c-0.2-0.5-0.6-1.7-0.8-2.1c-1.3-0.2-2.5-0.3-3.8-0.4c-3.3-2.5-6-5.4-8.1-8.7c-0.2-0.3-0.2-0.7-0.2-0.9
			c-7.5-4.3-15.4-8.3-21.9-13.6c-3.1,0.1-5.9,0.3-9,0.8c-1.4-1.6-2.7-3.3-4-4.9c-5.3-5.5-6.9-13.1-9.8-19.8
			c-3.3-9.2-2.5-19.1-0.6-28.4c-4.4,1-5.3,5.4-6.5,9.1C365.1,246.4,366.5,239.9,367.8,235.9L367.8,235.9z"/>
		<path class="st0" d="M635.4,422.6c1.1-0.7,2-1.8,2.8-2.7c1.1,0.9,3.3,1.4,3.3,3.3c-0.8,0.9-2,0.4-3.1,0.3c0,1.1-0.1,2.4-0.3,3.6
			c-0.8-0.6-1.8-1.1-2.5-1.9l-1.8,1.6c-0.4-0.8-0.8-1.9-1.2-2.7c-1.1,0-2.2-0.1-3.3-0.1c1-1.6,2-3.1,3.1-4.6
			C633.4,420.4,634.1,421.9,635.4,422.6 M556.2,391.2c0.7-17.3,4.3-34.2,8-51c-1.8-3.1-5.9-4.2-7.3-7.5c-0.5-1.4-0.1-3.7,1.8-3.4
			c5.9,0.7,11.1,5.1,17,3.1c11.1-1.7,22.4-0.7,33.5,0.8c3.3-1.8,7.1-5.7,11-3.3c2.1,4.5-3.4,6.2-5.9,8.4c-0.6,9.9-0.7,20.1-0.8,30.1
			c-0.9-0.2-1.9-0.2-2.8-0.3c-0.4-10.1,0.3-20.2,0.8-30.4c2.4-1.8,5.3-3.1,6.5-5.9c-2.6,0.8-5.1,2.3-7.1,4.2
			c-7.6-1.9-15.4-1.5-23.1-1.8c-5.3-0.3-10.4,0.8-15.5,1.5c-4.1-1.6-8.2-3.3-12.6-4c1.2,3.7,5.3,4.6,7.6,7.4v1.7
			c-3.8,16.7-7,33.8-8.1,51C559.6,395.1,555.5,393.4,556.2,391.2"/>
		<path class="st0" d="M573.2,341.3c0.8-0.8,1.8-1.6,2.6-2.2c1.8,0.1,1.9,2.1,2.5,3.3c-2,0.2-3.5,1.1-4.7,2.8l-1.1-1.7l-2.8,1.1
			c0.3-1,0.6-2,0.9-3c-0.4-0.4-1.2-1.1-1.7-1.6C570.7,339.3,572,340,573.2,341.3 M595.8,340.3c1.6,0.7,2.5,2.4,3.6,3.7
			c2-0.8,3.4-2.6,4.8-4.3c1.5,1.4,2.9,3.1,3.6,4.9c-1.1-0.2-2.3-0.5-3.3-0.7c-0.2,1.1-0.3,2.4-0.5,3.5c-1.1-0.7-2-1.3-3.1-2
			c-0.8,1.1-1.8,2-2.5,3.1c-0.3-1-0.7-2-1.1-3.1c-0.7,0-2.1,0.2-2.9,0.2C594.9,343.8,594.3,341.5,595.8,340.3 M585.4,341.1
			c-4,2.1-7.7,6-7.8,11c2.1,0.3,4.3,1.1,6.5,0.7c3.9-1.7,7-5.8,6.2-10.4C588.8,341.7,587.2,340.8,585.4,341.1 M585.7,349.5
			c-0.2,1.4-2.4,2.4-3.5,1.6C582.1,349.6,584.6,349,585.7,349.5 M587.2,345.9c-1.2,2-3.7,2-5.6,2.5c0.9-1.9,2-3.6,3.8-4.6
			C586.7,342.9,588.7,344.9,587.2,345.9 M602.4,355.6c1.7-0.7,3.1-1.5,4.8-2.1c-2.1,3.7-7.1,5.7-10.8,3.3c-0.8-0.5-3.1-1.5-1.7-2.8
			C597.3,353.1,599.6,356.7,602.4,355.6 M584,355.7c2.7,0.4,5.3,0.2,7.6-1.7C590.6,357.3,586,359.2,584,355.7 M577,355.1
			c-2,2.4-6.6,2.2-7.7-0.9C571.7,355.1,574.3,355.2,577,355.1 M552.3,369.2c0.5-3.5,1.2-7,2.4-10.4c0.3-1,0.8-1.4,2-1.4
			c-0.1,4-1,7.7-1.7,11.5C554.3,369.2,553,369.2,552.3,369.2 M675.2,396.7c-1.2-3.7-5.7-4.3-8.9-5.1c-4.6-0.6-9.1-0.7-13.6-1.3
			c0.5-1.1,1.8-2.1,1.6-3.6c-1.8-3.3-5.7-2.8-8.7-3.1c-14.2-0.1-28.3,0.5-42.5,0.2c-1.6,0.2-3.4,0.2-4.7,1.4
			c-2.7,3-6.5,4.3-10.1,5.3c0.3-1.8,1.4-3.1,2.2-4.4c0.5-1.1-0.8-1.4-1.4-0.8c-1.9,1.1-3.5,2.5-5.5,3.2c0.2-1.3,0.4-2.5,0.6-3.9
			c-2.4,1.4-4.6,3.1-7.2,3.8c0.8-1.4,2-2.6,3.1-4c-2.5,0.3-4.6,2-7.1,2.4c1-1.8,2.2-3.3,3.1-5c-1.9,0.7-3.7,1.5-5.5,2.1
			c3-4.8,7-9.1,11.6-11.9c4.3-2.5,8.8,0.3,12.8,2.1c3.1,1.7,7,1.1,9.4-1.4c-2.1,0.5-4.4,2.7-6.7,1.5c-3.3-1.8-6.9-3.5-10.5-4.6
			c-1.9-4-2.2-9.1-5.5-12c-4.1,0.5-8,2.2-11.4,4.4c-1.7,0.8-2,3.1-2.7,4.6c-1.1-0.1-2-0.1-3.1-0.2c1.4,0.6,2.7,1,4.2,1.4
			c0.8,3.6,1.6,7.3,3.3,10.6c-1.8,1.8-3.3,3.7-4.1,6.1c2.7,0.7,4.6,3.3,7.4,3.9c1.9,1.1,4,0,5.9-0.4c2.5,0.3,5.1,0.8,7,2.6
			c4.1,0.9,8.6-1.1,11.4-4.3c14,0.5,28-0.3,42-0.3c3.1,0.2,6.5-0.3,9.2,1.6c-1.4,1.7-3.8,2.6-4.6,4.8c2,0.2,4,0.2,5.9,0.3
			c6.5,0.8,13.2,0.1,19.2,3.3c-0.8,4.8-6.2,3.7-9,6.4c2.1,0.8,4.4,1.4,6.4,2.7c-2.3,6.2-9.5,4.1-14.3,5.4c-0.2,4,4.8,2.5,7.1,2.6
			c4.3-1.4,9.6-3.3,11.3-8.2c0.5-1.8-1.4-2.4-2.4-3.3C672,400.7,674.6,399.2,675.2,396.7 M580.6,359.6c1.2,0.1,1.7,2.5,0.2,2.5
			C579.5,362.1,579.2,359.6,580.6,359.6 M582.1,370.9c-0.5-2.8-0.8-5.8-2-8.4c0.4,0,1.1,0.1,1.6,0.1c1.8,2.1,2.4,5.3,3.7,7.7
			C584.4,370.6,583.2,370.8,582.1,370.9 M580.7,371.9c-2.5,1.5-4.8,3.3-7,5.5c-1.5-3.9-3-8.1-3-12.2c1.7-2.7,4.8-3.7,7.6-4.3
			C578.7,364.6,579.5,368.3,580.7,371.9"/>
		<path class="st0" d="M597.5,359.6c-2.4,2.6-5.9,3.2-9.1,1.9c-0.2-0.5-0.3-1.6-0.4-2c1.8,0.5,3.3,1.1,5.1,1.4
			C594.5,360.4,596.1,359.9,597.5,359.6 M603.7,363.1c-1.8,2.4-5.2,3.3-7.6,1.4C598.8,365.1,601.2,364.2,603.7,363.1 M611.4,374.8
			c0.2-0.5,0.5-1.5,0.6-2c2.1-0.1,4.3,0,6.5,0.2c0.1,0.4,0.3,1.1,0.3,1.5C616.4,375.6,613.8,375.7,611.4,374.8 M583.3,376.3
			c1.4-1,3.3-3.3,4.8-1.4c-2.3,2.4-4.9,4.6-8.2,5.4C580.3,378.2,582.1,377.5,583.3,376.3 M586.2,380.8c1.8-2.5,4.3-4,6.9-5.2
			C593.3,379,589,380.8,586.2,380.8 M617.3,379.4c-5.5,0.4-11,0.3-16.5-0.4c2-3.3,6.3-2.5,9.6-2.5c3.3,0.3,7.1-1,10.2,1
			C619.7,378.2,618.7,379.4,617.3,379.4 M595.8,378.2c0.8,3.1-2.4,4.2-4.7,4C592.5,380.5,593.7,378.6,595.8,378.2 M603.7,453.8
			c2.4,1.1,4.9,0.6,7.4,0.3c0.1,0.7,0.3,2,0.3,2.6c0.6,0,1.8,0.1,2.4,0.2c1.1-3.2,2-6.4,2.5-9.8c2.2,1.2,4.4,2.7,6.9,3.3
			c3.4,0.8,7.1,0.5,10.6,0.3c0.4,3.1,0.9,5.9,1.4,9c-2.7,0.2-5.9,0.1-8.2-1.6c-1.6-1.3-2.8-3.1-4.8-3.7c-0.2,4.7,4.8,6.5,8.3,8
			c4.7,0.3,9.8-0.5,13.3-4.1c3.6-3.7,7.9-8,13.5-7.1c-0.3,2.5-3.3,2.8-4.4,4.8c-1.6,2.3-3.1,4.8-5,6.5c-4,3.5-9.1,5.3-14.2,5.7
			c-1.4-0.8-1.6-2.9-2.5-4.3c0.2,1.4,0.4,2.6,0.7,4c-1.1,0.1-2.1,0.2-3.3,0.2l0.3,2c3.1,1.2,6.5,0.5,9.7,0.3
			c0.3,4.2,0.7,8.4,1.4,12.6h2.5c0.8-4.6-1.1-9.1-1.1-13.6c2-1.1,4.1-2.5,6.2-3.4c7,1.4,14.3,3,21.5,2.3c4.1-1,8.2-3.5,10-7.5
			c1.1-1.9-0.6-3.5-1.4-5.1c5.3-9.8,11.3-19.5,13-30.8c-1.1-2.5-3.8-3.7-6.2-4.3c-5.3-0.6-10.6-1.9-16-0.8c-2.9,0.7-4.2,3.7-5,6.3
			c-2.7,7.5-5.4,15.2-9.3,22.1c-3.7,1.1-7.1,3.2-10.4,5.5c-2,0.5-4.3-0.9-6.5-1.2c-0.4-4-0.4-8.2,0.8-12.1c0.3-1.8,2.3-0.8,3.3-0.8
			c6.2,1.1,13.2-2,16-8.1c2-4.3-0.3-9.8-4.1-12.1c-3.1-1.9-6.5-2.5-9.9-3.7c3.3-3.9,7.2-7,9.8-11.4c0.1-0.5,0.3-1.6,0.3-2.1
			c-3.7-2.7-7.5,1.2-11.3,1.8c0.3-4.9-3.7-8.4-7.4-10.6c-3.4-1.2-7.6-2-11,0.2c-4.7,2.5-7.8,7.5-13,9.1c-1.8,0.7-3.3-0.8-4.8-1.5
			c0.2,2.4,0.5,4.7,1.1,7c-0.5,0-1.4-0.2-2-0.2c0.6,3.3,1.7,6.6,3.2,9.7c-3.6,5.9-3.2,12.9-1.8,19.4c1,3.7-0.5,7.5-3,9.9
			c-1.4-0.9-3.1-1.9-4.6-2.5C597.9,448.4,600.3,452.5,603.7,453.8 M682.9,423.2c0.3,3.7-0.9,7-2.4,10.3c-3.1,7.1-6.6,14-10.9,20.5
			c-0.8,0.8-1.2,2.1-2.4,2.4c-2.7-0.3-5.3-1.1-7.8-2c0.3-1.2,0.6-2.5,0.8-3.7c2.4,0.8,4.6,1.9,7,2.5c1.4-0.7,1.9-2.7,2.7-4.1
			c3.8-7.8,8.9-15.1,11.3-23.8c-4.4-1.7-9.1-0.5-13.6-0.8c0.5-2.4,3.1-2.5,4.8-2.5C676.1,421.8,679.5,422.6,682.9,423.2
			 M652.8,460.1c5.3,1.6,10.6,3.9,16.3,3.8c3.4-0.1,5.3-3.7,7.9-5.4c-0.1,4.4-4.8,5.9-8,7.1c-6.2,0.7-12.7-0.6-18.8-1.9
			C651.1,462.6,651.9,461.5,652.8,460.1 M656.2,456.5c4.1-0.1,7.8,2.4,12,2.1c3.1-2,4.8-5.4,6.8-8.5c4.5-8.4,9.1-16.7,11-26.2
			c0.4,0.3,1.2,1,1.6,1.3c0.6,3.3-0.9,6.5-2,9.5c-3.3,7.6-7.2,14.7-11.4,21.7c-1.4,2.4-3.3,4.8-6.2,5c-4.5-0.7-8.8-2-13.2-3.5
			C654.8,457.4,655.7,456.8,656.2,456.5 M667.3,452.3c-3.3-1.4-6.6-2.8-10.1-3.6c4.2-7.2,6.9-15.4,9.8-23.3
			c4.6-0.8,9.5-1.8,13.8,0.3C677.4,435.1,672.1,443.7,667.3,452.3 M638.1,458.9c-0.2-1.2-0.2-2.5-0.3-3.7c1.3,0.3,2.5,0.5,3.8,0.8
			C640.8,457.5,639.6,458.7,638.1,458.9 M620.4,446.3c-1.9-1.1-4.5-2.2-4-4.8c0.4-6.5,0.2-13.8,4.2-19.4c1.2-2,1.1-4.6,2.9-6.2
			c-0.8-2.3-1.5-4.7-1.7-7.1c2.3,0.5,4,2.4,5.3,4.2c-1.1-0.3-2.1-0.7-3.3-0.9c0.5,1.8,1.6,3.1,2.6,4.6c1.1-0.5,2-0.8,3.3-1.2
			c1.4-2.7,4.6-2.5,7-3.7c3.3-1.1,6.2-3.2,9.4-4.1c-2,2.9-4.8,4.9-7.1,7.5c-0.5-0.2-1.4-0.4-1.8-0.5c0.6,1.1,0.9,2.3,1.8,3.2
			c3.9,1.5,8.2,1.9,11.8,4.1c2.5,2,5.1,5.9,3.3,9.3c-3.6,5.6-11.1,7.6-17,4.8c-2.4-1.4-4.6-3.3-7.1-4.1c-0.2,3.3,3.3,4.8,5.5,6.8
			c-0.8,3.1-1.4,6-2,9.2C629.1,448.2,624.3,448.4,620.4,446.3 M610.8,451.6c-2.7,1.7-6,0.7-8.4-1.3c5.5-1.3,8.4-8.2,7-13.6
			c-1.6-6.9-1.8-15,3.3-20.2c-0.8-1.1-1.4-2.4-2-3.7c1.8-0.5,3.3-1.2,4.4-2.7c-1.2-1.1-2.5-2.4-3.7-3.7c2.8-2.2,6-3.7,8.7-6.1
			c2-1.6,3.9-3.5,6.2-4.6c4.6-1.4,9.8,1,12.1,5.5c0.8,5.6-5.3,7.1-9,8.9c-2-2.2-4-4.8-7-5.3c-1.9-0.5-3.3,1.4-4.1,3
			c-0.5,3.1,0.8,6.1,2,8.9c-2.5,3.1-5.2,6.4-5.8,10.5c-1.1,6.7-1.1,13.6-1.8,20.2C612.4,449.1,612.3,451,610.8,451.6 M574.2,403.1
			c1.6-3.3,3.3-6.6,5.5-9.5c0.7-1.1,2-1.8,3.3-1.8c-0.2,3.1-1.1,5.9-1.1,9c4.4-0.6,8.7,0.8,12.2,3.4c1.9-2,3.2-4.9,5.9-5.9
			c0.3,1.4,1.1,2.8,0.6,4.3c-1,3.3-1.8,7.6-5.3,8.9c0.8-2.1,1.4-4.5,2-6.8c-1.1,0.8-2.2,1.9-3.3,3c-2-2-4.1-4.2-7-4.6
			c-2.6-0.6-5.3,0.2-7.8,0.9c0-1.5,0-3.1-0.1-4.6C577.7,400.9,576.5,403,574.2,403.1 M543.5,424.7c2.8-1.4,1.8-5.5,1.2-8
			c1.6-1.3,3.3-2.5,4.2-4.6c0.3-2,0.2-4,0.3-5.9c2.4-1.5,7.1-4,4.3-7.3c-2.3,1.5-4.5,3.4-7.1,4.3c-3.3-0.9-6.1-3.3-9.6-3.7
			c-2.4-0.2-5.5-0.8-6.9,2c0.1,2.5,2.5,3.6,4.5,4.4c3.4,1.4,7.1,0.9,10.9,1.2c0.1,1.3,0.4,2.5,0.1,3.9c-0.9,1.1-2,2-3.2,3.1
			c-3.7-2.9-8.2-5.5-12.9-4.6c-2.4-0.2-2.5,3.4-0.8,4.6c3.6,2.8,8.4,2.5,12.6,3.1c0.9,0.8,1.6,2,1.6,3.3c-0.6,1.7-2.4,2.2-3.9,2.4
			c-4,0-7.7-1.5-11.5-2.5c-0.7,2,0.7,3.3,2.3,3.8C533.8,425.6,538.9,426.1,543.5,424.7 M530.7,411.4c2.2,0.5,4.4,1.1,6.2,2.5
			C534.9,413.7,531.5,414,530.7,411.4 M532.6,401.5c2.7,0.2,5.5,0.6,7.9,2.3C537.7,404.3,535,403.3,532.6,401.5 M560.7,410.9
			c2.7-4.2,7.6-8.4,12.7-6.2c0.3,1.1,0.7,2.2,0.8,3.3c1.1,0.1,2.4,0.2,3.3-0.7c-0.3,0.4-0.7,1.2-0.8,1.7c-1.3,0.1-2.6,0.2-4,0.2
			c-0.3-1.1-0.8-2-1.1-3.2c-3.9,0.7-7.4,3.3-9.1,7.1c-1.1,2.5-0.5,5.4-0.5,8.1C558.7,419,559.2,414.1,560.7,410.9 M585.3,412.6
			c1.4-0.3,2.9-0.8,4.3-1.2c-0.5,0.8-0.9,1.5-1.4,2.3c-1.4,0-2.7-0.1-4.1-0.2c-0.2-1.4-0.3-2.7-0.5-4
			C585,409.7,584.9,411.4,585.3,412.6"/>
		<path class="st0" d="M567,411.3c0.8-1.8,2.8-1.4,4.2-0.8c0.1,1.1,0.1,2.4,0.1,3.5c-1.9,0.4-2-1.4-2.6-2.7
			c-0.2,0.8-0.4,2.3-0.5,3.1C566.9,413.6,566.4,412.6,567,411.3 M522.5,449.1c6.1,1.9,11.5,5.3,17.9,6.5c4.9,2,10.4,2.6,15.5,3.9
			c1.1,0.3,2.2,0.3,3.3,0l-0.5-4.6c0.6-0.2,1.9-0.5,2.5-0.6c1.1,2.5,2.4,4.9,3.8,7.2c-2.8,0.3-5.9-0.8-8.4,0.8
			c4.3,1.1,8.7,1.1,13.1,2.4c1.1,0.5,2.5,1.4,2.5,2.7c-1.1,1.8-3.1,3.1-3.3,5.3c4.6,0.1,9.3-2.3,13.6,0.2c-0.6,1.8-1.1,3.3-1.4,5.3
			c2.3,0.2,4.8-0.2,6.8,1.1c-0.3,1.1-0.7,2-1,3.2c1.2-1.2,1.9-2.7,2-4.6c-1.5-0.8-3.1-1.4-4.8-1.8c0.5-2-0.2-4.1-1.2-5.8
			c6-1.4,11.2-6.2,13.5-12.2c0.7-1.6-0.2-3.5-2-3.1c-3.4,2-6.5,4.8-10.4,5.9c1.8-15.3,7.5-29.6,12.4-44c0.5-1.3,0.5-2.7,0.3-4.1
			c-1.1-0.1-1.9,0.3-2.4,1.2c-3.5,6.7-6.2,13.8-8.3,21.1c-7.5,0.8-15-1.7-21.1-6.2c-0.9-1.2-1.1-3-2-4.2c-1.9,3.1-3.3,6.4-4.5,9.8
			c-1.7-0.3-3.3-0.8-4.9-1c-1.6,0.3-3,1.4-4.3,2.2c-1.1-1.1-2.2-2.2-3.7-2.5c-4.9-1.3-9.8-3.2-14.7-4.8c-3.2-1-6.2-3.1-9.7-2.5
			C521.4,433.8,519.7,441.8,522.5,449.1 M541.7,434.2c0.5,5,1.4,10.1,1.3,15.2c-6.9-0.8-13.5-3.1-19.9-5.8c0.2-5,0.5-10.1,0.5-15.1
			C530,429.4,535.6,432.7,541.7,434.2 M593.2,458.2c-1.7,4.8-5.9,8.4-10.6,9.8c0.2-1.4,0.3-2.9,0.4-4.3
			C586.8,463.1,589.8,460,593.2,458.2 M553.6,457.4c-1.5-0.7-4.3,0-4.6-2.3l3.5,0.5C552.9,456.1,553.4,457,553.6,457.4 M555.8,453.8
			c-2.7-0.2-6,0.4-8-2.1c3.9-1.7,6.2-5.4,8.6-8.7c-0.5-0.2-1.5-0.4-2-0.5c-1.7,2-3.3,4.2-5.5,5.6c-0.2-2.9-0.2-5.7-0.2-8.5
			c1.2-1.7,3.3-2.4,4.9-3.6c1.1-1,2.4,0.3,3.3,0.6c-0.1,2.1,0,4.3,0.3,6.5c3.3-3.1,3.3-7.8,5.5-11.5c3,1.5,5.8,3.3,8.8,4.3
			c4.3,1.7,9.1,1.6,13.6,2.1c-2,10.6-6,20.9-4.9,31.9c-2.3,0.4-4.6,0.5-7,0.7c0.2-1.6,1.1-3.3,0.3-4.8c-1.8-1.4-3.8-2.1-5.9-3.3
			c2.5-1,4.9-2,7.4-3.3c0.2-0.4,0.5-1.2,0.7-1.7c-1.4,0.5-2.7,0.8-4.2,1.2c-0.1-2-0.2-4.2,0-6.3c1.4-2,4.6-2.5,4.9-5.5
			c-1.9,0.9-3.5,2-5.3,3.1c-1.6-2.8-2.8-6.2-5.5-8.1c-2.6-0.7-5.6-0.1-7.5,2.1c-2.2,2.5-5.8,5.2-4.5,9.1c2.6-3.7,5.2-7.7,9.2-9.9
			c1-0.6,2-0.4,2.7,0.5c3.8,4.3,4.9,10.4,4.1,16c-1.3-0.2-3,0.6-4-0.5c-1.2-2.5-1.8-5.7-4.2-7.5C559.6,452,557.9,454,555.8,453.8
			 M547,455c-1.2-0.6-1.2-1.1-0.1-1.8C548.1,453.8,548.1,454.5,547,455 M546.2,435.8c-0.5,4.8-0.5,9.8-0.2,14.7
			c-0.3-0.2-0.8-0.3-1.2-0.4c-0.9-4.8-0.6-10-1.3-15C544.4,435.1,545.4,435.5,546.2,435.8 M544.8,452.2c0.1,0.5,0.2,1.4,0.3,2
			c-6.5-1.7-12.8-3.3-19-5.9c-0.8-0.3-1.7-0.8-2.3-1.6C530.8,448.2,537.7,450.3,544.8,452.2"/>
		<path class="st0" d="M566.3,422.9c-0.7,0-1.9,0-2.5-0.1c-0.3-1.8-0.3-3.3-0.1-5.1c0.5,0.2,1.6,0.4,2,0.5
			C565.9,419.9,566.1,421.4,566.3,422.9 M571.4,426.6l-3.1-2l-0.2-5.1c0.5,0.2,1.4,0.3,2,0.4C570.7,422.1,571,424.4,571.4,426.6
			 M576.2,427.6c-2.4-1.5-3.2-4.5-2.9-7.2C576.5,421.1,576,424.9,576.2,427.6 M581.8,426.6c-2.3-0.7-3.4-2.5-3.3-4.9
			c0.5,0.1,1.4,0.2,2,0.2C581,423.3,581.5,424.9,581.8,426.6 M586.8,425.9c-0.9-0.5-1.9-0.9-2.8-1.4c-0.1-0.6-0.2-1.8-0.2-2.4
			C585.1,423,585.9,424.6,586.8,425.9 M178.6,505.1c-5.4-5.6-11.8-10.4-18.8-13.8s-14.9-5.5-22.7-4.7c-4.6,0.5-8.9,1.9-12.9,4.1
			c0.3-0.1,0.7-0.2,1.1-0.3c-15.5-0.1-30.4-5-45.8-6.5c-1.1-0.1-2.1,1-2.1,2.1c0,1.3,0.9,2,2.1,2.1c15.1,1.4,29.9,6.3,45.2,6.5
			c1.7,0,3.2-1.2,4.8-1.9c1.4-0.6,2.8-1,4.2-1.4c2.8-0.7,5.8-0.8,8.7-0.7c5.9,0.3,11.7,2.3,16.9,5.1c6.1,3.2,11.5,7.5,16.4,12.4
			C177.5,510,180.4,507.1,178.6,505.1z M547,483.2c6.4,2.5,12.6,5.5,18.7,8.6c1.5,0.8,3.1,1.4,4.8,2c1.5,0.6,3.1,1.1,4.8,0.9
			c1.8-0.2,3.6-0.8,5.3-1.2c1.7-0.4,3.4-0.8,5.2-1.1c7-1.4,14.1-2.5,21.3-3c7.1-0.4,14.1,0.1,21.1,0.7c14.1,1.3,28.2,2.8,42.3,3.5
			c14.3,0.6,28.5,0.3,42.5-2.2c0.8-0.2,1.4-0.3,2.2-0.3c0.8,0.1,1.5,0.2,2.2,0.3c1.4,0.3,2.9,0.5,4.2,0.9c2.9,0.8,5.6,1.8,8.3,3.1
			c5.6,2.5,10.9,5.5,16.4,8.2c1.4,0.7,2.8,1.3,4.2,2c1,0.4,2.3,0.3,2.9-0.8c0.5-0.8,0.3-2.5-0.8-2.9c-11.2-4.8-21.6-12.2-33.7-14.3
			c-1.5-0.3-3.3-0.7-4.9-0.5c-1.8,0.2-3.6,0.6-5.3,0.9c-3.5,0.5-7,0.9-10.4,1.2c-7,0.6-14.1,0.7-21.1,0.6
			c-14.3-0.3-28.5-1.7-42.7-3.1c-7-0.7-14-1.5-21.1-1.5c-7.2,0-14.4,0.8-21.6,2c-3.6,0.6-7.1,1.3-10.7,2c-1.8,0.4-3.6,0.8-5.3,1.2
			c-1.5,0.3-2.7-0.1-4.1-0.6c-6.3-2.5-12.1-5.9-18.4-8.6c-1.7-0.7-3.3-1.4-5-2c-1.1-0.4-2.3,0.4-2.6,1.4
			C545.2,481.8,546,482.9,547,483.2L547,483.2z"/>
	</g>
</g>
<g>
	<path d="M66.8,148.6c-1-0.9-1.5-2.1-1.5-3.6c0-0.5,0-0.7,0.1-1l2.6-14.8c0.2-0.9,0.5-1.7,1-2.1c0.6-0.6,1.1-0.7,1.8-0.7
		s1.3,0.2,1.8,0.7s0.8,1.2,1,2.1l2.6,14.8c0.1,0.6,0.1,0.8,0.1,1c0,1.5-0.6,2.7-1.5,3.6c-1,0.8-2.3,1.3-4,1.3
		C69.1,150,67.9,149.5,66.8,148.6L66.8,148.6z M67.1,122.6c-1-1-1.4-2.1-1.4-3.6c0-1.4,0.5-2.6,1.4-3.6c1-1,2.1-1.5,3.6-1.5
		c1.4,0,2.6,0.6,3.6,1.5c1,1,1.4,2.1,1.4,3.6c0,1.4-0.5,2.6-1.4,3.6c-1,1-2.1,1.5-3.6,1.5C69.3,124.1,68.1,123.6,67.1,122.6z
		 M113.9,104.3c0.8,0.9,1.3,2,1.3,3.4v28c0,1.4-0.5,2.6-1.3,3.4c-0.9,0.9-2,1.3-3.4,1.3s-2.6-0.5-3.4-1.3c-0.9-0.8-1.3-2-1.3-3.5
		v-10.5H90.7v10.5c0,1.4-0.5,2.6-1.3,3.4c-0.9,0.9-2,1.3-3.4,1.3s-2.6-0.5-3.4-1.3c-0.9-0.8-1.3-2-1.3-3.5v-28
		c0-1.4,0.5-2.6,1.3-3.4c0.8-0.8,2-1.3,3.4-1.3s2.6,0.5,3.4,1.3c0.8,0.9,1.3,2,1.3,3.4v9.9h15.1v-9.9c0-1.4,0.5-2.6,1.3-3.4
		c0.8-0.8,2-1.3,3.4-1.3S113,103.5,113.9,104.3L113.9,104.3z M126.8,139c-2.1-1.1-3.8-2.7-5-4.7s-1.8-4.4-1.8-7.1
		c0-2.8,0.6-5.1,1.8-7.1s2.9-3.6,5-4.6c2.1-1.1,4.6-1.7,7.5-1.7s5.4,0.6,7.5,1.7s3.8,2.6,5,4.6s1.8,4.4,1.8,7.1s-0.6,5.2-1.8,7.1
		c-1.2,2-2.9,3.6-5,4.7s-4.6,1.7-7.5,1.7S129,140.1,126.8,139z M139.3,127.2c0-4.3-1.7-6.5-5-6.5s-5,2.1-5,6.5c0,4.3,1.7,6.5,5,6.5
		S139.3,131.5,139.3,127.2z M154.1,139.5c-0.9-0.7-1.3-1.8-1.3-3.2v-29c0-1.4,0.5-2.5,1.3-3.2c0.9-0.7,2-1.1,3.3-1.1
		s2.5,0.4,3.3,1.1c0.9,0.7,1.3,1.8,1.3,3.2v28.8c0,1.4-0.5,2.5-1.3,3.2c-0.9,0.7-2,1-3.3,1C156.1,140.6,154.9,140.2,154.1,139.5z
		 M188.3,116.6c1.9,1.9,2.9,4.8,2.9,8.7v10.9c0,1.3-0.4,2.4-1.2,3.1s-1.8,1.1-3.2,1.1c-1.2,0-2.2-0.4-3-1s-1.2-1.7-1.3-2.9
		c-0.6,1.3-1.3,2.2-2.5,2.9c-1.1,0.7-2.5,1-4.2,1c-1.8,0-3.4-0.4-4.8-1c-1.4-0.7-2.5-1.7-3.3-3s-1.3-2.7-1.3-4.3
		c0-1.8,0.5-3.3,1.4-4.4c1-1.1,2.5-1.8,4.6-2.4s4.9-0.7,8.5-0.7h1.4V124c0-1.2-0.3-2.1-0.8-2.7c-0.6-0.6-1.5-0.8-2.9-0.8
		s-3.5,0.6-6.3,1.5c-0.8,0.3-1.5,0.5-2,0.5c-0.9,0-1.6-0.3-2.1-1c-0.6-0.6-0.8-1.4-0.8-2.5c0-0.7,0.2-1.4,0.5-1.8
		c0.3-0.6,0.8-0.9,1.5-1.3c1.2-0.6,2.8-1.1,4.6-1.5s3.6-0.6,5.5-0.6C183.5,113.9,186.3,114.8,188.3,116.6L188.3,116.6z M181,133.1
		c0.8-0.9,1.2-2,1.2-3.4v-0.6h-0.8c-2.2,0-3.8,0.2-4.8,0.6s-1.4,1-1.4,2c0,0.8,0.2,1.5,0.7,2c0.6,0.6,1.2,0.8,1.9,0.8
		C179.2,134.5,180.2,134,181,133.1L181,133.1z M198.9,127.3c-0.6-0.6-0.8-1.2-1-2.1l-2.8-16.3c0-0.2-0.1-0.6-0.1-0.8
		c0-1.6,0.6-2.9,1.6-3.7c1-0.9,2.4-1.3,4-1.3c1.7,0,3,0.5,4,1.3c1,0.9,1.6,2.1,1.6,3.7c0,0.4,0,0.6-0.1,0.8l-2.8,16.2
		c-0.1,0.9-0.5,1.7-0.9,2.1c-0.6,0.6-1.1,0.7-1.8,0.7C200,128,199.4,127.8,198.9,127.3z M197.1,139c-1-1-1.4-2.1-1.4-3.6
		c0-1.4,0.5-2.6,1.4-3.6c1-1,2.1-1.5,3.6-1.5c1.4,0,2.6,0.6,3.6,1.5c1,1,1.4,2.1,1.4,3.6c0,1.4-0.5,2.6-1.4,3.6
		c-1,1-2.1,1.5-3.6,1.5S198.1,140.1,197.1,139z M342.2,187.1l1.3-0.2c0.4-0.1,2.1-0.2,5.4-0.6c1.7-0.1,2.9-0.4,3.8-0.9
		c1.3-0.8,2.1-2.5,2.4-4.3c0.1-1,0.1-2.5-0.8-4.2s-1.1-0.6-1.8-0.6c-0.6-0.1-0.4,0.6-3.2,1.3c-1.8,0.3-3.2,0.5-4.5,0.6
		c-0.4,0.2-1.5,0.5-1.8,0.6c0.2-1.1,0.6-3.3,0.6-4c0.6-2.1,0.6-2.6,0.6-2.9c0.2-1.6-0.2-2.6-0.6-3.2c-0.6-0.9-1.3-1.3-2.2-1.5
		c-1.7-0.2-3.2,0.8-4.2,2.9c-0.5,1-0.7,2.1-1,3.4c-0.2,1.1-0.5,4-0.6,5.8c-0.5,0-2.7,0.4-2.9,0.4c-3.8-0.2-7.3,0-11.2,0
		c-7.6,0.1-14.7-1.4-22.3-0.4c-1.2,0.2-2.2,1-2.8,2.4c-0.6,1.5-0.4,3.4,0.5,4.8c0.7,1.1,1.8,1.7,3.1,1.6c6.5-0.8,13-1.3,19.3-1.5
		c3.2-0.1,6.4-0.1,9.6,0c0.3,0,4,0.8,4.9,1c0.2,0,0.6,0.6,0.6,0.6c0,0.9-0.3,1.4,0.2,2.1c0,0.3-0.1,0.6-0.1,1
		c-0.2,2.5-0.4,4.8-0.5,6.7c0,0.5-0.1,0.9-0.1,1.3c-0.1,1.2-0.2,2.2-0.2,3.2c-0.2,2.2-0.2,4.3-0.2,6c0,2.1,0.1,3.5,0.3,4.4
		c0.2,0.9,0.5,1.7,0.8,2.1c0.6,0.7,1.2,1.3,2,1.3c0.9,0.2,1.8-0.2,2.7-0.8c1.7-1.2,2-2.9,2.1-3.8l0.1-0.5v-0.4
		c0-0.2-0.1-0.6-0.3-2.7c-0.1-0.8-0.2-2.5-0.1-5.5c0-0.5,0.1-1,0.1-1.5l0.1-0.1v-1.8c0.1-1.1,0.2-2.2,0.3-3.5h-0.1
		c0.1-1.4,0.2-2.9,0.4-4.5C341.9,190.1,342.1,188.6,342.2,187.1L342.2,187.1z M107.4,217.2c1.7,1.9,4.1,2.9,7.2,2.9
		c3,0,5.6-0.8,8-2.5c2.2-1.6,4-3.4,5.2-5.5c1.3-2.2,1.9-4.3,1.9-6.1c0-2.2-0.6-4.2-2-5.8c-1-1.3-2.4-2.7-4-4V196
		c0-1.1-0.6-2.1-1.7-2.5c-0.5-0.2-1-0.3-1.7-0.3h-0.8c-0.1-1-0.6-1.9-1.6-2.5c-0.6-0.4-1.4-0.6-2.1-0.6c-1.2,0-2.5,0.5-3.5,1.2
		c-1,0.6-1.7,1.7-2.5,2.9c-0.7,1.3-0.9,1.6-1,1.7c-1.3,2.2-2.2,4.8-3,7.6c-0.6,2.8-1,5.2-1,7.1C105.1,213.1,105.9,215.4,107.4,217.2
		L107.4,217.2z M113.3,205.3c0.6-1.7,1.2-3.4,2.2-5.2c0.1-0.3,0.3-0.5,0.4-0.6l0.4,0.4c0.6,0.6,1.3,1.1,2.4,1.9
		c1.3,1,2.4,1.8,3.1,2.7c0.5,0.6,0.6,1.1,0.6,1.8s-0.4,1.6-1,2.5c-0.6,1.1-1.6,2-2.7,2.8c-1,0.6-2.1,1-3.3,1c-3,0-3-1-3-2
		C112.6,208.7,112.8,206.9,113.3,205.3L113.3,205.3z M130.6,202.8l0.8,7.9l0.5,4.5c0.2,1.6,1,2.2,1.6,2.5c0.2,0.1,0.5,0.2,0.6,0.3
		l1.9,0.1c0.6-0.1,1.1-0.4,1.7-0.6c0.8-0.6,1.3-1.1,1.7-2.1l0.8-2.1c1.9-5,3.6-9.1,5.1-12.1c0.3-0.6,0.5-1,0.6-1.3
		c0,0.9,0.1,1.9,0.1,3c0,2.1-0.1,5-0.4,8.2c-0.3,3.2-0.4,5.5-0.4,7.1c0,1.1,0.6,2.1,1.5,2.7c0.6,0.5,1.4,0.6,2.1,0.6
		c1,0,2.1-0.4,2.9-1c0.9-0.8,1.4-1.8,1.4-3c0-6.5-0.1-11.4-0.2-14.7c-0.1-3.1-0.5-5.7-0.9-7.8c-0.9-4.1-3.3-4.8-4.6-4.8
		c-3.5,0-5.7,3.6-7.1,6.5c-0.8,1.6-1.7,3.4-2.5,5.3c-0.2-4-0.4-6.7-0.6-8.5c-0.2-1.6-0.5-4.8-3.1-4.8c-1.1,0-2.1,0.4-3.1,1
		c-1,0.8-1.7,1.9-1.7,3.2c0,0.5,0.1,1,0.2,1.7C130,197.1,130.3,199.7,130.6,202.8L130.6,202.8z M159.9,220.1c3,0,5.8-1.1,8.5-3.3
		c2.4-1.9,4.4-4.1,5.9-6.3c0.3-0.5,0.6-0.8,0.9-1.2c-0.1,2.4-0.1,3.9-0.1,4.4c0,1.3,0.3,2.5,0.6,3.6c1,2.4,2.9,2.6,3.6,2.6
		c0.9,0,2.1-0.4,3.1-1.9c0.6-1,1-1.9,1-2.8c0-0.6-0.3-1.5-0.9-2.1c0-0.6-0.1-1.3-0.1-2.1c0-1.1-0.1-2.4-0.1-3.5l-0.2-4.4
		c-0.1-1.8-0.1-3.1-0.2-3.6c-0.1-1.2-0.5-2.1-0.9-2.6c0.1-0.6,0.2-1.1,0.2-1.7c0-1.3-0.4-2.5-1-3.6c-0.6-1-1.4-1.7-2.4-2.2
		c-2-1.1-4-1.1-6.2-0.1c-1,0.5-2.1,1.3-3.7,2.5c-2.1,1.8-4.4,4.1-6.6,6.9c-2.1,2.7-4,5.5-5.3,8.1c-1.5,3-2.2,5.2-2.2,7.1
		c0,1.7,0.6,3.2,1.6,4.4C156.1,219.1,157.6,220.1,159.9,220.1L159.9,220.1z M163,208.9c1.1-2.1,2.6-4.4,4.4-6.6c1.7-2.1,3.4-4,5-5.3
		c1.2-1,1.8-1.2,2-1.3c0.1,0.1,0.2,0.3,0.2,0.6c0,1-0.2,1.7-0.5,2.5c-1.7,2.9-3.2,5.2-4.6,7.2c-1.3,1.8-2.8,3.5-4.4,4.8
		c-1.1,0.9-2.1,1.4-3.3,1.6C161.7,211.6,162.2,210.5,163,208.9L163,208.9z M186.6,210.3c1.6,3.4,3.6,5.2,6,5.2c1.7,0,3.3-0.6,4.9-2
		c-0.4,3.1-0.6,5.5-0.6,7.4c0,2.9,0.2,5.1,0.5,6.6c0.6,2.5,1.7,3.9,3.4,3.9c1,0,1.9-0.2,2.8-0.6c2-0.9,2.2-2.2,2.2-3.1
		c0-0.6-0.3-1.1-0.6-2.1c-0.2-0.3-0.4-0.8-0.6-1.7c-0.1-0.6-0.3-1.5-0.3-3.1c0-1.8,0.1-4,0.3-6.2c0.2-2.4,0.6-5.8,1-10.3
		c0-0.2,0.2-1.1,0.6-5.3c0.6-4,0.6-5.2,0.6-5.8c0-1-0.4-1.9-1.1-2.8c-1-1.2-2.1-1.5-2.9-1.5c-1.4,0-2.5,0.6-3.1,2
		c-0.3,0.6-0.5,1.4-0.6,2.5l-0.4,5.2c-0.3,0.8-0.6,1.7-1.1,2.8c-0.6,1.1-1,2.1-1.4,2.8c-1,1.5-1.7,2.6-2.4,3.3
		c-0.4,0.4-0.6,0.5-0.8,0.5c-0.4-0.4-2.1-2.4-3.6-13.3c-0.6-3.9-2.9-4.3-4-4.3c-1.2,0-3.2,0.8-3.2,3.7c0,1.7,0.4,4.1,1,7.4
		C184.5,204.6,185.5,207.7,186.6,210.3L186.6,210.3z M208.5,205c0,1.5,0.1,2.7,0.1,3.5c0,3.3,0.2,5.7,0.4,7.5
		c0.5,3.9,2.1,4.6,3.6,4.6c1.4,0,2.6-0.6,3.2-1.7c0.5-0.8,0.6-1.6,0.6-2.5l-0.2-2.4c0-0.6-0.1-1.6-0.2-2.9c-0.1-1-0.1-1.9-0.2-2.6
		c1.6-4,3.2-7.1,4.9-9.7c1.3-2,2.1-2.8,2.5-3.1l0.3,0.3c0.4,0.6,0.8,1,1.1,1.3c0.9,0.8,1.7,1,2.4,1c1,0,1.8-0.5,2.8-1.2
		c1-0.9,1.5-1.8,1.5-2.9s-0.4-2.1-1.1-3.1c-0.6-0.9-1.5-1.6-2.6-2.1c-1-0.6-2.1-0.8-3.4-0.8c-1.6,0-3.1,0.6-4.9,2.1
		c-1.1,1-2.2,2.4-3.5,4c0-1.5-0.2-2.1-0.3-2.6c-0.4-1.6-1.7-2.6-3.4-2.6c-2.7,0-4,1.8-4,3.6c0,1.4,0.1,3.6,0.2,6.9
		C208.4,201.8,208.5,203.5,208.5,205L208.5,205z M233.4,217c2,1.9,4.5,2.9,7.5,2.9c3.5,0,6.5-1.2,8.9-3.6c2.1-2.1,3.9-4.4,5-7
		c1.5-3.3,1.7-4.5,1.7-5.3c0-2.1-1.4-3.2-2.8-3.2c-0.8,0-1.9,0.4-2.7,2.1l-0.4,0.8c-1,2.4-2.5,4.4-4,6.3c-1.3,1.5-3,2.2-5.2,2.2
		c-1.6,0-2.1-0.6-2.5-1c-0.6-0.6-1-1.9-1-3.4c0-1,0.1-1.9,0.3-3c2.1-0.5,4.1-1,6.1-1.8c2.5-1,4.6-2.1,6.3-3.6c2-1.7,3.1-3.6,3.1-5.5
		s-0.9-3.6-2.5-4.6c-1.3-0.9-2.9-1.3-4.7-1.3c-2.9,0-5.5,1-8.1,3.2c-2.4,2-4.4,4.6-5.8,7.7c-1.5,3.1-2.1,6.4-2.1,9.5
		C230.2,212.3,231.2,215.1,233.4,217L233.4,217z M241.9,194.7c0.5-0.5,1-0.8,1.5-1c0.2-0.1,0.5-0.3,0.6-0.4h0.1
		c0.1-0.1,0.2-0.1,0.2-0.2c0.9-0.9,2.1-0.8,3.1,0c0.2,0.2,0.4,0.4,0.5,0.6l2.1-1.2l-2.1,1.2c0.4,0.8,0.2,1.8-0.5,2.5
		c-0.5,0.5-1,0.8-1.5,1c-0.2,0.1-0.5,0.3-0.6,0.4h-0.1c-0.1,0.1-0.2,0.1-0.2,0.2c-0.9,0.9-2.8,2.4-3.6,1.6
		C240.4,198.5,240.9,195.5,241.9,194.7z"/>
	<path d="M288.2,199.8c0-1.9-1.1-3.1-1.7-3.6c-0.6-0.6-1.3-1.2-2.1-1.4l0.5-6.9c0-0.3,0.2-1.7,0.6-6.4c0.4-4.3,0.5-5.5,0.5-5.9
		c0-4.3-2.6-5.5-4.1-5.5c-1.1,0-2.1,0.5-3.1,1.2c-1.1,1-1.7,2.4-1.7,4c0,0.7-0.1,2.9-0.6,8.5l-0.2,3.7c-0.1,1-0.2,2.6-0.3,4.6
		c-0.2,1.8-0.2,3.1-0.3,4.2c-2.1,0.3-4,0.5-5.5,0.6l0.1-2.7v-0.1c0-0.2,0-1,0.2-5.6c0.2-3.1,0.2-4.1,0.2-4.5c0-1-0.1-1.8-0.2-2.7
		c-0.6-2.8-2.5-3.8-3.9-3.8c-1.2,0-2.3,0.5-3.2,1.3c-1.1,1-1.7,2.5-1.7,4.1v1.8c0.1,2.9,0.1,6.2,0.1,9.8c0,0.7,0,1.7-0.1,2.7h-0.3
		l-2.3-0.1c-0.6,0-2.2,0-3.5,1.4c-0.6,0.6-1.3,1.8-1.3,3.6s0.7,3.4,2,4.4c1,0.7,2.1,1.1,3.2,1.1c0.5,0,1,0,1.5-0.1
		c-0.1,1.4-0.2,2.9-0.3,4.4v0.1c0,0.5-0.1,1-0.2,1.8v0.3c0,0.5-0.1,1-0.2,1.6c-0.1,0.8-0.1,1.3-0.1,1.8c0,1.1,0.2,2.2,0.6,3.1
		c0.7,1.7,2.1,2.8,3.7,2.8c0.9,0,1.8-0.4,2.8-1c1.8-1.3,2.1-3.1,2.1-4c0-0.5-0.1-1-0.2-1.7c0-0.2-0.1-0.2-0.1-0.3
		c0-0.4,0-1.5,0.2-5.4c0.1-1.6,0.2-3.1,0.2-4.4c0.6-0.1,1.2-0.2,1.8-0.2l3.4-0.4c0,0.2,0,0.5-0.1,0.6c-0.2,2-0.2,3.4-0.4,4.3v0.1
		c-0.4,0.7-0.8,1.6-0.8,2.7c0,1,0.2,2.1,0.6,3.4c1.1,3.1,3,3.6,4,3.6c0.7,0,4.3-0.3,4.8-5.9l0.6-9.7V205c0.4-0.1,0.7-0.2,1.1-0.3
		C287.3,203.6,288.2,201.6,288.2,199.8L288.2,199.8z M310.9,208.8c0-1-0.1-2-0.1-3l-0.2-3.8c-0.1-1.6-0.1-2.6-0.2-3.1
		c-0.1-1-0.4-1.8-0.7-2.2c0.1-0.5,0.2-1,0.2-1.4c0-1.1-0.3-2.1-0.9-3.1c-0.6-0.8-1.2-1.5-2-1.9c-1.7-1-3.3-1-5.3-0.1
		c-0.8,0.4-1.8,1.1-3.2,2.1c-1.8,1.6-3.7,3.5-5.5,5.8s-3.3,4.7-4.5,6.8c-1.3,2.5-1.9,4.4-1.9,6c0,1.5,0.5,2.8,1.3,3.8
		c0.6,0.7,1.8,1.7,3.9,1.7c2.5,0,5-1,7.1-2.9c2-1.7,3.7-3.5,5.1-5.4c0.2-0.4,0.5-0.6,0.7-1c-0.1,2-0.1,3.2-0.1,3.8
		c0,1.1,0.2,2.1,0.6,3.1c0.8,2,2.5,2.2,3.1,2.2c0.7,0,1.8-0.3,2.6-1.7c0.6-0.8,0.8-1.7,0.8-2.4c0-0.6-0.2-1.3-0.7-1.8
		C311,210.1,310.9,209.4,310.9,208.8L310.9,208.8z M303.8,198.3c-1.4,2.4-2.8,4.4-4,6.1c-1.1,1.6-2.4,3-3.8,4.1
		c-1,0.7-1.8,1.2-2.9,1.3c0.2-0.6,0.5-1.6,1.3-3c1-1.8,2.2-3.7,3.7-5.5s2.9-3.3,4.3-4.5c1-0.9,1.6-1,1.7-1.1
		c0.1,0.1,0.2,0.2,0.2,0.5C304.2,197,304.1,197.7,303.8,198.3L303.8,198.3z M331.2,196.9c0.8-0.7,1.3-1.6,1.3-2.5s-0.3-1.8-1-2.6
		c-0.6-0.7-1.3-1.3-2.2-1.8c-0.9-0.5-1.8-0.6-2.9-0.6c-1.3,0-2.7,0.6-4.2,1.8c-1,0.9-1.9,2-3,3.4c0-1.3-0.2-1.8-0.2-2.2
		c-0.3-1.3-1.5-2.2-2.9-2.2c-2.3,0-3.3,1.6-3.3,3.1c0,1.2,0.1,3.1,0.2,5.8c0.1,1.8,0.1,3.2,0.2,4.5c0,1.3,0.1,2.3,0.1,3
		c0,2.9,0.2,4.9,0.3,6.3c0.4,3.2,1.8,4,3.1,4c1.2,0,2.2-0.6,2.8-1.5c0.4-0.6,0.6-1.3,0.6-2.1l-0.2-2c0-0.6-0.1-1.3-0.2-2.5
		c-0.1-0.9-0.1-1.7-0.2-2.2c1.3-3.3,2.8-6,4.2-8.2c1.1-1.7,1.8-2.4,2.1-2.6l0.2,0.2c0.3,0.5,0.6,0.8,1,1.1c0.7,0.6,1.5,0.8,2,0.8
		C329.6,197.9,330.4,197.5,331.2,196.9L331.2,196.9z M85.9,223.3c6.7-6,11.8-11.6,14.9-16.3c3.2-5.1,5-10.5,5-16.3
		c0-5.5-2.4-12.8-13.3-16.6c-7.8-2.8-17.9-4.2-30.1-4.2c-3.9,0-7.1,0.2-10.1,0.5c-2.8,0.3-6.2,0.6-10.2,1.2
		c-1.5,0.2-2.6,0.6-3.5,1.1c-1.9,1.2-2.1,2.8-2.1,3.6c0,1.4,0.4,2.8,1.1,4.2c1.4,2.4,3.1,2.9,4.3,2.9c0.8,0,1.7-0.2,3-0.6
		c2.5-0.6,3.7-0.8,4.2-0.9h0.3c2.2-0.4,4.4-0.6,6.4-0.8c-0.1,0.3-0.3,0.6-0.4,0.8l-0.1,0.2c-0.9,2.8-1.3,6.3-1.3,10.5
		c0,2.5,0.1,6.9,0.2,13.1c0.2,5.2,0.3,11.2,0.3,17.7c0,3.7-0.2,7.1-0.5,9.7c-0.5,4.4-0.5,5-0.5,5.2c0,1.9,0.8,3.1,1.5,3.6
		c0.9,0.8,2,1.1,3.4,1.1c1.6,0,3-0.5,4-1.4c0.6-0.5,0.9-1,1.2-1.7c2.8-1.4,6.1-3.6,10-6.5C77.7,230.3,81.9,226.8,85.9,223.3
		L85.9,223.3z M65.1,225.9v-3.5c0-2.9-0.1-8-0.2-15.6c-0.2-5.7-0.3-11.2-0.3-15.9c0-1.4,0.3-3,0.8-4.6c0.9-2.9,1-3.4,1.1-3.7
		l0.1-0.4v-0.3c0-0.4-0.1-0.6-0.2-1c8.3,0.3,15.3,1.1,20.7,2.8c6.9,2,7.7,5.5,7.7,7.8c0,3.7-1.1,7.3-3.4,10.9
		c-2.5,3.9-6.5,8.2-11.8,13.1c-2.7,2.2-6,4.9-10,7.7C67.9,224.1,66.4,225.1,65.1,225.9z M118.1,177.5c-2-0.6-3.6-1.2-4.8-2.1
		c-0.6-0.4-0.8-0.7-1-1.2c-0.2-0.4-0.3-0.9-0.3-1.6c0-0.9,0.2-1.7,0.7-2.2c0.6-0.6,1.1-1,1.8-1c0.4,0,0.7,0.1,1.1,0.2
		c0.4,0.2,0.7,0.3,1.3,0.6c1.2,0.6,2.4,1.1,3.5,1.4c1.2,0.3,2.5,0.5,4,0.5c1.7,0,3-0.2,3.9-0.7c0.9-0.6,1.3-1.3,1.3-2.2
		c0-0.6-0.5-1.3-1.3-1.7c-0.8-0.5-2.4-1-4.7-1.4c-2.9-0.6-5.1-1.3-6.7-2.1c-1.7-0.8-2.8-1.8-3.4-3c-0.6-1.1-1-2.5-1-4.1
		c0-1.8,0.6-3.5,1.7-5s2.6-2.7,4.5-3.5s4.1-1.3,6.5-1.3c2.1,0,4,0.2,5.5,0.6c1.7,0.5,3.1,1.2,4.4,2.1c0.6,0.4,0.9,0.7,1.1,1.2
		c0.2,0.5,0.3,0.9,0.3,1.6c0,0.9-0.2,1.7-0.7,2.2c-0.6,0.6-1.1,1-1.8,1c-0.4,0-0.7-0.1-1-0.2s-0.7-0.3-1.3-0.6
		c-0.2-0.1-0.6-0.3-1.3-0.6c-0.6-0.4-1.5-0.6-2.4-0.9c-0.9-0.2-1.8-0.3-3-0.3c-1.5,0-2.7,0.3-3.6,0.8c-0.9,0.6-1.3,1.3-1.3,2.2
		c0,0.6,0.2,1,0.5,1.3c0.3,0.4,0.9,0.6,1.8,1c0.9,0.3,2.1,0.6,3.9,1c2.8,0.6,4.9,1.3,6.6,2.1c1.6,0.8,2.7,1.8,3.3,3
		c0.6,1.1,1,2.5,1,4c0,1.9-0.6,3.6-1.6,5.1s-2.5,2.6-4.4,3.3c-1.9,0.8-4.2,1.2-6.7,1.2C122.2,178.2,120,178,118.1,177.5L118.1,177.5
		z M145.8,176.8c-1.8-0.9-3.1-2.2-4.1-3.9c-1-1.7-1.4-3.6-1.4-5.9s0.5-4.2,1.4-5.9c1-1.7,2.3-2.9,4.1-3.8s3.8-1.3,6.2-1.3
		s4.4,0.5,6.2,1.3c1.8,0.9,3.1,2.1,4.1,3.8c1,1.7,1.4,3.6,1.4,5.9s-0.5,4.3-1.4,5.9c-1,1.7-2.3,3-4.1,3.9s-3.8,1.3-6.2,1.3
		C149.6,178.2,147.6,177.6,145.8,176.8z M156.1,167c0-3.6-1.3-5.4-4.1-5.4s-4.1,1.8-4.1,5.4s1.3,5.4,4.1,5.4
		C154.6,172.4,156.1,170.6,156.1,167z M199.6,158.1c1.3,1.4,1.9,3.7,1.9,7.1v9.3c0,1.2-0.4,2.1-1.1,2.7s-1.7,0.9-2.8,0.9
		c-1.1,0-2-0.3-2.8-0.9c-0.7-0.6-1.1-1.5-1.1-2.7V165c0-1.1-0.2-1.9-0.6-2.5c-0.4-0.5-1-0.6-1.8-0.6c-1,0-1.8,0.4-2.5,1.1
		c-0.6,0.7-0.9,1.7-0.9,3v8.6c0,1.2-0.4,2.1-1.1,2.7c-0.7,0.6-1.7,0.9-2.8,0.9s-2-0.3-2.8-0.9c-0.7-0.6-1.1-1.5-1.1-2.7v-9.5
		c0-1.1-0.2-1.9-0.6-2.5c-0.4-0.5-1-0.6-1.8-0.6c-1,0-1.8,0.4-2.4,1.1c-0.6,0.7-0.9,1.7-0.9,3v8.6c0,1.2-0.4,2.1-1.1,2.7
		c-0.7,0.6-1.7,0.9-2.8,0.9s-2-0.3-2.8-0.9c-0.7-0.6-1.1-1.5-1.1-2.7v-15c0-1.1,0.4-2,1.1-2.6c0.7-0.6,1.7-0.9,2.8-0.9
		c1,0,1.8,0.3,2.5,0.8c0.6,0.6,1,1.3,1,2.3c1.4-2.1,3.6-3.2,6.5-3.2c3.1,0,5.2,1.3,6.2,3.8c0.7-1.1,1.7-2.1,2.9-2.8
		c1.2-0.6,2.6-1,4.1-1C196.6,156,198.4,156.8,199.6,158.1L199.6,158.1z M210.4,176.8c-1.8-0.9-3.1-2.2-4.1-3.9
		c-1-1.7-1.4-3.6-1.4-5.9s0.5-4.2,1.4-5.9s2.3-2.9,4.1-3.8s3.8-1.3,6.2-1.3s4.4,0.5,6.2,1.3c1.8,0.9,3.1,2.1,4.1,3.8
		c1,1.7,1.4,3.6,1.4,5.9s-0.5,4.3-1.4,5.9c-1,1.7-2.3,3-4.1,3.9c-1.8,0.9-3.8,1.3-6.2,1.3C214.2,178.2,212.2,177.6,210.4,176.8z
		 M220.7,167c0-3.6-1.3-5.4-4.1-5.4s-4.1,1.8-4.1,5.4s1.3,5.4,4.1,5.4S220.7,170.6,220.7,167z M235.3,177.7
		c-1.3-0.3-2.5-0.7-3.5-1.4c-0.4-0.2-0.7-0.6-1-1c-0.2-0.6-0.4-1-0.4-1.7s0.2-1.4,0.6-1.9c0.5-0.6,1-0.7,1.6-0.7
		c0.5,0,0.8,0.1,1.2,0.2c0.4,0.1,0.8,0.3,1.4,0.6c0.9,0.3,1.7,0.6,2.5,0.7c0.6,0.2,1.7,0.2,2.7,0.2c0.7,0,1.4-0.1,1.8-0.3
		c0.5-0.2,0.6-0.6,0.6-0.9s-0.1-0.6-0.3-0.7c-0.2-0.2-0.6-0.4-1.3-0.6c-0.6-0.2-1.7-0.4-3.1-0.6c-2.5-0.6-4.4-1.3-5.5-2.2
		c-1.1-1-1.7-2.4-1.7-4.3c0-1.3,0.5-2.5,1.3-3.6c0.8-1,1.9-1.9,3.4-2.5c1.4-0.6,3.1-0.9,4.8-0.9c1.3,0,2.5,0.2,3.8,0.5
		c1.2,0.3,2.3,0.7,3.2,1.3c0.9,0.6,1.3,1.3,1.3,2.5c0,0.8-0.2,1.5-0.6,2c-0.5,0.6-1,0.8-1.6,0.8c-0.7,0-1.7-0.2-2.7-0.7
		c-0.6-0.3-1.3-0.6-1.8-0.7c-0.6-0.2-1.2-0.2-1.8-0.2c-0.7,0-1.3,0.1-1.7,0.3c-0.4,0.2-0.6,0.6-0.6,0.9c0,0.5,0.3,0.8,0.8,1.1
		c0.6,0.2,1.7,0.6,3.3,0.9c2.9,0.6,4.8,1.3,5.9,2.2c1.1,1,1.7,2.5,1.7,4.3c0,2.1-0.9,3.8-2.6,5.1c-1.7,1.3-4.1,1.8-7,1.8
		C238.3,178.2,236.6,178,235.3,177.7L235.3,177.7z M91.4,253.6c-0.4-0.4-0.6-0.9-0.6-1.6v-12.9c0-0.6,0.2-1.2,0.6-1.6
		c0.4-0.4,0.9-0.6,1.6-0.6h8.4c0.6,0,1.2,0.2,1.6,0.5c0.4,0.3,0.6,0.7,0.6,1.3c0,1.2-0.6,1.7-2.1,1.7h-6.1v3.2h5.5
		c1.4,0,2.1,0.6,2.1,1.7c0,0.6-0.2,1-0.6,1.3c-0.4,0.3-0.9,0.5-1.6,0.5h-5.5v3.6h6.1c1.4,0,2.1,0.6,2.1,1.7c0,0.6-0.2,1-0.6,1.3
		c-0.4,0.3-0.9,0.5-1.6,0.5h-8.4C92.3,254.3,91.8,254,91.4,253.6z M106.9,254.2c-0.7-0.2-1.4-0.5-1.9-0.7c-0.2-0.2-0.4-0.3-0.6-0.6
		c-0.2-0.3-0.2-0.6-0.2-0.9c0-0.5,0.2-0.8,0.4-1c0.2-0.3,0.6-0.5,0.9-0.5c0.2,0,0.5,0,0.6,0.1c0.2,0.1,0.5,0.2,0.7,0.3
		c0.6,0.2,1,0.3,1.3,0.5c0.4,0.1,0.9,0.2,1.5,0.2c0.5,0,0.7-0.1,1-0.2c0.2-0.2,0.4-0.3,0.4-0.6c0-0.2-0.1-0.3-0.2-0.5l-0.6-0.3
		c-0.4-0.1-0.9-0.2-1.7-0.4c-1.4-0.3-2.5-0.6-3.1-1.3c-0.6-0.6-1-1.3-1-2.4c0-0.7,0.2-1.4,0.6-2c0.5-0.6,1.1-1,1.9-1.4
		c0.8-0.4,1.7-0.6,2.7-0.6c0.7,0,1.4,0.1,2.1,0.3c0.6,0.2,1.3,0.5,1.8,0.7c0.6,0.3,0.7,0.7,0.7,1.4c0,0.5-0.2,0.8-0.4,1.1
		c-0.2,0.3-0.6,0.5-0.9,0.5c-0.5,0-0.9-0.2-1.5-0.5c-0.4-0.2-0.7-0.3-1-0.4s-0.6-0.2-1-0.2s-0.7,0.1-1,0.2c-0.2,0.2-0.4,0.3-0.4,0.6
		s0.2,0.5,0.5,0.6c0.3,0.2,1,0.3,1.8,0.6c1.6,0.3,2.7,0.6,3.3,1.3c0.6,0.6,1,1.3,1,2.4c0,1.2-0.6,2.1-1.5,2.9c-1,0.6-2.3,1-4,1
		C108.7,254.4,107.7,254.3,106.9,254.2L106.9,254.2z M125.4,252.8c0,0.6-0.2,1-0.6,1.3c-0.5,0.3-1,0.4-1.8,0.4l-0.6-0.1
		c-1.5-0.2-2.5-0.6-3.2-1.3c-0.7-0.7-1.1-1.8-1.1-3.2v-4.4h-0.6c-1.3,0-1.9-0.6-1.9-1.6s0.6-1.6,1.9-1.6h0.6v-1.6
		c0-0.6,0.2-1.1,0.6-1.5c0.4-0.4,0.9-0.6,1.6-0.6c0.6,0,1.2,0.2,1.6,0.6c0.4,0.4,0.6,0.8,0.6,1.5v1.6h1.3c1.3,0,1.9,0.6,1.9,1.6
		s-0.6,1.6-1.9,1.6h-1.6v4.6c0,0.3,0.1,0.6,0.3,0.7c0.2,0.2,0.5,0.3,0.7,0.4l0.6,0.1C124.9,251.3,125.4,251.9,125.4,252.8
		L125.4,252.8z M138,242.5c0.4,0.4,0.6,0.8,0.6,1.5v8.4c0,0.6-0.2,1-0.6,1.4c-0.4,0.4-0.9,0.6-1.6,0.6c-0.6,0-1-0.2-1.4-0.5
		s-0.6-0.7-0.6-1.3c-0.4,0.6-0.8,1-1.4,1.3c-0.6,0.3-1.3,0.5-2,0.5c-1.6,0-2.7-0.5-3.4-1.3s-1.1-2.1-1.1-3.9V244
		c0-0.6,0.2-1.1,0.6-1.5c0.4-0.4,0.9-0.6,1.6-0.6c0.6,0,1.2,0.2,1.6,0.6c0.4,0.4,0.6,0.8,0.6,1.5v5.4c0,1.2,0.6,1.7,1.5,1.7
		c0.6,0,1-0.2,1.4-0.6c0.4-0.5,0.6-1,0.6-1.7V244c0-0.6,0.2-1.1,0.6-1.5c0.4-0.4,0.9-0.6,1.6-0.6C137.1,242.1,137.6,242.2,138,242.5
		L138,242.5z M153,237.5c0.5,0.4,0.6,0.8,0.6,1.4v13.4c0,0.6-0.2,1.1-0.6,1.5s-0.9,0.6-1.6,0.6c-0.6,0-1.1-0.2-1.5-0.5
		s-0.6-0.7-0.6-1.3c-0.4,0.6-0.8,1-1.5,1.3c-0.6,0.3-1.4,0.6-2.1,0.6c-1,0-1.9-0.3-2.8-0.8c-0.8-0.6-1.4-1.3-1.8-2.2
		c-0.5-1-0.6-2-0.6-3.2s0.2-2.3,0.6-3.2c0.4-0.9,1-1.7,1.8-2.1c0.8-0.6,1.7-0.7,2.8-0.7c0.7,0,1.5,0.2,2.1,0.5s1.1,0.7,1.5,1.3v-4.8
		c0-0.6,0.2-1,0.6-1.3c0.4-0.4,0.9-0.6,1.6-0.6C152.2,237.1,152.7,237.2,153,237.5L153,237.5z M148.8,250.4c0.4-0.6,0.6-1.3,0.6-2.2
		c0-1-0.2-1.7-0.6-2.1c-0.4-0.6-1-0.7-1.7-0.7s-1.3,0.2-1.7,0.7c-0.4,0.6-0.6,1.2-0.6,2.1c0,1,0.2,1.7,0.6,2.2
		c0.5,0.6,1,0.8,1.7,0.8S148.4,250.9,148.8,250.4z M156.6,239.8c-0.5-0.4-0.6-0.9-0.6-1.5s0.2-1.1,0.6-1.5c0.5-0.4,1-0.6,1.7-0.6
		s1.3,0.2,1.7,0.6s0.6,0.9,0.6,1.5s-0.2,1.1-0.6,1.5s-1,0.6-1.7,0.6C157.7,240.3,157.1,240.2,156.6,239.8z M156.8,253.9
		c-0.5-0.3-0.6-0.8-0.6-1.5v-8.3c0-0.6,0.2-1.2,0.6-1.5c0.5-0.3,0.9-0.6,1.6-0.6c0.6,0,1.1,0.2,1.6,0.6c0.5,0.3,0.6,0.8,0.6,1.5v8.3
		c0,0.6-0.2,1.2-0.6,1.5c-0.5,0.3-0.9,0.6-1.6,0.6C157.8,254.4,157.2,254.2,156.8,253.9z M165.6,253.6c-1-0.6-1.8-1.3-2.3-2.1
		c-0.6-1-0.8-2-0.8-3.2s0.3-2.4,0.8-3.2c0.6-0.9,1.3-1.7,2.3-2.1c1-0.6,2.1-0.7,3.5-0.7c1.3,0,2.5,0.2,3.5,0.7
		c1,0.6,1.7,1.2,2.3,2.1s0.8,2,0.8,3.2s-0.3,2.4-0.8,3.2c-0.6,1-1.3,1.7-2.3,2.1c-1,0.6-2.1,0.7-3.5,0.7S166.5,254.2,165.6,253.6z
		 M171.3,248.2c0-2-0.7-3-2.3-3s-2.3,1-2.3,3s0.7,3,2.3,3S171.3,250.1,171.3,248.2z M196.5,237.5c0.5,0.4,0.6,0.8,0.6,1.4v13.4
		c0,0.6-0.2,1.1-0.6,1.5s-0.9,0.6-1.6,0.6c-0.6,0-1.1-0.2-1.5-0.5s-0.6-0.7-0.6-1.3c-0.4,0.6-0.8,1-1.5,1.3
		c-0.6,0.3-1.4,0.6-2.1,0.6c-1,0-1.9-0.3-2.8-0.8c-0.8-0.6-1.4-1.3-1.8-2.2c-0.4-1-0.6-2-0.6-3.2s0.2-2.3,0.6-3.2
		c0.4-0.9,1-1.7,1.8-2.1c0.8-0.6,1.7-0.7,2.8-0.7c0.7,0,1.5,0.2,2.1,0.5s1.1,0.7,1.5,1.3v-4.8c0-0.6,0.2-1,0.6-1.3
		c0.4-0.4,0.9-0.6,1.6-0.6C195.6,237.1,196.1,237.2,196.5,237.5L196.5,237.5z M192.3,250.4c0.4-0.6,0.6-1.3,0.6-2.2
		c0-1-0.2-1.7-0.6-2.1c-0.4-0.6-1-0.7-1.7-0.7c-0.8,0-1.3,0.2-1.7,0.7c-0.4,0.6-0.6,1.2-0.6,2.1c0,1,0.2,1.7,0.6,2.2
		c0.5,0.6,1,0.8,1.7,0.8C191.2,251.2,191.9,250.9,192.3,250.4z M210.3,250.8c0.2,0.3,0.4,0.6,0.4,1.1c0,0.6-0.3,1.1-1,1.5
		c-0.6,0.3-1.2,0.6-1.9,0.6c-0.7,0.1-1.4,0.3-2.1,0.3c-1.3,0-2.5-0.2-3.5-0.7c-1-0.6-1.7-1.2-2.3-2.1c-0.6-1-0.8-2-0.8-3.2
		s0.2-2.2,0.7-3.2s1.2-1.7,2.1-2.2c0.9-0.6,1.9-0.8,3.1-0.8c1.1,0,2.1,0.2,2.9,0.7c0.8,0.6,1.5,1.2,1.9,2.1c0.5,0.9,0.6,1.9,0.6,3.1
		c0,0.4-0.1,0.6-0.2,0.9c-0.2,0.2-0.5,0.3-0.7,0.3h-6.4c0.2,0.7,0.4,1.3,0.7,1.7c0.4,0.4,1,0.6,1.7,0.6c0.4,0,0.7-0.1,1.1-0.2
		s0.7-0.2,1.1-0.4c0.2-0.1,0.5-0.2,0.7-0.2c0.2-0.1,0.5-0.1,0.6-0.1C209.7,250.4,210,250.5,210.3,250.8L210.3,250.8z M203.8,245.5
		c-0.4,0.4-0.6,0.9-0.6,1.6h3.8c-0.1-1.4-0.7-2.1-1.8-2.1C204.5,244.9,204.1,245.1,203.8,245.5z M233.5,246.9
		c0.6,0.7,0.8,1.7,0.8,2.7s-0.2,1.8-0.7,2.5c-0.6,0.6-1.2,1.3-2.1,1.7c-0.9,0.4-2,0.6-3.2,0.6h-6.5c-0.6,0-1.2-0.2-1.6-0.6
		s-0.6-0.9-0.6-1.6v-12.9c0-0.6,0.2-1.2,0.6-1.6s0.9-0.6,1.6-0.6h6.2c1.8,0,3.2,0.4,4.3,1.2c1,0.8,1.6,1.8,1.6,3.2
		c0,0.9-0.2,1.7-0.6,2.3c-0.5,0.6-1.1,1.2-1.9,1.5C232.3,245.7,233,246.1,233.5,246.9L233.5,246.9z M224.1,243.8h3.2
		c0.8,0,1.5-0.2,1.8-0.4c0.4-0.2,0.6-0.6,0.6-1.3c0-0.6-0.2-1-0.6-1.3s-1-0.5-1.8-0.5h-3.2V243.8L224.1,243.8z M229.7,250.5
		c0.4-0.3,0.6-0.7,0.6-1.4s-0.2-1.1-0.6-1.4s-1-0.5-1.9-0.5h-3.6v3.6h3.6C228.6,250.8,229.3,250.7,229.7,250.5L229.7,250.5z
		 M245.2,242.4c0.3,0.3,0.6,0.7,0.6,1.3c0,0.6-0.2,1.1-0.5,1.4s-0.8,0.5-1.7,0.6l-0.7,0.1c-0.8,0.1-1.4,0.4-1.7,0.7
		c-0.4,0.5-0.6,1-0.6,1.7v4.2c0,0.6-0.2,1.2-0.6,1.5c-0.5,0.3-0.9,0.6-1.6,0.6s-1.1-0.2-1.6-0.6c-0.5-0.3-0.6-0.8-0.6-1.5V244
		c0-0.6,0.2-1.1,0.6-1.4c0.5-0.4,0.9-0.6,1.5-0.6s1,0.2,1.4,0.6c0.4,0.3,0.6,0.7,0.6,1.3v0.5c0.2-0.7,0.6-1.3,1.3-1.7
		s1.2-0.6,1.8-0.6h0.4C244.5,242.1,244.9,242.1,245.2,242.4L245.2,242.4z M256.1,243.3c0.9,0.9,1.3,2.2,1.3,4v5.1
		c0,0.6-0.2,1.1-0.6,1.4c-0.4,0.4-0.9,0.6-1.5,0.6s-1-0.2-1.4-0.6c-0.4-0.3-0.6-0.7-0.6-1.3c-0.2,0.6-0.6,1-1.1,1.3
		c-0.6,0.3-1.2,0.6-1.9,0.6c-0.8,0-1.6-0.2-2.2-0.6c-0.6-0.3-1.2-0.8-1.6-1.4s-0.6-1.3-0.6-2c0-0.8,0.2-1.6,0.6-2
		c0.5-0.6,1.1-0.9,2.1-1.1s2.3-0.4,4-0.4h0.6v-0.3c0-0.6-0.2-1-0.4-1.2s-0.6-0.4-1.3-0.4c-0.7,0-1.7,0.2-2.9,0.6
		c-0.4,0.2-0.6,0.2-1,0.2s-0.7-0.2-1-0.5c-0.2-0.3-0.4-0.6-0.4-1.1c0-0.4,0.1-0.6,0.2-0.9c0.2-0.2,0.4-0.5,0.6-0.6
		c0.6-0.3,1.3-0.6,2.1-0.6c0.8-0.2,1.7-0.3,2.5-0.3C253.9,242.1,255.3,242.4,256.1,243.3L256.1,243.3z M252.8,250.9
		c0.4-0.5,0.6-1,0.6-1.6V249H253c-1,0-1.8,0.1-2.2,0.3c-0.5,0.2-0.6,0.6-0.6,1s0.2,0.6,0.4,0.9c0.2,0.2,0.6,0.4,0.9,0.4
		C251.9,251.5,252.4,251.3,252.8,250.9L252.8,250.9z M271,243.3c0.6,0.8,1,2.1,1,3.9v5.2c0,0.6-0.2,1.1-0.6,1.5s-0.9,0.6-1.6,0.6
		s-1.2-0.2-1.6-0.6s-0.6-0.8-0.6-1.5v-5.1c0-0.7-0.2-1.2-0.4-1.6c-0.2-0.3-0.6-0.6-1.1-0.6c-0.6,0-1.2,0.2-1.6,0.6
		c-0.4,0.5-0.6,1-0.6,1.7v4.8c0,0.6-0.2,1.1-0.6,1.5s-0.9,0.6-1.6,0.6s-1.2-0.2-1.6-0.6s-0.6-0.8-0.6-1.5v-8.4c0-0.6,0.2-1,0.6-1.4
		s0.9-0.6,1.6-0.6c0.6,0,1.1,0.2,1.5,0.6s0.6,0.8,0.6,1.3c0.5-0.6,1-1.1,1.7-1.4c0.6-0.3,1.4-0.6,2.2-0.6
		C269.3,242.1,270.3,242.4,271,243.3L271,243.3z M286.5,237.5c0.5,0.4,0.6,0.8,0.6,1.4v13.4c0,0.6-0.2,1.1-0.6,1.5s-0.9,0.6-1.6,0.6
		c-0.6,0-1.1-0.2-1.5-0.5s-0.6-0.7-0.6-1.3c-0.4,0.6-0.8,1-1.5,1.3c-0.6,0.3-1.4,0.6-2.1,0.6c-1,0-1.9-0.3-2.8-0.8
		c-0.8-0.6-1.4-1.3-1.8-2.2c-0.4-1-0.6-2-0.6-3.2s0.2-2.3,0.6-3.2c0.4-0.9,1-1.7,1.8-2.1c0.8-0.6,1.7-0.7,2.8-0.7
		c0.7,0,1.5,0.2,2.1,0.5s1.1,0.7,1.5,1.3v-4.8c0-0.6,0.2-1,0.6-1.3c0.4-0.4,0.9-0.6,1.6-0.6C285.6,237.3,286.1,237.2,286.5,237.5
		L286.5,237.5z M282.3,250.4c0.4-0.6,0.6-1.3,0.6-2.2c0-1-0.2-1.7-0.6-2.1c-0.4-0.6-1-0.7-1.7-0.7s-1.3,0.2-1.7,0.7
		c-0.4,0.6-0.6,1.2-0.6,2.1c0,1,0.2,1.7,0.6,2.2c0.5,0.6,1,0.8,1.7,0.8C281.2,251.2,281.9,250.9,282.3,250.4z M290,239.8
		c-0.5-0.4-0.6-0.9-0.6-1.5s0.2-1.1,0.6-1.5s1-0.6,1.7-0.6s1.3,0.2,1.7,0.6c0.5,0.4,0.6,0.9,0.6,1.5s-0.2,1.1-0.6,1.5
		s-1,0.6-1.7,0.6C291.1,240.3,290.5,240.2,290,239.8z M290.3,253.9c-0.5-0.3-0.6-0.8-0.6-1.5v-8.3c0-0.6,0.2-1.2,0.6-1.5
		c0.5-0.3,0.9-0.6,1.6-0.6s1.1,0.2,1.6,0.6c0.5,0.3,0.6,0.8,0.6,1.5v8.3c0,0.6-0.2,1.2-0.6,1.5c-0.5,0.3-0.9,0.6-1.6,0.6
		C291.2,254.4,290.7,254.2,290.3,253.9z M307.6,243.3c0.6,0.8,1,2.1,1,3.9v5.2c0,0.6-0.2,1.1-0.6,1.5s-0.9,0.6-1.6,0.6
		s-1.2-0.2-1.6-0.6s-0.6-0.8-0.6-1.5v-5.1c0-0.7-0.2-1.2-0.4-1.6c-0.2-0.3-0.6-0.6-1.1-0.6c-0.6,0-1.2,0.2-1.6,0.6
		c-0.4,0.5-0.6,1-0.6,1.7v4.8c0,0.6-0.2,1.1-0.6,1.5s-0.9,0.6-1.6,0.6s-1.2-0.2-1.6-0.6s-0.6-0.8-0.6-1.5v-8.4c0-0.6,0.2-1,0.6-1.4
		s0.9-0.6,1.6-0.6c0.6,0,1.1,0.2,1.5,0.6s0.6,0.8,0.6,1.3c0.5-0.6,1-1.1,1.7-1.4c0.6-0.3,1.4-0.6,2.2-0.6
		C305.9,242.1,306.9,242.4,307.6,243.3L307.6,243.3z M323.2,242.6c0.4,0.4,0.6,0.8,0.6,1.4v8.7c0,1.9-0.6,3.5-1.8,4.4
		c-1.2,1-2.9,1.6-5.2,1.6c-0.9,0-1.7-0.1-2.5-0.2c-0.8-0.2-1.5-0.4-2-0.6c-0.3-0.2-0.6-0.4-0.6-0.6c-0.2-0.2-0.2-0.6-0.2-0.9
		c0-0.5,0.2-0.8,0.4-1.1c0.2-0.3,0.6-0.5,0.9-0.5s0.8,0.2,1.6,0.4c0.6,0.2,1,0.3,1.3,0.4c0.4,0.1,0.8,0.2,1.2,0.2
		c1,0,1.7-0.2,2.1-0.6c0.5-0.5,0.6-1,0.6-1.9v-0.9c-0.4,0.6-0.9,1-1.6,1.3c-0.6,0.3-1.4,0.5-2.1,0.5c-1,0-1.9-0.2-2.8-0.7
		c-0.8-0.6-1.4-1.2-1.8-2.1s-0.6-1.9-0.6-3.1s0.2-2.2,0.6-3.1c0.5-0.9,1.1-1.7,1.8-2.1c0.8-0.6,1.7-0.7,2.8-0.7
		c0.8,0,1.5,0.2,2.1,0.6c0.6,0.3,1.2,0.7,1.6,1.3c0-0.6,0.2-1,0.6-1.3s0.9-0.5,1.5-0.5C322.4,242.1,322.8,242.2,323.2,242.6
		L323.2,242.6z M319,249.9c0.5-0.5,0.6-1.1,0.6-2c0-0.8-0.2-1.6-0.6-2c-0.5-0.6-1-0.7-1.8-0.7s-1.3,0.2-1.7,0.7
		c-0.5,0.5-0.6,1.1-0.6,2c0,0.8,0.2,1.5,0.6,2c0.5,0.5,1,0.7,1.7,0.7C317.9,250.7,318.6,250.5,319,249.9z M91.7,281.8
		c-1.1-1.1-1.7-2.6-1.7-4.4c0-1.3,0.3-2.3,0.8-3.2c0.6-1,1.3-1.7,2.3-2.2c1-0.6,2.1-0.7,3.4-0.7c0.6,0,1.3,0.1,2,0.3
		c0.6,0.2,1.3,0.5,1.8,0.7c0.6,0.3,0.7,0.7,0.7,1.4c0,0.6-0.2,0.9-0.4,1.2s-0.6,0.5-0.9,0.5c-0.2,0-0.5,0-0.6-0.1
		c-0.2-0.1-0.5-0.2-0.7-0.3c-0.2-0.2-0.6-0.2-0.8-0.3c-0.2-0.1-0.5-0.1-0.7-0.1c-1.6,0-2.4,1-2.4,2.9c0,1,0.2,1.7,0.6,2.2
		c0.5,0.6,1,0.7,1.8,0.7c0.3,0,0.6,0,0.7-0.1c0.2-0.1,0.6-0.2,0.8-0.3c0.3-0.2,0.6-0.2,0.8-0.3s0.5-0.1,0.6-0.1
		c0.4,0,0.6,0.2,0.9,0.5c0.2,0.3,0.4,0.7,0.4,1.2c0,0.3-0.1,0.6-0.2,0.8c-0.2,0.2-0.3,0.5-0.6,0.6c-1.1,0.6-2.5,1-4.1,1
		C94.4,283.5,92.8,282.9,91.7,281.8L91.7,281.8z M105.3,282.6c-1-0.6-1.8-1.3-2.3-2.1c-0.6-1-0.8-2-0.8-3.2s0.3-2.4,0.8-3.2
		c0.5-0.9,1.3-1.7,2.3-2.1c1-0.6,2.1-0.7,3.5-0.7c1.3,0,2.5,0.2,3.5,0.7c1,0.6,1.7,1.2,2.3,2.1c0.6,0.9,0.8,2,0.8,3.2
		s-0.3,2.4-0.8,3.2c-0.6,1-1.3,1.7-2.3,2.1c-1,0.6-2.1,0.7-3.5,0.7C107.4,283.5,106.2,283.2,105.3,282.6z M111,277.2
		c0-2-0.7-3-2.3-3s-2.3,1-2.3,3c0,2.1,0.7,3,2.3,3S111,279.2,111,277.2z M128.4,272.3c0.6,0.8,1,2.1,1,3.9v5.2
		c0,0.6-0.2,1.1-0.6,1.5c-0.4,0.4-0.9,0.6-1.6,0.6c-0.6,0-1.2-0.2-1.6-0.6c-0.4-0.4-0.6-0.8-0.6-1.5v-5.1c0-0.7-0.2-1.2-0.4-1.6
		c-0.2-0.3-0.6-0.6-1.1-0.6c-0.6,0-1.2,0.2-1.6,0.6c-0.4,0.5-0.6,1-0.6,1.7v4.8c0,0.6-0.2,1.1-0.6,1.5c-0.4,0.4-0.9,0.6-1.6,0.6
		c-0.6,0-1.2-0.2-1.6-0.6c-0.4-0.4-0.6-0.8-0.6-1.5v-8.4c0-0.6,0.2-1,0.6-1.4c0.4-0.4,0.9-0.6,1.6-0.6c0.6,0,1.1,0.2,1.5,0.6
		c0.4,0.4,0.6,0.8,0.6,1.3c0.5-0.6,1-1.1,1.7-1.4s1.4-0.6,2.2-0.6C126.7,271.1,127.7,271.5,128.4,272.3L128.4,272.3z M140.8,283.2
		c-0.7-0.2-1.4-0.5-1.9-0.7c-0.2-0.2-0.4-0.3-0.6-0.6c-0.2-0.3-0.2-0.6-0.2-0.9c0-0.5,0.2-0.8,0.4-1c0.2-0.3,0.6-0.5,0.9-0.5
		c0.2,0,0.5,0,0.6,0.1c0.2,0.1,0.5,0.2,0.7,0.3c0.6,0.2,1,0.3,1.3,0.5c0.4,0.1,0.9,0.2,1.5,0.2c0.5,0,0.7-0.1,1-0.2
		c0.2-0.2,0.4-0.3,0.4-0.6c0-0.2-0.1-0.3-0.2-0.5l-0.6-0.3c-0.4-0.1-0.9-0.2-1.7-0.4c-1.4-0.3-2.5-0.6-3.1-1.3c-0.6-0.6-1-1.3-1-2.4
		c0-0.7,0.2-1.4,0.6-2c0.4-0.6,1.1-1,1.9-1.4c0.8-0.4,1.7-0.6,2.7-0.6c0.7,0,1.4,0.1,2.1,0.3c0.6,0.2,1.3,0.5,1.8,0.7
		c0.6,0.3,0.7,0.7,0.7,1.4c0,0.5-0.2,0.8-0.4,1.1c-0.2,0.3-0.6,0.5-0.9,0.5c-0.5,0-0.9-0.2-1.5-0.5c-0.4-0.2-0.7-0.3-1-0.4
		c-0.3-0.1-0.6-0.2-1-0.2s-0.7,0.1-1,0.2c-0.2,0.2-0.4,0.3-0.4,0.6c0,0.2,0.2,0.5,0.5,0.6c0.3,0.2,1,0.3,1.8,0.6
		c1.6,0.3,2.7,0.6,3.3,1.3c0.6,0.6,1,1.3,1,2.4c0,1.2-0.6,2.1-1.5,2.9c-1,0.6-2.3,1-4,1C142.3,283.5,141.5,283.4,140.8,283.2
		L140.8,283.2z M161.3,279.9c0.2,0.3,0.4,0.6,0.4,1.1c0,0.6-0.3,1.1-1,1.5c-0.6,0.3-1.2,0.6-1.9,0.6c-0.7,0.2-1.4,0.3-2.1,0.3
		c-1.3,0-2.5-0.2-3.5-0.7c-1-0.6-1.7-1.2-2.3-2.1c-0.6-1-0.8-2-0.8-3.2s0.2-2.2,0.7-3.2s1.2-1.7,2.1-2.2c0.9-0.6,1.9-0.8,3.1-0.8
		c1.1,0,2.1,0.2,2.9,0.7c0.8,0.6,1.5,1.2,1.9,2.1c0.5,0.9,0.6,1.9,0.6,3.1c0,0.4-0.1,0.6-0.2,0.9c-0.2,0.2-0.5,0.3-0.7,0.3h-6.4
		c0.2,0.7,0.4,1.3,0.7,1.7c0.4,0.4,1,0.6,1.7,0.6c0.4,0,0.7-0.1,1.1-0.2c0.4-0.1,0.7-0.2,1.1-0.4c0.2-0.1,0.5-0.2,0.7-0.2
		c0.2-0.1,0.5-0.1,0.6-0.1C160.6,279.5,161,279.6,161.3,279.9L161.3,279.9z M154.9,274.5c-0.4,0.4-0.6,0.9-0.6,1.6h3.8
		c-0.1-1.4-0.7-2.1-1.8-2.1C155.6,274,155.2,274.1,154.9,274.5z M175.6,266.6c0.5,0.4,0.6,0.8,0.6,1.4v13.4c0,0.6-0.2,1.1-0.6,1.5
		c-0.4,0.4-0.9,0.6-1.6,0.6c-0.6,0-1.1-0.2-1.5-0.5s-0.6-0.7-0.6-1.3c-0.4,0.6-0.8,1-1.5,1.3s-1.4,0.6-2.1,0.6c-1,0-1.9-0.3-2.8-0.8
		c-0.8-0.6-1.4-1.3-1.8-2.2c-0.5-1-0.6-2-0.6-3.2s0.2-2.3,0.6-3.2c0.5-0.9,1-1.7,1.8-2.1c0.8-0.5,1.7-0.7,2.8-0.7
		c0.7,0,1.5,0.2,2.1,0.5s1.1,0.7,1.5,1.3v-4.8c0-0.6,0.2-1,0.6-1.3c0.4-0.4,0.9-0.6,1.6-0.6C174.7,266.1,175.1,266.2,175.6,266.6
		L175.6,266.6z M171.3,279.5c0.4-0.6,0.6-1.3,0.6-2.2c0-1-0.2-1.7-0.6-2.1c-0.4-0.6-1-0.7-1.7-0.7s-1.3,0.2-1.7,0.7
		c-0.4,0.6-0.6,1.2-0.6,2.1c0,1,0.2,1.7,0.6,2.2c0.5,0.6,1,0.8,1.7,0.8C170.4,280.2,170.9,280,171.3,279.5z M189.3,279.9
		c0.2,0.3,0.4,0.6,0.4,1.1c0,0.6-0.3,1.1-1,1.5c-0.6,0.3-1.2,0.6-1.9,0.6c-0.7,0.2-1.4,0.3-2.1,0.3c-1.3,0-2.5-0.2-3.5-0.7
		c-1-0.6-1.7-1.2-2.3-2.1c-0.6-1-0.8-2-0.8-3.2s0.2-2.2,0.7-3.2s1.2-1.7,2.1-2.2c0.9-0.6,1.9-0.8,3.1-0.8s2.1,0.2,2.9,0.7
		c0.8,0.6,1.5,1.2,1.9,2.1c0.5,0.9,0.6,1.9,0.6,3.1c0,0.4-0.1,0.6-0.2,0.9c-0.2,0.2-0.5,0.3-0.7,0.3h-6.4c0.2,0.7,0.4,1.3,0.7,1.7
		c0.4,0.4,1,0.6,1.7,0.6c0.4,0,0.7-0.1,1.1-0.2c0.4-0.1,0.7-0.2,1.1-0.4c0.2-0.1,0.5-0.2,0.7-0.2c0.2-0.1,0.5-0.1,0.6-0.1
		C188.8,279.5,189.1,279.6,189.3,279.9L189.3,279.9z M182.9,274.5c-0.4,0.4-0.6,0.9-0.6,1.6h3.8c-0.1-1.4-0.7-2.1-1.8-2.1
		C183.7,274,183.3,274.1,182.9,274.5z M209.1,279.9c0.2,0.3,0.4,0.6,0.4,1.1c0,0.6-0.3,1.1-1,1.5c-0.6,0.3-1.2,0.6-1.9,0.6
		c-0.7,0.2-1.4,0.3-2.1,0.3c-1.3,0-2.5-0.2-3.5-0.7c-1-0.6-1.7-1.2-2.3-2.1c-0.6-1-0.8-2-0.8-3.2s0.2-2.2,0.7-3.2s1.2-1.7,2.1-2.2
		c0.9-0.6,1.9-0.8,3.1-0.8s2.1,0.2,2.9,0.7c0.8,0.6,1.5,1.2,1.9,2.1c0.5,0.9,0.6,1.9,0.6,3.1c0,0.4-0.1,0.6-0.2,0.9
		c-0.2,0.2-0.5,0.3-0.7,0.3h-6.4c0.2,0.7,0.4,1.3,0.7,1.7c0.4,0.4,1,0.6,1.7,0.6c0.4,0,0.7-0.1,1.1-0.2c0.4-0.1,0.7-0.2,1.1-0.4
		c0.2-0.1,0.5-0.2,0.7-0.2c0.2-0.1,0.5-0.1,0.6-0.1C208.7,279.5,209,279.6,209.1,279.9L209.1,279.9z M202.8,274.5
		c-0.4,0.4-0.6,0.9-0.6,1.6h3.8c-0.1-1.4-0.7-2.1-1.8-2.1C203.6,274,203.1,274.1,202.8,274.5z M222.7,272.3c0.6,0.8,1,2.1,1,3.9v5.2
		c0,0.6-0.2,1.1-0.6,1.5c-0.4,0.4-0.9,0.6-1.6,0.6s-1.2-0.2-1.6-0.6c-0.4-0.4-0.6-0.8-0.6-1.5v-5.1c0-0.7-0.2-1.2-0.4-1.6
		c-0.2-0.3-0.6-0.6-1.1-0.6c-0.6,0-1.2,0.2-1.6,0.6c-0.4,0.5-0.6,1-0.6,1.7v4.8c0,0.6-0.2,1.1-0.6,1.5c-0.4,0.4-0.9,0.6-1.6,0.6
		s-1.2-0.2-1.6-0.6c-0.4-0.4-0.6-0.8-0.6-1.5v-8.4c0-0.6,0.2-1,0.6-1.4c0.4-0.4,0.9-0.6,1.6-0.6c0.6,0,1.1,0.2,1.5,0.6
		c0.4,0.4,0.6,0.8,0.6,1.3c0.5-0.6,1-1.1,1.7-1.4c0.6-0.3,1.4-0.6,2.2-0.6C221,271.1,222.1,271.5,222.7,272.3L222.7,272.3z
		 M235.8,285.8c-0.4-0.4-0.6-0.9-0.6-1.6v-12.9c0-0.6,0.2-1.2,0.6-1.6c0.4-0.4,1-0.6,1.7-0.6s1.3,0.2,1.7,0.6
		c0.4,0.4,0.6,0.9,0.6,1.6v11.3h5.5c1.4,0,2.1,0.6,2.1,1.8c0,0.6-0.2,1-0.6,1.3s-0.9,0.5-1.6,0.5h-7.9
		C236.7,286.4,236.2,286.1,235.8,285.8L235.8,285.8z M249.3,272c-0.5-0.4-0.6-0.9-0.6-1.5c0-0.6,0.2-1.1,0.6-1.5
		c0.5-0.4,1-0.6,1.7-0.6s1.3,0.2,1.7,0.6c0.5,0.4,0.6,0.9,0.6,1.5c0,0.6-0.2,1.1-0.6,1.5c-0.4,0.4-1,0.6-1.7,0.6
		C250.2,272.4,249.7,272.3,249.3,272z M249.4,286c-0.5-0.3-0.6-0.8-0.6-1.5v-8.3c0-0.6,0.2-1.2,0.6-1.5c0.5-0.3,0.9-0.6,1.6-0.6
		c0.6,0,1.1,0.2,1.6,0.6c0.5,0.3,0.6,0.8,0.6,1.5v8.3c0,0.6-0.2,1.2-0.6,1.5c-0.5,0.3-0.9,0.6-1.6,0.6
		C250.3,286.5,249.8,286.3,249.4,286z M273.8,275.3c0.7,0.8,1,2.1,1,4v5.2c0,0.6-0.2,1.2-0.6,1.5c-0.5,0.3-0.9,0.6-1.6,0.6
		c-0.6,0-1.1-0.2-1.6-0.6c-0.5-0.3-0.6-0.8-0.6-1.5v-5.4c0-0.6-0.2-1.1-0.4-1.3c-0.2-0.2-0.6-0.4-1-0.4c-0.6,0-1,0.2-1.3,0.6
		c-0.4,0.4-0.6,1-0.6,1.7v4.8c0,0.6-0.2,1.2-0.6,1.5s-0.9,0.6-1.6,0.6c-0.6,0-1.1-0.2-1.6-0.6c-0.5-0.3-0.6-0.8-0.6-1.5v-5.4
		c0-0.6-0.2-1.1-0.4-1.3c-0.2-0.2-0.6-0.4-1-0.4c-0.6,0-1,0.2-1.3,0.6c-0.3,0.4-0.6,1-0.6,1.7v4.8c0,0.6-0.2,1.2-0.6,1.5
		c-0.5,0.3-0.9,0.6-1.6,0.6c-0.6,0-1.1-0.2-1.6-0.6c-0.5-0.3-0.6-0.8-0.6-1.5v-8.4c0-0.6,0.2-1.1,0.6-1.4c0.5-0.3,1-0.6,1.6-0.6
		s1,0.2,1.4,0.5s0.6,0.7,0.6,1.3c0.8-1.2,2-1.8,3.6-1.8c1.7,0,2.9,0.6,3.5,2.1c0.4-0.6,1-1.2,1.7-1.6c0.6-0.4,1.4-0.6,2.3-0.6
		C272.1,274.2,273.1,274.6,273.8,275.3L273.8,275.3z M287,275.4c0.9,0.9,1.3,2.2,1.3,4v5.1c0,0.6-0.2,1.1-0.6,1.4
		c-0.4,0.4-0.9,0.6-1.5,0.6s-1-0.2-1.4-0.6c-0.4-0.3-0.6-0.7-0.6-1.3c-0.2,0.6-0.6,1-1.1,1.3s-1.2,0.6-1.9,0.6
		c-0.8,0-1.6-0.2-2.2-0.6c-0.6-0.3-1.2-0.8-1.6-1.4c-0.4-0.6-0.6-1.3-0.6-2c0-0.8,0.2-1.6,0.6-2c0.5-0.6,1.1-0.9,2.1-1.1
		s2.3-0.4,4-0.4h0.6v-0.4c0-0.6-0.2-1-0.4-1.2s-0.6-0.4-1.3-0.4c-0.6,0-1.7,0.2-2.9,0.6c-0.4,0.2-0.6,0.2-1,0.2s-0.7-0.2-1-0.5
		c-0.2-0.3-0.4-0.6-0.4-1.1c0-0.4,0.1-0.6,0.2-0.9c0.2-0.2,0.4-0.5,0.6-0.6c0.6-0.3,1.3-0.6,2.1-0.6c0.8-0.2,1.7-0.3,2.5-0.3
		C284.8,274.2,286.1,274.6,287,275.4L287,275.4z M283.7,283c0.4-0.5,0.6-1,0.6-1.6v-0.3h-0.5c-1,0-1.8,0.1-2.2,0.3
		c-0.5,0.2-0.6,0.6-0.6,1c0,0.4,0.2,0.6,0.4,0.9s0.6,0.4,0.9,0.4C282.8,283.6,283.3,283.4,283.7,283L283.7,283z M294.4,282.6
		c0.5,0.6,0.6,1.3,0.6,2.2c0,1.8-0.6,3.5-2,4.9c-0.2,0.2-0.6,0.4-0.8,0.4c-0.3,0-0.6-0.1-0.8-0.3c-0.2-0.2-0.4-0.5-0.4-0.7
		s0.1-0.6,0.3-0.6c0.6-0.6,1-1.3,1.2-1.9c-0.6-0.1-1.1-0.3-1.5-0.6c-0.4-0.4-0.6-0.9-0.6-1.5c0-0.6,0.2-1.2,0.6-1.7
		c0.5-0.5,1-0.6,1.7-0.6C293.4,281.8,294,282.1,294.4,282.6L294.4,282.6z M298.2,285.9c-0.4-0.4-0.6-1-0.6-1.7v-12.9
		c0-0.6,0.2-1.2,0.6-1.6c0.4-0.4,0.9-0.6,1.6-0.6h6.2c1.8,0,3.3,0.5,4.4,1.4c1,1,1.6,2.3,1.6,4s-0.6,3.1-1.6,4c-1,1-2.5,1.5-4.4,1.5
		h-3.8v4.1c0,0.6-0.2,1.2-0.6,1.7c-0.4,0.4-1,0.6-1.7,0.6S298.6,286.3,298.2,285.9z M305.2,276.9c0.8,0,1.4-0.2,1.8-0.6
		c0.4-0.4,0.6-0.9,0.6-1.6c0-1.4-0.8-2.1-2.5-2.1h-3.2v4.2L305.2,276.9L305.2,276.9z M323.8,283c0.2,0.3,0.4,0.6,0.4,1.1
		c0,0.6-0.3,1.1-1,1.5c-0.6,0.3-1.2,0.6-1.9,0.6c-0.7,0.1-1.4,0.3-2.1,0.3c-1.3,0-2.5-0.2-3.5-0.7c-1-0.6-1.7-1.2-2.3-2.1
		c-0.6-1-0.8-2-0.8-3.2s0.2-2.2,0.7-3.2c0.6-1,1.2-1.7,2.1-2.2c0.9-0.6,1.9-0.8,3.1-0.8s2.1,0.2,2.9,0.7c0.8,0.6,1.5,1.2,1.9,2.1
		c0.4,0.9,0.6,1.9,0.6,3.1c0,0.4-0.1,0.6-0.2,0.9c-0.2,0.2-0.5,0.3-0.7,0.3h-6.4c0.2,0.7,0.4,1.3,0.7,1.7c0.4,0.4,1,0.6,1.7,0.6
		c0.4,0,0.7-0.1,1.1-0.2c0.4-0.1,0.7-0.2,1.1-0.4c0.2-0.1,0.5-0.2,0.7-0.2c0.2-0.1,0.5-0.1,0.6-0.1
		C323.2,282.5,323.5,282.6,323.8,283L323.8,283z M317.3,277.6c-0.4,0.4-0.6,0.9-0.6,1.6h3.8c-0.1-1.4-0.7-2.1-1.8-2.1
		C318.1,277.1,317.7,277.3,317.3,277.6z M335,274.6c0.3,0.3,0.6,0.7,0.6,1.3c0,0.6-0.2,1.1-0.5,1.4s-0.8,0.5-1.7,0.6l-0.7,0.1
		c-0.8,0.1-1.4,0.4-1.7,0.7c-0.4,0.5-0.6,1-0.6,1.7v4.2c0,0.6-0.2,1.2-0.6,1.5c-0.5,0.3-0.9,0.6-1.6,0.6c-0.6,0-1.1-0.2-1.6-0.6
		c-0.5-0.3-0.6-0.8-0.6-1.5v-8.4c0-0.6,0.2-1.1,0.6-1.4c0.5-0.4,0.9-0.6,1.5-0.6s1,0.2,1.4,0.6c0.4,0.3,0.6,0.7,0.6,1.3v0.5
		c0.2-0.7,0.6-1.3,1.3-1.7s1.2-0.6,1.8-0.6h0.4C334.2,274.2,334.7,274.2,335,274.6L335,274.6z M347.7,274.7c0.4,0.4,0.6,0.8,0.6,1.5
		v8.4c0,0.6-0.2,1-0.6,1.4c-0.4,0.4-0.9,0.6-1.6,0.6c-0.6,0-1-0.2-1.4-0.5s-0.6-0.7-0.6-1.3c-0.4,0.6-0.8,1-1.4,1.3s-1.3,0.5-2,0.5
		c-1.6,0-2.7-0.5-3.4-1.3c-0.7-0.8-1.1-2.1-1.1-3.9v-5.2c0-0.6,0.2-1.1,0.6-1.5c0.4-0.4,0.9-0.6,1.6-0.6s1.2,0.2,1.6,0.6
		c0.4,0.4,0.6,0.8,0.6,1.5v5.4c0,1.2,0.6,1.7,1.5,1.7c0.6,0,1-0.2,1.4-0.6c0.4-0.5,0.6-1,0.6-1.7v-4.8c0-0.6,0.2-1.1,0.6-1.5
		c0.4-0.4,0.9-0.6,1.6-0.6C346.8,274.2,347.4,274.4,347.7,274.7L347.7,274.7z M342.4,273c-0.3,0-0.6-0.1-0.7-0.3
		c-0.2-0.2-0.3-0.5-0.3-0.7s0.1-0.6,0.3-0.7l1.8-2.5c0.2-0.3,0.5-0.6,0.7-0.6c0.3-0.2,0.6-0.2,0.9-0.2c0.5,0,0.9,0.2,1.3,0.6
		c0.4,0.3,0.6,0.7,0.6,1.2c0,0.6-0.3,1-0.9,1.5l-2.8,1.8C342.9,272.9,342.6,273,342.4,273L342.4,273z"/>
</g>
</svg>
