<?xml version="1.0" encoding="utf-8"?>
<!-- Generator: Adobe Illustrator 25.3.1, SVG Export Plug-In . SVG Version: 6.00 Build 0)  -->
<svg version="1.1" id="Capa_1" xmlns="http://www.w3.org/2000/svg" xmlns:xlink="http://www.w3.org/1999/xlink" x="0px" y="0px"
	 width="800px" height="600px" viewBox="0 0 800 600" style="enable-background:new 0 0 800 600;" xml:space="preserve">
<style type="text/css">
	.st0{fill:#020203;}
	.st1{fill:#CDCCCC;}
	.st2{fill:#FFFFFF;}
</style>
<g>
	<path class="st0" d="M504.7,327.9c-1.4-0.8-3.2,1.6-2,2.7C504.2,331.3,506,329,504.7,327.9z M498,331.5c1.4,0.7,2.6-1.7,1.7-2.8
		C498,327.4,496.5,330.7,498,331.5z M491.7,331.6c-1.7-0.7-2.1,0.2-1.7,1.6C491.4,333.8,492.4,333.2,491.7,331.6z M525.7,335.1
		c-0.1,1.9-0.6,3.6-1.8,5.2c-2-1.1-3.3-2.5-4-4.4l-2-1.2c0.9,2.9,2,6.7,5.3,7.9c3.3,0.1,3.7-3.9,4.1-6.2c-0.3-0.2-0.5-0.3-0.8-0.6
		C526.3,335.4,526,335.2,525.7,335.1z M517.1,339.4l-0.6-0.4c0.8,3.3,3.9,5.9,7.6,6.3C522.2,343.1,519.7,341.2,517.1,339.4z
		 M486.6,344c0.3,0.6,0.6,1.3,0.9,2c0.8-0.3,2-0.8,3.1-1.2l-2.9-1.6c0.6-1.3,1.3-2.8,1.9-4.1c-1.4,1.3-2.5,3.1-4.2,4
		c-0.6-0.9-1.4-2-2-3.3C482,342.4,483.9,344.9,486.6,344L486.6,344z M539.2,347.1c-0.5,2.1,0.7,4.1,3.6,5.3l0.5,0.3
		C542.4,350.6,541.7,347.7,539.2,347.1L539.2,347.1z M536.3,351.7c0.8,1.1,1.6,2.1,2.6,3.3l0.2,0.1c0.6-0.4,1.4-0.8,2-1.3
		c-0.9-1.1-2-2.1-2.9-3.3C537.7,350.9,536.9,351.4,536.3,351.7z M477.4,358c1.6,1.1,3.3-1.7,2-2.9C477.9,354,476.1,356.7,477.4,358z
		 M550.8,365c-1.6-4-4.4-7-6.8-9.3c0,3.7,2.1,8.2,6.3,9.3H550.8z M478.3,361.6v0.2c1.4,0.3,3.9-1.1,3.7-2.8
		C480.6,358,478.1,360.1,478.3,361.6L478.3,361.6z M517.5,359.6c-0.8,0.8-2,1.6-2.8,2.4c-3.3,0.3-6.8-0.2-10-0.7
		c1.4,2.4,3.9,3.3,6.5,3.2c2.5,0,4.8-0.7,6.7-1.3C517.7,362.2,517.7,360.7,517.5,359.6L517.5,359.6z M541.2,360.4
		c0.2,3.7,3.1,7.2,6.5,8.2c-0.8-3.1-2.8-5.6-6-7.9L541.2,360.4L541.2,360.4z M367.8,362.8c-1.2-0.3-2.5-0.7-3.9-1.1
		c-0.5,2,1.2,2.5,2.6,3.1C366.9,364.1,367.5,363.4,367.8,362.8L367.8,362.8z M502.1,362.7c-3.1,1.6-6.2,0.3-9.3,0
		c1.8,2.1,4.2,3.3,6.9,3.3c0.8,0,1.9-0.2,2.6-0.4C502.3,364.7,502.3,363.5,502.1,362.7z M484.6,363.6c0.6,1.3,1.8,2.3,3.3,2.6
		c2,0.3,4.1-0.3,5.6-1.7l-2-1.6C489.4,364.4,486.9,363.9,484.6,363.6z M537.7,365.5h-0.3c1.1,3.1,3.9,5.3,7,5.7
		C542.9,368.4,540.7,365.2,537.7,365.5z M502.8,369c2.4-0.3,5.9,0.6,5.9-2.9c-2,0.3-4,0.5-5.9,0.7V369z M509,369.6
		c2.8,2,7.2,1.1,7.5-2.7c-2,1.4-4.4,2.4-6.8,2.6L509,369.6z M497.1,367.4c-2.5,0.7-4.8,0.9-7.4,0.8c1.2,3.1,4.5,3.1,7.5,2
		L497.1,367.4L497.1,367.4z M480.2,368.5l0.1-0.3c-2.5-0.6-3.3,2-4,4C478.2,371.7,479.5,370.4,480.2,368.5L480.2,368.5z
		 M496.2,372.9l-0.6,0.4c2.7-0.1,6.9,1.3,7.7-2.4C500.5,371.1,498,371.7,496.2,372.9z M478,375.7l-0.2,0.5c2.4-1.4,4.1-3.3,4.9-5.9
		C480.5,371.4,478.6,373.4,478,375.7L478,375.7z M466.7,371.2l0.1-0.3c-2,0.3-3.6,1.4-4.6,3.3C464.4,374.1,466.5,373,466.7,371.2
		L466.7,371.2z M463.7,378.6c2-0.9,4.1-1.8,5.1-3.9c-1.8,0.4-3.5,0.9-5.1,1.4V378.6L463.7,378.6z M453.7,375.2l-0.2-1.2l-0.3,0.6
		c-1.1,2-0.3,5.9-3.1,6.4c-2.5-0.9-1.3-4.6-2-6.7c-1.2,1.4-1.9,3.7-1.4,5.5c0.3,1.9,2.3,3.9,4.2,3.3c1.2-0.4,2-2,2.5-3.3
		C454.1,378.6,454.1,376.8,453.7,375.2L453.7,375.2z M438.6,385.3c-0.9,3.6-4.6,6.2-8.7,5.9c-2.5-1.3-3.3-4-3.7-5.5
		c2.9-0.3,6-0.4,8.3-2.6c0.1-3.7-4.8-3.1-7.4-2.5c0.8-0.9,1.9-1.6,3.1-2c-0.5-0.3-1.1-0.8-1.8-1.1c0.7-1.1,2.5-1.3,3.3-2l0.6-0.4
		c-1.9,0.2-3.7,0.3-5.5,0.5v3.7l-0.7-0.3c-0.6,4.3-2,9.2,0.3,13.1c3.7,2.4,9.2,0.1,11.5-1.8c1.1,0.7,2.3,1.3,3.3,2
		c-0.9-2-2-4-2.7-5.9L438.6,385.3L438.6,385.3z M478.3,380.2l-0.4,0.6c3.1-0.7,5.6-2.9,7.2-5.9C482.5,375.9,480.2,377.6,478.3,380.2
		L478.3,380.2z M420.5,378.2c-0.9,1.9-2,3.7-4.2,3.7c-0.3-2-0.7-4.2-1.1-6.2c-0.7,2-0.6,4.3-0.4,6.4c0.8,0.9,1.9,2,2.7,2.9
		c3.7-1.8,4-5.7,4-8.4C421.1,377.1,420.9,377.7,420.5,378.2L420.5,378.2z M508.2,381.1l-0.2,0.3c2.5,1.2,4.5-0.9,5.2-3.5
		C511.3,378.3,509.7,379.2,508.2,381.1L508.2,381.1z M462.5,381.5c2.4,0.3,4.6,0.3,6.5-1.7l0.3-0.3
		C466.7,379,464.1,379.7,462.5,381.5z M453.5,384.9c2.3-0.3,5.7-3.1,3.7-5.5C455.8,381.2,454.8,383,453.5,384.9z M399.2,448.1
		c-2.9-1.2-1.9,3.7,0.1,3.6c0.6,0,1.1-0.5,1.1-1.1C400.6,449.6,399.9,448.4,399.2,448.1L399.2,448.1z M391,450.6
		c0.6,0,1.1-0.5,1.1-1.1c0.2-0.8-0.5-2-1.2-2.5C388.1,445.8,389.1,450.8,391,450.6L391,450.6z M530.1,387l-0.4,0.6
		c2.8,1.2,4-1.6,5.1-3.6C532.6,383.6,531.2,385.5,530.1,387z M552.4,386.1c-1.7,0.6-2.4,2.1-2.9,3.7
		C551.5,389.7,553.3,388.1,552.4,386.1z M540.2,390.4c1.6,0.2,2.5-2.3,1.4-3.3C539.7,385.4,538,389.7,540.2,390.4z M451.2,428.1
		c0.4,1.7,4.3,1.4,3.5-0.8C453.9,426.1,451,426.2,451.2,428.1z M519.1,448.1c-0.5-0.6-1.1-1.1-1.6-1.8c0.4-0.7,0.9-1.4,1.4-2
		c-4.3,0.3-8.2,0.3-11.8,0.2c0.3,2.1-0.1,4.6,1.2,6.5c1.2,0,2.4-0.5,3.5-0.8c0.5,0.3,1.4,0.9,2,1.3l2.5-2.4c1.7,1.1,3.7,0.8,5.3-0.8
		c0.6,0.2,1.4,0.3,2,0.5c-0.4-0.4-1.1-0.8-1.3-1.4c2.1,1.4,7.1,4.1,11.4,1.6c2.3-4.1,0.8-8.7,0.3-13.1l-0.7,0.3v-3.7
		c-1.9-0.2-3.6-0.4-5.5-0.5l0.6,0.4c0.9,0.8,2.7,1.1,3.3,2c-0.6,0.4-1.2,0.8-1.8,1.1c1.1,0.4,2.1,1.1,3.1,2
		c-2.5-0.4-7.5-1.2-7.4,2.5c2.1,2.1,5.3,2.4,8.3,2.6c-0.3,1.7-1.2,4.3-3.7,5.5c-3.1,0.1-5.9-1.1-7.5-3.3v-0.5
		c-0.2-0.6-0.2-1.1-0.1-1.8c-0.3,0.1-0.6,0.1-0.9,0.2l-0.3-0.7l-0.2,0.8c-1.1,0.2-2,0.3-3.1,0.4c0.7,0.4,1.4,1.1,2.3,1.6
		C520.2,446,519.8,447.1,519.1,448.1L519.1,448.1z M508.1,440.3c2.5-1.5,4-4.6,3.7-7.8c-1.3,1.6-2.4,3.3-3.7,4.8
		c-1.8,0.2-2.5-1.8-3.6-2.9C504.1,436.7,505.3,438.7,508.1,440.3z M538,435.9c1.9-1.1,2.7-3.3,2.5-5.5c-0.8,1.1-1.7,2.3-2.5,3.3
		c-1.1,0.1-1.7-1.3-2.5-2C535.2,433.5,536,434.9,538,435.9z M406.4,469.4c1.8,0,1.7-2.6,0.5-3.3C404.7,465,404.7,469.1,406.4,469.4z
		 M429.9,499.6c-1.2,0.1-2,1.4-1.1,2.5c0.3,0.4,0.7,0.7,1.2,0.7c0.6,0,1.2-0.4,1.4-0.9C432,500.9,431.1,499.5,429.9,499.6
		L429.9,499.6z M448.8,495.4c-0.1,1.6,0,3.3,0.5,4.9C451.9,499.4,451,496.5,448.8,495.4z M453.4,495.3c-0.4,1.4-0.9,3.1-0.5,4.8
		C455.5,499.5,455.3,496.6,453.4,495.3z M430.5,498.4l-0.2-2.7c-1.1,0.2-2.1,0.3-3.3,0.6c0.3,1.7,2,1.9,3.3,2L430.5,498.4z"/>
	<g>
		<ellipse class="st1" cx="683.6" cy="551.9" rx="94.5" ry="23.3"/>
		<path class="st0" d="M568.2,519.1c-0.3-0.1-0.5-0.2-0.7-0.1c0.1-0.3,0.2-0.5,0.3-0.8c-0.3-1.2,0.3-2.5,1.2-3.3
			c0.5-2,0.5-3.9-1.7-5.1c0.4,3.3-0.4,6.5-2.7,8.8c-3.7-12.4-5.2-24.9-8.5-37.3c-4.3-14.8-7-30.7-8.4-46.8
			c-0.4-4.6-0.8-9.2-4.2-12.6c-1.7-1.2-2.4-3.1-3.2-4.8c-0.7-1.7-1.4-3.3-2.9-4.8l-0.1-0.1c-1.6,0-3.3,0.1-4.9,0.2
			c-0.8,1.7-1.4,3.3-1.7,5.3c-6.5,0.3-13,0.1-19.4,1.4c-1.1-1.8-2.3-3.3-3.3-4.9c-3.7-0.3-7,2-7.7,5.3c-0.7,2.3,0.9,4.1,2,5.9
			c-8.6,11-15.1,27.3-17.8,42.5c-0.4,2.5-0.8,5.1-1.6,7.6c-0.9-2.9-0.8-5.9-1.2-9c-3.2-17-2.5-34.2-3.9-51.4
			c0.3-7.6-0.4-15.4-1.1-22.8c-0.3-3.6-0.7-7.2-0.8-11c-0.1-4.1-2.5-8.2-1.4-12.3c1.1-6.2,1.4-12.4,2.6-18.6
			c5.1,0.7,10.3,1.1,14.4-1.9c1.1,1.4,3.7,4.1,6.5,2c-0.5-0.9-1.1-2-1.4-2.7c0.4-0.4,0.9-1.1,1.4-1.6c0.3,1.3,0.7,2.5,1.3,3.7
			c0.6-2.6,2.3-5.9,0-8.2c1.1-0.5,2-0.9,3.1-1.4c-0.8-0.6-1.8-1.1-2.6-1.8c-1.6,1.4-3.7,1.9-5.6,2.5c-0.3-1.1-0.6-2.6-0.8-3.6
			c3.3-1.4,7.2-1.7,11-0.6c0.7,3.2,0.8,6.7,3.5,8.8c5.3,5.6,13.5,5.9,17.9,5.3c9.8-0.9,15-8.4,12.6-17.5c0.3-0.3,0.9-1.1,1.3-1.4
			c6.2,9.9,10.2,20.2,13.6,30.7c1.8,4.9,3.6,10,4.2,15.4c-18.7,8.5-38.2-10.2-52.6-4c-6.2,4.1-10.7,10-17.2,13.8
			c-3.2,1.6-6.5,2.4-9.8,3.7c0.1,3.6,3.1,6.3,5.9,7.6c2.8,0.5,5.6,0,8.6-0.7c0.6,1.7,0.1,4.1,2.3,4.8c3.1,1.4,5.9-0.4,8.3-2
			c0.3,2.5,0.7,6.7,4.2,6.5c3.5,0.6,5.5-2.5,7.9-4.4c0.4,1.8,0.6,3.7,1.8,5.2c1.1,2,3.6,0.9,5.5,1.1c1.3-1.4,2.6-3.1,4.2-4.9
			c0.7,2.5,1.8,4.6,3.1,6.3h3.2c1.4-1.9,2.9-3.7,4.8-6.2c0.3,2,2,5.9,5.1,4.9c1.3-1.1,2.4-2.5,3.3-3.9c0.8,1.3,1.2,3.3,3.1,3.9
			c1.4,0.7,3.3,0.6,4.1-0.8c4.3-5.3,5.9-12.1,7.7-18.6c1.8,4.6,2.4,9.3,3.3,14l2.3-1.4c-1.2-5.8-2.8-11.3-3.7-17.2
			c0.5,0,1.1,0.1,1.6,0.1c-0.2-0.5-0.3-0.9-0.3-1.4c-0.1-0.4-0.2-0.8-0.2-1.1c-0.5,0-1.1,0-1.5,0.1c-2-9.3-5.1-18.3-7.6-25
			c0.2-0.2,0.4-0.3,0.7-0.4c-0.3-0.7-0.4-1.4-0.3-2.2c0-0.3,0-0.7,0.1-0.9c-0.4,0.3-0.8,0.4-1.1,0.7c-2-4.8-3.7-9.9-5.5-14.8
			c0.3-0.2,0.5-0.2,0.7-0.3c-0.7-0.8-0.9-2-0.8-3.3c-0.3,0.2-0.7,0.2-1.1,0.3c-1.6-2.9-3.3-5.6-4.8-8.4c0.9-0.6,2-1.4,3.3-1.4
			c3.7-0.3,6,3.5,8.7,5.7c-0.3-3.3-3.2-6.2-5.5-7.6c-2.8-1.6-5.7,0.2-8.4,1.1c-1.1-1.4-2-2.9-3.1-4.5c0.6-5.3,0.6-10.2,0.1-14.9
			c0.1,0,0.2-0.1,0.2-0.1c-0.3-0.8-0.3-1.8-0.2-2.6c-0.3,0.2-0.7,0.2-1.1,0.3c-0.2,1.4-0.9,2.8-2.4,3.4c0.4-0.1,0.8-0.2,1.2-0.3
			c-3.1,4.2-5.5,7.6-7.7,10.8c-0.1-0.2-0.1-0.3-0.2-0.4c-0.7,0.8-1.8,1.4-3.3,1.4c-0.5,0-1-0.1-1.4-0.3c-13,1.6-25.9,4.1-38.5,6.5
			c-1.1-1.3-1.9-2.8-2.1-4.4c-4,0.2-6-3.7-8.7-5.9c-0.3,0.8-0.6,1.4-0.9,2.3v0.2c1.3,4.9,4,9.3,5.9,14.2c-1.2,2.8-5.3,3.2-7.7,4.6
			c-0.3,2.5-0.8,5.2,0.1,7.6c1.1,1.6,2.5,2.8,3.6,4.4c-0.1,6-1.3,12-2,18c-0.5-0.6-1.1-1.3-1.7-2c0.3-2.5,0.3-4.9,0.3-7.6
			c-4.2-2-6.9,2.1-9,5.2c-1.7-0.2-3.3-0.3-4.8-0.5c-0.6-1.1-1.3-2.4-2-3.5c2.4-2.5,3.9-5.3,4.4-8.2c-6.5-4.1-14.4,1.7-16.7,3.7
			c-2.1-0.3-4.6-0.3-6.5-1.4c-3.3-1.8-7-2.7-11.4-2.9c-2,0.1-3.3,2-4.6,3.7c0.9-0.2,2-0.3,2.9-0.6c5.3-1.8,9.8,0.8,14.2,3.7
			c-0.6,2.4-1.1,4.6-1.6,6.7c-1.4-0.6-2.9-1.1-4.4-1.7l0.3,2c-1.7-0.3-3.3-0.8-4.8-1.3c1.1-0.8,2.4-1.9,3.7-2.8
			c-2.7-1.7-6.2-2.5-7.7-5.5c-0.6,0.5-1.3,1.1-2,1.6c1.1,1.3,2,2.5,3.1,3.7c0,1.8,0,3.5,0.1,4.9c-2.9,0.2-5.7,0.5-8.6,0.3
			c-0.6-0.3-1.2-0.8-1.8-1.3c-1.1-1.1-2.1-2-3.7-2c-2.8,1.1-3.3,4.4-3.6,7.2c-0.3,5.3-1.1,10.6-1.7,15.8c-0.8,7.1-0.4,14.2-1.4,21.4
			c-6.8-6.2-9.8-15.6-17.6-20.7c-3.3-2.4-7.5-2.5-11.3-3.2c0.1-1.1,0.2-2.1,0.3-3.3c2.1-0.8,4.4-1.7,6.5-2.7
			c-1.6-0.9-3.3-1.9-4.8-2.7c0.2-2.3,0.4-4.6,0.3-7c-0.7-4-3.3-7.6-6.9-9.6c-2.6-1.3-4.9,0.4-7,1.9c-1.2,0.9-3.1,0.2-4.6,0.3
			c0,0.6,0.1,1.7,0.1,2.4c-0.8,1.4-1.3,3.3-1.4,5.2c0.8-0.7,1.6-1.4,2.4-2.3c-0.1,0.2-0.1,0.3-0.2,0.3c0.3,1.1,0.4,2,0.6,3.2
			c1.2,7.5,2,9.9,10,11c0.3,1.4,0.7,2.9,1.1,4.4c-3.3,1.1-5.7,5.5-4.8,8.7c2.7,3.3,7,3.1,10.4,4.6c6.2,8.2,9.5,18,17.3,24.7
			c2.4,2.1,4.8,4.5,8,5.1c-0.1,1.6-0.3,3.2-0.4,4.8c-4.2,0.7-9.3,2.1-12.2,6.2c-3.1,4.1-5.2,8.7-6.2,13.6c-1.6,6.9,0,13.8,0.4,20.6
			c-7.4,0.3-12.8,2-16.8,5.5c-3.3,2.5-4.8,6.4-6.2,10.2c-7.1,1.5-15.4,4-21.3,9.3c-7.7-3.3-16.4-5.5-25.7-6.4
			c0.1,0.8,0.3,1.5,0.3,2.3c13.3,1.3,26.8,5.3,38.5,14.3l1.7-2c-3.4-2.7-7.2-5-11.3-7.1c5.9-3.7,12.9-7.9,20.8-8.4
			c8.4-0.8,17,3.7,21.1,11.1c2,3.7,1.6,8,1.9,12.1c-3.2,0.1-4.8,2.6-6.3,4.9c-1.7,2.5-3.2,4.8-6.3,4.6c-3.6,0.2-6-2.9-9.2-4.1
			c-2.7-0.9-4.6,1.6-5.7,2.9c2,0.5,4-0.7,5.9-1.4c3.7,2.4,7.6,5.3,12.2,4.5c2.3-1.1,3.6-3.2,4.8-5.1c1.2-2,2.4-3.7,4.4-4.8
			c-0.1,3.7-1.7,7-2.1,10.4c1.7-0.2,2-2,2.8-3.3c1.7,3.2,5.5,2.4,8.4,2.5c0.1-0.3,0.2-0.7,0.2-0.9c-3.3,0.4-7.4-0.7-7.9-4.2
			c0.4-3.3,2-6.2,2.1-9.3c0.2-3.1-0.8-6-2-9.2c4.2-1.7,10.3-3.1,15.5-0.4c7.1,2.9,13.1,9.6,15.9,17.9c-0.2,0.2-0.4,0.5-0.6,0.8
			c-5.7,1.2-11.3,3.1-14.3,7.7c1.7-0.3,3.3-0.6,4.8-1.6c6.8-4.5,15.1-4.8,23.3-4.8c5.5,0.1,10.3,2.6,15.5,3.3
			c-0.9-5.9-2.5-11.8-3.3-17.7c1.1,0.9,2.3,2,3.6,3.3c0.3,4.8,1.2,9.8,2,13.8c0.3-0.3,0.8-0.8,1.2-1.1c-0.4-4-0.8-7.9-1.3-12
			c1.2,0.3,3.3,0.2,3.5,1.4c0.5,3.7,0.8,7.6,2,11.3c5.1-4.6,9.3-10.3,15.5-13.3c4-1.9,9-1.8,14.9,0.2c4.4,1.4,7.2,5.2,10.6,8.3
			c-0.4,0.5-0.8,1.1-1.2,1.7c0.5,0.3,1,0.7,1.4,1.1c0.2,0.2,0.3,0.3,0.4,0.4c3.1-2.2,7.1-3.6,11.1-1.5c-0.7,2.6-0.9,4.4-1.1,6.5
			c2.7-3.3,3.7-7.5,6.2-11c3.3-4.8,7-9.6,12.1-12.1c5.6-2.7,13.7-3.3,19.1,1.6c2.9,2.1,5.1,5.1,7.2,7.9c2.6,3.5,5.5,7.1,9.5,9.3
			c1.2,0.3,2.5,0.3,4,0.5l-2,2.9c2.5-0.5,4.5-2,6-4.5c1.9,1.2,3.3,2.4,4.6,3.6C570.8,522.7,569.4,520.9,568.2,519.1L568.2,519.1z
			 M496.3,341.6c0.5,0.4,1.2,1.1,1.8,1.4c-0.3,0.3-0.5,0.6-0.8,0.8c-0.9,1.2-2,2.4-2.3,4c-0.1,0.6-0.3,1.2-0.6,1.4
			c-0.2,0.1-0.3,0.1-0.6,0C491.8,346.5,494.4,343.9,496.3,341.6L496.3,341.6z M550.3,407.8l-1.9-1.3c0.3-0.4,0.6-0.8,0.8-1.2
			c1.1-1.6,2.1-3.2,2.4-5.2c-1.6,1.1-2.5,3.1-3.7,4.5c-0.2-2.1-0.8-5.1,1.2-6.4c2.5-1.9,5.3-4.1,7-7.1c0.3,0.3,0.6,0.7,0.9,1.1
			C555.9,398.6,553.6,403.8,550.3,407.8L550.3,407.8z M558,380c0.5,2.5,0.3,4.9,0.2,7.5c-0.1,0.7-0.2,1.3-0.2,2
			c-0.8,0.4-1.8,0.6-2.7,0.5c-2.7,2.5-5.2,5.5-9,6.2c-0.5-3.3-0.1-6.2,1.3-8.7c-4,2-6.9,5.5-11,7.4c-0.5-3.3-0.3-6.4,0.6-9.3
			c-4.3,2.6-8.4,6-13.5,7.1c0.2-3.3,1.8-6.2,2.3-9.3c-4.3,2.5-8.2,6.5-13.6,6.3c0.1-3.1,1.6-5.5,2.3-8.4c-2.3,0.8-4.5,2.1-6.5,3.3
			c-1.6,0.9-3.2,2-4.8,2.7c-0.8-0.1-2.4-0.1-3.2-0.2l-1.3,2c4.1,2.9,7.9-1.1,11.5-2.8c0.1,1.4,0.2,2.9,0.3,4.4c3.7,3.7,8-0.2,11.5-2
			c-0.2,1.6-0.3,3.3-0.5,4.8c0.6,0.4,1.7,1.2,2.3,1.7c3.7-0.8,6.9-3.1,9.9-5.1c0.2,2.7,0.1,5.7,2.5,7.6c2.6-1.3,4.8-3.3,7-5.1
			c0.2,1.2,0.3,2.7,0.4,4.1l2.5,2.5c-1.3,2.6-2.8,5.5-4.9,7.9c0.3-2.5,0.5-5.2,0.2-7.7c-2,1.4-1.1,3.6-1.1,5.5
			c-2.4-1.1-1.6-4.8-1.9-7.1c-3.7,3.1-4,9-8.4,11.1c0.7-3.5,2.4-6.8,2-10.4l-1.8,1.2c-0.2,2.3-0.3,4.6-1.4,6.7
			c-0.8-2.8-1.3-5.9-1.2-8.8c-2,2.3-3.3,4.8-5.2,7.1c-1.1,1.3-2.4,2.8-4.2,2.5c1.3-3.3,4.3-5.9,4.1-9.8c-2,2-2.8,5.1-4.5,7.6
			c-1.2-2.5-0.7-5.5-0.8-8.3c-3.5,2.8-5.9,8.7-11,8.4c2.4-3.2,5.2-6.2,5.9-10.4c-2.5,2.4-3.6,5.9-6.2,8.2c0.2-2.4,0.4-4.6,0.6-7
			c-2,0.8-3.7,2-5.5,3.3c-0.7,0.5-1.4,0.9-2,1.4c-0.4,0.6-2,1.1-2.8,0.7c-0.3-0.2-0.5-0.4-0.5-0.8c3.5-2.5,7.2-4.8,9-9
			c-2.8,2-5.1,4.6-8,6.5l0.6-3.9c-4.5,0.1-8.3,3.3-12.7,3.3c4-3.5,11-3.3,12.4-9.3c-4.3,3.7-9.8,5.9-14.7,8.5c-0.7-0.8-1.3-2-2-2.9
			c6.4-1.4,12.7-4.8,18.3-9.8c0.1,1.4,0.1,3.3,0.2,4.6c1.4-1.2,1.7-3.1,1.8-4.8c0-0.6,0.1-1.3,0.2-2c3.1-3.7,6.2-5.9,9.3-6.3
			c13.6,0,25.3,9.2,39.1,7.7C552.5,383.1,556.1,383,558,380L558,380z M533.1,345.2c-5.2,3.3-12.5,3.9-20,1.6
			c-3.1-0.8-5.5-3.3-6.5-6.5c-0.6-2.8,2.4-4.4,4.6-5.7c4.5-2.1,8.7-3.3,12.7-3.3c5.2,0.1,12.3,2.1,12.2,8.4
			C536,342,534.8,344,533.1,345.2L533.1,345.2z M476.1,323.9c2.1,1.4,3.7,3.6,5.2,5.7c3.5,0.1,7-0.7,10.4-1.4
			c12.1-2.6,25-5.5,38.5-5.9h0.1c1.4-1.7,2.4-4,4.1-5.5c-0.2,2.1-0.6,4.3-0.4,6.5c0.9,2.3,2.5,4.2,3.7,6.2l-1.4,2
			c-4.6-3.9-11.1-4.6-19.9-2.5c-3.1,0.7-5.7,2.5-8.7,3.3c-0.9,0.9-1.9,2.1-2.9,3.1c-4.9-0.9-9.3-0.8-13.2,0.4
			c-4.3-2.1-7.7-3.2-11.9-2.7C479.9,329.7,477.2,327.1,476.1,323.9L476.1,323.9z M479,336.5l0.2-0.1c3.3-0.1,6.9-0.3,9.8,1.8
			c1.4,0.8,2.7,2.5,2.9,4.1c0.1,0.8,0,2-1.1,2.9c-4.1,4.6-11,3.3-13.8,2.5C477.6,343.9,478,340.2,479,336.5L479,336.5z M548.1,464.1
			c-1.6,2-4.8,5.5-8.7,4.8c-0.7-0.7-1.2-2-0.7-3.1c2-2.7,4.8-4.8,8.2-5.7C547.3,461.8,547.7,462.9,548.1,464.1L548.1,464.1z
			 M537.6,470.9c-3.3,2.6-5.9,5.9-8.7,8.7c1.2-5.9,3.1-11.5,4.5-17.3c3.9-2.7,7.1-6.2,11.3-8.7c-0.6,1.9-1.2,3.7-2,5.5
			c-0.5,0.6-1.1,1.1-1.8,1.6C536.5,463.9,537.1,466.3,537.6,470.9L537.6,470.9z M525,472.2h-0.1c0.1-3.6-4.3-5.7-7.5-4.6
			c-1.4,0.6-2.5,1.7-3.7,2.5c-0.9-2-1.1-4.2-1.2-6.3c6.4-0.2,12.7-0.6,19.1-0.7c-1.8,6-3.5,12.2-5.1,18.3c-3.2,0.8-6.3,1.3-9.3,1.4
			c1.6-2.1,3.5-4.1,4.6-6.7C522.3,474.6,523.9,473.4,525,472.2L525,472.2z M547.5,459c-0.9-0.3-2-0.4-3.1-0.6
			c0.5-1.6,1.3-3.1,2.4-4.2C547,455.5,547.3,457,547.5,459L547.5,459z M471.6,340.3c1.3-0.7,2.7-1.4,4.1-2c-0.2,0.9-0.3,2-0.5,3.1
			c-0.3,1.7-0.6,3.3-0.8,5.1C471.6,345.1,471.4,342.1,471.6,340.3L471.6,340.3z M444.6,355.3c3.1-2.5,6.7-3.5,9.2-3.9
			c0.9,0.4,1.9,0.9,2.7,1.6c-1.6,2.3-3.7,4.1-5.9,5.9c-0.7,0.6-1.4,1.1-2,1.8c1.8,0.3,3.9,0.5,4.8,2c-3.9,1.4-7.6-2.3-11.4-0.5
			C442.6,359.8,442.5,356.8,444.6,355.3L444.6,355.3z M441.8,356.7c-0.4,2.1-0.8,4.4-1.4,6.5c-1.1,0.4-2.3,0.7-3.5,0.8
			C437.2,361.6,438.3,357.5,441.8,356.7z M366.5,376.9c-2-0.5-3.9-1.1-4.5-3.1c-1.8-4.3-1.8-8.8,0.1-12.2c0.8-2,3.1-3.3,5.5-3.3
			c2.7,1.8,7.1,5.6,7.1,11.3c-2-0.2-4.1-0.5-6.2-0.7c-1.1,0.7-1.9,1.6-2.6,2.5c0.4,2,0.8,3.9,1.3,5.7
			C367.1,377,366.8,376.9,366.5,376.9L366.5,376.9z M367.7,372.1c0.1-0.6,0.4-1.1,1.1-1.6c1.6,0.3,3.3,0.4,5.5,0.4
			c-0.1,1.3-0.2,2.7-0.2,4.1c0.3,0.5,1.1,1.4,1.4,2c-1.9,0.3-3.7,0.3-5.6,0.3C369,375.7,367.4,373.8,367.7,372.1L367.7,372.1z
			 M372.6,383c-0.7-0.1-1.4,0-2.1,0.3v-0.2c0-1.1,0.1-2.9,0.2-4.1C372.6,379.1,372.5,381.4,372.6,383z M390.1,415.1
			c-5.9-6.4-8.4-14.9-14.3-21.1c-3.2-1.1-7.6-0.8-9.3-4.2c2.5-4.8,9.2-5.5,14.2-3.7c10.7,4.6,13.8,16.6,22.2,23.7
			c-0.5,3.3-0.7,6.5-0.9,9.8c-0.1,1.7-0.2,3.3-0.3,4.9C396.9,422.5,393.4,418.8,390.1,415.1z M397,496.2c-4.1,0-7.5,0.5-10.4,1.7
			c-1.1,0.8-1.7,0-2-0.9c-2.4-3.9-6-7-10.7-8.7c-3.7-1.4-7.6-0.8-11.3-1.4c4.1-9.2,11-12.5,21.2-12.7
			C396.2,474.6,402.4,485,397,496.2L397,496.2z M419.6,518.5l-1.6-1.3c-0.1-2.8-0.2-5.3-1.4-7.5c-3.6-6.2-9.8-11-17.3-13.6
			c2.4-5.6,0.6-12-0.7-15.2c-2.1-5.5-8-7.2-12.8-9.8c-0.6-4.4-1.1-9.3-1.3-14.9c0.1-9.8,9.5-24.7,20.8-19.9
			c4.8,2.8,6.8,8.8,8.2,13.2c0.9,3.3,2.9,7,1.1,10.3c-3.9,1.1-8,0.3-12,0.6c0.5,0.5,1.1,1.1,1.7,1.8c4.1-0.5,8.4,0.8,12.2-1.6
			l2.4,10.6c-4.8,2-10.6,1.1-14.7-2.5c0-2.6,0.6-5.5-1.4-7.6c-1.9,7.4,1.6,14.4,3.1,21.6l-3.3,0.5c0.3,3.9,3.3,6.2,6.2,8.3
			c1.3,0.9,1.4,0.9,0.8,2.6c-1.2,2.8,1.1,3.6,3.1,4.8c0.1,0.9,0.3,2,0.5,3.3c0.5,0.7,1.2,1.1,2,1.4c1.1,0.5,2,0.9,2,2.1
			c0.2,2,2,2.9,3.5,3.9c0.1,0.7,0.3,2,0.3,2.5c1.3,1.4,2.8,3.1,3.5,4.8C422.6,517.9,421,518.1,419.6,518.5L419.6,518.5z
			 M416.4,474.6l2.6-0.8c1.1,3.3,1.8,6.7,2.5,10.6c-1.9-0.5-4.1-0.5-5.5-2C416.4,480.1,416.6,477.7,416.4,474.6z M414.6,482.2
			c-0.7,0.3-1.4,0.2-2.4-0.3c-0.3-2.5-0.6-4.9-0.8-7.5C415.6,474,414.7,479.3,414.6,482.2L414.6,482.2z M410.1,482.1
			c-0.8,0-2,0-2.7,0.1c-0.8-3.1-1.2-6-2-9.1c1.6,0.4,3.5,0.6,4.1,2.3C410.1,477.6,409.9,479.9,410.1,482.1z M443.6,520.9
			c-4.6-1.8-9.2-2.5-13.8-3.5c-1.4-1.9-5.5-3.1-3.6-5.9l-0.3-0.1c-0.5-0.3-1.4-0.6-2-0.8c2.6-3.3-2.1-3.5-4.6-4.1
			c0.7-0.9,1.3-1.9,2-2.8c-1.9-1.1-4-1.4-6-2c-0.2-1.6,2.1-2.1,2.7-3.6c-2-1.1-4.3-1.9-6.5-2.6c2-1.1,4.1-2,5.2-4.2
			c-4-1.1-8.4-2.1-11-5.6c5.5-0.8,11-0.3,15.5,1.6c-1.1,5.7,0.5,12.3,4.8,19.4c1.4,2.1,3.3,5.3,6.5,4.1c-6.5-5.5-10.3-14.2-10-23.1
			c2.6,0.8,5.6,0.3,8.2,1.3c1.9,8.5,2.3,17.3,2.9,25.9c0.2,1.4,0,3.3,2,3.7c-0.2-11.9-1.7-23.4-2.5-35.2c-1.1-8.4,0-16.3,9.5-18.9
			c12.5,0.1,13.3,13.9,15.4,23.1c-0.4,0.7-0.9,1.6-1.4,2.4c-2.7,0.1-5.9,0.1-9.2-0.7c-1.7-0.3-3.3-1.1-4.9,0
			c-3.5,2.1-3.1,6.8-3.1,10.4C440.6,506.7,442,513.9,443.6,520.9L443.6,520.9z M444.8,504.7c-4.6-4.4-2.7-11.8-2-14.2
			c5.2,0.1,10.4,2.7,15.4,0c0.7,5.1,2.4,9.9,2,15C455.8,508.5,448.8,509.1,444.8,504.7z M457,514.8l-0.1,0.3c0.3,1.9-0.8,3.3-2,4.2
			c-0.6-3.3-1.3-6.2-2-8.7c0.8-0.1,2.3-0.1,3.1-0.2c0.3,1.1-0.4,3.6,1.6,3.3c0.5-1.3,0.6-2.6,0.3-4c1.1-0.4,2.3-0.9,3.6-1.3
			C462.2,511.3,460,514.5,457,514.8L457,514.8z M463.5,509.8c-1.1-4.1-1.3-8.2-1.8-12.2c-0.5-3.1-0.9-5.9-1.4-8.8
			c-0.8-6.2-1.9-12.6-4-18.6c-1.3-3.7-4.5-6-7.6-7.9c3.3-6.2,7.1-10,11.6-11.5c2.4-0.9,5.6-0.4,7,2c2,3.6,2.7,7.7,3.6,11.8
			c0.1,1.2,0.9,3.1-0.3,3.7c-2.6,1.9-6.5-0.9-9,1.7s-2.3,6.5-1.8,9.3c1.1,4.6,2.5,9.2,3.7,13.6c1.3,4.6,2.8,9.3,3.9,14.2
			C466.3,508,465.1,509,463.5,509.8L463.5,509.8z M469.8,506.2c-1.2-5.2-2.8-10.4-4.3-15.4c-1.1-3.7-2.3-7.4-3.3-11.1
			c-0.8-2.6-0.6-5.6,0.4-8.4c3.3-0.4,6.5-0.4,9.8-1.1c2,12,4.8,23.4,6.9,35.4C476,504.8,472.7,505.1,469.8,506.2L469.8,506.2z
			 M480.9,499.5c-2-12.4-4.8-24.4-7.5-36.6c-0.9-4.2-1.9-8.7-4.4-12.4c-1.6-2-3.7-2.5-5.6-2.5c-8.6-0.1-13.3,7.1-16.6,13.6
			c-5.9-0.2-11.5,3.3-14.7,8.6c-0.8,1.4-2,2.6-3.3,3.7c-1.4,1.2-2.8,2.5-3.6,4.3c1.2,0.5,2.5,0.9,3.7,1.4c-0.7,1.7-3.3,3.7-0.6,4.8
			l0.6-0.8c0.4-1.1,1.1-2.1,2-3.3v2.5l-1.3,0.8c0.2,0.8,0.8,1.4,1.3,2c-1.2,0.1-2.5,0.1-3.7,0.2c-6.5-14.2-6.4-30.1-12.6-44.3
			c-2.4-4.8-6.8-7.9-10-9.5c0.9-5.5,1.1-11,1.4-16.4c0.9,0.5,1.8,1.2,2.5,2h3.3c2,4.8,4.8,9.2,7.7,13.3c3.1,4.2,4.8,9.1,10.6,9.3
			c4.3,4.9,8.4,8.3,13.2,9.2c3.3,0.4,7.5,0.8,9.8-2.3c-4,0-8,0.9-11.6-0.7c-7-3.3-12.5-9.3-15-16.4c-1.3-3.5-1.2-7.4-3.3-10.6l2-2
			c3.6,0.1,6.5,2,9.5,3.9c2.4,1.4,4.8,3.2,7.7,3.7c6,1.4,13-0.7,17.6-5.5c-0.2-0.6-0.4-1.6-0.6-2.3c-3.7,2.9-7.1,6.8-12.2,6.9
			c-4,0.2-7.2-2-10.4-3.9c-2-1.2-4-2.5-6.2-3.3c-3.3-0.6-3.3-4.6-4.3-7.1c0.4-0.5,1.1-1.4,1.7-2c-0.1-1.6-0.2-3.3-0.3-4.6v-0.1
			l-0.1-0.1c-1.3-1.2-2.7-2.5-4.1-3.7c-2.1,0.1-4.4,0.1-6.4,1.1c0.3-2.9,0.7-5.9-0.3-8.7c-0.6,3.1-0.8,6.2-1.1,9.2
			c-1.6-0.1-3.3-0.6-4.8,0.1c-1.7,1.2-2.5,3.2-2.5,5.5c-0.6,0.8-1.2,1.9-1.9,2.8c-0.8-10.6,0.7-20.9,1.4-31.2
			c0.2-4.4,1.4-8.6,1.4-13c1.2,1.2,2.3,2.8,3.1,4.6c13.3-3.1,26.8-2.9,40.5-3.5c3.7,0,7.4,0.9,11.1,0.3c0.8-1.3,0.5-4.1,2.4-4.2
			c0.1,2.5-0.4,5.2,1.1,7.4c3.7,5.3,4,12.1,5.3,18.2c0.9,5.1,0.2,10.3,0.6,15.4c0.4,6.2,1.1,12.4,0.8,18.7c0.4,12.7,2,25.1,2.7,37.7
			c0.5,7.6,1.1,15.4,2.5,23.1c0.1,3.2,0.6,6.2,1.1,9.3c0.5,3.6,1.1,7.4,1.1,11.1C481.6,501.8,481.1,500.6,480.9,499.5L480.9,499.5z
			 M430.7,478.2c-1.3-0.3-2.5-0.6-3.6-0.9c1.1-0.9,2.3-1.8,3.5-2.5C430.7,475.9,430.7,477.1,430.7,478.2L430.7,478.2z M409.8,404.9
			c1.1-2.4,3.3-3.7,5.9-2.9c-0.8,1.4-1.8,3.1-2,4.8c0.3,2,1.3,3.7,2.1,5.5c-1.9,2.1-3.7,4.6-6.9,4.1c-0.7-1.4-1.7-3.1-1.1-4.8
			c0.3-3.5,3.9-5.1,5.9-7.6C412.4,404,410.9,404.5,409.8,404.9L409.8,404.9z M420.5,420.7c0.8,0.4,1.8,0.8,2.6,1.2
			c0.4,2.8,0.7,5.6,1.6,8.4c0.7,2.4,2.1,4.4,2.7,6.9c-1.7-1.3-2.8-3.2-4-4.8c-0.5-0.8-1.1-1.9-1.8-2.6c-2.8-4-4.9-8.2-7.6-12.1
			c1.6-4.8,6.8-6.4,11.3-5.9c0.3,1.3,0.8,2.9,1.3,4.5c-3.1-0.1-4.9,2.4-6.4,4.5h0.3L420.5,420.7L420.5,420.7z M424.8,410.1
			c-2.8,0.3-5.1,0.5-7.1,0.9c-0.9-1.4-2.4-3.3-2-5.1c0.8-1.9,2-3.3,3.2-5.1c1.3-0.1,2.6-0.3,4-0.2c2,0.9,3.1,3.1,4.1,4.8
			C426.1,407,425.4,408.5,424.8,410.1z M507.6,517.1c-3.5-2.1-7.9-2.1-11.5-0.1c-2.5-5.2-6.3-8.7-10.8-9.9c-0.6-4.6-1.8-9.2-2-13.9
			c-0.2-4.8-1.9-9.3-2-14.2c6.7-1.3,12.2,5.1,13.2,11.4c-2,0.7-3.6,2-4.8,3.7c6.5-1.3,8.8-2.9,14.4,2c-2,1.1-3.6,3.7-6.2,3.3
			c-2.1-0.4-3.6,1.3-4.6,2.7c2.7,0.2,6.2-1.1,8,1.4c-0.2,0.8-0.9,1.2-1.8,1.7c-1.1,0.5-2.1,1.3-2.3,2.8c2.5-0.8,5.6-1.1,8.8-1.1
			c-1.1-0.9-2.1-2-3.3-2.8c-0.5-1.4-1.1-2.9-1.7-4.1c3.6-3.1,8-1.2,11,1.1c-0.8-1.4-1.6-2.6-2.6-4c-2.3-0.2-4.1-1.7-5.3-4.6
			c7.1-1.7,11.1-0.1,16,4.8c0.9,0.8,2,1.8,3.1,2.5c0.1-4.5-3.7-6.9-7-8.8c4.3-3.3,10.3-4.1,15.4-2c5.1,2.3,7.4,7.5,8.3,10.6
			C524.2,495,513.9,504.2,507.6,517.1z M549.5,506.9c-2.1-2.5-4.8-4.5-7.5-6.5c-0.8-5.7-4.6-12.4-11.3-14.3
			c-5.3-1.9-12-0.5-17.2,3.3c-1.2,0.3-2.5,0.3-3.7,0.3c-2.3,0.1-4.6,0.2-6.7,1.7c-2.1-0.9-4.8-1.7-7.6-2.1
			c0.3-6.4-4.8-11.1-9.8-12.8c2.1-20.2,9.2-37.7,20.2-50.9c-1.6-1.8-3.3-3.9-3.1-6.5c2.6,0.3,4.2,2.5,5.9,4.4c9.1,0,17.9-2,27-0.9
			c-0.9-2.3-3.9-4.9-1.6-7.2c2.1,1.2,4.6,3.3,4.5,6.5c2.1,2,4.8,5.1,5.3,9.2c0.2,3.1,0.4,5.9,0.7,8.8c0.2,3.1,0.4,5.9,0.7,9
			c-0.2,0.6-0.6,1.6-0.8,2.3c-1.7-0.9-3.3-1.9-4.8-2.8c0.9,1.1,2,2.4,2.9,3.5c-2.6,2-5.5,4-7.7,6.4c-0.3-0.3-0.7-0.6-1.1-0.8
			c1.8-1.9,2.8-3.6,3.7-5.7c-2,1.9-3.7,3.9-5.5,5.9c0.1,0.6,0.3,1.6,0.3,2.3c-1.1-0.1-2-0.3-3.2-0.3c0,0.5,0.1,1.1,0.2,1.7
			c-5.3,0.1-10.6,0.2-15.9,0.7c-0.8,0.1-2,0.2-2.6,0.8c-0.3,0.3-0.3,0.6-0.3,1.1c0,2.6,0.7,5.2,1.4,7.1c-3.3,2.4-6.2,5.9-10.4,5.9
			c-2-2-4.1-3.6-6.4-4.8c0.8,2.8,3.1,5.5,5.5,6.5c4.1,2,7.7-1.7,10.8-4.1c2-1.7,4.1-3.3,6.7-4.4c1.2-0.5,2.5-0.2,4.1,0.8
			c-2.1,2.4-2.8,5.6-5.1,7.9c-2.5,2.8-6.7,3.3-9.6,5.7c2.6,1.4,5.1,0,7.2-1.1c0.6,0.9,1.1,1.7,1.6,2.4c4.6-1.4,10.6,0.4,13.8-4
			c2.6-3.3,5.9-7.1,9.8-9.9c3.9-0.4,7.1-2.6,9.1-6c4.3,17.8,7.2,35.5,11.4,53.2C555.9,516.2,553.2,511.1,549.5,506.9L549.5,506.9z"
			/>
		<path class="st0" d="M393.4,448.8c-0.9,0.7-1.4,1.9-2,2.8c-1.9,0.1-3.7,0.1-5.6,0.1c1.3,1.4,3.2,1.8,4.8,1.8c0,2,0.2,4.1,0.6,6.2
			c2.6-0.7,3.6-3.3,4.6-5.5c-0.3-0.6-0.5-1.3-0.8-2L393.4,448.8z"/>
		<path class="st0" d="M393.4,453.9c-0.4,0.9-0.7,2-0.8,3.1h-0.1c-0.5-0.8-0.5-2.9-0.1-3.9c0.3-0.7,0.6-0.6,1.2,0.2L393.4,453.9
			L393.4,453.9z"/>
		<path class="st0" d="M414.7,466.4c-2-1.4-3.2,3.2-0.8,3.3C415.3,469.6,415.8,467.2,414.7,466.4z"/>
		<path class="st0" d="M429.2,492.2c-1.4-0.4-3.2-1.1-4.8-1.4c0.3,1.4,1.7,3.2,3.2,3.2C428.1,493.9,428.9,493.5,429.2,492.2
			L429.2,492.2z"/>
		<path class="st0" d="M442.3,473.1c0,0.8,0.1,2.1,0.2,3.1c-1.6-0.5-3.1-1.1-4.6-1.6c0.9,1.7,2.1,3.3,3.3,4.3l0.2,0.2
			c0.8-0.8,1.7-1.7,2.5-2.5c0-1.2-0.1-2.5-0.1-3.7C443.2,473.1,442.8,473.1,442.3,473.1L442.3,473.1z"/>
		<path class="st0" d="M645,503.7c0.3-0.2,0.7-0.2,1.1,0c0.3,0.2,0.5,0.3,0.8,0.4l-3.1-2C644.2,502.6,644.7,503.2,645,503.7
			L645,503.7z"/>
		<path class="st0" d="M455.3,461.3c-2,0.3-3.3,0.1-3.3-2c-4.4,3.6,3.7,3.2,1.9,6.5h0.8v1.1c1.6,0,3.3,0,4.8,0.1
			c-0.3-2.5-0.3-4.9-0.9-7.6C456.9,458.5,456.2,460.2,455.3,461.3L455.3,461.3z"/>
		<path class="st0" d="M455.1,465.7c0.3-1.7,0.9-2.9,2-3.3c0.2,1.1,0.3,2.1,0.3,3.3C456.8,465.5,455.7,465.7,455.1,465.7z"/>
		<path class="st0" d="M496.7,448.1c-1.6,0.5-0.7,2.3,0.4,2.8c0.6,0.3,1.2,0.1,1.6-0.3C499.7,449.3,498,447.6,496.7,448.1z"/>
		<path class="st0" d="M462.1,456.4c-0.4,0.3-1.1,0.8-1.6,1.2c0.3,0.4,0.4,0.9,0.7,1.4c0.3,0.6,0.5,1.1,0.8,1.8
			c2,0.2,4.1-1.1,5.1-2.9c-1.1,0.3-2.3,0.7-3.5,1.2L462.1,456.4z"/>
		<path class="st0" d="M510.2,451.6c2,2.5,4.6,1.9,7.5,1.8c3.3-0.3,7.1-0.7,9.3-3.7c-1.4,0.3-3.1,0.7-4.6,1.1
			C518.4,451.7,514.3,452.7,510.2,451.6z"/>
		<path class="st2" d="M574.5,522c0.2-5,0.1-10.1-0.7-15c-1.1,1.9-2.1,3.7-3.3,5.6c-0.8-0.1-0.8-0.2-1.7-0.2
			c-1.4-4.6-2.7-9.2-2-14.1c-1.9,0.1-3.7,0.2-5.5,0.3c4.6-6.4,8.4-13.8,8.8-21.7c0.7-7.5,3.7-14.8,2.5-22.3
			c-1.1-4.5-3.3-8.6-4.3-13.2c-3.1-14.3-2.4-29-0.7-43.4c-2.5-3.1-7.2-2.7-11-3.3c0.3-0.7,0.8-2,1.1-2.6c-1.8-1.7-4.3-2.9-4.8-5.4
			c-0.1-0.4-0.2-0.8-0.3-1.1c-2-4.6-2.5-10.6-2.2-17c-0.5-8.7,0.2-17.7,2.3-26.2c1.7-5.3,4.2-9.9,7.3-14.3c0.8-1.2,1.8-2.4,2.7-3.5
			c-0.5-2.8-0.8-5.6-0.7-8.5c0.1-0.7-0.2-1.1-0.3-1.5c0.5-0.2,0.9-0.3,1.4-0.3h0.1c-0.3-2.8-0.8-5.6-1.1-8.4
			c1.1,1.1,2.4,2.1,3.5,3.2c2.4,2,5.9-1.4,3.5-3.5c-5.9-4.8-10.9-10.6-15.4-16.7c-3.1-4.2-6-8.5-8.7-13.1c-0.3-1.1-0.5-2.4-0.8-3.4
			c0.3-0.5,0.5-1.1,0.3-2c-0.5-1.3-0.8-2.5-1.2-3.9c-0.2-0.8-0.2-1.8-0.2-2.5l-0.5-0.3c-1.4-5.9-2.4-11.8-2.7-17.7
			c2.5-7,6.1-13.6,7.7-20.8c0.3-1.1-0.3-2-1.1-2.6c2.5-2.5,4.8-5.1,6.1-8.4c4-8.3,2-17.7,3.7-26.4c0.3-2.2,1.1-4.3,1.9-6.5
			c-0.3-0.2-0.5-0.3-0.7-0.5c0.1-0.8-0.1-1.5-0.3-2.3c-0.1-0.2-0.2-0.3-0.2-0.3c-0.7-0.9-1.1-2.2-1.5-2.9c0-0.1-0.1-0.2-0.1-0.2
			s0.1-0.1,0.2-0.1c-0.1,0-0.1,0-0.2,0.1l-0.3-0.7c-0.3-0.4-0.7-0.8-1-1.1c-0.8-0.8-1.5-1.4-2-2c-0.6-0.7-1.1-1.4-1.6-2.2
			c-0.3-1.4-0.6-2.8-0.8-4.3c-0.5-1.1-0.8-2.4-1.1-3.6c-0.8-4.5-0.7-9.8,1.8-13.8c1.4-5.5,4.2-10.6,8.7-14.6
			c0.2,0.1,0.3,0.2,0.4,0.2c-0.2-0.1-0.2-0.2-0.3-0.3c5.8-0.9,12.3-3.3,17.7-0.1c2.5,1.2,4.8,2.7,7.7,2.2c0.7,0.3,2,1.1,2.7,1.4
			c1.9,2.5,3.7,4.8,5.4,7.5c18.9-9.4,41.2-12.4,61.8-7.7c1.1,0.7,2.4,1.1,4,1.1h0.4c0.5,0.2,1.1,0.3,1.6,0.4v-0.7
			c1.3-0.3,2.4-1,3.1-1.9c2.6-0.6,4.3-2.4,4.9-4.6c3.7-2.9,7.7-5.3,12-7.1c4.8,0.8,10.4,1.5,13.8,4.8c0.9,0.2,1.6,0.7,2,1.4
			c0.3,10.2-1.8,20.2-3.2,30.5c-1.7,2.1-3.6,4.2-5.9,5.7c-2.6,1.8-0.2,6,2.5,4.3c0.8-0.6,1.8-1.1,2.5-1.9c-0.4,4.9,0.1,9.9,1.9,14.7
			c2.1,5.5,5.5,10.5,8.4,15.7c0.6,1.1,1.6,1.4,2.5,1.1c1.9,1.7,3.8,3.1,5.9,4.5c1.4,0.3,3,0.5,4.4,0.8c0.1,0.8,0.1,1.7,0.2,2.4
			c0.3,0.2,0.4,0.3,0.7,0.5c1.4,1.1,2.9,2.4,4.3,3.7c0.9,2.4,1.8,4.8,2.5,7.1l-0.4-0.3c0.2,0.3,0.3,0.5,0.6,0.8c2,7.4,3.6,15,4.3,23
			c-0.6,5.5-0.7,11,0.1,16.4c-0.2,1.3-0.3,2.5-0.3,3.7c-0.2,1.4-0.3,2.7-0.6,4.1c-3.1,6.9-7.3,13.5-13.2,18c-2.5,2,1,5.5,3.5,3.5
			c0.6-0.5,1.1-0.9,1.8-1.4c-4.2,5-9.2,9.8-11,16.3c-0.3,1.3,0.6,2.7,1.9,3.1c-0.2,1.4-0.4,2.9-0.5,4.3h0.1c0.8,0.3,1.5,0.5,2.4,0.7
			c-0.5,0.8-0.6,1.7-0.3,2.6c3.3,3.3,6.2,7,8.4,11.1c8.1,14.2,9.4,31.7,4.6,47.1c-1.1,3.7-3.6,6.5-6.2,9.1c-1.3,1.8-2.8,3.3-4.6,5
			c3.8,15.2,4.8,31.4,1.8,46.9c-1,6.1-5.9,11.2-4.9,17.7c-0.2,9.8,4.3,18.6,6.9,27.7c1.7,6.2,4,12.1,6,18.3
			c-1.9-1.6-3.7-3.3-5.5-4.8c0,3.7-0.1,7.3-0.3,11c-2.3,3.6-3.1,7.7-3.3,12c5.3,0.2,10.8-0.2,15.5,2.6c5.4,3.5,9.9,8.5,12.5,14.3
			c2,8.9,5,18.1,2.9,27.3c-4.8,7-13.9,8.2-21.5,10.7c-8.1,3-16.6,2.7-24.9,4.7c-14.7,2-27.8-6.1-41.8-8.9c-3.7-4.3-8.7-7-13.1-10.5
			c-5.9,4.9-11.5,10.4-18.9,12.8c-10.4,3.7-20.5,7.6-31.2,10.2c-13,2.9-25.6-3-38.4-4.6c-4.9-3.2-12.8-5-13.6-12.1
			c-0.1-9.3,2.8-18.5,6.3-27C554.7,526.5,564.7,521.6,574.5,522L574.5,522z"/>
		<path class="st0" d="M682.8,190.1c-8.3,4.8-17.7,5.8-26.7,6.8c-3.3-8.3,3.7-7,6.5-8.1c8.2-1.7,15.8-5.5,23.3-9.4
			c1.3-0.8,2.5,0.5,3.7,1.1c0.5,3.1-0.2,5.9-1.5,8.4C686.4,189.7,684.5,189.2,682.8,190.1L682.8,190.1z M668.3,275
			c0.1-0.1,0.1-0.2,0.2-0.3C668.4,274.9,668.4,275,668.3,275z M611.4,285.2c4.6,8.7,11.9,15.9,21.9,16.9c6.5,0.4,12.5-1.4,17.6-4.6
			c-5.4,4.1-12,6.2-19.4,5.9c-9.8-1-17.2-7.8-21.7-16.4C610.4,286.4,611,285.8,611.4,285.2L611.4,285.2z M606.9,288.9
			c-0.1-0.2-0.2-0.3-0.2-0.5c0.5-0.2,1.1-0.3,1.5-0.5C607.8,288.2,607.5,288.6,606.9,288.9L606.9,288.9z M661.6,290.3
			c-0.6-0.5-1.1-0.9-1.8-1.4c0.4-0.6,0.8-1.1,1.2-1.9l0.1,0.1c0.7,0.7,1.4,1.3,2.2,1.9c-3.3,5.4-7.6,10.1-13.1,13.8
			C655,299.4,658.8,295.1,661.6,290.3z M641,288c-4.6-0.3-9.9-0.1-13.6-3.7C632.1,284,638.1,283.5,641,288z M644,275.7
			c-9.2,0.8-18.3,0.5-27.3-0.8c-2.3-0.3-1.3-3.1,0.9-2.7c6.9,1,13.6,1.4,20.5,1.1c3.5-0.2,7-0.5,10.6-1c2.4-0.3,5.5,0.2,5.4-3.1
			c0.3-1.8,3.8-1,3.4,0.8C657.5,276.4,648.4,275,644,275.7L644,275.7z M616,156.9c2-0.3,4.2-0.7,6.4-0.8
			C620.4,156.9,618.3,157.1,616,156.9z"/>
		<path class="st0" d="M535.9,259.5c1.9,0.7,3.7,1.4,5.5,2c0.3,7.7,3.4,14.9,4.2,22.5c0.7-0.2,2-0.5,2.5-0.8c2.9,4.2,5.6,8.7,8.6,13
			c-0.6,0.2-1.1,0.2-1.8,0.3c-0.3,0.3-0.7,0.6-1,0.8c1.3,0.2,2.7,0.2,4,0.5c0.8,1.1,1.8,2.4,2.7,3.4c0.3,3.7,1,7.3,1.4,11h-0.1
			c-0.4,0.2-0.8,0.3-1.4,0.3c0.3,0.4,0.4,0.9,0.4,1.6c-0.2,3,0.3,5.9,0.8,8.6c-0.9,1.1-1.9,2.4-2.7,3.6c-3.2,4.5-5.8,9.3-7.3,14.5
			c-2.1,8.7-2.7,17.7-2,26.6c-0.3,6.5,0.3,12.6,2.4,17.2c0.1,0.4,0.2,0.8,0.3,1.2c0.5,2.5,3.2,3.7,4.8,5.4c-0.3,0.7-0.8,2-1.1,2.6
			c3.7,0.7,8.5,0.3,11,3.3c-1.7,14.5-2.2,29.4,0.9,43.7c1.1,4.6,3.3,8.7,4.4,13.2c0.7,4.6-0.1,9-0.8,13.4c-1.7,5.1-2.6,10-2.5,15.4
			c-1.5,5.7-4.4,11-7.7,15.8c1.9-0.1,3.7-0.2,5.6-0.3c-0.5,4.8,0.8,9.6,2.2,14.2c0.8,0.1,0.8,0.1,1.7,0.2c1-2,2-3.8,3.3-5.7
			c0.8,5,0.8,10.2,0.8,15.3c-9.9-0.3-20,4.6-26.7,11.7c-3.4,8.7-6.2,18-6.2,27.3c0.7,7,8.7,8.9,13.7,12.1
			c12.8,1.5,25.6,7.2,38.7,4.3c10.7-2.6,21-6.9,31.4-10.5c7.4-2.5,13.2-8.2,19-13.2c4.5,3.4,9.5,6.2,13.2,10.5
			c14.1,2.7,27.5,10.8,42.2,8.7c8.3-2,17-1.9,25.1-4.8c7.5-2.7,16.7-4,21.6-11c2-9.3-0.9-18.6-3.1-27.5c-2.7-5.9-7.2-11-12.7-14.4
			c-4.8-2.7-10.4-2.4-15.7-2.5c0.3-4.2,1.1-8.4,3.3-12.1c0.2-3.7,0.3-7.4,0.3-11.1c1.9,1.6,3.7,3.3,5.5,4.8
			c-2-6.1-4.6-12.1-6.2-18.3c-2.5-9.3-7.1-18.1-7.1-27.9c-1.1-6.5,4-11.6,4.8-17.8c3-15.7,2-32-2-47.3c1.8-1.7,3.3-3.3,4.6-5.1
			c2.6-2.6,5.2-5.5,6.2-9.2c4.8-15.6,3.3-33.3-4.8-47.5c-2.2-4.2-5.3-7.7-8.6-11.1c-0.3-1-0.2-1.9,0.3-2.6c-0.8-0.3-1.8-0.5-2.4-0.7
			c0,0-0.1,0-0.1-0.1c0.4-3.9,1-7.7,1.4-11.5c1.8-2,3.4-4,5.1-6l2.4-0.3c-0.3-0.3-0.8-0.7-1.1-1.1c-0.1,0-0.1,0-0.2-0.1
			c1.7-2,3.3-4.1,4.7-6.3c5.5-13.2,9.1-27.2,8.2-41.4c0.8-0.1,2.5-0.1,3.3-0.2c-1.5-9.3-4.8-18.3-10.4-26c2.2,1.2,4.5,2.4,6.8,3.5
			c-3.1-5.9-8.2-10.1-13.2-14.3c-0.3-0.2-0.4-0.3-0.7-0.5l-0.2-2.5c-1.4-0.3-3.1-0.5-4.5-0.7c-4.8-3.3-9.6-6.8-12-12.2
			c-2.2-5.2-3.7-10.6-5.5-16h0.2c-0.3-0.7-0.3-1.4-0.3-2.1c0.1-0.7,0.2-1.4,0.3-2c0.1-0.3,0.2-0.5,0.3-0.7c-0.7-0.9-0.7-2.1,0.2-3.3
			c5.7-7.6,9.2-18.7,7.6-28.1c-0.5-3.3-1.8-6.2-3.2-9.2c-0.7,0.1-1.3,0.2-2,0.3c-0.2-1.4-1.1-2.6-2.7-3c-3.7-3.3-9.3-4-14.1-4.8
			c-4.2,2-8.4,4.3-12,7.2c-0.7,2.2-2.4,4.1-5,4.7c-0.8,0.8-1.9,1.5-3.2,1.9v0.7c-0.5-0.2-1.1-0.3-1.6-0.4h-0.4c-1.6,0-3-0.4-4.1-1.1
			c-20.8-4.6-43.3-1.4-62.2,8.2c-1.9-2.5-3.7-4.9-5.5-7.5c-0.7-0.3-2-1.1-2.7-1.4c-2.9,0.5-5.4-1-7.8-2.1c-5.5-3.2-12.1-0.8-18,0.2
			c0.2,0.1,0.2,0.2,0.3,0.3c-0.2-0.1-0.3-0.2-0.4-0.2c-4.6,4-7.4,9.2-8.7,14.9c-2.4,4.1-2.5,9.4-1.6,13.9c0.3,1.3,0.7,2.5,1.1,3.7
			c0.3,1.4,0.5,2.9,0.8,4.3c0.5,0.8,1.1,1.5,1.7,2.2c0.4,0.5,1.2,1.1,2,2c0.4,0.4,0.7,0.8,1,1.1l0.3,0.7c0.1,0,0.1,0,0.2-0.1
			l-0.1,0.1c0.1,0.1,0.1,0.2,0.1,0.2c0.3,0.7,0.9,2,1.6,3c0.1,0.2,0.1,0.3,0.2,0.3c0.3,0.8,0.3,1.5,0.3,2.3c0.3,0.2,0.5,0.3,0.7,0.5
			c-0.8,2-1.5,4.2-1.9,6.5c-1.6,8.8,0.3,18.3-3.7,26.7c-2.5,6.1-8.2,9.9-12.1,15l5.2-0.3c-1.8,2.9-3.3,5.9-4.6,8.9
			C538,242.4,535.5,251.9,535.9,259.5L535.9,259.5z M698.3,143.8v-0.2c0.1,1.3-0.1,2.5-0.3,3.9c-0.1-0.3-0.1-0.7-0.2-1
			C697.6,145.5,697.7,144.5,698.3,143.8L698.3,143.8z M703.6,198.8c-3.1-0.5-6-1.1-9.1-1.4c-4.2-0.5-8.5-0.8-12.8-0.5
			c-5.5,0.3-11,1.3-16.4,2.2c-5.5,1-10.9,2.7-16.4,3.8c-3.7,0.8-20.4,2.8-24.2,2.9c-0.8-0.1-1.6-0.1-2.4-0.2c-7-0.5-13.7-1.9-20.5-3
			c1.9-0.5,3.7,0.3,5.5-0.1c1.9-1.6,3.1-3.7,3.1-5.9c-1.1-0.7-2.1-1.9-3.7-1.4c-8.4,1.6-16.8,3.3-25.5,3.1c-3,0.3-9.8-1.8-8.2,4.3
			c-1.7,0.3-3.3,0.6-4.8,0.9c-4.1,0.9-7.8,2.5-12,3.3c-0.5,0.1-0.9,0.2-1.4,0.3c2-8.6,1.3-18.4,3.7-26.9c-0.1-0.7,0.2-1.4,0.6-2
			c0.4-0.6,0.7-1.1,0.9-1.8l-0.7-1.4c1.5-0.8,3.1-2,3.8-2.5c1.3-0.8,2.5-1.9,3.8-2.7c1.1-0.8,3.4-1.9,4-3.1l0.3-0.7
			c-0.2-0.4-1-1.1-1.8-1.7c0.1,0.1,0.1,0.2,0.2,0.2c-0.2,0-0.4,0.1-0.7,0c-1.4-0.8-2.5-1.8-3.4-3c0.5,1.1,1.2,2,2,3.1
			c-0.5,0-1-0.1-1.4,0.1c-1.8-1.1-3.3-2.6-4.6-4.4c-0.8-0.9-1.3-2-2-3.1c0.2,2.5,1.4,4.8,2.4,7c-5.1-4.2-7-11-7.6-17.2
			c-0.6,2.7-0.2,5.6,0.1,8.4c-1.9-4.2-1.9-9.1-0.8-13.6c-0.2-0.4-0.2-0.8-0.3-1.2c-0.2,0.2-0.3,0.3-0.3,0.5c1.1-2.6,3.1-4.9,5.8-6.7
			c0.8-0.6,1.9-0.7,2.5-0.4c6.7-3.1,16.6-0.8,21.6,4.8c0.7,0.3,1.4,0.5,2,0.8c0.5,0.2,0.8,0.4,1.1,0.7c0.3-0.5,0.5-1,0.8-1.4
			c0.8,2.8,2,5.5,3.2,8.2c0.5-0.5,1.3-0.8,2.2-0.8v-2.8c4.8-3.1,10.4-4.6,16-5.3c0.3,0.3,0.5,0.7,0.8,1c1.4-1.1,3.1-2,5.2-2.5
			c1-0.3,2-0.3,3.1-0.4l-0.3-0.2c13.5-3.3,27.8-3.7,41.1,0.3c0.2,1.1,0.4,2,0.6,3.1c0.5-0.4,1.3-0.7,2.1-0.7h0.3l0.7-2.3
			c0.8-0.1,2.4-0.3,3.2-0.3c0.2-0.8,0.4-2.7,0.5-3.6c4.8-4.3,9.6-11,17-10.4c3.1-0.3,5.8,0.7,8.3,2.1c-0.2,0.1-0.2,0.2-0.3,0.3
			c-0.3,0.1-0.7,0.1-1.1,0.1c1.2,1.4,2.4,3.1,3.3,4.6c0,0.2-0.1,0.3-0.1,0.3c0.7,1.1,1.2,2.4,1.4,3.7c-0.5-0.8-1-1.5-1.7-2.1
			c-0.2,0.4-0.2,0.8-0.3,1.2c0.9,4.6,1,9.3-0.8,13.6c0.2-2.8,0.7-5.7,0.1-8.4c-0.7,6.2-2.5,13.2-7.6,17.2c1-2.3,2.1-4.6,2.4-7
			c-0.8,1-1.3,2-2,3.1c-1.2,1.8-2.8,3.3-4.6,4.4c-0.5-0.2-0.9-0.1-1.4-0.1c0.8-0.9,1.5-2,2-3.1c-1,1.1-2,2.1-3.4,3H676
			c0.1-0.1,0.1-0.2,0.2-0.2c-0.7,0.5-1.6,1.2-1.8,1.7l0.3,0.7c0.5,1.2,2.9,2.3,4,3.1c1.3,0.9,2.5,1.9,3.8,2.7s4.6,3.3,6.4,3.5
			c-0.5,0.5-0.9,1-1.4,1.5c0.7,0.5,1.4,1.1,2,1.7c2,5.5,3.5,11.1,5.3,16.6C696.6,191.1,699.9,195.2,703.6,198.8z M605,234.8
			c3.3-1.4,6.4-3.3,9.8-4.2c0.5-0.3,0.9-0.4,1.4-0.6l0.5-0.2l-1.1,2.5c-3,2.4-5.3,5.2-6.9,8.4c-0.3,0.8-0.5,1.8-0.8,2.5
			c-1.7,1.4-3.3,2.5-5.3,3.4c-5.9,2.8-12.7,3.3-19,2.4c-1.5-0.3-3.1-0.5-4.6-0.9c-2.7-0.8-5.3-2.4-7.1-4.4c-1.9-1.9-3.3-4.2-4.2-6.6
			c-2-5.5-3.7-11.2-4.1-17.2c-0.1-2-0.3-4.2,0.5-6.1c0.8-2.2,2.5-4.1,4.6-5.2c3.1-1.8,6.5-2.4,9.8-3.1c6.2-1,12.5-1.8,18.8-1.4
			c1.4,0.2,3.1,0.3,4.5,0.5c3.3,0.6,6.9,1.4,9.9,2.7c2.4,1,4.8,2.4,6.2,4.6c1.2,1.8,1.8,3.8,1.8,5.9c-3.7,0.3-7.6-0.5-11.3-1.6
			c-13.2-3.7-34.5-13.2-40.8,5.7c3.1-2.1,8.4-4.4,10.4,0.3c2.7,6.4,5.3,13.2,12.1,16c-1.5-2.2-3.7-4.1-4.3-6.9
			c2.4,2.2,4.2,5.3,7.3,6.5c-2.2-3.1-5-5.7-5.9-9.6c2.4,2.6,4.2,5.9,7.1,7.8c-1.1-2.2-2.7-4.2-3.4-6.6c7.7,5.5,11.7,1.9,19.7,0.5
			C608.8,231.8,606.5,232.8,605,234.8L605,234.8z M606.9,226c-4,1.3-8.4,0.9-12.2-0.2c-3.4-1.1-7-3.1-9.1-6.2c-0.7-0.8-1-2.6,0.3-3
			c1.4-0.3,2.7,0.1,4.1,0.4c5,1.4,10,3,15,4.5c1.4,0.5,3.1,0.8,4,2.3C609.2,225.1,607.7,225.6,606.9,226z M622,225.5
			c0.3-1.5,0.8-3.1,1.6-4.6c4.1-1.8,11.5-3.6,11.5-3.6c4.8-0.4,9.1,2.7,11,4.4c0.5,1.4,0.8,3.1,1.4,4.5c-2-0.7-4.1-1.1-6.2-1.4
			c-7.1-0.5-14.3,1.1-20.3,4.3C621.2,228.1,621.6,226.7,622,225.5L622,225.5z M702.8,228.7c-0.7,2.5-1.4,5-2.7,7.2
			c-2,3.8-5.8,6.7-9.8,8c-3.3,1-6.9,1.6-10.4,1.8c-4.8,0.2-9.8-0.7-14.2-2.9c-1.4-2.6-3.2-5.1-5.3-7.5c-2.1-2.6-4.7-4.8-7.4-6.3
			l-0.2-0.3c-0.3-0.5-0.5-0.9-0.7-1.4h0.1c0.5,0.2,1.1,0.3,1.5,0.6c3.6,0.8,7,2.7,10.4,4.2c-1.5-2-3.9-3.1-5.9-4.4
			c8.4,1.4,12.5,4.8,20.7-0.5c-0.8,2.5-2.5,4.4-3.7,6.6c3.3-1.9,5.1-5.3,7.6-7.8c-0.8,3.9-3.8,6.5-6.2,9.6c3.3-1.4,5.2-4.3,7.7-6.5
			c-0.7,2.7-3,4.6-4.6,6.9c7-2.8,9.8-9.7,12.7-16c2-4.7,7.6-2.5,10.9-0.3c-6.8-18.8-29-9.4-43-5.7c-3.8,1.1-7.7,2-11.7,1.6
			c0-1.4,0.2-2.6,0.7-3.9c0.8-2.2,2.7-4,4.7-5.3c3.1-1.9,6.3-3.1,9.8-4c5.5-1.6,11.5-1.9,17.2-1.6c2.7,0.2,5.5,0.3,8.2,0.6
			c2.8,0.3,5.6,0.8,8.3,1.8c1.8,0.7,3.4,1.6,4.8,3c1.4,1.5,2.3,3.6,2.4,5.6C705.1,217.2,704.3,222.9,702.8,228.7L702.8,228.7z
			 M660,220.8c0.9-1.4,2.7-1.8,4.2-2.3c5.3-1.5,10.6-3.1,15.8-4.5c1.4-0.3,2.9-0.8,4.3-0.4c1.4,0.3,1.1,2,0.3,3
			c-2.3,3.1-5.9,5.1-9.6,6.2c-4.2,1.1-8.7,1.4-12.8,0.2C661.2,222.7,659.5,222.1,660,220.8z M661.5,240.1c-1.4-1.1-2.8-2.5-4-3.9
			C658.9,237.4,660.3,238.7,661.5,240.1z M643.2,482.6l0.8,0.3v0.3l-0.2,0.2c-1,1-0.8,2.5,0,3.5l0.1,0.1c-0.1,2.4-0.2,4.8-0.3,7.2
			c11.4,0.8,22.8,1.8,34.3,3.1c7.8,0.9,15.9-0.2,23.8-1.4c0.8,1.7,1.8,3.3,2.5,4.8c-1.1,3.7-2.4,7.2-4,10.7l8.9-5.8
			c1.1-2.1,2.4-4.3,3.7-6.3c0.3,4.8,0.3,9.8,0.2,14.8c-8.4,4-17.8,7-23.9,14.5c3.7-0.3,6.5-2.7,9.8-4.1c7.1-3.1,14.3-6.2,22-7.7
			c7.8-0.4,15,5.1,18.6,11.6c3.1,9.7,6.2,20.2,3,30.1c-0.4,0.3-0.8,0.5-1.4,0.8c-0.3-0.7-0.8-1.4-1.1-2c-0.9,0.5-2,1.1-2.9,1.6
			l-0.3,0.3c-0.7-2-1.3-4.1-2-6.1c-0.8-2.4-1.4-4.7-2.3-7c-1.4-3.8-3.6-7.6-7.5-9.2c-1-0.4-1.4,1.2-0.5,1.7c3.7,1.5,5.5,5.5,6.7,8.9
			c1.4,4.2,2.7,8.4,4.1,12.7c-0.8,0.5-1.6,0.8-2.4,1.1c0.1,0.3,0.2,0.5,0.2,0.8c-2.5,0.6-4.9,1.2-7.5,2c-0.2-0.3-0.3-0.4-0.3-0.7
			c-2.7,0.7-5.5,1.1-8.2,1.4c0.2,0.5,0.2,1,0.3,1.4l-0.7,0.2v-0.2c-0.6-2.7-1.1-5.3-1.8-8.1c-0.5-2.4-0.8-4.7-1.7-7
			c-0.7-2-1.8-3.9-3.4-5.2c-1.6-1.1-3.7-1.8-5.6-1.1c-1.1,0.3-0.6,2,0.5,1.7c1.9-0.6,3.7,0.3,4.9,1.6c1.4,1.4,2,3.3,2.5,5.2
			c1.1,4.4,2,8.9,3,13.4v0.1c-1.8,0.5-3.4,0.8-5.3,1.3c-0.2-0.3-0.3-0.5-0.5-0.8l-1.8,0.8c-2.7,1.1-5.6,2-8.5,2
			c0.2,0.1,0.3,0.2,0.5,0.3c-4.6,0.5-9.3,0.3-13.2-2.3c-2-0.1-3.6-0.8-4.8-1.9c-1.4-0.5-2.7-1-4.1-1.6c-2.9-0.4-5.7-1.1-8.5-1.9
			c-8.2-1.4-15-6.4-21.7-11C641.8,529,642.3,505.6,643.2,482.6L643.2,482.6z M705.7,501.3c-0.1-0.4-0.1-0.8-0.2-1.4
			c0.3,0.3,0.5,0.4,0.8,0.5C706.1,500.8,705.8,501.1,705.7,501.3z M626.1,333.1c-1.4-0.7-2.6-1.4-4-2c8.7-2,17.6-3.3,26.5-3.1
			c3.7,0.5,7.1,1.4,10.6,2.5c4.6,1.7,8.9,4,13.7,5.1c1.1,0.3,2.3,0.5,3.4,0.8c2,1.1,4.1,2.4,5.9,3.7l-6.5,3.3
			c-2.5,2.8-5.3,5.5-8.4,7.6c-4.8,3.1-8.3,7.8-12.8,11.3c-9.2,6.8-18.5,13.6-27.8,19.9c-3,1.6-5.9,3.1-8.9,4.6
			c0,0-31-21.7-31.1-39.9c4-3.3,8.7-5.9,13.4-7.9c7.8-3.5,16.9-6.3,25.7-6L626.1,333.1L626.1,333.1z M662.5,360
			c-0.3,0.3-0.5,0.7-0.7,0.9l-0.9,0.5C661.5,360.9,662,360.5,662.5,360z M667.2,355.7c-0.5,0.8-1.1,1.4-1.5,2.3
			c-0.3-0.1-0.7-0.1-1,0C665.6,357.3,666.4,356.5,667.2,355.7z M682.2,343.4c-0.4,0.3-0.8,0.7-1.2,0.9h-0.3
			C681.2,344.1,681.6,343.7,682.2,343.4L682.2,343.4z M684.7,393.9c-3.1,1.4-6,2.3-9.2,3.1c-7.7,0.8-15.7,1.4-23.5,2
			c-3.7,0.1-7.1,0.2-10.7,0.3c-2.5-0.7-5-1.1-7.6-1.4c-2.2-0.3-4.6-0.5-6.9-0.5c0.8,0.8,1.3,2,1.2,3.1c-7-0.3-13.8-1.9-20.5-4.1
			c3.4-2.4,7-4.6,10.6-6.7c1.1,0.2,3.3,0.3,4.3,0.5c12.1-9.8,25.4-18,37.4-27.8h0.1C684.7,349.7,685.2,382.8,684.7,393.9
			L684.7,393.9z M641.2,478.5c-1.6-0.2-3.2-0.4-4.8-0.6c-0.4-0.7-0.8-1.3-1.3-1.9c-0.3-0.5-0.8-0.8-1.4-0.9c0-0.1-0.1-0.1-0.1-0.1
			c3.3,1.2,6.5,2.4,9.8,3.3c1.4,0.4,2.8,0.8,4.3,1.1c-0.4,0.3-0.8,0.8-1.2,1.1c-0.8-0.3-1.7-0.6-2.5-0.8v0.4c-1-0.3-2-0.7-3.1-0.8
			C641.2,479,641.2,478.7,641.2,478.5L641.2,478.5z M574.4,499.5c0.3-0.2,0.5-0.3,0.7-0.4c1.1,2,2,4.2,3.3,6.2
			c7.4-5.9,13.3-14,23.9-12.7c12.6,0,25,0.3,37.6,1.1c0.1,11.7,1.4,23.5,0.8,35.2c-0.3,7.5,3.7,14.8,2,22.2
			c-3.9,8.4-13.7,9.9-21.4,13.2c-9.3,4.1-18.6,8.1-28.3,10.9c-2.6,0.3-5.3,0.3-8,0V575c-0.7,0.1-1.3,0.1-2,0.1
			c-0.2,0.4-0.7,0.7-1.1,0.3l-0.5-0.3c-0.7,0-1.4-0.1-2-0.1c-0.8,0-1-0.8-0.7-1.4c-0.6-0.3-1.1-0.4-1.9-0.6
			c-0.1,0.1-0.1,0.2-0.2,0.3c-2.5-0.7-4.9-1.3-7.5-2v-0.2c-0.7-0.2-1.4-0.3-2-0.4c0.4-3.2,0.8-6.4,1.4-9.5c0.5-2.7,1.4-6.2,4.3-7.2
			c1-0.3,0.6-2-0.5-1.7c-3.3,1.1-4.6,4.4-5.3,7.6c-0.5,2-0.7,4.3-1,6.4c-0.2,1.4-0.4,2.7-0.6,4.2c-3.3-0.7-6.9-1.4-9.9-2.6
			c-0.7-0.2-1.4-0.3-2.1-0.6v-0.5c-0.7-0.4-1.4-0.8-2-1.3c-0.3-0.3-0.6-0.4-0.8-0.7c1.9-4.2,3.7-8.4,5.8-12.4c1.5-3.2,3.5-6.7,7-8.1
			c1-0.3,0.6-2-0.5-1.7c-3.7,1.4-5.9,4.7-7.7,8.2c-2,4.2-4,8.5-5.9,12.7c-1.1-1.1-1.9-2.5-2.4-4l-0.8,2.8c-0.8-7.9,0.5-16,4-23.1
			c3.1-5.6,9.3-8.2,14.7-10.9c10.4-3.3,20.7,0.7,30.7,3.1c-4.1-5.5-11.5-6.1-17.7-7.8c0-2.5,0.1-4.8,0-7.4c1.8,1.1,3.5,2.3,5.3,3.3
			c-1.2-7.1,4.1-12.1,8.5-16.6c-1-0.2-3.1-0.3-4-0.5c-2.7,3.2-5.4,6.3-8.1,9.5l-5.5-10.6c-1.1,1.8-2.4,3.4-3.6,5.3
			c-0.3-3.1-0.5-6-0.8-9.1c0.3,0.2,0.8,0.3,1.4,0.5l0.5,5.6C572.3,502.4,573.4,501,574.4,499.5L574.4,499.5z M542.5,237.9
			c0.1,0.1,0.2,0.2,0.3,0.3c0.9-6,3.1-12,8.5-15.1l-4.6-1c3.7-3.1,5.9-6.6,7.1-10.6c0.1,0.5,0.1,1,0.1,1.5c-0.1,1.1-0.3,2.3,0.2,3.3
			c0.3,0.7,1,0.8,1.5,1.3c1.9,1.2,2.9,3.3,3.6,5.3c1.1,3.1,2,6.2,2.9,9.3c0.9,3.2,2,6.4,3.7,9.3c2.3,3.9,5.9,7,9.9,8.7
			c5.8,2.7,12.3,3.3,18.6,2.6c3.7-0.5,7.5-1.5,10.9-3.2c0.3-0.2,0.7-0.3,0.9-0.5c-2.9,5.5-3.1,12.1-1.9,18.8l0.7,0.1l2,0.2
			c-0.1-0.5-0.2-0.9-0.3-1.4c-0.8-4.1-1.1-8.4-0.5-12.4c0-2,0.4-4,1.1-5.9c1.8-1,3.3-2.1,4.7-3.5c3.1-3,5.3-6.5,7-10.4
			c6.2-4.1,14.2-6.3,22.2-5.2c3,0.2,5.9,0.8,8.7,2c0.8,1.6,1.9,3.1,2.9,4.6c-1.8-1.1-4-1.7-5.9-1c-7.5,0-12,3.1-19.4-0.4
			c-4.5,0.8-7,4.8-9.8,8c5.3,7.2,9.8,19.2,18.7,19.2c7.5,0,14.9-8.9,19.4-17.9c0.3-1.4,0.3-2.9-0.2-4.1c1.9,2,4,4,6.3,5.5
			c1.4,0.9,3.1,1.7,4.7,2.2c2,3.7,3.3,7.5,4.1,11.4c-0.3-3.7-1.1-7.3-2.5-11c0.8,0.3,1.6,0.4,2.4,0.5c2.4,0.4,4.8,0.5,7.2,0.5
			c6.3,0.1,12.8-1.1,18.5-4.2c3.1-1.6,5.8-4,7.1-7.1c2.9-6.7,4.9-13.6,6.5-20.7c0.3-1.1,0.8-2,1.4-3c-0.3-1.5,0.9-2.8,2.2-3.1
			c0.2-0.1,0.4-0.2,0.7-0.2c0.7-0.3,1.6-0.3,2.2,0.1c4,1.9,6.2,7.6,7.8,11.3c2,4.6,4,9.5,4.6,14.4c0.2,1.1-0.3,2-1,2.5
			c1,8.4-1,17.4-3.3,25.3c-0.8,3.1-2,7-3.7,10.5c-1.1,3.9-3.7,7.2-6.7,9.9c-0.5,0.5-1.1,0.7-1.9,0.7c-0.3,0.5-0.5,1-0.8,1.4
			c-3.6-0.6-7.1-0.9-10.7-1.1c-7.1,6.3-15.8,11.1-24.1,16.4c0.1,0.3,0.1,0.8-0.2,1.1c-2.2,4.3-5.5,7.8-9.3,11
			c-0.3,0.5-0.8,1.1-1.4,1.1c-4.6,3.7-9.3,7.1-14.5,9.8c-11.5-1.1-23.1,0.5-34.6,3.3c-4.8-2-9.1-4.8-13.3-7.8c0.3,0,0.7,0,1-0.1
			c-0.2-0.5-0.6-1.7-0.8-2.1c-1.3-0.2-2.5-0.3-3.8-0.4c-3.3-2.5-6-5.4-8.1-8.7c-0.2-0.3-0.2-0.7-0.2-0.9
			c-7.5-4.3-15.4-8.3-21.9-13.6c-3.1,0.1-5.9,0.3-9,0.8c-1.4-1.6-2.7-3.3-4-4.9c-5.3-5.5-6.9-13.1-9.8-19.8
			c-3.3-9.2-2.5-19.1-0.6-28.4c-4.4,1-5.3,5.4-6.5,9.1C539.8,248.4,541.2,241.9,542.5,237.9L542.5,237.9z"/>
		<path class="st0" d="M353.3,507.1c-5.4-5.6-11.8-10.4-18.8-13.8s-14.9-5.5-22.7-4.7c-4.6,0.5-8.9,1.9-12.9,4.1
			c0.3-0.1,0.7-0.2,1.1-0.3c-15.5-0.1-30.4-5-45.8-6.5c-1.1-0.1-2.1,1-2.1,2.1c0,1.3,0.9,2,2.1,2.1c15.1,1.4,29.9,6.3,45.2,6.5
			c1.7,0,3.2-1.2,4.8-1.9c1.4-0.6,2.8-1,4.2-1.4c2.8-0.7,5.8-0.8,8.7-0.7c5.9,0.3,11.7,2.3,16.9,5.1c6.1,3.2,11.5,7.5,16.4,12.4
			C352.2,512,355.1,509.1,353.3,507.1z"/>
	</g>
</g>
<g>
	<path d="M38.7,224c-1-1-1.6-2.4-1.6-4.2v-41.4c0-1.7,0.5-3.1,1.4-4c0.9-0.9,2.3-1.4,4-1.4h18.6c5.7,0,10.1,1.4,13.2,4.3
		c3.2,2.9,4.7,6.9,4.7,12c0,5.1-1.6,9.1-4.7,12c-3.2,2.9-7.6,4.3-13.2,4.3H48.6v14.3c0,1.8-0.5,3.2-1.6,4.2c-1,1-2.4,1.6-4.2,1.6
		C41.1,225.6,39.7,225.1,38.7,224z M59.6,196.8c5.8,0,8.6-2.5,8.6-7.5c0-5-2.9-7.5-8.6-7.5H48.6v15H59.6z"/>
	<path d="M97,222.5c-3.8-2.2-6.8-5.3-8.8-9.3c-2.1-4-3.1-8.7-3.1-14.2c0-5.4,1-10.1,3.1-14.2c2.1-4,5-7.1,8.8-9.3
		c3.8-2.2,8.3-3.3,13.5-3.3c5.2,0,9.7,1.1,13.5,3.3c3.8,2.2,6.8,5.3,8.8,9.3c2.1,4,3.1,8.7,3.1,14.2c0,5.4-1,10.1-3.1,14.2
		c-2.1,4-5,7.1-8.8,9.3c-3.8,2.2-8.3,3.3-13.5,3.3C105.3,225.8,100.8,224.7,97,222.5z M120.7,212.3c2.5-3.1,3.7-7.5,3.7-13.2
		c0-5.8-1.2-10.2-3.7-13.2c-2.5-3-5.9-4.5-10.3-4.5c-4.4,0-7.8,1.5-10.2,4.5c-2.4,3-3.7,7.4-3.7,13.2c0,5.8,1.2,10.2,3.7,13.2
		c2.5,3.1,5.9,4.6,10.2,4.6C114.8,216.8,118.2,215.3,120.7,212.3z"/>
	<path d="M188.5,221c0,1.4-0.6,2.5-1.7,3.4c-1.1,0.9-2.4,1.3-3.9,1.3c-0.9,0-1.8-0.2-2.7-0.7c-0.9-0.4-1.6-1.1-2.2-2.1l-9.8-14.5
		c-0.8-1.3-1.7-2.2-2.7-2.8c-0.9-0.6-2.1-0.9-3.5-0.9h-6v14.9c0,1.8-0.5,3.2-1.5,4.2c-1,1-2.4,1.6-4.1,1.6c-1.8,0-3.2-0.5-4.2-1.6
		c-1-1-1.6-2.4-1.6-4.2v-41.4c0-1.7,0.5-3.1,1.4-4c0.9-0.9,2.3-1.4,4-1.4h18.6c6.1,0,10.7,1.3,13.9,4c3.1,2.7,4.7,6.6,4.7,11.6
		c0,4-1.1,7.3-3.3,10c-2.2,2.7-5.3,4.4-9.4,5.2c1.5,0.3,2.8,0.9,4,1.7c1.2,0.9,2.3,2.1,3.4,3.7l5.6,8.4
		C188.1,218.9,188.5,220,188.5,221z M174.1,194.4c1.5-1.2,2.2-3,2.2-5.4c0-2.5-0.7-4.3-2.2-5.5c-1.5-1.1-3.9-1.7-7.2-1.7h-11v14.3
		h11C170.2,196.1,172.6,195.6,174.1,194.4z"/>
	<path d="M208.7,223.9c-1.1-1-1.6-2.4-1.6-4.1v-37.4h-12c-3.6,0-5.5-1.6-5.5-4.7c0-3.1,1.8-4.7,5.5-4.7h35.5c3.6,0,5.5,1.6,5.5,4.7
		c0,3.2-1.8,4.7-5.5,4.7h-12v37.4c0,1.7-0.5,3.1-1.6,4.1c-1,1-2.4,1.6-4.2,1.6C211.1,225.5,209.7,225,208.7,223.9z"/>
	<path d="M283.5,220.5c0,1.4-0.6,2.6-1.7,3.5c-1.1,1-2.4,1.4-3.8,1.4c-0.9,0-1.8-0.3-2.7-0.8c-0.8-0.5-1.5-1.3-1.9-2.3l-3.9-8.7
		h-25.1l-3.9,8.7c-0.4,1-1.1,1.8-1.9,2.3c-0.8,0.5-1.7,0.8-2.7,0.8c-1.4,0-2.7-0.5-3.8-1.4c-1.1-1-1.7-2.1-1.7-3.5
		c0-0.7,0.2-1.5,0.6-2.4l20-41.9c0.5-1.2,1.4-2.1,2.4-2.7c1.1-0.6,2.2-0.9,3.5-0.9c1.3,0,2.5,0.3,3.5,1c1.1,0.6,1.9,1.5,2.5,2.7
		l20,41.9C283.3,219,283.5,219.8,283.5,220.5z M248.4,204.9h17.2l-8.6-19.2L248.4,204.9z"/>
	<path d="M291.4,224c-1.1-1.1-1.6-2.5-1.6-4.2v-41.4c0-1.7,0.5-3.1,1.4-4c0.9-0.9,2.3-1.4,4-1.4h25.4c1.9,0,3.3,0.4,4.1,1.1
		c0.9,0.7,1.3,1.9,1.3,3.5c0,1.5-0.4,2.7-1.3,3.4c-0.9,0.7-2.3,1.1-4.1,1.1h-19.4v12h18c1.9,0,3.3,0.4,4.1,1.1
		c0.9,0.7,1.3,1.9,1.3,3.5c0,1.5-0.4,2.7-1.3,3.4c-0.9,0.7-2.3,1.1-4.1,1.1h-18v16.6c0,1.8-0.5,3.2-1.5,4.2c-1,1-2.4,1.6-4.1,1.6
		C293.9,225.6,292.5,225,291.4,224z"/>
	<path d="M342.2,222.5c-3.8-2.2-6.8-5.3-8.8-9.3c-2.1-4-3.1-8.7-3.1-14.2c0-5.4,1-10.1,3.1-14.2c2.1-4,5-7.1,8.8-9.3
		c3.8-2.2,8.3-3.3,13.5-3.3c5.2,0,9.7,1.1,13.5,3.3c3.8,2.2,6.8,5.3,8.8,9.3c2.1,4,3.1,8.7,3.1,14.2c0,5.4-1,10.1-3.1,14.2
		c-2.1,4-5,7.1-8.8,9.3c-3.8,2.2-8.3,3.3-13.5,3.3C350.5,225.8,346,224.7,342.2,222.5z M365.9,212.3c2.5-3.1,3.7-7.5,3.7-13.2
		c0-5.8-1.2-10.2-3.7-13.2c-2.5-3-5.9-4.5-10.3-4.5c-4.4,0-7.8,1.5-10.2,4.5c-2.4,3-3.7,7.4-3.7,13.2c0,5.8,1.2,10.2,3.7,13.2
		c2.5,3.1,5.9,4.6,10.2,4.6C360,216.8,363.4,215.3,365.9,212.3z"/>
	<path d="M391.3,223.7c-0.9-0.9-1.4-2.3-1.4-4v-41.4c0-1.7,0.5-3.1,1.6-4.1c1-1,2.4-1.6,4.2-1.6c1.8,0,3.2,0.5,4.2,1.6
		c1,1,1.6,2.4,1.6,4.1v37.4h18.9c3.6,0,5.4,1.6,5.4,4.7c0,3.1-1.8,4.7-5.4,4.7h-25.1C393.6,225.1,392.2,224.7,391.3,223.7z"/>
	<path d="M433.1,224c-1-1-1.6-2.4-1.6-4.2v-41.5c0-1.7,0.5-3.1,1.6-4.1c1-1,2.4-1.6,4.2-1.6c1.8,0,3.2,0.5,4.2,1.6
		c1,1,1.6,2.4,1.6,4.1v41.5c0,1.8-0.5,3.2-1.6,4.2c-1,1-2.4,1.6-4.2,1.6C435.5,225.6,434.1,225.1,433.1,224z"/>
	<path d="M463.8,222.5c-3.8-2.2-6.8-5.3-8.8-9.3c-2.1-4-3.1-8.7-3.1-14.2c0-5.4,1-10.1,3.1-14.2c2.1-4,5-7.1,8.8-9.3
		c3.8-2.2,8.3-3.3,13.5-3.3c5.2,0,9.7,1.1,13.5,3.3c3.8,2.2,6.8,5.3,8.8,9.3c2.1,4,3.1,8.7,3.1,14.2c0,5.4-1,10.1-3.1,14.2
		c-2.1,4-5,7.1-8.8,9.3c-3.8,2.2-8.3,3.3-13.5,3.3C472.2,225.8,467.7,224.7,463.8,222.5z M487.6,212.3c2.5-3.1,3.7-7.5,3.7-13.2
		c0-5.8-1.2-10.2-3.7-13.2c-2.5-3-5.9-4.5-10.3-4.5c-4.4,0-7.8,1.5-10.2,4.5c-2.4,3-3.7,7.4-3.7,13.2c0,5.8,1.2,10.2,3.7,13.2
		c2.5,3.1,5.9,4.6,10.2,4.6C481.7,216.8,485.1,215.3,487.6,212.3z"/>
</g>
<g>
	<path d="M57.9,267.8c-0.3-0.3-0.4-0.6-0.4-1v-17c0-0.4,0.1-0.8,0.4-1s0.6-0.4,1.1-0.4h10.3c0.4,0,0.8,0.1,1,0.3
		c0.2,0.2,0.4,0.5,0.4,0.9s-0.1,0.7-0.4,0.9c-0.2,0.2-0.6,0.3-1,0.3h-8.9v6.2h8.4c0.4,0,0.8,0.1,1,0.3c0.2,0.2,0.4,0.5,0.4,0.9
		c0,0.4-0.1,0.7-0.4,0.9c-0.2,0.2-0.6,0.3-1,0.3h-8.4v6.5h8.9c0.9,0,1.3,0.4,1.3,1.2c0,0.4-0.1,0.7-0.4,0.9c-0.2,0.2-0.6,0.3-1,0.3
		H58.9C58.5,268.1,58.1,268,57.9,267.8z"/>
	<path d="M85.9,259.6v7.3c0,0.4-0.1,0.8-0.4,1c-0.3,0.2-0.6,0.4-1.1,0.4c-0.4,0-0.8-0.1-1-0.4c-0.3-0.2-0.4-0.6-0.4-1v-7.2
		c0-1.2-0.2-2-0.7-2.6c-0.5-0.5-1.2-0.8-2.1-0.8c-1.1,0-2.1,0.4-2.7,1.1c-0.7,0.7-1,1.7-1,2.9v6.6c0,0.4-0.1,0.7-0.4,1
		c-0.3,0.2-0.6,0.4-1,0.4c-0.4,0-0.8-0.1-1-0.4c-0.3-0.2-0.4-0.6-0.4-1v-11.4c0-0.4,0.1-0.7,0.4-1c0.3-0.3,0.6-0.4,1-0.4
		c0.4,0,0.7,0.1,1,0.4c0.2,0.2,0.4,0.6,0.4,1v1.2c0.4-0.8,1.1-1.4,1.9-1.9c0.8-0.4,1.7-0.6,2.7-0.6
		C84.2,254.1,85.9,255.9,85.9,259.6z"/>
	<path d="M92.1,267.5c-1-0.6-1.8-1.4-2.3-2.5c-0.6-1.1-0.8-2.3-0.8-3.7c0-1.4,0.3-2.7,0.9-3.8c0.6-1.1,1.4-1.9,2.4-2.5
		c1-0.6,2.2-0.9,3.5-0.9c0.7,0,1.4,0.1,2.1,0.3c0.7,0.2,1.4,0.5,1.9,0.8c0.6,0.4,0.9,0.9,0.9,1.4c0,0.3-0.1,0.6-0.3,0.8
		c-0.2,0.2-0.4,0.3-0.6,0.3c-0.2,0-0.3,0-0.5-0.1c-0.2-0.1-0.4-0.2-0.6-0.4c-0.5-0.3-0.9-0.5-1.3-0.7c-0.4-0.2-0.9-0.2-1.4-0.2
		c-1.3,0-2.3,0.4-3,1.3c-0.7,0.9-1.1,2.1-1.1,3.6s0.3,2.7,1,3.5s1.7,1.2,2.9,1.2c0.6,0,1.1-0.1,1.5-0.3c0.4-0.2,0.9-0.4,1.3-0.7
		c0.2-0.1,0.4-0.2,0.6-0.3c0.2-0.1,0.4-0.1,0.6-0.1c0.3,0,0.5,0.1,0.6,0.3c0.2,0.2,0.3,0.5,0.3,0.8c0,0.3-0.1,0.5-0.2,0.7
		c-0.1,0.2-0.4,0.4-0.7,0.7c-0.6,0.4-1.2,0.7-2,0.9c-0.7,0.2-1.5,0.3-2.3,0.3C94.3,268.3,93.1,268,92.1,267.5z"/>
	<path d="M114.9,254.5c0.3,0.2,0.4,0.6,0.4,1V267c0,0.4-0.1,0.7-0.4,1c-0.3,0.2-0.6,0.4-1,0.4c-0.4,0-0.7-0.1-1-0.4
		c-0.2-0.2-0.4-0.5-0.4-0.9v-1.1c-0.4,0.8-1,1.4-1.8,1.8c-0.8,0.4-1.6,0.6-2.5,0.6c-3.3,0-5-1.8-5-5.5v-7.3c0-0.4,0.1-0.8,0.4-1
		c0.3-0.2,0.6-0.4,1.1-0.4c0.4,0,0.8,0.1,1,0.4c0.3,0.2,0.4,0.6,0.4,1v7.3c0,1.1,0.2,1.9,0.7,2.4c0.4,0.5,1.1,0.8,2.1,0.8
		c1.1,0,2-0.4,2.7-1.1c0.7-0.7,1-1.7,1-2.8v-6.6c0-0.4,0.1-0.7,0.4-1c0.3-0.3,0.6-0.4,1-0.4C114.3,254.2,114.7,254.3,114.9,254.5z"
		/>
	<path d="M130.6,265c0.2,0.2,0.3,0.5,0.3,0.8c0,0.5-0.3,1-1,1.4c-0.7,0.4-1.4,0.7-2.1,0.9s-1.5,0.3-2.2,0.3c-2.2,0-3.9-0.6-5.1-1.9
		c-1.3-1.3-1.9-3-1.9-5.2c0-1.4,0.3-2.6,0.8-3.7c0.6-1.1,1.3-1.9,2.3-2.5c1-0.6,2.1-0.9,3.4-0.9c1.8,0,3.3,0.6,4.3,1.8
		c1.1,1.2,1.6,2.8,1.6,4.8c0,0.7-0.3,1.1-1,1.1h-8.7c0.2,2.9,1.6,4.3,4.2,4.3c0.7,0,1.3-0.1,1.8-0.3c0.5-0.2,1-0.4,1.6-0.7
		c0.1,0,0.2-0.1,0.5-0.2c0.3-0.1,0.5-0.2,0.6-0.2C130.3,264.7,130.5,264.8,130.6,265z M122.5,257.2c-0.7,0.7-1,1.7-1.2,2.9h7.2
		c-0.1-1.3-0.4-2.2-1-2.9c-0.6-0.7-1.4-1-2.5-1C124,256.2,123.2,256.5,122.5,257.2z"/>
	<path d="M146.4,259.6v7.3c0,0.4-0.1,0.8-0.4,1c-0.3,0.2-0.6,0.4-1.1,0.4c-0.4,0-0.8-0.1-1-0.4c-0.3-0.2-0.4-0.6-0.4-1v-7.2
		c0-1.2-0.2-2-0.7-2.6c-0.5-0.5-1.2-0.8-2.1-0.8c-1.1,0-2.1,0.4-2.7,1.1c-0.7,0.7-1,1.7-1,2.9v6.6c0,0.4-0.1,0.7-0.4,1
		c-0.3,0.2-0.6,0.4-1,0.4c-0.4,0-0.8-0.1-1-0.4c-0.3-0.2-0.4-0.6-0.4-1v-11.4c0-0.4,0.1-0.7,0.4-1c0.3-0.3,0.6-0.4,1-0.4
		c0.4,0,0.7,0.1,1,0.4c0.2,0.2,0.4,0.6,0.4,1v1.2c0.4-0.8,1.1-1.4,1.9-1.9c0.8-0.4,1.7-0.6,2.7-0.6
		C144.8,254.1,146.4,255.9,146.4,259.6z"/>
	<path d="M157.9,266.4c0.2,0.2,0.3,0.4,0.3,0.7c0,0.4-0.1,0.7-0.4,0.9c-0.3,0.2-0.7,0.3-1.3,0.2l-0.8-0.1c-1.5-0.1-2.6-0.6-3.4-1.4
		c-0.7-0.8-1.1-2-1.1-3.6v-6.6h-1.7c-0.8,0-1.2-0.4-1.2-1.1c0-0.3,0.1-0.6,0.3-0.8c0.2-0.2,0.5-0.3,0.9-0.3h1.7v-2.9
		c0-0.4,0.1-0.8,0.4-1c0.3-0.2,0.6-0.4,1-0.4c0.4,0,0.8,0.1,1,0.4c0.3,0.2,0.4,0.6,0.4,1v2.9h2.8c0.4,0,0.7,0.1,0.9,0.3
		c0.2,0.2,0.3,0.5,0.3,0.8c0,0.4-0.1,0.6-0.3,0.8c-0.2,0.2-0.5,0.3-0.9,0.3H154v6.8c0,0.9,0.2,1.5,0.5,1.9c0.4,0.4,0.9,0.6,1.7,0.7
		l0.8,0.1C157.4,266.2,157.7,266.3,157.9,266.4z"/>
	<path d="M168.7,255.3c0,0.4-0.1,0.7-0.3,0.9c-0.2,0.2-0.6,0.3-1.1,0.4l-0.8,0.1c-1.2,0.1-2.1,0.5-2.6,1.2c-0.6,0.7-0.9,1.6-0.9,2.6
		v6.4c0,0.4-0.1,0.8-0.4,1c-0.3,0.2-0.6,0.3-1,0.3c-0.4,0-0.8-0.1-1-0.3c-0.3-0.2-0.4-0.6-0.4-1v-11.4c0-0.4,0.1-0.8,0.4-1
		c0.3-0.2,0.6-0.4,1-0.4c0.4,0,0.7,0.1,0.9,0.4c0.3,0.2,0.4,0.6,0.4,1v1.3c0.4-0.8,0.9-1.4,1.6-1.9c0.7-0.4,1.5-0.7,2.4-0.8l0.4,0
		C168.3,254.1,168.7,254.5,168.7,255.3z"/>
	<path d="M180.2,255.5c0.9,0.9,1.3,2.3,1.3,4.2v7.3c0,0.4-0.1,0.8-0.4,1c-0.2,0.2-0.6,0.4-1,0.4c-0.4,0-0.7-0.1-1-0.4
		c-0.2-0.2-0.4-0.6-0.4-1v-1c-0.4,0.8-0.9,1.4-1.6,1.8c-0.7,0.4-1.5,0.6-2.5,0.6c-0.9,0-1.7-0.2-2.5-0.5c-0.7-0.4-1.3-0.9-1.8-1.5
		c-0.4-0.7-0.6-1.4-0.6-2.2c0-1,0.3-1.8,0.8-2.3c0.5-0.6,1.4-1,2.6-1.2c1.2-0.2,2.8-0.4,4.9-0.4h0.6v-0.8c0-1-0.2-1.8-0.6-2.3
		c-0.4-0.5-1.1-0.7-2.1-0.7c-0.7,0-1.3,0.1-1.9,0.3c-0.6,0.2-1.2,0.4-1.9,0.7c-0.5,0.3-0.9,0.4-1.1,0.4c-0.3,0-0.5-0.1-0.7-0.3
		c-0.2-0.2-0.3-0.5-0.3-0.8c0-0.3,0.1-0.5,0.2-0.7c0.2-0.2,0.4-0.4,0.8-0.6c0.7-0.4,1.4-0.6,2.3-0.9s1.7-0.3,2.6-0.3
		C177.9,254.1,179.3,254.6,180.2,255.5z M177.8,265.2c0.7-0.7,1-1.6,1-2.7v-0.7h-0.5c-1.5,0-2.6,0.1-3.4,0.2
		c-0.8,0.1-1.3,0.4-1.7,0.7c-0.3,0.3-0.5,0.8-0.5,1.3c0,0.7,0.2,1.2,0.7,1.7c0.5,0.4,1.1,0.6,1.8,0.6
		C176.3,266.2,177.1,265.9,177.8,265.2z"/>
	<path d="M202.6,255.5c0.9,0.9,1.3,2.3,1.3,4.2v7.3c0,0.4-0.1,0.8-0.4,1c-0.2,0.2-0.6,0.4-1,0.4c-0.4,0-0.7-0.1-1-0.4
		c-0.2-0.2-0.4-0.6-0.4-1v-1c-0.4,0.8-0.9,1.4-1.6,1.8c-0.7,0.4-1.5,0.6-2.5,0.6c-0.9,0-1.7-0.2-2.5-0.5c-0.7-0.4-1.3-0.9-1.8-1.5
		c-0.4-0.7-0.6-1.4-0.6-2.2c0-1,0.3-1.8,0.8-2.3c0.5-0.6,1.4-1,2.6-1.2c1.2-0.2,2.8-0.4,4.9-0.4h0.6v-0.8c0-1-0.2-1.8-0.6-2.3
		c-0.4-0.5-1.1-0.7-2.1-0.7c-0.7,0-1.3,0.1-1.9,0.3c-0.6,0.2-1.2,0.4-1.9,0.7c-0.5,0.3-0.9,0.4-1.1,0.4c-0.3,0-0.5-0.1-0.7-0.3
		c-0.2-0.2-0.3-0.5-0.3-0.8c0-0.3,0.1-0.5,0.2-0.7c0.2-0.2,0.4-0.4,0.8-0.6c0.7-0.4,1.4-0.6,2.3-0.9c0.9-0.2,1.7-0.3,2.6-0.3
		C200.4,254.1,201.7,254.6,202.6,255.5z M200.2,265.2c0.7-0.7,1-1.6,1-2.7v-0.7h-0.5c-1.5,0-2.6,0.1-3.4,0.2
		c-0.8,0.1-1.3,0.4-1.7,0.7c-0.3,0.3-0.5,0.8-0.5,1.3c0,0.7,0.2,1.2,0.7,1.7c0.5,0.4,1.1,0.6,1.8,0.6
		C198.7,266.2,199.5,265.9,200.2,265.2z"/>
	<path d="M220,254.5c0.3,0.3,0.4,0.6,0.4,1V272c0,0.4-0.1,0.7-0.4,1c-0.3,0.2-0.6,0.4-1,0.4c-0.4,0-0.8-0.1-1-0.4
		c-0.3-0.2-0.4-0.5-0.4-0.9v-6.2c-0.4,0.8-1,1.4-1.8,1.9c-0.8,0.4-1.7,0.6-2.7,0.6c-1.2,0-2.3-0.3-3.2-0.9c-0.9-0.6-1.6-1.4-2.1-2.5
		c-0.5-1.1-0.8-2.3-0.8-3.7c0-1.4,0.3-2.7,0.8-3.8c0.5-1.1,1.2-1.9,2.2-2.5c0.9-0.6,2-0.9,3.2-0.9c1,0,1.9,0.2,2.7,0.7
		c0.8,0.4,1.4,1.1,1.8,1.9v-1.2c0-0.4,0.1-0.7,0.4-1c0.3-0.3,0.6-0.4,1-0.4C219.4,254.2,219.8,254.3,220,254.5z M216.6,264.8
		c0.7-0.8,1-2,1-3.6c0-1.6-0.3-2.7-1-3.6c-0.7-0.8-1.6-1.3-2.8-1.3c-1.2,0-2.2,0.4-2.9,1.3c-0.7,0.9-1,2.1-1,3.6s0.3,2.7,1,3.5
		c0.7,0.8,1.6,1.2,2.9,1.2C215,266.1,216,265.7,216.6,264.8z"/>
	<path d="M236,254.5c0.3,0.2,0.4,0.6,0.4,1V267c0,0.4-0.1,0.7-0.4,1c-0.3,0.2-0.6,0.4-1,0.4c-0.4,0-0.7-0.1-1-0.4
		c-0.2-0.2-0.4-0.5-0.4-0.9v-1.1c-0.4,0.8-1,1.4-1.8,1.8c-0.8,0.4-1.6,0.6-2.5,0.6c-3.3,0-5-1.8-5-5.5v-7.3c0-0.4,0.1-0.8,0.4-1
		c0.3-0.2,0.6-0.4,1.1-0.4c0.4,0,0.8,0.1,1,0.4c0.3,0.2,0.4,0.6,0.4,1v7.3c0,1.1,0.2,1.9,0.7,2.4c0.4,0.5,1.1,0.8,2.1,0.8
		c1.1,0,2-0.4,2.7-1.1c0.7-0.7,1-1.7,1-2.8v-6.6c0-0.4,0.1-0.7,0.4-1c0.3-0.3,0.6-0.4,1-0.4C235.4,254.2,235.8,254.3,236,254.5z"/>
	<path d="M240.7,267.9c-0.3-0.2-0.4-0.6-0.4-1v-11.4c0-0.4,0.1-0.8,0.4-1c0.3-0.2,0.6-0.4,1-0.4c0.4,0,0.7,0.1,1,0.4
		c0.3,0.2,0.4,0.6,0.4,1v11.4c0,0.4-0.1,0.8-0.4,1c-0.3,0.2-0.6,0.3-1,0.3C241.4,268.3,241,268.2,240.7,267.9z M241.8,252.8
		c-0.2,0-0.4-0.1-0.5-0.2c-0.2-0.2-0.2-0.3-0.2-0.5c0-0.2,0.1-0.4,0.2-0.5l3-4c0.4-0.5,0.8-0.8,1.3-0.8c0.4,0,0.7,0.1,0.9,0.4
		c0.2,0.2,0.4,0.5,0.4,0.9c0,0.4-0.2,0.8-0.7,1.2l-3.8,3.3C242.2,252.7,242,252.8,241.8,252.8z"/>
	<path d="M262.1,266.4c0.2,0.2,0.3,0.4,0.3,0.7c0,0.4-0.1,0.7-0.4,0.9c-0.3,0.2-0.7,0.3-1.3,0.2l-0.8-0.1c-1.5-0.1-2.6-0.6-3.4-1.4
		c-0.7-0.8-1.1-2-1.1-3.6v-6.6h-1.7c-0.8,0-1.2-0.4-1.2-1.1c0-0.3,0.1-0.6,0.3-0.8c0.2-0.2,0.5-0.3,0.9-0.3h1.7v-2.9
		c0-0.4,0.1-0.8,0.4-1c0.3-0.2,0.6-0.4,1-0.4c0.4,0,0.8,0.1,1,0.4c0.3,0.2,0.4,0.6,0.4,1v2.9h2.8c0.4,0,0.7,0.1,0.9,0.3
		c0.2,0.2,0.3,0.5,0.3,0.8c0,0.4-0.1,0.6-0.3,0.8c-0.2,0.2-0.5,0.3-0.9,0.3h-2.8v6.8c0,0.9,0.2,1.5,0.5,1.9c0.4,0.4,0.9,0.6,1.7,0.7
		l0.8,0.1C261.7,266.2,262,266.3,262.1,266.4z"/>
	<path d="M266.8,267.5c-1-0.6-1.8-1.4-2.4-2.5c-0.6-1.1-0.8-2.3-0.8-3.7c0-1.4,0.3-2.7,0.8-3.8c0.6-1.1,1.3-1.9,2.4-2.5
		c1-0.6,2.2-0.9,3.5-0.9c1.3,0,2.5,0.3,3.5,0.9c1,0.6,1.8,1.4,2.4,2.5c0.6,1.1,0.8,2.3,0.8,3.8c0,1.4-0.3,2.7-0.8,3.7
		c-0.6,1.1-1.3,1.9-2.4,2.5c-1,0.6-2.2,0.9-3.5,0.9C269,268.3,267.9,268,266.8,267.5z M273.3,264.9c0.7-0.8,1-2,1-3.6
		c0-1.6-0.3-2.8-1-3.6s-1.6-1.2-2.9-1.2c-1.2,0-2.2,0.4-2.9,1.2c-0.7,0.8-1,2-1,3.6c0,1.6,0.3,2.8,1,3.6c0.7,0.8,1.6,1.2,2.9,1.2
		C271.6,266.1,272.6,265.7,273.3,264.9z"/>
	<path d="M292.5,248.6c0.3,0.2,0.4,0.6,0.4,1v17.3c0,0.4-0.1,0.8-0.4,1c-0.3,0.2-0.6,0.4-1,0.4c-0.4,0-0.8-0.1-1-0.4
		c-0.3-0.2-0.4-0.6-0.4-1v-1.1c-0.4,0.8-1,1.5-1.8,1.9c-0.8,0.4-1.7,0.7-2.7,0.7c-1.2,0-2.2-0.3-3.2-0.9c-0.9-0.6-1.6-1.4-2.2-2.5
		c-0.5-1.1-0.8-2.3-0.8-3.7c0-1.4,0.3-2.7,0.8-3.7c0.5-1.1,1.2-1.9,2.1-2.5c0.9-0.6,2-0.9,3.2-0.9c1,0,1.9,0.2,2.7,0.7
		c0.8,0.4,1.4,1.1,1.8,1.9v-7.1c0-0.4,0.1-0.7,0.4-0.9c0.3-0.2,0.6-0.4,1-0.4C291.9,248.2,292.2,248.3,292.5,248.6z M289.1,264.8
		c0.7-0.8,1-2,1-3.6c0-1.6-0.3-2.7-1-3.6c-0.7-0.8-1.6-1.3-2.8-1.3c-1.2,0-2.2,0.4-2.9,1.2c-0.7,0.8-1,2-1,3.5s0.3,2.7,1,3.6
		c0.7,0.9,1.6,1.3,2.9,1.3S288.4,265.7,289.1,264.8z"/>
	<path d="M299.2,267.5c-1-0.6-1.8-1.4-2.4-2.5c-0.6-1.1-0.8-2.3-0.8-3.7c0-1.4,0.3-2.7,0.8-3.8c0.6-1.1,1.3-1.9,2.4-2.5
		c1-0.6,2.2-0.9,3.5-0.9c1.3,0,2.5,0.3,3.5,0.9c1,0.6,1.8,1.4,2.4,2.5c0.6,1.1,0.8,2.3,0.8,3.8c0,1.4-0.3,2.7-0.8,3.7
		c-0.6,1.1-1.3,1.9-2.4,2.5c-1,0.6-2.2,0.9-3.5,0.9C301.5,268.3,300.3,268,299.2,267.5z M305.7,264.9c0.7-0.8,1-2,1-3.6
		c0-1.6-0.3-2.8-1-3.6c-0.7-0.8-1.6-1.2-2.9-1.2c-1.2,0-2.2,0.4-2.9,1.2c-0.7,0.8-1,2-1,3.6c0,1.6,0.3,2.8,1,3.6
		c0.7,0.8,1.6,1.2,2.9,1.2C304.1,266.1,305,265.7,305.7,264.9z"/>
	<path d="M312.8,267.2c-0.3-0.2-0.6-0.4-0.7-0.6c-0.1-0.2-0.2-0.5-0.2-0.8c0-0.3,0.1-0.6,0.3-0.8c0.2-0.2,0.4-0.3,0.6-0.3
		c0.2,0,0.6,0.2,1.2,0.4c0.6,0.3,1.1,0.5,1.6,0.7c0.5,0.2,1.2,0.3,2,0.3c0.9,0,1.6-0.2,2.1-0.5c0.5-0.3,0.8-0.8,0.8-1.3
		c0-0.4-0.1-0.7-0.3-0.9c-0.2-0.2-0.5-0.4-1-0.6c-0.5-0.2-1.2-0.4-2.2-0.6c-1.6-0.4-2.8-0.8-3.5-1.4c-0.7-0.6-1.1-1.4-1.1-2.5
		c0-0.8,0.2-1.5,0.7-2.2c0.5-0.6,1.1-1.1,1.9-1.5c0.8-0.4,1.8-0.5,2.8-0.5c0.7,0,1.5,0.1,2.2,0.3c0.7,0.2,1.3,0.5,1.9,0.9
		c0.6,0.4,0.9,0.9,0.9,1.4c0,0.3-0.1,0.6-0.3,0.8c-0.2,0.2-0.4,0.3-0.6,0.3c-0.2,0-0.3,0-0.5-0.1c-0.2-0.1-0.4-0.2-0.7-0.4
		c-0.5-0.3-1-0.5-1.4-0.7c-0.4-0.2-1-0.3-1.6-0.3c-0.8,0-1.4,0.2-1.9,0.5s-0.7,0.8-0.7,1.4c0,0.5,0.2,0.9,0.7,1.2
		c0.4,0.3,1.3,0.6,2.5,0.8c1.3,0.3,2.2,0.6,2.9,0.9c0.7,0.3,1.2,0.8,1.5,1.2c0.3,0.5,0.5,1.1,0.5,1.9c0,1.2-0.5,2.2-1.5,2.9
		c-1,0.7-2.4,1.1-4.1,1.1C315.5,268.3,314,267.9,312.8,267.2z"/>
	<path d="M69.5,293.3v7.3c0,0.4-0.1,0.8-0.4,1c-0.3,0.2-0.6,0.4-1.1,0.4c-0.4,0-0.8-0.1-1-0.4c-0.3-0.2-0.4-0.6-0.4-1v-7.2
		c0-1.2-0.2-2-0.7-2.6c-0.5-0.5-1.2-0.8-2.1-0.8c-1.1,0-2.1,0.4-2.7,1.1c-0.7,0.7-1,1.7-1,2.9v6.6c0,0.4-0.1,0.7-0.4,1
		c-0.3,0.2-0.6,0.4-1,0.4c-0.4,0-0.8-0.1-1-0.4c-0.3-0.2-0.4-0.6-0.4-1v-11.4c0-0.4,0.1-0.7,0.4-1c0.3-0.3,0.6-0.4,1-0.4
		c0.4,0,0.7,0.1,1,0.4c0.2,0.2,0.4,0.6,0.4,1v1.2c0.4-0.8,1.1-1.4,1.9-1.9c0.8-0.4,1.7-0.6,2.7-0.6
		C67.8,287.8,69.5,289.6,69.5,293.3z"/>
	<path d="M85,288.2c0.3,0.2,0.4,0.6,0.4,1v11.4c0,0.4-0.1,0.7-0.4,1c-0.3,0.2-0.6,0.4-1,0.4c-0.4,0-0.7-0.1-1-0.4
		c-0.2-0.2-0.4-0.5-0.4-0.9v-1.1c-0.4,0.8-1,1.4-1.8,1.8c-0.8,0.4-1.6,0.6-2.5,0.6c-3.3,0-5-1.8-5-5.5v-7.3c0-0.4,0.1-0.8,0.4-1
		c0.3-0.2,0.6-0.4,1.1-0.4c0.4,0,0.8,0.1,1,0.4c0.3,0.2,0.4,0.6,0.4,1v7.3c0,1.1,0.2,1.9,0.7,2.4c0.4,0.5,1.1,0.8,2.1,0.8
		c1.1,0,2-0.4,2.7-1.1c0.7-0.7,1-1.7,1-2.8v-6.6c0-0.4,0.1-0.7,0.4-1c0.3-0.3,0.6-0.4,1-0.4C84.4,287.8,84.7,288,85,288.2z"/>
	<path d="M100.7,298.7c0.2,0.2,0.3,0.5,0.3,0.8c0,0.5-0.3,1-1,1.4c-0.7,0.4-1.4,0.7-2.1,0.9c-0.8,0.2-1.5,0.3-2.2,0.3
		c-2.2,0-3.9-0.6-5.1-1.9c-1.3-1.3-1.9-3-1.9-5.2c0-1.4,0.3-2.6,0.8-3.7c0.6-1.1,1.3-1.9,2.3-2.5c1-0.6,2.1-0.9,3.4-0.9
		c1.8,0,3.3,0.6,4.3,1.8c1.1,1.2,1.6,2.8,1.6,4.8c0,0.7-0.3,1.1-1,1.1h-8.7c0.2,2.9,1.6,4.3,4.2,4.3c0.7,0,1.3-0.1,1.8-0.3
		c0.5-0.2,1-0.4,1.6-0.7c0.1,0,0.2-0.1,0.5-0.2c0.3-0.1,0.5-0.2,0.6-0.2C100.3,298.4,100.5,298.5,100.7,298.7z M92.5,290.9
		c-0.7,0.7-1,1.7-1.2,2.9h7.2c-0.1-1.3-0.4-2.2-1-2.9c-0.6-0.7-1.4-1-2.5-1C94.1,289.9,93.2,290.2,92.5,290.9z"/>
	<path d="M104.2,300.8c-0.3-0.2-0.6-0.4-0.7-0.6c-0.1-0.2-0.2-0.5-0.2-0.8c0-0.3,0.1-0.6,0.3-0.8c0.2-0.2,0.4-0.3,0.6-0.3
		c0.2,0,0.6,0.2,1.2,0.4c0.6,0.3,1.1,0.5,1.6,0.7c0.5,0.2,1.2,0.3,2,0.3c0.9,0,1.6-0.2,2.1-0.5c0.5-0.3,0.8-0.8,0.8-1.3
		c0-0.4-0.1-0.7-0.3-0.9c-0.2-0.2-0.5-0.4-1-0.6c-0.5-0.2-1.2-0.4-2.2-0.6c-1.6-0.4-2.8-0.8-3.5-1.4c-0.7-0.6-1.1-1.4-1.1-2.5
		c0-0.8,0.2-1.5,0.7-2.2c0.5-0.6,1.1-1.1,1.9-1.5c0.8-0.4,1.8-0.5,2.8-0.5c0.7,0,1.5,0.1,2.2,0.3c0.7,0.2,1.3,0.5,1.9,0.9
		c0.6,0.4,0.9,0.9,0.9,1.4c0,0.3-0.1,0.6-0.3,0.8c-0.2,0.2-0.4,0.3-0.6,0.3c-0.2,0-0.3,0-0.5-0.1c-0.2-0.1-0.4-0.2-0.7-0.4
		c-0.5-0.3-1-0.5-1.4-0.7c-0.4-0.2-1-0.3-1.6-0.3c-0.8,0-1.4,0.2-1.9,0.5c-0.5,0.3-0.7,0.8-0.7,1.4c0,0.5,0.2,0.9,0.7,1.2
		c0.4,0.3,1.3,0.6,2.5,0.8c1.3,0.3,2.2,0.6,2.9,0.9c0.7,0.3,1.2,0.8,1.5,1.2c0.3,0.5,0.5,1.1,0.5,1.9c0,1.2-0.5,2.2-1.5,2.9
		c-1,0.7-2.4,1.1-4.1,1.1C107,302,105.4,301.6,104.2,300.8z"/>
	<path d="M125.1,300.1c0.2,0.2,0.3,0.4,0.3,0.7c0,0.4-0.1,0.7-0.4,0.9c-0.3,0.2-0.7,0.3-1.3,0.2l-0.8-0.1c-1.5-0.1-2.6-0.6-3.4-1.4
		c-0.7-0.8-1.1-2-1.1-3.6v-6.6h-1.7c-0.8,0-1.2-0.4-1.2-1.1c0-0.3,0.1-0.6,0.3-0.8c0.2-0.2,0.5-0.3,0.9-0.3h1.7v-2.9
		c0-0.4,0.1-0.8,0.4-1c0.3-0.2,0.6-0.4,1-0.4c0.4,0,0.8,0.1,1,0.4c0.3,0.2,0.4,0.6,0.4,1v2.9h2.8c0.4,0,0.7,0.1,0.9,0.3
		c0.2,0.2,0.3,0.5,0.3,0.8c0,0.4-0.1,0.6-0.3,0.8c-0.2,0.2-0.5,0.3-0.9,0.3h-2.8v6.8c0,0.9,0.2,1.5,0.5,1.9c0.4,0.4,0.9,0.6,1.7,0.7
		l0.8,0.1C124.7,299.8,124.9,299.9,125.1,300.1z"/>
	<path d="M136,289c0,0.4-0.1,0.7-0.3,0.9c-0.2,0.2-0.6,0.3-1.1,0.4l-0.8,0.1c-1.2,0.1-2.1,0.5-2.6,1.2c-0.6,0.7-0.9,1.6-0.9,2.6v6.4
		c0,0.4-0.1,0.8-0.4,1c-0.3,0.2-0.6,0.3-1,0.3c-0.4,0-0.8-0.1-1-0.3c-0.3-0.2-0.4-0.6-0.4-1v-11.4c0-0.4,0.1-0.8,0.4-1
		c0.3-0.2,0.6-0.4,1-0.4c0.4,0,0.7,0.1,0.9,0.4c0.3,0.2,0.4,0.6,0.4,1v1.3c0.4-0.8,0.9-1.4,1.6-1.9c0.7-0.4,1.5-0.7,2.4-0.8l0.4,0
		C135.5,287.8,136,288.2,136,289z"/>
	<path d="M139.8,301.1c-1-0.6-1.8-1.4-2.4-2.5c-0.6-1.1-0.8-2.3-0.8-3.7c0-1.4,0.3-2.7,0.8-3.8c0.6-1.1,1.3-1.9,2.4-2.5
		c1-0.6,2.2-0.9,3.5-0.9c1.3,0,2.5,0.3,3.5,0.9c1,0.6,1.8,1.4,2.4,2.5c0.6,1.1,0.8,2.3,0.8,3.8c0,1.4-0.3,2.7-0.8,3.7
		c-0.6,1.1-1.3,1.9-2.4,2.5c-1,0.6-2.2,0.9-3.5,0.9C142,302,140.8,301.7,139.8,301.1z M146.3,298.5c0.7-0.8,1-2,1-3.6
		c0-1.6-0.3-2.8-1-3.6c-0.7-0.8-1.6-1.2-2.9-1.2c-1.2,0-2.2,0.4-2.9,1.2c-0.7,0.8-1,2-1,3.6c0,1.6,0.3,2.8,1,3.6
		c0.7,0.8,1.6,1.2,2.9,1.2S145.6,299.3,146.3,298.5z"/>
	<path d="M153.3,300.8c-0.3-0.2-0.6-0.4-0.7-0.6s-0.2-0.5-0.2-0.8c0-0.3,0.1-0.6,0.3-0.8c0.2-0.2,0.4-0.3,0.6-0.3
		c0.2,0,0.6,0.2,1.2,0.4c0.6,0.3,1.1,0.5,1.6,0.7c0.5,0.2,1.2,0.3,2,0.3c0.9,0,1.6-0.2,2.1-0.5c0.5-0.3,0.8-0.8,0.8-1.3
		c0-0.4-0.1-0.7-0.3-0.9c-0.2-0.2-0.5-0.4-1-0.6c-0.5-0.2-1.2-0.4-2.2-0.6c-1.6-0.4-2.8-0.8-3.5-1.4c-0.7-0.6-1.1-1.4-1.1-2.5
		c0-0.8,0.2-1.5,0.7-2.2c0.5-0.6,1.1-1.1,1.9-1.5c0.8-0.4,1.8-0.5,2.8-0.5c0.7,0,1.5,0.1,2.2,0.3c0.7,0.2,1.3,0.5,1.9,0.9
		c0.6,0.4,0.9,0.9,0.9,1.4c0,0.3-0.1,0.6-0.3,0.8c-0.2,0.2-0.4,0.3-0.6,0.3c-0.2,0-0.3,0-0.5-0.1c-0.2-0.1-0.4-0.2-0.7-0.4
		c-0.5-0.3-1-0.5-1.4-0.7c-0.4-0.2-1-0.3-1.6-0.3c-0.8,0-1.4,0.2-1.9,0.5s-0.7,0.8-0.7,1.4c0,0.5,0.2,0.9,0.7,1.2
		c0.4,0.3,1.3,0.6,2.5,0.8c1.3,0.3,2.2,0.6,2.9,0.9c0.7,0.3,1.2,0.8,1.5,1.2c0.3,0.5,0.5,1.1,0.5,1.9c0,1.2-0.5,2.2-1.5,2.9
		c-1,0.7-2.4,1.1-4.1,1.1C156.1,302,154.6,301.6,153.3,300.8z"/>
	<path d="M184.7,288.7c0.9,0.6,1.6,1.4,2.2,2.5c0.5,1.1,0.8,2.3,0.8,3.8c0,1.4-0.3,2.6-0.8,3.7c-0.5,1.1-1.2,1.9-2.1,2.5
		c-0.9,0.6-2,0.9-3.2,0.9c-1,0-1.9-0.2-2.7-0.7c-0.8-0.4-1.4-1.1-1.8-1.9v6.3c0,0.4-0.1,0.7-0.4,0.9c-0.3,0.2-0.6,0.4-1,0.4
		c-0.4,0-0.8-0.1-1.1-0.4c-0.3-0.2-0.4-0.6-0.4-1v-16.4c0-0.4,0.1-0.7,0.4-1c0.3-0.3,0.6-0.4,1-0.4c0.4,0,0.7,0.1,1,0.4
		c0.3,0.3,0.4,0.6,0.4,1v1.2c0.4-0.8,1-1.5,1.8-1.9c0.8-0.4,1.7-0.7,2.7-0.7C182.7,287.8,183.8,288.1,184.7,288.7z M183.7,298.5
		c0.7-0.8,1-2,1-3.5c0-1.6-0.3-2.8-1-3.6c-0.7-0.9-1.6-1.3-2.8-1.3c-1.2,0-2.2,0.4-2.8,1.3s-1,2-1,3.6s0.3,2.8,1,3.6
		s1.6,1.3,2.8,1.3C182.1,299.8,183.1,299.3,183.7,298.5z"/>
	<path d="M199.3,289c0,0.4-0.1,0.7-0.3,0.9c-0.2,0.2-0.6,0.3-1.1,0.4l-0.8,0.1c-1.2,0.1-2.1,0.5-2.6,1.2c-0.6,0.7-0.9,1.6-0.9,2.6
		v6.4c0,0.4-0.1,0.8-0.4,1c-0.3,0.2-0.6,0.3-1,0.3c-0.4,0-0.8-0.1-1-0.3c-0.3-0.2-0.4-0.6-0.4-1v-11.4c0-0.4,0.1-0.8,0.4-1
		c0.3-0.2,0.6-0.4,1-0.4c0.4,0,0.7,0.1,0.9,0.4c0.3,0.2,0.4,0.6,0.4,1v1.3c0.4-0.8,0.9-1.4,1.6-1.9c0.7-0.4,1.5-0.7,2.4-0.8l0.4,0
		C198.8,287.8,199.3,288.2,199.3,289z"/>
	<path d="M203.2,301.1c-1-0.6-1.8-1.4-2.4-2.5c-0.6-1.1-0.8-2.3-0.8-3.7c0-1.4,0.3-2.7,0.8-3.8c0.6-1.1,1.3-1.9,2.4-2.5
		c1-0.6,2.2-0.9,3.5-0.9c1.3,0,2.5,0.3,3.5,0.9c1,0.6,1.8,1.4,2.4,2.5c0.6,1.1,0.8,2.3,0.8,3.8c0,1.4-0.3,2.7-0.8,3.7
		c-0.6,1.1-1.3,1.9-2.4,2.5c-1,0.6-2.2,0.9-3.5,0.9C205.4,302,204.2,301.7,203.2,301.1z M209.6,298.5c0.7-0.8,1-2,1-3.6
		c0-1.6-0.3-2.8-1-3.6c-0.7-0.8-1.6-1.2-2.9-1.2c-1.2,0-2.2,0.4-2.9,1.2c-0.7,0.8-1,2-1,3.6c0,1.6,0.3,2.8,1,3.6
		c0.7,0.8,1.6,1.2,2.9,1.2S208.9,299.3,209.6,298.5z"/>
	<path d="M226.6,288.1c0.2-0.1,0.4-0.2,0.7-0.2c0.4,0,0.7,0.1,0.9,0.4c0.3,0.2,0.4,0.5,0.4,0.9c0,0.2,0,0.4-0.1,0.5l-7.8,16.6
		c-0.1,0.3-0.3,0.5-0.5,0.6c-0.2,0.1-0.4,0.2-0.7,0.2c-0.3,0-0.6-0.1-0.9-0.3c-0.3-0.2-0.4-0.5-0.4-0.8c0-0.2,0-0.3,0.1-0.6l1.9-4.1
		l-5.4-11.5c-0.1-0.2-0.1-0.3-0.1-0.5c0-0.4,0.1-0.7,0.4-0.9c0.3-0.2,0.6-0.4,1-0.4c0.6,0,1,0.3,1.2,0.8l4.3,9.7l4.3-9.6
		C226.2,288.4,226.4,288.2,226.6,288.1z"/>
	<path d="M242.1,298.7c0.2,0.2,0.3,0.5,0.3,0.8c0,0.5-0.3,1-1,1.4c-0.7,0.4-1.4,0.7-2.1,0.9c-0.8,0.2-1.5,0.3-2.2,0.3
		c-2.2,0-3.9-0.6-5.1-1.9c-1.3-1.3-1.9-3-1.9-5.2c0-1.4,0.3-2.6,0.8-3.7c0.6-1.1,1.3-1.9,2.3-2.5c1-0.6,2.1-0.9,3.4-0.9
		c1.8,0,3.3,0.6,4.3,1.8c1.1,1.2,1.6,2.8,1.6,4.8c0,0.7-0.3,1.1-1,1.1h-8.7c0.2,2.9,1.6,4.3,4.2,4.3c0.7,0,1.3-0.1,1.8-0.3
		c0.5-0.2,1-0.4,1.6-0.7c0.1,0,0.2-0.1,0.5-0.2s0.5-0.2,0.6-0.2C241.8,298.4,242,298.5,242.1,298.7z M234,290.9
		c-0.7,0.7-1,1.7-1.2,2.9h7.2c-0.1-1.3-0.4-2.2-1-2.9c-0.6-0.7-1.4-1-2.5-1C235.5,289.9,234.7,290.2,234,290.9z"/>
	<path d="M248,301.1c-1-0.6-1.8-1.4-2.3-2.5c-0.6-1.1-0.8-2.3-0.8-3.7c0-1.4,0.3-2.7,0.9-3.8c0.6-1.1,1.4-1.9,2.4-2.5
		c1-0.6,2.2-0.9,3.5-0.9c0.7,0,1.4,0.1,2.1,0.3c0.7,0.2,1.4,0.5,1.9,0.8c0.6,0.4,0.9,0.9,0.9,1.4c0,0.3-0.1,0.6-0.3,0.8
		c-0.2,0.2-0.4,0.3-0.6,0.3c-0.2,0-0.3,0-0.5-0.1c-0.2-0.1-0.4-0.2-0.6-0.4c-0.5-0.3-0.9-0.5-1.3-0.7c-0.4-0.2-0.9-0.2-1.4-0.2
		c-1.3,0-2.3,0.4-3,1.3c-0.7,0.9-1.1,2.1-1.1,3.6c0,1.5,0.3,2.7,1,3.5c0.7,0.8,1.7,1.2,2.9,1.2c0.6,0,1.1-0.1,1.5-0.3
		c0.4-0.2,0.9-0.4,1.3-0.7c0.2-0.1,0.4-0.2,0.6-0.3c0.2-0.1,0.4-0.1,0.6-0.1c0.3,0,0.5,0.1,0.6,0.3c0.2,0.2,0.3,0.5,0.3,0.8
		c0,0.3-0.1,0.5-0.2,0.7s-0.4,0.4-0.7,0.7c-0.6,0.4-1.2,0.7-2,0.9c-0.7,0.2-1.5,0.3-2.3,0.3C250.2,302,249,301.7,248,301.1z"/>
	<path d="M266.8,300.1c0.2,0.2,0.3,0.4,0.3,0.7c0,0.4-0.1,0.7-0.4,0.9c-0.3,0.2-0.7,0.3-1.3,0.2l-0.8-0.1c-1.5-0.1-2.6-0.6-3.4-1.4
		c-0.7-0.8-1.1-2-1.1-3.6v-6.6h-1.7c-0.8,0-1.2-0.4-1.2-1.1c0-0.3,0.1-0.6,0.3-0.8c0.2-0.2,0.5-0.3,0.9-0.3h1.7v-2.9
		c0-0.4,0.1-0.8,0.4-1c0.3-0.2,0.6-0.4,1-0.4c0.4,0,0.8,0.1,1,0.4c0.3,0.2,0.4,0.6,0.4,1v2.9h2.8c0.4,0,0.7,0.1,0.9,0.3
		c0.2,0.2,0.3,0.5,0.3,0.8c0,0.4-0.1,0.6-0.3,0.8c-0.2,0.2-0.5,0.3-0.9,0.3h-2.8v6.8c0,0.9,0.2,1.5,0.5,1.9c0.4,0.4,0.9,0.6,1.7,0.7
		l0.8,0.1C266.3,299.8,266.6,299.9,266.8,300.1z"/>
	<path d="M271.5,301.1c-1-0.6-1.8-1.4-2.4-2.5c-0.6-1.1-0.8-2.3-0.8-3.7c0-1.4,0.3-2.7,0.8-3.8c0.6-1.1,1.3-1.9,2.4-2.5
		c1-0.6,2.2-0.9,3.5-0.9c1.3,0,2.5,0.3,3.5,0.9c1,0.6,1.8,1.4,2.4,2.5c0.6,1.1,0.8,2.3,0.8,3.8c0,1.4-0.3,2.7-0.8,3.7
		c-0.6,1.1-1.3,1.9-2.4,2.5c-1,0.6-2.2,0.9-3.5,0.9C273.7,302,272.6,301.7,271.5,301.1z M278,298.5c0.7-0.8,1-2,1-3.6
		c0-1.6-0.3-2.8-1-3.6s-1.6-1.2-2.9-1.2c-1.2,0-2.2,0.4-2.9,1.2c-0.7,0.8-1,2-1,3.6c0,1.6,0.3,2.8,1,3.6c0.7,0.8,1.6,1.2,2.9,1.2
		C276.3,299.8,277.3,299.3,278,298.5z"/>
	<path d="M285,300.8c-0.3-0.2-0.6-0.4-0.7-0.6c-0.1-0.2-0.2-0.5-0.2-0.8c0-0.3,0.1-0.6,0.3-0.8c0.2-0.2,0.4-0.3,0.6-0.3
		c0.2,0,0.6,0.2,1.2,0.4c0.6,0.3,1.1,0.5,1.6,0.7c0.5,0.2,1.2,0.3,2,0.3c0.9,0,1.6-0.2,2.1-0.5c0.5-0.3,0.8-0.8,0.8-1.3
		c0-0.4-0.1-0.7-0.3-0.9c-0.2-0.2-0.5-0.4-1-0.6c-0.5-0.2-1.2-0.4-2.2-0.6c-1.6-0.4-2.8-0.8-3.5-1.4c-0.7-0.6-1.1-1.4-1.1-2.5
		c0-0.8,0.2-1.5,0.7-2.2c0.5-0.6,1.1-1.1,1.9-1.5c0.8-0.4,1.8-0.5,2.8-0.5c0.7,0,1.5,0.1,2.2,0.3c0.7,0.2,1.3,0.5,1.9,0.9
		c0.6,0.4,0.9,0.9,0.9,1.4c0,0.3-0.1,0.6-0.3,0.8c-0.2,0.2-0.4,0.3-0.6,0.3c-0.2,0-0.3,0-0.5-0.1c-0.2-0.1-0.4-0.2-0.7-0.4
		c-0.5-0.3-1-0.5-1.4-0.7c-0.4-0.2-1-0.3-1.6-0.3c-0.8,0-1.4,0.2-1.9,0.5s-0.7,0.8-0.7,1.4c0,0.5,0.2,0.9,0.7,1.2
		c0.4,0.3,1.3,0.6,2.5,0.8c1.3,0.3,2.2,0.6,2.9,0.9c0.7,0.3,1.2,0.8,1.5,1.2c0.3,0.5,0.5,1.1,0.5,1.9c0,1.2-0.5,2.2-1.5,2.9
		c-1,0.7-2.4,1.1-4.1,1.1C287.8,302,286.3,301.6,285,300.8z"/>
</g>
</svg>
