<?xml version="1.0" encoding="utf-8"?>
<!-- Generator: Adobe Illustrator 25.3.1, SVG Export Plug-In . SVG Version: 6.00 Build 0)  -->
<svg version="1.1" id="Capa_1" xmlns="http://www.w3.org/2000/svg" xmlns:xlink="http://www.w3.org/1999/xlink" x="0px" y="0px"
	 width="1205.4px" height="1260.3px" viewBox="0 0 1205.4 1260.3" style="enable-background:new 0 0 1205.4 1260.3;"
	 xml:space="preserve">
<style type="text/css">
	.st0{fill:#CDCCCC;}
	.st1{fill:#FFFFFF;}
	.st2{fill:#020203;}
</style>
<g>
	<ellipse class="st0" cx="202.8" cy="1187.1" rx="179.8" ry="44.2"/>
	<path class="st1" d="M166,1078.2c0.3-9.4,0.2-19.3-1.3-28.5c-2.2,3.7-4,7-6.4,10.7c-1.5-0.2-1.5-0.3-3.2-0.3
		c-2.7-8.7-5-17.4-3.9-26.8c-3.7,0.2-7,0.3-10.6,0.5c8.7-12.2,15.9-26.3,16.8-41.4c1.3-14.2,7-28.2,4.7-42.4
		c-2.2-8.5-6.4-16.3-8.2-25c-6-27.1-4.5-55.1-1.3-82.4c-4.7-6-13.6-5-20.8-6.4c0.5-1.3,1.5-3.9,2.2-4.9c-3.5-3.2-8.2-5.5-9-10.4
		c-0.2-0.7-0.3-1.5-0.5-2.2c-3.9-8.7-4.7-20.1-4.2-32.3c-0.8-16.6,0.3-33.7,4.4-49.9c3.2-10.2,8-18.9,13.9-27.1
		c1.5-2.3,3.5-4.5,5-6.7c-0.8-5.2-1.5-10.7-1.3-16.1c0.2-1.3-0.3-2.2-0.5-2.8c0.8-0.3,1.7-0.5,2.7-0.5h0.2
		c-0.5-5.2-1.5-10.7-2.2-15.9c2.2,2.2,4.5,4,6.7,6.2c4.5,3.9,11.2-2.7,6.7-6.7c-11.2-9-20.6-20.1-29.2-31.7
		c-6-8-11.4-16.1-16.6-24.8c-0.5-2.2-0.8-4.5-1.5-6.5c0.5-0.8,0.8-2.2,0.5-3.9c-0.8-2.5-1.5-4.7-2.3-7.4c-0.3-1.5-0.3-3.5-0.3-4.7
		l-0.8-0.5c-2.7-11.2-4.5-22.5-5-33.7c4.7-13.2,11.6-26,14.7-39.5c0.5-2.2-0.5-3.9-2.2-4.9c4.7-4.7,9-9.6,11.6-15.9
		c7.5-15.8,3.9-33.7,7-50.3c0.5-4.2,2.2-8.2,3.7-12.4c-0.5-0.3-0.8-0.5-1.3-0.8c0.2-1.5-0.2-2.8-0.5-4.4c-0.2-0.3-0.3-0.5-0.3-0.5
		c-1.3-1.7-2.2-4.2-2.8-5.5c0-0.2-0.2-0.3-0.2-0.3s0.2-0.2,0.3-0.2c-0.2,0-0.2,0-0.3,0.2l-0.5-1.3c-0.5-0.7-1.3-1.5-1.8-2.2
		c-1.5-1.5-2.8-2.7-3.9-3.9c-1.2-1.3-2.2-2.7-3-4.2c-0.5-2.7-1.2-5.2-1.5-8.2c-0.8-2.2-1.5-4.5-2.2-6.9c-1.5-8.5-1.3-18.6,3.5-26.3
		c2.7-10.6,8-20.1,16.6-27.8c0.3,0.2,0.5,0.3,0.7,0.3c-0.3-0.2-0.3-0.3-0.5-0.5c11.1-1.7,23.5-6.4,33.7-0.2c4.7,2.3,9,5,14.7,4.2
		c1.3,0.5,3.9,2.2,5,2.7c3.7,4.7,7,9,10.4,14.2c35.9-17.9,78.4-23.6,117.5-14.7c2.2,1.3,4.5,2.2,7.5,2.2h0.7c0.8,0.3,2.2,0.5,3,0.7
		v-1.3c2.5-0.5,4.5-1.8,6-3.7c4.9-1.2,8.2-4.5,9.2-8.7c7-5.5,14.7-10.2,22.8-13.4c9,1.5,19.8,2.8,26.3,9c1.7,0.3,3,1.3,3.9,2.7
		c0.5,19.4-3.5,38.4-6.2,58c-3.2,4-6.9,8-11.2,10.9c-4.9,3.5-0.3,11.4,4.7,8.2c1.5-1.2,3.5-2.2,4.7-3.7c-0.7,9.2,0.2,18.9,3.7,28
		c4,10.6,10.6,19.9,15.9,30c1.2,2.2,3,2.7,4.7,2.2c3.7,3.2,7.2,6,11.2,8.5c2.7,0.5,5.7,0.8,8.4,1.5c0.2,1.5,0.2,3.2,0.3,4.5
		c0.5,0.3,0.7,0.5,1.3,0.8c2.7,2.2,5.5,4.5,8.2,7c1.7,4.5,3.5,9,4.7,13.4l-0.7-0.5c0.3,0.5,0.5,0.8,1.2,1.5
		c3.9,14.1,6.9,28.5,8.2,43.7c-1.2,10.6-1.3,20.8,0.2,31.2c-0.3,2.5-0.5,4.7-0.5,7c-0.3,2.7-0.5,5-1.2,7.9
		c-6,13.1-13.9,25.8-25,34.4c-4.7,3.9,1.8,10.6,6.7,6.7c1.2-0.8,2.2-1.7,3.5-2.7c-8,9.4-17.4,18.6-20.8,31c-0.5,2.5,1.2,5,3.7,6
		c-0.3,2.7-0.7,5.5-0.8,8.2h0.2c1.5,0.5,2.8,0.8,4.5,1.3c-0.8,1.5-1.2,3.2-0.5,4.9c6.4,6.4,11.7,13.2,15.9,21.1
		c15.4,27,17.9,60.2,8.7,89.7c-2.2,7-6.9,12.4-11.7,17.3c-2.5,3.5-5.2,6.4-8.7,9.4c7.2,28.8,9,59.7,3.5,89.1
		c-1.8,11.6-11.2,21.3-9.2,33.7c-0.3,18.6,8.2,35.4,13.1,52.6c3.2,11.7,7.5,23,11.4,34.9c-3.7-3-7-6.4-10.6-9c0,7-0.2,13.9-0.5,20.8
		c-4.4,6.9-6,14.7-6.4,22.8c10.2,0.3,20.4-0.3,29.5,4.9c10.4,6.7,18.9,16.1,23.8,27.1c3.9,16.9,9.4,34.5,5.5,51.9
		c-9,13.2-26.5,15.6-40.9,20.3c-15.4,5.7-31.5,5-47.3,8.9c-28,3.9-53-11.6-79.4-16.9c-7-8.2-16.6-13.2-24.8-19.9
		c-11.2,9.2-22,19.8-35.9,24.3c-19.8,7-39,14.6-59.3,19.4c-24.6,5.5-48.6-5.7-73.1-8.7c-9.2-6.2-24.3-9.4-26-23
		c-0.2-17.8,5.2-35.2,11.9-51.3C128.5,1086.8,147.4,1077.6,166,1078.2L166,1078.2z"/>
	<path class="st2" d="M372.1,447.1c-15.8,9-33.7,11.1-50.8,12.9c-6.4-15.8,7-13.2,12.4-15.4c15.6-3.2,30.2-10.6,44.2-17.9
		c2.5-1.5,4.7,0.8,7,2.2c0.8,6-0.3,11.2-2.8,15.9C378.8,446.3,375.3,445.3,372.1,447.1L372.1,447.1z M344.5,608.5
		c0.2-0.2,0.2-0.3,0.3-0.5C344.6,608.4,344.6,608.5,344.5,608.5z M236.2,628c8.7,16.6,22.6,30.3,41.7,32.2
		c12.4,0.7,23.8-2.7,33.5-8.7c-10.4,7.9-22.8,11.7-36.9,11.2c-18.6-1.8-32.7-14.9-41.4-31.2C234.4,630.3,235.5,629,236.2,628z
		 M227.7,635c-0.2-0.3-0.3-0.5-0.3-0.8c0.8-0.3,2.2-0.5,2.8-0.8C229.3,633.7,228.8,634.5,227.7,635z M331.6,637.7
		c-1.2-0.8-2.2-1.7-3.5-2.7c0.7-1.2,1.5-2.2,2.3-3.7l0.2,0.2c1.3,1.3,2.7,2.5,4.2,3.7c-6.4,10.4-14.6,19.3-24.8,26.3
		C319.2,654.9,326.4,646.7,331.6,637.7L331.6,637.7z M292.5,633.2c-8.7-0.5-18.9-0.2-26-7C275.6,625.8,287,624.6,292.5,633.2z
		 M298.2,609.9c-17.4,1.5-34.9,0.8-51.9-1.5c-4.4-0.5-2.5-6,1.7-5c13.1,1.8,26,2.7,39,2.2c6.7-0.3,13.2-0.8,20.1-1.8
		c4.5-0.5,10.6,0.3,10.4-6c0.5-3.5,7.2-1.8,6.5,1.5C323.8,611.2,306.6,608.5,298.2,609.9L298.2,609.9z M244.9,384
		c3.9-0.5,8-1.3,12.2-1.5C253.3,384,249.3,384.3,244.9,384z"/>
	<path class="st2" d="M92.6,579.2c3.7,1.3,7,2.7,10.6,3.9c0.5,14.7,6.5,28.3,8,42.7c1.3-0.3,3.9-0.8,4.7-1.5
		c5.5,8,10.7,16.6,16.3,24.6c-1.2,0.3-2.2,0.3-3.5,0.5c-0.5,0.5-1.3,1.2-1.8,1.5c2.5,0.3,5,0.3,7.5,0.8c1.5,2.2,3.5,4.5,5,6.5
		c0.5,7,1.8,13.9,2.7,20.8h-0.2c-0.7,0.3-1.5,0.5-2.7,0.5c0.5,0.7,0.7,1.7,0.7,3c-0.3,5.7,0.5,11.2,1.5,16.3c-1.7,2.2-3.7,4.5-5,6.9
		c-6.2,8.5-11.1,17.8-13.9,27.6c-4,16.6-5,33.7-3.9,50.6c-0.5,12.4,0.5,24,4.5,32.7c0.2,0.7,0.3,1.5,0.5,2.3c0.8,4.7,6.2,7,9,10.4
		c-0.5,1.3-1.5,3.9-2.2,4.9c7,1.3,16.1,0.5,20.8,6.4c-3.2,27.6-4.2,55.8,1.7,83.1c2.2,8.7,6.4,16.6,8.4,25
		c1.3,8.7-0.2,17.1-1.5,25.6c-3.2,9.6-4.9,19.1-4.7,29.2c-2.8,10.9-8.4,20.8-14.7,30.2c3.7-0.2,7-0.3,10.7-0.5
		c-0.8,9,1.5,18.3,4.2,27c1.5,0.2,1.5,0.2,3.2,0.3c1.8-3.9,3.9-7.2,6.4-10.9c1.5,9.4,1.5,19.4,1.5,29c-18.9-0.5-38,8.7-50.8,22.3
		c-6.5,16.6-11.7,34.4-11.7,51.9c1.3,13.2,16.6,16.9,26.1,23c24.3,2.8,48.6,13.6,73.6,8.2c20.3-4.9,39.9-13.1,59.7-19.9
		c14.1-4.7,25-15.6,36-25c8.5,6.5,18.1,11.7,25,19.9c26.8,5,52.3,20.4,80.1,16.6c15.8-3.9,32.3-3.7,47.8-9
		c14.2-5,31.7-7.5,41.2-20.8c3.9-17.8-1.7-35.4-6-52.3c-5-11.2-13.6-20.8-24.1-27.3c-9-5-19.8-4.5-30-4.7c0.5-8,2.2-15.9,6.4-23
		c0.3-7,0.5-14.1,0.5-21.1c3.7,3,7,6.4,10.6,9c-3.9-11.6-8.7-23-11.7-34.9c-4.7-17.8-13.4-34.5-13.4-53.1c-2.2-12.4,7.5-22.1,9-33.8
		c5.7-30,3.9-61-3.9-90c3.5-3.2,6.4-6.4,8.7-9.6c4.9-4.9,9.9-10.6,11.7-17.4c9-29.7,6.4-63.3-9-90.3c-4.2-8-10.2-14.7-16.3-21.1
		c-0.5-1.8-0.3-3.7,0.5-4.9c-1.5-0.5-3.5-0.8-4.5-1.3c0,0-0.2,0-0.2-0.2c0.7-7.4,1.8-14.7,2.7-22c3.5-3.9,6.5-7.5,9.6-11.4l4.5-0.5
		c-0.5-0.5-1.5-1.3-2.2-2.2c-0.2,0-0.2,0-0.3-0.2c3.2-3.9,6.4-7.9,8.9-11.9c10.6-25,17.3-51.6,15.6-78.8c1.5-0.2,4.7-0.2,6.4-0.3
		c-2.8-17.8-9-34.9-19.8-49.4c4.2,2.3,8.5,4.5,12.9,6.7c-6-11.2-15.6-19.3-25-27.1c-0.5-0.3-0.7-0.5-1.3-0.8l-0.3-4.7
		c-2.7-0.5-6-0.8-8.5-1.3c-9-6.4-18.3-12.9-22.8-23.3c-4.2-9.9-7-20.1-10.6-30.5h0.3c-0.5-1.3-0.5-2.7-0.5-4
		c0.2-1.3,0.3-2.7,0.5-3.9c0.2-0.5,0.3-0.8,0.5-1.3c-1.3-1.7-1.3-4,0.3-6.4c10.9-14.6,17.4-35.5,14.6-53.5
		c-0.8-6.4-3.5-11.7-6.2-17.4c-1.3,0.2-2.5,0.3-3.9,0.5c-0.3-2.7-2.2-4.9-5-5.7c-7-6.4-17.8-7.5-26.8-9c-8,3.9-15.9,8.2-22.8,13.6
		c-1.3,4.2-4.5,7.9-9.4,8.9c-1.5,1.5-3.7,2.8-6.2,3.7v1.2c-0.8-0.3-2.2-0.5-3-0.7H323c-3,0-5.7-0.7-7.9-2.2
		c-39.5-8.7-82.3-2.7-118.3,15.6c-3.7-4.7-7-9.2-10.6-14.2c-1.3-0.5-3.9-2.2-5-2.7c-5.5,0.8-10.4-1.8-14.9-4
		c-10.6-6.2-23-1.5-34.4,0.3c0.3,0.2,0.3,0.3,0.5,0.5c-0.3-0.2-0.5-0.3-0.7-0.3c-8.7,7.5-14.1,17.4-16.6,28.3
		c-4.5,7.9-4.7,17.9-3,26.5c0.5,2.5,1.3,4.7,2.2,7c0.5,2.7,0.8,5.5,1.5,8.2c0.8,1.5,2.2,2.8,3.2,4.2c0.7,0.8,2.3,2.2,3.9,3.9
		c0.7,0.7,1.3,1.5,1.8,2.2l0.5,1.3c0.2,0,0.2,0,0.3-0.2l-0.2,0.2c0.2,0.2,0.2,0.3,0.2,0.3c0.5,1.3,1.7,3.9,3,5.7
		c0.2,0.3,0.2,0.5,0.3,0.5c0.5,1.5,0.5,2.8,0.5,4.4c0.5,0.3,0.8,0.5,1.3,0.8c-1.5,3.9-2.8,8-3.7,12.4c-3,16.8,0.5,34.9-7,50.8
		c-4.7,11.6-15.6,18.9-23,28.5l9.9-0.5c-3.5,5.5-6.4,11.2-8.7,16.9C96.6,546.5,91.8,564.6,92.6,579.2L92.6,579.2z M401.4,359v-0.3
		c0.2,2.5-0.2,4.7-0.5,7.4c-0.2-0.5-0.2-1.3-0.3-1.8C400.1,362.2,400.3,360.3,401.4,359z M411.7,463.6c-6-0.8-11.4-2.2-17.3-2.7
		c-8-0.8-16.1-1.5-24.3-0.8c-10.6,0.5-20.8,2.5-31.2,4.2c-10.6,1.8-20.6,5-31.2,7.2c-7,1.5-38.9,5.2-46.1,5.5
		c-1.5-0.2-3-0.2-4.5-0.3c-13.2-0.8-26.1-3.7-39-5.7c3.7-0.8,7,0.5,10.6-0.2c3.7-3,6-7,6-11.2c-2.2-1.3-4-3.7-7-2.7
		c-15.9,3-32,6.4-48.4,6c-5.7,0.5-18.6-3.5-15.6,8.2c-3.2,0.5-6.4,1.2-9,1.7c-7.9,1.7-14.9,4.7-22.8,6.4c-0.8,0.2-1.7,0.3-2.7,0.5
		c3.9-16.3,2.5-35,7-51.1c-0.2-1.3,0.3-2.7,1.2-3.9c0.8-1.2,1.3-2.2,1.7-3.5l-1.3-2.7c2.8-1.5,6-3.9,7.2-4.7c2.5-1.5,4.7-3.7,7.2-5
		c2.2-1.5,6.5-3.7,7.5-6l0.5-1.3c-0.3-0.7-1.8-2.2-3.5-3.2c0.2,0.2,0.2,0.3,0.3,0.3c-0.3,0-0.7,0.2-1.3,0c-2.7-1.5-4.7-3.5-6.5-5.7
		c0.8,2.2,2.3,3.9,3.9,6c-0.8,0-1.8-0.2-2.7,0.2c-3.5-2.2-6.4-4.9-8.7-8.4c-1.5-1.7-2.5-3.9-3.9-6c0.3,4.7,2.7,9,4.5,13.2
		c-9.6-8-13.2-20.8-14.6-32.7c-1.2,5-0.3,10.7,0.2,15.9c-3.7-8-3.7-17.3-1.5-26c-0.3-0.7-0.3-1.5-0.5-2.3c-0.3,0.3-0.5,0.5-0.5,0.8
		c2.2-4.9,6-9.2,11.1-12.7c1.5-1.2,3.7-1.3,4.7-0.7c12.7-6,31.5-1.5,41.2,9c1.3,0.5,2.7,0.8,3.9,1.5c0.8,0.3,1.5,0.7,2.2,1.3
		c0.5-0.8,0.8-1.8,1.5-2.7c1.5,5.2,3.9,10.6,6.2,15.6c0.8-0.8,2.5-1.5,4.2-1.5v-5.2c9-6,19.8-8.7,30.5-10.2c0.5,0.5,0.8,1.3,1.5,1.8
		c2.7-2.2,6-3.9,9.9-4.7c1.8-0.5,3.9-0.5,6-0.7l-0.5-0.3c25.8-6.4,53-7,78.1,0.5c0.3,2.2,0.7,3.9,1.2,6c0.8-0.7,2.5-1.3,4-1.3h0.5
		l1.3-4.4c1.5-0.2,4.5-0.5,6.2-0.5c0.3-1.5,0.7-5,0.8-6.9c9-8.2,18.3-20.8,32.3-19.8c6-0.5,11.1,1.3,15.8,4
		c-0.3,0.2-0.3,0.3-0.5,0.5c-0.5,0.2-1.3,0.2-2.2,0.2c2.3,2.7,4.5,6,6.4,8.7c0,0.3-0.2,0.5-0.2,0.5c1.3,2.2,2.3,4.5,2.7,7
		c-0.8-1.5-1.8-2.8-3.2-4c-0.3,0.7-0.3,1.5-0.5,2.3c1.7,8.7,1.8,17.8-1.5,26c0.3-5.2,1.3-10.9,0.2-15.9c-1.3,11.7-4.7,25-14.6,32.7
		c1.8-4.4,4-8.7,4.5-13.2c-1.5,1.8-2.5,3.9-3.9,6c-2.3,3.5-5.2,6.4-8.7,8.4c-0.8-0.3-1.7-0.2-2.7-0.2c1.5-1.7,2.8-3.9,3.9-6
		c-1.8,2.2-3.9,4-6.5,5.7h-1.3c0.2-0.2,0.2-0.3,0.3-0.3c-1.3,0.8-3,2.3-3.5,3.2l0.5,1.3c0.8,2.3,5.5,4.4,7.5,6
		c2.5,1.7,4.7,3.7,7.2,5c2.5,1.5,8.7,6.4,12.2,6.7c-0.8,0.8-1.7,1.8-2.7,2.8c1.3,0.8,2.7,2.2,3.9,3.2c3.9,10.6,6.7,21.1,10.2,31.5
		C398.2,449,404.4,456.7,411.7,463.6L411.7,463.6z M224,532.1c6.4-2.7,12.2-6.4,18.6-8c0.8-0.5,1.7-0.7,2.7-1.2l0.8-0.3l-2.2,4.7
		c-5.7,4.5-10.2,9.9-13.1,15.9c-0.5,1.5-0.8,3.5-1.5,4.7c-3.2,2.7-6.4,4.7-10.2,6.5c-11.2,5.2-24.1,6.4-36,4.5
		c-2.8-0.5-6-0.8-8.7-1.7c-5-1.5-10.2-4.5-13.4-8.4c-3.7-3.7-6.4-8-8-12.6c-3.9-10.6-7-21.3-7.9-32.7c-0.2-3.9-0.5-8,0.8-11.6
		c1.5-4.2,4.7-7.9,8.7-9.9c6-3.5,12.4-4.5,18.6-6c11.7-1.8,23.8-3.5,35.7-2.7c2.7,0.3,6,0.5,8.5,0.8c6.4,1.2,13.1,2.7,18.9,5
		c4.5,1.8,9,4.5,11.7,8.7c2.3,3.5,3.5,7.2,3.5,11.2c-7,0.5-14.6-0.8-21.4-3c-25-7-65.7-25-77.6,10.9c6-4,15.9-8.4,19.8,0.5
		c5,12.2,10.2,25,23,30.5c-2.8-4.2-7-7.9-8.2-13.1c4.5,4.2,8,10.2,13.9,12.4c-4.2-6-9.4-10.9-11.2-18.3c4.5,4.9,8,11.2,13.4,14.9
		c-2.2-4.2-5-8-6.5-12.6c14.7,10.6,22.3,3.7,37.5,0.8C231.3,526.4,227,528.4,224,532.1L224,532.1z M227.7,515.4
		c-7.5,2.5-15.9,1.7-23.3-0.3c-6.5-2.2-13.2-6-17.3-11.7c-1.3-1.5-1.8-4.9,0.5-5.7c2.7-0.5,5,0.2,7.9,0.7c9.4,2.7,19.1,5.7,28.5,8.5
		c2.7,0.8,6,1.5,7.5,4.4C232,513.7,229.2,514.5,227.7,515.4L227.7,515.4z M256.3,514.3c0.5-2.8,1.5-6,3-8.7c7.9-3.5,22-6.9,22-6.9
		c9-0.7,17.3,5,20.8,8.4c0.8,2.7,1.5,6,2.7,8.5c-3.9-1.3-7.9-2.2-11.7-2.7c-13.4-0.8-27.1,2.2-38.7,8.2
		C254.8,519.2,255.6,516.7,256.3,514.3L256.3,514.3z M410,520.5c-1.3,4.7-2.7,9.4-5,13.6c-3.9,7.2-11.1,12.7-18.6,15.2
		c-6.4,1.8-13.1,3-19.8,3.5c-9,0.3-18.6-1.3-27-5.5c-2.7-4.9-6.2-9.6-10.2-14.2c-4-4.9-8.9-9-14.1-11.9l-0.3-0.5
		c-0.5-0.8-0.8-1.7-1.3-2.7h0.2c0.8,0.3,2.2,0.5,2.8,1.2c6.9,1.5,13.2,5,19.8,8c-2.8-3.9-7.4-6-11.2-8.4c15.9,2.7,23.8,9,39.4-0.8
		c-1.5,4.7-4.7,8.4-7,12.6c6.4-3.7,9.6-10.2,14.6-14.9c-1.5,7.4-7.2,12.4-11.7,18.3c6.4-2.7,9.9-8.2,14.7-12.4
		c-1.3,5-5.7,8.7-8.7,13.1c13.2-5.2,18.6-18.4,24.1-30.5c3.9-8.9,14.6-4.7,20.6-0.5c-12.9-35.7-55.1-17.9-81.8-10.9
		c-7.2,2.2-14.7,3.9-22.3,3c0-2.7,0.3-4.9,1.3-7.4c1.5-4.2,5-7.5,8.9-10.2c6-3.7,11.9-6,18.6-7.5c10.6-3,22-3.7,32.7-3
		c5,0.3,10.6,0.5,15.6,1.2c5.2,0.5,10.7,1.5,15.8,3.5c3.5,1.3,6.5,3,9,5.7c2.5,2.7,4.4,6.9,4.5,10.7
		C414.5,498.6,412.8,509.5,410,520.5L410,520.5z M328.7,505.5c1.7-2.7,5-3.5,8-4.4c10.2-2.8,20.1-6,30.2-8.5
		c2.7-0.5,5.5-1.5,8.2-0.7c2.7,0.5,2.2,3.9,0.5,5.7c-4.4,6-11.2,9.6-18.3,11.7c-8,2.2-16.6,2.7-24.3,0.3
		C330.9,509.2,327.7,507.8,328.7,505.5L328.7,505.5z M331.4,542.2c-2.7-2.2-5.2-4.7-7.5-7.4C326.5,537,329.2,539.6,331.4,542.2z
		 M296.5,1003.3l1.5,0.5v0.5l-0.3,0.3c-1.8,1.8-1.5,4.7,0,6.7l0.2,0.2l-0.5,13.6c21.8,1.5,43.4,3.5,65.4,6
		c14.9,1.7,30.3-0.3,45.4-2.7c1.5,3.2,3.5,6.4,4.7,9c-2.2,7-4.5,13.6-7.5,20.3l16.9-11.1c2.2-4,4.5-8.2,7-11.9
		c0.5,9,0.5,18.6,0.3,28.2c-15.9,7.5-33.8,13.2-45.6,27.6c7-0.5,12.4-5,18.6-7.9c13.4-6,27.1-11.7,41.9-14.7
		c14.9-0.7,28.5,9.6,35.4,22.1c6,18.4,11.7,38.4,5.7,57.3c-0.7,0.5-1.5,0.8-2.7,1.5c-0.5-1.3-1.5-2.7-2.2-3.9
		c-1.7,0.8-3.9,2.2-5.5,3l-0.5,0.5c-1.3-3.9-2.5-7.9-3.9-11.6c-1.5-4.5-2.7-8.9-4.4-13.2c-2.7-7.2-6.9-14.6-14.2-17.4
		c-1.8-0.7-2.7,2.3-0.8,3.2c7,2.8,10.6,10.6,12.7,16.9c2.7,8,5,15.9,7.9,24.1c-1.5,0.8-3,1.5-4.5,2.2c0.2,0.5,0.3,0.8,0.3,1.5
		c-4.7,1.2-9.2,2.3-14.2,3.9c-0.3-0.5-0.5-0.7-0.5-1.3c-5,1.3-10.6,2.2-15.6,2.7c0.3,0.8,0.3,1.8,0.5,2.7l-1.3,0.3v-0.3
		c-1.2-5-2.2-10.2-3.5-15.4c-0.8-4.5-1.5-8.9-3.2-13.2c-1.3-3.9-3.5-7.4-6.5-9.9c-3-2.2-7-3.5-10.7-2.2c-2.2,0.5-1.2,3.9,0.8,3.2
		c3.7-1.2,7,0.5,9.2,3c2.7,2.7,3.9,6.4,4.7,9.9c2.2,8.4,3.9,16.9,5.7,25.6v0.2c-3.5,0.8-6.5,1.5-10.2,2.5c-0.3-0.5-0.5-0.8-0.8-1.5
		l-3.5,1.5c-5,2.2-10.7,3.9-16.1,3.9c0.3,0.2,0.5,0.3,0.8,0.5c-8.7,0.8-17.8,0.5-25-4.4c-3.9-0.2-6.9-1.5-9-3.7
		c-2.7-0.8-5-1.8-7.9-3c-5.5-0.7-10.9-2.2-16.1-3.7c-15.6-2.7-28.5-12.2-41.4-20.8C294,1091.5,295,1047.1,296.5,1003.3L296.5,1003.3
		z M415.5,1038.8c-0.2-0.7-0.2-1.5-0.3-2.7c0.5,0.5,0.8,0.7,1.5,0.8C416.3,1038,415.7,1038.5,415.5,1038.8z M264.2,718.9
		c-2.7-1.3-4.9-2.7-7.5-3.9c16.6-3.9,33.5-6.4,50.4-6c7,0.8,13.4,2.7,20.1,4.7c8.7,3.2,16.9,7.5,26.1,9.6c2.2,0.5,4.4,0.8,6.5,1.5
		c3.9,2.2,7.9,4.5,11.2,7l-12.4,6.4c-4.7,5.2-10.2,10.6-15.9,14.6c-9,6-15.8,14.9-24.3,21.4c-17.4,12.9-35.2,26-53,37.9
		c-5.7,3-11.2,6-16.9,8.7c0,0-59-41.4-59.2-75.7c7.5-6.4,16.6-11.2,25.6-15.1c14.9-6.7,32.2-11.9,48.8-11.4L264.2,718.9L264.2,718.9
		z M333.4,770.1c-0.5,0.5-0.8,1.3-1.3,1.7l-1.7,0.8C331.4,771.9,332.6,771.2,333.4,770.1z M342.3,762c-0.8,1.5-2.2,2.7-2.8,4.4
		c-0.5-0.2-1.3-0.2-1.8,0C339.3,765,340.8,763.5,342.3,762z M370.8,738.6c-0.7,0.5-1.5,1.3-2.3,1.7h-0.5
		C368.9,740.1,369.8,739.1,370.8,738.6z M375.6,834.7c-6,2.7-11.4,4.4-17.4,6c-14.7,1.5-30,2.7-44.6,3.9c-7,0.2-13.4,0.3-20.3,0.5
		c-4.7-1.3-9.4-2.2-14.6-2.7c-4.2-0.5-8.7-0.8-13.1-0.8c1.5,1.5,2.5,3.9,2.3,6c-13.2-0.5-26.3-3.7-39-7.9
		c6.5-4.5,13.2-8.7,20.1-12.7c2.2,0.3,6.4,0.5,8.2,0.8c23-18.6,48.3-34.4,71.1-53h0.2C375.6,750.5,376.6,813.5,375.6,834.7
		L375.6,834.7z M293,995.6c-3-0.3-6.2-0.7-9-1.2c-0.7-1.3-1.5-2.5-2.5-3.7c-0.5-0.8-1.5-1.5-2.7-1.7c0-0.2-0.2-0.2-0.2-0.2
		c6.4,2.3,12.4,4.5,18.6,6.4c2.7,0.7,5.2,1.5,8.2,2.2c-0.7,0.5-1.5,1.5-2.3,2.2c-1.5-0.5-3.2-1.2-4.7-1.5v0.7
		c-1.8-0.5-3.9-1.3-6-1.5C293,996.4,293,995.9,293,995.6L293,995.6z M165.8,1035.5c0.5-0.3,0.8-0.5,1.3-0.7c2.2,3.9,3.9,8,6.4,11.7
		c14.1-11.2,25.1-26.6,45.6-24.1c24,0,47.6,0.5,71.4,2.2c0.2,22.3,2.7,44.6,1.5,66.9c-0.5,14.2,7,28.2,3.9,42.2
		c-7.4,15.9-26.1,18.9-40.6,25c-17.8,7.9-35.4,15.4-53.8,20.6c-4.9,0.5-10.2,0.5-15.2,0v-0.3c-1.3,0.2-2.5,0.2-3.9,0.2
		c-0.3,0.7-1.3,1.3-2.2,0.5l-0.8-0.5c-1.3,0-2.7-0.2-3.9-0.2c-1.5,0-1.8-1.5-1.3-2.7c-1.2-0.5-2.2-0.7-3.7-1.2
		c-0.2,0.2-0.2,0.3-0.3,0.5c-4.7-1.3-9.2-2.5-14.2-3.9c-1.3-0.3-2.7-0.5-3.9-0.7c0.7-6.2,1.5-12.2,2.7-18.1c0.8-5,2.7-11.7,8.2-13.6
		c1.8-0.5,1.2-3.9-0.8-3.2c-6.4,2.2-8.7,8.4-10.2,14.6c-0.8,3.9-1.3,8.2-1.8,12.2c-0.3,2.7-0.7,5-1.2,8c-6.4-1.3-13.1-2.7-18.9-4.9
		c-1.3-0.3-2.7-0.5-4-1.2v-0.8c-1.3-0.7-2.7-1.5-3.9-2.5c-0.5-0.5-1.2-0.7-1.5-1.3c3.7-8,7-15.9,11.1-23.6
		c2.8-6.2,6.7-12.7,13.2-15.4c1.8-0.5,1.2-3.9-0.8-3.2c-7,2.7-11.2,8.9-14.7,15.6c-3.9,8-7.5,16.1-11.2,24.1
		c-2.2-2.2-3.7-4.7-4.5-7.5l-1.5,5.2c-1.5-15.1,0.8-30.5,7.5-43.9c6-10.7,17.8-15.6,28-20.6c19.8-6.4,39.4,1.3,58.3,6
		c-7.9-10.6-22-11.6-33.7-14.9c0-4.7,0.2-9,0-14.1c3.5,2.2,6.7,4.4,10.2,6.4c-2.3-13.4,7.9-23,16.1-31.5c-1.8-0.3-6-0.5-7.5-0.8
		c-5,6.2-10.4,11.9-15.4,18.1L165,1040c-2.2,3.5-4.5,6.5-6.9,10.2c-0.5-6-0.8-11.4-1.5-17.3c0.5,0.3,1.5,0.5,2.7,0.8l0.8,10.7
		C161.8,1041,164,1038.3,165.8,1035.5L165.8,1035.5z M105.3,538l0.5,0.5c1.7-11.4,6-22.8,16.1-28.7l-8.7-1.8
		c7-6,11.2-12.6,13.4-20.1c0.2,0.8,0.2,1.8,0.2,2.8c-0.2,2.2-0.5,4.4,0.3,6.4c0.5,1.3,1.8,1.5,2.8,2.5c3.7,2.3,5.5,6.4,6.9,10.2
		c2.2,6,3.9,11.7,5.5,17.8c1.7,6.2,3.9,12.2,7,17.8c4.4,7.4,11.2,13.2,18.9,16.6c11.1,5,23.5,6.4,35.4,4.9c7-0.8,14.2-2.8,20.6-6.2
		c0.5-0.3,1.3-0.5,1.7-0.8c-5.5,10.6-6,23-3.7,35.7l1.3,0.2l3.9,0.3c-0.2-0.8-0.3-1.7-0.5-2.7c-1.5-7.9-2.2-15.9-0.8-23.6
		c0-3.9,0.7-7.5,2.2-11.2c3.5-1.8,6.4-4,8.9-6.7c6-5.7,10.2-12.4,13.2-19.8c11.7-7.9,27-11.9,42.2-9.9c5.7,0.3,11.2,1.5,16.6,3.9
		c1.5,3,3.7,6,5.5,8.7c-3.5-2.2-7.5-3.2-11.2-1.8c-14.2,0-22.8,6-36.9-0.7c-8.5,1.5-13.2,9-18.6,15.2c10.2,13.6,18.6,36.5,35.5,36.5
		c14.2,0,28.3-16.9,36.9-34c0.5-2.7,0.5-5.5-0.3-7.9c3.7,3.9,7.5,7.5,11.9,10.6c2.7,1.7,6,3.2,8.9,4.2c3.9,7,6.4,14.2,7.9,21.8
		c-0.5-7-2.2-13.9-4.7-20.8c1.5,0.5,3,0.7,4.5,0.8c4.5,0.7,9,0.8,13.6,0.8c11.9,0.2,24.3-2.2,35.2-8c6-3,11.1-7.5,13.4-13.4
		c5.5-12.7,9.2-26,12.4-39.4c0.5-2.2,1.5-3.9,2.7-5.7c-0.5-2.8,1.7-5.2,4.2-6c0.3-0.2,0.7-0.3,1.3-0.3c1.3-0.5,3-0.5,4.2,0.2
		c7.5,3.7,11.7,14.6,14.9,21.4c3.9,8.7,7.5,18.1,8.7,27.3c0.3,2.2-0.5,3.9-1.8,4.7c1.8,15.9-1.8,33-6.4,48.1c-1.5,6-3.9,13.2-7,19.9
		c-2.2,7.4-7,13.6-12.7,18.9c-0.8,0.8-2.2,1.3-3.7,1.3c-0.5,0.8-0.8,1.8-1.5,2.7c-6.9-1.2-13.4-1.7-20.3-2.2
		c-13.4,11.9-30.2,21.1-45.9,31.2c0.2,0.5,0.2,1.5-0.3,2.2c-4.2,8.2-10.6,14.9-17.8,20.8c-0.5,0.8-1.5,2.2-2.7,2.2
		c-8.7,7-17.8,13.4-27.6,18.6c-22-2.2-43.9,0.8-65.9,6.4c-9-3.9-17.3-9-25.1-14.9c0.5,0,1.3,0,1.8-0.2c-0.3-0.8-1.2-3.2-1.5-4
		c-2.5-0.3-4.7-0.5-7.2-0.7c-6.4-4.7-11.4-10.4-15.4-16.6c-0.3-0.5-0.3-1.3-0.3-1.7c-14.2-8.2-29.2-15.8-41.7-26
		c-6,0.2-11.2,0.5-17.1,1.5c-2.7-3-5-6.4-7.5-9.2c-10.2-10.6-13.1-24.8-18.6-37.7c-6.4-17.4-4.7-36.2-1.2-54.1
		c-8.4,1.8-10.2,10.4-12.4,17.3C100,557.9,102.7,545.5,105.3,538L105.3,538z"/>
</g>
<g>
	<path d="M510.4,469.6c-1.2-1.2-1.9-2.8-1.9-4.8v-34.4h-10.3c-2.1,0-3.7-0.5-4.8-1.4c-1-0.9-1.6-2.3-1.6-4.1c0-1.9,0.5-3.2,1.6-4.1
		c1-0.9,2.6-1.3,4.8-1.3h34.2c2.1,0,3.7,0.4,4.8,1.3c1,0.9,1.6,2.2,1.6,4.1c0,1.9-0.5,3.2-1.6,4.1c-1,0.9-2.6,1.4-4.8,1.4h-10.3
		v34.4c0,2-0.6,3.6-1.9,4.8c-1.2,1.2-2.9,1.8-4.9,1.8S511.6,470.7,510.4,469.6z"/>
	<path d="M551,468.4c-3.9-2.2-6.9-5.2-9-9.2c-2.1-4-3.1-8.6-3.1-14c0-5.4,1-10,3.1-14c2.1-4,5.1-7,9-9.2c3.9-2.1,8.4-3.2,13.7-3.2
		s9.8,1.1,13.7,3.2c3.9,2.1,6.8,5.2,8.9,9.2c2.1,4,3.1,8.6,3.1,14c0,5.4-1,10-3.1,14c-2.1,4-5.1,7-9,9.2s-8.4,3.3-13.6,3.3
		C559.4,471.6,554.9,470.6,551,468.4z M573.8,457.2c2.2-2.8,3.3-6.8,3.3-12s-1.1-9.3-3.3-12s-5.3-4.1-9.1-4.1
		c-3.9,0-6.9,1.4-9.1,4.1s-3.3,6.7-3.3,12c0,5.3,1.1,9.3,3.3,12.1c2.2,2.7,5.2,4.1,9.1,4.1C568.6,461.3,571.6,460,573.8,457.2z"/>
	<path d="M600,469.4c-1.1-1.1-1.6-2.6-1.6-4.6v-39.1c0-2,0.5-3.5,1.6-4.6c1.1-1.1,2.6-1.6,4.6-1.6h14.8c5.7,0,10.6,1,14.7,3.1
		c4.1,2.1,7.3,5,9.5,8.9c2.2,3.9,3.3,8.4,3.3,13.7c0,5.4-1.1,10-3.3,13.8c-2.2,3.9-5.3,6.8-9.4,8.9c-4.1,2-9.1,3.1-14.8,3.1h-14.8
		C602.6,471,601.1,470.4,600,469.4z M618.4,460.2c5,0,8.8-1.2,11.3-3.7c2.5-2.5,3.8-6.2,3.8-11.3c0-5.1-1.3-8.8-3.8-11.3
		c-2.5-2.4-6.3-3.7-11.3-3.7h-6.6v29.9H618.4z"/>
	<path d="M665.7,468.4c-3.9-2.2-6.9-5.2-9-9.2c-2.1-4-3.1-8.6-3.1-14c0-5.4,1-10,3.1-14c2.1-4,5.1-7,9-9.2c3.9-2.1,8.4-3.2,13.7-3.2
		c5.3,0,9.8,1.1,13.7,3.2c3.9,2.1,6.8,5.2,8.9,9.2c2.1,4,3.1,8.6,3.1,14c0,5.4-1,10-3.1,14c-2.1,4-5.1,7-9,9.2
		c-3.9,2.2-8.4,3.3-13.6,3.3C674.1,471.6,669.5,470.6,665.7,468.4z M688.5,457.2c2.2-2.8,3.3-6.8,3.3-12s-1.1-9.3-3.3-12
		s-5.3-4.1-9.1-4.1c-3.9,0-6.9,1.4-9.1,4.1s-3.3,6.7-3.3,12c0,5.3,1.1,9.3,3.3,12.1c2.2,2.7,5.2,4.1,9.1,4.1
		C683.3,461.3,686.3,460,688.5,457.2z"/>
	<path d="M735.6,469.4c-1.1-1.1-1.6-2.6-1.6-4.7v-39c0-2,0.6-3.6,1.8-4.8c1.2-1.2,2.8-1.8,4.9-1.8c2.1,0,3.8,0.6,5,1.8
		c1.2,1.2,1.8,2.8,1.8,4.8v34.4h16.8c4.2,0,6.4,1.8,6.4,5.5c0,1.9-0.5,3.2-1.6,4.1c-1,0.9-2.6,1.3-4.8,1.3h-24
		C738.2,471,736.7,470.4,735.6,469.4z"/>
	<path d="M783.6,468.4c-3.9-2.2-6.9-5.2-9-9.2c-2.1-4-3.1-8.6-3.1-14c0-5.4,1-10,3.1-14c2.1-4,5.1-7,9-9.2c3.9-2.1,8.4-3.2,13.7-3.2
		s9.8,1.1,13.7,3.2c3.9,2.1,6.8,5.2,8.9,9.2c2.1,4,3.1,8.6,3.1,14c0,5.4-1,10-3.1,14c-2.1,4-5.1,7-9,9.2c-3.9,2.2-8.4,3.3-13.6,3.3
		C792,471.6,787.4,470.6,783.6,468.4z M806.4,457.2c2.2-2.8,3.3-6.8,3.3-12s-1.1-9.3-3.3-12s-5.3-4.1-9.1-4.1
		c-3.9,0-6.9,1.4-9.1,4.1c-2.2,2.7-3.3,6.7-3.3,12c0,5.3,1.1,9.3,3.3,12.1c2.2,2.7,5.2,4.1,9.1,4.1
		C801.2,461.3,804.2,460,806.4,457.2z"/>
	<path d="M897.4,475.4c0.8,1.3,1.2,2.6,1.2,3.7c0,1.6-0.7,2.9-2,4c-1.3,1-2.8,1.6-4.5,1.6c-1.2,0-2.3-0.3-3.3-0.8
		c-1-0.6-1.9-1.4-2.6-2.4l-4.4-7.4c-0.5-0.8-1.1-1.4-2-1.8c-0.8-0.4-2-0.5-3.6-0.5c-5.3,0-9.8-1.1-13.7-3.3s-6.9-5.2-9-9.2
		c-2.1-4-3.1-8.6-3.1-14c0-5.4,1-10,3.1-14c2.1-4,5.1-7,9-9.2c3.9-2.1,8.4-3.2,13.7-3.2s9.8,1.1,13.7,3.2c3.9,2.1,6.8,5.2,8.9,9.2
		c2.1,4,3.1,8.6,3.1,14c0,5.3-1,10-3.1,14c-2.1,4-5.1,7.1-9,9.2c2.6,0.8,4.5,2.3,5.8,4.5L897.4,475.4z M885.5,457.2
		c2.2-2.8,3.3-6.8,3.3-12s-1.1-9.3-3.3-12s-5.3-4.1-9.1-4.1c-3.9,0-6.9,1.4-9.1,4.1s-3.3,6.7-3.3,12c0,5.3,1.1,9.3,3.3,12.1
		c2.2,2.7,5.2,4.1,9.1,4.1C880.2,461.3,883.3,460,885.5,457.2z"/>
	<path d="M915.6,465.9c-3.9-3.8-5.8-9.4-5.8-16.7v-23.6c0-2,0.6-3.6,1.8-4.8c1.2-1.2,2.8-1.8,4.8-1.8c2,0,3.6,0.6,4.8,1.8
		c1.2,1.2,1.8,2.8,1.8,4.8v24.1c0,3.7,0.8,6.6,2.5,8.6c1.7,2,4,3,7.2,3s5.5-1,7.2-3c1.7-2,2.5-4.8,2.5-8.6v-24.1
		c0-2,0.6-3.6,1.8-4.8c1.2-1.2,2.8-1.8,4.8-1.8c2,0,3.6,0.6,4.8,1.8c1.2,1.2,1.8,2.8,1.8,4.8v23.6c0,7.3-2,12.8-5.9,16.6
		c-3.9,3.8-9.6,5.7-17,5.7C925.1,471.6,919.4,469.7,915.6,465.9z"/>
	<path d="M966.1,469.4c-1.1-1.1-1.6-2.6-1.6-4.6v-39.1c0-2,0.5-3.5,1.6-4.6c1.1-1.1,2.6-1.6,4.6-1.6H996c2.1,0,3.7,0.4,4.8,1.3
		c1.1,0.9,1.6,2.1,1.6,3.8c0,3.5-2.1,5.3-6.4,5.3h-18.4v9.8h17c4.2,0,6.4,1.7,6.4,5.2c0,1.7-0.5,2.9-1.6,3.8
		c-1.1,0.9-2.7,1.3-4.8,1.3h-17v10.7H996c4.2,0,6.4,1.8,6.4,5.3c0,1.7-0.5,2.9-1.6,3.8c-1.1,0.9-2.7,1.3-4.8,1.3h-25.3
		C968.7,471,967.2,470.4,966.1,469.4z"/>
	<path d="M498.7,557.3c-1.2-1.2-1.8-2.8-1.8-4.9v-39.1c0-2,0.5-3.5,1.6-4.6c1.1-1.1,2.6-1.6,4.6-1.6h18.7c5.7,0,10.1,1.5,13.3,4.3
		c3.2,2.9,4.8,6.9,4.8,12.1c0,5.1-1.6,9.1-4.8,12.1c-3.2,2.9-7.6,4.4-13.3,4.4h-11.5v12.4c0,2-0.6,3.7-1.8,4.9
		c-1.2,1.2-2.9,1.8-5,1.8C501.5,559.1,499.9,558.5,498.7,557.3z M520,530c2.5,0,4.3-0.5,5.5-1.5c1.2-1,1.8-2.6,1.8-4.8
		c0-4.2-2.4-6.4-7.3-6.4h-9.6V530H520z"/>
	<path d="M557.3,556.1c-3.9-2.2-6.9-5.2-9-9.2c-2.1-4-3.1-8.6-3.1-14c0-5.4,1-10,3.1-14c2.1-4,5.1-7,9-9.2c3.9-2.1,8.4-3.2,13.7-3.2
		s9.8,1.1,13.7,3.2c3.9,2.1,6.8,5.2,8.9,9.2c2.1,4,3.1,8.6,3.1,14c0,5.4-1,10-3.1,14c-2.1,4-5.1,7-9,9.2c-3.9,2.2-8.4,3.3-13.6,3.3
		C565.7,559.3,561.2,558.3,557.3,556.1z M580.1,544.9c2.2-2.8,3.3-6.8,3.3-12s-1.1-9.3-3.3-12s-5.3-4.1-9.1-4.1
		c-3.9,0-6.9,1.4-9.1,4.1c-2.2,2.7-3.3,6.7-3.3,12c0,5.3,1.1,9.3,3.3,12.1c2.2,2.7,5.2,4.1,9.1,4.1
		C574.9,549,577.9,547.7,580.1,544.9z"/>
	<path d="M606.3,557.1c-1.1-1.1-1.6-2.6-1.6-4.6v-39.1c0-2,0.5-3.5,1.6-4.6c1.1-1.1,2.6-1.6,4.6-1.6h14.8c5.7,0,10.6,1,14.7,3.1
		c4.1,2.1,7.3,5,9.5,8.9c2.2,3.9,3.3,8.4,3.3,13.7c0,5.4-1.1,10-3.3,13.8c-2.2,3.9-5.3,6.8-9.4,8.9c-4.1,2-9.1,3.1-14.8,3.1h-14.8
		C608.9,558.7,607.4,558.1,606.3,557.1z M624.7,547.9c5,0,8.8-1.2,11.3-3.7c2.5-2.5,3.8-6.2,3.8-11.3c0-5.1-1.3-8.8-3.8-11.3
		c-2.5-2.4-6.3-3.7-11.3-3.7h-6.6v29.9H624.7z"/>
	<path d="M662.8,557.1c-1.1-1.1-1.6-2.6-1.6-4.6v-39.1c0-2,0.5-3.5,1.6-4.6c1.1-1.1,2.6-1.6,4.6-1.6h25.3c2.1,0,3.7,0.4,4.8,1.3
		c1.1,0.9,1.6,2.1,1.6,3.8c0,3.5-2.1,5.3-6.4,5.3h-18.4v9.8h17c4.2,0,6.4,1.7,6.4,5.2c0,1.7-0.5,2.9-1.6,3.8
		c-1.1,0.9-2.7,1.3-4.8,1.3h-17v10.7h18.4c4.2,0,6.4,1.8,6.4,5.3c0,1.7-0.5,2.9-1.6,3.8c-1.1,0.9-2.7,1.3-4.8,1.3h-25.3
		C665.4,558.7,663.9,558.1,662.8,557.1z"/>
	<path d="M755.1,508.6c1.2,1.2,1.8,2.8,1.8,4.8v39.8c0,1.9-0.5,3.3-1.6,4.4c-1.1,1.1-2.5,1.6-4.2,1.6c-1.7,0-3.1-0.5-4.2-1.6
		c-1.1-1.1-1.6-2.5-1.6-4.4v-21.5l-8.3,15.3c-0.8,1.6-1.7,2.7-2.6,3.3c-0.9,0.7-2,1-3.3,1c-1.3,0-2.4-0.3-3.3-1
		c-0.9-0.7-1.8-1.8-2.6-3.3l-8.3-14.9v21c0,1.8-0.5,3.3-1.6,4.3c-1.1,1.1-2.5,1.6-4.3,1.6c-1.7,0-3.1-0.5-4.2-1.6
		c-1.1-1.1-1.6-2.5-1.6-4.4v-39.8c0-1.9,0.6-3.5,1.8-4.8c1.2-1.2,2.7-1.8,4.6-1.8c1.3,0,2.5,0.4,3.6,1.1c1.1,0.8,2,1.8,2.7,3.3
		l13.4,25.3l13.4-25.3c1.5-2.9,3.6-4.4,6.1-4.4C752.4,506.8,753.9,507.4,755.1,508.6z"/>
	<path d="M777.1,556.1c-3.9-2.2-6.9-5.2-9-9.2c-2.1-4-3.1-8.6-3.1-14c0-5.4,1-10,3.1-14c2.1-4,5.1-7,9-9.2c3.9-2.1,8.4-3.2,13.7-3.2
		c5.3,0,9.8,1.1,13.7,3.2c3.9,2.1,6.8,5.2,8.9,9.2c2.1,4,3.1,8.6,3.1,14c0,5.4-1,10-3.1,14c-2.1,4-5.1,7-9,9.2
		c-3.9,2.2-8.4,3.3-13.6,3.3C785.6,559.3,781,558.3,777.1,556.1z M800,544.9c2.2-2.8,3.3-6.8,3.3-12s-1.1-9.3-3.3-12
		s-5.3-4.1-9.1-4.1c-3.9,0-6.9,1.4-9.1,4.1s-3.3,6.7-3.3,12c0,5.3,1.1,9.3,3.3,12.1c2.2,2.7,5.2,4.1,9.1,4.1
		C794.7,549,797.8,547.7,800,544.9z"/>
	<path d="M833,558.1c-3.3-0.9-6.1-2-8.2-3.5c-0.8-0.6-1.4-1.3-1.8-2c-0.4-0.7-0.5-1.6-0.5-2.6c0-1.5,0.4-2.7,1.3-3.8
		c0.9-1.1,1.9-1.6,3.1-1.6c0.6,0,1.2,0.1,1.8,0.3c0.6,0.2,1.3,0.6,2.2,1.1c2,1.1,4,1.9,6,2.4c2,0.5,4.2,0.7,6.7,0.7
		c2.9,0,5.1-0.4,6.5-1.3s2.2-2.1,2.2-3.8c0-1.1-0.7-2.1-2.1-2.9c-1.4-0.8-4-1.6-7.9-2.4c-4.8-1-8.6-2.2-11.3-3.7
		c-2.7-1.4-4.6-3.1-5.7-5c-1.1-1.9-1.6-4.2-1.6-7c0-3.1,0.9-5.9,2.8-8.5c1.9-2.5,4.4-4.5,7.6-6c3.2-1.4,6.9-2.2,10.9-2.2
		c3.6,0,6.7,0.4,9.5,1.2c2.8,0.8,5.3,2,7.6,3.7c0.9,0.6,1.5,1.3,1.9,2c0.4,0.7,0.5,1.6,0.5,2.6c0,1.5-0.4,2.7-1.3,3.8
		c-0.9,1.1-1.9,1.6-3,1.6c-0.6,0-1.2-0.1-1.8-0.3c-0.5-0.2-1.3-0.5-2.3-1.1c-0.2-0.1-0.9-0.5-2.1-1.1c-1.1-0.6-2.5-1.1-4-1.5
		c-1.5-0.4-3.2-0.5-5-0.5c-2.5,0-4.5,0.5-6,1.4c-1.5,0.9-2.3,2.2-2.3,3.8c0,0.9,0.3,1.7,0.8,2.3c0.5,0.6,1.5,1.2,3,1.7
		c1.5,0.6,3.6,1.1,6.5,1.7c4.7,1,8.4,2.3,11,3.7c2.7,1.4,4.6,3.1,5.7,5c1.1,1.9,1.7,4.1,1.7,6.7c0,3.2-0.9,6.1-2.7,8.5
		c-1.8,2.5-4.3,4.4-7.6,5.7c-3.2,1.3-7,2-11.3,2C840,559.3,836.4,558.9,833,558.1z"/>
	<path d="M939.5,508.6c1.2,1.2,1.8,2.8,1.8,4.8v39.1c0,2-0.6,3.6-1.8,4.8c-1.2,1.2-2.8,1.8-4.8,1.8s-3.6-0.6-4.8-1.8
		c-1.2-1.2-1.8-2.8-1.8-4.9v-14.6h-21v14.6c0,2-0.6,3.6-1.8,4.8c-1.2,1.2-2.8,1.8-4.8,1.8c-2,0-3.6-0.6-4.8-1.8
		c-1.2-1.2-1.8-2.8-1.8-4.9v-39.1c0-2,0.6-3.6,1.8-4.8c1.2-1.2,2.8-1.8,4.8-1.8c2,0,3.6,0.6,4.8,1.8c1.2,1.2,1.8,2.8,1.8,4.8v13.8
		h21v-13.8c0-2,0.6-3.6,1.8-4.8c1.2-1.2,2.8-1.8,4.8-1.8S938.3,507.4,939.5,508.6z"/>
	<path d="M1000.7,553.1c0,1.6-0.6,3-1.9,4.1c-1.3,1.1-2.8,1.7-4.4,1.7c-1.1,0-2.1-0.3-3.1-0.9c-0.9-0.6-1.7-1.5-2.2-2.6l-3.3-7.4
		h-23.7l-3.4,7.4c-0.5,1.2-1.3,2-2.2,2.6c-0.9,0.6-2,0.9-3.1,0.9c-1.7,0-3.2-0.6-4.5-1.7c-1.3-1.1-2-2.5-2-4.1
		c0-0.9,0.2-1.8,0.7-2.7l19.3-39.6c0.6-1.3,1.6-2.3,2.8-3c1.2-0.7,2.6-1.1,4.1-1.1c1.5,0,2.8,0.4,4.1,1.1c1.3,0.7,2.2,1.7,2.8,3
		l19.3,39.6C1000.4,551.4,1000.7,552.3,1000.7,553.1z M966.6,537.9h14.6l-7.3-16.3L966.6,537.9z"/>
	<path d="M1015.8,556.1c-3.9-2.1-6.9-5.2-9-9.2c-2.1-4-3.2-8.7-3.2-14c0-5.3,1.1-10,3.2-14c2.1-4,5.1-7.1,9-9.2
		c3.9-2.1,8.4-3.2,13.6-3.2c6.2,0,11.6,1.6,16.3,4.9c0.8,0.6,1.4,1.2,1.8,1.9c0.4,0.7,0.5,1.6,0.5,2.6c0,1.5-0.4,2.8-1.3,3.8
		c-0.9,1-1.9,1.6-3.1,1.6c-0.7,0-1.4-0.1-2-0.3c-0.6-0.2-1.3-0.6-2-1.1c-1.7-1-3.3-1.8-4.8-2.2c-1.5-0.4-3.1-0.7-4.7-0.7
		c-4.3,0-7.6,1.3-9.7,3.9c-2.1,2.6-3.2,6.6-3.2,11.9c0,5.4,1.1,9.3,3.2,12c2.1,2.6,5.3,3.9,9.7,3.9c1.5,0,2.9-0.2,4.2-0.7
		c1.4-0.5,3.1-1.2,5.3-2.2c1-0.5,1.8-0.9,2.3-1.1c0.5-0.2,1.1-0.3,1.8-0.3c1.2,0,2.3,0.5,3.1,1.6c0.9,1,1.3,2.3,1.3,3.8
		c0,1-0.2,1.9-0.5,2.6c-0.4,0.7-1,1.4-1.8,1.9c-4.7,3.3-10.1,4.9-16.3,4.9C1024.2,559.3,1019.6,558.3,1015.8,556.1z"/>
	<path d="M1056.1,557.1c-1.1-1.1-1.6-2.6-1.6-4.6v-39.1c0-2,0.5-3.5,1.6-4.6c1.1-1.1,2.6-1.6,4.6-1.6h25.3c2.1,0,3.7,0.4,4.8,1.3
		c1.1,0.9,1.6,2.1,1.6,3.8c0,3.5-2.1,5.3-6.4,5.3h-18.4v9.8h17c4.2,0,6.4,1.7,6.4,5.2c0,1.7-0.5,2.9-1.6,3.8
		c-1.1,0.9-2.7,1.3-4.8,1.3h-17v10.7h18.4c4.2,0,6.4,1.8,6.4,5.3c0,1.7-0.5,2.9-1.6,3.8c-1.1,0.9-2.7,1.3-4.8,1.3h-25.3
		C1058.7,558.7,1057.1,558.1,1056.1,557.1z"/>
	<path d="M1142.7,553.9c0,1.6-0.6,2.9-1.9,3.9c-1.3,1-2.8,1.6-4.5,1.6c-1.2,0-2.3-0.3-3.3-0.8c-1-0.5-1.9-1.3-2.6-2.4l-9.5-13.9
		c-0.7-1-1.4-1.7-2.2-2.2c-0.8-0.5-1.6-0.7-2.7-0.7h-4.8v13.1c0,2-0.6,3.7-1.8,4.9c-1.2,1.2-2.8,1.8-4.8,1.8c-2,0-3.7-0.6-4.9-1.8
		c-1.2-1.2-1.8-2.8-1.8-4.9v-39.1c0-2,0.5-3.5,1.6-4.6c1.1-1.1,2.6-1.6,4.6-1.6h18.3c6.2,0,10.9,1.4,14.1,4.1
		c3.1,2.7,4.7,6.6,4.7,11.7c0,3.9-1.1,7.2-3.2,9.9c-2.1,2.7-5.2,4.5-9.1,5.4c1.6,0.2,3,0.8,4.2,1.6c1.2,0.8,2.4,2.1,3.5,3.7l4.5,6.5
		C1142.3,551.4,1142.7,552.7,1142.7,553.9z M1126.9,527.9c1.3-0.9,1.9-2.4,1.9-4.5c0-2.1-0.6-3.7-1.9-4.6c-1.3-1-3.4-1.4-6.4-1.4
		h-9.4v12h9.4C1123.5,529.3,1125.6,528.8,1126.9,527.9z"/>
	<path d="M1159.9,547.3c1.3,1.6,2,3.8,2,6.7c0,5.7-2,10.6-6.1,14.8c-0.7,0.7-1.6,1.1-2.6,1.1c-1,0-1.8-0.3-2.6-1
		c-0.7-0.7-1.1-1.4-1.1-2.2c0-0.8,0.3-1.5,1-2.1c1.7-1.8,2.9-3.8,3.5-5.8c-1.9-0.1-3.4-0.8-4.5-2c-1.2-1.2-1.8-2.7-1.8-4.6
		c0-2,0.7-3.7,2-5s2.9-2,4.9-2C1156.8,544.9,1158.5,545.7,1159.9,547.3z"/>
	<path d="M541.1,596.3c1.2,1.2,1.8,2.8,1.8,4.8v39.1c0,2-0.6,3.6-1.8,4.8c-1.2,1.2-2.7,1.8-4.5,1.8c-2.2,0-3.8-0.7-5-2.2l-22.2-27.7
		v23.2c0,2-0.6,3.6-1.7,4.8c-1.1,1.2-2.6,1.8-4.5,1.8c-1.9,0-3.4-0.6-4.5-1.8c-1.2-1.2-1.8-2.8-1.8-4.8v-39.1c0-1.9,0.6-3.5,1.8-4.8
		c1.2-1.2,2.7-1.8,4.5-1.8c2.1,0,3.7,0.7,4.9,2.2l22.2,27.6v-23.2c0-2,0.6-3.6,1.7-4.8c1.1-1.2,2.6-1.8,4.5-1.8
		C538.3,594.5,539.9,595.1,541.1,596.3z"/>
	<path d="M563,643.8c-3.9-2.2-6.9-5.2-9-9.2c-2.1-4-3.1-8.6-3.1-14c0-5.4,1-10,3.1-14c2.1-4,5.1-7,9-9.2c3.9-2.1,8.4-3.2,13.7-3.2
		c5.3,0,9.8,1.1,13.7,3.2c3.9,2.1,6.8,5.2,8.9,9.2c2.1,4,3.1,8.6,3.1,14c0,5.4-1,10-3.1,14c-2.1,4-5.1,7-9,9.2
		c-3.9,2.2-8.4,3.3-13.6,3.3C571.4,647,566.9,646,563,643.8z M585.8,632.6c2.2-2.8,3.3-6.8,3.3-12c0-5.3-1.1-9.3-3.3-12
		c-2.2-2.7-5.3-4.1-9.1-4.1c-3.9,0-6.9,1.4-9.1,4.1c-2.2,2.7-3.3,6.7-3.3,12c0,5.3,1.1,9.3,3.3,12.1c2.2,2.7,5.2,4.1,9.1,4.1
		C580.6,636.7,583.6,635.4,585.8,632.6z"/>
	<path d="M642.1,643.8c-3.9-2.1-6.9-5.2-9-9.2c-2.1-4-3.2-8.7-3.2-14c0-5.3,1.1-10,3.2-14c2.1-4,5.1-7.1,9-9.2
		c3.9-2.1,8.4-3.2,13.6-3.2c6.2,0,11.6,1.6,16.3,4.9c0.8,0.6,1.4,1.2,1.8,1.9c0.4,0.7,0.5,1.6,0.5,2.6c0,1.5-0.4,2.8-1.3,3.8
		c-0.9,1-1.9,1.6-3.1,1.6c-0.7,0-1.4-0.1-2-0.3c-0.6-0.2-1.3-0.6-2-1.1c-1.7-1-3.3-1.8-4.8-2.2c-1.5-0.4-3.1-0.7-4.7-0.7
		c-4.3,0-7.6,1.3-9.7,3.9c-2.1,2.6-3.2,6.6-3.2,11.9c0,5.4,1.1,9.3,3.2,12s5.3,3.9,9.7,3.9c1.5,0,2.9-0.2,4.2-0.7
		c1.4-0.5,3.1-1.2,5.3-2.2c1-0.5,1.8-0.9,2.3-1.1c0.5-0.2,1.1-0.3,1.8-0.3c1.2,0,2.3,0.5,3.1,1.6c0.9,1,1.3,2.3,1.3,3.8
		c0,1-0.2,1.9-0.5,2.6c-0.4,0.7-1,1.4-1.8,1.9c-4.7,3.3-10.1,4.9-16.3,4.9C650.5,647,646,646,642.1,643.8z"/>
	<path d="M730.2,640.8c0,1.6-0.6,3-1.9,4.1c-1.3,1.1-2.8,1.7-4.4,1.7c-1.1,0-2.1-0.3-3.1-0.9c-0.9-0.6-1.7-1.5-2.2-2.6l-3.3-7.4
		h-23.7l-3.4,7.4c-0.5,1.2-1.3,2-2.2,2.6c-0.9,0.6-2,0.9-3.1,0.9c-1.7,0-3.2-0.6-4.5-1.7c-1.3-1.1-2-2.5-2-4.1
		c0-0.9,0.2-1.8,0.7-2.7l19.3-39.6c0.6-1.3,1.6-2.3,2.8-3c1.2-0.7,2.6-1.1,4.1-1.1c1.5,0,2.8,0.4,4.1,1.1c1.3,0.7,2.2,1.7,2.8,3
		l19.3,39.6C730,639.1,730.2,640,730.2,640.8z M696.2,625.6h14.6l-7.3-16.3L696.2,625.6z"/>
	<path d="M777.4,624.3c1.6,2.2,2.4,4.8,2.4,8c0,2.8-0.7,5.3-2.2,7.4c-1.5,2.1-3.6,3.8-6.4,4.9c-2.8,1.2-6,1.8-9.7,1.8h-19.4
		c-2,0-3.5-0.5-4.6-1.6c-1.1-1.1-1.6-2.6-1.6-4.6v-39.1c0-2,0.5-3.5,1.6-4.6c1.1-1.1,2.6-1.6,4.6-1.6h18.7c5.4,0,9.7,1.2,12.9,3.6
		s4.8,5.7,4.8,9.8c0,2.6-0.7,5-2.1,7c-1.4,2-3.4,3.5-5.9,4.4C773.5,620.6,775.8,622.1,777.4,624.3z M749,615.1h9.6
		c2.5,0,4.4-0.4,5.6-1.2c1.2-0.8,1.8-2,1.8-3.7c0-1.8-0.6-3.1-1.8-3.9c-1.2-0.8-3-1.2-5.6-1.2H749V615.1z M765.6,635
		c1.1-0.9,1.7-2.3,1.7-4.2c0-1.9-0.6-3.3-1.7-4.2c-1.1-0.9-3.1-1.3-5.7-1.3H749v11h10.9C762.5,636.2,764.4,635.8,765.6,635z"/>
	<path d="M788.3,644.8c-1.1-1.1-1.6-2.6-1.6-4.6v-39.1c0-2,0.5-3.5,1.6-4.6c1.1-1.1,2.6-1.6,4.6-1.6h25.3c2.1,0,3.7,0.4,4.8,1.3
		c1.1,0.9,1.6,2.1,1.6,3.8c0,3.5-2.1,5.3-6.4,5.3h-18.4v9.8h17c4.2,0,6.4,1.7,6.4,5.2c0,1.7-0.5,2.9-1.6,3.8
		c-1.1,0.9-2.7,1.3-4.8,1.3h-17V636h18.4c4.2,0,6.4,1.8,6.4,5.3c0,1.7-0.5,2.9-1.6,3.8c-1.1,0.9-2.7,1.3-4.8,1.3h-25.3
		C790.9,646.4,789.3,645.9,788.3,644.8z"/>
	<path d="M852.8,644.8c-1.1-1.1-1.6-2.6-1.6-4.6v-39.1c0-2,0.5-3.5,1.6-4.6c1.1-1.1,2.6-1.6,4.6-1.6h25.3c2.1,0,3.7,0.4,4.8,1.3
		c1.1,0.9,1.6,2.1,1.6,3.8c0,3.5-2.1,5.3-6.4,5.3h-18.4v9.8h17c4.2,0,6.4,1.7,6.4,5.2c0,1.7-0.5,2.9-1.6,3.8
		c-1.1,0.9-2.7,1.3-4.8,1.3h-17V636h18.4c4.2,0,6.4,1.8,6.4,5.3c0,1.7-0.5,2.9-1.6,3.8c-1.1,0.9-2.7,1.3-4.8,1.3h-25.3
		C855.4,646.4,853.9,645.9,852.8,644.8z"/>
	<path d="M939,596.3c1.2,1.2,1.8,2.8,1.8,4.8v39.1c0,2-0.6,3.6-1.8,4.8c-1.2,1.2-2.7,1.8-4.5,1.8c-2.2,0-3.8-0.7-5-2.2l-22.2-27.7
		v23.2c0,2-0.6,3.6-1.7,4.8c-1.1,1.2-2.6,1.8-4.5,1.8c-1.9,0-3.4-0.6-4.5-1.8c-1.2-1.2-1.8-2.8-1.8-4.8v-39.1c0-1.9,0.6-3.5,1.8-4.8
		c1.2-1.2,2.7-1.8,4.5-1.8c2.1,0,3.7,0.7,4.9,2.2l22.2,27.6v-23.2c0-2,0.6-3.6,1.7-4.8c1.1-1.2,2.6-1.8,4.5-1.8
		C936.3,594.5,937.8,595.1,939,596.3z"/>
	<path d="M502.4,729.1c-3.9-3.8-5.8-9.4-5.8-16.7v-23.6c0-2,0.6-3.6,1.8-4.8c1.2-1.2,2.8-1.8,4.8-1.8c2,0,3.6,0.6,4.8,1.8
		c1.2,1.2,1.8,2.8,1.8,4.8v24.1c0,3.7,0.8,6.6,2.5,8.6c1.7,2,4,3,7.2,3c3.1,0,5.5-1,7.2-3c1.7-2,2.5-4.8,2.5-8.6v-24.1
		c0-2,0.6-3.6,1.8-4.8c1.2-1.2,2.8-1.8,4.8-1.8c2,0,3.6,0.6,4.8,1.8c1.2,1.2,1.8,2.8,1.8,4.8v23.6c0,7.3-2,12.8-5.9,16.6
		c-3.9,3.8-9.6,5.7-17,5.7C511.9,734.8,506.3,732.9,502.4,729.1z"/>
	<path d="M595.5,684c1.2,1.2,1.8,2.8,1.8,4.8v39.1c0,2-0.6,3.6-1.8,4.8c-1.2,1.2-2.7,1.8-4.5,1.8c-2.2,0-3.8-0.7-5-2.2l-22.2-27.7
		v23.2c0,2-0.6,3.6-1.7,4.8s-2.6,1.8-4.5,1.8c-1.9,0-3.4-0.6-4.5-1.8c-1.2-1.2-1.8-2.8-1.8-4.8v-39.1c0-1.9,0.6-3.5,1.8-4.8
		c1.2-1.2,2.7-1.8,4.5-1.8c2.1,0,3.7,0.7,4.9,2.2l22.2,27.6v-23.2c0-2,0.6-3.6,1.7-4.8c1.1-1.2,2.6-1.8,4.5-1.8
		C592.8,682.2,594.3,682.8,595.5,684z"/>
	<path d="M656.6,728.5c0,1.6-0.6,3-1.9,4.1c-1.3,1.1-2.8,1.7-4.4,1.7c-1.1,0-2.1-0.3-3.1-0.9c-0.9-0.6-1.7-1.5-2.2-2.6l-3.3-7.4
		h-23.7l-3.4,7.4c-0.5,1.2-1.3,2-2.2,2.6c-0.9,0.6-2,0.9-3.1,0.9c-1.7,0-3.2-0.6-4.5-1.7c-1.3-1.1-2-2.5-2-4.1
		c0-0.9,0.2-1.8,0.7-2.7l19.3-39.6c0.6-1.3,1.6-2.3,2.8-3c1.2-0.7,2.6-1.1,4.1-1.1c1.5,0,2.8,0.4,4.1,1.1c1.3,0.7,2.2,1.7,2.8,3
		l19.3,39.6C656.4,726.8,656.6,727.7,656.6,728.5z M622.6,713.3h14.6l-7.3-16.3L622.6,713.3z"/>
	<path d="M670,733.5c-3.3-0.9-6.1-2-8.2-3.5c-0.8-0.6-1.4-1.3-1.8-2c-0.4-0.7-0.5-1.6-0.5-2.6c0-1.5,0.4-2.7,1.3-3.8
		c0.9-1.1,1.9-1.6,3.1-1.6c0.6,0,1.2,0.1,1.8,0.3c0.6,0.2,1.3,0.6,2.2,1.1c2,1.1,4,1.9,6,2.4c2,0.5,4.2,0.7,6.7,0.7
		c2.9,0,5.1-0.4,6.5-1.3s2.2-2.1,2.2-3.8c0-1.1-0.7-2.1-2.1-2.9c-1.4-0.8-4-1.6-7.9-2.4c-4.8-1-8.6-2.2-11.3-3.7s-4.6-3.1-5.7-5
		c-1.1-1.9-1.6-4.3-1.6-7c0-3.1,0.9-5.9,2.8-8.5c1.9-2.5,4.4-4.5,7.6-6c3.2-1.4,6.9-2.2,10.9-2.2c3.6,0,6.7,0.4,9.5,1.2
		s5.3,2,7.6,3.7c0.9,0.6,1.5,1.3,1.9,2c0.4,0.7,0.5,1.6,0.5,2.6c0,1.5-0.4,2.7-1.3,3.8c-0.9,1.1-1.9,1.6-3,1.6
		c-0.6,0-1.2-0.1-1.8-0.3c-0.5-0.2-1.3-0.5-2.3-1.1c-0.2-0.1-0.9-0.5-2.1-1.1c-1.1-0.6-2.5-1.1-4-1.5c-1.5-0.4-3.2-0.5-5-0.5
		c-2.5,0-4.5,0.5-6,1.4c-1.5,0.9-2.3,2.2-2.3,3.8c0,0.9,0.3,1.7,0.8,2.3c0.5,0.6,1.5,1.2,3,1.7c1.5,0.6,3.6,1.1,6.5,1.7
		c4.7,1,8.4,2.3,11,3.7c2.7,1.4,4.6,3.1,5.7,5c1.1,1.9,1.7,4.1,1.7,6.7c0,3.2-0.9,6.1-2.7,8.5c-1.8,2.5-4.3,4.4-7.6,5.7
		c-3.2,1.3-7,2-11.3,2C676.9,734.8,673.3,734.3,670,733.5z"/>
	<path d="M732.7,732.7c-1.2-1.2-1.8-2.8-1.8-4.9v-39.1c0-2,0.5-3.5,1.6-4.6c1.1-1.1,2.6-1.6,4.6-1.6h18.7c5.7,0,10.1,1.4,13.3,4.3
		c3.2,2.9,4.8,6.9,4.8,12.1c0,5.1-1.6,9.1-4.8,12.1c-3.2,2.9-7.6,4.4-13.3,4.4h-11.5v12.4c0,2-0.6,3.7-1.8,4.9
		c-1.2,1.2-2.9,1.8-5,1.8C735.5,734.5,733.9,733.9,732.7,732.7z M754,705.4c2.5,0,4.3-0.5,5.5-1.5c1.2-1,1.8-2.6,1.8-4.8
		c0-4.2-2.4-6.4-7.3-6.4h-9.6v12.6H754z"/>
	<path d="M791.3,731.5c-3.9-2.2-6.9-5.2-9-9.2c-2.1-4-3.1-8.6-3.1-14c0-5.4,1-10,3.1-14c2.1-4,5.1-7,9-9.2c3.9-2.1,8.4-3.2,13.7-3.2
		s9.8,1.1,13.7,3.2c3.9,2.1,6.8,5.2,8.9,9.2c2.1,4,3.1,8.6,3.1,14c0,5.4-1,10-3.1,14c-2.1,4-5.1,7-9,9.2c-3.9,2.2-8.4,3.3-13.6,3.3
		C799.8,734.8,795.2,733.7,791.3,731.5z M814.2,720.3c2.2-2.8,3.3-6.8,3.3-12c0-5.3-1.1-9.3-3.3-12c-2.2-2.7-5.3-4.1-9.1-4.1
		c-3.9,0-6.9,1.4-9.1,4.1c-2.2,2.7-3.3,6.7-3.3,12c0,5.3,1.1,9.3,3.3,12.1c2.2,2.7,5.2,4.1,9.1,4.1
		C808.9,724.5,812,723.1,814.2,720.3z"/>
	<path d="M849.6,731.5c-3.9-2.1-6.9-5.2-9-9.2s-3.2-8.7-3.2-14c0-5.3,1.1-10,3.2-14s5.1-7.1,9-9.2c3.9-2.1,8.4-3.2,13.6-3.2
		c6.2,0,11.6,1.6,16.3,4.9c0.8,0.6,1.4,1.2,1.8,1.9c0.4,0.7,0.5,1.6,0.5,2.6c0,1.5-0.4,2.8-1.3,3.8c-0.9,1-1.9,1.6-3.1,1.6
		c-0.7,0-1.4-0.1-2-0.3c-0.6-0.2-1.3-0.6-2-1.1c-1.7-1-3.3-1.8-4.8-2.2c-1.5-0.4-3.1-0.7-4.7-0.7c-4.3,0-7.6,1.3-9.7,3.9
		c-2.1,2.6-3.2,6.6-3.2,11.9c0,5.4,1.1,9.3,3.2,11.9c2.1,2.6,5.3,3.9,9.7,3.9c1.5,0,2.9-0.2,4.2-0.7c1.4-0.5,3.1-1.2,5.3-2.2
		c1-0.5,1.8-0.9,2.3-1.1c0.5-0.2,1.1-0.3,1.8-0.3c1.2,0,2.3,0.5,3.1,1.6c0.9,1,1.3,2.3,1.3,3.8c0,1-0.2,1.9-0.5,2.6
		c-0.4,0.7-1,1.4-1.8,1.9c-4.7,3.3-10.1,4.9-16.3,4.9C858,734.8,853.4,733.7,849.6,731.5z"/>
	<path d="M937.7,728.5c0,1.6-0.6,3-1.9,4.1c-1.3,1.1-2.8,1.7-4.4,1.7c-1.1,0-2.1-0.3-3.1-0.9c-0.9-0.6-1.7-1.5-2.2-2.6l-3.3-7.4
		h-23.7l-3.4,7.4c-0.5,1.2-1.3,2-2.2,2.6c-0.9,0.6-2,0.9-3.1,0.9c-1.7,0-3.2-0.6-4.5-1.7c-1.3-1.1-2-2.5-2-4.1
		c0-0.9,0.2-1.8,0.7-2.7l19.3-39.6c0.6-1.3,1.6-2.3,2.8-3c1.2-0.7,2.6-1.1,4.1-1.1c1.5,0,2.8,0.4,4.1,1.1c1.3,0.7,2.2,1.7,2.8,3
		l19.3,39.6C937.5,726.8,937.7,727.7,937.7,728.5z M903.6,713.3h14.6l-7.3-16.3L903.6,713.3z"/>
	<path d="M951,733.5c-3.3-0.9-6.1-2-8.2-3.5c-0.8-0.6-1.4-1.3-1.8-2c-0.4-0.7-0.5-1.6-0.5-2.6c0-1.5,0.4-2.7,1.3-3.8
		c0.9-1.1,1.9-1.6,3.1-1.6c0.6,0,1.2,0.1,1.8,0.3c0.6,0.2,1.3,0.6,2.2,1.1c2,1.1,4,1.9,6,2.4c2,0.5,4.2,0.7,6.7,0.7
		c2.9,0,5.1-0.4,6.5-1.3c1.5-0.9,2.2-2.1,2.2-3.8c0-1.1-0.7-2.1-2.1-2.9c-1.4-0.8-4-1.6-7.9-2.4c-4.8-1-8.6-2.2-11.3-3.7
		c-2.7-1.4-4.6-3.1-5.7-5c-1.1-1.9-1.6-4.3-1.6-7c0-3.1,0.9-5.9,2.8-8.5c1.9-2.5,4.4-4.5,7.6-6c3.2-1.4,6.9-2.2,10.9-2.2
		c3.6,0,6.7,0.4,9.5,1.2s5.3,2,7.6,3.7c0.9,0.6,1.5,1.3,1.9,2c0.4,0.7,0.5,1.6,0.5,2.6c0,1.5-0.4,2.7-1.3,3.8
		c-0.9,1.1-1.9,1.6-3,1.6c-0.6,0-1.2-0.1-1.8-0.3c-0.5-0.2-1.3-0.5-2.3-1.1c-0.2-0.1-0.9-0.5-2.1-1.1c-1.1-0.6-2.5-1.1-4-1.5
		c-1.5-0.4-3.2-0.5-5-0.5c-2.5,0-4.5,0.5-6,1.4c-1.5,0.9-2.3,2.2-2.3,3.8c0,0.9,0.3,1.7,0.8,2.3c0.5,0.6,1.5,1.2,3,1.7
		c1.5,0.6,3.6,1.1,6.5,1.7c4.7,1,8.4,2.3,11,3.7c2.7,1.4,4.6,3.1,5.7,5c1.1,1.9,1.7,4.1,1.7,6.7c0,3.2-0.9,6.1-2.7,8.5
		c-1.8,2.5-4.3,4.4-7.6,5.7c-3.2,1.3-7,2-11.3,2C958,734.8,954.3,734.3,951,733.5z"/>
	<path d="M498.5,820.2c-1.1-1.1-1.6-2.6-1.6-4.7v-39c0-2,0.6-3.6,1.8-4.8c1.2-1.2,2.8-1.8,4.9-1.8c2.1,0,3.8,0.6,5,1.8
		c1.2,1.2,1.8,2.8,1.8,4.8v34.4h16.8c4.2,0,6.4,1.8,6.4,5.5c0,1.9-0.5,3.2-1.6,4.1c-1,0.9-2.6,1.3-4.8,1.3h-24
		C501.1,821.8,499.6,821.3,498.5,820.2z"/>
	<path d="M540.5,820.5c-1.2-1.2-1.8-2.8-1.8-4.9v-39.1c0-2,0.6-3.6,1.8-4.8s2.8-1.8,4.9-1.8c2.1,0,3.8,0.6,5,1.8
		c1.2,1.2,1.8,2.8,1.8,4.8v39.1c0,2-0.6,3.7-1.8,4.9c-1.2,1.2-2.9,1.8-5,1.8C543.3,822.2,541.7,821.6,540.5,820.5z M545.3,766.3
		c-0.8,0-1.5-0.3-2.1-0.8c-0.6-0.5-0.9-1.2-0.9-1.9c0-0.7,0.4-1.5,1.1-2.2l5.9-5.6c1.3-1.2,2.6-1.8,3.9-1.8c1.3,0,2.4,0.5,3.3,1.4
		c0.9,0.9,1.4,2,1.4,3.2c0,1.9-1.1,3.3-3.3,4.3l-7.8,3.1C546.3,766.2,545.8,766.3,545.3,766.3z"/>
	<path d="M605.7,771.7c1.2,1.2,1.8,2.8,1.8,4.8v39.1c0,2-0.6,3.6-1.8,4.8c-1.2,1.2-2.7,1.8-4.5,1.8c-2.2,0-3.8-0.7-5-2.2L574,792.3
		v23.2c0,2-0.6,3.6-1.7,4.8c-1.1,1.2-2.6,1.8-4.5,1.8c-1.9,0-3.4-0.6-4.5-1.8c-1.2-1.2-1.8-2.8-1.8-4.8v-39.1c0-1.9,0.6-3.5,1.8-4.8
		c1.2-1.2,2.7-1.8,4.5-1.8c2.1,0,3.7,0.7,4.9,2.2l22.2,27.6v-23.2c0-2,0.6-3.6,1.7-4.8c1.1-1.2,2.6-1.8,4.5-1.8
		C602.9,769.9,604.5,770.5,605.7,771.7z"/>
	<path d="M618.4,820.2c-1.1-1.1-1.6-2.6-1.6-4.6v-39.1c0-2,0.5-3.5,1.6-4.6c1.1-1.1,2.6-1.6,4.6-1.6h25.3c2.1,0,3.7,0.4,4.8,1.3
		c1.1,0.9,1.6,2.1,1.6,3.8c0,3.5-2.1,5.3-6.4,5.3h-18.4v9.8h17c4.2,0,6.4,1.7,6.4,5.2c0,1.7-0.5,2.9-1.6,3.8
		c-1.1,0.9-2.7,1.3-4.8,1.3h-17v10.7h18.4c4.2,0,6.4,1.8,6.4,5.3c0,1.7-0.5,2.9-1.6,3.8c-1.1,0.9-2.7,1.3-4.8,1.3H623
		C621,821.8,619.5,821.3,618.4,820.2z"/>
	<path d="M709.8,816.2c0,1.6-0.6,3-1.9,4.1c-1.3,1.1-2.8,1.7-4.4,1.7c-1.1,0-2.1-0.3-3.1-0.9c-0.9-0.6-1.7-1.5-2.2-2.6l-3.3-7.4
		h-23.7l-3.4,7.4c-0.5,1.2-1.3,2-2.2,2.6c-0.9,0.6-2,0.9-3.1,0.9c-1.7,0-3.2-0.6-4.5-1.7c-1.3-1.1-2-2.5-2-4.1
		c0-0.9,0.2-1.8,0.7-2.7l19.3-39.6c0.6-1.3,1.6-2.3,2.8-3c1.2-0.7,2.6-1.1,4.1-1.1c1.5,0,2.8,0.4,4.1,1.1c1.3,0.7,2.2,1.7,2.8,3
		l19.3,39.6C709.6,814.5,709.8,815.4,709.8,816.2z M675.7,801h14.6l-7.3-16.3L675.7,801z"/>
	<path d="M723.1,821.2c-3.3-0.9-6.1-2-8.2-3.5c-0.8-0.6-1.4-1.3-1.8-2c-0.4-0.7-0.5-1.6-0.5-2.6c0-1.5,0.4-2.7,1.3-3.8
		c0.9-1.1,1.9-1.6,3.1-1.6c0.6,0,1.2,0.1,1.8,0.3c0.6,0.2,1.3,0.6,2.2,1.1c2,1.1,4,1.9,6,2.4c2,0.5,4.2,0.7,6.7,0.7
		c2.9,0,5.1-0.4,6.5-1.3c1.5-0.9,2.2-2.1,2.2-3.8c0-1.1-0.7-2.1-2.1-2.9c-1.4-0.8-4-1.6-7.9-2.4c-4.8-1-8.6-2.2-11.3-3.7
		c-2.7-1.4-4.6-3.1-5.7-5c-1.1-1.9-1.6-4.3-1.6-7c0-3.1,0.9-5.9,2.8-8.5c1.9-2.5,4.4-4.5,7.6-6c3.2-1.4,6.9-2.2,10.9-2.2
		c3.6,0,6.7,0.4,9.5,1.2s5.3,2,7.6,3.7c0.9,0.6,1.5,1.3,1.9,2c0.4,0.7,0.5,1.6,0.5,2.6c0,1.5-0.4,2.7-1.3,3.8
		c-0.9,1.1-1.9,1.6-3,1.6c-0.6,0-1.2-0.1-1.8-0.3c-0.5-0.2-1.3-0.5-2.3-1.1c-0.2-0.1-0.9-0.5-2.1-1.1c-1.1-0.6-2.5-1.1-4-1.5
		c-1.5-0.4-3.2-0.5-5-0.5c-2.5,0-4.5,0.5-6,1.4c-1.5,0.9-2.3,2.2-2.3,3.8c0,0.9,0.3,1.7,0.8,2.3c0.5,0.6,1.5,1.2,3,1.7
		c1.5,0.6,3.6,1.1,6.5,1.7c4.7,1,8.4,2.3,11,3.7c2.7,1.4,4.6,3.1,5.7,5c1.1,1.9,1.7,4.1,1.7,6.7c0,3.2-0.9,6.1-2.7,8.5
		c-1.8,2.5-4.3,4.4-7.6,5.7c-3.2,1.3-7,2-11.3,2C730.1,822.5,726.5,822,723.1,821.2z"/>
	<path d="M762.6,820.2c-1.3-1.4-2-3-2-5c0-2,0.7-3.7,2-5s3-2,5.1-2c2,0,3.7,0.7,5,2c1.3,1.4,2,3,2,5c0,2-0.7,3.7-2,5
		c-1.3,1.4-3,2-5,2C765.6,822.2,763.9,821.6,762.6,820.2z"/>
</g>
</svg>
