<svg xmlns="http://www.w3.org/2000/svg" width="800" height="1000" style="enable-background:new 0 0 800 1000" xml:space="preserve"><path d="M788.1 879.6c-23.4-4.1-49.4 1.5-72.3 3.9-25.3 2.7-51.1 4.5-77 5.3-25.5.8-51.1.8-76.6-.2-26.1-1-51.5-3.3-77.2-5.4-25-2-49.4-2.6-74.5-.8-24.1 1.7-47.5 5-71.2 7.8-24.1 2.8-48.4 4.9-73.2 4.4-26-.5-51.5-3.2-77-5.3-28.3-2.4-56.6-3.6-85.4-2.8-28.4.8-56.4 3.4-83.3 7.7-5.2.8-3 4.8 2.3 3.9 48.7-7.7 100.4-9.6 151.1-5.9 25.1 1.8 49.9 4.6 75.2 5.9 24.6 1.2 48.8.5 73-1.9 23.9-2.3 47.3-5.7 71.1-8.2 24.6-2.5 49.1-3.5 74.2-2.1 25.3 1.5 50.1 4.3 75.4 5.7 25.4 1.4 51 1.9 76.5 1.5 28.1-.4 56.1-1.9 83.7-4.5 13.8-1.3 27.4-2.9 41-4.6 13.7-1.7 28.1-3.3 41.9-.8 5.2 1.3 7.4-2.7 2.3-3.6z"/><ellipse cx="389" cy="919.3" rx="102.5" ry="25.3" style="fill:#ccc"/><path d="M270.8 886.9c.2-5.4.1-11-.7-16.3-1.2 2.1-2.3 4-3.6 6.1-.8-.1-.9-.2-1.8-.2-1.6-5-3-10-2.2-15.3-2.1.1-4 .2-6 .2 5-6.9 9.1-14.9 9.6-23.6.7-8.1 4-16 2.7-24.2-1.2-4.9-3.6-9.3-4.7-14.3-3.3-15.4-2.6-31.5-.7-47.1-2.6-3.3-7.8-3-11.9-3.6.3-.7.8-2.1 1.2-2.9-1.9-1.8-4.7-3.1-5.1-5.9-.1-.5-.2-.8-.2-1.2-2.2-5-2.8-11.5-2.4-18.4-.6-9.5.2-19.2 2.5-28.5 1.8-5.7 4.6-10.8 7.9-15.6.9-1.3 1.9-2.6 3-3.8-.6-3.1-.9-6.1-.7-9.2.1-.7-.2-1.2-.4-1.7.6-.2 1-.2 1.5-.4h.1c-.3-3.1-.8-6.1-1.2-9.2 1.2 1.2 2.6 2.3 3.8 3.5 2.6 2.2 6.4-1.6 3.8-3.8-6.4-5.3-11.8-11.6-16.7-18.2-3.4-4.6-6.5-9.2-9.4-14.2-.3-1.2-.6-2.6-.8-3.7.4-.6.6-1.2.2-2.1-.6-1.4-.9-2.8-1.3-4.2-.2-.9-.2-1.9-.2-2.8-.2-.1-.4-.2-.6-.2-1.6-6.4-2.6-12.8-3-19.2 2.6-7.5 6.6-14.8 8.4-22.5.3-1.2-.2-2.2-1.2-2.9 2.6-2.7 5.1-5.5 6.6-9.2 4.3-9 2.2-19.2 4-28.6.4-2.4 1.2-4.7 2.1-7-.2-.2-.6-.3-.7-.6.1-.8-.1-1.7-.3-2.5-.1-.2-.2-.2-.2-.4-.7-1-1.2-2.4-1.7-3.1 0-.1-.1-.2-.1-.2s.1-.1.2-.1c-.1 0-.1 0-.2.1l-.4-.7c-.3-.5-.7-.8-1.1-1.2-.8-.8-1.7-1.6-2.1-2.1-.7-.7-1.2-1.6-1.7-2.4-.4-1.6-.7-3.1-.8-4.7-.6-1.2-.9-2.6-1.2-3.9-.8-4.9-.7-10.7 1.9-14.9 1.6-6 4.6-11.6 9.5-15.9.2.1.3.2.5.2-.2-.1-.2-.2-.3-.2 6.3-1 13.4-3.6 19.2-.1 2.6 1.3 5.3 3 8.4 2.4.7.4 2.2 1.2 3 1.6 2 2.6 4 5.3 5.9 8.1 20.6-10.2 44.7-13.5 67-8.4 1.2.7 2.6 1.2 4.3 1.2h.5c.6.2 1.2.3 1.7.5v-.7c1.4-.4 2.6-1.1 3.4-2 2.9-.7 4.7-2.6 5.4-5 4-3.1 8.3-5.7 13-7.8 5.1.9 11.2 1.7 15 5.2 1 .2 1.7.7 2.2 1.5.2 11.1-1.9 22-3.5 33-1.8 2.3-3.9 4.5-6.4 6.2-2.9 1.9-.2 6.5 2.7 4.7.9-.7 1.9-1.2 2.7-2-.5 5.4.1 10.8 2.1 15.9 2.3 6 5.9 11.4 9.2 17 .7 1.2 1.7 1.5 2.6 1.2 2 1.8 4.1 3.3 6.4 4.9 1.6.2 3.2.6 4.8.8.1.8.1 1.8.2 2.6.2.2.5.3.7.6 1.6 1.2 3.1 2.6 4.7 4 1 2.6 1.9 5.2 2.6 7.8l-.5-.2c.2.3.4.6.7.8 2.2 8 3.9 16.3 4.7 24.9-.7 5.9-.7 11.9.1 17.8-.2 1.4-.2 2.7-.4 4-.2 1.5-.4 3-.7 4.5-3.4 7.4-7.9 14.6-14.4 19.6-2.7 2.1 1.1 5.9 3.8 3.8.7-.6 1.2-1 1.9-1.6-4.5 5.4-9.9 10.6-11.9 17.7-.4 1.4.7 3 2 3.4-.2 1.6-.5 3.1-.6 4.7h.1c.8.2 1.7.6 2.6.7-.6.8-.7 1.8-.4 2.9 3.6 3.6 6.8 7.5 9.2 12.1 8.8 15.4 10.2 34.3 5 51.1-1.2 4-3.9 7-6.7 9.8-1.4 1.9-3.1 3.6-5 5.4 4.1 16.5 5.1 34.1 1.9 50.9-1.1 6.6-6.4 12.1-5.4 19.2-.2 10.6 4.7 20.1 7.4 30.1 1.8 6.7 4.3 13.2 6.5 19.8-2-1.7-4-3.6-5.9-5.2 0 4-.1 7.9-.3 12-2.5 3.9-3.3 8.4-3.6 13 5.7.2 11.7-.2 16.8 2.9 5.9 3.8 10.7 9.2 13.5 15.6 2.2 9.7 5.4 19.6 3.1 29.6-5.1 7.6-15.1 8.8-23.3 11.6-8.8 3.2-18.1 3-27 5-15.9 2.1-30.2-6.6-45.3-9.7-4-4.7-9.4-7.7-14.2-11.4-6.4 5.4-12.5 11.2-20.6 14-11.2 4-22.2 8.3-33.9 11.1-14.1 3.1-27.7-3.2-41.6-5-5.4-3.5-14-5.4-14.7-13-.1-10.2 3.1-20.1 6.9-29.3 6.9-8.2 17.8-13.5 28.5-13z" style="fill:#fff"/><path d="M388.2 526.8c-9 5.1-19.2 6.3-28.9 7.3-3.6-9 4-7.5 7-8.8 8.8-1.8 17.1-6 25.3-10.2 1.4-.8 2.7.6 4 1.2.6 3.3-.2 6.4-1.7 9.1-1.8.9-3.9.3-5.7 1.4zm-15.8 92.1c.1-.1.1-.2.2-.3-.1.1-.1.3-.2.3zm-61.7 11c5 9.5 12.9 17.3 23.8 18.3 7.1.5 13.5-1.5 19.1-5-5.9 4.4-13 6.8-21 6.4-10.7-1.1-18.6-8.5-23.5-17.8.6-.6 1.2-1.2 1.6-1.9zm-4.8 4c-.1-.2-.2-.3-.2-.6.6-.2 1.2-.3 1.7-.6-.5.5-.9.9-1.5 1.2zm59.3 1.6c-.7-.6-1.2-1-1.9-1.6.5-.7.9-1.2 1.3-2l.1.1c.7.7 1.6 1.4 2.4 2.1-3.6 5.9-8.2 11-14.2 14.9 5.1-3.6 9.2-8.3 12.3-13.5zm-22.3-2.6c-5-.3-10.8-.1-14.7-4 5-.2 11.4-.8 14.7 4zm3.2-13.3c-9.9.9-19.8.6-29.6-.8-2.5-.4-1.4-3.3 1-3 7.4 1.1 14.8 1.6 22.2 1.2 3.8-.2 7.7-.6 11.5-1.1 2.6-.3 5.9.2 5.9-3.4.4-1.9 4.1-1.1 3.7.8 0 7-9.9 5.6-14.7 6.3zm-30.4-128.9c2.2-.3 4.6-.7 6.9-.9-2.1.9-4.4 1.2-6.9.9z"/><path d="M228.8 602c2 .7 4 1.6 6 2.2.4 8.3 3.7 16.2 4.5 24.4l2.8-.8c3.1 4.6 6.1 9.5 9.3 14.1-.7.2-1.2.2-1.9.3-.4.3-.7.7-1.1.9 1.4.2 3 .2 4.3.6.9 1.2 1.9 2.6 3 3.7.4 4 1.1 7.9 1.6 11.9h-.1c-.5.2-.9.2-1.5.4.3.5.5 1 .5 1.7-.2 3.2.3 6.4.8 9.3-1 1.2-2.1 2.6-3 3.9-3.5 4.9-6.3 10.1-7.9 15.8-2.3 9.4-3 19.2-2.2 28.8-.3 7.1.3 13.6 2.6 18.6.1.5.2.8.2 1.3.6 2.7 3.5 4 5.3 5.9-.3.7-.8 2.1-1.2 2.9 4 .7 9.2.3 12 3.6-1.8 15.8-2.4 31.9 1 47.5 1.2 5 3.6 9.4 4.8 14.3.7 5-.1 9.7-.9 14.5-1.8 5.5-2.9 10.9-2.7 16.7-1.7 6.2-4.8 12-8.4 17.1 2.1-.1 4-.2 6.1-.3-.6 5.3.8 10.4 2.4 15.4.8.1.9.1 1.8.2 1.1-2.1 2.2-4.1 3.6-6.2.8 5.4.9 11.1.8 16.6-10.8-.2-21.7 5-29.1 12.7-3.7 9.4-6.8 19.5-6.7 29.6.7 7.7 9.4 9.7 14.9 13.1 14 1.7 27.7 7.8 42 4.7 11.6-2.9 22.8-7.4 34.1-11.4 8-2.8 14.4-8.8 20.6-14.3 4.9 3.7 10.3 6.7 14.4 11.4 15.3 3 29.8 11.7 45.8 9.4 9-2.2 18.4-2.1 27.2-5.3 8.1-3 18.2-4.3 23.4-12 2.2-10.1-1-20.1-3.4-29.8-3-6.4-7.8-11.9-13.8-15.7-5.1-3-11.2-2.6-17-2.7.4-4.5 1.2-9.2 3.6-13 .2-4 .2-8 .2-12.1 2 1.7 4 3.6 6 5.2-2.2-6.6-5-13.2-6.7-19.9-2.8-10.1-7.8-19.6-7.8-30.3-1.2-7.1 4.3-12.6 5.3-19.3 3.2-17 2.1-34.8-2.2-51.4 1.9-1.8 3.6-3.6 5-5.5 2.9-2.9 5.6-5.9 6.7-9.9 5.3-16.9 3.6-36.1-5.3-51.5-2.4-4.6-5.7-8.4-9.3-12.1-.3-1.1-.2-2.1.4-2.9-.9-.2-1.9-.6-2.6-.7 0 0-.1 0-.1-.1.5-4.2 1.1-8.3 1.6-12.5 1.9-2.1 3.7-4.3 5.5-6.5l2.6-.2c-.4-.4-.8-.7-1.2-1.2-.1 0-.1 0-.2-.1 1.8-2.2 3.6-4.5 5-6.9 5.9-14.3 9.8-29.5 8.9-45 .8-.1 2.6-.1 3.6-.2-1.7-10.1-5.3-19.9-11.3-28.2 2.4 1.3 4.9 2.6 7.3 3.8-3.4-6.4-8.8-11-14.3-15.4-.2-.2-.5-.3-.7-.6l-.2-2.6c-1.6-.2-3.3-.6-4.9-.7-5.2-3.6-10.4-7.3-13-13.3-2.4-5.6-4-11.6-6-17.3h.2c-.2-.7-.4-1.6-.3-2.3.1-.7.2-1.5.3-2.1.1-.2.2-.6.2-.7-.7-1-.7-2.3.2-3.6 6.2-8.2 9.9-20.2 8.2-30.5-.6-3.6-1.9-6.8-3.5-10l-2.1.3c-.2-1.6-1.2-2.9-3-3.2-4-3.6-10.1-4.3-15.3-5.1-4.6 2.1-9.1 4.7-13 7.8-.7 2.4-2.6 4.5-5.4 5-.8.9-2.1 1.7-3.5 2v.7c-.6-.2-1.2-.3-1.7-.5h-.5c-1.7 0-3.2-.5-4.4-1.2-22.5-5-47-1.6-67.5 8.9l-6-8.1c-.7-.4-2.2-1.2-3-1.6-3.1.6-5.9-1.1-8.5-2.3-6-3.5-13.1-.8-19.5.2.2.1.2.2.3.2-.2-.1-.3-.2-.5-.2-5 4.3-8 9.9-9.5 16.1-2.6 4.4-2.6 10.2-1.7 15.1.2 1.4.7 2.6 1.2 4 .2 1.6.6 3.1.9 4.7.6.8 1.2 1.7 1.8 2.4.5.6 1.3 1.2 2.1 2.1.5.5.7.8 1.1 1.2l.4.7c.1 0 .1 0 .2-.1l-.1.1c.1.1.1.2.1.2.4.7 1 2.1 1.7 3.2l.2.4c.2.8.4 1.7.3 2.5.2.2.6.3.7.6-.8 2.2-1.7 4.6-2 7.1-1.7 9.6.4 19.8-4 29-2.7 6.6-8.8 10.8-13.2 16.3l5.6-.2c-1.9 3.1-3.6 6.4-5 9.7-1 8-3.7 18.4-3.3 26.6zM405 476.5v-.2c.1 1.4-.1 2.8-.3 4.2-.1-.4-.1-.7-.2-1.1-.3-1.1 0-2 .5-2.9zm5.7 59.7c-3.3-.6-6.5-1.2-9.8-1.6-4.6-.6-9.2-.8-13.9-.6-6 .4-11.9 1.4-17.8 2.4-6 1.1-11.8 3-17.8 4.1-4 .8-22.1 3.1-26.3 3.1-.8-.1-1.7-.1-2.6-.2-7.5-.6-14.9-2.1-22.3-3.2 2-.6 4 .2 6-.1 2-1.7 3.3-4 3.3-6.4-1.2-.7-2.3-2-4-1.6-9.1 1.7-18.2 3.6-27.7 3.3-3.2.4-10.6-1.9-8.8 4.7-1.8.3-3.6.7-5.3 1-4.4 1-8.5 2.7-13 3.6-.6.1-1 .2-1.6.4 2.1-9.3 1.4-20 4-29.2-.1-.7.2-1.5.7-2.2.5-.7.7-1.2 1-1.9-.2-.6-.5-.9-.7-1.5 1.7-.8 3.3-2.1 4.1-2.6 1.4-.9 2.7-2 4.1-3 1.2-.8 3.7-2.1 4.3-3.4.2-.3.2-.6.3-.7-.2-.5-1.1-1.2-1.9-1.8.1.1.1.2.2.2-.2 0-.5.1-.7 0-1.5-.8-2.6-1.9-3.7-3.2.6 1.2 1.3 2.2 2.2 3.3-.6 0-1.1-.1-1.6.1-1.9-1.2-3.6-2.9-5-4.8-.8-1-1.4-2.2-2.2-3.4.2 2.7 1.5 5.1 2.6 7.7-5.5-4.5-7.5-11.9-8.3-18.7-.7 3-.2 6.1.1 9.2-2.1-4.6-2-9.8-.9-14.7-.2-.5-.2-.8-.3-1.3-.2.2-.2.3-.4.6 1.2-2.9 3.3-5.4 6.3-7.3.9-.7 2-.7 2.8-.5 7.3-3.3 18.1-.8 23.4 5.1.7.2 1.5.6 2.1.8.6.2.8.5 1.2.7.3-.6.6-1.1.8-1.5.9 3.1 2.1 6 3.5 8.9.6-.6 1.4-.8 2.4-.8v-3.1c5.1-3.4 11.2-5 17.3-5.8.3.4.6.7.8 1.1 1.5-1.2 3.3-2.2 5.6-2.8 1.1-.2 2.1-.4 3.3-.5l-.4-.2c14.6-3.6 30.1-4 44.6.4.2 1.2.5 2.2.7 3.4.6-.5 1.4-.7 2.3-.7h.3l.7-2.5c.8-.1 2.6-.2 3.5-.4.2-.9.5-3 .6-3.9 5.3-4.7 10.4-11.9 18.4-11.3 3.3-.3 6.3.7 9 2.3-.2.1-.2.2-.3.2-.4.1-.7.1-1.2.1 1.3 1.6 2.6 3.3 3.6 5 0 .2-.1.2-.1.4.7 1.2 1.3 2.6 1.5 4-.6-.8-1.1-1.7-1.8-2.3-.2.5-.2.8-.3 1.3 1 5 1.1 10.1-.9 14.7.2-3.1.7-6.2.1-9.2-.7 6.8-2.6 14.3-8.3 18.7 1.1-2.5 2.3-5 2.6-7.7-.8 1.1-1.4 2.2-2.2 3.4-1.3 1.9-3.1 3.6-5 4.8-.6-.2-1-.1-1.6-.1.8-1 1.7-2.1 2.2-3.3-1.1 1.2-2.2 2.3-3.7 3.2h-.7c.1-.1.1-.2.2-.2-.7.6-1.7 1.3-1.9 1.8.1.2.2.3.3.7.6 1.3 3.1 2.5 4.3 3.4 1.4 1 2.7 2.1 4.1 3s5 3.6 6.9 3.8c-.6.6-1 1.1-1.6 1.7.7.6 1.6 1.2 2.2 1.8 2.1 5.9 3.8 12.1 5.7 18.1 2.8 5.3 6.4 9.8 10.4 13.7zm-106.9 39.1c3.6-1.6 6.9-3.6 10.7-4.5.6-.2 1-.5 1.6-.7l.6-.2-1.2 2.8c-3.2 2.6-5.7 5.6-7.4 9.1-.2.8-.6 1.9-.8 2.8-1.8 1.6-3.6 2.8-5.8 3.7-6.4 3.1-13.7 3.6-20.6 2.6-1.7-.3-3.4-.6-5-1-3-.8-5.7-2.6-7.8-4.8-2-2.1-3.6-4.5-4.5-7.2-2.2-6-4-12.1-4.5-18.6-.1-2.2-.2-4.5.6-6.6.8-2.4 2.7-4.4 5-5.6 3.3-1.9 7-2.6 10.7-3.3 6.7-1.1 13.5-1.9 20.5-1.6 1.6.2 3.3.2 4.9.6 3.6.7 7.4 1.5 10.8 3 2.6 1.1 5.1 2.6 6.8 5 1.3 1.9 1.9 4.1 1.9 6.4-4 .4-8.3-.6-12.2-1.7-14.4-4-37.4-14.3-44.3 6.2 3.3-2.3 9.1-4.8 11.2.3 3 6.9 5.8 14.3 13 17.4-1.7-2.4-4-4.5-4.7-7.4 2.6 2.4 4.6 5.7 7.9 7.1-2.4-3.3-5.4-6.2-6.4-10.4 2.6 2.9 4.5 6.4 7.8 8.5-1.2-2.4-3-4.6-3.7-7.2 8.4 5.9 12.7 2.1 21.4.6-2.4 1.5-4.9 2.5-6.5 4.7zm2.1-9.6c-4.3 1.4-9.1 1-13.3-.2-3.7-1.2-7.5-3.3-9.8-6.7-.7-.8-1.1-2.9.4-3.2 1.5-.4 3 .1 4.4.5 5.4 1.6 10.9 3.2 16.3 4.9 1.5.6 3.3.9 4.3 2.5.2 1.2-1.4 1.8-2.3 2.2zm16.3-.5c.4-1.7.9-3.4 1.7-5 4.5-1.9 12.5-3.9 12.5-3.9 5.1-.5 9.8 3 11.9 4.8.6 1.6.9 3.3 1.6 4.9-2.2-.7-4.5-1.2-6.7-1.6-7.8-.6-15.6 1.2-22 4.7.2-1.2.6-2.6 1-3.9zm87.6 3.4c-.7 2.7-1.5 5.4-3 7.8-2.2 4.1-6.3 7.3-10.7 8.7-3.6 1.1-7.4 1.7-11.2 1.9-5.3.2-10.7-.7-15.4-3.1-1.6-2.9-3.5-5.5-5.7-8.1-2.3-2.9-5-5.1-8-6.9l-.2-.4c-.2-.6-.6-1-.7-1.6h.1c.6.2 1.2.4 1.7.7 3.9.9 7.5 3 11.2 4.5-1.7-2.1-4.2-3.3-6.4-4.8 9.1 1.5 13.5 5.3 22.5-.6-.8 2.6-2.6 4.8-4 7.2 3.6-2.1 5.5-5.7 8.3-8.5-.8 4.2-4.1 7.1-6.7 10.4 3.6-1.5 5.6-4.7 8.3-7.1-.7 3-3.2 5-5 7.4 7.7-3.1 10.6-10.5 13.7-17.4 2.2-5 8.3-2.6 11.8-.3-7.3-20.5-31.5-10.2-46.7-6.2-4.1 1.2-8.4 2.1-12.7 1.7 0-1.5.2-2.9.7-4.2.9-2.4 3-4.3 5-5.7 3.3-2.1 6.9-3.3 10.6-4.3 6-1.7 12.5-2 18.7-1.7 3 .2 6 .4 8.9.7 3.1.3 6.1.8 9 1.9 1.9.7 3.7 1.7 5.1 3.2 1.6 1.7 2.5 3.9 2.6 6.1.9 6.3-.1 12.5-1.8 18.7zm-46.4-8.5c1-1.5 3-1.9 4.5-2.5 5.7-1.7 11.5-3.3 17.2-4.9 1.6-.3 3.1-.8 4.7-.5 1.6.3 1.2 2.2.4 3.2-2.5 3.4-6.4 5.5-10.4 6.7-4.5 1.2-9.5 1.6-14 .2-1.1-.2-2.8-.9-2.4-2.2zm1.7 20.9c-1.6-1.2-3.1-2.6-4.3-4.2 1.6 1.3 3 2.7 4.3 4.2zm-19.9 263 .9.3v.3l-.2.2c-1.1 1.1-.9 2.7 0 3.8l.1.1c-.1 2.6-.2 5.2-.2 7.8 12.4.8 24.8 1.9 37.2 3.4 8.5 1 17.3-.2 25.8-1.6.8 1.8 1.9 3.6 2.7 5.3-1.2 4-2.6 7.8-4.3 11.6l9.7-6.3c1.2-2.3 2.6-4.7 4-6.9.2 5.3.2 10.7.2 16-9.2 4.3-19.3 7.6-26 15.8 4-.2 7.1-3 10.7-4.5 7.8-3.3 15.5-6.8 23.9-8.3 8.5-.5 16.3 5.5 20.1 12.6 3.4 10.5 6.7 21.9 3.2 32.6-.5.2-.9.6-1.5.8-.4-.7-.8-1.5-1.2-2.1-1 .6-2.1 1.2-3.1 1.7l-.2.2-2.1-6.6c-.8-2.6-1.6-5-2.5-7.6-1.6-4.1-3.9-8.2-8.1-9.9-1.1-.5-1.6 1.3-.6 1.8 4 1.7 5.9 5.9 7.3 9.7 1.6 4.5 3 9.2 4.4 13.8-.8.6-1.7.8-2.6 1.2.1.3.2.6.2.8-2.7.7-5.4 1.3-8.1 2.1-.2-.2-.2-.5-.4-.7-3 .7-5.9 1.2-8.9 1.5.2.6.2 1.1.3 1.6l-.7.2v-.2c-.7-3-1.2-5.8-1.9-8.8-.6-2.6-.9-5-1.8-7.6-.7-2.1-1.9-4.2-3.7-5.6-1.7-1.2-4-1.9-6.1-1.2-1.2.3-.7 2.1.6 1.8 2-.7 4 .3 5.4 1.7 1.5 1.6 2.1 3.6 2.6 5.6 1.2 4.8 2.1 9.7 3.2 14.5v.1c-1.9.6-3.7.9-5.7 1.4-.2-.3-.3-.6-.6-.8l-1.9.8c-3 1.2-6.1 2.1-9.2 2.1l.6.3c-5 .6-10.2.3-14.3-2.5-2.2-.1-3.9-.8-5.1-2-1.6-.6-3-1.1-4.5-1.7-3.1-.5-6.2-1.2-9.2-2-8.9-1.5-16.3-6.9-23.5-12-6.4-24.1-5.8-49.6-4.9-74.6zm67.8 20.4c-.1-.5-.1-.9-.2-1.6.2.2.6.5.9.6-.2.4-.5.8-.7 1zm-86.3-182.5c-1.5-.7-2.9-1.6-4.3-2.2 9.4-2.2 19.1-3.6 28.7-3.3 4 .6 7.8 1.5 11.6 2.8 5 1.8 9.7 4.3 14.9 5.5 1.2.2 2.5.6 3.7.8 2.2 1.2 4.4 2.6 6.4 4l-7.1 3.6c-2.7 3.1-5.8 5.9-9.2 8.3-5.3 3.4-9 8.5-14 12.2-10 7.3-20.1 14.7-30.2 21.5-3.2 1.7-6.4 3.4-9.7 5 0 0-33.6-23.6-33.7-43.3 4.3-3.6 9.5-6.4 14.5-8.6 8.5-3.8 18.3-6.9 27.9-6.5l.5.2zm39.5 29.2c-.3.4-.6.7-.7 1l-1 .6c.6-.6 1.2-1.1 1.7-1.6zm5.1-4.6c-.6.8-1.2 1.6-1.7 2.5-.3-.1-.7-.1-1.1 0 1-.8 1.9-1.7 2.8-2.5zm16.2-13.4c-.5.3-.8.7-1.3 1h-.2c.5-.3 1-.7 1.5-1zm2.8 54.8c-3.3 1.5-6.5 2.5-10 3.3-8.4.9-17 1.6-25.5 2.1-4 .1-7.8.2-11.6.3-2.7-.7-5.4-1.2-8.3-1.6-2.4-.2-5-.6-7.4-.6.8.8 1.4 2.1 1.3 3.4-7.6-.3-15-2-22.2-4.4 3.7-2.6 7.6-5 11.5-7.3 1.2.2 3.6.4 4.7.6 13.1-10.7 27.6-19.5 40.5-30.2h.1c26.9-13.6 27.4 22.3 26.9 34.4zm-47.2 91.7c-1.7-.2-3.5-.5-5.1-.7-.5-.7-.8-1.4-1.4-2.1-.4-.6-.8-.8-1.5-1 0-.1-.1-.1-.1-.1 3.6 1.3 7 2.6 10.7 3.6 1.6.5 3.1.8 4.7 1.2-.5.4-.8.8-1.3 1.2-.8-.3-1.8-.7-2.7-.9v.5c-1.1-.3-2.1-.7-3.3-.9-.1-.3-.1-.5 0-.8zm-72.6 22.8c.2-.2.6-.2.7-.5 1.2 2.2 2.2 4.5 3.6 6.8 8-6.4 14.4-15.2 25.9-13.7 13.6 0 27.2.4 40.8 1.2.1 12.7 1.6 25.5.8 38.2-.3 8.1 4 16 2.1 24-4.2 9.1-14.9 10.8-23.2 14.3-10.1 4.5-20.1 8.8-30.6 11.8-2.9.4-5.8.3-8.7 0v-.2c-.7.1-1.4.1-2.1.1-.2.5-.7.7-1.2.3l-.6-.4c-.7 0-1.6-.1-2.2-.1-.8 0-1.1-.8-.7-1.5-.7-.2-1.2-.5-2-.7-.1.1-.1.2-.2.3-2.6-.7-5.4-1.4-8.1-2.1v-.2c-.7-.2-1.6-.3-2.2-.5.5-3.5.8-6.9 1.6-10.3.6-3 1.5-6.8 4.7-7.8 1.1-.4.7-2.1-.6-1.8-3.6 1.2-5 4.8-5.7 8.2-.6 2.2-.7 4.7-1.1 6.9-.2 1.6-.5 3-.7 4.5-3.6-.7-7.4-1.5-10.7-2.9-.7-.2-1.6-.4-2.3-.7v-.6c-.7-.5-1.6-.8-2.2-1.4-.3-.2-.7-.5-.8-.7 2.1-4.5 4-9.1 6.3-13.5 1.7-3.5 3.8-7.3 7.7-8.8 1.1-.4.7-2.1-.6-1.8-4 1.6-6.4 5-8.3 8.8-2.2 4.5-4.3 9.2-6.4 13.8-1.2-1.2-2-2.7-2.6-4.3l-.9 3.1c-.8-8.6.6-17.4 4.3-25.1 3.3-6.1 10.1-8.8 15.9-11.8 11.2-3.6 22.5.7 33.3 3.4-4.5-6-12.5-6.6-19.2-8.5 0-2.6.1-5.3 0-8 1.9 1.2 3.8 2.5 5.7 3.6-1.3-7.8 4.4-13.2 9.2-18.1-1.1-.2-3.3-.4-4.3-.6-3 3.5-5.9 6.9-8.8 10.3l-5.9-11.5c-1.2 1.9-2.6 3.7-3.9 5.7-.2-3.3-.6-6.5-.8-9.8.4.2.8.4 1.5.6.2 2.1.3 4 .6 6.1.8-.9 1.9-2.4 2.9-4.1zm-34.6-283.8c.1.1.2.2.3.2 1-6.5 3.4-13 9.2-16.4-1.7-.4-3.3-.7-5-1.1 4-3.3 6.4-7.2 7.8-11.6.1.6.1 1.1.1 1.7-.1 1.2-.2 2.5.2 3.6.3.7 1.1.9 1.7 1.4 2 1.3 3.1 3.6 3.9 5.8 1.2 3.4 2.1 6.8 3.1 10.2 1 3.5 2.1 6.9 4 10.1 2.5 4.2 6.4 7.5 10.7 9.5 6.3 3 13.4 3.6 20.1 2.9 4-.6 8.1-1.7 11.8-3.5.3-.2.7-.3 1-.6-3.1 5.9-3.4 13.1-2 20.4l.7.1 2.1.2c-.1-.6-.2-1-.2-1.6-.9-4.4-1.2-9.1-.6-13.5 0-2.1.5-4.3 1.2-6.4 1.9-1.1 3.6-2.3 5-3.8 3.3-3.2 5.7-7.1 7.6-11.2 6.8-4.4 15.4-6.9 24-5.6 3.2.2 6.4.8 9.5 2.1.9 1.7 2 3.4 3.1 5-1.9-1.2-4.3-1.8-6.4-1.1-8.1 0-13 3.3-21-.5-4.9.9-7.5 5.3-10.7 8.7 5.7 7.8 10.6 20.8 20.3 20.8 8.1 0 16.2-9.7 21-19.4.4-1.6.3-3.1-.2-4.5 2 2.2 4.3 4.3 6.9 5.9 1.6 1 3.3 1.8 5 2.4 2.1 4 3.6 8.1 4.4 12.3-.3-4-1.2-7.9-2.7-11.9.8.2 1.7.5 2.6.6 2.6.5 5.2.6 7.8.6 6.9.1 13.9-1.2 20.1-4.5 3.3-1.7 6.3-4.3 7.8-7.8 3.1-7.3 5.4-14.8 7-22.5.2-1.2.8-2.2 1.6-3.2-.3-1.7 1-3.1 2.4-3.3.2-.1.5-.2.7-.2.7-.3 1.7-.2 2.4.1 4.3 2.1 6.7 8.2 8.5 12.2 2.1 5 4.3 10.3 5 15.7.2 1.2-.3 2.1-1.1 2.6 1.1 9.1-1.1 18.9-3.6 27.5-.9 3.4-2.1 7.6-4 11.4-1.2 4.2-4 7.8-7.3 10.8-.6.6-1.2.7-2 .7-.2.6-.6 1.1-.8 1.6-3.9-.7-7.8-1-11.6-1.2-7.8 6.9-17.2 12.1-26.2 17.8.1.4.1.8-.2 1.2-2.4 4.7-6 8.5-10.1 11.9-.4.6-.8 1.2-1.6 1.2-5 4-10.2 7.8-15.8 10.7-12.5-1.2-25.1.6-37.6 3.6-5.1-2.2-9.8-5.3-14.4-8.5.4 0 .7 0 1.1-.1-.2-.6-.7-1.8-.8-2.3-1.4-.2-2.7-.2-4.1-.5-3.6-2.7-6.5-5.9-8.8-9.5-.2-.3-.2-.7-.2-1-8.1-4.7-16.7-9-23.8-14.8-3.3.1-6.4.4-9.7.8-1.6-1.7-3-3.6-4.3-5.4-5.7-6-7.4-14.2-10.7-21.5-3.6-10-2.6-20.7-.7-30.9-4.8 1.1-5.7 5.9-7.1 9.8.8-2.8 2.2-9.9 3.6-14.2z"/><g><path d="M126 292.1c-1-.9-1.5-2.1-1.5-3.6 0-.5 0-.7.1-1l2.6-14.8c.2-.9.5-1.7 1-2.1.6-.6 1.1-.7 1.8-.7s1.3.2 1.8.7c.5.5.8 1.2 1 2.1l2.6 14.8c.1.6.1.8.1 1 0 1.5-.6 2.7-1.5 3.6-1 .8-2.3 1.3-4 1.3-1.7.1-2.9-.4-4-1.3zm.3-26c-1-1-1.4-2.1-1.4-3.6 0-1.4.5-2.6 1.4-3.6 1-1 2.1-1.5 3.6-1.5 1.4 0 2.6.6 3.6 1.5 1 1 1.4 2.1 1.4 3.6 0 1.4-.5 2.6-1.4 3.6-1 1-2.1 1.5-3.6 1.5-1.4 0-2.6-.5-3.6-1.5zm46.8-18.3c.8.9 1.3 2 1.3 3.4v28c0 1.4-.5 2.6-1.3 3.4-.9.9-2 1.3-3.4 1.3s-2.6-.5-3.4-1.3c-.9-.8-1.3-2-1.3-3.5v-10.5h-15.1v10.5c0 1.4-.5 2.6-1.3 3.4-.9.9-2 1.3-3.4 1.3s-2.6-.5-3.4-1.3c-.9-.8-1.3-2-1.3-3.5v-28c0-1.4.5-2.6 1.3-3.4.8-.8 2-1.3 3.4-1.3s2.6.5 3.4 1.3c.8.9 1.3 2 1.3 3.4v9.9H165V251c0-1.4.5-2.6 1.3-3.4.8-.8 2-1.3 3.4-1.3s2.5.7 3.4 1.5zm12.9 34.7c-2.1-1.1-3.8-2.7-5-4.7-1.2-2-1.8-4.4-1.8-7.1 0-2.8.6-5.1 1.8-7.1s2.9-3.6 5-4.6c2.1-1.1 4.6-1.7 7.5-1.7 2.9 0 5.4.6 7.5 1.7 2.1 1.1 3.8 2.6 5 4.6s1.8 4.4 1.8 7.1c0 2.7-.6 5.2-1.8 7.1-1.2 2-2.9 3.6-5 4.7s-4.6 1.7-7.5 1.7-5.3-.6-7.5-1.7zm12.5-11.8c0-4.3-1.7-6.5-5-6.5s-5 2.1-5 6.5c0 4.3 1.7 6.5 5 6.5s5-2.2 5-6.5zm14.8 12.3c-.9-.7-1.3-1.8-1.3-3.2v-29c0-1.4.5-2.5 1.3-3.2.9-.7 2-1.1 3.3-1.1 1.3 0 2.5.4 3.3 1.1.9.7 1.3 1.8 1.3 3.2v28.8c0 1.4-.5 2.5-1.3 3.2-.9.7-2 1-3.3 1-1.3.3-2.5-.1-3.3-.8zm34.2-22.9c1.9 1.9 2.9 4.8 2.9 8.7v10.9c0 1.3-.4 2.4-1.2 3.1s-1.8 1.1-3.2 1.1c-1.2 0-2.2-.4-3-1-.8-.6-1.2-1.7-1.3-2.9-.6 1.3-1.3 2.2-2.5 2.9-1.1.7-2.5 1-4.2 1-1.8 0-3.4-.4-4.8-1-1.4-.7-2.5-1.7-3.3-3s-1.3-2.7-1.3-4.3c0-1.8.5-3.3 1.4-4.4 1-1.1 2.5-1.8 4.6-2.4 2.1-.6 4.9-.7 8.5-.7h1.4v-.6c0-1.2-.3-2.1-.8-2.7-.6-.6-1.5-.8-2.9-.8s-3.5.6-6.3 1.5c-.8.3-1.5.5-2 .5-.9 0-1.6-.3-2.1-1-.6-.6-.8-1.4-.8-2.5 0-.7.2-1.4.5-1.8.3-.6.8-.9 1.5-1.3 1.2-.6 2.8-1.1 4.6-1.5 1.8-.4 3.6-.6 5.5-.6 4 .1 6.8 1 8.8 2.8zm-7.3 16.5c.8-.9 1.2-2 1.2-3.4v-.6h-.8c-2.2 0-3.8.2-4.8.6s-1.4 1-1.4 2c0 .8.2 1.5.7 2 .6.6 1.2.8 1.9.8 1.4 0 2.4-.5 3.2-1.4zm17.9-5.8c-.6-.6-.8-1.2-1-2.1l-2.8-16.3c0-.2-.1-.6-.1-.8 0-1.6.6-2.9 1.6-3.7 1-.9 2.4-1.3 4-1.3 1.7 0 3 .5 4 1.3 1 .9 1.6 2.1 1.6 3.7 0 .4 0 .6-.1.8l-2.8 16.2c-.1.9-.5 1.7-.9 2.1-.6.6-1.1.7-1.8.7-.6.1-1.2-.1-1.7-.6zm-1.8 11.7c-1-1-1.4-2.1-1.4-3.6 0-1.4.5-2.6 1.4-3.6 1-1 2.1-1.5 3.6-1.5 1.4 0 2.6.6 3.6 1.5 1 1 1.4 2.1 1.4 3.6 0 1.4-.5 2.6-1.4 3.6-1 1-2.1 1.5-3.6 1.5s-2.6-.4-3.6-1.5zm145.1 48.1 1.3-.2c.4-.1 2.1-.2 5.4-.6 1.7-.1 2.9-.4 3.8-.9 1.3-.8 2.1-2.5 2.4-4.3.1-1 .1-2.5-.8-4.2-.9-1.7-1.1-.6-1.8-.6-.6-.1-.4.6-3.2 1.3-1.8.3-3.2.5-4.5.6-.4.2-1.5.5-1.8.6.2-1.1.6-3.3.6-4 .6-2.1.6-2.6.6-2.9.2-1.6-.2-2.6-.6-3.2-.6-.9-1.3-1.3-2.2-1.5-1.7-.2-3.2.8-4.2 2.9-.5 1-.7 2.1-1 3.4-.2 1.1-.5 4-.6 5.8-.5 0-2.7.4-2.9.4-3.8-.2-7.3 0-11.2 0-7.6.1-14.7-1.4-22.3-.4-1.2.2-2.2 1-2.8 2.4-.6 1.5-.4 3.4.5 4.8.7 1.1 1.8 1.7 3.1 1.6 6.5-.8 13-1.3 19.3-1.5 3.2-.1 6.4-.1 9.6 0 .3 0 4 .8 4.9 1 .2 0 .6.6.6.6 0 .9-.3 1.4.2 2.1 0 .3-.1.6-.1 1-.2 2.5-.4 4.8-.5 6.7 0 .5-.1.9-.1 1.3-.1 1.2-.2 2.2-.2 3.2-.2 2.2-.2 4.3-.2 6 0 2.1.1 3.5.3 4.4.2.9.5 1.7.8 2.1.6.7 1.2 1.3 2 1.3.9.2 1.8-.2 2.7-.8 1.7-1.2 2-2.9 2.1-3.8l.1-.5v-.4c0-.2-.1-.6-.3-2.7-.1-.8-.2-2.5-.1-5.5 0-.5.1-1 .1-1.5l.1-.1v-1.8c.1-1.1.2-2.2.3-3.5h-.1c.1-1.4.2-2.9.4-4.5 0-1.1.2-2.6.3-4.1zm-234.8 30.1c1.7 1.9 4.1 2.9 7.2 2.9 3 0 5.6-.8 8-2.5 2.2-1.6 4-3.4 5.2-5.5 1.3-2.2 1.9-4.3 1.9-6.1 0-2.2-.6-4.2-2-5.8-1-1.3-2.4-2.7-4-4v-.2c0-1.1-.6-2.1-1.7-2.5-.5-.2-1-.3-1.7-.3h-.8c-.1-1-.6-1.9-1.6-2.5-.6-.4-1.4-.6-2.1-.6-1.2 0-2.5.5-3.5 1.2-1 .6-1.7 1.7-2.5 2.9-.7 1.3-.9 1.6-1 1.7-1.3 2.2-2.2 4.8-3 7.6-.6 2.8-1 5.2-1 7.1.3 2.5 1.1 4.8 2.6 6.6zm5.9-11.9c.6-1.7 1.2-3.4 2.2-5.2.1-.3.3-.5.4-.6l.4.4c.6.6 1.3 1.1 2.4 1.9 1.3 1 2.4 1.8 3.1 2.7.5.6.6 1.1.6 1.8s-.4 1.6-1 2.5c-.6 1.1-1.6 2-2.7 2.8-1 .6-2.1 1-3.3 1-3 0-3-1-3-2 .2-1.9.4-3.7.9-5.3zm17.3-2.5.8 7.9.5 4.5c.2 1.6 1 2.2 1.6 2.5.2.1.5.2.6.3l1.9.1c.6-.1 1.1-.4 1.7-.6.8-.6 1.3-1.1 1.7-2.1l.8-2.1c1.9-5 3.6-9.1 5.1-12.1.3-.6.5-1 .6-1.3 0 .9.1 1.9.1 3 0 2.1-.1 5-.4 8.2-.3 3.2-.4 5.5-.4 7.1 0 1.1.6 2.1 1.5 2.7.6.5 1.4.6 2.1.6 1 0 2.1-.4 2.9-1 .9-.8 1.4-1.8 1.4-3 0-6.5-.1-11.4-.2-14.7-.1-3.1-.5-5.7-.9-7.8-.9-4.1-3.3-4.8-4.6-4.8-3.5 0-5.7 3.6-7.1 6.5-.8 1.6-1.7 3.4-2.5 5.3-.2-4-.4-6.7-.6-8.5-.2-1.6-.5-4.8-3.1-4.8-1.1 0-2.1.4-3.1 1-1 .8-1.7 1.9-1.7 3.2 0 .5.1 1 .2 1.7.5 2.5.8 5.1 1.1 8.2zm29.3 17.3c3 0 5.8-1.1 8.5-3.3 2.4-1.9 4.4-4.1 5.9-6.3.3-.5.6-.8.9-1.2-.1 2.4-.1 3.9-.1 4.4 0 1.3.3 2.5.6 3.6 1 2.4 2.9 2.6 3.6 2.6.9 0 2.1-.4 3.1-1.9.6-1 1-1.9 1-2.8 0-.6-.3-1.5-.9-2.1 0-.6-.1-1.3-.1-2.1 0-1.1-.1-2.4-.1-3.5l-.2-4.4c-.1-1.8-.1-3.1-.2-3.6-.1-1.2-.5-2.1-.9-2.6.1-.6.2-1.1.2-1.7 0-1.3-.4-2.5-1-3.6-.6-1-1.4-1.7-2.4-2.2-2-1.1-4-1.1-6.2-.1-1 .5-2.1 1.3-3.7 2.5-2.1 1.8-4.4 4.1-6.6 6.9-2.1 2.7-4 5.5-5.3 8.1-1.5 3-2.2 5.2-2.2 7.1 0 1.7.6 3.2 1.6 4.4.7.8 2.2 1.8 4.5 1.8zm3.1-11.2c1.1-2.1 2.6-4.4 4.4-6.6 1.7-2.1 3.4-4 5-5.3 1.2-1 1.8-1.2 2-1.3.1.1.2.3.2.6 0 1-.2 1.7-.5 2.5-1.7 2.9-3.2 5.2-4.6 7.2-1.3 1.8-2.8 3.5-4.4 4.8-1.1.9-2.1 1.4-3.3 1.6-.1-.8.4-1.9 1.2-3.5zm23.6 1.4c1.6 3.4 3.6 5.2 6 5.2 1.7 0 3.3-.6 4.9-2-.4 3.1-.6 5.5-.6 7.4 0 2.9.2 5.1.5 6.6.6 2.5 1.7 3.9 3.4 3.9 1 0 1.9-.2 2.8-.6 2-.9 2.2-2.2 2.2-3.1 0-.6-.3-1.1-.6-2.1-.2-.3-.4-.8-.6-1.7-.1-.6-.3-1.5-.3-3.1 0-1.8.1-4 .3-6.2.2-2.4.6-5.8 1-10.3 0-.2.2-1.1.6-5.3.6-4 .6-5.2.6-5.8 0-1-.4-1.9-1.1-2.8-1-1.2-2.1-1.5-2.9-1.5-1.4 0-2.5.6-3.1 2-.3.6-.5 1.4-.6 2.5l-.4 5.2c-.3.8-.6 1.7-1.1 2.8-.6 1.1-1 2.1-1.4 2.8-1 1.5-1.7 2.6-2.4 3.3-.4.4-.6.5-.8.5-.4-.4-2.1-2.4-3.6-13.3-.6-3.9-2.9-4.3-4-4.3-1.2 0-3.2.8-3.2 3.7 0 1.7.4 4.1 1 7.4 1.3 3.1 2.3 6.2 3.4 8.8zm21.9-5.3c0 1.5.1 2.7.1 3.5 0 3.3.2 5.7.4 7.5.5 3.9 2.1 4.6 3.6 4.6 1.4 0 2.6-.6 3.2-1.7.5-.8.6-1.6.6-2.5l-.2-2.4c0-.6-.1-1.6-.2-2.9-.1-1-.1-1.9-.2-2.6 1.6-4 3.2-7.1 4.9-9.7 1.3-2 2.1-2.8 2.5-3.1l.3.3c.4.6.8 1 1.1 1.3.9.8 1.7 1 2.4 1 1 0 1.8-.5 2.8-1.2 1-.9 1.5-1.8 1.5-2.9s-.4-2.1-1.1-3.1c-.6-.9-1.5-1.6-2.6-2.1-1-.6-2.1-.8-3.4-.8-1.6 0-3.1.6-4.9 2.1-1.1 1-2.2 2.4-3.5 4 0-1.5-.2-2.1-.3-2.6-.4-1.6-1.7-2.6-3.4-2.6-2.7 0-4 1.8-4 3.6 0 1.4.1 3.6.2 6.9.1 2.2.2 3.9.2 5.4zm24.9 12c2 1.9 4.5 2.9 7.5 2.9 3.5 0 6.5-1.2 8.9-3.6 2.1-2.1 3.9-4.4 5-7 1.5-3.3 1.7-4.5 1.7-5.3 0-2.1-1.4-3.2-2.8-3.2-.8 0-1.9.4-2.7 2.1l-.4.8c-1 2.4-2.5 4.4-4 6.3-1.3 1.5-3 2.2-5.2 2.2-1.6 0-2.1-.6-2.5-1-.6-.6-1-1.9-1-3.4 0-1 .1-1.9.3-3 2.1-.5 4.1-1 6.1-1.8 2.5-1 4.6-2.1 6.3-3.6 2-1.7 3.1-3.6 3.1-5.5s-.9-3.6-2.5-4.6c-1.3-.9-2.9-1.3-4.7-1.3-2.9 0-5.5 1-8.1 3.2-2.4 2-4.4 4.6-5.8 7.7-1.5 3.1-2.1 6.4-2.1 9.5-.3 3.9.7 6.7 2.9 8.6zm8.5-22.3c.5-.5 1-.8 1.5-1 .2-.1.5-.3.6-.4h.1c.1-.1.2-.1.2-.2.9-.9 2.1-.8 3.1 0 .2.2.4.4.5.6l2.1-1.2-2.1 1.2c.4.8.2 1.8-.5 2.5-.5.5-1 .8-1.5 1-.2.1-.5.3-.6.4h-.1c-.1.1-.2.1-.2.2-.9.9-2.8 2.4-3.6 1.6-1-.9-.5-3.9.5-4.7z"/><path d="M347.4 343.3c0-1.9-1.1-3.1-1.7-3.6-.6-.6-1.3-1.2-2.1-1.4l.5-6.9c0-.3.2-1.7.6-6.4.4-4.3.5-5.5.5-5.9 0-4.3-2.6-5.5-4.1-5.5-1.1 0-2.1.5-3.1 1.2-1.1 1-1.7 2.4-1.7 4 0 .7-.1 2.9-.6 8.5l-.2 3.7c-.1 1-.2 2.6-.3 4.6-.2 1.8-.2 3.1-.3 4.2-2.1.3-4 .5-5.5.6l.1-2.7v-.1c0-.2 0-1 .2-5.6.2-3.1.2-4.1.2-4.5 0-1-.1-1.8-.2-2.7-.6-2.8-2.5-3.8-3.9-3.8-1.2 0-2.3.5-3.2 1.3-1.1 1-1.7 2.5-1.7 4.1v1.8c.1 2.9.1 6.2.1 9.8 0 .7 0 1.7-.1 2.7h-.3l-2.3-.1c-.6 0-2.2 0-3.5 1.4-.6.6-1.3 1.8-1.3 3.6s.7 3.4 2 4.4c1 .7 2.1 1.1 3.2 1.1.5 0 1 0 1.5-.1-.1 1.4-.2 2.9-.3 4.4v.1c0 .5-.1 1-.2 1.8v.3c0 .5-.1 1-.2 1.6-.1.8-.1 1.3-.1 1.8 0 1.1.2 2.2.6 3.1.7 1.7 2.1 2.8 3.7 2.8.9 0 1.8-.4 2.8-1 1.8-1.3 2.1-3.1 2.1-4 0-.5-.1-1-.2-1.7 0-.2-.1-.2-.1-.3 0-.4 0-1.5.2-5.4.1-1.6.2-3.1.2-4.4.6-.1 1.2-.2 1.8-.2l3.4-.4c0 .2 0 .5-.1.6-.2 2-.2 3.4-.4 4.3v.1c-.4.7-.8 1.6-.8 2.7 0 1 .2 2.1.6 3.4 1.1 3.1 3 3.6 4 3.6.7 0 4.3-.3 4.8-5.9l.6-9.7v-.1c.4-.1.7-.2 1.1-.3 2.8-1.1 3.7-3.1 3.7-4.9zm22.7 9c0-1-.1-2-.1-3l-.2-3.8c-.1-1.6-.1-2.6-.2-3.1-.1-1-.4-1.8-.7-2.2.1-.5.2-1 .2-1.4 0-1.1-.3-2.1-.9-3.1-.6-.8-1.2-1.5-2-1.9-1.7-1-3.3-1-5.3-.1-.8.4-1.8 1.1-3.2 2.1-1.8 1.6-3.7 3.5-5.5 5.8s-3.3 4.7-4.5 6.8c-1.3 2.5-1.9 4.4-1.9 6 0 1.5.5 2.8 1.3 3.8.6.7 1.8 1.7 3.9 1.7 2.5 0 5-1 7.1-2.9 2-1.7 3.7-3.5 5.1-5.4.2-.4.5-.6.7-1-.1 2-.1 3.2-.1 3.8 0 1.1.2 2.1.6 3.1.8 2 2.5 2.2 3.1 2.2.7 0 1.8-.3 2.6-1.7.6-.8.8-1.7.8-2.4 0-.6-.2-1.3-.7-1.8 0-.2-.1-.9-.1-1.5zm-7.1-10.5c-1.4 2.4-2.8 4.4-4 6.1-1.1 1.6-2.4 3-3.8 4.1-1 .7-1.8 1.2-2.9 1.3.2-.6.5-1.6 1.3-3 1-1.8 2.2-3.7 3.7-5.5s2.9-3.3 4.3-4.5c1-.9 1.6-1 1.7-1.1.1.1.2.2.2.5-.1.8-.2 1.5-.5 2.1zm27.4-1.4c.8-.7 1.3-1.6 1.3-2.5s-.3-1.8-1-2.6c-.6-.7-1.3-1.3-2.2-1.8-.9-.5-1.8-.6-2.9-.6-1.3 0-2.7.6-4.2 1.8-1 .9-1.9 2-3 3.4 0-1.3-.2-1.8-.2-2.2-.3-1.3-1.5-2.2-2.9-2.2-2.3 0-3.3 1.6-3.3 3.1 0 1.2.1 3.1.2 5.8.1 1.8.1 3.2.2 4.5 0 1.3.1 2.3.1 3 0 2.9.2 4.9.3 6.3.4 3.2 1.8 4 3.1 4 1.2 0 2.2-.6 2.8-1.5.4-.6.6-1.3.6-2.1l-.2-2c0-.6-.1-1.3-.2-2.5-.1-.9-.1-1.7-.2-2.2 1.3-3.3 2.8-6 4.2-8.2 1.1-1.7 1.8-2.4 2.1-2.6l.2.2c.3.5.6.8 1 1.1.7.6 1.5.8 2 .8.6 0 1.4-.4 2.2-1zm-245.3 26.4c6.7-6 11.8-11.6 14.9-16.3 3.2-5.1 5-10.5 5-16.3 0-5.5-2.4-12.8-13.3-16.6-7.8-2.8-17.9-4.2-30.1-4.2-3.9 0-7.1.2-10.1.5-2.8.3-6.2.6-10.2 1.2-1.5.2-2.6.6-3.5 1.1-1.9 1.2-2.1 2.8-2.1 3.6 0 1.4.4 2.8 1.1 4.2 1.4 2.4 3.1 2.9 4.3 2.9.8 0 1.7-.2 3-.6 2.5-.6 3.7-.8 4.2-.9h.3c2.2-.4 4.4-.6 6.4-.8-.1.3-.3.6-.4.8l-.1.2c-.9 2.8-1.3 6.3-1.3 10.5 0 2.5.1 6.9.2 13.1.2 5.2.3 11.2.3 17.7 0 3.7-.2 7.1-.5 9.7-.5 4.4-.5 5-.5 5.2 0 1.9.8 3.1 1.5 3.6.9.8 2 1.1 3.4 1.1 1.6 0 3-.5 4-1.4.6-.5.9-1 1.2-1.7 2.8-1.4 6.1-3.6 10-6.5 4.1-3.1 8.3-6.6 12.3-10.1zm-20.8 2.6v-3.5c0-2.9-.1-8-.2-15.6-.2-5.7-.3-11.2-.3-15.9 0-1.4.3-3 .8-4.6.9-2.9 1-3.4 1.1-3.7l.1-.4v-.3c0-.4-.1-.6-.2-1 8.3.3 15.3 1.1 20.7 2.8 6.9 2 7.7 5.5 7.7 7.8 0 3.7-1.1 7.3-3.4 10.9-2.5 3.9-6.5 8.2-11.8 13.1-2.7 2.2-6 4.9-10 7.7-1.7.9-3.2 1.9-4.5 2.7zM177.3 321c-2-.6-3.6-1.2-4.8-2.1-.6-.4-.8-.7-1-1.2-.2-.4-.3-.9-.3-1.6 0-.9.2-1.7.7-2.2.6-.6 1.1-1 1.8-1 .4 0 .7.1 1.1.2.4.2.7.3 1.3.6 1.2.6 2.4 1.1 3.5 1.4 1.2.3 2.5.5 4 .5 1.7 0 3-.2 3.9-.7.9-.6 1.3-1.3 1.3-2.2 0-.6-.5-1.3-1.3-1.7-.8-.5-2.4-1-4.7-1.4-2.9-.6-5.1-1.3-6.7-2.1-1.7-.8-2.8-1.8-3.4-3-.6-1.1-1-2.5-1-4.1 0-1.8.6-3.5 1.7-5s2.6-2.7 4.5-3.5c1.9-.8 4.1-1.3 6.5-1.3 2.1 0 4 .2 5.5.6 1.7.5 3.1 1.2 4.4 2.1.6.4.9.7 1.1 1.2.2.5.3.9.3 1.6 0 .9-.2 1.7-.7 2.2-.6.6-1.1 1-1.8 1-.4 0-.7-.1-1-.2-.3-.1-.7-.3-1.3-.6-.2-.1-.6-.3-1.3-.6-.6-.4-1.5-.6-2.4-.9-.9-.2-1.8-.3-3-.3-1.5 0-2.7.3-3.6.8-.9.6-1.3 1.3-1.3 2.2 0 .6.2 1 .5 1.3.3.4.9.6 1.8 1 .9.3 2.1.6 3.9 1 2.8.6 4.9 1.3 6.6 2.1 1.6.8 2.7 1.8 3.3 3 .6 1.1 1 2.5 1 4 0 1.9-.6 3.6-1.6 5.1-1 1.5-2.5 2.6-4.4 3.3-1.9.8-4.2 1.2-6.7 1.2-2.3 0-4.5-.2-6.4-.7zm27.7-.7c-1.8-.9-3.1-2.2-4.1-3.9-1-1.7-1.4-3.6-1.4-5.9s.5-4.2 1.4-5.9c1-1.7 2.3-2.9 4.1-3.8 1.8-.9 3.8-1.3 6.2-1.3s4.4.5 6.2 1.3c1.8.9 3.1 2.1 4.1 3.8 1 1.7 1.4 3.6 1.4 5.9 0 2.3-.5 4.3-1.4 5.9-1 1.7-2.3 3-4.1 3.9-1.8.9-3.8 1.3-6.2 1.3-2.4.1-4.4-.5-6.2-1.3zm10.3-9.8c0-3.6-1.3-5.4-4.1-5.4s-4.1 1.8-4.1 5.4c0 3.6 1.3 5.4 4.1 5.4 2.6 0 4.1-1.8 4.1-5.4zm43.5-8.9c1.3 1.4 1.9 3.7 1.9 7.1v9.3c0 1.2-.4 2.1-1.1 2.7-.7.6-1.7.9-2.8.9-1.1 0-2-.3-2.8-.9-.7-.6-1.1-1.5-1.1-2.7v-9.5c0-1.1-.2-1.9-.6-2.5-.4-.5-1-.6-1.8-.6-1 0-1.8.4-2.5 1.1-.6.7-.9 1.7-.9 3v8.6c0 1.2-.4 2.1-1.1 2.7-.7.6-1.7.9-2.8.9s-2-.3-2.8-.9c-.7-.6-1.1-1.5-1.1-2.7v-9.5c0-1.1-.2-1.9-.6-2.5-.4-.5-1-.6-1.8-.6-1 0-1.8.4-2.4 1.1-.6.7-.9 1.7-.9 3v8.6c0 1.2-.4 2.1-1.1 2.7-.7.6-1.7.9-2.8.9-1.1 0-2-.3-2.8-.9-.7-.6-1.1-1.5-1.1-2.7v-15c0-1.1.4-2 1.1-2.6.7-.6 1.7-.9 2.8-.9 1 0 1.8.3 2.5.8.6.6 1 1.3 1 2.3 1.4-2.1 3.6-3.2 6.5-3.2 3.1 0 5.2 1.3 6.2 3.8.7-1.1 1.7-2.1 2.9-2.8 1.2-.6 2.6-1 4.1-1 2.9-.1 4.7.7 5.9 2zm10.8 18.7c-1.8-.9-3.1-2.2-4.1-3.9-1-1.7-1.4-3.6-1.4-5.9s.5-4.2 1.4-5.9 2.3-2.9 4.1-3.8 3.8-1.3 6.2-1.3 4.4.5 6.2 1.3c1.8.9 3.1 2.1 4.1 3.8 1 1.7 1.4 3.6 1.4 5.9 0 2.3-.5 4.3-1.4 5.9-1 1.7-2.3 3-4.1 3.9-1.8.9-3.8 1.3-6.2 1.3-2.4.1-4.4-.5-6.2-1.3zm10.3-9.8c0-3.6-1.3-5.4-4.1-5.4s-4.1 1.8-4.1 5.4c0 3.6 1.3 5.4 4.1 5.4s4.1-1.8 4.1-5.4zm14.6 10.7c-1.3-.3-2.5-.7-3.5-1.4-.4-.2-.7-.6-1-1-.2-.6-.4-1-.4-1.7s.2-1.4.6-1.9c.5-.6 1-.7 1.6-.7.5 0 .8.1 1.2.2.4.1.8.3 1.4.6.9.3 1.7.6 2.5.7.6.2 1.7.2 2.7.2.7 0 1.4-.1 1.8-.3.5-.2.6-.6.6-.9 0-.3-.1-.6-.3-.7-.2-.2-.6-.4-1.3-.6-.6-.2-1.7-.4-3.1-.6-2.5-.6-4.4-1.3-5.5-2.2-1.1-1-1.7-2.4-1.7-4.3 0-1.3.5-2.5 1.3-3.6.8-1 1.9-1.9 3.4-2.5 1.4-.6 3.1-.9 4.8-.9 1.3 0 2.5.2 3.8.5 1.2.3 2.3.7 3.2 1.3.9.6 1.3 1.3 1.3 2.5 0 .8-.2 1.5-.6 2-.5.6-1 .8-1.6.8-.7 0-1.7-.2-2.7-.7-.6-.3-1.3-.6-1.8-.7-.6-.2-1.2-.2-1.8-.2-.7 0-1.3.1-1.7.3-.4.2-.6.6-.6.9 0 .5.3.8.8 1.1.6.2 1.7.6 3.3.9 2.9.6 4.8 1.3 5.9 2.2 1.1 1 1.7 2.5 1.7 4.3 0 2.1-.9 3.8-2.6 5.1-1.7 1.3-4.1 1.8-7 1.8-1.7 0-3.4-.2-4.7-.5zM150.6 397.1c-.4-.4-.6-.9-.6-1.6v-12.9c0-.6.2-1.2.6-1.6.4-.4.9-.6 1.6-.6h8.4c.6 0 1.2.2 1.6.5.4.3.6.7.6 1.3 0 1.2-.6 1.7-2.1 1.7h-6.1v3.2h5.5c1.4 0 2.1.6 2.1 1.7 0 .6-.2 1-.6 1.3-.4.3-.9.5-1.6.5h-5.5v3.6h6.1c1.4 0 2.1.6 2.1 1.7 0 .6-.2 1-.6 1.3-.4.3-.9.5-1.6.5h-8.4c-.6.1-1.1-.2-1.5-.6zm15.5.6c-.7-.2-1.4-.5-1.9-.7-.2-.2-.4-.3-.6-.6-.2-.3-.2-.6-.2-.9 0-.5.2-.8.4-1 .2-.3.6-.5.9-.5.2 0 .5 0 .6.1.2.1.5.2.7.3.6.2 1 .3 1.3.5.4.1.9.2 1.5.2.5 0 .7-.1 1-.2.2-.2.4-.3.4-.6 0-.2-.1-.3-.2-.5l-.6-.3c-.4-.1-.9-.2-1.7-.4-1.4-.3-2.5-.6-3.1-1.3-.6-.6-1-1.3-1-2.4 0-.7.2-1.4.6-2 .5-.6 1.1-1 1.9-1.4.8-.4 1.7-.6 2.7-.6.7 0 1.4.1 2.1.3.6.2 1.3.5 1.8.7.6.3.7.7.7 1.4 0 .5-.2.8-.4 1.1-.2.3-.6.5-.9.5-.5 0-.9-.2-1.5-.5-.4-.2-.7-.3-1-.4-.3-.1-.6-.2-1-.2s-.7.1-1 .2c-.2.2-.4.3-.4.6s.2.5.5.6c.3.2 1 .3 1.8.6 1.6.3 2.7.6 3.3 1.3.6.6 1 1.3 1 2.4 0 1.2-.6 2.1-1.5 2.9-1 .6-2.3 1-4 1-.4 0-1.4-.1-2.2-.2zm18.5-1.4c0 .6-.2 1-.6 1.3-.5.3-1 .4-1.8.4l-.6-.1c-1.5-.2-2.5-.6-3.2-1.3-.7-.7-1.1-1.8-1.1-3.2V389h-.6c-1.3 0-1.9-.6-1.9-1.6s.6-1.6 1.9-1.6h.6v-1.6c0-.6.2-1.1.6-1.5.4-.4.9-.6 1.6-.6.6 0 1.2.2 1.6.6.4.4.6.8.6 1.5v1.6h1.3c1.3 0 1.9.6 1.9 1.6s-.6 1.6-1.9 1.6h-1.6v4.6c0 .3.1.6.3.7.2.2.5.3.7.4l.6.1c1.1 0 1.6.6 1.6 1.5zm12.6-10.3c.4.4.6.8.6 1.5v8.4c0 .6-.2 1-.6 1.4-.4.4-.9.6-1.6.6-.6 0-1-.2-1.4-.5-.4-.3-.6-.7-.6-1.3-.4.6-.8 1-1.4 1.3-.6.3-1.3.5-2 .5-1.6 0-2.7-.5-3.4-1.3-.7-.8-1.1-2.1-1.1-3.9v-5.2c0-.6.2-1.1.6-1.5.4-.4.9-.6 1.6-.6.6 0 1.2.2 1.6.6.4.4.6.8.6 1.5v5.4c0 1.2.6 1.7 1.5 1.7.6 0 1-.2 1.4-.6.4-.5.6-1 .6-1.7v-4.8c0-.6.2-1.1.6-1.5.4-.4.9-.6 1.6-.6.5.2 1 .3 1.4.6zm15-5c.5.4.6.8.6 1.4v13.4c0 .6-.2 1.1-.6 1.5s-.9.6-1.6.6c-.6 0-1.1-.2-1.5-.5-.4-.3-.6-.7-.6-1.3-.4.6-.8 1-1.5 1.3-.6.3-1.4.6-2.1.6-1 0-1.9-.3-2.8-.8-.8-.6-1.4-1.3-1.8-2.2-.5-1-.6-2-.6-3.2 0-1.2.2-2.3.6-3.2.4-.9 1-1.7 1.8-2.1.8-.6 1.7-.7 2.8-.7.7 0 1.5.2 2.1.5.6.3 1.1.7 1.5 1.3v-4.8c0-.6.2-1 .6-1.3.4-.4.9-.6 1.6-.6.7-.3 1.2-.2 1.5.1zm-4.2 12.9c.4-.6.6-1.3.6-2.2 0-1-.2-1.7-.6-2.1-.4-.6-1-.7-1.7-.7s-1.3.2-1.7.7c-.4.6-.6 1.2-.6 2.1 0 1 .2 1.7.6 2.2.5.6 1 .8 1.7.8s1.3-.3 1.7-.8zm7.8-10.6c-.5-.4-.6-.9-.6-1.5s.2-1.1.6-1.5c.5-.4 1-.6 1.7-.6s1.3.2 1.7.6.6.9.6 1.5-.2 1.1-.6 1.5-1 .6-1.7.6c-.6-.1-1.2-.2-1.7-.6zm.2 14.1c-.5-.3-.6-.8-.6-1.5v-8.3c0-.6.2-1.2.6-1.5.5-.3.9-.6 1.6-.6.6 0 1.1.2 1.6.6.5.3.6.8.6 1.5v8.3c0 .6-.2 1.2-.6 1.5-.5.3-.9.6-1.6.6-.6-.1-1.2-.3-1.6-.6zm8.8-.3c-1-.6-1.8-1.3-2.3-2.1-.6-1-.8-2-.8-3.2s.3-2.4.8-3.2c.6-.9 1.3-1.7 2.3-2.1 1-.6 2.1-.7 3.5-.7 1.3 0 2.5.2 3.5.7 1 .6 1.7 1.2 2.3 2.1.6.9.8 2 .8 3.2s-.3 2.4-.8 3.2c-.6 1-1.3 1.7-2.3 2.1-1 .6-2.1.7-3.5.7s-2.6-.1-3.5-.7zm5.7-5.4c0-2-.7-3-2.3-3-1.6 0-2.3 1-2.3 3s.7 3 2.3 3c1.6 0 2.3-1.1 2.3-3zm25.2-10.7c.5.4.6.8.6 1.4v13.4c0 .6-.2 1.1-.6 1.5s-.9.6-1.6.6c-.6 0-1.1-.2-1.5-.5-.4-.3-.6-.7-.6-1.3-.4.6-.8 1-1.5 1.3-.6.3-1.4.6-2.1.6-1 0-1.9-.3-2.8-.8-.8-.6-1.4-1.3-1.8-2.2-.4-1-.6-2-.6-3.2 0-1.2.2-2.3.6-3.2.4-.9 1-1.7 1.8-2.1.8-.6 1.7-.7 2.8-.7.7 0 1.5.2 2.1.5.6.3 1.1.7 1.5 1.3v-4.8c0-.6.2-1 .6-1.3.4-.4.9-.6 1.6-.6.6-.3 1.1-.2 1.5.1zm-4.2 12.9c.4-.6.6-1.3.6-2.2 0-1-.2-1.7-.6-2.1-.4-.6-1-.7-1.7-.7-.8 0-1.3.2-1.7.7-.4.6-.6 1.2-.6 2.1 0 1 .2 1.7.6 2.2.5.6 1 .8 1.7.8.6 0 1.3-.3 1.7-.8zm18 .4c.2.3.4.6.4 1.1 0 .6-.3 1.1-1 1.5-.6.3-1.2.6-1.9.6-.7.1-1.4.3-2.1.3-1.3 0-2.5-.2-3.5-.7-1-.6-1.7-1.2-2.3-2.1-.6-1-.8-2-.8-3.2 0-1.2.2-2.2.7-3.2s1.2-1.7 2.1-2.2c.9-.6 1.9-.8 3.1-.8 1.1 0 2.1.2 2.9.7.8.6 1.5 1.2 1.9 2.1.5.9.6 1.9.6 3.1 0 .4-.1.6-.2.9-.2.2-.5.3-.7.3h-6.4c.2.7.4 1.3.7 1.7.4.4 1 .6 1.7.6.4 0 .7-.1 1.1-.2.4-.1.7-.2 1.1-.4.2-.1.5-.2.7-.2.2-.1.5-.1.6-.1.7-.2 1-.1 1.3.2zM263 389c-.4.4-.6.9-.6 1.6h3.8c-.1-1.4-.7-2.1-1.8-2.1-.7-.1-1.1.1-1.4.5zm29.7 1.4c.6.7.8 1.7.8 2.7 0 1-.2 1.8-.7 2.5-.6.6-1.2 1.3-2.1 1.7-.9.4-2 .6-3.2.6H281c-.6 0-1.2-.2-1.6-.6-.4-.4-.6-.9-.6-1.6v-12.9c0-.6.2-1.2.6-1.6s.9-.6 1.6-.6h6.2c1.8 0 3.2.4 4.3 1.2 1 .8 1.6 1.8 1.6 3.2 0 .9-.2 1.7-.6 2.3-.5.6-1.1 1.2-1.9 1.5.9.4 1.6.8 2.1 1.6zm-9.4-3.1h3.2c.8 0 1.5-.2 1.8-.4.4-.2.6-.6.6-1.3 0-.6-.2-1-.6-1.3-.4-.3-1-.5-1.8-.5h-3.2v3.5zm5.6 6.7c.4-.3.6-.7.6-1.4s-.2-1.1-.6-1.4c-.4-.3-1-.5-1.9-.5h-3.6v3.6h3.6c.8 0 1.5-.1 1.9-.3zm15.5-8.1c.3.3.6.7.6 1.3 0 .6-.2 1.1-.5 1.4-.3.3-.8.5-1.7.6l-.7.1c-.8.1-1.4.4-1.7.7-.4.5-.6 1-.6 1.7v4.2c0 .6-.2 1.2-.6 1.5-.5.3-.9.6-1.6.6s-1.1-.2-1.6-.6c-.5-.3-.6-.8-.6-1.5v-8.4c0-.6.2-1.1.6-1.4.5-.4.9-.6 1.5-.6s1 .2 1.4.6c.4.3.6.7.6 1.3v.5c.2-.7.6-1.3 1.3-1.7s1.2-.6 1.8-.6h.4c.7 0 1.1 0 1.4.3zm10.9.9c.9.9 1.3 2.2 1.3 4v5.1c0 .6-.2 1.1-.6 1.4-.4.4-.9.6-1.5.6s-1-.2-1.4-.6c-.4-.3-.6-.7-.6-1.3-.2.6-.6 1-1.1 1.3-.6.3-1.2.6-1.9.6-.8 0-1.6-.2-2.2-.6-.6-.3-1.2-.8-1.6-1.4-.4-.6-.6-1.3-.6-2 0-.8.2-1.6.6-2 .5-.6 1.1-.9 2.1-1.1 1-.2 2.3-.4 4-.4h.6v-.3c0-.6-.2-1-.4-1.2s-.6-.4-1.3-.4c-.7 0-1.7.2-2.9.6-.4.2-.6.2-1 .2s-.7-.2-1-.5c-.2-.3-.4-.6-.4-1.1 0-.4.1-.6.2-.9.2-.2.4-.5.6-.6.6-.3 1.3-.6 2.1-.6.8-.2 1.7-.3 2.5-.3 2.3.3 3.7.6 4.5 1.5zm-3.3 7.6c.4-.5.6-1 .6-1.6v-.3h-.4c-1 0-1.8.1-2.2.3-.5.2-.6.6-.6 1s.2.6.4.9c.2.2.6.4.9.4.4-.1.9-.3 1.3-.7zm18.2-7.6c.6.8 1 2.1 1 3.9v5.2c0 .6-.2 1.1-.6 1.5-.4.4-.9.6-1.6.6-.7 0-1.2-.2-1.6-.6-.4-.4-.6-.8-.6-1.5v-5.1c0-.7-.2-1.2-.4-1.6-.2-.3-.6-.6-1.1-.6-.6 0-1.2.2-1.6.6-.4.5-.6 1-.6 1.7v4.8c0 .6-.2 1.1-.6 1.5-.4.4-.9.6-1.6.6s-1.2-.2-1.6-.6c-.4-.4-.6-.8-.6-1.5v-8.4c0-.6.2-1 .6-1.4s.9-.6 1.6-.6c.6 0 1.1.2 1.5.6s.6.8.6 1.3c.5-.6 1-1.1 1.7-1.4.6-.3 1.4-.6 2.2-.6 1.6.4 2.6.7 3.3 1.6zm15.5-5.8c.5.4.6.8.6 1.4v13.4c0 .6-.2 1.1-.6 1.5-.4.4-.9.6-1.6.6-.6 0-1.1-.2-1.5-.5-.4-.3-.6-.7-.6-1.3-.4.6-.8 1-1.5 1.3-.6.3-1.4.6-2.1.6-1 0-1.9-.3-2.8-.8-.8-.6-1.4-1.3-1.8-2.2-.4-1-.6-2-.6-3.2 0-1.2.2-2.3.6-3.2.4-.9 1-1.7 1.8-2.1.8-.6 1.7-.7 2.8-.7.7 0 1.5.2 2.1.5.6.3 1.1.7 1.5 1.3v-4.8c0-.6.2-1 .6-1.3.4-.4.9-.6 1.6-.6.6-.1 1.1-.2 1.5.1zm-4.2 12.9c.4-.6.6-1.3.6-2.2 0-1-.2-1.7-.6-2.1-.4-.6-1-.7-1.7-.7s-1.3.2-1.7.7c-.4.6-.6 1.2-.6 2.1 0 1 .2 1.7.6 2.2.5.6 1 .8 1.7.8.6 0 1.3-.3 1.7-.8zm7.7-10.6c-.5-.4-.6-.9-.6-1.5s.2-1.1.6-1.5 1-.6 1.7-.6 1.3.2 1.7.6c.5.4.6.9.6 1.5s-.2 1.1-.6 1.5c-.4.4-1 .6-1.7.6-.6-.1-1.2-.2-1.7-.6zm.3 14.1c-.5-.3-.6-.8-.6-1.5v-8.3c0-.6.2-1.2.6-1.5.5-.3.9-.6 1.6-.6.7 0 1.1.2 1.6.6.5.3.6.8.6 1.5v8.3c0 .6-.2 1.2-.6 1.5-.5.3-.9.6-1.6.6-.7-.1-1.2-.3-1.6-.6zm17.3-10.6c.6.8 1 2.1 1 3.9v5.2c0 .6-.2 1.1-.6 1.5-.4.4-.9.6-1.6.6s-1.2-.2-1.6-.6c-.4-.4-.6-.8-.6-1.5v-5.1c0-.7-.2-1.2-.4-1.6-.2-.3-.6-.6-1.1-.6-.6 0-1.2.2-1.6.6-.4.5-.6 1-.6 1.7v4.8c0 .6-.2 1.1-.6 1.5-.4.4-.9.6-1.6.6-.7 0-1.2-.2-1.6-.6-.4-.4-.6-.8-.6-1.5v-8.4c0-.6.2-1 .6-1.4s.9-.6 1.6-.6c.6 0 1.1.2 1.5.6.4.4.6.8.6 1.3.5-.6 1-1.1 1.7-1.4.6-.3 1.4-.6 2.2-.6 1.6.4 2.6.7 3.3 1.6zm15.6-.7c.4.4.6.8.6 1.4v8.7c0 1.9-.6 3.5-1.8 4.4-1.2 1-2.9 1.6-5.2 1.6-.9 0-1.7-.1-2.5-.2-.8-.2-1.5-.4-2-.6-.3-.2-.6-.4-.6-.6-.2-.2-.2-.6-.2-.9 0-.5.2-.8.4-1.1.2-.3.6-.5.9-.5.3 0 .8.2 1.6.4.6.2 1 .3 1.3.4.4.1.8.2 1.2.2 1 0 1.7-.2 2.1-.6.5-.5.6-1 .6-1.9v-.9c-.4.6-.9 1-1.6 1.3-.6.3-1.4.5-2.1.5-1 0-1.9-.2-2.8-.7-.8-.6-1.4-1.2-1.8-2.1-.4-.9-.6-1.9-.6-3.1 0-1.2.2-2.2.6-3.1.5-.9 1.1-1.7 1.8-2.1.8-.6 1.7-.7 2.8-.7.8 0 1.5.2 2.1.6.6.3 1.2.7 1.6 1.3 0-.6.2-1 .6-1.3.4-.3.9-.5 1.5-.5.7-.4 1.1-.3 1.5.1zm-4.2 7.3c.5-.5.6-1.1.6-2 0-.8-.2-1.6-.6-2-.5-.6-1-.7-1.8-.7s-1.3.2-1.7.7c-.5.5-.6 1.1-.6 2 0 .8.2 1.5.6 2 .5.5 1 .7 1.7.7.7.1 1.4-.1 1.8-.7zm-227.3 31.9c-1.1-1.1-1.7-2.6-1.7-4.4 0-1.3.3-2.3.8-3.2.6-1 1.3-1.7 2.3-2.2 1-.6 2.1-.7 3.4-.7.6 0 1.3.1 2 .3.6.2 1.3.5 1.8.7.6.3.7.7.7 1.4 0 .6-.2.9-.4 1.2-.2.3-.6.5-.9.5-.2 0-.5 0-.6-.1-.2-.1-.5-.2-.7-.3-.2-.2-.6-.2-.8-.3-.2-.1-.5-.1-.7-.1-1.6 0-2.4 1-2.4 2.9 0 1 .2 1.7.6 2.2.5.6 1 .7 1.8.7.3 0 .6 0 .7-.1.2-.1.6-.2.8-.3.3-.2.6-.2.8-.3.2-.1.5-.1.6-.1.4 0 .6.2.9.5.2.3.4.7.4 1.2 0 .3-.1.6-.2.8-.2.2-.3.5-.6.6-1.1.6-2.5 1-4.1 1-1.8-.2-3.4-.8-4.5-1.9zm13.6.8c-1-.6-1.8-1.3-2.3-2.1-.6-1-.8-2-.8-3.2s.3-2.4.8-3.2c.5-.9 1.3-1.7 2.3-2.1 1-.6 2.1-.7 3.5-.7 1.3 0 2.5.2 3.5.7 1 .6 1.7 1.2 2.3 2.1.6.9.8 2 .8 3.2s-.3 2.4-.8 3.2c-.6 1-1.3 1.7-2.3 2.1-1 .6-2.1.7-3.5.7-1.4.2-2.6-.1-3.5-.7zm5.7-5.4c0-2-.7-3-2.3-3s-2.3 1-2.3 3c0 2.1.7 3 2.3 3 1.6 0 2.3-1 2.3-3zm17.4-4.9c.6.8 1 2.1 1 3.9v5.2c0 .6-.2 1.1-.6 1.5-.4.4-.9.6-1.6.6-.6 0-1.2-.2-1.6-.6-.4-.4-.6-.8-.6-1.5v-5.1c0-.7-.2-1.2-.4-1.6-.2-.3-.6-.6-1.1-.6-.6 0-1.2.2-1.6.6-.4.5-.6 1-.6 1.7v4.8c0 .6-.2 1.1-.6 1.5-.4.4-.9.6-1.6.6-.6 0-1.2-.2-1.6-.6-.4-.4-.6-.8-.6-1.5v-8.4c0-.6.2-1 .6-1.4.4-.4.9-.6 1.6-.6.6 0 1.1.2 1.5.6.4.4.6.8.6 1.3.5-.6 1-1.1 1.7-1.4.7-.3 1.4-.6 2.2-.6 1.6.4 2.6.8 3.3 1.6zm12.4 10.9c-.7-.2-1.4-.5-1.9-.7-.2-.2-.4-.3-.6-.6-.2-.3-.2-.6-.2-.9 0-.5.2-.8.4-1 .2-.3.6-.5.9-.5.2 0 .5 0 .6.1.2.1.5.2.7.3.6.2 1 .3 1.3.5.4.1.9.2 1.5.2.5 0 .7-.1 1-.2.2-.2.4-.3.4-.6 0-.2-.1-.3-.2-.5l-.6-.3c-.4-.1-.9-.2-1.7-.4-1.4-.3-2.5-.6-3.1-1.3-.6-.6-1-1.3-1-2.4 0-.7.2-1.4.6-2 .4-.6 1.1-1 1.9-1.4s1.7-.6 2.7-.6c.7 0 1.4.1 2.1.3.6.2 1.3.5 1.8.7.6.3.7.7.7 1.4 0 .5-.2.8-.4 1.1-.2.3-.6.5-.9.5-.5 0-.9-.2-1.5-.5-.4-.2-.7-.3-1-.4-.3-.1-.6-.2-1-.2s-.7.1-1 .2c-.2.2-.4.3-.4.6 0 .2.2.5.5.6.3.2 1 .3 1.8.6 1.6.3 2.7.6 3.3 1.3.6.6 1 1.3 1 2.4 0 1.2-.6 2.1-1.5 2.9-1 .6-2.3 1-4 1-.7.1-1.5 0-2.2-.2zm20.5-3.3c.2.3.4.6.4 1.1 0 .6-.3 1.1-1 1.5-.6.3-1.2.6-1.9.6-.7.2-1.4.3-2.1.3-1.3 0-2.5-.2-3.5-.7-1-.6-1.7-1.2-2.3-2.1-.6-1-.8-2-.8-3.2 0-1.2.2-2.2.7-3.2.5-1 1.2-1.7 2.1-2.2.9-.6 1.9-.8 3.1-.8 1.1 0 2.1.2 2.9.7.8.6 1.5 1.2 1.9 2.1.5.9.6 1.9.6 3.1 0 .4-.1.6-.2.9-.2.2-.5.3-.7.3h-6.4c.2.7.4 1.3.7 1.7.4.4 1 .6 1.7.6.4 0 .7-.1 1.1-.2.4-.1.7-.2 1.1-.4.2-.1.5-.2.7-.2.2-.1.5-.1.6-.1.6-.2 1-.1 1.3.2zm-6.4-5.4c-.4.4-.6.9-.6 1.6h3.8c-.1-1.4-.7-2.1-1.8-2.1-.7 0-1.1.1-1.4.5zm20.7-7.9c.5.4.6.8.6 1.4v13.4c0 .6-.2 1.1-.6 1.5-.4.4-.9.6-1.6.6-.6 0-1.1-.2-1.5-.5-.4-.3-.6-.7-.6-1.3-.4.6-.8 1-1.5 1.3-.7.3-1.4.6-2.1.6-1 0-1.9-.3-2.8-.8-.8-.6-1.4-1.3-1.8-2.2-.5-1-.6-2-.6-3.2 0-1.2.2-2.3.6-3.2.5-.9 1-1.7 1.8-2.1.8-.5 1.7-.7 2.8-.7.7 0 1.5.2 2.1.5.6.3 1.1.7 1.5 1.3v-4.8c0-.6.2-1 .6-1.3.4-.4.9-.6 1.6-.6.6-.4 1-.3 1.5.1zm-4.3 12.9c.4-.6.6-1.3.6-2.2 0-1-.2-1.7-.6-2.1-.4-.6-1-.7-1.7-.7s-1.3.2-1.7.7c-.4.6-.6 1.2-.6 2.1 0 1 .2 1.7.6 2.2.5.6 1 .8 1.7.8.8-.1 1.3-.3 1.7-.8zm18 .4c.2.3.4.6.4 1.1 0 .6-.3 1.1-1 1.5-.6.3-1.2.6-1.9.6-.7.2-1.4.3-2.1.3-1.3 0-2.5-.2-3.5-.7-1-.6-1.7-1.2-2.3-2.1-.6-1-.8-2-.8-3.2 0-1.2.2-2.2.7-3.2.5-1 1.2-1.7 2.1-2.2.9-.6 1.9-.8 3.1-.8s2.1.2 2.9.7c.8.6 1.5 1.2 1.9 2.1.5.9.6 1.9.6 3.1 0 .4-.1.6-.2.9-.2.2-.5.3-.7.3h-6.4c.2.7.4 1.3.7 1.7.4.4 1 .6 1.7.6.4 0 .7-.1 1.1-.2.4-.1.7-.2 1.1-.4.2-.1.5-.2.7-.2.2-.1.5-.1.6-.1.8-.2 1.1-.1 1.3.2zm-6.4-5.4c-.4.4-.6.9-.6 1.6h3.8c-.1-1.4-.7-2.1-1.8-2.1-.6 0-1 .1-1.4.5zm26.2 5.4c.2.3.4.6.4 1.1 0 .6-.3 1.1-1 1.5-.6.3-1.2.6-1.9.6-.7.2-1.4.3-2.1.3-1.3 0-2.5-.2-3.5-.7-1-.6-1.7-1.2-2.3-2.1-.6-1-.8-2-.8-3.2 0-1.2.2-2.2.7-3.2.5-1 1.2-1.7 2.1-2.2.9-.6 1.9-.8 3.1-.8 1.2 0 2.1.2 2.9.7.8.6 1.5 1.2 1.9 2.1.5.9.6 1.9.6 3.1 0 .4-.1.6-.2.9-.2.2-.5.3-.7.3h-6.4c.2.7.4 1.3.7 1.7.4.4 1 .6 1.7.6.4 0 .7-.1 1.1-.2.4-.1.7-.2 1.1-.4.2-.1.5-.2.7-.2.2-.1.5-.1.6-.1.9-.2 1.2-.1 1.3.2zM262 418c-.4.4-.6.9-.6 1.6h3.8c-.1-1.4-.7-2.1-1.8-2.1-.6 0-1.1.1-1.4.5zm19.9-2.2c.6.8 1 2.1 1 3.9v5.2c0 .6-.2 1.1-.6 1.5-.4.4-.9.6-1.6.6s-1.2-.2-1.6-.6c-.4-.4-.6-.8-.6-1.5v-5.1c0-.7-.2-1.2-.4-1.6-.2-.3-.6-.6-1.1-.6-.6 0-1.2.2-1.6.6-.4.5-.6 1-.6 1.7v4.8c0 .6-.2 1.1-.6 1.5s-.9.6-1.6.6c-.7 0-1.2-.2-1.6-.6s-.6-.8-.6-1.5v-8.4c0-.6.2-1 .6-1.4.4-.4.9-.6 1.6-.6.6 0 1.1.2 1.5.6.4.4.6.8.6 1.3.5-.6 1-1.1 1.7-1.4.6-.3 1.4-.6 2.2-.6 1.6.4 2.7.8 3.3 1.6zm13.1 13.5c-.4-.4-.6-.9-.6-1.6v-12.9c0-.6.2-1.2.6-1.6.4-.4 1-.6 1.7-.6s1.3.2 1.7.6c.4.4.6.9.6 1.6v11.3h5.5c1.4 0 2.1.6 2.1 1.8 0 .6-.2 1-.6 1.3s-.9.5-1.6.5h-7.9c-.6.2-1.1-.1-1.5-.4zm13.5-13.8c-.5-.4-.6-.9-.6-1.5s.2-1.1.6-1.5c.5-.4 1-.6 1.7-.6s1.3.2 1.7.6c.5.4.6.9.6 1.5s-.2 1.1-.6 1.5c-.4.4-1 .6-1.7.6-.8-.2-1.3-.3-1.7-.6zm.1 14c-.5-.3-.6-.8-.6-1.5v-8.3c0-.6.2-1.2.6-1.5.5-.3.9-.6 1.6-.6.6 0 1.1.2 1.6.6.5.3.6.8.6 1.5v8.3c0 .6-.2 1.2-.6 1.5-.5.3-.9.6-1.6.6-.7-.1-1.2-.3-1.6-.6zm24.4-10.7c.7.8 1 2.1 1 4v5.2c0 .6-.2 1.2-.6 1.5-.5.3-.9.6-1.6.6-.6 0-1.1-.2-1.6-.6-.5-.3-.6-.8-.6-1.5v-5.4c0-.6-.2-1.1-.4-1.3-.2-.2-.6-.4-1-.4-.6 0-1 .2-1.3.6-.4.4-.6 1-.6 1.7v4.8c0 .6-.2 1.2-.6 1.5-.4.3-.9.6-1.6.6-.6 0-1.1-.2-1.6-.6-.5-.3-.6-.8-.6-1.5v-5.4c0-.6-.2-1.1-.4-1.3s-.6-.4-1-.4c-.6 0-1 .2-1.3.6-.3.4-.6 1-.6 1.7v4.8c0 .6-.2 1.2-.6 1.5-.5.3-.9.6-1.6.6-.6 0-1.1-.2-1.6-.6-.5-.3-.6-.8-.6-1.5v-8.4c0-.6.2-1.1.6-1.4.5-.3 1-.6 1.6-.6.6 0 1 .2 1.4.5s.6.7.6 1.3c.8-1.2 2-1.8 3.6-1.8 1.7 0 2.9.6 3.5 2.1.4-.6 1-1.2 1.7-1.6.6-.4 1.4-.6 2.3-.6 1.8.2 2.8.6 3.5 1.3zm13.2.1c.9.9 1.3 2.2 1.3 4v5.1c0 .6-.2 1.1-.6 1.4-.4.4-.9.6-1.5.6s-1-.2-1.4-.6c-.4-.3-.6-.7-.6-1.3-.2.6-.6 1-1.1 1.3-.5.3-1.2.6-1.9.6-.8 0-1.6-.2-2.2-.6-.6-.3-1.2-.8-1.6-1.4-.4-.6-.6-1.3-.6-2 0-.8.2-1.6.6-2 .5-.6 1.1-.9 2.1-1.1s2.3-.4 4-.4h.6v-.4c0-.6-.2-1-.4-1.2s-.6-.4-1.3-.4c-.6 0-1.7.2-2.9.6-.4.2-.6.2-1 .2s-.7-.2-1-.5c-.2-.3-.4-.6-.4-1.1 0-.4.1-.6.2-.9.2-.2.4-.5.6-.6.6-.3 1.3-.6 2.1-.6.8-.2 1.7-.3 2.5-.3 2.3.4 3.6.8 4.5 1.6zm-3.3 7.6c.4-.5.6-1 .6-1.6v-.3h-.5c-1 0-1.8.1-2.2.3-.5.2-.6.6-.6 1s.2.6.4.9.6.4.9.4c.5-.1 1-.3 1.4-.7zm10.7-.4c.5.6.6 1.3.6 2.2 0 1.8-.6 3.5-2 4.9-.2.2-.6.4-.8.4-.3 0-.6-.1-.8-.3-.2-.2-.4-.5-.4-.7s.1-.6.3-.6c.6-.6 1-1.3 1.2-1.9-.6-.1-1.1-.3-1.5-.6-.4-.4-.6-.9-.6-1.5s.2-1.2.6-1.7c.5-.5 1-.6 1.7-.6.7-.4 1.3-.1 1.7.4zm3.8 3.3c-.4-.4-.6-1-.6-1.7v-12.9c0-.6.2-1.2.6-1.6.4-.4.9-.6 1.6-.6h6.2c1.8 0 3.3.5 4.4 1.4 1 1 1.6 2.3 1.6 4s-.6 3.1-1.6 4c-1 1-2.5 1.5-4.4 1.5h-3.8v4.1c0 .6-.2 1.2-.6 1.7-.4.4-1 .6-1.7.6s-1.3-.1-1.7-.5zm7-9c.8 0 1.4-.2 1.8-.6.4-.4.6-.9.6-1.6 0-1.4-.8-2.1-2.5-2.1h-3.2v4.2l3.3.1zm18.6 6.1c.2.3.4.6.4 1.1 0 .6-.3 1.1-1 1.5-.6.3-1.2.6-1.9.6-.7.1-1.4.3-2.1.3-1.3 0-2.5-.2-3.5-.7-1-.6-1.7-1.2-2.3-2.1-.6-1-.8-2-.8-3.2 0-1.2.2-2.2.7-3.2.6-1 1.2-1.7 2.1-2.2.9-.6 1.9-.8 3.1-.8 1.2 0 2.1.2 2.9.7.8.6 1.5 1.2 1.9 2.1.4.9.6 1.9.6 3.1 0 .4-.1.6-.2.9-.2.2-.5.3-.7.3h-6.4c.2.7.4 1.3.7 1.7.4.4 1 .6 1.7.6.4 0 .7-.1 1.1-.2.4-.1.7-.2 1.1-.4.2-.1.5-.2.7-.2.2-.1.5-.1.6-.1.7-.3 1-.2 1.3.2zm-6.5-5.4c-.4.4-.6.9-.6 1.6h3.8c-.1-1.4-.7-2.1-1.8-2.1-.6 0-1 .2-1.4.5zm17.7-3c.3.3.6.7.6 1.3 0 .6-.2 1.1-.5 1.4-.3.3-.8.5-1.7.6l-.7.1c-.8.1-1.4.4-1.7.7-.4.5-.6 1-.6 1.7v4.2c0 .6-.2 1.2-.6 1.5-.5.3-.9.6-1.6.6-.6 0-1.1-.2-1.6-.6-.5-.3-.6-.8-.6-1.5v-8.4c0-.6.2-1.1.6-1.4.5-.4.9-.6 1.5-.6s1 .2 1.4.6c.4.3.6.7.6 1.3v.5c.2-.7.6-1.3 1.3-1.7s1.2-.6 1.8-.6h.4c.6-.1 1.1-.1 1.4.3zm12.7.1c.4.4.6.8.6 1.5v8.4c0 .6-.2 1-.6 1.4-.4.4-.9.6-1.6.6-.6 0-1-.2-1.4-.5-.4-.3-.6-.7-.6-1.3-.4.6-.8 1-1.4 1.3-.6.3-1.3.5-2 .5-1.6 0-2.7-.5-3.4-1.3-.7-.8-1.1-2.1-1.1-3.9v-5.2c0-.6.2-1.1.6-1.5s.9-.6 1.6-.6c.7 0 1.2.2 1.6.6s.6.8.6 1.5v5.4c0 1.2.6 1.7 1.5 1.7.6 0 1-.2 1.4-.6.4-.5.6-1 .6-1.7v-4.8c0-.6.2-1.1.6-1.5s.9-.6 1.6-.6c.5.1 1.1.3 1.4.6zm-5.3-1.7c-.3 0-.6-.1-.7-.3-.2-.2-.3-.5-.3-.7s.1-.6.3-.7l1.8-2.5c.2-.3.5-.6.7-.6.3-.2.6-.2.9-.2.5 0 .9.2 1.3.6.4.3.6.7.6 1.2 0 .6-.3 1-.9 1.5l-2.8 1.8c-.4-.2-.7-.1-.9-.1z"/></g><g><path d="M537.5 454.5c-3.4 1.6-7.1 2.4-10.8 2.9 2.9 0 5.9-.6 8.7-1.3 1-.2 1.7-.8 2.1-1.6zM542.7 480.4c-.4 1.6 2 1.7 2.9 2.5.4-.4 1.1-1.3 1.4-1.8-1.2-.8-2.8-1-4.3-.7zM547.4 346.3c-2.5 1.9-5.2 4.4-8.6 3.7-2.8-.1-5.4-1.2-8.1-1.5-.3.3-1 .9-1.4 1.1.8.6 1.3 1.5 1.6 2.4 3.5 1 7.1 1.7 10.7 1.7 3.1-.1 5.7-2.1 7.8-4.2 1.6-1.9-.9-2.5-2-3.2zM570.3 362.8c-.8-3.6-2.7-6.8-5.3-9.4-1.2 3 2.8 5.2 1.3 8.1-2.5-.4-4.7-2.2-7.2-2.4-.2.5-.6 1.4-.8 1.8 3.4 2.7 8.3 4.9 12 1.9zM559.4 375.4c4.7.2 3.8-7.8-.2-8.1 0 1.6.3 3.3.4 4.9-2.5.4-4.5-1.5-6.8-2.3-.2.9-.3 1.7-.4 2.6 2.1 1.5 4.4 3.3 7 2.9zM571.7 380.7c-1.5-1.2-2.9-2.7-4.9-3.2-.1.6-.2 1.9-.3 2.6 2.3 1.8 4.3 5 7.7 3.9.7-4.1-.3-9.1-4.2-11.3-.1.9-.2 1.8-.2 2.7.9 1.6 1.6 3.4 1.9 5.3zM555.8 388.9c.4 3 3.1 4.7 5.5 6.1 1.2.5 2.9 0 3-1.5.4-1.8.8-3.8.5-5.7-.7-.5-1.5-.8-2.3-1.2l-.3 4.8c-1.9-1.2-4-2.4-6.4-2.5zM472.2 314.8c-.9.2-2 .1-2.8.7-3.8 2.8-6.3 6.9-8.4 10.9.5.1 1.6.4 2.1.6 3-4 5.8-8.3 9.1-12.2zM462.8 338.9c1.6-2.4 3-5 4.3-7.6 1.5-2.9 3.7-5.4 5.3-8.3-3.4 2-6.4 4.9-7.9 8.6-.9 2.3-2.8 4.7-1.7 7.3zM496.2 337.2c-3.7-2.3-8.2-2.3-12.3-1.3-1.5.8-.5 2.5-.5 3.8 2.6 0 5.2-.7 7.8-.3 4.2.4 6.4 4.8 10.5 5.6-.1-3.6-2.9-6-5.5-7.8zM491.9 349.3c-5.5-3.4-12.8-3.9-18.6-1 .1 1 .2 2 .3 3.1 3.5.1 6.8-1.8 10.3-.8 4 .3 7.3 2.8 10.9 4.2.4-2.4-1-4.4-2.9-5.5zM488.6 362.1c-2.5-3-6-5.1-9.8-5.9-4.3-.4-8.7.5-12.4 2.7.1.5.2 1.6.2 2.1.4.2 1.2.7 1.6 1 3.5-1.6 7.5-2.9 11.3-1.6 3.3.7 5.6 3.2 8.3 5 2.4.3 1.8-2.2.8-3.3z"/><path d="M680.2 569.1c-.2-2.7-.8-5.4-1.3-8 3.8-5.7 7.3-12.3 6.7-19.4-.7-5.6-5.8-8.7-10.2-11.4-2.8-1.9-6.3-2.3-9.6-2.7-.9-4.2-2.2-8.9-5.8-11.6-2.1-1.7-5.2-3.2-7.8-1.7-3.8 2.8-2.7 8.2-3.9 12.3-3.9-1.7-8-3-12.2-3.8 2.5-6.2 6.3-12 8.2-18.3-7.1-3.9-13.9-8.2-20.7-12.5 2.3-12.6 3.5-25.8.5-38.5-1-7.7-4-14.9-7.7-21.7-1.5-2.7-3.6-5.3-6.4-6.6-5.6-.2-9.8 4.1-14.2 6.9-.9-8.4-1.4-16.9-3-25.2-2.9-18.8-7.2-37.4-14-55.1 2.7-3.6 3.4-8.9.5-12.7-1.9.1-3.8.4-5.7.9-.8-1.7-1.7-3.4-2.6-5 1-3.8 2-7.9.5-11.8-2.5-1.2-5.4-.8-8-.1-1.8-2.3-3.5-4.6-5.1-7.1 1.5-4.9 2.9-11.1-.9-15.3-4.3-.3-8.1 2.4-10.3 5.9-3.2-1-6.4-1.8-9.6-2.5-.6-3.7-.7-7.7-2.4-11.1-1-2-3.9-1.9-5 0-2 3.4-3.8 7.1-4.1 11.1-3.8.4-7.7.8-11.5 1.8.4-3-1.6-5.6-3.1-8-1.1-1.9-4.5-2.4-5.6-.3-1.7 3.5-1.5 7.4-1.6 11.2-2.7 1-5.3 2.2-7.8 3.7-2.2-3-3.3-6.9-6.1-9.5-1.4-1.5-3.7-.4-4.9.9-2.6 5.4-1.9 11.6-1 17.3-13.1 13.6-23.7 30.7-25.7 49.9-1 7 2.3 13.8 6.9 18.9 3.6 4.3 9.3 5.4 14.2 7.3 2.2 2.6 3.2 6.8 7.1 7.4 2.5.8 4.6-.8 6.3-2.5.5.3 1.4 1 1.9 1.4 2.4 1 5 .7 7.3-.3.8 4.7 1.5 9.4 1.6 14.2-7.5 2.9-16.2 1-22.7-3.5-4.7-3.1-10.2-6-16-5.1-5.8 1.1-11.7 3.6-15.6 8.2-1.2 1.7-2.8 4.6-.6 6.1 2.2 2.2 5.5.9 8 .1-.8 1.8-1.3 3.7-1.3 5.6l2.7 2.1c1.5-.5 2.9-1.1 4.4-1.6-.4 1.5-.8 3-1 4.6 1.1 1.8 3.1 3.9 5.4 2.9 3.5-1.8 6.1-6.2 10.4-5.8 7.6 2.8 15.8 5.5 23.9 3.1-.2 1.4-.2 2.8.2 4.1-3.9.6-7.6 1.6-11.5 2.1-9.7 1.4-19.1 4.2-28.3 7.3-1.3-4.1-5.3-6.2-8.8-8.2-3.1 3.4.3 7.4 2 10.6 2 2.9.9 6.5.5 9.7-1 8.8-.4 17.8-1.5 26.6-.4 3.5-.4 7-.9 10.5-3.7-3.2-5.6-8.9-10.9-9.9 0-.3.1-.9.1-1.1l-.1 1.2c-5.7-.2-11.6 1.9-15.8 5.8-2.7 2.6-3.5 6.3-3.8 9.9 1 .6 1.9 1.3 3 1.6 1.6-.1 3.1-.7 4.7-1.2.7 2.3 2.2 4.6 4.9 4.6 5.4-.1 11-1.5 16.2 1 .2-.4.7-1.1 1-1.5-1.7-1.2-3.3-2.8-5.4-3.2-4.2-.7-8.4.4-12.6.1-1.3-1.3-2.1-2.9-3.2-4.3-1.9.5-3.9 1.1-5.8 1.5.5-4.4 3.7-7.7 7.7-9.3 3.4-1.6 8-3.8 11.3-.8 2.9 3 5 6.9 8.8 8.9-.2 3-.4 6-.5 9-.1 2.5-.4 5.1-.7 7.6-2.2.8-4.6 1.3-6.3 2.9-2.7 3.8-2.7 8.6-3.1 13-.3 4.9-.7 9.7-.8 14.6-5-1.3-10.3-.2-14.7 2.3-.3 1.5-.7 3-1.1 4.5 4.5-2.9 9.8-5.3 15.2-3.8.1 1.4.2 2.8.3 4.1 1.9.1 2.5-1.3 2.8-3 1.4.7 2.7 1.4 4.1 2-.7-1.9-2.4-3.1-3.7-4.6-.6-3.8 0-7.7.3-11.5.6-4.4.5-8.9 1.6-13.3.5-2.5 3.2-3.6 5.4-4.2 4.8-1.5 10.3-.9 14.5 1.9 2.4 1.5 2.5 4.6 2.7 7.2 0 5.4.3 10.8-.7 16.1-1.9 1.6-3.5 3.4-4.9 5.4-2.1-.8-4.3-2-6.6-1.6-2.6.4-4.9 1.7-7.2 3.1-2.8 2.1-4.3 5.5-6 8.5-2.7.1-5.4.7-7.9 1.8.3 1 .5 2 .8 3 2.3-.4 4.7-.9 7-.2 4.2.9 7.4 4.3 8.7 8.3 2.1-1.3 3.9-3 6.1-4.2 1.5-.4 3.1.1 4.7.2-.3 2.2-.5 4.4-.4 6.6-1.5.3-3 .6-4.4 1 0 1 0 2.1-.1 3.1 2.7 0 5.3-.6 7.9-.6 1.8.5 3.3 1.7 5 2.6-.1-1.5.4-3.2-.4-4.6-.9-1.6-2.9-1.6-4.4-2.2.1-3 .3-6.8 3.6-8.2 2.6-1.7 5.4.6 8.1.7.1-1 0-2 0-2.9-2.2-1.1-4.5-2.6-7-2-2.6.1-4.6 1.8-6.6 3.3-4.2-2.2-8.5-.1-11.9 2.5-1-3-2.6-5.8-5.6-7.3 1.9-3 3.7-6.5 7.1-8.2 2.6-1.5 5.8-1.3 8.7-1.5-.1 1.8-.4 3.5-.2 5.3.7 1 1.5 1.9 2.3 2.8 3-.9.4-3.9 1.6-5.9 1.2-5 6.7-6.4 11.2-6.6.2 1.8.1 3.6.8 5.3.8.8 1.9 1.2 2.8 1.8.4-5.7.1-11.8 2.9-17 2.3-4.7 7.8-6.1 12.4-7.6 7.2-1.4 14.1 2.5 19.5 6.9-1.5 1.5-2.9 3.1-3.9 5.1.5.3 1.4 1 1.8 1.4 2.4-2.3 5-5 8.6-5.1 3.5.4 6.2 2.7 8.6 5-1.5 1.3-2.9 2.7-4.6 3.8-1.6.8-3.5.6-5.2.9.3.5.8 1.6 1.1 2.1 2.7 1.3 5.6 2.2 8.3 3.5 0-1.6 0-3.2-.1-4.7 2.2-1.6 4.4-3.8 7.4-3.8 3 1.1 5.4 3.4 8.6 4.2-.5-6.1-8.1-10.1-13.6-7.4-2-2.6-4.3-4.8-7.2-6.4.8-4.6 1.3-9.2 1.6-13.9 3.5-.7 7.7-2.3 10.9.3 3.1 1.7 4.1 5.2 5.2 8.3-1.7.3-3.5.5-5.2.9-.1.7-.3 2-.3 2.7 2.2 0 4.3-.2 6.5.1 3.8 1 4.8 5.8 8.5 6.8l-.6-4.5c2-1.4 4.4-2.1 6.8-2 2.7 1.1 5.4 2.9 6.6 5.7.8 2.1 1.6 4.2 3.2 5.8-2.2 0-6.7-.4-5.4 3.1 3.3.9 7.1-.4 9.6 2.7-.6 1.1-1.2 2.2-1.8 3.4-8.3-1.2-16.8-1.6-25.2-.5-7.1 1-14.4.5-21.5.4-4-.2-7.8-1.1-11.8-.6-.4-1.8-.8-3.5-1.3-5.2-2-.2-4.4-1.3-6.1.4-3.4 2.3-3.1 6.7-4.2 10.2-1.5 5.6-.9 11.7-3.4 17-2.2.6-5.1.6-6.2 3-5.1 10.4-6.2 22.1-7.8 33.5-4.1-2.2-8.3-4.5-13-4.9-8.3-1-16.5 4.9-19.5 12.5-.8 2-1.5 4.1-2.2 6.2-2.1-.6-4.2-1.3-6.3-1.9-1.2 4.1-2.4 8.2-3.7 12.2-4.6 1.1-9.1 3.4-12.4 6.9-4.6 5-1.5 15.2 5.7 15.5 3.8.6 7.1-1.6 10.3-3.3-2.7 7.7-5.5 15.3-9.1 22.6 1 .6 1.7 1.7 3 1.8 2.9-5 4.4-10.6 6.8-15.9 1.4-3.1 2.1-6.4 3.3-9.6 4.9 1.8 9.9 3.4 14.7 5.4 1.2 2.6 3.6 4.4 6.1 5.7.2-.5.5-1.4.7-1.9-1.3-1.7-3.2-3.1-3.8-5.2-1.4-6.9-.8-14.2 1.7-20.8.6-1.8-.5-3.5-.9-5.2 2.2.5 5.6.7 6 3.5.9 5.7-2.8 11.3-1.8 17 1.5 4.4 4.7 8.1 8.7 10.4.3-.5 1.1-1.6 1.4-2.2-3-2.8-6.8-5.7-7.3-10 .5-5.6 3.1-11.1 1.8-16.8-1.7-4.2-7.3-7-11.6-4.7-3.5 2-6.8-1.7-10.2-2.4 1.1-3.1 1.7-6.5 3.9-9.2 3.7-4.5 9.7-7.3 15.5-6.4 9 1.4 17.1 8.1 19.8 16.9.9 5.4-.1 10.9-.6 16.3-3.3 19-8.2 37.8-15.7 55.6-2.5-.5-2.7-3.3-3.9-5.1-3.2-5.1-9.3-8.3-15.3-7.9-2.6.2-5.4.5-7.4 2.3-.2 1 .3 2 .5 2.9 4.8-1.5 10.7-3 15.2.2 3.2 1.9 5.3 5.1 6.7 8.5-1 .9-1.9 1.8-2.9 2.7.6.6.9 2.5 2.1 1.9 2.1-.7 4.3-2.5 6.6-1.6 1.6.8 3.1 1.9 4.7 2.9 1-2.9-1.3-4.7-3.3-6.2 4.4-8.4 6.7-17.7 9.5-26.7 2.2-6.2 3-12.8 4.8-19.2 2-7.8 3.1-15.9 3.2-24 3.5 1.8 8.3 2.2 10.9-1.3 1.7 8.7 3.8 17.8 9.7 24.7 2.8 3.3 6.9 5.2 11.2 5.6-1.5-4.2-6.7-4.4-9.2-7.7-5.5-6.5-7.1-15.4-8-23.6-1.8-2.8-6.1-2.7-7.9-5.7-1.3-2.5-2.3-5.2-3.2-7.9-.7-2.1-.1-4.6 1.7-6 4-3.8 10.3-3.5 15.1-1.6 2.8 1.3 6.5 2.9 6.5 6.5.4 6.1.1 12.4 2.3 18.2 2.1 5.1 7.4 7.7 12.3 9.4 6.3 2.3 13.1 2 19.6 1.7 0-.6.1-1.8.1-2.4-6.6-1.1-13.6.4-19.8-2.4-3.6-1.7-8-3.3-9.4-7.4-2.2-6.3-.8-13.2-2.2-19.6-1.3-4.7-6.5-6-10.3-8.1l1.5-7.2c1.2.2 2.4.4 3.5.6 1.2 2 2.8 4.3 5.4 4.3 1.7-.4 3-1.6 4.5-2.6 1 1.4 1.9 3.1 3.8 3.4 2.1.4 3.9-1.1 5.6-2.1 1.5 1.9 2.8 4.6 5.6 4.7 1.5-.6 2.5-1.8 3.7-2.8 2 1.9 4.9 4.6 7.7 2.7 2.8-1.9 5.2-4.6 6.6-7.6-1.1-.8-2.4-1.1-3.7-1.2-9.1-.8-18.2-1.6-27.3-2.8-4.8-.6-9.4-2.2-14-3.4-.4-4.2-2.6-8.2-6.4-10.2-3.4-1.5-7-2.4-10.5-3.4 2.5-7.2 1.5-15.1 4.5-22.2.7-1.4 1.9-2.3 3.1-3.3.2 1.7.4 3.5.6 5.2 3.7 1.8 7.8.1 11.7.5 7.2.6 14.4 1.1 21.6.8 6.9-.1 13.8-1.2 20.6-.1 3.3.3 6.5 1.1 9.8.7 1.7-1.4 2.3-3.7 3.6-5.4.4.3 1.3.8 1.7 1.1 1 3.4.4 6.9.2 10.4 3.9 5.2 9.7 10.1 10 17.1.2 7.8-.1 15.6-.4 23.4-.4 11.1-3.3 21.9-4.9 32.8-.7 4.4-1.6 8.8-2.6 13.1.2.1.5.2.7.4-.3-.1-.6-.3-.7-.4-2 7.2-4.2 14.3-7 21.1-.7 1.7-1 3.5-1.3 5.3-5.1-1.6-10.2-3.3-15.4-4.7.2-3.7.4-9.3-4.1-10.3-3.2 2.7-3.4 7.2-5.2 10.8-2.8 5.9-6.1 11.6-10.2 16.8-.4-4.6-.2-9.3-1.1-13.8-1.1-.2-2.3-.3-3.4-.5-.6 1.1-1.2 2.3-1.9 3.4-1.1.1-1.1-1.7-1.7-2.3-.6-.2-1.7-.7-2.2-1-.8.5-1.5 1-2.2 1.5-1.9-1.1-4.9-1.5-5.9.9-1.9 4-.9 8.6-.6 12.9.1 2.7 2.8 4 5.2 4.3 0 2-.1 4-.2 6-2.9-1.3-5.7.1-8.2 1.5-3.1-1.7-6.6-2.6-10.2-2-.8.8-1.5 2-2.9 1.8-4.1.1-8.2 1.4-10.9 4.7-3-.4-7.9-3-9.5 1-1.7 4 2.6 6.7 4.8 9.4-.7 1.6-1.4 3.1-2.1 4.7-3.6-2-7-4.4-10.4-6.8-2.7-2-4.9-5.8-8.7-5.1-2.8 3.1-.8 7.6.9 10.8-1.4.7-3.8.7-3.9 2.7-.2 2.4 1.5 4.3 2.9 6-1.8 1.2-3.2 2.8-2.8 5.2-2.5-2.5-5.9-3.5-9.3-3.5 2.4-4.7 4.4-9.5 6.9-14.2 1.7-3.5 3.8-7 4.2-10.9-.2-1.8-.5-4.1-2.4-5-3.7-1.5-6.1 5.1-9.5 2.2-5.9-3.9-11.9-7.9-18.6-10.5.9-3 1.3-6.1.7-9.2-3.9-1-5.7 3.5-7.4 6.1-3.2 7-6.6 13.9-10.6 20.5-2-3.5-3.9-8.1-8.5-8.7-2.4-.8-4.5.4-6.4 1.7.1 1.9-.6 4.2.9 5.8 2.9 3.6 6.3 6.7 9.1 10.3-1.9 4-3.8 8.1-6.3 11.8-5.2-.3-9.7 2.7-13.3 6.2-2.4-.5-4.9-.8-7.3-.6.2.7.5 2 .7 2.7 3 .8 6.1 1.1 9.1 2.1 2.1.7 3.3 3 5.4 3.6 1.2-3.1-1.7-5.2-3.8-6.7 2.4-1.9 5-3.5 8.1-3.9 1.1.5 2.1.9 3.2 1.3l1.6 1.6-2.7 3.6c.3.9.7 1.8 1 2.7 2.9-3.6 7.3-6.8 12.2-5.9 7.2.2 11.6 6.6 14.9 12.2-1.8 1.1-3.5 2.4-4.2 4.5-1.8-.1-3.7-.2-5.5-.2-3.2-1.5-7.7-3.1-10.5-.1 2.2 2 5.3 2 8.1 2.1-.1 2.1-.5 4.2-.8 6.3.6.5 1.3 1 1.9 1.5l.4-1c.7-1.8 1.3-3.6 1.9-5.4 2.2.2 4.5.2 6.5 1.1 1.5.9 2.6 2.5 4 3.7 2.4-3.1-.8-5.7-2.8-7.8 1.9-.6 3.9-1.3 5.9-.7 2.3.5 3.6 2.7 5 4.3.2-.4.7-1.1 1-1.5.1-2.7-1.8-4.5-3.7-6 3.6-5 6.8-10.4 9.7-15.8 2.5.1 5.1-.4 7.4.6 2.3 1.4 3.3 4 4.7 6.2-1.6.9-3.1 2.1-3.3 4.1 3.2 1.5 6.2-1.2 9.4-.8 2.1 0 3.7 1.5 5.3 2.6-1.1 1-2.1 2-3.2 3.1.3 1.2.6 2.4 1 3.7 2.4-2.2 5-5.1 8.5-5.1 3.5.6 6.4 2.9 9.4 4.7-.8.6-1.6 1.3-2.3 1.9.2 1 .5 2 .8 3h1.5c2.2-1.9 4.3-4.5 7.4-4.7 2 .7 3.7 1.8 5.5 2.7l-.6-3.3c3.2-7 6.1-14.2 9.3-21.3 2.6-5.8 4.8-11.9 5.8-18.2-.1-1.5-.7-3.1-1.8-4.2-2.5-2.5-5.2-4.8-8-7 1.6.3 3.2.7 4.8 1.1.7 1.1 1.4 2.2 2.1 3.4 2.5-2.3 5.1-4.6 8.5-5.1.2 2.4-.1 4.8-1.3 6.9-1.6 2.4 1.9 4.3 1 6.9-.4 2.6.3 5.1 2.6 6.7 1.2-.4 2.3-.8 3.5-1.2 3.3 3.7 8.7 5 13.4 3.8-1.8-3.1-5.4-2.8-8.3-3.8-3.1-1.5-3.4-5.3-5-8-1.8-1-3.9-1.4-5.1-3.1 2.2-1.4 4.9-3.4 7.6-2 3.8 1.4 4.3 6 6.5 8.9 3.3 2.9 7.8 3.8 12 4.4 1.9.4 3.2-1.2 4.4-2.4-2.4-2.5-5.9-.4-8.8-1.6-4.1-.3-6-4.2-7.4-7.5-1-2.6-3.4-4.2-5.8-5.3 2.5-5.5 5.3-10.9 8.7-15.9.9 2.6 1.5 5.7 3.9 7.5 2.1 1.7 4.9 1.9 7.4 1.6-1.9-2.8-6-3.3-7.2-6.7-1.3-2.8 2.1-4.5 3.8-6.1 1.5-1.6 3.3.4 5.1.6 1-1.1 1-2.6 1.3-3.9-.8-.2-1.5-.4-2.3-.6 0-2.7-.7-5.4-2.9-7.1.6-1.8 1.2-3.6 1.9-5.5.1 0 .4.1.5.2-.3 2-.2 4 .7 5.7 10.1 1.6 19.4 6.7 29.6 7.2.6-1 1.1-2 1.7-3-.5 10.7-5.1 20.6-8.9 30.4-4.3 9.1-7.6 18.8-14.3 26.5-1 1-1.6 2.3-1.7 3.8 2.5 1.2 4.4-1.1 5.8-2.8 5.2-6.7 8.8-14.5 12.1-22.2 3-6.1 5.1-12.5 7.6-18.7 2.5-6.3 3.3-13.1 3.8-19.9.3-1.9-1.6-4-3.6-3.4-2.2 1.3-3.3 3.6-5.1 5.3-2.1-.3-4.1-.8-6.2-1.2 3.1-6.9 5.7-13.9 7.9-21.1 2.6.5 5.5.7 7.5 2.6 2.2 1.9 2.1 5.1 2.8 7.7-2 .4-3.9.9-5.8 1.4.8.9 1.5 1.8 2.3 2.7 2.5-.4 5.4-1.3 7.6.5 2.5 1.4 2.9 4.4 4.3 6.7-1.1 4.3-1.5 8.8-.3 13.1 1.1 3.7 1.9 7.7 4.6 10.6-1.6 1-3.1 2.2-4.5 3.5-1.8-.2-3.5-.4-5.3-.3-3.5.1-6.3 3.6-6.4 6.9.2.8-.5 2.5.8 2.6 1.5-1.5 2.7-3.2 4.2-4.7 1.6-1.1 3.7-.7 5.5-.7.4 1.2.8 2.3 1.1 3.5-1.8.3-3.5.7-5.2 1.1.5 1.1 1 2.2 1.6 3.3 1.6-.3 3.1-.7 4.7-.8 2.5.3 4.7 1.7 7 2.7-.3-1.1-.6-2.2-1-3.3-2-1.1-4-2.2-5.9-3.4 1.1-1.9 1.9-4 3.4-5.5 2.7-1.7 6.1-1.3 9-2.7 1.1-1.5-1.2-2.3-2-3.2-1.4.2-2.9.4-4.3.5-1.7-4.2-4.3-8.2-4.7-12.9-.4-3.6-.1-7.7 2.4-10.4 2.3-1.5 5.3-.6 7.9-1.2 1.8-1.1-.3-3.2-.6-4.6 2.2-2.4 5.6-4.3 8.8-2.7-2.2 1-4.9 1.3-6.3 3.5-1 2.8-.3 6.2 1.3 8.6 3.7 5.6 9.2 9.6 14.6 13.5 4.2 3.1 8.4 7.8 7.4 13.4-.8 7.2-6 13.2-12.3 16.3-3 1.8-6.3 3.1-9.9 2.9-2.9 1.8-6.7.6-9.4 2.5.7 4.3 6.1 1.8 8.9 1.8-.3 6-4.8 12.3-11.3 12-.8-5.8-7.8-10.8-13.3-7.7.5.8 1.1 1.6 1.7 2.4 2.5.5 6 1 6.6 4 .4 3.4-2.1 6.4-4.8 8.1l1.2 2.7c3.8.1 5.8-3.6 7.2-6.6 2.5 1.1 4.5 3.2 5.3 5.9 1.8 5.9 1.3 12.8-2.7 17.8-3.9 4.6-9.9 6.9-15.8 7-3.6.1-6.9-1.6-10.3-2.3-.2.1-.7.3-.9.4.2.8.5 1.6.7 2.4 1.4.6 2.9 1.2 4.4 1.7 6.9 2.3 14.7 1.2 20.6-2.9 4.5-3.2 7-8.4 8.1-13.7 1-5.5-.7-11.1-3.5-15.9 6.3-2.2 11.2-9.2 9.3-15.9 8.8-1.6 17.2-7 21.5-15 3.1-5.8 3.3-13.6-1-18.8-3.1-4.3-8.3-6.2-11.9-9.8 5.4-3.2 9.5-8.1 13.6-12.8 6.1-7.5 12.1-15 16.7-23.5 4.9-8.4 8.2-17.5 12.1-26.3 7.7-17.1 11.2-36.3 10.2-55.5zm-231.7 68.5c-.6 2.4-1.7 5.4-4.3 6-.5-.8-.9-1.7-1.3-2.6.8-1.5 1.5-3.2 2.8-4.4 1 .2 1.9.5 2.8 1zm-3-8.6c.7.2 2.2.5 2.9.7-.3 1.3-.5 2.6-.8 3.8-1.1-.3-2.2-.5-3.3-.8.4-1.2.8-2.5 1.2-3.7zm-12.6 26c-2.8-.1-3.7-3.1-4.3-5.4-.5-1.8.6-3.3 2-4.3 2.4-1.8 5-3.5 7.9-4.4-.6 2.7-1.9 5.2-2.2 8 1.2 1.7 2.9 3 4.8 3.9-2.6 1.2-5.3 3.2-8.2 2.2zm25.4-21.1c1.9.6 4 .9 5.8 1.8 0 2.8-1.7 5.3-1.9 8.1-1 4.2-.8 8.4-.5 12.6-4-1.7-8.2-3-12.2-4.5-3.3-1.2-6.2-3.2-9.7-4.1l.8-2.8c1.3.9 2.7 2.2 4.4 1.6 4.6-1.2 6.6-6.6 6.1-10.9 1.8.8 3.6 1.4 5.4 2.1.9-1.2 1.5-2.5 1.8-3.9zm-1.9-1.1-.8 1.6c-1.7-1-4.5-1.1-4.6-3.5 1.8.5 3.6 1.2 5.4 1.9zm101.4-33c-1.3 1-2.6 1.9-3.9 2.7-.9-1.1-1.8-2.2-2.6-3.4 2.1 0 4.3.3 6.5.7zm-10.1-1c-.6 1.3-1.4 2.5-2.6 3.3-1-1.2-2.1-2.5-2.3-4.1 1.6.2 3.3.5 4.9.8zm-9.9-.8c-1.1.7-2.2 1.3-3.5 1.7-.2-.9-.3-1.8-.5-2.6 1.4.2 2.7.5 4 .9zm-9.4-1.8c-.8 1-1.6 2.5-3.1 2.2-.9-.9-1.2-2.2-1.7-3.4 1.5.4 3.2.7 4.8 1.2zm-14.1-10c1.7 5.7-1.3 11.3-1.9 17h-1.2c1.7-5.5 1.8-11.3 3.1-17zm-2.1-2.1v1.3c-1.8.4-1.3 2.4-1.6 3.7-.6 4.8-1.3 9.6-2.8 14.2-4 0-7.8 2-10 5.4-1.4 3.7-1.3 7.8.5 11.4.9 3.1 2.4 6 5.1 8-.1.4-.2 1-.2 1.4-2.7.8-5.1-.8-7.4-2-1-5.3-4.5-9.5-8.4-13.1 1.6-8.5 1.8-17.2 4.7-25.4 1-3.1 1.9-6.4 4.2-8.8 5.5-.1 11 1.4 15.9 3.9zM406.3 709.4c-1.2-.9-1.5-2.3-.9-3.6 1.6-.9 3.8-.7 5.1.6 2.7 2.1 3.5 5.5 4.9 8.5-.3.5-.9 1.6-1.2 2.1-2-3.3-5.3-5.1-7.9-7.6zm47.8 13.7c-4 9.3-9.3 18-14.3 26.8-.6.1-1.7.4-2.2.6-1.5-5.8-5.3-11.3-10.9-13.9-4.7-2.1-10.4-2.8-15.1-.1-.9-1.1-1.7-2.3-2.6-3.4 5.2-9.6 9.8-19.5 15.4-28.9 1.5-.5 2.9-1.1 4.5-1.3-.7 1.6-2.6 1.9-3.9 2.8-1.1 1.3-1.6 3-1.8 4.6.3 2.5 3.3 4.8 5.6 3.2-.4-.3-1.3-.9-1.8-1.2-.1-1.1-.1-2.1-.2-3.1 1-.7 2-1.3 3-2 .4.3 1.1.9 1.5 1.2.6 0 1.7.1 2.3.1.2-1.2.5-2.4.7-3.6-1.5-.4-2.8-1.3-2.6-3.1.1-2.3-2.6-2.8-4.3-3.3 1.5-3.4 2.7-7.2 5.3-9.9-.1 2.2-1.8 4-1.8 6.2 2.4 1.7 5.3 2.5 8 3.9 6.4 2.9 11.6 8.3 18.3 10.5 1.5-1.2 2.7-3.1 4.7-3.6-1.5 6.4-5.4 11.6-7.8 17.5zm31.6-14c1.8.3 3.8.5 5 2.1-.7 1-1.4 2.1-2 3.1-1.6-1.4-3.1-3-3-5.2zm-19.1 32.7c-.2-.7-.6-2.2-.8-2.9 1 .8 2 1.5 3 2.3 3.1-2.4-1-4.9-1.3-7.4 1.7-1.1 4-1.9 3.7-4.4-1.4-1.3-2.7-2.7-3.8-4.3 0-1.5 2.4-.6 3.4-1l1.3-1.3c0-.5-.1-1.4-.1-1.9-1.3-1.6-2.4-3.3-3.2-5.2 2 1.6 4.4 2.7 6.2 4.5-1.4 7.9-2.2 16.3.6 24-2.7-1.6-5.8-2.7-9-2.4zm10.2-1.3c-1.1-6-.5-12.2.3-18.2 2.3.9 4.4 2.4 6.6 3.6-2.7 4.6-4.9 9.6-6.9 14.6zm23.8 11.6c-2.8-.9-5.7-.2-8.1 1.5-1.4-2.8-4.2-4.4-7-5.7 3.3-5.5 2.9-12.8 7.8-17.5 2.7 1.8 3.3 5.4 6.2 7 2.4.3 4.8.8 7.3 1.1-2 4.6-3.3 9.5-6.2 13.6zm14.8-37c-1.3 6.8-4.2 13.1-6.8 19.5-.4 0-1.1-.1-1.5-.1-2.3 1.3-4.9.4-6.9-1-1.7-2.2-2.6-5.3-5.5-6.1-3.3-1.4-5.7 2.1-7.2 4.5-1.8 3.7-3.3 7.6-4.1 11.7-.4 1.2 0 2.3.6 3.3-2.2-.3-4.3-.3-6.4.2 3.2-6.3 5.6-12.9 9.1-19.1 2.7-5.8 5.3-11.7 8.1-17.5 1.8-3.9 6.9-5.3 10.8-4 3.9 1.8 7.5 4.9 9.8 8.6zm12.3.7c.7 1.2 1.2 2.5 1 3.8-1.8.2-1.6-2.6-1-3.8zm0-10.2v-10.7c0-2.3-3.1-2.5-4.7-3.1-1.3-3.4-1.4-7.3-.6-10.9.8 3 .7 7 4.3 8.3 1.6-1.9.9-4.7 1.5-6.9.5 1.8.8 3.6 1.2 5.4 1.1.4 2.2 1.3 3.4 1.1 1-.9 1.2-2.3 1.7-3.5.1 2.2 1 4.5.1 6.6-1.1-.1-2.2-.1-3.3-.1-.8 4-.4 8.1-.9 12.1.1 1.6-1.6 1.4-2.7 1.7zm6.7-8.7c-1.3-.2-.8-2.3.4-2.2 1.4.1.9 2.4-.4 2.2zm16.2-16.9c-.7 2.2-2.7 3.5-4.5 4.7 1.1-1.9 2-4.5 4.5-4.7zm114.7-148.7c5.4-.5 10 2.8 14 6 2.6 2.4 2.9 6.2 2.4 9.4-.8 3.4-2.6 6.5-4.7 9.3-2.7-7.3-7.3-13.8-13.3-18.7.5-2 1.1-4 1.6-6zm-11.6-13.8c1.5-.1 3.1.3 4.1 1.4 3.6 4 4.6 10.1 2.6 15-2.8-1.8-5.5-3.9-8.5-5.5.4-3.6 1-7.3 1.8-10.9zm-36.6 2.9c-.7-4.8 2.2-9.2 3-13.9 1.8 1.1 3.3 2.6 4.6 4.2-.5 1.2-1.1 2.4-1.6 3.7-1.2-.2-2.4-.5-3.6-.7.6 1.2 1.3 2.4 1.7 3.8-.6 1.6-1.4 3.2-2.2 4.7 2.3.6 3.4-1.6 4.2-3.4 1.2.3 2.4.8 3 2.1.8-.1 2 .2 2.2-1 1-2.1 2-4.2 3.7-5.8.4-2.5 2.1-4.5 2.6-6.9-.8-.3-1.5-.6-2.3-.8-.9 1.3-1 4.4-3.1 4.2-2.4-1.3.7-3.8-.4-5.9-1.4.6-2.1 2.1-3 3.3-1.9-.7-3.9-1-5.7-2 1.2-3.8 2-7.6 2.7-11.5 5.8 3.7 11.5 7.6 17.3 11.1-2.6 5.6-5 11.2-7.5 16.8-6 .4-12.6 1.2-17.4 5.2-.2-.1-.7-.3-.9-.4-.4-2.3.3-5.7 2.7-6.8zm7.8-4.5c.5-1.4 1.1-2.6 1.8-3.9.8.6 1.6 1.1 2.4 1.7l-1.8 3.6c-.9-.4-1.7-.9-2.4-1.4zm-45.3-40.4c5.4 1 10.9 1.6 16 3.8 5 1.6 9.4 4.4 14 6.6 3.3 1.6 5.7 4.5 8.3 7h1.6c-1.7 7.8-3.6 15.6-6.4 23.2-2.2-7.3-5.3-14.2-8.2-21.2 4.2.1 8.3 1 12.5.7 2.2-.4.5-1.8.1-2.7-4.5-.1-9-.6-13.4-.8-3-2.3-3.7-6.9-7.2-8.3.7 2.8 2.8 5.1 2.9 8-5.3-1-10.6.2-15.8.5-3-2.7-4.1-7.7-8.1-9.1 1.6 3.3 3.6 6.4 5.4 9.6-4 1.7-8.5 1.9-12.6 3.4-1.7.5-3.6 1.8-5.3.8-1.5-2-2.9-4.2-4.9-5.7 1.6-5.5 4.1-10.6 6.1-15.9 4.7-2.2 9.9-.3 15 .1zm-8.4-4.7c2.7 0 5.4.3 8 .8 0 .2 0 .5-.1.7-2.7-.2-5.3-.7-7.9-1.5zm41.7 45.7c-.1.4-.3 1.2-.4 1.7-5.4.3-10.8.2-16.1.6-3-6.6-5.3-13.5-9-19.8-.7-1.2-1.3-2.5-1.7-3.8 5.2-1.1 10.5-1.2 15.7-.7 3.3 6.4 5 13.5 7.8 20.1.5 1.4 2.1 2.2 3.7 1.9zM583.3 496c1.8 4.5 4.9 8.4 5.7 13.2 1.1 3.2 2.5 6.3 3.3 9.6-6 1-12 1.9-18 2.9-.6-2.2-1.3-4.5-2.8-6.3-.9-.8 0-2.2-.8-3.1-.2-.3-.7-.9-.9-1.2-.4-1.3-.8-2.5-1.2-3.8-1.2-2.1-2.4-4.3-3.6-6.5 5.9-2.5 12.1-4 18.3-4.8zm10.2 25.8c1.5 4.2 3.1 8.3 3.9 12.7-4.8.7-9.8 1-14.3 3.1-1.6-.5-3.2-1-4.8-1.4-.6-1.8-1.2-3.7-1.8-5.5-.6-2-1-4.1-1.3-6.1 6-.9 12.1-2.9 18.3-2.8zm3.3-.5c4.9-.2 9.8 0 14.6 0-.5 2.6-2.6 5.4-1.2 8 .8-.1 1.8-.3 2.6-.3-2.1 2-4.2 3.9-6.3 5.8.1-.9.3-1.9.4-2.8-2.1.5-4.1 1.1-6.1 1.7-1.3-4-2.5-8.2-4-12.4zm21-34.1c1-.3 2.3.7 2.4 1.8-.7 1.6-3.3-.6-2.4-1.8zm4.2-22.6c-1.4 0-2.8.1-4.2.1-1.5-3.8-2.8-7.6-4.8-11.2 2.5.1 5.1.3 7.6.5.7 3.5 1.3 7 1.4 10.6zm-13.4-11.8c2.1 1.2 2.4 3.5 3.2 5.6.7 2.1 1.4 4.2 2 6.3-2.8 0-5.6.1-8.3.4-1.2-4-3.5-7.5-4.8-11.4 2.6.2 6.1-1.3 8.1.8l-.2-1.7zm-5-22.2c1.7-1.5 3.9-1.9 6-2.7 3.4 2.8 5.7 6.8 6.4 11.1-4.1-.2-8.2.2-12.3.2-2.8.4-6 .4-8.2 2.2l.4.7c7.3-.3 14.6-.9 21.9-.2 1 2.8 2.1 5.6 2.1 8.7-2.6-.1-5.2-.1-7.8.2-1.6-1.9-3.1-3.9-4.4-6-.3.6-.5 1.2-.8 1.7.4 1.4.7 2.8 1.1 4.3-2.6.1-5.1.3-7.7.4-2.1-2.8-3.7-6.3-6.6-8.4.6 3 1.5 6 2.8 8.9-1.8.5-3.5 1.1-5.1 2.1 2.1.3 4.1.4 6.2.1 1.4 3.6 2.7 7.2 3.9 10.8.6 1.2-.8 2-1.4 2.8 3.3-.5 3 3.7 5.4 4.7 2.6-.2.9-3.4.8-5l8.7.3c1.4 2.4 1.6 6.3 5 6.6-.1-2.2-.9-4.3-1.5-6.4h3.4c.5 5.5-.3 11.1-1.2 16.6-8.9-6.2-18.7-11.3-29.3-13.7-7.2-1.9-14.5-4.5-22-3.9 6-10.9 14-20.8 23.8-28.6 3.4-2.6 7.2-4.6 10.4-7.5zm-25.1-88.3c-.2 2-.5 4-1 5.9-.9-1.5-1.6-3.1-2.3-4.7l3.3-1.2zm-9.3-16.7c.7 1.8-.2 3.6-.4 5.4-1.2-1.5-2.3-3.2-3.1-5 1.2-.1 2.3-.6 3.5-.4zm-12.5-21.1c.6 3 0 6-.2 9-1.9-2-4.1-3.6-6.4-5 2-1.4 3.8-4.6 6.6-4zm-23.3-9.6c1.2 2.8 1.6 6.1 1.2 9.1-1.8.1-3.5 0-5.3 0 1.2-3.1 2.3-6.2 4.1-9.1zm-23.8 4.2c1.1 2.5 2.4 4.8 4.1 6.9-2.1.3-4.1.7-6.2 1.2.4-2.8.2-5.9 2.1-8.1zm-20.3 5.2c2.5 2.6 3.4 6.2 5.2 9.3-2.7 1.6-5.2 3.6-7.7 5.5 0-4.9-1-10.8 2.5-14.8zm.8 95.6c-1 .8-2.2 1.9-3.6 1.1-1.3-1.1-2-2.6-2.8-4 2.4.2 4.8.5 7.1.8-.2.6-.6 1.6-.7 2.1zm9.9 0c-1.1 1.2-2.8.7-4.2.5-.4-.7-.8-1.3-1.2-2 0-.2.1-.6.1-.8 2.5-.1 4.9-.5 7.3-1.1-.6 1.1-1.2 2.4-2 3.4zm-5.3 31.4c-5.6 0-10.9-2-16-3.8-3-1.1-5.8.9-8.2 2.5-1.8 1.2-3.1 3.6-5.6 3.4 1.4-2.7 4.2-4.7 4.5-7.9-3.5-1.2-6.9.9-10.4 1.2 1.3-2.1 4.1-3.8 3.6-6.6-3.8-1.2-7.5.4-11 1.4.6-3.6 4.2-5.1 7-6.9 3.8-1.8 8-3.5 12.3-2.5 6.6 1.1 11.6 6 17.7 8.3 5.1 1.4 10.7 2.5 15.7.3-.5 3.4-.9 6.7-1.6 10.1-2.8-.4-5.4.5-8 .5zm11.2-29.1c1.3.3 2.7.8 4.1.7 2.8-1.2 4.7-3.7 6.1-6.3 1.7 1.1 3.9 2.3 6 1.3 2.7-1 3.8-3.9 5-6.3 1.9 1.3 4.2 1.5 6.4 1.3 1.5-2.3 2.7-4.8 3.6-7.4 2 .4 4.3 1.2 6.1-.2 2.3-2.6 2.6-6.6 1.3-9.7.1-.5.4-1.4.6-1.9-.7-.4-1.3-.8-2-1.2-11.7 7.5-22.8 17.2-36.9 19.7-5.7 1.5-11.5 1.9-17.4 2.2h-.3c-2.3 2.1-5.3.7-7.4-.8-4-1.3-8.4-2.2-11.6-5.1-2.1-2.1-4-4.3-5.4-6.9-2.5-4.3-1.8-9.5-1.3-14.3 2.3-15.5 10.8-29.3 21.2-40.7 12.2-12.9 30-20.3 47.7-20 5-.3 10 .8 14.7 2.6 2.2.8 3.5 2.7 5.2 4.2 3.5 3.2 6.1 7.1 8.8 11 4.2 6.4 8.6 12.7 11.6 19.8 9.5 20.3 14.7 42.4 18.2 64.5 1.6 8.3 2.3 16.8 3 25.3-6.5 4.5-12 10.3-17.1 16.3-4.1 5.8-8.1 11.7-12 17.7-2.2 3.9-3.7 8.1-5.3 12.2.1-2.7.4-5.3 1.1-7.9 1-3.8.8-7.8 1.4-11.7.4-5.1 1.4-10.1 1.7-15.1-5.4-.8-10.9-.5-16.3-1.6-1.8-.4-3.6-.1-5.3.4-5.5 1.5-11.3 1.7-16.8 3.3-2.2.7-4.5.9-6.8 1.1-1.4-2.3-2.9-4.4-4.8-6.3 3.2-4.3 6.8-8.4 8.8-13.4 1.2-2.5-2.1-4.1-4.1-3.8-4.6 2.2-8.5 5.7-12.1 9.3.6-4.9 1.7-9.6 1.9-14.5.6-5.9 0-12-1.6-17.8zm-.2-6.4c2.5-.7 4.9-1.3 7.5-1.8-.9 2.6-2.2 5.4-5 6.4-.9-1.5-1.8-3.1-2.5-4.6zm11.3-3c2.2-1.3 4.4-2.6 6.9-3.2-.5 2.3-1.2 5.5-4 5.9-1.2-.6-2-1.8-2.9-2.7zm10.5-5.5c1.9-1.8 4.3-3 6.6-4.4-.4 2.7-1.2 5.3-2.7 7.5-1.6-.6-3.1-1.5-3.9-3.1zm10.2-6.8c1.4-1.6 3.1-2.8 4.7-4.1.3 2.7-.1 6.3-3.4 6.8-.5-.8-.9-1.7-1.3-2.7zm-83.2 62.2c2.2 1.5 4.5 3.9 4 6.8-1.5-2-3.2-4.2-4-6.8zm68.5 91.4c-1.6.2-3.5 1.1-4.9 0-5.5-4.9-12.5-9.4-20.2-8.7-4.2.5-8.3 2.1-11.9 4.4-4.9 3.5-5.8 9.8-7.5 15.1-1.8-1.2-3.9-1.5-6-1.1.8-6 .9-12.2.4-18.2-.3-3.6-3.4-5.9-6.3-7.5-3.5-1.6-7.5-1.9-11.3-1.8.8-9.6 1.6-19.3 2-28.9 2.4.6 4.2-1.4 5.5-3-.2-.5-.5-1.5-.7-1.9-1.6.5-3.1 1.5-4.4 2.6.4-5.8.3-11.6.3-17.4.2-5.4 1.1-10.7 1.1-16.2 5.3-1.4 10.3-3.4 15.6-4.7 8-2.4 16.4-3.2 24.6-5.1 2.2-.6 5.1.5 6.7-1.6 3.8-4 7.1-8.9 12.4-11.1-2.4 5.2-7.3 9-8.5 14.7 3.3 3.4 5.4 7.8 7.2 12.1 7.4 18.7 8.6 39.1 8.1 58.9-.3 6.4-.6 13-2.2 19.4zm5.2-16.3c.2-4.1.4-8.3.4-12.4 1.1-.3 2.1-.7 3.2-1 .1-.5.2-1.3.3-1.8-1.2 0-2.3.1-3.4.3-.3-3.1-.4-6.2-.6-9.4 2.6-.1 5.3.3 7.7-.7.3-1.1-1-1.9-1.9-1.6-1.9.2-3.8.6-5.7 1-1-9.6-2.4-19.2-4.9-28.5-.9-4.1-2.8-7.9-3.4-12.1 3.7.1 7.1-1.6 10.7-2.1 3.6-.5 7.2-1.2 10.8-1.6.5 5.5-.7 11.1-1.1 16.6-1.5 17.6-4.2 34.9-6.8 52.4-1.9.2-3.6.6-5.3.9zm19.7-7c-1.6 3.6-2.3 7.5-3.6 11.2-2.4-2.1-5-4.1-8-5.2.8-8 2.9-15.8 3.2-23.8.5-.4 1-.7 1.6-1.1 1.6 1.7 4.3 2.2 5.5-.2-2.1-1.4-4.5-1.2-6.8-.6 1.1-4 1-8.1 1.6-12.2 1.2-6.5.8-13.2 2-19.7.9-4.3.4-8.7 1-13 5.5.9 11.1 1.6 16.7 1.8-1.1 7.7-1.8 15.5-2.7 23.3-1.8 7.4-1.4 15.3-4.6 22.3-2.5 5.5-3.5 11.6-5.9 17.2zm8.6 17.8c-2.1 1.1-4 2.7-6.2 3.6-1.6-.1-2.7-1.5-4-2.4-.3-4.9 2-9.4 3.2-14.1 3.4-8 4.9-16.6 8.7-24.4 1.1 2.5 2.6 4.9 3.6 7.5-1.9 1.5-4.9 1.5-5.7 4.1.5.3 1.4.8 1.9 1.1 1.8-.8 3.6-1.9 5.6-2.2 3.9 6.3 5.5 13.7 7.3 20.8-4.7 2.4-9.7 3.7-14.4 6zm13.7 9.7c-1.6-3-3.9-5.6-7-7-.8-.4-1.5-.9-2.3-1.3 3.6-1.3 7.1-3.2 10.8-4.2 1.1 2.2 1.6 4.6 2.4 6.9l1.5 3.9c-1.8.5-3.6 1.1-5.4 1.7zm11.5 13.2c-1.4-2.3-4.1-2.5-6.5-2.5-.9-1.8-2.2-3.3-4.1-4.1.3-1.1.5-2.1.8-3.2 2.3-1.2 4.8-1.8 7.3-2 .4.7.9 1.3 1.3 2 .9-.2 1.7-.3 2.6-.4 2 2.3 3.8 5 6.4 6.8.4-.2 1.1-.6 1.4-.8-1.2-2.9-3.2-5.3-5.1-7.8 3.9-1 7.9-1.6 11.8-2.1 1.1.1 2.1.5 3.1 1 .5-.6 1-1.3 1.6-1.9l3.6-.9c-8.4 9-14.5 19.8-22.4 29.1-.2-4.4.8-9.2-1.8-13.2zm77.9 89.4c-2.7 6.1-6.2 11.8-9.8 17.4-6.7 9.3-14.1 18.4-22.8 26l.3 3c-3.2-2.6-6.6-5.7-7.6-9.9-.7-2.7 2.5-4 4.7-4.1 2.4.1 3.8 2.1 5.5 3.5.7 1.1 1.9.2 2.4-.5-1.7-6.7-8.6-12-15.6-10.4-3.6.5-6.1 3.8-6.3 7.3-2 .3-4 .9-5.8 1.9-1.5-3.4-4-6.3-7.3-8.1-.5-3.1-1.1-6.3-3.2-8.7-2.6-2.7-6.1-4.5-9.8-5.1.1-.5.3-1.4.4-1.9 3-12.1 4.5-24.5 6.5-36.7 1.4-10.9 1.4-21.9 1.5-32.8.1-5.5-3.1-10.1-6.2-14.2 6.2-7.4 11.8-15.4 17.5-23.2 4.6-5.4 9.7-10.3 15.5-14.3-1.1 2.4-.7 4.9.3 7.2-4.6 1.7-8.6 5.1-11 9.4-.7 3.5 2.3 6.4 4.9 8.2 4.4 2.1 8.6 4.9 13.6 5.6.5-.4 1.4-1.3 1.9-1.7-.7-.9-1.5-1.9-2.7-1.9-4-.7-7.4-2.8-10.9-4.6-1.4-.9-3.7-1.9-3-4 .8-3.6 4.7-5.4 7.6-7.1 1.5 1.5 3.2 3.8 5.7 3.3 1.3-1.2 1.8-3 2.7-4.6-.9-1.2-2-2.3-3.2-3.2.6-.7 1.1-1.3 1.7-2-1.6-.7-3.3-.8-4.9-.9.3-.8 1-2.4 1.3-3.2-.4-.4-1.3-1.1-1.7-1.4 5.5-1.7 11.4-2.9 17-1.3 8.9 1.8 16.4 7.3 22.6 13.7 9.1 8.2 15.1 20.1 15.2 32.4.5 8-.7 16-1.8 24-2.6 14.8-9 28.9-15.2 42.9z"/><path d="M559.5 531.6c.6 0 1.2-.1 1.8-.1-.6 0-1.2 0-1.8.1zM486.8 373.3c-1.1.7-2.1 1.6-3.1 2.4.7 1.1 1.2 3.3 3 2.6 1.9-.4 2.8-2.2 1.9-3.9-.4-.3-1.3-.9-1.8-1.1zM570.7 399v3c2.1 1.5 4.3 4 7.1 2.6.9-3.3 1.6-7.7-1.2-10.3-1.5 1.8-.6 4.6-1 6.8-1.5-1-3.1-1.8-4.9-2.1zM561.7 411.1c3.1.4 5.2-5.6 1.4-6l-1.2 3c-1.9-1.3-3.6-3.2-5.8-4l.3 3.6c1.4 1.5 2.9 3.8 5.3 3.4zM524.4 417.1c1.8.9 3.6-.6 5.3-.9-1 1.4-2.1 2.7-3.4 3.9-.6 1.3-1.7 2.8-.6 4.2 2.1 1.2 4.5 1.6 6.6.2-1.4 2.5-2.5 5.3-2 8.3 1.4.2 2.9 1 4.4.6 3-.6 4.6-3.7 7.5-4.7 3.5 2.9 7.2 5.6 11.3 7.5 4.6 1.7 9.7.5 14.1-1.1 1.7-.5 1.2-2.4-.4-2.6-4.2-.6-8.3 2.6-12.3.8-4.9-1.4-8.3-5.5-13.1-7.1-3.6 0-5.3 3.9-8.6 4.8.4-2.9 2-5.4 3.3-8 .3-1.7-1.7-2-2.8-2.8-1.8 1.1-3.5 2.3-5.5 3.1 1.6-2.4 3.6-4.4 5-7-.3-2.5-3-2.3-4.8-2.8-1 .5-1.9.9-2.9 1.4 1-3.6 5.3-4.4 8.3-5.7 5-2.3 11.7-.6 14.4 4.3 2.1 3.7 4.9 7.1 8.6 9.2 4.1 1.6 8-1.1 11.2-3.4l-.6-1.2c-.4.2-1.1.7-1.5.9l.1-1.9c-2.8 1.2-5.5 3.3-8.7 2.8-3.8-1.4-4.9-5.6-7-8.6-3.6-5.3-10.9-7.7-16.9-5.7-3.9 1.3-8.3 2.5-10.7 6.2-1.2 1.6-.2 4.2 1.7 5.3zM558.3 452.6c-1.9-.3-3.8-.4-5.6.1.9.9 1.8 1.7 2.8 2.5 1.5-.1 2.4-1.1 2.8-2.6zM551 452.9c-1.9-1.1-3.9-.1-5.7.5 1.2.1 2.4.6 3.1 1.7.8-.8 1.7-1.5 2.6-2.2zM551.5 484c.1-.5.3-1.5.3-2-1.3-.4-2.6-.4-3.9 0 .8 1.3 2 2 3.6 2zM493.4 787.6c.6 3.5-2.9 5-5.4 6.3-6.3 3.1-14.3 4.9-20.6.8-5-4-10.7-8.6-11.4-15.3l-2.4-.4c-1.4 3.1.5 6.1 1.6 9-3.8 2.1-8.5 4.5-12.7 2.4-4-1.6-6.7-5.3-8.2-9.3-1-.3-2-.7-3-.9-1.1 1.4-.1 3.1.1 4.6-2.7 1.2-5.7 1-8.5.2-.9 1.3-.5 2.6.3 3.9 3.5.7 7.1.3 10.4-1 2.7 3 5.7 6.1 9.9 6.6 5.1.9 9.8-1.5 14.2-3.7 3.6 3.2 6.9 7.1 11.6 8.6 5.4 2.2 11.5 1 16.8-1 3.8-1.2 7.6-2.8 10.1-6 .3-1.2.5-2.4.7-3.7-1.2-.4-2.4-.8-3.5-1.1zM550.4 461.7c1.1 1 2.4 1.8 3.9 2.1 0-1 1.2-3-.5-2.7-2.9.2-5.4-2.4-8.3-1.3.9 1.7 2.9 3.5 4.9 1.9zM530.8 483.7c.6-2.9 0-6.2 1.4-8.8 1.9-.5 3.9-.6 5.8-1.3-1.6-1.9-4-.4-6-.2.3-2.9.5-5.8 1.2-8.7 1.9-.5 5.6.7 6-2-2 .1-4.1.4-6.1.5 0-1.6.4-3.2-.4-4.7-.4 1.7-.6 3.3-.9 5-1.8.2-3.7.3-5.5.5 1.7.2 3.4.4 5.1.8 0 3 0 6-.7 9-.5.2-1.5.7-1.9 1 3.1.7 1.1 4.4 2 6.6-.2.9-.3 1.9-.5 2.8-.4.1-1.3.2-1.8.2-.3 1.7 1.5 1.1 2.6 1.2 1.8-.3 4-.1 5.4-1.4-.8-2.5-4.1-.4-5.7-.5zM500.9 465.9c3.4.5 3.7-4 4.4-6.4-.6-.6-1.3-1.2-1.9-1.9-1 1.2-1.5 2.7-2.1 4.2-.9-1.6-1.8-3.1-2.8-4.6-.7 1.1-1.4 2.1-2.1 3.2.7 2.4 2 4.8 4.5 5.5zM548.8 469.8c-1.4-.1-2.8-.2-4.2 0 1 .9 2 1.7 3.1 2.5.4-.9.7-1.7 1.1-2.5zM550.3 471.7c.8.8 1.5 1.6 2.3 2.5 1.5-.1 2.7-.9 3.4-2.3-1.9-.8-3.8-.6-5.7-.2zM467 479.4c2.9 2.4 6.8 1.3 10.1.8 4-.8 8.3-1.1 11.9-3.1-.6-.8-1.2-1.7-1.8-2.4-5.7 1.9-11.7 3.1-17.7 2.5 0-2.5-.1-5 .5-7.4.6-1.4 2.3-1.5 3.4-2.2.7-1.1 1.1-2.3 1.6-3.5-1-.7-1.9-1.5-3-1.9-1.5.1-2.9.4-4.3.6l-1.8 3c-1-.7-1.6-1.6-1.9-2.7-.6-.6-1.3-1.1-1.9-1.7-.3 1.2-.7 2.4-1 3.6.7 1.8 1.9 3.3 3.7 4.1.8-.2 1.7-.5 2.5-.7-.9 3.4-1.1 7.2-.3 11zM514.7 475c-1.5-1.1-3.9-2.8-5.7-1.7-1.4 1.8 1.8 2.9 3.2 3.5 1.2 1.1 4.1-.1 2.5-1.8zM506.7 480.4c1.5 1.4 3.3 2.9 5.5 2.9.3-.5.8-1.5 1-1.9-1.6-1.1-3.2-2.3-4.9-3.2-1.2 0-3 .8-1.6 2.2zM545.3 495.4c1.1 1 2.2 2.9 4 2.3 1.3 0 1.6-1.3 1.9-2.2-1.8-1.2-3.9-.8-5.9-.1zM505.8 495.4c-2.1 1.3-4.7 3.3-7.2 1.8-4.8-2.1-9.3-6.5-14.9-5.4-7.1.5-13.6 3.9-19.2 8.2-1.9 1.5-2.3 4-2.8 6.2 2.6 2.1 5.9 2.8 9 1.4.1.9.3 1.8.5 2.7 1.4 1.7 3.2 3.1 5.4 3.5 2.8.1 5.6-1.2 8.4-.6 4.5.8 9.2 1.1 13.6-.4 1.7-.6 3.7-1.1 4.2-3.1-1-.3-2-.6-3-.8-5.2 2.6-11.3 2.8-16.8 1.5-3.1-.6-6.3 1.6-9.3.1-1.3-1.7-1.7-3.9-3.2-5.4-2 .5-4 .8-6 .5 1-2.2 3-3.5 4.8-4.8 5.1-3.4 11.2-5.4 17.4-5.5 3.8 2 7.5 4.4 11.5 6.2 3.8.6 7.7-1.3 10.4-4 .7-.8 2-1.7 1.2-2.9-1.2-1.2-2.8.2-4 .8zM464 487.4c-.9.3-1.7.7-2.6 1l-1.8 2.1c1.1.3 2.3.7 3.4 1 1.3-1.2 2.4-2.5 1-4.1zM660.4 561.3c0-.7.1-2.1.2-2.8-.6-.2-1.9-.5-2.6-.7-1.1 1.9-3 3.2-5 4.1-1.3-1.5-.7-3 .7-4.1 0-.5.1-1.4.1-1.9-2.6-1.2-5.3 1.2-5.5 3.8-.5 1.8.9 3.3 1.7 4.8 3.7 1.2 7.7-.3 10.4-3.2zM463 531.7c2 .5 3.3-1.4 4.3-2.8-.4-.9-.8-1.8-1.3-2.6-.4.6-1.3 1.7-1.7 2.3-1-1.1-1.9-2.1-2.9-3.2-.3.5-1 1.6-1.4 2.1.6 1.5 1 4 3 4.2zM453.3 529.5c-.1-.7-.3-2-.5-2.7-.9.5-1.7 1-2.6 1.5-1.1-.1-2.7-2-3.2-.2.3 3.3 4.4 3.3 6.3 1.4zM457 539.4c1.3-1.5 2.8-3.3 3.2-5.3-1.3-2.3-2.9-4.4-5.1-5.8-1.3 3.2-4.4 6.2-3.7 9.9-.6.8-1.2 1.5-1.8 2.2 1.9 2.7 5.5.9 7.4-1zm-1.2-7.1c2.6 1.7-.5 4-2.1 5 .6-1.7 1.3-3.3 2.1-5zM627.9 631.7c-1-4.9 1.9-9.3 3-13.9.6-4-2-7.5-4.6-10.1 1.3-2.1 2.9-4.1 3.5-6.6-1-.7-2.1-1.5-3.1-2.1.9-1.6 1.8-3.1 2.6-4.7 2-.5 4.1-.9 6-1.9 6.6-4.1 7.9-15.8.3-19.6-4.8-3.5-10.9-1.8-16.2-.8-3.3 1.4-6.8 3.9-7.2 7.8-1 3.3.5 6.8 2.7 9.2 2.4 1.6 4.7 3.4 7.4 4.7-.5 1.1-.9 2.3-1.4 3.5-1.6-.3-3.1-1.1-4.7-.9-1.5 1.6-2.1 3.8-3.4 5.5-.9 1.5-2.7 2.8-1.9 4.8-2.6 1.2-5.1 2.7-6.8 5.1-.5 3.5-1.9 7-1.6 10.6-1.6 2.3-4.9 4.7-3.5 7.8.9 2.6 3.6 3.4 5.9 4.4-1.1 6.1.6 12.7 4.8 17.4.6 1 2.7 1.8 3.1.3-.2-2-1.7-3.4-2.5-5.1-1.5-2.5-2.1-5.3-2.5-8.1-.5-4.3 1.3-8.4 2.2-12.5-3.2-2.9-6.7-7.9-4-12.1 2.6-3.1 6.4-5.6 10.6-5.7 5-.9 11 2.4 11.5 7.7-1.2 5.7-4.7 11.6-2.4 17.5 2.5 4.3 6.9 7.3 11.5 9.1.2-.5.5-1.6.6-2.1-3.3-3-8.6-4.4-9.9-9.2zm-23.4-6.3 2.2 2.2c-.4 1.3-.8 2.7-1.2 4-1.4-.6-2.7-1.5-3.7-2.7.9-1.2 1.7-2.3 2.7-3.5zm11.4-41.2c-1.5-2.9.7-5.9 2.8-8 .6.1 1.7.2 2.3.3 2.5-1.2 5.1-2.7 8-2.6 2.9.3 6.1 1.3 7.8 3.9 1.5 3.7-.3 7.6-3 10.1-2.5 1.9-5.6 2.6-8.6 2.7-4-.5-6.9-3.5-9.3-6.4zm7.5 21.9c-3-.3-5.9-.3-8.9-.4 1.2-2 2.3-4 3.3-6 2.6 1 5.2 1.8 7.8 2.7-.6 1.3-1.4 2.5-2.2 3.7z"/><path d="M627.6 583.3c1.4-1-.1-2.1-.8-2.9-.9.1-1.7.3-2.6.5-.2 1.9 1.7 4 3.4 2.4zM569.3 589.1c.6 1.1 1.8 1.2 3 1 1.1-3.3 2.8-6.9 1.3-10.3-1.7-3-5.1-5.5-8.7-4.9-5.3.5-9.3 6.8-7.3 11.8 2.4-1.9 4-5 6.6-6.8 2.3-.8 5.4 0 6.6 2.2 0 2.4-1.6 4.6-1.5 7zM514 577.2c2.2-.8 2.6-3.3 3.2-5.3.5-4.9-8.2-6.8-9.6-2 0 1.2-.7 3.5 1.2 3.4 1.7-1.1 3.1-3 5.4-2.6.1 2.2-3.3 5.5-.2 6.5zM520.6 575.5c-1.5.9-.6 2.6-.5 3.9 2.4 1.4 4.7 3.7 7.7 3.3 2-.2 3.4-1.7 5-2.8-.3-1.2-.3-2.8-1.7-3.2-3.1-1.9-7-1.7-10.5-1.2zm7.2 4c-1.2 1.4-4.5-1-1.9-1.6.8-.1 2.9.5 1.9 1.6zM494 588.7c1 .8 2.2 1.5 3.5 1.8.5-1 1-2.1 1.6-3.1-.7-1.3-1.4-2.7-2.1-4-2.7.4-3.2 3-3 5.3zM530.7 609.6c6.4 2.6 13.3 4.4 20.2 4.1 1.2-.3 2.9.1 3.5-1.2 1.3-1-.4-2-.7-2.9-10.1 2.1-19.7-2.2-29-5.5.1.5.3 1.4.4 1.9-.3.1-1 .4-1.3.6 2 1.6 4.6 2 6.9 3zM460 619.2c-.2 1.2-.2 2.6 1 3.3 1.8 0 3.8-.2 5.2 1.4 1.2-.8 1.8-2.2 1.1-3.5-2.1-1.7-4.9-1.7-7.3-1.2zM472.5 628c1.6.9 2-1.1 2.7-2.1-1.7-.9-3.4-2.1-5.4-1.9-1.6 1.7 1.1 3.7 2.7 4zM482.1 626.3c-1.6 0-4.2-.1-4.2 2.1.8 1.8 3 2 4.7 1.6.6 1.2 1.2 2.5 1.8 3.7.4-.1 1.3-.4 1.8-.5.6-2.9-1.1-6.4-4.1-6.9zM588.4 781.2c-.8-.2-1.7-.3-2.5-.4l-.7.9c.2 4.8 1.2 9.4 1.2 14.2-.1 11.4-.6 23-4.9 33.7-2.9 7.8-10.6 14.2-19.2 14.2-7.3.2-15.5-.4-21.2-5.3-3-4.2-.7-9.6.2-14.2 1 1.1 2 2.5 3.5 3.1 1.1 0 2.2-.3 3.4-.4 1.3.9 2.9 1.4 4.5 1.7.8-1.5.9-3.2.8-4.9h-4.1c-.3-1.2-.6-2.3-.9-3.5-1.2 1.2-2.1 2.6-3.1 4.1-.3-1.3-.6-2.6-1-3.9-.8.2-1.6.3-2.4.5.3-3.2.5-6.3.3-9.5-.3-5.1 0-10.3-.9-15.5-.7-.7-1.4-1.4-2.2-2-1.4.5-2.4 1.5-2.5 3.1-4.4 2.9-10.3 2.2-14.4 5.8-1.7 1.2-1 3.4-.8 5.1 5 3 11.5 2.9 16.5-.2.4 6.7-.4 13.4-1.9 19.8-1.4 5-.4 11 3.8 14.4 3.5 3.3 8.4 4.3 12.9 5.2 5.1.8 10.5.7 15.6-.3 4.7-1 8.4-4.1 11.9-7.1 1.8-2 3.3-4.2 4.3-6.7 4.3-10.1 5.3-21.3 5.5-32.2.4-6.7-.6-13.2-1.7-19.7zM524.2 806c3.6-3.5 9.1-3 13.4-5.1 0 1 .1 2 .1 3-4.1 2.3-8.9 4.6-13.5 2.1zM455 647.1c2.3-.5 2.8-3.2 4.1-4.9-.2-1-.4-2-.5-3-2.1-.5-4.3.1-5.2 2.1-1.6 2-.5 4.9 1.6 5.8zM564.6 691.5c2-1.4 3.9-3.6 6.6-3.1-.2 2.1-.8 4.2-.8 6.4.9.6 1.9 1.1 2.9 1.6.8-3.1 1.9-6.5.9-9.7-3.8-3.7-10-1.3-12.2 2.9.5.9 1.3 2.4 2.6 1.9zM502.9 716.4c-.3-1.1-.5-2.3-.8-3.4-.9-.3-1.8-.6-2.8-.7-1 2.3-.6 4.6.3 6.9 1.8.8 4.2 1.7 5.8 0 1.3-.8 1.3-2.4 1.6-3.7-1.6-.4-3.3-1-4.1.9zM444 707.5c-2.9-1.2-4.5 2-5.6 4.1.5.4 1.6 1.3 2.2 1.8.3-.4.9-1.2 1.2-1.5l1.8 1.2c.1.4.3 1.3.4 1.8h1.7c-.3-2.5.8-5.9-1.7-7.4zM538.4 736.8c-3.6-2.2-7.4.3-10.6 1.9.3 1.2.5 2.7 2.1 2.8 2.3-.6 4.5-2.5 7-1.7 1.8.5 2.5 2.4 3.4 3.9-2.4 1-4.8 2.2-6.1 4.5-2.1-.1-4.3-.6-6.4-.5-1.6 0-1.9 2.2-.5 2.8 2.5 2.2 6.2.7 9 2.2 1.5 1 2 3.1 3.8 3.7 1-1 1-2.3.9-3.6-.2-1.7-3.1-2.6-2.1-4.4 2.8-1.4 6.8-1.4 8.8 1.3 1.4 1.1 2 3.9 4.2 3.3-.1-1.4.1-2.9-.4-4.3-1.7-2.9-4.9-4.2-7.8-5.3-1.2-2.6-2.3-5.6-5.3-6.6zM437.5 730.4c-4.3-2.1-2.3-8.1-5.8-11-1.9-2.2-4.9-3.3-7.8-3-.9.8-1.7 1.8-2.2 3 .1 1.5 1.5 2.8 1.2 4.4-.9 4 1.1 8.3 4.3 10.8 1 .3 1.6 0 1.6-1.1-1.5-2.1-3.5-4-3.8-6.7 2.1-2.5-.6-4.6-.3-7.2 1.5.3 3.1.5 4.1 1.7 3.6 3 2.2 8.8 6 11.6 2 1 4.5 2.3 6.7 1.2.1-2-2.7-2.6-4-3.7zM399.1 732.9c.1-2-.9-4.1-2.7-5-4.5-1.8-9.8-1.5-14 .9.5.8 1 1.5 1.5 2.3 4.9-1.8 11.3-2.3 15.2 1.8zM458.4 759.9c1.7-.5 3.4-1.5 5.2-1.4 1.2.8 2.2 1.8 3.3 2.7 2.9-2.6-.7-5.3-2.9-6.7.2-5.4-4.7-11.2-10.4-10.1-2 0-.9 2-.6 3.1 1.6.3 3.3.1 4.7 1 2.4 1.2 3 4.1 4.4 6.3-1.9.8-3.8 1.4-5.5 2.5.1 1.1 1.2 1.8 1.8 2.6z"/><path d="M533.5 791.9c2.8.9 5.9 2.1 8.8 1 6-2 11.2-5.8 15.5-10.3 4.7 1.1 9.3-.6 12.9-3.5 3.2 1.7 6.5 3 10.1 3.4-.6-1.2-1.3-2.3-2-3.5-3.1-1.3-6.3-2.6-8.8-4.9-.3-1.2-.7-2.4-1-3.5-.5.2-1.6.6-2.1.9-.9 1.8-.3 3.8.3 5.6-2.6 1-5.4 2.4-8.3 1.8-2.5-1.4-4-4-5.8-6.1 1.7-1.4 3.3-3 3.9-5.2-1.1-.6-2.2-1.3-3.1-2.2-1.5 2.6-3.8 4.8-6.7 5.7-1.6-.6-3.3-1.2-5-1.6 1 3.7 4.9 6 8.6 4.8 1.4 2 2.9 3.9 4.3 5.9-3.9 4-8.4 7.5-13.7 9.4-2.2.9-4.7.3-6.9 0 0-2.2 1.4-5-.7-6.6l-1.8-1.8c-.8 5-1.8 11.1-6.7 13.8-4.1 2-8.5-.5-12-2.6 2.2-2.2 7-1.3 7-5.3-1.3-.9-2.9-.1-4.2.2-2.1-1.4-3-3.8-3.7-6.1 1.8-.7 3.5-1.9 4.8-3.3l-.6-2.7c-2.7.2-4.4 2.8-7 3.2-1.9.5-3.5-.9-5.2-1.6.3-1.6 1.3-3.2.6-4.8-.6-.1-1.9-.4-2.5-.6-1 3.1-2.5 6.5-5.6 7.9-1.7 1.1-3.7.2-5.6 0 0 .4-.1 1.2-.1 1.6 1.2 1 2.5 2.1 4.1 2.1 3 .4 5.4-2 7.4-3.9 2 1.7 4.4 2.6 7 3.1.6 2.4 1.5 4.8 2.7 7-3.2 1.3-6.9 2.5-10.2.9-1.9-1.2-3.3-3.1-5.5-3.8.4 1.3.8 2.7 1.4 4 1 1 2.2 1.9 3.3 2.8-.1.6-.4 1.9-.5 2.5l4.2.6c-.1-.8-.3-1.7-.4-2.5 2.1-.1 4.2-.2 6.3-.4 1.3 1.1 2.5 2.2 3.9 3.2 4.1 2.6 9.3 3.5 13.8 1.5 2.5-1.1 3.6-3.9 4.8-6.1zM576.2 799.6c-5.7-.3-11.4 2.4-17.1 1.6-1.4-.6-4.9-1.6-3-3.5 4.3-2.9 10-.9 14.7-2.3 1.9-.5 3-2.2 4.1-3.7-.1-.7-.4-2-.6-2.7-.4 0-1.2 0-1.5.1-1.4 1.1-2.6 3.1-4.6 3.1-4.3 0-8.7-.2-12.7 1.4-2 .7-3.9 2.8-3.5 5.1-.1 3.6 4 5.8 7.2 5.7 6 0 12-1.4 17.9-2.2-.2-.8-.7-2-.9-2.6zM429.2 773.5c1.5.5 1.6-1.6 2.4-2.5-1.3-2.2-2.8-4.2-5-5.5-2.2-.6-4.5-1.2-6.7-1.9-.5.4-1.5 1.1-2 1.4 2 3.4 6.5 2.6 9.4 4.7.8 1.2 1.2 2.6 1.9 3.8zM564.5 812c-3.7-2.1-8.4-3.6-12.5-1.9-2.1.9-4.6 1.6-5.3 4.1 1 .5 1.9 1.8 3.1 1.1 3-1.4 6.1-3.1 9.5-1.9 4 .5 5.6 4.8 9.4 5.6 1.2-3.3-1.9-5.5-4.2-7zM569.7 830.9c1.8-1.8 3.5-4.3 2.7-7-.9.2-1.8.4-2.8.6-.5.9-1 1.9-1.5 2.9-.2-.6-.7-1.7-1-2.2-.6.3-1.7 1-2.2 1.3-.3 1.1-.6 2.1-.8 3.2 1.5 1.1 3.7 2.6 5.6 1.2z"/></g></svg>