<?xml version="1.0" encoding="utf-8"?>
<!-- Generator: Adobe Illustrator 25.3.1, SVG Export Plug-In . SVG Version: 6.00 Build 0)  -->
<svg version="1.1" id="Capa_1" xmlns="http://www.w3.org/2000/svg" xmlns:xlink="http://www.w3.org/1999/xlink" x="0px" y="0px"
	 width="800px" height="600px" viewBox="0 0 800 600" style="enable-background:new 0 0 800 600;" xml:space="preserve">
<style type="text/css">
	.st0{fill:#CDCCCC;}
	.st1{fill:#020203;}
	.st2{fill:#FFFFFF;}
</style>
<ellipse class="st0" cx="500.8" cy="540.5" rx="104.5" ry="25.8"/>
<path class="st1" d="M373.2,504.1c-0.3-0.1-0.6-0.2-0.8-0.1c0.1-0.3,0.2-0.6,0.4-0.8c-0.4-1.3,0.4-2.8,1.3-3.7
	c0.6-2.2,0.6-4.3-1.9-5.6c0.5,3.7-0.5,7.2-3,9.8c-4.1-13.7-5.7-27.5-9.4-41.2c-4.8-16.3-7.8-33.9-9.3-51.7
	c-0.5-5.1-0.9-10.1-4.7-13.9c-1.9-1.3-2.6-3.4-3.6-5.3c-0.8-1.9-1.6-3.7-3.2-5.3l-0.1-0.1c-1.8,0-3.7,0.1-5.4,0.2
	c-0.8,1.9-1.6,3.7-1.9,5.8c-7.2,0.4-14.4,0.1-21.5,1.6c-1.2-2-2.5-3.7-3.7-5.4c-4-0.3-7.8,2.2-8.5,5.8c-0.8,2.5,1,4.5,2.2,6.5
	c-9.5,12.1-16.7,30.1-19.7,46.9c-0.5,2.7-0.9,5.6-1.8,8.4c-1-3.2-0.8-6.6-1.3-10c-3.6-18.8-2.8-37.8-4.3-56.8
	c0.3-8.4-0.5-17-1.2-25.3c-0.4-3.9-0.8-8-0.9-12.1c-0.1-4.5-2.7-9-1.6-13.6c1.2-6.9,1.6-13.7,2.9-20.6c5.6,0.8,11.4,1.2,16-2.1
	c1.2,1.6,4.1,4.5,7.2,2.2c-0.6-1-1.2-2.2-1.6-3c0.5-0.5,1-1.2,1.6-1.8c0.3,1.4,0.8,2.8,1.4,4c0.7-2.9,2.5-6.5,0-9
	c1.2-0.6,2.3-1,3.4-1.6c-0.9-0.7-2-1.2-2.9-2c-1.8,1.6-4,2.1-6.2,2.8c-0.3-1.2-0.7-2.9-0.9-3.9c3.7-1.6,8-1.9,12.1-0.7
	c0.8,3.6,0.9,7.4,3.8,9.8c5.8,6.2,14.9,6.5,19.8,5.9c10.8-1,16.6-9.3,13.9-19.3c0.4-0.4,1-1.2,1.4-1.6c6.9,11,11.3,22.3,15,33.9
	c2,5.4,3.9,11.1,4.7,17c-20.7,9.4-42.2-11.3-58.1-4.4c-6.9,4.5-11.8,11.1-19.1,15.2c-3.6,1.8-7.2,2.6-10.9,4.1
	c0.1,3.9,3.4,6.9,6.5,8.4c3.1,0.6,6.2,0,9.5-0.8c0.7,1.9,0.1,4.5,2.5,5.3c3.4,1.6,6.5-0.5,9.2-2.2c0.4,2.8,0.8,7.4,4.7,7.2
	c3.8,0.7,6.1-2.7,8.7-4.9c0.5,2,0.7,4,2,5.7c1.2,2.3,3.9,1,6.1,1.2c1.4-1.6,2.9-3.4,4.7-5.4c0.8,2.8,2,5.1,3.4,6.9h3.6
	c1.6-2.1,3.2-4.1,5.3-6.9c0.4,2.3,2.2,6.5,5.6,5.4c1.4-1.2,2.6-2.8,3.7-4.3c0.9,1.4,1.3,3.7,3.4,4.3c1.6,0.8,3.7,0.7,4.5-0.8
	c4.8-5.9,6.6-13.4,8.5-20.6c2,5.1,2.6,10.2,3.7,15.5l2.5-1.6c-1.3-6.4-3.1-12.5-4-19.1c0.6,0,1.2,0.1,1.8,0.1
	c-0.2-0.6-0.4-1-0.4-1.6c-0.1-0.5-0.2-0.8-0.2-1.2c-0.6,0-1.2,0-1.7,0.1c-2.2-10.3-5.6-20.2-8.4-27.7c0.2-0.2,0.5-0.4,0.8-0.5
	c-0.4-0.8-0.5-1.6-0.4-2.4c0-0.4,0-0.8,0.1-1c-0.5,0.3-0.8,0.5-1.2,0.8c-2.2-5.4-4.1-11-6.1-16.3c0.3-0.2,0.6-0.2,0.8-0.4
	c-0.8-0.9-1-2.3-0.9-3.7c-0.4,0.2-0.8,0.2-1.2,0.4c-1.8-3.2-3.7-6.2-5.4-9.3c1-0.7,2.2-1.6,3.7-1.6c4.1-0.3,6.7,3.8,9.7,6.3
	c-0.3-3.7-3.6-6.9-6.1-8.4c-3.1-1.8-6.3,0.2-9.3,1.2c-1.2-1.6-2.3-3.2-3.4-5c0.7-5.9,0.7-11.3,0.1-16.5c0.1,0,0.2-0.1,0.2-0.1
	c-0.4-0.8-0.4-2-0.2-2.9c-0.4,0.2-0.8,0.2-1.2,0.4c-0.2,1.6-1,3.1-2.6,3.8c0.5-0.1,0.8-0.2,1.3-0.3c-3.4,4.7-6.1,8.4-8.5,11.9
	c-0.1-0.2-0.1-0.4-0.2-0.5c-0.8,0.9-2,1.6-3.7,1.6c-0.6,0-1.1-0.1-1.6-0.3c-14.4,1.8-28.6,4.5-42.6,7.2c-1.2-1.4-2.1-3.1-2.3-4.9
	c-4.4,0.2-6.7-4-9.7-6.6c-0.4,0.8-0.7,1.6-1,2.5v0.2c1.4,5.4,4.4,10.3,6.5,15.7c-1.3,3.1-5.8,3.6-8.5,5.1c-0.4,2.8-0.9,5.7,0.1,8.4
	c1.2,1.8,2.8,3.1,3.9,4.9c-0.1,6.7-1.4,13.2-2.3,19.9c-0.6-0.7-1.2-1.4-1.9-2.2c0.3-2.7,0.4-5.4,0.4-8.4c-4.7-2.2-7.6,2.3-10,5.7
	c-1.9-0.2-3.7-0.4-5.3-0.6c-0.7-1.2-1.4-2.6-2.2-3.8c2.6-2.8,4.3-5.8,4.9-9c-7.2-4.5-16,1.9-18.5,4c-2.3-0.3-5.1-0.3-7.2-1.6
	c-3.7-2-7.8-3-12.6-3.2c-2.3,0.1-3.7,2.2-5.1,4.1c1-0.2,2.2-0.4,3.2-0.7c5.9-2,10.9,0.8,15.7,4c-0.7,2.6-1.2,5.1-1.8,7.4
	c-1.6-0.7-3.2-1.2-4.9-1.9l0.3,2.3c-1.9-0.4-3.7-0.8-5.4-1.4c1.2-0.9,2.6-2.1,4.1-3.1c-3-1.9-6.9-2.8-8.5-6.1
	c-0.7,0.6-1.4,1.2-2.2,1.8c1.2,1.4,2.2,2.8,3.4,4c0,2,0,3.8,0.1,5.4c-3.2,0.2-6.3,0.6-9.5,0.4c-0.7-0.4-1.3-0.8-2-1.4
	c-1.2-1.2-2.3-2.2-4.1-2.2c-3.1,1.2-3.7,4.9-3.9,8c-0.3,5.9-1.2,11.7-1.9,17.5c-0.9,7.9-0.5,15.7-1.6,23.7
	c-7.5-6.9-10.8-17.3-19.4-22.9c-3.7-2.6-8.3-2.8-12.5-3.6c0.1-1.2,0.2-2.3,0.4-3.7c2.3-0.9,4.9-1.9,7.2-3c-1.8-1-3.7-2.1-5.4-3
	c0.2-2.5,0.5-5.1,0.3-7.7c-0.8-4.4-3.7-8.4-7.6-10.6c-2.9-1.4-5.4,0.5-7.8,2.1c-1.3,1-3.4,0.2-5.1,0.3c0,0.7,0.1,1.9,0.1,2.6
	c-0.8,1.6-1.4,3.7-1.6,5.7c0.8-0.8,1.8-1.6,2.6-2.5c-0.1,0.2-0.1,0.3-0.2,0.4c0.3,1.2,0.5,2.3,0.7,3.6c1.3,8.3,2.2,11,11.1,12.1
	c0.4,1.6,0.8,3.2,1.2,4.9c-3.7,1.2-6.3,6.1-5.3,9.6c3,3.7,7.7,3.4,11.5,5.1c6.9,9,10.5,19.9,19.1,27.3c2.6,2.3,5.3,5,8.8,5.6
	c-0.1,1.8-0.3,3.6-0.5,5.4c-4.7,0.8-10.3,2.3-13.5,6.9c-3.4,4.5-5.7,9.7-6.9,15c-1.8,7.6,0,15.2,0.5,22.8
	c-8.2,0.4-14.2,2.3-18.6,6.1c-3.7,2.7-5.3,7-6.9,11.3c-7.9,1.7-17,4.4-23.6,10.3c-8.5-3.7-18.1-6.1-28.4-7c0.1,0.8,0.3,1.7,0.4,2.5
	c14.7,1.4,29.7,5.9,42.5,15.9l1.9-2.2c-3.8-3-8-5.5-12.5-7.9c6.5-4.1,14.3-8.7,23-9.3c9.3-0.9,18.8,4,23.3,12.3
	c2.2,4,1.8,8.8,2.1,13.3c-3.6,0.1-5.3,2.9-6.9,5.4c-1.9,2.7-3.6,5.3-6.9,5.1c-3.9,0.2-6.7-3.2-10.1-4.5c-3-1-5.1,1.8-6.3,3.2
	c2.3,0.6,4.4-0.8,6.5-1.6c4,2.6,8.4,5.9,13.5,5c2.5-1.2,3.9-3.6,5.3-5.6c1.3-2.2,2.6-4,4.9-5.3c-0.1,4-1.9,7.7-2.3,11.5
	c1.9-0.2,2.3-2.2,3.1-3.7c1.9,3.6,6.1,2.6,9.3,2.8c0.1-0.3,0.2-0.8,0.2-1c-3.7,0.5-8.2-0.8-8.7-4.7c0.5-3.7,2.3-6.9,2.3-10.3
	c0.2-3.4-0.8-6.7-2.2-10.1c4.7-1.9,11.4-3.4,17.2-0.5c7.9,3.2,14.5,10.6,17.6,19.8c-0.2,0.2-0.5,0.6-0.7,0.8
	c-6.3,1.3-12.5,3.4-15.9,8.5c1.9-0.4,3.7-0.7,5.3-1.8c7.5-5,16.7-5.4,25.7-5.3c6.1,0.1,11.4,2.9,17.2,3.7c-1-6.6-2.7-13-3.7-19.5
	c1.2,1,2.5,2.2,3.9,3.7c0.3,5.4,1.3,10.8,2.3,15.2c0.4-0.4,0.9-0.9,1.3-1.2c-0.5-4.4-0.9-8.7-1.4-13.2c1.3,0.4,3.7,0.2,3.8,1.6
	c0.6,4.1,0.8,8.4,2.2,12.5c5.6-5.1,10.3-11.4,17.2-14.7c4.4-2.1,10-2,16.4,0.2c4.9,1.6,8,5.7,11.7,9.2c-0.5,0.6-0.8,1.2-1.3,1.9
	c0.6,0.4,1.1,0.8,1.6,1.2c0.2,0.2,0.4,0.3,0.5,0.5c3.5-2.4,7.9-3.9,12.3-1.7c-0.8,2.9-1,4.9-1.2,7.2c3-3.7,4.1-8.3,6.9-12.1
	c3.7-5.4,7.7-10.6,13.4-13.3c6.2-3,15.1-3.7,21.1,1.8c3.2,2.3,5.6,5.6,8,8.7c2.9,3.8,6.1,7.9,10.5,10.3c1.3,0.3,2.8,0.4,4.4,0.6
	l-2.3,3.2c2.7-0.6,5-2.2,6.7-5c2.1,1.3,3.7,2.6,5.1,3.9C376.1,508.2,374.5,506.2,373.2,504.1L373.2,504.1z M293.7,307.9
	c0.6,0.5,1.3,1.2,2,1.6c-0.3,0.4-0.6,0.7-0.9,0.9c-1,1.3-2.2,2.6-2.5,4.4c-0.1,0.7-0.3,1.3-0.7,1.6c-0.2,0.1-0.4,0.1-0.7,0
	C288.8,313.4,291.6,310.5,293.7,307.9L293.7,307.9z M353.4,381.1l-2.1-1.4c0.3-0.5,0.7-0.9,0.9-1.3c1.2-1.8,2.3-3.6,2.6-5.7
	c-1.8,1.2-2.7,3.4-4,5c-0.2-2.3-0.9-5.6,1.3-7c2.7-2.1,5.8-4.5,7.8-7.9c0.4,0.3,0.7,0.8,1,1.2C359.6,370.9,357.1,376.7,353.4,381.1
	L353.4,381.1z M361.9,350.4c0.6,2.7,0.4,5.4,0.2,8.3c-0.1,0.8-0.2,1.4-0.2,2.2c-0.9,0.5-2,0.7-3,0.6c-3,2.7-5.7,6.1-10,6.9
	c-0.6-3.7-0.1-6.9,1.4-9.6c-4.4,2.3-7.6,6.1-12.1,8.2c-0.6-3.7-0.3-7,0.7-10.3c-4.8,2.9-9.3,6.7-14.9,7.9c0.2-3.7,2-6.9,2.5-10.3
	c-4.8,2.7-9,7.2-15,6.9c0.1-3.4,1.8-6.1,2.5-9.3c-2.5,0.9-5,2.3-7.2,3.7c-1.8,1-3.6,2.2-5.3,3c-0.8-0.1-2.6-0.1-3.6-0.2l-1.4,2.3
	c4.5,3.2,8.7-1.2,12.7-3.1c0.1,1.6,0.2,3.2,0.3,4.9c4,4,8.8-0.2,12.8-2.3c-0.2,1.8-0.4,3.7-0.6,5.3c0.7,0.5,1.9,1.3,2.5,1.9
	c4.1-0.9,7.6-3.4,11-5.6c0.2,3,0.1,6.3,2.8,8.4c2.9-1.4,5.3-3.7,7.8-5.6c0.2,1.3,0.4,3,0.5,4.5l2.7,2.7c-1.4,2.9-3.1,6.1-5.4,8.7
	c0.4-2.7,0.6-5.7,0.2-8.5c-2.2,1.6-1.2,3.9-1.2,6.1c-2.6-1.2-1.8-5.3-2.1-7.9c-4,3.4-4.4,10-9.3,12.3c0.8-3.8,2.6-7.5,2.2-11.5
	l-2,1.3c-0.2,2.5-0.3,5.1-1.6,7.4c-0.9-3.1-1.4-6.5-1.3-9.8c-2.2,2.5-3.7,5.4-5.7,7.9c-1.2,1.4-2.6,3.1-4.7,2.7
	c1.4-3.7,4.8-6.5,4.5-10.8c-2.3,2.3-3.1,5.6-5,8.4c-1.3-2.8-0.8-6.1-0.8-9.2c-3.8,3.1-6.5,9.7-12.1,9.3c2.6-3.6,5.7-6.9,6.5-11.5
	c-2.8,2.6-3.9,6.5-6.9,9c0.2-2.6,0.5-5.1,0.7-7.8c-2.2,0.8-4.1,2.3-6.1,3.7c-0.8,0.6-1.6,1-2.3,1.6c-0.5,0.7-2.2,1.2-3.1,0.8
	c-0.4-0.2-0.6-0.5-0.6-0.8c3.8-2.7,8-5.3,10-10c-3.1,2.2-5.6,5.1-8.8,7.2l0.7-4.3c-5,0.1-9.2,3.7-14.1,3.7
	c4.4-3.8,12.1-3.7,13.7-10.3c-4.8,4.1-10.8,6.6-16.2,9.4c-0.8-0.9-1.4-2.2-2.2-3.2c7-1.6,14-5.3,20.3-10.9c0.1,1.6,0.1,3.7,0.2,5.1
	c1.6-1.3,1.9-3.4,2-5.3c0-0.7,0.1-1.4,0.2-2.2c3.4-4,6.9-6.5,10.3-6.9c15,0,28,10.1,43.2,8.5C355.8,353.8,359.9,353.7,361.9,350.4
	L361.9,350.4z M334.4,311.9c-5.7,3.7-13.8,4.3-22.2,1.8c-3.4-0.8-6.1-3.7-7.2-7.2c-0.7-3.1,2.6-4.9,5.1-6.3c5-2.3,9.7-3.7,14-3.7
	c5.7,0.1,13.6,2.3,13.5,9.3C337.6,308.3,336.3,310.6,334.4,311.9L334.4,311.9z M271.4,288.3c2.3,1.6,4.1,3.9,5.7,6.3
	c3.8,0.1,7.8-0.8,11.5-1.6c13.3-2.9,27.6-6.1,42.6-6.5h0.1c1.6-1.9,2.6-4.4,4.5-6.1c-0.2,2.3-0.7,4.8-0.5,7.2c1,2.5,2.7,4.7,4.1,6.9
	l-1.6,2.3c-5.1-4.3-12.3-5.1-22-2.8c-3.4,0.8-6.3,2.7-9.6,3.7c-1,1-2.1,2.3-3.2,3.4c-5.4-1-10.3-0.9-14.6,0.5
	c-4.8-2.3-8.5-3.6-13.1-3C275.6,294.8,272.6,291.9,271.4,288.3L271.4,288.3z M274.6,302.3l0.2-0.1c3.7-0.1,7.6-0.3,10.8,2
	c1.6,0.8,3,2.7,3.2,4.5c0.1,0.8,0,2.2-1.2,3.2c-4.5,5.1-12.1,3.7-15.2,2.7C273,310.5,273.5,306.3,274.6,302.3L274.6,302.3z
	 M351,443.3c-1.8,2.3-5.3,6.1-9.7,5.4c-0.8-0.8-1.3-2.2-0.8-3.4c2.2-3,5.3-5.3,9-6.3C350.1,440.8,350.6,442,351,443.3L351,443.3z
	 M339.4,450.9c-3.7,2.9-6.5,6.5-9.7,9.7c1.3-6.6,3.4-12.8,5-19.1c4.3-3,7.9-6.9,12.5-9.6c-0.7,2.1-1.3,4-2.2,6.1
	c-0.6,0.7-1.2,1.2-2,1.8C338.2,443.1,338.8,445.7,339.4,450.9L339.4,450.9z M325.5,452.3h-0.2c0.1-3.9-4.8-6.3-8.3-5.1
	c-1.6,0.7-2.8,1.9-4.1,2.8c-1-2.2-1.2-4.7-1.3-6.9c7-0.2,14.1-0.7,21.1-0.8c-2,6.7-3.8,13.5-5.6,20.3c-3.6,0.9-6.9,1.4-10.3,1.6
	c1.8-2.3,3.8-4.5,5.1-7.4C322.5,454.9,324.2,453.6,325.5,452.3L325.5,452.3z M350.4,437.7c-1-0.3-2.2-0.5-3.4-0.7
	c0.6-1.8,1.4-3.4,2.6-4.7C349.8,433.8,350.1,435.5,350.4,437.7L350.4,437.7z M266.4,306.4c1.4-0.8,3-1.6,4.5-2.3
	c-0.2,1-0.4,2.2-0.6,3.4c-0.3,1.9-0.7,3.7-0.9,5.6C266.5,311.8,266.2,308.5,266.4,306.4L266.4,306.4z M236.6,323.1
	c3.4-2.8,7.4-3.8,10.1-4.3c1,0.5,2.1,1,3,1.8c-1.8,2.5-4.1,4.5-6.5,6.5c-0.8,0.7-1.6,1.2-2.3,2c2,0.4,4.3,0.6,5.4,2.3
	c-4.3,1.6-8.4-2.5-12.6-0.6C234.4,328,234.3,324.7,236.6,323.1L236.6,323.1z M233.4,324.6c-0.5,2.3-0.9,4.9-1.6,7.2
	c-1.2,0.5-2.5,0.8-3.8,0.8C228.4,330,229.6,325.5,233.4,324.6z M150.3,346.9c-2.2-0.6-4.3-1.2-5-3.4c-2-4.8-2-9.8,0.1-13.5
	c0.9-2.2,3.4-3.7,6.1-3.7c3,2,7.9,6.2,7.9,12.5c-2.3-0.2-4.5-0.6-6.9-0.8c-1.2,0.8-2.1,1.8-2.9,2.7c0.5,2.2,0.9,4.3,1.4,6.3
	C150.9,347.1,150.5,346.9,150.3,346.9L150.3,346.9z M151.6,341.6c0.1-0.7,0.5-1.2,1.2-1.8c1.8,0.3,3.7,0.5,6.1,0.5
	c-0.1,1.4-0.2,3-0.2,4.5c0.4,0.6,1.2,1.6,1.6,2.3c-2.1,0.3-4.1,0.4-6.2,0.4C153,345.7,151.2,343.5,151.6,341.6L151.6,341.6z
	 M157,353.7c-0.8-0.1-1.6,0-2.3,0.3v-0.1c0-1.2,0.1-3.2,0.2-4.5C157,349.4,156.8,352,157,353.7z M176.4,389.2
	c-6.5-7-9.3-16.5-15.9-23.4c-3.6-1.2-8.4-0.9-10.3-4.7c2.7-5.3,10.1-6.1,15.7-4.1c11.8,5.1,15.2,18.4,24.6,26.2
	c-0.6,3.7-0.8,7.2-1,10.8c-0.1,1.9-0.2,3.7-0.4,5.4C183.9,397.4,180,393.3,176.4,389.2z M184,478.9c-4.5,0-8.3,0.6-11.5,1.9
	c-1.2,0.9-1.9,0-2.3-1c-2.6-4.3-6.7-7.8-11.8-9.6c-4-1.6-8.4-0.9-12.5-1.6c4.5-10.1,12.1-13.8,23.5-14
	C183.1,454.9,189.9,466.5,184,478.9L184,478.9z M208.9,503.5l-1.8-1.4c-0.1-3.1-0.2-5.9-1.6-8.3c-3.9-6.9-10.8-12.1-19.1-15
	c2.6-6.2,0.7-13.2-0.8-16.8c-2.3-6.1-8.8-8-14.2-10.8c-0.7-4.9-1.2-10.3-1.4-16.4c0.1-10.8,10.5-27.3,23-22c5.4,3.1,7.5,9.8,9,14.6
	c1,3.7,3.2,7.8,1.2,11.4c-4.3,1.2-8.8,0.4-13.2,0.7c0.6,0.6,1.2,1.2,1.9,2c4.5-0.6,9.3,0.9,13.5-1.8l2.6,11.7
	c-5.4,2.2-11.7,1.2-16.2-2.7c0-2.9,0.7-6.1-1.6-8.4c-2.1,8.2,1.8,16,3.4,23.8l-3.7,0.6c0.3,4.3,3.7,6.9,6.9,9.2c1.4,1,1.6,1,0.9,2.9
	c-1.3,3.1,1.2,3.9,3.4,5.4c0.1,1,0.3,2.3,0.6,3.7c0.6,0.8,1.3,1.2,2.2,1.6c1.2,0.6,2.2,1,2.2,2.3c0.2,2.3,2.2,3.2,3.8,4.3
	c0.1,0.8,0.3,2.2,0.4,2.8c1.4,1.6,3.1,3.4,3.8,5.4C212.2,502.8,210.5,503.1,208.9,503.5L208.9,503.5z M205.4,454.9l2.9-0.9
	c1.2,3.7,2,7.4,2.8,11.7c-2.1-0.6-4.5-0.6-6.1-2.2C205.5,461,205.6,458.4,205.4,454.9z M203.4,463.4c-0.8,0.3-1.6,0.2-2.6-0.4
	c-0.3-2.8-0.7-5.4-0.9-8.3C204.5,454.3,203.5,460.2,203.4,463.4L203.4,463.4z M198.4,463.3c-0.8,0-2.2,0-3,0.1
	c-0.8-3.4-1.3-6.7-2.2-10c1.8,0.5,3.8,0.7,4.5,2.5C198.4,458.2,198.2,460.9,198.4,463.3z M235.5,506.1c-5.1-2-10.1-2.7-15.2-3.8
	c-1.6-2.1-6.1-3.4-3.9-6.5l-0.4-0.1c-0.6-0.3-1.6-0.7-2.2-0.9c2.9-3.7-2.3-3.8-5.1-4.5c0.8-1,1.4-2.1,2.2-3.1
	c-2.1-1.2-4.4-1.6-6.7-2.3c-0.2-1.8,2.3-2.3,3-3.9c-2.3-1.2-4.8-2.1-7.2-2.9c2.2-1.2,4.5-2.3,5.7-4.7c-4.4-1.2-9.3-2.3-12.1-6.2
	c6.1-0.8,12.1-0.3,17.2,1.8c-1.2,6.3,0.6,13.6,5.4,21.5c1.6,2.3,3.7,5.9,7.2,4.5c-7.2-6.1-11.4-15.7-11.1-25.5
	c2.9,0.8,6.2,0.3,9,1.4c2.1,9.4,2.5,19.1,3.2,28.6c0.2,1.6,0,3.7,2.3,4c-0.2-13.1-1.9-25.9-2.7-38.9c-1.2-9.3,0-18,10.5-20.9
	c13.8,0.1,14.7,15.4,17,25.5c-0.5,0.8-1,1.8-1.6,2.6c-3,0.1-6.6,0.1-10.1-0.8c-1.9-0.4-3.7-1.2-5.4,0c-3.8,2.3-3.4,7.5-3.4,11.5
	C232.2,490.4,233.7,498.4,235.5,506.1L235.5,506.1z M236.8,488.3c-5.1-4.9-3-13-2.2-15.7c5.7,0.1,11.5,3,17,0
	c0.8,5.6,2.6,11,2.2,16.6C249,492.4,241.2,493,236.8,488.3z M250.3,499.4l-0.1,0.3c0.3,2.1-0.9,3.7-2.2,4.7
	c-0.7-3.7-1.4-6.9-2.2-9.6c0.9-0.1,2.5-0.1,3.4-0.2c0.3,1.2-0.5,3.9,1.8,3.7c0.6-1.4,0.7-2.9,0.4-4.4c1.2-0.5,2.5-1,3.9-1.4
	C256.1,495.5,253.6,499.1,250.3,499.4L250.3,499.4z M257.5,493.9c-1.2-4.5-1.4-9-2-13.5c-0.6-3.4-1-6.6-1.6-9.8
	c-0.9-6.9-2.1-13.9-4.4-20.6c-1.4-4-5-6.7-8.4-8.7c3.7-6.9,7.9-11.1,12.9-12.8c2.6-1,6.2-0.5,7.7,2.2c2.2,3.9,3,8.5,3.9,13
	c0.1,1.3,1,3.4-0.4,4c-2.9,2.1-7.2-1-10,1.9c-2.7,2.9-2.5,7.2-2,10.3c1.2,5.1,2.7,10.1,4.1,15c1.4,5.1,3.1,10.3,4.3,15.7
	C260.6,491.8,259.2,493,257.5,493.9L257.5,493.9z M264.4,489.9c-1.3-5.7-3.1-11.5-4.8-17c-1.2-4-2.5-8.2-3.7-12.3
	c-0.8-2.9-0.7-6.2,0.5-9.3c3.7-0.5,7.2-0.5,10.9-1.2c2.3,13.2,5.3,25.9,7.6,39.1C271.3,488.4,267.7,488.6,264.4,489.9L264.4,489.9z
	 M276.7,482.4c-2.3-13.7-5.4-26.9-8.3-40.5c-1-4.7-2.1-9.6-4.9-13.7c-1.8-2.2-4.1-2.8-6.2-2.7c-9.5-0.1-14.7,7.9-18.3,15
	c-6.5-0.2-12.8,3.7-16.2,9.5c-0.8,1.6-2.3,2.9-3.7,4.1c-1.6,1.3-3.1,2.8-3.9,4.8c1.3,0.6,2.7,1,4,1.6c-0.8,1.9-3.7,4.1-0.7,5.4
	l0.7-0.9c0.5-1.2,1.2-2.3,2.3-3.7v2.8l-1.4,0.8c0.2,0.9,0.8,1.6,1.4,2.2c-1.3,0.1-2.7,0.1-4,0.2c-7.2-15.7-7-33.2-13.9-49
	c-2.6-5.4-7.5-8.7-11.1-10.5c1-6.1,1.2-12.1,1.6-18.1c1,0.6,2,1.3,2.8,2.2h3.7c2.2,5.3,5.4,10.1,8.5,14.7c3.4,4.7,5.3,10,11.7,10.3
	c4.8,5.4,9.3,9.2,14.6,10.1c3.7,0.5,8.3,0.8,10.9-2.5c-4.4,0-8.8,1-12.9-0.8c-7.7-3.7-13.8-10.3-16.6-18.1
	c-1.4-3.8-1.3-8.2-3.7-11.7l2.3-2.2c3.9,0.1,7.2,2.2,10.5,4.3c2.6,1.6,5.4,3.6,8.5,4c6.7,1.6,14.4-0.8,19.4-6.1
	c-0.2-0.7-0.5-1.8-0.7-2.5c-4,3.2-7.9,7.5-13.5,7.6c-4.4,0.2-8-2.2-11.5-4.3c-2.2-1.3-4.4-2.7-6.9-3.7c-3.7-0.7-3.7-5.1-4.8-7.9
	c0.5-0.6,1.2-1.6,1.9-2.3c-0.1-1.8-0.2-3.7-0.3-5.1v-0.1l-0.1-0.1c-1.4-1.3-3-2.7-4.5-4c-2.3,0.1-4.9,0.1-7,1.2
	c0.4-3.2,0.8-6.6-0.4-9.7c-0.7,3.4-0.8,6.9-1.2,10.1c-1.8-0.1-3.7-0.7-5.4,0.1c-1.9,1.3-2.7,3.6-2.7,6.1c-0.7,0.9-1.3,2.1-2.1,3.1
	c-0.8-11.7,0.8-23.1,1.6-34.5c0.2-4.9,1.6-9.5,1.6-14.4c1.3,1.3,2.5,3.1,3.4,5.1c14.7-3.4,29.7-3.2,44.8-3.8c4.1,0,8.2,1,12.3,0.3
	c0.8-1.4,0.6-4.5,2.6-4.7c0.1,2.7-0.5,5.7,1.2,8.2c4,5.9,4.4,13.3,5.8,20.1c1,5.6,0.2,11.4,0.7,17c0.5,6.9,1.2,13.7,0.9,20.7
	c0.5,14,2.2,27.8,3,41.7c0.6,8.4,1.2,17,2.8,25.5c0.1,3.6,0.7,6.9,1.2,10.3c0.6,3.9,1.2,8.2,1.2,12.3
	C277.5,485.1,277,483.8,276.7,482.4L276.7,482.4z M221.2,459c-1.4-0.3-2.7-0.7-3.9-1c1.2-1,2.5-2,3.8-2.8
	C221.2,456.4,221.2,457.8,221.2,459L221.2,459z M198.1,377.9c1.2-2.6,3.7-4.1,6.5-3.2c-0.8,1.6-2,3.4-2.2,5.3c0.3,2.2,1.4,4,2.3,6.1
	c-2.1,2.3-4,5.1-7.6,4.5c-0.8-1.6-1.9-3.4-1.2-5.3c0.4-3.8,4.3-5.6,6.5-8.4C201,376.9,199.4,377.5,198.1,377.9L198.1,377.9z
	 M210,395.3c0.9,0.5,2,0.8,2.9,1.3c0.5,3.1,0.8,6.2,1.8,9.3c0.8,2.6,2.3,4.9,3,7.6c-1.9-1.4-3.1-3.6-4.4-5.4c-0.6-0.9-1.2-2.1-2-2.9
	c-3.1-4.4-5.4-9-8.4-13.4c1.8-5.3,7.5-7,12.5-6.5c0.4,1.4,0.8,3.2,1.4,5c-3.4-0.1-5.4,2.6-7,5L210,395.3L210,395.3z M214.7,383.6
	c-3.1,0.3-5.6,0.6-7.9,1c-1-1.6-2.6-3.7-2.2-5.6c0.8-2.1,2.3-3.7,3.6-5.6c1.4-0.1,2.9-0.4,4.4-0.2c2.2,1,3.4,3.4,4.5,5.3
	C216.2,380.2,215.4,381.9,214.7,383.6z M306.3,502c-3.8-2.3-8.7-2.3-12.8-0.1c-2.8-5.7-6.9-9.6-11.9-11c-0.7-5.1-2-10.1-2.2-15.4
	c-0.2-5.3-2.1-10.3-2.2-15.7c7.4-1.4,13.5,5.6,14.5,12.6c-2.2,0.8-3.9,2.3-5.4,4.1c7.2-1.4,9.8-3.2,16,2.3c-2.2,1.2-3.9,4-6.9,3.7
	c-2.3-0.5-3.9,1.4-5.1,3c3,0.2,6.9-1.2,8.8,1.6c-0.2,0.8-1,1.3-2,1.9c-1.2,0.6-2.3,1.4-2.5,3.1c2.8-0.8,6.2-1.2,9.8-1.2
	c-1.2-1-2.3-2.2-3.7-3.1c-0.6-1.6-1.2-3.2-1.9-4.5c3.9-3.4,8.8-1.3,12.1,1.2c-0.8-1.6-1.8-2.9-2.9-4.4c-2.5-0.2-4.5-1.9-5.9-5.1
	c7.9-1.9,12.3-0.1,17.7,5.3c1,0.9,2.2,2,3.4,2.8c0.1-5-4.1-7.6-7.8-9.8c4.8-3.7,11.4-4.5,17-2.2c5.6,2.5,8.2,8.3,9.2,11.7
	C324.6,477.5,313.2,487.7,306.3,502z M352.6,490.7c-2.3-2.8-5.3-5-8.3-7.2c-0.9-6.3-5.1-13.7-12.5-15.9c-5.9-2.1-13.2-0.6-19,3.7
	c-1.3,0.3-2.8,0.3-4.1,0.4c-2.5,0.1-5.1,0.2-7.4,1.9c-2.3-1-5.3-1.9-8.4-2.3c0.3-7-5.3-12.3-10.8-14.2c2.3-22.3,10.1-41.7,22.3-56.2
	c-1.8-2-3.7-4.3-3.4-7.2c2.9,0.3,4.7,2.7,6.5,4.9c10,0,19.8-2.3,29.9-1c-1-2.5-4.3-5.4-1.8-8c2.3,1.3,5.1,3.7,5,7.2
	c2.3,2.2,5.4,5.6,5.8,10.1c0.2,3.4,0.5,6.5,0.8,9.8c0.2,3.4,0.5,6.6,0.8,10c-0.2,0.7-0.7,1.8-0.9,2.5c-1.9-1-3.7-2.1-5.3-3.1
	c1,1.2,2.2,2.6,3.2,3.8c-2.9,2.3-6.1,4.4-8.5,7c-0.4-0.4-0.8-0.7-1.2-0.9c2-2.1,3.1-3.9,4.1-6.3c-2.2,2.1-4,4.3-6.1,6.5
	c0.1,0.7,0.3,1.8,0.4,2.5c-1.2-0.1-2.3-0.3-3.6-0.4c0,0.6,0.1,1.2,0.2,1.9c-5.9,0.1-11.7,0.2-17.6,0.8c-0.8,0.1-2.2,0.2-2.9,0.9
	c-0.3,0.3-0.4,0.7-0.3,1.2c0,2.9,0.8,5.7,1.6,7.9c-3.7,2.6-6.9,6.5-11.5,6.6c-2.2-2.2-4.5-3.9-7-5.4c0.9,3.1,3.4,6.1,6.1,7.2
	c4.5,2.2,8.5-1.9,11.9-4.5c2.2-1.9,4.5-3.7,7.4-4.9c1.3-0.6,2.8-0.2,4.5,0.9c-2.3,2.6-3.1,6.2-5.6,8.7c-2.8,3.1-7.4,3.7-10.6,6.3
	c2.9,1.6,5.6,0,8-1.2c0.7,1,1.2,1.9,1.8,2.6c5.1-1.6,11.7,0.5,15.2-4.4c2.9-3.7,6.5-7.9,10.8-11c4.3-0.5,7.9-2.9,10-6.7
	c4.8,19.7,8,39.2,12.6,58.9C359.6,500.9,356.6,495.3,352.6,490.7L352.6,490.7z"/>
<path class="st1" d="M303,292.7c-1.6-0.8-3.6,1.8-2.2,3C302.5,296.6,304.5,294,303,292.7z M295.6,296.8c1.6,0.8,2.9-1.9,1.9-3.1
	C295.7,292.3,294,295.8,295.6,296.8z M288.6,296.9c-1.9-0.8-2.3,0.2-1.9,1.8C288.3,299.3,289.4,298.6,288.6,296.9z M326.3,300.7
	c-0.1,2.1-0.7,3.9-2,5.7c-2.2-1.2-3.7-2.8-4.4-4.9l-2.2-1.3c1,3.2,2.2,7.4,5.8,8.7c3.7,0.1,4-4.3,4.5-6.9c-0.3-0.2-0.6-0.4-0.8-0.7
	C326.9,301.1,326.5,300.9,326.3,300.7z M316.8,305.5l-0.7-0.5c0.9,3.7,4.3,6.5,8.4,6.9C322.3,309.5,319.6,307.5,316.8,305.5z
	 M283,310.6c0.4,0.7,0.7,1.4,1,2.2c0.9-0.4,2.3-0.9,3.4-1.3l-3.2-1.8c0.7-1.4,1.4-3.1,2.1-4.5c-1.6,1.4-2.7,3.4-4.7,4.4
	c-0.7-1-1.6-2.3-2.3-3.7C277.9,308.8,280,311.6,283,310.6L283,310.6z M341.2,314c-0.6,2.3,0.8,4.5,3.9,5.9l0.6,0.3
	C344.7,317.9,343.9,314.7,341.2,314L341.2,314z M337.9,319.1c0.8,1.2,1.8,2.3,2.9,3.7l0.2,0.1c0.7-0.5,1.6-0.9,2.2-1.4
	c-1-1.2-2.2-2.3-3.2-3.7C339.5,318.2,338.7,318.7,337.9,319.1z M272.9,326.1c1.8,1.2,3.7-1.9,2.2-3.2
	C273.4,321.6,271.4,324.6,272.9,326.1z M354,333.8c-1.8-4.4-4.9-7.7-7.5-10.3c0,4.1,2.3,9,6.9,10.3H354z M273.9,330v0.2
	c1.6,0.4,4.3-1.2,4-3.1C276.3,326.1,273.6,328.4,273.9,330L273.9,330z M317.2,327.8c-0.9,0.8-2.2,1.8-3.1,2.6
	c-3.7,0.3-7.5-0.2-11.1-0.8c1.6,2.6,4.3,3.7,7.2,3.6c2.7,0,5.4-0.8,7.4-1.4C317.4,330.7,317.4,329.1,317.2,327.8L317.2,327.8z
	 M343.4,328.7c0.2,4.1,3.4,8,7.2,9c-0.8-3.4-3.1-6.2-6.7-8.7L343.4,328.7L343.4,328.7z M151.7,331.3c-1.3-0.4-2.8-0.8-4.3-1.2
	c-0.6,2.2,1.3,2.8,2.9,3.4C150.7,332.8,151.3,332,151.7,331.3L151.7,331.3z M300.2,331.2c-3.4,1.8-6.9,0.3-10.3,0
	c2,2.3,4.7,3.7,7.6,3.7c0.9,0,2.1-0.2,2.9-0.5C300.4,333.5,300.4,332.2,300.2,331.2z M280.8,332.3c0.7,1.4,2,2.5,3.7,2.9
	c2.2,0.4,4.5-0.3,6.2-1.9l-2.2-1.8C286.1,333.1,283.4,332.5,280.8,332.3z M339.5,334.3h-0.4c1.2,3.4,4.3,5.8,7.8,6.3
	C345.2,337.6,342.8,334,339.5,334.3z M300.9,338.3c2.6-0.3,6.5,0.7,6.6-3.2c-2.2,0.3-4.4,0.6-6.6,0.8V338.3z M307.8,338.8
	c3.1,2.2,8,1.2,8.3-3c-2.2,1.6-4.9,2.6-7.5,2.9L307.8,338.8z M294.6,336.5c-2.7,0.8-5.4,1-8.2,0.8c1.3,3.4,5,3.4,8.3,2.2
	L294.6,336.5L294.6,336.5z M276,337.7l0.1-0.3c-2.8-0.7-3.7,2.3-4.4,4.4C273.7,341.2,275.2,339.8,276,337.7L276,337.7z M293.6,342.5
	l-0.7,0.5c3-0.1,7.6,1.4,8.5-2.6C298.4,340.5,295.7,341.2,293.6,342.5z M273.5,345.7l-0.2,0.6c2.6-1.6,4.5-3.7,5.4-6.5
	C276.2,340.9,274.2,343,273.5,345.7L273.5,345.7z M261,340.6l0.1-0.4c-2.2,0.3-3.9,1.6-5.1,3.7C258.5,343.9,260.7,342.7,261,340.6
	L261,340.6z M257.6,348.8c2.2-1,4.5-2,5.6-4.3c-2,0.5-3.8,1-5.6,1.6V348.8L257.6,348.8z M246.7,345l-0.2-1.3l-0.4,0.7
	c-1.2,2.2-0.3,6.5-3.4,7c-2.7-1-1.4-5.1-2.3-7.4c-1.3,1.6-2.1,4-1.6,6.1c0.4,2.1,2.5,4.3,4.7,3.7c1.3-0.5,2.2-2.2,2.7-3.7
	C247.1,348.8,247,346.8,246.7,345L246.7,345z M230,356.2c-1,3.9-5.1,6.9-9.7,6.6c-2.8-1.4-3.7-4.4-4-6.1c3.2-0.3,6.7-0.5,9.2-2.9
	c0.1-4-5.3-3.4-8.2-2.8c0.9-1,2.1-1.8,3.4-2.2c-0.6-0.4-1.2-0.8-2-1.2c0.8-1.2,2.7-1.4,3.7-2.3l0.7-0.5c-2.1,0.2-4,0.3-6.1,0.6v4
	l-0.8-0.4c-0.7,4.8-2.2,10.1,0.4,14.5c4.1,2.6,10.1,0.1,12.8-2c1.2,0.8,2.5,1.4,3.7,2.2c-1-2.2-2.3-4.4-3-6.6V356.2L230,356.2z
	 M273.9,350.6l-0.5,0.7c3.4-0.8,6.2-3.2,8-6.5C278.5,345.9,276,347.7,273.9,350.6L273.9,350.6z M210,348.4c-1,2.1-2.2,4-4.7,4.1
	c-0.4-2.3-0.8-4.7-1.2-6.9c-0.8,2.3-0.7,4.8-0.5,7c0.9,1,2.1,2.2,3,3.2c4.1-2,4.4-6.3,4.4-9.3C210.6,347.2,210.3,347.8,210,348.4
	L210,348.4z M306.9,351.6l-0.2,0.3c2.7,1.3,5-1,5.7-3.8C310.3,348.5,308.5,349.5,306.9,351.6L306.9,351.6z M256.3,352.1
	c2.6,0.4,5.1,0.4,7.2-1.9l0.3-0.3C261,349.2,258.1,350,256.3,352.1z M246.4,355.8c2.5-0.4,6.3-3.4,4-6.1
	C249,351.7,247.9,353.7,246.4,355.8z M186.4,425.7c-3.2-1.3-2.1,4,0.1,3.9c0.7,0,1.2-0.6,1.2-1.2C187.9,427.3,187.2,426,186.4,425.7
	L186.4,425.7z M177.3,428.5c0.7,0,1.2-0.6,1.2-1.2c0.2-0.9-0.6-2.3-1.3-2.8C174.1,423.1,175.2,428.7,177.3,428.5L177.3,428.5z
	 M331.1,358.2l-0.5,0.7c3.1,1.3,4.4-1.8,5.6-3.9C333.9,354.4,332.3,356.5,331.1,358.2z M355.7,357.1c-1.9,0.7-2.6,2.3-3.2,4.1
	C354.8,361.1,356.8,359.3,355.7,357.1z M342.3,361.8c1.8,0.2,2.7-2.5,1.6-3.7C341.8,356.4,339.9,361.1,342.3,361.8z M243.9,403.5
	c0.5,1.9,4.8,1.6,3.8-0.8C246.9,401.3,243.7,401.4,243.9,403.5z M318.9,425.7c-0.6-0.7-1.2-1.2-1.8-2c0.5-0.8,1-1.6,1.6-2.3
	c-4.8,0.3-9,0.4-13,0.2c0.3,2.3-0.1,5.1,1.3,7.2c1.3,0,2.6-0.6,3.8-0.8c0.6,0.4,1.6,1,2.2,1.4l2.8-2.6c1.9,1.2,4,0.8,5.8-0.8
	c0.7,0.2,1.6,0.4,2.3,0.6c-0.5-0.5-1.2-0.9-1.4-1.6c2.3,1.6,7.9,4.5,12.6,1.8c2.5-4.5,0.9-9.7,0.3-14.5l-0.8,0.4v-4
	c-2.1-0.2-3.9-0.5-6.1-0.6l0.7,0.5c1,0.8,3,1.2,3.7,2.3c-0.7,0.5-1.3,0.8-2,1.2c1.2,0.5,2.3,1.2,3.4,2.2c-2.8-0.5-8.3-1.3-8.2,2.8
	c2.3,2.3,5.9,2.6,9.2,2.9c-0.4,1.9-1.3,4.8-4,6.1c-3.4,0.1-6.5-1.2-8.3-3.7v-0.6c-0.2-0.7-0.2-1.2-0.1-2c-0.3,0.1-0.7,0.1-1,0.2
	l-0.3-0.8l-0.2,0.8c-1.2,0.2-2.2,0.4-3.4,0.5c0.8,0.5,1.6,1.2,2.5,1.8C320.2,423.3,319.7,424.5,318.9,425.7L318.9,425.7z M306.8,417
	c2.8-1.7,4.4-5.1,4-8.6c-1.4,1.8-2.6,3.7-4,5.3c-2,0.2-2.8-2-3.9-3.2C302.3,413.1,303.7,415.2,306.8,417z M339.8,412.2
	c2.1-1.2,3-3.7,2.8-6.1c-0.9,1.2-1.9,2.5-2.8,3.7c-1.2,0.1-1.9-1.4-2.7-2.2C336.8,409.5,337.6,411.1,339.8,412.2z M194.4,449.2
	c2,0,1.9-2.9,0.6-3.7C192.5,444.3,192.5,448.9,194.4,449.2z M220.4,482.6c-1.3,0.1-2.2,1.6-1.2,2.7c0.3,0.5,0.8,0.8,1.3,0.8
	c0.7,0,1.3-0.5,1.6-1C222.6,484,221.6,482.5,220.4,482.6L220.4,482.6z M241.2,477.9c-0.1,1.8,0,3.7,0.6,5.4
	C244.7,482.3,243.7,479.2,241.2,477.9z M246.3,477.8c-0.5,1.6-1,3.4-0.6,5.3C248.6,482.5,248.5,479.2,246.3,477.8z M221,481.3
	l-0.2-3c-1.2,0.2-2.3,0.4-3.7,0.7c0.4,1.9,2.2,2.1,3.7,2.2L221,481.3z"/>
<path class="st1" d="M179.9,426.4c-1,0.8-1.6,2.1-2.3,3.1c-2.1,0.1-4.1,0.1-6.2,0.1c1.4,1.6,3.6,2,5.3,2c0,2.2,0.2,4.5,0.7,6.9
	c2.9-0.8,3.9-3.7,5.1-6.1c-0.3-0.7-0.6-1.4-0.8-2.2L179.9,426.4z M180,432c-0.5,1-0.8,2.2-0.9,3.4H179c-0.6-0.9-0.6-3.2-0.1-4.3
	c0.4-0.8,0.7-0.7,1.3,0.2L180,432L180,432z M203.5,445.9c-2.3-1.6-3.6,3.6-0.9,3.7C204.1,449.4,204.7,446.8,203.5,445.9z
	 M219.5,474.4c-1.6-0.5-3.6-1.2-5.3-1.6c0.3,1.6,1.9,3.6,3.6,3.6C218.3,476.3,219.3,475.9,219.5,474.4L219.5,474.4z M234,453.3
	c0,0.8,0.1,2.3,0.2,3.4c-1.8-0.6-3.4-1.2-5.1-1.8c1,1.9,2.3,3.7,3.7,4.8l0.2,0.2c0.9-0.8,1.9-1.9,2.8-2.7c0-1.3-0.1-2.7-0.1-4
	C235,453.2,234.6,453.2,234,453.3L234,453.3z M723.1,474.4c-8.5,1.2-14.5,2.6-16.6,3.1c-88.1-14.5-118.4-5.7-126.9-1.5
	c-7.7-7.2-42.1-16.4-49.7-18.3l-2.1,2.3c18.4,4.8,47.9,14,48.2,18.5l0.4,4l4-3.5c0.2-0.2,20.6-16.4,125.3,0.8l0.9,0.2l0.8-0.3
	c0.2-0.1,6-1.6,15.4-3L723.1,474.4L723.1,474.4L723.1,474.4z M458.2,487.1c0.4-0.2,0.8-0.2,1.2,0c0.4,0.2,0.6,0.4,0.8,0.5l-3.4-2.3
	C457.2,485.9,457.8,486.6,458.2,487.1L458.2,487.1z M248.4,440.3c-2.2,0.3-3.7,0.1-3.7-2.3c-4.9,3.9,4.1,3.6,2.1,7.2h0.8v1.2
	c1.8,0,3.7,0,5.3,0.1c-0.3-2.7-0.4-5.4-1-8.4C250.1,437.1,249.4,439.1,248.4,440.3L248.4,440.3z M248.2,445.1c0.3-1.9,1-3.2,2.2-3.7
	c0.2,1.2,0.3,2.3,0.4,3.7C250,444.9,248.8,445.1,248.2,445.1z M294.2,425.7c-1.8,0.6-0.8,2.5,0.5,3.1c0.7,0.3,1.3,0.1,1.8-0.4
	C297.4,427,295.7,425.1,294.2,425.7z M256,434.8c-0.5,0.4-1.2,0.9-1.8,1.3c0.3,0.5,0.5,1,0.8,1.6c0.3,0.7,0.6,1.2,0.8,2
	c2.3,0.2,4.5-1.2,5.6-3.2c-1.2,0.4-2.5,0.8-3.8,1.3L256,434.8z M309.1,429.5c2.2,2.8,5.1,2.1,8.3,2c3.7-0.3,7.9-0.8,10.3-4.1
	c-1.6,0.4-3.4,0.8-5.1,1.2C318.2,429.7,313.6,430.7,309.1,429.5z"/>
<path class="st2" d="M380.2,507.4c0.2-5.5,0.1-11.2-0.8-16.6c-1.2,2.1-2.3,4-3.7,6.2c-0.8-0.1-0.9-0.2-1.9-0.2
	c-1.6-5.1-3-10.1-2.3-15.6c-2.1,0.1-4,0.2-6.1,0.3c5.1-7,9.3-15.2,9.8-24c0.8-8.3,4-16.3,2.8-24.7c-1.2-5-3.7-9.5-4.8-14.5
	c-3.4-15.8-2.6-32-0.8-48c-2.7-3.4-8-3-12.1-3.7c0.4-0.8,0.8-2.2,1.2-2.9c-2-1.9-4.8-3.2-5.3-6c-0.1-0.5-0.2-0.8-0.3-1.2
	c-2.3-5.1-2.8-11.7-2.4-18.8c-0.6-9.7,0.2-19.5,2.5-29c1.9-5.8,4.7-11,8.1-15.9c0.9-1.3,2-2.6,3-3.8c-0.6-3.1-0.9-6.2-0.8-9.4
	c0.1-0.8-0.2-1.2-0.4-1.7c0.6-0.2,1-0.3,1.5-0.4h0.1c-0.4-3.1-0.8-6.2-1.2-9.3c1.2,1.2,2.6,2.3,3.8,3.6c2.6,2.3,6.5-1.6,3.8-3.8
	c-6.5-5.4-12-11.7-17-18.5c-3.5-4.7-6.7-9.4-9.6-14.5c-0.4-1.2-0.6-2.6-0.8-3.8c0.4-0.6,0.6-1.2,0.3-2.2c-0.6-1.4-0.9-2.8-1.3-4.3
	c-0.2-0.9-0.2-2-0.2-2.8l-0.6-0.3c-1.6-6.5-2.6-13-3-19.6c2.7-7.7,6.8-15,8.5-23c0.4-1.2-0.3-2.3-1.2-2.9c2.7-2.8,5.3-5.6,6.8-9.3
	c4.4-9.2,2.3-19.5,4.1-29.2c0.4-2.4,1.2-4.8,2.1-7.1c-0.3-0.2-0.6-0.4-0.8-0.6c0.1-0.8-0.1-1.7-0.4-2.5c-0.1-0.2-0.2-0.3-0.2-0.4
	c-0.8-1-1.2-2.4-1.7-3.2c0-0.1-0.1-0.2-0.1-0.2s0.1-0.1,0.2-0.1c-0.1,0-0.1,0-0.2,0.1l-0.4-0.8c-0.4-0.5-0.8-0.8-1.1-1.2
	c-0.8-0.8-1.7-1.6-2.2-2.2c-0.7-0.8-1.2-1.6-1.8-2.4c-0.4-1.6-0.7-3.1-0.8-4.8c-0.6-1.2-0.9-2.6-1.2-3.9c-0.8-5-0.8-10.9,2-15.2
	c1.6-6.1,4.7-11.7,9.7-16.1c0.2,0.1,0.4,0.2,0.5,0.2c-0.2-0.1-0.2-0.2-0.4-0.3c6.4-1,13.6-3.7,19.6-0.1c2.7,1.3,5.4,3,8.5,2.4
	c0.8,0.4,2.3,1.2,3,1.6c2.1,2.7,4,5.4,6,8.3c20.9-10.4,45.5-13.7,68.3-8.5c1.2,0.8,2.6,1.2,4.4,1.2h0.5c0.6,0.2,1.2,0.4,1.8,0.5
	v-0.8c1.4-0.4,2.6-1.1,3.5-2.1c2.9-0.7,4.8-2.6,5.4-5.1c4-3.2,8.5-5.8,13.2-7.9c5.3,0.9,11.5,1.7,15.3,5.3c1,0.2,1.8,0.8,2.3,1.5
	c0.3,11.3-2,22.3-3.6,33.7c-1.9,2.3-3.9,4.6-6.6,6.3c-2.9,2-0.2,6.7,2.8,4.8c0.9-0.7,2-1.2,2.8-2.1c-0.5,5.4,0.1,11,2.1,16.2
	c2.3,6.1,6.1,11.6,9.3,17.4c0.7,1.2,1.8,1.5,2.7,1.2c2.1,1.9,4.2,3.4,6.5,5c1.6,0.3,3.3,0.6,4.9,0.8c0.1,0.8,0.1,1.9,0.2,2.6
	c0.3,0.2,0.5,0.4,0.8,0.6c1.6,1.2,3.2,2.6,4.8,4c1,2.6,2,5.3,2.7,7.9l-0.5-0.3c0.2,0.4,0.4,0.6,0.7,0.8c2.3,8.2,3.9,16.6,4.8,25.4
	c-0.7,6.1-0.8,12.1,0.1,18.1c-0.2,1.4-0.3,2.8-0.4,4.1c-0.2,1.5-0.4,3-0.7,4.5c-3.5,7.6-8.1,14.9-14.6,19.9
	c-2.8,2.2,1.1,6.1,3.8,3.8c0.7-0.6,1.2-1,2-1.6c-4.6,5.5-10.1,10.8-12.1,18c-0.4,1.4,0.7,3,2.1,3.5c-0.2,1.6-0.5,3.2-0.6,4.8h0.1
	c0.8,0.3,1.7,0.6,2.6,0.8c-0.6,0.8-0.7,1.9-0.4,2.9c3.7,3.7,6.9,7.7,9.3,12.3c8.9,15.7,10.4,35,5.1,52.1c-1.2,4-3.9,7.1-6.9,10
	c-1.4,2-3.1,3.7-5.1,5.5c4.2,16.8,5.3,34.7,2,51.8c-1.1,6.8-6.5,12.4-5.4,19.5c-0.2,10.8,4.8,20.6,7.6,30.6
	c1.9,6.9,4.4,13.4,6.7,20.2c-2.1-1.8-4-3.7-6.1-5.3c0,4-0.1,8.1-0.4,12.2c-2.5,3.9-3.4,8.5-3.7,13.2c5.8,0.2,11.9-0.2,17.1,2.9
	c6,3.8,11,9.4,13.8,15.9c2.3,9.9,5.5,20,3.2,30.1c-5.3,7.7-15.4,9-23.7,11.8c-8.9,3.3-18.4,3-27.5,5.2c-16.2,2.2-30.8-6.8-46.2-9.9
	c-4-4.8-9.6-7.8-14.5-11.6c-6.5,5.4-12.8,11.5-20.9,14.2c-11.5,4-22.6,8.4-34.5,11.3c-14.4,3.2-28.3-3.3-42.4-5.1
	c-5.4-3.6-14.2-5.5-15-13.3c-0.1-10.3,3.1-20.5,6.9-29.9C358.3,512.3,369.4,506.9,380.2,507.4L380.2,507.4z"/>
<path class="st1" d="M499.9,140.5c-9.2,5.3-19.5,6.4-29.5,7.5c-3.7-9.2,4-7.7,7.1-8.9c9-1.9,17.5-6.1,25.7-10.4
	c1.4-0.8,2.8,0.6,4,1.2c0.6,3.4-0.2,6.6-1.7,9.3C503.9,140,501.8,139.4,499.9,140.5L499.9,140.5z M483.9,234.3
	c0.1-0.1,0.1-0.2,0.2-0.4C484,234.2,484,234.3,483.9,234.3z M421,245.6c5.1,9.7,13.1,17.6,24.2,18.7c7.2,0.5,13.8-1.5,19.4-5.1
	c-6,4.5-13.2,6.9-21.4,6.5c-10.9-1.1-19-8.6-23.9-18.1C419.9,246.9,420.5,246.3,421,245.6L421,245.6z M416,249.6
	c-0.1-0.2-0.2-0.4-0.2-0.6c0.6-0.2,1.2-0.4,1.7-0.6C417,248.9,416.7,249.4,416,249.6L416,249.6z M476.5,251.2c-0.7-0.6-1.2-1-2-1.6
	c0.5-0.7,0.9-1.2,1.3-2.1l0.1,0.1c0.8,0.8,1.6,1.4,2.4,2.1c-3.7,6-8.4,11.2-14.5,15.2C469.1,261.3,473.4,256.5,476.5,251.2z
	 M453.7,248.6c-5.1-0.4-11-0.1-15-4C443.9,244.3,450.5,243.7,453.7,248.6z M457,235.1c-10.1,0.9-20.2,0.6-30.1-0.8
	c-2.5-0.4-1.4-3.4,1-3c7.6,1.1,15,1.6,22.6,1.2c3.8-0.2,7.8-0.6,11.7-1.1c2.6-0.4,6.1,0.2,6-3.5c0.4-2,4.2-1.1,3.8,0.8
	C472,235.8,461.9,234.3,457,235.1L457,235.1z M426.1,103.7c2.3-0.4,4.7-0.8,7-0.9C430.9,103.7,428.6,104,426.1,103.7z"/>
<path class="st1" d="M337.5,217.2c2.1,0.8,4,1.6,6.1,2.3c0.4,8.5,3.8,16.5,4.6,24.9c0.8-0.2,2.2-0.6,2.8-0.8
	c3.2,4.7,6.2,9.7,9.5,14.4c-0.7,0.2-1.2,0.2-2,0.4c-0.4,0.4-0.8,0.7-1.1,0.9c1.4,0.2,3,0.2,4.4,0.6c0.9,1.2,2,2.6,3,3.8
	c0.4,4,1.1,8.1,1.6,12.1h-0.1c-0.5,0.2-0.9,0.3-1.5,0.4c0.4,0.5,0.5,1,0.5,1.8c-0.2,3.3,0.4,6.5,0.8,9.5c-1,1.2-2.1,2.6-3,3.9
	c-3.6,5-6.4,10.2-8.1,16.1c-2.3,9.6-3,19.5-2.3,29.4c-0.4,7.2,0.4,13.9,2.6,19c0.1,0.5,0.2,0.8,0.3,1.3c0.6,2.8,3.6,4,5.4,6
	c-0.4,0.8-0.8,2.2-1.2,2.9c4,0.8,9.4,0.4,12.2,3.7c-1.9,16.1-2.4,32.5,1,48.3c1.2,5.1,3.7,9.6,4.9,14.5c0.8,5.1-0.1,10-0.9,14.8
	c-1.9,5.6-2.9,11.1-2.8,17c-1.7,6.3-4.9,12.2-8.5,17.5c2.1-0.1,4.1-0.2,6.2-0.4c-0.6,5.4,0.8,10.6,2.4,15.7c0.8,0.1,0.9,0.1,1.9,0.2
	c1.1-2.2,2.3-4.2,3.7-6.3c0.8,5.5,0.9,11.3,0.8,16.9c-11-0.3-22.2,5.1-29.6,13c-3.8,9.6-6.9,19.9-6.9,30.2
	c0.8,7.8,9.6,9.9,15.1,13.4c14.2,1.7,28.3,8,42.8,4.8c11.8-2.9,23.2-7.6,34.7-11.6c8.2-2.8,14.6-9,21-14.5c5,3.8,10.5,6.9,14.6,11.6
	c15.6,3,30.4,11.9,46.7,9.6c9.2-2.3,18.8-2.1,27.8-5.4c8.3-3,18.5-4.4,23.8-12.2c2.3-10.2-1-20.6-3.5-30.4c-3-6.5-8-12.1-14.1-16
	c-5.3-3-11.5-2.6-17.4-2.8c0.4-4.6,1.2-9.3,3.7-13.3c0.2-4,0.3-8.2,0.3-12.3c2.1,1.8,4,3.7,6.1,5.3c-2.3-6.8-5.1-13.4-6.9-20.3
	c-2.8-10.2-7.9-20-7.9-30.9c-1.2-7.2,4.4-12.9,5.4-19.7c3.3-17.4,2.2-35.4-2.3-52.3c2-1.9,3.7-3.7,5.1-5.6c2.9-2.9,5.7-6.1,6.9-10.1
	c5.4-17.3,3.7-36.8-5.4-52.5c-2.4-4.7-5.8-8.5-9.5-12.3c-0.4-1.1-0.2-2.1,0.4-2.9c-0.9-0.3-2-0.6-2.6-0.8c0,0-0.1,0-0.1-0.1
	c0.5-4.3,1.1-8.5,1.6-12.8c2-2.2,3.8-4.4,5.6-6.7l2.6-0.3c-0.4-0.4-0.8-0.8-1.2-1.2c-0.1,0-0.1,0-0.2-0.1c1.9-2.3,3.7-4.5,5.2-6.9
	c6.1-14.5,10-30,9.1-45.8c0.8-0.1,2.7-0.1,3.7-0.2c-1.7-10.2-5.4-20.3-11.5-28.7c2.4,1.3,5,2.6,7.5,3.8c-3.5-6.5-9-11.2-14.5-15.8
	c-0.3-0.2-0.5-0.4-0.8-0.6l-0.2-2.7c-1.6-0.3-3.4-0.6-5-0.8c-5.3-3.7-10.6-7.5-13.2-13.5c-2.4-5.7-4.1-11.7-6.1-17.6h0.2
	c-0.3-0.8-0.4-1.6-0.4-2.3c0.1-0.8,0.2-1.5,0.4-2.2c0.1-0.3,0.2-0.6,0.3-0.8c-0.8-1-0.8-2.3,0.2-3.7c6.3-8.4,10.1-20.7,8.4-31.1
	c-0.6-3.7-2-6.9-3.6-10.1c-0.8,0.1-1.4,0.2-2.2,0.4c-0.2-1.6-1.2-2.9-3-3.3c-4-3.7-10.2-4.4-15.6-5.3c-4.7,2.2-9.3,4.8-13.2,8
	c-0.8,2.4-2.6,4.5-5.5,5.2c-0.8,0.9-2.1,1.7-3.6,2.1v0.8c-0.6-0.2-1.2-0.4-1.8-0.5h-0.5c-1.8,0-3.3-0.5-4.5-1.2
	c-23-5.1-47.9-1.6-68.8,9.1c-2.1-2.8-4-5.4-6.1-8.3c-0.8-0.4-2.3-1.2-3-1.6c-3.2,0.6-6-1.1-8.6-2.3c-6.1-3.6-13.4-0.8-19.9,0.2
	c0.2,0.1,0.2,0.2,0.4,0.3c-0.2-0.1-0.4-0.2-0.5-0.2c-5.1,4.4-8.2,10.1-9.7,16.4c-2.6,4.5-2.7,10.4-1.8,15.4c0.3,1.4,0.8,2.7,1.2,4
	c0.3,1.6,0.6,3.2,0.9,4.8c0.6,0.8,1.2,1.7,1.9,2.4c0.5,0.6,1.3,1.2,2.2,2.2c0.5,0.5,0.8,0.8,1.1,1.2l0.4,0.8c0.1,0,0.1,0,0.2-0.1
	l-0.1,0.1c0.1,0.1,0.1,0.2,0.1,0.2c0.4,0.8,1,2.2,1.8,3.3c0.1,0.2,0.1,0.3,0.2,0.4c0.3,0.8,0.4,1.7,0.4,2.5c0.3,0.2,0.6,0.4,0.8,0.6
	c-0.8,2.3-1.7,4.7-2.1,7.2c-1.8,9.8,0.4,20.2-4,29.6c-2.8,6.8-9,11-13.4,16.6l5.7-0.3c-2,3.2-3.7,6.5-5.1,9.9
	C339.8,198.2,337.1,208.7,337.5,217.2L337.5,217.2z M517,89.2V89c0.1,1.4-0.1,2.8-0.4,4.3c-0.1-0.4-0.1-0.8-0.2-1.1
	C516.3,91.1,516.4,90.1,517,89.2L517,89.2z M522.9,150c-3.4-0.6-6.7-1.2-10-1.6c-4.7-0.6-9.4-0.8-14.2-0.6
	c-6.1,0.4-12.1,1.4-18.1,2.4c-6.1,1.1-12,3-18.1,4.2c-4,0.8-22.5,3.1-26.8,3.2c-0.8-0.1-1.8-0.1-2.6-0.2c-7.7-0.6-15.1-2.1-22.7-3.3
	c2.1-0.6,4,0.3,6.1-0.1c2.1-1.8,3.4-4,3.4-6.6c-1.2-0.8-2.3-2.1-4-1.6c-9.3,1.8-18.6,3.7-28.2,3.4c-3.3,0.4-10.8-2-9,4.8
	c-1.9,0.4-3.7,0.7-5.4,1c-4.5,1-8.6,2.8-13.2,3.7c-0.6,0.1-1,0.2-1.6,0.4c2.2-9.5,1.4-20.4,4-29.8c-0.1-0.8,0.2-1.5,0.7-2.3
	c0.5-0.7,0.8-1.2,1-2l-0.8-1.5c1.7-0.8,3.4-2.2,4.2-2.7c1.4-0.9,2.8-2.1,4.2-3c1.2-0.8,3.8-2.1,4.4-3.5l0.4-0.8
	c-0.2-0.5-1.1-1.2-2-1.9c0.1,0.1,0.1,0.2,0.2,0.2c-0.2,0-0.5,0.1-0.8,0c-1.5-0.8-2.7-2-3.8-3.3c0.6,1.2,1.3,2.3,2.3,3.4
	c-0.6,0-1.1-0.1-1.6,0.1c-2-1.2-3.7-2.9-5.1-4.9c-0.8-1-1.4-2.3-2.3-3.5c0.2,2.8,1.5,5.3,2.6,7.8c-5.6-4.6-7.7-12.1-8.4-19.1
	c-0.7,3-0.2,6.2,0.1,9.3c-2.1-4.7-2.1-10-0.9-15c-0.2-0.5-0.2-0.8-0.4-1.3c-0.2,0.2-0.3,0.4-0.4,0.6c1.2-2.9,3.4-5.4,6.4-7.4
	c0.9-0.7,2.1-0.8,2.8-0.5c7.4-3.4,18.4-0.8,23.8,5.3c0.8,0.3,1.5,0.6,2.2,0.8c0.6,0.2,0.8,0.5,1.2,0.8c0.4-0.6,0.6-1.1,0.8-1.5
	c0.9,3.1,2.2,6.1,3.6,9.1c0.6-0.6,1.4-0.8,2.4-0.8v-3.1c5.3-3.5,11.5-5.1,17.6-5.9c0.4,0.4,0.6,0.8,0.8,1.1c1.5-1.2,3.4-2.3,5.7-2.8
	c1.1-0.3,2.2-0.4,3.4-0.5l-0.4-0.2c14.9-3.7,30.7-4,45.4,0.4c0.2,1.2,0.5,2.3,0.7,3.5c0.6-0.5,1.4-0.8,2.3-0.8h0.4l0.8-2.5
	c0.8-0.1,2.6-0.3,3.6-0.4c0.2-0.9,0.5-3,0.6-3.9c5.4-4.8,10.6-12.1,18.8-11.5c3.4-0.4,6.4,0.8,9.2,2.3c-0.2,0.1-0.2,0.2-0.4,0.3
	c-0.4,0.1-0.8,0.1-1.2,0.1c1.3,1.6,2.6,3.4,3.7,5.1c0,0.2-0.1,0.3-0.1,0.4c0.8,1.2,1.3,2.6,1.5,4c-0.6-0.8-1.1-1.7-1.9-2.3
	c-0.2,0.5-0.2,0.8-0.4,1.3c1,5.1,1.1,10.2-0.9,15c0.2-3.1,0.8-6.3,0.1-9.3c-0.8,6.9-2.7,14.5-8.4,19.1c1.1-2.5,2.3-5.1,2.6-7.8
	c-0.8,1.1-1.4,2.3-2.3,3.5c-1.3,2-3.1,3.7-5.1,4.9c-0.6-0.2-1-0.1-1.6-0.1c0.8-1,1.7-2.2,2.3-3.4c-1.1,1.2-2.3,2.3-3.8,3.3h-0.8
	c0.1-0.1,0.1-0.2,0.2-0.2c-0.8,0.6-1.8,1.3-2,1.9l0.4,0.8c0.6,1.3,3.2,2.5,4.4,3.5c1.4,1,2.8,2.1,4.2,3c1.4,0.9,5.1,3.7,7,3.8
	c-0.6,0.6-1,1.1-1.6,1.7c0.8,0.6,1.6,1.2,2.3,1.9c2.2,6.1,3.8,12.3,5.8,18.4C515.1,141.5,518.8,146.1,522.9,150z M413.9,189.9
	c3.7-1.6,7-3.7,10.9-4.6c0.6-0.3,1-0.5,1.6-0.7l0.6-0.2l-1.2,2.8c-3.3,2.6-5.8,5.7-7.6,9.3c-0.3,0.8-0.6,2-0.8,2.8
	c-1.9,1.6-3.7,2.8-5.9,3.8c-6.5,3.1-14,3.7-21,2.6c-1.7-0.4-3.5-0.6-5.1-1c-3-0.8-5.8-2.6-7.9-4.9c-2.1-2.1-3.7-4.6-4.6-7.3
	c-2.3-6.1-4.1-12.4-4.5-19c-0.1-2.3-0.3-4.6,0.6-6.8c0.8-2.4,2.8-4.5,5.1-5.7c3.4-2,7.1-2.6,10.9-3.4c6.9-1.1,13.8-2,20.8-1.6
	c1.6,0.2,3.4,0.3,5,0.6c3.7,0.7,7.6,1.5,11,3c2.6,1.1,5.3,2.6,6.9,5.1c1.3,2,2,4.2,2,6.5c-4.1,0.4-8.4-0.6-12.5-1.8
	c-14.6-4-38.1-14.5-45.2,6.3c3.4-2.3,9.3-4.9,11.5,0.4c3,7,5.9,14.5,13.3,17.7c-1.7-2.4-4-4.5-4.8-7.6c2.6,2.4,4.7,5.8,8.1,7.2
	c-2.4-3.4-5.5-6.3-6.5-10.6c2.6,2.9,4.6,6.6,7.9,8.6c-1.2-2.4-3-4.7-3.8-7.3c8.5,6.1,13,2.1,21.8,0.6
	C418.1,186.6,415.5,187.7,413.9,189.9L413.9,189.9z M416,180.1c-4.4,1.4-9.3,1-13.5-0.2c-3.8-1.2-7.7-3.4-10-6.9
	c-0.8-0.8-1.1-2.9,0.4-3.3s3,0.1,4.5,0.5c5.5,1.6,11.1,3.3,16.6,5c1.5,0.6,3.4,0.9,4.4,2.5C418.5,179.1,416.9,179.7,416,180.1z
	 M432.7,179.6c0.4-1.7,0.9-3.5,1.8-5.1c4.5-2,12.8-3.9,12.8-3.9c5.3-0.5,10,3,12.1,4.9c0.6,1.6,0.9,3.4,1.6,5
	c-2.3-0.8-4.5-1.2-6.9-1.6c-7.9-0.6-15.9,1.2-22.4,4.8C431.9,182.4,432.2,180.9,432.7,179.6L432.7,179.6z M522,183.1
	c-0.8,2.8-1.5,5.5-3,8c-2.3,4.2-6.4,7.4-10.9,8.8c-3.7,1.1-7.6,1.8-11.5,2c-5.4,0.2-10.9-0.8-15.7-3.2c-1.6-2.9-3.6-5.6-5.8-8.3
	c-2.3-2.9-5.2-5.3-8.2-6.9l-0.2-0.4c-0.3-0.6-0.6-1-0.8-1.6h0.1c0.6,0.2,1.2,0.4,1.7,0.7c3.9,0.9,7.7,3,11.5,4.6
	c-1.7-2.2-4.3-3.4-6.5-4.9c9.3,1.5,13.8,5.4,22.9-0.6c-0.8,2.7-2.7,4.9-4,7.3c3.7-2.1,5.6-5.8,8.4-8.6c-0.8,4.3-4.2,7.2-6.9,10.6
	c3.7-1.5,5.7-4.8,8.5-7.2c-0.8,3-3.3,5.1-5.1,7.6c7.8-3.1,10.8-10.7,14-17.7c2.3-5.2,8.4-2.7,12-0.4c-7.5-20.8-32.1-10.4-47.6-6.3
	c-4.2,1.2-8.5,2.2-13,1.8c0-1.5,0.2-2.9,0.8-4.3c0.9-2.4,3-4.4,5.2-5.8c3.4-2.1,6.9-3.4,10.8-4.4c6.1-1.8,12.7-2.1,19.1-1.8
	c3,0.2,6.1,0.4,9.1,0.7c3.1,0.4,6.2,0.8,9.2,2c2,0.8,3.8,1.8,5.3,3.3c1.6,1.7,2.5,3.9,2.6,6.2C524.6,170.4,523.7,176.7,522,183.1
	L522,183.1z M474.7,174.4c1-1.5,3-2,4.6-2.5c5.8-1.7,11.7-3.4,17.5-5c1.6-0.4,3.2-0.8,4.8-0.5c1.6,0.4,1.2,2.3,0.4,3.3
	c-2.5,3.5-6.5,5.6-10.6,6.9c-4.6,1.2-9.7,1.6-14.2,0.2C476,176.4,474.2,175.8,474.7,174.4z M476.4,195.7c-1.6-1.2-3.1-2.7-4.4-4.3
	C473.5,192.8,475.1,194.2,476.4,195.7z M456.1,463.8l0.9,0.4v0.4l-0.2,0.2c-1.1,1.1-0.9,2.8,0,3.8l0.1,0.1c-0.1,2.6-0.2,5.3-0.3,8
	c12.6,0.8,25.3,2,37.9,3.5c8.6,1,17.6-0.2,26.3-1.6c0.8,1.9,2,3.7,2.8,5.4c-1.2,4-2.6,8-4.4,11.8l9.9-6.4c1.2-2.3,2.6-4.8,4-6.9
	c0.3,5.4,0.3,10.9,0.2,16.3c-9.3,4.4-19.7,7.7-26.5,16.1c4-0.3,7.2-3,10.9-4.5c7.9-3.4,15.9-6.9,24.3-8.5
	c8.6-0.5,16.6,5.6,20.6,12.9c3.5,10.7,6.9,22.3,3.3,33.2c-0.5,0.3-0.9,0.6-1.5,0.8c-0.4-0.8-0.8-1.5-1.2-2.2c-1,0.6-2.2,1.2-3.2,1.8
	l-0.3,0.3c-0.8-2.3-1.4-4.5-2.2-6.8c-0.8-2.6-1.6-5.2-2.5-7.7c-1.6-4.2-3.9-8.4-8.3-10.1c-1.1-0.5-1.6,1.3-0.6,1.9
	c4,1.7,6.1,6.1,7.4,9.9c1.6,4.6,3,9.3,4.5,14.1c-0.8,0.6-1.8,0.8-2.6,1.2c0.1,0.4,0.2,0.6,0.2,0.8c-2.8,0.7-5.4,1.3-8.3,2.2
	c-0.2-0.3-0.3-0.5-0.4-0.8c-3,0.8-6.1,1.2-9.1,1.5c0.2,0.6,0.2,1.1,0.4,1.6l-0.8,0.2v-0.2c-0.7-3-1.2-5.9-2-8.9
	c-0.6-2.6-0.9-5.2-1.9-7.7c-0.8-2.2-2-4.3-3.8-5.7c-1.8-1.2-4-2-6.2-1.2c-1.2,0.4-0.7,2.2,0.6,1.9c2.1-0.7,4,0.4,5.4,1.8
	c1.5,1.6,2.2,3.7,2.7,5.7c1.2,4.9,2.2,9.9,3.3,14.8v0.1c-2,0.6-3.8,0.9-5.8,1.4c-0.2-0.4-0.4-0.6-0.6-0.8l-2,0.8
	c-3,1.2-6.2,2.2-9.4,2.2c0.2,0.1,0.4,0.2,0.6,0.4c-5.1,0.6-10.3,0.4-14.5-2.5c-2.3-0.1-3.9-0.8-5.3-2.1c-1.6-0.6-3-1.1-4.5-1.8
	c-3.2-0.5-6.3-1.2-9.4-2.1c-9.1-1.5-16.6-7-23.9-12.2C454.6,515.1,455.2,489.2,456.1,463.8L456.1,463.8z M525.3,484.5
	c-0.1-0.5-0.1-0.9-0.2-1.6c0.3,0.3,0.6,0.5,0.9,0.6C525.6,483.9,525.4,484.2,525.3,484.5z M437.2,298.6c-1.5-0.8-2.9-1.6-4.4-2.3
	c9.6-2.3,19.4-3.7,29.3-3.4c4,0.6,7.9,1.5,11.7,2.8c5.1,1.9,9.9,4.4,15.1,5.6c1.2,0.3,2.5,0.6,3.8,0.8c2.3,1.2,4.5,2.6,6.5,4.1
	l-7.2,3.7c-2.8,3.1-5.9,6.1-9.3,8.4c-5.4,3.5-9.2,8.6-14.2,12.5c-10.1,7.5-20.5,15-30.8,22c-3.3,1.8-6.5,3.5-9.9,5.1
	c0,0-34.3-24-34.4-44.1c4.4-3.7,9.7-6.5,14.8-8.7c8.6-3.8,18.7-6.9,28.4-6.7L437.2,298.6L437.2,298.6z M477.5,328.3
	c-0.4,0.4-0.6,0.8-0.8,1l-1,0.6C476.4,329.2,476.9,328.8,477.5,328.3z M482.7,323.5c-0.6,0.8-1.2,1.6-1.7,2.5
	c-0.4-0.1-0.8-0.1-1.1,0C480.9,325.3,481.8,324.4,482.7,323.5z M499.3,309.9c-0.5,0.4-0.8,0.8-1.3,1h-0.3
	C498.1,310.7,498.6,310.3,499.3,309.9L499.3,309.9z M502,365.8c-3.4,1.5-6.7,2.5-10.1,3.4c-8.5,0.9-17.4,1.6-26,2.2
	c-4,0.1-7.9,0.2-11.8,0.4c-2.8-0.8-5.5-1.2-8.4-1.6c-2.4-0.3-5.1-0.6-7.6-0.6c0.8,0.8,1.4,2.2,1.3,3.5c-7.7-0.4-15.3-2.1-22.6-4.5
	c3.8-2.6,7.7-5.1,11.7-7.4c1.2,0.2,3.7,0.4,4.8,0.6c13.4-10.9,28.1-19.9,41.3-30.8h0.1C502,316.9,502.6,353.5,502,365.8L502,365.8z
	 M453.9,459.3c-1.8-0.2-3.6-0.5-5.3-0.7c-0.5-0.8-0.8-1.4-1.4-2.1c-0.4-0.6-0.8-0.8-1.5-1c0-0.1-0.1-0.1-0.1-0.1
	c3.7,1.3,7.1,2.6,10.9,3.7c1.6,0.5,3.1,0.8,4.8,1.2c-0.5,0.4-0.8,0.8-1.3,1.2c-0.8-0.4-1.9-0.7-2.8-0.9v0.5
	c-1.1-0.4-2.2-0.8-3.4-0.9C453.9,459.8,453.9,459.5,453.9,459.3L453.9,459.3z M380.1,482.5c0.3-0.2,0.6-0.3,0.8-0.5
	c1.2,2.3,2.3,4.6,3.7,6.9c8.2-6.6,14.7-15.5,26.4-14c13.9,0,27.7,0.4,41.6,1.2c0.1,13,1.6,26,0.8,39c-0.4,8.3,4,16.3,2.2,24.5
	c-4.3,9.3-15.1,11-23.7,14.5c-10.2,4.5-20.6,8.9-31.3,12c-2.9,0.4-5.9,0.4-8.8,0V566c-0.8,0.1-1.4,0.1-2.2,0.1
	c-0.2,0.5-0.8,0.8-1.2,0.4l-0.6-0.4c-0.8,0-1.6-0.1-2.3-0.1c-0.8,0-1.1-0.8-0.8-1.5c-0.7-0.3-1.2-0.5-2.1-0.7
	c-0.1,0.1-0.1,0.2-0.2,0.4c-2.7-0.8-5.4-1.4-8.3-2.2v-0.2c-0.8-0.2-1.6-0.4-2.3-0.5c0.5-3.6,0.8-7,1.6-10.5c0.6-3,1.5-6.9,4.8-8
	c1.1-0.4,0.7-2.2-0.6-1.9c-3.7,1.2-5.1,4.9-5.8,8.4c-0.6,2.3-0.8,4.8-1.1,7c-0.2,1.6-0.5,3-0.7,4.6c-3.7-0.8-7.6-1.5-11-2.9
	c-0.8-0.2-1.6-0.4-2.3-0.7v-0.6c-0.8-0.5-1.6-0.8-2.3-1.4c-0.4-0.3-0.7-0.5-0.8-0.8c2.1-4.6,4.1-9.3,6.4-13.7
	c1.7-3.6,3.8-7.4,7.8-8.9c1.1-0.4,0.7-2.2-0.6-1.9c-4,1.6-6.6,5.2-8.5,9c-2.3,4.6-4.4,9.4-6.5,14.1c-1.2-1.2-2.1-2.8-2.6-4.4
	l-0.9,3.1c-0.8-8.7,0.6-17.7,4.4-25.5c3.4-6.2,10.2-9,16.2-12c11.5-3.7,22.9,0.8,33.9,3.5c-4.5-6.1-12.8-6.8-19.6-8.6
	c0-2.7,0.1-5.4,0-8.2c2,1.2,3.8,2.5,5.8,3.7c-1.3-7.9,4.5-13.4,9.4-18.4c-1.1-0.2-3.4-0.4-4.4-0.6c-3,3.6-6,6.9-8.9,10.5l-6.1-11.7
	c-1.2,2-2.6,3.8-3.9,5.8c-0.3-3.4-0.6-6.7-0.8-10c0.4,0.2,0.8,0.4,1.5,0.6l0.6,6.2C377.8,485.7,378.9,484.1,380.1,482.5L380.1,482.5
	z M344.8,193.2c0.1,0.1,0.2,0.2,0.4,0.3c1-6.7,3.5-13.2,9.4-16.7l-5.1-1.1c4-3.4,6.5-7.3,7.9-11.7c0.1,0.6,0.1,1.1,0.1,1.7
	c-0.1,1.2-0.3,2.5,0.2,3.7c0.4,0.8,1.1,0.9,1.7,1.4c2.1,1.3,3.2,3.7,3.9,5.9c1.2,3.5,2.2,6.9,3.2,10.3c1,3.6,2.2,7,4,10.2
	c2.5,4.3,6.5,7.7,11,9.7c6.4,3,13.6,3.7,20.6,2.9c4.1-0.6,8.3-1.7,12-3.6c0.4-0.2,0.8-0.4,1-0.6c-3.2,6.1-3.5,13.4-2.1,20.7l0.8,0.1
	l2.2,0.2c-0.1-0.6-0.2-1-0.3-1.6c-0.9-4.5-1.2-9.3-0.6-13.7c0-2.2,0.5-4.4,1.2-6.5c2-1.1,3.7-2.3,5.2-3.8c3.4-3.3,5.8-7.2,7.7-11.5
	c6.9-4.5,15.7-6.9,24.5-5.7c3.3,0.2,6.5,0.8,9.7,2.2c0.9,1.8,2.1,3.5,3.2,5.1c-2-1.2-4.4-1.9-6.5-1.1c-8.3,0-13.2,3.4-21.4-0.5
	c-5,0.9-7.7,5.4-10.9,8.8c5.8,8,10.8,21.2,20.7,21.2c8.3,0,16.5-9.9,21.4-19.8c0.4-1.6,0.4-3.2-0.2-4.5c2.1,2.3,4.4,4.4,6.9,6.1
	c1.6,1,3.4,1.9,5.2,2.4c2.2,4,3.7,8.3,4.5,12.6c-0.4-4-1.2-8.1-2.8-12.1c0.8,0.3,1.8,0.5,2.6,0.6c2.6,0.5,5.3,0.6,8,0.6
	c6.9,0.1,14.2-1.2,20.5-4.6c3.4-1.8,6.4-4.4,7.9-7.9c3.2-7.4,5.4-15,7.1-22.9c0.3-1.2,0.8-2.3,1.6-3.3c-0.4-1.7,1-3.1,2.4-3.4
	c0.2-0.1,0.5-0.2,0.8-0.2c0.8-0.4,1.8-0.3,2.4,0.1c4.4,2.1,6.9,8.4,8.6,12.5c2.2,5.1,4.4,10.5,5.1,16c0.2,1.2-0.4,2.2-1.1,2.7
	c1.1,9.3-1.1,19.2-3.7,28c-0.9,3.5-2.2,7.7-4,11.6c-1.2,4.3-4.1,8-7.4,11c-0.6,0.6-1.2,0.8-2.1,0.8c-0.3,0.6-0.6,1.1-0.8,1.6
	c-3.9-0.7-7.9-1-11.8-1.2c-7.9,6.9-17.5,12.3-26.7,18.1c0.1,0.4,0.1,0.8-0.2,1.2c-2.4,4.8-6.1,8.6-10.2,12.1
	c-0.4,0.6-0.8,1.2-1.6,1.2c-5.1,4-10.3,7.9-16.1,10.9c-12.8-1.2-25.5,0.6-38.3,3.7c-5.3-2.3-10-5.4-14.7-8.6c0.4,0,0.8,0,1.1-0.1
	c-0.2-0.6-0.7-1.9-0.8-2.3c-1.4-0.2-2.8-0.3-4.2-0.5c-3.7-2.8-6.7-6-8.9-9.7c-0.2-0.4-0.2-0.8-0.2-1c-8.3-4.8-17-9.2-24.2-15
	c-3.4,0.1-6.6,0.4-10,0.8c-1.6-1.8-3-3.7-4.4-5.4c-5.8-6.1-7.6-14.5-10.9-21.9c-3.7-10.1-2.7-21.1-0.7-31.4c-4.9,1.1-5.8,6-7.2,10
	C341.8,204.9,343.4,197.7,344.8,193.2L344.8,193.2z"/>
<path class="st1" d="M640.6,399.6c1.2-0.8,2.2-2,3.1-3c1.2,1,3.7,1.5,3.7,3.7c-0.8,1-2.2,0.5-3.4,0.3c0,1.2-0.1,2.6-0.3,3.9
	c-0.9-0.7-2-1.2-2.8-2.1l-2,1.8c-0.5-0.9-0.8-2.1-1.3-3c-1.2,0-2.4-0.1-3.7-0.1c1.1-1.8,2.2-3.5,3.5-5.1
	C638.5,397.3,639.2,398.9,640.6,399.6 M553.1,365c0.8-19.1,4.8-37.8,8.8-56.4c-2-3.4-6.5-4.6-8.1-8.3c-0.6-1.6-0.1-4,2-3.8
	c6.5,0.8,12.3,5.6,18.8,3.5c12.3-1.9,24.8-0.8,37,0.9c3.7-2,7.9-6.3,12.1-3.7c2.3,5-3.8,6.9-6.5,9.3c-0.7,11-0.8,22.2-0.8,33.2
	c-1-0.2-2.1-0.2-3.1-0.4c-0.5-11.2,0.4-22.3,0.9-33.6c2.6-2,5.8-3.4,7.2-6.5c-2.9,0.8-5.6,2.5-7.9,4.6c-8.4-2.1-17-1.7-25.5-2
	c-5.8-0.3-11.5,0.9-17.2,1.7c-4.5-1.8-9.1-3.7-13.9-4.4c1.3,4.1,5.9,5.1,8.4,8.2v1.9c-4.2,18.5-7.7,37.4-8.9,56.4
	C556.9,369.2,552.3,367.5,553.1,365"/>
<path class="st1" d="M571.9,309.8c0.9-0.8,2-1.8,2.9-2.4c2,0.1,2.1,2.3,2.7,3.7c-2.2,0.2-3.8,1.2-5.2,3.1l-1.2-1.9l-3.1,1.2
	c0.4-1.1,0.7-2.2,1-3.3c-0.5-0.5-1.3-1.2-1.9-1.8C569.1,307.6,570.6,308.4,571.9,309.8 M596.9,308.7c1.8,0.8,2.7,2.6,3.9,4
	c2.3-0.8,3.8-2.9,5.4-4.8c1.7,1.5,3.2,3.4,3.9,5.4c-1.2-0.2-2.5-0.6-3.7-0.8c-0.2,1.2-0.4,2.6-0.6,3.8c-1.2-0.8-2.3-1.4-3.5-2.2
	c-0.8,1.2-2,2.3-2.8,3.4c-0.4-1.1-0.8-2.3-1.2-3.4c-0.8,0-2.3,0.2-3.2,0.2C595.9,312.5,595.2,310,596.9,308.7 M585.3,309.5
	c-4.4,2.3-8.5,6.7-8.6,12.2c2.3,0.4,4.8,1.2,7.2,0.8c4.3-1.9,7.7-6.4,6.9-11.5C589.1,310.2,587.4,309.3,585.3,309.5 M585.7,318.8
	c-0.2,1.5-2.6,2.6-3.8,1.8C581.7,318.9,584.5,318.3,585.7,318.8 M587.4,314.9c-1.3,2.2-4,2.3-6.2,2.8c1-2.1,2.3-3.9,4.2-5.1
	C586.8,311.6,589,313.8,587.4,314.9 M604.2,325.6c1.9-0.8,3.5-1.7,5.3-2.3c-2.3,4-7.9,6.3-11.9,3.7c-0.9-0.6-3.4-1.7-1.9-3.1
	C598.5,322.9,601.1,326.8,604.2,325.6 M583.8,325.7c3,0.5,5.9,0.2,8.4-1.9C591.1,327.5,586,329.6,583.8,325.7 M576.1,325
	c-2.2,2.6-7.3,2.4-8.5-1C570.2,325,573.1,325.2,576.1,325 M548.8,340.7c0.6-3.8,1.3-7.8,2.6-11.5c0.4-1.1,0.9-1.6,2.2-1.5
	c-0.1,4.4-1.1,8.5-1.9,12.8C551,340.6,549.6,340.6,548.8,340.7 M684.7,371c-1.3-4.1-6.3-4.8-9.9-5.6c-5.1-0.7-10-0.8-15-1.4
	c0.6-1.2,2-2.3,1.8-3.9c-2-3.7-6.3-3.1-9.6-3.4c-15.7-0.1-31.3,0.6-46.9,0.2c-1.8,0.2-3.8,0.2-5.2,1.6c-3,3.3-7.2,4.8-11.2,5.9
	c0.4-2,1.5-3.4,2.4-4.9c0.6-1.2-0.9-1.5-1.6-0.8c-2.1,1.2-3.8,2.7-6.1,3.6c0.2-1.4,0.5-2.8,0.7-4.3c-2.6,1.6-5.1,3.5-8,4.2
	c0.8-1.6,2.2-2.9,3.4-4.4c-2.8,0.4-5.1,2.3-7.9,2.6c1.1-2,2.4-3.7,3.4-5.5c-2.1,0.8-4,1.7-6.1,2.3c3.3-5.3,7.7-10,12.9-13.1
	c4.8-2.8,9.8,0.4,14.2,2.3c3.4,1.9,7.7,1.2,10.4-1.6c-2.3,0.6-4.9,3-7.4,1.7c-3.7-2-7.6-3.8-11.6-5.1c-2.1-4.4-2.4-10-6.1-13.2
	c-4.5,0.6-8.8,2.4-12.6,4.9c-1.9,0.9-2.2,3.4-3,5.1c-1.2-0.1-2.3-0.1-3.5-0.2c1.5,0.7,3,1.1,4.6,1.6c0.9,3.9,1.8,8.1,3.7,11.7
	c-2,2-3.7,4-4.5,6.8c3,0.8,5.1,3.7,8.2,4.3c2.1,1.2,4.4,0,6.5-0.5c2.8,0.4,5.6,0.8,7.7,2.9c4.5,1,9.5-1.2,12.6-4.8
	c15.5,0.6,31-0.3,46.5-0.4c3.4,0.2,7.1-0.4,10.1,1.8c-1.6,1.9-4.2,2.9-5.1,5.4c2.2,0.2,4.4,0.2,6.5,0.4c7.1,0.8,14.6,0.1,21.2,3.7
	c-0.8,5.4-6.9,4-10,7c2.3,0.9,4.9,1.6,7,3c-2.5,6.9-10.5,4.5-15.9,6c-0.2,4.4,5.3,2.8,7.9,2.9c4.8-1.6,10.6-3.7,12.5-9.1
	c0.6-2-1.6-2.6-2.6-3.7C681.1,375.4,684,373.8,684.7,371 M580.1,330c1.3,0.1,1.9,2.8,0.2,2.8C578.9,332.8,578.5,330,580.1,330
	 M581.7,342.6c-0.6-3.1-0.8-6.4-2.2-9.3c0.5,0,1.2,0.1,1.8,0.1c2,2.3,2.6,5.8,4,8.5C584.2,342.2,583,342.4,581.7,342.6 M580.2,343.6
	c-2.8,1.7-5.4,3.7-7.8,6.1c-1.7-4.3-3.3-8.9-3.3-13.5c1.9-3,5.3-4,8.4-4.8C578,335.5,578.9,339.7,580.2,343.6"/>
<path class="st1" d="M598.8,330c-2.6,2.9-6.6,3.6-10,2.1c-0.2-0.6-0.4-1.8-0.5-2.3c2,0.6,3.7,1.2,5.6,1.6
	C595.5,330.9,597.2,330.4,598.8,330 M605.6,333.8c-2,2.6-5.7,3.7-8.4,1.6C600.2,336.1,602.9,335.2,605.6,333.8 M614.1,346.8
	c0.2-0.6,0.6-1.7,0.7-2.3c2.3-0.1,4.8,0,7.1,0.2c0.1,0.5,0.3,1.2,0.4,1.7C619.6,347.7,616.8,347.8,614.1,346.8 M583.1,348.5
	c1.6-1.1,3.7-3.7,5.4-1.6c-2.5,2.6-5.4,5.1-9,6C579.7,350.6,581.7,349.8,583.1,348.5 M586.3,353.5c2-2.7,4.8-4.4,7.6-5.7
	C594.1,351.5,589.4,353.5,586.3,353.5 M620.6,352c-6.1,0.5-12.2,0.4-18.2-0.5c2.3-3.7,6.9-2.7,10.6-2.8c3.7,0.4,7.9-1.1,11.3,1.1
	C623.3,350.6,622.1,352,620.6,352 M596.9,350.6c0.8,3.4-2.6,4.7-5.2,4.4C593.2,353.1,594.5,351,596.9,350.6 M605.6,434.2
	c2.6,1.2,5.4,0.7,8.2,0.3c0.1,0.8,0.4,2.2,0.4,2.9c0.7,0,2,0.1,2.6,0.2c1.2-3.6,2.2-7,2.8-10.8c2.4,1.3,4.9,3,7.6,3.7
	c3.8,0.9,7.9,0.6,11.7,0.4c0.5,3.4,1,6.6,1.6,10c-3,0.2-6.5,0.1-9.1-1.8c-1.8-1.4-3.1-3.5-5.4-4.1c-0.2,5.2,5.4,7.2,9.2,8.8
	c5.2,0.4,10.9-0.6,14.7-4.5c3.9-4.1,8.7-8.8,14.9-7.9c-0.4,2.8-3.7,3.1-4.9,5.3c-1.8,2.5-3.4,5.3-5.5,7.2c-4.4,3.8-10,5.8-15.7,6.3
	c-1.6-0.9-1.8-3.2-2.7-4.8c0.2,1.5,0.5,2.9,0.8,4.4c-1.2,0.1-2.3,0.2-3.7,0.2l0.3,2.3c3.5,1.3,7.1,0.6,10.7,0.4
	c0.4,4.7,0.8,9.3,1.6,13.9h2.8c0.8-5.1-1.2-10-1.2-15c2.3-1.2,4.5-2.7,6.9-3.8c7.8,1.6,15.8,3.3,23.7,2.5c4.5-1.1,9-3.8,11.1-8.3
	c1.2-2.1-0.7-3.8-1.5-5.6c5.9-10.8,12.5-21.6,14.4-34.1c-1.2-2.8-4.2-4-6.9-4.8c-5.8-0.7-11.7-2.1-17.6-0.9
	c-3.2,0.8-4.6,4.1-5.5,6.9c-3,8.3-6,16.8-10.3,24.4c-4.1,1.2-7.9,3.6-11.5,6.1c-2.3,0.6-4.8-1-7.1-1.3c-0.5-4.4-0.5-9,0.8-13.3
	c0.3-2,2.5-0.8,3.7-0.8c6.9,1.2,14.5-2.2,17.6-8.9c2.2-4.8-0.4-10.9-4.5-13.4c-3.4-2.1-7.2-2.8-11-4c3.7-4.3,8-7.7,10.9-12.6
	c0.1-0.6,0.3-1.8,0.4-2.3c-4-3-8.3,1.3-12.5,2c0.4-5.4-4-9.3-8.2-11.7c-3.8-1.3-8.4-2.2-12.1,0.2c-5.2,2.7-8.6,8.3-14.4,10
	c-2,0.8-3.7-0.9-5.4-1.7c0.2,2.6,0.6,5.2,1.2,7.7c-0.6,0-1.6-0.2-2.2-0.2c0.7,3.7,1.9,7.3,3.6,10.7c-3.9,6.5-3.6,14.3-2,21.5
	c1.1,4-0.6,8.3-3.3,11c-1.6-1-3.4-2.1-5.1-2.8C599.2,428.2,601.9,432.7,605.6,434.2 M693.2,400.3c0.4,4-1,7.8-2.6,11.4
	c-3.5,7.9-7.3,15.5-12,22.6c-0.8,0.9-1.3,2.3-2.6,2.6c-3-0.4-5.9-1.2-8.6-2.3c0.4-1.3,0.7-2.8,0.8-4.1c2.6,0.8,5.1,2.1,7.7,2.7
	c1.6-0.8,2.1-3,3-4.5c4.2-8.6,9.9-16.7,12.5-26.3c-4.9-1.9-10-0.6-15-0.9c0.6-2.6,3.4-2.8,5.4-2.8
	C685.7,398.8,689.4,399.6,693.2,400.3 M659.9,441.1c5.9,1.8,11.7,4.3,18,4.2c3.8-0.1,5.8-4,8.7-6c-0.1,4.9-5.3,6.5-8.8,7.9
	c-6.9,0.8-14-0.7-20.8-2.1C658,444,658.9,442.6,659.9,441.1 M663.6,437.1c4.5-0.1,8.6,2.6,13.2,2.3c3.4-2.2,5.4-6,7.5-9.4
	c5-9.3,10-18.5,12.1-29c0.5,0.4,1.3,1.1,1.8,1.4c0.7,3.7-1,7.2-2.3,10.5c-3.7,8.4-8,16.2-12.6,23.9c-1.6,2.6-3.7,5.4-6.9,5.5
	c-5-0.8-9.8-2.2-14.5-3.8C662.1,438.1,663.1,437.5,663.6,437.1 M675.9,432.5c-3.7-1.6-7.3-3.1-11.2-3.9c4.6-8,7.6-17,10.8-25.7
	c5.1-0.8,10.5-2,15.2,0.4C687.1,413.5,681.2,423,675.9,432.5 M643.6,439.8c-0.2-1.3-0.2-2.7-0.3-4.1c1.4,0.4,2.8,0.6,4.2,0.8
	C646.6,438.2,645.3,439.5,643.6,439.8 M624,425.8c-2.1-1.2-5-2.4-4.4-5.4c0.5-7.2,0.2-15.3,4.6-21.5c1.3-2.2,1.2-5.1,3.2-6.9
	c-0.8-2.5-1.7-5.2-1.9-7.9c2.5,0.6,4.4,2.6,5.9,4.7c-1.2-0.4-2.3-0.8-3.7-1c0.6,2,1.8,3.5,2.9,5.1c1.2-0.6,2.3-0.9,3.7-1.3
	c1.5-3,5.1-2.8,7.7-4c3.7-1.2,6.9-3.6,10.4-4.5c-2.2,3.2-5.3,5.4-7.9,8.3c-0.6-0.2-1.5-0.5-2-0.6c0.7,1.2,1,2.5,2,3.6
	c4.3,1.7,9,2.1,13,4.5c2.8,2.3,5.6,6.5,3.7,10.3c-3.9,6.2-12.3,8.4-18.8,5.4c-2.6-1.5-5.1-3.7-7.9-4.5c-0.2,3.7,3.7,5.3,6.1,7.5
	c-0.9,3.4-1.6,6.7-2.2,10.1C633.7,428,628.4,428.2,624,425.8 M613.4,431.8c-3,1.9-6.7,0.8-9.3-1.4c6.1-1.4,9.3-9,7.7-15
	c-1.8-7.6-2-16.6,3.7-22.3c-0.8-1.2-1.6-2.6-2.3-4c2-0.6,3.7-1.3,4.9-3c-1.3-1.2-2.7-2.6-4-4c3.1-2.4,6.7-4.1,9.7-6.8
	c2.2-1.8,4.3-3.8,6.9-5.1c5.1-1.5,10.9,1.1,13.4,6.1c0.9,6.2-5.8,7.9-10,9.9c-2.2-2.4-4.4-5.3-7.7-5.8c-2.1-0.6-3.7,1.5-4.5,3.3
	c-0.6,3.5,0.9,6.8,2.2,9.9c-2.8,3.4-5.7,7-6.4,11.6c-1.2,7.4-1.2,15-2,22.3C615.2,428.9,615.1,431.1,613.4,431.8 M573.1,378.2
	c1.8-3.7,3.7-7.3,6.1-10.5c0.8-1.2,2.2-2,3.7-2c-0.2,3.4-1.2,6.5-1.2,10c4.9-0.7,9.6,0.8,13.5,3.8c2.1-2.3,3.6-5.4,6.5-6.6
	c0.4,1.5,1.2,3.1,0.7,4.8c-1.1,3.7-2,8.4-5.8,9.9c0.8-2.3,1.6-5,2.2-7.5c-1.2,0.9-2.4,2.1-3.7,3.3c-2.2-2.2-4.5-4.7-7.7-5.1
	c-2.9-0.7-5.8,0.2-8.6,1c0-1.7,0-3.5-0.1-5.1C576.9,375.7,575.6,378,573.1,378.2 M539.1,402c3.1-1.6,2-6.1,1.3-8.8
	c1.8-1.4,3.7-2.8,4.6-5.1c0.3-2.2,0.2-4.4,0.3-6.5c2.6-1.7,7.9-4.4,4.8-8.1c-2.5,1.7-5,3.8-7.9,4.8c-3.7-1-6.8-3.7-10.6-4.1
	c-2.6-0.2-6.1-0.8-7.6,2.2c0.1,2.8,2.8,3.9,5,4.9c3.8,1.6,7.9,1,12,1.3c0.1,1.4,0.5,2.8,0.1,4.3c-1,1.2-2.3,2.3-3.6,3.4
	c-4.1-3.2-9-6.1-14.3-5.1c-2.6-0.2-2.7,3.8-0.8,5.1c3.9,3.1,9.3,2.8,13.9,3.4c1,0.8,1.8,2.2,1.8,3.7c-0.7,1.9-2.6,2.4-4.3,2.6
	c-4.4,0-8.5-1.7-12.8-2.8c-0.8,2.2,0.8,3.7,2.5,4.2C528.4,403,534,403.6,539.1,402 M524.9,387.3c2.4,0.6,4.9,1.2,6.9,2.8
	C529.5,389.8,525.8,390.2,524.9,387.3 M527,376.4c3,0.2,6.1,0.7,8.7,2.5C532.6,379.5,529.7,378.3,527,376.4 M558,386.7
	c3-4.7,8.4-9.3,14.1-6.9c0.4,1.2,0.8,2.4,0.9,3.7c1.2,0.1,2.6,0.2,3.7-0.8c-0.3,0.5-0.8,1.3-0.8,1.9c-1.4,0.1-2.9,0.2-4.4,0.2
	c-0.4-1.2-0.8-2.3-1.2-3.6c-4.3,0.8-8.2,3.7-10,7.9c-1.2,2.8-0.6,6-0.6,8.9C555.9,395.7,556.4,390.3,558,386.7 M585.3,388.6
	c1.6-0.4,3.2-0.8,4.8-1.3c-0.6,0.8-1,1.7-1.5,2.5c-1.5,0-3-0.1-4.5-0.2c-0.2-1.5-0.4-3-0.6-4.4C585,385.4,584.8,387.4,585.3,388.6"
	/>
<path class="st1" d="M565.1,387.2c0.8-2,3.1-1.5,4.7-0.9c0.1,1.2,0.1,2.6,0.1,3.8c-2.1,0.5-2.3-1.6-2.9-3c-0.2,0.8-0.5,2.5-0.6,3.4
	C564.9,389.7,564.3,388.7,565.1,387.2 M515.8,428.9c6.8,2.1,12.8,5.8,19.8,7.2c5.4,2.2,11.5,2.9,17.2,4.3c1.2,0.3,2.4,0.3,3.7,0
	l-0.6-5.1c0.7-0.2,2.1-0.6,2.7-0.7c1.2,2.8,2.6,5.4,4.2,8c-3.1,0.4-6.5-0.8-9.3,0.8c4.8,1.2,9.7,1.2,14.5,2.6c1.2,0.6,2.8,1.5,2.7,3
	c-1.2,2-3.4,3.4-3.7,5.9c5.1,0.1,10.2-2.5,15,0.2c-0.7,2-1.2,3.7-1.6,5.8c2.5,0.2,5.3-0.2,7.5,1.2c-0.4,1.2-0.8,2.3-1.1,3.6
	c1.3-1.3,2.1-3,2.2-5.1c-1.7-0.8-3.5-1.6-5.3-2c0.6-2.3-0.2-4.5-1.3-6.4c6.7-1.6,12.4-6.9,14.9-13.5c0.8-1.8-0.2-3.8-2.3-3.4
	c-3.8,2.2-7.2,5.3-11.5,6.5c2-16.9,8.3-32.8,13.7-48.6c0.6-1.4,0.6-3,0.4-4.5c-1.2-0.1-2.1,0.4-2.6,1.3c-3.8,7.4-6.9,15.2-9.2,23.4
	c-8.3,0.9-16.6-1.9-23.4-6.9c-1-1.3-1.2-3.3-2.2-4.7c-2.1,3.4-3.7,7-5,10.9c-1.9-0.4-3.7-0.8-5.4-1.1c-1.8,0.4-3.3,1.5-4.8,2.4
	c-1.2-1.2-2.4-2.4-4.1-2.8c-5.4-1.4-10.9-3.6-16.2-5.3c-3.6-1.1-6.9-3.4-10.7-2.8C514.7,412,512.8,420.9,515.8,428.9 M537.1,412.5
	c0.6,5.5,1.5,11.2,1.4,16.8c-7.6-0.8-14.9-3.5-22-6.4c0.2-5.5,0.6-11.2,0.6-16.7C524.1,407.2,530.3,410.8,537.1,412.5 M594,439.1
	c-1.9,5.4-6.6,9.3-11.7,10.8c0.2-1.6,0.3-3.2,0.5-4.8C586.9,444.4,590.2,441,594,439.1 M550.2,438.1c-1.7-0.8-4.8,0-5.1-2.5l3.8,0.6
	C549.4,436.7,550,437.8,550.2,438.1 M552.7,434.2c-3-0.2-6.7,0.5-8.8-2.3c4.3-1.9,6.9-6,9.5-9.7c-0.6-0.2-1.7-0.5-2.3-0.6
	c-1.9,2.3-3.7,4.7-6.1,6.2c-0.2-3.2-0.2-6.3-0.2-9.4c1.3-1.9,3.7-2.6,5.4-3.9c1.2-1.1,2.6,0.3,3.7,0.7c-0.1,2.3,0,4.8,0.4,7.1
	c3.7-3.4,3.7-8.6,6.1-12.8c3.3,1.7,6.4,3.7,9.8,4.8c4.8,1.9,10,1.8,15,2.3c-2.2,11.7-6.7,23.1-5.4,35.3c-2.5,0.5-5.1,0.6-7.7,0.8
	c0.2-1.8,1.2-3.7,0.4-5.4c-2-1.6-4.2-2.3-6.5-3.7c2.8-1.1,5.4-2.2,8.2-3.7c0.2-0.5,0.6-1.3,0.8-1.9c-1.5,0.6-3,0.9-4.6,1.3
	c-0.1-2.3-0.2-4.7,0-6.9c1.6-2.2,5.1-2.8,5.4-6.1c-2.1,1-3.8,2.3-5.8,3.5c-1.8-3.1-3.1-6.9-6.1-8.9c-2.9-0.8-6.2-0.1-8.3,2.3
	c-2.4,2.8-6.4,5.7-5,10c2.9-4,5.7-8.5,10.1-11c1.1-0.7,2.2-0.5,3,0.6c4.2,4.8,5.4,11.5,4.5,17.7c-1.4-0.2-3.3,0.7-4.4-0.6
	c-1.3-2.8-2-6.3-4.6-8.3C556.9,432.2,555,434.4,552.7,434.2 M542.9,435.5c-1.3-0.7-1.3-1.2-0.1-2
	C544.1,434.2,544.1,434.9,542.9,435.5 M542.1,414.3c-0.6,5.4-0.6,10.9-0.2,16.2c-0.4-0.2-0.9-0.4-1.3-0.5c-1-5.4-0.7-11.1-1.4-16.6
	C540.1,413.5,541.1,413.9,542.1,414.3 M540.5,432.4c0.1,0.6,0.2,1.6,0.3,2.2c-7.1-1.9-14.2-3.7-21-6.5c-0.9-0.4-1.9-0.9-2.5-1.8
	C525,428,532.7,430.3,540.5,432.4"/>
<path class="st1" d="M564.2,400c-0.8,0-2.1,0-2.8-0.1c-0.4-2-0.4-3.7-0.1-5.6c0.6,0.2,1.8,0.5,2.3,0.6
	C563.9,396.6,564,398.3,564.2,400 M569.9,404.1l-3.4-2.2l-0.2-5.6c0.6,0.2,1.6,0.4,2.2,0.5C569.1,399.1,569.5,401.6,569.9,404.1
	 M575.2,405.2c-2.6-1.7-3.6-5-3.2-8C575.5,398.1,575,402.2,575.2,405.2 M581.4,404.1c-2.5-0.8-3.8-2.8-3.7-5.4
	c0.6,0.1,1.6,0.2,2.2,0.2C580.5,400.5,581,402.2,581.4,404.1 M586.9,403.3c-1-0.6-2.1-1-3.1-1.5c-0.1-0.7-0.2-2-0.2-2.6
	C585.1,400.1,585.9,401.9,586.9,403.3 M135.6,490.9c-6-6.2-13-11.5-20.8-15.3c-7.7-3.8-16.4-6.1-25.1-5.2c-5.1,0.6-9.9,2.1-14.3,4.5
	c0.4-0.1,0.8-0.2,1.2-0.3c-17.1-0.1-33.6-5.5-50.6-7.1c-1.2-0.1-2.3,1.1-2.3,2.3c0,1.4,1,2.3,2.3,2.3c16.7,1.5,33,6.9,49.9,7.1
	c1.9,0,3.6-1.3,5.3-2.1c1.5-0.7,3.1-1.1,4.7-1.5c3.1-0.8,6.4-0.9,9.6-0.8c6.6,0.4,13,2.5,18.7,5.6c6.8,3.6,12.8,8.3,18.1,13.7
	C134.4,496.3,137.7,493,135.6,490.9z M542.9,466.7c7,2.7,13.9,6.1,20.7,9.5c1.7,0.8,3.5,1.6,5.3,2.3c1.7,0.7,3.5,1.2,5.3,1
	c2-0.2,3.9-0.8,5.9-1.3c1.9-0.5,3.8-0.8,5.7-1.2c7.8-1.6,15.6-2.8,23.6-3.3c7.9-0.5,15.6,0.1,23.4,0.8c15.6,1.4,31.2,3.1,46.7,3.8
	c15.8,0.7,31.5,0.3,47-2.4c0.8-0.2,1.6-0.4,2.4-0.3c0.8,0.1,1.7,0.2,2.4,0.3c1.6,0.3,3.2,0.6,4.7,1c3.2,0.8,6.2,2,9.2,3.4
	c6.2,2.7,12,6.1,18.1,9c1.6,0.8,3.1,1.4,4.7,2.2c1.1,0.5,2.5,0.4,3.2-0.8c0.6-0.9,0.4-2.7-0.8-3.2c-12.4-5.3-23.8-13.5-37.3-15.9
	c-1.7-0.3-3.7-0.8-5.4-0.6c-2,0.2-3.9,0.7-5.9,1c-3.8,0.6-7.7,1-11.5,1.3c-7.8,0.7-15.6,0.8-23.4,0.7c-15.8-0.3-31.5-1.9-47.2-3.4
	c-7.7-0.8-15.5-1.7-23.3-1.7c-8,0-16,0.9-23.8,2.3c-3.9,0.7-7.9,1.4-11.8,2.3c-2,0.5-3.9,0.8-5.9,1.3c-1.7,0.4-3-0.1-4.5-0.7
	c-6.9-2.8-13.4-6.6-20.4-9.5c-1.9-0.8-3.7-1.5-5.5-2.3c-1.2-0.5-2.5,0.5-2.9,1.6C540.9,465.2,541.8,466.3,542.9,466.7L542.9,466.7z"
	/>
</svg>
