<?xml version="1.0" encoding="utf-8"?>
<!-- Generator: Adobe Illustrator 25.3.1, SVG Export Plug-In . SVG Version: 6.00 Build 0)  -->
<svg version="1.1" id="Capa_1" xmlns="http://www.w3.org/2000/svg" xmlns:xlink="http://www.w3.org/1999/xlink" x="0px" y="0px"
	 width="800px" height="600px" viewBox="0 0 800 600" style="enable-background:new 0 0 800 600;" xml:space="preserve">
<style type="text/css">
	.st0{fill:#FFFFFF;}
	.st1{fill:#020203;}
</style>
<g>
	<path d="M48,414.4c-3.1-0.8-5.6-1.9-7.6-3.3c-0.8-0.6-1.3-1.2-1.7-1.8c-0.3-0.6-0.5-1.4-0.5-2.4c0-1.4,0.4-2.5,1.2-3.5
		c0.8-1,1.8-1.5,2.8-1.5c0.6,0,1.2,0.1,1.7,0.3c0.5,0.2,1.2,0.5,2,1c1.9,1,3.7,1.8,5.5,2.2c1.8,0.5,3.9,0.7,6.2,0.7
		c2.7,0,4.7-0.4,6.1-1.2c1.4-0.8,2.1-2,2.1-3.5c0-1-0.6-1.9-1.9-2.7c-1.3-0.7-3.7-1.5-7.4-2.2c-4.5-1-8-2.1-10.5-3.4
		c-2.5-1.3-4.3-2.9-5.3-4.6c-1-1.8-1.5-3.9-1.5-6.5c0-2.9,0.9-5.5,2.6-7.9c1.7-2.4,4.1-4.2,7.1-5.5c3-1.3,6.4-2,10.1-2
		c3.3,0,6.2,0.4,8.8,1.1c2.6,0.7,4.9,1.9,7.1,3.4c0.8,0.6,1.4,1.2,1.7,1.9c0.3,0.7,0.5,1.5,0.5,2.4c0,1.4-0.4,2.5-1.2,3.5
		c-0.8,1-1.7,1.5-2.8,1.5c-0.6,0-1.1-0.1-1.6-0.2c-0.5-0.2-1.2-0.5-2.1-1.1c-0.2-0.1-0.9-0.5-1.9-1.1c-1.1-0.6-2.3-1-3.7-1.4
		c-1.4-0.3-3-0.5-4.6-0.5c-2.3,0-4.2,0.4-5.6,1.3c-1.4,0.9-2.1,2-2.1,3.5c0,0.9,0.2,1.6,0.7,2.1c0.5,0.5,1.4,1.1,2.8,1.6
		c1.4,0.5,3.4,1.1,6,1.6c4.3,1,7.8,2.1,10.2,3.4c2.5,1.3,4.3,2.9,5.3,4.6c1,1.8,1.6,3.8,1.6,6.2c0,3-0.8,5.6-2.5,7.9
		c-1.7,2.3-4,4-7,5.3c-3,1.2-6.5,1.9-10.5,1.9C54.5,415.6,51.1,415.2,48,414.4z"/>
	<path d="M95.2,412.6c-3.6-2-6.4-4.9-8.3-8.5c-1.9-3.7-2.9-8-2.9-13c0-5,1-9.3,2.9-13c1.9-3.7,4.7-6.5,8.3-8.5c3.6-2,7.8-3,12.7-3
		c4.9,0,9.1,1,12.7,3c3.6,2,6.4,4.8,8.3,8.5c1.9,3.7,2.9,8,2.9,13c0,5-1,9.3-2.9,13c-1.9,3.7-4.7,6.5-8.3,8.5c-3.6,2-7.8,3-12.7,3
		C103,415.6,98.7,414.6,95.2,412.6z M116.4,402.2c2-2.6,3.1-6.3,3.1-11.2c0-4.9-1-8.6-3.1-11.1c-2.1-2.5-4.9-3.8-8.4-3.8
		c-3.6,0-6.4,1.3-8.5,3.8c-2,2.5-3.1,6.2-3.1,11.2c0,4.9,1,8.7,3.1,11.2c2,2.5,4.9,3.8,8.5,3.8C111.5,406,114.3,404.7,116.4,402.2z"
		/>
	<path d="M149.2,412.6c-3.6-2-6.4-4.8-8.3-8.5c-2-3.7-3-8.1-3-13c0-4.9,1-9.3,3-13c2-3.7,4.7-6.6,8.3-8.5c3.6-2,7.8-3,12.6-3
		c5.7,0,10.8,1.5,15.1,4.5c0.8,0.5,1.3,1.1,1.7,1.8c0.3,0.6,0.5,1.4,0.5,2.4c0,1.4-0.4,2.6-1.2,3.6c-0.8,1-1.8,1.5-2.9,1.5
		c-0.7,0-1.3-0.1-1.8-0.3c-0.5-0.2-1.2-0.5-1.9-1c-1.6-1-3.1-1.6-4.5-2c-1.4-0.4-2.9-0.6-4.3-0.6c-4,0-7,1.2-9,3.6
		c-2,2.4-3,6.1-3,11c0,5,1,8.7,3,11.1c2,2.4,5,3.6,9,3.6c1.4,0,2.7-0.2,3.9-0.6c1.3-0.4,2.9-1.1,4.9-2c1-0.5,1.7-0.8,2.1-1
		c0.5-0.2,1-0.3,1.6-0.3c1.1,0,2.1,0.5,2.9,1.5c0.8,1,1.2,2.2,1.2,3.6c0,0.9-0.2,1.8-0.5,2.4c-0.3,0.7-0.9,1.3-1.7,1.8
		c-4.3,3-9.4,4.5-15.1,4.5C157,415.6,152.8,414.6,149.2,412.6z"/>
	<path d="M186.8,413.7c-1.1-1.1-1.7-2.6-1.7-4.5v-36.3c0-1.9,0.6-3.3,1.7-4.4c1.1-1.1,2.6-1.7,4.5-1.7c1.9,0,3.5,0.6,4.6,1.7
		c1.1,1.1,1.7,2.6,1.7,4.4v36.3c0,1.9-0.6,3.4-1.7,4.5c-1.1,1.1-2.7,1.7-4.6,1.7C189.4,415.4,187.9,414.8,186.8,413.7z"/>
	<path d="M252.7,409.8c0,1.5-0.6,2.8-1.8,3.8c-1.2,1-2.6,1.6-4.1,1.6c-1,0-2-0.3-2.8-0.8c-0.9-0.5-1.5-1.4-2-2.4l-3.1-6.9h-22
		l-3.1,6.9c-0.5,1.1-1.2,1.9-2.1,2.4c-0.9,0.5-1.8,0.8-2.9,0.8c-1.5,0-2.9-0.5-4.2-1.6c-1.2-1-1.9-2.3-1.9-3.8
		c0-0.8,0.2-1.7,0.6-2.5l17.9-36.8c0.6-1.2,1.5-2.2,2.6-2.8c1.2-0.7,2.4-1,3.8-1c1.4,0,2.6,0.3,3.8,1c1.2,0.7,2.1,1.6,2.6,2.8
		l17.9,36.8C252.5,408.2,252.7,409,252.7,409.8z M221.1,395.7h13.6l-6.8-15.1L221.1,395.7z"/>
	<path d="M259.5,413.5c-1-1-1.5-2.4-1.5-4.3v-36.2c0-1.9,0.6-3.3,1.7-4.4c1.1-1.1,2.6-1.7,4.5-1.7c1.9,0,3.5,0.6,4.6,1.7
		c1.1,1.1,1.7,2.6,1.7,4.4v32h15.6c3.9,0,5.9,1.7,5.9,5.1c0,1.7-0.5,3-1.5,3.8c-1,0.8-2.5,1.2-4.4,1.2h-22.3
		C261.9,415,260.4,414.5,259.5,413.5z"/>
	<path d="M308.4,372c0.5,0.6,0.8,1.3,0.8,2.2v18.7c0,0.9-0.3,1.6-0.8,2.1c-0.5,0.5-1.2,0.8-2,0.8c-0.8,0-1.5-0.3-2-0.8
		c-0.5-0.5-0.8-1.2-0.8-2.1v-10.1l-3.9,7.2c-0.4,0.7-0.8,1.3-1.2,1.6c-0.4,0.3-0.9,0.5-1.5,0.5c-0.6,0-1.1-0.2-1.5-0.5
		c-0.4-0.3-0.8-0.8-1.2-1.6l-3.9-7v9.9c0,0.8-0.3,1.5-0.8,2c-0.5,0.5-1.2,0.8-2,0.8c-0.8,0-1.5-0.3-2-0.8c-0.5-0.5-0.8-1.2-0.8-2.1
		v-18.7c0-0.9,0.3-1.7,0.8-2.2c0.6-0.6,1.3-0.9,2.1-0.9c0.6,0,1.2,0.2,1.7,0.5c0.5,0.4,0.9,0.9,1.3,1.5l6.3,11.9l6.3-11.9
		c0.7-1.4,1.7-2.1,2.9-2.1C307.1,371.1,307.9,371.4,308.4,372z"/>
	<path d="M314.4,394.7c-0.5-0.5-0.8-1.2-0.8-2.2v-18.4c0-0.9,0.3-1.7,0.8-2.2c0.5-0.5,1.2-0.8,2.2-0.8h11.9c1,0,1.7,0.2,2.2,0.6
		c0.5,0.4,0.8,1,0.8,1.8c0,1.6-1,2.5-3,2.5h-8.6v4.6h8c2,0,3,0.8,3,2.4c0,0.8-0.3,1.4-0.8,1.8c-0.5,0.4-1.2,0.6-2.2,0.6h-8v5h8.6
		c2,0,3,0.8,3,2.5c0,0.8-0.3,1.4-0.8,1.8c-0.5,0.4-1.2,0.6-2.2,0.6h-11.9C315.7,395.5,314.9,395.2,314.4,394.7z"/>
	<path d="M334.9,394.7c-0.5-0.5-0.8-1.2-0.8-2.2v-18.4c0-0.9,0.3-1.7,0.8-2.2c0.5-0.5,1.2-0.8,2.2-0.8h6.9c2.7,0,5,0.5,6.9,1.5
		c1.9,1,3.4,2.4,4.4,4.2c1,1.8,1.5,4,1.5,6.4c0,2.5-0.5,4.7-1.5,6.5c-1,1.8-2.5,3.2-4.4,4.2c-1.9,1-4.2,1.4-6.9,1.4h-6.9
		C336.1,395.5,335.4,395.2,334.9,394.7z M343.6,390.4c2.4,0,4.1-0.6,5.3-1.7c1.2-1.2,1.8-2.9,1.8-5.3c0-2.4-0.6-4.1-1.8-5.3
		c-1.2-1.1-2.9-1.7-5.3-1.7h-3.1v14H343.6z"/>
	<path d="M361.5,394.9c-0.6-0.6-0.8-1.3-0.8-2.3v-18.4c0-0.9,0.3-1.7,0.8-2.2c0.6-0.6,1.3-0.8,2.3-0.8c1,0,1.8,0.3,2.3,0.8
		c0.6,0.6,0.9,1.3,0.9,2.2v18.4c0,1-0.3,1.7-0.9,2.3c-0.6,0.6-1.3,0.8-2.3,0.8C362.8,395.7,362.1,395.4,361.5,394.9z"/>
	<path d="M394.9,392.9c0,0.8-0.3,1.4-0.9,1.9c-0.6,0.5-1.3,0.8-2.1,0.8c-0.5,0-1-0.1-1.4-0.4c-0.4-0.3-0.8-0.7-1-1.2l-1.5-3.5h-11.1
		l-1.6,3.5c-0.3,0.5-0.6,1-1,1.2c-0.4,0.3-0.9,0.4-1.5,0.4c-0.8,0-1.5-0.3-2.1-0.8c-0.6-0.5-0.9-1.2-0.9-1.9c0-0.4,0.1-0.8,0.3-1.3
		L379,373c0.3-0.6,0.7-1.1,1.3-1.4c0.6-0.3,1.2-0.5,1.9-0.5c0.7,0,1.3,0.2,1.9,0.5c0.6,0.3,1,0.8,1.3,1.4l9.1,18.6
		C394.8,392,394.9,392.5,394.9,392.9z M378.9,385.7h6.9l-3.4-7.7L378.9,385.7z"/>
</g>
<g>
	<path d="M40.6,463.3c-1.8-1-3.2-2.5-4.1-4.5c-1-2-1.4-4.3-1.4-6.9c0-2.6,0.5-4.9,1.4-6.9s2.3-3.5,4.1-4.5c1.8-1,3.9-1.6,6.3-1.6
		c1.6,0,3.1,0.2,4.5,0.7c1.4,0.5,2.7,1.2,3.7,2.1c0.5,0.4,0.7,0.8,0.7,1.4c0,0.4-0.1,0.8-0.4,1.1c-0.2,0.3-0.5,0.5-0.9,0.5
		c-0.4,0-0.8-0.2-1.2-0.5c-1.2-0.9-2.2-1.5-3.1-1.8c-0.9-0.3-2-0.5-3.2-0.5c-2.6,0-4.7,0.9-6.1,2.6s-2.1,4.2-2.1,7.3
		c0,3.2,0.7,5.7,2.1,7.4s3.4,2.6,6.1,2.6c1.2,0,2.2-0.2,3.2-0.5c0.9-0.4,2-1,3.2-1.8c0.5-0.3,0.9-0.5,1.2-0.5c0.3,0,0.6,0.2,0.9,0.5
		c0.2,0.3,0.4,0.7,0.4,1.1c0,0.6-0.2,1.1-0.7,1.4c-1.1,0.9-2.3,1.7-3.7,2.1c-1.4,0.5-2.9,0.7-4.5,0.7
		C44.5,464.8,42.4,464.3,40.6,463.3z"/>
	<path d="M62.6,463.7c-1.3-0.7-2.3-1.8-3-3.2c-0.7-1.4-1.1-3-1.1-4.8c0-1.8,0.4-3.5,1.1-4.8c0.7-1.4,1.7-2.4,3-3.2
		c1.3-0.7,2.8-1.1,4.6-1.1s3.2,0.4,4.6,1.1c1.3,0.7,2.3,1.8,3,3.2c0.7,1.4,1.1,3,1.1,4.8c0,1.8-0.4,3.4-1.1,4.8
		c-0.7,1.4-1.7,2.4-3,3.2c-1.3,0.7-2.8,1.1-4.6,1.1S63.9,464.4,62.6,463.7z M70.8,460.3c0.9-1.1,1.3-2.6,1.3-4.6
		c0-2-0.4-3.6-1.3-4.6c-0.9-1.1-2.1-1.6-3.7-1.6s-2.8,0.5-3.7,1.6c-0.9,1.1-1.3,2.6-1.3,4.6c0,2,0.4,3.6,1.3,4.6
		c0.9,1.1,2.1,1.6,3.7,1.6S69.9,461.4,70.8,460.3z"/>
	<path d="M95.5,453.7v9.4c0,0.6-0.2,1-0.5,1.3c-0.3,0.3-0.8,0.4-1.3,0.4c-0.6,0-1-0.2-1.3-0.5c-0.3-0.3-0.5-0.7-0.5-1.3v-9.2
		c0-1.5-0.3-2.6-0.9-3.3c-0.6-0.7-1.5-1-2.8-1c-1.5,0-2.6,0.5-3.5,1.4c-0.9,0.9-1.3,2.1-1.3,3.7v8.5c0,0.5-0.2,0.9-0.5,1.3
		c-0.3,0.3-0.8,0.5-1.3,0.5c-0.6,0-1-0.2-1.3-0.5c-0.3-0.3-0.5-0.7-0.5-1.3v-14.7c0-0.5,0.2-0.9,0.5-1.2c0.3-0.3,0.8-0.5,1.3-0.5
		c0.5,0,0.9,0.2,1.3,0.5c0.3,0.3,0.5,0.7,0.5,1.2v1.5c0.6-1.1,1.4-1.9,2.4-2.4c1-0.6,2.2-0.8,3.5-0.8
		C93.4,446.6,95.5,448.9,95.5,453.7z"/>
	<path d="M115.1,460.5c0.2,0.3,0.3,0.6,0.3,1c0,0.7-0.4,1.3-1.3,1.8c-0.8,0.5-1.8,0.9-2.8,1.1c-1,0.3-2,0.4-2.9,0.4
		c-2.8,0-5-0.8-6.6-2.4s-2.4-3.8-2.4-6.6c0-1.8,0.4-3.4,1.1-4.8c0.7-1.4,1.7-2.5,3-3.2c1.3-0.8,2.7-1.2,4.4-1.2
		c2.4,0,4.2,0.8,5.6,2.3c1.4,1.5,2.1,3.6,2.1,6.1c0,1-0.4,1.4-1.3,1.4h-11.1c0.2,3.7,2,5.6,5.4,5.6c0.9,0,1.7-0.1,2.3-0.4
		c0.6-0.2,1.3-0.6,2.1-0.9c0.1,0,0.3-0.2,0.6-0.3c0.3-0.2,0.6-0.2,0.8-0.2C114.6,460.1,114.9,460.3,115.1,460.5z M104.7,450.6
		c-0.8,0.9-1.3,2.1-1.5,3.7h9.3c-0.1-1.6-0.5-2.9-1.2-3.8c-0.8-0.9-1.8-1.3-3.2-1.3C106.6,449.2,105.5,449.7,104.7,450.6z"/>
	<path d="M122.6,463.7c-1.3-0.7-2.3-1.8-3-3.2c-0.7-1.4-1.1-3-1.1-4.8c0-1.8,0.4-3.4,1.1-4.8c0.7-1.4,1.8-2.5,3.1-3.2
		c1.3-0.8,2.8-1.2,4.5-1.2c0.9,0,1.8,0.1,2.8,0.4c0.9,0.3,1.7,0.6,2.5,1.1c0.8,0.5,1.2,1.1,1.2,1.8c0,0.4-0.1,0.8-0.3,1
		c-0.2,0.3-0.5,0.4-0.8,0.4c-0.2,0-0.4-0.1-0.6-0.2c-0.2-0.1-0.5-0.3-0.8-0.5c-0.6-0.4-1.2-0.7-1.7-0.9c-0.5-0.2-1.1-0.3-1.9-0.3
		c-1.6,0-2.9,0.6-3.8,1.7s-1.4,2.6-1.4,4.6c0,2,0.4,3.5,1.3,4.6c0.9,1.1,2.1,1.6,3.8,1.6c0.7,0,1.4-0.1,1.9-0.3
		c0.6-0.2,1.1-0.5,1.7-0.9c0.3-0.2,0.5-0.3,0.8-0.4c0.3-0.1,0.5-0.2,0.7-0.2c0.3,0,0.6,0.1,0.8,0.4c0.2,0.3,0.3,0.6,0.3,1
		c0,0.3-0.1,0.6-0.3,0.9c-0.2,0.3-0.5,0.6-0.9,0.8c-0.7,0.5-1.6,0.9-2.5,1.1c-1,0.3-1.9,0.4-2.9,0.4
		C125.4,464.8,123.9,464.4,122.6,463.7z"/>
	<path d="M146.8,462.4c0.2,0.2,0.3,0.5,0.3,1c0,0.5-0.2,0.8-0.6,1.1c-0.4,0.3-0.9,0.4-1.6,0.3l-1-0.1c-1.9-0.1-3.4-0.7-4.4-1.8
		c-1-1-1.4-2.6-1.4-4.6v-8.5H136c-1.1,0-1.6-0.5-1.6-1.4c0-0.4,0.1-0.8,0.4-1c0.3-0.3,0.7-0.4,1.2-0.4h2.2v-3.7c0-0.6,0.2-1,0.5-1.3
		c0.3-0.3,0.8-0.5,1.3-0.5c0.6,0,1,0.2,1.3,0.5c0.3,0.3,0.5,0.7,0.5,1.3v3.7h3.6c0.5,0,0.9,0.1,1.2,0.4s0.4,0.6,0.4,1
		c0,0.5-0.1,0.8-0.4,1c-0.3,0.2-0.7,0.4-1.2,0.4h-3.6v8.7c0,1.1,0.2,2,0.7,2.5c0.5,0.5,1.2,0.8,2.1,0.9l1,0.1
		C146.1,462,146.5,462.2,146.8,462.4z"/>
	<path d="M162.3,448.3c1.1,1.2,1.7,3,1.7,5.4v9.3c0,0.6-0.2,1-0.5,1.3c-0.3,0.3-0.7,0.4-1.3,0.4c-0.5,0-0.9-0.2-1.3-0.5
		c-0.3-0.3-0.5-0.7-0.5-1.3v-1.3c-0.5,1-1.1,1.8-2,2.3s-2,0.8-3.1,0.8c-1.2,0-2.2-0.2-3.2-0.7s-1.7-1.1-2.3-2
		c-0.5-0.8-0.8-1.8-0.8-2.8c0-1.3,0.3-2.3,1-3c0.7-0.7,1.8-1.3,3.3-1.6c1.5-0.3,3.6-0.5,6.3-0.5h0.8v-1c0-1.3-0.3-2.3-0.8-2.9
		c-0.6-0.6-1.4-0.9-2.7-0.9c-0.8,0-1.6,0.1-2.4,0.3c-0.7,0.2-1.6,0.5-2.4,0.9c-0.6,0.4-1.1,0.5-1.4,0.5c-0.4,0-0.7-0.1-0.9-0.4
		c-0.2-0.3-0.3-0.6-0.3-1c0-0.4,0.1-0.7,0.3-1c0.2-0.3,0.5-0.5,1-0.8c0.8-0.5,1.8-0.8,3-1.1c1.1-0.3,2.2-0.4,3.3-0.4
		C159.4,446.6,161.2,447.1,162.3,448.3z M159.2,460.8c0.8-0.9,1.3-2.1,1.3-3.5v-0.9h-0.6c-1.9,0-3.3,0.1-4.3,0.3
		c-1,0.2-1.7,0.5-2.2,0.8c-0.4,0.4-0.6,1-0.6,1.7c0,0.9,0.3,1.6,0.9,2.1c0.6,0.6,1.4,0.8,2.3,0.8
		C157.3,462.1,158.4,461.7,159.2,460.8z"/>
	<path d="M195,453.7v9.4c0,0.6-0.2,1-0.5,1.3c-0.3,0.3-0.8,0.4-1.3,0.4c-0.5,0-1-0.1-1.3-0.4c-0.3-0.3-0.5-0.7-0.5-1.3v-9.3
		c0-1.5-0.3-2.5-0.8-3.2s-1.4-1-2.5-1c-1.3,0-2.4,0.5-3.1,1.3c-0.8,0.9-1.2,2.1-1.2,3.7v8.5c0,0.6-0.2,1-0.5,1.3s-0.8,0.4-1.3,0.4
		c-0.5,0-1-0.1-1.3-0.4c-0.3-0.3-0.5-0.7-0.5-1.3v-9.3c0-1.5-0.3-2.5-0.8-3.2c-0.5-0.7-1.4-1-2.5-1c-1.3,0-2.4,0.5-3.1,1.3
		c-0.8,0.9-1.2,2.1-1.2,3.7v8.5c0,0.6-0.2,1-0.5,1.3c-0.3,0.3-0.8,0.4-1.3,0.4c-0.5,0-1-0.1-1.3-0.4c-0.3-0.3-0.5-0.7-0.5-1.3v-14.7
		c0-0.5,0.2-0.9,0.5-1.3c0.4-0.3,0.8-0.5,1.3-0.5s0.9,0.2,1.2,0.5c0.3,0.3,0.5,0.7,0.5,1.2v1.3c0.5-1,1.3-1.8,2.2-2.3
		c0.9-0.5,2-0.8,3.2-0.8c1.3,0,2.5,0.3,3.3,0.8c0.9,0.6,1.5,1.4,2,2.6c0.5-1,1.3-1.9,2.3-2.5c1-0.6,2.2-0.9,3.5-0.9
		C193.1,446.6,195,448.9,195,453.7z"/>
	<path d="M203.1,463.7c-1.3-0.7-2.3-1.8-3-3.2c-0.7-1.4-1.1-3-1.1-4.8c0-1.8,0.4-3.5,1.1-4.8c0.7-1.4,1.7-2.4,3-3.2
		c1.3-0.7,2.8-1.1,4.6-1.1s3.2,0.4,4.6,1.1c1.3,0.7,2.3,1.8,3,3.2c0.7,1.4,1.1,3,1.1,4.8c0,1.8-0.4,3.4-1.1,4.8
		c-0.7,1.4-1.7,2.4-3,3.2c-1.3,0.7-2.8,1.1-4.6,1.1S204.4,464.4,203.1,463.7z M211.3,460.3c0.9-1.1,1.3-2.6,1.3-4.6
		c0-2-0.4-3.6-1.3-4.6c-0.9-1.1-2.1-1.6-3.7-1.6s-2.8,0.5-3.7,1.6c-0.9,1.1-1.3,2.6-1.3,4.6c0,2,0.4,3.6,1.3,4.6
		c0.9,1.1,2.1,1.6,3.7,1.6S210.5,461.4,211.3,460.3z"/>
	<path d="M220.4,463.3c-0.4-0.3-0.7-0.5-0.9-0.8s-0.3-0.6-0.3-1c0-0.4,0.1-0.7,0.3-1c0.2-0.3,0.5-0.4,0.8-0.4c0.3,0,0.8,0.2,1.5,0.6
		c0.7,0.4,1.4,0.7,2.1,0.9c0.7,0.2,1.5,0.4,2.6,0.4c1.2,0,2.1-0.2,2.7-0.6c0.6-0.4,1-1,1-1.7c0-0.5-0.1-0.9-0.4-1.2
		s-0.7-0.5-1.3-0.8c-0.6-0.2-1.5-0.5-2.8-0.7c-2.1-0.5-3.6-1.1-4.6-1.9c-0.9-0.8-1.4-1.8-1.4-3.2c0-1,0.3-2,0.9-2.8
		c0.6-0.8,1.4-1.5,2.5-1.9c1.1-0.5,2.3-0.7,3.6-0.7c1,0,1.9,0.1,2.8,0.4c0.9,0.3,1.7,0.6,2.4,1.1c0.8,0.5,1.2,1.1,1.2,1.8
		c0,0.4-0.1,0.7-0.3,1c-0.2,0.3-0.5,0.4-0.8,0.4c-0.2,0-0.4,0-0.6-0.1c-0.2-0.1-0.5-0.3-0.9-0.5c-0.6-0.4-1.3-0.7-1.8-0.9
		s-1.3-0.3-2.1-0.3c-1,0-1.8,0.2-2.4,0.6c-0.6,0.4-0.9,1-0.9,1.8c0,0.7,0.3,1.2,0.8,1.6s1.6,0.7,3.2,1.1c1.6,0.3,2.9,0.7,3.8,1.2
		c0.9,0.4,1.6,1,2,1.6c0.4,0.6,0.6,1.4,0.6,2.4c0,1.6-0.7,2.8-2,3.8s-3.1,1.4-5.2,1.4C224,464.8,222,464.3,220.4,463.3z"/>
	<path d="M256.9,462.4c0.2,0.2,0.3,0.5,0.3,1c0,0.5-0.2,0.8-0.6,1.1c-0.4,0.3-0.9,0.4-1.6,0.3l-1-0.1c-1.9-0.1-3.4-0.7-4.4-1.8
		c-1-1-1.4-2.6-1.4-4.6v-8.5h-2.2c-1.1,0-1.6-0.5-1.6-1.4c0-0.4,0.1-0.8,0.4-1c0.3-0.3,0.7-0.4,1.2-0.4h2.2v-3.7
		c0-0.6,0.2-1,0.5-1.3c0.3-0.3,0.8-0.5,1.3-0.5c0.6,0,1,0.2,1.3,0.5c0.3,0.3,0.5,0.7,0.5,1.3v3.7h3.6c0.5,0,0.9,0.1,1.2,0.4
		s0.4,0.6,0.4,1c0,0.5-0.1,0.8-0.4,1c-0.3,0.2-0.7,0.4-1.2,0.4h-3.6v8.7c0,1.1,0.2,2,0.7,2.5c0.5,0.5,1.2,0.8,2.1,0.9l1,0.1
		C256.3,462,256.7,462.2,256.9,462.4z"/>
	<path d="M274.8,447.1c0.3,0.3,0.5,0.7,0.5,1.3V463c0,0.5-0.2,0.9-0.5,1.2c-0.3,0.3-0.8,0.5-1.3,0.5c-0.5,0-0.9-0.1-1.2-0.4
		c-0.3-0.3-0.5-0.7-0.5-1.2v-1.4c-0.6,1-1.3,1.8-2.3,2.3c-1,0.5-2.1,0.8-3.3,0.8c-4.3,0-6.4-2.4-6.4-7.1v-9.4c0-0.6,0.2-1,0.5-1.3
		c0.3-0.3,0.8-0.5,1.4-0.5c0.6,0,1,0.2,1.3,0.5c0.3,0.3,0.5,0.7,0.5,1.3v9.3c0,1.4,0.3,2.5,0.9,3.1c0.6,0.7,1.5,1,2.7,1
		c1.4,0,2.5-0.5,3.4-1.4c0.9-0.9,1.3-2.1,1.3-3.6v-8.5c0-0.5,0.2-1,0.5-1.3c0.3-0.3,0.8-0.5,1.3-0.5
		C274,446.6,274.5,446.8,274.8,447.1z"/>
	<path d="M305.6,453.7v9.4c0,0.6-0.2,1-0.5,1.3c-0.3,0.3-0.8,0.4-1.3,0.4c-0.6,0-1-0.2-1.3-0.5c-0.3-0.3-0.5-0.7-0.5-1.3v-9.2
		c0-1.5-0.3-2.6-0.9-3.3c-0.6-0.7-1.5-1-2.8-1c-1.5,0-2.6,0.5-3.5,1.4c-0.9,0.9-1.3,2.1-1.3,3.7v8.5c0,0.5-0.2,0.9-0.5,1.3
		c-0.3,0.3-0.8,0.5-1.3,0.5c-0.6,0-1-0.2-1.3-0.5c-0.3-0.3-0.5-0.7-0.5-1.3v-14.7c0-0.5,0.2-0.9,0.5-1.2c0.3-0.3,0.8-0.5,1.3-0.5
		c0.5,0,0.9,0.2,1.3,0.5c0.3,0.3,0.5,0.7,0.5,1.2v1.5c0.6-1.1,1.4-1.9,2.4-2.4c1-0.6,2.2-0.8,3.5-0.8
		C303.5,446.6,305.6,448.9,305.6,453.7z"/>
	<path d="M325.2,460.5c0.2,0.3,0.3,0.6,0.3,1c0,0.7-0.4,1.3-1.3,1.8c-0.8,0.5-1.8,0.9-2.8,1.1c-1,0.3-2,0.4-2.9,0.4
		c-2.8,0-5-0.8-6.6-2.4s-2.4-3.8-2.4-6.6c0-1.8,0.4-3.4,1.1-4.8c0.7-1.4,1.7-2.5,3-3.2c1.3-0.8,2.7-1.2,4.4-1.2
		c2.4,0,4.2,0.8,5.6,2.3c1.4,1.5,2.1,3.6,2.1,6.1c0,1-0.4,1.4-1.3,1.4h-11.1c0.2,3.7,2,5.6,5.4,5.6c0.9,0,1.7-0.1,2.3-0.4
		c0.6-0.2,1.3-0.6,2.1-0.9c0.1,0,0.3-0.2,0.6-0.3c0.3-0.2,0.6-0.2,0.8-0.2C324.7,460.1,325,460.3,325.2,460.5z M314.7,450.6
		c-0.8,0.9-1.3,2.1-1.5,3.7h9.3c-0.1-1.6-0.5-2.9-1.2-3.8c-0.8-0.9-1.8-1.3-3.2-1.3C316.7,449.2,315.6,449.7,314.7,450.6z"/>
	<path d="M345.5,447.1c0.3,0.3,0.5,0.8,0.5,1.3v14.8c0,2.7-0.7,4.7-2.1,6.1c-1.4,1.4-3.5,2.1-6.3,2.1c-2.6,0-4.8-0.5-6.5-1.5
		c-0.9-0.5-1.3-1.1-1.3-1.8c0-0.4,0.1-0.7,0.3-1c0.2-0.3,0.5-0.4,0.8-0.4c0.3,0,0.8,0.2,1.5,0.5c0.9,0.4,1.7,0.7,2.4,1
		c0.7,0.2,1.6,0.3,2.7,0.3c3.3,0,5-1.7,5-5v-2.8c-0.5,1.1-1.3,1.9-2.3,2.5c-1,0.6-2.2,0.9-3.6,0.9c-1.5,0-2.9-0.4-4.1-1.1
		c-1.2-0.7-2.1-1.7-2.8-3.1c-0.7-1.3-1-2.8-1-4.6c0-1.7,0.3-3.3,1-4.6c0.7-1.3,1.6-2.3,2.8-3.1c1.2-0.7,2.5-1.1,4.1-1.1
		c1.3,0,2.5,0.3,3.5,0.9c1,0.6,1.8,1.4,2.3,2.4v-1.5c0-0.5,0.2-0.9,0.5-1.3c0.3-0.3,0.8-0.5,1.3-0.5
		C344.7,446.6,345.2,446.8,345.5,447.1z M341.1,459.6c0.9-1,1.3-2.5,1.3-4.3c0-1.8-0.4-3.2-1.3-4.3c-0.9-1-2.1-1.6-3.7-1.6
		c-1.6,0-2.8,0.5-3.7,1.5c-0.9,1-1.4,2.5-1.4,4.3c0,1.8,0.5,3.3,1.4,4.3s2.1,1.5,3.7,1.5S340.2,460.6,341.1,459.6z"/>
	<path d="M354.1,463.7c-1.3-0.7-2.3-1.8-3-3.2c-0.7-1.4-1.1-3-1.1-4.8c0-1.8,0.4-3.5,1.1-4.8c0.7-1.4,1.7-2.4,3-3.2
		c1.3-0.7,2.8-1.1,4.6-1.1s3.2,0.4,4.6,1.1c1.3,0.7,2.3,1.8,3,3.2c0.7,1.4,1.1,3,1.1,4.8c0,1.8-0.4,3.4-1.1,4.8
		c-0.7,1.4-1.7,2.4-3,3.2c-1.3,0.7-2.8,1.1-4.6,1.1S355.5,464.4,354.1,463.7z M362.4,460.3c0.9-1.1,1.3-2.6,1.3-4.6
		c0-2-0.4-3.6-1.3-4.6c-0.9-1.1-2.1-1.6-3.7-1.6s-2.8,0.5-3.7,1.6c-0.9,1.1-1.3,2.6-1.3,4.6c0,2,0.4,3.6,1.3,4.6
		c0.9,1.1,2.1,1.6,3.7,1.6S361.5,461.4,362.4,460.3z"/>
	<path d="M374.4,463.7c-1.3-0.7-2.3-1.8-3-3.2c-0.7-1.4-1.1-3-1.1-4.8c0-1.8,0.4-3.4,1.1-4.8c0.7-1.4,1.8-2.5,3.1-3.2
		c1.3-0.8,2.8-1.2,4.5-1.2c0.9,0,1.8,0.1,2.8,0.4c0.9,0.3,1.7,0.6,2.5,1.1c0.8,0.5,1.2,1.1,1.2,1.8c0,0.4-0.1,0.8-0.3,1
		c-0.2,0.3-0.5,0.4-0.8,0.4c-0.2,0-0.4-0.1-0.6-0.2c-0.2-0.1-0.5-0.3-0.8-0.5c-0.6-0.4-1.2-0.7-1.7-0.9c-0.5-0.2-1.1-0.3-1.9-0.3
		c-1.6,0-2.9,0.6-3.8,1.7s-1.4,2.6-1.4,4.6c0,2,0.4,3.5,1.3,4.6c0.9,1.1,2.1,1.6,3.8,1.6c0.7,0,1.4-0.1,1.9-0.3
		c0.6-0.2,1.1-0.5,1.7-0.9c0.3-0.2,0.5-0.3,0.8-0.4c0.3-0.1,0.5-0.2,0.7-0.2c0.3,0,0.6,0.1,0.8,0.4c0.2,0.3,0.3,0.6,0.3,1
		c0,0.3-0.1,0.6-0.3,0.9c-0.2,0.3-0.5,0.6-0.9,0.8c-0.7,0.5-1.6,0.9-2.5,1.1c-1,0.3-1.9,0.4-2.9,0.4
		C377.2,464.8,375.7,464.4,374.4,463.7z"/>
	<path d="M388.9,442.5c-0.4-0.4-0.6-0.9-0.6-1.5s0.2-1.1,0.6-1.5c0.4-0.4,1-0.6,1.7-0.6c0.7,0,1.2,0.2,1.6,0.6s0.6,0.9,0.6,1.5
		s-0.2,1.1-0.6,1.5c-0.4,0.4-1,0.6-1.7,0.6C389.9,443.1,389.3,442.9,388.9,442.5z M389.3,464.3c-0.3-0.3-0.5-0.7-0.5-1.3v-14.6
		c0-0.6,0.2-1,0.5-1.3c0.3-0.3,0.8-0.5,1.3-0.5c0.5,0,1,0.2,1.3,0.5c0.3,0.3,0.5,0.7,0.5,1.3V463c0,0.6-0.2,1-0.5,1.3
		c-0.3,0.3-0.8,0.4-1.3,0.4C390.1,464.7,389.6,464.6,389.3,464.3z"/>
	<path d="M400.6,463.7c-1.3-0.7-2.3-1.8-3-3.2c-0.7-1.4-1.1-3-1.1-4.8c0-1.8,0.4-3.5,1.1-4.8c0.7-1.4,1.7-2.4,3-3.2
		c1.3-0.7,2.8-1.1,4.6-1.1c1.7,0,3.2,0.4,4.6,1.1c1.3,0.7,2.3,1.8,3,3.2c0.7,1.4,1.1,3,1.1,4.8c0,1.8-0.4,3.4-1.1,4.8
		c-0.7,1.4-1.7,2.4-3,3.2c-1.3,0.7-2.8,1.1-4.6,1.1C403.4,464.8,401.9,464.4,400.6,463.7z M408.8,460.3c0.9-1.1,1.3-2.6,1.3-4.6
		c0-2-0.4-3.6-1.3-4.6c-0.9-1.1-2.1-1.6-3.7-1.6s-2.8,0.5-3.7,1.6c-0.9,1.1-1.3,2.6-1.3,4.6c0,2,0.4,3.6,1.3,4.6
		c0.9,1.1,2.1,1.6,3.7,1.6C406.7,461.9,407.9,461.4,408.8,460.3z"/>
	<path d="M430.3,463.7c-1.3-0.7-2.3-1.8-3-3.2c-0.7-1.4-1.1-3-1.1-4.8c0-1.8,0.4-3.4,1.1-4.8c0.7-1.4,1.8-2.5,3.1-3.2
		c1.3-0.8,2.8-1.2,4.5-1.2c0.9,0,1.8,0.1,2.8,0.4c0.9,0.3,1.7,0.6,2.5,1.1c0.8,0.5,1.2,1.1,1.2,1.8c0,0.4-0.1,0.8-0.3,1
		c-0.2,0.3-0.5,0.4-0.8,0.4c-0.2,0-0.4-0.1-0.6-0.2c-0.2-0.1-0.5-0.3-0.8-0.5c-0.6-0.4-1.2-0.7-1.7-0.9c-0.5-0.2-1.1-0.3-1.9-0.3
		c-1.6,0-2.9,0.6-3.8,1.7c-0.9,1.1-1.3,2.6-1.3,4.6c0,2,0.4,3.5,1.3,4.6c0.9,1.1,2.1,1.6,3.8,1.6c0.7,0,1.4-0.1,1.9-0.3
		c0.6-0.2,1.1-0.5,1.7-0.9c0.3-0.2,0.5-0.3,0.8-0.4c0.3-0.1,0.5-0.2,0.7-0.2c0.3,0,0.6,0.1,0.8,0.4c0.2,0.3,0.3,0.6,0.3,1
		c0,0.3-0.1,0.6-0.3,0.9c-0.2,0.3-0.5,0.6-0.9,0.8c-0.7,0.5-1.6,0.9-2.5,1.1c-1,0.3-1.9,0.4-2.9,0.4
		C433.1,464.8,431.6,464.4,430.3,463.7z"/>
	<path d="M447.7,463.7c-1.3-0.7-2.3-1.8-3-3.2c-0.7-1.4-1.1-3-1.1-4.8c0-1.8,0.4-3.5,1.1-4.8c0.7-1.4,1.7-2.4,3-3.2
		c1.3-0.7,2.8-1.1,4.6-1.1c1.7,0,3.2,0.4,4.6,1.1c1.3,0.7,2.3,1.8,3,3.2c0.7,1.4,1.1,3,1.1,4.8c0,1.8-0.4,3.4-1.1,4.8
		c-0.7,1.4-1.7,2.4-3,3.2c-1.3,0.7-2.8,1.1-4.6,1.1C450.6,464.8,449.1,464.4,447.7,463.7z M456,460.3c0.9-1.1,1.3-2.6,1.3-4.6
		c0-2-0.4-3.6-1.3-4.6c-0.9-1.1-2.1-1.6-3.7-1.6s-2.8,0.5-3.7,1.6c-0.9,1.1-1.3,2.6-1.3,4.6c0,2,0.4,3.6,1.3,4.6
		c0.9,1.1,2.1,1.6,3.7,1.6C453.9,461.9,455.1,461.4,456,460.3z"/>
	<path d="M480.7,453.7v9.4c0,0.6-0.2,1-0.5,1.3s-0.8,0.4-1.3,0.4c-0.6,0-1-0.2-1.3-0.5c-0.3-0.3-0.5-0.7-0.5-1.3v-9.2
		c0-1.5-0.3-2.6-0.9-3.3s-1.5-1-2.8-1c-1.5,0-2.6,0.5-3.5,1.4c-0.9,0.9-1.3,2.1-1.3,3.7v8.5c0,0.5-0.2,0.9-0.5,1.3s-0.8,0.5-1.3,0.5
		c-0.6,0-1-0.2-1.3-0.5c-0.3-0.3-0.5-0.7-0.5-1.3v-14.7c0-0.5,0.2-0.9,0.5-1.2c0.3-0.3,0.8-0.5,1.3-0.5c0.5,0,0.9,0.2,1.3,0.5
		c0.3,0.3,0.5,0.7,0.5,1.2v1.5c0.6-1.1,1.4-1.9,2.4-2.4c1-0.6,2.2-0.8,3.5-0.8C478.6,446.6,480.7,448.9,480.7,453.7z"/>
	<path d="M495.7,464.3c-0.3-0.3-0.5-0.7-0.5-1.3v-22.2c0-0.6,0.2-1,0.5-1.3c0.3-0.3,0.8-0.4,1.3-0.4c0.5,0,1,0.1,1.3,0.4
		c0.3,0.3,0.5,0.7,0.5,1.3V463c0,0.6-0.2,1-0.5,1.3c-0.3,0.3-0.8,0.4-1.3,0.4C496.5,464.7,496.1,464.6,495.7,464.3z"/>
	<path d="M516.5,448.3c1.1,1.2,1.7,3,1.7,5.4v9.3c0,0.6-0.2,1-0.5,1.3s-0.7,0.4-1.3,0.4c-0.5,0-0.9-0.2-1.3-0.5
		c-0.3-0.3-0.5-0.7-0.5-1.3v-1.3c-0.5,1-1.1,1.8-2,2.3c-0.9,0.5-2,0.8-3.2,0.8c-1.2,0-2.2-0.2-3.2-0.7s-1.7-1.1-2.3-2
		c-0.5-0.8-0.8-1.8-0.8-2.8c0-1.3,0.3-2.3,1-3c0.7-0.7,1.8-1.3,3.3-1.6c1.5-0.3,3.6-0.5,6.3-0.5h0.8v-1c0-1.3-0.3-2.3-0.8-2.9
		c-0.6-0.6-1.4-0.9-2.7-0.9c-0.8,0-1.6,0.1-2.4,0.3c-0.7,0.2-1.6,0.5-2.4,0.9c-0.6,0.4-1.1,0.5-1.4,0.5c-0.4,0-0.7-0.1-0.9-0.4
		c-0.2-0.3-0.3-0.6-0.3-1c0-0.4,0.1-0.7,0.3-1s0.5-0.5,1-0.8c0.8-0.5,1.8-0.8,3-1.1c1.1-0.3,2.2-0.4,3.3-0.4
		C513.6,446.6,515.4,447.1,516.5,448.3z M513.4,460.8c0.8-0.9,1.3-2.1,1.3-3.5v-0.9H514c-1.9,0-3.3,0.1-4.3,0.3
		c-1,0.2-1.7,0.5-2.2,0.8c-0.4,0.4-0.6,1-0.6,1.7c0,0.9,0.3,1.6,0.9,2.1c0.6,0.6,1.4,0.8,2.3,0.8
		C511.5,462.1,512.6,461.7,513.4,460.8z"/>
	<path d="M523.3,463.3c-0.4-0.3-0.7-0.5-0.9-0.8s-0.3-0.6-0.3-1c0-0.4,0.1-0.7,0.3-1c0.2-0.3,0.5-0.4,0.8-0.4c0.3,0,0.8,0.2,1.5,0.6
		c0.7,0.4,1.4,0.7,2.1,0.9c0.7,0.2,1.5,0.4,2.6,0.4c1.2,0,2.1-0.2,2.7-0.6c0.6-0.4,1-1,1-1.7c0-0.5-0.1-0.9-0.4-1.2
		s-0.7-0.5-1.3-0.8c-0.6-0.2-1.5-0.5-2.8-0.7c-2.1-0.5-3.6-1.1-4.6-1.9c-0.9-0.8-1.4-1.8-1.4-3.2c0-1,0.3-2,0.9-2.8
		c0.6-0.8,1.4-1.5,2.5-1.9c1.1-0.5,2.3-0.7,3.6-0.7c1,0,1.9,0.1,2.8,0.4s1.7,0.6,2.4,1.1c0.8,0.5,1.2,1.1,1.2,1.8
		c0,0.4-0.1,0.7-0.3,1c-0.2,0.3-0.5,0.4-0.8,0.4c-0.2,0-0.4,0-0.6-0.1c-0.2-0.1-0.5-0.3-0.9-0.5c-0.6-0.4-1.3-0.7-1.8-0.9
		c-0.6-0.2-1.3-0.3-2.1-0.3c-1,0-1.8,0.2-2.4,0.6c-0.6,0.4-0.9,1-0.9,1.8c0,0.7,0.3,1.2,0.8,1.6c0.6,0.4,1.6,0.7,3.2,1.1
		c1.6,0.3,2.9,0.7,3.8,1.2c0.9,0.4,1.6,1,2,1.6c0.4,0.6,0.6,1.4,0.6,2.4c0,1.6-0.7,2.8-2,3.8c-1.3,0.9-3.1,1.4-5.2,1.4
		C526.9,464.8,524.9,464.3,523.3,463.3z"/>
	<path d="M48.9,490.9c1.2,0.8,2.1,1.8,2.8,3.2c0.7,1.4,1,3,1,4.8c0,1.8-0.3,3.4-1,4.8s-1.6,2.4-2.8,3.2c-1.2,0.7-2.6,1.1-4.1,1.1
		c-1.3,0-2.5-0.3-3.5-0.8s-1.8-1.4-2.3-2.4v8c0,0.5-0.2,0.9-0.5,1.2c-0.3,0.3-0.8,0.5-1.3,0.5c-0.6,0-1-0.2-1.4-0.5
		c-0.3-0.3-0.5-0.7-0.5-1.3v-21.1c0-0.5,0.2-1,0.5-1.3c0.3-0.3,0.8-0.5,1.3-0.5c0.5,0,1,0.2,1.3,0.5c0.3,0.3,0.5,0.8,0.5,1.3v1.5
		c0.5-1.1,1.3-1.9,2.3-2.4s2.2-0.9,3.5-0.9C46.4,489.8,47.8,490.1,48.9,490.9z M47.7,503.5c0.9-1.1,1.3-2.6,1.3-4.6
		c0-2-0.4-3.5-1.3-4.6c-0.9-1.1-2.1-1.7-3.7-1.7c-1.6,0-2.8,0.5-3.7,1.6c-0.9,1.1-1.3,2.6-1.3,4.6c0,2,0.4,3.5,1.3,4.6
		c0.9,1.1,2.1,1.6,3.7,1.6S46.8,504.6,47.7,503.5z"/>
	<path d="M71.3,503.7c0.2,0.3,0.3,0.6,0.3,1c0,0.7-0.4,1.3-1.3,1.8c-0.8,0.5-1.8,0.9-2.8,1.1c-1,0.3-2,0.4-2.9,0.4
		c-2.8,0-5-0.8-6.6-2.4s-2.4-3.8-2.4-6.6c0-1.8,0.4-3.4,1.1-4.8c0.7-1.4,1.7-2.5,3-3.2c1.3-0.8,2.7-1.2,4.4-1.2
		c2.4,0,4.2,0.8,5.6,2.3c1.4,1.5,2.1,3.6,2.1,6.1c0,1-0.4,1.4-1.3,1.4H59.4c0.2,3.7,2,5.6,5.4,5.6c0.9,0,1.7-0.1,2.3-0.4
		c0.6-0.2,1.3-0.6,2.1-0.9c0.1,0,0.3-0.2,0.6-0.3c0.3-0.2,0.6-0.2,0.8-0.2C70.8,503.3,71.1,503.5,71.3,503.7z M60.9,493.8
		c-0.8,0.9-1.3,2.1-1.5,3.7h9.3c-0.1-1.6-0.5-2.9-1.2-3.8c-0.8-0.9-1.8-1.3-3.2-1.3C62.8,492.4,61.7,492.9,60.9,493.8z"/>
	<path d="M86.7,491.3c0,0.5-0.1,0.9-0.4,1.2s-0.7,0.4-1.4,0.5l-1.1,0.1c-1.5,0.1-2.6,0.7-3.4,1.6c-0.7,0.9-1.1,2-1.1,3.3v8.2
		c0,0.6-0.2,1-0.5,1.3c-0.3,0.3-0.8,0.4-1.3,0.4c-0.5,0-1-0.1-1.3-0.4c-0.3-0.3-0.5-0.7-0.5-1.3v-14.7c0-0.6,0.2-1,0.5-1.3
		c0.3-0.3,0.8-0.5,1.3-0.5c0.5,0,0.9,0.2,1.2,0.5s0.5,0.7,0.5,1.2v1.7c0.5-1.1,1.2-1.9,2.1-2.4c0.9-0.6,1.9-0.9,3.1-1l0.5,0
		C86.2,489.8,86.7,490.3,86.7,491.3z"/>
	<path d="M88.9,506.5c-0.4-0.3-0.7-0.5-0.9-0.8s-0.3-0.6-0.3-1c0-0.4,0.1-0.7,0.3-1c0.2-0.3,0.5-0.4,0.8-0.4c0.3,0,0.8,0.2,1.5,0.6
		c0.7,0.4,1.4,0.7,2.1,0.9c0.7,0.2,1.5,0.4,2.6,0.4c1.2,0,2.1-0.2,2.7-0.6c0.6-0.4,1-1,1-1.7c0-0.5-0.1-0.9-0.4-1.2
		s-0.7-0.5-1.3-0.8c-0.6-0.2-1.5-0.5-2.8-0.7c-2.1-0.5-3.6-1.1-4.6-1.9c-0.9-0.8-1.4-1.8-1.4-3.2c0-1,0.3-2,0.9-2.8
		c0.6-0.8,1.4-1.5,2.5-1.9c1.1-0.5,2.3-0.7,3.6-0.7c1,0,1.9,0.1,2.8,0.4c0.9,0.3,1.7,0.6,2.4,1.1c0.8,0.5,1.2,1.1,1.2,1.8
		c0,0.4-0.1,0.7-0.3,1c-0.2,0.3-0.5,0.4-0.8,0.4c-0.2,0-0.4,0-0.6-0.1c-0.2-0.1-0.5-0.3-0.9-0.5c-0.6-0.4-1.3-0.7-1.8-0.9
		s-1.3-0.3-2.1-0.3c-1,0-1.8,0.2-2.4,0.6c-0.6,0.4-0.9,1-0.9,1.8c0,0.7,0.3,1.2,0.8,1.6s1.6,0.7,3.2,1.1c1.6,0.3,2.9,0.7,3.8,1.2
		c0.9,0.4,1.6,1,2,1.6c0.4,0.6,0.6,1.4,0.6,2.4c0,1.6-0.7,2.8-2,3.8s-3.1,1.4-5.2,1.4C92.5,508,90.4,507.5,88.9,506.5z"/>
	<path d="M109.2,506.9c-1.3-0.7-2.3-1.8-3-3.2c-0.7-1.4-1.1-3-1.1-4.8c0-1.8,0.4-3.5,1.1-4.8c0.7-1.4,1.7-2.4,3-3.2
		c1.3-0.7,2.8-1.1,4.6-1.1s3.2,0.4,4.6,1.1c1.3,0.7,2.3,1.8,3,3.2c0.7,1.4,1.1,3,1.1,4.8c0,1.8-0.4,3.4-1.1,4.8
		c-0.7,1.4-1.7,2.4-3,3.2c-1.3,0.7-2.8,1.1-4.6,1.1S110.5,507.6,109.2,506.9z M117.5,503.5c0.9-1.1,1.3-2.6,1.3-4.6
		c0-2-0.4-3.6-1.3-4.6c-0.9-1.1-2.1-1.6-3.7-1.6s-2.8,0.5-3.7,1.6c-0.9,1.1-1.3,2.6-1.3,4.6c0,2,0.4,3.6,1.3,4.6
		c0.9,1.1,2.1,1.6,3.7,1.6S116.6,504.6,117.5,503.5z"/>
	<path d="M142.2,496.9v9.4c0,0.6-0.2,1-0.5,1.3c-0.3,0.3-0.8,0.4-1.3,0.4c-0.6,0-1-0.2-1.3-0.5c-0.3-0.3-0.5-0.7-0.5-1.3V497
		c0-1.5-0.3-2.6-0.9-3.3c-0.6-0.7-1.5-1-2.8-1c-1.5,0-2.6,0.5-3.5,1.4c-0.9,0.9-1.3,2.1-1.3,3.7v8.5c0,0.5-0.2,0.9-0.5,1.3
		c-0.3,0.3-0.8,0.5-1.3,0.5c-0.6,0-1-0.2-1.3-0.5c-0.3-0.3-0.5-0.7-0.5-1.3v-14.7c0-0.5,0.2-0.9,0.5-1.2c0.3-0.3,0.8-0.5,1.3-0.5
		c0.5,0,0.9,0.2,1.3,0.5c0.3,0.3,0.5,0.7,0.5,1.2v1.5c0.6-1.1,1.4-1.9,2.4-2.4c1-0.6,2.2-0.8,3.5-0.8
		C140.1,489.8,142.2,492.1,142.2,496.9z"/>
	<path d="M159.8,491.5c1.1,1.2,1.7,3,1.7,5.4v9.3c0,0.6-0.2,1-0.5,1.3c-0.3,0.3-0.7,0.4-1.3,0.4c-0.5,0-0.9-0.2-1.3-0.5
		c-0.3-0.3-0.5-0.7-0.5-1.3v-1.3c-0.5,1-1.1,1.8-2,2.3s-2,0.8-3.1,0.8c-1.2,0-2.2-0.2-3.2-0.7s-1.7-1.1-2.3-2
		c-0.5-0.8-0.8-1.8-0.8-2.8c0-1.3,0.3-2.3,1-3c0.7-0.7,1.8-1.3,3.3-1.6c1.5-0.3,3.6-0.5,6.3-0.5h0.8v-1c0-1.3-0.3-2.3-0.8-2.9
		c-0.6-0.6-1.4-0.9-2.7-0.9c-0.8,0-1.6,0.1-2.4,0.3c-0.7,0.2-1.6,0.5-2.4,0.9c-0.6,0.4-1.1,0.5-1.4,0.5c-0.4,0-0.7-0.1-0.9-0.4
		c-0.2-0.3-0.3-0.6-0.3-1c0-0.4,0.1-0.7,0.3-1c0.2-0.3,0.5-0.5,1-0.8c0.8-0.5,1.8-0.8,3-1.1c1.1-0.3,2.2-0.4,3.3-0.4
		C156.9,489.8,158.6,490.3,159.8,491.5z M156.7,504c0.8-0.9,1.3-2.1,1.3-3.5v-0.9h-0.6c-1.9,0-3.3,0.1-4.3,0.3
		c-1,0.2-1.7,0.5-2.2,0.8c-0.4,0.4-0.6,1-0.6,1.7c0,0.9,0.3,1.6,0.9,2.1c0.6,0.6,1.4,0.8,2.3,0.8C154.8,505.3,155.8,504.9,156.7,504
		z"/>
	<path d="M166.5,506.5c-0.4-0.3-0.7-0.5-0.9-0.8s-0.3-0.6-0.3-1c0-0.4,0.1-0.7,0.3-1c0.2-0.3,0.5-0.4,0.8-0.4c0.3,0,0.8,0.2,1.5,0.6
		c0.7,0.4,1.4,0.7,2.1,0.9c0.7,0.2,1.5,0.4,2.6,0.4c1.2,0,2.1-0.2,2.7-0.6c0.6-0.4,1-1,1-1.7c0-0.5-0.1-0.9-0.4-1.2
		s-0.7-0.5-1.3-0.8c-0.6-0.2-1.5-0.5-2.8-0.7c-2.1-0.5-3.6-1.1-4.6-1.9c-0.9-0.8-1.4-1.8-1.4-3.2c0-1,0.3-2,0.9-2.8
		c0.6-0.8,1.4-1.5,2.5-1.9c1.1-0.5,2.3-0.7,3.6-0.7c1,0,1.9,0.1,2.8,0.4c0.9,0.3,1.7,0.6,2.4,1.1c0.8,0.5,1.2,1.1,1.2,1.8
		c0,0.4-0.1,0.7-0.3,1c-0.2,0.3-0.5,0.4-0.8,0.4c-0.2,0-0.4,0-0.6-0.1c-0.2-0.1-0.5-0.3-0.9-0.5c-0.6-0.4-1.3-0.7-1.8-0.9
		s-1.3-0.3-2.1-0.3c-1,0-1.8,0.2-2.4,0.6c-0.6,0.4-0.9,1-0.9,1.8c0,0.7,0.3,1.2,0.8,1.6s1.6,0.7,3.2,1.1c1.6,0.3,2.9,0.7,3.8,1.2
		c0.9,0.4,1.6,1,2,1.6c0.4,0.6,0.6,1.4,0.6,2.4c0,1.6-0.7,2.8-2,3.8s-3.1,1.4-5.2,1.4C170.1,508,168.1,507.5,166.5,506.5z"/>
	<path d="M193.5,485.7c-0.4-0.4-0.6-0.9-0.6-1.5s0.2-1.1,0.6-1.5c0.4-0.4,1-0.6,1.7-0.6c0.7,0,1.2,0.2,1.6,0.6
		c0.4,0.4,0.6,0.9,0.6,1.5s-0.2,1.1-0.6,1.5c-0.4,0.4-1,0.6-1.7,0.6C194.4,486.3,193.9,486.1,193.5,485.7z M193.8,507.5
		c-0.3-0.3-0.5-0.7-0.5-1.3v-14.6c0-0.6,0.2-1,0.5-1.3c0.3-0.3,0.8-0.5,1.3-0.5c0.5,0,1,0.2,1.3,0.5c0.3,0.3,0.5,0.7,0.5,1.3v14.6
		c0,0.6-0.2,1-0.5,1.3c-0.3,0.3-0.8,0.4-1.3,0.4C194.6,507.9,194.2,507.8,193.8,507.5z"/>
	<path d="M217.8,496.9v9.4c0,0.6-0.2,1-0.5,1.3c-0.3,0.3-0.8,0.4-1.3,0.4c-0.6,0-1-0.2-1.3-0.5c-0.3-0.3-0.5-0.7-0.5-1.3V497
		c0-1.5-0.3-2.6-0.9-3.3c-0.6-0.7-1.5-1-2.8-1c-1.5,0-2.6,0.5-3.5,1.4c-0.9,0.9-1.3,2.1-1.3,3.7v8.5c0,0.5-0.2,0.9-0.5,1.3
		c-0.3,0.3-0.8,0.5-1.3,0.5c-0.6,0-1-0.2-1.3-0.5c-0.3-0.3-0.5-0.7-0.5-1.3v-14.7c0-0.5,0.2-0.9,0.5-1.2c0.3-0.3,0.8-0.5,1.3-0.5
		c0.5,0,0.9,0.2,1.3,0.5c0.3,0.3,0.5,0.7,0.5,1.2v1.5c0.6-1.1,1.4-1.9,2.4-2.4c1-0.6,2.2-0.8,3.5-0.8
		C215.7,489.8,217.8,492.1,217.8,496.9z"/>
	<path d="M238.4,482.7c0.3,0.3,0.5,0.7,0.5,1.3v22.2c0,0.6-0.2,1-0.5,1.3c-0.3,0.3-0.8,0.5-1.3,0.5c-0.6,0-1-0.2-1.3-0.5
		c-0.3-0.3-0.5-0.7-0.5-1.3v-1.4c-0.5,1.1-1.3,1.9-2.3,2.4c-1,0.6-2.2,0.8-3.5,0.8c-1.5,0-2.9-0.4-4.1-1.2c-1.2-0.8-2.1-1.8-2.8-3.2
		c-0.7-1.4-1-3-1-4.8c0-1.8,0.3-3.4,1-4.8c0.7-1.4,1.6-2.4,2.8-3.2c1.2-0.7,2.5-1.1,4.1-1.1c1.3,0,2.5,0.3,3.5,0.8
		c1,0.6,1.8,1.4,2.3,2.4v-9.1c0-0.5,0.2-0.9,0.5-1.2c0.3-0.3,0.8-0.4,1.3-0.4S238.1,482.4,238.4,482.7z M234,503.5
		c0.9-1.1,1.3-2.6,1.3-4.6c0-2-0.4-3.5-1.3-4.6s-2.1-1.6-3.7-1.6s-2.8,0.5-3.7,1.6c-0.9,1.1-1.3,2.6-1.3,4.6s0.4,3.5,1.3,4.6
		c0.9,1.1,2.1,1.7,3.7,1.7C232,505.1,233.2,504.6,234,503.5z"/>
	<path d="M244.2,485.7c-0.4-0.4-0.6-0.9-0.6-1.5s0.2-1.1,0.6-1.5c0.4-0.4,1-0.6,1.7-0.6c0.7,0,1.2,0.2,1.6,0.6
		c0.4,0.4,0.6,0.9,0.6,1.5s-0.2,1.1-0.6,1.5c-0.4,0.4-1,0.6-1.7,0.6C245.1,486.3,244.6,486.1,244.2,485.7z M244.5,507.5
		c-0.3-0.3-0.5-0.7-0.5-1.3v-14.6c0-0.6,0.2-1,0.5-1.3c0.3-0.3,0.8-0.5,1.3-0.5c0.5,0,1,0.2,1.3,0.5c0.3,0.3,0.5,0.7,0.5,1.3v14.6
		c0,0.6-0.2,1-0.5,1.3c-0.3,0.3-0.8,0.4-1.3,0.4C245.3,507.9,244.9,507.8,244.5,507.5z"/>
	<path d="M255.8,506.9c-1.3-0.7-2.3-1.8-3-3.2c-0.7-1.4-1.1-3-1.1-4.8c0-1.8,0.4-3.4,1.1-4.8c0.7-1.4,1.8-2.5,3.1-3.2
		c1.3-0.8,2.8-1.2,4.5-1.2c0.9,0,1.8,0.1,2.8,0.4c0.9,0.3,1.7,0.6,2.5,1.1c0.8,0.5,1.2,1.1,1.2,1.8c0,0.4-0.1,0.8-0.3,1
		c-0.2,0.3-0.5,0.4-0.8,0.4c-0.2,0-0.4-0.1-0.6-0.2c-0.2-0.1-0.5-0.3-0.8-0.5c-0.6-0.4-1.2-0.7-1.7-0.9c-0.5-0.2-1.1-0.3-1.9-0.3
		c-1.6,0-2.9,0.6-3.8,1.7s-1.4,2.6-1.4,4.6c0,2,0.4,3.5,1.3,4.6c0.9,1.1,2.1,1.6,3.8,1.6c0.7,0,1.4-0.1,1.9-0.3
		c0.6-0.2,1.1-0.5,1.7-0.9c0.3-0.2,0.5-0.3,0.8-0.4c0.3-0.1,0.5-0.2,0.7-0.2c0.3,0,0.6,0.1,0.8,0.4c0.2,0.3,0.3,0.6,0.3,1
		c0,0.3-0.1,0.6-0.3,0.9c-0.2,0.3-0.5,0.6-0.9,0.8c-0.7,0.5-1.6,0.9-2.5,1.1c-1,0.3-1.9,0.4-2.9,0.4
		C258.5,508,257,507.6,255.8,506.9z"/>
	<path d="M282.7,491.5c1.1,1.2,1.7,3,1.7,5.4v9.3c0,0.6-0.2,1-0.5,1.3c-0.3,0.3-0.7,0.4-1.3,0.4c-0.5,0-0.9-0.2-1.3-0.5
		c-0.3-0.3-0.5-0.7-0.5-1.3v-1.3c-0.5,1-1.1,1.8-2,2.3s-2,0.8-3.1,0.8c-1.2,0-2.2-0.2-3.2-0.7s-1.7-1.1-2.3-2
		c-0.5-0.8-0.8-1.8-0.8-2.8c0-1.3,0.3-2.3,1-3c0.7-0.7,1.8-1.3,3.3-1.6c1.5-0.3,3.6-0.5,6.3-0.5h0.8v-1c0-1.3-0.3-2.3-0.8-2.9
		c-0.6-0.6-1.4-0.9-2.7-0.9c-0.8,0-1.6,0.1-2.4,0.3c-0.7,0.2-1.6,0.5-2.4,0.9c-0.6,0.4-1.1,0.5-1.4,0.5c-0.4,0-0.7-0.1-0.9-0.4
		c-0.2-0.3-0.3-0.6-0.3-1c0-0.4,0.1-0.7,0.3-1c0.2-0.3,0.5-0.5,1-0.8c0.8-0.5,1.8-0.8,3-1.1c1.1-0.3,2.2-0.4,3.3-0.4
		C279.8,489.8,281.5,490.3,282.7,491.5z M279.6,504c0.8-0.9,1.3-2.1,1.3-3.5v-0.9h-0.6c-1.9,0-3.3,0.1-4.3,0.3
		c-1,0.2-1.7,0.5-2.2,0.8c-0.4,0.4-0.6,1-0.6,1.7c0,0.9,0.3,1.6,0.9,2.1c0.6,0.6,1.4,0.8,2.3,0.8C277.7,505.3,278.8,504.9,279.6,504
		z"/>
	<path d="M305.1,482.7c0.3,0.3,0.5,0.7,0.5,1.3v22.2c0,0.6-0.2,1-0.5,1.3c-0.3,0.3-0.8,0.5-1.3,0.5c-0.6,0-1-0.2-1.3-0.5
		c-0.3-0.3-0.5-0.7-0.5-1.3v-1.4c-0.5,1.1-1.3,1.9-2.3,2.4c-1,0.6-2.2,0.8-3.5,0.8c-1.5,0-2.9-0.4-4.1-1.2c-1.2-0.8-2.1-1.8-2.8-3.2
		c-0.7-1.4-1-3-1-4.8c0-1.8,0.3-3.4,1-4.8c0.7-1.4,1.6-2.4,2.8-3.2c1.2-0.7,2.5-1.1,4.1-1.1c1.3,0,2.5,0.3,3.5,0.8
		c1,0.6,1.8,1.4,2.3,2.4v-9.1c0-0.5,0.2-0.9,0.5-1.2c0.3-0.3,0.8-0.4,1.3-0.4S304.7,482.4,305.1,482.7z M300.7,503.5
		c0.9-1.1,1.3-2.6,1.3-4.6c0-2-0.4-3.5-1.3-4.6s-2.1-1.6-3.7-1.6s-2.8,0.5-3.7,1.6c-0.9,1.1-1.3,2.6-1.3,4.6s0.4,3.5,1.3,4.6
		c0.9,1.1,2.1,1.7,3.7,1.7C298.6,505.1,299.8,504.6,300.7,503.5z"/>
	<path d="M323.2,491.5c1.1,1.2,1.7,3,1.7,5.4v9.3c0,0.6-0.2,1-0.5,1.3c-0.3,0.3-0.7,0.4-1.3,0.4c-0.5,0-0.9-0.2-1.3-0.5
		c-0.3-0.3-0.5-0.7-0.5-1.3v-1.3c-0.5,1-1.1,1.8-2,2.3s-2,0.8-3.1,0.8c-1.2,0-2.2-0.2-3.2-0.7s-1.7-1.1-2.3-2
		c-0.5-0.8-0.8-1.8-0.8-2.8c0-1.3,0.3-2.3,1-3c0.7-0.7,1.8-1.3,3.3-1.6c1.5-0.3,3.6-0.5,6.3-0.5h0.8v-1c0-1.3-0.3-2.3-0.8-2.9
		c-0.6-0.6-1.4-0.9-2.7-0.9c-0.8,0-1.6,0.1-2.4,0.3c-0.7,0.2-1.6,0.5-2.4,0.9c-0.6,0.4-1.1,0.5-1.4,0.5c-0.4,0-0.7-0.1-0.9-0.4
		c-0.2-0.3-0.3-0.6-0.3-1c0-0.4,0.1-0.7,0.3-1c0.2-0.3,0.5-0.5,1-0.8c0.8-0.5,1.8-0.8,3-1.1c1.1-0.3,2.2-0.4,3.3-0.4
		C320.3,489.8,322.1,490.3,323.2,491.5z M320.1,504c0.8-0.9,1.3-2.1,1.3-3.5v-0.9h-0.6c-1.9,0-3.3,0.1-4.3,0.3
		c-1,0.2-1.7,0.5-2.2,0.8c-0.4,0.4-0.6,1-0.6,1.7c0,0.9,0.3,1.6,0.9,2.1c0.6,0.6,1.4,0.8,2.3,0.8C318.2,505.3,319.3,504.9,320.1,504
		z"/>
	<path d="M330,506.5c-0.4-0.3-0.7-0.5-0.9-0.8s-0.3-0.6-0.3-1c0-0.4,0.1-0.7,0.3-1c0.2-0.3,0.5-0.4,0.8-0.4c0.3,0,0.8,0.2,1.5,0.6
		c0.7,0.4,1.4,0.7,2.1,0.9c0.7,0.2,1.5,0.4,2.6,0.4c1.2,0,2.1-0.2,2.7-0.6c0.6-0.4,1-1,1-1.7c0-0.5-0.1-0.9-0.4-1.2
		s-0.7-0.5-1.3-0.8c-0.6-0.2-1.5-0.5-2.8-0.7c-2.1-0.5-3.6-1.1-4.6-1.9c-0.9-0.8-1.4-1.8-1.4-3.2c0-1,0.3-2,0.9-2.8
		c0.6-0.8,1.4-1.5,2.5-1.9c1.1-0.5,2.3-0.7,3.6-0.7c1,0,1.9,0.1,2.8,0.4c0.9,0.3,1.7,0.6,2.4,1.1c0.8,0.5,1.2,1.1,1.2,1.8
		c0,0.4-0.1,0.7-0.3,1c-0.2,0.3-0.5,0.4-0.8,0.4c-0.2,0-0.4,0-0.6-0.1c-0.2-0.1-0.5-0.3-0.9-0.5c-0.6-0.4-1.3-0.7-1.8-0.9
		s-1.3-0.3-2.1-0.3c-1,0-1.8,0.2-2.4,0.6c-0.6,0.4-0.9,1-0.9,1.8c0,0.7,0.3,1.2,0.8,1.6s1.6,0.7,3.2,1.1c1.6,0.3,2.9,0.7,3.8,1.2
		c0.9,0.4,1.6,1,2,1.6c0.4,0.6,0.6,1.4,0.6,2.4c0,1.6-0.7,2.8-2,3.8s-3.1,1.4-5.2,1.4C333.6,508,331.6,507.5,330,506.5z"/>
</g>
<g>
	<path class="st0" d="M473.8,261.8c3.2,2.8-1.5,7.3-4.7,4.7c-1.5-1.5-3.2-2.8-4.7-4.3c0.4,3.7,1,7.4,1.5,11.1h-0.2
		c-0.6,0-1.2,0.2-1.9,0.4c0.2,0.6,0.6,1,0.4,2c-0.2,3.9,0.2,7.6,0.9,11.3c-1.2,1.5-2.5,3.1-3.6,4.7c-4.1,5.8-7.4,12-9.7,19
		c-2.8,11.3-3.7,23.3-3.1,34.8c-0.4,8.5,0.2,16.5,2.9,22.6c0.2,0.4,0.2,0.9,0.4,1.5c0.6,3.3,4,4.9,6.4,7.2c-0.4,0.8-1,2.5-1.5,3.5
		c5.1,0.8,11.3,0.2,14.6,4.4c-1.3,11.4-2.2,23-1.8,34.5c10.7-3.4,21.6-5.5,32.8-6.8c35.2-3.8,70.4,1.7,105.6,2
		c18.5,0.1,37.5-2.3,55.7,1.6c2,0.4,4,0.9,5.9,1.4c1.4-16.5-0.2-33.2-4.2-49.2c2.4-2.3,4.4-4.3,6.1-6.6c3.5-3.5,6.8-7.2,8.2-12.1
		c6.4-20.4,4.7-43.7-6.1-62.6c-2.9-5.4-6.8-10.3-11.1-14.8c-0.4-1.2-0.2-2.4,0.4-3.5c-1.2-0.2-2.1-0.6-3.2-0.9H660
		c0.2-1.9,0.4-3.9,0.6-5.7c-1.7-0.6-2.9-2.4-2.5-4.1c2.4-8.6,9-15,14.6-21.6c-0.9,0.6-1.6,1.2-2.4,1.9c-3.3,2.7-8-2-4.7-4.7
		c7.8-6,13.4-14.8,17.5-23.9c0.4-1.9,0.6-3.6,0.8-5.4c0-1.6,0.2-3.2,0.4-4.9c-1-7.2-0.9-14.4-0.2-21.8c-0.9-10.7-3.1-20.8-5.7-30.6
		c-0.4-0.4-0.6-0.6-0.8-1l0.6,0.4c-0.9-3.1-2.1-6.2-3.3-9.5c-1.9-1.7-3.9-3.5-5.7-4.9c-0.4-0.2-0.6-0.4-0.9-0.6
		c-0.2-0.9-0.2-2.1-0.2-3.2c-1.9-0.4-4-0.6-5.8-1c-2.8-1.9-5.3-3.7-7.8-6c-1.2,0.4-2.5,0-3.3-1.5c-3.9-6.9-8.4-13.6-11.1-20.8
		c-2.4-6.4-3.1-13-2.5-19.5c-0.9,1-2.3,1.7-3.3,2.5c-3.6,2.3-6.8-3.3-3.3-5.7c3.1-2,5.6-4.8,7.8-7.6c1.9-13.7,4.7-27,4.3-40.5
		c-0.6-0.9-1.5-1.6-2.7-1.9c-4.5-4.4-12-5.3-18.3-6.4c-5.7,2.4-11.1,5.6-15.9,9.5c-0.8,2.9-3.1,5.3-6.5,6.1
		c-0.9,1.2-2.4,2.1-4.1,2.5v0.9c-0.6-0.2-1.5-0.2-2.1-0.6h-0.6c-2.1,0-3.9-0.6-5.3-1.5c-27.4-6.2-57-2.3-82.1,10.3
		c-2.3-3.6-4.7-6.6-7.2-9.9c-0.9-0.4-2.7-1.5-3.6-1.9c-3.9,0.6-6.9-1.3-10.3-2.9c-7.2-4.3-15.8-1-23.5,0.2c0.2,0.2,0.2,0.2,0.4,0.4
		c-0.2,0-0.2-0.2-0.6-0.2c-6,5.3-9.7,12.1-11.5,19.4c-3.3,5.3-3.5,12.4-2.4,18.3c0.4,1.6,0.8,3.3,1.5,4.8c0.2,2,0.6,3.9,1,5.7
		c0.6,1,1.3,2,2.1,2.9c0.6,0.8,1.6,1.6,2.7,2.7c0.4,0.4,0.9,0.9,1.3,1.5l0.4,0.9c0.2-0.2,0.2-0.2,0.2-0.2c-0.2,0-0.2,0.2-0.2,0.2
		s0.2,0.2,0.2,0.2c0.6,0.9,1,2.7,2,3.9c0,0,0.2,0.2,0.2,0.4c0.2,1,0.6,2,0.4,3.1c0.2,0.2,0.6,0.4,0.9,0.6c-1,2.9-2.1,5.7-2.5,8.6
		c-2.3,11.5,0.4,24.1-4.9,35.1c-1.7,4.4-4.8,7.8-8.1,11.1c1,0.8,1.9,2,1.5,3.5c-2.1,9.6-6.9,18.3-10.3,27.6
		c0.4,7.8,1.7,15.7,3.6,23.5l0.6,0.4c0,0.9,0,2.3,0.2,3.3c0.6,1.9,0.9,3.5,1.6,5.2c0.2,1.2,0,2-0.4,2.7c0.4,1.3,0.6,3.1,1,4.5
		c3.6,6.1,7.4,11.8,11.5,17.4C459.3,247.7,466,255.4,473.8,261.8z"/>
	<path class="st1" d="M624.9,108.3c-11.1,6.4-23.5,7.7-35.4,9c-4.4-11.1,4.9-9.3,8.6-10.7c10.9-2.3,21-7.3,30.9-12.5
		c1.7-1,3.3,0.6,4.9,1.5c0.6,4.1-0.2,7.8-2,11.1C629.7,107.8,627.2,107.1,624.9,108.3L624.9,108.3z M605.7,221.2
		c0.2-0.2,0.2-0.2,0.2-0.4C605.8,221,605.8,221.2,605.7,221.2z M530,234.7c6.1,11.5,15.8,21.2,29.1,22.5c8.6,0.6,16.6-1.9,23.4-6.1
		c-7.2,5.4-15.9,8.2-25.8,7.8c-13-1.3-22.9-10.3-28.8-21.8C528.7,236.3,529.5,235.5,530,234.7L530,234.7z M524,239.6
		c-0.2-0.2-0.2-0.4-0.2-0.6c0.6-0.2,1.5-0.4,2-0.6C525.2,238.7,524.8,239.2,524,239.6L524,239.6z M596.7,241.4
		c-0.8-0.6-1.5-1.2-2.4-1.9c0.6-0.8,1-1.5,1.6-2.5l0.2,0.2c0.9,0.9,1.9,1.7,2.9,2.5c-4.4,7.2-10.1,13.4-17.4,18.3
		C588,253.5,593,247.8,596.7,241.4z M569.3,238.4c-6.1-0.4-13.2-0.2-18.1-4.9C557.5,233.1,565.5,232.4,569.3,238.4z M573.4,222.1
		c-12.2,1-24.3,0.6-36.3-1c-3.1-0.4-1.7-4.1,1.2-3.6c9.2,1.3,18.1,1.9,27.2,1.5c4.7-0.2,9.3-0.6,14.1-1.3c3.2-0.4,7.3,0.2,7.2-4.1
		c0.4-2.4,5.1-1.3,4.5,1C591.3,223,579.2,221.2,573.4,222.1L573.4,222.1z M536.1,64.2c2.7-0.4,5.6-0.9,8.5-1
		C541.9,64.2,539.2,64.4,536.1,64.2z"/>
	<path class="st1" d="M457.3,249.3c-0.8,0.2-1.5,0.2-2.4,0.4c-0.4,0.4-0.9,0.8-1.3,1c1.7,0.2,3.6,0.2,5.3,0.6c1,1.5,2.4,3.2,3.6,4.5
		c0.4,4.9,1.3,9.7,1.9,14.6h-0.2c-0.6,0.2-1,0.4-1.9,0.4c0.4,0.6,0.6,1.2,0.6,2.1c-0.2,4,0.4,7.8,1,11.4c-1.2,1.5-2.5,3.2-3.6,4.8
		c-4.3,6-7.7,12.4-9.7,19.3c-2.8,11.5-3.6,23.5-2.7,35.4c-0.4,8.6,0.4,16.7,3.2,22.9c0.2,0.6,0.2,1,0.4,1.6c0.6,3.3,4.3,4.9,6.4,7.2
		c-0.4,0.9-1,2.7-1.5,3.5c4.9,0.9,11.3,0.4,14.6,4.4c-1.4,11.8-2.1,23.9-1.6,35.8c10.7-3.5,21.9-5.7,33.3-6.9
		c35.2-3.8,70.4,1.7,105.6,2c18.5,0.1,37.5-2.3,55.7,1.6c2.2,0.5,4.4,1,6.6,1.6c1.9-17.6,0.2-35.4-4.2-52.4c2.4-2.3,4.4-4.4,6.1-6.8
		c3.5-3.5,6.9-7.3,8.2-12.2c6.4-20.8,4.4-44.3-6.4-63.2c-2.9-5.6-7-10.3-11.4-14.8c-0.4-1.3-0.2-2.5,0.4-3.5c-1-0.4-2.4-0.6-3.2-0.9
		c0,0-0.2,0-0.2-0.2c0.6-5.2,1.3-10.3,1.9-15.3c2.4-2.7,4.5-5.3,6.8-8l3.2-0.4c-0.4-0.4-1-0.9-1.5-1.5c-0.2,0-0.2,0-0.2-0.2
		c2.3-2.7,4.4-5.4,6.2-8.4c7.3-17.5,12.1-36.2,10.9-55c1-0.2,3.3-0.2,4.4-0.2c-2-12.4-6.4-24.3-13.8-34.6c2.9,1.6,6,3.2,9,4.7
		c-4.1-7.8-10.9-13.4-17.5-19c-0.4-0.2-0.6-0.4-0.9-0.6l-0.2-3.3c-1.9-0.4-4.1-0.6-6-0.9c-6.4-4.4-12.8-9-15.9-16.2
		c-2.9-6.9-4.9-14.1-7.3-21.2h0.2c-0.4-0.9-0.4-1.9-0.4-2.8c0.2-0.9,0.2-1.9,0.4-2.7c0.2-0.4,0.2-0.6,0.4-0.9
		c-0.9-1.2-0.9-2.8,0.2-4.4c7.6-10.1,12.2-24.9,10.1-37.3c-0.6-4.4-2.4-8.2-4.3-12.2c-0.9,0.2-1.7,0.2-2.7,0.4
		c-0.2-1.9-1.5-3.5-3.6-4c-4.9-4.4-12.4-5.3-18.7-6.4c-5.6,2.7-11.1,5.7-15.9,9.6c-0.9,2.9-3.2,5.4-6.6,6.2c-1,1-2.5,2-4.3,2.5v0.9
		c-0.6-0.2-1.5-0.4-2.1-0.6h-0.3c-2.1,0-4-0.6-5.4-1.5c-27.6-6.1-57.6-1.9-82.7,10.9c-2.5-3.3-4.9-6.5-7.3-9.9
		c-0.9-0.4-2.7-1.5-3.6-1.9c-3.9,0.6-7.2-1.3-10.3-2.8c-7.3-4.3-16.1-1-23.9,0.2c0.2,0.2,0.2,0.2,0.4,0.4c-0.2-0.2-0.4-0.2-0.6-0.2
		c-6.1,5.3-9.9,12.2-11.5,19.8c-3.2,5.4-3.3,12.5-2.1,18.5c0.4,1.7,0.9,3.3,1.5,4.9c0.4,1.9,0.6,3.9,1,5.7c0.6,1,1.5,2,2.3,2.9
		c0.6,0.6,1.6,1.5,2.7,2.7c0.6,0.6,0.9,1,1.3,1.5l0.4,0.9c0.2,0,0.2,0,0.2-0.2l-0.2,0.2c0.2,0.2,0.2,0.2,0.2,0.2
		c0.4,0.9,1.2,2.7,2.1,4c0.2,0.2,0.2,0.4,0.2,0.4c0.4,1,0.4,2,0.4,3.1c0.4,0.2,0.6,0.4,0.9,0.6c-1,2.7-2,5.6-2.5,8.6
		c-2.1,11.7,0.4,24.3-4.9,35.4c-3.3,8.1-10.9,13.2-16.1,20l6.9-0.4c-2.4,3.9-4.4,7.8-6.1,11.8c-2.1,9.9-5.4,22.6-4.9,32.7
		c2.5,0.9,4.9,1.9,7.3,2.7c0.4,10.3,4.5,19.8,5.6,29.9c0.9-0.2,2.7-0.6,3.3-1C449.7,237.6,453.4,243.6,457.3,249.3z M645.5,46.8
		v-0.2c0.2,1.7-0.2,3.3-0.4,5.2c-0.2-0.4-0.2-0.9-0.2-1.3C644.6,49,644.7,47.7,645.5,46.8z M497.2,316.7c5.3-4.4,11.5-7.8,17.8-10.5
		c10.3-4.7,22.5-8.4,34.2-8l0.4,0.2c-1.9-0.9-3.5-1.9-5.3-2.7c11.5-2.7,23.4-4.4,35.2-4.1c4.9,0.6,9.5,1.9,14.1,3.3
		c6.1,2.3,11.8,5.3,18.2,6.8c1.5,0.4,3.1,0.6,4.5,1c2.7,1.5,5.4,3.2,7.8,4.9l-8.6,4.4c-3.3,3.7-7,7.3-11.1,10.1
		c-6.4,4.1-11.1,10.3-17,15c-12.2,9-24.6,18.1-36.9,26.4c-4,2.1-7.8,4.1-11.8,6.1C538.5,369.7,497.3,340.9,497.2,316.7z M624.1,312
		c-0.6,0.4-1,0.9-1.6,1.2h-0.4C622.8,313,623.3,312.4,624.1,312z M604.2,328.4c-0.6,1-1.5,1.9-2,3.1c-0.4-0.2-0.9-0.2-1.3,0
		C602,330.5,603.1,329.5,604.2,328.4z M597.9,334.1c-0.4,0.4-0.6,0.9-0.9,1.2l-1.2,0.6C596.6,335.3,597.3,334.8,597.9,334.1z
		 M627.4,379.1c-4.1,1.9-8,3.1-12.2,4.1c-10.3,1-20.8,1.9-31.3,2.7c-4.9,0.2-9.5,0.2-14.2,0.4c-3.3-0.9-6.6-1.5-10.1-1.9
		c-2.9-0.4-6.1-0.6-9.2-0.6c1,1,1.7,2.7,1.6,4.1c-9.3-0.4-18.3-2.5-27.2-5.4c4.5-3.2,9.3-6.1,14.1-8.9c1.5,0.2,4.4,0.4,5.7,0.6
		c16.1-13,33.8-23.9,49.7-36.9h0.2C627.4,320.4,628.1,364.4,627.4,379.1z M651.5,159.6c-0.9,3.3-1.9,6.6-3.6,9.6
		c-2.7,5.1-7.7,8.9-13,10.7c-4.4,1.3-9.2,2.1-13.8,2.4c-6.4,0.2-13-0.9-18.9-3.9c-1.9-3.5-4.3-6.8-7-9.9c-2.8-3.5-6.2-6.4-9.9-8.4
		l-0.2-0.4c-0.4-0.6-0.6-1.2-0.9-1.9h0.2c0.6,0.2,1.5,0.4,2,0.8c4.8,1,9.3,3.6,13.8,5.6c-2-2.7-5.2-4.1-7.8-5.8
		c11.1,1.9,16.6,6.4,27.5-0.6c-1,3.3-3.3,5.8-4.9,8.8c4.4-2.5,6.8-7,10.1-10.3c-1,5.2-5.1,8.6-8.2,12.8c4.4-1.9,6.9-5.7,10.3-8.6
		c-0.9,3.6-4,6.1-6.1,9.2c9.3-3.7,13-12.9,16.9-21.2c2.7-6.2,10.1-3.3,14.4-0.4c-9-24.9-38.5-12.5-57.2-7.6
		c-5.1,1.5-10.3,2.7-15.6,2.1c0-1.9,0.2-3.5,0.9-5.2c1-2.9,3.6-5.3,6.2-7c4.1-2.5,8.4-4.1,13-5.3c7.3-2.1,15.3-2.5,22.9-2.1
		c3.6,0.2,7.3,0.4,10.9,0.8c3.7,0.4,7.4,1,11.1,2.4c2.4,0.9,4.5,2.1,6.4,4c1.9,2,3.1,4.8,3.2,7.4
		C654.5,144.3,653.5,151.9,651.5,159.6z M596.6,174.7c-1.9-1.5-3.7-3.3-5.3-5.2C593.2,171.2,595,172.9,596.6,174.7z M594.6,149.1
		c1.2-1.9,3.6-2.4,5.6-3.1c7-2,14.1-4.1,21-6c1.9-0.4,3.9-1,5.7-0.6c1.9,0.4,1.5,2.7,0.4,4c-3.1,4.1-7.8,6.8-12.8,8.2
		c-5.6,1.5-11.5,1.9-17,0.2C596.2,151.6,594,150.8,594.6,149.1z M459.7,95.2c-0.2-0.9,0.2-1.9,0.8-2.7c0.6-0.8,0.9-1.5,1.2-2.4
		l-0.9-1.9c2-1,4.1-2.7,5.1-3.3c1.7-1,3.3-2.5,5.1-3.6c1.5-1,4.5-2.5,5.3-4.1l0.4-0.9c-0.2-0.6-1.3-1.5-2.4-2.3
		c0.2,0.2,0.2,0.2,0.2,0.2c-0.2,0-0.6,0.2-0.9,0c-1.9-1-3.3-2.4-4.5-4c0.6,1.5,1.6,2.7,2.7,4.1c-0.6,0-1.3-0.2-1.9,0.2
		c-2.4-1.5-4.4-3.5-6.1-5.8c-1-1.2-1.7-2.7-2.7-4.1c0.2,3.3,1.9,6.4,3.2,9.3c-6.8-5.6-9.3-14.6-10.1-22.9c-0.8,3.6-0.2,7.4,0.2,11.1
		c-2.5-5.6-2.5-12.1-1-18.1c-0.2-0.6-0.2-1-0.4-1.6c-0.1,0.1-0.2,0.2-0.2,0.2c1.5-3.2,4-6.2,7.5-8.4c1-0.8,2.5-0.9,3.3-0.6
		c8.9-4.1,22-1,28.7,6.4c0.9,0.4,1.9,0.6,2.7,1c0.6,0.2,1,0.6,1.5,0.9c0.4-0.6,0.6-1.3,1-1.9c1,3.7,2.7,7.3,4.3,10.9
		c0.6-0.6,1.7-1,2.9-1v-3.7c6.4-4.1,13.8-6.1,21.2-7c0.4,0.4,0.6,0.9,1,1.3c1.9-1.5,4.1-2.7,6.9-3.3c1.3-0.4,2.7-0.4,4.1-0.6
		l-0.4-0.2c17.9-4.4,36.9-4.9,54.6,0.4c0.2,1.5,0.6,2.7,0.8,4.1c0.6-0.6,1.7-0.9,2.8-0.9h0.4L597,37c1-0.2,3.2-0.4,4.3-0.4
		c0.2-1,0.6-3.6,0.6-4.8c6.4-5.7,12.8-14.6,22.6-13.8c4.1-0.4,7.7,0.9,11.1,2.8c-0.2,0.2-0.2,0.2-0.4,0.4c-0.4,0.2-0.9,0.2-1.5,0.2
		c1.6,1.9,3.2,4.1,4.4,6.1c0,0.2-0.2,0.4-0.2,0.4c0.9,1.5,1.6,3.2,1.9,4.9c-0.6-1-1.3-2-2.3-2.8c-0.2,0.6-0.2,1-0.4,1.6
		c1.2,6.1,1.3,12.4-1,18.1c0.2-3.7,0.9-7.6,0.2-11.1c-0.9,8.2-3.3,17.5-10.1,22.9c1.3-3.1,2.8-6.1,3.2-9.3c-1,1.3-1.7,2.7-2.7,4.1
		c-1.6,2.4-3.7,4.4-6.1,5.8c-0.6-0.2-1.2-0.2-1.9-0.2c1-1.2,2-2.7,2.7-4.1c-1.3,1.5-2.7,2.8-4.5,4h-0.9c0.1-0.1,0.1-0.1,0.1-0.2
		c-0.9,0.6-2,1.5-2.2,2.1l0.4,0.9c0.6,1.6,3.9,3.1,5.3,4.1c1.7,1.2,3.3,2.5,5.1,3.6c1.7,1,6.1,4.4,8.5,4.7c-0.6,0.6-1.2,1.3-1.9,2
		c0.9,0.6,1.9,1.5,2.7,2.3c2.7,7.3,4.7,14.8,7,22c2.4,6.2,6.8,11.7,11.7,16.5c-4.1-0.6-8-1.5-12.1-1.9c-5.6-0.6-11.3-1-17-0.6
		c-7.3,0.4-14.6,1.7-21.8,2.9c-7.3,1.3-14.4,3.6-21.8,5.1c-4.9,1-27.1,3.7-32.1,3.9c-1-0.2-2.1-0.2-3.2-0.2
		c-9.3-0.6-18.2-2.5-27.2-4c2.5-0.6,4.9,0.4,7.3-0.2c2.5-2.1,4.1-4.9,4.1-7.8c-1.5-0.9-2.8-2.5-4.9-1.9c-11.1,2.1-22.3,4.4-33.9,4.1
		c-4,0.4-13-2.4-10.9,5.7c-2.3,0.4-4.4,0.8-6.4,1.2c-5.4,1.2-10.3,3.3-15.9,4.4c-0.6,0.2-1.2,0.2-1.9,0.4
		C457.5,119.5,456.5,106.4,459.7,95.2z M578,156.3c-2.7-0.9-5.4-1.5-8.2-1.9c-9.5-0.6-19,1.5-27,5.7c0.2-1.3,0.8-3.2,1.3-4.8
		c0.4-2,1-4.1,2.1-6.1c5.4-2.4,15.3-4.8,15.3-4.8c6.4-0.6,12.1,3.6,14.6,5.8C576.8,152.2,577.2,154.4,578,156.3z M526,143
		c-17.5-4.9-45.9-17.5-54.2,7.6c4.1-2.8,11.1-5.8,13.8,0.4c3.6,8.5,7,17.5,16.1,21.2c-2-2.9-4.9-5.4-5.7-9.2c3.2,2.9,5.6,7,9.7,8.6
		c-2.9-4.1-6.6-7.6-7.8-12.8c3.2,3.5,5.6,7.8,9.5,10.3c-1.5-2.9-3.6-5.6-4.5-8.8c10.3,7.3,15.6,2.5,26.2,0.6
		c-2.4,2.5-5.4,3.9-7.4,6.5c4.4-1.9,8.5-4.4,13-5.6c0.6-0.4,1.2-0.6,1.9-0.8l0.6-0.2l-1.5,3.3c-4,3.2-7,6.9-9.2,11.1
		c-0.4,1-0.6,2.4-1,3.3c-2.3,1.9-4.4,3.3-7,4.5c-7.8,3.7-16.9,4.4-25.3,3.2c-2-0.4-4.1-0.6-6.1-1.2c-3.6-1-7-3.2-9.5-5.8
		c-2.5-2.5-4.4-5.6-5.6-8.8c-2.7-7.3-4.9-14.9-5.4-22.9c-0.2-2.7-0.4-5.6,0.6-8.1c1-2.9,3.3-5.4,6.1-6.9c4.1-2.4,8.6-3.2,13-4.1
		c8.2-1.3,16.6-2.4,24.9-1.9c1.9,0.2,4.1,0.4,6,0.6c4.4,0.8,9.2,1.9,13.2,3.6c3.2,1.3,6.4,3.2,8.2,6.1c1.6,2.4,2.4,5.1,2.4,7.8
		C536.1,145.5,531,144.4,526,143z M524,156c-5.3,1.7-11.1,1.2-16.2-0.2c-4.5-1.5-9.3-4.1-12.1-8.2c-0.9-1-1.3-3.5,0.4-4
		c1.9-0.4,3.6,0.2,5.4,0.6c6.6,1.9,13.3,4,20,6c1.9,0.6,4.1,1,5.3,3.1C527.1,154.8,525.1,155.5,524,156z M443.1,177.8
		c-5.8,1.3-7,7.2-8.6,12.1c0.4-4.1,2.3-12.8,4-18.1l0.4,0.4c1.2-8,4.1-15.9,11.3-20.1l-6.1-1.3c4.9-4.1,7.8-8.8,9.5-14.1
		c0.2,0.6,0.2,1.3,0.2,2c-0.2,1.5-0.4,3.1,0.2,4.4c0.4,0.9,1.3,1,2,1.7c2.5,1.6,3.9,4.4,4.8,7c1.5,4.1,2.7,8.2,3.9,12.4
		c1.2,4.3,2.7,8.5,4.9,12.4c3.1,5.2,7.8,9.3,13.2,11.5c7.7,3.6,16.3,4.4,24.7,3.5c4.9-0.6,9.9-2,14.4-4.3c0.4-0.2,0.9-0.4,1.2-0.6
		c-3.9,7.3-4.1,16.1-2.5,24.9l0.9,0.2l2.7,0.2c-0.2-0.6-0.2-1.2-0.4-1.9c-1-5.4-1.5-11.1-0.6-16.5c0-2.7,0.6-5.3,1.5-7.8
		c2.4-1.3,4.4-2.8,6.2-4.7c4.1-4,7-8.6,9.3-13.8c8.2-5.4,18.9-8.4,29.5-6.9c4,0.2,7.8,1,11.5,2.7c1,2.1,2.5,4.1,3.9,6.1
		c-2.4-1.5-5.3-2.3-7.8-1.3c-9.9,0-15.9,4.1-25.8-0.6c-6,1-9.3,6.4-13,10.7c7,9.6,13,25.5,24.9,25.5c9.9,0,19.8-11.8,25.8-23.8
		c0.4-1.9,0.4-3.9-0.2-5.4c2.5,2.7,5.3,5.3,8.4,7.3c1.9,1.2,4.1,2.3,6.2,2.9c2.7,4.9,4.4,9.9,5.4,15.2c-0.4-4.9-1.5-9.7-3.3-14.6
		c1,0.4,2.1,0.6,3.2,0.6c3.2,0.6,6.4,0.6,9.6,0.6c8.4,0.2,17-1.5,24.6-5.6c4.1-2.1,7.7-5.3,9.5-9.5c3.9-8.9,6.5-18.1,8.6-27.5
		c0.4-1.5,1-2.7,1.9-4c-0.4-2,1.2-3.7,2.9-4.1c0.2-0.2,0.6-0.2,0.9-0.2c0.9-0.4,2.1-0.4,2.9,0.2c5.3,2.5,8.2,10.1,10.3,15
		c2.7,6.1,5.3,12.6,6.1,19.1c0.2,1.5-0.4,2.7-1.3,3.3c1.3,11.1-1.3,23.1-4.4,33.6c-1,4.1-2.7,9.3-4.9,14c-1.5,5.2-4.9,9.6-8.9,13.2
		c-0.6,0.6-1.5,0.9-2.5,0.9c-0.4,0.6-0.6,1.3-1,1.9c-4.8-0.8-9.5-1.2-14.2-1.5c-9.5,8.4-21,14.8-32.1,21.8c0.2,0.4,0.2,1-0.2,1.5
		c-2.9,5.7-7.3,10.3-12.4,14.6c-0.4,0.6-1,1.5-1.9,1.5c-6.1,4.9-12.4,9.5-19.3,13c-15.3-1.5-30.7,0.6-45.9,4.4
		c-6.4-2.7-12.1-6.4-17.7-10.3c0.4,0,0.9,0,1.3-0.2c-0.2-0.6-0.8-2.3-1-2.8c-1.7-0.2-3.3-0.4-5.1-0.6c-4.4-3.3-8-7.2-10.7-11.5
		c-0.2-0.4-0.2-0.9-0.2-1.2c-9.9-5.7-20.4-11.1-29.1-18.1c-4.1,0.2-7.8,0.4-12,1c-1.9-2.1-3.6-4.4-5.3-6.5c-7-7.3-9.2-17.4-13-26.3
		C439.5,203.3,440.6,190.1,443.1,177.8z"/>
</g>
<path d="M735.4,430.2c-77.1-18.4-157-32.4-236.4-21.7c-21.9,2.9-43.5,7.7-64.4,14.6c-4.2,1.4-2,7.9,2.2,6.5
	c75.2-24.8,155.8-20.7,232.7-6.6c21.6,3.9,43.1,8.8,64.4,13.8C738.2,438,739.6,431.2,735.4,430.2z"/>
<g>
	<g>
		<path d="M101.9,71.3c3.6-4,9.4-4,14.3-4.1c38.3,0.1,76.6,0,114.9,0c7.2-0.7,15,4.1,15.8,11.7c0.8,8.6,0.3,17.2,0.4,25.8
			c40.6,0,81.1,0,121.7,0c5.1,0,10.9,0.1,14.5,4.2c4.1,3.7,4.2,9.5,4.2,14.6c-0.1,31.2-0.1,62.4,0,93.6c0,5.1-0.1,10.8-4.2,14.5
			c-3.6,4.1-9.4,4.2-14.5,4.2c-14.9,0-29.8-0.1-44.7,0c-7.3,8.3-13.8,17.4-21.6,25.3c-5.2,5.2-15,2.5-17.3-4.3
			c-1.4-6.9-0.7-14-0.7-21c-3.1,0-6.3,0-9.4,0c0,24.9,0,49.9,0,74.8c0,5.1-0.1,10.9-4.2,14.6c-3.7,4.1-9.5,4.1-14.5,4.2
			c-15.6,0-31.2-0.1-46.8,0c-0.1,7,0.7,14.1-0.8,21c-2.3,6.9-12.1,9.5-17.3,4.3c-7.8-7.9-14.1-17.1-21.5-25.3
			c-16.5-0.1-33,0.3-49.5-0.1c-7.3,0.2-13.8-6.3-13.6-13.6c-0.4-30.5,0-61-0.1-91.5c-0.8-7.3,4-15.2,11.7-16
			c13.6-0.9,27.2,0,40.8-0.4c-2.6-3.1-5.3-6.2-7.9-9.4c-13.4-0.1-26.7,0.4-40.1-0.1c-7.3,0.2-13.9-6.3-13.7-13.6
			c-0.4-32,0.1-64.1-0.2-96.2C97.7,82.5,97.1,75.6,101.9,71.3z M107.2,81.1c-0.5,32.8,0,65.7-0.3,98.6c0,3.3-0.3,9.2,4.6,9
			c14.8,0.6,29.6,0,44.4,0.2c8.6,9.6,15.7,20.6,25.5,29.1c0.6-9.7,0.5-19.4,0.4-29.1c17.2-0.2,34.5,0.4,51.7-0.2
			c4.8,0.3,4.5-5.6,4.5-8.9c-0.2-32.8,0.3-65.7-0.3-98.5c0.3-5-5.7-4.7-9.1-4.7c-38.3,0.1-76.6,0-114.9,0.1
			C111.1,76.3,106.9,77.4,107.2,81.1z M247.4,114.1c0,21.8,0,43.7,0,65.5c0,5-0.1,10.8-4.1,14.5c-3.7,4.2-9.6,3.9-14.6,4.6
			c0.1,8.3-0.5,16.7,0.4,24.9c0.6,0.6,1.7,1.7,2.2,2.3c20.9,1.1,41.9,0.1,62.8,0.4c-0.1,9.7-0.2,19.3,0.4,29
			c9.9-8.4,16.9-19.5,25.5-29.1c17.9-0.2,35.8,0.4,53.7-0.2c4.9,0.2,4.6-5.6,4.6-9c-0.2-32.8,0.3-65.7-0.2-98.5
			c0.3-3.7-3.8-4.9-6.7-4.5C330.1,114,288.7,114.1,247.4,114.1z M191.2,198.3c0,3.1,0,6.2,0,9.4c9.4,0,18.7,0,28.1,0
			c0-3.1,0-6.2,0-9.4C209.9,198.3,200.6,198.3,191.2,198.3z M116.4,226.1c0.1,28.9-0.1,57.9,0.1,86.8c-0.4,2.9,0.8,7.1,4.5,6.8
			c17.9,0.6,35.8,0,53.7,0.2c8.6,9.6,15.7,20.6,25.5,29c0.6-9.7,0.4-19.3,0.4-29c20.3-0.2,40.6,0.4,60.9-0.2c3.6,0.3,5-3.7,4.6-6.6
			c0.2-25.8,0-51.6,0-77.4c-12.3-0.4-24.8,1-37-0.7c-8-2-10.1-10.8-10.2-18c-9.1,0-18.1-0.1-27.2,0.1c-2.3,3.9-5,8.7-10.1,9.2
			c-6.6,1-10.7-5-14.6-9.2c-15.4,0-30.7-0.4-46.1,0.1C116,216.9,116.3,222.7,116.4,226.1z"/>
	</g>
	<g>
		<path d="M126,121c1.4-13.7,13.6-25.8,27.7-25.5c7-0.4,13.1,3.3,18.9,6.8c9.8-7.7,24.3-9.5,34.5-1.7c14.9,10.4,16,34,3.3,46.6
			c-12.2,11.7-25.3,22.6-37.9,34c-11.8-10.5-23.7-21-35.5-31.5C129,142.6,124.4,131.6,126,121z M135.2,123.2
			c-0.7,7.6,2.9,14.8,8.5,19.7c9.5,8.7,19.3,17.1,28.9,25.7c10.3-9.4,21.2-18.2,31.2-28c10.7-10.1,7.2-31.5-7.9-35.1
			c-9.4-2.9-17.4,3.9-23.3,10.3c-5.2-5-10.7-11.3-18.7-11C143.9,104.5,135.5,113.6,135.2,123.2z"/>
	</g>
	<g>
		<path d="M304.3,129.1c6.2-9.1,20.9-6.3,26.2,2.3c4.4,5.8,2.9,13.3,2.2,19.9c9.5-0.6,21.2,1.1,25.2,11.1
			c3.3,10.8,1.3,22.4,1.7,33.6c0.9,9.7-6.1,19.7-16.1,20.6c-16.5,0.9-33.8,1.5-49.3-5.4c-6.2,8.2-17.1,5.4-26,5.7
			c-5.4,0.6-11.6-3.1-11.3-9.1c-0.4-14.9-0.1-29.9-0.2-44.9c-0.5-4.7,2-10,6.9-11.1c9.2-1.2,18.5-0.7,27.6,0.8
			C297.8,146.1,300.4,137.3,304.3,129.1z M311.4,135.8c-3.5,10.3-9.2,19.7-17.2,27.1c-0.1,12.5,0,25.1-0.1,37.6
			c14.3,8.2,31.2,7.6,47.2,6.9c4.8,0.1,9.1-4.2,8.9-9c0-10.7,1.2-21.6-0.8-32.2c-5.7-9.5-19-4.1-28-5.4c1.1-6.9,2.9-13.8,2.9-20.9
			C323.9,134.3,314.1,129.3,311.4,135.8z M266.1,160.8c0,15.6,0,31.2,0,46.8c6.2,0,12.5,0,18.7,0c0-15.6,0-31.2,0-46.8
			C278.5,160.8,272.3,160.8,266.1,160.8z"/>
	</g>
	<g>
		<path d="M176.9,242.4c6.9-8.8,21.8-8.9,28.7,0c4.6,4.9,4.3,12,4.3,18.3c2.1-6.2,5.8-12.5,12.5-14.5c9.9-4,22.1,2.5,24.4,12.9
			c2,6.2-1.1,12.2-3.8,17.6c11.6,7.2,15.3,21,14,33.9c-3.1,0-6.2,0-9.3,0c-0.2-7.7,0.6-16.7-5.6-22.5c-5.4-6-14.1-6.1-21.4-4.2
			c1.5,8.7,2.5,17.4,3.4,26.2c-3.1,0.3-6.2,0.7-9.3,1c-1.9-11.1,0-25-9.8-33c-9.9-8.7-27.1-5.2-32.7,6.7c-3.4,8.3-3.1,17.5-4.4,26.3
			c-3.1-0.3-6.2-0.7-9.3-1c0.8-8.8,1.9-17.5,3.4-26.2c-7.3-1.9-15.9-1.8-21.4,4.2c-6.3,5.8-5.4,14.8-5.6,22.5c-3.1,0-6.2,0-9.3,0
			c-1.3-12.9,2.4-26.7,13.9-33.9c-3.2-5.8-6.1-12.5-3.4-19.1c3.4-10.7,17.3-15.9,26.8-10c5.2,2.5,7.6,8,9.5,13.1
			C172.7,254.4,172.3,247.3,176.9,242.4z M187.3,245.9c-6.3,2.7-7.4,12.3-1.4,16c5,4,13.2,0.7,14.5-5.5
			C202.3,249.4,193.9,242.3,187.3,245.9z M149.9,255.3c-6.3,2.6-7.5,12.4-1.5,16c5.1,4.1,13.3,0.7,14.5-5.5
			C164.8,258.7,156.5,251.7,149.9,255.3z M224.7,255.3c-6.3,2.7-7.4,12.4-1.4,16c5.7,4.6,15.1-0.4,14.7-7.6
			C238.2,257.3,230.5,252.1,224.7,255.3z M173.3,257.7c-0.7,4.4-1.3,8.8-2,13.2c1.8-1.1,3.7-2.2,5.5-3.3
			C175.6,264.2,174.5,261,173.3,257.7z M209,258.1c-1.1,3.2-2.3,6.3-3.4,9.5c1.9,1.1,3.7,2.1,5.6,3.2
			C210.4,266.6,209.7,262.3,209,258.1z"/>
	</g>
</g>
</svg>
