<?xml version="1.0" encoding="utf-8"?>
<!-- Generator: Adobe Illustrator 25.3.1, SVG Export Plug-In . SVG Version: 6.00 Build 0)  -->
<svg version="1.1" id="Capa_1" xmlns="http://www.w3.org/2000/svg" xmlns:xlink="http://www.w3.org/1999/xlink" x="0px" y="0px"
	 width="800px" height="600px" viewBox="0 0 800 600" style="enable-background:new 0 0 800 600;" xml:space="preserve">
<style type="text/css">
	.st0{fill:#FFFFFF;}
	.st1{fill:#020203;}
</style>
<g>
	<path class="st0" d="M440.2,336.5c4,3.5-1.9,9.3-5.9,5.9c-1.9-1.9-4-3.5-5.9-5.4c0.5,4.7,1.3,9.4,1.9,14.1h-0.2
		c-0.8,0-1.5,0.2-2.4,0.5c0.2,0.7,0.7,1.3,0.5,2.5c-0.2,4.9,0.3,9.6,1.2,14.3c-1.5,1.9-3.2,3.9-4.5,5.9c-5.2,7.4-9.4,15.2-12.3,24.1
		c-3.5,14.3-4.7,29.5-3.9,44.1c-0.5,10.8,0.3,20.9,3.7,28.6c0.2,0.5,0.3,1.2,0.5,1.9c0.8,4.2,5.1,6.2,8.1,9.1
		c-0.5,1-1.3,3.2-1.9,4.4c6.4,1,14.3,0.3,18.5,5.6c-1.7,14.5-2.8,29.1-2.3,43.7c13.5-4.3,27.4-7,41.6-8.6
		c44.6-4.8,89.2,2.2,133.8,2.5c23.4,0.1,47.5-2.9,70.5,2c2.5,0.5,5.1,1.1,7.5,1.8c1.8-20.9-0.3-42.1-5.3-62.3c3-2.9,5.6-5.4,7.7-8.4
		c4.4-4.4,8.6-9.1,10.4-15.3c8.1-25.9,5.9-55.4-7.7-79.3c-3.7-6.9-8.6-13.1-14.1-18.7c-0.5-1.5-0.3-3,0.5-4.4
		c-1.5-0.3-2.7-0.7-4-1.2H676c0.2-2.4,0.5-4.9,0.8-7.2c-2.2-0.7-3.7-3-3.2-5.2c3-10.9,11.4-19,18.5-27.4c-1.2,0.8-2,1.5-3,2.4
		c-4.2,3.4-10.1-2.5-5.9-5.9c9.9-7.6,17-18.7,22.2-30.3c0.5-2.4,0.7-4.5,1-6.9c0-2,0.2-4,0.5-6.2c-1.3-9.1-1.2-18.3-0.2-27.6
		c-1.2-13.5-3.9-26.3-7.2-38.7c-0.5-0.5-0.7-0.8-1-1.3l0.7,0.5c-1.2-3.9-2.7-7.9-4.2-12c-2.4-2.2-4.9-4.4-7.2-6.2
		c-0.5-0.3-0.7-0.5-1.2-0.8c-0.2-1.2-0.2-2.7-0.3-4c-2.4-0.5-5.1-0.8-7.4-1.3c-3.5-2.4-6.7-4.7-9.9-7.6c-1.5,0.5-3.2,0-4.2-1.9
		c-4.9-8.8-10.6-17.2-14.1-26.4c-3-8.1-3.9-16.5-3.2-24.7c-1.2,1.3-2.9,2.2-4.2,3.2c-4.5,2.9-8.6-4.2-4.2-7.2
		c3.9-2.5,7.1-6.1,9.9-9.6c2.4-17.3,5.9-34.2,5.4-51.3c-0.7-1.2-1.9-2-3.4-2.4c-5.7-5.6-15.2-6.7-23.2-8.1c-7.2,3-14,7.1-20.2,12
		c-1,3.7-3.9,6.7-8.2,7.7c-1.2,1.5-3,2.7-5.2,3.2v1.2c-0.8-0.2-1.9-0.3-2.7-0.7h-0.7c-2.7,0-4.9-0.7-6.7-1.9
		c-34.7-7.9-72.2-2.9-104,13c-2.9-4.5-5.9-8.4-9.1-12.6c-1.2-0.5-3.4-1.9-4.5-2.4c-4.9,0.8-8.8-1.7-13-3.7c-9.1-5.4-20-1.3-29.8,0.2
		c0.2,0.2,0.2,0.3,0.5,0.5c-0.2,0-0.3-0.2-0.7-0.3c-7.6,6.7-12.3,15.3-14.6,24.6c-4.2,6.7-4.4,15.7-3,23.2c0.5,2,1,4.2,1.9,6.1
		c0.3,2.5,0.8,4.9,1.3,7.2c0.8,1.3,1.7,2.5,2.7,3.7c0.8,1,2,2,3.4,3.4c0.5,0.5,1.2,1.2,1.7,1.9l0.5,1.2c0.2-0.2,0.2-0.2,0.3-0.2
		c-0.2,0-0.3,0.2-0.3,0.2s0.2,0.2,0.2,0.3c0.7,1.2,1.3,3.4,2.5,4.9c0,0,0.2,0.2,0.3,0.5c0.3,1.3,0.7,2.5,0.5,3.9
		c0.3,0.3,0.7,0.5,1.2,0.8c-1.3,3.7-2.7,7.2-3.2,10.9c-2.9,14.6,0.5,30.5-6.2,44.4c-2.2,5.6-6.1,9.9-10.3,14.1
		c1.3,1,2.4,2.5,1.9,4.4c-2.7,12.1-8.8,23.2-13,35c0.5,9.9,2.2,19.9,4.5,29.8l0.8,0.5c0,1.2,0,2.9,0.3,4.2c0.7,2.4,1.2,4.4,2,6.6
		c0.3,1.5,0,2.5-0.5,3.4c0.5,1.7,0.8,3.9,1.3,5.7c4.5,7.7,9.4,15,14.6,22.1C421.8,318.6,430.3,328.4,440.2,336.5z"/>
	<path class="st1" d="M631.6,142c-14,8.1-29.8,9.8-44.9,11.4c-5.6-14,6.2-11.8,10.9-13.6c13.8-2.9,26.6-9.3,39.2-15.8
		c2.2-1.3,4.2,0.8,6.2,1.9c0.8,5.2-0.3,9.9-2.5,14.1C637.7,141.4,634.5,140.5,631.6,142L631.6,142z M607.2,285
		c0.2-0.2,0.2-0.3,0.3-0.5C607.4,284.8,607.4,285,607.2,285z M511.4,302.1c7.7,14.6,20,26.8,36.9,28.5c10.9,0.7,21-2.4,29.6-7.7
		c-9.1,6.9-20.2,10.4-32.7,9.9c-16.5-1.7-29-13.1-36.5-27.6C509.7,304.2,510.7,303.2,511.4,302.1L511.4,302.1z M503.8,308.4
		c-0.2-0.3-0.3-0.5-0.3-0.8c0.8-0.3,1.9-0.5,2.5-0.8C505.3,307.2,504.8,307.9,503.8,308.4L503.8,308.4z M595.9,310.7
		c-1-0.8-1.9-1.5-3-2.4c0.7-1,1.3-1.9,2-3.2l0.2,0.2c1.2,1.2,2.4,2.2,3.7,3.2c-5.6,9.1-12.8,17-22.1,23.2
		C584.8,326,591.2,318.8,595.9,310.7z M561.2,306.9c-7.7-0.5-16.7-0.2-22.9-6.2C546.2,300.1,556.3,299.3,561.2,306.9z M566.3,286.2
		c-15.5,1.3-30.8,0.8-46-1.3c-3.9-0.5-2.2-5.2,1.5-4.5c11.6,1.7,22.9,2.4,34.5,1.9c5.9-0.3,11.8-0.8,17.8-1.7c4-0.5,9.3,0.3,9.1-5.2
		c0.5-3,6.4-1.7,5.7,1.3C589,287.3,573.7,285,566.3,286.2L566.3,286.2z M519.1,86.2c3.4-0.5,7.1-1.2,10.8-1.3
		C526.5,86.2,523,86.5,519.1,86.2z"/>
	<path class="st1" d="M419.3,320.7c-1,0.3-1.9,0.3-3,0.5c-0.5,0.5-1.2,1-1.7,1.3c2.2,0.3,4.5,0.3,6.7,0.8c1.3,1.9,3,4,4.5,5.7
		c0.5,6.2,1.7,12.3,2.4,18.5h-0.2c-0.7,0.3-1.3,0.5-2.4,0.5c0.5,0.7,0.7,1.5,0.7,2.7c-0.3,5.1,0.5,9.9,1.3,14.5
		c-1.5,1.9-3.2,4-4.5,6.1c-5.4,7.6-9.8,15.7-12.3,24.4c-3.5,14.6-4.5,29.8-3.4,44.8c-0.5,10.9,0.5,21.2,4,29c0.2,0.7,0.3,1.3,0.5,2
		c0.8,4.2,5.4,6.2,8.1,9.1c-0.5,1.2-1.3,3.4-1.9,4.4c6.2,1.2,14.3,0.5,18.5,5.6c-1.8,15-2.7,30.3-2,45.4c13.6-4.4,27.8-7.2,42.2-8.8
		c44.6-4.8,89.2,2.2,133.8,2.5c23.4,0.1,47.5-2.9,70.5,2c2.8,0.6,5.6,1.3,8.4,2c2.4-22.3,0.3-44.9-5.3-66.4c3-2.9,5.6-5.6,7.7-8.6
		c4.4-4.4,8.8-9.3,10.4-15.5c8.1-26.3,5.6-56.1-8.1-80c-3.7-7.1-8.9-13-14.5-18.7c-0.5-1.7-0.3-3.2,0.5-4.4c-1.3-0.5-3-0.8-4-1.2
		c0,0-0.2,0-0.2-0.2c0.7-6.6,1.7-13,2.4-19.4c3-3.4,5.7-6.7,8.6-10.1l4-0.5c-0.5-0.5-1.3-1.2-1.9-1.9c-0.2,0-0.2,0-0.3-0.2
		c2.9-3.4,5.6-6.9,7.9-10.6c9.3-22.2,15.3-45.8,13.8-69.7c1.3-0.2,4.2-0.2,5.6-0.3c-2.5-15.7-8.1-30.8-17.5-43.8
		c3.7,2,7.6,4,11.4,5.9c-5.2-9.9-13.8-17-22.2-24.1c-0.5-0.3-0.7-0.5-1.2-0.8l-0.3-4.2c-2.4-0.5-5.2-0.8-7.6-1.2
		c-8.1-5.6-16.2-11.4-20.2-20.5c-3.7-8.8-6.2-17.8-9.3-26.9h0.3c-0.5-1.2-0.5-2.4-0.5-3.5c0.2-1.2,0.3-2.4,0.5-3.4
		c0.2-0.5,0.3-0.8,0.5-1.2c-1.2-1.5-1.2-3.5,0.3-5.6c9.6-12.8,15.5-31.5,12.8-47.3c-0.8-5.6-3-10.4-5.4-15.5
		c-1.2,0.2-2.2,0.3-3.4,0.5c-0.3-2.4-1.9-4.4-4.5-5.1c-6.2-5.6-15.7-6.7-23.7-8.1c-7.1,3.4-14.1,7.2-20.2,12.1
		c-1.2,3.7-4,6.9-8.4,7.9c-1.3,1.3-3.2,2.5-5.4,3.2v1.2c-0.8-0.3-1.9-0.5-2.7-0.7H589c-2.7,0-5.1-0.7-6.9-1.9
		c-35-7.7-72.9-2.4-104.7,13.8c-3.2-4.2-6.2-8.2-9.3-12.6c-1.2-0.5-3.4-1.9-4.5-2.4c-4.9,0.8-9.1-1.7-13.1-3.5
		c-9.3-5.4-20.4-1.3-30.3,0.3c0.3,0.2,0.3,0.3,0.5,0.5c-0.3-0.2-0.5-0.3-0.7-0.3c-7.7,6.7-12.5,15.5-14.6,25.1
		c-4,6.9-4.2,15.8-2.7,23.4c0.5,2.2,1.2,4.2,1.9,6.2c0.5,2.4,0.8,4.9,1.3,7.2c0.8,1.3,1.9,2.5,2.9,3.7c0.7,0.8,2,1.9,3.4,3.4
		c0.7,0.7,1.2,1.3,1.7,1.9l0.5,1.2c0.2,0,0.2,0,0.3-0.2l-0.2,0.2c0.2,0.2,0.2,0.3,0.2,0.3c0.5,1.2,1.5,3.4,2.7,5.1
		c0.2,0.3,0.2,0.5,0.3,0.5c0.5,1.3,0.5,2.5,0.5,3.9c0.5,0.3,0.8,0.5,1.2,0.8c-1.3,3.4-2.5,7.1-3.2,10.9c-2.7,14.8,0.5,30.8-6.2,44.9
		c-4.2,10.3-13.8,16.7-20.4,25.3l8.8-0.5c-3,4.9-5.6,9.9-7.7,15c-2.7,12.6-6.9,28.6-6.2,41.4c3.2,1.2,6.2,2.4,9.3,3.4
		c0.5,13,5.7,25.1,7.1,37.9c1.2-0.3,3.4-0.8,4.2-1.3C409.7,305.8,414.3,313.4,419.3,320.7z M657.7,64.1v-0.3
		c0.2,2.2-0.2,4.2-0.5,6.6c-0.2-0.5-0.2-1.2-0.3-1.7C656.5,67,656.7,65.3,657.7,64.1z M469.8,406c6.7-5.6,14.6-9.9,22.6-13.3
		c13.1-5.9,28.5-10.6,43.3-10.1l0.5,0.2c-2.4-1.2-4.4-2.4-6.7-3.4c14.6-3.4,29.6-5.6,44.6-5.2c6.2,0.8,12,2.4,17.8,4.2
		c7.7,2.9,15,6.7,23.1,8.6c1.9,0.5,3.9,0.8,5.7,1.3c3.4,1.9,6.9,4,9.9,6.2l-10.9,5.6c-4.2,4.7-8.9,9.3-14.1,12.8
		c-8.1,5.2-14,13.1-21.5,19c-15.5,11.4-31.1,22.9-46.8,33.5c-5.1,2.7-9.9,5.2-15,7.7C522.2,473.2,470,436.7,469.8,406z M630.6,400.1
		c-0.7,0.5-1.3,1.2-2,1.5h-0.5C628.9,401.3,629.6,400.6,630.6,400.1z M605.3,420.8c-0.8,1.3-1.9,2.4-2.5,3.9c-0.5-0.2-1.2-0.2-1.7,0
		C602.6,423.5,604,422.2,605.3,420.8z M597.4,428.1c-0.5,0.5-0.8,1.2-1.2,1.5l-1.5,0.8C595.7,429.6,596.6,428.9,597.4,428.1z
		 M634.8,485.1c-5.2,2.4-10.1,3.9-15.5,5.2c-13,1.3-26.4,2.4-39.6,3.4c-6.2,0.2-12,0.3-18,0.5c-4.2-1.2-8.4-1.9-12.8-2.4
		c-3.7-0.5-7.7-0.8-11.6-0.8c1.3,1.3,2.2,3.4,2,5.2c-11.8-0.5-23.2-3.2-34.5-6.9c5.7-4,11.8-7.7,17.8-11.3c1.9,0.3,5.6,0.5,7.2,0.8
		c20.4-16.5,42.8-30.3,63-46.8h0.2C634.8,410.7,635.6,466.4,634.8,485.1z M665.3,207c-1.2,4.2-2.4,8.4-4.5,12.1
		c-3.4,6.4-9.8,11.3-16.5,13.5c-5.6,1.7-11.6,2.7-17.5,3c-8.1,0.3-16.5-1.2-23.9-4.9c-2.4-4.4-5.4-8.6-8.9-12.6
		c-3.5-4.4-7.9-8.1-12.5-10.6l-0.3-0.5c-0.5-0.8-0.8-1.5-1.2-2.4h0.2c0.8,0.3,1.9,0.5,2.5,1c6.1,1.3,11.8,4.5,17.5,7.1
		c-2.5-3.4-6.6-5.2-9.9-7.4c14.1,2.4,21,8.1,34.8-0.8c-1.3,4.2-4.2,7.4-6.2,11.1c5.6-3.2,8.6-8.9,12.8-13.1
		c-1.3,6.6-6.4,10.9-10.4,16.2c5.6-2.4,8.8-7.2,13-10.9c-1.2,4.5-5.1,7.7-7.7,11.6c11.8-4.7,16.5-16.3,21.4-26.9
		c3.4-7.9,12.8-4.2,18.3-0.5c-11.4-31.6-48.8-15.8-72.4-9.6c-6.4,1.9-13,3.4-19.7,2.7c0-2.4,0.3-4.4,1.2-6.6
		c1.3-3.7,4.5-6.7,7.9-8.9c5.2-3.2,10.6-5.2,16.5-6.7c9.3-2.7,19.4-3.2,29-2.7c4.5,0.3,9.3,0.5,13.8,1c4.7,0.5,9.4,1.3,14,3
		c3,1.2,5.7,2.7,8.1,5.1c2.4,2.5,3.9,6.1,4,9.4C669.1,187.7,667.8,197.3,665.3,207z M595.7,226.2c-2.4-1.9-4.7-4.2-6.7-6.6
		C591.4,221.7,593.7,223.9,595.7,226.2z M593.2,193.7c1.5-2.4,4.5-3,7.1-3.9c8.9-2.5,17.8-5.2,26.6-7.6c2.4-0.5,4.9-1.3,7.2-0.7
		c2.4,0.5,1.9,3.4,0.5,5.1c-3.9,5.2-9.9,8.6-16.2,10.4c-7.1,1.9-14.6,2.4-21.5,0.3C595.2,196.9,592.4,195.9,593.2,193.7z
		 M422.3,125.4c-0.2-1.2,0.3-2.4,1-3.4c0.7-1,1.2-1.9,1.5-3l-1.2-2.4c2.5-1.3,5.2-3.4,6.4-4.2c2.2-1.3,4.2-3.2,6.4-4.5
		c1.9-1.3,5.7-3.2,6.7-5.2l0.5-1.2c-0.3-0.7-1.7-1.9-3-2.9c0.2,0.2,0.2,0.3,0.3,0.3c-0.3,0-0.7,0.2-1.2,0c-2.4-1.3-4.2-3-5.7-5.1
		c0.8,1.9,2,3.4,3.4,5.2c-0.8,0-1.7-0.2-2.4,0.2c-3-1.9-5.6-4.4-7.7-7.4c-1.3-1.5-2.2-3.4-3.4-5.2c0.3,4.2,2.4,8.1,4,11.8
		c-8.6-7.1-11.8-18.5-12.8-29c-1,4.5-0.3,9.4,0.2,14.1c-3.2-7.1-3.2-15.3-1.3-22.9c-0.3-0.7-0.3-1.3-0.5-2c-0.1,0.1-0.2,0.2-0.2,0.3
		c1.9-4.1,5.1-7.8,9.5-10.7c1.3-1,3.2-1.2,4.2-0.7c11.3-5.2,27.9-1.3,36.4,8.1c1.2,0.5,2.4,0.8,3.4,1.3c0.8,0.3,1.3,0.7,1.9,1.2
		c0.5-0.8,0.8-1.7,1.3-2.4c1.3,4.7,3.4,9.3,5.4,13.8c0.8-0.8,2.2-1.3,3.7-1.3v-4.7c8.1-5.2,17.5-7.7,26.9-8.9
		c0.5,0.5,0.8,1.2,1.3,1.7c2.4-1.9,5.2-3.4,8.8-4.2c1.7-0.5,3.4-0.5,5.2-0.7l-0.5-0.3c22.7-5.6,46.8-6.2,69.2,0.5
		c0.3,1.9,0.7,3.4,1,5.2c0.8-0.7,2.2-1.2,3.5-1.2h0.5l1.2-3.9c1.3-0.2,4-0.5,5.4-0.5c0.3-1.3,0.7-4.5,0.8-6.1
		c8.1-7.2,16.2-18.5,28.6-17.5c5.2-0.5,9.8,1.2,14,3.5c-0.3,0.2-0.3,0.3-0.5,0.5c-0.5,0.2-1.2,0.2-1.9,0.2c2,2.4,4,5.2,5.6,7.7
		c0,0.3-0.2,0.5-0.2,0.5c1.2,1.9,2,4,2.4,6.2c-0.8-1.3-1.7-2.5-2.9-3.5c-0.3,0.7-0.3,1.3-0.5,2c1.5,7.7,1.7,15.7-1.3,22.9
		c0.3-4.7,1.2-9.6,0.2-14.1c-1.2,10.4-4.2,22.2-12.8,29c1.7-3.9,3.5-7.7,4-11.8c-1.3,1.7-2.2,3.4-3.4,5.2c-2,3-4.7,5.6-7.7,7.4
		c-0.8-0.3-1.5-0.2-2.4-0.2c1.3-1.5,2.5-3.4,3.4-5.2c-1.7,1.9-3.4,3.5-5.7,5.1h-1.2c0.1-0.1,0.1-0.1,0.1-0.2
		c-1.1,0.8-2.5,1.9-2.8,2.7l0.5,1.2c0.8,2,4.9,3.9,6.7,5.2c2.2,1.5,4.2,3.2,6.4,4.5c2.2,1.3,7.7,5.6,10.8,5.9
		c-0.8,0.8-1.5,1.7-2.4,2.5c1.2,0.8,2.4,1.9,3.4,2.9c3.4,9.3,5.9,18.7,8.9,27.9c3,7.9,8.6,14.8,14.8,20.9
		c-5.2-0.8-10.1-1.9-15.3-2.4c-7.1-0.8-14.3-1.3-21.5-0.8c-9.3,0.5-18.5,2.2-27.6,3.7c-9.3,1.7-18.3,4.5-27.6,6.4
		c-6.2,1.3-34.3,4.7-40.7,4.9c-1.3-0.2-2.7-0.2-4-0.3c-11.8-0.8-23.1-3.2-34.5-5.1c3.2-0.8,6.2,0.5,9.3-0.2c3.2-2.7,5.2-6.2,5.2-9.9
		c-1.9-1.2-3.5-3.2-6.2-2.4c-14.1,2.7-28.3,5.6-42.9,5.2c-5.1,0.5-16.5-3-13.8,7.2c-2.9,0.5-5.6,1-8.1,1.5
		c-6.9,1.5-13.1,4.2-20.2,5.6c-0.8,0.2-1.5,0.3-2.4,0.5C419.5,156.2,418.3,139.7,422.3,125.4z M572.2,202.8
		c-3.4-1.2-6.9-1.9-10.4-2.4c-12-0.8-24.1,1.9-34.2,7.2c0.3-1.7,1-4,1.7-6.1c0.5-2.5,1.3-5.2,2.7-7.7c6.9-3,19.4-6.1,19.4-6.1
		c8.1-0.7,15.3,4.5,18.5,7.4C570.7,197.6,571.2,200.5,572.2,202.8z M506.3,186c-22.2-6.2-58.1-22.2-68.7,9.6
		c5.2-3.5,14.1-7.4,17.5,0.5c4.5,10.8,8.9,22.2,20.4,26.9c-2.5-3.7-6.2-6.9-7.2-11.6c4,3.7,7.1,8.9,12.3,10.9
		c-3.7-5.2-8.4-9.6-9.9-16.2c4,4.4,7.1,9.9,12,13.1c-1.9-3.7-4.5-7.1-5.7-11.1c13,9.3,19.7,3.2,33.2,0.8c-3,3.2-6.9,4.9-9.4,8.2
		c5.6-2.4,10.8-5.6,16.5-7.1c0.8-0.5,1.5-0.7,2.4-1l0.8-0.3l-1.9,4.2c-5.1,4-8.9,8.8-11.6,14.1c-0.5,1.3-0.8,3-1.3,4.2
		c-2.9,2.4-5.6,4.2-8.9,5.7c-9.9,4.7-21.4,5.6-32,4c-2.5-0.5-5.2-0.8-7.7-1.5c-4.5-1.3-8.9-4-12-7.4c-3.2-3.2-5.6-7.1-7.1-11.1
		c-3.4-9.3-6.2-18.9-6.9-29c-0.2-3.4-0.5-7.1,0.8-10.3c1.3-3.7,4.2-6.9,7.7-8.8c5.2-3,10.9-4,16.5-5.2c10.4-1.7,21-3,31.6-2.4
		c2.4,0.3,5.2,0.5,7.6,0.8c5.6,1,11.6,2.4,16.7,4.5c4,1.7,8.1,4,10.4,7.7c2,3,3,6.4,3,9.9C519.1,189.2,512.6,187.8,506.3,186z
		 M503.8,202.5c-6.7,2.2-14.1,1.5-20.5-0.3c-5.7-1.9-11.8-5.2-15.3-10.4c-1.2-1.3-1.7-4.4,0.5-5.1c2.4-0.5,4.5,0.2,6.9,0.7
		c8.4,2.4,16.8,5.1,25.3,7.6c2.4,0.8,5.2,1.3,6.7,3.9C507.7,201,505.2,201.8,503.8,202.5z M401.3,230.1c-7.4,1.7-8.9,9.1-10.9,15.3
		c0.5-5.2,2.9-16.2,5.1-22.9l0.5,0.5c1.5-10.1,5.2-20.2,14.3-25.4l-7.7-1.7c6.2-5.2,9.9-11.1,12-17.8c0.2,0.8,0.2,1.7,0.2,2.5
		c-0.2,1.9-0.5,3.9,0.3,5.6c0.5,1.2,1.7,1.3,2.5,2.2c3.2,2,4.9,5.6,6.1,8.9c1.9,5.2,3.4,10.4,4.9,15.7c1.5,5.4,3.4,10.8,6.2,15.7
		c3.9,6.6,9.9,11.8,16.7,14.6c9.8,4.5,20.7,5.6,31.3,4.4c6.2-0.8,12.6-2.5,18.3-5.4c0.5-0.3,1.2-0.5,1.5-0.8
		c-4.9,9.3-5.2,20.4-3.2,31.6l1.2,0.2l3.4,0.3c-0.2-0.8-0.3-1.5-0.5-2.4c-1.3-6.9-1.9-14.1-0.8-20.9c0-3.4,0.7-6.7,1.9-9.9
		c3-1.7,5.6-3.5,7.9-5.9c5.2-5.1,8.9-10.9,11.8-17.5c10.4-6.9,23.9-10.6,37.4-8.8c5.1,0.3,9.9,1.3,14.6,3.4c1.3,2.7,3.2,5.2,4.9,7.7
		c-3-1.9-6.7-2.9-9.9-1.7c-12.6,0-20.2,5.2-32.7-0.7c-7.6,1.3-11.8,8.1-16.5,13.5c8.9,12.1,16.5,32.3,31.5,32.3
		c12.6,0,25.1-15,32.7-30.1c0.5-2.4,0.5-4.9-0.3-6.9c3.2,3.4,6.7,6.7,10.6,9.3c2.4,1.5,5.2,2.9,7.9,3.7c3.4,6.2,5.6,12.6,6.9,19.2
		c-0.5-6.2-1.9-12.3-4.2-18.5c1.3,0.5,2.7,0.7,4,0.8c4,0.7,8.1,0.8,12.1,0.8c10.6,0.2,21.5-1.9,31.1-7.1c5.2-2.7,9.8-6.7,12-12
		c4.9-11.3,8.2-22.9,10.9-34.8c0.5-1.9,1.3-3.4,2.4-5.1c-0.5-2.5,1.5-4.7,3.7-5.2c0.3-0.2,0.7-0.3,1.2-0.3c1.2-0.5,2.7-0.5,3.7,0.2
		c6.7,3.2,10.4,12.8,13.1,19c3.4,7.7,6.7,16,7.7,24.2c0.3,1.9-0.5,3.4-1.7,4.2c1.7,14.1-1.7,29.3-5.6,42.6
		c-1.3,5.2-3.4,11.8-6.2,17.7c-1.9,6.6-6.2,12.1-11.3,16.7c-0.8,0.8-1.9,1.2-3.2,1.2c-0.5,0.8-0.8,1.7-1.3,2.4c-6.1-1-12-1.5-18-1.9
		c-12,10.6-26.6,18.7-40.6,27.6c0.2,0.5,0.2,1.3-0.3,1.9c-3.7,7.2-9.3,13.1-15.7,18.5c-0.5,0.8-1.3,1.9-2.4,1.9
		c-7.7,6.2-15.7,12-24.4,16.5c-19.4-1.9-38.9,0.8-58.2,5.6c-8.1-3.4-15.3-8.1-22.4-13.1c0.5,0,1.2,0,1.7-0.2c-0.3-0.8-1-2.9-1.3-3.5
		c-2.2-0.3-4.2-0.5-6.4-0.7c-5.6-4.2-10.1-9.1-13.6-14.6c-0.3-0.5-0.3-1.2-0.3-1.5c-12.6-7.2-25.9-14-36.9-22.9
		c-5.2,0.2-9.9,0.5-15.2,1.3c-2.4-2.7-4.5-5.6-6.7-8.2c-8.9-9.3-11.6-22.1-16.5-33.3C396.8,262.4,398.1,245.7,401.3,230.1z"/>
</g>
<g>
	<path d="M153.8,51.7c1.4-0.9,2.9-1.4,4.5-1.4c2,0,3.7,0.6,5.2,1.9c1.5,1.3,2.2,3,2.2,5.2c0,1-0.2,2.2-0.7,3.6l-18.2,49.3
		c-0.6,1.7-1.7,3-3.3,3.9c-1.6,0.9-3.4,1.4-5.3,1.4c-1.9,0-3.7-0.5-5.3-1.4c-1.6-0.9-2.7-2.3-3.3-3.9l-11.8-33.7l-12.3,33.7
		c-0.7,1.7-1.8,3-3.4,3.9c-1.6,0.9-3.3,1.4-5.2,1.4c-1.9,0-3.7-0.5-5.3-1.4c-1.6-0.9-2.7-2.3-3.3-3.9L70.1,61
		c-0.4-1.2-0.6-2.4-0.6-3.4c0-2.2,0.8-4,2.4-5.3c1.6-1.3,3.5-2,5.6-2c1.7,0,3.3,0.4,4.7,1.3c1.4,0.9,2.4,2.2,3,3.9l12.4,35.7
		l13.2-35.7c0.6-1.7,1.6-3,2.9-3.9s2.9-1.4,4.5-1.4c1.6,0,3.1,0.5,4.4,1.4c1.3,0.9,2.3,2.2,2.9,4l12.3,36.5l13-36.6
		C151.4,53.9,152.4,52.6,153.8,51.7z"/>
	<path d="M176.2,112.9c-1.3-1.3-2-3.2-2-5.7V58.7c0-2.5,0.7-4.4,2-5.7c1.3-1.3,3.2-2,5.7-2h31.4c2.6,0,4.6,0.5,5.9,1.6
		c1.3,1.1,2,2.7,2,4.7c0,4.4-2.6,6.5-7.9,6.5h-22.9V76h21c5.3,0,7.9,2.1,7.9,6.4c0,2.1-0.7,3.6-2,4.7c-1.3,1.1-3.3,1.6-5.9,1.6h-21
		V102h22.9c5.3,0,7.9,2.2,7.9,6.5c0,2.1-0.7,3.6-2,4.7c-1.3,1.1-3.3,1.6-5.9,1.6h-31.4C179.4,114.9,177.5,114.2,176.2,112.9z"/>
	<path d="M279.9,87.5c2,2.7,3,6,3,9.9c0,3.5-0.9,6.6-2.8,9.2c-1.8,2.6-4.5,4.7-7.9,6.1c-3.4,1.5-7.4,2.2-12,2.2h-24.1
		c-2.5,0-4.4-0.7-5.7-2c-1.3-1.3-2-3.2-2-5.7V58.7c0-2.5,0.7-4.4,2-5.7c1.3-1.3,3.2-2,5.7-2h23.2c6.7,0,12,1.5,16,4.5
		c4,3,5.9,7,5.9,12.1c0,3.3-0.9,6.2-2.6,8.7c-1.8,2.5-4.2,4.3-7.3,5.5C275,82.9,277.9,84.8,279.9,87.5z M244.6,76.1h11.9
		c3.1,0,5.4-0.5,6.9-1.5c1.5-1,2.2-2.5,2.2-4.6c0-2.2-0.7-3.9-2.2-4.9c-1.5-1-3.8-1.5-6.9-1.5h-11.9V76.1z M265.3,100.7
		c1.4-1.1,2.1-2.8,2.1-5.2c0-2.4-0.7-4.2-2.1-5.2c-1.4-1.1-3.8-1.6-7.1-1.6h-13.5v13.6h13.5C261.5,102.3,263.8,101.8,265.3,100.7z"
		/>
</g>
<g>
	<path d="M75.1,158.2c-0.3-0.3-0.4-0.6-0.4-1v-21.4c0-0.4,0.1-0.7,0.4-1c0.3-0.3,0.6-0.4,1-0.4h12.8c0.4,0,0.7,0.1,1,0.3
		c0.2,0.2,0.3,0.5,0.3,0.9c0,0.4-0.1,0.7-0.3,0.9c-0.2,0.2-0.5,0.3-1,0.3H77.4v8.4h10.8c0.4,0,0.7,0.1,1,0.3
		c0.2,0.2,0.3,0.5,0.3,0.9c0,0.4-0.1,0.7-0.3,0.9c-0.2,0.2-0.5,0.3-1,0.3H77.4v8.8h11.5c0.4,0,0.7,0.1,1,0.3
		c0.2,0.2,0.3,0.5,0.3,0.9c0,0.4-0.1,0.7-0.3,0.9c-0.2,0.2-0.5,0.3-1,0.3H76.1C75.7,158.6,75.3,158.5,75.1,158.2z"/>
	<path d="M118.3,148.1v9.3c0,0.4-0.1,0.8-0.4,1c-0.3,0.2-0.6,0.4-1,0.4c-0.4,0-0.7-0.1-1-0.4c-0.3-0.2-0.4-0.6-0.4-1v-9.2
		c0-1.5-0.3-2.6-0.8-3.3c-0.5-0.7-1.4-1-2.6-1c-1.4,0-2.5,0.5-3.3,1.4c-0.8,0.9-1.2,2.2-1.2,3.8v8.4c0,0.4-0.1,0.8-0.4,1
		c-0.3,0.2-0.6,0.4-1,0.4c-0.4,0-0.7-0.1-1-0.4c-0.3-0.2-0.4-0.6-0.4-1v-9.2c0-1.5-0.3-2.6-0.8-3.3c-0.5-0.7-1.4-1-2.6-1
		c-1.4,0-2.5,0.5-3.3,1.4c-0.8,0.9-1.2,2.2-1.2,3.8v8.4c0,0.4-0.1,0.8-0.4,1c-0.3,0.2-0.6,0.4-1,0.4c-0.4,0-0.7-0.1-1-0.4
		s-0.4-0.6-0.4-1V143c0-0.4,0.1-0.7,0.4-1c0.3-0.3,0.6-0.4,1-0.4c0.4,0,0.7,0.1,1,0.4c0.3,0.2,0.4,0.6,0.4,1v1.6
		c0.5-1,1.2-1.7,2.1-2.3c0.9-0.5,1.9-0.8,3.1-0.8c2.6,0,4.3,1.1,5.1,3.3c0.5-1,1.2-1.8,2.2-2.4c1-0.6,2.1-0.9,3.4-0.9
		C116.4,141.5,118.3,143.7,118.3,148.1z"/>
	<path d="M135.6,142.6c1.1,0.7,2,1.8,2.6,3.1c0.6,1.3,0.9,2.8,0.9,4.6c0,1.7-0.3,3.2-0.9,4.5c-0.6,1.3-1.5,2.3-2.6,3
		c-1.1,0.7-2.4,1.1-3.9,1.1c-1.3,0-2.4-0.3-3.4-0.9c-1-0.6-1.7-1.4-2.2-2.4v8c0,0.4-0.1,0.7-0.4,1c-0.2,0.2-0.6,0.4-1,0.4
		c-0.4,0-0.8-0.1-1-0.4c-0.3-0.3-0.4-0.6-0.4-1V143c0-0.4,0.1-0.7,0.4-1c0.3-0.3,0.6-0.4,1-0.4c0.4,0,0.8,0.1,1,0.4
		c0.2,0.3,0.4,0.6,0.4,1v1.8c0.5-1,1.2-1.9,2.2-2.4c1-0.6,2.1-0.9,3.4-0.9C133.2,141.5,134.5,141.9,135.6,142.6z M135,154.9
		c0.9-1.1,1.3-2.6,1.3-4.7c0-2-0.4-3.6-1.3-4.7c-0.9-1.1-2.1-1.7-3.8-1.7s-2.9,0.5-3.7,1.6c-0.9,1.1-1.3,2.7-1.3,4.7
		c0,2,0.4,3.6,1.3,4.7c0.9,1.1,2.1,1.7,3.7,1.7S134.1,156,135,154.9z"/>
	<path d="M143.4,137.5c-0.3-0.3-0.5-0.7-0.5-1.3c0-0.5,0.2-0.9,0.5-1.2c0.3-0.3,0.8-0.5,1.3-0.5c0.5,0,1,0.2,1.3,0.5
		c0.3,0.3,0.5,0.7,0.5,1.2c0,0.5-0.2,0.9-0.5,1.3c-0.3,0.3-0.8,0.5-1.3,0.5C144.1,138,143.7,137.8,143.4,137.5z M143.7,158.4
		c-0.3-0.2-0.4-0.6-0.4-1V143c0-0.4,0.1-0.8,0.4-1c0.3-0.2,0.6-0.4,1-0.4c0.4,0,0.7,0.1,1,0.4c0.3,0.2,0.4,0.6,0.4,1v14.5
		c0,0.5-0.1,0.8-0.4,1c-0.3,0.2-0.6,0.3-1,0.3C144.3,158.8,143.9,158.7,143.7,158.4z"/>
	<path d="M164.8,155c0.2,0.2,0.3,0.5,0.3,0.8c0,0.6-0.4,1.1-1.2,1.6c-0.8,0.5-1.7,0.8-2.6,1.1c-0.9,0.2-1.8,0.4-2.7,0.4
		c-2.6,0-4.6-0.8-6.1-2.3c-1.5-1.5-2.2-3.6-2.2-6.3c0-1.7,0.3-3.2,1-4.5c0.7-1.3,1.6-2.3,2.8-3.1c1.2-0.7,2.6-1.1,4.1-1.1
		c2.2,0,3.9,0.7,5.2,2.1c1.3,1.4,1.9,3.3,1.9,5.8c0,0.5-0.1,0.8-0.3,1c-0.2,0.2-0.5,0.3-0.9,0.3h-11c0.2,3.9,2.1,5.9,5.6,5.9
		c0.9,0,1.7-0.1,2.3-0.4c0.6-0.2,1.3-0.6,2.1-1c0.6-0.3,1-0.5,1.2-0.5C164.4,154.7,164.6,154.8,164.8,155z M154.6,145
		c-0.9,0.9-1.4,2.2-1.6,3.9h9.7c0-1.7-0.5-3-1.3-3.9c-0.8-0.9-1.9-1.4-3.4-1.4C156.7,143.7,155.5,144.1,154.6,145z"/>
	<path d="M182.3,156.7c0.2,0.2,0.3,0.5,0.3,0.8c0,0.3-0.1,0.6-0.3,0.8c-0.2,0.2-0.5,0.3-0.9,0.3h-12c-0.4,0-0.7-0.1-1-0.4
		c-0.3-0.2-0.4-0.5-0.4-0.9c0-0.4,0.1-0.7,0.4-1.1l10.1-12.2h-9.4c-0.4,0-0.7-0.1-0.9-0.3c-0.2-0.2-0.3-0.5-0.3-0.8
		c0-0.3,0.1-0.6,0.3-0.8c0.2-0.2,0.5-0.3,0.9-0.3h11.6c0.4,0,0.7,0.1,1,0.4c0.3,0.2,0.4,0.5,0.4,0.9c0,0.4-0.1,0.7-0.4,1.1
		l-10.2,12.2h9.8C181.8,156.4,182.1,156.5,182.3,156.7z"/>
	<path d="M199.3,148.1v9.3c0,0.4-0.1,0.7-0.4,1c-0.2,0.3-0.6,0.4-1,0.4c-0.4,0-0.7-0.1-1-0.4c-0.3-0.3-0.4-0.6-0.4-1v-1.6
		c-0.4,1-1.1,1.7-2,2.3c-0.9,0.5-1.9,0.8-3.1,0.8c-1.1,0-2.1-0.2-3-0.7c-0.9-0.4-1.6-1-2.1-1.8c-0.5-0.8-0.8-1.6-0.8-2.6
		c0-1.3,0.3-2.2,1-2.9c0.6-0.7,1.7-1.2,3.2-1.5c1.5-0.3,3.5-0.5,6.1-0.5h0.8v-1.1c0-1.4-0.3-2.4-0.8-3c-0.6-0.6-1.5-1-2.7-1
		c-1.6,0-3.1,0.4-4.7,1.3c-0.6,0.4-1.1,0.6-1.3,0.6c-0.3,0-0.5-0.1-0.7-0.3c-0.2-0.2-0.3-0.5-0.3-0.8c0-0.3,0.1-0.6,0.3-0.8
		c0.2-0.2,0.5-0.5,0.9-0.7c0.8-0.5,1.7-0.8,2.7-1.1c1-0.3,2-0.4,3-0.4C197.2,141.5,199.3,143.7,199.3,148.1z M195.3,155.3
		c0.9-0.9,1.3-2.1,1.3-3.6v-1H196c-2,0-3.5,0.1-4.6,0.3c-1.1,0.2-1.8,0.5-2.2,0.9c-0.4,0.4-0.7,1-0.7,1.8c0,0.9,0.3,1.6,1,2.2
		c0.7,0.6,1.5,0.9,2.4,0.9C193.3,156.7,194.4,156.2,195.3,155.3z"/>
	<path d="M226.3,148.1v9.3c0,0.4-0.1,0.7-0.4,1c-0.2,0.3-0.6,0.4-1,0.4c-0.4,0-0.7-0.1-1-0.4c-0.3-0.3-0.4-0.6-0.4-1v-1.6
		c-0.4,1-1.1,1.7-2,2.3c-0.9,0.5-1.9,0.8-3.1,0.8c-1.1,0-2.1-0.2-3-0.7c-0.9-0.4-1.6-1-2.1-1.8c-0.5-0.8-0.8-1.6-0.8-2.6
		c0-1.3,0.3-2.2,1-2.9c0.6-0.7,1.7-1.2,3.2-1.5c1.5-0.3,3.5-0.5,6.1-0.5h0.8v-1.1c0-1.4-0.3-2.4-0.8-3c-0.6-0.6-1.5-1-2.7-1
		c-1.6,0-3.1,0.4-4.7,1.3c-0.6,0.4-1.1,0.6-1.3,0.6c-0.3,0-0.5-0.1-0.7-0.3c-0.2-0.2-0.3-0.5-0.3-0.8c0-0.3,0.1-0.6,0.3-0.8
		c0.2-0.2,0.5-0.5,0.9-0.7c0.8-0.5,1.7-0.8,2.7-1.1c1-0.3,2-0.4,3-0.4C224.2,141.5,226.3,143.7,226.3,148.1z M222.2,155.3
		c0.9-0.9,1.3-2.1,1.3-3.6v-1h-0.6c-2,0-3.5,0.1-4.6,0.3c-1.1,0.2-1.8,0.5-2.2,0.9c-0.4,0.4-0.7,1-0.7,1.8c0,0.9,0.3,1.6,1,2.2
		c0.7,0.6,1.5,0.9,2.4,0.9C220.2,156.7,221.4,156.2,222.2,155.3z"/>
	<path d="M242.9,157.8c-1.2-0.7-2.1-1.7-2.8-3c-0.7-1.3-1-2.8-1-4.5s0.3-3.2,1-4.6c0.7-1.3,1.6-2.4,2.8-3.1c1.2-0.7,2.6-1.1,4.2-1.1
		c0.9,0,1.7,0.1,2.6,0.4c0.9,0.2,1.6,0.6,2.2,1c0.4,0.3,0.7,0.5,0.9,0.8c0.2,0.3,0.3,0.6,0.3,0.9s-0.1,0.6-0.3,0.8
		c-0.2,0.2-0.4,0.3-0.7,0.3c-0.2,0-0.3,0-0.5-0.1c-0.2-0.1-0.3-0.2-0.5-0.3c-0.1-0.1-0.2-0.1-0.3-0.2c-0.6-0.4-1.2-0.7-1.7-0.9
		c-0.5-0.2-1.2-0.3-2-0.3c-1.7,0-3,0.6-3.9,1.7c-0.9,1.1-1.4,2.7-1.4,4.7c0,2,0.5,3.6,1.4,4.7c0.9,1.1,2.2,1.6,3.9,1.6
		c0.8,0,1.4-0.1,2-0.3c0.6-0.2,1.1-0.5,1.7-0.9c0.3-0.2,0.5-0.3,0.7-0.4c0.2-0.1,0.4-0.2,0.6-0.2c0.3,0,0.5,0.1,0.6,0.3
		c0.2,0.2,0.3,0.5,0.3,0.8c0,0.3-0.1,0.6-0.2,0.8c-0.2,0.2-0.5,0.5-0.9,0.8c-0.6,0.4-1.4,0.8-2.3,1c-0.9,0.3-1.8,0.4-2.7,0.4
		C245.5,158.8,244.1,158.5,242.9,157.8z"/>
	<path d="M259.3,157.8c-1.2-0.7-2.1-1.7-2.8-3s-1-2.8-1-4.6c0-1.7,0.3-3.3,1-4.6c0.7-1.3,1.6-2.3,2.8-3c1.2-0.7,2.6-1.1,4.2-1.1
		c1.6,0,3,0.4,4.2,1.1c1.2,0.7,2.1,1.7,2.8,3c0.7,1.3,1,2.8,1,4.6c0,1.7-0.3,3.3-1,4.6s-1.6,2.3-2.8,3c-1.2,0.7-2.6,1.1-4.2,1.1
		C261.9,158.8,260.5,158.5,259.3,157.8z M267.3,154.9c0.9-1.1,1.3-2.7,1.3-4.7c0-2-0.4-3.6-1.3-4.7c-0.9-1.1-2.1-1.7-3.8-1.7
		c-1.6,0-2.9,0.6-3.8,1.7c-0.9,1.1-1.3,2.7-1.3,4.7c0,2.1,0.4,3.6,1.3,4.7c0.9,1.1,2.1,1.6,3.8,1.6
		C265.1,156.5,266.4,156,267.3,154.9z"/>
	<path d="M290,148.1v9.3c0,0.4-0.1,0.8-0.4,1c-0.2,0.2-0.6,0.4-1,0.4c-0.4,0-0.8-0.1-1-0.4s-0.4-0.6-0.4-1v-9.1
		c0-1.6-0.3-2.7-0.9-3.4c-0.6-0.7-1.6-1.1-2.9-1.1c-1.5,0-2.8,0.5-3.7,1.4c-0.9,0.9-1.4,2.2-1.4,3.8v8.4c0,0.4-0.1,0.8-0.4,1
		c-0.2,0.2-0.6,0.4-1,0.4c-0.4,0-0.8-0.1-1-0.4c-0.3-0.2-0.4-0.6-0.4-1V143c0-0.4,0.1-0.7,0.4-1c0.3-0.3,0.6-0.4,1-0.4
		c0.4,0,0.7,0.1,1,0.4c0.2,0.3,0.4,0.6,0.4,1v1.7c0.5-1,1.3-1.8,2.3-2.3c1-0.5,2.1-0.8,3.4-0.8C288,141.5,290,143.7,290,148.1z"/>
	<path d="M308.6,155c0.2,0.2,0.3,0.5,0.3,0.8c0,0.6-0.4,1.1-1.2,1.6c-0.8,0.5-1.7,0.8-2.6,1.1c-0.9,0.2-1.8,0.4-2.7,0.4
		c-2.6,0-4.6-0.8-6.1-2.3c-1.5-1.5-2.2-3.6-2.2-6.3c0-1.7,0.3-3.2,1-4.5c0.7-1.3,1.6-2.3,2.8-3.1c1.2-0.7,2.6-1.1,4.1-1.1
		c2.2,0,3.9,0.7,5.2,2.1c1.3,1.4,1.9,3.3,1.9,5.8c0,0.5-0.1,0.8-0.3,1c-0.2,0.2-0.5,0.3-0.9,0.3h-11c0.2,3.9,2.1,5.9,5.6,5.9
		c0.9,0,1.7-0.1,2.3-0.4c0.6-0.2,1.3-0.6,2.1-1c0.6-0.3,1-0.5,1.2-0.5C308.2,154.7,308.4,154.8,308.6,155z M298.4,145
		c-0.9,0.9-1.4,2.2-1.6,3.9h9.7c0-1.7-0.5-3-1.3-3.9c-0.8-0.9-1.9-1.4-3.4-1.4C300.5,143.7,299.3,144.1,298.4,145z"/>
	<path d="M315.8,157.8c-1.2-0.7-2.1-1.7-2.8-3c-0.7-1.3-1-2.8-1-4.5s0.3-3.2,1-4.6c0.7-1.3,1.6-2.4,2.8-3.1c1.2-0.7,2.6-1.1,4.2-1.1
		c0.9,0,1.7,0.1,2.6,0.4c0.9,0.2,1.6,0.6,2.2,1c0.4,0.3,0.7,0.5,0.9,0.8c0.2,0.3,0.3,0.6,0.3,0.9s-0.1,0.6-0.3,0.8
		c-0.2,0.2-0.4,0.3-0.7,0.3c-0.2,0-0.3,0-0.5-0.1c-0.2-0.1-0.3-0.2-0.5-0.3c-0.1-0.1-0.2-0.1-0.3-0.2c-0.6-0.4-1.2-0.7-1.7-0.9
		c-0.5-0.2-1.2-0.3-2-0.3c-1.7,0-3,0.6-3.9,1.7c-0.9,1.1-1.4,2.7-1.4,4.7c0,2,0.5,3.6,1.4,4.7c0.9,1.1,2.2,1.6,3.9,1.6
		c0.8,0,1.4-0.1,2-0.3c0.6-0.2,1.1-0.5,1.7-0.9c0.3-0.2,0.5-0.3,0.7-0.4c0.2-0.1,0.4-0.2,0.6-0.2c0.3,0,0.5,0.1,0.6,0.3
		c0.2,0.2,0.3,0.5,0.3,0.8c0,0.3-0.1,0.6-0.2,0.8c-0.2,0.2-0.5,0.5-0.9,0.8c-0.6,0.4-1.4,0.8-2.3,1c-0.9,0.3-1.8,0.4-2.7,0.4
		C318.4,158.8,317,158.5,315.8,157.8z"/>
	<path d="M338.4,157.7c0,0.4-0.1,0.7-0.4,0.9c-0.3,0.2-0.7,0.3-1.3,0.2l-0.9-0.1c-1.8-0.1-3.2-0.7-4-1.6c-0.9-1-1.3-2.4-1.3-4.3
		v-8.6h-2.3c-0.4,0-0.7-0.1-0.9-0.3c-0.2-0.2-0.3-0.5-0.3-0.8c0-0.3,0.1-0.6,0.3-0.8c0.2-0.2,0.5-0.3,0.9-0.3h2.3v-3.9
		c0-0.4,0.1-0.8,0.4-1s0.6-0.4,1-0.4c0.4,0,0.7,0.1,1,0.4s0.4,0.6,0.4,1v3.9h3.8c0.4,0,0.7,0.1,0.9,0.3c0.2,0.2,0.3,0.5,0.3,0.8
		c0,0.3-0.1,0.6-0.3,0.8c-0.2,0.2-0.5,0.3-0.9,0.3h-3.8v8.7c0,1.3,0.3,2.2,0.8,2.7c0.5,0.6,1.3,0.9,2.3,0.9l0.9,0.1
		C338,156.7,338.4,157,338.4,157.7z"/>
	<path d="M354.2,148.1v9.3c0,0.4-0.1,0.7-0.4,1c-0.2,0.3-0.6,0.4-1,0.4c-0.4,0-0.7-0.1-1-0.4c-0.3-0.3-0.4-0.6-0.4-1v-1.6
		c-0.4,1-1.1,1.7-2,2.3c-0.9,0.5-1.9,0.8-3.1,0.8c-1.1,0-2.1-0.2-3-0.7c-0.9-0.4-1.6-1-2.1-1.8c-0.5-0.8-0.8-1.6-0.8-2.6
		c0-1.3,0.3-2.2,1-2.9c0.6-0.7,1.7-1.2,3.2-1.5c1.5-0.3,3.5-0.5,6.1-0.5h0.8v-1.1c0-1.4-0.3-2.4-0.8-3c-0.6-0.6-1.5-1-2.7-1
		c-1.6,0-3.1,0.4-4.7,1.3c-0.6,0.4-1.1,0.6-1.3,0.6c-0.3,0-0.5-0.1-0.7-0.3c-0.2-0.2-0.3-0.5-0.3-0.8c0-0.3,0.1-0.6,0.3-0.8
		c0.2-0.2,0.5-0.5,0.9-0.7c0.8-0.5,1.7-0.8,2.7-1.1c1-0.3,2-0.4,3-0.4C352.1,141.5,354.2,143.7,354.2,148.1z M350.2,155.3
		c0.9-0.9,1.3-2.1,1.3-3.6v-1h-0.6c-2,0-3.5,0.1-4.6,0.3c-1.1,0.2-1.8,0.5-2.2,0.9c-0.4,0.4-0.7,1-0.7,1.8c0,0.9,0.3,1.6,1,2.2
		c0.7,0.6,1.5,0.9,2.4,0.9C348.2,156.7,349.3,156.2,350.2,155.3z"/>
	<path d="M369,142.7c0,0.4-0.1,0.7-0.3,0.9c-0.2,0.2-0.6,0.3-1.1,0.4l-1,0.1c-1.5,0.1-2.7,0.7-3.4,1.6c-0.7,0.9-1.1,2.1-1.1,3.3v8.3
		c0,0.5-0.1,0.8-0.4,1c-0.3,0.2-0.6,0.3-1,0.3c-0.4,0-0.7-0.1-1-0.4c-0.3-0.2-0.4-0.6-0.4-1V143c0-0.4,0.1-0.8,0.4-1
		c0.3-0.2,0.6-0.4,1-0.4c0.4,0,0.7,0.1,0.9,0.4c0.3,0.2,0.4,0.6,0.4,1v1.9c0.5-1,1.2-1.8,2-2.3c0.9-0.5,1.9-0.8,3-0.9l0.5,0
		C368.5,141.5,369,141.9,369,142.7z"/>
	<path d="M77,198.9c-1.2-0.7-2.1-1.7-2.8-3c-0.7-1.3-1-2.8-1-4.5c0-1.7,0.3-3.2,1-4.6c0.7-1.3,1.6-2.4,2.8-3.1
		c1.2-0.7,2.6-1.1,4.2-1.1c0.9,0,1.7,0.1,2.6,0.4c0.9,0.2,1.6,0.6,2.2,1c0.4,0.3,0.7,0.5,0.9,0.8c0.2,0.3,0.3,0.6,0.3,0.9
		c0,0.3-0.1,0.6-0.3,0.8c-0.2,0.2-0.4,0.3-0.7,0.3c-0.2,0-0.3,0-0.5-0.1c-0.2-0.1-0.3-0.2-0.5-0.3c-0.1-0.1-0.2-0.1-0.3-0.2
		c-0.6-0.4-1.2-0.7-1.7-0.9c-0.5-0.2-1.2-0.3-2-0.3c-1.7,0-3,0.6-3.9,1.7c-0.9,1.1-1.4,2.7-1.4,4.7c0,2,0.5,3.6,1.4,4.7
		c0.9,1.1,2.2,1.6,3.9,1.6c0.8,0,1.4-0.1,2-0.3c0.6-0.2,1.1-0.5,1.7-0.9c0.3-0.2,0.5-0.3,0.7-0.4c0.2-0.1,0.4-0.2,0.6-0.2
		c0.3,0,0.5,0.1,0.6,0.3c0.2,0.2,0.3,0.5,0.3,0.8c0,0.3-0.1,0.6-0.2,0.8c-0.2,0.2-0.5,0.5-0.9,0.8c-0.6,0.4-1.4,0.8-2.3,1
		c-0.9,0.3-1.8,0.4-2.7,0.4C79.6,199.9,78.2,199.6,77,198.9z"/>
	<path d="M93.4,198.9c-1.2-0.7-2.1-1.7-2.8-3s-1-2.8-1-4.6c0-1.7,0.3-3.3,1-4.6c0.7-1.3,1.6-2.3,2.8-3c1.2-0.7,2.6-1.1,4.2-1.1
		c1.6,0,3,0.4,4.2,1.1c1.2,0.7,2.1,1.7,2.8,3c0.7,1.3,1,2.8,1,4.6c0,1.7-0.3,3.3-1,4.6c-0.7,1.3-1.6,2.3-2.8,3
		c-1.2,0.7-2.6,1.1-4.2,1.1C96,199.9,94.6,199.6,93.4,198.9z M101.4,196c0.9-1.1,1.3-2.7,1.3-4.7c0-2-0.4-3.6-1.3-4.7
		c-0.9-1.1-2.1-1.7-3.8-1.7c-1.6,0-2.9,0.6-3.8,1.7c-0.9,1.1-1.3,2.7-1.3,4.7c0,2.1,0.4,3.6,1.3,4.7c0.9,1.1,2.1,1.6,3.8,1.6
		S100.5,197.1,101.4,196z"/>
	<path d="M124,189.2v9.3c0,0.4-0.1,0.8-0.4,1s-0.6,0.4-1,0.4c-0.4,0-0.8-0.1-1-0.4s-0.4-0.6-0.4-1v-9.1c0-1.6-0.3-2.7-0.9-3.4
		c-0.6-0.7-1.6-1.1-2.9-1.1c-1.5,0-2.8,0.5-3.7,1.4c-0.9,0.9-1.4,2.2-1.4,3.8v8.4c0,0.4-0.1,0.8-0.4,1c-0.2,0.2-0.6,0.4-1,0.4
		c-0.4,0-0.8-0.1-1-0.4c-0.3-0.2-0.4-0.6-0.4-1V184c0-0.4,0.1-0.7,0.4-1c0.3-0.3,0.6-0.4,1-0.4c0.4,0,0.7,0.1,1,0.4
		c0.2,0.3,0.4,0.6,0.4,1v1.7c0.5-1,1.3-1.8,2.3-2.3c1-0.5,2.1-0.8,3.4-0.8C122,182.6,124,184.8,124,189.2z"/>
	<path d="M152.3,189.2v9.3c0,0.4-0.1,0.8-0.4,1s-0.6,0.4-1,0.4c-0.4,0-0.8-0.1-1-0.4s-0.4-0.6-0.4-1v-9.1c0-1.6-0.3-2.7-0.9-3.4
		c-0.6-0.7-1.6-1.1-2.9-1.1c-1.5,0-2.8,0.5-3.7,1.4c-0.9,0.9-1.4,2.2-1.4,3.8v8.4c0,0.4-0.1,0.8-0.4,1c-0.2,0.2-0.6,0.4-1,0.4
		c-0.4,0-0.8-0.1-1-0.4c-0.3-0.2-0.4-0.6-0.4-1V184c0-0.4,0.1-0.7,0.4-1c0.3-0.3,0.6-0.4,1-0.4c0.4,0,0.7,0.1,1,0.4
		c0.2,0.3,0.4,0.6,0.4,1v1.7c0.5-1,1.3-1.8,2.3-2.3c1-0.5,2.1-0.8,3.4-0.8C150.3,182.6,152.3,184.8,152.3,189.2z"/>
	<path d="M171.1,183.1c0.2,0.3,0.4,0.6,0.4,1v14.5c0,0.4-0.1,0.7-0.4,1c-0.2,0.3-0.6,0.4-1,0.4c-0.4,0-0.7-0.1-1-0.4
		s-0.4-0.6-0.4-0.9v-1.7c-0.5,1-1.3,1.8-2.2,2.3c-0.9,0.5-2,0.8-3.2,0.8c-2,0-3.5-0.6-4.5-1.7c-1-1.1-1.5-2.7-1.5-4.9V184
		c0-0.4,0.1-0.7,0.4-1c0.3-0.3,0.6-0.4,1-0.4c0.4,0,0.8,0.1,1,0.4c0.2,0.3,0.4,0.6,0.4,1v9.2c0,1.5,0.3,2.6,0.9,3.3
		c0.6,0.7,1.5,1,2.8,1c1.5,0,2.6-0.5,3.5-1.4c0.9-0.9,1.3-2.2,1.3-3.7V184c0-0.4,0.1-0.7,0.4-1c0.3-0.3,0.6-0.4,1-0.4
		C170.5,182.7,170.8,182.8,171.1,183.1z"/>
	<path d="M190.2,196.1c0.2,0.2,0.3,0.5,0.3,0.8c0,0.6-0.4,1.1-1.2,1.6c-0.8,0.5-1.7,0.8-2.6,1.1c-0.9,0.2-1.8,0.4-2.7,0.4
		c-2.6,0-4.6-0.8-6.1-2.3c-1.5-1.5-2.2-3.6-2.2-6.3c0-1.7,0.3-3.2,1-4.5c0.7-1.3,1.6-2.3,2.8-3.1c1.2-0.7,2.6-1.1,4.1-1.1
		c2.2,0,3.9,0.7,5.2,2.1c1.3,1.4,1.9,3.3,1.9,5.8c0,0.5-0.1,0.8-0.3,1c-0.2,0.2-0.5,0.3-0.9,0.3h-11c0.2,3.9,2.1,5.9,5.6,5.9
		c0.9,0,1.7-0.1,2.3-0.4c0.6-0.2,1.3-0.6,2.1-1c0.6-0.3,1-0.5,1.2-0.5C189.8,195.8,190,195.9,190.2,196.1z M180,186.1
		c-0.9,0.9-1.4,2.2-1.6,3.9h9.7c0-1.7-0.5-3-1.3-3.9c-0.8-0.9-1.9-1.4-3.4-1.4C182.1,184.8,180.9,185.2,180,186.1z"/>
	<path d="M207.7,182.7c0.3,0,0.7,0.1,0.9,0.3c0.3,0.2,0.4,0.5,0.4,0.9c0,0.2,0,0.4-0.1,0.5l-6.7,14.4c-0.1,0.3-0.3,0.5-0.6,0.7
		c-0.3,0.2-0.6,0.3-0.9,0.3c-0.3,0-0.6-0.1-0.9-0.3c-0.3-0.2-0.5-0.4-0.7-0.7l-6.6-14.4c-0.1-0.2-0.1-0.3-0.1-0.5
		c0-0.3,0.2-0.6,0.5-0.9c0.3-0.3,0.6-0.4,1-0.4c0.2,0,0.5,0.1,0.7,0.2c0.2,0.1,0.4,0.3,0.5,0.6l5.7,12.8l5.7-12.8
		C206.7,183,207.1,182.7,207.7,182.7z"/>
	<path d="M214.6,198.9c-1.2-0.7-2.1-1.7-2.8-3s-1-2.8-1-4.6c0-1.7,0.3-3.3,1-4.6c0.7-1.3,1.6-2.3,2.8-3c1.2-0.7,2.6-1.1,4.2-1.1
		c1.6,0,3,0.4,4.2,1.1c1.2,0.7,2.1,1.7,2.8,3c0.7,1.3,1,2.8,1,4.6c0,1.7-0.3,3.3-1,4.6s-1.6,2.3-2.8,3c-1.2,0.7-2.6,1.1-4.2,1.1
		C217.2,199.9,215.8,199.6,214.6,198.9z M222.5,196c0.9-1.1,1.3-2.7,1.3-4.7c0-2-0.4-3.6-1.3-4.7c-0.9-1.1-2.1-1.7-3.8-1.7
		c-1.6,0-2.9,0.6-3.8,1.7c-0.9,1.1-1.3,2.7-1.3,4.7c0,2.1,0.4,3.6,1.3,4.7c0.9,1.1,2.1,1.6,3.8,1.6
		C220.4,197.6,221.7,197.1,222.5,196z"/>
	<path d="M233.5,199.6c-0.9-0.3-1.8-0.6-2.5-1.1c-0.4-0.3-0.7-0.5-0.9-0.8c-0.2-0.2-0.3-0.5-0.3-0.9c0-0.3,0.1-0.5,0.3-0.7
		c0.2-0.2,0.4-0.3,0.7-0.3c0.3,0,0.7,0.2,1.2,0.5c0.7,0.4,1.4,0.7,2,1c0.7,0.2,1.5,0.4,2.5,0.4c1.2,0,2.2-0.2,2.9-0.7
		c0.7-0.4,1-1.1,1-1.9c0-0.5-0.1-0.9-0.4-1.2c-0.3-0.3-0.7-0.6-1.3-0.8c-0.6-0.2-1.5-0.5-2.7-0.7c-2-0.4-3.4-1-4.3-1.7
		c-0.9-0.7-1.3-1.7-1.3-3c0-1,0.3-1.8,0.8-2.6c0.5-0.8,1.3-1.3,2.3-1.8c1-0.4,2.1-0.7,3.3-0.7c0.9,0,1.8,0.1,2.6,0.4
		c0.8,0.2,1.6,0.6,2.2,1c0.8,0.5,1.2,1.1,1.2,1.7c0,0.3-0.1,0.5-0.3,0.8c-0.2,0.2-0.4,0.3-0.7,0.3c-0.3,0-0.7-0.2-1.2-0.6
		c-0.6-0.4-1.2-0.7-1.8-1c-0.6-0.2-1.3-0.3-2.1-0.3c-1.1,0-1.9,0.2-2.6,0.7c-0.7,0.5-1,1.1-1,1.9c0,0.5,0.1,0.9,0.4,1.2
		s0.6,0.6,1.2,0.8c0.6,0.2,1.4,0.5,2.4,0.7c1.6,0.3,2.8,0.7,3.6,1.1c0.9,0.4,1.5,0.9,1.8,1.5c0.4,0.6,0.5,1.3,0.5,2.3
		c0,1.4-0.6,2.6-1.8,3.5c-1.2,0.9-2.8,1.3-4.8,1.3C235.4,199.9,234.4,199.8,233.5,199.6z"/>
	<path d="M258.9,198.9c-1.2-0.7-2.1-1.7-2.8-3s-1-2.8-1-4.5c0-1.7,0.3-3.2,1-4.6c0.7-1.3,1.6-2.4,2.8-3.1c1.2-0.7,2.6-1.1,4.2-1.1
		c0.9,0,1.7,0.1,2.6,0.4c0.9,0.2,1.6,0.6,2.2,1c0.4,0.3,0.7,0.5,0.9,0.8c0.2,0.3,0.3,0.6,0.3,0.9c0,0.3-0.1,0.6-0.3,0.8
		c-0.2,0.2-0.4,0.3-0.7,0.3c-0.2,0-0.3,0-0.5-0.1c-0.2-0.1-0.3-0.2-0.5-0.3c-0.1-0.1-0.2-0.1-0.3-0.2c-0.6-0.4-1.2-0.7-1.7-0.9
		c-0.5-0.2-1.2-0.3-2-0.3c-1.7,0-3,0.6-3.9,1.7c-0.9,1.1-1.4,2.7-1.4,4.7c0,2,0.5,3.6,1.4,4.7c0.9,1.1,2.2,1.6,3.9,1.6
		c0.8,0,1.4-0.1,2-0.3c0.6-0.2,1.1-0.5,1.7-0.9c0.3-0.2,0.5-0.3,0.7-0.4c0.2-0.1,0.4-0.2,0.6-0.2c0.3,0,0.5,0.1,0.6,0.3
		s0.3,0.5,0.3,0.8c0,0.3-0.1,0.6-0.2,0.8c-0.2,0.2-0.5,0.5-0.9,0.8c-0.6,0.4-1.4,0.8-2.3,1c-0.9,0.3-1.8,0.4-2.7,0.4
		C261.5,199.9,260.1,199.6,258.9,198.9z"/>
	<path d="M272.9,199.5c-0.3-0.2-0.4-0.6-0.4-1v-21.7c0-0.4,0.1-0.8,0.4-1c0.3-0.2,0.6-0.4,1-0.4c0.4,0,0.7,0.1,1,0.4
		c0.3,0.2,0.4,0.6,0.4,1v21.7c0,0.4-0.1,0.8-0.4,1c-0.3,0.2-0.6,0.4-1,0.4C273.5,199.9,273.2,199.7,272.9,199.5z"/>
	<path d="M280.5,178.6c-0.3-0.3-0.5-0.7-0.5-1.3c0-0.5,0.2-0.9,0.5-1.2c0.3-0.3,0.8-0.5,1.3-0.5c0.5,0,1,0.2,1.3,0.5
		c0.3,0.3,0.5,0.7,0.5,1.2c0,0.5-0.2,0.9-0.5,1.3c-0.3,0.3-0.8,0.5-1.3,0.5C281.3,179.1,280.9,178.9,280.5,178.6z M280.9,199.5
		c-0.3-0.2-0.4-0.6-0.4-1V184c0-0.4,0.1-0.8,0.4-1c0.3-0.2,0.6-0.4,1-0.4c0.4,0,0.7,0.1,1,0.4c0.3,0.2,0.4,0.6,0.4,1v14.5
		c0,0.5-0.1,0.8-0.4,1c-0.3,0.2-0.6,0.3-1,0.3C281.5,199.9,281.1,199.7,280.9,199.5z"/>
	<path d="M302,196.1c0.2,0.2,0.3,0.5,0.3,0.8c0,0.6-0.4,1.1-1.2,1.6c-0.8,0.5-1.7,0.8-2.6,1.1c-0.9,0.2-1.8,0.4-2.7,0.4
		c-2.6,0-4.6-0.8-6.1-2.3c-1.5-1.5-2.2-3.6-2.2-6.3c0-1.7,0.3-3.2,1-4.5c0.7-1.3,1.6-2.3,2.8-3.1c1.2-0.7,2.6-1.1,4.1-1.1
		c2.2,0,3.9,0.7,5.2,2.1c1.3,1.4,1.9,3.3,1.9,5.8c0,0.5-0.1,0.8-0.3,1c-0.2,0.2-0.5,0.3-0.9,0.3h-11c0.2,3.9,2.1,5.9,5.6,5.9
		c0.9,0,1.7-0.1,2.3-0.4c0.6-0.2,1.3-0.6,2.1-1c0.6-0.3,1-0.5,1.2-0.5C301.6,195.8,301.8,195.9,302,196.1z M291.8,186.1
		c-0.9,0.9-1.4,2.2-1.6,3.9h9.7c0-1.7-0.5-3-1.3-3.9c-0.8-0.9-1.9-1.4-3.4-1.4C293.9,184.8,292.7,185.2,291.8,186.1z"/>
	<path d="M320.8,189.2v9.3c0,0.4-0.1,0.8-0.4,1c-0.2,0.2-0.6,0.4-1,0.4c-0.4,0-0.8-0.1-1-0.4s-0.4-0.6-0.4-1v-9.1
		c0-1.6-0.3-2.7-0.9-3.4c-0.6-0.7-1.6-1.1-2.9-1.1c-1.5,0-2.8,0.5-3.7,1.4c-0.9,0.9-1.4,2.2-1.4,3.8v8.4c0,0.4-0.1,0.8-0.4,1
		c-0.2,0.2-0.6,0.4-1,0.4c-0.4,0-0.8-0.1-1-0.4c-0.3-0.2-0.4-0.6-0.4-1V184c0-0.4,0.1-0.7,0.4-1c0.3-0.3,0.6-0.4,1-0.4
		c0.4,0,0.7,0.1,1,0.4c0.2,0.3,0.4,0.6,0.4,1v1.7c0.5-1,1.3-1.8,2.3-2.3c1-0.5,2.1-0.8,3.4-0.8C318.8,182.6,320.8,184.8,320.8,189.2
		z"/>
	<path d="M334.8,198.8c0,0.4-0.1,0.7-0.4,0.9c-0.3,0.2-0.7,0.3-1.3,0.2l-0.9-0.1c-1.8-0.1-3.2-0.7-4-1.6c-0.9-1-1.3-2.4-1.3-4.3
		v-8.6h-2.3c-0.4,0-0.7-0.1-0.9-0.3c-0.2-0.2-0.3-0.5-0.3-0.8c0-0.3,0.1-0.6,0.3-0.8c0.2-0.2,0.5-0.3,0.9-0.3h2.3v-3.9
		c0-0.4,0.1-0.8,0.4-1s0.6-0.4,1-0.4c0.4,0,0.7,0.1,1,0.4s0.4,0.6,0.4,1v3.9h3.8c0.4,0,0.7,0.1,0.9,0.3c0.2,0.2,0.3,0.5,0.3,0.8
		c0,0.3-0.1,0.6-0.3,0.8c-0.2,0.2-0.5,0.3-0.9,0.3h-3.8v8.7c0,1.3,0.3,2.2,0.8,2.7c0.5,0.6,1.3,0.9,2.3,0.9l0.9,0.1
		C334.4,197.7,334.8,198.1,334.8,198.8z"/>
	<path d="M351.1,196.1c0.2,0.2,0.3,0.5,0.3,0.8c0,0.6-0.4,1.1-1.2,1.6c-0.8,0.5-1.7,0.8-2.6,1.1c-0.9,0.2-1.8,0.4-2.7,0.4
		c-2.6,0-4.6-0.8-6.1-2.3c-1.5-1.5-2.2-3.6-2.2-6.3c0-1.7,0.3-3.2,1-4.5c0.7-1.3,1.6-2.3,2.8-3.1c1.2-0.7,2.6-1.1,4.1-1.1
		c2.2,0,3.9,0.7,5.2,2.1c1.3,1.4,1.9,3.3,1.9,5.8c0,0.5-0.1,0.8-0.3,1c-0.2,0.2-0.5,0.3-0.9,0.3h-11c0.2,3.9,2.1,5.9,5.6,5.9
		c0.9,0,1.7-0.1,2.3-0.4c0.6-0.2,1.3-0.6,2.1-1c0.6-0.3,1-0.5,1.2-0.5C350.7,195.8,350.9,195.9,351.1,196.1z M341,186.1
		c-0.9,0.9-1.4,2.2-1.6,3.9h9.7c0-1.7-0.5-3-1.3-3.9c-0.8-0.9-1.9-1.4-3.4-1.4C343,184.8,341.8,185.2,341,186.1z"/>
	<path d="M358.2,199.6c-0.9-0.3-1.8-0.6-2.5-1.1c-0.4-0.3-0.7-0.5-0.9-0.8c-0.2-0.2-0.3-0.5-0.3-0.9c0-0.3,0.1-0.5,0.3-0.7
		c0.2-0.2,0.4-0.3,0.7-0.3c0.3,0,0.7,0.2,1.2,0.5c0.7,0.4,1.4,0.7,2,1c0.7,0.2,1.5,0.4,2.5,0.4c1.2,0,2.2-0.2,2.9-0.7
		c0.7-0.4,1-1.1,1-1.9c0-0.5-0.1-0.9-0.4-1.2c-0.3-0.3-0.7-0.6-1.3-0.8s-1.5-0.5-2.7-0.7c-2-0.4-3.4-1-4.3-1.7
		c-0.9-0.7-1.3-1.7-1.3-3c0-1,0.3-1.8,0.8-2.6c0.5-0.8,1.3-1.3,2.3-1.8c1-0.4,2.1-0.7,3.3-0.7c0.9,0,1.8,0.1,2.6,0.4
		c0.8,0.2,1.6,0.6,2.2,1c0.8,0.5,1.2,1.1,1.2,1.7c0,0.3-0.1,0.5-0.3,0.8c-0.2,0.2-0.4,0.3-0.7,0.3c-0.3,0-0.7-0.2-1.2-0.6
		c-0.6-0.4-1.2-0.7-1.8-1c-0.6-0.2-1.3-0.3-2.1-0.3c-1.1,0-1.9,0.2-2.6,0.7s-1,1.1-1,1.9c0,0.5,0.1,0.9,0.4,1.2
		c0.2,0.3,0.6,0.6,1.2,0.8c0.6,0.2,1.4,0.5,2.4,0.7c1.6,0.3,2.8,0.7,3.6,1.1c0.9,0.4,1.5,0.9,1.8,1.5c0.4,0.6,0.5,1.3,0.5,2.3
		c0,1.4-0.6,2.6-1.8,3.5c-1.2,0.9-2.8,1.3-4.8,1.3C360.2,199.9,359.2,199.8,358.2,199.6z"/>
</g>
<g>
	<g>
		<path d="M111,244.9c4.8-4.7,11.9-3.8,18-4.1c43.1,0.1,86.2,0,129.2,0.1c6.2-0.2,13.2,2.2,15.7,8.4c1.9,5.9,1.4,12.4,1.6,18.5
			c-0.3,32.5,0.1,65-0.1,97.5c-0.4,4,0.6,10.1-5.1,10.2c-4.4-1.6-3.8-6.5-4-10.3c0-24.8,0.1-49.7,0-74.5
			c-50.2-0.2-100.5,0-150.7-0.1c0,40.3,0,80.6,0,120.9c0.2,4,0.1,10.7,5.9,9.7c26.8,1.2,53.6-0.6,80.3,0.7c4.1,0.3,5.6,2.6,4.6,7
			c-6.8,2.8-14.3,1.6-21.4,1.9c-21.8-0.4-43.6,0.5-65.4-0.4c-8.4-0.3-14-8.7-13.2-16.6c-0.2-50.3,0-100.7-0.1-151.1
			C106.5,256.7,106,249.4,111,244.9z M116.9,251.2c-2.7,9.8-1,20.1-1.3,30.1c50.2,0,100.4,0,150.6,0c-0.3-10,1.3-20.3-1.4-30.1
			c-3.8-1-7.8-1.2-11.7-1.3c-38.1,0.1-76.2,0.1-114.3,0C131.5,250,124,249.4,116.9,251.2z"/>
	</g>
	<g>
		<path d="M185.9,256.6c6.7-5.6,18.2,0,18.2,8.7c0.9,8.2-8.5,14.7-15.9,11.3C180.1,273.6,178.6,261.3,185.9,256.6z M190.7,263.9
			c-1.3,3.9,0,5.3,4,4.1C196,264.1,194.7,262.7,190.7,263.9z"/>
	</g>
	<g>
		<path d="M214.7,255.9c7.7-4.9,18.7,2.7,17.1,11.6c-1,8.1-11.3,12.8-17.9,8C206.9,271.3,207.4,259.6,214.7,255.9z M219.4,263.3
			c-3.5,1-1.6,6.7,1.8,5.4C224.7,267.7,222.8,262,219.4,263.3z"/>
	</g>
	<g>
		<path d="M241.8,256.2c6.9-4.9,17.5,0.7,17.7,9.1c0.9,8.7-9.7,15.3-17.1,10.7C234.9,272.3,234.5,260.3,241.8,256.2z M245.9,264
			c-1.2,3.9,0.2,5.3,4.1,4C251.2,264,249.8,262.7,245.9,264z"/>
	</g>
	<path d="M288.4,269.3c13.3-1,26.6-0.5,39.9-0.3c7.3,0.1,14.5,3.9,18,10.5c3.1,6.1,2.6,13.2,2.8,19.8c-0.2,49.6,0,99.1-0.1,148.7
		c0.3,8.4-3,17.7-11.1,21.5c-5.8,2.3-14.8,5.4-18.4-1.9c3.3-6.9,13.1-3.5,17.7-8.8c3-3.7,2.5-8.8,2.8-13.2
		c-0.2-51.3,0-102.6-0.1-153.9c0.3-5.4-2.1-11.7-7.9-12.9c-15.2-2.6-30.9,1.2-46.1-2C283.2,273.7,284.4,270,288.4,269.3z"/>
	<g>
		<path d="M80.9,270.6c5.6-2,15.7-3.9,16.9,4.3c-5.7,2.9-12.5,3.4-17.8,7.1c-3.3,4.2-2.6,9.9-2.9,14.8c0.1,49.6,0.1,99.2,0,148.8
			c0.3,5.2-0.1,11.9,4.9,15.1c4.7,2.4,10.2,1.9,15.3,2.2c58.4-0.2,116.9,0.1,175.3-0.2c4.7,0.1,9.4,0.1,13.9,1.1
			c1.9,2.3,1.8,7.6-2,7.6c-19,1.6-38.2,0.2-57.3,0.6c0,7.4,0.1,14.8,0.1,22.3c13.8,3.1,27.9,5,41.5,8.9c8.1,1.5,7.2,12.5,4,18.1
			c-6.1,2.9-13.1,1.9-19.7,2.2c-34.1-0.5-68.2,0.4-102.3-0.4c-9.8,0.9-10.7-11.9-6.6-18.1c6.7-3.8,14.7-5.1,22.3-4.5
			c0.3,2.2,0.4,4.3,0.1,6.5c-5.6,2.7-11.6,4.4-17.4,6.6c21.6,1.1,43.3,0.3,65,0.5c18-0.2,36,0.7,54-0.8c-11.2-4-22.9-6.3-34.6-8.4
			c-18.6-3.1-37.4-0.4-56.1-0.6c-4.2-8.3,7.4-8.1,12.4-10.9c0-7.1,0-14.3-0.1-21.4c-30.8,0-61.7-0.1-92.5,0.1
			c-6.8-0.2-14.3,0.2-20.2-3.9c-5.1-3.3-7.3-9.3-9-14.8v-165C69.4,281.1,73.3,273.3,80.9,270.6z M199,472c0,7.5,0,15,0,22.4
			c6.4,0,12.7,0,19.1,0c0-7.5,0-15,0-22.4C211.7,472,205.4,472,199,472z"/>
	</g>
	<path d="M285.7,287.8c8.4-2.1,17.2-1.1,25.8-1.3c5.6,0.3,12.5-0.7,16.7,3.9c3.6,3.7,3,9.3,3.3,14c0,44.6-0.1,89.3,0,133.9
		c0.2,5.7-1.3,12.5-7.2,14.9c-6.6,2-13.9,1.9-20.5,0c-1.2-2.4-1.9-5.3,0.8-7.1c5.7-1,11.5-1,17.3-1.3c0.5-49.6,0.3-99.3,0.1-148.9
		c-11.2-0.5-22.5,0.5-33.6-0.7C284.8,294.7,283.6,290.6,285.7,287.8z"/>
	<path d="M85.6,313.9c0.1-9-1.7-19.6,6-26.3c1.3,1,3.8,3,5.1,4.1c-1.3,5.7-2,11.5-2,17.4c0.1,41.4,0.1,82.9,0,124.3
		c0,3.8,0.1,7.5,0.7,11.2c43.6,1.4,87.2,0.2,130.8,0.6c14.8,0.3,29.7-1,44.4,1.4c-1.3,3.8-2.5,8.6-7.6,7.6
		c-52.9,0.4-105.7-0.1-158.6,0.2c-5.1-0.3-11.2,0.6-15-3.5c-4.3-3.8-3.7-10-3.9-15.2C85.7,395.2,85.7,354.6,85.6,313.9z"/>
	<path d="M140.8,339.6c7.9,0.4,8.4,8.9,10.8,14.6c1.9-4.9,3.8-9.7,6.2-14.4c1.9,4.7,3.7,9.5,5.4,14.3c3.1-4.6,2.4-15.8,10.5-13.4
		c-1.6,8.1-4.6,15.9-8.5,23.2c-5.5-0.6-5.5-7.2-7.7-11.1c-2.1,3.6-2.1,9.7-6.7,11.2C145.1,357.2,143.2,348,140.8,339.6z"/>
	<path d="M175.2,342.6c1-0.9,3-2.7,4-3.6c2,5.1,4,10.2,5.8,15.3c1.7-4.8,3.5-9.6,5.4-14.4c2.4,4.6,4.5,9.5,6.5,14.3
		c1.5-4.4,3-8.8,4.5-13.2c3.9-0.1,7.9-0.2,11.8-0.3c1.8,4.5,3.4,9.1,5,13.6c1.8-4.9,3.7-9.8,5.7-14.6c2.2,4.8,4.2,9.6,6,14.5
		c3-4.2,2.6-17.8,10.3-12.9c-1.7,8.6-5.6,16.5-9.6,24.2c-2.5-4.1-4.7-8.5-6.8-12.8c-1.7,4.3-3.5,8.5-5.5,12.7
		c-5.1-7.1-8.1-15.4-11.1-23.6c-2.6,7.1-4.9,14.4-8.6,21.1c-6.2,1.9-5.4-6.9-7.8-10.3c-1.8,4.1-3.6,8.3-6.3,12
		C179.6,358.6,176.7,350.6,175.2,342.6z"/>
	<g>
		<path d="M198.8,382c0.8-0.8,2.4-2.5,3.2-3.3c32.5,1.7,64.9,5.8,97.4,8.2c5.2,0.9,16.1-0.4,13.1,7.9c-7.7,5.2-16.6,8.2-25,12.1
			c-6.4,12.5-11.7,25.6-19.2,37.5c-7.4-4.7-14.6-9.8-21.7-14.9c-7.7,4-15.5,8-23.4,11.7C213.8,422.1,205.9,402.1,198.8,382z
			 M260.8,392.8c10,2.2,20.5,8,30.6,3.1C281.2,394.2,271,393.6,260.8,392.8z M212.5,392.8c4.8,12.1,9.7,24.2,14.6,36.3
			c9.3-4.8,18.5-9.6,27.9-14.4C240.8,407.4,226.7,400,212.5,392.8z M244.7,398.8c7.1,4.2,14.8,7.4,21.8,11.8
			c3.8,1.8,2.9,6.9,4.5,10.2c2-4.8,4.2-9.5,6.4-14.1C266.5,403.9,255.7,400.8,244.7,398.8z M258.4,428c3.8,1.9,5.9-4.5,2.2-5.8
			C256.7,420.4,254.4,426.8,258.4,428z"/>
	</g>
	<path d="M353.5,406.5c6.1,1.2,12.7,5.7,13.4,12.3c-4.7,5.8-11-0.7-14.5-4.4C348.6,411.9,351.6,409,353.5,406.5z"/>
	<path d="M373.8,446.7c-2.4-6.3-9.8-16.2-0.9-20.5c3.7,3.6,5.6,8.4,7,13.3v2.5C378.4,443.2,375.3,445.5,373.8,446.7z"/>
	<path d="M280.8,439.3c5.4-0.6,8.2,5.6,10.7,9.4c3.1,3.9-4,9-7,4.8C280.5,450.7,274.1,441.3,280.8,439.3z"/>
	<path d="M371.1,456.4l1.2-1.7c12.7-3.6,4.3,23.6-5.4,15.4C367,465.2,368.4,460.4,371.1,456.4z"/>
	<path d="M297.5,460.6c5.7-3.4,15.8,4.8,14.4,11.6c-6,4.8-12.1-3.1-15.7-7.4C296.5,463.7,297.1,461.6,297.5,460.6z"/>
	<path d="M321.8,474.6c5.7,1,15.1,2.4,14.7,9.9c-4.5,4.6-11,0.5-15.5-1.8C317.4,481.2,319,476.1,321.8,474.6z"/>
	<path d="M356.5,476c5.3-2.5,9.7,6.4,3.5,8c-4.6,3-14.8,6.8-14.6-2.2C348.2,478.7,352.3,477,356.5,476z"/>
</g>
<path d="M771.5,549.8c-97.7-23.3-198.9-41-299.4-27.5c-27.7,3.7-55.1,9.8-81.6,18.5c-5.3,1.8-2.5,10,2.8,8.2
	c95.2-31.4,197.4-26.2,294.8-8.3c27.4,5,54.6,11.1,81.6,17.5C775.1,559.6,776.9,551,771.5,549.8z"/>
</svg>
