<?xml version="1.0" encoding="utf-8"?>
<!-- Generator: Adobe Illustrator 25.3.0, SVG Export Plug-In . SVG Version: 6.00 Build 0)  -->
<svg version="1.1" id="Capa_1" xmlns="http://www.w3.org/2000/svg" xmlns:xlink="http://www.w3.org/1999/xlink" x="0px" y="0px"
	 width="635px" height="385.6px" viewBox="0 0 635 385.6" style="enable-background:new 0 0 635 385.6;" xml:space="preserve">
<style type="text/css">
	.st0{enable-background:new    ;}
	.st1{fill:#FFFFFF;}
</style>
<g class="st0">
	<path d="M557.4,344.1h-33.2v-11.6c0-2.9,0.3-5.1,0.8-6.5c0.7-1.9,1.9-3.4,3.6-4.5s3.7-1.6,6.1-1.6c1.9,0,3.6,0.4,5.3,1.3
		c1.7,0.9,2.9,2.1,3.7,3.7h0.1c0.4-0.3,1.1-0.7,2-1.3l11.6-6.5v9.1l-11.2,5.9v3.8h11.2V344.1z M539.3,335.9v-3.5
		c0-1.3-0.4-2.4-1.1-3.1c-0.7-0.7-1.7-1.1-3-1.1c-1.8,0-3,0.7-3.5,2c-0.3,0.7-0.5,1.7-0.5,3.1v2.7H539.3z"/>
	<path d="M540.6,315.7c-4.8,0-8.9-1.6-12.1-4.9c-3.2-3.3-4.9-7.4-4.9-12.5c0-5.1,1.6-9.2,4.9-12.5c3.2-3.3,7.3-4.9,12.1-4.9
		c5,0,9.1,1.6,12.4,4.9c3.3,3.3,5,7.4,5,12.5c0,5.1-1.7,9.2-5,12.5C549.7,314.1,545.6,315.7,540.6,315.7z M540.6,307.3
		c2.8,0,5.2-0.8,7.1-2.5c1.9-1.7,2.8-3.8,2.8-6.4s-0.9-4.7-2.8-6.4c-1.9-1.7-4.3-2.5-7.1-2.5c-2.7,0-5,0.8-6.8,2.5
		c-1.8,1.7-2.7,3.8-2.7,6.4s0.9,4.7,2.7,6.4C535.6,306.4,537.9,307.3,540.6,307.3z"/>
	<path d="M557.4,269.4h-26.2v10.1h-7v-28.3h7v10.1h26.2V269.4z"/>
	<path d="M545.2,247.5h-21v-8.1h21c1.7,0,3-0.5,3.9-1.6c0.9-1,1.4-2.4,1.4-4.2c0-1.8-0.5-3.2-1.4-4.2c-0.9-1-2.2-1.6-3.9-1.6h-21
		v-8.1h21c3.8,0,6.9,1.3,9.2,3.8c2.4,2.5,3.6,5.9,3.6,10c0,4.2-1.2,7.5-3.6,10.1S549,247.5,545.2,247.5z"/>
	<path d="M557.4,213.1h-33.2V205h26.2v-13.6h7V213.1z"/>
	<path d="M557.4,191.1l-33.2-11.3v-8.5l33.2-11.3v8.4l-7,2v10.4l7,2V191.1z M544,178.8v-6.6l-6.5,1.9l-5.7,1.3v0.1
		c2.4,0.5,4.3,0.9,5.7,1.3L544,178.8z"/>
	<path d="M540.8,159.1c-4.9,0-9-1.6-12.2-4.9c-3.3-3.3-4.9-7.4-4.9-12.5c0-2.3,0.4-4.6,1.2-6.8c0.8-2.2,2-4.1,3.5-5.7l6.1,3.8
		c-1,1.1-1.8,2.4-2.4,3.9c-0.6,1.5-1,3-1,4.4c0,3.1,0.9,5.4,2.8,7c1.8,1.6,4.1,2.4,6.7,2.4c2.7,0,5-0.8,7-2.4c2-1.6,3-3.9,3-6.9
		c0-3.2-1.4-6.1-4.1-8.8l5.9-4.2c3.7,3.6,5.6,8.1,5.6,13.4c0,5.3-1.6,9.5-4.9,12.7C549.9,157.5,545.8,159.1,540.8,159.1z"/>
	<path d="M557.4,124.2h-33.2v-8.1h33.2V124.2z"/>
	<path d="M522.1,96.9l-7-3.8v-7.9l7,5.5V96.9z M540.6,110.9c-4.8,0-8.9-1.6-12.1-4.9c-3.2-3.3-4.9-7.4-4.9-12.5
		c0-5.1,1.6-9.2,4.9-12.5c3.2-3.3,7.3-4.9,12.1-4.9c5,0,9.1,1.6,12.4,4.9c3.3,3.3,5,7.4,5,12.5c0,5.1-1.7,9.2-5,12.5
		C549.7,109.3,545.6,110.9,540.6,110.9z M540.6,102.5c2.8,0,5.2-0.8,7.1-2.5c1.9-1.7,2.8-3.8,2.8-6.4s-0.9-4.7-2.8-6.4
		c-1.9-1.7-4.3-2.5-7.1-2.5c-2.7,0-5,0.8-6.8,2.5c-1.8,1.7-2.7,3.8-2.7,6.4s0.9,4.7,2.7,6.4C535.6,101.7,537.9,102.5,540.6,102.5z"
		/>
	<path d="M557.4,71h-33.2v-8.2l15.5-9.2c0.7-0.4,1.4-0.8,2.4-1.3s1.7-0.8,2.3-1.1l0.9-0.4v-0.1c-2.4,0.2-4.3,0.4-5.7,0.4h-15.5V43
		h33.2v8.2L542,60.4c-0.7,0.4-1.4,0.8-2.4,1.3c-0.9,0.5-1.7,0.8-2.3,1.1l-0.9,0.4v0.1c2.4-0.2,4.3-0.4,5.7-0.4h15.5V71z"/>
</g>
<g class="st0">
	<path d="M593.1,300.4h-24.9v-8.5c0-3.9,1.1-7,3.3-9.3c2.2-2.3,5.2-3.4,9.1-3.4s6.9,1.1,9.2,3.4s3.3,5.4,3.3,9.3V300.4z
		 M589.2,295.8v-3.7c0-2.6-0.7-4.6-2.2-6.1c-1.5-1.5-3.6-2.2-6.4-2.2c-2.7,0-4.8,0.7-6.3,2.2c-1.5,1.5-2.2,3.5-2.2,6.1v3.7H589.2z"
		/>
	<path d="M593.1,274.5h-24.9v-14.9h3.9v10.4h6.5v-8.4h3.9v8.4h6.7v-11h3.9V274.5z"/>
	<path d="M593.1,240.7l-24.9,9v-4.9l16.3-5.5l3.7-0.9v-0.1c-1.5-0.3-2.7-0.6-3.7-0.9l-16.3-5.6V227l24.9,9V240.7z"/>
	<path d="M593.1,223.8h-24.9v-14.9h3.9v10.4h6.5v-8.4h3.9v8.4h6.7v-11h3.9V223.8z"/>
	<path d="M593.1,203.8h-24.9v-4.5h10.6v-11.4h-10.6v-4.5h24.9v4.5h-10.5v11.4h10.5V203.8z"/>
	<path d="M566.5,177l-4.8-2.7v-4.6l4.8,3.7V177z M593.1,177.3h-24.9v-4.5h24.9V177.3z"/>
	<path d="M580.5,168.2c-3.7,0-6.7-1.2-9.1-3.6c-2.4-2.4-3.7-5.5-3.7-9.2c0-3.8,1.1-6.9,3.4-9.2l3.4,2.2c-0.8,0.9-1.4,2-1.9,3.2
		c-0.5,1.2-0.7,2.4-0.7,3.6c0,2.6,0.8,4.7,2.5,6.1c1.6,1.5,3.7,2.2,6.1,2.2c2.5,0,4.6-0.7,6.3-2.2c1.7-1.5,2.6-3.5,2.6-6.1
		c0-2.7-1.1-5.1-3.2-7.2l3.3-2.4c2.7,2.6,4,5.9,4,9.8c0,3.9-1.2,7-3.7,9.3C587.3,167,584.2,168.2,580.5,168.2z"/>
	<path d="M584.1,141.9h-16v-4.5h16c1.7,0,3-0.5,3.9-1.5c0.9-1,1.4-2.3,1.4-4c0-1.7-0.5-3-1.4-4c-0.9-1-2.2-1.5-3.9-1.5h-16v-4.5h16
		c2.8,0,5,0.9,6.8,2.8c1.7,1.8,2.6,4.3,2.6,7.3c0,3-0.9,5.5-2.6,7.3C589.2,141,586.9,141.9,584.1,141.9z"/>
	<path d="M593.1,116h-24.9v-4.5h21v-10.8h3.9V116z"/>
	<path d="M580.4,99.6c-3.6,0-6.6-1.2-9.1-3.6c-2.4-2.4-3.7-5.5-3.7-9.3c0-3.7,1.2-6.8,3.7-9.3c2.4-2.4,5.5-3.6,9.1-3.6
		c3.7,0,6.8,1.2,9.3,3.6s3.8,5.5,3.8,9.3c0,3.7-1.3,6.8-3.8,9.3S584.1,99.6,580.4,99.6z M580.4,94.9c2.6,0,4.7-0.8,6.4-2.3
		c1.7-1.6,2.5-3.5,2.5-5.9c0-2.4-0.8-4.3-2.5-5.9c-1.7-1.6-3.8-2.3-6.4-2.3c-2.4,0-4.5,0.8-6.1,2.3s-2.5,3.5-2.5,5.9
		c0,2.4,0.8,4.3,2.5,5.9C575.9,94.1,578,94.9,580.4,94.9z"/>
	<path d="M590.1,71.2l-3.4-2.5c0.7-0.8,1.3-1.8,1.9-2.9c0.5-1.1,0.8-2.2,0.8-3.3c0-1.1-0.3-2-0.8-2.7c-0.5-0.7-1.2-1-2.1-1
		c-0.9,0-1.6,0.4-2.2,1.2c-0.6,0.8-1.2,1.8-1.7,2.9c-0.5,1.1-1,2.3-1.5,3.4c-0.6,1.1-1.4,2.1-2.4,2.9c-1,0.8-2.3,1.2-3.7,1.2
		c-2.2,0-3.9-0.8-5.2-2.4c-1.3-1.6-2-3.6-2-6.1c0-2.9,0.9-5.4,2.7-7.3l3.7,2c-0.6,0.7-1.2,1.6-1.6,2.5c-0.4,1-0.6,2-0.6,2.9
		c0,1.1,0.3,2.1,0.8,2.8c0.5,0.7,1.2,1,2.1,1c0.8,0,1.6-0.4,2.2-1.2c0.6-0.8,1.1-1.8,1.6-2.9c0.4-1.1,0.9-2.3,1.5-3.4
		c0.6-1.1,1.3-2.1,2.4-2.9c1-0.8,2.3-1.2,3.8-1.2c2.1,0,3.9,0.7,5.3,2.2c1.4,1.5,2.1,3.5,2.1,6.1c0,1.6-0.3,3.1-0.9,4.6
		C592,68.8,591.2,70.1,590.1,71.2z"/>
</g>
<g>
	<path d="M270.5,91.5c6.9-11,24.7-10.9,31.7,0C291.7,92.1,281.1,92.1,270.5,91.5z"/>
	<path d="M339.8,91.6c7-11,24.6-10.9,31.7-0.1C360.9,92.1,350.3,92.1,339.8,91.6z"/>
	<g>
		<path d="M79.6,104.4c7.8-12.3,23.1-9.5,35.5-9.6c116,0,232,0.1,347.9,0c9.2,0.2,20-1.8,26.8,5.9c2.5,28.6-0.7,57.2,1,85.9
			c0.9,11.6-0.9,23.1-0.4,34.7c-28.9,0.1-57.8,0-86.6,0c-0.1-28.5,0.1-57.1-0.1-85.6c-52.8,0.1-105.6,0-158.3,0
			c0,28.5,0,57.1,0,85.6c-16.8,0-33.7,0-50.6,0c-0.1-30.9,0.2-61.9-0.1-92.9c-28.1-0.4-56.3-0.3-84.4,0c-0.2,48.2-0.3,96.5,0,144.7
			c-9-10-23-16.5-36.4-12c-12.4,3.1-19.3,14.6-24.7,25.2c-12.3-1.3-24.3,0.9-36.2,3.8c-0.1-7.3,0-14.7,0-22c2-0.1,6.1-0.3,8.1-0.4
			c1.1-1.1,3.4-3.3,4.5-4.4c-0.3-11-1.5-22.3,0.5-33.2c-1.2-0.3-3.6-0.8-4.8-1.1c2-4.6,1.9-10.9,6.6-13.9
			c8.9-5.7,18.8-9.6,28.3-14.4c0.2-1.8,0.6-5.3,0.7-7.1c1.2,1.4,3.7,4.1,4.9,5.4c6.7-27.1,13.9-54.1,20.6-81.2
			c2-5.7,2.3-14.5,12.3-11.8C90.9,105.7,83.4,104.8,79.6,104.4z M226.3,115.4c5.9,5.9,15.2,10.6,23.9,11.6
			c48.8,0.2,97.7-0.1,146.5,0.1c10.5,0.4,19-6.8,28.1-11.1C358.6,115.6,292.4,116.7,226.3,115.4z M91,121
			c-6.4,8.1-6.1,19.7-9.3,29.4c-2.3,12.9-8.3,25.5-7.7,38.7c8.6,2.5,18,1.8,26.8,0.8c3.9-2.2,1.9-7.9,2.7-11.6
			c-0.3-16.7,0.3-33.4-0.2-50C104.1,121.9,96.2,117.2,91,121z M440.5,155.3c-2.7,0.6-8.2,1.8-10.9,2.4c7.5,1.2,15.1,1.2,22.7,0.8
			c-2.5-0.9-7.5-2.6-10-3.5c1.2-3,2.3-5.9,3.4-8.9C443.9,149.2,442.2,152.2,440.5,155.3z M431.2,161c1.1,10,2.1,20,3,30
			c4.8,0.2,9.6,0.3,14.5,0.3c0.4-10.1,1-20.2,1.9-30.4C444.1,161.1,437.6,161.1,431.2,161z M452.3,171.1c-2.3,5.3,9.5,7.7,10.7,2.8
			C461.4,170.2,455.6,168.8,452.3,171.1z M452.4,180.6c2.7,1.7,9.6,3,10.7-0.7C460.3,178.2,453.4,177,452.4,180.6z M451.7,190.8
			c4.6-1.8,9.3-3.4,13.9-5.1c-3.5-0.9-10.6-2.7-14.1-3.6C451.7,184.9,451.7,187.9,451.7,190.8z M35.2,264.8c8-5,5.7-15.2,2.2-22.3
			C31.9,248.9,32.8,257.3,35.2,264.8z"/>
	</g>
	<g>
		<path d="M114.8,133c25.1,0,50.1,0,75.2,0c0,55.3,0,110.6,0,165.9c-21.2,0-42.3,0-63.4,0c-4.6-7.5-12.3-14.4-11.8-23.9
			C114.8,227.7,114.8,180.3,114.8,133z M123,141.3c-0.1,13.8-0.1,27.6-0.1,41.4c19.7-0.1,39.5,0.3,59.3-0.3
			c-0.4-13.7-0.2-27.5-0.4-41.2C162.2,141.1,142.6,141,123,141.3z M123.2,192.9c-0.2,5.9-0.2,11.9,0.1,17.8
			C129.6,207.4,130,196,123.2,192.9z"/>
	</g>
	<path d="M289.8,148.7c7.5-2.5,15.7,5.3,13.4,12.9c-1.5,7.4-11.4,10.9-17.1,5.9C279,162.6,281.6,150.6,289.8,148.7z"/>
	<path d="M375.6,157.1c8.7-3.8,18.3,7,13.3,15.1c-3.2,6.8-13.7,7.7-18.1,1.6C366.3,168.4,369,159.3,375.6,157.1z"/>
	<path d="M271.4,179.5c1.9-4,7-4.3,10.5-6.4c0.4,13.2,0.4,26.5,0.1,39.7C266.6,209.5,267.4,191.1,271.4,179.5z"/>
	<path d="M284.7,174.2c5.3,0,10.7,0,16,0c0,4.4,0,8.9,0,13.3c-5.4,0-10.7,0-16,0C284.7,183.1,284.7,178.7,284.7,174.2z"/>
	<path d="M303.5,212.7c-0.2-13.4-0.7-26.8,0.5-40.1c12.8,3,12.8,16.9,12.3,27.5C314.9,206.4,309.8,211.4,303.5,212.7z"/>
	<g>
		<path d="M362.2,182c6.3-7.3,15.2-0.9,19.3,5.4c3.1,4.5,6.4,8.9,9.8,13.2c5.5,5.6,8.9,12.6,8.4,20.7c-49.9,0.2-99.7,0.1-149.6,0.1
			c0-1.8,0-5.4,0-7.3c34.3-0.1,68.6-0.1,102.9,0C356,203.4,356.7,191.7,362.2,182z M379,212.8c2.9,2.3,5.1,2.1,6.6-0.6
			c-0.9-3.2-3.1-5.2-6.4-6C376.6,207.9,376.5,210.1,379,212.8z"/>
	</g>
	<g>
		<path d="M194.8,226.1c98.5,0,197.1,0,295.6,0c-0.4,17.1,0.7,34.2,0.6,51.3c5.2,7.8,4,17.2,3.5,26.1c-4.1-1.1-8-2.5-11.8-4.3
			c-25.7-0.9-51.5,0.6-77.2-0.6c-3.3-8-1.5-18-7-25.4c-9.6-17.4-34.6-23.3-50.7-11.4c-12.3,8-16.7,23-16.3,37
			c-45.6,0.7-91.1,0.1-136.7,0.3C194.8,274.6,194.8,250.3,194.8,226.1z M406.2,254.4c19.2,0.4,38.5,1,57.7-0.6
			C444.9,251.6,425.1,251,406.2,254.4z M406.1,262.8c19.2,1,38.6,1.1,57.8,0.1c-10.2-2.9-20.9-1.5-31.3-1.9
			C423.7,261.2,414.6,260.2,406.1,262.8z M406.1,271.6c10.7,1.2,21.4-0.1,32.1,0.4c8.6,0.3,17.5,0.9,25.9-1.6
			C444.8,270.2,425.1,267.8,406.1,271.6z"/>
	</g>
	<g>
		<path d="M74.4,264.7c20.5-7.6,43.3,13.8,37.1,34.7c-4.1,20.6-32.3,29.5-47.5,14.9C46.9,300.8,53.3,270.3,74.4,264.7z M74.7,278.5
			c-10.4,5.7-10.4,22.4,0,28c10.7,7.2,26.4-2.6,24.7-15.3C99,279.5,84.4,272,74.7,278.5z"/>
	</g>
	<g>
		<path d="M361.6,264c21.6-5.8,42.5,18.4,33.5,38.9c-6.7,20.1-36,25.3-49.2,8.7C331.2,296.2,340.6,267.7,361.6,264z M359.1,278.7
			c-10.1,5.8-9.9,22.3,0.3,27.8c10.6,7.1,26.2-2.5,24.7-15.1C383.9,279.5,368.9,271.9,359.1,278.7z"/>
	</g>
	<path d="M79.9,289.5c2-4.5,10.4,0.4,7.5,4.4C86.3,301.7,73.6,293.9,79.9,289.5z"/>
	<path d="M364.3,289.1c4.7-4.2,11,2.1,7.2,6.9C366.6,299.8,360.6,294.1,364.3,289.1z"/>
</g>
<g>
	<path class="st1" d="M227.3,267.9c0.8,1.1,1.2,2.2,1.5,3.4c0.1,1.3,0,2.5-0.5,3.5s-1.3,1.8-2.5,2.8c-0.8,0.7-1.7,1.3-2.8,2
		c-1.1,0.7-2.2,1.2-3.4,1.7c-1.2,0.4-2.4,0.9-3.6,1.3c-1.2,0.3-2.3,0.8-3.4,1c-0.7,0.1-1.1,0.2-1.5,0.3c-0.4,0.1-0.8,0.1-1.2,0
		c-0.3,0-0.8-0.1-1.1-0.2s-0.8-0.3-1.3-0.5c-0.9-0.4-1.6-0.9-2.3-1.3c-0.8-0.4-1.5-1-2.4-1.6c-0.3-0.3-0.7-0.7-0.9-1
		c-0.3-0.2-0.5-0.5-0.7-0.8c-0.1-0.3-0.2-0.7-0.3-1c-0.1-0.3-0.1-0.9,0-1.4c0.1-1.8,0.2-4,0.5-6.3c0.2-2.4,0.5-4.8,0.8-7.4
		c0.3-2.5,0.5-5.1,0.8-7.7c0.2-2.6,0.3-5,0.4-7.4c1.2-0.5,2.5-1.2,4-1.7s3-1,4.7-1.4c1.6-0.4,3.3-0.7,5-0.9c1.7-0.2,3.3-0.2,4.8-0.1
		c1.5,0.1,2.9,0.3,4.1,0.8c1.2,0.4,2.3,1,3.1,1.7c1.1,1.1,2,2.2,2.6,3.4c0.7,1.2,1.2,2.6,1.5,4.2c0.1,0.9,0.1,1.7,0,2.5
		c-0.1,0.8-0.4,1.6-0.9,2.4c-0.2,0.8-0.8,1.5-1.3,2.2c-0.5,0.7-1.2,1.3-1.8,1.8c-0.8,0.5-1.4,1.1-2.2,1.6c-0.8,0.5-1.6,1.1-2.7,1.6
		C225.7,266,226.7,266.8,227.3,267.9z M210.1,273.2c-0.2,1.2-0.4,2.4-0.7,3.6c1.5-0.4,3-0.9,4.3-1.4s2.4-1.1,3.3-1.7
		c0.9-0.7,1.5-1.3,2-1.8c0.4-0.7,0.5-1.2,0.4-1.7c-0.1-0.3-0.3-0.5-0.9-0.8c-0.4-0.2-1.1-0.4-1.8-0.5c-0.8-0.1-1.5-0.1-2.5,0.1
		c-1,0.1-2.1,0.4-3.3,0.8C210.6,270.9,210.4,272.1,210.1,273.2z M217.8,259.9c1.5-0.9,2.8-1.7,3.8-2.6c1.1-0.9,1.8-1.7,2.3-2.5
		c0.4-0.8,0.7-1.4,0.5-2c-0.1-0.4-0.4-0.7-1-0.9c-0.5-0.2-1.2-0.2-2.1-0.2c-0.9,0-1.8,0.2-2.9,0.5c-1.1,0.3-2.3,0.8-3.6,1.3
		c-0.4,1.3-0.8,2.6-1.1,4c-0.4,1.4-0.8,2.9-1.2,4.6C214.5,261.5,216.3,260.8,217.8,259.9z"/>
	<path class="st1" d="M240.3,245.6c1.6-0.3,3.3-0.7,5-1s3.5-0.5,5.3-0.8c1.8-0.2,3.6-0.3,5.4-0.4c1.7,0,2.8,0.7,3.3,2
		c0.4,0.8,0.7,1.4,0.8,2c0.1,0.5,0.3,1.2,0.4,2c0.1,0.8,0.1,1.3-0.2,1.6c-0.2,0.2-0.8,0.4-1.6,0.5c-1.8,0.2-3.7,0.4-5.6,0.7
		c-1.9,0.3-3.9,0.4-6.1,0.8c-0.4,1.4-0.9,2.7-1.3,4.2c-0.4,1.4-0.9,3-1.3,4.6c0.9-0.1,1.8-0.2,2.7-0.2c0.9-0.1,1.8-0.1,2.9-0.1
		c0.9,0,1.5,0,2,0.2c0.4,0.2,0.9,0.5,1.2,1.2c0.3,0.7,0.7,1.2,0.9,1.7s0.3,1.2,0.5,1.7c0.2,0.7,0.2,1.2,0.1,1.4
		c-0.2,0.2-0.8,0.4-1.5,0.7c-1.8,0.3-3.7,0.7-5.5,1c-1.8,0.3-3.7,0.5-5.4,1c-0.2,1-0.4,1.8-0.7,2.7s-0.4,1.7-0.7,2.6
		c1.4-0.2,2.7-0.4,4-0.5s2.7-0.2,4.1-0.3c0.9-0.1,1.5,0,2,0.2c0.5,0.2,0.9,0.5,1.2,1.1c0.3,0.7,0.7,1.2,0.9,1.7s0.4,1.1,0.7,1.6
		c0.1,0.7,0.1,1,0,1.2c-0.1,0.2-0.7,0.4-1.4,0.5c-2,0.3-3.9,0.8-5.9,1.1c-2,0.4-3.9,0.8-5.6,1.1c-1.2,0.3-2.1,0.3-2.7,0.2
		c-0.7-0.2-1.2-0.4-1.6-0.7c-0.5-0.3-1-0.7-1.4-1c-0.4-0.3-1-0.8-1.6-1.3c-0.5-0.4-0.9-0.9-1.2-1.5c-0.3-0.7-0.4-1.3-0.3-2.1
		l4.3-29.9C237.3,246.3,238.7,246,240.3,245.6z"/>
	<path class="st1" d="M272.2,275.1c-2.3,0.3-4.2,0.7-6,1.2c-0.7,1.2-1.1,2.3-1.6,3.3s-0.9,2-1.3,2.9c-0.2,0.5-0.5,0.9-0.9,0.9
		s-0.9,0-1.5-0.2c-0.4-0.1-0.9-0.3-1.3-0.5c-0.4-0.2-1-0.4-1.4-0.7c-0.3-0.2-0.7-0.4-1-0.7c-0.3-0.3-0.4-0.3-0.7-0.7
		c-0.1-0.2-0.2-0.5-0.2-1c0-0.3,0.1-0.9,0.2-1.5c0.8-2.1,1.6-4.6,2.8-7.3c1.2-2.8,2.4-5.6,3.7-8.7c1.3-2.9,2.7-6,4.1-8.8
		c1.4-2.8,2.7-5.5,4-7.7c0.4-0.8,1.1-1.5,1.7-2c0.8-0.5,1.8-0.8,3.3-0.5c1.2,0.1,2.3,0.1,3.3,0.3c1,0.1,1.8,0.3,2.6,0.4
		c0.8,0.2,1.5,0.3,2.3,0.5c0.7,0.2,1.4,0.4,2.1,0.5c1,0.3,1.5,0.8,1.7,1.3c0.2,0.5,0.3,1.3,0.2,2.2c-0.2,2.2-0.3,4.6-0.4,7.4
		c-0.1,2.8-0.2,5.6-0.3,8.7c0,3-0.1,6.1-0.1,9c0,3,0,5.9,0,8.5c0,0.5-0.1,0.9-0.3,1.1c-0.2,0.2-0.8,0.3-1.5,0.3
		c-0.7,0-1.5,0-2.2-0.1c-0.7,0-1.3-0.2-2.1-0.4c-0.8-0.2-1.2-0.4-1.5-0.9c-0.3-0.3-0.5-0.9-0.7-1.7c-0.1-0.9-0.2-1.8-0.3-2.8
		c-0.1-1.1-0.2-2.2-0.2-3.4C276.6,274.4,274.5,274.7,272.2,275.1z M274.4,267.3c1.4-0.1,2.7-0.2,4.1-0.3c0-2.5-0.1-4.9-0.1-7.4
		s0-4.9,0-7.3c-1.2,2.2-2.5,4.7-3.9,7.3c-1.4,2.7-2.8,5.4-4.2,8.2C271.7,267.6,273.1,267.4,274.4,267.3z"/>
	<path class="st1" d="M299.5,277.3c-0.3,1.7-0.7,3.4-1,5c-0.1,0.4-0.3,0.8-0.7,1c-0.2,0.1-0.8,0.1-1.4,0c-0.9-0.2-1.5-0.3-2.2-0.5
		c-0.7-0.1-1.2-0.3-1.8-0.7c-0.5-0.3-1-0.8-1.2-1.2c-0.2-0.4-0.3-1.1-0.2-1.8c0-0.7,0.1-1.5,0.2-2.7c0.1-1.2,0.2-2.6,0.4-4.1
		c0.1-1.5,0.3-3.1,0.5-4.9c0.2-1.7,0.4-3.5,0.7-5.2c0.2-1.7,0.4-3.5,0.8-5.1c0.3-1.6,0.5-3.1,0.9-4.4c0.3-1.3,0.7-2.4,1-3.3
		c0.3-0.9,0.8-1.4,1.1-1.6c1.8-0.9,3.8-1.6,5.9-2.5c2.1-0.8,4-1.4,6-1.7c2-0.3,3.8-0.3,5.6-0.1c1.8,0.2,3.3,1.1,4.7,2.4
		c1.1,1.2,2.1,2.4,2.8,3.7c0.7,1.3,1.5,2.9,2,4.8c0.4,2.1,0.2,3.7-0.4,5c-1.1,2.1-2.8,4-5.2,5.7c-2.4,1.7-5.3,3.4-8.7,4.9
		c0.7,0.8,1.4,1.6,2.3,2.5c0.9,0.9,1.7,1.7,2.6,2.6c0.9,0.9,1.7,1.7,2.6,2.5c0.9,0.9,1.6,1.5,2.4,2.2c0.5,0.5,0.9,0.9,0.8,1.2
		c-0.1,0.3-0.3,0.7-0.8,1c-0.5,0.4-1,0.7-1.4,0.8s-0.9,0.1-1.4,0.2c-0.7,0.2-1.4,0.2-2.2,0.1c-0.8-0.1-1.7-0.4-2.8-1.1
		c-0.7-0.4-1.5-1.1-2.4-1.8c-0.9-0.8-1.8-1.5-2.8-2.4c-1-0.9-2-1.7-2.9-2.7c-1-1-1.8-2-2.6-2.8C300.3,273.9,299.8,275.7,299.5,277.3
		z M304.1,258.7c-0.4,1.7-1,3.6-1.5,5.6c2.1-0.7,3.9-1.5,5.5-2.5s2.9-2.1,4-3c1.1-1.1,1.8-2.1,2.4-2.9c0.4-1,0.7-1.6,0.4-2.2
		c-0.3-0.9-1.4-1.3-3.1-1.3c-0.9,0-1.8,0.1-2.9,0.3s-2.2,0.7-3.4,1.2C305,255.3,304.5,257,304.1,258.7z"/>
</g>
</svg>
