<?xml version="1.0" encoding="utf-8"?>
<!-- Generator: Adobe Illustrator 25.3.1, SVG Export Plug-In . SVG Version: 6.00 Build 0)  -->
<svg version="1.1" id="Capa_1" xmlns="http://www.w3.org/2000/svg" xmlns:xlink="http://www.w3.org/1999/xlink" x="0px" y="0px"
	 width="106.5px" height="102.5px" viewBox="0 0 106.5 102.5" style="enable-background:new 0 0 106.5 102.5;" xml:space="preserve"
	>
<style type="text/css">
	.st0{fill:#030304;}
</style>
<g>
	<path class="st0" d="M94.8,41.6L94.8,41.6L94.8,41.6c0.3,0.1,0.8,0.3,1,0.7c0.6,1.3,0.4,2.9,0.1,4.4l0,0.1h0.4l0,0
		c0-0.1,0.1-0.2,0.1-0.3c0.2-0.6,0.4-1.2,0.3-1.8c0-0.9-0.1-2-0.7-2.8c-0.2-0.3-0.6-0.4-1.1-0.5h-0.1l0,0.1
		C94.8,41.4,94.8,41.5,94.8,41.6z"/>
	<path class="st0" d="M15.9,74.3c-0.7-0.3-0.5,0.9,0,0.9c0.2,0,0.3-0.1,0.3-0.3C16.2,74.6,16,74.3,15.9,74.3z"/>
	<path class="st0" d="M27.7,60.4c0.3,0.2,0.6,0.3,0.9,0.5c-0.2-0.5-0.5-0.9-0.7-1.4l-0.1-0.2c-0.2,0.9-1.2,1.5-2.2,1.4
		c-0.6-0.3-0.9-0.9-0.9-1.3c0.7-0.1,1.5-0.1,2.1-0.6c0-0.9-1.2-0.7-1.9-0.6c0.2-0.2,0.5-0.4,0.7-0.5c-0.1-0.1-0.3-0.2-0.4-0.3
		c0.2-0.3,0.6-0.3,0.9-0.5l0.2-0.1c-0.5,0-0.9,0.1-1.4,0.1v0.9l-0.2-0.1c-0.2,1-0.5,2.2,0.1,3.2C25.8,61.4,27.1,60.8,27.7,60.4z"/>
	<path class="st0" d="M21.6,79.7c0.4,0,0.5-0.6,0.2-0.8C21.3,78.6,21.1,79.7,21.6,79.7z"/>
	<path class="st0" d="M18,74.5c-0.7-0.3-0.5,0.9,0,0.9c0.2,0,0.3-0.1,0.3-0.3C18.3,74.9,18.1,74.6,18,74.5z"/>
	<path class="st0" d="M22.5,59.2c0.9-0.4,1-1.4,1-2c-0.1,0.1-0.1,0.3-0.2,0.4c-0.2,0.4-0.5,0.9-1.1,0.9c-0.1-0.5-0.2-1-0.3-1.5
		c-0.2,0.5-0.2,1-0.1,1.6C22.1,58.7,22.3,59,22.5,59.2z"/>
	<path class="st0" d="M9.7,54.3c0.1-0.1,0.2-0.3,0.3-0.5c-0.3-0.1-0.6-0.2-1-0.3C8.9,54,9.4,54.1,9.7,54.3z"/>
	<path class="st0" d="M34.2,57.6c0.5-0.2,1.1-0.4,1.3-0.9c-0.4,0.1-0.9,0.2-1.3,0.4V57.6z"/>
	<path class="st0" d="M35,55.8L35,55.8c-0.4,0-0.9,0.3-1.1,0.7C34.4,56.6,34.9,56.3,35,55.8z"/>
	<path class="st0" d="M33.9,58.4c0.6,0.1,1.2,0.1,1.7-0.4l0.1-0.1C35,57.7,34.3,57.9,33.9,58.4z"/>
	<path class="st0" d="M31,58.8c0.3-0.1,0.5-0.5,0.6-0.8c0.2-0.3,0.2-0.8,0.1-1.2l0-0.3l-0.1,0.1c-0.3,0.5-0.1,1.4-0.8,1.6
		c-0.6-0.2-0.3-1.1-0.5-1.6c-0.3,0.4-0.5,0.9-0.3,1.3C30,58.4,30.5,58.9,31,58.8z"/>
	<path class="st0" d="M32.6,57.8c-0.3,0.4-0.6,0.9-0.9,1.3C32.2,59.1,33.1,58.4,32.6,57.8z"/>
	<path class="st0" d="M81.5,36c-0.6,0.8-0.8,1.5-0.7,2.2l0,0h0c0.1,0,0.2,0,0.3,0h0.1v-0.1c0-0.6,0.2-1.2,0.7-1.9l0.2-0.3
		c0.3-0.4,0.5-0.7,0.9-1c0.1-0.1,0.2-0.1,0.3-0.2c0.2-0.2,0.5-0.3,0.6-0.6l0-0.1l-0.1,0C82.8,34.5,82,35.3,81.5,36z"/>
	<path class="st0" d="M80.4,36.2L80.4,36.2L80.4,36.2c0.2-0.7,0.7-1.3,1.2-1.8l0.1-0.2c0.1-0.2,0.3-0.3,0.5-0.4
		c0.3-0.2,0.6-0.4,0.7-0.7l0-0.1l-0.1,0c-1.1,0.3-1.8,1.3-2.4,2c-0.2,0.3-0.4,0.7-0.4,1.1v0.1l0,0C80.2,36.2,80.3,36.2,80.4,36.2z"
		/>
	<path class="st0" d="M84.4,42.8L84.4,42.8L84.4,42.8c0.2,0,0.4,0,0.5,0h0.1v0c0-0.1,0-0.3,0.1-0.4l0-0.1h-0.1c-0.2,0-0.4,0-0.6,0.1
		l0,0l0,0C84.3,42.6,84.3,42.7,84.4,42.8z"/>
	<path class="st0" d="M61.6,81.6c0.2,0,0.9-0.2,1.1-0.6c0.1-0.2,0.1-0.4,0.1-0.6l0-0.1l-0.1,0c-0.1,0.1-0.2,0.1-0.3,0.2
		c-0.2,0.2-0.3,0.3-0.6,0.3c-0.9,0.1-1.9-0.1-2.8-0.4c-0.6-0.1-1.3-0.3-1.9-0.3h0l0,0c0,0.1,0,0.2,0,0.3c0,0.2-0.1,0.5-0.3,0.7
		c-0.3,0.3-0.7,0.3-1.2,0.3c-0.1,0-0.2,0-0.2,0c-0.2,0-0.4,0-0.5-0.1c-0.3-0.1-0.6-0.2-0.9,0l0,0v0c0,0.1,0,0.2,0.1,0.3
		c0.1,0.2,0.1,0.4,0,0.6c-0.5,0.9-1.5,1.2-2.5,1.5c-0.2,0.1-0.4,0.1-0.6,0.1c-0.4,0.1-0.8,0.2-1.1,0.4l-0.1,0.1l0.1,0
		c0.4,0.1,0.7,0,1.1-0.1c0.2,0,0.4-0.1,0.6-0.1l0,0.2c0.1,0.7,0.3,1.5,0.8,2c0.2,0.2,0.4,0.2,0.6,0.2h0.4l0,0c0,0,0.1-0.1,0.1-0.1
		c0.2-0.3,0.4-0.5,0.4-0.8c0.1-0.6,0-1.3,0-1.9c0-0.2,0-0.4,0-0.6c0.3-0.4,0.7-0.8,0.8-1.3h0.2c0,1.1,0.2,2.1,0.7,3.1
		c0.2,0.4,0.7,0.7,1.2,0.5c0.5-0.3,0.9-0.9,1-1.7c0-0.3,0.1-0.5,0.1-0.8c0.1-0.7,0.2-1.4,0.2-2.2c0.3,0,0.5,0,0.8,0v0.6
		c0,0.8,0,1.5,0.2,2.3c0.2,0.4,0.5,0.9,1,0.8h0c0.4-0.2,0.8-0.6,1-1C61.4,83.1,61.5,82.3,61.6,81.6z M53.2,86.2
		c0,0.1-0.1,0.3-0.3,0.3c-0.2,0-0.3,0-0.4-0.2c-0.4-0.5-0.5-1.2-0.6-1.8c0.3-0.1,0.6-0.3,0.9-0.4c0.1,0,0.2-0.1,0.4-0.2l0,0.1
		C53.4,84.7,53.4,85.4,53.2,86.2z M57.3,83.3c0,0.2-0.1,0.4-0.1,0.7c0,0.4-0.2,1-0.6,1.4c-0.4,0.2-0.6-0.2-0.8-0.7l0,0
		c-0.4-0.8-0.4-1.8-0.3-2.4c0,0,0.1,0,0.2,0c0.4,0,0.8,0,1.2-0.2c0.2-0.1,0.3-0.3,0.5-0.4c0,0,0.1-0.1,0.1-0.1
		C57.5,82.1,57.4,82.7,57.3,83.3z M60.5,83.7c-0.1,0.2-0.3,0.4-0.5,0.6c0,0-0.1,0.1-0.1,0.1c-0.2-0.2-0.3-0.4-0.4-0.6
		c-0.2-0.9-0.2-1.7,0-2.4c0.2,0,0.4,0,0.6,0.1c0.3,0,0.6,0.1,0.9,0.1C60.9,82.3,60.8,83,60.5,83.7z"/>
	<path class="st0" d="M102.8,77.2L102.8,77.2c-0.3,0.1-0.5,0.3-0.7,0.5c0,0-0.1,0.1-0.1,0.1c-0.7,0.7-1.9,1.6-3.3,1.7h-0.2
		c-0.2,0-0.5,0-0.6-0.1c-0.1-0.2-0.1-0.4-0.2-0.6c0-0.1,0-0.2,0-0.3l0,0h0c-0.4,0-0.8,0.2-1.1,0.4c-0.1,0.1-0.3,0.2-0.4,0.3
		c-0.1,0-0.2,0.1-0.3,0.1c-0.8,0.4-1.7,0.8-2.7,0.8c0-0.2,0.1-0.4,0.1-0.7c0-0.1,0-0.2,0-0.3l0,0l0,0c-0.3,0-0.6,0.1-0.8,0.2
		c-0.1,0.1-0.3,0.1-0.4,0.2c-0.8,0.3-1.7,0.2-2.6,0.2c-0.5,0-1,0-1.6,0l-0.1,0l0.1,0.1c0.6,0.5,1.3,0.5,2,0.5c0,0.2,0,0.3-0.1,0.5
		c-0.1,0.7-0.2,1.4,0.1,2c0.1,0.2,0.3,0.3,0.5,0.4c0.3,0,0.6-0.1,0.8-0.3c0.5-0.4,0.8-1.1,1-1.7c0.1-0.2,0.2-0.5,0.3-0.7
		c0.2,0.1,0.3,0.2,0.5,0.3c-0.3,0.9-0.3,1.9,0.4,2.4l0,0c0.1,0,0.2,0,0.3,0c0.5,0,0.9-0.3,1.2-0.6c0.6-0.7,0.9-1.5,1.3-2.3
		c0.1-0.2,0.2-0.4,0.3-0.7c0.1-0.2,0.2-0.3,0.4-0.3c-0.1,0.2-0.2,0.5-0.3,0.7c-0.3,0.8-0.7,1.7-0.5,2.6c0.1,0.2,0.3,0.4,0.5,0.4
		c0.3,0,0.5,0,0.7-0.2c0.6-0.6,1-1.3,1.4-2c0.2-0.3,0.3-0.5,0.5-0.8c0.1,0,0.2-0.1,0.3-0.1c0.8-0.3,1.6-0.6,2.2-1.3
		c0.1-0.1,0.2-0.2,0.3-0.3C102.6,78,102.9,77.7,102.8,77.2L102.8,77.2z M91.7,81.1c-0.1,0.2-0.2,0.4-0.3,0.6
		c-0.1,0.2-0.4,0.7-0.8,0.8c-0.3-0.1-0.3-0.5-0.3-0.8v-0.1c0-0.5,0-1,0.4-1.4c0.4-0.1,0.9-0.1,1.3-0.2c0.1,0,0.1,0,0.2,0
		C92,80.3,91.8,80.7,91.7,81.1z M95,81.6c0,0.1-0.1,0.2-0.1,0.2c-0.2,0.3-0.5,0.8-1,0.7c-0.6-0.5-0.3-1.5-0.1-2.1
		c0.5-0.1,1-0.3,1.5-0.4c0.2-0.1,0.3-0.1,0.5-0.2C95.7,80.6,95.3,81.1,95,81.6z M98.1,81c-0.1,0.2-0.2,0.3-0.3,0.5
		c-0.3,0.5-0.6,0.8-0.9,1c-0.2-0.7,0.1-1.4,0.3-2.1c0.1-0.2,0.1-0.4,0.2-0.5c0.4,0.2,0.8,0.3,1.2,0.3C98.5,80.5,98.3,80.7,98.1,81z"
		/>
	<path class="st0" d="M75.5,26.3c0.1,0.1,0.1,0.2,0.2,0.2C75.6,26.4,75.6,26.3,75.5,26.3z"/>
	<path class="st0" d="M65.4,42.6c-0.2-0.1-0.4-0.2-0.6-0.3c0,0,0,0,0,0c-0.1,0.1-0.1,0.3-0.2,0.4c0.1,0.1,0.3,0.2,0.4,0.2
		c-0.4,1.2-1,2.2-1.9,3.2C64.2,45.1,64.9,43.9,65.4,42.6z"/>
	<path class="st0" d="M64.9,40.6C64.9,40.6,64.9,40.7,64.9,40.6C64.9,40.7,64.9,40.6,64.9,40.6z"/>
	<path class="st0" d="M66.7,22.3c0.4-0.3,1-0.2,1.5-0.4c0.3-0.5,0.5-1.1,0.3-1.7c-0.3-0.1-0.7-0.3-1.1-0.1C65.3,21,63.2,22,61,22.5
		c-0.8,0.3-2.8,0.2-1.7,1.8C61.8,23.9,64.4,23.5,66.7,22.3z"/>
	<path class="st0" d="M38.7,17.7c0-0.1,0-0.2-0.1-0.3C38.6,17.6,38.6,17.7,38.7,17.7z"/>
	<path class="st0" d="M105,73.5c-0.3-1.3-0.8-2.3-1.4-3.1c-0.3-0.4-0.8-0.7-1.3-1c-0.1-0.1-0.2-0.1-0.3-0.2
		c-0.2-0.1-0.3-0.3-0.4-0.6c-0.1-0.2-0.2-0.3-0.3-0.5c-0.9-1-2.4-1.3-3.4-1.4c-2.5-0.1-4.6,0.3-6.4,1.2c-0.5,0.3-1.2,0.6-1.8,1.1
		c-0.8-0.9-2-1.5-3.3-1.6c0.6-0.9,1.2-2,2-2.9c0.2-0.2,0.5-0.3,0.8-0.3l0.1,0c0.3-0.1,0.6-0.1,0.9-0.2c1.6-0.3,3.3-0.6,5.1-0.7
		c0.5,0,0.9,0,1.4,0c0.8,0,1.6-0.1,2.4,0c0.2,0,0.5,0,0.7,0c0.4,0,0.8,0,1.2,0.1c0.4,0.1,0.8,0.1,1.2,0.2c0.4,0.1,0.8,0.1,1.3,0.2
		c0.2,0,0.3,0.2,0.4,0.3l0.2,0.2l0-0.1c0.1-0.2,0.2-0.4,0.3-0.5l0,0l0,0c-0.9-1.8-2.4-3.3-3.7-4.6c-0.8-0.8-1.7-1.3-2.7-1.9
		c0.1-0.1,0.2-0.2,0.3-0.3c0.2,0.2,0.5,0.4,0.8,0.2c-0.5-0.1-0.9-0.3-1.4-0.5c-0.1,0.1-0.3,0.3-0.4,0.4c-0.2,0-0.4-0.1-0.6-0.2
		c-0.6-0.2-1.2-0.4-1.9-0.5c-0.8-0.1-1.7-0.1-2.5-0.1c-0.1,0-0.3,0-0.4,0c0.4-1.3,0.9-3.8-0.3-5.8c1.1-0.5,1.4-1.8,1.3-2.8
		c-0.2-1-0.5-1.6-1-2.1c-0.6-0.6-1.3-1.2-2.1-1.4c-0.6-0.1-1.3-0.3-2-0.3c0,0,0-0.1,0-0.1c-0.1-0.2-0.1-0.3-0.2-0.5
		c-0.1-0.1-0.2-0.2-0.4-0.3c-0.1-0.1-0.3-0.2-0.4-0.3c0-0.2,0-0.5,0.1-0.7c0.1-0.2,0.2-0.5,0.1-0.8c0-0.4-0.4-0.6-0.8-0.8
		c-0.1,0-0.1-0.1-0.2-0.1c0-0.1,0-0.3-0.1-0.4c-0.1-0.5-0.1-1-0.6-1.3c-0.7-0.5-1.6-0.2-2.4,0.1c-0.1,0-0.1,0-0.2,0.1l-0.1,0.1
		c-0.6,0.4-1.4,0.8-1.8,1.6c-0.2,0.6,0.3,1.1,0.7,1.4c0.1,0.1,0.1,0.1,0.2,0.2c-0.1,0.3-0.2,0.6-0.2,1c0.2,0.4,0.6,0.5,0.9,0.6
		c0.1,0,0.1,0,0.2,0v0c0,0.3,0,0.6-0.2,0.8c-0.2,0.1-0.4,0.2-0.7,0.3c-0.2,0.1-0.4,0.1-0.6,0.2c-1.5,0.7-2.9,1.9-3.8,3.4
		c0,0.1-0.1,0.1-0.1,0.2c-0.1,0.2-0.3,0.4-0.5,0.5c-0.2-0.2-0.4-0.5-0.6-0.7l0-0.2h-0.1c-0.2-0.2-0.4-0.4-0.7-0.6
		c0.7-1,1.3-2,1.7-3.2c0.5-1.3,1.2-3.5,0.5-3.1c-0.3,0.2-0.9,0.3-1.4,0.3c0.1-0.2,0.2-0.4,0.3-0.6c0.9-3,1.4-6.1,1-9.3
		c0.2,0,0.4,0.5,0.6,0.5c-0.4-1.6-1-3.7-2-5.2c-0.2-0.2-0.3-0.5-0.5-0.7c0.1,0.2,0.3,0.5,0.4,0.6c-0.4-0.4-1-1.4-1.4-1.7
		c-0.3-0.3-0.6-0.5-0.9-0.8c0,0,0,0,0,0v0c-0.1-0.1-0.2-0.2-0.3-0.3c0,0.1,0.1,0.2,0.1,0.3c0,0,0,0.1,0,0.1
		c-0.1-0.1-0.3-0.3-0.4-0.4c0,0,0,0,0,0c0-0.1-0.1-0.2-0.1-0.3c-0.1-0.1-0.2-0.1-0.3-0.2l-0.1-0.1c0.1,0,0.2,0.1,0.2,0.1l0,0
		c-0.1,0-0.2-0.1-0.2-0.1l-0.1-0.1c0,0-0.1,0-0.1-0.1c-0.1,0-0.1-0.1-0.2-0.2c0,0,0,0-0.1-0.1c-0.1,0-0.1,0-0.2,0l-2-4
		C70,19,70,18.9,70,18.7c0-0.1,0-0.3,0-0.4c0,0,0-0.1,0-0.2c-0.2-0.2-0.2-0.5,0-0.7c1.2-1.8,1.7-4.3,1.2-6.3c-0.2-0.7-0.5-1.3-0.9-2
		c-0.1,0-0.3,0.1-0.4,0.1c-0.1-0.3-0.3-0.6-0.7-0.6c-0.9-0.6-2.2-0.7-3.4-0.8c-0.9,0.5-1.8,1.1-2.6,1.8c-0.1,0.5-0.5,1-1.1,1.1
		c-0.2,0.2-0.4,0.4-0.7,0.5c0,0,0,0.1,0,0.1c-0.1,0-0.3,0-0.4-0.1c0,0-0.1,0-0.1,0c-0.4,0-0.7,0-0.9-0.2c-4.9-0.6-10,0.6-14.2,3
		c-0.5-0.5-0.9-1-1.4-1.5c-0.2-0.1-0.5-0.2-0.7-0.3c-0.6,0.2-1.3-0.1-1.9-0.3c-1.3-0.6-2.8,0.1-4.1,0.4l0.1,0c0,0-0.1,0-0.1,0
		c-1,1-1.5,2.2-1.7,3.4c-0.5,0.9-0.4,2.1-0.1,3.1c0.1,0.3,0.2,0.5,0.3,0.8c0.1,0.3,0.2,0.6,0.3,0.9c0.1,0.2,0.3,0.3,0.4,0.5
		c0.1,0.1,0.3,0.2,0.5,0.4c0.1,0.1,0.2,0.2,0.3,0.2c0,0,0.1,0.1,0.1,0.1c0,0,0,0,0,0c0.1,0.1,0.3,0.4,0.4,0.6l0,0.1
		c0.1,0.2,0.1,0.3,0.1,0.5c0.1,0,0.1,0.1,0.2,0.1c-0.1,0.5-0.3,1-0.3,1.5c0,0.6,0,1.2,0,1.8c0,0,0,0,0,0c0,0.8,0,1.7-0.3,2.5
		c-0.1,0.3-0.2,0.5-0.3,0.8l-0.1,0l0,0.2c-0.5,0.9-1.3,1.6-1.9,2.5c0.3,0,0.7-0.1,1-0.1l0,0.3c-0.3,0.6-0.5,1.1-0.7,1.7
		c-0.1,1.6-0.5,3.8-0.2,5.5c0.4,0.1,0.8,0.2,1.3,0.3c0.2,1.7,1,3.2,1.4,4.9c0.1-0.1,0.4-0.2,0.6-0.2c0.5,0.6,1,1.2,1.5,1.8
		c-0.3,0-0.5,0.1-0.8,0.1l0.2,0.3c-0.9,0.1-1.8,0.2-1.8,0.2l0.6,0.8l0,0h0l0.2,0.4l0-0.2l0.2,0.2c0.7,1.1,1.6,2,2.6,2.7
		c-0.1,0-0.2,0.1-0.3,0.1c0.1,0.1,0.1,0.2,0.1,0.3c0,0.2,0,0.3,0,0.4c-0.4,0.4-0.7,1-0.9,1.5c-0.7,1-1.3,2.1-1.7,3.3l-0.1,0
		c0,0.3-0.1,0.6-0.2,0.9c0,0.1,0,0.2-0.1,0.2c-0.1,0.3-0.1,0.5-0.2,0.8v0c-0.4-1.6-0.8-3.2-1.1-4.8c0,0.1,0,0.2,0,0.3
		c-0.1-0.1-0.3-0.3-0.4-0.5c0.1-0.6,0.1-1.2,0.1-1.9c-1.1-0.5-1.7,0.5-2.3,1.3c-0.4,0-0.9-0.1-1.2-0.1c-0.2-0.3-0.3-0.6-0.5-0.9
		c0.6-0.6,1-1.3,1.1-2c-1.7-1-3.7,0.4-4.2,0.9c-0.6-0.1-1.2-0.1-1.6-0.3c-0.8-0.4-1.8-0.7-2.9-0.7c-0.5,0-0.9,0.5-1.1,0.9
		c0.3,0,0.5-0.1,0.7-0.1c1.3-0.4,2.5,0.2,3.6,0.9c-0.2,0.6-0.3,1.1-0.4,1.6c-0.3-0.1-0.7-0.3-1.1-0.4l0.1,0.5
		c-0.4-0.1-0.8-0.2-1.3-0.3c0.3-0.2,0.6-0.4,0.9-0.7c-0.7-0.4-1.6-0.6-1.9-1.3c-0.2,0.1-0.3,0.3-0.5,0.4c0.3,0.3,0.5,0.6,0.7,0.9
		c0,0.4,0,0.8,0,1.2c-0.7,0-1.4,0.1-2.2,0.1c-0.2-0.1-0.3-0.2-0.4-0.3c-0.3-0.3-0.6-0.5-0.9-0.5c-0.7,0.3-0.9,1.1-0.9,1.8
		c-0.1,1.3-0.3,2.6-0.4,3.8c-0.2,1.7-0.1,3.5-0.3,5.2c-1.7-1.5-2.4-3.8-4.4-5c-0.9-0.6-1.9-0.6-2.9-0.8c0-0.3,0-0.5,0.1-0.8
		c0.6-0.2,1.1-0.4,1.6-0.7c-0.4-0.2-0.8-0.4-1.3-0.6c0-0.6,0.1-1.1,0.1-1.7c-0.2-1-0.8-1.8-1.7-2.3c-0.7-0.3-1.3,0.1-1.8,0.4
		c-0.3,0.2-0.8,0-1.1,0.1c0,0.1,0,0.4,0,0.6c-0.2,0.3-0.3,0.8-0.4,1.3c0.2-0.2,0.4-0.4,0.6-0.6c0,0,0,0.1,0,0.1
		c0.1,0.2,0.1,0.5,0.2,0.8c0.3,1.8,0.5,2.4,2.5,2.7c0.1,0.3,0.2,0.7,0.3,1.1c-0.8,0.3-1.4,1.3-1.2,2.1c0.7,0.8,1.7,0.7,2.6,1.1
		c1.6,2,2.4,4.4,4.4,6c0.6,0.5,1.2,1.1,2,1.2c0,0.4-0.1,0.8-0.1,1.2c-1.1,0.2-2.3,0.5-3.1,1.5c-0.7,1-1.3,2.1-1.6,3.3
		c-0.4,1.7,0,3.4,0.1,5c-1.9,0.1-3.3,0.5-4.2,1.3c-0.8,0.6-1.2,1.6-1.6,2.5c-1.8,0.4-3.9,0.9-5.4,2.3c-0.4-0.2-0.8-0.3-1.2-0.5
		c-0.2-0.1-0.4-0.1-0.7-0.2c-0.1,0.2-0.1,0.4-0.2,0.6c0.3,0.1,0.7,0.2,1,0.3c1.5,0.6,2.9,1.3,4.3,2.3L6.8,88C6,87.3,5,86.8,4,86.3
		c1.5-0.9,3.3-1.9,5.2-2.1c2.1-0.2,4.3,0.9,5.3,2.7c0.2,0.4,0.3,0.9,0.4,1.3c0.3,0,0.5,0,0.8,0c-0.1-0.5-0.3-0.9-0.4-1.4
		c1.1-0.4,2.6-0.7,3.9-0.1c1.8,0.7,3.3,2.3,4,4.3c0,0-0.1,0.1-0.2,0.2c-1.4,0.3-2.9,0.7-3.6,1.9c0.4-0.1,0.8-0.1,1.2-0.4
		c1.7-1.1,3.8-1.2,5.9-1.2c1.4,0,2.6,0.6,3.9,0.8c-0.2-1.4-0.6-2.9-0.8-4.3c0.3,0.2,0.6,0.5,0.9,0.8c0.1,1.2,0.3,2.3,0.5,3.4
		c0.1-0.1,0.2-0.2,0.3-0.3c-0.1-1-0.2-1.9-0.3-2.9c0.3,0.1,0.9,0.1,0.9,0.4c0.1,0.9,0.2,1.9,0.5,2.8c1.3-1.1,2.3-2.5,3.9-3.2
		c0.7-0.3,1.6-0.4,2.5-0.2c0.9,0.4,1.8,0.8,2.7,1.3c0.3,0.2,0.5,0.4,0.6,0.6c0.1,0.1,0.2,0.3,0.3,0.4c2,1.9,3.8,3.3,5.7,4.1
		c0.2,0.1,0.3,0.3,0.5,0.5c0.1,0.2,0.3,0.3,0.4,0.5c1.6,1.4,3.3,2.8,5.3,3.4c-0.1,0.1-0.3,0.2-0.4,0.3c-0.7,0.6-1.4,1.1-1.8,1.9
		l-0.1,0.1l0.1,0c0.5-0.2,0.9-0.6,1.3-0.9l0.1-0.1c1.5-1.2,3.3-2,5-2.7l0.3-0.1c0.9-0.4,1.9-0.7,2.9-0.9c0.3-0.1,0.6-0.1,0.9-0.1
		c0.2,0,0.5,0,0.7-0.1c0.2,0,0.5,0,0.7,0c0.5,0,1,0,1.5-0.2l0.1,0l-0.1-0.1c-0.2-0.1-0.4-0.2-0.7-0.2c-0.8,0-1.5,0-2.2,0h-0.2
		c0.4-0.8,0.6-1.7,0.6-2.6c0.1-1.1,0-2.2,0-3.3l0-0.6c1.3-0.4,2.6-0.7,4-1l1.2-0.3c1-0.3,2.1-0.4,3.2-0.6c0.8-0.1,1.6-0.3,2.4-0.4
		c1.2-0.2,2.3-0.4,3.5-0.5c0.5-0.1,1-0.1,1.5-0.2c0.6-0.1,1.3-0.1,1.9-0.1c0.1,0,0.3,0,0.4,0h0.1l0-0.1c-0.3-0.7-0.4-1.5-0.4-2.2
		c0.8,0.2,1.7,0.7,2.3,1.6l0.1,0.3c0.2,2.2,1.3,4.3,3.1,6c-1.4,0.8-3.2,1.8-4.5,3.3c-0.1,0.1-0.2,0.3-0.3,0.4
		c-0.4,0.4-0.8,0.9-1,1.5l0,0.1l0.1-0.1c0.6-0.4,1.2-0.9,1.7-1.4c0.3-0.3,0.6-0.7,1-1c2.3-1.9,4.8-3.1,7.2-3.4
		c1.7-0.3,3.6-0.5,5.6-0.3c1.6,0.1,3.1,0.4,4.7,0.9c0.1,0,0.3,0.1,0.4,0.1c0.5,0.2,1,0.3,1.6,0.3l0.1,0l-0.1-0.1
		c-0.3-0.2-0.6-0.3-0.8-0.4c-2-0.7-4.1-1.2-6.2-1.4c1-1.3,3.3-5.2,3.2-5.2c0.1-0.3,0.2-0.6,0.3-0.9c0.1-0.5,0.3-1.1,0.5-1.6
		c0.1-0.1,0.3-0.1,0.4-0.2c1-0.5,2.1-1,2.9-1.8c0.7-0.7,1.3-1.6,1.7-2.4C105.4,77,105.5,75.2,105,73.5z M30,51.5
		c0.7-0.6,1.7-0.9,2.3-0.9c0.2,0.1,0.5,0.2,0.7,0.4c-0.4,0.5-0.9,1-1.5,1.4c-0.2,0.1-0.3,0.3-0.5,0.4c0.5,0.1,1,0.1,1.3,0.5
		c-1,0.4-1.9-0.5-2.9-0.1C29.5,52.6,29.5,51.9,30,51.5z M29.3,51.8c-0.1,0.5-0.2,1.1-0.4,1.6c-0.3,0.1-0.6,0.2-0.9,0.2
		C28.2,53,28.4,52,29.3,51.8z M20.9,57c0-1.1,0.4-2.1,0.3-3.2c0.3,0.3,0.6,0.7,0.7,1.1c3.4-0.7,6.8-0.7,10.2-0.9
		c1,0,1.9,0.2,2.8,0.1c0.2-0.3,0.1-1,0.6-1c0,0.6-0.1,1.3,0.3,1.8c0.9,1.3,1,2.9,1.3,4.4c0.2,1.2,0,2.5,0.2,3.8c0,0.1,0,0.1,0,0.2
		c0,0.6,0,1.1,0.1,1.8c-0.1,0.7-0.5,1.2-0.8,1.8c-0.8,0.3-1.4,0.9-1.8,1.6h0c-0.3,1-0.8,1.9-1.5,2.7c-0.1,0.2-0.3,0.2-0.4,0.2
		c-0.4,0.7-0.8,1.4-1.1,2.1c0,0.1-0.1,0.1-0.1,0.2c0,0-0.1,0.1-0.1,0.1c-0.8,0-1.6,0.1-2.3-0.2c-1.7-0.8-3.1-2.3-3.8-4
		c-0.3-0.8-0.3-1.8-0.8-2.6l0.5-0.5c0.9,0,1.6,0.5,2.4,0.9c0.6,0.4,1.2,0.8,2,0.9c1.5,0.3,3.3-0.2,4.4-1.3c0-0.1-0.1-0.4-0.2-0.6
		c-0.9,0.7-1.8,1.6-3.1,1.7c-1,0-1.8-0.5-2.6-0.9c-0.5-0.3-1-0.6-1.6-0.8c-0.8-0.1-0.9-1.1-1.1-1.7c0.1-0.1,0.3-0.4,0.4-0.5
		c0-0.4,0-0.8-0.1-1.1v0l0,0c-0.3-0.3-0.7-0.6-1-0.9c-0.6,0-1.1,0-1.6,0.3c0.1-0.7,0.2-1.4-0.1-2.1c-0.2,0.7-0.2,1.5-0.3,2.2
		c-0.4,0-0.9-0.1-1.3,0c-0.4,0.3-0.6,0.8-0.6,1.3c-0.2,0.2-0.3,0.4-0.5,0.7C20.3,62.1,20.7,59.5,20.9,57z M21.2,63.5
		c0.3-0.6,0.9-0.9,1.5-0.7c-0.2,0.3-0.4,0.7-0.5,1.1c0.1,0.5,0.3,0.9,0.6,1.3c-0.5,0.5-0.9,1.1-1.7,1c-0.2-0.4-0.4-0.7-0.3-1.2
		c0.1-0.9,1-1.3,1.5-1.9C21.9,63.3,21.5,63.5,21.2,63.5z M22.8,63.8c0.2-0.4,0.5-0.8,0.8-1.2c0.3,0,0.7-0.1,1,0
		c0.5,0.2,0.7,0.7,1,1.2c-0.2,0.4-0.4,0.7-0.5,1.1c-0.7,0.1-1.3,0.1-1.8,0.2C23,64.7,22.6,64.2,22.8,63.8z M25.2,65.1
		c0.1,0.3,0.2,0.7,0.3,1.1c-0.7,0-1.3,0.6-1.6,1.1l0.1,0c0.2,0.1,0.4,0.2,0.7,0.3c0.1,0.7,0.2,1.4,0.4,2c0.2,0.6,0.6,1.1,0.7,1.7
		c-0.4-0.3-0.7-0.8-1-1.2c-0.1-0.2-0.3-0.4-0.4-0.6c-0.7-0.9-1.3-2-1.9-2.9C22.8,65.4,24.1,65,25.2,65.1z M20.4,66.2
		c0.2,0.1,0.4,0.3,0.6,0.5h0.8c0.5,1.2,1.3,2.2,1.9,3.2c0.7,1,1.2,2.2,2.7,2.3c1.1,1.2,2.1,2,3.3,2.2c0.5,0.1,1,0.1,1.5,0
		c-0.4,0.7-0.7,1.4-0.8,2.1c0,0.3,0,0.6,0,0.9c-1.4,0-2.8,0.8-3.6,2.1c-0.2,0.3-0.5,0.6-0.8,0.9c-0.3,0.3-0.7,0.6-0.9,1
		c0.3,0.1,0.6,0.2,0.9,0.4c-0.2,0.4-0.8,0.9-0.2,1.2l0.2-0.2c0.1-0.3,0.3-0.5,0.5-0.8v0.6l-0.3,0.2c0,0.2,0.2,0.3,0.3,0.5
		c-0.3,0-0.6,0-0.9,0c-1.7-3.4-1.6-7.3-3.2-10.8c-0.6-1.2-1.7-1.9-2.5-2.3C20.2,68.8,20.3,67.5,20.4,66.2z M26.5,81.3
		c-0.3-0.1-0.6-0.1-0.9-0.2c0.3-0.2,0.6-0.4,0.9-0.6C26.5,80.8,26.5,81.1,26.5,81.3z M22.9,80.5l0.7-0.2c0.3,0.8,0.4,1.6,0.6,2.6
		c-0.5-0.1-1-0.1-1.4-0.5C22.9,81.8,23,81.2,22.9,80.5z M10.3,56.7c-0.5-0.1-1-0.3-1.1-0.7c-0.4-1-0.4-2.2,0-3
		c0.2-0.5,0.8-0.8,1.4-0.8c0.7,0.4,1.8,1.4,1.8,2.8c-0.5-0.1-1-0.1-1.6-0.2c-0.3,0.2-0.5,0.4-0.7,0.6c0.1,0.5,0.2,0.9,0.3,1.4
		C10.5,56.8,10.4,56.7,10.3,56.7z M10.6,55.6c0-0.1,0.1-0.3,0.3-0.4c0.4,0.1,0.9,0.1,1.4,0.1c0,0.3,0,0.7,0,1
		c0.1,0.1,0.3,0.4,0.4,0.5c-0.5,0-1,0.1-1.4,0.1C11,56.5,10.5,56,10.6,55.6z M11.9,58.2c-0.2,0-0.4,0-0.6,0.1v0c0-0.3,0-0.7,0-1
		C11.9,57.3,11.8,57.8,11.9,58.2z M16.3,66.1c-1.5-1.6-2.1-3.6-3.6-5.1c-0.8-0.3-1.9-0.2-2.4-1c0.6-1.2,2.3-1.3,3.6-0.9
		c2.7,1.1,3.5,4.1,5.6,5.7c-0.1,0.8-0.2,1.6-0.2,2.3c0,0.4,0,0.8-0.1,1.2C18,67.8,17.1,66.9,16.3,66.1z M18,85.7
		c-1,0-1.9,0.1-2.6,0.4c-0.3,0.2-0.4,0-0.5-0.2c-0.6-0.9-1.5-1.7-2.7-2.1c-0.9-0.4-1.9-0.2-2.9-0.4c1-2.2,2.8-3,5.4-3.1
		C17.8,80.5,19.4,83,18,85.7z M23.7,91.1l-0.4-0.3c0-0.7-0.1-1.3-0.4-1.8c-0.9-1.5-2.5-2.7-4.4-3.3c0.6-1.4,0.1-2.9-0.2-3.7
		c-0.6-1.3-2-1.8-3.3-2.3c-0.1-1.1-0.3-2.2-0.3-3.6c0-0.1,0-0.3,0-0.4c0.3,0.2,0.6,0.2,0.9,0.2c0,0.5,0,1,0.2,1.5
		c0.7-0.2,0.9-0.8,1.2-1.3c-0.1-0.2-0.1-0.3-0.2-0.5l-0.4-0.8c-0.3,0.2-0.4,0.5-0.5,0.7c-0.4,0-0.7,0-1.1,0c0.4-2.3,2.6-5.3,5.2-4.2
		c1.3,0.7,1.7,2.2,2,3.2c0.2,0.8,0.7,1.7,0.3,2.5c-1,0.3-2,0.1-3,0.1c0.1,0.1,0.3,0.3,0.4,0.4c1-0.1,2.1,0.2,3.1-0.4l0.6,2.6
		c-1.1,0.4-2.3,0.3-3.3-0.3c0-0.2,0-0.4-0.2-0.5c-0.1,0-0.2,0-0.2,0c0-0.6,0.1-1.2-0.4-1.6c-0.5,1.8,0.4,3.5,0.8,5.2l-0.9,0.1
		c0.1,0.9,0.8,1.5,1.6,2c0.3,0.2,0.4,0.2,0.2,0.6c-0.3,0.7,0.3,0.9,0.7,1.2c0,0.2,0.1,0.5,0.1,0.8c0.1,0.2,0.3,0.3,0.5,0.3
		c0.3,0.1,0.5,0.2,0.5,0.5c0.1,0.5,0.5,0.7,0.9,0.9c0,0.2,0.1,0.5,0.1,0.6c0.3,0.4,0.7,0.7,0.9,1.2C24.5,91,24.1,91,23.7,91.1z
		 M22.5,82.3c-0.2,0.1-0.4,0-0.6-0.1c-0.1-0.6-0.2-1.2-0.2-1.8C22.7,80.3,22.5,81.6,22.5,82.3z M21.3,82.3c-0.2,0-0.5,0-0.7,0
		c-0.2-0.7-0.3-1.5-0.5-2.2c0.4,0.1,0.9,0.1,1,0.6C21.3,81.2,21.3,81.8,21.3,82.3z M29.8,91.7c-1.1-0.4-2.3-0.6-3.5-0.9
		c-0.4-0.4-1.4-0.7-0.9-1.4l-0.1,0c-0.1-0.1-0.3-0.1-0.5-0.2c0.7-0.8-0.6-0.9-1.1-1c0.2-0.2,0.3-0.4,0.5-0.7c-0.5-0.3-1-0.4-1.5-0.5
		c-0.1-0.4,0.6-0.5,0.7-0.9c-0.5-0.3-1.1-0.4-1.6-0.6c0.5-0.3,1-0.5,1.3-1c-1-0.3-2.1-0.5-2.7-1.4c1.4-0.2,2.8-0.1,3.9,0.4
		c-0.3,1.4,0.1,3,1.3,4.7c0.3,0.5,0.9,1.3,1.6,1c-0.5-0.4-0.9-0.9-1.3-1.4h0c0.2,0,0.3-0.1,0.4-0.2c0.1-0.2-0.2-0.6-0.4-0.5
		c-0.2,0-0.3,0.1-0.3,0.2c-0.3-0.6-0.5-1.1-0.7-1.8c0.1,0.1,0.3,0.2,0.4,0.2c0.1,0,0.4-0.1,0.4-0.4c-0.3-0.1-0.6-0.2-0.9-0.3
		c-0.1-0.4-0.1-0.9-0.1-1.4c0.7,0.2,1.4,0.1,2.1,0.3c0.5,2.1,0.6,4.2,0.7,6.3c0.1,0.4,0,0.8,0.5,0.9c0-2.9-0.4-5.7-0.6-8.5
		c-0.1-0.9-0.1-1.7,0.1-2.4c0,0,0,0,0,0l0,0c0.3-1,1-1.7,2.3-2.1c0.4,0,0.7,0.1,1,0.1c0.3,1.3,1.1,2.5,1.7,3.6
		c0.1,0.1,0.1,0.2,0.2,0.3c0,0,0,0,0,0c0,0,0.1,0.1,0.1,0.1c0,0,0,0,0,0.1c0.1,0.1,0.1,0.2,0.1,0.4l0.1,0c0.2,0.3,0.4,0.5,0.6,0.8
		c0,0.1,0,0.2,0.1,0.3c-0.1,0.2-0.3,0.4-0.4,0.6c-0.7,0-1.5,0-2.3-0.2c-0.4-0.1-0.9-0.3-1.3,0c-0.9,0.5-0.8,1.6-0.7,2.5
		C29,88.3,29.4,90,29.8,91.7z M30.1,87.8c-1.2-1.1-0.7-2.8-0.5-3.5c1.3,0,2.6,0.6,3.9,0c0.2,1.2,0.6,2.4,0.5,3.7
		C32.9,88.7,31.1,88.8,30.1,87.8z M33.2,90.2L33.2,90.2c0,0.5-0.2,0.9-0.5,1.1c-0.2-0.8-0.3-1.5-0.5-2.1c0.2,0,0.6,0,0.8,0
		c0.1,0.3-0.1,0.9,0.4,0.8c0.1-0.3,0.2-0.6,0.1-1c0.3-0.1,0.6-0.2,0.9-0.3C34.4,89.4,33.9,90.2,33.2,90.2z M34.8,89
		c-0.3-1-0.3-2-0.4-3c-0.1-0.7-0.2-1.4-0.3-2.1c0.3,0.3,0.6,0.6,0.9,0.9v0c0.3,1.1,0.7,2.3,0.9,3.4C35.5,88.6,35.2,88.8,34.8,89z
		 M36.4,88.1c-0.2-0.8-0.5-1.7-0.7-2.5c0.9,0.7,1.9,1.4,3,1.8c0,0.2,0.1,0.3,0.1,0.5C37.9,87.8,37.1,87.9,36.4,88.1z M95.6,57.2
		c1.4,0.3,2.7,0.9,3.8,1.7c1,0.9,1.9,1.7,2.6,2.5c0.2,0.3,0.4,0.5,0.6,0.8c0.3,0.4,0.6,0.7,0.9,1.1c-0.7,0-1.4-0.2-2.1-0.3
		c-1-0.1-2-0.3-2.9-0.3c-2.1,0-4,0.1-5.9,0.3l0,0c-3.1,0.6-6.4,1.2-9.3,2.5c-0.6,0.3-1.3,0.6-1.9,0.9c-0.5,0.3-1.1,0.5-1.6,0.7
		l-0.1-0.3c-0.8-1.7-1.6-3.5-2.8-5.1c-0.7-1.1-1.7-2-2.5-2.7c-0.7-0.6-1.6-1-2.4-1.3c-0.2-0.1-0.3-0.1-0.5-0.2
		c1.5-0.4,3.1-0.5,4.8-0.3c1.9,0,3.8,0.3,5.7,0.6l0.2,0c0.5,0,1,0.1,1.5,0.2c0.8,0.1,1.6,0.3,2.4,0.2c0.2,0,0.3-0.1,0.4-0.2l0.1-0.1
		l-0.3-0.1c-0.1,0-0.2-0.1-0.3-0.1c0.7-0.2,1.4-0.3,2.2-0.2c0.1,0.2,0.3,0.5,0.4,0.7c0.2,0.2,0.3,0.5,0.5,0.7
		c0.1,0.2,0.2,0.4,0.3,0.6c0.2,0.3,0.4,0.7,0.6,1l0,0.1l0-0.1c0-0.1,0.1-0.2,0.2-0.2l0,0v-0.1l0.1,0c0.5,0.1,1.1,0.2,1.6,0.4
		c0.3,0.1,0.6,0.2,0.9,0.2h0l0,0c0.5-0.3,0.2-0.7,0-1.1c-0.1-0.1-0.2-0.3-0.2-0.4c0.8,0.2,1.5,0.5,2.2,0.9l0.1,0
		c0.3,0.2,0.6,0.2,0.9,0.2h0.1l0,0c0.2-0.5,0-0.9-0.3-1.4c-0.1-0.1-0.1-0.2-0.2-0.3c0.7,0,1.3,0.4,1.8,0.7c0.4,0.2,0.9,0.5,1.3,0.6
		l0.1,0l-0.1-0.1c-0.2-0.4-0.7-0.7-1.1-0.9c-0.1,0-0.2-0.1-0.3-0.2l0,0c-0.7-0.4-1.5-0.8-2.3-0.5l0,0v0c0,0.4,0.2,0.7,0.4,1.1
		c0.1,0.1,0.2,0.3,0.2,0.4c-0.4-0.1-0.8-0.3-1.2-0.5c-0.5-0.2-1-0.5-1.5-0.6c-0.2,0-0.6,0-0.7,0.1C92,59,91.9,59.1,92,59.3
		c0.1,0.2,0.2,0.4,0.4,0.7c0.1,0.1,0.1,0.2,0.2,0.3c-0.1,0-0.3-0.1-0.4-0.1c-0.5-0.2-1.1-0.4-1.7-0.3h0l-0.3,0.3c0-0.4,0-0.8,0-1.2
		c0-0.6,0-1.3,0-1.9c0.2,0,0.3,0,0.5,0C92.3,56.9,94,56.8,95.6,57.2z M87.7,54.3c0-0.3-0.1-0.6-0.1-1c0.2,0.4,0.5,0.8,0.8,1.2
		l0.1,0.1l0,0c0.1,0,0.2,0,0.3-0.1c0.2,0,0.4-0.1,0.6-0.1l0,0l0-0.2c0-0.2,0-0.3,0-0.5c0.2,0.1,0.4,0.3,0.5,0.6
		c0,0.3-0.1,0.6-0.1,0.9c-0.1,0.3-0.1,0.7-0.1,1c0,0.5-0.1,0.9-0.4,1.1c-0.1,0-0.1,0-0.2,0c-0.3,0-0.6-0.1-0.7-0.4
		c-0.3-0.4-0.6-0.7-1-1.1c-0.2-0.2-0.4-0.4-0.6-0.6c-0.2-0.2-0.2-0.5-0.1-0.8c0,0,0,0,0-0.1c0.1,0.1,0.2,0.2,0.3,0.3
		c0.2,0.2,0.4,0.4,0.7,0.5l0.1,0V55C87.7,54.8,87.7,54.6,87.7,54.3z M90.9,56.4c-0.2,0-0.4,0.1-0.7,0.2c0-0.6,0.1-1.2,0.3-1.8
		c0.1-0.3,0.1-0.5,0.2-0.8v0c-0.1-0.1-0.1-0.3-0.2-0.4c-0.3-0.9-0.7-1.8-0.9-2.8c0.5,0,1,0,1.5,0C91.9,52.4,91.9,54.5,90.9,56.4z
		 M90.1,45c0.4,0.1,0.8,0.5,1.1,0.8l0.2,0.2c0.6,0.5,0.9,1.4,0.8,2.3c-0.1,0.6-0.3,1.4-1,1.6l0,0c-0.6,0.2-1.3,0.4-1.8,0
		c-0.6-0.4-1.3-0.8-1.3-1.6c-0.1-0.5,0.2-1,0.5-1.4c0-0.1,0.1-0.2,0.1-0.2c0.1-0.2,0.3-0.4,0.5-0.6c0.1-0.1,0.2-0.2,0.3-0.4l0.1-0.1
		l-0.1,0c-0.3,0-0.6,0.2-0.8,0.4c-0.1,0.1-0.3,0.2-0.4,0.2c-0.1-0.3-0.3-0.6-0.4-1c-0.1-0.2-0.2-0.4-0.3-0.6
		C88.4,44.6,89.2,44.7,90.1,45z M87.5,45.9c0.1,0.3,0.2,0.6,0.3,0.8c-0.4,0.8-0.5,1.8-0.1,2.5c0.1,0.3,0.4,0.5,0.6,0.7
		c0.1,0.1,0.3,0.2,0.4,0.3c0.1,0.5,0.3,1,0.5,1.4c0.1,0.4,0.3,0.9,0.4,1.3c-0.2,0-0.3,0.1-0.5,0.2l0,0l0,0c0,0.1-0.1,0.2-0.1,0.3
		l-0.1,0.1c-0.2,0-0.3,0.1-0.5,0.2h0l0-0.1c-0.2-0.4-0.4-0.8-0.7-1.2l0,0h0c-0.1,0-0.3,0-0.4,0h0v0c0,0.4,0,0.9,0,1.3V54
		c-0.1-0.1-0.3-0.1-0.4-0.2l0,0h0c-0.1,0-0.2,0-0.4,0.1l-0.1-0.3c-0.1-0.6-0.3-1.2-0.5-1.7c-0.1-0.3,0-0.5,0.2-0.7
		c0.1-0.1,0.1-0.2,0.2-0.3c0.4-0.7,0.5-1.5,0.4-2.6c0.1,0.2,0.1,0.4,0.2,0.7c0.2,0.7,0.5,1.4,0.7,2.1c0.1,0.3,0.2,0.5,0.2,0.8
		c0.2,0.6,0.3,1.2,0.7,1.7l0,0.1l0-0.1c0.1-0.3,0-0.6,0-0.8c0-0.1,0-0.1-0.1-0.2c-0.4-1.4-0.9-2.9-1.3-4.2c-0.2-0.5-0.3-1.1-0.5-1.6
		c-0.2-0.6-0.4-1.3-0.7-1.8l-0.1-0.3c0.4-0.1,0.8-0.1,1.1-0.1C87.2,45,87.4,45.5,87.5,45.9z M84.6,46.5c-0.5,0-0.5-0.6-0.5-1.1
		c0.4-0.3,0.8-0.5,1.3-0.7c0.2,0.4,0.4,0.9,0.5,1.5c0.1,0.5,0.3,1,0.5,1.5C86.1,47.1,85.4,46.6,84.6,46.5z M86.9,43.5
		c0.1,0,0.2,0.1,0.2,0.2c0.1,0.1,0.1,0.2,0,0.4c-1.2-0.1-2.3,0.3-3,0.8c-0.1,0.1-0.2,0.2-0.3,0.3c-0.1,0.1-0.3,0.3-0.4,0.3
		c-0.1-0.1-0.1-0.3-0.1-0.4c0-0.2,0.1-0.3,0.2-0.4c0.7-0.8,1.8-1.1,2.8-1.1C86.5,43.4,86.7,43.4,86.9,43.5z M83.3,42.8
		c0.2-0.1,0.4-0.2,0.6-0.3c0.6-0.4,1.2-0.8,1.9-0.6c0.3,0.2,0.3,0.6,0.3,0.9c0,0.1,0,0.1,0,0.2c-1,0-1.9,0.4-2.6,0.8
		C83.3,43.4,83.3,43.1,83.3,42.8z M81.7,40.9c0-0.2,0.1-0.4,0.2-0.6c1-0.9,2.2-1.4,3.2-1.2c0.3,0.3,0.3,0.6,0.3,1c0,0.1,0,0.1,0,0.2
		c-1,0.2-2.1,0.6-2.9,1.4l-0.1,0C82.1,41.4,81.8,41.2,81.7,40.9z M82.5,43C82.5,43,82.5,43.1,82.5,43c-0.2-0.4,0.1-0.9,0.6-1.1
		c0.8-0.5,1.6-0.9,2.5-0.9c0.3,0,0.5,0,0.8,0.1l0,0.1c0,0.1,0.1,0.3,0.1,0.4c-0.4-0.3-0.9-0.5-1.4-0.3c-0.8,0.1-1.4,0.6-2.1,1.1l0,0
		C82.8,42.5,82.7,42.8,82.5,43z M77.3,50.1c0.4-0.7,0.9-1.4,1.4-2c1.3-1.5,2.6-2.4,4-2.9c0.1,0.3,0.3,0.4,0.6,0.6
		c0.3,0.2,0.6,0.4,0.6,0.8c-0.8,0.3-1.6,0.8-2.3,1.3c-0.3,0.2-0.5,0.4-0.8,0.6l-0.1,0.1l0.1,0c0.5,0.1,0.9-0.1,1.3-0.3l0.1-0.1
		c0.2-0.1,0.4-0.3,0.6-0.4c0.5-0.3,0.9-0.6,1.5-0.7c0.5-0.1,1.2,0.1,1.4,0.7c0.5,1.2,0.1,2.7-0.8,3.6c-0.3,0.3-0.7,0.5-1,0.8
		c-0.3,0.2-0.6,0.4-0.9,0.7L83,53l0.1,0c0.5,0.1,1-0.1,1.4-0.4c0.1-0.1,0.3-0.2,0.4-0.2c0,1.3-1.1,2.3-1.6,2.6
		c-0.2,0.1-0.3,0.3-0.6,0.5l0,0.1l0.1,0c0.4,0.1,0.7-0.1,1-0.3c0.1-0.1,0.2-0.1,0.3-0.2c0.8-0.5,1.3-1.4,1.4-2.3
		c0,0.2,0.1,0.5,0.1,0.7c0.1,0.6,0.2,1.2,0.4,1.7l0,0c0.2,0.3,0.5,0.6,0.7,0.8c0.3,0.2,0.5,0.5,0.7,0.8c-0.4,0.1-0.8,0.1-1.2,0.2
		c-0.6,0.1-1.2,0.2-1.7,0.3c-0.5,0.1-1,0-1.5-0.1c-0.2,0-0.4-0.1-0.6-0.1c-0.5-0.1-1-0.2-1.4-0.2c-0.8-0.1-1.6-0.3-2.4-0.3l-0.6-0.1
		c-0.8-0.1-1.6-0.2-2.3-0.1h-0.4c-0.4,0-0.9,0-1.3,0.2c-0.2,0.1-0.5,0.1-0.7,0.1c0,0,0,0-0.1,0c0.1-0.1,0.3-0.1,0.4-0.2v-0.1
		c0.4-0.1,0.8-0.4,1.1-0.8c0.1-0.2,0.2-0.3,0.3-0.5C76.2,53.7,76.8,51.7,77.3,50.1z M71.5,29.6c-0.1,0.6-0.1,1.1-0.3,1.7
		c-0.3,0.9-1,1.7-1.9,2.1c-0.7,0.3-1.4,0.6-2.2,0.7c-1,0.2-2.2,0.2-3.2-0.1c-0.4-0.5-0.8-1-1.4-1.5c-0.6-0.5-1.2-0.9-1.8-1.1
		c0,0,0,0,0-0.1c-0.1-0.1-0.1-0.2-0.2-0.3h0c0.1,0,0.2,0,0.3,0.1c0.8,0.1,1.6,0.3,2.4,0.5c-0.4-0.4-0.9-0.5-1.4-0.7
		c1.9,0,2.9,0.6,4.5-0.8c-0.1,0.6-0.4,1-0.6,1.6c0.6-0.5,0.9-1.3,1.4-2c0,0.9-0.6,1.6-1,2.3c0.7-0.4,1-1.1,1.5-1.7
		c-0.1,0.6-0.5,1.1-0.7,1.6c1.4-0.9,1.8-2.4,2.2-3.9c0.3-1.1,1.6-0.8,2.3-0.4c-2.1-3.9-6.6-1-9.5,0.3c-0.8,0.3-1.6,0.7-2.5,0.8
		c0-0.3,0-0.6,0-0.9c0.1-0.5,0.4-1,0.8-1.3c0.6-0.5,1.3-0.9,2-1.2c1.2-0.5,2.4-0.8,3.7-1c0.6-0.1,1.2-0.1,1.8-0.2
		c0.6,0,1.3,0,1.9,0.1c0.4,0.1,0.8,0.2,1.1,0.5c0.4,0.3,0.6,0.7,0.7,1.1C71.6,27.1,71.6,28.4,71.5,29.6z M61.9,29.4
		c0.2-0.3,0.5-0.5,0.8-0.6c1.1-0.5,2.2-1,3.3-1.5c0.3-0.1,0.6-0.3,0.9-0.2c0.3,0,0.3,0.4,0.2,0.6c-0.4,0.8-1.1,1.3-1.9,1.7
		c-0.9,0.4-1.9,0.6-2.8,0.5C62.3,29.8,61.9,29.7,61.9,29.4z M59.4,31c-0.5-0.1-0.9-0.1-1.4-0.1c-1.6,0.1-3.1,0.7-4.3,1.6
		c0-0.3,0.1-0.6,0.1-0.8c0-0.3,0.1-0.7,0.2-1c0.8-0.5,2.4-1.2,2.4-1.2c1-0.3,2.1,0.3,2.5,0.6C59.1,30.4,59.2,30.7,59.4,31z
		 M38.3,29.5c0-0.5,0.1-1,0.2-1.5c0.1-0.3,0.1-0.6,0.2-0.8c0-0.1,0-0.2,0-0.3c0.1,0,0.1,0,0.2,0c0-1.1,0-2.1,0.2-3.1
		c0-0.1,0-0.3,0.1-0.5c0.1-0.1,0.1-0.3,0.2-0.4c-0.1-0.1-0.1-0.2-0.2-0.3c0.3-0.2,0.7-0.5,0.8-0.6c0.3-0.2,0.5-0.5,0.8-0.7
		c0.2-0.2,0.8-0.5,0.9-0.8c0-0.1,0-0.1,0.1-0.1c0-0.1-0.3-0.2-0.4-0.3c0,0,0,0,0,0c0,0-0.1,0-0.1,0c-0.3-0.1-0.6-0.3-0.9-0.6
		c0.1,0.2,0.3,0.4,0.5,0.6c-0.1,0-0.2,0-0.3,0c-0.4-0.2-0.8-0.5-1.2-0.9c-0.2-0.2-0.3-0.4-0.5-0.6c0.1,0.5,0.4,1,0.7,1.5
		c-1.3-0.8-1.8-2.3-2.1-3.6c-0.1,0.6,0.1,1.2,0.2,1.9c-0.5-0.9-0.6-1.9-0.5-2.9c0-0.1-0.1-0.2-0.1-0.3L37,15.3
		c0.2-0.6,0.6-1.1,1.2-1.6c0.2-0.1,0.4-0.2,0.6-0.1c1.5-0.8,3.8-0.5,5.1,0.6c0.2,0,0.3,0.1,0.5,0.1c0.1,0,0.2,0.1,0.3,0.1
		c0.1-0.1,0.1-0.2,0.1-0.3c0.3,0.6,0.6,1.2,0.9,1.7c0.1-0.1,0.3-0.2,0.5-0.2c0-0.2,0-0.4-0.1-0.6c1-0.8,2.3-1.2,3.6-1.5l0.2,0.2
		c0.3-0.3,0.7-0.5,1.1-0.7c0.2-0.1,0.4-0.1,0.7-0.1c0,0,0,0-0.1,0c3-1,6.3-1.4,9.5-0.7c0.1,0.2,0.1,0.4,0.2,0.7
		c0.1-0.1,0.3-0.2,0.5-0.2h0.1c0-0.2,0.1-0.3,0.1-0.5c0.2,0,0.5-0.1,0.7-0.1c0-0.2,0-0.6,0-0.8c1-1.1,2-2.6,3.7-2.6
		c0.7-0.1,1.3,0,2,0.3c0,0,0,0-0.1,0.1c-0.1,0-0.2,0-0.2,0c0.3,0.3,0.6,0.6,0.9,0.9c0,0,0,0.1,0,0.1c0.2,0.2,0.3,0.5,0.4,0.8
		c-0.1-0.2-0.3-0.3-0.4-0.4c0,0.1,0,0.2,0,0.3c0.3,1,0.4,2,0.1,3c0-0.6,0-1.3-0.2-1.9c0,1.4-0.3,2.9-1.4,3.9c0.2-0.5,0.4-1,0.4-1.6
		c-0.2,0.2-0.3,0.5-0.4,0.7c-0.3,0.4-0.6,0.8-1,1c-0.1,0-0.2,0-0.3,0c0.2-0.2,0.3-0.5,0.4-0.7c-0.2,0.3-0.4,0.5-0.7,0.7
		c0,0-0.1,0-0.1,0c0,0,0,0,0,0c-0.1,0.1-0.3,0.3-0.4,0.4c0,0,0,0.1,0.1,0.1c0.1,0.3,0.7,0.4,1,0.6c0.3,0.2,0.6,0.4,0.9,0.5
		c0.3,0.2,1.1,0.6,1.6,0.6l-0.3,0.4c0.2,0.1,0.3,0.2,0.5,0.3c0.1,0.1,0.1,0.3,0.2,0.4c0.5,1,0.9,2,1.3,2.9c0,0,0,0,0.1,0
		c0.2,0.3,0.3,0.6,0.4,0.9c-0.2-0.1-0.3-0.1-0.5-0.2c0.1,0.1,0.3,0.3,0.4,0.4c-0.1,0-0.2,0-0.3,0c-0.7,0-1.3,0-2,0
		c-0.9,0-1.9,0.1-2.8,0.3c-1.2,0.3-2.3,0.7-3.5,1c-1.2,0.4-2.3,1-3.4,1.4c-0.8,0.3-4.3,1.3-5.2,1.5c-0.2,0-0.3,0-0.5,0.1
		c-1.5,0.1-3.1,0.1-4.6,0.1c0,0,0,0,0,0c-2.1,0.1-4.3,0.2-6.3,0.9c0,0,0,0.1,0,0.1c-0.3,0.1-0.7,0.2-1,0.4c-0.3,0.1-0.6,0.3-0.9,0.4
		l-1.8,0.3v-0.4c0,0.1-0.1,0.3-0.1,0.4l-0.3,0C38.3,29.6,38.3,29.5,38.3,29.5z M50.6,30.3c-3-0.3-8-1.7-8.7,2.7
		c0.6-0.6,1.6-1.2,2.2-0.3c0.8,1.3,1.6,2.7,3.2,3.1c-0.4-0.4-0.9-0.8-1.2-1.3c0.6,0.4,1.1,1,1.8,1.2c-0.6-0.6-1.3-1.1-1.6-1.9
		c0.6,0.5,1.1,1.2,1.8,1.5c-0.3-0.4-0.7-0.8-1-1.3c1.9,0.9,2.6,0,4.3-0.6c-0.4,0.4-0.8,0.7-1.1,1.1c0.7-0.4,1.3-0.9,2-1.2
		c0.1-0.1,0.2-0.1,0.3-0.2c0,0,0.1,0,0.1-0.1c0,0.2-0.1,0.4-0.1,0.6c-0.6,0.6-1,1.3-1.2,2.1c0,0.2-0.1,0.4-0.1,0.6
		c-0.3,0.4-0.6,0.7-1,0.9c-1.2,0.8-2.6,1.2-4.1,1.2c-0.3,0-0.7,0-1,0c-0.6-0.1-1.2-0.3-1.7-0.7c-0.5-0.3-0.9-0.8-1.1-1.3
		c-0.6-1.1-1.2-2.3-1.5-3.6c-0.1-0.4-0.2-0.9-0.1-1.3c0.1-0.5,0.4-1,0.8-1.3c0.6-0.5,1.3-0.7,2-1c1.3-0.4,2.7-0.8,4-1
		c0.3,0,0.6-0.1,1,0c0.8,0,1.5,0.1,2.3,0.2c0.6,0.1,1.1,0.4,1.5,0.8c0.3,0.3,0.5,0.8,0.6,1.2C52.3,30.4,51.4,30.4,50.6,30.3z
		 M50.9,31.8c0.1,0.3-0.2,0.4-0.4,0.5c-0.8,0.4-1.8,0.5-2.7,0.4c-0.8-0.1-1.6-0.4-2.2-1c-0.2-0.2-0.3-0.5,0-0.6
		c0.3-0.1,0.6-0.1,0.9,0c1.1,0.1,2.3,0.3,3.4,0.4C50.3,31.5,50.7,31.5,50.9,31.8z M41.2,46.9c-0.2-0.2-0.3-0.3-0.5-0.5
		c-1.3-1.1-1.8-2.7-2.6-4.1c-0.9-1.9-0.9-4.1-0.7-6.2c-0.9,0.3-1,1.3-1.3,2.1c-0.1-0.7,0.1-2.2,0.3-3.1c0,0,0,0,0.1,0
		c0.1-0.9,0.3-1.9,0.7-2.6l1.4-0.4c0.1,0.1,0.3,0.2,0.4,0.2c0.4,0.2,0.7,0.6,1,1c0.3,0.6,0.6,1.3,1,1.9c0.3,0.6,0.6,1.3,1.1,1.9
		c0.6,0.8,1.5,1.3,2.5,1.6c1.3,0.4,2.8,0.3,4.1-0.1c0.8-0.2,1.6-0.6,2.3-1.1c0.1,0,0.1-0.1,0.2-0.1c-0.4,1.3-0.3,2.7,0.3,4.1l0.6,0
		c0-0.1-0.1-0.2-0.1-0.3c-0.3-0.8-0.6-1.8-0.5-2.7c-0.1-0.4-0.1-0.9,0-1.3c0.3-0.3,0.6-0.6,0.9-0.9c0.6-0.7,0.9-1.6,1.2-2.5
		c0,0,0.1-0.1,0.1-0.1c0,0,0.1,0,0.1,0c0,0,0-0.1,0-0.1c1.2-1,2.7-1.6,4.4-1.7c0.6-0.1,1.3,0,2,0.1c0.3,0.3,0.5,0.6,0.8,0.9
		c-0.4-0.2-0.9-0.2-1.3,0c-1.1,0.2-5.1,0.6-5.9,0.8c0,0.1-0.1,0.3-0.3,0.5c-0.6,1.1,3.3,5.1,4.9,4.9c1.6-0.3,2.9-2.5,3.6-4.6
		c0-0.3,0-0.6-0.2-0.9c0.5,0.4,1,0.7,1.6,1c0.3,0.1,0.7,0.3,1.1,0.3c0.6,0.7,1,1.5,1.3,2.3c-0.2-0.8-0.5-1.6-0.9-2.3
		c0.2,0,0.3,0,0.5,0c0.5,0,1.1-0.1,1.6-0.1c1.4-0.2,2.8-0.7,3.9-1.5c0.6-0.4,1.1-1,1.3-1.8c0.4-1.5,0.6-3.1,0.7-4.7
		c0-0.6,0.4-1.1,0.7-1.6l0.4,0.4v0c0.2,0.2,0.4,0.3,0.6,0.5l0.6,0.5c0.8,1.5,2.2,4.8,2.4,6.5c0.3,2.4-0.6,3.8-1,6.2
		c-0.1,0.1-0.4,0.3-0.6,0.4c-0.3,0.5-0.5,1.1-0.7,1.7c-0.1,0-0.2,0-0.3,0l-0.1,0.4c-0.2,0-0.3,0-0.3,0l-1.2,1.5l-3.9,3.1
		c-0.5,0.3-1,0.6-1.4,1c-0.2,0.2-0.4,0.4-0.5,0.6l-0.3,0.3c0,0,0-0.1,0-0.2h0c0,0,0,0,0,0.1c-0.1,0.1-0.3,0.1-0.4,0.1
		c-1,0.3-2.1,0.4-3.2,0.6c-0.5,0-0.9,0.1-1.4,0.2c-0.2,0-0.5,0.1-0.7,0.1c-0.2,0-0.4,0-0.6,0.1c-0.1,0-0.2,0.1-0.2,0.2
		C60.2,49.7,60,50,60,50.2c-0.1,0.6,0,1.2,0.1,1.8c0,0.2,0.1,0.3,0.1,0.5c-0.4,0.1-0.9,0.3-1.3,0.4c-0.4-0.5-0.7-1.1-0.9-1.7
		c-0.2-0.5-0.3-1-0.3-1.6c-0.6,0-1.2,0.1-1.7,0.3c-0.1-0.3-0.4-0.5-0.7-0.4c-1.4,0.3-2.8,0.3-4.1,0.1L51,49.1
		c-0.8,0.2-1.6,0.2-2.4-0.1c-0.9-0.3-1.8-0.8-2.7-1.1c-1-0.3-2.1-0.2-3-0.7c-0.3-0.2-0.5-0.3-0.7-0.6c0,0,0-0.3-0.5,0
		C41.7,46.7,41.5,46.8,41.2,46.9z M61.4,56.5c0,0.2-0.3,0.3-0.4,0.1c-0.3-1-0.8-1.8-1.4-2.6c-0.1-0.1-0.1-0.2-0.2-0.3
		c0.3-0.1,0.7-0.3,1.1-0.4C60.8,54.4,61.2,55.4,61.4,56.5z M41.4,74.1c-0.9-1.5-1.6-3.1-2.2-4.7c0,0,0,0,0-0.1
		c2-1.9,4.5-3.2,7.1-4.3c0.7-0.3,1.4-0.5,2.1-0.8c0.5-0.2,1-0.5,1.6-0.6c1,0.4,2.1,0.9,2.9,1.8c-1,0.3-1.9,0.7-2.6,1.2
		c-0.9,0.6-1.9,1.2-2.1,2.3l0,0.1l0.1-0.1c0.3-0.2,0.6-0.4,0.8-0.7c0.3-0.3,0.7-0.6,1.1-0.9l0,0c0.9-0.5,1.8-1.1,2.7-1.4
		c0.3-0.1,0.7-0.2,1-0.2c0.2,0.1,0.5,0,0.7-0.1c0.2,0,0.3-0.1,0.5-0.1l0,0l0-0.4h0c-0.1,0-0.2,0-0.3,0v0c0-0.2,0-0.5,0.1-0.7
		c0.6-0.8,1.4-1.4,2.3-1.5c0.5,0,1.1,0,1.6,0.4c0.6,0.5,0.8,1.4,0.8,2.3c-0.1,0-0.3,0-0.4-0.1c-0.2,0-0.4-0.1-0.6-0.1l-0.1,0
		l0.2,0.4l0,0c0.3,0.1,0.5,0.2,0.8,0.3c0.3,0.1,0.7,0.3,1,0.4c1.7,1,2.6,2.7,3.2,4c0.3,0.9,0.5,1.8,0.3,2.6l0-0.1
		c-0.1-0.2-0.2-0.4-0.5-0.5l-0.1,0l0,0.1c0,0.2,0,0.3,0.1,0.5c0.1,0.6,0.2,1.3,0.1,1.9c-0.2-0.1-0.3-0.3-0.5-0.5
		c-0.2-0.2-0.3-0.4-0.6-0.6c-1.6-1.3-3.5-1.9-5.3-1.9c-2.7,0-4.9,1.3-6.4,2.3c-1.5,1.1-2.5,2.4-3.2,3.7c-0.1,0.2-0.2,0.4-0.3,0.6
		c-0.1,0.3-0.2,0.6-0.4,0.9c-0.5-0.4-1-0.8-1.5-1.2c0-0.3-0.3-0.5-0.6-0.5c-0.2-0.2-0.4-0.4-0.6-0.5C43.2,76.7,42.3,75.4,41.4,74.1z
		 M61.7,96.6c-0.2,0.1-0.4,0.1-0.6,0.2c-0.2,0-0.3,0.1-0.5,0.1c-1.9,0.6-3.8,1.5-5.6,2.4c-0.8-0.2-1.6-0.5-2.4-1.1l-0.5-0.4
		c-1-0.7-2.1-1.5-2.8-2.5c-0.8-0.8-1.3-2-1.5-2.8c-0.1-0.3-0.2-0.6-0.2-0.9c-0.1-0.5-0.2-1-0.4-1.5l0,0l-0.5-0.3l0,0.1
		c-0.1,0.8,0.1,1.6,0.3,2.4c0,0.1,0.1,0.3,0.1,0.4c0.1,0.5,0.3,1,0.6,1.5c-0.7-0.4-1.3-0.9-2-1.3c-0.2-0.2-0.4-0.3-0.7-0.5
		c-0.2-0.1-0.3-0.3-0.5-0.4c-0.6-0.6-1.3-1.1-1.9-1.8c-0.2-0.2-0.4-0.5-0.5-0.7c0.1,0,0.2-0.1,0.2-0.2c1.7-3,2.8-6.3,3.2-9.8
		c0.4,0.3,0.8,0.7,1.3,1c0,0.3,0,0.6-0.1,0.9c0,0.2-0.1,0.4-0.1,0.6c-0.2,1.3,0,2.6,0.2,3.6l0,0l0,0c0.1,0,0.2,0.1,0.2,0.1l0.1,0
		v-0.1c0-0.2,0-0.4-0.1-0.6c0-0.3-0.1-0.6,0-0.9c0-0.3,0.1-0.6,0.1-1c0.1-0.8,0.2-1.7,0.5-2.5c0.1-0.2,0.2-0.5,0.3-0.7
		c0.3-0.8,0.6-1.7,1.2-2.3c0.9-1.2,2-2.3,3.3-3c0.2-0.1,0.4-0.2,0.6-0.3c0.7-0.4,1.4-0.7,2.2-0.9c2-0.5,4-0.3,5.7,0.7
		c0.9,0.5,1.6,1.1,2.1,1.8c0.1,0.1,0.1,0.2,0.2,0.3c0.8,1.2,1.6,2.5,1.8,4c0.1,0.4,0,0.9-0.1,1.3c-0.1,0.2-0.3,0.1-0.5,0.1
		c-0.1,0-0.2,0-0.3,0h0l0,0c-0.2,0.4-0.2,0.8-0.3,1.1c-0.1,0.3-0.1,0.7-0.2,1c-0.4,1.1-0.8,2-1.4,2.8c-0.2,0.3-0.4,0.5-0.6,0.7
		c-0.2,0.2-0.3,0.3-0.5,0.5l0,0.1l0.1,0c0.2,0,0.3,0.1,0.5,0.1c0.4,1.3,0.8,2.6,0.8,4C62.4,93.4,62.4,95.1,61.7,96.6z M77,86.4
		l-0.4,0.1c-1.2,0.1-2.6,0.3-4,0.7c-3.5,0.5-6.5,1.2-9.4,2.1c-0.2,0-0.3,0.1-0.5,0.1c-0.1-0.2-0.1-0.5-0.2-0.7
		c-0.1-0.4-0.2-0.8-0.4-1.2c0.9-0.8,1.4-1.9,1.9-3.1c0.2-0.5,0.3-1,0.4-1.6c0-0.2,0.1-0.4,0.1-0.6c0.5,0,1.1-0.1,1.2-0.7
		c0.3-1.5-0.3-3-0.8-3.9c-0.1-0.2-0.2-0.4-0.3-0.6c-0.1-0.2-0.3-0.5-0.4-0.7c0-0.3,0-0.5,0.1-0.8c0-0.3,0.1-0.6,0-0.9
		c0-0.2,0.1-0.4,0.2-0.6c0.1-0.2,0.2-0.3,0.2-0.5c0.3-1.9-0.7-3.7-1.6-4.9c-0.6-0.8-1.4-1.6-2.4-2.2c0.1-0.3,0.3-0.5,0.4-0.8
		c0.1-0.1,0.1-0.3,0.2-0.4c0.3-0.7,0.7-1.3,1.1-2c0.6-0.9,1.2-1.8,2-2.5c0.4-0.2,0.7-0.4,1-0.6c0.8-0.5,1.6-1.1,2.5-1.6
		c1.1-0.4,2.2-0.6,3.3-0.4l0.2,0.1c1,0.4,1.9,0.8,2.7,1.6c1.9,1.7,3,4,3.9,5.8c0.1,0.2,0.2,0.5,0.3,0.7c0.2,0.5,0.5,1,0.9,1.4l0,0
		l0,0c0.7-0.2,1.3-0.5,2-0.8c0.6-0.3,1.3-0.6,2-0.8c0.9-0.3,1.9-0.7,3.2-1.1c0.3-0.1,0.6-0.1,0.8-0.1c-0.8,1.1-1.7,2.2-2.3,3.4
		c-1.3,2.5-2.7,5.1-3.8,7.8l0,0.1c-0.6,1.6-1.2,3.2-1.4,4.9c0,0.4,0,0.8-0.1,1.1c0,0.5-0.1,1.1-0.1,1.6c0,0.5,0.1,0.9,0.1,1.4
		c0.1,0.3,0.1,0.7,0.1,1C79.1,86.1,78.1,86.3,77,86.4z M101.9,80.9c-0.7,0.6-1.6,1.1-2.4,1.5l-0.2,0.1c-0.1,0.1-0.3,0.1-0.4,0.2
		c-0.3,0.1-0.6,0.3-0.9,0.5l-0.1,0.1l0.1,0c0.2,0,0.5,0,0.7,0.1c-0.2,0.9-0.5,1.8-0.9,2.7c-1,1.9-2.1,3.5-3.3,4.8
		c-2.6,0-4.8,0.3-6.8,0.9c-0.1,0-0.3,0.1-0.4,0.1c-0.2,0.1-0.4,0.2-0.6,0.2c-0.4-0.3-0.9-0.7-1.2-1.2c-0.6-0.8-1.3-1.9-1.6-3.1
		c-0.3-1.2-0.3-2.5-0.3-3.8c0-0.3,0-0.6,0-0.9c0-0.1,0-0.2,0-0.3c0-0.2,0-0.5,0-0.7l0-0.1L83.5,82c-0.2,0.3-0.4,0.6-0.4,1
		C83,83.6,83,84.2,83,84.8v0.3c-0.7-0.6-1.5-1-2.4-1.3c0-0.7,0-1.5,0.1-2.2c0-0.3,0.1-0.6,0.1-0.9c0.5-2.5,1.5-5,3-8.1
		c0.3-0.7,0.7-1.4,1-2.1c0.4-0.7,0.7-1.4,1.1-2.2c0.1,0,0.2,0,0.3,0c0.4,0,0.8,0,1.3,0c0.8,0.2,1.3,0.6,1.7,1.1
		c-0.2,0.2-0.4,0.4-0.6,0.6c-0.4,0.5-0.9,1-1.3,1.5c-0.8,1.1-1.7,2.6-2,4.3c0,0.2-0.1,0.4-0.1,0.5c-0.1,0.4-0.2,0.9-0.1,1.3l0,0.2
		l0.1-0.4c0.3-1,0.6-2,1.1-3c0.6-1.1,1.3-2.3,2.2-3.4l0.1-0.1c0.7-0.8,1.5-1.6,2.5-2.1c1.7-1,3.8-1.6,6.2-1.6c1.3,0,2.5,0.3,3.3,0.8
		c0.2,0.1,0.3,0.2,0.3,0.4h0c-0.3,0-0.6,0-1,0l-0.1,0l0,0.1c0.2,0.3,0.5,0.5,0.8,0.6c0.1,0,0.3,0.1,0.4,0.1c0.9,0.4,1.6,0.9,2.1,1.4
		c0.5,0.7,0.8,1.6,1.1,2.5c0,0.1,0.1,0.2,0.1,0.3C105.1,76.3,104.1,79.2,101.9,80.9z"/>
	<path class="st0" d="M70.6,13c0,0.3,0,0.6,0,0.8c0-0.1,0-0.1-0.1-0.2C70.5,13.3,70.5,13.1,70.6,13z"/>
	<path class="st0" d="M75.3,26.9l0.1,0.1c-0.1,0.1-0.2-0.1-0.2-0.2C75.2,26.9,75.3,26.9,75.3,26.9z"/>
	<path class="st0" d="M62.9,33.5c-0.3-0.2-0.7-0.4-1-0.7C62.3,33,62.6,33.3,62.9,33.5z"/>
	<path class="st0" d="M51,15.8c0.5,0,1-0.1,1.4-0.3C52,15.6,51.5,15.7,51,15.8z"/>
	<path class="st0" d="M41.3,25.3c0.5,0,1-0.2,1.5-0.1c2.5,0.4,5.2,0,7.7-0.4c0.5-2-1.4-1.2-2.2-1.3c-2.3,0.2-4.6-0.1-6.9-0.4
		c-0.4-0.1-0.7,0.3-0.9,0.5C40.4,24.3,40.8,24.9,41.3,25.3z"/>
	<path class="st0" d="M54.7,41.7c2-0.2,3.9-0.6,5.9-1.1c0.9-0.3,2.9-0.5,2.7-1.4c0-0.3-0.7-0.2-0.8,0c0.1,0.5-0.6,0.5-1.1,0.7
		c-0.7,0.2-1.5,0.4-2.2,0.6c-1.5,0.3-2.9,0.6-4.4,0.7C54.3,41.3,54.2,41.8,54.7,41.7z"/>
	<path class="st0" d="M60.5,43.3c-0.8-0.8-2.1-0.4-3.1-0.2C58.3,43.8,59.5,43.5,60.5,43.3z"/>
	<path class="st0" d="M59.1,47.1c1.6-0.2,2.9-1,3.9-2.1c-0.9,0.9-2.1,1.6-3.6,1.8c-2.2,0.2-4.1-1-5.5-2.7c-0.1,0.2-0.2,0.3-0.3,0.4
		C55.1,46.2,57,47.3,59.1,47.1z"/>
</g>
</svg>
