<?xml version="1.0" encoding="utf-8"?>
<!-- Generator: Adobe Illustrator 25.3.1, SVG Export Plug-In . SVG Version: 6.00 Build 0)  -->
<svg version="1.1" id="Capa_1" xmlns="http://www.w3.org/2000/svg" xmlns:xlink="http://www.w3.org/1999/xlink" x="0px" y="0px"
	 width="213.3px" height="189.7px" viewBox="0 0 213.3 189.7" style="enable-background:new 0 0 213.3 189.7;" xml:space="preserve"
	>
<style type="text/css">
	.st0{fill:#FF0000;}
</style>
<g>
	<g>
		<g>
			<path d="M110.7,29.8c2.6-2.6,6.4-5.1,9.6-3.9c2.6,4.5,3.2,9,4.5,13.5c4.5,0,9.6-0.6,14.1,0c4.5,0.6,6.4,5.1,9.6,7.7
				c5.1,5.8,12.2,8.3,18.6,12.2c2.6,1.3,5.1,3.2,5.1,6.4c0.6,7.1-3.2,15.4-10.3,18c-7.7,3.2-16-0.6-23.7-1.3c-1.9,0-5.1-0.6-5.8,1.9
				c-3.9,10.9,0.6,23.1,9,30.2c5.1,4.5,12.2,8.3,12.8,16c0,7.1-3.2,13.5-5.1,20.5c2.6,1.3,5.1,3.2,7.1,5.1c1.9,3.2,1.9,6.4,2.6,10.3
				c3.2,1.3,7.7,1.9,9,5.1c0.6,3.2,0.6,7.1,0.6,10.9c3.9,0,7.7,0,11.6,1.9v3.9c-3.2,0.6-6.4,1.3-9.6,1.3c-33.4,0-66.1,0-99.4,0
				c-4.5,0-9.6,0.6-14.1-1.3c0-1.3,0-3.2,0-4.5c3.9-1.3,8.3-1.3,12.2-1.3c0-3.9,0-7.7,1.3-10.9c1.3-3.9,5.8-3.9,9-5.1
				c0.6-3.2,0.6-7.1,2.6-10.3c1.9-1.9,4.5-3.2,7.1-5.1c-7.1-14.1-10.3-30.2-8.3-45.6c1.9-21.8,10.9-41.7,22.5-59.7
				C106.2,41.4,106.2,35,110.7,29.8z M109.4,48.5c-9,13.5-16,28.2-19.9,44.3c-5.1,19.9-3.2,41.7,7.1,59.7c15.4,0,30.2,0,45.6,0
				c1.9-6.4,4.5-12.8,5.8-19.3c0-5.1-5.8-7.7-9-10.9c-12.9-9.7-18.7-28.9-10.3-43c-3.2-2.6-6.4-5.1-7.7-9c0-2.6,3.2-4.5,5.1-1.9
				c3.9,3.9,8.3,7.7,14.1,9c6.4,1.3,12.8,3.2,19.3,1.9c5.1-1.3,6.4-7.1,7.7-11.6c-7.7-3.9-15.4-7.1-21.2-13.5
				c-2.6-2.6-4.5-5.1-6.4-7.7c-5.1-0.6-10.9,0.6-16,0c-4.5-1.9-4.5-8.3-6.4-12.2C112.6,38.2,112,44,109.4,48.5z M85.8,167.7
				c21.8,0,44.3,0,66.1,0c0-3.9-0.6-9-5.1-8.3c-18.6,0-36.6,0-55.2,0C86.4,158.7,85.8,163.9,85.8,167.7z M76.1,174.8
				c0,3.2,0,5.8,0,9c28.2,0,57.1,0,85.3,0c0-3.2,0-5.8,0-9C133.1,174.1,104.3,174.8,76.1,174.8z"/>
		</g>
		<path class="st0" d="M81.9,41.4c0-5.8,7.1-5.8,11.6-5.8c3.2,2.6,4.5,6.4,5.1,10.3c-0.6,1.3-1.9,2.6-3.2,3.2
			c-1.3-0.6-2.6-1.9-3.9-2.6c-2.6,5.1-4.5,10.9-9.6,14.1c-4.5,2.6-8.3-1.9-11.6-4.5c-2.6,6.4-4.5,13.5-7.7,19.9
			c-1.3,3.2-5.8,5.1-9,4.5c-1.9-0.6-3.2-1.9-5.1-3.2c-3.2,2.6-5.8,7.7-10.9,6.4c-6.4-0.6-7.7-8.3-9.6-13.5c-1.9-2.6,1.3-6.4,4.5-4.5
			c2.6,3.9,4.5,8.3,6.4,12.2c2.6-2.6,4.5-6.4,8.3-7.1c3.8-0.7,6.4,1.9,9.6,3.9c2.6-6.4,4.5-13.5,7.7-19.9c1.3-2.6,3.9-5.1,7.1-4.5
			c3.2,0,5.8,3.2,8.3,5.1c1.9-3.2,3.9-7.1,5.8-10.3C84.5,43.3,83.2,42.7,81.9,41.4z"/>
		<g>
			<path d="M8.1,47.8C12,45.2,15.2,42,19,40.1c3.9,1.9,10.9,5.1,10.3,10.3c-1.9,1.9-4.5,1.3-7.1,1.3c0,15.4,0,30.2,0,45.6
				c2.6,1.9,5.1,4.5,7.1,7.1c10.3,0.6,21.2,0,31.4,0c0-2.6-1.3-7.7,3.2-7.1c3.9,2.6,6.4,5.8,8.3,10.3c-1.3,4.5-4.5,8.3-8.3,10.3
				c-3.9,0.6-3.2-4.5-3.2-7.1c-10.3,0-21.2,0-31.4,0c-2.6,3.2-5.8,7.7-10.9,7.1c-5.8,0-9.6-4.5-10.9-10.3v-2.6
				c1.3-3.9,4.5-7.1,7.7-9c0-15.4,0-30.2,0-45.6c-1.3,1.3-2.6,1.3-3.9,1.3c-1.3-0.6-2.6-1.3-3.2-1.9V47.8z M17.7,104.2
				c-5.1,0.6-2.6,9.6,1.9,7.7C25.4,110.6,22.9,102.3,17.7,104.2z"/>
		</g>
		<path d="M112,82.5c2.6-1.9,6.4,0.6,4.5,3.9c-1.9,9-3.2,18.6,1.3,27.6c1.9,5.1,7.1,9,9,14.1c0,3.2-4.5,3.9-5.8,1.9
			c-9.6-9-14.1-23.1-12.2-36.6C109.4,89.5,109.4,85,112,82.5z"/>
		<path d="M130.6,131.8c3.2-2.6,7.1,1.3,4.5,4.5C131.9,140.1,127.4,135,130.6,131.8z"/>
	</g>
</g>
</svg>
