<?xml version="1.0" encoding="utf-8"?>
<!-- Generator: Adobe Illustrator 25.3.1, SVG Export Plug-In . SVG Version: 6.00 Build 0)  -->
<svg version="1.1" id="Capa_1" xmlns="http://www.w3.org/2000/svg" xmlns:xlink="http://www.w3.org/1999/xlink" x="0px" y="0px"
	 width="213.3px" height="189.7px" viewBox="0 0 213.3 189.7" style="enable-background:new 0 0 213.3 189.7;" xml:space="preserve"
	>
<style type="text/css">
	.st0{fill:#FFFF00;}
</style>
<path d="M16.9,29.3h26.8c1.3,1.3,3.2,2.6,2.6,5.1c0,5.1,0,9.6,0,14.7c0,1.9-3.9,2.6-4.5,0c-0.6-5.1,0-10.2,0-14.7
	c-7.7,0-14.7,0-22.3,0c0,3.2,0,7,0,10.2c2.6,0,7-0.6,6.4,3.2c-1.3,1.9-3.9,1.3-6.4,1.3c0,3.2,0,5.7,0,9c1.9,0,5.1-0.6,6.4,1.9
	c0,3.2-3.9,2.6-6.4,2.6c0,3.2,0,5.7,0,9c1.9,0,6.4-0.6,6.4,2.6c-0.7,3.2-3.9,1.8-6.4,1.8c0,3.2,0,5.7,0,9c1.9,0.6,6.4-0.6,6.4,2.6
	c-0.6,3.2-4.5,1.9-6.4,2.6c0,3.2,0,5.7,0,9c2.6,0,7-0.6,6.4,3.2c-1.3,1.9-3.9,1.3-6.4,1.3c0,3.2,0,5.7,0,9c1.9,0.6,5.7-0.6,6.4,1.9
	c0,3.2-3.9,2.6-6.4,2.6c0,3.2,0,5.7,0,9c1.9,0,6.4-0.6,6.4,2.6c-0.6,2.6-3.9,1.3-6.4,1.9c0,3.2,0,5.7,0,9c1.9,0.6,5.1-0.6,6.4,1.9
	c0.6,3.9-3.9,3.2-6.4,3.2c0,3.2,0,5.7,0,9c1.9,0.6,6.4-0.6,6.4,2.6s-3.9,1.9-6.4,2.6c0,3.2,0,5.7,0,9c1.9,0.6,5.7-0.6,6.4,1.9
	c0,3.2-3.9,2.6-6.4,2.6c0,2.6,0,5.7,0,8.3c7.7,0,14.7,0,22.3,0c0-19.8,0-39,0-58.8c0-1.9,1.9-2.6,3.2-1.9c1.9,0.6,1.3,3.2,1.3,4.5
	c0,18.6,0,37.6,0,56.2c0,1.9-1.3,3.2-1.9,4.5H16.9c0-1.3-1.3-1.9-2.6-2.6V32.4C15.6,31.8,16.2,30.6,16.9,29.3z"/>
<g>
	<path d="M153.5,60c0.6-3.2,3.2-6.4,7-6.4c3.9-0.6,7.7,1.3,9.6,3.9V58l-0.6-0.6c0.6,3.9,0.6,7.7,0.6,11.5c0,30.7,0,61.9,0,92.6
		c0.6,5.1-3.2,9.6-5.1,14.1c-0.6,2.6-3.9,3.2-5.1,1.9c-2.6-3.9-4.5-8.3-5.7-12.1c-0.6-6.4,0-12.8,0-19.2c-0.6-2.6,3.9-3.2,4.5-0.6
		c0.6,5.1,0,10.2,0,15.3c2.6,0,5.1,0,7.7,0c0-26.2,0-53,0-79.2c-2.6,0-5.1,0-7.7,0c0,17.9,0,35.1,0,53c0,1.9,0,4.5-2.6,4.5
		c-2.6,0-1.9-2.6-2.6-4.5C153.5,109.1,153.5,84.9,153.5,60z M158.6,58.7c-1.3,2.6,0,5.7-0.6,9c2.6,0,5.1,0,7.7,0
		c0-3.2,0.6-6.4-0.6-9C163.1,58,160.6,58,158.6,58.7z M158,72.1c0,1.3,0,3.2,0,4.5c2.6,0,5.1,0,7.7,0c0-1.3,0-3.2,0-4.5
		C163.1,72.1,160.6,72.1,158,72.1z M158,165.3c1.3,1.9,1.9,4.5,3.2,6.4c2.6-0.6,2.6-4.5,3.9-6.4C163.1,165.3,160.6,165.3,158,165.3z
		"/>
</g>
<path d="M41.7,56.7c1.3-1.9,4.5-0.6,4.5,1.9c0,10.8,0,21.7,0,33.2c0,2.6-4.5,2.6-4.5,0C41.7,79.8,41.1,68.2,41.7,56.7z"/>
<path d="M102.4,78.4c2.6-0.6,4.5,3.2,4.5,5.7C103.8,88.6,98.7,80.4,102.4,78.4z"/>
<path d="M106.9,90.6c1.3-3.2,4.5-0.6,5.1,1.9c1.9,0.6,5.7,1.3,4.5,4.5C112.6,99.6,106.3,95.1,106.9,90.6z"/>
<path d="M122.2,95.7c2.6-1.9,5.7,0,8.3,0.6c2.6,1.9,0,5.1-2.6,3.9C125.5,99.6,120.4,98.9,122.2,95.7z"/>
<path d="M137.6,97.6c3.2,1.3,7.7,0,10.2,3.9c1.9,3.2-1.3,5.7-3.9,7.7c-1.3,1.3-3.9-0.6-3.2-2.6c0.6-1.3,1.9-1.9,1.9-3.9
	c-1.9-0.6-5.7,0-6.4-3.2C136.3,99.6,136.9,98.2,137.6,97.6z"/>
<path d="M102.4,100.8c1.9,0,3.2,1.3,2.6,3.2c0,1.9,0.6,5.7-1.9,6.4c-1.9,0-2.6-1.9-2.6-3.9C101.2,104,99.9,100.8,102.4,100.8z"/>
<path d="M80.1,101.5c3.9-2.6,4.5,3.2,3.9,6.4c0.6,2.6-3.9,3.9-4.5,1.3C80.1,105.9,79.5,103.3,80.1,101.5z"/>
<path d="M134.4,112.9c1.3-1.9,4.5-0.6,4.5,1.9c-1.3,2.6-3.2,3.9-5.1,5.7c-1.9,0.6-3.9-1.3-3.2-3.2
	C131.8,116.2,133.1,114.2,134.4,112.9z"/>
<path d="M120.4,128.3c1.9-1.9,3.9-6.4,7-4.5c2.6,2.6-1.3,4.5-2.6,7c0,1.9,1.3,5.1-1.9,5.7C119.7,135.4,120.4,130.9,120.4,128.3z"/>
<path d="M105,128.3c1.9-0.6,3.2,1.9,2.6,3.9c-1.3,1.3-3.2,3.2-5.1,1.9C99.9,131.5,103.1,129.5,105,128.3z"/>
<path d="M122.2,141.7c4.5-3.9,6.4,5.7,3.2,7C121,149.3,121.6,144.2,122.2,141.7z"/>
<path d="M122.9,155.1c0.6-2.6,5.1-1.9,4.5,0.6c0.6,3.9,2.6,11.5-3.9,11.5c-2.6-1.3-7-1.3-7-5.1c1.3-3.2,4.5-1.3,6.4,0
	C123.5,160.2,122.9,157.7,122.9,155.1z"/>
<path d="M105.7,155.8c3.2-2.6,11.5,3.9,5.1,5.7C108.9,160.9,103.1,159.5,105.7,155.8z"/>
<g>
	<path class="st0" d="M63.8,97.7c4.5-1.2,11.5,0,13.5-5.7c4.3-6.8,7.4-14.1,12.2-20.4V57.5c0,1-0.1,2.1-0.2,3.1
		C83.6,70.8,77.9,81,72.2,91.4c-3.9,1.2-7.7,1.2-11.5,3.2C59.3,96.4,61.9,99,63.8,97.7z"/>
	<path d="M76.6,130.3c3.1,3.7,8,5.7,12.9,6.3v-4.5c-4.3-0.7-7.9-2.6-11-5C77.2,127.7,76.6,128.9,76.6,130.3z"/>
	<path class="st0" d="M89.5,149c-9.4,3.7-18.8,8.1-28.2,12.5c1.3-10.2,2.6-21.1,3.9-31.9c0.6-1.9-0.6-3.2-1.9-4.5
		c-6.3-7.7-14-15.3-20.4-23c3.9-0.6,8.3-1.2,12.1-2.6c2.6-0.6,1.9-5.1-0.6-4.5c-4.5,0.6-9,1.2-13.5,2.6c-2.6,0.7-3.9,4.5-1.9,6.4
		c7.7,8.9,15.3,16.6,22.3,24.9c-1.3,10.8-2.6,21.1-3.9,31.9c-0.6,3.2,3.3,6.4,6.4,4.5c9-3.6,17.3-7.7,25.7-11.4V149z"/>
	<path d="M94.9,148.8c0-3.9,0-7.7,0-11.5c0.6,0,1.9-0.7,2.6-1.3c1.3-1.9-0.6-3.3-2.6-3.9c0-20.4,0-40.9,0-61.3
		c0.6,1.9,4.4,5.8,5.7,1.9c-0.6-5.1-6.3-8.4-5.7-14.1c0-7.7,0-16,0-24.3c0.6-1.9-0.6-3.8-1.9-5.1h-1.3c-0.3,0.9-0.6,1.6-1,2.1v11.8
		v1V181c0.3,1.1,0.7,2.1,1,2.9h1.9c1.3-1.2,1.3-3.8,1.3-5.7c0-7.7,0-16,0-24.3c1.8,0.6,4.4,2.6,5.7,0
		C101.3,150.7,96.8,150.1,94.9,148.8z"/>
</g>
</svg>
