<?xml version="1.0" encoding="utf-8"?>
<!-- Generator: Adobe Illustrator 25.3.1, SVG Export Plug-In . SVG Version: 6.00 Build 0)  -->
<svg version="1.1" id="Capa_1" xmlns="http://www.w3.org/2000/svg" xmlns:xlink="http://www.w3.org/1999/xlink" x="0px" y="0px"
	 width="213.3px" height="189.7px" viewBox="0 0 213.3 189.7" style="enable-background:new 0 0 213.3 189.7;" xml:space="preserve"
	>
<style type="text/css">
	.st0{fill:#00FFFF;}
</style>
<g>
	<g>
		<path d="M12,25.1c9.8-2.3,19.5-1.5,30-1.5c42.8,0,85.6,0,128.4,0c5.3,0,9.8,0.8,15,1.5v113.4c-4.5,0.8-7.5-1.5-6.8-6
			c0-27,0-54.1,0-81.1c-53.3,0-106.6,0-159.9,0c0,40.5,0,80.3,0,120.9c53.3,0,106.6,0,159.9,0c0-9.8,0-18.8,0-28.5
			c1.5,0,4.5,0,6.8,0v33.8c-4.5,1.5-9.8,1.5-15,1.5c-39.8,0-78.8,0-118.6,0c-13.5,0-26.3,0.8-39.8-0.8C12,178.3,12,25.1,12,25.1z
			 M18.7,30.4c0,5.3,0,10.5,0,16.5c33.8,0,67.6,0,100.6,0c0-5.3,0-10.5,0-16.5C85.5,30.4,51.8,30.4,18.7,30.4z M124.6,30.4
			c0,5.3,0,10.5,0,16.5c18,0,36,0,53.3,0c0-5.3,0-10.5,0-16.5C160.6,30.4,142.6,30.4,124.6,30.4z"/>
	</g>
	<path d="M133.6,36.4c3-4.5,9,0,6,3.8C137.3,43.9,131.3,39.4,133.6,36.4z"/>
	<path d="M149.3,36.4c3.8-1.5,5.3,0,4.5,3.8C150.1,41.7,148.6,40.2,149.3,36.4z"/>
	<path d="M164.4,36.4c3.8-1.5,5.3,0,4.5,3.8C164.4,41.7,162.9,40.2,164.4,36.4z"/>
	<path d="M68.3,92c2.3-2.3,8.3-1.5,6,2.3c-9,6.8-19.5,11.3-28.5,18c9.8,6,19.5,11.3,29.3,17.3v2.3l-3.8,2.3
		C60,127.2,48,121.2,36.7,113.7c0-0.8,0-2.3-0.8-3C47.2,104.7,57.8,98.7,68.3,92z"/>
	<path class="st0" d="M109.6,91.2c1.5,0,3.8,0.8,5.3,1.5c-9,14.3-18.8,28.5-29.3,42.8l-3-3C90.8,117.5,100.5,104.7,109.6,91.2z"/>
	<path d="M120.8,92.7c5.3-3.8,9,0.8,13.5,3c8.3,5.3,17.3,9.8,25.5,15.8c0,3.8-4.5,4.5-6.8,6.8c-9.8,5.3-18,11.3-27.8,15.8l-3-1.5
		l0.8-3c9-6.8,19.5-11.3,29.3-17.3C141.8,105.5,129.8,101,120.8,92.7z"/>
</g>
</svg>
