<?xml version="1.0" encoding="utf-8"?>
<!-- Generator: Adobe Illustrator 25.3.1, SVG Export Plug-In . SVG Version: 6.00 Build 0)  -->
<svg version="1.1" id="Capa_1" xmlns="http://www.w3.org/2000/svg" xmlns:xlink="http://www.w3.org/1999/xlink" x="0px" y="0px"
	 width="213.3px" height="189.7px" viewBox="0 0 213.3 189.7" style="enable-background:new 0 0 213.3 189.7;" xml:space="preserve"
	>
<style type="text/css">
	.st0{fill:#FF0600;}
	.st1{fill:#1B9BEA;}
</style>
<g>
	<g>
		<path d="M15,30.6c1.9-2.5,5-2.5,8.2-2.5c21.3,0,42,0,63.3,0c3.8-0.6,8.2,2.5,8.8,6.3c0.6,5,0,9.4,0,14.4c22.6,0,44.5,0,67.1,0
			c2.5,0,6.3,0,8.2,2.5c2.5,1.9,2.5,5,2.5,8.2c0,16.9,0,34.5,0,51.4c0,2.5,0,5.6-2.5,8.2c-1.9,2.5-5,2.5-8.2,2.5
			c-8.2,0-16.3,0-24.5,0c-3.8,4.4-7.5,9.4-11.9,13.8c-3.1,3.1-8.2,1.3-9.4-2.5c-0.6-3.8-0.6-7.5-0.6-11.3c-1.9,0-3.1,0-5,0
			c0,13.8,0,27.6,0,41.4c0,2.5,0,6.3-2.5,8.2c-1.9,1.3-5.6,1.3-8.2,1.3c-8.8,0-16.9,0-25.7,0c0,3.8,0.6,7.5-0.6,11.3s-6.9,5-9.4,2.5
			c-4.4-4.4-7.5-9.4-11.9-13.8c-8.8,0-18.2,0-27,0c-4.4,0-7.5-3.8-7.5-7.5c0-16.9,0-33.9,0-50.2c-0.6-3.8,2.5-8.2,6.3-8.8
			c7.5-0.6,15.1,0,22.6,0c-1.3-1.9-3.1-3.1-4.4-5c-7.5,0-14.4,0-22,0c-3.8,0-7.5-3.1-7.5-7.5c0-17.6,0-35.1,0-52.7
			C13.1,36.9,12.4,32.5,15,30.6z M18.1,35.7c0,18.2,0,36.4,0,53.9c0,1.9,0,5,2.5,5c8.2,0.6,16.3,0,24.5,0c5,5,8.8,11.3,13.8,15.7
			c0.6-5,0-10.7,0-15.7c9.4,0,18.8,0,28.2,0c2.5,0,2.5-3.1,2.5-5c0-18.2,0-36.4,0-53.9c0-2.5-3.1-2.5-5-2.5c-21.3,0-42,0-63.3,0
			C20,33.2,18.1,33.8,18.1,35.7z M95.2,53.9c0,11.9,0,23.8,0,35.8c0,2.5,0,5.6-2.5,8.2c-1.9,2.5-5,1.9-8.2,2.5c0,4.4,0,9.4,0,13.8
			c0,0,0.6,0.6,1.3,1.3c11.3,0.6,23.2,0,34.5,0c0,5,0,10.7,0,15.7c5.6-4.4,9.4-10.7,13.8-15.7c10,0,19.4,0,29.5,0
			c2.5,0,2.5-3.1,2.5-5c0-18.2,0-36.4,0-53.9c0-1.9-1.9-2.5-3.8-2.5C140.4,53.9,117.8,53.9,95.2,53.9z M64.5,100.3c0,1.9,0,3.1,0,5
			c5,0,10,0,15.7,0c0-1.9,0-3.1,0-5C74.5,100.3,69.5,100.3,64.5,100.3z M23.1,115.3c0,15.7,0,32,0,47.7c0,1.9,0.6,3.8,2.5,3.8
			c10,0,19.4,0,29.5,0c5,5,8.8,11.3,13.8,15.7c0-5,0-10.7,0-15.7c11.3,0,22.6,0,33.2,0c1.9,0,2.5-1.9,2.5-3.8c0-14.4,0-28.2,0-42.7
			c-6.9,0-13.8,0.6-20.1-0.6c-4.4-1.3-5.6-5.6-5.6-10c-5,0-10,0-15.1,0c-0.6,3.1-1.9,5.6-5,6.3c-3.8,0.6-5.6-2.5-8.2-5
			c-8.2,0-16.9,0-25.1,0C23.1,110.3,23.1,114.1,23.1,115.3z"/>
	</g>
	<g>
		<path class="st0" d="M28.1,57.6c0.6-7.5,7.5-14.4,15.1-13.8c3.8,0,7.5,1.9,10.7,3.8c5.6-4.4,13.2-5,18.8-0.6
			c8.2,5.6,8.8,18.8,1.9,25.7c-6.9,6.3-13.8,12.5-20.7,18.8c-6.3-5.6-13.2-11.3-19.4-17.6C30,69.5,27.5,63.9,28.1,57.6z M33.1,58.9
			c0,4.4,1.9,8.2,5,10.7c5,5,10.7,9.4,15.7,14.4c5.6-5,11.9-10,16.9-15.7c5.6-5.6,3.8-17.6-4.4-19.4c-5-1.9-9.4,1.9-12.5,5.6
			c-3.1-2.5-5.6-6.3-10-6.3C38.2,48.8,33.8,53.9,33.1,58.9z"/>
	</g>
	<g>
		<path class="st1" d="M126.6,62c3.1-5,11.3-3.8,14.4,1.3c2.5,3.1,1.9,7.5,1.3,10.7c5-0.6,11.9,0.6,13.8,6.3
			c1.9,5.6,0.6,12.5,0.6,18.2c0.6,5.6-3.1,10.7-8.8,11.3c-9.4,0.6-18.8,0.6-27-3.1c-3.1,4.4-9.4,3.1-14.4,3.1
			c-3.1,0.6-6.3-1.9-6.3-5c0-8.2,0-16.3,0-24.5c0-2.5,1.3-5.6,3.8-6.3c5-0.6,10-0.6,15.1,0.6C122.8,71.4,124.1,67,126.6,62z
			 M130.4,65.8c-1.9,5.6-5,10.7-9.4,15.1c0,6.9,0,13.8,0,20.7c8.2,4.4,16.9,4.4,25.7,3.8c2.5,0,5-2.5,5-5c0-5.6,0.6-11.9-0.6-17.6
			c-3.1-5-10.7-2.5-15.7-3.1c1.3-3.8,1.9-7.5,1.9-11.3C137.3,65.1,131.6,62.6,130.4,65.8z M105.3,79.6c0,8.8,0,16.9,0,25.7
			c3.1,0,6.9,0,10,0c0-8.8,0-16.9,0-25.7C112.2,79.6,109,79.6,105.3,79.6z"/>
	</g>
	<g>
		<path d="M56.3,124.7c3.8-5,11.9-5,15.7,0c2.5,2.5,2.5,6.3,2.5,10c1.3-3.1,3.1-6.9,6.9-8.2c5.6-1.9,11.9,1.3,13.2,6.9
			c1.3,3.1-0.6,6.9-1.9,9.4c6.3,3.8,8.2,11.3,7.5,18.8c-1.9,0-3.1,0-5,0c0-4.4,0.6-9.4-3.1-12.5c-3.1-3.1-7.5-3.1-11.9-2.5
			c0.6,5,1.3,9.4,1.9,14.4c-1.9,0-3.1,0.6-5,0.6c-1.3-6.3,0-13.8-5.6-18.2c-5.6-5-15.1-3.1-18.2,3.8c-1.9,4.4-1.9,9.4-2.5,14.4
			c-1.9,0-3.1-0.6-5-0.6c0.6-5,1.3-9.4,1.9-14.4c-3.8-1.3-8.8-1.3-11.9,2.5c-3.1,3.1-3.1,8.2-3.1,12.5c-1.9,0-3.1,0-5,0
			c-0.6-6.9,1.3-14.4,7.5-18.8c-1.9-3.1-3.1-6.9-1.9-10.7c1.9-5.6,9.4-8.8,15.1-5.6c3.1,1.9,4.4,5,5.6,8.2
			C53.8,131,53.8,127.2,56.3,124.7z M62,126.6c-3.8,1.3-3.8,6.9-0.6,8.8c2.5,2.5,7.5,0.6,8.2-3.1C70.1,128.5,65.8,124.7,62,126.6z
			 M41.3,131.6c-3.8,1.3-4.4,6.9-0.6,8.8c2.5,2.5,7.5,0.6,8.2-3.1C49.4,133.5,45.1,129.7,41.3,131.6z M82.7,131.6
			c-3.8,1.3-3.8,6.9-0.6,8.8c3.1,2.5,8.2,0,8.2-4.4C90.2,132.9,85.8,129.7,82.7,131.6z M54.5,132.9c-0.6,2.5-0.6,5-1.3,7.5
			c1.3-0.6,1.9-1.3,3.1-1.9C55.7,136.6,55.1,134.8,54.5,132.9z M73.9,133.5c-0.6,1.9-1.3,3.8-1.9,5c1.3,0.6,1.9,1.3,3.1,1.9
			C74.5,137.9,74.5,135.4,73.9,133.5z"/>
	</g>
</g>
</svg>
