<?xml version="1.0" encoding="utf-8"?>
<!-- Generator: Adobe Illustrator 25.3.1, SVG Export Plug-In . SVG Version: 6.00 Build 0)  -->
<svg version="1.1" id="Capa_1" xmlns="http://www.w3.org/2000/svg" xmlns:xlink="http://www.w3.org/1999/xlink" x="0px" y="0px"
	 width="50px" height="50px" viewBox="0 0 50 50" style="enable-background:new 0 0 50 50;" xml:space="preserve">
<style type="text/css">
	.st0{fill:#020203;}
	.st1{fill:#010202;}
</style>
<g>
	<path class="st0" d="M9.2,16.6c2.9-7,10.5-12.2,18.8-12.5C35.8,3.7,43.4,9.8,43.1,17c-0.5-0.2-1.3-0.5-1.8-0.7
		C39.9,11.4,36,7,30.2,6.3c-8.4-0.9-16,4.7-19.2,11.3C10.6,17.3,9.7,16.8,9.2,16.6z"/>
	<path class="st0" d="M20.2,9.4c5.1-2.7,11.9-2.4,16.1,1.5c4.7,4.5,4.4,11.3,3.4,17c-0.9,4.8-1.5,10.1-5.5,13.7
		c-3.3,3-8.8,2.1-12.4-0.1c-1.5-0.6-2.3-1.9-2.4-3.4c3.6,1.1,6.7,4,10.8,3.3c4-1.3,5.2-5.4,6.2-8.7c1.4-6.4,3.4-14-1.3-19.8
		c-3.3-3.8-9.4-3.8-13.9-1.8C21,10.7,20.4,9.9,20.2,9.4z"/>
	<path class="st0" d="M17.8,15.3c2.8-2.9,7.4-4.9,11.7-3.8c-0.2,0.5-0.5,1.5-0.7,2c-7-1-12.7,5.3-12.6,11.2
		c0.3,5.5,3.9,11.1,9.7,13.2c3.7,1.2,5.2-2.7,8.4-2.9c-0.6,2.4-2.5,4.7-5.3,5c-4.3,0.8-8.2-1.8-10.8-4.7
		C13.2,29.7,12.3,20.8,17.8,15.3z"/>
	<path class="st0" d="M30.3,13.2c1.8-1.5,3.6,0.8,4.6,2c3.3,4.9,2.6,11.1,1.1,16.4c-0.5,0.1-1.5,0.4-2.1,0.6c0.4-4.6,2.3-9.5,0-13.9
		C33.4,16.1,30.6,15.2,30.3,13.2z"/>
	<path class="st0" d="M11.8,18.9c0.9-2.3,1.9-5.2,5-5.8c-0.6,3.4-3.5,6.1-3.5,9.6c-0.6,4.9,2.1,9.5,5,13.5L17.6,37h-1.2
		C11.6,32.2,10,25.2,11.8,18.9z"/>
	<path class="st0" d="M22.7,16.8c0.9-1.5,2.7-2.6,4.6-1.9c4.2,0.6,6.4,4.5,6.8,8c-0.2,1.6,0.9,4.3-1.9,4.3c-0.6-3,0-6.8-2.8-9.1
		C27.6,16.5,24.8,17.2,22.7,16.8z"/>
	<path class="st0" d="M23.8,18.9c5-2.8,10.2,6,5.5,8.4c-0.6-2-0.6-4.2-1.8-6c-1.4-2-3.8-0.1-4.5,1.5c-2,3.1,0.1,7.3,3.7,8.6
		c0.2,0.4,0.6,1.2,0.8,1.6C19.5,33.7,17.4,22.1,23.8,18.9z"/>
	<path class="st0" d="M17.1,24.5c0-2.2,0.5-5.1,3.3-5.8c-0.1,3.1-2.2,6.3-0.6,9.4c1.1,3.2,4.1,7.3,8.3,6.1c2.1-1.3,2.1-4.6,5.2-4.8
		c-0.4,2.4-1.3,4.9-3.6,6.3c-2.3,1.1-5.4,0.9-7.4-0.7C18.9,32.6,16.8,28.5,17.1,24.5z"/>
	<path class="st0" d="M41.8,18.9c0.4,0.1,1.3,0.4,1.7,0.6c0.2,5.6-1.1,11.2-2.6,16.5c-0.5,0.1-1.6,0.4-2.1,0.6
		C39.8,30.8,41,24.9,41.8,18.9z"/>
	<path class="st0" d="M8.1,24.6c0.5,0,1.5,0,2,0C11,33,17.4,40.8,26,44.1c2.4,1,5.1,0.8,7.6,0.8c0.1,0.4,0.2,1.3,0.2,1.7
		c-6.2,1.3-12.3-1.5-16.8-5.2C12,37.1,8.2,31,8.1,24.6z"/>
</g>
<g>
	<g>
		<path class="st1" d="M-42.3,18.5c0,0.7,0.4,1.3,1,1.5c0.2,0.1,0.3,0.1,0.5,0.2c0.5,0.2,1.1,0.5,1.7,0.4c0.7-0.1,1.2-0.5,1.5-0.9
			c1.3,0,2.8,0,4.3-0.4c-0.1,1.3-2.8,5.4-3.4,6.1c0,0-0.4,0.4-0.5,0.5c-0.2,0.2-0.4,0.5-0.6,0.7l0,0l-0.1,0.1
			c-0.1,0.1-0.2,0.3-0.3,0.4l-0.1,0.2c-1.1,1.4-1.8,3-2,4.6c-0.3,1.6-0.1,3.2,0.1,4.6l0,0c0.1,0.3,0.1,0.5,0.2,0.8
			c0.2,0.7,0.3,1.4,0.5,2l0,0.1l0.1,0c2.8,0,5.6,0,8.4,0c2.3,0,4.7,0,7,0l0.1,0l0-0.1c0.9-2.9,1.2-5.3,1-7.5c0-0.7-0.2-1.4-0.3-2
			c-0.2-1.1-0.4-2.3-0.2-3.5c0-0.4,0.1-0.8,0.2-1.2c0-0.1,0-0.2,0.1-0.3c0.1-0.2,0.1-0.3,0.2-0.5l0,0l0.2,0l0.5,0c0.4,0,0.9,0,1.3,0
			l0.2,0l0-0.2c0-0.9,0-1.8,0-2.7c0-0.6,0-1.2,0-1.8c0-0.2,0-0.5,0-0.7c0-1,0-2-0.2-3.1c-0.5-3.2-2.1-6-4.5-7.8
			c-2-1.5-4.4-2.2-6.7-1.9c-1.5,0.2-3,0.8-4.5,1.8l-0.1,0.1l0.1,0.1c0.3,0.4,0.6,0.8,0.9,1.1c0.2,0.2,0.3,0.4,0.5,0.6
			c-0.5,0.4-1,1-1.5,1.7c-1.2,1.3-2.5,2.5-3.8,3.7c-0.2,0.2-0.4,0.4-0.6,0.6c-0.1,0.1-0.1,0.1-0.2,0.2c-0.2,0.2-0.5,0.5-0.6,0.8
			c-0.2,0.4-0.2,0.8-0.2,1.2C-42.3,18.3-42.3,18.4-42.3,18.5z M-40.7,17.4c0.4-0.4,0.8-0.7,1.2-1.1c1.3-1.2,2.7-2.5,3.9-3.9l0,0
			c0.6-0.8,1.4-1.5,2.2-2.1l0.1-0.1l-0.1-0.1c-0.4-0.5-0.8-1-1.2-1.4l-0.1-0.2c1.4-0.7,3.1-1,4.6-0.8c1.8,0.2,3.5,1.1,4.8,2.5
			c1.6,1.6,2.7,3.9,3,6.4c0.1,0.8,0.1,1.6,0.1,2.4c0,0.2,0,0.5,0,0.7c0,0.4,0,0.9,0,1.3c0,0.6,0,1.3,0,2c-0.2,0-0.3,0-0.5,0l0,0
			c-0.4,0-0.8,0-1.2,0l-0.1,0l0,0.1c-0.1,0.3-0.3,0.7-0.4,1.1c-0.1,0.3-0.2,0.5-0.2,0.7c-0.1,0.4-0.2,0.9-0.3,1.4
			c0,0.4-0.1,0.8-0.1,1.2c0,0.9,0.2,1.8,0.3,2.6c0.1,0.6,0.2,1.2,0.2,1.8c0.2,1.9,0,3.9-0.6,6.2c-4.5,0-8.9,0-13.5,0
			c-0.1-0.4-0.2-0.9-0.3-1.3c0.4,0,0.8,0,1.1,0c0.6,0,1.2,0,1.8,0l0,0l0.3,0c1.8,0,3.7,0,5.5,0c0.9,0,1.8,0,2.8,0l0.2,0l0-0.2
			c0-0.4,0-0.7,0-1.1l0-0.2l-0.2,0c-1,0-2,0-3,0c-1.4,0-4.4,0.1-4.4,0.1c0,0-0.5-0.1-0.5-0.1l0,0l0,0c-0.5,0-1,0-1.6,0
			c-0.8,0-1.5,0-2.3,0c-0.2-1.9-0.1-3.6,0.5-5c0.4-0.9,0.9-1.7,1.6-2.6l0.1-0.1c0.3-0.3,0.6-0.7,0.9-1l0.1-0.1
			c0.1-0.1,0.2-0.2,0.3-0.3c0.1-0.1,0.2-0.2,0.3-0.3c0.6-0.7,0.9-0.9,1-1.1l0,0l0-0.1c0.1-0.1,0.2-0.3,0.3-0.4
			c0.2,0,0.9-1.4,0.9-1.4c0.5-1,0.8-2,0.9-3c0.1-0.7,0.1-1.4,0.1-2.1c0-0.2,0-0.4,0-0.6l0-0.3l-0.2,0.2c-0.1,0.1-0.2,0.2-0.3,0.3
			c-0.4,0.3-0.8,0.6-1.2,0.7c-1.5,0.4-3.1,0.4-4.5,0.3l-0.1,0l0,0.1c0,0-0.1,0.1-0.1,0.1c-0.3,0.3-0.5,0.7-0.9,0.7
			c-0.2,0-0.5-0.1-0.7-0.2c-0.1,0-0.2-0.1-0.3-0.1c0,0-0.1,0-0.1,0c-0.3-0.1-0.3-0.2-0.3-0.3l0,0c0-0.1,0-0.3,0-0.4
			C-40.9,17.9-40.9,17.6-40.7,17.4z"/>
		<path class="st1" d="M-32.5,10.4l0,0.2l0.2,0c0.5,0,0.9,0,1.3,0l0.1,0l0-0.1c0-0.2,0-0.3,0-0.5c0-0.2,0-0.4,0.1-0.6l0-0.2l-0.2,0
			c-0.6,0-1.1,0-1.6,0l-0.2,0l0,0.2C-32.5,9.7-32.5,10.1-32.5,10.4z"/>
		<path class="st1" d="M-25.2,16.8l0,0.2c0,0.3,0.1,0.7,0.1,1.2l0,0.1l0.1,0c0.4,0,0.7,0,1.1,0l0.2,0l0-0.2c0-0.4,0-0.9-0.1-1.4
			l0-0.2l-0.2,0c-0.4,0.1-0.7,0.1-1.1,0.1L-25.2,16.8z"/>
		<path class="st1" d="M-9.7,23.4c-2.1-2.2-5-3.6-8.1-3.8c0-0.1,0-0.1,0-0.2c0-0.2,0-0.4,0-0.6c0.2,0,0.3,0,0.5,0c0.5,0,1,0,1.5,0
			l0.2,0l0-0.2c0-0.4,0-0.8,0-1.1c0-0.3,0-0.6,0-1c0-0.3,0-0.6,0-0.8l0-0.6l-0.2,0c-0.6,0-1.2,0-1.8,0c-0.7,0-1.4,0-2.1,0l-0.2,0
			l0,0.4c0,0.3,0,0.6,0,0.8l0,0.2l0.2,0c0.9,0,1.8,0,2.7,0c0,0.3,0,0.5,0,0.8c-0.4,0-0.7,0-1.1,0c-0.3,0-0.7,0-1,0l-0.2,0v0.2
			c0,1,0,2.1,0,3.1l0,0.2l0.2,0c1.8,0,3.6,0.4,5.1,1.1c2.2,1,4,2.8,5.1,5c1,2,1.4,4.4,1.1,6.7c-0.4,3.4-2.6,6.6-5.7,8.3
			c-1.8,1-3.8,1.5-5.9,1.4l-0.2,0l0,0.2c0,0.4,0,0.7,0,1.1l0,0.1l0.1,0c0.1,0,0.3,0,0.4,0c2.3,0,4.5-0.6,6.4-1.8
			c3-1.8,5.2-4.8,5.9-8.2c0.4-2,0.4-4.1-0.2-6.1C-7.2,26.7-8.2,24.8-9.7,23.4z"/>
		<path class="st1" d="M-5,19.8c-0.3-0.3-0.5-0.5-0.8-0.8c-0.5-0.5-0.9-0.9-1.4-1.4l-0.1-0.1l-0.1,0.1c-0.3,0.3-0.6,0.6-0.9,0.9
			c-0.4,0.4-0.8,0.8-1.2,1.2c-0.5-0.3-0.9-0.6-1.4-0.9l-0.1-0.1l-0.1,0.1c-0.1,0.1-0.2,0.3-0.2,0.4c-0.1,0.2-0.2,0.4-0.3,0.6
			l-0.1,0.1l0.1,0.1c1.8,1.1,3.2,2.4,4.3,4l0.1,0.1L-7,24c0.1-0.1,0.3-0.2,0.4-0.3c0.2-0.1,0.3-0.2,0.5-0.4l0.1-0.1l-0.1-0.1
			C-6.4,22.7-6.7,22.3-7,22c0.5-0.5,1-1,1.5-1.5c0.2-0.2,0.3-0.3,0.5-0.5l0.1-0.1L-5,19.8z M-7.3,20.3C-7.5,20.5-7.7,20.8-8,21
			c-0.1-0.1-0.2-0.2-0.3-0.3c-0.1,0-0.1-0.1-0.2-0.1c0.1-0.1,0.3-0.3,0.4-0.4c0.2-0.2,0.4-0.4,0.7-0.6c0.1,0.1,0.2,0.2,0.3,0.2
			c0.1,0.1,0.1,0.1,0.2,0.2C-7,20-7.2,20.2-7.3,20.3z"/>
		<path class="st1" d="M-17.7,34c0.7-0.5,1.1-1.5,0.8-2.4c-0.1-0.4-0.4-0.8-0.8-1.1c0.2-0.7,0.5-1.4,0.7-2c0.2-0.6,0.4-1.2,0.6-1.8
			l0.1-0.1l-0.2,0c-0.3-0.1-0.7-0.2-1-0.4l-0.2-0.1l0,0.2c-0.1,0.2-0.1,0.4-0.2,0.6l0,0.1c-0.1,0.2-0.1,0.3-0.2,0.5
			c-0.1,0.4-0.3,0.9-0.4,1.3c-0.1,0.4-0.3,0.9-0.4,1.3c-0.3,0-0.6,0.1-0.9,0.2c-0.7,0.3-1.2,1.1-1.2,1.9c0,0.7,0.3,1.5,1,1.9
			c0.3,0.2,0.8,0.4,1.2,0.4C-18.5,34.4-18,34.3-17.7,34z M-19.3,32.9L-19.3,32.9c-0.3-0.2-0.3-0.5-0.3-0.7c0-0.2,0.1-0.5,0.4-0.6
			l0,0c0.1,0,0.2-0.1,0.3-0.1c0.1,0,0.3,0,0.4,0.1c0.2,0.2,0.4,0.4,0.3,0.7l0,0c0,0.3-0.2,0.5-0.4,0.6
			C-18.9,33.1-19.1,33.1-19.3,32.9z"/>
		<path class="st1" d="M-28.5,11.4l0.1,0.1l0.1-0.1c0.1-0.1,0.2-0.3,0.2-0.4c0.1-0.2,0.2-0.3,0.3-0.5l0.1-0.1l-0.1-0.1
			c-0.4-0.3-0.9-0.5-1.3-0.7l-0.3-0.1l-0.1,0.2c-0.1,0.3-0.2,0.7-0.4,1.1l0,0.1l0.1,0C-29.3,10.9-28.9,11.1-28.5,11.4z"/>
		<path class="st1" d="M-26.6,13.2l0.1,0.1l0.1-0.1c0.2-0.1,0.4-0.3,0.6-0.4c0.1-0.1,0.2-0.2,0.3-0.2l0.1-0.1l-0.1-0.1
			c-0.3-0.4-0.6-0.8-1.1-1.2l-0.1-0.1l-0.1,0.1c-0.1,0.1-0.2,0.2-0.3,0.3c-0.1,0.2-0.3,0.3-0.4,0.5l-0.1,0.1l0.2,0.2
			C-27.1,12.6-26.8,12.9-26.6,13.2z"/>
		<path class="st1" d="M-25.8,14.1l-0.1,0.1l0.1,0.1c0.2,0.4,0.3,0.9,0.5,1.3l0,0.1l0.1,0c0.4-0.1,0.7-0.2,1-0.3l0.2,0l0-0.2
			c-0.1-0.5-0.3-1-0.6-1.5l-0.1-0.1l-0.1,0.1c-0.2,0.1-0.4,0.2-0.6,0.3C-25.6,14-25.7,14.1-25.8,14.1z"/>
		<path class="st1" d="M-19.8,25l0.2,0c0,0,0,0,0.1,0h1.2l0-0.2c0,0,0,0,0,0l0-0.5c0-0.1,0-0.2,0-0.3c0-0.1,0-0.2,0-0.4
			c1,0.1,2.1,0.3,3,0.7l0.1,0.1c0.2,0.1,0.4,0.2,0.6,0.3l-0.1,0l0.4,0.2c0,0,0,0,0,0l0,0l0,0c0.1,0,0.1,0,0.2,0c0,0,0.1,0.1,0.2,0.1
			c0,0,0.1,0,0.1,0.1c-0.1,0.1-0.2,0.2-0.2,0.2c-0.1,0.1-0.1,0.1-0.2,0.2c-0.1,0.1-0.2,0.2-0.2,0.2c-0.1,0.1-0.2,0.2-0.3,0.3
			l-0.1,0.1l0.1,0.1c0.2,0.2,0.4,0.4,0.5,0.5c0.1,0.1,0.2,0.2,0.3,0.3l0.1,0.1l0.1-0.1c0.1-0.1,0.2-0.3,0.4-0.4l0,0
			c0.1-0.1,0.3-0.3,0.4-0.4c0,0,0.1-0.1,0.1-0.1c0.1-0.1,0.1-0.1,0.2-0.2c0,0,0.1,0.1,0.1,0.1l0,0c1.2,1.3,2,3,2.3,4.7
			c-0.3,0-0.6,0-0.9,0c-0.2,0-0.5,0-0.7,0l-0.2,0l0,0.2c0,0.3,0,0.7,0,1.1l0,0.1l0.1,0c0.4,0,0.7,0,1.1,0c0.2,0,0.4,0,0.5,0
			c0,1.7-0.6,3.3-1.5,4.7c-0.1-0.1-0.3-0.3-0.4-0.4c-0.2-0.2-0.4-0.4-0.7-0.7l-0.1-0.1l-0.1,0.1c-0.1,0.1-0.2,0.2-0.3,0.3
			c-0.2,0.2-0.3,0.3-0.5,0.5l-0.1,0.1l0.1,0.1c0.3,0.3,0.6,0.6,0.8,0.9c0.1,0.1,0.2,0.2,0.3,0.3c-1.4,1.5-3.3,2.4-5.3,2.6l0-0.1
			c0-0.5,0-1,0-1.4l0-0.2l-0.2,0c-0.3,0-0.7,0-1.1,0l-0.2,0l0,0.2c0,0.7,0,1.4,0,2c0,0.3,0,0.5,0,0.8v0.1l0.1,0c0.1,0,0.3,0,0.4,0
			c3,0,6-1.4,7.8-3.8c1.4-1.7,2.2-3.9,2.2-6.1c0-1.7-0.4-3.5-1.2-5l0-0.1l0,0c-0.2-0.3-0.3-0.6-0.5-0.8c-0.4-0.6-0.9-1.2-1.6-1.8
			c-0.2-0.2-0.5-0.4-0.8-0.6c-1.9-1.4-4.2-2-6.6-1.9l-0.1,0l0,0.1c0,0.7,0,1.6,0,2.5L-19.8,25z"/>
		<path class="st1" d="M-20.8,42.2c0-0.9-0.6-1.7-1.5-2c-0.4-0.1-0.8-0.1-1.1-0.1c-0.1,0-0.2,0-0.3,0c-3.4,0-6.9,0-10.3,0
			c-0.7,0-1.4,0-2.1,0c-1,0-2.1,0-3.2,0l0,0l-0.3,0c-0.3,0-0.6,0-0.9,0c-0.3,0-0.7,0-1.1,0c-1.1,0.1-1.9,1-2,2c0,0.7,0,1.3,0,1.8
			l0,0.1l0.1,0c-0.1,0.1-0.1,0.3-0.1,0.4c0,0.1,0,0.1,0,0.2l0,0.2l0.2,0c7.4,0,15,0,22.3,0l0.2,0l0-0.2c0-0.3,0-0.6,0-1
			C-20.8,43.2-20.8,42.7-20.8,42.2L-20.8,42.2z M-22.2,43.2c0,0.1,0,0.2,0,0.3c-1.8,0-3.5,0-5.3,0c-1.3,0-2.6,0-3.8,0
			c-3.5,0-7.1,0-10.6,0c0-0.1,0-0.1-0.1-0.2l0-0.1l-0.1,0l0,0c0.1-0.2,0.1-0.4,0.1-0.7c0-0.2,0-0.4,0.1-0.6l0,0
			c0.2-0.4,0.8-0.4,1.2-0.4l0,0l0.1,0c0.1,0,0.1,0,0.2,0l0.1,0l0,0c2.9,0,5.7,0,8.6,0c2.9,0,5.8,0,8.6,0c0.4,0,0.8,0.3,0.8,0.7
			C-22.2,42.5-22.2,42.8-22.2,43.2z"/>
		<path class="st1" d="M-26.3,27.3c-0.1-0.1-0.3,0-0.5,0.1l-0.1,0.1l0,0.1c0,0.1,0.1,0.2,0.2,0.2c0,0,0.1,0,0.1,0
			c0.1,0,0.2,0,0.3-0.1l0.1-0.1l0-0.1C-26.2,27.4-26.2,27.4-26.3,27.3z"/>
	</g>
</g>
<g>
	<path class="st0" d="M67.7,15.4L67.7,15.4L67.7,15.4c0.1,0.1,0.2,0.2,0.3,0.3l0,0l0,0l0.1,0.1c0.4,0.4,0.8,0.8,1.2,1.2
		c0.3,0.3,0.6,0.6,0.9,0.9c0.1,0.8,0.1,1.6,0.2,2.5c0.1,1,0.1,2,0.3,2.9l0,0.2l0.1-0.2c0.1-0.3,0.3-0.5,0.4-0.8
		c0.2-0.4,0.4-0.8,0.6-1.1c0.8-1.3,2.3-2.2,3.9-2.1c1.5,0,3,0.9,3.7,2.2c0.2,0.3,0.4,0.7,0.5,1.1c0.2,0.4,0.4,0.7,0.6,1.1l0.1,0.2
		l0-0.2c0.1-1,0.2-2,0.2-3c0.1-0.9,0.1-1.8,0.2-2.7c1-1,2.1-2,3-3.2c0.2-0.2,0.3-0.4,0.5-0.6c1.3-1.7,2.5-3.5,3.5-5.3
		c0.3-0.4,0.5-1.1,0.3-1.7c-0.1-0.4-0.5-0.8-0.9-1c-0.4-0.2-0.9-0.2-1.3,0c-0.5,0.2-0.8,0.7-1,1.2c-0.1,0.1-0.1,0.2-0.2,0.3
		c-1.5,2.7-3.3,5-5.3,7.1c-0.1,0.1-0.2,0.1-0.2,0.2c-0.4,0.4-0.7,0.7-1.3,0.8c-0.8,0-1.7,0-2.5,0c-0.7,0-1.3,0-2,0
		c-0.4,0-0.8-0.2-1.1-0.5c-2.2-2-4.1-4.5-5.8-7.4c-0.1-0.2-0.2-0.3-0.3-0.5c-0.1-0.2-0.2-0.5-0.4-0.7c-0.2-0.3-0.6-0.6-1.1-0.6
		c-0.4-0.1-0.9,0-1.2,0.3c-0.7,0.5-0.9,1.5-0.5,2.2C64.1,10.8,65.7,13.2,67.7,15.4z"/>
	<path class="st0" d="M73.3,13.6c0.6,0.5,1.4,0.8,2.2,0.8c0.5,0,1.1-0.1,1.5-0.4c1.4-0.7,2.2-2.6,1.6-4.1c-0.5-1.6-2.3-2.5-3.9-2
		c-1.1,0.3-2,1.1-2.3,2.2C71.9,11.3,72.3,12.8,73.3,13.6z"/>
	<path class="st0" d="M59.6,17.9c0.4,0.3,0.8,0.4,1.3,0.4c0.5,0,0.9-0.1,1.3-0.4c0.7-0.5,1.1-1.5,0.9-2.3c-0.1-0.6-0.5-1.1-1.1-1.5
		c-0.6-0.3-1.2-0.4-1.8-0.2c-0.8,0.2-1.4,0.9-1.6,1.7C58.4,16.4,58.8,17.4,59.6,17.9z"/>
	<path class="st0" d="M88.6,17.9c0.4,0.3,0.9,0.4,1.3,0.4c0.3,0,0.6-0.1,0.9-0.2c0.7-0.3,1.3-1.1,1.4-1.9c0.1-0.8-0.3-1.7-1-2.1
		c-0.6-0.4-1.3-0.5-1.9-0.3c-0.8,0.3-1.5,1-1.6,1.9C87.6,16.6,87.9,17.4,88.6,17.9z"/>
	<path class="st0" d="M59.5,22.8c0.1,0.3,0.2,0.5,0.4,0.8l0.1,0.1l0-0.1c0,0,0-0.1,0-0.1c0-0.1,0.1-0.2,0.1-0.3
		c0-0.1,0.1-0.1,0.1-0.2c0.4-0.5,0.8-1.1,1.4-1.5c1.4-1,3.3-1.1,4.8-0.2l0.1,0.1l0-0.1c-0.1-0.4-0.2-0.7-0.3-1.1
		c-0.1-0.2-0.1-0.5-0.2-0.7c0,0,0,0,0-0.1c0-0.1,0-0.2,0-0.3c0.4-0.8,0.7-1.6,1-2.3l0,0l0,0c-0.5-0.6-1-1.2-1.5-1.8l-0.2-0.3l0,0.1
		c-0.4,1.2-0.8,2.3-1.3,3.2c-0.1,0.3-0.4,0.5-0.6,0.5c-0.3,0.1-0.5,0.2-0.8,0.3c-0.6,0.2-1.2,0.4-1.8,0.7c-0.2,0.1-0.6,0.2-0.9,0
		c-1.9-0.8-3.7-1.9-5.5-3.4c-0.1-0.1-0.2-0.2-0.3-0.2c-0.2-0.2-0.4-0.4-0.6-0.5c-0.3-0.1-0.6-0.1-0.9,0c-0.3,0.2-0.5,0.4-0.6,0.7
		c-0.1,0.5,0,1,0.4,1.3c2.1,1.8,4.3,3.3,6.7,4.3C59.1,22,59.3,22.4,59.5,22.8z"/>
	<path class="st0" d="M98.7,15.7c-0.2-0.3-0.5-0.4-0.8-0.4c-0.3,0-0.7,0.1-0.9,0.3c-1.9,1.7-3.9,3-6,3.9c-0.3,0.1-0.6,0.1-0.8,0
		c-0.6-0.2-1.3-0.5-1.9-0.7l-0.8-0.3c-0.3-0.1-0.5-0.3-0.6-0.6c-0.4-0.9-0.8-1.6-1-2.4c0-0.1-0.1-0.2-0.1-0.4c0-0.1-0.1-0.2-0.1-0.3
		l0-0.1l-0.2,0.3c-0.1,0.2-0.3,0.5-0.6,0.7c-0.1,0.1-0.2,0.2-0.3,0.3c-0.1,0.1-0.2,0.3-0.3,0.4c-0.1,0.1-0.2,0.2-0.3,0.3l0,0l0,0
		c0.3,0.7,0.6,1.4,0.9,2c0,0,0,0.1,0,0.1c0,0.1,0.1,0.2,0.1,0.3c-0.1,0.4-0.2,0.8-0.3,1.1c-0.1,0.3-0.2,0.6-0.2,0.9l0,0.1l0.1-0.1
		c1.4-0.8,3.1-0.8,4.4-0.1c0.9,0.5,1.6,1.3,2.1,2.4l0.1,0.1l0-0.1c0.1-0.1,0.1-0.3,0.2-0.4l0,0l0-0.1c0.2-0.5,0.4-1,0.7-1.5
		c2.4-1,4.7-2.5,6.7-4.3c0.2-0.2,0.4-0.5,0.4-0.8C99,16.2,98.9,15.9,98.7,15.7z M90.9,23C90.9,23,90.9,23,90.9,23
		C90.9,23,91,23,90.9,23L90.9,23z"/>
	<path class="st0" d="M84,39.6c-0.2-1.1-0.4-2.2-0.5-3.2c1.1-1.1,2.3-2.2,3.7-3.6c0.6-0.6,0.9-1.4,0.8-2.2c0-0.9-0.4-1.7-1-2.2
		c-0.4-0.4-1-0.6-1.6-0.7c-0.8-0.1-1.7-0.2-2.5-0.4c-0.8-0.1-1.7-0.2-2.6-0.4c-0.4-0.8-0.8-1.7-1.2-2.5c-0.3-0.6-0.6-1.2-0.9-1.8
		c-0.2-0.4-0.4-0.9-0.9-1.2c-0.8-0.8-2.1-1-3.2-0.5c-0.7,0.3-1.2,0.8-1.5,1.4c-0.3,0.6-0.7,1.3-1,2c-0.4,0.9-0.9,1.8-1.3,2.6
		c-1,0.2-1.9,0.3-2.9,0.4c-0.7,0.1-1.5,0.2-2.3,0.3c-1.1,0.2-2.1,1.1-2.4,2.2c-0.3,1,0,2.2,0.8,3c0.6,0.6,1.1,1.1,1.7,1.7
		c0.6,0.6,1.3,1.2,1.9,1.9c-0.1,0.8-0.3,1.6-0.4,2.3c-0.2,0.9-0.3,1.9-0.5,2.8c-0.1,0.8,0.1,1.7,0.7,2.4l0,0h0
		c0.1,0.1,0.2,0.2,0.3,0.3c0.1,0.2,0.3,0.2,0.5,0.2l0,0c0,0.1,0,0.2,0.1,0.2c0,0,0.1,0.1,0.2,0.1c0,0,0.1,0,0.1-0.1l0,0
		c0-0.1,0-0.2,0-0.2c0,0,0,0,0,0c0,0.1,0.1,0.2,0.1,0.3c0,0,0,0.1,0,0.1l0,0l0,0c0.3,0.1,0.8,0.1,1.2,0.1l0.2,0
		c0.5-0.1,0.9-0.3,1.3-0.5c0.1,0,0.1-0.1,0.2-0.1l1.3-0.7c0.9-0.5,1.7-0.9,2.6-1.4c1.5,0.8,3,1.6,4.5,2.3c0.4,0.2,0.9,0.4,1.4,0.4
		c0.3,0,0.6-0.1,1-0.2c0.8-0.3,1.5-0.8,1.8-1.5c0.3-0.6,0.4-1.3,0.3-2C84.2,40.7,84.1,40.2,84,39.6z M69,35.8
		c-0.8-0.8-1.6-1.5-2.3-2.3l-0.3-0.3c-0.1-0.1-0.2-0.2-0.4-0.3c-0.2-0.1-0.3-0.3-0.5-0.4c-0.2-0.2-0.4-0.5-0.6-0.7l0,0l-0.1,0
		c-0.4-0.3-0.5-0.8-0.4-1.4c0.1-0.5,0.5-0.9,0.9-1c0.9-0.2,1.9-0.3,2.8-0.4l0.2,0l0,0c0.9-0.2,1.9-0.3,2.7-0.4l0.4,0l0,0
		c0.4-0.9,0.8-1.7,1.3-2.6c0.4-0.9,0.9-1.8,1.4-2.7c0.2-0.4,0.5-0.6,0.9-0.7c0.4-0.1,0.8-0.1,1.2,0.2c0.2,0.2,0.4,0.5,0.7,0.9
		c0.4,0.7,0.7,1.5,1.1,2.2c0.5,0.9,0.9,1.9,1.4,2.8l0,0l0,0c0.7,0.1,1.4,0.2,2.1,0.3c1,0.1,2,0.3,3.1,0.5c0.6,0,1.1,0.1,1.4,0.4
		c0.3,0.3,0.5,0.7,0.5,1.1c0,0.4-0.1,0.7-0.4,1c-0.6,0.6-1.3,1.2-1.9,1.8c-0.8,0.8-1.6,1.5-2.4,2.3l0,0l0,0c0.4,2,0.7,4.1,1,5.8
		c0.1,0.6-0.3,1.3-0.9,1.6l0,0c-0.4,0.2-0.8,0.1-1.2-0.1c-0.7-0.4-1.5-0.8-2.2-1.1c-1-0.5-2-1.1-3-1.6l0,0l0,0c-1,0.5-2,1.1-3,1.6
		c-0.7,0.4-1.4,0.7-2.1,1.1c-0.5,0.3-1,0.3-1.4,0c-0.5-0.3-0.8-0.9-0.7-1.5C68.4,39.7,68.7,37.8,69,35.8L69,35.8L69,35.8z"/>
	<path class="st0" d="M64.7,37c-0.2-0.1-0.4-0.2-0.5-0.3l0,0l0,0c-0.5,0.3-1.1,0.6-1.6,0.8c-0.5,0.2-0.9,0.5-1.4,0.7
		c-0.3,0.2-0.7,0.3-1,0.3c-0.4,0-0.7-0.2-1-0.5c-0.3-0.3-0.4-0.7-0.3-1.1c0.1-0.6,0.2-1.2,0.3-1.8c0.1-0.6,0.2-1.3,0.3-1.9l0,0l0,0
		c-0.6-0.5-1.1-1.1-1.6-1.6c-0.3-0.3-0.6-0.6-0.9-0.9c-0.3-0.3-0.5-0.8-0.5-1.2c0-0.6,0.6-1.2,1.2-1.3c0.7-0.1,1.5-0.2,2.2-0.3
		c0.5-0.1,1-0.1,1.5-0.2l0,0l0,0c0.3-0.5,0.5-1.1,0.8-1.6c0.3-0.5,0.5-1,0.8-1.6c0.1-0.3,0.4-0.6,0.8-0.8c0.6-0.3,1.4,0,1.8,0.6
		c0.2,0.4,0.4,0.7,0.6,1.1c0.1,0.2,0.2,0.5,0.3,0.7l0,0l0,0c0.5-0.1,1.1-0.1,1.6-0.2l0.1,0l0-0.1c-0.2-0.4-0.4-0.7-0.5-1.1
		c-0.2-0.4-0.4-0.7-0.5-1.1c-0.5-0.9-1.5-1.6-2.5-1.6c-1.2-0.1-2.4,0.6-2.9,1.6c-0.3,0.5-0.5,1-0.7,1.5c-0.2,0.4-0.4,0.8-0.6,1.2
		c-0.4,0.1-0.8,0.1-1.2,0.2c-0.6,0.1-1.2,0.2-1.8,0.3c-1.2,0.2-2.2,1.3-2.4,2.5c-0.2,0.9,0.2,1.9,0.9,2.6c0.4,0.4,0.8,0.8,1.2,1.2
		c0.3,0.3,0.6,0.6,0.9,0.8c-0.1,0.4-0.1,0.8-0.2,1.2c-0.1,0.6-0.2,1.2-0.3,1.8C57,38.1,57.8,39.5,59,40c0.4,0.2,0.8,0.2,1.2,0.2
		c0.5,0,1-0.1,1.5-0.4c0.4-0.2,0.7-0.4,1.1-0.6c0.4-0.2,0.9-0.5,1.4-0.7c0.1,0.1,0.3,0.1,0.4,0.2c0.3,0.1,0.6,0.3,0.8,0.4l0.1,0
		l0-0.1c0-0.2,0.1-0.4,0.1-0.6c0.1-0.3,0.1-0.6,0.1-0.9l0,0l0,0C65.4,37.3,65,37.2,64.7,37z"/>
	<path class="st0" d="M95.1,27.4c-0.4-0.4-1-0.7-1.7-0.8c-0.4-0.1-0.8-0.1-1.2-0.2c-0.5-0.1-1-0.1-1.5-0.2c-0.2-0.4-0.4-0.8-0.6-1.2
		c-0.2-0.5-0.5-1-0.8-1.5c-0.6-1.2-2.2-1.8-3.5-1.4c-0.8,0.2-1.5,0.8-1.9,1.5c-0.2,0.4-0.4,0.8-0.6,1.1c-0.2,0.3-0.3,0.7-0.5,1
		l0,0.1l0.1,0c0.5,0.1,1.1,0.2,1.6,0.2l0,0l0,0c0.1-0.2,0.2-0.4,0.3-0.6c0.2-0.4,0.4-0.8,0.6-1.2c0.4-0.6,1.2-0.9,1.9-0.5
		c0.4,0.2,0.6,0.6,0.8,0.9c0.2,0.4,0.4,0.8,0.6,1.3c0.3,0.6,0.6,1.2,0.8,1.7l0,0l0,0c0.8,0.1,1.5,0.2,2.3,0.3
		c0.4,0.1,0.8,0.1,1.1,0.2c0.3,0,0.8,0.2,1.1,0.5c0.2,0.3,0.4,0.6,0.4,1c0,0.4-0.2,0.7-0.4,1c-0.2,0.2-0.4,0.4-0.6,0.6
		c-0.6,0.6-1.3,1.3-2,1.9l0,0l0,0c0.1,0.7,0.2,1.5,0.4,2.2c0.1,0.5,0.2,0.9,0.2,1.4c0.1,0.5,0,0.9-0.3,1.2c-0.4,0.5-1.2,0.7-1.8,0.4
		c-0.7-0.4-1.5-0.8-2.2-1.2c-0.3-0.2-0.7-0.4-1-0.5l0,0l-0.3,0.2c-0.4,0.2-0.8,0.4-1.2,0.7l0,0l0,0c0,0.2,0.1,0.5,0.1,0.7
		c0,0.3,0.1,0.6,0.2,0.8l0,0.1l0.1,0c0.3-0.1,0.5-0.2,0.8-0.4c0.2-0.1,0.3-0.2,0.5-0.2l0.6,0.3c0.6,0.3,1.3,0.7,1.9,1
		c0.4,0.2,0.9,0.3,1.4,0.3c0.4,0,0.8-0.1,1.2-0.3c0.8-0.3,1.4-1,1.7-1.8l0-0.1l-0.1,0c-0.2,0-0.4-0.1-0.5-0.1c0,0,0,0,0,0
		c0-0.1,0-0.3,0.1-0.4c0.1-0.1,0.3-0.1,0.4-0.1c0.1,0,0.1,0,0.2,0l0.1,0L93.6,37l0,0l0-0.1c-0.1-0.4-0.1-0.8-0.2-1.2
		c-0.1-0.6-0.2-1.2-0.3-1.9c0.5-0.4,0.9-0.9,1.3-1.3c0.2-0.2,0.4-0.4,0.6-0.6c0.4-0.4,0.7-0.9,0.9-1.5
		C96.3,29.4,95.9,28.2,95.1,27.4z"/>
</g>
<g>
	<path class="st0" d="M107.3,4.4h7.4c1.5,0.1,3,1.3,3.2,2.8c0.1,1,0.1,1.9,0.1,2.9c-0.1,0.6-1,0.7-1.3,0.2c-0.2-1,0.1-2-0.1-3
		c-0.2-0.9-1.2-1.6-2.1-1.6c-2.3,0-4.6,0-6.9,0c-1.2,0-2.2,1-2.2,2.2c0,7.9,0,15.7,0,23.6c0,0.3,0,0.7-0.4,0.8
		c-0.4,0.3-0.9-0.1-1-0.5V7.8C104,6,105.5,4.5,107.3,4.4z"/>
	<path class="st0" d="M120.8,8.6c0.9-1.5,3-2.1,4.6-1.2c2.1,1.2,4.1,2.4,6.2,3.6c1.2,0.7,2,2.2,1.7,3.6c-0.1,0.6-0.5,1.2-0.7,1.8
		c-0.3,0.6-0.5,1.2-0.9,1.6c-0.4,0-1-0.3-0.9-0.8c0.3-0.9,0.8-1.7,1.1-2.6c0.3-0.9-0.1-2-1-2.5c-2-1.2-4.1-2.4-6.1-3.5
		c-0.9-0.5-2.3-0.2-2.8,0.7c-4.1,7.2-8.3,14.3-12.4,21.5c-0.2,0.4-0.9,0.5-1.1,0.1c-0.2-0.2-0.2-0.6,0-0.9
		C112.5,22.9,116.6,15.7,120.8,8.6z"/>
	<path class="st0" d="M107,11.6c0.2-0.2,0.6-0.1,0.9-0.1c2.2,0,4.4,0,6.5,0c0.5-0.1,0.9,0.5,0.7,1c-0.1,0.3-0.5,0.5-0.9,0.4
		c-2.3,0-4.5,0-6.8,0C106.8,12.9,106.5,12,107,11.6z"/>
	<path class="st0" d="M121.2,13.5c0.3-0.3,0.7,0,1,0.1c1.9,1.1,3.9,2.2,5.8,3.4c0.7,0.4,0,1.6-0.6,1.2c-2-1.1-4.1-2.3-6.1-3.5
		C120.9,14.5,120.8,13.8,121.2,13.5z"/>
	<path class="st0" d="M135.7,17.3c1.5-0.4,3.2,0.3,3.9,1.6c1.2,2,2.3,4.1,3.5,6.1c0.9,1.5,0.5,3.5-0.9,4.5c-0.9,0.6-1.8,1.1-2.7,1.6
		c-0.6,0.4-1.4-0.4-0.9-1c1-0.8,2.3-1.2,3.2-2.1c0.6-0.7,0.6-1.7,0.2-2.4c-1.1-2-2.3-4-3.4-6c-0.4-0.7-1.3-1.2-2.1-1.1
		c-0.7,0.1-1.2,0.5-1.7,0.8c-6.7,3.9-13.5,7.8-20.2,11.7c-0.7,0.4-1.4-0.7-0.7-1.2c6.6-3.8,13.1-7.6,19.7-11.4
		C134.1,18.1,134.8,17.6,135.7,17.3z"/>
	<path class="st0" d="M107.2,18.5c1.7-0.1,3.5,0,5.2-0.1c0.8,0,0.9,1.2,0.1,1.3c-1.7,0-3.5,0-5.2,0
		C106.6,19.8,106.6,18.8,107.2,18.5z"/>
	<path class="st0" d="M117.8,19.6c0.4-0.3,0.8,0.1,1.1,0.2c1.2,0.7,2.5,1.4,3.7,2.1c0.5,0.2,0.5,0.9,0,1.2c-0.3,0.1-0.6,0.1-0.8-0.1
		c-1.4-0.8-2.8-1.6-4.2-2.4C117.4,20.3,117.3,19.8,117.8,19.6z"/>
	<path class="st0" d="M132.5,22.3c0.4-0.3,0.9-0.1,1.1,0.3c1.1,1.9,2.2,3.9,3.4,5.8c0.2,0.3,0.3,0.7,0,1c-0.3,0.4-0.9,0.2-1.1-0.2
		c-1.2-2-2.4-4.1-3.5-6.1C132.1,22.8,132.3,22.5,132.5,22.3z"/>
	<path class="st0" d="M107,25.7c0.4-0.2,0.8-0.1,1.2-0.1c0.6,0,0.8,1,0.3,1.2c-0.6,0.2-1.6,0.3-1.8-0.5
		C106.7,26.1,106.8,25.8,107,25.7z"/>
	<path class="st0" d="M114.3,25.6c0.6-0.2,1.1,0.3,1.5,0.5c0.5,0.3,0.2,1.3-0.4,1.2c-0.5-0.1-0.9-0.4-1.3-0.7
		C113.8,26.3,113.9,25.8,114.3,25.6z"/>
	<path class="st0" d="M126.8,25.5c0.2,0.1,0.5,0.2,0.6,0.5c0.7,1.3,1.5,2.5,2.2,3.8c0.2,0.3,0.4,0.6,0.2,1c-0.2,0.5-1,0.4-1.2-0.1
		c-0.8-1.4-1.6-2.7-2.4-4.1C125.9,26.1,126.4,25.7,126.8,25.5z"/>
	<path class="st0" d="M120,29.4c0.2-0.3,0.6-0.6,1-0.3c0.4,0.3,0.7,0.9,0.8,1.4c0,0.6-0.7,0.8-1.2,0.6C120.4,30.5,119.8,30,120,29.4
		z"/>
	<path class="st0" d="M103.9,35.8c0.1-1.8,1.7-3.4,3.6-3.3c11.7,0,23.4,0,35,0c1.9,0,3.5,1.6,3.5,3.5v7.2c-0.1,1.8-1.6,3.3-3.5,3.4
		h-22.7c-0.4-0.2-0.7-0.6-0.4-1.1c0.2-0.3,0.6-0.3,0.9-0.3c7.4,0,14.7,0,22.1,0c1.2,0,2.2-1,2.2-2.2c0-2.3,0-4.6,0-6.9
		c0-1.2-1-2.2-2.2-2.2c-11.7,0-23.3,0-35,0c-0.8,0-1.6,0.4-2,1.2c-0.3,0.5-0.2,1.2-0.2,1.8c0,2.1,0,4.2,0,6.3c0,1.1,1.1,2,2.2,2
		c3,0,6.1,0,9.1,0c0-3,0-6.1,0-9.1c-0.1-0.5,0.6-1,1-0.6c0.4,0.3,0.3,0.8,0.3,1.2c0,3.1,0,6.1,0,9.2c0,0.4-0.3,0.6-0.6,0.7h-10.1
		c-1.8-0.1-3.4-1.6-3.4-3.4V35.8z"/>
	<path class="st0" d="M123.6,35.9c0.1-0.7,1.2-0.8,1.3,0c0,2.2,0,4.5,0,6.7c0,0.4,0,0.8-0.4,1c-0.3,0.2-0.6,0-0.9-0.1
		c-0.1-0.3-0.2-0.6-0.2-0.9C123.6,40.4,123.6,38.2,123.6,35.9z"/>
	<path class="st0" d="M131.1,35.4c0.5-0.2,1,0.4,0.9,0.9c0,2.3,0,4.6,0,6.9c-0.1,0.7-1.2,0.7-1.3,0c-0.1-2.3,0-4.6,0-6.9
		C130.6,35.9,130.7,35.5,131.1,35.4z"/>
	<path class="st0" d="M138.1,35.4c0.4-0.2,1,0.2,0.9,0.7c0,2.3,0,4.6,0,6.9c0.1,0.5-0.6,1-1.1,0.6c-0.3-0.1-0.3-0.5-0.3-0.8
		c0-2.2,0-4.4,0-6.6C137.6,35.9,137.8,35.5,138.1,35.4z"/>
	<g>
		<path class="st0" d="M110.2,37.6c1.1-0.5,2.6,0.3,2.8,1.5c0.3,1.1-0.6,2.4-1.8,2.5c-1.1,0.2-2.2-0.7-2.3-1.8
			C108.7,38.9,109.3,37.9,110.2,37.6z M110.6,38.9c-0.8,0.5,0,1.7,0.7,1.2C112.1,39.7,111.4,38.4,110.6,38.9z"/>
	</g>
</g>
</svg>
