<?xml version="1.0" encoding="utf-8"?>
<!-- Generator: Adobe Illustrator 25.3.0, SVG Export Plug-In . SVG Version: 6.00 Build 0)  -->
<svg version="1.1" id="Capa_1" xmlns="http://www.w3.org/2000/svg" xmlns:xlink="http://www.w3.org/1999/xlink" x="0px" y="0px"
	 width="447px" height="401px" viewBox="0 0 447 401" style="enable-background:new 0 0 447 401;" xml:space="preserve">
<style type="text/css">
	.st0{stroke:#000000;}
	.st1{fill:none;stroke:#000000;stroke-width:0.75;}
	.st2{fill:#FFFFFF;}
</style>
<g>
	<path class="st0" d="M114.1,108.7L91.5,44.8h17l11.3,36.4c0.4,1.2,0.7,2.7,1.2,4.4c0.4,1.7,0.7,3.1,1,4.2l0.3,1.7h0.2
		c0.8-4.2,1.6-7.6,2.4-10.3l11.4-36.4h16.7l-22.5,63.9H114.1z"/>
	<path class="st0" d="M161.3,108.7V44.8h15.6v63.9H161.3z"/>
	<path class="st0" d="M188.2,100.6l8.2-11.9c2,1.8,4.4,3.3,7.2,4.6c2.8,1.3,5.5,2,8.1,2c2.1,0,3.7-0.4,4.9-1.3
		c1.2-0.8,1.7-1.9,1.7-3.2c0-1.4-0.7-2.6-2.1-3.8c-1.4-1.2-3.1-2.1-5.2-2.9c-2.1-0.8-4.4-1.8-6.8-3c-2.4-1.2-4.7-2.5-6.8-3.9
		c-2.1-1.4-3.8-3.3-5.2-5.7c-1.4-2.4-2.1-5.2-2.1-8.4c0-5.8,2.2-10.6,6.5-14.2c4.3-3.6,9.9-5.4,16.7-5.4c7.9,0,14.6,2.4,20,7.2
		l-6.6,12.8c-1.8-1.6-4.1-2.9-6.6-4c-2.6-1.1-5.1-1.6-7.5-1.6c-2.3,0-4,0.4-5.1,1.3c-1.1,0.8-1.7,1.9-1.7,3.3c0,1.4,0.7,2.6,2.1,3.8
		c1.4,1.1,3.1,2.1,5.2,2.8c2.1,0.7,4.3,1.7,6.8,2.9c2.4,1.2,4.7,2.4,6.8,3.8c2.1,1.3,3.8,3.2,5.2,5.6c1.4,2.4,2.1,5.2,2.1,8.4
		c0,5.7-2,10.4-6,14.2c-4,3.8-9.6,5.7-16.7,5.7c-4.3,0-8.5-0.8-12.6-2.3C194.7,105.9,191.2,103.6,188.2,100.6z"/>
	<path class="st0" d="M246.2,108.7V44.8h15.6v63.9H246.2z"/>
	<path class="st0" d="M274,76.3c0-9.3,3.1-17.1,9.4-23.3c6.3-6.2,14.3-9.3,24-9.3c9.8,0,17.8,3.1,24,9.3c6.3,6.2,9.4,14,9.4,23.3
		c0,9.5-3.1,17.5-9.4,23.9c-6.3,6.4-14.3,9.6-24,9.6c-9.8,0-17.8-3.2-24-9.6C277.1,93.8,274,85.9,274,76.3z M290.2,76.3
		c0,5.5,1.6,10,4.9,13.7c3.2,3.6,7.4,5.5,12.4,5.5s9.1-1.8,12.4-5.5c3.2-3.6,4.9-8.2,4.9-13.7c0-5.2-1.6-9.6-4.9-13.1
		c-3.2-3.5-7.4-5.2-12.4-5.2s-9.1,1.7-12.4,5.2C291.8,66.7,290.2,71.1,290.2,76.3z M301,40.7l7.2-13.4h15.3l-10.5,13.4H301z"/>
	<path class="st0" d="M353,108.7V44.8h15.8l17.7,29.9c0.7,1.3,1.5,2.8,2.4,4.6c0.9,1.8,1.6,3.3,2.1,4.5l0.8,1.8h0.2
		c-0.5-4.6-0.7-8.2-0.7-10.9V44.8H407v63.9h-15.7l-17.8-29.8c-0.7-1.3-1.5-2.8-2.4-4.6c-0.9-1.8-1.6-3.3-2.1-4.5l-0.8-1.8h-0.2
		c0.5,4.6,0.7,8.2,0.7,10.9v29.8H353z"/>
</g>
<g>
	<path d="M210.1,149.4v-27.7h9.9c2.6,0,4.7,0.6,6.2,1.9c1.6,1.3,2.4,3,2.4,5.3c0,1.3-0.3,2.5-0.9,3.5s-1.4,1.8-2.5,2.4v0.1
		c1.5,0.4,2.6,1.2,3.3,2.5c0.8,1.2,1.2,2.6,1.2,4.1c0,2.6-0.9,4.6-2.7,6c-1.8,1.4-4.1,2-6.8,2H210.1z M215.2,133h4.9
		c1.1,0,1.9-0.3,2.5-1c0.6-0.7,0.9-1.5,0.9-2.6c0-1-0.3-1.8-0.9-2.5c-0.6-0.6-1.5-1-2.6-1h-4.8V133z M215.2,145.1h5.4
		c1.2,0,2.2-0.4,2.9-1.1c0.7-0.7,1.1-1.7,1.1-2.9c0-1.2-0.4-2.1-1.1-2.9c-0.7-0.7-1.7-1.1-2.9-1.1h-5.4V145.1z"/>
	<path d="M234.8,149.4v-27.7h9.1c2.3,0,4.1,0.2,5.2,0.7c1.5,0.6,2.6,1.5,3.4,2.8c0.8,1.3,1.2,2.9,1.2,4.7c0,1.7-0.4,3.2-1.2,4.6
		c-0.8,1.4-2,2.4-3.4,2.9v0.1c0.2,0.3,0.5,0.8,0.9,1.4l5.7,10.3h-5.7l-5.5-10.3h-4.8v10.3H234.8z M239.9,134.7h4.5
		c1.4,0,2.4-0.4,3.2-1.2c0.8-0.8,1.2-1.9,1.2-3.2c0-1.9-0.7-3.2-2.2-3.8c-0.7-0.3-1.7-0.5-3-0.5h-3.7V134.7z"/>
	<path d="M256.8,149.4l9.7-27.7h5.3l9.7,27.7h-5.2l-2.4-7.1h-9.7l-2.3,7.1H256.8z M265.5,138.2h7.2l-2.5-7.4l-1.1-4.3h-0.1
		c-0.4,1.8-0.8,3.3-1.1,4.3L265.5,138.2z"/>
	<path d="M285.2,149.4v-27.7h5l10.5,16c0.3,0.5,0.7,1.1,1,1.8c0.4,0.7,0.7,1.3,0.9,1.8l0.4,0.7h0.1c-0.2-1.8-0.3-3.2-0.3-4.3v-16h5
		v27.7h-5l-10.5-16c-0.3-0.5-0.7-1.1-1-1.8c-0.4-0.7-0.7-1.3-0.9-1.8l-0.4-0.7H290c0.2,1.8,0.3,3.2,0.3,4.3v16H285.2z"/>
	<path d="M314.6,149.4v-27.7h9.4c4.3,0,7.8,1.2,10.3,3.7c2.5,2.4,3.8,5.8,3.8,10.1s-1.3,7.7-3.8,10.2c-2.6,2.5-6,3.7-10.3,3.7H314.6
		z M319.6,145.1h4.1c2.9,0,5.1-0.8,6.8-2.5c1.6-1.7,2.5-4,2.5-7.1c0-3-0.8-5.4-2.5-7c-1.7-1.7-3.9-2.5-6.7-2.5h-4.1V145.1z"/>
	<path d="M343.4,149.4v-27.7h5v27.7H343.4z"/>
	<path d="M355.1,149.4v-27.7h5l10.5,16c0.3,0.5,0.7,1.1,1,1.8c0.4,0.7,0.7,1.3,0.9,1.8l0.4,0.7h0.1c-0.2-1.8-0.3-3.2-0.3-4.3v-16h5
		v27.7h-5l-10.5-16c-0.3-0.5-0.7-1.1-1-1.8c-0.4-0.7-0.7-1.3-0.9-1.8l-0.4-0.7h-0.1c0.2,1.8,0.3,3.2,0.3,4.3v16H355.1z"/>
	<path d="M382.9,135.5c0-4,1.4-7.4,4.1-10.2c2.7-2.7,6.1-4.1,10.2-4.1c4.2,0,7.6,1.2,10.3,3.5l-2.5,3.7c-0.9-0.8-2-1.4-3.4-1.9
		c-1.4-0.5-2.7-0.7-4-0.7c-3,0-5.3,0.9-7,2.7c-1.7,1.8-2.5,4.1-2.5,6.8c0,2.9,0.9,5.3,2.7,7.2c1.8,1.8,4,2.8,6.6,2.8
		c2.6,0,4.9-1,6.9-2.9v-3.2h-4.3v-4.3h8.8v14.6h-4.3v-1.3l0-1.2h-0.1c-0.9,0.9-2.1,1.6-3.5,2.1c-1.4,0.5-2.9,0.8-4.5,0.8
		c-3.8,0-7-1.3-9.6-4S382.9,139.7,382.9,135.5z"/>
</g>
<g>
	<path class="st1" d="M234.5,258.3l-8.2-22.7h4.5l5,14.8l0.9,3.3h0.1c0.3-1.3,0.6-2.5,0.9-3.3l5.1-14.8h4.4l-8.2,22.7H234.5z"/>
	<path class="st1" d="M249.9,258.3v-22.7h4.1v22.7H249.9z"/>
	<path class="st1" d="M257.9,255.6l2.2-3.1c0.7,0.7,1.6,1.2,2.6,1.7s2,0.7,3,0.7c1,0,1.8-0.2,2.4-0.7c0.6-0.5,0.9-1.1,0.9-1.9
		c0-0.8-0.4-1.5-1.1-2c-0.7-0.6-1.6-1.1-2.6-1.5c-1-0.4-2.1-0.9-3.1-1.4c-1-0.5-1.9-1.2-2.7-2.2c-0.7-0.9-1.1-2.1-1.1-3.4
		c0-2,0.7-3.6,2.2-4.8c1.5-1.2,3.3-1.8,5.6-1.8c2.7,0,4.9,0.8,6.7,2.4l-1.8,3.4c-0.6-0.6-1.4-1.1-2.3-1.4c-0.9-0.4-1.8-0.6-2.7-0.6
		c-1,0-1.9,0.2-2.5,0.7s-0.9,1.1-0.9,1.9c0,0.8,0.4,1.4,1.1,2c0.7,0.6,1.6,1,2.6,1.4c1,0.4,2.1,0.9,3.1,1.4c1,0.5,1.9,1.2,2.7,2.2
		c0.7,0.9,1.1,2.1,1.1,3.4c0,1.9-0.7,3.5-2,4.8c-1.3,1.3-3.2,1.9-5.5,1.9c-1.5,0-2.9-0.3-4.2-0.8
		C260.1,257.4,258.9,256.6,257.9,255.6z"/>
	<path class="st1" d="M277.4,258.3v-22.7h4.1v22.7H277.4z"/>
	<path class="st1" d="M285.7,246.8c0-3.3,1.1-6,3.3-8.3c2.2-2.2,5-3.3,8.4-3.3c3.4,0,6.2,1.1,8.4,3.3c2.2,2.2,3.3,5,3.3,8.3
		c0,3.4-1.1,6.2-3.3,8.5c-2.2,2.3-5,3.4-8.4,3.4c-3.4,0-6.2-1.1-8.4-3.4C286.8,253,285.7,250.2,285.7,246.8z M289.9,246.8
		c0,2.3,0.7,4.3,2.1,5.8c1.4,1.5,3.2,2.3,5.4,2.3c2.2,0,3.9-0.8,5.4-2.3c1.4-1.5,2.1-3.5,2.1-5.8c0-2.2-0.7-4.1-2.1-5.6
		c-1.4-1.5-3.2-2.2-5.4-2.2c-2.2,0-3.9,0.7-5.4,2.2C290.6,242.7,289.9,244.6,289.9,246.8z M295.6,234.1l2.4-4.4h4.2l-3.4,4.4H295.6z
		"/>
	<path class="st1" d="M313.3,258.3v-22.7h4.1l8.6,13.1c0.3,0.4,0.5,0.9,0.8,1.5c0.3,0.6,0.6,1.1,0.8,1.5l0.3,0.6h0.1
		c-0.1-1.5-0.2-2.6-0.2-3.5v-13.1h4.1v22.7h-4.1l-8.6-13.1c-0.3-0.4-0.5-0.9-0.8-1.5c-0.3-0.6-0.6-1.1-0.8-1.5l-0.3-0.6h-0.1
		c0.1,1.5,0.2,2.6,0.2,3.5v13.1H313.3z"/>
	<path class="st1" d="M345.5,258.3v-22.7h7.8c3.5,0,6.4,1,8.5,3c2.1,2,3.1,4.8,3.1,8.3s-1,6.3-3.1,8.4c-2.1,2-4.9,3-8.5,3H345.5z
		 M349.6,254.8h3.4c2.3,0,4.2-0.7,5.5-2c1.3-1.4,2-3.3,2-5.8c0-2.5-0.7-4.4-2-5.8c-1.4-1.4-3.2-2-5.5-2h-3.4V254.8z"/>
	<path class="st1" d="M369.1,258.3v-22.7h13.6v3.6h-9.5v6h7.7v3.6h-7.7v6.1h10v3.6H369.1z"/>
	<path class="st1" d="M228.9,296.8V274h13.1v3.6H233v6.4h7.5v3.6H233v9.2H228.9z"/>
	<path class="st1" d="M245.4,288.6V274h4.1v14.5c0,1.5,0.5,2.7,1.4,3.5c0.9,0.8,2.1,1.3,3.7,1.3s2.8-0.4,3.7-1.3
		c0.9-0.8,1.4-2,1.4-3.5V274h4.1v14.6c0,2.5-0.8,4.6-2.5,6.2c-1.7,1.6-3.9,2.4-6.6,2.4c-2.8,0-5-0.8-6.7-2.4
		C246.2,293.2,245.4,291.2,245.4,288.6z"/>
	<path class="st1" d="M274.1,296.8v-19.2h-7.5V274h19v3.6h-7.5v19.2H274.1z"/>
	<path class="st1" d="M288.6,288.6V274h4.1v14.5c0,1.5,0.5,2.7,1.4,3.5c0.9,0.8,2.1,1.3,3.7,1.3s2.8-0.4,3.7-1.3
		c0.9-0.8,1.4-2,1.4-3.5V274h4.1v14.6c0,2.5-0.8,4.6-2.5,6.2c-1.7,1.6-3.9,2.4-6.6,2.4c-2.8,0-5-0.8-6.7-2.4
		C289.4,293.2,288.6,291.2,288.6,288.6z"/>
	<path class="st1" d="M312.2,296.8V274h7.5c1.9,0,3.4,0.2,4.3,0.6c1.2,0.5,2.1,1.3,2.8,2.3c0.7,1.1,1,2.4,1,3.9c0,1.4-0.3,2.7-1,3.8
		s-1.6,1.9-2.8,2.4v0.1c0.2,0.2,0.4,0.6,0.7,1.2l4.7,8.5h-4.6l-4.5-8.5h-4v8.5H312.2z M316.3,284.7h3.7c1.1,0,2-0.3,2.6-1
		s1-1.5,1-2.6c0-1.6-0.6-2.6-1.8-3.1c-0.6-0.3-1.4-0.4-2.5-0.4h-3V284.7z"/>
	<path class="st1" d="M331.1,285.3c0-3.3,1.1-6,3.3-8.3c2.2-2.2,5-3.3,8.4-3.3c3.4,0,6.2,1.1,8.4,3.3c2.2,2.2,3.3,5,3.3,8.3
		c0,3.4-1.1,6.2-3.3,8.5c-2.2,2.3-5,3.4-8.4,3.4c-3.4,0-6.2-1.1-8.4-3.4C332.2,291.5,331.1,288.6,331.1,285.3z M335.4,285.3
		c0,2.3,0.7,4.3,2.1,5.8c1.4,1.5,3.2,2.3,5.4,2.3c2.2,0,3.9-0.8,5.4-2.3c1.4-1.5,2.1-3.5,2.1-5.8c0-2.2-0.7-4.1-2.1-5.6
		c-1.4-1.5-3.2-2.2-5.4-2.2c-2.2,0-3.9,0.7-5.4,2.2C336.1,281.2,335.4,283,335.4,285.3z"/>
	<path class="st1" d="M357.7,296.8v-4.1h4.1v4.1H357.7z"/>
	<path class="st1" d="M234.5,335.2l-8.2-22.7h4.5l5,14.8l0.9,3.3h0.1c0.3-1.3,0.6-2.5,0.9-3.3l5.1-14.8h4.4l-8.2,22.7H234.5z"/>
	<path class="st1" d="M246.2,335.2l8-22.7h4.4l8,22.7h-4.2l-2-5.8h-8l-1.9,5.8H246.2z M253.4,326h5.9l-2-6.1l-0.9-3.5h-0.1
		c-0.3,1.5-0.6,2.7-0.9,3.5L253.4,326z"/>
	<path class="st1" d="M269.5,335.2v-22.7h4.1v19.2h9.8v3.6H269.5z"/>
	<path class="st1" d="M284.5,323.7c0-3.3,1.1-6,3.3-8.3c2.2-2.2,5-3.3,8.4-3.3c3.4,0,6.2,1.1,8.4,3.3c2.2,2.2,3.3,5,3.3,8.3
		c0,3.4-1.1,6.2-3.3,8.5c-2.2,2.3-5,3.4-8.4,3.4c-3.4,0-6.2-1.1-8.4-3.4C285.6,329.9,284.5,327.1,284.5,323.7z M288.8,323.7
		c0,2.3,0.7,4.3,2.1,5.8c1.4,1.5,3.2,2.3,5.4,2.3c2.2,0,3.9-0.8,5.4-2.3c1.4-1.5,2.1-3.5,2.1-5.8c0-2.2-0.7-4.1-2.1-5.6
		c-1.4-1.5-3.2-2.2-5.4-2.2c-2.2,0-3.9,0.7-5.4,2.2C289.5,319.6,288.8,321.5,288.8,323.7z"/>
	<path class="st1" d="M312.2,335.2v-22.7h7.5c1.9,0,3.4,0.2,4.3,0.6c1.2,0.5,2.1,1.3,2.8,2.3c0.7,1.1,1,2.4,1,3.9
		c0,1.4-0.3,2.7-1,3.8s-1.6,1.9-2.8,2.4v0.1c0.2,0.2,0.4,0.6,0.7,1.2l4.7,8.5h-4.6l-4.5-8.5h-4v8.5H312.2z M316.3,323.1h3.7
		c1.1,0,2-0.3,2.6-1s1-1.5,1-2.6c0-1.6-0.6-2.6-1.8-3.1c-0.6-0.3-1.4-0.4-2.5-0.4h-3V323.1z"/>
	<path class="st1" d="M228.9,373.7v-22.7h4.1v22.7H228.9z"/>
	<path class="st1" d="M238.5,373.7v-22.7h4.1l8.6,13.1c0.3,0.4,0.5,0.9,0.8,1.5c0.3,0.6,0.6,1.1,0.8,1.5l0.3,0.6h0.1
		c-0.1-1.5-0.2-2.6-0.2-3.5v-13.1h4.1v22.7H253l-8.6-13.1c-0.3-0.4-0.5-0.9-0.8-1.5c-0.3-0.6-0.6-1.1-0.8-1.5l-0.3-0.6h-0.1
		c0.1,1.5,0.2,2.6,0.2,3.5v13.1H238.5z"/>
	<path class="st1" d="M261.8,373.7l1.9-22.7h4.4l4.5,11.2l1.1,3.3h0.1c0.4-1.3,0.8-2.4,1.1-3.3l4.5-11.2h4.4l1.9,22.7h-4.1
		l-0.9-12.7c0-0.4-0.1-1-0.1-1.6c0-0.6,0-1.1,0-1.4v-0.5h-0.1c-0.5,1.5-0.9,2.6-1.2,3.5l-3.7,8.8h-3.6l-3.7-8.8l-1.2-3.6h-0.1
		c0.1,1.4,0.1,2.6,0,3.6l-0.9,12.7H261.8z"/>
	<path class="st1" d="M290.2,373.7v-22.7h13.6v3.6h-9.5v6h7.7v3.6h-7.7v6.1h10v3.6H290.2z"/>
	<path class="st1" d="M308.4,373.7v-22.7h7.8c3.5,0,6.4,1,8.5,3c2.1,2,3.1,4.8,3.1,8.3s-1,6.3-3.1,8.4c-2.1,2-4.9,3-8.5,3H308.4z
		 M312.5,370.1h3.4c2.3,0,4.2-0.7,5.5-2c1.3-1.4,2-3.3,2-5.8c0-2.5-0.7-4.4-2-5.8c-1.4-1.4-3.2-2-5.5-2h-3.4V370.1z"/>
	<path class="st1" d="M332,373.7v-22.7h4.1v22.7H332z"/>
	<path class="st1" d="M339.1,373.7l8-22.7h4.4l8,22.7h-4.2l-2-5.8h-8l-1.9,5.8H339.1z M346.3,364.5h5.9l-2-6.1l-0.9-3.5h-0.1
		c-0.3,1.5-0.6,2.7-0.9,3.5L346.3,364.5z"/>
	<path class="st1" d="M365.7,373.7v-19.2h-7.5v-3.6h19v3.6h-7.5v19.2H365.7z"/>
	<path class="st1" d="M378.4,362.1c0-3.3,1.1-6,3.3-8.3c2.2-2.2,5-3.3,8.4-3.3c3.4,0,6.2,1.1,8.4,3.3c2.2,2.2,3.3,5,3.3,8.3
		c0,3.4-1.1,6.2-3.3,8.5c-2.2,2.3-5,3.4-8.4,3.4c-3.4,0-6.2-1.1-8.4-3.4C379.5,368.3,378.4,365.5,378.4,362.1z M382.6,362.1
		c0,2.3,0.7,4.3,2.1,5.8c1.4,1.5,3.2,2.3,5.4,2.3c2.2,0,3.9-0.8,5.4-2.3c1.4-1.5,2.1-3.5,2.1-5.8c0-2.2-0.7-4.1-2.1-5.6
		c-1.4-1.5-3.2-2.2-5.4-2.2c-2.2,0-3.9,0.7-5.4,2.2C383.3,358,382.6,359.9,382.6,362.1z"/>
	<path class="st1" d="M404.9,373.7v-4.1h4.1v4.1H404.9z"/>
</g>
<g>
	<polygon points="428.5,372 427.5,372 427.5,337.5 362.7,337.5 386.4,313.8 386.4,287.2 427.5,271.3 427.5,215.9 231.2,215.9 
		231.2,214.9 428.5,214.9 428.5,272 387.4,287.8 387.4,314.2 365.1,336.5 428.5,336.5 	"/>
</g>
<g>
	<g>
		<path class="st2" d="M111.3,390.6c0.4-0.8,0.8-1.6,1.1-2.4c2.2-4.9,4.2-9.8,6.3-14.7c1.8-4.3,4-8.5,4.6-13.2
			c0.5-3.9,0-7.9-1.2-11.6c-1.2-3.7-3.2-7-5.9-9.7c0.3-0.2,0.5-0.4,0.8-0.5c6-4.2,11.1-9.6,15.1-15.7c3.6,6,8.1,11.5,13.4,15.9
			c-0.4-8,0.3-16.2,2-24c1.4,1.7,2.8,3.6,4.4,5.2c1.4,1.3,2.8,2.7,4.7,3.2c0-4.8,0.5-9.5,1.3-14.2c1.8-10.1,4.6-20,7.6-29.7
			c0.2-0.4,0.2-0.9,0.6-1.3c1.3-0.2,2.6-0.2,3.9-0.4c5.5-0.7,11-2.1,15.8-4.7c6.3-3.4,11.5-9.1,14-16c0.3-0.9,0.6-1.8,0.7-2.7
			c-3.3-3.4-7.5-5.7-11.4-8.3c6.4-5.1,12.4-10.8,17.2-17.5c2.5-3.5,4.7-7.3,6-11.5c1.1-5,0.6-10.2-0.6-15.1
			c-1.6-6.1-4.3-11.8-7.4-17.2c-3.8-6.4-8.2-12.3-13.1-17.8c-0.9-1.1-2-2.1-2.9-3.3c1.9-1.9,3.1-4.6,3.1-7.3
			c0.1-6.7-5.8-13-12.4-12.8c-2.8,0-5.5,1.3-7.8,2.9c-5.1-5.4-10.6-10.4-16.8-14.3c-6.9-4.3-14.7-7.4-22.8-7.7
			c-3.9-0.2-7.9,0.6-11.2,2.8c-4.2,2.8-7,7.1-10.1,11c-1-2.6-1.8-5.3-3.2-7.8c-0.2-0.4-0.5-0.7-0.9-0.6c-5.1,0.1-10.1,1.8-14.3,4.6
			c-2.1,1.4-4,3.1-5.8,4.9c-2.6-2.5-5.2-5-8-7.3c-6.3-5.2-13.1-9.9-20.8-12.5c-4.4-1.5-9.2-2.3-13.8-1.3c-3.1,0.7-6.1,2.4-7.9,5.2
			c-1.7,2.6-2.1,5.9-1.3,8.9c0.8,3.3,3,6,5.3,8.3c4.2,4,9.2,7,14.3,9.6c6,2.9,12.2,5.3,18.6,7.3c0.9,0.2,1.8,0.5,2.6,0.9
			c-0.9,0.3-1.8,0.3-2.7,0.3c-7.6,0.5-15.3,0.6-22.9,0.3c-6.2-0.3-12.4-0.8-18.3-2.6c0,1.9,0.9,3.7,1.8,5.3c1.1,2.1,2.6,3.9,3.8,5.8
			c-4.2-0.1-8.3-0.7-12.4-1.3c-3.7-0.6-7.2-1.6-10.8-2.6c3,6.4,6.9,12.3,11.7,17.4c-4.3,1.5-8.4,3.6-12.2,6.2c-0.5,0.3-1,0.7-1.5,1
			v202.8H111.3z"/>
	</g>
	<g>
		<path d="M19.8,215.4c-2.8-0.2-5.6-0.8-8.3-1.7v16.2c0.9-1.8,1.8-3.6,2.8-5.4C16,221.4,17.8,218.4,19.8,215.4z"/>
	</g>
	<g>
		<path d="M29,316.8c-0.8-0.5-1.6-1-2.3-1.6c-3.4-2.7-6-6.1-8.5-9.6c-2.3-3.2-4.6-6.5-6.6-10v94.9h40.7c0.1-0.1,0.2-0.3,0.4-0.4
			c0-0.1,0.1-0.3,0.1-0.4c0.3-0.4,0.6-0.8,0.9-1.2c0.2-0.1,0.4-0.1,0.7-0.1c0.2-0.2,0.4-0.4,0.6-0.6c1.3-1.2,3,0.8,2,2.2l1.3,0.6h51
			c0.6-1.1,1.2-2.3,1.7-3.5c2.2-4.8,4.2-9.7,6.3-14.6c1.8-4.2,4-8.5,4.5-13.1c0.5-3.9,0-7.8-1.2-11.5c-1.2-3.6-3.2-6.9-5.8-9.6
			c0.2-0.2,0.5-0.4,0.7-0.5c5.9-4.1,11-9.5,15-15.5c3.6,5.9,8,11.4,13.3,15.7c-0.4-8,0.3-16,2-23.8c1.4,1.7,2.7,3.5,4.3,5.1
			c1.3,1.3,2.8,2.7,4.6,3.2c0-4.7,0.5-9.4,1.3-14c1.8-10,4.5-19.8,7.5-29.5c0.2-0.4,0.2-0.9,0.6-1.2c1.3-0.2,2.6-0.2,3.9-0.4
			c5.4-0.6,10.8-2.1,15.7-4.7c6.2-3.4,11.4-9,13.8-15.8c0.3-0.9,0.6-1.7,0.7-2.7c-3.3-3.4-7.4-5.7-11.3-8.2
			c6.3-5,12.3-10.7,17.1-17.3c2.4-3.5,4.7-7.2,5.9-11.4c1.1-4.9,0.6-10.1-0.6-14.9c-1.5-6-4.2-11.7-7.4-17
			c-3.7-6.3-8.2-12.2-13-17.6c-0.9-1.1-2-2.1-2.9-3.2c1.9-1.9,3.1-4.5,3.1-7.3c0.1-6.7-5.7-12.9-12.3-12.7c-2.8,0-5.4,1.3-7.7,2.8
			c-5-5.4-10.5-10.3-16.7-14.1c-6.8-4.3-14.6-7.3-22.6-7.6c-3.8-0.2-7.8,0.6-11.1,2.8c-4.2,2.7-6.9,7-10,10.9
			c-1-2.6-1.8-5.3-3.1-7.7c-0.2-0.4-0.5-0.7-0.9-0.6c-5,0.1-10,1.8-14.2,4.5c-2.1,1.4-3.9,3.1-5.8,4.8c-2.5-2.5-5.2-4.9-7.9-7.2
			c-6.2-5.1-13-9.8-20.6-12.4c-4.4-1.4-9.1-2.3-13.6-1.3c-3.1,0.7-6.1,2.4-7.8,5.1c-1.7,2.5-2.1,5.8-1.3,8.8c0.8,3.2,3,5.9,5.2,8.2
			c4.1,4,9.1,6.9,14.2,9.5c5.9,2.9,12.1,5.3,18.4,7.2c0.9,0.2,1.7,0.5,2.5,0.9c-0.9,0.3-1.8,0.3-2.7,0.3c-7.6,0.5-15.1,0.6-22.7,0.3
			c-6.1-0.3-12.3-0.8-18.1-2.5c0,1.9,0.9,3.6,1.7,5.3c1.1,2.1,2.5,3.8,3.8,5.8c-4.1-0.1-8.2-0.7-12.3-1.3c-3.6-0.6-7.1-1.6-10.7-2.6
			c3,6.3,6.9,12.1,11.6,17.2c-4.2,1.5-8.3,3.6-12.1,6.1c-0.2,0.2-0.5,0.3-0.7,0.5v15.5c3.5-2.2,6.8-4.8,9.9-7.4
			c1.3-1.1,2.5-2.3,3.9-3.3c-3.9,4.7-8.4,8.8-13.3,12.2c-0.2,0.1-0.3,0.2-0.5,0.3v0.6c6.2-2.4,11.4-6.9,16.9-10.7
			c5-3.6,10.5-6.6,16.5-8c-1.6-0.6-3.3-0.4-4.9-0.4c-1,0.1-1.7-0.7-2.5-1.2c-3.8-2.7-6.9-6.2-9.8-9.9c1.2,0.2,2.2,0.9,3.4,1.3
			c2.7,0.9,5.6,1.5,8.4,1.9c0.4,0,0.9,0.2,1.2-0.2c-3.4-0.9-6.6-2.4-9.7-4c-3.5-1.7-6.7-3.9-9.7-6.3c4.9,1.6,10.1,2.1,15.3,2.1
			c1.6,0,3.1,0,4.7-0.2c-2.9-2.4-5.6-5.4-7-9.1c4,1,8.2,1.5,12.3,2c1.3-0.2,2.6,0.1,3.8,0.2c3.8,0.2,7.5,0.5,11.3,0.5
			c0.7,0,1.4,0,2.1,0.2c-3.4,0.9-6.9,0.4-10.3,0.7c2.5,0.7,5.1,0.7,7.7,0.9c1.8,0.1,3.6-0.1,5.4,0.2c-2.3,0.8-4.7,0.6-7,0.9
			c3.6,1,7.4,0.8,11.1,1c-2.1,1-4.4,0.7-6.5,1.1c2.3,0.9,4.9,0.5,7.4,0.9c-1.3,0.6-2.7,0.5-4,0.6c-4.5,0-9-1.3-12.9-3.7
			c-0.2,1.7-0.4,3.4,0,5.1c0.3,1.4,1.4,2.4,2.2,3.5c-0.7,1.1-2.1,0.8-3.2,0.9c-4.6-0.3-9.2-1.3-13.7-2.3c-1.4-0.3-2.8-0.8-4.3-0.9
			c2.6,1.3,5.3,2,8.1,2.8c5.8,1.6,11.8,2.5,17.9,2.8c2.1,0.1,4.3,0.1,6.4-0.2c-4.5-2.2-8.6-5.4-11.6-9.5c0.3,0,0.5,0.1,0.7,0.3
			c2.9,1.7,6.1,2.8,9.4,2.9c1.4,0,2.7,0.1,4.1-0.1c1-0.1,2-0.2,2.9-0.3c0.1,0,0.1,0,0.2,0c-2.8,3.5-5.5,7.2-7.5,11.3
			c-1.6,3-2.9,6.3-2.6,9.8c0.1,3.3,1,6.7,2.6,9.6c0.1,0.1,0.3,0.3,0.3,0.5l0.1,0.1c0.2,0.2,0.3,0.4,0.4,0.6c0.1,0.2,0.2,0.3,0.3,0.5
			c0.3,0.3,0.5,0.6,0.8,0.9l-0.1,0.1c0.1,0.1,0.2,0.3,0.3,0.3c0.8,0.9,1.5,1.8,2.3,2.8c-1.5,0.2-3,0.4-4.5,0.7
			c1.8,0.1,3.6,0.1,5.3,0.3c0,0,0.1,0.1,0.1,0.1c0.2,0.2,0.4,0.4,0.6,0.6c-2.4,0.4-4.8,1.3-7.1,2.2c-1.8,0.7-3.7,1.1-5.6,1.5
			c2.8,0.4,5.6-0.2,8.4-0.9c-4.2,2.6-9.1,4-13.9,4.6c-1.5,0.2-3,0.1-4.5,0.4c3.3,1,6.9,0.7,10.4,0.5c-3.6,2.5-7.8,3.7-12.1,4.2
			c-1.2,0.2-2.4,0.1-3.6,0.3c2.8,1.1,5.9,1,8.8,0.6c-3.9,3.5-9.1,4.8-14.1,5.8c2.3,0.9,4.9,0.8,7.3,0.3c-4.6,5.3-8.1,11.6-9.4,18.6
			c6.5-12.8,17.6-22.9,30.5-28.5c-0.6,1.9-2.2,3.1-3.5,4.5c2.9-1.3,5.4-3.3,7.7-5.5c-0.1,1.5-0.7,2.9-1.1,4.4c2.2-2.5,2.9-6,4.5-8.8
			c0.2-0.4,0.5-0.7,0.7-1.1c0.1,0,0.1,0.1,0.1,0.1c0.2,0.1,0.3,0.2,0.4,0.4c0.1,0.2,0.3,0.3,0.5,0.4c0.6,0.5,1.2,1,1.9,1.4
			c-0.3,0.6-0.6,1.1-0.8,1.7c0.5-0.4,1-0.8,1.4-1.2c0.7,0.5,1.5,1,2.3,1.4c0.1,0.1,0.2,0.1,0.3,0.2c-1.5,0.6-3,1.5-3.9,3
			c-0.7,1.5-0.9,3.2-0.4,4.7c1.1,3.6,4,6.2,7.1,8.1c0.1-1.5-0.3-3,0.4-4.4c0.7-1.6,2.6-2.3,4.2-1.8c1.8,0.4,3.1,2.2,3.1,4.1
			c-0.1,2.6-1.9,4.8-3.5,6.7c-1.3,1.6-2.9,2.9-4.1,4.6c-0.9,1.6,0.4,3.4,1.6,4.4c0.8,0.7,1.9,0.6,2.8,0.1c3.2-1.7,6.3-4.1,9.9-4.5
			c1.9-0.3,4.1,0.8,4.6,2.8c0.6,1.8-0.1,4.3-2,5c-1.6,0.6-3.2-0.2-4.7-0.6c0.8,3,2.1,5.9,4.4,8c1.4,1.4,3.4,2.3,5.4,2.1
			c1.4-0.3,2.6-1.2,3.5-2.2c0.6-0.6,1.1-1.3,1.5-2.1c0.5,1,1,1.9,1.5,2.9c-0.9,0.8-1.9,1.5-2.9,2.1c1.2-0.1,2.5-0.4,3.6-0.9
			c0.1,0.1,0.2,0.2,0.2,0.3c0,0.1,0.1,0.2,0.2,0.3c0.2,0.2,0.3,0.4,0.4,0.6c0.1,0.1,0.2,0.3,0.3,0.4c0.1,0.2,0.4,0.5,0.5,0.7
			c0.1,0.2,0.2,0.4,0.4,0.5c0.1,0,0.1,0.1,0.1,0.2c-1.2,0.7-2.4,1.3-3.8,1.6c-3,0.8-6.3,0.7-9.2,2.2c1.4,0.1,2.9-0.2,4.3,0.1
			c-2.6,1.8-5.2,3.7-7,6.3c1.6-1,3.2-2.1,5-2.5c-1.4,2.2-3.2,4-4.9,5.9c-5.6,5.8-12.2,10.7-19.5,14c-3.1,1.4-6.3,2.4-9.6,3.4
			c1.2,0.2,2.5,0.1,3.8,0c5.4-0.5,10.8-2.2,15.6-4.8c-1,2.3-1.8,4.8-1.5,7.4c2.1-4.7,4.7-9.6,9-12.5c-1.2,2.8-2,5.9-1.6,8.9
			c1.6-5.3,3.8-10.6,8-14.4c-0.8,3.4-2.1,6.8-1.9,10.3c0.6-1.5,0.9-3,1.6-4.5c1.8-4.6,4.2-8.9,7.6-12.4c-1.1,2.6-2.5,5.1-2.7,8
			c0.6-1.1,1-2.2,1.6-3.3c1.4-2.5,3.2-4.6,4.4-7.2c0.6-1.2,1-2.4,1.4-3.7c0,2.7-0.9,5.2-1.1,7.9c1-1.7,1.5-3.6,2.2-5.5
			c0.2-0.8,0.5-1.6,0.7-2.4c0.5,0.6,1,1.2,1.5,1.8c0.1,0.1,0.2,0.2,0.3,0.3l0-0.1c0.2,0.2,0.4,0.4,0.6,0.6c0.1,0.2,0.3,0.3,0.5,0.4
			c0.2,0.1,0.3,0.2,0.4,0.4l0.1,0.1c0.2,0.1,0.4,0.3,0.6,0.5c0.2,0.1,0.3,0.2,0.5,0.4c0.6,0.5,1.4,1.1,2,1.3
			c4.8,3.2,11,3.3,16.2,1.2c4.4-1.7,8.7-3.9,12.7-6.4c0.1-0.2,0.3-0.3,0.5-0.3c0.4-0.1,0.8-0.3,1-0.6c0.1-0.2,0.3-0.3,0.5-0.3
			c0.2-0.2,0.4-0.3,0.6-0.4c0.1,0,0.2-0.1,0.3-0.1c-0.4,1.3-0.8,2.7-1.4,3.9c-0.3,0.8-0.6,1.6-1,2.3c-0.3,0.8-0.7,1.7-1.1,2.5
			c-0.5,1.1-0.9,2.3-1.4,3.4c-0.6,1.4-1,2.9-1.5,4.4c-0.8,3.1-1.1,6.3-0.6,9.4c0.2,1.1,0.5,2.2,0.7,3.4c-0.1-0.2-0.2-0.5-0.3-0.7
			c-1-0.8-1.5-2-2.2-3.1c-1.7-3.1-2.8-6.5-3.6-10c-1.5,4.2-2.3,8.6-2.9,13.1c-0.7,5.4-0.9,10.8-0.6,16.2c0.1,1.2,0.1,2.4,0.4,3.6
			c0.1-5.1,0.1-10.3,1.5-15.2c0.5-1.8,1.2-3.6,2.5-4.9c0.5-0.5,1.3-0.2,1.8,0.1c1.7,1.1,3,2.8,5,3.5c-1.5-4.9-1.5-10.2,0.1-15.1
			c0.2-0.7,0.5-1.4,0.9-2c0,2.6-1.2,5.1-0.8,7.8c0.7-2.2,1-4.7,2.5-6.6c0,1.3-0.5,2.5-0.8,3.8c-0.4,2.3-1,4.7-0.8,7.1
			c0.9-2.1,1.1-4.4,2.4-6.3c0,0.5,0,0.9-0.1,1.4c-0.9,3.8-1.8,7.6-1.9,11.5c1.2-3.3,1.5-7,3.2-10.1c-0.1,1.2-0.4,2.3-0.7,3.5
			c-0.7,3.2-1.3,6.4-1.9,9.6c-0.3,1.4-0.3,2.8-0.8,4.1c-0.4,4.3-1.1,8.6-1.1,12.9c-3.2-2.1-5.2-5.7-6.8-9.1
			c-2.1,6.5-3.4,13.5-3.1,20.4c-3.1-7.2-4.7-15.2-5-23.1c-0.1,0.3-0.3,0.6-0.3,0.9c-0.3,3.7-0.7,7.4-0.3,11.2
			c0.1,0.9,0.3,1.8,0.3,2.7c-3.1-4.4-6.2-9.1-7.5-14.4c0.2-1.9,1.2-3.7,1-5.7c-2.9,5.6-7.2,10.4-11.8,14.6
			c-5.2,4.8-11.2,9-14.9,15.3c5.1-4.4,10.5-8.8,16.6-11.7c-7.5,5.4-14.9,11.3-20.5,18.9c-2.8-5.9-3.3-12.7-2.2-19.1
			c-3.5,1.4-7,2.5-10.6,3.5c-2.4,0.7-4.8,1.2-7.2,1.7c-2.8,1.6-6.2,2-9.2,2.4c-3.9,0.4-7.9,0.9-11.8,0.7c-7.2-0.4-14.5-2.3-21.1-5.1
			c-0.9-0.4-1.7-0.8-2.6-1.2c-0.4,0.1-0.8,0.1-1.2,0.1c-0.6-0.5-1.2-1.1-1.8-1.6c0,0,0,0,0,0C30.7,318,29.8,317.4,29,316.8z
			 M188.6,249.2c2.3,1.3,4.5,2.8,6.6,4.5c0,2-0.7,3.9-1.7,5.5c0,0.1,0,0.2,0,0.2c-0.4,0.5-0.9,1-1.4,1.5c0.4-1.3,0.9-2.6,1.1-4
			c-3.6,4.3-8.2,8.2-13.7,9.4c2.5-1.7,5.3-3,7.3-5.3c-4.5,2.6-9.4,4.6-14.6,4.8c-1.7,0-3.5-0.1-5.2-0.6c2.7-0.5,5.4-1,7.8-2.4
			c-3.2,0.3-6.5,0.2-9.6-0.7c0.1-0.1,0.2-0.2,0.3-0.2c0.2-0.1,0.4-0.3,0.6-0.4c0.3-0.3,0.6-0.6,1-0.9c0.3-0.3,0.7-0.6,1.1-0.8
			c0.2-0.1,0.4-0.3,0.6-0.5c-0.1-0.2-0.2-0.5-0.3-0.7l-0.1-0.1c-0.2-0.2-0.3-0.4-0.4-0.6c0-0.1-0.1-0.2-0.2-0.3
			c-0.1-0.1-0.3-0.3-0.3-0.5c-0.1-0.3-0.3-0.4-0.4-0.6c-0.1-0.2-0.4-0.5-0.5-0.7l-0.1-0.1c-0.3-0.4-0.5-0.8-0.8-1.2
			c-0.1-0.2-0.3-0.4-0.4-0.6c-0.3-0.3-0.5-0.7-0.7-1c-0.2-0.2-0.3-0.5-0.5-0.7c-0.3-0.3-0.5-0.7-0.7-1c-0.1-0.2-0.3-0.4-0.4-0.6
			c-0.3-0.3-0.5-0.7-0.8-1.1c-0.1-0.2-0.3-0.4-0.4-0.6c-0.3-0.3-0.5-0.7-0.7-1c-0.1-0.2-0.3-0.4-0.4-0.6c-0.3-0.3-0.5-0.6-0.8-0.9
			c-0.3-0.3-0.5-0.7-0.7-1c-0.2-0.2-0.3-0.5-0.5-0.7c-0.2-0.2-0.4-0.4-0.5-0.7c2.5,1.2,4.9,2.5,7,4.3c2,1.7,3.5,3.9,4.6,6.2
			c5-0.1,9.9-0.1,14.8,0.7c0.4,0,0.8,0.1,1.1,0.1c-3.8-2.2-8.2-2.3-12.4-2.7c1.4-0.5,2.9-0.6,4.3-0.7c3.5-0.1,6.9,0.4,10.3,1.3
			c0.5,0.1,1,0.2,1.6,0.3c-3.1-1.7-6.6-2.6-10.1-3.2c2.8-0.6,5.6-0.1,8.3,0.2c-1.5-1.1-3.2-1.7-4.9-2.3c0.5-0.4,1.1-0.8,1.6-1.2
			C185.9,247.7,187.3,248.4,188.6,249.2z M115.3,182c-4.3-3.4-8.7-6.5-13.3-9.4c4.2,1.6,8.1,3.8,12,6c6.4,3.7,12.4,7.9,18.1,12.6
			c-0.9-1.2-2-2.1-3.1-3.1c-7.5-6.9-15.7-13.3-24.7-18.1c4.8,1,9.3,2.9,13.5,5.3c-3.1-3.1-6.5-5.9-10-8.6c4.8,2.5,9.4,5.6,13.8,8.7
			c22.5,16.2,41.4,37.6,55.3,61.9c1.9,3.4,3.9,6.9,5.6,10.5c-3.9-6.2-8-12.3-12.5-18c-1.4-1.9-3-3.6-4.4-5.5
			c2.3,3.8,4.9,7.5,7.1,11.4c2.2,3.9,4.3,8,5.5,12.3c-3.2-5.7-6.5-11.3-10.5-16.5c-3-3.9-6.2-7.7-10-10.8c4.9,6,9.5,12.4,13.5,19.1
			c1.7,2.9,3.2,5.8,4.4,8.9c-4.1-6.6-8.6-12.9-13.5-18.9c-4.3-5.2-8.9-10.2-14.1-14.4c4.3,5.1,8.6,10.3,12.4,15.8
			c3.8,5.4,7.5,11,9.8,17.3c-8.6-11-17.5-21.8-26.8-32.1c-12.1-13.4-24.9-26.2-39.1-37.3c-0.5-0.6-1-1.2-1.5-1.8
			c3.2,1.6,6.3,3.4,9.5,5.2c5.3,3.1,10.5,6.3,15.4,10C123.9,188.9,119.6,185.4,115.3,182z M149.3,182.1c3.7-1.2,7.2-3,10.5-5.2
			c-2.2-0.3-4.2-1.3-6-2.6c6.2,1.7,12.8,1.5,19-0.1c-4.7,3.2-10.1,5.3-15.6,6.6c0.5,0.1,0.9,0.1,1.4,0.1c3.5-0.2,7-0.6,10.4-1.6
			c1.1-0.3,2.2-0.8,3.4-1c-5,4.8-11.4,7.8-18,9.3c-2.6,0.5-5.2,1.1-7.8,0.9c4.9-1.7,10-3.3,14.4-6.1
			C157.1,182.7,153.1,183.2,149.3,182.1z M163.3,194.9c3.3,0.4,6.5,1.1,9.9,0.7c-3.8,4-9.5,5.9-14.9,5.5c3.4-0.9,6.9-1.8,10-3.7
			C166.6,196.7,164.8,196.1,163.3,194.9z M111.2,141.3c2.9-3.8,6-7.5,10-10c2.6-1.4,5.5-2.2,8.5-2.2c4.9-0.1,9.6,1.3,14,3.3
			c7,3.2,13.4,7.7,19.2,12.9c-5.8-1.5-11.8-0.3-17.2,2c-5.4,2.3-10.2,5.7-14.7,9.4l0.3,0c3.1-2.3,6.3-4.3,9.8-5.8
			c8-3.7,17.6-4.6,25.8-1.2c10.7,4.3,17.9,15.7,18.2,27.4c0.1,6.1-1.3,12.1-3.5,17.7c-0.2,1-0.8,1.9-1.2,2.9
			c-2.3,5-5.2,9.7-8.4,14.1c4.4-3.5,8.2-7.7,10.9-12.7c4.4-8.1,5.9-17.8,4.4-26.8c5.9,6.2,11.3,12.9,15.6,20.4
			c2.4,4.4,4.5,9.1,4.9,14.2c0.4,6.3-1.8,12.5-5.2,17.6c-1.8,2.7-3.9,5.4-6.4,7.5c4.1-4.9,7.7-10.4,9.3-16.7
			c0.9-3.6,1.1-7.5-0.5-10.9c-1.2,6.7-4.4,12.9-8.6,18.1c1.9-6.5,1.1-13.7-1.5-19.9c0.4,5.2-0.2,10.6-2.4,15.4
			c-1.8,4-4.5,7.8-8,10.4c2.1-2.4,3.6-5.2,4.8-8.1c-1.8,2.2-3.8,4.3-6.3,5.5c-1.7,0.8-3.6,1.1-5.4,0.5c-1.4-0.4-2.3-1.7-3.3-2.6
			c-4.6-4.8-8.8-10-13-15.1c1.3-0.7,2.4-1.6,3.3-2.9c0.4-0.7,1.2-0.7,1.9-0.9c6-1.6,10.8-6.6,12.9-12.5c-2.8,0.6-5.6,0.2-8.3-0.6
			c0.5-2,0.7-4.1,0.8-6.2c4.4-4.4,7.6-10.1,8.7-16.4c-4.1,1.8-8.8,2.6-13.2,1.6c-2.5-2.9-5.5-5.6-9.1-7.1c-6.4-2.7-13.8-1.8-20,0.9
			c5-3.8,10.9-6.3,17-7.3c-4.5-0.7-9,0.3-13.3,1.5c3.3-2.9,7-5.3,11-7.1c1.1-0.5,2.2-0.9,3.3-1.5c-9.5,1.1-18.2,5.8-25.8,11.5
			c-3.4,2.6-6.6,5.4-9.6,8.5c-0.1,0-0.4-0.1-0.5-0.2c-6-4.3-12.6-7.7-19.6-10c-0.4,0-0.8-0.2-1.2-0.2
			C103,153.5,106.8,147.2,111.2,141.3z M89.2,146.5c2.5-5.2,7.2-8.8,12.2-11.3c-1.3-0.2-2.7-0.1-4,0.1c0.5-0.3,0.9-0.7,1.4-0.8
			c2-0.7,4.1-1,6.1-0.5c1.1,2.5,1.9,5.1,2.6,7.7c0.2,0.4,0.3,1,0.2,1.5c-0.3,0.4-0.7,0.8-1.1,1.2c-0.2-0.7-0.4-1.5-0.7-2.2
			c-0.4,2.7-0.5,5.5-1.8,8c0.2-3.4,0.3-6.9-0.6-10.2c-0.3,1.6-0.1,3.2-0.3,4.7c-0.4,4-1.1,8.2-3.1,11.8c0.9-4.4,1.9-9,0.8-13.5
			c-0.2,1.2-0.2,2.4-0.4,3.6c-0.3,2.3-1,4.5-1.9,6.6c-1.9,4.3-4.9,7.9-6.3,12.4c-0.1-0.1-0.1-0.1-0.2-0.2c-0.1-0.1-0.2-0.2-0.3-0.3
			c-0.3-1.6-0.3-3.3,0-4.9c-0.6,1.2-0.9,2.5-1.1,3.9c-0.2-0.2-0.3-0.4-0.5-0.6c-0.2-0.2-0.4-0.4-0.6-0.5c-0.3-2.3-0.1-4.7,0.4-6.9
			c0.3-1.3,0.8-2.6,1.1-3.9c-1.9,1.9-2.9,4.5-4.1,6.9c-0.2-4.1,1.4-8,3.4-11.5c1.5-2.6,3.4-4.9,5.4-7.1
			C93.3,141.9,91.3,144.3,89.2,146.5z M57.7,150.2c-5.6-2.9-11.1-6.4-15.4-11.2c-2.3-2.6-4.3-5.7-4.7-9.3c-0.2-2.3,0.7-4.7,2.6-6
			c2.6-1.9,6-1.9,9.1-1.4c8.1,1.4,15.6,5.2,22.4,9.9c4.1,2.8,8,6,11.5,9.5c-4-2.9-7.8-6.1-12.3-8.2c4.1,2.8,8.1,6,11.5,9.7
			c-3.9-3.4-8.2-6.3-12.7-8.6c3.9,3.1,8,6,11.5,9.7c-7.6-5.7-15.6-11.1-24.7-13.9c-4.4-1.2-9.4-1.9-13.5,0.6
			c3.1-0.4,6.1,0.3,8.9,1.6c-1.5,0.8-3.4,2-3.5,4c0.1,2.3,2,3.9,3.6,5.2c-1.5,0.1-3-0.3-4.4-0.9c3.9,4,8.8,6.7,13.7,9.1
			c4.5,2.3,9.3,4,14,5.8c-2.6-0.4-5-1.4-7.6-1.9c2.3,1.4,4.9,2.5,7.3,3.8C69.2,155.4,63.3,153.1,57.7,150.2z M80.1,212.5
			c-0.7-0.4-1.3-0.9-2-1.4c-0.2-0.2-0.5-0.4-0.7-0.6c0.8-0.8,1.6-1.5,2.5-2.2c-1.8-0.4-3.6-0.4-5.4-0.4c-0.1-0.1-0.2-0.3-0.3-0.4
			c0,0-0.1-0.1-0.2-0.1c-1.1-0.9-1.9-2.1-2.7-3.2c-0.1-0.2-0.3-0.4-0.4-0.6c-0.1-0.1-0.3-0.2-0.4-0.2c-0.1-0.2-0.2-0.4-0.2-0.6
			c-0.1-0.1-0.2-0.3-0.2-0.4c-0.2-0.1-0.4-0.4-0.4-0.6l0-0.1c-0.2-0.1-0.4-0.4-0.4-0.6c-2-3.6-2.6-8.1-1.5-12.1
			c0.9-3.8,2.7-7.3,5-10.4c0-0.2,0.2-0.4,0.4-0.5l0-0.1c0-0.2,0.2-0.4,0.4-0.5c0.1-0.1,0.3-0.3,0.4-0.4c0-0.3,0.3-0.5,0.5-0.6
			c0-0.3,0.2-0.5,0.5-0.6c0.1-0.2,0.3-0.4,0.6-0.5l0-0.1c0-0.4,0.3-0.7,0.7-0.8c0.2-0.2,0.4-0.4,0.6-0.6c0.2-0.2,0.5-0.5,0.6-0.7
			c0.5-0.5,1.1-1,1.6-1.4c0.1-0.2,0.3-0.4,0.6-0.4c0.5-0.4,1.1-0.6,1.7-0.9c2-0.3,3.9-0.5,5.9-0.4c0.8,0.2,1.6,0.5,2.3,0.8
			c0.1,0.8,0.4,1.5,0.9,2.2c1.4,1.7,3.3,2.8,5,4.2c5.3,4,9.7,9.1,13.5,14.7c0.6,0.9,1.2,1.9,1.9,2.8c0.4,0.9,0.8,1.9,1.1,2.9
			c0.6,2.1,0.6,4.3-0.1,6.4c-1.4-1.3-2.6-2.8-3.7-4.3c0.5,2.1,1.5,4.2,3,5.8c-0.3,0.5-0.6,1-1,1.5c-2.2-2.1-3.7-4.9-4.9-7.7
			c-2-4.5-3.8-9.1-6.3-13.3c-1.9-3.2-4.3-6.3-7.8-7.8c-2.7-1.2-5.8-0.9-8.5,0.2c1.8,0.6,3.8,1.3,4.8,3.1c0.6,0.9,0.4,2,0,2.9
			c-0.9,2.1-2,4.1-2.7,6.3c-0.8,2.6-1,5.5-0.2,8.1c0.5-1.9,0.5-4,1.6-5.7c-0.1,2.4-0.8,4.9,0,7.3c0.6-2.7,0.7-5.6,2.3-7.9
			c-0.3,2.6-1.2,5.2-0.8,7.9c0.7-1.7,1-3.5,1.9-5.1c0.3,1.9,0.6,3.8,1.8,5.3c1.8,2.8,5,4,7.4,6.3c-1.7-0.4-3.3-1.2-5-1.1
			c2.7,1.4,5.6,2.4,7.9,4.5c-1-0.2-2.1-0.6-3.1-1c-4.6-1.6-9.8-2-14.4-0.1C82.7,210,81.3,211.1,80.1,212.5z M101.7,202.9
			c-0.5,0.8-1.5,0.2-2.1-0.2c-2.6-1.7-4.5-4.4-5.8-7.2c-1.1-2.5-1.7-5.4-1-8.2c0.1-0.8,0.9-1.8,1.7-1.2c0.8,0.6,1.3,1.6,1.7,2.5
			c1.6,3.6,3.2,7.2,4.8,10.8C101.4,200.6,102,201.7,101.7,202.9z M90.2,216.1c-0.4,0-0.8,0-1.2,0c-0.2,0-0.5,0-0.7,0
			c-1.7-0.2-3.3-0.8-4.8-1.6c-0.5-0.3-1.1-0.6-1.6-1c4.7-2.8,10.8-3.5,15.6-0.7c0.8,0.5,1.6,1.1,2.2,1.8
			C96.6,215.7,93.4,216.2,90.2,216.1z M109.3,240.6c-2.2-4.4-5-8.6-8.2-12.3c-2.6-3.1-5.6-6-8.8-8.5c0,0,0,0,0,0
			c5.5,1.3,9.7,5.5,13.1,9.9c1.9,2.6,3.6,5.4,4.7,8.5C109.8,238.9,109.6,239.8,109.3,240.6z M111.2,234.8c-0.3-0.6-0.6-1.3-0.9-1.9
			c-3.1-5.6-7.5-10.6-12.9-13.8c2.8-0.5,5.6-1.2,8.2-2.3c1.3,0.1,2.5,0.1,3.8,0.3c1.3,0.2,2.5,0.7,3.6,1.3c-1.3-1.4-3-2.2-4.8-2.7
			c0.4-0.2,0.7-0.4,1.1-0.6c1.3-0.4,2.5-0.9,3.7-1.5c1.1-0.1,2.3,0.1,3.3,0.7c0.4,0.2,0.8,0.4,1.2,0.7c0.5,0.3,0.8,0.8,1.1,1.3
			c0.8,1.3,0.5,3-0.1,4.3c-1,2.6-3.2,4.6-4.3,7.2C113,230.1,112.1,232.4,111.2,234.8z M119.1,227.9c0.2-0.2,0.5-0.5,0.6-0.7
			c0.8-0.7,1.6-1.4,2.4-2.2c0.2-0.1,0.5-0.4,0.7-0.5c0.1-0.1,0.3-0.2,0.4-0.2c0.1-0.2,0.3-0.4,0.5-0.3c0.4-0.3,0.9-0.5,1.3-0.8
			c-2.6,1.8-4.6,4.5-6,7.3c0-0.8-0.1-1.6-0.2-2.4c0,0,0,0,0.1,0C119,228,119,227.9,119.1,227.9z M115.5,255.7
			c-0.8-1.5-1.5-3.1-2.1-4.7c0.3-1.1,0.6-2.3,0.6-3.5c0.2-2.7-0.3-5.4-1-8c0.8-3.4,2.3-6.7,4.4-9.5c0-0.2,0.2-0.4,0.4-0.5
			c0-0.1,0-0.2,0.1-0.3c-0.3,2.5-1.3,5-0.4,7.5c-0.5-0.4-1.1-0.7-1.7-1c1,1.2,2,2.4,2.6,3.9c1.7,3.6,1.4,8-0.1,11.7
			C117.6,252.9,116.6,254.3,115.5,255.7z M154.7,259c0,0.2-0.2,0.4-0.4,0.5c-0.1,0.1-0.2,0.2-0.2,0.3c-0.9,1-1.9,1.8-2.9,2.7
			c-0.7,0.7-1.5,1.3-2.3,1.9c-0.2,0.2-0.4,0.3-0.7,0.5c-0.2,0.1-0.6,0.4-0.7,0.5c-6.1,4-14.3,6.4-21.1,2.8c-1.3-0.8-2.6-1.6-3.8-2.6
			c-0.5-0.5-1-1-1.4-1.4c-0.6-0.6-1.2-1.2-1.7-1.9c-0.1-0.2-0.3-0.4-0.4-0.7c-0.1-0.1-0.1-0.2-0.2-0.2c0.1-0.5,0.1-0.9,0.1-1.4
			c-0.2,0.2-0.5,0.4-0.7,0.6c-0.4-0.6-0.8-1.2-1.1-1.8c-0.1-0.2-0.4-0.6-0.5-0.8l0-0.1c0,0,0,0-0.1-0.1c0.9-0.6,1.7-1.3,2.3-2.2
			c2.7-3.5,3.7-8,3.7-12.3c0.1-1.9-0.3-3.7-0.2-5.6c1.4,2.8,1.7,5.9,2.3,8.9c0.6-1.7,0.1-3.5,0.1-5.2c1.5,2.7,1.8,6,3.8,8.5
			c1.2,1.7,3.1,2.6,4.9,3.5c-2,0.6-4.1,0.5-6.1,0.4c2.6,1.3,5.6,1.1,8.4,1.4c-2.5,1.1-5.3,0.5-8,0.4c2.1,1.3,4.6,1.2,6.9,1.8
			c-2.1,0.7-4.3,0.3-6.3-0.1c2.3,1.6,5.2,2.3,8,2.1c2.3-0.1,4.6-0.8,6.8-1.1c1-0.2,2.1,0,2.8,0.8c1.4,1.4,1.6,3.5,1.8,5.4
			c1.4-1.9,2.3-4.3,2.4-6.7c0.1-2.9-1.1-5.7-2.7-8c-3.4-4.8-8.1-8.2-12.5-11.9c-3.3-2.7-6.8-5.6-8.1-9.9c-0.7-2-0.3-4.1,0.8-5.8
			c0.5-0.1,1-0.1,1.5-0.1c3.3,0.1,6.2,1.9,8.7,3.7c0.1,0.1,0.3,0.3,0.4,0.4c0.2,0,0.4,0.2,0.5,0.4l0.1,0c0,0,0.1,0.1,0.1,0.1
			c2.1,2.9,4.3,5.7,6.6,8.3c1.2,1.3,2.5,2.7,4,3.8c0.1,0.2,0.2,0.3,0.3,0.5c0.2,0.2,0.3,0.5,0.5,0.7c0,0.1,0.1,0.2,0.2,0.2
			c0.4,0.4,0.7,0.9,1,1.3c0.1,0.1,0.2,0.3,0.3,0.4c0.2,0.2,0.4,0.4,0.6,0.7c0.1,0.2,0.1,0.3,0.2,0.5c0.1,0.1,0.2,0.2,0.2,0.3
			c0.2,0.3,0.5,0.7,0.7,1c0.1,0.1,0.2,0.2,0.2,0.3c0.2,0.1,0.4,0.3,0.3,0.5c0.3,0.5,0.6,1,0.8,1.4
			C156.5,250.8,157.2,255.5,154.7,259z M129,240.3c0.1-0.7,0.9-0.7,1.4-0.4c1.1,0.5,2,1.3,3,2c2.8,2.4,5.7,4.7,8.5,7.1
			c0.7,0.7,1.8,1.5,1.6,2.7c-0.5,0.9-1.6,0.8-2.4,0.7c-4.5-0.7-8.3-3.9-10.6-7.8C129.6,243.3,128.8,241.8,129,240.3z M155,239.8
			c-0.1-0.2-0.3-0.3-0.4-0.5l0.1-0.1c-0.4-0.5-0.8-0.9-1.1-1.4c-0.9-1-1.7-2.1-2.6-3.1c-0.7-0.9-1.5-1.7-2.2-2.6
			c-0.2-0.2-0.5-0.5-0.7-0.7c-0.4-0.4-0.8-0.8-1.1-1.2c-0.2-0.2-0.5-0.6-0.7-0.8l0,0.1c-0.3-0.3-0.5-0.6-0.8-0.9
			c-0.1-0.2-0.3-0.3-0.4-0.4c-0.2-0.1-0.5-0.4-0.6-0.6c-0.1-0.1-0.2-0.2-0.2-0.2l-0.1,0c-0.2-0.2-0.3-0.3-0.5-0.5l-0.1-0.1
			c-0.2-0.1-0.4-0.3-0.5-0.5c-0.1-0.1-0.3-0.2-0.4-0.3c-0.2-0.1-0.3-0.2-0.4-0.4c-0.2-0.3-0.6-0.5-0.9-0.8c-0.2-0.1-0.3-0.2-0.4-0.4
			c-0.2-0.3-0.4-0.5-0.7-0.6l-0.1,0c-0.1-0.1-0.2-0.3-0.3-0.4c-0.2-0.3-0.5-0.4-0.7-0.6c-0.2-0.1-0.3-0.2-0.4-0.4
			c-2-1.5-4-3-6.2-4.1c-0.8-0.4-1.6-0.8-2.4-1.1c0.4,0.1,0.7,0.1,1.1,0.2c-1.1-0.7-2.3-1.2-3.6-1.6c-0.1-0.1-0.3-0.2-0.4-0.2
			c-0.2-0.1-0.3-0.2-0.4-0.4c-0.1,0-0.2-0.1-0.2-0.2c-0.3-0.3-0.6-0.6-0.9-0.9c-0.2-0.2-0.5-0.5-0.7-0.7c-0.4-0.3-0.7-0.7-1-1.1
			c-0.1-0.2-0.3-0.3-0.4-0.5c0.1-1.8,0-3.6-0.6-5.3c-0.1,1.4-0.2,2.8-0.4,4.2c-0.4-0.4-0.7-0.9-1.1-1.3c-0.1-0.8-0.3-1.6-0.5-2.4
			c-0.1,0.5-0.1,1.1-0.1,1.7c-0.2-0.3-0.5-0.6-0.7-0.8c-0.4-0.5-0.8-1-1.2-1.6c-0.1-0.1-0.2-0.3-0.3-0.3c-0.2-0.2-0.3-0.4-0.4-0.6
			c-1.6-3.3-1.8-7.1-3.7-10.3c-0.4-0.9-1.2-2.5-1.8-3.5c0.1,0.2,0.3,0.3,0.4,0.5c1.3,1.6,2.4,3.3,4.1,4.5c-0.6-1.4-1.4-2.7-2.1-4.1
			c0.5,0.3,1,0.7,1.5,1.1c10.7,9.5,20.6,20,29.9,30.9c1.3,1.6,2.7,3,3.8,4.7c-3.9-2.7-7.8-5.3-11.5-8.3c3.2,5.7,9.1,8.9,14.1,12.7
			c1.8,1.5,3.8,3,5,5.1c-1.9-1.4-3.8-3.2-6.3-3.6c2.4,2.4,5.2,4.4,7.9,6.5C157.9,241.6,156.5,240.6,155,239.8z M105.2,338.9
			c3.4-1.3,6.5-3.4,9.6-5.4c-0.2,1.3-0.7,2.4-1.3,3.6c-0.1-0.1-0.2-0.2-0.3-0.3c-0.3-0.2-0.5-0.3-0.8-0.4c-0.2-0.2-0.3-0.4-0.5-0.6
			c-0.2,0.2-0.4,0.5-0.5,0.8c-1,0.6-1.5,2.2-0.4,3.1c0,0,0.1,0.1,0.1,0.1c0.1,0.4,0.4,0.9,0.7,1.2c-2.6-0.6-5.3-1.1-8-1.7
			C104.4,339.3,104.8,339.1,105.2,338.9z M45.8,327.5c0.6,0.2,1.2,0.4,1.8,0.5c1,0.7,1.9,1.4,2.8,2.2c4,0.2,8,0.4,12,0.6
			c-3.4,0.3-6.9,0.5-10.3,0.8c0,0,0.1,0.1,0.1,0.1c5.7,0.6,11.4,1.2,17,1.8c-1.5,0.2-3,0.3-4.5,0.4c-2-0.2-4.1-0.4-6.1-0.5
			c-1.7-0.1-3.4-0.3-5-0.5c-0.5-0.4-0.9-0.8-1.4-1.2c-0.2,0-0.5,0-0.7-0.1c0.2,0,0.4,0,0.6,0c-0.6-0.5-1.1-0.9-1.7-1.4
			c-1,0-1.9-0.1-2.9-0.1c0.1,0.2,0.3,0.5,0.4,0.7c-0.6-0.1-1.2-0.1-1.7-0.2c-0.3-0.2-0.7-0.4-1-0.6c0.8,0,1.6,0.1,2.3,0.1
			C47.1,329.1,46.5,328.3,45.8,327.5z"/>
	</g>
	<g>
		<path d="M39.4,325.2C39.3,325.2,39.3,325.2,39.4,325.2C39.3,325.2,39.4,325.2,39.4,325.2C39.4,325.2,39.4,325.2,39.4,325.2z"/>
	</g>
	<g>
		<path d="M114.4,143.9c5.9-5.2,13.5-8.6,21.3-8.9c2.4-0.1,4.8,0.1,7.1,0.4c-4.9-3-10.8-5.1-16.6-3.7c-3.5,0.9-6.7,2.8-9.3,5.3
			c-3.9,3.8-6.8,8.6-9,13.6C109.9,148.2,111.9,145.8,114.4,143.9z"/>
	</g>
	<g>
		<path d="M129.7,223.9c0-0.6,0.1-1.6-0.7-1.6c-0.9,0.6-0.9,1.9-0.9,3c0.3,3.8,2.9,7,6.1,8.6C131.8,231.1,129.6,227.7,129.7,223.9z"
			/>
	</g>
	<g>
		<path d="M32.4,206.3c-2.9,3.5-6,7-8.8,10.6c1.1-0.4,2.2-0.7,3.3-0.6c-2.7,5-5,10.2-6.8,15.6c-1,3.1-1.8,6.2-2.5,9.3
			c-0.7,4-1.3,8.1-1.4,12.2c0,1.8-0.1,3.6,0.2,5.4c0.8-3.3,1.2-6.8,3-9.8c-0.2,1.6-0.7,3.1-0.9,4.7c-0.7,4.5-0.4,9.2,0.1,13.7
			c0.1,0.3,0.3,0.6,0.4,0.8c0.2-2.9-0.1-5.8,0.7-8.6c0.3,1.6,0.3,3.1,0.5,4.7c0.7,6.1,2.2,12.2,4.3,18c0.8,2,1.4,4.1,2.5,6
			c0.2-2.1-0.1-4.1,0.1-6.2c0.1-3.9,0.4-7.9,1.1-11.8c0.8-5.5,2-10.9,3.7-16.2c2.1-6.9,4.7-13.6,7.9-20c-3,3.9-5.1,8.3-7.1,12.7
			c-0.4-5.3,1-10.5,2.4-15.5c-2.5,3.7-3.9,8-5,12.3c-0.9,3.5-1.5,7.1-1.9,10.8c-0.4-2-0.2-4.1-0.2-6.2c0.6-9.2,3.2-18.2,6.2-26.9
			c-5.5,9.2-8.3,19.9-9.3,30.6c-0.4,4.3-0.4,8.7-0.2,13c-1.2-5.3-1.1-10.7-0.9-16.1c-0.3,0.7-0.6,1.5-0.9,2.2
			c-0.4-9.7,2.1-19.5,6.4-28.1c3.6-7.3,8.5-13.8,14.1-19.5c-5.8,4-10.4,9.6-14.9,15.1c0.6-1.6,1.5-2.9,2.4-4.3
			c2.8-4.1,6.3-7.7,9.9-11.1c-1.9,0.7-3.4,2.1-5,3.2c4.8-5.9,10.7-10.7,17-14.8c1.7-1.2,3.6-2.1,5.3-3.3c-7,2.8-13.4,6.8-19.6,11.1
			c4.8-4.4,10.3-7.9,15.8-11.3c-12,4.2-22.3,12.8-29.7,23.3c-1.4,2.1-2.9,4.2-3.9,6.5C24.3,213.9,27.9,209.5,32.4,206.3z"/>
	</g>
	<g>
		<path d="M46.8,296c-3.5-0.3-7-1-10.5-1.8c-2.1-0.4-4.2-1.2-6.3-1.7c6,5.1,12.7,9.3,19.8,12.4c1.7,0.8,3.5,1.2,5.2,2.2
			c-2.6,0.1-5.1-0.8-7.6-1.3c0.2,0.2,0.5,0.4,0.7,0.7c4.2,1.7,8.6,3.1,13.1,3.5c1.7,0.2,3.3,0,5,0.1c-3.7,1.2-7.6,1-11.3,0.4
			c1.4,0.7,2.9,1.1,4.3,1.5c3.6,0.9,7.2,1.5,10.9,1.8c3.6,0.3,7.1,0.3,10.7,0.1c5.9-0.4,11.7-1.5,17.4-3c-0.2,1.2-0.7,2.2-1.4,3.1
			c4.1-1.9,8.1-4.1,12.2-6.1c-3,2.6-6.4,4.7-9.8,6.6c-1.3,0.7-2.8,1.4-4,2.2c4.3-0.9,8.3-2.7,12.3-4.7c9.6-4.9,18.2-12.2,24.1-21.5
			c-4.6,4.6-9.2,9.2-14.5,13c5.3-5.2,10.8-10.4,15-16.6c-1.5,1.3-2.7,2.8-4.2,4.2c-5.4,5.2-11.3,9.9-18,13.2c1.4-1.4,3-2.5,4.1-4.1
			c-5.6,3.6-11.5,7.3-18.1,8.6c6.6-3,13.1-6.5,18.6-11.4c-8.9,5.5-18.8,9.4-29.1,10.6c-7,0.8-14.2,0.3-21-1.7
			c0.7-0.1,1.4-0.3,2.1-0.4c-4.7-1.2-9.5-2.1-13.8-4.5c1.6,0.3,3.1,0.9,4.7,1.3c9.9,2.5,20.4,3.3,30.5,1.5c2.3-0.5,4.7-0.8,6.9-1.8
			c-9,0.8-18.2,1.1-27.1-0.7c-1.8-0.4-3.6-0.8-5.2-1.5c4.1,0.5,8.2,0.9,12.3,0.7c3.8-0.2,7.7-0.6,11.3-1.9
			c-5.1,0.1-10.4,0.2-15.2-1.5c4.5-0.9,9-1.8,13.2-3.8c-7,1.5-14,2.5-21.2,2.8C57.5,296.8,52.1,296.6,46.8,296z"/>
	</g>
	<g>
		<path d="M71.6,269.2c3.4,1.8,7,3.4,10.9,3.7c1.1,0.1,2.2-0.1,3.2-0.5c0-0.3,0.1-0.6,0-0.9c-0.2-1.1-1.3-1.7-2.2-1.9
			c-3-0.7-6.1-0.6-9.1-1.7c-5.6-2-10.5-5.9-14.5-10.3c-0.9-1-1.8-2.1-2.6-3.2c-0.4,0.7-0.7,1.4-1.1,2
			C60.6,261.6,65.8,266,71.6,269.2z"/>
	</g>
	<g>
		<path d="M31.6,269.4c0.8-0.4,1.6-0.7,2.5-1c-0.8,2.1-1.6,4.2-2.1,6.4c-0.8,3.6-1.4,7.3-1.7,11c-0.1,1.3-0.2,2.5-0.2,3.8
			c1.2,0.2,2.4,0.5,3.6,0.7c3.3,0.5,6.6,0.9,9.9,1c2.5,0.1,5-0.1,7.4-0.4c-0.5,0.8-1,1.5-1.5,2.2c3.7,0.5,7.5,0.6,11.2,0.4
			c3.9-0.3,7.9-0.9,11.4-2.8c-6,0.8-12.2,1.8-18.2,0.7c2.1-1.7,4.3-3.5,6-5.7c-2,1-3.9,2.1-6.1,2.5c-4.5,1-9.1-0.1-13.4-1.6
			c-1.7-0.6-3.3-1.1-5.1-1.2c0.6-2.8,0-5.7,0-8.5c-0.1-4,0.5-8.1,2.5-11.6c0.9-1.7,2.2-3,3.4-4.4c-2.6,1.1-4.8,2.8-7,4.5
			c0.5-6.3,2.9-12.2,5.1-18c-2.4,2.7-3.9,6.1-5.1,9.6C33,261,32.1,265.2,31.6,269.4z"/>
	</g>
	<g>
		<path d="M70,271.5c-3-1.1-6-2.1-9-3.2c-1.6-0.6-2.5,2-0.9,2.6c3,1.1,6,2.1,9,3.2C70.7,274.7,71.6,272.1,70,271.5z"/>
	</g>
</g>
</svg>
