<?xml version="1.0" encoding="utf-8"?>
<!-- Generator: Adobe Illustrator 25.3.0, SVG Export Plug-In . SVG Version: 6.00 Build 0)  -->
<svg version="1.1" id="Capa_1" xmlns="http://www.w3.org/2000/svg" xmlns:xlink="http://www.w3.org/1999/xlink" x="0px" y="0px"
	 width="447px" height="401px" viewBox="0 0 447 401" style="enable-background:new 0 0 447 401;" xml:space="preserve">
<style type="text/css">
	.st0{fill:none;stroke:#000000;stroke-width:0.75;}
	.st1{fill:#FFFFFF;}
</style>
<g>
	<path d="M103.1,169.4v-27.7h9.9c2.6,0,4.7,0.6,6.2,1.9c1.6,1.3,2.4,3,2.4,5.3c0,1.3-0.3,2.5-0.9,3.5s-1.4,1.8-2.5,2.4v0.1
		c1.5,0.4,2.6,1.2,3.3,2.5c0.8,1.2,1.2,2.6,1.2,4.1c0,2.6-0.9,4.6-2.7,6c-1.8,1.4-4.1,2-6.8,2H103.1z M108.2,153h4.9
		c1.1,0,1.9-0.3,2.5-1c0.6-0.7,0.9-1.5,0.9-2.6c0-1-0.3-1.8-0.9-2.5c-0.6-0.6-1.5-1-2.6-1h-4.8V153z M108.2,165.1h5.4
		c1.2,0,2.2-0.4,2.9-1.1c0.7-0.7,1.1-1.7,1.1-2.9c0-1.2-0.4-2.1-1.1-2.9c-0.7-0.7-1.7-1.1-2.9-1.1h-5.4V165.1z"/>
	<path d="M127.8,169.4v-27.7h9.1c2.3,0,4.1,0.2,5.2,0.7c1.5,0.6,2.6,1.5,3.4,2.8c0.8,1.3,1.2,2.9,1.2,4.7c0,1.7-0.4,3.2-1.2,4.6
		c-0.8,1.4-2,2.4-3.4,2.9v0.1c0.2,0.3,0.5,0.8,0.9,1.4l5.7,10.3h-5.7l-5.5-10.3h-4.8v10.3H127.8z M132.9,154.7h4.5
		c1.4,0,2.4-0.4,3.2-1.2c0.8-0.8,1.2-1.9,1.2-3.2c0-1.9-0.7-3.2-2.2-3.8c-0.7-0.3-1.7-0.5-3-0.5h-3.7V154.7z"/>
	<path d="M149.8,169.4l9.7-27.7h5.3l9.7,27.7h-5.2l-2.4-7.1h-9.7l-2.3,7.1H149.8z M158.5,158.2h7.2l-2.5-7.4l-1.1-4.3h-0.1
		c-0.4,1.8-0.8,3.3-1.1,4.3L158.5,158.2z"/>
	<path d="M178.2,169.4v-27.7h5l10.5,16c0.3,0.5,0.7,1.1,1,1.8c0.4,0.7,0.7,1.3,0.9,1.8l0.4,0.7h0.1c-0.2-1.8-0.3-3.2-0.3-4.3v-16h5
		v27.7h-5l-10.5-16c-0.3-0.5-0.7-1.1-1-1.8c-0.4-0.7-0.7-1.3-0.9-1.8l-0.4-0.7H183c0.2,1.8,0.3,3.2,0.3,4.3v16H178.2z"/>
	<path d="M207.6,169.4v-27.7h9.4c4.3,0,7.8,1.2,10.3,3.7c2.5,2.4,3.8,5.8,3.8,10.1s-1.3,7.7-3.8,10.2c-2.6,2.5-6,3.7-10.3,3.7H207.6
		z M212.6,165.1h4.1c2.9,0,5.1-0.8,6.8-2.5c1.6-1.7,2.5-4,2.5-7.1c0-3-0.8-5.4-2.5-7c-1.7-1.7-3.9-2.5-6.7-2.5h-4.1V165.1z"/>
	<path d="M236.4,169.4v-27.7h5v27.7H236.4z"/>
	<path d="M248.1,169.4v-27.7h5l10.5,16c0.3,0.5,0.7,1.1,1,1.8c0.4,0.7,0.7,1.3,0.9,1.8l0.4,0.7h0.1c-0.2-1.8-0.3-3.2-0.3-4.3v-16h5
		v27.7h-5l-10.5-16c-0.3-0.5-0.7-1.1-1-1.8c-0.4-0.7-0.7-1.3-0.9-1.8l-0.4-0.7h-0.1c0.2,1.8,0.3,3.2,0.3,4.3v16H248.1z"/>
	<path d="M275.9,155.5c0-4,1.4-7.4,4.1-10.2c2.7-2.7,6.1-4.1,10.2-4.1c4.2,0,7.6,1.2,10.3,3.5l-2.5,3.7c-0.9-0.8-2-1.4-3.4-1.9
		c-1.4-0.5-2.7-0.7-4-0.7c-3,0-5.3,0.9-7,2.7c-1.7,1.8-2.5,4.1-2.5,6.8c0,2.9,0.9,5.3,2.7,7.2c1.8,1.8,4,2.8,6.6,2.8
		c2.6,0,4.9-1,6.9-2.9v-3.2h-4.3v-4.3h8.8v14.6h-4.3v-1.3l0-1.2h-0.1c-0.9,0.9-2.1,1.6-3.5,2.1c-1.4,0.5-2.9,0.8-4.5,0.8
		c-3.8,0-7-1.3-9.6-4S275.9,159.7,275.9,155.5z"/>
</g>
<g>
	<path d="M21,127.6V44h11.7v73.5h37.6v10.2H21z"/>
	<path d="M86.3,127.6V44H135v10.2H98v26.2h30v10.2H98v26.9h39v10.2H86.3z"/>
	<path d="M146.8,127.6l30-83.6h12.4l30,83.6h-12.1l-8.4-24h-31.5l-8.4,24H146.8z M170.3,93.8h25.4l-9.2-26.4l-3.3-12h-0.2
		c-1.2,5.1-2.3,9-3.2,12L170.3,93.8z"/>
	<path d="M235,127.6V44h11.6l37.3,54.3l6.9,12.2h0.2c-0.5-5-0.7-9-0.7-12.2V44h11.6v83.6h-11.5l-37.3-54.3l-6.9-12.2H246
		c0.5,5,0.7,9,0.7,12.2v54.3H235z"/>
</g>
<g>
	<path class="st0" d="M23.2,215.3c0-3.9,1.3-7.2,3.9-9.8c2.6-2.6,5.9-3.9,9.9-3.9c4.1,0,7.4,1.2,9.9,3.7l-2.3,3.6
		c-1-0.8-2.1-1.5-3.5-2c-1.3-0.5-2.6-0.8-3.9-0.8c-2.8,0-5,0.9-6.6,2.7c-1.6,1.8-2.4,4-2.4,6.6c0,2.7,0.8,4.9,2.4,6.8
		c1.6,1.9,3.8,2.8,6.6,2.8c2.9,0,5.5-1.1,7.8-3.4l2.6,3.5c-2.9,2.9-6.4,4.4-10.6,4.4c-4.2,0-7.5-1.3-10.1-4
		C24.5,222.7,23.2,219.3,23.2,215.3z"/>
	<path class="st0" d="M50.6,215.2c0-3.9,1.3-7.1,3.9-9.8s5.9-3.9,10-3.9c4,0,7.4,1.3,10,3.9s3.9,5.9,3.9,9.8c0,4-1.3,7.3-3.9,10
		c-2.6,2.7-5.9,4.1-10,4.1c-4,0-7.4-1.3-10-4.1C51.9,222.5,50.6,219.2,50.6,215.2z M55.6,215.2c0,2.8,0.8,5,2.5,6.9
		c1.7,1.8,3.8,2.7,6.3,2.7c2.5,0,4.7-0.9,6.3-2.7c1.7-1.8,2.5-4.1,2.5-6.9c0-2.6-0.8-4.8-2.5-6.6c-1.7-1.8-3.8-2.7-6.3-2.7
		c-2.6,0-4.7,0.9-6.3,2.7C56.5,210.4,55.6,212.6,55.6,215.2z"/>
	<path class="st0" d="M84.3,228.8V202h4.9l10.2,15.5c0.3,0.5,0.6,1.1,1,1.8c0.4,0.7,0.7,1.3,0.9,1.7l0.3,0.7h0.1
		c-0.2-1.7-0.3-3.1-0.3-4.2V202h4.8v26.9h-4.8l-10.2-15.5c-0.3-0.5-0.6-1.1-1-1.8c-0.4-0.7-0.7-1.3-0.9-1.7l-0.3-0.7h-0.1
		c0.2,1.7,0.3,3.1,0.3,4.2v15.5H84.3z"/>
	<path class="st0" d="M111.8,225.6l2.7-3.7c0.9,0.8,1.9,1.5,3.1,2c1.2,0.6,2.4,0.8,3.5,0.8c1.2,0,2.2-0.3,2.9-0.9
		c0.7-0.6,1.1-1.3,1.1-2.2c0-0.9-0.4-1.7-1.3-2.4c-0.9-0.7-1.9-1.3-3.1-1.8s-2.5-1.1-3.7-1.7c-1.2-0.6-2.3-1.5-3.1-2.6
		c-0.9-1.1-1.3-2.4-1.3-4c0-2.3,0.9-4.2,2.6-5.6c1.7-1.4,3.9-2.2,6.6-2.2c3.2,0,5.8,1,7.9,2.9l-2.2,4c-0.8-0.7-1.7-1.2-2.7-1.7
		s-2.1-0.7-3.2-0.7c-1.2,0-2.2,0.3-3,0.8c-0.7,0.6-1.1,1.3-1.1,2.2c0,0.9,0.4,1.7,1.3,2.3c0.9,0.7,1.9,1.2,3.1,1.7
		c1.2,0.5,2.5,1,3.7,1.6c1.2,0.6,2.3,1.4,3.1,2.6c0.9,1.1,1.3,2.5,1.3,4.1c0,2.3-0.8,4.2-2.4,5.7c-1.6,1.5-3.8,2.3-6.6,2.3
		c-1.7,0-3.4-0.3-5-0.9C114.4,227.7,113,226.8,111.8,225.6z"/>
	<path class="st0" d="M141.9,228.8v-22.7H133V202h22.5v4.2h-8.8v22.7H141.9z"/>
	<path class="st0" d="M160.3,228.8V202h8.9c2.3,0,4,0.2,5.1,0.7c1.4,0.6,2.5,1.5,3.3,2.8c0.8,1.3,1.2,2.8,1.2,4.6
		c0,1.6-0.4,3.1-1.2,4.5c-0.8,1.4-1.9,2.3-3.3,2.9v0.1c0.2,0.3,0.5,0.7,0.9,1.4l5.5,10h-5.5l-5.3-10h-4.7v10H160.3z M165.1,214.6
		h4.4c1.3,0,2.3-0.4,3.1-1.2c0.8-0.8,1.1-1.8,1.1-3.1c0-1.9-0.7-3.1-2.1-3.7c-0.7-0.3-1.7-0.5-3-0.5h-3.6V214.6z"/>
	<path class="st0" d="M185.1,219.2V202h4.9v17.2c0,1.8,0.5,3.2,1.6,4.2c1.1,1,2.5,1.5,4.3,1.5s3.3-0.5,4.3-1.5
		c1.1-1,1.6-2.4,1.6-4.2V202h4.9v17.2c0,3-1,5.4-3,7.3c-2,1.9-4.6,2.8-7.8,2.8c-3.3,0-5.9-0.9-7.9-2.8
		C186.1,224.6,185.1,222.2,185.1,219.2z"/>
	<path class="st0" d="M214,228.8V202h4.9v26.9H214z"/>
	<path class="st0" d="M226.3,228.8V202h8.9c2.3,0,4,0.2,5.1,0.7c1.4,0.6,2.5,1.5,3.3,2.8c0.8,1.3,1.2,2.8,1.2,4.6
		c0,1.6-0.4,3.1-1.2,4.5c-0.8,1.4-1.9,2.3-3.3,2.9v0.1c0.2,0.3,0.5,0.7,0.9,1.4l5.5,10h-5.5l-5.3-10h-4.7v10H226.3z M231.2,214.6
		h4.4c1.3,0,2.3-0.4,3.1-1.2c0.8-0.8,1.1-1.8,1.1-3.1c0-1.9-0.7-3.1-2.1-3.7c-0.7-0.3-1.7-0.5-3-0.5h-3.6V214.6z"/>
	<path class="st0" d="M250.7,228.8V224h4.8v4.8H250.7z"/>
	<path class="st0" d="M23.8,274.3l2.2-26.9h5.2l5.3,13.3l1.3,3.9h0.1c0.5-1.6,0.9-2.9,1.3-3.9l5.3-13.3h5.2l2.2,26.9H47l-1.1-15
		c-0.1-0.5-0.1-1.1-0.1-1.8c0-0.7,0-1.3,0-1.7v-0.6h-0.1c-0.6,1.7-1.1,3.1-1.5,4.2l-4.4,10.4h-4.2l-4.4-10.4l-1.5-4.2h-0.1
		c0.1,1.6,0.1,3,0,4.2l-1.1,15H23.8z"/>
	<path class="st0" d="M58.3,274.3v-26.9h16.1v4.2H63.2v7h9.1v4.2h-9.1v7.2H75v4.2H58.3z"/>
	<path class="st0" d="M80.8,274.3v-26.9h9.2c4.2,0,7.5,1.2,10,3.6c2.5,2.4,3.7,5.7,3.7,9.8s-1.2,7.5-3.7,9.9
		c-2.5,2.4-5.8,3.6-10,3.6H80.8z M85.7,270.1h4c2.8,0,5-0.8,6.6-2.4c1.6-1.6,2.4-3.9,2.4-6.9c0-2.9-0.8-5.2-2.4-6.8
		c-1.6-1.6-3.8-2.4-6.5-2.4h-4V270.1z"/>
	<path class="st0" d="M109.6,274.3v-26.9h4.9v26.9H109.6z"/>
	<path class="st0" d="M122,274.3v-26.9h8.9c2.3,0,4,0.2,5.1,0.7c1.4,0.6,2.5,1.5,3.3,2.8c0.8,1.3,1.2,2.8,1.2,4.6
		c0,1.6-0.4,3.1-1.2,4.5c-0.8,1.4-1.9,2.3-3.3,2.9v0.1c0.2,0.3,0.5,0.7,0.9,1.4l5.5,10h-5.5l-5.3-10h-4.7v10H122z M126.9,260h4.4
		c1.3,0,2.3-0.4,3.1-1.2c0.8-0.8,1.1-1.8,1.1-3.1c0-1.9-0.7-3.1-2.1-3.7c-0.7-0.3-1.7-0.5-3-0.5h-3.6V260z"/>
	<path class="st0" d="M146.4,274.3v-4.8h4.8v4.8H146.4z"/>
	<path class="st0" d="M21.8,319.7l9.4-26.9h5.2l9.4,26.9h-5l-2.3-6.9h-9.4l-2.3,6.9H21.8z M30.3,308.9h7l-2.4-7.2l-1.1-4.2h-0.1
		c-0.4,1.8-0.8,3.2-1.1,4.2L30.3,308.9z"/>
	<path class="st0" d="M50.4,319.7v-26.9h10.4c2.5,0,4.6,0.8,6.2,2.4c1.6,1.6,2.4,3.7,2.4,6.3s-0.8,4.7-2.4,6.4
		c-1.6,1.7-3.6,2.5-6.2,2.5h-5.5v9.3H50.4z M55.2,306.2h4.6c1.4,0,2.5-0.4,3.3-1.2c0.8-0.8,1.2-2,1.2-3.4c0-1.4-0.4-2.5-1.2-3.3
		s-1.9-1.2-3.2-1.2h-4.7V306.2z"/>
	<path class="st0" d="M74.6,319.7v-26.9h8.9c2.3,0,4,0.2,5.1,0.7c1.4,0.6,2.5,1.5,3.3,2.8c0.8,1.3,1.2,2.8,1.2,4.6
		c0,1.6-0.4,3.1-1.2,4.5c-0.8,1.4-1.9,2.3-3.3,2.9v0.1c0.2,0.3,0.5,0.7,0.9,1.4l5.5,10h-5.5l-5.3-10h-4.7v10H74.6z M79.5,305.5h4.4
		c1.3,0,2.3-0.4,3.1-1.2c0.8-0.8,1.1-1.8,1.1-3.1c0-1.9-0.7-3.1-2.1-3.7c-0.7-0.3-1.7-0.5-3-0.5h-3.6V305.5z"/>
	<path class="st0" d="M99.8,319.7v-26.9h16.1v4.2h-11.2v7h9.1v4.2h-9.1v7.2h11.8v4.2H99.8z"/>
	<path class="st0" d="M122.2,319.7v-26.9h4.9l10.2,15.5c0.3,0.5,0.6,1.1,1,1.8c0.4,0.7,0.7,1.3,0.9,1.7l0.3,0.7h0.1
		c-0.2-1.7-0.3-3.1-0.3-4.2v-15.5h4.8v26.9h-4.8l-10.2-15.5c-0.3-0.5-0.6-1.1-1-1.8c-0.4-0.7-0.7-1.3-0.9-1.7l-0.3-0.7h-0.1
		c0.2,1.7,0.3,3.1,0.3,4.2v15.5H122.2z"/>
	<path class="st0" d="M151.7,319.7v-26.9h9.2c4.2,0,7.5,1.2,10,3.6c2.5,2.4,3.7,5.7,3.7,9.8c0,4.2-1.2,7.5-3.7,9.9
		c-2.5,2.4-5.8,3.6-10,3.6H151.7z M156.6,315.5h4c2.8,0,5-0.8,6.6-2.4c1.6-1.6,2.4-3.9,2.4-6.9c0-2.9-0.8-5.2-2.4-6.8
		c-1.6-1.6-3.8-2.4-6.5-2.4h-4V315.5z"/>
	<path class="st0" d="M180.6,319.7v-26.9h16.1v4.2h-11.2v7h9.1v4.2h-9.1v7.2h11.8v4.2H180.6z"/>
	<path class="st0" d="M203,319.7v-26.9h8.9c2.3,0,4,0.2,5.1,0.7c1.4,0.6,2.5,1.5,3.3,2.8c0.8,1.3,1.2,2.8,1.2,4.6
		c0,1.6-0.4,3.1-1.2,4.5c-0.8,1.4-1.9,2.3-3.3,2.9v0.1c0.2,0.3,0.5,0.7,0.9,1.4l5.5,10h-5.5l-5.3-10h-4.7v10H203z M207.9,305.5h4.4
		c1.3,0,2.3-0.4,3.1-1.2c0.8-0.8,1.1-1.8,1.1-3.1c0-1.9-0.7-3.1-2.1-3.7c-0.7-0.3-1.7-0.5-3-0.5h-3.6V305.5z"/>
	<path class="st0" d="M227.5,319.7v-4.8h4.8v4.8H227.5z"/>
	<path class="st0" d="M24.8,365.2v-26.9h8.9c2.3,0,4,0.2,5.1,0.7c1.4,0.6,2.5,1.5,3.3,2.8c0.8,1.3,1.2,2.8,1.2,4.6
		c0,1.6-0.4,3.1-1.2,4.5c-0.8,1.4-1.9,2.3-3.3,2.9v0.1c0.2,0.3,0.5,0.7,0.9,1.4l5.5,10h-5.5l-5.3-10h-4.7v10H24.8z M29.7,350.9h4.4
		c1.3,0,2.3-0.4,3.1-1.2c0.8-0.8,1.1-1.8,1.1-3.1c0-1.9-0.7-3.1-2.1-3.7c-0.7-0.3-1.7-0.5-3-0.5h-3.6V350.9z"/>
	<path class="st0" d="M50,365.2v-26.9h16.1v4.2H54.9v7h9.1v4.2h-9.1v7.2h11.8v4.2H50z"/>
	<path class="st0" d="M72.4,365.2v-26.9h10.4c2.5,0,4.6,0.8,6.2,2.4c1.6,1.6,2.4,3.7,2.4,6.3s-0.8,4.7-2.4,6.4
		c-1.6,1.7-3.6,2.5-6.2,2.5h-5.5v9.3H72.4z M77.3,351.7h4.6c1.4,0,2.5-0.4,3.3-1.2c0.8-0.8,1.2-2,1.2-3.4c0-1.4-0.4-2.5-1.2-3.3
		c-0.8-0.8-1.9-1.2-3.2-1.2h-4.7V351.7z"/>
	<path class="st0" d="M96.7,365.2v-26.9h16.1v4.2h-11.2v7h9.1v4.2h-9.1v7.2h11.8v4.2H96.7z"/>
	<path class="st0" d="M125.2,365.2v-22.7h-8.8v-4.2h22.5v4.2h-8.8v22.7H125.2z"/>
	<path class="st0" d="M143.6,365.2v-26.9h4.9v26.9H143.6z"/>
	<path class="st0" d="M156,365.2v-26.9h8.9c2.3,0,4,0.2,5.1,0.7c1.4,0.6,2.5,1.5,3.3,2.8c0.8,1.3,1.2,2.8,1.2,4.6
		c0,1.6-0.4,3.1-1.2,4.5c-0.8,1.4-1.9,2.3-3.3,2.9v0.1c0.2,0.3,0.5,0.7,0.9,1.4l5.5,10h-5.5l-5.3-10h-4.7v10H156z M160.9,350.9h4.4
		c1.3,0,2.3-0.4,3.1-1.2c0.8-0.8,1.1-1.8,1.1-3.1c0-1.9-0.7-3.1-2.1-3.7c-0.7-0.3-1.7-0.5-3-0.5h-3.6V350.9z"/>
</g>
<g>
	<path class="st1" d="M250.7,295.6c2.9,0.6,5.8,0,8.5-0.9c4.7-1.7,9-4.5,13-7.5c4.6-3.6,8.9-7.5,12.9-11.7c0.5-0.6,1.1-1.2,1.7-1.6
		c-0.1,0.8-0.5,1.5-0.8,2.3c-2.6,6.2-5.4,12.2-8.6,18.1c-2.6,4.7-5.4,9.4-9.1,13.3c1.5,0.7,3.2,0.7,4.8,0.7c2-0.1,4-0.5,6-0.8
		c-1.7,3.2-3.7,6.3-5.9,9.2c-1.9,2.6-4.1,5-6.2,7.4c6.1,0.1,12.2-0.7,18-2.5c-0.5,3.9-0.5,7.9,0,11.9c0.2,1.7,0.5,3.4,0.9,5
		c-0.3,1.1-0.5,2.3-0.8,3.5c-6.3,3.9-38,24.9-32.4,45.8c-0.5,0.5-1.2,1-2,1.7h179.8V265.6c0-0.9,0.6-1.5,1.4-1.6
		c-5.8-4.6-11.2-9.6-16.5-14.7c-0.3-0.3-0.6-0.6-0.7-0.9c0.3-1.1,0.8-2.1,1.2-3.2c1.6-4.5,2.6-9.4,2.5-14.2
		c-0.2-6.2-2.5-12.5-6.9-17c-0.6-0.6-1.1-1.2-1.8-1.6c-3.9,1.3-7.3,3.7-10.8,5.7c-1.4-7-3.5-13.8-6.8-20.2c-1.8-3.3-3.8-6.5-6.6-9.1
		c-3.4-2.8-7.6-4.4-11.9-5.3c-5.3-1.1-10.8-1.2-16.2-0.8c-6.4,0.5-12.7,1.7-18.8,3.4c-1.2,0.3-2.4,0.8-3.6,1
		c-0.8-2.2-2.3-4.2-4.4-5.3c-5.2-2.7-12.3-0.5-14.7,4.8c-1.1,2.2-1.1,4.8-0.8,7.2c-6.1,1.9-12.1,4.3-17.6,7.7
		c-6,3.7-11.4,8.7-14.8,14.9c-1.6,3-2.6,6.4-2.2,9.8c0.5,4.3,2.8,8.2,4.6,12.1c-2.4-0.2-4.8-0.6-7.2-0.5c-0.4,0-0.7,0.1-0.8,0.5
		c-1.9,4-2.5,8.6-2,13c0.2,2.2,0.9,4.3,1.5,6.4c-2.9,1-5.9,2.2-8.7,3.5c-6.4,2.9-12.7,6.5-17.8,11.5c-2.8,2.9-5.4,6.3-6.3,10.3
		c-0.7,2.7-0.5,5.7,0.9,8.1C245.7,293.5,248.1,295.1,250.7,295.6z"/>
	<path d="M430.5,312v-23.4c-2.9,0.3-5.7,0.3-8.6-0.4c-1.4-0.9-2.4-2.4-4-3c3.2,4.5,5.3,9.6,6.7,14.8c1.7,5.8,2.6,12,5.9,17.2V317
		c-1.4-5.5-2.6-11.2-2.4-16.9C428.7,304.1,429.4,308.1,430.5,312z"/>
	<path d="M251.3,297c2.8,0.6,5.7,0,8.4-0.9c4.7-1.7,8.9-4.5,12.8-7.4c4.5-3.5,8.8-7.5,12.7-11.6c0.5-0.6,1.1-1.2,1.7-1.6
		c-0.1,0.8-0.5,1.5-0.8,2.2c-2.6,6.1-5.4,12.1-8.5,17.9c-2.6,4.7-5.4,9.3-9,13.2c1.5,0.7,3.2,0.7,4.7,0.6c2-0.1,3.9-0.5,5.9-0.8
		c-1.7,3.2-3.7,6.2-5.8,9.1c-1.8,2.6-4,5-6.2,7.3c6,0.1,12.1-0.7,17.8-2.5c-0.5,3.9-0.5,7.9,0,11.8c0.4,3.1,1,6.2,2.1,9.2
		c0,0-0.1,0-0.1,0.1l-0.9-1.5c-1.6,1-39.1,23.6-33,46c-0.4,0.3-0.9,0.8-1.5,1.3h178.6v-66.4c-4.1-0.8-8-2.7-11.4-5.1
		c-0.3,3.2-0.8,6.5-1.4,9.6c-0.4,2.1-0.9,4.2-1.5,6.3c0.2,2.8-0.8,5.6-1.7,8.1c-1.2,3.2-2.4,6.5-4.1,9.5
		c-3.1,5.5-7.4,10.5-12.2,14.6c-0.6,0.5-1.3,1.1-1.9,1.6c-0.1,0.3-0.2,0.6-0.4,0.9c-0.7,0.3-1.3,0.5-2,0.8c0,0,0,0,0,0
		c-0.8,0.5-1.5,1-2.3,1.4c-0.7,0.5-1.4,0.9-2.1,1.2c-3.4,1.6-7.1,2.4-10.8,3c-4.3,0.7-8.7,1.5-13.1,1.4c-2.3,0-4.6-0.2-6.8-0.5
		c-2.3-0.3-4.7-0.6-7-1.3c-2-0.6-3.9-1.4-5.8-2.2c0,0.2-0.1,0.4-0.1,0.6c0,0.4,0,0.9,0,1.3c-4.6-1.8-8.8-4.4-12.7-7.4
		c-1.5-1.1-2.9-2.3-4.2-3.6c-0.5-0.2-0.9-0.7-1.4-1.1c-3.1-2.9-6-6-8.6-9.3c-1.5-1.9-3-3.8-4.4-5.9c-1.8-2.5-3.4-5.1-4.9-7.8
		c-2.8,4.7-6.9,8.8-12.1,11c0.3-6.6-0.7-13.2-2.2-19.6c-0.3-1.4-0.8-2.8-1-4.3c2.1,4.8,3.5,9.9,4.3,15.1c0.1,0.6,0.2,1.3,0.4,1.9
		c0.9-6.2-0.7-12.3-1.6-18.5c-0.8-5.3-1-10.8,0.2-16c-1.1,1-1.6,2.4-2.2,3.7c-0.3,0.8-1.2,1.1-1.9,1.5c-3.6,2-7.5,3-11.5,3.9
		c0.6-0.8,1.6-1.4,2.3-2.1c1.8-1.8,3.3-3.8,4.7-5.9c0.2-0.3,0.5-0.6,0.3-1c-2,2.3-4.4,4.2-6.9,6.1c-2.7,2.1-5.6,3.7-8.6,5.2
		c3.1-3.3,5.5-7.1,7.6-11.1c0.6-1.2,1.2-2.4,1.7-3.7c-3,1.4-6.3,2.3-9.7,2c2.3-2.8,4.3-5.8,6.3-8.8c0.3-1.1,1.1-1.9,1.6-2.9
		c1.6-2.9,3.3-5.7,4.8-8.6c0.3-0.6,0.6-1.1,1-1.6c-0.6,3-2.4,5.5-3.4,8.3c1.5-1.7,2.5-3.8,3.7-5.7c0.8-1.4,1.3-2.8,2.2-4.2
		c-0.2,2.1-1.4,3.9-2,5.8c2.2-2.4,3.5-5.5,5.1-8.3c-0.1,2-1.1,3.7-1.7,5.5c1.6-1.5,2.3-3.7,3.5-5.4c0,1.2-0.6,2.3-1.1,3.4
		c-1.7,3.5-4.5,6.6-7.8,8.6c1.2,0.8,2.5,1.6,3.9,1.9c1.2,0.3,2.4-0.1,3.6-0.3c0.6,1-0.2,2-0.6,2.8c-2,3.5-4.6,6.7-7.1,9.9
		c-0.8,1-1.7,1.9-2.3,3c2-1.5,3.6-3.4,5.3-5.2c3.5-4,6.5-8.3,9.1-12.9c0.9-1.7,1.8-3.3,2.4-5.1c-3.5,2.7-7.5,4.6-11.9,5.4
		c0.1-0.2,0.3-0.3,0.5-0.4c2.4-1.6,4.5-3.7,5.9-6.2c0.6-1.1,1.1-2.1,1.6-3.2c0.3-0.8,0.6-1.6,0.9-2.4c0,0,0-0.1,0-0.1
		c1.6,3.5,3.5,7,5.8,10.2c1.7,2.4,3.8,4.7,6.6,5.8c2.6,1.2,5.6,1.8,8.4,1.6c0.2-0.1,0.3-0.1,0.5,0l0.1,0c0.2-0.1,0.4-0.1,0.6-0.1
		c0.2,0,0.3,0,0.5-0.1c0.3-0.1,0.7-0.2,1-0.2l0,0.1c0.1,0,0.3-0.1,0.4-0.1c1-0.3,2-0.5,3-0.8c-0.5,1.2-0.9,2.5-1.2,3.8
		c0.8-1.3,1.5-2.7,2.3-4.1c0.1,0,0.1,0,0.2-0.1c0.2-0.1,0.4-0.2,0.7-0.2c-0.6,2-0.9,4.2-1,6.4c-0.1,1.7-0.6,3.3-1,4.9
		c1.4-2,2-4.5,2.6-6.9c0.4,4.3-0.4,8.6-1.8,12.7c-0.4,1.3-1.1,2.4-1.4,3.7c2.1-2.2,3.2-5.1,4.4-7.9c0.5,3.7-0.2,7.5-1.5,11
		c-0.3,1-0.9,1.9-1.1,2.9c1.9-1.8,3.1-4.2,3.9-6.7c1.2,4.4,0.2,9-1,13.3c1.6-1.5,2.5-3.5,3.1-5.6c2.3,5.6,5.9,10.8,10.7,14.5
		c-7.4-10-10.8-22.5-10.3-34.8c1.2,1.2,1.6,2.9,2.1,4.5c0.2-2.8-0.5-5.5-1.2-8.2c1.1,0.6,2,1.7,2.9,2.5c-1.1-2.7-3.5-4.5-5.1-6.9
		c-0.2-0.3-0.4-0.6-0.6-1c0,0,0.1,0,0.1-0.1c0.1-0.1,0.3-0.2,0.5-0.2c0.2,0,0.3-0.2,0.5-0.2c0.6-0.3,1.2-0.6,1.8-0.9
		c0.3,0.4,0.6,0.9,1,1.3c-0.1-0.5-0.2-1.1-0.4-1.6c0.7-0.4,1.3-0.8,1.9-1.2c0.1-0.1,0.2-0.1,0.3-0.2c-0.1,1.4,0,2.9,0.8,4.1
		c0.8,1.1,2.1,2,3.5,2.1c3.2,0.5,6.4-0.8,9-2.5c-1.1-0.6-2.4-1-3.3-2c-1-1.2-0.7-2.9,0.3-4c1-1.2,2.9-1.6,4.3-0.8
		c2,1.1,2.9,3.3,3.8,5.3c0.7,1.6,1.1,3.4,1.9,4.9c0.9,1.4,2.8,1,4,0.5c0.9-0.3,1.2-1.3,1.2-2.2c-0.1-3.2-0.7-6.5,0.4-9.5
		c0.5-1.6,2.2-2.9,4-2.5c1.7,0.2,3.3,1.7,3.1,3.5c-0.2,1.5-1.4,2.4-2.3,3.5c2.6,0.5,5.4,0.6,7.9-0.4c1.7-0.6,3.1-1.7,3.7-3.4
		c0.3-1.2,0.1-2.5-0.3-3.6c-0.3-0.7-0.6-1.3-1-2c0.9,0,1.9,0,2.8-0.1c0.2,1,0.4,2,0.5,3.1c0.4-1,0.6-2.1,0.7-3.2
		c0.1,0,0.2-0.1,0.3,0c0.1,0,0.2,0,0.3,0c0.2-0.1,0.4-0.1,0.6-0.1c0.1,0,0.3,0,0.4,0c0.2,0,0.5-0.1,0.7-0.1c0.2,0,0.4,0,0.5-0.1
		c0.1,0,0.1,0,0.2,0c0.1,1.2,0.1,2.4-0.2,3.6c-0.5,2.7-1.9,5.2-1.9,8c0.7-1.1,0.9-2.3,1.7-3.3c0.4,2.7,0.9,5.5,2.2,7.9
		c-0.2-1.6-0.4-3.3,0.1-4.9c1.1,1.9,1.9,4,2.7,6.1c2.3,6.6,3.6,13.6,3.3,20.6c-0.1,3-0.6,5.9-1.1,8.8c0.7-0.9,1.1-1.9,1.5-2.9
		c1.8-4.4,2.5-9.2,2.4-14c1.4,1.7,3,3.3,5.1,4c-2.8-3.5-5.6-7.3-6.2-11.8c1.7,2,3.8,3.8,6.2,4.7c-3.4-3.3-6.7-7.1-8-11.7
		c2.3,1.9,4.4,4.3,7.2,5.4c-0.9-1.1-2-1.9-2.9-2.9c-2.8-3.1-5.3-6.7-6.7-10.7c1.6,1.8,3,3.9,5.1,5.2c-0.6-0.9-1.3-1.6-1.9-2.5
		c-1.4-2-2.3-4.3-3.8-6.2c-0.7-0.9-1.5-1.7-2.3-2.5c2.1,1,3.7,2.7,5.7,3.9c-1-1.4-2.2-2.6-3.4-3.8c-0.5-0.5-1-1-1.6-1.5
		c0.7-0.2,1.3-0.3,2-0.5c0.1,0,0.3-0.1,0.4-0.1l0-0.1c0.2-0.1,0.5-0.2,0.7-0.2c0.2,0,0.3-0.1,0.5-0.2c0.1-0.1,0.3-0.2,0.5-0.2
		l0.1-0.1c0.2-0.1,0.4-0.2,0.6-0.3c0.1-0.1,0.3-0.2,0.5-0.2c0.6-0.3,1.4-0.6,1.8-1.1c4.3-2.5,6.8-7.3,7.2-12.3
		c0.4-4.1,0.3-8.3-0.1-12.4c-0.1-0.2-0.1-0.3-0.1-0.5c0.1-0.4,0-0.7-0.1-1.1c-0.1-0.2-0.1-0.3,0-0.5c0-0.2-0.1-0.4-0.1-0.6
		c0-0.1,0-0.2,0-0.3c0.9,0.8,1.7,1.7,2.5,2.6c0.5,0.5,1,1.1,1.4,1.7c0.5,0.6,1,1.2,1.5,1.8c0.7,0.8,1.4,1.6,2.1,2.4
		c0.9,1,1.9,1.9,2.9,2.8c2,1.8,4.4,3.3,7,4.1c0.9,0.3,1.9,0.5,2.9,0.7c-0.2,0-0.5,0-0.7,0c-1,0.5-2.2,0.4-3.3,0.5
		c-3.1,0.2-6.1-0.3-9.1-1c2.6,2.8,5.8,5.1,9,7.3c3.9,2.6,8,4.8,12.3,6.6c0.6,0.3,1.2,0.5,1.9,0.8v-0.2c-3.6-1.9-7.2-3.7-10.2-6.4
		c-1.2-1.1-2.3-2.3-2.8-3.9c-0.2-0.6,0.3-1.1,0.8-1.4c1.5-0.9,3.3-1.3,4.6-2.6c-4.3-0.7-8.5-2.8-11.6-5.8c-0.5-0.4-0.9-0.9-1.2-1.5
		c2,1,3.5,2.9,5.7,3.6c-1.4-1.4-3.2-2.6-4.1-4.5c1,0.5,1.7,1.4,2.6,2.1c1.7,1.2,3.3,2.6,5.2,3.4c-1.3-1.5-3-2.5-3.9-4.2
		c0.3,0.2,0.7,0.4,1,0.6c2.6,2.2,5.2,4.3,8.1,5.9c-2.1-2.2-4.8-3.9-6.5-6.4c0.9,0.5,1.6,1.2,2.4,1.9c2.2,1.8,4.4,3.5,6.7,5.2
		c0.9,0.7,2,1.3,2.8,2.2c0.2,0.1,0.3,0.2,0.5,0.3v-3.6c0-0.1,0-0.2,0-0.3c-5.6-4.5-11-9.3-16.1-14.3c-0.3-0.3-0.6-0.5-0.7-0.9
		c0.3-1.1,0.8-2.1,1.2-3.2c1.6-4.5,2.6-9.3,2.4-14.1c-0.2-6.2-2.5-12.4-6.9-16.9c-0.6-0.6-1.1-1.2-1.8-1.5
		c-3.9,1.2-7.3,3.6-10.7,5.7c-1.4-6.9-3.5-13.7-6.8-20c-1.8-3.3-3.8-6.4-6.5-9c-3.4-2.8-7.6-4.3-11.8-5.2c-5.3-1.1-10.7-1.2-16-0.8
		c-6.3,0.5-12.6,1.7-18.6,3.4c-1.2,0.3-2.4,0.8-3.6,1c-0.8-2.2-2.3-4.2-4.4-5.2c-5.1-2.6-12.2-0.4-14.6,4.7
		c-1.1,2.2-1.1,4.7-0.8,7.1c-6.1,1.9-12,4.2-17.4,7.6c-5.9,3.7-11.3,8.6-14.6,14.8c-1.6,2.9-2.6,6.3-2.2,9.7c0.5,4.3,2.8,8.1,4.6,12
		c-2.4-0.2-4.8-0.6-7.2-0.5c-0.4,0-0.7,0.1-0.8,0.5c-1.9,4-2.5,8.5-2,12.8c0.2,2.2,0.9,4.3,1.5,6.4c-2.9,1-5.8,2.2-8.6,3.4
		c-6.4,2.9-12.6,6.4-17.6,11.4c-2.8,2.9-5.3,6.2-6.3,10.2c-0.7,2.7-0.5,5.6,0.9,8.1C246.4,294.9,248.8,296.5,251.3,297z M259,377.1
		c0.9-2.6,2.3-5.1,4-7.5C261.5,372.1,260.2,374.6,259,377.1z M407.4,360.3c0.9-0.5,1.8-0.9,2.8-1.4c1.7-3,3.4-6.1,5.1-9.1
		c-1.1,2.8-2.3,5.6-3.4,8.4c0,0,0.1,0,0.1-0.1c2.7-4.2,5.3-8.4,8-12.7c-0.5,1.2-0.9,2.4-1.4,3.7c-0.9,1.5-1.9,3-2.8,4.6
		c-0.7,1.3-1.5,2.5-2.3,3.7c-0.5,0.2-1,0.4-1.5,0.6c-0.1,0.2-0.2,0.3-0.3,0.5c0.1-0.2,0.1-0.3,0.2-0.5c-0.6,0.3-1.1,0.5-1.7,0.8
		c-0.4,0.7-0.8,1.5-1.2,2.2c0.2,0,0.5,0,0.7,0c-0.3,0.4-0.5,0.9-0.8,1.3c-0.3,0.2-0.6,0.4-0.9,0.5c0.3-0.6,0.7-1.2,1-1.8
		c-0.9,0.1-1.8,0.2-2.6,0.4C406.7,361.2,407.1,360.8,407.4,360.3z M349.8,374.7c0.1,0.1,0.2,0.1,0.4,0.2l-0.3,0.2
		c-0.1,0-0.1,0-0.2-0.1C349.7,374.9,349.7,374.8,349.8,374.7z M324,369.6c-0.4-0.5-0.8-1.1-1.3-1.6c0.1,0,0.2,0,0.2,0
		c0.5,0.6,0.9,1.1,1.3,1.7C324.2,369.7,324.1,369.7,324,369.6z M345.8,377.2l-0.2,0.1c-1.9-0.5-3.7-1.3-5.3-2.2c0,0-0.1-0.1-0.1-0.1
		C342,375.8,343.9,376.6,345.8,377.2z M317.7,360.6c2.4,2,4.8,3.9,7.3,5.6c-0.6-0.3-1.2-0.5-1.8-0.6c2,1.8,4.3,3.4,6.6,4.8
		c-0.5-0.7-1-1.4-1.6-1.9c2.1,1.4,4.2,2.7,6.4,3.9c-0.8-0.2-1.5-0.4-2.3-0.5c-0.8-0.4-1.7-0.9-2.5-1.4c0.2,0.3,0.4,0.6,0.5,0.9
		c-0.6-0.2-1.3-0.3-1.9-0.5c-2.3-1.6-4.7-3.1-7-4.7c0.1,0.1,0.1,0.1,0.2,0.2c-0.4-0.4-0.9-0.9-1.3-1.3c-1-1.1-2-2.2-3-3.3
		c-0.7-0.8-1.3-1.6-2-2.5c-0.2-0.4-0.4-0.7-0.6-1.1C315.8,358.8,316.6,359.8,317.7,360.6z M311.8,365.2c3,1.2,6.2,2.2,9.4,2.7
		c0.4,0.5,0.8,0.9,1.1,1.3c-0.3-0.1-0.6-0.2-1-0.3c-4-1.1-7.9-2.3-11.6-4.2c-1.8-1-3.6-2.1-5.2-3.4
		C306.9,362.8,309.3,364.1,311.8,365.2z M289.3,338.8c0.3,1,0.6,1.9,0.9,2.9c-0.7,0.5-1.5,1-2.2,1.4
		C288.3,341.6,288.5,340.1,289.3,338.8z M287.9,343.4l2.3-1.6c0.4,1.2,0.9,2.4,1.4,3.6c-0.9,0.4-1.8,0.7-2.7,1l-1.2-2
		C287.8,344,287.9,343.7,287.9,343.4z M287.4,343.7c0.1,0.2,0.1,0.3,0.2,0.5L287.4,343.7L287.4,343.7z M328.9,291.7
		c-0.2,0.1-0.5,0.2-0.7,0.4c-0.3-0.9-0.5-1.9-0.7-2.8c-1,1.2-1.7,2.7-2.4,4.1c-0.2,0-0.3,0.1-0.4,0.1c0,0-0.1,0.1-0.2,0.1
		c-1.1,0.5-2.3,0.7-3.5,0.9c-0.2,0-0.4,0-0.6,0.1c-0.1,0.1-0.3,0.2-0.4,0.2c-0.2,0-0.4,0-0.5-0.1c-0.1,0-0.3,0-0.4,0
		c-0.2,0.1-0.4,0.2-0.7,0.1l-0.1,0c-0.2,0.1-0.4,0.2-0.7,0.1c-3.6,0.2-7.3-1-10-3.5c-2.6-2.2-4.6-4.9-6.1-7.9
		c-0.2-0.1-0.2-0.3-0.2-0.5l-0.1-0.1c-0.2-0.1-0.2-0.3-0.2-0.5c-0.1-0.2-0.1-0.3-0.2-0.5c-0.2-0.1-0.3-0.4-0.3-0.6
		c-0.2-0.1-0.3-0.4-0.3-0.6c-0.1-0.2-0.2-0.4-0.2-0.6l-0.1-0.1c-0.3-0.2-0.4-0.5-0.3-0.9c-0.1-0.2-0.1-0.5-0.2-0.7
		c-0.1-0.2-0.2-0.6-0.3-0.7c-0.2-0.6-0.3-1.2-0.5-1.8c-0.1-0.2-0.2-0.4-0.1-0.7c-0.1-0.6-0.1-1.1,0-1.7c0.5-1.6,1.2-3.3,2-4.8
		c0.5-0.5,1-1,1.5-1.5c0.7,0.2,1.3,0.3,2,0.2c1.9-0.4,3.5-1.5,5.2-2.3c5.1-2.7,10.8-4.1,16.6-4.9c1-0.1,1.9-0.2,2.9-0.4
		c0.9,0,1.8,0.1,2.7,0.3c1.8,0.3,3.6,1.2,4.9,2.5c-1.5,0.6-3.2,1-4.7,1.2c1.8,0.4,3.8,0.4,5.6-0.2c0.3,0.4,0.6,0.9,0.8,1.4
		c-2.4,0.9-5.2,1-7.8,0.9c-4.2-0.1-8.5-0.5-12.7-0.2c-3.2,0.3-6.6,0.9-9.1,3.1c-2,1.7-2.9,4.2-3.1,6.7c1.2-1.2,2.5-2.5,4.3-2.5
		c0.9-0.1,1.7,0.5,2.3,1.1c1.3,1.5,2.4,3.1,3.8,4.5c1.7,1.6,3.9,2.9,6.2,3.3c-1.3-1.1-2.9-1.9-3.8-3.4c1.9,1,3.5,2.5,5.6,2.8
		c-1.9-1.5-4.1-2.7-5.2-4.8c1.9,1.2,3.6,3,5.8,3.6c-1.1-1.2-2.4-2.1-3.2-3.5c1.6,0.5,3.2,0.9,4.8,0.7c2.9-0.4,5-2.4,7.7-3.4
		c-1,1.1-2.2,2.1-2.8,3.5c2.1-1.6,4.1-3.4,6.6-4.4c-0.6,0.7-1.3,1.4-1.9,2c-3,3-5.4,6.9-5.7,11.3c-0.1,1.5,0.2,3,0.8,4.4
		C330.1,291,329.5,291.4,328.9,291.7z M330.7,271.8c-2.3,1.4-5.1,1.8-7.8,1.8c-2.4-0.1-4.8-0.8-6.7-2.3c-0.6-0.4-1-1.4-0.2-1.8
		c0.8-0.4,1.7-0.4,2.6-0.4c3.4,0.1,6.8,0.2,10.2,0.4c1,0.1,2.1,0.1,2.8,0.8C332.1,270.9,331.2,271.4,330.7,271.8z M337.5,284.2
		c-0.1,0.3-0.3,0.6-0.5,0.9c-0.1,0.2-0.2,0.4-0.3,0.6c-0.8,1.2-1.9,2.3-3.1,3.2c-0.4,0.3-0.9,0.6-1.4,0.9c-0.4-4.7,1.4-9.8,5.5-12.5
		c0.7-0.5,1.4-0.8,2.2-1.1C339.6,279,338.8,281.8,337.5,284.2z M340.1,258.1c-3.2,0-6.2-1.3-9.4-1.1c-0.8,0-2.3,0-3.4,0.1
		c0.2,0,0.4-0.1,0.6-0.1c1.7-0.4,3.5-0.7,5.1-1.5c-1.3-0.1-2.6,0-4,0.1c0.5-0.3,1-0.5,1.5-0.7c11.5-4.7,23.4-8.4,35.5-11.5
		c1.7-0.4,3.4-0.9,5.1-1.2c-3.6,2-7.2,4-10.9,5.8c5.7-0.3,10.4-3.7,15.3-6.1c1.9-0.8,3.8-1.9,5.9-1.9c-1.8,1-4,1.8-5.2,3.5
		c2.8-1,5.4-2.4,8.1-3.7c-0.7,1.3-2.1,2.1-3.3,2.8c-0.2,0-0.4,0.1-0.6,0.1l0-0.1c-0.5,0.1-1,0.2-1.5,0.4c-1.1,0.3-2.3,0.6-3.4,0.8
		c-1,0.2-1.9,0.5-2.9,0.7c-0.2,0.1-0.6,0.2-0.8,0.2c-0.5,0.2-0.9,0.3-1.4,0.4c-0.2,0.1-0.7,0.2-0.9,0.2l0.1,0.1
		c-0.3,0.1-0.7,0.2-1,0.3c-0.2,0-0.3,0.1-0.5,0.2c-0.2,0.1-0.5,0.2-0.7,0.3c-0.1,0-0.2,0.1-0.3,0.1l0,0.1c-0.2,0.1-0.4,0.1-0.6,0.2
		l-0.1,0.1c-0.2,0.1-0.4,0.2-0.6,0.2c-0.1,0-0.3,0.1-0.4,0.2c-0.1,0.1-0.3,0.2-0.5,0.2c-0.4,0.1-0.7,0.3-1,0.4
		c-0.1,0.1-0.3,0.2-0.5,0.2c-0.3,0-0.5,0.2-0.7,0.4l0,0.1c-0.1,0.1-0.3,0.1-0.4,0.1c-0.3,0.1-0.5,0.2-0.7,0.4
		c-0.1,0.1-0.3,0.2-0.5,0.2c-1.9,1-3.8,2-5.6,3.2c-0.6,0.4-1.2,0.9-1.8,1.4c0.2-0.3,0.4-0.5,0.5-0.8c-1,0.6-1.8,1.4-2.6,2.2
		c-0.1,0.1-0.2,0.1-0.3,0.2c-0.1,0.1-0.3,0.2-0.4,0.2c-0.1,0-0.2,0.1-0.2,0.1c-0.3,0.2-0.7,0.2-1,0.3c-0.2,0.1-0.6,0.2-0.8,0.3
		c-0.4,0.2-0.8,0.3-1.3,0.4c-0.2,0-0.4,0.1-0.5,0.1c-1.4-0.7-2.8-1.4-4.4-1.6c1,0.6,2.1,1.2,3.1,1.9c-0.5,0.1-0.9,0.2-1.4,0.3
		c-0.7-0.2-1.3-0.4-2.1-0.5c0.4,0.3,0.8,0.5,1.2,0.7c-0.3,0.1-0.6,0.2-0.9,0.2c-0.5,0.1-1.1,0.2-1.7,0.3c-0.1,0-0.3,0-0.4,0.1
		C340.6,258.1,340.3,258.1,340.1,258.1z M344.1,270c0-0.4,0-0.7,0-1.1c0.2-1.1,0.3-2.3,0.3-3.4c0.3-0.9,1-1.8,1.9-2.3
		c0.3-0.2,0.6-0.5,1-0.7c0.4-0.2,0.9-0.3,1.4-0.3c1.3-0.1,2.5,0.8,3.3,1.7c1.6,1.8,2.3,4.2,3.9,6.1c1.3,1.7,2.7,3.4,4.2,4.9
		c-0.6,0-1.2,0-1.8,0c-5.5,0.3-11.1,1.8-15.7,4.8c0.7-2.4,1.2-4.8,1.4-7.3c0.6-0.9,1.1-2,1.7-2.8c0.6-0.9,1.5-1.6,2.4-2.3
		C346.5,267.7,345.2,268.8,344.1,270z M357.8,266.4c0,0-0.1-0.2-0.1-0.2c-0.1-0.2-0.2-0.5-0.3-0.7c-0.2-0.9-0.5-1.8-0.7-2.7
		c0-0.2-0.1-0.6-0.1-0.8c0-0.1,0-0.3,0-0.4c-0.1-0.2-0.2-0.4-0.1-0.5c0-0.4-0.1-0.9-0.1-1.3c0.3,2.7,1.7,5.3,3.4,7.5
		C359.2,266.9,358.5,266.6,357.8,266.4C357.8,266.4,357.8,266.4,357.8,266.4z M351,280.3c-3.4,0.9-6.8,2-10,3.6c0,0,0,0,0,0
		c3.1-3.8,8-5.5,12.7-6.5c2.7-0.5,5.6-0.7,8.4-0.4c0.5,0.5,1.1,1,1.6,1.6C359.5,278.7,355.2,279.3,351,280.3z M373.4,279.4
		c-0.8-0.7-1.6-1.3-2.5-1.8c-2-1.2-4.3-1.9-6.6-2.3c-2.3-2-4.3-4.4-5.7-7.1c-0.2-0.1-0.2-0.3-0.2-0.5c-0.1,0-0.2-0.1-0.2-0.2
		c1.8,1.2,3.4,2.9,5.6,3.2c-0.5,0.3-1,0.6-1.4,1c1.3-0.3,2.6-0.7,4-0.6c3.5,0.1,6.8,2,9,4.6c1,1.1,1.8,2.4,2.4,3.8
		C376.3,279.6,374.9,279.6,373.4,279.4z M391.7,275.9c-1.1,0.7-2.3,1.4-3.5,2c-0.6,0.2-1.1,0.4-1.7,0.6c-0.7,0.3-1.4,0.4-2.1,0.6
		c-0.2,0-0.4,0.1-0.7,0.1c-0.1,0-0.2,0-0.2,0c-0.3-0.2-0.7-0.4-1-0.6c0.1,0.3,0.1,0.5,0.2,0.8c-0.6,0.1-1.2,0.2-1.8,0.1
		c-0.2,0-0.6,0.1-0.8,0.1l-0.1,0c0,0-0.1,0-0.1,0c-0.2-0.9-0.4-1.8-0.8-2.6c-1.6-3.4-4.7-6-8.1-7.6c-1.4-0.8-3-1.2-4.4-2
		c2.7,0,5.2,1,7.8,1.6c-1.1-1.1-2.7-1.4-4-2.1c2.7-0.1,5.4,0.9,8.1,0.3c1.8-0.3,3.2-1.4,4.6-2.5c-0.3,1.8-1.2,3.4-2.1,4.9
		c2-1.6,3-4,4.4-6.1c-0.1,2.4-1.7,4.4-2.8,6.4c1.8-1.1,2.7-3.1,4-4.7c-0.2,1.9-1.4,3.4-2.5,4.9c2.1-1.2,3.8-3.2,4.8-5.4
		c0.8-1.8,1.2-3.9,1.8-5.8c0.3-0.8,0.8-1.7,1.7-1.9c1.6-0.6,3.3,0.1,4.9,0.7c-0.9-1.8-2.4-3.4-4.2-4.4c-2.2-1.2-4.8-1.3-7.2-0.9
		c-5,0.8-9.5,3.2-14,5.2c-3.3,1.5-7,3.1-10.8,2.5c-1.8-0.2-3.3-1.3-4.2-2.8c0.1-0.4,0.3-0.8,0.5-1.2c1.3-2.5,3.8-4.1,6.3-5.4
		c0.2,0,0.3-0.1,0.5-0.1c0.1-0.2,0.3-0.2,0.5-0.2l0.1-0.1c0,0,0.1,0,0.2-0.1c3-0.5,6-1.2,9-2c1.5-0.5,3-1,4.5-1.6
		c0.2,0,0.3-0.1,0.5-0.1c0.2,0,0.5-0.1,0.7-0.1c0.1,0,0.2,0,0.2,0c0.5-0.1,0.9-0.2,1.4-0.3c0.1,0,0.3,0,0.4-0.1
		c0.3-0.1,0.5-0.2,0.8-0.2c0.1,0,0.3,0,0.4,0c0.1,0,0.2,0,0.3,0c0.4-0.1,0.7-0.1,1.1-0.2c0.1,0,0.3,0,0.3-0.1c0.2-0.1,0.4-0.2,0.5,0
		c0.5,0,1-0.1,1.4-0.1c3.5,0.3,7.4,1.5,9.1,4.8c0.2,0.1,0.2,0.3,0.2,0.5c0,0.1,0.1,0.2,0.1,0.3c0.4,1.1,0.7,2.2,1,3.3
		c0.2,0.8,0.4,1.7,0.6,2.5c0,0.2,0.1,0.5,0.1,0.7c0,0.2,0.1,0.6,0.1,0.8C398.4,264.6,397.1,272,391.7,275.9z M371.3,261.9
		c0.8-0.7,1.8-1.1,2.7-1.5c2.9-1.3,5.9-2.7,8.8-3.9c0.8-0.3,1.9-0.8,2.7-0.2c0.5,0.7,0,1.6-0.4,2.2c-2.3,3.3-6.2,5-10.1,5.3
		c-1.3,0.1-2.7,0.2-3.9-0.6C370.6,262.8,371,262.2,371.3,261.9z M397.9,233.1c0.1-1.3,0.7-2.5,1.2-3.6c1.3-2.7,3-5.3,4.9-7.5
		c0.3-0.3,0.6-0.7,0.8-1.1c-2.5,1.8-4.6,4.2-6.4,6.7c0.6-2.4,2.1-4.4,3.4-6.4c-1.4,0.7-2.5,1.9-3.7,2.9c-0.1-0.6-0.2-1.1-0.3-1.7
		c1.1-0.8,2.1-1.6,3.2-2.4c1.9-1.3,3.9-2.5,6-3.5c1.5,0.7,2.7,2,3.6,3.4c0,0,0.1,0.1,0.2,0.1c0.2,0.5,0.4,1.1,0.6,1.6
		c-0.9-0.8-1.7-1.7-2.7-2.4c2,4.5,3.1,9.5,1.9,14.3c-0.3-2.6-0.3-5.3-1.3-7.8c0.3,4.5-0.1,9.1-2,13.2c-0.7,1.4-1.4,2.7-2.5,3.8
		c0.6-2.3,1.4-4.6,1.2-7c-1,2.6-2.3,5.2-4.3,7.2c0-0.1-0.1-0.2-0.1-0.3c0-0.2-0.1-0.4-0.1-0.6c-0.1-0.4-0.2-0.7-0.3-1.1
		c-0.1-0.4-0.2-0.8-0.2-1.2c0-0.2-0.1-0.4-0.1-0.6c-0.2,0-0.4,0-0.7,0l-0.1,0c-0.2,0.1-0.4,0.1-0.6,0.1c-0.1,0-0.2,0-0.3,0
		c-0.2,0.1-0.3,0.1-0.5,0c-0.2,0-0.4,0.1-0.7,0.1c-0.2,0-0.5,0.1-0.7,0.1l-0.1,0c-0.4,0.1-0.8,0.1-1.2,0.2c-0.2,0-0.4,0.1-0.6,0.1
		c-0.3,0.1-0.7,0.1-1,0.2c-0.2,0-0.5,0.1-0.7,0.1c-0.3,0.1-0.7,0.1-1,0.2c-0.2,0-0.4,0.1-0.6,0.1c-0.4,0.1-0.8,0.1-1.2,0.2
		c-0.2,0-0.4,0.1-0.6,0.1c-0.3,0.1-0.7,0.1-1,0.2c-0.2,0-0.4,0.1-0.6,0.1c-0.3,0.1-0.7,0.2-1,0.2c-0.3,0.1-0.7,0.1-1,0.2
		c-0.2,0-0.5,0.1-0.7,0.1c-0.2,0.1-0.5,0.1-0.7,0.2c1.9-1.5,3.8-2.9,6-3.8c2.1-0.9,4.3-1.2,6.6-1.3c1.9-3.9,3.8-7.8,6.3-11.3
		c0.2-0.3,0.3-0.6,0.5-0.9C401.6,226.6,399.8,230,397.9,233.1z M397.8,224.2c-6.3,0.7-12.6,1.6-18.8,2.8c-2,0.4-3.9,0.9-5.9,1.3
		c3.9-0.3,7.7-1,11.6-1.2c3.9-0.2,7.8-0.3,11.7,0.4c-5.6,0.3-11.3,0.8-16.8,1.9c-4.2,0.9-8.3,1.9-12.2,3.7c6.6-1.5,13.2-2.7,20-3.2
		c2.9-0.2,5.7-0.3,8.6,0c-6.7,0.7-13.3,1.8-19.8,3.3c-5.7,1.4-11.3,3-16.6,5.5c5.6-1.4,11.3-2.8,17-3.7c5.6-0.9,11.4-1.6,17.1-1.1
		c-11.8,2.5-23.6,5.3-35.2,8.7c-15,4.4-29.9,9.4-43.9,16.3c-0.7,0.2-1.3,0.3-2,0.5c2.5-1.9,5.1-3.7,7.7-5.4
		c4.4-2.9,8.9-5.8,13.7-8.2c-4.5,1.7-8.8,3.8-13.1,5.9c-4.3,2.1-8.4,4.3-12.4,6.9c2.8-2.7,6.1-4.9,9.3-7.1
		c5.3-3.6,10.9-6.7,16.7-9.3c-1.3,0.2-2.4,0.8-3.6,1.2c-8.3,3.2-16.3,7.2-23.5,12.4c2.6-3.4,5.8-6.2,9.3-8.6
		c-3.6,1.2-7.1,2.8-10.5,4.5c3.8-2.8,7.9-5.2,12.1-7.5c21.3-11.4,45.1-18,69.3-19.6C390.9,224.3,394.3,224.1,397.8,224.2z
		 M336.7,217.3c1.2-2.8,2.2-5.7,2.8-8.7c0.2-1,0.3-2,0.6-3c1.8,5.7,1.6,11.9,0.2,17.7c-0.6,2.2-1.2,4.5-2.3,6.4
		c0.6-4.5,1.3-9.1,0.9-13.6c-1.3,3.1-2.5,6.4-4.8,9c0.5-3.4,0.5-6.8,0.1-10.2c-1.1,1.6-2.6,2.8-4.3,3.7c3.7-4.2,6.1-9.4,7.2-14.9
		c0.6,4.9,0.2,9.9-0.9,14.7C336.3,218,336.6,217.6,336.7,217.3z M353.3,216.1c-1.3,1-2.4,2.2-3.9,2.9c1.6-2.4,3.4-4.7,4.4-7.4
		c1.6,4.5,0.9,9.7-1.5,13.8C352.9,222.3,353.6,219.2,353.3,216.1z M283.9,227.5c-0.1-2.6,0.4-5.2,1.6-7.5c1.8-3.8,4.8-7,8-9.7
		c5.2-4.3,11.2-7.6,17.4-10c-3.4,3.9-4.9,9.1-5.1,14.3c-0.3,5.1,0.4,10.1,1.6,15.1l0.1-0.3c-0.5-3.3-0.9-6.6-0.7-9.9
		c0.3-7.7,3.2-15.5,9.1-20.6c7.5-6.7,19.1-8,28.2-3.7c4.8,2.2,8.9,5.6,12.3,9.6c0.7,0.6,1.2,1.4,1.8,2.1c3,3.7,5.5,7.8,7.7,12
		c-1-4.7-2.8-9.4-5.6-13.4c-4.5-6.5-11.4-11.4-19.1-13.7c7-2.2,14.3-3.9,21.8-4.4c4.3-0.2,8.8,0,12.9,1.6c5,2.1,9,6.2,11.6,10.8
		c1.4,2.5,2.6,5.1,3.3,7.9c-2.2-5.1-5.1-10-9.3-13.7c-2.4-2-5.4-3.7-8.6-3.8c4.7,3.5,8.2,8.4,10.7,13.7c-4.3-4-10.2-6.1-16-6.4
		c4.2,1.7,8.1,4.2,10.9,7.8c2.4,3,4.3,6.5,4.9,10.2c-1-2.5-2.7-4.8-4.4-6.9c1,2.2,1.9,4.6,1.8,7.1c0,1.6-0.6,3.2-1.7,4.4
		c-0.8,0.9-2.2,1.1-3.3,1.6c-5.5,1.7-11.1,3.1-16.7,4.4c0-1.3-0.3-2.5-0.9-3.7c-0.4-0.6,0-1.2,0.1-1.8c1.1-5.3-0.9-11-4.7-14.8
		c-0.6,2.4-2,4.5-3.7,6.3c-1.4-1.2-2.9-2.1-4.5-3c-1.7-5.1-4.9-9.8-9.3-13.1c-0.2,3.9-1.4,7.9-3.9,10.9c-3.3,0.9-6.5,2.1-9,4.4
		c-4.6,4-6.7,10.1-7.1,16c-1-5.3-0.7-10.9,0.9-16.1c-2.3,3.2-3.3,7.1-4,11c-1-3.7-1.4-7.5-1.3-11.3c0-1,0.2-2.1,0.1-3.1
		c-2.8,7.8-2.6,16.4-1.1,24.6c0.7,3.6,1.6,7.2,2.9,10.8c-0.1,0.1-0.2,0.2-0.3,0.3c-5.7,3-10.8,6.9-15.3,11.5
		c-0.1,0.3-0.4,0.6-0.6,0.8c-3.6-5.3-7-10.7-9.9-16.4C285.9,235.5,284.2,231.6,283.9,227.5z M277.6,246.2c0.2-1.8,0.8-3.6,2-5
		c2.3,0.1,4.6,0.5,6.9,0.9c0.4,0,0.9,0.2,1.2,0.4c0.2,0.4,0.4,0.8,0.5,1.3c-0.7-0.1-1.3-0.2-2-0.3c1.9,1.4,4.1,2.5,5.5,4.5
		c-2.6-1.5-5.2-2.9-8.1-3.5c1.1,0.8,2.4,1.3,3.5,2c3,1.8,5.9,4,7.9,6.9c-3-2.4-6.2-4.9-10.1-5.8c0.8,0.6,1.8,1.1,2.7,1.7
		c1.7,1.1,3.1,2.5,4.4,4c2.6,3.1,4.3,6.9,7.2,9.7c-0.1,0-0.2,0-0.2,0.1c-0.1,0-0.2,0.1-0.3,0.1c-1.4-0.4-2.7-1.1-3.8-1.9
		c0.7,0.9,1.6,1.7,2.6,2.3c-0.2,0.1-0.4,0.1-0.7,0.2c-0.2,0-0.4,0.1-0.6,0.2c-1.9-0.7-3.7-1.7-5.2-3c-0.9-0.7-1.7-1.6-2.6-2.3
		c0.8,2.2,2.4,4,3.8,5.9c-3.2-1.4-5.6-4.2-7.6-7c-1.4-2.2-2.5-4.6-3.4-7c0.1,2.6,1.2,5.1,2,7.6c-3.1-3.9-4-9-4-13.9
		c-0.7,1-1.1,2.1-1.5,3.2C277.7,247.2,277.5,246.7,277.6,246.2z M249,280.2c4.2-5.8,10.1-10.2,16.3-13.8c3.8-2.1,7.7-4,11.8-5.4
		c-3.8,2-7.8,3.7-11.1,6.5c3.8-2.1,7.7-4,11.9-5.3c-4.1,1.7-8,4-11.6,6.6c3.9-1.9,7.8-4,11.9-5.3c-7.4,3.7-14.6,8-20.3,14
		c-2.6,3-5.2,6.6-4.8,10.8c0.9-2.5,2.6-4.7,4.7-6.4c0.1,1.5,0.2,3.4,1.7,4.2c1.8,0.8,3.8-0.1,5.4-0.8c-0.5,1.2-1.4,2.2-2.4,3.1
		c4.6-1.5,8.6-4.3,12.4-7.3c3.5-2.7,6.7-5.7,9.9-8.7c-1.3,1.9-3,3.4-4.4,5.2c2-1.3,3.8-2.9,5.7-4.3c-3.8,4-7.9,7.7-12.3,11
		c-4.4,3.3-9.3,6.2-14.6,7.7c-2.9,0.8-6.1,1.2-9,0.1c-1.9-0.7-3.4-2.4-3.6-4.4C246.2,285,247.5,282.3,249,280.2z"/>
	<path d="M425.2,282.5c1.7,1,3.4,2.1,5.2,3.1v-1.4c-2-0.7-3.9-1.4-5.8-2.3C424.8,282.1,425,282.3,425.2,282.5z"/>
	<path d="M402.1,365.7C402.1,365.8,402.1,365.8,402.1,365.7C402.1,365.7,402.1,365.7,402.1,365.7
		C402.1,365.7,402.1,365.7,402.1,365.7z"/>
	<path d="M291,237.7c-1.7-6.6-1.4-13.8,1.4-20c0.8-1.9,1.9-3.7,3.1-5.4c-4.2,2.7-8.1,6.5-9.3,11.5c-0.6,3.1-0.4,6.3,0.5,9.3
		c1.5,4.5,4,8.6,7,12.2C292.6,242.8,291.5,240.3,291,237.7z"/>
	<path d="M358.7,256.3c-0.5-0.2-1.2-0.7-1.5,0c0.1,1,1.2,1.5,2,1.8c3,1.2,6.5,0.4,9-1.4C365.2,257.4,361.7,257.8,358.7,256.3z"/>
	<path d="M307.5,325.7c1.6,3.6,3.1,7.3,4.8,10.9c0.1-1,0.3-2,0.8-2.8c2.8,4,5.9,7.8,9.4,11.2c2,1.9,4,3.8,6.2,5.5
		c2.8,2.1,5.7,4.1,8.9,5.8c1.4,0.7,2.7,1.5,4.2,1.9c-2.3-1.9-4.8-3.6-6.4-6.1c1.2,0.8,2.1,1.7,3.3,2.5c3.2,2.3,6.9,3.9,10.6,5.2
		c0.3,0,0.5,0,0.8,0c-2.1-1.2-4.5-2.1-6.4-3.8c1.3,0.4,2.5,1,3.8,1.4c5,1.8,10.3,2.9,15.6,3.5c1.9,0.2,3.8,0.5,5.6,0.3
		c-1.5-1-3.2-1.5-4.8-2.4c-3-1.6-5.9-3.4-8.7-5.3c-3.9-2.7-7.7-5.8-11.1-9.1c-4.5-4.3-8.7-8.9-12.4-13.8c1.8,3.8,4.5,7.1,7.1,10.4
		c-4.2-1.7-7.7-4.8-11.1-7.8c1.9,3.3,4.7,6.1,7.6,8.7c2.4,2.1,4.9,3.9,7.6,5.6c-1.7-0.5-3.3-1.4-4.8-2.2c-6.9-4-12.9-9.4-18.4-15.1
		c5,7.9,12.2,14.2,20.1,19c3.2,2,6.6,3.6,10,5.1c-4.5-1.1-8.7-3.3-12.8-5.5c0.4,0.5,0.9,1,1.4,1.6c-7.7-3.4-14.2-9.1-19.2-15.8
		c-4.2-5.6-7.4-11.9-9.6-18.5c0.9,6.1,3.4,11.8,5.9,17.4c-1-1-1.7-2.3-2.4-3.5c-2.1-3.8-3.5-7.9-4.8-12c-0.1,1.7,0.3,3.4,0.5,5.1
		c-2.7-6-4.1-12.5-4.8-19c-0.2-1.8-0.2-3.6-0.5-5.4c-0.6,6.5,0.1,13.1,0.9,19.6c-1.6-5.4-2.1-11.1-2.6-16.7
		c-1.4,11,1.2,22.4,6.5,32.2c1.1,1.9,2.1,3.9,3.5,5.5C310.2,334.9,308.2,330.5,307.5,325.7z"/>
	<path d="M382.4,348.8c-1.6,2.6-3.5,5.1-5.4,7.5c-1.2,1.5-2.5,2.8-3.8,4.3c6.2-2.7,12.1-6.4,17.2-10.8c1.3-1,2.3-2.3,3.7-3.2
		c-0.9,2.1-2.6,3.6-4,5.4c0.3-0.1,0.5-0.2,0.8-0.3c2.9-2.7,5.7-5.5,7.8-8.9c0.8-1.2,1.3-2.6,2-3.8c-0.5,3.3-2.2,6.3-4,9
		c1.1-0.8,1.9-1.8,2.8-2.8c2.1-2.4,3.9-5.1,5.6-7.8c1.6-2.7,3-5.5,4.2-8.3c2-4.7,3.4-9.7,4.5-14.8c0.8,0.6,1.4,1.4,1.9,2.3
		c0.2-3.9,0-7.9,0-11.8c0.8,3.3,1.1,6.8,1.3,10.2c0.1,1.3,0,2.7,0.2,4c0.9-3.7,1.1-7.6,1.1-11.4c0-9.4-2.4-18.9-7.2-27.1
		c1.8,5.3,3.5,10.7,4.4,16.3c-2-6.2-3.9-12.4-7-18.1c0.4,1.7,1.1,3.2,1.6,4.9c1.9,6.2,3.3,12.6,3.3,19.1c-0.5-1.6-0.8-3.3-1.6-4.8
		c0.7,5.8,1.2,11.8-0.4,17.4c0.2-6.3,0-12.7-1.6-18.9c0.8,9,0,18.3-3.1,26.8c-2.1,5.8-5.3,11.2-9.5,15.7c0.2-0.6,0.3-1.2,0.5-1.8
		c-2.7,3.2-5.3,6.6-8.8,9.1c0.8-1.1,1.9-2.1,2.8-3.2c5.8-6.8,10.4-14.7,13-23.3c0.5-2,1.2-4,1.3-6.1c-2.9,7.4-6.2,14.7-11,20.9
		c-1,1.2-2,2.5-3.2,3.5c1.9-3,3.8-6.1,5.3-9.3c1.3-3,2.5-6.2,2.9-9.5c-1.9,4-3.8,8.2-7,11.4c1-3.8,2.1-7.7,2.2-11.7
		c-1.6,6-3.5,11.9-6,17.6C387.1,340.7,384.9,344.8,382.4,348.8z"/>
	<path d="M371.3,319.1c2.7-1.9,5.4-4.2,7-7.1c0.5-0.8,0.8-1.8,0.9-2.7c-0.2-0.2-0.5-0.3-0.7-0.4c-0.9-0.3-1.8,0.4-2.3,1
		c-1.7,2.1-2.8,4.6-4.8,6.4c-3.8,3.6-8.6,5.9-13.6,7.4c-1.1,0.3-2.3,0.6-3.5,0.8c0.4,0.5,0.8,1.1,1.2,1.6
		C361.1,324.8,366.5,322.4,371.3,319.1z"/>
	<path d="M355.9,350.5c0-0.8,0.1-1.6,0.2-2.3c1.3,1.4,2.7,2.8,4.2,4.1c2.5,2,5.1,3.9,7.8,5.5c0.9,0.6,1.9,1.2,2.9,1.6
		c0.7-0.8,1.3-1.7,1.9-2.5c1.7-2.4,3.2-4.8,4.6-7.3c1-1.9,1.8-3.9,2.5-6c0.4,0.7,0.8,1.3,1.1,2c1.8-2.7,3.3-5.6,4.7-8.6
		c1.3-3.2,2.3-6.5,2.3-10c-1.7,5-3.4,10.2-6.6,14.5c-0.5-2.3-1.1-4.7-2.1-6.8c0,1.9,0.1,3.9-0.4,5.7c-0.9,3.9-3.6,7.1-6.4,9.8
		c-1.1,1.1-2.1,2.2-2.9,3.5c-2-1.5-4.4-2.2-6.6-3.3c-3.1-1.4-6.1-3.5-8-6.4c-0.9-1.3-1.5-2.9-2.1-4.4c-0.2,2.4,0.3,4.8,0.8,7.2
		c-4.7-2.8-8.3-6.9-11.9-10.9c1.2,2.9,3.2,5.4,5.4,7.6C350,346.1,352.9,348.5,355.9,350.5z"/>
	<path d="M372.4,321.2c-2,1.9-4,3.9-6,5.8c-1.1,1.1,0.6,2.7,1.7,1.7c2-1.9,4-3.9,6-5.8C375.2,321.9,373.5,320.2,372.4,321.2z"/>
</g>
</svg>
