<?xml version="1.0" encoding="utf-8"?>
<!-- Generator: Adobe Illustrator 25.3.0, SVG Export Plug-In . SVG Version: 6.00 Build 0)  -->
<svg version="1.1" id="Capa_1" xmlns="http://www.w3.org/2000/svg" xmlns:xlink="http://www.w3.org/1999/xlink" x="0px" y="0px"
	 width="635px" height="385.6px" viewBox="0 0 635 385.6" style="enable-background:new 0 0 635 385.6;" xml:space="preserve">
<style type="text/css">
	.st0{enable-background:new    ;}
</style>
<g>
	<g>
		<path d="M88.6,66.7H232c4,0.5,8,2.1,11.2,4.7c4.7,3.8,7.5,9.9,7.4,15.9c0,11.3,0,22.7,0,33.9c10.3,1.3,19.5,8.2,23.9,17.7
			c6.1,12.1,12.3,24.3,18.4,36.4c1.5,3.1,3.4,6.3,4.6,9.5c1.1,2.8,1.5,5.7,2.1,8.7v15.1c-0.3,7.3-3.3,14.4-8.2,19.8
			c-4.9,5.3-11.6,8.8-18.8,9.8c-0.1,28.7,0,57.6,0,86.3c0,6.3-3.3,12.5-8.3,16.3c-3,2.3-6.8,3.5-10.5,3.9H249
			c-2.9-0.5-4.4-4.2-2.6-6.5c1.5-2.1,4.3-1.5,6.5-1.6c6-0.2,11.3-5.4,11.5-11.4c0.1-4.3,0-8.7,0-13c-25.3,0-50.4,0-75.7,0
			c-3.9,0.1-7.9,0.1-11.6-1.5c-6.1-2.4-10.8-7.9-12.3-14.2c-0.8-3-0.5-6.2-0.5-9.2c0-7.5-0.1-14.9,0-22.3c0.2-8.3,6.2-15.9,14-18.4
			c3.7-1.3,7.6-1,11.4-1.1c24.8,0,49.8,0,74.6,0c0-2.4,0-4.7,0-7c-9-1.2-17.5-6.6-22.2-14.3c-0.2-0.4-0.8-1.3-1.1-0.4
			c-3.6,5.9-9.1,10.5-15.5,13c-7.3,2.8-15.6,2.7-22.9-0.3c-6.3-2.6-11.8-7.4-15.2-13.3c-2.9,4.4-6.4,8.6-11.1,11.3
			c-7.2,4.3-16.2,5.5-24.3,3.3c-7.8-2.2-14.7-7.5-18.8-14.6c-4,6.6-10.2,12-17.7,14.3c-8,2.5-17.1,1.6-24.5-2.5
			c-5-2.7-9-6.9-11.9-11.7c-4.7,8.3-13.3,14.3-22.9,15.5c0,27.3,0,54.6,0,82.1c0,2-0.1,4,0.2,6c0.7,4.2,3.8,8,7.8,9.5
			c2.6,1.1,5.5,0.8,8.3,0.8c0-23.5,0-47.2,0-70.7c-0.1-5.5,2.3-11.1,6.4-15c3.8-3.7,9.1-5.6,14.4-5.6c13.8,0,27.5,0,41.3,0
			c3.9,0,7.9,0.8,11.3,2.8c6,3.5,10,10.3,10,17.2c0,23.7,0,47.5,0,71.1c25.5,0,51.1,0,76.5,0c2.5-0.3,4.8,1.8,4.6,4.3
			c-0.1,1.8-1.6,3.3-3.3,3.8H67c-4.7-0.5-9.3-2.5-12.7-5.9c-4.1-3.9-6.3-9.6-6.1-15.3c0-28.4,0-56.8,0-85.2
			c-7.8-1.1-15.2-5.2-20.1-11.3c-4.2-5.1-6.6-11.6-6.9-18.2v-14.7c0.3-5.3,2.2-10.5,4.8-15.2c2.9-5.7,5.7-11.5,8.8-17.2
			c1-2,3.6-2.7,5.5-1.6c2,1,2.7,3.6,1.6,5.4c-3.5,7-7.2,14-10.5,21c-2.8,6-1.8,12.8-2.1,19.2c-0.1,4.1,0.5,8.5,2.5,12.1
			c3.5,6.8,10.5,11.7,18.2,12.5c7.3,0.8,14.7-2.3,19.5-7.8c3.7-4.1,5.5-9.6,5.6-15.2c0.1-5.6,0-11.3,0-16.8c0-0.9,0.1-1.8,0.3-2.6
			c6.6-19.6,13.2-39.1,19.8-58.7c-7.4,0-14.6-0.1-22,0c-7.5,0.2-14.6,4.4-18.4,10.8c-2,3.6-3.7,7.4-5.7,11.1c-1,2-3.8,2.6-5.6,1.3
			c-1.7-1.1-2.3-3.5-1.4-5.2c1.7-3.5,3.5-6.9,5.3-10.4c4.6-8.5,13.2-14.3,22.8-15.6c0.1-9.3-0.1-18.6,0-28c0-4.6-0.4-9.4,1.4-13.8
			C74.3,72.6,81.2,67.6,88.6,66.7z M78.3,86.4c-0.1,11.6,0,23.2,0,34.8c54.6,0,109.4,0,164,0c0-11.4,0-22.9,0-34.3
			c0-6.5-6-12.3-12.5-11.9c-46.5,0-93.1,0-139.6,0C84.1,75,78.6,80.2,78.3,86.4z M104,129.3c-6.8,20.3-13.8,40.5-20.5,60.9
			c-0.2,5.4,0,10.8-0.1,16.3c-0.1,3.4,0.4,6.6,1.6,9.8c2.9,7.6,10.2,13.2,18.3,14.2c7.5,1.1,15.3-2,20.2-7.6
			c3.5-3.9,5.4-9.1,5.6-14.3c0.2-6.5-0.1-13,0.1-19.4c3.3-19.9,6.7-39.8,10.1-59.7C127.6,129.3,115.7,129.3,104,129.3z M147.6,129.3
			c-2.9,17.8-6,35.5-8.9,53.2c-0.4,3.3-1.4,6.5-1.3,9.8c0,5.1,0,10.1,0,15.2c0.1,5.2,1.7,10.5,5.1,14.5c3.9,5,10,8.1,16.2,8.5
			c7.4,0.5,14.9-2.7,19.4-8.5c3.5-4.2,5.1-9.6,5.1-15.1c0-5.7,0.1-11.6-0.1-17.3c-3.4-20.2-6.7-40.2-10.2-60.4
			C164.5,129.3,156.1,129.2,147.6,129.3z M181.3,129.3c3.3,19.2,6.5,38.5,9.8,57.7c0.2,1.1,0.3,2.2,0.4,3.3c0,6.2-0.1,12.3,0,18.4
			c0.2,9.4,7,18.3,16.2,20.9c7.2,2.3,15.4,0.7,21.1-4.1c5.3-4.3,8.6-11.1,8.5-17.9c0-5.7,0.1-11.5-0.1-17.3
			c-6.7-20.4-13.7-40.5-20.5-60.9C204.9,129.2,193,129.3,181.3,129.3z M225.2,129.3c6.6,19.7,13.3,39.4,19.9,59.1
			c0.4,3.7,0.1,7.4,0.2,10.9c0.1,5.1-0.5,10.3,1.1,15.2c1.8,5.7,6,10.6,11.3,13.4c6.1,3.3,13.6,3.5,19.8,0.7
			c6.3-2.7,11.2-8.5,12.9-15.1c1.2-4.2,0.7-8.7,0.8-13.1c0.2-5.1-0.1-10.3-2.5-14.9c-7.6-14.9-15.1-29.8-22.7-44.7
			c-3.8-6.9-11.4-11.6-19.3-11.6C239.6,129.3,232.4,129.3,225.2,129.3z M81.9,261.1c-1.4,2.9-1,6.3-1,9.4c0,22.1,0,44.2,0,66.3
			c2.7,0,5.4,0,8.1,0c0-23.2,0-46.4,0-69.6c0-1.4,0-2.9,1-3.9c1-1.2,2.6-1.5,4-1.4c13.8,0,27.5,0,41.3,0c2.4-0.2,4.6,1.8,4.3,4.2
			c0,23.5,0,47.1,0,70.7c2.7,0,5.4,0,8.1,0c0-23.2,0-46.4,0-69.5c0-2.4-0.2-4.8-1.4-6.8c-2.1-4.1-6.6-6.8-11.2-6.7
			c-14,0-27.9,0-41.8,0C88.6,253.5,83.8,256.6,81.9,261.1z M172.3,265.6c0,8.9,0,17.8,0,26.7c0,6.1,5.2,11.5,11.3,11.8
			c5.1,0.1,10.1,0,15.2,0.1c9.5-9.5,19.1-19,28.5-28.5c1.3-1.5,3-3,5.2-2.4c2.9,0.7,4.1,4.7,2,6.7c-8,8.1-16,16-24.1,24.2
			c18,0,35.9,0,53.9,0c0-16.8,0-33.6,0-50.4c-8.9,0.1-17.8-0.2-26.6,0.1c-9.3,9.3-18.6,18.6-28,28c-1.2,1.2-2.4,2.8-4.2,2.9
			c-2.5,0.3-4.8-2.1-4.4-4.4c0.1-1.7,1.5-2.8,2.6-3.9c7.6-7.6,15.1-15.1,22.7-22.7c-14,0.1-28.1-0.1-42.1,0
			C178,253.8,172.5,259.3,172.3,265.6z M97.2,270c0,22.2,0,44.6,0,66.8c11.5,0,23,0,34.5,0c0-22.2,0-44.6,0-66.8
			C120.1,270,108.7,270,97.2,270z"/>
	</g>
	<path d="M241.4,262c2.7-1.4,6.2,1.2,5.6,4.2c-0.2,3-4.1,4.7-6.5,2.7C238.3,267.3,238.7,263.1,241.4,262z"/>
	<path d="M191.5,288.7c2.5-1.6,6.3,0.5,6.1,3.6c0.1,3.1-3.8,5.2-6.3,3.4C188.8,294.1,188.9,290.1,191.5,288.7z"/>
	<g>
		<path d="M121.7,102.4c0.8,1.1,1.2,2.2,1.5,3.4c0.1,1.3,0,2.5-0.5,3.5s-1.3,1.8-2.5,2.8c-0.8,0.7-1.7,1.3-2.8,2
			c-1.1,0.7-2.2,1.2-3.4,1.7c-1.2,0.4-2.4,0.9-3.6,1.3c-1.2,0.3-2.3,0.8-3.4,1c-0.7,0.1-1.1,0.2-1.5,0.3c-0.4,0.1-0.8,0.1-1.2,0
			c-0.3,0-0.8-0.1-1.1-0.2c-0.3-0.1-0.8-0.3-1.3-0.5c-0.9-0.4-1.6-0.9-2.3-1.3c-0.8-0.4-1.5-1-2.4-1.6c-0.3-0.3-0.7-0.7-0.9-1
			c-0.3-0.2-0.5-0.5-0.7-0.8c-0.1-0.3-0.2-0.7-0.3-1c-0.1-0.3-0.1-0.9,0-1.4c0.1-1.8,0.2-4,0.5-6.3c0.2-2.4,0.5-4.8,0.8-7.4
			c0.3-2.5,0.5-5.1,0.8-7.7c0.2-2.6,0.3-5,0.4-7.4c1.2-0.5,2.5-1.2,4-1.7s3-1,4.7-1.4c1.6-0.4,3.3-0.7,5-0.9
			c1.7-0.2,3.3-0.2,4.8-0.1s2.9,0.3,4.1,0.8c1.2,0.4,2.3,1,3.1,1.7c1.1,1.1,2,2.2,2.6,3.4c0.7,1.2,1.2,2.6,1.5,4.2
			c0.1,0.9,0.1,1.7,0,2.5s-0.4,1.6-0.9,2.4c-0.2,0.8-0.8,1.5-1.3,2.2s-1.2,1.3-1.8,1.8c-0.8,0.5-1.4,1.1-2.2,1.6
			c-0.8,0.5-1.6,1.1-2.7,1.6C120.1,100.5,121.1,101.3,121.7,102.4z M104.5,107.7c-0.2,1.2-0.4,2.4-0.7,3.6c1.5-0.4,3-0.9,4.3-1.4
			s2.4-1.1,3.3-1.7c0.9-0.7,1.5-1.3,2-1.8c0.4-0.7,0.5-1.2,0.4-1.7c-0.1-0.3-0.3-0.5-0.9-0.8c-0.4-0.2-1.1-0.4-1.8-0.5
			c-0.8-0.1-1.5-0.1-2.5,0.1c-1,0.1-2.1,0.4-3.3,0.8C105,105.4,104.8,106.6,104.5,107.7z M112.2,94.4c1.5-0.9,2.8-1.7,3.8-2.6
			c1.1-0.9,1.8-1.7,2.3-2.5c0.4-0.8,0.7-1.4,0.5-2c-0.1-0.4-0.4-0.7-1-0.9c-0.5-0.2-1.2-0.2-2.1-0.2s-1.8,0.2-2.9,0.5
			s-2.3,0.8-3.6,1.3c-0.4,1.3-0.8,2.6-1.1,4c-0.4,1.4-0.8,2.9-1.2,4.6C108.9,96,110.7,95.3,112.2,94.4z"/>
		<path d="M134.7,80.1c1.6-0.3,3.3-0.7,5-1s3.5-0.5,5.3-0.8c1.8-0.2,3.6-0.3,5.4-0.4c1.7,0,2.8,0.7,3.3,2c0.4,0.8,0.7,1.4,0.8,2
			c0.1,0.5,0.3,1.2,0.4,2c0.1,0.8,0.1,1.3-0.2,1.6c-0.2,0.2-0.8,0.4-1.6,0.5c-1.8,0.2-3.7,0.4-5.6,0.7s-3.9,0.4-6.1,0.8
			c-0.4,1.4-0.9,2.7-1.3,4.2c-0.4,1.4-0.9,3-1.3,4.6c0.9-0.1,1.8-0.2,2.7-0.2c0.9-0.1,1.8-0.1,2.9-0.1c0.9,0,1.5,0,2,0.2
			c0.4,0.2,0.9,0.5,1.2,1.2s0.7,1.2,0.9,1.7s0.3,1.2,0.5,1.7c0.2,0.7,0.2,1.2,0.1,1.4c-0.2,0.2-0.8,0.4-1.5,0.7
			c-1.8,0.3-3.7,0.7-5.5,1s-3.7,0.5-5.4,1c-0.2,1-0.4,1.8-0.7,2.7s-0.4,1.7-0.7,2.6c1.4-0.2,2.7-0.4,4-0.5s2.7-0.2,4.1-0.3
			c0.9-0.1,1.5,0,2,0.2s0.9,0.5,1.2,1.1c0.3,0.7,0.7,1.2,0.9,1.7s0.4,1.1,0.7,1.6c0.1,0.7,0.1,1,0,1.2s-0.7,0.4-1.4,0.5
			c-2,0.3-3.9,0.8-5.9,1.1c-2,0.4-3.9,0.8-5.6,1.1c-1.2,0.3-2.1,0.3-2.7,0.2c-0.7-0.2-1.2-0.4-1.6-0.7c-0.5-0.3-1-0.7-1.4-1
			s-1-0.8-1.6-1.3c-0.5-0.4-0.9-0.9-1.2-1.5c-0.3-0.7-0.4-1.3-0.3-2.1l4.3-29.9C131.7,80.8,133.1,80.5,134.7,80.1z"/>
		<path d="M166.6,109.6c-2.3,0.3-4.2,0.7-6,1.2c-0.7,1.2-1.1,2.3-1.6,3.3s-0.9,2-1.3,2.9c-0.2,0.5-0.5,0.9-0.9,0.9s-0.9,0-1.5-0.2
			c-0.4-0.1-0.9-0.3-1.3-0.5s-1-0.4-1.4-0.7c-0.3-0.2-0.7-0.4-1-0.7s-0.4-0.3-0.7-0.7c-0.1-0.2-0.2-0.5-0.2-1c0-0.3,0.1-0.9,0.2-1.5
			c0.8-2.1,1.6-4.6,2.8-7.3c1.2-2.8,2.4-5.6,3.7-8.7c1.3-2.9,2.7-6,4.1-8.8s2.7-5.5,4-7.7c0.4-0.8,1.1-1.5,1.7-2
			c0.8-0.5,1.8-0.8,3.3-0.5c1.2,0.1,2.3,0.1,3.3,0.3c1,0.1,1.8,0.3,2.6,0.4c0.8,0.2,1.5,0.3,2.3,0.5c0.7,0.2,1.4,0.4,2.1,0.5
			c1,0.3,1.5,0.8,1.7,1.3s0.3,1.3,0.2,2.2c-0.2,2.2-0.3,4.6-0.4,7.4c-0.1,2.8-0.2,5.6-0.3,8.7c0,3-0.1,6.1-0.1,9c0,3,0,5.9,0,8.5
			c0,0.5-0.1,0.9-0.3,1.1s-0.8,0.3-1.5,0.3s-1.5,0-2.2-0.1c-0.7,0-1.3-0.2-2.1-0.4s-1.2-0.4-1.5-0.9c-0.3-0.3-0.5-0.9-0.7-1.7
			c-0.1-0.9-0.2-1.8-0.3-2.8c-0.1-1.1-0.2-2.2-0.2-3.4C171,108.9,168.9,109.2,166.6,109.6z M168.8,101.8c1.4-0.1,2.7-0.2,4.1-0.3
			c0-2.5-0.1-4.9-0.1-7.4s0-4.9,0-7.3c-1.2,2.2-2.5,4.7-3.9,7.3c-1.4,2.7-2.8,5.4-4.2,8.2C166.1,102.1,167.5,101.9,168.8,101.8z"/>
		<path d="M193.9,111.8c-0.3,1.7-0.7,3.4-1,5c-0.1,0.4-0.3,0.8-0.7,1c-0.2,0.1-0.8,0.1-1.4,0c-0.9-0.2-1.5-0.3-2.2-0.5
			c-0.7-0.1-1.2-0.3-1.8-0.7c-0.5-0.3-1-0.8-1.2-1.2c-0.2-0.4-0.3-1.1-0.2-1.8c0-0.7,0.1-1.5,0.2-2.7c0.1-1.2,0.2-2.6,0.4-4.1
			c0.1-1.5,0.3-3.1,0.5-4.9c0.2-1.7,0.4-3.5,0.7-5.2c0.2-1.7,0.4-3.5,0.8-5.1c0.3-1.6,0.5-3.1,0.9-4.4c0.3-1.3,0.7-2.4,1-3.3
			s0.8-1.4,1.1-1.6c1.8-0.9,3.8-1.6,5.9-2.5c2.1-0.8,4-1.4,6-1.7c2-0.3,3.8-0.3,5.6-0.1c1.8,0.2,3.3,1.1,4.7,2.4
			c1.1,1.2,2.1,2.4,2.8,3.7s1.5,2.9,2,4.8c0.4,2.1,0.2,3.7-0.4,5c-1.1,2.1-2.8,4-5.2,5.7s-5.3,3.4-8.7,4.9c0.7,0.8,1.4,1.6,2.3,2.5
			c0.9,0.9,1.7,1.7,2.6,2.6c0.9,0.9,1.7,1.7,2.6,2.5c0.9,0.9,1.6,1.5,2.4,2.2c0.5,0.5,0.9,0.9,0.8,1.2c-0.1,0.3-0.3,0.7-0.8,1
			c-0.5,0.4-1,0.7-1.4,0.8c-0.4,0.1-0.9,0.1-1.4,0.2c-0.7,0.2-1.4,0.2-2.2,0.1s-1.7-0.4-2.8-1.1c-0.7-0.4-1.5-1.1-2.4-1.8
			c-0.9-0.8-1.8-1.5-2.8-2.4s-2-1.7-2.9-2.7c-1-1-1.8-2-2.6-2.8C194.7,108.4,194.2,110.2,193.9,111.8z M198.5,93.2
			c-0.4,1.7-1,3.6-1.5,5.6c2.1-0.7,3.9-1.5,5.5-2.5s2.9-2.1,4-3c1.1-1.1,1.8-2.1,2.4-2.9c0.4-1,0.7-1.6,0.4-2.2
			c-0.3-0.9-1.4-1.3-3.1-1.3c-0.9,0-1.8,0.1-2.9,0.3c-1.1,0.2-2.2,0.7-3.4,1.2C199.4,89.8,198.9,91.5,198.5,93.2z"/>
	</g>
</g>
<g class="st0">
	<path d="M304.1,283.5v-64.3h22.4c5.7,0,9.9,0.5,12.5,1.5c3.7,1.4,6.6,3.8,8.7,7c2.1,3.2,3.1,7.1,3.1,11.7c0,3.6-0.8,7-2.5,10.3
		c-1.7,3.3-4,5.7-7.1,7.2v0.2c0.6,0.8,1.4,2.1,2.4,3.9l12.5,22.5h-17.5l-11.4-21.7h-7.4v21.7H304.1z M319.8,248.4h6.8
		c2.6,0,4.6-0.7,6-2.1c1.4-1.4,2.2-3.3,2.2-5.8c0-3.5-1.3-5.8-3.8-6.8c-1.4-0.6-3.4-0.9-5.9-0.9h-5.3V248.4z"/>
	<path d="M363.2,283.5v-64.3h40.3v13.5H379v11.7h19.6v13.5H379V270h25.8v13.5H363.2z"/>
	<path d="M428.7,283.5v-50.8h-19.5v-13.5h54.7v13.5h-19.5v50.8H428.7z"/>
	<path d="M459.7,283.5l21.8-64.3h16.5l21.8,64.3h-16.2l-4-13.5h-20l-3.9,13.5H459.7z M483.4,257.5h12.7l-3.6-12.5l-2.6-11.1h-0.2
		c-1,4.7-1.8,8.4-2.6,11.1L483.4,257.5z"/>
	<path d="M526.4,283.5v-64.3h15.7v64.3H526.4z"/>
	<path d="M555.6,283.5v-64.3h15.7V270h26.2v13.5H555.6z"/>
</g>
<g class="st0">
	<path d="M316.5,334.6v-36.8h12.9c3.2,0,5.8,0.8,7.7,2.5s2.9,4,2.9,6.9c0,1.8-0.4,3.4-1.2,4.7c-0.8,1.4-1.9,2.4-3.4,3.2v0.1
		c1.9,0.6,3.4,1.6,4.5,3.3c1.1,1.6,1.6,3.5,1.6,5.6c0,3.3-1.1,5.9-3.4,7.7c-2.3,1.8-5.1,2.7-8.5,2.7H316.5z M321.7,313.3h7.7
		c1.6,0,2.9-0.5,3.9-1.6c1-1,1.5-2.4,1.5-4c0-1.6-0.5-2.9-1.5-3.9c-1-1-2.3-1.5-4-1.5h-7.7V313.3z M321.7,330.1h8.3
		c1.9,0,3.5-0.6,4.6-1.7c1.1-1.1,1.7-2.7,1.7-4.6c0-1.9-0.6-3.4-1.7-4.5c-1.1-1.1-2.7-1.7-4.6-1.7h-8.3V330.1z"/>
	<path d="M349,334.6v-36.8h11.7c3.1,0,5.4,0.3,6.8,1c1.8,0.8,3.2,2,4.3,3.7s1.6,3.6,1.6,5.9c0,2.4-0.6,4.5-1.8,6.3
		c-1.2,1.9-2.8,3.1-4.8,3.8v0.1c0.3,0.3,0.6,0.9,1,1.7l7.8,14.3h-5.8l-7.8-14.6h-7.9v14.6H349z M354.2,315.5h7.4
		c2,0,3.6-0.6,4.8-1.8c1.2-1.2,1.8-2.9,1.8-4.9c0-2.9-1.1-4.8-3.4-5.8c-0.9-0.4-2.4-0.6-4.4-0.6h-6.1V315.5z"/>
	<path d="M377.7,334.6l13.2-36.8h5.5l13.2,36.8h-5.3l-3.7-10.6h-13.9l-3.7,10.6H377.7z M388,319.7h11.1l-4.1-11.6l-1.5-5.3h-0.1
		c-0.5,2.2-1,4-1.4,5.3L388,319.7z"/>
	<path d="M415.2,334.6v-36.8h5.1l16.4,23.9l3,5.4h0.1c-0.2-2.2-0.3-4-0.3-5.4v-23.9h5.1v36.8h-5.1l-16.4-23.9l-3-5.4H420
		c0.2,2.2,0.3,4,0.3,5.4v23.9H415.2z"/>
	<path d="M454.3,334.6v-36.8h12.2c5.7,0,10.2,1.6,13.5,4.9c3.4,3.2,5.1,7.7,5.1,13.5c0,5.8-1.7,10.3-5.1,13.5
		c-3.4,3.3-7.9,4.9-13.5,4.9H454.3z M459.5,330.1h6.7c4.2,0,7.5-1.2,10-3.6c2.4-2.4,3.7-5.9,3.7-10.3c0-4.4-1.2-7.8-3.7-10.2
		c-2.5-2.4-5.8-3.6-9.9-3.6h-6.7V330.1z"/>
	<path d="M492.7,334.6v-36.8h5.2v36.8H492.7z"/>
	<path d="M507.6,334.6v-36.8h5.1l16.4,23.9l3,5.4h0.1c-0.2-2.2-0.3-4-0.3-5.4v-23.9h5.1v36.8H532l-16.4-23.9l-3-5.4h-0.1
		c0.2,2.2,0.3,4,0.3,5.4v23.9H507.6z"/>
	<path d="M544.5,316.2c0-5.3,1.8-9.8,5.4-13.5c3.6-3.6,8-5.5,13.4-5.5c5.4,0,9.8,1.5,13.4,4.5l-2.6,3.8c-1.3-1-2.8-1.9-4.8-2.6
		c-1.9-0.7-3.8-1-5.7-1c-4.2,0-7.5,1.4-10,4.1c-2.5,2.7-3.8,6.1-3.8,10.1c0,4.2,1.3,7.7,3.9,10.4s5.8,4.1,9.6,4.1
		c4,0,7.5-1.5,10.4-4.6v-5.3h-5.9v-4.5h10.7v18.5H574v-2.3l0.1-1.6h-0.1c-1.3,1.4-2.9,2.4-4.9,3.3c-2,0.8-4.1,1.2-6.4,1.2
		c-5,0-9.3-1.8-12.8-5.4C546.3,326.2,544.5,321.7,544.5,316.2z"/>
</g>
</svg>
