<svg version="1.1" id="Capa_1" xmlns="http://www.w3.org/2000/svg" x="0" y="0" width="1920" height="1080" style="enable-background:new 0 0 1920 1080" xml:space="preserve"><style>.st1{fill:#020203}.st2{fill:#fff}</style><ellipse cx="1378.9" cy="829.9" rx="107.8" ry="26.5" style="fill:#d6d6d6"/><path class="st1" d="M1326.6 807.3c.2-.4.7-1 1.1-1.6l-3 1.9c.3-.1.5-.2.7-.3.5-.2.9-.2 1.2 0zM1126.4 513.5c.4.8 1 1.4 1.8 1.5 2.5.6 5.3 1.1 7.9 1.1-3.3-.4-6.7-1.3-9.7-2.6zM1117.8 537.5c.3.5.9 1.3 1.3 1.6.8-.6 3-.9 2.6-2.3-1.3-.2-2.9.1-3.9.7zM1117.5 415.5c-.9.6-3.3 1.1-1.6 3.1 1.9 1.9 4.3 3.7 7.1 3.8 3.3 0 6.5-.8 9.7-1.6.3-1 .6-1.8 1.4-2.3-.4-.3-1-.8-1.3-1-2.5.3-4.9 1.1-7.4 1.3-3.2.6-5.7-1.5-7.9-3.3zM1096.8 430.5c3.3 2.6 7.8.6 11-1.8-.3-.4-.6-1.3-.8-1.6-2.4.3-4.3 1.9-6.5 2.3-1.4-2.6 2.1-4.7 1.1-7.4-2.3 2.3-4 5.2-4.8 8.5zM1106.6 441.8c2.4.4 4.4-1.3 6.3-2.6-.1-.8-.3-1.6-.4-2.4-2.1.9-3.9 2.5-6.2 2.1.1-1.5.4-3.1.4-4.5-3.5.4-4.2 7.5-.1 7.4zM1095.5 446.6c.3-1.6.9-3.4 1.8-4.7 0-.9 0-1.8-.1-2.5-3.5 1.9-4.4 6.5-3.8 10.2 3 1 4.8-1.9 6.9-3.5-.1-.6-.1-1.9-.3-2.4-1.8.4-3.2 1.9-4.5 2.9zM1109.8 454c-2 .1-4 1.1-5.8 2.4l-.3-4.3c-.9.3-1.5.6-2.1 1-.4 1.8 0 3.5.4 5.2.1 1.3 1.8 1.6 2.8 1.3 2.2-1.4 4.6-2.8 5-5.6zM1193.9 397.9c.5-.1 1.5-.4 1.9-.5-2-3.5-4.3-7.3-7.7-9.8-.6-.5-1.8-.5-2.5-.6 3 3.4 5.5 7.5 8.3 10.9zM1192.5 402.3c-1.3-3.3-4-5.9-7.1-7.8 1.5 2.6 3.5 4.9 4.8 7.6 1.1 2.3 2.5 4.5 3.9 6.8.9-2.5-.7-4.6-1.6-6.6zM1163.9 407.2c-2.4 1.8-4.9 3.8-4.9 7.2 3.7-.9 5.7-4.8 9.4-5.2 2.3-.4 4.7.3 7.1.3 0-1.1.9-2.6-.4-3.4-3.7-1.1-7.9-1.1-11.2 1.1zM1165.2 423.2c3.3-1.3 6.2-3.5 9.8-3.8 3.1-.9 6.2.9 9.3.8.1-.9.1-1.9.3-2.8-5.3-2.6-11.8-2.1-16.9.9-1.8.8-2.9 2.7-2.5 4.9zM1170.7 429.8c-.9.9-1.4 3.3.8 3 2.4-1.6 4.5-3.9 7.6-4.5 3.4-1.3 7.1 0 10.2 1.4.4-.3 1-.8 1.4-.9 0-.5 0-1.5.1-1.9-3.3-2.1-7.3-2.9-11.2-2.5-3.5.8-6.6 2.7-8.9 5.4z"/><path class="st1" d="M997.2 617.2c-.9 17.4 2.3 34.8 8.7 52.4 3.5 8.1 6.4 16.1 11 23.8 4.2 7.7 9.6 14.5 15.1 21.3 3.8 4.2 7.4 8.7 12.3 11.6-3.3 3.1-8.1 4.9-10.8 8.8-3.9 4.7-3.7 11.7-.9 17 4 7.3 11.5 12.2 19.5 13.6-1.6 6 2.8 12.3 8.4 14.4-2.5 4.4-4 9.3-3.1 14.4 1.1 4.7 3.4 9.4 7.4 12.3 5.3 3.7 12.3 4.8 18.6 2.6 1.3-.6 2.6-1.1 3.9-1.6.3-.9.5-1.5.6-2.3-.1-.1-.6-.3-.8-.4-3 .8-6 2.3-9.3 2.1-5.4 0-10.8-2.1-14.4-6.3-3.7-4.5-4.2-10.7-2.5-16.1.8-2.5 2.5-4.4 4.8-5.4 1.3 2.6 3.1 6 6.5 5.9l1-2.5c-2.4-1.6-4.7-4.4-4.3-7.4.5-2.8 3.7-3.3 5.9-3.7.6-.9 1.3-1.5 1.6-2.3-5-2.8-11.3 1.6-12.1 6.9-5.9.3-9.9-5.5-10.2-11 2.5 0 7.4 2.3 8.1-1.6-2.5-1.8-5.9-.6-8.6-2.3-3.3.1-6.2-1-8.9-2.6-5.8-2.8-10.5-8.2-11.2-14.7-1-5 2.9-9.3 6.7-12.1 5-3.5 10.1-7.1 13.3-12.2 1.4-2.1 2-5.3 1.1-7.8-1.1-2-3.7-2.3-5.7-3.1 2.9-1.4 6 .3 8.1 2.5-.3 1.3-2.1 3.1-.5 4.2 2.3.5 4.9-.3 7.1 1 2.4 2.5 2.6 6.2 2.3 9.4-.3 4.3-2.5 7.9-4.2 11.7-1.3 0-2.6-.3-3.9-.4-.9.8-2.9 1.6-1.9 2.9 2.6 1.4 5.7.9 8.2 2.5 1.3 1.4 2 3.3 3 5-1.8 1-3.5 2-5.4 3-.4 1-.6 2-.9 3 2.1-.9 4-2.3 6.3-2.5 1.4.1 2.8.5 4.2.8.5-1 1-2 1.4-3-1.6-.4-3.1-.8-4.8-1 .3-1 .6-2.1 1-3.1 1.8 0 3.7-.4 5 .6 1.3 1.3 2.5 2.9 3.8 4.2 1.1-.1.6-1.6.8-2.4-.1-3-2.6-6.2-5.8-6.3-1.6-.1-3.1.1-4.8.3-1.3-1.1-2.6-2.3-4-3.1 2.4-2.6 3.1-6.3 4.2-9.6 1-3.8.8-7.9-.3-11.8 1.3-2.1 1.6-4.8 3.9-6 1.9-1.5 4.5-.8 6.8-.4.9-.9 1.4-1.8 2.1-2.5-1.8-.5-3.4-.9-5.3-1.3.6-2.3.5-5.2 2.5-6.9 1.8-1.8 4.4-2 6.8-2.4 1.9 6.4 4.3 12.7 7.1 19-2 .3-3.8.8-5.7 1-1.6-1.5-2.6-3.7-4.7-4.8-1.9-.6-3.5 1.3-3.3 3 .4 6.2 1.3 12.3 3.4 18 2.1 5.7 4 11.5 6.8 17 2.9 7.1 6.2 14.1 11 20.1 1.4 1.5 3 3.5 5.3 2.5-.3-1.3-.8-2.5-1.6-3.4-6-6.9-8.9-15.6-12.8-23.9-3.4-8.8-7.7-17.8-8.1-27.5.6.9 1.1 1.9 1.6 2.8 9.2-.5 17.6-5.2 26.8-6.5.8-1.5.9-3.3.6-5.2 0 0 .3-.1.4-.1.8 1.8 1.3 3.4 1.8 5-2 1.5-2.6 3.9-2.6 6.4-.9.1-1.4.4-2.1.5.3 1.1.3 2.5 1.1 3.5 1.6-.1 3.4-1.9 4.7-.5 1.5 1.5 4.5 3 3.4 5.5-1.1 3-4.8 3.5-6.5 6 2.1.4 4.8.3 6.7-1.4 2.3-1.6 2.8-4.4 3.5-6.8 3.1 4.5 5.7 9.3 7.9 14.4-2.3 1-4.4 2.4-5.3 4.8-1.3 3-3 6.5-6.7 6.8-2.6 1-5.8-.9-8.1 1.4 1 1.3 2.1 2.6 3.9 2.3 3.9-.5 7.9-1.3 11-3.9 2-2.6 2.5-6.8 5.9-8.1 2.3-1.1 4.8.6 6.8 1.9-1.1 1.5-3 1.9-4.7 2.8-1.5 2.4-1.8 5.9-4.5 7.2-2.6.9-5.9.6-7.6 3.4 4.2 1.1 9.1-.1 12.1-3.4 1 .3 2.1.6 3.1 1 2.1-1.4 2.8-3.7 2.4-6-.9-2.4 2.3-4 .9-6.3-1-2-1.3-4-1.1-6.3 3.1.5 5.5 2.5 7.8 4.7l1.9-3c1.4-.4 2.9-.8 4.3-1-2.4 2-4.9 4-7.2 6.3-1 1-1.5 2.5-1.6 3.8 1 5.7 2.9 11.2 5.3 16.5 2.9 6.5 5.5 13.1 8.4 19.4l-.5 3c1.8-.9 3.1-1.9 5-2.5 2.8.1 4.7 2.4 6.7 4.2h1.3c.4-.9.6-1.9.8-2.8-.8-.6-1.4-1.3-2.1-1.8 2.8-1.5 5.4-3.7 8.6-4.2 3.3 0 5.5 2.6 7.8 4.7.4-1 .6-2.3.9-3.3-1-.9-1.9-1.9-2.9-2.8 1.5-1.1 2.9-2.4 4.8-2.4 2.9-.3 5.7 2 8.6.8-.3-1.8-1.6-2.9-3-3.7 1.1-2 2-4.4 4.2-5.7 2-.9 4.4-.4 6.7-.5 2.6 4.9 5.5 9.8 8.8 14.4-1.6 1.4-3.4 2.9-3.3 5.4.3.3.8.9.9 1.3 1.3-1.4 2.4-3.5 4.5-3.9 1.9-.5 3.7.1 5.4.6-1.8 1.9-4.8 4.3-2.5 7.1 1.3-1 2.4-2.5 3.7-3.3 1.9-.9 3.9-.9 5.9-1 .6 1.6 1.1 3.3 1.8 4.9l.4.9c.6-.4 1.3-.9 1.8-1.3-.4-1.9-.6-3.8-.8-5.7 2.6 0 5.4 0 7.4-1.9-2.5-2.6-6.5-1.1-9.4.1-1.8 0-3.4 0-5 .1-.6-1.8-2.1-3-3.8-4 3-5.2 7.1-11 13.6-11.1 4.5-.8 8.4 2.1 11.1 5.4.3-.9.6-1.8.9-2.5l-2.5-3.3 1.4-1.4c1-.4 1.9-.8 2.9-1.1 2.9.4 5.2 1.8 7.4 3.5-1.8 1.3-4.4 3.3-3.4 6 1.9-.5 3-2.6 4.9-3.3 2.8-.9 5.5-1.1 8.3-1.9.3-.6.5-1.9.6-2.5-2-.3-4.3.1-6.5.5-3.3-3.1-7.3-5.9-12.1-5.7-2.3-3.3-3.9-7.1-5.7-10.7 2.6-3.3 5.7-6 8.3-9.3 1.3-1.5.6-3.5.8-5.3-1.8-1.3-3.5-2.4-5.8-1.6-4.3.5-5.9 4.8-7.8 7.9-3.7-5.9-6.7-12.2-9.6-18.5-1.5-2.4-3.1-6.4-6.7-5.5-.5 2.8-.1 5.5.6 8.3-6 2.4-11.5 5.9-16.9 9.4-3 2.6-5.3-3.3-8.6-2-1.9.9-2.1 2.9-2.3 4.5.4 3.5 2.1 6.7 3.8 9.8 2.4 4.3 4 8.7 6.3 12.8-3 0-6.2.9-8.4 3.1.4-2.3-.9-3.8-2.5-4.8 1.4-1.5 2.8-3.1 2.6-5.4-.1-1.9-2.3-1.9-3.5-2.5 1.5-2.9 3.3-6.9.8-9.7-3.4-.6-5.4 2.8-7.9 4.7-3.1 2.3-6.2 4.3-9.4 6.2l-1.9-4.2c1.9-2.5 5.9-4.9 4.3-8.6-1.5-3.7-5.8-1.3-8.6-.9-2.4-2.9-6.2-4-9.8-4.2-1.4.3-1.9-.9-2.6-1.6-3.3-.5-6.4.3-9.2 1.9-2.3-1.1-4.8-2.4-7.4-1.3 0-1.8-.1-3.5-.1-5.4 2.3-.3 4.7-1.4 4.8-3.9.3-3.9 1.3-8.1-.5-11.7-.9-2-3.7-1.8-5.4-.8-.8-.4-1.3-.9-2-1.3-.4.3-1.5.8-2 .9-.6.5-.6 2.3-1.6 2.1-.8-.9-1.3-2-1.8-3-.9.1-2 .3-3 .4-.9 4-.6 8.3-1 12.5-3.7-4.7-6.7-9.8-9.2-15.2-1.8-3.1-1.9-7.2-4.8-9.7-4 .9-3.8 6-3.7 9.3-4.8 1.1-9.3 2.8-14 4.2-.3-1.6-.5-3.1-1.1-4.8-2.5-6.2-4.4-12.5-6.3-19-.1.1-.4.3-.6.4.3-.3.5-.3.6-.4-1-3.8-1.8-7.9-2.4-11.8-1.5-9.8-4.2-19.8-4.5-29.7-.3-7.1-.5-14.1-.4-21.2.3-6.3 5.5-10.7 9.1-15.5-.3-3.1-.8-6.4.1-9.4.5-.3 1.3-.8 1.6-1 1.1 1.6 1.6 3.7 3.3 4.9 2.9.4 5.8-.4 8.8-.6 6.2-.9 12.3 0 18.6.1 6.7.3 13.1-.3 19.6-.8 3.7-.3 7.4 1.3 10.7-.4.1-1.6.4-3.1.5-4.8 1 .9 2.1 1.8 2.8 3 2.8 6.4 1.8 13.6 4 20.1-3.1.8-6.4 1.8-9.4 3-3.4 1.8-5.4 5.4-5.8 9.2-4 1-8.3 2.5-12.6 3-8.2 1.1-16.4 1.8-24.7 2.5-1 0-2.3.3-3.3 1 1.1 2.6 3.4 5 5.9 6.8 2.4 1.6 5-.8 6.9-2.5 1 .9 2 2 3.3 2.5 2.6 0 3.9-2.4 5.2-4.2 1.6.9 3.3 2.3 5.2 1.9 1.6-.3 2.5-1.8 3.4-3 1.3 1 2.4 2 4 2.4 2.4 0 3.9-2 4.9-3.9.9-.1 2.1-.4 3.1-.5l1.3 6.5c-3.4 2-8.2 3.3-9.3 7.4-1.3 5.8 0 12.1-2 17.8-1.4 3.7-5.3 5-8.6 6.7-5.5 2.6-12 1.3-17.9 2.3 0 .6.1 1.8.1 2.3 5.9.3 12.1.5 17.8-1.6 4.5-1.6 9.3-3.9 11.2-8.6 2-5.3 1.8-11 2.1-16.5 0-3.3 3.4-4.8 5.9-5.9 4.4-1.8 10.1-2 13.7 1.4 1.8 1.3 2.3 3.5 1.6 5.4-.8 2.3-1.8 4.8-2.9 7.1-1.5 2.6-5.4 2.6-7.1 5.2-.8 7.3-2.1 15.4-7.2 21.3-2.3 3-7.1 3.1-8.3 6.9 3.8-.4 7.6-2.1 10.1-5.2 5.4-6.3 7.2-14.5 8.8-22.4 2.3 3.1 6.7 2.8 9.8 1.1.1 7.3 1 14.6 2.9 21.7 1.5 5.8 2.3 11.7 4.3 17.4 2.5 8.2 4.7 16.5 8.6 24.2-1.9 1.5-3.9 3-3 5.7 1.4-.9 2.8-1.9 4.2-2.6 2-.9 4 .8 5.9 1.4 1.1.5 1.4-1.3 1.9-1.8-.9-.9-1.8-1.8-2.6-2.5 1.3-3.1 3.1-6 6-7.8 4.2-2.9 9.6-1.4 13.9-.1.1-.8.5-1.8.4-2.6-1.8-1.8-4.3-2-6.7-2.1-5.4-.5-11 2.4-13.9 7.1-1 1.6-1.3 4.3-3.5 4.7-6.8-16.1-11.2-33.1-14.2-50.4-.4-4.9-1.3-9.8-.5-14.7 2.4-7.8 9.7-14 17.9-15.2 5.3-.8 10.8 1.8 14.1 5.8 1.9 2.4 2.5 5.5 3.5 8.3-3 .6-6 4.2-9.2 2.3-4-2.1-8.9.4-10.6 4.2-1.1 5.3 1.3 10.1 1.6 15.2-.4 3.9-3.8 6.5-6.5 9.1.3.6 1 1.6 1.3 2 3.8-2 6.7-5.5 7.9-9.4.9-5.2-2.4-10.2-1.6-15.4.3-2.5 3.4-2.8 5.4-3.1-.4 1.6-1.3 3.1-.8 4.8 2.4 5.9 2.9 12.5 1.6 18.8-.5 2-2.3 3.1-3.4 4.8.3.5.5 1.4.6 1.8 2.3-1.3 4.5-2.8 5.5-5.2 4.4-1.9 8.8-3.3 13.3-4.9 1.1 2.9 1.8 5.9 3 8.7 2.3 4.8 3.5 9.8 6.2 14.4 1.1 0 1.9-1.1 2.8-1.6-3.3-6.7-5.8-13.6-8.3-20.5 2.9 1.6 5.9 3.5 9.3 3 6.4-.3 9.3-9.6 5.2-14.1-2.9-3.3-7.1-5.3-11.2-6.3-1-3.7-2.3-7.4-3.3-11.1-1.9.6-3.8 1.3-5.7 1.8-.8-2-1.3-3.8-2-5.7-2.6-6.8-10.1-12.2-17.6-11.3-4.3.5-8.2 2.5-11.8 4.5-1.4-10.3-2.4-20.9-7.1-30.3-1-2.3-3.7-2.3-5.7-2.8-2.3-4.7-1.8-10.2-3-15.4-1-3.1-.8-7.1-3.8-9.2-1.6-1.5-3.7-.5-5.5-.4-.4 1.6-.8 3.1-1.1 4.8-3.7-.5-7.1.4-10.7.5-6.5 0-13.1.5-19.5-.4-7.6-1-15.2-.6-22.8.4-.6-1-1.1-2-1.6-3 2.3-2.9 5.7-1.8 8.7-2.5 1.1-3.1-2.9-2.8-4.9-2.8 1.5-1.5 2.1-3.4 2.9-5.3 1-2.5 3.4-4.2 5.9-5.2 2.3 0 4.3.6 6.2 1.9l-.5 4c3.5-.9 4.4-5.3 7.8-6.2 2-.3 3.9-.1 5.9-.1 0-.6-.1-1.9-.3-2.5-1.6-.4-3.1-.5-4.8-.8 1.1-2.8 2-5.9 4.8-7.6 2.9-2.4 6.7-.9 9.8-.3.3 4.3.6 8.4 1.4 12.6-2.6 1.5-4.7 3.4-6.5 5.8-4.9-2.5-12 1.1-12.3 6.7 2.9-.8 5-2.8 7.8-3.8 2.8 0 4.7 2 6.7 3.4-.1 1.3-.1 2.8-.1 4.2 2.4-1.1 5-2 7.6-3.1.3-.5.8-1.5 1-1.9-1.6-.3-3.4 0-4.8-.8-1.5-.9-2.9-2.3-4.2-3.4 2.1-2 4.7-4.2 7.8-4.5 3.3.1 5.5 2.5 7.8 4.7.4-.4 1.3-1 1.6-1.3-.9-1.9-2.3-3.4-3.5-4.7 4.9-4 11.1-7.6 17.6-6.3 4.2 1.3 9.1 2.6 11.2 6.8 2.5 4.7 2.3 10.2 2.6 15.4.8-.6 1.8-.9 2.5-1.6.6-1.5.6-3.1.8-4.8 4 .1 9.1 1.4 10.1 5.9 1 1.9-1.4 4.7 1.4 5.4.9-.8 1.5-1.6 2.1-2.5.3-1.6 0-3.1-.1-4.8 2.6.1 5.5 0 7.9 1.3 3.1 1.5 4.7 4.7 6.4 7.4-2.8 1.3-4.3 3.8-5.2 6.5-3-2.4-7.1-4.3-10.8-2.3-1.8-1.4-3.5-2.9-5.9-3-2.3-.5-4.3.9-6.3 1.9 0 .8-.1 1.8 0 2.6 2.5-.1 5-2.3 7.4-.6 3 1.3 3.1 4.7 3.3 7.4-1.3.6-3.1.6-3.9 2-.8 1.3-.3 2.9-.4 4.2 1.5-.8 2.9-2 4.5-2.4 2.3 0 4.5.5 7.1.5-.1-.9-.1-1.9-.1-2.8-1.1-.4-2.6-.6-3.9-.9 0-2-.1-3.9-.4-5.9 1.4 0 2.9-.5 4.2-.1 2 1 3.7 2.6 5.5 3.8 1.3-3.7 4.2-6.8 7.9-7.6 2.1-.6 4.2-.3 6.3.1.4-.9.5-1.9.8-2.8-2.1-1-4.5-1.5-7.1-1.6-1.5-2.8-2.9-5.9-5.4-7.8-2-1.1-4.2-2.4-6.5-2.8-2-.5-4 .6-5.9 1.4-1.4-1.9-2.8-3.5-4.5-4.9-.9-4.9-.6-9.7-.6-14.6.3-2.4.3-5.3 2.5-6.5 3.8-2.5 8.8-3 13.1-1.8 2 .5 4.5 1.5 4.9 3.8 1 4 .9 8.2 1.4 12.1.3 3.5.8 7.1.3 10.5-1 1.4-2.6 2.4-3.3 4.2 1.1-.6 2.4-1.3 3.7-1.9.3 1.6.8 2.9 2.5 2.8.1-1.1.1-2.4.3-3.7 5-1.4 9.8.8 13.9 3.4-.4-1.3-.8-2.8-1-4-4-2.3-8.8-3.3-13.3-2.1-.1-4.5-.5-8.8-.8-13.3-.3-4-.3-8.4-2.8-11.8-1.5-1.5-3.7-1.9-5.7-2.6-.3-2.1-.5-4.5-.6-6.8 0-2.8-.3-5.4-.4-8.2 3.5-1.8 5.4-5.3 8.1-8.1 3-2.6 7.2-.6 10.2.8 3.7 1.5 6.5 4.5 6.9 8.4-1.8-.3-3.5-.9-5.3-1.3-1 1.3-1.8 2.8-2.9 3.9-3.8.3-7.7-.8-11.5-.1-1.9.4-3.3 1.9-4.9 2.9.3.3.8.9.9 1.3 4.8-2.1 9.8-1 14.7-.9 2.5 0 3.9-2 4.5-4.2 1.4.4 2.8.9 4.2 1 1-.3 1.9-.9 2.8-1.4-.3-3.3-.9-6.5-3.4-8.9-3.8-3.5-9.2-5.4-14.4-5.3l-.1-1.6c0 .3.1.8.1 1-4.7.9-6.5 6-9.8 8.9-.4-3.1-.4-6.3-.8-9.4-.9-7.9-.4-16-1.3-24.1-.4-2.9-1.5-6.2.4-8.8 1.6-2.9 4.7-6.5 1.9-9.6-3.3 1.8-6.9 3.8-8.1 7.4-8.4-2.8-16.9-5.3-25.7-6.5-3.7-.5-6.9-1.4-10.5-1.9.3-1.1.3-2.4.1-3.7 7.3 2.3 14.9-.3 21.7-2.8 3.9-.4 6.3 3.7 9.4 5.3 2.1.9 3.9-1 4.9-2.6-.1-1.4-.5-2.9-.9-4.2 1.3.4 2.6 1 3.9 1.4l2.5-1.9c0-1.9-.4-3.5-1.1-5.2 2.1.6 5.2 1.9 7.2-.1 2-1.4.5-3.9-.5-5.5-3.4-4.2-8.8-6.4-14.1-7.4-5.3-.8-10.3 1.9-14.5 4.7-5.8 4-13.7 5.8-20.5 3.1.1-4.3.6-8.7 1.4-12.8 2 .9 4.3 1.1 6.5.3.5-.4 1.4-1 1.8-1.3 1.5 1.5 3.4 3 5.7 2.3 3.5-.5 4.4-4.3 6.4-6.7 4.4-1.6 9.6-2.6 12.8-6.5 4.2-4.7 7.2-10.8 6.3-17.1-1.9-17.5-11.5-32.9-23.3-45.2.9-5 1.5-10.7-.9-15.6-1.3-1.1-3.3-2-4.5-.8-2.5 2.3-3.5 5.8-5.5 8.6-2.3-1.3-4.5-2.4-7.1-3.3-.1-3.4.3-6.9-1.4-10.1-1.1-2-4.2-1.5-5.2.3-1.4 2-3.1 4.4-2.8 7.2-3.5-.9-7.1-1.3-10.5-1.6-.3-3.5-1.8-6.9-3.7-9.9-1-1.8-3.7-1.9-4.5 0-1.6 3-1.8 6.7-2.3 9.9-2.9.6-5.8 1.4-8.7 2.3-1.9-3.1-5.4-5.7-9.3-5.4-3.4 3.9-2 9.3-.8 13.9-1.5 2.3-3 4.3-4.7 6.4-2.3-.6-4.9-.9-7.2.1-1.5 3.7-.5 7.3.4 10.7-.8 1.5-1.6 2.9-2.4 4.5-1.8-.4-3.4-.6-5.2-.8-2.6 3.4-2.1 8.2.4 11.5-6 16.1-9.9 32.9-12.6 49.9-1.5 7.6-2 15.1-2.8 22.8-4-2.6-7.7-6.4-12.8-6.3-2.5 1.1-4.5 3.4-5.8 5.9-3.3 6-6 12.7-6.9 19.6-2.8 11.5-1.8 23.4.4 34.9-6.2 3.9-12.3 7.8-18.8 11.3 1.8 5.7 5.2 11 7.4 16.6-3.9.6-7.6 1.8-11.1 3.4-1-3.8-.1-8.7-3.5-11.2-2.3-1.3-5.2 0-7.1 1.6-3.3 2.5-4.5 6.8-5.3 10.6-3 .4-6.2.8-8.7 2.5-3.9 2.3-8.6 5-9.2 10.2-.5 6.4 2.6 12.5 6 17.6 0 1.9-.7 4.3-.8 6.8zm212.3 61.3c1.3 1 1.8 2.6 2.5 3.9-.4.8-.8 1.6-1.1 2.4-2.3-.5-3.4-3.1-3.9-5.4.9-.6 1.8-.9 2.5-.9zm1.4-3.7c-1 .4-2 .5-3 .8-.4-1-.5-2.3-.8-3.4.6-.3 2-.5 2.6-.6.4 1 .8 2.3 1.2 3.2zm10.3 20.2c-2.6.9-5-.8-7.3-2 1.6-.8 3.3-1.9 4.3-3.5-.3-2.4-1.5-4.7-2-7.2 2.5.8 4.8 2.3 7.1 3.9 1.4.9 2.3 2.3 1.9 3.9-.7 2.2-1.5 4.8-4 4.9zm-21.4-15.3c1.6-.6 3.3-1.1 4.9-1.9-.4 3.9 1.4 8.8 5.5 9.8 1.4.6 2.8-.6 3.9-1.4l.8 2.5c-3.1.8-5.8 2.6-8.8 3.7-3.7 1.3-7.4 2.4-11.1 4 .4-3.8.5-7.7-.4-11.5-.1-2.6-1.8-4.9-1.8-7.4 1.6-.9 3.5-1.1 5.3-1.6.5 1.4 1 2.5 1.7 3.8zm.1-4.7c1.6-.6 3.3-1.3 4.9-1.8-.1 2.1-2.5 2.3-4.2 3.1l-.7-1.3zm-85.8-30.5-2.4 3c-1.1-.8-2.4-1.6-3.5-2.5 1.8-.2 3.8-.5 5.9-.5zm3.1-.3c1.4-.4 3-.6 4.5-.6-.3 1.4-1.3 2.6-2.1 3.7-1.1-.9-1.9-2-2.4-3.1zm12.5-1.5c-.1.8-.3 1.6-.4 2.4-1.1-.5-2.1-1-3.1-1.6 1.1-.5 2.3-.7 3.5-.8zm9.4-1.8c-.6 1-.9 2.3-1.6 3-1.4.3-2-1.1-2.8-2 1.4-.5 3-.8 4.4-1zm11.1 7.3h-1c-.6-5.2-3.4-10.2-1.8-15.4 1.3 5.1 1.4 10.4 2.8 15.4zm-.8-17.4c4.3-2.3 9.3-3.5 14.5-4 2 2.3 2.9 5.3 3.8 8.1 2.5 7.6 2.8 15.2 4.2 23-3.7 3.3-6.8 7.1-7.7 11.8-2 1.1-4.2 2.6-6.7 1.9 0-.4 0-.9-.1-1.3 2.4-1.8 3.9-4.4 4.7-7.2 1.5-3.1 1.6-6.9.4-10.2-2-3-5.4-4.9-9.1-4.9-1.4-4.2-2-8.6-2.5-12.8-.3-1 .3-2.9-1.4-3.3l-.1-1.1zm88.4 120.5c-.3-.5-.8-1.5-1-1.9 1.4-2.8 2-5.9 4.5-7.8 1.3-1.1 3.3-1.3 4.7-.5.5 1.1.3 2.5-.8 3.3-2.2 2.1-5.2 3.9-7.4 6.9zm-35.7 5.4c-2.3-5.3-5.8-10.1-7.1-15.9 1.6.5 2.9 2.3 4.2 3.3 6-1.9 10.8-6.8 16.6-9.4 2.4-1.3 4.9-1.9 7.2-3.5 0-2-1.5-3.7-1.6-5.7 2.3 2.4 3.5 5.9 4.8 8.9-1.5.5-4 .9-3.9 3 .1 1.6-1.1 2.4-2.4 2.8.3 1 .5 2.3.6 3.3.5 0 1.6-.1 2.1-.1.3-.3.9-.8 1.3-1 .9.8 1.9 1.3 2.8 1.9 0 .9 0 1.8-.1 2.8-.5.3-1.3.8-1.6 1 2.1 1.4 4.9-.6 5.2-2.9-.3-1.4-.6-3-1.6-4.2-1.1-.8-2.9-1.1-3.5-2.5 1.4.1 2.8.8 4 1.1 5.2 8.6 9.2 17.5 14 26.2-.8.9-1.6 2-2.4 3-4.3-2.4-9.6-1.8-13.7.1-5 2.4-8.6 7.3-9.8 12.6-.4-.1-1.5-.4-2-.5-4.7-7.9-9.5-15.8-13.1-24.3zm-31.4-7.9c-.6-.9-1.3-1.9-1.9-2.8 1.1-1.5 2.9-1.6 4.5-1.9.2 1.9-1.2 3.4-2.6 4.7zm20 24.9c-2.9-.3-5.8.8-8.1 2.1 2.5-6.9 1.8-14.6.5-21.7 1.8-1.5 3.8-2.6 5.7-4-.6 1.8-1.8 3.4-2.9 4.8 0 .5-.1 1.4-.1 1.8l1.1 1.1c.8.4 3-.4 3 .9-.9 1.4-2.1 2.8-3.4 3.9-.4 2.1 1.6 2.9 3.3 3.9-.3 2.1-3.9 4.4-1.1 6.7.9-.9 1.9-1.4 2.8-2.1-.3.6-.6 2-.8 2.6zm-15.4-14.4c2-1 3.8-2.5 5.9-3.3.6 5.4 1.3 11.1.3 16.5-1.8-4.4-4-9.1-6.2-13.2zm-15.5 23.8c-2.4-3.7-3.7-8.2-5.5-12.3 2.3-.3 4.3-.8 6.5-1 2.6-1.4 3.1-4.7 5.7-6.3 4.4 4.2 4 10.7 7.1 15.7-2.5 1.3-5 2.6-6.3 5.2-2.4-1.5-5-2.1-7.5-1.3zm-4.4-41.3c3.4-1.1 8.1.1 9.7 3.7 2.6 5 4.9 10.5 7.4 15.7 3.1 5.5 5.4 11.6 8.3 17.3-1.9-.4-3.8-.4-5.8-.1.5-.9.9-2 .5-3-.6-3.9-2-7.4-3.7-10.7-1.4-2.1-3.5-5.3-6.5-4-2.6.8-3.4 3.5-5 5.5-1.8 1.3-4.2 2-6.3.9-.3 0-.9.1-1.3.1-2.4-5.8-5-11.5-6.2-17.6 2.1-3.4 5.3-6.3 8.9-7.8zm-20.9 11.8c-.1-1.1.3-2.4.9-3.4.4 1 .6 3.6-.9 3.4zm.8-12.7c-1-.3-2.5-.1-2.5-1.5-.4-3.5 0-7.3-.8-11-1 0-2 0-3 .1-.8-1.9 0-3.9.1-5.9.6 1 .8 2.4 1.6 3.1 1 .1 2-.6 3-1 .3-1.6.6-3.3 1-4.9.5 2.1-.1 4.5 1.3 6.3 3.3-1.3 3.1-4.8 3.9-7.6.8 3.3.6 6.8-.5 9.8-1.4.5-4.2.6-4.2 2.8l.1 9.8zm-6.4-9.8c1.1-.1 1.5 1.9.4 2s-1.8-2-.4-2zm-10.3-9.1c-1.5-1-3.4-2.1-4-4.2 2.2.2 3.1 2.4 4 4.2zm-106.4-133.5c-5.5 4.5-9.6 10.5-12.1 17-1.8-2.5-3.4-5.4-4.2-8.4-.4-2.9-.1-6.3 2.3-8.6 3.5-2.9 7.7-5.8 12.6-5.4.4 1.8.9 3.5 1.4 5.4zm8.9-17.9c.9 3.3 1.4 6.5 1.8 9.8-2.8 1.5-5.3 3.4-7.8 5-1.8-4.4-.9-9.9 2.4-13.6.9-.9 2.4-1.3 3.6-1.2zm33.3 2.5c2.1 1 2.8 4.2 2.3 5.7-.1.1-.6.3-.8.4-4.3-3.8-10.3-4.4-15.7-4.8-2.3-5.2-4.4-10.1-6.8-15.2 5.2-3.1 10.3-6.7 15.6-9.9.6 3.7 1.5 7.1 2.5 10.5-1.6 1-3.4 1.3-5.2 1.9-.9-1.1-1.5-2.5-2.8-3-1 2 1.9 4.3-.4 5.4-1.9.1-2-2.6-2.8-3.8-.9.3-1.4.5-2.1.8.5 2.3 2 4 2.4 6.3 1.4 1.5 2.4 3.4 3.3 5.3.1 1 1.3.8 2 .9.5-1.1 1.8-1.6 2.8-1.9.8 1.6 1.6 3.5 3.8 3-.8-1.3-1.5-2.8-2-4.2.5-1.1 1.1-2.4 1.6-3.4-1 .3-2.3.5-3.3.6-.4-1-1-2.3-1.4-3.3 1.1-1.4 2.5-2.8 4.2-3.8.8 4.2 3.4 8.3 2.8 12.5zm-9.3-2.6-1.6-3.3c.9-.6 1.5-1.1 2.3-1.6.6 1.1 1.3 2.3 1.6 3.5-.7.4-1.5.9-2.3 1.4zm57.1-38.5c1.9 4.8 4.2 9.3 5.5 14.4-1.9 1.4-3.3 3.3-4.5 5.2-1.5.9-3.1-.4-4.8-.8-3.7-1.3-7.8-1.4-11.5-3 1.6-2.9 3.5-5.7 4.9-8.7-3.8 1.4-4.7 5.8-7.4 8.3-4.8-.3-9.6-1.3-14.4-.4.1-2.5 2-4.7 2.6-7.2-3.3 1.3-3.8 5.4-6.5 7.6-3.9.3-8.1.6-12.1.8-.3.9-1.9 2.1.1 2.5 3.8.3 7.6-.5 11.3-.6-2.6 6.4-5.4 12.7-7.4 19.3-2.5-6.9-4.2-14-5.8-21h1.4c2.4-2.3 4.5-4.9 7.6-6.3 4-2 8.1-4.5 12.6-5.9 4.7-2 9.6-2.5 14.5-3.4 4.7-.6 9.3-2.3 13.9-.8zm-6.3-3.8c-2.3.8-4.7 1.3-7.1 1.4-.1-.3-.1-.5-.1-.6 2.3-.6 4.7-.8 7.2-.8zm-37.8 41.4c1.4.3 2.9-.5 3.5-1.6 2.5-5.9 4-12.3 7.1-18.1 4.8-.4 9.4-.4 14.2.6-.5 1.1-1 2.4-1.6 3.4-3.4 5.7-5.4 12-8.2 17.9-4.9-.4-9.7-.3-14.6-.5-.1-.7-.2-1.3-.4-1.7zm26.9-18.5c5.7.6 11.2 2.1 16.5 4.5-1 2-2.3 4-3.3 5.9-.3 1.1-.6 2.3-1 3.4-.1.3-.6.8-.8 1-.8.8 0 2-.8 2.8-1.4 1.6-2 3.7-2.5 5.7-5.4-.9-11-1.8-16.4-2.6.8-3 2-5.8 3-8.7.7-4.3 3.6-8 5.3-12zm-9.2 23.3c5.7 0 11.2 1.6 16.4 2.4-.3 1.9-.6 3.7-1.1 5.5-.6 1.8-1.1 3.4-1.6 5-1.4.4-2.9.9-4.3 1.3-4-1.9-8.6-2.1-12.8-2.8.6-3.8 2.1-7.6 3.4-11.4zm-6.9 11c-1.9-.6-3.7-1.3-5.5-1.6.1.8.3 1.8.4 2.5-1.9-1.8-3.8-3.4-5.7-5.3.8 0 1.6.1 2.4.3 1.4-2.3-.6-4.8-1-7.2 4.5 0 8.8-.1 13.3 0-1.4 3.7-2.4 7.5-3.9 11.3zm-17.4-40.7c.1-1 1.4-1.9 2.3-1.6.8 1.1-1.6 3.1-2.3 1.6zm-1.5-22.1c0-3.3.5-6.4 1.3-9.6 2.1-.1 4.5-.3 6.8-.4-1.8 3.3-3 6.7-4.3 10.1-1.3.1-2.6-.1-3.8-.1zm12.1-10.7-.4 1.8c1.9-1.9 5-.6 7.4-.8-1.1 3.4-3.3 6.5-4.3 10.2-2.4-.3-5-.4-7.6-.4l1.9-5.7c.7-1.9 1.1-4 3-5.1zm4.5-20.1c2.9 2.6 6.4 4.4 9.1 6.4 8.9 7.2 16.1 16.1 21.5 25.9-6.8-.5-13.3 1.8-19.9 3.5-9.6 2.1-18.5 6.7-26.6 12.3-.8-5-1.4-9.9-1-15h3c-.5 1.9-1.1 3.8-1.3 5.8 3.1-.3 3.3-3.7 4.5-5.9l7.9-.3c0 1.5-1.6 4.4.8 4.5 2.1-.9 1.9-4.5 4.9-4.2-.5-.6-1.8-1.5-1.3-2.5 1-3.1 2.3-6.4 3.5-9.7 2 .3 3.8.1 5.7-.1-1.5-.9-3-1.5-4.7-1.9 1.3-2.6 2-5.3 2.5-8.1-2.6 2-4 5.2-5.9 7.7-2.3-.1-4.5-.3-6.9-.4.4-1.4.6-2.6 1-3.9-.4-.6-.5-1.1-.8-1.6-1.1 1.9-2.5 3.7-3.9 5.4-2.3-.3-4.7-.3-7.1-.1 0-2.8 1-5.4 1.9-7.9 6.5-.6 13.3-.1 19.9.1l.4-.6c-2-1.6-4.9-1.6-7.4-2-3.8 0-7.6-.3-11.2-.1.6-3.8 2.8-7.4 5.8-9.9 2.1.8 3.9 1.3 5.6 2.6zm25.7-78.6c-.8 1.4-1.4 2.9-2.1 4.2-.5-1.8-.8-3.5-.9-5.4l3 1.2zm5.4-16.3c1.1-.4 2.1.3 3.1.4-.6 1.6-1.8 3.3-2.8 4.5-.2-1.7-.9-3.3-.3-4.9zm11.3-19.3c2.6-.5 4.3 2.4 5.9 3.7-2.1 1.3-4 2.6-5.8 4.5-.1-2.8-.6-5.4-.1-8.2zm25-.4c-1.6 0-3.1.1-4.8 0-.4-2.8 0-5.8 1-8.3 1.6 2.6 2.6 5.5 3.8 8.3zm19.8 2.8c-2-.4-3.8-.8-5.7-1 1.4-2 2.6-4 3.7-6.3 1.7 2 1.4 4.9 2 7.3zm18.4 10.9c-2.1-1.8-4.4-3.7-6.9-5 1.8-2.8 2.5-6 4.8-8.4 3.1 3.5 2.3 8.9 2.1 13.4zm-2.7 73.1c-.1-.4-.6-1.3-.6-1.9 2.1-.4 4.2-.6 6.4-.8-.6 1.3-1.4 2.6-2.5 3.7-1.3.7-2.5-.3-3.3-1zm-10.9-3.3c2 .6 4.3.9 6.5 1 0 .3.1.6.1.8-.3.8-.6 1.3-1 1.9-1.3.3-2.8.6-3.8-.4-.8-.9-1.3-2-1.8-3.3zm-.6 31.3c-.6-3.1-1-6.2-1.4-9.2 4.5 2 9.6 1 14.2-.3 5.4-2.1 10.1-6.5 16-7.6 4-.9 7.8.6 11.2 2.3 2.5 1.6 5.8 3 6.3 6.3-3.1-.9-6.5-2.3-9.9-1.3-.4 2.5 2.1 4 3.3 5.9-3.1-.3-6.3-2-9.4-1 .3 2.9 2.8 4.5 4 7.1-2.4.3-3.5-2-5.2-3-2.1-1.5-4.7-3.3-7.4-2.3-4.7 1.5-9.3 3.4-14.5 3.4-2.4.1-4.7-.6-7.2-.3zm-2.9-25.9c-1.5 5.3-2 10.8-2 16.4.1 4.4 1.3 8.6 1.8 13.1-3.1-3.3-6.8-6.4-11-8.4-1.8-.3-4.7 1.1-3.7 3.4 1.9 4.4 5.2 8.2 8.1 12.1-1.6 1.8-3 3.5-4.3 5.7-2.1-.3-4.2-.4-6.2-1-5-1.4-10.2-1.8-15.2-3-1.5-.5-3.1-.8-4.8-.4-4.9 1-9.8.6-14.7 1.4.4 4.5 1.3 9.1 1.6 13.7.5 3.7.4 7.3 1.3 10.7.6 2.3.9 4.5 1 7.1-1.5-3.7-2.8-7.6-4.8-11.1-3.5-5.3-7.3-10.7-11-16-4.5-5.4-9.6-10.7-15.5-14.7.6-7.7 1.4-15.4 2.8-22.9 3.1-20 7.9-40 16.5-58.4 2.8-6.4 6.8-12.1 10.6-17.9 2.5-3.5 4.9-7.1 8.1-9.9 1.6-1.3 2.8-3 4.8-3.8 4.3-1.6 8.8-2.6 13.3-2.4 16-.3 32.1 6.4 43.2 18.1 9.6 10.3 17.1 22.8 19.3 36.9.5 4.3 1.1 8.9-1.1 12.8-1.3 2.4-3 4.4-4.9 6.3-2.9 2.6-6.9 3.5-10.6 4.7-1.9 1.4-4.5 2.6-6.7.8h-.3c-5.3-.3-10.6-.8-15.7-2-12.7-2.4-22.7-11.1-33.4-17.9-.8.3-1.3.6-1.9 1 .1.5.4 1.4.5 1.8-1.3 2.9-1 6.4 1.1 8.8 1.6 1.1 3.7.5 5.5.1.8 2.4 2 4.5 3.3 6.7 2 .1 4 0 5.8-1.1 1.1 2.1 2 4.8 4.5 5.7 1.9 1 3.8-.1 5.4-1.1 1.4 2.4 3 4.7 5.5 5.7 1.3-.2 2.7-.7 3.8-1zm.1-5.8c-.5 1.4-1.5 2.8-2.3 4.2-2.5-.9-3.8-3.4-4.5-5.8 2.3.5 4.6 1 6.8 1.6zm-12.8-.2c-2.6-.4-3.3-3.3-3.7-5.4 2.4.5 4.3 1.8 6.3 2.9-.8.7-1.5 2-2.6 2.5zm-6.9-7.6c-.6 1.5-2.1 2.4-3.4 2.9-1.5-2-2.1-4.3-2.5-6.8 2 1.1 4.1 2.3 5.9 3.9zm-9.2-6c-.4.9-.6 1.8-1.1 2.5-2.9-.5-3.3-3.7-3-6.2 1.3 1.1 2.8 2.3 4.1 3.7zM1198 509c-.4-2.6 1.6-4.9 3.7-6.2-.9 2.3-2.3 4.4-3.7 6.2zm-58.5 76.6c-1.4-5.8-1.6-11.7-2.1-17.5-.4-18 .8-36.4 7.4-53.4 1.6-3.9 3.5-7.9 6.5-11-1.3-5.2-5.5-8.6-7.8-13.3 4.8 1.9 7.8 6.3 11.2 9.9 1.4 1.8 4 .9 6 1.4 7.4 1.8 15.1 2.4 22.3 4.7 4.8 1.1 9.3 2.9 14.1 4.2 0 5 .9 9.8 1 14.7 0 5.2-.1 10.5.3 15.7-1.1-1.1-2.5-2-3.9-2.4-.3.5-.5 1.4-.6 1.8 1.3 1.5 2.8 3.3 5 2.8.5 8.7 1.1 17.5 1.9 26.2-3.4-.1-7.1.3-10.2 1.6-2.6 1.4-5.4 3.5-5.7 6.8-.4 5.4-.4 11.1.4 16.5-1.9-.3-3.8 0-5.4 1-1.5-4.9-2.3-10.6-6.8-13.7-3.3-2-7.1-3.5-10.8-3.9-6.9-.6-13.2 3.4-18.3 7.9-1.4 1-3.1.1-4.5 0zm-4.7-14.7c-1.5-.3-3-.8-4.7-.8-2.4-15.9-4.9-31.6-6.2-47.5-.4-5-1.4-9.9-1-15 3.1.4 6.4 1 9.7 1.4 3.3.5 6.4 2 9.7 1.9-.5 3.9-2.3 7.3-3 11-2.3 8.4-3.7 17.1-4.5 25.8-1.8-.4-3.4-.8-5.2-.9-.9-.4-2 .4-1.8 1.4 2.1.9 4.5.5 6.9.6-.1 2.9-.3 5.8-.5 8.6-.9-.1-2-.3-3-.3.1.5.1 1.3.3 1.6 1 .3 1.9.6 2.9.9.1 3.7.3 7.6.4 11.3zm-17.7-6.3c-2.3-5.2-3.1-10.7-5.3-15.7-2.9-6.4-2.5-13.6-4.2-20.3-.9-6.9-1.5-14.1-2.5-21 5.2-.3 10.1-.9 15.1-1.6.5 3.9.1 7.9.9 11.8 1.1 5.9.9 12 1.9 17.9.5 3.7.4 7.4 1.4 11.1-2.1-.5-4.3-.8-6.2.5 1.1 2.1 3.7 1.8 5 .1.5.4 1 .6 1.4 1 .3 7.2 2.1 14.4 2.9 21.5-2.6 1.1-4.9 2.9-7.2 4.8-1.1-3.3-1.8-6.8-3.2-10.1zm-7.8 16c-4.3-2.1-8.8-3.3-13.1-5.7 1.5-6.4 3-13.1 6.5-18.8 1.9.3 3.5 1.3 5.2 2 .5-.3 1.4-.8 1.8-1-.6-2.4-3.4-2.4-5.2-3.7.9-2.3 2.3-4.5 3.3-6.8 3.4 7.2 4.9 15 7.9 22.2 1 4.2 3.1 8.2 2.9 12.7-1.1 1-2.3 2.1-3.7 2.3-2-.7-3.7-2.2-5.6-3.2zM1092 588l1.3-3.5c.9-2.1 1.3-4.3 2.3-6.3 3.3.9 6.4 2.6 9.7 3.8-.9.4-1.4.8-2.1 1.1-2.8 1.1-4.9 3.5-6.3 6.3-1.7-.5-3.2-1-4.9-1.4zm-5.6 13.4c-2.3 3.5-1.4 7.9-1.5 12-7.2-8.4-12.6-18.1-20.3-26.3l3.3.8c.5.6 1 1.3 1.4 1.8.9-.5 1.8-.8 2.8-.9 3.7.5 7.2 1 10.7 1.9-1.8 2.3-3.7 4.4-4.7 7.1.3.3.9.6 1.3.8 2.4-1.6 3.9-4 5.8-6.2.8.1 1.6.3 2.4.4.4-.8.8-1.3 1.1-1.9 2.3.3 4.4.9 6.5 1.9.4 1 .5 1.9.8 2.9-1.6.6-2.9 2-3.7 3.7-2.3-.3-4.7-.2-5.9 2zm-70.6 80.9c-5.5-12.7-11.3-25.4-14-38.9-1-7.2-2-14.5-1.6-21.7.1-11.2 5.5-21.9 13.9-29.3 5.7-5.8 12.5-10.7 20.5-12.3 5.2-1.5 10.3-.5 15.4 1.1-.5.3-1.3.9-1.6 1.3.3.6.9 2.1 1.1 2.9-1.5 0-3.1.1-4.5.8.6.8 1.1 1.3 1.6 1.9-1 .8-2.1 1.9-2.9 2.9.9 1.4 1.4 3.1 2.5 4.2 2.3.4 3.9-1.8 5.2-3 2.6 1.5 6 3.1 6.8 6.4.5 1.9-1.5 2.9-2.8 3.7-3.1 1.6-6.2 3.5-9.8 4.2-1.3 0-1.9 1-2.5 1.8.5.5 1.4 1.3 1.8 1.6 4.5-.6 8.4-3.3 12.3-5.2 2.4-1.6 5.2-4.3 4.5-7.4-2.1-3.9-5.8-6.9-9.9-8.6.9-2 1.3-4.3.3-6.5 5.3 3.5 9.9 7.9 14.1 12.8 5 7.1 10.1 14.4 15.7 21-2.9 3.7-5.8 7.8-5.7 12.8 0 9.8 0 19.9 1.3 29.7 1.9 11 3.1 22.3 5.9 33.2.1.5.3 1.4.4 1.8-3.3.6-6.4 2.1-8.8 4.7-1.9 2.3-2.5 5.2-2.9 7.9-2.9 1.8-5.3 4.4-6.5 7.4-1.6-1-3.4-1.5-5.3-1.8-.1-3.1-2.4-6.2-5.7-6.5-6.3-1.5-12.5 3.4-14.1 9.4.5.5 1.6 1.4 2.3.4 1.6-1.3 2.8-3 5-3.1 1.9 0 4.8 1.1 4.2 3.7-.9 3.8-3.9 6.5-6.8 8.9l.3-2.8c-7.9-6.8-14.6-15.1-20.7-23.5-3.3-5.2-6.4-10.3-9-15.9z"/><path class="st1" d="M1104.9 583.2c.6 0 1.1.1 1.6.1-.5-.1-1-.1-1.6-.1zm65.7-142.1c-.8 1.5 0 3.1 1.8 3.5 1.8.6 2.1-1.4 2.8-2.4-.9-.9-1.8-1.6-2.8-2.3-.5.1-1.3.8-1.8 1.2zm-74.2 22.1c-1.8.3-3.1 1-4.5 2-.4-2 .4-4.5-.9-6.2-2.4 2.4-1.8 6.3-1 9.3 2.5 1.3 4.5-1.1 6.4-2.4v-2.7zm13 7.9.3-3.3c-2 .8-3.5 2.5-5.3 3.7l-1-2.8c-3.5.3-1.5 5.8 1.3 5.4 1.9.4 3.4-1.7 4.7-3zm29 8.6c1.8-1.1 2.6-3.4 1.6-4.7-2.1-3.4-6.2-4.5-9.7-5.7-5.4-1.8-12 .4-15.2 5.2-1.8 2.6-2.9 6.5-6.3 7.8-2.9.5-5.4-1.5-7.9-2.5l.1 1.8c-.3-.1-.9-.6-1.3-.8l-.5 1c2.9 2 6.4 4.4 10.1 3 3.3-1.9 5.9-5 7.8-8.3 2.3-4.4 8.4-6 13-3.9 2.8 1.3 6.7 1.9 7.6 5.2-.9-.5-1.8-.9-2.6-1.3-1.5.4-4 .3-4.3 2.5 1.3 2.4 3.1 4 4.5 6.3-1.9-.6-3.4-1.8-5-2.8-.9.6-2.8.9-2.5 2.5 1.1 2.3 2.6 4.5 3 7.2-3-.8-4.5-4.3-7.8-4.3-4.3 1.4-7.3 5.2-11.8 6.4-3.7 1.6-7.4-1.3-11.2-.8-1.4.1-2 2-.4 2.4 3.9 1.4 8.6 2.6 12.7 1 3.7-1.6 7.1-4.2 10.2-6.8 2.6.9 4 3.7 6.8 4.2 1.3.4 2.6-.4 3.9-.5.4-2.8-.6-5.3-1.9-7.6 1.9 1.3 4 .9 5.9-.1 1.1-1.3 0-2.6-.5-3.8-1.1-1-2.1-2.3-3-3.5 1.4.4 3 1.7 4.7.9zm-30.8 32.1c.4 1.3 1.1 2.1 2.6 2.4.9-.6 1.8-1.5 2.5-2.3-1.7-.5-3.3-.3-5.1-.1zm6.6.3c.9.6 1.6 1.3 2.4 2 .5-1.1 1.8-1.5 2.8-1.6-1.7-.6-3.5-1.4-5.2-.4zm2.9 26.2c-1.1-.4-2.4-.4-3.5 0 0 .6.1 1.5.3 1.9 1.3 0 2.4-.7 3.2-1.9zm49.3 276.9c-1.1.3-2.1.6-3.1 1.3.3 1 .4 2.3.6 3.3 2.4 2.9 5.8 4.4 9.2 5.4 4.8 1.8 10.3 2.9 15.2.9 4.3-1.4 7.3-4.9 10.6-7.8 4 2 8.2 4 12.8 3.3 3.8-.4 6.4-3.1 8.9-5.9 3 1.1 6.3 1.5 9.4.9.6-1.1 1-2.4.3-3.5-2.6.8-5.3.9-7.8-.1.3-1.4 1.1-2.9.1-4.2-.9.1-1.9.5-2.8.8-1.4 3.7-3.8 7.1-7.4 8.4-3.7 1.8-8.1-.4-11.5-2.3 1-2.6 2.6-5.4 1.4-8.2l-2.3.4c-.5 6-5.7 10.2-10.2 13.9-5.8 3.8-13 2-18.6-.8-2.1-1.3-5.3-2.7-4.8-5.8zm-47.2-297c-2.6-1.1-4.9 1.3-7.6 1.1-1.4-.3-.4 1.6-.4 2.5 1.3-.3 2.5-1 3.5-1.9 1.9 1.6 3.6-.1 4.5-1.7zm13.4 21.7c-1.4.1-4.4-1.8-5.3.1 1.3 1.1 3.3 1 4.9 1.3 1.1 0 2.6.6 2.4-1-.5 0-1.3 0-1.6-.1-.1-.8-.3-1.8-.4-2.5.9-2-.9-5.3 1.9-5.9-.5-.3-1.4-.8-1.8-.9-.6-2.8-.6-5.4-.6-8.2 1.6-.4 3-.6 4.7-.8-1.8-.1-3.4-.3-5-.4-.3-1.5-.4-2.9-.8-4.5-.8 1.3-.4 2.8-.4 4.2-1.9 0-3.7-.3-5.5-.4.3 2.5 3.7 1.5 5.4 1.9.6 2.6.8 5.3 1 7.9-1.8-.3-4-1.6-5.4.1 1.8.6 3.5.8 5.3 1.1 1.2 2.4.7 5.5 1.2 8.1zm26.9-16c2.4-.8 3.5-2.9 4.2-5-.6-1-1.3-1.9-1.9-2.9-.9 1.4-1.8 2.8-2.5 4.2-.6-1.3-1-2.8-1.9-3.8-.6.8-1.3 1.3-1.8 1.8.6 2.1.9 6.1 3.9 5.7zm-42.2 5.7c.9-.6 1.9-1.5 2.8-2.3-1.3-.1-2.5-.1-3.8 0 .3.8.5 1.4 1 2.3zm-2.5-.7c-1.8-.3-3.4-.5-5.2.1.5 1.4 1.8 2 3 2.1 1-.8 1.5-1.4 2.2-2.2zm75.6 7.1c.6-3.4.5-6.9 0-10.2.6.3 1.5.5 2.3.6 1.5-.6 2.6-2 3.3-3.7-.3-1-.6-2.3-.9-3.3-.6.6-1.3 1.1-1.8 1.6-.4 1.1-.9 1.9-1.8 2.5l-1.6-2.8c-1.3-.1-2.6-.4-3.9-.5-1 .5-1.9 1.1-2.8 1.8.4 1 .8 2.1 1.4 3.1.9.8 2.5.8 3 2 .5 2.1.4 4.4.4 6.7-5.3.5-10.8-.5-16-2.3-.6.6-1.1 1.5-1.6 2.3 3.3 1.8 7.2 2 10.8 2.8 3 .5 6.5 1.7 9.2-.6zm-41.1-2.5c1.3-.5 4.2-1.5 2.9-3.1-1.6-.9-3.9.6-5.2 1.6-1.3 1.6 1.2 2.6 2.3 1.5zm4.9 3.4c1.4-1.1-.3-2-1.4-2-1.6.8-3.1 1.9-4.5 2.9.1.5.6 1.4.9 1.8 2-.1 3.8-1.5 5-2.7zm-34.7 13.7c-1.9-.6-3.9-1.1-5.4.1.4.9.6 2 1.8 2 1.6.5 2.6-1.2 3.6-2.1zm32.3-.8c-.9 1 .4 1.9 1 2.6 2.5 2.5 6 4.2 9.4 3.7 3.7-1.8 7.1-3.8 10.5-5.7 5.7.1 11.1 2 15.7 5 1.5 1.1 3.4 2.3 4.3 4.3-1.8.4-3.5 0-5.4-.4-1.3 1.4-1.8 3.3-2.9 4.9-2.8 1.3-5.7-.6-8.4-.1-5 1.3-10.5 1.1-15.2-1.3-.9.3-1.9.5-2.8.8.5 1.8 2.1 2.3 3.8 2.8 4 1.4 8.3 1.1 12.3.4 2.5-.5 5.2.6 7.7.5 2-.4 3.7-1.5 4.9-3.1.1-.9.3-1.8.4-2.5 2.8 1.3 5.8.6 8.2-1.3-.4-2-.8-4.4-2.5-5.7-5-3.9-11-7.1-17.4-7.4-5.2-1-9.3 3-13.6 4.9-2.4 1.4-4.7-.5-6.5-1.6-1.3-.6-2.7-1.9-3.5-.8zm41.2-6.5c-1.3 1.5-.3 2.6 1 3.7.9-.3 2-.6 3-.9l-1.6-1.9-2.4-.9zm-177.9 66.9c2.5 2.6 6 4 9.4 2.8.9-1.3 2-2.6 1.6-4.3-.3-2.4-2.6-4.4-5-3.4 0 .5.1 1.4.1 1.8 1.3.9 1.8 2.4.6 3.7-1.8-.8-3.5-1.9-4.5-3.7-.6.3-1.9.5-2.4.6.1.6.2 1.8.2 2.5zm178.8-26.7c1.9-.3 2.3-2.5 2.8-3.8-.4-.5-1-1.5-1.3-1.9-.9 1-1.8 1.9-2.6 2.9-.5-.5-1.3-1.6-1.6-2.1-.4.8-.8 1.6-1.1 2.4.8 1.2 1.9 2.8 3.8 2.5zm14.5-3.6c-.4-1.8-1.9 0-2.9.1-.8-.4-1.6-.9-2.4-1.3-.1.6-.3 1.9-.4 2.5 1.8 1.9 5.4 1.9 5.7-1.3zm-2.3 11.4c-.6-.8-1.1-1.3-1.6-2 .6-3.3-2.1-6-3.3-8.9-2 1.4-3.5 3.1-4.7 5.3.4 1.8 1.8 3.5 2.9 4.8 1.7 1.7 5.1 3.2 6.7.8zm-3.8-2.8c-1.5-.9-4.3-2.9-1.9-4.5.7 1.5 1.4 2.9 1.9 4.5zM1044.5 674c-1.1 4.3-5.9 5.7-9.1 7.9.1.5.4 1.5.5 1.9 4.2-1.8 8.2-4.4 10.5-8.3 1.9-5.2-1.3-10.6-2.3-15.7.5-4.7 5.9-7.7 10.5-6.9 3.8 0 7.2 2.4 9.6 5.2 2.4 3.9-.8 8.3-3.7 11 .9 3.7 2.4 7.4 2 11.3-.4 2.6-1 5.2-2.3 7.4-.6 1.6-2.1 2.8-2.3 4.7.3 1.4 2.3.6 2.8-.3 3.8-4.3 5.3-10.2 4.3-15.7 2.1-.9 4.7-1.5 5.4-3.9 1.4-2.9-1.8-4.9-3.1-7.1.4-3.3-1-6.4-1.4-9.6-1.5-2.1-3.8-3.7-6.2-4.7.8-1.8-1-3-1.8-4.3-1.1-1.6-1.8-3.7-3-5-1.4-.3-2.8.5-4.2.8-.5-1-.9-2.1-1.3-3.1 2.5-1.1 4.4-2.8 6.7-4.2 2.1-2.1 3.4-5.3 2.5-8.3-.4-3.5-3.5-5.8-6.5-7.1-4.9-.9-10.5-2.4-14.7.8-6.8 3.4-5.7 14.1.3 17.8 1.8 1 3.5 1.4 5.4 1.8l2.4 4.2c-.9.6-1.9 1.3-2.8 1.9.5 2.3 2 4 3.1 5.9-2.3 2.4-4.7 5.5-4.2 9.2 1.2 4 3.8 7.9 2.9 12.4zm23.5-2.5c-.8 1.3-2 2-3.3 2.5-.3-1.1-.6-2.5-1-3.7l2-2c1 1 1.8 1.9 2.3 3.2zm-12.5-40.6c-2.3 2.6-4.9 5.4-8.3 5.9-2.6-.1-5.5-.8-7.8-2.5-2.5-2.4-4-5.9-2.8-9.2 1.5-2.4 4.4-3.3 7.1-3.5 2.5-.1 4.9 1.4 7.2 2.4.5-.1 1.6-.1 2.1-.3 1.9 1.8 3.8 4.6 2.5 7.2zm-6.8 19.9c-.8-1.3-1.5-2.3-2-3.3 2.3-.9 4.7-1.6 7.1-2.5.9 1.8 2 3.5 3 5.4-2.7.2-5.3.2-8.1.4z"/><path class="st1" d="M1044.8 630.2c1.6 1.4 3.3-.5 3.1-2.3-.8-.1-1.6-.3-2.4-.4-.6.8-2 1.8-.7 2.7zm52.8 5.3c.1-2.3-1.3-4.3-1.3-6.4 1-2 3.8-2.8 5.9-2 2.3 1.6 3.7 4.4 5.9 6.2 1.9-4.5-1.8-10.3-6.5-10.7-3.3-.5-6.3 1.8-7.9 4.5-1.4 3 .1 6.3 1.1 9.3 1.1.1 2.3.1 2.8-.9zm50-16.9c2.1-.4 3.3 1.4 4.9 2.4 1.6.1 1-2 1-3-1.3-4.3-9.1-2.6-8.7 1.9.5 1.8.9 4 2.9 4.8 2.9-.9-.3-4-.1-6.1zm-15.3 5.5c-1.4.4-1.4 1.9-1.6 2.9 1.5.9 2.6 2.4 4.5 2.5 2.8.3 4.7-1.8 6.9-3 .1-1.1.9-2.8-.4-3.5-3.1-.4-6.6-.6-9.4 1.1zm4.7 1.3c2.3.5-.8 2.6-1.8 1.4-.9-1.1 1-1.6 1.8-1.4zm28.8 9.6c.1-2-.3-4.4-2.6-4.8-.6 1.1-1.3 2.5-1.9 3.7.5.9 1 1.9 1.4 2.8 1.1-.5 2.2-1 3.1-1.7zm-33.2 19c2.1-.9 4.5-1.4 6.3-2.8-.3-.1-.9-.4-1.1-.5.1-.5.3-1.4.4-1.8-8.4 3-17.1 6.9-26.3 5-.3.8-1.8 1.8-.6 2.6.5 1.1 2.1.8 3.1 1 6.1.4 12.4-1.1 18.2-3.5zm57.4 9.8c-.6 1.1 0 2.4 1 3.1 1.4-1.4 3.1-1.3 4.8-1.3 1-.6 1-2 .9-3-2.3-.4-4.8-.4-6.7 1.2zm-2.3 3.3c-1.9-.1-3.3 1-4.9 1.8.6.9 1.1 2.6 2.5 1.9 1.5-.6 3.9-2.2 2.4-3.7zm-11.1 2c-2.8.4-4.3 3.5-3.7 6.2.5 0 1.3.3 1.6.4.6-1 1.1-2.3 1.6-3.3 1.4.5 3.4.3 4.2-1.4.1-2-2.3-1.9-3.7-1.9zm-96.3 140.3c-1 5.9-1.8 11.8-1.6 17.5.3 9.8 1.1 20 5 29.2.9 2.3 2.3 4.2 3.9 6 3.1 2.8 6.7 5.5 10.8 6.4 4.7.9 9.4 1 14.1.3 4-.9 8.6-1.8 11.7-4.8 3.8-3 4.7-8.4 3.4-13-1.4-5.8-2.1-11.8-1.8-17.9 4.5 2.8 10.5 2.9 15 .1.1-1.6.9-3.7-.8-4.7-3.7-3.3-9.1-2.6-13-5.3 0-1.5-1-2.4-2.3-2.8-.8.6-1.4 1.3-2 1.9-.8 4.8-.5 9.4-.8 14.1-.1 2.9 0 5.7.3 8.6-.9-.1-1.5-.3-2.3-.4-.4 1.1-.6 2.4-.9 3.5-.9-1.3-1.8-2.6-2.8-3.7-.3 1-.5 2.1-.8 3.1h-3.4c0 1.6 0 3.3.8 4.5 1.4-.4 2.9-.9 4-1.6 1 .1 2 .4 3 .4 1.3-.5 2.3-1.8 3.1-2.8.8 4.2 2.9 9.1.1 12.8-5.2 4.4-12.7 4.9-19.3 4.8-7.8 0-14.7-5.8-17.4-12.8-4-9.7-4.4-20.3-4.5-30.5 0-4.3.9-8.6 1-12.8l-.6-.8c-.3.4-1.1.5-1.9.7zm58.2 22.4c-4.2 2.3-8.6.1-12.2-1.9 0-.9.1-1.9.1-2.8 3.8 1.9 8.8 1.5 12.1 4.7zm62.6-143.9c2-.8 2.9-3.4 1.5-5.4-.9-1.8-2.9-2.3-4.8-1.9 0 .9-.3 1.9-.4 2.8 1.2 1.6 1.5 4.1 3.7 4.5zm-96.6 38.5c-2-3.8-7.7-5.9-11.1-2.6-1 2.9 0 6 .8 8.8.9-.4 1.9-.9 2.6-1.4 0-2-.6-3.9-.8-5.8 2.4-.5 4 1.5 5.9 2.8 1.2.3 1.8-.9 2.6-1.8zm49.7 23.7c.3 1 .3 2.5 1.4 3.3 1.5 1.6 3.7.8 5.3 0 .8-2.1 1.1-4.2.3-6.3-.9.1-1.8.4-2.5.6-.4.9-.5 2-.8 3-.9-1.8-2.4-1.3-3.7-.6zm56.9-7.5c-2.3 1.3-1.4 4.5-1.5 6.7h1.6c.1-.5.3-1.3.4-1.6l1.6-1c.3.3.8.9 1 1.3.6-.5 1.6-1.3 2-1.6-1-1.9-2.4-4.8-5.1-3.8zm-85.5 26.6c-2.6.8-3.8 3.5-4.8 5.9-2.5 1-5.4 2.1-7.1 4.8-.5 1.3-.3 2.6-.4 3.9 1.9.5 2.5-2 3.8-3 1.9-2.4 5.5-2.4 8.1-1.1.9 1.5-1.8 2.3-1.9 3.9-.1 1.1-.1 2.4.8 3.3 1.5-.5 2.1-2.4 3.4-3.3 2.5-1.4 5.9 0 8.2-2 1.4-.5 1-2.5-.4-2.5-1.9-.1-3.9.3-5.8.4-1.3-2-3.3-3.1-5.5-4 .8-1.3 1.4-3.1 3-3.5 2.3-.6 4.2 1.1 6.3 1.6 1.5 0 1.6-1.5 1.9-2.5-2.9-1.6-6.3-3.9-9.6-1.9zm91.5-5.8c-1.3.9-3.7 1.5-3.4 3.3 2 1.1 4.2-.1 6-1 3.4-2.5 2.1-7.8 5.4-10.6.9-1.3 2.4-1.4 3.7-1.6.3 2.4-2.1 4.3-.3 6.5-.3 2.4-2.1 4.2-3.4 6 0 1 .5 1.3 1.4 1 2.9-2.1 4.7-6 3.9-9.7-.3-1.4.9-2.6 1-3.9-.4-1.1-1.3-2-2-2.8-2.5-.3-5.3.8-7.1 2.8-3.1 2.6-1.3 8.1-5.2 10zm48.6.6c.4-.9.9-1.4 1.3-2.1-3.8-2-8.6-2.4-12.6-.8-1.8.9-2.6 2.6-2.5 4.5 3.4-3.7 9.2-3.2 13.8-1.6zm-67.7 26.1c.6-.8 1.6-1.4 1.8-2.4-1.6-1-3.3-1.5-5-2.3 1.1-2 1.6-4.7 3.9-5.7 1.1-.8 2.8-.6 4.2-.9.3-.9 1.4-2.8-.5-2.8-5.3-.9-9.6 4.3-9.4 9.2-2 1.3-5.3 3.7-2.6 6 1-.9 2-1.8 3-2.5 1.6.1 3 1 4.6 1.4z"/><path class="st1" d="M1130 819.1c1.1 2 2.1 4.5 4.7 5 4 1.9 8.8 1.1 12.5-1.3 1.3-.9 2.4-1.9 3.5-2.9 1.9.3 3.8.3 5.7.4-.1.6-.3 1.5-.4 2.3l3.8-.5c0-.5-.3-1.8-.4-2.3 1-.8 2.1-1.6 3-2.5.5-1.1.9-2.5 1.3-3.7-2 .6-3.3 2.4-5 3.4-2.9 1.5-6.3.4-9.2-.8 1.3-2 2-4 2.5-6.3 2.4-.4 4.4-1.1 6.3-2.8 1.8 1.6 3.9 3.9 6.7 3.5 1.4 0 2.6-1 3.7-1.9 0-.4-.1-1-.1-1.4-1.9.1-3.5 1-5.2 0-2.9-1.1-4.3-4.3-5.2-7.1-.5.1-1.8.4-2.3.5-.6 1.4.3 2.9.5 4.3-1.6.6-3 1.8-4.8 1.4-2.4-.4-3.8-2.8-6.3-2.9l-.5 2.5c1.1 1.3 2.6 2.4 4.3 3-.5 2.1-1.4 4.3-3.3 5.5-1.1-.3-2.6-.9-3.8-.1 0 3.7 4.3 2.8 6.3 4.8-3.1 2-7.3 4.3-11 2.4-4.4-2.5-5.3-7.9-6-12.5l-1.6 1.6c-1.9 1.4-.6 3.9-.6 5.9-2.1.3-4.3.8-6.3 0-4.7-1.8-8.8-4.9-12.3-8.6 1.3-1.9 2.6-3.5 3.9-5.4 3.3 1.1 6.9-1 7.8-4.3-1.5.4-3.1.9-4.5 1.4-2.6-.9-4.8-2.8-6-5.2-.8.9-1.8 1.5-2.8 2 .5 2 1.9 3.5 3.5 4.8-1.6 1.9-3 4.3-5.3 5.5-2.6.6-5.2-.8-7.6-1.6.5-1.8 1-3.5.3-5.2-.5-.3-1.5-.6-1.9-.8-.3.9-.6 2.1-.9 3.1-2.4 2.1-5.3 3.4-8.1 4.5-.8 1-1.4 2.1-1.9 3.1 3.3-.3 6.3-1.4 9.2-3 3.3 2.6 7.6 4.2 11.7 3.1 4 4 8.7 7.4 14.1 9.3 2.6 1.7 5.5.5 8-.2zM1091.4 826c-.1.6-.6 1.6-.9 2.3 5.2.8 10.7 2 16.1 2 2.9.1 6.7-1.9 6.5-5.2.4-2.1-1.3-4-3.1-4.7-3.5-1.4-7.6-1.3-11.5-1.3-1.8 0-2.9-1.8-4.2-2.8-.3-.1-.9-.1-1.3-.1l-.5 2.5c.9 1.3 1.9 2.9 3.7 3.3 4.3 1.4 9.4-.5 13.3 2.1 1.8 1.8-1.5 2.6-2.8 3.1-5.1 1.1-10.1-1.5-15.3-1.2zM1226.1 798.7c2.6-1.8 6.7-1.1 8.6-4.2-.6-.3-1.5-.9-1.9-1.3-2 .8-4 1.3-6 1.8-2 1.3-3.4 3-4.5 5 .9.9 1 2.6 2.3 2.3.6-1 1-2.2 1.5-3.6zM1098.3 843.5c3.4-.9 4.9-4.8 8.6-5.2 3-1 5.8.5 8.6 1.8 1 .6 1.9-.6 2.8-1-.6-2.3-2.9-2.9-4.8-3.7-3.7-1.5-8.1-.1-11.3 1.8-2.2 1.5-5.1 3.4-3.9 6.3zM1097.3 854.3c1.8 1.3 3.7 0 4.9-1.1-.3-1-.5-1.9-.8-2.9-.4-.3-1.5-.9-2-1.1-.3.4-.8 1.5-.9 2-.4-.9-.9-1.9-1.3-2.6-.9-.1-1.8-.4-2.5-.5-.5 2.3 1 4.6 2.6 6.2zM1068.7 807.9c-19.9 0-43 .7-68.2 2.1-25.2 1.4-53.9 3.6-82.1 7-16.5 1.9-32 4.1-46.2 6.4.9-.1 2.5-.3 4.1-.5-55.9 5.9-109.7 9.8-165.4 15.1-4.1.4-7.6 1.2-7.5 1.6.1.5 3.3.4 7.7 0 54.3-5.2 108.2-9.1 163.1-14.9 6-.6 11.7-1.7 17.1-2.5 5.1-.8 9.8-1.4 15.2-2.1 9.8-1.3 20.9-2.5 31.4-3.6 21.3-2.2 42.3-3.6 61.2-4.6 22-1.1 41.9-1.7 59.5-1.7 6.5 0 16.9-2.2 10.1-2.3z"/><path class="st2" d="M1253.7 776.9c.2-6 .1-12.4-.9-18.3-1.4 2.4-2.6 4.5-4.1 6.9-1-.1-1-.2-2.1-.2-1.7-5.6-3.2-11.2-2.5-17.3-2.4.1-4.5.2-6.8.3 5.6-7.9 10.3-16.9 10.8-26.7.9-9.2 4.5-18.1 3-27.3-1.4-5.5-4.1-10.5-5.3-16.1-3.9-17.5-2.9-35.5-.9-53.1-3-3.9-8.7-3.2-13.4-4.1.3-.9 1-2.5 1.4-3.1-2.3-2.1-5.3-3.6-5.8-6.7-.1-.4-.2-1-.3-1.4-2.5-5.6-3-12.9-2.7-20.8-.5-10.7.2-21.7 2.8-32.2 2.1-6.6 5.2-12.2 9-17.5 1-1.5 2.3-2.9 3.2-4.3-.5-3.3-1-6.9-.9-10.4.1-.9-.2-1.4-.3-1.8.5-.2 1.1-.3 1.7-.3h.1c-.3-3.3-1-6.9-1.4-10.3 1.4 1.4 2.9 2.6 4.3 4 2.9 2.5 7.2-1.7 4.3-4.3-7.2-5.8-13.3-12.9-18.8-20.4-3.9-5.2-7.3-10.4-10.7-16-.3-1.4-.5-2.9-1-4.2.3-.5.5-1.4.3-2.5-.5-1.6-1-3-1.5-4.7-.2-1-.2-2.3-.2-3l-.5-.3c-1.7-7.2-2.9-14.5-3.2-21.7 3-8.5 7.4-16.7 9.5-25.5.3-1.4-.3-2.5-1.4-3.1 3-3 5.8-6.2 7.4-10.3 4.9-10.1 2.5-21.7 4.5-32.4.3-2.7 1.4-5.3 2.4-8-.3-.2-.5-.3-.9-.5.1-1-.1-1.8-.3-2.8-.1-.2-.2-.3-.2-.3-.9-1.1-1.4-2.7-1.8-3.6 0-.1-.1-.2-.1-.2s.1-.1.2-.1c-.1 0-.1 0-.2.1l-.3-.9c-.3-.4-.9-1-1.2-1.4-1-1-1.8-1.7-2.5-2.5-.8-.9-1.4-1.7-1.9-2.7-.3-1.7-.8-3.3-1-5.3-.5-1.4-1-2.9-1.4-4.4-1-5.5-.9-12 2.3-16.9 1.7-6.8 5.2-12.9 10.7-17.9.2.1.3.2.4.2-.2-.1-.2-.2-.3-.3 7.1-1.1 15.1-4.1 21.7-.1 3 1.5 5.8 3.2 9.5 2.7.9.3 2.5 1.4 3.2 1.7 2.4 3 4.5 5.8 6.7 9.2 23.1-11.5 50.5-15.2 75.6-9.5 1.4.9 2.9 1.4 4.9 1.4h.4c.5.2 1.4.3 1.9.4v-.7c1.6-.3 2.9-1.2 3.9-2.4 3.1-.8 5.3-2.9 5.9-5.6 4.5-3.6 9.5-6.6 14.7-8.6 5.8 1 12.7 1.8 16.9 5.8 1.1.2 1.9.9 2.5 1.7.3 12.5-2.3 24.7-4 37.3-2.1 2.6-4.4 5.2-7.2 7-3.1 2.3-.2 7.3 3 5.3 1-.8 2.3-1.4 3-2.4-.4 5.9.1 12.2 2.4 18 2.6 6.8 6.8 12.8 10.3 19.3.8 1.4 1.9 1.7 3 1.4 2.4 2.1 4.6 3.9 7.2 5.5 1.7.3 3.7.5 5.4 1 .1 1 .1 2.1.2 2.9.3.2.4.3.9.5 1.7 1.4 3.6 2.9 5.3 4.5 1.1 2.9 2.3 5.8 3 8.6l-.4-.3c.2.3.3.5.8 1 2.5 9.1 4.4 18.3 5.3 28.2-.8 6.8-.9 13.4.1 20.1-.2 1.6-.3 3-.3 4.5-.2 1.7-.3 3.2-.8 5.1-3.9 8.4-9 16.6-16.1 22.1-3 2.5 1.2 6.8 4.3 4.3.8-.5 1.4-1.1 2.3-1.7-5.2 6-11.2 12-13.4 20-.3 1.6.8 3.2 2.4 3.9-.2 1.7-.4 3.6-.5 5.3h.1c1 .3 1.8.5 2.9.9-.5 1-.8 2.1-.3 3.1 4.1 4.1 7.6 8.5 10.3 13.6 9.9 17.4 11.5 38.7 5.6 57.7-1.4 4.5-4.4 8-7.6 11.1-1.6 2.3-3.3 4.1-5.6 6 4.6 18.6 5.8 38.4 2.3 57.4-1.2 7.4-7.2 13.7-5.9 21.7-.2 12 5.3 22.8 8.4 33.9 2.1 7.6 4.9 14.8 7.3 22.4-2.4-1.9-4.5-4.1-6.8-5.8 0 4.5-.1 9-.3 13.4-2.8 4.4-3.9 9.5-4.1 14.7 6.6.2 13.2-.2 19 3.1 6.7 4.3 12.2 10.4 15.3 17.5 2.5 10.9 6 22.2 3.6 33.4-5.8 8.5-17 10-26.3 13.1-9.9 3.7-20.3 3.2-30.4 5.7-18 2.5-34.1-7.4-51.1-10.9-4.5-5.3-10.7-8.5-16-12.8-7.2 5.9-14.1 12.7-23.1 15.6-12.7 4.5-25.1 9.4-38.2 12.5-15.9 3.6-31.3-3.7-47-5.6-5.9-4-15.6-6-16.7-14.8-.1-11.4 3.3-22.7 7.7-33 7.2-9.2 19.4-15.1 31.4-14.7z"/><path class="st1" d="M1386.4 370.6c-10.1 5.8-21.7 7.1-32.7 8.3-4.1-10.1 4.5-8.5 8-9.9 10-2.1 19.4-6.8 28.5-11.5 1.6-1 3 .5 4.5 1.4.5 3.9-.2 7.2-1.8 10.3-2.2.8-4.5.2-6.5 1.4zm-17.8 103.9c.1-.1.1-.2.2-.3-.1.2-.1.3-.2.3zm-69.7 12.5c5.6 10.7 14.6 19.5 26.9 20.7 8 .4 15.3-1.7 21.6-5.6-6.7 5.1-14.7 7.6-23.7 7.2-12-1.2-21-9.6-26.7-20.1.7-.7 1.5-1.6 1.9-2.2zm-5.5 4.5c-.1-.2-.2-.3-.2-.5.5-.2 1.4-.3 1.8-.5-.5.1-.9.7-1.6 1zm66.9 1.7c-.8-.5-1.4-1.1-2.3-1.7.4-.8 1-1.4 1.5-2.4l.1.1c.9.9 1.7 1.6 2.7 2.4-4.1 6.7-9.4 12.4-16 16.9 6-4.1 10.6-9.4 14-15.3zm-25.2-2.9c-5.6-.3-12.2-.1-16.7-4.5 5.8-.2 13.2-1 16.7 4.5zm3.7-15c-11.2 1-22.4.5-33.4-1-2.8-.3-1.6-3.9 1.1-3.2 8.4 1.2 16.7 1.7 25.1 1.4 4.3-.2 8.5-.5 12.9-1.2 2.9-.3 6.8.2 6.7-3.9.3-2.3 4.6-1.2 4.2 1-.1 7.8-11.2 6.1-16.6 6.9zm-34.3-145.4c2.5-.3 5.2-.9 7.9-1-2.5 1-5.1 1.2-7.9 1z"/><path class="st1" d="M1206.4 455.6c2.4.9 4.5 1.7 6.8 2.5.3 9.5 4.2 18.2 5.2 27.5.9-.2 2.5-.5 3-1 3.6 5.2 6.9 10.7 10.5 15.9-.8.2-1.4.2-2.3.3-.3.3-.9.8-1.2 1 1.6.2 3.2.2 4.9.5 1 1.4 2.3 2.9 3.2 4.2.3 4.5 1.2 9 1.7 13.4h-.1c-.4.2-1 .3-1.7.3.3.4.4 1.1.4 1.9-.2 3.7.3 7.2 1 10.5-1.1 1.4-2.4 2.9-3.2 4.4-4 5.5-7.1 11.4-9 17.8-2.6 10.7-3.2 21.7-2.5 32.6-.3 8 .3 15.4 2.9 21 .1.4.2 1 .3 1.5.5 3 4 4.5 5.8 6.7-.3.9-1 2.5-1.4 3.1 4.5.9 10.4.3 13.4 4.1-2.1 17.8-2.7 35.9 1.1 53.5 1.4 5.6 4.1 10.7 5.4 16.1.9 5.6-.1 11-1 16.5-2.1 6.2-3.1 12.3-3 18.8-1.8 7-5.4 13.4-9.5 19.4 2.4-.1 4.5-.2 6.9-.3-.5 5.8 1 11.8 2.7 17.4 1 .1 1 .1 2.1.2 1.2-2.5 2.5-4.6 4.1-7 1 6 1 12.5 1 18.7-12.2-.3-24.5 5.6-32.7 14.4-4.2 10.7-7.6 22.1-7.6 33.4.9 8.5 10.7 10.9 16.8 14.8 15.6 1.8 31.3 8.7 47.4 5.3 13.1-3.1 25.7-8.4 38.4-12.8 9.1-3 16.1-10 23.2-16.1 5.5 4.2 11.7 7.6 16.1 12.8 17.3 3.2 33.7 13.2 51.6 10.7 10.1-2.5 20.8-2.4 30.8-5.8 9.2-3.2 20.4-4.9 26.5-13.4 2.5-11.4-1.1-22.8-3.9-33.7-3.2-7.2-8.7-13.4-15.5-17.6-5.8-3.2-12.7-2.9-19.3-3 .3-5.2 1.4-10.3 4.1-14.8.2-4.5.3-9.1.3-13.6 2.4 1.9 4.5 4.1 6.8 5.8-2.5-7.4-5.6-14.8-7.6-22.4-3-11.4-8.6-22.2-8.6-34.2-1.4-8 4.9-14.2 5.8-21.8 3.7-19.3 2.5-39.3-2.5-57.9 2.3-2.1 4.1-4.1 5.6-6.2 3.1-3.1 6.4-6.8 7.6-11.2 5.8-19.1 4.1-40.8-5.8-58.2-2.7-5.2-6.6-9.5-10.5-13.6-.3-1.2-.2-2.4.3-3.1-1-.3-2.3-.5-2.9-.9 0 0-.1 0-.1-.1.4-4.7 1.2-9.5 1.7-14.1 2.3-2.5 4.2-4.9 6.2-7.3l2.9-.3c-.3-.3-1-.9-1.4-1.4-.1 0-.1 0-.2-.1 2.1-2.5 4.1-5.1 5.7-7.7 6.8-16.1 11.1-33.2 10-50.7 1-.1 3-.1 4.1-.2-1.8-11.4-5.8-22.4-12.7-31.8 2.7 1.5 5.5 2.9 8.3 4.3-3.9-7.2-10-12.4-16.1-17.5-.3-.2-.4-.3-.9-.5l-.2-3c-1.7-.3-3.9-.5-5.5-.9-5.8-4.1-11.8-8.3-14.7-15-2.7-6.4-4.5-12.9-6.8-19.6h.2c-.3-.9-.3-1.7-.3-2.6.1-.9.2-1.7.3-2.5.1-.3.2-.5.3-.9-.9-1.1-.9-2.6.2-4.1 7-9.4 11.2-22.9 9.4-34.4-.5-4.1-2.3-7.6-4-11.2-.9.1-1.6.2-2.5.3-.2-1.7-1.4-3.1-3.2-3.7-4.5-4.1-11.4-4.9-17.3-5.8-5.2 2.5-10.3 5.3-14.7 8.7-.9 2.7-2.9 5.1-6 5.7-1 1-2.4 1.8-4 2.4v.8c-.5-.2-1.4-.3-1.9-.4h-.4c-1.9 0-3.7-.4-5.1-1.4-25.5-5.6-53-1.7-76.2 10-2.4-3-4.5-5.9-6.8-9.2-.9-.3-2.5-1.4-3.2-1.7-3.6.5-6.7-1.2-9.6-2.6-6.8-4-14.8-1-22.1.2.2.1.2.2.3.3-.2-.1-.3-.2-.4-.2-5.6 4.9-9.1 11.2-10.7 18.2-2.9 5.1-3 11.5-1.9 17 .3 1.6.9 3 1.4 4.5.3 1.7.5 3.6 1 5.3.5 1 1.4 1.8 2.1 2.7.4.5 1.5 1.4 2.5 2.5.4.4.9 1 1.2 1.4l.3.9c.1 0 .1 0 .2-.1l-.1.1c.1.1.1.2.1.2.3.9 1.1 2.5 1.9 3.7.1.2.1.3.2.3.3 1 .3 1.8.3 2.8.3.2.5.3.9.5-1 2.5-1.8 5.2-2.4 8-1.9 10.8.3 22.4-4.5 32.7-3 7.4-10 12.2-14.8 18.3l6.4-.3c-2.3 3.6-4.1 7.2-5.6 10.9-1.1 9.1-4.2 20.8-3.7 30.2zm198.9-141.8v-.2c.1 1.6-.1 3-.3 4.7-.1-.3-.1-.9-.2-1.2-.4-1.2-.3-2.4.5-3.3zm6.6 67.3c-3.9-.5-7.3-1.4-11.1-1.7-5.2-.5-10.4-1-15.6-.5-6.8.3-13.4 1.6-20.1 2.7-6.8 1.2-13.3 3.2-20.1 4.6-4.5 1-25 3.3-29.7 3.6-1-.1-1.9-.1-2.9-.2-8.5-.5-16.8-2.4-25.1-3.7 2.4-.5 4.5.3 6.8-.1 2.4-1.9 3.9-4.5 3.9-7.2-1.4-.9-2.6-2.4-4.5-1.7-10.3 1.9-20.6 4.1-31.2 3.9-3.7.3-12-2.3-10 5.3-2.1.3-4.1.8-5.8 1.1-5.1 1.1-9.6 3-14.7 4.1-.5.1-1.1.2-1.7.3 2.5-10.5 1.6-22.6 4.5-32.9-.1-.9.2-1.7.8-2.5s.9-1.4 1.1-2.3l-.9-1.7c1.8-1 3.9-2.5 4.6-3 1.6-1 3-2.4 4.6-3.2 1.4-1 4.2-2.4 4.9-3.9l.3-.9c-.2-.4-1.2-1.4-2.3-2.1.1.1.1.2.2.2-.2 0-.4.1-.9 0-1.7-1-3-2.3-4.2-3.7.5 1.4 1.5 2.5 2.5 3.9-.5 0-1.2-.1-1.7.1-2.3-1.4-4.1-3.1-5.6-5.4-1-1.1-1.6-2.5-2.5-3.9.2 3 1.7 5.8 2.9 8.5-6.2-5.2-8.5-13.4-9.4-21-.8 3.2-.2 6.9.1 10.3-2.4-5.2-2.4-11.1-1-16.7-.2-.4-.2-1-.3-1.5-.2.2-.3.3-.3.5 1.4-3.1 3.9-5.9 7.1-8.2 1-.8 2.4-.9 3-.4 8.2-3.9 20.3-1 26.5 5.8.9.3 1.7.5 2.5 1 .5.2 1 .4 1.4.9.3-.5.5-1.2 1-1.7 1 3.3 2.5 6.8 4 10 .5-.5 1.6-1 2.7-1v-3.4c5.8-3.9 12.7-5.6 19.6-6.6.3.3.5.9 1 1.2 1.7-1.4 3.9-2.5 6.4-3 1.2-.3 2.5-.3 3.9-.4l-.3-.2c16.6-4.1 34.1-4.5 50.3.3.2 1.4.4 2.5.8 3.9.5-.4 1.6-.9 2.6-.9h.3l.9-2.8c1-.1 2.9-.3 4-.3.2-1 .4-3.2.5-4.4 5.8-5.3 11.8-13.4 20.8-12.7 3.9-.3 7.1.9 10.1 2.6-.2.1-.2.2-.3.3-.3.1-.9.1-1.4.1 1.5 1.7 2.9 3.9 4.1 5.6 0 .2-.1.3-.1.3.9 1.4 1.5 2.9 1.7 4.5-.5-1-1.2-1.8-2.1-2.6-.2.4-.2 1-.3 1.5 1.1 5.6 1.2 11.4-1 16.7.2-3.3.9-7 .1-10.3-.9 7.6-3 16.1-9.4 21 1.2-2.8 2.6-5.6 2.9-8.5-1 1.2-1.6 2.5-2.5 3.9-1.5 2.3-3.3 4.1-5.6 5.4-.5-.2-1.1-.1-1.7-.1 1-1.1 1.8-2.5 2.5-3.9-1.2 1.4-2.5 2.6-4.2 3.7h-.9c.1-.1.1-.2.2-.2-.9.5-1.9 1.5-2.3 2.1l.3.9c.5 1.5 3.6 2.8 4.9 3.9 1.6 1.1 3 2.4 4.6 3.2 1.6 1 5.6 4.1 7.9 4.3-.5.5-1.1 1.2-1.7 1.8.9.5 1.7 1.4 2.5 2.1 2.5 6.8 4.3 13.6 6.6 20.3 1.8 5.6 5.8 10.6 10.5 15zM1291 425.3c4.1-1.7 7.9-4.1 12-5.2.5-.3 1.1-.4 1.7-.8l.5-.2-1.4 3c-3.7 2.9-6.6 6.4-8.4 10.3-.3 1-.5 2.3-1 3-2.1 1.7-4.1 3-6.6 4.2-7.2 3.3-15.5 4.1-23.2 2.9-1.8-.3-3.9-.5-5.6-1.1-3.2-1-6.6-2.9-8.6-5.4-2.4-2.4-4.1-5.2-5.2-8.1-2.5-6.8-4.5-13.7-5.1-21-.1-2.5-.3-5.2.5-7.4 1-2.7 3-5.1 5.6-6.4 3.9-2.3 8-2.9 12-3.9 7.6-1.2 15.3-2.3 23-1.7 1.7.2 3.9.3 5.5.5 4.1.8 8.4 1.7 12.2 3.2 2.9 1.2 5.8 2.9 7.6 5.6 1.5 2.3 2.3 4.6 2.3 7.2-4.5.3-9.4-.5-13.8-1.9-16.1-4.5-42.3-16.1-50 7 3.9-2.6 10.3-5.4 12.7.3 3.2 7.9 6.6 16.1 14.8 19.6-1.8-2.7-4.5-5.1-5.3-8.4 2.9 2.7 5.2 6.6 9 8-2.7-3.9-6-7-7.2-11.8 2.9 3.1 5.2 7.2 8.6 9.6-1.4-2.7-3.2-5.2-4.2-8.1 9.5 6.8 14.4 2.4 24.2.5-1.8 2.8-4.6 4.1-6.6 6.5zm2.4-10.8c-4.9 1.6-10.3 1.1-15-.2-4.2-1.4-8.5-3.9-11.1-7.6-.9-1-1.2-3.1.3-3.7 1.7-.3 3.2.1 5.1.4 6 1.7 12.3 3.7 18.3 5.5 1.7.5 3.9 1 4.9 2.8.3 1.7-1.5 2.2-2.5 2.8zm18.4-.7c.3-1.8 1-3.9 1.9-5.6 5.1-2.3 14.1-4.4 14.1-4.4 5.8-.4 11.1 3.2 13.4 5.4.5 1.7 1 3.9 1.7 5.5-2.5-.9-5.1-1.4-7.6-1.7-8.6-.5-17.5 1.4-24.9 5.3.5-1.3 1-3 1.4-4.5zm99 4c-.9 3-1.7 6-3.2 8.7-2.5 4.6-7.1 8.2-12 9.8-4.1 1.2-8.4 1.9-12.7 2.3-5.8.2-12-.9-17.4-3.6-1.7-3.1-4-6.2-6.6-9.2-2.6-3.1-5.7-5.8-9.1-7.7l-.2-.3c-.3-.5-.5-1.1-.9-1.7h.1c.5.2 1.4.3 1.8.8 4.4 1 8.5 3.2 12.7 5.2-1.8-2.5-4.7-3.9-7.2-5.4 10.3 1.7 15.3 5.8 25.4-.5-1 3-3 5.4-4.5 8.1 4.1-2.4 6.2-6.6 9.4-9.6-1 4.7-4.6 8-7.6 11.8 4.1-1.7 6.4-5.3 9.5-8-.9 3.2-3.7 5.6-5.6 8.4 8.5-3.3 12-11.9 15.5-19.6 2.5-5.7 9.4-3 13.3-.3-8.3-23-35.5-11.5-52.7-7-4.6 1.4-9.5 2.5-14.4 1.9 0-1.7.2-3.1.9-4.7 1-2.7 3.2-4.9 5.7-6.6 3.9-2.4 7.7-3.9 12-4.9 6.8-1.9 14.1-2.4 21-1.9 3.2.2 6.8.3 10 .8 3.3.3 6.9 1 10.1 2.3 2.3.9 4.2 1.9 5.8 3.7 1.6 1.7 2.8 4.4 2.9 6.9.9 6.2-.2 13.2-2 20.3zm-52.4-9.7c1.1-1.7 3.2-2.3 5.2-2.8 6.6-1.8 12.9-3.9 19.4-5.5 1.7-.3 3.6-1 5.3-.4 1.7.3 1.4 2.5.3 3.7-2.8 3.9-7.2 6.2-11.8 7.6-5.2 1.4-10.7 1.7-15.6.2-1.4-.4-3.4-1.3-2.8-2.8zm1.8 23.6c-1.7-1.4-3.3-3-4.9-4.7 1.7 1.4 3.5 3.1 4.9 4.7zm-22.5 297 1 .3v.3l-.2.2c-1.2 1.2-1 3 0 4.3l.1.1-.3 8.7c14 1 27.9 2.3 42.1 3.9 9.6 1.1 19.5-.2 29.2-1.7 1 2.1 2.3 4.1 3 5.8-1.4 4.5-2.9 8.7-4.9 13.1l10.9-7.1c1.4-2.6 2.9-5.3 4.5-7.7.3 5.8.3 12 .2 18.1-10.3 4.9-21.8 8.5-29.3 17.8 4.5-.3 8-3.2 12-5.1 8.6-3.9 17.5-7.6 27-9.5 9.6-.4 18.3 6.2 22.8 14.2 3.9 11.9 7.6 24.7 3.7 36.9-.4.3-1 .5-1.7 1-.3-.9-1-1.7-1.4-2.5-1.1.5-2.5 1.4-3.6 1.9l-.3.3c-.9-2.5-1.6-5.1-2.5-7.4-1-2.9-1.7-5.7-2.8-8.5-1.7-4.6-4.4-9.4-9.2-11.2-1.2-.4-1.7 1.5-.5 2.1 4.5 1.8 6.8 6.8 8.2 10.9 1.7 5.2 3.2 10.3 5.1 15.5-1 .5-1.9 1-2.9 1.4.1.3.2.5.2 1-3 .8-5.9 1.5-9.2 2.5-.2-.3-.3-.4-.3-.9-3.2.9-6.8 1.4-10 1.7.2.5.2 1.2.3 1.7l-.9.2v-.2c-.8-3.2-1.4-6.6-2.3-9.9-.5-2.9-1-5.7-2.1-8.5-.9-2.5-2.3-4.7-4.2-6.4-1.9-1.4-4.5-2.3-6.9-1.4-1.4.3-.8 2.5.5 2.1 2.4-.8 4.5.3 5.9 1.9 1.7 1.7 2.5 4.1 3 6.4 1.4 5.4 2.5 10.9 3.7 16.5v.1c-2.3.5-4.2 1-6.6 1.6-.2-.3-.3-.5-.5-1l-2.3 1c-3.2 1.4-6.9 2.5-10.4 2.5.2.1.3.2.5.3-5.6.5-11.4.3-16.1-2.8-2.5-.1-4.4-1-5.8-2.4-1.7-.5-3.2-1.2-5.1-1.9-3.6-.4-7-1.4-10.4-2.4-10-1.7-18.3-7.9-26.7-13.4-6.1-27.7-5.4-56.3-4.5-84.4zm76.6 22.8c-.1-.4-.1-1-.2-1.7.3.3.5.4 1 .5-.2.7-.7 1-.8 1.2zm-97.4-205.9c-1.7-.9-3.1-1.7-4.9-2.5 10.7-2.5 21.6-4.1 32.5-3.9 4.5.5 8.6 1.7 12.9 3 5.6 2.1 10.9 4.9 16.8 6.2 1.4.3 2.8.5 4.2 1 2.5 1.4 5.1 2.9 7.2 4.5l-8 4.1c-3 3.3-6.6 6.8-10.3 9.4-5.8 3.9-10.1 9.6-15.6 13.8-11.2 8.3-22.7 16.7-34.1 24.4-3.7 1.9-7.2 3.9-10.9 5.6 0 0-38-26.7-38.1-48.8 4.9-4.1 10.7-7.2 16.5-9.7 9.6-4.3 20.7-7.7 31.4-7.3l.4.2zm44.6 32.9c-.3.3-.5.9-.9 1.1l-1.1.5c.7-.4 1.4-.9 2-1.6zm5.7-5.2c-.5 1-1.4 1.7-1.8 2.8-.3-.1-.9-.1-1.2 0 1-.9 2-1.8 3-2.8zm18.3-15.1c-.4.3-1 .9-1.5 1.1h-.3c.6-.1 1.2-.8 1.8-1.1zm3.2 61.9c-3.9 1.7-7.3 2.8-11.2 3.9-9.5 1-19.3 1.7-28.7 2.5-4.5.1-8.6.2-13.1.3-3-.9-6-1.4-9.4-1.7-2.7-.3-5.6-.5-8.4-.5 1 1 1.6 2.5 1.5 3.9-8.5-.3-16.9-2.4-25.1-5.1 4.2-2.9 8.5-5.6 12.9-8.2 1.4.2 4.1.3 5.3.5 14.8-12 31.1-22.1 45.7-34.1h.1c30.4-15.7 31 24.8 30.4 38.5zm-53.2 103.6c-1.9-.2-4-.4-5.8-.8-.4-.9-1-1.6-1.6-2.4-.3-.5-1-1-1.7-1.1 0-.1-.1-.1-.1-.1 4.1 1.5 8 2.9 12 4.1 1.7.4 3.3 1 5.3 1.4-.4.3-1 1-1.5 1.4-1-.3-2.1-.8-3-1v.4c-1.2-.3-2.5-.9-3.9-1 .3-.4.3-.7.3-.9zm-81.9 25.7c.3-.2.5-.3.9-.4 1.4 2.5 2.5 5.2 4.1 7.6 9.1-7.2 16.2-17.2 29.3-15.5 15.4 0 30.6.3 46 1.4.1 14.4 1.7 28.7 1 43.1-.3 9.2 4.5 18.1 2.5 27.2-4.7 10.3-16.8 12.2-26.1 16.1-11.4 5.1-22.8 9.9-34.6 13.3-3.1.3-6.6.3-9.8 0v-.2c-.9.1-1.6.1-2.5.1-.2.4-.9.9-1.4.3l-.5-.3c-.9 0-1.7-.1-2.5-.1-1 0-1.2-1-.9-1.7-.8-.3-1.4-.4-2.4-.8-.1.1-.1.2-.2.3-3-.9-5.9-1.6-9.2-2.5-.9-.2-1.7-.3-2.5-.4.4-4 1-7.9 1.7-11.7.5-3.2 1.7-7.6 5.3-8.7 1.2-.3.8-2.5-.5-2.1-4.1 1.4-5.6 5.4-6.6 9.4-.5 2.5-.9 5.3-1.2 7.9-.2 1.7-.4 3.2-.8 5.2-4.1-.9-8.4-1.7-12.2-3.1-.9-.2-1.7-.3-2.6-.8v-.5c-.9-.4-1.7-1-2.5-1.6-.3-.3-.8-.4-1-.9 2.4-5.2 4.5-10.3 7.1-15.2 1.8-4 4.3-8.2 8.5-9.9 1.2-.3.8-2.5-.5-2.1-4.5 1.7-7.2 5.7-9.5 10-2.5 5.2-4.9 10.4-7.2 15.5-1.4-1.4-2.4-3-2.9-4.9l-1 3.3c-1-9.7.5-19.6 4.9-28.3 3.9-6.9 11.4-10 18-13.3 12.7-4.1 25.4.9 37.5 3.9-5.1-6.8-14.1-7.4-21.7-9.6 0-3 .1-5.8 0-9.1 2.3 1.4 4.3 2.8 6.6 4.1-1.5-8.6 5.1-14.8 10.4-20.3-1.2-.2-3.9-.3-4.9-.5-3.2 4-6.7 7.7-9.9 11.7l-6.8-12.9c-1.4 2.3-2.9 4.2-4.4 6.6-.3-3.9-.5-7.3-1-11.1.3.2 1 .3 1.7.5l.5 6.9c1.2-2.3 2.6-4.1 3.8-5.9zm-39-320.4.3.3c1.1-7.3 3.9-14.7 10.4-18.5l-5.6-1.2c4.5-3.9 7.2-8.1 8.6-12.9.1.5.1 1.2.1 1.8-.1 1.4-.3 2.8.2 4.1.3.9 1.2 1 1.8 1.6 2.4 1.5 3.6 4.1 4.4 6.6 1.4 3.9 2.5 7.6 3.6 11.4 1.1 4 2.5 7.9 4.5 11.4 2.8 4.7 7.2 8.5 12.2 10.7 7.1 3.2 15.1 4.1 22.8 3.1 4.5-.5 9.2-1.8 13.3-4 .3-.2.9-.3 1.1-.5-3.6 6.8-3.9 14.8-2.4 23l.9.1 2.5.2c-.1-.5-.2-1.1-.3-1.7-1-5.1-1.4-10.3-.5-15.2 0-2.5.4-4.9 1.4-7.2 2.3-1.2 4.1-2.6 5.7-4.3 3.9-3.7 6.6-8 8.5-12.7 7.6-5.1 17.4-7.7 27.2-6.4 3.7.2 7.2 1 10.7 2.5 1 1.9 2.4 3.9 3.6 5.6-2.3-1.4-4.9-2.1-7.2-1.2-9.2 0-14.7 3.9-23.7-.4-5.5 1-8.5 5.8-12 9.8 6.6 8.7 12 23.5 22.9 23.5 9.2 0 18.2-10.9 23.7-21.9.3-1.7.3-3.6-.2-5.1 2.4 2.5 4.9 4.9 7.7 6.8 1.7 1.1 3.9 2.1 5.7 2.7 2.5 4.5 4.1 9.2 5.1 14-.3-4.5-1.4-9-3-13.4 1 .3 1.9.4 2.9.5 2.9.4 5.8.5 8.7.5 7.7.1 15.6-1.4 22.7-5.2 3.9-1.9 7.1-4.9 8.6-8.6 3.6-8.2 5.9-16.7 8-25.4.3-1.4 1-2.5 1.7-3.7-.3-1.8 1.1-3.3 2.7-3.9.2-.1.4-.2.9-.2.9-.3 1.9-.3 2.7.1 4.9 2.4 7.6 9.4 9.6 13.8 2.5 5.6 4.9 11.7 5.6 17.6.2 1.4-.3 2.5-1.2 3 1.2 10.3-1.2 21.3-4.1 31-1 3.9-2.5 8.5-4.5 12.8-1.4 4.7-4.5 8.7-8.2 12.2-.5.5-1.4.9-2.4.9-.3.5-.5 1.2-1 1.7-4.4-.8-8.6-1.1-13.1-1.4-8.6 7.7-19.4 13.6-29.6 20.1.1.3.1 1-.2 1.4-2.7 5.3-6.8 9.6-11.4 13.4-.3.5-1 1.4-1.7 1.4-5.6 4.5-11.4 8.6-17.8 12-14.1-1.4-28.3.5-42.4 4.1-5.8-2.5-11.1-5.8-16.2-9.6.3 0 .9 0 1.2-.1-.2-.5-.8-2.1-1-2.6-1.6-.2-3-.3-4.6-.4-4.1-3-7.3-6.7-9.9-10.7-.2-.3-.2-.9-.2-1.1-9.2-5.3-18.8-10.1-26.9-16.7-3.9.1-7.2.3-11 1-1.7-1.9-3.2-4.1-4.9-5.9-6.6-6.8-8.4-16-12-24.3-4.1-11.2-3-23.3-.8-34.9-5.4 1.2-6.6 6.7-8 11.1.4-3.6 2.1-11.6 3.8-16.5z"/><path class="st2" d="M1558.5 916.3s.1 0 0 0c-4.1 1.3-8.4 2.6-12.7 3.9-.7.8-1.4 1.6-2.1 2.5 4.9-2.1 9.9-4.3 14.8-6.4z"/><g><path d="M600.9 524c2.9 2.5 4.3 6 4.3 10.6 0 9.5-5.7 14.3-17.2 14.3h-14.6v22.6c0 5.9-1.7 10.5-5 13.7s-7.7 4.9-13 4.9-9.7-1.6-13-4.9c-3.3-3.2-5-7.8-5-13.7v-22.6h-75c-5.2 0-9.2-1.5-12-4.4-2.9-3-4.3-6.6-4.3-11 0-4.6 1.5-9 4.6-13.2l88.5-127.1c1.9-2.7 4.3-4.7 7.2-6.2s5.8-2.1 8.9-2.1c5 0 9.3 1.6 12.9 4.9 3.6 3.2 5.4 7.8 5.4 13.7v116.8h14.6c5.5 0 9.8 1.2 12.7 3.7zm-116.8-3.7h53.2v-77l-53.2 77zM640.7 564.5c-12.6-17.7-18.9-43.4-18.9-77.2 0-33.6 6.3-59.2 18.9-76.9 12.6-17.7 30.8-26.5 54.7-26.5 23.9 0 42.1 8.8 54.7 26.5s18.9 43.3 18.9 76.9-6.3 59.3-18.9 77-30.8 26.6-54.7 26.6c-23.9.1-42.1-8.7-54.7-26.4zm83-20.3c5.9-11.9 8.9-30.9 8.9-56.8 0-26.1-3-45.1-8.9-56.8-5.9-11.7-15.4-17.6-28.3-17.6-13 0-22.4 5.9-28.3 17.7-5.9 11.8-8.9 30.7-8.9 56.7 0 26 3 44.9 8.9 56.8s15.4 17.9 28.3 17.9 22.4-6 28.3-17.9zM944.4 524c2.9 2.5 4.3 6 4.3 10.6 0 9.5-5.7 14.3-17.2 14.3h-14.6v22.6c0 5.9-1.7 10.5-5 13.7s-7.7 4.9-13 4.9-9.7-1.6-13-4.9c-3.3-3.2-5-7.8-5-13.7v-22.6h-75c-5.2 0-9.2-1.5-12-4.4-2.9-3-4.3-6.6-4.3-11 0-4.6 1.5-9 4.6-13.2l88.5-127.1c1.9-2.7 4.3-4.7 7.2-6.2 2.9-1.4 5.8-2.1 8.9-2.1 5 0 9.3 1.6 12.9 4.9 3.6 3.2 5.4 7.8 5.4 13.7v116.8h14.6c5.5 0 9.8 1.2 12.7 3.7zm-116.8-3.7h53.2v-77l-53.2 77z"/></g><g><path d="M496.6 653.3c-.4-.4-.5-.9-.5-1.5v-20c0-.6.2-1.2.6-1.6.4-.4 1-.6 1.6-.6.7 0 1.2.2 1.6.6.4.4.6 1 .6 1.6v18.5h9.6c1.4 0 2.1.6 2.1 1.9s-.7 1.9-2.1 1.9h-12c-.7-.2-1.2-.4-1.5-.8zM517.6 653.1c-1.2-.7-2.3-1.7-3-3.1-.7-1.4-1.1-2.8-1.1-4.6s.4-3.3 1.1-4.6c.7-1.4 1.7-2.3 3-3.1s2.8-1.1 4.4-1.1c1.7 0 3.2.4 4.4 1.1 1.2.7 2.2 1.7 3 3.1s1 2.8 1 4.6-.4 3.3-1 4.6c-.7 1.4-1.7 2.3-3 3.1-1.2.7-2.8 1.1-4.4 1.1-1.6 0-3.1-.4-4.4-1.1zm7.6-3.6c.7-.9 1.1-2.2 1.1-4.1 0-1.7-.4-3.1-1.1-4.1-.7-.9-1.7-1.4-3.1-1.4s-2.5.5-3.2 1.4c-.7.9-1.1 2.2-1.1 4.1 0 1.7.4 3.1 1.1 4.1.7.9 1.7 1.4 3.1 1.4 1.5 0 2.5-.5 3.2-1.4zM543.4 652.7c-.7-.5-1.1-1-1.1-1.9 0-.5.1-.9.4-1.1.2-.2.6-.4.9-.4.4 0 .9.1 1.6.5.7.4 1.4.6 2 .7s1.4.2 2.3.2 1.7-.1 2.2-.5c.5-.4.9-.7.9-1.4 0-.4-.1-.7-.4-.9-.2-.2-.6-.5-1.1-.6-.6-.2-1.4-.4-2.6-.6-2-.4-3.5-1-4.3-1.7-.9-.7-1.4-1.7-1.4-3.1 0-1 .2-1.9.9-2.7.6-.9 1.4-1.5 2.5-1.9 1-.5 2.2-.6 3.6-.6 1 0 1.9.1 2.7.4.9.2 1.7.6 2.3 1 .7.5 1.1 1.1 1.1 1.9 0 .5-.1.9-.4 1.1-.2.2-.6.5-.9.5-.2 0-.5 0-.7-.1-.2-.1-.5-.2-.9-.5-.6-.4-1.2-.6-1.7-.7-.5-.1-1.1-.2-1.7-.2-.9 0-1.5.1-2 .5s-.7.9-.7 1.4c0 .6.2 1 .7 1.4.5.2 1.5.6 3 .9 1.5.4 2.7.7 3.6 1.1.9.4 1.5.9 1.9 1.5s.6 1.4.6 2.3c0 1.6-.6 2.8-2 3.7-1.2 1-3 1.4-5.2 1.4-2.5-.1-4.5-.6-6.1-1.6zM574.2 649.7c.2.2.4.7.4 1.2 0 .7-.4 1.4-1.2 1.7-.7.5-1.6.7-2.6 1-1 .2-2 .4-2.8.4-2.7 0-4.8-.7-6.4-2.3-1.6-1.6-2.3-3.7-2.3-6.4 0-1.7.4-3.2 1-4.6.6-1.4 1.6-2.3 2.8-3.1s2.6-1.1 4.2-1.1c1.5 0 2.8.4 4 1 1.1.6 2 1.6 2.6 2.8s.9 2.6.9 4.3c0 1-.5 1.5-1.4 1.5h-10.1c.1 1.6.6 2.7 1.4 3.5s1.9 1.1 3.3 1.1c.7 0 1.4-.1 2-.2.6-.1 1.2-.5 1.9-.7.7-.4 1.2-.5 1.5-.5.3-.1.5.2.8.4zm-9.7-8.9c-.7.7-1.1 1.7-1.2 3.1h7.8c0-1.4-.4-2.5-1-3.2s-1.5-1.1-2.7-1.1c-1.3.1-2.1.5-2.9 1.2zM592.3 638.5c1 1.1 1.5 2.8 1.5 5.2v8.4c0 .6-.2 1.1-.6 1.5-.4.4-.9.5-1.6.5-.6 0-1.2-.1-1.6-.5-.4-.4-.6-.9-.6-1.5v-8.2c0-1.4-.2-2.2-.7-2.8s-1.2-.9-2.3-.9c-1.2 0-2.2.4-3 1.1-.7.7-1.1 1.9-1.1 3.1v7.7c0 .6-.2 1.1-.6 1.5-.4.4-.9.5-1.6.5-.6 0-1.2-.1-1.6-.5-.4-.4-.6-.9-.6-1.5v-13.2c0-.6.2-1.1.6-1.5.4-.4.9-.5 1.6-.5.6 0 1.1.1 1.5.5.4.4.6.9.6 1.4v.9c.6-1 1.4-1.6 2.3-2.1s2.1-.7 3.2-.7c2.2-.1 3.7.4 4.6 1.6zM608.7 652.5c0 .5-.2 1-.6 1.2-.5.2-1.1.4-1.9.4l-.9-.1c-3.8-.2-5.8-2.3-5.8-6.2v-7.4h-1.7c-.6 0-1.1-.1-1.4-.4-.4-.2-.5-.6-.5-1.2 0-.5.1-.9.5-1.2.4-.2.9-.4 1.4-.4h1.7V634c0-.6.2-1.1.6-1.5.4-.4.9-.5 1.6-.5.6 0 1.1.1 1.5.5.4.4.6.9.6 1.5v3.1h3c.6 0 1.1.1 1.4.4.4.2.5.6.5 1.2 0 .5-.1.9-.5 1.2-.4.2-.9.4-1.4.4h-3v7.8c0 1.7.7 2.6 2.3 2.7l.9.1c1 .1 1.7.6 1.7 1.6zM611.1 633.2c-.5-.4-.7-1-.7-1.6s.2-1.2.7-1.6c.5-.4 1.1-.6 1.9-.6s1.4.2 1.9.6c.5.4.7 1 .7 1.6s-.2 1.2-.7 1.6c-.5.4-1.1.6-1.9.6-.9 0-1.4-.2-1.9-.6zm.3 20.4c-.4-.4-.6-.9-.6-1.5v-13.2c0-.6.2-1.1.6-1.5.4-.4.9-.5 1.5-.5s1.1.1 1.5.5.6.9.6 1.5v13.2c0 .6-.2 1.1-.6 1.5-.4.4-.9.5-1.5.5-.5 0-1-.2-1.5-.5zM643.6 638.4c1 1.1 1.5 2.8 1.5 5.2v8.4c0 .6-.2 1.1-.6 1.5s-.9.5-1.6.5c-.6 0-1.1-.1-1.5-.5-.4-.4-.6-.9-.6-1.5v-8.4c0-1.2-.2-2.1-.6-2.7-.5-.5-1.1-.9-2-.9-1.1 0-2 .4-2.7 1.1-.6.7-1 1.9-1 3.1v7.7c0 .6-.2 1.1-.6 1.5-.4.4-.9.5-1.5.5s-1.1-.1-1.5-.5c-.4-.4-.6-.9-.6-1.5v-8.4c0-1.2-.2-2.1-.6-2.7-.5-.5-1.1-.9-2-.9-1.1 0-2 .4-2.6 1.1-.6.7-1 1.9-1 3.1v7.7c0 .6-.2 1.1-.6 1.5-.4.4-.9.5-1.5.5s-1.1-.1-1.5-.5c-.4-.4-.6-.9-.6-1.5v-13.2c0-.6.2-1.1.6-1.5.4-.4.9-.5 1.5-.5s1.1.1 1.5.5c.4.4.6.9.6 1.4v.9c.5-.9 1.2-1.6 2.1-2.1s1.9-.7 3-.7c2.5 0 4.2 1 5.1 3.1.5-1 1.2-1.7 2.2-2.3s2.1-.9 3.3-.9c1.5.3 2.8.8 3.8 1.9zM652.5 653.1c-1.2-.7-2.3-1.7-3-3.1-.7-1.4-1.1-2.8-1.1-4.6s.4-3.3 1.1-4.6c.7-1.4 1.7-2.3 3-3.1 1.2-.7 2.8-1.1 4.4-1.1 1.7 0 3.2.4 4.4 1.1 1.2.7 2.2 1.7 3 3.1s1 2.8 1 4.6-.4 3.3-1 4.6c-.7 1.4-1.7 2.3-3 3.1-1.2.7-2.8 1.1-4.4 1.1-1.5 0-3.1-.4-4.4-1.1zm7.7-3.6c.7-.9 1.1-2.2 1.1-4.1 0-1.7-.4-3.1-1.1-4.1-.7-.9-1.7-1.4-3.1-1.4s-2.5.5-3.2 1.4c-.7.9-1.1 2.2-1.1 4.1 0 1.7.4 3.1 1.1 4.1.7.9 1.7 1.4 3.1 1.4 1.3 0 2.4-.5 3.2-1.4zM669.1 652.7c-.7-.5-1.1-1-1.1-1.9 0-.5.1-.9.4-1.1.2-.2.6-.4.9-.4.4 0 .9.1 1.6.5.7.4 1.4.6 2 .7s1.4.2 2.3.2 1.7-.1 2.2-.5c.5-.4.9-.7.9-1.4 0-.4-.1-.7-.4-.9-.2-.2-.6-.5-1.1-.6-.6-.2-1.4-.4-2.6-.6-2-.4-3.5-1-4.3-1.7-.9-.7-1.4-1.7-1.4-3.1 0-1 .2-1.9.9-2.7.6-.9 1.4-1.5 2.5-1.9 1-.5 2.2-.6 3.6-.6 1 0 1.9.1 2.7.4.9.2 1.7.6 2.3 1 .7.5 1.1 1.1 1.1 1.9 0 .5-.1.9-.4 1.1-.2.2-.6.5-.9.5-.2 0-.5 0-.7-.1-.2-.1-.5-.2-.9-.5-.6-.4-1.2-.6-1.7-.7-.5-.1-1.1-.2-1.7-.2-.9 0-1.5.1-2 .5s-.7.9-.7 1.4c0 .6.2 1 .7 1.4.5.2 1.5.6 3 .9 1.5.4 2.7.7 3.6 1.1.9.4 1.5.9 1.9 1.5s.6 1.4.6 2.3c0 1.6-.6 2.8-2 3.7-1.2 1-3 1.4-5.2 1.4-2.5-.1-4.6-.6-6.1-1.6zM708.4 637.9c1.1.7 2 1.7 2.6 3.1.6 1.4 1 2.8 1 4.6s-.4 3.2-1 4.6c-.6 1.4-1.5 2.3-2.6 3-1.1.7-2.3 1.1-3.8 1.1-1.2 0-2.2-.2-3.2-.7-1-.5-1.6-1.2-2.1-2.1v6.9c0 .6-.2 1.1-.6 1.4-.4.4-.9.5-1.5.5s-1.1-.1-1.6-.5c-.4-.4-.6-.9-.6-1.5v-19.4c0-.6.2-1.1.6-1.5.4-.4.9-.5 1.5-.5s1.1.1 1.5.5c.4.4.6.9.6 1.5v.9c.5-1 1.2-1.6 2.2-2.2 1-.5 2-.7 3.2-.7 1.4-.1 2.7.2 3.8 1zm-1.9 11.6c.7-.9 1.1-2.2 1.1-4s-.4-3.1-1.1-4.1c-.7-1-1.9-1.5-3.1-1.5-1.4 0-2.5.5-3.2 1.4-.7 1-1.1 2.2-1.1 4s.4 3.1 1.1 4c.7 1 1.9 1.4 3.2 1.4 1.4.2 2.4-.3 3.1-1.2zM729.6 649.7c.2.2.4.7.4 1.2 0 .7-.4 1.4-1.2 1.7-.7.5-1.6.7-2.6 1-1 .2-2 .4-2.8.4-2.7 0-4.8-.7-6.4-2.3-1.6-1.6-2.3-3.7-2.3-6.4 0-1.7.4-3.2 1-4.6.6-1.4 1.6-2.3 2.8-3.1s2.6-1.1 4.2-1.1c1.5 0 2.8.4 4 1 1.1.6 2 1.6 2.6 2.8s.9 2.6.9 4.3c0 1-.5 1.5-1.4 1.5h-10.1c.1 1.6.6 2.7 1.4 3.5s1.9 1.1 3.3 1.1c.7 0 1.4-.1 2-.2.6-.1 1.2-.5 1.9-.7.7-.4 1.2-.5 1.5-.5.3-.1.6.2.8.4zm-9.6-8.9c-.7.7-1.1 1.7-1.2 3.1h7.8c0-1.4-.4-2.5-1-3.2s-1.5-1.1-2.7-1.1c-1.3.1-2.2.5-2.9 1.2zM744.5 637.1c.4.2.5.7.5 1.4s-.1 1.1-.5 1.4c-.2.2-.9.5-1.6.6l-1 .1c-1.4.1-2.3.6-3 1.4-.6.7-1 1.7-1 3v7.2c0 .6-.2 1.1-.6 1.5-.4.4-.9.5-1.5.5s-1.1-.1-1.5-.5c-.4-.4-.6-.9-.6-1.5V639c0-.6.2-1.1.6-1.5.4-.4.9-.5 1.5-.5s1.1.1 1.5.5c.4.4.5.9.5 1.4v1.4c.5-1 1.1-1.7 2-2.3.9-.5 1.9-.9 2.8-.9h.5c.5-.3 1-.2 1.4 0zM749.5 653.1c-1.2-.7-2.3-1.7-3-3.1-.7-1.4-1.1-2.8-1.1-4.6s.4-3.3 1.1-4.6c.7-1.4 1.7-2.3 3-3.1s2.8-1.1 4.4-1.1c1.7 0 3.2.4 4.4 1.1 1.2.7 2.2 1.7 3 3.1s1 2.8 1 4.6-.4 3.3-1 4.6c-.7 1.4-1.7 2.3-3 3.1-1.2.7-2.8 1.1-4.4 1.1-1.5 0-3-.4-4.4-1.1zm7.7-3.6c.7-.9 1.1-2.2 1.1-4.1 0-1.7-.4-3.1-1.1-4.1-.7-.9-1.7-1.4-3.1-1.4s-2.5.5-3.2 1.4c-.7.9-1.1 2.2-1.1 4.1 0 1.7.4 3.1 1.1 4.1.7.9 1.7 1.4 3.1 1.4 1.5 0 2.4-.5 3.2-1.4zM776 653.6c-.4-.4-.6-.9-.6-1.5v-20.4c0-.6.2-1.1.6-1.5.4-.4.9-.5 1.5-.5s1.1.1 1.5.5c.4.4.6.9.6 1.5v20.4c0 .6-.2 1.1-.6 1.5-.4.4-.9.5-1.5.5s-1.2-.2-1.5-.5zM796.5 638.5c1.1 1.1 1.7 2.8 1.7 5.3v8.4c0 .6-.1 1.1-.5 1.5-.4.4-.9.5-1.5.5s-1.1-.1-1.5-.5c-.4-.4-.6-.9-.6-1.5v-.7c-.4.9-1 1.6-1.9 2.1s-1.9.7-2.8.7c-1.1 0-2.1-.2-3.1-.7-.9-.5-1.6-1.1-2.1-1.9-.5-.7-.7-1.7-.7-2.7 0-1.2.4-2.2 1-3 .6-.7 1.6-1.2 3.1-1.5 1.4-.4 3.3-.5 5.8-.5h.9v-.7c0-1.1-.2-2-.7-2.5s-1.2-.7-2.3-.7c-.6 0-1.4.1-2 .2-.7.2-1.5.5-2.5.9-.6.2-1 .5-1.4.5-.4 0-.7-.1-1-.5-.2-.4-.4-.7-.4-1.1 0-.4.1-.7.2-1 .2-.2.5-.5 1-.9.7-.5 1.7-.7 2.8-1 1.1-.2 2.2-.4 3.2-.4 2.4 0 4.2.6 5.3 1.7zM793 650c.7-.7 1.1-1.7 1.1-3v-.7h-.6c-1.5 0-2.7.1-3.6.2-.9.1-1.5.4-1.9.7-.4.4-.5.9-.5 1.4 0 .7.2 1.4.7 1.9.5.5 1.1.7 1.9.7 1.3-.1 2.2-.5 2.9-1.2zM825.3 637.9c1.1.7 2 1.7 2.6 3.1.6 1.4 1 2.8 1 4.6s-.4 3.2-1 4.6c-.6 1.4-1.5 2.3-2.6 3-1.1.7-2.3 1.1-3.8 1.1-1.2 0-2.2-.2-3.2-.7-1-.5-1.6-1.2-2.1-2.1v6.9c0 .6-.2 1.1-.6 1.4-.4.4-.9.5-1.5.5s-1.1-.1-1.6-.5c-.4-.4-.6-.9-.6-1.5v-19.4c0-.6.2-1.1.6-1.5.4-.4.9-.5 1.5-.5s1.1.1 1.5.5c.4.4.6.9.6 1.5v.9c.5-1 1.2-1.6 2.2-2.2 1-.5 2-.7 3.2-.7 1.3-.1 2.7.2 3.8 1zm-1.9 11.6c.7-.9 1.1-2.2 1.1-4s-.4-3.1-1.1-4.1c-.7-1-1.9-1.5-3.1-1.5-1.4 0-2.5.5-3.2 1.4-.7 1-1.1 2.2-1.1 4s.4 3.1 1.1 4c.7 1 1.9 1.4 3.2 1.4 1.4.2 2.4-.3 3.1-1.2zM844.8 638.5c1.1 1.1 1.7 2.8 1.7 5.3v8.4c0 .6-.1 1.1-.5 1.5-.4.4-.9.5-1.5.5s-1.1-.1-1.5-.5c-.4-.4-.6-.9-.6-1.5v-.7c-.4.9-1 1.6-1.9 2.1-.9.5-1.9.7-2.8.7-1.1 0-2.1-.2-3.1-.7-1-.5-1.6-1.1-2.1-1.9-.5-.7-.7-1.7-.7-2.7 0-1.2.4-2.2 1-3 .6-.7 1.6-1.2 3.1-1.5 1.4-.4 3.3-.5 5.8-.5h.9v-.7c0-1.1-.2-2-.7-2.5-.5-.5-1.2-.7-2.3-.7-.6 0-1.4.1-2 .2-.7.2-1.5.5-2.5.9-.6.2-1 .5-1.4.5-.4 0-.7-.1-1-.5-.2-.2-.4-.7-.4-1.1 0-.4.1-.7.2-1 .2-.2.5-.5 1-.9.7-.5 1.7-.7 2.8-1 1.1-.2 2.2-.4 3.2-.4 2.5 0 4.2.6 5.3 1.7zm-3.5 11.5c.7-.7 1.1-1.7 1.1-3v-.7h-.6c-1.5 0-2.7.1-3.6.2-.9.1-1.5.4-1.9.7-.4.4-.5.9-.5 1.4 0 .7.2 1.4.7 1.9s1.1.7 1.9.7c1.3-.1 2.2-.5 2.9-1.2zm-1.6-14.8c-.4 0-.6-.1-.9-.4-.2-.2-.4-.5-.4-.7 0-.2.1-.5.2-.7l3.3-4.4c.5-.7 1.1-1 1.9-1 .5 0 1 .1 1.2.5.4.4.5.7.5 1.2 0 .6-.2 1.2-.9 1.6l-4.4 3.6c0 .1-.2.3-.5.3zM866.5 637.4c.4.4.6.9.6 1.5v13.5c0 2.6-.7 4.6-2.2 5.9-1.5 1.4-3.6 2-6.4 2-2.5 0-4.6-.5-6.2-1.4-.9-.5-1.2-1.1-1.2-1.9 0-.5.1-.9.4-1.2.2-.2.5-.5 1-.5.2 0 .5 0 .7.1s.6.2.9.4c.9.4 1.6.6 2.2.7s1.4.2 2.2.2c3 0 4.4-1.5 4.4-4.3v-2.2c-.5 1-1.2 1.6-2.2 2.2-1 .5-2.1.7-3.3.7-1.5 0-2.7-.4-3.8-1-1.1-.7-2-1.7-2.6-3s-1-2.7-1-4.3c0-1.6.4-3.1 1-4.3s1.5-2.2 2.6-3c1.1-.7 2.5-1 4-1 1.2 0 2.3.2 3.3.7 1 .5 1.7 1.2 2.2 2.2v-.9c0-.6.2-1.1.6-1.5.4-.4.9-.5 1.5-.5s1 .5 1.3.9zm-4.8 11.4c.7-.9 1.1-2.1 1.1-3.7s-.4-2.8-1.1-3.7-1.9-1.4-3.2-1.4c-1.4 0-2.3.5-3.2 1.4-.7.9-1.1 2.1-1.1 3.7s.4 2.7 1.1 3.7c.7.9 1.9 1.4 3.2 1.4 1.4-.1 2.5-.6 3.2-1.4zM871.9 633.2c-.5-.4-.7-1-.7-1.6s.2-1.2.7-1.6c.5-.4 1.1-.6 1.9-.6s1.4.2 1.9.6c.5.4.7 1 .7 1.6s-.2 1.2-.7 1.6c-.5.4-1.1.6-1.9.6-.9 0-1.6-.2-1.9-.6zm.2 20.4c-.4-.4-.6-.9-.6-1.5v-13.2c0-.6.2-1.1.6-1.5.4-.4.9-.5 1.5-.5s1.1.1 1.5.5c.4.4.6.9.6 1.5v13.2c0 .6-.2 1.1-.6 1.5-.4.4-.9.5-1.5.5-.5 0-1.1-.2-1.5-.5zM894.5 638.5c1 1.1 1.5 2.8 1.5 5.2v8.4c0 .6-.2 1.1-.6 1.5-.4.4-.9.5-1.6.5-.6 0-1.2-.1-1.6-.5-.4-.4-.6-.9-.6-1.5v-8.2c0-1.4-.2-2.2-.7-2.8s-1.2-.9-2.3-.9c-1.2 0-2.2.4-3 1.1-.7.7-1.1 1.9-1.1 3.1v7.7c0 .6-.2 1.1-.6 1.5-.4.4-.9.5-1.6.5-.6 0-1.2-.1-1.6-.5s-.6-.9-.6-1.5v-13.2c0-.6.2-1.1.6-1.5.4-.4.9-.5 1.6-.5.6 0 1.1.1 1.5.5.4.4.6.9.6 1.4v.9c.6-1 1.4-1.6 2.3-2.1s2.1-.7 3.2-.7c2.1-.1 3.6.4 4.6 1.6zM912.6 638.5c1.1 1.1 1.7 2.8 1.7 5.3v8.4c0 .6-.1 1.1-.5 1.5-.4.4-.9.5-1.5.5s-1.1-.1-1.5-.5c-.4-.4-.6-.9-.6-1.5v-.7c-.4.9-1 1.6-1.9 2.1-.9.5-1.9.7-2.8.7-1.1 0-2.1-.2-3.1-.7-.9-.5-1.6-1.1-2.1-1.9-.5-.7-.7-1.7-.7-2.7 0-1.2.4-2.2 1-3 .6-.7 1.6-1.2 3.1-1.5 1.4-.4 3.3-.5 5.8-.5h.9v-.7c0-1.1-.2-2-.7-2.5s-1.2-.7-2.3-.7c-.6 0-1.4.1-2 .2-.7.2-1.5.5-2.5.9-.6.2-1 .5-1.4.5-.4 0-.7-.1-1-.5-.2-.4-.4-.7-.4-1.1 0-.4.1-.7.2-1 .2-.2.5-.5 1-.9.7-.5 1.7-.7 2.8-1 1.1-.2 2.2-.4 3.2-.4 2.5 0 4.2.6 5.3 1.7zm-3.4 11.5c.7-.7 1.1-1.7 1.1-3v-.7h-.6c-1.5 0-2.7.1-3.6.2-.9.1-1.5.4-1.9.7-.4.4-.5.9-.5 1.4 0 .7.2 1.4.7 1.9s1.1.7 1.9.7c1.3-.1 2.3-.5 2.9-1.2zM511.2 678.4c.4.4.6.9.6 1.5v19.4c0 .6-.2 1.1-.6 1.5-.4.4-1 .5-1.6.5s-1.1-.1-1.5-.5c-.4-.4-.6-.9-.6-1.4v-7c-.5.9-1.2 1.6-2.2 2.1-1 .5-2 .7-3.2.7-1.5 0-2.7-.4-3.8-1.1-1.1-.7-2-1.7-2.6-3-.6-1.4-1-2.8-1-4.6s.4-3.2 1-4.6c.6-1.4 1.5-2.3 2.6-3.1s2.5-1.1 3.8-1.1c1.2 0 2.2.2 3.2.7 1 .5 1.7 1.2 2.2 2.2v-.9c0-.6.2-1.1.6-1.5.4-.4.9-.5 1.5-.5.7.2 1.2.3 1.6.7zm-4.9 12.1c.7-1 1.1-2.2 1.1-4s-.4-3.1-1.1-4c-.7-1-1.9-1.4-3.2-1.4-1.4 0-2.3.5-3.1 1.5-.7 1-1.1 2.3-1.1 4.1 0 1.7.4 3 1.1 4 .7.9 1.9 1.4 3.2 1.4 1.4-.2 2.4-.7 3.1-1.6zM530.9 678.4c.4.4.6.9.6 1.5v13.2c0 .6-.2 1.1-.6 1.5-.4.4-.9.5-1.6.5-.6 0-1.1-.1-1.5-.5-.4-.4-.5-.9-.5-1.4v-.9c-.5.9-1.2 1.6-2.1 2.1-.9.5-1.9.7-3 .7-4.1 0-6.2-2.3-6.2-6.9v-8.4c0-.6.2-1.1.6-1.5.4-.4.9-.5 1.5-.5s1.2.1 1.6.5c.4.4.6.9.6 1.5v8.4c0 1.2.2 2.1.7 2.6.5.6 1.2.9 2.2.9 1.2 0 2.1-.4 2.8-1.2.7-.7 1.1-1.9 1.1-3.1v-7.7c0-.6.2-1.1.6-1.5.4-.4.9-.5 1.5-.5.9.2 1.4.3 1.7.7zM550.2 690.8c.2.2.4.7.4 1.2 0 .7-.4 1.4-1.2 1.7-.7.5-1.6.7-2.6 1-1 .2-2 .4-2.8.4-2.7 0-4.8-.7-6.4-2.3-1.6-1.6-2.3-3.7-2.3-6.4 0-1.7.4-3.2 1-4.6.6-1.4 1.6-2.3 2.8-3.1 1.2-.7 2.6-1.1 4.2-1.1 1.5 0 2.8.4 4 1 1.1.6 2 1.6 2.6 2.8s.9 2.6.9 4.3c0 1-.5 1.5-1.4 1.5h-10.1c.1 1.6.6 2.7 1.4 3.5.7.7 1.9 1.1 3.3 1.1.7 0 1.4-.1 2-.2s1.2-.5 1.9-.7c.7-.4 1.2-.5 1.5-.5.2 0 .6.1.8.4zm-9.8-8.9c-.7.7-1.1 1.7-1.2 3.1h7.8c0-1.4-.4-2.5-1-3.2s-1.5-1.1-2.7-1.1c-1.1.1-2.1.4-2.9 1.2zM577.6 690.8c.2.2.4.7.4 1.2 0 .7-.4 1.4-1.2 1.7-.7.5-1.6.7-2.6 1-1 .2-2 .4-2.8.4-2.7 0-4.8-.7-6.4-2.3-1.6-1.6-2.3-3.7-2.3-6.4 0-1.7.4-3.2 1-4.6.6-1.4 1.6-2.3 2.8-3.1 1.2-.7 2.6-1.1 4.2-1.1 1.5 0 2.8.4 4 1 1.1.6 2 1.6 2.6 2.8s.9 2.6.9 4.3c0 1-.5 1.5-1.4 1.5h-10.1c.1 1.6.6 2.7 1.4 3.5s1.9 1.1 3.3 1.1c.7 0 1.4-.1 2-.2s1.2-.5 1.9-.7c.7-.4 1.2-.5 1.5-.5.2 0 .6.1.8.4zm-9.6-8.9c-.7.7-1.1 1.7-1.2 3.1h7.8c0-1.4-.4-2.5-1-3.2s-1.5-1.1-2.7-1.1c-1.3.1-2.3.4-2.9 1.2zM581.6 693.7c-.7-.5-1.1-1-1.1-1.9 0-.5.1-.9.4-1.1.2-.2.6-.4.9-.4.4 0 .9.1 1.6.5.7.4 1.4.6 2 .7s1.4.2 2.3.2c1 0 1.7-.1 2.2-.5.5-.4.9-.7.9-1.4 0-.4-.1-.7-.4-.9-.2-.2-.6-.5-1.1-.6-.6-.2-1.4-.4-2.6-.6-2-.4-3.5-1-4.3-1.7-.9-.7-1.4-1.7-1.4-3.1 0-1 .2-1.9.9-2.7.6-.9 1.4-1.5 2.5-1.9 1-.5 2.2-.6 3.6-.6 1 0 1.9.1 2.7.4.9.2 1.7.6 2.3 1 .7.5 1.1 1.1 1.1 1.9 0 .5-.1.9-.4 1.1-.2.2-.6.5-.9.5s-.5 0-.7-.1c-.2-.1-.5-.2-.9-.5-.6-.4-1.2-.6-1.7-.7s-1.1-.2-1.7-.2c-.9 0-1.5.1-2 .5s-.7.9-.7 1.4c0 .6.2 1 .7 1.4.5.2 1.5.6 3 .9 1.5.4 2.7.7 3.6 1.1.9.4 1.5.9 1.9 1.5.4.6.6 1.4.6 2.3 0 1.6-.6 2.8-2 3.7-1.2 1-3 1.4-5.2 1.4-2.5-.1-4.5-.6-6.1-1.6zM608.4 693.5c0 .5-.2 1-.6 1.2-.5.2-1.1.4-1.9.4l-.9-.1c-3.8-.2-5.8-2.3-5.8-6.2v-7.4h-1.7c-.6 0-1.1-.1-1.4-.4-.4-.2-.5-.6-.5-1.2 0-.5.1-.9.5-1.2.4-.2.9-.4 1.4-.4h1.7v-3.1c0-.6.2-1.1.6-1.5.4-.4.9-.5 1.6-.5.6 0 1.1.1 1.5.5.4.4.6.9.6 1.5v3.1h3c.6 0 1.1.1 1.4.4.4.2.5.6.5 1.2 0 .5-.1.9-.5 1.2-.4.4-.9.4-1.4.4h-3v7.8c0 1.7.7 2.6 2.3 2.7l.9.1c1.1 0 1.7.5 1.7 1.5zM623.1 679.5c1.1 1.1 1.7 2.8 1.7 5.3v8.4c0 .6-.1 1.1-.5 1.5s-.9.5-1.5.5-1.1-.1-1.5-.5c-.4-.4-.6-.9-.6-1.5v-.9c-.4.9-1 1.6-1.9 2.1s-1.9.7-2.8.7c-1.1 0-2.1-.2-3.1-.7-.9-.5-1.6-1.1-2.1-1.9-.5-.7-.7-1.7-.7-2.7 0-1.2.4-2.2 1-3 .6-.7 1.6-1.2 3.1-1.5 1.4-.4 3.3-.5 5.8-.5h.9v-.7c0-1.1-.2-2-.7-2.5-.5-.5-1.2-.7-2.3-.7-.6 0-1.4.1-2 .2-.7.2-1.5.5-2.5.9-.6.2-1 .5-1.4.5-.4 0-.7-.1-1-.5-.2-.4-.4-.7-.4-1.1 0-.4.1-.7.2-1 .2-.2.5-.5 1-.9.7-.5 1.7-.7 2.8-1 1.1-.2 2.2-.4 3.2-.4 2.3.2 4.1.8 5.3 1.9zm-3.4 11.5c.7-.7 1.1-1.7 1.1-3v-.7h-.6c-1.5 0-2.7.1-3.6.2-.9.1-1.5.4-1.9.7-.4.4-.5.9-.5 1.4 0 .7.2 1.4.7 1.9s1.1.7 1.9.7c1.1-.1 2.1-.4 2.9-1.2zm-1.8-14.8c-.4 0-.6-.1-.9-.4s-.4-.5-.4-.7c0-.2.1-.5.2-.7l3.3-4.4c.5-.7 1.1-1 1.9-1 .5 0 1 .1 1.2.5.4.4.5.7.5 1.2 0 .6-.2 1.2-.9 1.6l-4.4 3.6c.1.2-.1.3-.5.3zM629.2 693.7c-.7-.5-1.1-1-1.1-1.9 0-.5.1-.9.4-1.1.2-.2.6-.4.9-.4.4 0 .9.1 1.6.5.7.4 1.4.6 2 .7s1.4.2 2.3.2 1.7-.1 2.2-.5c.5-.4.9-.7.9-1.4 0-.4-.1-.7-.4-.9-.2-.2-.6-.5-1.1-.6-.6-.2-1.4-.4-2.6-.6-2-.4-3.5-1-4.3-1.7-.9-.7-1.4-1.7-1.4-3.1 0-1 .2-1.9.9-2.7.6-.9 1.4-1.5 2.5-1.9 1-.5 2.2-.6 3.6-.6 1 0 1.9.1 2.7.4.9.2 1.7.6 2.3 1 .7.5 1.1 1.1 1.1 1.9 0 .5-.1.9-.4 1.1-.2.2-.6.5-.9.5-.2 0-.5 0-.7-.1s-.5-.2-.9-.5c-.6-.4-1.2-.6-1.7-.7s-1.1-.2-1.7-.2c-.9 0-1.5.1-2 .5s-.7.9-.7 1.4c0 .6.2 1 .7 1.4.5.2 1.5.6 3 .9 1.5.4 2.7.7 3.6 1.1.9.4 1.5.9 1.9 1.5s.6 1.4.6 2.3c0 1.6-.6 2.8-2 3.7-1.2 1-3 1.4-5.2 1.4-2.7-.1-4.6-.6-6.1-1.6zM668.5 678.9c1.1.7 2 1.7 2.6 3 .6 1.4 1 2.8 1 4.6 0 1.7-.4 3.2-1 4.6-.6 1.4-1.5 2.3-2.6 3.1s-2.5 1.1-3.8 1.1c-1.2 0-2.3-.2-3.2-.7-1-.5-1.7-1.2-2.2-2.2v.9c0 .6-.2 1.1-.6 1.5-.4.4-.9.5-1.5.5s-1.1-.1-1.5-.5c-.4-.4-.6-.9-.6-1.5v-20.5c0-.6.2-1.1.6-1.5.4-.4.9-.5 1.6-.5.6 0 1.1.1 1.5.5.4.4.6.9.6 1.4v8c.5-.9 1.2-1.6 2.1-2.1.9-.5 2-.7 3.2-.7 1.3-.1 2.7.3 3.8 1zm-1.9 11.6c.7-1 1.1-2.3 1.1-4.1 0-1.7-.4-3-1.1-4-.7-.9-1.9-1.4-3.2-1.4s-2.5.5-3.2 1.4c-.7.9-1.1 2.2-1.1 4 0 1.7.4 3.1 1.1 4 .7 1 1.9 1.4 3.2 1.4 1.4.1 2.5-.4 3.2-1.3zM690.3 678.4c.4.4.6.9.6 1.5v13.2c0 .6-.2 1.1-.6 1.5-.4.4-.9.5-1.6.5-.6 0-1.1-.1-1.5-.5-.4-.4-.5-.9-.5-1.4v-.9c-.5.9-1.2 1.6-2.1 2.1-.9.5-1.9.7-3 .7-4.1 0-6.2-2.3-6.2-6.9v-8.4c0-.6.2-1.1.6-1.5.4-.4.9-.5 1.5-.5s1.2.1 1.6.5c.4.4.6.9.6 1.5v8.4c0 1.2.2 2.1.7 2.6.5.6 1.2.9 2.2.9 1.2 0 2.1-.4 2.8-1.2.7-.7 1.1-1.9 1.1-3.1v-7.7c0-.6.2-1.1.6-1.5.4-.4.9-.5 1.5-.5.7.2 1.4.3 1.7.7zM695.4 693.7c-.7-.5-1.1-1-1.1-1.9 0-.5.1-.9.4-1.1.2-.2.6-.4.9-.4.4 0 .9.1 1.6.5.7.4 1.4.6 2 .7s1.4.2 2.3.2 1.7-.1 2.2-.5c.5-.4.9-.7.9-1.4 0-.4-.1-.7-.4-.9-.2-.2-.6-.5-1.1-.6-.6-.2-1.4-.4-2.6-.6-2-.4-3.5-1-4.3-1.7-.9-.7-1.4-1.7-1.4-3.1 0-1 .2-1.9.9-2.7.6-.9 1.4-1.5 2.5-1.9 1-.5 2.2-.6 3.6-.6 1 0 1.9.1 2.7.4.9.2 1.7.6 2.3 1 .7.5 1.1 1.1 1.1 1.9 0 .5-.1.9-.4 1.1-.2.2-.6.5-.9.5-.2 0-.5 0-.7-.1-.2-.1-.5-.2-.9-.5-.6-.4-1.2-.6-1.7-.7s-1.1-.2-1.7-.2c-.9 0-1.5.1-2 .5s-.7.9-.7 1.4c0 .6.2 1 .7 1.4.5.2 1.5.6 3 .9 1.5.4 2.7.7 3.6 1.1.9.4 1.5.9 1.9 1.5s.6 1.4.6 2.3c0 1.6-.6 2.8-2 3.7-1.2 1-3 1.4-5.2 1.4-2.6-.1-4.6-.6-6.1-1.6zM724.3 679.5c1.1 1.1 1.7 2.8 1.7 5.3v8.4c0 .6-.1 1.1-.5 1.5s-.9.5-1.5.5-1.1-.1-1.5-.5c-.4-.4-.6-.9-.6-1.5v-.9c-.4.9-1 1.6-1.9 2.1-.9.5-1.9.7-2.8.7-1.1 0-2.1-.2-3.1-.7-.9-.5-1.6-1.1-2.1-1.9-.5-.7-.7-1.7-.7-2.7 0-1.2.4-2.2 1-3 .6-.7 1.6-1.2 3.1-1.5 1.4-.4 3.3-.5 5.8-.5h.9v-.7c0-1.1-.2-2-.7-2.5-.5-.5-1.2-.7-2.3-.7-.6 0-1.4.1-2 .2-.7.2-1.5.5-2.5.9-.6.2-1 .5-1.4.5-.4 0-.7-.1-1-.5-.2-.4-.4-.7-.4-1.1 0-.4.1-.7.2-1 .2-.2.5-.5 1-.9.7-.5 1.7-.7 2.8-1 1.1-.2 2.2-.4 3.2-.4 2.5.2 4.2.8 5.3 1.9zm-3.4 11.5c.7-.7 1.1-1.7 1.1-3v-.7h-.6c-1.5 0-2.7.1-3.6.2-.9.1-1.5.4-1.9.7-.4.4-.5.9-.5 1.4 0 .7.2 1.4.7 1.9s1.1.7 1.9.7c1.3-.1 2.2-.4 2.9-1.2zM744.6 679.5c1 1.1 1.5 2.8 1.5 5.2v8.4c0 .6-.2 1.1-.6 1.5-.4.4-.9.5-1.6.5-.6 0-1.2-.1-1.6-.5-.4-.4-.6-.9-.6-1.5V685c0-1.4-.2-2.2-.7-2.8s-1.2-.9-2.3-.9c-1.2 0-2.2.4-3 1.1-.7.7-1.1 1.9-1.1 3.1v7.7c0 .6-.2 1.1-.6 1.5-.4.4-.9.5-1.6.5-.6 0-1.2-.1-1.6-.5-.4-.4-.6-.9-.6-1.5V680c0-.6.2-1.1.6-1.5.4-.4.9-.5 1.6-.5.6 0 1.1.1 1.5.5.4.4.6.9.6 1.4v.9c.6-1 1.4-1.6 2.3-2.1 1-.5 2.1-.7 3.2-.7 2.1-.2 3.6.4 4.6 1.5zM766 671.2c.4.4.6.9.6 1.5v20.5c0 .6-.2 1.1-.6 1.5-.4.4-.9.5-1.5.5s-1.1-.1-1.5-.5c-.4-.4-.6-.9-.6-1.5v-.9c-.5 1-1.2 1.6-2.2 2.2-1 .5-2 .7-3.2.7-1.5 0-2.7-.4-3.8-1.1-1.1-.7-2-1.7-2.6-3.1s-1-2.8-1-4.6.4-3.2 1-4.6c.6-1.4 1.5-2.3 2.6-3 1.1-.7 2.3-1.1 3.8-1.1 1.2 0 2.2.2 3.2.7 1 .5 1.6 1.2 2.1 2.1v-8.2c0-.6.2-1 .6-1.4.4-.4.9-.5 1.5-.5s1.2.5 1.6.8zm-4.7 19.3c.7-1 1.1-2.2 1.1-4s-.4-3.1-1.1-4c-.7-.9-1.7-1.4-3.1-1.4s-2.5.5-3.2 1.4c-.7.9-1.1 2.2-1.1 4s.4 3.1 1.1 4.1c.7 1 1.9 1.5 3.1 1.5 1.3-.2 2.4-.7 3.2-1.6zM774.1 694.1c-1.2-.7-2.3-1.7-3-3.1-.7-1.4-1.1-2.8-1.1-4.6 0-1.7.4-3.3 1.1-4.6.7-1.4 1.7-2.3 3-3.1 1.2-.7 2.8-1.1 4.4-1.1 1.7 0 3.2.4 4.4 1.1 1.2.7 2.2 1.7 3 3.1s1 2.8 1 4.6c0 1.7-.4 3.3-1 4.6-.7 1.4-1.7 2.3-3 3.1s-2.8 1.1-4.4 1.1c-1.5 0-3.1-.4-4.4-1.1zm7.7-3.6c.7-.9 1.1-2.2 1.1-4.1 0-1.7-.4-3.1-1.1-4.1-.7-.9-1.7-1.4-3.1-1.4s-2.5.5-3.2 1.4c-.7.9-1.1 2.2-1.1 4.1 0 1.7.4 3.1 1.1 4.1.7.9 1.7 1.4 3.1 1.4s2.4-.5 3.2-1.4zM814.2 679.5c1 1.1 1.5 2.8 1.5 5.2v8.4c0 .6-.2 1.1-.6 1.5-.4.4-.9.5-1.6.5-.6 0-1.2-.1-1.6-.5-.4-.4-.6-.9-.6-1.5V685c0-1.4-.2-2.2-.7-2.8s-1.2-.9-2.3-.9c-1.2 0-2.2.4-3 1.1-.7.7-1.1 1.9-1.1 3.1v7.7c0 .6-.2 1.1-.6 1.5-.4.4-.9.5-1.6.5-.6 0-1.2-.1-1.6-.5-.4-.4-.6-.9-.6-1.5V680c0-.6.2-1.1.6-1.5.4-.4.9-.5 1.6-.5.6 0 1.1.1 1.5.5.4.4.6.9.6 1.4v.9c.6-1 1.4-1.6 2.3-2.1s2.1-.7 3.2-.7c2.1-.2 3.6.4 4.6 1.5zM823.1 694.1c-1.2-.7-2.3-1.7-3-3.1-.7-1.4-1.1-2.8-1.1-4.6 0-1.7.4-3.3 1.1-4.6.7-1.4 1.7-2.3 3-3.1s2.8-1.1 4.4-1.1c1.7 0 3.2.4 4.4 1.1 1.2.7 2.2 1.7 3 3.1s1 2.8 1 4.6c0 1.7-.4 3.3-1 4.6-.7 1.4-1.7 2.3-3 3.1s-2.8 1.1-4.4 1.1c-1.6 0-3.1-.4-4.4-1.1zm7.6-3.6c.7-.9 1.1-2.2 1.1-4.1 0-1.7-.4-3.1-1.1-4.1-.7-.9-1.7-1.4-3.1-1.4-1.4 0-2.5.5-3.2 1.4-.7.9-1.1 2.2-1.1 4.1 0 1.7.4 3.1 1.1 4.1.7.9 1.7 1.4 3.1 1.4 1.5 0 2.5-.5 3.2-1.4zM872.4 690.8c.2.2.4.7.4 1.2 0 .7-.4 1.4-1.2 1.7-.7.5-1.6.7-2.6 1-1 .2-2 .4-2.8.4-2.7 0-4.8-.7-6.4-2.3-1.6-1.6-2.3-3.7-2.3-6.4 0-1.7.4-3.2 1-4.6.6-1.4 1.6-2.3 2.8-3.1 1.2-.7 2.6-1.1 4.2-1.1 1.5 0 2.8.4 4 1 1.1.6 2 1.6 2.6 2.8s.9 2.6.9 4.3c0 1-.5 1.5-1.4 1.5h-10.1c.1 1.6.6 2.7 1.4 3.5s1.9 1.1 3.3 1.1c.7 0 1.4-.1 2-.2.6-.1 1.2-.5 1.9-.7.7-.4 1.2-.5 1.5-.5.1 0 .5.1.8.4zm-9.7-8.9c-.7.7-1.1 1.7-1.2 3.1h7.8c0-1.4-.4-2.5-1-3.2s-1.5-1.1-2.7-1.1c-1.3.1-2.3.4-2.9 1.2zM891.4 693.2c0 .5-.2 1-.6 1.4-.4.4-.9.6-1.4.6-.6 0-1.1-.2-1.5-.7l-4.8-5.3-4.8 5.3c-.5.5-.9.7-1.5.7-.5 0-1-.2-1.4-.6-.4-.4-.6-.9-.6-1.4 0-.5.2-1 .6-1.4l4.9-5.4-4.7-5.2c-.4-.4-.6-.9-.6-1.4 0-.5.2-1 .6-1.4.4-.4.9-.6 1.4-.6s1 .2 1.5.7l4.6 4.9 4.6-4.9c.5-.5.9-.7 1.5-.7.5 0 1 .2 1.4.6.4.4.6.9.6 1.4 0 .5-.2 1-.6 1.4l-4.7 5.2 5.1 5.4c.1.4.4.8.4 1.4zM894.7 674.2c-.5-.4-.7-1-.7-1.6s.2-1.2.7-1.6 1.1-.6 1.9-.6 1.4.2 1.9.6.7 1 .7 1.6-.2 1.2-.7 1.6c-.5.4-1.1.6-1.9.6s-1.4-.2-1.9-.6zm.3 20.4c-.4-.4-.6-.9-.6-1.5v-13.2c0-.6.2-1.1.6-1.5s.9-.5 1.5-.5 1.1.1 1.5.5c.4.4.6.9.6 1.5v13.2c0 .6-.2 1.1-.6 1.5-.4.4-.9.5-1.5.5-.5 0-1-.1-1.5-.5zM903.1 693.7c-.7-.5-1.1-1-1.1-1.9 0-.5.1-.9.4-1.1.2-.2.6-.4.9-.4.4 0 .9.1 1.6.5.7.4 1.4.6 2 .7s1.4.2 2.3.2 1.7-.1 2.2-.5c.5-.4.9-.7.9-1.4 0-.4-.1-.7-.4-.9-.2-.2-.6-.5-1.1-.6-.6-.2-1.4-.4-2.6-.6-2-.4-3.5-1-4.3-1.7-.9-.7-1.4-1.7-1.4-3.1 0-1 .2-1.9.9-2.7.6-.9 1.4-1.5 2.5-1.9 1-.5 2.2-.6 3.6-.6 1 0 1.9.1 2.7.4.9.2 1.7.6 2.3 1 .7.5 1.1 1.1 1.1 1.9 0 .5-.1.9-.4 1.1-.2.2-.6.5-.9.5-.2 0-.5 0-.7-.1-.2-.1-.5-.2-.9-.5-.6-.4-1.2-.6-1.7-.7s-1.1-.2-1.7-.2c-.9 0-1.5.1-2 .5s-.7.9-.7 1.4c0 .6.2 1 .7 1.4.5.2 1.5.6 3 .9 1.5.4 2.7.7 3.6 1.1.9.4 1.5.9 1.9 1.5.4.6.6 1.4.6 2.3 0 1.6-.6 2.8-2 3.7-1.2 1-3 1.4-5.2 1.4-2.5-.1-4.5-.6-6.1-1.6zM929.9 693.5c0 .5-.2 1-.6 1.2-.5.2-1.1.4-1.9.4l-.9-.1c-3.8-.2-5.8-2.3-5.8-6.2v-7.4H919c-.6 0-1.1-.1-1.4-.4-.4-.2-.5-.6-.5-1.2 0-.5.1-.9.5-1.2.4-.2.9-.4 1.4-.4h1.7v-3.1c0-.6.2-1.1.6-1.5.4-.4.9-.5 1.6-.5.6 0 1.1.1 1.5.5.4.4.6.9.6 1.5v3.1h3c.6 0 1.1.1 1.4.4.4.2.5.6.5 1.2 0 .5-.1.9-.5 1.2-.4.4-.9.4-1.4.4h-3v7.8c0 1.7.7 2.6 2.3 2.7l.9.1c1.1 0 1.7.5 1.7 1.5zM946.4 690.8c.2.2.4.7.4 1.2 0 .7-.4 1.4-1.2 1.7-.7.5-1.6.7-2.6 1-1 .2-2 .4-2.8.4-2.7 0-4.8-.7-6.4-2.3-1.6-1.6-2.3-3.7-2.3-6.4 0-1.7.4-3.2 1-4.6.6-1.4 1.6-2.3 2.8-3.1 1.2-.7 2.6-1.1 4.2-1.1 1.5 0 2.8.4 4 1 1.1.6 2 1.6 2.6 2.8s.9 2.6.9 4.3c0 1-.5 1.5-1.4 1.5h-10.1c.1 1.6.6 2.7 1.4 3.5s1.9 1.1 3.3 1.1c.7 0 1.4-.1 2-.2s1.2-.5 1.9-.7c.7-.4 1.2-.5 1.5-.5.2 0 .5.1.8.4zm-9.7-8.9c-.7.7-1.1 1.7-1.2 3.1h7.8c0-1.4-.4-2.5-1-3.2s-1.5-1.1-2.7-1.1c-1.3.1-2.2.4-2.9 1.2z"/></g></svg>