<?xml version="1.0" encoding="utf-8"?>
<!-- Generator: Adobe Illustrator 25.3.1, SVG Export Plug-In . SVG Version: 6.00 Build 0)  -->
<svg version="1.1" id="Capa_1" xmlns="http://www.w3.org/2000/svg" xmlns:xlink="http://www.w3.org/1999/xlink" x="0px" y="0px"
	 width="800px" height="600px" viewBox="0 0 800 600" style="enable-background:new 0 0 800 600;" xml:space="preserve">
<style type="text/css">
	.st0{fill:#020203;}
	.st1{fill:#CDCCCC;}
	.st2{fill:#FFFFFF;}
</style>
<path class="st0" d="M399.3,351.6c-1.2-0.7-2.8,1.4-1.8,2.4C398.9,354.6,400.5,352.6,399.3,351.6z M393.4,354.8
	c1.2,0.6,2.3-1.5,1.5-2.5C393.4,351.1,392.1,354.1,393.4,354.8z M387.9,354.9c-1.5-0.6-1.9,0.2-1.5,1.4
	C387.6,356.8,388.5,356.3,387.9,354.9z M417.9,357.9c-0.1,1.7-0.5,3.2-1.6,4.6c-1.8-1-2.9-2.2-3.5-3.9l-1.8-1.1
	c0.8,2.6,1.8,5.9,4.7,7c2.9,0.1,3.3-3.4,3.6-5.5c-0.3-0.2-0.4-0.3-0.7-0.5C418.4,358.2,418.2,358,417.9,357.9z M410.3,361.7
	l-0.5-0.4c0.7,2.9,3.4,5.2,6.7,5.6C414.8,365,412.6,363.3,410.3,361.7z M383.4,365.8c0.3,0.5,0.5,1.1,0.8,1.8
	c0.7-0.3,1.8-0.7,2.7-1.1l-2.6-1.4c0.5-1.1,1.1-2.5,1.7-3.6c-1.2,1.1-2.2,2.7-3.7,3.5c-0.5-0.8-1.2-1.8-1.8-2.9
	C379.3,364.4,381,366.6,383.4,365.8z M429.8,368.5c-0.4,1.9,0.6,3.6,3.2,4.7l0.4,0.3C432.6,371.6,432,369.1,429.8,368.5z
	 M427.3,372.6c0.7,1,1.4,1.9,2.3,2.9l0.2,0.1c0.5-0.4,1.2-0.7,1.8-1.1c-0.8-1-1.8-1.9-2.6-2.9C428.5,371.9,427.8,372.3,427.3,372.6
	L427.3,372.6z M375.2,378.2c1.4,1,2.9-1.5,1.8-2.6C375.7,374.6,374.1,377,375.2,378.2z M440.1,384.4c-1.4-3.5-3.9-6.2-6-8.2
	c0,3.3,1.9,7.2,5.6,8.2H440.1z M376,381.4v0.2c1.2,0.3,3.4-1,3.3-2.5C378.1,378.2,375.8,380,376,381.4z M410.7,379.6
	c-0.7,0.7-1.8,1.4-2.5,2.1c-2.9,0.3-6-0.2-8.8-0.6c1.2,2.1,3.4,2.9,5.7,2.8c2.2,0,4.2-0.6,5.9-1.1
	C410.8,381.9,410.8,380.6,410.7,379.6L410.7,379.6z M431.6,380.3c0.2,3.3,2.7,6.4,5.7,7.2c-0.7-2.7-2.5-4.9-5.3-7L431.6,380.3
	L431.6,380.3z M278.4,382.4c-1.1-0.3-2.2-0.6-3.4-1c-0.4,1.8,1.1,2.2,2.3,2.7C277.6,383.6,278.1,382.9,278.4,382.4z M397,382.3
	c-2.7,1.4-5.5,0.3-8.2,0c1.6,1.9,3.7,2.9,6.1,2.9c0.7,0,1.7-0.2,2.3-0.4C397.2,384.1,397.2,383,397,382.3L397,382.3z M381.6,383.1
	c0.5,1.1,1.6,2,2.9,2.3c1.8,0.3,3.6-0.3,4.9-1.5l-1.8-1.4C385.8,383.8,383.6,383.4,381.6,383.1z M428.5,384.8h-0.3
	c1,2.7,3.4,4.7,6.2,5C433.1,387.4,431.1,384.5,428.5,384.8L428.5,384.8z M397.7,387.9c2.1-0.3,5.2,0.5,5.2-2.6
	c-1.8,0.3-3.5,0.4-5.2,0.6V387.9z M403.1,388.4c2.5,1.8,6.4,1,6.6-2.4c-1.8,1.2-3.9,2.1-6,2.3L403.1,388.4z M392.6,386.5
	c-2.2,0.6-4.2,0.8-6.5,0.7c1.1,2.7,4,2.7,6.6,1.8L392.6,386.5z M377.7,387.5l0.1-0.3c-2.2-0.5-2.9,1.8-3.5,3.5
	C375.9,390.3,377.1,389.1,377.7,387.5z M391.8,391.3l-0.5,0.4c2.4-0.1,6.1,1.1,6.8-2.1C395.6,389.7,393.4,390.3,391.8,391.3z
	 M375.8,393.8l-0.2,0.4c2.1-1.2,3.6-2.9,4.3-5.2C378,390,376.3,391.8,375.8,393.8L375.8,393.8z M365.8,389.8l0.1-0.3
	c-1.8,0.3-3.2,1.2-4.1,2.9C363.7,392.4,365.6,391.4,365.8,389.8z M363.1,396.4c1.8-0.8,3.6-1.6,4.5-3.4c-1.6,0.4-3.1,0.8-4.5,1.2
	V396.4L363.1,396.4z M354.3,393.4l-0.2-1.1l-0.3,0.5c-1,1.8-0.3,5.2-2.7,5.7c-2.2-0.8-1.1-4.1-1.8-5.9c-1.1,1.2-1.7,3.3-1.2,4.9
	c0.3,1.7,2,3.4,3.7,2.9c1.1-0.4,1.8-1.8,2.2-2.9C354.6,396.4,354.6,394.8,354.3,393.4z M341,402.3c-0.8,3.2-4.1,5.5-7.7,5.2
	c-2.2-1.1-2.9-3.5-3.3-4.9c2.6-0.3,5.3-0.4,7.3-2.3c0.1-3.3-4.2-2.7-6.5-2.2c0.7-0.8,1.7-1.4,2.7-1.8c-0.4-0.3-1-0.7-1.6-1
	c0.6-1,2.2-1.1,2.9-1.8l0.5-0.4c-1.7,0.2-3.3,0.3-4.9,0.4v3.3l-0.6-0.3c-0.5,3.8-1.8,8.1,0.3,11.6c3.3,2.1,8.1,0.1,10.2-1.6
	c1,0.6,2,1.1,2.9,1.8c-0.8-1.8-1.8-3.5-2.4-5.2L341,402.3L341,402.3z M376,397.8l-0.4,0.5c2.7-0.6,4.9-2.6,6.4-5.2
	C379.7,394,377.7,395.5,376,397.8z M325,396c-0.8,1.7-1.8,3.3-3.7,3.3c-0.3-1.8-0.6-3.7-1-5.5c-0.6,1.8-0.5,3.8-0.4,5.7
	c0.7,0.8,1.7,1.8,2.4,2.6c3.3-1.6,3.5-5,3.5-7.4C325.5,395,325.3,395.6,325,396z M402.4,398.6l-0.2,0.3c2.2,1.1,4-0.8,4.6-3.1
	C405.2,396.1,403.8,396.9,402.4,398.6L402.4,398.6z M362.1,398.9c2.1,0.3,4.1,0.3,5.7-1.5l0.3-0.3
	C365.8,396.7,363.5,397.3,362.1,398.9z M354.1,401.9c2-0.3,5-2.7,3.3-4.9C356.1,398.7,355.3,400.3,354.1,401.9z M306.2,457.8
	c-2.6-1.1-1.7,3.3,0.1,3.2c0.5,0,1-0.4,1-1C307.4,459.1,306.8,458,306.2,457.8z M298.9,460c0.5,0,1-0.4,1-1c0.2-0.7-0.4-1.8-1.1-2.2
	C296.3,455.7,297.2,460.2,298.9,460z M421.8,403.8l-0.4,0.5c2.5,1.1,3.5-1.4,4.5-3.2C424,400.8,422.8,402.5,421.8,403.8z M441.5,403
	c-1.5,0.5-2.1,1.9-2.6,3.3C440.7,406.2,442.3,404.8,441.5,403z M430.7,406.8c1.4,0.2,2.2-2,1.2-2.9
	C430.3,402.4,428.8,406.2,430.7,406.8z M352.1,440.1c0.4,1.5,3.8,1.2,3.1-0.7C354.5,438.3,351.9,438.4,352.1,440.1z M412.1,457.8
	c-0.4-0.5-1-1-1.4-1.6l1.2-1.8c-3.8,0.3-7.2,0.3-10.4,0.2c0.3,1.9-0.1,4.1,1.1,5.7c1.1,0,2.1-0.4,3.1-0.7c0.4,0.3,1.2,0.8,1.8,1.1
	l2.2-2.1c1.5,1,3.3,0.7,4.7-0.7c0.5,0.2,1.2,0.3,1.8,0.4c-0.4-0.4-1-0.7-1.1-1.2c1.9,1.2,6.3,3.6,10.1,1.4c2-3.6,0.7-7.7,0.3-11.6
	l-0.6,0.3V444c-1.7-0.2-3.2-0.4-4.9-0.4l0.5,0.4c0.8,0.7,2.4,1,2.9,1.8c-0.5,0.4-1.1,0.7-1.6,1c1,0.4,1.9,1,2.7,1.8
	c-2.2-0.4-6.6-1.1-6.5,2.2c1.9,1.9,4.7,2.1,7.3,2.3c-0.3,1.5-1.1,3.8-3.3,4.9c-2.7,0.1-5.2-1-6.6-2.9v-0.4c-0.2-0.5-0.2-1-0.1-1.6
	c-0.3,0.1-0.5,0.1-0.8,0.2l-0.3-0.6l-0.2,0.7c-1,0.2-1.8,0.3-2.7,0.4c0.6,0.4,1.2,1,2,1.4C413,455.9,412.7,456.9,412.1,457.8
	L412.1,457.8z M402.3,450.9c2.2-1.3,3.5-4.1,3.3-6.9c-1.1,1.4-2.1,2.9-3.3,4.2c-1.6,0.2-2.2-1.6-3.2-2.6
	C398.8,447.7,399.9,449.5,402.3,450.9z M428.8,447c1.7-1,2.4-2.9,2.2-4.9c-0.7,1-1.5,2-2.2,2.9c-1,0.1-1.5-1.1-2.2-1.8
	C426.3,444.9,427,446.1,428.8,447z M312.5,476.6c1.6,0,1.5-2.3,0.4-2.9C311,472.7,311,476.3,312.5,476.6z M333.3,503.3
	c-1.1,0.1-1.8,1.2-1,2.2c0.3,0.4,0.6,0.6,1.1,0.6s1.1-0.4,1.2-0.8C335.1,504.4,334.3,503.2,333.3,503.3L333.3,503.3z M350,499.6
	c-0.1,1.4,0,2.9,0.4,4.3C352.7,503.1,351.9,500.5,350,499.6z M354,499.5c-0.4,1.2-0.8,2.7-0.4,4.2
	C355.9,503.2,355.7,500.6,354,499.5z M333.8,502.2l-0.2-2.4c-1,0.2-1.9,0.3-2.9,0.5c0.3,1.5,1.8,1.7,2.9,1.8L333.8,502.2z"/>
<ellipse class="st1" cx="557.4" cy="549.5" rx="83.5" ry="20.6"/>
<path class="st0" d="M455.4,520.5c-0.3-0.1-0.4-0.2-0.6-0.1c0.1-0.3,0.2-0.4,0.3-0.7c-0.3-1.1,0.3-2.2,1.1-2.9
	c0.4-1.8,0.4-3.4-1.5-4.5c0.4,2.9-0.4,5.7-2.4,7.8c-3.3-11-4.6-22-7.5-32.9c-3.8-13.1-6.2-27.1-7.4-41.3c-0.4-4.1-0.7-8.1-3.7-11.1
	c-1.5-1.1-2.1-2.7-2.8-4.2c-0.6-1.5-1.2-2.9-2.6-4.2l-0.1-0.1c-1.4,0-2.9,0.1-4.3,0.2c-0.7,1.5-1.2,2.9-1.5,4.7
	c-5.7,0.3-11.5,0.1-17.1,1.2c-1-1.6-2-2.9-2.9-4.3c-3.3-0.3-6.2,1.8-6.8,4.7c-0.6,2,0.8,3.6,1.8,5.2c-7.6,9.7-13.3,24.1-15.7,37.5
	c-0.4,2.2-0.7,4.5-1.4,6.7c-0.8-2.6-0.7-5.2-1.1-8c-2.8-15-2.2-30.2-3.4-45.4c0.3-6.7-0.4-13.6-1-20.1c-0.3-3.2-0.6-6.4-0.7-9.7
	c-0.1-3.6-2.2-7.2-1.2-10.9c1-5.5,1.2-11,2.3-16.4c4.5,0.6,9.1,1,12.7-1.7c1,1.2,3.3,3.6,5.7,1.8c-0.4-0.8-1-1.8-1.2-2.4
	c0.4-0.4,0.8-1,1.2-1.4c0.3,1.1,0.6,2.2,1.1,3.3c0.5-2.3,2-5.2,0-7.2c1-0.4,1.8-0.8,2.7-1.2c-0.7-0.5-1.6-1-2.3-1.6
	c-1.4,1.2-3.3,1.7-4.9,2.2c-0.3-1-0.5-2.3-0.7-3.2c2.9-1.2,6.4-1.5,9.7-0.5c0.6,2.8,0.7,5.9,3.1,7.8c4.7,4.9,11.9,5.2,15.8,4.7
	c8.7-0.8,13.3-7.4,11.1-15.5c0.3-0.3,0.8-1,1.1-1.2c5.5,8.7,9,17.8,12,27.1c1.6,4.3,3.2,8.8,3.7,13.6c-16.5,7.5-33.7-9-46.5-3.5
	c-5.5,3.6-9.5,8.8-15.2,12.2c-2.8,1.4-5.7,2.1-8.7,3.3c0.1,3.2,2.7,5.6,5.2,6.7c2.5,0.4,4.9,0,7.6-0.6c0.5,1.5,0.1,3.6,2,4.2
	c2.7,1.2,5.2-0.4,7.3-1.8c0.3,2.2,0.6,5.9,3.7,5.7c3.1,0.5,4.9-2.2,7-3.9c0.4,1.6,0.5,3.3,1.6,4.6c1,1.8,3.2,0.8,4.9,1
	c1.1-1.2,2.3-2.7,3.7-4.3c0.6,2.2,1.6,4.1,2.7,5.6h2.8c1.2-1.7,2.6-3.3,4.2-5.5c0.3,1.8,1.8,5.2,4.5,4.3c1.1-1,2.1-2.2,2.9-3.4
	c0.7,1.1,1.1,2.9,2.7,3.4c1.2,0.6,2.9,0.5,3.6-0.7c3.8-4.7,5.2-10.7,6.8-16.4c1.6,4.1,2.1,8.2,2.9,12.4l2-1.2
	c-1.1-5.1-2.5-10-3.3-15.2c0.4,0,1,0.1,1.4,0.1c-0.2-0.4-0.3-0.8-0.3-1.2c-0.1-0.4-0.2-0.7-0.2-1c-0.4,0-1,0-1.3,0.1
	c-1.8-8.2-4.5-16.2-6.7-22.1c0.2-0.2,0.4-0.3,0.6-0.4c-0.3-0.6-0.4-1.2-0.3-1.9c0-0.3,0-0.6,0.1-0.8c-0.4,0.3-0.7,0.4-1,0.6
	c-1.8-4.2-3.3-8.7-4.9-13.1c0.3-0.2,0.4-0.2,0.6-0.3c-0.6-0.7-0.8-1.8-0.7-2.9c-0.3,0.2-0.6,0.2-1,0.3c-1.4-2.6-2.9-4.9-4.2-7.4
	c0.8-0.5,1.8-1.2,2.9-1.2c3.3-0.3,5.3,3.1,7.7,5c-0.3-2.9-2.8-5.5-4.9-6.7c-2.5-1.4-5,0.2-7.4,1c-1-1.2-1.8-2.6-2.7-4
	c0.5-4.7,0.5-9,0.1-13.2c0.1,0,0.2-0.1,0.2-0.1c-0.3-0.7-0.3-1.6-0.2-2.3c-0.3,0.2-0.6,0.2-1,0.3c-0.2,1.2-0.8,2.5-2.1,3
	c0.4-0.1,0.7-0.2,1.1-0.3c-2.7,3.7-4.9,6.7-6.8,9.5c-0.1-0.2-0.1-0.3-0.2-0.4c-0.6,0.7-1.6,1.2-2.9,1.2c-0.4,0-0.9-0.1-1.2-0.3
	c-11.5,1.4-22.9,3.6-34,5.7c-1-1.1-1.7-2.5-1.9-3.9c-3.5,0.2-5.3-3.3-7.7-5.2c-0.3,0.7-0.5,1.2-0.8,2v0.2c1.1,4.3,3.5,8.2,5.2,12.5
	c-1.1,2.5-4.7,2.8-6.8,4.1c-0.3,2.2-0.7,4.6,0.1,6.7c1,1.4,2.2,2.5,3.2,3.9c-0.1,5.3-1.1,10.6-1.8,15.9c-0.4-0.5-1-1.1-1.5-1.8
	c0.3-2.2,0.3-4.3,0.3-6.7c-3.7-1.8-6.1,1.9-8,4.6c-1.5-0.2-2.9-0.3-4.2-0.4c-0.5-1-1.1-2.1-1.8-3.1c2.1-2.2,3.4-4.7,3.9-7.2
	c-5.7-3.6-12.7,1.5-14.8,3.3c-1.9-0.3-4.1-0.3-5.7-1.2c-2.9-1.6-6.2-2.4-10.1-2.6c-1.8,0.1-2.9,1.8-4.1,3.3c0.8-0.2,1.8-0.3,2.6-0.5
	c4.7-1.6,8.7,0.7,12.5,3.3c-0.5,2.1-1,4.1-1.4,5.9c-1.2-0.5-2.6-1-3.9-1.5l0.3,1.8c-1.5-0.3-2.9-0.7-4.2-1.1c1-0.7,2.1-1.7,3.3-2.5
	c-2.4-1.5-5.5-2.2-6.8-4.9c-0.5,0.4-1.1,1-1.8,1.4c1,1.1,1.8,2.2,2.7,3.3c0,1.6,0,3.1,0.1,4.3c-2.6,0.2-5,0.4-7.6,0.3
	c-0.5-0.3-1.1-0.7-1.6-1.1c-1-1-1.9-1.8-3.3-1.8c-2.5,1-2.9,3.9-3.2,6.4c-0.3,4.7-1,9.4-1.5,14c-0.7,6.3-0.4,12.5-1.2,18.9
	c-6-5.5-8.7-13.8-15.5-18.3c-2.9-2.1-6.6-2.2-10-2.8c0.1-1,0.2-1.9,0.3-2.9c1.9-0.7,3.9-1.5,5.7-2.4c-1.4-0.8-2.9-1.7-4.2-2.4
	c0.2-2,0.4-4.1,0.3-6.2c-0.6-3.5-2.9-6.7-6.1-8.5c-2.3-1.1-4.3,0.4-6.2,1.7c-1.1,0.8-2.7,0.2-4.1,0.3c0,0.5,0.1,1.5,0.1,2.1
	c-0.7,1.2-1.1,2.9-1.2,4.6c0.7-0.6,1.4-1.2,2.1-2c-0.1,0.2-0.1,0.3-0.2,0.3c0.3,1,0.4,1.8,0.5,2.8c1.1,6.6,1.8,8.7,8.8,9.7
	c0.3,1.2,0.6,2.6,1,3.9c-2.9,1-5,4.9-4.2,7.7c2.4,2.9,6.2,2.7,9.2,4.1c5.5,7.2,8.4,15.9,15.3,21.8c2.1,1.9,4.2,4,7.1,4.5
	c-0.1,1.4-0.3,2.8-0.4,4.2c-3.7,0.6-8.2,1.9-10.8,5.5c-2.7,3.6-4.6,7.7-5.5,12c-1.4,6.1,0,12.2,0.4,18.2c-6.5,0.3-11.3,1.8-14.8,4.9
	c-2.9,2.2-4.2,5.7-5.5,9c-6.3,1.3-13.6,3.5-18.8,8.2c-6.8-2.9-14.5-4.9-22.7-5.7c0.1,0.7,0.3,1.3,0.3,2c11.7,1.1,23.7,4.7,34,12.6
	l1.5-1.8c-3-2.4-6.4-4.4-10-6.3c5.2-3.3,11.4-7,18.4-7.4c7.4-0.7,15,3.3,18.6,9.8c1.8,3.3,1.4,7.1,1.7,10.7
	c-2.8,0.1-4.2,2.3-5.6,4.3c-1.5,2.2-2.8,4.2-5.6,4.1c-3.2,0.2-5.3-2.6-8.1-3.6c-2.4-0.8-4.1,1.4-5,2.6c1.8,0.4,3.5-0.6,5.2-1.2
	c3.3,2.1,6.7,4.7,10.8,4c2-1,3.2-2.8,4.2-4.5c1.1-1.8,2.1-3.3,3.9-4.2c-0.1,3.3-1.5,6.2-1.9,9.2c1.5-0.2,1.8-1.8,2.5-2.9
	c1.5,2.8,4.9,2.1,7.4,2.2c0.1-0.3,0.2-0.6,0.2-0.8c-2.9,0.4-6.5-0.6-7-3.7c0.4-2.9,1.8-5.5,1.9-8.2c0.2-2.7-0.7-5.3-1.8-8.1
	c3.7-1.5,9.1-2.7,13.7-0.4c6.3,2.6,11.6,8.5,14,15.8c-0.2,0.2-0.4,0.4-0.5,0.7c-5,1.1-10,2.7-12.6,6.8c1.5-0.3,2.9-0.5,4.2-1.4
	c6-4,13.3-4.2,20.6-4.2c4.9,0.1,9.1,2.3,13.7,2.9c-0.8-5.2-2.2-10.4-2.9-15.6c1,0.8,2,1.8,3.2,2.9c0.3,4.2,1.1,8.7,1.8,12.2
	c0.3-0.3,0.7-0.7,1.1-1c-0.4-3.5-0.7-7-1.1-10.6c1.1,0.3,2.9,0.2,3.1,1.2c0.4,3.3,0.7,6.7,1.8,10c4.5-4.1,8.2-9.1,13.7-11.7
	c3.5-1.7,8-1.6,13.2,0.2c3.9,1.2,6.4,4.6,9.4,7.3c-0.4,0.4-0.7,1-1.1,1.5c0.4,0.3,0.9,0.6,1.2,1l0.4,0.4c2.7-1.9,6.3-3.2,9.8-1.3
	c-0.6,2.3-0.8,3.9-1,5.7c2.4-2.9,3.3-6.6,5.5-9.7c2.9-4.2,6.2-8.5,10.7-10.7c4.9-2.4,12.1-2.9,16.9,1.4c2.6,1.9,4.5,4.5,6.4,7
	c2.3,3.1,4.9,6.3,8.4,8.2c1.1,0.3,2.2,0.3,3.5,0.4l-1.8,2.6c2.2-0.4,4-1.8,5.3-4c1.7,1.1,2.9,2.1,4.1,3.2
	C457.7,523.7,456.5,522.1,455.4,520.5L455.4,520.5z M391.9,363.7c0.4,0.4,1.1,1,1.6,1.2c-0.3,0.3-0.4,0.5-0.7,0.7
	c-0.8,1.1-1.8,2.1-2,3.5c-0.1,0.5-0.3,1.1-0.5,1.2s-0.3,0.1-0.5,0C388,368,390.2,365.7,391.9,363.7L391.9,363.7z M439.6,422.2
	l-1.7-1.1c0.3-0.4,0.5-0.7,0.7-1.1c1-1.4,1.9-2.8,2.1-4.6c-1.4,1-2.2,2.7-3.3,4c-0.2-1.9-0.7-4.5,1.1-5.7c2.2-1.7,4.7-3.6,6.2-6.3
	c0.3,0.3,0.5,0.6,0.8,1C444.6,414,442.5,418.6,439.6,422.2L439.6,422.2z M446.4,397.6c0.4,2.2,0.3,4.3,0.2,6.6
	c-0.1,0.6-0.2,1.1-0.2,1.8c-0.7,0.4-1.6,0.5-2.4,0.4c-2.4,2.2-4.6,4.9-8,5.5c-0.4-2.9-0.1-5.5,1.1-7.7c-3.5,1.8-6.1,4.9-9.7,6.5
	c-0.4-2.9-0.3-5.7,0.5-8.2c-3.8,2.3-7.4,5.3-11.9,6.3c0.2-2.9,1.6-5.5,2-8.2c-3.8,2.2-7.2,5.7-12,5.6c0.1-2.7,1.4-4.9,2-7.4
	c-2,0.7-4,1.9-5.7,2.9c-1.4,0.8-2.8,1.8-4.2,2.4c-0.7-0.1-2.1-0.1-2.8-0.2l-1.1,1.8c3.6,2.6,7-1,10.2-2.5c0.1,1.2,0.2,2.6,0.3,3.9
	c3.3,3.3,7.1-0.2,10.2-1.8c-0.2,1.4-0.3,2.9-0.4,4.2c0.5,0.4,1.5,1.1,2,1.5c3.3-0.7,6.1-2.7,8.7-4.5c0.2,2.4,0.1,5,2.2,6.7
	c2.3-1.1,4.2-2.9,6.2-4.5c0.2,1.1,0.3,2.4,0.4,3.6l2.2,2.2c-1.1,2.3-2.5,4.9-4.3,7c0.3-2.2,0.4-4.6,0.2-6.8c-1.8,1.2-1,3.2-1,4.9
	c-2.1-1-1.4-4.2-1.7-6.3c-3.3,2.7-3.5,8-7.4,9.8c0.6-3.1,2.1-6,1.8-9.2L422,415c-0.2,2-0.3,4.1-1.2,5.9c-0.7-2.5-1.1-5.2-1.1-7.8
	c-1.8,2-2.9,4.2-4.6,6.3c-1,1.1-2.1,2.5-3.7,2.2c1.1-2.9,3.8-5.2,3.6-8.7c-1.8,1.8-2.5,4.5-4,6.7c-1.1-2.2-0.6-4.9-0.7-7.3
	c-3.1,2.5-5.2,7.7-9.7,7.4c2.1-2.8,4.6-5.5,5.2-9.2c-2.2,2.1-3.2,5.2-5.5,7.2c0.2-2.1,0.4-4.1,0.5-6.2c-1.8,0.7-3.3,1.8-4.9,2.9
	l-1.8,1.2c-0.4,0.5-1.8,1-2.5,0.6c-0.3-0.2-0.4-0.4-0.4-0.7c3.1-2.2,6.4-4.2,8-8c-2.5,1.8-4.5,4.1-7.1,5.7l0.5-3.4
	c-4,0.1-7.3,2.9-11.2,2.9c3.5-3.1,9.7-2.9,11-8.2c-3.8,3.3-8.7,5.2-13,7.5c-0.6-0.7-1.1-1.8-1.8-2.6c5.7-1.2,11.2-4.2,16.2-8.7
	c0.1,1.2,0.1,2.9,0.2,4.1c1.2-1.1,1.5-2.7,1.6-4.2c0-0.5,0.1-1.1,0.2-1.8c2.7-3.3,5.5-5.2,8.2-5.6c12,0,22.3,8.1,34.5,6.8
	C441.6,400.3,444.8,400.3,446.4,397.6L446.4,397.6z M424.4,366.9c-4.6,2.9-11,3.4-17.7,1.4c-2.7-0.7-4.9-2.9-5.7-5.7
	c-0.5-2.5,2.1-3.9,4.1-5c4-1.9,7.7-2.9,11.2-2.9c4.6,0.1,10.9,1.9,10.8,7.4C427,364,425.9,365.8,424.4,366.9L424.4,366.9z
	 M374.1,348.1c1.9,1.2,3.3,3.2,4.6,5c3.1,0.1,6.2-0.6,9.2-1.2c10.7-2.3,22.1-4.9,34-5.2h0.1c1.2-1.5,2.1-3.5,3.6-4.9
	c-0.2,1.9-0.5,3.8-0.4,5.7c0.8,2,2.2,3.7,3.3,5.5l-1.2,1.8c-4.1-3.4-9.8-4.1-17.6-2.2c-2.7,0.6-5,2.2-7.7,2.9
	c-0.8,0.8-1.7,1.9-2.6,2.7c-4.3-0.8-8.2-0.7-11.7,0.4c-3.8-1.9-6.8-2.8-10.5-2.4C377.4,353.2,375.1,350.9,374.1,348.1L374.1,348.1z
	 M376.6,359.2l0.2-0.1c2.9-0.1,6.1-0.3,8.7,1.6c1.2,0.7,2.4,2.2,2.6,3.6c0.1,0.7,0,1.8-1,2.6c-3.6,4.1-9.7,2.9-12.2,2.2
	C375.4,365.7,375.8,362.5,376.6,359.2L376.6,359.2z M437.7,471.9c-1.4,1.8-4.2,4.9-7.7,4.2c-0.6-0.6-1.1-1.8-0.6-2.7
	c1.8-2.4,4.2-4.2,7.2-5C437,469.9,437.3,470.8,437.7,471.9z M428.4,477.9c-2.9,2.3-5.2,5.2-7.7,7.7c1.1-5.2,2.7-10.2,4-15.3
	c3.4-2.4,6.3-5.5,10-7.7c-0.5,1.7-1.1,3.3-1.8,4.9c-0.4,0.5-1,1-1.6,1.4C427.4,471.7,428,473.8,428.4,477.9z M417.3,479.1
	c0-3.2-3.9-5-6.7-4.1c-1.2,0.5-2.2,1.5-3.3,2.2c-0.8-1.8-1-3.7-1.1-5.6c5.7-0.2,11.2-0.5,16.9-0.6c-1.6,5.3-3.1,10.8-4.5,16.2
	c-2.8,0.7-5.6,1.1-8.2,1.2c1.4-1.9,3.1-3.6,4.1-5.9C414.9,481.2,416.3,480.1,417.3,479.1L417.3,479.1z M437.2,467.4
	c-0.8-0.3-1.8-0.4-2.7-0.5c0.4-1.4,1.1-2.7,2.1-3.7C436.7,464.3,437,465.6,437.2,467.4z M370.1,362.5c1.1-0.6,2.4-1.2,3.6-1.8
	c-0.2,0.8-0.3,1.8-0.4,2.7c-0.3,1.5-0.5,2.9-0.7,4.5C370.1,366.8,369.9,364.1,370.1,362.5L370.1,362.5z M346.3,375.8
	c2.7-2.2,5.9-3.1,8.1-3.4c0.8,0.4,1.7,0.8,2.4,1.4c-1.4,2-3.3,3.6-5.2,5.2c-0.6,0.5-1.2,1-1.8,1.6c1.6,0.3,3.4,0.4,4.2,1.8
	c-3.4,1.2-6.7-2-10.1-0.4C344.5,379.8,344.4,377.1,346.3,375.8z M343.8,377c-0.4,1.9-0.7,3.9-1.2,5.7c-1,0.4-2,0.6-3.1,0.7
	C339.7,381.4,340.7,377.7,343.8,377L343.8,377z M277.3,394.9c-1.8-0.4-3.4-1-4-2.7c-1.6-3.8-1.6-7.8,0.1-10.8
	c0.7-1.8,2.7-2.9,4.9-2.9c2.4,1.6,6.3,4.9,6.3,10c-1.8-0.2-3.6-0.4-5.5-0.6c-1,0.6-1.7,1.4-2.3,2.2c0.4,1.8,0.7,3.4,1.1,5
	C277.8,395,277.5,394.9,277.3,394.9z M278.3,390.6c0.1-0.5,0.4-1,1-1.4c1.4,0.3,2.9,0.4,4.9,0.4c-0.1,1.1-0.2,2.4-0.2,3.6
	c0.3,0.4,1,1.2,1.2,1.8c-1.7,0.3-3.3,0.3-4.9,0.3C279.5,393.8,278.1,392.1,278.3,390.6L278.3,390.6z M282.7,400.3
	c-0.6-0.1-1.2,0-1.9,0.3v-0.2c0-1,0.1-2.6,0.2-3.6C282.7,396.8,282.6,398.8,282.7,400.3L282.7,400.3z M298.1,428.6
	c-5.2-5.7-7.4-13.2-12.6-18.6c-2.8-1-6.7-0.7-8.2-3.7c2.2-4.2,8.1-4.9,12.5-3.3c9.5,4.1,12.2,14.7,19.6,20.9
	c-0.4,2.9-0.6,5.7-0.8,8.7c-0.1,1.5-0.2,2.9-0.3,4.3C304.1,435.2,301,431.9,298.1,428.6z M304.2,500.3c-3.6,0-6.6,0.4-9.2,1.5
	c-1,0.7-1.5,0-1.8-0.8c-2.1-3.4-5.3-6.2-9.5-7.7c-3.3-1.2-6.7-0.7-10-1.2c3.6-8.1,9.7-11,18.7-11.2
	C303.5,481.2,309,490.4,304.2,500.3L304.2,500.3z M324.2,520l-1.4-1.1c-0.1-2.5-0.2-4.7-1.2-6.6c-3.2-5.5-8.7-9.7-15.3-12
	c2.1-4.9,0.5-10.6-0.6-13.4c-1.9-4.9-7.1-6.4-11.3-8.7c-0.5-3.9-1-8.2-1.1-13.2c0.1-8.7,8.4-21.8,18.4-17.6c4.2,2.5,6,7.8,7.2,11.7
	c0.8,2.9,2.6,6.2,1,9.1c-3.4,1-7.1,0.3-10.6,0.5c0.4,0.4,1,1,1.5,1.6c3.6-0.4,7.4,0.7,10.8-1.4l2.1,9.4c-4.2,1.8-9.4,1-13-2.2
	c0-2.3,0.5-4.9-1.2-6.7c-1.7,6.5,1.4,12.7,2.7,19.1l-2.9,0.4c0.3,3.4,2.9,5.5,5.5,7.3c1.1,0.8,1.2,0.8,0.7,2.3
	c-1.1,2.5,1,3.2,2.7,4.2c0.1,0.8,0.3,1.8,0.4,2.9c0.4,0.6,1.1,1,1.8,1.2c1,0.4,1.8,0.8,1.8,1.9c0.2,1.8,1.8,2.6,3.1,3.4
	c0.1,0.6,0.3,1.8,0.3,2.2c1.1,1.2,2.5,2.7,3.1,4.2C326.8,519.4,325.4,519.6,324.2,520L324.2,520z M321.3,481.2l2.3-0.7
	c1,2.9,1.6,5.9,2.2,9.4c-1.7-0.4-3.6-0.4-4.9-1.8C321.3,486,321.5,483.9,321.3,481.2z M319.8,487.9c-0.6,0.3-1.2,0.2-2.1-0.3
	c-0.3-2.2-0.5-4.3-0.7-6.6C320.6,480.6,319.8,485.3,319.8,487.9L319.8,487.9z M315.8,487.8c-0.7,0-1.8,0-2.4,0.1
	c-0.7-2.7-1.1-5.3-1.8-8c1.4,0.4,3.1,0.5,3.6,2C315.8,483.8,315.6,485.9,315.8,487.8L315.8,487.8z M345.4,522.1
	c-4.1-1.6-8.1-2.2-12.2-3.1c-1.2-1.7-4.9-2.7-3.2-5.2l-0.3-0.1c-0.4-0.3-1.2-0.5-1.8-0.7c2.3-2.9-1.9-3.1-4.1-3.6
	c0.6-0.8,1.1-1.7,1.8-2.5c-1.7-1-3.5-1.2-5.3-1.8c-0.2-1.4,1.9-1.9,2.4-3.2c-1.8-1-3.8-1.7-5.7-2.3c1.8-1,3.6-1.8,4.6-3.7
	c-3.5-1-7.4-1.9-9.7-4.9c4.9-0.7,9.7-0.3,13.7,1.4c-1,5,0.4,10.9,4.2,17.1c1.2,1.9,2.9,4.7,5.7,3.6c-5.7-4.9-9.1-12.5-8.8-20.4
	c2.3,0.7,4.9,0.3,7.2,1.1c1.7,7.5,2,15.3,2.6,22.9c0.2,1.2,0,2.9,1.8,3.3c-0.2-10.5-1.5-20.7-2.2-31.1c-1-7.4,0-14.4,8.4-16.7
	c11,0.1,11.7,12.3,13.6,20.4c-0.4,0.6-0.8,1.4-1.2,2.1c-2.4,0.1-5.2,0.1-8.1-0.6c-1.5-0.3-2.9-1-4.3,0c-3.1,1.9-2.7,6-2.7,9.2
	C342.7,509.5,344,515.9,345.4,522.1z M346.4,507.8c-4.1-3.9-2.4-10.4-1.8-12.5c4.6,0.1,9.2,2.4,13.6,0c0.6,4.5,2.1,8.7,1.8,13.3
	C356.1,511.1,350,511.7,346.4,507.8z M357.2,516.7l-0.1,0.3c0.3,1.7-0.7,2.9-1.8,3.7c-0.5-2.9-1.1-5.5-1.8-7.7
	c0.7-0.1,2-0.1,2.7-0.2c0.3,1-0.4,3.2,1.4,2.9c0.4-1.1,0.5-2.3,0.3-3.5c1-0.4,2-0.8,3.2-1.1C361.8,513.6,359.9,516.4,357.2,516.7
	L357.2,516.7z M363,512.3c-1-3.6-1.1-7.2-1.6-10.8c-0.4-2.7-0.8-5.2-1.2-7.8c-0.7-5.5-1.7-11.1-3.5-16.4c-1.1-3.3-4-5.3-6.7-7
	c2.9-5.5,6.3-8.8,10.2-10.2c2.1-0.8,4.9-0.4,6.2,1.8c1.8,3.2,2.4,6.8,3.2,10.4c0.1,1.1,0.8,2.7-0.3,3.3c-2.3,1.7-5.7-0.8-8,1.5
	c-2.2,2.3-2,5.7-1.6,8.2c1,4.1,2.2,8.1,3.3,12c1.1,4.1,2.5,8.2,3.4,12.5C365.4,510.7,364.4,511.6,363,512.3z M368.5,509.1
	c-1.1-4.6-2.5-9.2-3.8-13.6c-1-3.3-2-6.5-2.9-9.8c-0.7-2.3-0.5-4.9,0.4-7.4c2.9-0.4,5.7-0.4,8.7-1c1.8,10.6,4.2,20.7,6.1,31.3
	C374,507.9,371.1,508.1,368.5,509.1L368.5,509.1z M378.3,503.2c-1.8-11-4.2-21.6-6.6-32.3c-0.8-3.7-1.7-7.7-3.9-11
	c-1.4-1.8-3.3-2.2-4.9-2.2c-7.6-0.1-11.7,6.3-14.7,12c-5.2-0.2-10.2,2.9-13,7.6c-0.7,1.2-1.8,2.3-2.9,3.3c-1.2,1.1-2.5,2.2-3.2,3.8
	l3.3,1.2c-0.6,1.5-2.9,3.3-0.5,4.2l0.5-0.7c0.4-1,1-1.9,1.8-2.9v2.2l-1.1,0.7c0.2,0.7,0.7,1.2,1.1,1.8c-1.1,0.1-2.2,0.1-3.3,0.2
	c-5.7-12.5-5.7-26.6-11.1-39.1c-2.1-4.2-6-7-8.8-8.4c0.8-4.9,1-9.7,1.2-14.5c0.8,0.4,1.6,1.1,2.2,1.8h2.9c1.8,4.2,4.2,8.1,6.8,11.7
	c2.7,3.7,4.2,8,9.4,8.2c3.8,4.3,7.4,7.3,11.7,8.1c2.9,0.4,6.6,0.7,8.7-2c-3.5,0-7.1,0.8-10.2-0.6c-6.2-2.9-11-8.2-13.3-14.5
	c-1.1-3.1-1.1-6.5-2.9-9.4l1.8-1.8c3.2,0.1,5.7,1.8,8.4,3.4c2.1,1.2,4.2,2.8,6.8,3.3c5.3,1.2,11.5-0.6,15.5-4.9
	c-0.2-0.5-0.4-1.4-0.5-2c-3.3,2.6-6.3,6-10.8,6.1c-3.5,0.2-6.4-1.8-9.2-3.4c-1.8-1.1-3.5-2.2-5.5-2.9c-2.9-0.5-2.9-4.1-3.8-6.3
	c0.4-0.4,1-1.2,1.5-1.8c-0.1-1.4-0.2-2.9-0.3-4.1l-0.1-0.1c-1.1-1.1-2.4-2.2-3.6-3.3c-1.9,0.1-3.9,0.1-5.7,1
	c0.3-2.6,0.6-5.2-0.3-7.7c-0.5,2.7-0.7,5.5-1,8.1c-1.4-0.1-2.9-0.5-4.2,0.1c-1.5,1.1-2.2,2.8-2.2,4.9c-0.5,0.7-1.1,1.7-1.7,2.5
	c-0.7-9.4,0.6-18.5,1.2-27.6c0.2-3.9,1.2-7.6,1.2-11.5c1.1,1.1,2,2.5,2.7,4.1c11.7-2.7,23.7-2.6,35.8-3.1c3.3,0,6.5,0.8,9.8,0.3
	c0.7-1.1,0.4-3.6,2.1-3.7c0.1,2.2-0.4,4.6,1,6.5c3.3,4.7,3.5,10.7,4.7,16.1c0.8,4.5,0.2,9.1,0.5,13.6c0.4,5.5,1,11,0.7,16.5
	c0.4,11.2,1.8,22.2,2.4,33.3c0.4,6.7,1,13.6,2.2,20.4c0.1,2.8,0.5,5.5,1,8.2c0.4,3.2,1,6.5,1,9.8
	C378.9,505.2,378.5,504.1,378.3,503.2L378.3,503.2z M334,484.4c-1.1-0.3-2.2-0.5-3.2-0.8c1-0.8,2-1.6,3.1-2.2
	C334,482.3,334,483.4,334,484.4z M315.5,419.6c1-2.1,2.9-3.3,5.2-2.6c-0.7,1.2-1.6,2.7-1.8,4.2c0.3,1.8,1.1,3.3,1.9,4.9
	c-1.7,1.9-3.3,4.1-6.1,3.6c-0.6-1.2-1.5-2.7-1-4.2c0.3-3.1,3.4-4.5,5.2-6.7C317.8,418.8,316.5,419.3,315.5,419.6L315.5,419.6z
	 M325,433.6c0.7,0.4,1.6,0.7,2.3,1.1c0.4,2.5,0.6,4.9,1.4,7.4c0.6,2.1,1.9,3.9,2.4,6.1c-1.5-1.1-2.5-2.8-3.5-4.2
	c-0.4-0.7-1-1.7-1.6-2.3c-2.5-3.5-4.3-7.2-6.7-10.7c1.4-4.2,6-5.7,10-5.2c0.3,1.1,0.7,2.6,1.1,4c-2.7-0.1-4.3,2.1-5.7,4L325,433.6
	L325,433.6z M328.8,424.2c-2.5,0.3-4.5,0.4-6.3,0.8c-0.8-1.2-2.1-2.9-1.8-4.5c0.7-1.7,1.8-2.9,2.8-4.5c1.1-0.1,2.3-0.3,3.5-0.2
	c1.8,0.8,2.7,2.7,3.6,4.2C329.9,421.5,329.3,422.8,328.8,424.2L328.8,424.2z M401.9,518.7c-3.1-1.9-7-1.9-10.2-0.1
	c-2.2-4.6-5.6-7.7-9.5-8.7c-0.5-4.1-1.6-8.1-1.8-12.3c-0.2-4.2-1.7-8.2-1.8-12.5c5.9-1.1,10.8,4.5,11.7,10.1
	c-1.8,0.6-3.2,1.8-4.2,3.3c5.7-1.1,7.8-2.6,12.7,1.8c-1.8,1-3.2,3.3-5.5,2.9c-1.9-0.4-3.2,1.1-4.1,2.4c2.4,0.2,5.5-1,7.1,1.2
	c-0.2,0.7-0.8,1.1-1.6,1.5c-1,0.4-1.9,1.1-2,2.5c2.2-0.7,4.9-1,7.8-1c-1-0.8-1.9-1.8-2.9-2.5c-0.4-1.2-1-2.6-1.5-3.6
	c3.2-2.7,7.1-1.1,9.7,1c-0.7-1.2-1.4-2.3-2.3-3.5c-2-0.2-3.6-1.5-4.7-4.1c6.3-1.5,9.8-0.1,14.1,4.2c0.8,0.7,1.8,1.6,2.7,2.2
	c0.1-4-3.3-6.1-6.2-7.8c3.8-2.9,9.1-3.6,13.6-1.8c4.5,2,6.5,6.6,7.3,9.4C416.6,499.2,407.5,507.3,401.9,518.7L401.9,518.7z
	 M438.9,509.7c-1.9-2.2-4.2-4-6.6-5.7c-0.7-5-4.1-11-10-12.6c-4.7-1.7-10.6-0.4-15.2,2.9c-1.1,0.3-2.2,0.3-3.3,0.3
	c-2,0.1-4.1,0.2-5.9,1.5c-1.9-0.8-4.2-1.5-6.7-1.9c0.3-5.7-4.2-9.8-8.7-11.3c1.9-17.8,8.1-33.3,17.8-45c-1.4-1.6-2.9-3.4-2.7-5.7
	c2.3,0.3,3.7,2.2,5.2,3.9c8,0,15.8-1.8,23.9-0.8c-0.8-2-3.4-4.3-1.4-6.4c1.9,1.1,4.1,2.9,4,5.7c1.9,1.8,4.2,4.5,4.7,8.1
	c0.2,2.7,0.4,5.2,0.6,7.8c0.2,2.7,0.4,5.2,0.6,8c-0.2,0.5-0.5,1.4-0.7,2c-1.5-0.8-2.9-1.7-4.2-2.5c0.8,1,1.8,2.1,2.6,3.1
	c-2.3,1.8-4.9,3.5-6.8,5.7c-0.3-0.3-0.6-0.5-1-0.7c1.6-1.7,2.5-3.2,3.3-5c-1.8,1.7-3.3,3.4-4.9,5.2c0.1,0.5,0.3,1.4,0.3,2
	c-1-0.1-1.8-0.3-2.8-0.3c0,0.4,0.1,1,0.2,1.5c-4.7,0.1-9.4,0.2-14,0.6c-0.7,0.1-1.8,0.2-2.3,0.7c-0.3,0.3-0.3,0.5-0.3,1
	c0,2.3,0.6,4.6,1.2,6.3c-2.9,2.1-5.5,5.2-9.2,5.2c-1.8-1.8-3.6-3.2-5.7-4.2c0.7,2.5,2.7,4.9,4.9,5.7c3.6,1.8,6.8-1.5,9.5-3.6
	c1.8-1.5,3.6-2.9,5.9-3.9c1.1-0.4,2.2-0.2,3.6,0.7c-1.9,2.1-2.5,4.9-4.5,7c-2.2,2.5-5.9,2.9-8.5,5c2.3,1.2,4.5,0,6.4-1
	c0.5,0.8,1,1.5,1.4,2.1c4.1-1.2,9.4,0.4,12.2-3.5c2.3-2.9,5.2-6.3,8.7-8.7c3.4-0.4,6.3-2.3,8-5.3c3.8,15.7,6.4,31.4,10.1,47
	C444.6,517.9,442.2,513.4,438.9,509.7L438.9,509.7z"/>
<path class="st0" d="M301,458.4c-0.8,0.6-1.2,1.7-1.8,2.5c-1.7,0.1-3.3,0.1-4.9,0.1c1.1,1.2,2.8,1.6,4.2,1.6c0,1.8,0.2,3.6,0.5,5.5
	c2.3-0.6,3.2-2.9,4.1-4.9c-0.3-0.5-0.4-1.1-0.7-1.8L301,458.4L301,458.4z M301,462.9c-0.4,0.8-0.6,1.8-0.7,2.7h-0.1
	c-0.4-0.7-0.4-2.6-0.1-3.4c0.3-0.6,0.5-0.5,1.1,0.2L301,462.9L301,462.9z M319.8,473.9c-1.8-1.2-2.8,2.8-0.7,2.9
	C320.4,476.8,320.8,474.6,319.8,473.9z M332.7,496.7c-1.2-0.4-2.8-1-4.2-1.2c0.3,1.2,1.5,2.8,2.8,2.8
	C331.7,498.2,332.4,497.9,332.7,496.7L332.7,496.7z M344.2,479.9c0,0.7,0.1,1.9,0.2,2.7c-1.4-0.4-2.7-1-4.1-1.4
	c0.8,1.5,1.9,2.9,2.9,3.8l0.2,0.2l2.2-2.2c0-1.1-0.1-2.2-0.1-3.3C345,479.9,344.7,479.9,344.2,479.9L344.2,479.9z M735,496.7
	c-6.8,1-11.7,2.1-13.3,2.5c-70.4-11.6-94.6-4.6-101.4-1.2c-6.2-5.7-33.6-13.2-39.7-14.7l-1.7,1.8c14.7,3.8,38.2,11.2,38.5,14.8
	l0.3,3.3l3.3-2.7c0.2-0.2,16.4-13.2,100.2,0.7l0.7,0.2l0.7-0.3c0.2-0.1,4.8-1.2,12.3-2.4L735,496.7L735,496.7z M523.3,506.9
	c0.3-0.2,0.6-0.2,1,0c0.3,0.2,0.4,0.3,0.7,0.4l-2.7-1.8C522.6,505.9,523,506.4,523.3,506.9z M355.7,469.4c-1.8,0.3-2.9,0.1-2.9-1.8
	c-3.9,3.2,3.3,2.8,1.7,5.7h0.7v1c1.4,0,2.9,0,4.2,0.1c-0.3-2.2-0.3-4.3-0.8-6.7C357.1,467,356.5,468.5,355.7,469.4L355.7,469.4z
	 M355.5,473.3c0.3-1.5,0.8-2.6,1.8-2.9c0.2,1,0.3,1.9,0.3,2.9C357,473.1,356.1,473.3,355.5,473.3L355.5,473.3z M392.3,457.8
	c-1.4,0.4-0.6,2,0.4,2.5c0.5,0.3,1.1,0.1,1.4-0.3C394.9,458.8,393.4,457.3,392.3,457.8z M361.7,465.1c-0.4,0.3-1,0.7-1.4,1.1
	c0.3,0.4,0.4,0.8,0.6,1.2c0.3,0.5,0.4,1,0.7,1.6c1.8,0.2,3.6-1,4.5-2.6c-1,0.3-2,0.6-3.1,1.1L361.7,465.1L361.7,465.1z M404.2,460.9
	c1.8,2.2,4.1,1.7,6.6,1.6c2.9-0.3,6.3-0.6,8.2-3.3c-1.2,0.3-2.7,0.6-4.1,1C411.4,460.9,407.8,461.8,404.2,460.9L404.2,460.9z"/>
<path class="st0" d="M669.1,437c1-0.6,1.8-1.6,2.5-2.4c1,0.8,2.9,1.2,2.9,2.9c-0.7,0.8-1.8,0.4-2.7,0.3c0,1-0.1,2.1-0.3,3.2
	c-0.7-0.5-1.6-1-2.2-1.7l-1.6,1.4c-0.4-0.7-0.7-1.7-1.1-2.4c-1,0-1.9-0.1-2.9-0.1c0.9-1.4,1.8-2.7,2.7-4.1
	C667.4,435.1,668,436.4,669.1,437 M599.2,409.3c0.6-15.3,3.8-30.2,7.1-45.1c-1.6-2.7-5.2-3.7-6.4-6.6c-0.4-1.2-0.1-3.3,1.6-3
	c5.2,0.6,9.8,4.5,15,2.7c9.8-1.5,19.8-0.6,29.6,0.7c2.9-1.6,6.3-5,9.7-2.9c1.9,4-3,5.5-5.2,7.4c-0.5,8.7-0.6,17.8-0.7,26.6
	c-0.8-0.2-1.7-0.2-2.5-0.3c-0.4-8.9,0.3-17.8,0.7-26.9c2.1-1.6,4.7-2.7,5.7-5.2c-2.3,0.7-4.5,2-6.3,3.7c-6.7-1.7-13.6-1.3-20.4-1.6
	c-4.7-0.3-9.2,0.7-13.7,1.3c-3.6-1.4-7.2-2.9-11.1-3.5c1.1,3.3,4.7,4.1,6.7,6.5v1.5c-3.4,14.8-6.2,29.9-7.2,45.1
	C602.2,412.7,598.5,411.2,599.2,409.3"/>
<path class="st0" d="M614.2,365.2c0.7-0.7,1.6-1.4,2.3-1.9c1.6,0.1,1.7,1.9,2.2,2.9c-1.8,0.2-3.1,1-4.2,2.5l-1-1.5l-2.5,1
	c0.3-0.9,0.5-1.8,0.8-2.7c-0.4-0.4-1.1-1-1.5-1.4C612,363.4,613.1,364,614.2,365.2 M634.1,364.3c1.4,0.6,2.2,2.1,3.2,3.3
	c1.8-0.7,3-2.3,4.2-3.8c1.3,1.2,2.6,2.7,3.2,4.3c-1-0.2-2-0.4-2.9-0.6c-0.2,1-0.3,2.1-0.4,3.1c-1-0.6-1.8-1.1-2.7-1.8
	c-0.7,1-1.6,1.8-2.2,2.7c-0.3-0.9-0.6-1.8-1-2.7c-0.6,0-1.9,0.2-2.6,0.2C633.4,367.4,632.8,365.4,634.1,364.3 M625,365
	c-3.5,1.9-6.8,5.3-6.9,9.7c1.9,0.3,3.8,1,5.7,0.6c3.4-1.5,6.2-5.1,5.5-9.2C628,365.5,626.5,364.7,625,365 M625.2,372.4
	c-0.2,1.2-2.1,2.1-3.1,1.4C622,372.5,624.3,372,625.2,372.4 M626.5,369.3c-1.1,1.8-3.3,1.8-4.9,2.2c0.8-1.7,1.8-3.2,3.4-4.1
	C626.1,366.6,627.9,368.4,626.5,369.3 M640,377.8c1.5-0.6,2.7-1.3,4.2-1.9c-1.9,3.3-6.3,5-9.5,2.9c-0.7-0.4-2.7-1.3-1.5-2.5
	C635.5,375.6,637.5,378.8,640,377.8 M623.7,377.9c2.4,0.4,4.7,0.2,6.7-1.5C629.6,379.3,625.5,381,623.7,377.9 M617.5,377.4
	c-1.8,2.1-5.8,1.9-6.8-0.8C612.9,377.4,615.2,377.5,617.5,377.4 M595.7,389.8c0.4-3.1,1.1-6.2,2.1-9.2c0.3-0.9,0.7-1.2,1.8-1.2
	c-0.1,3.5-0.9,6.8-1.5,10.2C597.5,389.8,596.3,389.8,595.7,389.8 M704.3,414.1c-1.1-3.3-5-3.8-7.9-4.5c-4.1-0.5-8-0.6-12-1.1
	c0.4-1,1.6-1.9,1.4-3.2c-1.6-2.9-5-2.5-7.7-2.7c-12.5-0.1-25,0.4-37.5,0.2c-1.4,0.2-3,0.2-4.2,1.2c-2.4,2.7-5.7,3.8-8.9,4.7
	c0.3-1.6,1.2-2.7,1.9-3.9c0.4-1-0.7-1.2-1.2-0.7c-1.7,1-3.1,2.2-4.9,2.8c0.2-1.1,0.4-2.2,0.5-3.4c-2.1,1.2-4.1,2.7-6.4,3.4
	c0.7-1.2,1.8-2.3,2.7-3.5c-2.2,0.3-4.1,1.8-6.3,2.1c0.9-1.6,1.9-2.9,2.7-4.4c-1.7,0.6-3.3,1.3-4.9,1.9c2.7-4.2,6.2-8,10.2-10.5
	c3.8-2.2,7.8,0.3,11.3,1.9c2.7,1.5,6.2,1,8.3-1.2c-1.9,0.4-3.9,2.4-5.9,1.3c-2.9-1.6-6.1-3.1-9.3-4.1c-1.7-3.5-1.9-8-4.9-10.6
	c-3.6,0.4-7.1,1.9-10.1,3.9c-1.5,0.7-1.8,2.7-2.4,4.1c-1-0.1-1.8-0.1-2.7-0.2c1.2,0.5,2.4,0.9,3.7,1.2c0.7,3.2,1.4,6.4,2.9,9.4
	c-1.6,1.6-2.9,3.3-3.6,5.4c2.4,0.6,4.1,2.9,6.5,3.4c1.7,1,3.5,0,5.2-0.4c2.2,0.3,4.5,0.7,6.2,2.3c3.6,0.8,7.6-1,10.1-3.8
	c12.4,0.4,24.7-0.3,37.1-0.3c2.7,0.2,5.7-0.3,8.1,1.4c-1.2,1.5-3.4,2.3-4.1,4.2c1.8,0.2,3.5,0.2,5.2,0.3c5.7,0.7,11.7,0.1,17,2.9
	c-0.7,4.2-5.5,3.3-8,5.7c1.9,0.7,3.9,1.2,5.7,2.4c-2,5.5-8.4,3.6-12.6,4.8c-0.2,3.5,4.2,2.2,6.3,2.3c3.8-1.2,8.5-2.9,10-7.2
	c0.4-1.6-1.2-2.1-2.1-2.9C701.5,417.7,703.8,416.3,704.3,414.1 M620.7,381.4c1.1,0.1,1.5,2.2,0.2,2.2
	C619.7,383.6,619.5,381.4,620.7,381.4 M622,391.3c-0.4-2.5-0.7-5.1-1.8-7.4c0.4,0,1,0.1,1.4,0.1c1.6,1.9,2.1,4.7,3.3,6.8
	C624.1,391.1,623,391.2,622,391.3 M620.8,392.2c-2.2,1.3-4.2,2.9-6.2,4.9c-1.3-3.4-2.7-7.2-2.7-10.8c1.5-2.4,4.2-3.3,6.7-3.8
	C619,385.8,619.7,389,620.8,392.2"/>
<path class="st0" d="M635.6,381.4c-2.1,2.3-5.2,2.8-8,1.7c-0.2-0.4-0.3-1.4-0.4-1.8c1.6,0.4,2.9,1,4.5,1.2
	C633,382.1,634.4,381.6,635.6,381.4 M641.1,384.4c-1.6,2.1-4.6,2.9-6.7,1.2C636.8,386.2,638.9,385.4,641.1,384.4 M647.9,394.8
	c0.2-0.4,0.4-1.3,0.5-1.8c1.9-0.1,3.8,0,5.7,0.2c0.1,0.4,0.3,1,0.3,1.3C652.3,395.5,650,395.6,647.9,394.8 M623.1,396.1
	c1.2-0.9,2.9-2.9,4.2-1.2c-2,2.1-4.3,4.1-7.2,4.8C620.5,397.8,622,397.2,623.1,396.1 M625.7,400.1c1.6-2.2,3.8-3.5,6.1-4.6
	C631.9,398.5,628.1,400.1,625.7,400.1 M653.1,398.8c-4.9,0.4-9.7,0.3-14.6-0.4c1.8-2.9,5.6-2.2,8.5-2.2c2.9,0.3,6.3-0.9,9,0.9
	C655.3,397.8,654.4,398.8,653.1,398.8 M634.1,397.8c0.7,2.7-2.1,3.7-4.2,3.5C631.2,399.8,632.3,398.1,634.1,397.8 M641.1,464.6
	c2.1,1,4.3,0.5,6.5,0.3c0.1,0.6,0.3,1.8,0.3,2.3c0.5,0,1.6,0.1,2.1,0.2c1-2.8,1.8-5.7,2.2-8.7c1.9,1.1,3.9,2.4,6.1,2.9
	c3,0.7,6.3,0.4,9.4,0.3c0.4,2.7,0.8,5.2,1.2,8c-2.4,0.2-5.2,0.1-7.2-1.4c-1.4-1.1-2.5-2.7-4.2-3.3c-0.2,4.2,4.2,5.7,7.3,7.1
	c4.2,0.3,8.7-0.4,11.7-3.6c3.2-3.3,7-7.1,11.9-6.3c-0.3,2.2-2.9,2.5-3.9,4.2c-1.4,2-2.7,4.2-4.4,5.7c-3.5,3.1-8,4.7-12.5,5
	c-1.2-0.7-1.4-2.6-2.2-3.8c0.2,1.2,0.4,2.3,0.6,3.5c-1,0.1-1.9,0.2-2.9,0.2l0.3,1.8c2.7,1.1,5.7,0.4,8.6,0.3
	c0.3,3.7,0.6,7.4,1.2,11.1h2.2c0.7-4.1-1-8-1-12c1.8-1,3.6-2.2,5.5-3c6.2,1.2,12.6,2.7,19,2c3.6-0.9,7.2-3.1,8.8-6.6
	c1-1.7-0.5-3.1-1.2-4.5c4.7-8.7,10-17.2,11.5-27.2c-1-2.2-3.4-3.3-5.5-3.8c-4.7-0.5-9.4-1.7-14.1-0.7c-2.6,0.6-3.7,3.3-4.4,5.6
	c-2.4,6.6-4.8,13.4-8.2,19.5c-3.3,1-6.3,2.8-9.2,4.9c-1.8,0.4-3.8-0.8-5.7-1.1c-0.4-3.5-0.4-7.2,0.7-10.7c0.3-1.6,2-0.7,2.9-0.7
	c5.5,1,11.7-1.8,14.1-7.2c1.8-3.8-0.3-8.7-3.6-10.7c-2.7-1.7-5.7-2.2-8.7-3.3c2.9-3.4,6.4-6.2,8.7-10.1c0.1-0.4,0.3-1.4,0.3-1.9
	c-3.3-2.4-6.6,1.1-10,1.6c0.3-4.3-3.3-7.4-6.5-9.4c-3-1.1-6.7-1.8-9.7,0.2c-4.2,2.2-6.9,6.6-11.5,8c-1.6,0.6-2.9-0.7-4.2-1.3
	c0.2,2.1,0.4,4.2,1,6.2c-0.4,0-1.2-0.2-1.8-0.2c0.5,2.9,1.5,5.8,2.8,8.6c-3.2,5.2-2.8,11.4-1.6,17.1c0.9,3.3-0.4,6.6-2.7,8.7
	c-1.2-0.8-2.7-1.7-4.1-2.2C636,459.8,638.1,463.4,641.1,464.6 M711.1,437.5c0.3,3.3-0.8,6.2-2.1,9.1c-2.7,6.3-5.8,12.4-9.6,18.1
	c-0.7,0.7-1.1,1.9-2.1,2.1c-2.4-0.3-4.7-1-6.9-1.8c0.3-1.1,0.5-2.2,0.7-3.3c2.1,0.7,4.1,1.7,6.2,2.2c1.2-0.6,1.7-2.4,2.4-3.6
	c3.4-6.9,7.9-13.3,10-21c-3.9-1.5-8-0.4-12-0.7c0.4-2.1,2.7-2.2,4.2-2.2C705.1,436.3,708.1,437,711.1,437.5 M684.5,470.1
	c4.7,1.4,9.4,3.4,14.4,3.4c3-0.1,4.7-3.3,7-4.8c-0.1,3.9-4.2,5.2-7.1,6.3c-5.5,0.6-11.2-0.5-16.6-1.7
	C683,472.3,683.7,471.4,684.5,470.1 M687.5,467c3.6-0.1,6.9,2.1,10.6,1.9c2.7-1.8,4.2-4.8,6-7.5c4-7.4,8-14.8,9.7-23.1
	c0.4,0.3,1.1,0.9,1.4,1.1c0.5,2.9-0.8,5.7-1.8,8.4c-2.9,6.7-6.4,13-10.1,19.2c-1.2,2.1-2.9,4.2-5.5,4.4c-4-0.6-7.8-1.8-11.7-3.1
	C686.3,467.7,687.1,467.2,687.5,467 M697.3,463.2c-2.9-1.2-5.8-2.5-8.9-3.2c3.7-6.4,6.1-13.6,8.7-20.6c4.1-0.7,8.4-1.6,12.2,0.3
	C706.2,448.1,701.5,455.6,697.3,463.2 M671.5,469.1c-0.2-1.1-0.2-2.2-0.3-3.3c1.1,0.3,2.2,0.4,3.4,0.7
	C673.9,467.8,672.8,468.9,671.5,469.1 M655.9,457.9c-1.7-1-4-1.9-3.5-4.2c0.4-5.7,0.2-12.2,3.7-17.1c1.1-1.8,1-4.1,2.6-5.5
	c-0.7-2-1.3-4.2-1.5-6.3c2,0.4,3.5,2.1,4.7,3.7c-1-0.3-1.9-0.6-2.9-0.8c0.4,1.6,1.4,2.7,2.3,4.1c1-0.4,1.8-0.7,2.9-1.1
	c1.2-2.4,4.1-2.2,6.2-3.3c2.9-1,5.5-2.8,8.3-3.6c-1.8,2.6-4.2,4.3-6.3,6.6c-0.4-0.2-1.2-0.4-1.6-0.4c0.5,1,0.8,2,1.6,2.8
	c3.4,1.3,7.2,1.7,10.4,3.6c2.2,1.8,4.5,5.2,2.9,8.2c-3.2,4.9-9.8,6.7-15,4.2c-2.1-1.2-4.1-2.9-6.3-3.6c-0.2,2.9,2.9,4.2,4.9,6
	c-0.7,2.7-1.2,5.3-1.8,8.1C663.6,459.6,659.3,459.8,655.9,457.9 M647.4,462.6c-2.4,1.5-5.3,0.6-7.4-1.1c4.9-1.1,7.4-7.2,6.2-12
	c-1.4-6.1-1.6-13.3,2.9-17.8c-0.7-1-1.2-2.1-1.8-3.3c1.6-0.4,2.9-1.1,3.9-2.4c-1.1-1-2.2-2.1-3.3-3.3c2.5-1.9,5.3-3.3,7.7-5.4
	c1.8-1.4,3.4-3.1,5.5-4.1c4.1-1.2,8.7,0.9,10.7,4.9c0.7,4.9-4.7,6.3-8,7.9c-1.8-1.9-3.5-4.2-6.2-4.7c-1.7-0.4-2.9,1.2-3.6,2.7
	c-0.4,2.7,0.7,5.4,1.8,7.9c-2.2,2.7-4.6,5.7-5.1,9.3c-1,5.9-1,12-1.6,17.8C648.8,460.4,648.7,462.1,647.4,462.6 M615.1,419.8
	c1.4-2.9,2.9-5.8,4.9-8.4c0.6-1,1.8-1.6,2.9-1.6c-0.2,2.7-1,5.2-1,8c3.9-0.5,7.7,0.7,10.8,3c1.7-1.8,2.8-4.3,5.2-5.2
	c0.3,1.2,1,2.5,0.5,3.8c-0.9,2.9-1.6,6.7-4.7,7.9c0.7-1.9,1.2-4,1.8-6c-1,0.7-1.9,1.7-2.9,2.7c-1.8-1.8-3.6-3.7-6.2-4.1
	c-2.3-0.5-4.7,0.2-6.9,0.8c0-1.3,0-2.7-0.1-4.1C618.2,417.8,617.1,419.7,615.1,419.8 M587.9,438.9c2.5-1.2,1.6-4.9,1.1-7.1
	c1.4-1.1,2.9-2.2,3.7-4.1c0.3-1.8,0.2-3.5,0.3-5.2c2.1-1.3,6.3-3.5,3.8-6.4c-2,1.3-4,3-6.3,3.8c-2.9-0.8-5.4-2.9-8.5-3.3
	c-2.1-0.2-4.9-0.7-6.1,1.8c0.1,2.2,2.2,3.2,4,3.9c3,1.2,6.3,0.8,9.6,1.1c0.1,1.1,0.4,2.2,0.1,3.4c-0.8,1-1.8,1.8-2.8,2.7
	c-3.3-2.6-7.2-4.9-11.4-4.1c-2.1-0.2-2.2,3-0.7,4.1c3.2,2.5,7.4,2.2,11.1,2.7c0.8,0.7,1.4,1.8,1.4,2.9c-0.5,1.5-2.1,1.9-3.4,2.1
	c-3.5,0-6.8-1.3-10.2-2.2c-0.6,1.8,0.6,2.9,2,3.4C579.4,439.7,583.9,440.1,587.9,438.9 M576.6,427.1c1.9,0.4,3.9,1,5.5,2.2
	C580.3,429.1,577.3,429.4,576.6,427.1 M578.3,418.4c2.4,0.2,4.9,0.5,7,2C582.8,420.8,580.4,420,578.3,418.4 M603.1,426.7
	c2.4-3.7,6.7-7.4,11.2-5.5c0.3,1,0.6,1.9,0.7,2.9c1,0.1,2.1,0.2,2.9-0.6c-0.3,0.4-0.6,1.1-0.7,1.5c-1.1,0.1-2.3,0.2-3.5,0.2
	c-0.3-1-0.7-1.8-1-2.8c-3.4,0.6-6.5,2.9-8,6.3c-1,2.2-0.4,4.8-0.4,7.2C601.4,433.8,601.8,429.5,603.1,426.7 M624.9,428.2
	c1.2-0.3,2.6-0.7,3.8-1.1c-0.4,0.7-0.8,1.3-1.2,2c-1.2,0-2.4-0.1-3.6-0.2c-0.2-1.2-0.3-2.4-0.4-3.5
	C624.6,425.6,624.5,427.1,624.9,428.2"/>
<path class="st0" d="M608.7,427c0.7-1.6,2.5-1.2,3.7-0.7c0.1,1,0.1,2.1,0.1,3.1c-1.7,0.4-1.8-1.2-2.3-2.4c-0.2,0.7-0.4,2-0.4,2.7
	C608.6,429.1,608.2,428.2,608.7,427 M569.4,460.4c5.4,1.7,10.2,4.7,15.8,5.7c4.3,1.8,9.2,2.3,13.7,3.4c1,0.3,1.9,0.3,2.9,0l-0.4-4.1
	c0.5-0.2,1.7-0.4,2.2-0.5c1,2.2,2.1,4.3,3.4,6.4c-2.5,0.3-5.2-0.7-7.4,0.7c3.8,1,7.7,1,11.6,2.1c1,0.4,2.2,1.2,2.2,2.4
	c-1,1.6-2.7,2.7-2.9,4.7c4.1,0.1,8.2-2,12,0.2c-0.5,1.6-1,2.9-1.2,4.7c2,0.2,4.2-0.2,6,1c-0.3,1-0.6,1.8-0.9,2.8
	c1.1-1.1,1.7-2.4,1.8-4.1c-1.3-0.7-2.7-1.2-4.2-1.6c0.4-1.8-0.2-3.6-1.1-5.1c5.3-1.2,9.9-5.5,11.9-10.8c0.6-1.4-0.2-3.1-1.8-2.7
	c-3,1.8-5.7,4.2-9.2,5.2c1.6-13.5,6.6-26.1,11-38.9c0.4-1.1,0.4-2.4,0.3-3.6c-1-0.1-1.7,0.3-2.1,1.1c-3.1,5.9-5.5,12.2-7.3,18.6
	c-6.6,0.7-13.3-1.5-18.6-5.5c-0.8-1.1-1-2.7-1.8-3.7c-1.7,2.7-2.9,5.7-4,8.7c-1.5-0.3-2.9-0.7-4.3-0.9c-1.4,0.3-2.7,1.2-3.8,1.9
	c-1-1-1.9-1.9-3.3-2.2c-4.3-1.1-8.7-2.8-13-4.2c-2.8-0.9-5.5-2.7-8.6-2.2C568.4,446.9,566.9,454,569.4,460.4 M586.4,447.3
	c0.4,4.4,1.2,8.9,1.1,13.4c-6.1-0.7-11.9-2.7-17.6-5.1c0.2-4.4,0.4-8.9,0.4-13.3C576,443,581,445.9,586.4,447.3 M631.8,468.5
	c-1.5,4.2-5.2,7.4-9.4,8.7c0.2-1.2,0.3-2.6,0.4-3.8C626.2,472.8,628.8,470,631.8,468.5 M596.9,467.7c-1.3-0.6-3.8,0-4.1-2l3.1,0.4
	C596.2,466.6,596.7,467.4,596.9,467.7 M598.8,464.6c-2.4-0.2-5.3,0.4-7.1-1.9c3.4-1.5,5.5-4.8,7.6-7.7c-0.4-0.2-1.3-0.4-1.8-0.4
	c-1.5,1.8-2.9,3.7-4.9,4.9c-0.2-2.6-0.2-5-0.2-7.5c1.1-1.5,2.9-2.1,4.3-3.2c1-0.9,2.1,0.3,2.9,0.5c-0.1,1.9,0,3.8,0.3,5.7
	c2.9-2.7,2.9-6.9,4.9-10.2c2.7,1.3,5.1,2.9,7.8,3.8c3.8,1.5,8,1.4,12,1.9c-1.8,9.4-5.3,18.5-4.3,28.2c-2,0.4-4.1,0.4-6.2,0.6
	c0.2-1.4,1-2.9,0.3-4.2c-1.6-1.2-3.4-1.9-5.2-2.9c2.2-0.9,4.3-1.8,6.5-2.9c0.2-0.4,0.4-1.1,0.6-1.5c-1.2,0.4-2.4,0.7-3.7,1.1
	c-0.1-1.8-0.2-3.7,0-5.6c1.2-1.8,4.1-2.2,4.3-4.9c-1.7,0.8-3.1,1.8-4.7,2.7c-1.4-2.5-2.5-5.5-4.9-7.2c-2.3-0.6-4.9-0.1-6.6,1.9
	c-1.9,2.2-5.1,4.6-4,8c2.3-3.3,4.6-6.8,8.1-8.7c0.9-0.5,1.8-0.4,2.4,0.4c3.4,3.8,4.3,9.2,3.6,14.1c-1.1-0.2-2.7,0.5-3.5-0.4
	c-1.1-2.2-1.6-5-3.7-6.6C602.2,463,600.7,464.7,598.8,464.6 M591,465.6c-1.1-0.5-1.1-1-0.1-1.6C592,464.6,592,465.2,591,465.6
	 M590.3,448.7c-0.4,4.2-0.4,8.7-0.2,13c-0.3-0.2-0.7-0.3-1.1-0.4c-0.8-4.2-0.5-8.8-1.1-13.3C588.7,448.1,589.6,448.4,590.3,448.7
	 M589.1,463.2c0.1,0.4,0.2,1.2,0.3,1.8c-5.7-1.5-11.3-2.9-16.8-5.2c-0.7-0.3-1.5-0.7-2-1.4C576.7,459.6,582.8,461.5,589.1,463.2"/>
<path class="st0" d="M608.1,437.3c-0.6,0-1.7,0-2.2-0.1c-0.3-1.6-0.3-2.9-0.1-4.5c0.4,0.2,1.4,0.4,1.8,0.4
	C607.7,434.6,607.9,435.9,608.1,437.3 M612.6,440.5l-2.7-1.8l-0.2-4.5c0.4,0.2,1.2,0.3,1.8,0.4C612,436.6,612.2,438.6,612.6,440.5
	 M616.8,441.4c-2.1-1.3-2.8-4-2.6-6.4C617.1,435.7,616.7,439,616.8,441.4 M621.8,440.5c-2-0.6-3-2.2-2.9-4.3
	c0.4,0.1,1.2,0.2,1.8,0.2C621.1,437.6,621.5,439,621.8,440.5 M626.2,439.9c-0.8-0.4-1.7-0.8-2.5-1.2c-0.1-0.5-0.2-1.6-0.2-2.1
	C624.7,437.4,625.4,438.8,626.2,439.9 M265.6,509.9c-4.8-4.9-10.4-9.2-16.6-12.2s-13.2-4.9-20.1-4.2c-4.1,0.4-7.9,1.7-11.4,3.6
	c0.3-0.1,0.6-0.2,1-0.3c-13.7-0.1-26.9-4.4-40.5-5.7c-1-0.1-1.9,0.9-1.9,1.9c0,1.1,0.8,1.8,1.9,1.9c13.3,1.2,26.4,5.6,39.9,5.7
	c1.5,0,2.8-1.1,4.2-1.7c1.2-0.5,2.5-0.9,3.7-1.2c2.5-0.6,5.1-0.7,7.7-0.6c5.2,0.3,10.3,2,14.9,4.5c5.4,2.8,10.2,6.6,14.5,11
	C264.6,514.2,267.2,511.7,265.6,509.9L265.6,509.9z M591,490.5c5.7,2.2,11.1,4.9,16.5,7.6c1.3,0.7,2.7,1.2,4.2,1.8
	c1.3,0.5,2.7,1,4.2,0.8c1.6-0.2,3.2-0.7,4.7-1.1s3-0.7,4.6-1c6.2-1.2,12.5-2.2,18.8-2.7c6.3-0.4,12.5,0.1,18.6,0.6
	c12.5,1.1,24.9,2.5,37.4,3.1c12.6,0.5,25.2,0.3,37.5-1.9c0.7-0.2,1.2-0.3,1.9-0.3c0.7,0.1,1.3,0.2,1.9,0.3c1.2,0.3,2.6,0.4,3.7,0.8
	c2.6,0.7,4.9,1.6,7.3,2.7c4.9,2.2,9.6,4.9,14.5,7.2c1.2,0.6,2.5,1.1,3.7,1.8c0.9,0.4,2,0.3,2.6-0.7c0.4-0.7,0.3-2.2-0.7-2.6
	c-9.9-4.2-19.1-10.8-29.8-12.6c-1.3-0.3-2.9-0.6-4.3-0.4c-1.6,0.2-3.2,0.5-4.7,0.8c-3.1,0.4-6.2,0.8-9.2,1.1
	c-6.2,0.5-12.5,0.6-18.6,0.5c-12.6-0.3-25.2-1.5-37.7-2.7c-6.2-0.6-12.4-1.3-18.6-1.3c-6.4,0-12.7,0.7-19.1,1.8
	c-3.2,0.5-6.3,1.1-9.5,1.8c-1.6,0.4-3.2,0.7-4.7,1.1c-1.3,0.3-2.4-0.1-3.6-0.5c-5.6-2.2-10.7-5.2-16.3-7.6c-1.5-0.6-2.9-1.2-4.4-1.8
	c-1-0.4-2,0.4-2.3,1.2C589.4,489.3,590.2,490.3,591,490.5L591,490.5z"/>
<path d="M233.8,131.6H67.6c-6.9,0-6.9,2.2,0,2.2h166.2C240.7,133.8,240.7,131.6,233.8,131.6z"/>
<g>
	<path class="st2" d="M618.9,471.4c2-3.5,4.2-6.9,6.1-10.5c1.7-1.3,4.1-1.9,4.8-4.2c-0.8-1.1-1.5-2.3-2-3.6c1.7-0.4,3.4-1,4.9-1.8
		l-2.7-16.9c1.5,0.1,3.1,0,4.6-0.4c-2.9-3.9-5.7-8.3-6.2-13.3c-0.1-0.8,0.4-1.6,0.8-2.3c0.4-0.6,0.8-1.2,1.2-1.8
		c-0.2-1.4-0.4-2.9-0.7-4.3c-0.5,0.6-0.9,1.3-1.4,1.9l0,0.2c-0.1,0.2-0.4,0.5-0.5,0.7c0-0.4,0-1.1,0-1.5c-0.7-1.1-0.9-2.4-1.2-3.6
		c-1.2-5.2-3-10.3-5.3-15.1c0.3,0.1,0.6,0.2,0.9,0.3c-0.4-0.7-0.7-1.4-1-2.2c0,0,0,0-0.1-0.1c0,0,0,0,0,0c-0.5-1.1-0.9-2.2-1.3-3.3
		c-0.1-0.3-0.2-0.7-0.2-1c-1-0.6-1.9-1.2-2.8-1.9c-4.2-19.3-13.6-25.2-21.3-26.6c1.2-1.8-10.1-1.1-18.6-0.4l-0.8-2h0
		c11.5-5.2,20.4-14.5,23.5-26.8c0.6,0,1.2,0.6,1.9,0.6c1.7-6.2,2.3-12.9,3.3-19.5c-1.5-1-2.7-2-3.9-3.2c1.4-0.9,2.4-2.5,2.3-4.7
		c-0.6-15.6-0.7-31.3-0.4-46.9c0-1.7-0.6-3.1-1.5-4c0.6-1,1.2-2,1.8-3c-0.3-0.8-0.6-1.6-1-2.3c1.2-1.2,2.7-2.1,4.3-2.6
		c0.9-1.2,1.8-2.3,2.8-3.4c2.2-4,3.8-8.4,4.4-12.8c0.6-3.2,0.1-6.3-0.2-9.4c-0.6-0.1-1.1-0.2-1.7-0.3c0.2-1.3-0.2-2.7-1.3-3.5
		c-2-4.1-6.3-6.1-9.9-8c-1.9,0.4-3.9,0.9-5.8,1.5c-1.9,0.6-3.8,1.3-5.6,2.1c-1.2,3-4,3.6-5.7,3c-13.4-6.9-27.4-17-42.5-15.1
		c-7.8,1.3-15.1-0.6-23.2,1.2c-1.8,0.2-3.7,0.6-5.5,1.1c-11,2.8-21.5,9.3-30.6,17.3c-1.1,0.6-2.2,0-3.4-0.6
		c-1.5-0.6-3.2-1.7-4.3-3.3c-1.7-1.3-3.4-1.9-5.4-1.4c-1.9-0.4-3.9-0.7-5.9-0.9c-3.5,2.2-7.6,4.7-9.3,8.9c-1,0.9-1.3,2.3-1,3.6
		c-0.6,0.2-1.1,0.3-1.7,0.4c-0.1,3.1-0.3,6.2,0.5,9.4c0.4,1.7,0.9,3.5,1.6,5.2c2.8,3.6,5.2,7.6,7.2,11.8c0.3,0.3,0.5,0.6,0.8,1
		c-0.1,0.2-0.1,0.3-0.2,0.5c1.9,4.2,3.3,8.7,4.4,13.3c-2.6,0.9-4.7,3.4-3.8,6.9c3.5,13.1,3.1,27.6,3.7,41.2c-0.4,1.7-0.7,3.3-1.2,5
		c0.4,1.8,0.8,3.6,1.2,5.4c0.4,2,0.8,4.1,1.4,6c2.2,7.8,6.4,14.9,14.4,20.3c1.7,1.3,3.6,2.4,5.7,3.4l-21.4-1.9
		c-21.9-2.1-35.1,14.2-35.1,14.2l0.7,1.7c-3.3,3.1-4.6,5.7-4.6,5.7c0,0,0,0,0,0l-8.3,6.1c-1.9,0.5-3.9,0.5-5.9,0.1
		c-0.9,3.6,0.5,7.1,0.1,10.7c-0.2,2.4,1.6,4.4,1.8,6.7c-2.4,6.2-3.4,12.9-3.5,19.5l0,0l0,0c0,5.5,0.7,11,2.1,16.4
		c1.4,5.1,0.1,10.4-1.3,15.4c1.3-0.2,2.5-0.5,3.8-0.8c-0.3,1.3-0.6,2.6-1,3.8c1.7-0.1,3.3-0.7,4.9-1.3c4.7,9.9,11,19,18.5,26.8
		c-1.1,1.8-2.6,3.5-3.5,5.5c-2.8,6.2-2.4,13.7,0.8,19.7c3.6,6.7,9.6,11.8,15.9,16c2,1.4,4.3,2.4,6.2,4c-5.4,1-10.9,2-16,4.3
		c-1.3,0.7-3.2,1.5-3.2,3.3c0.4,1.7,2.1,2.4,3.5,3.2c6,2.7,12.6,3.5,19,4.8c4.7,3.7,9.4,7.9,15.3,9.5c2.1,0.2,4.2-0.3,6.3-0.4
		c15.3-1.5,30.6-3.1,45.9-4.6c9.1-0.3,18.2,0.1,27.3-0.5c11.8-0.2,23.6-1.1,35.3-2.1c9.7-1.1,19.5-2.1,28.9-4.6
		c3.1-0.9,6.3-1.7,8.8-3.9c0.9-0.7,1-2.1,0.1-2.9c-1.9-1.9-4.7-2.7-7.2-3.5c-3.9-1.3-8-1.9-12-2.7c8.4-5,16.9-10.6,22.2-19.1
		c4.4-6.8,4.6-16.3,0-23.1C628,476.3,623.5,473.5,618.9,471.4z M476.2,413.7c-1.2,2.5-3.1,4.6-4.8,6.9c1.2,2.1,1,5.1-0.5,7
		c0.6,2.6,0.9,5.4,1.5,7.7c0.3,1.1,0.3,2,0.1,2.9c1.5,3.5-0.2,8.5-5.1,8.5c-4.1,0-6-3.5-5.6-6.7c-0.3-0.5-0.5-1-0.6-1.6
		c-0.4-1.7-0.7-3.5-1-5.2c-0.2-0.9-0.5-1.9-0.6-2.9c-0.1-1.4-1-1.7,0.3-1c-2.2-1.2-3.5-4.2-2.7-6.6c1.8-5.8,6.5-9.6,9-14.9
		C469.2,400.9,479.3,406.9,476.2,413.7z"/>
	<g>
		<path d="M511.5,259.3l0.1,0.1c2.1,0.2,4.1,0.4,6.2,0.5c-4.7-1.2-9.6-2.3-13.8-4.2c5.4,1,10.8,2.2,16.6,2.4
			c-2.2-0.8-4.5-1.3-6.6-2.1l-0.2,0c-0.3-0.1-0.9-0.4-1.3-0.6c3.4,0.5,6.9,1.2,10.4,1.4c1.1-0.8,1-2.1,1.5-3.1
			c-0.7-0.1-1.4-0.2-2.1-0.3c-13.6-2.7-26.3-6.9-38.6-11.3c-0.8-0.3-1.7-0.8-2.7-0.7c-0.2,0.4-0.4,0.7-0.6,1.1
			c1.8,1.2,3.7,2.3,5.8,3.3c-2.3-0.5-4.3-1.2-6.3-2c-1,3-1.8,6.2-0.4,9.2C489.7,255.9,500.4,258.2,511.5,259.3z"/>
		<path d="M543.9,317c0.3,0.7,0.5,0.7-0.6,0.9c-1,0.2-2,0.5-2.9,0.7c-2,0.5-3.9,0.9-5.9,1.3c-4.1,0.8-8.2,1.3-12.3,1.7
			c-2.6,0.2-2.5,3.2,0.1,3c5.7-0.5,11.3-1.3,16.8-2.5c2.4-0.5,5.5-0.9,7.5-2c2-1,1.9-2.6,1.3-4.1C547.1,314.2,543.2,315.2,543.9,317
			z"/>
		<path d="M476.7,232.3c-1-0.3-2-0.8-2.9-1.3c0.7,0.7,1.5,1.4,2.2,1.9C476.2,232.7,476.5,232.5,476.7,232.3z"/>
		<path d="M530.5,314.3l0,0.2c0.7,0.2,1.4,0.2,2.2,0.2c0.1,0,0.3,0,0.4,0c0.1,0,0.3,0,0.4,0c0.8,0,1.5-0.2,2.1-0.4l0-0.2
			c4.4-1.6,8.4-6.3,10.9-10.9c0.1-0.3,0-0.6,0-0.9c0.1,0.1,0.2,0.3,0.3,0.4c-0.2-1.7-0.9-3.2-2.6-3.8c-0.6-0.2-1.1-0.5-1.4-1
			c-1.1-0.3-2.2-0.3-3.2,0c-2.8,0.1-5.1,0.7-7.3,1c-2.3-0.1-4.5-0.5-7.4-0.4c-0.4-0.1-0.7-0.1-1.1-0.1c0.1-0.3,0.2-0.5,0.3-0.8
			c0.1-0.2,0.1-0.4,0.2-0.6c-1.1,0.2-1.8,0.5-2.6,1.3c-0.9,0.9-1.4,1.8-2,3c-0.2,0.4-0.5,0.7-0.8,1c0.1,0.2,0.1,0.3,0.2,0.5
			c0.2,0.8,0.1,1.6-0.3,2.3c0,0.1-0.1,0.2-0.1,0.3c0,0.2,0,0.4,0,0.6c0,0.2,0,0.5-0.1,0.7c0.3-0.3,0.6-0.6,0.9-1
			C522.5,309.6,526.4,313.1,530.5,314.3z"/>
		<path d="M524.3,369c0.1,0,0.2,0,0.4,0c0-0.8,0-1.6,0.1-2.4c-0.1,0.1-0.3,0.2-0.4,0.2C524.3,367.6,524.3,368.3,524.3,369z"/>
		<path d="M560.4,337.8c1.2-0.2,2.1-0.8,2.8-1.6C562.3,336.9,561.4,337.4,560.4,337.8z"/>
		<path d="M544.7,367.7c0.3-0.6,0.5-1.2,0.6-1.9c0-0.1,0.1-0.3,0.1-0.4c-0.4,0-0.7,0-1.1,0C544.4,366.2,544.5,367,544.7,367.7z"/>
		<path d="M529.3,327.7c2.9-0.9,5.9-1.2,9.1-0.9c1.3-0.4,2.6-1.1,3.8-1.8c-5.3-0.1-11.4-0.6-15.8,3.1
			C527.2,327.5,528.3,327.6,529.3,327.7z"/>
		<path d="M529.6,332.3c0.4,0.4,0.9,0.9,1.3,1.2c-1.1-0.8-2.3-0.3-3.8,0.4c0.1,0.1,0.1,0.2,0.2,0.3c0.2,0.4,0.4,0.8,0.5,1.2
			c0,0,0.1,0,0.1,0c0,0-0.1,0-0.1,0.1c0.6,1.6,0.8,3.2,0.7,4.9c0.3,0.1,0.6,0.3,1,0.5c2.6,1,3.5,3.2,3.4,6.1c0.6,0.4,1,1.1,1,2
			c0.4,0,0.9,0,1.4,0c0.3-2.2,0.5-4.4,1.2-6.9c0.3,1.7,1.3,2.4,1.7,4.1c0.9-3.5,0.3-6.8,0.1-9.8c1,1.4,2.5,2.1,4.2,2.4
			C539,335.2,534.6,333,529.6,332.3z"/>
		<path d="M510.7,337.7c-1.2-0.9-2.2-2.2-3.2-3.5c-0.1-0.1-0.2-0.3-0.3-0.4C508.1,335.5,509.4,336.9,510.7,337.7z"/>
		<path d="M522.4,348.2c-0.8,1.3-1.1,2.8-1.2,4.4C521.7,351.3,522.1,349.8,522.4,348.2z"/>
		<path d="M618.9,471.4c2-3.5,4.2-6.9,6.1-10.5c1.7-1.3,4.1-1.9,4.8-4.2c-0.8-1.1-1.5-2.3-2-3.6c1.7-0.4,3.4-1,4.9-1.8l-2.7-16.9
			c1.5,0.1,3.1,0,4.6-0.4c-2.9-3.9-5.7-8.3-6.2-13.3c-0.1-0.8,0.4-1.6,0.8-2.3c0.4-0.6,0.8-1.2,1.2-1.8c-0.2-1.4-0.4-2.9-0.7-4.3
			c-0.5,0.6-0.9,1.3-1.4,1.9l0,0.2c-0.1,0.2-0.4,0.5-0.5,0.7c0-0.4,0-1.1,0-1.5c-0.7-1.1-0.9-2.4-1.2-3.6c-1.2-5.2-3-10.3-5.3-15.1
			c0.3,0.1,0.6,0.2,0.9,0.3c-0.4-0.7-0.7-1.4-1-2.2c0,0,0,0-0.1-0.1c0,0,0,0,0,0c-0.5-1.1-0.9-2.2-1.3-3.3c-0.1-0.3-0.2-0.7-0.2-1
			c-1-0.6-1.9-1.2-2.8-1.9c-4.2-19.3-13.6-25.2-21.3-26.6c1.2-1.8-10.1-1.1-18.6-0.4l-0.8-2l0,0c11.5-5.2,20.4-14.5,23.5-26.8
			c0.6,0,1.2,0.6,1.9,0.6c1.9-7,2.5-14.5,3.6-21.7c0.1-1.2,0.2-2.4,0.3-3.6c2.9-2,5.2-4.7,6.6-8.2c2.2-5.5,4.2-11.1,6.4-16.6
			c0.5-1.1,1.3-2.4,2.4-3c1.8-1,2.3-2.3,2.3-4c0-1-0.1-2.1,0-3.1c0.1-1.2-0.1-2-0.8-2.5c0.9-1.1,1-3-0.5-4.1
			c-6.1-4.5-10.9-10.3-14.2-17.1c-1.5-3-6.1-0.4-4.6,2.7c3.3,6.7,7.9,12.4,13.7,17.1c-3.8-0.7-7.7-1.4-11.5-2
			c0.4-7.1-1.2-12.9-3.3-17.2c1.5-1.5,3.3-2.5,5.1-2.8c3.2-4.8,5.5-10.4,6.3-16c0.6-3.2,0.1-6.3-0.2-9.4c-0.6-0.1-1.1-0.2-1.7-0.3
			c0.2-1.3-0.2-2.7-1.3-3.5c-2-4.1-6.3-6.1-9.9-8c-1.9,0.4-3.9,0.9-5.8,1.5c-1.9,0.6-3.8,1.3-5.6,2.1c-1.2,3-4,3.6-5.7,3
			c-13.4-6.9-27.4-17-42.5-15.1c-7.8,1.3-15.1-0.6-23.2,1.2c-1.8,0.2-3.7,0.6-5.5,1.1c-11,2.8-21.5,9.3-30.6,17.3
			c-1.1,0.6-2.2,0-3.4-0.6c-1.5-0.6-3.2-1.7-4.3-3.3c-1.7-1.3-3.4-1.9-5.4-1.4c-1.9-0.4-3.9-0.7-5.9-0.9c-3.5,2.2-7.6,4.7-9.3,8.9
			c-1,0.9-1.3,2.3-1,3.6c-0.6,0.2-1.1,0.3-1.7,0.4c-0.1,3.1-0.3,6.2,0.5,9.4c1.4,6.5,5.1,12.9,9.6,17.9c-1.3,3.4-2.1,7.5-2.1,12.2
			c-3.2,0.5-6.3,1.1-9.5,1.8c3.5-3.6,6.9-7.3,10.1-11.3c2.1-2.6-1.6-6.4-3.7-3.7c-4.2,5.2-8.8,10.1-13.6,14.7c-1.1,1-1,2.3-0.3,3.2
			c-0.7,1.2-0.5,2.9,0.1,5.9c0.1,0.8,0.8,1.7,1.5,2.1c1.8,1,2.8,2.4,3.5,4.2c1.6,4.7,3.4,9.3,5.1,14c1.9,5.4,5.4,9.2,10.1,11.7
			c0.7,5.8,1.7,11.7,3.1,17.4c0.4,2,0.8,4.1,1.4,6c2.2,7.8,6.4,14.9,14.4,20.3c1.7,1.3,3.6,2.4,5.7,3.4l-21.4-1.9
			c-21.9-2.1-35.1,14.2-35.1,14.2l0.7,1.7c-3.3,3.1-4.6,5.7-4.6,5.7c0,0,0,0,0,0l-8.3,6.1c-1.9,0.5-3.9,0.5-5.9,0.1
			c-0.9,3.6,0.5,7.1,0.1,10.7c-0.2,2.4,1.6,4.4,1.8,6.7c-2.4,6.2-3.4,12.9-3.5,19.5l0,0l0,0c0,5.5,0.7,11,2.1,16.4
			c1.4,5.1,0.1,10.4-1.3,15.4c1.3-0.2,2.5-0.5,3.8-0.8c-0.3,1.3-0.6,2.6-1,3.8c1.7-0.1,3.3-0.7,4.9-1.3c4.7,9.9,11,19,18.5,26.8
			c-1.1,1.8-2.6,3.5-3.5,5.5c-2.8,6.2-2.4,13.7,0.8,19.7c3.6,6.7,9.6,11.8,15.9,16c2,1.4,4.3,2.4,6.2,4c-5.4,1-10.9,2-16,4.3
			c-1.3,0.7-3.2,1.5-3.2,3.3c0.4,1.7,2.1,2.4,3.5,3.2c6,2.7,12.6,3.5,19,4.8c4.7,3.7,9.4,7.9,15.3,9.5c2.1,0.2,4.2-0.3,6.3-0.4
			c15.3-1.5,30.6-3.1,45.9-4.6c9.1-0.3,18.2,0.1,27.3-0.5c11.8-0.2,23.6-1.1,35.3-2.1c9.7-1.1,19.5-2.1,28.9-4.6
			c3.1-0.9,6.3-1.7,8.8-3.9c0.9-0.7,1-2.1,0.1-2.9c-1.9-2-4.7-2.7-7.2-3.5c-3.9-1.3-8-1.9-12-2.7c8.4-5,16.9-10.6,22.2-19.1
			c4.4-6.8,4.6-16.3,0-23.1C628,476.3,623.5,473.5,618.9,471.4z M605.9,298.6c0.1-1.7,0.3-3.5,0.3-5.3c0.1-1.8,0.1-3.5,0.1-5.3
			c0.2-1.6,0.4-3.2,0.6-4.8c0.6-4.8,0.8-9.8-0.3-14.3c5.3,1.7,7.1,4.2,7.1,9.6c0,7.3-1.3,14.4-5,21c-0.8,1.5-1.9,2.8-3.2,3.9
			C605.7,301.8,605.8,300.2,605.9,298.6z M623,412.5c-0.5-2-1.1-4.1-1.7-6.5C622,408.2,622.6,410.4,623,412.5z M555.4,366.7
			c1-0.5,1.5,1.5,0.5,1.7C555.1,368.3,554.9,367.2,555.4,366.7z M603.1,284.5c-0.2,4.5-0.8,9.3-2.3,13.7c0,0.4,0.1,0.8,0.1,1.1
			c0,0.8-0.1,1.6-0.2,2.3c0,0.1,0,0.3,0,0.4c0,0.5,0,0.9-0.2,1.3c-0.1,0.7-0.1,1.3-0.2,2c0,0.3,0,0.7-0.1,1c0,0-0.1,0-0.1,0
			c-5.7,2.1-11.6,2.7-17.9,2.8c-7.2-0.1-14.6-1.2-21.6-3.9c-3.7-1.4-6.8-3.6-9.1-6.7c-0.8-1.1-1.5-2.2-2.2-3.3
			c0.9,0.5,1.7,0.9,2.6,1.3c-1.3-1.7-3.2-2.7-4.4-4.7c0,0,0,0,0-0.1c6.8,1.6,10.2,4.9,17,0.3c-0.8,2-2.1,3.7-3.2,5.6
			c2.5-1.6,4.2-4.4,6.3-6.5c-1,3.3-3.4,5.4-5.4,8.1c2.7-0.9,4.4-3.6,6.6-5.4c-0.7,2.3-2.6,3.9-4,5.8c5.9-2.2,8.5-7.9,11-13.4
			c1.9-3.9,6.3-1.8,8.9,0.2c-4.8-16.5-23.5-9.1-35-6.4c-1.8,0.5-3.6,0.8-5.5,1c-0.1-0.7-0.1-1.4-0.2-2.1c-0.2-4.3,1.9-7.4,6.1-9.4
			c4.4-2.1,9.2-3.1,14-3.7c2.8-0.2,5.6-0.4,8.4-0.8c9.5-0.5,18.9,0.2,28.2,2.3c0.1,0.4,0.2,0.8,0.2,1.3c0,0.2,0,0.3,0,0.5
			C603,274,603.3,279.5,603.1,284.5z M549.1,286.8c0.8-1.2,2.3-1.5,3.5-1.8c4.3-1.1,8.8-2.3,13-3.3c1.3-0.2,2.4-0.4,3.6-0.1
			c1,0.5,0.8,1.9,0.1,2.6c-1.9,2.5-5,4.2-8,5c-3.3,0.8-7.2,1-10.6-0.3v0C550.1,288.4,548.8,288,549.1,286.8z M607.9,239.6
			c0-0.3,0.1-0.7,0.1-1c0-1,0.3-1.9,1-2.4C608.8,237.4,608.4,238.4,607.9,239.6z M455.9,241.7c0.7,0.5,1.1,1.3,1.2,2.3
			c0,0.2,0.2,0.7,0.2,0.9C456.8,243.8,456.3,242.8,455.9,241.7z M454.3,296.7c-2.4-6.1-3.7-12.3-3.6-18.8c0.1-5,2-7.4,7.2-9.1
			c0.2-0.1,0.5-0.1,0.7-0.2c0.1,0.6,0.1,1.2,0.2,1.8c-0.1,0-0.3,0-0.4-0.1c1.3,11.5,1.6,23.2,2.8,34.7
			C458.1,303.1,455.8,300.4,454.3,296.7z M456.6,229.4c-0.2-0.3-0.4-0.8-0.6-1c-0.4,0.8-0.6,1.6-0.6,2.5c-0.3-1.2-0.3-2.5-0.1-3.8
			c0,0-0.1,0-0.1-0.2c0.3-1.6,0.6-3.6,1.1-5.3c-0.3,0.1-0.7,0.3-0.9,0.3c-0.1,0-0.1-0.1-0.3-0.1c1.4-2.1,3.1-3.8,5.7-4.6
			c1.4-0.7,2.8-1,4.2-1c1.4,0,2.8,0.4,4.2,0.9c3.7,1.7,8.1,3,9.8,7.4c0.6-0.6,1.7-1.3,2.2-1.3c1,0.8,1.6,2.7,1.6,3.9
			c7.6-10.4,18-16.7,29.5-19.7c1.9-0.5,3.8-0.9,5.8-1.2c20.1-3.6,47-2.4,61.5,15.9c0.6,0.6,2.8-1.9,5.6-1.9c0.6,0,1.1-1.3,1.4-2.5
			c1.2-0.7,2.5-1.6,3.8-2.4c3.9-2.5,8.1-4.8,12.4-3c2.6,0.6,4.4,2.2,6,4.1c-0.2,0-0.2,0.1-0.3,0.2c-0.2,0-0.6-0.1-0.9-0.2
			c0.6,1.6,1,3.6,1.4,5.1c0,0.2-0.1,0.2-0.1,0.2c0.3,1.3,0.3,2.5,0.1,3.8c-0.1-0.9-0.4-1.6-0.8-2.4c-0.2,0.3-0.3,0.7-0.5,1.1
			c-0.5,4.5-1.7,9-4.2,12.6c0.8-2.5,2.1-5.2,2.3-7.9c-1.8,4.5-4.2,9.4-7.8,12.3c-0.3-0.3-0.6-0.7-0.8-1c0.7-1,1.3-2.1,1.7-3.2
			c-0.9,0.7-1.6,1.6-2.4,2.4c-0.7-0.7-1.1-1.1-1.1-1.1l0.4,1.7c-1.3,1.1-2.6,1.9-4.1,2.3c-0.3-0.3-0.7-0.3-1.1-0.4
			c0.9-0.6,1.7-1.5,2.5-2.5c-1.1,0.8-2.2,1.5-3.5,2l-0.6-0.2c0,0,0.1-0.1,0.1-0.1c-0.7,0.2-1.5,0.7-1.9,1.1l0,0.5
			c0.9-0.6,2.2-0.7,3.3,0.3c3.5,3.5,5.8,8.7,7.6,13.3c0,0.1,0.1,0.2,0.1,0.4c0.2-0.1,0.5-0.2,0.7-0.4c0-0.9,0-1.8,0.2-2.6l2.6,10.7
			c-2.5-0.4-5-0.7-7.5-1c-2.9-0.3-5.8-0.5-8.7-0.7c0.2-0.2,0.3-0.4,0.4-0.6c-0.3,0-0.9,0.1-1.2,0.2c-3.5-0.1-7,0.1-10.5-0.3
			c4-0.1,7.7-0.9,11.6-1.4c1.4-0.5,1-1.6,1.4-2.4c-2,0.5-4.1,0.9-6.2,1.2c-1.1-0.1-2.2,0.1-3.3,0.2c2.8-0.8,5.7-1.5,8.4-2.4
			c0.5-0.3,1.4-0.4,1.2-0.9c0-1.6-0.1-3.2-0.7-4.8c-1.1,0.2-2.2,0.5-3.3,0.8c-13.6,3.1-27.5,5.9-42,6.9c-0.2,0-0.7,0-0.9,0
			c0.4,1.3,0,2.7,0.9,3.9c2.2,0,4.5,0,6.7,0.1c-1.9,0.4-3.9,0.6-5.8,0.8c-1.6-0.1-1,0.9-0.6,1.4c3.1,0.5,6.3,0.5,9.5,0.6
			c0,0,0,0,0,0c-2.9,0.8-5.8,1.8-8.6,2.9c-6.5,2.6-13.5,2.5-20,0c-11.8-4.5-24-6.6-36.5-6.3c-7.7-0.1-15.3,0.5-22.7,1.6l1.2-5.1
			c0.4,0.3,0.7,0.6,1,1c0.1,0.1,0.2,0.3,0.3,0.4c0.2-0.3,0.4-0.5,0.7-0.7c1.7-5,4.1-10,7.6-13.8c0,0,0,0,0,0c-1.8-0.4-3.4-1.2-5-2.5
			c-0.3-0.2-0.6-0.5-0.8-0.7l0.6-2.6c0,0-0.7,0.6-1.7,1.7c-0.2-0.2-0.5-0.4-0.8-0.6c0.1,0.3,0.3,0.6,0.5,0.9
			c-0.4,0.4-0.8,0.9-1.2,1.5c-2.8-2.7-5-6.4-6.7-10c0.4,2.7,1.8,5.2,2.8,7.6C458.9,238.1,457.4,233.8,456.6,229.4z M596,242.3
			c-0.4,0.2-0.7,0.4-1.1,0.6c0.3-0.4,0.6-0.9,1-1.3L596,242.3z M467.5,245.4l0.4-1.5c0.8,1,1.7,2,2.6,3
			C469.4,246.6,468.5,246.1,467.5,245.4z M464.3,301.8c0.2,0.3,0.3,0.5,0.5,0.8c0-0.1,0-0.3,0.1-0.4c1.2-5.4-1-11-2.1-16.3
			c-0.9-4.3-1.3-8.5-0.2-12.6c-0.1,0-0.1,0-0.2,0.1c0-1.5,0-2.6,0.3-3.9c-0.3,0-0.7-0.1-1-0.2l0.4-1.7c7.9-2,16.1-2.6,24.4-2.8
			c8.2,0.2,16.4,0.8,24.2,3.5c1.1,0.4,2.2,0.9,3.3,1.3c4.3,1.9,6.3,5.1,6,9.4c0,0.7-0.1,1.3-0.2,1.9c-1.8-0.2-3.6-0.5-5.4-1
			c-11.5-2.7-30.2-10.1-35,6.4c2.7-1.9,7.1-4.1,8.9-0.2c2.5,5.5,5.1,11.1,11,13.4c-1.3-1.8-3.3-3.5-4-5.8c2.1,1.8,3.8,4.5,6.6,5.4
			c-2-2.7-4.4-4.8-5.4-8.1c2.1,2.1,3.9,4.9,6.3,6.5c-1.1-1.9-2.4-3.6-3.2-5.6c6.9,4.5,10.2,1.3,17-0.3c-1.2,2-3.1,3-4.5,4.8
			c0.9-0.4,1.8-0.9,2.7-1.4c-1.3,2.2-2.9,4.2-4.8,6.2c-3,3.2-7.4,4.5-11.7,5.6c-10.6,2.8-21.2,3.1-31.9,0.3
			c-0.6-0.2-1.2-0.3-1.8-0.5C464.7,305,464.5,303.4,464.3,301.8z M513.8,288.8L513.8,288.8c-3.4,1.3-7.2,1.1-10.6,0.3
			c-3-0.9-6.1-2.5-8-5c-0.7-0.7-0.9-2.1,0.1-2.6c1.2-0.3,2.3,0,3.6,0.1c4.3,1,8.8,2.2,13,3.3c1.2,0.3,2.8,0.6,3.5,1.8
			C515.7,288,514.5,288.4,513.8,288.8z M472.2,333.1c-0.8-1.9-1.4-3.8-2-5.7c-1.5-6.2-3.5-12.1-4.7-18.2c1.3,0.4,2.6,0.8,4,1.1
			c10.7,2.1,21.3,0.9,31.9-1.2c8-1.6,14.3-6.8,17.2-14.2c0.2-0.6,0.5-1.3,0.7-1.9c0.5-0.2,1-0.4,1.5-0.6c0.1-0.1,0.3-0.1,0.4-0.2
			c1.6-3.5,2.3-7.1,2.4-10.8c0.1-0.4,0.3-0.7,0.4-1.1c1-3.1,2.5-4.3,6-4.6c1-0.1,2.1-0.1,3.2-0.1c5.1,0,6.6,1.3,8,5.8
			c0,0.1,0.1,0.2,0.1,0.3c0.1,3.6,0.8,7.1,2.4,10.5c0.1,0.1,0.3,0.1,0.4,0.2c0.2,0.1,0.5,0.2,0.7,0.3c0.4,1.1,0.9,2.2,1.5,3.3
			c3.6,7.1,8.5,10.3,17,12.9c6.5,2,12.5,2.7,19.4,2.7c5.2,0,11.1-0.7,15.9-2.3c0.6-0.2,1.2-0.4,1.8-0.7c-0.1,0.6-0.1,1.2-0.2,1.8
			c-0.4,20.2-12.2,40-34,46c-1,0.5-2.2,1.2-3.5,1.9c-3.9,2.1-8.3,4.6-8.3,4.6c-0.7-1.6-1.5-3.1-2.3-4.6c0,0,0.1,0.1,0.1,0.1
			c3.6-3.6,7.8-6.9,10.1-11c1.3-1.7,2.6-3.5,3.6-5.4c3.1-5.6,4.4-12,1.7-20.2c-1-2.2-2-4.2-2.9-6.1c-0.8-1.5-1.5-3.3-2.5-4.8
			s-2-2.9-3.6-3.3c0.9,1.2,1.8,2.6,2.6,4.3c1.8,3.4,3.4,7.6,4.1,11.7c0.4,2,0.5,4,0.4,5.9c-0.3,2.1-0.7,4.8-2.4,6.5
			c1.1-0.8,2.2-1.7,3.2-2.6c-3.8,8.4-7.6,21.5-15.1,23.4c-0.4-0.8-0.8-1.6-1.2-2.3c0.5,3.8,1.3,7.6,1.8,11.4
			c0.5,1.4,0.6,2.9,0.3,4.3c-1.5,0.9-2.9,1.8-4.3,2.8c0,0.2,0,0.4,0,0.6c0,2.4-2.7,3.1-4.2,2.1c-0.4,0.2-0.8,0.5-1.2,0.7l-3.8-11.4
			l1.3,12.9c-1.9,1.2-3.9,2.4-5.9,3.5c-0.7,0.5-1.5,0.7-2.3,1l0,0.1c-0.4,0.1-1.1,0.3-1.4,0.4c-1.8-1.1-3.6-2.3-5.4-3.4
			c0-0.3,0-0.5,0-0.8c-0.8,0.3-1.6,0.3-2.4-0.1l1.6-16l-3.1,14.4c-2.4-1.7-5-3.3-7.3-5.2c-0.7-2.1-0.2-4.4-0.6-6.6
			c-0.6,1.7-1.1,3.4-1.5,5.1c-0.6-0.5-1.8-0.9-1.6-1.8c0-4.6,0.7-9.1,1.5-13.6c0,0,0-0.1,0-0.1c0,0,0,0,0,0c0.4-2.1,0.8-4.1,1.1-6.2
			c-0.2,0-0.5-0.1-0.7-0.1c-0.7,1.8-1.3,3.6-1.8,5.4c0,0-0.1-0.1-0.1-0.1c-3.8-3.5-6.4-7.8-7.8-12.8c-0.6-1.7-1.2-3.5-1.8-5.2
			c-0.5-1.8-1-3.5-1.5-5.2c1.1,0.8,2.1,1.9,3.1,3c-0.1-0.1-0.2-0.3-0.3-0.4c-1.1-1.9-2-4.3-2.3-6.9c-0.7-6,1.1-12.8,4.2-17
			c-2.5-0.9-5,1.6-5.6,5c0.6-0.8,1.2-1.7,1.9-2.5c-1.2,6.8-6.7,11.8-4.7,19.6l0.6-0.8c1.9,3.4,3.8,6.7,3.3,10.9
			c0.1-0.6,0.6-0.7,0.6-1.4c0.6,1.9,1.3,3.6,2.2,5.2c2.2,3.5,5.1,7,7.6,10.8c-0.5,1.7-1,3.4-1.5,5.1l0,0.7c-1.7-0.9-3.4-1.9-5-3
			c0.1-0.4,0.2-0.8,0.2-1.2c-1.1,0.3-2.5-0.1-3.4-0.9c0,0,0,0.1,0,0.1c-1.6-0.8-3.1-1.7-4.6-2.6c-2.5-0.7-4.7-1.5-6.7-2.5
			c-2-1-3.7-2.2-5.3-3.5C477.9,343.9,474.5,338.7,472.2,333.1z M524.3,382.8l-2.2-1.5l0.1-1c0.4,0.2,0.8,0.5,1.1,1
			C523.6,381.8,523.9,382.3,524.3,382.8z M478.6,462.1c2.8,3.7,1.9,14.8,1.9,14.8c-0.4,2.2-1.6,5-4.2,5.1c-2.2,0.1-3.6-2-4.1-3.9
			c-1.2-4.3-1.4-8.9-0.7-13.4c0.3-1,0.8-2,1.6-2.7c0.4-0.1,0.9-0.3,1.4-0.6C475.9,461.3,477.5,461.3,478.6,462.1z M460.8,417.9
			l12.8-11.1c-0.1,0.7-0.2,1.4-0.3,2.1c-0.4,3.6-2.9,6.5-5.1,9.2c1.2,0.3,2.4,0.5,3.6,0.7c-0.3,2.2-2,3.9-3.3,5.6
			c0.8,0.2,1.7,0.4,2.5,0.7c-1,6.9-2.4,13.7-4.1,20.4c-0.8-1.1-1.5-2.3-2.1-3.6c-2.7-5.8-5.3-11.7-7.3-17.8L460.8,417.9z
			 M416.3,385.1l4.8,6c-2.3-1.5-4.9-3.3-5.8-6C415.6,385.1,416,385.1,416.3,385.1z M421,445.5c-3.8-8.6-6.3-17.9-6.5-27.4l38.2,5.3
			c1.7,5.5,3.9,10.9,6.2,16.1c3.2,7,6.7,13.9,10.9,20.3c0,0.1,0,0.3,0.1,0.4c-0.2,0.4-0.4,1.1-0.6,1.4c-0.1,0.3-0.2,0.9-0.2,1.3
			c-1-1.4-1.8-2.9-3.4-3.6c-1.4-0.8-3-0.8-4.5-0.9c-4.2,0.1-8,2.8-9.4,6.8c-1.4-1.6-3.3-3.1-5.6-3.2c-2.4-0.2-4.5,1-6.3,2.4
			c-2,2-2.5,4.8-2.4,7.5C431,463.7,425.1,455,421,445.5z M467.6,473.7c-0.1,3,0.1,6.1-1.3,8.8c-0.9,2-3.1,3.6-5.3,3.4
			c-2.7-0.5-4.2-3.3-4.5-5.8c-0.6-4.1-2.1-8.1-2.1-12.3c0.6-2.4,2.1-4.8,4.6-5.6c2.9-1.4,6.8,0.1,7.9,3.2
			C467.7,468,467.6,470.9,467.6,473.7z M453.3,482.8c-0.1,3.6-4.5,5.7-7.4,3.7c-4.1-2.7-4.9-8.1-5.6-12.6c0-3.2,1.4-6.7,4.5-7.9
			c2.3-0.5,4.4,1,5.7,2.7C452,473.3,452.9,478,453.3,482.8z M435.6,492.7c0-2.7,0.5-5.5,1.6-8l0,0.2
			C436.2,487.3,435.7,490,435.6,492.7z M449,491.3c-4.8,0.7-7.6-4.1-9.8-7.8c0-0.3-0.1-0.9-0.2-1.2c-0.6,0.7-1.2,1.5-1.8,2.2l0-0.2
			c0.6-0.7,1.2-1.5,1.8-2.2c0,0.3,0.1,0.8,0.2,1.1c2.2,3.4,5,8.1,9.8,7.4c3.4,0,5.4-3.1,6.4-6c2.2,4.8,9.8,5,12.7,0.8
			c0.9-1.5,1.4-3.2,2.1-4.9c1.5,3,5.1,5.1,8.4,4c1.9-0.5,3.1-2.1,4-3.8c0.6,0.2,1.3,0.4,1.9,0.6c1.3,0.4,2.6,0.9,4,1.3
			c0.1,0.1,0.2,0.2,0.4,0.3c-1.4-0.5-2.9-1-4.3-1.5c-0.6-0.2-1.3-0.5-1.9-0.7c-0.9,1.7-2.1,3.5-4,4c-3.4,1.1-6.9-1.1-8.4-4.3
			c-0.6,1.7-1.1,3.5-2.1,5.1c-2.9,4.4-10.5,4.2-12.7-0.9C454.5,488,452.4,491.3,449,491.3z M452.6,515.9c-0.3-1.4-0.5-2.8-0.5-4.3
			l-0.3-0.2c0.1-0.5,0.1-1,0.1-1.5l0.1,0.1c0,2.2,0.5,4.3,1.2,6.4C453.1,516.2,452.8,516.1,452.6,515.9z M513.8,538.4
			c0.1-0.7,0.2-1.3,0.4-2c-1.2,0.5-2.4,0.6-3.6,0.4c0,0.2,0,0.5-0.1,0.7c-8.3,2-16.7,3.3-25.1,4.5c-3,0.3-6,1.1-9,0.8
			c-2.2-1-4.2-2.6-5.7-4.4c1.4-0.6,2.8-1.1,4.2-1.6c0.9-0.5,1.7-0.9,2.6-1.4c-1.1,0.2-2.2,0.4-3.2,0.6c-1.6,0.2-3.3,0.8-4.9,0.6
			c-1.2-1.5-1.8-3.3-2.6-5c1.4-0.7,2.9-1.3,4.4-1.8c0.5-0.2,0.9-0.5,1.4-0.7c-0.4,0-1.3,0-1.8-0.1c-1.5,0.1-3.1,0.7-4.6,0.4
			c-0.9-2-1-4.1-1.1-6.2c1.6-0.2,3.1-0.4,4.7-0.5c1.5-0.1,3-0.2,4.5-0.7c-2.3-0.7-4.6-0.9-7-1c-0.8,0.1-1.3-0.7-1.7-1.2
			c-2-3.1-3.6-6.4-4.7-9.9c-0.3,3.7,0.5,7.5,2,10.9c-3.3-0.3-5.9-3-7-6c-1.2-2.7-1.3-5.7-1.1-8.6c0.1-2.2,2.2-4.1,4.4-4
			c2-0.2,4,0.2,5.9,0.5c4.6,0.6,9.2,1.1,13.8,1.7c6.4,1.1,12.9,0.9,19.4,1.3c0.2,0,0.6,0,0.8,0c1.7-0.2,3.3-0.2,5,0
			c0.1,0.3,0.2,0.5,0.2,0.8h4.4c-0.4-0.9-0.8-1.8-1-2.7c8.4,0.4,16.5-2.1,24.5-4.4c-3.8,3.6-8.6,5.9-13.4,7.9
			c-1.3,0.6-2.5,1.6-2.9,2.9c-0.4,1.6,0.8,3,1.9,4c2.6,2.1,5.9,3.1,9.2,3.6c3,0.3,6.1,0.3,9.1-0.2c1.5,5.4,2.1,11,2.1,16.6l0.7,0.5
			C530.4,535.2,522.1,536.5,513.8,538.4z M580.3,501.4c-0.4-0.3-1.2-0.8-1.6-1.1c-0.6-0.6-1.1-1.2-1.5-1.8c-0.6,0.8-1.2,1.6-1.8,2.5
			c0.7,1.2,1.4,2.3,2.1,3.5c-0.9,3.4-2.4,6.6-4.1,9.7c-0.4,0.7-0.9,1.5-0.5,2.3c1.1,4.2,2.4,8.3,3.3,12.5c0.4-1,0.7-2,1-3
			c1.7,0,3.6-0.6,5.1,0.5c1.6,1.8,1.8,4.5,1.3,6.8c-2.8,1.2-5.8,1.9-8.7,2.7c-3,0.9-7.1,1.9-9.4-0.7c-0.6-5.2-1.1-10.9-4.8-15
			c0,0.2-0.1,0.7-0.1,1c1.3,2.4,1.1,5.1,1.5,7.7c0.2,1.8,0.3,3.7,0,5.5c-2.1,0.6-4.3,0.8-6.4,0.5c-0.6-0.1-1.3-0.1-1.9-0.2
			c-0.3-5.3-0.8-10.9-3.8-15.4c0.2,1,0.4,2.1,0.4,3.1c1,3,0.4,6.3,0.6,9.4c-0.1,1.1,0.2,2.6-0.6,3.5c-2.8,0.3-5.8,0.3-8.1-1.6
			c-0.4-0.5-0.7-1-1.1-1.4c-0.6-6.5-0.8-13.2-3.5-19.3c-0.8-1.8-2-3.2-3.2-4.7c-0.2,0.1-0.6,0.4-0.8,0.5l0.2,0.2
			c0.9,1.8,1.5,3.7,1.7,5.7c-4.8,1.2-10.4,1.3-14.4-2c-1.2-0.6-1.6-2.6,0-2.8c7-2,13.3-6.7,16.8-13.1c0.8-1.7,1.6-3.5,2.5-5.1
			c0.6,0,1.1,0,1.7-0.1c0.4-0.8,0.8-1.6,1.3-2.3c-0.1-0.3-0.2-0.6-0.2-0.9c0-0.3,0-0.6,0.1-0.8c-0.9,0.1-1.7,0.3-2.6,0.4
			c0.4-1.1,0.8-2.1,1.5-3c4.3-8.1,11-14.7,17.9-20.6c8.9-7.5,18.7-13.8,28.8-19.5c3.8-2,7.4-4.6,11.8-4.9l27.1,9.7
			c-1.6,0.3-3.2,0.6-4.8,0.1c-0.5,0-1.5,0.1-2.1,0.1c1.1,0.8,2.3,1.3,3.5,1.8c0.5,1.4,1.2,2.8,1.9,4.1c-1.6,1.8-4.1,2.3-6.3,2.6
			l-0.4,0.6c0.4,0.1,1.1,0.2,1.4,0.2C612.4,477.1,597.9,492.1,580.3,501.4z"/>
	</g>
</g>
<g>
	<path d="M65,188.2v-33.3h8.3l9.2,15.6c0.4,0.7,0.8,1.5,1.3,2.4c0.5,0.9,0.8,1.7,1.1,2.4l0.4,0.9h0.1c-0.2-2.4-0.4-4.3-0.4-5.7
		v-15.6h8.2v33.3H85l-9.3-15.5c-0.4-0.7-0.8-1.5-1.3-2.4c-0.5-0.9-0.8-1.7-1.1-2.4l-0.4-0.9h-0.1c0.2,2.4,0.4,4.3,0.4,5.7v15.5H65z"
		/>
	<path d="M98.9,179.8v-15.6h8.1v14.1c0,2.1,0.9,3.2,2.6,3.2c1.6,0,2.9-0.6,3.8-1.9c0.9-1.3,1.3-2.8,1.3-4.7v-10.6h8.1v24h-7.7v-2.1
		l0.1-1.5h-0.1c-0.7,1.3-1.7,2.3-3,3c-1.4,0.7-2.9,1.1-4.5,1.1c-2.6,0-4.7-0.7-6.2-2.1C99.6,185.2,98.9,182.9,98.9,179.8z"/>
	<path d="M126.7,176.2c0-3.6,1.1-6.6,3.4-9c2.3-2.4,5.3-3.6,9.1-3.6c3.4,0,6.2,1.1,8.1,3.2c2,2.2,3,4.9,3,8.4c0,0.6-0.1,1.4-0.2,2.5
		H135c0.3,1.4,0.9,2.5,2,3.2c1,0.7,2.2,1.1,3.6,1.1c2,0,4.2-0.8,6.6-2.4l3,5.6c-1.3,1.1-2.8,1.9-4.7,2.6c-1.8,0.6-3.7,0.9-5.6,0.9
		c-4.1,0-7.3-1.2-9.6-3.7C127.9,182.5,126.7,179.6,126.7,176.2z M135.1,173.1h7.2c0-1-0.3-1.9-0.9-2.6c-0.6-0.7-1.4-1-2.4-1
		C137,169.5,135.7,170.7,135.1,173.1z"/>
	<path d="M152.7,185.2l3.4-5.3c1.9,1.6,4.1,2.4,6.5,2.4c1.5,0,2.2-0.4,2.2-1.3c0-0.5-0.4-0.9-1.2-1.2c-0.8-0.4-1.7-0.7-2.8-1.1
		c-1.1-0.4-2.2-0.8-3.3-1.4c-1.1-0.5-2-1.3-2.8-2.4c-0.8-1.1-1.2-2.3-1.2-3.8c0-2.4,0.9-4.3,2.8-5.6c1.9-1.3,4.3-2,7.2-2
		c3.4,0,6.3,0.9,8.6,2.8l-2.8,5.6c-0.7-0.6-1.6-1-2.8-1.4c-1.2-0.4-2.3-0.6-3.3-0.6c-1.5,0-2.2,0.4-2.2,1.2c0,0.4,0.3,0.7,0.8,1
		c0.6,0.3,1.3,0.6,2.1,0.8c0.8,0.2,1.7,0.6,2.7,1s1.9,0.9,2.7,1.4c0.8,0.5,1.5,1.2,2.1,2.2c0.6,0.9,0.8,2,0.8,3.2
		c0,2.3-0.9,4.2-2.7,5.7c-1.8,1.5-4.2,2.2-7.2,2.2C158.6,188.8,155.3,187.6,152.7,185.2z"/>
	<path d="M177.8,179.3v-8.4h-3.1v-6.3h3.3v-6.9h7.8v6.9h5v6.3h-5v7.4c0,2.1,1.4,3.1,4.3,3.1c0.4,0,0.7,0,1.1,0v7
		c-1.2,0.1-1.9,0.1-2.2,0.1c-0.7,0-1.5,0-2.2-0.1c-0.7-0.1-1.5-0.2-2.4-0.4c-0.9-0.2-1.7-0.5-2.5-1c-0.7-0.4-1.4-1-2.1-1.6
		c-0.7-0.6-1.2-1.5-1.5-2.5C178,181.8,177.8,180.6,177.8,179.3z"/>
	<path d="M195.6,188.2v-24h7.7v4.1l-0.1,1.5h0.1c0.5-1.7,1.5-3.1,2.9-4.2c1.4-1.1,3-1.7,4.7-1.7c0.2,0,0.6,0,0.9,0.1v7.9
		c-0.3-0.1-0.8-0.1-1.6-0.1c-2.2,0-3.8,0.6-4.9,1.9c-1.1,1.3-1.7,3-1.7,5.3v9.3H195.6z"/>
	<path d="M217.8,185.3c-2.6-2.3-3.9-5.3-3.9-9c0-3.7,1.3-6.7,3.9-9.1c2.6-2.4,5.8-3.5,9.6-3.5c3.9,0,7.1,1.2,9.7,3.5
		c2.6,2.3,3.9,5.4,3.9,9.1c0,3.7-1.3,6.7-3.9,9c-2.6,2.3-5.8,3.5-9.7,3.5C223.7,188.8,220.4,187.6,217.8,185.3z M222.1,176.3
		c0,1.7,0.5,3.1,1.6,4.2s2.3,1.6,3.9,1.6c1.5,0,2.8-0.5,3.9-1.6c1.1-1.1,1.6-2.5,1.6-4.2c0-1.8-0.5-3.2-1.6-4.3
		c-1.1-1.1-2.3-1.6-3.9-1.6c-1.5,0-2.8,0.5-3.9,1.6S222.1,174.5,222.1,176.3z"/>
	<path d="M257.4,179.3v-8.4h-3.1v-6.3h3.3v-6.9h7.8v6.9h5v6.3h-5v7.4c0,2.1,1.4,3.1,4.3,3.1c0.4,0,0.7,0,1.1,0v7
		c-1.2,0.1-1.9,0.1-2.2,0.1c-0.7,0-1.5,0-2.2-0.1c-0.7-0.1-1.5-0.2-2.4-0.4c-0.9-0.2-1.7-0.5-2.5-1c-0.7-0.4-1.4-1-2.1-1.6
		c-0.7-0.6-1.2-1.5-1.5-2.5C257.6,181.8,257.4,180.6,257.4,179.3z"/>
	<path d="M275.1,188.2v-24h7.7v4.1l-0.1,1.5h0.1c0.5-1.7,1.5-3.1,2.9-4.2c1.4-1.1,3-1.7,4.7-1.7c0.2,0,0.6,0,0.9,0.1v7.9
		c-0.3-0.1-0.8-0.1-1.6-0.1c-2.2,0-3.8,0.6-4.9,1.9c-1.1,1.3-1.7,3-1.7,5.3v9.3H275.1z"/>
	<path d="M293,181.4c0-1.5,0.4-2.8,1.3-4c0.8-1.1,2-2,3.3-2.6c1.4-0.6,2.8-1,4.3-1.3c1.5-0.3,3-0.4,4.7-0.4h0.7v-0.4
		c0-1.8-1.1-2.7-3.4-2.7c-2.1,0-4.3,0.8-6.6,2.3l-2.8-5.7c1.1-0.8,2.6-1.6,4.5-2.2c1.9-0.6,3.8-0.9,5.7-0.9c3.3,0,5.9,0.9,7.9,2.6
		c1.9,1.7,2.9,4.1,2.9,7.2v14.8H308v-1.4l0.1-1.5H308c-0.8,1.1-1.8,1.9-3.1,2.6c-1.3,0.6-2.6,0.9-4,0.9c-2.3,0-4.2-0.7-5.6-2.1
		C293.7,185.3,293,183.5,293,181.4z M301,180.7c0,0.6,0.2,1.1,0.6,1.5c0.4,0.4,1,0.6,1.7,0.6c1.1,0,2.1-0.5,2.9-1.4
		c0.8-0.9,1.2-1.9,1.2-2.9v-0.7h-0.7c-1.5,0-2.8,0.2-3.9,0.7C301.5,179,301,179.7,301,180.7z"/>
	<path d="M320.4,188.2v-33.3h8.1v9.3l-0.1,2.1h0.1c0.7-0.8,1.6-1.4,2.8-1.9c1.2-0.5,2.4-0.7,3.7-0.7c3.3,0,5.9,1.2,7.9,3.5
		c2,2.3,3,5.4,3,9.1s-1.1,6.8-3.2,9.1c-2.1,2.3-4.8,3.4-8,3.4c-2.9,0-5.1-0.9-6.7-2.8h-0.1c0,0.4,0,0.9,0,1.4v0.9H320.4z
		 M328.3,176.4c0,1.6,0.4,2.9,1.2,4c0.8,1.1,2,1.7,3.5,1.7c1.3,0,2.5-0.5,3.4-1.5c0.9-1,1.4-2.4,1.4-4.2s-0.4-3.2-1.3-4.3
		c-0.9-1.1-2-1.6-3.4-1.6c-1.3,0-2.5,0.5-3.4,1.5C328.7,172.9,328.3,174.4,328.3,176.4z"/>
	<path d="M348.3,181.4c0-1.5,0.4-2.8,1.3-4c0.8-1.1,2-2,3.3-2.6c1.4-0.6,2.8-1,4.3-1.3c1.5-0.3,3-0.4,4.7-0.4h0.7v-0.4
		c0-1.8-1.1-2.7-3.4-2.7c-2.1,0-4.3,0.8-6.6,2.3l-2.8-5.7c1.1-0.8,2.6-1.6,4.5-2.2c1.9-0.6,3.8-0.9,5.7-0.9c3.3,0,5.9,0.9,7.9,2.6
		c1.9,1.7,2.9,4.1,2.9,7.2v14.8h-7.4v-1.4l0.1-1.5h-0.1c-0.8,1.1-1.8,1.9-3.1,2.6c-1.3,0.6-2.6,0.9-4,0.9c-2.3,0-4.2-0.7-5.6-2.1
		C349,185.3,348.3,183.5,348.3,181.4z M356.2,180.7c0,0.6,0.2,1.1,0.6,1.5c0.4,0.4,1,0.6,1.7,0.6c1.1,0,2.1-0.5,2.9-1.4
		c0.8-0.9,1.2-1.9,1.2-2.9v-0.7h-0.7c-1.5,0-2.8,0.2-3.9,0.7C356.8,179,356.2,179.7,356.2,180.7z"/>
	<path d="M375.7,188v-23.8h8.1v24.6c0,1.5-0.3,2.9-0.8,4c-0.6,1.2-1.2,2.1-2,2.7c-0.8,0.6-1.7,1.1-2.8,1.5c-1.1,0.4-2.1,0.6-2.9,0.7
		c-0.9,0.1-1.7,0.2-2.6,0.2c-0.7,0-1.4,0-2.1-0.1V191c0.2,0,0.6,0,1,0C374.3,191.1,375.7,190.1,375.7,188z M375.8,161.2v-6.3h7.9
		v6.3H375.8z"/>
	<path d="M391.8,185.3c-2.6-2.3-3.9-5.3-3.9-9c0-3.7,1.3-6.7,3.9-9.1c2.6-2.4,5.8-3.5,9.6-3.5c3.9,0,7.1,1.2,9.7,3.5
		c2.6,2.3,3.9,5.4,3.9,9.1c0,3.7-1.3,6.7-3.9,9c-2.6,2.3-5.8,3.5-9.7,3.5C397.6,188.8,394.4,187.6,391.8,185.3z M396,176.3
		c0,1.7,0.5,3.1,1.6,4.2s2.3,1.6,3.9,1.6c1.5,0,2.8-0.5,3.9-1.6c1.1-1.1,1.6-2.5,1.6-4.2c0-1.8-0.5-3.2-1.6-4.3
		c-1.1-1.1-2.3-1.6-3.9-1.6c-1.5,0-2.8,0.5-3.9,1.6S396,174.5,396,176.3z"/>
	<path d="M62.9,232.1c0-3.6,1.1-6.6,3.4-9c2.3-2.4,5.3-3.6,9.1-3.6c3.4,0,6.2,1.1,8.1,3.2c2,2.2,3,4.9,3,8.4c0,0.6-0.1,1.4-0.2,2.5
		H71.1c0.3,1.4,0.9,2.5,2,3.2c1,0.7,2.2,1.1,3.6,1.1c2,0,4.2-0.8,6.6-2.4l3,5.6c-1.3,1.1-2.8,1.9-4.7,2.6c-1.8,0.6-3.7,0.9-5.6,0.9
		c-4.1,0-7.3-1.2-9.6-3.7C64.1,238.5,62.9,235.5,62.9,232.1z M71.3,229.1h7.2c0-1-0.3-1.9-0.9-2.6c-0.6-0.7-1.4-1-2.4-1
		C73.1,225.5,71.9,226.7,71.3,229.1z"/>
	<path d="M88.9,241.2l3.4-5.3c1.9,1.6,4.1,2.4,6.5,2.4c1.5,0,2.2-0.4,2.2-1.3c0-0.5-0.4-0.9-1.2-1.2c-0.8-0.4-1.7-0.7-2.8-1.1
		c-1.1-0.4-2.2-0.8-3.3-1.4c-1.1-0.5-2-1.3-2.8-2.4c-0.8-1.1-1.2-2.3-1.2-3.8c0-2.4,0.9-4.3,2.8-5.6c1.9-1.3,4.3-2,7.2-2
		c3.4,0,6.3,0.9,8.6,2.8l-2.8,5.6c-0.7-0.6-1.6-1-2.8-1.4c-1.2-0.4-2.3-0.6-3.3-0.6c-1.5,0-2.2,0.4-2.2,1.2c0,0.4,0.3,0.7,0.8,1
		c0.6,0.3,1.3,0.6,2.1,0.8c0.8,0.2,1.7,0.6,2.7,1s1.9,0.9,2.7,1.4c0.8,0.5,1.5,1.2,2.1,2.2c0.6,0.9,0.8,2,0.8,3.2
		c0,2.3-0.9,4.2-2.7,5.7c-1.8,1.5-4.2,2.2-7.2,2.2C94.8,244.7,91.5,243.5,88.9,241.2z"/>
	<path d="M124.3,244.1v-33.3h8.1v10.5l-0.1,2.1h0.1c0.7-1.2,1.7-2.1,3-2.8c1.3-0.7,2.8-1,4.3-1c5.7,0,8.6,3,8.6,9v15.6h-8.1v-14.1
		c0-2.1-0.9-3.2-2.7-3.2c-1.7,0-3,0.6-3.9,1.8c-0.9,1.2-1.4,2.7-1.4,4.7v10.8H124.3z"/>
	<path d="M151.8,237.4c0-1.5,0.4-2.8,1.3-4c0.8-1.1,2-2,3.3-2.6c1.4-0.6,2.8-1,4.3-1.3c1.5-0.3,3-0.4,4.7-0.4h0.7v-0.4
		c0-1.8-1.1-2.7-3.4-2.7c-2.1,0-4.3,0.8-6.6,2.3l-2.8-5.7c1.1-0.8,2.6-1.6,4.5-2.2c1.9-0.6,3.8-0.9,5.7-0.9c3.3,0,5.9,0.9,7.9,2.6
		c1.9,1.7,2.9,4.1,2.9,7.2v14.8h-7.4v-1.4l0.1-1.5h-0.1c-0.8,1.1-1.8,1.9-3.1,2.6c-1.3,0.6-2.6,0.9-4,0.9c-2.3,0-4.2-0.7-5.6-2.1
		C152.5,241.2,151.8,239.5,151.8,237.4z M159.8,236.6c0,0.6,0.2,1.1,0.6,1.5c0.4,0.4,1,0.6,1.7,0.6c1.1,0,2.1-0.5,2.9-1.4
		c0.8-0.9,1.2-1.9,1.2-2.9v-0.7h-0.7c-1.5,0-2.8,0.2-3.9,0.7C160.3,234.9,159.8,235.6,159.8,236.6z"/>
	<path d="M177.9,232.1c0-3.4,1.2-6.4,3.6-8.8c2.4-2.5,5.7-3.7,9.8-3.7c1.8,0,3.6,0.3,5.3,0.9c1.7,0.6,3.1,1.5,4.3,2.7l-3.4,5.4
		c-1.6-1.6-3.5-2.3-5.6-2.3c-1.8,0-3.2,0.6-4.2,1.7c-1,1.1-1.5,2.5-1.5,4c0,1.6,0.5,3,1.6,4.2c1.1,1.2,2.5,1.8,4.4,1.8
		c2.1,0,4.3-1,6.6-2.9l2.9,5.6c-1.2,1.2-2.7,2.2-4.5,2.9c-1.8,0.7-3.8,1.1-5.8,1.1c-4.1,0-7.4-1.2-9.8-3.7
		C179.1,238.6,177.9,235.6,177.9,232.1z"/>
	<path d="M203.2,232.1c0-3.6,1.1-6.6,3.4-9c2.3-2.4,5.3-3.6,9.1-3.6c3.4,0,6.2,1.1,8.1,3.2c2,2.2,3,4.9,3,8.4c0,0.6-0.1,1.4-0.2,2.5
		h-15.2c0.3,1.4,0.9,2.5,2,3.2c1,0.7,2.2,1.1,3.6,1.1c2,0,4.2-0.8,6.6-2.4l3,5.6c-1.3,1.1-2.8,1.9-4.7,2.6c-1.8,0.6-3.7,0.9-5.6,0.9
		c-4.1,0-7.3-1.2-9.6-3.7C204.3,238.5,203.2,235.5,203.2,232.1z M211.6,229.1h7.2c0-1-0.3-1.9-0.9-2.6c-0.6-0.7-1.4-1-2.4-1
		C213.4,225.5,212.1,226.7,211.6,229.1z"/>
	<path d="M230.9,244.1v-24h7.7v4.1l-0.1,1.5h0.1c0.5-1.7,1.5-3.1,2.9-4.2c1.4-1.1,3-1.7,4.7-1.7c0.2,0,0.6,0,0.9,0.1v7.9
		c-0.3-0.1-0.8-0.1-1.6-0.1c-2.2,0-3.8,0.6-4.9,1.9c-1.1,1.3-1.7,3-1.7,5.3v9.3H230.9z"/>
	<path d="M260.2,232.1c0-3.4,1.2-6.4,3.6-8.8c2.4-2.5,5.7-3.7,9.8-3.7c1.8,0,3.6,0.3,5.3,0.9c1.7,0.6,3.1,1.5,4.3,2.7l-3.4,5.4
		c-1.6-1.6-3.5-2.3-5.6-2.3c-1.8,0-3.2,0.6-4.2,1.7c-1,1.1-1.5,2.5-1.5,4c0,1.6,0.5,3,1.6,4.2c1.1,1.2,2.5,1.8,4.4,1.8
		c2.1,0,4.3-1,6.6-2.9l2.9,5.6c-1.2,1.2-2.7,2.2-4.5,2.9c-1.8,0.7-3.8,1.1-5.8,1.1c-4.1,0-7.4-1.2-9.8-3.7
		C261.4,238.6,260.2,235.6,260.2,232.1z"/>
	<path d="M287.3,244.1v-24h7.7v4.1l-0.1,1.5h0.1c0.5-1.7,1.5-3.1,2.9-4.2c1.4-1.1,3-1.7,4.7-1.7c0.2,0,0.6,0,0.9,0.1v7.9
		c-0.3-0.1-0.8-0.1-1.6-0.1c-2.2,0-3.8,0.6-4.9,1.9c-1.1,1.3-1.7,3-1.7,5.3v9.3H287.3z"/>
	<path d="M305.8,232.1c0-3.6,1.1-6.6,3.4-9c2.3-2.4,5.3-3.6,9.1-3.6c3.4,0,6.2,1.1,8.1,3.2c2,2.2,3,4.9,3,8.4c0,0.6-0.1,1.4-0.2,2.5
		H314c0.3,1.4,0.9,2.5,2,3.2c1,0.7,2.2,1.1,3.6,1.1c2,0,4.2-0.8,6.6-2.4l3,5.6c-1.3,1.1-2.8,1.9-4.7,2.6c-1.8,0.6-3.7,0.9-5.6,0.9
		c-4.1,0-7.3-1.2-9.6-3.7C306.9,238.5,305.8,235.5,305.8,232.1z M314.2,229.1h7.2c0-1-0.3-1.9-0.9-2.6c-0.6-0.7-1.4-1-2.4-1
		C316,225.5,314.7,226.7,314.2,229.1z"/>
	<path d="M332.2,232.1c0-3.4,1.2-6.4,3.6-8.8c2.4-2.5,5.7-3.7,9.8-3.7c1.8,0,3.6,0.3,5.3,0.9c1.7,0.6,3.1,1.5,4.3,2.7l-3.4,5.4
		c-1.6-1.6-3.5-2.3-5.6-2.3c-1.8,0-3.2,0.6-4.2,1.7c-1,1.1-1.5,2.5-1.5,4c0,1.6,0.5,3,1.6,4.2c1.1,1.2,2.5,1.8,4.4,1.8
		c2.1,0,4.3-1,6.6-2.9l2.9,5.6c-1.2,1.2-2.7,2.2-4.5,2.9c-1.8,0.7-3.8,1.1-5.8,1.1c-4.1,0-7.4-1.2-9.8-3.7
		C333.4,238.6,332.2,235.6,332.2,232.1z"/>
	<path d="M357.5,232.1c0-3.6,1.1-6.6,3.4-9c2.3-2.4,5.3-3.6,9.1-3.6c3.4,0,6.2,1.1,8.1,3.2c2,2.2,3,4.9,3,8.4c0,0.6-0.1,1.4-0.2,2.5
		h-15.2c0.3,1.4,0.9,2.5,2,3.2c1,0.7,2.2,1.1,3.6,1.1c2,0,4.2-0.8,6.6-2.4l3,5.6c-1.3,1.1-2.8,1.9-4.7,2.6c-1.8,0.6-3.7,0.9-5.6,0.9
		c-4.1,0-7.3-1.2-9.6-3.7C358.6,238.5,357.5,235.5,357.5,232.1z M365.9,229.1h7.2c0-1-0.3-1.9-0.9-2.6c-0.6-0.7-1.4-1-2.4-1
		C367.7,225.5,366.4,226.7,365.9,229.1z"/>
	<path d="M385.2,244.1v-24h7.7v4.1l-0.1,1.5h0.1c0.5-1.7,1.5-3.1,2.9-4.2c1.4-1.1,3-1.7,4.7-1.7c0.2,0,0.6,0,0.9,0.1v7.9
		c-0.3-0.1-0.8-0.1-1.6-0.1c-2.2,0-3.8,0.6-4.9,1.9c-1.1,1.3-1.7,3-1.7,5.3v9.3H385.2z"/>
	<path d="M62.9,288.1c0-3.6,1.1-6.6,3.4-9c2.3-2.4,5.3-3.6,9.1-3.6c3.4,0,6.2,1.1,8.1,3.2c2,2.2,3,4.9,3,8.4c0,0.6-0.1,1.4-0.2,2.5
		H71.1c0.3,1.4,0.9,2.5,2,3.2c1,0.7,2.2,1.1,3.6,1.1c2,0,4.2-0.8,6.6-2.4l3,5.6c-1.3,1.1-2.8,1.9-4.7,2.6c-1.8,0.6-3.7,0.9-5.6,0.9
		c-4.1,0-7.3-1.2-9.6-3.7C64.1,294.4,62.9,291.5,62.9,288.1z M71.3,285h7.2c0-1-0.3-1.9-0.9-2.6c-0.6-0.7-1.4-1-2.4-1
		C73.1,281.4,71.9,282.6,71.3,285z"/>
	<path d="M90.6,291.2v-24.5h8.1v23.4c0,1.2,0.1,2,0.4,2.4c0.3,0.4,0.9,0.7,1.8,0.7c0.4,0,0.7,0,1,0v7c-1.1,0.1-1.9,0.1-2.4,0.1
		c-1.2,0-2.3-0.1-3.2-0.3c-0.9-0.2-1.8-0.6-2.8-1.2c-0.9-0.6-1.6-1.5-2.1-2.8C90.9,294.7,90.6,293.1,90.6,291.2z"/>
	<path d="M117.9,291.2v-8.4h-3.1v-6.3h3.3v-6.9h7.8v6.9h5v6.3h-5v7.4c0,2.1,1.4,3.1,4.3,3.1c0.4,0,0.7,0,1.1,0v7
		c-1.2,0.1-1.9,0.1-2.2,0.1c-0.7,0-1.5,0-2.2-0.1c-0.7-0.1-1.5-0.2-2.4-0.4c-0.9-0.2-1.7-0.5-2.5-1c-0.7-0.4-1.4-1-2.1-1.6
		c-0.7-0.6-1.2-1.5-1.5-2.5C118.1,293.6,117.9,292.5,117.9,291.2z"/>
	<path d="M135.4,291.6v-15.6h8.1v14.1c0,2.1,0.9,3.2,2.6,3.2c1.6,0,2.9-0.6,3.8-1.9c0.9-1.3,1.3-2.8,1.3-4.7v-10.6h8.1v24h-7.7V298
		l0.1-1.5h-0.1c-0.7,1.3-1.7,2.3-3,3c-1.4,0.7-2.9,1.1-4.5,1.1c-2.6,0-4.7-0.7-6.2-2.1C136.2,297.1,135.4,294.8,135.4,291.6z"/>
	<path d="M164.8,302.3c0.9,0.6,1.7,0.9,2.5,0.9c1.9,0,3.2-0.8,3.9-2.4l0.5-1.1l-10.2-23.5h9.1l3.5,11l0.9,3.7h0.1
		c0.3-1.5,0.6-2.7,0.8-3.6l3-11.2h8.8l-9.8,26.6c-0.9,2.5-2.3,4.3-4.1,5.5c-1.8,1.2-3.8,1.7-5.9,1.7c-0.9,0-1.9-0.1-2.8-0.4
		c-0.9-0.3-1.6-0.6-2.1-0.8l-0.7-0.4L164.8,302.3z"/>
	<path d="M192.5,297.2c-2.6-2.3-3.9-5.3-3.9-9c0-3.7,1.3-6.7,3.9-9.1c2.6-2.4,5.8-3.5,9.6-3.5c3.9,0,7.1,1.2,9.7,3.5
		c2.6,2.3,3.9,5.4,3.9,9.1c0,3.7-1.3,6.7-3.9,9c-2.6,2.3-5.8,3.5-9.7,3.5C198.3,300.6,195.1,299.5,192.5,297.2z M196.7,288.1
		c0,1.7,0.5,3.1,1.6,4.2s2.3,1.6,3.9,1.6c1.5,0,2.8-0.5,3.9-1.6c1.1-1.1,1.6-2.5,1.6-4.2c0-1.8-0.5-3.2-1.6-4.3
		c-1.1-1.1-2.3-1.6-3.9-1.6c-1.5,0-2.8,0.5-3.9,1.6S196.7,286.4,196.7,288.1z"/>
</g>
<g>
	<path d="M65.2,115.3l1.2-7.2h-4.6l0.6-3.5H67l1-5.4h-4.5l0.6-3.5h4.5l1.3-7.7h3.9l-1.3,7.7h5.2l1.3-7.7h3.9l-1.3,7.7h4.6l-0.6,3.5
		H81l-1,5.4h4.6l-0.6,3.5h-4.6l-1.3,7.2h-3.9l1.3-7.2h-5.2l-1.2,7.2H65.2z M70.9,104.7h5.2l1-5.4h-5.2L70.9,104.7z"/>
	<path d="M90.4,115.3V88.1h4.9v9.5l-0.1,1.6h0.1c0.5-1,1.4-2,2.6-2.8c1.2-0.8,2.6-1.2,4.2-1.2c4.5,0,6.8,2.5,6.8,7.4v12.6h-4.9
		v-11.6c0-1.3-0.2-2.3-0.7-3c-0.4-0.7-1.2-1-2.4-1c-1.7,0-3,0.6-4.1,1.8c-1,1.2-1.6,2.8-1.6,4.7v9.1H90.4z"/>
	<path d="M112.3,109.9c0-1.4,0.4-2.6,1.1-3.5c0.8-1,1.7-1.7,3-2.1c1.2-0.4,2.4-0.8,3.6-0.9c1.2-0.2,2.4-0.3,3.7-0.3h0.8v-0.3
		c0-2.3-1.2-3.4-3.7-3.4c-1.8,0-3.6,0.6-5.4,1.9l-1.8-3.5c0.8-0.7,2-1.2,3.4-1.7c1.4-0.5,2.8-0.7,4.3-0.7c2.6,0,4.5,0.7,6,2
		c1.4,1.4,2.1,3.3,2.1,5.7v12.2h-4.5v-1.6l0.1-1.4h-0.1c-0.6,1-1.5,1.9-2.6,2.5c-1.1,0.7-2.3,1-3.6,1c-1.8,0-3.3-0.5-4.6-1.6
		C112.9,113.1,112.3,111.7,112.3,109.9z M117.1,109.5c0,0.7,0.3,1.3,0.8,1.8c0.5,0.5,1.2,0.8,2.2,0.8c1.3,0,2.4-0.5,3.2-1.6
		s1.3-2.2,1.3-3.5v-0.5h-0.8C119.3,106.4,117.1,107.4,117.1,109.5z"/>
	<path d="M134.4,115.3V88.1h4.9v8.5l-0.1,1.6h0.1c0.6-0.9,1.4-1.6,2.5-2.1c1.1-0.5,2.2-0.8,3.4-0.8c2.6,0,4.7,0.9,6.3,2.8
		c1.6,1.9,2.4,4.4,2.4,7.4c0,3.1-0.8,5.5-2.5,7.4c-1.7,1.9-3.8,2.8-6.5,2.8c-1.2,0-2.3-0.3-3.4-0.8s-1.9-1.3-2.5-2.2h-0.1
		c0.1,0.4,0.1,0.8,0.1,1.3v1.3H134.4z M139.1,105.7c0,1.6,0.4,3,1.3,4.2c0.9,1.2,2,1.8,3.6,1.8c1.4,0,2.6-0.5,3.5-1.6
		c0.9-1.1,1.4-2.6,1.4-4.4c0-1.8-0.4-3.3-1.3-4.4c-0.9-1.1-2.1-1.7-3.5-1.7c-1.4,0-2.6,0.5-3.5,1.6
		C139.5,102.1,139.1,103.6,139.1,105.7z"/>
	<path d="M157.9,109.2V88.1h4.8v20.4c0,1,0.2,1.7,0.5,2.1c0.3,0.4,0.8,0.6,1.5,0.6c0.3,0,0.5,0,0.7,0v4.3c-0.7,0.1-1.2,0.1-1.5,0.1
		c-0.8,0-1.5-0.1-2.1-0.2s-1.2-0.4-1.9-0.8c-0.6-0.4-1.1-1-1.5-1.9C158,111.7,157.9,110.6,157.9,109.2z"/>
	<path d="M167.7,105.6c0-3,0.9-5.5,2.8-7.4c1.9-1.9,4.2-2.9,7.2-2.9c2.7,0,4.8,0.9,6.4,2.6c1.5,1.7,2.3,4,2.3,6.6
		c0,0.4-0.1,1.1-0.2,1.9h-13.4c0.2,1.6,0.8,2.9,1.9,3.8c1.1,0.9,2.4,1.4,4,1.4c1.9,0,3.8-0.7,5.6-2.1l1.9,3.5c-1,0.9-2.2,1.6-3.6,2
		c-1.4,0.5-2.8,0.7-4.3,0.7c-3.1,0-5.7-1-7.6-3C168.7,110.8,167.7,108.4,167.7,105.6z M172.9,103.2h8.6c0-1.3-0.4-2.3-1.1-3
		c-0.7-0.7-1.7-1.1-2.8-1.1c-1.2,0-2.3,0.4-3.1,1.1C173.6,100.9,173.1,101.9,172.9,103.2z"/>
	<path d="M190.4,115.3V95.8h4.7v2.3l-0.1,1.4h0.1c0.5-1.1,1.3-2,2.5-2.9c1.2-0.8,2.5-1.3,3.9-1.3c3,0,4.8,1.3,5.7,4h0.1
		c0.6-1.1,1.5-2,2.7-2.8c1.2-0.8,2.5-1.2,4-1.2c4.3,0,6.4,2.5,6.4,7.4v12.6h-4.8v-11.6c0-1.3-0.2-2.2-0.6-2.9c-0.4-0.7-1.1-1-2.1-1
		c-1.6,0-2.8,0.7-3.7,2c-0.9,1.3-1.3,2.9-1.3,4.8v8.8h-4.9v-11.6c0-1.3-0.2-2.2-0.5-2.9c-0.4-0.7-1.1-1-2.1-1c-1.6,0-2.8,0.7-3.7,2
		c-0.9,1.4-1.3,2.9-1.3,4.7v8.8H190.4z"/>
	<path d="M227.3,112.9c-2.1-1.9-3.1-4.4-3.1-7.3s1-5.4,3.1-7.3c2.1-1.9,4.6-2.9,7.6-2.9c3,0,5.6,1,7.6,2.9c2.1,1.9,3.1,4.4,3.1,7.3
		s-1,5.4-3.1,7.3c-2.1,1.9-4.6,2.9-7.6,2.9C231.9,115.8,229.3,114.8,227.3,112.9z M229.1,105.6c0,1.8,0.6,3.2,1.7,4.4
		c1.1,1.1,2.5,1.7,4.1,1.7c1.6,0,3-0.6,4.1-1.7c1.1-1.1,1.7-2.6,1.7-4.4c0-1.8-0.6-3.2-1.7-4.4c-1.1-1.1-2.5-1.7-4.1-1.7
		c-1.6,0-3,0.6-4.1,1.7C229.6,102.3,229.1,103.8,229.1,105.6z"/>
	<path d="M247.9,112.9l2.2-3.2c1.6,1.4,3.4,2.1,5.6,2.1c0.9,0,1.5-0.2,2-0.5c0.5-0.3,0.7-0.8,0.7-1.4c0-0.6-0.3-1-1-1.5
		c-0.7-0.4-1.5-0.8-2.4-1.1c-0.9-0.3-1.9-0.7-2.9-1.2c-1-0.4-1.8-1.1-2.4-1.9c-0.7-0.8-1-1.9-1-3c0-1.8,0.7-3.3,2.1-4.3
		c1.4-1,3.2-1.6,5.3-1.6c2.7,0,4.9,0.7,6.6,2.2l-1.8,3.4c-0.6-0.5-1.3-0.9-2.2-1.2c-0.9-0.3-1.8-0.5-2.7-0.5c-1.8,0-2.7,0.6-2.7,1.9
		c0,0.6,0.3,1,1,1.5c0.7,0.4,1.5,0.8,2.4,1.1c1,0.3,1.9,0.7,2.9,1.1s1.7,1.1,2.4,1.9c0.7,0.8,1,1.9,1,3c0,1.7-0.7,3.2-2,4.3
		c-1.4,1.1-3.1,1.7-5.4,1.7C252.4,115.8,249.9,114.8,247.9,112.9z"/>
</g>
</svg>
