<?xml version="1.0" encoding="utf-8"?>
<!-- Generator: Adobe Illustrator 25.3.1, SVG Export Plug-In . SVG Version: 6.00 Build 0)  -->
<svg version="1.1" id="Capa_1" xmlns="http://www.w3.org/2000/svg" xmlns:xlink="http://www.w3.org/1999/xlink" x="0px" y="0px"
	 width="800px" height="600px" viewBox="0 0 800 600" style="enable-background:new 0 0 800 600;" xml:space="preserve">
<style type="text/css">
	.st0{fill:#CDCCCC;}
	.st1{fill:#020203;}
	.st2{fill:#FFFFFF;}
	.st3{fill:#020202;}
</style>
<ellipse class="st0" cx="542.7" cy="543.8" rx="94.5" ry="23.3"/>
<path class="st1" d="M427.3,511c-0.3-0.1-0.5-0.2-0.7-0.1c0.1-0.3,0.2-0.5,0.3-0.8c-0.3-1.2,0.3-2.5,1.2-3.3c0.5-2,0.5-3.9-1.7-5.1
	c0.4,3.3-0.4,6.5-2.7,8.8c-3.7-12.4-5.2-24.9-8.5-37.3c-4.3-14.8-7-30.7-8.4-46.8c-0.4-4.6-0.8-9.2-4.2-12.6
	c-1.7-1.2-2.4-3.1-3.2-4.8c-0.7-1.7-1.4-3.3-2.9-4.8l-0.1-0.1c-1.6,0-3.3,0.1-4.9,0.2c-0.8,1.7-1.4,3.3-1.7,5.3
	c-6.5,0.3-13,0.1-19.4,1.4c-1.1-1.8-2.3-3.3-3.3-4.9c-3.7-0.3-7,2-7.7,5.3c-0.7,2.3,0.9,4.1,2,5.9c-8.6,11-15.1,27.3-17.8,42.5
	c-0.4,2.5-0.8,5.1-1.6,7.6c-0.9-2.9-0.8-5.9-1.2-9c-3.2-17-2.5-34.2-3.9-51.4c0.3-7.6-0.4-15.4-1.1-22.8c-0.3-3.6-0.7-7.2-0.8-11
	c-0.1-4.1-2.5-8.2-1.4-12.3c1.1-6.2,1.4-12.4,2.6-18.6c5.1,0.7,10.3,1.1,14.4-1.9c1.1,1.4,3.7,4.1,6.5,2c-0.5-0.9-1.1-2-1.4-2.7
	c0.4-0.4,0.9-1.1,1.4-1.6c0.3,1.3,0.7,2.5,1.3,3.7c0.6-2.6,2.3-5.9,0-8.2c1.1-0.5,2-0.9,3.1-1.4c-0.8-0.6-1.8-1.1-2.6-1.8
	c-1.6,1.4-3.7,1.9-5.6,2.5c-0.3-1.1-0.6-2.6-0.8-3.6c3.3-1.4,7.2-1.7,11-0.6c0.7,3.2,0.8,6.7,3.5,8.8c5.3,5.6,13.5,5.9,17.9,5.3
	c9.8-0.9,15-8.4,12.6-17.5c0.3-0.3,0.9-1.1,1.3-1.4c6.2,9.9,10.2,20.2,13.6,30.7c1.8,4.9,3.6,10,4.2,15.4
	c-18.7,8.5-38.2-10.2-52.6-4c-6.2,4.1-10.7,10-17.2,13.8c-3.2,1.6-6.5,2.4-9.8,3.7c0.1,3.6,3.1,6.3,5.9,7.6c2.8,0.5,5.6,0,8.6-0.7
	c0.6,1.7,0.1,4.1,2.3,4.8c3.1,1.4,5.9-0.4,8.3-2c0.3,2.5,0.7,6.7,4.2,6.5c3.5,0.6,5.5-2.5,7.9-4.4c0.4,1.8,0.6,3.7,1.8,5.2
	c1.1,2,3.6,0.9,5.5,1.1c1.3-1.4,2.6-3.1,4.2-4.9c0.7,2.5,1.8,4.6,3.1,6.3h3.2c1.4-1.9,2.9-3.7,4.8-6.2c0.3,2,2,5.9,5.1,4.9
	c1.3-1.1,2.4-2.5,3.3-3.9c0.8,1.3,1.2,3.3,3.1,3.9c1.4,0.7,3.3,0.6,4.1-0.8c4.3-5.3,5.9-12.1,7.7-18.6c1.8,4.6,2.4,9.3,3.3,14
	l2.3-1.4c-1.2-5.8-2.8-11.3-3.7-17.2c0.5,0,1.1,0.1,1.6,0.1c-0.2-0.5-0.3-0.9-0.3-1.4c-0.1-0.4-0.2-0.8-0.2-1.1
	c-0.5,0-1.1,0-1.5,0.1c-2-9.3-5.1-18.3-7.6-25c0.2-0.2,0.4-0.3,0.7-0.4c-0.3-0.7-0.4-1.4-0.3-2.2c0-0.3,0-0.7,0.1-0.9
	c-0.4,0.3-0.8,0.4-1.1,0.7c-2-4.8-3.7-9.9-5.5-14.8c0.3-0.2,0.5-0.2,0.7-0.3c-0.7-0.8-0.9-2-0.8-3.3c-0.3,0.2-0.7,0.2-1.1,0.3
	c-1.6-2.9-3.3-5.6-4.8-8.4c0.9-0.6,2-1.4,3.3-1.4c3.7-0.3,6,3.5,8.7,5.7c-0.3-3.3-3.2-6.2-5.5-7.6c-2.8-1.6-5.7,0.2-8.4,1.1
	c-1.1-1.4-2-2.9-3.1-4.5c0.6-5.3,0.6-10.2,0.1-14.9c0.1,0,0.2-0.1,0.2-0.1c-0.3-0.8-0.3-1.8-0.2-2.6c-0.3,0.2-0.7,0.2-1.1,0.3
	c-0.2,1.4-0.9,2.8-2.4,3.4l1.2-0.3c-3.1,4.2-5.5,7.6-7.7,10.8c-0.1-0.2-0.1-0.3-0.2-0.4c-0.7,0.8-1.8,1.4-3.3,1.4
	c-0.5,0-1-0.1-1.4-0.3c-13,1.6-25.9,4.1-38.5,6.5c-1.1-1.3-1.9-2.8-2.1-4.4c-4,0.2-6-3.7-8.7-5.9c-0.3,0.8-0.6,1.4-0.9,2.3v0.2
	c1.3,4.9,4,9.3,5.9,14.2c-1.2,2.8-5.3,3.2-7.7,4.6c-0.3,2.5-0.8,5.2,0.1,7.6c1.1,1.6,2.5,2.8,3.6,4.4c-0.1,6-1.3,12-2,18
	c-0.5-0.6-1.1-1.3-1.7-2c0.3-2.5,0.3-4.9,0.3-7.6c-4.2-2-6.9,2.1-9,5.2c-1.7-0.2-3.3-0.3-4.8-0.5c-0.6-1.1-1.3-2.4-2-3.5
	c2.4-2.5,3.9-5.3,4.4-8.2c-6.5-4.1-14.4,1.7-16.7,3.7c-2.1-0.3-4.6-0.3-6.5-1.4c-3.3-1.8-7-2.7-11.4-2.9c-2,0.1-3.3,2-4.6,3.7
	c0.9-0.2,2-0.3,2.9-0.6c5.3-1.8,9.8,0.8,14.2,3.7c-0.6,2.4-1.1,4.6-1.6,6.7c-1.4-0.6-2.9-1.1-4.4-1.7l0.3,2
	c-1.7-0.3-3.3-0.8-4.8-1.3c1.1-0.8,2.4-1.9,3.7-2.8c-2.7-1.7-6.2-2.5-7.7-5.5c-0.6,0.5-1.3,1.1-2,1.6c1.1,1.3,2,2.5,3.1,3.7
	c0,1.8,0,3.5,0.1,4.9c-2.9,0.2-5.7,0.5-8.6,0.3c-0.6-0.3-1.2-0.8-1.8-1.3c-1.1-1.1-2.1-2-3.7-2c-2.8,1.1-3.3,4.4-3.6,7.2
	c-0.3,5.3-1.1,10.6-1.7,15.8c-0.8,7.1-0.4,14.2-1.4,21.4c-6.8-6.2-9.8-15.6-17.6-20.7c-3.3-2.4-7.5-2.5-11.3-3.2
	c0.1-1.1,0.2-2.1,0.3-3.3c2.1-0.8,4.4-1.7,6.5-2.7c-1.6-0.9-3.3-1.9-4.8-2.7c0.2-2.3,0.4-4.6,0.3-7c-0.7-4-3.3-7.6-6.9-9.6
	c-2.6-1.3-4.9,0.4-7,1.9c-1.2,0.9-3.1,0.2-4.6,0.3c0,0.6,0.1,1.7,0.1,2.4c-0.8,1.4-1.3,3.3-1.4,5.2c0.8-0.7,1.6-1.4,2.4-2.3
	c-0.1,0.2-0.1,0.3-0.2,0.3c0.3,1.1,0.4,2,0.6,3.2c1.2,7.5,2,9.9,10,11c0.3,1.4,0.7,2.9,1.1,4.4c-3.3,1.1-5.7,5.5-4.8,8.7
	c2.7,3.3,7,3.1,10.4,4.6c6.2,8.2,9.5,18,17.3,24.7c2.4,2.1,4.8,4.5,8,5.1c-0.1,1.6-0.3,3.2-0.4,4.8c-4.2,0.7-9.3,2.1-12.2,6.2
	c-3.1,4.1-5.2,8.7-6.2,13.6c-1.6,6.9,0,13.8,0.4,20.6c-7.4,0.3-12.8,2-16.8,5.5c-3.3,2.5-4.8,6.4-6.2,10.2c-7.1,1.5-15.4,4-21.3,9.3
	c-7.7-3.3-16.4-5.5-25.7-6.4c0.1,0.8,0.3,1.5,0.3,2.3c13.3,1.3,26.8,5.3,38.5,14.3l1.7-2c-3.4-2.7-7.2-5-11.3-7.1
	c5.9-3.7,12.9-7.9,20.8-8.4c8.4-0.8,17,3.7,21.1,11.1c2,3.7,1.6,8,1.9,12.1c-3.2,0.1-4.8,2.6-6.3,4.9c-1.7,2.5-3.2,4.8-6.3,4.6
	c-3.6,0.2-6-2.9-9.2-4.1c-2.7-0.9-4.6,1.6-5.7,2.9c2,0.5,4-0.7,5.9-1.4c3.7,2.4,7.6,5.3,12.2,4.5c2.3-1.1,3.6-3.2,4.8-5.1
	c1.2-2,2.4-3.7,4.4-4.8c-0.1,3.7-1.7,7-2.1,10.4c1.7-0.2,2-2,2.8-3.3c1.7,3.2,5.5,2.4,8.4,2.5c0.1-0.3,0.2-0.7,0.2-0.9
	c-3.3,0.4-7.4-0.7-7.9-4.2c0.4-3.3,2-6.2,2.1-9.3c0.2-3.1-0.8-6-2-9.2c4.2-1.7,10.3-3.1,15.5-0.4c7.1,2.9,13.1,9.6,15.9,17.9
	c-0.2,0.2-0.4,0.5-0.6,0.8c-5.7,1.2-11.3,3.1-14.3,7.7c1.7-0.3,3.3-0.6,4.8-1.6c6.8-4.5,15.1-4.8,23.3-4.8
	c5.5,0.1,10.3,2.6,15.5,3.3c-0.9-5.9-2.5-11.8-3.3-17.7c1.1,0.9,2.3,2,3.6,3.3c0.3,4.8,1.2,9.8,2,13.8c0.3-0.3,0.8-0.8,1.2-1.1
	c-0.4-4-0.8-7.9-1.3-12c1.2,0.3,3.3,0.2,3.5,1.4c0.5,3.7,0.8,7.6,2,11.3c5.1-4.6,9.3-10.3,15.5-13.3c4-1.9,9-1.8,14.9,0.2
	c4.4,1.4,7.2,5.2,10.6,8.3c-0.4,0.5-0.8,1.1-1.2,1.7c0.5,0.3,1,0.7,1.4,1.1l0.4,0.4c3.1-2.2,7.1-3.6,11.1-1.5
	c-0.7,2.6-0.9,4.4-1.1,6.5c2.7-3.3,3.7-7.5,6.2-11c3.3-4.8,7-9.6,12.1-12.1c5.6-2.7,13.7-3.3,19.1,1.6c2.9,2.1,5.1,5.1,7.2,7.9
	c2.6,3.5,5.5,7.1,9.5,9.3c1.2,0.3,2.5,0.3,4,0.5l-2,2.9c2.5-0.5,4.5-2,6-4.5c1.9,1.2,3.3,2.4,4.6,3.6
	C429.9,514.6,428.5,512.8,427.3,511L427.3,511z M355.4,333.5c0.5,0.4,1.2,1.1,1.8,1.4c-0.3,0.3-0.5,0.6-0.8,0.8
	c-0.9,1.2-2,2.4-2.3,4c-0.1,0.6-0.3,1.2-0.6,1.4c-0.2,0.1-0.3,0.1-0.6,0C350.9,338.4,353.5,335.8,355.4,333.5L355.4,333.5z
	 M409.4,399.7l-1.9-1.3c0.3-0.4,0.6-0.8,0.8-1.2c1.1-1.6,2.1-3.2,2.4-5.2c-1.6,1.1-2.5,3.1-3.7,4.5c-0.2-2.1-0.8-5.1,1.2-6.4
	c2.5-1.9,5.3-4.1,7-7.1c0.3,0.3,0.6,0.7,0.9,1.1C415,390.5,412.7,395.7,409.4,399.7L409.4,399.7z M417.1,371.9
	c0.5,2.5,0.3,4.9,0.2,7.5c-0.1,0.7-0.2,1.3-0.2,2c-0.8,0.4-1.8,0.6-2.7,0.5c-2.7,2.5-5.2,5.5-9,6.2c-0.5-3.3-0.1-6.2,1.3-8.7
	c-4,2-6.9,5.5-11,7.4c-0.5-3.3-0.3-6.4,0.6-9.3c-4.3,2.6-8.4,6-13.5,7.1c0.2-3.3,1.8-6.2,2.3-9.3c-4.3,2.5-8.2,6.5-13.6,6.3
	c0.1-3.1,1.6-5.5,2.3-8.4c-2.3,0.8-4.5,2.1-6.5,3.3c-1.6,0.9-3.2,2-4.8,2.7c-0.8-0.1-2.4-0.1-3.2-0.2l-1.3,2
	c4.1,2.9,7.9-1.1,11.5-2.8c0.1,1.4,0.2,2.9,0.3,4.4c3.7,3.7,8-0.2,11.5-2c-0.2,1.6-0.3,3.3-0.5,4.8c0.6,0.4,1.7,1.2,2.3,1.7
	c3.7-0.8,6.9-3.1,9.9-5.1c0.2,2.7,0.1,5.7,2.5,7.6c2.6-1.3,4.8-3.3,7-5.1c0.2,1.2,0.3,2.7,0.4,4.1l2.5,2.5c-1.3,2.6-2.8,5.5-4.9,7.9
	c0.3-2.5,0.5-5.2,0.2-7.7c-2,1.4-1.1,3.6-1.1,5.5c-2.4-1.1-1.6-4.8-1.9-7.1c-3.7,3.1-4,9-8.4,11.1c0.7-3.5,2.4-6.8,2-10.4l-1.8,1.2
	c-0.2,2.3-0.3,4.6-1.4,6.7c-0.8-2.8-1.3-5.9-1.2-8.8c-2,2.3-3.3,4.8-5.2,7.1c-1.1,1.3-2.4,2.8-4.2,2.5c1.3-3.3,4.3-5.9,4.1-9.8
	c-2,2-2.8,5.1-4.5,7.6c-1.2-2.5-0.7-5.5-0.8-8.3c-3.5,2.8-5.9,8.7-11,8.4c2.4-3.2,5.2-6.2,5.9-10.4c-2.5,2.4-3.6,5.9-6.2,8.2
	c0.2-2.4,0.4-4.6,0.6-7c-2,0.8-3.7,2-5.5,3.3c-0.7,0.5-1.4,0.9-2,1.4c-0.4,0.6-2,1.1-2.8,0.7c-0.3-0.2-0.5-0.4-0.5-0.8
	c3.5-2.5,7.2-4.8,9-9c-2.8,2-5.1,4.6-8,6.5l0.6-3.9c-4.5,0.1-8.3,3.3-12.7,3.3c4-3.5,11-3.3,12.4-9.3c-4.3,3.7-9.8,5.9-14.7,8.5
	c-0.7-0.8-1.3-2-2-2.9c6.4-1.4,12.7-4.8,18.3-9.8c0.1,1.4,0.1,3.3,0.2,4.6c1.4-1.2,1.7-3.1,1.8-4.8c0-0.6,0.1-1.3,0.2-2
	c3.1-3.7,6.2-5.9,9.3-6.3c13.6,0,25.3,9.2,39.1,7.7C411.6,375,415.2,374.9,417.1,371.9L417.1,371.9z M392.2,337.1
	c-5.2,3.3-12.5,3.9-20,1.6c-3.1-0.8-5.5-3.3-6.5-6.5c-0.6-2.8,2.4-4.4,4.6-5.7c4.5-2.1,8.7-3.3,12.7-3.3c5.2,0.1,12.3,2.1,12.2,8.4
	C395.1,333.9,393.9,335.9,392.2,337.1L392.2,337.1z M335.2,315.8c2.1,1.4,3.7,3.6,5.2,5.7c3.5,0.1,7-0.7,10.4-1.4
	c12.1-2.6,25-5.5,38.5-5.9h0.1c1.4-1.7,2.4-4,4.1-5.5c-0.2,2.1-0.6,4.3-0.4,6.5c0.9,2.3,2.5,4.2,3.7,6.2l-1.4,2
	c-4.6-3.9-11.1-4.6-19.9-2.5c-3.1,0.7-5.7,2.5-8.7,3.3c-0.9,0.9-1.9,2.1-2.9,3.1c-4.9-0.9-9.3-0.8-13.2,0.4
	c-4.3-2.1-7.7-3.2-11.9-2.7C339,321.6,336.3,319,335.2,315.8L335.2,315.8z M338.1,328.4l0.2-0.1c3.3-0.1,6.9-0.3,9.8,1.8
	c1.4,0.8,2.7,2.5,2.9,4.1c0.1,0.8,0,2-1.1,2.9c-4.1,4.6-11,3.3-13.8,2.5C336.7,335.8,337.1,332.1,338.1,328.4L338.1,328.4z
	 M407.2,456c-1.6,2-4.8,5.5-8.7,4.8c-0.7-0.7-1.2-2-0.7-3.1c2-2.7,4.8-4.8,8.2-5.7C406.4,453.7,406.8,454.8,407.2,456L407.2,456z
	 M396.7,462.8c-3.3,2.6-5.9,5.9-8.7,8.7c1.2-5.9,3.1-11.5,4.5-17.3c3.9-2.7,7.1-6.2,11.3-8.7c-0.6,1.9-1.2,3.7-2,5.5
	c-0.5,0.6-1.1,1.1-1.8,1.6C395.6,455.8,396.2,458.2,396.7,462.8L396.7,462.8z M384.1,464.1H384c0.1-3.6-4.3-5.7-7.5-4.6
	c-1.4,0.6-2.5,1.7-3.7,2.5c-0.9-2-1.1-4.2-1.2-6.3c6.4-0.2,12.7-0.6,19.1-0.7c-1.8,6-3.5,12.2-5.1,18.3c-3.2,0.8-6.3,1.3-9.3,1.4
	c1.6-2.1,3.5-4.1,4.6-6.7C381.4,466.5,383,465.3,384.1,464.1L384.1,464.1z M406.6,450.9c-0.9-0.3-2-0.4-3.1-0.6
	c0.5-1.6,1.3-3.1,2.4-4.2C406.1,447.4,406.4,448.9,406.6,450.9L406.6,450.9z M330.7,332.2c1.3-0.7,2.7-1.4,4.1-2
	c-0.2,0.9-0.3,2-0.5,3.1c-0.3,1.7-0.6,3.3-0.8,5.1C330.7,337,330.5,334,330.7,332.2L330.7,332.2z M303.7,347.2
	c3.1-2.5,6.7-3.5,9.2-3.9c0.9,0.4,1.9,0.9,2.7,1.6c-1.6,2.3-3.7,4.1-5.9,5.9c-0.7,0.6-1.4,1.1-2,1.8c1.8,0.3,3.9,0.5,4.8,2
	c-3.9,1.4-7.6-2.3-11.4-0.5C301.7,351.7,301.6,348.7,303.7,347.2L303.7,347.2z M300.9,348.6c-0.4,2.1-0.8,4.4-1.4,6.5
	c-1.1,0.4-2.3,0.7-3.5,0.8C296.3,353.5,297.4,349.4,300.9,348.6z M225.6,368.8c-2-0.5-3.9-1.1-4.5-3.1c-1.8-4.3-1.8-8.8,0.1-12.2
	c0.8-2,3.1-3.3,5.5-3.3c2.7,1.8,7.1,5.6,7.1,11.3c-2-0.2-4.1-0.5-6.2-0.7c-1.1,0.7-1.9,1.6-2.6,2.5c0.4,2,0.8,3.9,1.3,5.7
	C226.2,368.9,225.9,368.8,225.6,368.8L225.6,368.8z M226.8,364c0.1-0.6,0.4-1.1,1.1-1.6c1.6,0.3,3.3,0.4,5.5,0.4
	c-0.1,1.3-0.2,2.7-0.2,4.1c0.3,0.5,1.1,1.4,1.4,2c-1.9,0.3-3.7,0.3-5.6,0.3C228.1,367.6,226.5,365.7,226.8,364L226.8,364z
	 M231.7,374.9c-0.7-0.1-1.4,0-2.1,0.3V375c0-1.1,0.1-2.9,0.2-4.1C231.7,371,231.6,373.3,231.7,374.9L231.7,374.9z M249.2,407
	c-5.9-6.4-8.4-14.9-14.3-21.1c-3.2-1.1-7.6-0.8-9.3-4.2c2.5-4.8,9.2-5.5,14.2-3.7c10.7,4.6,13.8,16.6,22.2,23.7
	c-0.5,3.3-0.7,6.5-0.9,9.8c-0.1,1.7-0.2,3.3-0.3,4.9C256,414.4,252.5,410.7,249.2,407L249.2,407z M256.1,488.1
	c-4.1,0-7.5,0.5-10.4,1.7c-1.1,0.8-1.7,0-2-0.9c-2.4-3.9-6-7-10.7-8.7c-3.7-1.4-7.6-0.8-11.3-1.4c4.1-9.2,11-12.5,21.2-12.7
	C255.3,466.5,261.5,476.9,256.1,488.1z M278.7,510.4l-1.6-1.3c-0.1-2.8-0.2-5.3-1.4-7.5c-3.6-6.2-9.8-11-17.3-13.6
	c2.4-5.6,0.6-12-0.7-15.2c-2.1-5.5-8-7.2-12.8-9.8c-0.6-4.4-1.1-9.3-1.3-14.9c0.1-9.8,9.5-24.7,20.8-19.9c4.8,2.8,6.8,8.8,8.2,13.2
	c0.9,3.3,2.9,7,1.1,10.3c-3.9,1.1-8,0.3-12,0.6c0.5,0.5,1.1,1.1,1.7,1.8c4.1-0.5,8.4,0.8,12.2-1.6l2.4,10.6
	c-4.8,2-10.6,1.1-14.7-2.5c0-2.6,0.6-5.5-1.4-7.6c-1.9,7.4,1.6,14.4,3.1,21.6l-3.3,0.5c0.3,3.9,3.3,6.2,6.2,8.3
	c1.3,0.9,1.4,0.9,0.8,2.6c-1.2,2.8,1.1,3.6,3.1,4.8c0.1,0.9,0.3,2,0.5,3.3c0.5,0.7,1.2,1.1,2,1.4c1.1,0.5,2,0.9,2,2.1
	c0.2,2,2,2.9,3.5,3.9c0.1,0.7,0.3,2,0.3,2.5c1.3,1.4,2.8,3.1,3.5,4.8C281.7,509.8,280.1,510,278.7,510.4L278.7,510.4z M275.5,466.5
	l2.6-0.8c1.1,3.3,1.8,6.7,2.5,10.6c-1.9-0.5-4.1-0.5-5.5-2C275.5,472,275.7,469.6,275.5,466.5L275.5,466.5z M273.7,474.1
	c-0.7,0.3-1.4,0.2-2.4-0.3c-0.3-2.5-0.6-4.9-0.8-7.5C274.7,465.9,273.8,471.2,273.7,474.1L273.7,474.1z M269.2,474
	c-0.8,0-2,0-2.7,0.1c-0.8-3.1-1.2-6-2-9.1c1.6,0.4,3.5,0.6,4.1,2.3C269.2,469.5,269,471.8,269.2,474z M302.7,512.8
	c-4.6-1.8-9.2-2.5-13.8-3.5c-1.4-1.9-5.5-3.1-3.6-5.9l-0.3-0.1c-0.5-0.3-1.4-0.6-2-0.8c2.6-3.3-2.1-3.5-4.6-4.1
	c0.7-0.9,1.3-1.9,2-2.8c-1.9-1.1-4-1.4-6-2c-0.2-1.6,2.1-2.1,2.7-3.6c-2-1.1-4.3-1.9-6.5-2.6c2-1.1,4.1-2,5.2-4.2
	c-4-1.1-8.4-2.1-11-5.6c5.5-0.8,11-0.3,15.5,1.6c-1.1,5.7,0.5,12.3,4.8,19.4c1.4,2.1,3.3,5.3,6.5,4.1c-6.5-5.5-10.3-14.2-10-23.1
	c2.6,0.8,5.6,0.3,8.2,1.3c1.9,8.5,2.3,17.3,2.9,25.9c0.2,1.4,0,3.3,2,3.7c-0.2-11.9-1.7-23.4-2.5-35.2c-1.1-8.4,0-16.3,9.5-18.9
	c12.5,0.1,13.3,13.9,15.4,23.1c-0.4,0.7-0.9,1.6-1.4,2.4c-2.7,0.1-5.9,0.1-9.2-0.7c-1.7-0.3-3.3-1.1-4.9,0
	c-3.5,2.1-3.1,6.8-3.1,10.4C299.7,498.6,301.1,505.8,302.7,512.8L302.7,512.8z M303.9,496.6c-4.6-4.4-2.7-11.8-2-14.2
	c5.2,0.1,10.4,2.7,15.4,0c0.7,5.1,2.4,9.9,2,15C314.9,500.4,307.9,501,303.9,496.6z M316.1,506.7L316,507c0.3,1.9-0.8,3.3-2,4.2
	c-0.6-3.3-1.3-6.2-2-8.7c0.8-0.1,2.3-0.1,3.1-0.2c0.3,1.1-0.4,3.6,1.6,3.3c0.5-1.3,0.6-2.6,0.3-4c1.1-0.4,2.3-0.9,3.6-1.3
	C321.3,503.2,319.1,506.4,316.1,506.7L316.1,506.7z M322.6,501.7c-1.1-4.1-1.3-8.2-1.8-12.2c-0.5-3.1-0.9-5.9-1.4-8.8
	c-0.8-6.2-1.9-12.6-4-18.6c-1.3-3.7-4.5-6-7.6-7.9c3.3-6.2,7.1-10,11.6-11.5c2.4-0.9,5.6-0.4,7,2c2,3.6,2.7,7.7,3.6,11.8
	c0.1,1.2,0.9,3.1-0.3,3.7c-2.6,1.9-6.5-0.9-9,1.7s-2.3,6.5-1.8,9.3c1.1,4.6,2.5,9.2,3.7,13.6c1.3,4.6,2.8,9.3,3.9,14.2
	C325.4,499.9,324.2,500.9,322.6,501.7L322.6,501.7z M328.9,498.1c-1.2-5.2-2.8-10.4-4.3-15.4c-1.1-3.7-2.3-7.4-3.3-11.1
	c-0.8-2.6-0.6-5.6,0.4-8.4c3.3-0.4,6.5-0.4,9.8-1.1c2,12,4.8,23.4,6.9,35.4C335.1,496.7,331.8,497,328.9,498.1z M340,491.4
	c-2-12.4-4.8-24.4-7.5-36.6c-0.9-4.2-1.9-8.7-4.4-12.4c-1.6-2-3.7-2.5-5.6-2.5c-8.6-0.1-13.3,7.1-16.6,13.6
	c-5.9-0.2-11.5,3.3-14.7,8.6c-0.8,1.4-2,2.6-3.3,3.7c-1.4,1.2-2.8,2.5-3.6,4.3c1.2,0.5,2.5,0.9,3.7,1.4c-0.7,1.7-3.3,3.7-0.6,4.8
	l0.6-0.8c0.4-1.1,1.1-2.1,2-3.3v2.5l-1.3,0.8c0.2,0.8,0.8,1.4,1.3,2c-1.2,0.1-2.5,0.1-3.7,0.2c-6.5-14.2-6.4-30.1-12.6-44.3
	c-2.4-4.8-6.8-7.9-10-9.5c0.9-5.5,1.1-11,1.4-16.4c0.9,0.5,1.8,1.2,2.5,2h3.3c2,4.8,4.8,9.2,7.7,13.3c3.1,4.2,4.8,9.1,10.6,9.3
	c4.3,4.9,8.4,8.3,13.2,9.2c3.3,0.4,7.5,0.8,9.8-2.3c-4,0-8,0.9-11.6-0.7c-7-3.3-12.5-9.3-15-16.4c-1.3-3.5-1.2-7.4-3.3-10.6l2-2
	c3.6,0.1,6.5,2,9.5,3.9c2.4,1.4,4.8,3.2,7.7,3.7c6,1.4,13-0.7,17.6-5.5c-0.2-0.6-0.4-1.6-0.6-2.3c-3.7,2.9-7.1,6.8-12.2,6.9
	c-4,0.2-7.2-2-10.4-3.9c-2-1.2-4-2.5-6.2-3.3c-3.3-0.6-3.3-4.6-4.3-7.1c0.4-0.5,1.1-1.4,1.7-2c-0.1-1.6-0.2-3.3-0.3-4.6V395
	l-0.1-0.1c-1.3-1.2-2.7-2.5-4.1-3.7c-2.1,0.1-4.4,0.1-6.4,1.1c0.3-2.9,0.7-5.9-0.3-8.7c-0.6,3.1-0.8,6.2-1.1,9.2
	c-1.6-0.1-3.3-0.6-4.8,0.1c-1.7,1.2-2.5,3.2-2.5,5.5c-0.6,0.8-1.2,1.9-1.9,2.8c-0.8-10.6,0.7-20.9,1.4-31.2c0.2-4.4,1.4-8.6,1.4-13
	c1.2,1.2,2.3,2.8,3.1,4.6c13.3-3.1,26.8-2.9,40.5-3.5c3.7,0,7.4,0.9,11.1,0.3c0.8-1.3,0.5-4.1,2.4-4.2c0.1,2.5-0.4,5.2,1.1,7.4
	c3.7,5.3,4,12.1,5.3,18.2c0.9,5.1,0.2,10.3,0.6,15.4c0.4,6.2,1.1,12.4,0.8,18.7c0.4,12.7,2,25.1,2.7,37.7c0.5,7.6,1.1,15.4,2.5,23.1
	c0.1,3.2,0.6,6.2,1.1,9.3c0.5,3.6,1.1,7.4,1.1,11.1C340.7,493.7,340.2,492.5,340,491.4L340,491.4z M289.8,470.1
	c-1.3-0.3-2.5-0.6-3.6-0.9c1.1-0.9,2.3-1.8,3.5-2.5C289.8,467.8,289.8,469,289.8,470.1z M268.9,396.8c1.1-2.4,3.3-3.7,5.9-2.9
	c-0.8,1.4-1.8,3.1-2,4.8c0.3,2,1.3,3.7,2.1,5.5c-1.9,2.1-3.7,4.6-6.9,4.1c-0.7-1.4-1.7-3.1-1.1-4.8c0.3-3.5,3.9-5.1,5.9-7.6
	C271.5,395.9,270,396.4,268.9,396.8z M279.6,412.6c0.8,0.4,1.8,0.8,2.6,1.2c0.4,2.8,0.7,5.6,1.6,8.4c0.7,2.4,2.1,4.4,2.7,6.9
	c-1.7-1.3-2.8-3.2-4-4.8c-0.5-0.8-1.1-1.9-1.8-2.6c-2.8-4-4.9-8.2-7.6-12.1c1.6-4.8,6.8-6.4,11.3-5.9c0.3,1.3,0.8,2.9,1.3,4.5
	c-3.1-0.1-4.9,2.4-6.4,4.5h0.3V412.6z M283.9,402c-2.8,0.3-5.1,0.5-7.1,0.9c-0.9-1.4-2.4-3.3-2-5.1c0.8-1.9,2-3.3,3.2-5.1
	c1.3-0.1,2.6-0.3,4-0.2c2,0.9,3.1,3.1,4.1,4.8C285.2,398.9,284.5,400.4,283.9,402L283.9,402z M366.7,509c-3.5-2.1-7.9-2.1-11.5-0.1
	c-2.5-5.2-6.3-8.7-10.8-9.9c-0.6-4.6-1.8-9.2-2-13.9c-0.2-4.8-1.9-9.3-2-14.2c6.7-1.3,12.2,5.1,13.2,11.4c-2,0.7-3.6,2-4.8,3.7
	c6.5-1.3,8.8-2.9,14.4,2c-2,1.1-3.6,3.7-6.2,3.3c-2.1-0.4-3.6,1.3-4.6,2.7c2.7,0.2,6.2-1.1,8,1.4c-0.2,0.8-0.9,1.2-1.8,1.7
	c-1.1,0.5-2.1,1.3-2.3,2.8c2.5-0.8,5.6-1.1,8.8-1.1c-1.1-0.9-2.1-2-3.3-2.8c-0.5-1.4-1.1-2.9-1.7-4.1c3.6-3.1,8-1.2,11,1.1
	c-0.8-1.4-1.6-2.6-2.6-4c-2.3-0.2-4.1-1.7-5.3-4.6c7.1-1.7,11.1-0.1,16,4.8c0.9,0.8,2,1.8,3.1,2.5c0.1-4.5-3.7-6.9-7-8.8
	c4.3-3.3,10.3-4.1,15.4-2c5.1,2.3,7.4,7.5,8.3,10.6C383.3,486.9,373,496.1,366.7,509L366.7,509z M408.6,498.8
	c-2.1-2.5-4.8-4.5-7.5-6.5c-0.8-5.7-4.6-12.4-11.3-14.3c-5.3-1.9-12-0.5-17.2,3.3c-1.2,0.3-2.5,0.3-3.7,0.3
	c-2.3,0.1-4.6,0.2-6.7,1.7c-2.1-0.9-4.8-1.7-7.6-2.1c0.3-6.4-4.8-11.1-9.8-12.8c2.1-20.2,9.2-37.7,20.2-50.9
	c-1.6-1.8-3.3-3.9-3.1-6.5c2.6,0.3,4.2,2.5,5.9,4.4c9.1,0,17.9-2,27-0.9c-0.9-2.3-3.9-4.9-1.6-7.2c2.1,1.2,4.6,3.3,4.5,6.5
	c2.1,2,4.8,5.1,5.3,9.2c0.2,3.1,0.4,5.9,0.7,8.8c0.2,3.1,0.4,5.9,0.7,9c-0.2,0.6-0.6,1.6-0.8,2.3c-1.7-0.9-3.3-1.9-4.8-2.8
	c0.9,1.1,2,2.4,2.9,3.5c-2.6,2-5.5,4-7.7,6.4c-0.3-0.3-0.7-0.6-1.1-0.8c1.8-1.9,2.8-3.6,3.7-5.7c-2,1.9-3.7,3.9-5.5,5.9
	c0.1,0.6,0.3,1.6,0.3,2.3c-1.1-0.1-2-0.3-3.2-0.3c0,0.5,0.1,1.1,0.2,1.7c-5.3,0.1-10.6,0.2-15.9,0.7c-0.8,0.1-2,0.2-2.6,0.8
	c-0.3,0.3-0.3,0.6-0.3,1.1c0,2.6,0.7,5.2,1.4,7.1c-3.3,2.4-6.2,5.9-10.4,5.9c-2-2-4.1-3.6-6.4-4.8c0.8,2.8,3.1,5.5,5.5,6.5
	c4.1,2,7.7-1.7,10.8-4.1c2-1.7,4.1-3.3,6.7-4.4c1.2-0.5,2.5-0.2,4.1,0.8c-2.1,2.4-2.8,5.6-5.1,7.9c-2.5,2.8-6.7,3.3-9.6,5.7
	c2.6,1.4,5.1,0,7.2-1.1c0.6,0.9,1.1,1.7,1.6,2.4c4.6-1.4,10.6,0.4,13.8-4c2.6-3.3,5.9-7.1,9.8-9.9c3.9-0.4,7.1-2.6,9.1-6
	c4.3,17.8,7.2,35.5,11.4,53.2C415,508.1,412.3,503,408.6,498.8L408.6,498.8z"/>
<path class="st1" d="M363.8,319.8c-1.4-0.8-3.2,1.6-2,2.7C363.3,323.2,365.1,320.9,363.8,319.8z M357.1,323.4
	c1.4,0.7,2.6-1.7,1.7-2.8C357.1,319.3,355.6,322.6,357.1,323.4z M350.8,323.5c-1.7-0.7-2.1,0.2-1.7,1.6
	C350.5,325.7,351.5,325.1,350.8,323.5z M384.8,327c-0.1,1.9-0.6,3.6-1.8,5.2c-2-1.1-3.3-2.5-4-4.4l-2-1.2c0.9,2.9,2,6.7,5.3,7.9
	c3.3,0.1,3.7-3.9,4.1-6.2c-0.3-0.2-0.5-0.3-0.8-0.6C385.4,327.3,385.1,327.1,384.8,327L384.8,327z M376.2,331.3l-0.6-0.4
	c0.8,3.3,3.9,5.9,7.6,6.3C381.3,335,378.8,333.1,376.2,331.3z M345.7,335.9c0.3,0.6,0.6,1.3,0.9,2c0.8-0.3,2-0.8,3.1-1.2l-2.9-1.6
	c0.6-1.3,1.3-2.8,1.9-4.1c-1.4,1.3-2.5,3.1-4.2,4c-0.6-0.9-1.4-2-2-3.3C341.1,334.3,343,336.8,345.7,335.9z M398.3,339
	c-0.5,2.1,0.7,4.1,3.6,5.3l0.5,0.3C401.5,342.5,400.8,339.6,398.3,339L398.3,339z M395.4,343.6c0.8,1.1,1.6,2.1,2.6,3.3l0.2,0.1
	c0.6-0.4,1.4-0.8,2-1.3c-0.9-1.1-2-2.1-2.9-3.3C396.8,342.8,396,343.3,395.4,343.6L395.4,343.6z M336.5,349.9c1.6,1.1,3.3-1.7,2-2.9
	C337,345.9,335.2,348.6,336.5,349.9z M409.9,356.9c-1.6-4-4.4-7-6.8-9.3c0,3.7,2.1,8.2,6.3,9.3H409.9z M337.4,353.5v0.2
	c1.4,0.3,3.9-1.1,3.7-2.8C339.7,349.9,337.2,352,337.4,353.5L337.4,353.5z M376.6,351.5c-0.8,0.8-2,1.6-2.8,2.4
	c-3.3,0.3-6.8-0.2-10-0.7c1.4,2.4,3.9,3.3,6.5,3.2c2.5,0,4.8-0.7,6.7-1.3C376.8,354.1,376.8,352.6,376.6,351.5L376.6,351.5z
	 M400.3,352.3c0.2,3.7,3.1,7.2,6.5,8.2c-0.8-3.1-2.8-5.6-6-7.9L400.3,352.3L400.3,352.3z M226.9,354.7c-1.2-0.3-2.5-0.7-3.9-1.1
	c-0.5,2,1.2,2.5,2.6,3.1C226,356,226.6,355.3,226.9,354.7L226.9,354.7z M361.2,354.6c-3.1,1.6-6.2,0.3-9.3,0
	c1.8,2.1,4.2,3.3,6.9,3.3c0.8,0,1.9-0.2,2.6-0.4C361.4,356.6,361.4,355.4,361.2,354.6z M343.7,355.5c0.6,1.3,1.8,2.3,3.3,2.6
	c2,0.3,4.1-0.3,5.6-1.7l-2-1.6C348.5,356.3,346,355.8,343.7,355.5z M396.8,357.4h-0.3c1.1,3.1,3.9,5.3,7,5.7
	C402,360.3,399.8,357.1,396.8,357.4z M361.9,360.9c2.4-0.3,5.9,0.6,5.9-2.9c-2,0.3-4,0.5-5.9,0.7V360.9L361.9,360.9z M368.1,361.5
	c2.8,2,7.2,1.1,7.5-2.7c-2,1.4-4.4,2.4-6.8,2.6L368.1,361.5z M356.2,359.3c-2.5,0.7-4.8,0.9-7.4,0.8c1.2,3.1,4.5,3.1,7.5,2
	L356.2,359.3z M339.3,360.4l0.1-0.3c-2.5-0.6-3.3,2-4,4C337.3,363.6,338.6,362.3,339.3,360.4z M355.3,364.8l-0.6,0.4
	c2.7-0.1,6.9,1.3,7.7-2.4C359.6,363,357.1,363.6,355.3,364.8z M337.1,367.6l-0.2,0.5c2.4-1.4,4.1-3.3,4.9-5.9
	C339.6,363.3,337.7,365.3,337.1,367.6L337.1,367.6z M325.8,363.1l0.1-0.3c-2,0.3-3.6,1.4-4.6,3.3C323.5,366,325.6,364.9,325.8,363.1
	z M322.8,370.5c2-0.9,4.1-1.8,5.1-3.9c-1.8,0.4-3.5,0.9-5.1,1.4V370.5z M312.8,367.1l-0.2-1.2l-0.3,0.6c-1.1,2-0.3,5.9-3.1,6.4
	c-2.5-0.9-1.3-4.6-2-6.7c-1.2,1.4-1.9,3.7-1.4,5.5c0.3,1.9,2.3,3.9,4.2,3.3c1.2-0.4,2-2,2.5-3.3
	C313.2,370.5,313.2,368.7,312.8,367.1L312.8,367.1z M297.7,377.2c-0.9,3.6-4.6,6.2-8.7,5.9c-2.5-1.3-3.3-4-3.7-5.5
	c2.9-0.3,6-0.4,8.3-2.6c0.1-3.7-4.8-3.1-7.4-2.5c0.8-0.9,1.9-1.6,3.1-2c-0.5-0.3-1.1-0.8-1.8-1.1c0.7-1.1,2.5-1.3,3.3-2l0.6-0.4
	c-1.9,0.2-3.7,0.3-5.5,0.5v3.7l-0.7-0.3c-0.6,4.3-2,9.2,0.3,13.1c3.7,2.4,9.2,0.1,11.5-1.8c1.1,0.7,2.3,1.3,3.3,2
	c-0.9-2-2-4-2.7-5.9L297.7,377.2L297.7,377.2z M337.4,372.1l-0.4,0.6c3.1-0.7,5.6-2.9,7.2-5.9C341.6,367.8,339.3,369.5,337.4,372.1
	L337.4,372.1z M279.6,370.1c-0.9,1.9-2,3.7-4.2,3.7c-0.3-2-0.7-4.2-1.1-6.2c-0.7,2-0.6,4.3-0.4,6.4c0.8,0.9,1.9,2,2.7,2.9
	c3.7-1.8,4-5.7,4-8.4C280.2,369,280,369.6,279.6,370.1z M367.3,373l-0.2,0.3c2.5,1.2,4.5-0.9,5.2-3.5
	C370.4,370.2,368.8,371.1,367.3,373z M321.6,373.4c2.4,0.3,4.6,0.3,6.5-1.7l0.3-0.3C325.8,370.9,323.2,371.6,321.6,373.4z
	 M312.6,376.8c2.3-0.3,5.7-3.1,3.7-5.5C314.9,373.1,313.9,374.9,312.6,376.8z M258.3,440c-2.9-1.2-1.9,3.7,0.1,3.6
	c0.6,0,1.1-0.5,1.1-1.1C259.7,441.5,259,440.3,258.3,440z M250.1,442.5c0.6,0,1.1-0.5,1.1-1.1c0.2-0.8-0.5-2-1.2-2.5
	C247.2,437.7,248.2,442.7,250.1,442.5L250.1,442.5z M389.2,378.9l-0.4,0.6c2.8,1.2,4-1.6,5.1-3.6
	C391.7,375.5,390.3,377.4,389.2,378.9z M411.5,378c-1.7,0.6-2.4,2.1-2.9,3.7C410.6,381.6,412.4,380,411.5,378z M399.3,382.3
	c1.6,0.2,2.5-2.3,1.4-3.3C398.8,377.3,397.1,381.6,399.3,382.3z M310.3,420c0.4,1.7,4.3,1.4,3.5-0.8C313,418,310.1,418.1,310.3,420z
	 M378.2,440c-0.5-0.6-1.1-1.1-1.6-1.8c0.4-0.7,0.9-1.4,1.4-2c-4.3,0.3-8.2,0.3-11.8,0.2c0.3,2.1-0.1,4.6,1.2,6.5
	c1.2,0,2.4-0.5,3.5-0.8c0.5,0.3,1.4,0.9,2,1.3l2.5-2.4c1.7,1.1,3.7,0.8,5.3-0.8c0.6,0.2,1.4,0.3,2,0.5c-0.4-0.4-1.1-0.8-1.3-1.4
	c2.1,1.4,7.1,4.1,11.4,1.6c2.3-4.1,0.8-8.7,0.3-13.1l-0.7,0.3v-3.7c-1.9-0.2-3.6-0.4-5.5-0.5l0.6,0.4c0.9,0.8,2.7,1.1,3.3,2
	c-0.6,0.4-1.2,0.8-1.8,1.1c1.1,0.4,2.1,1.1,3.1,2c-2.5-0.4-7.5-1.2-7.4,2.5c2.1,2.1,5.3,2.4,8.3,2.6c-0.3,1.7-1.2,4.3-3.7,5.5
	c-3.1,0.1-5.9-1.1-7.5-3.3v-0.5c-0.2-0.6-0.2-1.1-0.1-1.8c-0.3,0.1-0.6,0.1-0.9,0.2l-0.3-0.7l-0.2,0.8c-1.1,0.2-2,0.3-3.1,0.4
	c0.7,0.4,1.4,1.1,2.3,1.6C379.3,437.9,378.9,439,378.2,440L378.2,440z M367.2,432.2c2.5-1.5,4-4.6,3.7-7.8c-1.3,1.6-2.4,3.3-3.7,4.8
	c-1.8,0.2-2.5-1.8-3.6-2.9C363.2,428.6,364.4,430.6,367.2,432.2z M397.1,427.8c1.9-1.1,2.7-3.3,2.5-5.5c-0.8,1.1-1.7,2.3-2.5,3.3
	c-1.1,0.1-1.7-1.3-2.5-2C394.3,425.4,395.1,426.8,397.1,427.8z M265.5,461.3c1.8,0,1.7-2.6,0.5-3.3
	C263.8,456.9,263.8,461,265.5,461.3z M289,491.5c-1.2,0.1-2,1.4-1.1,2.5c0.3,0.4,0.7,0.7,1.2,0.7c0.6,0,1.2-0.4,1.4-0.9
	C291.1,492.8,290.2,491.4,289,491.5L289,491.5z M307.9,487.3c-0.1,1.6,0,3.3,0.5,4.9C311,491.3,310.1,488.4,307.9,487.3z
	 M312.5,487.2c-0.4,1.4-0.9,3.1-0.5,4.8C314.6,491.4,314.4,488.5,312.5,487.2z M289.6,490.3l-0.2-2.7c-1.1,0.2-2.1,0.3-3.3,0.6
	c0.3,1.7,2,1.9,3.3,2L289.6,490.3z"/>
<path class="st1" d="M252.5,440.7c-0.9,0.7-1.4,1.9-2,2.8c-1.9,0.1-3.7,0.1-5.6,0.1c1.3,1.4,3.2,1.8,4.8,1.8c0,2,0.2,4.1,0.6,6.2
	c2.6-0.7,3.6-3.3,4.6-5.5c-0.3-0.6-0.5-1.3-0.8-2L252.5,440.7z M252.5,445.8c-0.4,0.9-0.7,2-0.8,3.1h-0.1c-0.5-0.8-0.5-2.9-0.1-3.9
	c0.3-0.7,0.6-0.6,1.2,0.2L252.5,445.8L252.5,445.8z M273.8,458.3c-2-1.4-3.2,3.2-0.8,3.3C274.4,461.5,274.9,459.1,273.8,458.3z
	 M288.3,484.1c-1.4-0.4-3.2-1.1-4.8-1.4c0.3,1.4,1.7,3.2,3.2,3.2C287.2,485.8,288,485.4,288.3,484.1L288.3,484.1z M301.4,465
	c0,0.8,0.1,2.1,0.2,3.1c-1.6-0.5-3.1-1.1-4.6-1.6c0.9,1.7,2.1,3.3,3.3,4.3l0.2,0.2l2.5-2.5c0-1.2-0.1-2.5-0.1-3.7
	C302.3,465,301.9,465,301.4,465z M743.8,484.1c-7.7,1.1-13.2,2.4-15,2.8c-79.7-13.1-107.1-5.2-114.8-1.4c-7-6.5-38-14.9-44.9-16.6
	l-1.9,2c16.6,4.3,43.3,12.7,43.6,16.7l0.3,3.7l3.7-3.1c0.2-0.2,18.6-14.9,113.4,0.8l0.8,0.2l0.8-0.3c0.2-0.1,5.4-1.4,13.9-2.7
	L743.8,484.1L743.8,484.1z M504.1,495.6c0.3-0.2,0.7-0.2,1.1,0c0.3,0.2,0.5,0.3,0.8,0.4l-3.1-2C503.3,494.5,503.8,495.1,504.1,495.6
	z M314.4,453.2c-2,0.3-3.3,0.1-3.3-2c-4.4,3.6,3.7,3.2,1.9,6.5h0.8v1.1c1.6,0,3.3,0,4.8,0.1c-0.3-2.5-0.3-4.9-0.9-7.6
	C316,450.4,315.3,452.1,314.4,453.2z M314.2,457.6c0.3-1.7,0.9-2.9,2-3.3c0.2,1.1,0.3,2.1,0.3,3.3
	C315.9,457.4,314.8,457.6,314.2,457.6z M355.8,440c-1.6,0.5-0.7,2.3,0.4,2.8c0.6,0.3,1.2,0.1,1.6-0.3
	C358.8,441.2,357.1,439.5,355.8,440z M321.2,448.3c-0.4,0.3-1.1,0.8-1.6,1.2c0.3,0.4,0.4,0.9,0.7,1.4c0.3,0.6,0.5,1.1,0.8,1.8
	c2,0.2,4.1-1.1,5.1-2.9c-1.1,0.3-2.3,0.7-3.5,1.2L321.2,448.3z M369.3,443.5c2,2.5,4.6,1.9,7.5,1.8c3.3-0.3,7.1-0.7,9.3-3.7
	c-1.4,0.3-3.1,0.7-4.6,1.1C377.5,443.6,373.4,444.6,369.3,443.5L369.3,443.5z"/>
<path class="st1" d="M669.2,416.5c1.1-0.7,2-1.8,2.8-2.7c1.1,0.9,3.3,1.4,3.3,3.3c-0.8,0.9-2,0.4-3.1,0.3c0,1.1-0.1,2.4-0.3,3.6
	c-0.8-0.6-1.8-1.1-2.5-1.9l-1.8,1.6c-0.4-0.8-0.8-1.9-1.2-2.7c-1.1,0-2.2-0.1-3.3-0.1c1-1.6,2-3.1,3.1-4.6
	C667.2,414.3,667.9,415.8,669.2,416.5 M590,385.1c0.7-17.3,4.3-34.2,8-51c-1.8-3.1-5.9-4.2-7.3-7.5c-0.5-1.4-0.1-3.7,1.8-3.4
	c5.9,0.7,11.1,5.1,17,3.1c11.1-1.7,22.4-0.7,33.5,0.8c3.3-1.8,7.1-5.7,11-3.3c2.1,4.5-3.4,6.2-5.9,8.4c-0.6,9.9-0.7,20.1-0.8,30.1
	c-0.9-0.2-1.9-0.2-2.8-0.3c-0.4-10.1,0.3-20.2,0.8-30.4c2.4-1.8,5.3-3.1,6.5-5.9c-2.6,0.8-5.1,2.3-7.1,4.2
	c-7.6-1.9-15.4-1.5-23.1-1.8c-5.3-0.3-10.4,0.8-15.5,1.5c-4.1-1.6-8.2-3.3-12.6-4c1.2,3.7,5.3,4.6,7.6,7.4v1.7
	c-3.8,16.7-7,33.8-8.1,51C593.4,389,589.3,387.3,590,385.1"/>
<path class="st1" d="M607,335.2c0.8-0.8,1.8-1.6,2.6-2.2c1.8,0.1,1.9,2.1,2.5,3.3c-2,0.2-3.5,1.1-4.7,2.8l-1.1-1.7l-2.8,1.1l0.9-3
	c-0.4-0.4-1.2-1.1-1.7-1.6C604.5,333.2,605.8,333.9,607,335.2 M629.6,334.2c1.6,0.7,2.5,2.4,3.6,3.7c2-0.8,3.4-2.6,4.8-4.3
	c1.5,1.4,2.9,3.1,3.6,4.9c-1.1-0.2-2.3-0.5-3.3-0.7c-0.2,1.1-0.3,2.4-0.5,3.5c-1.1-0.7-2-1.3-3.1-2c-0.8,1.1-1.8,2-2.5,3.1
	c-0.3-1-0.7-2-1.1-3.1c-0.7,0-2.1,0.2-2.9,0.2C628.7,337.7,628.1,335.4,629.6,334.2 M619.2,335c-4,2.1-7.7,6-7.8,11
	c2.1,0.3,4.3,1.1,6.5,0.7c3.9-1.7,7-5.8,6.2-10.4C622.6,335.6,621,334.7,619.2,335 M619.5,343.4c-0.2,1.4-2.4,2.4-3.5,1.6
	C615.9,343.5,618.4,342.9,619.5,343.4 M621,339.8c-1.2,2-3.7,2-5.6,2.5c0.9-1.9,2-3.6,3.8-4.6C620.5,336.8,622.5,338.8,621,339.8
	 M636.2,349.5c1.7-0.7,3.1-1.5,4.8-2.1c-2.1,3.7-7.1,5.7-10.8,3.3c-0.8-0.5-3.1-1.5-1.7-2.8C631.1,347,633.4,350.6,636.2,349.5
	 M617.8,349.6c2.7,0.4,5.3,0.2,7.6-1.7C624.4,351.2,619.8,353.1,617.8,349.6 M610.8,349c-2,2.4-6.6,2.2-7.7-0.9
	C605.5,349,608.1,349.1,610.8,349 M586.1,363.1c0.5-3.5,1.2-7,2.4-10.4c0.3-1,0.8-1.4,2-1.4c-0.1,4-1,7.7-1.7,11.5
	C588.1,363.1,586.8,363.1,586.1,363.1 M709,390.6c-1.2-3.7-5.7-4.3-8.9-5.1c-4.6-0.6-9.1-0.7-13.6-1.3c0.5-1.1,1.8-2.1,1.6-3.6
	c-1.8-3.3-5.7-2.8-8.7-3.1c-14.2-0.1-28.3,0.5-42.5,0.2c-1.6,0.2-3.4,0.2-4.7,1.4c-2.7,3-6.5,4.3-10.1,5.3c0.3-1.8,1.4-3.1,2.2-4.4
	c0.5-1.1-0.8-1.4-1.4-0.8c-1.9,1.1-3.5,2.5-5.5,3.2c0.2-1.3,0.4-2.5,0.6-3.9c-2.4,1.4-4.6,3.1-7.2,3.8c0.8-1.4,2-2.6,3.1-4
	c-2.5,0.3-4.6,2-7.1,2.4c1-1.8,2.2-3.3,3.1-5c-1.9,0.7-3.7,1.5-5.5,2.1c3-4.8,7-9.1,11.6-11.9c4.3-2.5,8.8,0.3,12.8,2.1
	c3.1,1.7,7,1.1,9.4-1.4c-2.1,0.5-4.4,2.7-6.7,1.5c-3.3-1.8-6.9-3.5-10.5-4.6c-1.9-4-2.2-9.1-5.5-12c-4.1,0.5-8,2.2-11.4,4.4
	c-1.7,0.8-2,3.1-2.7,4.6c-1.1-0.1-2-0.1-3.1-0.2c1.4,0.6,2.7,1,4.2,1.4c0.8,3.6,1.6,7.3,3.3,10.6c-1.8,1.8-3.3,3.7-4.1,6.1
	c2.7,0.7,4.6,3.3,7.4,3.9c1.9,1.1,4,0,5.9-0.4c2.5,0.3,5.1,0.8,7,2.6c4.1,0.9,8.6-1.1,11.4-4.3c14,0.5,28-0.3,42-0.3
	c3.1,0.2,6.5-0.3,9.2,1.6c-1.4,1.7-3.8,2.6-4.6,4.8c2,0.2,4,0.2,5.9,0.3c6.5,0.8,13.2,0.1,19.2,3.3c-0.8,4.8-6.2,3.7-9,6.4
	c2.1,0.8,4.4,1.4,6.4,2.7c-2.3,6.2-9.5,4.1-14.3,5.4c-0.2,4,4.8,2.5,7.1,2.6c4.3-1.4,9.6-3.3,11.3-8.2c0.5-1.8-1.4-2.4-2.4-3.3
	C705.8,394.6,708.4,393.1,709,390.6 M614.4,353.5c1.2,0.1,1.7,2.5,0.2,2.5C613.3,356,613,353.5,614.4,353.5 M615.9,364.8
	c-0.5-2.8-0.8-5.8-2-8.4c0.4,0,1.1,0.1,1.6,0.1c1.8,2.1,2.4,5.3,3.7,7.7C618.2,364.5,617,364.7,615.9,364.8 M614.5,365.8
	c-2.5,1.5-4.8,3.3-7,5.5c-1.5-3.9-3-8.1-3-12.2c1.7-2.7,4.8-3.7,7.6-4.3C612.5,358.5,613.3,362.2,614.5,365.8"/>
<path class="st1" d="M631.3,353.5c-2.4,2.6-5.9,3.2-9.1,1.9c-0.2-0.5-0.3-1.6-0.4-2c1.8,0.5,3.3,1.1,5.1,1.4
	C628.3,354.3,629.9,353.8,631.3,353.5 M637.5,357c-1.8,2.4-5.2,3.3-7.6,1.4C632.6,359,635,358.1,637.5,357 M645.2,368.7
	c0.2-0.5,0.5-1.5,0.6-2c2.1-0.1,4.3,0,6.5,0.2c0.1,0.4,0.3,1.1,0.3,1.5C650.2,369.5,647.6,369.6,645.2,368.7 M617.1,370.2
	c1.4-1,3.3-3.3,4.8-1.4c-2.3,2.4-4.9,4.6-8.2,5.4C614.1,372.1,615.9,371.4,617.1,370.2 M620,374.7c1.8-2.5,4.3-4,6.9-5.2
	C627.1,372.9,622.8,374.7,620,374.7 M651.1,373.3c-5.5,0.4-11,0.3-16.5-0.4c2-3.3,6.3-2.5,9.6-2.5c3.3,0.3,7.1-1,10.2,1
	C653.5,372.1,652.5,373.3,651.1,373.3 M629.6,372.1c0.8,3.1-2.4,4.2-4.7,4C626.3,374.4,627.5,372.5,629.6,372.1 M637.5,447.7
	c2.4,1.1,4.9,0.6,7.4,0.3c0.1,0.7,0.3,2,0.3,2.6c0.6,0,1.8,0.1,2.4,0.2c1.1-3.2,2-6.4,2.5-9.8c2.2,1.2,4.4,2.7,6.9,3.3
	c3.4,0.8,7.1,0.5,10.6,0.3c0.4,3.1,0.9,5.9,1.4,9c-2.7,0.2-5.9,0.1-8.2-1.6c-1.6-1.3-2.8-3.1-4.8-3.7c-0.2,4.7,4.8,6.5,8.3,8
	c4.7,0.3,9.8-0.5,13.3-4.1c3.6-3.7,7.9-8,13.5-7.1c-0.3,2.5-3.3,2.8-4.4,4.8c-1.6,2.3-3.1,4.8-5,6.5c-4,3.5-9.1,5.3-14.2,5.7
	c-1.4-0.8-1.6-2.9-2.5-4.3c0.2,1.4,0.4,2.6,0.7,4c-1.1,0.1-2.1,0.2-3.3,0.2l0.3,2c3.1,1.2,6.5,0.5,9.7,0.3c0.3,4.2,0.7,8.4,1.4,12.6
	h2.5c0.8-4.6-1.1-9.1-1.1-13.6c2-1.1,4.1-2.5,6.2-3.4c7,1.4,14.3,3,21.5,2.3c4.1-1,8.2-3.5,10-7.5c1.1-1.9-0.6-3.5-1.4-5.1
	c5.3-9.8,11.3-19.5,13-30.8c-1.1-2.5-3.8-3.7-6.2-4.3c-5.3-0.6-10.6-1.9-16-0.8c-2.9,0.7-4.2,3.7-5,6.3c-2.7,7.5-5.4,15.2-9.3,22.1
	c-3.7,1.1-7.1,3.2-10.4,5.5c-2,0.5-4.3-0.9-6.5-1.2c-0.4-4-0.4-8.2,0.8-12.1c0.3-1.8,2.3-0.8,3.3-0.8c6.2,1.1,13.2-2,16-8.1
	c2-4.3-0.3-9.8-4.1-12.1c-3.1-1.9-6.5-2.5-9.9-3.7c3.3-3.9,7.2-7,9.8-11.4c0.1-0.5,0.3-1.6,0.3-2.1c-3.7-2.7-7.5,1.2-11.3,1.8
	c0.3-4.9-3.7-8.4-7.4-10.6c-3.4-1.2-7.6-2-11,0.2c-4.7,2.5-7.8,7.5-13,9.1c-1.8,0.7-3.3-0.8-4.8-1.5c0.2,2.4,0.5,4.7,1.1,7
	c-0.5,0-1.4-0.2-2-0.2c0.6,3.3,1.7,6.6,3.2,9.7c-3.6,5.9-3.2,12.9-1.8,19.4c1,3.7-0.5,7.5-3,9.9c-1.4-0.9-3.1-1.9-4.6-2.5
	C631.7,442.3,634.1,446.4,637.5,447.7 M716.7,417.1c0.3,3.7-0.9,7-2.4,10.3c-3.1,7.1-6.6,14-10.9,20.5c-0.8,0.8-1.2,2.1-2.4,2.4
	c-2.7-0.3-5.3-1.1-7.8-2c0.3-1.2,0.6-2.5,0.8-3.7c2.4,0.8,4.6,1.9,7,2.5c1.4-0.7,1.9-2.7,2.7-4.1c3.8-7.8,8.9-15.1,11.3-23.8
	c-4.4-1.7-9.1-0.5-13.6-0.8c0.5-2.4,3.1-2.5,4.8-2.5C709.9,415.7,713.3,416.5,716.7,417.1 M686.6,454c5.3,1.6,10.6,3.9,16.3,3.8
	c3.4-0.1,5.3-3.7,7.9-5.4c-0.1,4.4-4.8,5.9-8,7.1c-6.2,0.7-12.7-0.6-18.8-1.9C684.9,456.5,685.7,455.4,686.6,454 M690,450.4
	c4.1-0.1,7.8,2.4,12,2.1c3.1-2,4.8-5.4,6.8-8.5c4.5-8.4,9.1-16.7,11-26.2c0.4,0.3,1.2,1,1.6,1.3c0.6,3.3-0.9,6.5-2,9.5
	c-3.3,7.6-7.2,14.7-11.4,21.7c-1.4,2.4-3.3,4.8-6.2,5c-4.5-0.7-8.8-2-13.2-3.5C688.6,451.3,689.5,450.7,690,450.4 M701.1,446.2
	c-3.3-1.4-6.6-2.8-10.1-3.6c4.2-7.2,6.9-15.4,9.8-23.3c4.6-0.8,9.5-1.8,13.8,0.3C711.2,429,705.9,437.6,701.1,446.2 M671.9,452.8
	c-0.2-1.2-0.2-2.5-0.3-3.7c1.3,0.3,2.5,0.5,3.8,0.8C674.6,451.4,673.4,452.6,671.9,452.8 M654.2,440.2c-1.9-1.1-4.5-2.2-4-4.8
	c0.4-6.5,0.2-13.8,4.2-19.4c1.2-2,1.1-4.6,2.9-6.2c-0.8-2.3-1.5-4.7-1.7-7.1c2.3,0.5,4,2.4,5.3,4.2c-1.1-0.3-2.1-0.7-3.3-0.9
	c0.5,1.8,1.6,3.1,2.6,4.6c1.1-0.5,2-0.8,3.3-1.2c1.4-2.7,4.6-2.5,7-3.7c3.3-1.1,6.2-3.2,9.4-4.1c-2,2.9-4.8,4.9-7.1,7.5
	c-0.5-0.2-1.4-0.4-1.8-0.5c0.6,1.1,0.9,2.3,1.8,3.2c3.9,1.5,8.2,1.9,11.8,4.1c2.5,2,5.1,5.9,3.3,9.3c-3.6,5.6-11.1,7.6-17,4.8
	c-2.4-1.4-4.6-3.3-7.1-4.1c-0.2,3.3,3.3,4.8,5.5,6.8c-0.8,3.1-1.4,6-2,9.2C662.9,442.1,658.1,442.3,654.2,440.2 M644.6,445.5
	c-2.7,1.7-6,0.7-8.4-1.3c5.5-1.3,8.4-8.2,7-13.6c-1.6-6.9-1.8-15,3.3-20.2c-0.8-1.1-1.4-2.4-2-3.7c1.8-0.5,3.3-1.2,4.4-2.7
	c-1.2-1.1-2.5-2.4-3.7-3.7c2.8-2.2,6-3.7,8.7-6.1c2-1.6,3.9-3.5,6.2-4.6c4.6-1.4,9.8,1,12.1,5.5c0.8,5.6-5.3,7.1-9,8.9
	c-2-2.2-4-4.8-7-5.3c-1.9-0.5-3.3,1.4-4.1,3c-0.5,3.1,0.8,6.1,2,8.9c-2.5,3.1-5.2,6.4-5.8,10.5c-1.1,6.7-1.1,13.6-1.8,20.2
	C646.2,443,646.1,444.9,644.6,445.5 M608,397c1.6-3.3,3.3-6.6,5.5-9.5c0.7-1.1,2-1.8,3.3-1.8c-0.2,3.1-1.1,5.9-1.1,9
	c4.4-0.6,8.7,0.8,12.2,3.4c1.9-2,3.2-4.9,5.9-5.9c0.3,1.4,1.1,2.8,0.6,4.3c-1,3.3-1.8,7.6-5.3,8.9c0.8-2.1,1.4-4.5,2-6.8
	c-1.1,0.8-2.2,1.9-3.3,3c-2-2-4.1-4.2-7-4.6c-2.6-0.6-5.3,0.2-7.8,0.9c0-1.5,0-3.1-0.1-4.6C611.5,394.8,610.3,396.9,608,397
	 M577.3,418.6c2.8-1.4,1.8-5.5,1.2-8c1.6-1.3,3.3-2.5,4.2-4.6c0.3-2,0.2-4,0.3-5.9c2.4-1.5,7.1-4,4.3-7.3c-2.3,1.5-4.5,3.4-7.1,4.3
	c-3.3-0.9-6.1-3.3-9.6-3.7c-2.4-0.2-5.5-0.8-6.9,2c0.1,2.5,2.5,3.6,4.5,4.4c3.4,1.4,7.1,0.9,10.9,1.2c0.1,1.3,0.4,2.5,0.1,3.9
	c-0.9,1.1-2,2-3.2,3.1c-3.7-2.9-8.2-5.5-12.9-4.6c-2.4-0.2-2.5,3.4-0.8,4.6c3.6,2.8,8.4,2.5,12.6,3.1c0.9,0.8,1.6,2,1.6,3.3
	c-0.6,1.7-2.4,2.2-3.9,2.4c-4,0-7.7-1.5-11.5-2.5c-0.7,2,0.7,3.3,2.3,3.8C567.6,419.5,572.7,420,577.3,418.6 M564.5,405.3
	c2.2,0.5,4.4,1.1,6.2,2.5C568.7,407.6,565.3,407.9,564.5,405.3 M566.4,395.4c2.7,0.2,5.5,0.6,7.9,2.3
	C571.5,398.2,568.8,397.2,566.4,395.4 M594.5,404.8c2.7-4.2,7.6-8.4,12.7-6.2c0.3,1.1,0.7,2.2,0.8,3.3c1.1,0.1,2.4,0.2,3.3-0.7
	c-0.3,0.4-0.7,1.2-0.8,1.7c-1.3,0.1-2.6,0.2-4,0.2c-0.3-1.1-0.8-2-1.1-3.2c-3.9,0.7-7.4,3.3-9.1,7.1c-1.1,2.5-0.5,5.4-0.5,8.1
	C592.5,412.9,593,408,594.5,404.8 M619.1,406.5c1.4-0.3,2.9-0.8,4.3-1.2c-0.5,0.8-0.9,1.5-1.4,2.3c-1.4,0-2.7-0.1-4.1-0.2
	c-0.2-1.4-0.3-2.7-0.5-4C618.8,403.6,618.7,405.3,619.1,406.5"/>
<path class="st1" d="M600.8,405.2c0.8-1.8,2.8-1.4,4.2-0.8c0.1,1.1,0.1,2.4,0.1,3.5c-1.9,0.4-2-1.4-2.6-2.7
	c-0.2,0.8-0.4,2.3-0.5,3.1C600.7,407.5,600.2,406.5,600.8,405.2 M556.3,443c6.1,1.9,11.5,5.3,17.9,6.5c4.9,2,10.4,2.6,15.5,3.9
	c1.1,0.3,2.2,0.3,3.3,0l-0.5-4.6c0.6-0.2,1.9-0.5,2.5-0.6c1.1,2.5,2.4,4.9,3.8,7.2c-2.8,0.3-5.9-0.8-8.4,0.8
	c4.3,1.1,8.7,1.1,13.1,2.4c1.1,0.5,2.5,1.4,2.5,2.7c-1.1,1.8-3.1,3.1-3.3,5.3c4.6,0.1,9.3-2.3,13.6,0.2c-0.6,1.8-1.1,3.3-1.4,5.3
	c2.3,0.2,4.8-0.2,6.8,1.1c-0.3,1.1-0.7,2-1,3.2c1.2-1.2,1.9-2.7,2-4.6c-1.5-0.8-3.1-1.4-4.8-1.8c0.5-2-0.2-4.1-1.2-5.8
	c6-1.4,11.2-6.2,13.5-12.2c0.7-1.6-0.2-3.5-2-3.1c-3.4,2-6.5,4.8-10.4,5.9c1.8-15.3,7.5-29.6,12.4-44c0.5-1.3,0.5-2.7,0.3-4.1
	c-1.1-0.1-1.9,0.3-2.4,1.2c-3.5,6.7-6.2,13.8-8.3,21.1c-7.5,0.8-15-1.7-21.1-6.2c-0.9-1.2-1.1-3-2-4.2c-1.9,3.1-3.3,6.4-4.5,9.8
	c-1.7-0.3-3.3-0.8-4.9-1c-1.6,0.3-3,1.4-4.3,2.2c-1.1-1.1-2.2-2.2-3.7-2.5c-4.9-1.3-9.8-3.2-14.7-4.8c-3.2-1-6.2-3.1-9.7-2.5
	C555.2,427.7,553.5,435.7,556.3,443 M575.5,428.1c0.5,5,1.4,10.1,1.3,15.2c-6.9-0.8-13.5-3.1-19.9-5.8c0.2-5,0.5-10.1,0.5-15.1
	C563.8,423.3,569.4,426.6,575.5,428.1 M627,452.1c-1.7,4.8-5.9,8.4-10.6,9.8c0.2-1.4,0.3-2.9,0.4-4.3
	C620.6,457,623.6,453.9,627,452.1 M587.4,451.3c-1.5-0.7-4.3,0-4.6-2.3l3.5,0.5C586.7,450,587.2,450.9,587.4,451.3 M589.6,447.7
	c-2.7-0.2-6,0.4-8-2.1c3.9-1.7,6.2-5.4,8.6-8.7c-0.5-0.2-1.5-0.4-2-0.5c-1.7,2-3.3,4.2-5.5,5.6c-0.2-2.9-0.2-5.7-0.2-8.5
	c1.2-1.7,3.3-2.4,4.9-3.6c1.1-1,2.4,0.3,3.3,0.6c-0.1,2.1,0,4.3,0.3,6.5c3.3-3.1,3.3-7.8,5.5-11.5c3,1.5,5.8,3.3,8.8,4.3
	c4.3,1.7,9.1,1.6,13.6,2.1c-2,10.6-6,20.9-4.9,31.9c-2.3,0.4-4.6,0.5-7,0.7c0.2-1.6,1.1-3.3,0.3-4.8c-1.8-1.4-3.8-2.1-5.9-3.3
	c2.5-1,4.9-2,7.4-3.3c0.2-0.4,0.5-1.2,0.7-1.7c-1.4,0.5-2.7,0.8-4.2,1.2c-0.1-2-0.2-4.2,0-6.3c1.4-2,4.6-2.5,4.9-5.5
	c-1.9,0.9-3.5,2-5.3,3.1c-1.6-2.8-2.8-6.2-5.5-8.1c-2.6-0.7-5.6-0.1-7.5,2.1c-2.2,2.5-5.8,5.2-4.5,9.1c2.6-3.7,5.2-7.7,9.2-9.9
	c1-0.6,2-0.4,2.7,0.5c3.8,4.3,4.9,10.4,4.1,16c-1.3-0.2-3,0.6-4-0.5c-1.2-2.5-1.8-5.7-4.2-7.5C593.4,445.9,591.7,447.9,589.6,447.7
	 M580.8,448.9c-1.2-0.6-1.2-1.1-0.1-1.8C581.9,447.7,581.9,448.4,580.8,448.9 M580,429.7c-0.5,4.8-0.5,9.8-0.2,14.7
	c-0.3-0.2-0.8-0.3-1.2-0.4c-0.9-4.8-0.6-10-1.3-15C578.2,429,579.2,429.4,580,429.7 M578.6,446.1c0.1,0.5,0.2,1.4,0.3,2
	c-6.5-1.7-12.8-3.3-19-5.9c-0.8-0.3-1.7-0.8-2.3-1.6C564.6,442.1,571.5,444.2,578.6,446.1"/>
<path class="st1" d="M600.1,416.8c-0.7,0-1.9,0-2.5-0.1c-0.3-1.8-0.3-3.3-0.1-5.1c0.5,0.2,1.6,0.4,2,0.5
	C599.7,413.8,599.9,415.3,600.1,416.8 M605.2,420.5l-3.1-2l-0.2-5.1c0.5,0.2,1.4,0.3,2,0.4C604.5,416,604.8,418.3,605.2,420.5
	 M610,421.5c-2.4-1.5-3.2-4.5-2.9-7.2C610.3,415,609.8,418.8,610,421.5 M615.6,420.5c-2.3-0.7-3.4-2.5-3.3-4.9
	c0.5,0.1,1.4,0.2,2,0.2C614.8,417.2,615.3,418.8,615.6,420.5 M620.6,419.8c-0.9-0.5-1.9-0.9-2.8-1.4c-0.1-0.6-0.2-1.8-0.2-2.4
	C618.9,416.9,619.7,418.5,620.6,419.8 M212.4,499c-5.4-5.6-11.8-10.4-18.8-13.8s-14.9-5.5-22.7-4.7c-4.6,0.5-8.9,1.9-12.9,4.1
	c0.3-0.1,0.7-0.2,1.1-0.3c-15.5-0.1-30.4-5-45.8-6.5c-1.1-0.1-2.1,1-2.1,2.1c0,1.3,0.9,2,2.1,2.1c15.1,1.4,29.9,6.3,45.2,6.5
	c1.7,0,3.2-1.2,4.8-1.9c1.4-0.6,2.8-1,4.2-1.4c2.8-0.7,5.8-0.8,8.7-0.7c5.9,0.3,11.7,2.3,16.9,5.1c6.1,3.2,11.5,7.5,16.4,12.4
	C211.3,503.9,214.2,501,212.4,499L212.4,499z M580.8,477.1c6.4,2.5,12.6,5.5,18.7,8.6c1.5,0.8,3.1,1.4,4.8,2
	c1.5,0.6,3.1,1.1,4.8,0.9c1.8-0.2,3.6-0.8,5.3-1.2c1.7-0.4,3.4-0.8,5.2-1.1c7-1.4,14.1-2.5,21.3-3c7.1-0.4,14.1,0.1,21.1,0.7
	c14.1,1.3,28.2,2.8,42.3,3.5c14.3,0.6,28.5,0.3,42.5-2.2c0.8-0.2,1.4-0.3,2.2-0.3c0.8,0.1,1.5,0.2,2.2,0.3c1.4,0.3,2.9,0.5,4.2,0.9
	c2.9,0.8,5.6,1.8,8.3,3.1c5.6,2.5,10.9,5.5,16.4,8.2c1.4,0.7,2.8,1.3,4.2,2c1,0.4,2.3,0.3,2.9-0.8c0.5-0.8,0.3-2.5-0.8-2.9
	c-11.2-4.8-21.6-12.2-33.7-14.3c-1.5-0.3-3.3-0.7-4.9-0.5c-1.8,0.2-3.6,0.6-5.3,0.9c-3.5,0.5-7,0.9-10.4,1.2
	c-7,0.6-14.1,0.7-21.1,0.6c-14.3-0.3-28.5-1.7-42.7-3.1c-7-0.7-14-1.5-21.1-1.5c-7.2,0-14.4,0.8-21.6,2c-3.6,0.6-7.1,1.3-10.7,2
	c-1.8,0.4-3.6,0.8-5.3,1.2c-1.5,0.3-2.7-0.1-4.1-0.6c-6.3-2.5-12.1-5.9-18.4-8.6c-1.7-0.7-3.3-1.4-5-2c-1.1-0.4-2.3,0.4-2.6,1.4
	C579,475.7,579.8,476.8,580.8,477.1L580.8,477.1z"/>
<g>
	<path class="st2" d="M601.9,173.8c0.1-1.4-0.2-2.3-0.9-3c1.1-1.3,1.2-3.6-0.6-4.9c-7.2-5.3-12.8-12.2-16.7-20.1
		c-1.8-3.6-7.1-0.4-5.4,3.1c3.9,7.9,9.4,14.6,16.1,20.2c-4.5-0.8-9.1-1.6-13.6-2.4c0.5-8.3-1.4-15.2-3.9-20.3
		c1.7-1.7,3.9-2.9,6.1-3.3c3.7-5.7,6.5-12.3,7.4-18.8c0.7-3.8,0.2-7.4-0.2-11.1c-0.7-0.1-1.3-0.2-2-0.3c0.3-1.6-0.3-3.1-1.5-4.1
		c-2.4-4.8-7.4-7.2-11.7-9.5c-2.3,0.5-4.6,1.1-6.8,1.7c-2.2,0.7-4.4,1.5-6.6,2.5c-1.4,3.5-4.7,4.2-6.7,3.5
		c-15.8-8.2-32.3-20-50.1-17.8c-9.2,1.5-17.8-0.7-27.3,1.4c-2.2,0.3-4.4,0.7-6.5,1.3c-13,3.3-25.3,11-36,20.4c-1.3,0.7-2.6,0-4-0.7
		c-1.8-0.7-3.8-2-5.1-3.9c-2-1.5-4-2.2-6.4-1.7c-2.3-0.5-4.6-0.8-6.9-1.1c-4.1,2.6-8.9,5.5-11,10.5c-1.1,1.1-1.6,2.7-1.2,4.2
		c-0.7,0.2-1.2,0.3-1.9,0.5c-0.1,3.7-0.3,7.3,0.6,11.1c1.7,7.7,6,15.2,11.3,21.1c-1.5,4-2.5,8.8-2.5,14.4c-3.7,0.6-7.5,1.3-11.2,2.1
		c4.2-4.2,8.2-8.7,11.9-13.3c2.5-3.1-1.9-7.5-4.4-4.4c-5,6.1-10.3,11.9-16,17.3c-1.2,1.2-1.1,2.7-0.4,3.8c-0.8,1.4-0.6,3.4,0.1,6.9
		c0.2,0.9,0.9,2,1.8,2.5c2.1,1.2,3.3,2.9,4.1,5c1.9,5.5,4,11,6,16.5c2.3,6.3,6.4,10.8,11.9,13.7c0.8,6.9,1.9,13.8,3.7,20.6
		c0.4,2.4,1,4.8,1.6,7.1c2.6,9.2,7.6,17.6,17,23.9c1.5,1.1,3.2,2.2,5,3.1c0.1,3.5,0.1,7.6,0.1,11.5c-1.6,0.3-3.2,0.8-4.8,1.4
		c-5.5,0.1-11.1,1.6-14.5,6.4c-2.5,3.7-4.9,8.2-5.4,12.8c-6.1,18.4-20.7,74.2,3.8,83.7c2.4,0.9,4.5,1.2,6.4,0.9c1.6,0.4,3,1,4,2.3
		c-1.6,13.8-2.1,27.8,0.9,41.5c1.1,4.3,3.2,8.3,4.2,12.5c0.7,4.3-0.1,8.5-0.8,12.8c-1.6,4.8-2.4,9.5-2.3,14.6
		c-1.4,5.4-4.2,10.4-7.4,15c1.9-0.1,3.5-0.2,5.3-0.2c-0.4,4.5,0.8,9.1,2.1,13.5c0.8,0.1,0.8,0.1,1.6,0.2c0.9-1.9,1.9-3.6,3.2-5.4
		c0.8,4.6,0.8,9.7,0.8,14.5c-9.5-0.2-19,4.3-25.3,11.2c-3.3,8.3-5.9,17.1-5.9,25.9c0.7,6.6,8.3,8.4,13,11.5
		c12.1,1.4,24.3,6.7,36.7,4.1c10.2-2.4,19.9-6.5,29.8-9.9c7.1-2.3,12.5-7.7,18-12.5c4.3,3.3,9.1,5.9,12.5,9.9
		c13.4,2.5,26.1,10.2,40,8.3c7.8-1.9,16.1-1.9,23.9-4.5c7.1-2.5,15.8-3.8,20.5-10.4c1.9-8.8-0.9-17.7-3-26.1
		c-2.5-5.6-6.7-10.4-12-13.6c-4.5-2.5-9.8-2.2-15-2.3c0.2-4,1.1-8,3.2-11.5c0.2-3.5,0.2-7.1,0.2-10.5c1.9,1.5,3.5,3.2,5.3,4.5
		c-1.9-5.7-4.3-11.5-5.9-17.4c-2.3-8.8-6.7-17.2-6.7-26.5c-1.1-6.2,3.8-11,4.5-16.9c2.2-11.6,2.1-23.5,0.2-34.9
		c2.4,1.1,5.3,1.1,8.8-0.2c23.2-9,11.3-59.8,4.8-80.6c0.7-5.6-2.7-11.3-6.2-15.8c-4.9-6.2-14.1-6.8-21.8-6.2c0-4.3,0-9.3,0.1-13.3
		c0,0-0.7,0.2-1.7,0.5c9.9-6.4,17.3-15.8,20.2-27.6c0.7,0,1.5,0.7,2.2,0.7c2.2-8.2,2.9-17.1,4.3-25.6c0.1-1.4,0.2-2.8,0.4-4.3
		c3.4-2.4,6.1-5.5,7.8-9.6c2.6-6.5,4.9-13.1,7.5-19.6c0.5-1.3,1.6-2.8,2.9-3.5c2.1-1.2,2.7-2.7,2.7-4.7
		C601.9,176.3,601.8,175.1,601.9,173.8z"/>
	<g>
		<path class="st3" d="M470.6,160c2.4,0.2,4.9,0.5,7.4,0.6c-5.6-1.4-11.3-2.7-16.3-4.9c6.4,1.2,12.8,2.6,19.5,2.9
			c-2.5-0.9-5.3-1.5-7.8-2.5l-0.3,0c-0.4-0.2-1.1-0.5-1.5-0.7c4.1,0.6,8.1,1.4,12.3,1.6c1.4-0.9,1.2-2.4,1.8-3.6
			c-0.8-0.1-1.6-0.3-2.4-0.4c-16.1-3.1-31-8.1-45.5-13.3c-1-0.4-1.9-0.9-3.2-0.9c-0.3,0.4-0.5,0.8-0.8,1.2c2.2,1.4,4.4,2.7,6.8,3.9
			c-2.7-0.6-5.1-1.4-7.5-2.3c-1.2,3.6-2.2,7.3-0.4,10.9c12,3.4,24.6,6.1,37.7,7.4L470.6,160z"/>
		<path class="st3" d="M508.7,227.8c0.4,0.9,0.6,0.9-0.7,1.1c-1.2,0.2-2.3,0.6-3.5,0.9c-2.3,0.5-4.6,1-7,1.5
			c-4.8,0.9-9.6,1.6-14.5,2c-3.1,0.3-3,3.8,0.1,3.5c6.7-0.6,13.3-1.6,19.8-3c2.8-0.6,6.4-1.1,8.9-2.3c2.3-1.1,2.3-3.1,1.6-4.8
			C512.5,224.6,507.8,225.7,508.7,227.8z"/>
		<path class="st3" d="M428.7,128.7c0.2-0.2,0.5-0.4,0.7-0.7c-1.2-0.4-2.3-0.9-3.4-1.5C426.9,127.3,427.8,128.1,428.7,128.7z"/>
		<path class="st3" d="M492.8,224.6l0,0.3c0.8,0.2,1.6,0.3,2.5,0.2c0.2,0,0.3,0,0.5-0.1c0.2,0,0.3,0,0.5,0c0.9,0,1.7-0.2,2.5-0.4
			l0-0.3c5.2-1.9,9.9-7.4,12.9-12.8c0.1-0.4,0.1-0.7,0.1-1.1c0.1,0.2,0.3,0.3,0.4,0.5c-0.2-2-1-3.7-3.1-4.4
			c-0.7-0.2-1.3-0.6-1.7-1.1c-1.3-0.3-2.5-0.4-3.7,0c-3.3,0.1-6,0.8-8.6,1.2c-2.7-0.1-5.3-0.6-8.7-0.5c-0.4-0.1-0.9-0.2-1.3-0.2
			c0.1-0.3,0.3-0.6,0.4-1c0.1-0.2,0.1-0.5,0.2-0.7c-1.3,0.3-2.2,0.6-3.1,1.5c-1,1-1.7,2.2-2.4,3.6c-0.2,0.5-0.6,0.8-1,1.1
			c0.1,0.2,0.2,0.4,0.2,0.6c0.3,1,0.1,1.9-0.3,2.7c0,0.1-0.1,0.3-0.1,0.4c0,0.2,0,0.5,0,0.7c0,0.3,0,0.5-0.1,0.8
			c0.4-0.4,0.7-0.8,1.1-1.2C483.5,219.1,488.1,223.3,492.8,224.6z"/>
		<path class="st3" d="M485.5,289.1c0.1,0,0.3,0,0.4,0c0-0.9,0-1.8,0.1-2.8c-0.1,0.1-0.3,0.2-0.4,0.3
			C485.5,287.5,485.5,288.3,485.5,289.1z"/>
		<path class="st3" d="M531.4,250.5c-1,0.8-2.1,1.4-3.3,1.8C529.5,252.1,530.6,251.4,531.4,250.5z"/>
		<path class="st3" d="M509.6,287.6c0.3-0.7,0.5-1.4,0.7-2.2c0-0.2,0.1-0.3,0.1-0.4c-0.4,0-0.9,0-1.3,0
			C509.3,285.8,509.4,286.7,509.6,287.6z"/>
		<path class="st3" d="M491.4,240.4c3.4-1,7-1.4,10.7-1c1.6-0.4,3.1-1.3,4.5-2.1c-6.2-0.1-13.4-0.7-18.6,3.6
			C489,240.2,490.3,240.3,491.4,240.4z"/>
		<path class="st3" d="M506.9,253.5c-4-4.2-9.1-6.7-15-7.6c0.5,0.5,1,1,1.5,1.4c-1.3-1-2.7-0.4-4.5,0.5c0.1,0.1,0.2,0.3,0.2,0.4
			c0.2,0.5,0.4,1,0.6,1.4c0.1,0,0.1,0,0.2,0c0,0-0.1,0.1-0.1,0.1c0.7,1.8,1,3.7,0.8,5.7c0.4,0.1,0.8,0.3,1.1,0.5
			c3,1.2,4.1,3.7,4,7.1c0.7,0.5,1.1,1.3,1.2,2.3c0.5,0,1.1,0,1.6,0c0.3-2.6,0.6-5.2,1.4-8.1c0.4,2,1.6,2.9,2,4.8
			c1.1-4.1,0.3-8,0.1-11.5C503.1,252.3,504.9,253.1,506.9,253.5z"/>
		<path class="st3" d="M465.8,248.1c-0.1-0.2-0.3-0.3-0.4-0.5c1.2,2,2.6,3.7,4.2,4.7C468.2,251.2,467,249.6,465.8,248.1z"/>
		<path class="st3" d="M483.3,264.6c-1,1.5-1.3,3.2-1.4,5.1C482.5,268.2,483,266.5,483.3,264.6z"/>
		<path class="st3" d="M602,173.8c0.1-1.4-0.2-2.3-0.9-3c1.1-1.3,1.2-3.6-0.6-4.9c-7.2-5.3-12.8-12.2-16.7-20.1
			c-1.8-3.6-7.1-0.4-5.4,3.1c3.9,7.9,9.4,14.6,16.1,20.2c-4.5-0.8-9.1-1.6-13.6-2.4c0.5-8.3-1.4-15.2-3.9-20.3
			c1.7-1.7,3.9-2.9,6.1-3.3c3.7-5.7,6.5-12.3,7.4-18.8c0.7-3.8,0.2-7.4-0.2-11.1c-0.7-0.1-1.3-0.2-2-0.3c0.3-1.6-0.3-3.1-1.5-4.1
			c-2.4-4.8-7.4-7.2-11.7-9.5c-2.3,0.5-4.6,1.1-6.8,1.7c-2.2,0.7-4.4,1.5-6.6,2.5c-1.4,3.5-4.7,4.2-6.7,3.5
			c-15.8-8.2-32.3-20-50.1-17.8c-9.2,1.5-17.8-0.7-27.3,1.4c-2.2,0.3-4.4,0.7-6.5,1.3c-13,3.3-25.3,11-36,20.4c-1.3,0.7-2.6,0-4-0.7
			c-1.8-0.7-3.8-2-5.1-3.9c-2-1.5-4-2.2-6.4-1.7c-2.3-0.5-4.6-0.8-6.9-1.1c-4.1,2.6-8.9,5.5-11,10.5c-1.1,1.1-1.6,2.7-1.2,4.2
			c-0.7,0.2-1.2,0.3-1.9,0.5c-0.1,3.7-0.3,7.3,0.6,11.1c1.7,7.7,6,15.2,11.3,21.1c-1.5,4-2.5,8.8-2.5,14.4
			c-3.7,0.6-7.5,1.3-11.2,2.1c4.2-4.2,8.2-8.7,11.9-13.3c2.5-3.1-1.9-7.5-4.4-4.4c-5,6.1-10.3,11.9-16,17.3
			c-1.2,1.2-1.1,2.7-0.4,3.8c-0.8,1.4-0.6,3.4,0.1,6.9c0.2,0.9,0.9,2,1.8,2.5c2.1,1.2,3.3,2.9,4.1,5c1.9,5.5,4,11,6,16.5
			c2.3,6.3,6.4,10.8,11.9,13.7c0.8,6.9,1.9,13.8,3.7,20.6c0.4,2.4,1,4.8,1.6,7.1c2.6,9.2,7.6,17.6,17,23.9c1.5,1.1,3.2,2.2,5,3.1
			c0.1,3.5,0.1,7.6,0.1,11.5c-1.6,0.3-3.2,0.8-4.8,1.4c-5.5,0.1-11.1,1.6-14.5,6.4c-2.5,3.7-4.9,8.2-5.4,12.8
			c-6.1,18.4-20.7,74.2,3.8,83.7c2.4,0.9,4.5,1.2,6.4,0.9c1.6,0.4,3,1,4,2.3c-1.6,13.8-2.1,27.8,0.9,41.5c1.1,4.3,3.2,8.3,4.2,12.5
			c0.7,4.3-0.1,8.5-0.8,12.8c-1.6,4.8-2.4,9.5-2.3,14.6c-1.4,5.4-4.2,10.4-7.4,15c1.9-0.1,3.5-0.2,5.3-0.2
			c-0.4,4.5,0.8,9.1,2.1,13.5c0.8,0.1,0.8,0.1,1.6,0.2c0.9-1.9,1.9-3.6,3.2-5.4c0.8,4.6,0.8,9.7,0.8,14.5c-9.5-0.2-19,4.3-25.3,11.2
			c-3.3,8.3-5.9,17.1-5.9,25.9c0.7,6.6,8.3,8.4,13,11.5c12.1,1.4,24.3,6.7,36.7,4.1c10.2-2.4,19.9-6.5,29.8-9.9
			c7.1-2.3,12.5-7.7,18-12.5c4.3,3.3,9.1,5.9,12.5,9.9c13.4,2.5,26.1,10.2,40,8.3c7.8-1.9,16.1-1.9,23.9-4.5
			c7.1-2.5,15.8-3.8,20.5-10.4c1.9-8.8-0.9-17.7-3-26.1c-2.5-5.6-6.7-10.4-12-13.6c-4.5-2.5-9.8-2.2-15-2.3c0.2-4,1.1-8,3.2-11.5
			c0.2-3.5,0.2-7.1,0.2-10.5c1.9,1.5,3.5,3.2,5.3,4.5c-1.9-5.7-4.3-11.5-5.9-17.4c-2.3-8.8-6.7-17.2-6.7-26.5
			c-1.1-6.2,3.8-11,4.5-16.9c2.2-11.6,2.1-23.5,0.2-34.9c2.4,1.1,5.3,1.1,8.8-0.2c23.2-9,11.3-59.8,4.8-80.6
			c0.7-5.6-2.7-11.3-6.2-15.8c-4.9-6.2-14.1-6.8-21.8-6.2c0-4.3,0-9.3,0.1-13.3c0,0-0.7,0.2-1.7,0.5c9.9-6.4,17.3-15.8,20.2-27.6
			c0.7,0,1.5,0.7,2.2,0.7c2.2-8.2,2.9-17.1,4.3-25.6c0.1-1.4,0.2-2.8,0.4-4.3c3.4-2.4,6.1-5.5,7.8-9.6c2.6-6.5,4.9-13.1,7.5-19.6
			c0.5-1.3,1.6-2.8,2.9-3.5c2.1-1.2,2.7-2.7,2.7-4.7C602,176.3,601.8,175.1,602,173.8z M575,215.3c-6.7,2.4-13.7,3.2-21.1,3.3
			c-8.5-0.1-17.1-1.5-25.4-4.6c-4.4-1.7-8.1-4.2-10.7-7.9c-0.9-1.3-1.8-2.6-2.5-3.9c1,0.5,2,1.1,3.1,1.6c-1.6-2-3.8-3.2-5.2-5.5
			c0,0,0-0.1,0-0.1c8,1.9,12,5.7,20.1,0.4c-0.9,2.4-2.5,4.4-3.8,6.6c2.9-1.9,4.9-5.2,7.5-7.7c-1.2,3.9-4,6.4-6.4,9.5
			c3.2-1,5.2-4.2,7.7-6.3c-0.8,2.7-3.1,4.6-4.7,6.8c6.9-2.6,10-9.3,12.9-15.7c2.2-4.6,7.4-2.1,10.5,0.2
			c-5.6-19.4-27.7-10.7-41.2-7.5c-2.1,0.6-4.3,1-6.4,1.1c-0.1-0.8-0.2-1.6-0.2-2.5c-0.2-5.1,2.2-8.8,7.2-11.1
			c5.2-2.4,10.8-3.7,16.5-4.4c3.3-0.2,6.6-0.5,9.9-0.9c11.2-0.6,22.3,0.2,33.2,2.8c0.2,0.4,0.3,0.9,0.2,1.5c0,0.2,0,0.4-0.1,0.5
			c2.2,5.7,2.5,12.2,2.2,18.1c-0.2,5.3-1,10.9-2.7,16.1c0,0.5,0.1,0.9,0.1,1.3c-0.1,0.9-0.1,1.8-0.2,2.8c0,0.2,0,0.3,0.1,0.5
			c0.1,0.6,0,1.1-0.2,1.5c-0.1,0.8-0.1,1.6-0.2,2.4c0,0.4-0.1,0.8-0.1,1.2C575.1,215.3,575.1,215.3,575,215.3z M514.8,192.2
			c0.9-1.5,2.7-1.8,4.2-2.2c5-1.3,10.3-2.7,15.4-3.9c1.6-0.2,2.8-0.5,4.2-0.2c1.2,0.5,0.9,2.3,0.1,3.1c-2.3,3-5.9,4.9-9.5,5.9
			c-3.9,0.9-8.4,1.1-12.4-0.3l0,0C515.9,194.1,514.5,193.6,514.8,192.2z M584.1,136.7c0-0.3,0.2-0.8,0.2-1.1c0-1.2,0.4-2.2,1.2-2.8
			C585.1,134.1,584.6,135.3,584.1,136.7z M405,139.1c0.9,0.5,1.3,1.6,1.4,2.7c0,0.3,0.2,0.8,0.2,1.1
			C406,141.5,405.4,140.4,405,139.1z M414.8,159.8c0.4,0.3,0.8,0.7,1.2,1.2c0.1,0.1,0.2,0.3,0.4,0.5c0.2-0.3,0.5-0.6,0.9-0.8
			c2-5.9,4.9-11.7,9-16.2c0,0,0,0,0,0c-2.1-0.4-4-1.4-5.9-3c-0.3-0.3-0.7-0.6-1-0.9l0.7-3.1c0,0-0.8,0.7-1.9,2
			c-0.3-0.2-0.6-0.5-0.9-0.7c0.2,0.4,0.4,0.7,0.6,1.1c-0.4,0.5-0.9,1.1-1.4,1.8c-3.3-3.1-5.9-7.5-7.9-11.7c0.5,3.1,2.2,6.2,3.3,9
			c-3.3-3.9-5.1-9-6-14.3c-0.2-0.4-0.4-0.9-0.7-1.2c-0.4,1-0.7,1.9-0.7,2.9c-0.4-1.5-0.4-3-0.2-4.5c0,0-0.1-0.1-0.2-0.2
			c0.3-1.9,0.7-4.2,1.3-6.2c-0.4,0.2-0.8,0.3-1.1,0.4c-0.1-0.1-0.1-0.1-0.3-0.2c1.7-2.4,3.7-4.5,6.7-5.5c1.6-0.9,3.3-1.2,4.9-1.1
			c1.7,0,3.3,0.5,5,1.1c4.3,2,9.6,3.5,11.6,8.7c0.7-0.7,2-1.5,2.6-1.5c1.2,0.9,1.8,3.1,1.8,4.6c8.9-12.2,21.2-19.7,34.7-23.2
			c2.2-0.6,4.5-1.1,6.8-1.5c23.7-4.3,55.4-2.8,72.5,18.7c0.7,0.7,3.3-2.2,6.6-2.2c0.7,0,1.3-1.5,1.6-3c1.4-0.8,2.9-1.8,4.5-2.8
			c4.6-2.9,9.6-5.7,14.6-3.5c3,0.7,5.2,2.6,7,4.8c-0.2,0-0.2,0.1-0.3,0.2c-0.3,0-0.7-0.1-1.1-0.3c0.7,1.9,1.2,4.2,1.7,6.1
			c-0.1,0.2-0.2,0.2-0.2,0.2c0.3,1.5,0.4,3,0.2,4.5c-0.1-1-0.5-1.9-0.9-2.9c-0.3,0.3-0.4,0.9-0.6,1.3c-0.6,5.3-2,10.6-5,14.8
			c1-2.9,2.5-6.1,2.7-9.3c-2.1,5.4-5,11.1-9.2,14.5c-0.3-0.4-0.6-0.8-0.9-1.1c0.8-1.2,1.5-2.4,2-3.8c-1.1,0.8-1.8,1.8-2.9,2.9
			c-0.8-0.8-1.3-1.3-1.3-1.3l0.5,2c-1.5,1.3-3.1,2.3-4.8,2.8c-0.3-0.3-0.8-0.4-1.3-0.5c1-0.7,2-1.8,2.9-2.9c-1.3,1-2.6,1.7-4.1,2.3
			l-0.7-0.2c0,0,0.1-0.1,0.1-0.1c-0.8,0.3-1.7,0.9-2.2,1.3l0,0.6c1.1-0.8,2.6-0.9,3.9,0.4c4.1,4.1,6.8,10.2,8.9,15.7
			c0.1,0.1,0.1,0.3,0.2,0.4c0.3-0.1,0.6-0.3,0.9-0.4c0-1.1,0.1-2.1,0.3-3.1l3,12.6c-2.9-0.5-5.9-0.9-8.9-1.2
			c-3.4-0.4-6.9-0.6-10.3-0.8c0.2-0.3,0.3-0.5,0.5-0.7c-0.3,0.1-1,0.2-1.4,0.2c-4.1-0.2-8.3,0.1-12.4-0.3c4.7-0.1,9.1-1.1,13.6-1.6
			c1.6-0.6,1.2-1.9,1.6-2.9c-2.3,0.6-4.8,1-7.3,1.4c-1.3-0.1-2.6,0.1-3.9,0.2c3.2-1,6.7-1.7,9.9-2.8c0.6-0.3,1.6-0.5,1.5-1.1
			c0-1.9-0.1-3.8-0.9-5.6c-1.3,0.3-2.6,0.6-3.9,0.9c-16,3.6-32.4,7-49.4,8.2c-0.3,0-0.8,0-1.1,0c0.5,1.5,0,3.2,1,4.6
			c2.6-0.1,5.3,0,7.9,0.1c-2.2,0.5-4.6,0.7-6.9,1c-1.8-0.1-1.1,1.1-0.7,1.7c3.7,0.6,7.5,0.5,11.2,0.7c0,0,0,0,0,0
			c-3.4,1-6.8,2.1-10.2,3.4c-7.6,3-15.9,2.9-23.6,0c-13.9-5.3-28.3-7.8-42.9-7.4c-9.1-0.2-18,0.6-26.7,1.9L414.8,159.8z
			 M418.7,143.5l0.4-1.8c0.9,1.2,2,2.4,3,3.6C420.9,144.9,419.8,144.3,418.7,143.5z M570.1,139.8c-0.4,0.3-0.9,0.5-1.3,0.7
			c0.4-0.5,0.7-1,1.1-1.5L570.1,139.8z M473.2,194.7c-4,1.5-8.5,1.3-12.4,0.3c-3.5-1-7.2-2.9-9.5-5.9c-0.8-0.8-1.1-2.5,0.1-3.1
			c1.4-0.3,2.7,0,4.2,0.2c5,1.2,10.3,2.6,15.4,3.9c1.4,0.4,3.3,0.7,4.2,2.2C475.5,193.6,474,194.1,473.2,194.7L473.2,194.7z
			 M474.1,184.3c-13.5-3.2-35.6-11.9-41.2,7.5c3.1-2.3,8.4-4.8,10.5-0.2c2.9,6.4,6,13.1,12.9,15.7c-1.6-2.2-3.9-4.1-4.7-6.8
			c2.5,2.1,4.5,5.3,7.7,6.3c-2.4-3.1-5.2-5.6-6.4-9.5c2.5,2.5,4.6,5.8,7.5,7.7c-1.3-2.2-2.8-4.2-3.8-6.6c8.1,5.3,12,1.5,20.1-0.4
			c-1.4,2.4-3.7,3.6-5.2,5.6c1.1-0.5,2.1-1.1,3.1-1.6c-1.6,2.5-3.4,5-5.6,7.2c-3.6,3.7-8.7,5.2-13.7,6.6c-12.5,3.3-25,3.7-37.6,0.4
			c-0.7-0.2-1.4-0.4-2.1-0.6c-0.3-1.9-0.6-3.8-0.7-5.7c0.2,0.3,0.4,0.6,0.6,1c0-0.2,0-0.3,0.1-0.5c1.4-6.3-1.2-13-2.4-19.2
			c-1-5-1.6-10-0.2-14.9c-0.1,0-0.2,0.1-0.3,0.1c0-1.8,0-3.1,0.4-4.6c-0.4-0.1-0.8-0.1-1.2-0.2l0.5-1.9c9.3-2.3,19-3,28.8-3.3
			c9.6,0.3,19.3,0.9,28.5,4.1c1.3,0.5,2.6,1,3.9,1.6c5,2.3,7.4,6.1,7.1,11.1c-0.1,0.8-0.1,1.5-0.2,2.3
			C478.3,185.3,476.1,184.9,474.1,184.3z M403.1,204c-2.8-7.2-4.4-14.5-4.2-22.2c0.2-5.9,2.4-8.8,8.5-10.7c0.3-0.1,0.6-0.2,0.9-0.3
			c0.1,0.7,0.2,1.4,0.3,2.1c-0.2,0-0.3,0-0.5-0.1c1.5,13.6,1.9,27.3,3.3,40.9C407.6,211.5,404.9,208.3,403.1,204z M494.9,467.2
			c-0.3-0.7-0.8-1.2-1.2-1.9c-0.2-0.4-0.8-0.8-1.3-0.9c0,0,0-0.1,0-0.1c3.2,1.2,6.2,2.2,9.3,3.2c1.3,0.3,2.6,0.8,4.1,1.1
			c-0.3,0.2-0.8,0.8-1.2,1.1c-0.8-0.2-1.6-0.6-2.3-0.8v0.3c-0.9-0.2-1.9-0.7-3-0.8c0.2-0.3,0.2-0.5,0.2-0.7v0
			C498,467.7,496.3,467.5,494.9,467.2z M499.6,392.8c-2.3-0.7-4.6-1.1-7.3-1.3c-2.1-0.2-4.3-0.4-6.5-0.4c0.8,0.8,1.2,1.9,1.2,3
			c-6.6-0.2-13.1-1.9-19.4-4c3.3-2.2,6.6-4.3,10-6.4c1.1,0.2,3.2,0.2,4.1,0.4c11.5-9.3,24.1-17.1,35.4-26.4h0.1
			c23.6-12.2,24,19.2,23.6,29.8c-3,1.3-5.7,2.2-8.7,3c-7.4,0.8-15,1.3-22.2,1.9C506.3,392.6,503.1,392.7,499.6,392.8z M460.4,335.4
			c1-0.5,2.1-0.9,3.1-1.3c-0.3-0.2-0.5-0.4-0.8-0.6c-0.1-0.1-0.2-0.1-0.3-0.2l1,0c2.5-2.7,6-4.4,9.8-5.2c0.5-0.4,1.1-0.8,1.7-1.1
			l2,1.1l27.7-9.2c1.9,0.1,3.8,0.4,5.8,0.8c5.9-0.8,11.7,1.3,15.1,7.1c2,3.3,2.4,7.8,1.5,11.9l5.9,0.5l-0.8,0.4
			c-2.3,2.6-5.1,5.3-8,7.3c-4.5,3-7.8,7.4-12.1,10.7c-8.7,6.4-17.6,12.9-26.4,18.9c-2.9,1.5-5.6,3-8.4,4.3c0,0-29.4-20.7-29.5-37.8
			C451.4,339.7,455.9,337.3,460.4,335.4z M524,351.3c-0.4,0.8-1.1,1.3-1.4,2.2c-0.2-0.1-0.7-0.1-0.9,0
			C522.4,352.8,523.2,352.1,524,351.3z M455.1,279.2c0-0.1,0-0.2,0-0.3c1.8,1,3.5,2,5.3,3L455.1,279.2z M435.5,490.1
			c-1.1,1.8-2.2,3.3-3.4,5.1c-0.2-3-0.4-5.7-0.8-8.6c0.2,0.2,0.8,0.2,1.3,0.4l0.4,5.3c0.9-1.8,2-3.2,2.9-4.6
			c0.2-0.2,0.4-0.2,0.7-0.3c1.1,1.9,1.9,4,3.2,5.9c7.1-5.6,12.6-13.3,22.7-12c11.9,0,23.7,0.2,35.6,1.1c0,5.7,0.4,11.4,0.6,17.1
			c-17.1,2.1-34.3,3.1-51.4,2.1c-0.9,0-1.8-0.1-2.7-0.2c1.4-3.9,4.7-7.1,7.6-10.1c-0.9-0.2-3-0.2-3.8-0.4c-2.5,3.1-5.2,6-7.7,9.1
			L435.5,490.1z M455.9,517.6c-0.3-0.1-0.6-0.2-0.9-0.2c-4.1-4.3-10.4-4.8-15.9-6.4c0-0.3,0-0.6,0-0.9
			C445,511.8,451.9,512.3,455.9,517.6z M500.9,536.9c-3.6,8-13,9.5-20.2,12.5c-8.8,4-17.7,7.7-26.8,10.3c-2.4,0.2-5.1,0.2-7.6,0
			v-0.2c-0.7,0.1-1.2,0.1-1.9,0.1c-0.2,0.3-0.7,0.7-1.1,0.2l-0.4-0.2c-0.7,0-1.3-0.1-1.9-0.1c-0.8,0-0.9-0.8-0.7-1.3
			c-0.6-0.2-1.1-0.3-1.9-0.6c-0.1,0.1-0.1,0.2-0.2,0.2c-2.3-0.7-4.5-1.2-7-1.9c-1.3,1-3.5,0.8-4.5-0.5c-2.9-0.6-5.9-1.2-8.6-2.2
			c-0.7-0.2-1.3-0.2-2-0.6v-0.4c-0.4-0.2-0.8-0.4-1.2-0.7c-0.3,0.1-0.5,0.1-0.8,0.1c-1.7,0.1-3.1-1.5-3.1-3.1c0-0.3,0-0.6,0.1-0.9
			c-0.5-0.7-0.9-1.6-1.1-2.5l-0.8,2.6c-0.2-1.5-0.2-3.1-0.2-4.6c0.3,0.1,0.7,0.2,1,0.4c13.9,7.5,29.1,14.5,45.3,11.5
			c7.7-1.4,15.3-4.2,22.5-7.1c7.3-2.9,14.3-6.5,20.7-11.1c0.9-0.7,1.8-0.7,2.6-0.4C501,536.5,500.9,536.7,500.9,536.9z M595.5,543.5
			c-0.3,0.2-0.8,0.4-1.3,0.8c-0.2-0.7-0.8-1.3-1.1-1.9c-0.9,0.4-1.9,1.1-2.8,1.5l-0.2,0.2c-0.2-0.5-0.4-1-0.5-1.5
			c-0.3,0.5-0.8,0.8-1.3,1.1c0.2,0.5,0.3,1,0.5,1.5c-0.8,0.4-1.5,0.8-2.2,1.1c0.1,0.2,0.2,0.4,0.2,0.8c-2.3,0.6-4.6,1.2-7.1,1.9
			c-0.2-0.2-0.2-0.3-0.2-0.7c-2.5,0.7-5.3,1.1-7.7,1.3c0.2,0.4,0.2,0.9,0.2,1.3l-0.7,0.2v-0.2c-0.1-0.4-0.2-0.7-0.3-1.1
			c-0.6,0.3-1.2,0.5-1.8,0.5c0.1,0.4,0.2,0.7,0.2,1.1v0.1c-1.8,0.4-3.3,0.8-5.1,1.2c-0.2-0.2-0.2-0.4-0.4-0.8l-1.8,0.8
			c-2.5,1.1-5.3,1.9-8.1,1.9c0.2,0.1,0.2,0.2,0.4,0.2c-4.3,0.4-8.8,0.2-12.5-2.2c-1.9-0.1-3.4-0.8-4.5-1.9c-1.3-0.4-2.5-0.9-4-1.5
			c-2.8-0.3-5.4-1.1-8.1-1.9c-7.7-1.3-14.2-6.1-20.7-10.4c-0.2-1-0.4-2.1-0.6-3.2c1-0.4,2.1-0.3,3,0.9c0.2,0.2,0.4,0.4,0.5,0.6
			c0.5-0.1,1.1,0,1.7,0.3c9,4.1,16.6,10.9,26.6,12.3c9,1.3,18.4,1.5,27.5,1.1c0.3,0,0.5,0,0.7,0c2.4-0.5,4.8-1.1,7.1-1.7
			c3.9-0.9,7.9-1.7,11.6-3.1c4.3-1.6,9-4.4,13.7-4.7C596.2,541,595.9,542.2,595.5,543.5z M575,503.9c7.4-0.3,14.2,4.8,17.7,11
			c2.1,6.5,4.2,13.4,4.1,20.3c-0.1-6.6-2.2-13.3-4.2-19.7c-3.6-6.3-10.5-11.6-18.1-11.3c-7.5,1.5-14.6,4.4-21.4,7.5
			c-0.1,0-0.2,0.1-0.3,0.1c0.4-0.2,0.8-0.4,1.3-0.7C560.7,508.2,567.6,505.3,575,503.9z M561.1,488.5c-0.2,0.5-0.5,0.8-0.6,0.9
			c-0.1-0.3-0.1-0.8-0.2-1.3C560.6,488.3,560.7,488.4,561.1,488.5z M563.8,493.3c1.1-2,2.2-4.1,3.5-6c0.2,4.5,0.2,9.3,0.2,14
			c-8,3.8-16.9,6.6-22.7,13.8c1.6-0.1,3-0.6,4.4-1.3c-1.7,1-3.5,1.8-5.6,1.9c5.9-7.4,15.1-10.2,23.2-14.1c0-2,0-4,0-6
			c-3.6,1.2-7.2,2.1-10.9,2.8L563.8,493.3z M556.8,484.2c0.8,1.6,1.8,3.2,2.3,4.5c-1.1,3.4-2.2,6.6-3.7,9.9c-0.2,0-0.3,0.1-0.5,0.1
			l-0.6,0.4c0-0.1,0.1-0.2,0.1-0.3c-1.1,0.2-2.2,0.4-3.2,0.6c-6.7,1.2-13.3,3-20.1,3.9c-9.4,1.3-18.9,1.2-28.4,1.5
			c-0.9,0-1.5-0.2-2-0.7c-0.3-10.8,0-21.7,0.3-32.4v0l0.8,0.2v0.2l-0.2,0.2c-0.9,0.9-0.8,2.3,0,3.3l0.1,0.1l-0.2,6.7
			c10.8,0.8,21.6,1.8,32.6,3C541.7,486.4,549.3,485.4,556.8,484.2z M574.7,220.3c-0.4,23.8-14.3,47.1-40.1,54.2
			c-1.2,0.6-2.6,1.4-4.1,2.3c-4.6,2.5-9.8,5.4-9.8,5.4c-0.8-1.8-1.7-3.6-2.7-5.4c0,0.1,0.1,0.1,0.1,0.2c4.2-4.3,9.1-8.1,11.8-13
			c1.6-2,3-4.1,4.2-6.3c3.6-6.6,5.1-14.1,2-23.8c-1.1-2.6-2.3-4.9-3.5-7.2c-1-1.7-1.8-3.9-2.9-5.7c-1.1-1.8-2.4-3.4-4.3-3.9
			c1,1.4,2.1,3.1,3.1,5.1c2.1,4,4,9,4.8,13.8c0.4,2.4,0.6,4.8,0.4,6.9c-0.4,2.5-0.8,5.6-2.8,7.6c1.3-0.9,2.5-2,3.7-3.1
			c-4.5,9.8-8.9,25.3-17.8,27.6c-0.5-0.9-1-1.8-1.4-2.8c0.6,4.5,1.5,8.9,2.1,13.4c0,0,0,0.1,0,0.1c-0.2,0.2-0.2,0.4-0.2,0.5l-2,6.1
			c-0.8,0.6-1.7,1.1-2.5,1.7c0,0.3,0,0.5,0,0.8c0,2.8-3.2,3.7-5,2.5c-0.5,0.3-0.9,0.6-1.4,0.9l-4.4-13.4l1.6,15.2
			c-2.3,1.4-4.6,2.8-6.9,4.2c-0.8,0.5-1.8,0.8-2.7,1.2l0,0.2c-0.4,0.1-1.2,0.4-1.7,0.5c-2.2-1.3-4.2-2.7-6.4-4c0,0,0,0,0,0
			c0-0.3,0-0.6-0.1-1c-0.3,0.1-0.6,0.2-0.9,0.2c-0.6-0.5-1.2-0.9-1.8-1.4l1.8-17.9l-3.6,16.6c-3-2.3-6-4.4-8.9-6.3
			c-0.6-2.3-0.1-4.8-0.5-7.1c-0.7,1.9-1.2,3.8-1.7,5.7c-0.6-0.4-1.3-0.8-1.9-1.1c-0.1-0.2-0.2-0.4-0.1-0.7c0-5.4,0.8-10.7,1.8-16
			c0,0,0-0.1,0-0.1c0,0,0,0,0,0c0.4-2.4,0.9-4.9,1.3-7.3c-0.2,0-0.6-0.1-0.9-0.2c-0.8,2.1-1.5,4.2-2.1,6.3c0,0-0.1-0.1-0.1-0.1
			c-4.5-4.1-7.5-9.2-9.2-15.1c-0.8-2-1.4-4.1-2.1-6.2c-0.6-2.1-1.2-4.2-1.7-6.2c1.3,0.9,2.5,2.2,3.7,3.6c-0.1-0.2-0.2-0.3-0.3-0.5
			c-1.3-2.3-2.3-5.1-2.7-8.1c-0.8-7.1,1.3-15.1,4.9-20.1c-3-1.1-5.9,1.9-6.6,5.9c0.7-1,1.5-2,2.2-3c-1.4,8-8,14-5.6,23.1l0.7-1
			c2.2,4,4.4,7.9,3.9,12.8c0.1-0.7,0.7-0.8,0.7-1.6c0.6,2.2,1.6,4.2,2.6,6.1c2.6,4.1,6,8.3,8.9,12.7c-0.6,2-1.1,4-1.8,6l0,0.8
			c-2-1.1-4-2.3-5.9-3.5c0.1-0.5,0.2-0.9,0.3-1.4c-1.3,0.4-3-0.1-4-1.1c0,0,0,0.1-0.1,0.1c-1.8-1-3.6-2-5.4-3
			c-2.9-0.8-5.6-1.8-7.9-3c-2.3-1.2-4.4-2.6-6.2-4.2c-6-5.1-10-11.1-12.8-17.7c-0.9-2.2-1.7-4.5-2.3-6.8c-1.8-7.3-4.1-14.3-5.6-21.4
			c1.5,0.5,3.1,0.9,4.7,1.3c12.6,2.5,25.2,1.1,37.5-1.4c9.5-1.9,16.9-8,20.2-16.7c0.3-0.8,0.6-1.5,0.9-2.2c0.6-0.2,1.2-0.5,1.8-0.7
			c0.1-0.1,0.3-0.2,0.5-0.2c1.9-4.1,2.7-8.4,2.8-12.8c0.1-0.4,0.3-0.9,0.4-1.3c1.2-3.6,2.9-5.1,7-5.4c1.2-0.1,2.5-0.1,3.7-0.1
			c6,0,7.8,1.6,9.4,6.9c0,0.1,0.1,0.2,0.1,0.4c0.1,4.2,1,8.4,2.8,12.3c0.2,0.1,0.3,0.1,0.5,0.2c0.3,0.1,0.6,0.2,0.8,0.3
			c0.5,1.3,1.1,2.6,1.8,3.9c4.3,8.3,10,12.2,20,15.2c7.6,2.3,14.8,3.2,22.8,3.2c6.2,0,13.1-0.9,18.8-2.7c0.7-0.2,1.5-0.5,2.2-0.8
			C574.9,218.9,574.8,219.6,574.7,220.3z M585.1,207.2c-1,1.8-2.2,3.3-3.7,4.5c0.1-1.8,0.2-3.6,0.4-5.5c0.2-2.1,0.3-4.1,0.4-6.2
			c0.1-2.1,0.1-4.2,0.1-6.3c0.3-1.9,0.5-3.8,0.7-5.7c0.7-5.7,0.9-11.5-0.3-16.9c6.2,2,8.4,4.9,8.3,11.3
			C590.9,191,589.4,199.4,585.1,207.2z"/>
	</g>
</g>
<g>
	<path d="M41,195.7v-38.5h24.1v8.1H50.5v7h11.7v8.1H50.5v7.3h15.4v8.1H41z"/>
	<path d="M69,190.9l5-7.2c1.2,1.1,2.7,2,4.4,2.8c1.7,0.8,3.3,1.2,4.9,1.2c1.3,0,2.2-0.3,2.9-0.8c0.7-0.5,1-1.1,1-1.9
		c0-0.8-0.4-1.6-1.3-2.3c-0.8-0.7-1.9-1.3-3.1-1.7c-1.3-0.5-2.6-1.1-4.1-1.8c-1.5-0.7-2.8-1.5-4.1-2.3c-1.3-0.8-2.3-2-3.1-3.4
		c-0.8-1.5-1.3-3.1-1.3-5c0-3.5,1.3-6.4,3.9-8.5c2.6-2.2,5.9-3.3,10-3.3c4.8,0,8.8,1.5,12.1,4.4l-4,7.7c-1.1-1-2.4-1.8-4-2.4
		c-1.5-0.6-3.1-1-4.5-1c-1.4,0-2.4,0.3-3.1,0.8c-0.7,0.5-1,1.2-1,2c0,0.8,0.4,1.6,1.3,2.3c0.8,0.7,1.9,1.2,3.1,1.7
		c1.3,0.4,2.6,1,4.1,1.7c1.5,0.7,2.8,1.5,4.1,2.3c1.3,0.8,2.3,1.9,3.1,3.4c0.8,1.5,1.3,3.1,1.3,5c0,3.4-1.2,6.3-3.6,8.6
		c-2.4,2.3-5.8,3.4-10,3.4c-2.6,0-5.1-0.5-7.6-1.4C72.9,194,70.8,192.7,69,190.9z"/>
	<path d="M110.9,195.7v-30.4H99.2v-8.1H132v8.1h-11.7v30.4H110.9z"/>
	<path d="M136.7,195.7v-38.5h13.4c3.4,0,5.9,0.3,7.5,0.9c2.2,0.9,4,2.3,5.2,4.2c1.3,1.9,1.9,4.3,1.9,7c0,2.2-0.5,4.2-1.5,6.2
		c-1,2-2.4,3.4-4.3,4.3v0.1c0.4,0.5,0.8,1.2,1.5,2.3l7.5,13.5h-10.5l-6.8-13h-4.4v13H136.7z M146.1,174.7h4.1c1.5,0,2.7-0.4,3.6-1.2
		c0.9-0.8,1.3-2,1.3-3.5c0-2.1-0.8-3.5-2.3-4.1c-0.8-0.4-2-0.5-3.6-0.5h-3.2V174.7z"/>
	<path d="M167.9,195.7l13.1-38.5h9.9l13.1,38.5h-9.7l-2.4-8.1h-12l-2.3,8.1H167.9z M182.1,180.1h7.6l-2.2-7.5L186,166h-0.1
		c-0.6,2.8-1.1,5-1.6,6.6L182.1,180.1z"/>
	<path d="M213.1,195.7v-30.4h-11.7v-8.1h32.8v8.1h-11.7v30.4H213.1z"/>
	<path d="M238.9,195.7v-38.5H263v8.1h-14.7v7H260v8.1h-11.7v7.3h15.4v8.1H238.9z"/>
	<path d="M267,176.4c0-5.6,1.9-10.3,5.7-14.1c3.8-3.8,8.6-5.7,14.5-5.7c6,0,10.9,1.7,14.8,5.1l-4.5,7.1c-1.1-1-2.5-1.8-4.3-2.5
		c-1.8-0.7-3.4-1-5.1-1c-3.8,0-6.6,1-8.5,3.1c-1.9,2.1-2.8,4.7-2.8,7.8c0,3.6,1.1,6.4,3.2,8.5c2.1,2.1,4.7,3.2,7.8,3.2
		c2.8,0,5.4-0.9,7.8-2.8v-3h-5.4v-8h13.8v21.7h-7.9v-1.1l0.1-1.6H296c-1.1,1-2.6,1.8-4.5,2.4c-1.8,0.6-3.7,0.9-5.6,0.9
		c-5.2,0-9.6-1.8-13.3-5.4C268.9,187.3,267,182.5,267,176.4z"/>
	<path d="M310.7,195.7v-38.5h9.4v38.5H310.7z"/>
	<path d="M324,195.7l13.1-38.5h9.9l13.1,38.5h-9.7l-2.4-8.1h-12l-2.3,8.1H324z M338.2,180.1h7.6l-2.2-7.5l-1.6-6.6h-0.1
		c-0.6,2.8-1.1,5-1.6,6.6L338.2,180.1z"/>
</g>
<g>
	<path d="M46.7,239.7c0-2.3,0.8-4.2,2.3-5.7c1.5-1.5,3.4-2.3,5.8-2.3c2.4,0,4.3,0.7,5.8,2.1l-1.4,2.1c-0.6-0.5-1.2-0.9-2-1.2
		c-0.8-0.3-1.5-0.5-2.3-0.5c-1.6,0-2.9,0.5-3.9,1.5c-0.9,1-1.4,2.3-1.4,3.8c0,1.5,0.5,2.9,1.4,3.9c0.9,1.1,2.2,1.6,3.8,1.6
		c1.7,0,3.2-0.7,4.5-2l1.5,2c-1.7,1.7-3.7,2.5-6.1,2.5c-2.4,0-4.4-0.8-5.9-2.3S46.7,242,46.7,239.7z"/>
	<path d="M62,239.7c0-2.3,0.8-4.2,2.3-5.7c1.5-1.5,3.5-2.3,5.8-2.3s4.3,0.8,5.8,2.3c1.5,1.5,2.3,3.4,2.3,5.7c0,2.3-0.8,4.3-2.3,5.8
		s-3.5,2.4-5.8,2.4s-4.3-0.8-5.8-2.4S62,242,62,239.7z M65,239.7c0,1.6,0.5,2.9,1.5,4c1,1.1,2.2,1.6,3.7,1.6s2.7-0.5,3.7-1.6
		c1-1.1,1.5-2.4,1.5-4c0-1.5-0.5-2.8-1.5-3.8c-1-1-2.2-1.5-3.7-1.5s-2.7,0.5-3.7,1.5C65.5,236.9,65,238.1,65,239.7z"/>
	<path d="M81.1,247.6V232h2.8l5.9,9c0.2,0.3,0.4,0.6,0.6,1c0.2,0.4,0.4,0.7,0.5,1l0.2,0.4h0c-0.1-1-0.2-1.8-0.2-2.4v-9h2.8v15.6H91
		l-5.9-9c-0.2-0.3-0.4-0.6-0.6-1c-0.2-0.4-0.4-0.7-0.5-1l-0.2-0.4h0c0.1,1,0.2,1.8,0.2,2.4v9H81.1z"/>
	<path d="M96.5,245.7l1.5-2.1c0.5,0.5,1.1,0.8,1.8,1.2c0.7,0.3,1.4,0.5,2.1,0.5c0.7,0,1.3-0.2,1.7-0.5s0.6-0.8,0.6-1.3
		c0-0.5-0.3-1-0.7-1.4c-0.5-0.4-1.1-0.7-1.8-1c-0.7-0.3-1.4-0.6-2.1-1c-0.7-0.4-1.3-0.9-1.8-1.5c-0.5-0.6-0.7-1.4-0.7-2.3
		c0-1.3,0.5-2.4,1.5-3.3s2.3-1.3,3.8-1.3c1.8,0,3.4,0.6,4.6,1.7l-1.3,2.3c-0.4-0.4-1-0.7-1.6-1c-0.6-0.3-1.2-0.4-1.8-0.4
		c-0.7,0-1.3,0.2-1.7,0.5c-0.4,0.3-0.6,0.8-0.6,1.3c0,0.5,0.2,1,0.7,1.4c0.5,0.4,1.1,0.7,1.8,1c0.7,0.3,1.4,0.6,2.1,0.9
		s1.3,0.8,1.8,1.5c0.5,0.6,0.7,1.4,0.7,2.4c0,1.3-0.5,2.4-1.4,3.3c-0.9,0.9-2.2,1.3-3.8,1.3c-1,0-2-0.2-2.9-0.6
		C98,246.9,97.2,246.4,96.5,245.7z"/>
	<path d="M109.9,247.6V232h2.8v15.6H109.9z"/>
	<path d="M115.6,239.7c0-2.3,0.8-4.2,2.3-5.7c1.5-1.5,3.5-2.3,5.8-2.3c2.3,0,4.3,0.7,5.8,2l-1.4,2.1c-0.5-0.4-1.1-0.8-1.9-1.1
		c-0.8-0.3-1.5-0.4-2.3-0.4c-1.7,0-3,0.5-3.9,1.5c-0.9,1-1.4,2.3-1.4,3.8c0,1.7,0.5,3,1.5,4c1,1,2.2,1.6,3.7,1.6
		c1.5,0,2.8-0.5,3.9-1.6v-1.8h-2.4v-2.4h5v8.2h-2.4v-0.7l0-0.7h0c-0.5,0.5-1.2,0.9-2,1.2c-0.8,0.3-1.7,0.5-2.5,0.5
		c-2.1,0-3.9-0.8-5.4-2.3C116.3,244.1,115.6,242.1,115.6,239.7z"/>
	<path d="M133.2,242v-10h2.8v10c0,1,0.3,1.9,0.9,2.4c0.6,0.6,1.5,0.9,2.5,0.9c1.1,0,1.9-0.3,2.5-0.9c0.6-0.6,0.9-1.4,0.9-2.4v-10
		h2.8v10c0,1.7-0.6,3.2-1.7,4.2c-1.2,1.1-2.7,1.6-4.5,1.6c-1.9,0-3.4-0.5-4.6-1.6C133.8,245.1,133.2,243.7,133.2,242z"/>
	<path d="M149.4,247.6V232h9.4v2.4h-6.5v4.1h5.3v2.4h-5.3v4.2h6.9v2.4H149.4z"/>
	<path d="M167.4,247.6V232h9.4v2.4h-6.5v4.1h5.3v2.4h-5.3v4.2h6.9v2.4H167.4z"/>
	<path d="M179.9,247.6V232h2.8v13.2h6.8v2.4H179.9z"/>
	<path d="M195.6,239.7c0-2.3,0.8-4.2,2.3-5.7c1.5-1.5,3.5-2.3,5.8-2.3s4.3,0.8,5.8,2.3c1.5,1.5,2.3,3.4,2.3,5.7
		c0,2.3-0.8,4.3-2.3,5.8s-3.5,2.4-5.8,2.4s-4.3-0.8-5.8-2.4S195.6,242,195.6,239.7z M198.5,239.7c0,1.6,0.5,2.9,1.5,4
		c1,1.1,2.2,1.6,3.7,1.6s2.7-0.5,3.7-1.6c1-1.1,1.5-2.4,1.5-4c0-1.5-0.5-2.8-1.5-3.8c-1-1-2.2-1.5-3.7-1.5s-2.7,0.5-3.7,1.5
		C199,236.9,198.5,238.1,198.5,239.7z"/>
	<path d="M214.6,247.6V232h5.6c1.5,0,2.6,0.4,3.5,1.1c0.9,0.7,1.3,1.7,1.3,3c0,0.7-0.2,1.4-0.5,2s-0.8,1-1.4,1.4v0
		c0.8,0.2,1.4,0.7,1.9,1.4c0.4,0.7,0.6,1.5,0.6,2.3c0,1.5-0.5,2.6-1.5,3.4c-1,0.8-2.3,1.2-3.9,1.2H214.6z M217.4,238.3h2.8
		c0.6,0,1.1-0.2,1.4-0.6s0.5-0.9,0.5-1.4c0-0.6-0.2-1-0.5-1.4c-0.3-0.4-0.8-0.5-1.5-0.5h-2.7V238.3z M217.4,245.1h3
		c0.7,0,1.3-0.2,1.7-0.6s0.6-1,0.6-1.6c0-0.7-0.2-1.2-0.6-1.6s-1-0.6-1.7-0.6h-3V245.1z"/>
	<path d="M227.2,243v-0.9h2.8v0.7c0,0.7,0.2,1.3,0.5,1.8c0.3,0.5,0.9,0.7,1.5,0.7c0.6,0,1.1-0.2,1.5-0.6s0.6-1,0.6-1.8v-8.5h-4V232
		h6.9v11c0,1.6-0.5,2.8-1.4,3.6c-1,0.8-2.1,1.2-3.4,1.2c-1.3,0-2.5-0.4-3.4-1.3C227.6,245.7,227.2,244.5,227.2,243z"/>
	<path d="M240.5,247.6V232h9.4v2.4h-6.5v4.1h5.3v2.4h-5.3v4.2h6.9v2.4H240.5z"/>
	<path d="M256.6,247.6v-13.2h-5.1V232h13.1v2.4h-5.1v13.2H256.6z"/>
	<path d="M266.7,247.6V232h2.8v15.6H266.7z"/>
	<path d="M277.2,247.6l-5.6-15.6h3.1l3.4,10.2l0.6,2.3h0c0.2-0.9,0.4-1.7,0.6-2.3l3.5-10.2h3l-5.6,15.6H277.2z"/>
	<path d="M286.5,239.7c0-2.3,0.8-4.2,2.3-5.7c1.5-1.5,3.5-2.3,5.8-2.3s4.3,0.8,5.8,2.3c1.5,1.5,2.3,3.4,2.3,5.7
		c0,2.3-0.8,4.3-2.3,5.8s-3.5,2.4-5.8,2.4s-4.3-0.8-5.8-2.4S286.5,242,286.5,239.7z M289.4,239.7c0,1.6,0.5,2.9,1.5,4
		c1,1.1,2.2,1.6,3.7,1.6s2.7-0.5,3.7-1.6c1-1.1,1.5-2.4,1.5-4c0-1.5-0.5-2.8-1.5-3.8c-1-1-2.2-1.5-3.7-1.5s-2.7,0.5-3.7,1.5
		C289.9,236.9,289.4,238.1,289.4,239.7z"/>
	<path d="M310.1,239.7c0-2.3,0.8-4.2,2.3-5.7s3.5-2.3,5.8-2.3c2.3,0,4.3,0.8,5.8,2.3c1.5,1.5,2.3,3.4,2.3,5.7c0,1.8-0.6,3.5-1.7,4.9
		l1.8,1.6l-1.6,1.8l-1.7-1.7c-1.4,1-3,1.5-4.8,1.5c-2.3,0-4.3-0.8-5.8-2.4S310.1,242,310.1,239.7z M313,239.7c0,1.6,0.5,2.9,1.5,4
		c1,1.1,2.2,1.6,3.7,1.6c1.1,0,2-0.3,2.7-0.8l-1.7-1.6l1.6-1.8l1.7,1.7c0.6-0.9,0.9-1.9,0.9-3c0-1.5-0.5-2.8-1.5-3.9
		c-1-1-2.2-1.5-3.7-1.5c-1.5,0-2.7,0.5-3.7,1.5C313.5,236.9,313,238.1,313,239.7z"/>
	<path d="M328.9,242v-10h2.8v10c0,1,0.3,1.9,0.9,2.4c0.6,0.6,1.5,0.9,2.5,0.9c1.1,0,1.9-0.3,2.5-0.9c0.6-0.6,0.9-1.4,0.9-2.4v-10
		h2.8v10c0,1.7-0.6,3.2-1.7,4.2c-1.2,1.1-2.7,1.6-4.5,1.6c-1.9,0-3.4-0.5-4.6-1.6C329.5,245.1,328.9,243.7,328.9,242z"/>
	<path d="M345.1,247.6V232h9.4v2.4h-6.5v4.1h5.3v2.4h-5.3v4.2h6.9v2.4H345.1z"/>
	<path d="M46.7,266.1c0-2.3,0.8-4.2,2.3-5.7s3.5-2.3,5.8-2.3c2.3,0,4.3,0.8,5.8,2.3c1.5,1.5,2.3,3.4,2.3,5.7c0,1.8-0.6,3.5-1.7,4.9
		l1.8,1.6l-1.6,1.8l-1.7-1.7c-1.4,1-3,1.5-4.8,1.5c-2.3,0-4.3-0.8-5.8-2.4S46.7,268.4,46.7,266.1z M49.6,266.1c0,1.6,0.5,2.9,1.5,4
		c1,1.1,2.2,1.6,3.7,1.6c1.1,0,2-0.3,2.7-0.8l-1.7-1.6l1.6-1.8l1.7,1.7c0.6-0.9,0.9-1.9,0.9-3c0-1.5-0.5-2.8-1.5-3.9
		c-1-1-2.2-1.5-3.7-1.5c-1.5,0-2.7,0.5-3.7,1.5C50.1,263.3,49.6,264.5,49.6,266.1z"/>
	<path d="M65.5,268.4v-10h2.8v10c0,1,0.3,1.9,0.9,2.4c0.6,0.6,1.5,0.9,2.5,0.9c1.1,0,1.9-0.3,2.5-0.9c0.6-0.6,0.9-1.4,0.9-2.4v-10
		h2.8v10c0,1.7-0.6,3.2-1.7,4.2c-1.2,1.1-2.7,1.6-4.5,1.6c-1.9,0-3.4-0.5-4.6-1.6C66.1,271.5,65.5,270.1,65.5,268.4z"/>
	<path d="M81.7,274v-15.6h2.8V274H81.7z"/>
	<path d="M88.3,274v-15.6h9.4v2.4h-6.5v4.1h5.3v2.4h-5.3v4.2H98v2.4H88.3z"/>
	<path d="M100.8,274v-15.6h5.1c1.3,0,2.3,0.1,2.9,0.4c0.8,0.3,1.5,0.9,1.9,1.6c0.5,0.7,0.7,1.6,0.7,2.7c0,1-0.2,1.8-0.7,2.6
		c-0.5,0.8-1.1,1.3-1.9,1.7v0c0.1,0.2,0.3,0.4,0.5,0.8l3.2,5.8h-3.2l-3.1-5.8h-2.7v5.8H100.8z M103.7,265.7h2.6
		c0.8,0,1.4-0.2,1.8-0.7s0.7-1.1,0.7-1.8c0-1.1-0.4-1.8-1.2-2.1c-0.4-0.2-1-0.3-1.7-0.3h-2.1V265.7z"/>
	<path d="M114.9,274v-15.6h9.4v2.4h-6.5v4.1h5.3v2.4h-5.3v4.2h6.9v2.4H114.9z"/>
	<path d="M126.3,272.1l1.5-2.1c0.5,0.5,1.1,0.8,1.8,1.2c0.7,0.3,1.4,0.5,2.1,0.5c0.7,0,1.3-0.2,1.7-0.5s0.6-0.8,0.6-1.3
		c0-0.5-0.3-1-0.7-1.4c-0.5-0.4-1.1-0.7-1.8-1c-0.7-0.3-1.4-0.6-2.1-1c-0.7-0.4-1.3-0.9-1.8-1.5c-0.5-0.6-0.7-1.4-0.7-2.3
		c0-1.3,0.5-2.4,1.5-3.3s2.3-1.3,3.8-1.3c1.8,0,3.4,0.6,4.6,1.7l-1.3,2.3c-0.4-0.4-1-0.7-1.6-1c-0.6-0.3-1.2-0.4-1.8-0.4
		c-0.7,0-1.3,0.2-1.7,0.5c-0.4,0.3-0.6,0.8-0.6,1.3c0,0.5,0.2,1,0.7,1.4c0.5,0.4,1.1,0.7,1.8,1c0.7,0.3,1.4,0.6,2.1,0.9
		s1.3,0.8,1.8,1.5c0.5,0.6,0.7,1.4,0.7,2.4c0,1.3-0.5,2.4-1.4,3.3c-0.9,0.9-2.2,1.3-3.8,1.3c-1,0-2-0.2-2.9-0.6
		C127.8,273.3,127,272.8,126.3,272.1z"/>
	<path d="M142.8,274l5.5-15.6h3l5.5,15.6h-2.9l-1.3-4H147l-1.3,4H142.8z M147.7,267.7h4.1l-1.4-4.2l-0.6-2.4h0
		c-0.2,1-0.4,1.8-0.6,2.4L147.7,267.7z"/>
	<path d="M158.8,274v-15.6h2.8v13.2h6.8v2.4H158.8z"/>
	<path d="M169.2,266.1c0-2.3,0.8-4.2,2.3-5.7c1.5-1.5,3.4-2.3,5.8-2.3c2.4,0,4.3,0.7,5.8,2.1l-1.4,2.1c-0.6-0.5-1.2-0.9-2-1.2
		c-0.8-0.3-1.5-0.5-2.3-0.5c-1.6,0-2.9,0.5-3.9,1.5c-0.9,1-1.4,2.3-1.4,3.8c0,1.5,0.5,2.9,1.4,3.9c0.9,1.1,2.2,1.6,3.8,1.6
		c1.7,0,3.2-0.7,4.5-2l1.5,2c-1.7,1.7-3.7,2.5-6.1,2.5c-2.4,0-4.4-0.8-5.9-2.3S169.2,268.4,169.2,266.1z"/>
	<path d="M184.1,274l5.5-15.6h3l5.5,15.6h-2.9l-1.3-4h-5.5l-1.3,4H184.1z M189,267.7h4.1l-1.4-4.2l-0.6-2.4h0
		c-0.2,1-0.4,1.8-0.6,2.4L189,267.7z"/>
	<path d="M200.1,274v-15.6h2.8l5.9,9c0.2,0.3,0.4,0.6,0.6,1c0.2,0.4,0.4,0.7,0.5,1l0.2,0.4h0c-0.1-1-0.2-1.8-0.2-2.4v-9h2.8V274
		h-2.8l-5.9-9c-0.2-0.3-0.4-0.6-0.6-1c-0.2-0.4-0.4-0.7-0.5-1l-0.2-0.4h0c0.1,1,0.2,1.8,0.2,2.4v9H200.1z"/>
	<path d="M216.7,274v-15.6h2.8l5.9,9c0.2,0.3,0.4,0.6,0.6,1c0.2,0.4,0.4,0.7,0.5,1l0.2,0.4h0c-0.1-1-0.2-1.8-0.2-2.4v-9h2.8V274
		h-2.8l-5.9-9c-0.2-0.3-0.4-0.6-0.6-1c-0.2-0.4-0.4-0.7-0.5-1l-0.2-0.4h0c0.1,1,0.2,1.8,0.2,2.4v9H216.7z"/>
	<path d="M232.2,274v-1.8l6.9-9.9c0.2-0.3,0.4-0.5,0.5-0.7c0.2-0.2,0.3-0.4,0.4-0.5l0.2-0.2v0c-0.3,0-0.7,0-1.2,0h-6.6v-2.4h11.3
		v1.8l-6.9,10c-0.2,0.3-0.4,0.5-0.5,0.7c-0.2,0.2-0.3,0.4-0.4,0.5l-0.2,0.2v0c0.3,0,0.7,0,1.2,0h7v2.4H232.2z"/>
	<path d="M245,274l5.5-15.6h3l5.5,15.6H256l-1.3-4h-5.5l-1.3,4H245z M249.9,267.7h4.1l-1.4-4.2l-0.6-2.4h0c-0.2,1-0.4,1.8-0.6,2.4
		L249.9,267.7z"/>
	<path d="M261,274v-15.6h5.1c1.3,0,2.3,0.1,2.9,0.4c0.8,0.3,1.5,0.9,1.9,1.6c0.5,0.7,0.7,1.6,0.7,2.7c0,1-0.2,1.8-0.7,2.6
		c-0.5,0.8-1.1,1.3-1.9,1.7v0c0.1,0.2,0.3,0.4,0.5,0.8l3.2,5.8h-3.2l-3.1-5.8h-2.7v5.8H261z M263.8,265.7h2.6c0.8,0,1.4-0.2,1.8-0.7
		s0.7-1.1,0.7-1.8c0-1.1-0.4-1.8-1.2-2.1c-0.4-0.2-1-0.3-1.7-0.3h-2.1V265.7z"/>
</g>
<path d="M341.7,210.9H55.3c-6.7,0-6.7,1.6,0,1.6h286.4C348.4,212.5,348.4,210.9,341.7,210.9z"/>
</svg>
