<?xml version="1.0" encoding="utf-8"?>
<!-- Generator: Adobe Illustrator 25.3.1, SVG Export Plug-In . SVG Version: 6.00 Build 0)  -->
<svg version="1.1" id="Capa_1" xmlns="http://www.w3.org/2000/svg" xmlns:xlink="http://www.w3.org/1999/xlink" x="0px" y="0px"
	 width="800px" height="600px" viewBox="0 0 800 600" style="enable-background:new 0 0 800 600;" xml:space="preserve">
<style type="text/css">
	.st0{fill:#020203;}
	.st1{fill:#CDCCCC;}
	.st2{fill:#FFFFFF;}
</style>
<path class="st0" d="M361,325.9c-1.4-0.8-3.2,1.6-2,2.7C360.5,329.3,362.3,327,361,325.9z M354.3,329.5c1.4,0.7,2.6-1.7,1.7-2.8
	C354.3,325.4,352.8,328.7,354.3,329.5z M348,329.6c-1.7-0.7-2.1,0.2-1.7,1.6C347.7,331.8,348.7,331.2,348,329.6z M382,333.1
	c-0.1,1.9-0.6,3.6-1.8,5.2c-2-1.1-3.3-2.5-4-4.4l-2-1.2c0.9,2.9,2,6.7,5.3,7.9c3.3,0.1,3.7-3.9,4.1-6.2c-0.3-0.2-0.5-0.3-0.8-0.6
	C382.6,333.4,382.3,333.2,382,333.1L382,333.1z M373.4,337.4l-0.6-0.4c0.8,3.3,3.9,5.9,7.6,6.3C378.5,341.1,376,339.2,373.4,337.4z
	 M342.9,342c0.3,0.6,0.6,1.3,0.9,2c0.8-0.3,2-0.8,3.1-1.2l-2.9-1.6c0.6-1.3,1.3-2.8,1.9-4.1c-1.4,1.3-2.5,3.1-4.2,4
	c-0.6-0.9-1.4-2-2-3.3C338.3,340.4,340.2,342.9,342.9,342z M395.5,345.1c-0.5,2.1,0.7,4.1,3.6,5.3l0.5,0.3
	C398.7,348.6,398,345.7,395.5,345.1L395.5,345.1z M392.6,349.7c0.8,1.1,1.6,2.1,2.6,3.3l0.2,0.1c0.6-0.4,1.4-0.8,2-1.3
	c-0.9-1.1-2-2.1-2.9-3.3C394,348.9,393.2,349.4,392.6,349.7L392.6,349.7z M333.7,356c1.6,1.1,3.3-1.7,2-2.9
	C334.2,352,332.4,354.7,333.7,356z M407.1,363c-1.6-4-4.4-7-6.8-9.3c0,3.7,2.1,8.2,6.3,9.3H407.1z M334.6,359.6v0.2
	c1.4,0.3,3.9-1.1,3.7-2.8C336.9,356,334.4,358.1,334.6,359.6L334.6,359.6z M373.8,357.6c-0.8,0.8-2,1.6-2.8,2.4
	c-3.3,0.3-6.8-0.2-10-0.7c1.4,2.4,3.9,3.3,6.5,3.2c2.5,0,4.8-0.7,6.7-1.3C374,360.2,374,358.7,373.8,357.6L373.8,357.6z
	 M397.5,358.4c0.2,3.7,3.1,7.2,6.5,8.2c-0.8-3.1-2.8-5.6-6-7.9L397.5,358.4L397.5,358.4z M224.1,360.8c-1.2-0.3-2.5-0.7-3.9-1.1
	c-0.5,2,1.2,2.5,2.6,3.1C223.2,362.1,223.8,361.4,224.1,360.8L224.1,360.8z M358.4,360.7c-3.1,1.6-6.2,0.3-9.3,0
	c1.8,2.1,4.2,3.3,6.9,3.3c0.8,0,1.9-0.2,2.6-0.4C358.6,362.7,358.6,361.5,358.4,360.7z M340.9,361.6c0.6,1.3,1.8,2.3,3.3,2.6
	c2,0.3,4.1-0.3,5.6-1.7l-2-1.6C345.7,362.4,343.2,361.9,340.9,361.6z M394,363.5h-0.3c1.1,3.1,3.9,5.3,7,5.7
	C399.2,366.4,397,363.2,394,363.5z M359.1,367c2.4-0.3,5.9,0.6,5.9-2.9c-2,0.3-4,0.5-5.9,0.7V367L359.1,367z M365.3,367.6
	c2.8,2,7.2,1.1,7.5-2.7c-2,1.4-4.4,2.4-6.8,2.6L365.3,367.6z M353.4,365.4c-2.5,0.7-4.8,0.9-7.4,0.8c1.2,3.1,4.5,3.1,7.5,2
	L353.4,365.4z M336.5,366.5l0.1-0.3c-2.5-0.6-3.3,2-4,4C334.5,369.7,335.8,368.4,336.5,366.5z M352.5,370.9l-0.6,0.4
	c2.7-0.1,6.9,1.3,7.7-2.4C356.8,369.1,354.3,369.7,352.5,370.9z M334.3,373.7l-0.2,0.5c2.4-1.4,4.1-3.3,4.9-5.9
	C336.8,369.4,334.9,371.4,334.3,373.7L334.3,373.7z M323,369.2l0.1-0.3c-2,0.3-3.6,1.4-4.6,3.3C320.7,372.1,322.8,371,323,369.2z
	 M320,376.6c2-0.9,4.1-1.8,5.1-3.9c-1.8,0.4-3.5,0.9-5.1,1.4V376.6z M310,373.2l-0.2-1.2l-0.3,0.6c-1.1,2-0.3,5.9-3.1,6.4
	c-2.5-0.9-1.3-4.6-2-6.7c-1.2,1.4-1.9,3.7-1.4,5.5c0.3,1.9,2.3,3.9,4.2,3.3c1.2-0.4,2-2,2.5-3.3C310.4,376.6,310.4,374.8,310,373.2
	L310,373.2z M294.9,383.3c-0.9,3.6-4.6,6.2-8.7,5.9c-2.5-1.3-3.3-4-3.7-5.5c2.9-0.3,6-0.4,8.3-2.6c0.1-3.7-4.8-3.1-7.4-2.5
	c0.8-0.9,1.9-1.6,3.1-2c-0.5-0.3-1.1-0.8-1.8-1.1c0.7-1.1,2.5-1.3,3.3-2l0.6-0.4c-1.9,0.2-3.7,0.3-5.5,0.5v3.7l-0.7-0.3
	c-0.6,4.3-2,9.2,0.3,13.1c3.7,2.4,9.2,0.1,11.5-1.8c1.1,0.7,2.3,1.3,3.3,2c-0.9-2-2-4-2.7-5.9L294.9,383.3L294.9,383.3z
	 M334.6,378.2l-0.4,0.6c3.1-0.7,5.6-2.9,7.2-5.9C338.8,373.9,336.5,375.6,334.6,378.2L334.6,378.2z M276.8,376.2
	c-0.9,1.9-2,3.7-4.2,3.7c-0.3-2-0.7-4.2-1.1-6.2c-0.7,2-0.6,4.3-0.4,6.4c0.8,0.9,1.9,2,2.7,2.9c3.7-1.8,4-5.7,4-8.4
	C277.4,375.1,277.2,375.7,276.8,376.2z M364.5,379.1l-0.2,0.3c2.5,1.2,4.5-0.9,5.2-3.5C367.6,376.3,366,377.2,364.5,379.1z
	 M318.8,379.5c2.4,0.3,4.6,0.3,6.5-1.7l0.3-0.3C323,377,320.4,377.7,318.8,379.5z M309.8,382.9c2.3-0.3,5.7-3.1,3.7-5.5
	C312.1,379.2,311.1,381,309.8,382.9z M255.5,446.1c-2.9-1.2-1.9,3.7,0.1,3.6c0.6,0,1.1-0.5,1.1-1.1
	C256.9,447.6,256.2,446.4,255.5,446.1L255.5,446.1z M247.3,448.6c0.6,0,1.1-0.5,1.1-1.1c0.2-0.8-0.5-2-1.2-2.5
	C244.4,443.8,245.4,448.8,247.3,448.6L247.3,448.6z M386.4,385l-0.4,0.6c2.8,1.2,4-1.6,5.1-3.6C388.9,381.6,387.5,383.5,386.4,385z
	 M408.7,384.1c-1.7,0.6-2.4,2.1-2.9,3.7C407.8,387.7,409.6,386.1,408.7,384.1z M396.5,388.4c1.6,0.2,2.5-2.3,1.4-3.3
	C396,383.4,394.3,387.7,396.5,388.4z M307.5,426.1c0.4,1.7,4.3,1.4,3.5-0.8C310.2,424.1,307.3,424.2,307.5,426.1z M375.4,446.1
	c-0.5-0.6-1.1-1.1-1.6-1.8c0.4-0.7,0.9-1.4,1.4-2c-4.3,0.3-8.2,0.3-11.8,0.2c0.3,2.1-0.1,4.6,1.2,6.5c1.2,0,2.4-0.5,3.5-0.8
	c0.5,0.3,1.4,0.9,2,1.3l2.5-2.4c1.7,1.1,3.7,0.8,5.3-0.8c0.6,0.2,1.4,0.3,2,0.5c-0.4-0.4-1.1-0.8-1.3-1.4c2.1,1.4,7.1,4.1,11.4,1.6
	c2.3-4.1,0.8-8.7,0.3-13.1l-0.7,0.3v-3.7c-1.9-0.2-3.6-0.4-5.5-0.5l0.6,0.4c0.9,0.8,2.7,1.1,3.3,2c-0.6,0.4-1.2,0.8-1.8,1.1
	c1.1,0.4,2.1,1.1,3.1,2c-2.5-0.4-7.5-1.2-7.4,2.5c2.1,2.1,5.3,2.4,8.3,2.6c-0.3,1.7-1.2,4.3-3.7,5.5c-3.1,0.1-5.9-1.1-7.5-3.3v-0.5
	c-0.2-0.6-0.2-1.1-0.1-1.8c-0.3,0.1-0.6,0.1-0.9,0.2l-0.3-0.7l-0.2,0.8c-1.1,0.2-2,0.3-3.1,0.4c0.7,0.4,1.4,1.1,2.3,1.6
	C376.5,444,376.1,445.1,375.4,446.1L375.4,446.1z M364.4,438.3c2.5-1.5,4-4.6,3.7-7.8c-1.3,1.6-2.4,3.3-3.7,4.8
	c-1.8,0.2-2.5-1.8-3.6-2.9C360.4,434.7,361.6,436.7,364.4,438.3z M394.3,433.9c1.9-1.1,2.7-3.3,2.5-5.5c-0.8,1.1-1.7,2.3-2.5,3.3
	c-1.1,0.1-1.7-1.3-2.5-2C391.5,431.5,392.3,432.9,394.3,433.9z M262.7,467.4c1.8,0,1.7-2.6,0.5-3.3C261,463,261,467.1,262.7,467.4z
	 M286.2,497.6c-1.2,0.1-2,1.4-1.1,2.5c0.3,0.4,0.7,0.7,1.2,0.7c0.6,0,1.2-0.4,1.4-0.9C288.3,498.9,287.4,497.5,286.2,497.6
	L286.2,497.6z M305.1,493.4c-0.1,1.6,0,3.3,0.5,4.9C308.2,497.4,307.3,494.5,305.1,493.4z M309.7,493.3c-0.4,1.4-0.9,3.1-0.5,4.8
	C311.8,497.5,311.6,494.6,309.7,493.3z M286.8,496.4l-0.2-2.7c-1.1,0.2-2.1,0.3-3.3,0.6c0.3,1.7,2,1.9,3.3,2L286.8,496.4z"/>
<ellipse class="st1" cx="508.9" cy="549.9" rx="94.5" ry="23.3"/>
<path class="st0" d="M424.5,517.1c-0.3-0.1-0.5-0.2-0.7-0.1c0.1-0.3,0.2-0.5,0.3-0.8c-0.3-1.2,0.3-2.5,1.2-3.3
	c0.5-2,0.5-3.9-1.7-5.1c0.4,3.3-0.4,6.5-2.7,8.8c-3.7-12.4-5.2-24.9-8.5-37.3c-4.3-14.8-7-30.7-8.4-46.8c-0.4-4.6-0.8-9.2-4.2-12.6
	c-1.7-1.2-2.4-3.1-3.2-4.8c-0.7-1.7-1.4-3.3-2.9-4.8l-0.1-0.1c-1.6,0-3.3,0.1-4.9,0.2c-0.8,1.7-1.4,3.3-1.7,5.3
	c-6.5,0.3-13,0.1-19.4,1.4c-1.1-1.8-2.3-3.3-3.3-4.9c-3.7-0.3-7,2-7.7,5.3c-0.7,2.3,0.9,4.1,2,5.9c-8.6,11-15.1,27.3-17.8,42.5
	c-0.4,2.5-0.8,5.1-1.6,7.6c-0.9-2.9-0.8-5.9-1.2-9c-3.2-17-2.5-34.2-3.9-51.4c0.3-7.6-0.4-15.4-1.1-22.8c-0.3-3.6-0.7-7.2-0.8-11
	c-0.1-4.1-2.5-8.2-1.4-12.3c1.1-6.2,1.4-12.4,2.6-18.6c5.1,0.7,10.3,1.1,14.4-1.9c1.1,1.4,3.7,4.1,6.5,2c-0.5-0.9-1.1-2-1.4-2.7
	c0.4-0.4,0.9-1.1,1.4-1.6c0.3,1.3,0.7,2.5,1.3,3.7c0.6-2.6,2.3-5.9,0-8.2c1.1-0.5,2-0.9,3.1-1.4c-0.8-0.6-1.8-1.1-2.6-1.8
	c-1.6,1.4-3.7,1.9-5.6,2.5c-0.3-1.1-0.6-2.6-0.8-3.6c3.3-1.4,7.2-1.7,11-0.6c0.7,3.2,0.8,6.7,3.5,8.8c5.3,5.6,13.5,5.9,17.9,5.3
	c9.8-0.9,15-8.4,12.6-17.5c0.3-0.3,0.9-1.1,1.3-1.4c6.2,9.9,10.2,20.2,13.6,30.7c1.8,4.9,3.6,10,4.2,15.4
	c-18.7,8.5-38.2-10.2-52.6-4c-6.2,4.1-10.7,10-17.2,13.8c-3.2,1.6-6.5,2.4-9.8,3.7c0.1,3.6,3.1,6.3,5.9,7.6c2.8,0.5,5.6,0,8.6-0.7
	c0.6,1.7,0.1,4.1,2.3,4.8c3.1,1.4,5.9-0.4,8.3-2c0.3,2.5,0.7,6.7,4.2,6.5c3.5,0.6,5.5-2.5,7.9-4.4c0.4,1.8,0.6,3.7,1.8,5.2
	c1.1,2,3.6,0.9,5.5,1.1c1.3-1.4,2.6-3.1,4.2-4.9c0.7,2.5,1.8,4.6,3.1,6.3h3.2c1.4-1.9,2.9-3.7,4.8-6.2c0.3,2,2,5.9,5.1,4.9
	c1.3-1.1,2.4-2.5,3.3-3.9c0.8,1.3,1.2,3.3,3.1,3.9c1.4,0.7,3.3,0.6,4.1-0.8c4.3-5.3,5.9-12.1,7.7-18.6c1.8,4.6,2.4,9.3,3.3,14
	l2.3-1.4c-1.2-5.8-2.8-11.3-3.7-17.2c0.5,0,1.1,0.1,1.6,0.1c-0.2-0.5-0.3-0.9-0.3-1.4c-0.1-0.4-0.2-0.8-0.2-1.1
	c-0.5,0-1.1,0-1.5,0.1c-2-9.3-5.1-18.3-7.6-25c0.2-0.2,0.4-0.3,0.7-0.4c-0.3-0.7-0.4-1.4-0.3-2.2c0-0.3,0-0.7,0.1-0.9
	c-0.4,0.3-0.8,0.4-1.1,0.7c-2-4.8-3.7-9.9-5.5-14.8c0.3-0.2,0.5-0.2,0.7-0.3c-0.7-0.8-0.9-2-0.8-3.3c-0.3,0.2-0.7,0.2-1.1,0.3
	c-1.6-2.9-3.3-5.6-4.8-8.4c0.9-0.6,2-1.4,3.3-1.4c3.7-0.3,6,3.5,8.7,5.7c-0.3-3.3-3.2-6.2-5.5-7.6c-2.8-1.6-5.7,0.2-8.4,1.1
	c-1.1-1.4-2-2.9-3.1-4.5c0.6-5.3,0.6-10.2,0.1-14.9c0.1,0,0.2-0.1,0.2-0.1c-0.3-0.8-0.3-1.8-0.2-2.6c-0.3,0.2-0.7,0.2-1.1,0.3
	c-0.2,1.4-0.9,2.8-2.4,3.4l1.2-0.3c-3.1,4.2-5.5,7.6-7.7,10.8c-0.1-0.2-0.1-0.3-0.2-0.4c-0.7,0.8-1.8,1.4-3.3,1.4
	c-0.5,0-1-0.1-1.4-0.3c-13,1.6-25.9,4.1-38.5,6.5c-1.1-1.3-1.9-2.8-2.1-4.4c-4,0.2-6-3.7-8.7-5.9c-0.3,0.8-0.6,1.4-0.9,2.3v0.2
	c1.3,4.9,4,9.3,5.9,14.2c-1.2,2.8-5.3,3.2-7.7,4.6c-0.3,2.5-0.8,5.2,0.1,7.6c1.1,1.6,2.5,2.8,3.6,4.4c-0.1,6-1.3,12-2,18
	c-0.5-0.6-1.1-1.3-1.7-2c0.3-2.5,0.3-4.9,0.3-7.6c-4.2-2-6.9,2.1-9,5.2c-1.7-0.2-3.3-0.3-4.8-0.5c-0.6-1.1-1.3-2.4-2-3.5
	c2.4-2.5,3.9-5.3,4.4-8.2c-6.5-4.1-14.4,1.7-16.7,3.7c-2.1-0.3-4.6-0.3-6.5-1.4c-3.3-1.8-7-2.7-11.4-2.9c-2,0.1-3.3,2-4.6,3.7
	c0.9-0.2,2-0.3,2.9-0.6c5.3-1.8,9.8,0.8,14.2,3.7c-0.6,2.4-1.1,4.6-1.6,6.7c-1.4-0.6-2.9-1.1-4.4-1.7l0.3,2
	c-1.7-0.3-3.3-0.8-4.8-1.3c1.1-0.8,2.4-1.9,3.7-2.8c-2.7-1.7-6.2-2.5-7.7-5.5c-0.6,0.5-1.3,1.1-2,1.6c1.1,1.3,2,2.5,3.1,3.7
	c0,1.8,0,3.5,0.1,4.9c-2.9,0.2-5.7,0.5-8.6,0.3c-0.6-0.3-1.2-0.8-1.8-1.3c-1.1-1.1-2.1-2-3.7-2c-2.8,1.1-3.3,4.4-3.6,7.2
	c-0.3,5.3-1.1,10.6-1.7,15.8c-0.8,7.1-0.4,14.2-1.4,21.4c-6.8-6.2-9.8-15.6-17.6-20.7c-3.3-2.4-7.5-2.5-11.3-3.2
	c0.1-1.1,0.2-2.1,0.3-3.3c2.1-0.8,4.4-1.7,6.5-2.7c-1.6-0.9-3.3-1.9-4.8-2.7c0.2-2.3,0.4-4.6,0.3-7c-0.7-4-3.3-7.6-6.9-9.6
	c-2.6-1.3-4.9,0.4-7,1.9c-1.2,0.9-3.1,0.2-4.6,0.3c0,0.6,0.1,1.7,0.1,2.4c-0.8,1.4-1.3,3.3-1.4,5.2c0.8-0.7,1.6-1.4,2.4-2.3
	c-0.1,0.2-0.1,0.3-0.2,0.3c0.3,1.1,0.4,2,0.6,3.2c1.2,7.5,2,9.9,10,11c0.3,1.4,0.7,2.9,1.1,4.4c-3.3,1.1-5.7,5.5-4.8,8.7
	c2.7,3.3,7,3.1,10.4,4.6c6.2,8.2,9.5,18,17.3,24.7c2.4,2.1,4.8,4.5,8,5.1c-0.1,1.6-0.3,3.2-0.4,4.8c-4.2,0.7-9.3,2.1-12.2,6.2
	c-3.1,4.1-5.2,8.7-6.2,13.6c-1.6,6.9,0,13.8,0.4,20.6c-7.4,0.3-12.8,2-16.8,5.5c-3.3,2.5-4.8,6.4-6.2,10.2c-7.1,1.5-15.4,4-21.3,9.3
	c-7.7-3.3-16.4-5.5-25.7-6.4c0.1,0.8,0.3,1.5,0.3,2.3c13.3,1.3,26.8,5.3,38.5,14.3l1.7-2c-3.4-2.7-7.2-5-11.3-7.1
	c5.9-3.7,12.9-7.9,20.8-8.4c8.4-0.8,17,3.7,21.1,11.1c2,3.7,1.6,8,1.9,12.1c-3.2,0.1-4.8,2.6-6.3,4.9c-1.7,2.5-3.2,4.8-6.3,4.6
	c-3.6,0.2-6-2.9-9.2-4.1c-2.7-0.9-4.6,1.6-5.7,2.9c2,0.5,4-0.7,5.9-1.4c3.7,2.4,7.6,5.3,12.2,4.5c2.3-1.1,3.6-3.2,4.8-5.1
	c1.2-2,2.4-3.7,4.4-4.8c-0.1,3.7-1.7,7-2.1,10.4c1.7-0.2,2-2,2.8-3.3c1.7,3.2,5.5,2.4,8.4,2.5c0.1-0.3,0.2-0.7,0.2-0.9
	c-3.3,0.4-7.4-0.7-7.9-4.2c0.4-3.3,2-6.2,2.1-9.3c0.2-3.1-0.8-6-2-9.2c4.2-1.7,10.3-3.1,15.5-0.4c7.1,2.9,13.1,9.6,15.9,17.9
	c-0.2,0.2-0.4,0.5-0.6,0.8c-5.7,1.2-11.3,3.1-14.3,7.7c1.7-0.3,3.3-0.6,4.8-1.6c6.8-4.5,15.1-4.8,23.3-4.8
	c5.5,0.1,10.3,2.6,15.5,3.3c-0.9-5.9-2.5-11.8-3.3-17.7c1.1,0.9,2.3,2,3.6,3.3c0.3,4.8,1.2,9.8,2,13.8c0.3-0.3,0.8-0.8,1.2-1.1
	c-0.4-4-0.8-7.9-1.3-12c1.2,0.3,3.3,0.2,3.5,1.4c0.5,3.7,0.8,7.6,2,11.3c5.1-4.6,9.3-10.3,15.5-13.3c4-1.9,9-1.8,14.9,0.2
	c4.4,1.4,7.2,5.2,10.6,8.3c-0.4,0.5-0.8,1.1-1.2,1.7c0.5,0.3,1,0.7,1.4,1.1l0.4,0.4c3.1-2.2,7.1-3.6,11.1-1.5
	c-0.7,2.6-0.9,4.4-1.1,6.5c2.7-3.3,3.7-7.5,6.2-11c3.3-4.8,7-9.6,12.1-12.1c5.6-2.7,13.7-3.3,19.1,1.6c2.9,2.1,5.1,5.1,7.2,7.9
	c2.6,3.5,5.5,7.1,9.5,9.3c1.2,0.3,2.5,0.3,4,0.5l-2,2.9c2.5-0.5,4.5-2,6-4.5c1.9,1.2,3.3,2.4,4.6,3.6
	C427.1,520.7,425.7,518.9,424.5,517.1L424.5,517.1z M352.6,339.6c0.5,0.4,1.2,1.1,1.8,1.4c-0.3,0.3-0.5,0.6-0.8,0.8
	c-0.9,1.2-2,2.4-2.3,4c-0.1,0.6-0.3,1.2-0.6,1.4c-0.2,0.1-0.3,0.1-0.6,0C348.1,344.5,350.7,341.9,352.6,339.6L352.6,339.6z
	 M406.6,405.8l-1.9-1.3c0.3-0.4,0.6-0.8,0.8-1.2c1.1-1.6,2.1-3.2,2.4-5.2c-1.6,1.1-2.5,3.1-3.7,4.5c-0.2-2.1-0.8-5.1,1.2-6.4
	c2.5-1.9,5.3-4.1,7-7.1c0.3,0.3,0.6,0.7,0.9,1.1C412.2,396.6,409.9,401.8,406.6,405.8L406.6,405.8z M414.3,378
	c0.5,2.5,0.3,4.9,0.2,7.5c-0.1,0.7-0.2,1.3-0.2,2c-0.8,0.4-1.8,0.6-2.7,0.5c-2.7,2.5-5.2,5.5-9,6.2c-0.5-3.3-0.1-6.2,1.3-8.7
	c-4,2-6.9,5.5-11,7.4c-0.5-3.3-0.3-6.4,0.6-9.3c-4.3,2.6-8.4,6-13.5,7.1c0.2-3.3,1.8-6.2,2.3-9.3c-4.3,2.5-8.2,6.5-13.6,6.3
	c0.1-3.1,1.6-5.5,2.3-8.4c-2.3,0.8-4.5,2.1-6.5,3.3c-1.6,0.9-3.2,2-4.8,2.7c-0.8-0.1-2.4-0.1-3.2-0.2l-1.3,2
	c4.1,2.9,7.9-1.1,11.5-2.8c0.1,1.4,0.2,2.9,0.3,4.4c3.7,3.7,8-0.2,11.5-2c-0.2,1.6-0.3,3.3-0.5,4.8c0.6,0.4,1.7,1.2,2.3,1.7
	c3.7-0.8,6.9-3.1,9.9-5.1c0.2,2.7,0.1,5.7,2.5,7.6c2.6-1.3,4.8-3.3,7-5.1c0.2,1.2,0.3,2.7,0.4,4.1l2.5,2.5c-1.3,2.6-2.8,5.5-4.9,7.9
	c0.3-2.5,0.5-5.2,0.2-7.7c-2,1.4-1.1,3.6-1.1,5.5c-2.4-1.1-1.6-4.8-1.9-7.1c-3.7,3.1-4,9-8.4,11.1c0.7-3.5,2.4-6.8,2-10.4l-1.8,1.2
	c-0.2,2.3-0.3,4.6-1.4,6.7c-0.8-2.8-1.3-5.9-1.2-8.8c-2,2.3-3.3,4.8-5.2,7.1c-1.1,1.3-2.4,2.8-4.2,2.5c1.3-3.3,4.3-5.9,4.1-9.8
	c-2,2-2.8,5.1-4.5,7.6c-1.2-2.5-0.7-5.5-0.8-8.3c-3.5,2.8-5.9,8.7-11,8.4c2.4-3.2,5.2-6.2,5.9-10.4c-2.5,2.4-3.6,5.9-6.2,8.2
	c0.2-2.4,0.4-4.6,0.6-7c-2,0.8-3.7,2-5.5,3.3c-0.7,0.5-1.4,0.9-2,1.4c-0.4,0.6-2,1.1-2.8,0.7c-0.3-0.2-0.5-0.4-0.5-0.8
	c3.5-2.5,7.2-4.8,9-9c-2.8,2-5.1,4.6-8,6.5l0.6-3.9c-4.5,0.1-8.3,3.3-12.7,3.3c4-3.5,11-3.3,12.4-9.3c-4.3,3.7-9.8,5.9-14.7,8.5
	c-0.7-0.8-1.3-2-2-2.9c6.4-1.4,12.7-4.8,18.3-9.8c0.1,1.4,0.1,3.3,0.2,4.6c1.4-1.2,1.7-3.1,1.8-4.8c0-0.6,0.1-1.3,0.2-2
	c3.1-3.7,6.2-5.9,9.3-6.3c13.6,0,25.3,9.2,39.1,7.7C408.8,381.1,412.4,381,414.3,378L414.3,378z M389.4,343.2
	c-5.2,3.3-12.5,3.9-20,1.6c-3.1-0.8-5.5-3.3-6.5-6.5c-0.6-2.8,2.4-4.4,4.6-5.7c4.5-2.1,8.7-3.3,12.7-3.3c5.2,0.1,12.3,2.1,12.2,8.4
	C392.3,340,391.1,342,389.4,343.2L389.4,343.2z M332.4,321.9c2.1,1.4,3.7,3.6,5.2,5.7c3.5,0.1,7-0.7,10.4-1.4
	c12.1-2.6,25-5.5,38.5-5.9h0.1c1.4-1.7,2.4-4,4.1-5.5c-0.2,2.1-0.6,4.3-0.4,6.5c0.9,2.3,2.5,4.2,3.7,6.2l-1.4,2
	c-4.6-3.9-11.1-4.6-19.9-2.5c-3.1,0.7-5.7,2.5-8.7,3.3c-0.9,0.9-1.9,2.1-2.9,3.1c-4.9-0.9-9.3-0.8-13.2,0.4
	c-4.3-2.1-7.7-3.2-11.9-2.7C336.2,327.7,333.5,325.1,332.4,321.9L332.4,321.9z M335.3,334.5l0.2-0.1c3.3-0.1,6.9-0.3,9.8,1.8
	c1.4,0.8,2.7,2.5,2.9,4.1c0.1,0.8,0,2-1.1,2.9c-4.1,4.6-11,3.3-13.8,2.5C333.9,341.9,334.3,338.2,335.3,334.5L335.3,334.5z
	 M404.4,462.1c-1.6,2-4.8,5.5-8.7,4.8c-0.7-0.7-1.2-2-0.7-3.1c2-2.7,4.8-4.8,8.2-5.7C403.6,459.8,404,460.9,404.4,462.1L404.4,462.1
	z M393.9,468.9c-3.3,2.6-5.9,5.9-8.7,8.7c1.2-5.9,3.1-11.5,4.5-17.3c3.9-2.7,7.1-6.2,11.3-8.7c-0.6,1.9-1.2,3.7-2,5.5
	c-0.5,0.6-1.1,1.1-1.8,1.6C392.8,461.9,393.4,464.3,393.9,468.9L393.9,468.9z M381.3,470.2h-0.1c0.1-3.6-4.3-5.7-7.5-4.6
	c-1.4,0.6-2.5,1.7-3.7,2.5c-0.9-2-1.1-4.2-1.2-6.3c6.4-0.2,12.7-0.6,19.1-0.7c-1.8,6-3.5,12.2-5.1,18.3c-3.2,0.8-6.3,1.3-9.3,1.4
	c1.6-2.1,3.5-4.1,4.6-6.7C378.6,472.6,380.2,471.4,381.3,470.2L381.3,470.2z M403.8,457c-0.9-0.3-2-0.4-3.1-0.6
	c0.5-1.6,1.3-3.1,2.4-4.2C403.3,453.5,403.6,455,403.8,457L403.8,457z M327.9,338.3c1.3-0.7,2.7-1.4,4.1-2c-0.2,0.9-0.3,2-0.5,3.1
	c-0.3,1.7-0.6,3.3-0.8,5.1C327.9,343.1,327.7,340.1,327.9,338.3L327.9,338.3z M300.9,353.3c3.1-2.5,6.7-3.5,9.2-3.9
	c0.9,0.4,1.9,0.9,2.7,1.6c-1.6,2.3-3.7,4.1-5.9,5.9c-0.7,0.6-1.4,1.1-2,1.8c1.8,0.3,3.9,0.5,4.8,2c-3.9,1.4-7.6-2.3-11.4-0.5
	C298.9,357.8,298.8,354.8,300.9,353.3L300.9,353.3z M298.1,354.7c-0.4,2.1-0.8,4.4-1.4,6.5c-1.1,0.4-2.3,0.7-3.5,0.8
	C293.5,359.6,294.6,355.5,298.1,354.7z M222.8,374.9c-2-0.5-3.9-1.1-4.5-3.1c-1.8-4.3-1.8-8.8,0.1-12.2c0.8-2,3.1-3.3,5.5-3.3
	c2.7,1.8,7.1,5.6,7.1,11.3c-2-0.2-4.1-0.5-6.2-0.7c-1.1,0.7-1.9,1.6-2.6,2.5c0.4,2,0.8,3.9,1.3,5.7
	C223.4,375,223.1,374.9,222.8,374.9L222.8,374.9z M224,370.1c0.1-0.6,0.4-1.1,1.1-1.6c1.6,0.3,3.3,0.4,5.5,0.4
	c-0.1,1.3-0.2,2.7-0.2,4.1c0.3,0.5,1.1,1.4,1.4,2c-1.9,0.3-3.7,0.3-5.6,0.3C225.3,373.7,223.7,371.8,224,370.1L224,370.1z
	 M228.9,381c-0.7-0.1-1.4,0-2.1,0.3v-0.2c0-1.1,0.1-2.9,0.2-4.1C228.9,377.1,228.8,379.4,228.9,381L228.9,381z M246.4,413.1
	c-5.9-6.4-8.4-14.9-14.3-21.1c-3.2-1.1-7.6-0.8-9.3-4.2c2.5-4.8,9.2-5.5,14.2-3.7c10.7,4.6,13.8,16.6,22.2,23.7
	c-0.5,3.3-0.7,6.5-0.9,9.8c-0.1,1.7-0.2,3.3-0.3,4.9C253.2,420.5,249.7,416.8,246.4,413.1L246.4,413.1z M253.3,494.2
	c-4.1,0-7.5,0.5-10.4,1.7c-1.1,0.8-1.7,0-2-0.9c-2.4-3.9-6-7-10.7-8.7c-3.7-1.4-7.6-0.8-11.3-1.4c4.1-9.2,11-12.5,21.2-12.7
	C252.5,472.6,258.7,483,253.3,494.2z M275.9,516.5l-1.6-1.3c-0.1-2.8-0.2-5.3-1.4-7.5c-3.6-6.2-9.8-11-17.3-13.6
	c2.4-5.6,0.6-12-0.7-15.2c-2.1-5.5-8-7.2-12.8-9.8c-0.6-4.4-1.1-9.3-1.3-14.9c0.1-9.8,9.5-24.7,20.8-19.9c4.8,2.8,6.8,8.8,8.2,13.2
	c0.9,3.3,2.9,7,1.1,10.3c-3.9,1.1-8,0.3-12,0.6c0.5,0.5,1.1,1.1,1.7,1.8c4.1-0.5,8.4,0.8,12.2-1.6l2.4,10.6
	c-4.8,2-10.6,1.1-14.7-2.5c0-2.6,0.6-5.5-1.4-7.6c-1.9,7.4,1.6,14.4,3.1,21.6l-3.3,0.5c0.3,3.9,3.3,6.2,6.2,8.3
	c1.3,0.9,1.4,0.9,0.8,2.6c-1.2,2.8,1.1,3.6,3.1,4.8c0.1,0.9,0.3,2,0.5,3.3c0.5,0.7,1.2,1.1,2,1.4c1.1,0.5,2,0.9,2,2.1
	c0.2,2,2,2.9,3.5,3.9c0.1,0.7,0.3,2,0.3,2.5c1.3,1.4,2.8,3.1,3.5,4.8C278.9,515.9,277.3,516.1,275.9,516.5L275.9,516.5z
	 M272.7,472.6l2.6-0.8c1.1,3.3,1.8,6.7,2.5,10.6c-1.9-0.5-4.1-0.5-5.5-2C272.7,478.1,272.9,475.7,272.7,472.6L272.7,472.6z
	 M270.9,480.2c-0.7,0.3-1.4,0.2-2.4-0.3c-0.3-2.5-0.6-4.9-0.8-7.5C271.9,472,271,477.3,270.9,480.2z M266.4,480.1
	c-0.8,0-2,0-2.7,0.1c-0.8-3.1-1.2-6-2-9.1c1.6,0.4,3.5,0.6,4.1,2.3C266.4,475.6,266.2,477.9,266.4,480.1L266.4,480.1z M299.9,518.9
	c-4.6-1.8-9.2-2.5-13.8-3.5c-1.4-1.9-5.5-3.1-3.6-5.9l-0.3-0.1c-0.5-0.3-1.4-0.6-2-0.8c2.6-3.3-2.1-3.5-4.6-4.1
	c0.7-0.9,1.3-1.9,2-2.8c-1.9-1.1-4-1.4-6-2c-0.2-1.6,2.1-2.1,2.7-3.6c-2-1.1-4.3-1.9-6.5-2.6c2-1.1,4.1-2,5.2-4.2
	c-4-1.1-8.4-2.1-11-5.6c5.5-0.8,11-0.3,15.5,1.6c-1.1,5.7,0.5,12.3,4.8,19.4c1.4,2.1,3.3,5.3,6.5,4.1c-6.5-5.5-10.3-14.2-10-23.1
	c2.6,0.8,5.6,0.3,8.2,1.3c1.9,8.5,2.3,17.3,2.9,25.9c0.2,1.4,0,3.3,2,3.7c-0.2-11.9-1.7-23.4-2.5-35.2c-1.1-8.4,0-16.3,9.5-18.9
	c12.5,0.1,13.3,13.9,15.4,23.1c-0.4,0.7-0.9,1.6-1.4,2.4c-2.7,0.1-5.9,0.1-9.2-0.7c-1.7-0.3-3.3-1.1-4.9,0
	c-3.5,2.1-3.1,6.8-3.1,10.4C296.9,504.7,298.3,511.9,299.9,518.9L299.9,518.9z M301.1,502.7c-4.6-4.4-2.7-11.8-2-14.2
	c5.2,0.1,10.4,2.7,15.4,0c0.7,5.1,2.4,9.9,2,15C312.1,506.5,305.1,507.1,301.1,502.7z M313.3,512.8l-0.1,0.3c0.3,1.9-0.8,3.3-2,4.2
	c-0.6-3.3-1.3-6.2-2-8.7c0.8-0.1,2.3-0.1,3.1-0.2c0.3,1.1-0.4,3.6,1.6,3.3c0.5-1.3,0.6-2.6,0.3-4c1.1-0.4,2.3-0.9,3.6-1.3
	C318.5,509.3,316.3,512.5,313.3,512.8z M319.8,507.8c-1.1-4.1-1.3-8.2-1.8-12.2c-0.5-3.1-0.9-5.9-1.4-8.8c-0.8-6.2-1.9-12.6-4-18.6
	c-1.3-3.7-4.5-6-7.6-7.9c3.3-6.2,7.1-10,11.6-11.5c2.4-0.9,5.6-0.4,7,2c2,3.6,2.7,7.7,3.6,11.8c0.1,1.2,0.9,3.1-0.3,3.7
	c-2.6,1.9-6.5-0.9-9,1.7s-2.3,6.5-1.8,9.3c1.1,4.6,2.5,9.2,3.7,13.6c1.3,4.6,2.8,9.3,3.9,14.2C322.6,506,321.4,507,319.8,507.8
	L319.8,507.8z M326.1,504.2c-1.2-5.2-2.8-10.4-4.3-15.4c-1.1-3.7-2.3-7.4-3.3-11.1c-0.8-2.6-0.6-5.6,0.4-8.4
	c3.3-0.4,6.5-0.4,9.8-1.1c2,12,4.8,23.4,6.9,35.4C332.3,502.8,329,503.1,326.1,504.2z M337.2,497.5c-2-12.4-4.8-24.4-7.5-36.6
	c-0.9-4.2-1.9-8.7-4.4-12.4c-1.6-2-3.7-2.5-5.6-2.5c-8.6-0.1-13.3,7.1-16.6,13.6c-5.9-0.2-11.5,3.3-14.7,8.6c-0.8,1.4-2,2.6-3.3,3.7
	c-1.4,1.2-2.8,2.5-3.6,4.3c1.2,0.5,2.5,0.9,3.7,1.4c-0.7,1.7-3.3,3.7-0.6,4.8l0.6-0.8c0.4-1.1,1.1-2.1,2-3.3v2.5l-1.3,0.8
	c0.2,0.8,0.8,1.4,1.3,2c-1.2,0.1-2.5,0.1-3.7,0.2c-6.5-14.2-6.4-30.1-12.6-44.3c-2.4-4.8-6.8-7.9-10-9.5c0.9-5.5,1.1-11,1.4-16.4
	c0.9,0.5,1.8,1.2,2.5,2h3.3c2,4.8,4.8,9.2,7.7,13.3c3.1,4.2,4.8,9.1,10.6,9.3c4.3,4.9,8.4,8.3,13.2,9.2c3.3,0.4,7.5,0.8,9.8-2.3
	c-4,0-8,0.9-11.6-0.7c-7-3.3-12.5-9.3-15-16.4c-1.3-3.5-1.2-7.4-3.3-10.6l2-2c3.6,0.1,6.5,2,9.5,3.9c2.4,1.4,4.8,3.2,7.7,3.7
	c6,1.4,13-0.7,17.6-5.5c-0.2-0.6-0.4-1.6-0.6-2.3c-3.7,2.9-7.1,6.8-12.2,6.9c-4,0.2-7.2-2-10.4-3.9c-2-1.2-4-2.5-6.2-3.3
	c-3.3-0.6-3.3-4.6-4.3-7.1c0.4-0.5,1.1-1.4,1.7-2c-0.1-1.6-0.2-3.3-0.3-4.6v-0.1l-0.1-0.1c-1.3-1.2-2.7-2.5-4.1-3.7
	c-2.1,0.1-4.4,0.1-6.4,1.1c0.3-2.9,0.7-5.9-0.3-8.7c-0.6,3.1-0.8,6.2-1.1,9.2c-1.6-0.1-3.3-0.6-4.8,0.1c-1.7,1.2-2.5,3.2-2.5,5.5
	c-0.6,0.8-1.2,1.9-1.9,2.8c-0.8-10.6,0.7-20.9,1.4-31.2c0.2-4.4,1.4-8.6,1.4-13c1.2,1.2,2.3,2.8,3.1,4.6c13.3-3.1,26.8-2.9,40.5-3.5
	c3.7,0,7.4,0.9,11.1,0.3c0.8-1.3,0.5-4.1,2.4-4.2c0.1,2.5-0.4,5.2,1.1,7.4c3.7,5.3,4,12.1,5.3,18.2c0.9,5.1,0.2,10.3,0.6,15.4
	c0.4,6.2,1.1,12.4,0.8,18.7c0.4,12.7,2,25.1,2.7,37.7c0.5,7.6,1.1,15.4,2.5,23.1c0.1,3.2,0.6,6.2,1.1,9.3c0.5,3.6,1.1,7.4,1.1,11.1
	C337.9,499.8,337.4,498.6,337.2,497.5L337.2,497.5z M287,476.2c-1.3-0.3-2.5-0.6-3.6-0.9c1.1-0.9,2.3-1.8,3.5-2.5
	C287,473.9,287,475.1,287,476.2z M266.1,402.9c1.1-2.4,3.3-3.7,5.9-2.9c-0.8,1.4-1.8,3.1-2,4.8c0.3,2,1.3,3.7,2.1,5.5
	c-1.9,2.1-3.7,4.6-6.9,4.1c-0.7-1.4-1.7-3.1-1.1-4.8c0.3-3.5,3.9-5.1,5.9-7.6C268.7,402,267.2,402.5,266.1,402.9z M276.8,418.7
	c0.8,0.4,1.8,0.8,2.6,1.2c0.4,2.8,0.7,5.6,1.6,8.4c0.7,2.4,2.1,4.4,2.7,6.9c-1.7-1.3-2.8-3.2-4-4.8c-0.5-0.8-1.1-1.9-1.8-2.6
	c-2.8-4-4.9-8.2-7.6-12.1c1.6-4.8,6.8-6.4,11.3-5.9c0.3,1.3,0.8,2.9,1.3,4.5c-3.1-0.1-4.9,2.4-6.4,4.5h0.3L276.8,418.7L276.8,418.7z
	 M281.1,408.1c-2.8,0.3-5.1,0.5-7.1,0.9c-0.9-1.4-2.4-3.3-2-5.1c0.8-1.9,2-3.3,3.2-5.1c1.3-0.1,2.6-0.3,4-0.2c2,0.9,3.1,3.1,4.1,4.8
	C282.4,405,281.7,406.5,281.1,408.1L281.1,408.1z M363.9,515.1c-3.5-2.1-7.9-2.1-11.5-0.1c-2.5-5.2-6.3-8.7-10.8-9.9
	c-0.6-4.6-1.8-9.2-2-13.9c-0.2-4.8-1.9-9.3-2-14.2c6.7-1.3,12.2,5.1,13.2,11.4c-2,0.7-3.6,2-4.8,3.7c6.5-1.3,8.8-2.9,14.4,2
	c-2,1.1-3.6,3.7-6.2,3.3c-2.1-0.4-3.6,1.3-4.6,2.7c2.7,0.2,6.2-1.1,8,1.4c-0.2,0.8-0.9,1.2-1.8,1.7c-1.1,0.5-2.1,1.3-2.3,2.8
	c2.5-0.8,5.6-1.1,8.8-1.1c-1.1-0.9-2.1-2-3.3-2.8c-0.5-1.4-1.1-2.9-1.7-4.1c3.6-3.1,8-1.2,11,1.1c-0.8-1.4-1.6-2.6-2.6-4
	c-2.3-0.2-4.1-1.7-5.3-4.6c7.1-1.7,11.1-0.1,16,4.8c0.9,0.8,2,1.8,3.1,2.5c0.1-4.5-3.7-6.9-7-8.8c4.3-3.3,10.3-4.1,15.4-2
	c5.1,2.3,7.4,7.5,8.3,10.6C380.5,493,370.2,502.2,363.9,515.1L363.9,515.1z M405.8,504.9c-2.1-2.5-4.8-4.5-7.5-6.5
	c-0.8-5.7-4.6-12.4-11.3-14.3c-5.3-1.9-12-0.5-17.2,3.3c-1.2,0.3-2.5,0.3-3.7,0.3c-2.3,0.1-4.6,0.2-6.7,1.7
	c-2.1-0.9-4.8-1.7-7.6-2.1c0.3-6.4-4.8-11.1-9.8-12.8c2.1-20.2,9.2-37.7,20.2-50.9c-1.6-1.8-3.3-3.9-3.1-6.5
	c2.6,0.3,4.2,2.5,5.9,4.4c9.1,0,17.9-2,27-0.9c-0.9-2.3-3.9-4.9-1.6-7.2c2.1,1.2,4.6,3.3,4.5,6.5c2.1,2,4.8,5.1,5.3,9.2
	c0.2,3.1,0.4,5.9,0.7,8.8c0.2,3.1,0.4,5.9,0.7,9c-0.2,0.6-0.6,1.6-0.8,2.3c-1.7-0.9-3.3-1.9-4.8-2.8c0.9,1.1,2,2.4,2.9,3.5
	c-2.6,2-5.5,4-7.7,6.4c-0.3-0.3-0.7-0.6-1.1-0.8c1.8-1.9,2.8-3.6,3.7-5.7c-2,1.9-3.7,3.9-5.5,5.9c0.1,0.6,0.3,1.6,0.3,2.3
	c-1.1-0.1-2-0.3-3.2-0.3c0,0.5,0.1,1.1,0.2,1.7c-5.3,0.1-10.6,0.2-15.9,0.7c-0.8,0.1-2,0.2-2.6,0.8c-0.3,0.3-0.3,0.6-0.3,1.1
	c0,2.6,0.7,5.2,1.4,7.1c-3.3,2.4-6.2,5.9-10.4,5.9c-2-2-4.1-3.6-6.4-4.8c0.8,2.8,3.1,5.5,5.5,6.5c4.1,2,7.7-1.7,10.8-4.1
	c2-1.7,4.1-3.3,6.7-4.4c1.2-0.5,2.5-0.2,4.1,0.8c-2.1,2.4-2.8,5.6-5.1,7.9c-2.5,2.8-6.7,3.3-9.6,5.7c2.6,1.4,5.1,0,7.2-1.1
	c0.6,0.9,1.1,1.7,1.6,2.4c4.6-1.4,10.6,0.4,13.8-4c2.6-3.3,5.9-7.1,9.8-9.9c3.9-0.4,7.1-2.6,9.1-6c4.3,17.8,7.2,35.5,11.4,53.2
	C412.2,514.2,409.5,509.1,405.8,504.9z"/>
<path class="st0" d="M249.7,446.8c-0.9,0.7-1.4,1.9-2,2.8c-1.9,0.1-3.7,0.1-5.6,0.1c1.3,1.4,3.2,1.8,4.8,1.8c0,2,0.2,4.1,0.6,6.2
	c2.6-0.7,3.6-3.3,4.6-5.5c-0.3-0.6-0.5-1.3-0.8-2L249.7,446.8z M249.7,451.9c-0.4,0.9-0.7,2-0.8,3.1h-0.1c-0.5-0.8-0.5-2.9-0.1-3.9
	c0.3-0.7,0.6-0.6,1.2,0.2L249.7,451.9L249.7,451.9z M271,464.4c-2-1.4-3.2,3.2-0.8,3.3C271.6,467.6,272.1,465.2,271,464.4z
	 M285.5,490.2c-1.4-0.4-3.2-1.1-4.8-1.4c0.3,1.4,1.7,3.2,3.2,3.2C284.4,491.9,285.2,491.5,285.5,490.2L285.5,490.2z M298.6,471.1
	c0,0.8,0.1,2.1,0.2,3.1c-1.6-0.5-3.1-1.1-4.6-1.6c0.9,1.7,2.1,3.3,3.3,4.3l0.2,0.2l2.5-2.5c0-1.2-0.1-2.5-0.1-3.7
	C299.5,471.1,299.1,471.1,298.6,471.1z M741,490.2c-7.7,1.1-13.2,2.4-15,2.8c-79.7-13.1-107.1-5.2-114.8-1.4
	c-7-6.5-38-14.9-44.9-16.6l-1.9,2c16.6,4.3,43.3,12.7,43.6,16.7l0.3,3.7l3.7-3.1c0.2-0.2,18.6-14.9,113.4,0.8l0.8,0.2l0.8-0.3
	c0.2-0.1,5.4-1.4,13.9-2.7L741,490.2L741,490.2z M501.3,501.7c0.3-0.2,0.7-0.2,1.1,0c0.3,0.2,0.5,0.3,0.8,0.4l-3.1-2
	C500.5,500.6,501,501.2,501.3,501.7z M311.6,459.3c-2,0.3-3.3,0.1-3.3-2c-4.4,3.6,3.7,3.2,1.9,6.5h0.8v1.1c1.6,0,3.3,0,4.8,0.1
	c-0.3-2.5-0.3-4.9-0.9-7.6C313.2,456.5,312.5,458.2,311.6,459.3z M311.4,463.7c0.3-1.7,0.9-2.9,2-3.3c0.2,1.1,0.3,2.1,0.3,3.3
	C313.1,463.5,312,463.7,311.4,463.7z M353,446.1c-1.6,0.5-0.7,2.3,0.4,2.8c0.6,0.3,1.2,0.1,1.6-0.3C356,447.3,354.3,445.6,353,446.1
	z M318.4,454.4c-0.4,0.3-1.1,0.8-1.6,1.2c0.3,0.4,0.4,0.9,0.7,1.4c0.3,0.6,0.5,1.1,0.8,1.8c2,0.2,4.1-1.1,5.1-2.9
	c-1.1,0.3-2.3,0.7-3.5,1.2L318.4,454.4z M366.5,449.6c2,2.5,4.6,1.9,7.5,1.8c3.3-0.3,7.1-0.7,9.3-3.7c-1.4,0.3-3.1,0.7-4.6,1.1
	C374.7,449.7,370.6,450.7,366.5,449.6L366.5,449.6z"/>
<path class="st0" d="M209.6,505.1c-5.4-5.6-11.8-10.4-18.8-13.8s-14.9-5.5-22.7-4.7c-4.6,0.5-8.9,1.9-12.9,4.1
	c0.3-0.1,0.7-0.2,1.1-0.3c-15.5-0.1-30.4-5-45.8-6.5c-1.1-0.1-2.1,1-2.1,2.1c0,1.3,0.9,2,2.1,2.1c15.1,1.4,29.9,6.3,45.2,6.5
	c1.7,0,3.2-1.2,4.8-1.9c1.4-0.6,2.8-1,4.2-1.4c2.8-0.7,5.8-0.8,8.7-0.7c5.9,0.3,11.7,2.3,16.9,5.1c6.1,3.2,11.5,7.5,16.4,12.4
	C208.5,510,211.4,507.1,209.6,505.1L209.6,505.1z"/>
<g>
	<path class="st2" d="M677.4,451.8c2.7-4.8,5.8-9.4,8.3-14.3c2.3-1.8,5.6-2.5,6.6-5.7c-1.1-1.5-2-3.2-2.8-4.9
		c2.3-0.5,4.6-1.3,6.7-2.5l-3.8-23.1c2.1,0.1,4.2,0,6.2-0.6c-4-5.4-7.8-11.3-8.4-18.1c-0.2-1.2,0.5-2.1,1.1-3.1
		c0.6-0.8,1.1-1.6,1.6-2.5c-0.3-2-0.5-3.9-0.9-5.9c-0.6,0.9-1.3,1.7-1.9,2.6l0,0.3c-0.2,0.2-0.5,0.7-0.7,0.9c0-0.5,0-1.5-0.1-2
		c-1-1.5-1.3-3.3-1.7-5c-1.6-7.1-4.1-14-7.2-20.6c0.4,0.1,0.8,0.3,1.2,0.4c-0.5-1-0.9-1.9-1.4-2.9c0,0-0.1-0.1-0.1-0.1
		c0,0,0,0,0.1,0c-0.7-1.5-1.3-3-1.8-4.5c-0.2-0.5-0.2-0.9-0.2-1.3c-1.3-0.8-2.6-1.7-3.9-2.6c-5.8-26.3-18.5-34.4-29-36.3
		c1.6-2.5-13.8-1.6-25.4-0.6l-1-2.7h0c15.8-7.1,27.8-19.7,32-36.6c0.8,0,1.7,0.8,2.5,0.8c2.3-8.5,3.2-17.7,4.5-26.6
		c-2-1.3-3.8-2.8-5.4-4.3c1.9-1.2,3.2-3.4,3.1-6.4c-0.8-21.3-1-42.7-0.6-64c0-2.4-0.8-4.2-2-5.5c0.8-1.4,1.6-2.8,2.4-4.1
		c-0.4-1.1-0.9-2.1-1.3-3.1c1.7-1.7,3.7-2.9,5.8-3.5c1.2-1.6,2.5-3.2,3.8-4.6c3-5.5,5.2-11.5,6-17.5c0.8-4.4,0.2-8.6-0.2-12.8
		c-0.8-0.2-1.5-0.2-2.3-0.4c0.3-1.8-0.3-3.6-1.7-4.8c-2.8-5.6-8.6-8.4-13.6-11c-2.7,0.6-5.3,1.2-7.9,2c-2.6,0.8-5.2,1.7-7.6,2.9
		c-1.6,4-5.5,4.9-7.7,4c-18.3-9.5-37.4-23.2-58-20.6c-10.7,1.7-20.6-0.9-31.6,1.6c-2.5,0.3-5,0.8-7.5,1.4
		c-15.1,3.8-29.3,12.7-41.7,23.6c-1.5,0.9-3.1,0-4.6-0.8c-2.1-0.9-4.4-2.4-5.9-4.5c-2.3-1.7-4.6-2.6-7.4-1.9c-2.7-0.6-5.4-1-8-1.3
		c-4.7,3.1-10.4,6.4-12.7,12.2c-1.3,1.3-1.8,3.1-1.4,4.9c-0.8,0.2-1.4,0.4-2.3,0.6c-0.1,4.3-0.4,8.5,0.7,12.8
		c0.5,2.4,1.3,4.7,2.2,7.1c3.9,4.9,7.1,10.3,9.8,16.1c0.4,0.4,0.7,0.9,1.1,1.3c-0.1,0.2-0.1,0.4-0.2,0.6c2.5,5.8,4.5,11.9,6,18.1
		c-3.6,1.2-6.5,4.7-5.2,9.4c4.8,17.8,4.3,37.6,5,56.2c-0.5,2.3-1,4.6-1.6,6.8c0.5,2.5,1,4.9,1.7,7.3c0.5,2.8,1.1,5.5,1.9,8.2
		c3,10.7,8.8,20.3,19.6,27.7c2.4,1.7,4.9,3.3,7.8,4.7l-29.2-2.6c-29.9-2.9-47.9,19.3-47.9,19.3l1,2.3c-4.5,4.2-6.3,7.7-6.3,7.7
		c0,0,0,0,0,0l-11.4,8.3c-2.6,0.7-5.3,0.7-8,0.1c-1.2,4.9,0.7,9.7,0.1,14.6c-0.3,3.3,2.2,6,2.4,9.1c-3.2,8.5-4.7,17.6-4.7,26.6l0,0
		l0,0c0,7.5,1,15.1,2.9,22.3c2,7,0.1,14.2-1.7,21c1.7-0.3,3.4-0.7,5.1-1c-0.4,1.8-0.8,3.5-1.3,5.2c2.3-0.2,4.5-1,6.7-1.7
		c6.4,13.5,15,25.9,25.3,36.6c-1.6,2.5-3.5,4.8-4.7,7.5c-3.8,8.5-3.3,18.6,1.1,26.8c5,9.1,13,16.2,21.6,21.8
		c2.7,1.9,5.9,3.2,8.5,5.4c-7.4,1.3-14.9,2.7-21.8,5.8c-1.8,1-4.3,2.1-4.4,4.5c0.5,2.3,2.9,3.3,4.8,4.3c8.2,3.6,17.2,4.8,25.9,6.5
		c6.5,5,12.9,10.7,20.9,13c2.9,0.3,5.8-0.4,8.6-0.6c20.9-2,41.8-4.2,62.7-6.3c12.4-0.4,24.9,0.1,37.3-0.7
		c16.1-0.3,32.2-1.5,48.2-2.8c13.2-1.4,26.6-2.9,39.5-6.3c4.2-1.2,8.7-2.3,12-5.3c1.2-1,1.3-2.9,0.2-4c-2.6-2.7-6.4-3.6-9.9-4.8
		c-5.4-1.7-10.9-2.6-16.4-3.7c11.5-6.8,23.1-14.5,30.3-26c6-9.3,6.3-22.2,0-31.5C689.8,458.5,683.7,454.7,677.4,451.8z M482.6,373
		c-1.6,3.4-4.2,6.3-6.5,9.4c1.6,2.9,1.4,6.9-0.7,9.5c0.8,3.6,1.2,7.3,2,10.5c0.4,1.4,0.4,2.8,0.1,3.9c2.1,4.7-0.2,11.6-7,11.6
		c-5.6,0-8.2-4.8-7.6-9.1c-0.4-0.6-0.7-1.3-0.9-2.2c-0.6-2.3-0.9-4.7-1.3-7.1c-0.2-1.3-0.7-2.7-0.8-4c-0.1-1.9-1.3-2.3,0.4-1.3
		c-3-1.7-4.7-5.7-3.7-9c2.5-7.9,8.8-13,12.2-20.4C473.1,355.6,486.9,363.7,482.6,373z"/>
	<g>
		<path d="M530.8,162.4l0.2,0.1c2.8,0.2,5.7,0.5,8.5,0.7c-6.5-1.6-13.1-3.2-18.8-5.7c7.4,1.4,14.8,3,22.6,3.3c-2.9-1-6.1-1.8-9-2.9
			l-0.3,0c-0.4-0.2-1.3-0.6-1.7-0.8c4.7,0.7,9.4,1.6,14.2,1.9c1.6-1.1,1.4-2.8,2.1-4.2c-0.9-0.1-1.9-0.3-2.8-0.4
			c-18.6-3.6-35.9-9.4-52.7-15.4c-1.1-0.5-2.3-1.1-3.7-1c-0.3,0.5-0.6,1-0.9,1.4c2.5,1.6,5.1,3.1,7.9,4.5c-3.1-0.7-5.9-1.7-8.7-2.7
			c-1.3,4.1-2.5,8.5-0.5,12.6C501,157.8,515.6,160.9,530.8,162.4z"/>
		<path d="M575.1,241.1c0.4,1,0.7,1-0.8,1.3c-1.3,0.3-2.7,0.7-4,1c-2.7,0.6-5.4,1.2-8.1,1.7c-5.6,1-11.2,1.8-16.9,2.3
			c-3.6,0.3-3.5,4.4,0.2,4.1c7.7-0.7,15.4-1.8,22.9-3.4c3.2-0.7,7.4-1.3,10.3-2.7c2.7-1.3,2.7-3.6,1.8-5.6
			C579.4,237.3,574,238.6,575.1,241.1z"/>
		<path d="M483.3,125.5c-1.4-0.4-2.7-1-3.9-1.8c1,0.9,2,1.9,3.1,2.5C482.7,126,483,125.8,483.3,125.5z"/>
		<path d="M556.7,237.4l0,0.3c0.9,0.2,1.9,0.3,2.9,0.3c0.2,0,0.4,0,0.6-0.1c0.2,0,0.4,0,0.6,0c1,0,2-0.2,2.9-0.5l0-0.3
			c6-2.2,11.5-8.6,14.9-14.9c0.1-0.4,0.1-0.8,0.1-1.3c0.1,0.2,0.3,0.4,0.4,0.5c-0.3-2.3-1.2-4.3-3.6-5.1c-0.8-0.3-1.5-0.7-2-1.3
			c-1.5-0.4-3-0.5-4.3,0c-3.9,0.2-6.9,0.9-10,1.4c-3.1-0.2-6.2-0.7-10-0.5c-0.5-0.1-1-0.2-1.5-0.2c0.1-0.4,0.3-0.7,0.4-1.1
			c0.1-0.3,0.2-0.5,0.3-0.8c-1.6,0.3-2.5,0.7-3.5,1.7c-1.2,1.2-1.9,2.5-2.8,4.2c-0.3,0.5-0.7,1-1.1,1.3c0.1,0.2,0.2,0.4,0.3,0.7
			c0.3,1.1,0.1,2.1-0.4,3.1c-0.1,0.2-0.1,0.3-0.1,0.5c0,0.3,0,0.6,0,0.8c0,0.3,0,0.6-0.1,0.9c0.4-0.4,0.9-0.9,1.3-1.3
			C545.8,231,551.1,235.8,556.7,237.4z"/>
		<path d="M548.2,312c0.2,0,0.3,0,0.5,0c0-1.1,0.1-2.1,0.1-3.2c-0.2,0.1-0.3,0.2-0.5,0.3C548.2,310.2,548.2,311.1,548.2,312z"/>
		<path d="M597.5,269.5c1.7-0.3,2.9-1.1,3.8-2.1C600.2,268.2,598.9,269,597.5,269.5z"/>
		<path d="M576.1,310.3c0.3-0.8,0.6-1.7,0.8-2.6c0-0.2,0.1-0.3,0.2-0.5c-0.5,0-1,0-1.5-0.1C575.7,308.2,575.9,309.3,576.1,310.3z"/>
		<path d="M555.1,255.7c3.9-1.2,8.1-1.6,12.4-1.2c1.8-0.5,3.6-1.5,5.2-2.4c-7.2-0.1-15.5-0.8-21.5,4.2
			C552.3,255.5,553.7,255.6,555.1,255.7z"/>
		<path d="M555.6,262c0.6,0.6,1.2,1.2,1.8,1.6c-1.5-1.1-3.2-0.5-5.2,0.5c0.1,0.1,0.2,0.3,0.3,0.5c0.3,0.6,0.5,1.1,0.7,1.7
			c0.1,0,0.1,0,0.2-0.1c-0.1,0-0.1,0.1-0.2,0.1c0.8,2.1,1.1,4.3,1,6.6c0.4,0.2,0.9,0.4,1.3,0.6c3.5,1.4,4.8,4.3,4.6,8.3
			c0.9,0.5,1.3,1.6,1.4,2.7c0.6,0,1.2,0,1.8,0c0.4-3,0.7-6.1,1.6-9.4c0.5,2.3,1.8,3.3,2.3,5.6c1.3-4.7,0.3-9.3,0.1-13.3
			c1.4,1.9,3.4,2.8,5.7,3.3C568.3,265.9,562.4,263,555.6,262z"/>
		<path d="M529.7,269.4c-1.6-1.2-3-3-4.4-4.8c-0.2-0.2-0.3-0.4-0.5-0.6C526.2,266.3,527.9,268.2,529.7,269.4z"/>
		<path d="M545.7,283.6c-1.2,1.7-1.5,3.8-1.6,5.9C544.8,287.9,545.3,285.9,545.7,283.6z"/>
		<path d="M677.4,451.8c2.7-4.8,5.8-9.4,8.3-14.3c2.3-1.8,5.6-2.5,6.6-5.7c-1.1-1.5-2-3.2-2.8-4.9c2.3-0.5,4.6-1.3,6.7-2.5
			l-3.8-23.1c2.1,0.1,4.2,0,6.2-0.6c-4-5.4-7.8-11.3-8.4-18.1c-0.2-1.2,0.5-2.1,1.1-3.1c0.6-0.8,1.1-1.6,1.6-2.5
			c-0.3-2-0.5-3.9-0.9-5.9c-0.6,0.9-1.3,1.7-1.9,2.6l0,0.3c-0.2,0.2-0.5,0.7-0.7,0.9c0-0.5,0-1.5-0.1-2c-1-1.5-1.3-3.3-1.7-5
			c-1.6-7.1-4.1-14-7.2-20.6c0.4,0.1,0.8,0.3,1.2,0.4c-0.5-1-0.9-1.9-1.4-2.9c0,0-0.1-0.1-0.1-0.1c0,0,0,0,0.1,0
			c-0.7-1.5-1.3-3-1.8-4.5c-0.2-0.5-0.2-0.9-0.2-1.3c-1.3-0.8-2.6-1.7-3.9-2.6c-5.8-26.3-18.5-34.4-29-36.3
			c1.6-2.5-13.8-1.6-25.4-0.6l-1-2.7l0,0c15.8-7.1,27.8-19.7,32-36.6c0.8,0,1.7,0.8,2.5,0.8c2.5-9.5,3.4-19.8,5-29.7
			c0.2-1.6,0.3-3.3,0.4-5c4-2.8,7.1-6.4,9-11.1c3-7.5,5.7-15.2,8.7-22.7c0.6-1.6,1.8-3.3,3.3-4.1c2.4-1.4,3.1-3.2,3.1-5.5
			c0-1.4-0.2-2.8,0-4.2c0.2-1.6-0.2-2.7-1.1-3.4c1.2-1.5,1.4-4.1-0.6-5.6c-8.3-6.1-14.8-14.1-19.3-23.3c-2-4.2-8.3-0.5-6.2,3.6
			c4.5,9.1,10.8,17,18.6,23.4c-5.3-0.9-10.5-1.9-15.7-2.8c0.6-9.7-1.6-17.6-4.5-23.5c2-2,4.5-3.4,7-3.8c4.3-6.6,7.5-14.3,8.6-21.8
			c0.8-4.4,0.2-8.6-0.2-12.8c-0.8-0.2-1.5-0.2-2.3-0.4c0.3-1.8-0.3-3.6-1.7-4.8c-2.8-5.6-8.6-8.4-13.6-11c-2.7,0.6-5.3,1.2-7.9,2
			c-2.6,0.8-5.2,1.7-7.6,2.9c-1.6,4-5.5,4.9-7.7,4c-18.3-9.5-37.4-23.2-58-20.6c-10.7,1.7-20.6-0.9-31.6,1.6c-2.5,0.3-5,0.8-7.5,1.4
			c-15.1,3.8-29.3,12.7-41.7,23.6c-1.5,0.9-3.1,0-4.6-0.8c-2.1-0.9-4.4-2.4-5.9-4.5c-2.3-1.7-4.6-2.6-7.4-1.9c-2.7-0.6-5.4-1-8-1.3
			c-4.7,3.1-10.4,6.4-12.7,12.2c-1.3,1.3-1.8,3.1-1.4,4.9c-0.8,0.2-1.4,0.4-2.3,0.6c-0.1,4.3-0.4,8.5,0.7,12.8
			c1.9,8.9,6.9,17.6,13.1,24.4c-1.7,4.7-2.9,10.2-2.9,16.6c-4.3,0.7-8.7,1.5-13,2.4c4.8-4.9,9.4-10,13.8-15.4
			c2.9-3.6-2.2-8.7-5.1-5.1c-5.8,7.1-12,13.8-18.6,20c-1.4,1.4-1.3,3.1-0.5,4.3c-0.9,1.6-0.7,4,0.1,8c0.2,1.1,1.1,2.4,2,2.9
			c2.4,1.4,3.8,3.3,4.7,5.8c2.2,6.4,4.6,12.7,6.9,19.1c2.7,7.3,7.4,12.6,13.8,15.9c0.9,8,2.3,15.9,4.3,23.8c0.5,2.8,1.1,5.5,1.9,8.2
			c3,10.7,8.8,20.3,19.6,27.7c2.4,1.7,4.9,3.3,7.8,4.7l-29.2-2.6c-29.9-2.9-47.9,19.3-47.9,19.3l1,2.3c-4.5,4.2-6.3,7.7-6.3,7.7
			c0,0,0,0,0,0l-11.4,8.3c-2.6,0.7-5.3,0.7-8,0.1c-1.2,4.9,0.7,9.7,0.1,14.6c-0.3,3.3,2.2,6,2.4,9.1c-3.2,8.5-4.7,17.6-4.7,26.6l0,0
			l0,0c0,7.5,1,15.1,2.9,22.3c2,7,0.1,14.2-1.7,21c1.7-0.3,3.4-0.7,5.1-1c-0.4,1.8-0.8,3.5-1.3,5.2c2.3-0.2,4.5-1,6.7-1.7
			c6.4,13.5,15,25.9,25.3,36.6c-1.6,2.5-3.5,4.8-4.7,7.5c-3.8,8.5-3.3,18.6,1.1,26.8c5,9.1,13,16.2,21.6,21.8
			c2.7,1.9,5.9,3.2,8.5,5.4c-7.4,1.3-14.9,2.7-21.8,5.8c-1.8,1-4.3,2.1-4.4,4.5c0.5,2.3,2.9,3.3,4.8,4.3c8.2,3.6,17.2,4.8,25.9,6.5
			c6.5,5,12.9,10.7,20.9,13c2.9,0.3,5.8-0.4,8.6-0.6c20.9-2,41.8-4.2,62.7-6.3c12.4-0.4,24.9,0.1,37.3-0.7
			c16.1-0.3,32.2-1.5,48.2-2.8c13.2-1.4,26.6-2.9,39.5-6.3c4.2-1.2,8.7-2.3,12-5.3c1.2-1,1.3-2.9,0.2-4c-2.6-2.7-6.4-3.6-9.9-4.8
			c-5.4-1.7-10.9-2.6-16.4-3.7c11.5-6.8,23.1-14.5,30.3-26c6-9.3,6.3-22.2,0-31.5C689.8,458.5,683.7,454.7,677.4,451.8z
			 M659.6,216.1c0.2-2.4,0.3-4.8,0.4-7.2c0.1-2.4,0.1-4.8,0.1-7.3c0.3-2.2,0.6-4.4,0.9-6.6c0.8-6.6,1.1-13.3-0.4-19.5
			c7.2,2.3,9.7,5.7,9.7,13c-0.1,10-1.8,19.6-6.8,28.7c-1.1,2.1-2.6,3.8-4.3,5.3C659.3,220.3,659.5,218.2,659.6,216.1z M683,371.5
			c-0.7-2.7-1.5-5.6-2.4-8.8C681.6,365.5,682.4,368.5,683,371.5z M590.8,309c1.4-0.7,2,2,0.6,2.3C590.3,311.1,590.1,309.6,590.8,309
			z M655.7,196.7c-0.3,6.2-1.1,12.7-3.1,18.7c0.1,0.5,0.1,1.1,0.1,1.5c-0.1,1.1-0.1,2.1-0.2,3.2c0,0.2,0,0.4,0.1,0.6
			c0.1,0.7,0,1.2-0.2,1.7c-0.1,0.9-0.1,1.8-0.2,2.7c0,0.4-0.1,0.9-0.1,1.3c0,0-0.1,0-0.1,0.1c-7.7,2.8-15.8,3.7-24.5,3.8
			c-9.9-0.2-19.9-1.7-29.4-5.3c-5.1-1.9-9.3-4.9-12.4-9.2c-1-1.5-2-3-2.9-4.5c1.2,0.6,2.3,1.3,3.5,1.8c-1.8-2.4-4.4-3.7-6-6.4
			c0,0,0-0.1-0.1-0.1c9.3,2.2,13.9,6.6,23.2,0.5c-1.1,2.7-2.9,5.1-4.4,7.6c3.4-2.2,5.7-6,8.6-8.9c-1.3,4.6-4.6,7.4-7.4,11
			c3.7-1.2,6.1-4.8,9-7.3c-0.9,3.1-3.6,5.3-5.4,7.9c8-3,11.6-10.8,15-18.2c2.5-5.4,8.6-2.4,12.2,0.2c-6.5-22.5-32.1-12.4-47.7-8.7
			c-2.4,0.7-4.9,1.1-7.5,1.3c-0.1-0.9-0.2-1.9-0.2-2.9c-0.2-5.9,2.6-10.1,8.3-12.8c6.1-2.8,12.5-4.2,19.1-5.1
			c3.8-0.3,7.7-0.6,11.5-1c13-0.7,25.8,0.2,38.5,3.2c0.2,0.5,0.3,1.1,0.2,1.7c0,0.2,0,0.4-0.1,0.6
			C655.7,182.4,656,189.9,655.7,196.7z M582.1,199.9c1-1.7,3.2-2.1,4.8-2.5c5.8-1.5,12-3.2,17.8-4.6c1.8-0.2,3.3-0.5,4.9-0.2
			c1.4,0.6,1,2.6,0.1,3.6c-2.6,3.5-6.9,5.7-11,6.9c-4.6,1.1-9.8,1.3-14.4-0.4v0C583.4,202.1,581.7,201.5,582.1,199.9z M662.3,135.5
			c0-0.3,0.2-1,0.2-1.3c0-1.4,0.4-2.6,1.4-3.3C663.5,132.5,663,133.9,662.3,135.5z M455,138.3c1,0.6,1.5,1.8,1.6,3.2
			c0,0.3,0.2,0.9,0.3,1.3C456.1,141.2,455.5,139.9,455,138.3z M452.8,213.5c-3.3-8.3-5.1-16.8-4.9-25.7c0.2-6.9,2.8-10.1,9.9-12.4
			c0.3-0.1,0.7-0.2,1-0.3c0.1,0.8,0.2,1.6,0.3,2.4c-0.2,0-0.4,0-0.6-0.1c1.8,15.7,2.2,31.6,3.9,47.4
			C458,222.2,454.8,218.5,452.8,213.5z M455.9,121.5c-0.3-0.5-0.5-1.1-0.8-1.4c-0.5,1.1-0.8,2.2-0.8,3.4c-0.4-1.7-0.5-3.4-0.2-5.2
			c0,0-0.1-0.1-0.2-0.3c0.4-2.2,0.8-4.9,1.5-7.2c-0.4,0.2-0.9,0.4-1.2,0.4c-0.1-0.1-0.2-0.2-0.4-0.2c1.9-2.8,4.3-5.2,7.7-6.3
			c1.9-1,3.8-1.4,5.7-1.3c1.9,0.1,3.9,0.5,5.8,1.2c5,2.3,11.1,4.1,13.4,10.1c0.8-0.9,2.3-1.7,3.1-1.7c1.4,1.1,2.1,3.6,2.1,5.4
			c10.3-14.2,24.6-22.8,40.2-26.9c2.6-0.7,5.2-1.2,7.9-1.7c27.5-5,64.1-3.2,84,21.7c0.8,0.9,3.8-2.6,7.6-2.6c0.8,0,1.5-1.7,1.9-3.5
			c1.7-1,3.4-2.1,5.2-3.3c5.3-3.4,11.1-6.6,16.9-4.1c3.5,0.8,6,3,8.1,5.6c-0.2,0-0.2,0.2-0.4,0.2c-0.3,0-0.8-0.2-1.3-0.3
			c0.8,2.2,1.4,4.9,2,7c-0.1,0.2-0.2,0.3-0.2,0.3c0.4,1.7,0.5,3.5,0.2,5.2c-0.1-1.2-0.5-2.2-1.1-3.3c-0.3,0.4-0.5,1-0.7,1.5
			c-0.7,6.2-2.3,12.2-5.8,17.1c1.1-3.4,2.8-7,3.1-10.7c-2.4,6.2-5.8,12.8-10.7,16.8c-0.4-0.5-0.8-0.9-1.1-1.3
			c0.9-1.4,1.8-2.8,2.4-4.3c-1.2,1-2.1,2.1-3.3,3.3c-0.9-1-1.5-1.5-1.5-1.5l0.6,2.4c-1.7,1.5-3.6,2.6-5.6,3.2
			c-0.4-0.4-0.9-0.4-1.5-0.6c1.2-0.9,2.3-2.1,3.3-3.4c-1.5,1.1-3,2-4.8,2.7l-0.8-0.3c0.1,0,0.1-0.1,0.1-0.1c-0.9,0.3-2,1-2.5,1.5
			l0,0.7c1.3-0.9,3-1,4.5,0.4c4.8,4.8,7.9,11.8,10.3,18.2c0.1,0.2,0.1,0.3,0.2,0.5c0.3-0.2,0.7-0.3,1-0.5c-0.1-1.2,0.1-2.5,0.3-3.6
			l3.5,14.6c-3.4-0.5-6.8-1-10.3-1.4c-4-0.4-8-0.7-11.9-0.9c0.2-0.3,0.4-0.6,0.6-0.9c-0.4,0.1-1.2,0.2-1.6,0.3
			c-4.8-0.2-9.6,0.1-14.3-0.4c5.4-0.2,10.5-1.2,15.8-1.9c1.8-0.7,1.4-2.2,1.9-3.3c-2.7,0.7-5.6,1.2-8.4,1.6
			c-1.5-0.1-3.1,0.2-4.6,0.3c3.8-1.2,7.8-2,11.5-3.2c0.7-0.4,1.9-0.6,1.7-1.3c0-2.2-0.1-4.4-1-6.5c-1.5,0.3-3,0.7-4.5,1.1
			c-18.6,4.2-37.5,8.1-57.3,9.5c-0.3,0-0.9,0-1.3,0c0.6,1.8,0,3.7,1.2,5.4c3.1-0.1,6.1,0,9.2,0.2c-2.6,0.6-5.3,0.8-8,1.1
			c-2.1-0.2-1.3,1.2-0.8,1.9c4.2,0.7,8.7,0.6,13,0.8c0,0,0,0,0,0c-4,1.1-7.9,2.4-11.8,4c-8.8,3.5-18.4,3.3-27.3-0.1
			c-16.1-6.1-32.7-9-49.7-8.5c-10.5-0.2-20.8,0.7-31,2.1l1.7-7c0.5,0.4,1,0.8,1.4,1.3c0.1,0.2,0.3,0.4,0.4,0.5
			c0.3-0.4,0.6-0.7,1-0.9c2.3-6.8,5.6-13.6,10.4-18.8c0,0,0,0,0,0c-2.5-0.5-4.7-1.6-6.8-3.4c-0.4-0.3-0.8-0.7-1.1-1l0.8-3.5
			c0,0-0.9,0.8-2.3,2.3c-0.3-0.3-0.7-0.5-1.1-0.8c0.2,0.4,0.4,0.8,0.7,1.2c-0.5,0.6-1.1,1.3-1.7,2.1c-3.8-3.6-6.8-8.7-9.2-13.6
			c0.5,3.6,2.5,7.1,3.9,10.4C459.1,133.5,457,127.6,455.9,121.5z M646.2,139.2c-0.5,0.3-1,0.6-1.5,0.8c0.4-0.6,0.9-1.2,1.3-1.8
			L646.2,139.2z M470.8,143.4l0.5-2.1c1.1,1.4,2.3,2.8,3.5,4.1C473.4,145,472.1,144.3,470.8,143.4z M466.5,220.4
			c0.2,0.4,0.5,0.7,0.7,1.1c0-0.2,0-0.4,0.1-0.6c1.6-7.3-1.3-15-2.8-22.2c-1.2-5.8-1.8-11.6-0.3-17.3c-0.1,0-0.2,0.1-0.3,0.1
			c0-2.1,0-3.6,0.4-5.3c-0.5-0.1-0.9-0.1-1.4-0.2l0.5-2.3c10.8-2.7,22-3.5,33.3-3.8c11.1,0.3,22.3,1,33.1,4.7c1.5,0.5,3,1.2,4.5,1.8
			c5.8,2.6,8.6,7,8.2,12.9c-0.1,0.9-0.2,1.8-0.3,2.7c-2.5-0.2-5-0.7-7.3-1.3c-15.6-3.7-41.2-13.8-47.7,8.7c3.6-2.6,9.7-5.6,12.2-0.2
			c3.4,7.5,7,15.2,15,18.2c-1.8-2.5-4.5-4.7-5.4-7.9c2.9,2.5,5.3,6.1,9,7.3c-2.7-3.6-6-6.5-7.4-11c2.9,2.9,5.3,6.7,8.6,8.9
			c-1.5-2.5-3.3-4.9-4.4-7.6c9.4,6.2,13.9,1.7,23.3-0.5c-1.6,2.8-4.3,4.1-6.1,6.5c1.2-0.6,2.4-1.2,3.6-1.9c-1.8,2.9-4,5.7-6.5,8.4
			c-4.1,4.3-10.1,6.1-15.9,7.6c-14.5,3.8-29,4.2-43.5,0.4c-0.8-0.2-1.7-0.5-2.5-0.7C466.9,224.8,466.6,222.6,466.5,220.4z
			 M533.9,202.7L533.9,202.7c-4.6,1.7-9.8,1.5-14.4,0.4c-4.1-1.2-8.3-3.4-11-6.9c-0.9-0.9-1.3-2.9,0.1-3.6c1.6-0.4,3.1,0,4.9,0.2
			c5.8,1.4,12,3.1,17.8,4.6c1.7,0.4,3.8,0.8,4.8,2.5C536.6,201.5,534.9,202.1,533.9,202.7z M477.1,263.1c-1.1-2.6-1.9-5.2-2.7-7.8
			c-2-8.5-4.8-16.5-6.5-24.8c1.7,0.6,3.6,1.1,5.5,1.5c14.6,2.9,29.1,1.3,43.5-1.6c11-2.2,19.5-9.3,23.4-19.3c0.3-0.9,0.7-1.7,1-2.5
			c0.7-0.3,1.4-0.5,2-0.8c0.2-0.1,0.3-0.2,0.5-0.3c2.1-4.7,3.1-9.7,3.3-14.8c0.2-0.5,0.3-1,0.5-1.5c1.4-4.2,3.4-5.9,8.1-6.3
			c1.4-0.1,2.9-0.1,4.3-0.1c6.9,0.1,9,1.8,10.9,7.9c0,0.1,0.1,0.3,0.1,0.4c0.2,4.9,1.2,9.7,3.2,14.3c0.2,0.1,0.4,0.2,0.5,0.3
			c0.3,0.1,0.6,0.2,1,0.3c0.6,1.5,1.3,3.1,2,4.5c5,9.7,11.6,14.1,23.1,17.7c8.8,2.7,17.1,3.7,26.4,3.7c7.1,0,15.1-1,21.8-3.1
			c0.9-0.3,1.7-0.6,2.5-0.9c-0.1,0.8-0.1,1.7-0.2,2.5c-0.5,27.6-16.6,54.6-46.4,62.8c-1.4,0.7-3,1.7-4.8,2.6
			C595,300.7,589,304,589,304c-0.9-2.1-2-4.2-3.1-6.2c0.1,0.1,0.1,0.1,0.2,0.2c4.9-5,10.6-9.4,13.7-15c1.8-2.4,3.5-4.8,4.9-7.4
			c4.2-7.6,6-16.3,2.3-27.6c-1.3-3-2.7-5.7-4-8.3c-1.1-2-2.1-4.5-3.4-6.6s-2.8-3.9-5-4.5c1.2,1.6,2.4,3.6,3.6,5.9
			c2.4,4.6,4.6,10.4,5.6,16c0.5,2.8,0.7,5.5,0.5,8c-0.4,2.8-1,6.5-3.2,8.8c1.5-1.1,2.9-2.3,4.3-3.6c-5.2,11.4-10.3,29.3-20.6,31.9
			c-0.6-1.1-1.1-2.1-1.6-3.2c0.7,5.2,1.8,10.3,2.4,15.5c0.7,1.9,0.8,3.9,0.4,5.9c-2,1.2-3.9,2.5-5.9,3.8c0,0.3,0,0.6,0,0.9
			c0,3.3-3.7,4.2-5.8,2.8c-0.5,0.3-1.1,0.7-1.6,1l-5.1-15.6l1.8,17.6c-2.7,1.6-5.3,3.2-8,4.8c-1,0.6-2.1,0.9-3.2,1.3l0,0.2
			c-0.5,0.2-1.4,0.4-1.9,0.6c-2.5-1.5-4.9-3.2-7.4-4.7c0-0.4,0-0.7-0.1-1.1c-1,0.4-2.2,0.4-3.2-0.1l2.2-21.9l-4.2,19.7
			c-3.3-2.4-6.8-4.5-10-7c-1-2.8-0.3-6-0.8-9c-0.8,2.3-1.5,4.6-2.1,7c-0.8-0.7-2.5-1.2-2.2-2.5c0-6.2,1-12.4,2.1-18.6
			c0,0,0-0.1,0.1-0.1c0,0,0,0,0,0c0.5-2.8,1.1-5.7,1.6-8.5c-0.3-0.1-0.7-0.2-1-0.2c-0.9,2.4-1.7,4.9-2.5,7.3c-0.1,0-0.1-0.1-0.2-0.1
			c-5.2-4.8-8.7-10.7-10.7-17.5c-0.9-2.3-1.7-4.7-2.4-7.1c-0.7-2.4-1.4-4.8-2-7.2c1.5,1.1,2.9,2.6,4.3,4.2c-0.1-0.2-0.2-0.4-0.4-0.6
			c-1.5-2.7-2.7-5.9-3.1-9.4c-1-8.2,1.5-17.5,5.7-23.2c-3.5-1.2-6.8,2.2-7.6,6.9c0.8-1.2,1.7-2.3,2.5-3.5
			c-1.6,9.3-9.2,16.2-6.5,26.7l0.8-1.2c2.6,4.6,5.2,9.2,4.6,14.8c0.2-0.8,0.8-0.9,0.8-1.9c0.8,2.5,1.8,4.9,3.1,7
			c3,4.8,7,9.6,10.3,14.7c-0.7,2.3-1.3,4.6-2.1,6.9l0,0.9c-2.3-1.3-4.7-2.6-6.9-4.1c0.1-0.5,0.2-1.1,0.3-1.6
			c-1.5,0.4-3.4-0.1-4.6-1.3c0,0,0,0.1-0.1,0.1c-2.1-1.1-4.2-2.3-6.3-3.5c-3.4-0.9-6.4-2-9.1-3.4c-2.7-1.4-5.1-3-7.2-4.8
			C484.9,277.8,480.3,270.7,477.1,263.1z M548.3,330.8l-3-2l0.1-1.3c0.6,0.3,1.1,0.7,1.5,1.4C547.3,329.6,547.8,330.2,548.3,330.8z
			 M486,439c3.9,5.1,2.5,20.2,2.5,20.2c-0.6,3-2.2,6.8-5.8,6.9c-3.1,0.2-4.9-2.8-5.6-5.4c-1.6-5.9-2-12.2-1-18.2
			c0.4-1.3,1.1-2.8,2.2-3.7c0.6-0.2,1.2-0.4,1.9-0.8C482.2,438,484.4,437.9,486,439z M461.6,378.8l17.4-15.1
			c-0.1,0.9-0.2,1.9-0.4,2.8c-0.6,5-3.9,8.8-7,12.5c1.6,0.4,3.3,0.7,4.9,1c-0.5,3-2.7,5.3-4.5,7.6c1.2,0.3,2.3,0.6,3.5,0.9
			c-1.4,9.4-3.3,18.6-5.6,27.8c-1.1-1.5-2.1-3.2-2.8-4.9c-3.7-7.9-7.2-15.9-9.9-24.2L461.6,378.8z M400.9,334.1l6.6,8.2
			c-3.2-2.1-6.6-4.5-7.9-8.2C400,334.1,400.4,334.1,400.9,334.1z M407.3,416.4c-5.2-11.7-8.6-24.5-8.8-37.3l52.1,7.3
			c2.4,7.5,5.3,14.8,8.5,22c4.3,9.6,9.2,18.9,14.9,27.7c0,0.2,0.1,0.4,0.1,0.6c-0.2,0.6-0.6,1.4-0.8,1.9c-0.1,0.4-0.2,1.3-0.3,1.7
			c-1.3-1.8-2.5-4-4.7-4.9c-1.9-1.1-4-1.1-6.1-1.3c-5.7,0.2-11,3.9-12.9,9.3c-2-2.2-4.5-4.3-7.6-4.4c-3.2-0.3-6.1,1.4-8.6,3.3
			c-2.7,2.7-3.4,6.5-3.3,10.2C421,441.3,413,429.5,407.3,416.4z M470.9,454.9c-0.1,4,0.2,8.3-1.8,12c-1.3,2.7-4.2,4.9-7.3,4.6
			c-3.7-0.6-5.8-4.5-6.1-8c-0.8-5.6-2.8-11.1-2.9-16.8c0.9-3.3,2.8-6.6,6.2-7.6c4-1.9,9.3,0.2,10.8,4.4
			C471.1,447.1,470.9,451.1,470.9,454.9z M451.3,467.3c-0.1,4.9-6.2,7.7-10.1,5.1c-5.6-3.7-6.7-11-7.7-17.2c0-4.3,1.9-9.1,6.1-10.8
			c3.1-0.7,6.1,1.3,7.8,3.7C449.6,454.4,450.8,460.8,451.3,467.3z M427.3,480.8c0-3.7,0.7-7.5,2.2-10.9l0.1,0.3
			C428.1,473.5,427.4,477.2,427.3,480.8z M445.6,478.9c-6.5,1-10.4-5.7-13.4-10.6c-0.1-0.4-0.2-1.2-0.2-1.6c-0.8,1-1.7,2-2.5,3
			l-0.1-0.3c0.8-1,1.7-2,2.5-3c0.1,0.4,0.2,1.1,0.2,1.5c3,4.7,6.8,11,13.4,10.1c4.6,0,7.4-4.3,8.7-8.2c3,6.6,13.4,6.9,17.3,1.1
			c1.3-2.1,2-4.4,2.8-6.7c2.1,4.1,6.9,7,11.5,5.5c2.6-0.7,4.2-2.9,5.4-5.1c0.9,0.3,1.7,0.6,2.6,0.9c1.8,0.6,3.6,1.2,5.4,1.8
			c0.2,0.2,0.3,0.3,0.5,0.5c-2-0.7-3.9-1.4-5.9-2.1c-0.9-0.3-1.7-0.6-2.6-0.9c-1.2,2.4-2.8,4.7-5.4,5.4c-4.6,1.5-9.4-1.5-11.5-5.8
			c-0.9,2.4-1.6,4.8-2.8,7c-3.9,6.1-14.3,5.8-17.3-1.2C453,474.4,450.2,478.9,445.6,478.9z M450.4,512.5c-0.4-1.9-0.7-3.9-0.7-5.8
			l-0.4-0.3c0.1-0.7,0.1-1.4,0.2-2.1l0.2,0.1c0.1,3,0.7,5.9,1.7,8.7C451.1,512.9,450.8,512.7,450.4,512.5z M533.9,543.1
			c0.1-0.9,0.3-1.8,0.5-2.7c-1.6,0.7-3.3,0.8-4.9,0.6c0,0.3-0.1,0.6-0.1,1c-11.3,2.8-22.8,4.5-34.3,6.2c-4.1,0.4-8.2,1.5-12.3,1.1
			c-3-1.4-5.7-3.5-7.8-6c1.9-0.8,3.8-1.5,5.7-2.2c1.2-0.6,2.4-1.2,3.6-1.8c-1.5,0.3-2.9,0.5-4.4,0.8c-2.2,0.3-4.5,1-6.7,0.8
			c-1.6-2-2.5-4.5-3.5-6.8c2-0.9,4-1.7,6-2.4c0.6-0.3,1.3-0.6,1.9-0.9c-0.6,0-1.8-0.1-2.4-0.1c-2.1,0.2-4.2,0.9-6.3,0.6
			c-1.2-2.7-1.3-5.6-1.5-8.5c2.1-0.2,4.2-0.5,6.4-0.7c2.1-0.2,4.1-0.3,6.1-1c-3.1-1-6.3-1.2-9.5-1.3c-1.1,0.2-1.8-0.9-2.3-1.7
			c-2.7-4.3-4.9-8.8-6.4-13.6c-0.4,5.1,0.7,10.2,2.8,14.9c-4.5-0.4-8-4.1-9.6-8.2c-1.6-3.7-1.8-7.8-1.5-11.8c0.2-3,3-5.6,6-5.4
			c2.7-0.3,5.4,0.3,8.1,0.7c6.3,0.8,12.6,1.5,18.8,2.4c8.7,1.4,17.6,1.2,26.4,1.7c0.3,0,0.8,0,1.1,0.1c2.3-0.3,4.5-0.3,6.8,0
			c0.1,0.4,0.2,0.7,0.3,1.1h6.1c-0.6-1.2-1-2.4-1.3-3.7c11.5,0.5,22.6-2.8,33.4-6.1c-5.2,4.9-11.8,8.1-18.3,10.8
			c-1.8,0.8-3.4,2.1-4,4c-0.5,2.2,1.1,4.1,2.6,5.4c3.5,2.9,8.1,4.2,12.5,4.9c4.1,0.4,8.3,0.4,12.4-0.2c2,7.4,2.9,15,2.9,22.6l1,0.7
			C556.7,538.8,545.2,540.6,533.9,543.1z M624.7,492.7c-0.6-0.4-1.7-1.2-2.2-1.5c-0.8-0.8-1.5-1.6-2.1-2.5c-0.8,1.1-1.6,2.2-2.4,3.4
			c0.9,1.6,2,3.2,2.9,4.8c-1.2,4.6-3.3,9-5.6,13.2c-0.5,1-1.2,2-0.6,3.1c1.5,5.7,3.2,11.3,4.5,17.1c0.5-1.3,0.9-2.7,1.3-4.1
			c2.3,0,4.9-0.8,6.9,0.6c2.1,2.5,2.4,6.2,1.8,9.3c-3.8,1.6-7.9,2.6-11.9,3.7c-4.1,1.2-9.7,2.6-12.9-0.9c-0.9-7.1-1.5-14.9-6.5-20.5
			c0,0.3-0.1,1-0.2,1.3c1.8,3.2,1.6,7,2,10.6c0.3,2.5,0.4,5,0.1,7.5c-2.8,0.8-5.8,1.1-8.8,0.7c-0.9-0.1-1.7-0.2-2.6-0.2
			c-0.4-7.2-1.1-14.9-5.2-21c0.2,1.4,0.5,2.8,0.5,4.2c1.4,4.1,0.6,8.5,0.8,12.8c-0.2,1.5,0.3,3.6-0.9,4.8c-3.8,0.4-8,0.4-11-2.1
			c-0.5-0.7-1-1.3-1.5-1.9c-0.8-8.9-1.1-18-4.7-26.3c-1-2.4-2.8-4.4-4.4-6.4c-0.3,0.2-0.9,0.5-1.2,0.7l0.2,0.3
			c1.3,2.4,2,5.1,2.4,7.8c-6.5,1.6-14.2,1.7-19.7-2.7c-1.6-0.8-2.2-3.5,0-3.9c9.6-2.7,18.1-9.2,23-17.9c1.1-2.4,2.2-4.7,3.4-7
			c0.8,0,1.6-0.1,2.3-0.1c0.5-1.1,1.1-2.1,1.7-3.2c-0.1-0.4-0.2-0.8-0.2-1.2c0-0.4,0-0.8,0.2-1.1c-1.2,0.2-2.4,0.3-3.5,0.5
			c0.5-1.4,1.1-2.9,2.1-4.1c5.9-11.1,15-20.1,24.5-28.2c12.1-10.2,25.5-18.8,39.3-26.6c5.1-2.7,10.1-6.3,16.1-6.7l37,13.2
			c-2.2,0.4-4.4,0.8-6.5,0.2c-0.7,0-2.1,0.1-2.8,0.2c1.5,1,3.1,1.8,4.8,2.4c0.7,1.9,1.6,3.8,2.6,5.6c-2.1,2.5-5.5,3.2-8.6,3.6
			l-0.5,0.8c0.5,0.1,1.5,0.2,2,0.3C668.5,459.6,648.7,480,624.7,492.7z"/>
	</g>
</g>
<path d="M104,199.8v-39.2h13.9c6.2,0,11.1,1.7,14.8,5.2c3.6,3.5,5.5,8.2,5.5,14.3c0,6.1-1.8,10.9-5.5,14.4
	c-3.6,3.5-8.6,5.2-14.8,5.2H104z M113.6,191.6h3.9c3.4,0,6-1,7.9-3c1.9-2,2.8-4.8,2.8-8.5c0-3.7-0.9-6.4-2.8-8.4
	c-1.9-1.9-4.5-2.9-7.8-2.9h-3.9V191.6z"/>
<path d="M142.3,180c0-5.7,1.9-10.5,5.8-14.3c3.8-3.8,8.7-5.7,14.7-5.7c6,0,10.9,1.9,14.7,5.7c3.8,3.8,5.8,8.6,5.8,14.3
	c0,5.8-1.9,10.7-5.8,14.6c-3.8,3.9-8.7,5.9-14.7,5.9c-6,0-10.9-2-14.7-5.9C144.2,190.7,142.3,185.8,142.3,180z M152.2,180
	c0,3.4,1,6.2,3,8.4c2,2.2,4.5,3.3,7.6,3.3s5.6-1.1,7.6-3.3c2-2.2,3-5,3-8.4c0-3.2-1-5.9-3-8c-2-2.1-4.5-3.2-7.6-3.2
	s-5.6,1.1-7.6,3.2C153.2,174.1,152.2,176.8,152.2,180z"/>
<path d="M189.3,199.8v-39.2h9.7l10.8,18.3c0.4,0.8,0.9,1.7,1.5,2.8c0.5,1.1,1,2,1.3,2.8l0.5,1.1h0.1c-0.3-2.8-0.4-5-0.4-6.7v-18.3
	h9.6v39.2h-9.6l-10.9-18.2c-0.4-0.8-0.9-1.7-1.5-2.8c-0.5-1.1-1-2-1.3-2.8l-0.5-1.1h-0.1c0.3,2.8,0.4,5,0.4,6.7v18.2H189.3z"/>
<path d="M226.3,199.8l13.3-39.2h10.1l13.3,39.2h-9.9l-2.4-8.2h-12.2l-2.4,8.2H226.3z M240.8,183.9h7.7l-2.2-7.6l-1.6-6.7h-0.1
	c-0.6,2.8-1.1,5.1-1.6,6.7L240.8,183.9z"/>
<path d="M272.1,199.8v-16l-12.9-23.1h10.9l4.4,9.4l2.4,5.6h0.1c0.7-2,1.5-3.9,2.4-5.6l4.4-9.4h10.9l-12.9,23.1v16H272.1z"/>
<path d="M298.2,199.8v-39.2h13.6c3.5,0,6,0.3,7.6,0.9c2.3,0.9,4,2.3,5.3,4.2c1.3,2,1.9,4.3,1.9,7.1c0,2.2-0.5,4.3-1.5,6.3
	c-1,2-2.5,3.5-4.3,4.4v0.1c0.4,0.5,0.9,1.3,1.5,2.4l7.6,13.7h-10.7l-7-13.2h-4.5v13.2H298.2z M307.8,178.4h4.2
	c1.6,0,2.8-0.4,3.7-1.3c0.9-0.8,1.3-2,1.3-3.6c0-2.2-0.8-3.5-2.3-4.2c-0.8-0.4-2-0.5-3.6-0.5h-3.2V178.4z"/>
<path d="M334.3,199.8v-39.2h24.5v8.2h-15v7.1h11.9v8.2h-11.9v7.4h15.7v8.2H334.3z"/>
<g>
	<path d="M112.9,249.7v-40.5h9.9v16.2h14.7v-16.2h9.9v40.5h-9.9v-15.8h-14.7v15.8H112.9z"/>
	<path d="M151.5,249.7l13.8-40.5h10.4l13.8,40.5h-10.2l-2.5-8.5h-12.6l-2.4,8.5H151.5z M166.4,233.2h8l-2.3-7.9l-1.6-7h-0.1
		c-0.6,2.9-1.2,5.3-1.6,7L166.4,233.2z"/>
	<path d="M193.4,249.7v-40.5h14.1c3.6,0,6.2,0.3,7.9,1c2.3,0.9,4.2,2.4,5.5,4.4c1.3,2,2,4.5,2,7.4c0,2.3-0.5,4.4-1.6,6.5
		c-1.1,2.1-2.5,3.6-4.5,4.6v0.1c0.4,0.5,0.9,1.3,1.5,2.4l7.9,14.1h-11L208,236h-4.6v13.6H193.4z M203.3,227.5h4.3
		c1.6,0,2.9-0.4,3.8-1.3c0.9-0.9,1.4-2.1,1.4-3.7c0-2.2-0.8-3.7-2.4-4.3c-0.9-0.4-2.1-0.6-3.7-0.6h-3.3V227.5z"/>
	<path d="M239,249.7v-32h-12.3v-8.5h34.5v8.5h-12.3v32H239z"/>
</g>
<g>
	<path d="M275.4,240.2c-0.9,0.5-2,0.7-3.1,0.7c-0.7,0-1.4,0-2-0.2c-0.2,0-0.4,0-0.5-0.2c0-0.5-0.5-1.4-1.8-1.4c-0.9,0-1.4,0.7-2,1.4
		c-0.5,0.9-0.7,1.4-0.7,2c0,0.7,0.4,1.8,2.3,2.3c1.1,0.4,2.3,0.4,4.1,0.4c2,0,3.9-0.4,5.6-1.3c1.6-0.9,3.1-2,3.9-3.2
		c0.9-1.4,1.4-2.9,1.4-4.3c0-1.8-0.9-3.4-2.5-4.7c-1.4-1.1-3.4-2-6.3-2.9c-1.8-0.5-3.2-1.1-4.1-1.4c-0.9-0.4-1.4-0.7-2-1.1
		c-0.4-0.4-0.4-0.7-0.4-0.9c0-0.2,0.2-0.7,1.4-1.8c1.3-0.9,2.7-1.6,4.3-2.2s3.1-0.9,4.1-0.9c0.4,0,0.5,0,0.5,0c0.2,0,0.2,0,0.4,0.2
		c0,0,0.2,0,0.2,0.2c0.4,0.2,0.7,0.4,1.1,0.4c0.9,0,1.8-0.5,1.8-1.8c0-0.5,0-1.1-0.2-1.6c-0.2-0.7-0.7-1.6-2.9-1.6
		c-2,0-4.3,0.4-6.6,1.3s-4.3,2-5.9,3.4c-1.8,1.6-2.7,3.2-2.7,5c0,1.4,0.5,2.5,1.4,3.4c0.9,0.7,2,1.4,3.2,2c1.3,0.5,2.9,1.1,5,1.8
		l0,0c2,0.5,3.6,1.3,4.5,2s0.9,1.3,0.9,1.6c0,0.5-0.2,1.1-0.7,1.6C276.8,239.1,276.1,239.8,275.4,240.2z"/>
	<path d="M298.4,230.7c1.1-0.2,1.8-0.4,2.3-0.7l0,0c0.7-0.5,1.1-1.3,1.1-2.2c0-0.5-0.2-1.1-0.7-1.8c-0.5-0.5-1.1-0.9-1.8-0.9
		c-0.4,0-1.1,0.2-1.6,1.1c-2,0.4-3.4,0.7-4.5,0.9c0-0.9,0-1.6,0-2.3c0-1.1,0-2,0.2-2.5c0.2-1.1,0.2-1.3,0.2-1.4
		c0-0.5-0.2-1.1-0.5-1.3c-0.4-0.4-0.7-0.5-1.4-0.5c-1.1,0-2,0.5-2.3,1.6c-0.2,0.5-0.4,1.1-0.4,1.8c0,0.5-0.2,1.3-0.2,2.3
		c0,0.5,0,1.4,0,2.7c0,0.4,0,0.5,0,0.7c-0.5,0.2-1.3,0.2-2.2,0.4l0,0c-0.2,0-0.4,0-1.3,0.2c-0.7,0.2-1.3,0.2-1.3,0.2
		c-0.7,0-1.3,0-1.6,0.2c-0.7,0.4-1.1,1.1-1.1,1.8c0,0.7,0.4,1.4,0.9,1.8c0.5,0.4,1.1,0.5,1.6,0.5c0.2,0,0.7,0,2.5-0.4
		c0.9-0.2,1.8-0.4,2.5-0.5c0,0.7,0,1.4,0,2.3c0,1.3,0.2,2.5,0.2,3.6c0,1.1,0.2,2.2,0.4,3.2c0.2,1.1,0.4,1.8,0.5,2.2
		c0.2,0.4,0.4,0.7,0.5,0.9c0.4,0.4,0.7,0.5,1.3,0.5c0.5,0,1.1-0.2,1.6-0.5c0.9-0.5,1.1-1.4,1.1-1.8v-0.2v-0.2c0-0.2,0-0.4-0.4-1.4
		c-0.2-0.7-0.4-1.6-0.4-2.9c0-1.1-0.2-2.2-0.2-3.6c0-0.9,0-1.8,0-2.7l1.3-0.2C295,231.4,296,231,298.4,230.7z"/>
	<path d="M304.5,244.5c1.3,0,2.5-0.9,3.9-2.7c1.3-1.6,2.5-3.4,3.8-5.6c0.2-0.4,0.4-0.5,0.5-0.9c0,1.8,0.2,3.1,0.2,3.8
		c0.2,1.3,0.4,2.3,0.9,3.6c0.5,1.6,1.4,2.3,2.5,2.3c0.9,0,1.4-0.4,1.8-0.7l0,0c0.4-0.4,0.7-0.9,0.7-1.8c0-0.5-0.4-0.9-0.7-1.4
		c-0.2-0.2-0.4-0.4-0.5-1.1c-0.2-0.2-0.4-0.7-0.4-1.8c-0.2-1.1-0.2-3.1-0.4-5.7c0-2.7-0.2-4.8-0.2-5.9c0-0.5-0.2-1.3-1.1-1.8
		c-0.4-0.2-0.5-0.4-0.9-0.4V224l-0.2,0.4c-0.2,0-0.4-0.2-0.7-0.2c-0.2,0-1.1,0-1.4,1.1c-0.2,0.2-0.2,0.5-0.4,1.1
		c-0.4,1.1-0.5,1.8-0.5,2c-0.5,1.4-1.3,3.1-2.3,4.8c-1.1,1.8-2,3.4-3.1,4.8c-0.4,0.5-0.7,0.9-0.9,1.1c0-0.2,0-0.5,0-1.1
		c0-2.7,0.2-4.8,0.7-6.5s1.1-2.9,1.6-4.1c0.4-0.7,0.5-1.1,0.5-1.4s-0.2-1.6-2.2-1.6c-0.5,0-1.1,0.2-1.6,0.7
		c-0.2,0.4-0.5,0.7-0.9,1.4c-0.7,1.3-1.3,3.1-1.6,5.2c-0.5,2.3-0.7,4.3-0.7,6.1c0,2,0.2,3.4,0.4,4.5
		C302,243.6,303,244.5,304.5,244.5z"/>
	<path d="M330.7,241.3c0,0.5,0,1.1,0.2,1.4c0.4,0.7,0.9,1.1,1.8,1.1c0.5,0,0.9-0.2,1.4-0.5c0.9-0.5,1.1-1.3,1.1-1.8
		c0-0.2,0-0.5-0.2-1.4l0,0c0-0.2,0-0.4,0-0.4c0-0.2,0-0.2,0-0.4v-0.2c0-0.9-0.2-2.7-0.4-5.6c-0.2-2.9-0.2-5.6-0.2-8.4
		c0-1.4,0-2.9,0-4.1c0-1.4,0-2.3,0-2.9v-1.8l0,0c0-0.7-0.4-1.4-0.9-1.8c-0.5-0.4-0.9-0.5-1.4-0.5c-0.9,0-1.3,0.5-1.4,0.7
		c-0.2,0.2-0.2,0.5-0.4,0.9c-0.2,0.7-0.2,1.8-0.2,3.4c0,0,0,0.2,0.2,3.9c-0.2,0-0.4,0-0.5,0c-1.3,0-2.7,0.9-4.7,2.9
		c-1.8,1.6-3.2,3.8-4.7,6.1c-1.4,2.5-2.2,4.7-2.2,6.8c0,1.8,0.4,3.1,1.1,4.1c1.1,1.4,2.3,1.6,3.2,1.6c2.3,0,4.3-1.6,6.3-4.5
		c0.5-1.1,1.3-2.2,1.8-3.4v0.4C330.7,238.6,330.7,240,330.7,241.3z M326.7,236.1c-0.9,1.6-2.2,3.8-3.8,3.8c-0.2-0.4-0.2-0.7-0.2-1.1
		c0-1.4,0.5-3.1,1.4-4.7c0.9-1.8,2.2-3.4,3.4-4.7c0.2-0.2,0.4-0.4,0.5-0.5c0.2,0.2,0.2,0.4,0.4,0.4c0.4,0.2,0.5,0.2,0.9,0.2
		C328.7,231.9,327.6,234.1,326.7,236.1z"/>
	<path d="M337.1,230.3c0,2,0.2,3.8,0.2,5.7c0.2,3.1,0.4,5,0.5,6.1c0.2,0.7,0.4,2.7,2,2.7h0.2c0.5,0,0.9-0.2,1.3-0.4l0,0
		c0.5-0.4,0.9-1.1,0.9-1.6c0-0.4,0-0.7-0.4-2.2c-0.2-1.6-0.4-2-0.4-2.2l0,0c-0.2-1.4-0.2-3.4-0.2-5.7v-4.3c0-2-0.2-2.7-0.4-3.1
		c-0.4-1.1-1.3-1.6-2.3-1.6c-0.9,0-1.4,0.5-1.6,0.9c-0.2,0.4-0.4,0.7-0.4,1.3l0,0C337,227.1,337,228.5,337.1,230.3z"/>
	<path d="M336.8,221.4c0.7,0.5,1.4,0.7,2.2,0.7c2.3,0,2.5-1.4,2.5-1.8c0-0.5-0.4-0.9-0.7-1.4c-0.4-0.4-0.5-0.7-0.7-0.9
		c-0.4-0.4-0.9-0.7-1.4-0.9h-0.2H338c-0.4,0-1.1,0.2-1.6,0.7c-0.7,0.5-0.7,1.3-0.7,1.8C335.5,220.3,336.2,221,336.8,221.4z"/>
	<path d="M352.7,227.3c0-0.7-0.4-1.3-0.9-1.6c-0.4-0.2-0.9-0.4-1.3-0.4c-0.7,0-1.4,0.2-2.2,0.7c-0.5,0.4-1.1,1.1-1.6,1.8
		c-0.5,0.7-0.5,1.1-0.5,1.1c-0.9,1.4-1.4,3.1-2,4.8s-0.7,3.4-0.7,4.7c0,1.6,0.5,3.1,1.4,4.1c1.1,1.3,2.5,1.8,4.7,1.8
		c2,0,3.6-0.5,5.2-1.6c1.4-1.1,2.5-2.2,3.4-3.6l0,0c0.9-1.4,1.3-2.7,1.3-3.9c0-1.4-0.4-2.7-1.3-3.8c-0.7-0.9-1.6-1.8-2.7-2.7l0,0
		v-0.2c0-0.7-0.4-1.3-1.1-1.4c-0.2-0.2-0.5-0.2-1.1-0.2C353.1,227.3,352.9,227.3,352.7,227.3L352.7,227.3z M354.4,234.3
		c0.4,0.4,0.5,0.7,0.5,1.3c0,0.5-0.2,1.1-0.7,1.8c-0.5,0.7-1.1,1.4-1.8,2c-0.7,0.5-1.4,0.7-2.3,0.7c-2.2,0-2.2-0.9-2.2-1.4
		c0-1.3,0.2-2.5,0.5-3.6c0.4-1.1,0.9-2.3,1.4-3.4l0,0c0.2-0.2,0.2-0.5,0.4-0.7c0.2,0.2,0.4,0.4,0.4,0.5c0.4,0.4,0.9,0.7,1.6,1.3
		C353.3,233.2,354,233.7,354.4,234.3z"/>
</g>
<path d="M312.6,143.3h-62c-6.5,0-6.6,4.7,0,4.7h62C319.1,148,319.1,143.3,312.6,143.3z"/>
<g>
	<path d="M119,104.7l0.8,25h-9.1l0.8-25H119z M119.2,93.5v7.6h-8v-7.6H119.2z"/>
	<path d="M126.4,119.6V83.3h8.9v14.5h13.2V83.3h8.9v36.2h-8.9v-14.2h-13.2v14.2H126.4z"/>
	<path d="M162.9,101.2c0-5.3,1.8-9.7,5.3-13.2c3.5-3.5,8.1-5.3,13.6-5.3c5.5,0,10.1,1.8,13.6,5.3c3.5,3.5,5.3,7.9,5.3,13.2
		c0,5.4-1.8,9.9-5.3,13.5c-3.5,3.6-8.1,5.4-13.6,5.4c-5.5,0-10.1-1.8-13.6-5.4C164.7,111.2,162.9,106.6,162.9,101.2z M172.1,101.2
		c0,3.1,0.9,5.7,2.8,7.8c1.8,2.1,4.2,3.1,7,3.1c2.8,0,5.2-1,7-3.1c1.8-2.1,2.8-4.6,2.8-7.8c0-3-0.9-5.4-2.8-7.4c-1.8-2-4.2-3-7-3
		c-2.8,0-5.2,1-7,3C173,95.8,172.1,98.3,172.1,101.2z"/>
	<path d="M206.5,119.6V83.3h8.9V112h14.8v7.6H206.5z"/>
	<path d="M230.5,119.6l12.3-36.2h9.3l12.3,36.2h-9.1l-2.2-7.6h-11.3l-2.2,7.6H230.5z M243.9,104.9h7.1l-2-7l-1.5-6.2h-0.1
		c-0.5,2.6-1,4.7-1.5,6.2L243.9,104.9z"/>
	<path d="M268.4,108.4l-0.8-25h9.1l-0.8,25H268.4z M268.1,119.6V112h8v7.6H268.1z"/>
</g>
<g>
	<path d="M125.6,149.3l3-4.3c0.7,0.6,1.6,1.2,2.6,1.7c1,0.5,2,0.7,2.9,0.7c0.8,0,1.3-0.2,1.8-0.5c0.4-0.3,0.6-0.7,0.6-1.2
		c0-0.5-0.3-1-0.8-1.4c-0.5-0.4-1.1-0.8-1.9-1c-0.8-0.3-1.6-0.6-2.5-1.1c-0.9-0.4-1.7-0.9-2.5-1.4c-0.8-0.5-1.4-1.2-1.9-2
		c-0.5-0.9-0.8-1.9-0.8-3c0-2.1,0.8-3.8,2.3-5.1c1.6-1.3,3.6-2,6-2c2.9,0,5.3,0.9,7.2,2.6l-2.4,4.6c-0.7-0.6-1.5-1.1-2.4-1.5
		c-0.9-0.4-1.8-0.6-2.7-0.6c-0.8,0-1.4,0.2-1.8,0.5c-0.4,0.3-0.6,0.7-0.6,1.2c0,0.5,0.3,0.9,0.8,1.4c0.5,0.4,1.1,0.7,1.9,1
		c0.8,0.3,1.6,0.6,2.5,1c0.9,0.4,1.7,0.9,2.5,1.4c0.8,0.5,1.4,1.2,1.9,2c0.5,0.9,0.8,1.9,0.8,3c0,2-0.7,3.8-2.2,5.1
		c-1.5,1.4-3.5,2.1-6,2.1c-1.5,0-3.1-0.3-4.5-0.8C127.9,151.2,126.7,150.4,125.6,149.3z"/>
	<path d="M144.5,140.5c0-3.4,1.1-6.2,3.4-8.4s5.1-3.4,8.7-3.4c3.5,0,6.4,1.1,8.7,3.4c2.3,2.2,3.4,5,3.4,8.4c0,3.4-1.1,6.3-3.4,8.6
		c-2.3,2.3-5.2,3.5-8.7,3.5c-3.5,0-6.4-1.2-8.7-3.5S144.5,144,144.5,140.5z M150.3,140.5c0,2,0.6,3.6,1.8,4.9c1.2,1.3,2.7,2,4.5,2
		s3.3-0.7,4.5-2c1.2-1.3,1.8-3,1.8-4.9c0-1.9-0.6-3.5-1.8-4.7s-2.7-1.9-4.5-1.9s-3.3,0.6-4.5,1.9
		C150.9,137.1,150.3,138.6,150.3,140.5z"/>
	<path d="M171.3,152.2l1.9-23.1h6.1l3.4,9.7l1.2,3.8h0.1c0.4-1.5,0.8-2.8,1.2-3.8l3.4-9.7h6.1l1.9,23.1h-5.6l-0.7-10.4
		c0-0.5-0.1-1.1-0.1-1.7s0-1.2,0-1.5l0-0.6H190c-0.5,1.6-0.9,2.9-1.3,3.9l-2.4,6.7h-4.8l-2.4-6.7l-1.3-3.9h-0.1
		c0.1,1.4,0.1,2.7,0,3.9l-0.7,10.4H171.3z"/>
	<path d="M199.1,140.5c0-3.4,1.1-6.2,3.4-8.4s5.1-3.4,8.7-3.4c3.5,0,6.4,1.1,8.7,3.4c2.3,2.2,3.4,5,3.4,8.4c0,3.4-1.1,6.3-3.4,8.6
		c-2.3,2.3-5.2,3.5-8.7,3.5c-3.5,0-6.4-1.2-8.7-3.5S199.1,144,199.1,140.5z M204.9,140.5c0,2,0.6,3.6,1.8,4.9c1.2,1.3,2.7,2,4.5,2
		s3.3-0.7,4.5-2c1.2-1.3,1.8-3,1.8-4.9c0-1.9-0.6-3.5-1.8-4.7s-2.7-1.9-4.5-1.9s-3.3,0.6-4.5,1.9
		C205.5,137.1,204.9,138.6,204.9,140.5z"/>
	<path d="M225,149.3l3-4.3c0.7,0.6,1.6,1.2,2.6,1.7c1,0.5,2,0.7,2.9,0.7c0.8,0,1.3-0.2,1.8-0.5c0.4-0.3,0.6-0.7,0.6-1.2
		c0-0.5-0.3-1-0.8-1.4c-0.5-0.4-1.1-0.8-1.9-1c-0.8-0.3-1.6-0.6-2.5-1.1c-0.9-0.4-1.7-0.9-2.5-1.4c-0.8-0.5-1.4-1.2-1.9-2
		c-0.5-0.9-0.8-1.9-0.8-3c0-2.1,0.8-3.8,2.3-5.1c1.6-1.3,3.6-2,6-2c2.9,0,5.3,0.9,7.2,2.6l-2.4,4.6c-0.7-0.6-1.5-1.1-2.4-1.5
		c-0.9-0.4-1.8-0.6-2.7-0.6c-0.8,0-1.4,0.2-1.8,0.5c-0.4,0.3-0.6,0.7-0.6,1.2c0,0.5,0.3,0.9,0.8,1.4c0.5,0.4,1.1,0.7,1.9,1
		c0.8,0.3,1.6,0.6,2.5,1c0.9,0.4,1.7,0.9,2.5,1.4c0.8,0.5,1.4,1.2,1.9,2c0.5,0.9,0.8,1.9,0.8,3c0,2-0.7,3.8-2.2,5.1
		c-1.5,1.4-3.5,2.1-6,2.1c-1.5,0-3.1-0.3-4.5-0.8C227.4,151.2,226.1,150.4,225,149.3z"/>
</g>
<g>
	<path d="M150,270v-11.7h7v1.8h-4.9v3.1h3.9v1.8h-3.9v3.2h5.1v1.8H150z"/>
	<path d="M158.9,268.6l1.2-1.6c0.4,0.3,0.8,0.6,1.4,0.9c0.5,0.2,1,0.4,1.5,0.4c0.5,0,0.9-0.1,1.3-0.4c0.3-0.2,0.5-0.6,0.5-1
		c0-0.4-0.2-0.8-0.6-1.1c-0.4-0.3-0.8-0.6-1.4-0.8c-0.5-0.2-1.1-0.5-1.6-0.7c-0.5-0.3-1-0.6-1.4-1.1c-0.4-0.5-0.6-1.1-0.6-1.7
		c0-1,0.4-1.8,1.1-2.5c0.8-0.6,1.7-0.9,2.9-0.9c1.4,0,2.5,0.4,3.4,1.3l-0.9,1.7c-0.3-0.3-0.7-0.5-1.2-0.7c-0.5-0.2-0.9-0.3-1.4-0.3
		c-0.5,0-1,0.1-1.3,0.4c-0.3,0.2-0.5,0.6-0.5,1c0,0.4,0.2,0.7,0.6,1c0.4,0.3,0.8,0.5,1.4,0.7c0.5,0.2,1.1,0.4,1.6,0.7
		c0.5,0.3,1,0.6,1.4,1.1c0.4,0.5,0.6,1.1,0.6,1.8c0,1-0.3,1.8-1,2.5c-0.7,0.7-1.6,1-2.9,1c-0.7,0-1.5-0.1-2.2-0.4
		C160.1,269.5,159.4,269.1,158.9,268.6z"/>
	<path d="M172,270v-9.9h-3.8v-1.8h9.8v1.8h-3.8v9.9H172z"/>
	<path d="M179.9,265.8v-7.5h2.1v7.5c0,0.8,0.2,1.4,0.7,1.8c0.5,0.4,1.1,0.7,1.9,0.7c0.8,0,1.4-0.2,1.9-0.7c0.5-0.4,0.7-1,0.7-1.8
		v-7.5h2.1v7.5c0,1.3-0.4,2.4-1.3,3.2c-0.9,0.8-2,1.2-3.4,1.2c-1.4,0-2.6-0.4-3.4-1.2C180.3,268.1,179.9,267.1,179.9,265.8z"/>
	<path d="M192.5,270v-11.7h4c1.8,0,3.3,0.5,4.4,1.6c1.1,1,1.6,2.5,1.6,4.3c0,1.8-0.5,3.3-1.6,4.3c-1.1,1-2.5,1.6-4.4,1.6H192.5z
		 M194.6,268.1h1.7c1.2,0,2.2-0.3,2.9-1c0.7-0.7,1-1.7,1-3c0-1.3-0.3-2.3-1-3c-0.7-0.7-1.6-1-2.8-1h-1.7V268.1z"/>
	<path d="M205,270v-11.7h2.1V270H205z"/>
	<path d="M209.7,264c0-1.7,0.6-3.1,1.7-4.3c1.1-1.1,2.6-1.7,4.3-1.7c1.8,0,3.2,0.6,4.3,1.7c1.1,1.1,1.7,2.6,1.7,4.3
		c0,1.7-0.6,3.2-1.7,4.4c-1.1,1.2-2.6,1.8-4.3,1.8c-1.8,0-3.2-0.6-4.3-1.8C210.3,267.2,209.7,265.8,209.7,264z M211.9,264
		c0,1.2,0.4,2.2,1.1,3c0.7,0.8,1.7,1.2,2.8,1.2c1.1,0,2-0.4,2.8-1.2c0.7-0.8,1.1-1.8,1.1-3c0-1.1-0.4-2.1-1.1-2.9
		c-0.7-0.8-1.7-1.2-2.8-1.2c-1.1,0-2,0.4-2.8,1.2C212.3,261.9,211.9,262.9,211.9,264z"/>
	<path d="M228.9,270v-11.7h4c1.8,0,3.3,0.5,4.4,1.6c1.1,1,1.6,2.5,1.6,4.3c0,1.8-0.5,3.3-1.6,4.3c-1.1,1-2.5,1.6-4.4,1.6H228.9z
		 M231.1,268.1h1.7c1.2,0,2.2-0.3,2.9-1c0.7-0.7,1-1.7,1-3c0-1.3-0.3-2.3-1-3c-0.7-0.7-1.6-1-2.8-1h-1.7V268.1z"/>
	<path d="M241.5,270v-11.7h7v1.8h-4.9v3.1h3.9v1.8h-3.9v3.2h5.1v1.8H241.5z"/>
	<path d="M255.8,270v-11.7h4.2c1.1,0,2,0.3,2.6,0.8c0.7,0.5,1,1.3,1,2.2c0,0.6-0.1,1-0.4,1.5c-0.3,0.4-0.6,0.8-1,1v0
		c0.6,0.2,1.1,0.5,1.4,1c0.3,0.5,0.5,1.1,0.5,1.7c0,1.1-0.4,2-1.2,2.5c-0.8,0.6-1.7,0.9-2.9,0.9H255.8z M257.9,263h2.1
		c0.5,0,0.8-0.1,1.1-0.4c0.3-0.3,0.4-0.6,0.4-1.1c0-0.4-0.1-0.8-0.4-1c-0.3-0.3-0.6-0.4-1.1-0.4h-2V263z M257.9,268.1h2.3
		c0.5,0,0.9-0.2,1.2-0.5c0.3-0.3,0.5-0.7,0.5-1.2c0-0.5-0.2-0.9-0.5-1.2c-0.3-0.3-0.7-0.5-1.2-0.5h-2.3V268.1z"/>
	<path d="M266.7,270v-11.7h3.9c1,0,1.7,0.1,2.2,0.3c0.6,0.3,1.1,0.7,1.5,1.2c0.4,0.6,0.5,1.2,0.5,2c0,0.7-0.2,1.4-0.5,2
		c-0.4,0.6-0.8,1-1.4,1.2v0c0.1,0.1,0.2,0.3,0.4,0.6l2.4,4.4h-2.4l-2.3-4.4h-2v4.4H266.7z M268.8,263.7h1.9c0.6,0,1-0.2,1.4-0.5
		c0.3-0.3,0.5-0.8,0.5-1.4c0-0.8-0.3-1.3-0.9-1.6c-0.3-0.1-0.7-0.2-1.3-0.2h-1.6V263.7z"/>
	<path d="M276.3,270l4.1-11.7h2.2l4.1,11.7h-2.2l-1-3h-4.1l-1,3H276.3z M280,265.2h3.1l-1-3.1l-0.5-1.8h0c-0.2,0.8-0.3,1.4-0.5,1.8
		L280,265.2z"/>
	<path d="M288.8,270v-11.7h2.1l4.4,6.8c0.1,0.2,0.3,0.5,0.4,0.8c0.2,0.3,0.3,0.6,0.4,0.8l0.1,0.3h0c-0.1-0.7-0.1-1.4-0.1-1.8v-6.8
		h2.1V270h-2.1l-4.4-6.7c-0.1-0.2-0.3-0.5-0.4-0.8c-0.2-0.3-0.3-0.6-0.4-0.8l-0.1-0.3h0c0.1,0.7,0.1,1.4,0.1,1.8v6.7H288.8z"/>
	<path d="M301.6,270v-11.7h4c1.8,0,3.3,0.5,4.4,1.6c1.1,1,1.6,2.5,1.6,4.3c0,1.8-0.5,3.3-1.6,4.3c-1.1,1-2.5,1.6-4.4,1.6H301.6z
		 M303.7,268.1h1.7c1.2,0,2.2-0.3,2.9-1c0.7-0.7,1-1.7,1-3c0-1.3-0.3-2.3-1-3c-0.7-0.7-1.6-1-2.8-1h-1.7V268.1z"/>
	<path d="M314.2,270v-11.7h2.1V270H314.2z"/>
	<path d="M319.5,270v-11.7h2.1l4.4,6.8c0.1,0.2,0.3,0.5,0.4,0.8c0.2,0.3,0.3,0.6,0.4,0.8l0.1,0.3h0c-0.1-0.7-0.1-1.4-0.1-1.8v-6.8
		h2.1V270H327l-4.4-6.7c-0.1-0.2-0.3-0.5-0.4-0.8c-0.2-0.3-0.3-0.6-0.4-0.8l-0.1-0.3h0c0.1,0.7,0.1,1.4,0.1,1.8v6.7H319.5z"/>
	<path d="M331.7,264.1c0-1.7,0.6-3.1,1.7-4.3c1.1-1.2,2.6-1.7,4.3-1.7c1.8,0,3.2,0.5,4.4,1.5l-1.1,1.6c-0.4-0.3-0.8-0.6-1.4-0.8
		c-0.6-0.2-1.1-0.3-1.7-0.3c-1.3,0-2.3,0.4-3,1.2c-0.7,0.8-1.1,1.7-1.1,2.9c0,1.2,0.4,2.3,1.1,3c0.7,0.8,1.7,1.2,2.8,1.2
		c1.1,0,2.1-0.4,2.9-1.2v-1.4H339v-1.8h3.7v6.2h-1.8v-0.6l0-0.5h0c-0.4,0.4-0.9,0.7-1.5,0.9c-0.6,0.2-1.2,0.3-1.9,0.3
		c-1.6,0-3-0.6-4.1-1.7C332.3,267.3,331.7,265.9,331.7,264.1z"/>
	<path d="M149.3,283.9c0-1.7,0.6-3.1,1.7-4.3s2.6-1.7,4.3-1.7c1.8,0,3.2,0.5,4.3,1.6l-1,1.6c-0.4-0.4-0.9-0.7-1.5-0.9
		s-1.1-0.3-1.7-0.3c-1.2,0-2.2,0.4-2.9,1.2c-0.7,0.8-1,1.7-1,2.9c0,1.2,0.4,2.1,1.1,3c0.7,0.8,1.7,1.2,2.9,1.2
		c1.3,0,2.4-0.5,3.4-1.5l1.1,1.5c-1.2,1.3-2.8,1.9-4.6,1.9c-1.8,0-3.3-0.6-4.4-1.7C149.9,287.1,149.3,285.6,149.3,283.9z"/>
	<path d="M161.2,283.8c0-1.7,0.6-3.1,1.7-4.3c1.1-1.1,2.6-1.7,4.3-1.7c1.8,0,3.2,0.6,4.3,1.7c1.1,1.1,1.7,2.6,1.7,4.3
		c0,1.7-0.6,3.2-1.7,4.4c-1.1,1.2-2.6,1.8-4.3,1.8c-1.8,0-3.2-0.6-4.3-1.8C161.8,287,161.2,285.6,161.2,283.8z M163.4,283.8
		c0,1.2,0.4,2.2,1.1,3s1.7,1.2,2.8,1.2c1.1,0,2-0.4,2.8-1.2c0.7-0.8,1.1-1.8,1.1-3c0-1.1-0.4-2.1-1.1-2.9c-0.7-0.8-1.7-1.2-2.8-1.2
		c-1.1,0-2,0.4-2.8,1.2C163.8,281.7,163.4,282.7,163.4,283.8z"/>
	<path d="M175.9,289.8V278h2.1l4.4,6.8c0.1,0.2,0.3,0.5,0.4,0.8c0.2,0.3,0.3,0.6,0.4,0.8l0.1,0.3h0c-0.1-0.7-0.1-1.4-0.1-1.8V278
		h2.1v11.7h-2.1l-4.4-6.7c-0.1-0.2-0.3-0.5-0.4-0.8c-0.2-0.3-0.3-0.6-0.4-0.8l-0.1-0.3h0c0.1,0.7,0.1,1.4,0.1,1.8v6.7H175.9z"/>
	<path d="M192.4,288.4l1.2-1.6c0.4,0.3,0.8,0.6,1.4,0.9c0.5,0.2,1,0.4,1.5,0.4c0.5,0,0.9-0.1,1.3-0.4c0.3-0.2,0.5-0.6,0.5-1
		c0-0.4-0.2-0.8-0.6-1.1c-0.4-0.3-0.8-0.6-1.4-0.8c-0.5-0.2-1.1-0.5-1.6-0.7c-0.5-0.3-1-0.6-1.4-1.1c-0.4-0.5-0.6-1.1-0.6-1.7
		c0-1,0.4-1.8,1.1-2.5c0.8-0.6,1.7-0.9,2.9-0.9c1.4,0,2.5,0.4,3.4,1.3l-0.9,1.7c-0.3-0.3-0.7-0.5-1.2-0.7c-0.5-0.2-0.9-0.3-1.4-0.3
		c-0.5,0-1,0.1-1.3,0.4c-0.3,0.2-0.5,0.6-0.5,1c0,0.4,0.2,0.7,0.6,1c0.4,0.3,0.8,0.5,1.4,0.7c0.5,0.2,1.1,0.4,1.6,0.7
		c0.5,0.3,1,0.6,1.4,1.1c0.4,0.5,0.6,1.1,0.6,1.8c0,1-0.3,1.8-1,2.5c-0.7,0.7-1.6,1-2.9,1c-0.7,0-1.5-0.1-2.2-0.4
		C193.5,289.3,192.9,288.9,192.4,288.4z"/>
	<path d="M202.9,289.8V278h7v1.8H205v3.1h3.9v1.8H205v3.2h5.1v1.8H202.9z"/>
	<path d="M212.6,289.8V278h4c1.8,0,3.3,0.5,4.4,1.6c1.1,1,1.6,2.5,1.6,4.3c0,1.8-0.5,3.3-1.6,4.3c-1.1,1-2.5,1.6-4.4,1.6H212.6z
		 M214.8,287.9h1.7c1.2,0,2.2-0.3,2.9-1c0.7-0.7,1-1.7,1-3c0-1.3-0.3-2.3-1-3c-0.7-0.7-1.6-1-2.8-1h-1.7V287.9z"/>
	<path d="M225.2,289.8V278h7v1.8h-4.9v3.1h3.9v1.8h-3.9v3.2h5.1v1.8H225.2z"/>
	<path d="M239.5,289.8V278h7v1.8h-4.9v3.1h3.9v1.8h-3.9v3.2h5.1v1.8H239.5z"/>
	<path d="M249.3,289.8V278h2.1l4.4,6.8c0.1,0.2,0.3,0.5,0.4,0.8c0.2,0.3,0.3,0.6,0.4,0.8l0.1,0.3h0c-0.1-0.7-0.1-1.4-0.1-1.8V278
		h2.1v11.7h-2.1l-4.4-6.7c-0.1-0.2-0.3-0.5-0.4-0.8c-0.2-0.3-0.3-0.6-0.4-0.8l-0.1-0.3h0c0.1,0.7,0.1,1.4,0.1,1.8v6.7H249.3z"/>
	<path d="M266.7,289.8V278h2.1v9.9h5.1v1.8H266.7z"/>
	<path d="M275.9,289.8V278h2.1v11.7H275.9z"/>
	<path d="M280.9,289.8l1-11.7h2.3l2.3,5.8l0.6,1.7h0c0.2-0.7,0.4-1.3,0.6-1.7l2.3-5.8h2.3l1,11.7H291l-0.5-6.5c0-0.2,0-0.5,0-0.8
		c0-0.3,0-0.5,0-0.7v-0.3h0c-0.3,0.8-0.5,1.4-0.6,1.8l-1.9,4.5h-1.8l-1.9-4.5l-0.6-1.8h0c0,0.7,0,1.3,0,1.8l-0.5,6.5H280.9z"/>
	<path d="M294.6,289.8l4.1-11.7h2.2l4.1,11.7h-2.2l-1-3h-4.1l-1,3H294.6z M298.3,285h3.1l-1-3.1l-0.5-1.8h0
		c-0.2,0.8-0.3,1.4-0.5,1.8L298.3,285z"/>
	<path d="M306,291.5l1.1-3.9h2.1l-1.6,3.9H306z"/>
	<path d="M312.1,289.8V278h4.5c1.1,0,2,0.4,2.7,1.1c0.7,0.7,1,1.6,1,2.8s-0.3,2.1-1,2.8c-0.7,0.7-1.6,1.1-2.7,1.1h-2.4v4H312.1z
		 M314.2,283.9h2c0.6,0,1.1-0.2,1.4-0.5c0.3-0.4,0.5-0.9,0.5-1.5c0-0.6-0.2-1.1-0.5-1.4c-0.3-0.4-0.8-0.5-1.4-0.5h-2V283.9z"/>
	<path d="M322.7,289.8V278h7v1.8h-4.9v3.1h3.9v1.8h-3.9v3.2h5.1v1.8H322.7z"/>
	<path d="M332.4,289.8V278h3.9c1,0,1.7,0.1,2.2,0.3c0.6,0.3,1.1,0.7,1.5,1.2c0.4,0.6,0.5,1.2,0.5,2c0,0.7-0.2,1.4-0.5,2
		c-0.4,0.6-0.8,1-1.4,1.2v0c0.1,0.1,0.2,0.3,0.4,0.6l2.4,4.4h-2.4l-2.3-4.4h-2v4.4H332.4z M334.6,283.5h1.9c0.6,0,1-0.2,1.4-0.5
		c0.3-0.3,0.5-0.8,0.5-1.4c0-0.8-0.3-1.3-0.9-1.6c-0.3-0.1-0.7-0.2-1.3-0.2h-1.6V283.5z"/>
	<path d="M343.3,285.6V278h2.1v7.5c0,0.8,0.2,1.4,0.7,1.8c0.5,0.4,1.1,0.7,1.9,0.7c0.8,0,1.4-0.2,1.9-0.7c0.5-0.4,0.7-1,0.7-1.8V278
		h2.1v7.5c0,1.3-0.4,2.4-1.3,3.2c-0.9,0.8-2,1.2-3.4,1.2c-1.4,0-2.6-0.4-3.4-1.2C343.7,287.9,343.3,286.9,343.3,285.6z M347.1,277.3
		l1.3-2.2h2.2l-1.7,2.2H347.1z"/>
</g>
</svg>
