<svg version="1.1" id="Capa_1" xmlns="http://www.w3.org/2000/svg" x="0" y="0" width="1920" height="1080" style="enable-background:new 0 0 1920 1080" xml:space="preserve"><style>.st1{fill:#020203}.st2{fill:#fff}.st3{fill:#020202}</style><ellipse cx="886.2" cy="885.5" rx="107.8" ry="26.5" style="fill:#d6d6d6"/><path class="st1" d="M905.3 877.3c-1.1 1.6-2.4 3.3-5.6 4.7 1.1-1.1 2.5-2.2 4.3-3.4 1.4 2.3 3.3 3.8 5.6 4.2l-1.9-2.7c1.4-.2 2.5-.2 3.7-.4 3.7-2.1 6.5-5.4 8.9-8.7 2-2.7 3.9-5.4 6.6-7.4 4.9-4.6 12.5-3.9 17.7-1.5 4.8 2.3 8.1 6.8 11.2 11.2 2.3 3.2 3.3 7 5.7 10.2-.2-2-.4-3.7-1.1-6.1 3.8-2 7.4-.7 10.3 1.4l.3-.3c.4-.4.9-.8 1.3-1.1-.4-.5-.8-1.1-1.1-1.6 3.2-2.9 5.7-6.4 9.8-7.7 5.5-1.9 10.2-2 13.8-.2 5.7 2.7 9.8 8 14.4 12.3 1.1-3.4 1.5-7 1.9-10.5.2-1.1 2.1-1.1 3.3-1.3-.5 3.8-.9 7.5-1.2 11.1.4.3.9.8 1.1 1.1.7-3.8 1.6-8.4 1.9-12.9 1.2-1.2 2.3-2.3 3.4-3.1-.8 5.5-2.3 11-3.1 16.5 4.8-.7 9.3-3 14.4-3.1 7.6 0 15.3.2 21.6 4.4 1.3.9 2.9 1.2 4.4 1.5-2.8-4.3-7.9-6.1-13.3-7.2-.2-.3-.4-.6-.6-.7 2.7-7.7 8.3-13.9 14.8-16.6 4.8-2.6 10.5-1.2 14.4.3-1.1 3-2 5.6-1.9 8.5.1 3 1.6 5.6 2 8.7-.5 3.3-4.3 4.3-7.4 3.9 0 .2.1.6.2.8 2.6-.1 6.2.7 7.8-2.3.7 1.2 1 3 2.5 3.1-.4-3.2-1.9-6.2-2-9.7 1.9 1 3 2.5 4.1 4.4 1.1 1.6 2.3 3.6 4.4 4.7 4.3.8 7.9-2 11.4-4.2 1.8.7 3.6 1.7 5.5 1.3-1.1-1.2-2.9-3.5-5.3-2.7-3 1.1-5.2 4-8.5 3.9-2.8.2-4.3-2-5.8-4.3-1.4-2.1-2.8-4.4-5.8-4.5.3-3.8-.1-7.8 1.8-11.2 3.8-6.9 11.8-11.1 19.6-10.3 7.4.4 13.8 4.3 19.3 7.8-3.9 2-7.3 4.1-10.5 6.6l1.6 1.9c10.9-8.3 23.5-12 35.8-13.3 0-.7.2-1.4.2-2.1-8.6.8-16.6 2.9-23.8 6-5.5-5-13.2-7.3-19.8-8.7-1.3-3.5-2.6-7.2-5.7-9.5-3.8-3.3-8.8-4.9-15.7-5.2.3-6.3 1.8-12.8.3-19.2-.9-4.6-2.8-8.9-5.7-12.7-2.7-3.8-7.5-5.1-11.4-5.7-.1-1.4-.2-3-.3-4.4 3-.5 5.2-2.7 7.5-4.7 7.2-6.1 10.3-15.3 16.1-22.9 3.2-1.3 7.2-1.1 9.7-4.3.9-3-1.3-7-4.4-8.1.4-1.4.8-2.8 1.1-4.1 7.5-.9 8.2-3.2 9.3-10.2.2-1.1.3-2 .6-3-.1 0-.1-.1-.2-.2.7.8 1.5 1.5 2.2 2.1-.1-1.7-.6-3.5-1.3-4.8 0-.7.1-1.6.1-2.2-1.3-.1-3.1.6-4.3-.2-2-1.5-4.1-3-6.5-1.8-3.3 1.8-5.7 5.2-6.4 8.9-.1 2.2.1 4.3.2 6.5-1.3.7-3 1.6-4.4 2.5 2 .9 4.1 1.7 6.1 2.5.1 1.1.2 2 .2 3.1-3.5.7-7.4.8-10.5 3-7.3 4.8-10.1 13.5-16.4 19.3-1-6.6-.6-13.3-1.3-19.8-.5-4.9-1.3-9.8-1.6-14.8-.2-2.5-.8-5.6-3.4-6.6-1.5 0-2.4.8-3.4 1.9-.6.5-1.1 1-1.7 1.2-2.6.2-5.2-.1-7.9-.2.1-1.2.1-2.8.1-4.5 1.1-1.1 1.9-2.2 3-3.4-.7-.4-1.3-1.1-1.9-1.5-1.5 2.9-4.8 3.6-7.2 5.2 1.2.7 2.4 1.8 3.4 2.5-1.3.5-2.9 1-4.4 1.2l.2-1.9c-1.4.5-2.8 1-4.1 1.6-.4-2-.9-4-1.5-6.2 4.1-2.7 8.2-5.2 13.2-3.4.8.3 1.9.4 2.7.6-1.1-1.6-2.4-3.4-4.3-3.4-4.2.2-7.5 1-10.7 2.7-1.8 1.1-4.1 1.1-6.1 1.3-2.1-1.9-9.4-7.3-15.5-3.4.5 2.6 1.9 5.3 4.1 7.6-.7 1.1-1.3 2.2-1.9 3.3-1.3.2-2.9.2-4.4.4-2-2.9-4.4-6.7-8.4-4.8 0 2.6 0 4.8.2 7.1-.5.7-1.1 1.3-1.6 1.9-.7-5.7-1.8-11.2-1.9-16.8 1.1-1.6 2.3-2.6 3.4-4.1.8-2.3.3-4.8.1-7.1-2.2-1.2-6.1-1.7-7.2-4.3 1.8-4.5 4.3-8.7 5.5-13.2v-.2c-.2-.8-.6-1.4-.8-2.1-2.5 2-4.4 5.7-8.1 5.5-.2 1.6-.9 2.9-2 4.1-11.7-2.2-23.8-4.6-35.8-6.1-.4.2-.9.2-1.3.2-1.4 0-2.5-.6-3.1-1.3-.1.1-.1.2-.2.3-2-2.9-4.3-6.1-7.2-10 .4.1.8.2 1.1.2-1.4-.7-2-1.9-2.2-3.2-.4-.1-.8-.1-1.1-.2.1.7.1 1.6-.2 2.4 0 0 .1.1.2.1-.5 4.3-.5 8.9.1 13.8-1.1 1.5-1.9 2.9-3 4.2-2.5-.9-5.2-2.5-7.8-1.1-2.1 1.4-4.9 4-5.2 7.1 2.5-2 4.7-5.6 8.1-5.3 1.2 0 2.3.7 3.1 1.3-1.3 2.5-3 5.1-4.4 7.8-.4-.1-.8-.1-1.1-.2.1 1.2-.1 2.4-.7 3.1.2.1.4.1.7.2-1.7 4.5-3.3 9.3-5.2 13.8-.3-.3-.7-.4-1.1-.7.1.2.1.6.1.8.1.7 0 1.4-.2 2 .3.1.5.2.7.3-2.5 6.2-5.2 14.6-7.1 23.3-.3-.1-1-.1-1.4-.1 0 .3-.1.7-.2 1.1 0 .5-.1.9-.2 1.3.4 0 1.1-.1 1.5-.1-.9 5.5-2.3 10.6-3.4 16l2.1 1.3c.9-4.3 1.4-8.8 3.1-13 1.7 6.1 3.2 12.3 7.2 17.3.7 1.3 2.5 1.4 3.9.7 1.8-.5 2.2-2.4 3-3.6.9 1.3 1.9 2.5 3.1 3.6 2.8 1 4.4-2.6 4.7-4.5 1.7 2.3 3.1 3.9 4.4 5.7h3c1.2-1.6 2.3-3.5 3-5.8 1.6 1.6 2.7 3.2 3.9 4.5 1.8-.2 4.1.8 5.2-1.1 1.1-1.4 1.4-3.1 1.7-4.8 2.2 1.8 4.1 4.7 7.4 4.1 3.3.2 3.7-3.8 3.9-6.1 2.2 1.6 4.8 3.2 7.7 1.9 2-.6 1.6-2.9 2.1-4.4 2.7.7 5.4 1.1 7.9.7 2.5-1.3 5.4-3.8 5.5-7.1-3-1.2-6.1-2-9.1-3.4-6.1-3.5-10.2-9-16-12.9-13.4-5.8-31.6 11.6-48.9 3.7.6-4.9 2.2-9.8 3.9-14.3 3.2-9.8 7-19.3 12.7-28.5.4.2 1 1.1 1.2 1.3-2.2 8.4 2.6 15.4 11.7 16.2 4 .5 11.6.2 16.6-5 2.5-2 2.6-5.2 3.3-8.2 3.5-1 7-.7 10.2.6-.2 1-.5 2.3-.7 3.4-1.8-.5-3.8-1-5.2-2.3-.7.7-1.6 1.1-2.4 1.7 1.1.5 1.9.9 3 1.3-2.1 2.1-.6 5.2 0 7.6.6-1.1 1-2.2 1.2-3.4.5.4 1 1.1 1.3 1.5-.2.6-.9 1.6-1.3 2.5 2.6 2 5-.6 6.1-1.9 3.8 2.9 8.7 2.5 13.4 1.8 1.1 5.7 1.3 11.6 2.4 17.3 1 3.9-1.2 7.6-1.3 11.5-.1 3.5-.5 6.8-.7 10.2-.7 7-1.3 14.1-1.1 21.2-1.3 15.9-.6 32-3.6 47.8-.4 2.9-.3 5.7-1.1 8.4-.7-2.5-1.1-4.8-1.5-7.1-2.5-14.2-8.6-29.4-16.6-39.6 1.1-1.6 2.5-3.4 1.9-5.5-.7-3.1-3.8-5.2-7.2-5-1 1.4-2 2.8-3.1 4.5-6-1.2-12-1.1-18-1.3-.2-1.9-.8-3.4-1.6-5-1.4-.1-3-.2-4.5-.2l-.1.1c-1.4 1.3-2 2.9-2.7 4.4-.8 1.5-1.5 3.3-3 4.4-3.2 3.2-3.6 7.5-3.9 11.7-1.3 15-3.8 29.7-7.8 43.5-3 11.6-4.4 23.1-7.9 34.7-2.1-2.1-2.8-5.1-2.5-8.2-2 1.1-2 2.8-1.6 4.7.9.8 1.4 2 1.1 3.1.1.3.2.5.2.7.2-.4 0-.3-.2-.2zm66.8-165.2c1.8 2.2 4.2 4.7 2.3 7-.3.1-.4.1-.6 0-.3-.2-.5-.7-.6-1.3-.2-1.5-1.3-2.5-2.1-3.7-.3-.2-.5-.5-.7-.7.6-.2 1.3-1 1.7-1.3zM922 773.8c-3.1-3.8-5.2-8.6-6.1-14.5.2-.4.6-.8.8-1.1 1.5 2.7 4.2 4.8 6.5 6.6 1.9 1.3 1.3 4 1.1 6-1.1-1.2-2-3.1-3.4-4.2.2 1.8 1.1 3.4 2.2 4.8.2.4.5.8.7 1.1l-1.8 1.3zm-7.2-25.9c1.8 2.8 5.2 2.9 8 3.2 12.9 1.3 23.7-7.2 36.4-7.2 3 .3 5.7 2.4 8.7 5.8.1.7.2 1.3.2 1.9.2 1.5.4 3.3 1.7 4.4.1-1.1.1-3 .2-4.3 5.2 4.7 11.1 7.8 17 9.1-.7.8-1.2 2-1.9 2.7-4.6-2.4-9.7-4.4-13.7-7.9 1.4 5.6 7.9 5.4 11.6 8.7-4.1 0-7.6-3-11.8-3.1l.6 3.6c-2.8-1.8-4.9-4.2-7.5-6.1 1.7 3.9 5.1 6.1 8.4 8.4 0 .4-.2.6-.4.7-.7.4-2.2-.1-2.5-.7-.6-.5-1.2-.9-1.9-1.3-1.7-1.2-3.3-2.4-5.2-3.1.2 2.2.4 4.3.6 6.5-2.4-2.1-3.4-5.4-5.7-7.6.7 3.9 3.3 6.6 5.5 9.7-4.7.3-6.9-5.2-10.2-7.8-.1 2.5.4 5.4-.7 7.7-1.6-2.5-2.3-5.2-4.2-7.1-.2 3.6 2.6 6 3.9 9.1-1.7.2-2.9-1.1-3.9-2.3-1.7-2.1-3-4.4-4.8-6.6.1 2.7-.4 5.7-1.1 8.2-1.1-2-1.1-4.1-1.3-6.2l-1.7-1.1c-.3 3.4 1.2 6.4 1.9 9.7-4.1-2-4.3-7.4-7.8-10.3-.3 2.1.4 5.5-1.8 6.6 0-1.8.8-3.9-1.1-5.2-.2 2.4-.1 4.9.2 7.2-2-2.2-3.3-5-4.5-7.4l2.3-2.3c.1-1.4.2-2.7.3-3.9 2 1.6 4.1 3.4 6.5 4.7 2.2-1.8 2.1-4.7 2.3-7.1 2.9 1.7 5.8 3.9 9.3 4.7.6-.4 1.6-1.2 2.1-1.6-.2-1.3-.2-3-.4-4.4 3.3 1.7 7.3 5.3 10.7 1.9.1-1.4.2-2.8.2-4.1 3.4 1.5 6.9 5.2 10.7 2.5l-1.2-1.9c-.8.1-2.3.1-3 .2-1.4-.6-3-1.6-4.4-2.5-1.9-1.1-3.9-2.4-6.1-3.1.7 2.6 2 4.8 2.1 7.8-5.1.2-8.7-3.5-12.7-5.8.4 3 2 5.6 2.1 8.7-4.8-1-8.6-4.2-12.6-6.6.8 2.7 1 5.6.6 8.7-3.8-1.7-6.5-5-10.2-6.9 1.3 2.4 1.6 5 1.2 8.1-3.5-.6-5.9-3.4-8.4-5.7-.7.2-1.7-.1-2.5-.4 0-.7-.1-1.2-.2-1.9-.2-2.5-.3-4.7.1-7zm20.4-37.6c-.1-5.8 6.6-7.7 11.4-7.8 3.7 0 7.6 1.1 11.8 3.1 2 1.2 4.8 2.8 4.3 5.3-.9 3-3.1 5.3-6.1 6.1-7 2.1-13.8 1.6-18.6-1.5-1.7-1.1-2.7-2.9-2.8-5.2zm55.8-14.6c-1.1 3-3.5 5.4-3.4 8.7-3.9-.6-7 .5-11.1 2.5-3.5-1.1-7.7-1.1-12.2-.3-.9-1-1.9-2.1-2.7-3-2.8-.8-5.2-2.5-8.1-3.1-8.2-2-14.3-1.3-18.5 2.3l-1.3-1.9c1.1-1.8 2.6-3.6 3.4-5.7.2-2-.2-4.1-.3-6.1 1.6 1.5 2.5 3.6 3.9 5.2h.1c12.5.3 24.6 3.1 35.8 5.5 3.2.7 6.4 1.4 9.7 1.3 1.2-2 2.7-4.1 4.7-5.4zm-.8 22.2c-2.7.8-9 2-12.9-2.3-1.1-.8-1.1-2-1.1-2.7.2-1.6 1.4-3.1 2.7-3.9 2.7-2 6-1.8 9.1-1.7l.2.1c1 3.5 1.3 6.9 2 10.5zm-65 104.3c3.2.9 5.7 2.9 7.6 5.3.5 1.1 0 2.3-.7 3-3.7.7-6.6-2.5-8.1-4.4.4-1.2.7-2.1 1.2-3.9zm8.6 10.2c.4-4.3 1-6.5-3-9.4-.7-.4-1.3-.9-1.7-1.5-.7-1.7-1.3-3.4-1.9-5.2 3.9 2.4 6.9 5.7 10.5 8.1 1.2 5.3 3 10.6 4.2 16.1-2.6-2.6-5-5.7-8.1-8.1zm11.7 1.2c1 1.1 2.5 2.2 3 3.7 1 2.4 2.8 4.3 4.3 6.2-2.9-.1-5.7-.6-8.7-1.3-1.4-5.7-3-11.5-4.7-17 5.9.1 11.7.5 17.7.7-.1 1.9-.3 3.9-1.1 5.8-1.1-.7-2.1-1.7-3.4-2.3-3-1.1-7.1.9-7.1 4.2zm-20.2-16.7c1 1 1.8 2.5 2.2 3.9-1.1.2-2.1.3-3 .6.2-1.9.5-3.3.8-4.5zm69.9-106c.2 1.7 0 4.4-2.7 5.7-.2-1.6-.5-3.1-.7-4.7-.2-1.1-.2-2.1-.4-3 1.3.7 2.5 1.4 3.8 2zm27.7 20.5c-3.5-1.7-7 1.7-10.7.4.8-1.5 2.7-1.6 4.4-1.9-.6-.7-1.2-1.1-1.9-1.7-2-1.6-4-3.4-5.5-5.5.7-.7 1.6-1.1 2.5-1.5 2.3.3 5.6 1.3 8.5 3.6 2 1.5 1.9 4.3 2.7 6.6zm4.5 1.6c-1.1-.1-2.2-.4-3.3-.7-.6-2-1-4.1-1.3-6.1 3.3.7 4.3 4.6 4.6 6.8zm65.5 12c-.2 0-.5.1-.7 0 .5-1.7.9-3.4 1.2-5.3-.6-.8-1.3-1.6-2.4-2.3-1.9.2-3.9.5-5.7.7 0-5.2 4.1-8.8 6.6-10.5 2.2 0 4.4 1.2 5.2 3.1 1.8 3.2 1.8 7.4.1 11.4-.7 1.9-2.5 2.5-4.3 2.9zm-1.2-4.5c.3 1.6-1.1 3.4-2.1 4.8-1.8 0-3.4 0-5.2-.2.2-.6 1.1-1.5 1.3-1.9 0-1.4-.1-2.6-.2-3.9 2 0 3.7-.1 5.2-.3.7.5.9 1 1 1.5zm-4.5 10.2c.1-1.5 0-3.6 1.8-3.8.1 1.1.2 2.8.2 3.9v.2c-.7-.3-1.3-.4-2-.3zm-27.1 38.4c-.1-1.4-.2-3-.2-4.5-.2-3-.4-6-.8-9.1 7.8-6.6 10.7-17.7 20.7-22 4.7-1.7 10.9-1 13.2 3.4-1.6 3.2-5.7 2.9-8.7 3.9-5.5 5.7-7.8 13.6-13.3 19.6-3.1 3.6-6.4 7-10.9 8.7zm4.4 66.9c-5.1-10.5.7-20.2 12.3-20.5 9.5.2 15.8 3.3 19.7 11.8-3.4.6-7 0-10.5 1.3-4.3 1.6-7.7 4.5-9.9 8.1-.3.8-.8 1.6-1.9.8-2.7-1.1-5.9-1.5-9.7-1.5zm-21 20.6c-1.4-.3-2.8-.5-4.7-1.6.7-1.5 2-3.1 3.3-4.4 0-.4.2-1.6.2-2.3 1.4-.9 3.1-1.7 3.3-3.6 0-1.1.8-1.6 1.9-2 .7-.2 1.5-.7 1.9-1.3.2-1.2.3-2.3.4-3.1 1.9-1.1 4.1-1.9 3-4.4-.6-1.6-.5-1.6.7-2.4 2.6-2 5.5-4.1 5.7-7.7l-3.1-.4c1.5-6.8 4.8-13.3 3-20.2-1.9 2-1.3 4.8-1.3 7.1-3.9 3.4-9.3 4.2-13.7 2.3l2.2-9.8c3.6 2.2 7.5 1.1 11.4 1.5.5-.7 1.1-1.3 1.6-1.7-3.7-.3-7.5.5-11.1-.6-1.6-3.1.2-6.5 1.1-9.6 1.3-4 3.2-9.7 7.6-12.2 10.5-4.4 19.3 9.4 19.3 18.5-.2 5.2-.7 9.8-1.2 13.8-4.4 2.5-9.9 3.9-11.9 9.1-1.2 3-2.9 8.9-.7 14.1-7 2.5-12.7 7-16.1 12.7-1.1 2-1.2 4.4-1.3 7l-1.5 1.2zm3-40.8c-.2 3 0 5.2.5 7.2-1.3 1.5-3.4 1.5-5.2 1.9.6-3.6 1.2-6.7 2.3-9.8l2.4.7zm1.7 7.2c-.2-2.8-1-7.6 3-7.2-.2 2.5-.5 4.7-.7 7-1 .3-1.7.4-2.3.2zm4.2-.1c.2-2 0-4.2.5-6.2.6-1.6 2.4-1.8 3.9-2.1-.7 2.9-1.1 5.5-1.9 8.4-.6-.1-1.8-.1-2.5-.1zm-31.3 36c1.5-6.6 2.8-13.2 3.9-19.7 0-3.4.3-7.7-3-9.7-1.4-1.1-3-.2-4.5 0-3 .7-6.1.7-8.5.7-.5-.7-1-1.6-1.3-2.2 2-8.5 2.6-21.4 14.3-21.5 8.9 2.4 9.9 9.8 8.9 17.5-.7 11-2.1 21.6-2.3 32.7 1.9-.3 1.7-2.1 1.9-3.4.6-8 .9-16.2 2.7-24.1 2.4-1 5.2-.5 7.6-1.2.2 8.3-3.3 16.3-9.3 21.5 3 1.1 4.8-1.9 6.1-3.9 4-6.6 5.5-12.7 4.4-18 4.3-1.7 9.3-2.2 14.4-1.5-2.4 3.3-6.5 4.2-10.2 5.2 1 2 3 2.9 4.8 3.9-2 .6-4.2 1.3-6.1 2.4.5 1.4 2.6 1.9 2.5 3.4-1.9.6-3.8.8-5.6 1.9.7.7 1.2 1.7 1.9 2.5-2.3.6-6.6.7-4.3 3.9-.6.2-1.5.5-1.9.7l-.2.1c1.8 2.5-2 3.7-3.4 5.5-4.2 1-8.5 1.6-12.8 3.3zm-15.3-14.3c-.3-4.7 1.2-9.3 1.9-13.9 4.6 2.5 9.4.1 14.3 0 .6 2.2 2.4 9.1-1.9 13.2-3.8 4.1-10.3 3.5-14.3.7zm2.9 8.7c-2.8-.3-4.8-3.3-4.2-5.9 1.2.4 2.3.9 3.4 1.2-.3 1.3-.2 2.5.2 3.7 1.8.2 1.2-2 1.5-3.1.8.1 2.2.1 3 .2-.7 2.4-1.3 5-1.9 8.1-1.1-.8-2.1-2.1-1.9-3.9l-.1-.3zm-9.5-7.2c1.1-4.5 2.4-8.9 3.6-13.2 1.1-4.2 2.4-8.4 3.4-12.7.4-2.6.6-6.3-1.7-8.7s-6 .2-8.4-1.6c-1.1-.5-.3-2.3-.2-3.4.9-3.8 1.5-7.6 3.4-11 1.2-2.2 4.3-2.7 6.5-1.9 4.3 1.4 7.7 5 10.8 10.7-3 1.8-5.9 3.9-7.1 7.4-1.9 5.6-3 11.6-3.7 17.3-.5 2.7-.9 5.2-1.3 8.2-.5 3.8-.7 7.5-1.7 11.4-1.7-.7-2.8-1.7-3.6-2.5zm-2.4-.8c-2.7-1-5.7-1.3-8.7-.5 2-11.2 4.5-21.8 6.4-32.9 3 .7 6 .7 9.1 1.1.9 2.5 1.1 5.4.3 7.8-1 3.4-2 6.9-3.1 10.3-1.5 4.5-2.8 9.3-4 14.2zm-10.3-6.3c-.2 1.1-.7 2.1-.7 3.1 0-3.4.7-7 1.1-10.3.5-3 1-5.7 1.1-8.7 1.2-7.2 1.9-14.3 2.3-21.5.6-11.7 2.1-23.3 2.5-35.1-.3-5.8.4-11.6.7-17.4.4-4.7-.2-9.6.6-14.3 1.3-5.7 1.6-12 5-17 1.4-2 1-4.6 1.1-6.9 1.8.1 1.5 2.7 2.2 3.9 3.4.6 6.9-.2 10.3-.2 12.8.6 25.4.3 37.7 3.3.8-1.7 1.8-3.1 3-4.3 0 4.1 1.1 7.9 1.3 12 .7 9.6 2 19.2 1.3 29-.7-.7-1.2-1.8-1.8-2.5 0-2.1-.7-4-2.3-5.2-1.3-.7-3-.2-4.4-.1-.3-2.8-.5-5.6-1.1-8.5-.9 2.6-.5 5.4-.2 8.1-1.9-1-4-1-6-1.1-1.4 1.1-2.6 2.3-3.9 3.4l-.1.1v.1c-.1 1.1-.2 2.8-.2 4.3.5.6 1.2 1.5 1.6 1.9-.9 2.3-.9 6-4 6.6-2 .8-3.9 2-5.7 3.1-3 1.7-6 3.8-9.7 3.6-4.8-.1-7.9-3.7-11.4-6.4-.2.7-.4 1.6-.6 2.1 4.3 4.5 10.8 6.5 16.4 5.2 2.8-.4 5-2.1 7.2-3.4 2.8-1.7 5.5-3.5 8.9-3.6l1.9 1.9c-2 3-1.9 6.6-3.1 9.8-2.3 6.6-7.5 12.1-13.9 15.2-3.4 1.5-7.1.7-10.8.7 2.1 2.9 6 2.5 9.1 2.1 4.4-.8 8.2-4 12.2-8.5 5.4-.2 6.9-4.8 9.8-8.7 2.8-3.8 5.3-7.9 7.2-12.3h3.1c.6-.7 1.5-1.5 2.3-1.9.2 5.1.5 10.1 1.3 15.2-3 1.5-7.1 4.4-9.3 8.9-5.7 13.2-5.7 28-11.7 41.2-1.1-.1-2.3-.1-3.4-.2.5-.6 1.1-1.1 1.2-1.9l-1.2-.7v-2.3c.8 1.1 1.6 2 1.9 3.1l.6.7c2.5-1 .1-2.9-.6-4.4 1.1-.5 2.3-.9 3.4-1.3-.8-1.7-2-2.9-3.4-4-1.2-1.1-2.4-2.1-3.1-3.4-3-4.8-8.2-8.1-13.7-7.9-3.1-6.1-7.5-12.8-15.4-12.7-1.8 0-3.8.4-5.2 2.3-2.3 3.4-3.3 7.6-4.1 11.6-2.9 11.5-5.4 22.7-7.3 34.2zm46.8-22.9c1.1.6 2.2 1.5 3.3 2.3-1.1.2-2.1.6-3.4.8 0-1.1 0-2.1.1-3.1zm15.7-65.9c1.9 2.5 5.2 3.9 5.5 7.1.5 1.5-.4 3.1-1.1 4.4-3 .4-4.6-1.9-6.4-3.9.7-1.7 1.7-3.3 2-5.2-.2-1.5-1.1-3.1-1.9-4.4 2.4-.7 4.4.5 5.5 2.7-1.1-.2-2.4-.7-3.6-.7zm-6.3 15.6h.2v.2h.2c-1.5-2-3-4.3-6-4.2.5-1.5 1-3 1.2-4.2 4.2-.5 9 1.1 10.5 5.5-2.6 3.6-4.6 7.5-7.1 11.2-.7.6-1.3 1.6-1.7 2.4-1.1 1.4-2.1 3.2-3.7 4.4.5-2.3 1.8-4.2 2.5-6.4.8-2.5 1.1-5.2 1.5-7.8.7-.4 1.7-.8 2.4-1.1zm-4-9.9c-.6-1.6-1.2-3-2.1-4.3.9-1.5 2-3.6 3.9-4.4 1.3-.1 2.5.1 3.7.2 1.1 1.6 2.3 2.9 3 4.7.3 1.6-1.1 3.4-1.9 4.7-1.9-.5-4.1-.6-6.6-.9zm-107 83.1c.8-2.9 3-7.7 7.7-9.8 4.7-2 10.2-1.2 14.3 1.9-3 1.8-6.6 4-6.5 8.2 1.1-.6 2.1-1.6 3-2.3 4.6-4.5 8.4-6 14.9-4.4-1.1 2.7-2.9 4.1-5 4.3-.9 1.3-1.6 2.4-2.4 3.7 2.7-2.2 6.8-4 10.2-1.1-.5 1.1-1.1 2.5-1.6 3.9-1.1.7-2 1.7-3.1 2.5 3 0 5.9.3 8.2 1.1-.2-1.3-1.1-2.1-2.1-2.5-.9-.4-1.6-.8-1.7-1.6 1.7-2.4 5-1.1 7.5-1.3-.9-1.2-2.3-2.8-4.3-2.5-2.4.3-3.9-2-5.7-3.1 5.2-4.6 7.3-3.1 13.4-1.9-1.1-1.6-2.5-2.8-4.4-3.4.8-6 6-11.9 12.2-10.7-.1 4.5-1.7 8.8-1.9 13.2s-1.3 8.7-1.9 12.9c-4.2 1.1-7.7 4.4-10 9.3-3.4-1.9-7.5-1.9-10.7.1-6.1-12.1-15.6-20.7-30.1-16.5zm-9.1 6.9c-3.4 3.9-5.9 8.6-10 11.6 4-16.5 6.6-32.9 10.7-49.5 1.9 3.2 4.8 5.2 8.4 5.6 3.6 2.7 6.7 6.1 9.1 9.3 3 4 8.6 2.4 12.9 3.7.4-.7.9-1.4 1.5-2.2 2 1.1 4.3 2.4 6.6 1.1-2.7-2.2-6.6-2.8-8.9-5.3-2.1-2.1-2.7-5.2-4.7-7.4 1.6-.9 2.7-1.1 3.9-.7 2.4 1 4.3 2.5 6.2 4.1 2.8 2.3 6.1 5.7 10 3.9 2.2-.9 4.4-3.5 5.2-6.1-2.1 1.1-4.1 2.5-6 4.4-3.9 0-6.6-3.3-9.7-5.5.7-1.7 1.3-4.2 1.3-6.6 0-.5 0-.8-.2-1.1-.5-.6-1.6-.7-2.4-.7-5-.5-9.8-.6-14.8-.7.1-.5.2-1.1.2-1.6-1.1 0-2 .2-3 .2 0-.7.2-1.6.2-2.1-1.7-1.9-3.3-3.7-5.2-5.5.9 2 1.7 3.5 3.4 5.3-.4.2-.8.5-1.1.7-2-2.3-4.8-4.1-7.2-6 .8-1.1 1.9-2.2 2.7-3.3-1.3.7-2.9 1.7-4.4 2.5-.2-.7-.6-1.6-.7-2.1.3-2.9.5-5.4.7-8.4.3-2.7.5-5.2.7-8.2.6-3.9 3-6.6 5-8.5-.1-3 2.2-4.9 4.2-6.1 2.1 2.1-.7 4.5-1.5 6.6 8.4-1.1 16.6.8 25.1.8 1.6-1.8 3.1-3.9 5.5-4.1.2 2.5-1.5 4.3-3 6.1 10.2 12.3 16.8 28.6 18.8 47.4-4.7 1.6-9.3 5.9-9.1 11.9-2.7.4-5.2 1.1-7.1 2-2-1.4-4.1-1.5-6.2-1.6-1.1 0-2.3 0-3.4-.2-4.8-3.5-11-4.9-16-3.1-6.2 1.7-9.8 7.9-10.5 13.3-2.7 1.9-5.2 3.8-7.2 6.1z"/><path class="st1" d="M966.2 701.9c1.1-1-.6-3.2-1.9-2.5-1.2 1.1.5 3.2 1.9 2.5zm2.8-1.6c-.8 1 .2 3.2 1.6 2.5 1.4-.8 0-3.8-1.6-2.5zm9 4.1c.4-1.3 0-2.1-1.6-1.5-.6 1.4.3 2.1 1.6 1.5zm-33.2 1.7c-.3.1-.7.2-.8.7-.3.3-.5.4-.7.6.4 2.1.7 5.8 3.9 5.7 3.1-1.1 4.2-4.7 5-7.4l-1.9 1.1c-.6 1.8-1.8 3-3.7 4.1-1.2-1.4-1.7-3-1.8-4.8zm1.4 9.5c3.5-.3 6.4-2.7 7.1-5.8l-.6.3c-2.4 1.7-4.7 3.5-6.5 5.5zm35-1.2c2.5.8 4.3-1.5 3-4-.6 1.2-1.3 2.3-1.9 3.1-1.6-.7-2.6-2.5-3.9-3.7l1.8 3.9-2.7 1.5c1.1.4 2.2.9 3 1.1.2-.7.5-1.3.7-1.9zm-52.7 8.1.4-.2c2.7-1.1 3.8-3 3.4-5-2.4.5-3 3.2-3.8 5.2zm4.7-2.1c-.8 1.1-1.9 2-2.7 3.1.6.5 1.3.9 1.9 1.2l.2-.1c.9-1.1 1.6-2 2.4-3.1-.6-.2-1.3-.7-1.8-1.1zm54.7 4.3c-1.2 1.1.4 3.8 1.9 2.7 1.2-1.2-.5-3.8-1.9-2.7zm-66 9.3c3.9-1.1 5.8-5.2 5.8-8.7-2.2 2.2-4.8 5-6.3 8.7h.5zm63.6-5.6c-.2 1.5 2.1 2.8 3.4 2.5v-.2c.2-1.4-2.2-3.3-3.4-2.3zm-33 .5c-.2 1.1-.2 2.4-.4 3.4 1.8.6 3.9 1.2 6.2 1.2 2.5.1 4.8-.8 6.1-3-3 .5-6.2.9-9.3.7-.7-.8-1.9-1.6-2.6-2.3zm-22.6 1.1c-3 2.1-4.8 4.4-5.6 7.4 3.1-1 5.9-4.2 6.1-7.6l-.5.2zm161.7 1.9c.3.5.9 1.1 1.2 1.9 1.2-.7 2.8-1.1 2.4-3-1.3.5-2.4.9-3.6 1.1zm-124.9-.1c-.2.7-.2 1.8-.1 2.8.6.2 1.6.3 2.4.3 2.5 0 4.7-1.1 6.4-3.1-2.9.3-5.7 1.5-8.7 0zm9.9.1-1.9 1.5c1.4 1.3 3.4 1.8 5.2 1.6 1.4-.2 2.5-1.1 3.1-2.4-2.2.3-4.5.8-6.4-.7zm-49.1 7.8c2.9-.3 5.4-2.4 6.5-5.3h-.2c-3-.3-5 2.8-6.3 5.3zm38.7-4.1c-1.8-.2-3.6-.4-5.5-.7 0 3.3 3.3 2.5 5.5 2.7v-2zm-6.5 2.5c-2.2-.2-4.4-1.1-6.3-2.4.3 3.5 4.4 4.3 7 2.5l-.7-.1zm11.7-1.9-.1 2.6c2.8 1.1 5.8 1.1 7-1.9-2.5.1-4.6-.1-6.9-.7zm19.3 4.5c-.6-1.8-1.4-4.3-3.7-3.7l.1.2c.7 1.7 1.9 2.9 3.6 3.5zm-18.5.6c-1.6-1.1-3.9-1.6-6.6-1.9.8 3.4 4.8 2.1 7.2 2.2l-.6-.3zm12.6-2.5c.7 2.4 2.3 4.2 4.5 5.5l-.2-.4c-.5-2.1-2.2-4-4.3-5.1zm19.1 3.8c-.9-1.8-2.4-2.9-4.3-3.1l.1.2c.1 1.7 2.1 2.6 4.2 2.9zm-1.4 1.6c-1.4-.5-3-1-4.7-1.3.8 1.9 2.8 2.8 4.7 3.6v-2.3zm9.3-.8c-.4 1.6-.4 3.1.3 4.3.4 1.2 1.1 2.8 2.3 3.1 1.8.5 3.7-1.3 3.9-3.1.5-1.7-.2-3.9-1.3-5.2-.7 2 .4 5.4-1.9 6.2-2.7-.5-1.9-4.1-3-6l-.2-.6-.1 1.3zm14 9.4v.9c-.6 1.8-1.6 3.6-2.5 5.5 1-.7 2-1.2 3.1-1.9 2.2 1.8 7.3 3.9 10.7 1.7 2.1-3.6.8-8.1.2-12.1l-.7.2v-3.4c-1.7-.2-3.4-.2-5.2-.4l.6.3c.8.7 2.5.8 3.1 1.9-.7.3-1.3.8-1.7 1.1 1.1.4 2.2 1.1 3 1.9-2.5-.7-7-1.1-6.9 2.3 2.1 2 5 2.1 7.7 2.4-.3 1.5-1.1 3.9-3.4 5.2-3.7.2-7.2-2.2-8-5.6zm-43.2-9.7c1.4 2.8 3.7 4.8 6.6 5.5l-.3-.6c-1.8-2.4-3.9-4-6.3-4.9zm60.1 3.1c-.5-.4-.7-1-.8-1.4 0 2.5.2 6.1 3.7 7.8.7-.8 1.7-1.9 2.5-2.7.2-2 .3-4.1-.3-6-.4 1.8-.8 3.9-1.1 5.7-2.1 0-3.2-1.6-4-3.4zm-81.6 2.8c-1.4-1.8-2.9-2.7-4.7-3 .7 2.5 2.5 4.4 4.8 3.3l-.1-.3zm42.5.3c-1.6-1.7-3.9-2.3-6.3-1.8l.2.2c1.8 1.8 3.9 1.8 6.1 1.6zm4.9-2c-1.9 2.2 1.3 4.9 3.4 5.2-1.2-1.8-2.1-3.5-3.4-5.2zm53.9 63.9c-.6.3-1.3 1.5-1.1 2.3 0 .7.5 1.1 1.1 1.1 1.8 0 2.8-4.6 0-3.4zm7.7 2.3c1.8.2 2.7-4.5.1-3.4-.7.4-1.3 1.6-1.1 2.3-.1.7.4 1.1 1 1.1zm-129.4-59c-1-1.5-2.3-3.2-4.3-2.8 1 1.9 2.1 4.5 4.7 3.4l-.4-.6zm-18 2.5c-.5-1.5-1.1-2.9-2.7-3.4-.9 1.8.8 3.3 2.7 3.4zm7.3-2.5c-1 1-.2 3.3 1.3 3.1 2.1-.7.5-4.7-1.3-3.1zm80.8 37.3c-.7 2 3 2.3 3.3.7.2-1.7-2.5-1.8-3.3-.7zM951 811.2c-.7-.9-1.1-1.9-1.4-3.2.8-.4 1.5-1.1 2.1-1.5-1.1-.1-1.9-.2-3-.3l-.2-.7-.2.7c-.2-.1-.6-.1-.8-.2.1.7.1 1.1-.1 1.7v.4c-1.5 2-4 3.2-7 3.1-2.3-1.1-3.2-3.6-3.4-5.2 2.7-.2 5.7-.4 7.7-2.4.1-3.4-4.6-2.6-6.9-2.3 1-.8 1.9-1.6 3-1.9-.6-.3-1.1-.7-1.7-1.1.7-.8 2.3-1.1 3.1-1.9l.6-.3c-1.8.1-3.4.2-5.2.4v3.4l-.7-.2c-.5 4-1.9 8.3.2 12.1 4.1 2.4 8.7-.2 10.7-1.5-.2.6-.9 1-1.2 1.3.6-.2 1.3-.2 1.9-.4 1.6 1.5 3.4 1.8 5 .7l2.3 2.2c.6-.4 1.5-1 1.9-1.2 1.1.3 2.1.7 3.3.7 1.2-1.8.9-4.1 1.1-6.1-3.4.1-7 .1-11-.2.5.6 1 1.2 1.3 1.9-.3.9-1 1.4-1.4 2zm13.5-12.8c-1.1 1-1.6 2.9-3.4 2.7-1.2-1.3-2.2-3-3.4-4.4-.2 3 1.1 5.9 3.4 7.3 2.7-1.5 3.8-3.3 3.4-5.6zm-28.8-2.5c-.7.7-1.2 2-2.3 1.9-.7-1-1.6-2-2.3-3.1-.2 2 .5 4.1 2.3 5.2 1.9-.9 2.6-2.3 2.3-4zm119.7 32.1c-1.1.7-1.3 3.1.4 3.1 1.5-.4 1.5-4.2-.4-3.1zm-21.5 31.1c-1.1-.1-2 1.2-1.4 2.1.2.5.7.8 1.3.8.5 0 .9-.3 1.1-.7.9-.9.2-2.1-1-2.2zm-18 .6c.4-1.4.5-3 .4-4.5-2 1-2.9 3.7-.4 4.5zm-3.4-.2c.4-1.5-.1-3.1-.4-4.4-1.8 1.2-1.9 3.9.4 4.4zm21-1.5c1.2-.1 2.9-.3 3.1-1.9-1.1-.3-2-.4-3.1-.6l-.2 2.5h.2z"/><path class="st1" d="m1067.9 811.9-1.4 3c-.3.7-.5 1.3-.7 1.9.9 2 1.9 4.5 4.3 5.2.4-1.9.6-3.9.6-5.7 1.4 0 3.2-.4 4.4-1.7-1.8 0-3.4 0-5.2-.1-.7-.8-1.2-1.9-2-2.6zm0 4.7-.2-.5c.6-.7.9-.8 1.1-.2.3.9.3 2.9-.1 3.6h-.1c-.1-1-.4-2.1-.7-2.9zm-19.1 14.7c2.3-.1 1.1-4.4-.7-3.1-1.1.7-.7 3 .7 3.1zm-14.3 20.9c.4 1.2 1.1 1.6 1.4 1.7 1.5 0 2.8-1.7 3-3-1.4.3-3.1 1-4.4 1.3zm-12.1-17.8c-.4 0-.8 0-1.4-.1 0 1.1-.1 2.3-.1 3.4l2.3 2.3.2-.2c1.1-.9 2.3-2.5 3.1-4-1.3.4-2.8 1.1-4.3 1.5.1-.9.2-2.1.2-2.9zm-188.5 28.5c.2-.4.7-1 1.1-1.6l-3 1.9c.3-.1.5-.2.7-.3.5-.2.9-.2 1.2 0zm173.4-41.2c-.6 2.6-.6 4.8-.8 7.1 1.3-.1 3-.1 4.4-.1v-1.1h.7c-1.6-3 5.9-2.7 1.8-6.1 0 2-1.2 2.1-3.1 1.9-.9-.9-1.5-2.6-3-1.7zm3.2 5.9c-.6 0-1.6-.2-2.1 0 0-1.1.1-2 .2-3.1 1.1.4 1.6 1.6 1.9 3.1zm-38.7-16.4c-1.2-.4-2.9 1.1-1.8 2.3.3.3.9.5 1.5.2 1-.4 1.8-2.1.3-2.5zm30.8 10.4c-1.1-.5-2.2-.9-3.3-1.1.8 1.6 2.8 2.9 4.7 2.7.3-.7.5-1.1.7-1.7.3-.5.4-1 .7-1.3-.4-.4-1.1-.9-1.5-1.1l-1.3 2.5zm-43.4-7.2c-3.8 1-7.6.1-11.4-.7-1.3-.4-3-.8-4.3-1.1 2.1 2.8 5.6 3.2 8.7 3.4 2.7.2 5.1.7 7-1.6zM633.7 569.1c.4.8 1 1.4 1.8 1.5 2.5.6 5.3 1.1 7.9 1.1-3.3-.4-6.7-1.3-9.7-2.6zm-8.6 24c.3.5.9 1.3 1.3 1.6.8-.6 3-.9 2.6-2.3-1.3-.2-2.9.1-3.9.7zm-.3-122c-.9.6-3.3 1.1-1.6 3.1 1.9 1.9 4.3 3.7 7.1 3.8 3.3 0 6.5-.8 9.7-1.6.3-1 .6-1.8 1.4-2.3-.4-.3-1-.8-1.3-1-2.5.3-4.9 1.1-7.4 1.3-3.2.6-5.7-1.5-7.9-3.3zm-20.7 15c3.3 2.6 7.8.6 11-1.8-.3-.4-.6-1.3-.8-1.6-2.4.3-4.3 1.9-6.5 2.3-1.4-2.6 2.1-4.7 1.1-7.4-2.3 2.3-4 5.2-4.8 8.5zm9.8 11.3c2.4.4 4.4-1.3 6.3-2.6-.1-.8-.3-1.6-.4-2.4-2.1.9-3.9 2.5-6.2 2.1.1-1.5.4-3.1.4-4.5-3.5.4-4.2 7.5-.1 7.4zm-11.1 4.8c.3-1.6.9-3.4 1.8-4.7 0-.9 0-1.8-.1-2.5-3.5 1.9-4.4 6.5-3.8 10.2 3 1 4.8-1.9 6.9-3.5-.1-.6-.1-1.9-.3-2.4-1.8.4-3.2 1.9-4.5 2.9zm14.3 7.4c-2 .1-4 1.1-5.8 2.4l-.3-4.3c-.9.3-1.5.6-2.1 1-.4 1.8 0 3.5.4 5.2.1 1.3 1.8 1.6 2.8 1.3 2.2-1.4 4.6-2.8 5-5.6zm84.1-56.1c.5-.1 1.5-.4 1.9-.5-2-3.5-4.3-7.3-7.7-9.8-.6-.5-1.8-.5-2.5-.6 3 3.4 5.5 7.5 8.3 10.9zm-1.4 4.4c-1.3-3.3-4-5.9-7.1-7.8 1.5 2.6 3.5 4.9 4.8 7.6 1.1 2.3 2.5 4.5 3.9 6.8.9-2.5-.7-4.6-1.6-6.6zm-28.6 4.9c-2.4 1.8-4.9 3.8-4.9 7.2 3.7-.9 5.7-4.8 9.4-5.2 2.3-.4 4.7.3 7.1.3 0-1.1.9-2.6-.4-3.4-3.7-1.1-7.9-1.1-11.2 1.1zm1.3 16c3.3-1.3 6.2-3.5 9.8-3.8 3.1-.9 6.2.9 9.3.8.1-.9.1-1.9.3-2.8-5.3-2.6-11.8-2.1-16.9.9-1.8.8-2.9 2.7-2.5 4.9zm5.5 6.6c-.9.9-1.4 3.3.8 3 2.4-1.6 4.5-3.9 7.6-4.5 3.4-1.3 7.1 0 10.2 1.4.4-.3 1-.8 1.4-.9 0-.5 0-1.5.1-1.9-3.3-2.1-7.3-2.9-11.2-2.5-3.5.8-6.6 2.7-8.9 5.4z"/><path class="st1" d="M504.5 672.8c-.9 17.4 2.3 34.8 8.7 52.4 3.5 8.1 6.4 16.1 11 23.8 4.2 7.7 9.6 14.5 15.1 21.3 3.8 4.2 7.4 8.7 12.3 11.6-3.3 3.1-8.1 4.9-10.8 8.8-3.9 4.7-3.7 11.7-.9 17 4 7.3 11.5 12.2 19.5 13.6-1.6 6 2.8 12.3 8.4 14.4-2.5 4.4-4 9.3-3.1 14.4 1.1 4.7 3.4 9.4 7.4 12.3 5.3 3.7 12.3 4.8 18.6 2.6 1.3-.6 2.6-1.1 3.9-1.6.3-.9.5-1.5.6-2.3-.1-.1-.6-.3-.8-.4-3 .8-6 2.3-9.3 2.1-5.4 0-10.8-2.1-14.4-6.3-3.7-4.5-4.2-10.7-2.5-16.1.8-2.5 2.5-4.4 4.8-5.4 1.3 2.6 3.1 6 6.5 5.9l1-2.5c-2.4-1.6-4.7-4.4-4.3-7.4.5-2.8 3.7-3.3 5.9-3.7.6-.9 1.3-1.5 1.6-2.3-5-2.8-11.3 1.6-12.1 6.9-5.9.3-9.9-5.5-10.2-11 2.5 0 7.4 2.3 8.1-1.6-2.5-1.8-5.9-.6-8.6-2.3-3.3.1-6.2-1-8.9-2.6-5.8-2.8-10.5-8.2-11.2-14.7-1-5 2.9-9.3 6.7-12.1 5-3.5 10.1-7.1 13.3-12.2 1.4-2.1 2-5.3 1.1-7.8-1.1-2-3.7-2.3-5.7-3.1 2.9-1.4 6 .3 8.1 2.5-.3 1.3-2.1 3.1-.5 4.2 2.3.5 4.9-.3 7.1 1 2.4 2.5 2.6 6.2 2.3 9.4-.3 4.3-2.5 7.9-4.2 11.7-1.3 0-2.6-.3-3.9-.4-.9.8-2.9 1.6-1.9 2.9 2.6 1.4 5.7.9 8.2 2.5 1.3 1.4 2 3.3 3 5-1.8 1-3.5 2-5.4 3-.4 1-.6 2-.9 3 2.1-.9 4-2.3 6.3-2.5 1.4.1 2.8.5 4.2.8.5-1 1-2 1.4-3-1.6-.4-3.1-.8-4.8-1 .3-1 .6-2.1 1-3.1 1.8 0 3.7-.4 5 .6 1.3 1.3 2.5 2.9 3.8 4.2 1.1-.1.6-1.6.8-2.4-.1-3-2.6-6.2-5.8-6.3-1.6-.1-3.1.1-4.8.3-1.3-1.1-2.6-2.3-4-3.1 2.4-2.6 3.1-6.3 4.2-9.6 1-3.8.8-7.9-.3-11.8 1.3-2.1 1.6-4.8 3.9-6 1.9-1.5 4.5-.8 6.8-.4.9-.9 1.4-1.8 2.1-2.5-1.8-.5-3.4-.9-5.3-1.3.6-2.3.5-5.2 2.5-6.9 1.8-1.8 4.4-2 6.8-2.4 1.9 6.4 4.3 12.7 7.1 19-2 .3-3.8.8-5.7 1-1.6-1.5-2.6-3.7-4.7-4.8-1.9-.6-3.5 1.3-3.3 3 .4 6.2 1.3 12.3 3.4 18 2.1 5.7 4 11.5 6.8 17 2.9 7.1 6.2 14.1 11 20.1 1.4 1.5 3 3.5 5.3 2.5-.3-1.3-.8-2.5-1.6-3.4-6-6.9-8.9-15.6-12.8-23.9-3.4-8.8-7.7-17.8-8.1-27.5.6.9 1.1 1.9 1.6 2.8 9.2-.5 17.6-5.2 26.8-6.5.8-1.5.9-3.3.6-5.2 0 0 .3-.1.4-.1.8 1.8 1.3 3.4 1.8 5-2 1.5-2.6 3.9-2.6 6.4-.9.1-1.4.4-2.1.5.3 1.1.3 2.5 1.1 3.5 1.6-.1 3.4-1.9 4.7-.5 1.5 1.5 4.5 3 3.4 5.5-1.1 3-4.8 3.5-6.5 6 2.1.4 4.8.3 6.7-1.4 2.3-1.6 2.8-4.4 3.5-6.8 3.1 4.5 5.7 9.3 7.9 14.4-2.3 1-4.4 2.4-5.3 4.8-1.3 3-3 6.5-6.7 6.8-2.6 1-5.8-.9-8.1 1.4 1 1.3 2.1 2.6 3.9 2.3 3.9-.5 7.9-1.3 11-3.9 2-2.6 2.5-6.8 5.9-8.1 2.3-1.1 4.8.6 6.8 1.9-1.1 1.5-3 1.9-4.7 2.8-1.5 2.4-1.8 5.9-4.5 7.2-2.6.9-5.9.6-7.6 3.4 4.2 1.1 9.1-.1 12.1-3.4 1 .3 2.1.6 3.1 1 2.1-1.4 2.8-3.7 2.4-6-.9-2.4 2.3-4 .9-6.3-1-2-1.3-4-1.1-6.3 3.1.5 5.5 2.5 7.8 4.7l1.9-3c1.4-.4 2.9-.8 4.3-1-2.4 2-4.9 4-7.2 6.3-1 1-1.5 2.5-1.6 3.8 1 5.7 2.9 11.2 5.3 16.5 2.9 6.5 5.5 13.1 8.4 19.4l-.5 3c1.8-.9 3.1-1.9 5-2.5 2.8.1 4.7 2.4 6.7 4.2h1.3c.4-.9.6-1.9.8-2.8-.8-.6-1.4-1.3-2.1-1.8 2.8-1.5 5.4-3.7 8.6-4.2 3.3 0 5.5 2.6 7.8 4.7.4-1 .6-2.3.9-3.3-1-.9-1.9-1.9-2.9-2.8 1.5-1.1 2.9-2.4 4.8-2.4 2.9-.3 5.7 2 8.6.8-.3-1.8-1.6-2.9-3-3.7 1.1-2 2-4.4 4.2-5.7 2-.9 4.4-.4 6.7-.5 2.6 4.9 5.5 9.8 8.8 14.4-1.6 1.4-3.4 2.9-3.3 5.4.3.3.8.9.9 1.3 1.3-1.4 2.4-3.5 4.5-3.9 1.9-.5 3.7.1 5.4.6-1.8 1.9-4.8 4.3-2.5 7.1 1.3-1 2.4-2.5 3.7-3.3 1.9-.9 3.9-.9 5.9-1 .6 1.6 1.1 3.3 1.8 4.9l.4.9c.6-.4 1.3-.9 1.8-1.3-.4-1.9-.6-3.8-.8-5.7 2.6 0 5.4 0 7.4-1.9-2.5-2.6-6.5-1.1-9.4.1-1.8 0-3.4 0-5 .1-.6-1.8-2.1-3-3.8-4 3-5.2 7.1-11 13.6-11.1 4.5-.8 8.4 2.1 11.1 5.4.3-.9.6-1.8.9-2.5l-2.5-3.3 1.4-1.4c1-.4 1.9-.8 2.9-1.1 2.9.4 5.2 1.8 7.4 3.5-1.8 1.3-4.4 3.3-3.4 6 1.9-.5 3-2.6 4.9-3.3 2.8-.9 5.5-1.1 8.3-1.9.3-.6.5-1.9.6-2.5-2-.3-4.3.1-6.5.5-3.3-3.1-7.3-5.9-12.1-5.7-2.3-3.3-3.9-7.1-5.7-10.7 2.6-3.3 5.7-6 8.3-9.3 1.3-1.5.6-3.5.8-5.3-1.8-1.3-3.5-2.4-5.8-1.6-4.3.5-5.9 4.8-7.8 7.9-3.7-5.9-6.7-12.2-9.6-18.5-1.5-2.4-3.1-6.4-6.7-5.5-.5 2.8-.1 5.5.6 8.3-6 2.4-11.5 5.9-16.9 9.4-3 2.6-5.3-3.3-8.6-2-1.9.9-2.1 2.9-2.3 4.5.4 3.5 2.1 6.7 3.8 9.8 2.4 4.3 4 8.7 6.3 12.8-3 0-6.2.9-8.4 3.1.4-2.3-.9-3.8-2.5-4.8 1.4-1.5 2.8-3.1 2.6-5.4-.1-1.9-2.3-1.9-3.5-2.5 1.5-2.9 3.3-6.9.8-9.7-3.4-.6-5.4 2.8-7.9 4.7-3.1 2.3-6.2 4.3-9.4 6.2l-1.9-4.2c1.9-2.5 5.9-4.9 4.3-8.6-1.5-3.7-5.8-1.3-8.6-.9-2.4-2.9-6.2-4-9.8-4.2-1.4.3-1.9-.9-2.6-1.6-3.3-.5-6.4.3-9.2 1.9-2.3-1.1-4.8-2.4-7.4-1.3 0-1.8-.1-3.5-.1-5.4 2.3-.3 4.7-1.4 4.8-3.9.3-3.9 1.3-8.1-.5-11.7-.9-2-3.7-1.8-5.4-.8-.8-.4-1.3-.9-2-1.3-.4.3-1.5.8-2 .9-.6.5-.6 2.3-1.6 2.1-.8-.9-1.3-2-1.8-3-.9.1-2 .3-3 .4-.9 4-.6 8.3-1 12.5-3.7-4.7-6.7-9.8-9.2-15.2-1.8-3.1-1.9-7.2-4.8-9.7-4 .9-3.8 6-3.7 9.3-4.8 1.1-9.3 2.8-14 4.2-.3-1.6-.5-3.1-1.1-4.8-2.5-6.2-4.4-12.5-6.3-19-.1.1-.4.3-.6.4.3-.3.5-.3.6-.4-1-3.8-1.8-7.9-2.4-11.8-1.5-9.8-4.2-19.8-4.5-29.7-.3-7.1-.5-14.1-.4-21.2.3-6.3 5.5-10.7 9.1-15.5-.3-3.1-.8-6.4.1-9.4.5-.3 1.3-.8 1.6-1 1.1 1.6 1.6 3.7 3.3 4.9 2.9.4 5.8-.4 8.8-.6 6.2-.9 12.3 0 18.6.1 6.7.3 13.1-.3 19.6-.8 3.7-.3 7.4 1.3 10.7-.4.1-1.6.4-3.1.5-4.8 1 .9 2.1 1.8 2.8 3 2.8 6.4 1.8 13.6 4 20.1-3.1.8-6.4 1.8-9.4 3-3.4 1.8-5.4 5.4-5.8 9.2-4 1-8.3 2.5-12.6 3-8.2 1.1-16.4 1.8-24.7 2.5-1 0-2.3.3-3.3 1 1.1 2.6 3.4 5 5.9 6.8 2.4 1.6 5-.8 6.9-2.5 1 .9 2 2 3.3 2.5 2.6 0 3.9-2.4 5.2-4.2 1.6.9 3.3 2.3 5.2 1.9 1.6-.3 2.5-1.8 3.4-3 1.3 1 2.4 2 4 2.4 2.4 0 3.9-2 4.9-3.9.9-.1 2.1-.4 3.1-.5l1.3 6.5c-3.4 2-8.2 3.3-9.3 7.4-1.3 5.8 0 12.1-2 17.8-1.4 3.7-5.3 5-8.6 6.7-5.5 2.6-12 1.3-17.9 2.3 0 .6.1 1.8.1 2.3 5.9.3 12.1.5 17.8-1.6 4.5-1.6 9.3-3.9 11.2-8.6 2-5.3 1.8-11 2.1-16.5 0-3.3 3.4-4.8 5.9-5.9 4.4-1.8 10.1-2 13.7 1.4 1.8 1.3 2.3 3.5 1.6 5.4-.8 2.3-1.8 4.8-2.9 7.1-1.5 2.6-5.4 2.6-7.1 5.2-.8 7.3-2.1 15.4-7.2 21.3-2.3 3-7.1 3.1-8.3 6.9 3.8-.4 7.6-2.1 10.1-5.2 5.4-6.3 7.2-14.5 8.8-22.4 2.3 3.1 6.7 2.8 9.8 1.1.1 7.3 1 14.6 2.9 21.7 1.5 5.8 2.3 11.7 4.3 17.4 2.5 8.2 4.7 16.5 8.6 24.2-1.9 1.5-3.9 3-3 5.7 1.4-.9 2.8-1.9 4.2-2.6 2-.9 4 .8 5.9 1.4 1.1.5 1.4-1.3 1.9-1.8-.9-.9-1.8-1.8-2.6-2.5 1.3-3.1 3.1-6 6-7.8 4.2-2.9 9.6-1.4 13.9-.1.1-.8.5-1.8.4-2.6-1.8-1.8-4.3-2-6.7-2.1-5.4-.5-11 2.4-13.9 7.1-1 1.6-1.3 4.3-3.5 4.7-6.8-16.1-11.2-33.1-14.2-50.4-.4-4.9-1.3-9.8-.5-14.7 2.4-7.8 9.7-14 17.9-15.2 5.3-.8 10.8 1.8 14.1 5.8 1.9 2.4 2.5 5.5 3.5 8.3-3 .6-6 4.2-9.2 2.3-4-2.1-8.9.4-10.6 4.2-1.1 5.3 1.3 10.1 1.6 15.2-.4 3.9-3.8 6.5-6.5 9.1.3.6 1 1.6 1.3 2 3.8-2 6.7-5.5 7.9-9.4.9-5.2-2.4-10.2-1.6-15.4.3-2.5 3.4-2.8 5.4-3.1-.4 1.6-1.3 3.1-.8 4.8 2.4 5.9 2.9 12.5 1.6 18.8-.5 2-2.3 3.1-3.4 4.8.3.5.5 1.4.6 1.8 2.3-1.3 4.5-2.8 5.5-5.2 4.4-1.9 8.8-3.3 13.3-4.9 1.1 2.9 1.8 5.9 3 8.7 2.3 4.8 3.5 9.8 6.2 14.4 1.1 0 1.9-1.1 2.8-1.6-3.3-6.7-5.8-13.6-8.3-20.5 2.9 1.6 5.9 3.5 9.3 3 6.4-.3 9.3-9.6 5.2-14.1-2.9-3.3-7.1-5.3-11.2-6.3-1-3.7-2.3-7.4-3.3-11.1-1.9.6-3.8 1.3-5.7 1.8-.8-2-1.3-3.8-2-5.7-2.6-6.8-10.1-12.2-17.6-11.3-4.3.5-8.2 2.5-11.8 4.5-1.4-10.3-2.4-20.9-7.1-30.3-1-2.3-3.7-2.3-5.7-2.8-2.3-4.7-1.8-10.2-3-15.4-1-3.1-.8-7.1-3.8-9.2-1.6-1.5-3.7-.5-5.5-.4-.4 1.6-.8 3.1-1.1 4.8-3.7-.5-7.1.4-10.7.5-6.5 0-13.1.5-19.5-.4-7.6-1-15.2-.6-22.8.4-.6-1-1.1-2-1.6-3 2.3-2.9 5.7-1.8 8.7-2.5 1.1-3.1-2.9-2.8-4.9-2.8 1.5-1.5 2.1-3.4 2.9-5.3 1-2.5 3.4-4.2 5.9-5.2 2.3 0 4.3.6 6.2 1.9l-.5 4c3.5-.9 4.4-5.3 7.8-6.2 2-.3 3.9-.1 5.9-.1 0-.6-.1-1.9-.3-2.5-1.6-.4-3.1-.5-4.8-.8 1.1-2.8 2-5.9 4.8-7.6 2.9-2.4 6.7-.9 9.8-.3.3 4.3.6 8.4 1.4 12.6-2.6 1.5-4.7 3.4-6.5 5.8-4.9-2.5-12 1.1-12.3 6.7 2.9-.8 5-2.8 7.8-3.8 2.8 0 4.7 2 6.7 3.4-.1 1.3-.1 2.8-.1 4.2 2.4-1.1 5-2 7.6-3.1.3-.5.8-1.5 1-1.9-1.6-.3-3.4 0-4.8-.8-1.5-.9-2.9-2.3-4.2-3.4 2.1-2 4.7-4.2 7.8-4.5 3.3.1 5.5 2.5 7.8 4.7.4-.4 1.3-1 1.6-1.3-.9-1.9-2.3-3.4-3.5-4.7 4.9-4 11.1-7.6 17.6-6.3 4.2 1.3 9.1 2.6 11.2 6.8 2.5 4.7 2.3 10.2 2.6 15.4.8-.6 1.8-.9 2.5-1.6.6-1.5.6-3.1.8-4.8 4 .1 9.1 1.4 10.1 5.9 1 1.9-1.4 4.7 1.4 5.4.9-.8 1.5-1.6 2.1-2.5.3-1.6 0-3.1-.1-4.8 2.6.1 5.5 0 7.9 1.3 3.1 1.5 4.7 4.7 6.4 7.4-2.8 1.3-4.3 3.8-5.2 6.5-3-2.4-7.1-4.3-10.8-2.3-1.8-1.4-3.5-2.9-5.9-3-2.3-.5-4.3.9-6.3 1.9 0 .8-.1 1.8 0 2.6 2.5-.1 5-2.3 7.4-.6 3 1.3 3.1 4.7 3.3 7.4-1.3.6-3.1.6-3.9 2-.8 1.3-.3 2.9-.4 4.2 1.5-.8 2.9-2 4.5-2.4 2.3 0 4.5.5 7.1.5-.1-.9-.1-1.9-.1-2.8-1.1-.4-2.6-.6-3.9-.9 0-2-.1-3.9-.4-5.9 1.4 0 2.9-.5 4.2-.1 2 1 3.7 2.6 5.5 3.8 1.3-3.7 4.2-6.8 7.9-7.6 2.1-.6 4.2-.3 6.3.1.4-.9.5-1.9.8-2.8-2.1-1-4.5-1.5-7.1-1.6-1.5-2.8-2.9-5.9-5.4-7.8-2-1.1-4.2-2.4-6.5-2.8-2-.5-4 .6-5.9 1.4-1.4-1.9-2.8-3.5-4.5-4.9-.9-4.9-.6-9.7-.6-14.6.3-2.4.3-5.3 2.5-6.5 3.8-2.5 8.8-3 13.1-1.8 2 .5 4.5 1.5 4.9 3.8 1 4 .9 8.2 1.4 12.1.3 3.5.8 7.1.3 10.5-1 1.4-2.6 2.4-3.3 4.2 1.1-.6 2.4-1.3 3.7-1.9.3 1.6.8 2.9 2.5 2.8.1-1.1.1-2.4.3-3.7 5-1.4 9.8.8 13.9 3.4-.4-1.3-.8-2.8-1-4-4-2.3-8.8-3.3-13.3-2.1-.1-4.5-.5-8.8-.8-13.3-.3-4-.3-8.4-2.8-11.8-1.5-1.5-3.7-1.9-5.7-2.6-.3-2.1-.5-4.5-.6-6.8 0-2.8-.3-5.4-.4-8.2 3.5-1.8 5.4-5.3 8.1-8.1 3-2.6 7.2-.6 10.2.8 3.7 1.5 6.5 4.5 6.9 8.4-1.8-.3-3.5-.9-5.3-1.3-1 1.3-1.8 2.8-2.9 3.9-3.8.3-7.7-.8-11.5-.1-1.9.4-3.3 1.9-4.9 2.9.3.3.8.9.9 1.3 4.8-2.1 9.8-1 14.7-.9 2.5 0 3.9-2 4.5-4.2 1.4.4 2.8.9 4.2 1 1-.3 1.9-.9 2.8-1.4-.3-3.3-.9-6.5-3.4-8.9-3.8-3.5-9.2-5.4-14.4-5.3l-.1-1.6c0 .3.1.8.1 1-4.7.9-6.5 6-9.8 8.9-.4-3.1-.4-6.3-.8-9.4-.9-7.9-.4-16-1.3-24.1-.4-2.9-1.5-6.2.4-8.8 1.6-2.9 4.7-6.5 1.9-9.6-3.3 1.8-6.9 3.8-8.1 7.4-8.4-2.8-16.9-5.3-25.7-6.5-3.7-.5-6.9-1.4-10.5-1.9.3-1.1.3-2.4.1-3.7 7.3 2.3 14.9-.3 21.7-2.8 3.9-.4 6.3 3.7 9.4 5.3 2.1.9 3.9-1 4.9-2.6-.1-1.4-.5-2.9-.9-4.2 1.3.4 2.6 1 3.9 1.4l2.5-1.9c0-1.9-.4-3.5-1.1-5.2 2.1.6 5.2 1.9 7.2-.1 2-1.4.5-3.9-.5-5.5-3.4-4.2-8.8-6.4-14.1-7.4-5.3-.8-10.3 1.9-14.5 4.7-5.8 4-13.7 5.8-20.5 3.1.1-4.3.6-8.7 1.4-12.8 2 .9 4.3 1.1 6.5.3.5-.4 1.4-1 1.8-1.3 1.5 1.5 3.4 3 5.7 2.3 3.5-.5 4.4-4.3 6.4-6.7 4.4-1.6 9.6-2.6 12.8-6.5 4.2-4.7 7.2-10.8 6.3-17.1-1.9-17.5-11.5-32.9-23.3-45.2.9-5 1.5-10.7-.9-15.6-1.3-1.1-3.3-2-4.5-.8-2.5 2.3-3.5 5.8-5.5 8.6-2.3-1.3-4.5-2.4-7.1-3.3-.1-3.4.3-6.9-1.4-10.1-1.1-2-4.2-1.5-5.2.3-1.4 2-3.1 4.4-2.8 7.2-3.5-.9-7.1-1.3-10.5-1.6-.3-3.5-1.8-6.9-3.7-9.9-1-1.8-3.7-1.9-4.5 0-1.6 3-1.8 6.7-2.3 9.9-2.9.6-5.8 1.4-8.7 2.3-1.9-3.1-5.4-5.7-9.3-5.4-3.4 3.9-2 9.3-.8 13.9-1.5 2.3-3 4.3-4.7 6.4-2.3-.6-4.9-.9-7.2.1-1.5 3.7-.5 7.3.4 10.7-.8 1.5-1.6 2.9-2.4 4.5-1.8-.4-3.4-.6-5.2-.8-2.6 3.4-2.1 8.2.4 11.5-6 16.1-9.9 32.9-12.6 49.9-1.5 7.6-2 15.1-2.8 22.8-4-2.6-7.7-6.4-12.8-6.3-2.5 1.1-4.5 3.4-5.8 5.9-3.3 6-6 12.7-6.9 19.6-2.8 11.5-1.8 23.4.4 34.9-6.2 3.9-12.3 7.8-18.8 11.3 1.8 5.7 5.2 11 7.4 16.6-3.9.6-7.6 1.8-11.1 3.4-1-3.8-.1-8.7-3.5-11.2-2.3-1.3-5.2 0-7.1 1.6-3.3 2.5-4.5 6.8-5.3 10.6-3 .4-6.2.8-8.7 2.5-3.9 2.3-8.6 5-9.2 10.2-.5 6.4 2.6 12.5 6 17.6 0 1.9-.7 4.3-.8 6.8zm212.3 61.3c1.3 1 1.8 2.6 2.5 3.9-.4.8-.8 1.6-1.1 2.4-2.3-.5-3.4-3.1-3.9-5.4.9-.6 1.8-.9 2.5-.9zm1.4-3.7c-1 .4-2 .5-3 .8-.4-1-.5-2.3-.8-3.4.6-.3 2-.5 2.6-.6.4 1 .8 2.3 1.2 3.2zm10.3 20.2c-2.6.9-5-.8-7.3-2 1.6-.8 3.3-1.9 4.3-3.5-.3-2.4-1.5-4.7-2-7.2 2.5.8 4.8 2.3 7.1 3.9 1.4.9 2.3 2.3 1.9 3.9-.7 2.2-1.5 4.8-4 4.9zm-21.4-15.3c1.6-.6 3.3-1.1 4.9-1.9-.4 3.9 1.4 8.8 5.5 9.8 1.4.6 2.8-.6 3.9-1.4l.8 2.5c-3.1.8-5.8 2.6-8.8 3.7-3.7 1.3-7.4 2.4-11.1 4 .4-3.8.5-7.7-.4-11.5-.1-2.6-1.8-4.9-1.8-7.4 1.6-.9 3.5-1.1 5.3-1.6.5 1.4 1 2.5 1.7 3.8zm.1-4.7c1.6-.6 3.3-1.3 4.9-1.8-.1 2.1-2.5 2.3-4.2 3.1l-.7-1.3zm-85.8-30.5-2.4 3c-1.1-.8-2.4-1.6-3.5-2.5 1.8-.2 3.8-.5 5.9-.5zm3.1-.3c1.4-.4 3-.6 4.5-.6-.3 1.4-1.3 2.6-2.1 3.7-1.1-.9-1.9-2-2.4-3.1zm12.5-1.5c-.1.8-.3 1.6-.4 2.4-1.1-.5-2.1-1-3.1-1.6 1.1-.5 2.3-.7 3.5-.8zm9.4-1.8c-.6 1-.9 2.3-1.6 3-1.4.3-2-1.1-2.8-2 1.4-.5 3-.8 4.4-1zm11.1 7.3h-1c-.6-5.2-3.4-10.2-1.8-15.4 1.3 5.1 1.4 10.4 2.8 15.4zm-.8-17.4c4.3-2.3 9.3-3.5 14.5-4 2 2.3 2.9 5.3 3.8 8.1 2.5 7.6 2.8 15.2 4.2 23-3.7 3.3-6.8 7.1-7.7 11.8-2 1.1-4.2 2.6-6.7 1.9 0-.4 0-.9-.1-1.3 2.4-1.8 3.9-4.4 4.7-7.2 1.5-3.1 1.6-6.9.4-10.2-2-3-5.4-4.9-9.1-4.9-1.4-4.2-2-8.6-2.5-12.8-.3-1 .3-2.9-1.4-3.3l-.1-1.1zm88.4 120.5c-.3-.5-.8-1.5-1-1.9 1.4-2.8 2-5.9 4.5-7.8 1.3-1.1 3.3-1.3 4.7-.5.5 1.1.3 2.5-.8 3.3-2.2 2.1-5.2 3.9-7.4 6.9zm-35.7 5.4c-2.3-5.3-5.8-10.1-7.1-15.9 1.6.5 2.9 2.3 4.2 3.3 6-1.9 10.8-6.8 16.6-9.4 2.4-1.3 4.9-1.9 7.2-3.5 0-2-1.5-3.7-1.6-5.7 2.3 2.4 3.5 5.9 4.8 8.9-1.5.5-4 .9-3.9 3 .1 1.6-1.1 2.4-2.4 2.8.3 1 .5 2.3.6 3.3.5 0 1.6-.1 2.1-.1.3-.3.9-.8 1.3-1 .9.8 1.9 1.3 2.8 1.9 0 .9 0 1.8-.1 2.8-.5.3-1.3.8-1.6 1 2.1 1.4 4.9-.6 5.2-2.9-.3-1.4-.6-3-1.6-4.2-1.1-.8-2.9-1.1-3.5-2.5 1.4.1 2.8.8 4 1.1 5.2 8.6 9.2 17.5 14 26.2-.8.9-1.6 2-2.4 3-4.3-2.4-9.6-1.8-13.7.1-5 2.4-8.6 7.3-9.8 12.6-.4-.1-1.5-.4-2-.5-4.7-7.9-9.5-15.8-13.1-24.3zm-31.4-7.9c-.6-.9-1.3-1.9-1.9-2.8 1.1-1.5 2.9-1.6 4.5-1.9.2 1.9-1.2 3.4-2.6 4.7zm20 24.9c-2.9-.3-5.8.8-8.1 2.1 2.5-6.9 1.8-14.6.5-21.7 1.8-1.5 3.8-2.6 5.7-4-.6 1.8-1.8 3.4-2.9 4.8 0 .5-.1 1.4-.1 1.8l1.1 1.1c.8.4 3-.4 3 .9-.9 1.4-2.1 2.8-3.4 3.9-.4 2.1 1.6 2.9 3.3 3.9-.3 2.1-3.9 4.4-1.1 6.7.9-.9 1.9-1.4 2.8-2.1-.3.6-.6 2-.8 2.6zm-15.4-14.4c2-1 3.8-2.5 5.9-3.3.6 5.4 1.3 11.1.3 16.5-1.8-4.4-4-9.1-6.2-13.2zm-15.5 23.8c-2.4-3.7-3.7-8.2-5.5-12.3 2.3-.3 4.3-.8 6.5-1 2.6-1.4 3.1-4.7 5.7-6.3 4.4 4.2 4 10.7 7.1 15.7-2.5 1.3-5 2.6-6.3 5.2-2.4-1.5-5-2.1-7.5-1.3zm-4.4-41.3c3.4-1.1 8.1.1 9.7 3.7 2.6 5 4.9 10.5 7.4 15.7 3.1 5.5 5.4 11.6 8.3 17.3-1.9-.4-3.8-.4-5.8-.1.5-.9.9-2 .5-3-.6-3.9-2-7.4-3.7-10.7-1.4-2.1-3.5-5.3-6.5-4-2.6.8-3.4 3.5-5 5.5-1.8 1.3-4.2 2-6.3.9-.3 0-.9.1-1.3.1-2.4-5.8-5-11.5-6.2-17.6 2.1-3.4 5.3-6.3 8.9-7.8zm-20.9 11.8c-.1-1.1.3-2.4.9-3.4.4 1 .6 3.6-.9 3.4zm.8-12.7c-1-.3-2.5-.1-2.5-1.5-.4-3.5 0-7.3-.8-11-1 0-2 0-3 .1-.8-1.9 0-3.9.1-5.9.6 1 .8 2.4 1.6 3.1 1 .1 2-.6 3-1 .3-1.6.6-3.3 1-4.9.5 2.1-.1 4.5 1.3 6.3 3.3-1.3 3.1-4.8 3.9-7.6.8 3.3.6 6.8-.5 9.8-1.4.5-4.2.6-4.2 2.8l.1 9.8zm-6.4-9.8c1.1-.1 1.5 1.9.4 2s-1.8-2-.4-2zm-10.3-9.1c-1.5-1-3.4-2.1-4-4.2 2.2.2 3.1 2.4 4 4.2zM519.5 644.1c-5.5 4.5-9.6 10.5-12.1 17-1.8-2.5-3.4-5.4-4.2-8.4-.4-2.9-.1-6.3 2.3-8.6 3.5-2.9 7.7-5.8 12.6-5.4.4 1.8.9 3.5 1.4 5.4zm8.9-17.9c.9 3.3 1.4 6.5 1.8 9.8-2.8 1.5-5.3 3.4-7.8 5-1.8-4.4-.9-9.9 2.4-13.6.9-.9 2.4-1.3 3.6-1.2zm33.3 2.5c2.1 1 2.8 4.2 2.3 5.7-.1.1-.6.3-.8.4-4.3-3.8-10.3-4.4-15.7-4.8-2.3-5.2-4.4-10.1-6.8-15.2 5.2-3.1 10.3-6.7 15.6-9.9.6 3.7 1.5 7.1 2.5 10.5-1.6 1-3.4 1.3-5.2 1.9-.9-1.1-1.5-2.5-2.8-3-1 2 1.9 4.3-.4 5.4-1.9.1-2-2.6-2.8-3.8-.9.3-1.4.5-2.1.8.5 2.3 2 4 2.4 6.3 1.4 1.5 2.4 3.4 3.3 5.3.1 1 1.3.8 2 .9.5-1.1 1.8-1.6 2.8-1.9.8 1.6 1.6 3.5 3.8 3-.8-1.3-1.5-2.8-2-4.2.5-1.1 1.1-2.4 1.6-3.4-1 .3-2.3.5-3.3.6-.4-1-1-2.3-1.4-3.3 1.1-1.4 2.5-2.8 4.2-3.8.8 4.2 3.4 8.3 2.8 12.5zm-9.3-2.6-1.6-3.3c.9-.6 1.5-1.1 2.3-1.6.6 1.1 1.3 2.3 1.6 3.5-.7.4-1.5.9-2.3 1.4zm57.1-38.5c1.9 4.8 4.2 9.3 5.5 14.4-1.9 1.4-3.3 3.3-4.5 5.2-1.5.9-3.1-.4-4.8-.8-3.7-1.3-7.8-1.4-11.5-3 1.6-2.9 3.5-5.7 4.9-8.7-3.8 1.4-4.7 5.8-7.4 8.3-4.8-.3-9.6-1.3-14.4-.4.1-2.5 2-4.7 2.6-7.2-3.3 1.3-3.8 5.4-6.5 7.6-3.9.3-8.1.6-12.1.8-.3.9-1.9 2.1.1 2.5 3.8.3 7.6-.5 11.3-.6-2.6 6.4-5.4 12.7-7.4 19.3-2.5-6.9-4.2-14-5.8-21h1.4c2.4-2.3 4.5-4.9 7.6-6.3 4-2 8.1-4.5 12.6-5.9 4.7-2 9.6-2.5 14.5-3.4 4.7-.6 9.3-2.3 13.9-.8zm-6.3-3.8c-2.3.8-4.7 1.3-7.1 1.4-.1-.3-.1-.5-.1-.6 2.3-.6 4.7-.8 7.2-.8zm-37.8 41.4c1.4.3 2.9-.5 3.5-1.6 2.5-5.9 4-12.3 7.1-18.1 4.8-.4 9.4-.4 14.2.6-.5 1.1-1 2.4-1.6 3.4-3.4 5.7-5.4 12-8.2 17.9-4.9-.4-9.7-.3-14.6-.5-.1-.7-.2-1.3-.4-1.7zm26.9-18.5c5.7.6 11.2 2.1 16.5 4.5-1 2-2.3 4-3.3 5.9-.3 1.1-.6 2.3-1 3.4-.1.3-.6.8-.8 1-.8.8 0 2-.8 2.8-1.4 1.6-2 3.7-2.5 5.7-5.4-.9-11-1.8-16.4-2.6.8-3 2-5.8 3-8.7.7-4.3 3.6-8 5.3-12zm-9.2 23.3c5.7 0 11.2 1.6 16.4 2.4-.3 1.9-.6 3.7-1.1 5.5-.6 1.8-1.1 3.4-1.6 5-1.4.4-2.9.9-4.3 1.3-4-1.9-8.6-2.1-12.8-2.8.6-3.8 2.1-7.6 3.4-11.4zm-6.9 11c-1.9-.6-3.7-1.3-5.5-1.6.1.8.3 1.8.4 2.5-1.9-1.8-3.8-3.4-5.7-5.3.8 0 1.6.1 2.4.3 1.4-2.3-.6-4.8-1-7.2 4.5 0 8.8-.1 13.3 0-1.4 3.7-2.4 7.5-3.9 11.3zm-17.4-40.7c.1-1 1.4-1.9 2.3-1.6.8 1.1-1.6 3.1-2.3 1.6zm-1.5-22.1c0-3.3.5-6.4 1.3-9.6 2.1-.1 4.5-.3 6.8-.4-1.8 3.3-3 6.7-4.3 10.1-1.3.1-2.6-.1-3.8-.1zm12.1-10.7-.4 1.8c1.9-1.9 5-.6 7.4-.8-1.1 3.4-3.3 6.5-4.3 10.2-2.4-.3-5-.4-7.6-.4l1.9-5.7c.7-1.9 1.1-4 3-5.1zm4.5-20.1c2.9 2.6 6.4 4.4 9.1 6.4 8.9 7.2 16.1 16.1 21.5 25.9-6.8-.5-13.3 1.8-19.9 3.5-9.6 2.1-18.5 6.7-26.6 12.3-.8-5-1.4-9.9-1-15h3c-.5 1.9-1.1 3.8-1.3 5.8 3.1-.3 3.3-3.7 4.5-5.9l7.9-.3c0 1.5-1.6 4.4.8 4.5 2.1-.9 1.9-4.5 4.9-4.2-.5-.6-1.8-1.5-1.3-2.5 1-3.1 2.3-6.4 3.5-9.7 2 .3 3.8.1 5.7-.1-1.5-.9-3-1.5-4.7-1.9 1.3-2.6 2-5.3 2.5-8.1-2.6 2-4 5.2-5.9 7.7-2.3-.1-4.5-.3-6.9-.4.4-1.4.6-2.6 1-3.9-.4-.6-.5-1.1-.8-1.6-1.1 1.9-2.5 3.7-3.9 5.4-2.3-.3-4.7-.3-7.1-.1 0-2.8 1-5.4 1.9-7.9 6.5-.6 13.3-.1 19.9.1l.4-.6c-2-1.6-4.9-1.6-7.4-2-3.8 0-7.6-.3-11.2-.1.6-3.8 2.8-7.4 5.8-9.9 2.1.8 3.9 1.3 5.6 2.6zm25.7-78.6c-.8 1.4-1.4 2.9-2.1 4.2-.5-1.8-.8-3.5-.9-5.4l3 1.2zm5.4-16.3c1.1-.4 2.1.3 3.1.4-.6 1.6-1.8 3.3-2.8 4.5-.2-1.7-.9-3.3-.3-4.9zm11.3-19.3c2.6-.5 4.3 2.4 5.9 3.7-2.1 1.3-4 2.6-5.8 4.5-.1-2.8-.6-5.4-.1-8.2zm25-.4c-1.6 0-3.1.1-4.8 0-.4-2.8 0-5.8 1-8.3 1.6 2.6 2.6 5.5 3.8 8.3zm19.8 2.8c-2-.4-3.8-.8-5.7-1 1.4-2 2.6-4 3.7-6.3 1.7 2 1.4 4.9 2 7.3zm18.4 10.9c-2.1-1.8-4.4-3.7-6.9-5 1.8-2.8 2.5-6 4.8-8.4 3.1 3.5 2.3 8.9 2.1 13.4zm-2.7 73.1c-.1-.4-.6-1.3-.6-1.9 2.1-.4 4.2-.6 6.4-.8-.6 1.3-1.4 2.6-2.5 3.7-1.3.7-2.5-.3-3.3-1zm-10.9-3.3c2 .6 4.3.9 6.5 1 0 .3.1.6.1.8-.3.8-.6 1.3-1 1.9-1.3.3-2.8.6-3.8-.4-.8-.9-1.3-2-1.8-3.3zm-.6 31.3c-.6-3.1-1-6.2-1.4-9.2 4.5 2 9.6 1 14.2-.3 5.4-2.1 10.1-6.5 16-7.6 4-.9 7.8.6 11.2 2.3 2.5 1.6 5.8 3 6.3 6.3-3.1-.9-6.5-2.3-9.9-1.3-.4 2.5 2.1 4 3.3 5.9-3.1-.3-6.3-2-9.4-1 .3 2.9 2.8 4.5 4 7.1-2.4.3-3.5-2-5.2-3-2.1-1.5-4.7-3.3-7.4-2.3-4.7 1.5-9.3 3.4-14.5 3.4-2.4.1-4.7-.6-7.2-.3zm-2.9-25.9c-1.5 5.3-2 10.8-2 16.4.1 4.4 1.3 8.6 1.8 13.1-3.1-3.3-6.8-6.4-11-8.4-1.8-.3-4.7 1.1-3.7 3.4 1.9 4.4 5.2 8.2 8.1 12.1-1.6 1.8-3 3.5-4.3 5.7-2.1-.3-4.2-.4-6.2-1-5-1.4-10.2-1.8-15.2-3-1.5-.5-3.1-.8-4.8-.4-4.9 1-9.8.6-14.7 1.4.4 4.5 1.3 9.1 1.6 13.7.5 3.7.4 7.3 1.3 10.7.6 2.3.9 4.5 1 7.1-1.5-3.7-2.8-7.6-4.8-11.1-3.5-5.3-7.3-10.7-11-16-4.5-5.4-9.6-10.7-15.5-14.7.6-7.7 1.4-15.4 2.8-22.9 3.1-20 7.9-40 16.5-58.4 2.8-6.4 6.8-12.1 10.6-17.9 2.5-3.5 4.9-7.1 8.1-9.9 1.6-1.3 2.8-3 4.8-3.8 4.3-1.6 8.8-2.6 13.3-2.4 16-.3 32.1 6.4 43.2 18.1 9.6 10.3 17.1 22.8 19.3 36.9.5 4.3 1.1 8.9-1.1 12.8-1.3 2.4-3 4.4-4.9 6.3-2.9 2.6-6.9 3.5-10.6 4.7-1.9 1.4-4.5 2.6-6.7.8h-.3c-5.3-.3-10.6-.8-15.7-2-12.7-2.4-22.7-11.1-33.4-17.9-.8.3-1.3.6-1.9 1 .1.5.4 1.4.5 1.8-1.3 2.9-1 6.4 1.1 8.8 1.6 1.1 3.7.5 5.5.1.8 2.4 2 4.5 3.3 6.7 2 .1 4 0 5.8-1.1 1.1 2.1 2 4.8 4.5 5.7 1.9 1 3.8-.1 5.4-1.1 1.4 2.4 3 4.7 5.5 5.7 1.3-.2 2.7-.7 3.8-1zm.1-5.8c-.5 1.4-1.5 2.8-2.3 4.2-2.5-.9-3.8-3.4-4.5-5.8 2.3.5 4.6 1 6.8 1.6zm-12.8-.2c-2.6-.4-3.3-3.3-3.7-5.4 2.4.5 4.3 1.8 6.3 2.9-.8.7-1.5 2-2.6 2.5zm-6.9-7.6c-.6 1.5-2.1 2.4-3.4 2.9-1.5-2-2.1-4.3-2.5-6.8 2 1.1 4.1 2.3 5.9 3.9zm-9.2-6c-.4.9-.6 1.8-1.1 2.5-2.9-.5-3.3-3.7-3-6.2 1.3 1.1 2.8 2.3 4.1 3.7zm71.7 62.5c-.4-2.6 1.6-4.9 3.7-6.2-.9 2.3-2.3 4.4-3.7 6.2zm-58.5 76.6c-1.4-5.8-1.6-11.7-2.1-17.5-.4-18 .8-36.4 7.4-53.4 1.6-3.9 3.5-7.9 6.5-11-1.3-5.2-5.5-8.6-7.8-13.3 4.8 1.9 7.8 6.3 11.2 9.9 1.4 1.8 4 .9 6 1.4 7.4 1.8 15.1 2.4 22.3 4.7 4.8 1.1 9.3 2.9 14.1 4.2 0 5 .9 9.8 1 14.7 0 5.2-.1 10.5.3 15.7-1.1-1.1-2.5-2-3.9-2.4-.3.5-.5 1.4-.6 1.8 1.3 1.5 2.8 3.3 5 2.8.5 8.7 1.1 17.5 1.9 26.2-3.4-.1-7.1.3-10.2 1.6-2.6 1.4-5.4 3.5-5.7 6.8-.4 5.4-.4 11.1.4 16.5-1.9-.3-3.8 0-5.4 1-1.5-4.9-2.3-10.6-6.8-13.7-3.3-2-7.1-3.5-10.8-3.9-6.9-.6-13.2 3.4-18.3 7.9-1.4 1-3.1.1-4.5 0zm-4.7-14.7c-1.5-.3-3-.8-4.7-.8-2.4-15.9-4.9-31.6-6.2-47.5-.4-5-1.4-9.9-1-15 3.1.4 6.4 1 9.7 1.4 3.3.5 6.4 2 9.7 1.9-.5 3.9-2.3 7.3-3 11-2.3 8.4-3.7 17.1-4.5 25.8-1.8-.4-3.4-.8-5.2-.9-.9-.4-2 .4-1.8 1.4 2.1.9 4.5.5 6.9.6-.1 2.9-.3 5.8-.5 8.6-.9-.1-2-.3-3-.3.1.5.1 1.3.3 1.6 1 .3 1.9.6 2.9.9.1 3.7.3 7.6.4 11.3zm-17.7-6.3c-2.3-5.2-3.1-10.7-5.3-15.7-2.9-6.4-2.5-13.6-4.2-20.3-.9-6.9-1.5-14.1-2.5-21 5.2-.3 10.1-.9 15.1-1.6.5 3.9.1 7.9.9 11.8 1.1 5.9.9 12 1.9 17.9.5 3.7.4 7.4 1.4 11.1-2.1-.5-4.3-.8-6.2.5 1.1 2.1 3.7 1.8 5 .1.5.4 1 .6 1.4 1 .3 7.2 2.1 14.4 2.9 21.5-2.6 1.1-4.9 2.9-7.2 4.8-1.1-3.3-1.8-6.8-3.2-10.1zm-7.8 16c-4.3-2.1-8.8-3.3-13.1-5.7 1.5-6.4 3-13.1 6.5-18.8 1.9.3 3.5 1.3 5.2 2 .5-.3 1.4-.8 1.8-1-.6-2.4-3.4-2.4-5.2-3.7.9-2.3 2.3-4.5 3.3-6.8 3.4 7.2 4.9 15 7.9 22.2 1 4.2 3.1 8.2 2.9 12.7-1.1 1-2.3 2.1-3.7 2.3-2-.7-3.7-2.2-5.6-3.2zm-17.3 7.4 1.3-3.5c.9-2.1 1.3-4.3 2.3-6.3 3.3.9 6.4 2.6 9.7 3.8-.9.4-1.4.8-2.1 1.1-2.8 1.1-4.9 3.5-6.3 6.3-1.7-.5-3.2-1-4.9-1.4zm-5.6 13.4c-2.3 3.5-1.4 7.9-1.5 12-7.2-8.4-12.6-18.1-20.3-26.3l3.3.8c.5.6 1 1.3 1.4 1.8.9-.5 1.8-.8 2.8-.9 3.7.5 7.2 1 10.7 1.9-1.8 2.3-3.7 4.4-4.7 7.1.3.3.9.6 1.3.8 2.4-1.6 3.9-4 5.8-6.2.8.1 1.6.3 2.4.4.4-.8.8-1.3 1.1-1.9 2.3.3 4.4.9 6.5 1.9.4 1 .5 1.9.8 2.9-1.6.6-2.9 2-3.7 3.7-2.3-.3-4.7-.2-5.9 2zm-70.6 80.9c-5.5-12.7-11.3-25.4-14-38.9-1-7.2-2-14.5-1.6-21.7.1-11.2 5.5-21.9 13.9-29.3 5.7-5.8 12.5-10.7 20.5-12.3 5.2-1.5 10.3-.5 15.4 1.1-.5.3-1.3.9-1.6 1.3.3.6.9 2.1 1.1 2.9-1.5 0-3.1.1-4.5.8.6.8 1.1 1.3 1.6 1.9-1 .8-2.1 1.9-2.9 2.9.9 1.4 1.4 3.1 2.5 4.2 2.3.4 3.9-1.8 5.2-3 2.6 1.5 6 3.1 6.8 6.4.5 1.9-1.5 2.9-2.8 3.7-3.1 1.6-6.2 3.5-9.8 4.2-1.3 0-1.9 1-2.5 1.8.5.5 1.4 1.3 1.8 1.6 4.5-.6 8.4-3.3 12.3-5.2 2.4-1.6 5.2-4.3 4.5-7.4-2.1-3.9-5.8-6.9-9.9-8.6.9-2 1.3-4.3.3-6.5 5.3 3.5 9.9 7.9 14.1 12.8 5 7.1 10.1 14.4 15.7 21-2.9 3.7-5.8 7.8-5.7 12.8 0 9.8 0 19.9 1.3 29.7 1.9 11 3.1 22.3 5.9 33.2.1.5.3 1.4.4 1.8-3.3.6-6.4 2.1-8.8 4.7-1.9 2.3-2.5 5.2-2.9 7.9-2.9 1.8-5.3 4.4-6.5 7.4-1.6-1-3.4-1.5-5.3-1.8-.1-3.1-2.4-6.2-5.7-6.5-6.3-1.5-12.5 3.4-14.1 9.4.5.5 1.6 1.4 2.3.4 1.6-1.3 2.8-3 5-3.1 1.9 0 4.8 1.1 4.2 3.7-.9 3.8-3.9 6.5-6.8 8.9l.3-2.8c-7.9-6.8-14.6-15.1-20.7-23.5-3.3-5.2-6.4-10.3-9-15.9z"/><path class="st1" d="M612.2 638.8c.6 0 1.1.1 1.6.1-.5-.1-1-.1-1.6-.1zm65.7-142.1c-.8 1.5 0 3.1 1.8 3.5 1.8.6 2.1-1.4 2.8-2.4-.9-.9-1.8-1.6-2.8-2.3-.5.1-1.3.8-1.8 1.2zm-74.2 22.1c-1.8.3-3.1 1-4.5 2-.4-2 .4-4.5-.9-6.2-2.4 2.4-1.8 6.3-1 9.3 2.5 1.3 4.5-1.1 6.4-2.4v-2.7zm13 7.9.3-3.3c-2 .8-3.5 2.5-5.3 3.7l-1-2.8c-3.5.3-1.5 5.8 1.3 5.4 1.9.4 3.4-1.7 4.7-3zm29 8.6c1.8-1.1 2.6-3.4 1.6-4.7-2.1-3.4-6.2-4.5-9.7-5.7-5.4-1.8-12 .4-15.2 5.2-1.8 2.6-2.9 6.5-6.3 7.8-2.9.5-5.4-1.5-7.9-2.5l.1 1.8c-.3-.1-.9-.6-1.3-.8l-.5 1c2.9 2 6.4 4.4 10.1 3 3.3-1.9 5.9-5 7.8-8.3 2.3-4.4 8.4-6 13-3.9 2.8 1.3 6.7 1.9 7.6 5.2-.9-.5-1.8-.9-2.6-1.3-1.5.4-4 .3-4.3 2.5 1.3 2.4 3.1 4 4.5 6.3-1.9-.6-3.4-1.8-5-2.8-.9.6-2.8.9-2.5 2.5 1.1 2.3 2.6 4.5 3 7.2-3-.8-4.5-4.3-7.8-4.3-4.3 1.4-7.3 5.2-11.8 6.4-3.7 1.6-7.4-1.3-11.2-.8-1.4.1-2 2-.4 2.4 3.9 1.4 8.6 2.6 12.7 1 3.7-1.6 7.1-4.2 10.2-6.8 2.6.9 4 3.7 6.8 4.2 1.3.4 2.6-.4 3.9-.5.4-2.8-.6-5.3-1.9-7.6 1.9 1.3 4 .9 5.9-.1 1.1-1.3 0-2.6-.5-3.8-1.1-1-2.1-2.3-3-3.5 1.4.4 3 1.7 4.7.9zm-30.8 32.1c.4 1.3 1.1 2.1 2.6 2.4.9-.6 1.8-1.5 2.5-2.3-1.7-.5-3.3-.3-5.1-.1zm6.6.3c.9.6 1.6 1.3 2.4 2 .5-1.1 1.8-1.5 2.8-1.6-1.7-.6-3.5-1.4-5.2-.4zm2.9 26.2c-1.1-.4-2.4-.4-3.5 0 0 .6.1 1.5.3 1.9 1.3 0 2.4-.7 3.2-1.9zm49.3 276.9c-1.1.3-2.1.6-3.1 1.3.3 1 .4 2.3.6 3.3 2.4 2.9 5.8 4.4 9.2 5.4 4.8 1.8 10.3 2.9 15.2.9 4.3-1.4 7.3-4.9 10.6-7.8 4 2 8.2 4 12.8 3.3 3.8-.4 6.4-3.1 8.9-5.9 3 1.1 6.3 1.5 9.4.9.6-1.1 1-2.4.3-3.5-2.6.8-5.3.9-7.8-.1.3-1.4 1.1-2.9.1-4.2-.9.1-1.9.5-2.8.8-1.4 3.7-3.8 7.1-7.4 8.4-3.7 1.8-8.1-.4-11.5-2.3 1-2.6 2.6-5.4 1.4-8.2l-2.3.4c-.5 6-5.7 10.2-10.2 13.9-5.8 3.8-13 2-18.6-.8-2.1-1.3-5.3-2.7-4.8-5.8zm-47.2-297c-2.6-1.1-4.9 1.3-7.6 1.1-1.4-.3-.4 1.6-.4 2.5 1.3-.3 2.5-1 3.5-1.9 1.9 1.6 3.6-.1 4.5-1.7zm13.4 21.7c-1.4.1-4.4-1.8-5.3.1 1.3 1.1 3.3 1 4.9 1.3 1.1 0 2.6.6 2.4-1-.5 0-1.3 0-1.6-.1-.1-.8-.3-1.8-.4-2.5.9-2-.9-5.3 1.9-5.9-.5-.3-1.4-.8-1.8-.9-.6-2.8-.6-5.4-.6-8.2 1.6-.4 3-.6 4.7-.8-1.8-.1-3.4-.3-5-.4-.3-1.5-.4-2.9-.8-4.5-.8 1.3-.4 2.8-.4 4.2-1.9 0-3.7-.3-5.5-.4.3 2.5 3.7 1.5 5.4 1.9.6 2.6.8 5.3 1 7.9-1.8-.3-4-1.6-5.4.1 1.8.6 3.5.8 5.3 1.1 1.2 2.4.7 5.5 1.2 8.1zm26.9-16c2.4-.8 3.5-2.9 4.2-5-.6-1-1.3-1.9-1.9-2.9-.9 1.4-1.8 2.8-2.5 4.2-.6-1.3-1-2.8-1.9-3.8-.6.8-1.3 1.3-1.8 1.8.6 2.1.9 6.1 3.9 5.7zm-42.2 5.7c.9-.6 1.9-1.5 2.8-2.3-1.3-.1-2.5-.1-3.8 0 .3.8.5 1.4 1 2.3zm-2.5-.7c-1.8-.3-3.4-.5-5.2.1.5 1.4 1.8 2 3 2.1 1-.8 1.5-1.4 2.2-2.2zm75.6 7.1c.6-3.4.5-6.9 0-10.2.6.3 1.5.5 2.3.6 1.5-.6 2.6-2 3.3-3.7-.3-1-.6-2.3-.9-3.3-.6.6-1.3 1.1-1.8 1.6-.4 1.1-.9 1.9-1.8 2.5l-1.6-2.8c-1.3-.1-2.6-.4-3.9-.5-1 .5-1.9 1.1-2.8 1.8.4 1 .8 2.1 1.4 3.1.9.8 2.5.8 3 2 .5 2.1.4 4.4.4 6.7-5.3.5-10.8-.5-16-2.3-.6.6-1.1 1.5-1.6 2.3 3.3 1.8 7.2 2 10.8 2.8 3 .5 6.5 1.7 9.2-.6zm-41.1-2.5c1.3-.5 4.2-1.5 2.9-3.1-1.6-.9-3.9.6-5.2 1.6-1.3 1.6 1.2 2.6 2.3 1.5zm4.9 3.4c1.4-1.1-.3-2-1.4-2-1.6.8-3.1 1.9-4.5 2.9.1.5.6 1.4.9 1.8 2-.1 3.8-1.5 5-2.7zm-34.7 13.7c-1.9-.6-3.9-1.1-5.4.1.4.9.6 2 1.8 2 1.6.5 2.6-1.2 3.6-2.1zm32.3-.8c-.9 1 .4 1.9 1 2.6 2.5 2.5 6 4.2 9.4 3.7 3.7-1.8 7.1-3.8 10.5-5.7 5.7.1 11.1 2 15.7 5 1.5 1.1 3.4 2.3 4.3 4.3-1.8.4-3.5 0-5.4-.4-1.3 1.4-1.8 3.3-2.9 4.9-2.8 1.3-5.7-.6-8.4-.1-5 1.3-10.5 1.1-15.2-1.3-.9.3-1.9.5-2.8.8.5 1.8 2.1 2.3 3.8 2.8 4 1.4 8.3 1.1 12.3.4 2.5-.5 5.2.6 7.7.5 2-.4 3.7-1.5 4.9-3.1.1-.9.3-1.8.4-2.5 2.8 1.3 5.8.6 8.2-1.3-.4-2-.8-4.4-2.5-5.7-5-3.9-11-7.1-17.4-7.4-5.2-1-9.3 3-13.6 4.9-2.4 1.4-4.7-.5-6.5-1.6-1.3-.6-2.7-1.9-3.5-.8zm41.2-6.5c-1.3 1.5-.3 2.6 1 3.7.9-.3 2-.6 3-.9l-1.6-1.9-2.4-.9zm-177.9 66.9c2.5 2.6 6 4 9.4 2.8.9-1.3 2-2.6 1.6-4.3-.3-2.4-2.6-4.4-5-3.4 0 .5.1 1.4.1 1.8 1.3.9 1.8 2.4.6 3.7-1.8-.8-3.5-1.9-4.5-3.7-.6.3-1.9.5-2.4.6.1.6.2 1.8.2 2.5zm178.8-26.7c1.9-.3 2.3-2.5 2.8-3.8-.4-.5-1-1.5-1.3-1.9-.9 1-1.8 1.9-2.6 2.9-.5-.5-1.3-1.6-1.6-2.1-.4.8-.8 1.6-1.1 2.4.8 1.2 1.9 2.8 3.8 2.5zm14.5-3.6c-.4-1.8-1.9 0-2.9.1-.8-.4-1.6-.9-2.4-1.3-.1.6-.3 1.9-.4 2.5 1.8 1.9 5.4 1.9 5.7-1.3zm-2.3 11.4c-.6-.8-1.1-1.3-1.6-2 .6-3.3-2.1-6-3.3-8.9-2 1.4-3.5 3.1-4.7 5.3.4 1.8 1.8 3.5 2.9 4.8 1.7 1.7 5.1 3.2 6.7.8zm-3.8-2.8c-1.5-.9-4.3-2.9-1.9-4.5.7 1.5 1.4 2.9 1.9 4.5zm-157.8 85.5c-1.1 4.3-5.9 5.7-9.1 7.9.1.5.4 1.5.5 1.9 4.2-1.8 8.2-4.4 10.5-8.3 1.9-5.2-1.3-10.6-2.3-15.7.5-4.7 5.9-7.7 10.5-6.9 3.8 0 7.2 2.4 9.6 5.2 2.4 3.9-.8 8.3-3.7 11 .9 3.7 2.4 7.4 2 11.3-.4 2.6-1 5.2-2.3 7.4-.6 1.6-2.1 2.8-2.3 4.7.3 1.4 2.3.6 2.8-.3 3.8-4.3 5.3-10.2 4.3-15.7 2.1-.9 4.7-1.5 5.4-3.9 1.4-2.9-1.8-4.9-3.1-7.1.4-3.3-1-6.4-1.4-9.6-1.5-2.1-3.8-3.7-6.2-4.7.8-1.8-1-3-1.8-4.3-1.1-1.6-1.8-3.7-3-5-1.4-.3-2.8.5-4.2.8-.5-1-.9-2.1-1.3-3.1 2.5-1.1 4.4-2.8 6.7-4.2 2.1-2.1 3.4-5.3 2.5-8.3-.4-3.5-3.5-5.8-6.5-7.1-4.9-.9-10.5-2.4-14.7.8-6.8 3.4-5.7 14.1.3 17.8 1.8 1 3.5 1.4 5.4 1.8l2.4 4.2c-.9.6-1.9 1.3-2.8 1.9.5 2.3 2 4 3.1 5.9-2.3 2.4-4.7 5.5-4.2 9.2 1.2 4 3.8 7.9 2.9 12.4zm23.5-2.5c-.8 1.3-2 2-3.3 2.5-.3-1.1-.6-2.5-1-3.7l2-2c1 1 1.8 1.9 2.3 3.2zm-12.5-40.6c-2.3 2.6-4.9 5.4-8.3 5.9-2.6-.1-5.5-.8-7.8-2.5-2.5-2.4-4-5.9-2.8-9.2 1.5-2.4 4.4-3.3 7.1-3.5 2.5-.1 4.9 1.4 7.2 2.4.5-.1 1.6-.1 2.1-.3 1.9 1.8 3.8 4.6 2.5 7.2zm-6.8 19.9c-.8-1.3-1.5-2.3-2-3.3 2.3-.9 4.7-1.6 7.1-2.5.9 1.8 2 3.5 3 5.4-2.7.2-5.3.2-8.1.4z"/><path class="st1" d="M552.1 685.8c1.6 1.4 3.3-.5 3.1-2.3-.8-.1-1.6-.3-2.4-.4-.6.8-2 1.8-.7 2.7zm52.8 5.3c.1-2.3-1.3-4.3-1.3-6.4 1-2 3.8-2.8 5.9-2 2.3 1.6 3.7 4.4 5.9 6.2 1.9-4.5-1.8-10.3-6.5-10.7-3.3-.5-6.3 1.8-7.9 4.5-1.4 3 .1 6.3 1.1 9.3 1.1.1 2.3.1 2.8-.9zm50-16.9c2.1-.4 3.3 1.4 4.9 2.4 1.6.1 1-2 1-3-1.3-4.3-9.1-2.6-8.7 1.9.5 1.8.9 4 2.9 4.8 2.9-.9-.3-4-.1-6.1zm-15.3 5.5c-1.4.4-1.4 1.9-1.6 2.9 1.5.9 2.6 2.4 4.5 2.5 2.8.3 4.7-1.8 6.9-3 .1-1.1.9-2.8-.4-3.5-3.1-.4-6.6-.6-9.4 1.1zm4.7 1.3c2.3.5-.8 2.6-1.8 1.4-.9-1.1 1-1.6 1.8-1.4zm28.8 9.6c.1-2-.3-4.4-2.6-4.8-.6 1.1-1.3 2.5-1.9 3.7.5.9 1 1.9 1.4 2.8 1.1-.5 2.2-1 3.1-1.7zm-33.2 19c2.1-.9 4.5-1.4 6.3-2.8-.3-.1-.9-.4-1.1-.5.1-.5.3-1.4.4-1.8-8.4 3-17.1 6.9-26.3 5-.3.8-1.8 1.8-.6 2.6.5 1.1 2.1.8 3.1 1 6.1.4 12.4-1.1 18.2-3.5zm57.4 9.8c-.6 1.1 0 2.4 1 3.1 1.4-1.4 3.1-1.3 4.8-1.3 1-.6 1-2 .9-3-2.3-.4-4.8-.4-6.7 1.2zm-2.3 3.3c-1.9-.1-3.3 1-4.9 1.8.6.9 1.1 2.6 2.5 1.9 1.5-.6 3.9-2.2 2.4-3.7zm-11.1 2c-2.8.4-4.3 3.5-3.7 6.2.5 0 1.3.3 1.6.4.6-1 1.1-2.3 1.6-3.3 1.4.5 3.4.3 4.2-1.4.1-2-2.3-1.9-3.7-1.9zM587.6 865c-1 5.9-1.8 11.8-1.6 17.5.3 9.8 1.1 20 5 29.2.9 2.3 2.3 4.2 3.9 6 3.1 2.8 6.7 5.5 10.8 6.4 4.7.9 9.4 1 14.1.3 4-.9 8.6-1.8 11.7-4.8 3.8-3 4.7-8.4 3.4-13-1.4-5.8-2.1-11.8-1.8-17.9 4.5 2.8 10.5 2.9 15 .1.1-1.6.9-3.7-.8-4.7-3.7-3.3-9.1-2.6-13-5.3 0-1.5-1-2.4-2.3-2.8-.8.6-1.4 1.3-2 1.9-.8 4.8-.5 9.4-.8 14.1-.1 2.9 0 5.7.3 8.6-.9-.1-1.5-.3-2.3-.4-.4 1.1-.6 2.4-.9 3.5-.9-1.3-1.8-2.6-2.8-3.7-.3 1-.5 2.1-.8 3.1h-3.4c0 1.6 0 3.3.8 4.5 1.4-.4 2.9-.9 4-1.6 1 .1 2 .4 3 .4 1.3-.5 2.3-1.8 3.1-2.8.8 4.2 2.9 9.1.1 12.8-5.2 4.4-12.7 4.9-19.3 4.8-7.8 0-14.7-5.8-17.4-12.8-4-9.7-4.4-20.3-4.5-30.5 0-4.3.9-8.6 1-12.8l-.6-.8c-.3.4-1.1.5-1.9.7zm58.2 22.4c-4.2 2.3-8.6.1-12.2-1.9 0-.9.1-1.9.1-2.8 3.8 1.9 8.8 1.5 12.1 4.7zm62.6-143.9c2-.8 2.9-3.4 1.5-5.4-.9-1.8-2.9-2.3-4.8-1.9 0 .9-.3 1.9-.4 2.8 1.2 1.6 1.5 4.1 3.7 4.5zM611.8 782c-2-3.8-7.7-5.9-11.1-2.6-1 2.9 0 6 .8 8.8.9-.4 1.9-.9 2.6-1.4 0-2-.6-3.9-.8-5.8 2.4-.5 4 1.5 5.9 2.8 1.2.3 1.8-.9 2.6-1.8zm49.7 23.7c.3 1 .3 2.5 1.4 3.3 1.5 1.6 3.7.8 5.3 0 .8-2.1 1.1-4.2.3-6.3-.9.1-1.8.4-2.5.6-.4.9-.5 2-.8 3-.9-1.8-2.4-1.3-3.7-.6zm56.9-7.5c-2.3 1.3-1.4 4.5-1.5 6.7h1.6c.1-.5.3-1.3.4-1.6l1.6-1c.3.3.8.9 1 1.3.6-.5 1.6-1.3 2-1.6-1-1.9-2.4-4.8-5.1-3.8zm-85.5 26.6c-2.6.8-3.8 3.5-4.8 5.9-2.5 1-5.4 2.1-7.1 4.8-.5 1.3-.3 2.6-.4 3.9 1.9.5 2.5-2 3.8-3 1.9-2.4 5.5-2.4 8.1-1.1.9 1.5-1.8 2.3-1.9 3.9-.1 1.1-.1 2.4.8 3.3 1.5-.5 2.1-2.4 3.4-3.3 2.5-1.4 5.9 0 8.2-2 1.4-.5 1-2.5-.4-2.5-1.9-.1-3.9.3-5.8.4-1.3-2-3.3-3.1-5.5-4 .8-1.3 1.4-3.1 3-3.5 2.3-.6 4.2 1.1 6.3 1.6 1.5 0 1.6-1.5 1.9-2.5-2.9-1.6-6.3-3.9-9.6-1.9zm91.5-5.8c-1.3.9-3.7 1.5-3.4 3.3 2 1.1 4.2-.1 6-1 3.4-2.5 2.1-7.8 5.4-10.6.9-1.3 2.4-1.4 3.7-1.6.3 2.4-2.1 4.3-.3 6.5-.3 2.4-2.1 4.2-3.4 6 0 1 .5 1.3 1.4 1 2.9-2.1 4.7-6 3.9-9.7-.3-1.4.9-2.6 1-3.9-.4-1.1-1.3-2-2-2.8-2.5-.3-5.3.8-7.1 2.8-3.1 2.6-1.3 8.1-5.2 10zm48.6.6c.4-.9.9-1.4 1.3-2.1-3.8-2-8.6-2.4-12.6-.8-1.8.9-2.6 2.6-2.5 4.5 3.4-3.7 9.2-3.2 13.8-1.6zm-67.7 26.1c.6-.8 1.6-1.4 1.8-2.4-1.6-1-3.3-1.5-5-2.3 1.1-2 1.6-4.7 3.9-5.7 1.1-.8 2.8-.6 4.2-.9.3-.9 1.4-2.8-.5-2.8-5.3-.9-9.6 4.3-9.4 9.2-2 1.3-5.3 3.7-2.6 6 1-.9 2-1.8 3-2.5 1.6.1 3 1 4.6 1.4z"/><path class="st1" d="M637.3 874.7c1.1 2 2.1 4.5 4.7 5 4 1.9 8.8 1.1 12.5-1.3 1.3-.9 2.4-1.9 3.5-2.9 1.9.3 3.8.3 5.7.4-.1.6-.3 1.5-.4 2.3l3.8-.5c0-.5-.3-1.8-.4-2.3 1-.8 2.1-1.6 3-2.5.5-1.1.9-2.5 1.3-3.7-2 .6-3.3 2.4-5 3.4-2.9 1.5-6.3.4-9.2-.8 1.3-2 2-4 2.5-6.3 2.4-.4 4.4-1.1 6.3-2.8 1.8 1.6 3.9 3.9 6.7 3.5 1.4 0 2.6-1 3.7-1.9 0-.4-.1-1-.1-1.4-1.9.1-3.5 1-5.2 0-2.9-1.1-4.3-4.3-5.2-7.1-.5.1-1.8.4-2.3.5-.6 1.4.3 2.9.5 4.3-1.6.6-3 1.8-4.8 1.4-2.4-.4-3.8-2.8-6.3-2.9l-.5 2.5c1.1 1.3 2.6 2.4 4.3 3-.5 2.1-1.4 4.3-3.3 5.5-1.1-.3-2.6-.9-3.8-.1 0 3.7 4.3 2.8 6.3 4.8-3.1 2-7.3 4.3-11 2.4-4.4-2.5-5.3-7.9-6-12.5l-1.6 1.6c-1.9 1.4-.6 3.9-.6 5.9-2.1.3-4.3.8-6.3 0-4.7-1.8-8.8-4.9-12.3-8.6 1.3-1.9 2.6-3.5 3.9-5.4 3.3 1.1 6.9-1 7.8-4.3-1.5.4-3.1.9-4.5 1.4-2.6-.9-4.8-2.8-6-5.2-.8.9-1.8 1.5-2.8 2 .5 2 1.9 3.5 3.5 4.8-1.6 1.9-3 4.3-5.3 5.5-2.6.6-5.2-.8-7.6-1.6.5-1.8 1-3.5.3-5.2-.5-.3-1.5-.6-1.9-.8-.3.9-.6 2.1-.9 3.1-2.4 2.1-5.3 3.4-8.1 4.5-.8 1-1.4 2.1-1.9 3.1 3.3-.3 6.3-1.4 9.2-3 3.3 2.6 7.6 4.2 11.7 3.1 4 4 8.7 7.4 14.1 9.3 2.6 1.7 5.5.5 8-.2zm-38.6 6.9c-.1.6-.6 1.6-.9 2.3 5.2.8 10.7 2 16.1 2 2.9.1 6.7-1.9 6.5-5.2.4-2.1-1.3-4-3.1-4.7-3.5-1.4-7.6-1.3-11.5-1.3-1.8 0-2.9-1.8-4.2-2.8-.3-.1-.9-.1-1.3-.1l-.5 2.5c.9 1.3 1.9 2.9 3.7 3.3 4.3 1.4 9.4-.5 13.3 2.1 1.8 1.8-1.5 2.6-2.8 3.1-5.1 1.1-10.1-1.5-15.3-1.2zm134.7-27.3c2.6-1.8 6.7-1.1 8.6-4.2-.6-.3-1.5-.9-1.9-1.3-2 .8-4 1.3-6 1.8-2 1.3-3.4 3-4.5 5 .9.9 1 2.6 2.3 2.3.6-1 1-2.2 1.5-3.6zm-127.8 44.8c3.4-.9 4.9-4.8 8.6-5.2 3-1 5.8.5 8.6 1.8 1 .6 1.9-.6 2.8-1-.6-2.3-2.9-2.9-4.8-3.7-3.7-1.5-8.1-.1-11.3 1.8-2.2 1.5-5.1 3.4-3.9 6.3zm-1 10.8c1.8 1.3 3.7 0 4.9-1.1-.3-1-.5-1.9-.8-2.9-.4-.3-1.5-.9-2-1.1-.3.4-.8 1.5-.9 2-.4-.9-.9-1.9-1.3-2.6-.9-.1-1.8-.4-2.5-.5-.5 2.3 1 4.6 2.6 6.2zm508.7-52.5c-9.7.5 5.4 3 14.6 2.4 25.4-1.2 54-1.8 85.9-1.8 27.2.1 57.6.7 88.4 2.3 15.2.8 31.2 1.8 45.5 3 7.8.7 14.7 1.3 22 2 7.8.8 16 2 24.8 2.5 79.5 4.4 157.3 6.2 235.9 10 6.4.3 11.1.2 11.1-.5 0-.6-5-1.5-11-1.8-80.5-3.7-158.3-5.6-239.2-10.2 2.3.2 4.6.4 6 .5-20.6-2.4-43.1-4.5-67-6.1-40.9-2.8-82.3-4-118.7-4.3-36.4 0-69.7.6-98.3 2zM576 863.5c-19.9 0-43 .7-68.2 2.1-25.2 1.4-53.9 3.6-82.1 7-16.5 1.9-32 4.1-46.2 6.4.9-.1 2.5-.3 4.1-.5-55.9 5.9-109.7 9.8-165.4 15.1-4.1.4-7.6 1.2-7.5 1.6.1.5 3.3.4 7.7 0 54.3-5.2 108.2-9.1 163.1-14.9 6-.6 11.7-1.7 17.1-2.5 5.1-.8 9.8-1.4 15.2-2.1 9.8-1.3 20.9-2.5 31.4-3.6 21.3-2.2 42.3-3.6 61.2-4.6 22-1.1 41.9-1.7 59.5-1.7 6.5 0 16.9-2.2 10.1-2.3z"/><path class="st2" d="M1558.5 916.3s.1 0 0 0c-4.1 1.3-8.4 2.6-12.7 3.9-.7.8-1.4 1.6-2.1 2.5 4.9-2.1 9.9-4.3 14.8-6.4z"/><path d="M1290.3 631.5c-.1-.2-.2-.4-.2-.6-.2.5-.4.9-.7 1.4.8 1.2 1.6 2.3 2.4 3.5-.5-1.5-1-2.9-1.5-4.3zM1238.7 270.2c-1.4-.4-2.6-1-3.8-1.7.9.9 1.9 1.8 3 2.5.2-.3.5-.6.8-.8zM1302.1 452.3h.5c0-1 0-2.1.1-3.1-.2.1-.3.2-.5.3-.1.9-.1 1.8-.1 2.8zM1350.2 410.7c1.6-.3 2.8-1.1 3.7-2.1-1.1.9-2.3 1.6-3.7 2.1zM1329.3 450.6c.3-.8.6-1.6.8-2.5 0-.2.1-.3.2-.5-.5 0-1 0-1.5-.1.1 1 .3 2.1.5 3.1zM977.3 432.1c0-5.5 1.8-10 5.5-13.6 3.6-3.6 8.3-5.4 14-5.4 2.6 0 5.1.4 7.6 1.3s4.6 2.2 6.3 3.9l-4.2 6.8c-1.2-1.1-2.7-2-4.4-2.7-1.7-.7-3.3-1.1-4.9-1.1-3.5 0-6.1 1-7.8 3.1-1.8 2.1-2.6 4.6-2.6 7.5 0 3 .9 5.6 2.7 7.8 1.8 2.2 4.4 3.3 7.8 3.3 3.5 0 6.8-1.5 9.9-4.6l4.7 6.6c-4 4.1-9 6.2-14.9 6.2s-10.6-1.8-14.1-5.4c-3.8-3.5-5.6-8.1-5.6-13.7zM1016.3 450.7v-37.1h12.9c3.3 0 5.7.3 7.2.9 2.1.8 3.8 2.2 5 4 1.2 1.9 1.8 4.1 1.8 6.8 0 2.1-.5 4.1-1.5 5.9-1 1.9-2.3 3.3-4.1 4.2v.1c.3.4.8 1.2 1.4 2.2l7.2 13h-10.1l-6.6-12.5h-4.3v12.5h-8.9zm9.1-20.2h3.9c1.5 0 2.6-.4 3.5-1.2.8-.8 1.2-1.9 1.2-3.4 0-2-.7-3.4-2.2-3.9-.8-.3-1.9-.5-3.4-.5h-3.1v9zM1050.5 450.7v-37.1h23.2v7.8h-14.2v6.7h11.3v7.8h-11.3v7h14.9v7.8h-23.9zM1076.2 450.7l12.6-37.1h9.5l12.6 37.1h-9.3l-2.3-7.8h-11.6l-2.2 7.8h-9.3zm13.7-15h7.3l-2.1-7.2-1.5-6.4h-.1c-.6 2.7-1.1 4.8-1.5 6.4l-2.1 7.2zM1113.2 450.7l3.1-37.1h9.9l5.4 15.7 1.9 6.1h.1c.7-2.5 1.3-4.5 1.9-6.1l5.4-15.7h9.9l3 37.1h-9.1l-1.1-16.7c-.1-.8-.1-1.8-.1-2.8s0-1.9.1-2.5l.1-.9h-.1c-.8 2.6-1.5 4.7-2.1 6.2l-3.9 10.7h-7.8l-3.9-10.7-2.1-6.2h-.1c.1 2.3.1 4.4 0 6.2l-1.1 16.7h-9.4zM1158 432c0-5.4 1.8-9.9 5.4-13.5 3.6-3.6 8.3-5.4 14-5.4s10.3 1.8 14 5.4c3.6 3.6 5.4 8.1 5.4 13.5 0 5.5-1.8 10.2-5.4 13.9-3.6 3.7-8.3 5.6-14 5.6s-10.3-1.8-14-5.6c-3.6-3.8-5.4-8.4-5.4-13.9zm9.4 0c0 3.2.9 5.8 2.8 7.9 1.9 2.1 4.3 3.2 7.2 3.2s5.3-1.1 7.2-3.2c1.9-2.1 2.8-4.8 2.8-7.9 0-3-.9-5.6-2.8-7.6s-4.3-3-7.2-3-5.3 1-7.2 3c-1.9 2-2.8 4.5-2.8 7.6zM1199.7 446.1l4.8-6.9c1.2 1 2.6 1.9 4.2 2.7 1.6.8 3.2 1.1 4.7 1.1 1.2 0 2.2-.2 2.8-.7.7-.5 1-1.1 1-1.9 0-.8-.4-1.5-1.2-2.2s-1.8-1.2-3-1.7c-1.2-.4-2.5-1-3.9-1.7s-2.7-1.5-3.9-2.3c-1.2-.8-2.2-1.9-3-3.3-.8-1.4-1.2-3-1.2-4.9 0-3.4 1.3-6.1 3.8-8.2 2.5-2.1 5.7-3.1 9.7-3.1 4.6 0 8.5 1.4 11.6 4.2l-3.8 7.4c-1.1-.9-2.4-1.7-3.8-2.3-1.5-.6-2.9-.9-4.4-.9-1.3 0-2.3.2-3 .7-.7.5-1 1.1-1 1.9 0 .8.4 1.5 1.2 2.2.8.7 1.8 1.2 3 1.6 1.2.4 2.5 1 3.9 1.7s2.7 1.4 3.9 2.2c1.2.8 2.2 1.9 3 3.3s1.2 3 1.2 4.9c0 3.3-1.2 6-3.5 8.2-2.3 2.2-5.6 3.3-9.7 3.3-2.5 0-4.9-.4-7.3-1.3-2.3-1-4.4-2.3-6.1-4zM979.3 513v-37.1h23.2v7.8h-14.2v6.7h11.3v7.8h-11.3v7h14.9v7.8h-23.9zM1005.6 513l11.3-18.4-11.3-18.7h10.3l4 7.6 2.3 4.8h.1c.7-1.6 1.4-3.2 2.3-4.8l4.1-7.6h10.3l-11.4 18.7 11.3 18.4h-10.1l-4.3-7.8-2.3-4.6h-.1c-.7 1.5-1.4 3.1-2.3 4.6l-4.3 7.8h-9.9zM1043.3 513v-37.1h15.4c3.6 0 6.5 1.2 8.7 3.6s3.3 5.4 3.3 9.2c0 3.8-1.1 6.9-3.3 9.3-2.2 2.4-5.1 3.6-8.7 3.6h-6.3V513h-9.1zm9-19.3h4.5c1.5 0 2.7-.5 3.5-1.4.8-.9 1.2-2.2 1.2-3.7s-.4-2.7-1.2-3.6c-.8-.9-1.9-1.3-3.4-1.3h-4.6v10zM1075.9 513v-37.1h23.2v7.8H1085v6.7h11.3v7.8H1085v7h14.9v7.8h-24zM1105.7 513v-37.1h12.9c3.3 0 5.7.3 7.2.9 2.1.8 3.8 2.2 5 4 1.2 1.9 1.8 4.1 1.8 6.8 0 2.1-.5 4.1-1.5 5.9-1 1.9-2.3 3.3-4.1 4.2v.1c.3.4.8 1.2 1.4 2.2l7.2 13h-10.1l-6.6-12.5h-4.3V513h-8.9zm9-20.3h3.9c1.5 0 2.6-.4 3.5-1.2.8-.8 1.2-1.9 1.2-3.4 0-2-.7-3.4-2.2-3.9-.8-.3-1.9-.5-3.4-.5h-3.1v9zM1139.8 513v-37.1h9.1V513h-9.1zM1156.6 513v-37.1h23.2v7.8h-14.2v6.7h11.3v7.8h-11.3v7h14.9v7.8h-23.9zM1186.4 513v-37.1h9.2l10.3 17.3c.4.7.9 1.6 1.4 2.7.5 1.1.9 1.9 1.2 2.6l.5 1h.1c-.3-2.7-.4-4.8-.4-6.3v-17.3h9.1V513h-9.1l-10.3-17.3c-.4-.7-.9-1.6-1.4-2.7-.5-1.1-.9-1.9-1.2-2.6l-.5-1h-.1c.3 2.7.4 4.8.4 6.3V513h-9.2zM1223.6 494.4c0-5.5 1.8-10 5.5-13.6 3.6-3.6 8.3-5.4 14-5.4 2.6 0 5.1.4 7.6 1.3s4.6 2.2 6.3 3.9l-4.2 6.8c-1.2-1.1-2.7-2-4.4-2.7-1.7-.7-3.3-1.1-4.9-1.1-3.5 0-6.1 1-7.8 3.1-1.8 2.1-2.6 4.6-2.6 7.5 0 3 .9 5.6 2.7 7.8 1.8 2.2 4.4 3.3 7.8 3.3 3.5 0 6.8-1.5 9.9-4.6l4.7 6.6c-4 4.1-9 6.2-14.9 6.2s-10.6-1.8-14.1-5.4c-3.9-3.5-5.6-8.1-5.6-13.7zM1262.6 513v-37.1h9.1V513h-9.1zM1275.4 513l12.6-37.1h9.5l12.6 37.1h-9.3l-2.3-7.8H1287l-2.2 7.8h-9.4zm13.7-15.1h7.3l-2.1-7.2-1.5-6.4h-.1c-.6 2.7-1.1 4.8-1.5 6.4l-2.1 7.2zM1311.3 508.3l4.8-6.9c1.2 1 2.6 1.9 4.2 2.7 1.6.8 3.2 1.1 4.7 1.1 1.2 0 2.2-.2 2.8-.7.7-.5 1-1.1 1-1.9 0-.8-.4-1.5-1.2-2.2s-1.8-1.2-3-1.7c-1.2-.4-2.5-1-3.9-1.7s-2.7-1.5-3.9-2.3c-1.2-.8-2.2-1.9-3-3.3-.8-1.4-1.2-3-1.2-4.9 0-3.4 1.3-6.1 3.8-8.2 2.5-2.1 5.7-3.1 9.7-3.1 4.6 0 8.5 1.4 11.6 4.2l-3.8 7.4c-1.1-.9-2.4-1.7-3.8-2.3-1.5-.6-2.9-.9-4.4-.9-1.3 0-2.3.2-3 .7-.7.5-1 1.1-1 1.9 0 .8.4 1.5 1.2 2.2.8.7 1.8 1.2 3 1.6 1.2.4 2.5 1 3.9 1.7s2.7 1.4 3.9 2.2c1.2.8 2.2 1.9 3 3.3s1.2 3 1.2 4.9c0 3.3-1.2 6-3.5 8.2-2.3 2.2-5.6 3.3-9.7 3.3-2.5 0-4.9-.4-7.3-1.3-2.3-.9-4.3-2.3-6.1-4zM1340.4 518.7l3.9-14.4h8.6l-5.9 14.4h-6.6zM977.3 556.6c0-5.4 1.8-10 5.5-13.6 3.7-3.6 8.3-5.5 13.9-5.5 5.8 0 10.5 1.6 14.3 4.9l-4.4 6.8c-1.1-1-2.5-1.8-4.1-2.4-1.7-.7-3.3-1-4.9-1-3.7 0-6.4 1-8.2 3-1.8 2-2.7 4.5-2.7 7.5 0 3.4 1 6.2 3.1 8.2 2.1 2 4.6 3.1 7.5 3.1 2.7 0 5.2-.9 7.5-2.7V562h-5.2v-7.7h13.3v21h-7.6v-1l.1-1.6h-.1c-1.1 1-2.6 1.7-4.3 2.3-1.8.6-3.6.9-5.4.9-5 0-9.3-1.7-12.8-5.2-3.7-3.6-5.5-8.2-5.5-14.1zM1019.4 575.2v-37.1h23.2v7.8h-14.2v6.7h11.3v7.8h-11.3v7h14.9v7.8h-23.9zM1049.2 575.2v-37.1h9.2l10.3 17.3c.4.7.9 1.6 1.4 2.7.5 1.1.9 1.9 1.2 2.6l.5 1h.1c-.3-2.7-.4-4.8-.4-6.3v-17.3h9.1v37.1h-9.1L1061 558c-.4-.7-.9-1.6-1.4-2.7-.5-1.1-.9-1.9-1.2-2.6l-.5-1h-.1c.3 2.7.4 4.8.4 6.3v17.3h-9zM1088.3 575.2v-37.1h23.2v7.8h-14.2v6.7h11.3v7.8h-11.3v7h14.9v7.8h-23.9zM1118.1 575.2v-37.1h12.9c3.3 0 5.7.3 7.2.9 2.1.8 3.8 2.2 5 4 1.2 1.9 1.8 4.1 1.8 6.8 0 2.1-.5 4.1-1.5 5.9-1 1.9-2.3 3.3-4.1 4.2v.1c.3.5.8 1.2 1.4 2.2l7.2 13h-10l-6.6-12.5h-4.3v12.5h-9zm9-20.2h3.9c1.5 0 2.6-.4 3.5-1.2.8-.8 1.2-1.9 1.2-3.4 0-2-.7-3.4-2.2-3.9-.8-.3-1.9-.5-3.4-.5h-3.1v9zM1148.1 575.2l12.6-37.1h9.5l12.6 37.1h-9.3l-2.3-7.8h-11.6l-2.2 7.8h-9.3zm13.7-15h7.3l-2.1-7.2-1.5-6.4h-.1c-.6 2.7-1.1 4.8-1.5 6.4l-2.1 7.2zM1185.2 575.2l3.1-37.1h9.9l5.4 15.7 1.9 6.1h.1c.7-2.5 1.3-4.5 1.9-6.1l5.4-15.7h9.9l3 37.1h-9.1l-1.1-16.7c-.1-.8-.1-1.8-.1-2.8s0-1.9.1-2.5l.1-.9h-.1c-.8 2.6-1.5 4.7-2.1 6.2l-3.9 10.7h-7.8l-3.9-10.7-2.1-6.2h-.1c.1 2.3.1 4.4 0 6.2l-1.1 16.7h-9.4zM1229.9 556.5c0-5.4 1.8-9.9 5.4-13.5s8.3-5.4 14-5.4 10.3 1.8 14 5.4c3.6 3.6 5.4 8.1 5.4 13.5 0 5.5-1.8 10.2-5.4 13.9-3.6 3.7-8.3 5.5-14 5.5s-10.3-1.8-14-5.5-5.4-8.4-5.4-13.9zm9.4 0c0 3.2.9 5.8 2.8 7.9 1.9 2.1 4.3 3.2 7.2 3.2s5.3-1.1 7.2-3.2 2.8-4.8 2.8-7.9c0-3-.9-5.6-2.8-7.6s-4.3-3-7.2-3-5.3 1-7.2 3c-1.8 2-2.8 4.5-2.8 7.6zM1271.7 570.6l4.8-6.9c1.2 1 2.6 1.9 4.2 2.7 1.6.8 3.2 1.1 4.7 1.1 1.2 0 2.2-.2 2.8-.7.7-.5 1-1.1 1-1.9 0-.8-.4-1.5-1.2-2.2-.8-.7-1.8-1.2-3-1.7-1.2-.4-2.5-1-3.9-1.7s-2.7-1.5-3.9-2.3c-1.2-.8-2.2-1.9-3-3.3-.8-1.4-1.2-3-1.2-4.9 0-3.4 1.3-6.1 3.8-8.2 2.5-2.1 5.7-3.1 9.7-3.1 4.6 0 8.5 1.4 11.6 4.2l-3.8 7.4c-1.1-.9-2.4-1.7-3.8-2.3-1.5-.6-2.9-.9-4.4-.9-1.3 0-2.3.2-3 .7-.7.5-1 1.1-1 1.9 0 .8.4 1.5 1.2 2.2.8.7 1.8 1.2 3 1.6 1.2.4 2.5 1 3.9 1.7s2.7 1.4 3.9 2.2c1.2.8 2.2 1.9 3 3.3s1.2 3 1.2 4.9c0 3.3-1.2 6-3.5 8.2s-5.6 3.3-9.7 3.3c-2.5 0-4.9-.4-7.3-1.3-2.4-1-4.4-2.3-6.1-4zM977.3 618.9c0-5.5 1.8-10 5.5-13.6 3.6-3.6 8.3-5.4 14-5.4 2.6 0 5.1.4 7.6 1.3s4.6 2.2 6.3 3.9l-4.2 6.8c-1.2-1.1-2.7-2-4.4-2.7-1.7-.7-3.3-1.1-4.9-1.1-3.5 0-6.1 1-7.8 3.1s-2.6 4.6-2.6 7.5c0 3 .9 5.6 2.7 7.8s4.4 3.3 7.8 3.3c3.5 0 6.8-1.5 9.9-4.6l4.7 6.6c-4 4.2-9 6.2-14.9 6.2s-10.6-1.8-14.1-5.4c-3.8-3.5-5.6-8.1-5.6-13.7zM1013.4 618.7c0-5.4 1.8-9.9 5.4-13.5 3.6-3.6 8.3-5.4 14-5.4s10.3 1.8 14 5.4c3.6 3.6 5.4 8.1 5.4 13.5 0 5.5-1.8 10.2-5.4 13.9-3.6 3.7-8.3 5.5-14 5.5s-10.3-1.8-14-5.5-5.4-8.4-5.4-13.9zm9.4 0c0 3.2.9 5.8 2.8 7.9 1.9 2.1 4.3 3.2 7.2 3.2s5.3-1.1 7.2-3.2 2.8-4.8 2.8-7.9c0-3-.9-5.6-2.8-7.6s-4.3-3-7.2-3-5.3 1-7.2 3c-1.8 2-2.8 4.6-2.8 7.6zM1058 637.5v-37.1h9.2l10.3 17.3c.4.7.9 1.6 1.4 2.7.5 1.1.9 1.9 1.2 2.6l.5 1h.1c-.3-2.7-.4-4.8-.4-6.3v-17.3h9.1v37.1h-9.1l-10.3-17.3c-.4-.7-.9-1.6-1.4-2.7-.5-1.1-.9-1.9-1.2-2.6l-.5-1h-.1c.3 2.7.4 4.8.4 6.3v17.3h-9.2zM1097.1 637.5v-37.1h23.2v7.8h-14.2v6.7h11.3v7.8h-11.3v7h14.9v7.8h-23.9zM1123.4 637.5l11.3-18.4-11.3-18.7h10.3l4 7.6 2.3 4.8h.1c.7-1.6 1.4-3.2 2.3-4.8l4.1-7.6h10.3l-11.4 18.7 11.3 18.4h-10.1l-4.3-7.8-2.3-4.6h-.1c-.7 1.5-1.4 3.1-2.3 4.6l-4.3 7.8h-9.9zM1161.1 637.5v-37.1h9.1v37.1h-9.1zM1175.9 618.7c0-5.4 1.8-9.9 5.4-13.5 3.6-3.6 8.3-5.4 14-5.4s10.3 1.8 14 5.4c3.6 3.6 5.4 8.1 5.4 13.5 0 5.5-1.8 10.2-5.4 13.9-3.6 3.7-8.3 5.5-14 5.5s-10.3-1.8-14-5.5-5.4-8.4-5.4-13.9zm9.4 0c0 3.2.9 5.8 2.8 7.9 1.9 2.1 4.3 3.2 7.2 3.2s5.3-1.1 7.2-3.2 2.8-4.8 2.8-7.9c0-3-.9-5.6-2.8-7.6s-4.3-3-7.2-3-5.3 1-7.2 3c-1.9 2-2.8 4.6-2.8 7.6zM1220.5 637.5v-37.1h9.2l10.3 17.3c.4.7.9 1.6 1.4 2.7.5 1.1.9 1.9 1.2 2.6l.5 1h.1c-.3-2.7-.4-4.8-.4-6.3v-17.3h9.1v37.1h-9.1l-10.3-17.3c-.4-.7-.9-1.6-1.4-2.7-.5-1.1-.9-1.9-1.2-2.6l-.5-1h-.1c.3 2.7.4 4.8.4 6.3v17.3h-9.2zM1259.6 637.5v-37.1h23.2v7.8h-14.2v6.7h11.3v7.8h-11.3v7h14.9v7.8h-23.9z"/><path d="m1286.5 632.8 4.8-6.9c1.2 1 2.6 1.9 4.2 2.7 1.6.8 3.2 1.1 4.7 1.1 1.2 0 2.2-.2 2.8-.7.7-.5 1-1.1 1-1.9 0-.8-.4-1.5-1.2-2.2-.8-.7-1.8-1.2-3-1.7-1.2-.4-2.5-1-3.9-1.7s-2.7-1.5-3.9-2.3c-1.2-.8-2.2-1.9-3-3.3s-1.2-3-1.2-4.9c0-3.4 1.3-6.1 3.8-8.2 2.5-2.1 5.7-3.1 9.7-3.1 4.6 0 8.5 1.4 11.6 4.2l-3.8 7.4c-1.1-.9-2.4-1.7-3.8-2.3-1.5-.6-2.9-.9-4.4-.9-1.3 0-2.3.2-3 .7-.7.5-1 1.1-1 1.9 0 .8.4 1.5 1.2 2.2.8.7 1.8 1.2 3 1.6 1.2.4 2.5 1 3.9 1.7s2.7 1.4 3.9 2.2c1.2.8 2.2 1.9 3 3.3s1.2 3 1.2 4.9c0 3.3-1.2 6-3.5 8.2s-5.6 3.3-9.7 3.3c-2.5 0-4.9-.4-7.3-1.3-2.3-.9-4.3-2.3-6.1-4zM1318.1 637.5V629h8.5v8.5h-8.5z"/><g><path class="st2" d="M969.2 381.6c.2-1.9-.2-3.2-1.2-4.1 1.4-1.8 1.7-4.9-.8-6.6-9.8-7.2-17.5-16.7-22.8-27.5-2.4-4.9-9.8-.6-7.4 4.3 5.3 10.8 12.8 20 22 27.6l-18.6-3.3c.7-11.4-1.9-20.7-5.3-27.8 2.4-2.4 5.3-4 8.3-4.5 5.1-7.8 8.9-16.8 10.2-25.7.9-5.2.2-10.1-.3-15.2-1-.2-1.7-.3-2.7-.5.4-2.2-.4-4.3-2.1-5.6-3.3-6.6-10.2-9.9-16-13-3.1.7-6.3 1.4-9.4 2.4-3.1.9-6.1 2.1-9 3.4-1.9 4.8-6.4 5.8-9.1 4.8-21.6-11.2-44.2-27.4-68.5-24.4-12.6 2-24.3-1-37.4 1.9-3 .4-6 1-8.9 1.7-17.8 4.5-34.7 15.1-49.3 27.9-1.8 1-3.6 0-5.4-1-2.5-1-5.2-2.8-7-5.3-2.7-2-5.4-3-8.7-2.3-3.1-.7-6.3-1.1-9.5-1.5-5.6 3.6-12.2 7.5-15 14.4-1.6 1.5-2.2 3.7-1.6 5.8-1 .3-1.7.4-2.7.7-.2 5-.5 10 .8 15.1 2.3 10.5 8.2 20.8 15.5 28.9-2 5.5-3.4 12.1-3.4 19.7-5.1.9-10.2 1.8-15.3 2.8 5.7-5.8 11.2-11.8 16.3-18.2 3.4-4.2-2.6-10.2-6-6-6.8 8.4-14.1 16.2-21.9 23.7-1.7 1.6-1.6 3.6-.5 5.1-1.1 1.9-.8 4.7.1 9.5.2 1.3 1.2 2.8 2.4 3.5 2.9 1.7 4.5 3.9 5.6 6.8 2.6 7.5 5.4 15 8.2 22.5 3.1 8.7 8.7 14.8 16.3 18.8 1.1 9.4 2.7 18.8 5.1 28.1.6 3.3 1.3 6.5 2.2 9.7 3.6 12.6 10.4 24 23.2 32.8 2.1 1.6 4.4 3 6.8 4.3.1 4.8.1 10.4.1 15.7-2.2.5-4.3 1.1-6.5 2-7.6.2-15.2 2.2-19.8 8.7-3.4 5-6.7 11.2-7.4 17.5-8.4 25.1-28.3 101.6 5.2 114.5 3.3 1.3 6.2 1.6 8.7 1.3 2.1.5 4.1 1.4 5.5 3.1-2.2 18.9-2.9 38.1 1.2 56.7 1.5 5.9 4.3 11.3 5.7 17.1 1 5.9-.1 11.7-1.1 17.5-2.2 6.6-3.3 13-3.2 19.9-1.9 7.4-5.7 14.2-10.1 20.6 2.5-.1 4.8-.2 7.3-.3-.5 6.2 1.1 12.5 2.9 18.5l2.2.2c1.3-2.7 2.7-4.9 4.3-7.4 1.1 6.4 1.1 13.3 1.1 19.8-12.9-.3-26 5.9-34.7 15.3-4.5 11.3-8.1 23.4-8.1 35.4 1 9 11.3 11.6 17.8 15.7 16.5 1.9 33.2 9.2 50.3 5.6 13.9-3.3 27.3-8.9 40.7-13.6 9.6-3.2 17.1-10.6 24.6-17.1 5.8 4.5 12.4 8.1 17.1 13.6 18.3 3.4 35.7 14 54.7 11.3 10.7-2.7 22.1-2.5 32.7-6.2 9.8-3.4 21.6-5.2 28.1-14.2 2.7-12.1-1.2-24.2-4.1-35.7-3.4-7.6-9.2-14.2-16.4-18.7-6.2-3.4-13.5-3.1-20.5-3.2.3-5.5 1.5-10.9 4.3-15.7.2-4.8.3-9.6.3-14.4 2.5 2 4.8 4.3 7.2 6.2-2.7-7.8-5.9-15.7-8.1-23.8-3.2-12.1-9.1-23.5-9.1-36.3-1.5-8.5 5.2-15.1 6.2-23.1 3-15.8 2.9-32.1.3-47.8 3.3 1.5 7.3 1.5 12.1-.3 31.8-12.3 15.4-81.9 6.5-110.4.9-7.7-3.8-15.5-8.4-21.7-6.7-8.5-19.3-9.3-29.9-8.5 0-5.9 0-12.7.1-18.3 0 0-.9.3-2.4.7 13.6-8.8 23.7-21.6 27.6-37.7 1 0 2 .9 3 .9 3-11.2 4-23.4 5.9-35.1.2-1.9.3-3.9.5-5.9 4.7-3.3 8.4-7.5 10.6-13.2 3.6-8.9 6.7-17.9 10.3-26.8.7-1.8 2.2-3.9 3.9-4.8 2.9-1.6 3.7-3.7 3.7-6.5-.1-1.4-.3-3.1-.1-4.8z"/><path class="st3" d="M789.4 362.7c3.4.3 6.7.6 10.1.8-7.7-1.9-15.5-3.7-22.3-6.7 8.7 1.6 17.5 3.6 26.7 3.9-3.5-1.2-7.2-2.1-10.6-3.4h-.4c-.5-.2-1.5-.7-2-.9 5.5.9 11.1 1.9 16.8 2.2 1.9-1.3 1.7-3.3 2.5-5-1.1-.2-2.2-.3-3.3-.5-22-4.3-42.4-11.1-62.2-18.1-1.3-.5-2.7-1.3-4.4-1.2-.4.6-.7 1.1-1 1.7 3 1.9 6 3.7 9.3 5.3-3.6-.8-7-2-10.2-3.2-1.6 4.9-3 10-.6 14.9 16.4 4.6 33.7 8.3 51.6 10.1v.1zM841.6 455.5c.5 1.2.8 1.2-.9 1.5-1.6.3-3.2.8-4.7 1.2-3.2.8-6.4 1.4-9.6 2-6.6 1.2-13.2 2.1-19.9 2.7-4.3.4-4.1 5.2.2 4.8 9.1-.8 18.2-2.2 27.1-4.1 3.8-.8 8.8-1.5 12.1-3.2 3.2-1.6 3.1-4.2 2.1-6.6-1.3-2.7-7.6-1.2-6.4 1.7zM732.1 319.9c.3-.3.7-.6 1-.9-1.7-.5-3.1-1.2-4.6-2.1 1.2 1.1 2.4 2.2 3.6 3zM819.9 451.1v.4c1.1.2 2.3.4 3.5.3.2 0 .5 0 .7-.1h.7c1.2 0 2.4-.3 3.4-.6v-.4c7.1-2.7 13.5-10.1 17.7-17.6.1-.5.1-1 .1-1.5.2.2.4.4.5.6-.3-2.7-1.4-5.1-4.2-6.1-1-.3-1.8-.9-2.3-1.5-1.7-.5-3.5-.6-5.1 0-4.6.2-8.2 1.1-11.8 1.6-3.6-.2-7.3-.8-11.9-.6-.6-.2-1.2-.2-1.8-.2.2-.4.4-.9.5-1.3.1-.3.2-.6.3-1-1.8.3-3 .8-4.2 2-1.4 1.4-2.3 3-3.3 4.9-.3.6-.8 1.1-1.3 1.5.1.3.2.5.3.8.4 1.3.1 2.5-.4 3.7-.1.2-.1.4-.2.5v1c0 .4 0 .7-.1 1.1.5-.5 1-1 1.5-1.6 4.6 6.5 10.8 12.3 17.4 14.1zM809.9 539.4c.2 0 .4 0 .6.1 0-1.2.1-2.5.1-3.8-.2.1-.4.3-.6.4-.1 1-.1 2.1-.1 3.3zM872.6 486.6c-1.4 1-2.8 1.9-4.5 2.5 2-.4 3.5-1.3 4.5-2.5zM842.8 537.3c.4-1 .7-2 1-3.1.1-.2.1-.4.2-.6-.6 0-1.2 0-1.8-.1.2 1.3.4 2.6.6 3.8zM818 472.7c4.6-1.4 9.5-1.9 14.6-1.4 2.2-.6 4.2-1.7 6.1-2.8-8.5-.1-18.3-.9-25.4 4.9 1.3-.9 3.1-.8 4.7-.7zM839.1 490.6c-5.5-5.8-12.5-9.2-20.5-10.4.7.7 1.4 1.4 2.1 1.9-1.7-1.3-3.7-.5-6.1.6.1.2.2.3.3.6.3.7.6 1.3.8 2 .1 0 .1 0 .2-.1-.1 0-.1.1-.2.1.9 2.5 1.3 5.1 1.1 7.9.5.2 1 .4 1.5.7 4.1 1.6 5.7 5.1 5.5 9.8 1 .6 1.6 1.8 1.6 3.2h2.2c.4-3.6.8-7.2 1.9-11.1.6 2.7 2.2 3.9 2.7 6.6 1.5-5.6.4-11 .1-15.7 1.7 2.3 4 3.4 6.8 3.9zM782.8 483.2c-.2-.2-.4-.5-.6-.7 1.6 2.8 3.6 5 5.7 6.4-1.8-1.4-3.4-3.6-5.1-5.7zM806.9 505.8c-1.4 2-1.8 4.4-1.9 7 .8-2 1.4-4.4 1.9-7z"/><path class="st3" d="M969.2 381.6c.2-1.9-.2-3.2-1.2-4.1 1.4-1.8 1.7-4.9-.8-6.6-9.8-7.2-17.5-16.7-22.8-27.5-2.4-4.9-9.8-.6-7.4 4.3 5.3 10.8 12.8 20 22 27.6l-18.6-3.3c.7-11.4-1.9-20.7-5.3-27.8 2.4-2.4 5.3-4 8.3-4.5 5.1-7.8 8.9-16.8 10.2-25.7.9-5.2.2-10.1-.3-15.2-1-.2-1.7-.3-2.7-.5.4-2.2-.4-4.3-2.1-5.6-3.3-6.6-10.2-9.9-16-13-3.1.7-6.3 1.4-9.4 2.4-3.1.9-6.1 2.1-9 3.4-1.9 4.8-6.4 5.8-9.1 4.8-21.6-11.2-44.2-27.4-68.5-24.4-12.6 2-24.3-1-37.4 1.9-3 .4-6 1-8.9 1.7-17.8 4.5-34.7 15.1-49.3 27.9-1.8 1-3.6 0-5.4-1-2.5-1-5.2-2.8-7-5.3-2.7-2-5.4-3-8.7-2.3-3.1-.7-6.3-1.1-9.5-1.5-5.6 3.6-12.2 7.5-15 14.4-1.6 1.5-2.2 3.7-1.6 5.8-1 .3-1.7.4-2.7.7-.2 5-.5 10 .8 15.1 2.3 10.5 8.2 20.8 15.5 28.9-2 5.5-3.4 12.1-3.4 19.7-5.1.9-10.2 1.8-15.3 2.8 5.7-5.8 11.2-11.8 16.3-18.2 3.4-4.2-2.6-10.2-6-6-6.8 8.4-14.1 16.2-21.9 23.7-1.7 1.6-1.6 3.6-.5 5.1-1.1 1.9-.8 4.7.1 9.5.2 1.3 1.2 2.8 2.4 3.5 2.9 1.7 4.5 3.9 5.6 6.8 2.6 7.5 5.4 15 8.2 22.5 3.1 8.7 8.7 14.8 16.3 18.8 1.1 9.4 2.7 18.8 5.1 28.1.6 3.3 1.3 6.5 2.2 9.7 3.6 12.6 10.4 24 23.2 32.8 2.1 1.6 4.4 3 6.8 4.3.1 4.8.1 10.4.1 15.7-2.2.5-4.3 1.1-6.5 2-7.6.2-15.2 2.2-19.8 8.7-3.4 5-6.7 11.2-7.4 17.5-8.4 25.1-28.3 101.6 5.2 114.5 3.3 1.3 6.2 1.6 8.7 1.3 2.1.5 4.1 1.4 5.5 3.1-2.2 18.9-2.9 38.1 1.2 56.7 1.5 5.9 4.3 11.3 5.7 17.1 1 5.9-.1 11.7-1.1 17.5-2.2 6.6-3.3 13-3.2 19.9-1.9 7.4-5.7 14.2-10.1 20.6 2.5-.1 4.8-.2 7.3-.3-.5 6.2 1.1 12.5 2.9 18.5l2.2.2c1.3-2.7 2.7-4.9 4.3-7.4 1.1 6.4 1.1 13.3 1.1 19.8-12.9-.3-26 5.9-34.7 15.3-4.5 11.3-8.1 23.4-8.1 35.4 1 9 11.3 11.6 17.8 15.7 16.5 1.9 33.2 9.2 50.3 5.6 13.9-3.3 27.3-8.9 40.7-13.6 9.6-3.2 17.1-10.6 24.6-17.1 5.8 4.5 12.4 8.1 17.1 13.6 18.3 3.4 35.7 14 54.7 11.3 10.7-2.7 22.1-2.5 32.7-6.2 9.8-3.4 21.6-5.2 28.1-14.2 2.7-12.1-1.2-24.2-4.1-35.7-3.4-7.6-9.2-14.2-16.4-18.7-6.2-3.4-13.5-3.1-20.5-3.2.3-5.5 1.5-10.9 4.3-15.7.2-4.8.3-9.6.3-14.4 2.5 2 4.8 4.3 7.2 6.2-2.7-7.8-5.9-15.7-8.1-23.8-3.2-12.1-9.1-23.5-9.1-36.3-1.5-8.5 5.2-15.1 6.2-23.1 3-15.8 2.9-32.1.3-47.8 3.3 1.5 7.3 1.5 12.1-.3 31.8-12.3 15.4-81.9 6.5-110.4.9-7.7-3.8-15.5-8.4-21.7-6.7-8.5-19.3-9.3-29.9-8.5 0-5.9 0-12.7.1-18.3 0 0-.9.3-2.4.7 13.6-8.8 23.7-21.6 27.6-37.7 1 0 2 .9 3 .9 3-11.2 4-23.4 5.9-35.1.2-1.9.3-3.9.5-5.9 4.7-3.3 8.4-7.5 10.6-13.2 3.6-8.9 6.7-17.9 10.3-26.8.7-1.8 2.2-3.9 3.9-4.8 2.9-1.6 3.7-3.7 3.7-6.5 0-1.4-.2-3.1-.1-4.8zm-36.8 56.8c-9.1 3.3-18.7 4.3-28.9 4.5-11.7-.2-23.5-2-34.8-6.3-6-2.3-11-5.7-14.6-10.8-1.2-1.8-2.4-3.6-3.5-5.4 1.4.7 2.8 1.5 4.2 2.1-2.1-2.8-5.2-4.4-7.1-7.6 0 0 0-.1-.1-.1 11 2.6 16.4 7.8 27.5.6-1.3 3.2-3.4 6-5.1 9 4-2.6 6.8-7.1 10.2-10.5-1.6 5.4-5.5 8.8-8.7 13.1 4.4-1.4 7.2-5.7 10.6-8.7-1.1 3.7-4.2 6.3-6.4 9.3 9.5-3.6 13.7-12.7 17.7-21.5 3-6.4 10.1-2.9 14.4.3-7.7-26.6-37.9-14.6-56.4-10.3-2.8.8-5.8 1.3-8.8 1.6-.1-1.1-.2-2.2-.3-3.4-.3-7 3-12 9.9-15.1 7.2-3.3 14.8-5 22.6-6 4.5-.3 9-.7 13.5-1.2 15.4-.8 30.5.3 45.5 3.8.2.6.3 1.3.3 2.1 0 .2 0 .5-.1.7 3 7.8 3.4 16.7 3 24.7-.3 7.3-1.3 15-3.7 22.1.1.6.1 1.3.1 1.8-.1 1.2-.2 2.5-.2 3.8 0 .2.1.5.1.7.1.8 0 1.5-.3 2-.1 1.1-.2 2.2-.3 3.2 0 .5-.1 1.1-.1 1.6-.1-.2-.2-.2-.2-.1zm-82.5-31.6c1.2-2 3.7-2.5 5.7-2.9 6.9-1.8 14.1-3.7 21-5.4 2.2-.3 3.9-.6 5.8-.2 1.7.8 1.2 3.1.2 4.2-3.1 4.1-8.1 6.7-12.9 8.1-5.4 1.3-11.5 1.6-17-.5-1.2-.7-3.2-1.4-2.8-3.3zm94.8-76c0-.4.2-1.1.2-1.5 0-1.6.5-3.1 1.7-3.9-.5 1.8-1.1 3.5-1.9 5.4zm-245 3.2c1.2.7 1.8 2.1 1.9 3.7 0 .4.3 1.1.3 1.5-.9-1.8-1.6-3.3-2.2-5.2zm13.4 28.4c.6.5 1.2 1 1.7 1.6.2.2.3.4.5.6.3-.5.7-.8 1.2-1.1 2.7-8.1 6.7-16 12.3-22.2-2.9-.6-5.5-1.9-8-4.1-.5-.4-.9-.8-1.3-1.2l1-4.2s-1.1.9-2.7 2.7l-1.2-.9c.2.5.5 1 .8 1.5-.6.7-1.3 1.5-2 2.4-4.5-4.3-8-10.3-10.8-16.1.6 4.3 2.9 8.4 4.6 12.3-4.5-5.4-7-12.4-8.3-19.6-.3-.6-.6-1.3-1-1.7-.6 1.3-.9 2.6-1 4-.5-2-.5-4.1-.2-6.1 0 0-.1-.1-.2-.3.5-2.6.9-5.8 1.7-8.5-.5.2-1.1.5-1.5.5-.1-.1-.2-.2-.4-.2 2.3-3.3 5-6.1 9.1-7.5 2.2-1.2 4.5-1.6 6.7-1.6 2.3.1 4.6.6 6.8 1.5 5.9 2.8 13.1 4.8 15.8 11.9.9-1 2.7-2 3.6-2 1.6 1.2 2.5 4.3 2.5 6.3 12.2-16.8 29.1-26.9 47.5-31.7 3.1-.8 6.2-1.5 9.3-2 32.5-5.9 75.8-3.8 99.2 25.6.9 1 4.5-3 9-3 .9 0 1.8-2 2.2-4.1 2-1.1 4-2.5 6.1-3.8 6.3-4 13.1-7.8 20-4.8 4.2.9 7.1 3.5 9.6 6.6-.2.1-.3.2-.4.3-.3 0-1-.2-1.5-.3 1 2.6 1.7 5.8 2.3 8.3-.1.2-.2.3-.2.3.5 2 .6 4.1.2 6.1-.2-1.4-.6-2.6-1.3-3.9-.3.4-.6 1.2-.8 1.7-.8 7.3-2.7 14.5-6.8 20.3 1.4-4 3.4-8.3 3.7-12.7-2.9 7.3-6.8 15.1-12.6 19.9-.5-.6-.9-1.1-1.3-1.5 1.1-1.6 2.1-3.3 2.8-5.1-1.4 1.1-2.5 2.5-3.9 3.9-1.1-1.2-1.8-1.8-1.8-1.8l.7 2.8c-2 1.8-4.2 3.1-6.6 3.8-.5-.4-1.1-.5-1.7-.7 1.4-1 2.7-2.5 4-4-1.7 1.3-3.5 2.4-5.7 3.2l-.9-.3c.1 0 .1-.1.1-.1-1.1.3-2.4 1.2-3 1.8v.9c1.5-1 3.6-1.2 5.3.5 5.7 5.7 9.3 14 12.2 21.5.1.2.1.4.2.6l1.2-.6c-.1-1.5.1-2.9.3-4.3l4.2 17.3c-4-.6-8.1-1.2-12.1-1.6-4.7-.5-9.4-.9-14.1-1.1.3-.3.5-.7.7-1-.5.1-1.4.2-1.9.3-5.6-.2-11.3.2-16.9-.5 6.4-.2 12.5-1.5 18.7-2.2 2.2-.8 1.6-2.6 2.2-3.9-3.2.9-6.6 1.4-10 1.9-1.8-.1-3.6.2-5.4.3 4.4-1.4 9.2-2.4 13.6-3.8.8-.4 2.2-.7 2-1.5 0-2.6-.1-5.2-1.2-7.7-1.8.4-3.6.8-5.3 1.3-21.9 4.9-44.3 9.5-67.7 11.2h-1.5c.7 2.1 0 4.4 1.4 6.3 3.6-.1 7.2.1 10.9.2-3 .7-6.2 1-9.4 1.3-2.5-.2-1.5 1.5-.9 2.3 5 .8 10.2.7 15.4.9-4.7 1.3-9.3 2.8-13.9 4.7-10.4 4.1-21.8 4-32.3-.1-19-7.2-38.7-10.6-58.8-10.1-12.5-.2-24.6.8-36.6 2.5l1.8-8.4zm5.3-22.3.6-2.4c1.3 1.7 2.7 3.3 4.1 4.9-1.6-.6-3.2-1.5-4.7-2.5zm207.2-5c-.6.4-1.2.7-1.8 1l1.5-2.1.3 1.1zm-132.6 75c-5.5 2-11.6 1.7-17 .5-4.8-1.4-9.8-4-12.9-8.1-1.1-1.1-1.5-3.5.2-4.2 1.9-.4 3.6 0 5.8.2 6.9 1.6 14.1 3.6 21 5.4 2 .5 4.5 1 5.7 2.9.3 1.9-1.7 2.6-2.8 3.3zm1.2-14.1c-18.5-4.4-48.7-16.3-56.4 10.3 4.3-3.1 11.4-6.6 14.4-.3 4 8.8 8.2 18 17.7 21.5-2.2-3-5.3-5.6-6.4-9.3 3.4 2.9 6.2 7.2 10.6 8.7-3.2-4.3-7.1-7.7-8.7-13.1 3.4 3.4 6.2 7.9 10.2 10.5-1.7-3-3.9-5.8-5.1-9 11.1 7.3 16.4 2.1 27.5-.6-1.9 3.3-5 4.9-7.2 7.7 1.5-.7 2.9-1.4 4.3-2.2-2.1 3.5-4.7 6.8-7.7 9.9-4.9 5.1-11.9 7.2-18.8 9-17.1 4.5-34.2 5-51.5.5-1-.3-2-.6-2.9-.9-.4-2.6-.8-5.2-.9-7.8.3.4.6.9.8 1.3 0-.2 0-.5.1-.7 1.9-8.6-1.6-17.8-3.3-26.2-1.4-6.9-2.2-13.7-.3-20.4-.1 0-.2.1-.3.1 0-2.5 0-4.2.5-6.3-.5-.1-1.1-.2-1.6-.3l.6-2.7c12.8-3.2 26-4.1 39.4-4.5 13.2.4 26.4 1.2 39.1 5.6 1.8.6 3.5 1.4 5.3 2.2 6.9 3.1 10.1 8.3 9.7 15.2-.1 1.1-.2 2.1-.3 3.1-3 0-6-.6-8.8-1.3zm-97.1 26.9c-3.9-9.8-6-19.9-5.7-30.3.2-8.1 3.3-12 11.7-14.7.4-.1.8-.2 1.2-.4.1.9.2 1.9.3 2.8-.2 0-.5 0-.7-.1 2.1 18.5 2.6 37.3 4.6 56-5.2-3-9-7.4-11.4-13.3zm125.7 360.3c-.4-1-1.1-1.7-1.7-2.5-.3-.5-1.1-1.1-1.8-1.2v-.1c4.3 1.6 8.4 3.1 12.7 4.3 1.8.4 3.5 1.1 5.6 1.5-.4.3-1.1 1.1-1.6 1.5-1.1-.3-2.2-.8-3.2-1.1v.4c-1.3-.3-2.7-1-4.1-1.1.3-.4.3-.7.3-1-2.1-.1-4.3-.3-6.2-.7zm6.3-101.9c-3.2-1-6.4-1.5-10-1.8-2.9-.3-5.9-.5-8.9-.5 1.1 1.1 1.7 2.7 1.6 4.1-9-.3-17.9-2.5-26.6-5.4 4.5-3.1 9-5.9 13.7-8.7 1.5.2 4.3.3 5.6.5 15.7-12.7 33-23.4 48.5-36.2h.1c32.2-16.6 32.9 26.3 32.2 40.8-4.1 1.8-7.7 3-11.9 4.1-10.1 1.1-20.5 1.8-30.4 2.7-4.8.1-9.1.2-13.9.4zm-53.6-78.6c1.4-.6 2.8-1.2 4.3-1.8-.4-.3-.7-.6-1.1-.9-.1-.1-.3-.2-.4-.3h1.3c3.4-3.7 8.2-6.1 13.5-7.2.7-.6 1.5-1.1 2.3-1.6l2.7 1.6L836 580c2.6.2 5.2.5 7.9 1 8.1-1.1 16 1.7 20.7 9.7 2.7 4.6 3.3 10.7 2 16.3l8 .7-1 .5c-3.2 3.5-7 7.2-10.9 10-6.2 4.1-10.7 10.2-16.5 14.6-11.9 8.8-24.1 17.7-36.2 25.9-3.9 2-7.6 4.1-11.6 5.9 0 0-40.3-28.3-40.4-51.7 5.2-4.3 11.3-7.6 17.5-10.2zm87 21.8c-.5 1.1-1.5 1.8-1.9 3-.3-.1-1-.1-1.3 0 1.1-1 2.2-1.9 3.2-3zm-94.3-98.6v-.5l7.2 4.2-7.2-3.7zm-26.8 288.5c-1.5 2.4-3.1 4.5-4.7 7-.3-4.1-.5-7.7-1.1-11.8.3.2 1.1.3 1.8.5l.5 7.3c1.3-2.4 2.8-4.3 4-6.3.3-.2.5-.3 1-.4 1.5 2.7 2.7 5.5 4.3 8.1 9.6-7.6 17.2-18.2 31.1-16.4 16.3 0 32.4.3 48.8 1.5.1 7.8.5 15.6.9 23.4-23.4 2.8-47 4.2-70.4 2.9-1.2-.1-2.5-.2-3.7-.2 1.9-5.3 6.5-9.7 10.3-13.8-1.3-.2-4.1-.3-5.2-.5-3.4 4.2-7.1 8.2-10.5 12.4l-7.1-13.7zm27.9 37.7c-.4-.1-.8-.2-1.3-.3-5.5-5.9-14.3-6.6-21.8-8.7v-1.2c8.2 2.2 17.7 3 23.1 10.2zm61.6 26.4c-5 10.9-17.8 12.9-27.7 17.1-12.1 5.4-24.2 10.5-36.7 14.1-3.3.3-7 .3-10.4 0v-.2c-1 .1-1.7.1-2.7.1-.2.4-1 1-1.5.3l-.5-.3c-1 0-1.8-.1-2.7-.1-1.1 0-1.3-1.1-1-1.8-.8-.3-1.5-.4-2.5-.8-.1.1-.1.2-.2.3-3.1-.9-6.1-1.7-9.6-2.6-1.8 1.4-4.8 1.1-6.2-.7-4-.9-8.1-1.7-11.8-3-1-.2-1.8-.3-2.8-.8v-.5c-.6-.3-1.1-.6-1.7-1-.4.1-.7.2-1.1.2-2.3.1-4.3-2-4.2-4.2 0-.4 0-.8.1-1.3-.7-1-1.2-2.1-1.6-3.4l-1.1 3.5c-.2-2.1-.3-4.2-.3-6.3.4.1.9.2 1.4.5 19 10.3 39.8 19.9 62 15.8 10.5-1.9 21-5.8 30.8-9.7 10-4 19.6-9 28.4-15.2 1.3-.9 2.5-.9 3.5-.5.2 0 .2.2.1.5zm129.5 9c-.4.3-1.1.5-1.8 1.1-.3-1-1.1-1.8-1.5-2.7-1.2.5-2.7 1.5-3.8 2l-.3.3c-.2-.7-.5-1.4-.7-2.1-.5.6-1.1 1.2-1.8 1.5.2.7.5 1.4.7 2.1-1.1.5-2 1.1-3.1 1.5.1.3.2.5.2 1.1-3.2.8-6.3 1.6-9.8 2.7-.2-.3-.3-.4-.3-1-3.4 1-7.2 1.5-10.6 1.8.2.5.2 1.3.3 1.8l-1 .2v-.2c-.1-.5-.2-1-.4-1.5-.8.5-1.6.7-2.5.7l.3 1.5v.1c-2.4.5-4.5 1.1-7 1.7-.2-.3-.3-.5-.5-1.1l-2.4 1.1c-3.4 1.5-7.3 2.7-11 2.7.2.1.3.2.5.3-5.9.5-12.1.3-17.1-3-2.7-.1-4.7-1.1-6.2-2.5-1.8-.5-3.4-1.3-5.4-2-3.8-.4-7.4-1.5-11-2.5-10.6-1.8-19.4-8.4-28.3-14.2-.3-1.4-.6-2.9-.9-4.3 1.3-.6 2.9-.4 4 1.2.2.3.5.6.7.9.7-.1 1.5 0 2.3.4 12.3 5.6 22.7 14.9 36.4 16.8 12.4 1.8 25.1 2.1 37.6 1.4.4 0 .7 0 1 .1 3.3-.7 6.5-1.5 9.8-2.3 5.3-1.3 10.8-2.3 15.9-4.2 5.9-2.2 12.3-6 18.7-6.4-.1 1.6-.5 3.3-1 5zm-28.1-54.2c10.2-.4 19.4 6.6 24.2 15.1 2.9 8.9 5.7 18.4 5.7 27.7-.2-9.1-2.9-18.2-5.8-26.9-4.9-8.7-14.3-15.8-24.7-15.4-10.3 2.1-20 6.1-29.3 10.3-.1.1-.3.1-.4.2.6-.3 1.2-.6 1.7-.9 9.1-4.1 18.5-8.1 28.6-10.1zm-19-21.1c-.2.7-.7 1.1-.8 1.3-.1-.4-.1-1.1-.2-1.8.3.3.5.4 1 .5zm3.7 6.7c1.5-2.8 3.1-5.6 4.8-8.2.3 6.2.3 12.7.2 19.2-10.9 5.2-23.1 9-31.1 18.9 2.2-.1 4.1-.9 6-1.8-2.4 1.3-4.8 2.4-7.6 2.6 8.1-10.1 20.6-14 31.8-19.3 0-2.7.1-5.5.1-8.2-4.9 1.7-9.9 2.9-15 3.9l10.8-7.1zm-9.5-12.5c1.1 2.2 2.4 4.3 3.2 6.2-1.4 4.6-3 9-5 13.5-.2 0-.4.1-.6.1l-.8.5c.1-.1.1-.3.2-.4-1.5.3-3 .6-4.4.8-9.2 1.7-18.2 4.1-27.4 5.4-12.9 1.8-25.9 1.7-38.9 2.1-1.2 0-2.1-.3-2.8-.9-.5-14.8-.1-29.7.4-44.4l1.1.3v.3l-.2.2c-1.3 1.3-1.1 3.2 0 4.6l.1.1-.3 9.2c14.8 1.1 29.6 2.4 44.6 4.1 10 1.3 20.5-.1 30.8-1.7zm24.4-361.2c-.6 32.6-19.6 64.5-54.9 74.2-1.6.9-3.6 2-5.7 3.1-6.2 3.4-13.4 7.4-13.4 7.4-1.1-2.5-2.4-4.9-3.7-7.4l.2.2c5.8-5.9 12.5-11.1 16.2-17.7 2.2-2.8 4.1-5.7 5.8-8.7 4.9-9 7-19.3 2.7-32.6-1.6-3.6-3.2-6.8-4.7-9.8-1.3-2.4-2.5-5.3-4-7.8s-3.3-4.6-5.8-5.3c1.4 1.9 2.9 4.3 4.3 7 2.8 5.5 5.4 12.3 6.6 18.9.6 3.3.8 6.5.6 9.5-.5 3.4-1.1 7.7-3.8 10.5 1.8-1.3 3.5-2.7 5.1-4.2-6.2 13.5-12.2 34.7-24.4 37.8-.7-1.3-1.3-2.5-1.9-3.8.9 6.1 2.1 12.2 2.9 18.3 0 .1 0 .1.1.2-.2.3-.3.5-.3.7L851 544c-1.2.8-2.3 1.5-3.5 2.3v1c0 3.9-4.4 5-6.8 3.4-.6.4-1.3.8-1.9 1.2l-6.1-18.4 2.2 20.8c-3.1 1.9-6.3 3.8-9.5 5.7-1.1.7-2.5 1.1-3.7 1.6v.2c-.6.2-1.7.5-2.3.7-3-1.8-5.8-3.7-8.7-5.5l-.1-.1c0-.4 0-.9-.1-1.3-.4.2-.8.3-1.2.3-.8-.6-1.6-1.3-2.4-1.9l2.5-24.4-4.9 22.7c-4.1-3.1-8.2-6-12.2-8.6-.8-3.1-.2-6.5-.7-9.7-.9 2.6-1.7 5.2-2.4 7.8-.9-.5-1.7-1-2.6-1.5-.2-.3-.2-.6-.2-1 0-7.4 1.1-14.7 2.4-21.9 0 0 0-.1.1-.1.6-3.3 1.2-6.7 1.8-10-.3-.1-.9-.2-1.2-.2-1.1 2.8-2 5.7-2.9 8.7l-.2-.2c-6.2-5.6-10.3-12.6-12.6-20.7-1-2.8-2-5.6-2.8-8.4-.9-2.8-1.6-5.7-2.3-8.5 1.8 1.3 3.4 3.1 5.1 4.9-.1-.2-.3-.5-.4-.7-1.8-3.1-3.1-7-3.7-11.1-1.2-9.7 1.7-20.6 6.7-27.5-4.1-1.5-8.1 2.6-9 8.1 1-1.4 2-2.7 3-4.1-1.9 11-10.9 19.1-7.7 31.6l1-1.4c3 5.4 6.1 10.9 5.4 17.5.2-.9.9-1.1.9-2.2.9 3 2.1 5.7 3.6 8.3 3.6 5.6 8.2 11.3 12.2 17.4-.8 2.7-1.6 5.5-2.4 8.2l-.1 1.1c-2.8-1.5-5.5-3.1-8.1-4.9.1-.6.3-1.3.4-1.9-1.8.5-4.1-.1-5.5-1.5 0 .1-.1.1-.1.2-2.5-1.3-5-2.7-7.4-4.2-4-1.1-7.6-2.4-10.8-4.1-3.2-1.6-6-3.6-8.5-5.7-8.3-7-13.7-15.3-17.5-24.3-1.2-3-2.3-6.1-3.2-9.3-2.4-10-5.6-19.5-7.7-29.3 2.1.7 4.2 1.3 6.5 1.7 17.3 3.4 34.4 1.5 51.4-1.9 13-2.6 23.1-11 27.7-22.9l1.2-3 2.4-.9.6-.3c2.5-5.6 3.7-11.5 3.8-17.5l.6-1.8c1.7-5 4-6.9 9.6-7.4 1.7-.2 3.4-.1 5.1-.1 8.1.1 10.7 2.2 12.9 9.4.1.2.1.3.2.5.2 5.8 1.4 11.5 3.8 16.9l.6.3c.4.1.8.3 1.1.4.7 1.8 1.5 3.6 2.4 5.4 5.9 11.4 13.7 16.7 27.3 20.9 10.4 3.2 20.2 4.4 31.2 4.4 8.4 0 17.9-1.2 25.7-3.7 1-.3 2-.7 3-1.1.1.9.1 1.9-.1 2.8zm14.2-18c-1.4 2.4-3.1 4.5-5.1 6.2.2-2.5.3-5 .5-7.5.2-2.8.4-5.6.5-8.5.1-2.8.2-5.7.1-8.6.4-2.5.7-5.1 1-7.8.9-7.8 1.3-15.7-.5-23.1 8.5 2.7 11.5 6.7 11.4 15.4.1 11.8-2 23.3-7.9 33.9z"/></g></svg>