<?xml version="1.0" encoding="utf-8"?>
<!-- Generator: Adobe Illustrator 25.3.1, SVG Export Plug-In . SVG Version: 6.00 Build 0)  -->
<svg version="1.1" id="Capa_1" xmlns="http://www.w3.org/2000/svg" xmlns:xlink="http://www.w3.org/1999/xlink" x="0px" y="0px"
	 width="1920px" height="1080px" viewBox="0 0 1920 1080" style="enable-background:new 0 0 1920 1080;" xml:space="preserve">
<style type="text/css">
	.st0{fill:#D6D6D6;}
	.st1{fill:#020203;}
	.st2{fill:#FFFFFF;}
	.st3{fill:#020202;}
</style>
<ellipse class="st0" cx="886.2" cy="885.5" rx="107.8" ry="26.5"/>
<path class="st1" d="M905.3,877.3c-1.1,1.6-2.4,3.3-5.6,4.7c1.1-1.1,2.5-2.2,4.3-3.4c1.4,2.3,3.3,3.8,5.6,4.2l-1.9-2.7
	c1.4-0.2,2.5-0.2,3.7-0.4c3.7-2.1,6.5-5.4,8.9-8.7c2-2.7,3.9-5.4,6.6-7.4c4.9-4.6,12.5-3.9,17.7-1.5c4.8,2.3,8.1,6.8,11.2,11.2
	c2.3,3.2,3.3,7,5.7,10.2c-0.2-2-0.4-3.7-1.1-6.1c3.8-2,7.4-0.7,10.3,1.4l0.3-0.3c0.4-0.4,0.9-0.8,1.3-1.1c-0.4-0.5-0.8-1.1-1.1-1.6
	c3.2-2.9,5.7-6.4,9.8-7.7c5.5-1.9,10.2-2,13.8-0.2c5.7,2.7,9.8,8,14.4,12.3c1.1-3.4,1.5-7,1.9-10.5c0.2-1.1,2.1-1.1,3.3-1.3
	c-0.5,3.8-0.9,7.5-1.2,11.1c0.4,0.3,0.9,0.8,1.1,1.1c0.7-3.8,1.6-8.4,1.9-12.9c1.2-1.2,2.3-2.3,3.4-3.1c-0.8,5.5-2.3,11-3.1,16.5
	c4.8-0.7,9.3-3,14.4-3.1c7.6,0,15.3,0.2,21.6,4.4c1.3,0.9,2.9,1.2,4.4,1.5c-2.8-4.3-7.9-6.1-13.3-7.2c-0.2-0.3-0.4-0.6-0.6-0.7
	c2.7-7.7,8.3-13.9,14.8-16.6c4.8-2.6,10.5-1.2,14.4,0.3c-1.1,3-2,5.6-1.9,8.5c0.1,3,1.6,5.6,2,8.7c-0.5,3.3-4.3,4.3-7.4,3.9
	c0,0.2,0.1,0.6,0.2,0.8c2.6-0.1,6.2,0.7,7.8-2.3c0.7,1.2,1,3,2.5,3.1c-0.4-3.2-1.9-6.2-2-9.7c1.9,1,3,2.5,4.1,4.4
	c1.1,1.6,2.3,3.6,4.4,4.7c4.3,0.8,7.9-2,11.4-4.2c1.8,0.7,3.6,1.7,5.5,1.3c-1.1-1.2-2.9-3.5-5.3-2.7c-3,1.1-5.2,4-8.5,3.9
	c-2.8,0.2-4.3-2-5.8-4.3c-1.4-2.1-2.8-4.4-5.8-4.5c0.3-3.8-0.1-7.8,1.8-11.2c3.8-6.9,11.8-11.1,19.6-10.3c7.4,0.4,13.8,4.3,19.3,7.8
	c-3.9,2-7.3,4.1-10.5,6.6l1.6,1.9c10.9-8.3,23.5-12,35.8-13.3c0-0.7,0.2-1.4,0.2-2.1c-8.6,0.8-16.6,2.9-23.8,6
	c-5.5-5-13.2-7.3-19.8-8.7c-1.3-3.5-2.6-7.2-5.7-9.5c-3.8-3.3-8.8-4.9-15.7-5.2c0.3-6.3,1.8-12.8,0.3-19.2
	c-0.9-4.6-2.8-8.9-5.7-12.7c-2.7-3.8-7.5-5.1-11.4-5.7c-0.1-1.4-0.2-3-0.3-4.4c3-0.5,5.2-2.7,7.5-4.7c7.2-6.1,10.3-15.3,16.1-22.9
	c3.2-1.3,7.2-1.1,9.7-4.3c0.9-3-1.3-7-4.4-8.1c0.4-1.4,0.8-2.8,1.1-4.1c7.5-0.9,8.2-3.2,9.3-10.2c0.2-1.1,0.3-2,0.6-3
	c-0.1,0-0.1-0.1-0.2-0.2c0.7,0.8,1.5,1.5,2.2,2.1c-0.1-1.7-0.6-3.5-1.3-4.8c0-0.7,0.1-1.6,0.1-2.2c-1.3-0.1-3.1,0.6-4.3-0.2
	c-2-1.5-4.1-3-6.5-1.8c-3.3,1.8-5.7,5.2-6.4,8.9c-0.1,2.2,0.1,4.3,0.2,6.5c-1.3,0.7-3,1.6-4.4,2.5c2,0.9,4.1,1.7,6.1,2.5
	c0.1,1.1,0.2,2,0.2,3.1c-3.5,0.7-7.4,0.8-10.5,3c-7.3,4.8-10.1,13.5-16.4,19.3c-1-6.6-0.6-13.3-1.3-19.8c-0.5-4.9-1.3-9.8-1.6-14.8
	c-0.2-2.5-0.8-5.6-3.4-6.6c-1.5,0-2.4,0.8-3.4,1.9c-0.6,0.5-1.1,1-1.7,1.2c-2.6,0.2-5.2-0.1-7.9-0.2c0.1-1.2,0.1-2.8,0.1-4.5
	c1.1-1.1,1.9-2.2,3-3.4c-0.7-0.4-1.3-1.1-1.9-1.5c-1.5,2.9-4.8,3.6-7.2,5.2c1.2,0.7,2.4,1.8,3.4,2.5c-1.3,0.5-2.9,1-4.4,1.2l0.2-1.9
	c-1.4,0.5-2.8,1-4.1,1.6c-0.4-2-0.9-4-1.5-6.2c4.1-2.7,8.2-5.2,13.2-3.4c0.8,0.3,1.9,0.4,2.7,0.6c-1.1-1.6-2.4-3.4-4.3-3.4
	c-4.2,0.2-7.5,1-10.7,2.7c-1.8,1.1-4.1,1.1-6.1,1.3c-2.1-1.9-9.4-7.3-15.5-3.4c0.5,2.6,1.9,5.3,4.1,7.6c-0.7,1.1-1.3,2.2-1.9,3.3
	c-1.3,0.2-2.9,0.2-4.4,0.4c-2-2.9-4.4-6.7-8.4-4.8c0,2.6,0,4.8,0.2,7.1c-0.5,0.7-1.1,1.3-1.6,1.9c-0.7-5.7-1.8-11.2-1.9-16.8
	c1.1-1.6,2.3-2.6,3.4-4.1c0.8-2.3,0.3-4.8,0.1-7.1c-2.2-1.2-6.1-1.7-7.2-4.3c1.8-4.5,4.3-8.7,5.5-13.2v-0.2
	c-0.2-0.8-0.6-1.4-0.8-2.1c-2.5,2-4.4,5.7-8.1,5.5c-0.2,1.6-0.9,2.9-2,4.1c-11.7-2.2-23.8-4.6-35.8-6.1c-0.4,0.2-0.9,0.2-1.3,0.2
	c-1.4,0-2.5-0.6-3.1-1.3c-0.1,0.1-0.1,0.2-0.2,0.3c-2-2.9-4.3-6.1-7.2-10c0.4,0.1,0.8,0.2,1.1,0.2c-1.4-0.7-2-1.9-2.2-3.2
	c-0.4-0.1-0.8-0.1-1.1-0.2c0.1,0.7,0.1,1.6-0.2,2.4c0,0,0.1,0.1,0.2,0.1c-0.5,4.3-0.5,8.9,0.1,13.8c-1.1,1.5-1.9,2.9-3,4.2
	c-2.5-0.9-5.2-2.5-7.8-1.1c-2.1,1.4-4.9,4-5.2,7.1c2.5-2,4.7-5.6,8.1-5.3c1.2,0,2.3,0.7,3.1,1.3c-1.3,2.5-3,5.1-4.4,7.8
	c-0.4-0.1-0.8-0.1-1.1-0.2c0.1,1.2-0.1,2.4-0.7,3.1c0.2,0.1,0.4,0.1,0.7,0.2c-1.7,4.5-3.3,9.3-5.2,13.8c-0.3-0.3-0.7-0.4-1.1-0.7
	c0.1,0.2,0.1,0.6,0.1,0.8c0.1,0.7,0,1.4-0.2,2c0.3,0.1,0.5,0.2,0.7,0.3c-2.5,6.2-5.2,14.6-7.1,23.3c-0.3-0.1-1-0.1-1.4-0.1
	c0,0.3-0.1,0.7-0.2,1.1c0,0.5-0.1,0.9-0.2,1.3c0.4,0,1.1-0.1,1.5-0.1c-0.9,5.5-2.3,10.6-3.4,16l2.1,1.3c0.9-4.3,1.4-8.8,3.1-13
	c1.7,6.1,3.2,12.3,7.2,17.3c0.7,1.3,2.5,1.4,3.9,0.7c1.8-0.5,2.2-2.4,3-3.6c0.9,1.3,1.9,2.5,3.1,3.6c2.8,1,4.4-2.6,4.7-4.5
	c1.7,2.3,3.1,3.9,4.4,5.7h3c1.2-1.6,2.3-3.5,3-5.8c1.6,1.6,2.7,3.2,3.9,4.5c1.8-0.2,4.1,0.8,5.2-1.1c1.1-1.4,1.4-3.1,1.7-4.8
	c2.2,1.8,4.1,4.7,7.4,4.1c3.3,0.2,3.7-3.8,3.9-6.1c2.2,1.6,4.8,3.2,7.7,1.9c2-0.6,1.6-2.9,2.1-4.4c2.7,0.7,5.4,1.1,7.9,0.7
	c2.5-1.3,5.4-3.8,5.5-7.1c-3-1.2-6.1-2-9.1-3.4c-6.1-3.5-10.2-9-16-12.9c-13.4-5.8-31.6,11.6-48.9,3.7c0.6-4.9,2.2-9.8,3.9-14.3
	c3.2-9.8,7-19.3,12.7-28.5c0.4,0.2,1,1.1,1.2,1.3c-2.2,8.4,2.6,15.4,11.7,16.2c4,0.5,11.6,0.2,16.6-5c2.5-2,2.6-5.2,3.3-8.2
	c3.5-1,7-0.7,10.2,0.6c-0.2,1-0.5,2.3-0.7,3.4c-1.8-0.5-3.8-1-5.2-2.3c-0.7,0.7-1.6,1.1-2.4,1.7c1.1,0.5,1.9,0.9,3,1.3
	c-2.1,2.1-0.6,5.2,0,7.6c0.6-1.1,1-2.2,1.2-3.4c0.5,0.4,1,1.1,1.3,1.5c-0.2,0.6-0.9,1.6-1.3,2.5c2.6,2,5-0.6,6.1-1.9
	c3.8,2.9,8.7,2.5,13.4,1.8c1.1,5.7,1.3,11.6,2.4,17.3c1,3.9-1.2,7.6-1.3,11.5c-0.1,3.5-0.5,6.8-0.7,10.2c-0.7,7-1.3,14.1-1.1,21.2
	c-1.3,15.9-0.6,32-3.6,47.8c-0.4,2.9-0.3,5.7-1.1,8.4c-0.7-2.5-1.1-4.8-1.5-7.1c-2.5-14.2-8.6-29.4-16.6-39.6
	c1.1-1.6,2.5-3.4,1.9-5.5c-0.7-3.1-3.8-5.2-7.2-5c-1,1.4-2,2.8-3.1,4.5c-6-1.2-12-1.1-18-1.3c-0.2-1.9-0.8-3.4-1.6-5
	c-1.4-0.1-3-0.2-4.5-0.2l-0.1,0.1c-1.4,1.3-2,2.9-2.7,4.4c-0.8,1.5-1.5,3.3-3,4.4c-3.2,3.2-3.6,7.5-3.9,11.7
	c-1.3,15-3.8,29.7-7.8,43.5c-3,11.6-4.4,23.1-7.9,34.7c-2.1-2.1-2.8-5.1-2.5-8.2c-2,1.1-2,2.8-1.6,4.7c0.9,0.8,1.4,2,1.1,3.1
	c0.1,0.3,0.2,0.5,0.2,0.7C905.7,877.1,905.5,877.2,905.3,877.3L905.3,877.3z M972.1,712.1c1.8,2.2,4.2,4.7,2.3,7
	c-0.3,0.1-0.4,0.1-0.6,0c-0.3-0.2-0.5-0.7-0.6-1.3c-0.2-1.5-1.3-2.5-2.1-3.7c-0.3-0.2-0.5-0.5-0.7-0.7
	C971,713.2,971.7,712.4,972.1,712.1L972.1,712.1z M922,773.8c-3.1-3.8-5.2-8.6-6.1-14.5c0.2-0.4,0.6-0.8,0.8-1.1
	c1.5,2.7,4.2,4.8,6.5,6.6c1.9,1.3,1.3,4,1.1,6c-1.1-1.2-2-3.1-3.4-4.2c0.2,1.8,1.1,3.4,2.2,4.8c0.2,0.4,0.5,0.8,0.7,1.1L922,773.8
	L922,773.8z M914.8,747.9c1.8,2.8,5.2,2.9,8,3.2c12.9,1.3,23.7-7.2,36.4-7.2c3,0.3,5.7,2.4,8.7,5.8c0.1,0.7,0.2,1.3,0.2,1.9
	c0.2,1.5,0.4,3.3,1.7,4.4c0.1-1.1,0.1-3,0.2-4.3c5.2,4.7,11.1,7.8,17,9.1c-0.7,0.8-1.2,2-1.9,2.7c-4.6-2.4-9.7-4.4-13.7-7.9
	c1.4,5.6,7.9,5.4,11.6,8.7c-4.1,0-7.6-3-11.8-3.1l0.6,3.6c-2.8-1.8-4.9-4.2-7.5-6.1c1.7,3.9,5.1,6.1,8.4,8.4c0,0.4-0.2,0.6-0.4,0.7
	c-0.7,0.4-2.2-0.1-2.5-0.7c-0.6-0.5-1.2-0.9-1.9-1.3c-1.7-1.2-3.3-2.4-5.2-3.1c0.2,2.2,0.4,4.3,0.6,6.5c-2.4-2.1-3.4-5.4-5.7-7.6
	c0.7,3.9,3.3,6.6,5.5,9.7c-4.7,0.3-6.9-5.2-10.2-7.8c-0.1,2.5,0.4,5.4-0.7,7.7c-1.6-2.5-2.3-5.2-4.2-7.1c-0.2,3.6,2.6,6,3.9,9.1
	c-1.7,0.2-2.9-1.1-3.9-2.3c-1.7-2.1-3-4.4-4.8-6.6c0.1,2.7-0.4,5.7-1.1,8.2c-1.1-2-1.1-4.1-1.3-6.2l-1.7-1.1
	c-0.3,3.4,1.2,6.4,1.9,9.7c-4.1-2-4.3-7.4-7.8-10.3c-0.3,2.1,0.4,5.5-1.8,6.6c0-1.8,0.8-3.9-1.1-5.2c-0.2,2.4-0.1,4.9,0.2,7.2
	c-2-2.2-3.3-5-4.5-7.4l2.3-2.3c0.1-1.4,0.2-2.7,0.3-3.9c2,1.6,4.1,3.4,6.5,4.7c2.2-1.8,2.1-4.7,2.3-7.1c2.9,1.7,5.8,3.9,9.3,4.7
	c0.6-0.4,1.6-1.2,2.1-1.6c-0.2-1.3-0.2-3-0.4-4.4c3.3,1.7,7.3,5.3,10.7,1.9c0.1-1.4,0.2-2.8,0.2-4.1c3.4,1.5,6.9,5.2,10.7,2.5
	l-1.2-1.9c-0.8,0.1-2.3,0.1-3,0.2c-1.4-0.6-3-1.6-4.4-2.5c-1.9-1.1-3.9-2.4-6.1-3.1c0.7,2.6,2,4.8,2.1,7.8
	c-5.1,0.2-8.7-3.5-12.7-5.8c0.4,3,2,5.6,2.1,8.7c-4.8-1-8.6-4.2-12.6-6.6c0.8,2.7,1,5.6,0.6,8.7c-3.8-1.7-6.5-5-10.2-6.9
	c1.3,2.4,1.6,5,1.2,8.1c-3.5-0.6-5.9-3.4-8.4-5.7c-0.7,0.2-1.7-0.1-2.5-0.4c0-0.7-0.1-1.2-0.2-1.9
	C914.5,752.4,914.4,750.2,914.8,747.9L914.8,747.9z M935.2,710.3c-0.1-5.8,6.6-7.7,11.4-7.8c3.7,0,7.6,1.1,11.8,3.1
	c2,1.2,4.8,2.8,4.3,5.3c-0.9,3-3.1,5.3-6.1,6.1c-7,2.1-13.8,1.6-18.6-1.5C936.3,714.4,935.3,712.6,935.2,710.3L935.2,710.3z
	 M991,695.7c-1.1,3-3.5,5.4-3.4,8.7c-3.9-0.6-7,0.5-11.1,2.5c-3.5-1.1-7.7-1.1-12.2-0.3c-0.9-1-1.9-2.1-2.7-3
	c-2.8-0.8-5.2-2.5-8.1-3.1c-8.2-2-14.3-1.3-18.5,2.3l-1.3-1.9c1.1-1.8,2.6-3.6,3.4-5.7c0.2-2-0.2-4.1-0.3-6.1
	c1.6,1.5,2.5,3.6,3.9,5.2h0.1c12.5,0.3,24.6,3.1,35.8,5.5c3.2,0.7,6.4,1.4,9.7,1.3C987.5,699.1,989,697,991,695.7L991,695.7z
	 M990.2,717.9c-2.7,0.8-9,2-12.9-2.3c-1.1-0.8-1.1-2-1.1-2.7c0.2-1.6,1.4-3.1,2.7-3.9c2.7-2,6-1.8,9.1-1.7l0.2,0.1
	C989.2,710.9,989.5,714.3,990.2,717.9L990.2,717.9z M925.2,822.2c3.2,0.9,5.7,2.9,7.6,5.3c0.5,1.1,0,2.3-0.7,3
	c-3.7,0.7-6.6-2.5-8.1-4.4C924.4,824.9,924.7,824,925.2,822.2L925.2,822.2z M933.8,832.4c0.4-4.3,1-6.5-3-9.4
	c-0.7-0.4-1.3-0.9-1.7-1.5c-0.7-1.7-1.3-3.4-1.9-5.2c3.9,2.4,6.9,5.7,10.5,8.1c1.2,5.3,3,10.6,4.2,16.1
	C939.3,837.9,936.9,834.8,933.8,832.4L933.8,832.4z M945.5,833.6c1,1.1,2.5,2.2,3,3.7c1,2.4,2.8,4.3,4.3,6.2
	c-2.9-0.1-5.7-0.6-8.7-1.3c-1.4-5.7-3-11.5-4.7-17c5.9,0.1,11.7,0.5,17.7,0.7c-0.1,1.9-0.3,3.9-1.1,5.8c-1.1-0.7-2.1-1.7-3.4-2.3
	C949.6,828.3,945.5,830.3,945.5,833.6L945.5,833.6z M925.3,816.9c1,1,1.8,2.5,2.2,3.9c-1.1,0.2-2.1,0.3-3,0.6
	C924.7,819.5,925,818.1,925.3,816.9z M995.2,710.9c0.2,1.7,0,4.4-2.7,5.7c-0.2-1.6-0.5-3.1-0.7-4.7c-0.2-1.1-0.2-2.1-0.4-3
	C992.7,709.6,993.9,710.3,995.2,710.9L995.2,710.9z M1022.9,731.4c-3.5-1.7-7,1.7-10.7,0.4c0.8-1.5,2.7-1.6,4.4-1.9
	c-0.6-0.7-1.2-1.1-1.9-1.7c-2-1.6-4-3.4-5.5-5.5c0.7-0.7,1.6-1.1,2.5-1.5c2.3,0.3,5.6,1.3,8.5,3.6
	C1022.2,726.3,1022.1,729.1,1022.9,731.4L1022.9,731.4z M1027.4,733c-1.1-0.1-2.2-0.4-3.3-0.7c-0.6-2-1-4.1-1.3-6.1
	C1026.1,726.9,1027.1,730.8,1027.4,733z M1092.9,745c-0.2,0-0.5,0.1-0.7,0c0.5-1.7,0.9-3.4,1.2-5.3c-0.6-0.8-1.3-1.6-2.4-2.3
	c-1.9,0.2-3.9,0.5-5.7,0.7c0-5.2,4.1-8.8,6.6-10.5c2.2,0,4.4,1.2,5.2,3.1c1.8,3.2,1.8,7.4,0.1,11.4
	C1096.5,744,1094.7,744.6,1092.9,745L1092.9,745z M1091.7,740.5c0.3,1.6-1.1,3.4-2.1,4.8c-1.8,0-3.4,0-5.2-0.2
	c0.2-0.6,1.1-1.5,1.3-1.9c0-1.4-0.1-2.6-0.2-3.9c2,0,3.7-0.1,5.2-0.3C1091.4,739.5,1091.6,740,1091.7,740.5L1091.7,740.5z
	 M1087.2,750.7c0.1-1.5,0-3.6,1.8-3.8c0.1,1.1,0.2,2.8,0.2,3.9v0.2C1088.5,750.7,1087.9,750.6,1087.2,750.7L1087.2,750.7z
	 M1060.1,789.1c-0.1-1.4-0.2-3-0.2-4.5c-0.2-3-0.4-6-0.8-9.1c7.8-6.6,10.7-17.7,20.7-22c4.7-1.7,10.9-1,13.2,3.4
	c-1.6,3.2-5.7,2.9-8.7,3.9c-5.5,5.7-7.8,13.6-13.3,19.6C1067.9,784,1064.6,787.4,1060.1,789.1L1060.1,789.1z M1064.5,856
	c-5.1-10.5,0.7-20.2,12.3-20.5c9.5,0.2,15.8,3.3,19.7,11.8c-3.4,0.6-7,0-10.5,1.3c-4.3,1.6-7.7,4.5-9.9,8.1
	c-0.3,0.8-0.8,1.6-1.9,0.8C1071.5,856.4,1068.3,856,1064.5,856L1064.5,856z M1043.5,876.6c-1.4-0.3-2.8-0.5-4.7-1.6
	c0.7-1.5,2-3.1,3.3-4.4c0-0.4,0.2-1.6,0.2-2.3c1.4-0.9,3.1-1.7,3.3-3.6c0-1.1,0.8-1.6,1.9-2c0.7-0.2,1.5-0.7,1.9-1.3
	c0.2-1.2,0.3-2.3,0.4-3.1c1.9-1.1,4.1-1.9,3-4.4c-0.6-1.6-0.5-1.6,0.7-2.4c2.6-2,5.5-4.1,5.7-7.7l-3.1-0.4c1.5-6.8,4.8-13.3,3-20.2
	c-1.9,2-1.3,4.8-1.3,7.1c-3.9,3.4-9.3,4.2-13.7,2.3l2.2-9.8c3.6,2.2,7.5,1.1,11.4,1.5c0.5-0.7,1.1-1.3,1.6-1.7
	c-3.7-0.3-7.5,0.5-11.1-0.6c-1.6-3.1,0.2-6.5,1.1-9.6c1.3-4,3.2-9.7,7.6-12.2c10.5-4.4,19.3,9.4,19.3,18.5
	c-0.2,5.2-0.7,9.8-1.2,13.8c-4.4,2.5-9.9,3.9-11.9,9.1c-1.2,3-2.9,8.9-0.7,14.1c-7,2.5-12.7,7-16.1,12.7c-1.1,2-1.2,4.4-1.3,7
	L1043.5,876.6L1043.5,876.6z M1046.5,835.8c-0.2,3,0,5.2,0.5,7.2c-1.3,1.5-3.4,1.5-5.2,1.9c0.6-3.6,1.2-6.7,2.3-9.8L1046.5,835.8
	L1046.5,835.8z M1048.2,843c-0.2-2.8-1-7.6,3-7.2c-0.2,2.5-0.5,4.7-0.7,7C1049.5,843.1,1048.8,843.2,1048.2,843z M1052.4,842.9
	c0.2-2,0-4.2,0.5-6.2c0.6-1.6,2.4-1.8,3.9-2.1c-0.7,2.9-1.1,5.5-1.9,8.4C1054.3,842.9,1053.1,842.9,1052.4,842.9L1052.4,842.9z
	 M1021.1,878.9c1.5-6.6,2.8-13.2,3.9-19.7c0-3.4,0.3-7.7-3-9.7c-1.4-1.1-3-0.2-4.5,0c-3,0.7-6.1,0.7-8.5,0.7c-0.5-0.7-1-1.6-1.3-2.2
	c2-8.5,2.6-21.4,14.3-21.5c8.9,2.4,9.9,9.8,8.9,17.5c-0.7,11-2.1,21.6-2.3,32.7c1.9-0.3,1.7-2.1,1.9-3.4c0.6-8,0.9-16.2,2.7-24.1
	c2.4-1,5.2-0.5,7.6-1.2c0.2,8.3-3.3,16.3-9.3,21.5c3,1.1,4.8-1.9,6.1-3.9c4-6.6,5.5-12.7,4.4-18c4.3-1.7,9.3-2.2,14.4-1.5
	c-2.4,3.3-6.5,4.2-10.2,5.2c1,2,3,2.9,4.8,3.9c-2,0.6-4.2,1.3-6.1,2.4c0.5,1.4,2.6,1.9,2.5,3.4c-1.9,0.6-3.8,0.8-5.6,1.9
	c0.7,0.7,1.2,1.7,1.9,2.5c-2.3,0.6-6.6,0.7-4.3,3.9c-0.6,0.2-1.5,0.5-1.9,0.7l-0.2,0.1c1.8,2.5-2,3.7-3.4,5.5
	C1029.7,876.6,1025.4,877.2,1021.1,878.9L1021.1,878.9z M1005.8,864.6c-0.3-4.7,1.2-9.3,1.9-13.9c4.6,2.5,9.4,0.1,14.3,0
	c0.6,2.2,2.4,9.1-1.9,13.2C1016.3,868,1009.8,867.4,1005.8,864.6z M1008.7,873.3c-2.8-0.3-4.8-3.3-4.2-5.9c1.2,0.4,2.3,0.9,3.4,1.2
	c-0.3,1.3-0.2,2.5,0.2,3.7c1.8,0.2,1.2-2,1.5-3.1c0.8,0.1,2.2,0.1,3,0.2c-0.7,2.4-1.3,5-1.9,8.1c-1.1-0.8-2.1-2.1-1.9-3.9
	L1008.7,873.3z M999.2,866.1c1.1-4.5,2.4-8.9,3.6-13.2c1.1-4.2,2.4-8.4,3.4-12.7c0.4-2.6,0.6-6.3-1.7-8.7s-6,0.2-8.4-1.6
	c-1.1-0.5-0.3-2.3-0.2-3.4c0.9-3.8,1.5-7.6,3.4-11c1.2-2.2,4.3-2.7,6.5-1.9c4.3,1.4,7.7,5,10.8,10.7c-3,1.8-5.9,3.9-7.1,7.4
	c-1.9,5.6-3,11.6-3.7,17.3c-0.5,2.7-0.9,5.2-1.3,8.2c-0.5,3.8-0.7,7.5-1.7,11.4C1001.1,867.9,1000,866.9,999.2,866.1z M996.8,865.3
	c-2.7-1-5.7-1.3-8.7-0.5c2-11.2,4.5-21.8,6.4-32.9c3,0.7,6,0.7,9.1,1.1c0.9,2.5,1.1,5.4,0.3,7.8c-1,3.4-2,6.9-3.1,10.3
	C999.3,855.6,998,860.4,996.8,865.3L996.8,865.3z M986.5,859c-0.2,1.1-0.7,2.1-0.7,3.1c0-3.4,0.7-7,1.1-10.3c0.5-3,1-5.7,1.1-8.7
	c1.2-7.2,1.9-14.3,2.3-21.5c0.6-11.7,2.1-23.3,2.5-35.1c-0.3-5.8,0.4-11.6,0.7-17.4c0.4-4.7-0.2-9.6,0.6-14.3c1.3-5.7,1.6-12,5-17
	c1.4-2,1-4.6,1.1-6.9c1.8,0.1,1.5,2.7,2.2,3.9c3.4,0.6,6.9-0.2,10.3-0.2c12.8,0.6,25.4,0.3,37.7,3.3c0.8-1.7,1.8-3.1,3-4.3
	c0,4.1,1.1,7.9,1.3,12c0.7,9.6,2,19.2,1.3,29c-0.7-0.7-1.2-1.8-1.8-2.5c0-2.1-0.7-4-2.3-5.2c-1.3-0.7-3-0.2-4.4-0.1
	c-0.3-2.8-0.5-5.6-1.1-8.5c-0.9,2.6-0.5,5.4-0.2,8.1c-1.9-1-4-1-6-1.1c-1.4,1.1-2.6,2.3-3.9,3.4l-0.1,0.1v0.1
	c-0.1,1.1-0.2,2.8-0.2,4.3c0.5,0.6,1.2,1.5,1.6,1.9c-0.9,2.3-0.9,6-4,6.6c-2,0.8-3.9,2-5.7,3.1c-3,1.7-6,3.8-9.7,3.6
	c-4.8-0.1-7.9-3.7-11.4-6.4c-0.2,0.7-0.4,1.6-0.6,2.1c4.3,4.5,10.8,6.5,16.4,5.2c2.8-0.4,5-2.1,7.2-3.4c2.8-1.7,5.5-3.5,8.9-3.6
	l1.9,1.9c-2,3-1.9,6.6-3.1,9.8c-2.3,6.6-7.5,12.1-13.9,15.2c-3.4,1.5-7.1,0.7-10.8,0.7c2.1,2.9,6,2.5,9.1,2.1
	c4.4-0.8,8.2-4,12.2-8.5c5.4-0.2,6.9-4.8,9.8-8.7c2.8-3.8,5.3-7.9,7.2-12.3h3.1c0.6-0.7,1.5-1.5,2.3-1.9c0.2,5.1,0.5,10.1,1.3,15.2
	c-3,1.5-7.1,4.4-9.3,8.9c-5.7,13.2-5.7,28-11.7,41.2c-1.1-0.1-2.3-0.1-3.4-0.2c0.5-0.6,1.1-1.1,1.2-1.9l-1.2-0.7v-2.3
	c0.8,1.1,1.6,2,1.9,3.1l0.6,0.7c2.5-1,0.1-2.9-0.6-4.4c1.1-0.5,2.3-0.9,3.4-1.3c-0.8-1.7-2-2.9-3.4-4c-1.2-1.1-2.4-2.1-3.1-3.4
	c-3-4.8-8.2-8.1-13.7-7.9c-3.1-6.1-7.5-12.8-15.4-12.7c-1.8,0-3.8,0.4-5.2,2.3c-2.3,3.4-3.3,7.6-4.1,11.6
	C990.9,836.3,988.4,847.5,986.5,859L986.5,859z M1033.3,836.1c1.1,0.6,2.2,1.5,3.3,2.3c-1.1,0.2-2.1,0.6-3.4,0.8
	C1033.2,838.1,1033.2,837.1,1033.3,836.1z M1049,770.2c1.9,2.5,5.2,3.9,5.5,7.1c0.5,1.5-0.4,3.1-1.1,4.4c-3,0.4-4.6-1.9-6.4-3.9
	c0.7-1.7,1.7-3.3,2-5.2c-0.2-1.5-1.1-3.1-1.9-4.4c2.4-0.7,4.4,0.5,5.5,2.7C1051.5,770.7,1050.2,770.2,1049,770.2L1049,770.2z
	 M1042.7,785.8h0.2v0.2h0.2c-1.5-2-3-4.3-6-4.2c0.5-1.5,1-3,1.2-4.2c4.2-0.5,9,1.1,10.5,5.5c-2.6,3.6-4.6,7.5-7.1,11.2
	c-0.7,0.6-1.3,1.6-1.7,2.4c-1.1,1.4-2.1,3.2-3.7,4.4c0.5-2.3,1.8-4.2,2.5-6.4c0.8-2.5,1.1-5.2,1.5-7.8
	C1041,786.5,1042,786.1,1042.7,785.8L1042.7,785.8z M1038.7,775.9c-0.6-1.6-1.2-3-2.1-4.3c0.9-1.5,2-3.6,3.9-4.4
	c1.3-0.1,2.5,0.1,3.7,0.2c1.1,1.6,2.3,2.9,3,4.7c0.3,1.6-1.1,3.4-1.9,4.7C1043.4,776.3,1041.2,776.2,1038.7,775.9z M931.7,859
	c0.8-2.9,3-7.7,7.7-9.8c4.7-2,10.2-1.2,14.3,1.9c-3,1.8-6.6,4-6.5,8.2c1.1-0.6,2.1-1.6,3-2.3c4.6-4.5,8.4-6,14.9-4.4
	c-1.1,2.7-2.9,4.1-5,4.3c-0.9,1.3-1.6,2.4-2.4,3.7c2.7-2.2,6.8-4,10.2-1.1c-0.5,1.1-1.1,2.5-1.6,3.9c-1.1,0.7-2,1.7-3.1,2.5
	c3,0,5.9,0.3,8.2,1.1c-0.2-1.3-1.1-2.1-2.1-2.5c-0.9-0.4-1.6-0.8-1.7-1.6c1.7-2.4,5-1.1,7.5-1.3c-0.9-1.2-2.3-2.8-4.3-2.5
	c-2.4,0.3-3.9-2-5.7-3.1c5.2-4.6,7.3-3.1,13.4-1.9c-1.1-1.6-2.5-2.8-4.4-3.4c0.8-6,6-11.9,12.2-10.7c-0.1,4.5-1.7,8.8-1.9,13.2
	s-1.3,8.7-1.9,12.9c-4.2,1.1-7.7,4.4-10,9.3c-3.4-1.9-7.5-1.9-10.7,0.1C955.7,863.4,946.2,854.8,931.7,859L931.7,859z M922.6,865.9
	c-3.4,3.9-5.9,8.6-10,11.6c4-16.5,6.6-32.9,10.7-49.5c1.9,3.2,4.8,5.2,8.4,5.6c3.6,2.7,6.7,6.1,9.1,9.3c3,4,8.6,2.4,12.9,3.7
	c0.4-0.7,0.9-1.4,1.5-2.2c2,1.1,4.3,2.4,6.6,1.1c-2.7-2.2-6.6-2.8-8.9-5.3c-2.1-2.1-2.7-5.2-4.7-7.4c1.6-0.9,2.7-1.1,3.9-0.7
	c2.4,1,4.3,2.5,6.2,4.1c2.8,2.3,6.1,5.7,10,3.9c2.2-0.9,4.4-3.5,5.2-6.1c-2.1,1.1-4.1,2.5-6,4.4c-3.9,0-6.6-3.3-9.7-5.5
	c0.7-1.7,1.3-4.2,1.3-6.6c0-0.5,0-0.8-0.2-1.1c-0.5-0.6-1.6-0.7-2.4-0.7c-5-0.5-9.8-0.6-14.8-0.7c0.1-0.5,0.2-1.1,0.2-1.6
	c-1.1,0-2,0.2-3,0.2c0-0.7,0.2-1.6,0.2-2.1c-1.7-1.9-3.3-3.7-5.2-5.5c0.9,2,1.7,3.5,3.4,5.3c-0.4,0.2-0.8,0.5-1.1,0.7
	c-2-2.3-4.8-4.1-7.2-6c0.8-1.1,1.9-2.2,2.7-3.3c-1.3,0.7-2.9,1.7-4.4,2.5c-0.2-0.7-0.6-1.6-0.7-2.1c0.3-2.9,0.5-5.4,0.7-8.4
	c0.3-2.7,0.5-5.2,0.7-8.2c0.6-3.9,3-6.6,5-8.5c-0.1-3,2.2-4.9,4.2-6.1c2.1,2.1-0.7,4.5-1.5,6.6c8.4-1.1,16.6,0.8,25.1,0.8
	c1.6-1.8,3.1-3.9,5.5-4.1c0.2,2.5-1.5,4.3-3,6.1c10.2,12.3,16.8,28.6,18.8,47.4c-4.7,1.6-9.3,5.9-9.1,11.9c-2.7,0.4-5.2,1.1-7.1,2
	c-2-1.4-4.1-1.5-6.2-1.6c-1.1,0-2.3,0-3.4-0.2c-4.8-3.5-11-4.9-16-3.1c-6.2,1.7-9.8,7.9-10.5,13.3
	C927.1,861.7,924.6,863.6,922.6,865.9L922.6,865.9z"/>
<path class="st1" d="M966.2,701.9c1.1-1-0.6-3.2-1.9-2.5C963.1,700.5,964.8,702.6,966.2,701.9z M969,700.3c-0.8,1,0.2,3.2,1.6,2.5
	C972,702,970.6,699,969,700.3z M978,704.4c0.4-1.3,0-2.1-1.6-1.5C975.8,704.3,976.7,705,978,704.4z M944.8,706.1
	c-0.3,0.1-0.7,0.2-0.8,0.7c-0.3,0.3-0.5,0.4-0.7,0.6c0.4,2.1,0.7,5.8,3.9,5.7c3.1-1.1,4.2-4.7,5-7.4l-1.9,1.1
	c-0.6,1.8-1.8,3-3.7,4.1C945.4,709.5,944.9,707.9,944.8,706.1L944.8,706.1z M946.2,715.6c3.5-0.3,6.4-2.7,7.1-5.8l-0.6,0.3
	C950.3,711.8,948,713.6,946.2,715.6z M981.2,714.4c2.5,0.8,4.3-1.5,3-4c-0.6,1.2-1.3,2.3-1.9,3.1c-1.6-0.7-2.6-2.5-3.9-3.7l1.8,3.9
	l-2.7,1.5c1.1,0.4,2.2,0.9,3,1.1C980.7,715.6,981,715,981.2,714.4L981.2,714.4z M928.5,722.5l0.4-0.2c2.7-1.1,3.8-3,3.4-5
	C929.9,717.8,929.3,720.5,928.5,722.5L928.5,722.5z M933.2,720.4c-0.8,1.1-1.9,2-2.7,3.1c0.6,0.5,1.3,0.9,1.9,1.2l0.2-0.1
	c0.9-1.1,1.6-2,2.4-3.1C934.4,721.3,933.7,720.8,933.2,720.4L933.2,720.4z M987.9,724.7c-1.2,1.1,0.4,3.8,1.9,2.7
	C991,726.2,989.3,723.6,987.9,724.7z M921.9,734c3.9-1.1,5.8-5.2,5.8-8.7c-2.2,2.2-4.8,5-6.3,8.7H921.9z M985.5,728.4
	c-0.2,1.5,2.1,2.8,3.4,2.5v-0.2C989.1,729.3,986.7,727.4,985.5,728.4z M952.5,728.9c-0.2,1.1-0.2,2.4-0.4,3.4
	c1.8,0.6,3.9,1.2,6.2,1.2c2.5,0.1,4.8-0.8,6.1-3c-3,0.5-6.2,0.9-9.3,0.7C954.4,730.4,953.2,729.6,952.5,728.9L952.5,728.9z
	 M929.9,730c-3,2.1-4.8,4.4-5.6,7.4c3.1-1,5.9-4.2,6.1-7.6L929.9,730L929.9,730z M1091.6,731.9c0.3,0.5,0.9,1.1,1.2,1.9
	c1.2-0.7,2.8-1.1,2.4-3C1093.9,731.3,1092.8,731.7,1091.6,731.9z M966.7,731.8c-0.2,0.7-0.2,1.8-0.1,2.8c0.6,0.2,1.6,0.3,2.4,0.3
	c2.5,0,4.7-1.1,6.4-3.1C972.5,732.1,969.7,733.3,966.7,731.8L966.7,731.8z M976.6,731.9l-1.9,1.5c1.4,1.3,3.4,1.8,5.2,1.6
	c1.4-0.2,2.5-1.1,3.1-2.4C980.8,732.9,978.5,733.4,976.6,731.9L976.6,731.9z M927.5,739.7c2.9-0.3,5.4-2.4,6.5-5.3h-0.2
	C930.8,734.1,928.8,737.2,927.5,739.7z M966.2,735.6c-1.8-0.2-3.6-0.4-5.5-0.7c0,3.3,3.3,2.5,5.5,2.7V735.6z M959.7,738.1
	c-2.2-0.2-4.4-1.1-6.3-2.4c0.3,3.5,4.4,4.3,7,2.5L959.7,738.1z M971.4,736.2l-0.1,2.6c2.8,1.1,5.8,1.1,7-1.9
	C975.8,737,973.7,736.8,971.4,736.2L971.4,736.2z M990.7,740.7c-0.6-1.8-1.4-4.3-3.7-3.7l0.1,0.2C987.8,738.9,989,740.1,990.7,740.7
	L990.7,740.7z M972.2,741.3c-1.6-1.1-3.9-1.6-6.6-1.9c0.8,3.4,4.8,2.1,7.2,2.2L972.2,741.3L972.2,741.3z M984.8,738.8
	c0.7,2.4,2.3,4.2,4.5,5.5l-0.2-0.4C988.6,741.8,986.9,739.9,984.8,738.8z M1003.9,742.6c-0.9-1.8-2.4-2.9-4.3-3.1l0.1,0.2
	C999.8,741.4,1001.8,742.3,1003.9,742.6L1003.9,742.6z M1002.5,744.2c-1.4-0.5-3-1-4.7-1.3c0.8,1.9,2.8,2.8,4.7,3.6V744.2z
	 M1011.8,743.4c-0.4,1.6-0.4,3.1,0.3,4.3c0.4,1.2,1.1,2.8,2.3,3.1c1.8,0.5,3.7-1.3,3.9-3.1c0.5-1.7-0.2-3.9-1.3-5.2
	c-0.7,2,0.4,5.4-1.9,6.2c-2.7-0.5-1.9-4.1-3-6l-0.2-0.6L1011.8,743.4z M1025.8,752.8v0.9c-0.6,1.8-1.6,3.6-2.5,5.5
	c1-0.7,2-1.2,3.1-1.9c2.2,1.8,7.3,3.9,10.7,1.7c2.1-3.6,0.8-8.1,0.2-12.1l-0.7,0.2v-3.4c-1.7-0.2-3.4-0.2-5.2-0.4l0.6,0.3
	c0.8,0.7,2.5,0.8,3.1,1.9c-0.7,0.3-1.3,0.8-1.7,1.1c1.1,0.4,2.2,1.1,3,1.9c-2.5-0.7-7-1.1-6.9,2.3c2.1,2,5,2.1,7.7,2.4
	c-0.3,1.5-1.1,3.9-3.4,5.2C1030.1,758.6,1026.6,756.2,1025.8,752.8L1025.8,752.8z M982.6,743.1c1.4,2.8,3.7,4.8,6.6,5.5l-0.3-0.6
	C987.1,745.6,985,744,982.6,743.1z M1042.7,746.2c-0.5-0.4-0.7-1-0.8-1.4c0,2.5,0.2,6.1,3.7,7.8c0.7-0.8,1.7-1.9,2.5-2.7
	c0.2-2,0.3-4.1-0.3-6c-0.4,1.8-0.8,3.9-1.1,5.7C1044.6,749.6,1043.5,748,1042.7,746.2L1042.7,746.2z M961.1,749
	c-1.4-1.8-2.9-2.7-4.7-3c0.7,2.5,2.5,4.4,4.8,3.3L961.1,749z M1003.6,749.3c-1.6-1.7-3.9-2.3-6.3-1.8l0.2,0.2
	C999.3,749.5,1001.4,749.5,1003.6,749.3z M1008.5,747.3c-1.9,2.2,1.3,4.9,3.4,5.2C1010.7,750.7,1009.8,749,1008.5,747.3z
	 M1062.4,811.2c-0.6,0.3-1.3,1.5-1.1,2.3c0,0.7,0.5,1.1,1.1,1.1C1064.2,814.6,1065.2,810,1062.4,811.2L1062.4,811.2z M1070.1,813.5
	c1.8,0.2,2.7-4.5,0.1-3.4c-0.7,0.4-1.3,1.6-1.1,2.3C1069,813.1,1069.5,813.5,1070.1,813.5L1070.1,813.5z M940.7,754.5
	c-1-1.5-2.3-3.2-4.3-2.8c1,1.9,2.1,4.5,4.7,3.4L940.7,754.5L940.7,754.5z M922.7,757c-0.5-1.5-1.1-2.9-2.7-3.4
	C919.1,755.4,920.8,756.9,922.7,757z M930,754.5c-1,1-0.2,3.3,1.3,3.1C933.4,756.9,931.8,752.9,930,754.5z M1010.8,791.8
	c-0.7,2,3,2.3,3.3,0.7C1014.3,790.8,1011.6,790.7,1010.8,791.8z M951,811.2c-0.7-0.9-1.1-1.9-1.4-3.2c0.8-0.4,1.5-1.1,2.1-1.5
	c-1.1-0.1-1.9-0.2-3-0.3l-0.2-0.7l-0.2,0.7c-0.2-0.1-0.6-0.1-0.8-0.2c0.1,0.7,0.1,1.1-0.1,1.7v0.4c-1.5,2-4,3.2-7,3.1
	c-2.3-1.1-3.2-3.6-3.4-5.2c2.7-0.2,5.7-0.4,7.7-2.4c0.1-3.4-4.6-2.6-6.9-2.3c1-0.8,1.9-1.6,3-1.9c-0.6-0.3-1.1-0.7-1.7-1.1
	c0.7-0.8,2.3-1.1,3.1-1.9l0.6-0.3c-1.8,0.1-3.4,0.2-5.2,0.4v3.4l-0.7-0.2c-0.5,4-1.9,8.3,0.2,12.1c4.1,2.4,8.7-0.2,10.7-1.5
	c-0.2,0.6-0.9,1-1.2,1.3c0.6-0.2,1.3-0.2,1.9-0.4c1.6,1.5,3.4,1.8,5,0.7l2.3,2.2c0.6-0.4,1.5-1,1.9-1.2c1.1,0.3,2.1,0.7,3.3,0.7
	c1.2-1.8,0.9-4.1,1.1-6.1c-3.4,0.1-7,0.1-11-0.2c0.5,0.6,1,1.2,1.3,1.9C952.1,810.1,951.4,810.6,951,811.2L951,811.2z M964.5,798.4
	c-1.1,1-1.6,2.9-3.4,2.7c-1.2-1.3-2.2-3-3.4-4.4c-0.2,3,1.1,5.9,3.4,7.3C963.8,802.5,964.9,800.7,964.5,798.4z M935.7,795.9
	c-0.7,0.7-1.2,2-2.3,1.9c-0.7-1-1.6-2-2.3-3.1c-0.2,2,0.5,4.1,2.3,5.2C935.3,799,936,797.6,935.7,795.9L935.7,795.9z M1055.4,828
	c-1.1,0.7-1.3,3.1,0.4,3.1C1057.3,830.7,1057.3,826.9,1055.4,828z M1033.9,859.1c-1.1-0.1-2,1.2-1.4,2.1c0.2,0.5,0.7,0.8,1.3,0.8
	c0.5,0,0.9-0.3,1.1-0.7C1035.8,860.4,1035.1,859.2,1033.9,859.1L1033.9,859.1z M1015.9,859.7c0.4-1.4,0.5-3,0.4-4.5
	C1014.3,856.2,1013.4,858.9,1015.9,859.7z M1012.5,859.5c0.4-1.5-0.1-3.1-0.4-4.4C1010.3,856.3,1010.2,859,1012.5,859.5z
	 M1033.5,858c1.2-0.1,2.9-0.3,3.1-1.9c-1.1-0.3-2-0.4-3.1-0.6l-0.2,2.5H1033.5z"/>
<path class="st1" d="M1067.9,811.9l-1.4,3c-0.3,0.7-0.5,1.3-0.7,1.9c0.9,2,1.9,4.5,4.3,5.2c0.4-1.9,0.6-3.9,0.6-5.7
	c1.4,0,3.2-0.4,4.4-1.7c-1.8,0-3.4,0-5.2-0.1C1069.2,813.7,1068.7,812.6,1067.9,811.9L1067.9,811.9z M1067.9,816.6l-0.2-0.5
	c0.6-0.7,0.9-0.8,1.1-0.2c0.3,0.9,0.3,2.9-0.1,3.6h-0.1C1068.5,818.5,1068.2,817.4,1067.9,816.6L1067.9,816.6z M1048.8,831.3
	c2.3-0.1,1.1-4.4-0.7-3.1C1047,828.9,1047.4,831.2,1048.8,831.3z M1034.5,852.2c0.4,1.2,1.1,1.6,1.4,1.7c1.5,0,2.8-1.7,3-3
	C1037.5,851.2,1035.8,851.9,1034.5,852.2z M1022.4,834.4c-0.4,0-0.8,0-1.4-0.1c0,1.1-0.1,2.3-0.1,3.4l2.3,2.3l0.2-0.2
	c1.1-0.9,2.3-2.5,3.1-4c-1.3,0.4-2.8,1.1-4.3,1.5C1022.3,836.4,1022.4,835.2,1022.4,834.4z M833.9,862.9c0.2-0.4,0.7-1,1.1-1.6
	l-3,1.9c0.3-0.1,0.5-0.2,0.7-0.3C833.2,862.7,833.6,862.7,833.9,862.9L833.9,862.9z M1007.3,821.7c-0.6,2.6-0.6,4.8-0.8,7.1
	c1.3-0.1,3-0.1,4.4-0.1v-1.1h0.7c-1.6-3,5.9-2.7,1.8-6.1c0,2-1.2,2.1-3.1,1.9C1009.4,822.5,1008.8,820.8,1007.3,821.7L1007.3,821.7z
	 M1010.5,827.6c-0.6,0-1.6-0.2-2.1,0c0-1.1,0.1-2,0.2-3.1C1009.7,824.9,1010.2,826.1,1010.5,827.6L1010.5,827.6z M971.8,811.2
	c-1.2-0.4-2.9,1.1-1.8,2.3c0.3,0.3,0.9,0.5,1.5,0.2C972.5,813.3,973.3,811.6,971.8,811.2z M1002.6,821.6c-1.1-0.5-2.2-0.9-3.3-1.1
	c0.8,1.6,2.8,2.9,4.7,2.7c0.3-0.7,0.5-1.1,0.7-1.7c0.3-0.5,0.4-1,0.7-1.3c-0.4-0.4-1.1-0.9-1.5-1.1L1002.6,821.6L1002.6,821.6z
	 M959.2,814.4c-3.8,1-7.6,0.1-11.4-0.7c-1.3-0.4-3-0.8-4.3-1.1c2.1,2.8,5.6,3.2,8.7,3.4C954.9,816.2,957.3,816.7,959.2,814.4
	L959.2,814.4z M633.7,569.1c0.4,0.8,1,1.4,1.8,1.5c2.5,0.6,5.3,1.1,7.9,1.1C640.1,571.3,636.7,570.4,633.7,569.1z M625.1,593.1
	c0.3,0.5,0.9,1.3,1.3,1.6c0.8-0.6,3-0.9,2.6-2.3C627.7,592.2,626.1,592.5,625.1,593.1L625.1,593.1z M624.8,471.1
	c-0.9,0.6-3.3,1.1-1.6,3.1c1.9,1.9,4.3,3.7,7.1,3.8c3.3,0,6.5-0.8,9.7-1.6c0.3-1,0.6-1.8,1.4-2.3c-0.4-0.3-1-0.8-1.3-1
	c-2.5,0.3-4.9,1.1-7.4,1.3C629.5,475,627,472.9,624.8,471.1z M604.1,486.1c3.3,2.6,7.8,0.6,11-1.8c-0.3-0.4-0.6-1.3-0.8-1.6
	c-2.4,0.3-4.3,1.9-6.5,2.3c-1.4-2.6,2.1-4.7,1.1-7.4C606.6,479.9,604.9,482.8,604.1,486.1z M613.9,497.4c2.4,0.4,4.4-1.3,6.3-2.6
	c-0.1-0.8-0.3-1.6-0.4-2.4c-2.1,0.9-3.9,2.5-6.2,2.1c0.1-1.5,0.4-3.1,0.4-4.5C610.5,490.4,609.8,497.5,613.9,497.4z M602.8,502.2
	c0.3-1.6,0.9-3.4,1.8-4.7c0-0.9,0-1.8-0.1-2.5c-3.5,1.9-4.4,6.5-3.8,10.2c3,1,4.8-1.9,6.9-3.5c-0.1-0.6-0.1-1.9-0.3-2.4
	C605.5,499.7,604.1,501.2,602.8,502.2L602.8,502.2z M617.1,509.6c-2,0.1-4,1.1-5.8,2.4l-0.3-4.3c-0.9,0.3-1.5,0.6-2.1,1
	c-0.4,1.8,0,3.5,0.4,5.2c0.1,1.3,1.8,1.6,2.8,1.3C614.3,513.8,616.7,512.4,617.1,509.6L617.1,509.6z M701.2,453.5
	c0.5-0.1,1.5-0.4,1.9-0.5c-2-3.5-4.3-7.3-7.7-9.8c-0.6-0.5-1.8-0.5-2.5-0.6C695.9,446,698.4,450.1,701.2,453.5z M699.8,457.9
	c-1.3-3.3-4-5.9-7.1-7.8c1.5,2.6,3.5,4.9,4.8,7.6c1.1,2.3,2.5,4.5,3.9,6.8C702.3,462,700.7,459.9,699.8,457.9L699.8,457.9z
	 M671.2,462.8c-2.4,1.8-4.9,3.8-4.9,7.2c3.7-0.9,5.7-4.8,9.4-5.2c2.3-0.4,4.7,0.3,7.1,0.3c0-1.1,0.9-2.6-0.4-3.4
	C678.7,460.6,674.5,460.6,671.2,462.8L671.2,462.8z M672.5,478.8c3.3-1.3,6.2-3.5,9.8-3.8c3.1-0.9,6.2,0.9,9.3,0.8
	c0.1-0.9,0.1-1.9,0.3-2.8c-5.3-2.6-11.8-2.1-16.9,0.9C673.2,474.7,672.1,476.6,672.5,478.8L672.5,478.8z M678,485.4
	c-0.9,0.9-1.4,3.3,0.8,3c2.4-1.6,4.5-3.9,7.6-4.5c3.4-1.3,7.1,0,10.2,1.4c0.4-0.3,1-0.8,1.4-0.9c0-0.5,0-1.5,0.1-1.9
	c-3.3-2.1-7.3-2.9-11.2-2.5C683.4,480.8,680.3,482.7,678,485.4L678,485.4z"/>
<path class="st1" d="M504.5,672.8c-0.9,17.4,2.3,34.8,8.7,52.4c3.5,8.1,6.4,16.1,11,23.8c4.2,7.7,9.6,14.5,15.1,21.3
	c3.8,4.2,7.4,8.7,12.3,11.6c-3.3,3.1-8.1,4.9-10.8,8.8c-3.9,4.7-3.7,11.7-0.9,17c4,7.3,11.5,12.2,19.5,13.6
	c-1.6,6,2.8,12.3,8.4,14.4c-2.5,4.4-4,9.3-3.1,14.4c1.1,4.7,3.4,9.4,7.4,12.3c5.3,3.7,12.3,4.8,18.6,2.6c1.3-0.6,2.6-1.1,3.9-1.6
	c0.3-0.9,0.5-1.5,0.6-2.3c-0.1-0.1-0.6-0.3-0.8-0.4c-3,0.8-6,2.3-9.3,2.1c-5.4,0-10.8-2.1-14.4-6.3c-3.7-4.5-4.2-10.7-2.5-16.1
	c0.8-2.5,2.5-4.4,4.8-5.4c1.3,2.6,3.1,6,6.5,5.9l1-2.5c-2.4-1.6-4.7-4.4-4.3-7.4c0.5-2.8,3.7-3.3,5.9-3.7c0.6-0.9,1.3-1.5,1.6-2.3
	c-5-2.8-11.3,1.6-12.1,6.9c-5.9,0.3-9.9-5.5-10.2-11c2.5,0,7.4,2.3,8.1-1.6c-2.5-1.8-5.9-0.6-8.6-2.3c-3.3,0.1-6.2-1-8.9-2.6
	c-5.8-2.8-10.5-8.2-11.2-14.7c-1-5,2.9-9.3,6.7-12.1c5-3.5,10.1-7.1,13.3-12.2c1.4-2.1,2-5.3,1.1-7.8c-1.1-2-3.7-2.3-5.7-3.1
	c2.9-1.4,6,0.3,8.1,2.5c-0.3,1.3-2.1,3.1-0.5,4.2c2.3,0.5,4.9-0.3,7.1,1c2.4,2.5,2.6,6.2,2.3,9.4c-0.3,4.3-2.5,7.9-4.2,11.7
	c-1.3,0-2.6-0.3-3.9-0.4c-0.9,0.8-2.9,1.6-1.9,2.9c2.6,1.4,5.7,0.9,8.2,2.5c1.3,1.4,2,3.3,3,5c-1.8,1-3.5,2-5.4,3
	c-0.4,1-0.6,2-0.9,3c2.1-0.9,4-2.3,6.3-2.5c1.4,0.1,2.8,0.5,4.2,0.8c0.5-1,1-2,1.4-3c-1.6-0.4-3.1-0.8-4.8-1c0.3-1,0.6-2.1,1-3.1
	c1.8,0,3.7-0.4,5,0.6c1.3,1.3,2.5,2.9,3.8,4.2c1.1-0.1,0.6-1.6,0.8-2.4c-0.1-3-2.6-6.2-5.8-6.3c-1.6-0.1-3.1,0.1-4.8,0.3
	c-1.3-1.1-2.6-2.3-4-3.1c2.4-2.6,3.1-6.3,4.2-9.6c1-3.8,0.8-7.9-0.3-11.8c1.3-2.1,1.6-4.8,3.9-6c1.9-1.5,4.5-0.8,6.8-0.4
	c0.9-0.9,1.4-1.8,2.1-2.5c-1.8-0.5-3.4-0.9-5.3-1.3c0.6-2.3,0.5-5.2,2.5-6.9c1.8-1.8,4.4-2,6.8-2.4c1.9,6.4,4.3,12.7,7.1,19
	c-2,0.3-3.8,0.8-5.7,1c-1.6-1.5-2.6-3.7-4.7-4.8c-1.9-0.6-3.5,1.3-3.3,3c0.4,6.2,1.3,12.3,3.4,18c2.1,5.7,4,11.5,6.8,17
	c2.9,7.1,6.2,14.1,11,20.1c1.4,1.5,3,3.5,5.3,2.5c-0.3-1.3-0.8-2.5-1.6-3.4c-6-6.9-8.9-15.6-12.8-23.9c-3.4-8.8-7.7-17.8-8.1-27.5
	c0.6,0.9,1.1,1.9,1.6,2.8c9.2-0.5,17.6-5.2,26.8-6.5c0.8-1.5,0.9-3.3,0.6-5.2c0,0,0.3-0.1,0.4-0.1c0.8,1.8,1.3,3.4,1.8,5
	c-2,1.5-2.6,3.9-2.6,6.4c-0.9,0.1-1.4,0.4-2.1,0.5c0.3,1.1,0.3,2.5,1.1,3.5c1.6-0.1,3.4-1.9,4.7-0.5c1.5,1.5,4.5,3,3.4,5.5
	c-1.1,3-4.8,3.5-6.5,6c2.1,0.4,4.8,0.3,6.7-1.4c2.3-1.6,2.8-4.4,3.5-6.8c3.1,4.5,5.7,9.3,7.9,14.4c-2.3,1-4.4,2.4-5.3,4.8
	c-1.3,3-3,6.5-6.7,6.8c-2.6,1-5.8-0.9-8.1,1.4c1,1.3,2.1,2.6,3.9,2.3c3.9-0.5,7.9-1.3,11-3.9c2-2.6,2.5-6.8,5.9-8.1
	c2.3-1.1,4.8,0.6,6.8,1.9c-1.1,1.5-3,1.9-4.7,2.8c-1.5,2.4-1.8,5.9-4.5,7.2c-2.6,0.9-5.9,0.6-7.6,3.4c4.2,1.1,9.1-0.1,12.1-3.4
	c1,0.3,2.1,0.6,3.1,1c2.1-1.4,2.8-3.7,2.4-6c-0.9-2.4,2.3-4,0.9-6.3c-1-2-1.3-4-1.1-6.3c3.1,0.5,5.5,2.5,7.8,4.7l1.9-3
	c1.4-0.4,2.9-0.8,4.3-1c-2.4,2-4.9,4-7.2,6.3c-1,1-1.5,2.5-1.6,3.8c1,5.7,2.9,11.2,5.3,16.5c2.9,6.5,5.5,13.1,8.4,19.4l-0.5,3
	c1.8-0.9,3.1-1.9,5-2.5c2.8,0.1,4.7,2.4,6.7,4.2h1.3c0.4-0.9,0.6-1.9,0.8-2.8c-0.8-0.6-1.4-1.3-2.1-1.8c2.8-1.5,5.4-3.7,8.6-4.2
	c3.3,0,5.5,2.6,7.8,4.7c0.4-1,0.6-2.3,0.9-3.3c-1-0.9-1.9-1.9-2.9-2.8c1.5-1.1,2.9-2.4,4.8-2.4c2.9-0.3,5.7,2,8.6,0.8
	c-0.3-1.8-1.6-2.9-3-3.7c1.1-2,2-4.4,4.2-5.7c2-0.9,4.4-0.4,6.7-0.5c2.6,4.9,5.5,9.8,8.8,14.4c-1.6,1.4-3.4,2.9-3.3,5.4
	c0.3,0.3,0.8,0.9,0.9,1.3c1.3-1.4,2.4-3.5,4.5-3.9c1.9-0.5,3.7,0.1,5.4,0.6c-1.8,1.9-4.8,4.3-2.5,7.1c1.3-1,2.4-2.5,3.7-3.3
	c1.9-0.9,3.9-0.9,5.9-1c0.6,1.6,1.1,3.3,1.8,4.9l0.4,0.9c0.6-0.4,1.3-0.9,1.8-1.3c-0.4-1.9-0.6-3.8-0.8-5.7c2.6,0,5.4,0,7.4-1.9
	c-2.5-2.6-6.5-1.1-9.4,0.1c-1.8,0-3.4,0-5,0.1c-0.6-1.8-2.1-3-3.8-4c3-5.2,7.1-11,13.6-11.1c4.5-0.8,8.4,2.1,11.1,5.4
	c0.3-0.9,0.6-1.8,0.9-2.5l-2.5-3.3l1.4-1.4c1-0.4,1.9-0.8,2.9-1.1c2.9,0.4,5.2,1.8,7.4,3.5c-1.8,1.3-4.4,3.3-3.4,6
	c1.9-0.5,3-2.6,4.9-3.3c2.8-0.9,5.5-1.1,8.3-1.9c0.3-0.6,0.5-1.9,0.6-2.5c-2-0.3-4.3,0.1-6.5,0.5c-3.3-3.1-7.3-5.9-12.1-5.7
	c-2.3-3.3-3.9-7.1-5.7-10.7c2.6-3.3,5.7-6,8.3-9.3c1.3-1.5,0.6-3.5,0.8-5.3c-1.8-1.3-3.5-2.4-5.8-1.6c-4.3,0.5-5.9,4.8-7.8,7.9
	c-3.7-5.9-6.7-12.2-9.6-18.5c-1.5-2.4-3.1-6.4-6.7-5.5c-0.5,2.8-0.1,5.5,0.6,8.3c-6,2.4-11.5,5.9-16.9,9.4c-3,2.6-5.3-3.3-8.6-2
	c-1.9,0.9-2.1,2.9-2.3,4.5c0.4,3.5,2.1,6.7,3.8,9.8c2.4,4.3,4,8.7,6.3,12.8c-3,0-6.2,0.9-8.4,3.1c0.4-2.3-0.9-3.8-2.5-4.8
	c1.4-1.5,2.8-3.1,2.6-5.4c-0.1-1.9-2.3-1.9-3.5-2.5c1.5-2.9,3.3-6.9,0.8-9.7c-3.4-0.6-5.4,2.8-7.9,4.7c-3.1,2.3-6.2,4.3-9.4,6.2
	l-1.9-4.2c1.9-2.5,5.9-4.9,4.3-8.6c-1.5-3.7-5.8-1.3-8.6-0.9c-2.4-2.9-6.2-4-9.8-4.2c-1.4,0.3-1.9-0.9-2.6-1.6
	c-3.3-0.5-6.4,0.3-9.2,1.9c-2.3-1.1-4.8-2.4-7.4-1.3c0-1.8-0.1-3.5-0.1-5.4c2.3-0.3,4.7-1.4,4.8-3.9c0.3-3.9,1.3-8.1-0.5-11.7
	c-0.9-2-3.7-1.8-5.4-0.8c-0.8-0.4-1.3-0.9-2-1.3c-0.4,0.3-1.5,0.8-2,0.9c-0.6,0.5-0.6,2.3-1.6,2.1c-0.8-0.9-1.3-2-1.8-3
	c-0.9,0.1-2,0.3-3,0.4c-0.9,4-0.6,8.3-1,12.5c-3.7-4.7-6.7-9.8-9.2-15.2c-1.8-3.1-1.9-7.2-4.8-9.7c-4,0.9-3.8,6-3.7,9.3
	c-4.8,1.1-9.3,2.8-14,4.2c-0.3-1.6-0.5-3.1-1.1-4.8c-2.5-6.2-4.4-12.5-6.3-19c-0.1,0.1-0.4,0.3-0.6,0.4c0.3-0.3,0.5-0.3,0.6-0.4
	c-1-3.8-1.8-7.9-2.4-11.8c-1.5-9.8-4.2-19.8-4.5-29.7c-0.3-7.1-0.5-14.1-0.4-21.2c0.3-6.3,5.5-10.7,9.1-15.5
	c-0.3-3.1-0.8-6.4,0.1-9.4c0.5-0.3,1.3-0.8,1.6-1c1.1,1.6,1.6,3.7,3.3,4.9c2.9,0.4,5.8-0.4,8.8-0.6c6.2-0.9,12.3,0,18.6,0.1
	c6.7,0.3,13.1-0.3,19.6-0.8c3.7-0.3,7.4,1.3,10.7-0.4c0.1-1.6,0.4-3.1,0.5-4.8c1,0.9,2.1,1.8,2.8,3c2.8,6.4,1.8,13.6,4,20.1
	c-3.1,0.8-6.4,1.8-9.4,3c-3.4,1.8-5.4,5.4-5.8,9.2c-4,1-8.3,2.5-12.6,3c-8.2,1.1-16.4,1.8-24.7,2.5c-1,0-2.3,0.3-3.3,1
	c1.1,2.6,3.4,5,5.9,6.8c2.4,1.6,5-0.8,6.9-2.5c1,0.9,2,2,3.3,2.5c2.6,0,3.9-2.4,5.2-4.2c1.6,0.9,3.3,2.3,5.2,1.9
	c1.6-0.3,2.5-1.8,3.4-3c1.3,1,2.4,2,4,2.4c2.4,0,3.9-2,4.9-3.9c0.9-0.1,2.1-0.4,3.1-0.5l1.3,6.5c-3.4,2-8.2,3.3-9.3,7.4
	c-1.3,5.8,0,12.1-2,17.8c-1.4,3.7-5.3,5-8.6,6.7c-5.5,2.6-12,1.3-17.9,2.3c0,0.6,0.1,1.8,0.1,2.3c5.9,0.3,12.1,0.5,17.8-1.6
	c4.5-1.6,9.3-3.9,11.2-8.6c2-5.3,1.8-11,2.1-16.5c0-3.3,3.4-4.8,5.9-5.9c4.4-1.8,10.1-2,13.7,1.4c1.8,1.3,2.3,3.5,1.6,5.4
	c-0.8,2.3-1.8,4.8-2.9,7.1c-1.5,2.6-5.4,2.6-7.1,5.2c-0.8,7.3-2.1,15.4-7.2,21.3c-2.3,3-7.1,3.1-8.3,6.9c3.8-0.4,7.6-2.1,10.1-5.2
	c5.4-6.3,7.2-14.5,8.8-22.4c2.3,3.1,6.7,2.8,9.8,1.1c0.1,7.3,1,14.6,2.9,21.7c1.5,5.8,2.3,11.7,4.3,17.4c2.5,8.2,4.7,16.5,8.6,24.2
	c-1.9,1.5-3.9,3-3,5.7c1.4-0.9,2.8-1.9,4.2-2.6c2-0.9,4,0.8,5.9,1.4c1.1,0.5,1.4-1.3,1.9-1.8c-0.9-0.9-1.8-1.8-2.6-2.5
	c1.3-3.1,3.1-6,6-7.8c4.2-2.9,9.6-1.4,13.9-0.1c0.1-0.8,0.5-1.8,0.4-2.6c-1.8-1.8-4.3-2-6.7-2.1c-5.4-0.5-11,2.4-13.9,7.1
	c-1,1.6-1.3,4.3-3.5,4.7c-6.8-16.1-11.2-33.1-14.2-50.4c-0.4-4.9-1.3-9.8-0.5-14.7c2.4-7.8,9.7-14,17.9-15.2
	c5.3-0.8,10.8,1.8,14.1,5.8c1.9,2.4,2.5,5.5,3.5,8.3c-3,0.6-6,4.2-9.2,2.3c-4-2.1-8.9,0.4-10.6,4.2c-1.1,5.3,1.3,10.1,1.6,15.2
	c-0.4,3.9-3.8,6.5-6.5,9.1c0.3,0.6,1,1.6,1.3,2c3.8-2,6.7-5.5,7.9-9.4c0.9-5.2-2.4-10.2-1.6-15.4c0.3-2.5,3.4-2.8,5.4-3.1
	c-0.4,1.6-1.3,3.1-0.8,4.8c2.4,5.9,2.9,12.5,1.6,18.8c-0.5,2-2.3,3.1-3.4,4.8c0.3,0.5,0.5,1.4,0.6,1.8c2.3-1.3,4.5-2.8,5.5-5.2
	c4.4-1.9,8.8-3.3,13.3-4.9c1.1,2.9,1.8,5.9,3,8.7c2.3,4.8,3.5,9.8,6.2,14.4c1.1,0,1.9-1.1,2.8-1.6c-3.3-6.7-5.8-13.6-8.3-20.5
	c2.9,1.6,5.9,3.5,9.3,3c6.4-0.3,9.3-9.6,5.2-14.1c-2.9-3.3-7.1-5.3-11.2-6.3c-1-3.7-2.3-7.4-3.3-11.1c-1.9,0.6-3.8,1.3-5.7,1.8
	c-0.8-2-1.3-3.8-2-5.7c-2.6-6.8-10.1-12.2-17.6-11.3c-4.3,0.5-8.2,2.5-11.8,4.5c-1.4-10.3-2.4-20.9-7.1-30.3c-1-2.3-3.7-2.3-5.7-2.8
	c-2.3-4.7-1.8-10.2-3-15.4c-1-3.1-0.8-7.1-3.8-9.2c-1.6-1.5-3.7-0.5-5.5-0.4c-0.4,1.6-0.8,3.1-1.1,4.8c-3.7-0.5-7.1,0.4-10.7,0.5
	c-6.5,0-13.1,0.5-19.5-0.4c-7.6-1-15.2-0.6-22.8,0.4c-0.6-1-1.1-2-1.6-3c2.3-2.9,5.7-1.8,8.7-2.5c1.1-3.1-2.9-2.8-4.9-2.8
	c1.5-1.5,2.1-3.4,2.9-5.3c1-2.5,3.4-4.2,5.9-5.2c2.3,0,4.3,0.6,6.2,1.9l-0.5,4c3.5-0.9,4.4-5.3,7.8-6.2c2-0.3,3.9-0.1,5.9-0.1
	c0-0.6-0.1-1.9-0.3-2.5c-1.6-0.4-3.1-0.5-4.8-0.8c1.1-2.8,2-5.9,4.8-7.6c2.9-2.4,6.7-0.9,9.8-0.3c0.3,4.3,0.6,8.4,1.4,12.6
	c-2.6,1.5-4.7,3.4-6.5,5.8c-4.9-2.5-12,1.1-12.3,6.7c2.9-0.8,5-2.8,7.8-3.8c2.8,0,4.7,2,6.7,3.4c-0.1,1.3-0.1,2.8-0.1,4.2
	c2.4-1.1,5-2,7.6-3.1c0.3-0.5,0.8-1.5,1-1.9c-1.6-0.3-3.4,0-4.8-0.8c-1.5-0.9-2.9-2.3-4.2-3.4c2.1-2,4.7-4.2,7.8-4.5
	c3.3,0.1,5.5,2.5,7.8,4.7c0.4-0.4,1.3-1,1.6-1.3c-0.9-1.9-2.3-3.4-3.5-4.7c4.9-4,11.1-7.6,17.6-6.3c4.2,1.3,9.1,2.6,11.2,6.8
	c2.5,4.7,2.3,10.2,2.6,15.4c0.8-0.6,1.8-0.9,2.5-1.6c0.6-1.5,0.6-3.1,0.8-4.8c4,0.1,9.1,1.4,10.1,5.9c1,1.9-1.4,4.7,1.4,5.4
	c0.9-0.8,1.5-1.6,2.1-2.5c0.3-1.6,0-3.1-0.1-4.8c2.6,0.1,5.5,0,7.9,1.3c3.1,1.5,4.7,4.7,6.4,7.4c-2.8,1.3-4.3,3.8-5.2,6.5
	c-3-2.4-7.1-4.3-10.8-2.3c-1.8-1.4-3.5-2.9-5.9-3c-2.3-0.5-4.3,0.9-6.3,1.9c0,0.8-0.1,1.8,0,2.6c2.5-0.1,5-2.3,7.4-0.6
	c3,1.3,3.1,4.7,3.3,7.4c-1.3,0.6-3.1,0.6-3.9,2c-0.8,1.3-0.3,2.9-0.4,4.2c1.5-0.8,2.9-2,4.5-2.4c2.3,0,4.5,0.5,7.1,0.5
	c-0.1-0.9-0.1-1.9-0.1-2.8c-1.1-0.4-2.6-0.6-3.9-0.9c0-2-0.1-3.9-0.4-5.9c1.4,0,2.9-0.5,4.2-0.1c2,1,3.7,2.6,5.5,3.8
	c1.3-3.7,4.2-6.8,7.9-7.6c2.1-0.6,4.2-0.3,6.3,0.1c0.4-0.9,0.5-1.9,0.8-2.8c-2.1-1-4.5-1.5-7.1-1.6c-1.5-2.8-2.9-5.9-5.4-7.8
	c-2-1.1-4.2-2.4-6.5-2.8c-2-0.5-4,0.6-5.9,1.4c-1.4-1.9-2.8-3.5-4.5-4.9c-0.9-4.9-0.6-9.7-0.6-14.6c0.3-2.4,0.3-5.3,2.5-6.5
	c3.8-2.5,8.8-3,13.1-1.8c2,0.5,4.5,1.5,4.9,3.8c1,4,0.9,8.2,1.4,12.1c0.3,3.5,0.8,7.1,0.3,10.5c-1,1.4-2.6,2.4-3.3,4.2
	c1.1-0.6,2.4-1.3,3.7-1.9c0.3,1.6,0.8,2.9,2.5,2.8c0.1-1.1,0.1-2.4,0.3-3.7c5-1.4,9.8,0.8,13.9,3.4c-0.4-1.3-0.8-2.8-1-4
	c-4-2.3-8.8-3.3-13.3-2.1c-0.1-4.5-0.5-8.8-0.8-13.3c-0.3-4-0.3-8.4-2.8-11.8c-1.5-1.5-3.7-1.9-5.7-2.6c-0.3-2.1-0.5-4.5-0.6-6.8
	c0-2.8-0.3-5.4-0.4-8.2c3.5-1.8,5.4-5.3,8.1-8.1c3-2.6,7.2-0.6,10.2,0.8c3.7,1.5,6.5,4.5,6.9,8.4c-1.8-0.3-3.5-0.9-5.3-1.3
	c-1,1.3-1.8,2.8-2.9,3.9c-3.8,0.3-7.7-0.8-11.5-0.1c-1.9,0.4-3.3,1.9-4.9,2.9c0.3,0.3,0.8,0.9,0.9,1.3c4.8-2.1,9.8-1,14.7-0.9
	c2.5,0,3.9-2,4.5-4.2c1.4,0.4,2.8,0.9,4.2,1c1-0.3,1.9-0.9,2.8-1.4c-0.3-3.3-0.9-6.5-3.4-8.9c-3.8-3.5-9.2-5.4-14.4-5.3l-0.1-1.6
	c0,0.3,0.1,0.8,0.1,1c-4.7,0.9-6.5,6-9.8,8.9c-0.4-3.1-0.4-6.3-0.8-9.4c-0.9-7.9-0.4-16-1.3-24.1c-0.4-2.9-1.5-6.2,0.4-8.8
	c1.6-2.9,4.7-6.5,1.9-9.6c-3.3,1.8-6.9,3.8-8.1,7.4c-8.4-2.8-16.9-5.3-25.7-6.5c-3.7-0.5-6.9-1.4-10.5-1.9c0.3-1.1,0.3-2.4,0.1-3.7
	c7.3,2.3,14.9-0.3,21.7-2.8c3.9-0.4,6.3,3.7,9.4,5.3c2.1,0.9,3.9-1,4.9-2.6c-0.1-1.4-0.5-2.9-0.9-4.2c1.3,0.4,2.6,1,3.9,1.4l2.5-1.9
	c0-1.9-0.4-3.5-1.1-5.2c2.1,0.6,5.2,1.9,7.2-0.1c2-1.4,0.5-3.9-0.5-5.5c-3.4-4.2-8.8-6.4-14.1-7.4c-5.3-0.8-10.3,1.9-14.5,4.7
	c-5.8,4-13.7,5.8-20.5,3.1c0.1-4.3,0.6-8.7,1.4-12.8c2,0.9,4.3,1.1,6.5,0.3c0.5-0.4,1.4-1,1.8-1.3c1.5,1.5,3.4,3,5.7,2.3
	c3.5-0.5,4.4-4.3,6.4-6.7c4.4-1.6,9.6-2.6,12.8-6.5c4.2-4.7,7.2-10.8,6.3-17.1c-1.9-17.5-11.5-32.9-23.3-45.2
	c0.9-5,1.5-10.7-0.9-15.6c-1.3-1.1-3.3-2-4.5-0.8c-2.5,2.3-3.5,5.8-5.5,8.6c-2.3-1.3-4.5-2.4-7.1-3.3c-0.1-3.4,0.3-6.9-1.4-10.1
	c-1.1-2-4.2-1.5-5.2,0.3c-1.4,2-3.1,4.4-2.8,7.2c-3.5-0.9-7.1-1.3-10.5-1.6c-0.3-3.5-1.8-6.9-3.7-9.9c-1-1.8-3.7-1.9-4.5,0
	c-1.6,3-1.8,6.7-2.3,9.9c-2.9,0.6-5.8,1.4-8.7,2.3c-1.9-3.1-5.4-5.7-9.3-5.4c-3.4,3.9-2,9.3-0.8,13.9c-1.5,2.3-3,4.3-4.7,6.4
	c-2.3-0.6-4.9-0.9-7.2,0.1c-1.5,3.7-0.5,7.3,0.4,10.7c-0.8,1.5-1.6,2.9-2.4,4.5c-1.8-0.4-3.4-0.6-5.2-0.8c-2.6,3.4-2.1,8.2,0.4,11.5
	c-6,16.1-9.9,32.9-12.6,49.9c-1.5,7.6-2,15.1-2.8,22.8c-4-2.6-7.7-6.4-12.8-6.3c-2.5,1.1-4.5,3.4-5.8,5.9c-3.3,6-6,12.7-6.9,19.6
	c-2.8,11.5-1.8,23.4,0.4,34.9c-6.2,3.9-12.3,7.8-18.8,11.3c1.8,5.7,5.2,11,7.4,16.6c-3.9,0.6-7.6,1.8-11.1,3.4
	c-1-3.8-0.1-8.7-3.5-11.2c-2.3-1.3-5.2,0-7.1,1.6c-3.3,2.5-4.5,6.8-5.3,10.6c-3,0.4-6.2,0.8-8.7,2.5c-3.9,2.3-8.6,5-9.2,10.2
	c-0.5,6.4,2.6,12.5,6,17.6C505.3,667.9,504.6,670.3,504.5,672.8L504.5,672.8z M716.8,734.1c1.3,1,1.8,2.6,2.5,3.9
	c-0.4,0.8-0.8,1.6-1.1,2.4c-2.3-0.5-3.4-3.1-3.9-5.4C715.2,734.4,716.1,734.1,716.8,734.1z M718.2,730.4c-1,0.4-2,0.5-3,0.8
	c-0.4-1-0.5-2.3-0.8-3.4c0.6-0.3,2-0.5,2.6-0.6C717.4,728.2,717.8,729.5,718.2,730.4z M728.5,750.6c-2.6,0.9-5-0.8-7.3-2
	c1.6-0.8,3.3-1.9,4.3-3.5c-0.3-2.4-1.5-4.7-2-7.2c2.5,0.8,4.8,2.3,7.1,3.9c1.4,0.9,2.3,2.3,1.9,3.9
	C731.8,747.9,731,750.5,728.5,750.6L728.5,750.6z M707.1,735.3c1.6-0.6,3.3-1.1,4.9-1.9c-0.4,3.9,1.4,8.8,5.5,9.8
	c1.4,0.6,2.8-0.6,3.9-1.4l0.8,2.5c-3.1,0.8-5.8,2.6-8.8,3.7c-3.7,1.3-7.4,2.4-11.1,4c0.4-3.8,0.5-7.7-0.4-11.5
	c-0.1-2.6-1.8-4.9-1.8-7.4c1.6-0.9,3.5-1.1,5.3-1.6C705.9,732.9,706.4,734,707.1,735.3L707.1,735.3z M707.2,730.6
	c1.6-0.6,3.3-1.3,4.9-1.8c-0.1,2.1-2.5,2.3-4.2,3.1L707.2,730.6z M621.4,700.1l-2.4,3c-1.1-0.8-2.4-1.6-3.5-2.5
	C617.3,700.4,619.3,700.1,621.4,700.1z M624.5,699.8c1.4-0.4,3-0.6,4.5-0.6c-0.3,1.4-1.3,2.6-2.1,3.7
	C625.8,702,625,700.9,624.5,699.8L624.5,699.8z M637,698.3c-0.1,0.8-0.3,1.6-0.4,2.4c-1.1-0.5-2.1-1-3.1-1.6
	C634.6,698.6,635.8,698.4,637,698.3L637,698.3z M646.4,696.5c-0.6,1-0.9,2.3-1.6,3c-1.4,0.3-2-1.1-2.8-2
	C643.4,697,645,696.7,646.4,696.5L646.4,696.5z M657.5,703.8h-1c-0.6-5.2-3.4-10.2-1.8-15.4C656,693.5,656.1,698.8,657.5,703.8z
	 M656.7,686.4c4.3-2.3,9.3-3.5,14.5-4c2,2.3,2.9,5.3,3.8,8.1c2.5,7.6,2.8,15.2,4.2,23c-3.7,3.3-6.8,7.1-7.7,11.8
	c-2,1.1-4.2,2.6-6.7,1.9c0-0.4,0-0.9-0.1-1.3c2.4-1.8,3.9-4.4,4.7-7.2c1.5-3.1,1.6-6.9,0.4-10.2c-2-3-5.4-4.9-9.1-4.9
	c-1.4-4.2-2-8.6-2.5-12.8c-0.3-1,0.3-2.9-1.4-3.3L656.7,686.4L656.7,686.4z M745.1,806.9c-0.3-0.5-0.8-1.5-1-1.9
	c1.4-2.8,2-5.9,4.5-7.8c1.3-1.1,3.3-1.3,4.7-0.5c0.5,1.1,0.3,2.5-0.8,3.3C750.3,802.1,747.3,803.9,745.1,806.9z M709.4,812.3
	c-2.3-5.3-5.8-10.1-7.1-15.9c1.6,0.5,2.9,2.3,4.2,3.3c6-1.9,10.8-6.8,16.6-9.4c2.4-1.3,4.9-1.9,7.2-3.5c0-2-1.5-3.7-1.6-5.7
	c2.3,2.4,3.5,5.9,4.8,8.9c-1.5,0.5-4,0.9-3.9,3c0.1,1.6-1.1,2.4-2.4,2.8c0.3,1,0.5,2.3,0.6,3.3c0.5,0,1.6-0.1,2.1-0.1
	c0.3-0.3,0.9-0.8,1.3-1c0.9,0.8,1.9,1.3,2.8,1.9c0,0.9,0,1.8-0.1,2.8c-0.5,0.3-1.3,0.8-1.6,1c2.1,1.4,4.9-0.6,5.2-2.9
	c-0.3-1.4-0.6-3-1.6-4.2c-1.1-0.8-2.9-1.1-3.5-2.5c1.4,0.1,2.8,0.8,4,1.1c5.2,8.6,9.2,17.5,14,26.2c-0.8,0.9-1.6,2-2.4,3
	c-4.3-2.4-9.6-1.8-13.7,0.1c-5,2.4-8.6,7.3-9.8,12.6c-0.4-0.1-1.5-0.4-2-0.5C717.8,828.7,713,820.8,709.4,812.3L709.4,812.3z
	 M678,804.4c-0.6-0.9-1.3-1.9-1.9-2.8c1.1-1.5,2.9-1.6,4.5-1.9C680.8,801.6,679.4,803.1,678,804.4z M698,829.3
	c-2.9-0.3-5.8,0.8-8.1,2.1c2.5-6.9,1.8-14.6,0.5-21.7c1.8-1.5,3.8-2.6,5.7-4c-0.6,1.8-1.8,3.4-2.9,4.8c0,0.5-0.1,1.4-0.1,1.8
	l1.1,1.1c0.8,0.4,3-0.4,3,0.9c-0.9,1.4-2.1,2.8-3.4,3.9c-0.4,2.1,1.6,2.9,3.3,3.9c-0.3,2.1-3.9,4.4-1.1,6.7c0.9-0.9,1.9-1.4,2.8-2.1
	C698.5,827.3,698.2,828.7,698,829.3z M682.6,814.9c2-1,3.8-2.5,5.9-3.3c0.6,5.4,1.3,11.1,0.3,16.5C687,823.7,684.8,819,682.6,814.9z
	 M667.1,838.7c-2.4-3.7-3.7-8.2-5.5-12.3c2.3-0.3,4.3-0.8,6.5-1c2.6-1.4,3.1-4.7,5.7-6.3c4.4,4.2,4,10.7,7.1,15.7
	c-2.5,1.3-5,2.6-6.3,5.2C672.2,838.5,669.6,837.9,667.1,838.7L667.1,838.7z M662.7,797.4c3.4-1.1,8.1,0.1,9.7,3.7
	c2.6,5,4.9,10.5,7.4,15.7c3.1,5.5,5.4,11.6,8.3,17.3c-1.9-0.4-3.8-0.4-5.8-0.1c0.5-0.9,0.9-2,0.5-3c-0.6-3.9-2-7.4-3.7-10.7
	c-1.4-2.1-3.5-5.3-6.5-4c-2.6,0.8-3.4,3.5-5,5.5c-1.8,1.3-4.2,2-6.3,0.9c-0.3,0-0.9,0.1-1.3,0.1c-2.4-5.8-5-11.5-6.2-17.6
	C655.9,801.8,659.1,798.9,662.7,797.4L662.7,797.4z M641.8,809.2c-0.1-1.1,0.3-2.4,0.9-3.4C643.1,806.8,643.3,809.4,641.8,809.2z
	 M642.6,796.5c-1-0.3-2.5-0.1-2.5-1.5c-0.4-3.5,0-7.3-0.8-11c-1,0-2,0-3,0.1c-0.8-1.9,0-3.9,0.1-5.9c0.6,1,0.8,2.4,1.6,3.1
	c1,0.1,2-0.6,3-1c0.3-1.6,0.6-3.3,1-4.9c0.5,2.1-0.1,4.5,1.3,6.3c3.3-1.3,3.1-4.8,3.9-7.6c0.8,3.3,0.6,6.8-0.5,9.8
	c-1.4,0.5-4.2,0.6-4.2,2.8L642.6,796.5L642.6,796.5z M636.2,786.7c1.1-0.1,1.5,1.9,0.4,2S634.8,786.7,636.2,786.7z M625.9,777.6
	c-1.5-1-3.4-2.1-4-4.2C624.1,773.6,625,775.8,625.9,777.6z M519.5,644.1c-5.5,4.5-9.6,10.5-12.1,17c-1.8-2.5-3.4-5.4-4.2-8.4
	c-0.4-2.9-0.1-6.3,2.3-8.6c3.5-2.9,7.7-5.8,12.6-5.4C518.5,640.5,519,642.2,519.5,644.1z M528.4,626.2c0.9,3.3,1.4,6.5,1.8,9.8
	c-2.8,1.5-5.3,3.4-7.8,5c-1.8-4.4-0.9-9.9,2.4-13.6C525.7,626.5,527.2,626.1,528.4,626.2z M561.7,628.7c2.1,1,2.8,4.2,2.3,5.7
	c-0.1,0.1-0.6,0.3-0.8,0.4c-4.3-3.8-10.3-4.4-15.7-4.8c-2.3-5.2-4.4-10.1-6.8-15.2c5.2-3.1,10.3-6.7,15.6-9.9
	c0.6,3.7,1.5,7.1,2.5,10.5c-1.6,1-3.4,1.3-5.2,1.9c-0.9-1.1-1.5-2.5-2.8-3c-1,2,1.9,4.3-0.4,5.4c-1.9,0.1-2-2.6-2.8-3.8
	c-0.9,0.3-1.4,0.5-2.1,0.8c0.5,2.3,2,4,2.4,6.3c1.4,1.5,2.4,3.4,3.3,5.3c0.1,1,1.3,0.8,2,0.9c0.5-1.1,1.8-1.6,2.8-1.9
	c0.8,1.6,1.6,3.5,3.8,3c-0.8-1.3-1.5-2.8-2-4.2c0.5-1.1,1.1-2.4,1.6-3.4c-1,0.3-2.3,0.5-3.3,0.6c-0.4-1-1-2.3-1.4-3.3
	c1.1-1.4,2.5-2.8,4.2-3.8C559.7,620.4,562.3,624.5,561.7,628.7L561.7,628.7z M552.4,626.1l-1.6-3.3c0.9-0.6,1.5-1.1,2.3-1.6
	c0.6,1.1,1.3,2.3,1.6,3.5C554,625.1,553.2,625.6,552.4,626.1L552.4,626.1z M609.5,587.6c1.9,4.8,4.2,9.3,5.5,14.4
	c-1.9,1.4-3.3,3.3-4.5,5.2c-1.5,0.9-3.1-0.4-4.8-0.8c-3.7-1.3-7.8-1.4-11.5-3c1.6-2.9,3.5-5.7,4.9-8.7c-3.8,1.4-4.7,5.8-7.4,8.3
	c-4.8-0.3-9.6-1.3-14.4-0.4c0.1-2.5,2-4.7,2.6-7.2c-3.3,1.3-3.8,5.4-6.5,7.6c-3.9,0.3-8.1,0.6-12.1,0.8c-0.3,0.9-1.9,2.1,0.1,2.5
	c3.8,0.3,7.6-0.5,11.3-0.6c-2.6,6.4-5.4,12.7-7.4,19.3c-2.5-6.9-4.2-14-5.8-21h1.4c2.4-2.3,4.5-4.9,7.6-6.3c4-2,8.1-4.5,12.6-5.9
	c4.7-2,9.6-2.5,14.5-3.4C600.3,587.8,604.9,586.1,609.5,587.6L609.5,587.6z M603.2,583.8c-2.3,0.8-4.7,1.3-7.1,1.4
	c-0.1-0.3-0.1-0.5-0.1-0.6C598.3,584,600.7,583.8,603.2,583.8L603.2,583.8z M565.4,625.2c1.4,0.3,2.9-0.5,3.5-1.6
	c2.5-5.9,4-12.3,7.1-18.1c4.8-0.4,9.4-0.4,14.2,0.6c-0.5,1.1-1,2.4-1.6,3.4c-3.4,5.7-5.4,12-8.2,17.9c-4.9-0.4-9.7-0.3-14.6-0.5
	C565.7,626.2,565.6,625.6,565.4,625.2L565.4,625.2z M592.3,606.7c5.7,0.6,11.2,2.1,16.5,4.5c-1,2-2.3,4-3.3,5.9
	c-0.3,1.1-0.6,2.3-1,3.4c-0.1,0.3-0.6,0.8-0.8,1c-0.8,0.8,0,2-0.8,2.8c-1.4,1.6-2,3.7-2.5,5.7c-5.4-0.9-11-1.8-16.4-2.6
	c0.8-3,2-5.8,3-8.7C587.7,614.4,590.6,610.7,592.3,606.7L592.3,606.7z M583.1,630c5.7,0,11.2,1.6,16.4,2.4c-0.3,1.9-0.6,3.7-1.1,5.5
	c-0.6,1.8-1.1,3.4-1.6,5c-1.4,0.4-2.9,0.9-4.3,1.3c-4-1.9-8.6-2.1-12.8-2.8C580.3,637.6,581.8,633.8,583.1,630L583.1,630z
	 M576.2,641c-1.9-0.6-3.7-1.3-5.5-1.6c0.1,0.8,0.3,1.8,0.4,2.5c-1.9-1.8-3.8-3.4-5.7-5.3c0.8,0,1.6,0.1,2.4,0.3
	c1.4-2.3-0.6-4.8-1-7.2c4.5,0,8.8-0.1,13.3,0C578.7,633.4,577.7,637.2,576.2,641z M558.8,600.3c0.1-1,1.4-1.9,2.3-1.6
	C561.9,599.8,559.5,601.8,558.8,600.3z M557.3,578.2c0-3.3,0.5-6.4,1.3-9.6c2.1-0.1,4.5-0.3,6.8-0.4c-1.8,3.3-3,6.7-4.3,10.1
	C559.8,578.4,558.5,578.2,557.3,578.2z M569.4,567.5l-0.4,1.8c1.9-1.9,5-0.6,7.4-0.8c-1.1,3.4-3.3,6.5-4.3,10.2
	c-2.4-0.3-5-0.4-7.6-0.4l1.9-5.7C567.1,570.7,567.5,568.6,569.4,567.5L569.4,567.5z M573.9,547.4c2.9,2.6,6.4,4.4,9.1,6.4
	c8.9,7.2,16.1,16.1,21.5,25.9c-6.8-0.5-13.3,1.8-19.9,3.5c-9.6,2.1-18.5,6.7-26.6,12.3c-0.8-5-1.4-9.9-1-15h3
	c-0.5,1.9-1.1,3.8-1.3,5.8c3.1-0.3,3.3-3.7,4.5-5.9l7.9-0.3c0,1.5-1.6,4.4,0.8,4.5c2.1-0.9,1.9-4.5,4.9-4.2
	c-0.5-0.6-1.8-1.5-1.3-2.5c1-3.1,2.3-6.4,3.5-9.7c2,0.3,3.8,0.1,5.7-0.1c-1.5-0.9-3-1.5-4.7-1.9c1.3-2.6,2-5.3,2.5-8.1
	c-2.6,2-4,5.2-5.9,7.7c-2.3-0.1-4.5-0.3-6.9-0.4c0.4-1.4,0.6-2.6,1-3.9c-0.4-0.6-0.5-1.1-0.8-1.6c-1.1,1.9-2.5,3.7-3.9,5.4
	c-2.3-0.3-4.7-0.3-7.1-0.1c0-2.8,1-5.4,1.9-7.9c6.5-0.6,13.3-0.1,19.9,0.1l0.4-0.6c-2-1.6-4.9-1.6-7.4-2c-3.8,0-7.6-0.3-11.2-0.1
	c0.6-3.8,2.8-7.4,5.8-9.9C570.4,545.6,572.2,546.1,573.9,547.4z M599.6,468.8c-0.8,1.4-1.4,2.9-2.1,4.2c-0.5-1.8-0.8-3.5-0.9-5.4
	L599.6,468.8L599.6,468.8z M605,452.5c1.1-0.4,2.1,0.3,3.1,0.4c-0.6,1.6-1.8,3.3-2.8,4.5C605.1,455.7,604.4,454.1,605,452.5z
	 M616.3,433.2c2.6-0.5,4.3,2.4,5.9,3.7c-2.1,1.3-4,2.6-5.8,4.5C616.3,438.6,615.8,436,616.3,433.2L616.3,433.2z M641.3,432.8
	c-1.6,0-3.1,0.1-4.8,0c-0.4-2.8,0-5.8,1-8.3C639.1,427.1,640.1,430,641.3,432.8z M661.1,435.6c-2-0.4-3.8-0.8-5.7-1
	c1.4-2,2.6-4,3.7-6.3C660.8,430.3,660.5,433.2,661.1,435.6z M679.5,446.5c-2.1-1.8-4.4-3.7-6.9-5c1.8-2.8,2.5-6,4.8-8.4
	C680.5,436.6,679.7,442,679.5,446.5L679.5,446.5z M676.8,519.6c-0.1-0.4-0.6-1.3-0.6-1.9c2.1-0.4,4.2-0.6,6.4-0.8
	c-0.6,1.3-1.4,2.6-2.5,3.7C678.8,521.3,677.6,520.3,676.8,519.6L676.8,519.6z M665.9,516.3c2,0.6,4.3,0.9,6.5,1
	c0,0.3,0.1,0.6,0.1,0.8c-0.3,0.8-0.6,1.3-1,1.9c-1.3,0.3-2.8,0.6-3.8-0.4C666.9,518.7,666.4,517.6,665.9,516.3z M665.3,547.6
	c-0.6-3.1-1-6.2-1.4-9.2c4.5,2,9.6,1,14.2-0.3c5.4-2.1,10.1-6.5,16-7.6c4-0.9,7.8,0.6,11.2,2.3c2.5,1.6,5.8,3,6.3,6.3
	c-3.1-0.9-6.5-2.3-9.9-1.3c-0.4,2.5,2.1,4,3.3,5.9c-3.1-0.3-6.3-2-9.4-1c0.3,2.9,2.8,4.5,4,7.1c-2.4,0.3-3.5-2-5.2-3
	c-2.1-1.5-4.7-3.3-7.4-2.3c-4.7,1.5-9.3,3.4-14.5,3.4C670.1,548,667.8,547.3,665.3,547.6L665.3,547.6z M662.4,521.7
	c-1.5,5.3-2,10.8-2,16.4c0.1,4.4,1.3,8.6,1.8,13.1c-3.1-3.3-6.8-6.4-11-8.4c-1.8-0.3-4.7,1.1-3.7,3.4c1.9,4.4,5.2,8.2,8.1,12.1
	c-1.6,1.8-3,3.5-4.3,5.7c-2.1-0.3-4.2-0.4-6.2-1c-5-1.4-10.2-1.8-15.2-3c-1.5-0.5-3.1-0.8-4.8-0.4c-4.9,1-9.8,0.6-14.7,1.4
	c0.4,4.5,1.3,9.1,1.6,13.7c0.5,3.7,0.4,7.3,1.3,10.7c0.6,2.3,0.9,4.5,1,7.1c-1.5-3.7-2.8-7.6-4.8-11.1c-3.5-5.3-7.3-10.7-11-16
	c-4.5-5.4-9.6-10.7-15.5-14.7c0.6-7.7,1.4-15.4,2.8-22.9c3.1-20,7.9-40,16.5-58.4c2.8-6.4,6.8-12.1,10.6-17.9
	c2.5-3.5,4.9-7.1,8.1-9.9c1.6-1.3,2.8-3,4.8-3.8c4.3-1.6,8.8-2.6,13.3-2.4c16-0.3,32.1,6.4,43.2,18.1c9.6,10.3,17.1,22.8,19.3,36.9
	c0.5,4.3,1.1,8.9-1.1,12.8c-1.3,2.4-3,4.4-4.9,6.3c-2.9,2.6-6.9,3.5-10.6,4.7c-1.9,1.4-4.5,2.6-6.7,0.8H678
	c-5.3-0.3-10.6-0.8-15.7-2c-12.7-2.4-22.7-11.1-33.4-17.9c-0.8,0.3-1.3,0.6-1.9,1c0.1,0.5,0.4,1.4,0.5,1.8c-1.3,2.9-1,6.4,1.1,8.8
	c1.6,1.1,3.7,0.5,5.5,0.1c0.8,2.4,2,4.5,3.3,6.7c2,0.1,4,0,5.8-1.1c1.1,2.1,2,4.8,4.5,5.7c1.9,1,3.8-0.1,5.4-1.1
	c1.4,2.4,3,4.7,5.5,5.7C659.9,522.5,661.3,522,662.4,521.7L662.4,521.7z M662.5,515.9c-0.5,1.4-1.5,2.8-2.3,4.2
	c-2.5-0.9-3.8-3.4-4.5-5.8C658,514.8,660.3,515.3,662.5,515.9z M649.7,515.7c-2.6-0.4-3.3-3.3-3.7-5.4c2.4,0.5,4.3,1.8,6.3,2.9
	C651.5,513.9,650.8,515.2,649.7,515.7z M642.8,508.1c-0.6,1.5-2.1,2.4-3.4,2.9c-1.5-2-2.1-4.3-2.5-6.8
	C638.9,505.3,641,506.5,642.8,508.1z M633.6,502.1c-0.4,0.9-0.6,1.8-1.1,2.5c-2.9-0.5-3.3-3.7-3-6.2
	C630.8,499.5,632.3,500.7,633.6,502.1z M705.3,564.6c-0.4-2.6,1.6-4.9,3.7-6.2C708.1,560.7,706.7,562.8,705.3,564.6z M646.8,641.2
	c-1.4-5.8-1.6-11.7-2.1-17.5c-0.4-18,0.8-36.4,7.4-53.4c1.6-3.9,3.5-7.9,6.5-11c-1.3-5.2-5.5-8.6-7.8-13.3c4.8,1.9,7.8,6.3,11.2,9.9
	c1.4,1.8,4,0.9,6,1.4c7.4,1.8,15.1,2.4,22.3,4.7c4.8,1.1,9.3,2.9,14.1,4.2c0,5,0.9,9.8,1,14.7c0,5.2-0.1,10.5,0.3,15.7
	c-1.1-1.1-2.5-2-3.9-2.4c-0.3,0.5-0.5,1.4-0.6,1.8c1.3,1.5,2.8,3.3,5,2.8c0.5,8.7,1.1,17.5,1.9,26.2c-3.4-0.1-7.1,0.3-10.2,1.6
	c-2.6,1.4-5.4,3.5-5.7,6.8c-0.4,5.4-0.4,11.1,0.4,16.5c-1.9-0.3-3.8,0-5.4,1c-1.5-4.9-2.3-10.6-6.8-13.7c-3.3-2-7.1-3.5-10.8-3.9
	c-6.9-0.6-13.2,3.4-18.3,7.9C649.9,642.2,648.2,641.3,646.8,641.2L646.8,641.2z M642.1,626.5c-1.5-0.3-3-0.8-4.7-0.8
	c-2.4-15.9-4.9-31.6-6.2-47.5c-0.4-5-1.4-9.9-1-15c3.1,0.4,6.4,1,9.7,1.4c3.3,0.5,6.4,2,9.7,1.9c-0.5,3.9-2.3,7.3-3,11
	c-2.3,8.4-3.7,17.1-4.5,25.8c-1.8-0.4-3.4-0.8-5.2-0.9c-0.9-0.4-2,0.4-1.8,1.4c2.1,0.9,4.5,0.5,6.9,0.6c-0.1,2.9-0.3,5.8-0.5,8.6
	c-0.9-0.1-2-0.3-3-0.3c0.1,0.5,0.1,1.3,0.3,1.6c1,0.3,1.9,0.6,2.9,0.9C641.8,618.9,642,622.8,642.1,626.5L642.1,626.5z M624.4,620.2
	c-2.3-5.2-3.1-10.7-5.3-15.7c-2.9-6.4-2.5-13.6-4.2-20.3c-0.9-6.9-1.5-14.1-2.5-21c5.2-0.3,10.1-0.9,15.1-1.6
	c0.5,3.9,0.1,7.9,0.9,11.8c1.1,5.9,0.9,12,1.9,17.9c0.5,3.7,0.4,7.4,1.4,11.1c-2.1-0.5-4.3-0.8-6.2,0.5c1.1,2.1,3.7,1.8,5,0.1
	c0.5,0.4,1,0.6,1.4,1c0.3,7.2,2.1,14.4,2.9,21.5c-2.6,1.1-4.9,2.9-7.2,4.8C626.5,627,625.8,623.5,624.4,620.2L624.4,620.2z
	 M616.6,636.2c-4.3-2.1-8.8-3.3-13.1-5.7c1.5-6.4,3-13.1,6.5-18.8c1.9,0.3,3.5,1.3,5.2,2c0.5-0.3,1.4-0.8,1.8-1
	c-0.6-2.4-3.4-2.4-5.2-3.7c0.9-2.3,2.3-4.5,3.3-6.8c3.4,7.2,4.9,15,7.9,22.2c1,4.2,3.1,8.2,2.9,12.7c-1.1,1-2.3,2.1-3.7,2.3
	C620.2,638.7,618.5,637.2,616.6,636.2L616.6,636.2z M599.3,643.6l1.3-3.5c0.9-2.1,1.3-4.3,2.3-6.3c3.3,0.9,6.4,2.6,9.7,3.8
	c-0.9,0.4-1.4,0.8-2.1,1.1c-2.8,1.1-4.9,3.5-6.3,6.3C602.5,644.5,601,644,599.3,643.6L599.3,643.6z M593.7,657
	c-2.3,3.5-1.4,7.9-1.5,12c-7.2-8.4-12.6-18.1-20.3-26.3l3.3,0.8c0.5,0.6,1,1.3,1.4,1.8c0.9-0.5,1.8-0.8,2.8-0.9
	c3.7,0.5,7.2,1,10.7,1.9c-1.8,2.3-3.7,4.4-4.7,7.1c0.3,0.3,0.9,0.6,1.3,0.8c2.4-1.6,3.9-4,5.8-6.2c0.8,0.1,1.6,0.3,2.4,0.4
	c0.4-0.8,0.8-1.3,1.1-1.9c2.3,0.3,4.4,0.9,6.5,1.9c0.4,1,0.5,1.9,0.8,2.9c-1.6,0.6-2.9,2-3.7,3.7C597.3,654.7,594.9,654.8,593.7,657
	L593.7,657z M523.1,737.9c-5.5-12.7-11.3-25.4-14-38.9c-1-7.2-2-14.5-1.6-21.7c0.1-11.2,5.5-21.9,13.9-29.3
	c5.7-5.8,12.5-10.7,20.5-12.3c5.2-1.5,10.3-0.5,15.4,1.1c-0.5,0.3-1.3,0.9-1.6,1.3c0.3,0.6,0.9,2.1,1.1,2.9c-1.5,0-3.1,0.1-4.5,0.8
	c0.6,0.8,1.1,1.3,1.6,1.9c-1,0.8-2.1,1.9-2.9,2.9c0.9,1.4,1.4,3.1,2.5,4.2c2.3,0.4,3.9-1.8,5.2-3c2.6,1.5,6,3.1,6.8,6.4
	c0.5,1.9-1.5,2.9-2.8,3.7c-3.1,1.6-6.2,3.5-9.8,4.2c-1.3,0-1.9,1-2.5,1.8c0.5,0.5,1.4,1.3,1.8,1.6c4.5-0.6,8.4-3.3,12.3-5.2
	c2.4-1.6,5.2-4.3,4.5-7.4c-2.1-3.9-5.8-6.9-9.9-8.6c0.9-2,1.3-4.3,0.3-6.5c5.3,3.5,9.9,7.9,14.1,12.8c5,7.1,10.1,14.4,15.7,21
	c-2.9,3.7-5.8,7.8-5.7,12.8c0,9.8,0,19.9,1.3,29.7c1.9,11,3.1,22.3,5.9,33.2c0.1,0.5,0.3,1.4,0.4,1.8c-3.3,0.6-6.4,2.1-8.8,4.7
	c-1.9,2.3-2.5,5.2-2.9,7.9c-2.9,1.8-5.3,4.4-6.5,7.4c-1.6-1-3.4-1.5-5.3-1.8c-0.1-3.1-2.4-6.2-5.7-6.5c-6.3-1.5-12.5,3.4-14.1,9.4
	c0.5,0.5,1.6,1.4,2.3,0.4c1.6-1.3,2.8-3,5-3.1c1.9,0,4.8,1.1,4.2,3.7c-0.9,3.8-3.9,6.5-6.8,8.9l0.3-2.8
	c-7.9-6.8-14.6-15.1-20.7-23.5C528.8,748.6,525.7,743.5,523.1,737.9L523.1,737.9z"/>
<path class="st1" d="M612.2,638.8c0.6,0,1.1,0.1,1.6,0.1C613.3,638.8,612.8,638.8,612.2,638.8z M677.9,496.7c-0.8,1.5,0,3.1,1.8,3.5
	c1.8,0.6,2.1-1.4,2.8-2.4c-0.9-0.9-1.8-1.6-2.8-2.3C679.2,495.6,678.4,496.3,677.9,496.7L677.9,496.7z M603.7,518.8
	c-1.8,0.3-3.1,1-4.5,2c-0.4-2,0.4-4.5-0.9-6.2c-2.4,2.4-1.8,6.3-1,9.3c2.5,1.3,4.5-1.1,6.4-2.4V518.8L603.7,518.8z M616.7,526.7
	l0.3-3.3c-2,0.8-3.5,2.5-5.3,3.7l-1-2.8c-3.5,0.3-1.5,5.8,1.3,5.4C613.9,530.1,615.4,528,616.7,526.7L616.7,526.7z M645.7,535.3
	c1.8-1.1,2.6-3.4,1.6-4.7c-2.1-3.4-6.2-4.5-9.7-5.7c-5.4-1.8-12,0.4-15.2,5.2c-1.8,2.6-2.9,6.5-6.3,7.8c-2.9,0.5-5.4-1.5-7.9-2.5
	l0.1,1.8c-0.3-0.1-0.9-0.6-1.3-0.8l-0.5,1c2.9,2,6.4,4.4,10.1,3c3.3-1.9,5.9-5,7.8-8.3c2.3-4.4,8.4-6,13-3.9
	c2.8,1.3,6.7,1.9,7.6,5.2c-0.9-0.5-1.8-0.9-2.6-1.3c-1.5,0.4-4,0.3-4.3,2.5c1.3,2.4,3.1,4,4.5,6.3c-1.9-0.6-3.4-1.8-5-2.8
	c-0.9,0.6-2.8,0.9-2.5,2.5c1.1,2.3,2.6,4.5,3,7.2c-3-0.8-4.5-4.3-7.8-4.3c-4.3,1.4-7.3,5.2-11.8,6.4c-3.7,1.6-7.4-1.3-11.2-0.8
	c-1.4,0.1-2,2-0.4,2.4c3.9,1.4,8.6,2.6,12.7,1c3.7-1.6,7.1-4.2,10.2-6.8c2.6,0.9,4,3.7,6.8,4.2c1.3,0.4,2.6-0.4,3.9-0.5
	c0.4-2.8-0.6-5.3-1.9-7.6c1.9,1.3,4,0.9,5.9-0.1c1.1-1.3,0-2.6-0.5-3.8c-1.1-1-2.1-2.3-3-3.5C642.4,534.8,644,536.1,645.7,535.3
	L645.7,535.3z M614.9,567.4c0.4,1.3,1.1,2.1,2.6,2.4c0.9-0.6,1.8-1.5,2.5-2.3C618.3,567,616.7,567.2,614.9,567.4L614.9,567.4z
	 M621.5,567.7c0.9,0.6,1.6,1.3,2.4,2c0.5-1.1,1.8-1.5,2.8-1.6C625,567.5,623.2,566.7,621.5,567.7z M624.4,593.9
	c-1.1-0.4-2.4-0.4-3.5,0c0,0.6,0.1,1.5,0.3,1.9C622.5,595.8,623.6,595.1,624.4,593.9z M673.7,870.8c-1.1,0.3-2.1,0.6-3.1,1.3
	c0.3,1,0.4,2.3,0.6,3.3c2.4,2.9,5.8,4.4,9.2,5.4c4.8,1.8,10.3,2.9,15.2,0.9c4.3-1.4,7.3-4.9,10.6-7.8c4,2,8.2,4,12.8,3.3
	c3.8-0.4,6.4-3.1,8.9-5.9c3,1.1,6.3,1.5,9.4,0.9c0.6-1.1,1-2.4,0.3-3.5c-2.6,0.8-5.3,0.9-7.8-0.1c0.3-1.4,1.1-2.9,0.1-4.2
	c-0.9,0.1-1.9,0.5-2.8,0.8c-1.4,3.7-3.8,7.1-7.4,8.4c-3.7,1.8-8.1-0.4-11.5-2.3c1-2.6,2.6-5.4,1.4-8.2l-2.3,0.4
	c-0.5,6-5.7,10.2-10.2,13.9c-5.8,3.8-13,2-18.6-0.8C676.4,875.3,673.2,873.9,673.7,870.8L673.7,870.8z M626.5,573.8
	c-2.6-1.1-4.9,1.3-7.6,1.1c-1.4-0.3-0.4,1.6-0.4,2.5c1.3-0.3,2.5-1,3.5-1.9C623.9,577.1,625.6,575.4,626.5,573.8L626.5,573.8z
	 M639.9,595.5c-1.4,0.1-4.4-1.8-5.3,0.1c1.3,1.1,3.3,1,4.9,1.3c1.1,0,2.6,0.6,2.4-1c-0.5,0-1.3,0-1.6-0.1c-0.1-0.8-0.3-1.8-0.4-2.5
	c0.9-2-0.9-5.3,1.9-5.9c-0.5-0.3-1.4-0.8-1.8-0.9c-0.6-2.8-0.6-5.4-0.6-8.2c1.6-0.4,3-0.6,4.7-0.8c-1.8-0.1-3.4-0.3-5-0.4
	c-0.3-1.5-0.4-2.9-0.8-4.5c-0.8,1.3-0.4,2.8-0.4,4.2c-1.9,0-3.7-0.3-5.5-0.4c0.3,2.5,3.7,1.5,5.4,1.9c0.6,2.6,0.8,5.3,1,7.9
	c-1.8-0.3-4-1.6-5.4,0.1c1.8,0.6,3.5,0.8,5.3,1.1C639.9,589.8,639.4,592.9,639.9,595.5L639.9,595.5z M666.8,579.5
	c2.4-0.8,3.5-2.9,4.2-5c-0.6-1-1.3-1.9-1.9-2.9c-0.9,1.4-1.8,2.8-2.5,4.2c-0.6-1.3-1-2.8-1.9-3.8c-0.6,0.8-1.3,1.3-1.8,1.8
	C663.5,575.9,663.8,579.9,666.8,579.5z M624.6,585.2c0.9-0.6,1.9-1.5,2.8-2.3c-1.3-0.1-2.5-0.1-3.8,0
	C623.9,583.7,624.1,584.3,624.6,585.2z M622.1,584.5c-1.8-0.3-3.4-0.5-5.2,0.1c0.5,1.4,1.8,2,3,2.1
	C620.9,585.9,621.4,585.3,622.1,584.5L622.1,584.5z M697.7,591.6c0.6-3.4,0.5-6.9,0-10.2c0.6,0.3,1.5,0.5,2.3,0.6
	c1.5-0.6,2.6-2,3.3-3.7c-0.3-1-0.6-2.3-0.9-3.3c-0.6,0.6-1.3,1.1-1.8,1.6c-0.4,1.1-0.9,1.9-1.8,2.5l-1.6-2.8
	c-1.3-0.1-2.6-0.4-3.9-0.5c-1,0.5-1.9,1.1-2.8,1.8c0.4,1,0.8,2.1,1.4,3.1c0.9,0.8,2.5,0.8,3,2c0.5,2.1,0.4,4.4,0.4,6.7
	c-5.3,0.5-10.8-0.5-16-2.3c-0.6,0.6-1.1,1.5-1.6,2.3c3.3,1.8,7.2,2,10.8,2.8C691.5,592.7,695,593.9,697.7,591.6L697.7,591.6z
	 M656.6,589.1c1.3-0.5,4.2-1.5,2.9-3.1c-1.6-0.9-3.9,0.6-5.2,1.6C653,589.2,655.5,590.2,656.6,589.1z M661.5,592.5
	c1.4-1.1-0.3-2-1.4-2c-1.6,0.8-3.1,1.9-4.5,2.9c0.1,0.5,0.6,1.4,0.9,1.8C658.5,595.1,660.3,593.7,661.5,592.5z M626.8,606.2
	c-1.9-0.6-3.9-1.1-5.4,0.1c0.4,0.9,0.6,2,1.8,2C624.8,608.8,625.8,607.1,626.8,606.2L626.8,606.2z M659.1,605.4
	c-0.9,1,0.4,1.9,1,2.6c2.5,2.5,6,4.2,9.4,3.7c3.7-1.8,7.1-3.8,10.5-5.7c5.7,0.1,11.1,2,15.7,5c1.5,1.1,3.4,2.3,4.3,4.3
	c-1.8,0.4-3.5,0-5.4-0.4c-1.3,1.4-1.8,3.3-2.9,4.9c-2.8,1.3-5.7-0.6-8.4-0.1c-5,1.3-10.5,1.1-15.2-1.3c-0.9,0.3-1.9,0.5-2.8,0.8
	c0.5,1.8,2.1,2.3,3.8,2.8c4,1.4,8.3,1.1,12.3,0.4c2.5-0.5,5.2,0.6,7.7,0.5c2-0.4,3.7-1.5,4.9-3.1c0.1-0.9,0.3-1.8,0.4-2.5
	c2.8,1.3,5.8,0.6,8.2-1.3c-0.4-2-0.8-4.4-2.5-5.7c-5-3.9-11-7.1-17.4-7.4c-5.2-1-9.3,3-13.6,4.9c-2.4,1.4-4.7-0.5-6.5-1.6
	C661.3,605.6,659.9,604.3,659.1,605.4L659.1,605.4z M700.3,598.9c-1.3,1.5-0.3,2.6,1,3.7c0.9-0.3,2-0.6,3-0.9l-1.6-1.9L700.3,598.9
	L700.3,598.9z M522.4,665.8c2.5,2.6,6,4,9.4,2.8c0.9-1.3,2-2.6,1.6-4.3c-0.3-2.4-2.6-4.4-5-3.4c0,0.5,0.1,1.4,0.1,1.8
	c1.3,0.9,1.8,2.4,0.6,3.7c-1.8-0.8-3.5-1.9-4.5-3.7c-0.6,0.3-1.9,0.5-2.4,0.6C522.3,663.9,522.4,665.1,522.4,665.8L522.4,665.8z
	 M701.2,639.1c1.9-0.3,2.3-2.5,2.8-3.8c-0.4-0.5-1-1.5-1.3-1.9c-0.9,1-1.8,1.9-2.6,2.9c-0.5-0.5-1.3-1.6-1.6-2.1
	c-0.4,0.8-0.8,1.6-1.1,2.4C698.2,637.8,699.3,639.4,701.2,639.1L701.2,639.1z M715.7,635.5c-0.4-1.8-1.9,0-2.9,0.1
	c-0.8-0.4-1.6-0.9-2.4-1.3c-0.1,0.6-0.3,1.9-0.4,2.5C711.8,638.7,715.4,638.7,715.7,635.5L715.7,635.5z M713.4,646.9
	c-0.6-0.8-1.1-1.3-1.6-2c0.6-3.3-2.1-6-3.3-8.9c-2,1.4-3.5,3.1-4.7,5.3c0.4,1.8,1.8,3.5,2.9,4.8
	C708.4,647.8,711.8,649.3,713.4,646.9L713.4,646.9z M709.6,644.1c-1.5-0.9-4.3-2.9-1.9-4.5C708.4,641.1,709.1,642.5,709.6,644.1z
	 M551.8,729.6c-1.1,4.3-5.9,5.7-9.1,7.9c0.1,0.5,0.4,1.5,0.5,1.9c4.2-1.8,8.2-4.4,10.5-8.3c1.9-5.2-1.3-10.6-2.3-15.7
	c0.5-4.7,5.9-7.7,10.5-6.9c3.8,0,7.2,2.4,9.6,5.2c2.4,3.9-0.8,8.3-3.7,11c0.9,3.7,2.4,7.4,2,11.3c-0.4,2.6-1,5.2-2.3,7.4
	c-0.6,1.6-2.1,2.8-2.3,4.7c0.3,1.4,2.3,0.6,2.8-0.3c3.8-4.3,5.3-10.2,4.3-15.7c2.1-0.9,4.7-1.5,5.4-3.9c1.4-2.9-1.8-4.9-3.1-7.1
	c0.4-3.3-1-6.4-1.4-9.6c-1.5-2.1-3.8-3.7-6.2-4.7c0.8-1.8-1-3-1.8-4.3c-1.1-1.6-1.8-3.7-3-5c-1.4-0.3-2.8,0.5-4.2,0.8
	c-0.5-1-0.9-2.1-1.3-3.1c2.5-1.1,4.4-2.8,6.7-4.2c2.1-2.1,3.4-5.3,2.5-8.3c-0.4-3.5-3.5-5.8-6.5-7.1c-4.9-0.9-10.5-2.4-14.7,0.8
	c-6.8,3.4-5.7,14.1,0.3,17.8c1.8,1,3.5,1.4,5.4,1.8l2.4,4.2c-0.9,0.6-1.9,1.3-2.8,1.9c0.5,2.3,2,4,3.1,5.9c-2.3,2.4-4.7,5.5-4.2,9.2
	C550.1,721.2,552.7,725.1,551.8,729.6L551.8,729.6z M575.3,727.1c-0.8,1.3-2,2-3.3,2.5c-0.3-1.1-0.6-2.5-1-3.7l2-2
	C574,724.9,574.8,725.8,575.3,727.1z M562.8,686.5c-2.3,2.6-4.9,5.4-8.3,5.9c-2.6-0.1-5.5-0.8-7.8-2.5c-2.5-2.4-4-5.9-2.8-9.2
	c1.5-2.4,4.4-3.3,7.1-3.5c2.5-0.1,4.9,1.4,7.2,2.4c0.5-0.1,1.6-0.1,2.1-0.3C562.2,681.1,564.1,683.9,562.8,686.5L562.8,686.5z
	 M556,706.4c-0.8-1.3-1.5-2.3-2-3.3c2.3-0.9,4.7-1.6,7.1-2.5c0.9,1.8,2,3.5,3,5.4C561.4,706.2,558.8,706.2,556,706.4L556,706.4z"/>
<path class="st1" d="M552.1,685.8c1.6,1.4,3.3-0.5,3.1-2.3c-0.8-0.1-1.6-0.3-2.4-0.4C552.2,683.9,550.8,684.9,552.1,685.8
	L552.1,685.8z M604.9,691.1c0.1-2.3-1.3-4.3-1.3-6.4c1-2,3.8-2.8,5.9-2c2.3,1.6,3.7,4.4,5.9,6.2c1.9-4.5-1.8-10.3-6.5-10.7
	c-3.3-0.5-6.3,1.8-7.9,4.5c-1.4,3,0.1,6.3,1.1,9.3C603.2,692.1,604.4,692.1,604.9,691.1L604.9,691.1z M654.9,674.2
	c2.1-0.4,3.3,1.4,4.9,2.4c1.6,0.1,1-2,1-3c-1.3-4.3-9.1-2.6-8.7,1.9c0.5,1.8,0.9,4,2.9,4.8C657.9,679.4,654.7,676.3,654.9,674.2
	L654.9,674.2z M639.6,679.7c-1.4,0.4-1.4,1.9-1.6,2.9c1.5,0.9,2.6,2.4,4.5,2.5c2.8,0.3,4.7-1.8,6.9-3c0.1-1.1,0.9-2.8-0.4-3.5
	C645.9,678.2,642.4,678,639.6,679.7z M644.3,681c2.3,0.5-0.8,2.6-1.8,1.4C641.6,681.3,643.5,680.8,644.3,681z M673.1,690.6
	c0.1-2-0.3-4.4-2.6-4.8c-0.6,1.1-1.3,2.5-1.9,3.7c0.5,0.9,1,1.9,1.4,2.8C671.1,691.8,672.2,691.3,673.1,690.6z M639.9,709.6
	c2.1-0.9,4.5-1.4,6.3-2.8c-0.3-0.1-0.9-0.4-1.1-0.5c0.1-0.5,0.3-1.4,0.4-1.8c-8.4,3-17.1,6.9-26.3,5c-0.3,0.8-1.8,1.8-0.6,2.6
	c0.5,1.1,2.1,0.8,3.1,1C627.8,713.5,634.1,712,639.9,709.6L639.9,709.6z M697.3,719.4c-0.6,1.1,0,2.4,1,3.1c1.4-1.4,3.1-1.3,4.8-1.3
	c1-0.6,1-2,0.9-3C701.7,717.8,699.2,717.8,697.3,719.4z M695,722.7c-1.9-0.1-3.3,1-4.9,1.8c0.6,0.9,1.1,2.6,2.5,1.9
	C694.1,725.8,696.5,724.2,695,722.7z M683.9,724.7c-2.8,0.4-4.3,3.5-3.7,6.2c0.5,0,1.3,0.3,1.6,0.4c0.6-1,1.1-2.3,1.6-3.3
	c1.4,0.5,3.4,0.3,4.2-1.4C687.7,724.6,685.3,724.7,683.9,724.7L683.9,724.7z M587.6,865c-1,5.9-1.8,11.8-1.6,17.5
	c0.3,9.8,1.1,20,5,29.2c0.9,2.3,2.3,4.2,3.9,6c3.1,2.8,6.7,5.5,10.8,6.4c4.7,0.9,9.4,1,14.1,0.3c4-0.9,8.6-1.8,11.7-4.8
	c3.8-3,4.7-8.4,3.4-13c-1.4-5.8-2.1-11.8-1.8-17.9c4.5,2.8,10.5,2.9,15,0.1c0.1-1.6,0.9-3.7-0.8-4.7c-3.7-3.3-9.1-2.6-13-5.3
	c0-1.5-1-2.4-2.3-2.8c-0.8,0.6-1.4,1.3-2,1.9c-0.8,4.8-0.5,9.4-0.8,14.1c-0.1,2.9,0,5.7,0.3,8.6c-0.9-0.1-1.5-0.3-2.3-0.4
	c-0.4,1.1-0.6,2.4-0.9,3.5c-0.9-1.3-1.8-2.6-2.8-3.7c-0.3,1-0.5,2.1-0.8,3.1h-3.4c0,1.6,0,3.3,0.8,4.5c1.4-0.4,2.9-0.9,4-1.6
	c1,0.1,2,0.4,3,0.4c1.3-0.5,2.3-1.8,3.1-2.8c0.8,4.2,2.9,9.1,0.1,12.8c-5.2,4.4-12.7,4.9-19.3,4.8c-7.8,0-14.7-5.8-17.4-12.8
	c-4-9.7-4.4-20.3-4.5-30.5c0-4.3,0.9-8.6,1-12.8l-0.6-0.8C589.2,864.7,588.4,864.8,587.6,865z M645.8,887.4
	c-4.2,2.3-8.6,0.1-12.2-1.9c0-0.9,0.1-1.9,0.1-2.8C637.5,884.6,642.5,884.2,645.8,887.4L645.8,887.4z M708.4,743.5
	c2-0.8,2.9-3.4,1.5-5.4c-0.9-1.8-2.9-2.3-4.8-1.9c0,0.9-0.3,1.9-0.4,2.8C705.9,740.6,706.2,743.1,708.4,743.5L708.4,743.5z
	 M611.8,782c-2-3.8-7.7-5.9-11.1-2.6c-1,2.9,0,6,0.8,8.8c0.9-0.4,1.9-0.9,2.6-1.4c0-2-0.6-3.9-0.8-5.8c2.4-0.5,4,1.5,5.9,2.8
	C610.4,784.1,611,782.9,611.8,782z M661.5,805.7c0.3,1,0.3,2.5,1.4,3.3c1.5,1.6,3.7,0.8,5.3,0c0.8-2.1,1.1-4.2,0.3-6.3
	c-0.9,0.1-1.8,0.4-2.5,0.6c-0.4,0.9-0.5,2-0.8,3C664.3,804.5,662.8,805,661.5,805.7z M718.4,798.2c-2.3,1.3-1.4,4.5-1.5,6.7h1.6
	c0.1-0.5,0.3-1.3,0.4-1.6l1.6-1c0.3,0.3,0.8,0.9,1,1.3c0.6-0.5,1.6-1.3,2-1.6C722.5,800.1,721.1,797.2,718.4,798.2L718.4,798.2z
	 M632.9,824.8c-2.6,0.8-3.8,3.5-4.8,5.9c-2.5,1-5.4,2.1-7.1,4.8c-0.5,1.3-0.3,2.6-0.4,3.9c1.9,0.5,2.5-2,3.8-3
	c1.9-2.4,5.5-2.4,8.1-1.1c0.9,1.5-1.8,2.3-1.9,3.9c-0.1,1.1-0.1,2.4,0.8,3.3c1.5-0.5,2.1-2.4,3.4-3.3c2.5-1.4,5.9,0,8.2-2
	c1.4-0.5,1-2.5-0.4-2.5c-1.9-0.1-3.9,0.3-5.8,0.4c-1.3-2-3.3-3.1-5.5-4c0.8-1.3,1.4-3.1,3-3.5c2.3-0.6,4.2,1.1,6.3,1.6
	c1.5,0,1.6-1.5,1.9-2.5C639.6,825.1,636.2,822.8,632.9,824.8L632.9,824.8z M724.4,819c-1.3,0.9-3.7,1.5-3.4,3.3c2,1.1,4.2-0.1,6-1
	c3.4-2.5,2.1-7.8,5.4-10.6c0.9-1.3,2.4-1.4,3.7-1.6c0.3,2.4-2.1,4.3-0.3,6.5c-0.3,2.4-2.1,4.2-3.4,6c0,1,0.5,1.3,1.4,1
	c2.9-2.1,4.7-6,3.9-9.7c-0.3-1.4,0.9-2.6,1-3.9c-0.4-1.1-1.3-2-2-2.8c-2.5-0.3-5.3,0.8-7.1,2.8C726.5,811.6,728.3,817.1,724.4,819
	L724.4,819z M773,819.6c0.4-0.9,0.9-1.4,1.3-2.1c-3.8-2-8.6-2.4-12.6-0.8c-1.8,0.9-2.6,2.6-2.5,4.5C762.6,817.5,768.4,818,773,819.6
	L773,819.6z M705.3,845.7c0.6-0.8,1.6-1.4,1.8-2.4c-1.6-1-3.3-1.5-5-2.3c1.1-2,1.6-4.7,3.9-5.7c1.1-0.8,2.8-0.6,4.2-0.9
	c0.3-0.9,1.4-2.8-0.5-2.8c-5.3-0.9-9.6,4.3-9.4,9.2c-2,1.3-5.3,3.7-2.6,6c1-0.9,2-1.8,3-2.5C702.3,844.4,703.7,845.3,705.3,845.7z"
	/>
<path class="st1" d="M637.3,874.7c1.1,2,2.1,4.5,4.7,5c4,1.9,8.8,1.1,12.5-1.3c1.3-0.9,2.4-1.9,3.5-2.9c1.9,0.3,3.8,0.3,5.7,0.4
	c-0.1,0.6-0.3,1.5-0.4,2.3l3.8-0.5c0-0.5-0.3-1.8-0.4-2.3c1-0.8,2.1-1.6,3-2.5c0.5-1.1,0.9-2.5,1.3-3.7c-2,0.6-3.3,2.4-5,3.4
	c-2.9,1.5-6.3,0.4-9.2-0.8c1.3-2,2-4,2.5-6.3c2.4-0.4,4.4-1.1,6.3-2.8c1.8,1.6,3.9,3.9,6.7,3.5c1.4,0,2.6-1,3.7-1.9
	c0-0.4-0.1-1-0.1-1.4c-1.9,0.1-3.5,1-5.2,0c-2.9-1.1-4.3-4.3-5.2-7.1c-0.5,0.1-1.8,0.4-2.3,0.5c-0.6,1.4,0.3,2.9,0.5,4.3
	c-1.6,0.6-3,1.8-4.8,1.4c-2.4-0.4-3.8-2.8-6.3-2.9l-0.5,2.5c1.1,1.3,2.6,2.4,4.3,3c-0.5,2.1-1.4,4.3-3.3,5.5
	c-1.1-0.3-2.6-0.9-3.8-0.1c0,3.7,4.3,2.8,6.3,4.8c-3.1,2-7.3,4.3-11,2.4c-4.4-2.5-5.3-7.9-6-12.5l-1.6,1.6c-1.9,1.4-0.6,3.9-0.6,5.9
	c-2.1,0.3-4.3,0.8-6.3,0c-4.7-1.8-8.8-4.9-12.3-8.6c1.3-1.9,2.6-3.5,3.9-5.4c3.3,1.1,6.9-1,7.8-4.3c-1.5,0.4-3.1,0.9-4.5,1.4
	c-2.6-0.9-4.8-2.8-6-5.2c-0.8,0.9-1.8,1.5-2.8,2c0.5,2,1.9,3.5,3.5,4.8c-1.6,1.9-3,4.3-5.3,5.5c-2.6,0.6-5.2-0.8-7.6-1.6
	c0.5-1.8,1-3.5,0.3-5.2c-0.5-0.3-1.5-0.6-1.9-0.8c-0.3,0.9-0.6,2.1-0.9,3.1c-2.4,2.1-5.3,3.4-8.1,4.5c-0.8,1-1.4,2.1-1.9,3.1
	c3.3-0.3,6.3-1.4,9.2-3c3.3,2.6,7.6,4.2,11.7,3.1c4,4,8.7,7.4,14.1,9.3C631.9,876.6,634.8,875.4,637.3,874.7L637.3,874.7z
	 M598.7,881.6c-0.1,0.6-0.6,1.6-0.9,2.3c5.2,0.8,10.7,2,16.1,2c2.9,0.1,6.7-1.9,6.5-5.2c0.4-2.1-1.3-4-3.1-4.7
	c-3.5-1.4-7.6-1.3-11.5-1.3c-1.8,0-2.9-1.8-4.2-2.8c-0.3-0.1-0.9-0.1-1.3-0.1l-0.5,2.5c0.9,1.3,1.9,2.9,3.7,3.3
	c4.3,1.4,9.4-0.5,13.3,2.1c1.8,1.8-1.5,2.6-2.8,3.1C608.9,883.9,603.9,881.3,598.7,881.6L598.7,881.6z M733.4,854.3
	c2.6-1.8,6.7-1.1,8.6-4.2c-0.6-0.3-1.5-0.9-1.9-1.3c-2,0.8-4,1.3-6,1.8c-2,1.3-3.4,3-4.5,5c0.9,0.9,1,2.6,2.3,2.3
	C732.5,856.9,732.9,855.7,733.4,854.3L733.4,854.3z M605.6,899.1c3.4-0.9,4.9-4.8,8.6-5.2c3-1,5.8,0.5,8.6,1.8c1,0.6,1.9-0.6,2.8-1
	c-0.6-2.3-2.9-2.9-4.8-3.7c-3.7-1.5-8.1-0.1-11.3,1.8C607.3,894.3,604.4,896.2,605.6,899.1L605.6,899.1z M604.6,909.9
	c1.8,1.3,3.7,0,4.9-1.1c-0.3-1-0.5-1.9-0.8-2.9c-0.4-0.3-1.5-0.9-2-1.1c-0.3,0.4-0.8,1.5-0.9,2c-0.4-0.9-0.9-1.9-1.3-2.6
	c-0.9-0.1-1.8-0.4-2.5-0.5C601.5,906,603,908.3,604.6,909.9L604.6,909.9z M1113.3,857.4c-9.7,0.5,5.4,3,14.6,2.4
	c25.4-1.2,54-1.8,85.9-1.8c27.2,0.1,57.6,0.7,88.4,2.3c15.2,0.8,31.2,1.8,45.5,3c7.8,0.7,14.7,1.3,22,2c7.8,0.8,16,2,24.8,2.5
	c79.5,4.4,157.3,6.2,235.9,10c6.4,0.3,11.1,0.2,11.1-0.5c0-0.6-5-1.5-11-1.8c-80.5-3.7-158.3-5.6-239.2-10.2c2.3,0.2,4.6,0.4,6,0.5
	c-20.6-2.4-43.1-4.5-67-6.1c-40.9-2.8-82.3-4-118.7-4.3C1175.2,855.4,1141.9,856,1113.3,857.4L1113.3,857.4z M576,863.5
	c-19.9,0-43,0.7-68.2,2.1c-25.2,1.4-53.9,3.6-82.1,7c-16.5,1.9-32,4.1-46.2,6.4c0.9-0.1,2.5-0.3,4.1-0.5
	c-55.9,5.9-109.7,9.8-165.4,15.1c-4.1,0.4-7.6,1.2-7.5,1.6c0.1,0.5,3.3,0.4,7.7,0c54.3-5.2,108.2-9.1,163.1-14.9
	c6-0.6,11.7-1.7,17.1-2.5c5.1-0.8,9.8-1.4,15.2-2.1c9.8-1.3,20.9-2.5,31.4-3.6c21.3-2.2,42.3-3.6,61.2-4.6c22-1.1,41.9-1.7,59.5-1.7
	C572.4,865.8,582.8,863.6,576,863.5z"/>
<path class="st2" d="M1558.5,916.3C1558.5,916.3,1558.6,916.3,1558.5,916.3c-4.1,1.3-8.4,2.6-12.7,3.9c-0.7,0.8-1.4,1.6-2.1,2.5
	C1548.6,920.6,1553.6,918.4,1558.5,916.3L1558.5,916.3z"/>
<path d="M1290.3,631.5c-0.1-0.2-0.2-0.4-0.2-0.6c-0.2,0.5-0.4,0.9-0.7,1.4c0.8,1.2,1.6,2.3,2.4,3.5
	C1291.3,634.3,1290.8,632.9,1290.3,631.5z"/>
<path d="M1238.7,270.2c-1.4-0.4-2.6-1-3.8-1.7c0.9,0.9,1.9,1.8,3,2.5C1238.1,270.7,1238.4,270.4,1238.7,270.2z"/>
<path d="M1302.1,452.3c0.2,0,0.3,0,0.5,0c0-1,0-2.1,0.1-3.1c-0.2,0.1-0.3,0.2-0.5,0.3C1302.1,450.4,1302.1,451.3,1302.1,452.3z"/>
<path d="M1350.2,410.7c1.6-0.3,2.8-1.1,3.7-2.1C1352.8,409.5,1351.6,410.2,1350.2,410.7z"/>
<path d="M1329.3,450.6c0.3-0.8,0.6-1.6,0.8-2.5c0-0.2,0.1-0.3,0.2-0.5c-0.5,0-1,0-1.5-0.1C1328.9,448.5,1329.1,449.6,1329.3,450.6z"
	/>
<g>
	<path d="M977.3,432.1c0-5.5,1.8-10,5.5-13.6c3.6-3.6,8.3-5.4,14-5.4c2.6,0,5.1,0.4,7.6,1.3c2.5,0.9,4.6,2.2,6.3,3.9l-4.2,6.8
		c-1.2-1.1-2.7-2-4.4-2.7c-1.7-0.7-3.3-1.1-4.9-1.1c-3.5,0-6.1,1-7.8,3.1c-1.8,2.1-2.6,4.6-2.6,7.5c0,3,0.9,5.6,2.7,7.8
		c1.8,2.2,4.4,3.3,7.8,3.3c3.5,0,6.8-1.5,9.9-4.6l4.7,6.6c-4,4.1-9,6.2-14.9,6.2c-5.9,0-10.6-1.8-14.1-5.4
		C979.1,442.3,977.3,437.7,977.3,432.1z"/>
	<path d="M1016.3,450.7v-37.1h12.9c3.3,0,5.7,0.3,7.2,0.9c2.1,0.8,3.8,2.2,5,4c1.2,1.9,1.8,4.1,1.8,6.8c0,2.1-0.5,4.1-1.5,5.9
		c-1,1.9-2.3,3.3-4.1,4.2v0.1c0.3,0.4,0.8,1.2,1.4,2.2l7.2,13h-10.1l-6.6-12.5h-4.3v12.5H1016.3z M1025.4,430.5h3.9
		c1.5,0,2.6-0.4,3.5-1.2c0.8-0.8,1.2-1.9,1.2-3.4c0-2-0.7-3.4-2.2-3.9c-0.8-0.3-1.9-0.5-3.4-0.5h-3.1V430.5z"/>
	<path d="M1050.5,450.7v-37.1h23.2v7.8h-14.2v6.7h11.3v7.8h-11.3v7h14.9v7.8H1050.5z"/>
	<path d="M1076.2,450.7l12.6-37.1h9.5l12.6,37.1h-9.3l-2.3-7.8h-11.6l-2.2,7.8H1076.2z M1089.9,435.7h7.3l-2.1-7.2l-1.5-6.4h-0.1
		c-0.6,2.7-1.1,4.8-1.5,6.4L1089.9,435.7z"/>
	<path d="M1113.2,450.7l3.1-37.1h9.9l5.4,15.7l1.9,6.1h0.1c0.7-2.5,1.3-4.5,1.9-6.1l5.4-15.7h9.9l3,37.1h-9.1l-1.1-16.7
		c-0.1-0.8-0.1-1.8-0.1-2.8s0-1.9,0.1-2.5l0.1-0.9h-0.1c-0.8,2.6-1.5,4.7-2.1,6.2l-3.9,10.7h-7.8l-3.9-10.7l-2.1-6.2h-0.1
		c0.1,2.3,0.1,4.4,0,6.2l-1.1,16.7H1113.2z"/>
	<path d="M1158,432c0-5.4,1.8-9.9,5.4-13.5c3.6-3.6,8.3-5.4,14-5.4s10.3,1.8,14,5.4c3.6,3.6,5.4,8.1,5.4,13.5
		c0,5.5-1.8,10.2-5.4,13.9c-3.6,3.7-8.3,5.6-14,5.6s-10.3-1.8-14-5.6C1159.8,442.1,1158,437.5,1158,432z M1167.4,432
		c0,3.2,0.9,5.8,2.8,7.9c1.9,2.1,4.3,3.2,7.2,3.2s5.3-1.1,7.2-3.2c1.9-2.1,2.8-4.8,2.8-7.9c0-3-0.9-5.6-2.8-7.6s-4.3-3-7.2-3
		s-5.3,1-7.2,3C1168.3,426.4,1167.4,428.9,1167.4,432z"/>
	<path d="M1199.7,446.1l4.8-6.9c1.2,1,2.6,1.9,4.2,2.7c1.6,0.8,3.2,1.1,4.7,1.1c1.2,0,2.2-0.2,2.8-0.7c0.7-0.5,1-1.1,1-1.9
		c0-0.8-0.4-1.5-1.2-2.2s-1.8-1.2-3-1.7c-1.2-0.4-2.5-1-3.9-1.7c-1.4-0.7-2.7-1.5-3.9-2.3c-1.2-0.8-2.2-1.9-3-3.3
		c-0.8-1.4-1.2-3-1.2-4.9c0-3.4,1.3-6.1,3.8-8.2c2.5-2.1,5.7-3.1,9.7-3.1c4.6,0,8.5,1.4,11.6,4.2l-3.8,7.4c-1.1-0.9-2.4-1.7-3.8-2.3
		c-1.5-0.6-2.9-0.9-4.4-0.9c-1.3,0-2.3,0.2-3,0.7c-0.7,0.5-1,1.1-1,1.9c0,0.8,0.4,1.5,1.2,2.2c0.8,0.7,1.8,1.2,3,1.6
		c1.2,0.4,2.5,1,3.9,1.7c1.4,0.7,2.7,1.4,3.9,2.2c1.2,0.8,2.2,1.9,3,3.3s1.2,3,1.2,4.9c0,3.3-1.2,6-3.5,8.2
		c-2.3,2.2-5.6,3.3-9.7,3.3c-2.5,0-4.9-0.4-7.3-1.3C1203.5,449.1,1201.4,447.8,1199.7,446.1z"/>
	<path d="M979.3,513v-37.1h23.2v7.8h-14.2v6.7h11.3v7.8h-11.3v7h14.9v7.8H979.3z"/>
	<path d="M1005.6,513l11.3-18.4l-11.3-18.7h10.3l4,7.6l2.3,4.8h0.1c0.7-1.6,1.4-3.2,2.3-4.8l4.1-7.6h10.3l-11.4,18.7l11.3,18.4
		h-10.1l-4.3-7.8l-2.3-4.6h-0.1c-0.7,1.5-1.4,3.1-2.3,4.6l-4.3,7.8H1005.6z"/>
	<path d="M1043.3,513v-37.1h15.4c3.6,0,6.5,1.2,8.7,3.6s3.3,5.4,3.3,9.2c0,3.8-1.1,6.9-3.3,9.3c-2.2,2.4-5.1,3.6-8.7,3.6h-6.3V513
		H1043.3z M1052.3,493.7h4.5c1.5,0,2.7-0.5,3.5-1.4c0.8-0.9,1.2-2.2,1.2-3.7c0-1.5-0.4-2.7-1.2-3.6c-0.8-0.9-1.9-1.3-3.4-1.3h-4.6
		V493.7z"/>
	<path d="M1075.9,513v-37.1h23.2v7.8H1085v6.7h11.3v7.8H1085v7h14.9v7.8H1075.9z"/>
	<path d="M1105.7,513v-37.1h12.9c3.3,0,5.7,0.3,7.2,0.9c2.1,0.8,3.8,2.2,5,4c1.2,1.9,1.8,4.1,1.8,6.8c0,2.1-0.5,4.1-1.5,5.9
		c-1,1.9-2.3,3.3-4.1,4.2v0.1c0.3,0.4,0.8,1.2,1.4,2.2l7.2,13h-10.1l-6.6-12.5h-4.3V513H1105.7z M1114.7,492.7h3.9
		c1.5,0,2.6-0.4,3.5-1.2c0.8-0.8,1.2-1.9,1.2-3.4c0-2-0.7-3.4-2.2-3.9c-0.8-0.3-1.9-0.5-3.4-0.5h-3.1V492.7z"/>
	<path d="M1139.8,513v-37.1h9.1V513H1139.8z"/>
	<path d="M1156.6,513v-37.1h23.2v7.8h-14.2v6.7h11.3v7.8h-11.3v7h14.9v7.8H1156.6z"/>
	<path d="M1186.4,513v-37.1h9.2l10.3,17.3c0.4,0.7,0.9,1.6,1.4,2.7c0.5,1.1,0.9,1.9,1.2,2.6l0.5,1h0.1c-0.3-2.7-0.4-4.8-0.4-6.3
		v-17.3h9.1V513h-9.1l-10.3-17.3c-0.4-0.7-0.9-1.6-1.4-2.7c-0.5-1.1-0.9-1.9-1.2-2.6l-0.5-1h-0.1c0.3,2.7,0.4,4.8,0.4,6.3V513
		H1186.4z"/>
	<path d="M1223.6,494.4c0-5.5,1.8-10,5.5-13.6c3.6-3.6,8.3-5.4,14-5.4c2.6,0,5.1,0.4,7.6,1.3c2.5,0.9,4.6,2.2,6.3,3.9l-4.2,6.8
		c-1.2-1.1-2.7-2-4.4-2.7c-1.7-0.7-3.3-1.1-4.9-1.1c-3.5,0-6.1,1-7.8,3.1c-1.8,2.1-2.6,4.6-2.6,7.5c0,3,0.9,5.6,2.7,7.8
		c1.8,2.2,4.4,3.3,7.8,3.3c3.5,0,6.8-1.5,9.9-4.6l4.7,6.6c-4,4.1-9,6.2-14.9,6.2c-5.9,0-10.6-1.8-14.1-5.4
		C1225.3,504.6,1223.6,500,1223.6,494.4z"/>
	<path d="M1262.6,513v-37.1h9.1V513H1262.6z"/>
	<path d="M1275.4,513l12.6-37.1h9.5l12.6,37.1h-9.3l-2.3-7.8H1287l-2.2,7.8H1275.4z M1289.1,497.9h7.3l-2.1-7.2l-1.5-6.4h-0.1
		c-0.6,2.7-1.1,4.8-1.5,6.4L1289.1,497.9z"/>
	<path d="M1311.3,508.3l4.8-6.9c1.2,1,2.6,1.9,4.2,2.7c1.6,0.8,3.2,1.1,4.7,1.1c1.2,0,2.2-0.2,2.8-0.7c0.7-0.5,1-1.1,1-1.9
		c0-0.8-0.4-1.5-1.2-2.2s-1.8-1.2-3-1.7c-1.2-0.4-2.5-1-3.9-1.7c-1.4-0.7-2.7-1.5-3.9-2.3c-1.2-0.8-2.2-1.9-3-3.3
		c-0.8-1.4-1.2-3-1.2-4.9c0-3.4,1.3-6.1,3.8-8.2c2.5-2.1,5.7-3.1,9.7-3.1c4.6,0,8.5,1.4,11.6,4.2l-3.8,7.4c-1.1-0.9-2.4-1.7-3.8-2.3
		c-1.5-0.6-2.9-0.9-4.4-0.9c-1.3,0-2.3,0.2-3,0.7c-0.7,0.5-1,1.1-1,1.9c0,0.8,0.4,1.5,1.2,2.2c0.8,0.7,1.8,1.2,3,1.6
		c1.2,0.4,2.5,1,3.9,1.7c1.4,0.7,2.7,1.4,3.9,2.2c1.2,0.8,2.2,1.9,3,3.3s1.2,3,1.2,4.9c0,3.3-1.2,6-3.5,8.2
		c-2.3,2.2-5.6,3.3-9.7,3.3c-2.5,0-4.9-0.4-7.3-1.3C1315.1,511.4,1313.1,510,1311.3,508.3z"/>
	<path d="M1340.4,518.7l3.9-14.4h8.6l-5.9,14.4H1340.4z"/>
	<path d="M977.3,556.6c0-5.4,1.8-10,5.5-13.6c3.7-3.6,8.3-5.5,13.9-5.5c5.8,0,10.5,1.6,14.3,4.9l-4.4,6.8c-1.1-1-2.5-1.8-4.1-2.4
		c-1.7-0.7-3.3-1-4.9-1c-3.7,0-6.4,1-8.2,3c-1.8,2-2.7,4.5-2.7,7.5c0,3.4,1,6.2,3.1,8.2c2.1,2,4.6,3.1,7.5,3.1
		c2.7,0,5.2-0.9,7.5-2.7V562h-5.2v-7.7h13.3v21h-7.6v-1l0.1-1.6h-0.1c-1.1,1-2.6,1.7-4.3,2.3c-1.8,0.6-3.6,0.9-5.4,0.9
		c-5,0-9.3-1.7-12.8-5.2C979.1,567.1,977.3,562.5,977.3,556.6z"/>
	<path d="M1019.4,575.2v-37.1h23.2v7.8h-14.2v6.7h11.3v7.8h-11.3v7h14.9v7.8H1019.4z"/>
	<path d="M1049.2,575.2v-37.1h9.2l10.3,17.3c0.4,0.7,0.9,1.6,1.4,2.7c0.5,1.1,0.9,1.9,1.2,2.6l0.5,1h0.1c-0.3-2.7-0.4-4.8-0.4-6.3
		v-17.3h9.1v37.1h-9.1L1061,558c-0.4-0.7-0.9-1.6-1.4-2.7c-0.5-1.1-0.9-1.9-1.2-2.6l-0.5-1h-0.1c0.3,2.7,0.4,4.8,0.4,6.3v17.3
		H1049.2z"/>
	<path d="M1088.3,575.2v-37.1h23.2v7.8h-14.2v6.7h11.3v7.8h-11.3v7h14.9v7.8H1088.3z"/>
	<path d="M1118.1,575.2v-37.1h12.9c3.3,0,5.7,0.3,7.2,0.9c2.1,0.8,3.8,2.2,5,4c1.2,1.9,1.8,4.1,1.8,6.8c0,2.1-0.5,4.1-1.5,5.9
		c-1,1.9-2.3,3.3-4.1,4.2v0.1c0.3,0.5,0.8,1.2,1.4,2.2l7.2,13H1138l-6.6-12.5h-4.3v12.5H1118.1z M1127.1,555h3.9
		c1.5,0,2.6-0.4,3.5-1.2c0.8-0.8,1.2-1.9,1.2-3.4c0-2-0.7-3.4-2.2-3.9c-0.8-0.3-1.9-0.5-3.4-0.5h-3.1V555z"/>
	<path d="M1148.1,575.2l12.6-37.1h9.5l12.6,37.1h-9.3l-2.3-7.8h-11.6l-2.2,7.8H1148.1z M1161.8,560.2h7.3l-2.1-7.2l-1.5-6.4h-0.1
		c-0.6,2.7-1.1,4.8-1.5,6.4L1161.8,560.2z"/>
	<path d="M1185.2,575.2l3.1-37.1h9.9l5.4,15.7l1.9,6.1h0.1c0.7-2.5,1.3-4.5,1.9-6.1l5.4-15.7h9.9l3,37.1h-9.1l-1.1-16.7
		c-0.1-0.8-0.1-1.8-0.1-2.8s0-1.9,0.1-2.5l0.1-0.9h-0.1c-0.8,2.6-1.5,4.7-2.1,6.2l-3.9,10.7h-7.8l-3.9-10.7l-2.1-6.2h-0.1
		c0.1,2.3,0.1,4.4,0,6.2l-1.1,16.7H1185.2z"/>
	<path d="M1229.9,556.5c0-5.4,1.8-9.9,5.4-13.5s8.3-5.4,14-5.4s10.3,1.8,14,5.4c3.6,3.6,5.4,8.1,5.4,13.5c0,5.5-1.8,10.2-5.4,13.9
		c-3.6,3.7-8.3,5.5-14,5.5s-10.3-1.8-14-5.5S1229.9,562,1229.9,556.5z M1239.3,556.5c0,3.2,0.9,5.8,2.8,7.9c1.9,2.1,4.3,3.2,7.2,3.2
		s5.3-1.1,7.2-3.2s2.8-4.8,2.8-7.9c0-3-0.9-5.6-2.8-7.6c-1.9-2-4.3-3-7.2-3s-5.3,1-7.2,3C1240.3,550.9,1239.3,553.4,1239.3,556.5z"
		/>
	<path d="M1271.7,570.6l4.8-6.9c1.2,1,2.6,1.9,4.2,2.7c1.6,0.8,3.2,1.1,4.7,1.1c1.2,0,2.2-0.2,2.8-0.7c0.7-0.5,1-1.1,1-1.9
		c0-0.8-0.4-1.5-1.2-2.2c-0.8-0.7-1.8-1.2-3-1.7c-1.2-0.4-2.5-1-3.9-1.7c-1.4-0.7-2.7-1.5-3.9-2.3c-1.2-0.8-2.2-1.9-3-3.3
		c-0.8-1.4-1.2-3-1.2-4.9c0-3.4,1.3-6.1,3.8-8.2c2.5-2.1,5.7-3.1,9.7-3.1c4.6,0,8.5,1.4,11.6,4.2l-3.8,7.4c-1.1-0.9-2.4-1.7-3.8-2.3
		c-1.5-0.6-2.9-0.9-4.4-0.9c-1.3,0-2.3,0.2-3,0.7c-0.7,0.5-1,1.1-1,1.9c0,0.8,0.4,1.5,1.2,2.2c0.8,0.7,1.8,1.2,3,1.6
		c1.2,0.4,2.5,1,3.9,1.7c1.4,0.7,2.7,1.4,3.9,2.2c1.2,0.8,2.2,1.9,3,3.3s1.2,3,1.2,4.9c0,3.3-1.2,6-3.5,8.2s-5.6,3.3-9.7,3.3
		c-2.5,0-4.9-0.4-7.3-1.3C1275.4,573.6,1273.4,572.3,1271.7,570.6z"/>
	<path d="M977.3,618.9c0-5.5,1.8-10,5.5-13.6c3.6-3.6,8.3-5.4,14-5.4c2.6,0,5.1,0.4,7.6,1.3c2.5,0.9,4.6,2.2,6.3,3.9l-4.2,6.8
		c-1.2-1.1-2.7-2-4.4-2.7c-1.7-0.7-3.3-1.1-4.9-1.1c-3.5,0-6.1,1-7.8,3.1s-2.6,4.6-2.6,7.5c0,3,0.9,5.6,2.7,7.8s4.4,3.3,7.8,3.3
		c3.5,0,6.8-1.5,9.9-4.6l4.7,6.6c-4,4.2-9,6.2-14.9,6.2c-5.9,0-10.6-1.8-14.1-5.4C979.1,629.1,977.3,624.5,977.3,618.9z"/>
	<path d="M1013.4,618.7c0-5.4,1.8-9.9,5.4-13.5c3.6-3.6,8.3-5.4,14-5.4s10.3,1.8,14,5.4c3.6,3.6,5.4,8.1,5.4,13.5
		c0,5.5-1.8,10.2-5.4,13.9c-3.6,3.7-8.3,5.5-14,5.5s-10.3-1.8-14-5.5S1013.4,624.2,1013.4,618.7z M1022.8,618.7
		c0,3.2,0.9,5.8,2.8,7.9c1.9,2.1,4.3,3.2,7.2,3.2s5.3-1.1,7.2-3.2s2.8-4.8,2.8-7.9c0-3-0.9-5.6-2.8-7.6c-1.9-2-4.3-3-7.2-3
		s-5.3,1-7.2,3C1023.8,613.1,1022.8,615.7,1022.8,618.7z"/>
	<path d="M1058,637.5v-37.1h9.2l10.3,17.3c0.4,0.7,0.9,1.6,1.4,2.7c0.5,1.1,0.9,1.9,1.2,2.6l0.5,1h0.1c-0.3-2.7-0.4-4.8-0.4-6.3
		v-17.3h9.1v37.1h-9.1l-10.3-17.3c-0.4-0.7-0.9-1.6-1.4-2.7c-0.5-1.1-0.9-1.9-1.2-2.6l-0.5-1h-0.1c0.3,2.7,0.4,4.8,0.4,6.3v17.3
		H1058z"/>
	<path d="M1097.1,637.5v-37.1h23.2v7.8h-14.2v6.7h11.3v7.8h-11.3v7h14.9v7.8H1097.1z"/>
	<path d="M1123.4,637.5l11.3-18.4l-11.3-18.7h10.3l4,7.6l2.3,4.8h0.1c0.7-1.6,1.4-3.2,2.3-4.8l4.1-7.6h10.3l-11.4,18.7l11.3,18.4
		h-10.1l-4.3-7.8l-2.3-4.6h-0.1c-0.7,1.5-1.4,3.1-2.3,4.6l-4.3,7.8H1123.4z"/>
	<path d="M1161.1,637.5v-37.1h9.1v37.1H1161.1z"/>
	<path d="M1175.9,618.7c0-5.4,1.8-9.9,5.4-13.5c3.6-3.6,8.3-5.4,14-5.4s10.3,1.8,14,5.4c3.6,3.6,5.4,8.1,5.4,13.5
		c0,5.5-1.8,10.2-5.4,13.9c-3.6,3.7-8.3,5.5-14,5.5s-10.3-1.8-14-5.5S1175.9,624.2,1175.9,618.7z M1185.3,618.7
		c0,3.2,0.9,5.8,2.8,7.9c1.9,2.1,4.3,3.2,7.2,3.2s5.3-1.1,7.2-3.2s2.8-4.8,2.8-7.9c0-3-0.9-5.6-2.8-7.6c-1.9-2-4.3-3-7.2-3
		s-5.3,1-7.2,3C1186.2,613.1,1185.3,615.7,1185.3,618.7z"/>
	<path d="M1220.5,637.5v-37.1h9.2l10.3,17.3c0.4,0.7,0.9,1.6,1.4,2.7c0.5,1.1,0.9,1.9,1.2,2.6l0.5,1h0.1c-0.3-2.7-0.4-4.8-0.4-6.3
		v-17.3h9.1v37.1h-9.1l-10.3-17.3c-0.4-0.7-0.9-1.6-1.4-2.7c-0.5-1.1-0.9-1.9-1.2-2.6l-0.5-1h-0.1c0.3,2.7,0.4,4.8,0.4,6.3v17.3
		H1220.5z"/>
	<path d="M1259.6,637.5v-37.1h23.2v7.8h-14.2v6.7h11.3v7.8h-11.3v7h14.9v7.8H1259.6z"/>
	<path d="M1286.5,632.8l4.8-6.9c1.2,1,2.6,1.9,4.2,2.7c1.6,0.8,3.2,1.1,4.7,1.1c1.2,0,2.2-0.2,2.8-0.7c0.7-0.5,1-1.1,1-1.9
		c0-0.8-0.4-1.5-1.2-2.2c-0.8-0.7-1.8-1.2-3-1.7c-1.2-0.4-2.5-1-3.9-1.7c-1.4-0.7-2.7-1.5-3.9-2.3c-1.2-0.8-2.2-1.9-3-3.3
		s-1.2-3-1.2-4.9c0-3.4,1.3-6.1,3.8-8.2c2.5-2.1,5.7-3.1,9.7-3.1c4.6,0,8.5,1.4,11.6,4.2l-3.8,7.4c-1.1-0.9-2.4-1.7-3.8-2.3
		c-1.5-0.6-2.9-0.9-4.4-0.9c-1.3,0-2.3,0.2-3,0.7c-0.7,0.5-1,1.1-1,1.9c0,0.8,0.4,1.5,1.2,2.2c0.8,0.7,1.8,1.2,3,1.6
		c1.2,0.4,2.5,1,3.9,1.7c1.4,0.7,2.7,1.4,3.9,2.2c1.2,0.8,2.2,1.9,3,3.3s1.2,3,1.2,4.9c0,3.3-1.2,6-3.5,8.2s-5.6,3.3-9.7,3.3
		c-2.5,0-4.9-0.4-7.3-1.3C1290.3,635.9,1288.3,634.5,1286.5,632.8z"/>
	<path d="M1318.1,637.5V629h8.5v8.5H1318.1z"/>
</g>
<g>
	<path class="st2" d="M969.2,381.6c0.2-1.9-0.2-3.2-1.2-4.1c1.4-1.8,1.7-4.9-0.8-6.6c-9.8-7.2-17.5-16.7-22.8-27.5
		c-2.4-4.9-9.8-0.6-7.4,4.3c5.3,10.8,12.8,20,22,27.6c-6.2-1.1-12.4-2.2-18.6-3.3c0.7-11.4-1.9-20.7-5.3-27.8c2.4-2.4,5.3-4,8.3-4.5
		c5.1-7.8,8.9-16.8,10.2-25.7c0.9-5.2,0.2-10.1-0.3-15.2c-1-0.2-1.7-0.3-2.7-0.5c0.4-2.2-0.4-4.3-2.1-5.6c-3.3-6.6-10.2-9.9-16-13
		c-3.1,0.7-6.3,1.4-9.4,2.4c-3.1,0.9-6.1,2.1-9,3.4c-1.9,4.8-6.4,5.8-9.1,4.8c-21.6-11.2-44.2-27.4-68.5-24.4
		c-12.6,2-24.3-1-37.4,1.9c-3,0.4-6,1-8.9,1.7c-17.8,4.5-34.7,15.1-49.3,27.9c-1.8,1-3.6,0-5.4-1c-2.5-1-5.2-2.8-7-5.3
		c-2.7-2-5.4-3-8.7-2.3c-3.1-0.7-6.3-1.1-9.5-1.5c-5.6,3.6-12.2,7.5-15,14.4c-1.6,1.5-2.2,3.7-1.6,5.8c-1,0.3-1.7,0.4-2.7,0.7
		c-0.2,5-0.5,10,0.8,15.1c2.3,10.5,8.2,20.8,15.5,28.9c-2,5.5-3.4,12.1-3.4,19.7c-5.1,0.9-10.2,1.8-15.3,2.8
		c5.7-5.8,11.2-11.8,16.3-18.2c3.4-4.2-2.6-10.2-6-6c-6.8,8.4-14.1,16.2-21.9,23.7c-1.7,1.6-1.6,3.6-0.5,5.1
		c-1.1,1.9-0.8,4.7,0.1,9.5c0.2,1.3,1.2,2.8,2.4,3.5c2.9,1.7,4.5,3.9,5.6,6.8c2.6,7.5,5.4,15,8.2,22.5c3.1,8.7,8.7,14.8,16.3,18.8
		c1.1,9.4,2.7,18.8,5.1,28.1c0.6,3.3,1.3,6.5,2.2,9.7c3.6,12.6,10.4,24,23.2,32.8c2.1,1.6,4.4,3,6.8,4.3c0.1,4.8,0.1,10.4,0.1,15.7
		c-2.2,0.5-4.3,1.1-6.5,2c-7.6,0.2-15.2,2.2-19.8,8.7c-3.4,5-6.7,11.2-7.4,17.5c-8.4,25.1-28.3,101.6,5.2,114.5
		c3.3,1.3,6.2,1.6,8.7,1.3c2.1,0.5,4.1,1.4,5.5,3.1c-2.2,18.9-2.9,38.1,1.2,56.7c1.5,5.9,4.3,11.3,5.7,17.1c1,5.9-0.1,11.7-1.1,17.5
		c-2.2,6.6-3.3,13-3.2,19.9c-1.9,7.4-5.7,14.2-10.1,20.6c2.5-0.1,4.8-0.2,7.3-0.3c-0.5,6.2,1.1,12.5,2.9,18.5
		c1.1,0.1,1.1,0.1,2.2,0.2c1.3-2.7,2.7-4.9,4.3-7.4c1.1,6.4,1.1,13.3,1.1,19.8c-12.9-0.3-26,5.9-34.7,15.3
		c-4.5,11.3-8.1,23.4-8.1,35.4c1,9,11.3,11.6,17.8,15.7c16.5,1.9,33.2,9.2,50.3,5.6c13.9-3.3,27.3-8.9,40.7-13.6
		c9.6-3.2,17.1-10.6,24.6-17.1c5.8,4.5,12.4,8.1,17.1,13.6c18.3,3.4,35.7,14,54.7,11.3c10.7-2.7,22.1-2.5,32.7-6.2
		c9.8-3.4,21.6-5.2,28.1-14.2c2.7-12.1-1.2-24.2-4.1-35.7c-3.4-7.6-9.2-14.2-16.4-18.7c-6.2-3.4-13.5-3.1-20.5-3.2
		c0.3-5.5,1.5-10.9,4.3-15.7c0.2-4.8,0.3-9.6,0.3-14.4c2.5,2,4.8,4.3,7.2,6.2c-2.7-7.8-5.9-15.7-8.1-23.8
		c-3.2-12.1-9.1-23.5-9.1-36.3c-1.5-8.5,5.2-15.1,6.2-23.1c3-15.8,2.9-32.1,0.3-47.8c3.3,1.5,7.3,1.5,12.1-0.3
		c31.8-12.3,15.4-81.9,6.5-110.4c0.9-7.7-3.8-15.5-8.4-21.7c-6.7-8.5-19.3-9.3-29.9-8.5c0-5.9,0-12.7,0.1-18.3c0,0-0.9,0.3-2.4,0.7
		c13.6-8.8,23.7-21.6,27.6-37.7c1,0,2,0.9,3,0.9c3-11.2,4-23.4,5.9-35.1c0.2-1.9,0.3-3.9,0.5-5.9c4.7-3.3,8.4-7.5,10.6-13.2
		c3.6-8.9,6.7-17.9,10.3-26.8c0.7-1.8,2.2-3.9,3.9-4.8c2.9-1.6,3.7-3.7,3.7-6.5C969.2,385,969,383.3,969.2,381.6z"/>
	<g>
		<path class="st3" d="M789.4,362.7c3.4,0.3,6.7,0.6,10.1,0.8c-7.7-1.9-15.5-3.7-22.3-6.7c8.7,1.6,17.5,3.6,26.7,3.9
			c-3.5-1.2-7.2-2.1-10.6-3.4l-0.4,0c-0.5-0.2-1.5-0.7-2-0.9c5.5,0.9,11.1,1.9,16.8,2.2c1.9-1.3,1.7-3.3,2.5-5
			c-1.1-0.2-2.2-0.3-3.3-0.5c-22-4.3-42.4-11.1-62.2-18.1c-1.3-0.5-2.7-1.3-4.4-1.2c-0.4,0.6-0.7,1.1-1,1.7c3,1.9,6,3.7,9.3,5.3
			c-3.6-0.8-7-2-10.2-3.2c-1.6,4.9-3,10-0.6,14.9c16.4,4.6,33.7,8.3,51.6,10.1L789.4,362.7z"/>
		<path class="st3" d="M841.6,455.5c0.5,1.2,0.8,1.2-0.9,1.5c-1.6,0.3-3.2,0.8-4.7,1.2c-3.2,0.8-6.4,1.4-9.6,2
			c-6.6,1.2-13.2,2.1-19.9,2.7c-4.3,0.4-4.1,5.2,0.2,4.8c9.1-0.8,18.2-2.2,27.1-4.1c3.8-0.8,8.8-1.5,12.1-3.2
			c3.2-1.6,3.1-4.2,2.1-6.6C846.7,451.1,840.4,452.6,841.6,455.5z"/>
		<path class="st3" d="M732.1,319.9c0.3-0.3,0.7-0.6,1-0.9c-1.7-0.5-3.1-1.2-4.6-2.1C729.7,318,730.9,319.1,732.1,319.9z"/>
		<path class="st3" d="M819.9,451.1l0,0.4c1.1,0.2,2.3,0.4,3.5,0.3c0.2,0,0.5,0,0.7-0.1c0.2,0,0.5,0,0.7,0c1.2,0,2.4-0.3,3.4-0.6
			l0-0.4c7.1-2.7,13.5-10.1,17.7-17.6c0.1-0.5,0.1-1,0.1-1.5c0.2,0.2,0.4,0.4,0.5,0.6c-0.3-2.7-1.4-5.1-4.2-6.1
			c-1-0.3-1.8-0.9-2.3-1.5c-1.7-0.5-3.5-0.6-5.1,0c-4.6,0.2-8.2,1.1-11.8,1.6c-3.6-0.2-7.3-0.8-11.9-0.6c-0.6-0.2-1.2-0.2-1.8-0.2
			c0.2-0.4,0.4-0.9,0.5-1.3c0.1-0.3,0.2-0.6,0.3-1c-1.8,0.3-3,0.8-4.2,2c-1.4,1.4-2.3,3-3.3,4.9c-0.3,0.6-0.8,1.1-1.3,1.5
			c0.1,0.3,0.2,0.5,0.3,0.8c0.4,1.3,0.1,2.5-0.4,3.7c-0.1,0.2-0.1,0.4-0.2,0.5c0,0.3,0,0.7,0,1c0,0.4,0,0.7-0.1,1.1
			c0.5-0.5,1-1,1.5-1.6C807.1,443.5,813.3,449.3,819.9,451.1z"/>
		<path class="st3" d="M809.9,539.4c0.2,0,0.4,0,0.6,0.1c0-1.2,0.1-2.5,0.1-3.8c-0.2,0.1-0.4,0.3-0.6,0.4
			C809.9,537.1,809.9,538.2,809.9,539.4z"/>
		<path class="st3" d="M872.6,486.6c-1.4,1-2.8,1.9-4.5,2.5C870.1,488.7,871.6,487.8,872.6,486.6z"/>
		<path class="st3" d="M842.8,537.3c0.4-1,0.7-2,1-3.1c0.1-0.2,0.1-0.4,0.2-0.6c-0.6,0-1.2,0-1.8-0.1
			C842.4,534.8,842.6,536.1,842.8,537.3z"/>
		<path class="st3" d="M818,472.7c4.6-1.4,9.5-1.9,14.6-1.4c2.2-0.6,4.2-1.7,6.1-2.8c-8.5-0.1-18.3-0.9-25.4,4.9
			C814.6,472.5,816.4,472.6,818,472.7z"/>
		<path class="st3" d="M839.1,490.6c-5.5-5.8-12.5-9.2-20.5-10.4c0.7,0.7,1.4,1.4,2.1,1.9c-1.7-1.3-3.7-0.5-6.1,0.6
			c0.1,0.2,0.2,0.3,0.3,0.6c0.3,0.7,0.6,1.3,0.8,2c0.1,0,0.1,0,0.2-0.1c-0.1,0-0.1,0.1-0.2,0.1c0.9,2.5,1.3,5.1,1.1,7.9
			c0.5,0.2,1,0.4,1.5,0.7c4.1,1.6,5.7,5.1,5.5,9.8c1,0.6,1.6,1.8,1.6,3.2c0.7,0,1.4,0,2.2,0c0.4-3.6,0.8-7.2,1.9-11.1
			c0.6,2.7,2.2,3.9,2.7,6.6c1.5-5.6,0.4-11,0.1-15.7C834,489,836.3,490.1,839.1,490.6z"/>
		<path class="st3" d="M782.8,483.2c-0.2-0.2-0.4-0.5-0.6-0.7c1.6,2.8,3.6,5,5.7,6.4C786.1,487.5,784.5,485.3,782.8,483.2z"/>
		<path class="st3" d="M806.9,505.8c-1.4,2-1.8,4.4-1.9,7C805.8,510.8,806.4,508.4,806.9,505.8z"/>
		<path class="st3" d="M969.2,381.6c0.2-1.9-0.2-3.2-1.2-4.1c1.4-1.8,1.7-4.9-0.8-6.6c-9.8-7.2-17.5-16.7-22.8-27.5
			c-2.4-4.9-9.8-0.6-7.4,4.3c5.3,10.8,12.8,20,22,27.6c-6.2-1.1-12.4-2.2-18.6-3.3c0.7-11.4-1.9-20.7-5.3-27.8
			c2.4-2.4,5.3-4,8.3-4.5c5.1-7.8,8.9-16.8,10.2-25.7c0.9-5.2,0.2-10.1-0.3-15.2c-1-0.2-1.7-0.3-2.7-0.5c0.4-2.2-0.4-4.3-2.1-5.6
			c-3.3-6.6-10.2-9.9-16-13c-3.1,0.7-6.3,1.4-9.4,2.4c-3.1,0.9-6.1,2.1-9,3.4c-1.9,4.8-6.4,5.8-9.1,4.8
			c-21.6-11.2-44.2-27.4-68.5-24.4c-12.6,2-24.3-1-37.4,1.9c-3,0.4-6,1-8.9,1.7c-17.8,4.5-34.7,15.1-49.3,27.9c-1.8,1-3.6,0-5.4-1
			c-2.5-1-5.2-2.8-7-5.3c-2.7-2-5.4-3-8.7-2.3c-3.1-0.7-6.3-1.1-9.5-1.5c-5.6,3.6-12.2,7.5-15,14.4c-1.6,1.5-2.2,3.7-1.6,5.8
			c-1,0.3-1.7,0.4-2.7,0.7c-0.2,5-0.5,10,0.8,15.1c2.3,10.5,8.2,20.8,15.5,28.9c-2,5.5-3.4,12.1-3.4,19.7
			c-5.1,0.9-10.2,1.8-15.3,2.8c5.7-5.8,11.2-11.8,16.3-18.2c3.4-4.2-2.6-10.2-6-6c-6.8,8.4-14.1,16.2-21.9,23.7
			c-1.7,1.6-1.6,3.6-0.5,5.1c-1.1,1.9-0.8,4.7,0.1,9.5c0.2,1.3,1.2,2.8,2.4,3.5c2.9,1.7,4.5,3.9,5.6,6.8c2.6,7.5,5.4,15,8.2,22.5
			c3.1,8.7,8.7,14.8,16.3,18.8c1.1,9.4,2.7,18.8,5.1,28.1c0.6,3.3,1.3,6.5,2.2,9.7c3.6,12.6,10.4,24,23.2,32.8
			c2.1,1.6,4.4,3,6.8,4.3c0.1,4.8,0.1,10.4,0.1,15.7c-2.2,0.5-4.3,1.1-6.5,2c-7.6,0.2-15.2,2.2-19.8,8.7c-3.4,5-6.7,11.2-7.4,17.5
			c-8.4,25.1-28.3,101.6,5.2,114.5c3.3,1.3,6.2,1.6,8.7,1.3c2.1,0.5,4.1,1.4,5.5,3.1c-2.2,18.9-2.9,38.1,1.2,56.7
			c1.5,5.9,4.3,11.3,5.7,17.1c1,5.9-0.1,11.7-1.1,17.5c-2.2,6.6-3.3,13-3.2,19.9c-1.9,7.4-5.7,14.2-10.1,20.6
			c2.5-0.1,4.8-0.2,7.3-0.3c-0.5,6.2,1.1,12.5,2.9,18.5c1.1,0.1,1.1,0.1,2.2,0.2c1.3-2.7,2.7-4.9,4.3-7.4c1.1,6.4,1.1,13.3,1.1,19.8
			c-12.9-0.3-26,5.9-34.7,15.3c-4.5,11.3-8.1,23.4-8.1,35.4c1,9,11.3,11.6,17.8,15.7c16.5,1.9,33.2,9.2,50.3,5.6
			c13.9-3.3,27.3-8.9,40.7-13.6c9.6-3.2,17.1-10.6,24.6-17.1c5.8,4.5,12.4,8.1,17.1,13.6c18.3,3.4,35.7,14,54.7,11.3
			c10.7-2.7,22.1-2.5,32.7-6.2c9.8-3.4,21.6-5.2,28.1-14.2c2.7-12.1-1.2-24.2-4.1-35.7c-3.4-7.6-9.2-14.2-16.4-18.7
			c-6.2-3.4-13.5-3.1-20.5-3.2c0.3-5.5,1.5-10.9,4.3-15.7c0.2-4.8,0.3-9.6,0.3-14.4c2.5,2,4.8,4.3,7.2,6.2
			c-2.7-7.8-5.9-15.7-8.1-23.8c-3.2-12.1-9.1-23.5-9.1-36.3c-1.5-8.5,5.2-15.1,6.2-23.1c3-15.8,2.9-32.1,0.3-47.8
			c3.3,1.5,7.3,1.5,12.1-0.3c31.8-12.3,15.4-81.9,6.5-110.4c0.9-7.7-3.8-15.5-8.4-21.7c-6.7-8.5-19.3-9.3-29.9-8.5
			c0-5.9,0-12.7,0.1-18.3c0,0-0.9,0.3-2.4,0.7c13.6-8.8,23.7-21.6,27.6-37.7c1,0,2,0.9,3,0.9c3-11.2,4-23.4,5.9-35.1
			c0.2-1.9,0.3-3.9,0.5-5.9c4.7-3.3,8.4-7.5,10.6-13.2c3.6-8.9,6.7-17.9,10.3-26.8c0.7-1.8,2.2-3.9,3.9-4.8c2.9-1.6,3.7-3.7,3.7-6.5
			C969.3,385,969.1,383.3,969.2,381.6z M932.4,438.4c-9.1,3.3-18.7,4.3-28.9,4.5c-11.7-0.2-23.5-2-34.8-6.3c-6-2.3-11-5.7-14.6-10.8
			c-1.2-1.8-2.4-3.6-3.5-5.4c1.4,0.7,2.8,1.5,4.2,2.1c-2.1-2.8-5.2-4.4-7.1-7.6c0,0,0-0.1-0.1-0.1c11,2.6,16.4,7.8,27.5,0.6
			c-1.3,3.2-3.4,6-5.1,9c4-2.6,6.8-7.1,10.2-10.5c-1.6,5.4-5.5,8.8-8.7,13.1c4.4-1.4,7.2-5.7,10.6-8.7c-1.1,3.7-4.2,6.3-6.4,9.3
			c9.5-3.6,13.7-12.7,17.7-21.5c3-6.4,10.1-2.9,14.4,0.3c-7.7-26.6-37.9-14.6-56.4-10.3c-2.8,0.8-5.8,1.3-8.8,1.6
			c-0.1-1.1-0.2-2.2-0.3-3.4c-0.3-7,3-12,9.9-15.1c7.2-3.3,14.8-5,22.6-6c4.5-0.3,9-0.7,13.5-1.2c15.4-0.8,30.5,0.3,45.5,3.8
			c0.2,0.6,0.3,1.3,0.3,2.1c0,0.2,0,0.5-0.1,0.7c3,7.8,3.4,16.7,3,24.7c-0.3,7.3-1.3,15-3.7,22.1c0.1,0.6,0.1,1.3,0.1,1.8
			c-0.1,1.2-0.2,2.5-0.2,3.8c0,0.2,0.1,0.5,0.1,0.7c0.1,0.8,0,1.5-0.3,2c-0.1,1.1-0.2,2.2-0.3,3.2c0,0.5-0.1,1.1-0.1,1.6
			C932.5,438.3,932.4,438.3,932.4,438.4z M849.9,406.8c1.2-2,3.7-2.5,5.7-2.9c6.9-1.8,14.1-3.7,21-5.4c2.2-0.3,3.9-0.6,5.8-0.2
			c1.7,0.8,1.2,3.1,0.2,4.2c-3.1,4.1-8.1,6.7-12.9,8.1c-5.4,1.3-11.5,1.6-17-0.5l0,0C851.5,409.4,849.5,408.7,849.9,406.8z
			 M944.7,330.8c0-0.4,0.2-1.1,0.2-1.5c0-1.6,0.5-3.1,1.7-3.9C946.1,327.2,945.5,328.9,944.7,330.8z M699.7,334
			c1.2,0.7,1.8,2.1,1.9,3.7c0,0.4,0.3,1.1,0.3,1.5C701,337.4,700.3,335.9,699.7,334z M713.1,362.4c0.6,0.5,1.2,1,1.7,1.6
			c0.2,0.2,0.3,0.4,0.5,0.6c0.3-0.5,0.7-0.8,1.2-1.1c2.7-8.1,6.7-16,12.3-22.2c0,0,0,0,0,0c-2.9-0.6-5.5-1.9-8-4.1
			c-0.5-0.4-0.9-0.8-1.3-1.2l1-4.2c0,0-1.1,0.9-2.7,2.7c-0.4-0.3-0.8-0.6-1.2-0.9c0.2,0.5,0.5,1,0.8,1.5c-0.6,0.7-1.3,1.5-2,2.4
			c-4.5-4.3-8-10.3-10.8-16.1c0.6,4.3,2.9,8.4,4.6,12.3c-4.5-5.4-7-12.4-8.3-19.6c-0.3-0.6-0.6-1.3-1-1.7c-0.6,1.3-0.9,2.6-1,4
			c-0.5-2-0.5-4.1-0.2-6.1c0,0-0.1-0.1-0.2-0.3c0.5-2.6,0.9-5.8,1.7-8.5c-0.5,0.2-1.1,0.5-1.5,0.5c-0.1-0.1-0.2-0.2-0.4-0.2
			c2.3-3.3,5-6.1,9.1-7.5c2.2-1.2,4.5-1.6,6.7-1.6c2.3,0.1,4.6,0.6,6.8,1.5c5.9,2.8,13.1,4.8,15.8,11.9c0.9-1,2.7-2,3.6-2
			c1.6,1.2,2.5,4.3,2.5,6.3c12.2-16.8,29.1-26.9,47.5-31.7c3.1-0.8,6.2-1.5,9.3-2c32.5-5.9,75.8-3.8,99.2,25.6c0.9,1,4.5-3,9-3
			c0.9,0,1.8-2,2.2-4.1c2-1.1,4-2.5,6.1-3.8c6.3-4,13.1-7.8,20-4.8c4.2,0.9,7.1,3.5,9.6,6.6c-0.2,0.1-0.3,0.2-0.4,0.3
			c-0.3,0-1-0.2-1.5-0.3c1,2.6,1.7,5.8,2.3,8.3c-0.1,0.2-0.2,0.3-0.2,0.3c0.5,2,0.6,4.1,0.2,6.1c-0.2-1.4-0.6-2.6-1.3-3.9
			c-0.3,0.4-0.6,1.2-0.8,1.7c-0.8,7.3-2.7,14.5-6.8,20.3c1.4-4,3.4-8.3,3.7-12.7c-2.9,7.3-6.8,15.1-12.6,19.9
			c-0.5-0.6-0.9-1.1-1.3-1.5c1.1-1.6,2.1-3.3,2.8-5.1c-1.4,1.1-2.5,2.5-3.9,3.9c-1.1-1.2-1.8-1.8-1.8-1.8l0.7,2.8
			c-2,1.8-4.2,3.1-6.6,3.8c-0.5-0.4-1.1-0.5-1.7-0.7c1.4-1,2.7-2.5,4-4c-1.7,1.3-3.5,2.4-5.7,3.2l-0.9-0.3c0.1,0,0.1-0.1,0.1-0.1
			c-1.1,0.3-2.4,1.2-3,1.8l0,0.9c1.5-1,3.6-1.2,5.3,0.5c5.7,5.7,9.3,14,12.2,21.5c0.1,0.2,0.1,0.4,0.2,0.6c0.4-0.2,0.8-0.4,1.2-0.6
			c-0.1-1.5,0.1-2.9,0.3-4.3l4.2,17.3c-4-0.6-8.1-1.2-12.1-1.6c-4.7-0.5-9.4-0.9-14.1-1.1c0.3-0.3,0.5-0.7,0.7-1
			c-0.5,0.1-1.4,0.2-1.9,0.3c-5.6-0.2-11.3,0.2-16.9-0.5c6.4-0.2,12.5-1.5,18.7-2.2c2.2-0.8,1.6-2.6,2.2-3.9
			c-3.2,0.9-6.6,1.4-10,1.9c-1.8-0.1-3.6,0.2-5.4,0.3c4.4-1.4,9.2-2.4,13.6-3.8c0.8-0.4,2.2-0.7,2-1.5c0-2.6-0.1-5.2-1.2-7.7
			c-1.8,0.4-3.6,0.8-5.3,1.3c-21.9,4.9-44.3,9.5-67.7,11.2c-0.4,0-1.1,0-1.5,0c0.7,2.1,0,4.4,1.4,6.3c3.6-0.1,7.2,0.1,10.9,0.2
			c-3,0.7-6.2,1-9.4,1.3c-2.5-0.2-1.5,1.5-0.9,2.3c5,0.8,10.2,0.7,15.4,0.9c0,0,0,0,0,0c-4.7,1.3-9.3,2.8-13.9,4.7
			c-10.4,4.1-21.8,4-32.3-0.1c-19-7.2-38.7-10.6-58.8-10.1c-12.5-0.2-24.6,0.8-36.6,2.5L713.1,362.4z M718.4,340.1l0.6-2.4
			c1.3,1.7,2.7,3.3,4.1,4.9C721.5,342,719.9,341.1,718.4,340.1z M925.6,335.1c-0.6,0.4-1.2,0.7-1.8,1c0.5-0.7,1-1.4,1.5-2.1
			L925.6,335.1z M793,410.1c-5.5,2-11.6,1.7-17,0.5c-4.8-1.4-9.8-4-12.9-8.1c-1.1-1.1-1.5-3.5,0.2-4.2c1.9-0.4,3.6,0,5.8,0.2
			c6.9,1.6,14.1,3.6,21,5.4c2,0.5,4.5,1,5.7,2.9C796.1,408.7,794.1,409.4,793,410.1L793,410.1z M794.2,396
			c-18.5-4.4-48.7-16.3-56.4,10.3c4.3-3.1,11.4-6.6,14.4-0.3c4,8.8,8.2,18,17.7,21.5c-2.2-3-5.3-5.6-6.4-9.3
			c3.4,2.9,6.2,7.2,10.6,8.7c-3.2-4.3-7.1-7.7-8.7-13.1c3.4,3.4,6.2,7.9,10.2,10.5c-1.7-3-3.9-5.8-5.1-9c11.1,7.3,16.4,2.1,27.5-0.6
			c-1.9,3.3-5,4.9-7.2,7.7c1.5-0.7,2.9-1.4,4.3-2.2c-2.1,3.5-4.7,6.8-7.7,9.9c-4.9,5.1-11.9,7.2-18.8,9c-17.1,4.5-34.2,5-51.5,0.5
			c-1-0.3-2-0.6-2.9-0.9c-0.4-2.6-0.8-5.2-0.9-7.8c0.3,0.4,0.6,0.9,0.8,1.3c0-0.2,0-0.5,0.1-0.7c1.9-8.6-1.6-17.8-3.3-26.2
			c-1.4-6.9-2.2-13.7-0.3-20.4c-0.1,0-0.2,0.1-0.3,0.1c0-2.5,0-4.2,0.5-6.3c-0.5-0.1-1.1-0.2-1.6-0.3l0.6-2.7
			c12.8-3.2,26-4.1,39.4-4.5c13.2,0.4,26.4,1.2,39.1,5.6c1.8,0.6,3.5,1.4,5.3,2.2c6.9,3.1,10.1,8.3,9.7,15.2
			c-0.1,1.1-0.2,2.1-0.3,3.1C800,397.3,797,396.7,794.2,396z M697.1,422.9c-3.9-9.8-6-19.9-5.7-30.3c0.2-8.1,3.3-12,11.7-14.7
			c0.4-0.1,0.8-0.2,1.2-0.4c0.1,0.9,0.2,1.9,0.3,2.8c-0.2,0-0.5,0-0.7-0.1c2.1,18.5,2.6,37.3,4.6,56
			C703.3,433.2,699.5,428.8,697.1,422.9z M822.8,783.2c-0.4-1-1.1-1.7-1.7-2.5c-0.3-0.5-1.1-1.1-1.8-1.2c0,0,0-0.1,0-0.1
			c4.3,1.6,8.4,3.1,12.7,4.3c1.8,0.4,3.5,1.1,5.6,1.5c-0.4,0.3-1.1,1.1-1.6,1.5c-1.1-0.3-2.2-0.8-3.2-1.1v0.4
			c-1.3-0.3-2.7-1-4.1-1.1c0.3-0.4,0.3-0.7,0.3-1v0C826.9,783.8,824.7,783.6,822.8,783.2z M829.1,681.3c-3.2-1-6.4-1.5-10-1.8
			c-2.9-0.3-5.9-0.5-8.9-0.5c1.1,1.1,1.7,2.7,1.6,4.1c-9-0.3-17.9-2.5-26.6-5.4c4.5-3.1,9-5.9,13.7-8.7c1.5,0.2,4.3,0.3,5.6,0.5
			c15.7-12.7,33-23.4,48.5-36.2h0.1c32.2-16.6,32.9,26.3,32.2,40.8c-4.1,1.8-7.7,3-11.9,4.1c-10.1,1.1-20.5,1.8-30.4,2.7
			C838.2,681,833.9,681.1,829.1,681.3z M775.5,602.7c1.4-0.6,2.8-1.2,4.3-1.8c-0.4-0.3-0.7-0.6-1.1-0.9c-0.1-0.1-0.3-0.2-0.4-0.3
			l1.3,0c3.4-3.7,8.2-6.1,13.5-7.2c0.7-0.6,1.5-1.1,2.3-1.6l2.7,1.6L836,580c2.6,0.2,5.2,0.5,7.9,1c8.1-1.1,16,1.7,20.7,9.7
			c2.7,4.6,3.3,10.7,2,16.3l8,0.7l-1,0.5c-3.2,3.5-7,7.2-10.9,10c-6.2,4.1-10.7,10.2-16.5,14.6c-11.9,8.8-24.1,17.7-36.2,25.9
			c-3.9,2-7.6,4.1-11.6,5.9c0,0-40.3-28.3-40.4-51.7C763.2,608.6,769.3,605.3,775.5,602.7z M862.5,624.5c-0.5,1.1-1.5,1.8-1.9,3
			c-0.3-0.1-1-0.1-1.3,0C860.4,626.5,861.5,625.6,862.5,624.5z M768.2,525.9c0-0.2,0-0.3,0-0.5c2.4,1.4,4.8,2.8,7.2,4.2L768.2,525.9
			z M741.4,814.4c-1.5,2.4-3.1,4.5-4.7,7c-0.3-4.1-0.5-7.7-1.1-11.8c0.3,0.2,1.1,0.3,1.8,0.5l0.5,7.3c1.3-2.4,2.8-4.3,4-6.3
			c0.3-0.2,0.5-0.3,1-0.4c1.5,2.7,2.7,5.5,4.3,8.1c9.6-7.6,17.2-18.2,31.1-16.4c16.3,0,32.4,0.3,48.8,1.5c0.1,7.8,0.5,15.6,0.9,23.4
			c-23.4,2.8-47,4.2-70.4,2.9c-1.2-0.1-2.5-0.2-3.7-0.2c1.9-5.3,6.5-9.7,10.3-13.8c-1.3-0.2-4.1-0.3-5.2-0.5
			c-3.4,4.2-7.1,8.2-10.5,12.4L741.4,814.4z M769.3,852.1c-0.4-0.1-0.8-0.2-1.3-0.3c-5.5-5.9-14.3-6.6-21.8-8.7c0-0.4,0-0.8,0-1.2
			C754.4,844.1,763.9,844.9,769.3,852.1z M830.9,878.5c-5,10.9-17.8,12.9-27.7,17.1c-12.1,5.4-24.2,10.5-36.7,14.1
			c-3.3,0.3-7,0.3-10.4,0v-0.2c-1,0.1-1.7,0.1-2.7,0.1c-0.2,0.4-1,1-1.5,0.3l-0.5-0.3c-1,0-1.8-0.1-2.7-0.1c-1.1,0-1.3-1.1-1-1.8
			c-0.8-0.3-1.5-0.4-2.5-0.8c-0.1,0.1-0.1,0.2-0.2,0.3c-3.1-0.9-6.1-1.7-9.6-2.6c-1.8,1.4-4.8,1.1-6.2-0.7c-4-0.9-8.1-1.7-11.8-3
			c-1-0.2-1.8-0.3-2.8-0.8v-0.5c-0.6-0.3-1.1-0.6-1.7-1c-0.4,0.1-0.7,0.2-1.1,0.2c-2.3,0.1-4.3-2-4.2-4.2c0-0.4,0-0.8,0.1-1.3
			c-0.7-1-1.2-2.1-1.6-3.4l-1.1,3.5c-0.2-2.1-0.3-4.2-0.3-6.3c0.4,0.1,0.9,0.2,1.4,0.5c19,10.3,39.8,19.9,62,15.8
			c10.5-1.9,21-5.8,30.8-9.7c10-4,19.6-9,28.4-15.2c1.3-0.9,2.5-0.9,3.5-0.5C831,878,831,878.2,830.9,878.5z M960.4,887.5
			c-0.4,0.3-1.1,0.5-1.8,1.1c-0.3-1-1.1-1.8-1.5-2.7c-1.2,0.5-2.7,1.5-3.8,2l-0.3,0.3c-0.2-0.7-0.5-1.4-0.7-2.1
			c-0.5,0.6-1.1,1.2-1.8,1.5c0.2,0.7,0.5,1.4,0.7,2.1c-1.1,0.5-2,1.1-3.1,1.5c0.1,0.3,0.2,0.5,0.2,1.1c-3.2,0.8-6.3,1.6-9.8,2.7
			c-0.2-0.3-0.3-0.4-0.3-1c-3.4,1-7.2,1.5-10.6,1.8c0.2,0.5,0.2,1.3,0.3,1.8l-1,0.2v-0.2c-0.1-0.5-0.2-1-0.4-1.5
			c-0.8,0.5-1.6,0.7-2.5,0.7c0.1,0.5,0.2,1,0.3,1.5v0.1c-2.4,0.5-4.5,1.1-7,1.7c-0.2-0.3-0.3-0.5-0.5-1.1l-2.4,1.1
			c-3.4,1.5-7.3,2.7-11,2.7c0.2,0.1,0.3,0.2,0.5,0.3c-5.9,0.5-12.1,0.3-17.1-3c-2.7-0.1-4.7-1.1-6.2-2.5c-1.8-0.5-3.4-1.3-5.4-2
			c-3.8-0.4-7.4-1.5-11-2.5c-10.6-1.8-19.4-8.4-28.3-14.2c-0.3-1.4-0.6-2.9-0.9-4.3c1.3-0.6,2.9-0.4,4,1.2c0.2,0.3,0.5,0.6,0.7,0.9
			c0.7-0.1,1.5,0,2.3,0.4c12.3,5.6,22.7,14.9,36.4,16.8c12.4,1.8,25.1,2.1,37.6,1.4c0.4,0,0.7,0,1,0.1c3.3-0.7,6.5-1.5,9.8-2.3
			c5.3-1.3,10.8-2.3,15.9-4.2c5.9-2.2,12.3-6,18.7-6.4C961.3,884.1,960.9,885.8,960.4,887.5z M932.3,833.3
			c10.2-0.4,19.4,6.6,24.2,15.1c2.9,8.9,5.7,18.4,5.7,27.7c-0.2-9.1-2.9-18.2-5.8-26.9c-4.9-8.7-14.3-15.8-24.7-15.4
			c-10.3,2.1-20,6.1-29.3,10.3c-0.1,0.1-0.3,0.1-0.4,0.2c0.6-0.3,1.2-0.6,1.7-0.9C912.8,839.3,922.2,835.3,932.3,833.3z
			 M913.3,812.2c-0.2,0.7-0.7,1.1-0.8,1.3c-0.1-0.4-0.1-1.1-0.2-1.8C912.6,812,912.8,812.1,913.3,812.2z M917,818.9
			c1.5-2.8,3.1-5.6,4.8-8.2c0.3,6.2,0.3,12.7,0.2,19.2c-10.9,5.2-23.1,9-31.1,18.9c2.2-0.1,4.1-0.9,6-1.8c-2.4,1.3-4.8,2.4-7.6,2.6
			c8.1-10.1,20.6-14,31.8-19.3c0-2.7,0.1-5.5,0.1-8.2c-4.9,1.7-9.9,2.9-15,3.9L917,818.9z M907.5,806.4c1.1,2.2,2.4,4.3,3.2,6.2
			c-1.4,4.6-3,9-5,13.5c-0.2,0-0.4,0.1-0.6,0.1l-0.8,0.5c0.1-0.1,0.1-0.3,0.2-0.4c-1.5,0.3-3,0.6-4.4,0.8
			c-9.2,1.7-18.2,4.1-27.4,5.4c-12.9,1.8-25.9,1.7-38.9,2.1c-1.2,0-2.1-0.3-2.8-0.9c-0.5-14.8-0.1-29.7,0.4-44.4v0l1.1,0.3v0.3
			l-0.2,0.2c-1.3,1.3-1.1,3.2,0,4.6l0.1,0.1l-0.3,9.2c14.8,1.1,29.6,2.4,44.6,4.1C886.7,809.4,897.2,808,907.5,806.4z M931.9,445.2
			c-0.6,32.6-19.6,64.5-54.9,74.2c-1.6,0.9-3.6,2-5.7,3.1c-6.2,3.4-13.4,7.4-13.4,7.4c-1.1-2.5-2.4-4.9-3.7-7.4
			c0.1,0.1,0.1,0.1,0.2,0.2c5.8-5.9,12.5-11.1,16.2-17.7c2.2-2.8,4.1-5.7,5.8-8.7c4.9-9,7-19.3,2.7-32.6c-1.6-3.6-3.2-6.8-4.7-9.8
			c-1.3-2.4-2.5-5.3-4-7.8c-1.5-2.5-3.3-4.6-5.8-5.3c1.4,1.9,2.9,4.3,4.3,7c2.8,5.5,5.4,12.3,6.6,18.9c0.6,3.3,0.8,6.5,0.6,9.5
			c-0.5,3.4-1.1,7.7-3.8,10.5c1.8-1.3,3.5-2.7,5.1-4.2c-6.2,13.5-12.2,34.7-24.4,37.8c-0.7-1.3-1.3-2.5-1.9-3.8
			c0.9,6.1,2.1,12.2,2.9,18.3c0,0.1,0,0.1,0.1,0.2c-0.2,0.3-0.3,0.5-0.3,0.7l-2.8,8.3c-1.2,0.8-2.3,1.5-3.5,2.3c0,0.3,0,0.7,0,1
			c0,3.9-4.4,5-6.8,3.4c-0.6,0.4-1.3,0.8-1.9,1.2l-6.1-18.4l2.2,20.8c-3.1,1.9-6.3,3.8-9.5,5.7c-1.1,0.7-2.5,1.1-3.7,1.6l0,0.2
			c-0.6,0.2-1.7,0.5-2.3,0.7c-3-1.8-5.8-3.7-8.7-5.5c0,0,0,0-0.1-0.1c0-0.4,0-0.9-0.1-1.3c-0.4,0.2-0.8,0.3-1.2,0.3
			c-0.8-0.6-1.6-1.3-2.4-1.9l2.5-24.4l-4.9,22.7c-4.1-3.1-8.2-6-12.2-8.6c-0.8-3.1-0.2-6.5-0.7-9.7c-0.9,2.6-1.7,5.2-2.4,7.8
			c-0.9-0.5-1.7-1-2.6-1.5c-0.2-0.3-0.2-0.6-0.2-1c0-7.4,1.1-14.7,2.4-21.9c0,0,0-0.1,0.1-0.1c0,0,0,0,0,0c0.6-3.3,1.2-6.7,1.8-10
			c-0.3-0.1-0.9-0.2-1.2-0.2c-1.1,2.8-2,5.7-2.9,8.7c-0.1-0.1-0.1-0.1-0.2-0.2c-6.2-5.6-10.3-12.6-12.6-20.7c-1-2.8-2-5.6-2.8-8.4
			c-0.9-2.8-1.6-5.7-2.3-8.5c1.8,1.3,3.4,3.1,5.1,4.9c-0.1-0.2-0.3-0.5-0.4-0.7c-1.8-3.1-3.1-7-3.7-11.1c-1.2-9.7,1.7-20.6,6.7-27.5
			c-4.1-1.5-8.1,2.6-9,8.1c1-1.4,2-2.7,3-4.1c-1.9,11-10.9,19.1-7.7,31.6l1-1.4c3,5.4,6.1,10.9,5.4,17.5c0.2-0.9,0.9-1.1,0.9-2.2
			c0.9,3,2.1,5.7,3.6,8.3c3.6,5.6,8.2,11.3,12.2,17.4c-0.8,2.7-1.6,5.5-2.4,8.2l-0.1,1.1c-2.8-1.5-5.5-3.1-8.1-4.9
			c0.1-0.6,0.3-1.3,0.4-1.9c-1.8,0.5-4.1-0.1-5.5-1.5c0,0.1-0.1,0.1-0.1,0.2c-2.5-1.3-5-2.7-7.4-4.2c-4-1.1-7.6-2.4-10.8-4.1
			c-3.2-1.6-6-3.6-8.5-5.7c-8.3-7-13.7-15.3-17.5-24.3c-1.2-3-2.3-6.1-3.2-9.3c-2.4-10-5.6-19.5-7.7-29.3c2.1,0.7,4.2,1.3,6.5,1.7
			c17.3,3.4,34.4,1.5,51.4-1.9c13-2.6,23.1-11,27.7-22.9c0.4-1,0.8-2,1.2-3c0.8-0.3,1.6-0.6,2.4-0.9c0.2-0.1,0.4-0.2,0.6-0.3
			c2.5-5.6,3.7-11.5,3.8-17.5c0.2-0.6,0.4-1.2,0.6-1.8c1.7-5,4-6.9,9.6-7.4c1.7-0.2,3.4-0.1,5.1-0.1c8.1,0.1,10.7,2.2,12.9,9.4
			c0.1,0.2,0.1,0.3,0.2,0.5c0.2,5.8,1.4,11.5,3.8,16.9c0.2,0.1,0.4,0.2,0.6,0.3c0.4,0.1,0.8,0.3,1.1,0.4c0.7,1.8,1.5,3.6,2.4,5.4
			c5.9,11.4,13.7,16.7,27.3,20.9c10.4,3.2,20.2,4.4,31.2,4.4c8.4,0,17.9-1.2,25.7-3.7c1-0.3,2-0.7,3-1.1
			C932.1,443.3,932.1,444.3,931.9,445.2z M946.1,427.2c-1.4,2.4-3.1,4.5-5.1,6.2c0.2-2.5,0.3-5,0.5-7.5c0.2-2.8,0.4-5.6,0.5-8.5
			c0.1-2.8,0.2-5.7,0.1-8.6c0.4-2.5,0.7-5.1,1-7.8c0.9-7.8,1.3-15.7-0.5-23.1c8.5,2.7,11.5,6.7,11.4,15.4
			C954.1,405.1,952,416.6,946.1,427.2z"/>
	</g>
</g>
</svg>
