<?xml version="1.0" encoding="utf-8"?>
<!-- Generator: Adobe Illustrator 25.3.1, SVG Export Plug-In . SVG Version: 6.00 Build 0)  -->
<svg version="1.1" id="Capa_1" xmlns="http://www.w3.org/2000/svg" xmlns:xlink="http://www.w3.org/1999/xlink" x="0px" y="0px"
	 width="800px" height="600px" viewBox="0 0 800 600" style="enable-background:new 0 0 800 600;" xml:space="preserve">
<style type="text/css">
	.st0{fill:#CDCCCC;}
	.st1{fill:#020203;}
	.st2{fill:#FFFFFF;}
</style>
<ellipse class="st0" cx="527.3" cy="521.5" rx="94.5" ry="23.3"/>
<g>
	<g>
		<path class="st1" d="M643.3,359.8c0.9-0.9-0.5-2.8-1.6-2.1C640.7,358.5,642.1,360.3,643.3,359.8z M645.7,358.3
			c-0.7,0.9,0.2,2.8,1.3,2.2C648.2,359.9,647,357.3,645.7,358.3z M653.3,361.8c0.3-1.1,0-1.8-1.3-1.3
			C651.4,361.8,652.2,362.3,653.3,361.8z M625.2,363.3c-0.2,0.1-0.5,0.2-0.6,0.6c-0.2,0.2-0.4,0.3-0.6,0.5c0.3,1.8,0.6,5,3.2,4.9
			c2.6-0.9,3.5-3.9,4.2-6.2l-1.6,0.9c-0.6,1.5-1.6,2.6-3.1,3.5C625.7,366.2,625.3,364.8,625.2,363.3L625.2,363.3z M626.5,371.4
			c2.9-0.3,5.4-2.4,6-5l-0.5,0.3C629.9,368.1,627.9,369.6,626.5,371.4z M658.5,367c-0.5,1-1.1,1.9-1.6,2.6c-1.3-0.7-2.2-2.1-3.3-3.1
			c0.5,1,1,2.2,1.5,3.2l-2.3,1.3c0.9,0.3,1.8,0.7,2.4,0.9c0.2-0.6,0.5-1.1,0.7-1.6C658.1,371,659.6,369.1,658.5,367z M614.6,372.8
			c-2,0.5-2.5,2.8-3.2,4.4l0.4-0.2C614,376,615,374.4,614.6,372.8L614.6,372.8z M616.9,376.4c-0.5-0.2-1.1-0.6-1.5-0.9
			c-0.7,0.9-1.6,1.7-2.3,2.6c0.5,0.4,1.1,0.7,1.6,1l0.2-0.1C615.6,378,616.2,377.3,616.9,376.4L616.9,376.4z M661.6,379.1
			c-1,0.9,0.3,3.1,1.6,2.3C664.2,380.3,662.8,378.2,661.6,379.1z M605.8,386.9c3.3-0.9,5-4.4,5-7.3c-1.9,1.8-4.1,4.2-5.4,7.3H605.8z
			 M662.5,384.2c0.2-1.2-1.8-2.8-2.9-2c-0.2,1.3,1.8,2.4,2.9,2.2V384.2L662.5,384.2z M631.3,385.4c1.5,0.5,3.3,1,5.3,1
			c2,0.1,4-0.6,5.1-2.5c-2.5,0.4-5.3,0.8-7.9,0.6c-0.6-0.6-1.6-1.3-2.2-1.9C631.5,383.5,631.5,384.6,631.3,385.4z M613,383.2
			l-0.4,0.2c-2.5,1.8-4.1,3.8-4.7,6.2C610.6,388.9,612.8,386.1,613,383.2L613,383.2z M750.5,386.7c1.1-0.5,2.4-0.9,2-2.4
			c-1.1,0.3-2.1,0.6-3.1,0.9C749.7,385.6,750.2,386.1,750.5,386.7z M643.6,387.3c0.6,0.2,1.4,0.3,2,0.3c2.1,0,4-0.9,5.4-2.6
			c-2.4,0.2-4.9,1.3-7.3,0C643.6,385.7,643.6,386.6,643.6,387.3z M652.1,385.2l-1.6,1.3c1.2,1.1,2.8,1.6,4.4,1.3
			c1.2-0.2,2.1-1,2.6-2C655.7,386,653.8,386.4,652.1,385.2z M610.5,391.7c2.4-0.3,4.6-2,5.5-4.5h-0.2
			C613.4,387,611.7,389.5,610.5,391.7z M643.2,390v-1.7c-1.5-0.2-3.1-0.3-4.6-0.6C638.6,390.5,641.3,389.8,643.2,390L643.2,390z
			 M638.3,390.5l-0.6-0.1c-1.9-0.2-3.8-0.9-5.4-2C632.7,391.3,636.1,392,638.3,390.5L638.3,390.5z M647.6,390.9
			c2.4,0.9,5,0.9,5.9-1.6c-2,0.1-3.9-0.1-5.8-0.6L647.6,390.9z M664.1,392.5c-0.6-1.6-1.2-3.6-3.1-3.1l0.1,0.2
			C661.5,391.1,662.6,392.1,664.1,392.5z M642.8,391.5c0.6,2.9,3.9,1.8,6.1,1.9l-0.5-0.3C647,392.1,645,391.7,642.8,391.5z
			 M662.7,395.3c-0.5-1.8-2-3.4-3.7-4.2c0.6,2,2,3.5,3.9,4.6L662.7,395.3L662.7,395.3z M675.2,394.1c-0.8-1.5-2-2.4-3.6-2.6l0.1,0.2
			C671.8,393.1,673.4,394,675.2,394.1z M674,395.6c-1.3-0.4-2.6-0.8-4-1.1c0.8,1.7,2.4,2.4,4,3.1V395.6z M681.8,394.9
			c-0.3,1.3-0.3,2.7,0.2,3.6c0.4,1,1,2.3,2,2.6c1.5,0.5,3.1-1.1,3.3-2.6c0.4-1.4-0.2-3.2-1.1-4.3c-0.6,1.7,0.4,4.6-1.6,5.3
			c-2.2-0.4-1.6-3.5-2.4-5l-0.2-0.5L681.8,394.9L681.8,394.9z M693.7,402.8l0.1,0.9c-0.6,1.5-1.4,3.1-2.1,4.6c0.8-0.6,1.7-1,2.6-1.6
			c1.8,1.5,6.1,3.3,9,1.4c1.8-3.1,0.7-6.9,0.2-10.3l-0.6,0.2v-2.9c-1.4-0.2-2.8-0.2-4.3-0.4l0.5,0.3c0.6,0.6,2,0.7,2.6,1.6
			c-0.6,0.2-1,0.6-1.4,0.9c0.9,0.3,1.8,0.9,2.4,1.6c-2-0.5-5.9-0.9-5.8,2c1.8,1.7,4.2,1.8,6.5,2c-0.3,1.2-0.9,3.3-2.9,4.3
			C697.4,407.7,694.4,405.7,693.7,402.8L693.7,402.8z M662.5,398.8c-1.5-2-3.3-3.4-5.4-4.2c1.3,2.4,3.2,4.1,5.7,4.6L662.5,398.8
			L662.5,398.8z M707.2,396c0,2.1,0.2,5.2,3.1,6.6c0.6-0.7,1.5-1.6,2.1-2.3c0.2-1.7,0.2-3.5-0.3-5c-0.3,1.6-0.6,3.3-0.9,4.9
			c-1.7,0-2.6-1.4-3.3-2.9C707.7,396.8,707.5,396.4,707.2,396z M635,397c0.6,2,2.1,3.7,4.1,2.8l-0.2-0.2
			C637.8,398,636.5,397.3,635,397z M669.6,398.3l0.2,0.2c1.5,1.6,3.2,1.6,5.1,1.3C673.7,398.4,671.6,397.9,669.6,398.3z
			 M679.1,398.2c-1.6,1.9,1.1,4.1,2.9,4.3C681,401,680.2,399.6,679.1,398.2z M723.8,454.2c0,0.5,0.4,0.9,0.9,0.9
			c1.6,0.1,2.4-3.8,0.1-2.8C724.2,452.5,723.6,453.4,723.8,454.2z M731.3,451.4c-0.6,0.4-1.1,1.3-0.9,2c0,0.5,0.4,0.9,0.9,0.9
			C732.7,454.4,733.5,450.4,731.3,451.4z M621.7,404.2c-0.9-1.2-2-2.7-3.7-2.4c0.9,1.6,1.8,3.8,4,2.8L621.7,404.2L621.7,404.2z
			 M606.5,406.4c-0.4-1.3-0.9-2.4-2.3-2.9C603.5,405,604.9,406.3,606.5,406.4z M612.7,404.2c-0.9,0.8-0.2,2.8,1.1,2.6
			C615.5,406.3,614.2,402.9,612.7,404.2z M681.1,435.9c-0.6,1.7,2.4,2,2.8,0.6C684,435,681.7,434.9,681.1,435.9z M630.4,452.2
			c-0.6-0.8-0.9-1.7-1-2.6c0.7-0.4,1.3-0.9,1.8-1.3c-0.9-0.1-1.6-0.2-2.4-0.3l-0.2-0.6l-0.2,0.6c-0.2-0.1-0.5-0.1-0.7-0.2
			c0.1,0.6,0.1,0.9-0.1,1.4v0.4c-1.3,1.7-3.5,2.7-5.9,2.6c-2-0.9-2.7-3-2.9-4.3c2.4-0.2,4.9-0.4,6.5-2c0.1-2.9-3.9-2.3-5.8-2
			c0.8-0.7,1.6-1.3,2.4-1.6c-0.5-0.2-0.9-0.6-1.4-0.9c0.5-0.7,1.9-0.9,2.6-1.6l0.5-0.3c-1.5,0.1-2.8,0.2-4.3,0.4v2.9l-0.6-0.2
			c-0.4,3.5-1.6,7.1,0.2,10.3c3.4,2,7.3-0.2,9-1.3c-0.2,0.5-0.7,0.8-1,1.1c0.5-0.2,1.1-0.2,1.6-0.4c1.3,1.3,2.8,1.5,4.2,0.6l2,1.9
			c0.5-0.3,1.2-0.8,1.6-1c0.9,0.2,1.8,0.6,2.8,0.6c1-1.5,0.7-3.5,0.9-5.1c-2.8,0.1-5.9,0.1-9.3-0.2c0.4,0.5,0.8,1,1.1,1.6
			C631.3,451.4,630.8,451.8,630.4,452.2L630.4,452.2z M641.9,441.5c-0.9,0.9-1.4,2.4-2.8,2.3c-1-1.2-1.9-2.5-2.9-3.8
			c-0.2,2.5,0.9,5,2.9,6.1C641.2,444.8,642.2,443.3,641.9,441.5z M617.5,439.3c-0.6,0.6-1.1,1.7-2,1.6c-0.6-0.8-1.3-1.7-2-2.6
			c-0.2,1.7,0.5,3.5,2,4.3C617.1,441.9,617.7,440.8,617.5,439.3z M718.7,466.4c-0.9,0.6-1,2.6,0.4,2.6
			C720.4,468.8,720.4,465.5,718.7,466.4z M700.6,492.8c-0.9-0.1-1.7,1-1.2,1.8c0.2,0.4,0.6,0.7,1.1,0.7c0.4,0,0.7-0.2,0.9-0.6
			C702.2,493.9,701.5,492.9,700.6,492.8L700.6,492.8z M685.3,493.3c0.4-1.3,0.5-2.6,0.4-3.9C684,490.3,683.3,492.6,685.3,493.3z
			 M682.5,493.2c0.3-1.3-0.1-2.7-0.4-3.8C680.6,490.4,680.4,492.7,682.5,493.2z M700.3,491.7c1-0.1,2.4-0.2,2.6-1.6
			c-0.9-0.2-1.7-0.3-2.6-0.5l-0.2,2.1L700.3,491.7z"/>
		<path class="st1" d="M591.7,508.1c-0.9,1.4-2,2.8-4.6,3.3c1-0.9,2.1-1.9,3.6-2.8c1.2,2,2.8,3.1,4.7,3.5l-1.6-2.3
			c1.2-0.2,2.2-0.2,3.1-0.4c3.1-1.7,5.4-4.6,7.5-7.3c1.7-2.2,3.4-4.6,5.7-6.2c4.2-3.9,10.6-3.4,15-1.3c4,2,6.9,5.7,9.5,9.5
			c2,2.8,2.8,6.1,4.9,8.7c-0.2-1.7-0.3-3.1-0.9-5.1c3.1-1.7,6.3-0.6,8.7,1.2l0.3-0.3c0.3-0.3,0.7-0.6,1.1-0.9
			c-0.3-0.5-0.6-0.9-0.9-1.3c2.7-2.4,4.9-5.4,8.3-6.5c4.6-1.6,8.6-1.7,11.7-0.2c4.9,2.4,8.2,6.8,12.2,10.5c0.9-2.9,1.2-6,1.6-8.9
			c0.2-0.9,1.8-0.9,2.8-1.1c-0.4,3.2-0.7,6.3-1,9.4c0.3,0.2,0.7,0.6,0.9,0.9c0.6-3.1,1.3-7.1,1.6-10.9c1-1,2-1.9,2.8-2.6
			c-0.6,4.6-1.9,9.3-2.6,13.9c4.1-0.6,7.9-2.5,12.2-2.6c6.5,0,13,0.2,18.3,3.8c1.2,0.8,2.4,1,3.8,1.3c-2.4-3.6-6.8-5.1-11.3-6.1
			c-0.2-0.2-0.3-0.5-0.5-0.6c2.2-6.5,6.9-11.8,12.5-14.1c4.1-2.1,8.9-1,12.2,0.3c-0.9,2.5-1.7,4.8-1.6,7.2c0.1,2.4,1.3,4.7,1.7,7.3
			c-0.4,2.8-3.6,3.6-6.2,3.3c0,0.2,0.1,0.5,0.2,0.7c2.3-0.1,5.3,0.6,6.6-2c0.6,1,0.9,2.4,2.2,2.6c-0.3-2.7-1.6-5.3-1.7-8.2
			c1.6,0.9,2.5,2.2,3.5,3.8c0.9,1.5,2,3.1,3.8,4c3.6,0.6,6.7-1.7,9.6-3.5c1.5,0.6,3.1,1.5,4.6,1.1c-0.9-1-2.4-3-4.5-2.3
			c-2.5,0.9-4.4,3.4-7.2,3.2c-2.4,0.2-3.6-1.7-5-3.6c-1.2-1.8-2.4-3.8-5-3.9c0.2-3.2-0.1-6.6,1.5-9.5c3.2-5.8,10-9.4,16.6-8.7
			c6.2,0.4,11.7,3.7,16.4,6.6c-3.2,1.7-6.2,3.5-8.9,5.6l1.3,1.6c9.2-7.1,19.8-10.2,30.3-11.3c0-0.6,0.2-1.2,0.2-1.8
			c-7.3,0.7-14.2,2.4-20.2,5c-4.6-4.2-11.2-6.1-16.8-7.3c-1.1-3-2.3-6.1-4.9-8c-3.1-2.8-7.4-4.1-13.2-4.3c0.3-5.4,1.6-10.8,0.3-16.2
			c-0.8-3.9-2.4-7.5-4.9-10.7c-2.3-3.2-6.3-4.3-9.6-4.9c-0.1-1.3-0.2-2.5-0.3-3.8c2.5-0.5,4.4-2.4,6.3-4c6.1-5.3,8.7-13,13.6-19.4
			c2.7-1.2,6.1-1,8.2-3.6c0.7-2.5-1.2-6-3.8-6.8c0.3-1.2,0.6-2.4,0.9-3.5c6.3-0.9,6.9-2.8,7.9-8.7c0.2-0.9,0.2-1.7,0.5-2.5
			c-0.1,0-0.1-0.1-0.2-0.2c0.6,0.7,1.3,1.3,1.9,1.8c-0.1-1.5-0.5-3-1.1-4.1c0-0.6,0.1-1.4,0.1-1.9c-1.2-0.1-2.7,0.5-3.6-0.2
			c-1.7-1.2-3.5-2.5-5.5-1.5c-2.8,1.6-4.9,4.4-5.4,7.6c-0.1,1.9,0.1,3.7,0.2,5.5c-1.2,0.6-2.5,1.4-3.8,2.1c1.7,0.8,3.5,1.5,5.1,2.1
			c0.1,0.9,0.2,1.7,0.2,2.6c-3,0.6-6.3,0.6-8.9,2.5c-6.1,4-8.5,11.4-13.8,16.3c-0.8-5.7-0.5-11.3-1.1-16.8
			c-0.5-4.1-1.1-8.3-1.3-12.4c-0.2-2.2-0.6-4.8-2.8-5.7c-1.3,0-2,0.7-2.9,1.6c-0.5,0.4-0.9,0.8-1.4,1c-2.3,0.2-4.5-0.1-6.8-0.2
			c0.1-1.1,0.1-2.4,0.1-3.9c0.9-0.9,1.6-1.9,2.4-2.9c-0.6-0.4-1.1-0.9-1.6-1.3c-1.2,2.4-3.9,3-6.1,4.3c1,0.7,2,1.6,2.9,2.2
			c-1.2,0.4-2.4,0.8-3.8,1l0.2-1.6c-1.2,0.5-2.4,0.9-3.5,1.3c-0.4-1.7-0.8-3.4-1.3-5.3c3.5-2.3,7-4.3,11.2-2.9
			c0.7,0.2,1.6,0.3,2.3,0.5c-1-1.3-2-2.8-3.6-2.9c-3.5,0.2-6.4,0.9-9,2.3c-1.5,0.9-3.5,0.9-5.1,1.1c-1.8-1.6-8-6.1-13.1-2.9
			c0.4,2.3,1.6,4.5,3.5,6.5c-0.6,0.9-1.1,1.9-1.6,2.8c-1.2,0.2-2.4,0.2-3.8,0.4c-1.7-2.4-3.8-5.7-7.1-4.1c0,2.1,0,4,0.2,6
			c-0.5,0.6-0.9,1.1-1.3,1.6c-0.6-4.7-1.5-9.4-1.6-14.2c0.9-1.3,2-2.2,2.8-3.5c0.7-1.9,0.3-4,0.1-6c-1.9-1.1-5.1-1.4-6.1-3.6
			c1.5-3.9,3.6-7.3,4.6-11.2v-0.2c-0.2-0.7-0.5-1.2-0.7-1.8c-2.1,1.7-3.7,4.8-6.8,4.6c-0.2,1.3-0.8,2.4-1.7,3.5
			c-9.9-1.9-20.1-3.9-30.3-5.1c-0.3,0.2-0.7,0.2-1.1,0.2c-1.2,0-2-0.5-2.6-1.1c-0.1,0.1-0.1,0.2-0.2,0.3c-1.7-2.5-3.6-5.2-6.1-8.5
			l0.9,0.2c-1.2-0.5-1.7-1.6-1.9-2.7c-0.3-0.1-0.6-0.1-0.9-0.2c0.1,0.6,0.1,1.4-0.2,2c0,0,0.1,0.1,0.2,0.1
			c-0.4,3.7-0.4,7.6,0.1,11.7c-0.9,1.3-1.6,2.4-2.4,3.5c-2.1-0.7-4.4-2.1-6.6-0.9c-1.8,1.1-4.1,3.4-4.3,6c2.1-1.7,3.9-4.7,6.8-4.5
			c1,0,1.9,0.6,2.6,1.1c-1.2,2.2-2.5,4.3-3.8,6.6c-0.3-0.1-0.6-0.1-0.9-0.2c0.1,1-0.1,2-0.6,2.6c0.2,0.1,0.3,0.1,0.6,0.2
			c-1.4,3.9-2.8,7.9-4.3,11.6c-0.2-0.2-0.6-0.3-0.9-0.6c0.1,0.2,0.1,0.5,0.1,0.7c0.1,0.6,0,1.2-0.2,1.7c0.2,0.1,0.4,0.2,0.6,0.3
			c-2,5.3-4.4,12.4-6,19.7c-0.3-0.1-0.8-0.1-1.2-0.1c0,0.2-0.1,0.6-0.2,0.9c0,0.4-0.1,0.7-0.2,1.1c0.4,0,0.9-0.1,1.3-0.1
			c-0.7,4.6-2,9-2.9,13.5l1.8,1.1c0.7-3.7,1.2-7.4,2.6-11c1.4,5.1,2.7,10.5,6.1,14.6c0.6,1.1,2.1,1.2,3.2,0.6c1.5-0.5,1.8-2,2.4-3.1
			c0.7,1.1,1.6,2.2,2.6,3.1c2.4,0.8,3.8-2.3,4-3.9c1.5,2,2.7,3.4,3.8,4.9h2.5c1-1.3,1.9-3,2.4-5c1.3,1.4,2.3,2.8,3.3,3.9
			c1.5-0.2,3.5,0.7,4.3-0.9c0.9-1.2,1.1-2.7,1.4-4.1c1.9,1.5,3.5,3.9,6.2,3.5c2.8,0.2,3.1-3.1,3.3-5.1c1.9,1.3,4.1,2.7,6.5,1.6
			c1.7-0.6,1.3-2.4,1.8-3.8c2.4,0.6,4.6,0.9,6.8,0.6c2.2-1,4.6-3.1,4.6-6c-2.6-1-5.2-1.7-7.7-2.9c-5.1-3-8.7-7.6-13.5-10.9
			c-11.3-4.9-26.7,9.8-41.4,3.1c0.5-4.2,1.9-8.3,3.3-12.1c2.7-8.3,5.8-16.4,10.7-24.2c0.3,0.2,0.8,0.9,1,1.1
			c-1.9,7.2,2.2,13.1,9.9,13.8c3.5,0.5,9.9,0.2,14.1-4.2c2.1-1.7,2.2-4.4,2.8-6.9c3-0.9,6.1-0.6,8.7,0.5c-0.2,0.8-0.4,2-0.6,2.8
			c-1.5-0.5-3.1-0.9-4.4-2c-0.6,0.6-1.4,0.9-2,1.4c0.9,0.4,1.6,0.7,2.4,1.1c-1.8,1.8-0.5,4.4,0,6.5c0.5-0.9,0.8-1.9,1-2.9
			c0.4,0.4,0.8,0.9,1.1,1.3c-0.2,0.6-0.7,1.4-1.1,2.1c2.2,1.7,4.2-0.5,5.1-1.6c3.2,2.4,7.3,2,11.3,1.5c0.9,4.9,1.2,9.8,2,14.6
			c0.9,3.2-1,6.5-1.1,9.7c-0.1,3-0.4,5.8-0.6,8.7c-0.6,5.8-1.1,12-0.9,17.9c-1.1,13.5-0.6,27.1-3.1,40.4c-0.3,2.4-0.2,4.8-0.9,7.1
			c-0.6-2-0.9-4-1.3-6c-2.1-12-7.2-24.8-14-33.4c0.9-1.4,2.1-2.8,1.6-4.6c-0.6-2.6-3.1-4.4-6.1-4.2c-0.8,1.3-1.7,2.4-2.6,3.9
			c-5-1-10.2-0.9-15.3-1.1c-0.2-1.6-0.7-2.8-1.3-4.2c-1.3-0.1-2.6-0.2-3.9-0.2l-0.1,0.1c-1.2,1.2-1.7,2.4-2.3,3.8
			c-0.6,1.3-1.2,2.8-2.5,3.8c-2.7,2.7-3,6.3-3.3,9.9c-1.1,12.7-3.2,25.2-6.6,36.8c-2.6,9.8-3.8,19.6-6.7,29.4
			c-1.8-1.8-2.4-4.3-2.1-6.9c-1.7,0.9-1.7,2.4-1.3,4c0.7,0.6,1.2,1.7,0.9,2.6c0.1,0.2,0.2,0.4,0.2,0.6
			C592.1,508,592,508,591.7,508.1L591.7,508.1z M648.3,368.4c1.5,1.8,3.5,3.9,2,6c-0.2,0.1-0.3,0.1-0.5,0c-0.2-0.2-0.4-0.6-0.5-1.1
			c-0.2-1.3-1.1-2.2-1.8-3.1c-0.2-0.2-0.4-0.4-0.6-0.6C647.4,369.3,647.9,368.8,648.3,368.4L648.3,368.4z M600.6,408.3
			c0.2-0.3,0.5-0.6,0.7-0.9c1.3,2.4,3.5,4.1,5.5,5.6c1.6,1,1.1,3.4,0.9,5c-0.9-1.1-1.7-2.7-2.9-3.5c0.2,1.6,1,2.8,1.9,4.1
			c0.2,0.3,0.4,0.6,0.6,0.9l-1.5,1C603.2,417.4,601.4,413.3,600.6,408.3z M599.8,398.7c1.5,2.4,4.3,2.4,6.9,2.4
			c10.9,1.2,20.1-6.1,30.8-6.1c2.4,0.3,4.9,2,7.3,5c0.1,0.6,0.2,1.1,0.2,1.6c0.1,1.3,0.3,2.8,1.4,3.8c0.1-1,0.1-2.5,0.2-3.6
			c4.4,3.9,9.4,6.6,14.4,7.7c-0.6,0.7-1,1.7-1.6,2.3c-3.9-2-8.2-3.8-11.6-6.7c1.1,4.7,6.6,4.6,9.8,7.3c-3.5,0-6.5-2.5-10-2.6
			l0.5,3.1c-2.3-1.5-4.1-3.5-6.3-5.1c1.4,3.3,4.3,5.1,7.1,7.1c0,0.3-0.2,0.5-0.4,0.6c-0.6,0.3-1.9-0.1-2.2-0.6
			c-0.5-0.4-1-0.7-1.6-1.1c-1.4-1-2.8-2-4.3-2.6c0.2,1.9,0.3,3.6,0.5,5.5c-2-1.8-2.9-4.6-4.9-6.5c0.6,3.3,2.8,5.7,4.6,8.2
			c-4,0.2-5.9-4.4-8.7-6.6c-0.1,2.2,0.3,4.6-0.6,6.5c-1.3-2-2-4.4-3.5-6c-0.2,3.1,2.2,5.1,3.2,7.7c-1.4,0.2-2.4-0.9-3.3-2
			c-1.5-1.8-2.5-3.8-4.1-5.6c0.1,2.3-0.3,4.7-0.9,6.9c-0.9-1.7-0.9-3.5-1.1-5.3l-1.4-0.9c-0.3,2.8,1,5.4,1.6,8.2
			c-3.5-1.7-3.7-6.3-6.6-8.7c-0.2,1.8,0.4,4.7-1.5,5.6c0-1.5,0.7-3.2-0.9-4.3c-0.2,2-0.1,4.1,0.2,6.1c-1.7-1.9-2.8-4.2-3.9-6.2l2-2
			c0.1-1.1,0.2-2.3,0.3-3.2c1.7,1.4,3.5,3,5.5,4c1.9-1.5,1.8-3.9,2-6c2.4,1.6,4.9,3.4,7.8,4c0.5-0.4,1.3-1,1.8-1.3
			c-0.2-1.2-0.2-2.5-0.4-3.8c2.8,1.4,6.1,4.5,9,1.6c0.1-1.2,0.2-2.4,0.2-3.5c2.8,1.3,5.8,4.5,9,2.2l-1-1.6c-0.6,0.1-1.9,0.1-2.5,0.2
			c-1.3-0.6-2.5-1.4-3.8-2.1c-1.6-0.9-3.3-2-5.1-2.6c0.6,2.3,1.7,4.2,1.8,6.6c-4.2,0.2-7.3-3-10.7-5c0.4,2.4,1.7,4.7,1.8,7.3
			c-4-0.9-7.2-3.5-10.6-5.6c0.7,2.3,0.9,4.7,0.5,7.3c-3.2-1.5-5.5-4.2-8.7-5.8c1.1,2,1.4,4.2,1,6.8c-3-0.6-5-2.9-7.1-4.9
			c-0.7,0.1-1.5-0.1-2.1-0.4c0-0.6-0.1-1-0.2-1.6C599.5,402.5,599.4,400.6,599.8,398.7L599.8,398.7z M617,366.9
			c-0.1-5,5.5-6.5,9.6-6.6c3.1,0,6.5,0.9,10,2.6c1.7,1,4.1,2.3,3.6,4.5c-0.8,2.5-2.7,4.5-5.1,5.1c-5.9,1.8-11.6,1.3-15.7-1.3
			C618,370.3,617.1,368.8,617,366.9z M664.2,354.5c-0.9,2.5-3,4.6-2.8,7.2c-3.3-0.4-6,0.5-9.4,2.1c-3.1-0.9-6.5-1-10.4-0.3
			c-0.8-0.8-1.6-1.7-2.3-2.4c-2.4-0.6-4.4-2-6.8-2.6c-6.9-1.7-12-1.1-15.7,2l-1.1-1.6c0.9-1.6,2.2-3.1,2.9-4.9
			c0.2-1.7-0.2-3.5-0.3-5.1c1.3,1.2,2.1,3,3.2,4.3h0.1c10.6,0.3,20.8,2.6,30.3,4.6c2.7,0.6,5.4,1.2,8.2,1.1
			C661.3,357.3,662.6,355.6,664.2,354.5L664.2,354.5z M661.9,364.4c0.8,2.9,1.1,5.8,1.6,8.8c-2.2,0.6-7.6,1.7-10.9-2
			c-0.9-0.7-0.9-1.7-0.9-2.3c0.2-1.3,1.2-2.6,2.3-3.2c2.3-1.7,5.1-1.5,7.7-1.4L661.9,364.4L661.9,364.4z M607.6,464.8
			c0.3-0.9,0.6-1.8,0.9-3.1c2.7,0.7,4.9,2.4,6.5,4.5c0.4,0.9,0,1.9-0.6,2.4C611.3,469.2,608.8,466.4,607.6,464.8L607.6,464.8z
			 M615.8,470.2c0.4-3.6,0.9-5.5-2.6-8c-0.6-0.4-1-0.8-1.4-1.3c-0.6-1.4-1.1-2.8-1.6-4.3c3.3,2,5.8,4.7,8.9,6.8
			c1.1,4.6,2.6,9,3.5,13.6C620.5,474.8,618.4,472.2,615.8,470.2L615.8,470.2z M625.7,471.2c0.9,0.9,2.1,1.9,2.5,3.1
			c0.9,2,2.4,3.6,3.6,5.3c-2.4-0.1-4.8-0.5-7.3-1.1c-1.3-4.8-2.6-9.7-4-14.4c5,0.1,10,0.4,15,0.6c-0.1,1.7-0.2,3.4-0.9,5
			c-0.9-0.6-1.8-1.5-2.9-2C629.2,466.7,625.7,468.4,625.7,471.2L625.7,471.2L625.7,471.2z M608,460.8c0.2-1.6,0.4-2.8,0.6-3.8
			c0.9,0.9,1.5,2,1.9,3.3C609.6,460.5,608.7,460.6,608,460.8L608,460.8z M667.8,367.4c0.2,1.4,0,3.8-2.2,4.9c-0.2-1.4-0.4-2.7-0.6-4
			c-0.2-0.9-0.2-1.7-0.4-2.4C665.6,366.3,666.7,366.9,667.8,367.4L667.8,367.4z M689,379.2c1.7,1.2,1.6,3.5,2,5.4
			c-3-1.4-5.9,1.5-9,0.4c0.7-1.2,2.4-1.3,3.8-1.6c-0.5-0.6-1-0.9-1.6-1.4c-1.7-1.4-3.4-2.8-4.6-4.6c0.6-0.6,1.4-0.9,2.1-1.3
			C683.7,376.5,686.6,377.3,689,379.2L689,379.2z M695.1,386.1c-0.9-0.1-1.9-0.3-2.8-0.6c-0.5-1.7-0.8-3.5-1.1-5.1
			C694,381,694.8,384.2,695.1,386.1z M750.5,396.2c-0.2,0-0.5,0.1-0.6,0.2c0.4-1.4,0.7-2.9,1-4.5c-0.6-0.7-1.2-1.4-2-2
			c-1.7,0.2-3.3,0.4-4.9,0.6c0-4.5,3.5-7.5,5.6-8.9c1.9,0,3.7,1,4.3,2.6c1.5,2.7,1.5,6.2,0.1,9.6C753.5,395.4,752,395.8,750.5,396.2
			L750.5,396.2z M749.5,392.4c0.2,1.3-1,2.8-1.7,4.1c-1.5,0-2.9,0-4.4-0.2c0.2-0.5,0.9-1.2,1.1-1.6c0-1.1-0.1-2.2-0.2-3.2
			c1.7,0,3.1-0.1,4.3-0.3C749.2,391.6,749.4,392,749.5,392.4L749.5,392.4z M745.7,401c0.1-1.3,0-3.1,1.5-3.1
			c0.1,0.9,0.2,2.4,0.2,3.2v0.2C746.8,401,746.2,400.9,745.7,401L745.7,401z M731.9,426.3c-2.6,2.9-5.4,5.8-9.1,7.4
			c-0.1-1.3-0.2-2.5-0.2-3.9c-0.2-2.6-0.3-5.1-0.7-7.7c6.6-5.6,9-15,17.5-18.6c3.9-1.4,9.2-0.9,11.2,2.9c-1.3,2.7-4.8,2.4-7.3,3.3
			C738.5,414.6,736.5,421.2,731.9,426.3L731.9,426.3z M726.5,490.1c-4.2-8.8,0.6-17,10.4-17.3c8,0.2,13.5,2.8,16.7,10
			c-2.9,0.5-6,0-8.9,1.1c-3.7,1.3-6.5,3.8-8.4,6.8c-0.2,0.7-0.7,1.3-1.6,0.7C732.4,490.5,729.7,490.1,726.5,490.1L726.5,490.1z
			 M708.7,507.6c-1.1-0.3-2.4-0.5-3.9-1.3c0.6-1.3,1.7-2.7,2.8-3.8c0-0.4,0.2-1.4,0.2-2c1.2-0.8,2.6-1.5,2.8-3.1
			c0-0.9,0.7-1.3,1.6-1.7c0.6-0.2,1.2-0.6,1.6-1.1c0.2-1,0.3-1.9,0.4-2.6c1.6-0.9,3.4-1.6,2.4-3.8c-0.5-1.3-0.4-1.3,0.6-2
			c2.3-1.7,4.6-3.5,4.9-6.5l-2.6-0.4c1.2-5.7,3.9-11.2,2.4-17c-1.6,1.7-1.1,3.9-1.1,6c-3.2,2.8-7.8,3.5-11.6,2l1.9-8.3
			c3,1.9,6.4,0.9,9.6,1.3c0.5-0.6,0.9-1,1.3-1.4c-3.1-0.2-6.4,0.4-9.4-0.5c-1.4-2.6,0.2-5.5,0.9-8.1c1.1-3.5,2.7-8.2,6.5-10.4
			c8.9-3.8,16.3,7.9,16.4,15.7c-0.2,4.4-0.6,8.3-1,11.7c-3.8,2-8.4,3.4-10.1,7.7c-1,2.5-2.4,7.6-0.6,12c-5.9,2-10.8,5.8-13.6,10.7
			c-0.9,1.7-1,3.7-1.1,5.9L708.7,507.6L708.7,507.6z M711.2,473.1c-0.2,2.4,0,4.3,0.3,6.1c-1.1,1.2-2.8,1.2-4.3,1.6
			c0.6-3.1,1.1-5.7,2-8.3L711.2,473.1L711.2,473.1z M712.6,479.1c-0.1-2.3-0.8-6.5,2.5-6.1c-0.2,2-0.4,3.9-0.6,5.9
			C713.7,479.2,713.2,479.3,712.6,479.1L712.6,479.1z M716.6,473.7c0.5-1.3,2-1.5,3.2-1.8c-0.6,2.4-0.9,4.7-1.6,7.2
			c-0.6-0.1-1.5-0.1-2.1-0.1C716.3,477.3,716.2,475.5,716.6,473.7z M689.8,509.5c1.3-5.5,2.4-11.2,3.3-16.7c0-2.8,0.3-6.5-2.4-8.2
			c-1.3-0.9-2.5-0.2-3.9,0c-2.6,0.6-5.1,0.6-7.2,0.6c-0.4-0.6-0.8-1.3-1.1-1.9c1.7-7.2,2.3-18.1,12.1-18.2c7.5,2,8.3,8.3,7.5,14.9
			c-0.6,9.3-1.8,18.3-2,27.7c1.6-0.3,1.4-1.8,1.6-2.9c0.5-6.8,0.8-13.7,2.3-20.4c2-0.8,4.4-0.4,6.5-1c0.2,7-2.8,13.8-7.9,18.2
			c2.5,0.9,4-1.6,5.1-3.2c3.4-5.6,4.6-10.8,3.8-15.3c3.5-1.5,7.9-1.9,12.2-1.3c-2,2.8-5.5,3.5-8.7,4.4c0.9,1.7,2.5,2.4,4.1,3.3
			c-1.7,0.6-3.5,1.2-5.1,2c0.5,1.2,2.3,1.6,2.1,2.8c-1.6,0.5-3.2,0.7-4.7,1.6c0.6,0.7,1,1.5,1.6,2.2c-2,0.5-5.7,0.6-3.6,3.2
			c-0.5,0.2-1.2,0.4-1.6,0.6l-0.2,0.1c1.5,2.2-1.7,3.1-2.8,4.6C697,507.6,693.4,508.1,689.8,509.5L689.8,509.5z M676.7,497.4
			c-0.3-4,1-7.8,1.6-11.8c3.9,2.1,8,0.1,12.1,0c0.6,1.9,2,7.7-1.6,11.2C685.7,500.2,680.2,499.8,676.7,497.4z M675.7,499.7
			c1,0.3,2,0.7,2.8,1c-0.2,1.1-0.2,2.1,0.2,3.1c1.6,0.2,1-1.7,1.3-2.6c0.6,0.1,1.8,0.1,2.4,0.2c-0.6,2-1.1,4.2-1.6,6.8
			c-0.9-0.7-1.8-1.8-1.6-3.3l-0.1-0.2C676.9,504.5,675.2,502,675.7,499.7z M674.1,500.8c-1.3-0.6-2.2-1.4-3.1-2.1
			c0.9-3.9,2-7.6,3.1-11.2c0.9-3.5,2-7.1,2.9-10.7c0.4-2.2,0.6-5.3-1.4-7.3c-2-2-5,0.2-7.1-1.3c-0.9-0.5-0.3-2-0.2-2.9
			c0.7-3.2,1.3-6.5,2.8-9.3c1.1-1.9,3.6-2.3,5.5-1.6c3.5,1.2,6.5,4.2,9.1,9c-2.4,1.5-5,3.3-6,6.2c-1.7,4.7-2.5,9.8-3.1,14.6
			c-0.4,2.3-0.7,4.5-1.1,6.9C675.2,494.3,675,497.6,674.1,500.8L674.1,500.8z M661.7,497.5c1.7-9.4,3.9-18.4,5.4-27.9
			c2.6,0.6,5.1,0.6,7.7,0.9c0.8,2.2,0.9,4.6,0.3,6.6c-0.8,2.9-1.7,5.8-2.6,8.7c-1.2,3.9-2.4,8-3.4,12.1
			C666.9,497.1,664.3,496.9,661.7,497.5z M660.4,492.7c-0.2,0.9-0.6,1.8-0.6,2.9c0-2.9,0.5-5.9,0.9-8.7c0.4-2.4,0.8-4.8,0.9-7.3
			c1.1-6.1,1.6-12.2,2-18.2c0.6-9.9,1.8-19.7,2.1-29.7c-0.2-5,0.3-9.8,0.6-14.7c0.3-4-0.2-8.1,0.5-12.1c1-4.8,1.3-10.2,4.2-14.3
			c1.2-1.7,0.8-3.9,0.9-5.8c1.5,0.1,1.3,2.3,1.9,3.3c2.9,0.5,5.8-0.2,8.7-0.2c10.8,0.5,21.4,0.3,31.9,2.8c0.6-1.4,1.5-2.7,2.4-3.6
			c0,3.5,0.9,6.8,1.1,10.2c0.6,8.1,1.7,16.2,1.1,24.6c-0.6-0.7-1-1.6-1.5-2.2c0-1.8-0.6-3.4-2-4.3c-1.2-0.6-2.5-0.2-3.8-0.1
			c-0.2-2.4-0.4-4.8-0.9-7.2c-0.8,2.2-0.5,4.6-0.2,6.8c-1.6-0.8-3.4-0.8-5-0.9c-1.1,0.9-2.2,2-3.2,2.9l-0.1,0.1v0.1
			c-0.1,1-0.2,2.4-0.2,3.6c0.5,0.5,1,1.2,1.3,1.6c-0.8,2-0.8,5.1-3.4,5.6c-1.7,0.6-3.3,1.7-4.9,2.6c-2.5,1.5-5,3.2-8.2,3.1
			c-4-0.1-6.7-3.1-9.6-5.4c-0.2,0.6-0.3,1.3-0.5,1.8c3.6,3.8,9.1,5.4,13.8,4.3c2.3-0.4,4.2-1.8,6.1-2.9c2.4-1.5,4.6-3,7.5-3.1
			l1.6,1.6c-1.7,2.5-1.6,5.6-2.6,8.3c-2,5.6-6.3,10.3-11.8,12.9c-2.8,1.3-6,0.6-9.1,0.6c1.8,2.4,5.1,2.1,7.7,1.8
			c3.8-0.7,7-3.4,10.4-7.2c4.6-0.2,5.9-4,8.3-7.3c2.3-3.2,4.5-6.7,6.1-10.5h2.6c0.6-0.6,1.3-1.2,2-1.6c0.2,4.2,0.4,8.6,1.1,12.9
			c-2.5,1.3-6,3.7-7.9,7.5c-4.9,11.2-4.8,23.7-9.9,34.9c-0.9-0.1-2-0.1-2.9-0.2c0.4-0.5,0.9-0.9,1-1.6l-1-0.6v-2
			c0.7,0.9,1.3,1.7,1.6,2.6l0.5,0.6c2.1-0.9,0.1-2.4-0.5-3.8c0.9-0.4,2-0.7,2.9-1.1c-0.6-1.4-1.7-2.4-2.8-3.4c-1-0.9-2-1.8-2.6-2.9
			c-2.5-4.2-6.9-6.9-11.6-6.8c-2.6-5.1-6.3-10.8-13.1-10.7c-1.5,0-3.1,0.4-4.4,2c-2,2.9-2.8,6.5-3.5,9.8
			C664.2,473.5,662,482.9,660.4,492.7L660.4,492.7z M700,473.3c0.9,0.6,1.9,1.3,2.8,2c-0.9,0.2-1.8,0.5-2.8,0.7
			C699.9,475.1,699.9,474.1,700,473.3z M713.3,417.5c1.6,2,4.4,3.2,4.6,6c0.5,1.3-0.3,2.7-0.9,3.8c-2.5,0.4-3.9-1.6-5.4-3.2
			c0.6-1.4,1.4-2.8,1.7-4.3c-0.2-1.3-0.9-2.7-1.6-3.8c2-0.6,3.8,0.4,4.6,2.3C715.5,417.9,714.3,417.5,713.3,417.5z M708,430.8h0.2
			c-1.2-1.7-2.6-3.6-5-3.5c0.4-1.3,0.8-2.5,1-3.5c3.5-0.4,7.6,0.9,8.9,4.6c-2.1,3.1-3.8,6.4-6,9.5c-0.6,0.6-1,1.4-1.4,2
			c-0.9,1.3-1.8,2.8-3.1,3.8c0.5-2,1.6-3.5,2.1-5.4c0.7-2.2,0.9-4.4,1.3-6.6C706.6,431.3,707.3,431,708,430.8L708,430.8z
			 M704.6,422.3c-0.5-1.3-1-2.4-1.7-3.7c0.8-1.3,1.7-3.1,3.2-3.8c1.1-0.1,2.1,0.1,3.1,0.2c0.9,1.4,1.9,2.5,2.5,4
			c0.3,1.4-0.9,2.9-1.6,4C708.6,422.7,706.8,422.6,704.6,422.3L704.6,422.3z M639.4,506.5c-5-10.2-13.1-17.4-25.4-13.8
			c0.7-2.4,2.5-6.5,6.5-8.3c4-1.7,8.7-1,12.1,1.6c-2.6,1.5-5.6,3.4-5.5,6.9c0.9-0.6,1.7-1.3,2.4-2c3.9-3.9,7-5.1,12.6-3.8
			c-0.9,2.3-2.4,3.5-4.2,3.6c-0.8,1.1-1.4,2-2,3.1c2.4-1.8,5.8-3.3,8.7-0.9c-0.5,0.9-0.9,2.1-1.3,3.2c-0.9,0.6-1.7,1.5-2.6,2.2
			c2.5,0,5,0.2,6.9,0.9c-0.2-1.2-0.9-1.8-1.8-2.2c-0.7-0.4-1.3-0.7-1.4-1.3c1.4-2,4.2-0.9,6.3-1.1c-0.8-1.1-2-2.4-3.6-2.1
			c-2,0.3-3.3-1.7-4.9-2.6c4.4-3.9,6.2-2.6,11.3-1.6c-0.9-1.3-2.2-2.4-3.8-2.9c0.8-5,5.1-10,10.4-9c-0.1,3.9-1.4,7.4-1.6,11.2
			c-0.2,3.7-1.1,7.3-1.6,10.9c-3.5,0.9-6.5,3.7-8.5,7.8C645.7,504.9,642.2,504.9,639.4,506.5L639.4,506.5z M597.9,508.2
			c3.3-13.9,5.6-27.9,9-41.9c1.6,2.7,4.1,4.4,7.2,4.7c3.1,2.2,5.7,5.2,7.7,7.8c2.5,3.5,7.2,2,10.9,3.1c0.4-0.6,0.8-1.2,1.3-1.9
			c1.7,0.9,3.6,2,5.7,0.9c-2.3-1.9-5.6-2.3-7.6-4.5c-1.8-1.8-2.4-4.3-4-6.2c1.3-0.8,2.3-1,3.2-0.6c2,0.9,3.7,2.1,5.3,3.5
			c2.4,1.9,5.3,4.8,8.5,3.2c1.9-0.8,3.7-2.9,4.3-5.1c-1.8,0.9-3.5,2.2-5,3.8c-3.3,0-5.6-2.8-8.2-4.6c0.6-1.5,1.1-3.5,1.1-5.6
			c0-0.4,0-0.6-0.2-0.9c-0.5-0.5-1.4-0.6-2-0.6c-4.2-0.4-8.3-0.5-12.5-0.6c0.1-0.5,0.2-0.9,0.2-1.3c-0.9,0-1.7,0.2-2.5,0.2
			c0-0.6,0.2-1.3,0.2-1.8c-1.4-1.6-2.8-3.1-4.3-4.6c0.7,1.7,1.5,3,2.9,4.5c-0.3,0.2-0.6,0.4-0.9,0.6c-1.7-1.9-4-3.5-6.1-5
			c0.7-0.9,1.6-1.9,2.3-2.8c-1.2,0.7-2.4,1.5-3.8,2.2c-0.2-0.6-0.5-1.3-0.6-1.8c0.2-2.4,0.4-4.6,0.6-7.1c0.2-2.3,0.4-4.5,0.6-6.9
			c0.4-3.2,2.5-5.7,4.2-7.2c-0.1-2.5,1.9-4.2,3.5-5.1c1.8,1.8-0.6,3.9-1.3,5.7c7.2-0.9,14.1,0.7,21.2,0.7c1.3-1.5,2.6-3.2,4.6-3.5
			c0.2,2-1.2,3.7-2.4,5.1c8.7,10.4,14.2,24.2,15.9,40.1c-3.9,1.3-7.9,5-7.7,10.1c-2.2,0.3-4.3,0.9-6,1.7c-1.7-1.2-3.5-1.3-5.3-1.3
			c-0.9,0-2,0-2.9-0.2c-4.1-3-9.4-4.1-13.5-2.6c-5.3,1.5-8.3,6.8-8.9,11.3c-2.1,1.6-4.2,3.1-5.9,5.1
			C603.6,501.8,601.4,505.8,597.9,508.2z"/>
	</g>
	<path class="st1" d="M728,455.5c-0.2,0.6-0.4,1.1-0.6,1.6c0.8,1.7,1.6,3.8,3.6,4.3c0.3-1.7,0.5-3.3,0.5-4.9c1.3,0,2.8-0.3,3.8-1.4
		c-1.5,0-2.9,0-4.4-0.1c-0.5-0.7-0.9-1.7-1.6-2.2L728,455.5z"/>
	<path class="st1" d="M729.3,456.8l-0.2-0.5c0.5-0.6,0.7-0.7,0.9-0.2c0.3,0.8,0.3,2.4-0.1,3.1h-0.1
		C729.9,458.4,729.6,457.5,729.3,456.8L729.3,456.8z M713.2,469.2c1.9-0.1,0.9-3.7-0.6-2.6C711.7,467.3,712.1,469.2,713.2,469.2z
		 M701.1,486.9c0.2,1,0.9,1.3,1.3,1.4c1.2,0,2.3-1.4,2.5-2.5C703.6,486.1,702.2,486.6,701.1,486.9L701.1,486.9z M689.6,471.8
		c0,0.9-0.1,2-0.1,2.9l2,2l0.2-0.2c0.9-0.8,1.9-2,2.6-3.4c-1.2,0.4-2.4,0.9-3.6,1.3c0.1-0.8,0.2-1.8,0.2-2.4
		C690.4,471.9,690.1,471.9,689.6,471.8z M532.3,494.7l-2.4,1.6c0.2-0.1,0.4-0.2,0.6-0.3c0.3-0.2,0.6-0.2,0.9,0
		C531.5,495.6,531.9,495.1,532.3,494.7z M678,461.1c-0.5,2.1-0.5,4-0.7,6c1.2-0.1,2.5-0.1,3.8-0.1v-0.9h0.6c-1.4-2.6,5-2.3,1.5-5.1
		c0,1.7-1,1.8-2.6,1.6C679.9,461.8,679.3,460.4,678,461.1z"/>
	<path class="st1" d="M678.9,466.1c0-0.9,0.1-1.7,0.2-2.6c0.9,0.3,1.3,1.3,1.6,2.6C680.3,466.1,679.4,465.9,678.9,466.1z
		 M646.4,454.2c0.3,0.3,0.8,0.5,1.3,0.2c0.9-0.4,1.6-1.8,0.3-2.2C647,451.9,645.7,453.2,646.4,454.2z M674.1,460.9
		c-0.9-0.4-1.9-0.7-2.8-0.9c0.8,1.4,2.4,2.4,4,2.3c0.2-0.6,0.4-0.9,0.6-1.4c0.2-0.4,0.3-0.8,0.6-1.1c-0.4-0.3-0.9-0.7-1.3-0.9
		L674.1,460.9z M637.4,455c-3.2,0.9-6.5,0.1-9.6-0.6c-1.2-0.3-2.5-0.6-3.6-0.9c1.7,2.4,4.7,2.7,7.3,2.9
		C633.8,456.5,635.8,457,637.4,455L637.4,455z"/>
</g>
<g>
	<path d="M94.8,265.8v-64.6h39.6v13.6h-23.8v13.6h19.7v13.6h-19.7v24H94.8z"/>
	<path d="M139.3,233.1c0-9.4,3.2-17.2,9.5-23.5c6.3-6.3,14.4-9.4,24.3-9.4c9.9,0,18,3.1,24.3,9.4c6.3,6.3,9.5,14.1,9.5,23.5
		c0,9.6-3.2,17.7-9.5,24.1c-6.3,6.4-14.4,9.7-24.3,9.7c-9.9,0-18-3.2-24.3-9.7C142.5,250.8,139.3,242.7,139.3,233.1z M155.7,233.1
		c0,5.5,1.6,10.2,4.9,13.8c3.3,3.7,7.5,5.5,12.5,5.5s9.2-1.8,12.5-5.5c3.3-3.7,4.9-8.3,4.9-13.8c0-5.3-1.6-9.7-4.9-13.2
		c-3.3-3.5-7.5-5.3-12.5-5.3s-9.2,1.8-12.5,5.3C157.3,223.4,155.7,227.8,155.7,233.1z"/>
	<path d="M217,265.8v-64.6h15.8v51.1h26.4v13.6H217z"/>
	<path d="M266.9,265.8v-64.6h15.8v64.6H266.9z"/>
	<path d="M292.7,233.1c0-9.4,3.2-17.2,9.5-23.5c6.3-6.3,14.4-9.4,24.3-9.4c9.9,0,18,3.1,24.3,9.4c6.3,6.3,9.5,14.1,9.5,23.5
		c0,9.6-3.2,17.7-9.5,24.1c-6.3,6.4-14.4,9.7-24.3,9.7c-9.9,0-18-3.2-24.3-9.7C295.9,250.8,292.7,242.7,292.7,233.1z M309.1,233.1
		c0,5.5,1.6,10.2,4.9,13.8c3.3,3.7,7.5,5.5,12.5,5.5s9.2-1.8,12.5-5.5c3.3-3.7,4.9-8.3,4.9-13.8c0-5.3-1.6-9.7-4.9-13.2
		c-3.3-3.5-7.5-5.3-12.5-5.3s-9.2,1.8-12.5,5.3C310.7,223.4,309.1,227.8,309.1,233.1z"/>
</g>
<g>
	<path d="M54.8,190.3v-64.6h26.8c6.3,0,11.3,2.1,15.2,6.2c3.9,4.2,5.8,9.5,5.8,16c0,6.6-1.9,11.9-5.8,16.1c-3.9,4.2-9,6.3-15.2,6.3
		h-11v20H54.8z M70.6,156.8h7.8c2.7,0,4.7-0.8,6.1-2.4c1.4-1.6,2.1-3.8,2.1-6.4c0-2.7-0.7-4.8-2.1-6.3c-1.4-1.6-3.3-2.4-5.9-2.4h-8
		V156.8z"/>
	<path d="M108.1,157.6c0-9.4,3.2-17.2,9.5-23.5c6.3-6.3,14.4-9.4,24.3-9.4c9.9,0,18,3.1,24.3,9.4c6.3,6.3,9.5,14.1,9.5,23.5
		c0,9.6-3.2,17.7-9.5,24.1c-6.3,6.4-14.4,9.7-24.3,9.7c-9.9,0-18-3.2-24.3-9.7C111.3,175.3,108.1,167.2,108.1,157.6z M124.5,157.6
		c0,5.5,1.6,10.2,4.9,13.8c3.3,3.7,7.5,5.5,12.5,5.5s9.2-1.8,12.5-5.5c3.3-3.7,4.9-8.3,4.9-13.8c0-5.3-1.6-9.7-4.9-13.2
		c-3.3-3.5-7.5-5.3-12.5-5.3s-9.2,1.8-12.5,5.3C126.1,147.9,124.5,152.3,124.5,157.6z"/>
	<path d="M185.8,190.3v-64.6h22.5c5.7,0,9.9,0.5,12.6,1.5c3.7,1.4,6.7,3.8,8.8,7c2.1,3.2,3.2,7.2,3.2,11.8c0,3.6-0.8,7.1-2.5,10.3
		c-1.7,3.3-4.1,5.7-7.1,7.3v0.2c0.6,0.8,1.4,2.1,2.4,3.9l12.6,22.6h-17.6L209,168.5h-7.4v21.8H185.8z M201.6,155h6.9
		c2.6,0,4.6-0.7,6.1-2.1c1.4-1.4,2.2-3.3,2.2-5.9c0-3.6-1.3-5.8-3.8-6.9c-1.4-0.6-3.4-0.9-6-0.9h-5.3V155z"/>
	<path d="M258.5,190.3v-51.1h-19.6v-13.6h55v13.6h-19.6v51.1H258.5z"/>
	<path d="M289.7,190.3l22-64.6h16.6l22,64.6H334l-4-13.6h-20.2l-3.9,13.6H289.7z M313.6,164.1h12.7l-3.6-12.6l-2.6-11.1h-0.2
		c-1,4.7-1.8,8.4-2.6,11.1L313.6,164.1z"/>
</g>
<g>
	<path d="M67.4,322.3v-15.5h9v1.9h-6.8v4.8h5.5v1.9h-5.5v5h7.2v1.9H67.4z"/>
	<path d="M79.7,322.3v-15.5h2.1l6.9,10l1.3,2.3h0c-0.1-0.9-0.1-1.7-0.1-2.3v-10h2.1v15.5H90l-6.9-10l-1.3-2.3h0
		c0.1,0.9,0.1,1.7,0.1,2.3v10H79.7z"/>
	<path d="M95.3,314.4c0-2.3,0.7-4.1,2.2-5.7c1.5-1.5,3.4-2.3,5.6-2.3c2.4,0,4.2,0.7,5.7,2l-1.1,1.6c-0.6-0.5-1.3-0.9-2.1-1.2
		c-0.8-0.3-1.6-0.5-2.4-0.5c-1.8,0-3.1,0.6-4.2,1.7s-1.5,2.5-1.5,4.2c0,1.7,0.5,3.2,1.6,4.3s2.4,1.8,4.2,1.8c0.9,0,1.7-0.2,2.6-0.5
		c0.8-0.4,1.6-0.9,2.2-1.5l1.2,1.6c-1.6,1.6-3.6,2.5-6,2.5s-4.3-0.8-5.7-2.3C96,318.7,95.3,316.8,95.3,314.4z"/>
	<path d="M111.8,316.8v-10h2.2v10c0,1.2,0.4,2.1,1.1,2.8c0.7,0.7,1.7,1,2.9,1s2.1-0.3,2.8-1s1.1-1.6,1.1-2.8v-9.9h2.2v10
		c0,1.7-0.6,3.1-1.7,4.2c-1.1,1.1-2.6,1.6-4.4,1.6c-1.8,0-3.3-0.5-4.4-1.6C112.3,319.9,111.8,318.5,111.8,316.8z"/>
	<path d="M127.8,322.3v-15.5h9v1.9H130v4.8h5.5v1.9H130v5h7.2v1.9H127.8z"/>
	<path d="M140.2,322.3v-15.5h2.1l6.9,10l1.3,2.3h0c-0.1-0.9-0.1-1.7-0.1-2.3v-10h2.1v15.5h-2.1l-6.9-10l-1.3-2.3h0
		c0.1,0.9,0.1,1.7,0.1,2.3v10H140.2z"/>
	<path d="M156.7,322.3v-15.5h4.9c1.3,0,2.3,0.1,2.9,0.4c0.8,0.3,1.4,0.9,1.8,1.6c0.4,0.7,0.7,1.5,0.7,2.5c0,1-0.3,1.9-0.8,2.7
		c-0.5,0.8-1.2,1.3-2,1.6v0c0.1,0.1,0.3,0.4,0.4,0.7l3.3,6h-2.5l-3.3-6.2h-3.3v6.2H156.7z M158.8,314.2h3.1c0.8,0,1.5-0.3,2-0.8
		c0.5-0.5,0.7-1.2,0.7-2.1c0-1.2-0.5-2-1.4-2.4c-0.4-0.2-1-0.3-1.9-0.3h-2.6V314.2z"/>
	<path d="M168.7,322.3l5.5-15.5h2.3l5.5,15.5h-2.2l-1.6-4.4h-5.8l-1.6,4.4H168.7z M173.1,316h4.7l-1.7-4.9l-0.6-2.2h0
		c-0.2,0.9-0.4,1.7-0.6,2.2L173.1,316z"/>
	<path d="M186.9,322.3l5.5-15.5h2.3l5.5,15.5h-2.2l-1.6-4.4h-5.8l-1.6,4.4H186.9z M191.3,316h4.7l-1.7-4.9l-0.6-2.2h0
		c-0.2,0.9-0.4,1.7-0.6,2.2L191.3,316z"/>
	<path d="M201.4,314.4c0-2.3,0.8-4.1,2.3-5.6c1.5-1.5,3.4-2.3,5.7-2.3c2.3,0,4.2,0.8,5.7,2.3c1.5,1.5,2.2,3.4,2.2,5.6
		c0,1.9-0.6,3.6-1.8,5.1l1.8,1.8l-1.3,1.4l-1.8-1.8c-1.4,1.1-3,1.7-4.9,1.7c-2.3,0-4.2-0.8-5.7-2.3
		C202.1,318.6,201.4,316.7,201.4,314.4z M203.6,314.4c0,1.7,0.5,3.2,1.6,4.3c1.1,1.2,2.4,1.8,4,1.8c1.3,0,2.5-0.4,3.4-1.1l-1.8-1.8
		l1.2-1.4l1.8,1.8c0.8-1.1,1.1-2.3,1.1-3.6c0-1.7-0.5-3.1-1.6-4.2c-1.1-1.1-2.5-1.7-4.1-1.7c-1.6,0-3,0.6-4,1.7
		C204.2,311.3,203.6,312.7,203.6,314.4z"/>
	<path d="M220.2,316.8v-10h2.2v10c0,1.2,0.4,2.1,1.1,2.8c0.7,0.7,1.7,1,2.9,1s2.1-0.3,2.8-1s1.1-1.6,1.1-2.8v-9.9h2.2v10
		c0,1.7-0.6,3.1-1.7,4.2c-1.1,1.1-2.6,1.6-4.4,1.6c-1.8,0-3.3-0.5-4.4-1.6C220.8,319.9,220.2,318.5,220.2,316.8z"/>
	<path d="M236.3,322.3v-15.5h2.2v15.5H236.3z M236.5,305.7l1.6-2.8h2.3l-2.1,2.8H236.5z"/>
	<path d="M251,322.3v-13.6h-5.3v-1.9h12.8v1.9h-5.3v13.6H251z"/>
	<path d="M259.2,314.4c0-2.2,0.8-4.1,2.3-5.6c1.5-1.5,3.4-2.3,5.7-2.3c2.3,0,4.2,0.8,5.7,2.3c1.5,1.5,2.3,3.4,2.3,5.6
		c0,2.3-0.8,4.2-2.3,5.8s-3.4,2.3-5.7,2.3s-4.2-0.8-5.7-2.3C260,318.6,259.2,316.7,259.2,314.4z M261.5,314.4c0,1.7,0.5,3.2,1.6,4.4
		c1.1,1.2,2.4,1.8,4.1,1.8c1.6,0,3-0.6,4.1-1.8c1.1-1.2,1.6-2.6,1.6-4.4c0-1.7-0.5-3.1-1.6-4.2c-1.1-1.1-2.4-1.7-4.1-1.7
		c-1.7,0-3,0.6-4.1,1.7C262,311.3,261.5,312.7,261.5,314.4z"/>
	<path d="M278.2,322.3v-15.5h5.1c2.4,0,4.3,0.7,5.7,2c1.4,1.4,2.1,3.3,2.1,5.7c0,2.4-0.7,4.3-2.1,5.7c-1.4,1.4-3.3,2.1-5.7,2.1
		H278.2z M280.4,320.4h2.8c1.8,0,3.2-0.5,4.2-1.5c1-1,1.5-2.5,1.5-4.3c0-1.9-0.5-3.3-1.6-4.3c-1-1-2.4-1.5-4.2-1.5h-2.8V320.4z"/>
	<path d="M293.4,314.4c0-2.2,0.8-4.1,2.3-5.6c1.5-1.5,3.4-2.3,5.7-2.3c2.3,0,4.2,0.8,5.7,2.3c1.5,1.5,2.3,3.4,2.3,5.6
		c0,2.3-0.8,4.2-2.3,5.8s-3.4,2.3-5.7,2.3s-4.2-0.8-5.7-2.3C294.2,318.6,293.4,316.7,293.4,314.4z M295.6,314.4
		c0,1.7,0.5,3.2,1.6,4.4c1.1,1.2,2.4,1.8,4.1,1.8c1.6,0,3-0.6,4.1-1.8c1.1-1.2,1.6-2.6,1.6-4.4c0-1.7-0.5-3.1-1.6-4.2
		c-1.1-1.1-2.4-1.7-4.1-1.7c-1.7,0-3,0.6-4.1,1.7C296.2,311.3,295.6,312.7,295.6,314.4z"/>
	<path d="M311.3,320.5l1.2-1.6c0.5,0.5,1.1,0.9,1.8,1.2s1.4,0.5,2.1,0.5c0.8,0,1.5-0.2,2-0.6c0.5-0.4,0.7-0.9,0.7-1.6
		c0-0.6-0.3-1.2-0.8-1.6s-1.1-0.8-1.9-1.1s-1.5-0.6-2.2-1s-1.4-0.8-1.9-1.5c-0.5-0.6-0.8-1.4-0.8-2.3c0-1.3,0.5-2.3,1.4-3.1
		c1-0.8,2.2-1.2,3.6-1.2c1.8,0,3.2,0.5,4.3,1.6l-1,1.8c-0.4-0.4-1-0.7-1.6-1c-0.6-0.2-1.2-0.4-1.8-0.4c-0.8,0-1.5,0.2-2,0.6
		c-0.5,0.4-0.8,0.9-0.8,1.6c0,0.5,0.2,1,0.5,1.4c0.4,0.4,0.8,0.7,1.4,0.9c0.6,0.2,1.2,0.5,1.8,0.8c0.6,0.3,1.2,0.6,1.8,0.9
		c0.6,0.3,1,0.8,1.4,1.4c0.4,0.6,0.5,1.3,0.5,2c0,1.3-0.4,2.3-1.3,3.1c-0.9,0.8-2.1,1.3-3.6,1.3
		C314.3,322.5,312.7,321.8,311.3,320.5z"/>
	<path d="M67.4,348.6v-15.5h2.1l6.9,10l1.3,2.3h0c-0.1-0.9-0.1-1.7-0.1-2.3v-10h2.1v15.5h-2.1l-6.9-10l-1.3-2.3h0
		c0.1,0.9,0.1,1.7,0.1,2.3v10H67.4z"/>
	<path d="M83.7,343.1v-10h2.2v10c0,1.2,0.4,2.1,1.1,2.8c0.7,0.7,1.7,1,2.9,1s2.1-0.3,2.8-1c0.7-0.7,1.1-1.6,1.1-2.8v-9.9h2.2v10
		c0,1.7-0.6,3.1-1.7,4.2c-1.1,1.1-2.6,1.6-4.4,1.6c-1.8,0-3.3-0.5-4.4-1.6C84.2,346.2,83.7,344.8,83.7,343.1z"/>
	<path d="M99.8,348.6v-15.5h9v1.9h-6.8v4.8h5.5v1.9h-5.5v5h7.2v1.9H99.8z"/>
	<path d="M111,346.8l1.2-1.6c0.5,0.5,1.1,0.9,1.8,1.2c0.7,0.3,1.4,0.5,2.1,0.5c0.8,0,1.5-0.2,2-0.6s0.7-0.9,0.7-1.6
		c0-0.6-0.3-1.2-0.8-1.6c-0.5-0.4-1.1-0.8-1.9-1.1s-1.5-0.6-2.2-1s-1.4-0.8-1.9-1.5c-0.5-0.6-0.8-1.4-0.8-2.3c0-1.3,0.5-2.3,1.4-3.1
		c1-0.8,2.2-1.2,3.6-1.2c1.8,0,3.2,0.5,4.3,1.6l-1,1.8c-0.4-0.4-1-0.7-1.6-1c-0.6-0.2-1.2-0.4-1.8-0.4c-0.8,0-1.5,0.2-2,0.6
		c-0.5,0.4-0.8,0.9-0.8,1.6c0,0.5,0.2,1,0.5,1.4s0.8,0.7,1.4,0.9c0.6,0.2,1.2,0.5,1.8,0.8c0.6,0.3,1.2,0.6,1.8,0.9s1,0.8,1.4,1.4
		c0.4,0.6,0.5,1.3,0.5,2c0,1.3-0.4,2.3-1.3,3.1s-2.1,1.3-3.6,1.3C114.1,348.8,112.4,348.1,111,346.8z"/>
	<path d="M127.7,348.6V335h-5.3v-1.9h12.8v1.9h-5.3v13.6H127.7z"/>
	<path d="M137.5,348.6v-15.5h4.9c1.3,0,2.3,0.1,2.9,0.4c0.8,0.3,1.4,0.9,1.8,1.6c0.4,0.7,0.7,1.5,0.7,2.5c0,1-0.3,1.9-0.8,2.7
		c-0.5,0.8-1.2,1.3-2,1.6v0c0.1,0.1,0.3,0.4,0.4,0.7l3.3,6h-2.5l-3.3-6.2h-3.3v6.2H137.5z M139.7,340.5h3.1c0.8,0,1.5-0.3,2-0.8
		c0.5-0.5,0.7-1.2,0.7-2.1c0-1.2-0.5-2-1.4-2.4c-0.4-0.2-1-0.3-1.9-0.3h-2.6V340.5z"/>
	<path d="M150.2,340.7c0-2.2,0.8-4.1,2.3-5.6c1.5-1.5,3.4-2.3,5.7-2.3c2.3,0,4.2,0.8,5.7,2.3c1.5,1.5,2.3,3.4,2.3,5.6
		c0,2.3-0.8,4.2-2.3,5.8c-1.5,1.6-3.4,2.3-5.7,2.3s-4.2-0.8-5.7-2.3C151,344.9,150.2,343,150.2,340.7z M152.5,340.7
		c0,1.7,0.5,3.2,1.6,4.4c1.1,1.2,2.4,1.8,4.1,1.8c1.6,0,3-0.6,4.1-1.8c1.1-1.2,1.6-2.6,1.6-4.4c0-1.7-0.5-3.1-1.6-4.2
		s-2.4-1.7-4.1-1.7c-1.7,0-3,0.6-4.1,1.7S152.5,339,152.5,340.7z"/>
	<path d="M168.1,346.8l1.2-1.6c0.5,0.5,1.1,0.9,1.8,1.2c0.7,0.3,1.4,0.5,2.1,0.5c0.8,0,1.5-0.2,2-0.6s0.7-0.9,0.7-1.6
		c0-0.6-0.3-1.2-0.8-1.6c-0.5-0.4-1.1-0.8-1.9-1.1s-1.5-0.6-2.2-1s-1.4-0.8-1.9-1.5c-0.5-0.6-0.8-1.4-0.8-2.3c0-1.3,0.5-2.3,1.4-3.1
		c1-0.8,2.2-1.2,3.6-1.2c1.8,0,3.2,0.5,4.3,1.6l-1,1.8c-0.4-0.4-1-0.7-1.6-1c-0.6-0.2-1.2-0.4-1.8-0.4c-0.8,0-1.5,0.2-2,0.6
		c-0.5,0.4-0.8,0.9-0.8,1.6c0,0.5,0.2,1,0.5,1.4s0.8,0.7,1.4,0.9c0.6,0.2,1.2,0.5,1.8,0.8c0.6,0.3,1.2,0.6,1.8,0.9s1,0.8,1.4,1.4
		c0.4,0.6,0.5,1.3,0.5,2c0,1.3-0.4,2.3-1.3,3.1s-2.1,1.3-3.6,1.3C171.2,348.8,169.5,348.1,168.1,346.8z"/>
	<path d="M186.6,348.6v-15.5h5.7c1.4,0,2.6,0.4,3.5,1.3c0.9,0.9,1.3,2.1,1.3,3.5c0,1.5-0.5,2.6-1.4,3.5c-0.9,0.9-2.1,1.4-3.5,1.4
		h-3.5v5.7H186.6z M188.8,341h3.2c0.9,0,1.7-0.3,2.2-0.8c0.5-0.5,0.8-1.3,0.8-2.2c0-0.9-0.3-1.6-0.8-2.2c-0.5-0.5-1.3-0.8-2.2-0.8
		h-3.2V341z"/>
	<path d="M199.9,348.6v-15.5h4.9c1.3,0,2.3,0.1,2.9,0.4c0.8,0.3,1.4,0.9,1.8,1.6c0.4,0.7,0.7,1.5,0.7,2.5c0,1-0.3,1.9-0.8,2.7
		c-0.5,0.8-1.2,1.3-2,1.6v0c0.1,0.1,0.3,0.4,0.4,0.7l3.3,6h-2.5l-3.3-6.2h-3.3v6.2H199.9z M202.1,340.5h3.1c0.8,0,1.5-0.3,2-0.8
		c0.5-0.5,0.7-1.2,0.7-2.1c0-1.2-0.5-2-1.4-2.4c-0.4-0.2-1-0.3-1.9-0.3h-2.6V340.5z"/>
	<path d="M212.6,340.7c0-2.2,0.8-4.1,2.3-5.6c1.5-1.5,3.4-2.3,5.7-2.3c2.3,0,4.2,0.8,5.7,2.3c1.5,1.5,2.3,3.4,2.3,5.6
		c0,2.3-0.8,4.2-2.3,5.8c-1.5,1.6-3.4,2.3-5.7,2.3s-4.2-0.8-5.7-2.3C213.4,344.9,212.6,343,212.6,340.7z M214.9,340.7
		c0,1.7,0.5,3.2,1.6,4.4c1.1,1.2,2.4,1.8,4.1,1.8c1.6,0,3-0.6,4.1-1.8c1.1-1.2,1.6-2.6,1.6-4.4c0-1.7-0.5-3.1-1.6-4.2
		s-2.4-1.7-4.1-1.7c-1.7,0-3,0.6-4.1,1.7S214.9,339,214.9,340.7z"/>
	<path d="M234.2,348.6V342l-5.2-8.9h2.5l2.8,5.1l0.9,2h0c0.3-0.7,0.6-1.4,0.9-2l2.8-5.1h2.5l-5.2,8.9v6.6H234.2z"/>
	<path d="M243.8,348.6v-15.5h9v1.9H246v4.8h5.5v1.9H246v5h7.2v1.9H243.8z"/>
	<path d="M254.9,340.7c0-2.3,0.7-4.1,2.2-5.7c1.5-1.5,3.4-2.3,5.6-2.3c2.4,0,4.2,0.7,5.7,2l-1.1,1.6c-0.6-0.5-1.3-0.9-2.1-1.2
		c-0.8-0.3-1.6-0.5-2.4-0.5c-1.8,0-3.1,0.6-4.2,1.7c-1,1.1-1.5,2.5-1.5,4.2c0,1.7,0.5,3.2,1.6,4.3s2.4,1.8,4.2,1.8
		c0.9,0,1.7-0.2,2.6-0.5c0.8-0.4,1.6-0.9,2.2-1.5l1.2,1.6c-1.6,1.6-3.6,2.5-6,2.5s-4.3-0.8-5.7-2.3S254.9,343,254.9,340.7z"/>
	<path d="M275.2,348.6V335h-5.3v-1.9h12.8v1.9h-5.3v13.6H275.2z"/>
	<path d="M283.4,340.7c0-2.2,0.8-4.1,2.3-5.6c1.5-1.5,3.4-2.3,5.7-2.3c2.3,0,4.2,0.8,5.7,2.3c1.5,1.5,2.3,3.4,2.3,5.6
		c0,2.3-0.8,4.2-2.3,5.8c-1.5,1.6-3.4,2.3-5.7,2.3s-4.2-0.8-5.7-2.3C284.2,344.9,283.4,343,283.4,340.7z M285.6,340.7
		c0,1.7,0.5,3.2,1.6,4.4c1.1,1.2,2.4,1.8,4.1,1.8c1.6,0,3-0.6,4.1-1.8c1.1-1.2,1.6-2.6,1.6-4.4c0-1.7-0.5-3.1-1.6-4.2
		s-2.4-1.7-4.1-1.7c-1.7,0-3,0.6-4.1,1.7S285.6,339,285.6,340.7z"/>
	<path d="M301.3,346.8l1.2-1.6c0.5,0.5,1.1,0.9,1.8,1.2c0.7,0.3,1.4,0.5,2.1,0.5c0.8,0,1.5-0.2,2-0.6s0.7-0.9,0.7-1.6
		c0-0.6-0.3-1.2-0.8-1.6c-0.5-0.4-1.1-0.8-1.9-1.1s-1.5-0.6-2.2-1s-1.4-0.8-1.9-1.5c-0.5-0.6-0.8-1.4-0.8-2.3c0-1.3,0.5-2.3,1.4-3.1
		c1-0.8,2.2-1.2,3.6-1.2c1.8,0,3.2,0.5,4.3,1.6l-1,1.8c-0.4-0.4-1-0.7-1.6-1c-0.6-0.2-1.2-0.4-1.8-0.4c-0.8,0-1.5,0.2-2,0.6
		c-0.5,0.4-0.8,0.9-0.8,1.6c0,0.5,0.2,1,0.5,1.4s0.8,0.7,1.4,0.9c0.6,0.2,1.2,0.5,1.8,0.8c0.6,0.3,1.2,0.6,1.8,0.9s1,0.8,1.4,1.4
		c0.4,0.6,0.5,1.3,0.5,2c0,1.3-0.4,2.3-1.3,3.1s-2.1,1.3-3.6,1.3C304.4,348.8,302.7,348.1,301.3,346.8z"/>
</g>
<g>
	<path class="st2" d="M599.6,436.6c2.6-4.6,5.5-9,7.9-13.6c2.2-1.7,5.3-2.4,6.3-5.4c-1-1.5-1.9-3-2.6-4.6c2.2-0.5,4.4-1.3,6.4-2.4
		l-3.6-22c2,0.1,4,0,5.9-0.6c-3.8-5.1-7.4-10.8-8-17.2c-0.2-1.1,0.5-2,1-2.9c0.5-0.8,1-1.6,1.6-2.3c-0.2-1.9-0.5-3.7-0.9-5.6
		c-0.6,0.8-1.2,1.7-1.8,2.5l0,0.3c-0.2,0.2-0.5,0.6-0.7,0.9c0-0.5,0-1.4-0.1-1.9c-0.9-1.4-1.2-3.1-1.6-4.7
		c-1.5-6.8-3.9-13.3-6.9-19.6c0.4,0.1,0.8,0.2,1.2,0.4c-0.5-0.9-0.9-1.9-1.3-2.8c0,0-0.1-0.1-0.1-0.1c0,0,0,0,0.1,0
		c-0.6-1.4-1.2-2.8-1.7-4.3c-0.2-0.4-0.2-0.9-0.2-1.2c-1.3-0.8-2.5-1.6-3.7-2.5c-5.5-25-17.6-32.7-27.6-34.5
		c1.5-2.3-13.2-1.5-24.1-0.5l-1-2.6h0c15-6.8,26.5-18.8,30.4-34.8c0.8,0,1.6,0.8,2.4,0.8c2.2-8.1,3-16.8,4.3-25.2
		c-1.9-1.3-3.6-2.6-5.1-4.1c1.8-1.2,3.1-3.2,2.9-6.1c-0.8-20.3-0.9-40.6-0.5-60.8c0-2.2-0.7-4-1.9-5.2c0.7-1.3,1.5-2.6,2.3-3.9
		c-0.4-1-0.8-2-1.3-3c1.6-1.6,3.6-2.8,5.6-3.3c1.2-1.6,2.4-3,3.6-4.4c2.9-5.2,4.9-10.9,5.7-16.6c0.7-4.2,0.2-8.2-0.2-12.2
		c-0.8-0.1-1.4-0.2-2.2-0.4c0.3-1.7-0.3-3.5-1.7-4.5c-2.6-5.3-8.2-7.9-12.9-10.4c-2.5,0.5-5.1,1.2-7.5,1.9c-2.5,0.8-4.9,1.7-7.2,2.7
		c-1.6,3.8-5.2,4.7-7.4,3.8c-17.4-9-35.5-22.1-55.1-19.6c-10.2,1.6-19.6-0.8-30.1,1.5c-2.4,0.3-4.8,0.8-7.2,1.4
		c-14.3,3.6-27.9,12.1-39.6,22.4c-1.5,0.8-2.9,0-4.4-0.8c-2-0.8-4.2-2.2-5.6-4.3c-2.2-1.6-4.4-2.5-7-1.8c-2.5-0.5-5.1-0.9-7.6-1.2
		c-4.5,2.9-9.8,6.1-12.1,11.6c-1.3,1.2-1.7,3-1.3,4.7c-0.8,0.2-1.4,0.4-2.1,0.6c-0.1,4.1-0.4,8,0.7,12.2c0.5,2.3,1.2,4.5,2.1,6.7
		c3.7,4.7,6.8,9.8,9.3,15.3c0.4,0.4,0.7,0.8,1.1,1.2c-0.1,0.2-0.1,0.4-0.2,0.6c2.4,5.5,4.3,11.3,5.7,17.2c-3.4,1.2-6.1,4.4-4.9,8.9
		c4.5,17,4,35.8,4.8,53.4c-0.5,2.2-1,4.3-1.5,6.4c0.5,2.3,1,4.7,1.6,7c0.5,2.7,1.1,5.3,1.8,7.8c2.9,10.2,8.3,19.3,18.7,26.4
		c2.2,1.7,4.7,3.1,7.4,4.4l-27.8-2.5c-28.5-2.8-45.5,18.4-45.5,18.4l0.9,2.2c-4.3,4-6,7.3-6,7.3c0,0,0,0,0,0l-10.8,7.9
		c-2.5,0.6-5.1,0.7-7.6,0.1c-1.2,4.6,0.6,9.2,0.1,13.9c-0.3,3.1,2.1,5.7,2.3,8.7c-3,8.1-4.5,16.7-4.5,25.3l0,0l0,0
		c0,7.1,0.9,14.3,2.7,21.2c1.9,6.6,0.1,13.5-1.6,19.9c1.6-0.3,3.3-0.6,4.9-1c-0.4,1.7-0.8,3.3-1.3,5c2.2-0.1,4.3-0.9,6.3-1.6
		c6,12.8,14.2,24.6,24,34.8c-1.5,2.4-3.4,4.5-4.5,7.1c-3.6,8.1-3.1,17.7,1.1,25.5c4.7,8.7,12.4,15.4,20.6,20.7
		c2.6,1.8,5.6,3.1,8,5.1c-7,1.3-14.2,2.6-20.7,5.5c-1.7,1-4.1,2-4.2,4.3c0.5,2.2,2.7,3.2,4.5,4.1c7.8,3.5,16.3,4.5,24.6,6.2
		c6.2,4.7,12.2,10.2,19.9,12.3c2.7,0.3,5.5-0.4,8.2-0.6c19.9-1.9,39.7-4,59.6-6c11.8-0.4,23.6,0.1,35.4-0.6
		c15.3-0.3,30.6-1.4,45.8-2.7c12.6-1.4,25.3-2.8,37.6-6c4-1.2,8.2-2.2,11.4-5c1.1-0.9,1.3-2.8,0.2-3.8c-2.5-2.5-6.1-3.5-9.4-4.5
		c-5.1-1.7-10.4-2.4-15.6-3.5c10.9-6.4,22-13.7,28.8-24.8c5.7-8.9,6-21.1,0-29.9C611.4,442.9,605.5,439.3,599.6,436.6z M414.4,361.7
		c-1.5,3.2-4,6-6.2,8.9c1.5,2.8,1.3,6.6-0.7,9.1c0.8,3.4,1.1,7,1.9,10c0.4,1.4,0.3,2.6,0.1,3.7c2,4.5-0.2,11-6.6,11
		c-5.4,0-7.8-4.6-7.3-8.7c-0.3-0.6-0.6-1.3-0.8-2c-0.6-2.2-0.9-4.5-1.3-6.7c-0.2-1.2-0.7-2.5-0.8-3.8c-0.1-1.8-1.3-2.2,0.4-1.2
		c-2.8-1.6-4.5-5.4-3.5-8.6c2.4-7.5,8.4-12.4,11.6-19.4C405.4,345.1,418.5,352.9,414.4,361.7z"/>
	<g>
		<path d="M460.2,161.5l0.1,0.1c2.7,0.2,5.4,0.5,8.1,0.6c-6.2-1.5-12.5-3-17.9-5.4c7,1.3,14.1,2.9,21.5,3.2c-2.8-1-5.8-1.7-8.6-2.8
			l-0.3,0c-0.4-0.2-1.2-0.6-1.6-0.7c4.5,0.7,8.9,1.5,13.5,1.8c1.5-1,1.3-2.7,2-4c-0.9-0.1-1.8-0.3-2.7-0.4
			c-17.7-3.5-34.1-8.9-50.1-14.6c-1.1-0.4-2.1-1-3.5-1c-0.3,0.5-0.6,0.9-0.8,1.4c2.4,1.5,4.8,2.9,7.5,4.3c-2.9-0.6-5.6-1.6-8.2-2.6
			c-1.3,3.9-2.4,8-0.5,12C431.9,157.1,445.8,160.1,460.2,161.5z"/>
		<path d="M502.3,236.3c0.4,1,0.6,0.9-0.8,1.2c-1.3,0.3-2.5,0.6-3.8,1c-2.5,0.6-5.1,1.2-7.7,1.6c-5.3,1-10.6,1.7-16,2.2
			c-3.4,0.3-3.3,4.2,0.2,3.9c7.4-0.7,14.7-1.7,21.8-3.3c3.1-0.7,7.1-1.2,9.8-2.5c2.5-1.3,2.5-3.4,1.7-5.3
			C506.4,232.7,501.3,233.9,502.3,236.3z"/>
		<path d="M415,126.4c-1.3-0.4-2.5-1-3.7-1.7c0.9,0.9,1.9,1.8,2.9,2.4C414.5,126.9,414.8,126.7,415,126.4z"/>
		<path d="M484.8,232.7l0,0.3c0.9,0.2,1.8,0.3,2.8,0.3c0.2,0,0.4,0,0.6-0.1c0.2,0,0.4,0,0.6,0c1,0,1.9-0.2,2.8-0.5l0-0.3
			c5.7-2.1,10.9-8.1,14.2-14.1c0.1-0.4,0.1-0.8,0.1-1.2c0.1,0.2,0.3,0.3,0.4,0.5c-0.3-2.2-1.1-4.1-3.4-4.9c-0.8-0.3-1.4-0.7-1.9-1.2
			c-1.4-0.4-2.8-0.4-4.1,0c-3.7,0.2-6.6,0.9-9.5,1.3c-2.9-0.1-5.9-0.7-9.6-0.5c-0.5-0.1-1-0.2-1.4-0.2c0.1-0.4,0.3-0.7,0.4-1.1
			c0.1-0.3,0.2-0.5,0.2-0.8c-1.5,0.3-2.4,0.7-3.4,1.6c-1.1,1.1-1.8,2.4-2.6,4c-0.3,0.5-0.6,0.9-1.1,1.2c0.1,0.2,0.2,0.4,0.2,0.6
			c0.3,1,0.1,2-0.3,3c0,0.1-0.1,0.3-0.1,0.4c0,0.3,0,0.5,0,0.8c0,0.3,0,0.6-0.1,0.9c0.4-0.4,0.8-0.8,1.2-1.3
			C474.5,226.6,479.5,231.3,484.8,232.7z"/>
		<path d="M476.8,303.7c0.2,0,0.3,0,0.5,0c0-1,0-2,0.1-3.1c-0.2,0.1-0.3,0.2-0.5,0.3C476.8,301.9,476.8,302.8,476.8,303.7z"/>
		<path d="M523.6,263.3c1.6-0.3,2.8-1,3.6-2C526.2,262.1,525,262.8,523.6,263.3z"/>
		<path d="M503.2,302.1c0.3-0.8,0.6-1.6,0.8-2.5c0-0.2,0.1-0.3,0.2-0.5c-0.5,0-1,0-1.5,0C502.9,300.1,503.1,301.1,503.2,302.1z"/>
		<path d="M483.3,250.1c3.7-1.1,7.7-1.6,11.7-1.1c1.7-0.5,3.4-1.4,4.9-2.3c-6.8-0.1-14.8-0.7-20.4,4
			C480.6,249.9,482,250,483.3,250.1z"/>
		<path d="M483.8,256.2c0.6,0.6,1.1,1.1,1.7,1.6c-1.4-1.1-3-0.4-4.9,0.5c0.1,0.1,0.2,0.3,0.3,0.4c0.2,0.5,0.5,1.1,0.6,1.6
			c0.1,0,0.1,0,0.2-0.1c-0.1,0-0.1,0.1-0.2,0.1c0.7,2,1.1,4.1,0.9,6.3c0.4,0.2,0.8,0.4,1.2,0.6c3.3,1.3,4.6,4.1,4.4,7.8
			c0.8,0.5,1.3,1.5,1.3,2.6c0.6,0,1.2,0,1.8,0c0.3-2.9,0.7-5.8,1.5-8.9c0.5,2.2,1.7,3.2,2.2,5.3c1.2-4.5,0.3-8.8,0.1-12.7
			c1.3,1.8,3.2,2.7,5.4,3.1C495.8,259.9,490.2,257.1,483.8,256.2z"/>
		<path d="M459.2,263.2c-1.5-1.2-2.8-2.9-4.2-4.6c-0.1-0.2-0.3-0.4-0.4-0.6C455.9,260.3,457.4,262.1,459.2,263.2z"/>
		<path d="M474.4,276.7c-1.1,1.6-1.4,3.6-1.5,5.6C473.5,280.8,474,278.8,474.4,276.7z"/>
		<path d="M599.6,436.6c2.6-4.6,5.5-9,7.9-13.6c2.2-1.7,5.3-2.4,6.3-5.4c-1-1.5-1.9-3-2.6-4.6c2.2-0.5,4.4-1.3,6.4-2.4l-3.6-22
			c2,0.1,4,0,5.9-0.6c-3.8-5.1-7.4-10.8-8-17.2c-0.2-1.1,0.5-2,1-2.9c0.5-0.8,1-1.6,1.6-2.3c-0.2-1.9-0.5-3.7-0.9-5.6
			c-0.6,0.8-1.2,1.7-1.8,2.5l0,0.3c-0.2,0.2-0.5,0.6-0.7,0.9c0-0.5,0-1.4-0.1-1.9c-0.9-1.4-1.2-3.1-1.6-4.7
			c-1.5-6.8-3.9-13.3-6.9-19.6c0.4,0.1,0.8,0.2,1.2,0.4c-0.5-0.9-0.9-1.9-1.3-2.8c0,0-0.1-0.1-0.1-0.1c0,0,0,0,0.1,0
			c-0.6-1.4-1.2-2.8-1.7-4.3c-0.2-0.4-0.2-0.9-0.2-1.2c-1.3-0.8-2.5-1.6-3.7-2.5c-5.5-25-17.6-32.7-27.6-34.5
			c1.5-2.3-13.2-1.5-24.1-0.5l-1-2.6l0,0c15-6.8,26.5-18.8,30.4-34.8c0.8,0,1.6,0.8,2.4,0.8c2.4-9,3.2-18.8,4.7-28.2
			c0.1-1.6,0.3-3.1,0.4-4.7c3.8-2.6,6.7-6.1,8.6-10.6c2.9-7.1,5.4-14.4,8.3-21.5c0.6-1.5,1.7-3.1,3.2-3.9c2.3-1.3,3-3,3-5.2
			c0-1.3-0.2-2.7,0-4c0.2-1.5-0.2-2.5-1-3.3c1.2-1.5,1.3-3.9-0.6-5.3c-7.9-5.8-14.1-13.4-18.4-22.2c-1.9-3.9-7.8-0.5-5.9,3.4
			c4.3,8.7,10.3,16.1,17.7,22.2c-5-0.9-10-1.8-15-2.7c0.6-9.2-1.6-16.7-4.3-22.4c1.9-1.9,4.3-3.2,6.7-3.6c4.1-6.3,7.2-13.6,8.2-20.7
			c0.7-4.2,0.2-8.2-0.2-12.2c-0.8-0.1-1.4-0.2-2.2-0.4c0.3-1.7-0.3-3.5-1.7-4.5c-2.6-5.3-8.2-7.9-12.9-10.4
			c-2.5,0.5-5.1,1.2-7.5,1.9c-2.5,0.8-4.9,1.7-7.2,2.7c-1.6,3.8-5.2,4.7-7.4,3.8c-17.4-9-35.5-22.1-55.1-19.6
			c-10.2,1.6-19.6-0.8-30.1,1.5c-2.4,0.3-4.8,0.8-7.2,1.4c-14.3,3.6-27.9,12.1-39.6,22.4c-1.5,0.8-2.9,0-4.4-0.8
			c-2-0.8-4.2-2.2-5.6-4.3c-2.2-1.6-4.4-2.5-7-1.8c-2.5-0.5-5.1-0.9-7.6-1.2c-4.5,2.9-9.8,6.1-12.1,11.6c-1.3,1.2-1.7,3-1.3,4.7
			c-0.8,0.2-1.4,0.4-2.1,0.6c-0.1,4.1-0.4,8,0.7,12.2c1.8,8.4,6.6,16.7,12.5,23.2c-1.6,4.4-2.8,9.7-2.7,15.8
			c-4.1,0.7-8.2,1.5-12.3,2.3c4.6-4.7,9-9.5,13.1-14.6c2.8-3.4-2.1-8.2-4.8-4.8c-5.5,6.7-11.4,13.1-17.7,19.1
			c-1.4,1.3-1.3,2.9-0.4,4.1c-0.9,1.5-0.7,3.8,0.1,7.6c0.2,1,1,2.2,1.9,2.8c2.3,1.3,3.7,3.1,4.5,5.5c2.1,6.1,4.4,12.1,6.6,18.1
			c2.5,7,7,11.9,13.1,15.1c0.9,7.6,2.1,15.1,4.1,22.6c0.5,2.7,1.1,5.3,1.8,7.8c2.9,10.2,8.3,19.3,18.7,26.4c2.2,1.7,4.7,3.1,7.4,4.4
			l-27.8-2.5c-28.5-2.8-45.5,18.4-45.5,18.4l0.9,2.2c-4.3,4-6,7.3-6,7.3c0,0,0,0,0,0l-10.8,7.9c-2.5,0.6-5.1,0.7-7.6,0.1
			c-1.2,4.6,0.6,9.2,0.1,13.9c-0.3,3.1,2.1,5.7,2.3,8.7c-3,8.1-4.5,16.7-4.5,25.3l0,0l0,0c0,7.1,0.9,14.3,2.7,21.2
			c1.9,6.6,0.1,13.5-1.6,19.9c1.6-0.3,3.3-0.6,4.9-1c-0.4,1.7-0.8,3.3-1.3,5c2.2-0.1,4.3-0.9,6.3-1.6c6,12.8,14.2,24.6,24,34.8
			c-1.5,2.4-3.4,4.5-4.5,7.1c-3.6,8.1-3.1,17.7,1.1,25.5c4.7,8.7,12.4,15.4,20.6,20.7c2.6,1.8,5.6,3.1,8,5.1
			c-7,1.3-14.2,2.6-20.7,5.5c-1.7,1-4.1,2-4.2,4.3c0.5,2.2,2.7,3.2,4.5,4.1c7.8,3.5,16.3,4.5,24.6,6.2c6.2,4.7,12.2,10.2,19.9,12.3
			c2.7,0.3,5.5-0.4,8.2-0.6c19.9-1.9,39.7-4,59.6-6c11.8-0.4,23.6,0.1,35.4-0.6c15.3-0.3,30.6-1.4,45.8-2.7
			c12.6-1.4,25.3-2.8,37.6-6c4-1.2,8.2-2.2,11.4-5c1.1-0.9,1.3-2.8,0.2-3.8c-2.5-2.5-6.1-3.5-9.4-4.5c-5.1-1.7-10.4-2.4-15.6-3.5
			c10.9-6.4,22-13.7,28.8-24.8c5.7-8.9,6-21.1,0-29.9C611.4,442.9,605.5,439.3,599.6,436.6z M582.7,212.5c0.2-2.3,0.3-4.5,0.4-6.8
			c0.1-2.3,0.1-4.6,0.1-6.9c0.3-2,0.6-4.1,0.8-6.3c0.7-6.3,1-12.7-0.4-18.6c6.8,2.2,9.2,5.4,9.2,12.4c-0.1,9.5-1.7,18.7-6.5,27.2
			c-1.1,2-2.5,3.6-4.1,5C582.4,216.5,582.5,214.5,582.7,212.5z M604.9,360.2c-0.7-2.6-1.5-5.3-2.2-8.4
			C603.5,354.6,604.3,357.4,604.9,360.2z M517.2,300.8c1.3-0.6,1.9,1.9,0.6,2.1C516.8,302.8,516.6,301.4,517.2,300.8z M579,194.1
			c-0.3,5.9-1,12-3,17.8c0,0.5,0.1,1,0.1,1.4c-0.1,1-0.1,2-0.2,3c0,0.2,0,0.4,0.1,0.6c0.1,0.6,0,1.2-0.2,1.6
			c-0.1,0.9-0.1,1.7-0.2,2.6c0,0.4-0.1,0.9-0.1,1.3c0,0-0.1,0-0.1,0c-7.3,2.7-15,3.5-23.3,3.6c-9.4-0.2-18.9-1.6-28-5.1
			c-4.9-1.8-8.9-4.6-11.8-8.7c-1-1.4-1.9-2.9-2.8-4.3c1.1,0.6,2.2,1.2,3.4,1.7c-1.7-2.2-4.2-3.5-5.7-6.1c0,0,0-0.1,0-0.1
			c8.9,2.1,13.2,6.3,22.1,0.4c-1,2.6-2.8,4.8-4.1,7.2c3.2-2.1,5.4-5.7,8.2-8.4c-1.3,4.3-4.4,7-7,10.5c3.5-1.1,5.8-4.6,8.5-7
			c-0.9,3-3.4,5.1-5.2,7.5c7.6-2.9,11-10.2,14.2-17.3c2.4-5.1,8.1-2.3,11.6,0.2c-6.2-21.4-30.5-11.8-45.4-8.3
			c-2.3,0.6-4.7,1.1-7.1,1.3c-0.1-0.9-0.2-1.8-0.2-2.7c-0.2-5.6,2.5-9.6,7.9-12.2c5.8-2.7,11.9-4,18.2-4.9c3.6-0.2,7.3-0.6,10.9-1
			c12.4-0.7,24.6,0.2,36.6,3c0.2,0.5,0.3,1,0.2,1.7c0,0.2,0,0.4-0.1,0.6C578.9,180.5,579.3,187.6,579,194.1z M509,197.1
			c1-1.6,3-2,4.6-2.4c5.5-1.4,11.4-3,16.9-4.3c1.7-0.2,3.1-0.5,4.7-0.2c1.3,0.6,1,2.5,0.1,3.4c-2.5,3.3-6.5,5.4-10.4,6.5
			c-4.3,1-9.3,1.3-13.7-0.4v0C510.3,199.2,508.6,198.6,509,197.1z M585.2,135.9c0-0.3,0.2-0.9,0.2-1.2c0-1.3,0.4-2.5,1.3-3.1
			C586.4,133.1,585.9,134.4,585.2,135.9z M388.1,138.5c1,0.6,1.5,1.7,1.6,3c0,0.3,0.2,0.9,0.3,1.2
			C389.2,141.3,388.6,140,388.1,138.5z M386,210c-3.1-7.9-4.8-16-4.6-24.4c0.2-6.5,2.7-9.6,9.4-11.8c0.3-0.1,0.6-0.2,0.9-0.3
			c0.1,0.7,0.2,1.5,0.3,2.3c-0.2,0-0.4,0-0.5-0.1c1.7,14.9,2.1,30,3.7,45C391,218.3,387.9,214.8,386,210z M389,122.6
			c-0.3-0.4-0.5-1-0.8-1.3c-0.5,1.1-0.7,2.1-0.8,3.2c-0.4-1.6-0.4-3.3-0.2-4.9c0,0-0.1-0.1-0.2-0.3c0.4-2.1,0.8-4.7,1.4-6.8
			c-0.4,0.2-0.9,0.4-1.2,0.4c-0.1-0.1-0.2-0.2-0.4-0.2c1.9-2.7,4-4.9,7.3-6c1.8-0.9,3.6-1.3,5.4-1.3c1.8,0.1,3.7,0.5,5.5,1.2
			c4.7,2.2,10.5,3.9,12.7,9.6c0.7-0.8,2.2-1.6,2.9-1.6c1.3,1,2,3.5,2,5.1c9.8-13.5,23.4-21.6,38.2-25.5c2.5-0.6,5-1.2,7.5-1.6
			c26.1-4.7,61-3.1,79.8,20.6c0.7,0.8,3.6-2.5,7.3-2.5c0.7,0,1.5-1.6,1.8-3.3c1.6-0.9,3.2-2,4.9-3.1c5.1-3.2,10.5-6.2,16.1-3.9
			c3.4,0.8,5.7,2.8,7.7,5.3c-0.2,0-0.2,0.1-0.3,0.2c-0.3,0-0.8-0.1-1.2-0.3c0.8,2.1,1.3,4.7,1.9,6.7c-0.1,0.2-0.2,0.3-0.2,0.3
			c0.4,1.6,0.4,3.3,0.2,4.9c-0.1-1.1-0.5-2.1-1-3.1c-0.3,0.3-0.4,0.9-0.7,1.4c-0.6,5.9-2.2,11.6-5.5,16.3c1.1-3.2,2.7-6.7,3-10.2
			c-2.3,5.9-5.5,12.2-10.1,16c-0.4-0.5-0.7-0.9-1-1.2c0.9-1.3,1.7-2.7,2.3-4.1c-1.2,0.9-2,2-3.1,3.2c-0.9-0.9-1.4-1.4-1.4-1.4
			l0.5,2.2c-1.6,1.4-3.4,2.5-5.3,3c-0.4-0.3-0.9-0.4-1.4-0.6c1.1-0.8,2.2-2,3.2-3.2c-1.4,1.1-2.8,1.9-4.6,2.5l-0.8-0.2
			c0.1,0,0.1-0.1,0.1-0.1c-0.9,0.3-1.9,1-2.4,1.4l0,0.7c1.2-0.8,2.9-0.9,4.2,0.4c4.6,4.6,7.5,11.2,9.8,17.3c0.1,0.1,0.1,0.3,0.2,0.5
			c0.3-0.2,0.6-0.3,0.9-0.5c-0.1-1.2,0.1-2.3,0.3-3.4l3.3,13.9c-3.2-0.5-6.5-1-9.7-1.3c-3.8-0.4-7.6-0.7-11.3-0.9
			c0.2-0.3,0.4-0.6,0.6-0.8c-0.4,0.1-1.1,0.2-1.5,0.2c-4.5-0.2-9.1,0.1-13.6-0.4c5.1-0.1,10-1.2,15-1.8c1.8-0.7,1.3-2.1,1.8-3.2
			c-2.6,0.7-5.3,1.1-8,1.5c-1.5-0.1-2.9,0.1-4.3,0.2c3.6-1.1,7.4-1.9,10.9-3.1c0.7-0.3,1.8-0.5,1.6-1.2c0-2.1-0.1-4.2-0.9-6.2
			c-1.5,0.3-2.9,0.6-4.3,1c-17.6,4-35.7,7.7-54.4,9c-0.3,0-0.9,0-1.2,0c0.6,1.7,0,3.5,1.1,5.1c2.9-0.1,5.8,0,8.7,0.2
			c-2.4,0.6-5,0.8-7.6,1.1c-2-0.2-1.2,1.2-0.7,1.8c4,0.6,8.2,0.6,12.4,0.7c0,0,0,0,0,0c-3.8,1-7.5,2.3-11.2,3.8
			c-8.4,3.3-17.5,3.2-26,0c-15.3-5.8-31.1-8.6-47.3-8.1c-10-0.2-19.8,0.6-29.4,2l1.6-6.7c0.5,0.4,0.9,0.8,1.3,1.3
			c0.1,0.2,0.3,0.3,0.4,0.5c0.3-0.4,0.6-0.7,1-0.9c2.2-6.5,5.4-12.9,9.9-17.9c0,0,0,0,0,0c-2.3-0.5-4.4-1.6-6.5-3.3
			c-0.4-0.3-0.7-0.6-1.1-1l0.8-3.4c0,0-0.9,0.7-2.1,2.2c-0.3-0.3-0.6-0.5-1-0.7c0.2,0.4,0.4,0.8,0.6,1.2c-0.5,0.6-1,1.2-1.6,2
			c-3.7-3.5-6.5-8.3-8.7-12.9c0.5,3.5,2.4,6.8,3.7,9.9C392,134,390.1,128.4,389,122.6z M569.9,139.4c-0.5,0.3-1,0.5-1.4,0.8
			c0.4-0.6,0.8-1.1,1.2-1.7L569.9,139.4z M403.2,143.4l0.5-2c1,1.4,2.2,2.6,3.3,3.9C405.6,144.9,404.4,144.2,403.2,143.4z
			 M399,216.6c0.2,0.4,0.4,0.7,0.7,1c0-0.2,0-0.4,0.1-0.6c1.6-7-1.3-14.3-2.7-21.1c-1.1-5.6-1.7-11.1-0.2-16.4
			c-0.1,0-0.2,0.1-0.3,0.1c0-2,0-3.4,0.4-5c-0.4-0.1-0.9-0.1-1.3-0.2l0.5-2.1c10.3-2.6,20.9-3.3,31.7-3.6c10.6,0.3,21.2,1,31.4,4.5
			c1.5,0.5,2.9,1.1,4.2,1.7c5.5,2.5,8.2,6.7,7.8,12.2c-0.1,0.8-0.1,1.7-0.2,2.5c-2.4-0.2-4.7-0.6-7-1.2
			c-14.9-3.5-39.2-13.1-45.4,8.3c3.5-2.5,9.2-5.3,11.6-0.2c3.2,7.1,6.6,14.4,14.2,17.3c-1.7-2.4-4.3-4.5-5.2-7.5
			c2.7,2.4,5,5.8,8.5,7c-2.6-3.5-5.7-6.2-7-10.5c2.8,2.7,5,6.4,8.2,8.4c-1.4-2.4-3.1-4.6-4.1-7.2c8.9,5.9,13.2,1.7,22.1-0.4
			c-1.5,2.6-4,3.9-5.8,6.2c1.2-0.5,2.3-1.2,3.5-1.8c-1.7,2.8-3.8,5.5-6.2,8c-3.9,4.1-9.6,5.8-15.1,7.2c-13.8,3.6-27.5,4-41.4,0.4
			c-0.8-0.2-1.6-0.5-2.3-0.7C399.5,220.8,399.2,218.7,399,216.6z M463.2,199.7L463.2,199.7c-4.4,1.6-9.4,1.4-13.7,0.4
			c-3.9-1.1-7.9-3.2-10.4-6.5c-0.9-0.9-1.2-2.8,0.1-3.4c1.5-0.3,2.9,0,4.7,0.2c5.5,1.3,11.4,2.9,16.9,4.3c1.6,0.4,3.6,0.8,4.6,2.4
			C465.7,198.6,464.1,199.2,463.2,199.7z M409.2,257.2c-1-2.4-1.9-4.9-2.6-7.5c-1.9-8-4.5-15.7-6.2-23.5c1.7,0.6,3.4,1,5.2,1.4
			c13.9,2.8,27.7,1.2,41.3-1.5c10.4-2.1,18.6-8.8,22.3-18.4c0.3-0.8,0.6-1.6,0.9-2.4c0.6-0.3,1.3-0.5,1.9-0.7
			c0.2-0.1,0.3-0.2,0.5-0.3c2-4.5,3-9.3,3.1-14c0.2-0.5,0.3-0.9,0.5-1.4c1.3-4,3.2-5.6,7.7-6c1.4-0.1,2.7-0.1,4.1-0.1
			c6.6,0,8.6,1.7,10.4,7.5c0,0.1,0.1,0.3,0.1,0.4c0.2,4.6,1.1,9.2,3.1,13.6c0.2,0.1,0.4,0.2,0.5,0.3c0.3,0.1,0.6,0.2,0.9,0.3
			c0.6,1.5,1.2,2.9,1.9,4.3c4.7,9.2,11,13.4,22,16.8c8.4,2.6,16.3,3.5,25.1,3.5c6.8,0,14.4-0.9,20.7-3c0.8-0.3,1.6-0.5,2.4-0.8
			c-0.1,0.8-0.1,1.6-0.2,2.4c-0.5,26.3-15.8,51.9-44.1,59.7c-1.3,0.7-2.9,1.6-4.6,2.5c-5,2.8-10.8,5.9-10.8,5.9c-0.9-2-1.9-4-3-5.9
			c0.1,0.1,0.1,0.1,0.2,0.2c4.6-4.7,10.1-8.9,13-14.3c1.7-2.2,3.3-4.6,4.7-7c4-7.2,5.7-15.5,2.1-26.2c-1.3-2.9-2.5-5.4-3.8-7.9
			c-1.1-1.9-2-4.2-3.2-6.3c-1.2-2-2.7-3.7-4.7-4.3c1.1,1.5,2.3,3.4,3.4,5.6c2.3,4.4,4.4,9.9,5.3,15.2c0.5,2.6,0.7,5.2,0.5,7.6
			c-0.4,2.7-0.9,6.2-3.1,8.4c1.5-1,2.8-2.2,4.1-3.4c-5,10.8-9.8,27.9-19.6,30.4c-0.5-1-1.1-2-1.6-3c0.7,4.9,1.7,9.8,2.3,14.7
			c0.7,1.8,0.8,3.7,0.4,5.6c-1.9,1.2-3.7,2.4-5.6,3.6c0,0.3,0,0.6,0,0.8c0,3.1-3.5,4-5.5,2.7c-0.5,0.3-1,0.6-1.5,1l-4.9-14.8
			l1.7,16.7c-2.5,1.5-5.1,3.1-7.6,4.6c-0.9,0.6-2,0.9-3,1.3l0,0.2c-0.5,0.1-1.4,0.4-1.8,0.6c-2.4-1.4-4.7-3-7.1-4.4
			c0-0.4,0-0.7-0.1-1.1c-1,0.4-2.1,0.3-3.1-0.1l2.1-20.8l-4,18.7c-3.2-2.2-6.5-4.3-9.5-6.7c-0.9-2.7-0.3-5.7-0.7-8.5
			c-0.8,2.2-1.4,4.4-2,6.6c-0.8-0.7-2.3-1.1-2.1-2.4c0-5.9,0.9-11.8,2-17.7c0,0,0-0.1,0-0.1c0,0,0,0,0,0c0.5-2.7,1-5.4,1.5-8.1
			c-0.2-0.1-0.7-0.1-0.9-0.2c-0.9,2.3-1.6,4.6-2.4,7c0,0-0.1-0.1-0.1-0.1c-5-4.5-8.3-10.1-10.2-16.6c-0.8-2.2-1.6-4.5-2.3-6.8
			c-0.7-2.3-1.3-4.6-1.9-6.8c1.5,1,2.8,2.5,4.1,4c-0.1-0.2-0.2-0.4-0.3-0.6c-1.5-2.5-2.5-5.6-3-8.9c-0.9-7.8,1.4-16.6,5.4-22.1
			c-3.3-1.2-6.5,2.1-7.3,6.5c0.8-1.1,1.6-2.2,2.4-3.3c-1.5,8.8-8.8,15.4-6.2,25.4l0.8-1.1c2.5,4.4,4.9,8.8,4.3,14.1
			c0.2-0.7,0.8-0.8,0.7-1.8c0.7,2.4,1.7,4.6,2.9,6.7c2.9,4.5,6.6,9.1,9.8,14c-0.6,2.2-1.3,4.4-2,6.6l0,0.9c-2.2-1.2-4.4-2.5-6.5-3.9
			c0.1-0.5,0.2-1,0.3-1.5c-1.5,0.4-3.3-0.1-4.4-1.2c0,0,0,0.1-0.1,0.1c-2-1.1-4-2.2-6-3.3c-3.2-0.8-6.1-1.9-8.7-3.3
			c-2.6-1.3-4.8-2.9-6.8-4.6C416.6,271.1,412.2,264.5,409.2,257.2z M476.8,321.6l-2.9-1.9l0.1-1.2c0.5,0.2,1,0.7,1.4,1.3
			C475.9,320.4,476.4,321,476.8,321.6z M417.6,424.5c3.7,4.9,2.4,19.2,2.4,19.2c-0.5,2.9-2.1,6.5-5.5,6.6c-2.9,0.2-4.6-2.7-5.3-5.1
			c-1.5-5.6-1.9-11.6-0.9-17.3c0.4-1.2,1.1-2.7,2.1-3.5c0.5-0.2,1.1-0.4,1.8-0.8C414,423.5,416.1,423.4,417.6,424.5z M394.4,367.2
			l16.6-14.3c-0.1,0.9-0.2,1.8-0.4,2.7c-0.5,4.7-3.7,8.4-6.6,11.9c1.6,0.3,3.1,0.6,4.7,1c-0.4,2.9-2.6,5-4.3,7.3
			c1.1,0.3,2.2,0.6,3.3,0.9c-1.4,8.9-3.1,17.7-5.3,26.5c-1-1.5-2-3-2.7-4.7c-3.5-7.5-6.9-15.1-9.4-23L394.4,367.2z M336.7,324.7
			l6.3,7.8c-3-2-6.3-4.2-7.6-7.8C335.8,324.7,336.3,324.7,336.7,324.7z M342.8,402.9c-4.9-11.1-8.2-23.3-8.4-35.5l49.5,6.9
			c2.2,7.1,5.1,14.1,8.1,20.9c4.1,9.1,8.8,18,14.2,26.4c0,0.2,0.1,0.4,0.1,0.5c-0.2,0.5-0.6,1.4-0.8,1.8c-0.1,0.4-0.2,1.2-0.3,1.6
			c-1.2-1.8-2.4-3.8-4.4-4.7c-1.8-1-3.8-1-5.8-1.2c-5.4,0.2-10.4,3.7-12.2,8.8c-1.9-2.1-4.3-4.1-7.3-4.2c-3.1-0.3-5.8,1.3-8.1,3.1
			c-2.6,2.6-3.2,6.2-3.1,9.7C355.8,426.6,348.2,415.4,342.8,402.9z M403.3,439.5c-0.1,3.8,0.2,7.9-1.7,11.4c-1.2,2.6-4,4.6-6.9,4.4
			c-3.6-0.6-5.5-4.3-5.8-7.6c-0.8-5.4-2.7-10.6-2.7-16c0.8-3.1,2.7-6.3,5.9-7.3c3.8-1.8,8.8,0.2,10.3,4.2
			C403.4,432.1,403.3,435.9,403.3,439.5z M384.7,451.3c-0.1,4.7-5.9,7.3-9.6,4.8c-5.4-3.5-6.4-10.5-7.3-16.3c0-4.1,1.8-8.7,5.8-10.3
			c3-0.6,5.8,1.2,7.4,3.6C383,439,384.1,445.2,384.7,451.3z M361.8,464.2c0-3.6,0.7-7.1,2.1-10.4l0,0.3
			C362.6,457.2,361.9,460.7,361.8,464.2z M379.2,462.3c-6.2,0.9-9.8-5.4-12.7-10.1c-0.1-0.4-0.2-1.1-0.2-1.5
			c-0.8,0.9-1.6,1.9-2.3,2.9l-0.1-0.3c0.8-1,1.6-1.9,2.4-2.8c0.1,0.4,0.2,1.1,0.2,1.4c2.9,4.5,6.5,10.5,12.7,9.6
			c4.4,0,7-4.1,8.3-7.8c2.8,6.3,12.7,6.5,16.4,1.1c1.2-2,1.9-4.2,2.7-6.3c2,3.9,6.6,6.6,10.9,5.3c2.5-0.6,4-2.8,5.2-4.9
			c0.8,0.3,1.6,0.6,2.5,0.8c1.7,0.6,3.4,1.1,5.1,1.7c0.1,0.2,0.3,0.3,0.5,0.5c-1.9-0.7-3.8-1.3-5.6-2c-0.8-0.3-1.6-0.6-2.5-0.9
			c-1.1,2.2-2.7,4.5-5.2,5.1c-4.4,1.5-8.9-1.5-10.9-5.5c-0.8,2.2-1.5,4.6-2.7,6.7c-3.8,5.8-13.6,5.5-16.4-1.1
			C386.2,458,383.6,462.4,379.2,462.3z M383.8,494.3c-0.4-1.8-0.7-3.7-0.7-5.5l-0.3-0.3c0.1-0.6,0.1-1.3,0.2-1.9l0.2,0.1
			c0.1,2.8,0.6,5.6,1.6,8.2C384.4,494.7,384.1,494.5,383.8,494.3z M463.2,523.4c0.1-0.8,0.3-1.7,0.5-2.5c-1.6,0.6-3.1,0.8-4.6,0.5
			c0,0.3,0,0.6-0.1,0.9c-10.7,2.6-21.7,4.3-32.6,5.9c-3.9,0.4-7.8,1.5-11.7,1c-2.9-1.3-5.4-3.3-7.4-5.7c1.8-0.8,3.6-1.5,5.4-2.1
			c1.1-0.6,2.3-1.2,3.4-1.8c-1.4,0.3-2.8,0.5-4.2,0.7c-2.1,0.2-4.2,1-6.4,0.8c-1.5-1.9-2.4-4.3-3.4-6.5c1.9-0.9,3.8-1.6,5.7-2.3
			c0.6-0.3,1.2-0.6,1.8-0.9c-0.6,0-1.7-0.1-2.3-0.1c-2,0.2-4,0.8-6,0.6c-1.1-2.5-1.3-5.4-1.4-8.1c2-0.2,4-0.5,6-0.7
			c2-0.2,3.9-0.3,5.8-0.9c-2.9-0.9-6-1.1-9-1.3c-1.1,0.2-1.7-0.9-2.2-1.6c-2.5-4-4.7-8.3-6.1-12.9c-0.4,4.8,0.6,9.7,2.6,14.1
			c-4.3-0.4-7.6-3.9-9.1-7.8c-1.5-3.5-1.7-7.4-1.4-11.2c0.2-2.8,2.8-5.4,5.7-5.1c2.6-0.3,5.1,0.3,7.7,0.6c6,0.8,11.9,1.5,17.9,2.2
			c8.3,1.4,16.8,1.2,25.1,1.6c0.3,0,0.8,0,1,0.1c2.1-0.3,4.3-0.3,6.5,0c0.1,0.3,0.2,0.7,0.3,1h5.8c-0.6-1.1-1-2.3-1.2-3.5
			c10.9,0.5,21.4-2.7,31.8-5.8c-5,4.6-11.2,7.7-17.4,10.3c-1.7,0.7-3.2,2-3.8,3.8c-0.5,2.1,1,3.9,2.5,5.2c3.4,2.8,7.7,4,11.9,4.7
			c3.9,0.4,7.9,0.4,11.8-0.2c1.9,7,2.7,14.3,2.8,21.5l1,0.7C484.8,519.3,473.9,521,463.2,523.4z M549.5,475.5
			c-0.5-0.4-1.6-1.1-2.1-1.5c-0.7-0.7-1.4-1.5-2-2.4c-0.8,1.1-1.5,2.1-2.3,3.2c0.8,1.6,1.9,3,2.7,4.6c-1.2,4.4-3.1,8.6-5.3,12.5
			c-0.5,0.9-1.1,1.9-0.6,3c1.4,5.4,3.1,10.8,4.2,16.3c0.5-1.3,0.9-2.6,1.3-3.9c2.2,0,4.7-0.8,6.6,0.6c2,2.4,2.3,5.9,1.7,8.9
			c-3.7,1.5-7.5,2.5-11.3,3.5c-3.9,1.1-9.2,2.5-12.3-0.9c-0.8-6.8-1.4-14.2-6.2-19.5c0,0.3-0.1,0.9-0.2,1.3
			c1.7,3.1,1.5,6.7,1.9,10.1c0.3,2.4,0.4,4.8,0.1,7.1c-2.7,0.7-5.5,1-8.3,0.6c-0.8-0.1-1.7-0.1-2.5-0.2c-0.4-6.9-1-14.1-4.9-20
			c0.2,1.3,0.5,2.7,0.5,4c1.3,3.9,0.5,8.1,0.8,12.2c-0.2,1.5,0.3,3.4-0.8,4.5c-3.6,0.3-7.6,0.4-10.5-2c-0.5-0.6-0.9-1.2-1.4-1.9
			c-0.7-8.4-1.1-17.1-4.5-25c-1-2.3-2.6-4.2-4.2-6.1c-0.3,0.2-0.8,0.5-1.1,0.6l0.2,0.3c1.2,2.3,1.9,4.8,2.3,7.4
			c-6.2,1.5-13.5,1.7-18.7-2.5c-1.5-0.8-2.1-3.3,0-3.7c9.1-2.6,17.2-8.7,21.8-17c1-2.3,2.1-4.5,3.2-6.7c0.7,0,1.5-0.1,2.2-0.1
			c0.5-1,1.1-2,1.6-3c-0.1-0.4-0.2-0.7-0.2-1.1c0-0.3,0-0.7,0.2-1.1c-1.1,0.2-2.2,0.3-3.3,0.5c0.5-1.4,1.1-2.7,2-3.9
			c5.6-10.5,14.2-19.1,23.3-26.8c11.5-9.7,24.2-17.9,37.3-25.3c4.9-2.6,9.6-6,15.3-6.4l35.2,12.5c-2,0.3-4.1,0.7-6.2,0.2
			c-0.7,0-2,0.1-2.7,0.2c1.4,1,2.9,1.7,4.5,2.3c0.7,1.9,1.5,3.6,2.5,5.3c-2,2.4-5.3,3-8.2,3.4l-0.5,0.8c0.5,0.1,1.4,0.2,1.9,0.3
			C591.1,444,572.3,463.4,549.5,475.5z"/>
	</g>
</g>
<path d="M278.1,281.3H111.9c-6.9,0-6.9,2.2,0,2.2h166.2C285,283.5,285,281.3,278.1,281.3z"/>
</svg>
