<?xml version="1.0" encoding="utf-8"?>
<!-- Generator: Adobe Illustrator 25.3.1, SVG Export Plug-In . SVG Version: 6.00 Build 0)  -->
<svg version="1.1" id="Capa_1" xmlns="http://www.w3.org/2000/svg" xmlns:xlink="http://www.w3.org/1999/xlink" x="0px" y="0px"
	 width="1205.4px" height="1260.3px" viewBox="0 0 1205.4 1260.3" style="enable-background:new 0 0 1205.4 1260.3;"
	 xml:space="preserve">
<style type="text/css">
	.st0{fill:#CDCCCC;}
	.st1{fill:#FFFFFF;}
</style>
<ellipse class="st0" cx="406.5" cy="1087.2" rx="144.4" ry="35.5"/>
<g>
	<path class="st1" d="M538.3,935.1c4.2-7.4,8.9-14.6,12.8-22.2c3.5-2.7,8.7-3.9,10.2-8.8c-1.7-2.4-3.1-4.9-4.3-7.5
		c3.6-0.8,7.1-2,10.3-3.9l-5.8-35.7c3.2,0.1,6.5,0,9.6-0.9c-6.2-8.3-12-17.5-13.1-28c-0.3-1.8,0.8-3.3,1.6-4.8
		c0.9-1.3,1.7-2.5,2.5-3.8c-0.4-3-0.8-6.1-1.4-9.1c-1,1.3-1.9,2.7-2.9,4l0.1,0.5c-0.3,0.3-0.8,1.1-1.1,1.4c0-0.8-0.1-2.3-0.1-3.1
		c-1.5-2.3-2-5.1-2.6-7.7c-2.5-11-6.4-21.7-11.1-31.9c0.6,0.2,1.3,0.4,1.9,0.6c-0.7-1.5-1.4-3-2.1-4.5c0,0-0.1-0.1-0.1-0.1
		c0,0,0.1,0,0.1,0c-1-2.3-2-4.6-2.8-7c-0.2-0.7-0.4-1.4-0.4-2c-2-1.3-4-2.6-6-4c-8.9-40.6-28.7-53.2-44.9-56.2
		c2.5-3.8-21.4-2.4-39.2-0.9l-1.6-4.2h0c24.4-11,43.1-30.5,49.5-56.6c1.3,0,2.6,1.2,3.9,1.2c3.5-13.2,4.9-27.3,6.9-41.1
		c-3.1-2-5.8-4.3-8.3-6.7c2.9-1.9,5-5.2,4.8-9.9c-1.2-33-1.5-66-0.9-99c0.1-3.7-1.2-6.5-3.2-8.4c1.2-2.2,2.4-4.3,3.7-6.4
		c-0.7-1.7-1.3-3.3-2.1-4.8c2.6-2.6,5.8-4.5,9-5.4c1.9-2.5,3.8-4.9,5.8-7.2c4.6-8.5,8-17.8,9.3-27c1.2-6.8,0.3-13.3-0.4-19.8
		c-1.3-0.2-2.3-0.4-3.5-0.6c0.5-2.8-0.5-5.6-2.7-7.4c-4.3-8.6-13.3-12.9-21-17c-4.1,0.9-8.2,1.9-12.3,3.1c-4,1.2-8,2.7-11.7,4.5
		c-2.5,6.2-8.4,7.6-12,6.2c-28.3-14.6-57.8-35.9-89.7-31.9c-16.5,2.7-31.9-1.3-48.9,2.5c-3.9,0.5-7.8,1.3-11.7,2.2
		c-23.3,5.8-45.4,19.7-64.5,36.5c-2.4,1.3-4.7,0-7.1-1.3c-3.2-1.3-6.8-3.7-9.1-7c-3.5-2.7-7.1-4-11.4-3c-4.1-0.9-8.3-1.5-12.4-2
		c-7.3,4.7-16,9.9-19.7,18.8c-2,2-2.8,4.8-2.1,7.6c-1.3,0.4-2.2,0.6-3.5,0.9c-0.2,6.6-0.6,13.1,1.1,19.8c0.8,3.7,2,7.3,3.4,10.9
		c6,7.6,11,16,15.2,24.8c0.6,0.7,1.1,1.4,1.7,2c-0.1,0.3-0.2,0.7-0.3,1c3.9,8.9,7,18.4,9.3,28.1c-5.6,1.9-10,7.2-8,14.5
		c7.4,27.6,6.6,58.2,7.8,86.9c-0.8,3.5-1.6,7.1-2.5,10.5c0.8,3.8,1.6,7.6,2.6,11.4c0.8,4.3,1.7,8.6,2.9,12.7
		c4.7,16.5,13.6,31.4,30.4,42.9c3.6,2.7,7.7,5.1,12.1,7.2l-45.2-4.1c-46.3-4.5-74,29.9-74,29.9l1.5,3.6c-7,6.5-9.8,11.9-9.8,11.9
		c0,0,0,0,0,0l-17.6,12.8c-4,1-8.3,1.1-12.3,0.2c-1.9,7.5,1.1,15,0.2,22.6c-0.5,5.1,3.4,9.3,3.8,14.1c-5,13.2-7.3,27.2-7.3,41.2
		l0,0.1l0,0c0,11.6,1.5,23.3,4.4,34.5c3,10.8,0.2,21.9-2.6,32.4c2.7-0.5,5.3-1.1,8-1.6c-0.6,2.7-1.3,5.4-2.1,8.1
		c3.6-0.2,7-1.5,10.3-2.7c9.8,20.8,23.2,40,39.1,56.6c-2.4,3.9-5.5,7.4-7.3,11.6c-5.8,13.1-5.1,28.8,1.8,41.5
		c7.7,14.1,20.2,25,33.5,33.7c4.2,3,9.1,5,13.1,8.3c-11.4,2.1-23.1,4.2-33.7,9c-2.8,1.6-6.7,3.3-6.8,7c0.8,3.6,4.4,5.2,7.4,6.7
		c12.7,5.6,26.6,7.4,40,10.1c10,7.7,19.9,16.6,32.4,20.1c4.5,0.4,8.9-0.6,13.4-0.9c32.3-3.2,64.6-6.5,96.9-9.7
		c19.2-0.7,38.5,0.2,57.7-1.1c24.9-0.5,49.8-2.3,74.6-4.4c20.5-2.2,41.1-4.5,61.1-9.7c6.4-1.9,13.4-3.5,18.5-8.1
		c1.9-1.5,2-4.5,0.3-6.1c-4.1-4.1-9.9-5.6-15.3-7.4c-8.3-2.7-16.9-3.9-25.4-5.8c17.8-10.4,35.8-22.3,46.8-40.3
		c9.3-14.4,9.7-34.3,0-48.7C557.5,945.5,548,939.5,538.3,935.1z M237,813.2c-2.5,5.3-6.5,9.8-10.1,14.5c2.5,4.5,2.2,10.7-1.1,14.7
		c1.2,5.5,1.9,11.3,3.1,16.3c0.6,2.2,0.6,4.3,0.1,6.1c3.3,7.3-0.3,17.9-10.8,17.9c-8.7,0-12.7-7.4-11.8-14.1c-0.6-1-1-2.1-1.4-3.3
		c-0.9-3.6-1.4-7.3-2.1-11c-0.4-2-1.1-4.1-1.3-6.1c-0.2-2.9-2.1-3.5,0.6-2c-4.6-2.6-7.3-8.8-5.7-13.9c3.9-12.2,13.6-20.2,18.9-31.5
		C222.4,786.3,243.7,798.9,237,813.2z"/>
	<g>
		<path d="M311.5,487.6l0.2,0.2c4.4,0.3,8.8,0.8,13.2,1c-10-2.5-20.3-4.9-29.1-8.8c11.4,2.1,22.9,4.7,34.9,5.1
			c-4.6-1.6-9.5-2.8-13.9-4.5l-0.5,0c-0.7-0.3-2-0.9-2.6-1.2c7.3,1.1,14.5,2.5,22,2.9c2.4-1.6,2.2-4.4,3.2-6.5
			c-1.5-0.2-2.9-0.5-4.3-0.7c-28.8-5.6-55.5-14.5-81.5-23.8c-1.7-0.7-3.5-1.6-5.7-1.6c-0.5,0.7-0.9,1.5-1.4,2.2
			c3.9,2.4,7.9,4.8,12.2,7c-4.8-1-9.1-2.6-13.4-4.2c-2.1,6.4-3.9,13.1-0.8,19.5C265.5,480.4,288.1,485.3,311.5,487.6z"/>
		<path d="M380.1,609.3c0.7,1.5,1,1.5-1.2,2c-2.1,0.4-4.1,1.1-6.2,1.5c-4.1,1-8.3,1.9-12.5,2.7c-8.6,1.6-17.3,2.8-26.1,3.6
			c-5.6,0.5-5.4,6.8,0.3,6.3c12-1.1,23.8-2.8,35.5-5.3c5-1.1,11.5-2,15.9-4.1c4.1-2,4.1-5.5,2.8-8.6
			C386.8,603.4,378.4,605.4,380.1,609.3z"/>
		<path d="M238.1,430.5c-2.2-0.7-4.1-1.6-6-2.7c1.5,1.5,3.1,2.9,4.7,3.9C237.2,431.3,237.6,430.9,238.1,430.5z"/>
		<path d="M351.6,603.5l0,0.5c1.4,0.3,2.9,0.5,4.5,0.4c0.3,0,0.6-0.1,0.9-0.1c0.3,0,0.6,0,0.9,0c1.6-0.1,3.1-0.4,4.5-0.8l0-0.5
			c9.3-3.5,17.7-13.3,23.1-23c0.1-0.6,0.1-1.3,0.1-1.9c0.2,0.3,0.5,0.5,0.7,0.8c-0.4-3.5-1.8-6.7-5.5-7.9c-1.3-0.4-2.3-1.1-3-2
			c-2.3-0.6-4.6-0.7-6.6,0c-6,0.2-10.7,1.5-15.4,2.1c-4.8-0.2-9.6-1.1-15.5-0.8c-0.8-0.2-1.6-0.3-2.4-0.3c0.2-0.6,0.5-1.1,0.7-1.7
			c0.1-0.4,0.3-0.8,0.4-1.3c-2.4,0.5-3.9,1.1-5.5,2.7c-1.8,1.8-3,3.9-4.3,6.4c-0.4,0.8-1,1.5-1.8,2c0.2,0.3,0.3,0.7,0.4,1
			c0.5,1.7,0.2,3.3-0.6,4.9c-0.1,0.2-0.1,0.5-0.2,0.7c0,0.4,0,0.9,0,1.3c0,0.5-0.1,1-0.2,1.4c0.7-0.7,1.3-1.4,2-2.1
			C334.8,593.6,343,601.1,351.6,603.5z"/>
		<path d="M338.5,719c0.2,0,0.5,0,0.7,0.1c0-1.6,0.1-3.3,0.1-5c-0.3,0.2-0.5,0.3-0.8,0.5C338.6,716.1,338.5,717.5,338.5,719z"/>
		<path d="M414.7,653.2c2.6-0.5,4.5-1.7,5.9-3.3C418.9,651.2,416.9,652.4,414.7,653.2z"/>
		<path d="M381.6,716.3c0.5-1.3,1-2.6,1.3-4c0.1-0.3,0.2-0.5,0.3-0.8c-0.8,0-1.6,0-2.4-0.1C381,713.1,381.3,714.7,381.6,716.3z"/>
		<path d="M349.1,631.8c6-1.9,12.5-2.5,19.1-1.9c2.8-0.8,5.6-2.2,8-3.7c-11.1-0.1-24-1.2-33.3,6.5
			C344.8,631.5,347,631.6,349.1,631.8z"/>
		<path d="M349.9,641.6c0.9,0.9,1.8,1.9,2.7,2.6c-2.3-1.8-4.9-0.7-8,0.8c0.2,0.2,0.3,0.5,0.4,0.7c0.4,0.9,0.7,1.7,1.1,2.6
			c0.1,0,0.2,0,0.3-0.1c-0.1,0-0.2,0.1-0.3,0.1c1.2,3.3,1.7,6.7,1.5,10.3c0.7,0.2,1.4,0.6,2,1c5.4,2.1,7.4,6.7,7.2,12.8
			c1.3,0.8,2,2.4,2.1,4.2c0.9,0,1.9,0,2.9,0c0.5-4.6,1.1-9.4,2.5-14.5c0.7,3.5,2.8,5.2,3.6,8.7c2-7.3,0.5-14.4,0.1-20.6
			c2.1,2.9,5.2,4.4,8.8,5C369.6,647.6,360.4,643.1,349.9,641.6z"/>
		<path d="M309.9,653c-2.4-1.9-4.6-4.7-6.8-7.4c-0.2-0.3-0.5-0.6-0.7-0.9C304.5,648.3,307.1,651.2,309.9,653z"/>
		<path d="M334.6,675c-1.8,2.7-2.4,5.8-2.5,9.2C333.2,681.6,334,678.5,334.6,675z"/>
		<path d="M538.3,935.1c4.2-7.4,8.9-14.6,12.8-22.2c3.5-2.7,8.7-3.9,10.2-8.8c-1.7-2.4-3.1-4.9-4.3-7.5c3.6-0.8,7.1-2,10.3-3.9
			l-5.8-35.7c3.2,0.1,6.5,0,9.6-0.9c-6.2-8.3-12-17.5-13.1-28c-0.3-1.8,0.8-3.3,1.6-4.8c0.9-1.3,1.7-2.5,2.5-3.8
			c-0.4-3-0.8-6.1-1.4-9.1c-1,1.3-1.9,2.7-2.9,4l0.1,0.5c-0.3,0.3-0.8,1.1-1.1,1.4c0-0.8-0.1-2.3-0.1-3.1c-1.5-2.3-2-5.1-2.6-7.7
			c-2.5-11-6.4-21.7-11.1-31.9c0.6,0.2,1.3,0.4,1.9,0.6c-0.7-1.5-1.4-3-2.1-4.5c0,0-0.1-0.1-0.1-0.1c0,0,0.1,0,0.1,0
			c-1-2.3-2-4.6-2.8-7c-0.2-0.7-0.4-1.4-0.4-2c-2-1.3-4-2.6-6-4c-8.9-40.6-28.7-53.2-44.9-56.2c2.5-3.8-21.4-2.4-39.2-0.9l-1.6-4.2
			l0,0c24.4-11,43.1-30.5,49.5-56.6c1.3,0,2.6,1.2,3.9,1.2c3.9-14.7,5.2-30.7,7.7-45.9c0.2-2.5,0.4-5.1,0.6-7.7
			c6.2-4.3,11-9.9,13.9-17.2c4.7-11.6,8.8-23.4,13.5-35.1c1-2.4,2.8-5,5.1-6.3c3.8-2.1,4.9-4.9,4.9-8.5c0-2.2-0.3-4.4-0.1-6.6
			c0.3-2.4-0.3-4.1-1.6-5.3c1.9-2.4,2.2-6.4-1-8.7c-12.9-9.4-22.9-21.8-29.9-36c-3.1-6.4-12.8-0.8-9.6,5.6
			c6.9,14.1,16.8,26.2,28.8,36.1c-8.1-1.4-16.2-2.9-24.3-4.3c0.9-14.9-2.5-27.1-6.9-36.4c3.1-3.1,7-5.2,10.9-5.9
			c6.7-10.2,11.7-22,13.3-33.7c1.2-6.8,0.3-13.3-0.4-19.8c-1.3-0.2-2.3-0.4-3.5-0.6c0.5-2.8-0.5-5.6-2.7-7.4
			c-4.3-8.6-13.3-12.9-21-17c-4.1,0.9-8.2,1.9-12.3,3.1c-4,1.2-8,2.7-11.7,4.5c-2.5,6.2-8.4,7.6-12,6.2
			c-28.3-14.6-57.8-35.9-89.7-31.9c-16.5,2.7-31.9-1.3-48.9,2.5c-3.9,0.5-7.8,1.3-11.7,2.2c-23.3,5.8-45.4,19.7-64.5,36.5
			c-2.4,1.3-4.7,0-7.1-1.3c-3.2-1.3-6.8-3.7-9.1-7c-3.5-2.7-7.1-4-11.4-3c-4.1-0.9-8.3-1.5-12.4-2c-7.3,4.7-16,9.9-19.7,18.8
			c-2,2-2.8,4.8-2.1,7.6c-1.3,0.4-2.2,0.6-3.5,0.9c-0.2,6.6-0.6,13.1,1.1,19.8c3,13.7,10.7,27.2,20.3,37.8
			c-2.6,7.2-4.5,15.8-4.4,25.7c-6.7,1.1-13.4,2.4-20.1,3.7c7.5-7.6,14.6-15.5,21.4-23.8c4.5-5.5-3.4-13.4-7.9-7.9
			c-8.9,10.9-18.5,21.3-28.7,31c-2.2,2.1-2,4.8-0.7,6.7c-1.4,2.4-1.1,6.1,0.1,12.4c0.3,1.7,1.6,3.7,3.2,4.5c3.8,2.2,5.9,5.1,7.3,8.9
			c3.5,9.9,7.1,19.7,10.7,29.5c4.1,11.3,11.4,19.4,21.3,24.6c1.5,12.3,3.5,24.6,6.6,36.8c0.8,4.3,1.7,8.6,2.9,12.7
			c4.7,16.5,13.6,31.4,30.4,42.9c3.6,2.7,7.7,5.1,12.1,7.2l-45.2-4.1c-46.3-4.5-74,29.9-74,29.9l1.5,3.6c-7,6.5-9.8,11.9-9.8,11.9
			c0,0,0,0,0,0l-17.6,12.8c-4,1-8.3,1.1-12.3,0.2c-1.9,7.5,1.1,15,0.2,22.6c-0.5,5.1,3.4,9.3,3.8,14.1c-5,13.2-7.3,27.2-7.3,41.2
			l0,0.1l0,0c0,11.6,1.5,23.3,4.4,34.5c3,10.8,0.2,21.9-2.6,32.4c2.7-0.5,5.3-1.1,8-1.6c-0.6,2.7-1.3,5.4-2.1,8.1
			c3.6-0.2,7-1.5,10.3-2.7c9.8,20.8,23.2,40,39.1,56.6c-2.4,3.9-5.5,7.4-7.3,11.6c-5.8,13.1-5.1,28.8,1.8,41.5
			c7.7,14.1,20.2,25,33.5,33.7c4.2,3,9.1,5,13.1,8.3c-11.4,2.1-23.1,4.2-33.7,9c-2.8,1.6-6.7,3.3-6.8,7c0.8,3.6,4.4,5.2,7.4,6.7
			c12.7,5.6,26.6,7.4,40,10.1c10,7.7,19.9,16.6,32.4,20.1c4.5,0.4,8.9-0.6,13.4-0.9c32.3-3.2,64.6-6.5,96.9-9.7
			c19.2-0.7,38.5,0.2,57.7-1.1c24.9-0.5,49.8-2.3,74.6-4.4c20.5-2.2,41.1-4.5,61.1-9.7c6.4-1.9,13.4-3.5,18.5-8.1
			c1.9-1.5,2-4.5,0.3-6.1c-4.1-4.1-9.9-5.6-15.3-7.4c-8.3-2.7-16.9-3.9-25.4-5.8c17.8-10.4,35.8-22.3,46.8-40.3
			c9.3-14.4,9.7-34.3,0-48.7C557.5,945.5,548,939.5,538.3,935.1z M510.8,570.5c0.3-3.7,0.5-7.4,0.7-11.1c0.1-3.7,0.2-7.5,0.2-11.3
			c0.5-3.3,0.9-6.7,1.3-10.2c1.2-10.2,1.7-20.6-0.6-30.2c11.1,3.6,15,8.8,14.9,20.2c-0.1,15.4-2.8,30.4-10.5,44.3
			c-1.8,3.2-4,5.9-6.7,8.1C510.4,577.1,510.6,573.9,510.8,570.5z M547,810.8c-1.2-4.2-2.4-8.7-3.6-13.6
			C544.7,801.7,546,806.3,547,810.8z M404.3,714.2c2.1-1,3.1,3.1,1,3.5C403.6,717.5,403.3,715.2,404.3,714.2z M504.8,540.6
			c-0.4,9.6-1.7,19.6-4.8,28.9c0.1,0.8,0.2,1.6,0.2,2.3c-0.1,1.6-0.2,3.3-0.3,5c0,0.3,0.1,0.6,0.1,0.9c0.1,1-0.1,1.9-0.4,2.7
			c-0.1,1.4-0.2,2.8-0.4,4.2c0,0.7-0.1,1.4-0.1,2.1c-0.1,0-0.1,0.1-0.2,0.1c-11.9,4.3-24.5,5.7-37.8,5.9
			c-15.3-0.3-30.7-2.6-45.5-8.2c-7.9-3-14.5-7.5-19.1-14.2c-1.6-2.3-3.1-4.7-4.5-7c1.8,1,3.6,1.9,5.5,2.8c-2.8-3.6-6.8-5.7-9.3-9.9
			c0-0.1-0.1-0.1-0.1-0.2c14.4,3.4,21.4,10.2,35.9,0.7c-1.7,4.2-4.5,7.8-6.7,11.8c5.2-3.4,8.9-9.3,13.4-13.7
			c-2.1,7.1-7.2,11.5-11.4,17.1c5.7-1.8,9.4-7.5,13.9-11.3c-1.4,4.9-5.5,8.3-8.4,12.2c12.4-4.7,17.9-16.7,23.2-28.2
			c3.9-8.3,13.2-3.8,18.9,0.3c-10-34.8-49.6-19.1-73.8-13.4c-3.7,1-7.6,1.7-11.5,2c-0.2-1.5-0.3-2.9-0.4-4.4
			c-0.4-9.1,4-15.7,12.9-19.8c9.4-4.3,19.4-6.6,29.6-7.9c5.9-0.4,11.8-0.9,17.7-1.6c20.1-1.1,40,0.4,59.5,4.9
			c0.3,0.8,0.5,1.7,0.3,2.7c0,0.3-0.1,0.6-0.1,1C504.7,518.5,505.3,530.1,504.8,540.6z M390.9,545.5c1.6-2.6,4.9-3.2,7.4-3.9
			c9-2.3,18.5-4.9,27.5-7.1c2.8-0.3,5.1-0.8,7.6-0.3c2.2,1,1.6,4.1,0.2,5.5c-4.1,5.3-10.6,8.8-16.9,10.6c-7.1,1.6-15.1,2.1-22.3-0.6
			v0C393,548.9,390.3,548,390.9,545.5z M515,446c0-0.5,0.3-1.5,0.3-2c0-2.1,0.7-4,2.2-5.1C516.8,441.4,516,443.5,515,446z
			 M194.3,450.3c1.6,1,2.4,2.8,2.5,4.9c0,0.5,0.4,1.5,0.4,2C196.1,454.7,195.1,452.7,194.3,450.3z M190.9,566.5
			c-5.1-12.8-7.9-26-7.5-39.7c0.3-10.6,4.3-15.7,15.3-19.2c0.5-0.2,1-0.3,1.5-0.5c0.1,1.2,0.3,2.4,0.5,3.7c-0.3,0-0.6-0.1-0.9-0.1
			c2.7,24.3,3.4,48.9,6,73.3C199,580,194,574.3,190.9,566.5z M195.8,424.3c-0.4-0.7-0.8-1.7-1.3-2.2c-0.7,1.8-1.2,3.4-1.3,5.3
			c-0.6-2.6-0.7-5.3-0.3-8c0,0-0.2-0.1-0.3-0.4c0.6-3.3,1.2-7.6,2.3-11.1c-0.7,0.3-1.5,0.6-1.9,0.6c-0.2-0.1-0.2-0.3-0.6-0.3
			c3-4.4,6.6-8,11.9-9.8c2.9-1.5,5.8-2.1,8.8-2c3,0.1,6,0.8,8.9,1.9c7.7,3.6,17.2,6.3,20.7,15.6c1.2-1.3,3.5-2.7,4.7-2.7
			c2.1,1.6,3.3,5.6,3.3,8.3c15.9-21.9,38.1-35.2,62.2-41.5c4-1.1,8.1-1.9,12.2-2.6c42.5-7.7,99.2-5,129.8,33.5c1.2,1.3,5.9-4,11.8-4
			c1.2,0,2.4-2.7,2.9-5.4c2.6-1.5,5.3-3.3,8-5c8.2-5.2,17.2-10.1,26.1-6.3c5.5,1.2,9.3,4.6,12.6,8.6c-0.3,0.1-0.4,0.2-0.5,0.4
			c-0.5,0-1.3-0.2-2-0.5c1.3,3.4,2.2,7.6,3.1,10.8c-0.1,0.3-0.3,0.4-0.3,0.4c0.6,2.7,0.7,5.3,0.3,8c-0.2-1.8-0.8-3.4-1.7-5.1
			c-0.5,0.6-0.7,1.5-1.1,2.3c-1,9.5-3.5,18.9-8.9,26.5c1.8-5.2,4.4-10.9,4.8-16.6c-3.8,9.6-8.9,19.8-16.5,26c-0.6-0.7-1.2-1.4-1.7-2
			c1.5-2.1,2.8-4.3,3.7-6.7c-1.9,1.5-3.3,3.3-5.1,5.1c-1.4-1.5-2.3-2.3-2.3-2.3l0.9,3.7c-2.7,2.4-5.5,4-8.7,5
			c-0.6-0.5-1.5-0.6-2.3-0.9c1.9-1.3,3.6-3.2,5.2-5.2c-2.3,1.7-4.6,3.1-7.4,4.1l-1.2-0.4c0.1-0.1,0.1-0.1,0.2-0.2
			c-1.4,0.5-3.1,1.5-3.9,2.3l0,1.1c2-1.3,4.7-1.5,6.9,0.7c7.4,7.4,12.2,18.3,16,28.1c0.1,0.2,0.2,0.5,0.3,0.7c0.5-0.3,1-0.5,1.5-0.8
			c-0.1-1.9,0.1-3.8,0.5-5.6l5.4,22.6c-5.3-0.8-10.6-1.6-15.9-2.1c-6.2-0.6-12.3-1.1-18.5-1.4c0.3-0.5,0.6-0.9,0.9-1.3
			c-0.6,0.1-1.9,0.3-2.5,0.4c-7.4-0.3-14.8,0.2-22.2-0.6c8.4-0.2,16.3-1.9,24.4-2.9c2.9-1.1,2.2-3.4,2.9-5.1
			c-4.2,1.1-8.6,1.9-13.1,2.5c-2.4-0.2-4.7,0.2-7.1,0.4c5.8-1.8,12-3.1,17.8-5c1.1-0.5,2.9-0.9,2.6-1.9c0-3.4-0.1-6.8-1.5-10
			c-2.4,0.5-4.7,1.1-7,1.7c-28.7,6.4-58,12.5-88.6,14.6c-0.5,0-1.5,0-1.9,0c0.9,2.7,0.1,5.8,1.8,8.3c4.7-0.1,9.5,0.1,14.2,0.3
			c-4,0.9-8.2,1.3-12.3,1.7c-3.3-0.3-2,1.9-1.2,3c6.5,1.1,13.4,1,20.1,1.2c0,0,0,0,0,0c-6.1,1.7-12.2,3.7-18.2,6.1
			c-13.7,5.4-28.5,5.2-42.3-0.1c-24.9-9.5-50.6-13.9-76.9-13.2c-16.3-0.3-32.2,1.1-47.9,3.3l2.6-10.9c0.8,0.6,1.5,1.3,2.2,2.1
			c0.2,0.3,0.4,0.5,0.6,0.8c0.4-0.6,0.9-1.1,1.6-1.4c3.5-10.6,8.7-21,16.1-29.1c0,0,0,0,0,0c-3.8-0.7-7.2-2.5-10.5-5.3
			c-0.6-0.5-1.2-1-1.7-1.6l1.3-5.5c0,0-1.4,1.2-3.5,3.5c-0.5-0.4-1.1-0.8-1.6-1.2c0.3,0.7,0.7,1.3,1,1.9c-0.8,0.9-1.7,2-2.6,3.2
			c-5.9-5.6-10.5-13.5-14.2-21c0.8,5.6,3.9,11,6,16.1C200.6,442.9,197.5,433.7,195.8,424.3z M490,451.6c-0.8,0.5-1.5,0.9-2.4,1.3
			c0.7-0.9,1.3-1.8,2-2.7L490,451.6z M218.9,458.2l0.8-3.2c1.7,2.2,3.6,4.3,5.4,6.4C222.8,460.7,220.8,459.6,218.9,458.2z
			 M212.1,577.2c0.4,0.6,0.7,1.2,1.1,1.7c0-0.3,0.1-0.6,0.1-0.9c2.5-11.3-2.1-23.3-4.3-34.3c-1.8-9-2.8-18-0.4-26.7
			c-0.1,0.1-0.3,0.1-0.5,0.1c0-3.2,0-5.5,0.7-8.2c-0.7-0.1-1.4-0.2-2.1-0.3l0.8-3.5c16.7-4.2,34-5.4,51.5-5.9
			c17.2,0.5,34.6,1.6,51.1,7.3c2.4,0.8,4.6,1.8,6.9,2.8c9,4.1,13.3,10.9,12.6,19.9c-0.1,1.4-0.2,2.7-0.4,4.1c-3.8-0.3-7.7-1-11.3-2
			c-24.2-5.7-63.8-21.3-73.8,13.4c5.6-4.1,15-8.6,18.9-0.3c5.2,11.5,10.8,23.5,23.2,28.2c-2.8-3.9-7-7.3-8.4-12.2
			c4.5,3.8,8.1,9.5,13.9,11.3c-4.2-5.6-9.3-10-11.4-17.1c4.5,4.4,8.2,10.4,13.4,13.7c-2.2-3.9-5.1-7.5-6.7-11.8
			c14.5,9.5,21.5,2.7,36-0.7c-2.5,4.3-6.6,6.4-9.4,10.1c1.9-0.9,3.8-1.9,5.6-2.9c-2.8,4.6-6.1,8.9-10.1,13
			c-6.4,6.7-15.6,9.4-24.6,11.8c-22.4,5.9-44.8,6.6-67.3,0.7c-1.3-0.3-2.6-0.7-3.8-1.2C212.8,584,212.3,580.7,212.1,577.2z
			 M316.4,549.8L316.4,549.8c-7.2,2.7-15.2,2.3-22.3,0.6c-6.3-1.8-12.9-5.3-16.9-10.6c-1.4-1.4-2-4.5,0.2-5.5c2.5-0.5,4.8,0,7.6,0.3
			c9,2.2,18.5,4.7,27.5,7.1c2.6,0.6,5.9,1.2,7.4,3.9C320.5,548,317.9,548.9,316.4,549.8z M228.6,643.3c-1.6-3.9-3-8-4.2-12.1
			c-3.2-13.1-7.4-25.6-10-38.3c2.7,0.9,5.5,1.7,8.5,2.3c22.6,4.5,45,2,67.2-2.5c17-3.4,30.2-14.4,36.2-29.9c0.5-1.3,1-2.7,1.5-3.9
			c1-0.4,2.1-0.8,3.2-1.2c0.3-0.2,0.5-0.3,0.8-0.4c3.3-7.3,4.8-15.1,5-22.8c0.3-0.8,0.5-1.5,0.8-2.3c2.2-6.5,5.3-9.1,12.6-9.7
			c2.2-0.2,4.5-0.2,6.7-0.1c10.7,0.1,13.9,2.8,16.9,12.3c0.1,0.2,0.1,0.4,0.2,0.7c0.3,7.5,1.8,15,5,22.1c0.3,0.1,0.6,0.3,0.8,0.4
			c0.5,0.2,1,0.3,1.5,0.5c0.9,2.4,2,4.7,3.1,7c7.7,15,17.9,21.8,35.8,27.3c13.6,4.2,26.5,5.7,40.9,5.7c11,0,23.4-1.5,33.6-4.8
			c1.3-0.4,2.6-0.9,3.9-1.4c-0.1,1.3-0.2,2.6-0.4,3.9c-0.8,42.7-25.7,84.4-71.8,97.1c-2.1,1.1-4.7,2.6-7.4,4.1
			c-8.2,4.5-17.5,9.6-17.5,9.6c-1.5-3.3-3.1-6.5-4.8-9.6c0.1,0.1,0.2,0.2,0.3,0.3c7.5-7.7,16.4-14.5,21.2-23.2
			c2.8-3.7,5.4-7.4,7.6-11.4c6.5-11.7,9.2-25.3,3.5-42.7c-2-4.7-4.1-8.8-6.2-12.9c-1.7-3.1-3.3-6.9-5.2-10.2s-4.3-6-7.7-7
			c1.8,2.4,3.7,5.6,5.6,9.2c3.7,7.2,7.1,16.1,8.7,24.7c0.8,4.3,1.1,8.5,0.8,12.4c-0.7,4.4-1.5,10.1-5,13.7c2.4-1.6,4.5-3.6,6.7-5.5
			c-8.1,17.6-16,45.4-31.9,49.4c-0.9-1.6-1.7-3.3-2.5-4.9c1.1,8,2.8,16,3.8,24c1.1,2.9,1.2,6,0.6,9.1c-3.1,1.9-6.1,3.9-9.1,5.9
			c0,0.4,0,0.9,0,1.3c-0.1,5.1-5.7,6.6-8.9,4.4c-0.8,0.5-1.7,1-2.5,1.6l-7.9-24.1l2.8,27.2c-4.1,2.5-8.3,5-12.4,7.4
			c-1.5,1-3.3,1.4-4.9,2.1l0,0.3c-0.7,0.2-2.2,0.7-3,0.9c-3.9-2.3-7.6-4.9-11.5-7.2c0-0.6-0.1-1.2-0.1-1.7c-1.6,0.6-3.5,0.6-5-0.2
			l3.5-33.9l-6.5,30.5c-5.1-3.6-10.5-7-15.4-10.9c-1.5-4.4-0.5-9.3-1.2-13.8c-1.2,3.5-2.3,7.2-3.2,10.8c-1.3-1.1-3.8-1.8-3.4-3.9
			c0-9.7,1.5-19.2,3.2-28.7c0-0.1,0.1-0.1,0.1-0.2c0,0,0,0,0,0c0.8-4.4,1.6-8.8,2.4-13.1c-0.4-0.1-1.1-0.2-1.5-0.3
			c-1.5,3.7-2.7,7.5-3.8,11.3c-0.1-0.1-0.2-0.1-0.2-0.2c-8.1-7.4-13.5-16.5-16.5-27c-1.4-3.6-2.6-7.3-3.7-11
			c-1.1-3.7-2.1-7.4-3.1-11.1c2.4,1.6,4.5,4,6.6,6.4c-0.2-0.3-0.4-0.6-0.6-0.9c-2.4-4.1-4.1-9.1-4.9-14.5c-1.5-12.7,2.3-27,8.8-35.9
			c-5.3-1.9-10.6,3.4-11.8,10.6c1.3-1.8,2.6-3.6,3.9-5.3c-2.4,14.4-14.2,25-10,41.3l1.3-1.8c4,7.1,8,14.2,7,22.9
			c0.3-1.2,1.2-1.4,1.2-2.9c1.2,3.9,2.8,7.5,4.7,10.9c4.7,7.4,10.8,14.8,15.9,22.8c-1,3.6-2.1,7.2-3.2,10.7l-0.1,1.4
			c-3.6-2-7.2-4-10.6-6.3c0.2-0.8,0.3-1.7,0.5-2.5c-2.4,0.7-5.3-0.1-7.2-1.9c0,0.1-0.1,0.1-0.1,0.2c-3.3-1.8-6.5-3.6-9.7-5.4
			c-5.3-1.4-10-3.2-14.1-5.3c-4.2-2.1-7.9-4.7-11.1-7.5C240.6,666,233.5,655.1,228.6,643.3z M338.6,748.1l-4.7-3.1l0.2-2
			c0.9,0.4,1.7,1.1,2.3,2.1C337.1,746,337.8,747.1,338.6,748.1z M242.3,915.4c6,7.9,3.9,31.2,3.9,31.2c-0.9,4.7-3.3,10.6-8.9,10.7
			c-4.7,0.3-7.5-4.3-8.6-8.3c-2.5-9.1-3-18.8-1.5-28.2c0.6-2,1.7-4.3,3.4-5.7c0.9-0.3,1.8-0.7,2.9-1.2
			C236.5,913.8,239.8,913.7,242.3,915.4z M204.6,822.2l27-23.3c-0.2,1.4-0.4,2.9-0.6,4.3c-0.9,7.7-6.1,13.6-10.8,19.4
			c2.5,0.6,5.1,1.1,7.7,1.5c-0.7,4.7-4.2,8.2-6.9,11.8c1.8,0.5,3.6,0.9,5.4,1.4c-2.2,14.5-5.1,28.8-8.7,43c-1.7-2.4-3.2-4.9-4.4-7.6
			c-5.8-12.1-11.2-24.6-15.3-37.5L204.6,822.2z M110.7,753.1l10.2,12.7c-4.9-3.3-10.2-6.9-12.3-12.7
			C109.3,753,110,753.1,110.7,753.1z M120.6,880.4c-8-18.1-13.3-37.9-13.6-57.7l80.5,11.2c3.7,11.6,8.2,22.9,13.1,34
			c6.7,14.8,14.2,29.3,23.1,42.9c0,0.3,0.1,0.6,0.2,0.9c-0.4,0.9-0.9,2.2-1.2,2.9c-0.1,0.7-0.3,2-0.4,2.7c-2-2.9-3.9-6.1-7.2-7.6
			c-2.9-1.6-6.2-1.7-9.4-1.9c-8.8,0.3-16.9,6-19.9,14.3c-3-3.5-7-6.6-11.8-6.8c-5-0.4-9.5,2.1-13.2,5.1c-4.2,4.2-5.2,10.1-5.1,15.7
			C141.8,918.9,129.4,900.6,120.6,880.4z M218.9,939.9c-0.1,6.2,0.3,12.8-2.8,18.5c-2,4.2-6.4,7.5-11.2,7.2c-5.8-1-8.9-7-9.5-12.3
			c-1.3-8.7-4.4-17.2-4.5-26.1c1.3-5.1,4.3-10.2,9.6-11.8c6.2-3,14.4,0.3,16.7,6.8C219.2,927.9,218.9,934,218.9,939.9z M188.7,959.1
			c-0.2,7.6-9.5,11.9-15.7,7.9c-8.7-5.7-10.4-17-11.8-26.5c0-6.7,2.9-14.1,9.5-16.7c4.8-1,9.4,2,12.1,5.8
			C186,939.1,187.9,949.1,188.7,959.1z M151.5,980c-0.1-5.8,1.1-11.6,3.4-16.9l0.1,0.5C152.8,968.7,151.6,974.3,151.5,980z
			 M179.8,977c-10.1,1.5-16-8.7-20.7-16.4c-0.1-0.6-0.3-1.8-0.4-2.4c-1.3,1.5-2.6,3.1-3.8,4.7l-0.1-0.5c1.2-1.6,2.6-3.1,3.9-4.6
			c0.1,0.6,0.3,1.7,0.4,2.3c4.7,7.2,10.6,17,20.7,15.6c7.2,0.1,11.4-6.6,13.5-12.7c4.6,10.2,20.6,10.6,26.8,1.7
			c2-3.2,3-6.8,4.4-10.3c3.3,6.3,10.7,10.8,17.8,8.5c4-1,6.5-4.5,8.4-7.9c1.3,0.4,2.7,0.9,4,1.4c2.8,0.9,5.6,1.9,8.3,2.8
			c0.2,0.3,0.5,0.5,0.8,0.7c-3.1-1.1-6.1-2.1-9.1-3.2c-1.3-0.5-2.7-1-4-1.4c-1.8,3.6-4.4,7.3-8.4,8.4c-7.1,2.4-14.5-2.4-17.8-9
			c-1.4,3.6-2.4,7.5-4.4,10.8c-6.1,9.4-22.1,8.9-26.8-1.8C191.2,970,187,977.1,179.8,977z M187.3,1029c-0.7-3-1.1-6-1.1-9l-0.6-0.5
			c0.1-1,0.2-2.1,0.3-3.2l0.3,0.2c0.1,4.6,1,9.1,2.6,13.4C188.3,1029.6,187.8,1029.3,187.3,1029z M316.4,1076.4
			c0.2-1.4,0.5-2.8,0.8-4.1c-2.5,1-5,1.3-7.5,0.9c0,0.5-0.1,1-0.1,1.5c-17.5,4.3-35.3,7-53,9.6c-6.3,0.7-12.7,2.4-19,1.7
			c-4.7-2.1-8.8-5.4-12.1-9.3c2.9-1.2,5.8-2.4,8.8-3.5c1.8-1,3.7-1.9,5.5-2.9c-2.3,0.4-4.5,0.8-6.8,1.2c-3.5,0.4-6.9,1.6-10.4,1.2
			c-2.5-3.2-3.9-7-5.5-10.6c3-1.4,6.1-2.7,9.3-3.8c1-0.5,1.9-1,2.9-1.5c-0.9,0-2.8-0.1-3.7-0.1c-3.2,0.3-6.5,1.4-9.7,0.9
			c-1.8-4.1-2.1-8.7-2.3-13.2c3.3-0.4,6.5-0.8,9.8-1.1c3.2-0.3,6.4-0.5,9.5-1.5c-4.8-1.5-9.8-1.8-14.7-2.1c-1.8,0.3-2.7-1.4-3.6-2.6
			c-4.1-6.6-7.6-13.6-9.9-21c-0.6,7.9,1.1,15.8,4.3,23c-7-0.7-12.4-6.4-14.9-12.6c-2.5-5.7-2.8-12.1-2.2-18.2
			c0.3-4.6,4.6-8.7,9.2-8.3c4.2-0.5,8.3,0.5,12.5,1c9.7,1.2,19.4,2.4,29.1,3.6c13.5,2.2,27.3,1.9,40.9,2.7c0.4,0,1.3,0.1,1.7,0.1
			c3.5-0.5,7-0.4,10.5,0c0.2,0.6,0.3,1.1,0.5,1.7h9.4c-0.9-1.8-1.6-3.7-2-5.8c17.8,0.8,34.9-4.4,51.7-9.4
			c-8.1,7.5-18.2,12.5-28.3,16.7c-2.7,1.2-5.2,3.3-6.2,6.1c-0.8,3.4,1.7,6.4,4.1,8.4c5.5,4.5,12.5,6.5,19.4,7.6
			c6.4,0.6,12.8,0.6,19.1-0.4c3.1,11.4,4.4,23.2,4.5,35l1.5,1.1C351.6,1069.6,333.9,1072.5,316.4,1076.4z M456.8,998.4
			c-0.9-0.6-2.6-1.8-3.4-2.4c-1.2-1.2-2.3-2.5-3.2-3.9c-1.2,1.7-2.5,3.5-3.8,5.2c1.4,2.5,3,4.9,4.4,7.4c-1.9,7.1-5.1,13.9-8.6,20.4
			c-0.8,1.5-1.8,3.1-1,4.8c2.3,8.8,5,17.6,6.9,26.5c0.8-2.1,1.4-4.2,2.1-6.3c3.5,0.1,7.7-1.3,10.7,1c3.3,3.9,3.8,9.6,2.8,14.4
			c-5.9,2.4-12.2,4-18.4,5.7c-6.3,1.8-15,4.1-19.9-1.5c-1.3-11-2.3-23-10.1-31.7c-0.1,0.5-0.2,1.5-0.3,2c2.8,5,2.4,10.8,3.1,16.4
			c0.5,3.9,0.6,7.7,0.1,11.6c-4.4,1.2-9,1.7-13.5,1.1c-1.4-0.1-2.7-0.2-4-0.4c-0.6-11.2-1.6-23-8-32.5c0.3,2.2,0.8,4.3,0.8,6.6
			c2.2,6.4,0.9,13.2,1.2,19.8c-0.3,2.4,0.4,5.5-1.3,7.4c-5.8,0.6-12.3,0.7-17-3.3c-0.8-1-1.5-2-2.3-3c-1.2-13.7-1.7-27.9-7.3-40.6
			c-1.6-3.8-4.3-6.8-6.8-9.9c-0.4,0.3-1.3,0.8-1.8,1l0.4,0.5c2,3.8,3.1,7.9,3.7,12.1c-10,2.4-22,2.7-30.4-4.1c-2.4-1.3-3.5-5.4,0-6
			c14.9-4.2,28-14.2,35.5-27.7c1.6-3.7,3.4-7.3,5.3-10.9c1.2,0,2.4-0.1,3.6-0.2c0.8-1.7,1.7-3.3,2.7-4.9c-0.2-0.6-0.3-1.2-0.4-1.8
			c0-0.6,0.1-1.2,0.3-1.7c-1.8,0.3-3.6,0.5-5.4,0.8c0.8-2.2,1.8-4.4,3.3-6.3c9.1-17.1,23.2-31.1,37.8-43.5
			c18.7-15.8,39.4-29.1,60.7-41.1c8-4.2,15.7-9.8,24.9-10.4l57.2,20.4c-3.3,0.6-6.7,1.2-10,0.3c-1.1,0.1-3.3,0.2-4.4,0.3
			c2.3,1.6,4.8,2.8,7.4,3.8c1.1,3,2.4,5.9,4.1,8.7c-3.3,3.9-8.6,4.9-13.3,5.6L540,909c0.8,0.1,2.3,0.4,3,0.5
			C524.5,947.2,493.9,978.7,456.8,998.4z"/>
	</g>
</g>
<g>
	<path d="M622.7,581.4v-35h-13.4v-9.3h37.7v9.3h-13.4v35H622.7z"/>
	<path d="M648.9,559c0-6.4,2.2-11.8,6.5-16.1c4.3-4.3,9.9-6.5,16.6-6.5c6.8,0,12.3,2.2,16.6,6.5c4.3,4.3,6.5,9.7,6.5,16.1
		c0,6.6-2.2,12.1-6.5,16.5c-4.3,4.4-9.9,6.6-16.6,6.6c-6.8,0-12.3-2.2-16.6-6.6C651.1,571.1,648.9,565.6,648.9,559z M660.1,559
		c0,3.8,1.1,7,3.4,9.5c2.2,2.5,5.1,3.8,8.6,3.8c3.5,0,6.3-1.3,8.6-3.8c2.2-2.5,3.4-5.7,3.4-9.5c0-3.6-1.1-6.7-3.4-9.1
		c-2.2-2.4-5.1-3.6-8.6-3.6c-3.5,0-6.3,1.2-8.6,3.6S660.1,555.3,660.1,559z"/>
	<path d="M702.1,581.4v-44.2h15.7c7,0,12.6,1.9,16.7,5.8c4.1,3.9,6.2,9.3,6.2,16.2c0,6.9-2.1,12.4-6.2,16.3
		c-4.1,3.9-9.7,5.9-16.7,5.9H702.1z M712.9,572.1h4.5c3.8,0,6.8-1.1,8.9-3.3c2.1-2.2,3.2-5.4,3.2-9.6c0-4.1-1.1-7.3-3.2-9.5
		c-2.1-2.2-5.1-3.3-8.8-3.3h-4.5V572.1z"/>
	<path d="M745.3,559c0-6.4,2.2-11.8,6.5-16.1c4.3-4.3,9.9-6.5,16.6-6.5c6.8,0,12.3,2.2,16.6,6.5c4.3,4.3,6.5,9.7,6.5,16.1
		c0,6.6-2.2,12.1-6.5,16.5c-4.3,4.4-9.9,6.6-16.6,6.6c-6.8,0-12.3-2.2-16.6-6.6C747.4,571.1,745.3,565.6,745.3,559z M756.5,559
		c0,3.8,1.1,7,3.4,9.5c2.2,2.5,5.1,3.8,8.6,3.8c3.5,0,6.3-1.3,8.6-3.8c2.2-2.5,3.4-5.7,3.4-9.5c0-3.6-1.1-6.7-3.4-9.1
		c-2.2-2.4-5.1-3.6-8.6-3.6c-3.5,0-6.3,1.2-8.6,3.6S756.5,555.3,756.5,559z"/>
	<path d="M813.9,581.4v-44.2h10.8v35h18.1v9.3H813.9z"/>
	<path d="M844.4,559c0-6.4,2.2-11.8,6.5-16.1c4.3-4.3,9.9-6.5,16.6-6.5c6.8,0,12.3,2.2,16.6,6.5c4.3,4.3,6.5,9.7,6.5,16.1
		c0,6.6-2.2,12.1-6.5,16.5c-4.3,4.4-9.9,6.6-16.6,6.6c-6.8,0-12.3-2.2-16.6-6.6C846.6,571.1,844.4,565.6,844.4,559z M855.6,559
		c0,3.8,1.1,7,3.4,9.5c2.2,2.5,5.1,3.8,8.6,3.8c3.5,0,6.3-1.3,8.6-3.8c2.2-2.5,3.4-5.7,3.4-9.5c0-3.6-1.1-6.7-3.4-9.1
		c-2.2-2.4-5.1-3.6-8.6-3.6c-3.5,0-6.3,1.2-8.6,3.6S855.6,555.3,855.6,559z"/>
	<path d="M910.7,559c0-6.4,2.2-11.8,6.5-16.1c4.3-4.3,9.9-6.5,16.6-6.5c6.8,0,12.3,2.2,16.6,6.5c4.3,4.3,6.5,9.7,6.5,16.1
		c0,4.6-1.5,9-4.4,13.1l4.6,3.8l-6.1,6.9l-4.5-4.3c-3.7,2.4-8,3.7-12.7,3.7c-6.8,0-12.3-2.2-16.6-6.6
		C912.8,571.1,910.7,565.6,910.7,559z M921.9,559c0,3.8,1.1,7,3.4,9.5c2.2,2.5,5.1,3.8,8.6,3.8c1.9,0,3.5-0.3,4.8-1l-4.5-4l6.1-6.9
		l4.4,4.3c0.8-1.8,1.2-3.7,1.2-5.7c0-3.6-1.1-6.7-3.4-9.1s-5.1-3.6-8.5-3.6c-3.5,0-6.3,1.2-8.6,3.6S921.9,555.3,921.9,559z"/>
	<path d="M963.2,565.1v-28h10.8v28c0,2.3,0.7,4,2.1,5.3c1.4,1.2,3.2,1.9,5.6,1.9c2.4,0,4.2-0.6,5.6-1.9c1.4-1.2,2.1-3,2.1-5.3v-28
		h10.8v28c0,5-1.7,9.1-5.1,12.3c-3.4,3.2-7.8,4.7-13.4,4.7c-5.6,0-10.1-1.6-13.5-4.7C964.9,574.2,963.2,570.1,963.2,565.1z"/>
	<path d="M1009,581.4v-44.2h27.7v9.3h-16.9v8h13.5v9.3h-13.5v8.4h17.8v9.3H1009z"/>
	<path d="M613.2,655.6v-44.2h18.4c4.3,0,7.8,1.4,10.4,4.3c2.7,2.8,4,6.5,4,11c0,4.5-1.3,8.2-4,11c-2.7,2.9-6.1,4.3-10.4,4.3H624
		v13.7H613.2z M624,632.7h5.3c1.8,0,3.2-0.6,4.2-1.7c1-1.1,1.5-2.6,1.5-4.4c0-1.8-0.5-3.3-1.4-4.3c-0.9-1.1-2.3-1.6-4-1.6H624V632.7
		z"/>
	<path d="M649.7,633.2c0-6.4,2.2-11.8,6.5-16.1c4.3-4.3,9.9-6.5,16.6-6.5c6.8,0,12.3,2.2,16.6,6.5c4.3,4.3,6.5,9.7,6.5,16.1
		c0,6.6-2.2,12.1-6.5,16.5c-4.3,4.4-9.9,6.6-16.6,6.6c-6.8,0-12.3-2.2-16.6-6.6S649.7,639.8,649.7,633.2z M660.9,633.2
		c0,3.8,1.1,7,3.4,9.5s5.1,3.8,8.6,3.8c3.5,0,6.3-1.3,8.6-3.8c2.2-2.5,3.4-5.7,3.4-9.5c0-3.6-1.1-6.7-3.4-9.1
		c-2.2-2.4-5.1-3.6-8.6-3.6c-3.5,0-6.3,1.2-8.6,3.6S660.9,629.6,660.9,633.2z"/>
	<path d="M702.8,655.6v-44.2h15.7c7,0,12.6,1.9,16.7,5.8c4.1,3.9,6.2,9.3,6.2,16.2c0,6.9-2.1,12.4-6.2,16.3
		c-4.1,3.9-9.7,5.9-16.7,5.9H702.8z M713.6,646.3h4.5c3.8,0,6.8-1.1,8.9-3.3c2.1-2.2,3.2-5.4,3.2-9.6c0-4.1-1.1-7.3-3.2-9.5
		c-2.1-2.2-5.1-3.3-8.8-3.3h-4.5V646.3z"/>
	<path d="M748.4,655.6v-44.2h27.7v9.3h-16.9v8h13.5v9.3h-13.5v8.4H777v9.3H748.4z"/>
	<path d="M782.2,655.6l3.7-44.2h11.8l6.4,18.7l2.2,7.3h0.1c0.8-3,1.6-5.4,2.2-7.3l6.4-18.7h11.8l3.6,44.2h-10.8l-1.4-19.9
		c-0.1-1-0.1-2.1-0.1-3.3c0-1.2,0-2.2,0.1-3l0.1-1.1h-0.1c-1,3.1-1.8,5.6-2.5,7.4l-4.6,12.8h-9.3l-4.6-12.8l-2.5-7.4h-0.1
		c0.2,2.7,0.2,5.2,0,7.4l-1.4,19.9H782.2z"/>
	<path d="M835.6,633.2c0-6.4,2.2-11.8,6.5-16.1c4.3-4.3,9.9-6.5,16.6-6.5c6.8,0,12.3,2.2,16.6,6.5c4.3,4.3,6.5,9.7,6.5,16.1
		c0,6.6-2.2,12.1-6.5,16.5c-4.3,4.4-9.9,6.6-16.6,6.6c-6.8,0-12.3-2.2-16.6-6.6S835.6,639.8,835.6,633.2z M846.8,633.2
		c0,3.8,1.1,7,3.4,9.5s5.1,3.8,8.6,3.8c3.5,0,6.3-1.3,8.6-3.8c2.2-2.5,3.4-5.7,3.4-9.5c0-3.6-1.1-6.7-3.4-9.1
		c-2.2-2.4-5.1-3.6-8.6-3.6c-3.5,0-6.3,1.2-8.6,3.6S846.8,629.6,846.8,633.2z"/>
	<path d="M885.3,650.1l5.7-8.2c1.4,1.2,3.1,2.3,5,3.2c1.9,0.9,3.8,1.4,5.6,1.4c1.4,0,2.6-0.3,3.4-0.9c0.8-0.6,1.2-1.3,1.2-2.2
		c0-0.9-0.5-1.8-1.5-2.6c-1-0.8-2.2-1.5-3.6-2c-1.4-0.5-3-1.2-4.7-2.1s-3.3-1.7-4.7-2.7c-1.4-0.9-2.7-2.3-3.6-3.9
		c-1-1.7-1.5-3.6-1.5-5.8c0-4,1.5-7.3,4.5-9.8c3-2.5,6.8-3.7,11.5-3.7c5.5,0,10.1,1.7,13.9,5l-4.6,8.8c-1.3-1.1-2.8-2-4.6-2.8
		c-1.8-0.7-3.5-1.1-5.2-1.1c-1.6,0-2.7,0.3-3.5,0.9c-0.8,0.6-1.2,1.3-1.2,2.3c0,0.9,0.5,1.8,1.5,2.6c1,0.8,2.2,1.4,3.6,1.9
		c1.4,0.5,3,1.2,4.7,2c1.7,0.8,3.3,1.7,4.7,2.6c1.4,0.9,2.6,2.2,3.6,3.9c1,1.7,1.5,3.6,1.5,5.8c0,3.9-1.4,7.2-4.2,9.8
		c-2.8,2.6-6.6,4-11.5,4c-3,0-5.9-0.5-8.7-1.6C889.9,653.7,887.4,652.1,885.3,650.1z"/>
	<path d="M939.4,655.6v-44.2h10.8v17.7h16.1v-17.7h10.8v44.2h-10.8v-17.3h-16.1v17.3H939.4z"/>
	<path d="M981.6,655.6l15-44.2h11.4l15,44.2h-11.1l-2.7-9.3h-13.8l-2.7,9.3H981.6z M998,637.7h8.7l-2.5-8.6l-1.8-7.6h-0.1
		c-0.7,3.2-1.3,5.8-1.8,7.6L998,637.7z"/>
	<path d="M1024.2,633.4c0-6.5,2.2-11.9,6.5-16.3c4.4-4.3,9.9-6.5,16.7-6.5c3.1,0,6.1,0.5,9,1.6c2.9,1.1,5.4,2.6,7.5,4.7l-5,8.2
		c-1.5-1.3-3.2-2.4-5.2-3.2c-2-0.8-4-1.3-5.8-1.3c-4.1,0-7.2,1.2-9.3,3.7c-2.1,2.5-3.2,5.4-3.2,8.9c0,3.6,1.1,6.7,3.2,9.3
		c2.2,2.6,5.2,4,9.3,4c4.2,0,8.1-1.8,11.8-5.4l5.6,7.9c-4.8,5-10.7,7.4-17.8,7.4c-7,0-12.6-2.2-16.9-6.5
		C1026.3,645.6,1024.2,640.1,1024.2,633.4z"/>
	<path d="M1070.7,655.6v-44.2h27.7v9.3h-16.9v8h13.5v9.3h-13.5v8.4h17.8v9.3H1070.7z"/>
	<path d="M1106.2,655.6v-44.2h15.4c3.9,0,6.8,0.4,8.6,1.1c2.6,1,4.6,2.6,6,4.8c1.4,2.2,2.2,4.9,2.2,8.1c0,2.5-0.6,4.8-1.7,7.1
		c-1.2,2.2-2.8,3.9-4.9,5v0.1c0.4,0.5,1,1.4,1.7,2.7l8.6,15.5H1130l-7.9-14.9h-5.1v14.9H1106.2z M1117.1,631.4h4.7
		c1.8,0,3.2-0.5,4.1-1.4c1-0.9,1.5-2.3,1.5-4c0-2.4-0.9-4-2.6-4.7c-0.9-0.4-2.3-0.6-4.1-0.6h-3.7V631.4z"/>
	<path d="M1143,662.5l4.6-17.1h10.2l-7,17.1H1143z"/>
	<path d="M613.2,729.9v-44.2h11l12.3,20.7c0.5,0.9,1.1,1.9,1.7,3.2c0.6,1.3,1.1,2.3,1.5,3.1l0.6,1.2h0.1c-0.3-3.2-0.5-5.7-0.5-7.5
		v-20.7h10.8v44.2h-10.9l-12.3-20.6c-0.5-0.9-1.1-1.9-1.7-3.2c-0.6-1.3-1.1-2.3-1.5-3.1l-0.6-1.2h-0.1c0.3,3.2,0.5,5.7,0.5,7.5v20.6
		H613.2z"/>
	<path d="M657.4,707.5c0-6.4,2.2-11.8,6.5-16.1c4.3-4.3,9.9-6.5,16.6-6.5c6.8,0,12.3,2.2,16.6,6.5c4.3,4.3,6.5,9.7,6.5,16.1
		c0,6.6-2.2,12.1-6.5,16.5c-4.3,4.4-9.9,6.6-16.6,6.6c-6.8,0-12.3-2.2-16.6-6.6S657.4,714.1,657.4,707.5z M668.6,707.5
		c0,3.8,1.1,7,3.4,9.5c2.2,2.5,5.1,3.8,8.6,3.8c3.5,0,6.3-1.3,8.6-3.8c2.2-2.5,3.4-5.7,3.4-9.5c0-3.6-1.1-6.7-3.4-9.1
		c-2.2-2.4-5.1-3.6-8.6-3.6c-3.5,0-6.3,1.2-8.6,3.6S668.6,703.8,668.6,707.5z"/>
	<path d="M723.7,707.7c0-6.5,2.2-11.9,6.5-16.3c4.4-4.3,9.9-6.5,16.7-6.5c3.1,0,6.1,0.5,9,1.6c2.9,1.1,5.4,2.6,7.5,4.7l-5,8.2
		c-1.5-1.3-3.2-2.4-5.2-3.2c-2-0.8-4-1.3-5.8-1.3c-4.1,0-7.2,1.2-9.3,3.7s-3.2,5.4-3.2,8.9c0,3.6,1.1,6.7,3.2,9.3
		c2.2,2.6,5.2,4,9.3,4c4.2,0,8.1-1.8,11.8-5.4l5.6,7.9c-4.8,5-10.7,7.4-17.8,7.4c-7,0-12.6-2.2-16.9-6.5
		C725.8,719.8,723.7,714.3,723.7,707.7z"/>
	<path d="M765.4,729.9l15-44.2h11.4l15,44.2h-11.1l-2.7-9.3h-13.8l-2.7,9.3H765.4z M781.7,711.9h8.7l-2.5-8.6l-1.8-7.6H786
		c-0.7,3.2-1.3,5.8-1.8,7.6L781.7,711.9z"/>
	<path d="M811.3,729.9v-44.2h16.3c4.5,0,8.2,1,10.9,3c2.7,2,4.1,4.9,4.1,8.6c0,1.9-0.5,3.7-1.4,5.4c-0.9,1.7-2.2,3-3.8,4v0.1
		c2.4,0.7,4.1,2,5.2,3.9c1.1,1.9,1.7,3.9,1.7,6.1c0,4.5-1.6,7.8-4.8,10c-3.2,2.1-7.2,3.2-12.1,3.2H811.3z M822.1,702.8h5.6
		c1.3,0,2.2-0.4,2.9-1.2c0.7-0.8,1-1.8,1-2.9c0-1.1-0.3-2-1-2.7s-1.7-1.1-3.1-1.1h-5.4V702.8z M822.1,720.6h6.5
		c1.5,0,2.6-0.4,3.5-1.3c0.8-0.9,1.2-2,1.2-3.3c0-1.3-0.4-2.4-1.2-3.2c-0.8-0.8-1.9-1.3-3.5-1.3h-6.6V720.6z"/>
	<path d="M851.3,729.9v-44.2H879v9.3h-16.9v8h13.5v9.3h-13.5v8.4h17.8v9.3H851.3z"/>
	<path d="M902.3,729.9v-44.2H930v9.3h-16.9v8h13.5v9.3h-13.5v8.4h17.8v9.3H902.3z"/>
	<path d="M937.8,729.9v-44.2h11l12.3,20.7c0.5,0.9,1.1,1.9,1.7,3.2c0.6,1.3,1.1,2.3,1.5,3.1l0.6,1.2h0.1c-0.3-3.2-0.5-5.7-0.5-7.5
		v-20.7h10.8v44.2h-10.9L952,709.3c-0.5-0.9-1.1-1.9-1.7-3.2c-0.6-1.3-1.1-2.3-1.5-3.1l-0.6-1.2h-0.1c0.3,3.2,0.5,5.7,0.5,7.5v20.6
		H937.8z"/>
	<path d="M612.7,787.9v-28h10.8v28c0,2.3,0.7,4,2.1,5.3c1.4,1.2,3.2,1.9,5.6,1.9c2.4,0,4.2-0.6,5.6-1.9c1.4-1.2,2.1-3,2.1-5.3v-28
		h10.8v28c0,5-1.7,9.1-5.1,12.3c-3.4,3.2-7.8,4.7-13.4,4.7c-5.6,0-10.1-1.6-13.5-4.7C614.4,797,612.7,792.9,612.7,787.9z"/>
	<path d="M658.5,804.1v-44.2h11l12.3,20.7c0.5,0.9,1.1,1.9,1.7,3.2c0.6,1.3,1.1,2.3,1.5,3.1l0.6,1.2h0.1c-0.3-3.2-0.5-5.7-0.5-7.5
		v-20.7h10.8v44.2h-10.9l-12.3-20.6c-0.5-0.9-1.1-1.9-1.7-3.2c-0.6-1.3-1.1-2.3-1.5-3.1l-0.6-1.2h-0.1c0.3,3.2,0.5,5.7,0.5,7.5v20.6
		H658.5z"/>
	<path d="M700.3,804.1l15-44.2h11.4l15,44.2h-11.1l-2.7-9.3h-13.8l-2.7,9.3H700.3z M716.6,786.2h8.7l-2.5-8.6l-1.8-7.6h-0.1
		c-0.7,3.2-1.3,5.8-1.8,7.6L716.6,786.2z"/>
	<path d="M743.2,798.6l5.7-8.2c1.4,1.2,3.1,2.3,5,3.2c1.9,0.9,3.8,1.4,5.6,1.4c1.4,0,2.6-0.3,3.4-0.9c0.8-0.6,1.2-1.3,1.2-2.2
		c0-0.9-0.5-1.8-1.5-2.6c-1-0.8-2.2-1.5-3.6-2c-1.4-0.5-3-1.2-4.7-2.1c-1.7-0.8-3.3-1.7-4.7-2.7c-1.4-0.9-2.7-2.3-3.6-3.9
		c-1-1.7-1.5-3.6-1.5-5.8c0-4,1.5-7.3,4.5-9.8c3-2.5,6.8-3.7,11.5-3.7c5.5,0,10.1,1.7,13.9,5l-4.6,8.8c-1.3-1.1-2.8-2-4.6-2.8
		c-1.8-0.7-3.5-1.1-5.2-1.1c-1.6,0-2.7,0.3-3.5,0.9c-0.8,0.6-1.2,1.3-1.2,2.3s0.5,1.8,1.5,2.6c1,0.8,2.2,1.4,3.6,1.9
		c1.4,0.5,3,1.2,4.7,2s3.3,1.7,4.7,2.6c1.4,0.9,2.6,2.2,3.6,3.9c1,1.7,1.5,3.6,1.5,5.8c0,3.9-1.4,7.2-4.2,9.8c-2.8,2.6-6.6,4-11.5,4
		c-3,0-5.9-0.5-8.7-1.6C747.7,802.2,745.2,800.6,743.2,798.6z"/>
	<path d="M797.2,804.1v-44.2h18.4c4.3,0,7.8,1.4,10.4,4.3c2.7,2.8,4,6.5,4,11c0,4.5-1.3,8.2-4,11c-2.7,2.9-6.1,4.3-10.4,4.3h-7.5
		v13.7H797.2z M808.1,781.2h5.3c1.8,0,3.2-0.6,4.2-1.7c1-1.1,1.5-2.6,1.5-4.4c0-1.8-0.5-3.3-1.4-4.3c-0.9-1.1-2.3-1.6-4-1.6h-5.5
		V781.2z"/>
	<path d="M833.7,781.7c0-6.4,2.2-11.8,6.5-16.1c4.3-4.3,9.9-6.5,16.6-6.5c6.8,0,12.3,2.2,16.6,6.5c4.3,4.3,6.5,9.7,6.5,16.1
		c0,6.6-2.2,12.1-6.5,16.5c-4.3,4.4-9.9,6.6-16.6,6.6c-6.8,0-12.3-2.2-16.6-6.6S833.7,788.3,833.7,781.7z M844.9,781.7
		c0,3.8,1.1,7,3.4,9.5c2.2,2.5,5.1,3.8,8.6,3.8c3.5,0,6.3-1.3,8.6-3.8c2.2-2.5,3.4-5.7,3.4-9.5c0-3.6-1.1-6.7-3.4-9.1
		c-2.2-2.4-5.1-3.6-8.6-3.6c-3.5,0-6.3,1.2-8.6,3.6S844.9,778.1,844.9,781.7z"/>
	<path d="M884.5,781.9c0-6.5,2.2-11.9,6.5-16.3c4.4-4.3,9.9-6.5,16.7-6.5c3.1,0,6.1,0.5,9,1.6c2.9,1.1,5.4,2.6,7.5,4.7l-5,8.2
		c-1.5-1.3-3.2-2.4-5.2-3.2c-2-0.8-4-1.3-5.8-1.3c-4.1,0-7.2,1.2-9.3,3.7s-3.2,5.4-3.2,8.9c0,3.6,1.1,6.7,3.2,9.3
		c2.2,2.6,5.2,4,9.3,4c4.2,0,8.1-1.8,11.8-5.4l5.6,7.9c-4.8,5-10.7,7.4-17.8,7.4c-7,0-12.6-2.2-16.9-6.5
		C886.7,794.1,884.5,788.6,884.5,781.9z"/>
	<path d="M926.2,804.1l15-44.2h11.4l15,44.2h-11.1l-2.7-9.3H940l-2.7,9.3H926.2z M942.6,786.2h8.7l-2.5-8.6L947,770h-0.1
		c-0.7,3.2-1.3,5.8-1.8,7.6L942.6,786.2z"/>
	<path d="M969.1,798.6l5.7-8.2c1.4,1.2,3.1,2.3,5,3.2c1.9,0.9,3.8,1.4,5.6,1.4c1.4,0,2.6-0.3,3.4-0.9c0.8-0.6,1.2-1.3,1.2-2.2
		c0-0.9-0.5-1.8-1.5-2.6c-1-0.8-2.2-1.5-3.6-2c-1.4-0.5-3-1.2-4.7-2.1c-1.7-0.8-3.3-1.7-4.7-2.7c-1.4-0.9-2.7-2.3-3.6-3.9
		c-1-1.7-1.5-3.6-1.5-5.8c0-4,1.5-7.3,4.5-9.8c3-2.5,6.8-3.7,11.5-3.7c5.5,0,10.1,1.7,13.9,5l-4.6,8.8c-1.3-1.1-2.8-2-4.6-2.8
		c-1.8-0.7-3.5-1.1-5.2-1.1c-1.6,0-2.7,0.3-3.5,0.9c-0.8,0.6-1.2,1.3-1.2,2.3s0.5,1.8,1.5,2.6c1,0.8,2.2,1.4,3.6,1.9
		c1.4,0.5,3,1.2,4.7,2s3.3,1.7,4.7,2.6c1.4,0.9,2.6,2.2,3.6,3.9c1,1.7,1.5,3.6,1.5,5.8c0,3.9-1.4,7.2-4.2,9.8c-2.8,2.6-6.6,4-11.5,4
		c-3,0-5.9-0.5-8.7-1.6C973.6,802.2,971.2,800.6,969.1,798.6z"/>
	<path d="M628.6,878.4v-44.2h10.8v35h18.1v9.3H628.6z"/>
	<path d="M662.8,878.4v-44.2h10.8v44.2H662.8z M663.8,831.3l5-9.3h10.6l-7.3,9.3H663.8z"/>
	<path d="M682.9,878.4v-44.2h11l12.3,20.7c0.5,0.9,1.1,1.9,1.7,3.2c0.6,1.3,1.1,2.3,1.5,3.1l0.6,1.2h0.1c-0.3-3.2-0.5-5.7-0.5-7.5
		v-20.7h10.8v44.2h-10.9l-12.3-20.6c-0.5-0.9-1.1-1.9-1.7-3.2c-0.6-1.3-1.1-2.3-1.5-3.1l-0.6-1.2h-0.1c0.3,3.2,0.5,5.7,0.5,7.5v20.6
		H682.9z"/>
	<path d="M729.5,878.4v-44.2h27.7v9.3h-16.9v8h13.5v9.3h-13.5v8.4h17.8v9.3H729.5z"/>
	<path d="M760.2,878.4l15-44.2h11.4l15,44.2h-11.1l-2.7-9.3H774l-2.7,9.3H760.2z M776.6,860.4h8.7l-2.5-8.6l-1.8-7.6h-0.1
		c-0.7,3.2-1.3,5.8-1.8,7.6L776.6,860.4z"/>
	<path d="M803.1,872.8l5.7-8.2c1.4,1.2,3.1,2.3,5,3.2c1.9,0.9,3.8,1.4,5.6,1.4c1.4,0,2.6-0.3,3.4-0.9c0.8-0.6,1.2-1.3,1.2-2.2
		c0-0.9-0.5-1.8-1.5-2.6c-1-0.8-2.2-1.5-3.6-2c-1.4-0.5-3-1.2-4.7-2.1c-1.7-0.8-3.3-1.7-4.7-2.7c-1.4-0.9-2.7-2.3-3.6-3.9
		c-1-1.7-1.5-3.6-1.5-5.8c0-4,1.5-7.3,4.5-9.8c3-2.5,6.8-3.7,11.5-3.7c5.5,0,10.1,1.7,13.9,5l-4.6,8.8c-1.3-1.1-2.8-2-4.6-2.8
		c-1.8-0.7-3.5-1.1-5.2-1.1c-1.6,0-2.7,0.3-3.5,0.9c-0.8,0.6-1.2,1.3-1.2,2.3s0.5,1.8,1.5,2.6c1,0.8,2.2,1.4,3.6,1.9
		c1.4,0.5,3,1.2,4.7,2s3.3,1.7,4.7,2.6c1.4,0.9,2.6,2.2,3.6,3.9c1,1.7,1.5,3.6,1.5,5.8c0,3.9-1.4,7.2-4.2,9.8c-2.8,2.6-6.6,4-11.5,4
		c-3,0-5.9-0.5-8.7-1.6C807.6,876.4,805.2,874.9,803.1,872.8z"/>
</g>
<path d="M790.4,490.5H622.7c-7,0-7,13.1,0,13.1h167.7C797.3,503.6,797.3,490.5,790.4,490.5z"/>
<path d="M775,905.9H638c-5.7,0-5.7,13.1,0,13.1H775C780.7,919,780.7,905.9,775,905.9z"/>
</svg>
