<?xml version="1.0" encoding="utf-8"?>
<!-- Generator: Adobe Illustrator 25.3.1, SVG Export Plug-In . SVG Version: 6.00 Build 0)  -->
<svg version="1.1" id="Capa_1" xmlns="http://www.w3.org/2000/svg" xmlns:xlink="http://www.w3.org/1999/xlink" x="0px" y="0px"
	 width="800px" height="600px" viewBox="0 0 800 600" style="enable-background:new 0 0 800 600;" xml:space="preserve">
<style type="text/css">
	.st0{fill:#FFFFFF;}
</style>
<g>
	<path d="M101.9,71.3c3.6-4,9.4-4,14.3-4.1c38.3,0.1,76.6,0,114.9,0c7.2-0.7,15,4.1,15.8,11.7c0.8,8.6,0.3,17.2,0.4,25.8H369
		c5.1,0,10.9,0.1,14.5,4.2c4.1,3.7,4.2,9.5,4.2,14.6c-0.1,31.2-0.1,62.4,0,93.6c0,5.1-0.1,10.8-4.2,14.5c-3.6,4.1-9.4,4.2-14.5,4.2
		c-14.9,0-29.8-0.1-44.7,0c-7.3,8.3-13.8,17.4-21.6,25.3c-5.2,5.2-15,2.5-17.3-4.3c-1.4-6.9-0.7-14-0.7-21h-9.4v74.8
		c0,5.1-0.1,10.9-4.2,14.6c-3.7,4.1-9.5,4.1-14.5,4.2c-15.6,0-31.2-0.1-46.8,0c-0.1,7,0.7,14.1-0.8,21c-2.3,6.9-12.1,9.5-17.3,4.3
		c-7.8-7.9-14.1-17.1-21.5-25.3c-16.5-0.1-33,0.3-49.5-0.1c-7.3,0.2-13.8-6.3-13.6-13.6c-0.4-30.5,0-61-0.1-91.5
		c-0.8-7.3,4-15.2,11.7-16c13.6-0.9,27.2,0,40.8-0.4c-2.6-3.1-5.3-6.2-7.9-9.4c-13.4-0.1-26.7,0.4-40.1-0.1
		c-7.3,0.2-13.9-6.3-13.7-13.6c-0.4-32,0.1-64.1-0.2-96.2C97.7,82.5,97.1,75.6,101.9,71.3L101.9,71.3z M107.2,81.1
		c-0.5,32.8,0,65.7-0.3,98.6c0,3.3-0.3,9.2,4.6,9c14.8,0.6,29.6,0,44.4,0.2c8.6,9.6,15.7,20.6,25.5,29.1c0.6-9.7,0.5-19.4,0.4-29.1
		c17.2-0.2,34.5,0.4,51.7-0.2c4.8,0.3,4.5-5.6,4.5-8.9c-0.2-32.8,0.3-65.7-0.3-98.5c0.3-5-5.7-4.7-9.1-4.7
		c-38.3,0.1-76.6,0-114.9,0.1C111.1,76.3,106.9,77.4,107.2,81.1L107.2,81.1z M247.4,114.1v65.5c0,5-0.1,10.8-4.1,14.5
		c-3.7,4.2-9.6,3.9-14.6,4.6c0.1,8.3-0.5,16.7,0.4,24.9c0.6,0.6,1.7,1.7,2.2,2.3c20.9,1.1,41.9,0.1,62.8,0.4
		c-0.1,9.7-0.2,19.3,0.4,29c9.9-8.4,16.9-19.5,25.5-29.1c17.9-0.2,35.8,0.4,53.7-0.2c4.9,0.2,4.6-5.6,4.6-9
		c-0.2-32.8,0.3-65.7-0.2-98.5c0.3-3.7-3.8-4.9-6.7-4.5C330.1,114,288.7,114.1,247.4,114.1L247.4,114.1z M191.2,198.3v9.4h28.1v-9.4
		H191.2z M116.4,226.1c0.1,28.9-0.1,57.9,0.1,86.8c-0.4,2.9,0.8,7.1,4.5,6.8c17.9,0.6,35.8,0,53.7,0.2c8.6,9.6,15.7,20.6,25.5,29
		c0.6-9.7,0.4-19.3,0.4-29c20.3-0.2,40.6,0.4,60.9-0.2c3.6,0.3,5-3.7,4.6-6.6c0.2-25.8,0-51.6,0-77.4c-12.3-0.4-24.8,1-37-0.7
		c-8-2-10.1-10.8-10.2-18c-9.1,0-18.1-0.1-27.2,0.1c-2.3,3.9-5,8.7-10.1,9.2c-6.6,1-10.7-5-14.6-9.2c-15.4,0-30.7-0.4-46.1,0.1
		C116,216.9,116.3,222.7,116.4,226.1L116.4,226.1z"/>
	<path d="M126,121c1.4-13.7,13.6-25.8,27.7-25.5c7-0.4,13.1,3.3,18.9,6.8c9.8-7.7,24.3-9.5,34.5-1.7c14.9,10.4,16,34,3.3,46.6
		c-12.2,11.7-25.3,22.6-37.9,34c-11.8-10.5-23.7-21-35.5-31.5C129,142.6,124.4,131.6,126,121L126,121z M135.2,123.2
		c-0.7,7.6,2.9,14.8,8.5,19.7c9.5,8.7,19.3,17.1,28.9,25.7c10.3-9.4,21.2-18.2,31.2-28c10.7-10.1,7.2-31.5-7.9-35.1
		c-9.4-2.9-17.4,3.9-23.3,10.3c-5.2-5-10.7-11.3-18.7-11C143.9,104.5,135.5,113.6,135.2,123.2z M304.3,129.1
		c6.2-9.1,20.9-6.3,26.2,2.3c4.4,5.8,2.9,13.3,2.2,19.9c9.5-0.6,21.2,1.1,25.2,11.1c3.3,10.8,1.3,22.4,1.7,33.6
		c0.9,9.7-6.1,19.7-16.1,20.6c-16.5,0.9-33.8,1.5-49.3-5.4c-6.2,8.2-17.1,5.4-26,5.7c-5.4,0.6-11.6-3.1-11.3-9.1
		c-0.4-14.9-0.1-29.9-0.2-44.9c-0.5-4.7,2-10,6.9-11.1c9.2-1.2,18.5-0.7,27.6,0.8C297.8,146.1,300.4,137.3,304.3,129.1L304.3,129.1z
		 M311.4,135.8c-3.5,10.3-9.2,19.7-17.2,27.1c-0.1,12.5,0,25.1-0.1,37.6c14.3,8.2,31.2,7.6,47.2,6.9c4.8,0.1,9.1-4.2,8.9-9
		c0-10.7,1.2-21.6-0.8-32.2c-5.7-9.5-19-4.1-28-5.4c1.1-6.9,2.9-13.8,2.9-20.9C323.9,134.3,314.1,129.3,311.4,135.8z M266.1,160.8
		v46.8h18.7v-46.8H266.1z M176.9,242.4c6.9-8.8,21.8-8.9,28.7,0c4.6,4.9,4.3,12,4.3,18.3c2.1-6.2,5.8-12.5,12.5-14.5
		c9.9-4,22.1,2.5,24.4,12.9c2,6.2-1.1,12.2-3.8,17.6c11.6,7.2,15.3,21,14,33.9h-9.3c-0.2-7.7,0.6-16.7-5.6-22.5
		c-5.4-6-14.1-6.1-21.4-4.2c1.5,8.7,2.5,17.4,3.4,26.2c-3.1,0.3-6.2,0.7-9.3,1c-1.9-11.1,0-25-9.8-33c-9.9-8.7-27.1-5.2-32.7,6.7
		c-3.4,8.3-3.1,17.5-4.4,26.3c-3.1-0.3-6.2-0.7-9.3-1c0.8-8.8,1.9-17.5,3.4-26.2c-7.3-1.9-15.9-1.8-21.4,4.2
		c-6.3,5.8-5.4,14.8-5.6,22.5h-9.3c-1.3-12.9,2.4-26.7,13.9-33.9c-3.2-5.8-6.1-12.5-3.4-19.1c3.4-10.7,17.3-15.9,26.8-10
		c5.2,2.5,7.6,8,9.5,13.1C172.7,254.4,172.3,247.3,176.9,242.4L176.9,242.4z M187.3,245.9c-6.3,2.7-7.4,12.3-1.4,16
		c5,4,13.2,0.7,14.5-5.5C202.3,249.4,193.9,242.3,187.3,245.9z M149.9,255.3c-6.3,2.6-7.5,12.4-1.5,16c5.1,4.1,13.3,0.7,14.5-5.5
		C164.8,258.7,156.5,251.7,149.9,255.3z M224.7,255.3c-6.3,2.7-7.4,12.4-1.4,16c5.7,4.6,15.1-0.4,14.7-7.6
		C238.2,257.3,230.5,252.1,224.7,255.3z M173.3,257.7c-0.7,4.4-1.3,8.8-2,13.2c1.8-1.1,3.7-2.2,5.5-3.3
		C175.6,264.2,174.5,261,173.3,257.7L173.3,257.7z M209,258.1c-1.1,3.2-2.3,6.3-3.4,9.5c1.9,1.1,3.7,2.1,5.6,3.2
		C210.4,266.6,209.7,262.3,209,258.1L209,258.1z"/>
</g>
<g>
	<path class="st0" d="M716.5,443.4c2.8-5,5.9-9.7,8.5-14.8c2.4-1.8,5.8-2.6,6.8-5.9c-1.1-1.6-2.1-3.3-2.9-5c2.4-0.5,4.8-1.4,6.9-2.6
		l-3.9-23.9c2.2,0.1,4.3,0,6.4-0.6c-4.2-5.5-8-11.7-8.7-18.7c-0.2-1.2,0.5-2.2,1.1-3.2c0.6-0.8,1.1-1.7,1.7-2.6
		c-0.3-2-0.6-4.1-0.9-6.1c-0.7,0.9-1.3,1.8-2,2.7l0,0.3c-0.2,0.2-0.5,0.7-0.7,0.9c0-0.5,0-1.5-0.1-2.1c-1-1.6-1.3-3.4-1.7-5.1
		c-1.7-7.4-4.3-14.5-7.4-21.3c0.4,0.1,0.9,0.3,1.3,0.4c-0.5-1-1-2-1.4-3c0,0-0.1-0.1-0.1-0.1c0,0,0,0,0.1,0
		c-0.7-1.5-1.3-3.1-1.9-4.7c-0.2-0.5-0.2-0.9-0.2-1.3c-1.4-0.9-2.7-1.8-4-2.7c-6-27.1-19.2-35.5-30-37.6c1.7-2.5-14.3-1.6-26.2-0.6
		l-1.1-2.8h0c16.3-7.4,28.8-20.4,33.1-37.8c0.9,0,1.7,0.8,2.6,0.8c2.3-8.8,3.3-18.3,4.6-27.4c-2-1.4-3.9-2.9-5.5-4.5
		c2-1.3,3.3-3.5,3.2-6.6c-0.8-22-1-44.1-0.6-66.1c0-2.4-0.8-4.3-2.1-5.6c0.8-1.4,1.6-2.9,2.5-4.2c-0.4-1.1-0.9-2.2-1.4-3.2
		c1.8-1.8,3.9-3,6-3.6c1.3-1.7,2.6-3.3,3.9-4.8c3.1-5.7,5.4-11.9,6.2-18c0.8-4.6,0.2-8.9-0.3-13.3c-0.9-0.2-1.5-0.3-2.4-0.4
		c0.3-1.9-0.3-3.8-1.8-4.9c-2.9-5.7-8.9-8.6-14-11.3c-2.7,0.6-5.5,1.3-8.2,2.1c-2.7,0.8-5.3,1.8-7.8,3c-1.7,4.2-5.6,5.1-8,4.2
		c-18.9-9.8-38.6-24-59.9-21.3c-11,1.8-21.3-0.9-32.7,1.7c-2.6,0.3-5.2,0.8-7.8,1.5c-15.6,3.9-30.3,13.2-43.1,24.4
		c-1.6,0.9-3.2,0-4.8-0.9c-2.2-0.9-4.5-2.4-6.1-4.7c-2.4-1.8-4.7-2.7-7.6-2c-2.7-0.6-5.5-1-8.3-1.3c-4.9,3.2-10.7,6.6-13.1,12.6
		c-1.4,1.3-1.9,3.2-1.4,5.1c-0.8,0.2-1.5,0.4-2.3,0.6c-0.1,4.4-0.4,8.8,0.7,13.2c0.5,2.5,1.3,4.9,2.3,7.3c4,5.1,7.4,10.7,10.1,16.6
		c0.4,0.4,0.8,0.9,1.2,1.3c-0.1,0.2-0.1,0.4-0.2,0.7c2.6,6,4.7,12.3,6.2,18.7c-3.7,1.3-6.7,4.8-5.4,9.7c4.9,18.4,4.4,38.9,5.2,58.1
		c-0.5,2.4-1.1,4.7-1.7,7c0.5,2.5,1.1,5.1,1.7,7.6c0.5,2.9,1.1,5.7,1.9,8.5c3.2,11,9.1,21,20.3,28.7c2.4,1.8,5.1,3.4,8.1,4.8
		l-30.2-2.7c-31-3-49.5,20-49.5,20l1,2.4c-4.7,4.4-6.5,8-6.5,8c0,0,0,0,0,0l-11.8,8.6c-2.7,0.7-5.5,0.7-8.3,0.1
		c-1.3,5,0.7,10,0.2,15.1c-0.3,3.4,2.3,6.2,2.5,9.4c-3.3,8.8-4.8,18.2-4.9,27.5l0,0l0,0c0,7.8,1,15.6,2.9,23.1
		c2,7.2,0.1,14.7-1.8,21.7c1.8-0.3,3.5-0.7,5.3-1.1c-0.4,1.8-0.9,3.6-1.4,5.4c2.4-0.2,4.7-1,6.9-1.8c6.6,13.9,15.5,26.7,26.1,37.8
		c-1.6,2.6-3.7,4.9-4.9,7.8c-3.9,8.8-3.4,19.3,1.2,27.7c5.1,9.4,13.5,16.7,22.4,22.5c2.8,2,6.1,3.3,8.7,5.6
		c-7.6,1.4-15.4,2.8-22.5,6c-1.9,1-4.4,2.2-4.6,4.7c0.6,2.4,3,3.4,4.9,4.4c8.5,3.8,17.7,4.9,26.7,6.7c6.7,5.2,13.3,11.1,21.6,13.4
		c3,0.3,6-0.4,8.9-0.6c21.6-2.1,43.2-4.3,64.8-6.5c12.8-0.4,25.7,0.1,38.5-0.7c16.6-0.3,33.3-1.6,49.8-2.9c13.7-1.5,27.5-3,40.8-6.5
		c4.3-1.3,8.9-2.3,12.4-5.4c1.2-1,1.4-3,0.2-4.1c-2.7-2.7-6.6-3.8-10.2-4.9c-5.5-1.8-11.3-2.6-17-3.9c11.9-7,23.9-14.9,31.3-26.9
		c6.2-9.6,6.5-22.9,0-32.5C729.3,450.3,723,446.4,716.5,443.4z M515.2,362c-1.6,3.5-4.3,6.5-6.7,9.7c1.7,3,1.4,7.1-0.7,9.8
		c0.8,3.7,1.2,7.6,2.1,10.9c0.4,1.5,0.4,2.9,0.1,4.1c2.2,4.9-0.2,12-7.2,12c-5.8,0-8.5-5-7.9-9.4c-0.4-0.7-0.7-1.4-0.9-2.2
		c-0.6-2.4-0.9-4.9-1.4-7.3c-0.2-1.3-0.7-2.7-0.8-4.1c-0.2-2-1.4-2.4,0.4-1.4c-3.1-1.7-4.9-5.9-3.8-9.3c2.6-8.2,9.1-13.5,12.6-21.1
		C505.4,344,519.6,352.4,515.2,362z"/>
	<g>
		<path d="M565,144.4l0.2,0.1c2.9,0.2,5.8,0.5,8.8,0.7c-6.7-1.7-13.6-3.3-19.5-5.9c7.7,1.4,15.3,3.1,23.3,3.4c-3-1.1-6.3-1.8-9.3-3
			l-0.3,0c-0.4-0.2-1.3-0.6-1.8-0.8c4.9,0.7,9.7,1.7,14.7,2c1.6-1.1,1.5-2.9,2.2-4.3c-1-0.1-1.9-0.3-2.9-0.4
			c-19.2-3.8-37.1-9.7-54.4-15.9c-1.2-0.5-2.3-1.1-3.8-1.1c-0.3,0.5-0.6,1-0.9,1.5c2.6,1.6,5.3,3.2,8.1,4.7c-3.2-0.7-6.1-1.7-9-2.8
			c-1.4,4.3-2.6,8.7-0.5,13C534.2,139.6,549.3,142.8,565,144.4z"/>
		<path d="M610.8,225.7c0.4,1,0.7,1-0.8,1.3c-1.4,0.3-2.8,0.7-4.1,1c-2.8,0.7-5.6,1.3-8.4,1.8c-5.7,1.1-11.5,1.9-17.4,2.4
			c-3.7,0.3-3.6,4.5,0.2,4.2c8-0.7,15.9-1.9,23.7-3.6c3.4-0.7,7.7-1.3,10.6-2.8c2.8-1.4,2.7-3.7,1.9-5.7
			C615.2,221.8,609.7,223.1,610.8,225.7z"/>
		<path d="M515.9,106.2c-1.5-0.5-2.8-1.1-4-1.8c1,1,2.1,1.9,3.2,2.6C515.3,106.7,515.6,106.5,515.9,106.2z"/>
		<path d="M591.8,221.8l0,0.3c1,0.2,2,0.3,3,0.3c0.2,0,0.4,0,0.6-0.1c0.2,0,0.4,0,0.6,0c1.1,0,2.1-0.2,3-0.5l0-0.3
			c6.2-2.3,11.8-8.9,15.4-15.4c0.1-0.4,0.1-0.9,0.1-1.3c0.2,0.2,0.3,0.4,0.5,0.5c-0.3-2.4-1.2-4.5-3.7-5.3c-0.9-0.3-1.5-0.8-2-1.3
			c-1.5-0.4-3.1-0.5-4.4,0c-4,0.2-7.1,1-10.3,1.4c-3.2-0.2-6.4-0.7-10.4-0.5c-0.5-0.1-1-0.2-1.6-0.2c0.1-0.4,0.3-0.8,0.4-1.2
			c0.1-0.3,0.2-0.6,0.3-0.8c-1.6,0.3-2.6,0.7-3.7,1.8c-1.2,1.2-2,2.6-2.9,4.3c-0.3,0.6-0.7,1-1.2,1.3c0.1,0.2,0.2,0.5,0.3,0.7
			c0.3,1.1,0.1,2.2-0.4,3.3c-0.1,0.2-0.1,0.3-0.1,0.5c0,0.3,0,0.6,0,0.9c0,0.3,0,0.6-0.1,0.9c0.5-0.4,0.9-0.9,1.3-1.4
			C580.5,215.2,586,220.2,591.8,221.8z"/>
		<path d="M583,299c0.2,0,0.3,0,0.5,0c0-1.1,0.1-2.2,0.1-3.3c-0.2,0.1-0.4,0.2-0.5,0.3C583,297,583,298,583,299z"/>
		<path d="M633.9,255c1.7-0.3,3-1.1,4-2.2C636.7,253.7,635.4,254.5,633.9,255z"/>
		<path d="M611.8,297.2c0.4-0.8,0.6-1.7,0.9-2.7c0-0.2,0.1-0.4,0.2-0.5c-0.5,0-1.1,0-1.6-0.1C611.4,295,611.6,296.1,611.8,297.2z"/>
		<path d="M590.1,240.7c4-1.2,8.3-1.7,12.8-1.2c1.9-0.5,3.7-1.5,5.3-2.5c-7.4-0.1-16-0.8-22.2,4.3
			C587.2,240.5,588.7,240.6,590.1,240.7z"/>
		<path d="M590.6,247.3c0.6,0.6,1.2,1.2,1.8,1.7c-1.5-1.2-3.3-0.5-5.3,0.6c0.1,0.1,0.2,0.3,0.3,0.5c0.3,0.6,0.5,1.1,0.7,1.7
			c0.1,0,0.1,0,0.2-0.1c-0.1,0-0.1,0.1-0.2,0.1c0.8,2.2,1.2,4.5,1,6.9c0.5,0.2,0.9,0.4,1.3,0.6c3.6,1.4,5,4.4,4.8,8.5
			c0.9,0.6,1.4,1.6,1.4,2.8c0.6,0,1.3,0,1.9,0c0.4-3.1,0.7-6.3,1.6-9.7c0.5,2.4,1.9,3.4,2.4,5.8c1.3-4.9,0.4-9.6,0.1-13.8
			c1.4,1.9,3.5,2.9,5.9,3.4C603.7,251.3,597.6,248.3,590.6,247.3z"/>
		<path d="M563.9,254.9c-1.6-1.3-3.1-3.1-4.5-5c-0.2-0.2-0.3-0.4-0.5-0.6C560.3,251.7,562,253.7,563.9,254.9z"/>
		<path d="M580.4,269.6c-1.2,1.8-1.6,3.9-1.6,6.1C579.4,274,580,271.9,580.4,269.6z"/>
		<path d="M716.5,443.4c2.8-5,5.9-9.7,8.5-14.8c2.4-1.8,5.8-2.6,6.8-5.9c-1.1-1.6-2.1-3.3-2.9-5c2.4-0.5,4.8-1.4,6.9-2.6l-3.9-23.9
			c2.2,0.1,4.3,0,6.4-0.6c-4.2-5.5-8-11.7-8.7-18.7c-0.2-1.2,0.5-2.2,1.1-3.2c0.6-0.8,1.1-1.7,1.7-2.6c-0.3-2-0.6-4.1-0.9-6.1
			c-0.7,0.9-1.3,1.8-2,2.7l0,0.3c-0.2,0.2-0.5,0.7-0.7,0.9c0-0.5,0-1.5-0.1-2.1c-1-1.6-1.3-3.4-1.7-5.1c-1.7-7.4-4.3-14.5-7.4-21.3
			c0.4,0.1,0.9,0.3,1.3,0.4c-0.5-1-1-2-1.4-3c0,0-0.1-0.1-0.1-0.1c0,0,0,0,0.1,0c-0.7-1.5-1.3-3.1-1.9-4.7c-0.2-0.5-0.2-0.9-0.2-1.3
			c-1.4-0.9-2.7-1.8-4-2.7c-6-27.1-19.2-35.5-30-37.6c1.7-2.5-14.3-1.6-26.2-0.6l-1.1-2.8l0,0c16.3-7.4,28.8-20.4,33.1-37.8
			c0.9,0,1.7,0.8,2.6,0.8c2.6-9.8,3.5-20.5,5.1-30.7c0.2-1.7,0.3-3.4,0.4-5.1c4.1-2.8,7.3-6.6,9.3-11.5c3.1-7.8,5.9-15.7,9-23.4
			c0.6-1.6,1.9-3.4,3.4-4.2c2.5-1.4,3.2-3.3,3.2-5.7c0-1.5-0.2-2.9,0-4.4c0.2-1.6-0.2-2.8-1.1-3.5c1.3-1.6,1.5-4.3-0.7-5.8
			c-8.6-6.3-15.3-14.6-20-24.1c-2.1-4.3-8.5-0.5-6.4,3.7c4.6,9.4,11.2,17.5,19.3,24.1c-5.4-0.9-10.8-2-16.3-2.9
			c0.6-10-1.7-18.1-4.6-24.3c2.1-2.1,4.7-3.5,7.3-3.9c4.5-6.8,7.8-14.7,8.9-22.5c0.8-4.6,0.2-8.9-0.3-13.3c-0.9-0.2-1.5-0.3-2.4-0.4
			c0.3-1.9-0.3-3.8-1.8-4.9c-2.9-5.7-8.9-8.6-14-11.3c-2.7,0.6-5.5,1.3-8.2,2.1c-2.7,0.8-5.3,1.8-7.8,3c-1.7,4.2-5.6,5.1-8,4.2
			c-18.9-9.8-38.6-24-59.9-21.3c-11,1.8-21.3-0.9-32.7,1.7c-2.6,0.3-5.2,0.8-7.8,1.5c-15.6,3.9-30.3,13.2-43.1,24.4
			c-1.6,0.9-3.2,0-4.8-0.9c-2.2-0.9-4.5-2.4-6.1-4.7c-2.4-1.8-4.7-2.7-7.6-2c-2.7-0.6-5.5-1-8.3-1.3c-4.9,3.2-10.7,6.6-13.1,12.6
			c-1.4,1.3-1.9,3.2-1.4,5.1c-0.8,0.2-1.5,0.4-2.3,0.6c-0.1,4.4-0.4,8.8,0.7,13.2c2,9.2,7.2,18.2,13.6,25.2c-1.8,4.8-3,10.6-3,17.2
			c-4.5,0.7-8.9,1.6-13.4,2.5c5-5.1,9.8-10.4,14.3-15.9c3-3.7-2.2-9-5.3-5.2c-6,7.3-12.4,14.2-19.2,20.7c-1.5,1.4-1.4,3.2-0.5,4.5
			c-0.9,1.6-0.7,4.1,0.1,8.3c0.2,1.1,1.1,2.4,2.1,3c2.5,1.5,4,3.4,4.9,6c2.3,6.6,4.8,13.1,7.1,19.7c2.7,7.6,7.6,13,14.3,16.4
			c1,8.2,2.3,16.5,4.4,24.6c0.5,2.9,1.1,5.7,1.9,8.5c3.2,11,9.1,21,20.3,28.7c2.4,1.8,5.1,3.4,8.1,4.8l-30.2-2.7
			c-31-3-49.5,20-49.5,20l1,2.4c-4.7,4.4-6.5,8-6.5,8c0,0,0,0,0,0l-11.8,8.6c-2.7,0.7-5.5,0.7-8.3,0.1c-1.3,5,0.7,10,0.2,15.1
			c-0.3,3.4,2.3,6.2,2.5,9.4c-3.3,8.8-4.8,18.2-4.9,27.5l0,0l0,0c0,7.8,1,15.6,2.9,23.1c2,7.2,0.1,14.7-1.8,21.7
			c1.8-0.3,3.5-0.7,5.3-1.1c-0.4,1.8-0.9,3.6-1.4,5.4c2.4-0.2,4.7-1,6.9-1.8c6.6,13.9,15.5,26.7,26.1,37.8c-1.6,2.6-3.7,4.9-4.9,7.8
			c-3.9,8.8-3.4,19.3,1.2,27.7c5.1,9.4,13.5,16.7,22.4,22.5c2.8,2,6.1,3.3,8.7,5.6c-7.6,1.4-15.4,2.8-22.5,6c-1.9,1-4.4,2.2-4.6,4.7
			c0.6,2.4,3,3.4,4.9,4.4c8.5,3.8,17.7,4.9,26.7,6.7c6.7,5.2,13.3,11.1,21.6,13.4c3,0.3,6-0.4,8.9-0.6c21.6-2.1,43.2-4.3,64.8-6.5
			c12.8-0.4,25.7,0.1,38.5-0.7c16.6-0.3,33.3-1.6,49.8-2.9c13.7-1.5,27.5-3,40.8-6.5c4.3-1.3,8.9-2.3,12.4-5.4c1.2-1,1.4-3,0.2-4.1
			c-2.7-2.7-6.6-3.8-10.2-4.9c-5.5-1.8-11.3-2.6-17-3.9c11.9-7,23.9-14.9,31.3-26.9c6.2-9.6,6.5-22.9,0-32.5
			C729.3,450.3,723,446.4,716.5,443.4z M698.1,199.8c0.2-2.5,0.4-4.9,0.5-7.4c0.1-2.5,0.1-5,0.1-7.5c0.3-2.2,0.6-4.5,0.9-6.8
			c0.8-6.8,1.1-13.8-0.4-20.2c7.4,2.4,10,5.9,10,13.5c-0.1,10.3-1.9,20.3-7,29.6c-1.2,2.1-2.7,3.9-4.4,5.4
			C697.8,204.2,698,202,698.1,199.8z M722.3,360.4c-0.8-2.8-1.6-5.8-2.4-9.1C720.8,354.3,721.6,357.3,722.3,360.4z M627,295.8
			c1.4-0.7,2.1,2.1,0.6,2.3C626.5,298,626.3,296.4,627,295.8z M694.1,179.8c-0.3,6.4-1.1,13.1-3.2,19.3c0.1,0.6,0.1,1.1,0.1,1.6
			c-0.1,1.1-0.1,2.2-0.2,3.3c0,0.2,0,0.4,0.1,0.6c0.1,0.7,0,1.3-0.3,1.8c-0.1,0.9-0.2,1.9-0.2,2.8c0,0.5-0.1,0.9-0.1,1.4
			c0,0-0.1,0-0.1,0.1c-8,2.9-16.3,3.8-25.3,3.9c-10.2-0.2-20.5-1.8-30.4-5.5c-5.3-2-9.7-5-12.8-9.5c-1.1-1.5-2.1-3.1-3-4.7
			c1.2,0.7,2.4,1.3,3.7,1.9c-1.9-2.4-4.5-3.8-6.2-6.6c0,0,0-0.1-0.1-0.1c9.6,2.3,14.3,6.8,24,0.5c-1.1,2.8-3,5.2-4.5,7.9
			c3.5-2.2,5.9-6.2,8.9-9.2c-1.4,4.7-4.8,7.7-7.6,11.4c3.8-1.2,6.3-5,9.3-7.6c-0.9,3.2-3.7,5.5-5.6,8.1c8.3-3.1,12-11.1,15.5-18.8
			c2.6-5.6,8.9-2.5,12.6,0.2c-6.7-23.2-33.2-12.8-49.3-9c-2.5,0.7-5.1,1.2-7.7,1.4c-0.1-1-0.2-2-0.2-3c-0.3-6.1,2.7-10.5,8.6-13.2
			c6.3-2.9,12.9-4.4,19.7-5.3c4-0.3,7.9-0.6,11.8-1.1c13.4-0.7,26.7,0.3,39.8,3.3c0.2,0.5,0.3,1.1,0.2,1.8c0,0.2,0,0.4-0.1,0.6
			C694.1,165,694.4,172.7,694.1,179.8z M618,183.1c1.1-1.7,3.3-2.2,5-2.6c6-1.5,12.4-3.3,18.4-4.7c1.9-0.2,3.4-0.6,5.1-0.2
			c1.5,0.7,1.1,2.7,0.1,3.7c-2.7,3.6-7.1,5.9-11.3,7.1c-4.7,1.1-10.1,1.4-14.9-0.4v0C619.4,185.3,617.6,184.7,618,183.1z
			 M700.9,116.6c0-0.4,0.2-1,0.2-1.4c0-1.4,0.5-2.7,1.5-3.4C702.2,113.5,701.6,114.9,700.9,116.6z M486.6,119.4
			c1,0.6,1.6,1.9,1.7,3.3c0,0.4,0.3,1,0.3,1.3C487.8,122.4,487.1,121,486.6,119.4z M484.4,197.1c-3.4-8.6-5.3-17.4-5-26.5
			c0.2-7.1,2.9-10.5,10.2-12.8c0.3-0.1,0.7-0.2,1-0.3c0.1,0.8,0.2,1.6,0.3,2.5c-0.2,0-0.4,0-0.6-0.1c1.8,16.2,2.3,32.6,4,49
			C489.8,206.1,486.4,202.3,484.4,197.1z M487.6,102.1c-0.3-0.5-0.5-1.1-0.8-1.5c-0.5,1.2-0.8,2.3-0.9,3.5c-0.4-1.8-0.5-3.5-0.2-5.4
			c0,0-0.1-0.1-0.2-0.3c0.4-2.2,0.8-5.1,1.5-7.4c-0.4,0.2-1,0.4-1.3,0.4c-0.1-0.1-0.2-0.2-0.4-0.2c2-2.9,4.4-5.4,8-6.5
			c1.9-1,3.9-1.4,5.9-1.4c2,0.1,4,0.6,6,1.3c5.2,2.4,11.5,4.2,13.8,10.4c0.8-0.9,2.4-1.8,3.2-1.8c1.4,1.1,2.2,3.8,2.2,5.5
			c10.6-14.7,25.4-23.5,41.5-27.8c2.7-0.7,5.4-1.3,8.1-1.7c28.4-5.1,66.3-3.3,86.8,22.4c0.8,0.9,3.9-2.7,7.9-2.7
			c0.8,0,1.6-1.8,1.9-3.6c1.7-1,3.5-2.2,5.3-3.4c5.5-3.5,11.5-6.8,17.5-4.2c3.6,0.8,6.2,3.1,8.4,5.8c-0.2,0-0.2,0.2-0.4,0.2
			c-0.3,0-0.9-0.2-1.3-0.3c0.9,2.3,1.5,5.1,2,7.2c-0.1,0.2-0.2,0.3-0.2,0.3c0.4,1.8,0.5,3.6,0.2,5.4c-0.2-1.2-0.5-2.3-1.1-3.4
			c-0.3,0.4-0.5,1-0.7,1.5c-0.7,6.4-2.4,12.6-6,17.7c1.2-3.5,2.9-7.3,3.2-11.1c-2.5,6.4-5.9,13.2-11,17.4c-0.4-0.5-0.8-0.9-1.1-1.3
			c1-1.4,1.8-2.9,2.4-4.5c-1.3,1-2.2,2.2-3.4,3.4c-1-1-1.6-1.5-1.6-1.5l0.6,2.4c-1.8,1.6-3.7,2.7-5.8,3.3c-0.4-0.4-1-0.4-1.5-0.6
			c1.2-0.9,2.4-2.2,3.5-3.5c-1.5,1.2-3.1,2.1-4.9,2.8l-0.8-0.3c0.1,0,0.1-0.1,0.1-0.1c-1,0.3-2.1,1-2.6,1.5l0,0.8
			c1.3-0.9,3.1-1,4.6,0.5c5,5,8.1,12.2,10.7,18.8c0.1,0.2,0.1,0.3,0.2,0.5c0.3-0.2,0.7-0.4,1-0.5c-0.1-1.3,0.1-2.5,0.3-3.7l3.6,15.1
			c-3.5-0.5-7.1-1-10.6-1.4c-4.1-0.4-8.2-0.7-12.3-1c0.2-0.3,0.4-0.6,0.6-0.9c-0.4,0.1-1.2,0.2-1.6,0.3c-4.9-0.2-9.9,0.2-14.8-0.4
			c5.6-0.2,10.9-1.3,16.3-1.9c1.9-0.7,1.4-2.3,1.9-3.4c-2.8,0.8-5.8,1.2-8.7,1.6c-1.6-0.1-3.2,0.2-4.7,0.3c3.9-1.2,8-2.1,11.9-3.3
			c0.7-0.4,1.9-0.6,1.8-1.3c0-2.2-0.1-4.5-1-6.7c-1.6,0.3-3.1,0.7-4.7,1.1c-19.2,4.3-38.8,8.3-59.2,9.8c-0.3,0-1,0-1.3,0
			c0.6,1.8,0,3.9,1.2,5.6c3.2-0.1,6.3,0,9.5,0.2c-2.6,0.6-5.5,0.8-8.2,1.2c-2.2-0.2-1.3,1.3-0.8,2c4.4,0.7,9,0.7,13.4,0.8
			c0,0,0,0,0,0c-4.1,1.1-8.1,2.5-12.2,4.1c-9.1,3.6-19,3.5-28.3-0.1c-16.6-6.3-33.8-9.3-51.4-8.8c-10.9-0.2-21.5,0.7-32,2.2l1.7-7.3
			c0.5,0.4,1,0.9,1.5,1.4c0.1,0.2,0.3,0.4,0.4,0.6c0.3-0.4,0.6-0.7,1-1c2.4-7.1,5.8-14,10.8-19.4c0,0,0,0,0,0
			c-2.5-0.5-4.8-1.7-7-3.5c-0.4-0.3-0.8-0.7-1.2-1l0.9-3.7c0,0-0.9,0.8-2.3,2.4c-0.3-0.3-0.7-0.6-1.1-0.8c0.2,0.4,0.4,0.9,0.7,1.3
			c-0.5,0.6-1.1,1.3-1.7,2.1c-4-3.8-7-9-9.5-14c0.5,3.8,2.6,7.4,4,10.7C490.9,114.5,488.7,108.4,487.6,102.1z M684.2,120.3
			c-0.5,0.3-1,0.6-1.6,0.8c0.4-0.6,0.9-1.2,1.3-1.8L684.2,120.3z M503,124.7l0.5-2.1c1.1,1.5,2.4,2.9,3.6,4.3
			C505.7,126.4,504.3,125.6,503,124.7z M498.5,204.3c0.2,0.4,0.5,0.8,0.7,1.1c0-0.2,0-0.4,0.1-0.6c1.7-7.6-1.4-15.6-2.9-22.9
			c-1.2-6-1.9-12-0.3-17.8c-0.1,0-0.2,0.1-0.3,0.1c0-2.2,0-3.7,0.5-5.5c-0.5-0.1-0.9-0.1-1.4-0.2l0.6-2.3
			c11.2-2.8,22.7-3.6,34.4-3.9c11.5,0.4,23.1,1.1,34.2,4.9c1.6,0.5,3.1,1.2,4.6,1.9c6,2.7,8.9,7.3,8.4,13.3
			c-0.1,0.9-0.2,1.8-0.3,2.7c-2.6-0.2-5.1-0.7-7.6-1.4c-16.2-3.8-42.6-14.3-49.3,9c3.8-2.7,10-5.8,12.6-0.2
			c3.5,7.7,7.2,15.7,15.5,18.8c-1.9-2.6-4.7-4.9-5.6-8.1c3,2.6,5.4,6.3,9.3,7.6c-2.8-3.8-6.2-6.7-7.6-11.4c3,3,5.5,6.9,8.9,9.2
			c-1.5-2.6-3.4-5-4.5-7.9c9.7,6.4,14.4,1.8,24-0.5c-1.7,2.9-4.4,4.3-6.3,6.7c1.3-0.6,2.5-1.3,3.8-1.9c-1.9,3-4.1,5.9-6.7,8.7
			c-4.3,4.5-10.4,6.3-16.4,7.9c-14.9,3.9-29.9,4.4-45,0.4c-0.9-0.2-1.7-0.5-2.5-0.8C499,208.8,498.7,206.5,498.5,204.3z
			 M568.2,185.9L568.2,185.9c-4.8,1.8-10.2,1.5-14.9,0.4c-4.2-1.2-8.6-3.5-11.3-7.1c-0.9-1-1.3-3,0.1-3.7c1.7-0.4,3.2,0,5.1,0.2
			c6,1.4,12.4,3.2,18.4,4.7c1.7,0.4,3.9,0.8,5,2.6C571,184.7,569.2,185.3,568.2,185.9z M509.5,248.4c-1.1-2.6-2-5.3-2.8-8.1
			c-2.1-8.7-4.9-17.1-6.7-25.6c1.8,0.6,3.7,1.1,5.7,1.5c15.1,3,30.1,1.3,44.9-1.7c11.4-2.3,20.2-9.6,24.2-20c0.3-0.9,0.7-1.8,1-2.6
			c0.7-0.3,1.4-0.6,2.1-0.8c0.2-0.1,0.4-0.2,0.6-0.3c2.2-4.9,3.2-10.1,3.4-15.3c0.2-0.5,0.4-1,0.5-1.6c1.5-4.3,3.5-6.1,8.4-6.5
			c1.5-0.1,3-0.1,4.5-0.1c7.1,0.1,9.3,1.9,11.3,8.2c0,0.1,0.1,0.3,0.1,0.4c0.2,5,1.2,10,3.3,14.8c0.2,0.1,0.4,0.2,0.6,0.3
			c0.3,0.1,0.7,0.2,1,0.4c0.6,1.6,1.3,3.2,2.1,4.7c5.1,10,12,14.6,23.9,18.2c9.1,2.8,17.7,3.8,27.3,3.8c7.4,0,15.6-1,22.5-3.2
			c0.9-0.3,1.7-0.6,2.6-0.9c-0.1,0.9-0.2,1.7-0.3,2.6c-0.5,28.5-17.2,56.4-48,64.9c-1.4,0.8-3.1,1.7-4.9,2.7
			c-5.5,3-11.7,6.4-11.7,6.4c-1-2.2-2.1-4.3-3.2-6.4c0.1,0.1,0.1,0.1,0.2,0.2c5-5.1,10.9-9.7,14.2-15.5c1.9-2.4,3.6-5,5.1-7.6
			c4.3-7.8,6.2-16.9,2.3-28.5c-1.4-3.1-2.8-5.9-4.1-8.6c-1.1-2.1-2.2-4.6-3.5-6.8c-1.3-2.2-2.9-4-5.1-4.7c1.2,1.6,2.5,3.7,3.7,6.1
			c2.5,4.8,4.8,10.8,5.8,16.5c0.5,2.9,0.7,5.7,0.5,8.3c-0.5,2.9-1,6.7-3.3,9.1c1.6-1.1,3-2.4,4.5-3.7c-5.4,11.8-10.7,30.3-21.3,33
			c-0.6-1.1-1.1-2.2-1.7-3.3c0.7,5.4,1.8,10.7,2.5,16c0.8,1.9,0.8,4,0.4,6.1c-2.1,1.3-4.1,2.6-6.1,3.9c0,0.3,0,0.6,0,0.9
			c0,3.4-3.8,4.4-6,2.9c-0.6,0.4-1.1,0.7-1.7,1l-5.3-16.1l1.9,18.2c-2.7,1.7-5.5,3.3-8.3,5c-1,0.6-2.2,0.9-3.3,1.4l0,0.2
			c-0.5,0.2-1.5,0.5-2,0.6c-2.6-1.5-5.1-3.3-7.7-4.8c0-0.4,0-0.8-0.1-1.2c-1.1,0.4-2.3,0.4-3.3-0.1l2.3-22.6l-4.4,20.4
			c-3.4-2.4-7-4.7-10.3-7.3c-1-2.9-0.3-6.2-0.8-9.3c-0.8,2.4-1.5,4.8-2.2,7.2c-0.9-0.8-2.5-1.2-2.3-2.6c0-6.5,1-12.8,2.1-19.2
			c0,0,0-0.1,0.1-0.1c0,0,0,0,0,0c0.5-2.9,1.1-5.8,1.6-8.8c-0.3-0.1-0.8-0.2-1-0.2c-1,2.5-1.8,5-2.6,7.6c-0.1,0-0.1-0.1-0.2-0.1
			c-5.4-4.9-9-11-11-18.1c-0.9-2.4-1.7-4.9-2.5-7.4c-0.7-2.5-1.4-5-2.1-7.4c1.6,1.1,3,2.7,4.4,4.3c-0.1-0.2-0.3-0.4-0.4-0.6
			c-1.6-2.7-2.8-6.1-3.2-9.7c-1-8.5,1.5-18.1,5.9-24c-3.6-1.3-7.1,2.3-7.9,7.1c0.9-1.2,1.7-2.4,2.6-3.6c-1.6,9.6-9.5,16.7-6.7,27.6
			l0.9-1.2c2.7,4.8,5.3,9.5,4.7,15.3c0.2-0.8,0.8-0.9,0.8-2c0.8,2.6,1.9,5,3.2,7.3c3.1,4.9,7.2,9.9,10.7,15.2
			c-0.7,2.4-1.4,4.8-2.1,7.2l0,0.9c-2.4-1.3-4.8-2.7-7.1-4.2c0.1-0.6,0.2-1.1,0.3-1.7c-1.6,0.4-3.6-0.1-4.8-1.3c0,0,0,0.1-0.1,0.1
			c-2.2-1.2-4.4-2.4-6.5-3.6c-3.5-0.9-6.7-2.1-9.5-3.5c-2.8-1.4-5.3-3.1-7.4-5C517.6,263.6,512.8,256.3,509.5,248.4z M583.1,318.4
			l-3.1-2.1l0.1-1.4c0.6,0.3,1.1,0.7,1.5,1.4C582.1,317.1,582.6,317.7,583.1,318.4z M518.7,430.2c4,5.3,2.6,20.9,2.6,20.9
			c-0.6,3.1-2.2,7.1-6,7.1c-3.2,0.2-5-2.9-5.7-5.5c-1.7-6.1-2-12.6-1-18.8c0.4-1.3,1.2-2.9,2.3-3.8c0.6-0.2,1.2-0.4,2-0.8
			C514.8,429.1,517,429.1,518.7,430.2z M493.5,368l18-15.6c-0.1,1-0.3,1.9-0.4,2.9c-0.6,5.1-4.1,9.1-7.2,12.9c1.7,0.4,3.4,0.7,5.1,1
			c-0.5,3.2-2.8,5.5-4.6,7.9c1.2,0.3,2.4,0.6,3.6,1c-1.5,9.7-3.4,19.3-5.8,28.8c-1.1-1.6-2.1-3.3-2.9-5.1c-3.9-8.1-7.5-16.4-10.2-25
			L493.5,368z M430.7,321.8l6.8,8.5c-3.3-2.2-6.8-4.6-8.2-8.5C429.8,321.7,430.3,321.8,430.7,321.8z M437.4,406.8
			c-5.3-12.1-8.9-25.3-9.1-38.6l53.8,7.5c2.4,7.7,5.5,15.3,8.8,22.7c4.5,9.9,9.5,19.6,15.4,28.7c0,0.2,0.1,0.4,0.1,0.6
			c-0.2,0.6-0.6,1.5-0.8,2c-0.1,0.4-0.2,1.3-0.3,1.8c-1.3-1.9-2.6-4.1-4.8-5.1c-1.9-1.1-4.2-1.1-6.3-1.3c-5.9,0.2-11.3,4-13.3,9.6
			c-2-2.3-4.7-4.4-7.9-4.5c-3.3-0.3-6.3,1.4-8.8,3.4c-2.8,2.8-3.5,6.7-3.4,10.5C451.5,432.6,443.2,420.3,437.4,406.8z M503.1,446.6
			c-0.1,4.2,0.2,8.6-1.9,12.4c-1.3,2.8-4.3,5-7.5,4.8c-3.9-0.7-6-4.6-6.3-8.2c-0.9-5.8-2.9-11.5-3-17.4c0.9-3.4,2.9-6.8,6.4-7.9
			c4.2-2,9.6,0.2,11.2,4.5C503.3,438.6,503.1,442.7,503.1,446.6z M482.9,459.5c-0.1,5.1-6.4,8-10.5,5.3c-5.8-3.8-7-11.4-7.9-17.7
			c0-4.5,1.9-9.4,6.3-11.2c3.2-0.7,6.3,1.3,8.1,3.9C481.1,446.1,482.3,452.8,482.9,459.5z M458,473.4c0-3.9,0.7-7.7,2.2-11.3
			l0.1,0.3C458.9,465.9,458.1,469.6,458,473.4z M476.9,471.4c-6.7,1-10.7-5.8-13.8-10.9c-0.1-0.4-0.2-1.2-0.3-1.6
			c-0.9,1-1.7,2.1-2.5,3.1l-0.1-0.3c0.8-1.1,1.7-2.1,2.6-3.1c0.1,0.4,0.2,1.2,0.3,1.6c3.1,4.8,7.1,11.4,13.8,10.4
			c4.8,0,7.6-4.4,9-8.5c3.1,6.8,13.8,7.1,17.9,1.2c1.3-2.1,2-4.6,2.9-6.9c2.2,4.2,7.1,7.2,11.9,5.7c2.7-0.7,4.4-3,5.6-5.3
			c0.9,0.3,1.8,0.6,2.7,0.9c1.9,0.6,3.7,1.2,5.6,1.9c0.2,0.2,0.3,0.3,0.5,0.5c-2-0.7-4.1-1.4-6.1-2.1c-0.9-0.3-1.8-0.6-2.7-1
			c-1.2,2.4-2.9,4.9-5.6,5.6c-4.7,1.6-9.7-1.6-11.9-6c-0.9,2.4-1.6,5-2.9,7.2c-4.1,6.3-14.8,6-17.9-1.2
			C484.6,466.7,481.7,471.5,476.9,471.4z M482,506.2c-0.5-2-0.7-4-0.8-6l-0.4-0.3c0.1-0.7,0.1-1.4,0.2-2.1l0.2,0.1
			c0.1,3.1,0.7,6.1,1.7,9C482.6,506.6,482.3,506.4,482,506.2z M568.2,537.8c0.2-0.9,0.3-1.8,0.5-2.8c-1.7,0.7-3.4,0.8-5,0.6
			c0,0.3-0.1,0.7-0.1,1c-11.7,2.8-23.6,4.6-35.5,6.4c-4.2,0.4-8.5,1.6-12.7,1.1c-3.1-1.4-5.9-3.6-8.1-6.2c1.9-0.8,3.9-1.6,5.9-2.3
			c1.2-0.6,2.5-1.3,3.7-1.9c-1.5,0.3-3,0.5-4.6,0.8c-2.3,0.3-4.6,1.1-6.9,0.8c-1.7-2.1-2.6-4.6-3.7-7.1c2-0.9,4.1-1.8,6.2-2.5
			c0.6-0.3,1.3-0.7,1.9-1c-0.6,0-1.9-0.1-2.5-0.1c-2.2,0.2-4.3,0.9-6.5,0.6c-1.2-2.8-1.4-5.8-1.5-8.8c2.2-0.2,4.4-0.6,6.6-0.7
			c2.1-0.2,4.3-0.3,6.3-1c-3.2-1-6.5-1.2-9.8-1.4c-1.2,0.2-1.8-0.9-2.4-1.7c-2.7-4.4-5.1-9.1-6.6-14c-0.4,5.3,0.7,10.6,2.8,15.4
			c-4.7-0.5-8.3-4.3-9.9-8.4c-1.7-3.8-1.9-8.1-1.5-12.2c0.2-3.1,3.1-5.8,6.2-5.6c2.8-0.3,5.6,0.3,8.3,0.7c6.5,0.8,13,1.6,19.5,2.4
			c9,1.5,18.2,1.3,27.3,1.8c0.3,0,0.8,0,1.1,0.1c2.3-0.3,4.7-0.3,7,0c0.1,0.4,0.2,0.8,0.3,1.1h6.3c-0.6-1.2-1.1-2.5-1.3-3.8
			c11.9,0.5,23.3-2.9,34.6-6.3c-5.4,5-12.1,8.3-18.9,11.2c-1.8,0.8-3.5,2.2-4.1,4.1c-0.5,2.3,1.1,4.2,2.7,5.6
			c3.7,3,8.3,4.4,12.9,5.1c4.2,0.4,8.6,0.4,12.8-0.3c2.1,7.6,3,15.5,3,23.4l1,0.7C591.7,533.3,579.9,535.2,568.2,537.8z
			 M662.1,485.7c-0.6-0.4-1.7-1.2-2.3-1.6c-0.8-0.8-1.5-1.7-2.2-2.6c-0.8,1.2-1.7,2.3-2.5,3.5c0.9,1.7,2,3.3,3,5
			c-1.3,4.8-3.4,9.3-5.8,13.6c-0.5,1-1.2,2.1-0.7,3.2c1.5,5.9,3.3,11.7,4.6,17.7c0.5-1.4,1-2.8,1.4-4.2c2.3,0,5.1-0.8,7.2,0.6
			c2.2,2.6,2.5,6.4,1.9,9.6c-4,1.6-8.1,2.7-12.3,3.8c-4.2,1.2-10,2.7-13.3-1c-0.9-7.4-1.5-15.4-6.7-21.2c0,0.3-0.1,1-0.2,1.4
			c1.9,3.3,1.6,7.2,2.1,10.9c0.3,2.6,0.4,5.2,0.1,7.8c-2.9,0.8-6,1.1-9.1,0.7c-0.9-0.1-1.8-0.2-2.7-0.2c-0.4-7.5-1.1-15.4-5.4-21.7
			c0.2,1.5,0.5,2.9,0.5,4.4c1.5,4.2,0.6,8.8,0.8,13.2c-0.2,1.6,0.3,3.7-0.9,4.9c-3.9,0.4-8.2,0.4-11.4-2.2c-0.5-0.7-1-1.3-1.5-2
			c-0.8-9.1-1.1-18.6-4.9-27.2c-1.1-2.5-2.9-4.6-4.6-6.6c-0.3,0.2-0.9,0.5-1.2,0.7l0.2,0.3c1.3,2.5,2.1,5.3,2.5,8.1
			c-6.7,1.6-14.7,1.8-20.3-2.8c-1.6-0.8-2.3-3.6,0-4c9.9-2.8,18.7-9.5,23.7-18.5c1.1-2.5,2.3-4.9,3.5-7.3c0.8,0,1.6-0.1,2.4-0.2
			c0.5-1.1,1.2-2.2,1.8-3.3c-0.1-0.4-0.2-0.8-0.2-1.2c0-0.4,0-0.8,0.2-1.2c-1.2,0.2-2.4,0.4-3.6,0.6c0.6-1.5,1.2-3,2.2-4.2
			c6.1-11.5,15.5-20.8,25.3-29.1c12.5-10.5,26.4-19.4,40.6-27.5c5.3-2.8,10.5-6.5,16.6-6.9l38.2,13.6c-2.2,0.4-4.5,0.8-6.7,0.2
			c-0.7,0-2.2,0.1-2.9,0.2c1.5,1.1,3.2,1.9,4.9,2.5c0.7,2,1.6,4,2.7,5.8c-2.2,2.6-5.7,3.3-8.9,3.7l-0.5,0.9c0.5,0.1,1.5,0.3,2,0.3
			C707.3,451.5,686.8,472.5,662.1,485.7z"/>
	</g>
</g>
<g>
	<path d="M65.4,423.5l5.9-8.6c1.5,1.3,3.2,2.4,5.2,3.3c2,0.9,4,1.4,5.9,1.4c1.5,0,2.7-0.3,3.5-0.9c0.8-0.6,1.3-1.4,1.3-2.3
		c0-1-0.5-1.9-1.5-2.7c-1-0.8-2.3-1.5-3.8-2.1c-1.5-0.6-3.1-1.3-4.9-2.2c-1.8-0.9-3.4-1.8-4.9-2.8c-1.5-1-2.8-2.3-3.8-4.1
		c-1-1.7-1.5-3.7-1.5-6c0-4.2,1.6-7.6,4.7-10.2c3.1-2.6,7.1-3.9,12-3.9c5.7,0,10.5,1.7,14.4,5.2l-4.8,9.2c-1.3-1.2-2.9-2.1-4.8-2.9
		c-1.8-0.8-3.6-1.2-5.4-1.2c-1.6,0-2.9,0.3-3.7,0.9c-0.8,0.6-1.2,1.4-1.2,2.4s0.5,1.9,1.5,2.7c1,0.8,2.3,1.5,3.8,2
		c1.5,0.5,3.1,1.2,4.9,2.1c1.8,0.8,3.4,1.7,4.9,2.7c1.5,1,2.8,2.3,3.8,4.1c1,1.7,1.5,3.7,1.5,6c0,4.1-1.4,7.5-4.3,10.2
		c-2.9,2.7-6.9,4.1-12,4.1c-3.1,0-6.1-0.6-9-1.7C70.1,427.3,67.5,425.6,65.4,423.5z"/>
	<path d="M103,406c0-6.7,2.3-12.3,6.8-16.8c4.5-4.5,10.3-6.7,17.3-6.7c7,0,12.8,2.2,17.3,6.7c4.5,4.5,6.8,10.1,6.8,16.8
		c0,6.9-2.3,12.6-6.8,17.2c-4.5,4.6-10.3,6.9-17.3,6.9c-7,0-12.8-2.3-17.3-6.9C105.3,418.6,103,412.9,103,406z M114.6,406
		c0,3.9,1.2,7.2,3.5,9.8c2.3,2.6,5.3,3.9,8.9,3.9s6.6-1.3,8.9-3.9c2.3-2.6,3.5-5.9,3.5-9.8c0-3.8-1.2-6.9-3.5-9.4
		c-2.3-2.5-5.3-3.8-8.9-3.8s-6.6,1.3-8.9,3.8C115.8,399.1,114.6,402.2,114.6,406z"/>
	<path d="M155.8,406.2c0-6.8,2.3-12.4,6.8-16.9c4.5-4.5,10.3-6.8,17.3-6.8c3.2,0,6.3,0.5,9.4,1.6c3,1.1,5.7,2.7,7.8,4.9l-5.2,8.5
		c-1.5-1.4-3.4-2.5-5.4-3.4c-2.1-0.9-4.1-1.3-6.1-1.3c-4.3,0-7.5,1.3-9.7,3.8c-2.2,2.6-3.3,5.6-3.3,9.3c0,3.7,1.1,7,3.4,9.7
		c2.3,2.7,5.5,4.1,9.6,4.1c4.4,0,8.4-1.9,12.2-5.7l5.8,8.2c-5,5.1-11.1,7.7-18.5,7.7c-7.3,0-13.1-2.2-17.5-6.7
		C158,418.9,155.8,413.1,155.8,406.2z"/>
	<path d="M204.2,429.3v-46h11.3v46H204.2z"/>
	<path d="M220,429.3l15.6-46h11.8l15.6,46h-11.6l-2.8-9.6h-14.3l-2.8,9.6H220z M237,410.6h9.1l-2.6-8.9l-1.9-7.9h-0.1
		c-0.7,3.3-1.3,6-1.9,7.9L237,410.6z"/>
	<path d="M267.8,429.3v-46H279v36.3h18.8v9.6H267.8z"/>
</g>
<g>
	<path d="M286.5,412l2.4-29.4h7.8L301,395l1.5,4.8h0.1c0.5-2,1-3.6,1.5-4.8l4.3-12.4h7.8l2.4,29.4h-7.2l-0.9-13.2
		c-0.1-0.7-0.1-1.4-0.1-2.2s0-1.5,0-2l0-0.7h-0.1c-0.7,2.1-1.2,3.7-1.6,4.9l-3.1,8.5h-6.2l-3.1-8.5l-1.6-4.9h-0.1
		c0.1,1.8,0.1,3.4,0,4.9l-0.9,13.2H286.5z"/>
	<path d="M323.6,412v-29.4H342v6.2h-11.2v5.3h9v6.2h-9v5.5h11.8v6.2H323.6z"/>
	<path d="M347.1,412v-29.4h10.4c4.7,0,8.3,1.3,11.1,3.9s4.1,6.2,4.1,10.7c0,4.6-1.4,8.2-4.1,10.8s-6.4,3.9-11.1,3.9H347.1z
		 M354.3,405.8h3c2.5,0,4.5-0.7,5.9-2.2c1.4-1.5,2.1-3.6,2.1-6.4c0-2.7-0.7-4.8-2.1-6.3c-1.4-1.5-3.4-2.2-5.9-2.2h-3V405.8z"/>
	<path d="M377.4,412v-29.4h7.2V412H377.4z"/>
	<path d="M387.5,412l10-29.4h7.6l10,29.4h-7.4l-1.8-6.2h-9.2l-1.8,6.2H387.5z M398.4,400.1h5.8l-1.6-5.7l-1.2-5.1h-0.1
		c-0.4,2.1-0.8,3.8-1.2,5.1L398.4,400.1z"/>
</g>
<path d="M416.2,424.5h-101c-6.4,0-6.4,5,0,5h101C422.6,429.5,422.6,424.5,416.2,424.5z"/>
<g>
	<path d="M80.1,463.4c0-2.4,0.8-4.3,2.3-5.9c1.6-1.6,3.5-2.4,5.9-2.4c2.4,0,4.4,0.7,5.9,2.2l-1.4,2.2c-0.6-0.5-1.3-0.9-2.1-1.2
		c-0.8-0.3-1.6-0.5-2.3-0.5c-1.7,0-3,0.5-4,1.6c-1,1.1-1.4,2.4-1.4,3.9c0,1.6,0.5,2.9,1.5,4.1c1,1.1,2.3,1.7,4,1.7
		c1.7,0,3.3-0.7,4.7-2l1.5,2.1c-1.7,1.7-3.8,2.6-6.3,2.6c-2.5,0-4.5-0.8-6-2.4C80.9,467.8,80.1,465.8,80.1,463.4z"/>
	<path d="M95.9,463.3c0-2.3,0.8-4.3,2.3-5.9c1.6-1.6,3.6-2.4,6-2.4s4.4,0.8,6,2.4c1.6,1.6,2.3,3.5,2.3,5.9c0,2.4-0.8,4.4-2.3,6
		c-1.6,1.6-3.6,2.4-6,2.4s-4.4-0.8-6-2.4C96.7,467.7,95.9,465.7,95.9,463.3z M98.9,463.3c0,1.6,0.5,3,1.5,4.1c1,1.1,2.3,1.6,3.8,1.6
		s2.8-0.5,3.8-1.6s1.5-2.5,1.5-4.1c0-1.6-0.5-2.9-1.5-3.9c-1-1.1-2.3-1.6-3.8-1.6s-2.8,0.5-3.8,1.6
		C99.4,460.5,98.9,461.8,98.9,463.3z"/>
	<path d="M115.5,471.5v-16.1h2.9l6.1,9.3c0.2,0.3,0.4,0.6,0.6,1.1c0.2,0.4,0.4,0.8,0.5,1l0.2,0.4h0c-0.1-1-0.2-1.9-0.2-2.5v-9.3h2.9
		v16.1h-2.9l-6.1-9.3c-0.2-0.3-0.4-0.6-0.6-1.1c-0.2-0.4-0.4-0.8-0.5-1l-0.2-0.4h0c0.1,1,0.2,1.9,0.2,2.5v9.3H115.5z"/>
	<path d="M132.6,471.5v-16.1h9.6v2.5h-6.7v4.2h5.4v2.5h-5.4v4.3h7.1v2.5H132.6z"/>
	<path d="M144.2,463.4c0-2.4,0.8-4.3,2.3-5.9c1.6-1.6,3.5-2.4,5.9-2.4c2.4,0,4.4,0.7,5.9,2.2l-1.4,2.2c-0.6-0.5-1.3-0.9-2.1-1.2
		c-0.8-0.3-1.6-0.5-2.3-0.5c-1.7,0-3,0.5-4,1.6c-1,1.1-1.4,2.4-1.4,3.9c0,1.6,0.5,2.9,1.5,4.1c1,1.1,2.3,1.7,4,1.7
		c1.7,0,3.3-0.7,4.7-2l1.5,2.1c-1.7,1.7-3.8,2.6-6.3,2.6c-2.5,0-4.5-0.8-6-2.4C145,467.8,144.2,465.8,144.2,463.4z"/>
	<path d="M165.1,471.5v-13.6h-5.3v-2.5h13.5v2.5H168v13.6H165.1z"/>
	<path d="M172.4,471.5l5.6-16.1h3.1l5.6,16.1h-3l-1.4-4.1h-5.6l-1.4,4.1H172.4z M177.5,465h4.2l-1.4-4.3l-0.6-2.5h0
		c-0.2,1.1-0.5,1.9-0.6,2.5L177.5,465z"/>
	<path d="M188.3,471.5l1.3-16.1h3.1l3.2,8l0.8,2.4h0c0.3-0.9,0.6-1.7,0.8-2.4l3.2-8h3.1l1.3,16.1h-2.9l-0.7-9c0-0.3,0-0.7,0-1.1
		c0-0.4,0-0.8,0-1V460h0c-0.3,1-0.6,1.9-0.9,2.5l-2.6,6.2h-2.5l-2.6-6.2L192,460h0c0,1,0,1.8,0,2.5l-0.7,9H188.3z"/>
	<path d="M207.5,463.3c0-2.3,0.8-4.3,2.3-5.9c1.6-1.6,3.6-2.4,6-2.4s4.4,0.8,6,2.4c1.6,1.6,2.3,3.5,2.3,5.9c0,2.4-0.8,4.4-2.3,6
		c-1.6,1.6-3.6,2.4-6,2.4s-4.4-0.8-6-2.4C208.3,467.7,207.5,465.7,207.5,463.3z M210.5,463.3c0,1.6,0.5,3,1.5,4.1
		c1,1.1,2.3,1.6,3.8,1.6s2.8-0.5,3.8-1.6c1-1.1,1.5-2.5,1.5-4.1c0-1.6-0.5-2.9-1.5-3.9c-1-1.1-2.3-1.6-3.8-1.6s-2.8,0.5-3.8,1.6
		C211,460.5,210.5,461.8,210.5,463.3z"/>
	<path d="M225.8,469.6l1.6-2.2c0.5,0.5,1.2,0.9,1.9,1.2c0.7,0.3,1.4,0.5,2.1,0.5c0.7,0,1.3-0.2,1.7-0.5c0.4-0.3,0.6-0.8,0.6-1.3
		c0-0.6-0.3-1-0.8-1.5c-0.5-0.4-1.1-0.8-1.9-1.1c-0.7-0.3-1.5-0.6-2.2-1c-0.7-0.4-1.4-0.9-1.9-1.5c-0.5-0.7-0.8-1.5-0.8-2.4
		c0-1.4,0.5-2.5,1.6-3.4c1-0.9,2.3-1.3,3.9-1.3c1.9,0,3.5,0.6,4.7,1.7l-1.3,2.4c-0.5-0.4-1-0.7-1.6-1c-0.6-0.3-1.3-0.4-1.9-0.4
		c-0.7,0-1.3,0.2-1.8,0.5c-0.4,0.3-0.7,0.8-0.7,1.3c0,0.5,0.3,1,0.8,1.4c0.5,0.4,1.1,0.7,1.9,1c0.7,0.3,1.5,0.6,2.2,1
		c0.7,0.4,1.4,0.9,1.9,1.5c0.5,0.7,0.8,1.5,0.8,2.4c0,1.4-0.5,2.5-1.4,3.4c-1,0.9-2.3,1.4-3.9,1.4c-1,0-2-0.2-3-0.6
		C227.4,470.8,226.5,470.3,225.8,469.6z"/>
	<path d="M248.2,471.5v-13.6H243v-2.5h13.5v2.5h-5.3v13.6H248.2z"/>
	<path d="M258.5,465.7v-10.3h2.9v10.3c0,1.1,0.3,1.9,1,2.5c0.6,0.6,1.5,0.9,2.6,0.9c1.1,0,2-0.3,2.6-0.9c0.6-0.6,1-1.4,1-2.5v-10.3
		h2.9v10.3c0,1.8-0.6,3.3-1.8,4.4c-1.2,1.1-2.7,1.7-4.7,1.7c-2,0-3.5-0.6-4.7-1.7C259.1,469,258.5,467.5,258.5,465.7z"/>
	<path d="M280.9,471.5v-16.1h2.9l6.1,9.3c0.2,0.3,0.4,0.6,0.6,1.1c0.2,0.4,0.4,0.8,0.5,1l0.2,0.4h0c-0.1-1-0.2-1.9-0.2-2.5v-9.3h2.9
		v16.1h-2.9l-6.1-9.3c-0.2-0.3-0.4-0.6-0.6-1.1c-0.2-0.4-0.4-0.8-0.5-1l-0.2-0.4h0c0.1,1,0.2,1.9,0.2,2.5v9.3H280.9z"/>
	<path d="M297.9,471.5v-16.1h9.6v2.5h-6.7v4.2h5.4v2.5h-5.4v4.3h7.1v2.5H297.9z"/>
	<path d="M309.6,463.4c0-2.3,0.8-4.3,2.4-5.9c1.6-1.6,3.6-2.4,5.9-2.4c2.4,0,4.4,0.7,6,2l-1.5,2.2c-0.5-0.5-1.1-0.8-2-1.1
		c-0.8-0.3-1.6-0.4-2.3-0.4c-1.7,0-3.1,0.5-4.1,1.6c-1,1.1-1.5,2.4-1.5,3.9c0,1.7,0.5,3.1,1.5,4.2c1,1.1,2.3,1.6,3.9,1.6
		c1.5,0,2.9-0.6,4-1.7v-1.9h-2.5V463h5.1v8.5h-2.5v-0.8l0-0.7h0c-0.5,0.5-1.2,0.9-2.1,1.2c-0.8,0.3-1.7,0.5-2.6,0.5
		c-2.2,0-4.1-0.8-5.6-2.3C310.4,467.9,309.6,465.9,309.6,463.4z"/>
	<path d="M326.9,463.3c0-2.3,0.8-4.3,2.3-5.9c1.6-1.6,3.6-2.4,6-2.4c2.4,0,4.4,0.8,6,2.4c1.6,1.6,2.3,3.5,2.3,5.9
		c0,2.4-0.8,4.4-2.3,6c-1.6,1.6-3.6,2.4-6,2.4c-2.4,0-4.4-0.8-6-2.4C327.7,467.7,326.9,465.7,326.9,463.3z M330,463.3
		c0,1.6,0.5,3,1.5,4.1c1,1.1,2.3,1.6,3.8,1.6s2.8-0.5,3.8-1.6s1.5-2.5,1.5-4.1c0-1.6-0.5-2.9-1.5-3.9c-1-1.1-2.3-1.6-3.8-1.6
		s-2.8,0.5-3.8,1.6C330.5,460.5,330,461.8,330,463.3z"/>
	<path d="M345.6,463.4c0-2.4,0.8-4.3,2.3-5.9c1.6-1.6,3.5-2.4,5.9-2.4c2.4,0,4.4,0.7,5.9,2.2l-1.4,2.2c-0.6-0.5-1.3-0.9-2.1-1.2
		c-0.8-0.3-1.6-0.5-2.3-0.5c-1.7,0-3,0.5-4,1.6c-1,1.1-1.4,2.4-1.4,3.9c0,1.6,0.5,2.9,1.5,4.1c1,1.1,2.3,1.7,4,1.7
		c1.7,0,3.3-0.7,4.7-2l1.5,2.1c-1.7,1.7-3.8,2.6-6.3,2.6c-2.5,0-4.5-0.8-6-2.4C346.4,467.8,345.6,465.8,345.6,463.4z"/>
	<path d="M362.8,471.5v-16.1h2.9v16.1H362.8z"/>
	<path d="M368.7,463.3c0-2.3,0.8-4.3,2.3-5.9c1.6-1.6,3.6-2.4,6-2.4c2.4,0,4.4,0.8,6,2.4c1.6,1.6,2.3,3.5,2.3,5.9
		c0,2.4-0.8,4.4-2.3,6c-1.6,1.6-3.6,2.4-6,2.4c-2.4,0-4.4-0.8-6-2.4C369.4,467.7,368.7,465.7,368.7,463.3z M371.7,463.3
		c0,1.6,0.5,3,1.5,4.1c1,1.1,2.3,1.6,3.8,1.6s2.8-0.5,3.8-1.6s1.5-2.5,1.5-4.1c0-1.6-0.5-2.9-1.5-3.9c-1-1.1-2.3-1.6-3.8-1.6
		s-2.8,0.5-3.8,1.6C372.2,460.5,371.7,461.8,371.7,463.3z"/>
	<path d="M80.1,490.6c0-2.4,0.8-4.3,2.3-5.9c1.6-1.6,3.5-2.4,5.9-2.4c2.4,0,4.4,0.7,5.9,2.2l-1.4,2.2c-0.6-0.5-1.3-0.9-2.1-1.2
		c-0.8-0.3-1.6-0.5-2.3-0.5c-1.7,0-3,0.5-4,1.6c-1,1.1-1.4,2.4-1.4,3.9c0,1.6,0.5,2.9,1.5,4.1c1,1.1,2.3,1.7,4,1.7
		c1.7,0,3.3-0.7,4.7-2l1.5,2.1c-1.7,1.7-3.8,2.6-6.3,2.6c-2.5,0-4.5-0.8-6-2.4C80.9,495,80.1,493,80.1,490.6z"/>
	<path d="M95.9,490.6c0-2.3,0.8-4.3,2.3-5.9c1.6-1.6,3.6-2.4,6-2.4s4.4,0.8,6,2.4c1.6,1.6,2.3,3.5,2.3,5.9c0,2.4-0.8,4.4-2.3,6
		c-1.6,1.6-3.6,2.4-6,2.4s-4.4-0.8-6-2.4C96.7,495,95.9,492.9,95.9,490.6z M98.9,490.6c0,1.6,0.5,3,1.5,4.1c1,1.1,2.3,1.6,3.8,1.6
		s2.8-0.5,3.8-1.6s1.5-2.5,1.5-4.1c0-1.6-0.5-2.9-1.5-3.9c-1-1.1-2.3-1.6-3.8-1.6s-2.8,0.5-3.8,1.6C99.4,487.7,98.9,489,98.9,490.6z
		"/>
	<path d="M115.5,498.7v-16.1h2.9l6.1,9.3c0.2,0.3,0.4,0.6,0.6,1.1c0.2,0.4,0.4,0.8,0.5,1l0.2,0.4h0c-0.1-1-0.2-1.9-0.2-2.5v-9.3h2.9
		v16.1h-2.9l-6.1-9.3c-0.2-0.3-0.4-0.6-0.6-1.1c-0.2-0.4-0.4-0.8-0.5-1l-0.2-0.4h0c0.1,1,0.2,1.9,0.2,2.5v9.3H115.5z"/>
	<path d="M138.3,498.7v-16.1h2.9v13.6h7v2.5H138.3z"/>
	<path d="M148.6,498.7l5.6-16.1h3.1l5.6,16.1h-3l-1.4-4.1H153l-1.4,4.1H148.6z M153.7,492.2h4.2l-1.4-4.3l-0.6-2.5h0
		c-0.2,1.1-0.5,1.9-0.6,2.5L153.7,492.2z"/>
	<path d="M164,496.8l1.6-2.2c0.5,0.5,1.2,0.9,1.9,1.2c0.7,0.3,1.4,0.5,2.1,0.5c0.7,0,1.3-0.2,1.7-0.5c0.4-0.3,0.6-0.8,0.6-1.3
		c0-0.6-0.3-1-0.8-1.5c-0.5-0.4-1.1-0.8-1.9-1.1c-0.7-0.3-1.5-0.6-2.2-1c-0.7-0.4-1.4-0.9-1.9-1.5c-0.5-0.7-0.8-1.5-0.8-2.4
		c0-1.4,0.5-2.5,1.6-3.4c1-0.9,2.3-1.3,3.9-1.3c1.9,0,3.5,0.6,4.7,1.7l-1.3,2.4c-0.5-0.4-1-0.7-1.6-1c-0.6-0.3-1.3-0.4-1.9-0.4
		c-0.7,0-1.3,0.2-1.8,0.5c-0.4,0.3-0.7,0.8-0.7,1.3c0,0.5,0.3,1,0.8,1.4c0.5,0.4,1.1,0.7,1.9,1c0.7,0.3,1.5,0.6,2.2,1
		c0.7,0.4,1.4,0.9,1.9,1.5c0.5,0.7,0.8,1.5,0.8,2.4c0,1.4-0.5,2.5-1.4,3.4c-1,0.9-2.3,1.4-3.9,1.4c-1,0-2-0.2-3-0.6
		C165.5,498.1,164.7,497.5,164,496.8z"/>
	<path d="M183.5,498.7v-16.1h6.2c1.5,0,2.7,0.5,3.7,1.5c1,1,1.4,2.2,1.4,3.8c0,1.6-0.5,2.8-1.4,3.8c-1,1-2.2,1.5-3.7,1.5h-3.3v5.6
		H183.5z M186.4,490.6h2.7c0.8,0,1.5-0.2,2-0.7c0.5-0.5,0.7-1.2,0.7-2c0-0.8-0.2-1.5-0.7-2c-0.5-0.5-1.1-0.7-1.9-0.7h-2.8V490.6z"/>
	<path d="M197.4,498.7v-16.1h9.6v2.5h-6.7v4.2h5.4v2.5h-5.4v4.3h7.1v2.5H197.4z"/>
	<path d="M210.3,498.7v-16.1h5.3c1.4,0,2.4,0.1,3,0.4c0.8,0.3,1.5,0.9,2,1.7c0.5,0.8,0.7,1.7,0.7,2.7c0,1-0.2,1.9-0.7,2.7
		c-0.5,0.8-1.1,1.4-2,1.7v0c0.1,0.2,0.3,0.4,0.5,0.8l3.3,6h-3.3l-3.2-6h-2.8v6H210.3z M213.2,490.2h2.6c0.8,0,1.4-0.2,1.9-0.7
		c0.5-0.5,0.7-1.1,0.7-1.9c0-1.1-0.4-1.9-1.3-2.2c-0.4-0.2-1-0.3-1.8-0.3h-2.1V490.2z"/>
	<path d="M223.6,496.8l1.6-2.2c0.5,0.5,1.2,0.9,1.9,1.2c0.7,0.3,1.4,0.5,2.1,0.5c0.7,0,1.3-0.2,1.7-0.5c0.4-0.3,0.6-0.8,0.6-1.3
		c0-0.6-0.3-1-0.8-1.5c-0.5-0.4-1.1-0.8-1.9-1.1c-0.7-0.3-1.5-0.6-2.2-1c-0.7-0.4-1.4-0.9-1.9-1.5c-0.5-0.7-0.8-1.5-0.8-2.4
		c0-1.4,0.5-2.5,1.6-3.4c1-0.9,2.3-1.3,3.9-1.3c1.9,0,3.5,0.6,4.7,1.7l-1.3,2.4c-0.5-0.4-1-0.7-1.6-1c-0.6-0.3-1.3-0.4-1.9-0.4
		c-0.7,0-1.3,0.2-1.8,0.5c-0.4,0.3-0.7,0.8-0.7,1.3c0,0.5,0.3,1,0.8,1.4c0.5,0.4,1.1,0.7,1.9,1c0.7,0.3,1.5,0.6,2.2,1
		c0.7,0.4,1.4,0.9,1.9,1.5c0.5,0.7,0.8,1.5,0.8,2.4c0,1.4-0.5,2.5-1.4,3.4c-1,0.9-2.3,1.4-3.9,1.4c-1,0-2-0.2-3-0.6
		C225.2,498.1,224.3,497.5,223.6,496.8z"/>
	<path d="M236.5,490.6c0-2.3,0.8-4.3,2.3-5.9c1.6-1.6,3.6-2.4,6-2.4c2.4,0,4.4,0.8,6,2.4c1.6,1.6,2.3,3.5,2.3,5.9
		c0,2.4-0.8,4.4-2.3,6c-1.6,1.6-3.6,2.4-6,2.4c-2.4,0-4.4-0.8-6-2.4C237.3,495,236.5,492.9,236.5,490.6z M239.5,490.6
		c0,1.6,0.5,3,1.5,4.1c1,1.1,2.3,1.6,3.8,1.6s2.8-0.5,3.8-1.6c1-1.1,1.5-2.5,1.5-4.1c0-1.6-0.5-2.9-1.5-3.9c-1-1.1-2.3-1.6-3.8-1.6
		s-2.8,0.5-3.8,1.6C240,487.7,239.5,489,239.5,490.6z"/>
	<path d="M256.1,498.7v-16.1h2.9l6.1,9.3c0.2,0.3,0.4,0.6,0.6,1.1c0.2,0.4,0.4,0.8,0.5,1l0.2,0.4h0c-0.1-1-0.2-1.9-0.2-2.5v-9.3h2.9
		v16.1h-2.9l-6.1-9.3c-0.2-0.3-0.4-0.6-0.6-1.1c-0.2-0.4-0.4-0.8-0.5-1l-0.2-0.4h0c0.1,1,0.2,1.9,0.2,2.5v9.3H256.1z"/>
	<path d="M271.4,498.7l5.6-16.1h3.1l5.6,16.1h-3l-1.4-4.1h-5.6l-1.4,4.1H271.4z M276.4,492.2h4.2l-1.4-4.3l-0.6-2.5h0
		c-0.2,1.1-0.5,1.9-0.6,2.5L276.4,492.2z"/>
	<path d="M286.7,496.8l1.6-2.2c0.5,0.5,1.2,0.9,1.9,1.2c0.7,0.3,1.4,0.5,2.1,0.5c0.7,0,1.3-0.2,1.7-0.5c0.4-0.3,0.6-0.8,0.6-1.3
		c0-0.6-0.3-1-0.8-1.5c-0.5-0.4-1.1-0.8-1.9-1.1c-0.7-0.3-1.5-0.6-2.2-1c-0.7-0.4-1.4-0.9-1.9-1.5s-0.8-1.5-0.8-2.4
		c0-1.4,0.5-2.5,1.6-3.4c1-0.9,2.3-1.3,3.9-1.3c1.9,0,3.5,0.6,4.7,1.7l-1.3,2.4c-0.5-0.4-1-0.7-1.6-1c-0.6-0.3-1.3-0.4-1.9-0.4
		c-0.7,0-1.3,0.2-1.8,0.5c-0.4,0.3-0.7,0.8-0.7,1.3c0,0.5,0.3,1,0.8,1.4c0.5,0.4,1.1,0.7,1.9,1c0.7,0.3,1.5,0.6,2.2,1
		c0.7,0.4,1.4,0.9,1.9,1.5c0.5,0.7,0.8,1.5,0.8,2.4c0,1.4-0.5,2.5-1.4,3.4c-1,0.9-2.3,1.4-3.9,1.4c-1,0-2-0.2-3-0.6
		C288.3,498.1,287.4,497.5,286.7,496.8z"/>
	<path d="M306.2,498.7v-16.1h2.9v16.1H306.2z"/>
	<path d="M313,498.7v-16.1h2.9l6.1,9.3c0.2,0.3,0.4,0.6,0.6,1.1c0.2,0.4,0.4,0.8,0.5,1l0.2,0.4h0c-0.1-1-0.2-1.9-0.2-2.5v-9.3h2.9
		v16.1h-2.9l-6.1-9.3c-0.2-0.3-0.4-0.6-0.6-1.1c-0.2-0.4-0.4-0.8-0.5-1l-0.2-0.4h0c0.1,1,0.2,1.9,0.2,2.5v9.3H313z"/>
	<path d="M330.1,498.7v-16.1h5.5c2.5,0,4.5,0.7,6,2.1c1.5,1.4,2.2,3.4,2.2,5.9s-0.7,4.5-2.2,5.9c-1.5,1.4-3.5,2.2-6,2.2H330.1z
		 M333,496.2h2.4c1.7,0,3-0.5,3.9-1.4c1-1,1.4-2.3,1.4-4.1c0-1.8-0.5-3.1-1.4-4.1c-1-1-2.3-1.4-3.9-1.4H333V496.2z"/>
	<path d="M346.8,498.7v-16.1h2.9v16.1H346.8z"/>
	<path d="M352.7,490.6c0-2.4,0.8-4.3,2.3-5.9c1.6-1.6,3.5-2.4,5.9-2.4c2.4,0,4.4,0.7,5.9,2.2l-1.4,2.2c-0.6-0.5-1.3-0.9-2.1-1.2
		c-0.8-0.3-1.6-0.5-2.3-0.5c-1.7,0-3,0.5-4,1.6c-1,1.1-1.4,2.4-1.4,3.9c0,1.6,0.5,2.9,1.5,4.1c1,1.1,2.3,1.7,4,1.7
		c1.7,0,3.3-0.7,4.7-2l1.5,2.1c-1.7,1.7-3.8,2.6-6.3,2.6c-2.5,0-4.5-0.8-6-2.4C353.4,495,352.7,493,352.7,490.6z"/>
	<path d="M368.1,498.7l5.6-16.1h3.1l5.6,16.1h-3l-1.4-4.1h-5.6l-1.4,4.1H368.1z M373.2,492.2h4.2l-1.4-4.3l-0.6-2.5h0
		c-0.2,1.1-0.5,1.9-0.6,2.5L373.2,492.2z"/>
	<path d="M384.6,498.7v-16.1h5.5c2.5,0,4.5,0.7,6,2.1c1.5,1.4,2.2,3.4,2.2,5.9s-0.7,4.5-2.2,5.9c-1.5,1.4-3.5,2.2-6,2.2H384.6z
		 M387.5,496.2h2.4c1.7,0,3-0.5,3.9-1.4c1-1,1.4-2.3,1.4-4.1c0-1.8-0.5-3.1-1.4-4.1c-1-1-2.3-1.4-3.9-1.4h-2.4V496.2z"/>
	<path d="M399.2,498.7l5.6-16.1h3.1l5.6,16.1h-3l-1.4-4.1h-5.6l-1.4,4.1H399.2z M404.3,492.2h4.2l-1.4-4.3l-0.6-2.5h0
		c-0.2,1.1-0.5,1.9-0.6,2.5L404.3,492.2z"/>
	<path d="M414.5,496.8l1.6-2.2c0.5,0.5,1.2,0.9,1.9,1.2c0.7,0.3,1.4,0.5,2.1,0.5c0.7,0,1.3-0.2,1.7-0.5c0.4-0.3,0.6-0.8,0.6-1.3
		c0-0.6-0.3-1-0.8-1.5c-0.5-0.4-1.1-0.8-1.9-1.1c-0.7-0.3-1.5-0.6-2.2-1c-0.7-0.4-1.4-0.9-1.9-1.5c-0.5-0.7-0.8-1.5-0.8-2.4
		c0-1.4,0.5-2.5,1.6-3.4c1-0.9,2.3-1.3,3.9-1.3c1.9,0,3.5,0.6,4.7,1.7l-1.3,2.4c-0.5-0.4-1-0.7-1.6-1c-0.6-0.3-1.3-0.4-1.9-0.4
		c-0.7,0-1.3,0.2-1.8,0.5c-0.4,0.3-0.7,0.8-0.7,1.3c0,0.5,0.3,1,0.8,1.4c0.5,0.4,1.1,0.7,1.9,1c0.7,0.3,1.5,0.6,2.2,1
		c0.7,0.4,1.4,0.9,1.9,1.5c0.5,0.7,0.8,1.5,0.8,2.4c0,1.4-0.5,2.5-1.4,3.4c-1,0.9-2.3,1.4-3.9,1.4c-1,0-2-0.2-3-0.6
		C416.1,498.1,415.2,497.5,414.5,496.8z"/>
</g>
</svg>
