<?xml version="1.0" encoding="utf-8"?>
<!-- Generator: Adobe Illustrator 25.3.1, SVG Export Plug-In . SVG Version: 6.00 Build 0)  -->
<svg version="1.1" id="Capa_1" xmlns="http://www.w3.org/2000/svg" xmlns:xlink="http://www.w3.org/1999/xlink" x="0px" y="0px"
	 width="800px" height="600px" viewBox="0 0 800 600" style="enable-background:new 0 0 800 600;" xml:space="preserve">
<style type="text/css">
	.st0{fill:#FFFFFF;}
</style>
<g>
	<path d="M129.5,300c4.4-4.3,10.9-3.5,16.4-3.7c39.4,0.1,78.7,0,118,0.1c5.7-0.2,12.1,2,14.3,7.7c1.7,5.4,1.3,11.3,1.5,16.9
		c-0.3,29.7,0.1,59.3-0.1,89c-0.4,3.7,0.5,9.2-4.7,9.3c-4-1.5-3.5-5.9-3.7-9.4c0-22.6,0.1-45.4,0-68c-45.8-0.2-91.8,0-137.6-0.1
		v110.4c0.2,3.7,0.1,9.8,5.4,8.9c24.5,1.1,48.9-0.5,73.3,0.6c3.7,0.3,5.1,2.4,4.2,6.4c-6.2,2.6-13.1,1.5-19.5,1.7
		c-19.9-0.4-39.8,0.5-59.7-0.4c-7.7-0.3-12.8-7.9-12.1-15.2c-0.2-45.9,0-91.9-0.1-138C125.4,310.8,125,304.1,129.5,300L129.5,300z
		 M134.9,305.7c-2.5,8.9-0.9,18.4-1.2,27.5h137.5c-0.3-9.1,1.2-18.5-1.3-27.5c-3.5-0.9-7.1-1.1-10.7-1.2c-34.8,0.1-69.6,0.1-104.4,0
		C148.3,304.6,141.4,304.1,134.9,305.7L134.9,305.7z"/>
	<path d="M197.9,310.7c6.1-5.1,16.6,0,16.6,7.9c0.8,7.5-7.8,13.4-14.5,10.3C192.6,326.2,191.3,315,197.9,310.7z M202.3,317.3
		c-1.2,3.6,0,4.8,3.7,3.7C207.1,317.5,206,316.2,202.3,317.3z M224.2,310c7-4.5,17.1,2.5,15.6,10.6c-0.9,7.4-10.3,11.7-16.3,7.3
		C217.1,324.1,217.6,313.4,224.2,310L224.2,310z M228.5,316.8c-3.2,0.9-1.5,6.1,1.6,4.9C233.4,320.8,231.6,315.6,228.5,316.8z
		 M249,310.3c6.3-4.5,16,0.6,16.2,8.3c0.8,7.9-8.9,14-15.6,9.8C242.7,325,242.3,314.1,249,310.3L249,310.3z M252.7,317.4
		c-1.1,3.6,0.2,4.8,3.7,3.7C257.5,317.4,256.3,316.2,252.7,317.4z M291.5,322.3c12.1-0.9,24.3-0.5,36.4-0.3
		c6.7,0.1,13.2,3.6,16.4,9.6c2.8,5.6,2.4,12.1,2.6,18.1c-0.2,45.3,0,90.5-0.1,135.8c0.3,7.7-2.7,16.2-10.1,19.6
		c-5.3,2.1-13.5,4.9-16.8-1.7c3-6.3,12-3.2,16.2-8c2.7-3.4,2.3-8,2.6-12.1c-0.2-46.8,0-93.7-0.1-140.5c0.3-4.9-1.9-10.7-7.2-11.8
		c-13.9-2.4-28.2,1.1-42.1-1.8C286.8,326.3,287.9,322.9,291.5,322.3L291.5,322.3z M102.1,323.5c5.1-1.8,14.3-3.6,15.4,3.9
		c-5.2,2.6-11.4,3.1-16.3,6.5c-3,3.8-2.4,9-2.6,13.5c0.1,45.3,0.1,90.6,0,135.9c0.3,4.7-0.1,10.9,4.5,13.8c4.3,2.2,9.3,1.7,14,2
		c53.3-0.2,106.7,0.1,160.1-0.2c4.3,0.1,8.6,0.1,12.7,1c1.7,2.1,1.6,6.9-1.8,6.9c-17.3,1.5-34.9,0.2-52.3,0.5
		c0,6.8,0.1,13.5,0.1,20.4c12.6,2.8,25.5,4.6,37.9,8.1c7.4,1.4,6.6,11.4,3.7,16.5c-5.6,2.6-12,1.7-18,2c-31.1-0.5-62.3,0.4-93.4-0.4
		c-8.9,0.8-9.8-10.9-6-16.5c6.1-3.5,13.4-4.7,20.4-4.1c0.3,2,0.4,3.9,0.1,5.9c-5.1,2.5-10.6,4-15.9,6c19.7,1,39.5,0.3,59.3,0.5
		c16.4-0.2,32.9,0.6,49.3-0.7c-10.2-3.7-20.9-5.8-31.6-7.7c-17-2.8-34.1-0.4-51.2-0.5c-3.8-7.6,6.8-7.4,11.3-10
		c0-6.5,0-13.1-0.1-19.5c-28.1,0-56.3-0.1-84.5,0.1c-6.2-0.2-13.1,0.2-18.4-3.6c-4.7-3-6.7-8.5-8.2-13.5V339.7
		C91.6,333,95.1,325.9,102.1,323.5L102.1,323.5z M209.9,507.3v20.5h17.4v-20.5H209.9z"/>
	<path d="M289,339.2c7.7-1.9,15.7-1,23.6-1.2c5.1,0.3,11.4-0.6,15.2,3.6c3.3,3.4,2.7,8.5,3,12.8c0,40.7-0.1,81.5,0,122.3
		c0.2,5.2-1.2,11.4-6.6,13.6c-6,1.8-12.7,1.7-18.7,0c-1.1-2.2-1.7-4.8,0.7-6.5c5.2-0.9,10.5-0.9,15.8-1.2
		c0.5-45.3,0.3-90.7,0.1-135.9c-10.2-0.5-20.5,0.5-30.7-0.6C288.2,345.5,287.1,341.7,289,339.2L289,339.2z M106.4,363
		c0.1-8.2-1.6-17.9,5.5-24c1.2,0.9,3.5,2.7,4.7,3.7c-1.2,5.2-1.8,10.5-1.8,15.9c0.1,37.8,0.1,75.7,0,113.5c0,3.5,0.1,6.8,0.6,10.2
		c39.8,1.3,79.6,0.2,119.4,0.5c13.5,0.3,27.1-0.9,40.5,1.3c-1.2,3.5-2.3,7.9-6.9,6.9c-48.3,0.4-96.5-0.1-144.8,0.2
		c-4.7-0.3-10.2,0.5-13.7-3.2c-3.9-3.5-3.4-9.1-3.6-13.9C106.4,437.2,106.4,400.2,106.4,363L106.4,363z"/>
	<path d="M156.8,386.5c7.2,0.4,7.7,8.1,9.9,13.3c1.7-4.5,3.5-8.9,5.7-13.1c1.7,4.3,3.4,8.7,4.9,13.1c2.8-4.2,2.2-14.4,9.6-12.2
		c-1.5,7.4-4.2,14.5-7.8,21.2c-5-0.5-5-6.6-7-10.1c-1.9,3.3-1.9,8.9-6.1,10.2C160.7,402.5,158.9,394.1,156.8,386.5L156.8,386.5z
		 M188.2,389.2l3.7-3.3c1.8,4.7,3.7,9.3,5.3,14c1.6-4.4,3.2-8.8,4.9-13.1c2.2,4.2,4.1,8.7,5.9,13.1l4.1-12.1l10.8-0.3
		c1.6,4.1,3.1,8.3,4.6,12.4c1.6-4.5,3.4-8.9,5.2-13.3c2,4.4,3.8,8.8,5.5,13.2c2.7-3.8,2.4-16.3,9.4-11.8c-1.6,7.9-5.1,15.1-8.8,22.1
		c-2.3-3.7-4.3-7.8-6.2-11.7c-1.6,3.9-3.2,7.8-5,11.6c-4.7-6.5-7.4-14.1-10.1-21.5c-2.4,6.5-4.5,13.1-7.9,19.3
		c-5.7,1.7-4.9-6.3-7.1-9.4c-1.6,3.7-3.3,7.6-5.8,11C192.2,403.8,189.5,396.5,188.2,389.2L188.2,389.2z M209.7,425.2
		c0.7-0.7,2.2-2.3,2.9-3c29.7,1.6,59.3,5.3,88.9,7.5c4.7,0.8,14.7-0.4,12,7.2c-7,4.7-15.2,7.5-22.8,11
		c-5.8,11.4-10.7,23.4-17.5,34.2c-6.8-4.3-13.3-8.9-19.8-13.6c-7,3.7-14.2,7.3-21.4,10.7C223.4,461.8,216.2,443.5,209.7,425.2
		L209.7,425.2z M266.3,435c9.1,2,18.7,7.3,27.9,2.8C284.9,436.3,275.6,435.8,266.3,435z M222.2,435c4.4,11,8.9,22.1,13.3,33.1
		c8.5-4.4,16.9-8.8,25.5-13.1C248.1,448.4,235.2,441.6,222.2,435z M251.6,440.5c6.5,3.8,13.5,6.8,19.9,10.8c3.5,1.6,2.6,6.3,4.1,9.3
		c1.8-4.4,3.8-8.7,5.8-12.9C271.5,445.2,261.7,442.3,251.6,440.5L251.6,440.5z M264.1,467.2c3.5,1.7,5.4-4.1,2-5.3
		C262.6,460.2,260.5,466.1,264.1,467.2z M350.9,447.5c5.6,1.1,11.6,5.2,12.2,11.2c-4.3,5.3-10-0.6-13.2-4
		C346.5,452.5,349.2,449.8,350.9,447.5z M369.5,484.2c-2.2-5.8-8.9-14.8-0.8-18.7c3.4,3.3,5.1,7.7,6.4,12.1v2.3
		C373.7,481,370.9,483.1,369.5,484.2z M284.6,477.5c4.9-0.5,7.5,5.1,9.8,8.6c2.8,3.6-3.7,8.2-6.4,4.4
		C284.3,487.9,278.5,479.3,284.6,477.5L284.6,477.5z M367,493.1l1.1-1.6c11.6-3.3,3.9,21.5-4.9,14.1
		C363.3,501.1,364.6,496.7,367,493.1L367,493.1z M299.8,496.9c5.2-3.1,14.4,4.4,13.1,10.6c-5.5,4.4-11-2.8-14.3-6.8
		C298.9,499.8,299.5,497.8,299.8,496.9L299.8,496.9z M322,509.7c5.2,0.9,13.8,2.2,13.4,9c-4.1,4.2-10,0.5-14.2-1.6
		C318,515.7,319.5,511.1,322,509.7z M353.7,511c4.8-2.3,8.9,5.8,3.2,7.3c-4.2,2.7-13.5,6.2-13.3-2
		C346.1,513.5,349.9,511.9,353.7,511z"/>
</g>
<g>
	<path class="st0" d="M684.2,440.6c2.8-5,5.9-9.7,8.5-14.8c2.4-1.8,5.8-2.6,6.8-5.9c-1.1-1.6-2.1-3.3-2.9-5c2.4-0.5,4.8-1.4,6.9-2.6
		l-3.9-23.9c2.2,0.1,4.3,0,6.4-0.6c-4.2-5.5-8-11.7-8.7-18.7c-0.2-1.2,0.5-2.2,1.1-3.2c0.6-0.8,1.1-1.7,1.7-2.6
		c-0.3-2-0.6-4.1-0.9-6.1c-0.7,0.9-1.3,1.8-2,2.7l0,0.3c-0.2,0.2-0.5,0.7-0.7,0.9c0-0.5,0-1.5-0.1-2.1c-1-1.6-1.3-3.4-1.7-5.1
		c-1.7-7.4-4.3-14.5-7.4-21.3c0.4,0.1,0.9,0.3,1.3,0.4c-0.5-1-1-2-1.4-3c0,0-0.1-0.1-0.1-0.1c0,0,0,0,0.1,0
		c-0.7-1.5-1.3-3.1-1.9-4.7c-0.2-0.5-0.2-0.9-0.2-1.3c-1.4-0.9-2.7-1.8-4-2.7c-6-27.1-19.2-35.5-30-37.6c1.7-2.5-14.3-1.6-26.2-0.6
		l-1.1-2.8h0c16.3-7.4,28.8-20.4,33.1-37.8c0.9,0,1.7,0.8,2.6,0.8c2.3-8.8,3.3-18.3,4.6-27.4c-2-1.4-3.9-2.9-5.5-4.5
		c2-1.3,3.3-3.5,3.2-6.6c-0.8-22-1-44.1-0.6-66.1c0-2.4-0.8-4.3-2.1-5.6c0.8-1.4,1.6-2.9,2.5-4.2c-0.4-1.1-0.9-2.2-1.4-3.2
		c1.8-1.8,3.9-3,6-3.6c1.3-1.7,2.6-3.3,3.9-4.8c3.1-5.7,5.4-11.9,6.2-18c0.8-4.6,0.2-8.9-0.3-13.3c-0.9-0.2-1.5-0.3-2.4-0.4
		c0.3-1.9-0.3-3.8-1.8-4.9c-2.9-5.7-8.9-8.6-14-11.3c-2.7,0.6-5.5,1.3-8.2,2.1c-2.7,0.8-5.3,1.8-7.8,3c-1.7,4.2-5.6,5.1-8,4.2
		C615,68.6,595.3,54.4,574,57c-11,1.8-21.3-0.9-32.7,1.7c-2.6,0.3-5.2,0.8-7.8,1.5c-15.6,3.9-30.3,13.2-43.1,24.4
		c-1.6,0.9-3.2,0-4.8-0.9c-2.2-0.9-4.5-2.4-6.1-4.7c-2.4-1.8-4.7-2.7-7.6-2c-2.7-0.6-5.5-1-8.3-1.3c-4.9,3.2-10.7,6.6-13.1,12.6
		c-1.4,1.3-1.9,3.2-1.4,5.1c-0.8,0.2-1.5,0.4-2.3,0.6c-0.1,4.4-0.4,8.8,0.7,13.2c0.5,2.5,1.3,4.9,2.3,7.3c4,5.1,7.4,10.7,10.1,16.6
		c0.4,0.4,0.8,0.9,1.2,1.3c-0.1,0.2-0.1,0.4-0.2,0.7c2.6,6,4.7,12.3,6.2,18.7c-3.7,1.3-6.7,4.8-5.4,9.7c4.9,18.4,4.4,38.9,5.2,58.1
		c-0.5,2.4-1.1,4.7-1.7,7c0.5,2.5,1.1,5.1,1.7,7.6c0.5,2.9,1.1,5.7,1.9,8.5c3.2,11,9.1,21,20.3,28.7c2.4,1.8,5.1,3.4,8.1,4.8
		l-30.2-2.7c-31-3-49.5,20-49.5,20l1,2.4c-4.7,4.4-6.5,8-6.5,8c0,0,0,0,0,0l-11.8,8.6c-2.7,0.7-5.5,0.7-8.3,0.1
		c-1.3,5,0.7,10,0.2,15.1c-0.3,3.4,2.3,6.2,2.5,9.4c-3.3,8.8-4.8,18.2-4.9,27.5l0,0l0,0c0,7.8,1,15.6,2.9,23.1
		c2,7.2,0.1,14.7-1.8,21.7c1.8-0.3,3.5-0.7,5.3-1.1c-0.4,1.8-0.9,3.6-1.4,5.4c2.4-0.2,4.7-1,6.9-1.8c6.6,13.9,15.5,26.7,26.1,37.8
		c-1.6,2.6-3.7,4.9-4.9,7.8c-3.9,8.8-3.4,19.3,1.2,27.7c5.1,9.4,13.5,16.7,22.4,22.5c2.8,2,6.1,3.3,8.7,5.6
		c-7.6,1.4-15.4,2.8-22.5,6c-1.9,1-4.4,2.2-4.6,4.7c0.6,2.4,3,3.4,4.9,4.4c8.5,3.8,17.7,4.9,26.7,6.7c6.7,5.2,13.3,11.1,21.6,13.4
		c3,0.3,6-0.4,8.9-0.6c21.6-2.1,43.2-4.3,64.8-6.5c12.8-0.4,25.7,0.1,38.5-0.7c16.6-0.3,33.3-1.6,49.8-2.9c13.7-1.5,27.5-3,40.8-6.5
		c4.3-1.3,8.9-2.3,12.4-5.4c1.2-1,1.4-3,0.2-4.1c-2.7-2.7-6.6-3.8-10.2-4.9c-5.5-1.8-11.3-2.6-17-3.9c11.9-7,23.9-14.9,31.3-26.9
		c6.2-9.6,6.5-22.9,0-32.5C697,447.6,690.7,443.6,684.2,440.6z M482.8,359.2c-1.6,3.5-4.3,6.5-6.7,9.7c1.7,3,1.4,7.1-0.7,9.8
		c0.8,3.7,1.2,7.6,2.1,10.9c0.4,1.5,0.4,2.9,0.1,4.1c2.2,4.9-0.2,12-7.2,12c-5.8,0-8.5-5-7.9-9.4c-0.4-0.7-0.7-1.4-0.9-2.2
		c-0.6-2.4-0.9-4.9-1.4-7.3c-0.2-1.3-0.7-2.7-0.8-4.1c-0.2-2-1.4-2.4,0.4-1.4c-3.1-1.7-4.9-5.9-3.8-9.3c2.6-8.2,9.1-13.5,12.6-21.1
		C473.1,341.2,487.3,349.6,482.8,359.2z"/>
	<g>
		<path d="M532.6,141.6l0.2,0.1c2.9,0.2,5.8,0.5,8.8,0.7c-6.7-1.7-13.6-3.3-19.5-5.9c7.7,1.4,15.3,3.1,23.3,3.4
			c-3-1.1-6.3-1.8-9.3-3l-0.3,0c-0.4-0.2-1.3-0.6-1.8-0.8c4.9,0.7,9.7,1.7,14.7,2c1.6-1.1,1.5-2.9,2.2-4.3c-1-0.1-1.9-0.3-2.9-0.4
			c-19.2-3.8-37.1-9.7-54.4-15.9c-1.2-0.5-2.3-1.1-3.8-1.1c-0.3,0.5-0.6,1-0.9,1.5c2.6,1.6,5.3,3.2,8.1,4.7c-3.2-0.7-6.1-1.7-9-2.8
			c-1.4,4.3-2.6,8.7-0.5,13C501.9,136.8,517,140,532.6,141.6z"/>
		<path d="M578.4,222.9c0.4,1,0.7,1-0.8,1.3c-1.4,0.3-2.8,0.7-4.1,1c-2.8,0.7-5.6,1.3-8.4,1.8c-5.7,1.1-11.5,1.9-17.4,2.4
			c-3.7,0.3-3.6,4.5,0.2,4.2c8-0.7,15.9-1.9,23.7-3.6c3.4-0.7,7.7-1.3,10.6-2.8c2.8-1.4,2.7-3.7,1.9-5.7
			C582.9,219,577.3,220.3,578.4,222.9z"/>
		<path d="M483.6,103.5c-1.5-0.5-2.8-1.1-4-1.8c1,1,2.1,1.9,3.2,2.6C483,104,483.3,103.7,483.6,103.5z"/>
		<path d="M559.4,219l0,0.3c1,0.2,2,0.3,3,0.3c0.2,0,0.4,0,0.6-0.1c0.2,0,0.4,0,0.6,0c1.1,0,2.1-0.2,3-0.5l0-0.3
			c6.2-2.3,11.8-8.9,15.4-15.4c0.1-0.4,0.1-0.9,0.1-1.3c0.2,0.2,0.3,0.4,0.5,0.5c-0.3-2.4-1.2-4.5-3.7-5.3c-0.9-0.3-1.5-0.8-2-1.3
			c-1.5-0.4-3.1-0.5-4.4,0c-4,0.2-7.1,1-10.3,1.4c-3.2-0.2-6.4-0.7-10.4-0.5c-0.5-0.1-1-0.2-1.6-0.2c0.1-0.4,0.3-0.8,0.4-1.2
			c0.1-0.3,0.2-0.6,0.3-0.8c-1.6,0.3-2.6,0.7-3.7,1.8c-1.2,1.2-2,2.6-2.9,4.3c-0.3,0.6-0.7,1-1.2,1.3c0.1,0.2,0.2,0.5,0.3,0.7
			c0.3,1.1,0.1,2.2-0.4,3.3c-0.1,0.2-0.1,0.3-0.1,0.5c0,0.3,0,0.6,0,0.9c0,0.3,0,0.6-0.1,0.9c0.5-0.4,0.9-0.9,1.3-1.4
			C548.2,212.4,553.7,217.4,559.4,219z"/>
		<path d="M550.7,296.2c0.2,0,0.3,0,0.5,0c0-1.1,0.1-2.2,0.1-3.3c-0.2,0.1-0.4,0.2-0.5,0.3C550.7,294.3,550.7,295.2,550.7,296.2z"/>
		<path d="M601.6,252.2c1.7-0.3,3-1.1,4-2.2C604.4,250.9,603.1,251.7,601.6,252.2z"/>
		<path d="M579.4,294.4c0.4-0.8,0.6-1.7,0.9-2.7c0-0.2,0.1-0.4,0.2-0.5c-0.5,0-1.1,0-1.6-0.1C579.1,292.3,579.3,293.4,579.4,294.4z"
			/>
		<path d="M557.8,237.9c4-1.2,8.3-1.7,12.8-1.2c1.9-0.5,3.7-1.5,5.3-2.5c-7.4-0.1-16-0.8-22.2,4.3
			C554.9,237.7,556.4,237.8,557.8,237.9z"/>
		<path d="M558.3,244.5c0.6,0.6,1.2,1.2,1.8,1.7c-1.5-1.2-3.3-0.5-5.3,0.6c0.1,0.1,0.2,0.3,0.3,0.5c0.3,0.6,0.5,1.1,0.7,1.7
			c0.1,0,0.1,0,0.2-0.1c-0.1,0-0.1,0.1-0.2,0.1c0.8,2.2,1.2,4.5,1,6.9c0.5,0.2,0.9,0.4,1.3,0.6c3.6,1.4,5,4.4,4.8,8.5
			c0.9,0.6,1.4,1.6,1.4,2.8c0.6,0,1.3,0,1.9,0c0.4-3.1,0.7-6.3,1.6-9.7c0.5,2.4,1.9,3.4,2.4,5.8c1.3-4.9,0.4-9.6,0.1-13.8
			c1.4,1.9,3.5,2.9,5.9,3.4C571.4,248.5,565.3,245.5,558.3,244.5z"/>
		<path d="M531.6,252.1c-1.6-1.3-3.1-3.1-4.5-5c-0.2-0.2-0.3-0.4-0.5-0.6C527.9,249,529.7,250.9,531.6,252.1z"/>
		<path d="M548.1,266.8c-1.2,1.8-1.6,3.9-1.6,6.1C547.1,271.2,547.6,269.1,548.1,266.8z"/>
		<path d="M684.2,440.6c2.8-5,5.9-9.7,8.5-14.8c2.4-1.8,5.8-2.6,6.8-5.9c-1.1-1.6-2.1-3.3-2.9-5c2.4-0.5,4.8-1.4,6.9-2.6l-3.9-23.9
			c2.2,0.1,4.3,0,6.4-0.6c-4.2-5.5-8-11.7-8.7-18.7c-0.2-1.2,0.5-2.2,1.1-3.2c0.6-0.8,1.1-1.7,1.7-2.6c-0.3-2-0.6-4.1-0.9-6.1
			c-0.7,0.9-1.3,1.8-2,2.7l0,0.3c-0.2,0.2-0.5,0.7-0.7,0.9c0-0.5,0-1.5-0.1-2.1c-1-1.6-1.3-3.4-1.7-5.1c-1.7-7.4-4.3-14.5-7.4-21.3
			c0.4,0.1,0.9,0.3,1.3,0.4c-0.5-1-1-2-1.4-3c0,0-0.1-0.1-0.1-0.1c0,0,0,0,0.1,0c-0.7-1.5-1.3-3.1-1.9-4.7c-0.2-0.5-0.2-0.9-0.2-1.3
			c-1.4-0.9-2.7-1.8-4-2.7c-6-27.1-19.2-35.5-30-37.6c1.7-2.5-14.3-1.6-26.2-0.6l-1.1-2.8l0,0c16.3-7.4,28.8-20.4,33.1-37.8
			c0.9,0,1.7,0.8,2.6,0.8c2.6-9.8,3.5-20.5,5.1-30.7c0.2-1.7,0.3-3.4,0.4-5.1c4.1-2.8,7.3-6.6,9.3-11.5c3.1-7.8,5.9-15.7,9-23.4
			c0.6-1.6,1.9-3.4,3.4-4.2c2.5-1.4,3.2-3.3,3.2-5.7c0-1.5-0.2-2.9,0-4.4c0.2-1.6-0.2-2.8-1.1-3.5c1.3-1.6,1.5-4.3-0.7-5.8
			c-8.6-6.3-15.3-14.6-20-24.1c-2.1-4.3-8.5-0.5-6.4,3.7c4.6,9.4,11.2,17.5,19.3,24.1c-5.4-0.9-10.8-2-16.3-2.9
			c0.6-10-1.7-18.1-4.6-24.3c2.1-2.1,4.7-3.5,7.3-3.9c4.5-6.8,7.8-14.7,8.9-22.5c0.8-4.6,0.2-8.9-0.3-13.3c-0.9-0.2-1.5-0.3-2.4-0.4
			c0.3-1.9-0.3-3.8-1.8-4.9c-2.9-5.7-8.9-8.6-14-11.3c-2.7,0.6-5.5,1.3-8.2,2.1c-2.7,0.8-5.3,1.8-7.8,3c-1.7,4.2-5.6,5.1-8,4.2
			C615,68.6,595.3,54.4,574,57c-11,1.8-21.3-0.9-32.7,1.7c-2.6,0.3-5.2,0.8-7.8,1.5c-15.6,3.9-30.3,13.2-43.1,24.4
			c-1.6,0.9-3.2,0-4.8-0.9c-2.2-0.9-4.5-2.4-6.1-4.7c-2.4-1.8-4.7-2.7-7.6-2c-2.7-0.6-5.5-1-8.3-1.3c-4.9,3.2-10.7,6.6-13.1,12.6
			c-1.4,1.3-1.9,3.2-1.4,5.1c-0.8,0.2-1.5,0.4-2.3,0.6c-0.1,4.4-0.4,8.8,0.7,13.2c2,9.2,7.2,18.2,13.6,25.2c-1.8,4.8-3,10.6-3,17.2
			c-4.5,0.7-8.9,1.6-13.4,2.5c5-5.1,9.8-10.4,14.3-15.9c3-3.7-2.2-9-5.3-5.2c-6,7.3-12.4,14.2-19.2,20.7c-1.5,1.4-1.4,3.2-0.5,4.5
			c-0.9,1.6-0.7,4.1,0.1,8.3c0.2,1.1,1.1,2.4,2.1,3c2.5,1.5,4,3.4,4.9,6c2.3,6.6,4.8,13.1,7.1,19.7c2.7,7.6,7.6,13,14.3,16.4
			c1,8.2,2.3,16.5,4.4,24.6c0.5,2.9,1.1,5.7,1.9,8.5c3.2,11,9.1,21,20.3,28.7c2.4,1.8,5.1,3.4,8.1,4.8l-30.2-2.7
			c-31-3-49.5,20-49.5,20l1,2.4c-4.7,4.4-6.5,8-6.5,8c0,0,0,0,0,0l-11.8,8.6c-2.7,0.7-5.5,0.7-8.3,0.1c-1.3,5,0.7,10,0.2,15.1
			c-0.3,3.4,2.3,6.2,2.5,9.4c-3.3,8.8-4.8,18.2-4.9,27.5l0,0l0,0c0,7.8,1,15.6,2.9,23.1c2,7.2,0.1,14.7-1.8,21.7
			c1.8-0.3,3.5-0.7,5.3-1.1c-0.4,1.8-0.9,3.6-1.4,5.4c2.4-0.2,4.7-1,6.9-1.8c6.6,13.9,15.5,26.7,26.1,37.8c-1.6,2.6-3.7,4.9-4.9,7.8
			c-3.9,8.8-3.4,19.3,1.2,27.7c5.1,9.4,13.5,16.7,22.4,22.5c2.8,2,6.1,3.3,8.7,5.6c-7.6,1.4-15.4,2.8-22.5,6c-1.9,1-4.4,2.2-4.6,4.7
			c0.6,2.4,3,3.4,4.9,4.4c8.5,3.8,17.7,4.9,26.7,6.7c6.7,5.2,13.3,11.1,21.6,13.4c3,0.3,6-0.4,8.9-0.6c21.6-2.1,43.2-4.3,64.8-6.5
			c12.8-0.4,25.7,0.1,38.5-0.7c16.6-0.3,33.3-1.6,49.8-2.9c13.7-1.5,27.5-3,40.8-6.5c4.3-1.3,8.9-2.3,12.4-5.4c1.2-1,1.4-3,0.2-4.1
			c-2.7-2.7-6.6-3.8-10.2-4.9c-5.5-1.8-11.3-2.6-17-3.9c11.9-7,23.9-14.9,31.3-26.9c6.2-9.6,6.5-22.9,0-32.5
			C697,447.6,690.7,443.6,684.2,440.6z M665.8,197c0.2-2.5,0.4-4.9,0.5-7.4c0.1-2.5,0.1-5,0.1-7.5c0.3-2.2,0.6-4.5,0.9-6.8
			c0.8-6.8,1.1-13.8-0.4-20.2c7.4,2.4,10,5.9,10,13.5c-0.1,10.3-1.9,20.3-7,29.6c-1.2,2.1-2.7,3.9-4.4,5.4
			C665.5,201.4,665.7,199.2,665.8,197z M690,357.6c-0.8-2.8-1.6-5.8-2.4-9.1C688.5,351.5,689.3,354.5,690,357.6z M594.6,293
			c1.4-0.7,2.1,2.1,0.6,2.3C594.2,295.2,593.9,293.7,594.6,293z M661.8,177c-0.3,6.4-1.1,13.1-3.2,19.3c0.1,0.6,0.1,1.1,0.1,1.6
			c-0.1,1.1-0.1,2.2-0.2,3.3c0,0.2,0,0.4,0.1,0.6c0.1,0.7,0,1.3-0.3,1.8c-0.1,0.9-0.2,1.9-0.2,2.8c0,0.5-0.1,0.9-0.1,1.4
			c0,0-0.1,0-0.1,0.1c-8,2.9-16.3,3.8-25.3,3.9c-10.2-0.2-20.5-1.8-30.4-5.5c-5.3-2-9.7-5-12.8-9.5c-1.1-1.5-2.1-3.1-3-4.7
			c1.2,0.7,2.4,1.3,3.7,1.9c-1.9-2.4-4.5-3.8-6.2-6.6c0,0,0-0.1-0.1-0.1c9.6,2.3,14.3,6.8,24,0.5c-1.1,2.8-3,5.2-4.5,7.9
			c3.5-2.2,5.9-6.2,8.9-9.2c-1.4,4.7-4.8,7.7-7.6,11.4c3.8-1.2,6.3-5,9.3-7.6c-0.9,3.2-3.7,5.5-5.6,8.1c8.3-3.1,12-11.1,15.5-18.8
			c2.6-5.6,8.9-2.5,12.6,0.2c-6.7-23.2-33.2-12.8-49.3-9c-2.5,0.7-5.1,1.2-7.7,1.4c-0.1-1-0.2-2-0.2-3c-0.3-6.1,2.7-10.5,8.6-13.2
			c6.3-2.9,12.9-4.4,19.7-5.3c4-0.3,7.9-0.6,11.8-1.1c13.4-0.7,26.7,0.3,39.8,3.3c0.2,0.5,0.3,1.1,0.2,1.8c0,0.2,0,0.4-0.1,0.6
			C661.7,162.2,662.1,170,661.8,177z M585.7,180.3c1.1-1.7,3.3-2.2,5-2.6c6-1.5,12.4-3.3,18.4-4.7c1.9-0.2,3.4-0.6,5.1-0.2
			c1.5,0.7,1.1,2.7,0.1,3.7c-2.7,3.6-7.1,5.9-11.3,7.1c-4.7,1.1-10.1,1.4-14.9-0.4v0C587.1,182.5,585.3,182,585.7,180.3z
			 M668.6,113.8c0-0.4,0.2-1,0.2-1.4c0-1.4,0.5-2.7,1.5-3.4C669.8,110.7,669.3,112.1,668.6,113.8z M454.3,116.6
			c1,0.6,1.6,1.9,1.7,3.3c0,0.4,0.3,1,0.3,1.3C455.5,119.6,454.8,118.2,454.3,116.6z M452.1,194.3c-3.4-8.6-5.3-17.4-5-26.5
			c0.2-7.1,2.9-10.5,10.2-12.8c0.3-0.1,0.7-0.2,1-0.3c0.1,0.8,0.2,1.6,0.3,2.5c-0.2,0-0.4,0-0.6-0.1c1.8,16.2,2.3,32.6,4,49
			C457.4,203.3,454.1,199.5,452.1,194.3z M455.3,99.3c-0.3-0.5-0.5-1.1-0.8-1.5c-0.5,1.2-0.8,2.3-0.9,3.5c-0.4-1.8-0.5-3.5-0.2-5.4
			c0,0-0.1-0.1-0.2-0.3c0.4-2.2,0.8-5.1,1.5-7.4c-0.4,0.2-1,0.4-1.3,0.4c-0.1-0.1-0.2-0.2-0.4-0.2c2-2.9,4.4-5.4,8-6.5
			c1.9-1,3.9-1.4,5.9-1.4c2,0.1,4,0.6,6,1.3c5.2,2.4,11.5,4.2,13.8,10.4c0.8-0.9,2.4-1.8,3.2-1.8c1.4,1.1,2.2,3.8,2.2,5.5
			c10.6-14.7,25.4-23.5,41.5-27.8c2.7-0.7,5.4-1.3,8.1-1.7c28.4-5.1,66.3-3.3,86.8,22.4c0.8,0.9,3.9-2.7,7.9-2.7
			c0.8,0,1.6-1.8,1.9-3.6c1.7-1,3.5-2.2,5.3-3.4c5.5-3.5,11.5-6.8,17.5-4.2c3.6,0.8,6.2,3.1,8.4,5.8c-0.2,0-0.2,0.2-0.4,0.2
			c-0.3,0-0.9-0.2-1.3-0.3c0.9,2.3,1.5,5.1,2,7.2c-0.1,0.2-0.2,0.3-0.2,0.3c0.4,1.8,0.5,3.6,0.2,5.4c-0.2-1.2-0.5-2.3-1.1-3.4
			c-0.3,0.4-0.5,1-0.7,1.5c-0.7,6.4-2.4,12.6-6,17.7c1.2-3.5,2.9-7.3,3.2-11.1c-2.5,6.4-5.9,13.2-11,17.4c-0.4-0.5-0.8-0.9-1.1-1.3
			c1-1.4,1.8-2.9,2.4-4.5c-1.3,1-2.2,2.2-3.4,3.4c-1-1-1.6-1.5-1.6-1.5l0.6,2.4c-1.8,1.6-3.7,2.7-5.8,3.3c-0.4-0.4-1-0.4-1.5-0.6
			c1.2-0.9,2.4-2.2,3.5-3.5c-1.5,1.2-3.1,2.1-4.9,2.8l-0.8-0.3c0.1,0,0.1-0.1,0.1-0.1c-1,0.3-2.1,1-2.6,1.5l0,0.8
			c1.3-0.9,3.1-1,4.6,0.5c5,5,8.1,12.2,10.7,18.8c0.1,0.2,0.1,0.3,0.2,0.5c0.3-0.2,0.7-0.4,1-0.5c-0.1-1.3,0.1-2.5,0.3-3.7l3.6,15.1
			c-3.5-0.5-7.1-1-10.6-1.4c-4.1-0.4-8.2-0.7-12.3-1c0.2-0.3,0.4-0.6,0.6-0.9c-0.4,0.1-1.2,0.2-1.6,0.3c-4.9-0.2-9.9,0.2-14.8-0.4
			c5.6-0.2,10.9-1.3,16.3-1.9c1.9-0.7,1.4-2.3,1.9-3.4c-2.8,0.8-5.8,1.2-8.7,1.6c-1.6-0.1-3.2,0.2-4.7,0.3c3.9-1.2,8-2.1,11.9-3.3
			c0.7-0.4,1.9-0.6,1.8-1.3c0-2.2-0.1-4.5-1-6.7c-1.6,0.3-3.1,0.7-4.7,1.1c-19.2,4.3-38.8,8.3-59.2,9.8c-0.3,0-1,0-1.3,0
			c0.6,1.8,0,3.9,1.2,5.6c3.2-0.1,6.3,0,9.5,0.2c-2.6,0.6-5.5,0.8-8.2,1.2c-2.2-0.2-1.3,1.3-0.8,2c4.4,0.7,9,0.7,13.4,0.8
			c0,0,0,0,0,0c-4.1,1.1-8.1,2.5-12.2,4.1c-9.1,3.6-19,3.5-28.3-0.1c-16.6-6.3-33.8-9.3-51.4-8.8c-10.9-0.2-21.5,0.7-32,2.2l1.7-7.3
			c0.5,0.4,1,0.9,1.5,1.4c0.1,0.2,0.3,0.4,0.4,0.6c0.3-0.4,0.6-0.7,1-1c2.4-7.1,5.8-14,10.8-19.4c0,0,0,0,0,0
			c-2.5-0.5-4.8-1.7-7-3.5c-0.4-0.3-0.8-0.7-1.2-1l0.9-3.7c0,0-0.9,0.8-2.3,2.4c-0.3-0.3-0.7-0.6-1.1-0.8c0.2,0.4,0.4,0.9,0.7,1.3
			c-0.5,0.6-1.1,1.3-1.7,2.1c-4-3.8-7-9-9.5-14c0.5,3.8,2.6,7.4,4,10.7C458.5,111.7,456.4,105.6,455.3,99.3z M651.9,117.5
			c-0.5,0.3-1,0.6-1.6,0.8c0.4-0.6,0.9-1.2,1.3-1.8L651.9,117.5z M470.7,122l0.5-2.1c1.1,1.5,2.4,2.9,3.6,4.3
			C473.4,123.6,472,122.8,470.7,122z M466.2,201.5c0.2,0.4,0.5,0.8,0.7,1.1c0-0.2,0-0.4,0.1-0.6c1.7-7.6-1.4-15.6-2.9-22.9
			c-1.2-6-1.9-12-0.3-17.8c-0.1,0-0.2,0.1-0.3,0.1c0-2.2,0-3.7,0.5-5.5c-0.5-0.1-0.9-0.1-1.4-0.2l0.6-2.3
			c11.2-2.8,22.7-3.6,34.4-3.9c11.5,0.4,23.1,1.1,34.2,4.9c1.6,0.5,3.1,1.2,4.6,1.9c6,2.7,8.9,7.3,8.4,13.3
			c-0.1,0.9-0.2,1.8-0.3,2.7c-2.6-0.2-5.1-0.7-7.6-1.4c-16.2-3.8-42.6-14.3-49.3,9c3.8-2.7,10-5.8,12.6-0.2
			c3.5,7.7,7.2,15.7,15.5,18.8c-1.9-2.6-4.7-4.9-5.6-8.1c3,2.6,5.4,6.3,9.3,7.6c-2.8-3.8-6.2-6.7-7.6-11.4c3,3,5.5,6.9,8.9,9.2
			c-1.5-2.6-3.4-5-4.5-7.9c9.7,6.4,14.4,1.8,24-0.5c-1.7,2.9-4.4,4.3-6.3,6.7c1.3-0.6,2.5-1.3,3.8-1.9c-1.9,3-4.1,5.9-6.7,8.7
			c-4.3,4.5-10.4,6.3-16.4,7.9c-14.9,3.9-29.9,4.4-45,0.4c-0.9-0.2-1.7-0.5-2.5-0.8C466.6,206,466.4,203.8,466.2,201.5z
			 M535.9,183.2L535.9,183.2c-4.8,1.8-10.2,1.5-14.9,0.4c-4.2-1.2-8.6-3.5-11.3-7.1c-0.9-1-1.3-3,0.1-3.7c1.7-0.4,3.2,0,5.1,0.2
			c6,1.4,12.4,3.2,18.4,4.7c1.7,0.4,3.9,0.8,5,2.6C538.7,182,536.9,182.5,535.9,183.2z M477.2,245.6c-1.1-2.6-2-5.3-2.8-8.1
			c-2.1-8.7-4.9-17.1-6.7-25.6c1.8,0.6,3.7,1.1,5.7,1.5c15.1,3,30.1,1.3,44.9-1.7c11.4-2.3,20.2-9.6,24.2-20c0.3-0.9,0.7-1.8,1-2.6
			c0.7-0.3,1.4-0.6,2.1-0.8c0.2-0.1,0.4-0.2,0.6-0.3c2.2-4.9,3.2-10.1,3.4-15.3c0.2-0.5,0.4-1,0.5-1.6c1.5-4.3,3.5-6.1,8.4-6.5
			c1.5-0.1,3-0.1,4.5-0.1c7.1,0.1,9.3,1.9,11.3,8.2c0,0.1,0.1,0.3,0.1,0.4c0.2,5,1.2,10,3.3,14.8c0.2,0.1,0.4,0.2,0.6,0.3
			c0.3,0.1,0.7,0.2,1,0.4c0.6,1.6,1.3,3.2,2.1,4.7c5.1,10,12,14.6,23.9,18.2c9.1,2.8,17.7,3.8,27.3,3.8c7.4,0,15.6-1,22.5-3.2
			c0.9-0.3,1.7-0.6,2.6-0.9c-0.1,0.9-0.2,1.7-0.3,2.6c-0.5,28.5-17.2,56.4-48,64.9c-1.4,0.8-3.1,1.7-4.9,2.7
			c-5.5,3-11.7,6.4-11.7,6.4c-1-2.2-2.1-4.3-3.2-6.4c0.1,0.1,0.1,0.1,0.2,0.2c5-5.1,10.9-9.7,14.2-15.5c1.9-2.4,3.6-5,5.1-7.6
			c4.3-7.8,6.2-16.9,2.3-28.5c-1.4-3.1-2.8-5.9-4.1-8.6c-1.1-2.1-2.2-4.6-3.5-6.8c-1.3-2.2-2.9-4-5.1-4.7c1.2,1.6,2.5,3.7,3.7,6.1
			c2.5,4.8,4.8,10.8,5.8,16.5c0.5,2.9,0.7,5.7,0.5,8.3c-0.5,2.9-1,6.7-3.3,9.1c1.6-1.1,3-2.4,4.5-3.7c-5.4,11.8-10.7,30.3-21.3,33
			c-0.6-1.1-1.1-2.2-1.7-3.3c0.7,5.4,1.8,10.7,2.5,16c0.8,1.9,0.8,4,0.4,6.1c-2.1,1.3-4.1,2.6-6.1,3.9c0,0.3,0,0.6,0,0.9
			c0,3.4-3.8,4.4-6,2.9c-0.6,0.4-1.1,0.7-1.7,1l-5.3-16.1l1.9,18.2c-2.7,1.7-5.5,3.3-8.3,5c-1,0.6-2.2,0.9-3.3,1.4l0,0.2
			c-0.5,0.2-1.5,0.5-2,0.6c-2.6-1.5-5.1-3.3-7.7-4.8c0-0.4,0-0.8-0.1-1.2c-1.1,0.4-2.3,0.4-3.3-0.1l2.3-22.6l-4.4,20.4
			c-3.4-2.4-7-4.7-10.3-7.3c-1-2.9-0.3-6.2-0.8-9.3c-0.8,2.4-1.5,4.8-2.2,7.2c-0.9-0.8-2.5-1.2-2.3-2.6c0-6.5,1-12.8,2.1-19.2
			c0,0,0-0.1,0.1-0.1c0,0,0,0,0,0c0.5-2.9,1.1-5.8,1.6-8.8c-0.3-0.1-0.8-0.2-1-0.2c-1,2.5-1.8,5-2.6,7.6c-0.1,0-0.1-0.1-0.2-0.1
			c-5.4-4.9-9-11-11-18.1c-0.9-2.4-1.7-4.9-2.5-7.4c-0.7-2.5-1.4-5-2.1-7.4c1.6,1.1,3,2.7,4.4,4.3c-0.1-0.2-0.3-0.4-0.4-0.6
			c-1.6-2.7-2.8-6.1-3.2-9.7c-1-8.5,1.5-18.1,5.9-24c-3.6-1.3-7.1,2.3-7.9,7.1c0.9-1.2,1.7-2.4,2.6-3.6c-1.6,9.6-9.5,16.7-6.7,27.6
			l0.9-1.2c2.7,4.8,5.3,9.5,4.7,15.3c0.2-0.8,0.8-0.9,0.8-2c0.8,2.6,1.9,5,3.2,7.3c3.1,4.9,7.2,9.9,10.7,15.2
			c-0.7,2.4-1.4,4.8-2.1,7.2l0,0.9c-2.4-1.3-4.8-2.7-7.1-4.2c0.1-0.6,0.2-1.1,0.3-1.7c-1.6,0.4-3.6-0.1-4.8-1.3c0,0,0,0.1-0.1,0.1
			c-2.2-1.2-4.4-2.4-6.5-3.6c-3.5-0.9-6.7-2.1-9.5-3.5c-2.8-1.4-5.3-3.1-7.4-5C485.3,260.8,480.5,253.5,477.2,245.6z M550.7,315.6
			l-3.1-2.1l0.1-1.4c0.6,0.3,1.1,0.7,1.5,1.4C549.7,314.3,550.2,315,550.7,315.6z M486.4,427.5c4,5.3,2.6,20.9,2.6,20.9
			c-0.6,3.1-2.2,7.1-6,7.1c-3.2,0.2-5-2.9-5.7-5.5c-1.7-6.1-2-12.6-1-18.8c0.4-1.3,1.2-2.9,2.3-3.8c0.6-0.2,1.2-0.4,2-0.8
			C482.5,426.4,484.7,426.3,486.4,427.5z M461.2,365.2l18-15.6c-0.1,1-0.3,1.9-0.4,2.9c-0.6,5.1-4.1,9.1-7.2,12.9
			c1.7,0.4,3.4,0.7,5.1,1c-0.5,3.2-2.8,5.5-4.6,7.9c1.2,0.3,2.4,0.6,3.6,1c-1.5,9.7-3.4,19.3-5.8,28.8c-1.1-1.6-2.1-3.3-2.9-5.1
			c-3.9-8.1-7.5-16.4-10.2-25L461.2,365.2z M398.4,319l6.8,8.5c-3.3-2.2-6.8-4.6-8.2-8.5C397.5,319,398,319,398.4,319z M405,404.1
			c-5.3-12.1-8.9-25.3-9.1-38.6l53.8,7.5c2.4,7.7,5.5,15.3,8.8,22.7c4.5,9.9,9.5,19.6,15.4,28.7c0,0.2,0.1,0.4,0.1,0.6
			c-0.2,0.6-0.6,1.5-0.8,2c-0.1,0.4-0.2,1.3-0.3,1.8c-1.3-1.9-2.6-4.1-4.8-5.1c-1.9-1.1-4.2-1.1-6.3-1.3c-5.9,0.2-11.3,4-13.3,9.6
			c-2-2.3-4.7-4.4-7.9-4.5c-3.3-0.3-6.3,1.4-8.8,3.4c-2.8,2.8-3.5,6.7-3.4,10.5C419.2,429.8,410.9,417.6,405,404.1z M470.8,443.8
			c-0.1,4.2,0.2,8.6-1.9,12.4c-1.3,2.8-4.3,5-7.5,4.8c-3.9-0.7-6-4.6-6.3-8.2c-0.9-5.8-2.9-11.5-3-17.4c0.9-3.4,2.9-6.8,6.4-7.9
			c4.2-2,9.6,0.2,11.2,4.5C471,435.8,470.8,439.9,470.8,443.8z M450.6,456.7c-0.1,5.1-6.4,8-10.5,5.3c-5.8-3.8-7-11.4-7.9-17.7
			c0-4.5,1.9-9.4,6.3-11.2c3.2-0.7,6.3,1.3,8.1,3.9C448.8,443.3,450,450,450.6,456.7z M425.7,470.6c0-3.9,0.7-7.7,2.2-11.3l0.1,0.3
			C426.6,463.1,425.8,466.8,425.7,470.6z M444.6,468.6c-6.7,1-10.7-5.8-13.8-10.9c-0.1-0.4-0.2-1.2-0.3-1.6c-0.9,1-1.7,2.1-2.5,3.1
			l-0.1-0.3c0.8-1.1,1.7-2.1,2.6-3.1c0.1,0.4,0.2,1.2,0.3,1.6c3.1,4.8,7.1,11.4,13.8,10.4c4.8,0,7.6-4.4,9-8.5
			c3.1,6.8,13.8,7.1,17.9,1.2c1.3-2.1,2-4.6,2.9-6.9c2.2,4.2,7.1,7.2,11.9,5.7c2.7-0.7,4.4-3,5.6-5.3c0.9,0.3,1.8,0.6,2.7,0.9
			c1.9,0.6,3.7,1.2,5.6,1.9c0.2,0.2,0.3,0.3,0.5,0.5c-2-0.7-4.1-1.4-6.1-2.1c-0.9-0.3-1.8-0.6-2.7-1c-1.2,2.4-2.9,4.9-5.6,5.6
			c-4.7,1.6-9.7-1.6-11.9-6c-0.9,2.4-1.6,5-2.9,7.2c-4.1,6.3-14.8,6-17.9-1.2C452.2,464,449.4,468.7,444.6,468.6z M449.6,503.4
			c-0.5-2-0.7-4-0.8-6l-0.4-0.3c0.1-0.7,0.1-1.4,0.2-2.1l0.2,0.1c0.1,3.1,0.7,6.1,1.7,9C450.3,503.8,450,503.6,449.6,503.4z
			 M535.9,535c0.2-0.9,0.3-1.8,0.5-2.8c-1.7,0.7-3.4,0.8-5,0.6c0,0.3-0.1,0.7-0.1,1c-11.7,2.8-23.6,4.6-35.5,6.4
			c-4.2,0.4-8.5,1.6-12.7,1.1c-3.1-1.4-5.9-3.6-8.1-6.2c1.9-0.8,3.9-1.6,5.9-2.3c1.2-0.6,2.5-1.3,3.7-1.9c-1.5,0.3-3,0.5-4.6,0.8
			c-2.3,0.3-4.6,1.1-6.9,0.8c-1.7-2.1-2.6-4.6-3.7-7.1c2-0.9,4.1-1.8,6.2-2.5c0.6-0.3,1.3-0.7,1.9-1c-0.6,0-1.9-0.1-2.5-0.1
			c-2.2,0.2-4.3,0.9-6.5,0.6c-1.2-2.8-1.4-5.8-1.5-8.8c2.2-0.2,4.4-0.6,6.6-0.7c2.1-0.2,4.3-0.3,6.3-1c-3.2-1-6.5-1.2-9.8-1.4
			c-1.2,0.2-1.8-0.9-2.4-1.7c-2.7-4.4-5.1-9.1-6.6-14c-0.4,5.3,0.7,10.6,2.8,15.4c-4.7-0.5-8.3-4.3-9.9-8.4
			c-1.7-3.8-1.9-8.1-1.5-12.2c0.2-3.1,3.1-5.8,6.2-5.6c2.8-0.3,5.6,0.3,8.3,0.7c6.5,0.8,13,1.6,19.5,2.4c9,1.5,18.2,1.3,27.3,1.8
			c0.3,0,0.8,0,1.1,0.1c2.3-0.3,4.7-0.3,7,0c0.1,0.4,0.2,0.8,0.3,1.1h6.3c-0.6-1.2-1.1-2.5-1.3-3.8c11.9,0.5,23.3-2.9,34.6-6.3
			c-5.4,5-12.1,8.3-18.9,11.2c-1.8,0.8-3.5,2.2-4.1,4.1c-0.5,2.3,1.1,4.2,2.7,5.6c3.7,3,8.3,4.4,12.9,5.1c4.2,0.4,8.6,0.4,12.8-0.3
			c2.1,7.6,3,15.5,3,23.4l1,0.7C559.4,530.5,547.6,532.4,535.9,535z M629.7,482.9c-0.6-0.4-1.7-1.2-2.3-1.6
			c-0.8-0.8-1.5-1.7-2.2-2.6c-0.8,1.2-1.7,2.3-2.5,3.5c0.9,1.7,2,3.3,3,5c-1.3,4.8-3.4,9.3-5.8,13.6c-0.5,1-1.2,2.1-0.7,3.2
			c1.5,5.9,3.3,11.7,4.6,17.7c0.5-1.4,1-2.8,1.4-4.2c2.3,0,5.1-0.8,7.2,0.6c2.2,2.6,2.5,6.4,1.9,9.6c-4,1.6-8.1,2.7-12.3,3.8
			c-4.2,1.2-10,2.7-13.3-1c-0.9-7.4-1.5-15.4-6.7-21.2c0,0.3-0.1,1-0.2,1.4c1.9,3.3,1.6,7.2,2.1,10.9c0.3,2.6,0.4,5.2,0.1,7.8
			c-2.9,0.8-6,1.1-9.1,0.7c-0.9-0.1-1.8-0.2-2.7-0.2c-0.4-7.5-1.1-15.4-5.4-21.7c0.2,1.5,0.5,2.9,0.5,4.4c1.5,4.2,0.6,8.8,0.8,13.2
			c-0.2,1.6,0.3,3.7-0.9,4.9c-3.9,0.4-8.2,0.4-11.4-2.2c-0.5-0.7-1-1.3-1.5-2c-0.8-9.1-1.1-18.6-4.9-27.2c-1.1-2.5-2.9-4.6-4.6-6.6
			c-0.3,0.2-0.9,0.5-1.2,0.7l0.2,0.3c1.3,2.5,2.1,5.3,2.5,8.1c-6.7,1.6-14.7,1.8-20.3-2.8c-1.6-0.8-2.3-3.6,0-4
			c9.9-2.8,18.7-9.5,23.7-18.5c1.1-2.5,2.3-4.9,3.5-7.3c0.8,0,1.6-0.1,2.4-0.2c0.5-1.1,1.2-2.2,1.8-3.3c-0.1-0.4-0.2-0.8-0.2-1.2
			c0-0.4,0-0.8,0.2-1.2c-1.2,0.2-2.4,0.4-3.6,0.6c0.6-1.5,1.2-3,2.2-4.2c6.1-11.5,15.5-20.8,25.3-29.1
			c12.5-10.5,26.4-19.4,40.6-27.5c5.3-2.8,10.5-6.5,16.6-6.9l38.2,13.6c-2.2,0.4-4.5,0.8-6.7,0.2c-0.7,0-2.2,0.1-2.9,0.2
			c1.5,1.1,3.2,1.9,4.9,2.5c0.7,2,1.6,4,2.7,5.8c-2.2,2.6-5.7,3.3-8.9,3.7l-0.5,0.9c0.5,0.1,1.5,0.3,2,0.3
			C675,448.7,654.5,469.8,629.7,482.9z"/>
	</g>
</g>
<g>
	<path d="M92.9,168.2L66.2,58.6h28.2l13.8,68.6c0.4,2,0.7,4,1,5.9c0.3,1.9,0.4,3.3,0.4,4.2v1.4h0.3c0.1-3.2,0.7-7,1.8-11.5
		l16.9-68.6h21.6l16.4,68.6c0.5,2,0.9,4,1.2,5.9c0.3,1.9,0.5,3.3,0.6,4.2v1.4h0.3c0-3.2,0.5-7,1.4-11.5l15-68.6H213l-27.8,109.7
		h-29.9l-13.8-55.4l-2.1-12.9h-0.3c-0.3,3.9-1,8.2-2.1,12.9l-13.8,55.4H92.9z"/>
	<path d="M225.9,168.2V58.6h68.7v23h-41.9v19.9h33.4v23h-33.4v20.7h44v23H225.9z"/>
	<path d="M314,168.2V58.6h40.3c11.2,0,20.3,2.5,27.1,7.4c6.8,5,10.2,12,10.2,21.2c0,4.7-1.1,9.2-3.4,13.4c-2.3,4.2-5.4,7.5-9.4,9.9
		v0.3c5.8,1.7,10.1,4.9,13,9.6c2.8,4.7,4.2,9.7,4.2,15.1c0,11.1-3.9,19.4-11.8,24.7c-7.9,5.3-17.8,8-29.9,8H314z M340.8,101.1h13.8
		c3.2,0,5.6-1,7.2-2.9c1.6-1.9,2.5-4.3,2.5-7.2c0-2.8-0.8-5-2.5-6.7c-1.7-1.7-4.2-2.6-7.6-2.6h-13.3V101.1z M340.8,145.2h16.1
		c3.7,0,6.5-1.1,8.6-3.3c2-2.2,3.1-4.9,3.1-8.2c0-3.3-1-6-2.9-8.1c-1.9-2.1-4.8-3.1-8.6-3.1h-16.3V145.2z"/>
</g>
<g>
	<path d="M100.2,232.6v-19.5h11.7v3.1h-8.1v5.1h6.6v3.1h-6.6v5.3h8.6v3.1H100.2z"/>
	<path d="M115.1,232.6l1.6-19.5h3.8l3.9,9.7l1,2.9h0.1c0.3-1.1,0.7-2.1,1-2.9l3.9-9.7h3.8l1.6,19.5H132l-0.8-10.9
		c0-0.4-0.1-0.8-0.1-1.3c0-0.5,0-0.9,0-1.2v-0.5h-0.1c-0.4,1.3-0.8,2.3-1.1,3l-3.2,7.6h-3.1l-3.2-7.6l-1.1-3.1h-0.1
		c0.1,1.2,0,2.2,0,3.1l-0.8,10.9H115.1z"/>
	<path d="M139.5,232.6v-19.5h7.5c1.8,0,3.3,0.6,4.5,1.8c1.2,1.2,1.7,2.7,1.7,4.6c0,1.9-0.6,3.4-1.7,4.6c-1.2,1.2-2.7,1.8-4.5,1.8h-4
		v6.7H139.5z M143.1,222.8h3.3c1,0,1.8-0.3,2.4-0.9c0.6-0.6,0.9-1.4,0.9-2.4c0-1-0.3-1.8-0.9-2.4c-0.6-0.6-1.4-0.9-2.4-0.9h-3.4
		V222.8z"/>
	<path d="M156.4,232.6v-19.5h3.6v19.5H156.4z"/>
	<path d="M164.7,232.6v-19.5h11.7v3.1h-8.1v5.1h6.6v3.1h-6.6v5.3h8.6v3.1H164.7z"/>
	<path d="M179,232.6v-2.3l8.7-12.4c0.2-0.3,0.4-0.6,0.7-0.9c0.2-0.3,0.4-0.5,0.6-0.6l0.2-0.2v-0.1c-0.4,0-0.9,0.1-1.5,0.1h-8.2v-3.1
		h14.1v2.3l-8.7,12.5c-0.2,0.3-0.4,0.6-0.7,0.9c-0.2,0.3-0.4,0.5-0.6,0.6l-0.2,0.2v0.1c0.4,0,0.9-0.1,1.5-0.1h8.8v3.1H179z"/>
	<path d="M195,232.6l6.9-19.5h3.7l6.9,19.5h-3.6l-1.7-5h-6.9l-1.7,5H195z M201.2,224.7h5.1l-1.7-5.2l-0.8-3h-0.1
		c-0.3,1.3-0.6,2.3-0.8,3L201.2,224.7z"/>
	<path d="M218.1,232.6l6.9-19.5h3.7l6.9,19.5h-3.6l-1.7-5h-6.9l-1.7,5H218.1z M224.3,224.7h5.1l-1.7-5.2l-0.8-3h-0.1
		c-0.3,1.3-0.6,2.3-0.8,3L224.3,224.7z"/>
	<path d="M243.1,222.8c0-2.9,0.9-5.2,2.8-7.2c1.9-1.9,4.3-2.9,7.2-2.9c3,0,5.4,0.9,7.2,2.7l-1.7,2.6c-0.7-0.6-1.6-1.1-2.5-1.5
		c-1-0.4-1.9-0.6-2.8-0.6c-2.1,0-3.7,0.6-4.8,1.9c-1.2,1.3-1.7,2.9-1.7,4.8c0,1.9,0.6,3.6,1.8,4.9c1.2,1.4,2.8,2.1,4.8,2.1
		c2.1,0,4-0.8,5.7-2.5l1.9,2.6c-2.1,2.1-4.6,3.2-7.7,3.2c-3,0-5.5-1-7.3-2.9C244,228.2,243.1,225.7,243.1,222.8z"/>
	<path d="M262.3,222.7c0-2.8,0.9-5.2,2.8-7.1c1.9-1.9,4.3-2.9,7.3-2.9s5.4,1,7.3,2.9c1.9,1.9,2.8,4.3,2.8,7.1c0,2.9-0.9,5.3-2.8,7.3
		c-1.9,2-4.3,2.9-7.3,2.9s-5.4-1-7.3-2.9C263.2,228.1,262.3,225.6,262.3,222.7z M265.9,222.7c0,2,0.6,3.7,1.8,5c1.2,1.3,2.8,2,4.6,2
		c1.9,0,3.4-0.7,4.6-2c1.2-1.3,1.8-3,1.8-5c0-1.9-0.6-3.5-1.8-4.8c-1.2-1.3-2.8-1.9-4.6-1.9c-1.9,0-3.4,0.6-4.6,1.9
		C266.5,219.2,265.9,220.8,265.9,222.7z"/>
	<path d="M286.1,232.6v-19.5h3.6l7.4,11.3c0.2,0.3,0.5,0.8,0.7,1.3c0.3,0.5,0.5,0.9,0.6,1.3l0.2,0.5h0.1c-0.1-1.2-0.2-2.3-0.2-3
		v-11.3h3.5v19.5h-3.5l-7.4-11.3c-0.2-0.3-0.5-0.8-0.7-1.3c-0.3-0.5-0.5-0.9-0.6-1.3l-0.2-0.5h-0.1c0.1,1.2,0.2,2.3,0.2,3v11.3
		H286.1z"/>
	<path d="M306.8,232.6v-19.5h11.7v3.1h-8.1v5.1h6.6v3.1h-6.6v5.3h8.6v3.1H306.8z"/>
	<path d="M320.9,222.8c0-2.9,0.9-5.2,2.8-7.2c1.9-1.9,4.3-2.9,7.2-2.9c3,0,5.4,0.9,7.2,2.7l-1.7,2.6c-0.7-0.6-1.6-1.1-2.5-1.5
		c-1-0.4-1.9-0.6-2.8-0.6c-2.1,0-3.7,0.6-4.8,1.9c-1.2,1.3-1.7,2.9-1.7,4.8c0,1.9,0.6,3.6,1.8,4.9c1.2,1.4,2.8,2.1,4.8,2.1
		c2.1,0,4-0.8,5.7-2.5l1.9,2.6c-2.1,2.1-4.6,3.2-7.7,3.2c-3,0-5.5-1-7.3-2.9C321.8,228.2,320.9,225.7,320.9,222.8z"/>
	<path d="M346.2,232.6v-16.5h-6.4v-3.1h16.3v3.1h-6.4v16.5H346.2z"/>
	<path d="M355.1,232.6l6.9-19.5h3.7l6.9,19.5H369l-1.7-5h-6.9l-1.7,5H355.1z M361.3,224.7h5.1l-1.7-5.2l-0.8-3h-0.1
		c-0.3,1.3-0.6,2.3-0.8,3L361.3,224.7z"/>
	<path d="M375.2,232.6v-19.5h6.4c1.7,0,2.9,0.2,3.7,0.5c1,0.4,1.8,1.1,2.4,2c0.6,0.9,0.9,2,0.9,3.3c0,1.2-0.3,2.3-0.9,3.3
		s-1.4,1.7-2.4,2.1v0.1c0.2,0.2,0.4,0.5,0.6,1l4,7.3h-4l-3.9-7.3h-3.4v7.3H375.2z M378.7,222.3h3.2c1,0,1.7-0.3,2.3-0.8
		c0.6-0.6,0.8-1.3,0.8-2.3c0-1.4-0.5-2.2-1.5-2.7c-0.5-0.2-1.2-0.3-2.1-0.3h-2.6V222.3z"/>
	<path d="M99.1,255.8c0-2.9,0.9-5.2,2.8-7.2c1.9-1.9,4.3-2.9,7.2-2.9c3,0,5.4,0.9,7.2,2.7l-1.7,2.6c-0.7-0.6-1.6-1.1-2.5-1.5
		c-1-0.4-1.9-0.6-2.8-0.6c-2.1,0-3.7,0.6-4.8,1.9c-1.2,1.3-1.7,2.9-1.7,4.8c0,1.9,0.6,3.6,1.8,4.9c1.2,1.4,2.8,2.1,4.8,2.1
		c2.1,0,4-0.8,5.7-2.5l1.9,2.6c-2.1,2.1-4.6,3.2-7.7,3.2c-3,0-5.5-1-7.3-2.9C100,261.2,99.1,258.8,99.1,255.8z"/>
	<path d="M118.3,255.8c0-2.8,0.9-5.2,2.8-7.1c1.9-1.9,4.3-2.9,7.3-2.9c2.9,0,5.4,1,7.3,2.9c1.9,1.9,2.8,4.3,2.8,7.1
		c0,2.9-0.9,5.3-2.8,7.3c-1.9,2-4.3,2.9-7.3,2.9c-2.9,0-5.4-1-7.3-2.9C119.2,261.1,118.3,258.7,118.3,255.8z M121.9,255.8
		c0,2,0.6,3.7,1.8,5c1.2,1.3,2.8,2,4.6,2c1.9,0,3.4-0.7,4.6-2c1.2-1.3,1.8-3,1.8-5c0-1.9-0.6-3.5-1.8-4.8c-1.2-1.3-2.8-1.9-4.6-1.9
		c-1.9,0-3.4,0.6-4.6,1.9C122.5,252.3,121.9,253.9,121.9,255.8z"/>
	<path d="M142.1,265.7v-19.5h3.6l7.4,11.3c0.2,0.3,0.5,0.8,0.7,1.3c0.3,0.5,0.5,0.9,0.6,1.3l0.2,0.5h0.1c-0.1-1.2-0.2-2.3-0.2-3
		v-11.3h3.5v19.5h-3.5l-7.4-11.3c-0.2-0.3-0.5-0.8-0.7-1.3c-0.3-0.5-0.5-0.9-0.6-1.3l-0.2-0.5h-0.1c0.1,1.2,0.2,2.3,0.2,3v11.3
		H142.1z"/>
	<path d="M169.7,265.7v-19.5h3.6l7.4,11.3c0.2,0.3,0.5,0.8,0.7,1.3c0.3,0.5,0.5,0.9,0.6,1.3l0.2,0.5h0.1c-0.1-1.2-0.2-2.3-0.2-3
		v-11.3h3.5v19.5h-3.5l-7.4-11.3c-0.2-0.3-0.5-0.8-0.7-1.3c-0.3-0.5-0.5-0.9-0.6-1.3l-0.2-0.5H173c0.1,1.2,0.2,2.3,0.2,3v11.3H169.7
		z"/>
	<path d="M190.2,258.7v-12.5h3.6v12.5c0,1.3,0.4,2.3,1.2,3c0.8,0.7,1.8,1.1,3.2,1.1c1.3,0,2.4-0.4,3.2-1.1c0.8-0.7,1.2-1.7,1.2-3
		v-12.5h3.6v12.5c0,2.2-0.7,4-2.2,5.3c-1.4,1.4-3.3,2-5.7,2c-2.4,0-4.3-0.7-5.7-2C190.9,262.6,190.2,260.8,190.2,258.7z"/>
	<path d="M210.4,265.7v-19.5h11.7v3.1H214v5.1h6.6v3.1H214v5.3h8.6v3.1H210.4z"/>
	<path d="M230.9,265.7l-7-19.5h3.8l4.3,12.7l0.7,2.9h0.1c0.3-1.2,0.5-2.1,0.7-2.9l4.3-12.7h3.8l-7,19.5H230.9z"/>
	<path d="M242.5,255.8c0-2.8,0.9-5.2,2.8-7.1c1.9-1.9,4.3-2.9,7.3-2.9c2.9,0,5.4,1,7.3,2.9c1.9,1.9,2.8,4.3,2.8,7.1
		c0,2.9-0.9,5.3-2.8,7.3c-1.9,2-4.3,2.9-7.3,2.9c-2.9,0-5.4-1-7.3-2.9C243.5,261.1,242.5,258.7,242.5,255.8z M246.2,255.8
		c0,2,0.6,3.7,1.8,5c1.2,1.3,2.8,2,4.6,2c1.9,0,3.4-0.7,4.6-2c1.2-1.3,1.8-3,1.8-5c0-1.9-0.6-3.5-1.8-4.8c-1.2-1.3-2.8-1.9-4.6-1.9
		c-1.9,0-3.4,0.6-4.6,1.9C246.8,252.3,246.2,253.9,246.2,255.8z"/>
	<path d="M264.7,263.3l1.9-2.7c0.6,0.6,1.4,1.1,2.3,1.5c0.9,0.4,1.7,0.6,2.6,0.6c0.9,0,1.6-0.2,2.1-0.6s0.8-0.9,0.8-1.6
		c0-0.7-0.3-1.3-0.9-1.8c-0.6-0.5-1.4-0.9-2.3-1.3c-0.9-0.4-1.8-0.8-2.7-1.2c-0.9-0.4-1.7-1.1-2.3-1.9c-0.6-0.8-0.9-1.8-0.9-2.9
		c0-1.7,0.6-3.1,1.9-4.1c1.3-1,2.8-1.6,4.8-1.6c2.3,0,4.2,0.7,5.7,2.1l-1.6,2.9c-0.6-0.5-1.2-0.9-2-1.2s-1.5-0.5-2.3-0.5
		c-0.9,0-1.6,0.2-2.2,0.6c-0.5,0.4-0.8,0.9-0.8,1.6c0,0.7,0.3,1.2,0.9,1.7c0.6,0.5,1.4,0.9,2.3,1.2c0.9,0.3,1.8,0.7,2.7,1.2
		c0.9,0.4,1.7,1.1,2.3,1.9c0.6,0.8,0.9,1.8,0.9,2.9c0,1.7-0.6,3-1.7,4.1c-1.2,1.1-2.7,1.7-4.8,1.7c-1.2,0-2.5-0.2-3.6-0.7
		C266.6,264.9,265.6,264.2,264.7,263.3z"/>
	<path d="M287.2,255.8c0-2.9,0.9-5.2,2.8-7.2c1.9-1.9,4.3-2.9,7.2-2.9c3,0,5.4,0.9,7.2,2.7l-1.7,2.6c-0.7-0.6-1.6-1.1-2.5-1.5
		c-1-0.4-1.9-0.6-2.8-0.6c-2.1,0-3.7,0.6-4.8,1.9c-1.2,1.3-1.7,2.9-1.7,4.8c0,1.9,0.6,3.6,1.8,4.9c1.2,1.4,2.8,2.1,4.8,2.1
		c2.1,0,4-0.8,5.7-2.5l1.9,2.6c-2.1,2.1-4.6,3.2-7.7,3.2c-3,0-5.5-1-7.3-2.9C288.2,261.2,287.2,258.8,287.2,255.8z"/>
	<path d="M308.1,265.7v-19.5h3.6v16.5h8.4v3.1H308.1z"/>
	<path d="M322.8,265.7v-19.5h3.6v19.5H322.8z"/>
	<path d="M331.1,265.7v-19.5h11.7v3.1h-8.1v5.1h6.6v3.1h-6.6v5.3h8.6v3.1H331.1z"/>
	<path d="M346.7,265.7v-19.5h3.6l7.4,11.3c0.2,0.3,0.5,0.8,0.7,1.3c0.3,0.5,0.5,0.9,0.6,1.3l0.2,0.5h0.1c-0.1-1.2-0.2-2.3-0.2-3
		v-11.3h3.5v19.5h-3.5l-7.4-11.3c-0.2-0.3-0.5-0.8-0.7-1.3c-0.3-0.5-0.5-0.9-0.6-1.3l-0.2-0.5h-0.1c0.1,1.2,0.2,2.3,0.2,3v11.3
		H346.7z"/>
	<path d="M371.9,265.7v-16.5h-6.4v-3.1h16.3v3.1h-6.4v16.5H371.9z"/>
	<path d="M384.6,265.7v-19.5h11.7v3.1h-8.1v5.1h6.6v3.1h-6.6v5.3h8.6v3.1H384.6z"/>
	<path d="M398.8,263.3l1.9-2.7c0.6,0.6,1.4,1.1,2.3,1.5c0.9,0.4,1.7,0.6,2.6,0.6c0.9,0,1.6-0.2,2.1-0.6c0.5-0.4,0.8-0.9,0.8-1.6
		c0-0.7-0.3-1.3-0.9-1.8c-0.6-0.5-1.4-0.9-2.3-1.3c-0.9-0.4-1.8-0.8-2.7-1.2c-0.9-0.4-1.7-1.1-2.3-1.9c-0.6-0.8-0.9-1.8-0.9-2.9
		c0-1.7,0.6-3.1,1.9-4.1c1.3-1,2.8-1.6,4.8-1.6c2.3,0,4.2,0.7,5.7,2.1l-1.6,2.9c-0.5-0.5-1.2-0.9-2-1.2c-0.8-0.3-1.5-0.5-2.3-0.5
		c-0.9,0-1.6,0.2-2.2,0.6c-0.5,0.4-0.8,0.9-0.8,1.6c0,0.7,0.3,1.2,0.9,1.7c0.6,0.5,1.4,0.9,2.3,1.2c0.9,0.3,1.8,0.7,2.7,1.2
		c0.9,0.4,1.7,1.1,2.3,1.9c0.6,0.8,0.9,1.8,0.9,2.9c0,1.7-0.6,3-1.7,4.1s-2.7,1.7-4.8,1.7c-1.2,0-2.5-0.2-3.6-0.7
		C400.7,264.9,399.7,264.2,398.8,263.3z"/>
</g>
<path d="M346.2,185H110.5c-15,0-15,6.7,0,6.7h235.8C361.3,191.7,361.3,185,346.2,185z"/>
</svg>
